<svg width="171" height="168" viewBox="0 0 171 168" fill="none" xmlns="http://www.w3.org/2000/svg">
<g opacity="0.46">
<path opacity="0.46" d="M86.9777 15.7864C87.0999 15.7864 87.0999 15.7864 86.9777 15.7864V15.7864ZM86.9777 15.7864C86.9777 15.9086 86.9777 15.9086 86.9777 15.7864C87.0999 15.7864 87.0999 15.7864 87.0999 15.7864C87.2222 15.6641 86.9777 15.7864 86.9777 15.7864H86.8555C86.8555 15.9086 86.8555 15.9086 86.9777 15.7864C86.9777 15.9086 86.9777 15.7864 86.9777 15.7864Z" fill="black"/>
<path opacity="0.46" d="M156.648 81.6712C156.648 81.5489 156.771 81.5489 156.771 81.5489C156.648 81.5489 156.648 81.6712 156.648 81.6712Z" fill="black"/>
<path opacity="0.46" d="M161.907 123.109C160.685 124.331 159.218 125.309 157.874 126.287C156.04 127.632 154.451 129.098 152.984 130.81C150.295 133.866 148.095 137.41 145.895 140.833C143.45 144.867 141.739 149.267 142.594 154.034C143.083 156.479 144.183 158.801 145.528 160.879C144.428 160.513 143.45 160.024 142.594 159.535C140.027 158.068 137.827 156.112 135.505 154.279C132.938 152.201 130.126 150.245 126.948 149.267C123.648 148.289 120.47 148.656 117.169 149.634C110.935 151.467 104.457 152.323 97.9785 150.612C91.6223 148.778 85.9995 144.5 80.1322 141.566C74.0204 138.51 67.7864 135.944 61.4302 133.866C61.5524 133.499 61.6747 133.132 61.7969 132.765C62.1636 131.665 61.6747 130.321 60.9413 129.587C56.1741 124.698 49.3289 122.62 42.7282 123.964C40.1613 124.453 39.4279 128.854 41.9948 129.954C41.9948 129.954 42.8505 130.443 42.4838 130.198C42.8505 130.565 42.606 130.198 42.8505 130.687C42.7282 130.443 42.8505 130.932 42.9727 131.054C42.9727 131.176 42.9727 131.421 42.9727 131.543C42.9727 131.665 42.8505 131.91 42.8505 132.032L42.7282 132.276C42.606 132.399 42.4838 132.521 41.9948 132.643C39.4279 133.01 37.9611 130.198 37.1054 127.754C38.5722 126.165 39.3057 123.964 39.0612 121.764C38.8167 117.975 36.0053 115.286 32.9494 113.697C29.5268 111.863 25.8598 110.152 22.0705 109.052C20.3592 108.563 18.5257 108.196 16.6922 107.952C16.081 107.952 15.5921 107.829 14.9809 107.829C16.6922 105.629 18.2812 103.185 18.0368 100.129C17.9145 98.1729 16.9366 96.2171 15.3476 95.117C14.7364 94.7503 13.8808 94.6281 13.3918 94.1391C13.1473 93.8947 13.2696 94.0169 13.1473 93.5279C12.9029 92.0611 13.8808 90.4721 14.2475 89.1275C14.8586 87.1717 15.2253 85.216 14.8586 83.138C14.6142 81.4267 13.6363 79.8376 13.1473 78.2486C12.5362 76.5373 12.7806 74.9482 13.0251 73.1147C14.003 66.2695 12.2917 59.3021 8.38018 53.8015C10.4582 51.968 11.6805 49.2788 12.0472 46.3452C12.2917 43.656 11.925 41.0891 11.5583 38.5222C11.3138 37.1776 11.1916 35.833 10.9471 34.4884C12.2917 34.1217 13.3918 33.3883 14.4919 32.2882C15.592 31.0658 15.8365 28.7433 14.4919 27.6432C13.5141 26.7876 12.5362 26.1764 11.5583 25.443C18.4035 22.9983 25.982 22.8761 33.0717 21.5315C37.9611 20.6758 42.606 19.0868 47.0065 16.5198C51.5292 13.9529 55.5629 10.5303 60.2079 8.20785C62.5303 7.10773 65.0973 6.25208 67.6642 6.25208C69.0088 6.25208 70.1089 6.37432 71.4535 6.74103C70.3534 8.08561 69.7422 9.79691 69.8644 11.6304C70.2311 15.9087 74.1427 17.9866 77.8097 18.8423C77.8097 18.8423 77.8097 18.8423 77.9319 18.8423C79.6432 19.209 80.9878 19.6979 82.4546 20.4314C83.5548 21.0425 84.5326 21.5315 85.755 21.7759C87.2218 22.0204 88.6886 21.7759 90.1554 21.287C92.1112 20.5536 93.578 18.5978 95.656 18.2311C97.734 17.8644 100.056 18.1089 102.134 18.3534C104.457 18.5978 106.779 18.8423 109.102 19.209C113.869 19.9424 118.758 20.5536 123.648 20.1869C127.926 19.8202 132.449 17.9867 136.849 18.5978C140.394 19.0868 143.328 21.6537 145.406 24.4651C150.662 31.5548 151.64 40.9668 155.062 49.0344C156.651 52.8236 158.607 56.6129 156.896 60.7689C155.185 64.6805 151.64 67.6141 148.339 70.0588C146.995 71.1589 146.139 72.8702 147.239 74.5815C148.828 77.2707 151.517 78.493 154.329 79.7154C155.062 79.9598 155.918 80.3266 156.774 80.9377C156.774 80.9377 156.896 80.9377 156.896 81.06C156.896 81.06 156.896 81.1822 157.018 81.1822V81.3044C156.896 81.3044 156.896 81.3044 156.896 81.3044C154.207 84.4826 153.107 88.1496 154.329 92.3056C155.673 96.4616 157.996 100.251 160.074 103.918C162.763 109.419 166.797 117.853 161.907 123.109ZM73.0425 7.96338C73.1648 7.96338 73.0425 7.96338 73.0425 7.96338V7.96338ZM156.896 81.4267C156.774 81.4267 156.774 81.4267 156.896 81.4267C156.774 81.4267 156.774 81.4267 156.896 81.4267C156.774 81.4267 156.774 81.4267 156.896 81.4267C156.774 81.4267 156.774 81.4267 156.896 81.4267C157.018 81.1822 157.263 80.9377 156.896 81.4267ZM166.675 103.062C164.841 99.3952 162.519 95.9726 160.93 92.3056C160.441 91.0832 159.707 89.372 160.318 88.0274C161.052 86.3161 162.519 85.216 163.13 83.2602C164.108 79.7154 162.03 76.6595 158.974 75.0704C157.751 74.4593 156.162 73.8481 155.185 73.3592C155.062 73.3592 155.062 73.2369 154.94 73.2369C160.563 68.2253 165.33 61.9913 163.497 53.8015C162.885 51.3568 161.785 49.0344 160.807 46.7119C159.829 44.5117 159.096 42.3114 158.363 39.989C156.896 35.0996 155.551 30.0879 153.351 25.5652C149.317 17.3755 141.739 11.2637 132.327 12.4861C129.76 12.8528 127.193 13.464 124.626 13.8307C122.181 14.1974 119.614 14.1974 117.169 13.9529C112.158 13.5862 107.268 12.6083 102.257 12.1194C99.4453 11.8749 96.5117 11.6304 93.7003 12.2416C92.3557 12.4861 91.1333 13.0972 90.1554 13.9529C89.2998 14.5641 88.5664 15.2975 87.5885 15.6642C87.4663 15.6642 87.344 15.7864 87.0996 15.7864H86.7329H86.8551C86.7329 15.7864 86.6106 15.6642 86.6106 15.6642C86.3662 15.542 85.9995 15.4197 85.755 15.1752C84.0437 14.3196 82.3324 13.5862 80.3766 13.0972C80.2544 13.0972 80.2544 12.975 80.1322 12.975C80.0099 12.975 79.8877 12.975 79.7655 12.8528C79.6432 12.8528 79.6432 12.8528 79.521 12.8528H79.3988C78.4209 12.6083 77.0763 12.3638 76.4651 11.6304C77.6875 11.5082 78.7876 10.5303 79.2765 9.18573C80.3766 6.12985 78.2987 3.07397 75.6095 1.72938C73.0425 0.384796 69.9867 -0.104137 67.1753 0.0180981C61.0635 0.384803 55.6852 3.31844 50.7958 6.61879C46.0286 9.7969 41.5059 12.975 36.0053 14.4418C30.8714 15.9087 25.4931 16.2754 20.1147 17.131C14.003 17.9867 8.01348 19.4535 2.75737 22.7538C0.312665 24.3429 0.92384 27.8877 3.49078 28.7433C3.97972 28.9878 4.59089 29.1101 5.07983 29.3545C4.46866 30.0879 4.10195 31.3103 4.22419 32.4104C4.71313 36.0775 5.56877 39.7445 5.81324 43.4116C5.93548 45.2451 5.81324 49.4011 3.24631 49.5233C0.557135 49.6455 -1.15416 53.0681 0.92384 55.1461C5.3243 59.3021 7.64677 65.4139 6.91336 71.5256C6.66889 73.2369 6.30218 74.826 6.42442 76.5373C6.54665 78.6152 7.15783 80.4488 8.01347 82.4045C8.50241 83.6269 8.99135 84.727 8.74689 85.9494C8.38018 87.6607 7.52453 89.1275 7.15783 90.7165C6.42442 94.0169 7.03559 97.9284 10.0915 99.7619C10.4582 100.006 11.6805 100.251 11.925 100.618C11.925 100.495 11.925 100.984 11.8028 101.107C11.8028 102.207 10.3359 103.429 9.72477 104.285C8.62465 105.751 7.4023 107.341 7.28006 109.296C7.15783 111.252 8.13571 112.963 9.847 113.941C11.3138 114.675 12.9029 114.675 14.4919 114.675C16.3255 114.675 18.159 114.919 19.8703 115.408C23.4151 116.386 27.2044 117.975 30.3825 119.808C31.3604 120.42 32.4605 121.153 32.705 122.131C32.705 122.253 32.5827 122.742 32.5827 123.109C32.5827 122.864 32.4605 123.109 32.4605 123.231C32.4605 123.231 32.4605 123.231 32.3383 123.231C30.7492 123.598 29.5268 125.676 30.138 127.265C31.2381 130.565 32.4605 133.988 35.0274 136.432C37.5944 138.877 41.5059 140.1 44.8062 138.755C48.1066 137.41 49.6956 133.743 49.3289 130.321C51.2847 130.687 53.2405 131.543 54.9517 132.888C54.7073 133.621 54.4628 134.354 54.0961 135.088C53.4849 136.799 54.8295 138.633 56.2963 139.122C63.1415 141.2 69.7422 143.767 76.0984 146.945C82.3324 150.001 88.3219 154.401 94.9226 156.601C101.768 158.924 109.224 158.679 116.069 156.846C119.125 156.112 122.059 154.646 125.237 155.623C128.048 156.479 130.493 158.435 132.693 160.268C138.561 165.158 145.65 169.925 153.351 166.38C155.429 165.402 155.185 162.713 153.962 161.246C151.884 158.557 149.317 155.501 148.828 151.956C148.339 148.289 150.784 144.989 152.618 142.055C154.696 138.755 156.896 135.455 159.829 132.888C162.763 130.198 166.308 128.487 168.386 124.942C172.42 118.219 170.097 109.663 166.675 103.062Z" fill="black"/>
</g>
</svg>
