<svg width="966" height="412" viewBox="0 0 966 412" fill="none" xmlns="http://www.w3.org/2000/svg">
<path d="M940.195 0L948.275 287.98L916.475 318.722C916.475 318.722 923.513 311.365 916.475 308.212C909.437 305.059 901.357 311.89 902.399 302.168C903.181 292.709 909.437 291.921 904.224 285.615C899.011 279.309 896.665 282.724 895.362 278.783C894.058 274.842 880.504 251.457 878.419 248.304C876.333 245.15 873.727 237.793 868.253 237.793C862.519 237.793 859.391 239.895 858.869 236.742C858.348 233.589 860.694 225.181 858.869 219.4C857.045 213.357 858.087 210.467 851.832 210.467C845.836 210.467 838.017 209.679 834.628 211.518C831.24 213.357 791.098 238.056 787.449 249.092C784.06 260.39 781.454 261.441 787.449 264.857C793.444 268.273 796.572 258.814 800.482 266.959C804.131 275.105 805.174 271.689 804.131 277.469C803.089 283.25 802.567 286.666 804.392 289.819C806.216 292.709 809.866 291.921 806.738 296.65C803.61 301.117 799.7 301.643 798.397 302.957C797.093 304.533 687.095 367.594 677.19 382.834C667.285 398.074 330.775 359.186 330.775 359.186L116.514 376.265L0 331.86V9.98469" fill="black"/>
<path d="M802.048 304.796C798.92 305.847 798.659 309.263 797.616 311.628C786.408 322.4 771.29 328.444 758.257 336.852C743.139 346.311 727.76 355.508 712.381 364.441C703.519 369.434 694.917 375.214 687.097 381.52C682.666 385.199 677.974 388.877 675.368 393.87C674.325 396.497 673.543 400.701 675.107 402.804C674.325 386.775 716.291 365.23 729.063 357.084C743.921 348.413 758.518 338.954 773.897 330.546C780.152 327.13 786.408 323.714 792.143 319.773C795.531 317.145 801.005 314.781 800.744 309.788C801.005 307.161 802.83 304.796 805.697 305.059C804.394 304.533 803.351 304.533 802.048 304.796Z" fill="black"/>
<path d="M816.382 316.357C815.6 318.722 815.861 321.35 815.861 323.977C815.079 328.444 807.259 318.459 797.093 328.181C789.795 335.538 781.193 341.319 772.592 347.1C764.511 352.88 756.691 358.924 748.611 364.704C738.967 371.01 729.844 378.367 720.199 384.673C708.73 391.242 697.001 398.074 684.75 402.804C683.186 403.329 681.622 403.855 680.058 403.855C677.191 403.592 676.93 403.329 680.058 404.906C689.181 406.745 702.474 397.286 710.294 393.082C721.242 387.301 731.147 379.944 741.052 372.587C752.26 364.704 763.469 356.559 774.677 348.413C783.018 342.633 791.359 337.115 798.397 330.283C807.78 320.824 815.6 333.174 818.207 325.291C818.728 323.714 817.946 322.138 817.164 320.561C816.643 319.247 816.643 317.671 816.382 316.357Z" fill="black"/>
<path d="M815.079 294.548C812.733 295.599 810.908 298.49 810.126 301.117C810.126 304.27 810.647 305.584 807.52 307.161C811.951 307.161 812.211 304.796 812.472 300.854C812.993 299.015 813.775 297.176 814.818 295.599C814.557 295.074 815.6 294.548 815.079 294.548Z" fill="black"/>
<path d="M802.305 309.525C803.608 314.255 806.736 317.934 810.385 321.087C808.3 316.62 805.693 312.416 802.305 309.525Z" fill="black"/>
<path d="M818.73 317.934C813.777 322.401 816.644 320.036 820.033 319.247C821.858 319.773 822.9 321.612 824.725 321.875C828.374 322.926 830.981 318.722 829.156 320.036C825.246 322.138 822.379 315.306 818.73 317.934Z" fill="black"/>
<path d="M815.602 295.337C818.99 304.27 825.507 311.627 830.72 319.773C828.635 311.627 821.857 301.906 815.602 295.337Z" fill="black"/>
<path d="M807.78 276.681C808.301 278.52 807.519 280.097 806.737 281.673C804.652 284.827 804.652 289.819 809.344 289.293C813.253 289.293 810.126 288.768 808.301 287.98C808.301 287.98 808.301 287.98 808.562 287.98C805.173 286.14 811.689 280.097 807.78 276.681Z" fill="black"/>
<path d="M867.993 251.457C858.088 256.974 848.705 263.543 839.06 269.587C829.677 275.104 819.25 279.834 810.909 286.928C807.26 289.556 815.08 285.877 816.644 285.089C821.857 282.724 826.288 279.309 831.241 276.418C838.278 272.477 845.055 268.01 851.572 263.281C856.785 259.602 862.78 256.186 867.993 251.457Z" fill="black"/>
<path d="M810.648 287.454C811.691 290.344 812.994 292.972 815.08 295.337C817.426 297.702 815.34 294.549 815.08 293.235C815.08 293.235 815.08 293.235 815.08 293.497C814.037 291.133 812.473 289.031 810.648 287.454Z" fill="black"/>
<path d="M829.414 317.408C830.196 319.773 831.239 321.875 833.063 323.452C832.542 321.087 831.499 318.722 829.414 317.408Z" fill="black"/>
<path d="M832.805 322.663C832.805 322.926 832.805 323.452 832.805 323.714C832.023 328.969 832.023 330.809 838.018 330.546C842.189 329.758 838.54 335.801 849.227 330.546C851.573 329.758 846.62 330.546 845.577 330.546C842.189 330.809 842.971 330.546 841.407 328.181C839.582 326.867 836.976 328.707 834.89 328.181C833.327 328.181 833.587 323.977 832.805 322.663Z" fill="black"/>
<path d="M887.543 288.768C881.287 292.446 875.292 296.388 869.297 300.329C861.999 305.059 854.7 309.525 847.402 314.255C842.449 317.145 837.758 320.298 833.848 324.503C843.231 320.824 851.051 314.518 859.132 309C868.255 301.906 878.16 295.599 887.543 288.768Z" fill="black"/>
<path d="M872.164 305.584C864.084 310.577 856.524 316.094 848.183 320.824C844.795 322.926 841.406 325.291 838.539 327.918C842.188 326.605 845.577 325.028 848.965 323.189C857.046 317.934 865.126 312.416 872.164 305.584Z" fill="black"/>
<path d="M849.488 331.597C848.706 331.597 848.184 331.86 847.402 332.385C850.27 331.597 852.094 334.487 852.355 336.852C853.397 341.056 847.924 343.946 851.051 347.1C851.051 349.727 850.27 350.778 852.094 347.362C852.094 345.786 851.052 344.997 852.615 343.684C856.525 340.531 855.222 331.86 849.488 331.597Z" fill="black"/>
<path d="M850.528 348.939C849.225 351.829 848.182 356.033 851.049 358.398C853.395 359.974 856.523 360.5 859.13 359.449C859.912 359.186 860.694 358.923 861.476 358.398C860.172 358.398 859.13 358.398 857.826 358.398C850.789 357.084 851.049 355.245 850.528 348.939Z" fill="black"/>
<path d="M880.505 351.041C874.771 352.355 869.818 355.508 864.866 358.923C863.562 359.186 861.738 358.398 860.695 359.712C862.52 358.923 863.823 361.025 865.387 360.5C871.122 358.661 875.553 354.194 880.505 351.041Z" fill="black"/>
<path d="M915.171 319.773C915.171 319.773 915.171 320.036 915.171 319.773C915.171 320.036 915.171 319.773 915.171 319.773ZM911.522 311.102C909.697 311.102 911.001 311.365 912.043 311.89C915.171 312.416 915.432 315.832 915.171 318.459C915.171 320.036 915.171 321.349 914.911 322.926C914.389 325.028 914.65 324.24 915.692 322.926C918.299 318.459 918.82 309.788 911.522 311.102Z" fill="black"/>
<path d="M915.433 324.24C912.827 326.867 909.177 328.181 906.31 330.546C902.4 333.962 898.23 337.115 894.32 340.531C890.149 344.735 884.415 347.625 880.766 352.355C883.372 349.99 887.021 348.676 889.889 346.574C893.799 343.946 896.926 340.531 900.836 337.903C903.964 335.538 906.831 333.173 909.959 330.546C911.784 328.707 914.391 327.13 915.433 324.24Z" fill="black"/>
<path d="M908.916 311.628C903.703 313.204 899.272 316.62 895.101 319.773C890.67 323.189 886.239 326.605 881.547 330.02C890.67 324.765 899.793 319.51 908.395 313.204C909.959 311.628 912.826 310.314 908.916 311.628Z" fill="black"/>
<path d="M894.578 284.038C895.881 285.352 897.706 285.615 899.27 286.666C899.009 289.031 896.663 291.133 896.924 293.497C898.488 295.337 896.924 295.862 895.881 297.439C896.924 296.913 897.967 296.651 899.009 295.6C899.791 294.811 899.27 293.76 899.009 292.972C900.313 290.87 902.919 287.454 900.834 285.352C899.009 284.301 896.663 284.827 894.578 284.038Z" fill="black"/>
<path d="M896.923 296.913C892.753 301.117 893.014 307.686 899.269 309.526C902.658 310.314 905.525 307.686 908.132 310.577C908.653 310.839 910.999 310.577 909.435 310.314C908.132 310.051 908.132 309 907.35 307.949C905.525 306.635 903.179 306.898 901.094 306.898C897.705 306.898 894.577 303.482 895.62 300.066C895.62 300.066 895.62 300.066 895.62 300.329C896.141 299.278 896.663 298.227 896.923 296.913Z" fill="black"/>
<path d="M895.101 298.49C888.063 300.855 882.068 305.321 876.073 309.788C871.381 312.941 866.689 316.62 862.258 320.036C872.945 312.679 885.456 307.686 895.101 298.49Z" fill="black"/>
<path d="M898.749 290.344C888.062 294.549 879.46 302.957 870.598 310.051C879.981 303.745 890.668 298.753 898.749 290.344Z" fill="black"/>
<path d="M907.088 308.475C900.311 310.577 895.098 315.306 890.406 320.299C896.662 317.146 902.657 313.73 907.088 308.475Z" fill="black"/>
<path d="M870.077 336.852C862.518 339.48 856.001 344.209 850.527 349.727C858.347 347.625 864.342 342.37 870.077 336.852Z" fill="black"/>
<path d="M833.586 353.406C826.288 353.406 818.989 353.931 811.951 354.457C811.169 354.457 810.387 354.457 809.605 354.719C814.297 355.77 818.728 356.559 823.681 356.559C832.022 356.296 840.624 357.084 848.965 355.508C843.752 354.194 838.539 353.406 833.586 353.406Z" fill="black"/>
<path d="M798.917 356.296C796.571 356.559 793.703 356.559 791.879 358.135C790.054 360.237 792.661 362.865 795.007 363.39C797.613 364.179 800.22 363.916 802.826 364.179C807.518 364.441 812.471 364.441 817.163 364.704C839.579 366.018 861.996 366.806 884.673 366.281C900.573 366.806 916.473 366.806 932.374 366.018C936.544 365.755 940.454 364.967 944.625 363.916C939.672 363.653 934.72 364.179 929.767 364.179C914.649 364.704 899.27 364.704 884.152 364.179C869.294 364.441 854.697 364.441 839.84 363.39C831.499 363.128 822.897 362.339 814.556 362.077C810.385 362.077 806.215 361.814 802.044 361.551C799.438 361.288 796.571 361.814 794.485 360.237C798.395 358.923 802.566 358.398 806.736 357.347C804.13 356.559 801.523 356.296 798.917 356.296Z" fill="black"/>
<path d="M901.881 355.245C894.843 355.245 888.066 355.77 881.289 357.347C886.502 358.135 891.455 358.398 896.668 358.135C903.706 357.872 910.483 357.61 917.521 357.872C920.648 358.135 942.544 358.398 930.032 356.821C920.909 355.245 911.265 355.245 901.881 355.245Z" fill="black"/>
<path d="M935.764 356.296C930.29 356.296 950.361 360.237 951.664 360.5C945.148 362.076 938.371 362.076 931.594 363.39C936.286 364.178 941.238 364.704 945.93 364.441H945.669H945.409H945.669C946.712 364.441 947.494 364.178 948.276 364.178H948.015C948.276 364.178 948.276 364.178 948.537 364.178H948.276C950.882 363.916 957.138 362.865 955.053 358.923C949.318 356.296 942.281 356.033 935.764 356.296Z" fill="black"/>
<path d="M791.621 359.186C791.621 360.237 791.882 361.026 791.882 362.077C791.882 362.077 791.882 362.077 791.882 361.814C792.142 363.653 792.664 365.492 793.446 367.332C794.228 364.704 793.446 361.551 791.621 359.186Z" fill="black"/>
<path d="M795.007 367.857C792.922 367.857 791.097 368.12 789.012 368.12C789.794 368.383 790.576 368.908 791.358 369.171C797.092 370.747 802.827 371.273 808.561 371.536C835.148 373.375 861.996 372.324 888.583 372.061C897.706 372.061 907.09 372.85 916.213 371.798C918.298 371.536 920.384 371.273 922.469 370.747C918.82 370.485 915.17 370.747 911.782 370.747C903.962 371.01 895.882 370.485 888.062 370.485C874.508 370.485 860.953 371.01 847.399 370.747C837.234 370.485 827.329 370.222 817.163 369.696C809.864 368.908 802.305 367.857 795.007 367.857Z" fill="black"/>
<path d="M783.02 368.908C784.583 372.85 789.275 373.901 793.185 373.375C789.797 371.536 786.147 371.01 783.02 368.908Z" fill="black"/>
<path d="M788.754 367.069C785.626 367.069 781.194 368.645 784.062 372.324C783.28 368.908 786.668 368.908 788.754 367.069Z" fill="black"/>
<path d="M783.28 369.696C774.157 372.849 779.371 378.104 784.844 381.783C783.802 379.944 782.759 378.104 781.716 376.528C780.152 374.951 780.152 373.638 781.716 371.798C781.716 371.798 781.716 371.798 781.716 372.061C782.238 371.01 782.759 370.485 783.28 369.696Z" fill="black"/>
<path d="M789.273 378.105C786.666 378.105 784.06 378.367 781.453 378.63C783.278 379.156 784.842 379.681 786.666 379.944C795.529 381.258 804.652 381.52 813.514 382.309C838.016 382.571 862.257 382.571 886.759 382.309C896.664 382.046 906.569 382.046 916.474 382.046C920.123 382.046 923.512 382.046 927.161 382.046C927.422 382.046 927.422 381.52 927.161 381.52C891.972 380.995 856.783 381.258 821.334 380.207C810.647 380.207 799.96 377.842 789.273 378.105Z" fill="black"/>
<path d="M779.629 376.791C779.629 383.885 778.065 399.913 781.193 405.431C782.497 407.533 780.672 403.855 781.454 401.753C782.496 393.607 782.757 384.673 779.629 376.791Z" fill="black"/>
<path d="M789.013 406.482C786.146 406.482 783.539 406.745 780.672 407.533C784.582 408.321 788.231 408.847 792.141 409.373C807.78 410.161 823.159 411.212 838.799 411.737C853.917 412 869.035 412.263 884.414 411.212C894.84 410.686 905.006 411.212 915.432 410.686C917.518 410.424 919.342 410.161 921.427 409.898C912.304 409.635 903.181 409.635 894.058 409.635C875.291 410.424 856.784 410.686 838.017 409.898C821.335 409.373 805.174 407.27 789.013 406.482Z" fill="black"/>
<path d="M955.831 362.077C955.049 363.653 955.049 365.492 955.049 367.332C949.575 367.332 944.362 368.908 939.148 370.485C944.883 370.748 950.878 371.01 956.352 369.171C957.916 367.594 955.57 364.179 955.831 362.077Z" fill="black"/>
<path d="M957.656 368.646C958.96 372.061 963.391 372.587 963.651 376.528C965.737 372.061 960.784 370.485 957.656 368.646Z" fill="black"/>
<path d="M962.353 378.105C960.528 378.367 958.704 378.105 956.879 378.105H957.14C949.841 377.579 942.803 378.63 935.766 380.207C944.628 380.732 954.012 382.046 962.353 378.63C963.917 377.579 963.917 377.842 962.353 378.105Z" fill="black"/>
<path d="M962.094 378.104C963.136 381.258 963.918 384.411 963.658 387.826C963.136 392.556 962.094 397.286 962.354 402.015C962.354 403.329 962.615 404.643 963.397 405.694C963.136 404.905 963.136 404.117 963.397 403.066C965.482 394.921 968.871 385.199 962.094 378.104Z" fill="black"/>
<path d="M940.459 407.008C930.814 407.008 921.431 407.533 912.047 409.372C921.691 410.161 931.336 409.11 940.719 409.372C947.757 409.372 954.795 410.686 961.572 408.321C962.354 408.059 964.7 406.745 962.875 407.27C958.965 407.796 954.795 407.008 950.885 407.008H951.146C947.496 407.008 944.108 407.008 940.459 407.008Z" fill="black"/>
</svg>
