<svg width="448" height="125" viewBox="0 0 448 125" fill="none" xmlns="http://www.w3.org/2000/svg">
<g clip-path="url(#clip0_40_8430)">
<path d="M90.0939 53.5494C84.2518 55.0926 82.5606 52.4692 85.1742 45.9877C86.4041 43.9815 87.9415 42.1297 89.6327 40.4321C89.9402 39.9692 90.4014 39.6605 90.7089 39.1976C92.2463 43.9815 94.2449 51.0803 90.0939 53.5494ZM105.622 18.0556C103.008 19.5988 97.3197 24.0741 92.0925 29.4753C90.5551 25.463 89.0177 21.4506 87.4803 17.4383C86.7116 15.5865 84.2518 15.4321 83.4831 17.4383C82.4069 20.5247 82.0994 25.1544 79.947 27.7778C79.3321 30.2469 77.7947 30.8642 75.3348 29.321C73.1824 30.0926 71.7988 29.6297 71.4913 28.0865C70.7226 27.0062 70.5689 24.5371 70.4151 23.1482C70.1076 21.142 67.0328 20.9877 67.0328 23.3025C67.0328 28.7037 65.8029 36.7284 61.1907 39.9692C56.8859 42.7469 52.2737 40.2778 47.6615 40.4321C50.1214 36.2655 52.2737 31.7902 54.1186 27.1605C55.0411 24.6914 51.8125 23.1482 50.1214 25C45.0479 30.5556 38.4371 31.9445 31.2113 30.2469C30.5963 30.0926 29.3664 30.7099 29.2126 31.3272C26.9065 39.6605 24.7542 61.8827 12.3012 58.4877C6.15156 56.7902 3.53797 49.8457 4.15293 43.9815C4.30667 41.6667 5.07538 39.5062 5.99782 37.3457C6.61278 36.1111 7.22775 34.8766 7.84271 33.642C9.38011 29.4753 12.6087 28.3951 17.8358 30.4013C17.6821 32.2531 20.9107 32.5618 21.2181 30.7099C22.4481 22.6852 13.2236 20.9877 8.30393 25.463C1.84683 31.3272 -1.38173 43.2099 1.3856 51.5432C3.84545 58.9506 11.0713 64.3519 18.912 62.0371C22.7555 60.9568 25.2154 58.179 26.5991 54.6297C29.2126 48.3025 30.4426 41.0494 32.2875 34.4136C37.2072 35.8025 42.2806 35.1852 46.7391 33.0247C45.3554 36.1111 43.6643 39.1976 41.8194 42.1297C39.8207 43.3642 38.4371 45.5247 38.2833 48.1482C38.2833 49.5371 40.4357 50.3087 41.2044 49.2284C42.5881 47.5309 43.9717 45.8334 45.2017 43.9815C48.8914 43.6729 54.2724 45.679 56.271 45.679C59.3458 45.8334 62.1131 44.9074 64.573 43.0556C68.109 40.1235 69.4927 36.7284 69.9539 32.8704C71.3376 34.5679 73.1824 35.6482 75.9498 35.4939C82.0994 35.1852 84.2518 29.6297 85.6354 24.3827C86.7116 27.1605 87.6341 30.0926 88.5565 33.0247C80.562 41.9753 74.8736 52.6235 83.4831 58.0247C89.6327 61.8827 96.3973 55.8642 97.0122 49.5371C97.4734 45.2161 95.9361 40.7408 94.5524 36.7284C94.3986 36.2655 94.2449 35.9568 94.0912 35.4939C94.5524 35.0309 95.0136 34.5679 95.4748 34.105C99.6258 29.9383 104.392 26.2346 108.543 21.9136C110.388 19.9074 108.082 16.5124 105.622 18.0556Z" fill="black"/>
<path d="M211.699 26.8518C210.316 28.0864 208.778 30.0926 207.548 31.0185C206.78 32.2531 205.857 32.716 204.474 32.716C202.936 33.642 202.014 33.0247 202.168 31.0185C200.476 27.9321 202.168 20.9876 202.936 17.7469C203.397 15.4321 200.63 14.1975 198.785 14.9691C190.945 18.0555 182.796 18.0555 175.109 14.8148C173.264 14.0432 170.958 15.2778 171.112 17.4382C171.266 19.4444 172.649 26.8518 171.573 28.5494C169.267 32.0987 165.27 23.3024 164.194 20.8333C163.271 18.6728 159.889 19.1358 159.428 21.4506C158.966 24.6913 157.429 33.0247 153.432 33.4876C148.512 34.1049 146.975 25.6173 147.282 21.7592C147.436 19.5987 144.361 18.9815 143.285 20.5247C139.288 26.5432 136.213 32.716 134.368 39.6605C133.907 41.358 136.674 41.9753 137.289 40.4321C138.98 36.1111 141.133 32.0987 143.439 28.0864C144.669 33.4876 147.897 39.0432 153.432 39.1975C158.352 39.1975 161.273 34.1049 162.964 29.0123C165.424 33.179 169.113 37.037 173.418 35.6481C178.338 34.1049 177.877 26.6975 177.415 21.2963C183.719 23.1481 190.33 23.3024 196.633 21.7592C195.71 28.0864 195.557 36.4197 201.091 39.3518C207.395 42.5926 214.467 34.1049 216.158 28.858C216.465 26.3889 213.083 25.6173 211.699 26.8518Z" fill="black"/>
<path d="M202.783 5.09254C203.244 5.24687 203.706 5.40119 204.167 5.70983L204.782 5.86415C205.089 5.86415 205.243 5.86415 205.551 5.86415C205.704 5.86415 206.012 5.70983 206.166 5.55551C206.473 5.40119 206.781 5.24687 206.934 4.93822C207.088 4.7839 207.242 4.62958 207.242 4.47526C207.396 4.32094 207.395 4.0123 207.395 3.85798C207.395 3.70366 207.549 3.39501 207.395 3.24069C207.395 2.93205 207.242 2.62341 207.088 2.31477C206.934 2.00612 206.934 1.54316 206.627 1.38884C206.319 0.925878 205.858 0.771557 205.397 0.462915C205.089 0.462915 204.936 0.308594 204.628 0.308594C204.167 0.308594 203.552 0.308594 203.091 0.462915C202.783 0.617236 202.476 0.771557 202.168 1.0802C201.861 1.38884 201.707 1.54316 201.553 2.00612C201.4 2.31477 201.246 2.62341 201.4 3.08637C201.4 3.39501 201.4 3.85798 201.553 4.16662C202.015 4.32094 202.322 4.7839 202.783 5.09254Z" fill="black"/>
<path d="M236.453 22.5309C243.525 24.5371 235.531 23.1482 233.84 22.8395C233.225 22.8395 232.61 22.6852 231.841 22.6852C233.071 21.2963 234.608 21.2963 236.453 22.5309ZM301.332 73.6111C292.876 80.4013 284.881 68.6729 277.963 64.8148C282.422 61.7284 286.88 59.105 291.8 56.7902C293.183 56.1729 293.645 54.0124 291.953 53.2408C287.956 51.6976 285.035 49.8457 281.807 47.2223C279.962 45.679 277.963 44.5988 275.503 44.2902C271.813 43.8272 268.277 45.0618 265.664 47.5309C263.204 41.6667 258.438 35.8025 257.977 30.0926C257.669 27.4692 254.748 27.0062 253.057 28.5494C249.829 31.7902 246.293 34.5679 242.449 37.1914C240.912 38.2716 239.22 39.6605 237.529 40.4321C230.457 43.6729 227.997 41.0494 228.305 34.5679C228.305 32.2531 228.92 30.0926 229.535 27.9321C229.689 27.3148 229.996 26.5432 230.304 25.926C237.683 28.5494 247.522 30.7099 245.985 22.6852C243.986 12.6543 231.226 15.7408 227.075 22.0679C225.999 21.9136 225.076 21.7593 224 21.4506C222.924 21.142 222.463 22.8395 223.385 23.3025C224 23.4568 224.769 23.9198 225.845 24.3827C222.309 31.4815 221.387 42.7469 229.227 46.7593C236.761 50.6173 247.061 41.9753 253.518 35.6482C255.056 39.8148 257.516 43.3642 259.514 47.5309C260.283 49.0741 261.052 50.926 261.359 52.6235C261.359 53.3951 261.359 54.321 261.359 55.0926C261.052 58.7963 259.36 60.3395 256.286 59.8766C252.135 60.8025 247.061 58.179 243.679 56.1729C241.219 54.6297 238.759 58.179 240.143 60.3395C244.601 67.4383 259.361 67.7469 264.588 61.4198C267.509 57.8704 267.816 54.321 266.894 50.6173C270.43 46.7593 275.811 47.0679 279.962 50.463C282.268 52.3148 284.42 53.8581 286.88 55.0926C284.574 56.3272 282.114 57.7161 279.962 59.105C277.963 60.3395 276.118 61.8827 273.966 63.2716C270.122 62.5 266.125 63.5803 264.434 67.7469C263.973 68.9815 264.741 70.679 266.279 70.3704C269.046 70.0618 271.506 68.9815 273.658 67.7469C277.041 69.4445 280.577 73.3025 281.807 74.3828C284.574 77.0062 287.495 79.6297 291.185 80.8642C296.719 82.8704 302.715 81.9445 305.944 76.6976C307.481 73.7655 303.484 71.9136 301.332 73.6111Z" fill="black"/>
<path d="M399.112 79.0123C396.344 79.0123 393.731 78.7037 390.963 78.0864C392.655 75.6173 394.961 73.1481 397.574 73.9197C400.803 73.6111 401.264 75.3086 399.112 79.0123ZM341.92 88.8889C342.996 87.6543 344.073 86.5741 345.303 85.8024C344.226 86.8827 342.996 87.9629 341.92 88.8889ZM389.887 71.2963C388.042 72.6852 386.659 74.537 385.429 76.5432C385.275 76.6975 385.121 76.6975 384.968 76.8518C380.663 81.7901 376.051 88.2716 369.286 89.3518C362.368 90.4321 359.447 84.2592 354.219 81.4815C354.066 81.3271 353.758 81.3271 353.604 81.1728C356.218 78.0864 358.832 75 361.445 71.9136C362.368 70.8333 361.906 69.2901 360.523 68.9815C356.218 67.7469 349.146 64.3518 344.995 67.1296C342.689 68.6728 342.381 71.2963 343.919 73.4568C344.38 74.074 345.149 73.4568 344.841 72.8395C347.147 71.9136 349.3 70.9876 351.606 69.9074C352.682 70.216 353.604 70.5247 354.681 70.8333C355.449 71.142 356.218 71.2963 357.141 71.6049C354.834 74.2284 352.528 77.0061 350.222 79.6296C350.068 79.7839 349.915 79.9383 349.915 80.0926C343.765 79.6296 338.999 85.3395 336.386 91.0494C335.771 92.2839 336.693 93.6728 338.077 93.6728C342.074 93.6728 344.688 91.5123 347.301 88.7345C348.377 87.5 349.607 86.2654 350.683 85.0308C351.913 85.3395 353.297 86.1111 354.681 87.5C358.063 90.7407 360.984 94.1358 365.904 94.7531C373.283 95.8333 378.818 91.9753 383.123 86.7284C383.123 89.5062 383.738 92.2839 385.275 94.5987C389.426 101.08 400.649 102.623 404.031 94.5987C404.954 92.2839 401.725 90.2778 400.034 91.9753C391.886 99.8457 387.735 87.9629 389.887 81.4815C396.806 83.9506 408.336 86.1111 408.182 77.1605C407.567 67.9012 395.422 66.9753 389.887 71.2963Z" fill="black"/>
<path d="M353.141 59.2593C353.294 59.5679 353.448 59.8765 353.602 60.1852C353.756 60.3395 354.063 60.8025 354.217 60.9568C354.217 60.9568 354.217 60.9568 354.371 61.1111C354.678 61.2654 354.832 61.4198 355.139 61.7284C355.447 61.8827 355.754 62.037 356.062 62.037C356.215 62.037 356.215 62.037 356.523 62.037C356.523 62.037 356.83 62.037 356.984 62.037C357.445 62.037 357.907 62.037 358.368 61.7284C358.829 61.5741 359.29 61.4198 359.598 60.9568C359.751 60.6482 360.059 60.4938 360.213 60.1852C360.213 60.1852 360.213 60.0309 360.366 60.0309C360.674 59.7222 360.981 59.2593 361.135 58.642C361.135 58.3333 361.289 58.0247 361.289 57.7161C361.289 57.5617 361.289 57.2531 361.289 56.9445V56.7901C361.289 56.6358 361.135 56.0185 360.981 55.7099C360.828 55.5556 360.52 55.0926 360.366 54.9383C360.366 54.9383 360.366 54.9383 360.213 54.784C359.905 54.4753 359.598 54.321 359.29 54.1667C359.29 54.1667 359.29 54.1667 359.136 54.1667C358.829 54.0123 358.522 53.858 358.214 53.858C358.214 53.858 358.214 53.858 358.06 53.858C357.907 53.858 357.753 53.858 357.599 53.858C357.445 53.858 357.292 53.858 357.138 53.858C356.984 53.858 356.83 53.858 356.677 54.0124C356.523 54.0124 356.369 54.0123 356.215 54.1667C356.062 54.1667 355.447 54.4753 355.293 54.6296C355.293 54.6296 355.293 54.6296 355.139 54.6296C354.524 55.0926 354.217 55.5556 353.756 56.1728C353.602 56.3272 353.448 56.7901 353.448 57.0988C353.448 57.0988 353.448 57.0988 353.448 57.2531C353.448 57.4074 353.294 58.0247 353.294 58.179C353.294 58.3333 353.294 58.642 353.294 58.642C353.141 58.7963 353.141 59.1049 353.141 59.2593Z" fill="black"/>
<path d="M418.327 98.3025C418.327 98.3025 418.173 98.3025 418.173 98.1482C418.173 98.1482 418.327 98.1482 418.327 98.3025ZM418.788 98.6112C418.634 98.3025 418.48 97.8396 418.173 97.5309C417.558 96.7593 416.482 96.4507 415.406 96.4507C414.483 96.605 413.714 96.9136 413.099 97.6852C412.792 97.9939 412.484 98.4569 412.331 98.9198C412.177 99.5371 412.023 100 412.177 100.617C412.177 101.08 412.331 101.389 412.484 101.698C412.638 102.161 412.946 102.469 413.253 102.778C414.022 103.549 415.098 104.167 416.174 104.321C417.865 104.475 419.403 103.395 419.864 101.852C420.018 101.235 420.018 100.463 419.864 99.8457C419.556 99.3828 419.249 98.9198 418.788 98.6112Z" fill="black"/>
<path d="M434.777 107.87C434.623 108.025 434.623 108.179 434.469 108.333C434.623 107.253 434.623 106.173 434.777 105.093C434.777 105.247 434.93 105.247 434.93 105.401C434.93 105.556 435.084 105.864 435.084 106.019C435.084 106.327 435.084 106.636 435.084 106.945C434.93 107.253 434.777 107.562 434.777 107.87ZM434.777 104.63C434.623 104.167 434.315 103.858 433.854 103.549C433.547 103.395 433.239 103.241 433.085 103.086C432.47 102.778 431.855 102.778 431.241 102.778C430.626 102.932 429.857 103.086 429.242 103.549C428.934 103.858 428.781 104.012 428.473 104.321C428.012 104.784 428.012 105.093 427.705 105.71C427.551 106.327 427.551 106.173 427.551 106.79C427.551 106.944 427.551 107.099 427.551 107.407C427.705 108.179 427.858 108.642 428.319 109.414C428.627 109.877 428.934 110.185 429.396 110.34C429.857 110.648 430.318 110.803 430.779 110.803C431.087 110.803 431.394 110.803 431.702 110.803C432.317 110.648 432.932 110.494 433.547 110.031L433.7 109.877C433.854 109.722 434.162 109.414 434.315 109.259C434.315 109.105 434.315 108.951 434.315 108.951C434.469 108.796 434.623 108.488 434.623 108.333C434.777 108.025 434.777 107.716 434.93 107.407C435.084 106.944 435.084 106.482 434.93 106.019C435.084 105.093 434.93 104.784 434.777 104.63Z" fill="black"/>
<path d="M448 120.37C447.846 119.444 447.385 118.518 447.077 117.593C446.462 115.741 444.156 114.66 442.465 115.432C441.542 115.895 440.774 116.512 440.313 117.438C440.159 117.747 440.159 118.056 440.005 118.364C439.851 118.981 440.005 119.599 440.159 120.216C440.313 121.142 440.466 121.759 440.774 122.685C441.081 123.457 442.157 124.383 442.926 124.691C443.695 125 444.464 125 445.386 124.691C446.923 124.228 448.307 122.222 448 120.37Z" fill="black"/>
</g>
<defs>
<clipPath id="clip0_40_8430">
<rect width="448" height="125" fill="white"/>
</clipPath>
</defs>
</svg>
