<svg width="281" height="120" viewBox="0 0 281 120" fill="none" xmlns="http://www.w3.org/2000/svg">
<g clip-path="url(#clip0_40_8419)">
<path d="M44.8951 28.951C45.1049 22.2377 45.1049 15.5244 45.1049 9.02094C45.1049 7.13283 43.8462 5.45451 41.958 5.24472C40.6993 5.03493 39.021 5.6643 38.3916 7.13283C37.3427 7.34262 36.7133 7.97199 36.5035 9.44052C35.6643 32.937 34.4056 56.6433 33.1469 80.1398C32.9371 80.979 32.9371 82.0279 32.7273 82.8671C29.5804 66.7132 28.5315 50.3496 28.1119 33.986C27.9021 27.9021 27.9021 21.6084 27.6923 15.5244C27.6923 14.0559 26.8531 12.7972 25.3846 12.3776C24.1259 11.958 22.4476 12.3776 22.028 13.8461C21.8182 14.4755 21.6084 15.3146 21.3986 15.944C21.3986 15.7342 21.3986 15.7342 21.3986 15.5244C21.1888 14.6853 19.7203 14.2657 19.7203 15.3146C19.7203 16.7832 19.3007 18.2517 19.0909 19.93C19.0909 20.7692 19.0909 21.3986 18.8811 22.2377C17.6224 28.7412 16.5734 35.2447 15.3147 41.958C15.3147 42.1678 15.3147 42.1678 15.3147 42.3776C13.2168 52.0279 11.3287 61.6783 9.65035 71.5384C9.23077 56.0139 8.39161 40.909 7.55245 25.8042C7.13287 19.0909 6.5035 12.5874 5.45455 6.08388C5.45455 5.6643 5.03497 5.24472 4.61539 5.03493C4.61539 4.82514 4.61539 4.82514 4.61539 4.61535C4.1958 3.3566 1.67832 2.30765 1.25874 3.98597C0.41958 7.13283 0.41958 10.2797 0.41958 13.4265C0.20979 16.7832 0 19.93 0 23.0769C0 29.5804 0 36.0839 0.20979 42.5874C0.629371 55.5944 1.25874 68.6014 2.51748 81.6084C3.14685 88.951 3.98601 96.2937 5.03497 103.636C5.45455 106.993 10.6993 107.622 11.3287 104.056C13.8462 90.4195 16.1538 76.7832 18.6713 62.937C19.3007 59.1608 19.9301 55.3846 20.7692 51.3986C20.7692 51.8181 20.7692 52.0279 20.7692 52.4475C21.8182 65.0349 23.2867 77.6223 24.965 90C25.8042 96.5035 27.0629 103.007 29.5804 109.091C30.6294 111.399 34.1958 112.028 35.4545 109.51C37.972 104.056 38.6014 97.972 39.021 92.0979C39.2308 88.3216 39.4406 84.3356 39.6504 80.5594C42.5874 63.5664 44.2657 46.1538 44.8951 28.951Z" fill="black"/>
<path d="M142.028 9.02095C140.979 8.81116 139.93 8.81116 138.672 8.81116C138.462 8.60137 137.832 8.39158 137.413 8.39158C136.784 8.39158 136.364 8.39158 135.735 8.39158C130.909 7.972 126.084 7.55242 121.049 6.92305C114.336 6.29368 107.413 5.45452 100.7 5.8741C100.7 5.8741 100.7 5.8741 100.49 5.8741C100.07 5.66431 99.6507 5.66431 99.2311 5.66431C99.0213 5.66431 98.6017 5.66431 98.3919 5.8741C97.9723 6.08389 97.5528 6.29368 97.1332 6.71326C96.9234 6.92305 96.9234 7.13284 96.7136 7.34263C96.5038 7.55242 96.5038 7.76221 96.294 7.972C96.5038 8.39158 96.5038 8.60137 96.5038 9.02095C95.0353 9.86011 95.4549 12.1678 97.1332 12.7972C100.49 14.0559 104.056 14.0559 107.623 14.2657C110.979 14.4755 114.336 14.6853 117.902 14.6853C122.518 14.8951 127.133 15.1049 131.749 15.3147C124.825 27.0629 118.742 39.2307 113.287 51.6084C112.238 51.6084 111.189 51.8182 109.93 51.8182C108.462 52.0279 106.784 52.2377 105.315 52.4475C103.846 52.6573 102.168 52.8671 101.329 54.3356C100.7 55.3846 100.909 56.8531 101.958 57.6923C104.266 59.3706 107.623 58.7412 110.35 58.5314C106.784 67.1328 103.637 75.7342 100.7 84.5454C99.4409 88.1119 98.3919 91.6783 97.343 95.4545C96.5038 97.3426 95.8744 99.021 95.0353 100.909C93.9863 103.427 96.7136 106.154 99.2311 106.154C106.154 105.734 113.287 105.315 120.21 104.895C123.567 104.685 127.133 104.476 130.49 104.266C134.056 104.056 137.832 104.056 141.399 103.217C144.965 102.378 143.287 96.7133 140.14 96.5035C136.574 96.2937 132.798 96.7133 129.231 96.9231C125.874 97.1329 122.308 97.3426 118.951 97.5524C114.126 97.7622 109.301 98.1818 104.476 98.3916C104.686 97.7622 104.895 97.1328 105.105 96.5035C110.56 83.4965 116.224 70.6993 122.308 58.1119C124.196 58.1119 126.294 58.1119 128.182 58.1119C129.651 58.1119 131.119 58.1119 132.588 58.3217C134.056 58.3217 135.735 58.7412 137.203 58.5314C138.881 58.3217 140.35 57.0629 140.14 55.1748C139.93 53.2867 138.672 52.0279 136.784 51.3986C135.315 50.979 133.427 50.979 131.749 50.979C130.28 50.979 128.602 50.979 127.133 50.7692C126.714 50.7692 126.084 50.7692 125.665 50.7692C128.602 44.8951 131.539 38.8112 134.686 32.937C138.042 26.4335 141.609 19.93 145.175 13.4265C146.224 11.958 143.916 9.23074 142.028 9.02095Z" fill="black"/>
<path d="M195.526 7.55242C194.687 7.34263 193.848 7.55242 193.008 7.972C191.54 7.76221 189.862 8.81116 189.862 10.4895C190.281 34.6154 189.652 58.7412 187.973 82.8671C182.729 65.4545 178.533 47.6223 175.596 29.7902C174.337 22.8671 173.498 16.1538 172.659 9.23074C172.449 7.76221 170.98 6.50346 169.722 6.29367C169.302 6.29367 168.673 6.29367 168.043 6.50346C166.365 5.87409 164.477 6.50346 164.057 8.60137C161.959 19.93 159.862 31.4685 157.973 42.7972C155.876 54.1258 153.568 65.6643 152.099 76.993C151.26 83.4965 150.211 90 149.582 96.7133C149.582 96.923 149.582 97.1328 149.792 97.3426C149.792 98.3916 149.582 99.4405 149.582 100.489C149.372 102.797 153.568 104.685 154.407 101.958C157.134 90.2098 159.022 78.2517 161.12 66.5035C163.218 54.5454 165.736 42.7972 168.253 31.0489C168.253 30.8391 168.253 30.6293 168.463 30.4195C173.078 54.1258 177.694 77.8321 182.309 101.538C182.729 103.427 182.938 105.524 183.778 107.413C184.617 109.51 186.924 111.189 189.232 110.35C190.701 109.93 191.54 108.671 191.54 107.413C191.75 106.573 191.959 105.524 192.169 104.685C193.218 104.266 194.057 103.427 194.057 102.168C196.365 78.8811 197.834 55.3846 198.463 32.0979C198.673 25.3846 198.883 18.6713 198.883 11.958C198.883 9.65032 197.414 7.972 195.526 7.55242Z" fill="black"/>
<path d="M72.797 23.077C74.0558 33.7763 75.1047 44.6853 75.9439 55.3846C72.5872 54.9651 69.2306 55.1749 66.2935 55.3846C65.6642 55.3846 65.2446 55.5944 64.6152 55.5944C66.9229 46.3637 69.2306 37.1329 71.5383 27.9021C71.9579 26.2238 72.3774 24.5455 72.797 23.077ZM84.7551 88.7413C84.3355 81.8182 83.9159 74.8951 83.2865 68.1819C83.0767 66.7133 83.0767 65.2448 82.867 63.7763C84.1257 62.9371 84.7551 61.4686 83.9159 60C83.4963 59.3707 83.0767 58.7413 82.4474 58.1119C81.6082 47.8322 80.5593 37.5525 79.5103 27.2728C78.6712 19.7203 77.832 11.9581 76.9928 4.40562C76.783 2.93709 75.5243 1.67835 74.0558 1.46856C73.846 1.46856 73.6362 1.46856 73.2166 1.46856C71.9579 0.839188 70.0697 1.04898 69.2306 2.51751C67.7621 5.45457 66.9229 9.02101 66.0837 12.1679C65.0348 15.3147 64.1956 18.6714 63.1467 21.8182C61.2586 28.1119 59.5802 34.6154 58.1117 41.1189C56.853 46.1539 55.804 51.1888 54.5453 56.2238C51.6082 56.4336 48.4614 56.6434 45.5243 57.2728C44.6851 57.4825 44.2655 58.3217 44.4753 59.1609C44.6851 60 45.3145 60.6294 46.1537 60.8392C46.5732 61.049 46.9928 61.049 47.4124 61.049C48.6711 62.3077 51.1886 62.9371 53.0767 63.1469C51.818 69.021 50.769 74.6854 49.7201 80.5595C48.4614 87.9021 46.9928 95.6644 47.4124 103.217C47.4124 103.427 47.4124 103.427 47.6222 103.636C48.2516 105.105 50.5593 105.734 51.3984 103.846C53.7061 97.7623 55.1746 91.2588 56.853 84.9651C58.5313 78.6714 60.2096 72.1679 61.6781 65.8742C61.8879 65.4546 61.8879 64.8252 62.0977 64.4056C66.9229 65.035 71.7481 65.2448 76.5732 65.4546C76.9928 72.1679 77.6222 78.8811 78.0418 85.5944C78.2516 89.3707 78.4614 93.3567 78.6711 97.1329C78.8809 100.909 78.8809 104.895 79.5103 108.671C79.9299 111.608 85.1746 112.657 85.3844 109.091C85.5942 105.734 85.1746 102.168 84.9649 98.8112C84.9649 95.4546 84.9649 92.0979 84.7551 88.7413Z" fill="black"/>
<path d="M274.617 0.41957C272.728 -0.41959 270.421 0.629361 270.211 2.72726C267.484 26.014 265.596 49.5105 264.547 73.007C264.337 79.7203 264.127 86.4336 264.337 92.9371C264.337 95.2448 267.274 96.5035 268.533 95.2448C270.211 95.6643 272.309 95.035 272.729 92.7273C273.777 86.4336 274.407 79.7203 275.246 73.4266C275.875 67.1329 276.505 60.6294 277.134 54.3357C278.393 41.5385 279.232 28.5315 280.071 15.7343C280.281 10.0699 280.491 3.14684 274.617 0.41957Z" fill="black"/>
<path d="M267.062 104.476C265.173 104.895 263.495 105.734 262.236 107.203C261.817 107.832 261.397 108.671 260.978 109.301C260.768 110.35 260.768 111.189 260.978 112.028C260.978 112.448 260.978 112.867 260.978 113.287C261.187 114.126 261.397 114.755 261.817 115.385C261.817 115.594 261.817 115.594 262.027 115.804C262.656 117.483 264.124 118.951 265.803 119.58C267.691 120.42 269.999 120.21 271.467 118.951C271.677 118.741 271.677 118.741 271.887 118.531C272.306 118.322 272.516 118.112 272.936 117.902C273.985 117.063 275.034 116.014 275.453 114.545C275.873 112.867 275.873 111.189 275.243 109.51C274.194 106.364 270.628 103.846 267.062 104.476Z" fill="black"/>
<path d="M219.022 23.0769C219.442 20.1399 219.861 17.2028 220.071 14.2658C220.91 14.2658 221.749 14.4755 222.379 14.4755C225.316 14.6853 228.253 14.8951 231.19 15.3147C234.127 15.7343 237.064 16.1539 240.001 16.5734C241.47 16.7832 242.938 16.993 244.616 17.2028C245.246 17.4126 245.875 17.4126 246.505 17.6224C247.763 17.8322 248.602 17.4126 249.651 16.7832C251.959 15.7343 250.7 12.5874 249.442 11.5385C247.973 10.2797 246.295 10.0699 244.616 9.86016C243.148 9.65037 241.679 9.44058 240.001 9.23079C237.064 8.81121 234.127 8.60142 231.19 8.39163C228.253 8.18184 225.106 7.97205 222.169 7.97205C220.7 7.97205 219.022 7.97205 217.553 7.97205C216.924 7.97205 216.295 7.97205 215.665 8.18184C214.616 8.39163 214.197 8.81121 213.358 9.021C213.148 9.23079 212.938 9.23079 212.728 9.44058C211.679 8.81121 210.001 9.23079 209.791 10.6993C207.484 22.028 207.064 33.5665 206.225 45.1049C206.015 47.2028 206.015 49.0909 205.805 51.1888C205.386 51.8182 205.386 52.4476 205.595 53.0769C204.966 61.8881 204.337 70.9091 203.707 79.7203C203.288 86.2238 202.868 92.9371 202.239 99.4406C202.029 101.119 203.498 103.007 205.176 103.217C213.777 104.476 222.169 105.734 230.77 106.573C232.868 106.783 234.966 106.993 237.064 107.203C238.952 107.413 240.84 107.832 242.728 107.622C243.987 107.622 245.036 107.203 246.085 106.783C246.295 106.783 246.505 106.993 246.505 106.993C248.183 107.413 250.071 106.154 250.281 104.685C250.7 103.007 249.861 101.748 248.602 100.909C247.763 98.6014 244.826 97.5525 243.148 98.6014C241.05 98.1818 238.742 97.972 236.644 97.7623C232.449 97.3427 228.463 97.1329 224.267 96.7133C220.071 96.2937 215.875 96.0839 211.889 95.8741C211.05 95.8741 210.001 95.8741 208.742 95.8741C208.952 93.986 208.952 92.0979 209.162 90.2098C209.372 88.5315 209.791 87.063 210.001 85.3846C211.05 79.5105 211.889 73.8462 212.728 67.972C213.358 64.1958 213.777 60.2098 214.407 56.4336C214.616 56.4336 215.036 56.4336 215.246 56.4336C218.183 56.6434 221.33 56.8532 224.267 56.8532C226.994 56.8532 229.721 57.063 232.658 56.8532C235.805 56.6434 238.742 54.7553 238.113 51.3986C237.693 48.4616 233.498 46.7832 231.609 49.3007C231.4 49.3007 231.19 49.3007 231.19 49.3007C230.141 49.3007 229.092 49.3007 228.043 49.5105C225.735 49.5105 223.428 49.5105 220.91 49.5105C219.022 49.5105 217.134 49.5105 215.456 49.3007C216.295 43.6364 216.924 37.972 217.763 32.3077C218.183 29.5804 218.602 26.4336 219.022 23.0769Z" fill="black"/>
</g>
<defs>
<clipPath id="clip0_40_8419">
<rect width="280.07" height="120" fill="white"/>
</clipPath>
</defs>
</svg>
