<svg width="477" height="396" viewBox="0 0 477 396" fill="none" xmlns="http://www.w3.org/2000/svg">
<path d="M409.041 168.936L409.707 165.27H396.543L393.211 185.266H397.876L399.21 177.268H406.874L407.374 173.602H399.876L400.709 168.936H409.041Z" fill="white"/>
<path d="M418.873 170.935L419.707 177.768H415.541L418.873 170.935ZM413.708 181.434H420.04L420.54 185.266H425.372L421.706 165.27H417.207L406.543 185.266H411.708L413.708 181.434Z" fill="white"/>
<path d="M466.693 168.936L467.359 165.27H453.862L450.363 185.266H463.86L464.527 181.6H455.862L456.695 176.768H464.027L464.693 173.102H457.195L458.028 168.936H466.693Z" fill="white"/>
<path d="M376.05 293.748L379.383 286.916L380.216 293.748H376.05ZM377.883 281.083L367.219 301.08H372.384L374.217 297.247H380.549L381.049 301.08H385.881L382.215 281.083H377.883Z" fill="white"/>
<path d="M363.884 127.776L366.217 113.612H362.884L362.051 119.277H357.052L358.052 113.612H354.719L352.387 127.776H355.719L356.719 121.944H361.551L360.551 127.776H363.884Z" fill="white"/>
<path d="M388.879 127.776L390.879 116.278H395.044L395.544 113.612H384.047L383.547 116.278H387.546L385.546 127.776H388.879Z" fill="white"/>
<path d="M51.9617 180.767L53.4614 172.268H60.2931L58.7934 180.767H63.459L66.9582 160.604H62.2926L60.9596 168.602H53.9613L55.4609 160.604H50.6287L49.4623 167.436H27.9674L15.3038 180.1H0.640625V181.434H15.8037L28.4673 168.769H49.2957L47.2962 180.767H51.9617Z" fill="white"/>
<path d="M80.1195 166.269L80.9526 173.102H76.7869L80.1195 166.269ZM74.954 176.934H81.2859L81.7857 180.767H86.6179L82.9521 160.77H78.4532L67.7891 180.767H72.9545L74.954 176.934Z" fill="white"/>
<path d="M98.9474 180.767L101.78 164.436H107.612L108.279 160.604H92.1157L91.4492 164.436H97.1145L94.2819 180.767H98.9474Z" fill="white"/>
<path d="M126.111 164.436L126.611 160.604H113.28L109.781 180.767H123.111L123.778 176.934H115.113L115.946 172.268H123.278L123.945 168.602H116.613L117.279 164.436H126.111Z" fill="white"/>
<path d="M106.947 114.112C106.78 114.945 106.447 115.445 106.113 115.945C105.78 116.278 105.28 116.611 104.78 116.444C103.947 116.444 103.614 115.778 103.447 114.778C103.447 114.445 103.447 113.945 103.614 113.278C103.781 112.278 103.947 111.445 104.447 110.945C104.78 110.445 105.28 110.112 105.947 110.279C106.78 110.279 107.113 110.945 107.28 111.945C107.113 112.612 107.113 113.278 106.947 114.112ZM107.78 108.946C107.28 108.612 106.78 108.446 106.113 108.446C105.114 108.446 104.114 108.779 103.281 109.446C102.781 109.779 102.448 110.279 102.114 110.945C101.781 111.612 101.615 112.112 101.448 112.945C101.281 113.612 101.281 114.278 101.281 114.778C101.281 115.778 101.615 116.611 102.281 117.278C102.948 117.944 103.614 118.277 104.614 118.277C105.28 118.277 105.947 118.111 106.447 117.944C106.947 117.778 107.446 117.444 107.78 116.944C108.113 116.444 108.446 116.111 108.779 115.445C108.946 114.945 109.279 114.278 109.279 113.778C109.446 113.112 109.446 112.612 109.446 112.112C109.446 111.445 109.279 110.779 108.946 110.279C108.613 109.612 108.28 109.279 107.78 108.946Z" fill="white"/>
<path d="M112.612 108.612L110.945 118.111H117.111L117.277 116.278H113.445L114.778 108.612H112.612Z" fill="white"/>
<path d="M181.262 255.421H186.927L184.261 270.919L172.098 279.25V279.584C172.264 282.583 172.598 290.749 172.098 292.415L173.431 292.748C174.097 290.749 173.597 281.917 173.431 279.75L185.261 271.585H188.76L191.593 255.255H197.425L198.091 251.588H181.762L181.262 255.421Z" fill="white"/>
<path d="M75.1223 76.9511L86.9529 88.7825H113.946L112.78 95.448H117.446L118.945 87.4494H126.443L127.11 83.7833H119.612L120.278 79.1174H128.61L129.276 75.4514H116.279L116.113 75.9513L108.614 67.6194L113.28 52.6219L97.1171 34.7916L96.284 35.6248L111.78 52.9552L107.115 67.9526L115.946 77.6177L114.113 87.4494H87.6194L75.7889 75.618H56.7934L48.6287 67.4527L47.6289 68.4526L56.1269 76.9511H75.1223Z" fill="white"/>
<path d="M59.9563 104.446H41.6274V105.78H61.456L73.2865 116.444L73.4531 116.611H83.9506L83.784 118.111H85.9501L87.2831 110.445H89.9492L90.2824 108.612H82.6176L82.451 110.445H85.117L84.2838 115.278H74.1196L49.4588 93.2817L49.2922 93.1151H35.1289V94.4482H48.7923L59.9563 104.446Z" fill="white"/>
<path d="M94.6145 110.446H96.1142C96.614 110.446 96.9473 110.779 96.9473 111.279C96.9473 111.612 96.9473 111.779 96.7807 112.112C96.614 112.445 96.4474 112.612 96.2808 112.778C95.9475 112.945 95.7809 113.112 95.281 113.112H93.948L94.6145 110.446ZM34.6288 118.777H60.7892L68.1208 126.11H83.2839L74.6193 135.275H43.7933V136.608H75.1192L92.4484 118.111H93.2815L93.7814 114.778H94.9478L95.9475 118.111H98.2803V117.944L96.9473 114.112C97.6138 113.778 98.1137 113.445 98.4469 113.112C98.7802 112.778 98.9468 112.112 99.1135 111.445C99.1135 110.612 98.9468 109.946 98.2803 109.446C97.7804 108.946 96.9473 108.779 95.7809 108.779H92.4484L90.9487 117.778L83.9504 125.276V124.943H68.4541L61.1225 117.611H33.7957L21.9652 138.108H6.96875V139.441H22.7983L34.6288 118.777Z" fill="white"/>
<path d="M395.546 301.08H398.212L401.044 284.916H406.876L407.543 281.083H391.213L390.547 284.916H396.379L393.546 301.08H394.379V311.412H414.375V317.577H415.708V310.079H395.546V301.08Z" fill="white"/>
<path d="M154.767 75.4514H153.101L149.602 95.448H154.434L155.267 90.2822L157.766 88.1159L160.599 95.448H165.931L161.266 84.4499L169.597 75.4514H163.432L158.266 81.617L156.267 83.95L157.766 75.4514H156.1V61.787L146.103 53.1218V37.1245H144.77V53.6217L154.767 62.287V75.4514Z" fill="white"/>
<path d="M336.059 49.4558V50.7889H347.889L354.388 35.4581H373.55V34.125H353.554L346.889 49.4558H336.059Z" fill="white"/>
<path d="M405.707 113.612H398.876L396.543 127.776H406.041L406.374 125.11H400.209L400.875 121.777H406.041L406.541 119.277H401.208L401.875 116.278H408.04L408.207 114.778H427.036L442.699 98.2809L441.699 97.2811L426.536 113.445H405.707V113.612Z" fill="white"/>
<path d="M233.918 258.754C233.918 260.087 233.752 261.587 233.419 263.253C233.085 264.92 232.419 266.086 231.752 266.919C230.919 267.752 229.919 268.252 228.92 268.086C227.253 268.086 226.254 266.753 226.254 264.42C226.254 263.753 226.254 262.753 226.42 261.42C226.754 259.254 227.253 257.587 228.087 256.588C228.92 255.421 230.086 254.921 231.252 255.088C233.085 255.421 233.918 256.588 233.918 258.754ZM212.257 257.088C212.424 257.754 212.257 258.254 212.09 258.921C211.924 259.587 211.424 260.087 210.924 260.42C210.424 260.754 209.758 260.92 208.924 260.92H206.092L207.092 255.421H210.257C211.424 255.588 212.09 256.088 212.257 257.088ZM135.275 87.9493L138.608 81.1171L139.441 87.9493H135.275ZM316.232 68.2859H319.398C320.564 68.2859 321.231 68.9525 321.398 69.9523C321.564 70.6188 321.398 71.1188 321.231 71.7853C321.064 72.4519 320.565 72.9518 320.065 73.2851C319.565 73.6183 318.898 73.785 318.065 73.785H315.232L316.232 68.2859ZM335.561 74.4515C335.894 72.2852 336.394 70.6188 337.227 69.619C338.06 68.4525 339.227 67.9526 340.393 68.1193C342.059 68.2859 342.892 69.4524 343.059 71.6187C343.059 72.9518 342.893 74.4515 342.559 76.1179C342.226 77.7843 341.56 78.9508 340.893 79.784C340.06 80.6172 339.06 81.1171 338.06 80.9504C336.394 80.9504 335.394 79.6173 335.394 77.2844C335.394 76.7845 335.394 75.7847 335.561 74.4515ZM375.551 117.611L376.218 122.443H373.219L375.551 117.611ZM330.229 172.102H356.889L384.383 204.263L384.549 204.43H432.038L456.199 224.593H476.027V223.26H456.699L432.538 203.097H385.216L357.722 170.935L357.556 170.769H330.729L317.232 156.938H419.541L432.871 169.602L430.205 185.266H434.871L435.704 180.1L438.203 177.768L441.036 185.1H446.368L441.702 174.101L450.034 165.103H448.201L467.863 149.606L467.03 148.606L446.035 165.103H443.868L438.703 171.269L436.703 173.602L438.203 165.103H433.538L433.038 167.936L420.041 155.438H407.044L431.038 131.442H455.699V130.109H430.538L405.211 155.438H305.568V154.271H337.227L344.059 146.273H390.381L407.377 134.275L406.544 133.108L389.881 144.773H345.059L349.391 139.774H357.722L357.889 139.607C362.221 135.441 369.386 128.276 369.886 127.609H370.719L372.052 124.943H376.551L376.884 127.609H380.384L377.717 113.445H374.552L367.053 127.609H368.053C366.054 129.609 360.888 134.775 357.056 138.441H348.558L336.394 152.772H305.568V152.605H290.072V143.773H305.568V141.607H314.066L347.725 103.447H368.72L373.718 97.9476V98.2809H412.543L425.873 83.9499L424.873 83.1168L411.876 97.1144H374.385L377.218 93.9483V94.4482H404.045L419.208 79.784V69.1191L426.039 62.2869L425.04 61.2871L417.875 68.4525V79.1174L403.545 92.9484H378.051L378.884 92.1152V84.7831H382.05L382.216 83.6167H404.711V69.619L417.375 56.9545L416.375 55.9546L403.211 69.1191V82.4502H382.216L382.383 81.1171H374.218L376.051 70.2856L415.042 46.4562L414.375 45.2898L376.384 68.6192L377.051 64.9531H372.385L368.886 84.9498H377.218V91.782L367.72 102.447H346.725L335.561 115.111V103.613L352.39 85.1164H363.721L364.387 81.4504H356.223L359.055 65.1198H354.39L351.057 84.7831L334.395 102.947L334.228 103.113V116.611L312.9 140.774H305.568V139.607H290.072V127.609H278.408V110.779H276.575V105.113L287.739 98.1142V98.7808H321.897L335.728 84.4499C336.394 84.6165 337.061 84.7831 337.894 84.7831C339.227 84.7831 340.56 84.6165 341.726 83.9499C342.893 83.45 343.892 82.7835 344.725 81.7836C345.559 80.9504 346.225 79.784 346.725 78.6175C347.225 77.451 347.558 76.1179 347.891 74.9514C348.058 73.6183 348.225 72.4519 348.058 71.452C347.891 69.9523 347.558 68.7858 347.058 67.6194C346.392 66.4529 345.559 65.6197 344.559 64.9531C343.559 64.2866 342.393 64.1199 340.893 63.9533C338.727 63.9533 336.727 64.6199 335.061 65.953C334.061 66.7862 333.228 67.786 332.562 69.1191C331.895 70.4522 331.395 71.7853 331.062 73.2851C330.729 74.7848 330.729 76.1179 330.729 77.1178C330.895 79.284 331.562 81.1171 332.895 82.4502C333.395 82.9501 333.895 83.2834 334.395 83.6167L321.398 97.281H288.739L309.734 84.2832H313.566L314.733 77.1178H317.399L319.565 84.2832H324.564V84.1166L321.897 76.1179C323.23 75.618 324.23 74.7848 324.897 73.9516C325.563 72.9518 326.063 71.7853 326.23 70.2856C326.396 68.4526 325.73 66.9528 324.564 65.953C323.397 64.9531 321.898 64.4532 320.065 64.4532L336.061 50.9555V31.4588L349.891 19.1275L349.058 18.1277L334.894 30.7922V50.2889L318.232 64.4532H312.4L309.067 83.2834L275.242 104.113V110.445H273.576V127.609H265.244V110.779H264.078V99.9472L294.904 75.7846L293.404 84.4499H298.07L300.902 68.1193H306.734L307.401 64.4532H299.736V34.6249L315.732 14.6283V4.96321H314.399V14.1283L298.403 34.125V64.4532H291.072L290.405 68.1193H296.07L295.071 73.785L262.912 98.9474L262.578 99.1141V110.445H260.579V127.609H251.914V110.779H249.748V90.6155L268.077 72.2852V56.7878H266.744V71.6187L249.581 88.7825V83.1168L248.915 82.6168H249.248V59.4541L249.415 59.6207L274.909 37.791L275.075 37.6244V0.630615H273.742V36.9578L249.248 58.121V29.959L260.745 17.7944V5.62978H259.412V17.2945L247.915 29.4591V82.1169L232.752 71.6187V60.9538L232.086 60.2873V9.46247H230.753V58.9541L209.758 35.958V6.46297H208.425V36.4579L231.419 61.2871V72.1186L248.248 83.7833V110.612H247.082V127.609H238.251V110.779H237.084V103.947L232.919 100.614H233.085V85.783L215.423 69.619L214.59 70.6189L231.752 86.2829V99.614L230.919 98.9474H222.421L203.592 80.2839V63.4534L198.594 58.7875C198.927 58.1209 199.093 57.4544 199.093 56.6212C199.093 54.7882 198.094 53.2884 196.427 52.4552V11.4621L196.261 11.2955C193.928 9.12918 186.097 1.79707 184.597 1.63043L184.264 2.96355C185.097 3.29682 190.429 7.79607 195.094 12.1287V39.1241L187.263 30.2923H176.765C175.599 28.6259 170.434 20.6272 168.767 19.1275L167.934 20.1273C169.434 21.4604 174.266 28.6259 175.932 31.2921L176.099 31.6254H186.763L194.928 40.7905L195.094 40.6239V52.122C194.928 52.122 194.761 52.122 194.428 52.122C193.595 52.122 192.762 52.4552 192.095 52.7885L187.263 48.2893H168.434L152.938 25.1265L151.771 25.793L167.601 49.4557H186.596L190.929 53.4551C190.262 54.2883 189.762 55.2881 189.762 56.4546C189.762 58.9541 191.762 60.9538 194.261 60.9538C195.594 60.9538 196.594 60.4539 197.427 59.6207L201.926 63.7867V80.9504L221.421 100.281L221.588 100.447H230.086L235.418 104.613V110.779H233.252V127.609H223.754V139.107H206.425V142.273H197.76V128.609L193.761 124.61V108.113L180.931 95.2814H183.264L183.93 91.6153H175.266L176.099 86.7828H183.431L184.097 83.2834H176.765L177.432 79.1174H186.097L186.763 75.4514H173.266L169.767 95.448H179.098L192.428 108.779V123.277L186.93 117.778H171.933L144.606 94.4482L141.107 75.2847H137.108L132.943 71.1188V51.622L123.778 45.6231V34.9582H122.445V46.2896L131.61 52.2886V71.6187L136.275 76.2846L126.111 95.448H131.276L133.109 91.6153H139.441L139.941 95.448H143.607L171.433 119.277H186.263L196.261 129.276V143.607H206.258V143.94H223.588V152.772H206.258V154.438C197.927 154.605 188.263 154.771 186.93 154.438L181.264 148.772H172.267C171.6 147.106 169.934 145.773 167.934 145.773C166.768 145.773 165.768 146.273 164.935 146.773L127.61 116.778L127.444 116.611H125.611V116.111H121.779L123.112 108.446H120.945L119.279 117.778H125.111H127.444L164.435 147.606C163.935 148.272 163.602 149.106 163.602 150.105C163.602 152.605 165.601 154.605 168.101 154.605C170.6 154.605 172.6 152.605 172.6 150.105C172.6 149.939 172.6 149.939 172.6 149.772H180.764L186.097 155.105C186.263 155.271 186.596 155.605 194.261 155.605C197.094 155.605 201.093 155.605 206.425 155.438V157.104H223.754V165.77H206.425V167.103H143.107L125.278 145.94L125.111 145.773H77.2892C76.9559 143.607 74.9564 142.107 72.7902 142.107C70.6241 142.107 68.6246 143.773 68.2913 145.773H55.6277L41.7976 156.438H17.6367V157.771H42.2975L56.1275 147.106H68.2913C68.6246 149.439 70.4575 151.105 72.7902 151.105C75.123 151.105 77.1225 149.272 77.2892 147.106H124.445L142.607 168.436L142.774 168.602H174.599L160.603 183.6L138.941 184.1L128.61 196.764V196.264H87.7867L69.9576 214.261H49.7957V215.594H70.4575L88.2865 197.764H127.777L117.946 209.595H103.783V210.929H118.613L139.441 185.433L160.769 184.933H161.103L176.432 168.602H206.592V170.602H223.921V178.934H206.592V180.767C201.426 180.767 195.261 180.6 195.261 180.6H194.928L187.596 187.099L187.263 190.265H167.434L154.271 203.43H134.775V204.763H154.771L167.934 191.599H187.263L186.43 198.264L169.767 213.928L152.938 214.261L139.108 226.759C138.441 224.926 136.775 223.76 134.775 223.76C132.443 223.76 130.61 225.593 130.277 227.759L126.611 227.926L118.779 239.091L119.946 239.924L127.444 229.259L130.443 229.092C130.776 231.258 132.609 232.925 134.942 232.925C137.441 232.925 139.441 230.925 139.441 228.426L153.438 215.594L170.267 215.261L187.596 199.097L187.763 198.931L189.096 187.766L195.594 181.933C196.927 181.933 202.259 182.1 206.758 182.1V183.6H224.087V194.098H233.585V209.762H234.918V218.594L225.587 226.093H191.595L165.268 251.255H135.942V261.92H137.275V252.588H165.768L192.095 227.426H223.921L209.258 239.091L208.924 239.257V251.588H203.092L199.593 271.585H204.259L205.425 264.42H208.091L210.257 271.585H215.256V271.418L212.59 263.42C213.923 262.92 214.923 262.087 215.756 261.254C216.423 260.254 216.923 259.087 217.089 257.587C217.256 255.754 216.589 254.255 215.423 253.255C214.256 252.255 212.59 251.755 210.424 251.755V240.09L236.085 219.594L236.251 219.427V209.929H238.251V194.265H247.082V209.929H248.082V220.594L227.92 242.09V252.255C227.087 252.588 226.42 253.088 225.754 253.588C224.754 254.421 223.921 255.421 223.254 256.754C222.588 258.087 222.088 259.42 221.755 260.92C221.421 262.42 221.421 263.753 221.421 264.753C221.588 266.919 222.255 268.752 223.588 270.085C224.921 271.418 226.587 272.085 228.586 272.085C229.42 272.085 230.086 272.085 230.919 271.918V282.917L217.089 294.248L217.922 295.248L232.252 283.416V271.252H232.419C233.585 270.752 234.585 270.085 235.418 269.085C236.251 268.252 236.918 267.086 237.418 265.919C237.918 264.753 238.251 263.42 238.584 262.253C238.751 260.92 238.917 259.754 238.751 258.754C238.584 257.254 238.251 256.088 237.751 254.921C237.084 253.755 236.251 252.922 235.251 252.255C234.252 251.588 233.085 251.422 231.586 251.255C230.753 251.255 230.086 251.422 229.253 251.588V242.59L249.415 221.094V209.929H251.748V194.265H260.412V209.929H262.245V222.093L262.078 221.927L246.582 236.758V251.755H245.582L242.083 271.752H254.913L255.58 268.086H247.415L250.248 251.755H247.915V237.424L262.245 223.76V230.092V257.254L259.912 270.585L241.75 285.249V305.913H243.083V285.916L260.579 271.752H261.579V318.91L271.909 329.242V361.57H265.744V362.903H273.242V330.409L282.074 339.24C281.074 340.074 280.407 341.407 280.407 342.74C280.407 345.239 282.407 347.239 284.906 347.239C285.073 347.239 285.073 347.239 285.24 347.239V373.401H286.573V346.906C288.239 346.239 289.405 344.573 289.405 342.74C289.405 340.24 287.406 338.241 284.906 338.241C284.406 338.241 283.74 338.407 283.24 338.574L262.745 318.244V271.585H272.409L272.743 269.919H276.575V307.079L291.571 307.746L292.405 322.91V334.075L311.733 346.572V354.238L316.565 358.57L301.236 371.568V391.398H289.572V392.731H302.569V372.068L317.565 359.237L323.897 365.069V395.898H325.23V364.569L313.066 353.571V345.739L293.738 333.241V322.743L292.904 306.413L278.075 305.746V268.586H273.076L273.242 267.752H265.078L267.91 251.422H263.411V231.425L289.072 263.586V286.916L308.734 306.579V327.076L337.061 352.072L337.894 351.072L309.9 326.409V305.913L290.238 286.249V263.086L263.245 229.426V209.762H264.744V194.265H273.076V209.929H276.242V227.093L310.567 252.255V271.418L321.398 281.25H321.231V304.913L335.728 317.577H347.225L354.223 328.909L355.389 328.242L348.058 316.244H336.394L322.731 304.413V282.417L325.563 284.916H339.727L347.225 293.415L345.892 301.08H350.557L352.057 292.748H358.889L357.389 301.08H359.722V312.578L376.218 315.078V329.075L400.879 344.906L401.545 343.74L377.551 328.242V319.244H392.047L409.377 329.575L410.043 328.409L392.547 318.077L392.381 317.911H377.551V314.078L361.055 311.578V301.247H362.055L365.554 281.25H360.888L359.555 289.249H352.723L354.057 281.25H349.391L347.558 291.915L340.56 283.916L340.393 283.75H326.063L312.066 270.919V251.755L277.741 226.593V210.095H277.908V194.265H289.572V183.766H305.068V182.1H312.4L321.064 194.098H320.731V228.592L336.061 242.757L336.227 242.923H352.89V257.421L367.053 265.919L367.72 264.753L354.057 256.588V241.59H337.227L322.564 228.092V195.764L329.562 205.43L329.729 205.763H341.726L371.886 237.591H384.716L384.216 238.091L399.546 254.588L398.379 263.42L398.546 263.586C403.378 269.252 410.21 276.918 413.542 281.083H412.376L408.877 301.08H422.374L423.04 297.414H414.375L415.209 292.582H422.54L423.207 289.082H415.875L416.542 284.916H422.374V285.083H434.037V293.581H459.865V292.248H435.37V283.75H425.539L426.039 281.25H415.542C413.542 278.917 409.377 273.918 399.879 263.086L400.879 255.088H423.04L446.534 273.251L447.368 272.252L423.707 253.921L423.54 253.755H400.545L385.549 237.591H416.708C416.708 237.757 416.708 237.757 416.708 237.924C416.708 240.424 418.708 242.423 421.207 242.423C423.707 242.423 425.706 240.424 425.706 237.924C425.706 237.757 425.706 237.757 425.706 237.591H457.698L466.03 245.923L467.03 244.923L458.365 236.258H425.539C424.873 234.591 423.207 233.425 421.374 233.425C419.374 233.425 417.875 234.591 417.208 236.258H372.552L342.393 204.43H330.562L313.899 181.1L313.733 180.767H305.568V178.934H290.072V170.602H305.568V169.769H314.899L328.396 185.933C328.229 186.266 328.229 186.599 328.229 187.099C328.229 189.599 330.229 191.599 332.728 191.599C334.395 191.599 335.894 190.599 336.727 189.266H348.225L365.054 209.096L366.054 208.262L348.891 188.099H337.227C337.227 187.766 337.394 187.599 337.394 187.266C337.394 184.766 335.394 182.767 332.895 182.767C331.229 182.767 329.896 183.6 329.062 184.933L315.732 169.102L315.566 168.936H305.568V166.436H290.072V157.771H305.568V157.271H316.565L316.066 157.771L330.229 172.102Z" fill="white"/>
</svg>
