<svg width="630" height="306" viewBox="0 0 630 306" fill="none" xmlns="http://www.w3.org/2000/svg">
<path d="M398.342 138.199H199V0H630V138.199H398.342L261.592 182L236.419 131.906" fill="black"/>
<path d="M396.834 25.8L394.594 37H393.426L394.45 31.848H387.442L386.418 37H385.25L387.49 25.8H388.658L387.666 30.776H394.674L395.666 25.8H396.834ZM399.081 33.112C399.071 33.1867 399.065 33.2987 399.065 33.448C399.065 34.3013 399.305 34.952 399.785 35.4C400.276 35.848 401.001 36.072 401.961 36.072C402.516 36.072 403.033 35.9813 403.513 35.8C404.004 35.608 404.404 35.3467 404.713 35.016L405.225 35.832C404.831 36.2267 404.335 36.536 403.737 36.76C403.151 36.9733 402.527 37.08 401.865 37.08C400.649 37.08 399.689 36.76 398.985 36.12C398.292 35.48 397.945 34.6053 397.945 33.496C397.945 32.5573 398.143 31.7093 398.537 30.952C398.943 30.1947 399.497 29.6027 400.201 29.176C400.916 28.7387 401.716 28.52 402.601 28.52C403.721 28.52 404.612 28.84 405.273 29.48C405.935 30.1093 406.265 30.9787 406.265 32.088C406.265 32.3973 406.228 32.7387 406.153 33.112H399.081ZM402.569 29.48C401.727 29.48 401.007 29.7307 400.409 30.232C399.812 30.7333 399.407 31.4107 399.193 32.264H405.193C405.204 32.1893 405.209 32.088 405.209 31.96C405.209 31.1707 404.969 30.5627 404.489 30.136C404.009 29.6987 403.369 29.48 402.569 29.48ZM405.922 40.184C405.559 40.184 405.228 40.136 404.93 40.04C404.62 39.9547 404.359 39.8267 404.146 39.656L404.674 38.776C404.994 39.064 405.415 39.208 405.938 39.208C406.396 39.208 406.764 39.08 407.042 38.824C407.319 38.568 407.511 38.1627 407.618 37.608L409.426 28.584H410.562L408.754 37.64C408.412 39.336 407.468 40.184 405.922 40.184ZM410.466 26.728C410.242 26.728 410.055 26.6533 409.906 26.504C409.767 26.3547 409.698 26.1787 409.698 25.976C409.698 25.7307 409.778 25.528 409.938 25.368C410.108 25.1973 410.322 25.112 410.578 25.112C410.802 25.112 410.988 25.1867 411.138 25.336C411.287 25.4747 411.362 25.64 411.362 25.832C411.362 26.088 411.276 26.3013 411.106 26.472C410.935 26.6427 410.722 26.728 410.466 26.728ZM422.036 28.52C422.985 28.52 423.721 28.7653 424.244 29.256C424.777 29.736 425.044 30.4027 425.044 31.256C425.044 31.5547 425.012 31.8747 424.948 32.216L423.988 37H422.852L423.812 32.2C423.865 31.9013 423.892 31.6453 423.892 31.432C423.892 30.824 423.705 30.36 423.332 30.04C422.969 29.7093 422.43 29.544 421.716 29.544C420.809 29.544 420.062 29.7947 419.476 30.296C418.889 30.7867 418.494 31.5173 418.292 32.488L417.396 37H416.26L418.628 25.128H419.764L418.82 29.848C419.598 28.9627 420.67 28.52 422.036 28.52ZM430.863 37.08C430.095 37.08 429.423 36.936 428.847 36.648C428.271 36.3493 427.823 35.9333 427.503 35.4C427.194 34.856 427.039 34.2267 427.039 33.512C427.039 32.5627 427.247 31.7093 427.663 30.952C428.079 30.1947 428.655 29.6027 429.391 29.176C430.138 28.7387 430.975 28.52 431.903 28.52C433.077 28.52 434.005 28.84 434.687 29.48C435.381 30.12 435.727 30.984 435.727 32.072C435.727 33.0213 435.519 33.88 435.103 34.648C434.687 35.4053 434.106 36.0027 433.359 36.44C432.623 36.8667 431.791 37.08 430.863 37.08ZM430.943 36.072C431.637 36.072 432.261 35.9067 432.815 35.576C433.37 35.2347 433.802 34.7653 434.111 34.168C434.431 33.56 434.591 32.8827 434.591 32.136C434.591 31.3147 434.346 30.6747 433.855 30.216C433.375 29.7467 432.698 29.512 431.823 29.512C431.13 29.512 430.506 29.6827 429.951 30.024C429.397 30.3653 428.959 30.84 428.639 31.448C428.33 32.0453 428.175 32.7173 428.175 33.464C428.175 34.2853 428.415 34.9253 428.895 35.384C429.386 35.8427 430.069 36.072 430.943 36.072ZM439.198 25.8H440.542L438.75 33.64H437.87L439.198 25.8ZM437.758 37.08C437.534 37.08 437.342 37.0053 437.182 36.856C437.022 36.696 436.942 36.5093 436.942 36.296C436.942 36.0507 437.022 35.848 437.182 35.688C437.353 35.5173 437.561 35.432 437.806 35.432C438.041 35.432 438.233 35.5067 438.382 35.656C438.542 35.8053 438.622 35.9867 438.622 36.2C438.622 36.4453 438.537 36.6533 438.366 36.824C438.206 36.9947 438.004 37.08 437.758 37.08ZM265.279 49.8L263.039 61H262.079L256.719 51.72L254.863 61H253.695L255.935 49.8H256.895L262.255 59.08L264.111 49.8H265.279ZM268.135 52.584H269.271L267.607 61H266.471L268.135 52.584ZM269.191 50.744C268.967 50.744 268.78 50.6693 268.631 50.52C268.492 50.3707 268.423 50.1947 268.423 49.992C268.423 49.7467 268.503 49.544 268.663 49.384C268.833 49.2133 269.047 49.128 269.303 49.128C269.527 49.128 269.713 49.2027 269.863 49.352C270.012 49.4907 270.087 49.656 270.087 49.848C270.087 50.104 270.001 50.3173 269.831 50.488C269.66 50.6587 269.447 50.744 269.191 50.744ZM271.824 57.112C271.813 57.1867 271.808 57.2987 271.808 57.448C271.808 58.3013 272.048 58.952 272.528 59.4C273.018 59.848 273.744 60.072 274.704 60.072C275.258 60.072 275.776 59.9813 276.256 59.8C276.746 59.608 277.146 59.3467 277.456 59.016L277.968 59.832C277.573 60.2267 277.077 60.536 276.48 60.76C275.893 60.9733 275.269 61.08 274.608 61.08C273.392 61.08 272.432 60.76 271.728 60.12C271.034 59.48 270.688 58.6053 270.688 57.496C270.688 56.5573 270.885 55.7093 271.28 54.952C271.685 54.1947 272.24 53.6027 272.944 53.176C273.658 52.7387 274.458 52.52 275.344 52.52C276.464 52.52 277.354 52.84 278.016 53.48C278.677 54.1093 279.008 54.9787 279.008 56.088C279.008 56.3973 278.97 56.7387 278.896 57.112H271.824ZM275.312 53.48C274.469 53.48 273.749 53.7307 273.152 54.232C272.554 54.7333 272.149 55.4107 271.936 56.264H277.936C277.946 56.1893 277.952 56.088 277.952 55.96C277.952 55.1707 277.712 54.5627 277.232 54.136C276.752 53.6987 276.112 53.48 275.312 53.48ZM288.419 61.08C287.63 61.08 286.942 60.936 286.355 60.648C285.769 60.3493 285.315 59.9333 284.995 59.4C284.686 58.856 284.531 58.2267 284.531 57.512C284.531 56.5627 284.739 55.7093 285.155 54.952C285.571 54.1947 286.153 53.6027 286.899 53.176C287.646 52.7387 288.489 52.52 289.427 52.52C290.206 52.52 290.873 52.664 291.427 52.952C291.993 53.2293 292.43 53.6453 292.739 54.2L291.779 54.76C291.299 53.928 290.483 53.512 289.331 53.512C288.638 53.512 288.009 53.6827 287.443 54.024C286.889 54.3653 286.451 54.8347 286.131 55.432C285.822 56.0293 285.667 56.7067 285.667 57.464C285.667 58.2853 285.907 58.9253 286.387 59.384C286.878 59.8427 287.571 60.072 288.467 60.072C289.011 60.072 289.513 59.9707 289.971 59.768C290.441 59.5547 290.825 59.2507 291.123 58.856L291.939 59.48C291.566 59.9813 291.065 60.376 290.435 60.664C289.817 60.9413 289.145 61.08 288.419 61.08ZM299.278 52.52C300.227 52.52 300.963 52.7653 301.486 53.256C302.019 53.736 302.286 54.4027 302.286 55.256C302.286 55.5547 302.254 55.8747 302.19 56.216L301.23 61H300.094L301.054 56.2C301.107 55.9013 301.134 55.6453 301.134 55.432C301.134 54.824 300.947 54.36 300.574 54.04C300.211 53.7093 299.673 53.544 298.958 53.544C298.051 53.544 297.305 53.7947 296.718 54.296C296.131 54.7867 295.737 55.5173 295.534 56.488L294.638 61H293.502L295.87 49.128H297.006L296.062 53.848C296.841 52.9627 297.913 52.52 299.278 52.52ZM308.169 61.08C307.38 61.08 306.692 60.936 306.105 60.648C305.519 60.3493 305.065 59.9333 304.745 59.4C304.436 58.856 304.281 58.2267 304.281 57.512C304.281 56.5627 304.489 55.7093 304.905 54.952C305.321 54.1947 305.903 53.6027 306.649 53.176C307.396 52.7387 308.239 52.52 309.177 52.52C309.956 52.52 310.623 52.664 311.177 52.952C311.743 53.2293 312.18 53.6453 312.489 54.2L311.529 54.76C311.049 53.928 310.233 53.512 309.081 53.512C308.388 53.512 307.759 53.6827 307.193 54.024C306.639 54.3653 306.201 54.8347 305.881 55.432C305.572 56.0293 305.417 56.7067 305.417 57.464C305.417 58.2853 305.657 58.9253 306.137 59.384C306.628 59.8427 307.321 60.072 308.217 60.072C308.761 60.072 309.263 59.9707 309.721 59.768C310.191 59.5547 310.575 59.2507 310.873 58.856L311.689 59.48C311.316 59.9813 310.815 60.376 310.185 60.664C309.567 60.9413 308.895 61.08 308.169 61.08ZM314.292 57.112C314.282 57.1867 314.276 57.2987 314.276 57.448C314.276 58.3013 314.522 58.952 315.012 59.4C315.503 59.848 316.228 60.072 317.188 60.072C317.754 60.072 318.276 59.9813 318.756 59.8C319.236 59.608 319.631 59.3467 319.94 59.016L320.452 59.832C320.26 60.024 320.026 60.2053 319.748 60.376C318.884 60.8987 318.255 61.3733 317.86 61.8C317.476 62.2373 317.284 62.6533 317.284 63.048C317.284 63.304 317.359 63.496 317.508 63.624C317.658 63.752 317.86 63.816 318.116 63.816C318.479 63.816 318.831 63.7147 319.172 63.512L319.332 64.136C318.906 64.392 318.442 64.52 317.94 64.52C317.503 64.52 317.146 64.4027 316.868 64.168C316.602 63.9333 316.468 63.6133 316.468 63.208C316.468 62.4293 316.916 61.6987 317.812 61.016C317.588 61.0587 317.348 61.08 317.092 61.08C315.876 61.08 314.916 60.76 314.212 60.12C313.508 59.48 313.156 58.6053 313.156 57.496C313.156 56.5573 313.359 55.7093 313.764 54.952C314.17 54.1947 314.724 53.6027 315.428 53.176C316.143 52.7387 316.943 52.52 317.828 52.52C318.948 52.52 319.839 52.84 320.5 53.48C321.162 54.1093 321.492 54.9787 321.492 56.088C321.492 56.4507 321.46 56.792 321.396 57.112H314.292ZM317.78 53.48C316.938 53.48 316.218 53.7307 315.62 54.232C315.023 54.7333 314.618 55.4107 314.404 56.264H320.42C320.431 56.1893 320.436 56.088 320.436 55.96C320.436 55.1707 320.196 54.5627 319.716 54.136C319.236 53.6987 318.591 53.48 317.78 53.48ZM332.84 52.52C333.555 52.52 334.189 52.664 334.744 52.952C335.309 53.24 335.747 53.6507 336.056 54.184C336.365 54.7173 336.52 55.3467 336.52 56.072C336.52 57.0213 336.312 57.88 335.896 58.648C335.491 59.4053 334.925 60.0027 334.2 60.44C333.475 60.8667 332.659 61.08 331.752 61.08C330.952 61.08 330.28 60.9253 329.736 60.616C329.192 60.296 328.797 59.8373 328.552 59.24L327.592 64.104H326.456L328.744 52.584H329.832L329.56 53.928C329.965 53.4693 330.445 53.1227 331 52.888C331.555 52.6427 332.168 52.52 332.84 52.52ZM331.736 60.072C332.429 60.072 333.048 59.9067 333.592 59.576C334.147 59.2347 334.579 58.7653 334.888 58.168C335.208 57.5707 335.368 56.8933 335.368 56.136C335.368 55.3147 335.123 54.6747 334.632 54.216C334.152 53.7467 333.475 53.512 332.6 53.512C331.907 53.512 331.283 53.6827 330.728 54.024C330.184 54.3547 329.752 54.824 329.432 55.432C329.123 56.0293 328.968 56.7067 328.968 57.464C328.968 58.2853 329.208 58.9253 329.688 59.384C330.179 59.8427 330.861 60.072 331.736 60.072ZM340.372 61.08C339.7 61.08 339.055 60.984 338.436 60.792C337.828 60.6 337.359 60.3547 337.028 60.056L337.572 59.16C337.892 59.4373 338.313 59.6613 338.836 59.832C339.359 60.0027 339.908 60.088 340.484 60.088C341.284 60.088 341.897 59.96 342.324 59.704C342.761 59.4373 342.98 59.064 342.98 58.584C342.98 58.3173 342.889 58.104 342.708 57.944C342.537 57.784 342.324 57.6613 342.068 57.576C341.812 57.4907 341.439 57.3947 340.948 57.288C340.361 57.16 339.887 57.032 339.524 56.904C339.161 56.776 338.852 56.5733 338.596 56.296C338.34 56.0187 338.212 55.6347 338.212 55.144C338.212 54.344 338.543 53.7093 339.204 53.24C339.865 52.76 340.751 52.52 341.86 52.52C342.404 52.52 342.932 52.5947 343.444 52.744C343.967 52.8827 344.388 53.0693 344.708 53.304L344.228 54.216C343.908 53.9813 343.529 53.8053 343.092 53.688C342.665 53.56 342.223 53.496 341.764 53.496C340.996 53.496 340.399 53.6347 339.972 53.912C339.545 54.1893 339.332 54.5627 339.332 55.032C339.332 55.3093 339.423 55.5333 339.604 55.704C339.785 55.8747 340.009 56.0027 340.276 56.088C340.553 56.1733 340.927 56.264 341.396 56.36C341.972 56.488 342.436 56.616 342.788 56.744C343.151 56.8613 343.46 57.0587 343.716 57.336C343.972 57.6133 344.1 57.9867 344.1 58.456C344.1 59.2773 343.759 59.9227 343.076 60.392C342.404 60.8507 341.503 61.08 340.372 61.08ZM355.016 52.584L353.336 61H352.248L352.52 59.656C351.731 60.6053 350.648 61.08 349.272 61.08C348.333 61.08 347.597 60.84 347.064 60.36C346.541 59.8693 346.28 59.192 346.28 58.328C346.28 58.0293 346.312 57.7147 346.376 57.384L347.336 52.584H348.472L347.512 57.384C347.459 57.6827 347.432 57.9333 347.432 58.136C347.432 58.7547 347.608 59.2293 347.96 59.56C348.323 59.8907 348.861 60.056 349.576 60.056C350.472 60.056 351.213 59.8053 351.8 59.304C352.387 58.8027 352.781 58.072 352.984 57.112L353.88 52.584H355.016ZM360.326 61.08C359.536 61.08 358.848 60.936 358.262 60.648C357.675 60.3493 357.222 59.9333 356.902 59.4C356.592 58.856 356.438 58.2267 356.438 57.512C356.438 56.5627 356.646 55.7093 357.062 54.952C357.478 54.1947 358.059 53.6027 358.806 53.176C359.552 52.7387 360.395 52.52 361.334 52.52C362.112 52.52 362.779 52.664 363.334 52.952C363.899 53.2293 364.336 53.6453 364.646 54.2L363.686 54.76C363.206 53.928 362.39 53.512 361.238 53.512C360.544 53.512 359.915 53.6827 359.35 54.024C358.795 54.3653 358.358 54.8347 358.038 55.432C357.728 56.0293 357.574 56.7067 357.574 57.464C357.574 58.2853 357.814 58.9253 358.294 59.384C358.784 59.8427 359.478 60.072 360.374 60.072C360.918 60.072 361.419 59.9707 361.878 59.768C362.347 59.5547 362.731 59.2507 363.03 58.856L363.846 59.48C363.472 59.9813 362.971 60.376 362.342 60.664C361.723 60.9413 361.051 61.08 360.326 61.08ZM362.998 49.288H364.55L361.75 51.272H360.566L362.998 49.288ZM387.577 49.8L381.561 61H380.313L378.937 51.496L373.721 61H372.473L370.937 49.8H372.105L373.433 59.448L378.697 49.8H379.801L381.161 59.464L386.393 49.8H387.577ZM395.987 52.584L394.307 61H393.219L393.491 59.672C393.086 60.12 392.606 60.4667 392.051 60.712C391.496 60.9573 390.883 61.08 390.211 61.08C389.496 61.08 388.862 60.936 388.307 60.648C387.752 60.36 387.32 59.9493 387.011 59.416C386.702 58.872 386.547 58.2373 386.547 57.512C386.547 56.5627 386.75 55.7093 387.155 54.952C387.571 54.1947 388.142 53.6027 388.867 53.176C389.592 52.7387 390.403 52.52 391.299 52.52C392.099 52.52 392.771 52.68 393.315 53C393.859 53.3093 394.254 53.7573 394.499 54.344L394.851 52.584H395.987ZM390.451 60.072C391.144 60.072 391.768 59.9067 392.323 59.576C392.878 59.2347 393.31 58.7653 393.619 58.168C393.939 57.56 394.099 56.8827 394.099 56.136C394.099 55.3147 393.854 54.6747 393.363 54.216C392.883 53.7467 392.206 53.512 391.331 53.512C390.638 53.512 390.014 53.6827 389.459 54.024C388.904 54.3653 388.467 54.84 388.147 55.448C387.838 56.0453 387.683 56.7173 387.683 57.464C387.683 58.2853 387.923 58.9253 388.403 59.384C388.894 59.8427 389.576 60.072 390.451 60.072ZM409.439 52.52C410.388 52.52 411.119 52.76 411.631 53.24C412.153 53.7093 412.415 54.3707 412.415 55.224C412.415 55.4693 412.377 55.8 412.303 56.216L411.343 61H410.207L411.167 56.2C411.22 55.9547 411.247 55.6933 411.247 55.416C411.247 54.8187 411.071 54.36 410.719 54.04C410.367 53.7093 409.849 53.544 409.167 53.544C408.313 53.544 407.604 53.784 407.039 54.264C406.473 54.7333 406.095 55.432 405.903 56.36L404.975 61H403.839L404.799 56.2C404.852 55.9013 404.879 55.6453 404.879 55.432C404.879 54.824 404.703 54.36 404.351 54.04C404.009 53.7093 403.492 53.544 402.799 53.544C401.935 53.544 401.22 53.7947 400.655 54.296C400.089 54.7867 399.705 55.5173 399.503 56.488L398.607 61H397.471L399.135 52.584H400.223L399.951 53.928C400.719 52.9893 401.78 52.52 403.135 52.52C403.839 52.52 404.425 52.664 404.895 52.952C405.375 53.24 405.705 53.656 405.887 54.2C406.303 53.6453 406.809 53.2293 407.407 52.952C408.015 52.664 408.692 52.52 409.439 52.52ZM423.587 50.008C423.086 50.008 422.691 50.1413 422.403 50.408C422.115 50.6747 421.912 51.0907 421.795 51.656L421.603 52.584H424.179L423.987 53.544H421.443L419.955 61H418.819L420.307 53.544H418.803L418.979 52.584H420.499L420.707 51.528C420.867 50.728 421.187 50.1147 421.667 49.688C422.158 49.2613 422.798 49.048 423.587 49.048C423.928 49.048 424.248 49.096 424.547 49.192C424.846 49.288 425.091 49.4213 425.283 49.592L424.787 50.424C424.478 50.1467 424.078 50.008 423.587 50.008ZM426.419 49.128H427.555L425.187 61H424.051L426.419 49.128ZM432.105 61.08C431.337 61.08 430.665 60.936 430.089 60.648C429.513 60.3493 429.065 59.9333 428.745 59.4C428.436 58.856 428.281 58.2267 428.281 57.512C428.281 56.5627 428.489 55.7093 428.905 54.952C429.321 54.1947 429.897 53.6027 430.633 53.176C431.38 52.7387 432.217 52.52 433.145 52.52C434.319 52.52 435.247 52.84 435.929 53.48C436.623 54.12 436.969 54.984 436.969 56.072C436.969 57.0213 436.761 57.88 436.345 58.648C435.929 59.4053 435.348 60.0027 434.601 60.44C433.865 60.8667 433.033 61.08 432.105 61.08ZM432.185 60.072C432.879 60.072 433.503 59.9067 434.057 59.576C434.612 59.2347 435.044 58.7653 435.353 58.168C435.673 57.56 435.833 56.8827 435.833 56.136C435.833 55.3147 435.588 54.6747 435.097 54.216C434.617 53.7467 433.94 53.512 433.065 53.512C432.372 53.512 431.748 53.6827 431.193 54.024C430.639 54.3653 430.201 54.84 429.881 55.448C429.572 56.0453 429.417 56.7173 429.417 57.464C429.417 58.2853 429.657 58.9253 430.137 59.384C430.628 59.8427 431.311 60.072 432.185 60.072ZM452.254 52.584L447.502 61H446.398L444.99 54.12L441.054 61H439.966L438.318 52.584H439.358L440.718 59.72L444.782 52.584H445.742L447.15 59.72L451.15 52.584H452.254ZM451.978 59.336C452.213 59.336 452.405 59.416 452.554 59.576C452.714 59.736 452.794 59.9333 452.794 60.168C452.794 60.3067 452.767 60.4347 452.714 60.552C452.671 60.6693 452.597 60.824 452.49 61.016L451.274 63.336H450.506L451.53 60.984C451.391 60.92 451.279 60.824 451.194 60.696C451.119 60.5573 451.082 60.408 451.082 60.248C451.082 59.992 451.167 59.7787 451.338 59.608C451.519 59.4267 451.733 59.336 451.978 59.336ZM468.612 52.584L466.932 61H465.844L466.116 59.672C465.711 60.12 465.231 60.4667 464.676 60.712C464.121 60.9573 463.508 61.08 462.836 61.08C462.121 61.08 461.487 60.936 460.932 60.648C460.377 60.36 459.945 59.9493 459.636 59.416C459.327 58.872 459.172 58.2373 459.172 57.512C459.172 56.5627 459.375 55.7093 459.78 54.952C460.196 54.1947 460.767 53.6027 461.492 53.176C462.217 52.7387 463.028 52.52 463.924 52.52C464.724 52.52 465.396 52.68 465.94 53C466.484 53.3093 466.879 53.7573 467.124 54.344L467.476 52.584H468.612ZM463.076 60.072C463.769 60.072 464.393 59.9067 464.948 59.576C465.503 59.2347 465.935 58.7653 466.244 58.168C466.564 57.56 466.724 56.8827 466.724 56.136C466.724 55.3147 466.479 54.6747 465.988 54.216C465.508 53.7467 464.831 53.512 463.956 53.512C463.263 53.512 462.639 53.6827 462.084 54.024C461.529 54.3653 461.092 54.84 460.772 55.448C460.463 56.0453 460.308 56.7173 460.308 57.464C460.308 58.2853 460.548 58.9253 461.028 59.384C461.519 59.8427 462.201 60.072 463.076 60.072ZM472.464 49.128H473.6L471.232 61H470.096L472.464 49.128ZM475.449 57.112C475.438 57.1867 475.433 57.2987 475.433 57.448C475.433 58.3013 475.673 58.952 476.153 59.4C476.643 59.848 477.369 60.072 478.329 60.072C478.883 60.072 479.401 59.9813 479.881 59.8C480.371 59.608 480.771 59.3467 481.081 59.016L481.593 59.832C481.198 60.2267 480.702 60.536 480.105 60.76C479.518 60.9733 478.894 61.08 478.233 61.08C477.017 61.08 476.057 60.76 475.353 60.12C474.659 59.48 474.313 58.6053 474.313 57.496C474.313 56.5573 474.51 55.7093 474.905 54.952C475.31 54.1947 475.865 53.6027 476.569 53.176C477.283 52.7387 478.083 52.52 478.969 52.52C480.089 52.52 480.979 52.84 481.641 53.48C482.302 54.1093 482.633 54.9787 482.633 56.088C482.633 56.3973 482.595 56.7387 482.521 57.112H475.449ZM478.937 53.48C478.094 53.48 477.374 53.7307 476.777 54.232C476.179 54.7333 475.774 55.4107 475.561 56.264H481.561C481.571 56.1893 481.577 56.088 481.577 55.96C481.577 55.1707 481.337 54.5627 480.857 54.136C480.377 53.6987 479.737 53.48 478.937 53.48ZM492.044 61.08C491.255 61.08 490.567 60.936 489.98 60.648C489.394 60.3493 488.94 59.9333 488.62 59.4C488.311 58.856 488.156 58.2267 488.156 57.512C488.156 56.5627 488.364 55.7093 488.78 54.952C489.196 54.1947 489.778 53.6027 490.524 53.176C491.271 52.7387 492.114 52.52 493.052 52.52C493.831 52.52 494.498 52.664 495.052 52.952C495.618 53.2293 496.055 53.6453 496.364 54.2L495.404 54.76C494.924 53.928 494.108 53.512 492.956 53.512C492.263 53.512 491.634 53.6827 491.068 54.024C490.514 54.3653 490.076 54.8347 489.756 55.432C489.447 56.0293 489.292 56.7067 489.292 57.464C489.292 58.2853 489.532 58.9253 490.012 59.384C490.503 59.8427 491.196 60.072 492.092 60.072C492.636 60.072 493.138 59.9707 493.596 59.768C494.066 59.5547 494.45 59.2507 494.748 58.856L495.564 59.48C495.191 59.9813 494.69 60.376 494.06 60.664C493.442 60.9413 492.77 61.08 492.044 61.08ZM502.903 52.52C503.852 52.52 504.588 52.7653 505.111 53.256C505.644 53.736 505.911 54.4027 505.911 55.256C505.911 55.5547 505.879 55.8747 505.815 56.216L504.855 61H503.719L504.679 56.2C504.732 55.9013 504.759 55.6453 504.759 55.432C504.759 54.824 504.572 54.36 504.199 54.04C503.836 53.7093 503.298 53.544 502.583 53.544C501.676 53.544 500.93 53.7947 500.343 54.296C499.756 54.7867 499.362 55.5173 499.159 56.488L498.263 61H497.127L499.495 49.128H500.631L499.687 53.848C500.466 52.9627 501.538 52.52 502.903 52.52ZM511.794 61.08C511.005 61.08 510.317 60.936 509.73 60.648C509.144 60.3493 508.69 59.9333 508.37 59.4C508.061 58.856 507.906 58.2267 507.906 57.512C507.906 56.5627 508.114 55.7093 508.53 54.952C508.946 54.1947 509.528 53.6027 510.274 53.176C511.021 52.7387 511.864 52.52 512.802 52.52C513.581 52.52 514.248 52.664 514.802 52.952C515.368 53.2293 515.805 53.6453 516.114 54.2L515.154 54.76C514.674 53.928 513.858 53.512 512.706 53.512C512.013 53.512 511.384 53.6827 510.818 54.024C510.264 54.3653 509.826 54.8347 509.506 55.432C509.197 56.0293 509.042 56.7067 509.042 57.464C509.042 58.2853 509.282 58.9253 509.762 59.384C510.253 59.8427 510.946 60.072 511.842 60.072C512.386 60.072 512.888 59.9707 513.346 59.768C513.816 59.5547 514.2 59.2507 514.498 58.856L515.314 59.48C514.941 59.9813 514.44 60.376 513.81 60.664C513.192 60.9413 512.52 61.08 511.794 61.08ZM518.666 52.584H519.802L518.138 61H517.002L518.666 52.584ZM519.722 50.744C519.498 50.744 519.311 50.6693 519.162 50.52C519.023 50.3707 518.954 50.1947 518.954 49.992C518.954 49.7467 519.034 49.544 519.194 49.384C519.365 49.2133 519.578 49.128 519.834 49.128C520.058 49.128 520.245 49.2027 520.394 49.352C520.543 49.4907 520.618 49.656 520.618 49.848C520.618 50.104 520.533 50.3173 520.362 50.488C520.191 50.6587 519.978 50.744 519.722 50.744ZM530.659 52.584L528.979 61H527.891L528.163 59.672C527.758 60.12 527.278 60.4667 526.723 60.712C526.168 60.9573 525.555 61.08 524.883 61.08C524.168 61.08 523.534 60.936 522.979 60.648C522.424 60.36 521.992 59.9493 521.683 59.416C521.374 58.872 521.219 58.2373 521.219 57.512C521.219 56.5627 521.422 55.7093 521.827 54.952C522.243 54.1947 522.814 53.6027 523.539 53.176C524.264 52.7387 525.075 52.52 525.971 52.52C526.771 52.52 527.443 52.68 527.987 53C528.531 53.3093 528.926 53.7573 529.171 54.344L529.523 52.584H530.659ZM525.123 60.072C525.816 60.072 526.44 59.9067 526.995 59.576C527.55 59.2347 527.982 58.7653 528.291 58.168C528.611 57.56 528.771 56.8827 528.771 56.136C528.771 55.3147 528.526 54.6747 528.035 54.216C527.555 53.7467 526.878 53.512 526.003 53.512C525.31 53.512 524.686 53.6827 524.131 54.024C523.576 54.3653 523.139 54.84 522.819 55.448C522.51 56.0453 522.355 56.7173 522.355 57.464C522.355 58.2853 522.595 58.9253 523.075 59.384C523.566 59.8427 524.248 60.072 525.123 60.072ZM534.591 49.128H535.727L533.359 61H532.223L534.591 49.128ZM531.471 56.408L535.935 53.48L536.383 54.216L531.935 57.128L531.471 56.408ZM542.371 52.52C543.086 52.52 543.721 52.664 544.275 52.952C544.841 53.24 545.278 53.6507 545.587 54.184C545.897 54.7173 546.051 55.3467 546.051 56.072C546.051 57.0213 545.843 57.88 545.427 58.648C545.022 59.4053 544.457 60.0027 543.731 60.44C543.006 60.8667 542.19 61.08 541.283 61.08C540.473 61.08 539.79 60.9147 539.235 60.584C538.691 60.2533 538.302 59.7787 538.067 59.16L537.699 61H536.611L538.979 49.128H540.115L539.171 53.848C539.577 53.4213 540.046 53.096 540.579 52.872C541.123 52.6373 541.721 52.52 542.371 52.52ZM541.267 60.072C541.961 60.072 542.579 59.9067 543.123 59.576C543.678 59.2347 544.11 58.7653 544.419 58.168C544.739 57.5707 544.899 56.8933 544.899 56.136C544.899 55.3147 544.654 54.6747 544.163 54.216C543.683 53.7467 543.006 53.512 542.131 53.512C541.438 53.512 540.814 53.6827 540.259 54.024C539.715 54.3547 539.283 54.824 538.963 55.432C538.654 56.0293 538.499 56.7067 538.499 57.464C538.499 58.2853 538.739 58.9253 539.219 59.384C539.71 59.8427 540.393 60.072 541.267 60.072ZM555.973 52.584L549.829 62.088C549.317 62.8773 548.837 63.4213 548.389 63.72C547.941 64.0293 547.407 64.184 546.789 64.184C546.383 64.184 545.999 64.1147 545.637 63.976C545.274 63.848 544.991 63.6667 544.789 63.432L545.397 62.6C545.781 63.0053 546.277 63.208 546.885 63.208C547.258 63.208 547.594 63.1067 547.893 62.904C548.191 62.7013 548.501 62.3493 548.821 61.848L549.413 60.952L547.317 52.584H548.469L550.213 59.752L554.805 52.584H555.973ZM567.861 52.52C568.81 52.52 569.541 52.76 570.053 53.24C570.575 53.7093 570.837 54.3707 570.837 55.224C570.837 55.4693 570.799 55.8 570.725 56.216L569.765 61H568.629L569.589 56.2C569.642 55.9547 569.669 55.6933 569.669 55.416C569.669 54.8187 569.493 54.36 569.141 54.04C568.789 53.7093 568.271 53.544 567.589 53.544C566.735 53.544 566.026 53.784 565.461 54.264C564.895 54.7333 564.517 55.432 564.325 56.36L563.397 61H562.261L563.221 56.2C563.274 55.9013 563.301 55.6453 563.301 55.432C563.301 54.824 563.125 54.36 562.773 54.04C562.431 53.7093 561.914 53.544 561.221 53.544C560.357 53.544 559.642 53.7947 559.077 54.296C558.511 54.7867 558.127 55.5173 557.925 56.488L557.029 61H555.893L557.557 52.584H558.645L558.373 53.928C559.141 52.9893 560.202 52.52 561.557 52.52C562.261 52.52 562.847 52.664 563.317 52.952C563.797 53.24 564.127 53.656 564.309 54.2C564.725 53.6453 565.231 53.2293 565.829 52.952C566.437 52.664 567.114 52.52 567.861 52.52ZM254.131 73.8L248.115 85H246.867L245.491 75.496L240.275 85H239.027L237.491 73.8H238.659L239.987 83.448L245.251 73.8H246.355L247.715 83.464L252.947 73.8H254.131ZM262.542 76.584L260.862 85H259.774L260.046 83.672C259.64 84.12 259.16 84.4667 258.606 84.712C258.051 84.9573 257.438 85.08 256.766 85.08C256.051 85.08 255.416 84.936 254.862 84.648C254.307 84.36 253.875 83.9493 253.566 83.416C253.256 82.872 253.102 82.2373 253.102 81.512C253.102 80.5627 253.304 79.7093 253.71 78.952C254.126 78.1947 254.696 77.6027 255.422 77.176C256.147 76.7387 256.958 76.52 257.854 76.52C258.654 76.52 259.326 76.68 259.87 77C260.414 77.3093 260.808 77.7573 261.054 78.344L261.406 76.584H262.542ZM257.006 84.072C257.699 84.072 258.323 83.9067 258.878 83.576C259.432 83.2347 259.864 82.7653 260.174 82.168C260.494 81.56 260.654 80.8827 260.654 80.136C260.654 79.3147 260.408 78.6747 259.918 78.216C259.438 77.7467 258.76 77.512 257.886 77.512C257.192 77.512 256.568 77.6827 256.014 78.024C255.459 78.3653 255.022 78.84 254.702 79.448C254.392 80.0453 254.238 80.7173 254.238 81.464C254.238 82.2853 254.478 82.9253 254.958 83.384C255.448 83.8427 256.131 84.072 257.006 84.072ZM275.993 76.52C276.943 76.52 277.673 76.76 278.185 77.24C278.708 77.7093 278.969 78.3707 278.969 79.224C278.969 79.4693 278.932 79.8 278.857 80.216L277.897 85H276.761L277.721 80.2C277.775 79.9547 277.801 79.6933 277.801 79.416C277.801 78.8187 277.625 78.36 277.273 78.04C276.921 77.7093 276.404 77.544 275.721 77.544C274.868 77.544 274.159 77.784 273.593 78.264C273.028 78.7333 272.649 79.432 272.457 80.36L271.529 85H270.393L271.353 80.2C271.407 79.9013 271.433 79.6453 271.433 79.432C271.433 78.824 271.257 78.36 270.905 78.04C270.564 77.7093 270.047 77.544 269.353 77.544C268.489 77.544 267.775 77.7947 267.209 78.296C266.644 78.7867 266.26 79.5173 266.057 80.488L265.161 85H264.025L265.689 76.584H266.777L266.505 77.928C267.273 76.9893 268.335 76.52 269.689 76.52C270.393 76.52 270.98 76.664 271.449 76.952C271.929 77.24 272.26 77.656 272.441 78.2C272.857 77.6453 273.364 77.2293 273.961 76.952C274.569 76.664 275.247 76.52 275.993 76.52ZM290.942 76.52C291.656 76.52 292.291 76.664 292.846 76.952C293.411 77.24 293.848 77.6507 294.158 78.184C294.467 78.7173 294.622 79.3467 294.622 80.072C294.622 81.0213 294.414 81.88 293.998 82.648C293.592 83.4053 293.027 84.0027 292.302 84.44C291.576 84.8667 290.76 85.08 289.854 85.08C289.054 85.08 288.382 84.9253 287.838 84.616C287.294 84.296 286.899 83.8373 286.654 83.24L285.694 88.104H284.558L286.846 76.584H287.934L287.662 77.928C288.067 77.4693 288.547 77.1227 289.102 76.888C289.656 76.6427 290.27 76.52 290.942 76.52ZM289.838 84.072C290.531 84.072 291.15 83.9067 291.694 83.576C292.248 83.2347 292.68 82.7653 292.99 82.168C293.31 81.5707 293.47 80.8933 293.47 80.136C293.47 79.3147 293.224 78.6747 292.734 78.216C292.254 77.7467 291.576 77.512 290.702 77.512C290.008 77.512 289.384 77.6827 288.83 78.024C288.286 78.3547 287.854 78.824 287.534 79.432C287.224 80.0293 287.07 80.7067 287.07 81.464C287.07 82.2853 287.31 82.9253 287.79 83.384C288.28 83.8427 288.963 84.072 289.838 84.072ZM298.489 78.12C298.863 77.576 299.332 77.176 299.897 76.92C300.463 76.6533 301.145 76.52 301.945 76.52L301.737 77.624L301.417 77.608C300.511 77.608 299.764 77.8693 299.177 78.392C298.601 78.9147 298.212 79.6933 298.009 80.728L297.161 85H296.025L297.689 76.584H298.777L298.489 78.12ZM309.791 77.336L303.231 84.056H308.559L308.367 85H301.519L301.663 84.248L308.223 77.544H303.119L303.311 76.584H309.951L309.791 77.336ZM319.215 76.584L313.071 86.088C312.559 86.8773 312.079 87.4213 311.631 87.72C311.183 88.0293 310.65 88.184 310.031 88.184C309.626 88.184 309.242 88.1147 308.879 87.976C308.516 87.848 308.234 87.6667 308.031 87.432L308.639 86.6C309.023 87.0053 309.519 87.208 310.127 87.208C310.5 87.208 310.836 87.1067 311.135 86.904C311.434 86.7013 311.743 86.3493 312.063 85.848L312.655 84.952L310.559 76.584H311.711L313.455 83.752L318.047 76.584H319.215ZM324.895 76.52C325.609 76.52 326.244 76.664 326.799 76.952C327.364 77.24 327.801 77.6507 328.111 78.184C328.42 78.7173 328.575 79.3467 328.575 80.072C328.575 81.0213 328.367 81.88 327.951 82.648C327.545 83.4053 326.98 84.0027 326.255 84.44C325.529 84.8667 324.713 85.08 323.807 85.08C323.007 85.08 322.335 84.9253 321.791 84.616C321.247 84.296 320.852 83.8373 320.607 83.24L319.647 88.104H318.511L320.799 76.584H321.887L321.615 77.928C322.02 77.4693 322.5 77.1227 323.055 76.888C323.609 76.6427 324.223 76.52 324.895 76.52ZM323.791 84.072C324.484 84.072 325.103 83.9067 325.647 83.576C326.201 83.2347 326.633 82.7653 326.943 82.168C327.263 81.5707 327.423 80.8933 327.423 80.136C327.423 79.3147 327.177 78.6747 326.687 78.216C326.207 77.7467 325.529 77.512 324.655 77.512C323.961 77.512 323.337 77.6827 322.783 78.024C322.239 78.3547 321.807 78.824 321.487 79.432C321.177 80.0293 321.023 80.7067 321.023 81.464C321.023 82.2853 321.263 82.9253 321.743 83.384C322.233 83.8427 322.916 84.072 323.791 84.072ZM333.723 85.08C332.955 85.08 332.283 84.936 331.707 84.648C331.131 84.3493 330.683 83.9333 330.363 83.4C330.053 82.856 329.899 82.2267 329.899 81.512C329.899 80.5627 330.107 79.7093 330.523 78.952C330.939 78.1947 331.515 77.6027 332.251 77.176C332.997 76.7387 333.835 76.52 334.763 76.52C335.936 76.52 336.864 76.84 337.547 77.48C338.24 78.12 338.587 78.984 338.587 80.072C338.587 81.0213 338.379 81.88 337.963 82.648C337.547 83.4053 336.965 84.0027 336.219 84.44C335.483 84.8667 334.651 85.08 333.723 85.08ZM333.803 84.072C334.496 84.072 335.12 83.9067 335.675 83.576C336.229 83.2347 336.661 82.7653 336.971 82.168C337.291 81.56 337.451 80.8827 337.451 80.136C337.451 79.3147 337.205 78.6747 336.715 78.216C336.235 77.7467 335.557 77.512 334.683 77.512C333.989 77.512 333.365 77.6827 332.811 78.024C332.256 78.3653 331.819 78.84 331.499 79.448C331.189 80.0453 331.035 80.7173 331.035 81.464C331.035 82.2853 331.275 82.9253 331.755 83.384C332.245 83.8427 332.928 84.072 333.803 84.072ZM351.978 76.52C352.927 76.52 353.658 76.76 354.17 77.24C354.692 77.7093 354.954 78.3707 354.954 79.224C354.954 79.4693 354.916 79.8 354.842 80.216L353.882 85H352.746L353.706 80.2C353.759 79.9547 353.786 79.6933 353.786 79.416C353.786 78.8187 353.61 78.36 353.258 78.04C352.906 77.7093 352.388 77.544 351.706 77.544C350.852 77.544 350.143 77.784 349.578 78.264C349.012 78.7333 348.634 79.432 348.442 80.36L347.514 85H346.378L347.338 80.2C347.391 79.9013 347.418 79.6453 347.418 79.432C347.418 78.824 347.242 78.36 346.89 78.04C346.548 77.7093 346.031 77.544 345.338 77.544C344.474 77.544 343.759 77.7947 343.194 78.296C342.628 78.7867 342.244 79.5173 342.042 80.488L341.146 85H340.01L341.674 76.584H342.762L342.49 77.928C343.258 76.9893 344.319 76.52 345.674 76.52C346.378 76.52 346.964 76.664 347.434 76.952C347.914 77.24 348.244 77.656 348.426 78.2C348.842 77.6453 349.348 77.2293 349.946 76.952C350.554 76.664 351.231 76.52 351.978 76.52ZM362.755 76.52C363.704 76.52 364.44 76.7653 364.963 77.256C365.496 77.736 365.763 78.4027 365.763 79.256C365.763 79.5547 365.731 79.8747 365.667 80.216L364.707 85H363.571L364.531 80.2C364.584 79.9013 364.611 79.6453 364.611 79.432C364.611 78.824 364.424 78.36 364.051 78.04C363.688 77.7093 363.149 77.544 362.435 77.544C361.528 77.544 360.781 77.7947 360.195 78.296C359.608 78.7867 359.213 79.5173 359.011 80.488L358.115 85H356.979L358.643 76.584H359.731L359.459 77.928C360.259 76.9893 361.357 76.52 362.755 76.52ZM369.471 76.584H370.607L368.943 85H367.807L369.471 76.584ZM370.527 74.744C370.303 74.744 370.116 74.6693 369.967 74.52C369.828 74.3707 369.759 74.1947 369.759 73.992C369.759 73.7467 369.839 73.544 369.999 73.384C370.169 73.2133 370.383 73.128 370.639 73.128C370.863 73.128 371.049 73.2027 371.199 73.352C371.348 73.4907 371.423 73.656 371.423 73.848C371.423 74.104 371.337 74.3173 371.167 74.488C370.996 74.6587 370.783 74.744 370.527 74.744ZM373.16 81.112C373.149 81.1867 373.144 81.2987 373.144 81.448C373.144 82.3013 373.384 82.952 373.864 83.4C374.354 83.848 375.08 84.072 376.04 84.072C376.594 84.072 377.112 83.9813 377.592 83.8C378.082 83.608 378.482 83.3467 378.792 83.016L379.304 83.832C378.909 84.2267 378.413 84.536 377.816 84.76C377.229 84.9733 376.605 85.08 375.944 85.08C374.728 85.08 373.768 84.76 373.064 84.12C372.37 83.48 372.024 82.6053 372.024 81.496C372.024 80.5573 372.221 79.7093 372.616 78.952C373.021 78.1947 373.576 77.6027 374.28 77.176C374.994 76.7387 375.794 76.52 376.68 76.52C377.8 76.52 378.69 76.84 379.352 77.48C380.013 78.1093 380.344 78.9787 380.344 80.088C380.344 80.3973 380.306 80.7387 380.232 81.112H373.16ZM376.648 77.48C375.805 77.48 375.085 77.7307 374.488 78.232C373.89 78.7333 373.485 79.4107 373.272 80.264H379.272C379.282 80.1893 379.288 80.088 379.288 79.96C379.288 79.1707 379.048 78.5627 378.568 78.136C378.088 77.6987 377.448 77.48 376.648 77.48ZM385.568 85.08C384.778 85.08 384.09 84.936 383.504 84.648C382.917 84.3493 382.464 83.9333 382.144 83.4C381.834 82.856 381.68 82.2267 381.68 81.512C381.68 80.5627 381.888 79.7093 382.304 78.952C382.72 78.1947 383.301 77.6027 384.048 77.176C384.794 76.7387 385.637 76.52 386.576 76.52C387.354 76.52 388.021 76.664 388.576 76.952C389.141 77.2293 389.578 77.6453 389.888 78.2L388.928 78.76C388.448 77.928 387.632 77.512 386.48 77.512C385.786 77.512 385.157 77.6827 384.592 78.024C384.037 78.3653 383.6 78.8347 383.28 79.432C382.97 80.0293 382.816 80.7067 382.816 81.464C382.816 82.2853 383.056 82.9253 383.536 83.384C384.026 83.8427 384.72 84.072 385.616 84.072C386.16 84.072 386.661 83.9707 387.12 83.768C387.589 83.5547 387.973 83.2507 388.272 82.856L389.088 83.48C388.714 83.9813 388.213 84.376 387.584 84.664C386.965 84.9413 386.293 85.08 385.568 85.08ZM388.24 73.288H389.792L386.992 75.272H385.808L388.24 73.288ZM398.707 85.08C397.939 85.08 397.267 84.936 396.691 84.648C396.115 84.3493 395.667 83.9333 395.347 83.4C395.038 82.856 394.883 82.2267 394.883 81.512C394.883 80.5627 395.091 79.7093 395.507 78.952C395.923 78.1947 396.499 77.6027 397.235 77.176C397.982 76.7387 398.819 76.52 399.747 76.52C400.92 76.52 401.848 76.84 402.531 77.48C403.224 78.12 403.571 78.984 403.571 80.072C403.571 81.0213 403.363 81.88 402.947 82.648C402.531 83.4053 401.95 84.0027 401.203 84.44C400.467 84.8667 399.635 85.08 398.707 85.08ZM398.787 84.072C399.48 84.072 400.104 83.9067 400.659 83.576C401.214 83.2347 401.646 82.7653 401.955 82.168C402.275 81.56 402.435 80.8827 402.435 80.136C402.435 79.3147 402.19 78.6747 401.699 78.216C401.219 77.7467 400.542 77.512 399.667 77.512C398.974 77.512 398.35 77.6827 397.795 78.024C397.24 78.3653 396.803 78.84 396.483 79.448C396.174 80.0453 396.019 80.7173 396.019 81.464C396.019 82.2853 396.259 82.9253 396.739 83.384C397.23 83.8427 397.912 84.072 398.787 84.072ZM423.278 76.584L418.526 85H417.422L416.014 78.12L412.078 85H410.99L409.342 76.584H410.382L411.742 83.72L415.806 76.584H416.766L418.174 83.72L422.174 76.584H423.278ZM430.432 77.336L423.872 84.056H429.2L429.008 85H422.16L422.304 84.248L428.864 77.544H423.76L423.952 76.584H430.592L430.432 77.336ZM440.479 76.584L438.799 85H437.711L437.983 83.672C437.578 84.12 437.098 84.4667 436.543 84.712C435.989 84.9573 435.375 85.08 434.703 85.08C433.989 85.08 433.354 84.936 432.799 84.648C432.245 84.36 431.813 83.9493 431.503 83.416C431.194 82.872 431.039 82.2373 431.039 81.512C431.039 80.5627 431.242 79.7093 431.647 78.952C432.063 78.1947 432.634 77.6027 433.359 77.176C434.085 76.7387 434.895 76.52 435.791 76.52C436.591 76.52 437.263 76.68 437.807 77C438.351 77.3093 438.746 77.7573 438.991 78.344L439.343 76.584H440.479ZM434.943 84.072C435.637 84.072 436.261 83.9067 436.815 83.576C437.37 83.2347 437.802 82.7653 438.111 82.168C438.431 81.56 438.591 80.8827 438.591 80.136C438.591 79.3147 438.346 78.6747 437.855 78.216C437.375 77.7467 436.698 77.512 435.823 77.512C435.13 77.512 434.506 77.6827 433.951 78.024C433.397 78.3653 432.959 78.84 432.639 79.448C432.33 80.0453 432.175 80.7173 432.175 81.464C432.175 82.2853 432.415 82.9253 432.895 83.384C433.386 83.8427 434.069 84.072 434.943 84.072ZM440.203 88.184C439.84 88.184 439.51 88.136 439.211 88.04C438.902 87.9547 438.64 87.8267 438.427 87.656L438.955 86.776C439.275 87.064 439.696 87.208 440.219 87.208C440.678 87.208 441.046 87.08 441.323 86.824C441.6 86.568 441.792 86.1627 441.899 85.608L443.707 76.584H444.843L443.035 85.64C442.694 87.336 441.75 88.184 440.203 88.184ZM444.747 74.728C444.523 74.728 444.336 74.6533 444.187 74.504C444.048 74.3547 443.979 74.1787 443.979 73.976C443.979 73.7307 444.059 73.528 444.219 73.368C444.39 73.1973 444.603 73.112 444.859 73.112C445.083 73.112 445.27 73.1867 445.419 73.336C445.568 73.4747 445.643 73.64 445.643 73.832C445.643 74.088 445.558 74.3013 445.387 74.472C445.216 74.6427 445.003 74.728 444.747 74.728ZM447.41 81.112C447.399 81.1867 447.394 81.2987 447.394 81.448C447.394 82.3013 447.634 82.952 448.114 83.4C448.604 83.848 449.33 84.072 450.29 84.072C450.844 84.072 451.362 83.9813 451.842 83.8C452.332 83.608 452.732 83.3467 453.042 83.016L453.554 83.832C453.159 84.2267 452.663 84.536 452.066 84.76C451.479 84.9733 450.855 85.08 450.194 85.08C448.978 85.08 448.018 84.76 447.314 84.12C446.62 83.48 446.274 82.6053 446.274 81.496C446.274 80.5573 446.471 79.7093 446.866 78.952C447.271 78.1947 447.826 77.6027 448.53 77.176C449.244 76.7387 450.044 76.52 450.93 76.52C452.05 76.52 452.94 76.84 453.602 77.48C454.263 78.1093 454.594 78.9787 454.594 80.088C454.594 80.3973 454.556 80.7387 454.482 81.112H447.41ZM450.898 77.48C450.055 77.48 449.335 77.7307 448.738 78.232C448.14 78.7333 447.735 79.4107 447.522 80.264H453.522C453.532 80.1893 453.538 80.088 453.538 79.96C453.538 79.1707 453.298 78.5627 452.818 78.136C452.338 77.6987 451.698 77.48 450.898 77.48ZM467.978 76.52C468.927 76.52 469.658 76.76 470.17 77.24C470.692 77.7093 470.954 78.3707 470.954 79.224C470.954 79.4693 470.916 79.8 470.842 80.216L469.882 85H468.746L469.706 80.2C469.759 79.9547 469.786 79.6933 469.786 79.416C469.786 78.8187 469.61 78.36 469.258 78.04C468.906 77.7093 468.388 77.544 467.706 77.544C466.852 77.544 466.143 77.784 465.578 78.264C465.012 78.7333 464.634 79.432 464.442 80.36L463.514 85H462.378L463.338 80.2C463.391 79.9013 463.418 79.6453 463.418 79.432C463.418 78.824 463.242 78.36 462.89 78.04C462.548 77.7093 462.031 77.544 461.338 77.544C460.474 77.544 459.759 77.7947 459.194 78.296C458.628 78.7867 458.244 79.5173 458.042 80.488L457.146 85H456.01L457.674 76.584H458.762L458.49 77.928C459.258 76.9893 460.319 76.52 461.674 76.52C462.378 76.52 462.964 76.664 463.434 76.952C463.914 77.24 464.244 77.656 464.426 78.2C464.842 77.6453 465.348 77.2293 465.946 76.952C466.554 76.664 467.231 76.52 467.978 76.52ZM478.755 76.52C479.704 76.52 480.44 76.7653 480.963 77.256C481.496 77.736 481.763 78.4027 481.763 79.256C481.763 79.5547 481.731 79.8747 481.667 80.216L480.707 85H479.571L480.531 80.2C480.584 79.9013 480.611 79.6453 480.611 79.432C480.611 78.824 480.424 78.36 480.051 78.04C479.688 77.7093 479.149 77.544 478.435 77.544C477.528 77.544 476.781 77.7947 476.195 78.296C475.608 78.7867 475.213 79.5173 475.011 80.488L474.115 85H472.979L474.643 76.584H475.731L475.459 77.928C476.259 76.9893 477.357 76.52 478.755 76.52ZM492.402 76.584L486.258 86.088C485.746 86.8773 485.266 87.4213 484.818 87.72C484.37 88.0293 483.837 88.184 483.218 88.184C482.813 88.184 482.429 88.1147 482.066 87.976C481.704 87.848 481.421 87.6667 481.218 87.432L481.826 86.6C482.21 87.0053 482.706 87.208 483.314 87.208C483.688 87.208 484.024 87.1067 484.322 86.904C484.621 86.7013 484.93 86.3493 485.25 85.848L485.842 84.952L483.746 76.584H484.898L486.642 83.752L491.234 76.584H492.402ZM504.29 76.52C505.24 76.52 505.97 76.76 506.482 77.24C507.005 77.7093 507.266 78.3707 507.266 79.224C507.266 79.4693 507.229 79.8 507.154 80.216L506.194 85H505.058L506.018 80.2C506.072 79.9547 506.098 79.6933 506.098 79.416C506.098 78.8187 505.922 78.36 505.57 78.04C505.218 77.7093 504.701 77.544 504.018 77.544C503.165 77.544 502.456 77.784 501.89 78.264C501.325 78.7333 500.946 79.432 500.754 80.36L499.826 85H498.69L499.65 80.2C499.704 79.9013 499.73 79.6453 499.73 79.432C499.73 78.824 499.554 78.36 499.202 78.04C498.861 77.7093 498.344 77.544 497.65 77.544C496.786 77.544 496.072 77.7947 495.506 78.296C494.941 78.7867 494.557 79.5173 494.354 80.488L493.458 85H492.322L493.986 76.584H495.074L494.802 77.928C495.57 76.9893 496.632 76.52 497.986 76.52C498.69 76.52 499.277 76.664 499.746 76.952C500.226 77.24 500.557 77.656 500.738 78.2C501.154 77.6453 501.661 77.2293 502.258 76.952C502.866 76.664 503.544 76.52 504.29 76.52ZM515.927 85.08C515.255 85.08 514.609 84.984 513.991 84.792C513.383 84.6 512.913 84.3547 512.583 84.056L513.127 83.16C513.447 83.4373 513.868 83.6613 514.391 83.832C514.913 84.0027 515.463 84.088 516.039 84.088C516.839 84.088 517.452 83.96 517.879 83.704C518.316 83.4373 518.535 83.064 518.535 82.584C518.535 82.3173 518.444 82.104 518.263 81.944C518.092 81.784 517.879 81.6613 517.623 81.576C517.367 81.4907 516.993 81.3947 516.503 81.288C515.916 81.16 515.441 81.032 515.079 80.904C514.716 80.776 514.407 80.5733 514.151 80.296C513.895 80.0187 513.767 79.6347 513.767 79.144C513.767 78.344 514.097 77.7093 514.759 77.24C515.42 76.76 516.305 76.52 517.415 76.52C517.959 76.52 518.487 76.5947 518.999 76.744C519.521 76.8827 519.943 77.0693 520.263 77.304L519.783 78.216C519.463 77.9813 519.084 77.8053 518.647 77.688C518.22 77.56 517.777 77.496 517.319 77.496C516.551 77.496 515.953 77.6347 515.527 77.912C515.1 78.1893 514.887 78.5627 514.887 79.032C514.887 79.3093 514.977 79.5333 515.159 79.704C515.34 79.8747 515.564 80.0027 515.831 80.088C516.108 80.1733 516.481 80.264 516.951 80.36C517.527 80.488 517.991 80.616 518.343 80.744C518.705 80.8613 519.015 81.0587 519.271 81.336C519.527 81.6133 519.655 81.9867 519.655 82.456C519.655 83.2773 519.313 83.9227 518.631 84.392C517.959 84.8507 517.057 85.08 515.927 85.08ZM528.651 77.336L522.091 84.056H527.419L527.227 85H520.379L520.523 84.248L527.083 77.544H521.979L522.171 76.584H528.811L528.651 77.336ZM538.698 76.584L537.018 85H535.93L536.202 83.672C535.797 84.12 535.317 84.4667 534.762 84.712C534.207 84.9573 533.594 85.08 532.922 85.08C532.207 85.08 531.573 84.936 531.018 84.648C530.463 84.36 530.031 83.9493 529.722 83.416C529.413 82.872 529.258 82.2373 529.258 81.512C529.258 80.5627 529.461 79.7093 529.866 78.952C530.282 78.1947 530.853 77.6027 531.578 77.176C532.303 76.7387 533.114 76.52 534.01 76.52C534.81 76.52 535.482 76.68 536.026 77C536.57 77.3093 536.965 77.7573 537.21 78.344L537.562 76.584H538.698ZM533.162 84.072C533.855 84.072 534.479 83.9067 535.034 83.576C535.589 83.2347 536.021 82.7653 536.33 82.168C536.65 81.56 536.81 80.8827 536.81 80.136C536.81 79.3147 536.565 78.6747 536.074 78.216C535.594 77.7467 534.917 77.512 534.042 77.512C533.349 77.512 532.725 77.6827 532.17 78.024C531.615 78.3653 531.178 78.84 530.858 79.448C530.549 80.0453 530.394 80.7173 530.394 81.464C530.394 82.2853 530.634 82.9253 531.114 83.384C531.605 83.8427 532.287 84.072 533.162 84.072ZM543.99 85.08C543.2 85.08 542.512 84.936 541.926 84.648C541.339 84.3493 540.886 83.9333 540.566 83.4C540.256 82.856 540.102 82.2267 540.102 81.512C540.102 80.5627 540.31 79.7093 540.726 78.952C541.142 78.1947 541.723 77.6027 542.47 77.176C543.216 76.7387 544.059 76.52 544.998 76.52C545.776 76.52 546.443 76.664 546.998 76.952C547.563 77.2293 548 77.6453 548.31 78.2L547.35 78.76C546.87 77.928 546.054 77.512 544.902 77.512C544.208 77.512 543.579 77.6827 543.014 78.024C542.459 78.3653 542.022 78.8347 541.702 79.432C541.392 80.0293 541.238 80.7067 541.238 81.464C541.238 82.2853 541.478 82.9253 541.958 83.384C542.448 83.8427 543.142 84.072 544.038 84.072C544.582 84.072 545.083 83.9707 545.542 83.768C546.011 83.5547 546.395 83.2507 546.694 82.856L547.51 83.48C547.136 83.9813 546.635 84.376 546.006 84.664C545.387 84.9413 544.715 85.08 543.99 85.08ZM558.461 76.584L556.781 85H555.693L555.965 83.656C555.176 84.6053 554.093 85.08 552.717 85.08C551.779 85.08 551.043 84.84 550.509 84.36C549.987 83.8693 549.725 83.192 549.725 82.328C549.725 82.0293 549.757 81.7147 549.821 81.384L550.781 76.584H551.917L550.957 81.384C550.904 81.6827 550.877 81.9333 550.877 82.136C550.877 82.7547 551.053 83.2293 551.405 83.56C551.768 83.8907 552.307 84.056 553.021 84.056C553.917 84.056 554.659 83.8053 555.245 83.304C555.832 82.8027 556.227 82.072 556.429 81.112L557.325 76.584H558.461ZM565.739 76.52C566.688 76.52 567.424 76.7653 567.947 77.256C568.48 77.736 568.747 78.4027 568.747 79.256C568.747 79.5547 568.715 79.8747 568.651 80.216L567.691 85H566.555L567.515 80.2C567.568 79.9013 567.595 79.6453 567.595 79.432C567.595 78.824 567.408 78.36 567.035 78.04C566.672 77.7093 566.134 77.544 565.419 77.544C564.512 77.544 563.766 77.7947 563.179 78.296C562.592 78.7867 562.198 79.5173 561.995 80.488L561.099 85H559.963L561.627 76.584H562.715L562.443 77.928C563.243 76.9893 564.342 76.52 565.739 76.52ZM575.655 80.056L578.679 85H577.351L574.759 80.744L572.407 82.568L571.927 85H570.791L573.159 73.128H574.295L572.695 81.112L578.487 76.584H580.103L575.655 80.056ZM589.336 76.584L587.656 85H586.568L586.84 83.656C586.051 84.6053 584.968 85.08 583.592 85.08C582.654 85.08 581.918 84.84 581.384 84.36C580.862 83.8693 580.6 83.192 580.6 82.328C580.6 82.0293 580.632 81.7147 580.696 81.384L581.656 76.584H582.792L581.832 81.384C581.779 81.6827 581.752 81.9333 581.752 82.136C581.752 82.7547 581.928 83.2293 582.28 83.56C582.643 83.8907 583.182 84.056 583.896 84.056C584.792 84.056 585.534 83.8053 586.12 83.304C586.707 82.8027 587.102 82.072 587.304 81.112L588.2 76.584H589.336ZM591.078 85.08C590.843 85.08 590.646 85 590.486 84.84C590.326 84.68 590.246 84.4827 590.246 84.248C590.246 83.992 590.331 83.7787 590.502 83.608C590.683 83.4267 590.897 83.336 591.142 83.336C591.377 83.336 591.569 83.416 591.718 83.576C591.878 83.736 591.958 83.9333 591.958 84.168C591.958 84.424 591.867 84.6427 591.686 84.824C591.515 84.9947 591.313 85.08 591.078 85.08Z" fill="white"/>
<g clip-path="url(#clip0_0_1)">
<path d="M198.706 305.888V246.135C198.706 208.367 167.42 177.927 128.806 177.927H97.5207C58.9068 177.927 27.6211 208.367 27.6211 246.135V305.888H198.706Z" fill="black"/>
<path d="M204.906 184.128L127.96 257.128M13.5273 173.135L63.9791 272.066L13.5273 173.135Z" stroke="black" stroke-width="3.285" stroke-miterlimit="10" stroke-linecap="round"/>
<path d="M23.676 173.699C21.703 179.9 14.9386 183.564 8.45595 181.591C1.97332 179.618 -1.40892 172.853 0.564054 166.653C2.53703 160.452 9.30151 156.788 15.7841 158.761C21.9849 160.734 25.649 167.498 23.676 173.699Z" fill="black"/>
<path d="M219.001 180.745C219.001 187.51 213.646 192.865 206.881 192.865C200.117 192.865 194.762 187.51 194.762 180.745C194.762 174.263 200.117 168.625 206.881 168.625C213.646 168.907 219.001 174.263 219.001 180.745Z" fill="black"/>
<path d="M117.252 181.027V137.058H85.1211M123.453 179.618C123.453 177.363 139.237 137.34 139.237 137.34L121.48 110.845L123.453 179.618Z" stroke="black" stroke-width="0.657" stroke-miterlimit="10" stroke-linecap="round"/>
<path d="M156.146 265.301H69.8984V274.884H156.146V265.301Z" fill="white"/>
</g>
<defs>
<clipPath id="clip0_0_1">
<rect width="219" height="195.888" fill="white" transform="translate(0 110)"/>
</clipPath>
</defs>
</svg>
