<svg width="630" height="306" viewBox="0 0 630 306" fill="none" xmlns="http://www.w3.org/2000/svg">
<path d="M398.342 138.199H199V0H630V138.199H398.342L261.592 182L236.419 131.906" fill="black"/>
<path d="M396.834 25.8L394.594 37H393.426L394.45 31.848H387.442L386.418 37H385.25L387.49 25.8H388.658L387.666 30.776H394.674L395.666 25.8H396.834ZM399.081 33.112C399.071 33.1867 399.065 33.2987 399.065 33.448C399.065 34.3013 399.305 34.952 399.785 35.4C400.276 35.848 401.001 36.072 401.961 36.072C402.516 36.072 403.033 35.9813 403.513 35.8C404.004 35.608 404.404 35.3467 404.713 35.016L405.225 35.832C404.831 36.2267 404.335 36.536 403.737 36.76C403.151 36.9733 402.527 37.08 401.865 37.08C400.649 37.08 399.689 36.76 398.985 36.12C398.292 35.48 397.945 34.6053 397.945 33.496C397.945 32.5573 398.143 31.7093 398.537 30.952C398.943 30.1947 399.497 29.6027 400.201 29.176C400.916 28.7387 401.716 28.52 402.601 28.52C403.721 28.52 404.612 28.84 405.273 29.48C405.935 30.1093 406.265 30.9787 406.265 32.088C406.265 32.3973 406.228 32.7387 406.153 33.112H399.081ZM402.569 29.48C401.727 29.48 401.007 29.7307 400.409 30.232C399.812 30.7333 399.407 31.4107 399.193 32.264H405.193C405.204 32.1893 405.209 32.088 405.209 31.96C405.209 31.1707 404.969 30.5627 404.489 30.136C404.009 29.6987 403.369 29.48 402.569 29.48ZM405.922 40.184C405.559 40.184 405.228 40.136 404.93 40.04C404.62 39.9547 404.359 39.8267 404.146 39.656L404.674 38.776C404.994 39.064 405.415 39.208 405.938 39.208C406.396 39.208 406.764 39.08 407.042 38.824C407.319 38.568 407.511 38.1627 407.618 37.608L409.426 28.584H410.562L408.754 37.64C408.412 39.336 407.468 40.184 405.922 40.184ZM410.466 26.728C410.242 26.728 410.055 26.6533 409.906 26.504C409.767 26.3547 409.698 26.1787 409.698 25.976C409.698 25.7307 409.778 25.528 409.938 25.368C410.108 25.1973 410.322 25.112 410.578 25.112C410.802 25.112 410.988 25.1867 411.138 25.336C411.287 25.4747 411.362 25.64 411.362 25.832C411.362 26.088 411.276 26.3013 411.106 26.472C410.935 26.6427 410.722 26.728 410.466 26.728ZM422.036 28.52C422.985 28.52 423.721 28.7653 424.244 29.256C424.777 29.736 425.044 30.4027 425.044 31.256C425.044 31.5547 425.012 31.8747 424.948 32.216L423.988 37H422.852L423.812 32.2C423.865 31.9013 423.892 31.6453 423.892 31.432C423.892 30.824 423.705 30.36 423.332 30.04C422.969 29.7093 422.43 29.544 421.716 29.544C420.809 29.544 420.062 29.7947 419.476 30.296C418.889 30.7867 418.494 31.5173 418.292 32.488L417.396 37H416.26L418.628 25.128H419.764L418.82 29.848C419.598 28.9627 420.67 28.52 422.036 28.52ZM430.863 37.08C430.095 37.08 429.423 36.936 428.847 36.648C428.271 36.3493 427.823 35.9333 427.503 35.4C427.194 34.856 427.039 34.2267 427.039 33.512C427.039 32.5627 427.247 31.7093 427.663 30.952C428.079 30.1947 428.655 29.6027 429.391 29.176C430.138 28.7387 430.975 28.52 431.903 28.52C433.077 28.52 434.005 28.84 434.687 29.48C435.381 30.12 435.727 30.984 435.727 32.072C435.727 33.0213 435.519 33.88 435.103 34.648C434.687 35.4053 434.106 36.0027 433.359 36.44C432.623 36.8667 431.791 37.08 430.863 37.08ZM430.943 36.072C431.637 36.072 432.261 35.9067 432.815 35.576C433.37 35.2347 433.802 34.7653 434.111 34.168C434.431 33.56 434.591 32.8827 434.591 32.136C434.591 31.3147 434.346 30.6747 433.855 30.216C433.375 29.7467 432.698 29.512 431.823 29.512C431.13 29.512 430.506 29.6827 429.951 30.024C429.397 30.3653 428.959 30.84 428.639 31.448C428.33 32.0453 428.175 32.7173 428.175 33.464C428.175 34.2853 428.415 34.9253 428.895 35.384C429.386 35.8427 430.069 36.072 430.943 36.072ZM439.198 25.8H440.542L438.75 33.64H437.87L439.198 25.8ZM437.758 37.08C437.534 37.08 437.342 37.0053 437.182 36.856C437.022 36.696 436.942 36.5093 436.942 36.296C436.942 36.0507 437.022 35.848 437.182 35.688C437.353 35.5173 437.561 35.432 437.806 35.432C438.041 35.432 438.233 35.5067 438.382 35.656C438.542 35.8053 438.622 35.9867 438.622 36.2C438.622 36.4453 438.537 36.6533 438.366 36.824C438.206 36.9947 438.004 37.08 437.758 37.08ZM266.818 49.8L264.578 61H263.618L258.258 51.72L256.402 61H255.234L257.474 49.8H258.434L263.794 59.08L265.65 49.8H266.818ZM269.674 52.584H270.81L269.146 61H268.01L269.674 52.584ZM270.73 50.744C270.506 50.744 270.319 50.6693 270.17 50.52C270.031 50.3707 269.962 50.1947 269.962 49.992C269.962 49.7467 270.042 49.544 270.202 49.384C270.372 49.2133 270.586 49.128 270.842 49.128C271.066 49.128 271.252 49.2027 271.402 49.352C271.551 49.4907 271.626 49.656 271.626 49.848C271.626 50.104 271.54 50.3173 271.37 50.488C271.199 50.6587 270.986 50.744 270.73 50.744ZM273.363 57.112C273.352 57.1867 273.347 57.2987 273.347 57.448C273.347 58.3013 273.587 58.952 274.067 59.4C274.557 59.848 275.283 60.072 276.243 60.072C276.797 60.072 277.315 59.9813 277.795 59.8C278.285 59.608 278.685 59.3467 278.995 59.016L279.507 59.832C279.112 60.2267 278.616 60.536 278.019 60.76C277.432 60.9733 276.808 61.08 276.147 61.08C274.931 61.08 273.971 60.76 273.267 60.12C272.573 59.48 272.227 58.6053 272.227 57.496C272.227 56.5573 272.424 55.7093 272.819 54.952C273.224 54.1947 273.779 53.6027 274.483 53.176C275.197 52.7387 275.997 52.52 276.883 52.52C278.003 52.52 278.893 52.84 279.555 53.48C280.216 54.1093 280.547 54.9787 280.547 56.088C280.547 56.3973 280.509 56.7387 280.435 57.112H273.363ZM276.851 53.48C276.008 53.48 275.288 53.7307 274.691 54.232C274.093 54.7333 273.688 55.4107 273.475 56.264H279.475C279.485 56.1893 279.491 56.088 279.491 55.96C279.491 55.1707 279.251 54.5627 278.771 54.136C278.291 53.6987 277.651 53.48 276.851 53.48ZM289.958 61.08C289.169 61.08 288.481 60.936 287.894 60.648C287.308 60.3493 286.854 59.9333 286.534 59.4C286.225 58.856 286.07 58.2267 286.07 57.512C286.07 56.5627 286.278 55.7093 286.694 54.952C287.11 54.1947 287.692 53.6027 288.438 53.176C289.185 52.7387 290.028 52.52 290.966 52.52C291.745 52.52 292.412 52.664 292.966 52.952C293.532 53.2293 293.969 53.6453 294.278 54.2L293.318 54.76C292.838 53.928 292.022 53.512 290.87 53.512C290.177 53.512 289.548 53.6827 288.982 54.024C288.428 54.3653 287.99 54.8347 287.67 55.432C287.361 56.0293 287.206 56.7067 287.206 57.464C287.206 58.2853 287.446 58.9253 287.926 59.384C288.417 59.8427 289.11 60.072 290.006 60.072C290.55 60.072 291.052 59.9707 291.51 59.768C291.98 59.5547 292.364 59.2507 292.662 58.856L293.478 59.48C293.105 59.9813 292.604 60.376 291.974 60.664C291.356 60.9413 290.684 61.08 289.958 61.08ZM300.817 52.52C301.766 52.52 302.502 52.7653 303.025 53.256C303.558 53.736 303.825 54.4027 303.825 55.256C303.825 55.5547 303.793 55.8747 303.729 56.216L302.769 61H301.633L302.593 56.2C302.646 55.9013 302.673 55.6453 302.673 55.432C302.673 54.824 302.486 54.36 302.113 54.04C301.75 53.7093 301.212 53.544 300.497 53.544C299.59 53.544 298.844 53.7947 298.257 54.296C297.67 54.7867 297.276 55.5173 297.073 56.488L296.177 61H295.041L297.409 49.128H298.545L297.601 53.848C298.38 52.9627 299.452 52.52 300.817 52.52ZM309.708 61.08C308.919 61.08 308.231 60.936 307.644 60.648C307.058 60.3493 306.604 59.9333 306.284 59.4C305.975 58.856 305.82 58.2267 305.82 57.512C305.82 56.5627 306.028 55.7093 306.444 54.952C306.86 54.1947 307.442 53.6027 308.188 53.176C308.935 52.7387 309.778 52.52 310.716 52.52C311.495 52.52 312.162 52.664 312.716 52.952C313.282 53.2293 313.719 53.6453 314.028 54.2L313.068 54.76C312.588 53.928 311.772 53.512 310.62 53.512C309.927 53.512 309.298 53.6827 308.732 54.024C308.178 54.3653 307.74 54.8347 307.42 55.432C307.111 56.0293 306.956 56.7067 306.956 57.464C306.956 58.2853 307.196 58.9253 307.676 59.384C308.167 59.8427 308.86 60.072 309.756 60.072C310.3 60.072 310.802 59.9707 311.26 59.768C311.73 59.5547 312.114 59.2507 312.412 58.856L313.228 59.48C312.855 59.9813 312.354 60.376 311.724 60.664C311.106 60.9413 310.434 61.08 309.708 61.08ZM315.831 57.112C315.821 57.1867 315.815 57.2987 315.815 57.448C315.815 58.3013 316.061 58.952 316.551 59.4C317.042 59.848 317.767 60.072 318.727 60.072C319.293 60.072 319.815 59.9813 320.295 59.8C320.775 59.608 321.17 59.3467 321.479 59.016L321.991 59.832C321.799 60.024 321.565 60.2053 321.287 60.376C320.423 60.8987 319.794 61.3733 319.399 61.8C319.015 62.2373 318.823 62.6533 318.823 63.048C318.823 63.304 318.898 63.496 319.047 63.624C319.197 63.752 319.399 63.816 319.655 63.816C320.018 63.816 320.37 63.7147 320.711 63.512L320.871 64.136C320.445 64.392 319.981 64.52 319.479 64.52C319.042 64.52 318.685 64.4027 318.407 64.168C318.141 63.9333 318.007 63.6133 318.007 63.208C318.007 62.4293 318.455 61.6987 319.351 61.016C319.127 61.0587 318.887 61.08 318.631 61.08C317.415 61.08 316.455 60.76 315.751 60.12C315.047 59.48 314.695 58.6053 314.695 57.496C314.695 56.5573 314.898 55.7093 315.303 54.952C315.709 54.1947 316.263 53.6027 316.967 53.176C317.682 52.7387 318.482 52.52 319.367 52.52C320.487 52.52 321.378 52.84 322.039 53.48C322.701 54.1093 323.031 54.9787 323.031 56.088C323.031 56.4507 322.999 56.792 322.935 57.112H315.831ZM319.319 53.48C318.477 53.48 317.757 53.7307 317.159 54.232C316.562 54.7333 316.157 55.4107 315.943 56.264H321.959C321.97 56.1893 321.975 56.088 321.975 55.96C321.975 55.1707 321.735 54.5627 321.255 54.136C320.775 53.6987 320.13 53.48 319.319 53.48ZM334.379 52.52C335.094 52.52 335.729 52.664 336.283 52.952C336.849 53.24 337.286 53.6507 337.595 54.184C337.905 54.7173 338.059 55.3467 338.059 56.072C338.059 57.0213 337.851 57.88 337.435 58.648C337.03 59.4053 336.465 60.0027 335.739 60.44C335.014 60.8667 334.198 61.08 333.291 61.08C332.491 61.08 331.819 60.9253 331.275 60.616C330.731 60.296 330.337 59.8373 330.091 59.24L329.131 64.104H327.995L330.283 52.584H331.371L331.099 53.928C331.505 53.4693 331.985 53.1227 332.539 52.888C333.094 52.6427 333.707 52.52 334.379 52.52ZM333.275 60.072C333.969 60.072 334.587 59.9067 335.131 59.576C335.686 59.2347 336.118 58.7653 336.427 58.168C336.747 57.5707 336.907 56.8933 336.907 56.136C336.907 55.3147 336.662 54.6747 336.171 54.216C335.691 53.7467 335.014 53.512 334.139 53.512C333.446 53.512 332.822 53.6827 332.267 54.024C331.723 54.3547 331.291 54.824 330.971 55.432C330.662 56.0293 330.507 56.7067 330.507 57.464C330.507 58.2853 330.747 58.9253 331.227 59.384C331.718 59.8427 332.401 60.072 333.275 60.072ZM341.911 61.08C341.239 61.08 340.594 60.984 339.975 60.792C339.367 60.6 338.898 60.3547 338.567 60.056L339.111 59.16C339.431 59.4373 339.852 59.6613 340.375 59.832C340.898 60.0027 341.447 60.088 342.023 60.088C342.823 60.088 343.436 59.96 343.863 59.704C344.3 59.4373 344.519 59.064 344.519 58.584C344.519 58.3173 344.428 58.104 344.247 57.944C344.076 57.784 343.863 57.6613 343.607 57.576C343.351 57.4907 342.978 57.3947 342.487 57.288C341.9 57.16 341.426 57.032 341.063 56.904C340.7 56.776 340.391 56.5733 340.135 56.296C339.879 56.0187 339.751 55.6347 339.751 55.144C339.751 54.344 340.082 53.7093 340.743 53.24C341.404 52.76 342.29 52.52 343.399 52.52C343.943 52.52 344.471 52.5947 344.983 52.744C345.506 52.8827 345.927 53.0693 346.247 53.304L345.767 54.216C345.447 53.9813 345.068 53.8053 344.631 53.688C344.204 53.56 343.762 53.496 343.303 53.496C342.535 53.496 341.938 53.6347 341.511 53.912C341.084 54.1893 340.871 54.5627 340.871 55.032C340.871 55.3093 340.962 55.5333 341.143 55.704C341.324 55.8747 341.548 56.0027 341.815 56.088C342.092 56.1733 342.466 56.264 342.935 56.36C343.511 56.488 343.975 56.616 344.327 56.744C344.69 56.8613 344.999 57.0587 345.255 57.336C345.511 57.6133 345.639 57.9867 345.639 58.456C345.639 59.2773 345.298 59.9227 344.615 60.392C343.943 60.8507 343.042 61.08 341.911 61.08ZM356.555 52.584L354.875 61H353.787L354.059 59.656C353.27 60.6053 352.187 61.08 350.811 61.08C349.872 61.08 349.136 60.84 348.603 60.36C348.08 59.8693 347.819 59.192 347.819 58.328C347.819 58.0293 347.851 57.7147 347.915 57.384L348.875 52.584H350.011L349.051 57.384C348.998 57.6827 348.971 57.9333 348.971 58.136C348.971 58.7547 349.147 59.2293 349.499 59.56C349.862 59.8907 350.4 60.056 351.115 60.056C352.011 60.056 352.752 59.8053 353.339 59.304C353.926 58.8027 354.32 58.072 354.523 57.112L355.419 52.584H356.555ZM361.865 61.08C361.075 61.08 360.387 60.936 359.801 60.648C359.214 60.3493 358.761 59.9333 358.441 59.4C358.131 58.856 357.977 58.2267 357.977 57.512C357.977 56.5627 358.185 55.7093 358.601 54.952C359.017 54.1947 359.598 53.6027 360.345 53.176C361.091 52.7387 361.934 52.52 362.873 52.52C363.651 52.52 364.318 52.664 364.873 52.952C365.438 53.2293 365.875 53.6453 366.185 54.2L365.225 54.76C364.745 53.928 363.929 53.512 362.777 53.512C362.083 53.512 361.454 53.6827 360.889 54.024C360.334 54.3653 359.897 54.8347 359.577 55.432C359.267 56.0293 359.113 56.7067 359.113 57.464C359.113 58.2853 359.353 58.9253 359.833 59.384C360.323 59.8427 361.017 60.072 361.913 60.072C362.457 60.072 362.958 59.9707 363.417 59.768C363.886 59.5547 364.27 59.2507 364.569 58.856L365.385 59.48C365.011 59.9813 364.51 60.376 363.881 60.664C363.262 60.9413 362.59 61.08 361.865 61.08ZM364.537 49.288H366.089L363.289 51.272H362.105L364.537 49.288ZM385.356 52.584L380.604 61H379.5L378.092 54.12L374.156 61H373.068L371.42 52.584H372.46L373.82 59.72L377.884 52.584H378.844L380.252 59.72L384.252 52.584H385.356ZM394.448 52.584L392.768 61H391.68L391.952 59.672C391.547 60.12 391.067 60.4667 390.512 60.712C389.957 60.9573 389.344 61.08 388.672 61.08C387.957 61.08 387.323 60.936 386.768 60.648C386.213 60.36 385.781 59.9493 385.472 59.416C385.163 58.872 385.008 58.2373 385.008 57.512C385.008 56.5627 385.211 55.7093 385.616 54.952C386.032 54.1947 386.603 53.6027 387.328 53.176C388.053 52.7387 388.864 52.52 389.76 52.52C390.56 52.52 391.232 52.68 391.776 53C392.32 53.3093 392.715 53.7573 392.96 54.344L393.312 52.584H394.448ZM388.912 60.072C389.605 60.072 390.229 59.9067 390.784 59.576C391.339 59.2347 391.771 58.7653 392.08 58.168C392.4 57.56 392.56 56.8827 392.56 56.136C392.56 55.3147 392.315 54.6747 391.824 54.216C391.344 53.7467 390.667 53.512 389.792 53.512C389.099 53.512 388.475 53.6827 387.92 54.024C387.365 54.3653 386.928 54.84 386.608 55.448C386.299 56.0453 386.144 56.7173 386.144 57.464C386.144 58.2853 386.384 58.9253 386.864 59.384C387.355 59.8427 388.037 60.072 388.912 60.072ZM407.9 52.52C408.849 52.52 409.58 52.76 410.092 53.24C410.614 53.7093 410.876 54.3707 410.876 55.224C410.876 55.4693 410.838 55.8 410.764 56.216L409.804 61H408.668L409.628 56.2C409.681 55.9547 409.708 55.6933 409.708 55.416C409.708 54.8187 409.532 54.36 409.18 54.04C408.828 53.7093 408.31 53.544 407.628 53.544C406.774 53.544 406.065 53.784 405.5 54.264C404.934 54.7333 404.556 55.432 404.364 56.36L403.436 61H402.3L403.26 56.2C403.313 55.9013 403.34 55.6453 403.34 55.432C403.34 54.824 403.164 54.36 402.812 54.04C402.47 53.7093 401.953 53.544 401.26 53.544C400.396 53.544 399.681 53.7947 399.116 54.296C398.55 54.7867 398.166 55.5173 397.964 56.488L397.068 61H395.932L397.596 52.584H398.684L398.412 53.928C399.18 52.9893 400.241 52.52 401.596 52.52C402.3 52.52 402.886 52.664 403.356 52.952C403.836 53.24 404.166 53.656 404.348 54.2C404.764 53.6453 405.27 53.2293 405.868 52.952C406.476 52.664 407.153 52.52 407.9 52.52ZM422.048 50.008C421.547 50.008 421.152 50.1413 420.864 50.408C420.576 50.6747 420.373 51.0907 420.256 51.656L420.064 52.584H422.64L422.448 53.544H419.904L418.416 61H417.28L418.768 53.544H417.264L417.44 52.584H418.96L419.168 51.528C419.328 50.728 419.648 50.1147 420.128 49.688C420.619 49.2613 421.259 49.048 422.048 49.048C422.389 49.048 422.709 49.096 423.008 49.192C423.307 49.288 423.552 49.4213 423.744 49.592L423.248 50.424C422.939 50.1467 422.539 50.008 422.048 50.008ZM424.88 49.128H426.016L423.648 61H422.512L424.88 49.128ZM430.566 61.08C429.798 61.08 429.126 60.936 428.55 60.648C427.974 60.3493 427.526 59.9333 427.206 59.4C426.897 58.856 426.742 58.2267 426.742 57.512C426.742 56.5627 426.95 55.7093 427.366 54.952C427.782 54.1947 428.358 53.6027 429.094 53.176C429.841 52.7387 430.678 52.52 431.606 52.52C432.78 52.52 433.708 52.84 434.39 53.48C435.084 54.12 435.43 54.984 435.43 56.072C435.43 57.0213 435.222 57.88 434.806 58.648C434.39 59.4053 433.809 60.0027 433.062 60.44C432.326 60.8667 431.494 61.08 430.566 61.08ZM430.646 60.072C431.34 60.072 431.964 59.9067 432.518 59.576C433.073 59.2347 433.505 58.7653 433.814 58.168C434.134 57.56 434.294 56.8827 434.294 56.136C434.294 55.3147 434.049 54.6747 433.558 54.216C433.078 53.7467 432.401 53.512 431.526 53.512C430.833 53.512 430.209 53.6827 429.654 54.024C429.1 54.3653 428.662 54.84 428.342 55.448C428.033 56.0453 427.878 56.7173 427.878 57.464C427.878 58.2853 428.118 58.9253 428.598 59.384C429.089 59.8427 429.772 60.072 430.646 60.072ZM450.715 52.584L445.963 61H444.859L443.451 54.12L439.515 61H438.427L436.779 52.584H437.819L439.179 59.72L443.243 52.584H444.203L445.611 59.72L449.611 52.584H450.715ZM450.439 59.336C450.673 59.336 450.865 59.416 451.015 59.576C451.175 59.736 451.255 59.9333 451.255 60.168C451.255 60.3067 451.228 60.4347 451.175 60.552C451.132 60.6693 451.057 60.824 450.951 61.016L449.735 63.336H448.967L449.991 60.984C449.852 60.92 449.74 60.824 449.655 60.696C449.58 60.5573 449.543 60.408 449.543 60.248C449.543 59.992 449.628 59.7787 449.799 59.608C449.98 59.4267 450.193 59.336 450.439 59.336ZM467.073 52.584L465.393 61H464.305L464.577 59.672C464.172 60.12 463.692 60.4667 463.137 60.712C462.582 60.9573 461.969 61.08 461.297 61.08C460.582 61.08 459.948 60.936 459.393 60.648C458.838 60.36 458.406 59.9493 458.097 59.416C457.788 58.872 457.633 58.2373 457.633 57.512C457.633 56.5627 457.836 55.7093 458.241 54.952C458.657 54.1947 459.228 53.6027 459.953 53.176C460.678 52.7387 461.489 52.52 462.385 52.52C463.185 52.52 463.857 52.68 464.401 53C464.945 53.3093 465.34 53.7573 465.585 54.344L465.937 52.584H467.073ZM461.537 60.072C462.23 60.072 462.854 59.9067 463.409 59.576C463.964 59.2347 464.396 58.7653 464.705 58.168C465.025 57.56 465.185 56.8827 465.185 56.136C465.185 55.3147 464.94 54.6747 464.449 54.216C463.969 53.7467 463.292 53.512 462.417 53.512C461.724 53.512 461.1 53.6827 460.545 54.024C459.99 54.3653 459.553 54.84 459.233 55.448C458.924 56.0453 458.769 56.7173 458.769 57.464C458.769 58.2853 459.009 58.9253 459.489 59.384C459.98 59.8427 460.662 60.072 461.537 60.072ZM470.925 49.128H472.061L469.693 61H468.557L470.925 49.128ZM473.91 57.112C473.899 57.1867 473.894 57.2987 473.894 57.448C473.894 58.3013 474.134 58.952 474.614 59.4C475.104 59.848 475.83 60.072 476.79 60.072C477.344 60.072 477.862 59.9813 478.342 59.8C478.832 59.608 479.232 59.3467 479.542 59.016L480.054 59.832C479.659 60.2267 479.163 60.536 478.566 60.76C477.979 60.9733 477.355 61.08 476.694 61.08C475.478 61.08 474.518 60.76 473.814 60.12C473.12 59.48 472.774 58.6053 472.774 57.496C472.774 56.5573 472.971 55.7093 473.366 54.952C473.771 54.1947 474.326 53.6027 475.03 53.176C475.744 52.7387 476.544 52.52 477.43 52.52C478.55 52.52 479.44 52.84 480.102 53.48C480.763 54.1093 481.094 54.9787 481.094 56.088C481.094 56.3973 481.056 56.7387 480.982 57.112H473.91ZM477.398 53.48C476.555 53.48 475.835 53.7307 475.238 54.232C474.64 54.7333 474.235 55.4107 474.022 56.264H480.022C480.032 56.1893 480.038 56.088 480.038 55.96C480.038 55.1707 479.798 54.5627 479.318 54.136C478.838 53.6987 478.198 53.48 477.398 53.48ZM490.505 61.08C489.716 61.08 489.028 60.936 488.441 60.648C487.855 60.3493 487.401 59.9333 487.081 59.4C486.772 58.856 486.617 58.2267 486.617 57.512C486.617 56.5627 486.825 55.7093 487.241 54.952C487.657 54.1947 488.239 53.6027 488.985 53.176C489.732 52.7387 490.575 52.52 491.513 52.52C492.292 52.52 492.959 52.664 493.513 52.952C494.079 53.2293 494.516 53.6453 494.825 54.2L493.865 54.76C493.385 53.928 492.569 53.512 491.417 53.512C490.724 53.512 490.095 53.6827 489.529 54.024C488.975 54.3653 488.537 54.8347 488.217 55.432C487.908 56.0293 487.753 56.7067 487.753 57.464C487.753 58.2853 487.993 58.9253 488.473 59.384C488.964 59.8427 489.657 60.072 490.553 60.072C491.097 60.072 491.599 59.9707 492.057 59.768C492.527 59.5547 492.911 59.2507 493.209 58.856L494.025 59.48C493.652 59.9813 493.151 60.376 492.521 60.664C491.903 60.9413 491.231 61.08 490.505 61.08ZM501.364 52.52C502.313 52.52 503.049 52.7653 503.572 53.256C504.105 53.736 504.372 54.4027 504.372 55.256C504.372 55.5547 504.34 55.8747 504.276 56.216L503.316 61H502.18L503.14 56.2C503.193 55.9013 503.22 55.6453 503.22 55.432C503.22 54.824 503.033 54.36 502.66 54.04C502.297 53.7093 501.759 53.544 501.044 53.544C500.137 53.544 499.391 53.7947 498.804 54.296C498.217 54.7867 497.823 55.5173 497.62 56.488L496.724 61H495.588L497.956 49.128H499.092L498.148 53.848C498.927 52.9627 499.999 52.52 501.364 52.52ZM510.255 61.08C509.466 61.08 508.778 60.936 508.191 60.648C507.605 60.3493 507.151 59.9333 506.831 59.4C506.522 58.856 506.367 58.2267 506.367 57.512C506.367 56.5627 506.575 55.7093 506.991 54.952C507.407 54.1947 507.989 53.6027 508.735 53.176C509.482 52.7387 510.325 52.52 511.263 52.52C512.042 52.52 512.709 52.664 513.263 52.952C513.829 53.2293 514.266 53.6453 514.575 54.2L513.615 54.76C513.135 53.928 512.319 53.512 511.167 53.512C510.474 53.512 509.845 53.6827 509.279 54.024C508.725 54.3653 508.287 54.8347 507.967 55.432C507.658 56.0293 507.503 56.7067 507.503 57.464C507.503 58.2853 507.743 58.9253 508.223 59.384C508.714 59.8427 509.407 60.072 510.303 60.072C510.847 60.072 511.349 59.9707 511.807 59.768C512.277 59.5547 512.661 59.2507 512.959 58.856L513.775 59.48C513.402 59.9813 512.901 60.376 512.271 60.664C511.653 60.9413 510.981 61.08 510.255 61.08ZM517.127 52.584H518.263L516.599 61H515.463L517.127 52.584ZM518.183 50.744C517.959 50.744 517.772 50.6693 517.623 50.52C517.484 50.3707 517.415 50.1947 517.415 49.992C517.415 49.7467 517.495 49.544 517.655 49.384C517.826 49.2133 518.039 49.128 518.295 49.128C518.519 49.128 518.706 49.2027 518.855 49.352C519.004 49.4907 519.079 49.656 519.079 49.848C519.079 50.104 518.994 50.3173 518.823 50.488C518.652 50.6587 518.439 50.744 518.183 50.744ZM529.12 52.584L527.44 61H526.352L526.624 59.672C526.218 60.12 525.738 60.4667 525.184 60.712C524.629 60.9573 524.016 61.08 523.344 61.08C522.629 61.08 521.994 60.936 521.44 60.648C520.885 60.36 520.453 59.9493 520.144 59.416C519.834 58.872 519.68 58.2373 519.68 57.512C519.68 56.5627 519.882 55.7093 520.288 54.952C520.704 54.1947 521.274 53.6027 522 53.176C522.725 52.7387 523.536 52.52 524.432 52.52C525.232 52.52 525.904 52.68 526.448 53C526.992 53.3093 527.386 53.7573 527.632 54.344L527.984 52.584H529.12ZM523.584 60.072C524.277 60.072 524.901 59.9067 525.456 59.576C526.01 59.2347 526.442 58.7653 526.752 58.168C527.072 57.56 527.232 56.8827 527.232 56.136C527.232 55.3147 526.986 54.6747 526.496 54.216C526.016 53.7467 525.338 53.512 524.464 53.512C523.77 53.512 523.146 53.6827 522.592 54.024C522.037 54.3653 521.6 54.84 521.28 55.448C520.97 56.0453 520.816 56.7173 520.816 57.464C520.816 58.2853 521.056 58.9253 521.536 59.384C522.026 59.8427 522.709 60.072 523.584 60.072ZM533.052 49.128H534.188L531.82 61H530.684L533.052 49.128ZM529.932 56.408L534.396 53.48L534.844 54.216L530.396 57.128L529.932 56.408ZM540.832 52.52C541.547 52.52 542.182 52.664 542.736 52.952C543.302 53.24 543.739 53.6507 544.048 54.184C544.358 54.7173 544.512 55.3467 544.512 56.072C544.512 57.0213 544.304 57.88 543.888 58.648C543.483 59.4053 542.918 60.0027 542.192 60.44C541.467 60.8667 540.651 61.08 539.744 61.08C538.934 61.08 538.251 60.9147 537.696 60.584C537.152 60.2533 536.763 59.7787 536.528 59.16L536.16 61H535.072L537.44 49.128H538.576L537.632 53.848C538.038 53.4213 538.507 53.096 539.04 52.872C539.584 52.6373 540.182 52.52 540.832 52.52ZM539.728 60.072C540.422 60.072 541.04 59.9067 541.584 59.576C542.139 59.2347 542.571 58.7653 542.88 58.168C543.2 57.5707 543.36 56.8933 543.36 56.136C543.36 55.3147 543.115 54.6747 542.624 54.216C542.144 53.7467 541.467 53.512 540.592 53.512C539.899 53.512 539.275 53.6827 538.72 54.024C538.176 54.3547 537.744 54.824 537.424 55.432C537.115 56.0293 536.96 56.7067 536.96 57.464C536.96 58.2853 537.2 58.9253 537.68 59.384C538.171 59.8427 538.854 60.072 539.728 60.072ZM554.434 52.584L548.29 62.088C547.778 62.8773 547.298 63.4213 546.85 63.72C546.402 64.0293 545.868 64.184 545.25 64.184C544.844 64.184 544.46 64.1147 544.098 63.976C543.735 63.848 543.452 63.6667 543.25 63.432L543.858 62.6C544.242 63.0053 544.738 63.208 545.346 63.208C545.719 63.208 546.055 63.1067 546.354 62.904C546.652 62.7013 546.962 62.3493 547.282 61.848L547.874 60.952L545.778 52.584H546.93L548.674 59.752L553.266 52.584H554.434ZM566.322 52.52C567.271 52.52 568.002 52.76 568.514 53.24C569.036 53.7093 569.298 54.3707 569.298 55.224C569.298 55.4693 569.26 55.8 569.186 56.216L568.226 61H567.09L568.05 56.2C568.103 55.9547 568.13 55.6933 568.13 55.416C568.13 54.8187 567.954 54.36 567.602 54.04C567.25 53.7093 566.732 53.544 566.05 53.544C565.196 53.544 564.487 53.784 563.922 54.264C563.356 54.7333 562.978 55.432 562.786 56.36L561.858 61H560.722L561.682 56.2C561.735 55.9013 561.762 55.6453 561.762 55.432C561.762 54.824 561.586 54.36 561.234 54.04C560.892 53.7093 560.375 53.544 559.682 53.544C558.818 53.544 558.103 53.7947 557.538 54.296C556.972 54.7867 556.588 55.5173 556.386 56.488L555.49 61H554.354L556.018 52.584H557.106L556.834 53.928C557.602 52.9893 558.663 52.52 560.018 52.52C560.722 52.52 561.308 52.664 561.778 52.952C562.258 53.24 562.588 53.656 562.77 54.2C563.186 53.6453 563.692 53.2293 564.29 52.952C564.898 52.664 565.575 52.52 566.322 52.52ZM254.131 73.8L248.115 85H246.867L245.491 75.496L240.275 85H239.027L237.491 73.8H238.659L239.987 83.448L245.251 73.8H246.355L247.715 83.464L252.947 73.8H254.131ZM262.542 76.584L260.862 85H259.774L260.046 83.672C259.64 84.12 259.16 84.4667 258.606 84.712C258.051 84.9573 257.438 85.08 256.766 85.08C256.051 85.08 255.416 84.936 254.862 84.648C254.307 84.36 253.875 83.9493 253.566 83.416C253.256 82.872 253.102 82.2373 253.102 81.512C253.102 80.5627 253.304 79.7093 253.71 78.952C254.126 78.1947 254.696 77.6027 255.422 77.176C256.147 76.7387 256.958 76.52 257.854 76.52C258.654 76.52 259.326 76.68 259.87 77C260.414 77.3093 260.808 77.7573 261.054 78.344L261.406 76.584H262.542ZM257.006 84.072C257.699 84.072 258.323 83.9067 258.878 83.576C259.432 83.2347 259.864 82.7653 260.174 82.168C260.494 81.56 260.654 80.8827 260.654 80.136C260.654 79.3147 260.408 78.6747 259.918 78.216C259.438 77.7467 258.76 77.512 257.886 77.512C257.192 77.512 256.568 77.6827 256.014 78.024C255.459 78.3653 255.022 78.84 254.702 79.448C254.392 80.0453 254.238 80.7173 254.238 81.464C254.238 82.2853 254.478 82.9253 254.958 83.384C255.448 83.8427 256.131 84.072 257.006 84.072ZM275.993 76.52C276.943 76.52 277.673 76.76 278.185 77.24C278.708 77.7093 278.969 78.3707 278.969 79.224C278.969 79.4693 278.932 79.8 278.857 80.216L277.897 85H276.761L277.721 80.2C277.775 79.9547 277.801 79.6933 277.801 79.416C277.801 78.8187 277.625 78.36 277.273 78.04C276.921 77.7093 276.404 77.544 275.721 77.544C274.868 77.544 274.159 77.784 273.593 78.264C273.028 78.7333 272.649 79.432 272.457 80.36L271.529 85H270.393L271.353 80.2C271.407 79.9013 271.433 79.6453 271.433 79.432C271.433 78.824 271.257 78.36 270.905 78.04C270.564 77.7093 270.047 77.544 269.353 77.544C268.489 77.544 267.775 77.7947 267.209 78.296C266.644 78.7867 266.26 79.5173 266.057 80.488L265.161 85H264.025L265.689 76.584H266.777L266.505 77.928C267.273 76.9893 268.335 76.52 269.689 76.52C270.393 76.52 270.98 76.664 271.449 76.952C271.929 77.24 272.26 77.656 272.441 78.2C272.857 77.6453 273.364 77.2293 273.961 76.952C274.569 76.664 275.247 76.52 275.993 76.52ZM290.942 76.52C291.656 76.52 292.291 76.664 292.846 76.952C293.411 77.24 293.848 77.6507 294.158 78.184C294.467 78.7173 294.622 79.3467 294.622 80.072C294.622 81.0213 294.414 81.88 293.998 82.648C293.592 83.4053 293.027 84.0027 292.302 84.44C291.576 84.8667 290.76 85.08 289.854 85.08C289.054 85.08 288.382 84.9253 287.838 84.616C287.294 84.296 286.899 83.8373 286.654 83.24L285.694 88.104H284.558L286.846 76.584H287.934L287.662 77.928C288.067 77.4693 288.547 77.1227 289.102 76.888C289.656 76.6427 290.27 76.52 290.942 76.52ZM289.838 84.072C290.531 84.072 291.15 83.9067 291.694 83.576C292.248 83.2347 292.68 82.7653 292.99 82.168C293.31 81.5707 293.47 80.8933 293.47 80.136C293.47 79.3147 293.224 78.6747 292.734 78.216C292.254 77.7467 291.576 77.512 290.702 77.512C290.008 77.512 289.384 77.6827 288.83 78.024C288.286 78.3547 287.854 78.824 287.534 79.432C287.224 80.0293 287.07 80.7067 287.07 81.464C287.07 82.2853 287.31 82.9253 287.79 83.384C288.28 83.8427 288.963 84.072 289.838 84.072ZM298.489 78.12C298.863 77.576 299.332 77.176 299.897 76.92C300.463 76.6533 301.145 76.52 301.945 76.52L301.737 77.624L301.417 77.608C300.511 77.608 299.764 77.8693 299.177 78.392C298.601 78.9147 298.212 79.6933 298.009 80.728L297.161 85H296.025L297.689 76.584H298.777L298.489 78.12ZM309.791 77.336L303.231 84.056H308.559L308.367 85H301.519L301.663 84.248L308.223 77.544H303.119L303.311 76.584H309.951L309.791 77.336ZM319.215 76.584L313.071 86.088C312.559 86.8773 312.079 87.4213 311.631 87.72C311.183 88.0293 310.65 88.184 310.031 88.184C309.626 88.184 309.242 88.1147 308.879 87.976C308.516 87.848 308.234 87.6667 308.031 87.432L308.639 86.6C309.023 87.0053 309.519 87.208 310.127 87.208C310.5 87.208 310.836 87.1067 311.135 86.904C311.434 86.7013 311.743 86.3493 312.063 85.848L312.655 84.952L310.559 76.584H311.711L313.455 83.752L318.047 76.584H319.215ZM324.895 76.52C325.609 76.52 326.244 76.664 326.799 76.952C327.364 77.24 327.801 77.6507 328.111 78.184C328.42 78.7173 328.575 79.3467 328.575 80.072C328.575 81.0213 328.367 81.88 327.951 82.648C327.545 83.4053 326.98 84.0027 326.255 84.44C325.529 84.8667 324.713 85.08 323.807 85.08C323.007 85.08 322.335 84.9253 321.791 84.616C321.247 84.296 320.852 83.8373 320.607 83.24L319.647 88.104H318.511L320.799 76.584H321.887L321.615 77.928C322.02 77.4693 322.5 77.1227 323.055 76.888C323.609 76.6427 324.223 76.52 324.895 76.52ZM323.791 84.072C324.484 84.072 325.103 83.9067 325.647 83.576C326.201 83.2347 326.633 82.7653 326.943 82.168C327.263 81.5707 327.423 80.8933 327.423 80.136C327.423 79.3147 327.177 78.6747 326.687 78.216C326.207 77.7467 325.529 77.512 324.655 77.512C323.961 77.512 323.337 77.6827 322.783 78.024C322.239 78.3547 321.807 78.824 321.487 79.432C321.177 80.0293 321.023 80.7067 321.023 81.464C321.023 82.2853 321.263 82.9253 321.743 83.384C322.233 83.8427 322.916 84.072 323.791 84.072ZM333.723 85.08C332.955 85.08 332.283 84.936 331.707 84.648C331.131 84.3493 330.683 83.9333 330.363 83.4C330.053 82.856 329.899 82.2267 329.899 81.512C329.899 80.5627 330.107 79.7093 330.523 78.952C330.939 78.1947 331.515 77.6027 332.251 77.176C332.997 76.7387 333.835 76.52 334.763 76.52C335.936 76.52 336.864 76.84 337.547 77.48C338.24 78.12 338.587 78.984 338.587 80.072C338.587 81.0213 338.379 81.88 337.963 82.648C337.547 83.4053 336.965 84.0027 336.219 84.44C335.483 84.8667 334.651 85.08 333.723 85.08ZM333.803 84.072C334.496 84.072 335.12 83.9067 335.675 83.576C336.229 83.2347 336.661 82.7653 336.971 82.168C337.291 81.56 337.451 80.8827 337.451 80.136C337.451 79.3147 337.205 78.6747 336.715 78.216C336.235 77.7467 335.557 77.512 334.683 77.512C333.989 77.512 333.365 77.6827 332.811 78.024C332.256 78.3653 331.819 78.84 331.499 79.448C331.189 80.0453 331.035 80.7173 331.035 81.464C331.035 82.2853 331.275 82.9253 331.755 83.384C332.245 83.8427 332.928 84.072 333.803 84.072ZM351.978 76.52C352.927 76.52 353.658 76.76 354.17 77.24C354.692 77.7093 354.954 78.3707 354.954 79.224C354.954 79.4693 354.916 79.8 354.842 80.216L353.882 85H352.746L353.706 80.2C353.759 79.9547 353.786 79.6933 353.786 79.416C353.786 78.8187 353.61 78.36 353.258 78.04C352.906 77.7093 352.388 77.544 351.706 77.544C350.852 77.544 350.143 77.784 349.578 78.264C349.012 78.7333 348.634 79.432 348.442 80.36L347.514 85H346.378L347.338 80.2C347.391 79.9013 347.418 79.6453 347.418 79.432C347.418 78.824 347.242 78.36 346.89 78.04C346.548 77.7093 346.031 77.544 345.338 77.544C344.474 77.544 343.759 77.7947 343.194 78.296C342.628 78.7867 342.244 79.5173 342.042 80.488L341.146 85H340.01L341.674 76.584H342.762L342.49 77.928C343.258 76.9893 344.319 76.52 345.674 76.52C346.378 76.52 346.964 76.664 347.434 76.952C347.914 77.24 348.244 77.656 348.426 78.2C348.842 77.6453 349.348 77.2293 349.946 76.952C350.554 76.664 351.231 76.52 351.978 76.52ZM362.755 76.52C363.704 76.52 364.44 76.7653 364.963 77.256C365.496 77.736 365.763 78.4027 365.763 79.256C365.763 79.5547 365.731 79.8747 365.667 80.216L364.707 85H363.571L364.531 80.2C364.584 79.9013 364.611 79.6453 364.611 79.432C364.611 78.824 364.424 78.36 364.051 78.04C363.688 77.7093 363.149 77.544 362.435 77.544C361.528 77.544 360.781 77.7947 360.195 78.296C359.608 78.7867 359.213 79.5173 359.011 80.488L358.115 85H356.979L358.643 76.584H359.731L359.459 77.928C360.259 76.9893 361.357 76.52 362.755 76.52ZM369.471 76.584H370.607L368.943 85H367.807L369.471 76.584ZM370.527 74.744C370.303 74.744 370.116 74.6693 369.967 74.52C369.828 74.3707 369.759 74.1947 369.759 73.992C369.759 73.7467 369.839 73.544 369.999 73.384C370.169 73.2133 370.383 73.128 370.639 73.128C370.863 73.128 371.049 73.2027 371.199 73.352C371.348 73.4907 371.423 73.656 371.423 73.848C371.423 74.104 371.337 74.3173 371.167 74.488C370.996 74.6587 370.783 74.744 370.527 74.744ZM373.16 81.112C373.149 81.1867 373.144 81.2987 373.144 81.448C373.144 82.3013 373.384 82.952 373.864 83.4C374.354 83.848 375.08 84.072 376.04 84.072C376.594 84.072 377.112 83.9813 377.592 83.8C378.082 83.608 378.482 83.3467 378.792 83.016L379.304 83.832C378.909 84.2267 378.413 84.536 377.816 84.76C377.229 84.9733 376.605 85.08 375.944 85.08C374.728 85.08 373.768 84.76 373.064 84.12C372.37 83.48 372.024 82.6053 372.024 81.496C372.024 80.5573 372.221 79.7093 372.616 78.952C373.021 78.1947 373.576 77.6027 374.28 77.176C374.994 76.7387 375.794 76.52 376.68 76.52C377.8 76.52 378.69 76.84 379.352 77.48C380.013 78.1093 380.344 78.9787 380.344 80.088C380.344 80.3973 380.306 80.7387 380.232 81.112H373.16ZM376.648 77.48C375.805 77.48 375.085 77.7307 374.488 78.232C373.89 78.7333 373.485 79.4107 373.272 80.264H379.272C379.282 80.1893 379.288 80.088 379.288 79.96C379.288 79.1707 379.048 78.5627 378.568 78.136C378.088 77.6987 377.448 77.48 376.648 77.48ZM385.568 85.08C384.778 85.08 384.09 84.936 383.504 84.648C382.917 84.3493 382.464 83.9333 382.144 83.4C381.834 82.856 381.68 82.2267 381.68 81.512C381.68 80.5627 381.888 79.7093 382.304 78.952C382.72 78.1947 383.301 77.6027 384.048 77.176C384.794 76.7387 385.637 76.52 386.576 76.52C387.354 76.52 388.021 76.664 388.576 76.952C389.141 77.2293 389.578 77.6453 389.888 78.2L388.928 78.76C388.448 77.928 387.632 77.512 386.48 77.512C385.786 77.512 385.157 77.6827 384.592 78.024C384.037 78.3653 383.6 78.8347 383.28 79.432C382.97 80.0293 382.816 80.7067 382.816 81.464C382.816 82.2853 383.056 82.9253 383.536 83.384C384.026 83.8427 384.72 84.072 385.616 84.072C386.16 84.072 386.661 83.9707 387.12 83.768C387.589 83.5547 387.973 83.2507 388.272 82.856L389.088 83.48C388.714 83.9813 388.213 84.376 387.584 84.664C386.965 84.9413 386.293 85.08 385.568 85.08ZM388.24 73.288H389.792L386.992 75.272H385.808L388.24 73.288ZM398.707 85.08C397.939 85.08 397.267 84.936 396.691 84.648C396.115 84.3493 395.667 83.9333 395.347 83.4C395.038 82.856 394.883 82.2267 394.883 81.512C394.883 80.5627 395.091 79.7093 395.507 78.952C395.923 78.1947 396.499 77.6027 397.235 77.176C397.982 76.7387 398.819 76.52 399.747 76.52C400.92 76.52 401.848 76.84 402.531 77.48C403.224 78.12 403.571 78.984 403.571 80.072C403.571 81.0213 403.363 81.88 402.947 82.648C402.531 83.4053 401.95 84.0027 401.203 84.44C400.467 84.8667 399.635 85.08 398.707 85.08ZM398.787 84.072C399.48 84.072 400.104 83.9067 400.659 83.576C401.214 83.2347 401.646 82.7653 401.955 82.168C402.275 81.56 402.435 80.8827 402.435 80.136C402.435 79.3147 402.19 78.6747 401.699 78.216C401.219 77.7467 400.542 77.512 399.667 77.512C398.974 77.512 398.35 77.6827 397.795 78.024C397.24 78.3653 396.803 78.84 396.483 79.448C396.174 80.0453 396.019 80.7173 396.019 81.464C396.019 82.2853 396.259 82.9253 396.739 83.384C397.23 83.8427 397.912 84.072 398.787 84.072ZM423.278 76.584L418.526 85H417.422L416.014 78.12L412.078 85H410.99L409.342 76.584H410.382L411.742 83.72L415.806 76.584H416.766L418.174 83.72L422.174 76.584H423.278ZM430.432 77.336L423.872 84.056H429.2L429.008 85H422.16L422.304 84.248L428.864 77.544H423.76L423.952 76.584H430.592L430.432 77.336ZM440.479 76.584L438.799 85H437.711L437.983 83.672C437.578 84.12 437.098 84.4667 436.543 84.712C435.989 84.9573 435.375 85.08 434.703 85.08C433.989 85.08 433.354 84.936 432.799 84.648C432.245 84.36 431.813 83.9493 431.503 83.416C431.194 82.872 431.039 82.2373 431.039 81.512C431.039 80.5627 431.242 79.7093 431.647 78.952C432.063 78.1947 432.634 77.6027 433.359 77.176C434.085 76.7387 434.895 76.52 435.791 76.52C436.591 76.52 437.263 76.68 437.807 77C438.351 77.3093 438.746 77.7573 438.991 78.344L439.343 76.584H440.479ZM434.943 84.072C435.637 84.072 436.261 83.9067 436.815 83.576C437.37 83.2347 437.802 82.7653 438.111 82.168C438.431 81.56 438.591 80.8827 438.591 80.136C438.591 79.3147 438.346 78.6747 437.855 78.216C437.375 77.7467 436.698 77.512 435.823 77.512C435.13 77.512 434.506 77.6827 433.951 78.024C433.397 78.3653 432.959 78.84 432.639 79.448C432.33 80.0453 432.175 80.7173 432.175 81.464C432.175 82.2853 432.415 82.9253 432.895 83.384C433.386 83.8427 434.069 84.072 434.943 84.072ZM440.203 88.184C439.84 88.184 439.51 88.136 439.211 88.04C438.902 87.9547 438.64 87.8267 438.427 87.656L438.955 86.776C439.275 87.064 439.696 87.208 440.219 87.208C440.678 87.208 441.046 87.08 441.323 86.824C441.6 86.568 441.792 86.1627 441.899 85.608L443.707 76.584H444.843L443.035 85.64C442.694 87.336 441.75 88.184 440.203 88.184ZM444.747 74.728C444.523 74.728 444.336 74.6533 444.187 74.504C444.048 74.3547 443.979 74.1787 443.979 73.976C443.979 73.7307 444.059 73.528 444.219 73.368C444.39 73.1973 444.603 73.112 444.859 73.112C445.083 73.112 445.27 73.1867 445.419 73.336C445.568 73.4747 445.643 73.64 445.643 73.832C445.643 74.088 445.558 74.3013 445.387 74.472C445.216 74.6427 445.003 74.728 444.747 74.728ZM447.41 81.112C447.399 81.1867 447.394 81.2987 447.394 81.448C447.394 82.3013 447.634 82.952 448.114 83.4C448.604 83.848 449.33 84.072 450.29 84.072C450.844 84.072 451.362 83.9813 451.842 83.8C452.332 83.608 452.732 83.3467 453.042 83.016L453.554 83.832C453.159 84.2267 452.663 84.536 452.066 84.76C451.479 84.9733 450.855 85.08 450.194 85.08C448.978 85.08 448.018 84.76 447.314 84.12C446.62 83.48 446.274 82.6053 446.274 81.496C446.274 80.5573 446.471 79.7093 446.866 78.952C447.271 78.1947 447.826 77.6027 448.53 77.176C449.244 76.7387 450.044 76.52 450.93 76.52C452.05 76.52 452.94 76.84 453.602 77.48C454.263 78.1093 454.594 78.9787 454.594 80.088C454.594 80.3973 454.556 80.7387 454.482 81.112H447.41ZM450.898 77.48C450.055 77.48 449.335 77.7307 448.738 78.232C448.14 78.7333 447.735 79.4107 447.522 80.264H453.522C453.532 80.1893 453.538 80.088 453.538 79.96C453.538 79.1707 453.298 78.5627 452.818 78.136C452.338 77.6987 451.698 77.48 450.898 77.48ZM467.978 76.52C468.927 76.52 469.658 76.76 470.17 77.24C470.692 77.7093 470.954 78.3707 470.954 79.224C470.954 79.4693 470.916 79.8 470.842 80.216L469.882 85H468.746L469.706 80.2C469.759 79.9547 469.786 79.6933 469.786 79.416C469.786 78.8187 469.61 78.36 469.258 78.04C468.906 77.7093 468.388 77.544 467.706 77.544C466.852 77.544 466.143 77.784 465.578 78.264C465.012 78.7333 464.634 79.432 464.442 80.36L463.514 85H462.378L463.338 80.2C463.391 79.9013 463.418 79.6453 463.418 79.432C463.418 78.824 463.242 78.36 462.89 78.04C462.548 77.7093 462.031 77.544 461.338 77.544C460.474 77.544 459.759 77.7947 459.194 78.296C458.628 78.7867 458.244 79.5173 458.042 80.488L457.146 85H456.01L457.674 76.584H458.762L458.49 77.928C459.258 76.9893 460.319 76.52 461.674 76.52C462.378 76.52 462.964 76.664 463.434 76.952C463.914 77.24 464.244 77.656 464.426 78.2C464.842 77.6453 465.348 77.2293 465.946 76.952C466.554 76.664 467.231 76.52 467.978 76.52ZM478.755 76.52C479.704 76.52 480.44 76.7653 480.963 77.256C481.496 77.736 481.763 78.4027 481.763 79.256C481.763 79.5547 481.731 79.8747 481.667 80.216L480.707 85H479.571L480.531 80.2C480.584 79.9013 480.611 79.6453 480.611 79.432C480.611 78.824 480.424 78.36 480.051 78.04C479.688 77.7093 479.149 77.544 478.435 77.544C477.528 77.544 476.781 77.7947 476.195 78.296C475.608 78.7867 475.213 79.5173 475.011 80.488L474.115 85H472.979L474.643 76.584H475.731L475.459 77.928C476.259 76.9893 477.357 76.52 478.755 76.52ZM492.402 76.584L486.258 86.088C485.746 86.8773 485.266 87.4213 484.818 87.72C484.37 88.0293 483.837 88.184 483.218 88.184C482.813 88.184 482.429 88.1147 482.066 87.976C481.704 87.848 481.421 87.6667 481.218 87.432L481.826 86.6C482.21 87.0053 482.706 87.208 483.314 87.208C483.688 87.208 484.024 87.1067 484.322 86.904C484.621 86.7013 484.93 86.3493 485.25 85.848L485.842 84.952L483.746 76.584H484.898L486.642 83.752L491.234 76.584H492.402ZM504.29 76.52C505.24 76.52 505.97 76.76 506.482 77.24C507.005 77.7093 507.266 78.3707 507.266 79.224C507.266 79.4693 507.229 79.8 507.154 80.216L506.194 85H505.058L506.018 80.2C506.072 79.9547 506.098 79.6933 506.098 79.416C506.098 78.8187 505.922 78.36 505.57 78.04C505.218 77.7093 504.701 77.544 504.018 77.544C503.165 77.544 502.456 77.784 501.89 78.264C501.325 78.7333 500.946 79.432 500.754 80.36L499.826 85H498.69L499.65 80.2C499.704 79.9013 499.73 79.6453 499.73 79.432C499.73 78.824 499.554 78.36 499.202 78.04C498.861 77.7093 498.344 77.544 497.65 77.544C496.786 77.544 496.072 77.7947 495.506 78.296C494.941 78.7867 494.557 79.5173 494.354 80.488L493.458 85H492.322L493.986 76.584H495.074L494.802 77.928C495.57 76.9893 496.632 76.52 497.986 76.52C498.69 76.52 499.277 76.664 499.746 76.952C500.226 77.24 500.557 77.656 500.738 78.2C501.154 77.6453 501.661 77.2293 502.258 76.952C502.866 76.664 503.544 76.52 504.29 76.52ZM515.927 85.08C515.255 85.08 514.609 84.984 513.991 84.792C513.383 84.6 512.913 84.3547 512.583 84.056L513.127 83.16C513.447 83.4373 513.868 83.6613 514.391 83.832C514.913 84.0027 515.463 84.088 516.039 84.088C516.839 84.088 517.452 83.96 517.879 83.704C518.316 83.4373 518.535 83.064 518.535 82.584C518.535 82.3173 518.444 82.104 518.263 81.944C518.092 81.784 517.879 81.6613 517.623 81.576C517.367 81.4907 516.993 81.3947 516.503 81.288C515.916 81.16 515.441 81.032 515.079 80.904C514.716 80.776 514.407 80.5733 514.151 80.296C513.895 80.0187 513.767 79.6347 513.767 79.144C513.767 78.344 514.097 77.7093 514.759 77.24C515.42 76.76 516.305 76.52 517.415 76.52C517.959 76.52 518.487 76.5947 518.999 76.744C519.521 76.8827 519.943 77.0693 520.263 77.304L519.783 78.216C519.463 77.9813 519.084 77.8053 518.647 77.688C518.22 77.56 517.777 77.496 517.319 77.496C516.551 77.496 515.953 77.6347 515.527 77.912C515.1 78.1893 514.887 78.5627 514.887 79.032C514.887 79.3093 514.977 79.5333 515.159 79.704C515.34 79.8747 515.564 80.0027 515.831 80.088C516.108 80.1733 516.481 80.264 516.951 80.36C517.527 80.488 517.991 80.616 518.343 80.744C518.705 80.8613 519.015 81.0587 519.271 81.336C519.527 81.6133 519.655 81.9867 519.655 82.456C519.655 83.2773 519.313 83.9227 518.631 84.392C517.959 84.8507 517.057 85.08 515.927 85.08ZM528.651 77.336L522.091 84.056H527.419L527.227 85H520.379L520.523 84.248L527.083 77.544H521.979L522.171 76.584H528.811L528.651 77.336ZM538.698 76.584L537.018 85H535.93L536.202 83.672C535.797 84.12 535.317 84.4667 534.762 84.712C534.207 84.9573 533.594 85.08 532.922 85.08C532.207 85.08 531.573 84.936 531.018 84.648C530.463 84.36 530.031 83.9493 529.722 83.416C529.413 82.872 529.258 82.2373 529.258 81.512C529.258 80.5627 529.461 79.7093 529.866 78.952C530.282 78.1947 530.853 77.6027 531.578 77.176C532.303 76.7387 533.114 76.52 534.01 76.52C534.81 76.52 535.482 76.68 536.026 77C536.57 77.3093 536.965 77.7573 537.21 78.344L537.562 76.584H538.698ZM533.162 84.072C533.855 84.072 534.479 83.9067 535.034 83.576C535.589 83.2347 536.021 82.7653 536.33 82.168C536.65 81.56 536.81 80.8827 536.81 80.136C536.81 79.3147 536.565 78.6747 536.074 78.216C535.594 77.7467 534.917 77.512 534.042 77.512C533.349 77.512 532.725 77.6827 532.17 78.024C531.615 78.3653 531.178 78.84 530.858 79.448C530.549 80.0453 530.394 80.7173 530.394 81.464C530.394 82.2853 530.634 82.9253 531.114 83.384C531.605 83.8427 532.287 84.072 533.162 84.072ZM543.99 85.08C543.2 85.08 542.512 84.936 541.926 84.648C541.339 84.3493 540.886 83.9333 540.566 83.4C540.256 82.856 540.102 82.2267 540.102 81.512C540.102 80.5627 540.31 79.7093 540.726 78.952C541.142 78.1947 541.723 77.6027 542.47 77.176C543.216 76.7387 544.059 76.52 544.998 76.52C545.776 76.52 546.443 76.664 546.998 76.952C547.563 77.2293 548 77.6453 548.31 78.2L547.35 78.76C546.87 77.928 546.054 77.512 544.902 77.512C544.208 77.512 543.579 77.6827 543.014 78.024C542.459 78.3653 542.022 78.8347 541.702 79.432C541.392 80.0293 541.238 80.7067 541.238 81.464C541.238 82.2853 541.478 82.9253 541.958 83.384C542.448 83.8427 543.142 84.072 544.038 84.072C544.582 84.072 545.083 83.9707 545.542 83.768C546.011 83.5547 546.395 83.2507 546.694 82.856L547.51 83.48C547.136 83.9813 546.635 84.376 546.006 84.664C545.387 84.9413 544.715 85.08 543.99 85.08ZM558.461 76.584L556.781 85H555.693L555.965 83.656C555.176 84.6053 554.093 85.08 552.717 85.08C551.779 85.08 551.043 84.84 550.509 84.36C549.987 83.8693 549.725 83.192 549.725 82.328C549.725 82.0293 549.757 81.7147 549.821 81.384L550.781 76.584H551.917L550.957 81.384C550.904 81.6827 550.877 81.9333 550.877 82.136C550.877 82.7547 551.053 83.2293 551.405 83.56C551.768 83.8907 552.307 84.056 553.021 84.056C553.917 84.056 554.659 83.8053 555.245 83.304C555.832 82.8027 556.227 82.072 556.429 81.112L557.325 76.584H558.461ZM565.739 76.52C566.688 76.52 567.424 76.7653 567.947 77.256C568.48 77.736 568.747 78.4027 568.747 79.256C568.747 79.5547 568.715 79.8747 568.651 80.216L567.691 85H566.555L567.515 80.2C567.568 79.9013 567.595 79.6453 567.595 79.432C567.595 78.824 567.408 78.36 567.035 78.04C566.672 77.7093 566.134 77.544 565.419 77.544C564.512 77.544 563.766 77.7947 563.179 78.296C562.592 78.7867 562.198 79.5173 561.995 80.488L561.099 85H559.963L561.627 76.584H562.715L562.443 77.928C563.243 76.9893 564.342 76.52 565.739 76.52ZM575.655 80.056L578.679 85H577.351L574.759 80.744L572.407 82.568L571.927 85H570.791L573.159 73.128H574.295L572.695 81.112L578.487 76.584H580.103L575.655 80.056ZM589.336 76.584L587.656 85H586.568L586.84 83.656C586.051 84.6053 584.968 85.08 583.592 85.08C582.654 85.08 581.918 84.84 581.384 84.36C580.862 83.8693 580.6 83.192 580.6 82.328C580.6 82.0293 580.632 81.7147 580.696 81.384L581.656 76.584H582.792L581.832 81.384C581.779 81.6827 581.752 81.9333 581.752 82.136C581.752 82.7547 581.928 83.2293 582.28 83.56C582.643 83.8907 583.182 84.056 583.896 84.056C584.792 84.056 585.534 83.8053 586.12 83.304C586.707 82.8027 587.102 82.072 587.304 81.112L588.2 76.584H589.336ZM591.078 85.08C590.843 85.08 590.646 85 590.486 84.84C590.326 84.68 590.246 84.4827 590.246 84.248C590.246 83.992 590.331 83.7787 590.502 83.608C590.683 83.4267 590.897 83.336 591.142 83.336C591.377 83.336 591.569 83.416 591.718 83.576C591.878 83.736 591.958 83.9333 591.958 84.168C591.958 84.424 591.867 84.6427 591.686 84.824C591.515 84.9947 591.313 85.08 591.078 85.08Z" fill="white"/>
<g clip-path="url(#clip0_0_1)">
<path d="M198.706 305.888V246.135C198.706 208.367 167.42 177.927 128.806 177.927H97.5207C58.9068 177.927 27.6211 208.367 27.6211 246.135V305.888H198.706Z" fill="black"/>
<path d="M204.906 184.128L127.96 257.128M13.5273 173.135L63.9791 272.066L13.5273 173.135Z" stroke="black" stroke-width="3.285" stroke-miterlimit="10" stroke-linecap="round"/>
<path d="M23.676 173.699C21.703 179.9 14.9386 183.564 8.45595 181.591C1.97332 179.618 -1.40892 172.853 0.564054 166.653C2.53703 160.452 9.30151 156.788 15.7841 158.761C21.9849 160.734 25.649 167.498 23.676 173.699Z" fill="black"/>
<path d="M219.001 180.745C219.001 187.51 213.646 192.865 206.881 192.865C200.117 192.865 194.762 187.51 194.762 180.745C194.762 174.263 200.117 168.625 206.881 168.625C213.646 168.907 219.001 174.263 219.001 180.745Z" fill="black"/>
<path d="M117.252 181.027V137.058H85.1211M123.453 179.618C123.453 177.363 139.237 137.34 139.237 137.34L121.48 110.845L123.453 179.618Z" stroke="black" stroke-width="0.657" stroke-miterlimit="10" stroke-linecap="round"/>
<path d="M156.146 265.301H69.8984V274.884H156.146V265.301Z" fill="white"/>
</g>
<defs>
<clipPath id="clip0_0_1">
<rect width="219" height="195.888" fill="white" transform="translate(0 110)"/>
</clipPath>
</defs>
</svg>
