<svg width="1030" height="383" viewBox="0 0 1030 383" fill="none" xmlns="http://www.w3.org/2000/svg">
<path d="M874.244 116.95H123.508V178.31H874.244V116.95Z" fill="black"/>
<path d="M705.898 123.243C707.472 121.67 735.529 93.6125 735.529 93.6125H803.182" stroke="black" stroke-miterlimit="10"/>
<path d="M779.055 80.7637H758.078L754.145 92.3014" stroke="black" stroke-miterlimit="10"/>
<path d="M869.523 124.292H953.434L978.082 99.3814H1023.97" stroke="black" stroke-miterlimit="10"/>
<path d="M989.47 1.3111H953.022V52.7062H915" stroke="black" stroke-miterlimit="10"/>
<path d="M987.785 167.034C987.785 163.363 969.167 148.416 969.167 148.416H940.061V130.848H874.243H869.523" stroke="black" stroke-miterlimit="10"/>
<path d="M1009.29 144.221H987.784L978.082 153.661" stroke="black" stroke-miterlimit="10"/>
<path d="M529.687 121.67C530.474 120.097 529.687 92.3014 529.687 92.3014H444.203V73.946" stroke="black" stroke-miterlimit="10"/>
<path d="M433.19 121.67V108.297H379.697L362.653 89.1548H311.258" stroke="black" stroke-miterlimit="10"/>
<path d="M399.363 77.6171V93.8748H389.398V108.559" stroke="black" stroke-miterlimit="10"/>
<path d="M147.108 121.67H88.8953V155.234H33.3047" stroke="black" stroke-miterlimit="10"/>
<path d="M11.0156 111.443C17.0467 113.803 62.4107 155.234 62.4107 155.234" stroke="black" stroke-miterlimit="10"/>
<path d="M1.3125 61.6217V80.2393L28.0589 100.955L30.4189 127.177" stroke="black" stroke-miterlimit="10"/>
<path d="M1.3125 238.62L6.5569 220.789L51.1343 208.989L62.1475 188.798L129.276 170.967" stroke="black" stroke-miterlimit="10"/>
<path d="M143.96 174.638L92.8274 197.714L94.9251 213.971L58.4766 216.856" stroke="black" stroke-miterlimit="10"/>
<path d="M138.191 224.46H181.982L196.142 204.794L232.591 195.878L244.39 174.638" stroke="black" stroke-miterlimit="10"/>
<path d="M219.742 213.185L254.88 197.714V174.638" stroke="black" stroke-miterlimit="10"/>
<path d="M744.707 173.327V214.496L916.986 225.771L929.31 272.184H1009.29V368.681L1023.97 381.268" stroke="black" stroke-miterlimit="10"/>
<path d="M942.419 197.714L898.366 193.781L874.242 221.314" stroke="black" stroke-miterlimit="10"/>
<path d="M925.898 254.878H983.062L1012.17 217.905H1030" stroke="black" stroke-miterlimit="10"/>
<path d="M161.529 98.3325H152.613V125.603H161.529V98.3325Z" fill="black"/>
<path d="M599.435 98.3325H590.52V125.603H599.435V98.3325Z" fill="black"/>
<path d="M565.349 98.3325H556.434V125.603H565.349V98.3325Z" fill="black"/>
<path d="M208.99 98.3325H200.074V125.603H208.99V98.3325Z" fill="black"/>
<path d="M646.9 98.3325H637.984V125.603H646.9V98.3325Z" fill="black"/>
<path d="M175.951 98.3325H167.035V125.603H175.951V98.3325Z" fill="black"/>
<path d="M613.857 98.3325H604.941V125.603H613.857V98.3325Z" fill="black"/>
<path d="M223.412 98.3325H214.496V125.603H223.412V98.3325Z" fill="black"/>
<path d="M661.322 98.3325H652.406V125.603H661.322V98.3325Z" fill="black"/>
<path d="M146.322 98.3325H137.406V125.603H146.322V98.3325Z" fill="black"/>
<path d="M584.228 98.3325H575.312V125.603H584.228V98.3325Z" fill="black"/>
<path d="M550.138 98.3325H541.223V125.603H550.138V98.3325Z" fill="black"/>
<path d="M193.783 98.3325H184.867V125.603H193.783V98.3325Z" fill="black"/>
<path d="M631.427 98.3325H622.512V125.603H631.427V98.3325Z" fill="black"/>
<path d="M142 109V75" stroke="black" stroke-miterlimit="10"/>
<path d="M579.508 108.559V73.1594" stroke="black" stroke-miterlimit="10"/>
<path d="M545.68 108.559V73.1594" stroke="black" stroke-miterlimit="10"/>
<path d="M189 109V75" stroke="black" stroke-miterlimit="10"/>
<path d="M626.969 108.559V73.1594" stroke="black" stroke-miterlimit="10"/>
<path d="M157 105V75" stroke="black" stroke-miterlimit="10"/>
<path d="M594.977 104.888V73.946" stroke="black" stroke-miterlimit="10"/>
<path d="M560.891 104.888V73.946" stroke="black" stroke-miterlimit="10"/>
<path d="M205 105V75" stroke="black" stroke-miterlimit="10"/>
<path d="M642.441 104.888V73.946" stroke="black" stroke-miterlimit="10"/>
<path d="M171 104V75" stroke="black" stroke-miterlimit="10"/>
<path d="M609.402 103.577V73.1594" stroke="black" stroke-miterlimit="10"/>
<path d="M219 104V75" stroke="black" stroke-miterlimit="10"/>
<path d="M656.863 103.577V73.1594" stroke="black" stroke-miterlimit="10"/>
<path d="M288.382 138.8V157H285.782V148.888H275.33V157H272.73V138.8H275.33V146.626H285.782V138.8H288.382ZM300.812 138.8H303.412V157H300.812V138.8ZM321.147 157.208C319.778 157.208 318.452 157 317.169 156.584C315.904 156.151 314.907 155.596 314.179 154.92L315.141 152.892C315.835 153.516 316.719 154.027 317.793 154.426C318.885 154.807 320.003 154.998 321.147 154.998C322.655 154.998 323.782 154.747 324.527 154.244C325.273 153.724 325.645 153.039 325.645 152.19C325.645 151.566 325.437 151.063 325.021 150.682C324.623 150.283 324.12 149.98 323.513 149.772C322.924 149.564 322.083 149.33 320.991 149.07C319.622 148.741 318.513 148.411 317.663 148.082C316.831 147.753 316.112 147.25 315.505 146.574C314.916 145.881 314.621 144.953 314.621 143.792C314.621 142.821 314.873 141.946 315.375 141.166C315.895 140.386 316.675 139.762 317.715 139.294C318.755 138.826 320.047 138.592 321.589 138.592C322.664 138.592 323.721 138.731 324.761 139.008C325.801 139.285 326.694 139.684 327.439 140.204L326.581 142.284C325.819 141.799 325.004 141.435 324.137 141.192C323.271 140.932 322.421 140.802 321.589 140.802C320.116 140.802 319.007 141.071 318.261 141.608C317.533 142.145 317.169 142.839 317.169 143.688C317.169 144.312 317.377 144.823 317.793 145.222C318.209 145.603 318.721 145.907 319.327 146.132C319.951 146.34 320.792 146.565 321.849 146.808C323.219 147.137 324.319 147.467 325.151 147.796C325.983 148.125 326.694 148.628 327.283 149.304C327.89 149.98 328.193 150.89 328.193 152.034C328.193 152.987 327.933 153.863 327.413 154.66C326.893 155.44 326.105 156.064 325.047 156.532C323.99 156.983 322.69 157.208 321.147 157.208ZM342.588 141.062H336.348V138.8H351.402V141.062H345.162V157H342.588V141.062ZM369.432 157.208C367.595 157.208 365.94 156.809 364.466 156.012C362.993 155.197 361.832 154.079 360.982 152.658C360.15 151.237 359.734 149.651 359.734 147.9C359.734 146.149 360.15 144.563 360.982 143.142C361.832 141.721 362.993 140.611 364.466 139.814C365.94 138.999 367.595 138.592 369.432 138.592C371.252 138.592 372.899 138.999 374.372 139.814C375.846 140.611 376.998 141.721 377.83 143.142C378.662 144.546 379.078 146.132 379.078 147.9C379.078 149.668 378.662 151.263 377.83 152.684C376.998 154.088 375.846 155.197 374.372 156.012C372.899 156.809 371.252 157.208 369.432 157.208ZM369.432 154.894C370.767 154.894 371.963 154.591 373.02 153.984C374.095 153.377 374.936 152.545 375.542 151.488C376.166 150.413 376.478 149.217 376.478 147.9C376.478 146.583 376.166 145.395 375.542 144.338C374.936 143.263 374.095 142.423 373.02 141.816C371.963 141.209 370.767 140.906 369.432 140.906C368.098 140.906 366.884 141.209 365.792 141.816C364.718 142.423 363.868 143.263 363.244 144.338C362.638 145.395 362.334 146.583 362.334 147.9C362.334 149.217 362.638 150.413 363.244 151.488C363.868 152.545 364.718 153.377 365.792 153.984C366.884 154.591 368.098 154.894 369.432 154.894ZM402.203 157L398.277 151.41C397.791 151.445 397.41 151.462 397.133 151.462H392.635V157H390.035V138.8H397.133C399.49 138.8 401.345 139.363 402.697 140.49C404.049 141.617 404.725 143.168 404.725 145.144C404.725 146.548 404.378 147.744 403.685 148.732C402.991 149.72 402.003 150.439 400.721 150.89L405.037 157H402.203ZM397.055 149.252C398.701 149.252 399.958 148.897 400.825 148.186C401.691 147.475 402.125 146.461 402.125 145.144C402.125 143.827 401.691 142.821 400.825 142.128C399.958 141.417 398.701 141.062 397.055 141.062H392.635V149.252H397.055ZM415.908 138.8H418.508V157H415.908V138.8ZM442.535 152.45H432.863L430.861 157H428.183L436.425 138.8H438.999L447.267 157H444.537L442.535 152.45ZM441.625 150.37L437.699 141.452L433.773 150.37H441.625Z" fill="white"/>
<path d="M489.936 158.336C488.611 158.336 487.388 158.093 486.268 157.608C485.167 157.104 484.261 156.395 483.552 155.48L486.072 152.456C487.136 153.893 488.349 154.612 489.712 154.612C491.56 154.612 492.484 153.529 492.484 151.364V142.04H485.596V138.4H496.992V151.112C496.992 153.52 496.395 155.331 495.2 156.544C494.005 157.739 492.251 158.336 489.936 158.336ZM507.24 142.712C509.574 142.712 511.366 143.272 512.616 144.392C513.867 145.493 514.492 147.164 514.492 149.404V158H510.404V156.124C509.583 157.524 508.052 158.224 505.812 158.224C504.655 158.224 503.647 158.028 502.788 157.636C501.948 157.244 501.304 156.703 500.856 156.012C500.408 155.321 500.184 154.537 500.184 153.66C500.184 152.26 500.707 151.159 501.752 150.356C502.816 149.553 504.45 149.152 506.652 149.152H510.124C510.124 148.2 509.835 147.472 509.256 146.968C508.678 146.445 507.81 146.184 506.652 146.184C505.85 146.184 505.056 146.315 504.272 146.576C503.507 146.819 502.854 147.155 502.312 147.584L500.744 144.532C501.566 143.953 502.546 143.505 503.684 143.188C504.842 142.871 506.027 142.712 507.24 142.712ZM506.904 155.284C507.651 155.284 508.314 155.116 508.892 154.78C509.471 154.425 509.882 153.912 510.124 153.24V151.7H507.128C505.336 151.7 504.44 152.288 504.44 153.464C504.44 154.024 504.655 154.472 505.084 154.808C505.532 155.125 506.139 155.284 506.904 155.284ZM537.738 142.712C539.623 142.712 541.116 143.272 542.218 144.392C543.338 145.493 543.898 147.155 543.898 149.376V158H539.53V150.048C539.53 148.853 539.278 147.967 538.774 147.388C538.288 146.791 537.588 146.492 536.674 146.492C535.647 146.492 534.835 146.828 534.238 147.5C533.64 148.153 533.342 149.133 533.342 150.44V158H528.974V150.048C528.974 147.677 528.022 146.492 526.118 146.492C525.11 146.492 524.307 146.828 523.71 147.5C523.112 148.153 522.814 149.133 522.814 150.44V158H518.446V142.936H522.618V144.672C523.178 144.037 523.859 143.552 524.662 143.216C525.483 142.88 526.379 142.712 527.35 142.712C528.414 142.712 529.375 142.927 530.234 143.356C531.092 143.767 531.783 144.373 532.306 145.176C532.922 144.392 533.696 143.785 534.63 143.356C535.582 142.927 536.618 142.712 537.738 142.712ZM562.733 150.524C562.733 150.58 562.705 150.972 562.649 151.7H551.253C551.458 152.633 551.944 153.371 552.709 153.912C553.474 154.453 554.426 154.724 555.565 154.724C556.349 154.724 557.04 154.612 557.637 154.388C558.253 154.145 558.822 153.772 559.345 153.268L561.669 155.788C560.25 157.412 558.178 158.224 555.453 158.224C553.754 158.224 552.252 157.897 550.945 157.244C549.638 156.572 548.63 155.648 547.921 154.472C547.212 153.296 546.857 151.961 546.857 150.468C546.857 148.993 547.202 147.668 547.893 146.492C548.602 145.297 549.564 144.373 550.777 143.72C552.009 143.048 553.381 142.712 554.893 142.712C556.368 142.712 557.702 143.029 558.897 143.664C560.092 144.299 561.025 145.213 561.697 146.408C562.388 147.584 562.733 148.956 562.733 150.524ZM554.921 146.016C553.932 146.016 553.101 146.296 552.429 146.856C551.757 147.416 551.346 148.181 551.197 149.152H558.617C558.468 148.2 558.057 147.444 557.385 146.884C556.713 146.305 555.892 146.016 554.921 146.016ZM570.709 158.224C569.458 158.224 568.236 158.075 567.041 157.776C565.846 157.459 564.894 157.067 564.185 156.6L565.641 153.464C566.313 153.893 567.125 154.248 568.077 154.528C569.029 154.789 569.962 154.92 570.877 154.92C572.725 154.92 573.649 154.463 573.649 153.548C573.649 153.119 573.397 152.811 572.893 152.624C572.389 152.437 571.614 152.279 570.569 152.148C569.337 151.961 568.32 151.747 567.517 151.504C566.714 151.261 566.014 150.832 565.417 150.216C564.838 149.6 564.549 148.723 564.549 147.584C564.549 146.632 564.82 145.792 565.361 145.064C565.921 144.317 566.724 143.739 567.769 143.328C568.833 142.917 570.084 142.712 571.521 142.712C572.585 142.712 573.64 142.833 574.685 143.076C575.749 143.3 576.626 143.617 577.317 144.028L575.861 147.136C574.536 146.389 573.089 146.016 571.521 146.016C570.588 146.016 569.888 146.147 569.421 146.408C568.954 146.669 568.721 147.005 568.721 147.416C568.721 147.883 568.973 148.209 569.477 148.396C569.981 148.583 570.784 148.76 571.885 148.928C573.117 149.133 574.125 149.357 574.909 149.6C575.693 149.824 576.374 150.244 576.953 150.86C577.532 151.476 577.821 152.335 577.821 153.436C577.821 154.369 577.541 155.2 576.981 155.928C576.421 156.656 575.6 157.225 574.517 157.636C573.453 158.028 572.184 158.224 570.709 158.224ZM610.448 138.4L604.036 158H599.164L594.852 144.728L590.4 158H585.556L579.116 138.4H583.82L588.244 152.176L592.864 138.4H597.064L601.544 152.288L606.108 138.4H610.448ZM617.627 142.712C619.96 142.712 621.752 143.272 623.003 144.392C624.254 145.493 624.879 147.164 624.879 149.404V158H620.791V156.124C619.97 157.524 618.439 158.224 616.199 158.224C615.042 158.224 614.034 158.028 613.175 157.636C612.335 157.244 611.691 156.703 611.243 156.012C610.795 155.321 610.571 154.537 610.571 153.66C610.571 152.26 611.094 151.159 612.139 150.356C613.203 149.553 614.836 149.152 617.039 149.152H620.511C620.511 148.2 620.222 147.472 619.643 146.968C619.064 146.445 618.196 146.184 617.039 146.184C616.236 146.184 615.443 146.315 614.659 146.576C613.894 146.819 613.24 147.155 612.699 147.584L611.131 144.532C611.952 143.953 612.932 143.505 614.071 143.188C615.228 142.871 616.414 142.712 617.627 142.712ZM617.291 155.284C618.038 155.284 618.7 155.116 619.279 154.78C619.858 154.425 620.268 153.912 620.511 153.24V151.7H617.515C615.723 151.7 614.827 152.288 614.827 153.464C614.827 154.024 615.042 154.472 615.471 154.808C615.919 155.125 616.526 155.284 617.291 155.284ZM628.832 137.224H633.2V158H628.832V137.224ZM643.722 152.092L641.622 154.164V158H637.254V137.224H641.622V148.984L648.006 142.936H653.214L646.942 149.32L653.774 158H648.482L643.722 152.092ZM669.838 150.524C669.838 150.58 669.81 150.972 669.754 151.7H658.358C658.564 152.633 659.049 153.371 659.814 153.912C660.58 154.453 661.532 154.724 662.67 154.724C663.454 154.724 664.145 154.612 664.742 154.388C665.358 154.145 665.928 153.772 666.45 153.268L668.774 155.788C667.356 157.412 665.284 158.224 662.558 158.224C660.86 158.224 659.357 157.897 658.05 157.244C656.744 156.572 655.736 155.648 655.026 154.472C654.317 153.296 653.962 151.961 653.962 150.468C653.962 148.993 654.308 147.668 654.998 146.492C655.708 145.297 656.669 144.373 657.882 143.72C659.114 143.048 660.486 142.712 661.998 142.712C663.473 142.712 664.808 143.029 666.002 143.664C667.197 144.299 668.13 145.213 668.802 146.408C669.493 147.584 669.838 148.956 669.838 150.524ZM662.026 146.016C661.037 146.016 660.206 146.296 659.534 146.856C658.862 147.416 658.452 148.181 658.302 149.152H665.722C665.573 148.2 665.162 147.444 664.49 146.884C663.818 146.305 662.997 146.016 662.026 146.016ZM676.918 144.924C677.441 144.196 678.141 143.645 679.018 143.272C679.914 142.899 680.941 142.712 682.098 142.712V146.744C681.613 146.707 681.286 146.688 681.118 146.688C679.868 146.688 678.888 147.043 678.178 147.752C677.469 148.443 677.114 149.488 677.114 150.888V158H672.746V142.936H676.918V144.924ZM690.69 142.712C693.023 142.712 694.815 143.272 696.066 144.392C697.316 145.493 697.942 147.164 697.942 149.404V158H693.854V156.124C693.032 157.524 691.502 158.224 689.262 158.224C688.104 158.224 687.096 158.028 686.238 157.636C685.398 157.244 684.754 156.703 684.306 156.012C683.858 155.321 683.634 154.537 683.634 153.66C683.634 152.26 684.156 151.159 685.202 150.356C686.266 149.553 687.899 149.152 690.102 149.152H693.574C693.574 148.2 693.284 147.472 692.706 146.968C692.127 146.445 691.259 146.184 690.102 146.184C689.299 146.184 688.506 146.315 687.722 146.576C686.956 146.819 686.303 147.155 685.762 147.584L684.194 144.532C685.015 143.953 685.995 143.505 687.134 143.188C688.291 142.871 689.476 142.712 690.69 142.712ZM690.354 155.284C691.1 155.284 691.763 155.116 692.342 154.78C692.92 154.425 693.331 153.912 693.574 153.24V151.7H690.578C688.786 151.7 687.89 152.288 687.89 153.464C687.89 154.024 688.104 154.472 688.534 154.808C688.982 155.125 689.588 155.284 690.354 155.284ZM726.849 153.884H723.657V158H719.233V153.884H708.677V150.832L717.917 138.4H722.677L714.109 150.188H719.373V146.52H723.657V150.188H726.849V153.884ZM737.17 146.38C738.887 146.66 740.203 147.304 741.118 148.312C742.033 149.301 742.49 150.533 742.49 152.008C742.49 153.147 742.191 154.201 741.594 155.172C740.997 156.124 740.082 156.889 738.85 157.468C737.637 158.047 736.143 158.336 734.37 158.336C732.989 158.336 731.626 158.159 730.282 157.804C728.957 157.431 727.827 156.908 726.894 156.236L728.658 152.764C729.405 153.324 730.263 153.763 731.234 154.08C732.223 154.379 733.231 154.528 734.258 154.528C735.397 154.528 736.293 154.313 736.946 153.884C737.599 153.436 737.926 152.811 737.926 152.008C737.926 150.403 736.703 149.6 734.258 149.6H732.186V146.604L736.218 142.04H727.874V138.4H741.594V141.34L737.17 146.38Z" fill="white"/>
</svg>
