<svg width="277" height="43" viewBox="0 0 277 43" fill="none" xmlns="http://www.w3.org/2000/svg">
<g clip-path="url(#clip0_7_3051)">
<path d="M26.2518 39.1919C24.8199 29.6716 24.1835 20.1513 25.4563 10.631C25.6154 9.5203 23.8653 8.40959 23.0698 9.5203C18.9331 15.3911 16.0692 21.8967 14.4781 28.7196C14.319 26.1808 14.1599 23.6421 13.8417 21.262C13.3644 15.2325 12.8871 9.20295 12.5689 3.17343C12.4098 1.90406 9.86413 1.1107 9.54592 2.53875C7.63668 9.5203 5.72743 16.5018 3.81818 23.4834C2.86356 26.9742 1.90893 30.3063 1.11341 33.797C0.317894 36.4945 -0.795833 39.3506 0.636102 42.2066C1.27252 43.6347 3.65908 43 3.02266 41.4133C2.38625 39.8266 3.02266 38.0812 3.49997 36.4945C3.97729 34.9077 4.4546 33.321 4.77281 31.7343C5.56832 28.7196 6.52295 25.7048 7.31847 22.5314C8.27309 19.1993 9.22772 15.7085 10.0232 12.3764C10.1823 15.3911 10.5005 18.4059 10.6597 21.4207C11.137 27.1328 11.2961 33.0037 12.728 38.7159C13.2053 40.1439 15.751 40.9373 15.9101 38.8745C16.5465 31.0996 18.6148 23.4834 22.1151 16.5018C21.4787 24.5941 21.6378 32.6863 23.0698 40.7786C23.0698 40.9373 23.0698 41.2546 23.2289 41.4133C23.2289 41.572 23.2289 41.7306 23.388 41.8893C24.1835 43.476 26.8883 43.3173 26.57 41.2546C26.57 41.0959 26.57 40.9373 26.4109 40.7786C26.7292 40.1439 26.57 39.6679 26.2518 39.1919Z" fill="white"/>
<path d="M40.0956 29.5129C39.6183 31.5756 38.0272 35.3837 35.3225 33.9557C32.7768 32.6863 32.1404 29.0369 31.9813 26.4981C31.9813 24.1181 32.2995 21.738 33.095 19.5166C33.8905 19.6753 34.6861 19.3579 34.6861 18.4059C34.8452 16.8192 36.4362 16.5018 37.709 17.1365C38.9819 17.7712 39.7774 19.1992 40.0956 20.4686C41.2093 23.3247 40.8911 26.6568 40.0956 29.5129ZM36.118 13.6457C35.7998 13.6457 35.4816 13.6457 35.1634 13.6457C34.6861 13.0111 33.7314 12.8524 33.2541 13.6457C30.3903 17.4539 28.9583 22.214 29.1174 26.9742C29.2765 30.7823 31.0267 35.7011 35.1634 36.8118C39.7774 38.0812 42.1639 33.6384 42.9595 29.9889C43.755 26.1808 44.0732 21.4206 42.1639 17.9299C41.0502 15.7085 38.8228 13.6457 36.118 13.6457Z" fill="white"/>
<path d="M69.2118 9.83764C67.7798 14.1218 66.8252 18.7233 65.8706 23.0074C65.2342 26.0221 64.7568 29.0369 64.2795 32.0517C61.5748 26.9742 59.9837 21.4207 59.6655 15.5498C59.6655 13.9631 57.279 12.8524 56.4834 14.5978C54.256 19.834 52.1876 25.0701 50.4375 30.465C50.2784 28.5609 50.1193 26.4982 49.9602 24.5941C49.642 20.4686 49.3238 16.5019 49.0055 12.3764C48.8464 10.9483 46.3008 10.631 46.3008 12.2177C46.4599 17.1365 46.7781 22.0554 46.9372 26.8155C47.0963 29.1956 47.2554 31.7343 47.4145 34.1144C47.5736 35.8598 48.0509 37.7638 50.1193 38.2399C50.7557 38.3985 51.5512 38.0812 51.7103 37.4465C53.3014 32.0517 55.0515 26.8155 57.1199 21.738C58.2336 27.4502 60.461 32.845 63.8022 37.7638C64.5977 39.0332 66.6661 38.5572 66.8252 37.1292C67.4616 32.6864 68.2571 28.2435 69.2118 23.8007C70.1664 19.3579 71.4392 15.0738 72.3938 10.7897C72.712 9.20296 69.6891 8.09226 69.2118 9.83764Z" fill="white"/>
<path d="M83.0506 24.9115C82.2551 24.9115 81.4596 25.0701 80.6641 25.2288C81.6187 22.6901 82.4142 20.1513 83.3688 17.6126C84.0053 19.6753 84.4826 21.738 85.119 23.9594C85.119 24.2768 85.2781 24.5941 85.2781 24.9115C84.4826 24.9115 83.8462 24.7528 83.0506 24.9115ZM90.3694 25.5461C89.8921 25.0701 89.0966 24.9115 88.4602 24.9115C87.3464 20.6273 86.2327 16.1845 84.8008 12.0591C84.4826 10.7897 82.2551 10.631 81.7778 11.9004C80.1868 16.3432 78.5957 20.786 77.0047 25.3875C77.0047 25.5461 77.0047 25.7048 76.8456 25.7048C76.5274 25.7048 76.0501 25.8635 75.7319 25.8635C74.1408 26.1808 74.6181 28.2436 75.891 28.4022C75.4137 29.6716 75.0954 30.7823 74.6181 32.0517C73.9817 34.2731 72.868 36.6532 73.0271 38.8746C73.0271 39.6679 74.1408 40.4613 74.7772 39.6679C76.2092 37.9225 76.8456 35.3838 77.482 33.3211C78.1184 31.5757 78.5957 29.9889 79.2321 28.2436C80.505 28.2436 81.7778 28.2436 83.0506 28.2436C83.8462 28.2436 84.8008 28.2436 85.5963 28.2436C85.7554 28.7196 85.7554 29.0369 85.9145 29.5129C86.0736 30.465 86.3918 31.5757 86.5509 32.5277C86.71 33.0037 86.71 33.4797 86.8691 33.9557C86.8691 34.1144 86.8691 34.2731 87.0282 34.4318C87.0282 34.5904 87.0282 34.5904 87.0282 34.5904C85.7554 36.0185 88.3011 38.2399 89.8921 36.8118C90.6876 36.0185 90.3694 34.7491 90.2103 33.6384C89.8921 32.2104 89.5739 30.6236 89.2557 29.1956C89.2557 28.8782 89.0966 28.5609 88.9375 28.0849C89.4148 28.0849 89.733 27.9262 90.2103 27.6089C91.324 27.1329 91.1649 26.1808 90.3694 25.5461Z" fill="white"/>
<path d="M124.101 11.107C122.351 16.8192 120.76 22.69 119.169 28.5609C117.419 23.3247 116.146 18.0885 114.873 12.6937C114.555 11.583 112.646 10.7896 112.168 12.2177C109.623 19.9926 107.395 27.9262 106.282 36.0184C106.122 37.4465 108.35 37.9225 108.668 36.4944C109.782 30.4649 111.214 24.2767 113.123 18.4059C114.237 23.8007 115.987 29.1955 118.055 34.4317C118.533 35.5424 120.601 36.0184 121.078 34.5904C123.147 27.2915 125.374 19.9926 127.283 12.535C127.761 10.631 124.738 9.04426 124.101 11.107Z" fill="white"/>
<path d="M133.965 25.7048C133.647 22.0554 133.17 18.5646 132.851 14.9151C132.692 13.6458 130.465 13.4871 130.465 14.7565C130.465 18.2472 130.624 21.8967 130.783 25.3875C130.942 27.1329 130.942 28.8782 131.101 30.6236C131.26 32.0517 131.101 34.7491 133.17 34.9078C135.238 35.0664 134.602 31.893 134.442 30.7823C134.283 29.0369 134.124 27.2915 133.965 25.7048Z" fill="white"/>
<path d="M152.579 32.2103C151.783 32.0516 151.147 32.2103 150.511 32.5277C149.874 32.845 149.238 33.1624 148.442 33.321C147.806 33.4797 147.169 33.797 146.374 33.797C145.737 33.9557 144.942 33.797 144.465 33.9557C144.305 33.9557 144.305 33.9557 144.146 33.9557C144.146 33.797 144.146 33.4797 144.146 33.4797C143.987 32.6863 143.987 32.0517 143.828 31.2583C143.669 29.9889 143.51 28.7195 143.351 27.2915C143.669 27.2915 143.828 27.2915 144.146 27.2915C144.305 27.2915 144.465 27.2915 144.624 27.2915H144.783C145.101 27.2915 145.419 27.2915 145.897 27.2915C146.533 27.2915 147.169 27.2915 147.806 27.2915C148.124 27.2915 148.442 27.2915 148.76 27.2915C149.079 27.2915 149.397 27.1328 149.715 26.8155C150.192 26.6568 150.829 26.3395 150.829 25.7048C150.829 25.0701 150.192 24.7528 149.556 24.5941C149.238 24.2767 148.76 24.1181 148.283 24.1181C147.965 24.1181 147.647 24.1181 147.328 24.1181C146.692 24.1181 146.215 24.1181 145.578 24.1181C144.783 24.1181 143.987 24.2767 143.192 24.2767C143.033 23.3247 143.033 22.5314 142.874 21.5793C142.874 20.786 142.714 20.1513 142.714 19.3579C142.714 18.7232 142.396 17.9299 142.714 17.2952C143.033 16.5018 143.987 16.1845 144.783 16.3432C145.897 16.5018 147.01 17.4539 147.806 18.2472C148.283 18.7232 149.238 19.1993 149.874 18.7232C150.511 18.2472 150.511 17.2952 150.033 16.6605C147.965 14.5978 145.578 12.6937 142.555 13.3284C141.282 13.6457 140.169 14.2804 139.532 15.3911C138.737 16.8192 139.055 18.4059 139.055 19.8339C139.373 23.3247 139.691 26.6568 140.169 30.1476C140.487 33.1624 140.328 37.2878 144.305 37.6052C146.056 37.7638 147.806 37.4465 149.397 36.9705C150.988 36.4945 153.215 35.8598 153.693 34.1144C154.011 33.1624 153.534 32.369 152.579 32.2103Z" fill="white"/>
<path d="M172.151 15.2325C170.719 18.2472 169.765 21.5793 168.969 24.7527C168.651 26.0221 168.492 27.4502 168.173 28.8782C166.423 24.7527 164.991 20.6273 163.878 16.3432C163.559 15.0738 161.491 14.1217 160.855 15.7085C158.627 21.4206 157.354 27.4502 157.195 33.6384C157.195 35.2251 159.582 35.8598 159.741 34.1144C160.218 29.9889 161.014 25.7048 162.287 21.738C163.719 26.4981 165.628 31.0996 168.014 35.5424C168.333 36.1771 169.128 36.6531 169.924 36.6531C170.56 36.6531 171.356 36.0184 171.356 35.3837C171.515 32.2103 171.833 29.0369 172.469 25.8634C173.265 22.69 174.379 19.6753 175.492 16.6605C176.129 14.7564 172.947 13.3284 172.151 15.2325Z" fill="white"/>
<path d="M187.423 25.0701C186.468 25.2288 185.514 25.5461 184.718 25.7048C183.923 25.8635 183.127 26.0221 182.332 26.1808C182.491 25.3874 182.809 24.7527 182.968 23.9594C183.605 22.214 184.241 20.6273 184.877 18.8819C185.196 18.0885 185.673 17.2952 185.991 16.5018C186.15 16.3432 186.15 15.8671 186.468 15.5498C186.468 15.7085 186.468 15.8671 186.628 16.0258C186.787 16.8192 186.946 17.6125 187.264 18.4059C187.741 20.1513 188.059 22.0553 188.537 23.8007C188.537 24.1181 188.696 24.4354 188.696 24.7527C188.219 24.9114 187.741 24.9114 187.423 25.0701ZM186.15 14.7564C185.991 14.5978 185.991 14.4391 186.15 14.7564V14.7564ZM191.719 24.1181C191.082 20.786 190.446 17.4539 189.332 14.2804C188.855 12.8524 187.9 11.583 186.309 11.583C184.559 11.583 183.923 13.0111 183.286 14.2804C181.854 17.1365 180.741 20.1513 179.786 23.166C179.468 24.4354 179.15 25.7048 178.831 26.9742C178.672 27.2915 178.513 27.6088 178.672 27.9262C178.195 29.9889 177.877 32.0516 177.718 34.1144C177.559 35.8598 180.263 36.4944 180.582 34.5904C180.9 32.6863 181.218 30.7823 181.695 29.0369C183.127 29.0369 184.559 28.8782 185.832 28.7195C186.787 28.5609 187.741 28.4022 188.696 28.0849C188.855 28.0849 189.173 27.9262 189.332 27.9262C189.491 28.4022 189.491 28.7195 189.65 29.1956C189.969 30.9409 189.969 33.0037 191.401 34.273C191.878 34.7491 192.833 34.7491 193.31 34.1144C194.264 32.6863 193.469 30.7823 193.151 29.3542C192.514 27.6088 192.196 25.8634 191.719 24.1181Z" fill="white"/>
<path d="M217.653 12.6937C217.016 11.4243 214.47 10.9483 214.47 12.8524C214.47 14.5978 214.948 16.3432 215.107 18.0885C215.425 19.8339 215.584 21.5793 215.584 23.4834C215.743 26.1808 215.584 28.8782 215.425 31.5756C214.948 30.9409 214.47 30.3063 213.993 29.6716C213.039 28.2435 212.243 26.8155 211.607 25.2288C210.175 22.214 209.22 19.0406 208.743 15.7085C208.424 13.9631 205.242 13.3284 205.083 15.5498C204.924 19.8339 204.129 23.9594 202.697 28.0849C201.106 22.214 200.31 16.1845 199.833 10.155C199.674 8.72691 196.969 8.2509 196.969 9.99629C196.81 18.2472 198.242 26.3395 200.788 34.1144C201.265 35.5424 203.492 35.7011 204.129 34.273C205.561 31.2583 206.674 28.0849 207.47 24.7527C207.788 25.5461 208.265 26.4981 208.584 27.2915C209.379 29.0369 210.493 30.7823 211.447 32.369C212.561 33.9557 213.675 35.8598 215.584 36.4944C216.539 36.8118 217.812 36.6531 218.448 35.8598C219.084 35.0664 218.925 33.6384 219.084 32.6863C219.244 30.4649 219.403 28.4022 219.403 26.1808C219.403 23.9594 219.244 21.8967 218.925 19.6753C218.766 17.2952 218.607 14.7564 217.653 12.6937Z" fill="white"/>
<path d="M227.994 28.7196C227.517 27.1329 227.199 25.5461 226.88 23.8008C226.244 20.31 225.926 16.8192 225.926 13.3284C225.926 12.0591 224.017 11.583 223.857 13.0111C223.38 16.6605 223.221 20.1513 223.698 23.8008C223.857 25.5461 224.176 27.2915 224.653 29.0369C225.13 30.7823 225.608 32.845 226.403 34.4318C226.88 35.2251 227.676 35.7011 228.471 35.5425C229.267 35.3838 229.903 34.5904 229.744 33.7971C229.108 32.0517 228.471 30.465 227.994 28.7196Z" fill="white"/>
<path d="M241.84 20.4686C241.044 19.9926 240.408 19.6753 239.613 19.3579C238.976 19.1993 238.021 19.0406 237.385 18.5646C236.43 17.7712 236.908 16.1845 237.385 15.3912C238.34 13.8044 240.249 13.1698 241.999 12.5351C243.908 11.9004 242.476 9.20297 240.726 9.67898C238.021 10.3137 234.998 11.7417 233.726 14.4391C232.612 17.1365 233.407 20.31 235.953 21.5794C237.226 22.214 238.658 22.3727 239.931 23.1661C241.044 23.8008 241.84 24.7528 242.635 25.7048C243.431 26.8155 243.908 28.0849 244.067 29.3543C244.227 30.6236 243.59 30.941 242.476 30.941C239.931 31.0996 236.271 29.8303 237.226 26.4982C237.703 25.0701 235.635 23.6421 234.521 24.9115C231.976 27.7675 234.521 31.893 237.385 33.4797C239.931 34.7491 244.704 35.3838 246.772 33.0037C249 30.465 246.931 25.8635 245.181 23.6421C244.386 22.3727 243.113 21.262 241.84 20.4686Z" fill="white"/>
<path d="M252.021 2.53874C251.543 1.26936 249.634 0.634678 248.52 0.317335C247.248 -8.23498e-06 245.975 -0.15868 244.702 -8.22907e-06C242.156 -8.22907e-06 239.611 0.952021 237.542 2.38007C236.906 2.69741 236.906 3.64944 237.383 4.12545C237.861 4.76014 238.497 4.76014 239.133 4.4428C241.043 3.49077 243.111 3.01475 245.179 3.01475C246.134 3.01475 247.248 3.17342 248.202 3.49077C248.68 3.64944 249.316 3.80811 249.793 3.80811C250.271 3.96678 250.907 4.12545 251.384 3.80811C252.021 3.64944 252.18 3.17342 252.021 2.53874Z" fill="white"/>
<path d="M265.703 26.4982C265.067 26.8155 264.748 27.4502 264.43 28.0849C264.112 28.5609 263.635 29.0369 263.157 29.5129C262.362 30.3063 261.089 30.941 259.975 31.0996C258.862 31.2583 257.748 30.941 256.952 30.3063C255.839 29.5129 255.52 28.2435 255.361 26.9742C255.043 23.8007 255.839 20.31 256.952 17.4539C257.43 16.3432 258.066 15.0738 259.339 14.4391C260.134 14.1218 261.248 13.9631 261.566 14.9151C262.044 16.0258 264.271 15.8672 263.794 14.4391C262.998 11.583 259.498 10.4723 256.952 11.9004C254.089 13.4871 252.816 17.6126 252.179 20.6273C251.384 23.9594 251.066 28.2436 252.975 31.2583C254.725 33.7971 258.066 35.2251 261.089 34.7491C262.998 34.4317 264.589 33.6384 266.021 32.2103C267.294 30.941 268.249 29.0369 267.771 27.2915C267.453 26.3395 266.34 26.1808 265.703 26.4982Z" fill="white"/>
<path d="M276.684 26.1808C276.525 24.5941 276.206 23.0074 276.047 21.5793C275.888 19.9926 275.57 18.4059 275.252 16.9779C274.934 15.2325 274.456 13.6458 273.979 12.0591C273.661 11.107 272.07 10.631 271.911 11.9004C271.911 13.6458 271.751 15.2325 271.911 16.8192C272.07 18.4059 272.229 19.9926 272.388 21.5793C272.547 23.1661 272.706 24.7528 272.865 26.3395C273.024 27.9262 273.024 30.465 275.093 30.6236C277.479 30.465 277.002 27.4502 276.684 26.1808Z" fill="white"/>
</g>
<defs>
<clipPath id="clip0_7_3051">
<rect width="277" height="43" fill="white"/>
</clipPath>
</defs>
</svg>
