<svg width="220" height="53" viewBox="0 0 220 53" fill="none" xmlns="http://www.w3.org/2000/svg">
<g clip-path="url(#clip0_7_3104)">
<path d="M9.22156 0.559864C5.45766 1.67958 2.82293 3.54578 1.69376 6.15845C0.940975 8.21127 1.12917 11.9437 2.25834 13.6232C3.9521 16.0493 6.77502 17.3556 13.3618 18.8486C20.8896 20.5282 22.7716 21.8345 22.7716 25.3803C22.7716 28.9261 19.7605 31.1655 14.6792 31.3521C11.2917 31.5387 9.03336 30.9789 7.15141 29.4859C5.64585 28.3662 4.14029 25.7535 4.14029 24.2606V23.3275H2.25834H0L0.188195 24.6338C0.940975 29.6725 3.7639 33.0317 8.65697 34.338C11.2917 35.0845 16.7494 35.0845 19.3841 34.1514C24.6536 32.4718 27.4765 28.9261 27.1001 24.0739C26.9119 21.8345 26.1591 20.1549 24.089 18.4754C22.3952 16.9824 20.7015 16.4225 13.9264 14.9296C7.15141 13.4366 4.70488 11.3838 5.64585 7.83803C6.39863 5.03874 9.03336 3.54578 13.1737 3.54578C16.1848 3.54578 18.0667 4.10564 19.5723 5.5986C20.7015 6.71831 21.6424 8.39789 21.6424 9.51761V10.4507H23.7126H25.9709L25.7827 8.95775C25.4063 5.41198 22.7716 2.05282 19.1959 0.746483C16.9376 4.61936e-06 11.6681 -0.186615 9.22156 0.559864Z" fill="black"/>
<path d="M54.1985 25.5669C52.5048 29.1127 49.3054 31.1655 44.977 31.3521C41.9658 31.5387 40.8367 31.3521 39.3311 30.2324C37.4491 29.1127 36.5082 27.2465 36.5082 25.1937C36.5082 21.088 38.9547 19.5951 48.5527 18.1021C51.1874 17.7289 53.8221 17.169 54.1985 16.9824L54.9513 16.6092V20.1549C55.1395 23.5141 55.1395 23.7007 54.1985 25.5669ZM42.154 0.559854C37.261 1.86619 34.438 4.85211 33.4971 9.89084V11.1972H35.5672H37.6373L37.8255 9.89084C38.3901 5.59859 41.4012 3.54577 46.6707 3.54577C50.9992 3.54577 53.6339 4.85211 54.5749 7.27816C54.9513 8.39788 54.9513 11.5704 54.5749 12.5035C54.0103 13.8099 53.0693 14.1831 47.0471 14.9296C39.3311 15.8627 36.8846 16.7958 34.6262 19.0352C32.7443 20.9014 32.1797 22.2077 32.1797 25.5669C32.1797 27.4331 32.3679 27.993 33.1207 29.6725C34.8144 33.2183 38.0137 34.7113 43.4714 34.7113C48.1763 34.7113 51.3756 33.4049 53.8221 30.2324C54.5749 29.2993 55.1395 28.5528 55.3277 28.5528C55.5159 28.5528 55.5159 28.9261 55.5159 29.4859C55.5159 30.9789 56.2687 32.4718 57.0214 33.0317C57.9624 33.5915 60.2207 33.9648 61.7263 33.7782L62.8555 33.5915V31.912V30.2324H61.7263C60.4089 30.2324 59.6562 29.6725 59.468 28.5528C59.468 28.1796 59.2798 23.1408 59.2798 17.3556V6.90492L58.3388 5.41197C57.3978 3.35915 55.5159 1.86619 53.2575 0.933094C50.9992 -5.11855e-06 44.7888 -0.186625 42.154 0.559854Z" fill="black"/>
<path d="M78.8546 0.559859C76.7845 1.11972 74.7143 2.7993 73.2088 4.85211L72.2678 5.97183V3.54577V0.933098H70.3859H68.5039V17.5423V34.1514H70.574H72.6442L72.8324 22.7676C73.0206 12.3169 73.0206 11.1972 73.5852 9.89085C75.4671 5.59859 77.9137 3.91901 82.2421 3.73239C84.6887 3.73239 86.1942 4.10563 87.3234 5.41197C89.3936 7.46479 89.3936 7.46479 89.3936 21.4613V34.1514H91.4637H93.5338L93.722 22.3944C93.9102 9.14437 93.9102 8.95775 96.3568 6.34507C98.0505 4.47887 99.5561 3.91901 102.755 3.91901C105.767 3.91901 107.648 4.66549 108.778 6.15845C110.283 8.21127 110.283 8.39789 110.471 21.8345V34.338H112.542H114.612V21.8345C114.612 9.70422 114.612 9.33099 113.859 7.09155C112.918 3.91901 111.036 1.8662 108.778 0.933098C107.46 0.373239 106.707 0.186619 103.696 0.186619C100.685 0.186619 99.9325 0.186619 98.6151 0.933098C96.1686 2.05282 95.2276 2.7993 93.9102 4.47887L92.7811 5.97183L92.0283 4.66549C90.1463 0.746479 84.3123 -1.11972 78.8546 0.559859Z" fill="black"/>
<path d="M170.505 0.559859C168.247 1.11972 166.553 2.42606 165.047 4.47887L163.73 6.34507V3.73239V0.933099H161.66H159.59V17.3556V33.7782H161.472H163.354L163.542 23.1408C163.73 11.9437 163.73 11.1972 165.236 8.77113C166.741 6.15845 169.376 4.47887 172.575 4.29225L174.457 4.10563V2.05282V0H173.14C172.763 0 171.258 0.18662 170.505 0.559859Z" fill="black"/>
<path d="M187.444 0.559861C182.551 1.67958 179.351 5.03873 178.787 9.51761L178.599 11.1972H180.669H182.739L182.927 9.89085C183.492 6.53169 185.562 4.47887 189.702 3.91902C192.901 3.35916 196.477 4.10564 198.547 5.41197C200.241 6.71831 201.37 9.89085 200.429 11.9437C199.865 13.6232 198.359 14.1831 192.901 14.9296C184.997 16.0493 182.363 16.7958 179.916 18.662C177.846 20.3416 177.281 22.0211 177.281 25.3803C177.281 28.3662 177.846 30.0458 179.54 31.912C181.61 34.338 186.503 35.6444 191.019 34.8979C194.407 34.338 196.289 33.4049 198.547 30.9789L200.429 28.9261L200.806 30.6056C201.37 33.2183 202.876 34.338 205.699 34.338C207.957 34.338 208.145 34.1514 208.145 32.2852V30.6056L207.016 30.7923C206.075 30.7923 205.699 30.7923 205.134 30.2324C204.57 29.6725 204.57 29.2993 204.57 25.5669V21.6479L203.817 21.8345C203.44 22.0211 202.499 22.3944 201.558 22.7676C200.241 23.3275 200.053 23.7007 199.865 24.4472C199.488 25.9401 197.795 28.3662 196.101 29.4859C192.901 31.7254 188.008 32.2852 184.997 30.7923C182.363 29.4859 181.045 26.8732 181.422 23.8873C181.986 21.2747 184.997 19.5951 190.079 18.8486C191.772 18.662 194.407 18.1021 195.913 17.9155C198.924 17.5423 201.182 16.6092 202.311 15.6761C204.193 13.9965 204.946 10.4507 204.193 7.65141C203.064 4.10564 200.617 1.8662 197.042 0.9331C194.407 1.53482e-06 189.702 1.53482e-06 187.444 0.559861Z" fill="black"/>
<path d="M122.516 11.9437C122.516 24.2606 122.705 26.8732 124.022 29.4859C125.904 33.2183 128.727 34.7113 133.808 34.8979C138.701 34.8979 142.277 33.4049 144.535 30.0458L145.664 28.3662V31.3521V34.338H147.546H149.428V17.9155V1.49296H147.358H145.288V10.824C145.288 16.0493 145.1 21.088 144.912 22.0211C144.159 26.3134 142.089 29.6725 139.077 31.1655C136.066 32.4718 130.797 31.912 128.915 30.0458C126.657 27.6197 126.468 26.1268 126.468 12.5035V0.933105H124.398H122.328V11.9437H122.516Z" fill="black"/>
<path d="M214.164 6.15846C214.164 11.0106 214.164 11.3838 214.729 11.1972C214.917 11.1972 215.858 10.8239 216.799 10.4507L218.304 9.89085V5.41198V0.933105H216.234H214.164V6.15846Z" fill="black"/>
<path d="M216.046 16.7958L214.164 17.5422V25.7535V33.9648H216.234H218.304V24.8204C218.304 19.7817 218.304 15.8627 218.116 15.8627C218.116 16.0493 217.175 16.4225 216.046 16.7958Z" fill="black"/>
<path d="M215.482 44.4155C214.353 44.6021 213.6 45.7218 213.6 46.8416C213.6 47.9613 214.541 48.8944 216.235 49.2676C217.929 49.6409 218.493 50.0141 218.493 50.574C218.493 52.0669 215.671 52.0669 214.918 50.574C214.73 50.2007 214.353 49.8275 213.977 49.8275C213.036 49.8275 213.036 50.9472 214.165 51.8803C214.918 52.6268 215.294 52.8134 216.423 52.8134C217.929 52.8134 219.434 52.2535 219.811 51.507C220.564 49.8275 219.623 48.5211 217.176 47.7747C215.671 47.4014 215.294 47.2148 215.294 46.4683C215.294 45.7218 215.482 45.7218 216.423 45.5352C217.364 45.5352 217.552 45.5352 218.117 46.2817C218.87 47.4014 219.811 47.4014 219.623 46.2817C219.434 45.162 217.176 44.0423 215.482 44.4155Z" fill="black"/>
<path d="M179.16 48.8944V53.1866H181.983C184.618 53.1866 184.806 53 184.806 52.4401C184.806 51.8803 184.806 51.6937 182.736 51.6937H180.666V48.1479V44.6021H179.913H179.16V48.8944Z" fill="black"/>
<path d="M192.899 47.9613L193.464 49.2676H192.335H191.206L191.77 47.9613C191.959 47.2148 192.335 46.6549 192.523 46.6549C192.335 46.6549 192.711 47.2148 192.899 47.9613ZM189.888 48.7077C188.947 50.9472 188.383 52.8134 188.383 53C188.383 53 188.759 53.1866 189.136 53.1866C189.7 53.1866 190.077 53 190.265 51.8803L190.829 50.7606H192.335C193.84 50.7606 194.029 50.9472 194.217 51.8803C194.405 52.6268 194.781 53 195.346 53C195.722 53 196.099 53 196.099 53C196.099 53 195.346 50.9472 194.593 48.7077C193.088 44.7887 192.899 44.6021 192.147 44.6021C191.582 44.6021 191.394 44.7887 189.888 48.7077Z" fill="black"/>
<path d="M206.637 49.8275C207.201 50.7606 206.448 51.507 204.566 51.507H202.873V50.3873V49.081H204.566C205.884 49.2676 206.448 49.4542 206.637 49.8275ZM206.26 46.2817C206.448 46.4683 206.448 47.0282 206.448 47.4014C206.26 47.9613 206.072 47.9613 204.566 47.9613H202.873V46.8416V45.7218H204.378C205.319 45.7218 206.072 45.9084 206.26 46.2817ZM201.367 48.7077V52.8134H204.002C206.448 52.8134 206.825 52.8134 207.389 52.0669C208.33 51.1338 208.519 49.6408 207.578 48.8944C207.013 48.3345 207.013 48.3345 207.389 47.7746C208.142 46.8416 207.954 45.9085 207.013 45.162C206.26 44.6021 205.696 44.6021 203.626 44.6021H201.367V48.7077Z" fill="black"/>
</g>
<defs>
<clipPath id="clip0_7_3104">
<rect width="220" height="53" fill="white"/>
</clipPath>
</defs>
</svg>
