<svg width="773" height="146" viewBox="0 0 773 146" fill="none" xmlns="http://www.w3.org/2000/svg">
<path d="M773 40.3829H0V127.362H773V40.3829Z" fill="black"/>
<path d="M703.598 111.164H696.035V134.24H703.598V111.164Z" fill="black"/>
<path d="M478.704 111.164H471.141V134.24H478.704V111.164Z" fill="black"/>
<path d="M663.333 111.164H655.77V134.24H663.333V111.164Z" fill="black"/>
<path d="M438.442 111.164H430.879V134.24H438.442V111.164Z" fill="black"/>
<path d="M577.469 111.164H569.906V134.24H577.469V111.164Z" fill="black"/>
<path d="M352.579 111.164H345.016V134.24H352.579V111.164Z" fill="black"/>
<path d="M292.071 111.164H284.508V134.24H292.071V111.164Z" fill="black"/>
<path d="M691.364 111.164H683.801V134.24H691.364V111.164Z" fill="black"/>
<path d="M466.469 111.164H458.906V134.24H466.469V111.164Z" fill="black"/>
<path d="M651.098 111.164H643.535V134.24H651.098V111.164Z" fill="black"/>
<path d="M426.208 111.164H418.645V134.24H426.208V111.164Z" fill="black"/>
<path d="M565.235 111.164H557.672V134.24H565.235V111.164Z" fill="black"/>
<path d="M340.344 111.164H332.781V134.24H340.344V111.164Z" fill="black"/>
<path d="M279.837 111.164H272.273V134.24H279.837V111.164Z" fill="black"/>
<path d="M716.501 111.164H708.938V134.24H716.501V111.164Z" fill="black"/>
<path d="M491.829 111.164H484.266V134.24H491.829V111.164Z" fill="black"/>
<path d="M676.458 111.164H668.895V134.24H676.458V111.164Z" fill="black"/>
<path d="M451.567 111.164H444.004V134.24H451.567V111.164Z" fill="black"/>
<path d="M590.594 111.164H583.031V134.24H590.594V111.164Z" fill="black"/>
<path d="M365.7 111.164H358.137V134.24H365.7V111.164Z" fill="black"/>
<path d="M305.196 111.164H297.633V134.24H305.196V111.164Z" fill="black"/>
<path d="M712.719 125.365V146" stroke="black" stroke-miterlimit="10"/>
<path d="M487.824 125.365V146" stroke="black" stroke-miterlimit="10"/>
<path d="M672.453 125.365V146" stroke="black" stroke-miterlimit="10"/>
<path d="M447.785 125.365V146" stroke="black" stroke-miterlimit="10"/>
<path d="M586.812 125.365V146" stroke="black" stroke-miterlimit="10"/>
<path d="M361.918 125.365V146" stroke="black" stroke-miterlimit="10"/>
<path d="M301.414 125.365V146" stroke="black" stroke-miterlimit="10"/>
<path d="M699.816 127.583V145.556" stroke="black" stroke-miterlimit="10"/>
<path d="M474.922 127.583V145.556" stroke="black" stroke-miterlimit="10"/>
<path d="M659.551 127.583V145.556" stroke="black" stroke-miterlimit="10"/>
<path d="M434.66 127.583V145.556" stroke="black" stroke-miterlimit="10"/>
<path d="M573.688 127.583V145.556" stroke="black" stroke-miterlimit="10"/>
<path d="M348.797 127.583V145.556" stroke="black" stroke-miterlimit="10"/>
<path d="M288.289 127.583V145.556" stroke="black" stroke-miterlimit="10"/>
<path d="M687.582 128.249V146" stroke="black" stroke-miterlimit="10"/>
<path d="M462.688 128.249V146" stroke="black" stroke-miterlimit="10"/>
<path d="M647.316 128.249V146" stroke="black" stroke-miterlimit="10"/>
<path d="M422.426 128.249V146" stroke="black" stroke-miterlimit="10"/>
<path d="M561.453 128.249V146" stroke="black" stroke-miterlimit="10"/>
<path d="M336.562 128.249V146" stroke="black" stroke-miterlimit="10"/>
<path d="M276.055 128.249V146" stroke="black" stroke-miterlimit="10"/>
<path d="M47.6022 14.2006H40.0391V37.2765H47.6022V14.2006Z" fill="black"/>
<path d="M512.735 14.2006H505.172V37.2765H512.735V14.2006Z" fill="black"/>
<path d="M199.087 14.2006H191.523V37.2765H199.087V14.2006Z" fill="black"/>
<path d="M664.001 14.2006H656.438V37.2765H664.001V14.2006Z" fill="black"/>
<path d="M87.864 14.2006H80.3008V37.2765H87.864V14.2006Z" fill="black"/>
<path d="M553.001 14.2006H545.438V37.2765H553.001V14.2006Z" fill="black"/>
<path d="M239.13 14.2006H231.566V37.2765H239.13V14.2006Z" fill="black"/>
<path d="M704.262 14.2006H696.699V37.2765H704.262V14.2006Z" fill="black"/>
<path d="M60.0593 14.2006H52.4961V37.2765H60.0593V14.2006Z" fill="black"/>
<path d="M524.969 14.2006H517.406V37.2765H524.969V14.2006Z" fill="black"/>
<path d="M211.321 14.2006H203.758V37.2765H211.321V14.2006Z" fill="black"/>
<path d="M676.458 14.2006H668.895V37.2765H676.458V14.2006Z" fill="black"/>
<path d="M100.098 14.2006H92.5352V37.2765H100.098V14.2006Z" fill="black"/>
<path d="M565.235 14.2006H557.672V37.2765H565.235V14.2006Z" fill="black"/>
<path d="M251.587 14.2006H244.023V37.2765H251.587V14.2006Z" fill="black"/>
<path d="M716.497 14.2006H708.934V37.2765H716.497V14.2006Z" fill="black"/>
<path d="M34.6999 14.2006H27.1367V37.2765H34.6999V14.2006Z" fill="black"/>
<path d="M499.833 14.2006H492.27V37.2765H499.833V14.2006Z" fill="black"/>
<path d="M185.962 14.2006H178.398V37.2765H185.962V14.2006Z" fill="black"/>
<path d="M651.098 14.2006H643.535V37.2765H651.098V14.2006Z" fill="black"/>
<path d="M74.9616 14.2006H67.3984V37.2765H74.9616V14.2006Z" fill="black"/>
<path d="M539.876 14.2006H532.312V37.2765H539.876V14.2006Z" fill="black"/>
<path d="M226.227 14.2006H218.664V37.2765H226.227V14.2006Z" fill="black"/>
<path d="M691.36 14.2006H683.797V37.2765H691.36V14.2006Z" fill="black"/>
<path d="M30.918 49.7021V19.7477" stroke="black" stroke-miterlimit="10"/>
<path d="M495.832 49.7021V19.7477" stroke="black" stroke-miterlimit="10"/>
<path d="M182.18 49.7021V19.7477" stroke="black" stroke-miterlimit="10"/>
<path d="M647.316 49.7021V19.7477" stroke="black" stroke-miterlimit="10"/>
<path d="M71.1797 49.7021V19.7477" stroke="black" stroke-miterlimit="10"/>
<path d="M536.094 49.7021V19.7477" stroke="black" stroke-miterlimit="10"/>
<path d="M222.445 49.7021V19.7477" stroke="black" stroke-miterlimit="10"/>
<path d="M687.578 49.7021V19.7477" stroke="black" stroke-miterlimit="10"/>
<path d="M96.3164 0V20.6353" stroke="black" stroke-miterlimit="10"/>
<path d="M248.027 0V20.6353" stroke="black" stroke-miterlimit="10"/>
<path d="M561.898 0V20.6353" stroke="black" stroke-miterlimit="10"/>
<path d="M713.16 0V20.6353" stroke="black" stroke-miterlimit="10"/>
<path d="M55.832 0V20.6353" stroke="black" stroke-miterlimit="10"/>
<path d="M207.539 0V20.6353" stroke="black" stroke-miterlimit="10"/>
<path d="M521.188 0V20.6353" stroke="black" stroke-miterlimit="10"/>
<path d="M672.453 0V20.6353" stroke="black" stroke-miterlimit="10"/>
<path d="M43.8203 46.5957V20.6353" stroke="black" stroke-miterlimit="10"/>
<path d="M508.953 46.5957V20.6353" stroke="black" stroke-miterlimit="10"/>
<path d="M195.082 46.5957V20.6353" stroke="black" stroke-miterlimit="10"/>
<path d="M660.219 46.5957V20.6353" stroke="black" stroke-miterlimit="10"/>
<path d="M84.082 46.5957V20.6353" stroke="black" stroke-miterlimit="10"/>
<path d="M549.219 46.5957V20.6353" stroke="black" stroke-miterlimit="10"/>
<path d="M235.348 46.5957V20.6353" stroke="black" stroke-miterlimit="10"/>
<path d="M700.48 46.5957V20.6353" stroke="black" stroke-miterlimit="10"/>
<path d="M84.082 2.21887V19.9696" stroke="black" stroke-miterlimit="10"/>
<path d="M235.793 2.21887V19.9696" stroke="black" stroke-miterlimit="10"/>
<path d="M549.664 2.21887V19.9696" stroke="black" stroke-miterlimit="10"/>
<path d="M700.926 2.21887V19.9696" stroke="black" stroke-miterlimit="10"/>
<path d="M43.8203 2.21887V19.9696" stroke="black" stroke-miterlimit="10"/>
<path d="M195.527 2.21887V19.9696" stroke="black" stroke-miterlimit="10"/>
<path d="M509.398 2.21887V19.9696" stroke="black" stroke-miterlimit="10"/>
<path d="M660.664 2.21887V19.9696" stroke="black" stroke-miterlimit="10"/>
<path d="M56.0547 45.4863V19.7477" stroke="black" stroke-miterlimit="10"/>
<path d="M521.188 45.4863V19.7477" stroke="black" stroke-miterlimit="10"/>
<path d="M207.539 45.4863V19.7477" stroke="black" stroke-miterlimit="10"/>
<path d="M672.453 45.4863V19.7477" stroke="black" stroke-miterlimit="10"/>
<path d="M96.3164 45.4863V19.7477" stroke="black" stroke-miterlimit="10"/>
<path d="M561.453 45.4863V19.7477" stroke="black" stroke-miterlimit="10"/>
<path d="M247.805 45.4863V19.7477" stroke="black" stroke-miterlimit="10"/>
<path d="M712.715 45.4863V19.7477" stroke="black" stroke-miterlimit="10"/>
<path d="M71.1797 2.88452V20.6353" stroke="black" stroke-miterlimit="10"/>
<path d="M222.891 2.88452V20.6353" stroke="black" stroke-miterlimit="10"/>
<path d="M536.539 2.88452V20.6353" stroke="black" stroke-miterlimit="10"/>
<path d="M687.801 2.88452V20.6353" stroke="black" stroke-miterlimit="10"/>
<path d="M30.4727 2.88452V20.6353" stroke="black" stroke-miterlimit="10"/>
<path d="M182.18 2.88452V20.6353" stroke="black" stroke-miterlimit="10"/>
<path d="M495.832 2.88452V20.6353" stroke="black" stroke-miterlimit="10"/>
<path d="M647.316 2.88452V20.6353" stroke="black" stroke-miterlimit="10"/>
<path d="M153.368 60.514H148.088V58.6H160.826V60.514H155.546V74H153.368V60.514ZM178.942 70.15H170.758L169.064 74H166.798L173.772 58.6H175.95L182.946 74H180.636L178.942 70.15ZM178.172 68.39L174.85 60.844L171.528 68.39H178.172ZM196.168 67.158L193.352 70.018V74H191.152V58.6H193.352V67.202L201.712 58.6H204.22L197.642 65.53L204.638 74H202.064L196.168 67.158ZM246.447 58.6L241.299 74H238.989L234.787 61.702L230.585 74H228.231L223.083 58.6H225.349L229.507 71.118L233.841 58.6H235.865L240.111 71.184L244.357 58.6H246.447ZM255.545 58.6H257.745V72.086H266.083V74H255.545V58.6ZM253.257 67.334L260.209 62.054L261.177 63.286L254.225 68.566L253.257 67.334ZM284.323 70.15H276.139L274.445 74H272.179L279.153 58.6H281.331L288.327 74H286.017L284.323 70.15ZM283.553 68.39L280.231 60.844L276.909 68.39H283.553ZM301.021 74.176C299.862 74.176 298.74 74 297.655 73.648C296.584 73.2813 295.741 72.812 295.125 72.24L295.939 70.524C296.525 71.052 297.273 71.4847 298.183 71.822C299.107 72.1447 300.053 72.306 301.021 72.306C302.297 72.306 303.25 72.0933 303.881 71.668C304.511 71.228 304.827 70.6487 304.827 69.93C304.827 69.402 304.651 68.9767 304.299 68.654C303.961 68.3167 303.536 68.06 303.023 67.884C302.524 67.708 301.813 67.51 300.889 67.29C299.73 67.0113 298.791 66.7327 298.073 66.454C297.369 66.1753 296.76 65.75 296.247 65.178C295.748 64.5913 295.499 63.8067 295.499 62.824C295.499 62.0027 295.711 61.262 296.137 60.602C296.577 59.942 297.237 59.414 298.117 59.018C298.997 58.622 300.089 58.424 301.395 58.424C302.304 58.424 303.199 58.5413 304.079 58.776C304.959 59.0107 305.714 59.348 306.345 59.788L305.619 61.548C304.973 61.1373 304.284 60.8293 303.551 60.624C302.817 60.404 302.099 60.294 301.395 60.294C300.148 60.294 299.209 60.5213 298.579 60.976C297.963 61.4307 297.655 62.0173 297.655 62.736C297.655 63.264 297.831 63.6967 298.183 64.034C298.535 64.3567 298.967 64.6133 299.481 64.804C300.009 64.98 300.72 65.1707 301.615 65.376C302.773 65.6547 303.705 65.9333 304.409 66.212C305.113 66.4907 305.714 66.916 306.213 67.488C306.726 68.06 306.983 68.83 306.983 69.798C306.983 70.6047 306.763 71.3453 306.323 72.02C305.883 72.68 305.215 73.208 304.321 73.604C303.426 73.9853 302.326 74.176 301.021 74.176ZM302.649 54.486H305.333L301.637 57.346H299.657L302.649 54.486ZM329.349 58.6V74H327.545L318.305 62.516V74H316.105V58.6H317.909L327.149 70.084V58.6H329.349ZM339.867 58.6H342.067V74H339.867V58.6ZM363.761 72.086V74H352.585V58.6H363.453V60.514H354.785V65.244H362.507V67.114H354.785V72.086H363.761ZM396.554 72.086V74H383.684V72.504L393.364 60.514H383.838V58.6H396.268V60.096L386.632 72.086H396.554ZM415.711 74L412.389 69.27C411.979 69.2993 411.656 69.314 411.421 69.314H407.615V74H405.415V58.6H411.421C413.416 58.6 414.985 59.0767 416.129 60.03C417.273 60.9833 417.845 62.296 417.845 63.968C417.845 65.156 417.552 66.168 416.965 67.004C416.379 67.84 415.543 68.4487 414.457 68.83L418.109 74H415.711ZM411.355 67.444C412.749 67.444 413.812 67.1433 414.545 66.542C415.279 65.9407 415.645 65.0827 415.645 63.968C415.645 62.8533 415.279 62.0027 414.545 61.416C413.812 60.8147 412.749 60.514 411.355 60.514H407.615V67.444H411.355ZM434.26 74.176C432.705 74.176 431.305 73.8387 430.058 73.164C428.811 72.4747 427.829 71.5287 427.11 70.326C426.406 69.1233 426.054 67.7813 426.054 66.3C426.054 64.8187 426.406 63.4767 427.11 62.274C427.829 61.0713 428.811 60.1327 430.058 59.458C431.305 58.7687 432.705 58.424 434.26 58.424C435.8 58.424 437.193 58.7687 438.44 59.458C439.687 60.1327 440.662 61.0713 441.366 62.274C442.07 63.462 442.422 64.804 442.422 66.3C442.422 67.796 442.07 69.1453 441.366 70.348C440.662 71.536 439.687 72.4747 438.44 73.164C437.193 73.8387 435.8 74.176 434.26 74.176ZM434.26 72.218C435.389 72.218 436.401 71.9613 437.296 71.448C438.205 70.9347 438.917 70.2307 439.43 69.336C439.958 68.4267 440.222 67.4147 440.222 66.3C440.222 65.1853 439.958 64.1807 439.43 63.286C438.917 62.3767 438.205 61.6653 437.296 61.152C436.401 60.6387 435.389 60.382 434.26 60.382C433.131 60.382 432.104 60.6387 431.18 61.152C430.271 61.6653 429.552 62.3767 429.024 63.286C428.511 64.1807 428.254 65.1853 428.254 66.3C428.254 67.4147 428.511 68.4267 429.024 69.336C429.552 70.2307 430.271 70.9347 431.18 71.448C432.104 71.9613 433.131 72.218 434.26 72.218ZM451.693 58.6H458.183C459.811 58.6 461.255 58.9227 462.517 59.568C463.778 60.2133 464.753 61.1227 465.443 62.296C466.147 63.4547 466.499 64.7893 466.499 66.3C466.499 67.8107 466.147 69.1527 465.443 70.326C464.753 71.4847 463.778 72.3867 462.517 73.032C461.255 73.6773 459.811 74 458.183 74H451.693V58.6ZM458.051 72.086C459.297 72.086 460.39 71.844 461.329 71.36C462.282 70.876 463.015 70.2013 463.529 69.336C464.042 68.456 464.299 67.444 464.299 66.3C464.299 65.156 464.042 64.1513 463.529 63.286C463.015 62.406 462.282 61.724 461.329 61.24C460.39 60.756 459.297 60.514 458.051 60.514H453.893V72.086H458.051ZM487.283 72.086V74H474.413V72.504L484.093 60.514H474.567V58.6H486.997V60.096L477.361 72.086H487.283ZM496.144 58.6H498.344V74H496.144V58.6ZM509.039 58.6H511.239V72.086H519.577V74H509.039V58.6ZM506.751 67.334L513.703 62.054L514.671 63.286L507.719 68.566L506.751 67.334ZM537.817 70.15H529.633L527.939 74H525.673L532.647 58.6H534.825L541.821 74H539.511L537.817 70.15ZM537.047 68.39L533.725 60.844L530.403 68.39H537.047ZM566.331 74.176C565.173 74.176 564.051 74 562.965 73.648C561.895 73.2813 561.051 72.812 560.435 72.24L561.249 70.524C561.836 71.052 562.584 71.4847 563.493 71.822C564.417 72.1447 565.363 72.306 566.331 72.306C567.607 72.306 568.561 72.0933 569.191 71.668C569.822 71.228 570.137 70.6487 570.137 69.93C570.137 69.402 569.961 68.9767 569.609 68.654C569.272 68.3167 568.847 68.06 568.333 67.884C567.835 67.708 567.123 67.51 566.199 67.29C565.041 67.0113 564.102 66.7327 563.383 66.454C562.679 66.1753 562.071 65.75 561.557 65.178C561.059 64.5913 560.809 63.8067 560.809 62.824C560.809 62.0027 561.022 61.262 561.447 60.602C561.887 59.942 562.547 59.414 563.427 59.018C564.307 58.622 565.4 58.424 566.705 58.424C567.615 58.424 568.509 58.5413 569.389 58.776C570.269 59.0107 571.025 59.348 571.655 59.788L570.929 61.548C570.284 61.1373 569.595 60.8293 568.861 60.624C568.128 60.404 567.409 60.294 566.705 60.294C565.459 60.294 564.52 60.5213 563.889 60.976C563.273 61.4307 562.965 62.0173 562.965 62.736C562.965 63.264 563.141 63.6967 563.493 64.034C563.845 64.3567 564.278 64.6133 564.791 64.804C565.319 64.98 566.031 65.1707 566.925 65.376C568.084 65.6547 569.015 65.9333 569.719 66.212C570.423 66.4907 571.025 66.916 571.523 67.488C572.037 68.06 572.293 68.83 572.293 69.798C572.293 70.6047 572.073 71.3453 571.633 72.02C571.193 72.68 570.526 73.208 569.631 73.604C568.737 73.9853 567.637 74.176 566.331 74.176ZM581.415 58.6H583.615V74H581.415V58.6ZM605.31 72.086V74H594.134V58.6H605.002V60.514H596.334V65.244H604.056V67.114H596.334V72.086H605.31ZM603.814 78.928C602.993 78.928 602.348 78.7227 601.878 78.312C601.409 77.916 601.174 77.3807 601.174 76.706C601.174 76.0607 601.424 75.4373 601.922 74.836C602.421 74.2493 603.22 73.736 604.32 73.296L605.31 74C604.372 74.4107 603.697 74.8213 603.286 75.232C602.89 75.6573 602.692 76.0973 602.692 76.552C602.692 76.904 602.817 77.1827 603.066 77.388C603.316 77.5933 603.638 77.696 604.034 77.696C604.577 77.696 605.032 77.5713 605.398 77.322L605.794 78.4C605.237 78.752 604.577 78.928 603.814 78.928ZM163.554 88.6V104H161.354V97.136H152.51V104H150.31V88.6H152.51V95.222H161.354V88.6H163.554ZM174.072 88.6H176.272V104H174.072V88.6ZM191.278 104.176C190.12 104.176 188.998 104 187.912 103.648C186.842 103.281 185.998 102.812 185.382 102.24L186.196 100.524C186.783 101.052 187.531 101.485 188.44 101.822C189.364 102.145 190.31 102.306 191.278 102.306C192.554 102.306 193.508 102.093 194.138 101.668C194.769 101.228 195.084 100.649 195.084 99.93C195.084 99.402 194.908 98.9767 194.556 98.654C194.219 98.3167 193.794 98.06 193.28 97.884C192.782 97.708 192.07 97.51 191.146 97.29C189.988 97.0113 189.049 96.7327 188.33 96.454C187.626 96.1753 187.018 95.75 186.504 95.178C186.006 94.5913 185.756 93.8067 185.756 92.824C185.756 92.0027 185.969 91.262 186.394 90.602C186.834 89.942 187.494 89.414 188.374 89.018C189.254 88.622 190.347 88.424 191.652 88.424C192.562 88.424 193.456 88.5413 194.336 88.776C195.216 89.0107 195.972 89.348 196.602 89.788L195.876 91.548C195.231 91.1373 194.542 90.8293 193.808 90.624C193.075 90.404 192.356 90.294 191.652 90.294C190.406 90.294 189.467 90.5213 188.836 90.976C188.22 91.4307 187.912 92.0173 187.912 92.736C187.912 93.264 188.088 93.6967 188.44 94.034C188.792 94.3567 189.225 94.6133 189.738 94.804C190.266 94.98 190.978 95.1707 191.872 95.376C193.031 95.6547 193.962 95.9333 194.666 96.212C195.37 96.4907 195.972 96.916 196.47 97.488C196.984 98.06 197.24 98.83 197.24 99.798C197.24 100.605 197.02 101.345 196.58 102.02C196.14 102.68 195.473 103.208 194.578 103.604C193.684 103.985 192.584 104.176 191.278 104.176ZM209.421 90.514H204.141V88.6H216.879V90.514H211.599V104H209.421V90.514ZM232.135 104.176C230.58 104.176 229.18 103.839 227.933 103.164C226.686 102.475 225.704 101.529 224.985 100.326C224.281 99.1233 223.929 97.7813 223.929 96.3C223.929 94.8187 224.281 93.4767 224.985 92.274C225.704 91.0713 226.686 90.1327 227.933 89.458C229.18 88.7687 230.58 88.424 232.135 88.424C233.675 88.424 235.068 88.7687 236.315 89.458C237.562 90.1327 238.537 91.0713 239.241 92.274C239.945 93.462 240.297 94.804 240.297 96.3C240.297 97.796 239.945 99.1453 239.241 100.348C238.537 101.536 237.562 102.475 236.315 103.164C235.068 103.839 233.675 104.176 232.135 104.176ZM232.135 102.218C233.264 102.218 234.276 101.961 235.171 101.448C236.08 100.935 236.792 100.231 237.305 99.336C237.833 98.4267 238.097 97.4147 238.097 96.3C238.097 95.1853 237.833 94.1807 237.305 93.286C236.792 92.3767 236.08 91.6653 235.171 91.152C234.276 90.6387 233.264 90.382 232.135 90.382C231.006 90.382 229.979 90.6387 229.055 91.152C228.146 91.6653 227.427 92.3767 226.899 93.286C226.386 94.1807 226.129 95.1853 226.129 96.3C226.129 97.4147 226.386 98.4267 226.899 99.336C227.427 100.231 228.146 100.935 229.055 101.448C229.979 101.961 231.006 102.218 232.135 102.218ZM259.864 104L256.542 99.27C256.131 99.2993 255.808 99.314 255.574 99.314H251.768V104H249.568V88.6H255.574C257.568 88.6 259.138 89.0767 260.282 90.03C261.426 90.9833 261.998 92.296 261.998 93.968C261.998 95.156 261.704 96.168 261.118 97.004C260.531 97.84 259.695 98.4487 258.61 98.83L262.262 104H259.864ZM255.508 97.444C256.901 97.444 257.964 97.1433 258.698 96.542C259.431 95.9407 259.798 95.0827 259.798 93.968C259.798 92.8533 259.431 92.0027 258.698 91.416C257.964 90.8147 256.901 90.514 255.508 90.514H251.768V97.444H255.508ZM271.46 88.6H273.66V104H271.46V88.6ZM293.991 100.15H285.807L284.113 104H281.847L288.821 88.6H290.999L297.995 104H295.685L293.991 100.15ZM293.221 98.39L289.899 90.844L286.577 98.39H293.221Z" fill="white"/>
<path d="M321.512 104.312C320.281 104.312 319.146 104.087 318.106 103.636C317.083 103.168 316.243 102.509 315.584 101.66L317.924 98.852C318.912 100.187 320.039 100.854 321.304 100.854C323.02 100.854 323.878 99.8487 323.878 97.838V89.18H317.482V85.8H328.064V97.604C328.064 99.84 327.509 101.521 326.4 102.648C325.291 103.757 323.661 104.312 321.512 104.312ZM337.58 89.804C339.747 89.804 341.411 90.324 342.572 91.364C343.734 92.3867 344.314 93.938 344.314 96.018V104H340.518V102.258C339.756 103.558 338.334 104.208 336.254 104.208C335.18 104.208 334.244 104.026 333.446 103.662C332.666 103.298 332.068 102.795 331.652 102.154C331.236 101.513 331.028 100.785 331.028 99.97C331.028 98.67 331.514 97.6473 332.484 96.902C333.472 96.1567 334.989 95.784 337.034 95.784H340.258C340.258 94.9 339.99 94.224 339.452 93.756C338.915 93.2707 338.109 93.028 337.034 93.028C336.289 93.028 335.552 93.1493 334.824 93.392C334.114 93.6173 333.507 93.9293 333.004 94.328L331.548 91.494C332.311 90.9567 333.221 90.5407 334.278 90.246C335.353 89.9513 336.454 89.804 337.58 89.804ZM337.268 101.478C337.962 101.478 338.577 101.322 339.114 101.01C339.652 100.681 340.033 100.204 340.258 99.58V98.15H337.476C335.812 98.15 334.98 98.696 334.98 99.788C334.98 100.308 335.18 100.724 335.578 101.036C335.994 101.331 336.558 101.478 337.268 101.478ZM365.899 89.804C367.65 89.804 369.037 90.324 370.059 91.364C371.099 92.3867 371.619 93.9293 371.619 95.992V104H367.563V96.616C367.563 95.5067 367.329 94.6833 366.861 94.146C366.411 93.5913 365.761 93.314 364.911 93.314C363.958 93.314 363.204 93.626 362.649 94.25C362.095 94.8567 361.817 95.7667 361.817 96.98V104H357.761V96.616C357.761 94.4147 356.877 93.314 355.109 93.314C354.173 93.314 353.428 93.626 352.873 94.25C352.319 94.8567 352.041 95.7667 352.041 96.98V104H347.985V90.012H351.859V91.624C352.379 91.0347 353.012 90.584 353.757 90.272C354.52 89.96 355.352 89.804 356.253 89.804C357.241 89.804 358.134 90.0033 358.931 90.402C359.729 90.7833 360.37 91.3467 360.855 92.092C361.427 91.364 362.147 90.8007 363.013 90.402C363.897 90.0033 364.859 89.804 365.899 89.804ZM389.109 97.058C389.109 97.11 389.083 97.474 389.031 98.15H378.449C378.64 99.0167 379.09 99.7013 379.801 100.204C380.512 100.707 381.396 100.958 382.453 100.958C383.181 100.958 383.822 100.854 384.377 100.646C384.949 100.421 385.478 100.074 385.963 99.606L388.121 101.946C386.804 103.454 384.88 104.208 382.349 104.208C380.772 104.208 379.376 103.905 378.163 103.298C376.95 102.674 376.014 101.816 375.355 100.724C374.696 99.632 374.367 98.3927 374.367 97.006C374.367 95.6367 374.688 94.406 375.329 93.314C375.988 92.2047 376.88 91.3467 378.007 90.74C379.151 90.116 380.425 89.804 381.829 89.804C383.198 89.804 384.438 90.0987 385.547 90.688C386.656 91.2773 387.523 92.1267 388.147 93.236C388.788 94.328 389.109 95.602 389.109 97.058ZM381.855 92.872C380.936 92.872 380.165 93.132 379.541 93.652C378.917 94.172 378.536 94.8827 378.397 95.784H385.287C385.148 94.9 384.767 94.198 384.143 93.678C383.519 93.1407 382.756 92.872 381.855 92.872ZM396.516 104.208C395.354 104.208 394.219 104.069 393.11 103.792C392 103.497 391.116 103.133 390.458 102.7L391.81 99.788C392.434 100.187 393.188 100.516 394.072 100.776C394.956 101.019 395.822 101.14 396.672 101.14C398.388 101.14 399.246 100.715 399.246 99.866C399.246 99.4673 399.012 99.1813 398.544 99.008C398.076 98.8347 397.356 98.6873 396.386 98.566C395.242 98.3927 394.297 98.1933 393.552 97.968C392.806 97.7427 392.156 97.344 391.602 96.772C391.064 96.2 390.795 95.3853 390.795 94.328C390.795 93.444 391.047 92.664 391.55 91.988C392.07 91.2947 392.815 90.7573 393.786 90.376C394.774 89.9947 395.935 89.804 397.27 89.804C398.258 89.804 399.237 89.9167 400.208 90.142C401.196 90.35 402.01 90.6447 402.652 91.026L401.3 93.912C400.069 93.2187 398.726 92.872 397.27 92.872C396.403 92.872 395.753 92.9933 395.32 93.236C394.886 93.4787 394.67 93.7907 394.67 94.172C394.67 94.6053 394.904 94.9087 395.372 95.082C395.84 95.2553 396.585 95.42 397.608 95.576C398.752 95.7667 399.688 95.9747 400.416 96.2C401.144 96.408 401.776 96.798 402.314 97.37C402.851 97.942 403.12 98.7393 403.12 99.762C403.12 100.629 402.86 101.4 402.34 102.076C401.82 102.752 401.057 103.281 400.052 103.662C399.064 104.026 397.885 104.208 396.516 104.208ZM433.416 85.8L427.462 104H422.938L418.934 91.676L414.8 104H410.302L404.322 85.8H408.69L412.798 98.592L417.088 85.8H420.988L425.148 98.696L429.386 85.8H433.416ZM440.082 89.804C442.249 89.804 443.913 90.324 445.074 91.364C446.236 92.3867 446.816 93.938 446.816 96.018V104H443.02V102.258C442.258 103.558 440.836 104.208 438.756 104.208C437.682 104.208 436.746 104.026 435.948 103.662C435.168 103.298 434.57 102.795 434.154 102.154C433.738 101.513 433.53 100.785 433.53 99.97C433.53 98.67 434.016 97.6473 434.986 96.902C435.974 96.1567 437.491 95.784 439.536 95.784H442.76C442.76 94.9 442.492 94.224 441.954 93.756C441.417 93.2707 440.611 93.028 439.536 93.028C438.791 93.028 438.054 93.1493 437.326 93.392C436.616 93.6173 436.009 93.9293 435.506 94.328L434.05 91.494C434.813 90.9567 435.723 90.5407 436.78 90.246C437.855 89.9513 438.956 89.804 440.082 89.804ZM439.77 101.478C440.464 101.478 441.079 101.322 441.616 101.01C442.154 100.681 442.535 100.204 442.76 99.58V98.15H439.978C438.314 98.15 437.482 98.696 437.482 99.788C437.482 100.308 437.682 100.724 438.08 101.036C438.496 101.331 439.06 101.478 439.77 101.478ZM450.487 84.708H454.543V104H450.487V84.708ZM464.314 98.514L462.364 100.438V104H458.308V84.708H462.364V95.628L468.292 90.012H473.128L467.304 95.94L473.648 104H468.734L464.314 98.514ZM488.564 97.058C488.564 97.11 488.538 97.474 488.486 98.15H477.904C478.095 99.0167 478.546 99.7013 479.256 100.204C479.967 100.707 480.851 100.958 481.908 100.958C482.636 100.958 483.278 100.854 483.832 100.646C484.404 100.421 484.933 100.074 485.418 99.606L487.576 101.946C486.259 103.454 484.335 104.208 481.804 104.208C480.227 104.208 478.832 103.905 477.618 103.298C476.405 102.674 475.469 101.816 474.81 100.724C474.152 99.632 473.822 98.3927 473.822 97.006C473.822 95.6367 474.143 94.406 474.784 93.314C475.443 92.2047 476.336 91.3467 477.462 90.74C478.606 90.116 479.88 89.804 481.284 89.804C482.654 89.804 483.893 90.0987 485.002 90.688C486.112 91.2773 486.978 92.1267 487.602 93.236C488.244 94.328 488.564 95.602 488.564 97.058ZM481.31 92.872C480.392 92.872 479.62 93.132 478.996 93.652C478.372 94.172 477.991 94.8827 477.852 95.784H484.742C484.604 94.9 484.222 94.198 483.598 93.678C482.974 93.1407 482.212 92.872 481.31 92.872ZM495.139 91.858C495.624 91.182 496.274 90.6707 497.089 90.324C497.921 89.9773 498.874 89.804 499.949 89.804V93.548C499.498 93.5133 499.195 93.496 499.039 93.496C497.877 93.496 496.967 93.8253 496.309 94.484C495.65 95.1253 495.321 96.096 495.321 97.396V104H491.265V90.012H495.139V91.858ZM507.926 89.804C510.093 89.804 511.757 90.324 512.918 91.364C514.079 92.3867 514.66 93.938 514.66 96.018V104H510.864V102.258C510.101 103.558 508.68 104.208 506.6 104.208C505.525 104.208 504.589 104.026 503.792 103.662C503.012 103.298 502.414 102.795 501.998 102.154C501.582 101.513 501.374 100.785 501.374 99.97C501.374 98.67 501.859 97.6473 502.83 96.902C503.818 96.1567 505.335 95.784 507.38 95.784H510.604C510.604 94.9 510.335 94.224 509.798 93.756C509.261 93.2707 508.455 93.028 507.38 93.028C506.635 93.028 505.898 93.1493 505.17 93.392C504.459 93.6173 503.853 93.9293 503.35 94.328L501.894 91.494C502.657 90.9567 503.567 90.5407 504.624 90.246C505.699 89.9513 506.799 89.804 507.926 89.804ZM507.614 101.478C508.307 101.478 508.923 101.322 509.46 101.01C509.997 100.681 510.379 100.204 510.604 99.58V98.15H507.822C506.158 98.15 505.326 98.696 505.326 99.788C505.326 100.308 505.525 100.724 505.924 101.036C506.34 101.331 506.903 101.478 507.614 101.478ZM541.502 100.178H538.538V104H534.43V100.178H524.628V97.344L533.208 85.8H537.628L529.672 96.746H534.56V93.34H538.538V96.746H541.502V100.178ZM551.086 93.21C552.681 93.47 553.903 94.068 554.752 95.004C555.602 95.9227 556.026 97.0667 556.026 98.436C556.026 99.4933 555.749 100.473 555.194 101.374C554.64 102.258 553.79 102.969 552.646 103.506C551.52 104.043 550.133 104.312 548.486 104.312C547.204 104.312 545.938 104.147 544.69 103.818C543.46 103.471 542.411 102.986 541.544 102.362L543.182 99.138C543.876 99.658 544.673 100.065 545.574 100.36C546.493 100.637 547.429 100.776 548.382 100.776C549.44 100.776 550.272 100.577 550.878 100.178C551.485 99.762 551.788 99.1813 551.788 98.436C551.788 96.9453 550.653 96.2 548.382 96.2H546.458V93.418L550.202 89.18H542.454V85.8H555.194V88.53L551.086 93.21Z" fill="white"/>
</svg>
