<svg width="108" height="278" viewBox="0 0 108 278" fill="none" xmlns="http://www.w3.org/2000/svg">
<path d="M30.0225 17.287C30.627 17.287 30.224 16.684 29.821 16.684C29.418 16.684 29.6195 17.287 30.0225 17.287ZM29.015 17.6891C29.418 17.6891 29.2165 17.086 28.8135 17.086C28.4105 17.086 28.612 17.6891 29.015 17.6891ZM28.8135 18.0911C28.4105 18.0911 28.612 18.6941 29.015 18.6941C29.418 18.4931 29.2165 18.0911 28.8135 18.0911ZM29.6195 15.6789C29.6195 15.8799 29.6195 15.8799 29.6195 15.6789C29.6195 15.8799 29.6195 15.8799 29.6195 15.6789C29.6195 15.8799 29.6195 15.8799 29.6195 15.6789ZM29.015 15.8799C29.015 16.081 29.015 16.081 29.015 16.081C29.015 16.081 29.015 16.081 29.2165 16.081C29.2165 16.081 29.2165 16.081 29.2165 15.8799C29.2165 15.8799 29.2165 15.8799 29.015 15.8799C29.015 15.8799 29.015 15.8799 28.8135 15.8799C29.2165 15.6789 29.2165 15.6789 29.015 15.8799C29.015 15.6789 29.015 15.6789 29.015 15.8799ZM29.821 18.6941C30.224 18.6941 30.0225 18.0911 29.6195 18.0911C29.2165 18.0911 29.418 18.6941 29.821 18.6941ZM29.821 20.3022C30.224 20.3022 30.0225 19.6992 29.6195 19.6992C29.2165 19.6992 29.418 20.3022 29.821 20.3022ZM29.2165 21.1063C29.6195 21.1063 29.418 20.7042 29.015 20.7042C28.612 20.7042 28.8135 21.1063 29.2165 21.1063ZM28.4105 20.1012C29.015 20.1012 28.8135 19.4982 28.209 19.4982C27.8061 19.4982 28.0076 20.1012 28.4105 20.1012ZM28.209 19.2972C28.4105 19.2972 28.4105 19.0961 28.209 19.2972C28.209 19.0961 28.209 19.2972 28.209 19.2972ZM27.4031 18.2921C27.8061 18.2921 27.6046 17.8901 27.4031 17.8901C27.0001 18.0911 27.0001 18.2921 27.4031 18.2921ZM26.7986 23.1164V22.9154C26.7986 22.7144 26.5971 22.7144 26.3956 22.7144C25.9926 22.7144 25.9926 23.1164 25.9926 23.5184C25.9926 23.9204 26.1941 24.1215 26.3956 24.3225L26.7986 24.5235C27.2016 24.1214 27.2016 23.5184 26.7986 23.1164ZM27.2016 19.4982C27.6046 19.4982 27.4031 18.8951 27.0001 18.8951C26.5971 19.0961 26.7986 19.4982 27.2016 19.4982ZM26.7986 16.684C26.3956 16.684 26.5971 17.287 27.0001 17.287C27.4031 17.287 27.2016 16.684 26.7986 16.684ZM27.2016 17.6891C27.2016 17.6891 27.2016 17.488 27.2016 17.6891C27.0001 17.488 27.0001 17.6891 27.2016 17.6891ZM27.4031 16.282C26.7986 16.282 27.2016 16.885 27.6046 16.885C28.209 16.885 28.0076 16.282 27.4031 16.282ZM28.209 14.4729C28.209 14.2718 28.209 14.2718 28.209 14.2718C28.209 14.0708 28.209 13.8698 28.0076 13.8698C27.8061 13.8698 27.6046 13.8698 27.4031 13.8698C27.4031 14.0708 27.4031 14.0708 27.4031 14.2718C27.2016 14.4729 27.4031 14.8749 27.8061 14.8749C28.209 14.8749 28.4105 14.6739 28.209 14.4729ZM28.4105 15.2769C27.8061 15.2769 28.0076 15.8799 28.612 15.8799C29.015 15.8799 28.8135 15.2769 28.4105 15.2769ZM28.612 13.8698C28.0076 13.8698 28.209 14.4729 28.8135 14.4729C29.418 14.4729 29.2165 13.8698 28.612 13.8698ZM29.6195 11.6587C29.821 11.6587 29.6195 11.4577 29.6195 11.6587C29.418 11.4577 29.418 11.6587 29.6195 11.6587ZM29.821 13.2668C29.821 13.2668 29.821 13.0658 29.821 13.2668C29.821 13.0658 29.821 13.0658 29.821 13.0658L29.6195 12.8648C29.418 12.8648 29.418 12.8648 29.418 12.8648C29.418 12.8648 29.418 12.8648 29.418 13.0658H29.6195C29.6195 13.2668 29.6195 13.2668 29.821 13.2668C29.6195 13.2668 29.821 13.2668 29.821 13.2668ZM30.0225 14.4729C30.0225 14.4729 30.0225 14.6739 30.0225 14.4729C29.821 14.6739 29.821 14.6739 29.821 14.6739V14.8749C29.821 14.8749 30.0225 15.0759 30.224 15.0759C30.4255 15.0759 30.4255 15.0759 30.627 14.8749V14.6739C30.4255 14.6739 30.224 14.4729 30.0225 14.4729C30.224 14.4729 30.0225 14.4729 30.0225 14.4729ZM30.224 13.8698C29.821 13.8698 30.0225 14.4729 30.4255 14.4729C30.8284 14.4729 30.627 13.8698 30.224 13.8698ZM30.627 11.6587C30.224 11.6587 30.224 12.0607 30.627 12.0607C30.8284 12.0607 30.8284 11.6587 30.627 11.6587ZM30.627 13.2668C30.224 13.2668 30.4255 13.8698 30.8284 13.8698C31.2314 13.8698 31.0299 13.2668 30.627 13.2668ZM31.2314 12.8648C30.8284 12.8648 31.0299 13.2668 31.4329 13.2668C31.8359 13.2668 31.4329 12.8648 31.2314 12.8648ZM32.0374 12.0607C32.2389 12.0607 32.2389 11.8597 32.0374 12.0607C31.8359 11.8597 32.0374 12.0607 32.0374 12.0607ZM35.6643 19.4982C35.4628 19.6992 35.8658 20.1012 36.0673 19.9002C36.2687 19.9002 36.4702 19.9002 36.4702 19.6992C36.4702 19.6992 36.4702 19.9002 36.6717 19.9002C36.8732 20.1012 36.8732 20.3022 37.0747 20.3022C37.2762 20.5032 37.4777 20.5032 37.6792 20.5032C37.8807 20.5032 38.0822 20.5032 38.2837 20.5032C38.4852 20.5032 38.4852 20.5032 38.6867 20.5032C38.8882 20.5032 39.0896 20.3022 39.0896 20.3022C39.2911 20.3022 39.2911 20.1012 39.2911 20.1012L39.4926 19.9002V19.6992C39.4926 19.4982 39.4926 19.4982 39.4926 19.2972C39.8956 19.4982 40.0971 19.4982 40.2986 19.6992C40.5001 19.9002 40.9031 19.6992 40.7016 19.4982L40.5001 19.2972C40.5001 19.2972 40.7016 19.0961 40.5001 19.0961C40.2986 18.6941 39.8956 18.4931 39.4926 18.2921C39.4926 18.2921 39.0896 18.0911 38.4852 18.0911H38.2837C38.0822 18.0911 38.0822 18.0911 37.8807 18.0911C37.6792 18.0911 37.4777 18.0911 37.0747 18.2921C36.4702 18.4931 35.8658 18.6941 35.4628 19.0961C35.2613 19.0961 35.4628 19.4982 35.6643 19.4982ZM41.5076 15.2769C39.8956 13.6688 37.6792 14.0708 35.6643 14.6739C35.4628 14.6739 35.4628 14.8749 35.6643 15.0759C35.4628 15.0759 35.0598 15.2769 34.8583 15.2769C34.6568 15.4779 34.6568 15.6789 34.6568 15.8799C34.6568 16.081 34.8583 16.282 35.0598 16.282C35.4628 16.282 35.8658 16.081 36.0673 15.8799C37.6792 15.6789 39.0896 15.2769 40.7016 15.6789C40.9031 15.6789 40.9031 15.6789 41.1046 15.6789C41.3061 15.8799 41.9105 15.4779 41.5076 15.2769ZM43.321 26.3326C43.5225 26.1316 43.5225 25.9306 43.1195 25.7295C42.7165 25.5285 42.515 25.5285 42.112 25.7295C42.112 25.7295 41.9105 25.7295 41.9105 25.9306C41.9105 25.9306 41.9105 25.9306 41.709 25.9306C41.5076 25.9306 40.9031 25.7295 41.1046 25.5285C41.5076 25.1265 42.3135 25.3275 42.7165 24.9255C42.918 24.7245 42.515 24.5235 42.515 24.5235C42.3135 24.5235 42.112 24.5235 41.709 24.5235C41.5076 24.5235 41.3061 24.5235 41.1046 24.7245C40.7016 24.9255 40.5001 25.1265 40.5001 25.5285C40.5001 25.9306 40.9031 26.1316 41.1046 26.3326C41.3061 26.3326 41.709 26.5336 41.9105 26.5336L42.112 26.7346C42.3135 26.7346 42.515 26.7346 42.7165 26.7346C42.918 26.5336 42.918 26.5336 43.321 26.3326C43.1195 26.3326 43.321 26.3326 43.321 26.3326ZM50.7762 16.282C51.5822 16.282 52.3881 16.483 52.9926 16.684C53.3956 16.684 53.5971 16.483 53.1941 16.282C53.1941 16.282 53.1941 16.282 52.9926 16.282C51.5822 14.8749 48.9628 14.6739 47.1493 15.4779C46.7464 15.6789 47.1493 16.282 47.5523 16.282C48.1568 16.081 48.1568 16.081 48.3583 16.081C48.3583 16.282 48.5598 16.483 48.7613 16.483C49.3658 16.483 50.1717 16.282 50.7762 16.282ZM48.3583 20.5032C48.3583 20.7042 48.5598 20.7042 48.7613 20.9053C48.9628 21.1063 49.1643 21.1063 49.3658 21.1063C49.5673 21.1063 49.7687 21.1063 49.9702 21.1063C50.1717 21.1063 50.3732 21.1063 50.5747 20.9053L50.7762 20.7042C50.9777 20.5032 50.9777 20.3022 50.9777 20.1012C50.9777 19.9002 50.9777 19.9002 50.9777 19.6992C50.9777 19.4982 50.9777 19.4982 50.7762 19.2972C50.9777 19.2972 51.3807 19.4982 51.5822 19.6992C51.7837 19.9002 52.3881 19.6992 52.1867 19.4982V19.2972C50.7762 17.6891 48.3583 18.2921 46.7464 19.2972C46.5449 19.4982 46.7464 19.9002 46.9478 19.9002C47.5523 19.9002 47.7538 19.6992 48.1568 19.4982V19.6992V19.9002C48.3583 20.3022 48.3583 20.3022 48.3583 20.5032ZM47.5523 26.7346C48.3583 26.9356 48.5598 25.7295 48.3583 25.1265C48.1568 24.3225 47.3508 24.1215 46.5449 24.3225C46.3434 23.5184 45.5374 22.5133 44.9329 21.9103C44.7314 21.7093 44.3284 21.7093 44.3284 22.1113C44.5299 22.7144 44.9329 23.1164 45.3359 23.5184C45.7389 24.1214 46.3434 25.3275 45.1344 25.7295C44.9329 25.7295 45.1344 26.1316 45.3359 26.1316C46.1419 26.1316 46.5449 25.5285 46.5449 24.9255C46.5449 24.9255 46.5449 24.9255 46.7464 24.9255C47.1493 24.9255 47.7538 25.3275 47.7538 25.7295C47.7538 26.1316 47.5523 26.3326 47.3508 26.5336C47.3508 26.5336 47.3508 26.5336 47.3508 26.3326C46.9479 25.9306 46.3434 26.1316 45.9404 26.3326C45.5374 26.5336 45.9404 26.9356 46.1419 26.9356C46.5449 26.9356 46.7464 26.9356 47.1493 26.7346H47.3508C47.3508 26.7346 47.5523 26.7346 47.5523 26.5336V26.7346ZM42.515 32.564C41.1046 32.564 39.8956 32.1619 39.0896 31.1569C41.5076 31.7599 44.5299 31.5589 46.9478 31.3579C46.3434 32.363 43.5225 32.564 42.515 32.564ZM42.7165 30.3528C43.321 30.3528 44.3284 30.3528 45.3359 30.5538C43.724 30.5538 42.112 30.5538 40.5001 30.5538C41.1046 30.3528 41.9105 30.3528 42.7165 30.3528ZM46.7464 30.1518C45.5374 29.7498 44.127 29.5488 42.918 29.5488C41.5076 29.5488 40.2986 29.5488 39.0896 29.9508C40.0971 28.9457 41.9105 28.7447 43.1195 28.9457C43.724 28.9457 44.3284 28.9457 44.9329 28.9457C45.7389 28.9457 46.3434 29.5488 46.7464 30.1518ZM47.7538 31.5589C47.7538 31.3579 47.7538 31.3579 47.5523 31.1569V30.9559C47.5523 30.9559 47.7538 30.9559 47.5523 30.7549C47.1493 29.9508 46.5449 28.7447 45.5374 28.3427C45.5374 28.1417 45.1344 28.1417 44.9329 28.1417C44.127 28.1417 43.5225 28.1417 42.7165 28.1417C41.1046 27.9407 38.4852 28.9457 37.8807 30.3528C37.6792 30.5538 38.0822 30.9559 38.2837 30.9559C38.6867 32.564 41.1046 33.167 42.515 33.167C43.9255 33.167 46.9479 32.966 47.7538 31.5589ZM50.7762 138.497C52.5896 136.889 54.6046 135.482 56.6195 133.874C56.821 133.673 56.821 133.472 56.6195 133.271C57.0225 133.07 57.4255 132.668 57.8285 132.467C58.2314 132.266 58.8359 131.864 59.2389 131.663C59.2389 131.663 59.2389 131.663 59.4404 131.663C59.2389 132.065 59.0374 132.467 58.8359 132.869C58.6344 133.271 58.2314 133.472 58.0299 133.874C56.015 135.683 53.3956 137.492 50.7762 138.497ZM47.3508 139.503C46.7464 140.106 47.7538 140.709 48.3583 140.508C53.3956 139.503 58.0299 136.487 60.6493 132.467C61.0523 131.663 62.0598 130.658 61.0523 129.854C60.2464 129.251 59.4404 129.653 58.6344 130.256C55.8135 132.065 53.1941 133.874 50.5747 135.884C50.3732 136.085 50.3732 136.286 50.5747 136.487C49.5673 137.291 48.5598 138.497 47.3508 139.503ZM45.3359 134.075C44.9329 134.276 45.1344 134.678 45.3359 134.879C44.9329 135.281 45.7389 135.884 46.3434 135.683C47.9553 135.08 49.3658 133.874 50.7762 133.07C52.1867 132.266 53.3956 131.261 54.8061 130.457C57.0225 129.05 59.2389 127.442 60.6493 125.03C61.0523 124.427 59.8434 123.824 59.4404 124.226C54.8061 127.643 49.9702 130.859 45.3359 134.075ZM43.1195 128.045C44.7314 127.844 46.5449 127.04 48.1568 126.638C49.9702 126.236 51.7837 125.633 53.3956 125.03C53.7986 124.829 53.1941 124.628 52.9926 124.628C51.1792 125.03 49.5673 125.432 47.7538 126.035C46.1419 126.437 44.127 126.839 42.515 127.442C42.112 127.442 42.515 128.045 43.1195 128.045ZM38.8881 139.1C38.6867 141.312 39.0896 143.322 39.6941 145.332C40.2986 147.342 41.1046 149.352 41.5076 151.563C41.709 152.166 42.918 152.166 42.918 151.362C42.515 149.151 41.709 147.141 41.1046 144.93C40.5001 142.719 40.2986 140.508 40.5001 138.095C41.1046 134.075 42.515 129.251 40.5001 125.432C40.2986 125.03 39.0896 125.03 39.4926 125.633C40.2986 127.844 40.5001 130.055 40.2986 132.266C39.8956 134.477 39.0896 136.688 38.8881 139.1ZM35.4628 131.462C34.8583 133.271 35.2613 135.482 35.4628 137.291C35.6643 139.301 36.2687 141.111 36.8732 143.121C36.8732 143.523 37.6792 143.523 37.6792 143.121C37.0747 141.312 36.8732 139.301 36.6717 137.291C36.6717 136.487 36.4702 135.482 36.4702 134.678C36.4702 133.673 36.4702 132.668 36.2687 131.864C36.2687 131.462 35.4628 131.261 35.4628 131.462ZM27.0001 145.935C28.8135 145.131 30.8284 144.327 32.6419 143.322C33.0449 143.121 32.8434 142.92 32.6419 142.518C32.8434 142.317 33.0449 142.116 33.2464 141.915C33.8508 141.312 32.8434 140.508 32.2389 140.709C31.2314 140.91 30.224 141.714 29.418 142.116C28.4105 142.518 27.4031 142.92 26.5971 143.322C24.5822 144.126 22.7687 144.93 21.1568 146.136C20.5523 146.739 20.9553 147.543 21.9628 147.543C23.3732 147.342 25.1867 146.739 27.0001 145.935ZM55.8135 270.16C55.0076 270.16 55.4105 270.965 56.2165 270.965C56.821 270.965 56.418 270.16 55.8135 270.16ZM58.4329 268.351C57.4255 268.351 57.8285 269.758 58.8359 269.758C59.8434 269.758 59.4404 268.351 58.4329 268.351ZM61.0523 267.346C61.0523 267.145 61.0523 267.145 61.0523 267.145C61.0523 266.944 61.0523 266.944 61.0523 266.944C60.8508 266.743 60.6493 266.542 60.2464 266.341C60.0449 266.341 59.8434 266.341 59.8434 266.341C59.6419 266.341 59.6419 266.341 59.6419 266.542L59.4404 266.743C59.4404 266.944 59.4404 266.944 59.4404 267.145C59.4404 267.346 59.6419 267.748 60.0449 267.748H60.2464C60.4479 267.748 60.4479 267.748 60.6493 267.748H60.8508C60.8508 267.748 60.8508 267.748 61.0523 267.748C61.0523 267.748 61.2538 267.748 61.2538 267.547C61.0523 267.547 61.0523 267.547 61.0523 267.346ZM60.4479 269.959C59.4404 269.959 59.8434 271.166 60.8508 271.166C61.8583 271.166 61.4553 269.959 60.4479 269.959ZM63.0673 268.351C61.8583 268.351 62.2613 269.758 63.4702 269.758C64.4777 269.758 64.0747 268.351 63.0673 268.351ZM65.4852 267.949C65.6867 267.748 65.6867 267.748 65.6867 267.547C65.6867 267.346 65.6867 267.346 65.6867 267.145C65.6867 266.944 65.4852 266.944 65.2837 266.743C65.0822 266.743 65.0822 266.542 64.8807 266.542H64.6792C64.4777 266.542 64.4777 266.542 64.2762 266.542H64.0747C63.8732 266.542 63.8732 266.743 63.8732 266.743C63.8732 266.743 63.8732 266.944 63.6717 266.944C63.6717 267.145 63.4702 267.145 63.6717 267.346V267.547L63.8732 267.748C64.0747 267.949 64.0747 267.949 64.2762 267.949C64.2762 267.949 64.2762 267.949 64.4777 267.949H64.6792C64.8807 267.949 64.8807 267.949 65.0822 267.949C65.0822 267.949 65.0822 267.949 65.2837 267.949H65.4852C65.2837 268.15 65.2837 268.15 65.4852 267.949C65.4852 268.15 65.4852 268.15 65.4852 267.949ZM77.5747 189.153C77.3732 188.952 77.1717 188.348 77.1717 188.147C77.1717 187.946 77.1717 187.745 77.1717 187.544C77.3732 187.745 77.5747 187.946 77.7762 187.946C77.7762 188.147 77.7762 188.147 77.7762 188.348C77.7762 188.549 77.9777 189.354 77.5747 189.153ZM78.5822 188.549C78.7837 188.348 78.7837 188.348 78.5822 188.549C78.5822 188.147 78.5822 187.946 78.3807 187.745C78.3807 187.544 78.1792 187.343 77.9777 187.142C77.9777 186.941 77.7762 186.941 77.5747 186.941C77.3732 186.74 77.1717 186.74 76.9702 186.74C76.7688 186.539 76.3658 186.74 76.3658 186.941C76.1643 187.544 76.1643 188.348 76.5673 188.952C76.7688 189.354 77.1717 190.158 77.7762 190.158C78.3807 190.158 78.5822 189.555 78.5822 188.952C78.7837 188.751 78.7837 188.549 78.5822 188.549ZM93.0896 251.064C93.0896 251.265 93.0896 251.667 93.0896 251.868C92.4852 252.069 91.6792 252.672 91.2762 252.069C90.8732 251.667 91.4777 250.662 91.8807 250.26C92.2837 249.858 92.6867 249.657 93.0896 250.26C93.0896 250.461 93.0896 250.863 93.0896 251.064ZM93.2911 253.275C94.0971 252.471 94.0971 251.064 93.4926 250.059C92.8882 249.255 91.6792 249.054 91.0747 249.858C90.4702 250.662 89.8658 252.069 90.6717 252.672C91.2762 253.074 91.8807 253.074 92.6867 252.873C92.4852 253.275 93.0896 253.476 93.2911 253.275ZM106.388 253.275C105.985 253.878 105.582 254.683 104.978 254.884C104.172 255.286 103.164 254.884 102.358 254.884H102.157C102.761 254.482 102.963 253.677 102.963 253.074C103.164 251.868 102.56 248.25 100.746 247.848C101.955 247.044 103.366 246.039 104.776 246.441C106.187 246.843 106.791 248.049 106.993 249.255C107.194 250.662 106.993 252.069 106.388 253.275ZM101.552 249.858C101.754 250.059 101.754 250.461 101.754 250.662C101.552 250.461 101.552 250.26 101.149 250.059C100.948 250.059 100.948 249.858 100.746 249.858C100.948 250.059 101.149 250.059 101.552 249.858ZM100.948 251.064C101.149 251.265 101.149 251.667 101.149 251.868C101.149 252.27 100.948 252.471 100.746 252.672C100.545 252.672 100.545 252.672 100.343 252.672C100.343 252.672 100.343 252.672 100.343 252.471C100.545 252.471 100.343 252.069 100.142 252.069C99.9404 251.868 99.5374 251.868 99.5374 252.069C97.1195 252.471 94.9031 253.275 92.6867 254.281C91.2762 254.884 90.0673 255.286 88.6568 255.487C87.4479 255.688 86.2389 255.889 85.2314 256.291C85.0299 256.291 85.0299 256.492 85.0299 256.693C85.2314 255.688 85.0299 254.482 84.627 253.476H84.8284C84.8284 253.677 85.0299 253.677 85.2314 253.677C85.4329 253.677 85.6344 253.476 85.8359 253.476C87.0449 253.476 88.0523 253.074 88.6568 251.868C89.4628 250.461 89.2613 246.843 91.4777 246.843C91.6792 246.843 91.6792 246.843 91.8807 246.843C92.0822 246.843 92.0822 247.044 92.2837 247.044C92.8882 247.446 93.2911 248.451 93.8956 248.853C94.2986 249.456 95.1046 249.657 95.709 250.059C96.7165 250.26 97.5225 250.26 98.5299 250.059C99.1344 250.059 99.5374 249.858 100.142 249.858L99.9404 250.059C99.7389 250.26 100.142 250.461 100.343 250.26C100.545 250.461 100.948 250.863 100.948 251.064ZM97.724 184.127C96.7165 183.926 95.5076 184.328 94.7016 184.931C94.2986 185.132 93.8956 185.333 93.4926 185.534C93.2911 185.534 93.2911 185.735 93.0896 185.936C91.2762 184.931 88.2538 186.137 87.4479 187.745C87.2464 187.946 87.8508 188.147 88.0523 187.946C88.6568 187.343 89.2613 186.74 89.8658 186.539C89.6643 186.74 89.4628 186.941 89.4628 187.142C89.0598 187.946 89.2613 189.153 90.0673 189.756C90.2688 189.957 90.6717 189.756 90.4702 189.555C90.2688 188.751 89.8658 188.348 90.2687 187.544C90.4702 186.941 91.0747 186.539 91.6792 186.338C92.0822 186.338 92.4852 186.338 92.8882 186.338C92.0822 187.142 92.0822 188.549 91.2762 189.354C90.8732 189.756 90.2687 190.158 89.8658 190.158C89.4628 189.957 89.0598 189.555 88.6568 189.354C88.4553 188.952 88.0523 188.549 87.6493 188.147C86.6419 187.544 85.4329 187.343 84.224 187.946C84.224 187.946 84.0225 187.946 84.0225 188.147C84.0225 187.544 83.821 186.941 83.6195 186.539C83.418 186.137 83.2165 185.534 82.8135 185.132C85.4329 185.132 88.0523 183.926 90.6717 183.323C93.4926 182.519 96.3135 182.318 98.9329 181.715C99.3359 181.916 99.5374 182.318 99.7389 182.921C99.7389 183.323 99.9404 183.524 99.7389 183.926C99.5374 184.529 98.7314 184.931 98.127 184.529C98.127 183.926 97.724 183.926 97.724 184.127ZM99.5374 184.931C100.142 184.73 100.746 184.127 100.948 183.524C101.149 182.117 100.142 180.509 98.7314 180.308C98.7314 179.906 98.7314 179.504 98.7314 179.102C98.7314 178.901 98.7314 178.7 98.7314 178.298C99.3359 178.499 99.9404 178.7 100.545 179.102C101.351 179.705 101.955 180.308 102.56 181.112C102.963 181.916 103.366 183.122 102.761 184.127C101.754 184.931 100.343 185.534 99.5374 184.931ZM78.9852 191.766C78.7837 191.967 78.7837 191.967 78.5822 191.967C77.3732 192.168 76.9702 191.766 76.3658 190.761C75.9628 190.158 75.7613 189.555 75.5598 188.952C75.1568 187.745 75.1568 186.137 75.9628 185.132C75.9628 185.132 76.1643 185.132 76.1643 185.333C79.7911 185.735 79.5896 189.153 78.9852 191.766ZM82.8135 186.74C83.015 187.343 83.2165 187.946 83.2165 188.751C83.2165 189.354 83.015 189.957 83.015 190.56C83.015 190.56 83.015 190.56 83.015 190.761C82.8135 190.962 82.8135 191.163 82.612 191.163C82.612 191.163 82.612 191.364 82.4105 191.364C81.6046 191.565 80.5971 191.766 79.7911 191.967C80.1941 190.158 80.3956 188.348 79.3882 186.74C78.7837 185.735 77.5747 184.931 76.3658 184.931C77.5747 184.127 80.3956 183.926 81.0001 185.132C81.2016 185.333 81.6046 185.333 81.6046 185.132C82.209 185.534 82.612 185.936 82.8135 186.74ZM86.6419 182.318C86.8434 182.117 87.2464 182.117 87.4479 182.318C87.8508 182.519 88.2538 182.72 88.8583 182.72C88.2538 182.921 87.6493 183.122 87.0449 183.323C87.0449 183.122 87.0449 182.921 86.6419 182.921C86.2389 182.921 86.4404 182.519 86.6419 182.318ZM86.2389 183.524C85.0299 183.926 83.821 184.127 82.612 184.127C82.4105 184.127 82.4105 184.127 82.209 184.328C82.0076 184.127 81.8061 183.926 81.4031 183.725C81.2016 182.921 81.0001 181.715 81.6046 180.911C82.209 180.107 83.418 180.107 84.4255 180.107C85.4329 180.107 86.6419 180.107 87.6493 180.107C87.8508 180.107 87.8508 180.107 88.0523 180.107C88.4553 180.107 88.6568 180.308 88.4553 180.71C88.4553 181.112 88.4553 181.514 88.4553 182.117C87.6494 181.715 86.6419 181.313 85.8359 181.916C85.2314 182.318 85.4329 183.323 86.2389 183.524ZM80.1941 252.672C80.3956 252.672 80.5971 252.672 80.7986 252.471C81.4031 252.471 82.0076 252.27 82.4105 252.27C82.612 252.27 82.612 252.27 82.8135 252.27C83.6195 253.677 84.0225 255.487 83.6195 257.095C83.418 257.095 83.418 257.296 83.418 257.497C83.418 257.698 83.2165 258.1 83.015 258.301C82.612 258.904 82.209 259.507 81.6046 259.708C82.4105 257.698 82.612 253.677 80.1941 252.672ZM78.1792 257.095C78.1792 256.894 78.1792 256.894 78.1792 256.894C78.1792 256.693 78.1792 256.492 78.1792 256.492C78.1792 256.693 78.1792 256.693 78.1792 256.894C78.1792 256.693 78.1792 256.894 78.1792 257.095ZM78.1792 254.884C78.7837 255.286 78.9852 255.688 78.9852 256.291C78.7837 255.688 78.5822 255.286 78.1792 254.884ZM78.3807 258.1C78.3807 258.301 78.1792 258.301 78.1792 258.502C77.9777 258.301 77.9777 258.301 77.9777 258.1C77.9777 257.899 77.7762 257.899 77.7762 257.698C77.7762 257.899 77.9777 258.1 78.3807 258.1ZM77.3732 257.095C77.1717 256.291 76.9702 255.688 77.3732 254.884C77.7762 253.677 79.5896 252.873 80.5971 253.878C81.2016 254.683 81.4031 255.889 81.4031 256.894C81.4031 258.1 81.2016 259.105 81.0001 260.11C80.7986 260.11 80.5971 260.11 80.3956 259.909C79.7911 259.708 79.3882 259.306 78.9852 258.904C80.3956 257.698 81.0001 254.482 78.5822 254.281C78.3807 254.281 78.1792 254.482 78.1792 254.683C77.9777 254.482 77.5747 254.683 77.7762 254.884C77.9777 255.085 77.9777 255.286 77.9777 255.286C77.7762 255.286 77.5747 255.286 77.5747 255.487C77.1717 256.09 77.1717 256.693 77.3732 257.095ZM85.0299 253.275C84.8285 253.275 84.4255 253.275 84.224 253.275H84.0225C83.821 252.873 83.6195 252.27 83.2165 251.868C83.2165 251.868 83.015 251.868 83.015 251.667C83.2165 250.662 83.2165 249.456 83.418 248.451C83.6195 247.446 83.6195 246.441 83.821 245.637C84.4255 246.039 85.0299 246.441 85.6344 246.843C86.2389 247.245 86.8434 247.848 87.6493 248.049C87.4479 249.054 87.2464 250.059 86.8434 251.064C86.2389 252.069 85.6344 252.672 85.0299 253.275ZM88.2538 247.245C87.8508 246.843 87.2464 246.441 86.8434 246.039C86.2389 245.637 85.6344 245.034 84.8284 244.632C85.4329 244.431 86.2389 244.431 86.6419 244.23C87.0449 244.029 87.4479 244.029 88.0523 243.828C88.2538 244.029 88.6568 244.23 88.8583 244.431C89.2613 244.833 89.4628 245.235 89.8658 245.637C90.0673 246.039 90.4702 246.24 90.6717 246.642C89.8658 246.441 88.8583 246.642 88.2538 247.245ZM89.4628 247.245C89.0598 247.848 88.6568 248.451 88.4553 249.255C88.2538 250.26 88.0523 251.265 87.4479 252.27C87.2464 252.672 86.8434 252.873 86.6419 253.074C87.2464 252.471 87.6493 251.667 87.8508 251.064C88.0523 250.26 88.2538 249.657 88.4553 248.853C88.6568 247.848 89.0598 247.446 89.4628 247.245ZM96.515 180.911C94.5001 181.112 92.6867 181.514 90.8732 182.117C90.4702 182.318 89.8658 182.318 89.4628 182.519C89.4628 181.715 90.0673 179.906 89.0598 179.504C88.2538 179.303 87.0449 179.504 86.4404 179.504C85.6344 179.504 84.627 179.504 83.821 179.504C82.8135 179.504 81.6046 179.705 81.2016 180.71C80.7986 181.514 80.7986 182.519 81.0001 183.323C80.7986 183.323 80.5971 183.323 80.5971 183.524C79.5896 183.323 78.3807 183.524 77.5747 183.725C75.5598 184.127 74.7538 185.735 74.7538 187.544C74.7538 188.549 74.9553 189.555 75.3583 190.56C75.7613 191.364 76.3658 192.57 77.1717 192.972C77.9777 193.374 79.3882 192.972 80.1941 192.771C81.0001 192.57 82.0076 192.369 82.8135 192.168C83.2165 192.57 83.821 192.57 84.224 192.369C85.0299 191.766 85.4329 190.56 85.4329 189.555C86.4404 189.555 86.8434 190.359 87.4479 190.962C87.8508 191.364 88.4553 191.766 89.2613 192.168C90.4702 192.57 92.0822 192.57 93.0896 191.766C94.2986 190.761 94.0971 189.153 94.9031 187.946C95.3061 187.343 96.112 186.74 96.7165 186.539H96.918C96.7165 188.751 96.918 190.962 96.918 193.173C96.918 195.384 96.918 197.796 96.918 200.007C97.1195 216.49 97.321 233.174 97.724 249.657C97.724 249.858 97.724 250.059 97.9255 250.26C96.7165 250.461 95.5076 250.26 94.7016 249.255C94.0971 248.652 93.6941 248.049 93.2911 247.446C93.2911 247.245 93.2911 247.245 93.0896 247.044C92.0822 246.441 91.6792 245.436 91.0747 244.632C90.8732 244.431 90.8732 244.23 90.6717 244.029C90.8732 244.029 90.8732 243.828 90.8732 243.627C90.8732 243.426 90.8732 243.426 91.0747 243.225C91.0747 243.024 90.8732 242.622 90.6717 242.421C89.4628 241.617 88.2538 242.22 87.0449 242.622C85.8359 243.024 84.0225 243.225 83.2165 244.029C82.209 244.833 82.4105 246.642 82.209 247.848C82.0076 249.255 81.8061 250.863 82.209 252.27C81.8061 252.27 81.4031 252.27 81.0001 252.27C80.3956 252.27 79.7911 252.27 79.1867 252.672C76.7687 252.873 75.9628 255.688 76.9702 257.698C77.9777 259.909 81.0001 262.522 83.418 260.311C84.224 259.708 84.627 258.904 84.8284 258.1C87.6493 257.899 90.4702 257.095 93.0896 256.291C94.7016 255.889 96.515 254.884 98.5299 254.683C98.127 256.09 97.724 257.497 97.321 258.904C96.918 260.311 96.3135 261.718 95.709 262.924C94.5001 265.537 92.6867 268.15 90.4702 270.361C88.2538 272.372 85.6344 273.779 82.8135 274.784C81.4031 275.186 79.7911 275.387 78.3807 275.387C77.5747 275.387 76.5673 275.387 75.7613 275.186C75.1568 275.186 74.5523 274.985 73.9479 274.784C73.9479 273.98 73.7464 273.377 73.9479 272.573C73.9479 272.171 73.1419 271.769 72.9404 272.372C72.9404 272.573 72.7389 272.774 72.7389 273.176C72.3359 272.975 71.7314 272.975 71.7314 273.377C71.7314 273.578 71.5299 273.578 71.5299 273.779C71.3285 273.98 71.127 273.98 70.9255 274.181C70.724 273.98 70.5225 273.98 70.321 273.98C70.1195 273.98 70.1195 273.98 69.918 273.98C70.9255 273.779 71.9329 273.377 72.5374 272.774C72.7389 272.573 72.3359 272.372 72.1344 272.372C70.321 272.774 68.709 273.578 66.8956 273.779C66.0896 273.779 65.2837 273.98 64.4777 273.98C63.4702 273.98 62.4628 273.98 61.2538 273.98C58.6344 273.98 55.8135 273.779 53.1941 273.578H52.9926C52.5896 273.578 51.9852 273.578 51.5822 273.578C51.5822 273.377 51.3807 273.377 51.3807 273.176C53.1941 271.166 56.2165 269.959 57.627 267.547C58.6344 265.939 58.6344 264.13 58.8359 262.522C58.8359 262.12 58.8359 261.517 59.0374 261.115C59.0374 260.713 59.2389 260.512 59.6419 260.512C59.8434 260.512 60.2464 260.512 60.4479 260.311C61.4553 260.11 62.6643 260.11 63.4702 259.909C64.2762 259.909 65.0822 260.11 65.4852 260.713C65.8882 261.316 65.6867 262.321 65.4852 262.924C65.4852 263.125 65.2837 264.13 65.0822 264.532C64.8807 264.733 64.8807 264.733 65.0822 264.934C64.8807 264.934 64.4777 264.934 64.2762 264.934C63.2687 264.934 62.2613 264.934 61.2538 264.934C60.4479 264.934 59.8434 264.733 59.0374 265.135C58.6344 265.336 58.6344 265.738 59.0374 265.939C59.8434 266.341 60.6493 266.14 61.6568 266.14C62.6643 266.14 63.4702 266.14 64.4777 266.14C66.2911 266.14 68.5076 266.341 70.321 265.939H70.5225C70.724 266.341 71.127 266.743 71.127 267.145C71.3284 268.552 71.127 270.16 71.7314 271.769C71.9329 272.372 72.9404 272.573 73.1419 271.769C73.1419 271.568 73.1419 271.568 73.1419 271.367C73.3434 271.367 73.7464 271.166 73.7464 270.965C73.7464 269.356 73.5449 267.949 73.5449 266.341C73.9479 266.14 74.1493 265.939 74.1493 265.537C73.9479 263.929 73.5449 262.12 73.3434 260.512C73.1419 255.286 72.9404 250.059 72.9404 245.034C72.9404 237.395 72.9404 229.958 73.1419 222.32C73.3434 214.882 73.9479 207.244 74.1493 199.806C74.1493 196.188 74.1493 192.57 73.7464 188.952C73.3434 185.333 72.5374 181.715 71.9329 178.097C70.724 171.262 70.321 164.026 73.9479 157.795V157.996C74.5523 160.207 75.3583 162.418 76.3658 164.428C76.9702 165.634 77.5747 166.84 78.7837 167.644C78.7837 167.845 78.9852 168.046 78.9852 168.046C79.1867 168.448 79.5896 168.448 79.7911 168.448C79.9926 168.448 80.1941 168.448 80.1941 168.247C80.3956 168.247 80.3956 168.247 80.5971 168.046C81.2016 166.84 81.0001 165.634 80.5971 164.428C80.3956 163.624 80.1941 162.82 79.9926 162.016C80.5971 163.624 81.4031 165.232 82.209 166.639C83.015 167.845 84.4255 167.242 84.224 165.835C84.0225 164.629 83.6195 163.423 83.2165 162.217C82.8135 160.81 82.4105 159.604 82.209 158.197C81.8061 156.991 81.6046 155.583 81.2016 154.377C82.209 156.589 83.418 158.8 84.8284 160.81C85.6344 161.815 87.0449 163.423 88.4553 162.418C89.0598 161.815 88.8583 161.011 88.4553 160.408C88.2538 160.006 87.8508 159.604 87.6493 159.202C87.6493 158.599 87.6494 157.795 87.4479 157.192C90.0673 160.207 92.2837 163.825 94.0971 167.242C96.112 171.061 96.918 175.283 96.515 179.504C96.515 179.705 96.515 179.906 96.7165 179.906C96.7165 180.308 96.7165 180.509 96.7165 180.911C96.7165 180.911 96.7165 181.112 96.918 181.112C96.515 180.509 96.515 180.71 96.515 180.911ZM73.9479 155.181C74.7538 157.192 75.3583 159.202 75.9628 161.212C76.5673 162.82 77.1717 164.428 77.7762 165.835C76.9702 164.83 76.3658 163.423 75.9628 162.217C75.1568 160.207 74.5523 158.398 73.9479 156.388C73.9479 155.986 73.7464 155.785 73.7464 155.382C73.7464 155.382 73.7464 155.181 73.9479 155.181ZM74.5523 112.567C74.9553 116.386 74.5523 120.205 74.1493 124.025C74.1493 123.824 74.1493 123.623 74.1493 123.422C73.9479 119.602 74.1493 116.185 74.5523 112.567ZM87.8508 160.609C87.2464 161.614 86.6419 161.614 86.0374 161.011C85.8359 160.81 85.6344 160.609 85.4329 160.408C84.8285 159.604 84.4255 159.001 83.821 158.197C82.8135 156.79 82.0076 155.181 81.2016 153.573C81.2016 153.372 80.7986 153.372 80.7986 153.573C80.5971 152.367 80.1941 151.362 79.7911 150.156C79.7911 149.754 78.9852 149.754 79.1867 150.156C80.1941 153.975 81.2016 157.795 82.209 161.614C82.4105 162.418 82.612 163.423 83.015 164.227C83.015 164.629 83.821 166.237 82.612 166.036C82.4105 166.036 82.0076 165.232 82.0076 165.031C81.0001 163.222 80.1941 161.413 79.3882 159.604C79.3882 159.403 79.1867 159.403 78.9852 159.403C78.1792 156.589 77.5747 153.975 77.1717 151.161C77.1717 150.759 76.3658 150.759 76.3658 151.161C76.7688 153.975 77.3732 156.589 78.1792 159.202C78.5822 160.609 78.9852 161.815 79.1867 163.222C79.5896 164.428 79.7911 165.433 79.7911 166.639C79.5896 166.639 79.3882 166.639 79.1867 166.84C78.1792 165.232 77.5747 163.222 76.9702 161.614C76.3658 159.604 75.7613 157.594 74.9553 155.583C74.7538 154.779 74.3508 153.975 73.9479 153.171C73.5449 151.764 73.3434 150.558 72.9404 149.151C72.5374 147.342 72.5374 145.533 72.3359 143.724C72.3359 141.111 72.3359 138.296 72.9404 135.683C73.3434 133.472 73.9479 131.462 74.3508 129.251C74.9553 125.834 75.1568 122.215 75.3583 118.798C75.5598 115.783 75.5598 112.969 74.9553 109.954C75.3583 106.939 75.9628 103.923 76.5673 100.908C76.5673 100.707 75.9628 100.506 75.9628 100.707C75.3583 102.918 74.7538 105.129 74.3508 107.542C73.7464 105.933 73.1419 104.124 72.5374 102.516C72.3359 101.712 72.1344 100.908 71.9329 99.9031C71.9329 99.9031 71.9329 99.9031 71.9329 99.7021V99.5011C72.1344 99.5011 72.1344 99.5011 72.3359 99.3C73.3434 98.898 74.3508 97.893 75.1568 97.2899C75.9628 96.6869 76.7688 96.0838 77.5747 95.4808C79.5896 96.0838 82.209 95.2798 83.821 94.8778C84.224 94.6768 84.627 94.6768 85.0299 94.4758C84.224 98.295 85.6344 102.114 86.2389 105.933C87.0449 110.557 86.2389 115.18 85.4329 119.602C84.627 124.025 83.821 128.447 82.612 132.869C82.0076 134.879 81.4031 136.889 81.0001 138.899C80.7986 140.307 80.7986 141.915 81.8061 142.92C82.0076 143.121 82.4105 143.121 82.4105 142.92C83.2165 143.925 84.0225 144.729 84.627 145.734C85.0299 146.538 85.2314 147.141 85.4329 147.945C85.6344 149.352 85.4329 150.96 85.6344 152.367C85.8359 153.774 86.0374 155.181 86.6419 156.589C86.6419 156.79 86.6419 157.192 86.6419 157.393C86.4404 157.192 86.2389 156.79 86.2389 156.589C84.8285 154.176 83.418 151.563 82.0076 149.151C81.8061 148.749 81.2016 148.95 81.4031 149.352C83.2165 152.97 85.2314 156.187 87.4479 159.604C87.2464 159.604 87.8508 160.207 87.8508 160.609ZM83.6195 90.0535C83.6195 89.8525 83.6195 89.8525 83.6195 89.8525C83.6195 90.0535 83.6195 90.0535 83.6195 90.0535ZM83.2165 85.6312C83.2165 85.8322 83.2165 86.0332 83.418 86.0332C83.2165 85.8322 83.2165 85.8322 83.2165 85.6312C83.015 85.6312 83.2165 85.6312 83.2165 85.6312ZM83.6195 70.7563C83.418 70.7563 83.2165 70.7563 83.015 70.7563C82.612 70.1533 82.2091 69.3492 82.0076 68.7462L81.8061 68.5452C81.8061 68.3442 81.6046 68.3442 81.6046 68.1431C80.3956 65.128 79.3882 61.9118 77.9777 58.8966C77.5747 57.4895 77.1717 56.0824 76.5673 54.8763C76.9702 55.6804 77.3732 56.4844 77.7762 57.2885C79.3882 60.7057 80.7986 64.1229 82.4105 67.7411C82.8135 68.7462 83.2165 69.7512 83.6195 70.7563ZM75.3583 76.3846C76.1643 78.3948 76.9702 80.2039 77.5747 82.214C78.3807 84.4251 78.7837 86.4353 79.3882 88.6464C78.9852 88.2444 78.7837 87.6413 78.5822 87.2393C78.1792 85.8322 77.5747 84.4251 77.1717 83.0181C76.3658 80.8069 75.9628 78.5958 75.3583 76.3846ZM78.3807 90.6565C78.5822 90.4555 78.5822 90.2545 78.5822 90.0535C78.9852 90.6565 79.3882 91.0585 79.7911 91.6616C79.5896 91.6616 79.1867 91.8626 78.9852 91.8626C78.9852 91.6616 78.7837 91.6616 78.7837 91.4606C78.7837 91.2596 78.5822 91.0585 78.5822 91.0585C78.5822 90.8575 78.5822 90.6565 78.3807 90.6565ZM75.5598 94.8778L75.7613 94.6768H75.9628C75.9628 94.6768 75.7613 94.8778 75.5598 94.8778ZM73.7464 95.8828C73.7464 95.8828 73.9479 95.8828 73.7464 95.8828V95.8828ZM71.7314 88.6464C71.7314 88.8474 71.5299 88.8474 71.7314 88.6464C71.5299 88.6464 71.5299 88.4454 71.5299 88.2444C71.5299 88.4454 71.7314 88.6464 71.7314 88.6464ZM76.9702 91.6616C77.1717 92.0636 77.3732 92.6666 77.5747 92.8677C77.5747 93.0687 77.7762 93.0687 77.9777 93.2697C78.1792 93.4707 78.3807 93.4707 78.5822 93.6717C78.3807 93.6717 78.1792 93.6717 77.9777 93.6717C77.3732 93.6717 76.9702 93.4707 76.3658 93.2697C76.3658 93.0687 76.1643 93.0687 75.9628 93.0687C75.7613 92.6666 75.3583 92.2646 75.1568 91.8626C74.5523 90.8575 74.1493 89.8525 73.5449 89.0484C72.7389 87.4403 71.9329 85.8322 70.9255 84.2241C70.9255 83.0181 70.724 82.013 70.724 80.8069C70.724 78.5958 70.724 76.1836 70.724 73.9725C70.724 72.7664 70.9255 71.7614 70.9255 70.5553L71.127 71.3593C71.7314 74.7766 72.5374 77.9927 73.5449 81.2089C73.3434 80.8069 73.1419 80.4049 72.7389 80.2039C72.5374 79.3998 72.5374 78.5958 72.1344 77.7917C71.9329 77.1887 70.9255 77.3897 70.724 77.9927C70.724 78.3948 70.724 78.9978 70.724 79.6008C70.5225 81.0079 71.127 82.616 72.1344 84.0231C72.5374 84.8272 72.9404 85.8322 73.3434 86.6363C74.3508 88.2444 75.5598 90.0535 76.9702 91.6616ZM74.7538 82.817C74.5523 82.616 74.5523 82.415 74.3508 82.214H74.5523C74.5523 82.415 74.5523 82.616 74.7538 82.817ZM73.1419 55.6804C73.1419 55.6804 72.9404 55.6804 73.1419 55.6804C72.9404 55.4794 72.9404 55.2784 72.7389 55.0773C72.9404 55.2784 72.9404 55.4794 73.1419 55.6804ZM71.127 97.4909C71.127 97.4909 71.3284 97.4909 71.127 97.4909C71.3284 97.4909 71.3284 97.4909 71.127 97.4909C71.3284 97.4909 71.3284 97.4909 71.127 97.4909ZM70.724 100.305C70.9255 100.707 71.127 101.31 71.3285 101.712C71.9329 104.124 72.9404 106.536 73.1419 108.949C73.1419 109.15 73.5449 109.351 73.7464 109.351C73.5449 110.155 73.5449 110.758 73.3434 111.562C72.7389 115.381 72.7389 119.2 72.9404 123.019C73.1419 125.03 72.9404 127.241 72.5374 129.251C72.3359 126.839 71.9329 124.226 70.9255 122.014C69.515 118.999 66.8956 116.386 66.8956 112.969C67.7016 112.969 68.5076 112.969 69.3135 112.567C70.724 111.964 70.9255 110.557 71.127 109.351C71.3284 107.14 71.127 104.928 70.5225 102.717C70.724 101.913 70.724 101.109 70.724 100.305ZM69.918 95.8828C69.918 96.2849 69.7165 96.4859 69.7165 96.8879C69.515 96.8879 69.515 96.6869 69.3135 96.6869C69.515 96.4859 69.7165 96.2849 69.918 95.8828ZM69.515 89.4504C69.515 90.6565 69.515 91.6616 69.112 92.8677C69.112 92.0636 69.112 91.2596 69.112 90.6565C69.3135 90.4555 69.3135 90.4555 69.3135 90.2545C69.515 89.8525 69.515 89.6515 69.515 89.4504ZM68.1046 97.6919C68.3061 97.6919 68.3061 97.6919 68.1046 97.6919V97.6919ZM68.3061 95.0788C68.1046 95.2798 67.9031 95.6818 67.7016 95.8828C67.7016 95.6818 67.7016 95.2798 67.5001 95.0788C67.9031 95.2798 68.1046 95.2798 68.3061 95.0788ZM67.7016 100.506C67.5001 100.506 67.5001 100.707 67.5001 100.707V100.506C67.5001 100.305 67.5001 100.305 67.2986 100.305C67.5001 100.104 67.5001 100.104 67.7016 99.9031C67.7016 100.104 67.7016 100.305 67.7016 100.506ZM66.4926 116.788C64.6792 118.195 63.0673 119.602 61.0523 120.808C60.0449 121.411 58.8359 122.014 57.8285 122.416C57.4255 122.617 57.224 122.617 56.821 122.818C56.821 122.617 56.6195 122.416 56.6195 122.215C56.2165 121.21 56.015 120.406 56.015 119.401C56.015 119.401 56.015 119.401 56.015 119.2C59.6419 117.793 63.0673 115.783 65.8882 113.371C65.6867 114.376 66.0896 115.582 66.4926 116.788ZM65.6867 100.707H65.4852H65.6867ZM66.2911 98.295C66.2911 98.697 66.0896 99.3 65.4852 99.099C65.0822 98.898 64.6792 98.094 64.6792 97.893C64.4777 97.4909 64.4777 97.2899 64.2762 96.8879C64.0747 95.2798 64.0747 93.6717 63.4702 92.0636C63.4702 91.0585 63.4702 90.0535 63.4702 89.2494V89.0484C63.6717 86.0332 63.6717 82.817 63.6717 79.8019C64.0747 82.013 64.2762 84.0231 64.6792 86.2343C65.0822 88.4454 65.2837 90.4555 65.6867 92.6666C65.8881 93.8727 66.0896 94.8778 66.0896 96.0838C66.0896 96.4859 66.2911 97.4909 66.2911 98.295ZM65.4852 80.8069C65.4852 80.4049 65.2837 79.8019 65.2837 79.3998C64.8807 76.9877 64.6792 74.3745 63.6717 71.9624C63.6717 71.7614 63.2687 71.5603 63.0673 71.5603C63.0673 71.3593 63.0673 70.9573 63.0673 70.7563C63.0673 70.5553 63.0673 70.3543 63.2687 70.1533C63.4702 68.9472 63.8732 67.7411 64.0747 66.7361C64.2762 71.3593 64.8807 75.9826 65.4852 80.8069ZM63.4702 53.4692C63.4702 53.6703 63.4702 53.6703 63.4702 53.8713H63.2687C63.2687 53.8713 63.2687 53.8713 63.0673 53.8713C63.0673 53.6703 63.2687 53.6703 63.4702 53.4692ZM63.4702 113.17C63.8732 113.17 64.2762 113.17 64.8807 112.768C65.0822 112.768 65.2837 112.768 65.4852 112.768C62.6643 115.18 59.2389 116.989 55.612 118.597C55.4105 118.597 55.209 118.597 55.209 118.798C52.5896 119.803 49.7687 120.808 47.1493 121.612C42.515 123.019 38.0822 124.025 33.2464 123.824C31.6344 123.824 30.224 123.623 28.612 123.422C28.612 123.422 28.612 123.422 28.612 123.221C28.4105 122.818 28.0076 122.818 27.6046 122.818C27.8061 122.617 28.0076 122.416 28.209 122.215C28.4105 122.215 28.4105 122.215 28.612 122.215C28.612 122.416 28.8135 122.617 29.2165 122.617C35.6643 122.416 42.515 121.21 48.3583 118.798C48.5598 118.999 48.7613 119.2 49.1643 119.2C49.7687 119.401 50.3732 118.999 50.9777 118.798C51.9852 118.195 52.9926 117.391 53.7986 116.587C54.0001 116.788 54.4031 116.788 54.8061 116.788C56.2165 116.788 57.8284 116.587 59.0374 115.783C59.2389 115.984 59.6419 115.984 59.8434 115.783C60.2464 115.381 60.4479 114.979 60.8508 114.577C61.2538 114.175 61.6568 113.773 62.2613 113.572C62.2613 113.572 62.8658 113.371 63.4702 113.17ZM59.4404 43.2176H59.2389H59.4404ZM59.4404 113.773C59.0374 114.175 58.6344 114.577 58.4329 114.979C58.2314 114.979 58.0299 114.979 57.8285 115.18C57.0225 115.783 56.015 115.984 55.0076 115.984C54.8061 115.984 54.6046 115.984 54.6046 115.984C54.8061 115.783 55.209 115.381 55.4105 114.979C56.015 114.175 56.821 113.17 57.627 112.768C58.6344 111.964 59.4404 112.567 59.4404 113.773ZM55.8135 109.15C55.612 109.15 55.612 109.15 55.4105 109.15V108.949C55.612 108.949 55.8135 108.949 55.8135 109.15ZM55.209 112.567C54.8061 112.969 54.4031 113.572 54.0001 113.974C53.5971 114.577 52.3882 115.381 52.5896 116.386V116.587C51.9852 116.989 51.1792 117.19 50.5747 117.592C50.3732 117.793 49.3658 118.597 48.9628 118.597C48.7613 118.597 49.3658 117.391 49.5673 117.19C49.7687 116.788 50.1717 116.386 50.3732 115.984C51.1792 115.18 51.7837 114.175 52.7911 113.371C53.3956 112.969 54.0001 112.567 54.6046 112.567C55.0076 112.567 55.209 112.567 55.209 112.567ZM53.3956 60.7057C53.3956 60.9067 53.3956 60.9067 53.3956 61.1077C53.3956 60.9067 53.3956 60.9067 53.3956 60.7057ZM52.5896 111.562C52.3882 111.763 52.1867 111.763 51.9852 111.964C50.5747 112.969 49.3658 114.577 48.3583 116.185C48.1568 116.386 48.1568 116.587 47.9553 116.989C48.5598 114.778 49.5673 112.969 50.9777 111.16C51.3807 110.959 51.7837 110.758 51.9852 110.557C51.9852 110.959 52.1867 111.361 52.5896 111.562ZM51.1792 84.6261C51.1792 84.0231 51.1792 83.6211 50.9777 83.0181L51.1792 84.6261ZM47.7538 117.994C47.7538 118.195 47.7538 118.396 47.7538 118.798C47.5523 118.798 47.5523 118.798 47.3508 118.999C47.3508 118.597 47.5523 118.396 47.7538 117.994ZM49.9702 106.536C48.7613 108.145 47.5523 109.753 46.5449 111.361C46.7464 110.959 46.9479 110.356 47.1493 109.954C47.7538 108.346 48.7613 106.737 49.5673 105.129C49.5673 105.531 49.7687 106.134 49.9702 106.536ZM47.5523 100.908C47.3508 101.511 46.9479 102.114 46.7464 102.918C46.7464 102.717 46.7464 102.717 46.7464 102.717C46.9479 101.913 47.1493 101.31 47.5523 100.908C47.3508 100.908 47.5523 100.908 47.5523 100.908ZM37.8807 117.19C37.8807 117.592 37.8807 117.793 37.8807 118.195V117.994C37.6792 117.793 37.6792 117.391 37.8807 117.19ZM35.8658 121.411C34.8583 121.612 33.6493 121.612 32.6419 121.813C33.2464 121.813 33.6493 121.612 34.2538 121.612C34.8583 121.411 35.2613 121.411 35.8658 121.411ZM34.4553 118.396C34.4553 118.597 34.4553 118.999 34.4553 119.2H34.2538C34.2538 118.999 34.2538 118.597 34.4553 118.396ZM34.8583 110.758C34.2538 111.763 33.6493 112.768 33.2464 113.773C33.2464 113.17 33.2464 112.567 33.0449 111.964C32.8434 110.356 32.6419 108.949 32.4404 107.341C32.4404 107.341 32.4404 107.542 32.6419 107.542C32.8434 107.944 33.2464 108.145 33.4479 108.346C33.6493 108.748 33.6493 109.15 33.8508 109.351C33.8508 110.155 34.2538 110.557 34.8583 110.758ZM28.4105 120.607C28.4105 120.406 28.4105 120.205 28.4105 119.803C28.4105 120.004 28.612 120.205 28.612 120.406C28.612 120.607 28.4105 120.607 28.4105 120.607ZM28.612 121.612C28.4105 121.612 28.4105 121.612 28.209 121.612C28.209 121.411 28.209 121.21 28.209 121.009C28.209 121.21 28.4105 121.21 28.4105 121.21C28.612 121.411 28.612 121.612 28.612 121.612ZM30.0225 116.386C29.418 113.974 28.8135 111.763 28.209 109.351C28.612 109.552 29.015 109.552 29.418 109.552C29.418 110.356 29.6195 111.16 29.6195 111.964C29.821 113.371 29.821 114.577 29.821 115.984C30.0225 116.185 30.0225 116.185 30.0225 116.386ZM27.8061 117.994C27.8061 118.195 27.8061 118.195 27.8061 118.396C27.6046 117.994 27.4031 117.391 27.2016 116.989C27.2016 116.788 27.0001 116.587 27.0001 116.587C27.2016 116.587 27.2016 116.587 27.4031 116.587C27.4031 117.19 27.6046 117.592 27.8061 117.994ZM26.5971 123.019C26.7986 123.019 26.7986 123.019 27.0001 122.818L26.7986 123.019H26.5971ZM25.7911 121.813C25.3881 120.808 24.9852 120.004 24.5822 118.999C24.3807 118.798 22.5673 114.979 24.3807 115.984C25.1867 116.386 25.5896 118.195 25.7911 118.999C26.3956 119.803 27.2016 121.411 25.7911 121.813ZM24.7837 114.577C24.5822 114.577 24.3807 114.577 24.3807 114.577L24.5822 114.376C24.5822 114.376 24.5822 114.175 24.7837 114.175C24.5822 114.175 24.7837 114.376 24.7837 114.577ZM23.1717 118.597C22.9702 118.396 22.7687 118.195 22.5673 117.994C22.7687 117.994 22.7687 117.994 22.9702 117.994C22.9702 118.195 22.9702 118.396 23.1717 118.597C22.9702 118.597 22.9702 118.597 23.1717 118.597ZM21.5598 119.2C22.5673 120.205 23.3732 121.21 24.1792 122.215C24.3807 122.416 24.7837 122.416 24.9852 122.416C24.9852 122.617 25.1867 122.617 25.1867 122.818C24.1792 122.617 23.1717 122.416 22.3658 122.215C22.3658 122.014 22.3658 122.014 22.3658 121.813C21.7613 121.009 20.9553 120.205 20.5523 119.401C20.1493 118.798 19.9479 118.396 19.7464 117.793C20.3508 118.195 20.9553 118.798 21.5598 119.2ZM20.9553 95.6818C20.9553 96.6869 20.9553 97.6919 20.9553 98.697H20.7538C20.7538 97.6919 20.7538 96.6869 20.9553 95.6818ZM20.1493 108.547C20.1493 108.346 19.9479 107.944 19.9479 107.743C19.9479 106.939 20.1493 105.933 20.1493 105.129C20.1493 106.335 20.1493 107.341 20.1493 108.547ZM19.7464 116.185C19.7464 116.185 19.7464 116.386 19.7464 116.185C19.7464 116.386 19.7464 116.386 19.7464 116.185C19.7464 116.386 19.7464 116.185 19.7464 116.185ZM19.9479 61.3087C19.5449 64.7259 19.1419 67.9421 19.1419 71.3593C18.9404 73.3695 18.9404 75.5806 18.9404 77.5907C18.9404 76.9877 18.9404 76.5857 18.9404 75.9826C18.9404 74.3745 18.7389 72.5654 18.7389 70.9573C18.7389 69.5502 18.5374 67.9421 18.3359 66.535C18.7389 64.7259 19.3434 63.1178 19.9479 61.3087ZM17.7314 91.2596C17.7314 89.6515 17.9329 88.0434 18.3359 86.2343C18.3359 86.0332 18.3359 85.8322 18.3359 85.4302C18.3359 87.4403 18.1344 89.2494 17.7314 91.2596ZM17.3284 118.798C17.5299 118.999 17.7314 119.401 17.9329 119.602C17.7314 121.411 17.5299 123.019 17.3284 124.829C17.127 126.638 16.724 128.648 16.9255 130.457C16.9255 130.457 16.9255 130.658 17.127 130.658C15.7165 133.271 14.1046 135.482 12.6941 138.095C12.2911 138.698 12.0896 139.301 11.6867 140.106C11.0822 139.301 10.4777 138.698 10.0747 137.693C9.87322 136.889 9.67173 135.884 9.67173 135.08C9.47024 132.869 9.26875 130.658 9.26875 128.447C9.06725 125.03 8.86576 121.411 8.66427 117.994C8.66427 116.587 8.66427 114.979 8.66427 113.572C8.46278 111.361 8.26128 108.949 7.8583 106.737C7.8583 106.536 7.8583 106.536 7.8583 106.335C7.8583 106.738 8.66427 106.737 8.66427 106.536C8.86576 105.129 9.06725 103.722 9.26875 102.114C9.67173 100.707 9.87322 99.3 10.2762 97.893C10.8807 95.2798 11.2837 92.6666 11.0822 90.0535C11.2837 90.4555 11.6867 90.6565 12.0896 90.8575C12.4926 91.0585 12.8956 91.4606 13.5001 91.4606H13.7016C13.7016 95.2798 13.5001 99.099 14.5076 102.918C14.9105 104.928 15.515 106.939 15.7165 108.949C15.7165 110.758 15.112 112.366 15.3135 114.175C15.3135 115.783 16.5225 117.391 17.3284 118.798ZM17.127 115.381C16.9255 114.979 16.9255 114.778 16.724 114.376C16.724 113.974 16.724 113.371 16.724 112.969C16.724 113.17 16.724 113.17 16.9255 113.371C16.9255 114.175 17.127 114.778 17.127 115.381ZM16.321 103.923C16.1195 102.918 15.7165 101.712 15.515 100.506C15.3135 99.7021 15.3135 99.099 15.3135 98.295C15.515 100.305 15.918 102.114 16.321 103.923ZM15.112 84.6261C15.112 84.8272 15.112 85.0282 15.112 85.2292C15.112 84.6262 14.9105 84.2241 14.9105 83.6211C14.5076 81.812 13.7016 80.2039 13.5001 78.3948C13.2986 76.5857 13.5001 74.5755 13.7016 72.7664C13.7016 73.7715 13.7016 74.7766 13.9031 75.7816C14.1046 78.7968 14.709 81.812 15.112 84.6261ZM13.2986 85.2292C13.5001 86.6363 13.7016 88.2444 13.7016 89.6515C13.2986 89.2494 12.6941 89.0484 12.0896 88.8474H11.8881C12.4926 88.6464 13.2986 88.2444 12.6941 87.6413C12.8956 87.2393 12.8956 86.8373 12.6941 86.2343C10.6792 82.214 11.0822 77.7917 12.0896 73.5705V73.7715C11.8881 75.9826 11.6867 77.9927 12.2911 80.0029C12.2911 81.812 12.8956 83.4201 13.2986 85.2292ZM12.4926 143.925C12.4926 143.121 12.4926 142.317 12.8956 141.513C13.5001 140.106 14.1046 138.899 14.9105 137.693C16.1195 135.683 17.3284 133.874 18.3359 132.065C18.1344 133.07 17.7314 134.276 17.5299 135.281C16.9255 137.09 16.321 139.1 15.515 140.709C15.112 141.513 14.3061 142.317 13.7016 143.121C13.0971 143.322 12.8956 143.523 12.4926 143.925ZM12.8956 145.332C13.7016 144.93 14.5076 144.729 15.3135 144.327C14.709 145.131 14.1046 145.935 13.2986 146.739C13.0971 146.538 13.0971 146.136 12.8956 145.935C12.8956 145.734 12.8956 145.533 12.8956 145.332ZM18.7389 127.241C18.5374 127.643 18.5374 128.045 18.3359 128.447C18.3359 127.442 18.3359 126.638 18.5374 125.633C18.7389 124.025 18.7389 122.215 18.7389 120.607C19.1419 121.009 19.3434 121.411 19.7464 122.014C19.5449 122.014 19.3434 122.215 19.3434 122.215C19.1419 122.215 19.1419 122.416 19.1419 122.617C19.1419 124.025 19.1419 125.432 18.9404 126.839C18.5374 126.839 18.5374 127.04 18.7389 127.241ZM20.3508 123.019C20.3508 122.818 20.3508 122.818 20.3508 122.617C20.5523 122.818 20.5523 122.818 20.7538 123.019C20.5523 123.019 20.5523 123.019 20.3508 123.019ZM20.9553 123.422C20.9553 123.422 20.7538 123.422 20.9553 123.422C21.3583 123.623 22.1643 123.623 22.3658 123.019C23.9777 123.221 25.3881 123.623 27.0001 123.824C26.7986 125.432 26.7986 127.241 27.0001 128.849H26.7986C25.3881 128.648 23.9777 128.246 22.7687 127.844C22.1643 127.643 21.5598 127.241 20.7538 127.04C20.5523 125.834 20.7538 124.628 20.9553 123.422ZM55.209 124.025H55.4105C55.4105 124.025 55.4105 124.025 55.209 124.025ZM71.5299 144.729C71.5299 144.93 71.7314 145.332 71.7314 145.533C71.7314 145.131 71.5299 144.93 71.5299 144.729ZM73.1419 153.573C73.3434 153.975 73.3434 154.176 73.5449 154.377H73.3434C73.3434 154.176 73.3434 153.774 73.1419 153.573ZM70.9255 262.321C70.9255 261.919 70.9255 261.517 70.9255 261.316C71.127 262.522 71.3285 263.728 71.5299 264.733C71.3285 264.532 71.3284 264.532 71.127 264.331C70.9255 263.728 70.9255 262.924 70.9255 262.321ZM72.5374 194.58C72.5374 187.142 70.1195 180.107 69.515 172.67C69.3135 169.654 69.3135 166.438 69.918 163.423C70.5225 160.81 71.7314 158.398 73.3434 156.187C73.3434 156.187 73.3434 156.187 73.3434 156.388C73.3434 156.388 73.1419 156.388 73.1419 156.589C68.9105 163.423 69.7165 171.463 70.9255 178.901C71.5299 182.519 72.3359 186.338 72.5374 189.957C72.9404 193.977 72.9404 197.796 72.7389 201.816C72.5374 209.455 71.9329 217.093 71.7314 224.933C71.5299 232.973 71.3285 241.014 71.5299 249.054C71.3285 246.039 71.127 243.024 70.9255 240.009C70.5225 232.37 70.724 224.732 71.127 217.294C71.5299 209.455 72.5374 202.017 72.5374 194.58ZM59.6419 255.085C59.2389 255.085 58.8359 255.085 58.6344 254.884C58.2314 254.683 58.4329 254.482 58.2314 254.079C58.0299 252.873 58.0299 251.868 57.8285 250.662C59.0374 250.863 60.0449 251.265 61.2538 251.265C62.4628 251.466 63.4702 251.466 64.6792 251.466C66.0896 251.466 68.3061 251.466 69.7165 250.662C69.918 252.069 69.918 253.476 70.1195 254.884C69.112 254.884 68.1046 255.085 67.0971 255.286C65.4852 255.487 63.8732 255.487 62.0598 255.286C61.2538 255.286 60.4479 255.085 59.6419 255.085ZM60.2464 256.492C60.2464 256.291 60.0449 256.291 59.8434 256.291C60.0449 256.291 60.2464 256.291 60.4479 256.291C62.2613 256.492 64.0747 256.492 65.8882 256.291C67.0971 256.291 68.5076 256.291 69.7165 256.09C69.7165 257.497 69.515 258.904 69.515 260.311C69.515 261.517 69.3135 262.723 69.515 263.929C69.515 264.13 69.7165 264.532 69.7165 264.733C68.5076 264.532 67.2986 264.532 65.8882 264.532C66.2911 264.13 66.4926 263.326 66.4926 262.924C66.6941 261.919 66.8956 261.115 66.4926 260.11C65.8882 258.502 63.6717 257.899 61.8583 258.1C61.2538 258.1 60.6493 258.301 60.0449 258.301C60.2464 258.1 60.2464 257.899 60.2464 257.497C60.4479 257.296 60.4479 256.894 60.2464 256.492ZM60.4479 192.57C61.0523 192.369 61.6568 191.967 62.2613 191.565C61.8583 192.168 61.2538 192.771 60.4479 193.374C60.0449 193.776 59.4404 193.977 59.0374 194.379C59.4404 193.776 59.8434 193.374 60.4479 192.771C60.6493 192.771 60.6493 192.57 60.4479 192.57ZM55.8135 195.987C56.015 195.786 56.2165 195.384 56.418 195.183C57.0225 194.58 57.627 194.178 58.2314 193.776C57.627 194.58 56.821 195.384 55.8135 195.987C55.8135 196.188 55.8135 196.188 55.612 196.188C55.612 195.987 55.8135 195.987 55.8135 195.987ZM45.1344 160.006C45.1344 159.805 45.1344 159.604 44.9329 159.403C44.9329 159.403 44.9329 159.403 45.1344 159.403C45.1344 159.805 45.1344 160.006 45.1344 160.408C45.1344 160.408 45.1344 160.207 45.1344 160.006ZM27.4031 206.038C27.8061 206.44 28.0076 206.641 28.209 207.244C28.4105 207.847 28.0076 208.45 27.8061 208.852C27.6046 209.254 27.4031 209.656 27.2016 210.058C27.2016 208.651 27.4031 207.445 27.4031 206.038ZM13.7016 147.342C14.1046 146.94 14.5076 146.538 14.709 146.136C14.1046 147.744 15.7165 150.156 16.321 151.563C16.5225 152.166 16.724 152.769 16.9255 153.372C17.127 153.975 17.127 154.779 17.5299 155.382C17.9329 155.986 18.5374 155.784 19.1419 155.583C23.3732 154.779 27.2016 152.367 30.0225 149.352C29.418 151.362 27.0001 152.97 24.9852 153.774C22.7687 154.779 20.1493 155.382 18.1344 156.589C17.7314 156.79 18.3359 157.192 18.5374 156.991C22.5673 154.779 31.0299 153.573 31.0299 147.945C31.0299 147.543 30.4255 147.342 30.224 147.744C27.8061 150.759 24.5822 153.171 20.7538 154.377C20.3508 154.578 19.7464 154.578 19.3434 154.779C19.1419 154.779 18.9404 154.98 18.5374 154.98C18.1344 154.98 17.9329 154.779 17.9329 154.578C17.7314 154.176 17.5299 153.573 17.5299 153.171C17.3284 152.769 17.127 152.166 16.9255 151.764C16.321 150.156 14.3061 147.543 15.515 145.734C15.515 145.533 15.515 145.533 15.3135 145.533C15.7165 144.729 16.1195 144.327 16.5225 143.724C16.724 143.523 16.321 143.121 15.918 143.322C15.515 143.523 14.9105 143.724 14.5076 143.925C16.724 141.714 17.5299 138.698 18.3359 135.884C18.9404 133.874 19.5449 131.663 19.9479 129.653C19.9479 129.251 20.1493 128.849 20.1493 128.447C22.1643 129.452 24.5822 129.854 26.5971 129.653C26.5971 129.653 26.5971 129.653 26.7986 129.653V129.854C26.7986 129.854 26.7986 129.854 26.7986 130.055C26.3956 130.055 26.1941 130.055 25.7911 129.854C24.7837 129.653 23.7762 129.452 22.7687 129.653C21.7613 129.854 21.7613 130.859 22.5673 131.261C25.7911 133.07 29.821 132.467 33.4479 133.673C34.4553 134.075 34.8583 132.869 34.0523 132.467C33.6493 132.266 33.4478 132.266 33.0449 132.065C32.8434 130.658 31.0299 130.055 29.6195 130.055C29.2165 130.055 28.612 130.055 28.209 130.055C28.209 130.055 28.209 129.854 28.209 129.653C28.0076 128.447 28.0076 127.241 28.0076 126.035C28.4105 127.04 28.4105 128.246 28.209 129.452C28.209 130.055 29.015 130.256 29.418 129.854C29.418 129.854 29.6195 130.055 29.821 130.055C31.8359 130.256 33.8508 130.658 35.6643 130.457C37.2762 130.457 38.4852 130.055 39.6941 128.849C39.8956 128.648 39.2911 128.246 39.0896 128.447C36.4702 130.658 32.6419 128.447 29.821 129.05C30.0225 127.241 29.6195 125.633 28.8135 124.025C30.0225 124.226 31.0299 124.226 32.2389 124.226C39.2911 124.427 45.7389 122.416 52.1867 120.205C52.9926 120.004 53.7986 119.602 54.8061 119.2C54.6046 119.803 54.8061 120.607 55.0076 121.21C55.209 121.813 55.209 122.416 55.4105 123.019C55.209 123.019 55.209 123.221 55.0076 123.221C54.6046 122.416 54.2016 121.612 53.7986 120.808C53.5971 120.607 52.7911 120.406 52.9926 120.808C53.1941 121.612 53.3956 122.617 53.5971 123.422C53.7986 124.025 54.0001 124.628 54.4031 125.03C54.8061 125.432 55.4105 125.432 56.015 125.432C56.2165 125.432 56.6195 125.231 56.821 125.03C57.0225 125.03 57.627 124.628 57.224 124.829C57.8284 124.628 57.8284 124.025 57.4255 123.623C59.0374 123.019 60.4479 122.215 61.8583 121.612C63.6717 120.607 65.4852 119.2 67.0971 117.793C67.7016 118.999 68.5076 120.205 69.112 121.411C70.724 124.427 70.724 127.844 71.5299 131.06C71.5299 132.266 71.5299 133.673 71.7314 134.879C71.5299 136.286 71.127 137.894 70.9255 139.301C70.5225 140.91 70.321 142.719 70.5225 144.327C70.1195 146.337 70.724 148.548 71.7314 150.558V150.759C71.9329 151.965 72.3359 153.372 72.7389 154.578C67.2986 159.403 66.6941 167.644 67.5001 174.077C67.9031 177.896 68.9105 181.514 69.515 185.333C70.1195 189.153 70.5225 192.972 70.5225 196.791C70.321 204.429 69.3135 212.068 68.9105 219.505C68.5076 229.355 68.709 239.205 69.515 248.853C69.3135 248.853 69.3135 248.853 69.112 249.054C68.5076 249.657 67.0971 249.657 66.0896 249.858C65.0822 250.059 63.8732 250.059 62.8658 250.059C61.6568 250.059 60.6493 249.858 59.4404 249.657C58.4329 249.456 57.627 249.255 56.6195 249.456C56.418 249.456 56.2165 249.657 56.2165 249.858C56.418 250.863 56.418 251.667 56.418 252.672C56.418 253.476 56.418 254.482 56.6195 255.085C57.0225 256.09 58.2314 256.09 59.2389 256.291C59.0374 256.291 59.0374 256.291 59.0374 256.492C58.8359 256.693 58.8359 257.095 58.6344 257.497C58.6344 257.899 58.4329 258.1 58.6344 258.502L58.8359 258.703C58.2314 258.904 57.4255 258.904 57.0225 259.507C56.6195 260.311 56.6195 261.316 56.6195 262.12C56.6195 262.321 56.6195 262.723 56.6195 262.924C56.2165 262.321 55.4105 262.522 54.8061 262.522C54.6046 261.517 54.4031 260.512 54.2016 259.708C53.7986 258.301 53.3956 257.095 52.9926 255.889C54.6046 255.085 56.015 253.677 55.4105 252.069C55.209 251.868 55.0076 251.667 54.8061 251.466C54.8061 250.461 55.0076 249.657 55.0076 248.652C55.0076 248.25 54.8061 248.049 54.6046 248.049C55.4105 243.426 55.209 238.602 55.0076 233.978C54.4031 225.536 52.9926 217.093 52.7911 208.45C52.7911 207.244 52.7911 206.239 52.7911 205.033C52.7911 204.429 52.7911 203.625 52.5896 203.022C52.1867 202.218 51.5822 201.816 50.9777 201.213C50.1717 200.409 50.5747 199.605 51.1792 198.801C51.9852 197.193 52.3882 195.384 52.5896 193.776C52.7911 194.982 52.9926 196.389 53.3956 197.595C54.4031 202.821 55.612 208.048 56.418 213.475C56.6195 214.882 56.821 216.289 56.6195 217.696C56.418 219.103 56.015 220.309 55.8135 221.516C55.4105 223.727 55.612 226.139 56.015 228.35C56.015 228.551 56.418 228.752 56.6195 228.752C58.6344 228.551 60.2464 227.747 61.4553 226.541C60.6493 227.345 59.8434 228.149 58.8359 228.752C58.0299 229.355 57.0225 230.159 56.6195 230.963C56.015 232.169 56.2165 233.375 56.418 234.581C56.821 236.189 57.0225 237.798 57.224 239.205C57.627 242.22 57.8284 245.235 57.627 248.25C57.627 248.451 58.2314 248.652 58.4329 248.451C58.6344 245.436 58.8359 242.622 58.4329 239.808C58.2314 238.401 58.0299 236.993 57.8285 235.586C57.4255 233.978 56.821 232.169 58.2314 230.762C59.0374 229.757 60.4479 229.355 61.4553 228.551C62.2613 227.747 63.0673 226.943 63.6717 225.938C64.8807 223.928 65.8882 221.516 66.0896 219.103C66.0896 218.5 65.0822 218.299 64.6792 218.902C64.6792 219.103 64.4777 219.103 64.4777 219.304C64.2762 219.304 64.0747 219.304 64.0747 219.505C62.8658 222.923 61.0523 227.345 56.821 227.948C56.418 226.541 56.418 225.134 56.6195 223.526C56.821 221.918 57.4255 220.309 57.8285 218.701C58.4329 215.887 58.0299 213.073 57.4255 210.259C56.6195 205.837 55.612 201.414 54.8061 196.992C55.209 197.394 55.8135 197.595 56.2165 197.595C57.0225 197.595 57.627 196.992 58.2314 196.389C59.0374 195.384 60.0449 194.982 61.2538 194.178C63.0673 192.972 64.2762 191.364 65.2837 189.555C65.4852 188.952 64.6792 188.751 64.2762 188.952C63.2687 189.555 62.0598 190.158 60.8508 190.761C60.4479 190.962 60.0449 191.163 59.6419 191.364C58.4329 191.967 57.224 192.369 55.8135 192.57C55.612 192.369 55.209 192.369 55.0076 192.57C54.8061 192.369 54.4031 192.369 54.2016 192.57C54.2016 192.57 54.2016 192.57 54.2016 192.771C53.7986 190.56 53.3956 188.348 52.1867 186.338C51.3807 185.333 50.5747 184.328 49.9702 183.122C49.3658 181.916 48.9628 180.71 48.7613 179.504C48.3583 177.092 48.3583 174.479 48.3583 172.066C48.3583 169.453 48.3583 166.639 48.1568 164.026C48.1568 161.815 48.1568 159.403 47.3508 157.192C47.9553 157.393 48.5598 157.594 49.1643 157.192C49.3658 156.991 49.3658 156.79 49.1643 156.79C47.9553 156.79 47.3508 156.79 46.7464 156.79V156.589C46.5449 156.187 46.3434 155.986 45.9404 155.784C46.5449 155.784 47.5523 155.583 48.7613 155.382C49.7687 155.382 50.5747 155.382 51.1792 154.779C51.3807 154.578 51.3807 154.578 51.1792 154.377C51.7837 153.975 52.1867 153.372 52.1867 152.568C52.1867 152.166 51.5822 151.764 51.1792 151.965C48.9628 152.769 46.7464 153.573 44.3284 153.975C44.127 153.975 43.9255 153.774 43.724 153.774C43.5225 153.774 43.321 153.774 43.1195 153.975C42.918 153.975 42.7165 153.975 42.7165 153.975C42.515 153.975 42.515 153.975 42.3135 153.975C42.112 153.975 41.9105 153.975 41.9105 153.975C41.1046 154.176 40.5001 154.176 39.6941 154.377C40.2986 153.975 40.9031 153.774 41.3061 153.171C41.709 152.769 41.1046 152.166 40.5001 152.367C39.0896 152.568 37.6792 153.774 36.6717 154.779C36.0673 155.181 36.8732 155.986 37.4777 155.784C38.8882 155.583 40.5001 155.382 41.9105 154.98C41.9105 155.181 42.112 155.181 42.112 155.382C42.112 155.583 42.3135 155.583 42.3135 155.784C42.918 157.393 43.5225 158.8 44.127 160.408C44.7314 162.619 44.9329 164.629 45.1344 166.84C45.5374 171.463 45.3359 176.087 46.3434 180.71C46.3434 180.71 46.3434 180.911 46.5449 180.911C46.7464 181.715 46.9479 182.519 47.1493 183.323C47.7538 185.333 48.7613 187.745 50.3732 189.153C50.5747 191.163 50.7762 193.374 50.3732 195.384C50.1717 196.59 49.7687 197.394 49.1643 198.399C48.7613 199.203 48.5598 199.806 48.7613 200.61C48.9628 201.414 49.3658 201.816 49.9702 202.419C50.7762 203.223 51.1792 203.625 51.1792 204.831C51.1792 206.842 51.1792 208.852 51.3807 210.862C51.3807 211.666 51.5822 212.47 51.5822 213.274C50.5747 212.47 49.5673 211.867 48.7613 211.063C47.9553 210.46 47.1493 209.857 46.3434 209.053C45.7389 208.651 45.1344 208.048 44.3284 207.847C43.321 207.646 42.3135 208.45 42.515 209.455C42.7165 210.46 43.9255 210.862 44.9329 210.862C45.7389 211.465 46.7464 212.068 47.5523 212.671C48.9628 213.475 50.1717 214.48 51.3807 215.485C51.3807 215.485 51.5822 215.485 51.5822 215.686C51.7837 218.098 52.1867 220.711 52.3882 223.124C52.7911 227.345 53.3956 231.566 53.5971 235.586C53.7986 239.205 53.7986 242.823 53.5971 246.441C52.1867 247.446 50.5747 248.25 49.1643 249.255C47.5523 250.26 45.7389 250.26 43.9255 250.662C41.9105 250.863 40.0971 251.064 38.0822 250.863C37.0747 250.662 35.8658 250.662 34.8583 250.662C33.4478 248.049 32.6419 245.235 32.6419 242.421C32.6419 240.813 33.0449 239.607 33.8508 238.401C34.6568 237.194 35.2613 236.189 35.0598 234.782C34.8583 233.375 34.0523 231.968 33.6493 230.561C33.0449 228.953 32.4404 227.345 31.6344 225.737C30.8284 223.928 30.224 222.32 29.418 220.51C29.6195 219.304 29.2165 218.098 28.8135 217.093C28.8135 217.093 28.8135 217.093 28.8135 216.892C28.8135 216.892 28.8135 216.691 28.612 216.691C28.612 216.49 28.4105 216.289 28.4105 216.088C27.6046 214.48 27.4031 212.671 27.4031 211.063C27.6046 211.465 28.209 211.465 28.4105 211.063C28.8135 209.455 30.224 208.249 29.418 206.44C29.015 205.636 28.0076 204.831 27.4031 204.027C27.2016 200.409 25.5896 196.992 24.3807 193.575C23.1717 189.555 22.5673 185.534 22.1643 181.514C21.1568 173.474 20.9553 165.634 18.7389 157.795C18.7389 157.594 18.5374 157.594 18.5374 157.795C19.7464 162.217 20.3508 166.84 20.7538 171.463C21.5598 179.504 21.9628 187.544 24.5822 195.384C25.1867 196.992 25.7911 198.801 26.1941 200.409C25.9926 200.409 25.7911 200.208 25.7911 200.208C25.7911 199.806 25.5896 199.203 25.3882 198.801C24.5822 196.389 23.5747 193.977 22.9702 191.565C21.5598 186.74 20.9553 181.715 20.1493 176.891C19.5449 171.865 18.9404 166.84 18.1344 161.815C17.7314 159.403 17.3284 156.79 16.5225 154.377C16.724 154.377 16.724 154.176 16.5225 153.975C16.1195 152.97 15.7165 151.965 15.3135 150.96C14.9105 149.754 14.3061 148.548 13.7016 147.342C13.9031 147.342 13.9031 147.342 13.7016 147.342ZM26.1941 201.213C26.3956 201.615 26.3956 202.017 26.3956 202.419C26.3956 202.017 26.1941 201.615 26.1941 201.213ZM25.5896 206.038C25.5896 205.234 25.7911 204.63 25.7911 203.826C25.9926 204.228 26.3956 204.831 26.5971 205.234C26.5971 205.837 26.5971 206.239 26.5971 206.842C26.5971 209.053 26.1941 211.063 26.5971 213.274C26.1941 212.47 25.7911 211.465 25.5896 210.46C25.3881 209.053 25.5896 207.646 25.5896 206.038ZM29.2165 223.928C29.6195 226.541 30.0225 229.154 30.0225 231.566C30.0225 234.179 29.821 236.591 29.6195 239.205C29.6195 240.009 29.6195 240.612 29.6195 241.416C29.418 239.607 29.418 237.596 29.418 235.787C29.6195 231.767 29.418 227.747 29.2165 223.928ZM30.627 230.36C30.4255 228.752 30.4255 227.144 30.0225 225.536C30.0225 225.737 30.224 225.737 30.224 225.938C30.8284 227.546 31.4329 229.154 32.2389 230.762C32.8434 232.169 33.8508 233.978 33.8508 235.385C33.8508 236.993 32.2389 237.999 31.8359 239.406C31.4329 240.612 31.4329 242.019 31.4329 243.426C31.6344 244.431 31.8359 245.637 32.0374 246.642C31.8359 246.441 31.8359 246.24 31.6344 246.039C30.627 243.627 30.4255 241.014 30.627 238.401C30.627 235.586 30.8284 232.973 30.627 230.36ZM34.2538 252.471C34.0523 252.471 34.0523 252.471 34.2538 252.471C34.0523 252.471 34.0523 252.471 34.2538 252.471C34.4553 252.471 34.6568 252.471 34.8583 252.471V252.672C34.6568 252.672 34.4553 252.471 34.2538 252.471ZM53.3956 248.049C53.3956 248.049 53.3956 248.25 53.3956 248.049C53.3956 248.25 53.3956 248.25 53.1941 248.451C52.9926 248.451 52.9926 248.652 52.9926 248.652C50.1717 250.059 47.1493 251.265 44.127 251.868C42.515 252.27 40.7016 252.471 39.0896 252.672C37.8807 252.672 36.8732 252.672 35.6643 252.672C35.6643 252.471 35.4628 252.069 35.2613 251.868C35.2613 251.868 35.2613 251.667 35.0598 251.667C35.0598 251.667 35.0598 251.667 35.0598 251.466C36.4702 251.466 37.8807 251.667 39.2911 251.667C41.1046 251.667 43.1195 251.466 44.9329 251.064C46.3434 250.863 47.9553 250.662 49.3658 249.858C50.7762 249.054 52.1867 248.049 53.5971 247.044C53.3956 247.446 53.3956 247.647 53.3956 248.049ZM33.0449 252.471C33.2464 252.672 33.4479 252.873 33.6493 252.873C33.6493 253.074 33.6493 253.275 34.0523 253.275C37.2762 253.878 41.1046 253.275 44.3284 252.471C47.5523 251.868 50.5747 250.662 53.3956 249.054C53.3956 250.26 53.3956 251.466 53.5971 252.672V252.873C52.9926 254.079 51.1792 254.683 49.9702 255.085C48.1568 255.688 46.1419 256.291 44.127 256.492C42.112 256.693 40.0971 256.492 38.0822 256.291C36.2687 256.09 34.4553 255.688 32.6419 255.487C32.4404 254.281 32.2389 253.074 33.0449 252.471ZM40.2986 258.1C42.3135 258.301 44.3284 258.301 46.3434 257.899C48.3583 257.497 50.3732 257.095 52.1867 256.291C52.3881 257.296 52.5896 258.502 52.7911 259.507C52.9926 260.512 53.1941 261.718 53.3956 262.723C52.3882 262.723 51.3807 263.125 50.3732 263.125C48.9628 263.326 47.5523 263.326 46.1419 262.924C44.127 262.522 42.3135 261.919 40.7016 260.512C40.7016 260.311 40.7016 260.311 40.7016 260.11C40.5001 259.507 40.2986 258.703 40.2986 258.1ZM51.1792 274.985C51.1792 274.583 51.1792 274.382 51.1792 273.98C51.3807 273.98 51.7837 273.98 51.9852 273.98C51.9852 274.583 51.9852 275.387 51.9852 275.99C51.9852 276.392 51.9852 276.593 51.9852 276.995C51.7837 276.995 51.5822 276.995 51.5822 276.995C51.5822 276.593 51.3807 276.191 51.3807 275.588C51.1792 275.387 51.1792 275.186 51.1792 274.985ZM55.0076 276.995C55.0076 276.794 55.0076 276.593 55.0076 276.392C55.612 276.392 56.2165 276.392 56.821 276.392C56.6195 276.593 56.821 276.995 56.821 277.196C56.6195 277.196 56.418 277.196 56.2165 277.196C56.015 276.995 55.4105 276.995 55.0076 276.995ZM58.8359 274.181C59.0374 274.181 59.4404 274.181 59.6419 274.181C59.4404 274.382 59.2389 274.382 58.8359 274.181C58.8359 274.382 58.8359 274.382 58.8359 274.181ZM71.7314 275.387C71.9329 275.186 71.9329 274.985 72.1344 274.784C72.1344 274.784 72.1344 274.784 72.3359 274.583C72.3359 274.784 72.5374 274.985 72.5374 275.186C72.1344 275.186 71.9329 275.186 71.7314 275.387ZM94.2986 254.683C93.4926 254.884 92.8882 255.085 92.0822 255.286C92.2837 255.286 92.4852 255.085 92.6867 255.085C94.9031 254.281 97.321 253.677 99.5374 252.873C99.5374 253.074 99.7389 253.275 99.7389 253.476C97.724 253.476 95.9105 254.281 94.2986 254.683ZM100.545 253.476C100.746 253.476 101.149 253.275 101.351 253.275C101.754 253.074 101.955 252.471 101.955 252.069C101.955 252.27 101.955 252.471 101.955 252.471C101.955 252.873 101.955 253.074 101.754 253.476C101.754 253.677 101.552 253.878 101.552 253.878C101.351 253.878 100.948 253.677 100.545 253.476C100.545 253.677 100.545 253.677 100.545 253.476ZM85.8359 90.6565C86.0374 90.6565 86.2389 90.8575 86.2389 91.0585C86.0374 90.8575 86.0374 90.8575 85.8359 90.6565ZM86.2389 91.2596C86.2389 91.4606 86.4404 91.4606 86.6419 91.6616C86.4404 91.6616 86.4404 91.6616 86.2389 91.6616C86.2389 91.4606 86.2389 91.2596 86.2389 91.2596ZM87.8508 90.4555C88.0523 90.4555 88.0523 90.4555 88.2538 90.6565L88.0523 90.8575C87.8508 90.6565 87.8508 90.6565 87.8508 90.4555ZM88.6568 85.6312C88.8583 85.8322 88.8583 86.0332 89.0598 86.0332L89.2613 86.2343C89.2613 86.4353 89.2613 86.8373 89.2613 87.0383C89.0598 86.6363 88.8583 86.2342 88.6568 85.6312ZM90.4702 89.8525V89.6515C90.4702 89.6515 90.4702 89.6515 90.4702 89.8525ZM46.9478 35.5792C45.3359 36.3832 43.9255 36.9862 42.3135 36.7852C40.2986 36.5842 38.4852 35.5791 36.6717 34.7751C34.8583 33.9711 33.0449 33.167 31.6344 31.9609C30.224 30.7549 30.0225 29.1468 29.015 27.7397C29.015 27.5387 28.612 27.5387 28.4105 27.5387C28.4105 27.5387 28.612 27.3376 28.612 27.1366C28.8135 26.7346 28.0076 26.3326 27.6046 26.7346C26.1941 28.3427 24.7837 23.5184 24.5822 22.7144C24.3807 22.1113 24.1792 21.5083 24.1792 20.9053C24.5822 20.9053 24.7837 20.9053 25.1867 21.1063C25.7911 21.3073 25.9926 21.7093 26.1941 22.3123C26.3956 22.5134 26.7986 22.5134 26.7986 22.3123C27.0001 21.5083 25.9926 20.9053 25.3882 20.7042C24.9852 20.1012 24.5822 20.1012 24.1792 20.1012C24.3807 18.8951 25.3881 20.3022 25.9926 20.5032C26.1941 20.7042 27.0001 20.7042 26.7986 20.3022C26.5971 19.6992 26.1941 19.0961 25.5896 18.6941C25.5896 18.6941 25.5896 18.6941 25.7911 18.4931C25.7911 18.4931 25.9926 18.4931 25.9926 18.2921C26.1941 17.086 26.3956 15.8799 27.0001 14.6739C27.6046 13.4678 28.4105 12.4627 29.2165 11.4577L29.418 11.2567C30.4255 11.4577 31.6344 11.4577 32.6419 11.2567C34.2538 11.4577 36.0673 11.4577 37.6792 11.0557C40.0971 11.2567 42.515 9.64857 44.9329 9.64857C47.9553 9.44755 50.7762 11.2567 53.5971 12.4627C53.5971 12.6637 53.7986 13.0658 54.0001 13.0658H54.2016C54.0001 14.6739 54.0001 16.483 53.5971 18.0911C53.3956 20.1012 52.9926 22.1113 52.7911 24.3225C52.5896 25.1265 52.5896 25.9306 52.3882 26.7346C52.1867 26.7346 52.1867 26.9356 52.3882 26.9356C52.1867 28.1417 51.5822 29.3478 50.7762 30.5538C49.5673 31.9609 48.1568 33.77 46.9478 35.5792ZM53.7986 25.5285C53.7986 25.3275 53.7986 24.9255 54.0001 24.7245C54.2016 23.1164 54.4031 21.7093 54.6046 20.1012C55.8135 21.1063 55.4105 22.7144 54.8061 23.9204C54.4031 24.7245 54.2016 25.1265 53.7986 25.5285ZM50.9777 7.23642C51.1792 7.43743 51.5822 7.63844 51.7837 8.04047C51.3807 7.83946 50.7762 7.63844 50.3732 7.43743H50.5747C50.5747 7.43743 50.7762 7.43743 50.9777 7.23642ZM49.5673 5.42731C49.5673 5.62832 49.3658 5.62832 49.3658 5.82933C49.1643 5.82933 48.9628 5.82933 48.9628 5.82933C48.7613 5.82933 48.5598 5.82933 48.3583 5.62832C48.7613 5.62832 49.1643 5.42731 49.5673 5.42731ZM46.7464 6.23136C47.1493 6.43237 47.3508 6.63338 47.5523 6.63338C46.9479 6.63338 46.5449 6.43237 45.9404 6.43237C46.1419 6.43237 46.3434 6.43237 46.7464 6.23136ZM54.4031 4.02022C54.0001 3.81921 53.7986 3.6182 53.5971 3.41719C51.9852 2.61314 50.1717 2.21111 48.3583 2.21111C46.1419 2.41212 44.3284 3.41719 42.515 4.42225C41.1046 5.2263 39.6941 6.03034 38.2837 7.03541C38.8881 6.23136 39.6941 5.62832 40.5001 5.02528C41.9105 4.02022 43.321 3.21617 44.7314 2.61314C46.7464 1.60807 48.5598 1.00504 50.7762 1.60807C51.9852 2.0101 53.1941 3.01516 54.4031 4.02022ZM45.5374 1.20605C45.1344 1.40706 44.7314 1.60807 44.3284 1.60807C42.515 2.41212 40.7016 3.41718 39.0896 4.62326C37.4777 5.82933 36.4702 7.63844 34.6568 8.84452C34.4553 9.04553 34.4553 9.04553 34.2538 9.04553C34.0523 9.04553 34.0523 9.04553 33.8508 9.04553C32.8434 9.24654 31.8359 9.24654 30.8284 9.24654C32.0374 8.04047 33.4478 7.03541 34.8583 5.82933C35.0598 5.62832 35.0598 5.42731 34.8583 5.2263C35.0598 5.2263 35.0598 5.02528 35.2613 5.02528C35.4628 4.82427 35.0598 4.62326 34.8583 4.62326C34.6568 4.82427 34.4553 4.82427 34.2538 5.02528C34.0523 5.02528 34.0523 5.02528 33.8508 5.02528C33.4478 5.2263 33.2464 5.42731 32.8434 5.62832C31.4329 6.43237 30.0225 7.43743 29.015 8.6435C27.2016 10.2516 25.7911 11.8597 24.9852 13.8698C25.3881 10.2516 27.0001 7.03541 29.821 4.42225C34.0523 1.00504 40.0971 -2.38298e-05 45.5374 1.20605ZM56.2165 10.8546C56.2165 10.6536 56.2165 10.6536 56.2165 10.4526C56.2165 10.4526 56.2165 10.2516 56.418 10.2516C56.418 10.2516 56.6195 10.2516 56.6195 10.0506C57.0225 9.64857 57.224 8.6435 57.0225 7.83946C57.0225 7.63844 57.0225 7.43743 57.0225 7.43743C57.224 7.83946 57.224 8.44249 57.224 8.84452C57.224 9.64857 56.821 10.4526 56.2165 10.8546ZM48.9628 275.588C48.7613 275.588 48.7613 275.588 48.5598 275.588C48.7613 275.387 48.5598 274.985 48.3583 274.784C48.5598 274.784 48.5598 274.784 48.7613 274.583C48.7613 274.985 48.7613 275.387 48.9628 275.588ZM31.2314 274.784C30.0225 274.784 28.8135 274.784 27.6046 274.583C28.8135 274.784 30.0225 274.784 31.2314 274.784C31.0299 274.784 31.2314 274.784 31.2314 274.784ZM13.5001 274.985C13.5001 275.186 13.5001 275.186 13.5001 274.985C13.2986 275.186 13.2986 275.186 13.0971 275.186V274.985C13.2986 274.985 13.5001 274.985 13.5001 274.985ZM107.799 249.255C107.396 247.848 106.59 246.24 104.776 245.838C102.963 245.436 100.948 246.441 99.7389 247.647C99.5374 247.848 99.7389 247.848 99.7389 248.049C99.5374 248.049 99.5374 248.049 99.3359 248.25C98.9329 248.451 99.5374 248.853 99.7389 248.853C100.343 248.652 100.746 249.054 100.948 249.456C100.343 249.456 99.7389 249.657 99.1344 249.657C99.1344 245.034 98.9329 240.21 98.9329 235.586C98.7314 227.144 98.7314 218.902 98.5299 210.46C98.3285 206.239 98.3285 202.017 98.3285 197.796C98.3285 195.786 98.3285 193.575 98.127 191.565C98.127 189.756 98.127 187.946 97.9255 185.936C98.7314 186.941 100.545 187.544 101.955 187.343C103.97 186.941 105.381 185.534 105.784 183.725C106.187 181.715 105.381 179.705 103.769 178.499C102.358 177.293 100.142 176.288 98.3285 176.891C97.9255 176.891 98.3285 177.293 98.5299 177.293C99.9404 177.494 101.351 177.695 102.56 178.499C103.769 179.303 104.776 180.71 104.776 182.318C104.978 183.926 103.97 185.735 102.358 186.539C100.746 187.142 99.7389 186.74 98.7314 185.735C98.7314 185.735 98.7314 185.735 98.7314 185.534C100.746 187.142 103.164 185.132 103.164 182.921C102.963 180.71 100.545 177.896 97.9255 177.695C98.127 173.675 97.1195 169.654 95.3061 166.237C94.2986 164.227 93.0896 162.217 91.6792 160.408C90.4702 158.599 89.2613 156.991 87.4479 155.784C87.2464 155.583 87.0449 155.583 86.8434 155.583C86.6419 154.578 86.6419 153.774 86.4404 152.769C86.2389 151.161 86.0374 149.352 85.6344 147.744C85.6344 147.543 85.4329 147.342 85.4329 147.141C85.4329 146.94 85.2314 146.538 85.2314 146.337C84.8285 145.332 84.4255 144.528 83.821 143.724C83.418 143.121 82.8135 142.518 82.209 141.915C81.8061 141.312 81.6046 140.709 81.2016 140.106L81.0001 139.905C81.0001 138.899 81.2016 137.894 81.6046 136.889C82.209 134.879 82.612 132.869 83.2165 130.859C84.224 126.839 85.2314 122.617 86.0374 118.597C86.8434 114.577 87.4479 110.356 86.8434 106.335C86.2389 102.114 84.8285 98.295 85.4329 94.0737C87.6494 93.2697 89.6643 92.0636 91.4777 90.6565C91.6792 90.6565 91.6792 90.4555 91.6792 90.4555C91.8807 90.2545 91.8807 90.2545 91.8807 89.8525C90.4702 85.2292 88.6568 80.6059 87.0449 75.9826C85.6344 72.1634 84.0225 68.1431 82.4105 64.3239C80.7986 60.7057 79.5896 56.6854 76.9702 53.4692C74.5523 50.4541 70.9255 48.4439 67.5001 46.6348C65.4852 45.4288 63.4702 44.4237 61.4553 43.2176C60.4479 42.6146 58.6344 41.4085 57.8285 42.8156V43.0166C57.8285 43.0166 57.8284 43.0166 57.627 43.0166C57.627 43.2176 57.4255 43.2176 57.4255 43.4186L57.224 43.2176C55.0076 42.4136 52.5896 41.8105 50.5747 40.8055C48.3583 39.8004 48.7613 36.9862 48.9628 34.9761C50.1717 33.569 51.1792 31.9609 52.1867 30.3528C52.9926 29.1468 53.1941 28.1417 53.5971 26.9356C54.8061 26.5336 55.612 24.9255 55.8135 23.7194C56.2165 22.3123 56.6195 20.1012 54.6046 19.4982C54.6046 18.8951 54.8061 18.4931 54.8061 17.8901C55.0076 16.282 55.4105 14.4729 55.209 12.8648C55.612 12.8648 55.8135 12.6637 55.612 12.2617C57.8284 11.2567 58.8359 8.84452 57.627 6.63338C56.2165 3.81921 52.7911 1.00504 49.3658 0.603013C48.1568 0.402001 47.1493 0.603013 46.1419 1.00504C46.1419 1.00504 46.1419 0.804025 45.9404 0.804025C40.5001 -1.00509 34.0523 0.402001 29.821 3.81921C25.5896 7.23642 23.1717 13.0658 24.3807 18.2921C24.1792 18.2921 23.9777 18.2921 23.7762 18.4931C22.3658 19.2972 22.9702 21.1063 23.3732 22.3123C23.7762 23.9204 24.1792 25.9306 25.5896 27.1366C26.1941 27.7397 27.4031 27.9407 28.209 27.5387C28.0076 28.7447 28.612 30.1518 29.418 31.1569C29.821 34.9761 30.0225 38.9964 29.821 42.8156C29.821 43.2176 30.627 43.4186 30.627 43.0166C30.8284 39.3984 30.8284 35.7802 30.224 32.1619L30.4255 32.363C32.0374 33.9711 34.2538 34.7751 36.2687 35.5792C38.4852 36.3832 40.7016 37.7903 43.1195 37.7903C44.7314 37.7903 46.7464 37.3883 47.9553 36.1822C47.9553 36.1822 48.1568 36.1822 48.1568 35.9812L48.3583 35.7802C48.1568 37.3883 48.1568 39.3984 49.1643 40.4034C49.9702 41.2075 51.5822 41.6095 52.5896 42.0115C54.0001 42.6146 55.612 43.0166 57.0225 43.6196H57.224C55.612 45.6298 53.5971 47.2379 51.3807 48.6449C48.7613 50.253 45.7389 51.6601 42.515 51.8611C39.6941 52.0622 36.8732 51.2581 34.6568 49.851C32.4404 48.2429 31.0299 46.4338 30.0225 44.0217C29.821 43.6196 29.015 43.6196 29.015 44.2227C30.0225 49.449 36.4702 53.2682 42.112 52.8662C45.5374 52.6652 48.9628 51.2581 51.7837 49.449C54.4031 47.8409 57.0225 45.8308 58.4329 43.2176C58.6344 43.2176 58.8359 43.4186 59.0374 43.2176L58.8359 43.4186C58.2314 44.2227 57.627 45.0267 57.0225 45.8308C54.2016 48.4439 50.7762 50.253 47.3508 51.8611C46.3434 52.2632 45.3359 52.6652 44.3284 53.0672C43.724 53.0672 43.1195 53.2682 42.515 53.2682C40.7016 53.4692 38.8881 53.4692 37.2762 53.2682C36.6717 52.8662 36.0673 52.6652 35.4628 52.8662C34.8583 52.6652 34.4553 52.4642 34.0523 52.2632C31.0299 50.6551 30.224 47.6399 28.4105 45.0267C28.209 44.8257 28.0076 44.6247 27.8061 44.4237C28.209 44.2227 28.8135 43.8207 29.2165 43.6196C29.821 43.2176 28.8135 42.4136 28.209 42.8156C24.1792 44.8257 20.3508 47.0368 16.5225 49.248C15.918 49.65 15.3135 50.052 14.709 50.4541H14.5076C13.0971 50.6551 12.2911 51.6601 11.6867 52.6652C10.8807 53.4692 10.0747 54.2733 9.26875 55.2784C7.45531 57.8915 6.04487 60.9067 4.83591 63.9219C2.418 70.1533 0.806059 76.5857 0.403074 83.2191V83.4201C0.201581 83.6211 8.86172e-05 84.0231 0.403074 84.2241C1.61203 85.0282 3.02248 85.4302 4.23143 86.2343C5.23889 86.8373 6.24636 87.6413 7.25382 88.4454C7.65681 88.8474 8.26128 89.2494 8.66427 89.4504C8.86576 90.0535 9.06725 90.4555 9.26875 90.8575C9.26875 92.2646 9.26875 93.4707 9.06725 94.6768C8.86576 96.0838 8.46278 97.4909 8.05979 98.898C7.45531 101.511 6.85084 103.923 7.05233 106.536C7.05233 106.536 6.85084 106.536 6.85084 106.737C7.05233 108.949 7.25382 111.16 7.45531 113.371C7.45531 113.572 7.45531 113.773 7.45531 113.974C7.45531 113.974 7.45531 113.974 7.45531 114.175C7.45531 115.381 7.45531 116.587 7.65681 117.793C7.65681 118.597 7.65681 119.2 7.65681 120.004C7.8583 123.422 8.05979 126.638 8.05979 129.854C8.26128 132.065 8.05979 134.477 8.46278 136.688C8.66427 138.296 9.26875 140.106 10.8807 140.91C10.8807 140.91 11.0822 140.91 11.2837 140.91C11.0822 141.312 11.0822 141.714 10.8807 141.915C10.6792 143.322 10.8807 144.528 11.4852 145.734C12.4926 148.146 13.2986 150.558 14.5076 152.769C15.515 156.187 16.1195 159.403 16.724 162.82C18.3359 173.273 18.5374 183.926 21.7613 193.977C22.5673 196.188 23.5747 198.6 23.9777 201.012C24.3807 203.424 23.5747 206.038 23.5747 208.45C23.5747 210.661 24.1792 212.47 25.3882 214.279C26.3956 216.289 27.4031 218.098 27.6046 220.309C27.6046 220.711 27.8061 220.912 28.209 220.912C28.8135 225.938 28.8135 231.164 28.4105 236.189C28.209 239.004 28.209 241.818 29.418 244.632C30.224 246.642 31.4329 249.054 32.8434 250.863C32.2389 251.064 31.8359 251.466 31.4329 251.868C30.627 253.074 30.8284 254.482 31.2314 255.688C31.2314 255.889 31.4329 256.09 31.8359 256.291C34.2538 257.095 36.8732 257.296 39.2911 257.497C39.2911 257.497 39.2911 257.497 39.2911 257.698C39.2911 258.301 39.2911 259.105 39.4926 259.909C39.2911 259.909 39.2911 259.909 39.2911 259.909C36.8732 261.115 34.6568 262.321 32.4404 263.728C30.4255 265.135 28.209 266.542 26.3956 268.15V268.351C26.3956 268.15 26.1941 268.15 25.9926 268.15C21.3583 267.748 16.724 269.758 12.8956 271.769C12.4926 271.97 13.0971 272.372 13.5001 272.171C15.515 270.965 17.5299 270.361 19.7464 269.758C21.9628 269.155 24.1792 268.954 26.3956 268.552C26.5971 268.552 26.5971 268.552 26.5971 268.351C26.5971 268.753 27.4031 268.954 27.6046 268.753C29.6195 267.346 31.6344 265.738 33.6493 264.331C35.6643 262.924 37.6792 261.718 39.8956 260.512C40.0971 260.914 40.0971 261.316 40.2986 261.517C40.5001 261.718 41.1046 261.919 41.1046 261.517C42.515 262.522 44.5299 263.125 46.1419 263.527C47.5523 263.929 49.1643 263.929 50.7762 263.929C51.9852 263.929 53.1941 263.728 54.4031 263.527C54.8061 263.728 55.209 263.728 55.4105 263.326C56.015 263.527 56.6195 263.527 57.0225 263.125C57.0225 263.527 56.821 264.13 56.6195 264.532C55.612 267.748 51.7837 268.954 50.1717 271.568C47.3508 271.568 44.5299 272.171 41.9105 272.573C38.8881 272.774 36.0673 272.975 33.0449 272.975C26.7986 272.975 20.5523 272.573 14.1046 271.97C13.2986 271.97 13.2986 272.573 13.7016 272.975C13.5001 272.975 13.2986 272.975 13.0971 272.975C13.0971 272.774 13.0971 272.774 13.0971 272.573C13.0971 272.171 12.0896 271.769 11.8881 272.372C11.6867 272.774 11.6867 273.176 11.6867 273.779C11.6867 274.181 11.6867 275.99 12.4926 275.789C12.6941 275.99 12.8956 276.191 13.0971 276.191C19.3434 277.196 25.5896 277.196 31.8359 277.196C37.8807 277.196 44.127 276.794 50.1717 275.789C50.1717 276.191 50.3732 276.593 50.5747 276.995C50.5747 277.196 50.9777 277.397 51.3807 277.397C52.3882 277.598 53.1941 277.598 54.2016 277.598C54.4031 277.598 54.6046 277.598 54.8061 277.598C55.612 277.598 56.6195 277.598 57.4255 277.598C59.4404 277.598 61.4553 277.598 63.4702 277.598C65.2837 277.598 67.0971 277.397 68.9105 276.995C70.321 276.794 72.1344 276.392 73.3434 275.387C74.5523 276.191 76.5673 276.191 77.9777 276.191C79.5896 276.191 81.2016 275.99 82.8135 275.588C86.0374 274.784 88.8583 273.176 91.2762 271.166C93.8956 268.954 95.9105 266.14 97.321 263.125C98.5299 260.311 99.7389 256.894 99.7389 253.878V253.677C99.9404 253.677 100.142 253.677 100.545 253.677C100.746 254.281 101.149 254.683 101.955 254.683C102.157 254.683 102.56 254.683 102.761 254.482C102.761 254.683 102.761 254.683 102.761 254.884C105.985 257.899 108.403 252.069 107.799 249.255ZM30.8284 266.743C30.8284 266.944 30.8284 267.145 30.8284 267.145C30.8284 267.346 30.8284 267.346 31.0299 267.346L31.2314 267.547H31.4329C31.6344 267.547 31.8359 267.547 32.0374 267.346L32.2389 267.145C32.2389 266.944 32.2389 266.944 32.2389 266.743V266.542C32.2389 266.542 32.2389 266.341 32.0374 266.341L31.8359 266.14C31.6344 266.14 31.6344 265.939 31.4329 265.939H31.2314H31.0299C31.0299 266.341 31.0299 266.542 30.8284 266.743C31.0299 266.542 30.8284 266.542 30.8284 266.743ZM33.4479 265.336C33.4479 265.537 33.4479 265.738 33.4479 265.738C33.4479 265.939 33.4479 265.939 33.6493 266.14L33.8508 266.341C33.8508 266.341 34.0523 266.341 34.2538 266.542C34.4553 266.542 34.4553 266.542 34.6568 266.542H34.8583C35.0598 266.341 35.2613 266.14 35.0598 265.939C35.0598 265.939 35.0598 265.939 35.0598 265.738C35.0598 265.738 35.0598 265.537 34.8583 265.537L34.6568 265.336H34.4553H34.2538H34.0523H33.8508C33.6493 265.135 33.6493 265.135 33.4479 265.336C33.6493 265.336 33.4479 265.336 33.4479 265.336ZM35.6643 264.331C35.6643 264.532 35.6643 264.733 35.8658 264.934C36.0673 265.135 36.2687 265.135 36.6717 265.135C36.8732 265.135 37.0747 264.934 37.2762 264.733C37.2762 264.733 37.2762 264.733 37.2762 264.532C37.2762 264.331 37.2762 264.13 37.0747 263.929C37.0747 263.929 37.0747 263.929 36.8732 263.728H36.6717C36.4702 263.728 36.2687 263.728 36.0673 263.728C35.8658 263.929 35.6643 264.13 35.6643 264.331ZM38.0822 262.723C37.2762 262.723 37.6792 263.728 38.4852 263.728C39.0896 263.527 38.6867 262.723 38.0822 262.723Z" fill="black"/>
</svg>
