<svg width="271" height="82" viewBox="0 0 271 82" fill="none" xmlns="http://www.w3.org/2000/svg">
<path d="M255.509 27.498C256.251 26.2676 257.259 25.2195 258.46 24.4311C259.661 23.6426 261.023 23.1339 262.446 22.9424C263.181 22.8223 263.933 22.8579 264.653 23.047C265.373 23.2361 266.046 23.5744 266.627 24.0401C267.083 24.4287 267.468 24.8929 267.765 25.4123C267.308 25.0372 266.8 24.7278 266.257 24.493C265.407 24.1428 264.495 23.9694 263.575 23.9836C262.656 23.9978 261.749 24.1991 260.91 24.5753C259.295 25.3234 257.898 26.4726 256.852 27.9136C255.806 29.3546 255.145 31.0396 254.933 32.8082C254.933 33.0415 254.933 33.261 254.864 33.4943C254.864 33.0415 254.741 32.575 254.714 32.1222C254.555 30.5416 254.83 28.9477 255.509 27.5117V27.498ZM235.781 37.9538C235.045 38.5378 234.221 39.0009 233.34 39.326C232.876 39.525 232.378 39.6366 231.873 39.6553C231.488 39.6757 231.103 39.6052 230.749 39.4495C230.448 39.3123 230.174 39.1217 229.94 38.8869C229.682 38.6042 229.452 38.2962 229.255 37.9675C228.85 37.2199 228.625 36.3885 228.597 35.5388C228.801 33.0636 229.616 30.6778 230.968 28.5957C231.997 29.9015 233.454 30.8008 235.081 31.1342C236.719 31.4112 238.401 31.2013 239.921 30.5304C239.778 31.6051 239.482 32.6539 239.043 33.6452C238.314 35.3169 237.184 36.7828 235.753 37.9126L235.781 37.9538ZM232.833 25.6318C232.828 25.5016 232.861 25.3726 232.929 25.2614C233.055 24.9236 233.249 24.6154 233.499 24.3558C233.749 24.0962 234.05 23.8907 234.382 23.752C234.953 23.4214 235.615 23.2842 236.269 23.3609C236.924 23.4375 237.536 23.7239 238.015 24.1774C238.576 24.6947 239.021 25.3264 239.318 26.0298C239.494 26.4428 239.636 26.8696 239.743 27.3059C238.617 27.9396 237.359 28.3014 236.068 28.3625C235.354 28.3602 234.653 28.1659 234.039 27.7999C233.754 27.6515 233.501 27.4457 233.299 27.1955C233.096 26.9452 232.947 26.6559 232.86 26.3454C232.816 26.1096 232.816 25.8676 232.86 25.6318H232.833ZM213.009 52.7182C213.009 57.1503 212.858 61.5961 212.652 66.0144C212.556 68.1961 212.433 70.3641 212.296 72.5321C212.266 74.0548 211.984 75.5619 211.46 76.9916C211.23 77.6232 210.829 78.1778 210.3 78.5926C209.772 79.0073 209.138 79.2656 208.471 79.338H207.868L208.101 79.2557C210.843 78.158 211.336 74.9197 211.473 72.3949C211.679 68.7587 211.802 65.1088 211.967 61.4177C212.131 57.7266 212.31 53.9669 212.337 50.2346L213.022 49.4387C213.022 50.5365 213.022 51.6342 213.022 52.7319L213.009 52.7182ZM211.35 51.3598C210.884 57.013 210.692 62.7075 210.404 68.3745C210.404 69.8702 210.294 71.3795 210.157 72.8752C210.102 74.1066 209.789 75.3127 209.239 76.4153C208.973 77.0025 208.522 77.4859 207.954 77.791C207.387 78.096 206.735 78.2057 206.099 78.1031C204.813 77.6531 203.757 76.7105 203.165 75.4823C202.45 74.1312 202.056 72.6333 202.014 71.1051C201.945 69.2664 202.411 67.4963 202.439 65.6851C202.436 65.5766 202.403 65.4709 202.346 65.3791C202.288 65.2874 202.206 65.2129 202.109 65.1636C203.727 59.8946 207.813 55.4488 211.35 51.3598ZM167.821 40.012C167.616 40.4786 167.287 41.2744 166.766 41.5214C166.801 41.4683 166.833 41.4134 166.862 41.3568L170.495 32.6161C170.275 33.3022 170.07 33.9883 169.837 34.6881C169.234 36.4856 168.576 38.2694 167.821 40.012ZM153.796 31.2714C154.235 34.3725 154.139 38.0362 151.356 40.0258C150.867 40.4197 150.283 40.6798 149.663 40.7808C149.044 40.8818 148.408 40.8202 147.819 40.6021C146.599 39.9308 145.634 38.8742 145.077 37.597C143.902 35.3144 143.29 32.7828 143.295 30.2148C143.377 29.8306 143.432 29.4327 143.5 29.0485H143.638C144.079 29.808 144.702 30.4454 145.451 30.903C146.201 31.3607 147.052 31.6241 147.929 31.6694C149.937 31.7269 151.917 31.1873 153.618 30.1188C153.618 30.5167 153.728 30.9147 153.783 31.2852L153.796 31.2714ZM149.944 23.8892C150.73 24.1544 151.431 24.6228 151.978 25.2469C152.525 25.871 152.896 26.6287 153.056 27.4431L151.973 28.0606C151.235 28.5867 150.394 28.9494 149.505 29.1245C148.616 29.2995 147.7 29.283 146.818 29.076C146.472 28.956 146.156 28.7615 145.893 28.5063C145.63 28.251 145.426 27.9412 145.295 27.5985C145.164 27.2558 145.11 26.8887 145.136 26.5228C145.163 26.157 145.269 25.8013 145.447 25.4809C145.451 25.4536 145.451 25.4259 145.447 25.3986C145.95 24.7445 146.634 24.2527 147.414 23.9844C148.194 23.716 149.036 23.6829 149.834 23.8892H149.944ZM123.69 24.1362C123.69 24.1362 123.69 24.1362 123.621 24.1362H123.69ZM100.383 36.5817C99.8761 37.2677 99.3826 37.9538 98.8616 38.6399C98.0281 39.8563 96.9721 40.9038 95.7495 41.7272C96.1922 41.3683 96.6134 40.9834 97.0108 40.5746C98.8772 38.6096 100.307 36.2715 101.206 33.7139L101.329 35.2232C100.973 35.6349 100.685 36.1289 100.383 36.5954V36.5817ZM79.9148 42.084C79.5487 42.623 79.0411 43.0503 78.4478 43.3189H78.3518C78.3518 43.2503 78.2422 43.1817 78.3518 43.2503C78.2001 42.9719 78.1155 42.6617 78.1051 42.3447C78.0937 40.9544 78.4636 39.5875 79.1744 38.3929C79.6195 37.5488 80.1576 36.7572 80.7785 36.0328C81.0672 37.0399 81.1457 38.0957 81.0089 39.1344C80.8721 40.1731 80.5229 41.1725 79.9833 42.0703L79.9148 42.084ZM60.0357 29.4876C59.2781 31.7287 58.3095 33.8928 57.1429 35.9505C56.5983 36.9819 55.9457 37.9524 55.1961 38.8457C55.1276 38.9143 55.0453 39.0104 54.9494 39.0927C54.8154 39.0202 54.687 38.9376 54.5655 38.8457C54.098 38.4767 53.7186 38.0079 53.455 37.4735C52.8903 36.1775 52.6278 34.7698 52.6873 33.3571C52.6954 30.8066 52.9944 28.2654 53.5784 25.7828C54.0495 25.0953 54.6708 24.5242 55.3954 24.1129C56.1199 23.7016 56.9285 23.4608 57.7598 23.409C58.4369 23.4173 59.1044 23.5711 59.717 23.8599C60.3295 24.1488 60.873 24.5658 61.3107 25.083C60.961 26.5675 60.5354 28.0331 60.0357 29.4739V29.4876ZM53.0437 40.0258C52.3582 39.8337 52.2485 38.6536 52.1526 38.1047C52.1526 37.8029 52.084 37.501 52.0429 37.1991C52.1823 37.6223 52.371 38.0276 52.605 38.4066C52.949 38.969 53.3792 39.4738 53.88 39.9023C53.6269 40.0481 53.328 40.0922 53.0437 40.0258ZM45.5034 29.2818C45.3015 31.2993 44.8407 33.2824 44.1324 35.1821C43.6823 36.7549 42.9684 38.2396 42.0211 39.5729C41.5847 40.1854 41.0174 40.6928 40.3605 41.0584C39.7036 41.4239 38.9736 41.6383 38.2235 41.6861C37.5531 41.6932 36.8998 41.4736 36.3698 41.0626C35.8398 40.6516 35.464 40.0735 35.3033 39.422C34.6101 37.3122 34.2945 35.0965 34.3711 32.8768C34.3711 31.093 34.5356 29.323 34.7138 27.5529L34.892 27.3882C35.9864 28.6142 37.4955 29.3914 39.1283 29.57C41.2418 29.9425 43.4123 29.8299 45.4759 29.2406L45.5034 29.2818ZM41.1985 22.3798C41.8399 22.4788 42.4525 22.7152 42.9943 23.0727C43.5361 23.4303 43.9945 23.9007 44.338 24.4518C44.7918 25.1208 45.113 25.8707 45.284 26.661C44.5603 26.9371 43.8121 27.1439 43.0493 27.2784C41.4048 27.5874 39.7136 27.5453 38.0864 27.155C37.7282 27.1028 37.3839 26.9801 37.0733 26.794C36.7627 26.608 36.4919 26.3622 36.2767 26.0709C36.211 25.964 36.1603 25.8486 36.1259 25.7279C36.5803 25.0773 37.0894 24.4668 37.6477 23.903C38.0969 23.4105 38.6462 23.0198 39.2586 22.7571C39.871 22.4944 40.5324 22.3658 41.1985 22.3798ZM269.452 37.1854C268.694 37.5011 267.988 37.9265 267.354 38.4478C266.696 38.9143 265.983 39.3671 265.339 39.8199C264.186 40.5967 262.856 41.0688 261.473 41.1921C260.509 41.19 259.562 40.945 258.719 40.4797C257.876 40.0144 257.163 39.344 256.647 38.5301C256.69 38.4199 256.69 38.2973 256.647 38.1871C256.121 36.4553 255.953 34.6345 256.153 32.8357C256.45 30.9833 257.262 29.2522 258.498 27.841C259.175 27.0402 260.013 26.3916 260.958 25.9376C261.903 25.4836 262.934 25.2344 263.981 25.2065C264.921 25.2252 265.835 25.516 266.614 26.0435C267.244 26.5609 267.785 27.1772 268.218 27.8685C268.423 28.4585 269.397 28.8153 269.589 28.0606C270.795 24.493 267.875 21.1998 264.516 20.4314C262.59 20.1489 260.624 20.358 258.8 21.0393C256.976 21.7205 255.353 22.8519 254.083 24.3283C252.37 26.4091 251.543 29.08 251.78 31.7654C251.57 32.071 251.412 32.4095 251.314 32.7671L250.944 33.8511L250.752 34.496C249.94 36.0474 248.858 37.4414 247.557 38.6125C246.795 39.2988 245.969 39.91 245.089 40.4374C244.766 40.6442 244.415 40.8058 244.048 40.9177C244.048 40.9177 244.048 40.9177 244.048 41C244.048 41.0823 243.924 40.7804 243.883 40.6844C243.125 38.7174 242.775 36.6165 242.855 34.5097C242.88 32.2604 243.293 30.0324 244.075 27.9234C244.155 27.6454 244.159 27.3512 244.086 27.0712C244.014 26.7912 243.868 26.5357 243.664 26.3313C243.46 26.1268 243.204 25.9808 242.925 25.9085C242.645 25.8362 242.351 25.8402 242.073 25.92C241.596 24.5399 240.797 23.2934 239.743 22.2838C238.928 21.4871 237.91 20.93 236.8 20.6735C235.69 20.417 234.531 20.4708 233.45 20.8293C232.421 21.1275 231.508 21.7325 230.832 22.5636C230.156 23.3947 229.749 24.4124 229.666 25.4809C229.656 25.8266 229.688 26.1722 229.762 26.51C229.505 26.4196 229.227 26.4078 228.963 26.4762C228.699 26.5447 228.462 26.6902 228.281 26.8942L215.243 41.9879C215.147 37.8715 214.983 33.659 214.736 29.5013C214.668 28.335 214.599 27.1549 214.517 25.9886C214.476 25.6934 214.334 25.4215 214.115 25.2192C213.896 25.0169 213.615 24.8966 213.317 24.8788C213.02 24.8611 212.726 24.9468 212.485 25.1216C212.243 25.2964 212.07 25.5495 211.994 25.8377C211.126 30.5781 209.382 35.1151 206.853 39.2162C206.51 39.7514 205.921 40.8216 205.18 40.8628C204.44 40.9039 204.262 40.0669 204.043 39.4906C203.642 38.4119 203.335 37.301 203.124 36.17C202.836 34.9076 202.617 33.6315 202.439 32.3417C202.073 29.461 202.009 26.55 202.247 23.6559C202.343 22.4759 200.382 21.5977 199.943 22.9287L199.601 23.9578C199.35 24.0661 199.143 24.2543 199.011 24.493C198.736 25.0831 198.556 25.7128 198.476 26.3591C198.339 26.9766 198.202 27.6078 198.051 28.2252C197.901 28.8427 197.681 29.7346 197.476 30.4755L196.53 33.3434C196.256 34.3399 195.869 35.3021 195.378 36.2112C194.665 37.3638 192.787 38.7497 191.772 37.1442C191.444 36.5643 191.199 35.9406 191.046 35.2918C191.046 35.2232 191.046 35.1546 191.046 35.086C190.909 33.7139 190.813 32.4926 190.744 31.1891C190.609 28.1564 190.66 25.1183 190.895 22.0917C190.977 21.1312 189.606 19.9786 188.756 20.7195C187.579 21.8524 186.028 22.5159 184.397 22.5857C183.601 22.6257 182.804 22.533 182.038 22.3112C181.257 22.1054 180.517 21.7624 179.708 21.6114C179.608 21.5899 179.506 21.5899 179.406 21.6114C179.235 21.6072 179.063 21.6304 178.899 21.6801C178.573 21.8274 178.317 22.0963 178.187 22.4296C178.056 22.7628 178.061 23.134 178.2 23.4639C179.522 26.397 180.569 29.4473 181.326 32.5749C181.988 34.8139 181.988 37.1968 181.326 39.4357C179.269 38.1596 177.567 36.3852 176.376 34.2764C174.69 31.2577 174.567 27.7175 173.059 24.6714C172.579 23.6834 171.002 23.2992 170.509 24.5067L165.093 37.6382C164.747 35.9092 164.608 34.1448 164.682 32.3829C164.682 28.8519 164.792 25.33 165.011 21.8173C165.08 20.8567 163.722 19.7316 162.872 20.4451C160.401 22.5889 157.734 24.4955 154.907 26.1396C154.589 25.1649 154.073 24.2666 153.391 23.5014C152.709 22.7363 151.876 22.1208 150.945 21.6938C149.95 21.2485 148.86 21.0545 147.773 21.1287C146.685 21.2028 145.633 21.5429 144.707 22.1191C143.696 22.7764 142.889 23.7031 142.376 24.7948C142.148 24.752 141.912 24.7921 141.711 24.9078C141.51 25.0235 141.357 25.2073 141.279 25.426C140.937 26.7732 140.739 28.1532 140.69 29.5425C140.149 32.164 139.274 34.7051 138.085 37.1031C137.76 37.8888 137.295 38.6093 136.714 39.2299C136.426 39.4906 135.878 39.9571 135.521 39.6964C135.165 39.4357 135.22 38.6948 135.206 38.3243C135.206 37.2814 135.206 36.2249 135.206 35.1821C135.206 33.0415 135.275 30.8872 135.302 28.7467C135.329 26.6061 135.48 24.6302 133.835 23.258C133.489 22.9527 133.079 22.7289 132.636 22.603C132.192 22.4772 131.726 22.4525 131.271 22.5308C130.827 22.6501 130.413 22.8621 130.056 23.153C129.699 23.4439 129.408 23.807 129.201 24.2185C128.206 25.8936 127.357 27.652 126.665 29.4739C126.295 30.4344 125.966 31.3949 125.664 32.3829V28.2664V25.92C125.717 25.1591 125.68 24.3946 125.554 23.6422C125.475 23.3037 125.321 22.9872 125.104 22.7159C124.887 22.4445 124.612 22.2252 124.299 22.0739C123.986 21.9227 123.644 21.8433 123.296 21.8416C122.949 21.8399 122.606 21.916 122.291 22.0643C121.097 22.7497 120.141 23.7837 119.55 25.0281C118.393 26.9534 117.354 28.9466 116.437 30.997C116.616 27.8136 116.671 24.6439 116.533 21.4879C116.533 20.6647 115.615 19.8963 114.833 20.4314C113.723 21.2104 112.805 22.2339 112.152 23.4233C111.498 24.6127 111.126 25.9362 111.063 27.2922C111.063 28.3487 112.708 28.8015 112.832 27.6352C112.987 26.2237 113.533 24.8836 114.408 23.7657C114.326 26.6061 114.189 29.4327 113.97 32.2594C113.558 32.9043 113.147 33.5492 112.75 34.2078C112.352 34.8664 112.174 35.2369 111.913 35.7721C111.836 35.827 111.771 35.897 111.721 35.9779C111.098 36.8429 110.415 37.6635 109.679 38.4341C109.091 39.1604 108.319 39.715 107.444 40.0395C107.109 40.1791 106.751 40.251 106.388 40.251C106.026 40.251 105.667 40.1791 105.333 40.0395C104.754 39.6141 104.365 38.9786 104.25 38.2694C103.827 36.0341 103.602 33.7658 103.578 31.491C103.454 28.9113 103.454 26.3316 103.578 23.752C103.578 22.1603 101.206 21.5154 100.836 23.258C99.9721 28.088 99.0261 33.3022 96.01 37.3089C95.3013 38.2811 94.451 39.1414 93.4874 39.8611C93.1202 40.1701 92.6737 40.3698 92.1987 40.4374C92.0849 40.4518 91.9697 40.4518 91.8559 40.4374H91.7874L91.664 40.3413C91.1849 39.7027 90.9165 38.9306 90.8962 38.1322C90.8011 37.0976 90.8426 36.0549 91.0196 35.0311C91.5132 31.2851 92.0204 27.5529 92.514 23.8206C92.6785 22.668 90.7866 21.5566 90.0874 22.7092C88.0035 26.1533 84.6994 28.582 81.7107 31.2714C80.2176 27.5656 78.0983 24.1447 75.4454 21.1586C74.9244 20.5686 73.5535 20.2393 73.2656 21.2958C72.2523 25.0775 70.9365 28.7714 69.3308 32.3417C68.554 34.0798 67.704 35.795 66.7808 37.4873C66.526 38.1012 66.1427 38.6533 65.6567 39.1064C65.5607 39.175 65.1631 39.2711 65.3687 39.2848H65.2728C65.2728 39.2848 65.2728 39.2848 65.2728 39.2025C65.4784 39.3946 65.0671 38.928 65.1494 39.0653C64.3679 37.8578 64.5736 36.0328 64.5462 34.6743C64.5462 32.5887 64.4776 30.5579 64.5462 28.431C64.6147 26.3042 64.5462 24.0676 64.6421 21.8859L64.8889 20.3902C65.6751 14.1831 66.0506 7.93073 66.0131 1.67402C66.0131 0.178373 63.6413 -0.493978 63.4631 1.20749C62.741 7.97679 62.2841 14.7598 62.0921 21.5565C62.0099 22.0368 61.9139 22.5033 61.8316 22.9287C61.2062 22.3468 60.4626 21.9069 59.6518 21.6389C58.6243 21.2866 57.5278 21.1838 56.4528 21.3389C55.3778 21.494 54.355 21.9025 53.4687 22.5308C53.257 22.3106 53.0117 22.1253 52.7421 21.9819C52.4973 21.8584 52.2181 21.8211 51.9495 21.8759C51.6809 21.9306 51.4385 22.0743 51.2614 22.2838C50.242 23.7429 48.9241 24.9684 47.3953 25.8789C47.2383 25.3704 47.0317 24.8786 46.7784 24.4106C45.9133 22.6801 44.4526 21.3205 42.6654 20.5823C39.0735 19.2102 35.5775 21.6526 33.7816 24.7948C33.6691 24.7574 33.5501 24.7439 33.4321 24.7553C33.3142 24.7666 33.1999 24.8025 33.0966 24.8606C32.9934 24.9188 32.9033 24.9979 32.8324 25.0929C32.7615 25.1879 32.7112 25.2967 32.6848 25.4123C32.6848 25.5495 32.6025 25.6867 32.5751 25.824C31.8035 26.4816 31.257 27.3645 31.0122 28.3487C30.6283 29.2955 30.217 30.2423 29.7783 31.1754C28.9146 33.0415 27.9549 34.8802 26.9267 36.664C25.8985 38.4478 24.7743 40.163 23.5815 41.8233C23.3052 42.274 22.958 42.6771 22.5533 43.0171C22.5277 42.9727 22.5048 42.9269 22.4847 42.8798C22.2357 42.1563 22.115 41.3947 22.1283 40.6295C22.0735 39.5828 22.0735 38.534 22.1283 37.4873C22.1283 36.8561 22.238 36.2386 22.3065 35.6074C22.7315 33.9334 23.1017 32.2457 23.4033 30.5442C24.1385 28.8772 24.6014 27.1028 24.7743 25.2888C24.776 24.0842 24.3427 22.9195 23.5541 22.0094C23.3339 21.3055 22.8714 20.7027 22.2488 20.3083C21.6262 19.9138 20.8839 19.7532 20.1541 19.8551C18.0291 20.1707 16.4113 22.0643 15.0678 23.6011L14.9444 23.752V23.1208C14.9577 22.9552 14.9266 22.789 14.8543 22.6395C14.782 22.4899 14.6711 22.3624 14.5331 22.2701C14.3823 21.5977 14.2041 20.8979 13.9847 20.253C13.897 20.0478 13.7605 19.8671 13.5871 19.7266C13.4138 19.5861 13.2088 19.4901 12.99 19.4468C12.7712 19.4035 12.5451 19.4144 12.3314 19.4783C12.1177 19.5423 11.9229 19.6575 11.7638 19.8139C10.5916 21.1632 9.95709 22.8973 9.98148 24.6851C8.76132 27.2647 7.43148 29.8032 5.97825 32.2594C5.04599 33.8374 4.05887 35.3879 3.07177 36.9247C2.08467 38.4615 1.04275 39.9572 0.192744 41.5763C-0.259677 41.8096 0.0145164 42.5094 0.384679 42.6603C1.10045 42.8903 1.86986 42.8923 2.58686 42.6662C3.30386 42.4401 3.93313 41.997 4.38791 41.3979C4.45162 41.3867 4.5124 41.3626 4.56659 41.3272C4.62077 41.2919 4.66725 41.2459 4.70323 41.1921L5.18308 40.4923C5.87446 39.572 6.51519 38.6146 7.10243 37.6245L7.22582 37.4324C8.26775 35.7949 9.26857 34.1346 10.2282 32.4515C10.2355 32.5428 10.2355 32.6346 10.2282 32.7259C10.0363 35.9459 9.84894 39.1476 9.66614 42.331C9.30055 48.9082 8.95325 55.4808 8.62421 62.0489C8.52824 63.8738 8.43228 65.7125 8.35002 67.5375C8.35002 68.5666 8.22663 69.5957 8.17179 70.6386C7.86681 72.5399 7.71096 74.4622 7.70566 76.3879C7.70074 76.657 7.78188 76.9206 7.93726 77.1403C8.09264 77.36 8.31414 77.5243 8.56938 77.6091C8.67855 77.6241 8.78924 77.6241 8.8984 77.6091C9.01386 77.687 9.14991 77.7286 9.28913 77.7286C9.42836 77.7286 9.56441 77.687 9.67987 77.6091C10.3821 77.0865 10.8696 76.3254 11.0508 75.4685C11.3495 74.5686 11.5967 73.6523 11.7912 72.7242C12.1652 70.9999 12.4308 69.2539 12.5863 67.4963C12.9565 63.7092 13.1621 59.8946 13.4089 56.1074C13.9299 48.2313 14.4463 40.3642 14.9581 32.5064C15.0678 30.8323 15.15 29.1446 15.1363 27.4705C15.1837 27.4133 15.2208 27.3483 15.246 27.2784C15.246 27.1275 15.342 26.9766 15.3968 26.8257C15.7807 26.3866 16.1508 25.9338 16.5484 25.4535C17.21 24.7343 17.9102 24.0518 18.646 23.409L19.3589 22.8601C19.9355 22.6415 20.5565 22.5661 21.1686 22.6406C21.2238 22.865 21.2515 23.0954 21.2509 23.3266C21.2941 24.3613 21.262 25.3977 21.1549 26.4277C20.9555 28.6096 20.5981 30.7742 20.0855 32.9043C19.5783 35.0449 18.9065 37.1717 18.4404 39.326C18.1208 40.3421 18.1036 41.4294 18.3909 42.4551C18.6781 43.4809 19.2574 44.4008 20.0581 45.1027C20.4763 45.4369 20.9678 45.667 21.492 45.7744C22.0163 45.8817 22.5585 45.8631 23.0743 45.7202C23.7414 45.7289 24.401 45.5792 24.9991 45.2834C25.5973 44.9877 26.1169 44.5543 26.5154 44.0188C27.7738 42.4623 28.8673 40.7792 29.7783 38.9967C30.6646 37.4149 31.4699 35.7891 32.1912 34.1255C32.2599 36.0497 32.5873 37.9558 33.1646 39.7925C33.4168 40.7855 33.9319 41.6921 34.6558 42.4165C35.3796 43.141 36.2854 43.6566 37.2775 43.909C38.2063 44.0732 39.1596 44.0357 40.0726 43.7989C40.9856 43.5622 41.8372 43.1317 42.5695 42.5368C44.1099 41.1286 45.262 39.347 45.9146 37.3638C46.7757 35.2192 47.3831 32.981 47.7243 30.6951C47.8227 29.9631 47.8594 29.2241 47.834 28.4859C48.2727 28.2801 48.6977 28.0469 49.1227 27.7999L49.9453 27.2647C49.1674 29.7939 48.9201 32.4567 49.2187 35.086C49.2145 36.0126 49.3344 36.9356 49.5751 37.8303C49.5751 38.1322 49.6711 38.4066 49.7259 38.6948C49.8717 39.9534 50.495 41.1078 51.4671 41.9194C52.0056 42.3005 52.6388 42.5252 53.2968 42.5688C53.9549 42.6124 54.6122 42.4731 55.1961 42.1663C57.6502 40.9588 59.0486 38.0499 60.2413 35.7584C60.9106 34.4529 61.5057 33.1106 62.0236 31.7379C62.0236 32.8906 62.0236 34.0432 62.0236 35.1958C61.8832 36.9511 62.2801 38.7076 63.1615 40.2316C63.3981 40.5843 63.7077 40.882 64.0693 41.1045C64.4308 41.327 64.836 41.469 65.2572 41.521C65.6785 41.5731 66.106 41.5339 66.5108 41.4061C66.9156 41.2784 67.2882 41.065 67.6034 40.7804C68.2958 40.052 68.8612 39.2125 69.276 38.2968C69.7696 37.3775 70.2494 36.4582 70.647 35.5525C72.4135 31.9342 73.8896 28.1809 75.0615 24.3283C77.0237 26.9205 78.5857 29.7929 79.6954 32.8494C79.7009 32.895 79.7009 32.941 79.6954 32.9866C78.2442 34.4285 77.0646 36.1204 76.2131 37.9812C75.4108 39.579 75.1417 41.3921 75.4454 43.1543C75.5497 43.6675 75.7596 44.1533 76.0617 44.5809C76.3638 45.0085 76.7515 45.3685 77.2002 45.6379C77.71 45.8915 78.2804 45.9976 78.8472 45.9443C79.414 45.891 79.9547 45.6803 80.4083 45.336C83.7946 43.0308 83.7535 38.2008 82.8075 34.6469L82.6293 33.9746C83.3422 33.3022 84.0962 32.6024 84.8091 32.0261C86.2624 30.7774 87.743 29.5288 89.0866 28.1566C88.8124 30.1874 88.5245 32.2731 88.2503 34.2353C87.7449 36.5069 88.0102 38.8824 89.0043 40.9863C89.2461 41.6971 89.6775 42.3282 90.2519 42.8113C90.9139 43.2969 91.6809 43.6195 92.4908 43.753C93.3006 43.8865 94.1305 43.8271 94.9132 43.5797C96.6149 42.9797 98.0993 41.8857 99.1769 40.4374C99.8213 39.669 100.397 38.8594 100.987 38.0636C101.124 37.8715 101.288 37.6657 101.453 37.4599C101.513 38.3202 101.745 39.1597 102.136 39.9282C102.527 40.6968 103.069 41.3786 103.729 41.9331C104.53 42.4701 105.46 42.7859 106.423 42.8486C107.385 42.9112 108.348 42.7185 109.212 42.2898C110.208 41.7938 111.093 41.1033 111.817 40.259C112.456 39.3452 113.019 38.3816 113.504 37.3775C113.312 39.0927 113.079 40.7942 112.791 42.5094C112.742 42.8201 112.816 43.1376 112.998 43.3943C113.18 43.651 113.454 43.8267 113.763 43.8839C114.072 43.9411 114.391 43.8754 114.653 43.7007C114.914 43.526 115.097 43.2561 115.162 42.9485C116.233 37.9424 118.01 33.1143 120.441 28.6094C121.03 27.5117 121.675 26.414 122.36 25.3711C122.566 25.0101 122.847 24.6968 123.183 24.4518C123.32 27.1961 123.183 30.1325 123.183 32.9455C123.183 36.17 123.183 39.3809 123.265 42.5505C123.265 44.0462 125.445 44.6774 125.787 43.0171C126.47 39.1759 127.409 35.3848 128.598 31.6694C129.213 29.8237 129.993 28.0373 130.929 26.3317C131.134 25.9612 131.573 24.9595 132.094 24.9595C132.615 24.9595 132.862 26.1533 132.889 26.5786C132.999 28.6231 132.807 30.6951 132.766 32.7808C132.649 34.8237 132.649 36.8715 132.766 38.9143C132.771 39.8058 133.113 40.6623 133.723 41.3115C134.334 41.9607 135.167 42.3544 136.056 42.4133C137.852 42.4133 139.168 40.8216 139.963 39.3534C140.574 38.2207 141.105 37.047 141.554 35.8407C141.8 36.6037 142.093 37.3507 142.431 38.0773C143.2 39.8917 144.482 41.4417 146.119 42.5368C146.936 43.0391 147.865 43.3297 148.823 43.3824C149.78 43.4351 150.736 43.2482 151.603 42.8387C153.328 42.0078 154.699 40.5866 155.469 38.832C156.271 36.7542 156.521 34.504 156.196 32.3005C156.097 31.1682 155.942 30.0416 155.73 28.925C156.758 28.3213 157.786 27.6901 158.8 27.0589C159.815 26.4277 161.159 25.5084 162.283 24.6714C162.127 27.4157 162.073 30.128 162.118 32.8082C162.118 35.8407 162.2 39.2573 164.367 41.6312C164.499 41.7678 164.652 41.8835 164.819 41.9742C164.995 42.2439 165.233 42.4673 165.513 42.6253C165.793 42.7834 166.107 42.8716 166.429 42.8824C166.75 42.8931 167.07 42.8262 167.36 42.6872C167.65 42.5483 167.902 42.3413 168.096 42.084C168.656 41.3407 169.091 40.5111 169.384 39.6278C169.837 38.5301 170.262 37.4187 170.659 36.3072C171.057 35.1958 171.386 34.2078 171.715 33.1513C171.907 32.5201 172.126 31.8752 172.305 31.2303C172.929 33.722 174.085 36.0492 175.691 38.0527C177.298 40.0562 179.318 41.6888 181.613 42.8387C181.89 42.9792 182.206 43.0219 182.51 42.9596C182.813 42.8973 183.087 42.7337 183.286 42.4956C185.096 39.6416 184.986 36.2249 184.328 33.014C183.741 30.1572 182.869 27.3668 181.723 24.6851C182.677 25.0088 183.677 25.1802 184.684 25.1928C185.874 25.2033 187.053 24.9747 188.153 24.5204C187.833 26.6454 187.76 28.8002 187.934 30.9421C188.002 31.7242 188.112 32.4926 188.249 33.2473C188.386 34.002 188.372 34.8527 188.468 35.6623C188.538 37.0713 188.83 38.4605 189.332 39.7788C190.415 42.18 193.376 43.7306 195.68 41.9468C196.576 41.1739 197.265 40.1877 197.681 39.079C198.23 37.774 198.711 36.4412 199.121 35.086C199.464 34.0569 199.765 33.0141 200.053 31.9712V32.424C200.216 33.8716 200.454 35.3097 200.766 36.7326C201.002 38.0855 201.379 39.41 201.89 40.6844C202.32 41.7929 203.146 42.7023 204.207 43.2366C204.788 43.4697 205.423 43.5316 206.038 43.4148C206.652 43.2981 207.221 43.0077 207.676 42.578C208.592 41.6429 209.347 40.5627 209.91 39.3809C210.596 38.1596 211.213 36.911 211.775 35.6349C212.022 35.0723 212.241 34.5234 212.46 33.9608C212.625 37.6199 212.735 41.311 212.789 45.0341C211.843 46.1181 210.911 47.2158 209.965 48.3136C204.961 54.1178 198.778 60.4571 198.422 68.6352C198.192 72.1051 199.203 75.5437 201.273 78.3363C203.535 81.1904 207.73 83.3035 211.185 81.2865C214.352 79.4478 214.544 75.0981 214.736 71.8323C215.024 67.1533 215.202 62.4605 215.298 57.754C215.381 54.0949 215.381 50.381 215.298 46.6121L225.457 34.839V35.2095C225.455 36.4054 225.724 37.5862 226.244 38.6629C226.764 39.7396 227.522 40.6841 228.46 41.4254C232.572 44.4029 237.439 41.0961 240.099 37.4599C240.195 38.1459 240.332 38.832 240.497 39.5318C241.018 41.5763 242.018 44.1697 244.61 43.8266C245.248 43.7249 245.864 43.5162 246.433 43.2091C245.227 45.7065 243.979 48.1901 242.91 50.7286C241.84 53.2671 241.621 56.3681 243.883 58.344C244.419 58.8082 245.062 59.1306 245.754 59.2816C246.446 59.4326 247.165 59.4075 247.845 59.2085C249.183 58.7231 250.433 58.0234 251.547 57.1366C252.853 56.2375 254.111 55.2711 255.317 54.2413C256.564 53.1436 257.634 51.8949 258.827 50.7423C259.293 50.2758 258.95 49.3701 258.525 49.082C258.289 48.8806 257.983 48.7794 257.673 48.7999C257.364 48.8204 257.074 48.961 256.866 49.1918C255.933 50.0182 254.958 50.7968 253.946 51.5244C252.986 52.2929 252.013 53.0201 251.012 53.7473C250.011 54.4746 248.956 55.2018 247.873 55.8467C247.461 56.1384 246.995 56.3437 246.502 56.4505C246.347 56.4771 246.19 56.4771 246.035 56.4505C245.939 56.4505 245.939 56.4505 246.035 56.4505L245.885 56.3544C245.641 56.1425 245.452 55.874 245.336 55.5723C245.203 55.2034 245.147 54.8111 245.172 54.4197C245.337 53.2476 245.708 52.114 246.269 51.0716C247.393 48.6292 248.544 46.1959 249.723 43.7717C250.779 41.5763 251.848 39.4083 252.931 37.2266C253.456 38.7817 254.347 40.1879 255.528 41.3269C256.709 42.4659 258.146 43.3043 259.718 43.7717C261.749 44.219 263.873 43.9271 265.709 42.9485C266.682 42.4505 267.601 41.8527 268.451 41.1646C269.383 40.5163 270.164 39.6737 270.74 38.6948C271.124 37.8989 270.082 37.0894 269.369 37.3226" fill="black"/>
</svg>
