<svg width="146" height="54" viewBox="0 0 146 54" fill="none" xmlns="http://www.w3.org/2000/svg">
<path d="M45.5425 22.6398C50.398 22.4721 50.2306 16.0994 45.3751 16.4348C33.9898 16.9379 21.5999 17.6087 10.382 21.1305C9.87969 16.2671 9.3774 11.4037 8.70768 6.70809V6.54039C15.9072 5.86958 23.2742 4.02486 30.4737 3.85716C40.3522 3.52176 50.0632 5.53418 59.7742 5.19877C61.1136 5.19877 61.6159 3.68946 60.2765 3.18635C50.9003 -0.167684 38.8453 0.335421 28.9668 0.670825C19.9256 1.17393 8.70768 1.00623 0.670978 5.03107C-0.50104 5.53418 0.00125375 6.70809 1.17327 6.87579C3.01502 6.87579 4.85676 6.87579 6.6985 6.70809V6.87579C6.53107 12.0746 6.53107 17.1056 6.6985 22.3044C4.68933 22.9752 2.84758 23.8137 1.00584 24.8199C-0.333609 25.4907 0.670979 26.8323 2.01043 26.6646C3.68474 26.3292 5.19162 26.1615 6.86593 25.8261C7.2008 34.7143 8.03795 43.4348 8.87511 52.323C9.04254 54.5031 13.3957 54.5031 13.2283 52.323C11.8889 43.2671 11.3866 34.2112 10.7169 25.1553C22.2696 23.646 33.6549 22.9752 45.5425 22.6398Z" fill="black"/>
<path d="M56.4272 30.1864C57.7667 27.3354 59.2736 24.4845 60.9479 21.8013C61.1153 24.1491 61.4502 26.6646 61.9525 29.1802C60.1107 29.3479 58.269 29.851 56.4272 30.1864ZM70.6589 33.205C71.9983 32.3665 71.1612 30.3541 69.8217 29.851C68.4823 24.6522 67.3103 19.4534 65.8034 14.4224C65.3011 12.41 61.9525 12.5777 60.9479 13.9193C56.4272 19.2857 52.9112 25.8261 49.8974 32.5342C45.7116 34.0435 41.5259 35.7205 37.1726 36.2236C35.1635 36.3913 35.8332 38.7392 37.5075 38.9069C41.0236 39.2423 44.2048 38.7392 47.5534 38.0684C46.2139 41.5901 44.8745 45.1118 43.7025 48.6336C43.0327 50.4783 46.3814 51.3168 47.2185 49.9752C49.73 45.9503 51.5717 41.2547 53.5809 36.7267C56.5947 36.0559 59.7759 35.8882 62.7896 35.3851C63.7942 39.9131 64.9662 44.2733 66.4731 48.4659C67.8126 52.1553 74.6772 50.8137 73.6726 46.6211C72.8355 42.0932 71.6635 37.5652 70.6589 33.205Z" fill="black"/>
<path d="M106.151 39.5777C104.644 37.2298 103.639 34.7143 102.467 32.1988C100.291 27.5031 97.7793 23.1429 95.2678 18.4472C95.1004 17.9441 94.5981 17.7764 94.2632 17.6087C95.6026 16.6025 96.9421 15.5963 98.1141 14.5901C102.132 11.5714 108.495 8.88822 109.499 3.52176C109.834 1.67704 106.821 1.17393 105.649 1.67704C103.472 2.85095 102.132 4.52797 100.291 6.20499C98.1141 8.21741 95.6026 9.89443 93.426 11.7392C89.7426 14.9255 86.5614 18.4472 83.3802 22.1367C83.3802 21.969 83.3802 21.8013 83.3802 21.6336C83.3802 14.7578 84.2173 7.71431 82.2082 1.00623C81.8733 -0.167682 79.1944 -0.503085 78.8595 0.83853C77.3526 7.71431 78.8595 14.5901 79.3618 21.4659C79.8641 29.3478 79.8641 37.0621 79.6967 44.9441C79.6967 47.9627 85.5568 47.795 85.2219 44.9441C84.5522 38.7391 83.8825 32.7019 83.715 26.6646C85.8916 24.6522 88.2357 22.8075 90.5797 20.795C92.4215 26.4969 94.4306 32.0311 96.7747 37.3975C98.449 41.087 99.9559 45.7826 104.142 47.1242C106.318 47.795 109.499 46.9565 108.83 44.1056C108.327 42.4286 107.155 41.2547 106.151 39.5777Z" fill="black"/>
<path d="M141.312 10.3975C136.121 11.7392 129.759 10.9006 124.401 11.4037C118.541 12.0746 113.016 12.5777 107.323 14.2547C105.481 14.7578 106.821 16.6025 108.16 16.7702C113.183 17.441 118.373 17.2733 123.564 16.9379C121.555 25.9938 122.224 35.2174 122.559 44.441C122.727 48.969 131.266 48.8013 130.931 44.2733C130.261 35.0497 130.261 25.8261 128.587 16.6025C133.275 16.2671 137.963 16.0994 142.651 16.4348C147.841 17.1056 146.837 9.05592 141.312 10.3975Z" fill="black"/>
</svg>
