<svg width="570" height="133" viewBox="0 0 570 133" fill="none" xmlns="http://www.w3.org/2000/svg">
<g clip-path="url(#clip0_0_3440)">
<path d="M310.744 27.4793C310.744 27.6625 310.927 27.8457 311.11 28.0289C311.11 28.0289 311.11 28.0289 310.927 28.0289C309.645 27.4793 310.194 27.4793 310.744 27.4793ZM317.34 29.8609C318.439 29.8609 319.539 29.8609 320.638 29.8609C318.806 39.2039 318.623 48.73 318.439 58.2562C318.439 58.073 318.439 57.8898 318.439 57.7066C318.256 52.5771 318.073 47.4477 317.89 42.3182C317.706 38.2879 317.89 33.8912 317.34 29.8609ZM335.296 86.8347C331.998 85.9187 328.15 86.2851 324.486 86.4683C324.852 82.2548 324.302 77.8581 324.302 73.6446C324.302 68.8815 324.302 64.1185 324.302 59.1722C324.302 49.4628 324.669 39.5702 323.753 29.8609V29.6777H323.936C327.051 29.6777 331.265 30.5937 334.013 28.9449C335.296 28.2121 335.112 26.3802 333.83 25.6474C330.715 23.9986 327.051 24.5482 323.386 24.7314C321.004 24.7314 318.439 24.5482 315.874 24.7314C314.225 24.5482 312.759 24.5482 311.294 24.5482C309.095 24.5482 306.53 25.0978 305.98 27.1129C305.614 29.1281 307.629 30.7769 309.645 31.1432C311.11 31.3264 312.943 31.1432 314.592 30.4105C314.408 34.4408 314.775 38.6543 314.958 42.6846C315.141 47.814 315.325 52.9435 315.508 58.073C315.874 67.5992 316.424 77.1253 316.79 86.6515C313.309 86.6515 309.645 86.8347 306.53 87.7507C304.148 88.4835 305.431 91.0482 307.263 91.4146C311.66 92.3306 316.79 91.781 321.371 91.781C323.753 91.781 325.951 91.5978 328.333 91.5978C330.715 91.5978 333.097 91.781 335.296 91.0482C337.494 90.3154 337.494 87.5675 335.296 86.8347Z" fill="black"/>
<path d="M492.316 28.7617C492.132 28.7617 492.132 28.7617 492.316 28.7617C492.132 28.7617 492.132 28.7617 492.316 28.7617C492.132 28.7617 492.316 28.7617 492.316 28.7617ZM494.514 29.8608C494.514 30.2272 494.514 30.044 494.514 29.8608V29.8608ZM496.713 31.876C497.812 29.8608 497.629 27.6625 495.797 26.1969C494.881 25.4641 493.232 25.2809 492.316 26.0137C492.132 26.0137 491.949 26.0137 491.766 26.1969C490.85 26.5633 490.3 27.2961 489.934 28.0289C489.018 29.8608 489.934 32.2424 491.766 33.1584C493.598 33.8911 495.797 33.5248 496.713 31.876Z" fill="black"/>
<path d="M545.998 74.7438C546.181 74.927 546.181 74.927 546.364 75.1102H546.181C545.998 74.927 545.998 74.7438 545.998 74.7438ZM424.156 109.185C420.675 109.185 417.193 109.185 413.529 109.185C417.193 109.185 421.041 109.001 424.705 109.001C434.233 108.818 443.577 108.635 453.105 108.818C459.517 109.001 465.747 109.185 472.16 109.551C465.014 109.551 457.685 109.551 450.539 109.368C441.745 109.185 432.95 109.185 424.156 109.185ZM449.44 55.8747C449.623 55.8747 449.623 55.8747 449.44 55.8747C449.44 56.0579 449.44 56.0579 449.44 56.2411V55.8747ZM565.053 30.0441C564.686 43.6006 564.686 57.3402 563.953 70.8967C563.587 70.8967 563.037 71.0799 562.671 71.2631C561.571 71.8127 560.655 72.3623 559.556 72.7287C556.808 73.2783 554.059 73.6446 551.128 73.6446C546.547 73.6446 545.265 68.8816 544.715 64.8513C544.532 61.0042 544.349 57.157 544.349 53.3099C544.532 47.9973 545.998 42.5014 545.631 37.1887C545.448 34.4408 545.265 28.3953 541.051 28.7617C538.119 28.9449 537.203 31.8761 537.02 34.624C536.104 40.4862 536.653 46.7149 536.653 52.5772C536.653 55.8747 536.653 58.989 536.653 62.2865L536.47 62.4697C535.188 64.6681 535.004 67.2328 533.905 69.4312C532.806 71.6295 530.79 73.4615 528.408 74.5606C525.843 75.6598 523.461 75.4766 521.263 74.5606C521.08 74.3774 520.896 74.1942 520.713 74.011C517.782 70.3471 517.598 63.9353 517.049 59.5386C516.865 58.073 516.682 56.7907 516.682 55.3251C516.682 54.0427 516.499 52.7604 516.316 51.6612C516.133 50.1956 516.133 48.5469 515.949 47.0813C516.865 47.0813 517.782 47.0813 518.881 47.0813C520.896 47.0813 523.461 47.6309 525.66 47.0813C526.026 47.0813 526.576 46.8981 526.943 46.8981C527.675 46.7149 528.042 46.1653 528.225 45.6157C528.958 44.6997 528.408 43.4174 527.675 42.6846C526.026 41.0358 523.278 41.0358 520.713 41.219C519.247 41.0358 517.965 40.8526 516.499 40.6694C516.499 40.3031 516.682 39.7535 516.682 39.3871C517.415 35.1736 518.514 29.6777 515.583 25.8306C513.018 22.7163 510.453 25.6474 509.72 28.5785C509.353 30.4105 509.353 32.6088 509.353 34.4408C509.17 36.2727 508.987 38.2879 508.987 40.1199C506.055 40.1199 502.941 40.4862 501.841 42.8678C501.475 43.6006 501.841 44.5166 502.574 44.8829C503.857 45.7989 504.773 45.7989 506.239 45.7989C506.788 46.1653 507.338 46.5317 507.888 46.5317C508.254 46.5317 508.621 46.5317 508.804 46.5317C508.804 48.1805 508.804 49.8292 508.804 51.6612C508.987 55.3251 509.17 59.1722 509.353 62.8361C509.537 64.4849 509.537 66.3168 509.72 68.1488C509.537 68.332 509.353 68.6984 509.17 69.0648C507.338 74.5606 499.826 75.6598 497.81 69.6143C496.894 66.6832 497.078 63.5689 496.894 60.4546C496.711 56.7907 496.711 53.3099 496.528 49.646C496.345 46.3485 491.398 44.8829 490.848 48.5469C489.932 53.4931 488.466 58.4394 486.451 63.0193C484.802 66.8664 482.42 71.8127 478.939 74.3774C472.709 78.5909 473.809 67.2328 473.809 64.3017C473.992 59.1722 473.992 53.8595 473.442 48.7301C473.076 44.6997 472.892 40.1199 470.694 36.6391C468.495 33.1584 464.464 31.6929 460.617 32.9752C456.769 34.4408 453.654 38.1047 451.639 41.4022C450.356 43.2342 449.623 45.2493 448.891 47.0813C448.341 39.9367 446.875 30.5937 438.264 30.2273C430.568 29.8609 428.187 37.5551 426.721 43.967C426.721 43.7838 426.721 43.4174 426.721 43.2342C426.904 40.1199 426.904 37.0055 425.988 33.8912C424.339 29.3113 418.842 25.281 413.895 28.0289C411.33 29.4945 410.048 32.4256 408.948 34.9904C408.032 37.1887 407.299 39.3871 406.933 41.7686C406.2 43.051 406.017 44.6997 406.017 45.7989C406.017 47.2645 406.75 50.0124 408.399 50.7452C408.582 51.2948 409.498 51.2948 409.681 50.7452C409.864 50.562 409.864 50.3788 409.864 50.1956C409.864 49.8292 409.864 49.646 409.864 49.4628C410.048 47.4477 410.231 45.4325 410.781 43.4174C410.964 42.8678 411.147 42.135 411.33 41.5854C411.513 41.219 411.513 41.0358 411.697 40.6694C412.613 38.4711 414.628 32.2424 418.109 33.3416C420.675 34.2576 421.591 39.0207 421.957 41.4022C421.957 41.7686 421.957 42.3182 421.957 42.6846C421.407 54.2259 420.858 65.7672 420.308 77.1254C420.125 80.2397 424.889 81.3389 425.438 78.0413C426.904 70.3471 428.187 62.4697 429.836 54.7755C430.568 50.9284 431.301 47.0813 432.217 43.4174C432.95 40.3031 434.05 35.7232 437.714 35.1736C441.745 34.4408 442.844 39.7535 443.211 42.5014C443.577 46.5317 443.76 50.3788 443.944 54.4091C444.127 62.4697 444.127 70.5303 443.76 78.5909C443.577 82.0716 449.44 83.354 449.623 79.6901C449.807 76.5758 449.807 73.2783 449.807 70.1639C450.906 60.6378 452.738 50.562 458.784 42.8678C460.8 40.3031 464.648 38.1047 466.846 41.9518C467.945 43.967 468.129 46.7149 468.312 49.0964C468.312 50.7452 468.312 52.394 468.312 53.8595C468.312 57.7066 467.762 61.5537 467.579 65.4008C467.213 71.8127 466.48 84.27 476.74 81.7053C482.786 80.2397 488.833 75.2934 492.131 69.6143C492.68 71.9959 493.78 74.1942 495.795 76.0262C500.742 80.6061 508.437 80.0565 512.468 75.4766C515.4 79.3237 520.53 80.6061 525.294 80.7893C529.691 80.9725 536.104 79.6901 538.119 75.1102C542.7 82.9876 555.708 81.5221 563.404 77.1254C563.037 83.1708 562.854 90.1322 559.006 94.8953C554.975 99.8416 548.013 102.59 542.15 104.788C539.218 105.887 536.104 106.803 532.989 107.353C512.651 108.818 492.314 106.803 472.16 105.704C449.257 104.422 426.354 104.971 403.452 105.887C401.803 105.887 399.238 106.07 397.039 106.803C395.756 106.437 394.291 106.803 393.558 108.269C392.825 109.734 393.191 111.2 394.108 112.299C394.657 113.398 395.94 114.131 397.039 114.314C397.222 114.314 397.405 114.497 397.772 114.497C401.62 115.23 406.383 114.68 410.231 114.68L436.615 114.864C453.837 114.864 471.06 115.047 488.283 115.047C497.078 115.047 505.689 115.23 514.484 115.23C522.728 115.23 530.79 114.68 538.852 112.482C545.814 110.467 553.326 107.536 559.189 103.139C564.686 98.9256 567.434 93.2466 568.351 86.4683C569.633 77.3086 569.633 67.7824 569.816 58.4394C569.999 48.9132 569.816 39.5703 568.9 30.0441C568.9 28.2121 565.053 27.6626 565.053 30.0441Z" fill="black"/>
<path d="M53.5024 36.6391C53.3192 36.6391 53.3192 36.6391 53.5024 36.6391C53.6856 35.54 54.0521 34.624 54.4185 33.708C54.4185 34.0744 54.6017 34.4408 54.6017 34.8072C54.785 36.2727 55.3346 37.5551 53.5024 36.6391ZM72.3742 84.4532C65.2286 84.4532 51.487 85.3692 49.4716 76.0262C47.0897 65.9504 59.1823 58.073 67.244 55.3251C75.4889 52.5772 86.299 51.2948 94.3607 55.5083C98.3915 57.5234 100.59 60.821 101.506 64.8513C101.323 70.3471 101.14 75.6598 101.14 81.1557C100.224 81.7052 99.4908 82.2548 98.3915 82.9876C89.7801 83.9036 81.1688 84.4532 72.3742 84.4532ZM99.4908 52.7603C90.6962 46.3485 78.6037 46.5317 68.5265 49.0964C57.5333 51.8444 45.4407 59.1722 43.6085 71.0799C41.7763 82.438 52.0367 88.8499 61.9306 89.9491C72.7406 91.2314 83.9171 90.865 94.9103 89.7659C97.8419 89.7659 100.773 89.7659 103.705 89.3995C104.621 91.5978 108.835 91.9642 109.202 89.0331C109.202 88.8499 109.202 88.8499 109.202 88.6667C111.767 88.1171 114.149 87.2011 114.515 84.27C114.881 81.1557 113.232 77.8581 110.118 77.1254C110.301 69.9807 109.934 62.8361 108.469 56.0579C108.285 54.5923 108.102 52.9435 107.919 51.478C106.82 42.3182 103.338 33.8912 94.9103 29.1281C86.4822 24.1818 74.5728 20.1515 64.6789 22.3499C62.8467 22.7163 61.1977 23.4491 59.5487 24.365C53.5024 26.7466 46.7233 32.792 50.0212 38.6543C51.487 41.219 55.3346 42.135 57.1668 39.5703C58.2662 38.1047 58.0829 36.4559 57.8997 34.8072C58.0829 34.8072 58.2662 34.624 58.4494 34.4408C63.3963 29.4945 70.7252 27.113 77.5043 27.8457C84.8332 28.7617 90.8795 33.1584 95.2768 39.0207C99.1244 44.1502 101.506 49.8292 102.972 55.6915C101.873 54.5923 100.773 53.4931 99.4908 52.7603Z" fill="black"/>
<path d="M126.79 27.8458C126.79 28.9449 126.607 29.8609 126.423 30.9601C126.24 32.6088 126.057 34.0744 125.874 35.7232C125.874 32.4256 125.69 29.3113 125.69 26.0138C125.69 25.6474 125.507 25.281 125.324 24.9146C125.507 24.9146 125.69 24.9146 125.874 25.0978C126.423 25.6474 126.79 26.7466 126.79 27.8458ZM127.889 58.6226C128.256 58.2562 128.439 57.7066 128.256 57.1571C128.622 56.9739 128.805 56.6075 129.172 56.4243C129.721 55.8747 130.271 55.5083 130.821 54.9587C132.47 53.6763 133.935 52.394 135.584 51.1116C138.699 48.5469 141.631 46.1653 144.745 43.7838L144.929 43.6006C146.028 51.1116 149.326 58.8058 152.257 65.7672C153.906 69.6144 155.555 73.2783 157.388 76.9422C159.22 80.6061 160.869 84.8196 163.617 87.9339C165.816 90.4986 169.663 88.8499 168.564 85.5524C167.282 81.8885 164.9 78.5909 163.067 75.1102C161.235 71.4463 159.403 67.7824 157.754 63.9353C154.456 56.6075 152.257 48.7301 148.776 41.4022C148.776 41.219 148.593 41.0358 148.41 41.0358C153.357 37.1887 158.304 33.3416 163.251 29.3113C165.633 27.4794 162.518 23.8155 160.136 25.4642C152.624 30.2273 145.662 35.3568 138.699 40.6694C135.218 43.2342 131.92 45.9821 128.622 48.5469C128.439 48.7301 128.072 48.9132 127.889 49.0964C128.072 47.2645 128.072 45.4325 128.256 43.6006C128.622 39.5703 128.988 35.54 129.538 31.5097C129.905 29.1281 130.271 26.3802 128.805 24.1818C127.339 21.8003 122.759 21.4339 121.476 23.6323C121.11 23.8155 120.927 24.365 120.927 25.0978C120.377 35.3568 120.377 45.7989 120.194 56.0579C120.011 66.3168 119.278 76.759 119.644 87.0179C119.644 89.7659 123.125 91.5978 124.958 89.7659C125.324 89.7659 125.69 89.5827 125.874 89.2163C127.889 86.8347 127.889 83.5372 127.706 80.4229C127.523 76.3926 127.339 72.5455 127.339 68.5152C127.339 65.4009 127.339 62.2865 127.339 59.1722C127.706 58.989 127.706 58.8058 127.889 58.6226Z" fill="black"/>
<path d="M181.388 83.5372C181.388 82.9876 181.205 82.6212 181.205 82.0716C181.388 82.6212 181.388 83.1708 181.388 83.5372ZM158.302 13.5565C162.333 15.022 166.914 14.8388 171.128 15.022C174.609 15.2052 177.907 15.2052 181.388 15.3884C181.022 17.5868 180.839 19.7851 180.839 21.9835C180.472 26.0138 180.472 30.2273 180.106 34.0744C179.556 41.9518 179.006 50.0124 178.823 57.8898C178.457 65.584 178.274 73.2782 178.09 80.9724C178.09 84.6364 179.373 89.3994 183.404 89.949C185.236 91.0482 187.984 90.865 188.167 88.3003C188.717 82.2548 187.801 75.6598 187.618 69.6143C187.435 63.3857 187.251 57.157 187.068 50.7452C186.885 44.5165 186.885 38.2879 186.885 31.876C186.885 26.5633 187.435 20.8843 186.702 15.3884C195.679 15.7548 204.657 16.1212 213.635 16.1212C215.467 16.1212 216.567 14.2892 216.383 12.8237C216.017 10.9917 214.368 9.89255 212.536 9.89255C203.558 9.52616 194.397 9.52616 185.419 9.34296C180.472 9.15976 175.892 9.15976 171.311 8.97657C167.097 8.97657 162.333 8.42698 158.302 9.70935C156.47 10.4421 156.653 12.8237 158.302 13.5565Z" fill="black"/>
<path d="M192.014 126.039C175.158 125.672 158.302 125.306 141.262 124.939C122.391 124.573 103.519 124.207 84.647 123.84C84.2806 123.84 83.7309 123.84 83.5477 124.023C82.8148 122.008 85.5631 122.008 86.8457 122.191C89.594 122.375 92.5255 122.558 95.2739 122.741C100.77 123.107 106.45 123.291 111.947 123.657C123.123 124.207 134.3 124.39 145.66 124.573C157.019 124.756 168.562 124.756 179.922 124.573C185.602 124.573 191.282 124.39 196.961 124.756C201.542 125.123 206.122 126.039 210.703 126.405C204.473 126.588 198.244 126.222 192.014 126.039ZM208.871 84.4532C204.84 82.0716 203.374 77.4917 202.641 72.9118C203.557 75.4766 204.657 78.0413 205.939 80.4229C207.039 82.2548 208.321 83.7204 209.604 85.0028C209.604 84.8196 209.237 84.6364 208.871 84.4532ZM242.95 31.1432C242.767 28.3953 238.186 26.9297 238.003 30.2273C237.087 45.7989 237.087 61.3705 236.904 76.9421C236.537 77.1253 236.171 77.6749 235.804 78.2245C235.071 80.0565 230.124 80.9725 228.475 81.522C225.727 82.438 222.796 83.1708 219.864 82.9876C212.902 82.8044 210.153 76.9421 207.955 71.2631C203.374 58.073 204.657 44.3333 202.641 30.7769C202.641 30.4105 202.458 30.0441 202.092 29.6777C202.092 29.4945 202.092 29.3113 202.092 29.1281C202.092 28.0289 200.443 27.6625 200.259 28.7617C200.259 28.9449 200.259 28.9449 200.259 29.1281C199.71 29.3113 199.343 29.6777 199.16 30.4105C198.244 36.0895 198.244 41.9518 198.427 47.6308C198.427 49.0964 198.244 50.562 198.244 52.0275C198.061 59.3554 198.244 66.8664 199.527 74.1942C200.443 79.6901 202.824 85.0028 208.138 87.5675C211.986 89.3994 216.383 89.7658 220.597 89.0331C221.513 89.0331 222.429 89.0331 223.528 89.0331C227.193 88.6667 230.674 87.7507 234.155 86.4683C235.071 86.1019 235.804 85.9187 236.72 85.5523C236.72 91.0482 236.72 96.5441 236.171 101.857C235.621 107.536 234.522 113.764 231.04 118.528C223.712 124.573 214.367 123.84 204.84 122.558C193.297 120.909 181.937 121.275 170.211 121.459C145.843 121.642 121.474 120.909 97.1061 119.627C93.8081 119.444 90.5101 119.26 87.0289 119.077C85.0135 118.894 82.2652 118.528 80.6162 120.176C78.6008 122.191 79.7001 124.756 81.7155 126.405C81.7155 128.237 83.3645 130.252 85.5631 130.435C120.742 131.168 155.92 131.901 191.098 132.634C199.16 132.817 207.222 133.366 215.284 132.817C221.879 132.267 228.475 130.618 233.422 126.039C243.133 117.062 242.95 102.406 242.95 90.3154C243.316 70.5303 243.866 50.9284 242.95 31.1432Z" fill="black"/>
<path d="M20.1544 80.0565C20.1544 79.8733 20.1544 79.6901 20.1544 79.5069C20.1544 77.8581 19.9712 76.2094 19.9712 74.5606C19.9712 76.3925 20.1544 78.2245 20.1544 80.0565ZM23.4524 78.4077C23.2692 70.8967 22.7195 63.5689 22.3531 56.0578C22.1699 53.3099 21.9867 50.562 21.9867 47.814C25.1014 47.9972 28.0329 48.1804 31.1477 48.1804C34.9953 48.1804 39.2094 48.5468 43.057 47.9972C46.1718 47.6308 45.8054 43.0509 42.8738 42.8678C35.9114 42.3182 28.5826 43.2341 21.8034 44.3333C21.6202 41.0358 21.437 37.9215 21.2538 34.624C21.0706 30.7768 20.8873 26.7465 20.5209 22.8994C20.3377 19.7851 20.3377 16.6708 19.9712 13.5565C24.3685 13.3733 28.5826 13.1901 32.7967 13.1901C40.492 13.0069 48.1872 12.8237 55.6993 12.6405C73.8381 12.2741 91.977 11.9077 110.116 11.7245C123.125 11.5413 135.767 12.6405 148.409 15.2052C151.157 15.7548 151.341 12.2741 149.325 11.1749C139.248 6.41183 127.705 5.67905 116.712 5.49585C105.535 5.31266 94.5421 5.49585 83.3656 5.67905C67.6086 5.86224 51.6684 6.41183 35.9114 6.59503C30.9645 6.77822 25.8343 6.77822 20.8873 6.77822C19.788 6.77822 18.6887 6.77822 17.5894 6.77822C17.4061 4.94627 17.4061 3.11431 17.2229 1.09916C17.2229 -0.18321 14.841 -0.366406 14.841 0.915963C14.841 2.93111 14.6578 4.76307 14.6578 6.77822C10.4437 6.77822 6.04645 6.96142 1.83237 7.6942C-1.09917 8.24379 -0.732723 12.2741 2.01559 12.6405C6.04645 13.1901 10.2605 13.5565 14.4746 13.5565C14.2914 24.1818 14.4746 34.9903 14.4746 45.6157C14.4746 52.9435 14.4746 60.2713 14.4746 67.5992C14.4746 71.2631 14.4746 74.927 14.4746 78.5909C14.4746 82.0716 13.7417 86.2851 14.841 89.7658C15.0243 90.4986 15.9404 91.4146 16.8565 91.781C17.4061 92.3306 18.3222 92.5138 18.8719 91.9642C23.086 88.4835 23.4524 83.354 23.4524 78.4077Z" fill="black"/>
</g>
<defs>
<clipPath id="clip0_0_3440">
<rect width="570" height="133" fill="white"/>
</clipPath>
</defs>
</svg>
