<svg width="284" height="414" viewBox="0 0 284 414" fill="none" xmlns="http://www.w3.org/2000/svg">
<g clip-path="url(#clip0_0_3433)">
<path d="M188.901 175.727C187.412 177.402 185.737 178.705 183.876 179.636C181.457 180.753 178.851 181.311 176.246 180.939C173.64 180.567 171.221 179.636 169.174 177.774C167.499 176.471 166.382 174.982 165.451 173.121C164.707 171.445 164.335 169.956 164.335 168.467V167.722L164.149 167.536L163.963 167.35C161.915 163.999 161.543 160.462 162.846 156.553C164.149 152.644 166.568 149.852 170.29 147.99C173.454 146.501 176.804 146.315 180.34 147.246C183.876 148.362 186.482 150.224 188.343 153.202L189.273 154.692C190.762 157.67 191.693 160.648 192.251 163.999L192.437 165.861C192.623 169.397 191.506 172.748 188.901 175.727ZM172.523 131.05C170.849 133.284 168.615 134.96 165.824 136.076C165.079 137.38 164.335 138.496 163.404 139.427C162.474 140.544 161.171 141.475 159.496 142.219C156.704 143.522 153.913 143.895 151.121 143.522C148.33 143.15 145.724 141.847 143.677 139.613L141.444 137.566C139.955 136.076 138.466 134.215 136.791 131.795C135.302 129.375 133.813 126.583 132.51 123.79C131.208 120.812 130.277 119.137 129.905 118.392C127.672 113.738 126.369 107.968 125.811 100.708C125.252 93.634 126.183 86.3741 128.602 79.3004C129.905 74.6466 131.58 70.179 133.627 65.5252L138.466 53.7977C140.141 50.0746 141.257 46.1655 141.816 42.0702C142.374 38.9056 142.56 36.6718 142.56 35.5549C142.56 34.438 142.002 32.7626 141.257 30.7149C140.885 29.598 140.327 28.6673 139.396 27.9227C139.21 27.7365 139.024 27.5504 138.838 27.3642L134.558 27.9227C130.835 28.6673 126.927 29.9703 123.019 32.018C120.227 33.3211 117.808 34.8103 115.575 36.4856L115.389 36.6718L115.575 38.161L116.505 44.8624C117.063 47.6547 116.505 50.6331 115.016 53.4254C113.527 56.2176 111.48 58.2653 108.689 59.5684C104.966 61.4299 101.244 61.616 97.7083 60.1268C93.9861 58.6376 91.3806 56.4038 89.8918 53.0531C89.1473 51.5639 88.7751 50.447 88.7751 49.7024L87.8446 43.0009C87.8446 42.8148 87.8446 41.884 87.4724 40.5809C87.1002 38.9056 87.1002 37.4164 86.9141 35.9272C86.9141 34.0657 87.1002 32.018 87.6585 30.1565C88.0307 29.0396 88.4029 27.9227 88.9612 26.8058C90.4501 23.455 93.0556 20.2905 96.7778 16.9398C100.5 13.7752 105.339 10.7968 110.922 8.00451C117.063 5.02609 123.205 2.97843 129.347 1.67537C135.488 0.372311 140.699 8.9407e-06 144.793 0.744613C147.771 1.11692 150.377 2.04767 152.796 3.53688L154.843 2.41997C158.379 0.744613 162.101 0.744613 166.196 2.41997L168.057 3.16458C169.918 3.90918 171.965 5.21224 174.012 7.07375C174.757 7.81835 175.315 8.56296 176.06 9.30756C176.804 10.2383 177.176 10.7968 177.362 11.3552L178.479 13.589L179.409 15.6367C184.062 25.5027 186.668 33.5072 187.226 39.6502C187.412 43.0009 187.04 46.9101 186.295 51.3777C185.551 55.8453 184.62 60.1268 183.132 64.036C182.015 67.3867 180.526 71.2959 178.479 75.9497L174.757 84.1403C173.826 86.0018 172.71 88.4218 171.779 91.5863C170.849 94.7509 170.104 98.2878 169.546 101.825L168.429 109.271L168.987 110.201L169.918 112.063C171.965 113.366 173.454 115.041 174.385 117.089C175.501 119.323 175.873 121.743 175.687 124.349C175.129 126.583 174.198 129.003 172.523 131.05Z" fill="black"/>
<path d="M211.233 125.652C209.744 125.838 208.255 125.652 206.952 125.28C205.277 124.721 203.788 123.79 202.672 122.301C201.555 120.998 200.997 119.323 200.811 117.461C200.624 116.158 200.624 114.669 201.183 113.366C201.555 112.249 202.113 111.132 202.672 110.388L203.044 110.015V109.829V109.643C203.602 107.037 205.091 104.989 207.51 103.5C209.93 102.197 212.535 101.825 214.955 102.569C217.188 103.314 218.863 104.803 220.166 106.851C221.468 109.085 221.841 111.318 221.282 113.552L221.096 114.855C220.538 117.089 219.607 119.137 218.119 120.998L217.374 122.115C215.885 124.163 213.838 125.28 211.233 125.652ZM223.888 95.1232C222.027 95.4955 220.166 95.3094 218.305 94.5648C217.374 94.9371 216.444 95.1232 215.513 95.1232C214.582 95.3094 213.466 95.1232 212.163 94.7509C210.302 94.1925 208.627 93.0755 207.51 91.4002C206.394 89.911 205.649 88.0495 205.649 86.0018L205.463 83.768C205.463 82.2788 205.463 80.6034 206.022 78.5558C206.394 76.5081 206.952 74.4604 207.696 72.4128C208.441 70.3651 208.813 69.0621 208.999 68.5036C210.116 65.1529 212.163 61.4299 215.141 57.5207C218.119 53.6115 222.027 50.4469 226.307 47.8408C229.099 46.1655 232.077 44.4901 235.24 43.1871L243.057 39.464C245.476 38.3471 247.896 36.8579 250.129 34.9964C251.804 33.5072 252.921 32.5764 253.479 32.018C254.037 31.4595 254.596 30.3426 255.154 28.8534C255.526 28.1088 255.712 27.3642 255.526 26.6196C255.526 26.4335 255.526 26.2473 255.526 26.0612L253.293 24.3858C251.06 23.0827 248.64 21.9658 245.849 21.0351C243.987 20.4766 241.94 20.1043 240.079 19.9182H239.893L239.335 20.6628L236.729 24.5719C235.613 26.2473 234.124 27.5504 232.077 28.295C230.029 29.0396 228.168 29.0396 226.121 28.4811C223.516 27.7365 221.655 26.0612 220.538 23.6412C219.421 21.2212 219.235 18.8013 219.98 16.3813C220.352 15.2644 220.724 14.5198 221.096 14.1475L223.702 10.2383C223.888 10.2383 224.074 9.67986 224.632 8.7491C225.191 7.81835 225.935 6.88759 226.679 6.14299C227.61 5.02608 228.541 4.28148 229.843 3.53687C230.588 3.16457 231.146 2.79227 231.89 2.41997C234.124 1.30306 236.915 0.930756 240.265 1.11691C243.615 1.30306 247.337 1.86151 251.246 3.16457C255.526 4.46763 259.434 6.32914 263.157 8.56295C266.879 10.7968 269.484 13.0306 271.159 15.2644C272.462 16.7536 273.206 18.6151 273.765 20.4766L275.254 20.8489C277.673 21.5935 279.534 23.455 280.837 26.2473L281.395 27.5504C281.953 28.8534 282.326 30.3426 282.512 32.2041C282.512 32.9487 282.512 33.5072 282.326 34.2518C282.326 34.9964 282.139 35.5549 281.953 35.9272L281.395 37.6025L280.837 39.0917C278.603 46.3516 276.184 51.5639 273.579 55.1007C272.09 56.9622 270.043 58.8237 267.623 60.6853C265.204 62.7329 262.784 64.2221 260.179 65.7113C258.132 66.8282 255.526 68.1313 252.362 69.6205L246.779 72.0405C245.476 72.4128 243.801 73.3435 241.754 74.4604C239.707 75.5773 237.846 77.0666 235.985 78.7419L232.077 82.0926L231.89 82.8372L231.518 84.1403C231.89 85.8157 231.89 87.3049 231.332 88.7941C230.774 90.4694 229.843 91.9586 228.541 93.0755C227.238 94.0063 225.749 94.7509 223.888 95.1232Z" fill="black" fill-opacity="0.5"/>
<path d="M265.203 168.281C264.273 168.839 263.528 169.025 262.598 169.211C261.481 169.397 260.364 169.211 259.248 168.653C258.131 168.094 257.387 167.35 256.828 166.233C256.27 165.488 256.084 164.558 255.898 163.627C255.898 162.882 255.898 162.138 256.084 161.393V161.021V160.835V160.648C255.712 158.973 256.084 157.298 257.201 155.808C258.317 154.319 259.62 153.575 261.481 153.388C262.97 153.202 264.459 153.575 265.761 154.505C267.064 155.436 267.809 156.739 268.181 158.228L268.367 158.973C268.553 160.462 268.553 161.951 268.181 163.254L267.995 163.999C267.436 166.233 266.506 167.536 265.203 168.281ZM264.645 146.873C263.714 147.618 262.412 147.99 261.109 147.99C260.55 148.362 260.178 148.735 259.62 149.107C259.062 149.479 258.317 149.665 257.573 149.665C256.27 149.852 254.967 149.665 254.037 148.921C252.92 148.362 251.99 147.432 251.431 146.129L250.873 144.826C250.501 144.081 250.128 142.964 249.756 141.661C249.57 140.358 249.198 139.055 249.012 137.566C248.826 136.076 248.826 135.332 248.64 134.96C248.454 132.726 248.64 129.933 249.384 126.769C250.128 123.604 251.617 120.812 253.478 118.02C254.595 116.344 256.084 114.483 257.573 112.808L261.109 108.526C262.225 107.223 263.342 105.734 264.087 104.058C264.831 102.755 265.203 101.825 265.203 101.452C265.389 100.894 265.389 100.149 265.389 99.2185C265.389 98.6601 265.203 98.1016 265.017 97.7293C265.017 97.5432 265.017 97.5432 264.831 97.357L263.156 96.9847C261.481 96.7986 259.806 96.7986 257.945 96.9847C256.642 97.1709 255.339 97.357 254.223 97.7293H254.037L253.851 98.2878L253.292 101.266C253.106 102.569 252.548 103.686 251.617 104.617C250.687 105.548 249.384 106.106 248.081 106.292C246.22 106.478 244.731 106.106 243.429 104.803C242.126 103.686 241.381 102.197 241.195 100.522C241.195 99.777 241.195 99.2185 241.195 98.8462L241.754 95.8678C241.754 95.8678 241.94 95.4955 241.94 94.7509C242.126 94.0063 242.126 93.2617 242.312 92.7032C242.498 91.7725 242.87 91.0279 243.429 90.2833C243.801 89.911 243.987 89.3525 244.359 88.9802C245.476 87.8633 246.965 86.7464 249.012 86.0018C251.059 85.2572 253.292 84.6987 256.084 84.3264C259.062 83.9541 261.853 83.9541 264.459 84.3264C267.25 84.6987 269.298 85.2572 270.973 86.1879C272.089 86.7464 273.02 87.6772 273.764 88.6079L274.695 88.4218C276.37 88.2356 277.858 88.7941 279.347 90.0971L280.092 90.6556C280.836 91.214 281.395 92.1448 281.953 93.2617C282.139 93.634 282.325 94.0063 282.511 94.5647C282.697 94.937 282.697 95.3094 282.697 95.6817L282.883 96.7986L283.069 97.7293C283.628 102.569 283.628 106.478 282.883 109.085C282.511 110.574 281.767 112.249 280.836 113.924C279.906 115.786 278.975 117.275 277.672 118.764C276.742 120.067 275.625 121.557 274.136 123.046L271.531 126.024C270.786 126.583 270.042 127.513 269.298 128.817C268.367 130.12 267.623 131.423 266.878 132.912L265.389 135.89V136.449L265.575 137.38C266.134 138.31 266.506 139.241 266.692 140.172C266.878 141.289 266.692 142.406 266.134 143.336C265.575 144.267 265.575 146.315 264.645 146.873Z" fill="black" fill-opacity="0.5"/>
<path d="M71.0916 106.851C70.5333 107.223 70.1611 107.409 69.6027 107.595C68.8583 107.781 68.3 107.781 67.7417 107.409C67.1833 107.223 66.625 106.851 66.2528 106.292C65.8806 105.92 65.6945 105.548 65.6945 104.989C65.5084 104.617 65.5084 104.245 65.6945 103.872V103.686C65.3223 102.755 65.5084 101.825 66.0667 101.08C66.625 100.149 67.3694 99.5908 68.3 99.4047C69.2305 99.2185 69.9749 99.4047 70.7194 99.777C71.4638 100.149 72.0221 100.894 72.3943 101.638L72.5805 102.011C72.5805 102.569 72.5805 103.5 72.5805 104.245V104.803C72.3943 105.548 71.836 106.292 71.0916 106.851ZM69.6027 95.3094C69.0444 95.6817 68.4861 96.054 67.7417 96.054C67.5556 96.4263 67.1833 96.6124 66.9972 96.7986C66.625 96.9847 66.2528 97.1709 65.8806 97.357C65.1362 97.5432 64.3917 97.5432 63.8334 97.1709C63.089 96.9847 62.7168 96.4263 62.1584 95.8678L61.7862 95.3094C61.414 94.9371 61.2279 94.3786 61.0418 93.634C60.8557 92.8894 60.6696 92.1448 60.4835 91.4002C60.2974 90.6556 60.2974 90.0971 60.1113 89.911C59.9251 88.6079 59.9251 87.3049 60.1113 85.4433C60.2974 83.768 61.0418 82.0926 61.9723 80.4173C62.5306 79.3004 63.2751 78.3696 64.0195 77.4388L65.8806 74.8327C66.4389 74.0881 66.9972 73.1574 67.3694 72.2266C67.7417 71.482 67.9278 70.9236 67.9278 70.7374C67.9278 70.5513 67.9278 69.9928 67.9278 69.4343C67.9278 69.062 67.7417 68.8759 67.5555 68.6897V68.5036L66.625 68.3174C65.6945 68.3174 64.7639 68.5036 63.6473 68.6897C62.9029 68.8759 62.1584 69.062 61.6001 69.4343V69.8067L61.414 71.482C61.414 72.2266 61.0418 72.7851 60.6696 73.5297C60.1112 74.0881 59.5529 74.4604 58.8085 74.6466C57.878 74.8327 56.9474 74.6466 56.0169 74.0881C55.2725 73.5297 54.7141 72.7851 54.528 71.8543C54.528 71.482 54.3419 71.1097 54.528 70.9236L54.7141 69.2482C54.7141 69.2482 54.7141 69.062 54.7141 68.6897C54.7141 68.3174 54.7141 67.9451 54.9002 67.5728C54.9002 67.0144 55.0863 66.6421 55.4586 66.2698C55.6447 66.0836 55.8308 65.7113 56.0169 65.5252C56.5752 64.7806 57.3196 64.2221 58.4363 63.6637C59.5529 63.1052 60.8557 62.7329 62.3445 62.3606C64.0195 61.9883 65.5084 61.8022 67.1833 61.8022C68.8583 61.8022 69.9749 61.9883 70.9055 62.3606C71.6499 62.5468 72.2082 62.9191 72.7666 63.4775L72.5805 63.2914C73.511 63.1052 74.4415 63.2914 75.3721 63.8498L75.7443 64.2221C76.1165 64.5944 76.4887 64.9667 77.047 65.5252C77.2331 65.7113 77.2331 65.8975 77.4192 66.2698C77.6054 66.4559 77.6054 66.6421 77.6054 66.8282L77.7915 67.3867L77.9776 67.9451C78.5359 70.5513 78.722 72.5989 78.5359 74.0881C78.3498 74.8327 78.1637 75.7635 77.6054 76.8804C77.2331 77.9973 76.6748 78.9281 76.1165 79.6727C75.7443 80.4173 74.9999 81.348 74.2554 82.2788L72.9527 83.9541C72.5805 84.3264 72.2082 84.8849 71.836 85.6295C71.4638 86.3741 71.0916 87.1187 70.7194 88.0495L69.9749 89.7248V89.911L70.1611 90.4694C70.5333 90.8417 70.9055 91.4002 70.9055 91.9586C71.0916 92.5171 71.0916 93.0755 70.7194 93.8201C70.5333 94.3786 70.1611 94.7509 69.6027 95.3094Z" fill="black" fill-opacity="0.5"/>
<path d="M102.919 163.999C104.221 161.579 105.338 159.159 106.455 156.739C106.641 157.112 107.013 157.484 107.571 157.856C107.758 158.042 108.13 158.228 108.502 158.228C107.571 160.648 107.944 163.068 109.432 164.558C107.758 165.674 106.269 166.791 104.408 167.722C102.733 168.653 100.872 169.584 99.1966 170.328C100.499 168.094 101.802 166.047 102.919 163.999ZM110.921 141.847C110.735 141.847 110.363 141.847 110.177 141.847C110.177 141.661 110.177 141.475 110.177 141.103C110.363 141.103 110.549 141.289 110.921 141.289C110.921 141.661 110.921 141.661 110.921 141.847ZM115.76 149.107C115.574 149.107 115.388 149.293 115.202 149.293C115.388 148.549 115.76 147.99 115.76 147.245C115.946 146.873 116.132 146.687 116.132 146.315C115.946 147.245 115.76 148.176 115.76 149.107ZM107.758 153.388C107.944 152.644 108.316 151.899 108.502 151.155C109.06 151.527 109.991 151.527 110.363 151.155C110.549 151.341 110.735 151.341 110.921 151.527C109.805 151.899 108.688 152.458 107.758 153.388ZM114.457 157.484C117.063 156.925 119.482 156.553 121.157 154.319C123.018 151.713 123.949 148.735 124.879 145.756C125.624 143.336 126.368 140.544 124.507 138.496C123.763 137.752 122.832 137.193 121.902 136.635C123.204 137.193 124.507 137.752 125.624 138.31C125.81 138.31 125.996 138.31 125.996 138.496C126.182 138.869 126.182 139.241 126.368 139.427C126.368 139.613 126.368 139.799 126.368 139.799C126.741 142.033 126.741 144.453 126.368 146.687C126.368 147.059 126.182 147.246 126.182 147.618C125.438 150.41 124.135 153.202 123.763 155.995V156.181C123.391 155.995 123.018 155.995 122.832 156.181C120.413 157.484 118.18 158.973 115.946 160.276C114.83 160.835 113.341 162.138 112.038 161.765C110.921 161.393 111.294 161.021 111.48 159.904C111.48 159.345 111.666 158.601 111.852 158.042C112.782 157.856 113.713 157.67 114.457 157.484ZM109.805 130.492C109.432 130.492 109.246 130.492 108.874 130.492C109.246 130.492 109.432 130.492 109.805 130.492ZM93.2411 131.609C93.7995 130.306 94.3578 129.747 95.2883 129.375C94.3578 130.678 93.4273 131.981 92.6828 133.284C92.8689 132.726 93.055 132.167 93.2411 131.609ZM97.5216 125.838C97.7077 125.838 98.0799 125.838 98.2661 125.652C98.6383 125.466 98.8244 125.094 99.1966 124.721C98.8244 125.466 98.4522 126.21 98.0799 126.769C97.8938 126.769 97.8938 126.769 97.7077 126.769C97.3355 126.769 97.1494 126.769 96.9633 126.769C97.1494 126.583 97.3355 126.21 97.5216 125.838ZM111.294 130.864C111.107 130.864 110.921 130.864 110.735 130.678C110.735 130.678 110.735 130.492 110.921 130.492C111.107 130.678 111.107 130.864 111.294 130.864ZM108.316 114.669C108.688 114.669 108.874 114.483 109.246 114.297C109.619 114.111 110.735 113.366 112.038 112.435C114.271 111.877 116.505 110.946 118.738 109.829C119.482 109.457 120.227 109.085 120.785 108.712C121.902 108.526 123.018 108.34 124.135 107.968C124.507 108.154 124.879 108.34 125.252 108.526C124.693 110.388 122.088 112.063 120.785 112.994C118.924 114.297 117.063 115.414 115.202 116.531C114.83 115.972 113.341 115.972 112.782 116.531C111.852 118.206 111.48 120.254 111.107 122.115C110.921 123.046 110.735 123.79 110.735 124.721C110.735 125.466 110.735 125.838 110.921 126.397C110.735 126.769 110.549 127.141 110.549 127.513C110.363 127.513 110.177 127.513 110.177 127.513C108.502 127.141 106.827 127.327 105.338 127.141C103.477 126.955 101.616 126.955 99.941 126.769C102.547 122.674 105.152 118.578 108.316 114.669ZM106.455 113.552C106.641 113.366 106.641 113.366 106.827 113.18C106.641 113.552 106.827 113.924 107.013 114.297C105.524 115.786 104.221 117.275 102.919 118.951C104.035 116.903 104.966 115.041 106.455 113.552ZM148.701 207.372C148.329 207.558 147.771 207.745 147.398 207.745C144.235 208.675 141.071 209.048 137.907 209.234C140.326 208.675 142.932 207.931 145.351 207.558C146.282 207.372 147.398 207.372 148.701 207.372ZM99.3827 213.143C97.7077 213.143 96.2189 213.329 94.5439 213.329C96.2189 213.143 97.7077 213.143 99.3827 213.143ZM161.915 193.411C161.543 194.714 161.356 195.831 160.984 197.134C159.682 199.182 158.565 201.229 156.518 203.091C155.773 203.649 155.029 204.208 154.284 204.766C152.796 204.766 151.307 204.766 150.004 204.766C142.56 204.766 135.86 207.558 128.602 208.675C126.927 209.048 125.252 209.234 123.577 209.42C114.085 209.42 104.78 209.792 95.2883 210.723C90.0773 210.909 85.0524 211.095 79.8414 211.281C79.6553 211.281 79.2831 211.281 79.097 211.468C80.3997 208.675 81.5164 205.883 82.8191 202.905C85.4246 196.762 88.4024 190.619 90.8217 184.476C91.194 183.731 91.5662 182.987 91.9384 182.242C93.055 180.567 93.9856 178.705 94.9161 177.03C95.6605 175.913 96.2189 174.796 96.9633 173.679C100.127 172.934 103.105 171.445 105.71 169.956C107.571 169.025 109.433 167.908 111.107 166.605C111.48 166.419 111.852 166.047 112.224 165.861C112.596 165.861 112.969 165.861 113.527 165.674C116.691 165.116 120.041 163.441 122.832 162.138C125.438 160.835 127.485 159.159 128.229 156.181C129.904 150.038 131.207 141.661 128.602 135.704C127.485 133.284 125.438 132.54 122.832 132.167C120.227 131.795 117.621 131.05 115.388 129.933C115.388 129.375 115.016 128.817 114.271 128.63C113.899 128.63 113.527 128.444 113.155 128.444C112.969 128.258 112.969 128.258 112.782 128.258C113.155 127.513 113.341 127.141 113.527 126.024C113.713 124.907 113.713 123.977 114.085 122.86C114.271 121.743 114.644 120.812 114.83 119.695C116.132 119.509 117.249 118.951 118.366 118.392C119.296 117.834 120.599 117.089 121.343 115.972C121.716 115.786 121.902 115.6 122.274 115.414C124.879 115.041 128.229 112.249 127.857 109.643C128.229 108.526 128.229 107.223 127.485 106.106C125.81 103.314 122.46 104.431 120.041 105.548C118.738 106.106 117.249 106.851 115.946 107.409C115.016 107.595 113.899 107.781 112.969 108.154C109.805 108.898 106.641 109.271 104.221 111.691C101.802 113.924 99.941 117.275 98.2661 120.067C96.9633 122.301 95.4744 124.721 94.73 127.327C92.6828 127.7 91.3801 128.817 90.4495 131.237C88.9607 134.96 87.4718 138.869 86.1691 142.778C75.9332 158.042 66.2556 173.679 56.3919 189.129C44.1088 208.489 31.4535 227.663 20.1009 247.581C15.8204 255.027 11.3539 262.659 7.44561 270.478C5.77064 273.27 4.28178 276.062 3.35124 279.04C1.30406 282.577 -0.370905 286.3 0.00130968 290.396C0.74574 298.028 7.63172 303.985 13.5872 308.266C19.9148 312.92 27.9174 316.457 35.9201 315.154C44.481 313.851 50.9948 307.522 58.0668 303.054C62.1612 300.448 66.2556 298.028 70.536 295.794C74.6304 293.56 78.9109 290.768 83.3774 289.279C85.6107 288.534 87.844 288.348 89.7051 289.651C92.3106 291.326 92.3106 294.491 92.1245 297.283C91.7523 302.309 91.3801 307.149 91.3801 312.175C91.5662 322.414 92.4967 332.466 92.8689 342.704C93.7995 366.159 93.055 389.428 91.7523 412.883C91.5662 414.745 95.1022 414.745 95.2883 412.697C96.405 392.22 97.1494 371.744 96.5911 351.267C96.2189 341.029 95.4744 330.977 94.9161 320.738C94.5439 315.712 94.1717 310.5 94.3578 305.288C94.3578 301.006 95.4744 296.539 94.9161 292.443C93.7995 284.439 85.0524 284.997 79.2831 287.603C70.9082 291.699 62.5334 296.353 54.903 301.379C47.4587 306.219 40.3866 313.292 30.709 312.362C21.962 311.431 13.2149 305.288 7.63172 298.772C3.90957 294.491 2.2346 289.651 4.09567 284.253C4.28178 283.694 4.46789 283.322 4.654 282.763C5.02621 282.763 5.39843 282.391 5.58453 282.019C7.81782 277.737 10.0511 273.456 12.2844 269.174C16.9371 261.17 21.7759 252.979 26.0564 244.789C26.2425 244.789 26.4286 244.603 26.6147 244.603C32.5701 236.97 37.2228 228.407 42.4338 220.217C44.6671 216.866 46.7143 213.329 48.9476 209.792C56.578 199.182 64.2084 188.571 71.2805 177.588C74.4443 172.748 77.2359 167.536 80.0275 162.324C80.2136 162.882 81.3303 163.255 81.7025 162.51C83.3775 159.718 84.4941 156.553 85.6107 153.575L85.7968 153.388C88.2162 149.852 89.8912 145.57 91.9384 141.847C93.7995 138.496 95.6605 135.146 97.5216 131.795C97.8938 131.609 98.0799 131.423 98.4522 131.237C101.244 129.933 104.78 129.747 108.13 130.12C107.758 130.306 107.571 130.678 108.13 130.864C111.107 131.981 114.271 132.912 117.249 134.029C117.807 134.215 118.366 134.587 119.11 134.773C118.366 134.587 117.807 134.215 117.249 134.029C114.271 133.098 110.735 131.609 107.385 131.981C107.385 131.981 107.199 132.167 107.385 132.167C108.874 132.912 110.735 133.098 112.224 133.656C114.457 134.401 116.505 135.332 118.552 136.635C120.413 137.752 123.018 138.683 123.391 140.916C123.763 142.964 122.646 145.384 122.088 147.432C121.716 148.735 121.529 150.224 120.971 151.713C120.041 154.878 117.435 155.436 114.457 155.995C113.527 156.181 112.596 156.367 111.666 156.553C109.432 156.925 107.571 155.25 110.177 153.202C112.038 151.713 115.016 151.155 117.249 150.596C118.366 150.224 118.18 149.293 117.435 148.921C117.993 146.873 118.738 144.639 119.482 142.592C119.668 142.033 119.11 141.661 118.738 141.475C116.132 140.544 113.527 139.613 110.921 138.31C110.921 138.124 110.921 137.938 110.921 137.752C110.921 137.379 110.177 137.379 109.991 137.752V137.938C108.874 137.938 107.944 139.613 109.246 140.172C109.246 140.172 109.432 140.172 109.432 140.358C107.571 148.735 104.221 156.739 99.941 164.371C98.6383 166.605 97.3355 168.839 96.0328 171.073C95.8467 171.073 95.8467 171.073 95.8467 171.259C95.4744 171.631 95.1022 172.19 94.73 172.748C94.73 172.748 94.5439 172.748 94.5439 172.934C94.3578 173.12 94.3578 173.12 94.3578 173.307C92.6828 175.727 91.194 178.333 89.8912 181.125C88.4024 183.359 87.0996 185.779 86.3552 188.199C86.3552 188.385 86.3552 188.385 86.3552 188.571C86.1691 188.757 86.1691 188.943 85.983 189.316C83.0052 195.645 79.8414 201.788 76.8637 208.117C73.886 214.26 71.0944 220.403 68.3027 226.546C67 229.71 65.5111 232.689 64.2084 235.853C62.9056 238.832 61.0446 241.996 60.4862 244.975C60.114 246.65 62.5334 247.023 63.2778 245.906C64.9528 243.486 65.8833 240.507 67 237.901C67.3722 237.156 67.5583 236.598 67.9305 235.853C69.0472 233.62 70.1638 231.386 71.2805 229.152C72.5832 226.732 74.0721 224.312 75.5609 222.078C76.3054 220.961 77.0498 219.844 77.7942 218.728C78.1664 218.355 78.7248 217.052 79.2831 216.308C83.0052 216.68 86.9135 216.494 90.8217 216.494C95.4744 216.494 100.127 216.308 104.78 216.121C114.085 215.749 123.391 215.004 132.51 214.26C137.163 213.888 141.815 213.329 146.282 212.771C150.004 212.398 154.098 212.026 157.262 209.978C161.17 207.558 163.218 203.649 164.52 199.554C165.265 198.251 165.823 196.762 166.009 195.272C166.009 195.086 166.009 194.714 166.009 194.528C166.009 194.342 166.009 194.342 166.009 194.156C166.567 191.736 162.473 191.363 161.915 193.411Z" fill="black"/>
</g>
<defs>
<clipPath id="clip0_0_3433">
<rect width="284" height="414" fill="white"/>
</clipPath>
</defs>
</svg>
