<svg width="25" height="42" viewBox="0 0 25 42" fill="none" xmlns="http://www.w3.org/2000/svg">
<path d="M10.3223 41.0435L2.2148 41.6057C1.65566 41.6057 1.23631 41.4652 0.816952 41.184C0.397597 40.9029 0.257812 40.4812 0.257812 40.0596V39.919C0.956737 39.0756 1.65566 37.8106 2.07502 36.405C2.63416 34.9994 2.91373 34.0155 3.1933 33.5938C5.15029 29.0959 6.68792 25.0197 7.66641 21.2245C8.64491 17.4294 9.20405 13.3532 9.20405 8.99584C9.20405 4.63848 8.36534 2.38952 6.68792 2.24896C6.12878 2.53008 5.70942 3.37344 5.42986 4.77904C5.29007 6.04408 4.73093 6.74687 3.89222 6.74687C3.05351 6.74687 2.63416 6.18463 2.63416 5.06015C2.63416 3.37344 3.1933 1.96784 4.17179 0.843357C4.73093 0.281118 5.42986 0 6.12878 0C7.94598 0 9.34383 0.562235 10.1825 1.68671C10.7417 2.53007 11.161 3.37343 11.3008 3.93567C11.4406 4.35735 11.4406 4.91959 11.5804 5.34127C11.5804 5.76295 11.7202 6.18464 11.7202 6.88744C11.7202 7.87136 11.86 9.13639 11.86 10.9637C11.86 12.7909 11.5804 15.0399 10.8815 17.9917C10.1825 20.9434 9.6234 23.3329 8.78469 25.3008C8.08577 27.2686 7.10727 29.6581 5.989 32.4693C4.87072 35.2805 4.03201 37.3889 3.61265 38.9351C5.70943 38.5134 7.8062 38.3728 9.90297 38.3728C10.6019 38.9351 11.0213 39.3568 11.0213 39.7784C11.0213 40.2001 10.8815 40.6218 10.3223 41.0435ZM22.903 41.8868C22.3438 41.8868 21.9245 41.7463 21.5051 41.3246C21.0858 40.9029 20.946 40.4813 20.946 39.919C20.946 39.3568 21.0858 38.9351 21.5051 38.5134C21.9245 38.0917 22.3438 37.9512 22.903 37.9512C23.4621 37.9512 23.8815 38.0917 24.3008 38.5134C24.7202 38.9351 24.86 39.3568 24.86 39.919C24.86 40.4813 24.7202 40.9029 24.3008 41.3246C24.0213 41.7463 23.4621 41.8868 22.903 41.8868Z" fill="black"/>
</svg>
