<svg width="25" height="43" viewBox="0 0 25 43" fill="none" xmlns="http://www.w3.org/2000/svg">
<path d="M6.70968 19.6128C6.56989 19.6128 6.43011 19.6128 6.15054 19.6128C5.03226 19.6128 4.47312 19.1912 4.47312 18.4884C4.47312 17.9261 4.89247 17.2233 5.5914 16.38C7.12903 14.6932 7.82796 13.1471 7.82796 11.6009C7.82796 10.1953 7.68817 8.78974 7.4086 7.38414C6.98925 4.57294 6.15054 3.16735 5.03226 3.16735C4.6129 3.16735 4.19355 3.30791 3.91398 3.58903C3.63441 3.87015 3.49462 4.29182 3.35484 4.57294C3.21505 4.99462 3.07527 5.27574 2.65591 5.55686C2.37634 5.83798 1.95699 5.97854 1.53763 5.97854C1.11828 5.97854 0.698925 5.83798 0.419355 5.55686C0.139785 5.27574 0 5.27574 0 4.85406C0.419355 3.58902 1.11828 2.60509 2.09677 1.90229C2.93548 1.19949 3.91398 0.777832 5.03226 0.777832C6.01075 0.777832 6.84946 1.05894 7.54839 1.62118C8.24731 2.18342 8.66667 2.88623 9.08602 3.58903C9.50538 4.43239 9.78495 5.41631 10.0645 6.40023C10.4839 8.22751 10.6237 9.77366 10.6237 11.1793C10.6237 12.5849 10.4839 13.4282 10.3441 13.9905C10.2043 14.5527 10.0645 14.8338 9.78495 15.1149C9.64516 15.3961 9.36559 15.8177 8.94624 16.38C8.52688 16.9422 8.24731 17.3639 8.10753 17.5044C10.3441 18.7695 11.7419 22.5646 12.3011 28.6087C12.4409 29.8737 12.4409 31.1388 12.4409 31.9821C12.4409 32.966 12.4409 33.6688 12.4409 34.3716C12.4409 34.9339 12.3011 35.7772 12.1613 36.48C12.0215 37.3234 11.8817 38.0262 11.6022 38.5884C11.3226 39.1507 11.043 39.8535 10.6237 40.4157C9.78495 41.5402 8.52688 42.1024 6.84946 42.1024C5.45161 42.1024 4.47312 41.8213 3.91398 41.2591C3.21505 40.6968 2.93548 40.2752 2.93548 39.7129C2.93548 39.2912 2.93548 39.0101 3.07527 38.8695C3.21505 38.729 3.35484 38.729 3.77419 38.729C4.05376 38.729 4.33333 38.8696 4.6129 39.0101C5.45161 39.5724 6.01075 39.8535 6.56989 39.8535C8.66667 39.8535 9.78495 37.8856 9.78495 33.8094C9.78495 28.6087 9.36559 24.8136 8.3871 22.424C7.96774 21.7212 7.4086 20.5968 6.70968 19.6128ZM22.3656 42.6647C21.8065 42.6647 21.3871 42.5241 20.9677 42.1024C20.5484 41.6807 20.4086 41.2591 20.4086 40.6968C20.4086 40.1346 20.5484 39.7129 20.9677 39.2912C21.3871 38.8695 21.8065 38.729 22.3656 38.729C22.9247 38.729 23.3441 38.8695 23.7634 39.2912C24.1828 39.7129 24.3226 40.1346 24.3226 40.6968C24.3226 41.2591 24.1828 41.6807 23.7634 42.1024C23.3441 42.5241 22.9247 42.6647 22.3656 42.6647Z" fill="black"/>
</svg>
