<svg width="186" height="55" viewBox="0 0 186 55" fill="none" xmlns="http://www.w3.org/2000/svg">
<path d="M0 0H186V55H0L16 27.5L0 0Z" fill="black"/>
<path d="M42 43.525L42.2302 17.2V11.575C42.2302 11.125 42.2302 10.9 42.4603 10.9C42.6905 10.675 42.9206 10.675 43.6111 10.675C44.3016 10.675 44.9921 10.9 45.4524 11.125C46.1429 11.35 46.8333 11.8 47.0635 12.25C47.5238 12.7 47.9841 13.375 48.2143 14.05C48.9048 15.175 49.1349 16.525 49.1349 18.1C49.1349 19.45 48.9048 21.25 47.9841 23.05C47.9841 23.275 47.754 23.725 47.5238 24.4C47.2937 25.075 47.0635 25.525 47.0635 25.525C47.0635 27.775 47.754 30.7 48.9048 34.3C49.1349 35.425 49.8254 37 50.5159 39.25C51.2063 41.5 51.6667 42.625 51.8968 43.3C51.8968 44.2 51.6667 44.875 51.4365 45.1C51.2063 45.325 50.9762 45.325 50.746 45.325C50.2857 45.325 49.5952 44.875 49.1349 44.2V43.975C48.9048 41.275 47.9841 37 46.1429 31.6C45.2222 29.125 44.7619 27.1 44.5317 25.975V43.75C44.5317 44.2 44.5317 44.65 44.3016 44.875C44.0714 45.1 43.8413 45.325 43.381 45.325C42.9206 45.325 42.6905 45.1 42.4603 44.875C42 44.425 42 44.2 42 43.75V43.525ZM46.1429 14.95C45.6825 13.6 45.2222 12.7 44.5317 12.7L44.3016 21.925C44.3016 22.825 44.3016 23.5 44.3016 23.95C44.7619 23.5 45.4524 22.825 45.9127 22.15L46.6032 18.325C46.6032 18.1 46.6032 17.875 46.6032 17.65C46.6032 16.975 46.6032 16.075 46.1429 14.95ZM64.3254 31.15L64.0952 37V37.225C63.8651 38.125 63.8651 39.025 63.8651 39.925C63.8651 40.825 63.6349 41.725 63.4048 42.625C63.1746 43.525 62.4841 44.425 61.7936 45.1C61.1032 45.775 60.4127 46.225 59.4921 46.225C58.5714 46.225 57.881 46 57.1905 45.325C56.5 44.875 56.0397 43.975 55.5794 43.075C55.119 42.175 54.6587 41.275 54.4286 39.925C54.1984 38.8 53.7381 37.45 53.7381 36.325C53.5079 35.2 53.5079 34.075 53.2778 32.725C53.0476 30.7 53.0476 29.35 53.0476 28.225C53.0476 27.1 53.0476 26.2 53.0476 25.525C53.0476 24.85 53.0476 24.175 53.0476 23.5C53.0476 23.275 53.0476 22.825 53.0476 22.375C53.0476 21.925 53.0476 21.7 53.0476 21.25C53.0476 20.35 53.0476 19.675 53.0476 19C53.0476 18.325 53.0476 17.65 53.2778 16.75C53.2778 15.85 53.5079 15.175 53.7381 14.725C53.2778 13.825 53.5079 13.375 53.7381 12.7C53.9683 12.25 54.4286 11.575 54.6587 11.35C55.3492 10.45 56.2698 10 57.1905 10C58.1111 10 59.0317 10.225 59.7222 10.45C60.4127 10.9 61.1032 11.35 61.5635 12.25C62.0238 12.925 62.4841 13.6 62.7143 14.5C63.1746 15.175 63.4048 16.3 63.6349 17.425C63.8651 18.775 64.0952 19.675 64.0952 20.575C64.0952 21.25 64.3254 22.375 64.3254 23.95C64.3254 25.975 64.3254 27.55 64.3254 28.675V31.15ZM60.4127 14.725C59.9524 14.05 59.7222 13.375 59.2619 12.925C58.8016 12.475 58.3413 12.475 57.881 12.475C57.4206 12.475 56.9603 12.475 56.7302 12.925C56.5 13.375 56.2698 13.6 56.0397 14.05C55.8095 14.725 55.5794 15.4 55.3492 15.85C55.119 16.525 55.119 17.2 54.8889 18.1C54.8889 19 54.6587 19.675 54.6587 20.35C54.6587 21.025 54.6587 21.7 54.6587 22.6C54.6587 23.95 54.6587 25.075 54.6587 25.75V25.975C54.6587 28.225 54.8889 30.25 55.119 32.5C55.3492 34.75 55.8095 36.775 56.0397 38.125C56.2698 39.7 56.7302 40.825 57.4206 41.95C57.881 43.075 58.5714 43.525 59.2619 43.525C59.9524 43.525 60.4127 42.85 60.873 41.725C61.3333 40.6 61.5635 39.25 61.7936 37.45C62.0238 34.525 62.254 32.275 62.254 31.15C62.254 30.025 62.254 29.125 62.254 28.45C62.254 28 62.254 27.1 62.254 25.975C62.254 24.85 62.254 23.95 62.0238 23.05C62.0238 22.15 61.7936 21.025 61.5635 19.9C61.5635 19.225 61.3333 18.1 61.1032 17.2C60.873 16.3 60.6429 15.625 60.4127 14.725ZM67.7778 10.675C68.2381 10.675 68.6984 10.9 69.1587 10.9L73.5317 10.45C73.9921 10.45 74.2222 10.675 74.4524 10.9C74.6825 11.125 74.9127 11.35 74.9127 11.8C74.9127 19.675 73.3016 30.025 69.8492 43.075L72.381 42.85C73.9921 42.85 74.9127 43.3 74.9127 44.2V44.425L74.2222 45.1L68.4683 45.325C67.7778 45.325 67.5476 44.875 67.0873 44.2C67.7778 43.075 68.4683 40.15 69.3889 35.65C70.3095 31.15 71 26.65 71.4603 22.375C71.9206 18.1 72.381 14.95 72.381 13.15C71.2302 13.375 70.5397 13.375 69.8492 13.375C68.2381 13.375 67.3175 12.925 67.3175 12.025V11.575L67.7778 10.675ZM88.9524 27.775C88.9524 28 88.9524 28 88.9524 28.225V29.125C88.9524 31.15 88.4921 33.85 87.1111 36.55C85.7302 39.925 84.119 42.175 82.5079 43.525C81.5873 44.425 80.4365 44.65 79.2857 44.65C78.8254 44.65 78.1349 44.425 77.6746 44.2C77.2143 43.975 76.9841 43.525 76.9841 43.075C77.6746 42.4 77.9048 40.6 77.9048 37.675C77.9048 36.1 77.6746 33.625 77.4444 30.25C77.2143 26.875 76.9841 24.4 76.9841 22.825L77.2143 17.875C77.2143 16.975 76.9841 16.075 76.754 14.725C76.5238 13.375 76.2936 12.475 76.2936 11.8C76.2936 10.675 77.4444 10.225 79.746 10.225H80.4365C83.6587 10.225 85.7302 12.025 87.3413 15.4C88.2619 17.875 88.7222 21.025 88.7222 25.3V27.775H88.9524ZM80.2063 38.125V42.4C81.3571 41.725 82.2778 40.6 83.1984 39.25C84.119 37.9 84.8095 36.55 85.0397 34.975C85.9603 32.05 86.1905 29.125 86.1905 25.975C86.1905 22.6 85.7302 19.9 84.8095 17.875C83.8889 15.85 82.7381 14.5 81.5873 13.825C80.6667 13.375 79.9762 13.15 78.8254 13.15C78.8254 15.85 79.0556 19.9 79.2857 25.3C80.2063 31.15 80.2063 35.2 80.2063 38.125ZM91.9444 10.675C92.4048 10.675 92.8651 10.9 93.3254 10.9L97.6984 10.45C98.1587 10.45 98.3889 10.675 98.619 10.9C98.8492 11.125 99.0794 11.35 99.0794 11.8C99.0794 19.675 97.4683 30.025 94.0159 43.075L96.5476 42.85C98.1587 42.85 99.0794 43.3 99.0794 44.2V44.425L98.3889 45.1L92.6349 45.325C91.9444 45.325 91.7143 44.875 91.254 44.2C91.9444 43.075 92.6349 40.15 93.5556 35.65C94.4762 31.15 95.1667 26.65 95.627 22.375C96.0873 18.1 96.5476 14.95 96.5476 13.15C95.3968 13.375 94.7063 13.375 94.0159 13.375C92.4048 13.375 91.4841 12.925 91.4841 12.025V11.575L91.9444 10.675ZM106.675 13.15H105.754C105.524 13.15 105.294 13.15 105.063 13.375C104.833 13.6 104.833 13.825 104.833 14.05C104.833 16.975 105.063 21.475 105.294 27.1C105.754 32.95 105.754 37.225 105.754 40.15V41.95C105.984 41.95 106.444 41.95 106.675 41.95C108.056 41.95 108.516 42.4 108.516 43.525V43.75L107.365 44.425H104.143C101.381 44.425 100.23 43.975 100.23 43.075C100.23 42.4 100.69 41.95 101.611 41.95H102.532C102.992 41.95 103.222 41.5 103.222 40.825C103.222 38.575 102.992 34.975 102.762 30.475C102.532 25.75 102.302 22.375 102.302 20.125V15.625C102.302 14.725 102.302 13.825 102.302 13.15C101.841 13.375 101.611 13.375 101.151 13.375C100.46 13.375 100 12.925 100 12.25C100 11.8 100.23 11.575 100.69 11.35C101.151 11.125 101.841 10.9 102.532 10.675C103.913 10.45 104.833 10.45 105.294 10.45C105.984 10.45 106.444 10.675 106.675 10.9C106.905 11.125 107.135 11.35 107.135 11.8C107.135 12.25 107.135 12.475 106.905 12.7C106.675 12.925 106.905 13.15 106.675 13.15ZM123.016 43.3C123.016 44.2 122.556 44.875 121.405 44.875C120.484 44.875 120.024 44.425 120.024 43.75V37.9C119.563 37.675 118.873 37.45 117.722 37.225C116.571 37 115.651 37 114.73 36.775C114.5 37.225 114.27 38.125 114.04 39.025C113.81 39.925 113.579 41.05 113.349 41.95C113.119 42.85 112.889 43.75 112.429 44.425C111.278 44.425 110.587 44.2 110.357 43.525C110.817 42.85 111.508 39.925 112.429 34.525C113.349 29.125 114.04 24.85 114.73 21.925C115.421 19 115.881 16.3 116.802 14.275C117.492 12.25 118.183 11.125 118.873 11.125C119.563 11.125 120.024 11.35 120.254 11.575C120.254 12.7 120.484 15.625 121.175 20.35C121.865 25.075 122.095 28.225 122.095 29.575C122.095 30.925 122.325 33.175 122.556 36.55C122.786 39.25 123.016 41.725 123.016 43.3ZM120.024 34.975C120.024 34.3 119.794 32.725 119.563 30.025C119.333 27.325 119.103 24.85 118.873 22.375C118.643 19.9 118.643 18.55 118.643 18.1C118.643 17.65 118.643 17.2 118.643 17.2C118.183 17.65 117.492 20.35 116.571 25.3C115.651 30.25 115.19 33.4 115.19 34.525C116.571 34.75 117.492 34.975 118.413 34.975C118.873 35.2 119.563 35.2 120.024 34.975ZM126.238 43.975L126.468 41.95C126.468 38.8 126.238 34.075 126.008 28C125.548 28.225 125.087 28.225 124.857 28.225C124.397 28.225 124.167 28.225 123.937 28C123.706 27.775 123.476 27.55 123.476 27.325C123.476 26.65 124.397 26.2 126.008 25.75C125.778 19.225 125.548 14.5 125.548 11.35C125.548 11.125 125.548 10.9 125.778 10.675C126.008 10.45 126.238 10.45 126.698 10.45C127.159 10.45 127.389 10.675 127.619 10.9C127.849 11.125 128.079 11.35 128.079 11.8C128.079 13.6 128.079 15.85 128.31 19C128.54 22.15 128.54 24.175 128.54 25.075C130.151 24.4 131.302 24.175 132.452 24.175C132.683 24.175 132.913 24.175 133.143 24.4C133.373 24.625 133.373 24.85 133.373 25.3C133.373 26.2 131.762 27.1 128.54 27.55V28.9C128.54 29.125 128.54 29.125 128.54 29.35V29.575C128.77 32.275 128.77 36.1 128.77 41.275V42.4H132.222C132.913 42.85 133.143 43.3 133.143 43.75C133.143 44.2 133.143 44.425 132.913 44.65C132.683 44.875 132.452 45.1 132.222 45.1C131.992 45.1 131.762 45.1 131.302 44.875C131.071 44.875 130.841 44.875 130.381 44.875L127.389 44.65C127.159 44.65 126.698 44.65 126.468 44.425C126.468 44.425 126.238 44.2 126.238 43.975ZM146.032 13.15H145.111C144.881 13.15 144.651 13.15 144.421 13.375C144.19 13.6 144.19 13.825 144.19 14.05C144.19 16.975 144.421 21.475 144.651 27.1C145.111 32.95 145.111 37.225 145.111 40.15V41.95C145.341 41.95 145.802 41.95 146.032 41.95C147.413 41.95 147.873 42.4 147.873 43.525V43.75L146.722 44.425H143.5C140.738 44.425 139.587 43.975 139.587 43.075C139.587 42.4 140.048 41.95 140.968 41.95H141.889C142.349 41.95 142.579 41.5 142.579 40.825C142.579 38.575 142.349 34.975 142.119 30.475C141.889 25.75 141.659 22.375 141.659 20.125V15.625C141.659 14.725 141.659 13.825 141.659 13.15C141.198 13.375 140.968 13.375 140.508 13.375C139.817 13.375 139.357 12.925 139.357 12.25C139.357 11.8 139.587 11.575 140.048 11.35C140.508 11.125 141.198 10.9 141.889 10.675C143.27 10.45 144.19 10.45 144.651 10.45C145.341 10.45 145.802 10.675 146.032 10.9C146.262 11.125 146.492 11.35 146.492 11.8C146.492 12.25 146.492 12.475 146.262 12.7C146.032 12.925 146.262 13.15 146.032 13.15ZM155.698 13.15H154.778C154.548 13.15 154.317 13.15 154.087 13.375C153.857 13.6 153.857 13.825 153.857 14.05C153.857 16.975 154.087 21.475 154.317 27.1C154.778 32.95 154.778 37.225 154.778 40.15V41.95C155.008 41.95 155.468 41.95 155.698 41.95C157.079 41.95 157.54 42.4 157.54 43.525V43.75L156.389 44.425H153.167C150.405 44.425 149.254 43.975 149.254 43.075C149.254 42.4 149.714 41.95 150.635 41.95H151.556C152.016 41.95 152.246 41.5 152.246 40.825C152.246 38.575 152.016 34.975 151.786 30.475C151.556 25.75 151.325 22.375 151.325 20.125V15.625C151.325 14.725 151.325 13.825 151.325 13.15C150.865 13.375 150.635 13.375 150.175 13.375C149.484 13.375 149.024 12.925 149.024 12.25C149.024 11.8 149.254 11.575 149.714 11.35C150.175 11.125 150.865 10.9 151.556 10.675C152.937 10.45 153.857 10.45 154.317 10.45C155.008 10.45 155.468 10.675 155.698 10.9C155.929 11.125 156.159 11.35 156.159 11.8C156.159 12.25 156.159 12.475 155.929 12.7C155.698 12.925 155.929 13.15 155.698 13.15Z" fill="white"/>
<rect x="139" y="7" width="29" height="39" fill="black"/>
<g clip-path="url(#clip0_1004_757)">
<path d="M149.246 12.0109H148.402C148.088 12.0109 147.847 12.0594 147.703 12.1808C147.558 12.3265 147.486 12.5693 147.486 12.9821C147.486 16.1387 147.678 20.8735 148.064 27.1866C148.45 33.4997 148.643 38.2345 148.643 41.3911V43.2607C148.981 43.2121 149.294 43.1879 149.632 43.1879C150.958 43.1879 151.633 43.7463 151.633 44.8875V45.1789L150.428 46.0045L147.148 46.1259C144.375 46.1259 142.976 45.6403 142.976 44.669C142.976 43.892 143.458 43.5035 144.447 43.5035L145.46 43.5764C145.942 43.5764 146.159 43.1879 146.159 42.4352C146.159 39.9342 146.014 36.1949 145.701 31.2173C145.412 26.2396 145.243 22.476 145.243 19.9994L145.339 15.046C145.339 14.0019 145.291 13.1035 145.219 12.3508C144.785 12.4965 144.423 12.5693 144.085 12.5693C143.338 12.5693 142.952 12.1808 142.952 11.4038C142.952 11.0153 143.193 10.6754 143.675 10.384C144.158 10.0927 144.76 9.87413 145.484 9.75272C146.834 9.50991 147.823 9.3885 148.498 9.3885C149.174 9.3885 149.608 9.50991 149.897 9.777C150.187 10.0441 150.331 10.3355 150.331 10.6997C150.331 11.0639 150.235 11.3553 150.018 11.6224C149.801 11.8895 149.535 12.0109 149.198 12.0109H149.246Z" fill="white"/>
<path d="M152.574 10.0927C152.767 9.46134 153.201 9.14569 153.924 9.14569C154.793 9.14569 156.288 15.9444 158.386 29.5661C159.206 34.8837 159.64 37.7732 159.736 38.1617C159.953 36.3406 160.339 33.4268 160.918 29.4204C162.1 21.1406 162.703 14.6575 162.678 9.97125C163.185 9.31565 163.764 9 164.439 9L165.452 9.53419C165.379 10.0927 165.211 11.6709 164.945 14.2447C164.68 16.8428 164.439 19.1495 164.198 21.2134C163.957 23.2773 163.74 25.2198 163.523 27.0409C163.305 28.862 163.064 30.8045 162.799 32.8198C162.534 34.8594 162.293 36.6805 162.051 38.3073C161.81 39.9342 161.569 41.4153 161.352 42.7508C160.846 45.5917 160.436 47 160.122 47C159.664 47 159.278 46.83 158.989 46.4901C158.193 43.2364 157.06 36.9233 155.54 27.5265C154.021 18.154 153.056 12.3265 152.598 10.0927H152.574Z" fill="white"/>
</g>
<defs>
<clipPath id="clip0_1004_757">
<rect width="30" height="38" fill="white" transform="translate(143 9)"/>
</clipPath>
</defs>
</svg>
