<svg width="186" height="55" viewBox="0 0 186 55" fill="none" xmlns="http://www.w3.org/2000/svg">
<path d="M0 0H186V55H0L16 27.5L0 0Z" fill="black"/>
<g clip-path="url(#clip0_64_634)">
<path d="M42 44.2365L42.1526 17.2158V11.6888C42.1526 11.3817 42.1526 11.0747 42.3053 10.9212C42.6105 10.7676 42.9158 10.6141 43.5263 10.6141C44.1368 10.6141 44.7473 10.7676 45.5104 11.0747C46.1209 11.3817 46.7314 11.8423 47.1893 12.3029C47.6471 12.917 47.9524 13.3776 48.2576 14.1452C48.8681 15.3734 49.1734 16.7552 49.1734 18.2905C49.1734 19.8257 48.8681 21.5145 48.105 23.5104C47.9524 23.6639 47.7998 24.1245 47.4945 24.7386C47.1893 25.3527 47.0366 25.8133 47.0366 25.9668C47.0366 28.2697 47.6471 31.1867 48.7155 34.8714C49.1734 36.0996 49.6313 37.7884 50.3944 39.9378C51.1575 42.0871 51.6154 43.4689 51.768 43.9295V44.083C51.768 45.1577 51.6154 45.7718 51.4628 45.9253C51.1575 46.0788 51.0049 46.2324 50.6996 46.2324C50.0891 46.2324 49.6313 45.7718 49.0208 45.0042V44.8506C48.8681 42.0871 47.9524 37.7884 46.1209 32.2614C45.3578 29.6515 44.7473 27.8091 44.442 26.5809V44.6971C44.442 45.1577 44.2894 45.4647 44.1368 45.7718C43.9841 46.0788 43.6789 46.0788 43.221 46.0788C42.7631 46.0788 42.4579 45.9253 42.3053 45.7718C42.1526 45.3112 42 45.0042 42 44.6971V44.2365ZM46.2735 15.0664C45.8156 13.6846 45.2051 12.917 44.5946 12.7635L44.2894 22.1286C44.2894 23.0498 44.2894 23.8174 44.2894 24.278C44.7473 23.8174 45.3578 23.2033 45.8156 22.4357L46.5788 18.444C46.5788 18.2905 46.5788 17.9834 46.5788 17.6763C46.5788 17.0622 46.4261 16.1411 46.2735 15.0664ZM64.2833 31.8008L63.8254 37.6349V37.7884C63.6728 38.7095 63.5201 39.6307 63.5201 40.5519C63.5201 41.473 63.3675 42.5477 63.0623 43.4689C62.757 44.39 62.1465 45.1577 61.536 45.9253C60.7729 46.6929 60.0098 47 59.2466 47C58.4835 47 57.7204 46.6929 56.9573 46.0788C56.3468 45.4647 55.7363 44.8506 55.2784 43.9295C54.8205 43.0083 54.3626 41.9336 54.0574 40.7054C53.7521 39.4772 53.4469 38.249 53.2943 37.0207C53.1416 35.7925 52.989 34.5643 52.8364 33.3361C52.6838 31.3403 52.5311 29.805 52.5311 28.7303C52.5311 27.6556 52.5311 26.7344 52.5311 25.9668C52.5311 25.1992 52.5311 24.4315 52.5311 23.8174C52.5311 23.5104 52.5311 23.2033 52.5311 22.7427C52.5311 22.2822 52.5311 21.9751 52.5311 21.5145C52.5311 20.5934 52.5311 19.8257 52.6838 19.0581C52.6838 18.2905 52.8364 17.5228 52.8364 16.7552C52.989 15.9876 52.989 15.2199 53.1416 14.6058C53.2943 13.9917 53.4469 13.3776 53.7521 12.7635C54.0574 12.1494 54.3626 11.6888 54.6679 11.2282C55.431 10.4606 56.1941 10 57.2625 10C58.1783 10 59.094 10.1535 59.7045 10.4606C60.315 10.7676 60.9255 11.3817 61.3834 12.1494C61.8413 12.917 62.2991 13.6846 62.6044 14.4523C62.9096 15.2199 63.2149 16.1411 63.3675 17.5228C63.5201 18.9046 63.6728 19.8257 63.8254 20.7469C63.978 21.5145 63.978 22.7427 64.1306 24.278C64.1306 26.2739 64.2833 27.9627 64.2833 29.0373V31.8008ZM60.1624 14.9129C59.8571 14.1452 59.5519 13.5311 59.094 13.0705C58.6361 12.61 58.1783 12.4564 57.7204 12.4564C57.2625 12.4564 56.9573 12.61 56.652 12.917C56.3468 13.2241 56.0415 13.6846 55.8889 14.2988C55.7363 14.7593 55.5836 15.3734 55.431 16.1411C55.1258 16.7552 55.1258 17.5228 54.9731 18.444C54.9731 19.2116 54.8205 19.9793 54.8205 20.7469C54.8205 21.361 54.6679 22.1286 54.6679 23.0498C54.6679 24.4315 54.6679 25.5062 54.6679 26.2739V26.4274C54.6679 28.4232 54.8205 30.7261 55.1258 33.029C55.431 35.332 55.7363 37.3278 56.0415 38.8631C56.3468 40.3983 56.8046 41.6266 57.4151 42.7012C58.0256 43.7759 58.6361 44.2365 59.2466 44.2365C59.8571 44.2365 60.315 43.6224 60.7729 42.5477C61.2308 41.3195 61.536 39.9378 61.6886 38.249C61.9939 35.1784 62.1465 33.029 62.1465 31.8008C62.1465 30.5726 62.1465 29.6515 62.1465 29.0373C62.1465 28.4232 62.1465 27.6556 62.1465 26.5809C62.1465 25.5062 61.9939 24.4315 61.9939 23.5104C61.8413 22.5892 61.8413 21.5145 61.6886 20.2863C61.536 19.0581 61.3834 18.1369 61.0781 17.2158C60.7729 16.4481 60.4676 15.6805 60.1624 14.9129ZM67.641 10.7676C68.0989 10.9212 68.4042 10.9212 68.862 10.9212L73.1355 10.4606C73.4408 10.4606 73.746 10.6141 74.0513 10.9212C74.3565 11.2282 74.3565 11.5353 74.3565 11.8423C74.3565 19.8257 72.6777 30.5726 69.3199 43.7759L71.7619 43.6224C73.4408 43.6224 74.2039 44.083 74.2039 45.0042V45.1577L73.4408 45.9253L67.7936 46.0788C67.1831 46.0788 66.7253 45.7718 66.5726 45.0042C67.3358 43.9295 68.0989 41.0124 68.862 36.2531C69.7778 31.4938 70.3883 27.0415 70.9988 22.5892C71.6093 18.1369 71.9145 15.0664 72.0672 13.0705C70.9988 13.2241 70.083 13.2241 69.4725 13.2241C67.7936 13.2241 67.0305 12.7635 67.0305 11.6888V11.5353L67.641 10.7676ZM88.5507 28.2697C88.5507 28.4232 88.398 28.5768 88.398 28.7303L88.5507 29.6515C88.5507 31.8008 87.9402 34.4108 86.8718 37.3278C85.4982 40.7054 83.9719 43.1618 82.293 44.5436C81.2247 45.3112 80.3089 45.7718 79.0879 45.7718C78.4774 45.7718 78.0195 45.6183 77.5617 45.3112C77.1038 45.0042 76.7985 44.6971 76.7985 44.083C77.409 43.3154 77.8669 41.6266 77.8669 38.7095C77.8669 37.0207 77.7143 34.4108 77.409 31.0332C77.2564 27.8091 77.1038 25.1992 77.1038 23.5104V18.5975C77.1038 17.8299 76.9512 16.7552 76.6459 15.3734C76.3407 13.9917 76.188 13.0705 76.188 12.4564C76.188 11.3817 77.409 10.9212 79.6984 10.9212H80.4615C83.514 10.9212 85.8034 12.61 87.177 16.1411C88.0928 18.5975 88.7033 21.9751 88.7033 26.2739V28.2697H88.5507ZM80.0037 38.7095V43.1618C81.2247 42.3942 82.1404 41.3195 83.0562 40.0913C83.9719 38.7095 84.5824 37.3278 85.0403 35.639C85.8034 32.5685 86.2613 29.4979 86.2613 26.5809C86.2613 23.0498 85.8034 20.2863 85.0403 18.2905C84.1245 16.1411 83.0562 14.7593 81.6825 14.1452C80.9194 13.6846 80.0037 13.5311 78.9353 13.5311C78.9353 16.2946 79.0879 20.4398 79.5458 26.1203C79.851 31.6473 80.0037 35.7925 80.0037 38.7095ZM91.7558 10.7676C92.2137 10.9212 92.5189 10.9212 92.9768 10.9212L97.2503 10.4606C97.5556 10.4606 97.8608 10.6141 98.166 10.9212C98.4713 11.2282 98.4713 11.5353 98.4713 11.8423C98.4713 19.8257 96.7924 30.5726 93.4347 43.7759L95.8767 43.6224C97.5555 43.6224 98.3187 44.083 98.3187 45.0042V45.1577L97.5556 45.9253L91.9084 46.0788C91.2979 46.0788 90.84 45.7718 90.6874 45.0042C91.4505 43.9295 92.2137 41.0124 92.9768 36.2531C93.8926 31.4938 94.503 27.0415 95.1135 22.5892C95.724 18.1369 96.0293 15.0664 96.1819 13.0705C95.1135 13.2241 94.1978 13.2241 93.5873 13.2241C91.9084 13.2241 91.1453 12.7635 91.1453 11.6888V11.5353L91.7558 10.7676ZM106.255 13.2241H105.492C105.187 13.2241 105.034 13.2241 104.882 13.3776C104.729 13.5311 104.576 13.8382 104.576 14.1452C104.576 17.2158 104.729 21.668 105.187 27.6556C105.492 33.6432 105.797 38.0954 105.797 41.166V43.0083C106.103 43.0083 106.408 43.0083 106.713 43.0083C107.934 43.0083 108.545 43.6224 108.545 44.6971V45.0042L107.476 45.7718L104.424 45.9253C101.829 45.9253 100.455 45.4647 100.455 44.5436C100.455 43.7759 100.913 43.4689 101.829 43.4689H102.745C103.203 43.4689 103.355 43.1618 103.355 42.3942C103.355 40.0913 103.203 36.4066 102.897 31.8008C102.592 27.0415 102.44 23.5104 102.44 21.2075L102.592 16.1411C102.592 15.2199 102.592 14.2988 102.44 13.5311C101.982 13.6846 101.676 13.6846 101.371 13.6846C100.608 13.6846 100.303 13.3776 100.303 12.61C100.303 12.3029 100.608 11.8423 101.066 11.6888C101.524 11.3817 102.134 11.2282 102.745 11.0747C103.966 10.9212 105.034 10.7676 105.645 10.7676C106.255 10.7676 106.713 10.9212 107.018 11.0747C107.324 11.2282 107.476 11.6888 107.476 11.9959C107.476 12.3029 107.324 12.61 107.171 12.917C107.018 13.2241 106.56 13.2241 106.255 13.2241ZM122.433 44.083C122.433 45.1577 121.976 45.6183 120.907 45.6183C119.991 45.6183 119.534 45.1577 119.534 44.39V38.4025C119.076 38.0954 118.313 37.7884 117.244 37.6349C116.176 37.4813 115.107 37.3278 114.192 37.1743C113.886 37.7884 113.581 38.556 113.429 39.4772C113.276 40.5519 112.971 41.473 112.818 42.5477C112.665 43.6224 112.36 44.39 111.902 45.0042C110.681 45.0042 110.071 44.6971 109.918 44.083C110.376 43.4689 110.987 40.3983 111.902 34.8714C112.818 29.3444 113.581 25.0456 114.192 21.8216C114.802 18.5975 115.413 16.1411 116.176 13.9917C116.939 11.8423 117.549 10.7676 118.16 10.7676C118.77 10.7676 119.228 10.9212 119.686 11.2282C119.686 12.3029 119.991 15.2199 120.602 20.1328C121.212 24.8921 121.518 28.1162 121.518 29.4979C121.518 30.8797 121.67 33.3361 121.976 36.5602C122.281 39.9378 122.433 42.3942 122.433 44.083ZM119.534 35.639C119.534 35.0249 119.381 33.3361 119.076 30.5726C118.77 27.8091 118.618 25.1992 118.313 22.7427C118.16 20.2863 118.007 18.751 118.007 18.2905C118.007 17.8299 118.007 17.5228 118.007 17.3693C117.549 17.8299 116.786 20.5934 115.871 25.6598C114.955 30.7261 114.497 33.7967 114.497 35.1784C115.718 35.4855 116.786 35.639 117.702 35.639C118.618 35.7925 119.228 35.639 119.534 35.639ZM125.791 44.6971L126.096 42.7012C126.096 39.4772 125.944 34.7178 125.639 28.4232C125.181 28.5768 124.723 28.7303 124.418 28.7303C124.112 28.7303 123.807 28.5768 123.502 28.4232C123.197 28.2697 123.044 27.9627 123.044 27.6556C123.044 27.0415 123.96 26.4274 125.639 26.1203C125.333 19.5187 125.181 14.6058 125.181 11.3817C125.181 11.0747 125.333 10.9212 125.486 10.7676C125.639 10.6141 125.944 10.4606 126.249 10.4606C126.554 10.4606 126.86 10.6141 127.165 10.7676C127.47 11.0747 127.623 11.3817 127.623 11.6888C127.623 13.3776 127.623 15.834 127.775 19.0581C127.928 22.2822 127.928 24.278 128.081 25.3527C129.607 24.7386 130.98 24.278 132.049 24.278C132.201 24.278 132.507 24.4315 132.659 24.5851C132.812 24.7386 132.965 25.0456 132.965 25.3527C132.965 26.4274 131.438 27.195 128.233 27.6556V29.1909C128.233 29.3444 128.233 29.4979 128.233 29.6515V29.805C128.386 32.4149 128.386 36.4066 128.386 41.7801V43.0083H131.896C132.507 43.4689 132.812 43.9295 132.812 44.2365C132.812 44.5436 132.659 45.0042 132.507 45.3112C132.354 45.6183 132.049 45.7718 131.744 45.7718C131.438 45.7718 131.286 45.7718 130.98 45.6183C130.675 45.6183 130.37 45.7718 130.065 45.7718L127.012 45.6183C126.707 45.6183 126.402 45.4647 126.096 45.3112C125.944 45.1577 125.791 44.8506 125.791 44.6971ZM145.48 13.2241H144.717C144.411 13.2241 144.259 13.2241 144.106 13.3776C143.954 13.5311 143.954 13.6846 143.954 14.1452C143.954 17.2158 144.106 21.668 144.564 27.6556C144.869 33.6432 145.175 38.0954 145.175 41.166V43.0083C145.48 43.0083 145.785 43.0083 146.09 43.0083C147.311 43.0083 147.922 43.6224 147.922 44.6971V45.0042L146.853 45.7718L143.801 45.9253C141.206 45.9253 139.833 45.4647 139.833 44.5436C139.833 43.7759 140.291 43.4689 141.206 43.4689H142.122C142.58 43.4689 142.733 43.1618 142.733 42.3942C142.733 40.0913 142.58 36.4066 142.275 31.8008C141.969 27.0415 141.817 23.5104 141.817 21.2075V16.1411C141.817 15.2199 141.817 14.2988 141.664 13.5311C141.206 13.6846 140.901 13.6846 140.596 13.6846C139.833 13.6846 139.527 13.3776 139.527 12.61C139.527 12.3029 139.833 11.8423 140.291 11.6888C140.748 11.3817 141.359 11.2282 141.969 11.0747C143.19 10.9212 144.259 10.7676 144.869 10.7676C145.48 10.7676 145.938 10.9212 146.243 11.0747C146.548 11.2282 146.701 11.6888 146.701 11.9959C146.701 12.3029 146.548 12.61 146.396 12.917C146.243 13.2241 145.785 13.2241 145.48 13.2241ZM155.095 13.2241H154.332C154.027 13.2241 153.874 13.2241 153.722 13.3776C153.416 13.5311 153.416 13.8382 153.416 14.1452C153.416 17.2158 153.569 21.668 154.027 27.6556C154.332 33.6432 154.637 38.0954 154.637 41.166V43.0083C154.943 43.0083 155.248 43.0083 155.553 43.0083C156.774 43.0083 157.385 43.6224 157.385 44.6971V45.0042L156.316 45.7718L153.264 45.9253C150.669 45.9253 149.295 45.4647 149.295 44.5436C149.295 43.7759 149.753 43.4689 150.669 43.4689H151.585C152.043 43.4689 152.195 43.1618 152.195 42.3942C152.195 40.0913 152.043 36.4066 151.737 31.8008C151.432 27.0415 151.28 23.5104 151.28 21.2075L151.432 16.1411C151.432 15.2199 151.432 14.2988 151.28 13.5311C150.822 13.6846 150.516 13.6846 150.211 13.6846C149.448 13.6846 149.143 13.3776 149.143 12.61C149.143 12.3029 149.448 11.8423 149.906 11.6888C150.364 11.3817 150.974 11.2282 151.585 11.0747C152.806 10.9212 153.874 10.7676 154.485 10.7676C155.095 10.7676 155.553 10.9212 155.858 11.0747C156.164 11.2282 156.316 11.6888 156.316 11.9959C156.316 12.3029 156.164 12.61 156.011 12.917C155.858 13.2241 155.4 13.2241 155.095 13.2241ZM164.711 13.2241H163.947C163.642 13.2241 163.49 13.2241 163.337 13.3776C163.184 13.5311 163.184 13.6846 163.184 14.1452C163.184 17.2158 163.337 21.668 163.795 27.6556C164.1 33.6432 164.405 38.0954 164.405 41.166V43.0083C164.711 43.0083 165.016 43.0083 165.321 43.0083C166.542 43.0083 167.153 43.6224 167.153 44.6971V45.0042L166.084 45.7718L163.032 45.9253C160.437 45.9253 159.063 45.4647 159.063 44.5436C159.063 43.7759 159.521 43.4689 160.437 43.4689H161.353C161.811 43.4689 161.963 43.1618 161.963 42.3942C161.963 40.0913 161.811 36.4066 161.505 31.8008C161.048 26.7344 161.048 23.2033 161.048 20.7469V16.1411C161.048 15.2199 161.048 14.2988 160.895 13.5311C160.437 13.6846 160.132 13.6846 159.827 13.6846C159.063 13.6846 158.758 13.3776 158.758 12.61C158.758 12.3029 159.063 11.8423 159.521 11.6888C159.979 11.3817 160.59 11.2282 161.2 11.0747C162.574 10.7676 163.49 10.7676 164.1 10.7676C164.711 10.7676 165.168 10.9212 165.474 11.0747C165.779 11.2282 165.932 11.6888 165.932 11.9959C165.932 12.3029 165.779 12.61 165.626 12.917C165.474 13.2241 165.016 13.2241 164.711 13.2241Z" fill="white"/>
</g>
<defs>
<clipPath id="clip0_64_634">
<rect width="125" height="37" fill="white" transform="translate(42 10)"/>
</clipPath>
</defs>
</svg>
