<svg width="186" height="55" viewBox="0 0 186 55" fill="none" xmlns="http://www.w3.org/2000/svg">
<path d="M0 0H186V55H0L16 27.5L0 0Z" fill="black"/>
<g clip-path="url(#clip0_64_634)">
<path d="M47 44.525L47.2302 18.2V12.575C47.2302 12.125 47.2302 11.9 47.4603 11.9C47.6905 11.675 47.9206 11.675 48.6111 11.675C49.3016 11.675 49.9921 11.9 50.4524 12.125C51.1429 12.35 51.8333 12.8 52.0635 13.25C52.5238 13.7 52.9841 14.375 53.2143 15.05C53.9048 16.175 54.1349 17.525 54.1349 19.1C54.1349 20.45 53.9048 22.25 52.9841 24.05C52.9841 24.275 52.754 24.725 52.5238 25.4C52.2937 26.075 52.0635 26.525 52.0635 26.525C52.0635 28.775 52.754 31.7 53.9048 35.3C54.1349 36.425 54.8254 38 55.5159 40.25C56.2063 42.5 56.6667 43.625 56.8968 44.3C56.8968 45.2 56.6667 45.875 56.4365 46.1C56.2063 46.325 55.9762 46.325 55.746 46.325C55.2857 46.325 54.5952 45.875 54.1349 45.2V44.975C53.9048 42.275 52.9841 38 51.1429 32.6C50.2222 30.125 49.7619 28.1 49.5317 26.975V44.75C49.5317 45.2 49.5317 45.65 49.3016 45.875C49.0714 46.1 48.8413 46.325 48.381 46.325C47.9206 46.325 47.6905 46.1 47.4603 45.875C47 45.425 47 45.2 47 44.75V44.525ZM51.1429 15.95C50.6825 14.6 50.2222 13.7 49.5317 13.7L49.3016 22.925C49.3016 23.825 49.3016 24.5 49.3016 24.95C49.7619 24.5 50.4524 23.825 50.9127 23.15L51.6032 19.325C51.6032 19.1 51.6032 18.875 51.6032 18.65C51.6032 17.975 51.6032 17.075 51.1429 15.95ZM69.3254 32.15L69.0952 38V38.225C68.8651 39.125 68.8651 40.025 68.8651 40.925C68.8651 41.825 68.6349 42.725 68.4048 43.625C68.1746 44.525 67.4841 45.425 66.7937 46.1C66.1032 46.775 65.4127 47.225 64.4921 47.225C63.5714 47.225 62.881 47 62.1905 46.325C61.5 45.875 61.0397 44.975 60.5794 44.075C60.119 43.175 59.6587 42.275 59.4286 40.925C59.1984 39.8 58.7381 38.45 58.7381 37.325C58.5079 36.2 58.5079 35.075 58.2778 33.725C58.0476 31.7 58.0476 30.35 58.0476 29.225C58.0476 28.1 58.0476 27.2 58.0476 26.525C58.0476 25.85 58.0476 25.175 58.0476 24.5C58.0476 24.275 58.0476 23.825 58.0476 23.375C58.0476 22.925 58.0476 22.7 58.0476 22.25C58.0476 21.35 58.0476 20.675 58.0476 20C58.0476 19.325 58.0476 18.65 58.2778 17.75C58.2778 16.85 58.5079 16.175 58.7381 15.725C58.2778 14.825 58.5079 14.375 58.7381 13.7C58.9683 13.25 59.4286 12.575 59.6587 12.35C60.3492 11.45 61.2698 11 62.1905 11C63.1111 11 64.0317 11.225 64.7222 11.45C65.4127 11.9 66.1032 12.35 66.5635 13.25C67.0238 13.925 67.4841 14.6 67.7143 15.5C68.1746 16.175 68.4048 17.3 68.6349 18.425C68.8651 19.775 69.0952 20.675 69.0952 21.575C69.0952 22.25 69.3254 23.375 69.3254 24.95C69.3254 26.975 69.3254 28.55 69.3254 29.675V32.15ZM65.4127 15.725C64.9524 15.05 64.7222 14.375 64.2619 13.925C63.8016 13.475 63.3413 13.475 62.881 13.475C62.4206 13.475 61.9603 13.475 61.7302 13.925C61.5 14.375 61.2698 14.6 61.0397 15.05C60.8095 15.725 60.5794 16.4 60.3492 16.85C60.119 17.525 60.119 18.2 59.8889 19.1C59.8889 20 59.6587 20.675 59.6587 21.35C59.6587 22.025 59.6587 22.7 59.6587 23.6C59.6587 24.95 59.6587 26.075 59.6587 26.75V26.975C59.6587 29.225 59.8889 31.25 60.119 33.5C60.3492 35.75 60.8095 37.775 61.0397 39.125C61.2698 40.7 61.7302 41.825 62.4206 42.95C62.881 44.075 63.5714 44.525 64.2619 44.525C64.9524 44.525 65.4127 43.85 65.873 42.725C66.3333 41.6 66.5635 40.25 66.7937 38.45C67.0238 35.525 67.254 33.275 67.254 32.15C67.254 31.025 67.254 30.125 67.254 29.45C67.254 29 67.254 28.1 67.254 26.975C67.254 25.85 67.254 24.95 67.0238 24.05C67.0238 23.15 66.7937 22.025 66.5635 20.9C66.5635 20.225 66.3333 19.1 66.1032 18.2C65.873 17.3 65.6429 16.625 65.4127 15.725ZM72.7778 11.675C73.2381 11.675 73.6984 11.9 74.1587 11.9L78.5317 11.45C78.9921 11.45 79.2222 11.675 79.4524 11.9C79.6825 12.125 79.9127 12.35 79.9127 12.8C79.9127 20.675 78.3016 31.025 74.8492 44.075L77.381 43.85C78.9921 43.85 79.9127 44.3 79.9127 45.2V45.425L79.2222 46.1L73.4683 46.325C72.7778 46.325 72.5476 45.875 72.0873 45.2C72.7778 44.075 73.4683 41.15 74.3889 36.65C75.3095 32.15 76 27.65 76.4603 23.375C76.9206 19.1 77.381 15.95 77.381 14.15C76.2302 14.375 75.5397 14.375 74.8492 14.375C73.2381 14.375 72.3175 13.925 72.3175 13.025V12.575L72.7778 11.675ZM93.9524 28.775C93.9524 29 93.9524 29 93.9524 29.225V30.125C93.9524 32.15 93.4921 34.85 92.1111 37.55C90.7302 40.925 89.119 43.175 87.5079 44.525C86.5873 45.425 85.4365 45.65 84.2857 45.65C83.8254 45.65 83.1349 45.425 82.6746 45.2C82.2143 44.975 81.9841 44.525 81.9841 44.075C82.6746 43.4 82.9048 41.6 82.9048 38.675C82.9048 37.1 82.6746 34.625 82.4444 31.25C82.2143 27.875 81.9841 25.4 81.9841 23.825L82.2143 18.875C82.2143 17.975 81.9841 17.075 81.754 15.725C81.5238 14.375 81.2937 13.475 81.2937 12.8C81.2937 11.675 82.4444 11.225 84.746 11.225H85.4365C88.6587 11.225 90.7302 13.025 92.3413 16.4C93.2619 18.875 93.7222 22.025 93.7222 26.3V28.775H93.9524ZM85.2064 39.125V43.4C86.3571 42.725 87.2778 41.6 88.1984 40.25C89.119 38.9 89.8095 37.55 90.0397 35.975C90.9603 33.05 91.1905 30.125 91.1905 26.975C91.1905 23.6 90.7302 20.9 89.8095 18.875C88.8889 16.85 87.7381 15.5 86.5873 14.825C85.6667 14.375 84.9762 14.15 83.8254 14.15C83.8254 16.85 84.0556 20.9 84.2857 26.3C85.2064 32.15 85.2064 36.2 85.2064 39.125ZM96.9444 11.675C97.4048 11.675 97.8651 11.9 98.3254 11.9L102.698 11.45C103.159 11.45 103.389 11.675 103.619 11.9C103.849 12.125 104.079 12.35 104.079 12.8C104.079 20.675 102.468 31.025 99.0159 44.075L101.548 43.85C103.159 43.85 104.079 44.3 104.079 45.2V45.425L103.389 46.1L97.6349 46.325C96.9444 46.325 96.7143 45.875 96.254 45.2C96.9444 44.075 97.6349 41.15 98.5556 36.65C99.4762 32.15 100.167 27.65 100.627 23.375C101.087 19.1 101.548 15.95 101.548 14.15C100.397 14.375 99.7064 14.375 99.0159 14.375C97.4048 14.375 96.4841 13.925 96.4841 13.025V12.575L96.9444 11.675ZM111.675 14.15H110.754C110.524 14.15 110.294 14.15 110.063 14.375C109.833 14.6 109.833 14.825 109.833 15.05C109.833 17.975 110.063 22.475 110.294 28.1C110.754 33.95 110.754 38.225 110.754 41.15V42.95C110.984 42.95 111.444 42.95 111.675 42.95C113.056 42.95 113.516 43.4 113.516 44.525V44.75L112.365 45.425H109.143C106.381 45.425 105.23 44.975 105.23 44.075C105.23 43.4 105.69 42.95 106.611 42.95H107.532C107.992 42.95 108.222 42.5 108.222 41.825C108.222 39.575 107.992 35.975 107.762 31.475C107.532 26.75 107.302 23.375 107.302 21.125V16.625C107.302 15.725 107.302 14.825 107.302 14.15C106.841 14.375 106.611 14.375 106.151 14.375C105.46 14.375 105 13.925 105 13.25C105 12.8 105.23 12.575 105.69 12.35C106.151 12.125 106.841 11.9 107.532 11.675C108.913 11.45 109.833 11.45 110.294 11.45C110.984 11.45 111.444 11.675 111.675 11.9C111.905 12.125 112.135 12.35 112.135 12.8C112.135 13.25 112.135 13.475 111.905 13.7C111.675 13.925 111.905 14.15 111.675 14.15ZM128.016 44.3C128.016 45.2 127.556 45.875 126.405 45.875C125.484 45.875 125.024 45.425 125.024 44.75V38.9C124.563 38.675 123.873 38.45 122.722 38.225C121.571 38 120.651 38 119.73 37.775C119.5 38.225 119.27 39.125 119.04 40.025C118.81 40.925 118.579 42.05 118.349 42.95C118.119 43.85 117.889 44.75 117.429 45.425C116.278 45.425 115.587 45.2 115.357 44.525C115.817 43.85 116.508 40.925 117.429 35.525C118.349 30.125 119.04 25.85 119.73 22.925C120.421 20 120.881 17.3 121.802 15.275C122.492 13.25 123.183 12.125 123.873 12.125C124.563 12.125 125.024 12.35 125.254 12.575C125.254 13.7 125.484 16.625 126.175 21.35C126.865 26.075 127.095 29.225 127.095 30.575C127.095 31.925 127.325 34.175 127.556 37.55C127.786 40.25 128.016 42.725 128.016 44.3ZM125.024 35.975C125.024 35.3 124.794 33.725 124.563 31.025C124.333 28.325 124.103 25.85 123.873 23.375C123.643 20.9 123.643 19.55 123.643 19.1C123.643 18.65 123.643 18.2 123.643 18.2C123.183 18.65 122.492 21.35 121.571 26.3C120.651 31.25 120.19 34.4 120.19 35.525C121.571 35.75 122.492 35.975 123.413 35.975C123.873 36.2 124.563 36.2 125.024 35.975ZM131.238 44.975L131.468 42.95C131.468 39.8 131.238 35.075 131.008 29C130.548 29.225 130.087 29.225 129.857 29.225C129.397 29.225 129.167 29.225 128.937 29C128.706 28.775 128.476 28.55 128.476 28.325C128.476 27.65 129.397 27.2 131.008 26.75C130.778 20.225 130.548 15.5 130.548 12.35C130.548 12.125 130.548 11.9 130.778 11.675C131.008 11.45 131.238 11.45 131.698 11.45C132.159 11.45 132.389 11.675 132.619 11.9C132.849 12.125 133.079 12.35 133.079 12.8C133.079 14.6 133.079 16.85 133.31 20C133.54 23.15 133.54 25.175 133.54 26.075C135.151 25.4 136.302 25.175 137.452 25.175C137.683 25.175 137.913 25.175 138.143 25.4C138.373 25.625 138.373 25.85 138.373 26.3C138.373 27.2 136.762 28.1 133.54 28.55V29.9C133.54 30.125 133.54 30.125 133.54 30.35V30.575C133.77 33.275 133.77 37.1 133.77 42.275V43.4H137.222C137.913 43.85 138.143 44.3 138.143 44.75C138.143 45.2 138.143 45.425 137.913 45.65C137.683 45.875 137.452 46.1 137.222 46.1C136.992 46.1 136.762 46.1 136.302 45.875C136.071 45.875 135.841 45.875 135.381 45.875L132.389 45.65C132.159 45.65 131.698 45.65 131.468 45.425C131.468 45.425 131.238 45.2 131.238 44.975ZM151.032 14.15H150.111C149.881 14.15 149.651 14.15 149.421 14.375C149.19 14.6 149.19 14.825 149.19 15.05C149.19 17.975 149.421 22.475 149.651 28.1C150.111 33.95 150.111 38.225 150.111 41.15V42.95C150.341 42.95 150.802 42.95 151.032 42.95C152.413 42.95 152.873 43.4 152.873 44.525V44.75L151.722 45.425H148.5C145.738 45.425 144.587 44.975 144.587 44.075C144.587 43.4 145.048 42.95 145.968 42.95H146.889C147.349 42.95 147.579 42.5 147.579 41.825C147.579 39.575 147.349 35.975 147.119 31.475C146.889 26.75 146.659 23.375 146.659 21.125V16.625C146.659 15.725 146.659 14.825 146.659 14.15C146.198 14.375 145.968 14.375 145.508 14.375C144.817 14.375 144.357 13.925 144.357 13.25C144.357 12.8 144.587 12.575 145.048 12.35C145.508 12.125 146.198 11.9 146.889 11.675C148.27 11.45 149.19 11.45 149.651 11.45C150.341 11.45 150.802 11.675 151.032 11.9C151.262 12.125 151.492 12.35 151.492 12.8C151.492 13.25 151.492 13.475 151.262 13.7C151.032 13.925 151.262 14.15 151.032 14.15ZM160.698 14.15H159.778C159.548 14.15 159.317 14.15 159.087 14.375C158.857 14.6 158.857 14.825 158.857 15.05C158.857 17.975 159.087 22.475 159.317 28.1C159.778 33.95 159.778 38.225 159.778 41.15V42.95C160.008 42.95 160.468 42.95 160.698 42.95C162.079 42.95 162.54 43.4 162.54 44.525V44.75L161.389 45.425H158.167C155.405 45.425 154.254 44.975 154.254 44.075C154.254 43.4 154.714 42.95 155.635 42.95H156.556C157.016 42.95 157.246 42.5 157.246 41.825C157.246 39.575 157.016 35.975 156.786 31.475C156.556 26.75 156.325 23.375 156.325 21.125V16.625C156.325 15.725 156.325 14.825 156.325 14.15C155.865 14.375 155.635 14.375 155.175 14.375C154.484 14.375 154.024 13.925 154.024 13.25C154.024 12.8 154.254 12.575 154.714 12.35C155.175 12.125 155.865 11.9 156.556 11.675C157.937 11.45 158.857 11.45 159.317 11.45C160.008 11.45 160.468 11.675 160.698 11.9C160.929 12.125 161.159 12.35 161.159 12.8C161.159 13.25 161.159 13.475 160.929 13.7C160.698 13.925 160.929 14.15 160.698 14.15Z" fill="white"/>
</g>
<defs>
<clipPath id="clip0_64_634">
<rect width="116" height="36" fill="white" transform="translate(47 11)"/>
</clipPath>
</defs>
</svg>
