<svg width="186" height="55" viewBox="0 0 186 55" fill="none" xmlns="http://www.w3.org/2000/svg">
<path d="M0 0H186V55H0L16 27.5L0 0Z" fill="black"/>
<path d="M42.0225 44.2351L42.211 14.9855V8.74888C42.1956 8.60391 42.21 8.45735 42.2532 8.31802C42.2964 8.17869 42.3675 8.04947 42.4623 7.93813C42.8507 7.72235 43.2982 7.63498 43.74 7.68867C44.4669 7.69876 45.1823 7.86918 45.8346 8.18759C46.5243 8.49772 47.1386 8.95149 47.636 9.51807C48.1198 10.1144 48.5344 10.7629 48.8718 11.4514C49.5298 12.8651 49.8659 14.4053 49.8563 15.9625C49.7895 17.8856 49.3707 19.7805 48.6204 21.5547C48.5157 21.7834 48.3272 22.2615 48.0339 22.9891C47.7407 23.7167 47.5731 24.1533 47.5103 24.278C47.6806 27.5601 48.3225 30.8012 49.4164 33.9032C49.8353 35.2336 50.4427 37.0422 51.2177 39.3706C51.9927 41.6989 52.4954 43.1541 52.7049 43.757V43.8817C52.7049 45.0043 52.5583 45.6695 52.3069 45.9606C52.0634 46.1363 51.7701 46.2309 51.4691 46.2308C50.8407 46.2308 50.2333 45.7943 49.6468 44.9004V44.7133C49.1394 40.041 48.0849 35.4434 46.5049 31.0135C45.6252 28.2071 45.0177 26.149 44.6616 24.7769V44.4222C44.6846 44.8323 44.5979 45.2411 44.4103 45.6072C44.2935 45.7517 44.1425 45.8653 43.9707 45.9379C43.799 46.0104 43.6118 46.0397 43.4258 46.0229C43.2277 46.0379 43.0288 46.0083 42.8438 45.9363C42.6588 45.8643 42.4927 45.7518 42.3576 45.6072C42.2362 45.4757 42.1423 45.3217 42.0812 45.154C42.02 44.9863 41.993 44.8082 42.0015 44.6301L42.0225 44.2351ZM46.5677 12.6156C46.1069 11.0564 45.4995 10.2041 44.7245 10.0586L44.4522 20.245C44.4522 21.2637 44.4522 22.0328 44.4522 22.5318C45.0676 21.938 45.6283 21.291 46.1279 20.5984L46.9238 16.2952C46.948 16.0324 46.948 15.768 46.9238 15.5052C46.8998 14.5244 46.7376 13.5518 46.4421 12.6156H46.5677ZM66.4245 30.6393L65.9846 36.8759V37.0838C65.7701 38.0673 65.6647 39.0711 65.6704 40.0774C65.6732 41.1422 65.4816 42.1987 65.1049 43.1957C64.7193 44.1887 64.135 45.0939 63.3873 45.8566C63.0662 46.2093 62.6756 46.4927 62.2396 46.6893C61.8037 46.886 61.3317 46.9918 60.8529 47C59.9387 46.9999 59.0547 46.6755 58.3603 46.0853C57.574 45.4246 56.9324 44.611 56.4751 43.6946C55.935 42.5869 55.5002 41.4316 55.1765 40.2437C54.8148 38.9514 54.528 37.6395 54.3177 36.3146C54.1083 35.0465 53.9407 33.6953 53.815 32.2816C53.6056 30.2028 53.5218 28.4565 53.5218 27.2508C53.5218 26.045 53.5218 25.0472 53.5218 24.1949C53.5218 23.3425 53.5218 22.5733 53.5218 21.8873V19.5174C53.5218 18.5611 53.5218 17.688 53.5218 16.9188C53.5218 16.1496 53.6474 15.3389 53.7522 14.445C53.8367 13.6615 53.9696 12.8839 54.1501 12.1167C54.3223 11.4084 54.5463 10.7136 54.8204 10.0378C55.0677 9.45281 55.3993 8.90659 55.8049 8.41627C56.1398 7.98586 56.5677 7.63545 57.057 7.39081C57.5464 7.14617 58.0848 7.01353 58.6326 7.00264C59.5744 6.97434 60.509 7.17413 61.3555 7.58472C62.1522 7.99628 62.8082 8.63286 63.2407 9.41412C63.7372 10.2077 64.1917 11.0265 64.6022 11.8672C65.0559 12.9292 65.359 14.0486 65.5028 15.1934C65.7332 16.6278 65.9008 17.7712 66.0265 18.6443C66.1983 19.9124 66.2892 21.1899 66.2988 22.4694C66.2988 24.6938 66.2988 26.44 66.2988 27.6873L66.4245 30.6393ZM61.963 12.3869C61.6991 11.648 61.2775 10.9743 60.7272 10.412C60.3366 10.005 59.8053 9.75995 59.24 9.72595C59.0132 9.71708 58.7872 9.75708 58.5775 9.84321C58.3677 9.92934 58.1793 10.0596 58.0252 10.2249C57.6567 10.6503 57.3789 11.1453 57.2083 11.6801C56.9676 12.3597 56.7717 13.0541 56.6218 13.7589C56.4303 14.5732 56.2973 15.3999 56.2238 16.2328C56.2238 17.1475 56.0562 17.9998 55.9934 18.769C55.9306 19.5382 55.9934 20.349 55.8677 21.2637C55.8677 22.7604 55.8677 23.9454 55.8677 24.7769V25.0056C55.8804 27.4114 56.0483 29.814 56.3704 32.1985C56.7265 34.7763 57.0826 36.8759 57.4387 38.4351C57.7425 39.8814 58.2427 41.2801 58.9258 42.5928C59.5542 43.7362 60.2454 44.3183 61.0204 44.3183C61.7954 44.3183 62.2562 43.6946 62.717 42.4473C63.2165 40.9296 63.5398 39.3603 63.6805 37.7698C64.0157 34.4437 64.1833 32.1153 64.1833 30.7849C64.1833 29.4544 64.1833 28.4565 64.1833 27.8537C64.1833 27.2508 64.1833 26.3361 64.1833 25.1511C64.1833 23.9662 64.1832 22.8852 63.9738 21.8457C63.7643 20.8063 63.7434 19.7669 63.5968 18.4156C63.4591 17.2962 63.2563 16.1856 62.9893 15.0894C62.7143 14.173 62.3927 13.271 62.0258 12.3869H61.963ZM70.0691 7.93813C70.5359 8.04733 71.0137 8.10313 71.4934 8.10444L76.2272 7.60551C76.412 7.59865 76.596 7.63236 76.7662 7.70423C76.9364 7.7761 77.0885 7.88436 77.2116 8.02128C77.4671 8.30002 77.609 8.66311 77.6096 9.03992C77.6096 17.7573 75.7524 29.2881 72.038 43.6323L74.6771 43.4244C76.4366 43.4244 77.3373 43.9441 77.3373 44.9627V45.1914L76.5413 45.9606L70.2576 46.1685C69.6082 46.1685 69.1474 45.7527 68.8333 44.9419C70.1264 41.9144 70.9933 38.7246 71.4096 35.4623C72.3731 30.3483 73.1621 25.4145 73.7765 20.6608C74.3839 15.9002 74.7609 12.4701 74.8866 10.2665C73.9372 10.4165 72.9783 10.4998 72.017 10.5159C70.1947 10.5159 69.2941 9.97541 69.2941 8.93598V8.70731L69.9853 7.87576L70.0691 7.93813ZM93.1096 26.8766C93.0686 27.0263 93.0686 27.1842 93.1096 27.3339V28.3734C93.0158 31.2385 92.3762 34.06 91.2244 36.6888C90.2323 39.6781 88.4705 42.3582 86.1136 44.4638C85.1531 45.28 83.9422 45.749 82.6785 45.7943C82.0873 45.7951 81.5048 45.6524 80.9819 45.3785C80.7461 45.2566 80.55 45.0708 80.4165 44.8426C80.283 44.6144 80.2176 44.3533 80.2278 44.0896C80.9609 43.3412 81.338 41.3663 81.338 38.2272C81.338 36.377 81.1704 33.6121 80.8772 29.9117C80.5839 26.2114 80.3954 23.5088 80.3954 21.5963L80.542 16.1289C80.5026 14.9335 80.3198 13.7472 79.9974 12.5948C79.701 11.5642 79.5184 10.5047 79.4528 9.43491C79.4528 8.27075 80.7305 7.70945 83.3069 7.70945H84.0609C87.4751 7.70945 89.9677 9.60122 91.4967 13.4055C92.7189 16.9254 93.266 20.6414 93.1096 24.3612V26.6895V26.8766ZM83.7467 38.144V42.9254C85.0748 42.0341 86.1959 40.8718 87.0353 39.5161C87.9548 38.0345 88.6599 36.432 89.1298 34.7555C90.0234 31.5456 90.4813 28.2318 90.4913 24.9017C90.6265 21.864 90.142 18.8306 89.067 15.9833C88.4454 14.1822 87.2271 12.6432 85.6109 11.6177C84.6814 11.1608 83.6524 10.9394 82.6157 10.9733C82.6157 13.9876 82.8251 18.4988 83.2231 24.5483C83.6211 30.5978 83.8305 35.0881 83.8305 38.144H83.7467ZM96.5866 7.93813C97.0534 8.04733 97.5313 8.10313 98.0109 8.10444L102.745 7.60551C102.93 7.59865 103.114 7.63236 103.284 7.70423C103.454 7.7761 103.606 7.88436 103.729 8.02128C103.985 8.30002 104.126 8.66311 104.127 9.03992C104.127 17.7573 102.27 29.2881 98.5555 43.6323L101.195 43.4244C102.975 43.4244 103.855 43.9441 103.855 44.9627V45.1914L103.059 45.9606L96.7751 46.1685C96.1258 46.1685 95.6649 45.7527 95.3508 44.9419C96.6544 41.9166 97.5285 38.7263 97.9481 35.4623C98.8906 30.3483 99.6866 25.4214 100.294 20.6608C100.901 15.9002 101.278 12.4701 101.404 10.2665C100.455 10.4173 99.4958 10.5007 98.5345 10.5159C96.7332 10.5159 95.8116 9.97541 95.8116 8.93598V8.70731L96.5028 7.87576L96.5866 7.93813ZM112.485 10.5783H111.605C111.35 10.5644 111.099 10.6378 110.893 10.7862C110.795 10.9 110.722 11.0327 110.679 11.1758C110.636 11.3189 110.623 11.4694 110.641 11.6177C110.641 14.8608 110.851 19.7114 111.27 26.1698C111.689 32.6281 111.891 37.4788 111.877 40.7218V42.6344C112.219 42.6136 112.562 42.6136 112.903 42.6344C114.307 42.6344 114.998 43.2165 114.998 44.3806V44.6717L113.741 45.524L110.327 45.6488C107.437 45.6488 105.991 45.1498 105.991 44.152C105.991 43.1541 106.494 42.7591 107.499 42.967H108.568C109.049 42.967 109.301 42.572 109.301 41.7821C109.301 39.2251 109.154 35.3792 108.84 30.2444C108.526 25.1096 108.358 21.2844 108.358 18.7067L108.463 13.6342C108.47 12.7041 108.428 11.7743 108.337 10.8485C107.961 10.9849 107.565 11.062 107.164 11.0772C107.002 11.0947 106.838 11.0752 106.685 11.0202C106.532 10.9652 106.393 10.876 106.28 10.7597C106.167 10.6433 106.082 10.5027 106.032 10.3488C105.982 10.1948 105.968 10.0316 105.991 9.87147C106.013 9.64496 106.094 9.42807 106.227 9.24215C106.359 9.05624 106.538 8.90773 106.745 8.81126C107.329 8.48485 107.968 8.26648 108.63 8.1668C109.666 7.95966 110.717 7.83454 111.772 7.79261C112.296 7.74344 112.82 7.89187 113.239 8.20838C113.378 8.3264 113.489 8.47311 113.565 8.63828C113.641 8.80345 113.68 8.98309 113.678 9.16466C113.676 9.50496 113.558 9.83444 113.343 10.1001C113.258 10.2317 113.144 10.3428 113.01 10.4255C112.876 10.5082 112.725 10.5603 112.568 10.5783H112.485ZM130.351 43.9857C130.385 44.2109 130.367 44.441 130.296 44.6578C130.226 44.8747 130.106 45.0723 129.945 45.2354C129.785 45.3985 129.589 45.5226 129.372 45.5979C129.156 45.6732 128.924 45.6977 128.697 45.6695C127.649 45.6695 127.147 45.2538 127.147 44.3806V37.8738C126.345 37.4458 125.472 37.1641 124.57 37.0422C123.484 36.8326 122.386 36.6869 121.282 36.6057C120.859 37.3995 120.569 38.256 120.423 39.1419C120.214 40.2437 119.983 41.3663 119.732 42.4889C119.57 43.4155 119.252 44.3082 118.789 45.129C117.491 45.129 116.757 44.7964 116.59 44.1312C117.682 40.8977 118.433 37.5606 118.831 34.1734C119.851 28.1863 120.695 23.495 121.366 20.0995C121.885 17.2181 122.585 14.3715 123.46 11.5761C124.235 9.2686 124.968 8.10444 125.68 8.10444C126.252 8.06957 126.819 8.22305 127.293 8.541C127.293 9.72595 127.628 12.9482 128.278 18.1661C128.927 23.3841 129.262 26.7726 129.262 28.311C129.262 29.8494 129.43 32.4687 129.786 35.9612C130.142 39.4537 130.309 42.1978 130.309 43.9857H130.351ZM127.084 34.8179C127.084 34.1526 126.916 32.344 126.581 29.392C126.288 26.44 126.016 23.6336 125.785 20.9518C125.555 18.2701 125.429 16.6694 125.429 16.1081C125.411 15.7896 125.411 15.4703 125.429 15.1518C124.905 15.6923 124.151 18.6651 123.167 24.0909C122.458 27.5264 121.926 30.9958 121.575 34.4852C122.712 34.8212 123.888 35.0098 125.073 35.0465C125.774 35.07 126.476 35.0212 127.168 34.901L127.084 34.8179ZM133.954 44.6717L134.268 42.5928C134.268 39.1419 134.122 33.9863 133.828 27.0845C133.411 27.2932 132.955 27.4135 132.488 27.4379C132.104 27.4322 131.73 27.3087 131.42 27.0845C131.269 26.9979 131.143 26.8738 131.055 26.7244C130.966 26.5749 130.919 26.4053 130.917 26.2321C130.917 25.4837 131.839 24.9225 133.703 24.5275C133.41 17.4178 133.263 12.0959 133.263 8.56179C133.259 8.41598 133.292 8.27156 133.358 8.14111C133.423 8.01066 133.52 7.89815 133.64 7.81339C133.889 7.59479 134.208 7.46976 134.541 7.45999C134.916 7.4714 135.274 7.61939 135.546 7.87576C135.688 8.00903 135.801 8.17033 135.877 8.34933C135.952 8.52834 135.99 8.72108 135.986 8.9152C135.986 10.7862 135.986 13.4471 136.216 16.898C136.447 20.349 136.447 22.6357 136.489 23.7167C137.838 23.066 139.305 22.6913 140.803 22.6149C140.928 22.6221 141.05 22.6577 141.159 22.7189C141.268 22.7802 141.361 22.8656 141.432 22.9683C141.639 23.2273 141.743 23.5528 141.725 23.883C141.725 24.9779 139.987 25.7887 136.509 26.3153V27.8952C136.523 28.0544 136.523 28.2143 136.509 28.3734V28.602C136.635 31.4917 136.719 35.8365 136.719 41.6157V42.8839H140.531C141.264 43.362 141.62 43.8193 141.62 44.2559C141.638 44.6571 141.504 45.0504 141.243 45.3577C141.157 45.4782 141.044 45.578 140.913 45.6499C140.783 45.7218 140.638 45.764 140.489 45.7735C140.182 45.7614 139.879 45.7054 139.589 45.6072C139.268 45.6412 138.945 45.6412 138.625 45.6072L135.337 45.4616C134.991 45.4536 134.653 45.3607 134.352 45.1914C134.259 45.1345 134.179 45.0588 134.118 44.9693C134.057 44.8797 134.015 44.7783 133.996 44.6717H133.954ZM155.486 10.5783H154.607C154.352 10.5644 154.101 10.6378 153.895 10.7862C153.801 10.9017 153.732 11.0351 153.692 11.1782C153.653 11.3212 153.643 11.4708 153.664 11.6177C153.664 14.8608 153.853 19.7253 154.272 26.1698C154.691 32.6143 154.879 37.4996 154.879 40.7218V42.6344H155.905C157.309 42.6344 158 43.2165 158 44.3806V44.6717L156.743 45.524L153.329 45.6488C150.439 45.6488 148.993 45.1498 148.993 44.152C148.993 43.362 149.496 42.967 150.522 42.967H151.57C152.051 42.967 152.303 42.572 152.303 41.7821C152.303 39.2251 152.156 35.3792 151.842 30.2444C151.528 25.1096 151.381 21.2844 151.381 18.7067V13.6342C151.388 12.7041 151.346 11.7743 151.255 10.8485C150.879 10.9869 150.483 11.0641 150.082 11.0772C149.92 11.0947 149.756 11.0752 149.603 11.0202C149.45 10.9652 149.311 10.876 149.198 10.7597C149.085 10.6433 149 10.5027 148.95 10.3488C148.9 10.1948 148.886 10.0316 148.909 9.87147C148.932 9.64496 149.013 9.42807 149.145 9.24215C149.277 9.05624 149.456 8.90773 149.664 8.81126C150.247 8.48485 150.886 8.26648 151.549 8.1668C152.584 7.95966 153.635 7.83454 154.691 7.79261C155.215 7.74344 155.738 7.89187 156.157 8.20838C156.296 8.3264 156.407 8.47311 156.483 8.63828C156.559 8.80345 156.598 8.98309 156.597 9.16466C156.594 9.50496 156.476 9.83444 156.261 10.1001C156.176 10.2317 156.062 10.3428 155.928 10.4255C155.794 10.5082 155.643 10.5603 155.486 10.5783Z" fill="white"/>
</svg>
