<svg width="274" height="174" viewBox="0 0 274 174" fill="none" xmlns="http://www.w3.org/2000/svg">
<g clip-path="url(#clip0_7_1460)">
<path d="M28.0187 106.437C28.0187 106.437 28.0187 106.613 28.0187 106.437C28.0187 106.613 28.0187 106.613 28.0187 106.437C28.0187 106.613 28.0187 106.613 28.0187 106.437ZM25.5516 96.3921V96.5683C25.3754 96.5683 25.1992 96.3921 25.023 96.3921C25.3754 96.5683 25.3754 96.3921 25.5516 96.3921ZM23.2608 104.146C23.2608 104.146 23.437 104.146 23.437 104.322C23.437 104.146 23.437 104.322 23.2608 104.146C23.437 104.322 23.437 104.322 23.2608 104.146C23.437 104.146 23.437 104.146 23.2608 104.146ZM25.7278 98.3305C25.7278 98.3305 25.7278 98.5067 25.7278 98.3305C25.9041 98.5067 25.9041 98.5067 25.9041 98.5067C25.9041 98.5067 26.0803 98.6829 26.0803 98.8591C26.2565 99.0353 26.2565 99.3878 26.2565 99.564C26.2565 100.093 26.0803 100.621 25.7278 101.15C25.5516 101.679 25.1992 102.207 24.6705 102.384C24.3181 102.56 23.9656 102.736 23.6132 102.56C23.6132 102.56 23.6132 102.384 23.437 102.384C23.437 102.031 23.437 101.855 23.2608 101.502C23.2608 100.974 23.2608 100.445 23.2608 99.9164C23.2608 99.2116 23.437 98.5067 23.7894 97.978H23.9656C24.1419 98.1542 24.4943 97.978 24.6705 97.978H24.8467C24.6705 97.978 25.023 97.978 25.023 97.978C25.023 97.978 25.1992 97.978 25.3754 97.978C25.3754 98.3305 25.5516 98.3305 25.7278 98.3305C25.5516 98.3305 25.5516 98.3305 25.7278 98.3305ZM32.7766 102.207C32.248 101.326 32.0717 100.445 32.0717 99.3878C32.0717 99.0354 32.0717 98.6829 32.248 98.1543C32.6004 96.0396 33.6577 93.925 34.1864 91.8103C34.5388 89.6957 34.5388 87.4049 33.8339 85.4664C32.9528 82.4707 29.9571 80.3561 26.9614 80.7085C26.0803 80.5323 25.1992 80.5323 24.3181 80.7085C24.1419 80.7085 23.9656 80.7085 23.7894 80.8847H23.6132H23.437C21.6748 81.5896 19.9126 83.3518 20.4412 85.2902C20.4412 85.6427 20.4412 85.8189 20.6175 86.1713C21.1461 88.1097 23.2608 86.7 24.4943 86.5238C25.023 86.5238 25.9041 86.3475 26.4327 86.7C27.6662 87.2286 27.49 87.9335 27.3138 88.9908C27.1376 90.0482 26.9614 91.1055 26.7851 92.1628C24.8467 91.6341 22.7321 91.9866 21.1461 93.3963C19.0315 95.1585 18.1504 97.8018 18.3266 100.445C18.5028 103.088 19.3839 105.908 21.3223 107.846C23.2608 109.609 25.3754 109.432 27.49 108.551C28.3711 111.018 31.8955 112.076 33.8339 109.609C34.8912 108.199 34.8912 106.084 34.1864 104.498C33.8339 103.793 33.3053 103.088 32.7766 102.207Z" fill="black"/>
<path d="M132.342 133.046C133.575 130.05 135.161 127.23 136.747 124.587C137.452 125.116 138.157 125.821 138.862 126.349C138.509 126.173 137.981 125.997 137.628 125.821C137.276 125.645 136.747 125.645 136.395 125.997C135.161 128.288 133.751 130.579 132.342 133.046ZM133.223 148.553C133.399 148.729 133.575 148.905 133.575 149.082L133.399 149.258C133.399 149.082 133.223 148.905 133.223 148.553ZM130.932 152.254C130.932 152.254 131.108 152.254 130.932 152.254C131.108 152.254 131.108 152.254 130.932 152.254C131.108 152.254 130.932 152.254 130.932 152.254ZM120.887 145.381C120.711 145.381 120.711 145.381 120.535 145.205C120.711 144.676 121.064 143.971 121.24 143.443C121.24 143.971 121.064 144.676 120.887 145.381ZM161.242 100.798C161.594 100.974 161.77 101.326 162.123 101.502C161.946 101.855 161.77 102.207 161.594 102.384C161.594 102.031 161.594 101.326 161.242 100.798ZM143.796 128.816C143.972 128.816 143.796 128.816 143.796 128.816V128.816ZM124.764 145.734C124.764 145.91 124.94 145.91 124.94 146.086C124.94 145.91 124.94 145.91 124.764 145.734C124.764 145.91 124.764 145.734 124.764 145.734ZM151.021 96.0396C151.021 96.0396 151.197 96.0396 151.021 96.0396C151.726 96.2159 152.078 96.3921 152.607 96.5683C151.021 97.2732 149.787 98.3305 148.554 99.564C149.435 98.3305 150.316 97.097 151.021 96.0396ZM131.637 144.148C130.756 143.266 130.051 142.738 130.227 141.504C130.403 140.623 131.284 139.566 131.637 138.685C133.575 134.984 135.514 131.46 137.628 127.935C139.743 128.816 141.681 129.874 143.62 131.284C144.148 131.636 144.853 131.636 145.206 130.931C146.263 128.816 147.144 126.702 148.201 124.587C148.554 123.882 147.849 123.354 147.32 123.177C145.206 122.473 143.091 121.944 140.8 121.239C144.501 115.952 148.201 110.842 152.431 105.732C154.898 106.613 157.189 107.846 159.303 109.609C159.656 109.961 160.537 109.961 160.713 109.256C161.594 106.789 162.651 104.322 163.885 102.207C164.061 101.855 164.061 101.326 163.885 101.15C160.713 97.8018 156.307 95.3348 151.55 95.1585C151.373 94.9823 151.021 94.8061 150.845 94.9823C147.144 98.5067 144.148 102.736 141.153 106.789C138.157 110.842 135.337 114.895 132.694 119.124C127.407 127.583 123.002 136.394 118.596 145.381C118.42 145.734 118.596 146.086 118.949 146.438C119.478 146.967 120.006 147.32 120.711 147.32C120.535 147.848 120.535 148.553 121.24 148.729C124.588 150.315 127.936 152.43 130.932 154.721C131.46 155.073 132.165 155.073 132.518 154.368C133.223 152.606 134.28 151.196 135.866 150.139C136.218 149.787 136.395 149.082 136.042 148.729C134.456 147.143 133.046 145.557 131.637 144.148Z" fill="black"/>
<path d="M173.399 130.579C173.575 130.579 173.575 130.755 173.752 130.931C173.399 131.284 173.223 131.636 172.87 131.988C172.87 131.46 173.047 131.107 173.399 130.579ZM150.491 143.443C150.667 143.266 150.843 143.09 151.019 143.09C151.195 143.443 151.548 143.619 151.9 143.795C151.9 143.971 151.724 144.148 151.724 144.324C151.372 143.619 150.843 143.266 150.491 143.443ZM152.077 136.923C152.077 137.099 151.9 137.099 152.077 136.923C151.9 137.099 151.9 136.923 152.077 136.923ZM167.76 141.328C170.227 137.98 172.694 134.808 174.809 131.284C174.809 131.107 174.809 131.107 174.809 130.931C174.985 130.931 174.985 130.755 175.161 130.579C175.338 130.226 175.161 129.874 174.985 129.698C174.633 129.169 174.104 128.816 173.752 128.464C173.399 127.935 172.87 127.583 172.342 127.407C172.166 127.23 171.813 127.054 171.637 126.878C171.461 126.702 171.284 126.702 171.108 126.526C170.932 126.526 170.932 126.526 170.756 126.349H170.58H170.403C170.051 126.173 169.698 126.349 169.522 126.526C169.522 126.702 169.346 126.878 169.522 127.054C169.522 127.054 169.346 127.054 169.346 127.23C168.113 128.464 167.408 130.05 166.35 131.636C165.293 133.222 164.412 134.632 163.355 136.218C162.121 138.156 160.711 140.095 159.478 142.033C160.006 139.39 160.535 136.57 160.535 133.751C160.535 133.222 160.006 132.517 159.478 132.693C157.716 133.046 156.306 133.751 154.72 134.455C155.425 132.517 156.306 130.579 157.011 128.64C158.068 125.821 159.302 123.001 160.006 120.005C160.183 119.653 159.654 119.124 159.302 119.301C159.125 119.124 158.949 119.124 158.773 118.948C158.42 118.772 158.244 118.772 157.892 118.596C157.363 118.42 156.834 118.243 156.306 118.067C156.13 118.067 155.953 117.891 155.777 117.891C155.601 117.715 155.072 117.538 154.72 117.538C154.367 117.362 154.191 117.362 153.839 117.362C153.486 117.362 153.134 117.715 153.134 118.067C153.134 118.42 153.31 118.772 153.663 118.772C151.9 122.296 150.138 125.997 148.376 129.698C147.495 131.46 146.438 133.222 145.556 134.984C142.737 140.095 139.741 145.205 137.45 150.668C136.745 151.725 136.217 152.782 136.569 154.016C136.922 155.249 138.155 156.659 139.565 156.13C140.446 155.778 141.327 154.368 141.856 153.663C142.913 152.606 143.794 151.725 144.852 150.668C146.261 149.258 147.671 148.024 149.257 146.791C148.376 151.549 146.966 155.954 145.204 160.536C145.028 161.241 145.556 161.77 146.085 161.946C147.495 162.298 149.257 163.355 150.843 163.003C152.077 162.827 152.781 161.417 153.486 160.536C155.953 157.188 158.42 154.016 160.711 150.668C163.002 147.672 165.469 144.5 167.76 141.328Z" fill="black"/>
<path d="M78.2405 70.8402C77.7118 71.3689 77.5356 72.25 77.3594 72.9549C77.3594 73.836 77.3594 74.8933 77.5356 75.7744C77.7118 76.8317 77.888 77.889 78.0642 78.9463C78.0642 79.1226 78.4167 79.1226 78.4167 78.9463C78.0642 77.3604 77.888 75.5982 77.888 73.836C77.888 73.1311 77.888 72.25 78.2405 71.7213C78.5929 71.1927 79.2978 71.0165 79.8264 71.1927C80.1789 71.3689 80.7075 70.8402 80.1789 70.4878C79.474 70.1354 78.7691 70.3116 78.2405 70.8402Z" fill="black"/>
<path d="M75.0701 86.8762C75.0701 87.2287 75.0701 87.5811 75.0701 87.9335C75.0701 88.8146 75.2463 89.6957 75.9512 90.4006C76.6561 91.2817 77.7134 91.6342 78.7707 91.9866C79.828 92.1628 81.0615 92.339 82.1189 91.9866C82.1189 91.9866 82.2951 91.9866 82.2951 91.8104C83.3524 92.6915 85.1146 92.6915 85.6433 91.2817C85.9957 90.5768 85.9957 89.872 85.9957 88.9909C85.9957 87.7573 85.8195 86.3476 85.6433 85.114C85.1146 80.1799 84.4097 75.0695 81.9426 70.664C81.0616 69.2543 79.828 67.4921 77.8896 67.8445C76.1274 68.197 75.4225 69.9591 75.5987 71.5451C75.5987 72.9549 75.9512 74.1884 76.1274 75.5982C76.3036 76.3031 76.3036 77.1842 76.4798 77.889C76.6561 78.5939 76.8323 79.475 76.8323 80.1799C76.8323 80.7085 76.3036 81.4134 75.9512 80.8848C75.775 81.2372 75.775 80.8848 75.775 80.5323C75.5987 80.0037 75.4225 79.475 75.0701 79.1226C74.5414 78.2415 73.8366 77.5366 72.9555 77.0079C72.603 76.8317 72.2506 77.3604 72.603 77.5366C73.3079 78.0652 74.0128 78.7701 74.5414 79.6512C74.7176 80.0037 74.8939 80.3561 75.0701 80.8848C75.2463 81.2372 75.0701 81.7659 75.2463 81.9421C75.775 82.8232 77.1847 82.1183 77.5372 81.4134C77.8896 80.8848 77.7134 80.0037 77.5372 79.475C77.3609 78.4177 77.1847 77.1842 77.0085 76.1268C76.6561 74.1884 75.5987 71.3689 77.0085 69.6067C77.8896 68.3732 79.4756 68.7256 80.5329 69.7829C81.2378 70.664 81.5902 71.7213 81.9426 72.6024C82.6475 74.7171 83.3524 76.8317 83.8811 78.9463C84.4097 81.061 84.9384 82.9994 85.1146 85.114C85.2908 86.1713 85.2908 87.4049 85.2908 88.4622C85.2908 89.3433 85.2908 90.4006 84.7622 91.1055C83.1762 93.3963 80.7091 87.7573 80.1805 86.7C79.2994 84.4092 78.9469 82.1183 78.242 79.8274H78.0658C77.7134 81.9421 78.242 84.2329 78.9469 86.3476C79.4756 87.9335 80.1805 89.6957 81.2378 91.1055C81.0615 91.1055 80.8853 91.1055 80.7091 91.1055C80.7091 91.1055 80.7091 90.9293 80.5329 90.9293C79.828 90.0482 79.1231 88.9909 78.7707 87.9335C78.5945 87.4049 78.4183 86.8762 78.242 86.3476C78.242 85.9951 78.0658 85.8189 78.0658 85.4665C78.0658 85.114 78.0658 84.7616 77.7134 84.5854C77.5372 84.4092 77.3609 84.4092 77.1847 84.5854C76.8323 85.114 77.1847 85.8189 77.1847 86.3476C77.3609 87.0524 77.5372 87.5811 77.7134 88.286C78.0658 89.3433 78.5945 90.4006 79.2994 91.2817C78.9469 91.2817 78.7707 91.2817 78.4183 91.1055C77.7134 90.9293 76.8323 90.5768 76.3036 89.872C75.9512 89.1671 75.9512 88.4622 75.775 87.7573C75.775 87.4049 75.5987 86.8762 75.5987 86.5238C75.5987 86.3476 75.4225 86.1713 75.4225 85.9951C75.2463 85.8189 75.0701 85.6427 75.0701 85.4665C74.8939 85.114 74.189 85.2902 74.3652 85.6427V85.8189C74.189 85.6427 74.189 85.6427 74.0128 85.4665L73.8366 85.2903C73.6603 85.114 73.4841 84.7616 73.3079 84.5854C73.1317 84.2329 72.603 84.5854 72.7792 84.9378C72.9555 85.2903 73.1317 85.4665 73.3079 85.8189L73.4841 85.9951C74.3652 88.9909 74.7176 92.1628 74.8939 95.3348C75.0701 96.9207 75.0701 98.6829 74.8939 100.269C74.8939 101.15 74.7177 101.855 74.7177 102.736C74.7177 103.441 74.5414 104.146 74.5414 105.027C74.5414 105.203 74.8939 105.379 74.8939 105.203C75.2463 104.674 75.2463 103.97 75.2463 103.265C75.4225 102.384 75.4225 101.679 75.4225 100.798C75.4225 99.2116 75.4225 97.4494 75.4225 95.8634C75.2463 92.6915 74.5414 89.6957 73.6603 86.7C74.5414 86.3476 74.7176 86.5238 75.0701 86.8762C74.8939 86.8762 74.8939 86.8762 75.0701 86.8762Z" fill="black"/>
<path d="M110.49 96.5683C110.138 96.7445 109.785 96.2159 109.609 96.0396C109.08 95.3348 109.257 94.2774 109.785 93.5726C110.314 92.8677 111.195 92.5152 112.076 92.6915C112.076 93.5726 111.9 94.6299 111.371 95.511C111.019 95.8634 110.843 96.2159 110.49 96.5683ZM111.9 96.3921C112.428 95.511 112.781 94.4537 112.957 93.3963C112.957 93.2201 112.957 92.8677 112.957 92.6915C112.957 92.339 112.957 91.9866 112.781 91.8104C112.605 91.6341 112.252 91.4579 112.076 91.6342C111.9 91.6342 111.9 91.8104 111.9 91.8104C111.195 91.6341 110.314 91.8104 109.609 92.1628C108.904 92.6915 108.375 93.5726 108.199 94.4537C108.199 95.3348 108.552 96.2159 109.257 96.9207C109.609 97.2732 110.138 97.6256 110.666 97.4494C111.195 97.2732 111.547 96.7445 111.9 96.3921Z" fill="black"/>
<path d="M124.058 151.901C124.058 151.901 123.882 151.901 124.058 151.901C123.882 151.901 123.882 151.901 124.058 151.901C123.882 151.901 123.882 151.901 124.058 151.901C124.058 152.077 124.234 152.077 124.234 152.077C124.058 151.901 124.058 151.901 124.058 151.901Z" fill="black"/>
<path d="M193.665 166.351C192.784 166.175 191.727 165.999 190.846 165.646C190.846 165.646 191.022 165.646 191.022 165.47C191.022 165.47 191.198 165.294 191.198 165.118C191.198 164.941 191.198 164.941 191.374 164.765C191.374 164.589 191.374 164.413 191.374 164.237C191.374 163.884 191.374 163.532 191.551 163.179C191.551 163.003 191.374 162.827 191.198 162.827C191.022 162.827 190.846 162.827 190.846 163.003C190.846 163.355 190.67 163.708 190.67 164.06C190.67 164.237 190.67 164.413 190.493 164.589V164.765C190.493 164.941 190.493 164.941 190.493 165.118C190.141 164.941 189.965 164.765 189.612 164.413C188.202 163.003 188.731 161.241 189.436 159.655C189.436 159.831 189.612 160.007 189.788 160.184C189.788 160.36 189.788 160.536 189.965 160.536C191.198 161.065 192.784 161.241 194.018 161.417C195.604 161.77 197.013 162.122 198.599 162.298C199.128 162.298 199.657 162.298 200.185 162.298C199.833 162.474 200.185 163.003 200.538 163.003C201.066 163.003 201.419 163.179 201.948 163.179C201.948 163.179 201.948 163.179 201.771 163.179C201.771 163.179 201.771 163.179 201.595 163.179C201.595 163.179 201.595 163.179 201.419 163.179C201.419 163.179 201.419 163.179 201.243 163.179C201.243 163.355 201.419 163.355 201.419 163.355H201.595H201.771C201.948 163.355 202.124 163.179 202.3 163.179V163.003C203.357 163.003 204.591 163.003 205.648 162.827C206.705 162.651 207.763 162.651 208.644 162.298C207.234 163.355 205.824 164.237 204.062 164.765C200.89 166.88 197.013 166.88 193.665 166.351ZM106.084 112.604C106.084 112.428 106.084 112.252 105.908 112.252C106.437 111.195 107.141 110.137 107.67 109.08C107.141 110.137 106.613 111.371 106.084 112.604ZM127.583 80.7085C127.583 80.8848 127.583 80.8848 127.583 81.061C127.23 81.4134 126.878 81.7659 126.526 81.9421C126.702 81.7659 126.878 81.4134 127.054 81.2372C127.23 81.061 127.407 80.8848 127.583 80.7085ZM134.455 85.8189C134.632 85.2902 134.984 84.7616 135.16 84.0567C135.337 83.8805 135.337 83.7043 135.337 83.3518C135.337 83.3518 135.337 83.3518 135.337 83.1756V82.9994C135.513 82.9994 135.513 83.1756 135.689 83.1756C135.689 83.1756 135.865 83.1756 135.865 83.3518C134.808 85.4665 133.927 87.4049 132.87 89.5195C133.398 88.4622 133.927 87.0524 134.455 85.8189ZM145.205 94.4537C145.381 94.4537 145.557 94.4537 145.557 94.4537C145.557 94.4537 145.557 94.4537 145.734 94.4537C145.557 94.4537 145.557 94.4537 145.557 94.6299C144.852 95.6872 144.148 96.5683 143.443 97.6256C143.971 96.5683 144.676 95.511 145.205 94.4537ZM106.084 113.309C106.26 113.485 106.26 113.662 106.437 113.662C106.26 113.838 106.26 114.014 106.084 114.366C106.26 113.838 106.084 113.485 106.084 113.309ZM188.026 165.118C185.383 169.347 180.801 171.109 175.867 171.285C176.572 171.109 177.453 171.109 178.158 170.933C179.744 170.757 181.33 170.404 182.74 169.523C182.916 169.347 182.916 169.347 182.916 169.171C184.502 168.29 186.088 167.232 187.145 165.999C187.498 165.646 186.793 165.118 186.44 165.294C184.326 166.88 182.211 168.466 179.744 169.347C176.748 170.052 173.752 169.699 170.58 169.347C166.527 168.642 162.651 167.937 158.598 167.056C155.954 166.527 153.487 165.823 150.844 164.941C148.024 163.884 145.029 162.827 142.209 161.77C142.033 161.593 141.857 161.946 142.033 162.122C142.385 162.298 142.738 162.474 143.09 162.474C142.738 162.298 142.385 162.298 142.033 162.122C140.799 161.593 139.39 161.065 138.156 160.536C139.037 160.888 139.918 161.241 140.976 161.77C139.918 161.417 138.861 161.065 137.804 160.712C136.746 160.184 135.689 159.655 134.632 158.95C133.046 157.893 131.284 156.835 129.698 155.778C128.112 154.721 126.349 153.663 124.94 152.43C124.763 152.254 124.587 152.606 124.763 152.782C126.349 154.016 127.759 155.426 129.345 156.659C130.931 157.893 132.517 158.95 134.103 159.831C135.689 160.888 137.451 161.77 139.213 162.651C140.623 163.355 142.033 164.06 143.443 164.765C146.791 166.527 150.491 167.585 154.016 168.642C149.082 167.585 143.971 166.351 139.037 164.589C139.037 164.413 139.037 164.237 138.861 164.06C136.57 162.474 133.751 161.593 131.284 160.184C128.64 158.774 125.997 157.012 123.354 155.249C122.649 154.721 121.944 154.192 121.415 153.663C118.243 150.491 115.248 147.143 112.428 143.795C108.727 139.213 105.555 134.455 103.617 128.816C102.031 124.059 100.798 119.124 100.445 114.014C100.445 109.432 100.974 105.027 102.207 100.621C102.912 97.8018 103.97 94.8061 105.203 92.1628C104.851 92.8677 104.674 93.5726 104.674 94.2774C104.674 94.6299 104.674 94.8061 104.674 95.1585C104.146 96.2158 103.793 97.4494 103.617 98.5067C103.441 99.564 103.088 100.445 102.912 101.502C102.736 101.502 102.56 101.502 102.384 101.502C102.031 101.855 102.031 102.384 102.56 102.736C102.912 102.912 103.265 102.912 103.617 102.912C104.322 102.736 105.027 102.56 105.555 102.207C106.084 101.855 106.613 101.326 107.141 100.798C107.318 100.445 107.494 100.269 107.67 99.9165C107.67 99.7402 107.846 99.564 107.846 99.3878C107.846 99.2116 107.846 99.2116 107.846 99.0354C107.846 98.8591 107.846 98.8591 107.846 98.6829C107.846 98.5067 107.67 98.3305 107.494 98.5067C107.494 98.6829 107.318 98.6829 107.141 98.6829C107.141 98.8591 106.965 98.8591 106.965 99.0354C106.789 99.2116 106.613 99.3878 106.613 99.7402C106.26 100.093 105.908 100.445 105.555 100.798C105.203 101.15 104.674 101.326 104.322 101.502C104.146 101.502 103.97 101.679 103.617 101.679H103.441C103.793 100.621 103.97 99.564 104.322 98.5067C104.498 97.978 104.674 97.2732 104.851 96.7445C104.851 96.5683 105.027 96.3921 105.027 96.2158C105.379 96.9207 105.732 97.4494 106.437 97.8018C106.965 98.1543 107.67 98.3305 108.199 98.5067C108.023 99.2116 108.023 99.9165 107.67 100.445C107.318 101.15 106.965 101.855 106.437 102.207C105.908 102.56 105.203 102.912 104.498 103.088C104.146 103.088 103.793 103.088 103.441 103.088C103.088 103.088 102.736 102.736 102.207 102.912C102.031 102.912 101.855 103.265 102.031 103.441C100.445 112.78 102.207 122.12 106.084 130.755C107.846 134.632 110.313 138.332 112.957 141.68C114.366 143.443 115.952 145.205 117.538 146.791C119.124 148.377 120.71 149.61 122.296 150.844C122.473 151.02 122.473 150.844 122.473 150.668C120.887 149.082 119.301 147.319 117.715 145.734C116.305 144.148 114.895 142.738 113.662 140.976C111.195 137.627 108.904 133.927 106.965 130.226C102.912 122.12 101.326 112.957 102.384 103.793C102.56 103.97 102.912 103.97 103.088 103.97C103.441 103.97 103.97 103.97 104.322 103.97C105.203 103.793 105.908 103.441 106.613 102.912C107.318 102.384 107.846 101.679 108.199 100.798C108.551 100.093 108.727 99.2116 108.727 98.3305C109.432 98.3305 110.137 98.5067 110.666 98.1543C111.018 97.978 110.842 97.6256 110.49 97.4494C109.785 97.2732 109.08 97.4494 108.551 97.2732C107.846 97.0969 107.141 96.9207 106.613 96.5683C105.379 95.6872 105.203 94.4537 105.379 93.0439C105.732 91.6341 106.26 90.4006 106.965 89.1671C107.318 88.4622 107.67 87.7573 108.023 87.0524C108.023 86.8762 108.375 86.1713 108.727 85.4665C109.609 84.4091 110.666 83.528 111.723 82.6469C112.428 81.9421 113.133 81.4134 113.838 80.8848C114.719 81.061 115.6 81.5896 116.129 82.2945C116.834 83.1756 117.01 84.5854 117.01 85.6427C117.01 86.7 116.834 87.7573 116.481 88.8146C116.129 89.8719 115.424 90.753 114.719 91.6341C114.543 91.9866 114.895 92.339 115.248 92.339C114.19 93.7488 113.133 95.3348 112.076 96.7445C109.256 101.15 106.26 105.908 104.674 110.842C104.322 110.842 103.97 111.018 103.97 111.547C103.617 115.071 104.674 118.42 106.613 121.415C106.965 121.944 107.846 122.12 108.199 121.591C111.371 117.01 114.719 112.428 118.243 108.023C117.891 110.842 117.538 113.485 117.186 116.305C117.186 116.481 117.186 116.834 117.01 117.01C116.657 118.772 116.129 120.358 115.6 122.12C114.895 124.94 114.014 127.583 113.309 130.402C112.78 132.693 113.485 133.574 115.424 134.455C116.657 135.16 119.301 136.57 120.71 135.689C121.591 134.984 122.296 133.574 122.825 132.517C123.706 131.107 124.587 129.698 125.292 128.464C128.64 123.177 131.812 117.715 135.16 112.428C138.685 106.437 142.738 100.621 145.734 94.4537C145.91 94.1012 145.734 93.925 145.381 93.7488C145.734 93.7488 145.91 93.5726 146.086 93.3963C146.262 92.8677 145.91 92.5152 145.557 92.339C145.205 92.1628 144.676 91.9866 144.324 91.6341C143.971 91.4579 143.443 91.2817 143.09 90.9293C142.738 90.753 142.385 90.5768 142.033 90.4006C142.033 90.0482 141.857 89.8719 141.68 89.6957C141.68 89.5195 141.504 89.5195 141.504 89.3433C141.328 89.1671 140.976 89.1671 140.976 89.3433C140.799 89.5195 140.799 89.5195 140.623 89.6957V89.8719C139.918 90.753 139.39 91.6341 138.685 92.5152C137.98 93.5726 137.275 94.6299 136.57 95.511C135.16 97.4494 133.751 99.3878 132.341 101.326C130.05 104.146 127.759 106.965 125.468 109.785C126.878 105.732 128.64 101.679 130.402 97.8018C131.46 95.3348 132.517 92.8677 133.574 90.2244C134.632 87.7573 135.513 85.114 136.394 82.6469V82.4707C136.57 82.1183 136.746 81.7659 136.394 81.4134C135.337 80.1799 133.751 79.2988 132.341 78.4177C131.636 78.0652 130.931 77.7128 130.226 77.5366C129.521 77.3604 128.816 77.0079 128.112 77.1841C127.935 77.0079 127.759 77.0079 127.583 77.0079C127.054 77.0079 126.878 77.3604 126.526 77.7128C126.173 78.0652 125.821 78.5939 125.645 78.9463C125.116 79.6512 124.411 80.5323 123.882 81.2372C123.354 81.9421 122.649 82.8232 122.12 83.528C120.534 85.2902 118.948 87.2286 117.362 89.1671C117.891 87.7573 118.067 86.1713 118.067 84.7616C117.891 83.528 117.538 82.1183 116.657 81.061C116.305 80.5323 115.776 80.1799 115.071 80.0037C114.895 80.0037 114.719 79.8274 114.366 79.8274C118.42 76.4793 122.825 73.4835 127.759 71.8976C128.112 71.7213 128.464 71.7213 128.816 71.5451C129.874 71.3689 131.107 71.0165 132.165 71.0165C135.865 70.664 139.39 71.1927 142.914 72.0738C144.676 72.6024 146.262 73.3073 147.848 74.0122C151.02 75.5982 154.016 77.5366 157.012 79.6512C158.598 81.2372 160.007 82.8232 161.417 84.4091C171.99 96.3921 180.273 110.313 184.854 125.821C185.912 129.521 186.969 133.222 187.498 137.099C187.321 136.746 187.321 136.394 187.145 135.865C186.616 134.632 186.088 133.222 185.03 132.341C184.854 132.165 184.678 132.165 184.678 131.988C184.326 131.636 183.973 131.284 183.621 130.931C179.215 127.935 174.457 132.87 172.343 136.394C170.052 140.271 168.113 145.557 172.519 148.729C173.576 149.434 174.81 149.963 175.691 151.02C176.748 152.254 176.924 154.016 175.162 154.544C172.871 155.426 170.404 154.544 168.818 152.782C168.818 152.606 168.642 152.606 168.466 152.43C167.232 150.668 165.47 149.082 163.179 150.491C161.946 151.196 160.888 152.606 159.831 153.84C158.774 155.073 157.54 156.483 156.483 157.893C156.13 158.245 156.307 158.774 156.483 158.95C156.483 159.126 156.483 159.302 156.659 159.479C161.946 165.118 170.757 170.58 178.158 164.941C181.154 162.651 183.445 159.126 184.149 155.602C184.854 151.725 182.563 148.905 180.449 145.91C179.568 144.676 177.982 142.385 178.334 140.799C178.334 140.799 178.334 140.799 178.334 140.623C178.334 140.447 178.51 140.095 178.687 139.918C179.568 138.861 180.977 139.742 181.506 140.623C182.211 141.857 181.859 143.795 181.682 145.205C181.682 145.734 182.035 146.262 182.563 146.262C183.797 146.262 184.854 146.615 186.088 147.143C186.616 147.496 187.321 147.143 187.498 146.438C187.674 145.557 187.85 144.676 187.85 143.619C187.85 143.443 187.85 143.443 188.026 143.266C188.026 142.914 188.202 142.385 188.202 142.033C188.555 145.91 188.731 149.787 188.907 153.84C188.907 154.368 189.612 154.545 189.612 154.016C189.612 154.545 189.612 156.483 189.26 157.364C189.26 157.364 189.26 157.364 189.084 157.364C188.907 157.364 188.907 157.54 188.731 157.54C188.555 157.54 188.555 157.54 188.379 157.54C186.264 158.95 186.616 161.417 187.85 163.179C188.379 164.765 188.202 164.941 188.026 165.118ZM145.381 164.589C145.381 164.413 145.381 164.413 145.205 164.237C149.963 165.823 154.897 166.88 159.655 168.113C160.007 168.113 160.36 168.29 160.712 168.29C163.532 168.994 166.351 169.699 169.347 170.052C167.761 169.876 166.351 169.699 164.765 169.523C161.065 168.994 157.364 168.29 153.84 167.232C151.196 166.704 148.377 165.646 145.381 164.589ZM78.0652 106.789C79.1226 107.494 80.1799 108.727 80.8848 109.785C82.1183 111.723 83.1756 113.485 85.2902 114.543C87.2287 115.424 89.3433 115.776 91.4579 115.952C92.8677 116.129 94.2774 116.129 95.511 116.305C96.5683 116.305 97.8018 116.657 99.0354 116.657C99.0354 117.538 99.0354 118.243 99.2116 119.124C99.2116 118.948 99.0354 118.772 98.6829 118.772C95.8634 118.42 92.8677 118.42 90.0482 118.243C88.4622 118.067 86.8762 118.067 85.2902 117.538C84.5854 117.186 83.8805 116.834 83.3518 116.481C82.9994 116.129 82.4707 115.776 82.1183 115.6C81.4134 114.719 80.7085 113.838 80.0037 113.133C79.2988 112.428 78.2415 111.899 77.3604 111.371C75.422 110.313 72.25 108.551 73.6598 105.908C75.0695 105.732 76.6555 105.908 78.0652 106.789ZM113.133 147.319C112.957 147.143 112.957 146.967 112.78 146.967C112.957 147.143 113.133 147.143 113.133 147.319ZM179.744 108.199C179.215 107.141 178.51 105.908 177.982 104.851C175.162 99.7402 171.814 94.9823 168.29 90.4006C173.224 95.6872 176.924 101.679 179.744 108.199ZM163.884 154.544C163.884 154.368 163.884 154.368 163.884 154.544C164.765 153.663 165.47 153.311 166.175 153.663C165.294 153.84 164.589 154.192 163.884 154.544ZM175.691 146.086C175.691 146.262 175.691 146.262 175.867 146.438C175.691 146.262 175.691 146.262 175.515 146.086C175.515 146.086 175.515 145.91 175.338 145.91C175.338 145.91 175.515 146.086 175.691 146.086ZM6.69634 93.0439C5.63902 93.0439 4.58171 92.6915 3.52439 92.339C2.99573 92.1628 2.46707 91.9866 1.93841 91.6341C1.7622 91.4579 1.58598 91.4579 1.23354 91.2817C1.23354 91.2817 1.05732 91.2817 1.05732 91.1055C1.05732 90.5768 0.881098 90.0482 0.704878 89.5195C0.704878 88.9908 0.704878 88.4622 0.704878 87.9335C0.704878 86.8762 1.05732 85.8189 1.7622 84.9378C2.11463 84.5854 2.46707 84.2329 2.81951 83.8805C2.64329 84.0567 2.64329 84.2329 2.46707 84.4091C2.29085 84.7616 2.11463 85.2902 2.11463 85.8189C2.11463 86.1713 2.11463 86.7 2.46707 87.2287C2.99573 88.1097 3.87683 88.6384 4.93415 88.8146C5.4628 88.9909 5.99146 88.9908 6.69634 88.9908C7.225 88.9908 7.75366 89.1671 8.1061 89.3433C8.28232 89.5195 8.45854 89.6957 8.45854 89.8719C8.63476 90.4006 8.63476 90.753 8.45854 91.2817C8.28232 91.9866 7.57744 93.0439 6.69634 93.0439ZM57.9762 56.7427C58.8573 58.3287 59.5622 60.0909 60.4433 61.6768C60.0909 61.6768 59.5622 61.853 59.2098 62.0293C58.6811 62.2055 57.9762 62.5579 57.4476 62.7341C56.214 63.2628 54.9805 63.7915 53.9232 64.1439C52.6896 64.6726 51.6323 65.025 50.3988 65.5537C49.8701 65.7299 49.1652 66.0823 48.6366 66.2585C48.4604 66.2585 48.4604 66.2585 48.2841 66.4348C48.2841 66.2585 48.2841 66.2585 48.2841 66.0823C48.4604 65.9061 48.4604 65.9061 48.4604 65.7299C48.4604 65.3774 48.4604 64.8488 48.4604 64.3201C48.4604 63.9677 48.2841 63.439 48.2841 63.0866C48.1079 62.2055 47.7555 61.5006 47.2268 60.6195C46.6982 59.9146 46.1695 59.2098 45.6409 58.6811C44.936 58.1524 44.2311 57.6238 43.5262 57.4476C43.35 57.4476 43.35 57.4476 43.35 57.4476C43.1738 57.4476 43.1738 57.4476 42.9976 57.6238C41.764 61.6768 40.7067 65.7299 39.8256 69.7829C39.6494 69.7829 39.4732 69.9591 39.297 69.9591C38.5921 70.3116 37.8872 70.4878 37.1823 70.664C36.6537 70.8402 36.125 71.0165 35.5963 71.1927C35.5963 70.8402 35.2439 70.3116 34.8915 70.3116C34.1866 70.1354 33.3055 70.1354 32.4244 70.3116C32.0719 70.1354 31.7195 69.9591 31.3671 70.1354C30.1335 70.4878 29.2524 70.4878 28.1951 70.664C27.6665 70.664 26.9616 70.664 26.4329 70.4878C25.1994 70.3116 23.7896 70.3116 22.5561 70.3116C22.0274 70.3116 21.1463 70.3116 20.4415 70.4878C21.4988 66.9634 22.0274 63.2628 24.6707 60.4433C25.9043 59.0335 27.6665 58.3287 29.4287 58.3287C31.5433 58.3287 33.6579 59.0335 35.7726 58.8573H35.9488C36.3012 59.0335 36.6537 59.0335 36.8299 58.5049C37.1823 57.8 37.1823 57.0951 37.3585 56.3902C37.5348 55.6854 37.5348 54.8043 37.711 54.0994C37.8872 52.6896 38.2396 51.2799 38.4159 49.6939C38.7683 49.3415 38.4159 48.6366 38.0634 48.4604C37.0061 48.1079 35.9488 48.1079 34.8915 48.1079C33.8341 48.1079 32.6006 48.1079 31.5433 48.1079C29.2524 48.1079 26.9616 48.2841 24.6707 48.8128C23.6134 48.989 22.7323 49.3415 21.675 49.8701C22.5561 48.989 23.6134 48.1079 24.4945 47.2268C25.9043 45.9933 27.314 45.1122 29.0762 44.4073C29.7811 44.0549 30.6622 43.8787 31.3671 43.7024C32.2482 43.5262 33.1293 43.5262 33.8341 43.1738C38.9445 43.1738 43.8787 44.5835 48.2841 47.2268C52.3372 49.5177 55.5092 52.8659 57.9762 56.7427ZM51.2799 122.296C50.575 122.12 49.6939 121.944 48.989 121.768C50.3988 121.591 51.8085 121.415 53.2183 121.239C55.3329 120.887 57.6238 120.534 59.5622 119.829C60.2671 119.477 61.1482 119.124 61.853 118.772C61.6768 118.948 61.5006 119.124 61.3244 119.124C58.3287 121.063 54.9805 121.944 51.2799 122.296ZM3.87683 87.2287C3.87683 87.0524 3.87683 87.0524 3.87683 86.8762C4.05305 86.5238 4.40549 86.1713 4.75793 85.9951C5.28659 85.4665 5.99146 85.2902 6.69634 84.9378C6.69634 85.9951 6.52012 87.0524 7.04878 87.9335V88.1097C6.69634 88.1097 6.52012 88.1098 6.16768 87.9335C5.4628 87.7573 4.58171 87.7573 3.87683 87.2287ZM7.92988 87.5811C7.92988 87.7573 7.92988 87.7573 7.92988 87.9335H7.75366C7.75366 87.9335 7.92988 87.7573 7.92988 87.5811ZM20.6177 51.4561C21.3226 51.1037 22.0274 50.575 22.7323 50.3988C23.0848 50.2226 23.4372 50.2226 23.6134 50.2226C22.7323 50.575 21.675 50.9274 20.6177 51.4561ZM37.3585 50.3988C37.3585 50.2226 37.3585 50.0463 37.1823 50.0463H37.3585C37.3585 50.2226 37.3585 50.2226 37.3585 50.3988ZM38.9445 72.7787C38.7683 72.7787 38.7683 72.9549 38.5921 72.9549C37.8872 73.3073 37.0061 73.6598 36.3012 74.0122C35.5963 74.3646 34.8915 74.7171 34.1866 75.0695C34.539 74.1884 34.7152 73.1311 35.0677 72.25C35.9488 72.0738 36.6537 71.8976 37.5348 71.7213C38.2396 71.5451 38.7683 71.1927 39.4732 71.0165C39.297 71.5451 39.1207 72.25 38.9445 72.7787ZM45.4646 60.7957C45.4646 60.6195 45.4646 60.4433 45.2884 60.2671C45.4646 60.4433 45.6409 60.6195 45.6409 60.7957H45.4646ZM54.628 80.5323C54.8043 80.5323 54.8043 80.5323 54.9805 80.5323C55.3329 80.5323 55.8616 80.3561 56.0378 80.1799V80.3561C55.1567 80.7085 54.2756 81.061 53.3945 81.4134C53.747 81.061 54.2756 80.8848 54.628 80.5323ZM46.3457 105.379C46.1695 105.379 46.1695 105.379 46.3457 105.379V105.379ZM39.1207 104.851C39.1207 105.027 39.1207 105.203 39.1207 105.379C38.9445 105.203 38.9445 105.203 38.7683 105.027C38.9445 105.027 38.9445 105.027 39.1207 104.851ZM53.2183 78.0652C53.3945 78.0652 53.3945 78.0652 53.2183 78.0652V78.0652ZM52.3372 78.5939C52.161 78.4177 52.161 78.4177 52.3372 78.5939C52.3372 78.4177 52.3372 78.4177 52.3372 78.4177C52.6896 78.2415 53.0421 77.889 53.2183 77.7128C53.2183 77.889 53.2183 77.889 53.2183 78.0652C52.8659 78.2415 52.5134 78.4177 52.3372 78.5939ZM41.9402 93.925C41.9402 93.7488 41.9402 93.5726 41.9402 93.3963C41.9402 93.2201 42.1165 92.8677 42.1165 92.6915C42.1165 92.8677 42.2927 93.0439 42.2927 93.3963C42.2927 93.925 42.4689 94.6299 42.4689 95.1585C42.2927 94.6299 42.1165 94.2774 41.9402 93.925ZM51.6323 102.912C51.6323 102.912 51.4561 103.088 51.2799 103.088V102.912C51.1037 101.855 50.9274 100.974 50.7512 99.9165C50.9274 100.445 51.1037 100.974 51.1037 101.502C51.4561 101.855 51.8085 102.736 51.6323 102.912ZM57.4476 88.9908C57.4476 89.1671 57.4476 89.3433 57.4476 89.5195C57.2713 90.0482 57.0951 90.5768 56.9189 91.1055C56.9189 90.9293 57.0951 90.5768 57.0951 90.4006C57.2713 89.8719 57.2713 89.3433 57.4476 88.9908ZM58.5049 87.2287C58.1524 87.4049 57.8 87.7573 57.6238 88.1097C57.6238 87.7573 57.8 87.5811 57.8 87.2287C57.9762 87.0524 58.1524 87.0524 58.5049 87.2287C58.5049 87.0524 58.5049 87.0524 58.5049 87.2287ZM59.7384 90.753H59.9146C59.9146 90.9293 59.9146 90.9293 59.7384 90.753C59.7384 90.9293 59.7384 90.9293 59.7384 90.753ZM57.8 99.2116C57.8 99.0354 57.8 99.0354 57.8 99.0354C57.8 99.2116 57.8 99.2116 57.8 99.2116ZM61.1482 100.621C61.1482 100.798 61.1482 100.974 61.1482 101.15C61.1482 100.974 60.972 100.798 60.7957 100.621C60.972 100.621 61.1482 100.621 61.1482 100.621ZM54.9805 109.609C54.8043 110.137 54.4518 110.842 54.2756 111.547C54.4518 111.018 54.628 110.49 54.8043 109.961C55.1567 108.551 55.6854 106.965 56.0378 105.555L56.214 105.732C55.6854 106.965 55.3329 108.375 54.9805 109.609ZM58.6811 114.719C58.5049 114.543 58.3287 114.366 58.1524 114.19C58.3287 114.19 58.6811 114.19 58.8573 114.19C58.8573 114.19 58.8573 114.543 58.6811 114.719ZM54.4518 115.6C54.2756 115.424 54.0994 115.424 54.4518 115.6V115.6ZM60.9719 105.732C60.7957 105.732 60.7957 105.732 60.9719 105.732C60.6195 105.732 60.2671 105.732 60.0909 105.732C60.0909 105.732 60.0909 105.555 60.2671 105.555H60.4433C60.6195 105.555 60.7957 105.379 61.1482 105.203C60.972 105.379 60.9719 105.555 60.9719 105.732ZM53.2183 102.207C53.2183 102.031 53.2183 102.031 53.0421 101.855L53.2183 102.031V102.207ZM54.4518 72.4262H54.2756C54.2756 72.4262 54.2756 72.4262 54.4518 72.4262ZM8.9872 93.3963C8.9872 93.2201 8.9872 93.2201 8.9872 93.0439C8.9872 93.2201 8.9872 93.3963 8.9872 93.3963ZM13.9213 61.853C13.7451 63.0866 13.5689 64.1439 13.3927 65.2012C12.864 69.078 12.3354 72.9549 11.9829 76.8317C11.278 83.7043 11.4543 90.753 12.1591 97.6256C12.1591 97.6256 12.1591 97.6256 11.9829 97.6256C10.5732 91.2817 10.0445 84.5854 10.397 78.2415C10.5732 74.1884 11.4543 70.1354 12.5116 66.0823C13.0402 64.8488 13.3927 63.2628 13.9213 61.853ZM19.9128 78.9463C20.7939 78.9463 21.4988 78.9463 22.2037 78.9463C21.4988 79.1226 20.9701 79.475 20.4415 79.8274C20.2652 80.0037 20.089 80.1799 19.7366 80.1799C19.7366 79.8274 19.7366 79.2988 19.9128 78.9463ZM9.86829 91.1055C10.2207 93.5726 10.7494 95.8634 11.4543 98.1543V98.3305C11.4543 99.3878 11.9829 100.445 12.6878 101.502C12.864 101.855 13.0402 102.384 13.2165 102.736C12.6878 102.207 12.3354 101.679 11.9829 101.15C11.9829 100.974 11.8067 100.798 11.8067 100.621C11.278 99.2116 10.9256 97.978 10.5732 96.5683C10.397 95.8634 10.2207 95.1585 10.2207 94.4537C10.0445 93.925 10.0445 93.2201 9.69207 92.6915L9.51585 92.5152C9.69207 92.1628 9.86829 91.6341 9.86829 91.1055ZM63.439 68.0207C64.6726 70.8402 65.7299 73.4835 66.9634 76.303C67.8445 78.4177 68.5494 80.8847 69.6067 82.9994C70.1354 85.6427 70.664 88.286 70.8402 91.1055C70.8402 91.2817 70.8402 91.2817 70.8402 91.4579C71.3689 97.2732 71.3689 103.088 69.9591 108.727C68.9018 111.371 67.4921 113.838 65.5537 115.952C63.7915 116.834 61.853 117.715 60.0909 118.596C57.9762 119.477 55.8616 120.005 53.5707 120.182C51.2799 120.534 48.989 120.887 46.6982 120.887C45.9933 120.887 45.1122 120.887 44.4073 120.887C42.9976 120.534 41.4116 120.358 40.0018 119.829C36.125 118.772 32.2482 117.186 28.5476 115.6C28.5476 115.6 28.3713 115.6 28.5476 115.776C32.2482 117.715 35.9488 119.301 39.8256 120.71H40.0018C40.8829 121.239 41.764 121.591 42.8213 121.591C42.9976 121.591 42.9976 121.591 43.1738 121.768C39.8256 121.239 36.4774 120.358 33.1293 119.477C29.6049 118.596 26.7854 117.01 24.1421 114.543C21.3226 111.899 18.503 109.08 15.8598 106.26C14.9787 105.379 14.0976 104.322 13.3927 103.265C13.2165 102.912 13.2165 102.56 13.0402 102.207C13.7451 103.088 14.45 103.793 15.1549 104.322C15.5073 104.851 15.8598 105.203 16.2122 105.732C16.7409 106.437 17.4457 107.318 18.1506 107.846C18.3268 108.023 18.6793 107.846 18.503 107.67C18.1506 106.789 17.622 106.084 17.0933 105.379C17.0933 105.203 16.9171 105.203 16.9171 105.027C17.0933 104.851 17.2695 104.851 17.2695 104.498C17.4457 100.093 17.7982 95.8634 18.3268 91.4579C18.6793 88.1098 19.2079 84.7616 19.7366 81.4134C20.089 81.2372 20.6177 80.8848 20.9701 80.7085C22.0274 80.1799 23.261 79.6512 24.3183 78.9463C26.6091 78.9463 28.7238 79.2988 30.8384 80.0037C31.5433 80.1799 32.2482 80.5323 32.6006 79.8274C33.1293 79.1226 33.3055 78.0652 33.4817 77.3604C33.6579 76.8317 33.8341 76.4793 34.0104 75.9506C34.1866 75.9506 34.3628 75.9506 34.539 75.7744C35.4201 75.5982 36.125 75.2457 37.0061 74.8933C37.711 74.5408 38.4159 74.3646 38.9445 74.0122C38.2396 77.5366 37.711 81.061 37.0061 84.4091C36.3012 88.9909 35.4201 93.5726 35.0677 98.1543C34.7152 102.031 36.8299 104.674 39.297 107.494C39.6494 108.023 40.5305 108.023 40.7067 107.141C41.0591 104.674 41.2354 102.384 41.5878 99.9165C41.764 98.8591 41.9402 97.8018 42.1165 96.7445C42.4689 97.8018 42.8213 98.8591 43.1738 99.9165C43.5262 100.974 43.8787 102.031 44.2311 102.912C44.5835 103.97 44.7598 105.027 45.1122 106.084C45.2884 106.613 46.1695 106.789 46.5219 106.437C46.6982 106.789 47.0506 106.965 47.403 106.965C48.4604 106.965 49.5177 106.26 50.3988 105.908C50.7512 105.732 51.1037 105.555 51.6323 105.379C50.9274 106.965 50.2226 108.727 49.6939 110.49C49.3415 111.547 49.1652 112.604 48.8128 113.662C48.4604 114.719 48.1079 115.952 48.2841 117.01C48.2841 117.715 49.1652 117.715 49.5177 117.186C49.6939 116.834 49.6939 116.657 49.8701 116.305C49.8701 116.657 50.2226 117.186 50.3988 117.538C49.6939 117.538 48.989 117.715 48.2841 117.715C47.5793 117.715 47.7555 118.772 48.2841 118.772C51.9848 119.124 55.6854 119.124 59.386 118.948C59.7384 118.948 60.0909 118.772 60.0909 118.42C60.2671 117.715 60.4433 117.01 60.6195 116.305C60.7957 115.6 61.1482 114.895 60.7957 114.19C60.6195 114.014 60.4433 113.838 60.2671 113.662C60.2671 113.485 60.2671 113.309 60.0909 113.133C59.5622 112.604 58.8573 112.604 58.1524 112.428C57.8 112.428 56.9189 112.428 56.3902 112.252C56.5665 111.899 56.7427 111.371 56.7427 111.018C56.9189 110.49 57.0951 109.961 57.0951 109.609C57.2713 108.727 57.6238 107.846 57.8 106.965C58.8573 107.141 60.0909 107.318 61.1482 107.494C62.0293 107.67 62.7341 107.318 62.9104 106.437C63.2628 105.203 63.0866 103.793 63.0866 102.384C63.0866 101.502 63.439 99.9165 62.7341 99.2116C62.0293 98.5067 60.7957 98.8591 59.9146 98.5067C59.9146 98.5067 59.9146 98.5067 59.7384 98.5067C59.9146 98.3305 59.9146 97.8018 59.9146 97.6256C60.0909 96.9207 60.0909 96.2159 60.2671 95.511C60.4433 94.8061 60.4433 94.1012 60.6195 93.3963C60.7957 93.0439 60.7957 92.6915 61.1482 92.5152C61.3244 92.339 62.0293 92.5152 62.3817 92.5152C63.7915 92.5152 65.2012 92.5152 66.611 92.339C67.1396 92.339 67.3159 91.8104 67.3159 91.4579C67.4921 91.6341 67.4921 91.6341 67.6683 91.8104C68.0207 91.9866 68.3732 91.8104 68.5494 91.4579C68.7256 91.2817 68.7256 90.9293 68.7256 90.753C68.7256 90.5768 68.9018 90.4006 68.9018 90.0482C68.9018 89.6957 69.078 89.1671 69.078 88.8146C69.078 88.4622 69.2543 87.9335 69.2543 87.5811C69.2543 87.2287 69.2543 86.7 69.2543 86.3476C69.2543 86.1713 69.078 85.9951 69.078 85.9951C69.2543 85.8189 69.078 85.4665 68.9018 85.2902C67.8445 84.9378 66.7872 84.9378 65.7299 85.114C64.6726 85.114 63.6152 85.114 62.5579 85.2902C61.5006 85.2902 60.4433 85.4665 59.386 85.4665C58.6811 85.4665 57.2713 85.2902 56.7427 86.1713C56.5665 86.5238 56.5665 86.8762 56.9189 87.2287C56.5665 88.286 56.0378 89.1671 55.8616 90.2244C55.5091 91.4579 55.1567 92.6915 54.8043 93.925C54.4518 95.1585 54.0994 96.3921 53.747 97.6256C53.3945 98.8591 53.0421 99.9165 52.8659 101.15C52.6896 100.445 52.5134 99.7402 52.161 99.0354C51.4561 96.7445 50.7512 94.6299 50.0463 92.339C49.6939 91.2817 49.3415 90.0482 48.8128 88.9908C48.4604 88.1098 48.1079 87.2287 47.7555 86.5238C47.9317 86.5238 47.9317 86.5238 48.1079 86.5238C49.6939 85.8189 51.1037 84.9378 52.6896 84.0567C54.2756 83.3518 55.6854 82.6469 57.2713 81.9421C57.4476 81.7659 57.6238 81.5896 57.6238 81.4134C57.6238 79.6512 57.4476 78.0652 57.0951 76.303C56.9189 75.4219 56.5665 74.7171 56.3902 73.836C56.214 73.4835 56.0378 72.7787 55.6854 72.4262C55.8616 71.7213 55.3329 71.0165 54.628 71.0165C53.9232 71.0165 53.5707 71.3689 53.0421 71.7213C51.8085 72.6024 50.575 73.4835 49.5177 74.3646C48.989 74.8933 48.2841 75.4219 47.7555 75.9506C47.2268 76.303 46.6982 76.6555 46.3457 77.0079C46.3457 76.8317 46.3457 76.6555 46.5219 76.4793C46.8744 75.2457 47.0506 74.0122 47.403 72.7787C47.5793 72.0738 47.7555 71.5451 47.7555 70.8402C48.4604 70.4878 48.989 70.1354 49.5177 69.6067C50.2226 69.078 50.9274 68.7256 51.6323 68.3732C53.0421 67.6683 54.4518 66.9634 56.0378 66.2585C56.7427 65.9061 57.4476 65.7299 58.1524 65.3774C58.8573 65.025 59.7384 65.025 60.4433 64.6726C60.7957 64.4963 60.6195 64.1439 60.2671 64.1439C59.5622 64.1439 58.6811 64.3201 57.9762 64.4963C57.0951 64.6726 56.214 65.025 55.5091 65.2012C53.9232 65.7299 52.5134 66.4348 51.1037 67.3159C50.0463 68.0207 48.989 68.9018 47.7555 69.6067C47.9317 68.7256 48.1079 68.0207 48.2841 67.1396C48.6366 66.9634 48.8128 66.9634 48.989 66.7872C50.3988 66.2585 51.8085 65.7299 53.0421 65.2012C54.4518 64.6726 55.6854 64.1439 57.0951 63.6152C57.8 63.439 58.5049 63.0866 59.2098 62.9104C59.7384 62.7341 60.4433 62.5579 60.7957 62.2055C61.6768 64.1439 62.5579 66.0823 63.439 68.0207ZM43.35 58.3287C43.7024 58.6811 44.0549 59.0335 44.2311 59.2097C43.8787 59.2097 43.7024 59.2098 43.35 59.5622C43.1738 59.7384 42.9976 60.0908 42.8213 60.4433C43.1738 59.5622 43.1738 59.0335 43.35 58.3287ZM11.8067 62.2055C12.864 59.386 14.2738 56.7427 15.6835 54.0994C16.036 53.5707 16.3884 53.0421 16.9171 52.5134C18.6793 50.2226 20.4415 47.9317 22.7323 46.1695C24.3183 44.936 26.0805 44.0549 28.0189 43.7024C26.4329 44.4073 25.0232 45.4646 23.6134 46.6982C21.4988 48.4604 19.5604 50.3988 17.7982 52.6896C17.2695 53.2183 16.7409 53.7469 16.3884 54.4518C16.3884 54.4518 16.3884 54.4518 16.2122 54.4518C16.036 54.4518 15.8598 54.628 15.8598 54.628C15.8598 54.8043 15.8598 54.9805 15.6835 55.3329C14.8024 56.3902 14.0976 57.4476 13.9213 58.6811C13.7451 59.2098 13.5689 59.5622 13.3927 60.0908C12.5116 62.2055 11.9829 64.3201 11.4543 66.4348C10.397 70.4878 9.86829 74.7171 9.69207 78.9463C9.51585 82.4707 9.51585 86.1713 9.86829 89.8719C9.69207 89.6957 9.69207 89.3433 9.51585 89.1671C9.33963 88.9908 9.33963 88.8146 9.16341 88.6384C9.33963 88.4622 9.51585 88.286 9.51585 87.9335C9.33963 85.8189 8.9872 83.528 8.9872 81.4134C9.51585 77.5366 9.69207 73.4835 10.2207 69.6067C10.397 67.8445 10.7494 66.2585 11.1018 64.6726C11.278 63.7915 11.6305 62.9104 11.8067 62.2055ZM4.75793 83.3518C5.4628 83.1756 6.16768 82.9994 6.87256 82.6469C6.87256 82.9994 6.87256 83.3518 6.87256 83.7043C6.3439 83.8805 5.81524 84.2329 5.28659 84.4091C4.75793 84.7616 4.22927 85.114 3.87683 85.6427C3.70061 85.8189 3.34817 86.1713 3.17195 86.5238L2.99573 86.3476C2.81951 85.9951 2.81951 85.4665 2.99573 85.114C3.17195 84.2329 4.05305 83.7043 4.75793 83.3518ZM218.336 152.43C217.279 153.663 216.75 155.073 215.869 156.483C214.812 157.893 213.754 158.95 212.345 160.184C212.521 159.831 212.873 159.655 213.049 159.302C213.93 158.245 214.988 156.835 215.34 155.426C215.34 155.073 214.812 154.721 214.635 154.897C214.107 155.249 213.754 155.954 213.226 156.307C212.873 156.835 212.345 157.364 211.992 157.893C211.111 158.95 210.054 160.007 208.996 160.888C207.939 161.77 206.353 161.946 204.943 162.122H204.767C205.119 161.946 205.648 161.769 206.001 161.593C208.115 160.536 209.877 159.126 211.287 157.188C211.992 156.13 212.345 155.249 212.873 154.016C213.226 152.959 213.93 151.725 213.93 150.668C213.93 150.315 213.402 150.139 213.402 150.491C213.049 151.549 213.049 152.43 212.697 153.487C212.168 154.545 211.463 155.602 210.759 156.483C209.349 158.421 207.587 159.831 205.296 160.888C203.181 161.77 200.538 162.298 198.247 162.122C196.837 161.946 195.604 161.77 194.37 161.417C193.313 161.241 192.432 160.712 191.374 160.536C192.255 159.479 192.255 157.54 192.255 156.307C192.432 154.016 192.608 151.549 192.432 149.258C192.255 144.676 191.374 140.095 190.493 135.689C188.731 127.407 186.44 119.301 183.268 111.371C180.273 103.97 176.396 96.7445 171.109 90.753C167.937 87.2287 164.413 84.0567 160.536 81.061C159.126 79.6512 157.716 78.2415 156.13 76.8317C162.298 80.0037 167.409 84.5854 172.166 89.5195C172.519 89.8719 173.048 89.5195 172.695 89.1671C167.409 83.528 161.241 77.889 154.192 74.8933C153.487 74.5408 152.959 74.3646 152.254 74.1884C149.61 72.7787 146.791 71.7213 143.795 71.1927C139.39 70.3116 134.279 69.4305 129.698 70.3116C127.407 70.664 124.94 71.5451 122.649 72.6024C114.543 75.7744 108.199 82.2945 103.97 89.6957C101.15 94.6299 99.0354 100.269 98.6829 105.908C98.5067 108.904 98.6829 112.076 99.0354 115.071C99.0354 115.248 99.0354 115.424 99.0354 115.6C97.9781 115.424 96.7445 115.6 95.6872 115.424C94.2774 115.424 92.6915 115.248 91.2817 115.248C88.6384 115.071 85.8189 114.719 83.8805 112.957C81.9421 111.195 81.061 108.727 79.2988 106.965C77.889 105.555 75.7744 104.498 73.836 105.027C73.836 104.851 73.4835 104.674 73.3073 104.851C72.9549 105.027 72.6024 105.379 72.4262 105.732V105.555C72.6024 104.498 72.7787 103.441 72.7787 102.384C73.1311 98.8591 72.9549 95.1585 72.4262 91.8104C71.8976 86.5238 70.8402 81.2372 69.2543 76.303C67.4921 70.8402 64.8488 65.5537 62.0293 60.6195C62.0293 60.4433 62.0293 60.4433 62.0293 60.2671C60.972 57.4476 59.386 54.8043 57.4476 52.5134C57.4476 52.3372 57.2713 52.161 57.2713 51.9848C57.2713 51.8085 57.0951 51.8085 56.9189 51.8085C51.9848 46.1695 44.936 42.2927 37.5348 41.4116C39.8256 41.4116 42.1165 41.764 44.4073 42.4689C46.6982 43.1738 48.989 44.0549 51.1037 45.1122C52.161 45.6409 53.3945 46.5219 54.2756 47.2268C55.1567 47.9317 56.0378 48.989 57.0951 49.6939C57.2713 49.6939 57.4476 49.6939 57.2713 49.5177C56.0378 47.5793 53.5707 46.1695 51.6323 45.1122C49.5177 43.7024 47.2268 42.8213 44.7598 42.1165C42.4689 41.4116 40.0018 41.0591 37.5348 41.0591C36.125 41.0591 34.539 41.0591 33.1293 41.2354C30.486 41.2354 28.0189 41.5878 25.5518 42.4689C22.9085 43.5262 20.7939 45.2884 18.8555 47.5793C16.036 50.7512 13.7451 54.0994 11.9829 57.8C11.8067 57.8 11.8067 57.8 11.6305 57.9762C10.2207 59.9146 9.51585 62.7341 8.9872 65.025C8.28232 67.4921 7.92988 70.1354 7.57744 72.7787C7.225 75.4219 7.04878 78.0652 6.87256 80.7085C6.87256 80.8848 6.87256 81.2372 6.87256 81.4134C6.87256 81.4134 6.87256 81.4134 6.69634 81.4134C6.16768 81.2372 5.4628 81.5896 5.11037 81.7659C4.58171 81.9421 4.05305 82.2945 3.52439 82.4707C2.46707 82.8232 1.58598 83.528 0.881098 84.5854C0.352439 85.6427 0 86.7 0 87.7573C0 88.8146 0 90.2244 0.352439 91.2817C0.352439 91.4579 0.528659 91.4579 0.528659 91.4579C0.704878 91.6341 0.881098 91.6341 1.05732 91.8104C1.40976 91.9866 1.58598 92.1628 1.93841 92.5152C2.46707 92.8677 3.17195 93.2201 3.70061 93.5726C4.93415 94.1012 6.52012 94.8061 7.75366 94.2774C7.75366 94.2774 7.75366 94.2774 7.75366 94.4537C8.1061 99.2116 10.5732 104.146 13.3927 107.846C14.8024 109.785 16.3884 111.547 18.1506 113.133C18.3268 113.133 18.3268 113.309 18.503 113.309C19.5604 114.543 20.7939 115.6 22.0274 116.657C23.9659 118.243 26.4329 120.182 28.9 120.534C32.7768 122.473 37.0061 123.53 41.2354 124.235C45.9933 124.94 51.4561 125.292 56.3902 123.882C57.0951 123.882 57.8 123.882 58.6811 123.706C59.5622 123.53 60.4433 123.177 61.3244 122.825C63.0866 121.944 64.8488 120.71 66.4348 119.653C67.8445 118.596 69.4305 117.362 70.664 115.952C71.1927 115.248 71.7213 114.366 72.25 113.662C72.7787 112.957 73.3073 112.076 73.6598 111.371C73.836 111.195 73.3073 110.842 73.1311 111.018C72.7787 111.723 72.4262 112.604 71.8976 113.309C71.3689 114.014 70.664 114.719 69.9591 115.248C68.5494 116.481 67.3159 117.715 65.9061 118.772C65.7299 118.772 65.7299 118.948 65.5537 118.948C68.197 116.657 70.3116 114.014 71.1927 110.842C71.5451 109.609 71.8976 108.375 72.0738 107.141C72.0738 107.318 72.0738 107.67 72.25 107.846C72.4262 109.256 73.4835 110.666 74.5409 111.547C75.5982 112.428 77.0079 113.133 78.0652 114.014C79.1226 114.895 80.1799 115.952 81.2372 116.834C83.3518 118.596 85.6427 119.829 88.286 120.182C89.6957 120.358 91.2817 120.358 92.6915 120.534C94.2774 120.71 95.8634 121.063 97.4494 121.415C97.6256 121.415 97.8018 121.415 97.978 121.415C98.1543 121.415 98.1543 121.415 98.3305 121.591C98.5067 121.591 98.8592 121.768 99.0354 121.768C100.093 130.226 103.97 138.685 108.904 145.381C114.543 153.135 122.296 159.655 131.107 163.532C137.627 167.056 144.852 169.171 152.43 170.757C159.479 172.343 166.88 173.752 174.105 173.929C179.92 174.105 186.44 172.343 189.612 166.88V166.704C189.788 166.704 189.788 166.88 189.965 166.88C191.374 167.761 193.137 167.937 194.723 168.113C196.837 168.29 199.128 168.29 201.243 167.937C205.12 167.232 208.996 164.941 211.816 162.298C213.226 161.065 214.459 159.479 215.516 157.893C216.574 156.483 217.984 154.721 218.336 152.959C218.688 152.254 218.512 152.254 218.336 152.43Z" fill="black"/>
<path d="M268.91 40.5305C268.557 42.2927 268.381 44.0549 268.205 45.8171C268.205 44.7598 268.205 43.5262 268.205 42.4689C268.381 39.4732 268.557 36.3012 269.086 33.3055C269.615 30.8384 270.143 28.3713 271.553 26.2567C271.377 28.1951 270.848 29.9573 270.496 31.7195C269.791 34.7152 269.262 37.711 268.91 40.5305ZM256.927 93.7488C256.927 93.7488 257.103 93.7488 256.927 93.7488C257.103 93.7488 257.103 93.7488 256.927 93.7488C257.103 93.7488 257.103 93.7488 256.927 93.7488C257.103 93.7488 257.103 93.7488 256.927 93.7488C257.103 93.7488 257.103 93.7488 257.103 93.7488H257.279C257.279 93.7488 257.279 93.7488 257.455 93.7488C256.574 95.1585 255.517 96.5683 254.636 97.978C255.517 96.7445 256.398 95.1585 256.927 93.7488ZM260.98 83.1756C261.332 83.528 261.861 83.7043 262.39 83.528C262.213 83.8805 262.213 84.2329 262.037 84.5854C261.156 87.4049 259.922 89.8719 258.865 92.6915C258.689 92.5152 258.337 92.339 258.16 92.339C257.808 92.1628 257.455 91.9866 257.103 91.9866H256.927C258.689 89.3433 259.923 86.3476 260.98 83.1756ZM266.266 58.1524C266.266 61.3244 266.09 64.4963 265.738 67.8445C265.914 62.7341 265.738 57.4476 265.738 52.3372C265.738 50.0463 265.914 47.5793 266.09 45.2884C266.09 49.5177 266.266 53.7469 266.266 58.1524ZM259.394 93.3963C259.57 93.2201 259.57 93.0439 259.746 92.8677C259.57 93.0439 259.57 93.3963 259.394 93.5725C259.57 93.5725 259.394 93.3963 259.394 93.3963ZM271.729 23.261C271.905 23.261 271.905 23.261 271.729 23.261C271.729 23.4372 271.729 23.6134 271.729 23.6134C271.377 23.4372 270.848 23.4372 270.672 23.7896C268.91 25.728 268.029 28.1951 267.324 30.8384C267.5 29.9573 267.676 29.2524 267.852 28.3713C268.381 26.2567 269.438 24.3183 270.496 22.3799C270.496 22.2037 270.672 22.2037 270.672 22.0274C271.024 22.3799 271.553 22.7323 271.729 23.261ZM213.929 147.672C213.753 148.024 213.753 148.201 213.577 148.553C213.401 148.553 213.224 148.377 213.048 148.377C213.224 148.201 213.401 148.201 213.577 148.024C213.577 147.848 213.753 147.672 213.929 147.672ZM273.315 22.7323C271.729 19.9128 267.676 19.0317 265.385 21.675C263.799 23.4372 263.799 26.2567 263.623 28.3713C263.271 31.5433 262.918 34.539 262.566 37.711C261.508 50.2226 262.742 62.7341 261.156 75.2457C260.451 81.2372 258.689 87.0524 256.046 92.5152C255.693 92.6915 255.517 92.8677 255.341 93.0439C255.165 93.3963 254.988 93.7488 254.988 94.1012C254.988 94.2774 254.988 94.4537 254.988 94.6299V94.8061V94.9823C254.988 95.1585 255.165 95.1585 255.165 95.3347C255.165 95.511 255.341 95.511 255.341 95.511C252.697 99.7402 250.054 103.97 246.882 107.846C243.005 112.428 238.776 116.834 234.723 121.239C230.67 125.468 226.617 129.874 222.916 134.455C220.273 137.627 217.454 141.152 215.339 145.029C215.163 145.205 215.163 145.381 214.987 145.557C214.634 146.086 214.105 146.615 213.577 147.143C213.401 147.319 213.048 147.672 212.872 147.848C212.696 148.201 212.343 148.377 212.167 148.729V148.905C209.876 149.258 208.995 151.901 207.938 153.663C206.528 155.954 204.59 159.302 201.946 160.007C200.184 160.536 198.598 160.184 197.012 159.831C197.541 158.774 197.188 157.54 197.012 156.483C196.836 155.426 196.483 154.368 196.131 153.311C195.779 152.43 195.25 151.725 194.369 151.549C194.193 151.549 194.016 151.549 194.016 151.549C194.193 149.082 193.84 146.438 193.488 144.148C193.135 141.152 192.783 138.332 192.43 135.337C191.726 130.05 190.844 124.763 188.906 119.829C186.968 114.719 184.677 109.785 182.386 105.027C180.095 100.269 177.628 95.511 174.104 91.6341C173.927 91.4579 173.575 91.6341 173.751 91.8104C179.214 100.621 184.148 110.137 187.672 119.829C189.435 124.763 190.316 130.226 191.021 135.513C191.373 138.156 191.726 140.799 191.902 143.619C192.078 146.438 191.902 149.61 192.607 152.254C192.607 152.43 192.43 152.606 192.607 152.782C192.607 153.135 193.135 153.311 193.488 153.135C193.664 152.959 193.84 152.782 194.016 152.782C194.193 152.782 194.369 152.782 194.545 152.782C195.074 153.135 195.25 154.016 195.426 154.544C195.602 155.426 195.955 156.307 195.955 157.188C196.131 158.069 195.955 158.95 196.131 159.655C194.898 159.302 193.84 158.774 192.783 158.421C192.078 158.245 191.902 159.126 192.43 159.479C194.369 160.888 197.188 161.417 199.655 161.417C202.123 161.417 204.061 160.888 205.823 159.126C207.585 157.188 208.995 155.073 210.229 152.782C210.581 152.077 211.11 151.196 211.815 150.668C212.696 150.139 213.224 150.315 214.105 150.668C215.515 151.196 216.925 150.139 217.982 151.373C218.335 151.725 219.216 151.549 218.863 150.844C218.335 149.963 217.63 149.434 216.573 149.258C215.868 149.258 215.339 149.434 214.634 149.434C216.22 146.967 217.454 144.5 219.04 142.033C220.626 139.742 222.388 137.451 224.15 135.16C228.027 130.402 232.08 125.997 236.133 121.768C240.186 117.362 244.239 112.957 247.94 108.375C248.997 107.141 249.878 105.908 250.935 104.498C248.997 107.318 247.235 110.137 245.296 112.957C245.12 112.78 244.944 112.604 244.768 112.78C244.063 113.662 243.358 114.543 242.653 115.424C241.948 116.305 241.243 117.186 240.538 118.243C239.833 119.124 239.129 120.005 238.424 120.887C238.071 121.415 237.719 121.768 237.19 122.296C236.838 122.649 236.309 123.177 236.133 123.706C235.78 124.235 236.662 124.94 237.19 124.587C237.719 124.235 238.071 123.706 238.424 123.354C238.424 123.177 238.6 123.177 238.6 123.001C238.424 123.177 238.248 123.354 238.071 123.706C234.899 128.464 231.727 133.222 228.555 137.98C225.383 142.738 221.683 147.319 219.216 152.43C219.216 152.606 219.392 152.782 219.568 152.606C223.269 148.377 226.265 143.266 229.437 138.685C232.608 133.927 235.957 128.993 239.305 124.235C245.649 115.071 251.64 105.908 257.808 96.7445C257.984 96.9207 258.16 96.9207 258.513 96.9207C258.689 96.9207 258.865 96.9207 259.041 96.7445C259.394 96.5683 259.57 96.3921 259.746 96.2158H259.923C260.099 96.2158 260.099 96.2158 260.275 96.2158C261.332 94.9823 262.037 93.3963 262.742 91.9866C263.094 91.2817 263.447 90.5768 263.799 89.6957C263.976 89.3433 264.152 88.8146 264.328 88.4622C264.504 88.1097 264.68 87.5811 264.504 87.2287V87.0524C265.562 84.5854 266.443 82.1183 266.971 79.475C268.205 73.836 268.557 68.0207 269.086 62.2055C269.615 55.6854 269.967 49.1652 270.848 42.6451C271.201 39.297 271.729 35.9488 272.434 32.6006C272.963 29.9573 273.491 27.314 273.315 24.6707C273.315 23.6134 273.668 23.261 273.315 22.7323Z" fill="black"/>
<path d="M66.0807 60.0909C71.0148 58.6811 75.949 56.9189 80.7069 55.1567C85.2886 53.3945 89.8703 51.6323 94.452 49.6939C94.452 49.8701 94.6283 49.8701 94.8045 49.8701C94.9807 49.8701 95.1569 50.0463 95.3331 50.3988C90.7514 50.7512 86.1697 53.5707 82.1167 55.3329C77.0063 57.6238 71.8959 59.2098 66.6094 60.9719C66.4331 60.7957 66.2569 60.4433 66.0807 60.0909ZM138.683 17.4457C140.445 14.8024 142.384 12.1591 144.146 9.51585C145.908 7.04878 147.67 4.75793 149.433 2.29085C149.609 2.29085 149.785 2.46707 149.961 2.29085C150.49 2.11463 151.018 1.93842 151.547 1.7622L151.371 1.93842C151.019 1.93842 150.666 1.93842 150.49 2.46707C146.437 10.2207 140.974 16.9171 134.63 23.0848C136.04 21.1463 137.45 19.3841 138.683 17.4457ZM154.367 8.45854C154.895 7.40122 155.6 6.16768 155.953 5.11037C155.953 5.28659 155.953 5.46281 155.776 5.63903C155.6 6.69634 155.072 7.57744 154.367 8.45854ZM97.4478 50.7512C97.4478 50.575 97.2715 50.3988 97.2715 50.3988C97.2715 50.2226 97.2715 49.8701 97.0953 49.6939C97.0953 49.5177 96.9191 49.3415 96.7429 49.1652C96.7429 49.1652 96.7429 49.1652 96.9191 49.1652C96.9191 49.1652 96.9191 49.1652 96.9191 49.3415C97.4478 50.0463 98.1526 50.3988 99.0337 50.3988C99.0337 50.3988 98.8575 50.3988 98.8575 50.575C98.1526 50.575 97.8002 50.7512 97.4478 50.7512ZM152.252 3.52439C152.428 3.34817 152.604 3.34817 152.781 3.17195C149.961 8.1061 147.142 12.864 143.441 17.2695C141.326 19.7366 139.036 22.0274 136.568 23.9659C142.736 17.7982 148.199 10.9256 152.252 3.52439ZM58.5033 50.575L58.6795 50.7512C58.6795 50.7512 58.6795 50.7512 58.8557 50.7512C60.2655 52.5134 61.499 54.4518 62.9087 56.214C64.3185 58.3287 65.9045 60.2671 66.9618 62.5579C68.0191 64.6726 68.9002 66.7872 69.6051 69.078C70.4862 71.3689 71.0148 73.6598 71.7197 75.9506C71.8959 76.4793 72.777 76.303 72.6008 75.7744C72.2484 73.4835 71.3673 71.0165 70.4862 68.9018C69.6051 66.611 68.3715 64.3201 67.3142 62.2055C67.138 61.853 66.9618 61.5006 66.7856 61.1482C71.8959 60.0909 77.0063 58.1524 81.9405 56.214C84.4075 55.1567 86.6984 54.0994 88.9892 53.2183C91.2801 52.3372 93.5709 51.8085 95.8618 51.2799C96.038 51.4561 96.2142 51.6323 96.2142 51.6323C97.0953 51.9848 98.3289 51.2799 99.21 50.9274C102.382 49.8701 105.378 48.6366 108.55 47.403C114.541 44.7598 120.356 41.4116 125.643 37.5348C128.286 35.5963 130.929 33.4817 133.397 31.1909C137.802 28.0189 141.855 24.4945 145.556 20.2652C146.789 18.8555 148.023 17.4457 149.08 16.036C149.256 15.8598 149.433 15.6835 149.433 15.6835C151.9 13.5689 155.072 11.278 156.834 8.28232C158.067 6.3439 158.42 3.52439 156.834 1.7622C156.658 1.58598 156.658 1.40976 156.481 1.23354C154.719 -0.352438 152.252 -0.176218 150.137 0.35244C149.961 0.35244 149.961 0.176221 149.785 0.35244L149.609 0.52866H149.433C149.08 0.704879 149.08 0.881099 148.904 1.05732C147.142 2.99573 145.556 5.11037 143.97 7.225C142.031 9.86829 140.269 12.5116 138.331 15.1549C134.806 20.2652 131.106 25.1994 126.876 29.6049C126.348 30.1335 125.995 30.486 125.467 31.0146C123.704 32.4244 121.942 33.8341 120.004 35.2439C118.242 36.3012 116.479 37.3585 114.541 38.2396C111.898 39.6494 109.078 41.0591 106.435 42.6451C106.083 42.8213 105.73 42.9976 105.378 43.1738C101.853 44.4073 98.1526 45.6409 94.6283 47.2268C94.0996 47.403 94.0996 47.9317 94.0996 48.2841C89.5179 50.2226 84.9362 52.3372 80.3545 54.0994C75.5965 56.0378 70.6624 57.6238 65.9045 59.386C65.1996 58.1524 64.6709 57.0951 63.9661 56.0378C62.5563 53.9232 60.7941 51.9848 59.0319 50.2226H58.8557C58.8557 50.2226 58.8557 50.2226 58.6795 50.0463L58.5033 49.8701V50.0463C58.327 50.3988 58.327 50.3988 58.5033 50.575Z" fill="black"/>
<path d="M75.599 109.432C76.3039 109.785 77.0088 109.961 77.7136 110.313C78.4185 110.49 79.1234 111.018 79.6521 111.371C81.0618 112.252 81.5905 113.838 82.2954 115.248C82.824 116.129 84.0576 117.538 85.2911 117.186C85.6435 117.01 85.4673 116.657 85.2911 116.657C84.7624 116.305 84.0575 116.305 83.7051 115.776C83.1764 115.248 83.0002 114.719 82.6478 114.014C82.1191 112.78 81.4143 111.723 80.3569 110.842C79.2996 110.137 78.2423 109.785 77.0088 109.432C75.599 109.08 73.6606 108.551 73.6606 106.613H73.4844C73.6606 107.846 74.5417 108.904 75.599 109.432Z" fill="black"/>
<path d="M220.805 142.033C221.862 140.799 223.096 139.566 224.153 138.509C224.682 137.98 225.387 137.451 225.915 136.923C225.563 137.627 225.21 138.332 224.682 139.037C223.801 140.447 222.743 141.857 222.038 143.266C221.686 143.971 222.919 144.852 223.448 144.148C224.329 142.738 225.034 141.152 225.915 139.742C226.62 138.332 227.677 136.923 228.382 135.337C228.559 134.984 227.854 134.455 227.501 134.632C226.796 135.16 226.091 135.689 225.387 136.218C224.858 136.57 224.329 137.099 223.801 137.627C223.977 137.451 224.153 137.275 224.329 137.099C225.563 135.513 226.973 133.927 228.206 132.341C228.559 131.988 227.854 131.636 227.677 131.812C226.091 133.222 224.682 134.808 223.448 136.57C222.215 138.156 220.981 139.918 220.1 141.68C220.1 141.68 220.1 141.68 220.1 141.857C219.748 142.033 220.452 142.385 220.805 142.033Z" fill="black"/>
<path d="M192.255 165.118C192.079 165.118 192.079 165.118 192.079 165.294C192.079 165.47 192.079 165.47 191.902 165.646V165.823C191.902 165.823 191.902 165.823 191.902 165.999C191.902 165.999 191.902 166.175 192.079 166.175H192.255C192.255 166.175 192.255 166.175 192.255 165.999V165.823V165.646C192.431 165.294 192.431 165.118 192.255 165.118Z" fill="black"/>
<path d="M194.898 155.602V155.426C194.898 155.426 194.898 155.426 194.898 155.602ZM194.37 154.544C194.37 154.544 194.37 154.368 194.37 154.544C194.37 154.368 194.37 154.368 194.37 154.544C194.37 154.368 194.37 154.368 194.37 154.544C194.37 154.368 194.37 154.368 194.37 154.544C194.37 154.368 194.37 154.368 194.37 154.544ZM195.075 154.721V154.544C195.075 154.368 195.075 154.368 195.075 154.368C195.075 154.192 194.898 154.016 194.898 154.016C194.546 153.84 194.37 153.663 194.017 153.84C194.017 153.84 193.841 153.84 193.841 154.016L193.665 154.192L193.489 154.368C193.313 154.544 193.312 154.721 193.312 154.897C193.312 155.073 193.312 155.073 193.312 155.249V155.426C193.312 155.426 193.312 155.426 193.312 155.602C193.312 155.778 193.489 155.778 193.489 155.954C193.665 156.13 193.841 156.307 194.017 156.307C194.194 156.483 194.37 156.483 194.546 156.307C194.722 156.307 194.722 156.307 194.722 156.13L194.898 155.954C194.898 155.954 194.898 155.954 194.898 155.778C194.898 155.602 195.075 155.602 195.075 155.426V155.249V155.073C194.898 154.897 194.898 154.721 195.075 154.721C194.898 154.721 195.075 154.721 195.075 154.721Z" fill="black"/>
<path d="M82.1194 83.1756C82.2956 83.3518 82.2956 83.7043 82.2956 83.8805V84.0567C82.2956 83.8805 82.1194 83.528 82.1194 83.3518V83.1756C81.9432 83.1756 82.1194 83.1756 82.1194 83.1756ZM79.6523 75.7744C79.6523 76.6555 79.6523 77.3604 79.8286 78.2415C79.8286 79.1226 80.0048 79.8274 80.181 80.7085C80.3572 81.5896 80.5334 82.2945 80.7097 83.1756C80.8859 83.8805 81.0621 84.7616 81.4145 85.114C81.767 85.6427 82.4719 85.6427 82.8243 85.114C83.1767 84.5854 83.1767 83.8805 83.1767 83.3518C83.0005 82.8232 82.6481 82.2945 82.1194 82.1183C81.9432 82.1183 81.767 82.1183 81.5908 82.1183C81.5908 82.1183 81.5908 82.1183 81.5908 81.9421C81.4145 80.8847 81.0621 80.0036 80.8859 78.9463C80.7097 77.889 80.3572 76.8317 80.0048 75.7744C80.0048 75.5982 79.6523 75.5982 79.6523 75.7744Z" fill="black"/>
<path d="M56.9176 50.575C58.1512 51.6323 59.2085 52.8659 60.2658 54.0994C60.7945 54.628 61.3231 55.3329 61.6756 56.0378C61.8518 56.3902 62.2042 56.7427 62.3805 57.0951C62.5567 57.4476 62.7329 57.8 63.0853 58.1524C63.0853 58.3287 63.2616 58.1524 63.2616 57.9762C63.0853 57.6238 62.9091 57.2713 62.7329 56.9189C62.5567 56.5665 62.3805 56.214 62.2042 55.8616C61.6756 55.1567 61.3231 54.4518 60.7945 53.7469C59.7372 52.3372 58.6798 51.2799 57.4463 50.0463C56.9176 49.8701 56.7414 50.2226 56.9176 50.575Z" fill="black"/>
<path d="M60.0902 54.4518C59.914 54.4518 59.7378 54.4518 60.0902 54.4518C60.7951 55.6854 61.5 56.7427 62.2048 57.9762C62.9097 59.0335 63.4384 60.2671 64.3195 61.3244C64.4957 61.5006 64.8481 61.3244 64.8481 61.1482C64.3195 59.9146 63.6146 58.6811 62.7335 57.6238C61.8524 56.5665 60.9713 55.5091 60.0902 54.4518Z" fill="black"/>
<path d="M22.5553 111.371C21.3218 110.313 20.0882 109.256 18.8547 108.023C18.6785 107.846 18.5022 108.023 18.6785 108.199C19.7358 109.432 20.9693 110.49 22.2029 111.547C23.4364 112.604 24.8461 113.485 26.2559 114.19C26.2559 114.19 26.4321 114.19 26.2559 114.014C25.1986 113.133 23.7888 112.428 22.5553 111.371Z" fill="black"/>
</g>
<defs>
<clipPath id="clip0_7_1460">
<rect width="273.493" height="173.4" fill="white"/>
</clipPath>
</defs>
</svg>
