<svg width="362" height="200" viewBox="0 0 362 200" fill="none" xmlns="http://www.w3.org/2000/svg">
<g clip-path="url(#clip0_7_1421)">
<path d="M41.7886 5.11915C41.6123 5.11915 41.6123 5.11915 41.7886 5.11915C41.6123 5.11915 41.6123 5.11915 41.7886 5.11915C41.6123 5.11915 41.6123 5.11915 41.7886 5.11915ZM41.9649 6.88438C42.4939 6.88438 43.0229 6.53133 43.3756 6.17829C43.7282 5.82524 43.9045 5.4722 43.9045 4.94263C43.9045 4.58959 43.9045 4.41306 43.7282 4.23654C43.5519 4.06002 43.5519 4.06002 43.3756 3.8835C43.1992 3.70697 43.0229 3.53045 42.8466 3.53045C42.3176 3.53045 41.7886 3.35393 41.2596 3.53045C41.0833 3.53045 40.907 3.70697 40.907 3.70697C40.7306 3.70697 40.5543 3.70697 40.378 3.8835C39.849 4.58959 40.0253 5.64872 40.5543 6.17829C40.907 6.70786 41.436 6.88438 41.9649 6.88438Z" fill="black"/>
<path d="M129.071 12.3566C129.071 12.3566 129.248 12.3566 129.071 12.3566C129.071 12.5331 129.071 12.7096 129.071 12.8861C129.071 13.0627 129.248 13.4157 129.424 13.4157C129.6 13.5922 129.777 13.5922 130.129 13.5922C130.306 13.5922 130.658 13.5922 130.835 13.4157C131.187 13.2392 131.364 13.0627 131.54 12.8861C131.716 12.7096 131.893 12.5331 131.893 12.1801C132.069 12.0035 132.069 11.827 132.069 11.6505C132.245 11.2974 132.069 10.9444 131.716 10.5914C131.54 10.5914 131.54 10.4148 131.364 10.4148C131.364 10.2383 131.364 10.2383 131.364 10.2383C131.364 10.0618 131.187 10.0618 131.187 9.88526C131.011 9.70874 130.658 9.53222 130.306 9.70874C130.129 9.88526 129.777 10.0618 129.6 10.4148C129.071 10.5914 128.719 10.9444 128.719 11.6505C128.895 12.0035 129.071 12.1801 129.071 12.3566Z" fill="black"/>
<path d="M34.7363 60.3707C34.3836 60.3707 34.2073 58.9585 34.2073 58.6055C34.3836 58.6055 34.3836 58.429 34.56 58.429C35.0889 57.8994 35.4416 57.1933 35.7942 56.6637C35.6179 57.1933 35.6179 57.8994 35.4416 58.429C35.4416 58.782 35.2653 60.3707 34.7363 60.3707ZM34.3836 55.4281C34.3836 55.2516 34.56 54.8985 34.56 54.722C34.9126 53.3098 35.6179 51.7211 36.4996 50.4854C35.9706 52.0742 35.2653 53.8394 34.3836 55.4281ZM55.5429 35.3045C54.8376 35.6576 54.1323 35.6576 53.6033 34.5984C53.0743 33.3628 53.427 31.7741 53.6033 30.7149C53.7796 29.3027 54.1323 28.0671 54.4849 26.8314C55.0139 25.9488 55.3666 25.2427 56.0719 24.5366C56.4245 24.5366 56.6009 24.3601 56.7772 24.0071C56.7772 23.8305 56.9535 23.654 56.9535 23.4775C57.4825 22.9479 58.1878 22.4184 59.0695 22.2418C59.5984 22.0653 60.3037 22.2418 60.8327 22.7714C60.4801 25.0662 59.9511 27.1845 59.0695 29.4793C58.5405 30.7149 58.0115 31.9506 57.3062 33.0097C56.9535 33.7158 56.2482 34.5984 55.5429 35.3045ZM77.7601 20.4766C78.6418 19.7705 79.5234 19.241 80.5814 19.0644V19.241C80.2287 19.7705 79.8761 20.3001 79.3471 20.8297C78.1128 22.4184 76.5259 23.654 74.7626 24.5366C75.6442 22.9479 76.5259 21.5358 77.7601 20.4766ZM85.3422 31.9506C82.8736 29.4793 80.0524 27.361 76.8785 26.1253C78.2891 25.2427 79.5234 24.3601 80.5814 23.301C80.934 22.7714 81.6394 22.0653 82.3447 21.1827C82.521 21.0062 82.6973 20.6531 82.8736 20.4766C83.579 19.594 84.1079 18.3583 83.4026 17.2992C82.8736 16.7696 82.3447 16.5931 81.6394 16.5931C80.7577 16.4166 79.6998 16.7696 78.8181 17.1227C78.4655 17.2992 78.2891 17.4757 78.1128 17.4757C77.5838 17.6523 77.4075 17.6523 77.0548 17.8288C75.6442 18.7114 74.5863 19.7705 73.7046 21.1827C73.8809 20.1236 74.0573 19.0644 74.2336 17.8288C75.6442 12.3566 76.7022 6.88438 77.2312 1.23566C77.4075 -0.176517 74.9389 -0.882607 74.7626 0.706096C74.5863 4.06002 74.0573 7.06091 73.352 10.0618C71.9413 15.534 70.3544 20.8297 68.4148 26.1253C67.7095 28.0671 67.0042 29.8323 66.1225 31.7741C65.7699 32.4801 65.4172 33.3628 64.8883 33.8923C64.0066 34.7749 62.4197 34.9515 62.067 33.5393C62.067 33.3628 62.067 33.3628 62.067 33.1862C62.067 32.4801 62.2434 31.9506 62.4197 31.2445C62.4197 31.068 62.4197 30.8914 62.596 30.7149C62.7723 30.0088 62.7723 29.3027 62.9487 28.5967C63.4776 25.7723 64.1829 22.9479 64.7119 20.1236C64.8883 19.0644 63.125 18.5349 62.7723 19.594C62.596 20.1236 62.596 20.6531 62.4197 21.0062C62.2434 21.0062 62.067 21.0062 61.8907 21.0062C61.538 20.6531 61.1854 20.4766 60.6564 20.3001C59.2458 19.7705 57.6588 20.1236 56.4245 20.8297C55.0139 21.7123 53.7796 22.9479 52.898 24.5366C52.7217 24.7132 52.7217 24.8897 52.5453 24.8897C52.369 24.8897 52.1927 25.0662 52.0164 25.2427C51.3111 26.1253 50.6057 27.008 49.9004 28.0671C46.7265 31.5975 43.729 35.3045 40.9077 39.188C41.0841 37.0697 41.2604 34.9515 41.4367 32.8332C42.142 28.0671 43.0237 23.1245 43.729 18.3583C43.9053 17.6523 42.671 17.1227 42.142 17.6523C42.142 17.8288 41.9657 17.8288 41.9657 18.0053C41.4367 17.2992 40.5551 17.2992 40.0261 18.0053C36.6759 24.3601 32.973 30.7149 30.1518 37.2463C29.9754 37.7758 30.5044 38.4819 31.0334 38.4819C31.3861 38.835 31.915 39.0115 32.2677 38.4819C34.56 33.5393 36.8522 28.9497 39.6734 24.3601C39.3208 30.5384 38.7918 36.7167 37.9102 42.895C35.4416 46.2489 32.6204 50.1324 32.2677 54.0159C32.0914 54.722 31.915 55.6046 31.7387 56.3107C31.5624 58.429 31.7387 61.4298 33.6783 62.6655C35.7942 64.0777 37.0285 62.1359 37.3812 60.3707C38.4392 55.4281 39.1445 50.3089 39.8498 45.1898C40.7314 43.9541 41.6131 42.7185 42.4947 41.6593C44.9633 38.1289 47.6082 34.7749 50.2531 31.421C49.9004 33.8923 50.4294 36.5402 52.898 37.7758C55.8956 39.3645 58.1878 36.7167 59.5984 34.2454C59.5984 34.7749 59.5984 35.3045 59.7748 35.8341C60.1274 37.7758 62.067 39.0115 64.0066 38.6584C66.1225 38.3054 67.1805 36.5402 68.0621 34.9515C68.7675 33.7158 69.2964 32.4802 69.8254 31.068C69.6491 31.7741 69.4728 32.6567 69.4728 33.3628C69.2964 34.2454 69.2964 34.9515 69.6491 35.8341C70.0017 36.3636 70.3544 36.5402 70.8834 36.0106C71.4124 35.481 71.4124 34.5984 71.5887 33.8923C71.5887 33.7158 71.5887 33.5393 71.765 33.5393C71.9413 33.3628 71.9413 33.3628 71.9413 33.1862C72.1177 32.6567 72.1177 31.9506 72.294 31.421C72.6467 30.1854 72.9993 28.9497 73.5283 27.714H73.7046C74.4099 27.8906 75.1152 28.0671 75.8205 28.4201C78.2891 31.068 81.1104 33.0097 84.6369 34.2454C85.5186 34.5984 86.0475 33.7158 85.8712 33.1862C85.6949 32.4801 85.5186 32.1271 85.3422 31.9506Z" fill="black"/>
<path d="M144.765 21.0062C144.589 21.5357 143.354 22.4184 143.002 22.5949C142.296 23.1245 141.591 23.654 140.709 24.0071C140.357 24.0071 140.004 24.0071 139.651 23.8305C139.828 23.4775 140.18 22.9479 140.357 22.5949C140.709 22.2418 141.062 21.8888 141.415 21.5357C142.473 21.1827 143.707 21.0062 144.765 21.0062ZM146.352 40.6002C145.823 41.3063 145.118 42.1889 144.412 42.895C143.707 43.4245 143.002 43.9541 142.12 44.3072C141.415 44.4837 140.709 44.6602 140.533 44.1306C140.709 43.6011 140.886 43.0715 141.062 42.7185C141.767 40.7767 142.473 38.835 143.354 37.0697C144.412 35.3045 145.294 33.5393 146.352 31.5975C146.528 31.2445 146.352 30.8914 146.176 30.5384C145.823 29.6558 144.589 29.1262 143.883 30.0088C142.825 31.421 140.533 33.7158 139.299 31.421C138.946 30.8914 138.77 30.1854 138.593 29.6558C138.417 28.4201 138.417 27.361 138.77 26.1253C140.004 26.4784 141.415 26.6549 142.825 26.3019C145.823 25.5958 148.291 22.9479 148.291 19.7705C148.291 18.8879 147.586 18.1818 146.705 18.3583C144.06 18.5349 141.415 18.7114 139.122 19.947C137.888 20.6531 137.183 21.5357 136.478 22.5949C136.301 22.5949 136.301 22.4184 136.125 22.4184C136.125 22.2418 136.125 22.0653 136.125 21.8888C136.301 21.0062 134.714 20.4766 134.362 21.1827C133.833 21.1827 133.48 21.1827 133.304 21.8888C132.775 23.8305 131.893 25.5958 131.011 27.361C130.13 28.4201 129.248 29.4793 128.367 30.3619C128.367 29.4793 128.367 28.4201 128.543 27.5375C129.072 25.2427 129.777 22.9479 130.306 20.8297C130.659 19.7705 128.895 18.3583 128.19 19.594C127.132 21.3592 125.722 22.9479 124.311 24.5366L124.135 24.7132C123.958 24.8897 123.782 25.0662 123.606 25.2427C122.724 26.1253 121.842 27.0079 120.784 27.714C120.432 27.0079 120.079 26.3019 119.55 25.5958C119.197 25.0662 118.668 24.7132 118.316 24.1836C117.434 22.9479 116.729 21.5357 116.553 19.947C116.376 19.4175 116.024 19.0644 115.671 18.8879C115.318 18.0053 114.084 17.4757 113.379 18.3583C113.202 18.7114 112.85 19.0644 112.673 19.4175C112.321 19.4175 112.144 19.594 111.792 19.947C110.557 21.1827 109.499 22.7714 108.442 24.1836C107.736 24.8897 107.207 25.7723 106.502 26.4784C106.149 26.8314 105.797 27.1845 105.268 27.5375C105.091 27.714 105.091 27.8906 105.091 28.0671L104.915 28.2436C104.562 28.7732 105.091 29.3027 105.62 29.3027C105.797 29.4793 106.149 29.4793 106.326 29.4793C107.031 29.6558 107.736 29.1262 107.913 28.4201C108.97 27.5375 109.852 26.6549 110.734 25.7723C110.91 25.5958 111.263 25.2427 111.439 25.0662C112.321 24.1836 113.202 23.4775 114.084 22.5949C114.26 22.7714 114.437 23.1245 114.613 23.301C115.318 24.1836 116.024 25.2427 116.905 26.1253C117.082 26.3019 117.258 26.6549 117.611 27.0079C118.14 27.8906 118.492 28.7732 118.669 29.6558C118.492 31.068 116.729 32.1271 115.318 32.3036C114.966 32.3036 113.731 32.4801 112.673 32.4801C112.497 32.4801 112.497 32.4801 112.321 32.4801C111.615 32.3036 112.321 31.068 112.497 30.5384C112.85 29.8323 112.321 29.1262 111.792 28.9497C111.792 28.5966 111.439 28.4201 111.086 28.2436C110.381 28.2436 109.323 29.1262 108.794 30.0088C108.618 30.3619 108.442 30.8914 108.442 31.2445C108.265 31.5975 108.265 31.9506 108.442 32.4801C108.442 32.6567 108.442 32.8332 108.618 33.1862C109.323 35.481 111.615 36.7167 113.908 36.7167C114.26 36.7167 114.613 36.7167 115.142 36.5402C115.847 36.5402 116.553 36.5402 117.258 36.3636C118.14 36.1871 118.845 35.6575 119.374 35.128C120.079 34.9515 120.608 34.5984 120.961 33.8923C121.49 33.0097 121.666 31.9506 121.49 30.8914C121.49 30.8914 121.49 30.8914 121.49 30.7149C121.666 30.7149 122.019 30.7149 122.195 30.5384C122.548 30.1854 122.724 29.6558 123.077 29.3027C123.429 29.1262 123.606 28.7732 123.958 28.5967C124.84 27.8906 125.545 27.1845 126.251 26.4784L126.427 26.3019C126.251 27.361 125.898 28.2436 125.722 29.3027C125.369 31.2445 123.782 35.481 126.956 36.0106C128.19 36.1871 129.072 35.128 129.953 34.2454C130.835 33.1862 131.717 32.1271 132.422 30.8914C133.656 28.9497 134.714 27.0079 135.42 24.7132C135.596 24.8897 135.596 24.8897 135.772 25.0662C135.596 25.7723 135.596 26.4784 135.596 27.1845C135.772 29.6558 136.478 33.1862 138.77 34.5984C139.299 34.9515 139.828 35.128 140.533 35.128C140.709 35.128 141.062 35.3045 141.415 35.3045C140.886 36.3636 140.357 37.4228 140.004 38.6584C139.475 40.0706 138.946 41.4828 138.417 42.895C138.065 43.9541 137.712 45.0132 138.065 46.0724C138.77 48.1906 141.591 48.1906 143.354 47.4846C145.647 46.6019 147.057 44.6602 148.291 42.5419C148.997 40.9532 147.234 39.541 146.352 40.6002Z" fill="black"/>
<path d="M196.607 38.1289C196.43 38.1289 196.43 37.9523 196.43 37.9523C196.783 38.1289 197.136 38.1289 197.488 38.1289C197.136 38.3054 196.783 38.3054 196.607 38.1289ZM204.189 28.0671C205.247 27.1845 206.657 26.3018 207.892 25.5958C208.068 25.5958 208.244 25.4192 208.421 25.2427C208.773 25.2427 209.126 25.0662 209.479 25.0662C208.597 27.1845 207.539 29.3027 205.952 30.8914C205.071 31.774 204.189 32.6567 203.131 33.1862C202.602 33.3627 202.073 33.5393 201.544 33.7158C201.368 33.7158 201.015 33.7158 200.839 33.8923C200.839 33.7158 201.015 33.3627 201.015 33.3627C201.191 33.0097 201.368 32.8332 201.544 32.4801C201.897 31.9506 202.073 31.421 202.426 30.8914C202.778 29.8323 203.307 28.9497 204.189 28.0671ZM217.237 30.3619C216.355 31.5975 215.65 32.8332 214.769 33.8923C214.416 34.2454 214.24 34.5984 213.887 34.7749C213.711 34.9515 213.358 35.128 213.182 35.3045C213.182 35.3045 213.182 35.3045 213.182 35.128C213.005 34.7749 213.005 34.4219 212.829 34.2454C212.3 32.8332 212.124 31.2445 212.124 29.6558C212.3 28.2436 212.653 26.8314 213.005 25.5958C213.182 25.0662 212.653 24.3601 212.124 24.1836C211.947 23.654 211.242 23.301 210.713 23.4775C210.184 23.301 209.655 23.1244 209.126 23.301C207.363 23.1244 205.599 23.654 204.013 24.7131C202.778 25.5958 201.897 26.6549 201.015 27.8906C200.31 28.5966 199.604 29.3027 199.075 30.1853C198.194 31.5975 197.841 33.3628 198.194 34.7749C198.017 35.3045 197.665 35.6575 197.312 35.8341C196.43 36.1871 196.254 34.5984 196.254 34.0688C196.078 32.3036 196.254 30.7149 196.078 28.9497C196.078 27.1845 195.901 23.654 193.433 23.654C193.433 23.654 193.433 23.654 193.257 23.654C192.904 23.654 192.551 23.4775 192.199 23.654C189.906 24.0071 188.319 26.8314 187.261 28.5966C187.085 28.7732 187.085 29.1262 186.909 29.3027C186.909 28.2436 186.909 27.0079 186.909 25.9488C186.909 25.0662 186.556 24.0071 185.851 23.4775C185.498 22.7714 184.44 22.4184 183.911 23.1244C183.911 23.301 183.735 23.301 183.735 23.4775C182.853 24.0071 182.324 24.8897 181.795 25.5958C181.09 26.6549 180.385 27.714 179.679 28.9497C179.503 29.3027 179.327 29.8323 178.974 30.1853C179.15 29.1262 179.327 28.0671 179.503 27.0079C179.679 25.2427 180.032 23.301 179.15 21.7123C179.15 21.5357 179.15 21.3592 179.15 21.0062C179.15 20.3001 178.269 19.4175 177.563 19.7705C175.448 20.6531 173.684 22.2418 172.274 24.0071C170.334 26.3018 168.394 28.5966 166.984 31.2445C166.807 31.421 166.807 31.5975 166.984 31.774C166.984 31.774 166.984 31.774 166.984 31.9506C166.631 32.4801 167.336 33.0097 167.865 32.6567C168.042 32.4801 168.042 32.4801 168.218 32.3036C168.218 32.3036 168.218 32.3036 168.394 32.3036C169.981 30.8914 171.216 29.1262 172.626 27.5375C174.037 26.1253 175.448 24.7131 176.858 23.4775C176.329 28.0671 175.8 32.6567 175.271 37.0697C175.095 38.1289 176.858 39.0115 177.387 38.1289C177.563 38.1289 177.916 37.9523 177.916 37.5993C178.092 37.2462 178.092 36.8932 178.269 36.5402C180.208 33.5393 182.148 30.3619 184.264 27.5375C184.264 28.4201 184.264 29.3027 184.264 30.1853C184.264 32.3036 184.264 34.4219 184.088 36.5402C184.088 37.7758 185.851 38.6584 186.38 37.2462C186.38 37.0697 186.556 36.8932 186.556 36.8932C186.732 36.7167 186.909 36.5402 187.085 36.1871C187.261 35.481 187.438 34.7749 187.614 34.0688C188.319 32.4801 189.025 30.8914 189.906 29.4793C190.259 28.9497 190.435 28.5966 190.788 28.2436C190.964 28.0671 190.964 28.0671 191.141 27.8906C191.493 27.361 192.199 26.4784 192.904 26.1253H193.08V27.5375C193.08 28.5966 193.08 29.6558 193.257 30.7149C193.257 33.0097 193.257 35.3045 193.257 37.5993C193.257 38.3054 193.786 38.6584 194.315 38.8349C195.373 40.6002 197.488 41.1297 199.252 40.2471C200.133 39.8941 200.839 39.188 201.544 38.3054C201.72 38.1289 201.897 37.9523 201.897 37.5993C203.836 37.9523 205.776 36.8932 207.01 35.481C208.244 34.2454 208.95 32.6567 209.831 31.2445C210.008 33.0097 210.184 35.3045 211.418 36.8932C211.947 37.5993 212.829 38.1289 213.711 37.9523C214.592 37.9523 215.121 37.4228 215.65 36.8932C215.826 36.7167 216.179 36.3636 216.355 36.1871C217.59 34.9515 218.648 33.3627 219.177 31.5975C219.529 30.3619 217.942 29.3027 217.237 30.3619Z" fill="black"/>
<path d="M320.21 45.1898C320.739 45.0132 321.268 45.0132 321.62 44.6602C321.797 44.4837 321.797 44.3071 321.797 44.3071H321.973C322.502 44.1306 322.678 43.6011 322.502 43.0715C322.326 42.5419 321.797 42.1889 321.268 42.1889C320.033 42.1889 318.799 42.5419 317.565 42.895C316.331 43.248 315.273 43.7776 314.038 44.3071C312.98 44.8367 311.922 45.5428 311.041 46.2489C310.512 46.6019 309.983 47.1315 309.807 47.6611C309.278 48.1906 309.454 48.7202 309.807 49.0733C309.983 49.4263 310.512 49.6028 310.864 49.4263C311.041 49.4263 311.041 49.2498 311.217 49.2498C311.217 49.0733 311.393 49.0733 311.393 48.8967C312.804 47.8376 314.391 46.955 315.978 46.4254C316.86 46.0724 317.741 45.8958 318.799 45.5428C319.152 45.3663 319.681 45.1898 320.21 45.1898Z" fill="black"/>
<path d="M337.666 50.8385C337.666 50.8385 337.666 50.662 337.666 50.8385C337.842 50.662 337.666 50.662 337.666 50.8385C337.842 50.662 338.019 50.4854 338.195 50.3089H338.371H338.548C338.548 50.3089 338.548 50.3089 338.548 50.4854V50.662V50.8385V51.015C338.548 51.015 338.548 51.015 338.548 51.1915C338.548 51.1915 338.371 51.1915 338.371 51.3681H338.195H338.019H337.842C337.666 51.015 337.666 51.015 337.666 50.8385ZM335.903 51.7211C336.432 52.7802 337.49 53.3098 338.548 53.3098C339.253 53.3098 339.782 52.9568 340.311 52.4272C340.664 52.0741 340.84 51.368 340.84 50.8385C340.84 50.1324 340.664 49.4263 340.135 48.8967C339.782 48.5437 339.606 48.3672 339.253 48.1906C338.9 48.0141 338.548 48.0141 338.195 48.0141H338.019C337.842 48.0141 337.666 47.8376 337.313 48.0141C336.961 48.1906 336.784 48.3672 336.608 48.5437C336.608 48.5437 336.432 48.5437 336.432 48.7202C336.255 48.8967 336.079 49.0733 336.079 49.2498C335.903 49.4263 335.903 49.6028 335.903 49.9559V50.1324V50.3089V50.4854C335.903 50.662 335.903 50.662 335.903 50.8385C335.903 51.015 335.903 51.015 335.903 51.1915C335.55 51.1915 335.726 51.5446 335.903 51.7211Z" fill="black"/>
<path d="M119.022 58.4289C117.964 58.6055 116.73 58.4289 115.848 57.7229C114.967 56.8402 114.79 55.6046 115.319 54.8985C116.73 54.1924 117.964 54.722 118.846 55.7811C119.198 56.4872 119.375 57.3698 119.375 58.2524C119.375 58.4289 119.198 58.4289 119.022 58.4289ZM142.121 52.2507C142.121 52.4272 142.121 52.6037 142.121 52.7802C141.592 52.7802 141.239 52.9567 141.239 53.6628C141.239 57.8994 140.71 61.9594 139.652 66.1959C139.652 66.3725 139.476 66.7255 139.476 67.0785C139.123 67.6081 138.771 68.1377 138.242 68.4907L138.065 68.3142C137.007 65.8429 136.302 63.195 135.949 60.5472C135.949 60.1942 135.773 60.0176 135.597 59.8411C135.42 58.782 133.834 58.0759 133.481 59.3116C133.128 60.1942 132.776 61.0768 132.423 61.9594C131.365 63.3716 130.307 64.7838 129.249 66.1959C129.249 64.2542 129.425 62.3124 129.602 60.3707C129.954 58.9585 130.307 57.7229 130.66 56.3107C130.836 55.9576 130.66 55.4281 130.307 55.075C130.307 54.8985 130.307 54.8985 130.307 54.722C130.483 53.8394 129.073 52.9567 128.367 53.6628C126.428 55.2515 124.136 56.6637 121.843 57.7229C121.491 55.6046 120.609 53.6628 118.317 52.7802C116.553 52.0741 114.438 52.2507 113.203 53.8394L113.027 54.0159C111.264 55.9576 111.087 59.135 114.085 60.7237C115.496 61.4298 117.259 61.4298 119.022 61.0768C119.198 61.0768 119.198 61.0768 119.375 61.0768C119.375 61.6063 119.198 62.1359 119.022 62.6655C118.493 63.5481 117.964 64.4307 117.435 65.1368C116.024 66.902 114.261 69.0203 111.793 68.8438C110.735 68.6672 110.206 68.3142 109.853 67.6081C109.853 65.3133 110.558 62.842 111.087 60.7237C111.087 60.5472 111.087 60.1942 110.911 60.0176C110.911 59.4881 110.911 58.9585 110.735 58.4289C110.558 57.3698 108.971 57.1933 108.795 58.2524C108.09 62.1359 105.621 65.6664 102.095 67.6081C102.095 66.3725 102.095 65.1368 102.095 64.0777C102.095 63.195 102.271 62.3124 102.271 61.4298C102.447 59.8411 102.447 58.0759 101.918 56.6637C101.918 56.6637 101.918 56.6637 101.918 56.4872C101.918 56.1342 101.742 55.9576 101.389 55.7811C101.389 55.6046 101.213 55.6046 101.213 55.4281C100.684 54.8985 100.155 54.722 99.6261 55.075C97.5101 56.3107 96.0995 58.4289 94.8652 60.5472C94.6889 60.9003 94.3362 61.2533 94.1599 61.6063C94.1599 60.9003 94.1599 60.1942 94.1599 59.4881C94.1599 58.9585 93.9836 58.6055 93.8073 58.0759C93.4546 56.3107 92.573 54.722 90.6334 55.075C89.3991 55.2515 88.8701 56.3107 88.3411 57.3698C87.4595 58.782 86.7542 60.1942 86.0488 61.7829C85.6962 62.489 85.5199 63.0185 85.1672 63.7246C85.1672 63.3716 85.1672 63.0185 85.1672 62.6655C85.1672 62.6655 85.1672 62.6655 85.1672 62.489C85.3435 60.9003 85.5199 59.3116 85.6962 57.7229C85.6962 56.3107 85.6962 55.075 84.4619 54.0159C84.1093 53.8394 83.7566 53.6628 83.4039 53.8394C80.5827 54.8985 78.9958 57.5463 77.7615 60.0176C77.0562 61.6063 76.3509 63.0185 75.6455 64.6072C75.1166 65.8429 74.4112 67.4316 74.2349 68.8438C74.2349 69.0203 74.0586 69.1968 74.0586 69.3733C74.0586 69.5499 74.0586 69.9029 74.2349 70.0794C74.4112 70.4325 74.9402 70.962 75.2929 70.4325C75.6455 69.9029 75.9982 69.1968 76.3508 68.4907C76.3508 68.4907 76.5272 68.4907 76.5272 68.3142C76.5272 68.1377 76.7035 67.9612 76.7035 67.6081C77.4088 66.1959 77.9378 64.9603 78.6431 63.5481C79.1721 62.6655 79.5247 61.7829 80.0537 60.9003C80.9354 59.8411 81.817 58.9585 82.6986 58.0759C82.875 58.2524 82.6986 58.6055 82.6986 58.9585C82.5223 59.4881 82.5223 60.1942 82.346 60.7237C82.1697 61.7829 81.9933 63.0185 81.817 64.0777C81.6407 65.4898 81.6407 67.0785 81.6407 68.4907C81.4643 68.8438 81.4643 69.1968 81.288 69.7264C81.1117 70.2559 80.759 70.7855 80.759 71.3151C80.759 72.3742 81.817 72.9038 82.6986 72.9038C84.2856 72.9038 84.9909 71.3151 85.3435 69.7264C85.6962 68.6672 85.8725 67.6081 86.2252 66.549C87.4595 64.0777 88.6938 61.4298 90.1044 59.135C90.1044 58.9585 90.2807 58.9585 90.2807 58.782C90.6334 58.2524 90.8097 57.8994 91.3387 57.8994C91.515 57.8994 91.515 57.8994 91.6913 57.8994C91.6913 58.0759 91.6913 58.2524 91.6913 58.4289C91.6913 59.4881 91.515 60.7237 91.515 61.7829C91.3387 64.2542 90.986 66.7255 90.457 69.0203C90.2807 70.2559 92.2203 70.7855 92.7493 69.7264C92.9256 69.3733 93.1019 69.0203 93.2783 68.8438C93.4546 68.6672 93.4546 68.6672 93.4546 68.4907V68.3142C94.5126 66.3725 95.5705 64.2542 96.6285 62.3124C96.9811 61.6063 97.3338 61.0768 97.6865 60.3707C98.3918 59.6646 99.0971 58.782 99.9787 58.2524C99.9787 58.9585 99.9787 59.6646 100.155 60.5472C100.155 61.2533 99.9787 61.7829 99.9787 62.3124C99.8024 64.0777 99.4497 66.3725 99.9787 68.1377C99.9787 68.3142 100.155 68.3142 100.155 68.4907C100.155 68.6672 100.155 68.6672 100.155 68.8438C100.155 69.5499 100.86 70.2559 101.566 69.9029C101.918 70.0794 102.447 70.2559 102.976 70.2559C103.329 70.2559 103.682 70.0794 104.034 69.9029C104.916 69.7264 105.621 69.0203 106.15 68.3142C106.679 67.6081 107.208 66.7255 107.737 66.0194C107.737 66.549 107.737 66.902 107.737 67.2551C107.737 69.5499 108.795 71.4916 111.969 71.8447C116.377 72.1977 119.727 68.3142 120.962 64.4307C121.314 63.1951 121.667 61.7829 121.843 60.1942C123.783 59.6646 125.546 58.6055 127.309 57.8994C127.309 58.0759 127.309 58.2524 127.309 58.4289C126.428 62.1359 125.899 66.0194 126.075 70.0794C126.075 71.1386 127.486 72.0212 128.367 71.1386L128.544 70.962C128.896 70.962 129.073 70.7855 129.249 70.609C131.012 68.6672 132.599 66.549 133.834 64.2542C134.01 64.0777 134.01 64.0777 134.186 63.9011C134.363 64.9603 134.715 65.8429 135.244 66.7255C135.773 68.1377 136.302 69.3733 136.831 70.609C137.184 71.1386 137.713 71.6681 138.418 71.3151C138.771 71.1386 138.947 71.1386 139.3 70.962C139.652 70.962 140.005 70.962 140.358 70.7855C141.239 70.4325 141.768 69.5499 142.121 68.4907C142.826 67.4316 143.355 66.1959 143.708 64.7838C144.766 60.9003 144.942 56.8402 145.118 52.9567C144.59 51.368 142.121 50.662 142.121 52.2507Z" fill="black"/>
<path d="M150.582 61.4298C149.876 62.489 149.171 63.3716 148.466 64.2542C148.113 64.6072 147.76 65.3133 147.231 65.6664C147.584 63.3716 148.642 61.4298 149.876 59.4881C150.582 58.429 151.287 57.3698 152.169 56.6637C152.521 56.3107 153.05 55.9576 153.579 55.7811C153.579 55.7811 153.579 55.7811 153.755 55.7811H153.932C152.874 57.7229 151.816 59.6646 150.582 61.4298ZM163.806 63.3716C163.454 64.6072 162.396 65.4898 160.985 65.4898C159.574 65.4898 158.34 64.2542 157.811 63.0185C157.106 61.4298 157.106 59.6646 157.282 57.8994C157.282 57.0168 157.282 56.1342 156.929 55.4281C156.929 55.075 156.577 54.722 156.224 54.5455C156.048 53.6628 155.166 53.3098 154.284 53.3098C153.756 53.3098 153.227 53.4863 152.698 53.6628C151.64 53.6628 150.582 54.1924 149.7 54.8985C147.584 56.4872 145.821 58.6055 145.115 61.0768C144.763 62.3124 144.41 63.5481 144.41 64.9603C144.41 66.1959 144.41 67.7846 145.292 68.4907C147.584 70.609 150.405 66.549 151.64 64.9603C152.698 63.5481 153.755 62.1359 154.637 60.5472C154.637 61.0768 154.637 61.7829 154.637 62.3124C154.637 64.4307 154.461 66.549 156.224 67.9612C158.693 69.9029 162.572 69.3733 164.511 66.7255C165.393 66.0194 165.922 65.1368 166.098 64.0777C166.275 63.0185 164.159 62.1359 163.806 63.3716Z" fill="black"/>
<path d="M203.48 44.3071C203.657 44.3071 204.009 44.3071 204.186 44.1306C204.715 43.9541 205.067 43.6011 205.244 43.0715C205.42 42.5419 205.42 42.0124 205.42 41.6593V41.4828C205.42 41.1297 205.42 40.9532 205.244 40.7767C205.067 40.6002 204.715 40.4237 204.538 40.2471C204.362 40.2471 204.009 40.2471 203.833 40.2471C203.657 40.2471 203.657 40.4237 203.48 40.4237C203.304 40.4237 202.951 40.4237 202.775 40.6002C202.599 40.7767 202.599 40.9532 202.422 41.3063C202.246 41.4828 202.246 41.8358 202.246 42.0124C202.246 42.1889 202.246 42.3654 202.246 42.5419C202.246 43.0715 202.246 43.6011 202.775 43.9541C202.775 44.3071 203.128 44.3071 203.48 44.3071Z" fill="black"/>
<path d="M300.813 45.5428C300.813 46.0724 300.813 46.7785 301.165 47.1315C301.694 47.8376 302.4 48.5437 303.281 48.5437C304.163 48.5437 304.692 47.8376 305.221 47.308C305.574 46.7785 305.926 46.2489 306.103 45.5428C306.279 44.8367 306.279 44.1306 306.103 43.4245C305.75 42.7184 305.045 42.0124 304.163 42.0124C303.281 41.8358 302.4 42.1889 301.694 42.895C301.342 43.248 301.165 43.6011 300.989 43.9541C300.989 44.1306 300.813 44.3071 300.813 44.4837C300.813 44.6602 300.813 44.8367 300.813 45.1898C300.636 45.3663 300.813 45.5428 300.813 45.5428Z" fill="black"/>
<path d="M261.668 54.1924C261.668 54.3689 261.492 54.3689 261.492 54.5455C259.376 54.5455 257.436 55.075 255.673 56.1342C257.26 54.722 259.552 53.8394 261.668 54.1924ZM255.673 61.2533C254.615 62.3124 253.557 63.3716 252.323 64.2542C251.97 64.4307 251.618 64.7838 251.265 65.1368C251.089 65.1368 250.912 65.3133 250.736 65.1368C250.207 64.6072 251.794 62.1359 252.146 61.7829C252.852 60.7237 253.733 59.6646 254.791 58.782C256.202 57.5463 257.965 56.8402 259.729 56.4872C258.494 58.2524 257.26 59.8411 255.673 61.2533ZM184.789 54.1924C184.789 54.0159 184.789 54.0159 184.789 53.8394C184.789 53.8394 184.789 53.8394 184.789 53.6628C184.966 53.6628 184.966 53.6628 185.142 53.6628C184.966 53.6628 185.142 53.8394 185.142 54.0159C184.966 54.1924 184.789 54.1924 184.789 54.1924ZM215.647 56.4872C217.057 55.4281 218.997 54.8985 220.584 55.6046C219.173 57.3698 216.881 57.7229 214.589 57.3698C214.941 57.0168 215.294 56.6637 215.647 56.4872ZM310.687 55.7811C310.158 55.075 309.453 54.1924 308.571 54.1924C307.69 54.1924 307.161 54.8985 306.808 55.6046C306.103 56.6637 305.574 57.8994 305.045 58.9585C303.634 61.6064 302.223 64.0777 300.813 66.7255C300.813 66.7255 300.637 66.7255 300.637 66.902C300.284 67.2551 300.108 67.7846 299.755 68.3142C299.402 68.4907 299.05 68.8438 298.697 69.0203C298.697 65.1368 299.402 61.2533 301.166 57.7229C301.518 56.8402 300.637 56.1342 299.931 55.9576C299.931 55.6046 299.755 55.2515 299.402 55.075C299.402 54.1924 298.521 53.4863 297.815 53.8394C294.112 55.4281 290.233 54.3689 287.236 51.7211C286.707 51.368 286.178 51.7211 286.178 52.2507C285.296 52.0741 284.414 52.6037 284.943 53.6628C285.649 55.4281 286.707 56.8402 287.588 58.6055C288.117 61.7829 287.941 65.1368 287.059 68.3142C287.059 68.3142 286.883 68.3142 286.883 68.1377C286.53 67.7846 286.354 67.4316 286.001 67.0786C284.767 65.1368 283.533 63.1951 282.651 61.2533C282.475 60.9003 282.122 60.7237 281.77 60.5472C281.77 60.1942 281.77 59.6646 281.77 59.3116C281.946 58.0759 279.83 57.3698 279.477 58.6055C278.948 60.9003 278.419 63.0185 277.89 65.3133C277.714 66.1959 277.538 67.0786 277.185 67.9612C276.48 69.3733 275.069 69.0203 274.54 67.6081C273.835 65.8429 274.187 63.1951 274.54 61.2533C274.716 58.9585 275.245 56.6637 275.951 54.3689C276.303 53.3098 274.716 52.2507 274.011 53.1333C273.482 52.7802 272.6 52.7802 272.248 53.4863C271.542 55.075 270.837 56.6637 270.132 58.4289C268.192 61.0768 266.253 63.5481 264.137 66.0194C263.784 62.842 263.96 59.4881 264.666 56.3107C264.842 55.7811 264.313 55.075 263.784 54.8985C263.96 54.5455 263.784 54.0159 263.255 53.8394C259.552 51.8976 255.497 53.6628 252.675 56.1342C250.383 58.0759 246.857 61.2533 247.033 64.6072C246.504 65.1368 246.151 65.8429 245.446 66.1959C244.917 66.549 244.388 66.549 243.859 66.3725C243.33 65.8429 242.977 64.9603 242.977 63.9011C242.977 62.489 243.154 61.0768 243.33 59.6646C243.506 59.135 243.506 58.6055 243.683 58.0759C243.859 56.8402 244.388 55.2515 243.506 54.1924C242.801 53.3098 241.391 52.9568 240.333 53.3098C239.098 53.6628 238.04 54.722 237.159 55.6046C236.101 56.6637 235.219 57.7229 234.514 58.782C233.985 59.4881 233.456 60.3707 232.927 61.0768C232.927 60.9003 232.927 60.7237 232.927 60.5472C233.103 59.3116 233.279 58.0759 233.279 57.0168C233.279 56.1342 233.456 55.4281 233.103 54.722C232.398 52.9567 230.635 52.6037 229.4 54.0159C228.166 55.4281 227.108 57.0168 225.874 58.4289C223.581 61.4298 221.113 64.4307 217.763 66.1959C216.352 67.0786 214.412 67.7846 212.649 67.4316C212.12 67.2551 211.944 67.0786 211.591 66.902L211.415 66.7255C211.415 66.549 211.239 66.549 211.239 66.3725C211.239 66.3725 211.239 66.1959 211.062 66.1959C210.71 65.3133 211.062 63.9011 211.591 63.0185C211.944 62.1359 212.473 61.2533 213.002 60.5472C214.765 61.0768 216.528 61.2533 218.292 61.0768C220.231 60.9003 222.876 60.1942 223.758 58.0759C224.639 56.3107 223.405 54.5455 221.642 53.8394C219.702 53.1333 217.586 53.8394 215.823 54.722C214.236 55.4281 212.826 56.6637 211.591 57.8994C211.591 57.8994 211.591 57.8994 211.415 57.8994C211.239 57.8994 211.239 57.8994 211.062 57.7229C210.71 57.5463 210.181 57.5463 210.004 57.8994C208.946 59.4881 208.065 61.2533 207.183 62.842C206.478 64.0777 205.42 66.549 203.656 66.3725C202.07 66.1959 202.599 63.0185 202.775 61.9594C202.775 61.7829 202.775 61.7829 202.951 61.6064C203.48 60.0177 203.656 58.4289 203.127 56.8402C203.127 56.4872 203.127 55.9576 203.127 55.6046C203.127 54.5455 201.541 53.6628 201.012 54.8985C200.306 56.6637 199.425 58.2524 198.543 60.0177C196.956 62.3124 195.369 64.4307 193.606 66.549C193.606 66.549 193.606 66.549 193.429 66.549C193.429 66.549 193.429 66.3725 193.253 66.3725C193.253 66.0194 193.077 65.8429 193.077 65.4898C193.077 65.1368 193.077 64.9603 193.077 64.7838C193.253 63.7246 193.43 62.6655 193.606 61.6064C193.958 59.6646 194.664 57.3698 194.487 55.2515C194.311 53.8394 193.43 52.4272 191.843 52.2507C190.256 52.0741 189.021 53.6628 188.14 54.722C187.611 55.4281 186.905 56.3107 186.553 57.0168C186.553 56.1342 186.553 55.4281 186.376 54.722C185.671 52.2507 182.85 52.7802 181.263 54.1924C181.087 54.3689 181.087 54.3689 180.91 54.5455C180.558 54.722 180.205 55.075 179.852 55.4281C179.323 55.9576 178.971 56.4872 178.794 57.1933C178.265 58.429 178.089 59.8411 178.265 61.2533C178.442 61.7829 178.971 62.1359 179.5 62.1359C180.91 62.1359 182.321 60.9003 181.968 59.4881C182.321 59.135 182.497 58.782 182.85 58.4289C182.85 59.6646 182.85 60.7237 182.674 61.9594C182.497 63.0185 182.321 64.2542 182.145 65.3133C181.968 66.3725 181.616 67.6081 181.439 68.6673C181.439 69.1968 181.968 69.7264 182.497 69.9029C183.026 70.4325 183.908 70.4325 184.26 69.7264C184.26 69.7264 184.26 69.7264 184.26 69.5499C184.437 69.5499 184.613 69.3733 184.789 69.0203C186.376 64.4307 188.845 60.3707 192.019 56.8402C192.019 57.1933 192.195 57.5463 192.195 57.7229C192.019 58.2524 192.019 58.782 191.843 59.3116C191.49 61.2533 190.785 63.5481 190.785 65.4898C190.785 66.3725 191.137 67.2551 191.666 67.7846C191.843 68.1377 192.195 68.4907 192.372 68.8438C192.901 69.3733 193.429 69.5499 193.958 69.0203L194.135 68.8438C195.369 68.4907 196.074 67.4316 196.78 66.3725C198.014 64.6072 199.248 62.842 200.306 60.9003C200.306 61.2533 200.306 61.7829 200.306 62.1359C199.954 63.0185 199.777 64.0777 199.777 64.9603C199.777 66.549 200.483 68.3142 201.893 69.1968C203.656 70.256 205.42 69.1968 206.478 67.7846C207.007 67.0786 207.536 66.1959 208.065 65.4898C208.065 66.7255 208.594 67.7846 209.828 68.6673C210.886 69.3733 211.944 69.7264 213.002 69.7264C214.941 69.9029 216.881 69.5499 218.468 68.8438C223.405 66.7255 226.403 62.3124 230.106 58.6055C229.753 61.6064 229.4 64.6072 228.871 67.6081C228.695 68.8438 230.458 69.3733 230.987 68.4907C231.34 68.4907 231.516 68.3142 231.693 67.9612C233.279 63.5481 236.453 59.8411 240.333 57.1933C240.509 57.7229 240.509 58.2524 240.509 58.6055V58.782C240.333 60.1942 239.98 61.6064 239.804 62.842C239.627 64.9603 240.156 67.6081 242.448 68.3142C244.212 69.3733 246.68 69.0203 248.091 67.7846C248.444 68.1377 248.973 68.3142 249.325 68.3142C250.56 68.4907 251.618 67.9612 252.675 67.2551C253.91 66.549 255.144 65.6664 255.849 65.1368C257.436 64.0777 258.671 62.6655 260.081 61.2533C259.905 62.842 259.905 64.6072 259.729 66.1959C259.729 67.4316 259.905 68.8438 260.787 69.7264C261.668 70.609 262.902 71.1386 264.137 70.609C265.371 70.0794 266.076 68.6673 266.782 67.6081C267.663 66.1959 268.545 64.9603 269.25 63.5481C269.779 62.489 270.308 61.4298 271.014 60.3707C270.837 61.6064 270.485 62.842 270.485 63.9011C270.308 66.7255 270.661 69.5499 272.248 71.8447C273.129 73.0803 274.54 73.7864 275.774 72.9038C276.832 72.1977 277.89 71.1386 278.772 70.0794C279.477 69.1968 280.006 68.1377 280.535 67.0786C281.946 69.1968 284.238 70.7855 286.707 71.6681C287.236 71.8447 287.765 71.4916 287.941 70.962C287.941 70.7855 288.117 70.609 288.117 70.4325C288.823 69.9029 289.175 69.0203 289.528 68.3142C290.586 66.0194 290.41 63.1951 289.881 60.7237C289.704 60.0177 289.352 59.135 288.999 58.4289C288.823 57.8994 288.823 57.3698 288.646 57.0168C290.762 57.8994 292.878 58.4289 295.17 58.782C293.936 63.3716 293.054 67.9612 293.76 72.5507C293.936 74.4925 295.699 76.6108 297.639 75.3751C297.992 75.3751 298.168 75.3751 298.344 75.0221C298.521 74.669 298.697 74.4925 298.873 74.1395C299.402 73.4334 299.931 72.7273 300.284 72.0212C300.637 71.4916 300.813 71.1386 300.989 70.609C304.339 67.7846 306.455 63.7246 308.042 59.6646C310.335 61.6064 312.803 64.2542 312.098 67.4316C311.745 68.8438 310.864 70.4325 309.453 70.962C308.571 71.3151 307.513 71.1386 306.984 70.609C307.161 70.4325 307.337 70.256 307.513 70.0794C308.571 69.3733 307.513 67.7846 306.455 67.9612C306.103 67.0786 304.868 66.549 304.339 67.4316C303.634 68.6673 303.634 69.9029 304.163 70.962C303.987 72.7273 305.045 74.8455 306.808 75.5516C310.335 76.9638 313.861 74.4925 314.743 70.962C315.801 66.902 313.685 63.0185 311.569 59.6646C312.098 57.5463 311.392 56.6637 310.687 55.7811Z" fill="black"/>
<path d="M320.916 71.8447C320.916 71.6681 320.916 71.4916 320.74 71.3151C320.916 71.4916 320.916 71.4916 321.092 71.6681C321.621 72.0212 322.15 72.1977 322.856 72.3742C322.15 72.9038 321.269 73.0803 320.916 71.8447ZM338.725 67.2551C338.196 67.2551 337.667 67.6081 337.844 68.3142C337.844 69.0203 337.138 69.5499 336.433 69.7264C336.257 69.7264 336.08 69.7264 335.904 69.7264C335.728 69.3733 335.551 69.0203 335.551 68.8438C335.375 67.7846 335.199 66.549 335.199 65.3133C335.022 63.9011 335.022 62.489 334.846 60.9003C334.846 60.0177 333.083 59.3116 332.554 60.1942C332.554 60.1942 332.554 60.3707 332.377 60.3707C330.438 62.842 328.674 65.3133 326.559 67.7846C325.501 69.1968 322.856 71.6681 321.445 69.1968C320.034 66.902 321.798 64.0777 323.032 62.1359C323.737 60.9003 325.501 58.6055 327.088 58.782C327.264 58.9585 327.264 59.135 327.264 59.3116C327.264 60.1942 328.498 60.7237 328.851 59.8411V59.6646C329.38 59.6646 329.909 58.9585 329.556 58.2524C329.203 57.8994 328.851 57.5463 328.498 57.3698C328.322 57.0168 327.969 56.8402 327.617 56.4872C326.382 55.6046 324.795 55.7811 323.561 56.4872C322.15 57.3698 321.269 58.782 320.563 60.0177C319.682 61.6064 318.976 63.3716 318.624 65.1368C318.095 67.7846 317.39 71.6681 319.329 73.7864C321.974 76.7873 325.324 73.2568 327.264 71.3151C328.851 69.5499 330.438 67.6081 331.848 65.6664C331.848 67.6081 332.201 69.3733 333.788 70.7855L333.964 70.9621C334.141 71.1386 334.317 71.3151 334.493 71.6681C335.728 72.7273 337.667 72.9038 338.901 72.0212C340.488 71.1386 340.841 69.1968 340.136 67.4316C340.136 66.902 339.254 66.7255 338.725 67.2551Z" fill="black"/>
<path d="M76.8796 105.031C76.8796 103.795 76.527 102.56 75.6453 101.5C75.469 101.324 75.2927 101.147 74.94 100.971C76.527 101.677 76.8796 103.266 76.8796 105.031ZM72.6478 110.68C72.1188 111.386 71.4135 111.915 70.7082 111.915C69.8265 111.915 69.1212 111.562 68.5922 110.856C67.7106 109.797 67.5343 108.561 67.5343 107.326C67.5343 107.149 67.5343 106.973 67.5343 106.62C67.5343 106.09 67.7106 105.56 67.8869 105.031C68.4159 103.795 69.6502 102.736 71.0608 102.383C71.7661 102.207 72.8241 102.207 73.5294 102.56C74.2347 102.913 74.411 103.795 74.411 104.678C74.411 106.796 73.7057 109.091 72.6478 110.68ZM51.3122 111.209C50.9595 110.503 50.9595 109.797 51.1358 109.091C51.3122 109.091 51.4885 108.914 51.4885 108.738C52.1938 107.502 52.8991 105.914 53.9571 104.854C54.4861 104.854 54.6624 104.678 54.6624 104.325C54.8387 104.148 55.015 104.148 55.1914 103.972C55.3677 103.972 55.7203 103.795 55.8967 103.795C55.3677 105.913 54.6624 108.208 53.7807 110.15C53.4281 110.856 52.7228 112.092 52.0175 112.445C51.8411 112.268 51.4885 111.739 51.3122 111.209ZM72.1188 98.4996C69.6502 98.8526 67.8869 100.265 66.6526 102.03C66.1237 101.853 65.242 102.03 65.0657 102.736C64.1841 106.443 62.5971 109.797 60.1285 112.798C60.4812 104.501 61.3628 96.3813 62.4208 88.2613C62.4208 87.9082 62.2445 87.5552 62.0681 87.5552C61.7155 86.496 59.7759 86.143 59.5995 87.5552C59.0706 89.8499 58.7179 91.9682 58.3653 94.263C58.0126 96.0282 57.6599 97.6169 57.3073 99.3822C57.131 99.9117 57.131 100.265 56.9546 100.794C55.544 100.441 53.7807 100.618 52.5465 101.5C49.5489 103.266 47.9619 107.149 48.1383 110.503C48.3146 113.327 50.7832 116.328 53.4281 115.093C54.3097 115.093 55.015 114.916 55.7203 114.563C56.073 114.387 56.4257 114.21 56.602 114.034C56.602 114.21 56.602 114.563 56.602 114.74C56.602 115.622 57.3073 116.152 58.0126 116.152C58.3653 116.858 59.0706 117.211 59.7759 116.681C62.0681 114.74 63.8314 112.268 65.242 109.62C65.4184 110.856 65.771 112.092 67.0053 113.151C69.4739 115.446 73.3531 114.916 75.8217 112.798C78.2902 110.503 80.0535 106.62 79.3482 103.266C78.4666 99.9117 75.2927 97.97 72.1188 98.4996Z" fill="black"/>
<path d="M171.745 96.9109C172.626 96.0282 173.684 95.3222 174.918 94.9691C175.447 94.7926 176.329 94.7926 177.034 94.9691C177.211 95.1456 177.563 95.1456 177.74 95.3222C178.092 95.4987 178.092 96.0282 177.74 96.5578C176.329 98.8526 172.626 99.5587 170.158 99.5587C169.981 99.5587 169.805 99.5587 169.805 99.5587V99.3822C169.981 99.0291 170.158 98.6761 170.158 98.323C170.863 97.97 171.216 97.4404 171.745 96.9109ZM164.691 103.972C164.691 103.442 164.515 102.56 164.691 101.853C164.868 101.853 165.044 102.03 165.22 102.03C165.044 102.736 164.868 103.266 164.691 103.972ZM169.805 111.209C169.452 111.209 169.1 111.033 168.747 110.856C167.689 109.797 167.16 108.738 166.984 107.326C167.689 108.914 168.571 110.15 169.805 111.209ZM105.974 134.334C106.503 134.863 107.209 135.04 108.09 134.863C108.443 134.687 108.619 134.687 108.972 134.334C108.972 135.216 108.796 135.922 108.796 136.805C108.796 137.511 108.619 138.394 108.267 138.923C107.209 137.511 106.503 135.922 105.974 134.334ZM108.09 128.155C107.914 129.038 107.738 129.921 107.561 130.803C107.561 130.98 107.385 132.215 107.385 132.215C107.209 132.392 107.032 131.333 106.856 131.156C106.503 129.744 106.327 128.155 106.151 126.567C105.974 125.154 106.151 123.742 106.327 122.33C106.856 120.741 107.385 119.329 108.267 117.917C108.796 117.034 109.325 116.152 109.854 115.446C109.854 115.799 109.854 116.328 109.854 116.681C109.325 120.388 108.619 124.272 108.09 128.155ZM123.784 109.091C123.784 109.267 123.784 109.267 123.784 109.091C123.784 109.267 123.784 109.091 123.784 109.091ZM131.189 110.327C129.779 112.268 127.663 111.739 126.428 109.974C125.899 107.149 128.015 104.501 128.721 101.853C128.721 101.677 128.721 101.5 128.721 101.147C129.955 99.7352 132.247 99.3822 133.658 101.147C134.01 101.5 134.187 101.853 134.363 102.207C134.187 102.913 134.01 103.619 133.834 104.325C132.953 106.267 132.424 108.738 131.189 110.327ZM153.407 99.7352C153.583 99.5587 155.17 97.6169 155.522 98.323C155.699 98.8526 153.407 101.147 153.054 101.5C152.172 102.56 151.114 103.442 150.056 104.501C151.114 102.913 152.172 101.324 153.407 99.7352ZM184.44 105.207C184.44 104.854 184.264 104.501 183.911 104.325C183.558 104.148 182.677 103.972 182.501 104.501C181.795 105.56 181.266 106.796 180.385 107.679C179.327 108.385 178.445 109.267 177.387 109.974C176.858 110.15 176.153 110.327 175.447 110.503C171.921 110.856 169.452 108.208 169.1 104.854C168.923 103.972 169.1 103.089 169.1 102.383C169.981 102.383 170.863 102.383 171.568 102.207C174.037 101.853 176.682 101.324 178.798 100.265C180.737 99.3822 182.501 97.2639 181.09 95.1456C180.737 94.6161 180.208 94.263 179.679 93.91C179.679 93.91 179.679 93.7334 179.503 93.7334C178.798 93.0274 177.74 92.4978 176.682 92.4978C175.976 92.3213 175.271 91.9682 174.566 91.9682C171.921 91.7917 170.158 93.2039 168.923 95.3222C168.747 95.6752 168.571 96.0282 168.394 96.3813C167.689 97.2639 166.984 98.1465 166.278 99.2057H166.102C165.044 98.8526 164.162 98.4996 163.105 99.2057C161.341 100.441 162.047 103.795 162.047 105.56C162.047 106.973 162.223 108.561 162.047 109.974C161.87 110.503 161.87 111.386 161.165 111.562C160.46 111.915 159.049 111.033 158.344 110.68C155.699 109.62 153.054 108.561 150.409 107.326C152.878 105.384 154.993 103.266 156.757 100.794C157.462 99.7352 158.167 98.4996 157.638 97.2639C157.109 96.2048 156.051 95.4987 154.993 95.6752C151.996 95.8517 150.056 99.3822 148.646 101.677C148.822 100.265 148.998 99.0291 149.175 97.6169C149.527 95.1456 150.056 92.8508 150.409 90.3795C150.585 89.3204 150.762 88.2613 150.938 87.0256C150.938 86.6725 151.114 86.3195 151.114 85.9665V85.7899C151.291 83.3186 151.291 81.0238 150.938 78.5525C150.762 77.3169 148.822 77.1403 148.469 78.376C146.882 85.9665 145.648 93.7335 143.532 101.147C143.003 102.56 142.298 103.795 141.593 105.031C140.711 106.62 139.829 108.032 138.948 109.444C138.419 110.15 137.89 111.033 137.184 111.562C137.184 111.386 137.184 111.209 137.008 111.033C136.655 108.914 137.008 106.62 137.008 104.325C137.008 102.03 137.008 99.5587 137.008 97.2639C137.008 95.8517 134.716 95.3222 134.716 96.9109C134.716 97.4404 134.716 97.97 134.539 98.6761C134.187 98.323 134.01 98.1465 133.482 97.7935C133.305 97.617 132.953 97.6169 132.776 97.4404C132.247 97.4404 131.366 97.0874 130.484 96.9109C128.015 96.3813 125.194 97.4404 123.607 99.5587C122.902 100.441 122.549 101.677 122.197 102.736C118.846 104.148 115.849 105.914 113.028 108.208C113.204 106.267 113.38 104.148 113.557 102.207C113.909 98.323 114.085 94.0865 115.672 90.556C115.849 90.0265 116.201 88.9673 116.73 88.9673C116.907 89.3204 117.083 89.4969 117.083 89.85C117.436 91.4387 116.73 93.2039 116.025 94.7926C115.496 95.6752 114.967 96.5578 114.438 97.4404C113.909 98.323 115.143 99.2057 115.849 98.4996C115.849 98.323 116.025 98.323 116.025 98.1465C116.554 98.4996 117.259 98.4996 117.436 97.6169C117.612 96.7343 117.788 95.6752 118.141 94.7926C118.67 93.91 119.023 92.8508 119.199 91.9682C119.728 90.203 119.728 88.4378 118.141 87.0256C117.083 85.9665 115.496 85.6134 114.085 86.3195C112.675 87.0256 111.97 88.7908 111.617 90.3795C110.383 95.4987 110.383 100.971 110.206 106.09C110.206 107.855 110.03 109.444 110.03 111.209C109.677 111.562 109.325 111.915 109.148 112.268C108.972 112.445 108.796 112.621 108.443 112.798C105.974 115.093 104.564 118.094 104.035 121.271C101.919 127.979 102.801 135.746 107.032 141.395C107.385 141.924 107.914 141.924 108.443 141.924C110.383 141.395 110.912 139.453 111.264 137.688C111.617 134.687 111.793 131.686 111.97 128.685C112.146 124.448 112.322 120.212 112.322 115.799C112.499 114.74 112.499 113.504 112.675 112.445C114.086 111.386 115.672 110.327 117.259 109.444C118.67 108.561 120.081 107.679 121.315 106.796C121.315 106.973 121.315 107.149 121.139 107.502C120.962 110.15 121.844 112.798 124.312 114.21C125.37 114.74 126.781 115.093 128.015 114.916C128.721 114.916 129.25 114.74 129.955 114.387C130.131 114.387 130.131 114.21 130.308 114.21C131.718 113.857 133.129 112.798 134.187 111.739C134.187 112.092 134.187 112.445 134.187 112.621C134.363 114.034 135.597 115.269 137.184 114.916C137.89 115.446 138.948 115.622 139.829 115.269C141.769 114.563 142.474 112.268 143.356 110.68C144.414 108.385 145.295 106.09 146.001 103.619C145.472 106.443 144.766 109.267 144.061 112.092C143.885 112.621 144.237 113.151 144.59 113.504C144.766 113.681 144.943 114.034 145.119 114.21C145.472 114.563 146.177 114.563 146.53 114.387C147.588 113.504 147.411 112.268 147.588 111.033C147.764 110.327 147.764 109.62 147.94 108.914C151.82 110.503 155.522 112.268 159.402 113.681C162.399 114.74 164.515 113.151 164.868 109.974C164.868 109.267 164.868 108.561 164.868 107.855C165.044 108.561 165.22 109.091 165.397 109.62C165.573 109.974 165.749 110.503 165.926 110.856L166.102 111.033C167.865 113.681 171.039 115.446 174.213 114.74C176.153 114.21 177.74 112.974 179.15 111.915C180.561 111.209 181.795 110.327 182.853 109.091C183.558 108.385 184.44 107.855 185.145 107.149C185.851 106.62 185.322 105.384 184.44 105.207Z" fill="black"/>
<path d="M300.109 111.562C299.404 111.386 298.875 110.68 298.522 109.974C298.346 109.267 298.346 108.561 298.522 107.855C298.699 106.796 298.875 105.737 299.051 104.678C299.228 104.325 299.228 104.148 299.404 103.795C299.58 103.266 299.933 102.56 300.286 102.03C300.462 102.03 300.638 102.207 300.815 102.207C302.402 102.207 303.46 103.442 303.812 104.854C304.165 106.796 303.283 109.091 302.225 110.68C302.049 110.856 301.873 111.209 301.696 111.386C301.344 111.739 300.815 111.739 300.109 111.562ZM300.462 99.2056C298.875 99.7352 297.817 101.5 297.288 103.089C296.759 104.501 296.407 106.09 296.407 107.502C296.23 108.914 296.23 110.503 296.936 111.739C298.17 114.034 301.344 115.446 303.46 113.327C303.812 112.974 304.165 112.621 304.341 112.092C304.694 111.739 305.047 111.386 305.399 111.033C306.986 108.914 307.868 105.914 306.986 103.266C306.105 100.618 303.283 98.323 300.462 99.2056Z" fill="black"/>
<path d="M228.872 114.563C228.872 114.387 228.872 114.387 228.695 114.21H228.872C228.872 114.21 228.872 114.21 229.048 114.21C229.048 114.387 229.048 114.563 228.872 114.563ZM216.529 98.4996C216.529 98.6761 216.705 98.6761 216.705 98.8526C216.352 99.3822 216 100.088 215.647 100.618C215.823 99.9117 216.176 99.2056 216.529 98.4996ZM247.21 99.9117C246.504 100.971 245.27 101.5 244.036 101.677C242.449 102.03 240.686 102.03 239.099 101.677C240.333 99.0291 242.625 96.5578 245.623 96.9109C247.562 97.0874 248.091 98.4996 247.21 99.9117ZM275.246 100.441C274.893 99.2057 274.717 98.1465 274.011 97.0874C273.482 96.3813 272.248 96.5578 272.248 97.4404C272.248 97.7935 272.248 97.97 272.248 98.323C271.543 98.323 271.014 98.8526 271.366 99.7352C272.777 103.266 273.306 106.973 272.777 110.503C271.543 109.267 270.485 108.032 269.251 106.796C268.193 105.737 266.958 103.795 265.195 104.148C263.608 104.501 262.726 106.796 262.021 108.032C261.139 109.444 260.434 111.033 259.553 112.445C258.671 109.444 258.495 106.09 259.2 102.913C259.376 102.03 258.318 100.794 257.437 101.5C257.437 100.441 256.026 99.7352 255.321 100.618C252.676 103.972 249.855 106.973 246.504 109.62C244.917 110.856 243.33 112.445 241.391 112.974C240.685 113.151 240.157 113.151 239.628 112.974H239.451C239.275 112.798 239.099 112.621 238.746 112.268C238.393 111.739 238.217 111.209 238.217 110.503C237.864 108.561 238.217 106.267 238.57 104.325C240.157 104.678 241.92 104.854 243.507 104.678C245.975 104.501 248.444 103.619 249.678 101.5C252.499 96.9109 247.562 92.3213 242.978 93.7334C239.804 94.7926 237.864 97.6169 236.983 100.971C236.806 100.971 236.63 100.794 236.454 100.794C236.101 100.618 235.748 100.618 235.396 100.794C235.219 100.794 234.867 100.971 234.69 101.324C234.514 101.677 234.338 102.03 234.161 102.383C232.398 105.56 230.635 108.561 228.695 111.739C227.99 110.503 228.343 106.973 228.343 106.09C228.343 105.207 228.343 104.501 228.343 103.619C228.343 103.442 228.343 103.266 228.343 103.089C228.343 101.5 228.695 99.7352 228.166 98.323C227.814 96.9109 226.579 96.0282 224.992 96.2048C221.995 96.3813 220.408 100.088 219.35 102.383C219.174 100.971 218.997 99.7352 218.645 98.323C218.645 97.97 218.292 97.7935 217.939 97.6169C217.587 96.9109 217.234 96.3813 216.705 95.8517C216.176 95.4987 215.647 95.6752 215.471 96.2048C214.413 98.4996 213.355 100.794 212.649 103.266C211.944 105.56 211.239 108.208 211.062 110.68C211.062 111.386 212.297 111.915 212.473 111.033V110.856C212.473 110.856 212.649 110.856 212.649 110.68C213.707 107.326 215.118 104.148 216.881 101.324C216.881 102.03 216.881 102.913 216.881 103.619C216.881 106.443 216.881 109.091 216.881 111.915C216.881 112.974 218.645 113.68 218.821 112.268C219.174 112.268 219.526 112.268 219.703 111.739C220.937 107.679 222.524 103.266 225.874 100.618C225.874 101.324 225.874 102.207 225.874 102.913C225.874 103.619 225.874 104.148 225.874 104.854C225.698 107.855 225.698 111.033 225.698 114.034C225.698 114.74 226.403 115.269 227.108 115.269C227.285 115.799 227.637 116.152 228.166 116.505C230.106 117.387 231.164 115.093 231.869 113.68C233.28 110.68 234.69 107.502 235.748 104.501C235.572 105.031 235.572 105.384 235.572 105.914C235.396 107.855 235.396 109.797 236.101 111.562C236.277 112.268 236.63 113.151 237.159 113.68C237.864 114.74 238.922 115.093 239.98 115.269C240.862 115.446 241.743 115.622 242.625 115.446C245.623 114.74 248.268 112.092 250.56 110.327C251.97 109.091 253.557 107.855 254.968 106.62C254.968 108.738 255.144 110.856 255.673 112.974C256.026 114.563 256.731 116.858 258.318 117.741C260.258 118.8 261.492 116.681 262.374 115.269C263.608 113.504 264.666 111.562 265.724 109.62C265.9 109.267 266.253 108.914 266.429 108.561C266.606 108.738 266.606 108.914 266.782 108.914C267.664 109.797 268.369 110.856 269.074 111.739C269.78 112.621 270.485 113.504 271.19 114.21C271.719 114.916 272.601 115.446 273.482 115.269C275.246 114.916 275.598 112.268 275.775 110.856C276.127 108.561 276.127 106.09 275.951 103.619C275.951 102.736 275.598 101.5 275.246 100.441Z" fill="black"/>
<path d="M287.59 101.853C288.295 102.56 289 103.266 289.706 104.148C289 103.442 288.119 102.736 287.59 101.853ZM290.235 101.5C289 100.265 287.766 99.0291 286.532 97.97C286.003 97.4404 285.121 97.7935 284.769 98.323C283.534 100.618 282.3 102.913 281.066 105.207C280.537 106.443 279.831 107.502 279.302 108.738C278.773 109.797 278.068 111.033 277.539 112.268C277.363 112.798 277.715 113.151 278.068 113.327C278.421 113.68 279.126 113.857 279.302 113.327C280.537 111.386 281.771 109.444 283.005 107.326C283.887 105.913 284.769 104.325 285.65 102.913C286.884 104.854 289.177 106.267 290.764 108.032C291.645 109.091 292.351 110.503 291.469 111.915C290.587 113.327 288.471 114.74 286.708 114.21C286.003 113.504 286.003 112.092 286.884 111.386C288.119 110.503 286.532 108.738 285.297 109.444C284.945 109.62 284.769 109.797 284.592 109.974C283.534 110.68 283.005 112.445 283.534 113.857C283.711 114.563 284.24 115.093 284.769 115.622C286.003 116.858 287.942 117.387 289.882 117.034C292.174 116.505 293.761 114.387 294.467 112.268C295.172 109.797 294.995 106.973 293.232 105.031C292.527 103.619 291.293 102.56 290.235 101.5Z" fill="black"/>
<path d="M297.817 94.9691C297.112 95.3221 297.818 96.5578 298.523 96.3813C300.639 95.8517 302.578 95.3221 304.694 94.6161C306.634 93.91 308.75 93.0274 310.337 91.6152C310.513 91.4387 310.513 91.0856 310.513 90.9091C311.218 90.3795 311.747 89.4969 311.571 88.4378C311.395 87.5552 310.337 87.2021 309.631 87.5552C307.692 88.6143 305.752 89.6734 303.813 90.7326C303.46 90.9091 303.107 91.2621 302.578 91.4387C301.168 91.7917 299.933 91.9682 298.523 91.9682C297.994 91.9682 297.465 92.4978 297.465 92.8508C297.465 93.3804 297.465 93.91 297.641 94.4395C297.641 94.6161 297.817 94.7926 297.817 94.9691Z" fill="black"/>
<path d="M318.623 106.62C319.152 107.326 319.858 107.855 320.563 108.561C319.858 108.032 319.152 107.326 318.623 106.62ZM317.565 105.737C317.565 105.56 317.565 105.56 317.565 105.737C317.918 105.914 318.271 106.267 318.623 106.62C318.447 106.443 318.271 106.267 318.094 106.09C317.742 105.914 317.742 105.737 317.565 105.737ZM327.792 105.737C327.263 104.678 326.382 103.619 325.676 102.56C325.676 102.56 325.676 102.383 325.5 102.383C325.324 102.207 325.324 101.853 325.147 101.677C324.971 101.147 324.795 100.441 324.442 99.9117V99.7352C324.442 99.2057 324.089 98.8526 323.737 98.4996C323.56 98.323 323.384 97.97 323.208 97.7935C322.679 97.2639 321.973 97.617 321.797 98.323C321.797 98.6761 321.797 99.2057 321.973 99.5587C321.797 101.147 322.679 102.736 323.737 103.972C323.913 104.325 324.089 104.678 324.089 105.031C324.618 106.267 325.5 108.032 325.324 109.62C322.502 107.679 320.034 105.56 317.918 102.913C317.565 102.383 316.507 102.207 316.155 102.736C314.744 104.854 313.51 106.973 312.099 109.091C312.099 108.208 312.099 107.326 312.099 106.62C312.099 105.56 312.099 104.501 312.099 103.442C312.099 102.383 312.099 101.324 311.923 100.265C311.923 100.265 311.923 100.088 311.746 100.088C311.746 99.9117 311.746 99.5587 311.57 99.3822C311.394 98.8526 310.512 98.4996 310.336 99.2057C309.807 100.441 309.807 101.853 309.807 103.089C309.631 104.501 309.631 105.914 309.631 107.149C309.631 108.385 309.454 109.797 309.454 111.033C309.454 112.092 309.278 113.151 309.631 114.21C309.983 115.093 311.041 115.799 312.099 115.622C313.157 115.446 313.862 114.74 314.215 113.857C315.273 112.092 316.155 110.15 317.213 108.385C318.623 109.797 320.21 111.033 321.797 112.092C323.384 113.151 327.263 115.799 328.321 112.974C329.203 110.856 328.85 108.032 327.792 105.737Z" fill="black"/>
<path d="M2.46792 157.811C2.46792 156.752 2.64424 155.693 2.9969 154.457C2.46792 157.282 3.17323 160.459 4.9365 162.224C3.17323 161.518 2.46792 159.753 2.46792 157.811ZM36.6754 187.467C36.6754 186.408 36.6754 185.349 36.6754 184.466C36.6754 184.113 36.6754 183.936 36.6754 183.583C36.8517 180.583 37.5571 177.758 38.4387 174.934C38.4387 175.287 38.4387 175.463 38.4387 175.816C38.4387 178.994 38.615 181.995 38.615 185.172C38.2624 186.584 37.5571 189.232 36.6754 187.467ZM46.3734 153.398C46.1971 153.575 46.1971 153.751 46.0208 153.928C45.4918 153.575 44.6102 153.398 44.2575 154.104C43.0232 156.222 42.1416 158.517 41.0836 160.635C40.7309 157.988 40.5546 155.34 41.2599 152.868C41.6126 151.633 39.673 150.75 39.3203 151.986C39.144 152.339 38.9677 152.868 38.9677 153.222C38.615 153.222 38.2624 153.575 38.2624 154.104C38.2624 154.457 38.2624 154.81 38.2624 155.163C38.086 155.516 37.9097 155.869 37.7334 156.222C37.2044 157.458 36.3228 159.4 35.2648 160.106C33.8542 161.165 32.9725 157.988 32.7962 156.928C32.4436 155.516 32.4436 153.928 32.6199 152.515C32.7962 151.809 32.2672 151.456 31.5619 151.28C31.0329 150.927 30.1513 150.927 29.975 151.809C29.2697 154.104 28.388 156.399 27.1537 158.517C26.8011 159.047 26.4484 159.929 26.0958 160.282C25.3905 160.812 25.0378 160.282 24.6852 159.753C24.5088 159.576 24.5088 159.576 24.3325 159.4L24.1562 159.223C23.8035 158.87 23.2745 158.517 22.7456 158.164C22.2166 157.988 21.8639 157.811 21.3349 157.635C22.7456 155.516 24.3325 153.398 25.9195 151.28C26.6248 150.397 25.5668 149.161 24.5088 149.515C24.3325 149.161 23.9799 148.985 23.6272 148.985C21.5113 148.455 19.3953 148.632 17.2794 149.338C16.5741 149.162 15.6925 148.985 14.9872 149.338C14.2818 150.044 13.7529 150.927 13.5765 151.809C12.5186 152.692 11.6369 153.575 11.108 154.634C10.2263 156.222 9.87367 157.811 9.34468 159.576C9.16836 160.282 8.8157 160.989 8.46305 161.518C7.22876 161.518 5.99446 160.812 5.28915 159.576C3.87854 156.575 5.11283 149.515 9.69734 150.574C10.2263 150.574 10.579 150.397 10.7553 150.044C11.108 149.691 11.2843 148.985 10.7553 148.632C2.9969 142.277 -5.11416 160.989 4.40752 164.695C6.17079 165.402 8.28672 165.402 9.69734 164.166C10.05 163.813 10.4026 163.46 10.579 163.107C13.0476 161.871 14.1055 158.341 14.6345 155.869C14.8108 155.163 14.9872 154.457 15.1635 153.751C16.0451 153.045 17.1031 152.339 18.3374 151.986C18.5137 151.986 18.69 152.162 19.0427 152.162C19.748 152.339 20.277 152.339 20.9823 152.515C19.748 154.634 18.69 156.575 17.4557 158.694L17.2794 158.87C17.1031 158.87 17.1031 158.87 16.9268 159.047C15.8688 159.929 15.1635 161.342 15.1635 162.93C15.1635 163.813 16.7504 165.225 17.4557 163.989C17.4557 163.989 17.4557 163.813 17.6321 163.813C17.6321 163.813 17.8084 163.813 17.8084 163.636C18.5137 162.577 19.219 161.518 19.9243 160.459C20.806 160.282 21.6876 160.459 22.5692 161.165C23.2745 161.871 23.8035 162.754 24.6852 163.107C25.2141 163.813 25.9195 164.166 26.8011 164.166C28.388 163.989 29.0933 162.048 29.6223 160.812C29.7987 160.459 29.975 160.106 30.1513 159.753C30.6803 162.401 31.7383 164.695 34.3832 165.225C36.1464 165.578 37.5571 164.695 38.615 163.46C38.615 164.872 38.615 166.284 38.615 167.873C37.7334 170.168 36.8517 172.639 36.1464 174.934C34.2068 181.465 33.6779 188.35 35.7938 194.881C35.9701 195.41 36.6754 195.763 37.2044 195.763C39.8493 195.234 40.9073 193.292 41.2599 190.821C41.6126 188.703 41.6126 186.408 41.4363 184.113C41.4363 183.407 41.6126 182.701 41.6126 182.171C41.9652 179.17 42.1416 176.346 42.1416 173.345C42.1416 171.227 42.1416 169.109 41.9652 166.99C43.9048 162.93 46.1971 158.87 48.313 154.81C48.6657 153.575 46.9024 152.515 46.3734 153.398Z" fill="black"/>
<path d="M91.3384 148.455C90.1041 147.573 87.9882 147.749 86.5776 147.749C84.8143 147.749 82.8747 147.573 81.1114 147.573C80.7588 147.573 80.5825 147.573 80.2298 147.573C80.5825 144.925 80.7588 142.454 80.9351 139.806C80.9351 139.276 80.4061 138.923 80.0535 138.923C80.0535 138.747 80.0535 138.747 80.0535 138.57C80.0535 137.864 78.6429 137.511 78.4665 138.217C77.9375 139.629 77.7612 141.218 77.5849 142.807C77.4086 144.219 77.2322 145.808 77.0559 147.22C76.5269 147.22 75.9979 147.22 75.469 147.22C73.7057 147.22 71.7661 147.043 69.8265 147.22C69.1212 147.22 69.1212 148.102 69.4738 148.455C69.2975 148.808 69.2975 149.515 70.0028 149.691C71.4134 150.221 73.1767 150.221 74.5873 150.397C75.2926 150.397 75.9979 150.574 76.7033 150.574C76.5269 152.692 76.5269 154.634 76.5269 156.752C76.5269 157.811 76.3506 159.047 77.2322 159.929C77.9375 160.812 79.1718 160.989 80.4061 161.165C82.6984 161.342 85.3433 160.459 86.7539 158.694C87.4592 158.341 87.9882 157.988 88.5172 157.458C89.0462 156.929 88.3409 156.222 87.8119 156.222C86.5776 156.222 85.3433 156.752 84.109 157.282C83.58 157.458 82.8747 157.811 82.3457 158.164C81.8167 158.341 81.1114 158.87 80.5825 158.87C79.1718 158.87 79.1718 156.222 79.3482 155.34C79.5245 153.928 79.7008 152.515 79.8771 151.103C83.051 151.28 86.4013 151.28 89.5751 151.28C89.9278 151.28 90.1041 151.103 90.1041 151.103C90.1041 151.103 90.2805 151.103 90.2805 151.28C91.1621 151.456 91.6911 150.75 91.8674 149.868C91.8674 149.162 91.5147 148.808 91.3384 148.455Z" fill="black"/>
<path d="M243.862 150.75C244.039 150.574 244.215 150.574 244.391 150.397C244.215 150.75 244.039 151.103 243.686 151.456C243.157 151.986 242.452 152.515 241.746 152.868C242.452 152.339 243.157 151.456 243.862 150.75ZM248.27 161.695C248.27 161.871 248.27 162.048 248.094 162.224C245.273 160.812 242.452 159.4 239.807 157.635C241.217 155.869 243.862 155.163 245.449 153.575C246.331 152.692 247.036 151.456 246.86 150.221C246.684 148.985 245.802 147.926 244.568 148.102C243.157 148.279 241.923 149.691 241.041 150.574C240.336 151.28 239.807 151.986 239.454 152.692C239.454 152.162 239.63 151.633 239.63 151.103C240.688 144.572 242.099 138.041 242.804 131.509C242.804 130.98 241.923 130.627 241.746 131.156C241.57 131.509 241.57 131.862 241.57 132.215C241.041 131.862 240.336 131.862 239.983 132.568C237.691 136.628 235.575 140.865 233.635 145.102C232.577 147.22 231.696 149.338 230.638 151.456C230.109 152.692 229.403 154.104 228.874 155.516C228.698 155.34 228.522 154.987 228.345 154.81C227.993 154.457 227.464 153.928 227.111 153.575C226.406 151.986 225.524 150.397 224.643 148.808C224.114 147.926 223.232 147.749 222.527 148.455C220.763 150.044 219.353 151.986 217.942 153.928C217.237 154.81 216.708 155.869 216.179 156.929C215.65 157.811 215.297 158.87 214.592 159.576C214.592 159.576 214.592 159.576 214.416 159.576C213.534 160.282 212.829 160.989 211.594 160.989C211.418 160.989 211.065 160.812 210.889 160.812C210.536 160.459 210.36 159.929 210.184 159.576C209.831 158.517 209.831 157.458 209.831 156.575C209.831 156.575 209.831 156.575 209.831 156.399C209.831 156.046 210.007 155.869 210.007 155.516C210.184 154.81 210.184 154.104 210.184 153.398C210.36 153.398 210.36 153.222 210.36 153.045C210.36 152.692 210.184 152.515 210.007 152.515C210.007 152.515 210.007 152.339 209.831 152.339C209.478 151.633 208.421 151.28 207.892 151.986C206.305 153.928 204.894 155.869 203.307 157.811C202.954 158.341 202.073 159.576 201.191 160.635C201.544 159.753 202.073 158.87 202.602 157.988C203.483 156.399 204.718 154.987 205.247 153.045C206.128 150.044 204.012 146.69 200.486 147.396C198.722 147.749 197.665 149.162 196.783 150.574C195.725 152.162 194.843 153.928 194.138 155.693C193.962 155.869 193.962 156.222 193.785 156.399C193.962 154.457 194.314 152.692 194.667 150.75C194.667 150.397 194.491 150.044 194.138 149.868C194.138 148.985 192.727 148.455 192.022 149.162C190.611 150.75 189.201 152.162 187.79 153.751C187.085 154.457 186.203 155.34 185.498 156.399C184.969 155.163 184.44 154.104 183.558 153.045C182.677 151.28 181.795 149.691 180.913 148.102C180.561 147.573 179.679 147.396 179.326 147.749C177.563 149.338 175.976 150.927 174.566 152.692C173.86 153.575 173.155 154.457 172.626 155.34C171.921 156.222 171.215 157.282 170.863 158.341C170.686 159.047 171.568 159.753 172.097 159.223C172.273 159.047 172.273 159.047 172.45 158.87C172.626 158.87 172.802 158.87 172.802 158.87C173.684 158.517 174.213 157.635 174.742 156.929C175.447 156.222 175.976 155.34 176.682 154.634C177.74 153.398 178.798 152.162 179.855 151.103C180.208 151.633 180.737 152.162 181.09 152.692C181.795 154.281 182.5 155.693 183.029 157.282C183.382 158.517 183.911 159.753 182.677 160.459C181.442 161.165 179.855 160.635 178.445 160.282C177.211 159.929 176.682 161.695 177.563 162.401C177.74 162.577 177.916 162.93 178.092 162.93C180.032 163.636 182.5 163.989 184.44 163.46C185.322 163.283 186.203 162.754 186.38 161.695C186.556 161.165 186.556 160.459 186.38 159.753C186.556 159.753 186.556 159.576 186.732 159.576C187.967 158.341 189.201 156.929 190.435 155.693C188.319 165.931 186.556 176.346 185.674 186.584C185.498 187.996 187.79 188.526 187.967 186.937C189.377 186.231 189.906 184.466 190.259 183.054C190.435 181.818 190.611 180.583 190.964 179.347C191.14 178.641 191.14 178.111 191.317 177.405C191.317 177.052 191.493 176.699 191.493 176.523C191.493 176.169 191.493 175.816 191.14 175.463C191.669 172.109 192.022 168.756 192.551 165.402C192.727 164.695 192.727 163.989 192.904 163.283C193.609 161.518 194.314 159.929 195.196 158.341C195.725 157.458 196.254 156.575 196.783 155.693C198.017 153.928 199.428 151.456 201.191 150.221C202.073 149.691 203.307 149.338 202.954 150.927C202.602 151.986 201.896 153.045 201.367 154.104C200.133 156.575 198.722 159.223 197.488 161.695C197.136 162.224 197.665 162.754 198.194 163.107C198.546 163.283 198.899 163.46 199.075 163.46C199.78 164.166 200.838 164.342 201.72 163.989C203.483 163.283 204.718 161.342 205.952 159.929C206.481 159.4 206.834 158.694 207.363 158.164C207.363 159.4 207.892 160.459 208.773 161.342C209.126 161.695 209.655 162.048 210.184 162.224C210.713 162.577 211.242 162.93 212.123 162.93C214.239 163.107 215.65 162.048 216.708 160.459C217.237 159.929 217.942 159.4 218.471 158.87C219.353 157.988 220.058 157.105 220.94 156.222C221.998 154.81 223.056 153.398 223.937 151.986C224.29 152.515 224.643 153.045 224.995 153.575C225.172 153.751 225.172 154.104 225.348 154.281C226.053 156.046 226.935 157.811 227.111 159.753C227.288 161.165 226.759 162.93 225.172 163.107C223.408 163.46 222.703 162.048 222.879 160.635C222.879 159.576 221.116 158.694 220.587 159.929C220.234 160.635 220.411 161.518 220.587 162.224C220.587 163.636 221.821 164.872 223.232 165.402C223.761 165.578 224.466 165.578 224.995 165.578C225.348 165.578 225.701 165.578 225.877 165.578C225.877 165.578 225.877 165.578 226.053 165.578C226.406 165.578 226.759 165.402 226.935 165.225C227.111 165.225 227.111 165.049 227.288 165.049L227.464 164.872C227.64 164.696 227.993 164.519 228.169 164.342C229.58 163.107 230.461 161.342 230.461 159.576C232.577 155.869 234.164 151.809 235.928 147.926C236.633 146.337 237.515 144.572 238.22 142.983C237.162 149.162 236.457 155.34 235.928 161.518C235.399 164.166 235.046 166.814 234.693 169.462C234.517 170.697 236.457 171.05 236.809 170.168V169.991C237.162 168.402 237.515 166.814 237.867 165.225C238.043 165.049 238.22 164.872 238.22 164.519C238.572 162.93 238.925 161.165 239.454 159.576C242.628 161.695 245.978 163.636 249.505 165.225C250.21 165.578 251.092 165.225 251.092 164.342C251.092 163.636 251.092 162.93 250.915 162.224C250.034 161.165 248.447 160.635 248.27 161.695Z" fill="black"/>
<path d="M253.028 161.342C253.028 161.165 252.852 161.165 252.852 160.989C253.028 161.165 253.204 161.165 253.381 161.165C253.381 161.342 253.557 161.342 253.557 161.518C253.733 161.871 254.086 162.224 254.262 162.577C253.91 162.224 253.381 161.871 253.028 161.342ZM254.791 156.222C255.144 155.34 255.497 154.457 256.202 153.751C256.907 153.045 257.789 152.515 258.847 152.339C259.376 152.339 259.905 152.339 260.258 152.339C260.434 152.339 260.787 152.515 260.787 152.515C260.787 152.515 260.963 152.515 260.963 152.692C260.963 152.692 261.492 152.868 261.316 152.868C261.845 153.222 262.021 153.398 262.374 153.928C262.726 154.457 262.903 155.163 262.903 155.693C262.903 157.105 262.374 158.517 261.492 159.753C261.139 160.282 260.61 160.812 260.258 161.518C259.905 162.048 259.376 162.577 258.847 162.754C257.789 163.107 256.555 162.224 256.026 161.342C254.791 159.576 254.439 157.811 254.791 156.222ZM261.139 149.338C258.494 148.632 255.673 150.044 253.91 151.986C253.557 151.809 253.028 151.633 252.676 151.986C250.207 154.281 249.149 158.341 250.736 161.518C252.323 164.519 256.202 166.461 259.552 165.049C262.726 163.636 265.547 160.635 266.076 157.105C266.605 153.928 264.666 150.221 261.139 149.338Z" fill="black"/>
<path d="M282.476 151.809C281.947 150.574 281.595 149.515 280.889 148.455C280.537 147.926 280.008 147.926 279.655 147.926C278.597 147.043 277.01 148.102 277.892 149.338C280.008 151.809 281.066 155.163 281.066 158.341C278.95 156.575 276.834 154.634 275.071 152.515C274.718 152.162 273.836 151.809 273.484 152.162C271.72 153.751 271.015 155.869 270.486 158.164C270.31 158.87 270.133 159.576 269.957 160.282C269.957 159.223 269.957 158.341 270.133 157.282C270.31 154.987 270.839 152.692 270.486 150.397C270.486 150.044 270.133 149.868 269.957 149.868C269.428 149.515 268.723 149.338 268.547 150.044C267.312 154.81 267.136 159.929 267.489 164.695C267.489 165.402 268.194 165.755 268.899 165.755C268.899 165.755 268.899 165.755 268.899 165.931C269.781 166.637 270.839 166.637 271.72 166.108C272.602 165.402 273.131 163.989 273.66 162.93C274.189 161.342 274.542 159.753 274.718 158.164C275.6 159.047 276.481 159.929 277.539 160.812C278.774 161.695 280.889 163.107 282.124 162.401C282.653 162.754 283.711 162.93 284.063 162.048C284.769 159.753 284.416 157.458 283.711 155.34C283.358 153.928 282.829 152.868 282.476 151.809Z" fill="black"/>
<path d="M145.119 138.217C145.119 138.394 145.119 138.57 145.295 138.747C145.295 138.923 145.471 138.923 145.471 139.1L145.648 139.276C145.648 139.276 145.824 139.453 146 139.453L146.177 139.629C146.529 139.806 146.882 139.982 147.235 139.982C147.764 139.982 148.293 139.806 148.469 139.276C148.645 138.923 148.822 138.394 148.822 138.041C148.822 137.688 148.822 137.158 148.645 136.805C148.645 136.628 148.645 136.628 148.469 136.452C148.469 136.275 148.293 136.099 148.116 136.099C148.116 135.922 147.94 135.922 147.587 135.746C147.411 135.746 147.058 135.746 146.706 135.746C146.529 135.746 146.177 135.746 146 135.922C145.824 136.099 145.471 136.099 145.295 136.275C145.119 136.452 145.119 136.452 144.942 136.628C144.942 136.628 144.942 136.628 144.942 136.805C144.942 136.805 144.942 136.981 144.766 136.981L144.59 137.158V137.335C144.59 137.511 144.59 137.688 144.766 137.864C144.942 138.041 144.943 138.041 145.119 138.217Z" fill="black"/>
<path d="M155.875 137.511C155.875 137.511 155.875 137.335 155.875 137.511C155.875 137.335 155.875 137.511 155.875 137.511ZM156.051 135.746C156.051 135.569 155.875 135.393 155.699 135.216C155.522 135.04 155.346 135.04 155.17 134.863C154.993 134.863 154.641 134.863 154.464 135.04C154.288 135.216 154.112 135.393 153.935 135.569C153.935 135.746 153.759 135.746 153.759 135.922C153.759 136.099 153.759 136.275 153.583 136.275C153.583 136.452 153.406 136.628 153.406 136.628C153.23 137.158 153.583 137.511 153.935 137.864C154.112 138.041 154.641 138.217 154.817 138.041C154.993 138.041 155.17 137.864 155.17 137.688H155.346C155.522 137.688 155.522 137.511 155.699 137.335C155.699 137.158 155.875 137.158 155.875 136.981C155.875 136.805 156.051 136.452 155.875 136.275C156.404 136.275 156.228 136.099 156.051 135.746Z" fill="black"/>
<path d="M101.566 148.808C101.919 148.632 102.271 148.632 102.624 148.455C104.211 148.455 105.269 149.338 105.269 150.927C105.269 151.28 105.445 152.162 105.269 152.339C105.269 152.339 105.269 152.515 105.093 152.515C104.916 152.515 104.387 152.339 104.211 152.339C103.153 152.162 101.919 151.986 100.861 151.809C99.9791 151.633 98.9212 151.633 98.0395 151.456C98.2158 151.28 98.2158 151.103 98.3922 151.103C98.9212 150.574 99.4501 149.868 100.155 149.338C100.684 149.338 101.213 148.985 101.566 148.808ZM117.612 158.87C114.438 159.223 113.204 155.516 115.143 153.398C115.496 152.868 115.32 152.339 114.967 151.986C115.143 151.809 115.32 151.633 115.496 151.456C115.672 151.456 115.849 151.456 116.025 151.28C116.73 150.75 117.788 150.044 118.846 149.868C119.199 149.868 119.375 149.691 119.728 149.691H119.904C120.257 149.691 120.609 149.868 120.962 150.044C122.549 150.927 121.844 153.398 121.491 154.81C121.315 155.34 121.138 156.046 120.962 156.752C119.904 157.635 118.846 158.694 117.612 158.87ZM150.761 163.46C149.88 163.989 150.056 161.518 150.056 161.165C150.409 159.4 150.761 157.811 151.114 156.046C151.467 154.457 151.996 152.868 152.348 151.28C152.525 150.574 152.701 149.868 152.525 149.338C152.525 149.162 152.525 148.985 152.525 148.985C152.348 148.455 152.348 148.102 151.819 147.749C151.467 147.396 150.409 146.867 150.056 147.573C148.645 149.868 147.059 152.162 145.648 154.457C144.943 155.516 144.237 156.752 143.532 157.811C143.179 158.341 142.827 158.87 142.474 159.576C142.474 159.576 142.298 159.576 142.298 159.753C140.711 160.282 141.063 158.517 141.24 157.458C141.769 154.634 142.827 151.809 144.414 149.338C145.119 148.279 143.885 147.043 142.65 147.749C141.063 148.632 139.124 148.985 137.184 148.985C136.126 148.985 135.245 148.808 134.187 148.455C133.481 148.279 132.776 148.102 132.071 148.632C131.365 148.985 131.189 149.691 131.013 150.397C130.836 150.927 130.66 151.456 130.66 151.986C130.66 150.574 130.307 148.985 129.249 148.455C128.897 148.279 128.368 148.102 128.015 148.279C126.428 147.573 125.37 149.162 124.489 150.574C123.96 149.338 122.902 148.632 121.667 148.102C120.786 147.749 119.904 147.396 119.022 147.396C118.141 147.396 117.259 147.573 116.554 147.926C116.554 147.926 116.378 147.926 116.378 148.102C115.32 148.455 114.262 148.985 113.556 149.868C113.38 149.691 113.027 149.691 112.675 149.868C112.322 150.044 112.146 150.397 112.146 150.574C111.264 151.986 110.735 153.575 109.677 154.987C108.972 156.046 108.09 156.929 107.209 157.811C106.327 158.341 105.445 158.694 104.564 159.047C101.919 159.929 97.6869 159.753 95.5709 157.458C95.5709 156.929 95.5709 156.222 95.7473 155.516C99.6265 155.693 103.329 155.693 107.209 155.693C108.09 155.693 108.267 154.81 108.09 154.281C107.914 153.575 107.738 152.692 107.561 151.986C107.561 150.927 107.385 149.691 106.856 148.808C106.503 147.749 105.622 147.043 104.387 146.514C103.858 146.337 103.329 146.337 102.624 146.337C101.39 146.337 100.155 146.514 99.0975 147.22C98.5685 147.573 98.0395 147.926 97.5105 148.279C96.4526 148.985 95.5709 149.868 94.8656 150.574C94.513 150.927 94.3366 151.28 93.984 151.633C93.8077 151.633 93.8077 151.633 93.6313 151.633C92.7497 151.809 92.7497 152.515 93.1024 153.045C92.7497 153.751 92.397 154.457 92.2207 155.163C92.0444 156.222 92.397 157.105 93.1024 157.811C93.1024 157.988 93.1024 158.341 93.2787 158.517C94.513 163.107 100.155 164.342 104.211 162.754C106.503 161.871 108.443 160.282 110.206 158.517C110.911 157.988 111.44 157.458 111.969 156.929C111.969 157.105 111.969 157.105 112.146 157.282C112.498 159.4 113.556 161.165 115.672 162.048C118.846 163.283 121.667 160.989 122.902 158.164C123.607 157.811 123.96 157.105 124.312 156.399C124.489 156.046 124.665 155.869 124.665 155.516C124.841 155.516 125.018 155.34 125.018 154.987C125.018 154.81 125.194 154.634 125.194 154.281C125.194 154.104 125.37 153.928 125.37 153.928C125.723 153.045 126.252 152.339 126.605 151.456V151.28C126.957 150.927 127.31 150.574 127.663 150.397C128.191 152.339 128.368 154.281 128.544 156.222C128.72 158.517 128.72 160.635 128.72 162.754C128.72 163.813 130.484 164.872 131.013 163.46C132.071 160.635 132.952 157.811 134.01 155.163C134.187 154.457 134.539 153.751 134.716 153.222C134.892 152.868 134.892 152.515 135.068 152.162C135.068 151.986 135.245 151.809 135.245 151.633C135.245 151.633 135.245 151.633 135.421 151.809C135.95 151.633 137.184 151.986 137.713 151.986C138.066 151.986 138.242 151.986 138.595 152.162C138.242 153.751 137.713 155.34 137.537 156.929C137.184 158.517 137.184 160.282 138.066 161.695C139.653 164.519 143.885 164.342 144.943 161.518C145.295 161.165 145.824 160.635 146.177 160.282C146.706 159.753 147.059 159.047 147.587 158.517C147.587 158.694 147.587 158.694 147.587 158.87C147.235 161.165 146.353 165.578 149.703 166.108C149.88 166.108 150.056 166.108 150.232 166.108C150.938 166.284 151.643 166.108 152.348 165.755C153.583 164.519 151.996 162.577 150.761 163.46Z" fill="black"/>
<path d="M212.121 143.513C212.65 143.336 213.003 142.983 213.355 142.454L213.532 142.277C213.708 142.101 213.708 141.924 213.708 141.748C213.708 141.571 213.708 141.395 213.532 141.218C213.532 141.218 213.708 141.218 213.708 141.041C213.884 141.041 213.884 140.865 213.884 140.688V140.512C213.884 140.335 213.884 140.335 213.884 140.159C213.884 140.159 213.884 139.982 213.708 139.982C213.708 139.806 213.532 139.806 213.532 139.629L213.355 139.453C213.179 139.453 213.003 139.453 213.003 139.453C212.826 139.276 212.65 139.276 212.474 139.276C212.297 138.923 211.945 138.923 211.592 139.1C211.063 139.453 210.358 139.806 210.005 140.335C209.829 140.688 209.652 141.041 209.652 141.395C209.652 141.748 209.652 142.101 209.829 142.454C210.358 143.16 211.239 143.689 212.121 143.513Z" fill="black"/>
<path d="M295.17 173.698C294.641 179.17 293.936 184.819 292.702 190.115C292.349 191.703 291.996 193.645 291.291 195.057C291.115 195.41 290.586 196.293 289.881 195.763C289.704 195.587 289.704 194.881 289.704 194.704C289.528 193.822 289.528 192.939 289.352 191.88C288.999 188.703 288.999 185.525 289.352 182.348C290.939 179.347 293.054 176.523 295.17 173.698ZM305.574 159.223C305.574 159.929 305.574 160.635 305.75 161.342C305.574 160.812 305.221 160.282 305.221 159.753C305.397 159.576 305.574 159.4 305.574 159.223ZM340.839 158.164C340.486 158.87 340.134 159.753 339.605 160.459C338.9 160.989 338.018 161.518 337.313 162.048C336.607 161.342 336.078 160.459 335.902 159.4C335.726 157.811 335.902 156.222 335.549 154.81C335.549 153.222 335.373 151.28 333.257 151.103C331.141 150.927 329.554 153.222 328.32 154.987C327.967 155.516 327.615 155.869 327.262 156.222C326.733 156.929 326.38 157.458 325.851 158.164C326.028 156.929 326.204 155.693 326.557 154.457C327.967 146.514 329.378 138.57 330.612 130.627C330.788 129.214 328.849 128.685 328.144 129.921C323.206 139.276 322.148 150.75 315.801 159.4C315.448 159.929 315.095 160.282 314.566 160.812C313.508 161.695 312.45 162.401 311.216 162.754C308.042 163.636 307.513 160.635 307.866 158.164C308.395 153.751 311.921 150.221 316.153 148.985C316.682 148.808 316.506 148.455 316.33 148.102C316.506 147.573 315.977 147.043 315.448 147.043C311.04 147.043 305.926 150.044 303.634 153.928C302.929 155.34 302.576 156.929 302.576 158.517C302.4 158.87 302.4 159.047 302.223 159.4C302.047 159.753 301.871 159.929 301.695 160.282C300.813 161.518 299.755 162.754 298.873 163.813C299.05 160.812 299.05 157.811 298.873 154.987C299.226 153.575 299.402 152.162 299.402 150.75C299.402 150.044 298.697 149.162 297.815 149.515C296.757 149.868 296.405 150.75 296.228 151.633C296.052 152.692 296.052 153.928 296.052 155.163C295.876 156.222 295.699 157.282 295.347 158.341C294.641 159.929 293.407 162.048 291.997 161.871C291.82 161.871 291.468 161.695 291.291 161.695C291.115 161.518 290.939 161.518 290.762 161.342C290.586 161.342 290.586 161.165 290.41 161.165C290.233 160.989 290.057 160.812 289.881 160.459C289.175 159.047 289.175 157.105 288.999 155.693C288.999 153.398 288.999 151.103 288.646 148.808C288.47 148.102 287.412 147.926 287.236 148.632C287.236 148.808 287.236 148.808 287.236 148.985C287.236 148.985 287.236 148.985 287.236 149.162C286.53 151.986 286.178 154.987 286.883 157.811C286.883 158.164 287.059 158.517 287.236 158.87C287.588 161.165 288.999 163.46 291.468 164.166C293.231 164.695 294.641 164.166 295.699 163.107C295.699 164.696 295.523 166.108 295.523 167.696C295.17 168.049 294.818 168.579 294.289 168.932C291.996 171.227 289.881 173.698 288.47 176.699C287.765 178.288 287.412 180.053 287.059 181.818C286.53 183.23 286.001 184.643 285.825 186.231C285.296 189.762 285.649 193.292 286.707 196.646C287.588 199.294 289.704 201.589 292.525 199.294C294.818 197.352 295.347 194.351 295.876 191.703C296.581 187.643 297.11 183.76 297.639 179.7C297.992 176.523 298.168 173.169 298.521 169.991C300.46 167.696 302.223 165.402 303.81 162.754C304.339 163.636 305.045 164.519 305.926 165.049C309.982 167.696 314.919 165.225 317.74 161.695C317.917 161.518 317.917 161.518 318.093 161.342C318.269 161.165 318.269 161.165 318.446 160.989C320.385 159.047 321.972 156.752 323.383 154.457C323.03 157.635 322.677 160.812 322.677 164.166H322.501C320.914 165.578 323.206 167.343 324.441 166.108C324.617 166.108 324.617 165.931 324.793 165.755C326.204 163.46 327.615 161.165 329.025 158.87C329.907 157.635 330.612 156.399 331.494 155.34C331.494 155.34 331.494 155.163 331.67 155.163C332.023 154.81 332.375 154.634 332.728 154.634C332.904 154.634 333.081 154.81 333.257 154.987C333.257 156.575 333.257 158.341 333.786 159.929C333.786 160.812 333.962 161.518 334.315 162.224C334.844 163.283 335.726 164.166 336.784 164.696C337.136 164.872 337.489 165.049 338.018 164.872C340.663 165.049 342.602 161.695 343.131 159.4C343.308 158.341 341.544 156.929 340.839 158.164Z" fill="black"/>
<path d="M351.244 166.637C350.891 166.461 350.362 166.284 350.01 166.461C349.481 166.108 348.776 166.108 348.247 166.637C347.894 166.814 347.894 167.167 347.894 167.52C347.541 167.696 347.365 168.226 347.189 168.579L347.012 168.756C347.012 168.932 346.836 169.285 346.836 169.462C346.836 169.815 346.836 170.168 347.012 170.521L347.189 170.697C347.189 170.874 347.365 170.874 347.541 170.874C347.894 171.58 348.599 171.933 349.305 172.109C350.715 172.462 352.302 171.756 353.007 170.521C353.536 169.109 352.655 167.343 351.244 166.637Z" fill="black"/>
<path d="M356.183 129.391C356.888 129.568 357.417 129.921 357.946 130.45C358.652 131.156 359.004 131.862 359.357 132.745C358.652 131.333 357.594 130.274 356.183 129.391ZM361.12 130.98C358.828 126.567 353.538 125.684 349.306 127.449C347.719 127.979 346.132 128.861 345.074 130.274C344.545 130.627 344.193 130.98 343.84 131.333C341.372 134.157 341.195 138.923 344.898 140.688C345.427 140.865 345.603 140.688 345.78 140.335C346.661 141.041 347.719 139.806 346.838 139.1C346.661 138.923 346.661 138.747 346.485 138.57C346.661 136.981 345.956 135.393 346.132 133.981C346.838 132.215 348.425 131.156 350.188 130.803C351.951 130.45 354.42 130.803 355.83 132.039C357.594 133.628 356.888 136.275 356.007 138.217C354.067 142.101 351.246 145.278 349.13 149.162C347.896 151.28 344.898 157.458 348.777 158.694C349.483 158.87 350.012 158.694 350.188 158.164C350.188 157.988 350.364 157.811 350.364 157.635C350.364 155.34 351.07 153.398 352.304 151.633C352.833 151.103 353.362 150.574 354.067 150.044C355.83 148.279 357.594 146.514 358.828 144.395C361.297 140.688 363.236 135.216 361.12 130.98Z" fill="black"/>
</g>
<defs>
<clipPath id="clip0_7_1421">
<rect width="362" height="200" fill="white"/>
</clipPath>
</defs>
</svg>
