<svg width="470" height="153" viewBox="0 0 470 153" fill="none" xmlns="http://www.w3.org/2000/svg">
<path d="M313.739 126.823C313.739 127.011 313.927 127.198 314.115 127.386C311.863 127.761 309.798 128.137 307.547 128.324C309.611 127.949 311.675 127.386 313.739 126.823ZM134.524 127.574C134.337 127.574 133.961 127.574 133.774 127.574C133.961 127.574 134.337 127.574 134.524 127.574ZM51.2034 111.623C51.391 111.623 51.391 111.435 51.5787 111.435H51.7663C52.1417 111.623 52.7046 111.81 53.08 111.998C52.3293 111.81 51.5787 111.623 50.6404 111.623C50.828 111.623 51.0157 111.623 51.2034 111.623ZM367.41 41.0625C367.035 40.8748 366.659 40.8748 366.284 40.6871C366.284 40.3118 366.284 40.1241 366.284 39.7488C366.847 40.1241 367.598 40.3118 368.161 40.6871C367.973 41.0624 367.785 41.0625 367.41 41.0625ZM223.287 52.1344C224.038 51.1961 224.601 50.4455 225.352 49.5072C225.539 49.5072 225.915 49.5071 226.102 49.3195C225.164 50.2578 224.226 51.1961 223.287 52.1344ZM163.799 100.175C163.612 100.363 163.612 100.551 163.424 100.738H163.236C163.424 100.551 163.612 100.363 163.799 100.175ZM79.3523 83.4736C79.9153 82.9106 80.4783 82.3476 81.0412 81.9723C80.1029 83.4735 79.3523 84.9749 78.414 86.4761C77.851 87.0391 77.2881 87.4144 76.7251 87.9774C77.6634 86.4761 78.6017 84.9749 79.3523 83.4736ZM468.746 62.0804C468.559 61.3297 468.559 60.7668 468.371 60.0161C466.494 52.3221 460.302 45.9416 452.795 42.0008C444.913 37.8723 435.906 36.5586 427.273 34.4944C419.392 32.6178 412.073 29.8029 404.942 26.425C389.929 19.4816 375.667 11.2246 359.716 5.97011C340.387 -0.410323 320.12 -0.222675 299.852 0.152645C279.961 0.527964 260.069 1.09094 240.177 1.46626C220.285 1.84158 200.58 2.2169 180.689 2.96754C164.925 3.53052 148.974 3.90586 133.586 6.53309C125.892 7.84671 118.573 9.72329 111.442 12.3505C110.128 12.3505 109.003 12.7258 107.689 13.2888C106.563 13.8518 105.625 14.4148 104.686 15.1654C104.499 15.1654 104.311 15.3531 104.123 15.3531C102.81 15.5408 101.496 15.7284 100.183 15.9161C98.6813 16.1037 97.9306 17.042 97.743 17.9803C94.9281 18.731 92.1132 20.0446 89.4859 21.3582C84.9821 23.9854 80.8536 27.551 77.851 31.4918C76.3498 33.5561 75.0361 35.6203 74.0978 37.8722C72.9719 40.3118 72.4089 43.1267 71.0953 45.3786C69.2187 48.7565 64.9025 49.8825 60.9617 50.6331C49.1391 53.0727 37.3165 54.1986 26.2446 58.7025C15.3603 63.2063 6.54034 70.7127 2.22416 80.6587C-2.27967 90.98 0.15991 102.052 8.6046 110.121C15.9233 117.065 26.8076 120.443 37.1289 122.882C63.7766 129.263 90.9872 134.142 118.01 139.021C131.897 141.648 145.596 144.088 159.483 146.34C173.182 148.592 186.881 151.219 200.768 152.157C215.03 153.095 229.48 152.157 243.555 150.843C257.441 149.717 271.328 148.216 285.027 146.527C312.426 143.149 339.449 138.458 366.472 132.828C387.114 128.512 407.757 123.07 426.335 113.687C435.343 109.183 444.163 103.741 451.294 97.1727C458.613 90.417 465.931 81.9723 469.122 72.9646C470.435 69.3991 470.247 65.4583 468.746 62.0804Z" fill="black"/>
<path d="M102.997 63.7693L103.184 50.4455C103.184 44.628 102.809 40.1242 102.246 37.1216C102.621 36.5586 103.184 36.371 103.747 36.371C104.686 36.371 105.436 36.5586 106.375 36.9339C107.125 37.3093 107.688 37.8723 108.251 38.6229C109.189 40.1242 109.752 41.6254 109.752 43.502C109.752 45.3786 109.377 47.0676 108.627 48.5689C107.876 50.0701 106.75 51.1961 105.061 52.1344L105.436 63.7693C105.436 64.8953 105.061 65.2706 104.123 65.2706C103.747 65.2706 103.56 65.0829 103.372 64.8953C103.184 64.7076 102.997 63.957 102.997 63.7693ZM104.873 49.8825C106.75 48.0059 107.688 45.9416 107.688 43.502C107.688 42.1884 107.501 41.0625 107.125 40.4995C106.938 40.3119 106.75 39.9365 106.75 39.9365C106.562 39.7488 106.375 39.5612 106.187 39.3735C105.812 38.9982 105.249 38.6229 104.498 38.0599C104.498 39.3735 104.498 41.4378 104.686 44.065C104.873 46.6923 104.873 48.5689 104.873 49.8825ZM118.572 57.2012L118.948 59.4531C118.948 59.8284 119.135 60.5791 119.323 61.705C119.511 62.831 119.698 63.5817 119.698 63.957C119.698 64.52 119.511 64.8952 119.135 65.0829C118.572 65.0829 118.197 65.0829 117.822 64.8953C117.447 64.7076 117.447 64.3323 117.447 63.957C117.447 62.831 117.259 61.3297 116.884 59.2655L113.13 58.7025C112.943 59.4531 112.755 60.3914 112.567 61.5174C112.38 62.4557 112.38 63.2063 112.192 63.7693C112.004 64.7076 111.629 65.0829 110.878 65.0829C110.503 65.0829 110.315 64.8953 110.128 64.7076C109.94 64.5199 109.752 64.3323 109.752 63.957V63.5816C111.441 57.0135 112.755 50.8208 113.506 44.628C113.506 44.4403 113.506 43.8774 113.693 43.1267C113.881 41.2501 114.069 40.1242 114.444 39.5612H115.758C116.133 39.5612 116.321 39.5612 116.696 39.7488C116.884 39.9365 117.071 40.1242 117.071 40.4995C117.071 42.3761 117.259 45.191 117.822 48.9442C118.197 52.6974 118.572 55.5123 118.572 57.2012ZM113.13 57.2012C113.506 57.3889 114.632 57.7642 116.508 57.7642C116.508 57.3889 116.321 56.8259 116.321 55.8876C116.321 54.9493 116.321 53.8233 116.133 52.5097C115.945 51.1961 115.945 49.5072 115.758 47.8182C115.57 45.9416 115.382 44.8157 115.382 43.8774C114.256 50.2578 113.506 54.7616 113.13 57.2012ZM136.588 66.7719C135.837 66.7719 135.462 66.0212 135.462 64.3323V59.4531C135.462 58.3271 135.462 56.6383 135.274 54.574C135.087 52.5097 135.087 51.0084 135.087 50.2578C135.087 49.5071 135.087 48.5689 135.087 47.6306C135.087 46.5046 135.087 45.7539 135.087 45.3786C134.899 45.7539 134.524 47.4429 133.773 50.6331C131.896 58.7025 130.583 62.831 129.644 62.831C129.081 62.831 128.706 62.6433 128.518 62.4557C128.331 62.268 128.143 61.705 128.143 61.3297C128.143 60.2037 127.768 57.7642 126.83 54.011C125.891 50.2578 125.141 47.4429 124.39 45.5663C123.827 54.3863 123.639 60.3914 123.639 63.394V64.5199C123.639 64.8953 123.639 65.2706 123.452 65.4582C123.264 65.6459 123.076 65.8336 122.701 65.8336C122.326 65.8336 121.95 65.8336 121.763 65.6459C121.575 65.4582 121.387 65.2705 121.387 65.0829C121.387 62.4557 121.575 58.7025 121.95 53.6357C122.326 48.5689 122.513 44.628 122.513 42.1884C122.326 42.0008 122.326 41.6255 122.326 41.4378C122.326 41.0625 122.513 40.8748 122.701 40.8748C123.076 40.6871 123.264 40.6871 123.639 40.6871C124.202 40.6871 125.328 43.1267 126.83 48.1935C128.331 53.2603 129.457 56.6382 129.832 58.7025C130.02 58.3272 130.207 57.3889 130.583 55.8876C130.958 54.3863 131.333 52.885 131.709 51.1961C132.084 49.5071 132.459 48.0059 133.022 46.3169C134.148 42.5637 134.899 40.6871 135.65 40.6871C136.025 40.6871 136.213 40.6871 136.588 40.8748C136.963 41.0625 136.963 41.2501 136.963 41.6254C136.963 43.502 136.963 46.1293 137.151 49.6948C137.338 53.2604 137.338 55.8876 137.338 57.5765V61.5174C137.338 61.705 137.338 62.6433 137.526 64.1446V64.8953C137.714 65.0829 137.714 65.4583 137.714 65.8336C137.714 66.2089 137.526 66.3966 137.338 66.7719C137.338 66.5842 136.963 66.7719 136.588 66.7719ZM144.094 52.3221L144.282 60.2038V61.3297V62.4557H144.845H145.971C146.909 62.4557 147.472 62.831 147.472 63.394C147.472 63.7693 147.284 63.9569 147.097 64.1446C146.909 64.3323 146.534 64.5199 146.158 64.5199H144.47C143.344 64.5199 142.593 64.5199 142.218 64.5199C142.03 64.5199 141.842 64.5199 141.842 64.5199C140.904 64.5199 140.529 64.3323 140.529 63.7693C140.529 63.5816 140.529 63.394 140.716 63.0187C140.904 62.831 141.092 62.6433 141.092 62.6433H142.218V62.0804L142.03 54.1987L142.218 45.754C142.218 44.2527 142.218 42.9391 142.03 41.8131H141.279H140.341C139.966 41.8131 139.778 41.8131 139.403 41.6254C139.215 41.4378 139.027 41.2501 139.027 40.8748C139.027 40.3118 139.59 39.9365 140.904 39.9365H145.408C146.346 39.9365 146.909 40.1242 146.909 40.6871C146.909 40.8748 146.721 41.0625 146.534 41.2501C146.346 41.4378 145.971 41.6254 145.783 41.6254H143.907C144.094 42.5637 144.094 43.8774 144.094 45.191V52.3221ZM151.038 70.5251C151.601 70.5251 151.976 70.3374 152.539 69.9621L152.727 70.5251C152.727 70.9004 152.539 71.088 151.976 71.2757C151.601 71.4634 151.038 71.651 150.662 71.651C150.287 71.651 149.912 71.4633 149.536 71.088C149.161 70.7127 149.161 70.1497 149.161 69.7744C149.161 68.8361 149.536 67.8978 150.099 66.9595C150.85 66.0212 151.601 65.2706 152.539 64.7076L153.477 65.2706C153.29 65.4582 153.102 65.4582 152.914 65.6459C152.727 65.8336 152.539 66.0212 152.164 66.2089C151.976 66.3965 151.788 66.5842 151.788 66.5842C151.788 66.5842 151.601 66.7718 151.413 66.9595C151.225 67.1471 151.038 67.3348 151.038 67.3348C151.038 67.5225 150.85 67.5225 150.662 67.8978C150.475 68.0854 150.475 68.2731 150.475 68.4608C150.287 68.8361 150.287 69.3991 150.287 69.7744C150.662 70.3374 150.662 70.5251 151.038 70.5251ZM149.724 45.754L149.536 42.5637C149.536 40.8748 150.099 39.9365 151.038 39.9365C151.788 39.9365 152.539 40.1242 153.853 40.3118C154.978 40.6872 155.541 41.0625 155.541 41.4378C155.541 42.0008 155.166 42.3761 154.416 42.5637C153.29 42.1884 152.351 42.0008 151.601 41.8131C151.601 42.3761 151.601 42.939 151.601 43.502L151.413 48.9442C151.413 48.9442 151.413 49.1318 151.601 49.5072H152.914C154.04 49.5072 154.791 49.8825 154.791 50.4455C154.791 50.6331 154.603 51.0084 154.416 51.1961C154.228 51.3837 153.853 51.5714 153.665 51.5714C153.29 51.5714 152.914 51.5714 152.539 51.5714H151.601C151.601 52.5097 151.788 53.448 151.788 54.3863L151.601 61.1421C151.601 62.4557 151.601 63.2063 151.601 63.2063H154.416C155.354 63.2063 155.917 63.5816 155.917 64.1446C155.917 64.5199 155.729 64.7076 155.354 64.8953C154.978 65.0829 154.603 65.0829 154.228 65.0829H151.038C150.662 65.0829 150.475 64.8953 150.099 64.7076C149.912 64.5199 149.724 64.1446 149.724 63.957V63.0187L149.536 56.6382L149.724 45.754ZM161.171 64.1446V61.3297C161.171 61.3297 161.171 60.9544 161.171 60.0161C160.984 59.6408 160.796 56.8259 160.608 51.5714C160.233 46.317 160.233 42.9391 160.045 41.8131H159.858C157.793 41.8131 156.855 41.4378 156.855 40.6871C156.855 40.4995 157.043 40.3118 157.23 40.1242C157.418 39.9365 157.793 39.9365 157.981 39.9365L163.048 40.3118H163.611C164.361 40.3118 164.737 40.6872 164.737 41.2501C164.737 41.6255 164.549 41.8131 164.361 42.0008C164.174 42.1884 163.798 42.3761 163.423 42.3761L161.734 42.1884V42.5637C161.734 45.0033 161.922 48.5689 162.297 53.2604C162.673 57.9518 162.86 61.5174 162.86 63.957C162.86 64.3323 162.673 64.5199 162.485 64.7076C162.297 64.8953 161.922 65.0829 161.547 65.0829L161.171 64.1446ZM175.058 57.2012L175.433 59.4531C175.433 59.8284 175.621 60.5791 175.809 61.705C175.996 62.831 176.184 63.5817 176.184 63.957C176.184 64.52 175.996 64.8952 175.621 65.0829C175.058 65.0829 174.683 65.0829 174.307 64.8953C173.932 64.7076 173.932 64.3323 173.932 63.957C173.932 62.831 173.744 61.3297 173.369 59.2655L169.616 58.7025C169.428 59.4531 169.241 60.3914 169.053 61.5174C168.865 62.4557 168.865 63.2063 168.678 63.7693C168.49 64.7076 168.115 65.0829 167.364 65.0829C166.989 65.0829 166.801 64.8953 166.613 64.7076C166.426 64.5199 166.238 64.3323 166.238 63.957V63.5816C167.927 57.0135 169.241 50.8208 169.991 44.628C169.991 44.4403 169.991 43.8774 170.179 43.1267C170.367 41.2501 170.554 40.1242 170.93 39.5612H172.243C172.618 39.5612 172.806 39.5612 173.181 39.7488C173.369 39.9365 173.557 40.1242 173.557 40.4995C173.557 42.3761 173.744 45.191 174.307 48.9442C174.683 52.6974 175.058 55.5123 175.058 57.2012ZM169.616 57.2012C169.991 57.3889 171.117 57.7642 172.994 57.7642C172.994 57.3889 172.806 56.8259 172.806 55.8876C172.806 54.9493 172.806 53.8233 172.618 52.5097C172.431 51.1961 172.431 49.5072 172.243 47.8182C172.056 45.9416 171.868 44.8157 171.868 43.8774C170.742 50.2578 169.991 54.7616 169.616 57.2012ZM182.94 42.0008L183.315 57.7642V61.705C183.315 63.0187 183.127 63.7693 182.94 64.3323C182.752 64.8952 182.564 65.2706 182.377 65.6459C182.189 66.0212 182.001 66.3965 181.626 66.5842C181.251 66.7719 181.063 67.1472 180.688 67.3348C179.937 67.8978 178.811 68.0855 177.498 68.0855C177.122 68.0855 177.122 67.8978 177.122 67.7102V67.1472C177.122 66.9595 177.31 66.9595 177.685 66.7719C178.999 66.3966 179.75 65.8336 180.125 65.6459C180.876 64.8953 181.251 63.394 181.251 61.3297L180.876 42.1884V42.0008C179.937 42.0008 179.187 42.0008 178.811 41.8131C178.436 41.6254 178.248 41.4378 178.061 41.4378C178.061 41.4378 177.873 41.2501 177.873 41.0625C177.873 40.8748 178.061 40.6872 178.248 40.4995C178.436 40.3119 178.999 40.3118 179.562 40.3118C180.125 40.3118 181.439 40.3119 183.127 40.4995C184.816 40.6872 185.755 40.8748 185.755 41.0625C185.755 41.2501 185.567 41.6254 185.379 41.6254C185.192 41.8131 185.004 41.8131 184.629 41.8131H182.94V42.0008ZM195.325 64.1446V61.3297C195.325 61.3297 195.325 60.9544 195.325 60.0161C195.138 59.6408 194.95 56.8259 194.762 51.5714C194.387 46.317 194.387 42.9391 194.199 41.8131H194.012C191.947 41.8131 191.009 41.4378 191.009 40.6871C191.009 40.4995 191.197 40.3118 191.384 40.1242C191.572 39.9365 191.947 39.9365 192.135 39.9365L197.202 40.3118H197.765C198.516 40.3118 198.891 40.6872 198.891 41.2501C198.891 41.6255 198.703 41.8131 198.516 42.0008C198.328 42.1884 197.953 42.3761 197.577 42.3761L195.888 42.1884V42.5637C195.888 45.0033 196.076 48.5689 196.451 53.2604C196.827 57.9518 197.014 61.5174 197.014 63.957C197.014 64.3323 196.827 64.5199 196.639 64.7076C196.451 64.8953 196.076 65.0829 195.701 65.0829L195.325 64.1446ZM201.33 45.754L201.143 42.5637C201.143 40.8748 201.706 39.9365 202.644 39.9365C203.395 39.9365 204.145 40.1242 205.459 40.3118C206.585 40.6872 207.148 41.0625 207.148 41.4378C207.148 42.0008 206.773 42.3761 206.022 42.5637C204.896 42.1884 203.958 42.0008 203.207 41.8131C203.207 42.3761 203.207 42.939 203.207 43.502L203.019 48.9442C203.019 48.9442 203.019 49.1318 203.207 49.5072H204.521C205.647 49.5072 206.397 49.8825 206.397 50.4455C206.397 50.6331 206.21 51.0084 206.022 51.1961C205.834 51.3837 205.459 51.5714 205.271 51.5714C204.896 51.5714 204.521 51.5714 204.145 51.5714H203.207C203.207 52.5097 203.395 53.448 203.395 54.3863L203.207 61.1421C203.207 62.4557 203.207 63.2063 203.207 63.2063H206.022C206.96 63.2063 207.523 63.5816 207.523 64.1446C207.523 64.5199 207.336 64.7076 206.96 64.8953C206.585 65.0829 206.21 65.0829 205.834 65.0829H202.644C202.269 65.0829 202.081 64.8953 201.706 64.7076C201.518 64.5199 201.33 64.1446 201.33 63.957V63.0187L201.143 56.6382L201.33 45.754ZM213.341 64.5199L211.089 64.3323C210.901 64.3323 210.713 64.3323 210.338 64.5199C210.15 64.7076 209.775 64.7076 209.587 64.7076C209.4 64.7076 209.212 64.7076 209.024 64.5199C208.837 64.3323 208.649 64.1446 208.649 63.5816C208.649 61.3297 209.4 57.3888 211.089 51.9467C212.778 46.3169 213.716 42.939 214.091 41.6254L211.089 41.8131C210.901 41.8131 210.526 41.6255 210.338 41.4378C210.15 41.2502 209.963 41.0624 209.963 40.6871C209.963 39.9365 211.276 39.5612 214.091 39.5612C215.405 39.5612 215.968 39.9365 215.968 40.6871C215.968 41.6254 215.78 42.7514 215.217 44.2527C214.654 45.754 214.279 46.8799 214.279 47.4429C213.904 49.5071 213.341 52.3221 212.402 56.0752C211.464 59.8284 210.901 62.0803 210.713 62.4557H211.276L212.778 62.268C213.716 62.268 214.279 62.6433 214.279 63.2063C214.279 63.5816 214.091 63.7693 213.904 63.957C213.904 64.52 213.716 64.5199 213.341 64.5199ZM213.341 37.6846C212.965 37.6846 212.59 37.4969 212.402 37.3093C212.215 37.1216 212.027 36.7463 212.027 36.371C212.027 35.9957 212.215 35.6203 212.402 35.4327C212.59 35.0574 212.965 35.0573 213.341 35.0573C213.716 35.0573 214.091 35.245 214.279 35.4327C214.467 35.808 214.654 35.9957 214.654 36.371C214.654 36.7463 214.467 37.1216 214.279 37.3093C214.091 37.4969 213.716 37.6846 213.341 37.6846ZM223.474 63.394C223.474 63.9569 223.287 64.7076 222.911 65.4582C222.536 66.2089 221.973 66.9595 221.41 67.5225C220.847 68.0855 220.284 68.4608 219.721 68.4608C219.158 68.4608 218.97 68.2731 218.97 68.0855C218.97 67.8978 219.158 67.5225 219.346 67.1472C219.909 66.5842 220.284 65.2706 220.472 63.5816C220.659 62.0804 221.222 61.3297 221.973 61.3297C222.911 61.3297 223.474 62.0803 223.474 63.394ZM234.922 64.5199L232.67 64.3323C232.482 64.3323 232.294 64.3323 231.919 64.5199C231.731 64.7076 231.356 64.7076 231.168 64.7076C230.981 64.7076 230.793 64.7076 230.605 64.5199C230.418 64.3323 230.23 64.1446 230.23 63.5816C230.23 61.3297 230.981 57.3888 232.67 51.9467C234.359 46.3169 235.297 42.939 235.672 41.6254L232.67 41.8131C232.482 41.8131 232.107 41.6255 231.919 41.4378C231.731 41.2502 231.544 41.0624 231.544 40.6871C231.544 39.9365 232.857 39.5612 235.672 39.5612C236.986 39.5612 237.549 39.9365 237.549 40.6871C237.549 41.6254 237.361 42.7514 236.798 44.2527C236.235 45.754 235.86 46.8799 235.86 47.4429C235.484 49.5071 234.922 52.3221 233.983 56.0752C233.045 59.8284 232.482 62.0803 232.294 62.4557H232.857L234.359 62.268C235.297 62.268 235.86 62.6433 235.86 63.2063C235.86 63.5816 235.672 63.7693 235.484 63.957C235.484 64.52 235.297 64.5199 234.922 64.5199ZM234.922 37.6846C234.546 37.6846 234.171 37.4969 233.983 37.3093C233.796 37.1216 233.608 36.7463 233.608 36.371C233.608 35.9957 233.796 35.6203 233.983 35.4327C234.171 35.0574 234.546 35.0573 234.922 35.0573C235.297 35.0573 235.672 35.245 235.86 35.4327C236.047 35.808 236.235 35.9957 236.235 36.371C236.235 36.7463 236.047 37.1216 235.86 37.3093C235.672 37.4969 235.297 37.6846 234.922 37.6846ZM240.176 45.754L239.988 42.5637C239.988 40.8748 240.551 39.9365 241.49 39.9365C242.24 39.9365 242.991 40.1242 244.305 40.3118C245.43 40.6872 245.993 41.0625 245.993 41.4378C245.993 42.0008 245.618 42.3761 244.867 42.5637C243.742 42.1884 242.803 42.0008 242.053 41.8131C242.053 42.3761 242.053 42.939 242.053 43.502L241.865 48.9442C241.865 48.9442 241.865 49.1318 242.053 49.5072H243.366C244.492 49.5072 245.243 49.8825 245.243 50.4455C245.243 50.6331 245.055 51.0084 244.867 51.1961C244.68 51.3837 244.305 51.5714 244.117 51.5714C243.742 51.5714 243.366 51.5714 242.991 51.5714H242.053C242.053 52.5097 242.24 53.448 242.24 54.3863L242.053 61.1421C242.053 62.4557 242.053 63.2063 242.053 63.2063H244.867C245.806 63.2063 246.369 63.5816 246.369 64.1446C246.369 64.5199 246.181 64.7076 245.806 64.8953C245.43 65.0829 245.055 65.0829 244.68 65.0829H241.49C241.114 65.0829 240.927 64.8953 240.551 64.7076C240.364 64.5199 240.176 64.1446 240.176 63.957V63.0187L239.988 56.6382L240.176 45.754ZM254.626 64.5199C252.937 63.394 252.186 60.5791 252.186 55.6999V53.448V52.5097C252.186 48.7565 252.374 46.3169 252.749 44.8157C253.125 42.9391 253.875 41.8131 254.626 41.0625C255.752 40.1242 257.065 39.5612 258.567 39.5612C258.942 39.5612 259.317 39.5612 259.505 39.7488C259.693 39.9365 259.88 40.1242 259.88 40.4995C259.88 40.8748 259.88 41.0625 259.693 41.2501C259.505 41.4378 259.317 41.6254 259.13 41.6254H257.441C256.878 41.6254 256.502 42.0007 256.127 42.5637C255.752 43.3144 255.564 44.065 255.376 45.0033C255.001 46.8799 254.813 48.3812 255.001 49.5072V49.6948L254.813 57.0135C254.813 58.5148 254.813 59.6408 255.001 60.2038C255.189 60.7668 255.376 61.3297 255.564 61.705C255.752 62.0804 255.939 62.4557 256.127 62.6433C256.69 63.2063 257.441 63.394 258.379 63.394C258.754 63.394 258.942 63.2063 259.13 63.0187C259.505 63.0187 259.693 63.0186 259.88 63.2063C260.068 63.394 260.256 63.5816 260.256 63.7693C260.256 64.7076 259.505 65.2706 258.191 65.2706C257.628 65.2706 257.065 65.2705 256.502 65.0829C255.376 64.8952 255.001 64.7076 254.626 64.5199ZM265.885 64.5199L263.633 64.3323C263.446 64.3323 263.258 64.3323 262.883 64.5199C262.695 64.7076 262.32 64.7076 262.132 64.7076C261.945 64.7076 261.757 64.7076 261.569 64.5199C261.382 64.3323 261.194 64.1446 261.194 63.5816C261.194 61.3297 261.945 57.3888 263.633 51.9467C265.322 46.3169 266.261 42.939 266.636 41.6254L263.633 41.8131C263.446 41.8131 263.07 41.6255 262.883 41.4378C262.695 41.2502 262.507 41.0624 262.507 40.6871C262.507 39.9365 263.821 39.5612 266.636 39.5612C267.95 39.5612 268.513 39.9365 268.513 40.6871C268.513 41.6254 268.325 42.7514 267.762 44.2527C267.199 45.754 266.824 46.8799 266.824 47.4429C266.448 49.5071 265.885 52.3221 264.947 56.0752C264.009 59.8284 263.446 62.0803 263.258 62.4557H263.821L265.322 62.268C266.261 62.268 266.824 62.6433 266.824 63.2063C266.824 63.5816 266.636 63.7693 266.448 63.957C266.448 64.52 266.261 64.5199 265.885 64.5199ZM272.641 70.5251C273.204 70.5251 273.579 70.3374 274.142 69.9621L274.33 70.5251C274.33 70.9004 274.142 71.088 273.579 71.2757C273.204 71.4634 272.641 71.651 272.266 71.651C271.891 71.651 271.515 71.4633 271.14 71.088C270.765 70.7127 270.765 70.1497 270.765 69.7744C270.765 68.8361 271.14 67.8978 271.703 66.9595C272.453 66.0212 273.204 65.2706 274.142 64.7076L275.081 65.2706C274.893 65.4582 274.705 65.4582 274.518 65.6459C274.33 65.8336 274.142 66.0212 273.767 66.2089C273.579 66.3965 273.392 66.5842 273.392 66.5842C273.392 66.5842 273.204 66.7718 273.016 66.9595C272.829 67.1471 272.641 67.3348 272.641 67.3348C272.641 67.5225 272.453 67.5225 272.266 67.8978C272.078 68.0854 272.078 68.2731 272.078 68.4608C271.89 68.8361 271.89 69.3991 271.89 69.7744C272.078 70.3374 272.266 70.5251 272.641 70.5251ZM271.14 45.754L270.952 42.5637C270.952 40.8748 271.515 39.9365 272.453 39.9365C273.204 39.9365 273.955 40.1242 275.268 40.3118C276.394 40.6872 276.957 41.0625 276.957 41.4378C276.957 42.0008 276.582 42.3761 275.831 42.5637C274.705 42.1884 273.767 42.0008 273.016 41.8131C273.016 42.3761 273.016 42.939 273.016 43.502L272.829 48.9442C272.829 48.9442 272.829 49.1318 273.016 49.5072H274.33C275.456 49.5072 276.207 49.8825 276.207 50.4455C276.207 50.6331 276.019 51.0084 275.831 51.1961C275.644 51.3837 275.268 51.5714 275.081 51.5714C274.705 51.5714 274.33 51.5714 273.955 51.5714H273.016C273.016 52.5097 273.204 53.448 273.204 54.3863L273.016 61.1421C273.016 62.4557 273.016 63.2063 273.016 63.2063H275.831C276.77 63.2063 277.333 63.5816 277.333 64.1446C277.333 64.5199 277.145 64.7076 276.77 64.8953C276.394 65.0829 276.019 65.0829 275.644 65.0829H272.453C272.078 65.0829 271.89 64.8953 271.515 64.7076C271.327 64.5199 271.14 64.1446 271.14 63.957V63.0187L270.952 56.6382L271.14 45.754ZM279.209 63.2063L280.711 63.394C281.273 63.394 281.649 63.2063 282.024 62.831C282.399 62.4557 282.587 61.8927 282.775 61.3297C283.15 60.2037 283.338 59.0778 283.338 58.1395C283.338 57.2012 283.15 56.2629 282.962 55.3246C282.587 54.3863 282.212 53.6357 281.836 52.885C281.461 52.1344 280.898 51.3838 280.523 50.4455C279.397 48.5689 279.022 46.6923 279.022 44.8157C279.022 43.6897 279.209 42.7514 279.585 41.8131C280.335 40.1242 281.273 39.3735 282.399 39.3735C282.775 39.3735 283.338 39.5612 283.713 39.7488C284.088 39.9365 284.276 40.3118 284.276 40.6871C284.276 41.2501 283.901 41.6254 283.338 41.6254C283.15 41.6254 282.775 41.6255 282.587 41.4378C281.836 41.4378 281.273 42.3761 280.898 44.065C280.898 44.4404 280.898 44.8156 280.898 45.3786C280.898 45.9416 281.086 46.5046 281.273 47.2552C281.461 48.0059 281.836 48.7565 282.024 49.3195C282.399 49.8825 282.775 50.6331 283.15 51.1961C283.525 51.9467 283.901 52.5097 284.276 53.2604C285.027 54.7616 285.402 56.4505 285.402 58.5148C285.402 60.0161 285.027 61.5174 284.276 62.831C283.901 63.5816 283.525 64.1446 282.775 64.5199C282.212 64.8953 281.461 65.0829 280.711 65.2706C279.772 65.0829 279.209 64.7076 279.022 63.7693L279.209 63.2063ZM280.335 37.4969C280.148 37.3093 280.148 37.3093 280.148 37.1216C280.148 36.9339 280.335 36.7463 280.711 36.371C281.086 35.9957 281.836 35.4327 283.15 34.3067C284.464 33.1808 285.027 32.6178 285.402 32.4301C285.59 32.4301 285.777 32.4301 285.965 32.4301C286.153 32.4301 286.34 32.6178 286.716 32.8055C287.091 32.9931 287.091 33.3684 287.091 33.7438C287.091 34.1191 287.091 34.3067 286.903 34.3067C285.965 35.0574 284.088 35.9957 281.461 37.4969C281.273 37.4969 281.273 37.4969 281.086 37.4969C280.523 37.4969 280.335 37.4969 280.335 37.4969ZM289.343 64.5199C287.654 63.394 286.903 60.5791 286.903 55.6999V53.448V52.5097C286.903 48.7565 287.091 46.3169 287.466 44.8157C287.842 42.9391 288.592 41.8131 289.343 41.0625C290.469 40.1242 291.782 39.5612 293.284 39.5612C293.659 39.5612 294.034 39.5612 294.222 39.7488C294.41 39.9365 294.597 40.1242 294.597 40.4995C294.597 40.8748 294.597 41.0625 294.41 41.2501C294.222 41.4378 294.034 41.6254 293.847 41.6254H292.158C291.595 41.6254 291.219 42.0007 290.844 42.5637C290.469 43.3144 290.281 44.065 290.093 45.0033C289.718 46.8799 289.53 48.3812 289.718 49.5072V49.6948L289.531 57.0135C289.531 58.5148 289.53 59.6408 289.718 60.2038C289.906 60.7668 290.093 61.3297 290.281 61.705C290.469 62.0804 290.656 62.4557 290.844 62.6433C291.407 63.2063 292.158 63.394 293.096 63.394C293.471 63.394 293.659 63.2063 293.847 63.0187C294.222 63.0187 294.41 63.0186 294.597 63.2063C294.785 63.394 294.973 63.5816 294.973 63.7693C294.973 64.7076 294.222 65.2706 292.908 65.2706C292.345 65.2706 291.782 65.2705 291.219 65.0829C290.281 64.8952 289.718 64.7076 289.343 64.5199ZM289.718 37.4969C289.53 37.3093 289.531 37.3093 289.531 37.1216C289.531 36.9339 289.718 36.7463 290.093 36.371C290.469 35.9957 291.219 35.4327 292.533 34.3067C293.847 33.1808 294.41 32.6178 294.785 32.4301C294.973 32.4301 295.16 32.4301 295.348 32.4301C295.536 32.4301 295.723 32.6178 296.099 32.8055C296.474 32.9931 296.474 33.3684 296.474 33.7438C296.474 34.1191 296.474 34.3067 296.286 34.3067C295.348 35.0574 293.471 35.9957 290.844 37.4969C290.656 37.4969 290.656 37.4969 290.469 37.4969C289.906 37.6846 289.718 37.4969 289.718 37.4969ZM300.978 58.8901C300.79 56.8259 300.602 54.9493 300.602 53.2604V51.7591C300.602 51.5714 300.602 51.5714 300.602 51.5714V50.8208C300.602 46.8799 300.79 44.0651 301.353 42.3761C301.728 41.0625 302.104 40.1242 302.479 39.7488C302.854 39.3735 303.23 39.1859 303.605 39.1859C306.42 39.1859 308.484 40.6871 309.61 43.502C310.173 45.191 310.548 47.2553 310.548 49.6948V49.8825V54.1987C310.548 61.3297 308.859 65.0829 305.482 65.0829C304.168 65.0829 303.042 64.3323 302.291 62.831C301.541 61.7051 301.165 60.2038 300.978 58.8901ZM302.854 48.1935L302.667 51.5714C302.667 55.137 303.042 58.3272 303.605 61.1421C304.168 62.6434 304.731 63.5817 305.294 63.957C305.669 63.957 306.232 63.7693 306.608 63.394C306.983 63.0186 307.171 62.4557 307.546 61.8927C307.733 61.3297 307.921 60.5791 308.109 60.0161C308.296 59.2655 308.296 58.7025 308.484 57.7642C308.672 56.4506 308.672 55.3246 308.672 54.3863C308.672 53.448 308.672 51.9467 308.484 50.0701C308.296 48.1935 308.296 46.6923 308.296 45.754V45.0033C308.296 44.065 307.921 43.3144 307.358 42.5637C306.795 41.8131 306.045 41.4378 305.106 41.4378C304.168 41.4378 303.605 42.0008 303.417 42.9391C303.23 43.6897 303.042 44.8157 303.042 45.9416L302.854 48.1935ZM312.8 63.2063L314.302 63.394C314.865 63.394 315.24 63.2063 315.615 62.831C315.991 62.4557 316.178 61.8927 316.366 61.3297C316.741 60.2037 316.929 59.0778 316.929 58.1395C316.929 57.2012 316.741 56.2629 316.553 55.3246C316.178 54.3863 315.803 53.6357 315.428 52.885C315.052 52.1344 314.489 51.3838 314.114 50.4455C312.988 48.5689 312.613 46.6923 312.613 44.8157C312.613 43.6897 312.8 42.7514 313.176 41.8131C313.926 40.1242 314.865 39.3735 315.991 39.3735C316.366 39.3735 316.929 39.5612 317.304 39.7488C317.679 39.9365 317.867 40.3118 317.867 40.6871C317.867 41.2501 317.492 41.6254 316.929 41.6254C316.741 41.6254 316.366 41.6255 316.178 41.4378C315.428 41.4378 314.865 42.3761 314.489 44.065C314.489 44.4404 314.489 44.8156 314.489 45.3786C314.489 45.9416 314.677 46.5046 314.865 47.2552C315.052 48.0059 315.428 48.7565 315.615 49.3195C315.991 49.8825 316.366 50.6331 316.741 51.1961C317.116 51.9467 317.492 52.5097 317.867 53.2604C318.618 54.7616 318.993 56.4505 318.993 58.5148C318.993 60.0161 318.618 61.5174 317.867 62.831C317.492 63.5816 317.117 64.1446 316.366 64.5199C315.803 64.8953 315.052 65.0829 314.302 65.2706C313.363 65.0829 312.8 64.7076 312.613 63.7693L312.8 63.2063ZM321.057 58.8901C320.87 56.8259 320.682 54.9493 320.682 53.2604V51.7591C320.682 51.5714 320.682 51.5714 320.682 51.5714V50.8208C320.682 46.8799 320.87 44.0651 321.433 42.3761C321.808 41.0625 322.183 40.1242 322.559 39.7488C322.934 39.3735 323.309 39.1859 323.685 39.1859C326.499 39.1859 328.564 40.6871 329.69 43.502C330.253 45.191 330.628 47.2553 330.628 49.6948V49.8825V54.1987C330.628 61.3297 328.939 65.0829 325.561 65.0829C324.248 65.0829 323.122 64.3323 322.371 62.831C321.62 61.7051 321.245 60.2038 321.057 58.8901ZM322.934 48.1935L322.746 51.5714C322.746 55.137 323.122 58.3272 323.685 61.1421C324.248 62.6434 324.811 63.5817 325.374 63.957C325.749 63.957 326.312 63.7693 326.687 63.394C327.062 63.0186 327.25 62.4557 327.625 61.8927C327.813 61.3297 328.001 60.5791 328.188 60.0161C328.376 59.2655 328.376 58.7025 328.564 57.7642C328.751 56.4506 328.751 55.3246 328.751 54.3863C328.751 53.448 328.751 51.9467 328.564 50.0701C328.376 48.1935 328.376 46.6923 328.376 45.754V45.0033C328.376 44.065 328.001 43.3144 327.438 42.5637C326.875 41.8131 326.124 41.4378 325.186 41.4378C324.248 41.4378 323.685 42.0008 323.497 42.9391C323.309 43.6897 323.122 44.8157 323.122 45.9416L322.934 48.1935ZM324.248 37.4969C324.06 37.3093 324.06 37.3093 324.06 37.1216C324.06 36.9339 324.248 36.7463 324.623 36.371C324.998 35.9957 325.749 35.4327 327.062 34.3067C328.376 33.1808 328.939 32.6178 329.314 32.4301C329.502 32.4301 329.69 32.4301 329.877 32.4301C330.065 32.4301 330.253 32.6178 330.628 32.8055C331.003 32.9931 331.003 33.3684 331.003 33.7438C331.003 34.1191 331.003 34.3067 330.816 34.3067C329.877 35.0574 328.001 35.9957 325.374 37.4969C325.186 37.4969 325.186 37.4969 324.998 37.4969C324.435 37.6846 324.435 37.4969 324.248 37.4969ZM333.443 43.3144L333.255 41.4378V41.0625C333.255 40.4995 333.255 40.1242 333.443 39.7488C333.631 39.3735 334.006 39.3735 334.756 39.3735C335.507 39.3735 336.07 39.5612 336.821 39.9365C337.384 40.3118 337.947 40.6872 338.322 41.4378C339.073 42.7514 339.448 44.065 339.448 45.5663C339.448 47.0676 339.26 48.3812 339.073 49.3195C338.885 50.2578 338.51 51.0084 337.947 51.9467C338.885 52.885 339.448 54.3863 339.636 56.6382C339.636 57.2012 339.636 57.7642 339.636 58.3272C339.636 59.0778 339.636 59.6408 339.448 60.3914C339.26 61.142 339.073 61.705 338.885 62.268C338.51 62.831 338.322 63.394 337.759 63.7693C336.821 64.7076 335.695 65.2706 334.006 65.2706C333.443 65.2706 333.068 65.0829 333.068 64.5199C332.88 64.1446 332.88 63.7693 332.88 63.2063L333.255 55.1369L333.443 43.3144ZM334.944 61.3297V63.2063C335.695 63.0186 336.445 62.4557 336.821 61.705C337.196 60.9544 337.384 60.2037 337.384 59.4531C337.384 58.7025 337.384 58.1395 337.384 57.7642C337.384 57.3889 337.384 56.8259 337.196 56.2629C337.008 55.6999 337.008 55.1369 336.821 54.7616C336.445 53.6357 335.882 53.0727 335.132 52.885C334.944 54.5739 334.944 56.4505 334.944 58.5148V61.3297ZM335.695 41.0625C335.319 41.6255 335.32 43.1267 335.32 45.0033V50.6331C336.633 50.6331 337.384 48.9442 337.384 45.9416C337.196 42.9391 336.633 41.2501 335.695 41.0625ZM346.016 49.5072L346.204 42.5637C346.204 41.4378 346.579 40.4995 347.517 39.7488V39.9365C347.705 39.9365 347.705 39.9365 347.705 39.9365C348.268 39.9365 349.019 40.8748 349.957 42.9391C350.895 45.0033 351.646 47.2552 352.396 49.5072C353.147 51.9467 353.898 54.3863 354.461 56.8259C355.211 59.2655 355.587 60.7668 355.774 61.1421C356.337 55.8876 356.525 49.5072 356.525 42.1884V41.2501C356.525 40.4995 356.9 40.1242 357.463 40.1242C357.839 40.1242 358.026 40.3119 358.214 40.4995C358.402 40.8748 358.402 41.0625 358.402 41.4378V44.2527C358.402 47.2553 358.214 51.1961 358.026 56.0752C357.839 60.9544 357.463 63.7693 357.088 64.3323C356.337 64.5199 355.962 64.7076 355.587 64.7076C355.399 64.7076 355.211 64.7076 355.024 64.5199C354.836 64.3323 354.836 64.1446 354.648 63.7693C354.648 63.394 354.461 63.2063 354.461 63.0187V62.831C354.461 61.8927 353.522 58.8901 351.834 54.011C349.957 49.1318 348.643 45.5663 347.893 43.6897V62.6433C347.893 62.6433 347.893 62.831 348.08 62.831C348.268 63.0187 348.268 63.394 348.268 63.5816C348.268 63.7693 348.08 63.9569 347.893 64.3323C347.705 64.5199 347.33 64.7076 347.142 64.7076C346.391 64.7076 345.828 63.9569 345.828 62.4557L346.016 49.5072ZM365.345 52.3221L365.533 60.2038V61.3297V62.4557H366.096H367.222C368.16 62.4557 368.723 62.831 368.723 63.394C368.723 63.7693 368.535 63.9569 368.348 64.1446C368.16 64.3323 367.785 64.5199 367.409 64.5199H365.72C364.594 64.5199 363.844 64.5199 363.468 64.5199C363.281 64.5199 363.093 64.5199 363.093 64.5199C362.155 64.5199 361.779 64.3323 361.779 63.7693C361.779 63.5816 361.779 63.394 361.967 63.0187C362.155 62.831 362.342 62.6433 362.342 62.6433H363.468V62.0804L363.281 54.1987L363.468 45.754C363.468 44.2527 363.468 42.9391 363.281 41.8131H362.53H361.592C361.217 41.8131 361.029 41.8131 360.654 41.6254C360.466 41.4378 360.278 41.2501 360.278 40.8748C360.278 40.3118 360.841 39.9365 362.155 39.9365H366.659C367.597 39.9365 368.16 40.1242 368.16 40.6871C368.16 40.8748 367.972 41.0625 367.785 41.2501C367.597 41.4378 367.222 41.6254 367.034 41.6254H365.157C365.345 42.5637 365.345 43.8774 365.345 45.191V52.3221ZM370.787 45.754L370.6 42.5637C370.6 40.8748 371.162 39.9365 372.101 39.9365C372.851 39.9365 373.602 40.1242 374.916 40.3118C376.042 40.6872 376.605 41.0625 376.605 41.4378C376.605 42.0008 376.229 42.3761 375.479 42.5637C374.353 42.1884 373.414 42.0008 372.664 41.8131C372.664 42.3761 372.664 42.939 372.664 43.502L372.476 48.9442C372.476 48.9442 372.476 49.1318 372.664 49.5072H373.977C375.103 49.5072 375.854 49.8825 375.854 50.4455C375.854 50.6331 375.666 51.0084 375.479 51.1961C375.291 51.3837 374.916 51.5714 374.728 51.5714C374.353 51.5714 373.977 51.5714 373.602 51.5714H372.664C372.664 52.5097 372.851 53.448 372.851 54.3863L372.664 61.1421C372.664 62.4557 372.664 63.2063 372.664 63.2063H375.479C376.417 63.2063 376.98 63.5816 376.98 64.1446C376.98 64.5199 376.792 64.7076 376.417 64.8953C376.042 65.0829 375.666 65.0829 375.291 65.0829H372.101C371.725 65.0829 371.538 64.8953 371.162 64.7076C370.975 64.5199 370.787 64.1446 370.787 63.957V63.0187L370.6 56.6382L370.787 45.754Z" fill="white"/>
<path d="M64.3358 97.1727V101.301C64.3358 104.679 64.5234 107.306 65.0864 109.183L64.7111 110.121H63.5851L63.0221 109.558C63.0221 108.432 63.0221 107.119 63.0221 105.805C63.0221 104.491 62.8345 101.489 62.6468 96.7974C62.4592 92.2936 62.2715 88.7281 62.2715 86.4761C62.2715 85.3502 62.6468 84.7872 63.5851 84.7872C64.8987 84.7872 66.0247 85.1625 66.963 85.7255C67.9013 86.4761 68.2766 87.4144 68.2766 88.728V91.3553C68.2766 92.1059 68.0889 92.6689 67.9013 93.2318C67.7136 93.7948 67.3383 94.3578 66.963 95.1084C66.5877 95.6714 66.4 96.0468 66.4 96.2344C66.5877 96.7974 66.7753 98.111 67.1506 99.7999C67.9013 103.741 68.6519 106.556 69.5902 108.245C69.7779 108.808 69.9655 109.183 69.9655 109.371C69.9655 109.558 69.9655 109.934 69.7779 110.121C69.5902 110.309 69.4026 110.497 69.2149 110.497C68.6519 110.497 68.2766 109.934 67.7136 108.62C67.1506 107.494 66.7753 105.993 66.5877 104.679C65.6494 100.175 65.0864 97.7357 64.8987 97.3604H64.3358V97.1727ZM66.2123 87.4144C66.0247 86.6638 65.4617 86.1008 64.5234 86.1008L64.3358 86.6638C64.3358 87.6021 64.3358 89.1034 64.3358 91.1676C64.3358 93.0442 64.3358 94.5455 64.3358 95.4838C64.8987 95.1085 65.4617 94.3579 65.837 93.0442C66.2123 91.7306 66.4 90.7923 66.4 90.0417C66.4 89.291 66.4 88.9157 66.4 88.5404C66.4 88.165 66.4 87.7898 66.2123 87.4144ZM71.6545 103.928C71.4668 101.864 71.2792 99.9876 71.2792 98.2987V96.7974C71.2792 96.6098 71.2792 96.6098 71.2792 96.6098V95.8591C71.2792 91.9183 71.4668 89.1034 72.0298 87.4144C72.4051 86.1008 72.7804 85.1625 73.1558 84.7872C73.5311 84.4118 73.9064 84.2242 74.2817 84.2242C77.0966 84.2242 79.1609 85.7255 80.2868 88.5404C80.8498 90.2293 81.2251 92.2936 81.2251 94.7332V94.9208V99.237C81.2251 106.368 79.5362 110.121 76.1583 110.121C74.8447 110.121 73.7187 109.371 72.9681 107.869C72.4051 106.743 71.8421 105.242 71.6545 103.928ZM73.5311 93.2318L73.3434 96.6098C73.3434 100.175 73.7187 103.366 74.2817 106.18C74.8447 107.682 75.4077 108.62 75.9706 108.995C76.346 108.995 76.9089 108.808 77.2843 108.432C77.6596 108.057 77.8472 107.494 78.2226 106.931C78.4102 106.368 78.5979 105.617 78.7855 105.054C78.9732 104.304 78.9732 103.741 79.1609 102.803C79.3485 101.489 79.3485 100.363 79.3485 99.4247C79.3485 98.4864 79.3485 96.985 79.1609 95.1084C78.9732 93.2318 78.9732 91.7306 78.9732 90.7923V90.0417C78.9732 89.1034 78.5979 88.3527 78.0349 87.6021C77.4719 86.8514 76.7213 86.4761 75.783 86.4761C74.8447 86.4761 74.2817 87.0391 74.0941 87.9774C73.9064 88.728 73.7187 89.854 73.7187 90.98L73.5311 93.2318ZM87.6055 109.558L85.3536 109.371C85.166 109.371 84.9783 109.371 84.603 109.558C84.4153 109.746 84.04 109.746 83.8524 109.746C83.6647 109.746 83.477 109.746 83.2894 109.558C83.1017 109.371 82.9141 109.183 82.9141 108.62C82.9141 106.368 83.6647 102.427 85.3536 96.985C87.0426 91.3553 87.9809 87.9774 88.3562 86.6638L85.3536 86.8514C85.166 86.8514 84.7907 86.6638 84.603 86.4761C84.4153 86.2885 84.2277 86.1008 84.2277 85.7255C84.2277 84.9748 85.5413 84.5995 88.3562 84.5995C89.6698 84.5995 90.2328 84.9748 90.2328 85.7255C90.2328 86.6638 90.0451 87.7898 89.4821 89.291C88.9192 90.7923 88.5438 91.9182 88.5438 92.4812C88.1685 94.5455 87.6055 97.3604 86.6672 101.114C85.7289 104.867 85.166 107.119 84.9783 107.494H85.5413L87.0426 107.306C87.9809 107.306 88.5438 107.682 88.5438 108.245C88.5438 108.62 88.3562 108.808 88.1685 108.995C88.3562 109.558 87.9809 109.558 87.6055 109.558ZM94.3613 97.1727V101.301C94.3613 104.679 94.549 107.306 95.1119 109.183L94.7366 110.121H93.6106L93.0477 109.558C93.0477 108.432 93.0477 107.119 93.0477 105.805C93.0477 104.491 92.86 101.489 92.6723 96.7974C92.4847 92.2936 92.297 88.7281 92.297 86.4761C92.297 85.3502 92.6723 84.7872 93.6106 84.7872C94.9243 84.7872 96.0502 85.1625 96.9885 85.7255C97.9268 86.4761 98.3021 87.4144 98.3021 88.728V91.3553C98.3021 92.1059 98.1145 92.6689 97.9268 93.2318C97.7392 93.7948 97.3638 94.3578 96.9885 95.1084C96.6132 95.6714 96.4255 96.0468 96.4255 96.2344C96.6132 96.7974 96.8009 98.111 97.1762 99.7999C97.9268 103.741 98.6775 106.556 99.6158 108.245C99.8034 108.808 99.9911 109.183 99.9911 109.371C99.9911 109.558 99.9911 109.934 99.8034 110.121C99.6158 110.309 99.4281 110.497 99.2404 110.497C98.6775 110.497 98.3022 109.934 97.7392 108.62C97.1762 107.494 96.8009 105.993 96.6132 104.679C95.6749 100.175 95.1119 97.7357 94.9243 97.3604H94.3613V97.1727ZM96.2379 87.4144C96.0502 86.6638 95.4872 86.1008 94.5489 86.1008L94.3613 86.6638C94.3613 87.6021 94.3613 89.1034 94.3613 91.1676C94.3613 93.0442 94.3613 94.5455 94.3613 95.4838C94.9243 95.1085 95.4873 94.3579 95.8626 93.0442C96.2379 91.7306 96.4255 90.7923 96.4255 90.0417C96.4255 89.291 96.4255 88.9157 96.4255 88.5404C96.4255 88.165 96.4256 87.7898 96.2379 87.4144ZM101.68 103.928C101.492 101.864 101.305 99.9876 101.305 98.2987V96.7974C101.305 96.6098 101.305 96.6098 101.305 96.6098V95.8591C101.305 91.9183 101.492 89.1034 102.055 87.4144C102.431 86.1008 102.806 85.1625 103.181 84.7872C103.557 84.4118 103.932 84.2242 104.307 84.2242C107.122 84.2242 109.186 85.7255 110.312 88.5404C110.875 90.2293 111.251 92.2936 111.251 94.7332V94.9208V99.237C111.251 106.368 109.562 110.121 106.184 110.121C104.87 110.121 103.744 109.371 102.994 107.869C102.243 106.743 101.868 105.242 101.68 103.928ZM103.557 93.2318L103.369 96.6098C103.369 100.175 103.744 103.366 104.307 106.18C104.87 107.682 105.433 108.62 105.996 108.995C106.372 108.995 106.934 108.808 107.31 108.432C107.685 108.057 107.873 107.494 108.248 106.931C108.436 106.368 108.623 105.617 108.811 105.054C108.999 104.304 108.999 103.741 109.186 102.803C109.374 101.489 109.374 100.363 109.374 99.4247C109.374 98.4864 109.374 96.985 109.186 95.1084C108.999 93.2318 108.999 91.7306 108.999 90.7923V90.0417C108.999 89.1034 108.623 88.3527 108.06 87.6021C107.497 86.8514 106.747 86.4761 105.809 86.4761C104.87 86.4761 104.307 87.0391 104.12 87.9774C103.932 88.728 103.744 89.854 103.744 90.98L103.557 93.2318ZM105.058 82.5353C104.87 82.3476 104.87 82.3476 104.87 82.1599C104.87 81.9723 105.058 81.7846 105.433 81.4093C105.809 81.034 106.559 80.471 107.873 79.345C109.186 78.2191 109.749 77.6561 110.125 77.4684C110.312 77.4684 110.5 77.4684 110.688 77.4684C110.875 77.4684 111.063 77.6561 111.438 77.8438C111.814 78.0314 111.814 78.4068 111.814 78.7821C111.814 79.1574 111.814 79.345 111.626 79.345C110.688 80.0957 108.811 81.034 106.184 82.5353C105.996 82.5353 105.996 82.5353 105.809 82.5353C105.246 82.7229 105.058 82.5353 105.058 82.5353ZM117.631 109.558L115.379 109.371C115.192 109.371 115.004 109.371 114.629 109.558C114.441 109.746 114.066 109.746 113.878 109.746C113.69 109.746 113.503 109.746 113.315 109.558C113.127 109.371 112.94 109.183 112.94 108.62C112.94 106.368 113.69 102.427 115.379 96.985C117.068 91.3553 118.006 87.9774 118.382 86.6638L115.379 86.8514C115.192 86.8514 114.816 86.6638 114.629 86.4761C114.441 86.2885 114.253 86.1008 114.253 85.7255C114.253 84.9748 115.567 84.5995 118.382 84.5995C119.695 84.5995 120.258 84.9748 120.258 85.7255C120.258 86.6638 120.071 87.7898 119.508 89.291C118.945 90.7923 118.569 91.9182 118.569 92.4812C118.194 94.5455 117.631 97.3604 116.693 101.114C115.755 104.867 115.192 107.119 115.004 107.494H115.567L117.068 107.306C118.006 107.306 118.569 107.682 118.569 108.245C118.569 108.62 118.382 108.808 118.194 108.995C118.382 109.558 118.006 109.558 117.631 109.558ZM117.631 82.723C117.256 82.723 116.88 82.5353 116.693 82.3476C116.505 82.1599 116.317 81.7846 116.317 81.4093C116.317 81.034 116.505 80.6587 116.693 80.471C116.88 80.0957 117.256 80.0957 117.631 80.0957C118.006 80.0957 118.382 80.2834 118.569 80.471C118.757 80.8463 118.945 81.034 118.945 81.4093C118.945 81.7846 118.757 82.1599 118.569 82.3476C118.382 82.5353 118.006 82.723 117.631 82.723ZM122.51 94.5455L122.698 87.6021C122.698 86.4761 123.073 85.5378 124.012 84.7872V84.9748C124.199 84.9748 124.199 84.9748 124.199 84.9748C124.762 84.9748 125.513 85.9131 126.451 87.9774C127.389 90.0417 128.14 92.2936 128.891 94.5455C129.641 96.9851 130.392 99.4246 130.955 101.864C131.706 104.304 132.081 105.805 132.269 106.18C132.832 100.926 133.019 94.5455 133.019 87.2268V86.2885C133.019 85.5378 133.395 85.1625 133.957 85.1625C134.333 85.1625 134.52 85.3502 134.708 85.5378C134.896 85.9132 134.896 86.1008 134.896 86.4761V89.291C134.896 92.2936 134.708 96.2344 134.52 101.114C134.333 105.993 133.957 108.808 133.582 109.371C132.832 109.558 132.456 109.746 132.081 109.746C131.893 109.746 131.706 109.746 131.518 109.558C131.33 109.371 131.33 109.183 131.143 108.808C131.143 108.432 130.955 108.245 130.955 108.057V107.869C130.955 106.931 130.017 103.928 128.328 99.0493C126.451 94.1702 125.137 90.6046 124.387 88.728V107.682C124.387 107.682 124.387 107.869 124.575 107.869C124.762 108.057 124.762 108.432 124.762 108.62C124.762 108.808 124.575 108.995 124.387 109.371C124.199 109.558 123.824 109.746 123.636 109.746C122.886 109.746 122.323 108.995 122.323 107.494L122.51 94.5455ZM141.839 97.3604L142.027 105.242V106.368V107.494H142.59H143.716C144.654 107.494 145.217 107.869 145.217 108.432C145.217 108.808 145.029 108.995 144.842 109.183C144.654 109.371 144.279 109.558 143.903 109.558H142.215C141.089 109.558 140.338 109.558 139.963 109.558C139.775 109.558 139.587 109.558 139.587 109.558C138.649 109.558 138.274 109.371 138.274 108.808C138.274 108.62 138.274 108.432 138.461 108.057C138.649 107.869 138.837 107.682 138.837 107.682H139.963V107.119L139.775 99.237L139.963 90.7923C139.963 89.291 139.963 87.9774 139.775 86.8514H139.024H138.086C137.711 86.8514 137.523 86.8514 137.148 86.6638C136.96 86.4761 136.772 86.2885 136.772 85.9131C136.772 85.3502 137.335 84.9748 138.649 84.9748H143.153C144.091 84.9748 144.654 85.1625 144.654 85.7255C144.654 85.9131 144.466 86.1008 144.279 86.2885C144.091 86.4761 143.716 86.6638 143.528 86.6638H141.652C141.839 87.6021 141.839 88.9157 141.839 90.2293V97.3604ZM155.163 102.24L155.538 104.491C155.538 104.867 155.726 105.617 155.914 106.743C156.101 107.869 156.289 108.62 156.289 108.995C156.289 109.558 156.101 109.934 155.726 110.121C155.163 110.121 154.788 110.121 154.412 109.934C154.037 109.746 154.037 109.371 154.037 108.995C154.037 107.869 153.849 106.368 153.474 104.304L149.721 103.741C149.533 104.491 149.346 105.43 149.158 106.556C148.97 107.494 148.97 108.245 148.783 108.808C148.595 109.746 148.22 110.121 147.469 110.121C147.094 110.121 146.906 109.934 146.718 109.746C146.531 109.558 146.343 109.371 146.343 108.995V108.62C148.032 102.052 149.346 95.8591 150.096 89.6663C150.096 89.4787 150.096 88.9157 150.284 88.1651C150.472 86.2885 150.659 85.1625 151.035 84.5995H152.348C152.723 84.5995 152.911 84.5995 153.286 84.7872C153.474 84.9748 153.662 85.1625 153.662 85.5378C153.662 87.4144 153.849 90.2293 154.412 93.9825C154.975 97.7357 155.163 100.551 155.163 102.24ZM149.909 102.24C150.284 102.427 151.41 102.803 153.286 102.803C153.286 102.427 153.099 101.864 153.099 100.926C153.099 99.9876 153.099 98.8617 152.911 97.5481C152.723 96.2344 152.723 94.5455 152.536 92.8566C152.348 90.98 152.16 89.854 152.16 88.9157C151.035 95.2961 150.284 99.8 149.909 102.24ZM177.682 111.81C176.932 111.81 176.556 111.06 176.556 109.371V104.491C176.556 103.365 176.556 101.677 176.369 99.6123C176.181 97.5481 176.181 96.0468 176.181 95.2961C176.181 94.5455 176.181 93.6072 176.181 92.6689C176.181 91.5429 176.181 90.7923 176.181 90.417C175.993 90.7923 175.618 92.4812 174.867 95.6715C172.991 103.741 171.677 107.869 170.739 107.869C170.176 107.869 169.8 107.682 169.613 107.494C169.425 107.306 169.238 106.743 169.238 106.368C169.238 105.242 168.862 102.803 167.924 99.0493C166.986 95.2961 166.235 92.4812 165.484 90.6046C164.921 99.4246 164.734 105.43 164.734 108.432V109.558C164.734 109.934 164.734 110.309 164.546 110.497C164.358 110.684 164.171 110.872 163.795 110.872C163.42 110.872 163.045 110.872 162.857 110.684C162.669 110.497 162.482 110.309 162.482 110.121C162.482 107.494 162.669 103.741 163.045 98.674C163.42 93.6072 163.608 89.6663 163.608 87.2268C163.42 87.0391 163.42 86.6638 163.42 86.4761C163.42 86.1008 163.608 85.9131 163.795 85.9131C164.171 85.7255 164.358 85.7255 164.734 85.7255C165.297 85.7255 166.423 88.165 167.924 93.2318C169.425 98.2987 170.551 101.677 170.926 103.741C171.114 103.365 171.302 102.427 171.677 100.926C172.052 99.4246 172.428 97.9234 172.803 96.2344C173.178 94.5455 173.554 93.0442 174.117 91.3553C175.243 87.6021 175.993 85.7255 176.744 85.7255C177.119 85.7255 177.307 85.7255 177.682 85.9131C178.058 86.1008 178.058 86.2884 178.058 86.6638C178.058 88.5404 178.058 91.1676 178.245 94.7332C178.433 98.2987 178.433 100.926 178.433 102.615V106.556C178.433 106.743 178.433 107.682 178.62 109.183V109.934C178.808 110.121 178.808 110.497 178.808 110.872C178.808 111.247 178.621 111.435 178.433 111.81C178.245 111.623 178.058 111.81 177.682 111.81ZM181.248 103.928C181.06 101.864 180.872 99.9876 180.872 98.2987V96.7974C180.872 96.6098 180.872 96.6098 180.872 96.6098V95.8591C180.872 91.9183 181.06 89.1034 181.623 87.4144C181.998 86.1008 182.374 85.1625 182.749 84.7872C183.124 84.4118 183.5 84.2242 183.875 84.2242C186.69 84.2242 188.754 85.7255 189.88 88.5404C190.443 90.2293 190.818 92.2936 190.818 94.7332V94.9208V99.237C190.818 106.368 189.129 110.121 185.752 110.121C184.438 110.121 183.312 109.371 182.561 107.869C181.811 106.743 181.435 105.242 181.248 103.928ZM183.124 93.2318L182.937 96.6098C182.937 100.175 183.312 103.366 183.875 106.18C184.438 107.682 185.001 108.62 185.564 108.995C185.939 108.995 186.502 108.808 186.878 108.432C187.253 108.057 187.441 107.494 187.816 106.931C188.004 106.368 188.191 105.617 188.379 105.054C188.566 104.304 188.566 103.741 188.754 102.803C188.942 101.489 188.942 100.363 188.942 99.4247C188.942 98.4864 188.942 96.985 188.754 95.1084C188.566 93.2318 188.566 91.7306 188.566 90.7923V90.0417C188.566 89.1034 188.191 88.3527 187.628 87.6021C187.065 86.8514 186.315 86.4761 185.376 86.4761C184.438 86.4761 183.875 87.0391 183.687 87.9774C183.5 88.728 183.312 89.854 183.312 90.98L183.124 93.2318ZM203.016 86.1008C203.016 85.9131 202.829 85.7255 202.829 85.5378C202.829 84.9749 203.204 84.5995 203.955 84.5995C204.705 84.5995 205.081 84.9749 205.081 85.5378C205.081 86.2885 205.081 86.8514 205.081 87.0391V87.2268C204.705 88.3527 204.518 89.4787 204.518 90.6046V93.4195C204.518 94.9208 204.33 97.3604 203.955 100.551C203.579 103.741 203.392 105.993 203.392 107.306C203.392 109.934 202.829 111.06 201.89 111.06C201.14 111.06 200.764 110.497 200.764 109.371C200.764 108.245 200.764 107.306 200.577 106.18C200.577 105.054 200.389 103.928 200.201 102.615C200.014 101.301 199.826 100.175 199.826 99.4247C199.638 98.4864 199.451 97.3604 199.263 95.8591C199.075 94.3579 198.888 93.2319 198.7 92.6689C198.7 93.4195 198.512 94.3578 198.512 95.1084C198.512 95.8591 198.325 97.548 198.137 99.7999C197.949 102.052 197.574 104.491 197.199 106.931C196.636 109.371 196.261 110.497 195.51 110.497C194.572 110.497 193.821 107.869 193.258 102.615C193.07 100.363 192.883 98.111 192.695 95.8591C192.32 90.0417 191.944 86.8514 191.569 86.1008C191.757 85.7255 192.132 85.3502 192.695 85.3502C193.446 85.3502 193.821 86.2885 193.821 88.1651C193.821 90.0417 194.009 92.6689 194.572 96.4221C195.135 100.175 195.322 102.802 195.51 104.491C196.636 97.1727 197.011 91.7306 197.011 87.9774L197.949 87.6021C198.325 87.6021 198.512 87.6021 198.7 87.7897C198.888 87.9774 199.075 88.165 199.075 88.5404V88.9157C199.826 91.3553 200.389 94.7332 200.764 99.4247C200.952 101.489 201.14 103.178 201.327 104.304C201.703 100.926 202.078 96.6098 202.078 91.9183C202.078 91.3553 202.266 90.417 202.453 89.1034C203.016 87.6021 203.016 86.6638 203.016 86.1008ZM212.587 107.869C212.587 109.558 212.212 110.309 211.273 110.309C210.898 110.309 210.523 110.121 210.147 109.558C210.335 108.995 210.523 106.931 210.523 103.178C210.523 102.427 210.523 101.489 210.335 100.363C210.147 99.0493 210.147 98.2987 210.147 97.7357V96.7974C210.147 96.6098 209.772 95.6715 209.021 93.7949C207.332 89.6663 206.582 87.0391 206.582 86.2885V86.1008L207.332 85.5378C208.083 85.5378 209.021 87.4144 210.147 91.3553C210.523 93.0442 210.898 93.9825 210.898 93.9825C211.086 93.7949 211.273 92.8566 211.461 91.1676C212.212 87.0391 212.962 85.1625 213.901 85.1625C214.088 85.1625 214.276 85.1625 214.464 85.3502C214.651 85.5378 214.839 85.7255 214.839 85.9131C214.839 87.2268 214.464 88.9157 213.713 91.3553C212.962 93.7948 212.587 95.4838 212.587 96.7974V107.869ZM220.844 94.5455L221.032 87.6021C221.032 86.4761 221.407 85.5378 222.345 84.7872V84.9748C222.533 84.9748 222.533 84.9748 222.533 84.9748C223.096 84.9748 223.846 85.9131 224.785 87.9774C225.723 90.0417 226.474 92.2936 227.224 94.5455C227.975 96.9851 228.726 99.4246 229.289 101.864C230.039 104.304 230.415 105.805 230.602 106.18C231.165 100.926 231.353 94.5455 231.353 87.2268V86.2885C231.353 85.5378 231.728 85.1625 232.291 85.1625C232.667 85.1625 232.854 85.3502 233.042 85.5378C233.229 85.9132 233.229 86.1008 233.229 86.4761V89.291C233.229 92.2936 233.042 96.2344 232.854 101.114C232.667 105.993 232.291 108.808 231.916 109.371C231.165 109.558 230.79 109.746 230.415 109.746C230.227 109.746 230.039 109.746 229.852 109.558C229.664 109.371 229.664 109.183 229.476 108.808C229.476 108.432 229.289 108.245 229.289 108.057V107.869C229.289 106.931 228.35 103.928 226.661 99.0493C224.785 94.1702 223.471 90.6046 222.721 88.728V107.682C222.721 107.682 222.721 107.869 222.908 107.869C223.096 108.057 223.096 108.432 223.096 108.62C223.096 108.808 222.908 108.995 222.721 109.371C222.533 109.558 222.158 109.746 221.97 109.746C221.219 109.746 220.656 108.995 220.656 107.494L220.844 94.5455ZM240.173 97.3604L240.361 105.242V106.368V107.494H240.924H242.049C242.988 107.494 243.551 107.869 243.551 108.432C243.551 108.808 243.363 108.995 243.175 109.183C242.988 109.371 242.612 109.558 242.237 109.558H240.548C239.422 109.558 238.672 109.558 238.296 109.558C238.109 109.558 237.921 109.558 237.921 109.558C236.983 109.558 236.607 109.371 236.607 108.808C236.607 108.62 236.607 108.432 236.795 108.057C236.983 107.869 237.17 107.682 237.17 107.682H238.296V107.119L238.109 99.237L238.296 90.7923C238.296 89.291 238.296 87.9774 238.109 86.8514H237.358H236.42C236.044 86.8514 235.857 86.8514 235.481 86.6638C235.294 86.4761 235.106 86.2885 235.106 85.9131C235.106 85.3502 235.669 84.9748 236.983 84.9748H241.486C242.425 84.9748 242.988 85.1625 242.988 85.7255C242.988 85.9131 242.8 86.1008 242.612 86.2885C242.425 86.4761 242.049 86.6638 241.862 86.6638H239.985C240.173 87.6021 240.173 88.9157 240.173 90.2293V97.3604ZM245.615 90.7923L245.427 87.6021C245.427 85.9131 245.99 84.9748 246.929 84.9748C247.679 84.9748 248.43 85.1625 249.744 85.3502C250.87 85.7255 251.432 86.1008 251.432 86.4761C251.432 87.0391 251.057 87.4144 250.307 87.6021C249.181 87.2267 248.242 87.0391 247.492 86.8514C247.492 87.4144 247.492 87.9774 247.492 88.5404L247.304 93.9825C247.304 93.9825 247.304 94.1702 247.492 94.5455H248.805C249.931 94.5455 250.682 94.9208 250.682 95.4838C250.682 95.6714 250.494 96.0468 250.307 96.2344C250.119 96.4221 249.744 96.6098 249.556 96.6098C249.181 96.6098 248.805 96.6098 248.43 96.6098H247.492C247.492 97.5481 247.679 98.4864 247.679 99.4247L247.492 106.18C247.492 107.494 247.492 108.245 247.492 108.245H250.307C251.245 108.245 251.808 108.62 251.808 109.183C251.808 109.558 251.62 109.746 251.245 109.934C250.869 110.121 250.494 110.121 250.119 110.121H246.929C246.553 110.121 246.366 109.934 245.99 109.746C245.803 109.558 245.615 109.183 245.615 108.995V108.057L245.427 101.677L245.615 90.7923ZM253.497 94.5455L253.684 87.6021C253.684 86.4761 254.06 85.5378 254.998 84.7872V84.9748C255.186 84.9748 255.186 84.9748 255.186 84.9748C255.749 84.9748 256.499 85.9131 257.438 87.9774C258.376 90.0417 259.127 92.2936 259.877 94.5455C260.628 96.9851 261.378 99.4246 261.941 101.864C262.692 104.304 263.067 105.805 263.255 106.18C263.818 100.926 264.006 94.5455 264.006 87.2268V86.2885C264.006 85.5378 264.381 85.1625 264.944 85.1625C265.319 85.1625 265.507 85.3502 265.695 85.5378C265.882 85.9132 265.882 86.1008 265.882 86.4761V89.291C265.882 92.2936 265.695 96.2344 265.507 101.114C265.319 105.993 264.944 108.808 264.569 109.371C263.818 109.558 263.443 109.746 263.067 109.746C262.88 109.746 262.692 109.746 262.504 109.558C262.317 109.371 262.317 109.183 262.129 108.808C262.129 108.432 261.941 108.245 261.941 108.057V107.869C261.941 106.931 261.003 103.928 259.314 99.0493C257.438 94.1702 256.124 90.6046 255.373 88.728V107.682C255.373 107.682 255.373 107.869 255.561 107.869C255.749 108.057 255.749 108.432 255.749 108.62C255.749 108.808 255.561 108.995 255.373 109.371C255.186 109.558 254.81 109.746 254.623 109.746C253.872 109.746 253.309 108.995 253.309 107.494L253.497 94.5455ZM276.954 102.24L277.33 104.491C277.33 104.867 277.517 105.617 277.705 106.743C277.892 107.869 278.08 108.62 278.08 108.995C278.08 109.558 277.892 109.934 277.517 110.121C276.954 110.121 276.579 110.121 276.204 109.934C275.828 109.746 275.828 109.371 275.828 108.995C275.828 107.869 275.641 106.368 275.265 104.304L271.512 103.741C271.324 104.491 271.137 105.43 270.949 106.556C270.761 107.494 270.761 108.245 270.574 108.808C270.386 109.746 270.011 110.121 269.26 110.121C268.885 110.121 268.697 109.934 268.51 109.746C268.322 109.558 268.134 109.371 268.134 108.995V108.62C269.823 102.052 271.137 95.8591 271.887 89.6663C271.887 89.4787 271.887 88.9157 272.075 88.1651C272.263 86.2885 272.45 85.1625 272.826 84.5995H274.139C274.515 84.5995 274.702 84.5995 275.078 84.7872C275.265 84.9748 275.453 85.1625 275.453 85.5378C275.453 87.4144 275.641 90.2293 276.204 93.9825C276.767 97.7357 276.954 100.551 276.954 102.24ZM271.7 102.24C272.075 102.427 273.201 102.803 275.078 102.803C275.078 102.427 274.89 101.864 274.89 100.926C274.89 99.9876 274.89 98.8617 274.702 97.5481C274.515 96.2344 274.515 94.5455 274.327 92.8566C274.139 90.98 273.952 89.854 273.952 88.9157C272.826 95.2961 272.075 99.8 271.7 102.24ZM290.09 86.1008C290.09 85.9131 289.903 85.7255 289.903 85.5378C289.903 84.9749 290.278 84.5995 291.029 84.5995C291.779 84.5995 292.155 84.9749 292.155 85.5378C292.155 86.2885 292.155 86.8514 292.155 87.0391V87.2268C291.779 88.3527 291.592 89.4787 291.592 90.6046V93.4195C291.592 94.9208 291.404 97.3604 291.029 100.551C290.653 103.741 290.466 105.993 290.466 107.306C290.466 109.934 289.903 111.06 288.964 111.06C288.214 111.06 287.838 110.497 287.838 109.371C287.838 108.245 287.838 107.306 287.651 106.18C287.651 105.054 287.463 103.928 287.275 102.615C287.088 101.301 286.9 100.175 286.9 99.4247C286.712 98.4864 286.525 97.3604 286.337 95.8591C286.15 94.3579 285.962 93.2319 285.774 92.6689C285.774 93.4195 285.587 94.3578 285.587 95.1084C285.587 95.8591 285.399 97.548 285.211 99.7999C285.024 102.052 284.648 104.491 284.273 106.931C283.71 109.371 283.335 110.497 282.584 110.497C281.646 110.497 280.895 107.869 280.332 102.615C280.144 100.363 279.957 98.111 279.769 95.8591C279.394 90.0417 279.018 86.8514 278.643 86.1008C278.831 85.7255 279.206 85.3502 279.769 85.3502C280.52 85.3502 280.895 86.2885 280.895 88.1651C280.895 90.0417 281.083 92.6689 281.646 96.4221C282.209 100.175 282.396 102.802 282.584 104.491C283.71 97.1727 284.085 91.7306 284.085 87.9774L285.024 87.6021C285.399 87.6021 285.587 87.6021 285.774 87.7897C285.962 87.9774 286.15 88.165 286.15 88.5404V88.9157C286.9 91.3553 287.463 94.7332 287.838 99.4247C288.026 101.489 288.214 103.178 288.401 104.304C288.777 100.926 289.152 96.6098 289.152 91.9183C289.152 91.3553 289.34 90.417 289.527 89.1034C289.903 87.6021 290.09 86.6638 290.09 86.1008ZM298.347 97.3604L298.535 105.242V106.368V107.494H299.098H300.224C301.162 107.494 301.725 107.869 301.725 108.432C301.725 108.808 301.538 108.995 301.35 109.183C301.162 109.371 300.787 109.558 300.412 109.558H298.723C297.597 109.558 296.846 109.558 296.471 109.558C296.283 109.558 296.095 109.558 296.095 109.558C295.157 109.558 294.782 109.371 294.782 108.808C294.782 108.62 294.782 108.432 294.97 108.057C295.157 107.869 295.345 107.682 295.345 107.682H296.471V107.119L296.283 99.237L296.471 90.7923C296.471 89.291 296.471 87.9774 296.283 86.8514H295.533H294.594C294.219 86.8514 294.031 86.8514 293.656 86.6638C293.468 86.4761 293.281 86.2885 293.281 85.9131C293.281 85.3502 293.844 84.9748 295.157 84.9748H299.661C300.599 84.9748 301.162 85.1625 301.162 85.7255C301.162 85.9131 300.975 86.1008 300.787 86.2885C300.599 86.4761 300.224 86.6638 300.036 86.6638H298.16C298.347 87.6021 298.347 88.9157 298.347 90.2293V97.3604ZM303.414 108.245L304.915 108.432C305.478 108.432 305.854 108.245 306.229 107.869C306.604 107.494 306.792 106.931 306.98 106.368C307.355 105.242 307.543 104.116 307.543 103.178C307.543 102.24 307.355 101.301 307.167 100.363C306.792 99.4247 306.417 98.674 306.041 97.9233C305.666 97.1727 305.103 96.4221 304.728 95.4838C303.602 93.6072 303.227 91.7306 303.227 89.854C303.227 88.728 303.414 87.7897 303.79 86.8514C304.54 85.1625 305.478 84.4119 306.604 84.4119C306.98 84.4119 307.543 84.5995 307.918 84.7872C308.293 84.9748 308.481 85.3501 308.481 85.7255C308.481 86.2884 308.106 86.6638 307.543 86.6638C307.355 86.6638 306.98 86.6638 306.792 86.4761C306.041 86.4761 305.478 87.4144 305.103 89.1034C305.103 89.4787 305.103 89.854 305.103 90.417C305.103 90.9799 305.291 91.5429 305.478 92.2936C305.666 93.0442 306.041 93.7948 306.229 94.3578C306.604 94.9208 306.98 95.6714 307.355 96.2344C307.73 96.9851 308.106 97.548 308.481 98.2987C309.232 99.8 309.607 101.489 309.607 103.553C309.607 105.054 309.232 106.556 308.481 107.869C308.106 108.62 307.73 109.183 306.98 109.558C306.417 109.934 305.666 110.121 304.915 110.309C303.977 110.121 303.414 109.746 303.227 108.808L303.414 108.245ZM304.54 82.5353C304.353 82.3476 304.353 82.3476 304.353 82.1599C304.353 81.9723 304.54 81.7846 304.915 81.4093C305.291 81.034 306.041 80.471 307.355 79.345C308.669 78.2191 309.232 77.6561 309.607 77.4684C309.795 77.4684 309.982 77.4684 310.17 77.4684C310.358 77.4684 310.545 77.6561 310.921 77.8438C311.296 78.0314 311.296 78.4068 311.296 78.7821C311.296 79.1574 311.296 79.345 311.108 79.345C310.17 80.0957 308.293 81.034 305.666 82.5353C305.478 82.5353 305.478 82.5353 305.291 82.5353C304.728 82.5353 304.728 82.5353 304.54 82.5353ZM313.735 109.558C312.047 108.432 311.296 105.617 311.296 100.738V98.4864V97.5481C311.296 93.7949 311.484 91.3553 311.859 89.854C312.234 87.9774 312.985 86.8514 313.735 86.1008C314.861 85.1625 316.175 84.5995 317.676 84.5995C318.052 84.5995 318.427 84.5995 318.615 84.7872C318.802 84.9748 318.99 85.1625 318.99 85.5378C318.99 85.9132 318.99 86.1008 318.802 86.2885C318.615 86.4761 318.427 86.6638 318.239 86.6638H316.175C315.612 86.6638 315.237 87.0391 314.861 87.6021C314.486 88.3527 314.298 89.1034 314.111 90.0417C313.735 91.9183 313.548 93.4195 313.735 94.5455V94.7332L313.548 102.052C313.548 103.553 313.548 104.679 313.735 105.242C313.923 105.805 314.111 106.368 314.298 106.743C314.486 107.119 314.674 107.494 314.861 107.682C315.424 108.245 316.175 108.432 317.113 108.432C317.489 108.432 317.676 108.245 317.864 108.057C318.239 108.057 318.427 108.057 318.615 108.245C318.802 108.432 318.99 108.62 318.99 108.808C318.99 109.746 318.239 110.309 316.926 110.309C316.363 110.309 315.8 110.309 315.237 110.121C314.486 109.934 313.923 109.746 313.735 109.558ZM324.807 97.3604L324.995 105.242V106.368V107.494H325.558H326.684C327.622 107.494 328.185 107.869 328.185 108.432C328.185 108.808 327.998 108.995 327.81 109.183C327.622 109.371 327.247 109.558 326.872 109.558H325.183C324.057 109.558 323.306 109.558 322.931 109.558C322.743 109.558 322.555 109.558 322.555 109.558C321.617 109.558 321.242 109.371 321.242 108.808C321.242 108.62 321.242 108.432 321.43 108.057C321.617 107.869 321.805 107.682 321.805 107.682H322.931V107.119L322.743 99.237L322.931 90.7923C322.931 89.291 322.931 87.9774 322.743 86.8514H321.993H321.054C320.679 86.8514 320.491 86.8514 320.116 86.6638C319.928 86.4761 319.741 86.2885 319.741 85.9131C319.741 85.3502 320.304 84.9748 321.617 84.9748H326.121C327.059 84.9748 327.622 85.1625 327.622 85.7255C327.622 85.9131 327.435 86.1008 327.247 86.2885C327.059 86.4761 326.684 86.6638 326.496 86.6638H324.62C324.807 87.6021 324.807 88.9157 324.807 90.2293V97.3604ZM334.378 103.928C334.19 101.864 334.003 99.9876 334.003 98.2987V96.7974C334.003 96.6098 334.003 96.6098 334.003 96.6098V95.8591C334.003 91.9183 334.19 89.1034 334.753 87.4144C335.129 86.1008 335.504 85.1625 335.879 84.7872C336.255 84.4118 336.63 84.2242 337.005 84.2242C339.82 84.2242 341.884 85.7255 343.01 88.5404C343.573 90.2293 343.949 92.2936 343.949 94.7332V94.9208V99.237C343.949 106.368 342.26 110.121 338.882 110.121C337.568 110.121 336.442 109.371 335.692 107.869C334.941 106.743 334.566 105.242 334.378 103.928ZM336.255 93.2318L336.067 96.6098C336.067 100.175 336.442 103.366 337.005 106.18C337.568 107.682 338.131 108.62 338.694 108.995C339.07 108.995 339.633 108.808 340.008 108.432C340.383 108.057 340.571 107.494 340.946 106.931C341.134 106.368 341.321 105.617 341.509 105.054C341.697 104.304 341.697 103.741 341.884 102.803C342.072 101.489 342.072 100.363 342.072 99.4247C342.072 98.4864 342.072 96.985 341.884 95.1084C341.697 93.2318 341.697 91.7306 341.697 90.7923V90.0417C341.697 89.1034 341.321 88.3527 340.759 87.6021C340.196 86.8514 339.445 86.4761 338.507 86.4761C337.568 86.4761 337.005 87.0391 336.818 87.9774C336.63 88.728 336.442 89.854 336.442 90.98L336.255 93.2318ZM347.327 109.934C346.764 109.934 346.388 108.245 346.388 105.054L346.576 93.2318C346.576 92.4812 346.576 91.1676 346.388 89.4787C346.201 87.7897 346.201 86.8515 346.201 86.2885C346.201 85.9132 346.388 85.5378 346.576 85.1625C346.764 84.9748 347.139 84.7872 347.514 84.7872C350.142 84.7872 352.206 86.2885 353.707 89.291C354.645 90.98 355.021 92.8566 355.021 94.7332V96.6098V98.674C355.021 101.114 354.833 102.803 354.645 103.741C354.458 104.491 354.27 105.242 353.895 105.805C353.707 106.368 353.332 106.931 352.956 107.306C352.206 108.245 351.08 109.183 349.954 109.746H347.327V109.934ZM348.828 107.119V108.057C351.08 108.057 352.393 105.805 352.769 101.489C352.956 100.551 352.956 99.4247 352.956 98.4864C352.956 90.98 351.455 87.0391 348.64 86.6638C348.453 87.6021 348.453 89.1034 348.453 90.7923C348.453 92.4812 348.64 95.2961 348.828 98.8616C348.828 102.615 348.828 105.43 348.828 107.119ZM362.715 84.9748C363.465 84.9748 363.841 85.7255 363.841 87.2268L363.653 96.6098C364.028 96.7974 364.779 96.7974 365.717 96.7974H367.031C367.031 96.6098 367.031 96.2344 367.031 95.6715C367.031 95.1085 367.031 93.4196 366.843 91.1676C366.656 88.9157 366.656 87.0391 366.656 85.9131C366.656 85.7255 366.843 85.3502 367.031 85.1625C367.219 84.9748 367.406 84.7872 367.594 84.7872C367.781 84.7872 367.969 84.7872 368.157 84.7872C368.344 84.7872 368.344 84.7872 368.532 84.9748C368.72 84.9748 368.72 85.1625 368.907 85.1625C368.907 88.3527 369.095 93.2319 369.283 99.4247C369.47 105.617 369.658 108.995 369.658 109.183C369.658 109.371 369.47 109.558 369.283 109.746C369.095 109.934 368.72 110.121 368.344 110.121C367.969 110.121 367.781 109.934 367.594 109.371C367.406 108.808 367.219 108.245 367.219 107.306C367.219 106.368 367.031 105.617 367.031 104.867C367.031 104.491 367.031 104.304 367.031 103.928C367.031 103.365 367.031 102.803 367.031 102.24C367.031 101.114 367.031 100.363 367.031 100.175V99.9876V98.8616L366.843 98.4864C366.656 98.4864 366.468 98.4864 366.093 98.4864L363.653 98.111V102.427L363.841 108.62C363.841 108.995 363.841 109.371 363.653 109.558C363.465 109.746 363.278 109.934 362.902 109.934C362.339 109.934 361.964 109.558 361.776 108.62C361.589 107.682 361.401 106.556 361.401 104.867L361.589 99.237C361.589 98.111 361.589 97.3604 361.589 97.3604V97.1727C361.776 95.8591 361.776 95.1085 361.776 94.9208L361.589 86.4761C361.589 86.1008 361.776 85.9131 361.964 85.7255C362.152 84.9748 362.527 84.9748 362.715 84.9748ZM372.473 90.7923L372.285 87.6021C372.285 85.9131 372.848 84.9748 373.787 84.9748C374.537 84.9748 375.288 85.1625 376.602 85.3502C377.727 85.7255 378.29 86.1008 378.29 86.4761C378.29 87.0391 377.915 87.4144 377.164 87.6021C376.039 87.2267 375.1 87.0391 374.35 86.8514C374.35 87.4144 374.35 87.9774 374.35 88.5404L374.162 93.9825C374.162 93.9825 374.162 94.1702 374.35 94.5455H375.663C376.789 94.5455 377.54 94.9208 377.54 95.4838C377.54 95.6714 377.352 96.0468 377.164 96.2344C376.977 96.4221 376.602 96.6098 376.414 96.6098C376.039 96.6098 375.663 96.6098 375.288 96.6098H374.35C374.35 97.5481 374.537 98.4864 374.537 99.4247L374.35 106.18C374.35 107.494 374.35 108.245 374.35 108.245H377.164C378.103 108.245 378.666 108.62 378.666 109.183C378.666 109.558 378.478 109.746 378.103 109.934C377.727 110.121 377.352 110.121 376.977 110.121H373.787C373.411 110.121 373.224 109.934 372.848 109.746C372.661 109.558 372.473 109.183 372.473 108.995V108.057L372.285 101.677L372.473 90.7923ZM385.234 87.0391L385.609 102.803V106.743C385.609 108.057 385.421 108.808 385.234 109.371C385.046 109.934 384.859 110.309 384.671 110.684C384.483 111.06 384.296 111.435 383.92 111.623C383.545 111.81 383.357 112.186 382.982 112.373C382.231 112.936 381.105 113.124 379.792 113.124C379.416 113.124 379.416 112.936 379.416 112.749V112.185C379.416 111.998 379.604 111.998 379.979 111.81C381.293 111.435 382.044 110.872 382.419 110.684C383.17 109.934 383.545 108.432 383.545 106.368L383.17 87.2268V87.0391C382.231 87.0391 381.481 87.0391 381.105 86.8514C380.73 86.6638 380.542 86.4761 380.355 86.4761C380.355 86.4761 380.167 86.2885 380.167 86.1008C380.167 85.9131 380.355 85.7255 380.542 85.5378C380.73 85.3502 381.293 85.3502 381.856 85.3502C382.419 85.3502 383.733 85.3502 385.421 85.5378C387.11 85.7255 388.049 85.9131 388.049 86.1008C388.049 86.2885 387.861 86.6638 387.673 86.6638C387.486 86.8514 387.298 86.8514 386.923 86.8514H385.234V87.0391ZM393.491 109.183V106.368C393.491 106.368 393.491 105.993 393.491 105.054C393.303 104.679 393.116 101.864 392.928 96.6098C392.553 91.3553 392.553 87.9774 392.365 86.8514H392.177C390.113 86.8514 389.175 86.4761 389.175 85.7255C389.175 85.5378 389.362 85.3502 389.55 85.1625C389.738 84.9748 390.113 84.9748 390.301 84.9748L395.367 85.3502H395.93C396.681 85.3502 397.056 85.7255 397.056 86.2885C397.056 86.6638 396.869 86.8514 396.681 87.0391C396.493 87.2268 396.118 87.4144 395.743 87.4144L394.054 87.2268V87.6021C394.054 90.0416 394.241 93.6072 394.617 98.2987C394.992 102.99 395.18 106.556 395.18 108.995C395.18 109.371 394.992 109.558 394.804 109.746C394.617 109.934 394.241 110.121 393.866 110.121L393.491 109.183ZM408.128 93.0442V93.6072C408.128 104.679 406.439 110.309 403.249 110.309C401.936 110.309 400.997 109.746 400.434 108.808C399.871 107.682 399.496 106.743 399.308 105.617C399.121 103.928 398.933 102.24 398.933 100.175C398.933 98.111 398.933 95.1085 398.933 91.1676L398.745 85.7255C398.933 85.1625 399.308 84.9748 399.496 84.9748C399.871 84.9748 400.059 85.1625 400.247 85.7255C400.434 86.1008 400.622 86.6638 400.622 87.2268V97.3604C400.622 98.2987 400.622 99.6123 400.81 101.301C400.997 102.99 400.997 104.304 400.997 105.242C400.997 107.119 401.748 108.057 403.437 108.057C405.313 108.057 406.064 101.301 406.064 87.7897V85.7255V85.1625C406.064 84.7872 406.064 84.5995 406.252 84.4119C406.439 84.2242 406.627 84.2242 407.002 84.2242C407.378 84.2242 407.565 84.2242 407.753 84.4119C407.941 84.5995 407.941 84.5995 408.128 84.7872C408.316 85.1625 408.316 85.5378 408.316 85.9131L408.128 89.6663V93.0442ZM413.57 110.309C413.195 110.309 412.82 110.121 412.632 109.934C412.444 109.746 412.257 109.371 412.257 108.995C412.257 108.62 412.444 108.245 412.632 108.057C412.82 107.682 413.195 107.682 413.57 107.682C413.946 107.682 414.321 107.869 414.509 108.057C414.696 108.432 414.884 108.62 414.884 108.995C414.884 109.371 414.696 109.746 414.509 109.934C414.321 110.309 413.946 110.309 413.57 110.309Z" fill="white"/>
</svg>
