<svg width="345" height="229" viewBox="0 0 345 229" fill="none" xmlns="http://www.w3.org/2000/svg">
<path d="M64.9889 38.5126C67.063 38.7432 69.1372 38.9738 71.4418 39.2044C71.6722 42.433 71.6722 45.6616 71.9027 48.8902C71.9027 51.1964 71.9027 53.7331 72.1332 56.2699C72.1332 59.9597 71.9027 65.0332 75.3596 67.3394C77.2033 68.4924 79.5079 68.2618 81.3516 67.3394C82.043 67.1088 82.7344 66.8781 83.1953 66.4169C83.6562 66.1863 83.8867 65.7251 83.8867 65.2638C84.5781 64.572 85.039 63.6495 85.039 62.7271C85.2694 61.574 84.1171 60.1903 82.9648 60.8822C82.043 61.3434 81.5821 62.0352 80.8907 62.9577C76.7424 62.9577 76.9728 57.8842 76.7424 54.6556C76.5119 50.5045 76.2815 46.1229 76.051 41.5106C76.051 41.0493 76.051 40.3575 76.051 39.8963C77.4338 40.1269 78.8165 40.1269 80.1993 40.1269C81.1211 40.1269 82.043 40.1269 82.9648 40.3575C83.8867 40.3575 84.8085 40.3575 85.2694 39.8963C85.7304 39.435 85.7304 38.7432 85.2694 38.282L85.039 38.0514C84.8085 37.1289 84.3476 36.4371 83.4258 36.2064C82.7344 35.7452 81.8125 35.9758 80.8907 35.7452C80.1993 35.7452 79.2775 35.7452 78.5861 35.5146C77.6642 35.5146 76.7424 35.5146 76.051 35.284C75.8205 28.5962 75.8205 22.139 75.3596 15.4512C75.1292 13.6062 72.1332 12.9144 71.9027 14.9899C71.2113 21.6777 71.2113 28.3656 71.4418 35.0534C70.9809 35.0534 70.2895 35.0534 69.8286 35.0534C68.2153 35.0534 66.6021 35.0534 65.2193 35.5146C64.528 35.7452 64.528 36.4371 64.7584 36.8983C63.8366 37.3595 64.2975 38.5126 64.9889 38.5126Z" fill="black"/>
<path d="M335.78 57.423C335.78 57.1923 336.011 56.9617 336.011 56.7311C336.011 56.7311 336.011 56.7311 336.241 56.5005C336.011 56.9617 335.78 57.1923 335.78 57.423ZM336.241 52.5801L336.472 52.3494C336.241 52.5801 336.241 52.5801 336.241 52.5801C336.011 52.8107 336.011 52.5801 336.241 52.5801ZM344.999 52.5801C344.768 52.1188 344.538 51.427 344.077 51.1964C343.846 50.9658 343.616 50.9658 343.616 50.9658C343.386 50.7351 343.155 50.5045 342.694 50.5045C342.233 50.2739 341.542 50.2739 341.081 50.2739C340.85 50.2739 340.85 50.0433 340.62 50.0433C340.39 50.0433 339.929 50.0433 339.698 50.2739C339.468 50.2739 339.007 50.5045 338.776 50.5045C338.315 50.7351 338.085 50.9658 337.624 51.1964C337.394 51.427 336.933 51.8882 336.702 52.1188C336.472 52.3494 336.241 52.3494 336.241 52.8107V53.0413C336.241 53.2719 336.241 53.2719 336.011 53.5025C336.011 53.7331 336.011 53.7331 336.011 53.9637C336.011 54.1944 336.011 54.425 336.241 54.6556C336.241 55.1168 336.472 55.3474 336.702 55.8087C336.933 56.0393 337.163 56.2699 337.163 56.2699C336.933 56.5005 336.472 56.7311 336.241 56.9617C336.241 56.9617 336.011 56.9617 336.011 57.1923C335.55 57.423 335.55 57.8842 335.78 58.3454C335.78 58.576 336.011 58.8066 336.241 58.8066C336.472 59.0373 336.702 59.0373 336.933 59.0373C336.933 59.0373 336.933 59.0373 337.163 59.0373C337.394 59.0373 337.854 59.0373 338.085 59.0373C338.315 59.0373 338.546 59.0373 338.776 59.0373C339.237 59.0373 339.698 58.8066 340.159 58.576C340.62 58.576 340.85 58.3454 341.081 58.1148C341.542 57.8842 342.003 57.1923 342.003 56.7311C342.694 56.7311 343.385 56.5005 343.846 56.2699L344.077 56.0393C344.307 55.8087 344.538 55.578 344.538 55.3474C344.768 55.1168 344.768 54.8862 344.768 54.6556C344.768 54.425 344.999 54.1944 344.999 53.7331C344.999 53.5025 344.999 53.0413 344.999 52.5801Z" fill="black"/>
<path d="M78.1274 96.858C78.5883 93.6294 79.2796 88.7865 78.5883 85.0967C78.8187 85.0967 79.0492 85.0967 79.0492 85.0967C83.8889 86.2498 87.5762 89.4783 89.8809 93.6294C91.955 97.5499 91.7246 102.393 89.6504 106.313C86.8849 111.156 82.5061 113.462 76.975 113.232C76.975 113.232 76.7446 113.232 76.5141 113.232C76.5141 111.156 76.5141 109.081 76.7446 106.774C77.2055 103.776 77.6664 100.317 78.1274 96.858ZM87.8067 117.844C91.2636 115.999 94.2596 113.232 96.1033 109.542C99.0993 103.546 99.0993 96.6274 95.8728 90.862C94.951 89.2477 93.7987 87.6334 92.6464 86.2498C89.4199 82.5599 85.2716 79.7926 79.971 78.8701C79.7406 78.8701 79.5101 78.8701 79.0492 78.8701C75.1314 78.1783 71.2135 78.8701 67.9871 80.9456C64.9911 83.0212 62.456 86.711 63.1474 90.6314C63.3778 91.7845 64.9911 92.707 66.1434 92.4763H66.3738C66.6043 92.4763 66.8348 92.2457 66.8348 92.0151C67.0652 91.7845 67.2957 91.7845 67.2957 91.5539C67.9871 90.4008 68.2175 89.2477 68.9089 88.0947C69.6003 87.1722 70.5221 86.4804 71.444 86.0191C72.3658 85.5579 73.5181 85.3273 74.44 85.0967C74.2095 86.2498 74.2095 87.4028 74.2095 88.3253C73.9791 91.3233 73.7486 94.5519 73.2877 97.5499C72.5963 102.393 71.444 107.005 70.2917 111.848C70.2917 111.848 70.0612 111.848 70.0612 111.617C69.8308 111.387 69.3698 110.925 69.1394 110.695C68.9089 110.234 68.6785 109.772 68.2175 109.311C67.2957 108.389 65.452 107.697 64.2997 108.389C63.3778 108.85 62.9169 109.542 62.6865 110.464C62.2255 110.695 61.9951 110.925 61.5342 111.156C60.8428 111.848 60.8428 112.77 61.5342 113.693C63.6083 116.23 66.1434 117.844 68.9089 118.997C67.0652 128.222 66.3738 137.907 68.9089 147.132C69.6003 149.438 72.3658 150.591 74.44 149.207C74.44 149.207 74.44 149.207 74.6704 148.977C75.5923 148.977 76.2837 148.516 76.2837 147.593C77.2055 146.44 76.975 145.287 76.2837 144.365C76.2837 136.524 76.5141 128.452 76.7446 120.611C80.432 120.842 84.3498 119.689 87.8067 117.844Z" fill="black"/>
<path d="M94.4871 130.297C94.4871 130.297 94.7175 130.297 94.7175 130.066C94.7175 130.066 94.7175 130.066 94.948 130.066C95.1784 130.066 95.1784 130.066 95.4089 130.066C95.4089 130.066 95.4089 130.066 95.6394 130.066C95.8698 130.066 95.8698 130.066 95.8698 130.066C96.3307 130.297 96.5612 130.297 96.7917 130.528C97.0221 130.528 97.2526 130.758 97.483 130.758C98.1744 130.989 98.6354 131.45 99.0963 131.911C99.0963 131.911 99.0963 131.911 99.3267 132.142C99.3267 132.142 99.3267 132.142 99.5572 132.373C99.5572 132.373 99.5572 132.373 99.3267 132.373C99.3267 132.603 99.5572 132.603 99.5572 132.834C99.5572 132.834 99.5572 132.834 99.5572 133.064C99.5572 133.064 99.5572 133.295 99.7877 133.295C99.7877 133.526 99.7877 133.526 99.7877 133.756C99.7877 133.987 99.7877 134.218 99.7877 134.448C99.7877 134.679 99.7877 134.909 99.5572 135.14C99.5572 135.371 99.3267 135.371 99.3267 135.601C99.0963 135.832 99.0963 136.062 98.8658 136.293C98.8658 136.524 98.6354 136.524 98.6354 136.754C98.4049 136.985 98.1744 137.215 97.944 137.446C97.7135 137.677 97.4831 137.907 97.2526 138.138C97.0221 138.369 97.0221 138.138 97.2526 138.138H97.0221C96.7917 138.369 96.3307 138.369 96.1003 138.599H95.8698C95.8698 138.599 95.8698 138.599 95.6394 138.599C95.4089 138.599 94.948 138.599 94.7175 138.83H94.4871C94.2566 138.83 94.2566 138.83 94.0261 138.83H93.7957C93.7957 138.83 93.7957 138.83 93.5652 138.83C93.5652 138.83 93.3348 138.83 93.1043 138.599C93.1043 138.599 92.8738 138.369 92.6434 138.369L92.4129 138.138C92.1824 137.907 92.1825 137.446 91.952 137.215C91.952 136.985 91.7215 136.754 91.7215 136.524C91.7215 136.293 91.7215 136.293 91.7215 136.062C91.7215 135.601 91.7215 135.371 91.7215 134.909C91.7215 134.679 91.7215 134.448 91.7215 134.218V133.756C91.7215 133.526 91.7215 133.295 91.7215 133.295C91.7215 132.834 91.952 132.603 91.952 132.142C92.4129 132.142 92.6434 132.142 93.1043 131.911C93.3348 131.22 94.0261 130.758 94.4871 130.297ZM94.7175 130.066C94.948 130.066 94.948 130.066 94.7175 130.066V130.066ZM94.2566 145.979C99.3267 145.979 104.166 143.442 105.549 138.369C105.78 137.677 105.78 136.985 106.01 136.293C106.471 134.448 106.471 132.603 105.78 130.758C105.319 129.836 104.858 129.144 104.166 128.452C103.475 127.299 102.553 126.146 101.401 125.224C97.944 122.456 92.1824 122.456 88.956 125.224C84.8077 127.53 82.7336 132.603 83.8859 137.215C84.5772 142.52 89.1865 145.748 94.2566 145.979Z" fill="black"/>
<path d="M178.839 217.7L178.378 218.392C178.378 218.392 178.378 218.392 178.148 218.392C177.918 218.392 177.687 218.161 177.457 218.161C177.457 218.161 177.457 218.161 177.226 218.161C178.378 215.163 179.07 211.935 179.3 208.706C180.222 211.704 180.453 214.933 178.839 217.7ZM50.9336 217.239C50.4726 218.161 50.0117 218.853 49.5508 219.775C49.7813 218.853 50.2422 217.931 50.9336 217.239ZM100.483 218.853C100.252 219.084 100.252 219.314 100.022 219.545C99.3304 219.545 98.8694 219.545 98.4085 219.545C99.0999 219.545 99.7913 219.314 100.483 218.853ZM126.064 198.559C126.986 199.251 127.908 200.173 128.829 201.326C126.294 202.018 118.228 204.324 116.845 200.865C117.537 200.634 117.998 200.404 118.228 199.481C118.689 198.098 119.841 197.406 121.224 197.175C123.068 196.945 124.681 197.636 126.064 198.559ZM117.076 212.857C114.771 209.859 114.08 206.169 114.08 202.249C115.693 204.785 119.15 206.4 122.376 206.4C125.372 206.4 128.368 205.708 131.364 204.786C131.364 204.786 131.364 204.786 131.364 205.016C131.364 206.169 131.134 207.322 130.904 208.475C129.29 215.394 122.376 219.314 117.076 212.857ZM161.324 204.094C161.324 204.324 161.555 204.555 161.555 204.786C161.324 204.555 161.324 204.555 161.094 204.324C161.324 204.324 161.324 204.094 161.324 204.094ZM227.928 190.718C229.08 189.334 229.771 189.565 229.771 191.64C230.924 193.024 230.693 193.716 229.31 193.716C228.388 194.408 227.006 194.869 225.392 195.1C225.853 193.716 226.545 192.332 227.236 191.179C227.467 190.949 227.697 190.949 227.928 190.718ZM267.797 194.408C269.411 193.485 271.024 192.563 272.867 191.64C275.402 190.487 278.168 189.796 280.934 189.334C282.547 189.104 287.156 190.257 286.234 192.794C286.004 193.485 283.008 194.638 282.316 195.1C280.012 196.253 277.707 197.175 275.402 197.867C274.25 197.175 273.098 196.714 271.946 196.253C270.563 195.33 269.18 194.638 267.797 194.408ZM300.292 208.937C298.91 209.859 297.527 211.243 296.374 212.396C294.3 212.857 292.457 213.779 290.152 214.471C287.386 215.394 285.312 215.163 283.699 214.241C283.008 212.857 283.008 211.012 283.008 209.398C282.777 206.861 282.086 204.786 280.934 202.941C281.625 202.71 282.316 202.479 283.008 202.479C285.773 201.557 288.539 200.173 290.382 197.867C293.839 193.716 293.839 187.259 289.23 183.8C284.39 180.34 276.555 181.955 271.485 184.03C265.723 186.336 260.653 190.487 256.966 195.561C255.813 196.945 254.891 198.559 253.97 200.173C254.661 196.022 255.352 191.871 256.274 187.72C258.579 178.034 263.419 167.887 260.883 157.74C260.423 156.126 257.427 154.742 256.505 156.587C249.36 171.116 247.978 187.72 240.372 202.249C238.529 205.708 236.455 209.398 233.228 211.935C231.615 213.318 228.849 214.702 226.775 213.318C225.162 212.396 224.471 210.09 224.24 208.475C224.01 206.169 224.01 203.171 224.471 200.173C227.006 199.943 229.771 199.481 232.306 198.559C236.685 196.945 241.294 193.024 240.603 187.951C239.912 183.338 235.072 181.493 230.924 182.877C228.158 183.8 226.084 185.645 224.471 187.72C221.705 189.796 219.631 192.794 218.479 196.022C218.248 196.022 218.018 196.022 217.787 196.022C216.174 196.022 213.639 195.33 212.026 196.253C208.799 197.867 208.108 204.094 206.725 207.092C206.034 208.475 205.342 210.551 203.729 211.012C201.425 211.704 199.35 208.937 198.889 206.63C198.198 203.402 199.581 198.559 200.272 195.33C200.503 193.947 199.581 192.563 198.198 192.563C197.046 191.871 195.202 192.102 193.819 192.102C192.206 192.102 190.593 192.102 189.21 192.102C187.597 192.102 185.984 192.102 184.37 192.102C183.679 192.102 182.757 192.102 182.066 192.102C181.605 192.102 181.144 192.332 180.914 192.332C179.992 190.718 177.457 190.718 176.765 191.871C175.613 192.102 174.691 192.794 174.922 194.177C176.535 200.865 176.304 207.553 174.461 214.241C169.851 209.859 166.164 204.785 164.09 198.79C163.629 197.406 161.094 196.022 160.172 197.867C157.867 202.479 155.793 207.092 153.719 211.704C152.567 205.939 151.645 200.173 151.184 194.408C150.954 192.563 149.11 191.64 147.497 192.563C143.579 195.33 139.661 197.636 135.282 199.251C133.9 195.1 130.904 191.64 126.294 190.718C121.685 189.796 116.615 191.64 114.31 195.33C113.388 194.408 111.545 194.408 111.084 195.792C108.779 200.634 106.705 205.247 103.709 209.628C103.018 210.781 102.096 211.935 101.405 212.857C100.483 214.933 99.0999 215.394 97.0257 214.241C96.1039 214.241 95.643 214.241 94.9516 214.01C94.7211 208.014 94.9516 201.788 95.8735 195.792C95.8735 195.33 96.1039 194.869 96.1039 194.408C97.4867 189.565 98.4085 184.953 99.0999 180.11C99.7913 177.573 100.483 175.267 101.174 172.73C101.635 172.73 102.096 172.73 102.557 172.73C108.779 172.961 115.693 173.191 121.224 169.502C123.529 167.887 120.533 164.659 118.459 165.581C112.928 168.118 107.396 168.579 101.174 168.579C100.022 167.426 98.1781 166.965 97.2562 168.579C91.4947 168.579 85.7332 168.81 79.9716 169.271C78.5889 169.271 79.0498 171.346 80.2021 171.346C85.5027 171.808 90.5728 172.038 95.8735 172.269C94.7211 175.497 93.7993 178.726 93.1079 182.185C91.4947 187.259 89.4205 192.332 87.1159 197.175C85.0418 201.557 82.7372 205.708 80.2021 209.859C78.128 213.088 76.0538 216.777 72.8274 218.161C69.8314 218.392 66.6049 217.469 62.9175 214.933C62.9175 214.933 62.6871 214.933 62.6871 214.702C61.7652 214.01 61.0739 213.318 60.152 212.626C63.148 208.014 66.144 203.863 69.6009 199.712C71.2141 198.098 72.5969 196.483 74.4406 195.1C74.9015 194.638 75.132 194.177 75.132 193.716C75.3624 193.485 75.5929 193.024 76.0538 192.794C77.8975 190.949 75.5929 187.489 73.0578 188.643C67.9877 191.179 62.4566 191.64 56.9256 190.026C53.4686 189.104 50.7031 188.643 47.9376 191.179C45.172 193.716 43.5588 198.098 41.9456 201.557C40.1019 205.477 38.2582 209.628 35.7231 213.318C33.8795 216.086 31.8053 219.314 28.8093 221.159C25.3524 222.082 22.126 220.698 20.0518 217.931C20.0518 217.7 19.8213 217.469 19.8213 217.239C19.13 214.933 18.8995 212.626 19.13 210.32C19.13 207.322 19.8213 204.555 20.7432 201.788C23.9696 195.1 29.7312 189.104 35.7231 191.871C36.4145 193.024 38.0278 193.024 38.4887 192.102C38.4887 192.102 38.4887 191.871 38.7191 191.871C38.7191 191.64 38.9496 191.64 38.9496 191.41C39.1801 187.028 35.0318 184.03 30.8835 184.491C25.3524 184.953 21.2041 190.257 18.669 194.869C14.0598 203.171 11.2943 219.084 19.8213 226.002C26.9656 231.767 34.5708 223.926 39.4105 216.547C41.0237 214.471 42.1761 212.396 43.3284 210.781C45.4025 207.553 47.7071 204.094 49.7813 200.865C51.8554 197.636 52.7773 194.869 56.4646 195.1C56.9256 195.33 57.3865 195.33 57.8474 195.33C58.0779 195.33 58.3083 195.33 58.3083 195.33C60.6129 196.022 62.9175 196.483 64.9917 196.714C62.9175 199.251 60.8434 201.788 58.9997 204.555C57.3865 206.63 56.0037 208.706 54.3905 210.781C52.5468 210.781 50.7031 211.012 49.0899 211.935C42.8674 215.163 42.637 223.235 47.2462 227.847C48.168 228.769 50.4726 229.461 51.164 227.847C53.0077 223.926 55.0819 220.237 57.3865 216.547C59.9215 217.931 61.9957 220.929 64.3003 222.082C68.9095 224.388 73.7492 223.926 77.4366 221.159C79.7412 220.237 81.5849 218.853 83.4286 217.239C85.7332 214.933 87.5769 212.165 89.4205 209.398C89.4205 210.32 89.4205 211.243 89.651 211.935C89.651 212.165 89.651 212.626 89.651 212.857C89.651 213.318 89.651 213.779 89.651 214.471C89.651 214.933 89.8815 215.394 90.1119 215.624C90.5728 217.469 91.4947 219.314 92.8775 220.698C96.3344 224.388 101.405 224.388 105.322 221.851C107.396 220.467 108.779 218.622 109.932 216.547C110.162 215.855 110.623 215.163 110.853 214.471C111.314 215.855 112.236 217.008 113.158 218.392C116.384 222.312 122.146 224.388 126.986 222.773C129.521 221.851 131.595 219.775 133.208 217.469C134.821 215.163 136.204 212.165 136.665 209.398C136.895 207.322 136.435 205.247 135.513 203.402C138.97 202.018 142.196 200.173 145.423 198.328C145.653 203.402 145.883 208.245 146.344 213.088C146.575 216.086 146.805 218.853 147.036 221.851C147.266 224.157 148.188 226.002 150.723 226.694C151.415 226.924 152.106 226.463 152.567 225.771C156.024 221.159 158.559 215.855 160.403 210.551C162.477 213.088 164.781 215.624 167.547 217.469C169.621 218.853 171.695 220.237 173.769 221.39C175.843 222.543 178.378 223.926 180.683 222.312C184.601 219.314 184.601 213.549 183.91 209.167C183.218 205.016 182.066 200.865 181.144 196.714C185.292 197.175 189.21 197.175 193.358 196.945C193.589 200.173 193.589 203.632 193.589 206.861C193.589 210.551 194.28 214.471 197.276 217.239C200.042 219.775 203.729 220.006 207.186 218.853C210.643 217.7 213.178 214.933 214.561 211.704C216.174 208.014 216.405 204.094 216.174 200.173C216.405 200.173 216.405 199.943 216.635 199.943C216.865 199.943 216.865 199.943 217.096 199.943C216.404 205.708 217.787 213.318 222.857 216.777C225.392 218.622 228.388 218.392 231.384 217.239C233.459 216.777 235.302 215.624 236.916 214.241C237.146 214.01 237.607 213.779 237.837 213.549C241.986 210.551 245.212 207.092 247.747 203.171C247.517 205.247 247.517 207.553 247.286 209.628C247.286 211.012 247.056 212.626 247.056 214.01C247.056 214.241 246.825 214.471 246.825 214.702C246.825 214.933 246.825 215.394 247.056 215.624C247.056 216.777 246.825 217.7 246.825 218.853C246.825 221.62 251.665 222.543 251.665 219.314C251.665 218.161 251.895 216.777 251.895 215.624C253.509 209.628 256.505 204.094 260.653 199.712C264.11 202.018 267.797 202.71 271.715 202.479C273.328 205.477 274.481 209.398 275.172 211.012C276.324 213.549 278.168 216.086 280.703 217.7C280.934 217.931 281.394 217.931 281.625 218.161C284.16 220.237 287.617 220.698 290.843 220.006C293.839 219.314 296.374 217.7 298.91 215.855C299.831 215.624 300.753 215.624 301.906 215.624C304.441 215.855 304.902 213.088 303.749 211.704C305.593 210.32 302.366 207.322 300.292 208.937Z" fill="#00C6C5"/>
<path d="M201.883 168.348C200.961 167.887 199.808 167.887 198.656 168.348C198.426 168.348 198.195 168.579 197.965 168.579C197.734 168.81 197.504 168.81 197.273 169.04C197.043 169.271 196.812 169.502 196.582 169.732C196.582 169.963 196.351 169.963 196.351 170.193C196.351 170.193 196.351 170.193 196.351 170.424C196.121 170.655 195.891 170.655 195.66 170.885C195.199 171.346 194.738 171.808 194.508 172.499C194.277 172.73 194.277 173.191 194.277 173.422C194.277 173.653 194.277 173.653 194.277 173.883C194.277 174.114 194.277 174.114 194.277 174.344C194.508 175.036 194.738 175.728 195.43 176.189C195.43 176.189 195.66 176.42 195.891 176.42C196.121 176.651 196.351 177.112 196.582 177.342C197.504 178.265 198.656 178.726 199.808 178.495C200.269 178.495 200.73 178.265 201.191 178.034C201.883 177.804 202.113 177.342 202.574 176.881C202.804 176.651 203.035 176.189 203.035 175.959C203.496 175.728 203.726 175.267 203.957 175.036C204.879 173.653 204.879 171.808 203.957 170.424C203.496 169.502 202.804 168.81 201.883 168.348Z" fill="#00C6C5"/>
<path d="M7.37378 109.542C8.06516 110.234 8.987 110.925 9.90884 111.156C9.44792 111.156 8.987 110.925 8.52608 110.695C8.06516 110.464 7.60424 110.003 7.37378 109.542ZM41.2515 39.2044L41.0211 38.9738C39.8688 38.0514 38.7165 37.5901 37.5642 37.8208L37.7946 37.5901C40.7906 36.8983 41.2515 37.8208 41.2515 39.2044ZM38.486 47.2759C37.3337 48.8902 35.7205 50.5045 34.3377 51.8882C33.8768 52.3495 33.4159 52.5801 33.1854 52.8107C33.1854 52.5801 33.1854 52.3495 33.1854 52.3495C33.4159 50.0433 34.1072 47.7372 35.0291 45.431C35.0291 45.2004 35.2595 44.9698 35.2595 44.7392C35.9509 41.7412 37.3337 41.7412 39.4078 44.9698C39.6383 45.6616 39.1774 46.5841 38.486 47.2759ZM7.14331 97.3192C7.37377 92.0151 8.75654 86.4804 11.2916 81.6375C12.4439 79.3313 14.0571 77.2558 15.6704 75.4109C15.9008 77.717 16.1313 80.2538 16.1313 82.7905C16.1313 86.9416 15.9008 90.862 15.6704 95.0131C15.4399 97.0886 15.4399 99.1642 15.2094 101.24C14.979 101.932 14.979 102.854 14.5181 103.546C13.8267 105.621 12.9048 109.311 9.21746 107.466C8.52608 107.005 7.8347 104.93 7.60424 104.468C7.14331 101.932 7.14331 99.6254 7.14331 97.3192ZM12.6744 114.846C20.2796 112.309 19.5882 101.701 20.0491 95.2437C20.51 86.9416 20.7405 78.6395 20.51 70.1068C23.2756 67.8006 26.0411 65.4945 28.8066 63.1883C29.0371 62.9577 29.0371 62.9577 29.2676 62.7271C29.498 63.1883 29.498 63.4189 29.7285 63.8802C31.8026 67.3394 34.3377 68.2618 36.8728 67.8006C40.0992 68.2618 44.0171 66.6475 46.7826 63.6496C52.3137 57.6536 54.8487 49.3515 55.7706 41.0493C55.7706 40.5881 55.7706 40.3575 56.001 39.8963C57.8447 42.8943 59.9189 46.1229 61.3016 49.3515C62.2235 51.427 62.9149 53.7331 62.9149 56.0393C62.2235 59.2679 60.3798 62.4965 57.3838 63.6496C56.6924 63.8802 56.001 63.6496 55.0792 63.4189C53.9269 62.9577 53.005 63.4189 52.5441 64.1108C50.9309 64.572 51.3918 67.57 53.466 67.8006C53.9269 67.8006 54.3878 67.8006 54.8487 67.8006C60.8407 68.9537 66.3718 64.1108 67.0632 58.1148C67.2936 56.5005 67.0632 54.8862 66.8327 53.2719C66.6022 48.6596 64.2976 44.5086 61.5321 40.8187C59.6884 37.8208 57.8447 35.0534 56.2315 32.5166C55.3096 30.9023 52.3137 30.9023 52.3137 32.9779C52.3137 41.5106 49.3177 49.8127 44.0171 56.7311C42.1734 59.0373 38.2555 63.8802 35.2595 62.7271C34.5682 61.8046 34.1072 60.1903 33.6463 58.8067C35.7205 56.9617 37.7946 54.6556 39.6383 52.3495C43.5561 47.9678 47.474 41.5106 44.9389 35.7452C41.482 28.3656 33.6463 33.6697 31.1112 38.7432C28.8066 43.5861 27.4239 50.5045 28.1153 56.5005C25.5802 58.3454 23.2756 59.9597 20.7405 61.8046C20.2796 50.0433 19.3577 37.5901 17.975 25.3676C17.7445 24.2145 17.0531 23.0614 15.9008 23.0614C10.8307 22.8308 4.14732 23.0614 1.38179 28.3656C-1.6142 34.1309 0.920869 43.3555 3.45594 48.6596C4.14732 49.8127 5.99101 49.3515 5.76055 47.9678C5.53009 47.0453 5.29963 45.8923 5.29963 44.9698C5.53009 45.6616 5.76055 46.3535 6.22147 47.0453C6.68239 48.1984 9.21746 47.7372 8.52608 46.3535C6.68239 41.5106 5.53009 35.7452 7.37378 30.6717C8.06516 29.0574 8.987 27.6737 10.6002 26.9819C11.5221 26.7513 12.4439 26.7513 13.3658 26.7513C13.8267 27.4431 14.0571 28.135 13.8267 29.0574C14.5181 32.0554 14.0571 35.7452 14.0571 38.7432C14.2876 48.1984 14.7485 57.6536 14.979 67.1088C5.53009 77.2558 -0.922819 92.4763 1.61225 106.083C2.76456 111.156 6.68239 116.921 12.6744 114.846Z" fill="black"/>
<path d="M97.0247 39.435C97.4856 38.7432 98.177 38.0514 99.0989 37.5901C100.482 37.8207 101.864 38.7432 103.017 40.1269C103.478 42.6636 103.939 45.2004 104.169 47.7372C101.173 47.9678 98.4075 48.1984 95.4115 48.429C95.4115 47.0453 95.181 45.8922 95.181 44.5086C95.4115 42.6636 96.1029 40.8187 97.0247 39.435ZM86.4235 49.3515C85.2712 48.429 83.197 49.8127 84.3494 51.1964C85.5017 53.0413 87.8063 53.5025 89.8804 53.7331C89.8804 59.9597 90.5718 67.1088 96.7942 69.8761C103.017 72.6435 110.161 69.1843 113.848 64.1108C116.153 60.6516 117.536 56.7311 118.918 53.0413C119.84 50.2739 120.762 47.5065 121.684 44.7392C122.606 47.9678 123.297 51.1964 123.758 54.425C123.989 56.7311 124.219 59.0373 124.91 61.1128C125.141 62.7271 125.371 64.3414 125.371 65.9557C125.602 67.1088 125.832 68.2618 126.754 68.9537C128.828 70.568 132.055 68.2618 130.442 65.7251C130.211 65.4945 129.981 65.2639 129.75 65.0332C129.75 64.3414 129.52 63.6496 129.52 63.1883C129.289 62.0352 129.289 60.6516 129.059 59.4985C129.059 59.2679 128.828 58.8067 128.828 58.576C129.75 51.6576 132.055 45.2004 135.512 39.2044C135.973 41.7412 136.434 44.0473 136.894 46.5841C136.894 47.5066 136.894 48.429 137.125 49.3515C137.355 51.8882 137.586 54.425 137.586 56.7311C137.816 58.8067 137.355 62.0352 139.199 63.1883C139.89 63.6496 140.582 63.6496 141.043 63.1883C141.734 62.7271 141.965 62.0353 141.965 61.3434V61.1128C142.886 54.425 144.039 47.7372 147.035 41.7412C148.417 48.6596 146.113 57.1924 154.179 60.421C154.409 60.421 154.64 60.4209 154.64 60.6516C156.023 61.574 157.636 62.0353 159.019 61.3434C161.323 59.9597 160.401 57.6536 159.019 57.1923C158.327 56.9617 157.405 56.9617 156.945 56.2699C156.484 55.8087 156.023 55.1168 155.792 54.425C155.101 52.3495 155.101 50.2739 154.87 48.1984C154.64 45.8922 154.409 43.3555 153.949 41.0493C153.718 38.9738 153.027 36.8983 151.413 35.7452C149.8 34.3615 147.726 33.9003 145.882 35.0534C144.269 36.2064 143.578 38.282 143.117 39.8963C142.426 41.7412 141.734 43.5861 141.273 45.2004C141.043 42.433 140.812 39.8963 140.582 37.1289C140.351 35.284 139.89 33.4391 138.508 32.0554C137.125 30.6717 134.82 30.2105 133.207 31.5942C131.363 32.9778 130.902 35.5146 130.211 37.5901C129.289 40.3575 128.367 42.8943 127.446 45.6616C126.985 46.1229 126.754 46.5841 126.754 47.0453C126.524 45.6616 126.063 44.278 125.832 42.8943C125.602 41.28 125.141 39.6657 124.45 38.0514C124.219 37.3595 123.989 36.6677 123.758 35.9758C123.067 34.1309 120.071 33.2085 119.379 35.5146C118.918 36.8983 118.458 38.0514 118.227 39.435C115.692 44.5086 113.157 49.5821 110.852 54.6556C109.47 57.423 108.087 60.1903 105.552 62.0352C102.325 64.572 97.7161 64.3414 96.3333 59.9597C95.6419 57.8842 95.6419 55.5781 95.6419 53.5025C99.5598 53.5025 103.478 53.2719 107.395 52.8107C108.317 52.8107 109.009 51.8882 109.239 50.9658C110.391 50.9658 110.852 49.5821 110.391 48.6596C109.7 47.0453 109.009 45.431 108.548 43.8167C108.317 41.9718 108.087 39.8963 107.395 38.0514C106.474 34.5921 103.478 32.286 99.7902 32.5166C97.0247 32.7472 94.9506 34.1309 93.5678 36.2064C93.5678 36.2064 93.5678 36.2064 93.5678 36.4371C91.0327 39.8963 90.3413 44.9698 90.1109 48.8902C89.8804 48.8902 89.8804 48.8902 89.65 48.8902C89.189 48.8902 88.9586 49.3515 88.7281 49.5821C87.8063 49.5821 86.8844 49.5821 86.4235 49.3515Z" fill="black"/>
<path d="M306.053 59.9597C305.823 59.9597 305.823 59.7291 305.823 59.4985C307.205 59.4985 308.358 58.8066 309.28 57.8842C309.28 57.8842 309.28 57.8842 309.28 58.1148C308.588 59.0373 307.436 61.1128 306.053 59.9597ZM299.37 59.7291C299.6 59.4985 300.061 59.0373 300.292 58.8066C300.292 59.0373 300.522 59.0373 300.522 59.2679L300.753 59.4985C300.061 59.2679 300.292 59.2679 299.37 59.7291ZM297.757 60.8822C297.296 61.1128 296.835 61.1128 296.604 60.8822C297.065 60.8822 297.757 60.8822 298.218 60.4209C298.218 60.4209 298.218 60.6516 297.987 60.6516C297.987 60.6516 297.987 60.8822 297.757 60.8822ZM185.983 44.2779C186.213 44.0473 186.674 44.0473 186.905 44.2779C185.522 46.1229 184.831 48.6596 184.6 51.6576C184.6 51.427 184.6 51.1964 184.6 51.1964C184.37 49.1208 184.139 45.2004 185.983 44.2779ZM188.057 58.3454C187.827 56.5005 187.827 54.6556 188.057 52.8107C188.288 50.2739 189.209 47.7372 190.823 46.8147C191.284 47.2759 191.745 47.7372 192.205 48.429C191.975 49.1208 191.745 49.5821 191.745 50.2739C191.514 50.9658 191.284 51.6576 191.053 52.3494C189.901 54.1944 189.209 56.2699 188.057 58.3454ZM304.21 55.1168C303.979 50.9658 305.131 47.0453 307.206 43.3555C308.127 41.7412 309.51 40.1269 310.893 38.9738C311.354 38.9738 311.815 38.9738 312.045 38.9738C311.354 41.9718 310.432 45.2004 309.28 47.9678C308.588 49.8127 307.666 51.8882 306.514 53.7331C306.284 54.6556 305.362 56.2699 304.21 55.1168ZM330.482 55.3474C330.482 55.1168 330.252 54.8862 330.252 54.6556C330.021 54.425 330.021 53.9637 329.791 53.7331C329.33 53.0413 328.638 52.5801 327.717 52.5801C327.025 52.8107 326.334 53.2719 326.334 54.1944C325.873 53.9637 325.642 53.7331 325.181 53.7331C324.029 53.5025 323.338 53.0413 322.416 52.1188C321.494 50.9658 321.033 49.5821 320.572 48.429C319.189 44.5086 318.268 40.3575 317.115 36.2064C316.885 35.7452 316.654 35.284 316.193 35.0534C316.654 34.1309 315.733 33.2085 315.041 33.2085C312.506 32.9778 309.971 34.5921 307.897 36.4371C307.206 36.6677 306.514 37.1289 305.823 37.5901C302.596 40.3575 300.522 44.7392 299.831 48.8902C299.6 50.5045 299.37 52.1188 299.6 53.7331C299.139 54.1944 298.448 54.8862 297.987 55.578C297.757 56.0393 297.296 56.7311 296.835 57.1923C296.604 56.7311 296.374 56.5005 296.374 56.0393C295.913 55.1168 295.682 54.1944 295.452 53.5025C294.991 51.6576 294.761 49.5821 294.53 47.7372C294.53 44.7392 295.682 41.0493 293.839 38.282C291.765 35.284 287.616 35.7452 285.312 38.282C283.238 40.5881 282.085 43.5861 281.394 46.5841C281.163 45.431 280.702 44.2779 280.472 42.8943C280.242 42.2024 280.011 41.28 279.781 40.5881C280.242 40.3575 280.702 40.3575 281.163 40.1269C282.085 39.6657 282.546 38.5126 282.085 37.5901C281.624 36.6677 280.702 35.9758 279.55 35.9758C278.167 36.2065 277.015 36.4371 275.632 36.8983C275.402 36.8983 275.171 36.8983 274.71 37.1289C273.789 37.3595 272.636 37.3595 271.715 37.5901C270.562 37.8207 269.179 37.8207 268.027 37.8207C267.566 37.8207 267.336 37.8207 266.875 37.8207C265.723 37.1289 264.57 37.5901 263.879 38.5126C263.648 38.282 263.418 38.282 262.957 38.282C260.883 37.1289 259.039 39.6657 261.113 41.0493C265.723 44.0473 268.027 49.8127 266.414 55.3474C265.723 58.1148 263.187 61.3434 260.422 60.6516C259.961 59.9597 259.5 59.2679 259.27 58.576C258.117 55.8087 257.887 52.5801 257.656 49.8127C256.735 34.1309 256.735 18.4492 257.426 2.76738C257.656 6.61612e-06 253.047 -0.691836 252.817 2.30615C251.664 13.3756 250.743 24.4451 249.59 35.5146C249.129 38.282 248.438 41.0493 247.747 43.8167C247.055 46.5841 246.364 49.1208 245.672 51.8882C245.211 53.5025 244.751 56.9617 243.829 59.0373H243.598C241.063 59.7291 239.68 54.8862 238.989 53.0413C238.067 50.7351 237.145 48.429 236.224 46.1229C236.224 45.2004 236.224 44.2779 236.454 43.3555C236.684 40.5881 232.075 39.8963 231.845 42.8943C231.614 45.431 231.614 47.9678 231.153 50.7351C231.153 50.9658 230.923 51.427 230.923 51.6576C230.462 53.2719 229.54 57.1923 228.157 59.2679C227.927 59.4985 227.696 59.9597 227.236 60.1903C226.775 60.6516 226.083 60.8822 225.622 61.1128C226.083 59.9597 225.853 59.9597 225.622 59.7291C224.24 59.2679 223.548 58.3454 223.548 56.7311C223.087 55.578 222.857 54.1944 222.626 52.8107C221.935 49.5821 221.704 46.3535 221.704 42.8943C221.704 41.9718 221.013 41.28 220.091 41.0493C219.861 38.9738 215.943 37.8207 215.482 40.3575C214.56 45.6616 213.638 51.427 211.795 56.5005C211.564 57.423 211.103 58.8066 210.181 59.2679C209.029 59.9597 207.416 59.0373 206.494 58.3454C205.572 57.8842 204.881 57.1923 203.959 56.5005C201.654 53.0413 200.272 48.6596 197.506 45.6616C197.737 45.2004 197.737 44.7392 197.967 44.2779C198.428 42.6636 198.889 41.28 199.35 39.6657C199.58 38.7432 200.041 37.5901 200.272 36.6677V36.4371C201.424 32.5166 202.576 28.5962 203.959 24.6757C204.881 21.6777 205.803 18.4491 206.725 15.4512C207.185 14.0675 207.416 11.9919 208.107 10.6083L208.338 10.3776C208.799 10.8389 209.029 11.3001 209.49 11.7613C209.49 12.6838 209.49 13.8369 209.49 14.2981C209.26 16.143 212.486 17.0655 212.947 14.9899C214.099 11.3001 213.408 5.76536 208.568 5.30414C208.338 5.30414 208.338 5.30414 208.107 5.30414C207.416 4.84291 206.494 4.61229 206.033 5.30414C200.963 10.6083 199.811 18.2185 198.428 25.3676C196.584 31.1329 194.971 36.6677 193.127 42.433C192.897 42.2024 192.436 42.2024 192.205 41.9718C189.209 39.2044 185.983 37.5901 182.757 39.6657C179.069 41.9718 178.839 47.2759 179.3 50.9658C179.761 55.3474 181.604 59.4985 184.37 62.9577C184.37 63.4189 184.6 64.1108 184.6 64.572C184.831 65.9557 187.366 67.1088 188.288 65.4945C188.518 65.4945 188.749 65.4945 188.979 65.4945C191.053 65.0332 191.745 63.1883 192.205 61.3434C193.127 58.3454 194.049 55.578 194.971 52.5801C195.201 52.8107 195.432 53.2719 195.662 53.5025C197.506 56.0393 199.35 58.3454 201.885 60.4209C202.576 61.3434 203.268 62.4965 204.189 63.1883C207.877 66.4169 211.103 65.2638 213.638 62.0352C214.56 61.3434 215.252 60.1903 215.712 58.8066C215.943 58.3454 215.943 57.8842 216.173 57.6536C216.173 57.423 216.404 57.423 216.404 57.1923C216.865 58.8066 217.556 60.1903 218.708 61.3434C220.552 63.1883 223.087 64.1108 225.622 63.8802H225.853C227.236 63.8802 228.388 63.4189 229.54 62.4965C232.306 60.8822 233.919 58.1148 234.841 55.1168C235.071 54.425 235.071 53.9637 235.302 53.2719C235.532 53.7331 235.532 54.1944 235.763 54.8862C235.763 55.1168 235.993 55.3474 235.993 55.578C235.993 55.8087 235.993 56.0393 236.224 56.0393C237.145 58.3454 237.837 61.3434 239.68 62.9577C242.446 65.4945 244.29 64.1108 245.672 61.8046C248.668 60.1903 250.743 55.8087 251.664 52.5801C251.895 51.8882 251.895 50.9658 252.125 50.2739C252.356 54.6556 253.278 59.2679 256.043 61.8046C257.887 64.1108 260.422 65.9557 263.418 66.1863C267.336 66.1863 268.949 62.9577 269.871 59.4985C271.484 53.7331 271.945 47.5065 269.64 42.2024C271.484 41.9718 273.328 41.28 274.941 40.3575C275.402 43.3555 276.093 46.5841 276.554 49.5821C277.246 53.5025 277.476 57.423 277.476 61.574C277.476 63.6495 280.933 64.8026 281.624 62.4965C281.624 62.0352 281.855 61.8046 281.855 61.3434C282.777 61.3434 283.698 60.8822 283.698 59.7291C283.698 57.6536 283.698 55.578 283.698 53.5025C284.159 51.8882 284.62 50.0433 284.851 48.429C285.312 46.3535 285.773 44.2779 286.925 42.6636C287.386 41.9718 288.077 41.28 288.769 40.8187C288.769 41.5106 288.769 42.2024 288.769 43.1249C288.999 44.9698 288.999 46.8147 289.23 48.6596C289.69 52.1188 289.921 55.578 290.612 58.8066C291.073 61.574 292.917 64.3414 295.913 64.8026C297.987 65.2638 301.214 64.1108 301.214 61.574C301.444 61.8046 301.444 62.0352 301.674 62.2659C303.057 63.8802 305.131 64.8026 307.206 64.3414C309.51 63.8802 311.123 62.2659 312.045 60.1903C313.428 57.6536 314.35 54.8862 315.041 52.1188C315.733 53.7331 316.654 55.1168 317.576 56.7311C318.959 58.8066 320.342 60.4209 322.646 61.3434C323.568 61.8046 324.721 62.0352 325.642 61.8046C326.795 61.574 327.486 60.6516 328.177 59.9597C328.177 59.7291 328.177 59.7291 328.177 59.4985C328.869 58.8066 329.33 57.8842 329.56 56.7311C330.713 56.2699 330.482 55.8087 330.482 55.3474Z" fill="black"/>
<path d="M99.3283 132.141C99.0989 131.912 99.0989 132.141 99.3283 132.141V132.141Z" fill="black"/>
<path d="M235.07 97.7805V98.0111C235.07 98.2417 235.07 98.0111 235.07 97.7805C235.07 98.0111 235.07 98.0111 235.07 97.7805ZM200.27 122.687C200.04 126.377 198.657 130.297 195.891 132.603C194.509 133.756 192.895 134.448 191.052 133.987C189.439 133.526 188.747 132.142 188.517 130.528C188.286 128.452 188.747 126.146 188.978 124.07C189.208 122.687 189.669 121.303 189.899 119.919L190.13 119.689C191.282 117.152 192.665 113.001 196.122 113.232C196.583 113.232 196.813 113.232 197.044 113.462C199.579 115.768 200.27 119.689 200.27 122.687ZM156.944 118.075C156.944 118.305 157.174 118.305 157.174 118.536C156.944 118.305 156.713 118.305 156.483 118.305C156.713 118.075 156.944 118.075 156.944 118.075ZM251.433 135.601C250.972 135.601 250.511 135.832 250.05 135.371C249.589 135.14 249.128 134.679 248.897 134.218C249.819 134.909 250.741 135.371 251.433 135.601ZM261.803 131.681V131.45C261.803 130.989 261.803 130.758 261.573 130.297C261.803 130.989 262.034 131.681 262.495 132.373C262.725 132.834 262.956 133.064 263.186 133.295C262.725 132.834 262.264 132.373 261.803 131.681ZM248.667 137.446C248.897 137.677 249.128 137.677 249.358 137.907C250.511 138.369 251.893 138.369 252.815 137.907C252.815 137.907 252.815 137.907 252.585 138.138C251.433 138.83 249.589 138.83 248.667 137.446ZM162.475 133.756C162.475 133.526 162.475 133.295 162.475 133.064C162.475 132.142 162.705 131.22 162.705 130.297C162.705 128.683 162.705 127.068 162.475 125.454C162.014 122.226 161.092 118.766 159.94 115.768C159.709 115.077 159.018 114.385 158.096 114.615C153.717 115.307 151.643 119.458 150.03 123.148C149.799 123.609 149.569 124.07 149.338 124.762C148.877 125.454 148.647 126.377 148.186 127.068C148.186 123.148 148.647 119.228 146.803 115.538C145.881 113.923 143.116 113.232 141.964 115.077C140.12 117.844 137.585 120.611 136.202 123.84C135.28 125.915 137.585 127.76 139.429 126.607C140.581 125.915 141.503 124.762 142.655 123.84C142.655 126.146 142.425 128.222 142.425 130.528C142.194 134.679 142.194 139.06 141.964 143.211C141.733 151.975 141.272 160.508 140.811 169.271C140.581 172.73 146.342 173.653 146.573 169.963C147.264 160.738 147.725 151.283 147.956 142.058C147.956 140.675 147.956 139.291 147.956 138.138C148.877 134.448 150.03 130.758 151.643 127.068C152.104 126.146 152.565 124.993 153.026 123.84C153.717 122.917 154.869 121.995 155.791 121.534C156.713 124.532 156.022 127.53 155.561 130.528C155.1 133.295 154.639 136.524 156.483 138.83C158.326 140.905 160.631 140.444 162.475 138.83C165.701 138.369 167.545 134.679 168.467 131.911C169.158 129.605 169.849 127.299 170.541 124.762C170.541 125.915 170.771 127.299 170.771 128.452C171.002 132.142 171.232 135.601 171.693 139.291C171.693 140.214 172.845 141.136 173.767 140.444C179.529 135.832 178.146 127.991 179.99 121.764C181.372 121.995 182.986 121.995 184.368 121.764C184.829 121.764 185.29 121.995 185.521 121.995C185.751 121.995 185.751 121.995 185.751 121.995C185.521 122.917 185.29 123.84 185.06 124.762C184.599 127.299 184.138 129.836 184.599 132.603C185.29 136.985 189.208 139.291 193.126 139.06C195.2 139.06 197.274 138.369 198.887 136.524C199.118 136.293 199.118 136.293 199.118 136.062C200.04 135.14 200.731 134.218 201.423 133.295H201.653C201.883 133.295 202.114 132.834 202.114 132.603C202.344 132.142 202.575 131.911 202.805 131.45C203.266 130.758 203.727 129.836 204.188 129.144C204.649 128.452 205.11 127.76 205.34 126.838C205.801 125.915 206.032 125.224 206.493 124.301C207.875 121.764 209.489 118.997 210.871 116.46C212.024 118.075 213.637 119.689 215.02 121.303C215.25 121.764 215.481 121.995 215.711 122.456C216.402 123.379 216.863 124.07 217.555 124.993C218.246 126.377 218.477 127.76 218.246 129.375C218.016 130.989 216.863 132.603 215.25 133.064C215.481 133.064 215.25 133.064 215.02 133.064H214.789C215.02 133.064 214.789 133.064 214.789 133.064H214.559C214.328 133.064 214.328 132.834 214.098 132.834C213.867 132.603 214.098 133.064 214.098 132.834L213.867 132.603L213.637 132.373C213.637 132.142 213.406 132.142 213.406 131.911C213.406 131.911 213.406 131.681 213.176 131.681C213.176 131.911 213.176 131.45 213.176 131.45C213.176 131.22 212.946 130.989 212.946 130.758C212.946 130.758 212.946 130.758 212.946 130.528C212.946 130.297 212.946 130.297 212.946 130.066C212.946 129.836 212.946 129.605 212.946 129.375C212.946 129.144 212.946 129.144 212.715 128.913V128.683C212.715 128.452 212.485 128.222 212.254 128.222C211.563 128.222 211.102 128.683 210.641 129.144C209.489 129.375 208.567 130.066 208.106 130.989C207.414 132.142 207.875 133.756 208.567 134.909C210.18 137.677 213.637 138.138 216.633 137.446C219.398 136.754 222.394 135.14 223.547 132.373C224.008 130.989 224.008 129.836 223.547 128.452C223.547 127.76 223.547 127.299 223.316 126.607C223.547 126.607 223.547 126.607 223.777 126.377C226.082 122.687 228.386 118.536 230 114.385C229.539 119.228 228.847 124.301 228.847 129.144C228.847 133.064 230.921 136.754 235.3 136.985C239.449 137.216 242.445 133.987 244.058 130.528C244.058 130.297 244.058 130.066 244.058 130.066C244.749 129.144 245.441 128.222 246.132 127.299C246.132 127.76 246.132 128.222 245.901 128.452C245.901 129.144 245.671 129.836 245.671 130.528C245.21 133.756 244.288 138.369 247.284 140.905C249.819 143.211 253.507 142.058 255.811 139.983C256.964 138.83 257.885 137.446 258.577 135.832C259.729 138.369 262.264 140.214 265.03 140.444C267.334 140.675 271.022 139.522 270.561 136.524V136.293C270.791 136.062 270.791 135.832 271.022 135.601C271.483 135.14 271.944 134.448 272.174 133.756C272.635 132.142 269.869 131.22 269.408 132.834V133.064C269.178 133.064 269.178 133.295 268.948 133.526C268.948 133.756 268.717 133.756 268.717 133.987C268.026 134.448 267.334 134.448 266.643 134.218C264.799 133.756 264.108 131.911 263.647 130.297C262.956 127.991 262.725 125.685 262.264 123.609C262.264 122.917 262.034 122.226 262.034 121.303C262.034 121.073 262.264 120.842 262.264 120.611C262.495 119.919 262.264 119.458 261.803 119.228C261.803 118.997 261.803 118.997 261.803 118.766C261.803 118.075 262.034 117.152 262.034 116.46C262.034 115.307 261.112 114.615 259.96 114.615C259.96 114.615 259.96 114.615 259.729 114.615C259.038 114.615 258.346 114.846 258.116 115.768C257.655 117.844 257.424 120.15 257.194 122.456C256.964 123.84 256.503 125.224 256.042 126.607C255.581 128.222 255.12 129.836 254.429 131.22C253.968 132.142 253.046 133.756 251.893 133.987C250.741 134.218 250.05 132.834 249.819 132.142C249.358 130.528 249.358 128.683 249.589 127.068C249.589 125.224 249.819 123.379 250.05 121.303C250.05 120.381 250.28 119.458 250.511 118.305C250.741 117.613 250.972 116.921 251.202 116.23C251.433 115.768 251.202 115.307 250.741 115.077C250.28 114.154 249.128 113.923 248.437 114.615C248.437 114.615 248.206 114.615 248.206 114.846C247.515 115.768 247.054 117.152 246.823 118.305C244.288 123.148 241.523 127.53 238.066 131.681V131.911C236.913 133.295 235.3 134.218 233.687 133.526C233.687 133.526 233.687 133.526 233.687 133.295C233.917 127.299 233.687 121.534 234.378 115.768C235.3 115.999 236.453 115.999 237.374 115.999C238.757 116.23 241.292 116.691 242.214 115.307C242.445 115.077 242.445 114.846 242.445 114.615C242.905 114.846 243.597 114.846 244.058 114.385C245.21 113.001 245.21 109.081 243.136 108.158C241.984 107.697 240.14 107.927 238.988 107.927C238.066 107.927 237.144 107.927 236.222 107.927C237.144 103.546 237.605 99.1642 235.761 95.0131C235.3 93.86 233.687 94.0906 233.226 95.0131C231.152 99.3948 229.078 104.007 227.004 108.389C226.773 108.389 226.543 108.389 226.312 108.389C224.93 108.619 223.547 108.619 221.934 108.85C220.551 109.081 218.938 109.081 217.785 109.772C217.094 110.234 217.555 110.925 218.246 111.156C218.707 111.156 219.168 111.387 219.859 111.387C219.859 111.848 220.32 112.54 221.012 112.77C221.473 112.77 221.934 112.77 222.394 112.77C222.625 113.001 222.855 113.232 223.086 113.232C223.547 113.462 224.238 113.693 224.699 113.693C223.547 116.46 222.394 119.228 221.242 121.995C220.32 120.381 219.168 118.536 218.016 117.152C216.402 115.077 214.559 113.232 213.176 111.156C212.715 110.464 212.024 109.542 210.871 109.542C209.719 109.542 209.258 110.464 208.797 111.387C208.797 111.387 208.797 111.617 208.567 111.617H208.336C207.645 112.079 207.184 112.54 206.723 113.232C206.262 113.693 206.032 114.385 205.571 114.846C204.879 115.999 203.958 117.152 203.266 118.305C203.266 118.536 203.036 118.536 203.036 118.766C202.344 115.538 200.731 112.54 198.196 110.695C195.891 108.85 192.895 107.697 190.13 109.311C187.825 110.464 186.212 113.693 186.673 116.23C186.673 116.23 186.673 116.23 186.673 116.46C186.443 118.075 184.368 118.766 182.986 118.305C180.911 117.844 179.068 116.23 177.224 115.077C176.072 114.615 174.92 114.846 174.689 116.23C174.228 118.997 173.998 121.764 173.537 124.532C173.076 122.226 172.384 119.919 171.693 117.613C171.232 116.23 168.928 115.538 168.467 117.383C167.545 120.842 166.392 124.301 165.471 127.76C165.24 128.683 164.779 129.836 164.549 130.758C164.088 131.22 163.396 132.603 162.475 133.756Z" fill="black"/>
</svg>
