<svg width="192" height="95" viewBox="0 0 192 95" fill="none" xmlns="http://www.w3.org/2000/svg">
<path d="M111.096 15.8388C110.871 17.0087 110.106 17.6836 108.891 17.6836H108.306C107.137 17.6836 106.597 17.0087 106.822 15.8388L108.486 6.16452C108.711 4.94961 109.476 4.27466 110.691 4.27466H111.276C112.446 4.27466 113.031 4.94961 112.806 6.16452L111.096 15.8388ZM115.866 17.1887L118.071 4.81462C118.566 2.02484 116.946 0.0449965 114.156 0.0449965H109.386C106.552 0.0449965 104.257 2.02484 103.717 4.81462L101.557 17.1437C101.062 20.0234 102.637 22.0033 105.517 22.0033H110.241C113.121 22.0033 115.371 20.0234 115.866 17.1887ZM88.238 4.27466L85.3133 20.7884C85.1783 21.5983 85.5383 22.0033 86.3482 22.0033H88.913C89.7229 22.0033 90.1729 21.5983 90.3529 20.7884L93.2327 4.27466H97.1024C97.9123 4.27466 98.3623 3.8697 98.5422 3.05976L98.8572 1.2149C98.9922 0.404968 98.6322 0 97.8673 0H85.1333C84.3234 0 83.8284 0.404968 83.6934 1.2149L83.3784 3.05976C83.2434 3.8697 83.6034 4.27466 84.3684 4.27466H88.238Z" fill="black"/>
<path d="M136.834 33.5224L136.879 42.9716H133.37L136.834 33.5224ZM134.765 29.3827C134.135 29.3827 133.775 29.7427 133.55 30.2826L126.035 49.9461C125.765 50.666 126.08 51.341 126.89 51.341H129.41C130.04 51.341 130.49 50.936 130.67 50.441L131.66 47.6963C131.75 47.4263 131.975 47.2013 132.245 47.2013H136.474C136.789 47.2013 136.924 47.4263 136.879 47.6963L136.924 50.441C136.924 50.981 137.239 51.341 137.824 51.341H140.704C141.469 51.341 142.009 50.666 142.009 49.9461L141.424 30.2826C141.424 29.7877 141.109 29.3827 140.479 29.3827H134.765ZM114.786 46.4814L115.551 42.2067L119.286 40.4068C119.781 40.1818 119.871 39.9569 119.916 39.5519L120.276 37.3921C120.456 36.4921 119.466 36.4021 118.971 36.6721L116.271 37.932L117.576 30.5976C117.711 29.7877 117.351 29.3827 116.586 29.3827H114.021C113.211 29.3827 112.716 29.7877 112.581 30.5976L110.826 40.5868L109.657 41.1718C109.162 41.3968 109.072 41.6217 109.027 42.0267L108.622 44.1865C108.487 45.0865 109.432 45.1765 109.971 44.9065L110.106 44.8615L109.162 50.1711C109.027 50.981 109.387 51.386 110.151 51.386H119.601C120.411 51.386 120.861 50.981 121.041 50.1711L121.356 48.3262C121.491 47.5163 121.131 47.1113 120.366 47.1113H115.281C114.921 47.0663 114.741 46.7963 114.786 46.4814ZM97.4175 33.5224L97.4625 42.9716H93.9527L97.4175 33.5224ZM95.3476 29.3827C94.7177 29.3827 94.3577 29.7427 94.1327 30.2826L86.6183 49.9461C86.3483 50.666 86.6633 51.341 87.4733 51.341H89.9931C90.623 51.341 91.073 50.936 91.253 50.441L92.2429 47.6963C92.3329 47.4263 92.5579 47.2013 92.8278 47.2013H97.0575C97.3725 47.2013 97.5075 47.4263 97.4625 47.6963L97.5075 50.441C97.5075 50.981 97.8224 51.341 98.4074 51.341H101.287C102.052 51.341 102.592 50.666 102.592 49.9461L102.007 30.2826C102.007 29.7877 101.692 29.3827 101.062 29.3827H95.3476ZM78.7439 30.5976L75.3242 50.1261C75.1892 50.936 75.5492 51.341 76.3141 51.341H78.9239C79.7339 51.341 80.1838 50.936 80.3188 50.1261L83.7385 30.5976C83.8735 29.7877 83.5136 29.3827 82.7486 29.3827H80.1838C79.3739 29.3827 78.8789 29.7877 78.7439 30.5976ZM61.0153 29.3827C60.2054 29.3827 59.7104 29.7877 59.5754 30.5976L59.2605 32.4425C59.1255 33.2524 59.4404 33.6574 60.2504 33.6574H66.1899L56.9656 47.0663C56.7407 47.4713 56.5607 47.8312 56.4707 48.2812L56.1557 50.1261C56.0207 50.936 56.3807 51.341 57.1456 51.341H67.6298C68.4397 51.341 68.8897 50.936 69.0247 50.1261L69.3397 48.2812C69.4747 47.4713 69.1147 47.0663 68.3498 47.0663H62.4102L71.6795 33.6574C71.9045 33.2974 72.0845 32.8924 72.1744 32.4425L72.4894 30.5976C72.6244 29.7877 72.2644 29.3827 71.4995 29.3827H61.0153ZM44.3666 33.6574H46.1665C47.4264 33.6574 47.9663 34.3773 47.6964 35.6822L46.0315 45.0415C45.8065 46.3914 44.9516 47.0663 43.6467 47.0663H41.9818C41.6668 47.0663 41.4869 46.8413 41.5768 46.5264L43.7367 34.2423C43.8267 33.8823 44.0967 33.6574 44.3666 33.6574ZM40.8119 29.3827C40.002 29.3827 39.462 29.7877 39.372 30.5976L35.9523 50.1261C35.8173 50.936 36.1773 51.386 36.9872 51.386H45.2666C48.1463 51.386 50.3962 49.4061 50.8461 46.5713L53.0509 34.1523C53.5459 31.3625 51.926 29.3827 49.0913 29.3827H40.8119Z" fill="black"/>
<path d="M102.187 71.9045C102.187 72.1295 102.232 72.3094 102.322 72.4894C102.412 72.6694 102.502 72.8494 102.637 72.9844C102.772 73.1194 102.907 73.2094 103.087 73.2994C103.267 73.3894 103.447 73.4344 103.672 73.4344C103.897 73.4344 104.077 73.3894 104.257 73.2994C104.437 73.2094 104.617 73.1194 104.707 72.9844C104.842 72.8494 104.932 72.6694 105.022 72.4894C105.112 72.3094 105.157 72.1295 105.157 71.9045C105.157 71.6795 105.112 71.4995 105.022 71.3195C104.932 71.1395 104.842 70.9595 104.707 70.8246C104.572 70.6896 104.437 70.5996 104.257 70.5096C104.077 70.4196 103.897 70.3746 103.672 70.3746C103.447 70.3746 103.267 70.4196 103.087 70.5096C102.907 70.5996 102.727 70.6896 102.637 70.8246C102.502 70.9595 102.412 71.0945 102.322 71.2745C102.232 71.4995 102.187 71.7245 102.187 71.9045ZM99.7571 71.9045C99.7571 71.4095 99.8471 70.9595 100.027 70.5546C100.207 70.1496 100.477 69.7896 100.837 69.4747C101.197 69.1597 101.602 68.9347 102.097 68.7547C102.592 68.5747 103.087 68.4847 103.672 68.4847C104.212 68.4847 104.752 68.5747 105.247 68.7547C105.742 68.9347 106.147 69.1597 106.507 69.4747C106.867 69.7896 107.137 70.1496 107.316 70.5996C107.496 71.0045 107.586 71.4995 107.586 71.9945C107.586 72.4894 107.496 72.9844 107.271 73.3894C107.092 73.7943 106.822 74.1993 106.462 74.5143C106.102 74.8292 105.697 75.0542 105.202 75.2342C104.707 75.4142 104.167 75.5042 103.627 75.5042C103.087 75.5042 102.547 75.4142 102.097 75.2342C101.602 75.0542 101.197 74.8292 100.882 74.5143C100.522 74.1993 100.252 73.8393 100.072 73.3894C99.8471 72.8944 99.7571 72.3994 99.7571 71.9045Z" fill="black"/>
<path d="M109.746 68.7096H112.041V69.7895C112.266 69.3845 112.581 69.1145 112.941 68.8896C113.301 68.6646 113.706 68.5746 114.201 68.5746H114.381C114.471 68.5746 114.516 68.5746 114.606 68.6196V70.8244C114.291 70.6894 113.976 70.5994 113.616 70.5994C113.076 70.5994 112.671 70.7794 112.401 71.0944C112.131 71.4094 111.996 71.8593 111.996 72.4893V75.2791H109.701V68.7096H109.746Z" fill="black"/>
<path d="M118.746 71.9043C118.746 72.1293 118.791 72.3093 118.881 72.4893C118.971 72.6692 119.061 72.8492 119.196 72.9842C119.331 73.1192 119.466 73.2092 119.646 73.2992C119.826 73.3892 120.006 73.4342 120.231 73.4342C120.456 73.4342 120.636 73.3892 120.816 73.2992C120.996 73.2092 121.176 73.1192 121.266 72.9842C121.401 72.8492 121.491 72.6692 121.581 72.4893C121.671 72.3093 121.716 72.1293 121.716 71.9043C121.716 71.6793 121.671 71.4993 121.581 71.3193C121.491 71.1394 121.401 71.0044 121.266 70.8694C121.131 70.7344 120.951 70.6444 120.771 70.5544C120.591 70.4644 120.411 70.4194 120.186 70.4194C119.961 70.4194 119.781 70.4644 119.601 70.5544C119.421 70.6444 119.286 70.7344 119.151 70.8694C119.016 71.0044 118.926 71.1394 118.836 71.3193C118.791 71.4993 118.746 71.7243 118.746 71.9043ZM123.875 68.7096V74.7391C123.875 75.0991 123.875 75.414 123.83 75.729C123.785 75.999 123.74 76.269 123.65 76.4939C123.56 76.7639 123.38 77.0339 123.155 77.2589C122.93 77.4839 122.661 77.7088 122.391 77.8888C122.076 78.0688 121.761 78.2038 121.356 78.2938C120.951 78.3838 120.546 78.4288 120.096 78.4288C119.601 78.4288 119.106 78.3838 118.701 78.2488C118.296 78.1138 117.891 77.9338 117.576 77.7089C117.261 77.4839 116.991 77.2139 116.811 76.9439C116.586 76.6289 116.451 76.314 116.406 75.954H119.016C119.196 76.4039 119.556 76.5839 120.096 76.5839C120.591 76.5839 120.951 76.4489 121.221 76.179C121.491 75.909 121.626 75.549 121.626 75.0541V74.4241C121.446 74.6041 121.311 74.7391 121.131 74.8291C120.996 74.9191 120.816 75.0091 120.636 75.0991C120.456 75.1441 120.321 75.234 120.141 75.234C119.961 75.279 119.781 75.279 119.556 75.279C119.106 75.279 118.656 75.189 118.296 75.0541C117.891 74.8741 117.576 74.6491 117.306 74.3791C117.036 74.1091 116.811 73.7492 116.631 73.3442C116.496 72.9392 116.406 72.4893 116.406 71.9943C116.406 71.4993 116.496 71.0494 116.676 70.5994C116.856 70.1944 117.081 69.7895 117.351 69.4745C117.621 69.1595 117.981 68.8895 118.386 68.7096C118.791 68.5296 119.241 68.4396 119.691 68.4396C120.456 68.4396 121.086 68.7096 121.626 69.2945V68.6196H123.875V68.7096Z" fill="black"/>
<path d="M128.555 71.9044C128.555 72.1294 128.6 72.3094 128.69 72.4894C128.78 72.6693 128.87 72.8493 129.005 72.9843C129.14 73.1193 129.275 73.2093 129.455 73.2993C129.635 73.3893 129.815 73.4343 130.04 73.4343C130.265 73.4343 130.445 73.3893 130.625 73.2993C130.805 73.2093 130.985 73.1193 131.075 72.9843C131.21 72.8493 131.3 72.7143 131.39 72.5344C131.48 72.3544 131.525 72.1744 131.525 71.9494C131.525 71.7244 131.48 71.5444 131.39 71.3644C131.3 71.1845 131.21 71.0045 131.075 70.8695C130.94 70.7345 130.805 70.6445 130.625 70.5545C130.445 70.4645 130.265 70.4195 130.04 70.4195C129.815 70.4195 129.635 70.4645 129.455 70.5545C129.275 70.6445 129.095 70.7345 129.005 70.8695C128.87 71.0045 128.78 71.1395 128.69 71.3194C128.6 71.5444 128.555 71.7244 128.555 71.9044ZM131.48 68.7097H133.774V75.1891H131.48V74.4692C130.985 75.0991 130.31 75.4141 129.5 75.4141C129.005 75.4141 128.6 75.3241 128.195 75.1441C127.79 74.9642 127.43 74.7392 127.16 74.4242C126.845 74.1092 126.62 73.7493 126.485 73.2993C126.305 72.8943 126.26 72.3994 126.26 71.9044C126.26 71.4544 126.35 71.0045 126.485 70.5995C126.665 70.1945 126.89 69.8346 127.16 69.5196C127.43 69.2046 127.79 68.9796 128.195 68.7996C128.6 68.6197 129.05 68.5297 129.5 68.5297C130.31 68.5297 130.985 68.7996 131.525 69.3846V68.7097H131.48Z" fill="black"/>
<path d="M136.204 68.7096H138.499V69.5195C138.814 69.1595 139.129 68.8896 139.444 68.7546C139.759 68.6196 140.119 68.5746 140.569 68.5746C141.019 68.5746 141.424 68.6646 141.739 68.7996C142.054 68.9346 142.324 69.1595 142.549 69.4295C142.729 69.6545 142.864 69.8795 142.909 70.1495C142.954 70.4194 142.999 70.7344 142.999 71.0944V75.2341H140.704V71.9493C140.704 71.6343 140.659 71.3644 140.614 71.1844C140.569 71.0044 140.479 70.8244 140.344 70.6894C140.254 70.5994 140.119 70.5094 139.984 70.4644C139.849 70.4194 139.714 70.4194 139.579 70.4194C139.174 70.4194 138.904 70.5544 138.679 70.7794C138.454 71.0044 138.364 71.3644 138.364 71.7693V75.2341H136.204V68.7096Z" fill="black"/>
<path d="M147.768 75.1891H145.474V68.6646H147.768V75.1891ZM145.339 66.1898C145.339 66.0098 145.384 65.8299 145.429 65.6949C145.474 65.5599 145.609 65.3799 145.699 65.2899C145.834 65.1549 145.969 65.0649 146.104 65.0199C146.239 64.9749 146.419 64.9299 146.599 64.9299C146.779 64.9299 146.959 64.9749 147.093 65.0199C147.228 65.1099 147.408 65.1999 147.498 65.2899C147.633 65.4249 147.723 65.5599 147.768 65.6949C147.858 65.8299 147.858 66.0098 147.858 66.1898C147.858 66.3698 147.813 66.5498 147.768 66.6848C147.678 66.8198 147.588 66.9998 147.498 67.0898C147.363 67.2248 147.228 67.3147 147.093 67.3597C146.959 67.4497 146.779 67.4497 146.599 67.4497C146.419 67.4497 146.239 67.4047 146.104 67.3597C145.969 67.2698 145.789 67.1798 145.699 67.0898C145.609 66.9998 145.474 66.8198 145.429 66.6848C145.384 66.5498 145.339 66.3698 145.339 66.1898Z" fill="black"/>
<path d="M153.573 73.2994H156.318V75.1892H149.703L152.763 70.5996H150.108V68.7097H156.588L153.573 73.2994Z" fill="black"/>
<path d="M160.683 71.9044C160.683 72.1294 160.728 72.3094 160.818 72.4894C160.908 72.6693 160.998 72.8493 161.133 72.9843C161.268 73.1193 161.403 73.2093 161.583 73.2993C161.762 73.3893 161.942 73.4343 162.167 73.4343C162.392 73.4343 162.572 73.3893 162.752 73.2993C162.932 73.2093 163.112 73.1193 163.202 72.9843C163.337 72.8493 163.427 72.7143 163.517 72.5344C163.607 72.3544 163.652 72.1744 163.652 71.9494C163.652 71.7244 163.607 71.5444 163.517 71.3644C163.427 71.1845 163.337 71.0045 163.202 70.8695C163.067 70.7345 162.932 70.6445 162.752 70.5545C162.572 70.4645 162.392 70.4195 162.167 70.4195C161.942 70.4195 161.762 70.4645 161.583 70.5545C161.403 70.6445 161.223 70.7345 161.133 70.8695C160.998 71.0045 160.908 71.1395 160.818 71.3194C160.728 71.5444 160.683 71.7244 160.683 71.9044ZM163.562 68.7097H165.857V75.1891H163.562V74.4692C163.067 75.0991 162.392 75.4141 161.583 75.4141C161.088 75.4141 160.683 75.3241 160.278 75.1441C159.873 74.9642 159.513 74.7392 159.243 74.4242C158.928 74.1092 158.703 73.7493 158.568 73.2993C158.388 72.8943 158.343 72.3994 158.343 71.9044C158.343 71.4544 158.433 71.0045 158.568 70.5995C158.748 70.1945 158.973 69.8346 159.243 69.5196C159.513 69.2046 159.873 68.9796 160.278 68.7996C160.683 68.6197 161.133 68.5297 161.583 68.5297C162.392 68.5297 163.067 68.7996 163.607 69.3846V68.7097H163.562Z" fill="black"/>
<path d="M173.237 70.7796C172.832 70.5096 172.427 70.3746 172.022 70.3746C171.797 70.3746 171.617 70.4196 171.392 70.5096C171.212 70.5996 171.032 70.6896 170.897 70.8246C170.762 70.9595 170.627 71.1395 170.582 71.3195C170.492 71.4995 170.447 71.7245 170.447 71.9495C170.447 72.1745 170.492 72.3994 170.582 72.5794C170.672 72.7594 170.762 72.9394 170.897 73.0744C171.032 73.2094 171.212 73.2994 171.392 73.3894C171.572 73.4793 171.797 73.5243 172.022 73.5243C172.472 73.5243 172.877 73.3894 173.237 73.0744V75.0092C172.652 75.2342 172.112 75.3692 171.617 75.3692C171.122 75.3692 170.672 75.2792 170.267 75.1442C169.862 74.9642 169.457 74.7392 169.142 74.4693C168.827 74.1543 168.557 73.7943 168.377 73.3894C168.197 72.9844 168.107 72.4894 168.107 71.9945C168.107 71.4995 168.197 71.0045 168.377 70.5996C168.557 70.1946 168.827 69.7896 169.142 69.4747C169.457 69.1597 169.862 68.9347 170.312 68.7547C170.762 68.5747 171.212 68.4847 171.752 68.4847C172.292 68.4847 172.832 68.6197 173.282 68.8447V70.7796H173.237Z" fill="black"/>
<path d="M177.691 78.4289H175.396V68.6646H177.691V78.4289ZM175.216 66.1898C175.216 66.0098 175.261 65.8299 175.306 65.6949C175.351 65.5599 175.486 65.3799 175.576 65.2899C175.711 65.1549 175.846 65.0649 175.981 65.0199C176.116 64.9749 176.296 64.9299 176.476 64.9299C176.656 64.9299 176.836 64.9749 176.971 65.0199C177.106 65.1099 177.286 65.1999 177.376 65.2899C177.511 65.4249 177.601 65.5599 177.646 65.6949C177.736 65.8299 177.736 66.0098 177.736 66.1898C177.736 66.3698 177.691 66.5498 177.646 66.6848C177.556 66.8198 177.466 66.9998 177.376 67.0898C177.286 67.1798 177.106 67.3147 176.971 67.3597C176.836 67.4497 176.656 67.4497 176.476 67.4497C176.296 67.4497 176.116 67.4047 175.981 67.3597C175.846 67.2698 175.666 67.1798 175.576 67.0898C175.486 66.9998 175.351 66.8198 175.306 66.6848C175.261 66.5498 175.216 66.3698 175.216 66.1898Z" fill="black"/>
<path d="M184.891 71.0044C184.801 70.6894 184.666 70.4194 184.441 70.2395C184.216 70.0595 183.901 69.9695 183.586 69.9695C183.226 69.9695 182.956 70.0595 182.731 70.2395C182.506 70.4194 182.371 70.6894 182.326 71.0044H184.891ZM182.191 72.3093C182.191 73.2992 182.641 73.7942 183.586 73.7942C184.081 73.7942 184.441 73.5692 184.711 73.1642H186.915C186.465 74.6491 185.34 75.4141 183.541 75.4141C183.001 75.4141 182.506 75.3241 182.011 75.1441C181.561 74.9641 181.156 74.7391 180.841 74.4241C180.526 74.1092 180.256 73.7492 180.076 73.3442C179.896 72.9392 179.806 72.4443 179.806 71.9043C179.806 71.3644 179.896 70.8694 180.076 70.4194C180.256 69.9695 180.481 69.6095 180.796 69.2945C181.111 68.9796 181.471 68.7546 181.921 68.5746C182.371 68.3946 182.866 68.3496 183.406 68.3496C183.946 68.3496 184.441 68.4396 184.891 68.5746C185.34 68.7546 185.7 68.9796 186.015 69.2945C186.33 69.6095 186.555 69.9695 186.735 70.4644C186.915 70.9144 186.96 71.4094 186.96 71.9943V72.2193H182.191V72.3093Z" fill="black"/>
<path d="M104.347 86.0783C103.942 85.8533 103.492 85.7633 103.087 85.7633C102.862 85.7633 102.682 85.8083 102.592 85.8983C102.457 85.9883 102.412 86.0783 102.412 86.2583C102.412 86.3483 102.412 86.3933 102.457 86.4383C102.457 86.4833 102.547 86.5283 102.592 86.5733C102.682 86.6183 102.772 86.6633 102.907 86.7083C103.042 86.7533 103.222 86.7982 103.447 86.8432C104.077 86.9782 104.572 87.2032 104.887 87.5182C105.202 87.8332 105.337 88.2381 105.337 88.7781C105.337 89.1381 105.247 89.498 105.112 89.813C104.977 90.128 104.752 90.353 104.482 90.5779C104.212 90.8029 103.897 90.9379 103.492 91.0729C103.132 91.2079 102.682 91.2529 102.232 91.2529C101.332 91.2529 100.477 90.9829 99.6221 90.488L100.477 88.8681C101.107 89.318 101.737 89.543 102.322 89.543C102.547 89.543 102.727 89.498 102.862 89.408C102.997 89.3181 103.087 89.1831 103.087 89.0481C103.087 88.9581 103.087 88.9131 103.042 88.8231C102.997 88.7331 102.997 88.7331 102.907 88.6881C102.817 88.6431 102.727 88.5981 102.592 88.5531C102.457 88.5081 102.277 88.4631 102.097 88.4181C101.377 88.2831 100.882 88.0581 100.612 87.7882C100.342 87.5182 100.207 87.1132 100.207 86.6183C100.207 86.2583 100.252 85.9433 100.432 85.6283C100.567 85.3584 100.747 85.0884 101.017 84.9084C101.287 84.6834 101.557 84.5484 101.917 84.4584C102.277 84.3684 102.682 84.2784 103.132 84.2784C103.852 84.2784 104.527 84.4134 105.247 84.6834L104.347 86.0783Z" fill="black"/>
<path d="M112.536 87.6981C112.536 87.4731 112.491 87.2931 112.446 87.1131C112.356 86.9331 112.266 86.7532 112.131 86.6182C111.996 86.4832 111.816 86.3932 111.636 86.3032C111.456 86.2132 111.276 86.1682 111.051 86.1682C110.826 86.1682 110.646 86.2132 110.466 86.3032C110.286 86.3932 110.151 86.4832 110.016 86.6182C109.881 86.7532 109.791 86.9331 109.701 87.1131C109.611 87.2931 109.566 87.4731 109.566 87.6981C109.566 87.9231 109.611 88.1031 109.701 88.283C109.791 88.463 109.881 88.598 110.016 88.733C110.151 88.868 110.331 88.958 110.511 89.048C110.691 89.138 110.871 89.183 111.096 89.183C111.276 89.183 111.501 89.138 111.681 89.048C111.861 88.958 111.996 88.868 112.131 88.733C112.266 88.598 112.356 88.463 112.446 88.283C112.491 88.0581 112.536 87.8781 112.536 87.6981ZM109.611 94.1776H107.317V84.4133H109.611V85.1333C110.106 84.5033 110.781 84.1884 111.636 84.1884C112.086 84.1884 112.536 84.2784 112.941 84.4583C113.346 84.6383 113.706 84.9083 113.976 85.1783C114.291 85.4933 114.516 85.8532 114.651 86.3032C114.831 86.7082 114.921 87.1581 114.921 87.6531C114.921 88.148 114.831 88.598 114.651 89.003C114.471 89.4079 114.246 89.7679 113.976 90.0829C113.706 90.3979 113.346 90.6228 112.941 90.8028C112.536 90.9828 112.131 91.0728 111.636 91.0728C110.826 91.0728 110.151 90.8028 109.611 90.2179V94.1776Z" fill="black"/>
<path d="M119.241 87.6531C119.241 87.8781 119.286 88.0581 119.376 88.238C119.466 88.418 119.556 88.598 119.691 88.733C119.826 88.868 119.961 88.958 120.141 89.048C120.321 89.138 120.501 89.183 120.726 89.183C120.951 89.183 121.131 89.138 121.311 89.048C121.491 88.958 121.671 88.868 121.761 88.733C121.896 88.598 121.986 88.418 122.076 88.238C122.166 88.0581 122.211 87.8781 122.211 87.6531C122.211 87.4281 122.166 87.2481 122.076 87.0681C121.986 86.8881 121.896 86.7082 121.761 86.5732C121.626 86.4382 121.491 86.3482 121.311 86.2582C121.131 86.1682 120.951 86.1232 120.726 86.1232C120.501 86.1232 120.321 86.1682 120.141 86.2582C119.961 86.3482 119.781 86.4382 119.691 86.5732C119.556 86.7082 119.466 86.8431 119.376 87.0231C119.286 87.2481 119.241 87.4281 119.241 87.6531ZM116.856 87.6081C116.856 87.1131 116.946 86.6632 117.126 86.2582C117.306 85.8532 117.576 85.4933 117.936 85.1783C118.296 84.8633 118.701 84.6383 119.196 84.4583C119.691 84.2784 120.186 84.1884 120.771 84.1884C121.311 84.1884 121.851 84.2784 122.346 84.4583C122.84 84.6383 123.245 84.8633 123.605 85.1783C123.965 85.4933 124.235 85.8532 124.415 86.3032C124.595 86.7532 124.685 87.2031 124.685 87.6981C124.685 88.193 124.595 88.688 124.37 89.093C124.19 89.4979 123.92 89.9029 123.56 90.2179C123.2 90.5329 122.795 90.7578 122.301 90.9378C121.806 91.1178 121.266 91.2078 120.726 91.2078C120.186 91.2078 119.646 91.1178 119.196 90.9378C118.701 90.7578 118.296 90.5329 117.981 90.2179C117.621 89.9029 117.351 89.5429 117.171 89.093C116.946 88.643 116.856 88.148 116.856 87.6081Z" fill="black"/>
<path d="M129.59 80.4087V84.5034L130.67 83.7384V85.5833L129.59 86.3032V90.9379H127.295V87.4281L126.17 88.1931V86.3482L127.295 85.6283V80.4087H129.59Z" fill="black"/>
<path d="M137.239 86.7082C137.149 86.3932 137.014 86.1232 136.789 85.9432C136.564 85.7633 136.249 85.6733 135.934 85.6733C135.574 85.6733 135.304 85.7633 135.079 85.9432C134.854 86.1232 134.719 86.3932 134.674 86.7082H137.239ZM134.539 88.0581C134.539 89.048 134.989 89.543 135.934 89.543C136.429 89.543 136.789 89.318 137.059 88.913H139.264C138.814 90.3979 137.689 91.1628 135.889 91.1628C135.349 91.1628 134.854 91.0728 134.359 90.8929C133.909 90.7129 133.504 90.4879 133.189 90.1729C132.874 89.8579 132.605 89.498 132.425 89.093C132.245 88.688 132.155 88.1931 132.155 87.6531C132.155 87.1131 132.245 86.6182 132.425 86.1682C132.605 85.7183 132.829 85.3583 133.144 85.0433C133.459 84.7283 133.819 84.5034 134.269 84.3234C134.719 84.1434 135.214 84.0984 135.754 84.0984C136.294 84.0984 136.789 84.1884 137.239 84.3234C137.689 84.5034 138.049 84.7283 138.364 85.0433C138.679 85.3583 138.904 85.7183 139.084 86.2132C139.264 86.6632 139.309 87.1581 139.309 87.7431V87.9681H134.539V88.0581Z" fill="black"/>
<path d="M146.464 86.5283C146.059 86.2584 145.654 86.1234 145.249 86.1234C145.024 86.1234 144.844 86.1684 144.619 86.2584C144.439 86.3484 144.259 86.4383 144.124 86.5733C143.989 86.7083 143.854 86.8883 143.809 87.0683C143.719 87.2483 143.674 87.4733 143.674 87.6982C143.674 87.9232 143.719 88.1482 143.809 88.3282C143.899 88.5082 143.989 88.6882 144.124 88.8232C144.259 88.9581 144.439 89.0931 144.619 89.1381C144.799 89.2281 145.024 89.2731 145.249 89.2731C145.699 89.2731 146.104 89.1381 146.464 88.8232V90.758C145.879 90.983 145.339 91.118 144.844 91.118C144.349 91.118 143.899 91.028 143.494 90.893C143.089 90.758 142.684 90.488 142.369 90.218C142.054 89.9481 141.784 89.5431 141.604 89.1381C141.424 88.7332 141.334 88.2382 141.334 87.7432C141.334 87.2483 141.424 86.7533 141.604 86.3484C141.784 85.9434 142.054 85.5384 142.369 85.2234C142.684 84.9085 143.089 84.6835 143.539 84.5035C143.989 84.3235 144.439 84.2335 144.979 84.2335C145.519 84.2335 146.059 84.3685 146.509 84.5935V86.5283H146.464Z" fill="black"/>
<path d="M151.998 89.003H154.698V90.9378H148.128L151.188 86.3482H148.533V84.4133H155.013L151.998 89.003Z" fill="black"/>
<path d="M156.948 84.4134H159.243V85.2234C159.558 84.8634 159.873 84.5934 160.187 84.4584C160.502 84.3234 160.862 84.2784 161.312 84.2784C161.762 84.2784 162.167 84.3684 162.482 84.5034C162.797 84.6384 163.067 84.8634 163.292 85.1334C163.472 85.3584 163.607 85.5833 163.652 85.8533C163.697 86.1233 163.742 86.4383 163.742 86.7982V90.9379H161.447V87.6532C161.447 87.3382 161.402 87.0682 161.357 86.8882C161.312 86.7083 161.222 86.5283 161.087 86.3933C160.997 86.3033 160.862 86.2133 160.727 86.1683C160.592 86.1233 160.457 86.1233 160.322 86.1233C159.918 86.1233 159.648 86.2583 159.423 86.4833C159.198 86.7083 159.108 87.0682 159.108 87.4732V90.9379H156.813V84.4134H156.948Z" fill="black"/>
<path d="M170.987 86.7082C170.897 86.3932 170.762 86.1232 170.537 85.9432C170.312 85.7633 169.997 85.6733 169.682 85.6733C169.322 85.6733 169.052 85.7633 168.827 85.9432C168.602 86.1232 168.467 86.3932 168.422 86.7082H170.987ZM168.332 88.0581C168.332 89.048 168.782 89.543 169.727 89.543C170.222 89.543 170.582 89.318 170.852 88.913H173.056C172.606 90.3979 171.482 91.1628 169.682 91.1628C169.142 91.1628 168.647 91.0728 168.152 90.8929C167.702 90.7129 167.297 90.4879 166.982 90.1729C166.667 89.8579 166.397 89.498 166.217 89.093C166.037 88.688 165.947 88.1931 165.947 87.6531C165.947 87.1131 166.037 86.6182 166.217 86.1682C166.397 85.7183 166.622 85.3583 166.937 85.0433C167.252 84.7283 167.612 84.5034 168.062 84.3234C168.512 84.1434 169.007 84.0984 169.547 84.0984C170.087 84.0984 170.582 84.1884 171.032 84.3234C171.482 84.5034 171.842 84.7283 172.157 85.0433C172.472 85.3583 172.696 85.7183 172.876 86.2132C173.056 86.6632 173.101 87.1581 173.101 87.7431V87.9681H168.332V88.0581Z" fill="black"/>
<path d="M126.305 8.9093L125.81 11.7891H187.275L172.291 40.9918H151.278L151.368 43.8716H174.091L192 8.9093H126.305Z" fill="black"/>
<path d="M15.4788 41.3967L0 72.6243H89.633V70.0145H4.49965L17.2786 44.2765H26.4129L26.9079 41.3967H15.4788Z" fill="black"/>
</svg>
