<svg width="116" height="37" viewBox="0 0 116 37" fill="none" xmlns="http://www.w3.org/2000/svg">
<path d="M0 33.525L0.230159 7.2V1.575C0.230159 1.125 0.230159 0.9 0.460317 0.9C0.690476 0.675 0.920635 0.675 1.61111 0.675C2.30159 0.675 2.99206 0.9 3.45238 1.125C4.14286 1.35 4.83333 1.8 5.06349 2.25C5.52381 2.7 5.98413 3.375 6.21429 4.05C6.90476 5.175 7.13492 6.525 7.13492 8.1C7.13492 9.45 6.90476 11.25 5.98413 13.05C5.98413 13.275 5.75397 13.725 5.52381 14.4C5.29365 15.075 5.06349 15.525 5.06349 15.525C5.06349 17.775 5.75397 20.7 6.90476 24.3C7.13492 25.425 7.8254 27 8.51587 29.25C9.20635 31.5 9.66667 32.625 9.89682 33.3C9.89682 34.2 9.66667 34.875 9.43651 35.1C9.20635 35.325 8.97619 35.325 8.74603 35.325C8.28571 35.325 7.59524 34.875 7.13492 34.2V33.975C6.90476 31.275 5.98413 27 4.14286 21.6C3.22222 19.125 2.7619 17.1 2.53175 15.975V33.75C2.53175 34.2 2.53175 34.65 2.30159 34.875C2.07143 35.1 1.84127 35.325 1.38095 35.325C0.920635 35.325 0.690476 35.1 0.460317 34.875C0 34.425 0 34.2 0 33.75V33.525ZM4.14286 4.95C3.68254 3.6 3.22222 2.7 2.53175 2.7L2.30159 11.925C2.30159 12.825 2.30159 13.5 2.30159 13.95C2.7619 13.5 3.45238 12.825 3.9127 12.15L4.60317 8.325C4.60317 8.1 4.60317 7.875 4.60317 7.65C4.60317 6.975 4.60317 6.075 4.14286 4.95ZM22.3254 21.15L22.0952 27V27.225C21.8651 28.125 21.8651 29.025 21.8651 29.925C21.8651 30.825 21.6349 31.725 21.4048 32.625C21.1746 33.525 20.4841 34.425 19.7936 35.1C19.1032 35.775 18.4127 36.225 17.4921 36.225C16.5714 36.225 15.881 36 15.1905 35.325C14.5 34.875 14.0397 33.975 13.5794 33.075C13.119 32.175 12.6587 31.275 12.4286 29.925C12.1984 28.8 11.7381 27.45 11.7381 26.325C11.5079 25.2 11.5079 24.075 11.2778 22.725C11.0476 20.7 11.0476 19.35 11.0476 18.225C11.0476 17.1 11.0476 16.2 11.0476 15.525C11.0476 14.85 11.0476 14.175 11.0476 13.5C11.0476 13.275 11.0476 12.825 11.0476 12.375C11.0476 11.925 11.0476 11.7 11.0476 11.25C11.0476 10.35 11.0476 9.675 11.0476 9C11.0476 8.325 11.0476 7.65 11.2778 6.75C11.2778 5.85 11.5079 5.175 11.7381 4.725C11.2778 3.825 11.5079 3.375 11.7381 2.7C11.9683 2.25 12.4286 1.575 12.6587 1.35C13.3492 0.45 14.2698 0 15.1905 0C16.1111 0 17.0317 0.225 17.7222 0.45C18.4127 0.9 19.1032 1.35 19.5635 2.25C20.0238 2.925 20.4841 3.6 20.7143 4.5C21.1746 5.175 21.4048 6.3 21.6349 7.425C21.8651 8.775 22.0952 9.675 22.0952 10.575C22.0952 11.25 22.3254 12.375 22.3254 13.95C22.3254 15.975 22.3254 17.55 22.3254 18.675V21.15ZM18.4127 4.725C17.9524 4.05 17.7222 3.375 17.2619 2.925C16.8016 2.475 16.3413 2.475 15.881 2.475C15.4206 2.475 14.9603 2.475 14.7302 2.925C14.5 3.375 14.2698 3.6 14.0397 4.05C13.8095 4.725 13.5794 5.4 13.3492 5.85C13.119 6.525 13.119 7.2 12.8889 8.1C12.8889 9 12.6587 9.675 12.6587 10.35C12.6587 11.025 12.6587 11.7 12.6587 12.6C12.6587 13.95 12.6587 15.075 12.6587 15.75V15.975C12.6587 18.225 12.8889 20.25 13.119 22.5C13.3492 24.75 13.8095 26.775 14.0397 28.125C14.2698 29.7 14.7302 30.825 15.4206 31.95C15.881 33.075 16.5714 33.525 17.2619 33.525C17.9524 33.525 18.4127 32.85 18.873 31.725C19.3333 30.6 19.5635 29.25 19.7936 27.45C20.0238 24.525 20.254 22.275 20.254 21.15C20.254 20.025 20.254 19.125 20.254 18.45C20.254 18 20.254 17.1 20.254 15.975C20.254 14.85 20.254 13.95 20.0238 13.05C20.0238 12.15 19.7936 11.025 19.5635 9.9C19.5635 9.225 19.3333 8.1 19.1032 7.2C18.873 6.3 18.6429 5.625 18.4127 4.725ZM25.7778 0.675C26.2381 0.675 26.6984 0.9 27.1587 0.9L31.5317 0.45C31.9921 0.45 32.2222 0.675 32.4524 0.9C32.6825 1.125 32.9127 1.35 32.9127 1.8C32.9127 9.675 31.3016 20.025 27.8492 33.075L30.381 32.85C31.9921 32.85 32.9127 33.3 32.9127 34.2V34.425L32.2222 35.1L26.4683 35.325C25.7778 35.325 25.5476 34.875 25.0873 34.2C25.7778 33.075 26.4683 30.15 27.3889 25.65C28.3095 21.15 29 16.65 29.4603 12.375C29.9206 8.1 30.381 4.95 30.381 3.15C29.2302 3.375 28.5397 3.375 27.8492 3.375C26.2381 3.375 25.3175 2.925 25.3175 2.025V1.575L25.7778 0.675ZM46.9524 17.775C46.9524 18 46.9524 18 46.9524 18.225V19.125C46.9524 21.15 46.4921 23.85 45.1111 26.55C43.7302 29.925 42.119 32.175 40.5079 33.525C39.5873 34.425 38.4365 34.65 37.2857 34.65C36.8254 34.65 36.1349 34.425 35.6746 34.2C35.2143 33.975 34.9841 33.525 34.9841 33.075C35.6746 32.4 35.9048 30.6 35.9048 27.675C35.9048 26.1 35.6746 23.625 35.4444 20.25C35.2143 16.875 34.9841 14.4 34.9841 12.825L35.2143 7.875C35.2143 6.975 34.9841 6.075 34.754 4.725C34.5238 3.375 34.2936 2.475 34.2936 1.8C34.2936 0.675 35.4444 0.225 37.746 0.225H38.4365C41.6587 0.225 43.7302 2.025 45.3413 5.4C46.2619 7.875 46.7222 11.025 46.7222 15.3V17.775H46.9524ZM38.2063 28.125V32.4C39.3571 31.725 40.2778 30.6 41.1984 29.25C42.119 27.9 42.8095 26.55 43.0397 24.975C43.9603 22.05 44.1905 19.125 44.1905 15.975C44.1905 12.6 43.7302 9.9 42.8095 7.875C41.8889 5.85 40.7381 4.5 39.5873 3.825C38.6667 3.375 37.9762 3.15 36.8254 3.15C36.8254 5.85 37.0556 9.9 37.2857 15.3C38.2063 21.15 38.2063 25.2 38.2063 28.125ZM49.9444 0.675C50.4048 0.675 50.8651 0.9 51.3254 0.9L55.6984 0.45C56.1587 0.45 56.3889 0.675 56.619 0.9C56.8492 1.125 57.0794 1.35 57.0794 1.8C57.0794 9.675 55.4683 20.025 52.0159 33.075L54.5476 32.85C56.1587 32.85 57.0794 33.3 57.0794 34.2V34.425L56.3889 35.1L50.6349 35.325C49.9444 35.325 49.7143 34.875 49.254 34.2C49.9444 33.075 50.6349 30.15 51.5556 25.65C52.4762 21.15 53.1667 16.65 53.627 12.375C54.0873 8.1 54.5476 4.95 54.5476 3.15C53.3968 3.375 52.7063 3.375 52.0159 3.375C50.4048 3.375 49.4841 2.925 49.4841 2.025V1.575L49.9444 0.675ZM64.6746 3.15H63.754C63.5238 3.15 63.2936 3.15 63.0635 3.375C62.8333 3.6 62.8333 3.825 62.8333 4.05C62.8333 6.975 63.0635 11.475 63.2936 17.1C63.754 22.95 63.754 27.225 63.754 30.15V31.95C63.9841 31.95 64.4444 31.95 64.6746 31.95C66.0556 31.95 66.5159 32.4 66.5159 33.525V33.75L65.3651 34.425H62.1429C59.3809 34.425 58.2302 33.975 58.2302 33.075C58.2302 32.4 58.6905 31.95 59.6111 31.95H60.5317C60.9921 31.95 61.2222 31.5 61.2222 30.825C61.2222 28.575 60.9921 24.975 60.7619 20.475C60.5317 15.75 60.3016 12.375 60.3016 10.125V5.625C60.3016 4.725 60.3016 3.825 60.3016 3.15C59.8413 3.375 59.6111 3.375 59.1508 3.375C58.4603 3.375 58 2.925 58 2.25C58 1.8 58.2302 1.575 58.6905 1.35C59.1508 1.125 59.8413 0.9 60.5317 0.675C61.9127 0.45 62.8333 0.45 63.2936 0.45C63.9841 0.45 64.4444 0.675 64.6746 0.9C64.9048 1.125 65.1349 1.35 65.1349 1.8C65.1349 2.25 65.1349 2.475 64.9048 2.7C64.6746 2.925 64.9048 3.15 64.6746 3.15ZM81.0159 33.3C81.0159 34.2 80.5555 34.875 79.4048 34.875C78.4841 34.875 78.0238 34.425 78.0238 33.75V27.9C77.5635 27.675 76.873 27.45 75.7222 27.225C74.5714 27 73.6508 27 72.7302 26.775C72.5 27.225 72.2698 28.125 72.0397 29.025C71.8095 29.925 71.5794 31.05 71.3492 31.95C71.119 32.85 70.8889 33.75 70.4286 34.425C69.2778 34.425 68.5873 34.2 68.3571 33.525C68.8175 32.85 69.5079 29.925 70.4286 24.525C71.3492 19.125 72.0397 14.85 72.7302 11.925C73.4206 9 73.881 6.3 74.8016 4.275C75.4921 2.25 76.1825 1.125 76.873 1.125C77.5635 1.125 78.0238 1.35 78.254 1.575C78.254 2.7 78.4841 5.625 79.1746 10.35C79.8651 15.075 80.0952 18.225 80.0952 19.575C80.0952 20.925 80.3254 23.175 80.5555 26.55C80.7857 29.25 81.0159 31.725 81.0159 33.3ZM78.0238 24.975C78.0238 24.3 77.7936 22.725 77.5635 20.025C77.3333 17.325 77.1032 14.85 76.873 12.375C76.6429 9.9 76.6429 8.55 76.6429 8.1C76.6429 7.65 76.6429 7.2 76.6429 7.2C76.1825 7.65 75.4921 10.35 74.5714 15.3C73.6508 20.25 73.1905 23.4 73.1905 24.525C74.5714 24.75 75.4921 24.975 76.4127 24.975C76.873 25.2 77.5635 25.2 78.0238 24.975ZM84.2381 33.975L84.4682 31.95C84.4682 28.8 84.2381 24.075 84.0079 18C83.5476 18.225 83.0873 18.225 82.8571 18.225C82.3968 18.225 82.1667 18.225 81.9365 18C81.7063 17.775 81.4762 17.55 81.4762 17.325C81.4762 16.65 82.3968 16.2 84.0079 15.75C83.7778 9.225 83.5476 4.5 83.5476 1.35C83.5476 1.125 83.5476 0.9 83.7778 0.675C84.0079 0.45 84.2381 0.45 84.6984 0.45C85.1587 0.45 85.3889 0.675 85.619 0.9C85.8492 1.125 86.0794 1.35 86.0794 1.8C86.0794 3.6 86.0794 5.85 86.3095 9C86.5397 12.15 86.5397 14.175 86.5397 15.075C88.1508 14.4 89.3016 14.175 90.4524 14.175C90.6825 14.175 90.9127 14.175 91.1428 14.4C91.373 14.625 91.373 14.85 91.373 15.3C91.373 16.2 89.7619 17.1 86.5397 17.55V18.9C86.5397 19.125 86.5397 19.125 86.5397 19.35V19.575C86.7698 22.275 86.7698 26.1 86.7698 31.275V32.4H90.2222C90.9127 32.85 91.1428 33.3 91.1428 33.75C91.1428 34.2 91.1429 34.425 90.9127 34.65C90.6825 34.875 90.4524 35.1 90.2222 35.1C89.9921 35.1 89.7619 35.1 89.3016 34.875C89.0714 34.875 88.8413 34.875 88.381 34.875L85.3889 34.65C85.1587 34.65 84.6984 34.65 84.4682 34.425C84.4682 34.425 84.2381 34.2 84.2381 33.975ZM104.032 3.15H103.111C102.881 3.15 102.651 3.15 102.421 3.375C102.19 3.6 102.19 3.825 102.19 4.05C102.19 6.975 102.421 11.475 102.651 17.1C103.111 22.95 103.111 27.225 103.111 30.15V31.95C103.341 31.95 103.802 31.95 104.032 31.95C105.413 31.95 105.873 32.4 105.873 33.525V33.75L104.722 34.425H101.5C98.7381 34.425 97.5873 33.975 97.5873 33.075C97.5873 32.4 98.0476 31.95 98.9682 31.95H99.8889C100.349 31.95 100.579 31.5 100.579 30.825C100.579 28.575 100.349 24.975 100.119 20.475C99.8889 15.75 99.6587 12.375 99.6587 10.125V5.625C99.6587 4.725 99.6587 3.825 99.6587 3.15C99.1984 3.375 98.9682 3.375 98.5079 3.375C97.8175 3.375 97.3571 2.925 97.3571 2.25C97.3571 1.8 97.5873 1.575 98.0476 1.35C98.5079 1.125 99.1984 0.9 99.8889 0.675C101.27 0.45 102.19 0.45 102.651 0.45C103.341 0.45 103.802 0.675 104.032 0.9C104.262 1.125 104.492 1.35 104.492 1.8C104.492 2.25 104.492 2.475 104.262 2.7C104.032 2.925 104.262 3.15 104.032 3.15ZM113.698 3.15H112.778C112.548 3.15 112.317 3.15 112.087 3.375C111.857 3.6 111.857 3.825 111.857 4.05C111.857 6.975 112.087 11.475 112.317 17.1C112.778 22.95 112.778 27.225 112.778 30.15V31.95C113.008 31.95 113.468 31.95 113.698 31.95C115.079 31.95 115.54 32.4 115.54 33.525V33.75L114.389 34.425H111.167C108.405 34.425 107.254 33.975 107.254 33.075C107.254 32.4 107.714 31.95 108.635 31.95H109.556C110.016 31.95 110.246 31.5 110.246 30.825C110.246 28.575 110.016 24.975 109.786 20.475C109.556 15.75 109.325 12.375 109.325 10.125V5.625C109.325 4.725 109.325 3.825 109.325 3.15C108.865 3.375 108.635 3.375 108.175 3.375C107.484 3.375 107.024 2.925 107.024 2.25C107.024 1.8 107.254 1.575 107.714 1.35C108.175 1.125 108.865 0.9 109.556 0.675C110.937 0.45 111.857 0.45 112.317 0.45C113.008 0.45 113.468 0.675 113.698 0.9C113.929 1.125 114.159 1.35 114.159 1.8C114.159 2.25 114.159 2.475 113.929 2.7C113.698 2.925 113.929 3.15 113.698 3.15Z" fill="white"/>
</svg>
