<svg width="199" height="305" viewBox="0 0 199 305" fill="none" xmlns="http://www.w3.org/2000/svg">
<g clip-path="url(#clip0_0_3570)">
<path d="M151.454 40.7334C151.27 41.2841 150.903 41.6513 150.536 42.0184C149.802 42.9363 148.7 43.4871 147.415 43.8542C146.13 44.2214 144.845 44.5885 143.56 44.405C143.009 44.405 142.459 44.2214 141.908 44.2214C141.357 44.0378 140.806 43.8542 140.072 43.6706C140.806 42.202 142.091 41.1005 143.56 40.3662C143.744 41.4677 144.662 42.202 145.579 42.5692C146.681 42.9363 147.782 42.7528 148.884 42.202C149.802 41.6513 150.72 40.917 151.087 39.9991C151.087 39.8155 151.27 39.6319 151.27 39.4483C151.454 39.4483 151.454 39.4483 151.638 39.4483C151.821 39.9991 151.638 40.3662 151.454 40.7334ZM139.154 44.5885C138.971 44.9557 139.705 45.1393 139.889 44.7721C139.889 44.5885 140.072 44.5885 140.072 44.405C140.99 45.1393 142.642 45.5064 143.744 45.5064C145.212 45.69 146.681 45.5064 148.15 44.9557C149.435 44.405 150.72 43.6706 151.638 42.7528C152.372 42.0184 152.923 40.917 153.106 39.8155H153.29C154.208 39.9991 154.575 38.5304 153.657 38.3468C148.15 36.6946 140.623 38.5304 139.154 44.5885Z" fill="black"/>
<path d="M127.038 48.2602C127.772 48.4437 128.506 47.7094 127.956 47.1587C127.221 46.4244 126.12 45.6901 125.018 45.3229C124.835 45.3229 124.835 45.1393 124.651 45.1393C124.284 44.9557 124.101 44.9557 123.733 44.7722C122.265 44.405 120.796 44.0378 119.327 44.0378C117.859 44.0378 116.207 44.2214 114.922 44.7722C113.453 45.5065 111.801 46.4244 110.883 47.7094C110.516 48.0766 111.066 48.4437 111.434 48.2602C111.617 48.2602 111.801 48.0766 111.984 48.0766C112.535 48.9945 113.453 49.7288 114.371 50.096C114.922 50.2795 115.289 50.4631 115.839 50.6467C116.39 50.8303 117.124 50.8303 117.492 50.6467C117.859 50.4631 118.042 49.9124 117.492 49.7288C116.941 49.5452 116.39 49.7288 115.839 49.5452C115.289 49.5452 114.922 49.3616 114.371 49.1781C113.636 48.8109 113.086 48.2602 112.535 47.7094C113.269 47.1587 114.187 46.608 114.922 46.2408C115.839 45.8736 116.757 45.6901 117.675 45.5065C117.675 45.6901 117.675 45.6901 117.675 45.8736C117.675 46.0572 117.675 46.0572 117.675 46.2408C117.675 46.4244 117.859 46.7915 117.859 46.9751C118.042 47.5258 118.41 47.893 118.777 48.2602C119.511 48.9945 120.429 49.3616 121.347 49.3616C121.163 49.5452 120.796 49.5452 120.429 49.7288C119.695 49.9124 118.96 50.096 118.226 50.2795C117.859 50.2795 118.042 50.8303 118.226 50.8303C119.144 50.8303 119.878 50.6467 120.796 50.4631C121.714 50.2795 122.448 50.096 123.183 49.7288C124.101 49.3616 125.202 48.6273 125.936 47.893C126.671 48.0766 126.854 48.2602 127.038 48.2602Z" fill="black"/>
<path d="M132.726 60.7435C133.277 60.5599 134.011 60.1928 134.562 60.1928C135.296 60.1928 135.847 60.7435 136.582 60.7435C136.949 60.7435 137.316 60.5599 137.499 60.1928C137.683 60.0092 137.867 59.6421 138.234 59.6421C138.968 59.4585 139.702 59.6421 140.437 59.2749C140.987 58.9077 141.538 58.357 141.538 57.6227C141.722 56.7048 141.171 55.9705 140.62 55.4197C139.886 54.6854 139.152 53.9511 138.05 54.1347C137.683 54.3183 137.316 55.0526 137.867 55.2361C138.601 55.4197 139.335 55.9705 139.886 56.5212C140.253 56.8884 140.253 57.4391 139.702 57.8063C139.152 58.1734 138.417 57.9898 137.867 58.1734C137.499 58.357 137.132 58.5406 136.949 58.7242C136.765 58.9077 136.582 59.2749 136.398 59.2749C136.214 59.2749 135.664 59.0913 135.48 58.9077C135.113 58.7242 134.929 58.7242 134.562 58.7242C134.011 58.7242 133.277 58.9077 132.726 59.0913C132.176 59.2749 131.441 59.4585 131.074 58.7242C130.891 58.1734 131.258 57.6227 131.625 57.0719C131.992 56.5212 131.258 55.9705 130.707 56.3376C130.156 56.8884 129.789 57.6227 129.789 58.357C129.789 59.0913 130.156 59.8256 130.707 60.1928C131.441 60.7435 132.176 60.7435 132.726 60.7435Z" fill="black"/>
<path d="M133.095 68.821C132.911 69.0046 132.728 69.0046 132.544 69.1882C132.544 69.1882 132.544 69.1882 132.361 69.3718C131.994 69.1882 131.076 69.0046 131.076 69.0046C130.158 69.0046 129.24 69.3718 129.056 70.1061C129.056 70.1061 129.056 70.1061 128.873 70.1061C128.506 69.9225 127.955 70.2897 127.771 70.6568C127.588 71.024 127.771 71.3911 128.138 71.7583C128.322 71.9419 128.689 71.9419 129.056 71.9419H129.24C129.423 71.9419 129.607 71.9419 129.791 71.9419C129.791 72.1255 129.791 72.1254 129.974 72.1254C130.341 72.309 130.709 72.6762 131.076 72.6762C131.259 72.6762 131.259 72.6762 131.443 72.6762C131.626 72.6762 131.626 72.6762 131.81 72.6762C131.994 72.6762 132.177 72.6762 132.361 72.6762C132.728 72.6762 133.279 72.6762 133.646 72.4926C134.38 72.309 135.114 71.9419 135.665 71.3911C135.849 71.2076 136.032 71.024 136.032 70.8404C136.583 70.6568 137.134 70.4732 137.501 70.2897C138.052 70.1061 138.419 69.1882 137.868 68.821C136.767 68.0867 134.747 67.9031 133.095 68.821Z" fill="black"/>
<path d="M138.787 32.8395C138.971 32.8395 139.338 32.6559 139.521 32.6559C139.154 32.6559 138.971 32.8395 138.787 32.8395ZM137.502 33.0231C137.685 33.3902 137.685 33.7574 137.685 34.1245C137.685 34.6753 138.42 34.8588 138.787 34.6753C140.99 33.5738 143.009 32.2887 145.212 31.1873C145.947 30.8201 147.232 29.7186 148.15 30.0858C148.884 30.4529 149.618 31.1873 150.352 31.3708C150.536 31.3708 150.903 31.5544 151.087 31.3708C151.821 31.1873 151.821 30.2694 151.454 29.9022C150.72 28.9843 149.618 28.6172 148.517 28.25C147.415 27.8828 146.13 27.3321 145.212 27.8828C143.927 28.4336 142.826 29.1679 141.724 29.7186C140.439 30.2694 139.154 30.8201 137.685 31.3708C136.768 31.738 136.951 32.8395 137.502 33.0231Z" fill="black"/>
<path d="M111.615 41.8349C113.084 40.917 114.553 39.6319 115.654 38.1633C116.205 37.429 116.756 37.0618 117.674 37.0618C118.591 37.0618 119.509 37.0618 120.427 37.2454C121.345 37.2454 122.447 37.429 123.364 37.429C124.099 37.429 124.833 37.6125 125.384 37.2454C125.935 36.8782 126.118 35.9603 125.567 35.4096C125.017 34.6753 124.099 34.4917 123.364 34.3081C122.997 34.3081 122.814 34.3081 122.63 34.4917C121.712 34.4917 120.611 34.6753 119.693 34.6753C118.408 34.6753 116.939 34.6753 115.654 34.8588C114.369 35.0424 113.635 36.3275 113.084 37.2454C112.166 38.3468 111.432 39.4483 110.514 40.5498C109.963 41.2841 110.698 42.5692 111.615 41.8349Z" fill="black"/>
<path d="M160.449 188.515C159.714 188.698 158.796 188.698 157.878 188.882C149.984 189.616 142.091 190.901 134.38 192.921C133.462 193.104 133.646 194.206 134.197 194.573C134.197 194.573 134.197 194.756 134.38 194.756C137.868 197.327 141.54 199.53 145.028 201.916C146.68 203.018 148.516 204.303 150.168 205.404C151.82 206.506 153.472 207.607 154.941 208.892C155.492 209.443 156.043 209.81 156.41 210.544C156.593 210.911 156.777 211.279 156.96 211.646C157.144 212.196 157.144 212.747 156.41 212.564C154.758 212.38 153.105 211.462 151.82 210.544C148.699 208.525 145.762 206.322 142.458 204.486C140.622 203.568 138.786 202.65 136.95 202.1C135.298 201.549 133.462 201.549 131.994 202.834C131.443 203.385 132.177 204.486 132.912 204.119C133.829 205.404 135.115 206.506 136.216 207.607C137.685 208.892 139.337 210.177 140.989 211.462C144.294 213.849 147.598 216.052 150.352 218.989C149.434 221.008 145.211 218.255 144.11 217.52C141.907 216.235 139.888 214.95 137.868 213.482C134.38 210.911 130.158 207.791 125.385 208.525C124.651 208.708 124.651 209.626 125.201 209.81V209.994C129.607 215.868 136.767 218.805 142.091 223.946C140.622 224.68 138.786 224.313 137.134 223.762C135.298 223.028 133.462 221.926 131.81 221.008C130.158 220.09 128.506 218.989 126.853 218.071C125.201 216.97 123.549 215.501 121.897 214.399C121.53 214.032 120.979 214.399 120.979 214.95C117.124 214.95 113.452 214.95 110.148 212.931C109.413 212.38 108.679 211.829 108.128 211.279C108.128 211.095 107.945 210.911 107.761 210.911C107.211 210.177 106.66 209.626 106.109 208.708C105.558 207.791 105.191 206.873 104.824 205.955C104.457 205.037 104.273 204.119 103.722 203.385C103.355 203.018 102.621 203.201 102.621 203.752C102.437 204.853 102.988 205.955 103.355 206.873C103.722 207.974 104.273 208.892 104.824 209.994C105.191 210.361 105.375 210.911 105.742 211.279C104.457 211.646 103.172 212.38 101.703 212.747C100.051 213.298 98.3987 214.032 96.7465 214.583C93.2585 215.868 89.954 217.153 86.466 218.622C85.5481 215.868 84.8138 213.114 84.4467 210.177C84.0795 207.056 84.0795 204.119 84.0795 200.998C87.0168 199.346 89.7705 197.51 92.7077 196.042C96.0122 194.389 99.3166 193.655 102.988 193.288C110.148 192.37 117.491 191.636 124.651 190.718C131.81 189.8 139.153 189.065 146.313 188.331C149.984 187.964 153.656 187.597 157.328 187.413C158.246 187.413 160.448 186.863 160.999 187.597C160.999 187.78 161.183 187.78 161.183 187.964C161.183 188.148 160.999 188.331 160.999 188.331C161.366 188.148 160.816 188.331 160.449 188.515ZM95.2778 235.511C95.0943 235.695 94.9107 235.878 94.9107 235.878C94.7271 236.062 94.7271 236.062 94.5435 236.245C93.9928 236.245 93.442 236.429 92.7077 236.429C89.0361 236.796 85.3646 237.163 81.693 237.53C79.8572 237.714 78.0214 237.898 76.1856 238.081C75.0841 238.265 73.7991 238.265 72.6976 238.448C72.514 237.347 72.1468 236.429 71.7797 235.511C71.4125 234.042 71.0454 232.574 70.6782 231.105C70.3111 229.82 70.1275 228.535 69.7603 227.25C69.3932 224.129 69.026 221.008 68.6588 218.071C68.2917 214.399 68.1081 210.911 68.8424 207.24C69.026 205.771 69.5767 204.486 69.9439 203.201C71.7797 203.018 73.7991 202.65 75.6349 202.283C76.9199 202.1 78.205 201.916 79.49 201.549C80.5915 201.365 81.8766 201.182 82.978 200.815C82.6109 203.752 82.7944 206.873 83.1616 209.626C83.5288 212.931 84.2631 216.052 85.3646 219.173C87.7511 225.231 91.0555 230.738 95.2778 235.511ZM97.2972 225.598C97.2972 228.535 96.7465 231.289 96.0122 234.042C92.157 229.637 89.0361 224.313 87.2004 218.805C87.2004 218.805 87.2004 218.805 87.2004 218.622C90.3212 217.887 93.442 216.786 96.3793 215.684C96.9301 219.173 97.2972 222.293 97.2972 225.598ZM109.597 213.849C111.249 214.767 113.085 215.501 114.921 215.684C114.37 216.97 114.37 218.622 114.187 219.907C114.003 221.559 113.819 223.395 113.819 225.047C113.819 226.699 113.819 228.535 113.819 230.187C113.819 231.105 113.819 232.023 114.003 232.757C114.003 233.308 114.003 233.859 114.187 234.41C112.718 234.042 111.066 234.226 109.413 234.41C107.578 234.593 105.742 234.777 103.906 234.96C101.703 235.144 99.3166 235.511 97.1136 235.695C97.1136 235.695 97.1136 235.695 97.1136 235.511C98.2151 232.207 98.7658 228.719 98.7658 225.414C98.9494 222.11 98.5823 218.438 97.6644 215.317C97.6644 215.317 97.6644 215.134 97.4808 215.134C99.133 214.583 100.785 214.032 102.254 213.482C103.722 212.931 105.375 212.564 106.843 211.829C107.945 212.747 108.679 213.298 109.597 213.849ZM72.6976 197.877C78.5721 187.23 87.0168 177.867 96.7465 170.524C99.133 168.688 101.52 167.036 104.09 165.567C104.457 166.302 104.824 167.036 105.191 167.77C105.925 169.423 106.66 171.258 107.211 172.911C108.496 176.766 109.413 180.804 109.781 185.027C109.781 185.761 110.699 186.128 111.249 185.577C116.022 180.437 117.307 172.911 115.104 166.669C120.245 172.543 121.53 180.988 122.631 188.515V188.698C117.124 189.433 111.616 189.983 106.109 190.718C102.07 191.268 98.0315 191.636 94.3599 193.288C90.8719 194.756 87.2004 196.959 84.2631 199.346C84.0795 199.162 84.0795 199.162 83.7123 199.162C82.4273 199.162 80.9587 199.713 79.6736 199.897C78.3885 200.08 77.1035 200.447 75.8184 200.631C74.1662 200.998 72.514 201.182 70.8618 201.549C71.4125 200.264 71.9633 198.979 72.6976 197.877ZM105.558 9.15773C105.742 8.79057 106.109 8.42341 106.476 8.23983C104.64 10.2592 102.805 12.2786 101.152 14.298C102.621 12.4622 103.906 10.8099 105.558 9.15773ZM167.057 40.5498C168.159 42.9363 169.077 45.3229 170.178 47.893C170.545 48.8109 170.913 49.9123 171.28 50.8302C171.463 51.1974 171.463 51.5646 171.647 51.9317C169.26 46.4243 165.589 37.9797 162.284 30.6365C163.937 33.9409 165.589 37.2454 167.057 40.5498ZM179.724 104.435C179.357 104.986 179.174 105.353 178.623 105.72C177.889 106.455 177.154 107.006 176.42 107.556C175.502 108.107 174.584 108.658 173.666 109.208C173.115 109.576 172.748 109.759 172.198 109.943C171.647 110.31 171.096 110.494 170.729 111.044C170.545 111.228 170.729 111.595 171.096 111.779C171.83 111.779 172.381 111.595 172.932 111.411C173.483 111.228 174.033 110.861 174.584 110.494C175.502 109.943 176.603 109.392 177.521 108.658C178.99 107.556 180.275 106.455 181.193 104.803C181.927 104.619 182.294 103.701 181.56 103.15C181.377 102.967 181.193 102.967 181.009 102.967C179.357 102.049 177.705 101.315 175.869 100.397C176.053 100.397 176.236 100.397 176.236 100.397C176.971 100.397 177.705 100.397 178.623 100.397C180.459 100.397 182.111 100.397 183.947 100.58C185.782 100.764 187.435 100.947 189.27 101.131C190.005 101.315 190.923 101.498 191.657 101.498C191.841 101.682 192.208 101.682 192.391 101.865C191.841 103.334 192.208 105.17 192.391 106.638C192.758 110.31 193.126 113.982 193.493 117.653C194.044 124.262 194.594 131.054 194.411 137.847C194.411 137.663 194.227 137.663 194.227 137.663C193.86 137.113 193.493 136.745 192.942 136.195C192.024 135.277 191.29 134.175 190.372 133.257C188.536 131.238 186.884 129.219 185.048 127.383C183.396 125.547 181.744 123.711 179.908 121.875C178.256 120.223 176.787 118.387 174.951 116.919C174.951 116.735 174.951 116.735 174.768 116.552C172.932 114.349 171.096 112.146 169.26 109.943C168.526 108.841 167.792 107.74 167.057 106.638C165.038 103.701 162.835 100.764 161.366 97.643C159.898 94.5221 160.081 91.0341 159.163 87.9133C158.98 87.179 158.613 86.4446 158.429 85.7103V85.5267C158.062 84.6088 157.511 83.3238 156.593 82.4059C157.144 81.488 157.695 80.3865 158.062 79.285C158.062 79.6522 158.246 80.0194 158.246 80.5701C158.429 82.9566 158.98 85.3432 159.714 87.5461C160.632 90.2998 161.734 92.8699 163.753 95.0729C165.589 97.0922 167.975 98.3773 170.362 99.6624C173.483 101.315 176.603 102.967 179.724 104.435ZM190.739 156.939C187.802 164.466 183.212 171.625 176.971 177.316C169.444 167.22 162.835 156.572 157.144 145.374C156.226 143.354 155.125 141.335 154.207 139.499C153.656 138.398 153.105 137.113 152.555 135.827C156.96 134.726 160.632 131.238 163.937 128.301C167.241 125.363 170.729 122.243 173.483 118.755L173.666 118.571C173.85 118.387 174.033 118.204 174.217 118.02H174.401C176.053 120.04 177.889 121.875 179.541 123.711C181.56 126.098 183.763 128.301 185.782 130.687C187.802 132.89 189.821 135.277 191.841 137.48C192.391 138.03 192.758 138.581 193.309 139.315C193.676 139.683 193.86 140.05 194.227 140.417H194.411C194.411 141.518 194.411 142.62 194.227 143.721C193.676 148.127 192.575 152.533 190.739 156.939ZM135.115 180.07C140.806 170.891 143.376 160.06 141.907 149.412C141.356 145.924 140.438 142.62 139.153 139.499C137.501 135.644 135.482 132.156 133.829 128.484C132.728 126.098 131.81 123.528 130.892 120.958C131.81 121.141 132.728 121.141 133.646 121.325C134.931 121.508 136.216 121.508 137.501 121.692C140.071 121.875 142.825 122.059 145.395 121.875C147.782 121.692 150.352 121.508 152.738 120.774C153.84 120.407 154.758 120.223 155.859 119.672C156.593 119.305 157.511 118.938 158.246 118.387C159.163 120.223 160.081 122.059 160.632 123.895C160.632 123.895 160.449 123.895 160.449 124.078C158.246 125.731 156.226 127.75 154.207 129.586C152.738 131.054 150.352 132.89 150.902 135.093C150.902 135.277 151.086 135.46 151.27 135.644C152.187 138.214 153.656 140.784 154.758 143.354C156.226 146.292 157.695 149.229 159.347 152.166C162.468 158.041 165.956 163.732 169.627 169.239C171.28 171.809 173.115 174.379 174.951 176.949C174.951 177.133 174.951 177.316 175.135 177.5C175.318 177.684 175.502 178.051 175.686 178.234C173.115 180.437 170.362 182.273 167.241 183.925C165.956 184.66 164.487 185.21 163.019 185.945V185.761C162.284 184.843 160.999 184.66 159.714 184.66C157.878 184.66 156.043 185.027 154.023 185.027C145.946 185.761 137.868 186.679 129.791 187.597C131.259 186.128 133.279 183.558 135.115 180.07ZM105.742 164.466L105.925 165.017C105.742 165.017 105.558 164.833 105.742 164.466C105.558 164.649 105.558 164.466 105.742 164.466ZM164.12 92.3192C165.405 92.8699 165.405 92.6863 165.222 92.3192C166.874 92.1356 168.526 91.5849 169.811 90.667C172.198 89.1983 174.033 86.9954 175.318 84.4253C176.971 81.1208 177.521 77.8164 177.521 74.1448V74.3284C178.072 77.6328 178.439 80.7537 178.256 84.0581C177.889 86.2611 177.338 88.464 176.236 90.2998C174.584 93.0535 172.014 95.44 168.71 96.1743C168.71 96.1743 168.71 96.1743 168.526 96.1743C168.159 96.1743 167.975 96.1743 167.608 96.1743C166.507 95.44 165.405 94.7057 164.487 93.7878C163.936 93.2371 163.386 92.5028 162.835 91.7684C163.386 92.3192 163.753 92.3192 164.12 92.3192ZM173.115 116.552C173.115 116.552 173.115 116.368 173.115 116.552C173.115 116.368 173.115 116.552 173.115 116.552ZM163.753 126.465C163.569 126.098 163.569 125.731 163.386 125.547C163.019 123.895 162.101 122.426 161.366 120.774C160.632 119.305 159.898 117.837 159.163 116.368C158.796 115.817 158.613 115.267 158.246 114.899C157.878 114.349 157.695 113.614 157.328 113.064C156.777 111.779 156.226 110.494 155.492 109.392C155.492 109.208 155.492 109.208 155.492 109.025C154.758 107.74 153.289 106.822 152.371 105.72C151.27 104.619 150.168 103.334 149.617 101.865C149.067 100.213 148.883 98.5609 149.067 96.9087C149.067 95.9908 149.25 95.2564 149.434 94.3386C149.617 93.4207 149.801 92.6863 149.801 91.7684C149.801 91.5849 149.984 91.5849 149.801 91.4013C149.801 91.2177 149.434 90.8505 149.25 90.8505C149.067 90.8505 148.883 90.8505 148.699 90.8505C148.516 90.8505 148.332 90.8505 148.149 90.8505H147.965C147.782 90.8505 147.598 90.8505 147.598 90.8505H147.414C147.231 90.667 146.864 90.667 146.864 90.8505C146.313 91.7684 146.129 92.8699 145.946 93.7878C145.762 94.3385 145.762 94.7057 145.579 95.2564V95.44C145.395 95.6236 145.211 95.8072 145.028 96.1743C145.028 96.1743 144.844 96.1743 144.844 96.3579C144.477 96.5415 144.294 96.9087 143.926 97.0922C143.559 97.2758 143.192 97.4594 142.825 97.643H142.641C142.825 97.0922 142.825 96.5415 143.008 95.9908C143.008 95.8072 143.192 95.6236 143.192 95.44C143.376 95.2564 143.376 95.0729 143.376 94.8893C143.559 94.3386 143.743 93.6042 143.926 93.0535C144.294 91.5849 144.844 89.9326 145.211 88.464C145.211 88.2804 145.395 88.0969 145.395 87.9133C145.762 87.9133 146.129 87.7297 146.496 87.5461C146.864 87.3625 147.231 87.3625 147.598 87.3625C147.965 87.3625 148.149 87.179 148.516 87.179C148.883 87.179 149.067 87.179 149.434 87.179C149.617 87.179 149.801 87.179 150.168 87.179C150.535 87.179 150.535 86.6282 150.168 86.4446C149.801 86.2611 149.434 86.2611 148.883 86.0775C148.516 86.0775 148.149 86.0775 147.782 86.0775C147.414 86.0775 147.047 86.0775 146.864 86.2611C146.496 86.2611 146.129 86.4446 145.762 86.4446C145.579 86.2611 145.211 86.2611 145.028 86.4446C144.477 87.179 144.11 88.2804 143.926 89.1983C143.559 90.1162 143.192 91.2177 143.008 92.1356C142.825 92.6863 142.641 93.2371 142.641 93.7878H142.458C142.274 93.7878 142.274 93.9714 142.091 93.9714C141.907 93.9714 141.907 93.9714 141.907 93.9714C141.723 93.9714 141.723 93.9714 141.54 93.9714C141.356 93.9714 140.989 93.9714 140.805 93.9714C140.805 93.7878 140.989 93.6042 140.989 93.4207C141.173 93.0535 141.173 92.5028 141.356 92.1356C141.723 91.2177 141.907 90.2998 142.274 89.3819C142.641 88.0969 143.008 86.8118 143.376 85.5267C143.559 84.976 143.743 84.6088 143.926 84.0581C144.477 84.2417 144.844 83.8745 145.395 83.8745C145.762 83.6909 146.313 83.6909 146.68 83.5074C147.047 83.5074 147.598 83.3238 147.965 83.3238C148.516 83.3238 149.067 83.1402 149.434 82.9566C149.801 82.7731 149.617 82.4059 149.434 82.4059C148.883 82.2223 148.332 82.2223 147.782 82.2223C147.231 82.2223 146.864 82.4059 146.313 82.4059C145.762 82.4059 145.395 82.5895 144.844 82.5895C144.661 82.5895 144.294 82.5895 144.11 82.773C143.926 82.5895 143.743 82.5895 143.559 82.773L143.376 82.9566C143.192 82.9566 143.008 82.9566 143.008 83.1402C142.825 83.6909 142.458 84.4253 142.274 84.976C142.274 85.1596 142.091 85.1596 142.091 85.3432C142.091 85.3432 142.091 85.5267 141.907 85.5267H141.723C141.356 85.7103 140.989 85.7103 140.438 85.8939C140.438 85.8939 140.438 85.8939 140.255 85.8939C140.071 85.8939 140.071 85.8939 139.888 85.8939C139.52 85.8939 139.337 85.8939 138.97 85.8939C138.603 85.8939 138.235 85.7103 137.868 85.7103C137.685 85.7103 137.501 85.5267 137.318 85.5267C138.052 84.976 138.786 84.4253 139.337 83.8745C140.438 82.9566 141.723 82.0387 142.825 81.1208C143.926 80.2029 144.844 79.285 145.762 78.3671C146.129 78 146.68 77.4492 147.231 77.0821C147.414 76.8985 147.782 76.7149 147.965 76.7149H148.149C148.332 76.8985 148.516 76.8985 148.883 77.0821C149.25 77.2657 149.801 77.6328 150.168 77.8164C151.086 78.5507 152.187 79.4686 153.105 80.2029C153.84 80.9373 154.574 81.488 155.308 82.2223C156.043 82.9566 156.777 83.6909 157.511 84.4253C157.511 84.4253 157.511 84.4253 157.695 84.4253C158.246 85.7103 158.796 86.9954 159.163 88.2804C159.163 88.464 159.163 88.464 159.163 88.6476C159.163 90.4834 158.98 92.5028 159.347 94.3386C159.531 95.9908 160.265 97.643 160.999 99.1116C162.284 101.315 163.936 103.334 165.589 105.353C166.323 106.638 167.241 107.923 167.975 109.025C169.811 111.779 171.647 114.532 173.483 117.286C173.483 117.286 173.483 117.286 173.666 117.47C169.627 120.958 166.874 123.711 163.753 126.465ZM161.55 126.281C161.734 126.832 162.284 126.832 162.651 126.649C162.835 126.832 162.835 127.016 163.019 127.199C161.366 128.668 159.898 129.953 158.246 131.238C156.593 132.523 154.941 133.625 152.922 134.175C153.105 133.625 153.472 133.074 154.023 132.523C154.941 131.605 155.859 130.687 156.777 129.953C158.246 128.484 159.898 127.199 161.55 125.731C161.366 125.731 161.366 125.914 161.55 126.281ZM127.221 105.904C126.486 101.498 125.936 97.0922 125.568 92.6863C125.201 88.2804 124.834 84.0581 124.467 79.6522C125.385 80.0194 126.303 80.3865 127.221 80.7537C129.056 81.488 130.892 81.8552 132.912 82.4059C134.38 82.7731 135.849 82.9566 137.318 83.1402C136.95 83.5074 136.4 83.8745 136.032 84.2417C135.482 84.6088 135.115 84.976 134.564 85.5267L134.38 85.7103L134.197 85.8939C134.013 86.0775 133.829 86.4446 133.646 86.8118C133.279 87.3625 133.829 87.9133 134.38 87.7297L134.564 87.9133C134.747 87.9133 134.747 88.0969 134.931 88.0969C135.115 88.0969 135.298 88.2804 135.482 88.2804C135.482 88.2804 135.665 88.2804 135.665 88.464C136.216 88.6476 136.767 88.8312 137.134 88.8312C137.685 88.8312 138.235 88.8312 138.786 88.8312C139.153 88.8312 139.52 88.6476 139.888 88.6476C139.888 88.6476 139.888 88.8312 139.704 88.8312C138.97 90.667 138.235 92.6863 137.685 94.5221C137.501 95.0729 137.868 95.2564 138.235 95.2564C138.235 95.2564 138.235 95.44 138.419 95.44C138.603 95.44 138.603 95.6236 138.786 95.6236H138.97C139.153 95.6236 139.337 95.8072 139.52 95.8072C139.704 95.8072 140.071 95.9908 140.255 95.9908C140.438 95.9908 140.622 95.9908 140.805 95.9908C140.622 96.7251 140.255 97.643 140.255 98.5609C140.255 98.7445 140.255 98.928 140.438 99.1116C140.438 99.6624 141.173 99.6623 141.356 99.2952C141.54 99.2952 141.54 99.2952 141.723 99.2952C141.907 99.2952 141.907 99.2952 142.091 99.2952C142.274 99.2952 142.641 99.1116 142.825 99.1116C143.192 98.928 143.376 98.7445 143.743 98.5609C143.926 98.3773 144.11 98.3773 144.294 98.1937C144.477 98.0101 144.844 97.8266 145.028 97.643C145.395 97.2758 145.762 96.9087 145.946 96.5415C146.129 96.3579 146.129 96.3579 146.129 96.1743C146.129 95.9908 146.129 95.8072 146.313 95.8072C146.313 95.44 146.496 95.0729 146.496 94.7057C146.68 94.3385 146.68 93.7878 146.68 93.4207C146.864 93.4207 146.864 93.4207 147.047 93.6042C146.68 96.3579 146.313 99.2952 147.047 102.049C147.782 105.353 150.168 107.556 152.187 110.126C154.207 112.513 156.043 115.267 157.511 118.02C156.777 118.387 156.043 118.755 155.308 118.938C154.207 119.489 153.105 119.672 151.82 120.04C149.434 120.59 146.864 120.774 144.477 120.774C142.091 120.774 139.52 120.59 137.134 120.407C135.849 120.223 134.564 120.223 133.462 120.04C132.361 119.856 131.259 119.672 130.341 119.672C129.056 114.716 128.139 110.31 127.221 105.904ZM158.796 64.7823L158.613 64.5987C158.613 64.5987 158.613 64.4151 158.796 64.4151C158.613 64.5987 158.796 64.5987 158.796 64.7823ZM154.574 80.5701C154.39 80.2029 153.84 79.8358 153.472 79.4686C153.656 79.285 153.656 79.1015 153.84 78.9179C154.023 78.5507 154.207 78.3671 154.39 78C154.758 77.2657 155.125 76.7149 155.492 75.9806C155.859 75.2463 156.226 74.6956 156.593 73.9612C156.777 73.7777 156.96 73.4105 157.144 73.0433C157.144 73.0433 157.144 73.2269 157.328 73.2269C157.695 73.7777 158.613 73.4105 158.429 72.8598C158.796 72.6762 159.163 72.309 158.98 71.7583C158.246 70.2896 157.511 68.2703 158.246 66.8017C159.163 69.1882 159.347 71.7583 158.796 74.3284C158.613 75.797 158.062 77.0821 157.511 78.5507C157.144 79.285 156.96 79.8358 156.593 80.5701C156.41 80.9373 156.043 81.3044 155.859 81.8551C155.308 80.9373 154.941 80.7537 154.574 80.5701ZM155.675 69.3718C155.675 69.9225 155.859 70.2896 156.043 70.8404C156.043 71.024 156.226 71.024 156.226 71.2076C155.675 71.7583 155.308 72.4926 154.941 73.0433C154.574 73.7777 154.023 74.512 153.656 75.2463C153.289 75.9806 152.922 76.7149 152.371 77.4492C152.187 77.6328 152.004 78 152.004 78.1836C151.82 78 151.637 77.8164 151.453 77.6328C151.086 77.4492 150.719 77.0821 150.352 76.8985C150.719 76.5314 150.902 76.1642 151.086 75.797C151.453 75.4299 151.637 75.0627 152.004 74.512C152.555 73.5941 153.289 72.8598 153.84 71.9419C154.39 71.2076 154.941 70.2897 155.492 69.5553C155.492 69.5553 155.675 69.5553 155.675 69.3718ZM119.694 74.512C117.124 72.309 115.655 69.5553 114.554 66.4345C114.003 64.9659 113.636 63.4972 113.085 62.0286C112.534 60.1928 112.167 58.357 111.433 56.7048C111.066 55.7869 109.597 56.3376 109.781 57.2555C109.964 58.5406 110.331 59.6421 110.699 60.9271C110.515 60.9271 110.515 60.9271 110.331 60.9271C109.413 61.1107 108.496 61.2943 107.578 60.56C107.027 60.1928 106.476 59.4585 106.109 58.9077C105.375 57.4391 104.64 55.9705 103.906 54.6854C103.172 53.2168 102.437 51.5646 102.07 49.9123C101.887 49.178 101.887 48.4437 102.254 47.7094C102.621 46.7915 103.906 46.4243 104.64 47.1587C104.64 47.1587 104.824 47.1587 104.824 47.3422C105.008 47.5258 105.375 47.5258 105.558 47.3422C106.66 46.7915 107.027 45.5064 107.394 44.405C107.761 43.1199 108.128 41.6513 108.496 40.3662C109.23 37.6125 110.148 34.8588 111.433 32.1051C112.718 29.535 114.187 27.1485 116.206 25.1291C118.776 22.559 121.897 20.3561 125.018 18.3367C128.139 16.3173 131.259 14.6651 134.564 12.6457L134.747 12.4622L134.931 12.6457C138.603 14.298 141.907 16.1337 144.844 18.8874C147.782 21.6411 150.168 24.9456 152.004 28.4336C153.84 32.2887 155.125 36.5111 156.043 40.7334C156.96 44.9557 157.878 49.3616 158.246 53.7675C158.613 57.8063 158.246 61.845 156.593 65.5166C156.226 65.8838 156.043 66.4345 155.859 66.9852C155.125 67.536 154.574 68.4539 154.207 69.1882C153.656 69.9225 153.105 70.8404 152.555 71.5747C152.004 72.309 151.453 73.2269 150.902 73.9612C150.535 74.3284 150.352 74.6956 149.984 75.0627C149.617 75.4299 149.25 75.797 149.067 76.3478C148.883 76.1642 148.516 75.9806 148.332 75.797C147.965 75.4299 147.414 75.6135 147.231 75.9806C147.047 75.9806 146.864 75.9806 146.68 75.9806C146.68 75.9806 146.496 75.9806 146.496 76.1642C145.946 76.3478 145.395 76.5314 144.844 76.8985C143.926 77.6328 143.008 78.5507 142.091 79.285C141.173 80.0194 140.255 80.5701 139.337 81.3044C139.153 81.488 138.786 81.6716 138.603 81.8551C136.767 81.1208 134.747 80.9373 132.728 80.3865C131.076 80.0194 129.424 79.4686 127.771 78.9179C125.018 78 122.08 76.5313 119.694 74.512ZM123.549 79.285C123.549 79.285 123.549 79.1015 123.365 79.1015C123.365 79.1015 123.365 79.1015 123.549 79.1015V79.285ZM111.066 61.6614C111.249 62.0286 111.249 62.3957 111.433 62.5793C111.433 62.5793 111.433 62.5793 111.433 62.7629C111.066 62.7629 110.515 62.5793 109.781 62.2122C110.148 62.2122 110.515 62.2122 111.066 61.6614C110.882 61.845 111.066 61.845 111.066 61.6614ZM80.2243 117.286C80.0408 117.47 79.8572 117.653 79.6736 117.837C76.5528 121.141 74.3498 125.547 72.8812 129.769V129.953C72.1469 131.789 71.4125 133.625 70.8618 135.46C69.5767 139.683 68.8424 144.089 67.7409 148.494C66.8231 152.35 65.538 156.205 63.1515 159.509C62.2336 160.611 61.3157 161.529 60.2142 162.446C59.4799 162.814 58.9291 163.181 58.1948 163.364C53.6053 165.384 48.8323 167.036 43.8756 167.403C38.919 167.77 33.9623 167.036 29.1893 165.567C24.967 164.466 20.7446 162.997 16.8895 160.794C-0.917726 151.248 5.50755 127.75 9.91346 112.329C12.3 104.068 14.6865 95.6236 18.5417 87.9133C20.3775 84.0581 22.5804 80.3865 25.3341 77.0821C28.2714 73.4105 31.7594 70.2897 35.431 67.536C38.3683 65.1494 41.6727 62.9465 44.7935 60.7435C50.1173 57.4391 55.6247 54.6854 61.1321 52.2989C63.8858 51.1974 66.6395 49.9123 69.3932 48.9944C74.9005 47.3422 80.5915 46.4243 86.466 46.4243C87.5675 46.4243 88.4854 46.4243 89.5869 46.4243C89.7705 46.4243 90.3212 46.4243 90.6884 46.6079C90.5048 51.0138 89.954 55.4197 89.5869 59.8256C89.0361 65.7002 89.2197 71.5747 89.2197 77.6328C89.2197 80.5701 89.0361 83.5074 88.8526 86.4446V86.8118C88.669 89.7491 88.3018 92.5028 88.1182 95.44C87.3839 101.498 86.466 107.373 85.5481 113.431C85.3646 113.614 84.9974 113.798 84.8138 113.798C83.1616 114.532 81.693 115.634 80.2243 117.286ZM196.981 104.619C196.981 104.068 196.797 103.518 196.797 102.967C197.532 102.049 197.348 100.58 196.063 100.213C195.879 99.8459 195.512 99.6624 195.145 99.4788C194.778 99.2952 194.227 99.2952 193.86 99.1116C193.126 98.928 192.208 98.7445 191.29 98.7445C189.27 98.3773 187.251 98.1937 185.232 98.1937C183.396 98.0101 181.377 98.0101 179.541 98.1937C177.521 98.3773 175.318 98.3773 173.483 99.1116C173.299 99.1116 173.115 99.4788 172.932 99.6624C172.748 99.6624 172.748 99.4788 172.565 99.4788C172.014 99.2952 171.463 98.928 170.913 98.7445C176.236 97.0922 179.724 91.952 180.826 86.8118C182.294 80.0194 180.275 73.2269 177.889 66.9852C177.889 66.8017 177.705 66.6181 177.705 66.2509C177.338 64.7823 176.787 63.3136 176.236 61.845C175.869 60.56 175.318 59.4585 174.951 58.1734C174.584 56.7048 174.033 55.2361 173.483 53.7675C173.483 53.7675 173.483 53.5839 173.299 53.5839C173.115 53.0332 173.115 52.666 172.932 52.1153C172.565 50.8302 172.014 49.5452 171.647 48.0766C170.913 45.69 169.811 43.4871 168.893 41.1005C166.874 36.5111 164.671 32.1051 162.468 27.6992C160.265 23.4769 158.062 19.2546 155.859 15.2158C154.023 11.7278 151.637 8.42341 148.332 6.03688C144.11 3.09961 138.97 3.28319 134.013 3.46677C133.829 3.46677 133.462 3.65035 133.462 3.83393C130.709 1.99813 126.853 1.26382 123.733 1.08024C120.428 0.896658 117.124 1.08024 113.819 1.99813C110.699 2.91603 107.761 4.38467 105.191 6.7712C102.621 9.15773 100.418 11.9114 98.3987 14.6651C97.2972 16.1337 96.0122 17.786 94.9107 19.4382C93.9928 20.7232 92.8913 22.1919 92.157 23.6605C91.9734 23.6605 91.7898 23.8441 91.7898 24.0277C91.0555 26.9649 90.8719 30.0858 90.8719 33.2066C90.8719 35.9603 90.6884 38.714 90.6884 41.2841C90.5048 41.2841 90.5048 41.2841 90.3212 41.2841C88.8526 41.2841 87.5675 41.2841 86.0989 41.4677C80.5915 41.8349 75.4513 43.1199 70.3111 44.9557C69.5767 45.3229 68.6588 45.5064 67.9245 45.8736C67.5574 45.8736 67.3738 46.0572 67.0066 46.0572C58.3784 48.8109 50.4845 52.8496 42.9577 57.6227C35.9817 61.845 29.3729 66.8017 23.8655 72.8598C21.2954 76.1642 18.3581 79.8358 16.1552 83.6909C13.4015 88.0968 11.3821 92.8699 9.36272 97.643C5.32397 107.189 1.46881 117.102 0.36733 127.566C-0.734146 137.48 0.55091 148.311 6.24187 156.939C11.7492 165.017 21.1118 168.688 30.1072 171.442C32.6773 172.176 35.2474 172.727 38.0011 172.543C40.5712 172.36 43.3249 171.809 45.895 171.442C50.3009 170.708 54.7068 169.606 58.7456 167.587C59.847 167.036 60.7649 166.485 61.8664 165.751C62.7843 165.384 63.5186 164.833 64.4365 164.282C68.4753 161.712 71.7797 158.224 73.0647 153.635C74.3498 149.045 74.1662 144.089 74.717 139.315C75.0841 136.011 75.8184 132.523 77.1035 129.402C77.8378 127.566 78.7557 125.547 79.8572 123.711C81.693 120.774 84.2631 118.02 87.5675 116.184C88.3018 115.817 88.8526 115.45 89.5869 115.267C90.5048 115.083 91.6063 114.899 92.5242 114.716C94.3599 114.532 96.0122 114.716 97.848 114.899C101.336 115.45 104.64 116.552 107.761 118.02C113.636 120.958 118.592 125.547 120.428 131.972C121.53 135.827 121.163 139.499 119.694 143.171V143.354C117.124 148.494 114.003 153.268 109.781 157.123C108.679 158.224 107.394 159.326 106.109 160.244C105.558 160.611 105.008 161.161 104.273 161.529L104.09 161.712C101.52 163.181 98.9494 164.833 96.5629 166.669C91.2391 170.34 86.466 174.746 82.2437 179.519C78.0214 184.109 74.3498 189.065 71.229 194.573C69.3932 197.51 67.9245 200.631 66.8231 204.119C65.7216 207.607 65.538 211.279 65.7216 214.95C65.9052 218.989 66.4559 223.028 67.1902 227.066C67.9245 231.839 68.6588 236.796 69.5767 241.569V241.753C69.3932 242.303 69.3932 242.854 70.1275 243.038C72.1469 243.405 74.3498 243.221 76.3692 243.038C78.205 243.038 80.2243 242.854 82.0601 242.671C85.9153 242.487 89.954 242.12 93.8092 241.753C101.52 241.018 109.046 240.284 116.757 239.366C117.124 239.366 117.307 239.183 117.491 238.999C118.042 238.999 118.409 238.815 118.776 238.448C119.51 236.98 118.96 234.96 118.96 233.308C118.96 231.656 118.96 230.187 118.96 228.535C118.96 226.149 119.143 223.762 119.327 221.192C119.51 219.54 119.694 217.887 119.51 216.052C120.428 216.052 121.53 215.868 122.264 215.501C123.733 216.786 125.385 217.887 127.037 218.989C128.873 220.274 130.709 221.375 132.728 222.477C136.032 224.313 140.622 227.066 144.11 224.313C144.477 224.129 144.477 223.578 144.11 223.395C138.97 218.071 131.81 215.134 126.486 209.626C130.525 209.443 133.829 211.646 136.95 214.032C138.603 215.317 140.071 216.419 141.907 217.52C143.559 218.622 145.395 219.723 147.231 220.458C148.516 221.008 149.984 221.008 151.27 220.09C151.637 219.723 152.004 219.173 152.187 218.622C152.187 217.887 151.453 217.337 150.902 216.97C148.332 214.583 145.579 212.564 142.641 210.728C140.989 209.626 139.153 208.341 137.685 207.056C136.4 205.955 135.298 204.67 134.013 203.568C135.482 202.834 137.134 203.752 138.603 204.303C140.438 205.037 142.274 205.955 144.11 207.056C145.946 208.158 147.598 209.259 149.434 210.361C150.902 211.462 152.371 212.564 154.023 213.298C155.125 213.849 157.328 214.767 158.429 213.849C159.898 212.931 158.98 210.544 158.246 209.443C157.328 207.974 155.859 207.056 154.39 205.955C152.555 204.67 150.719 203.385 148.883 202.283C144.661 199.53 140.438 196.776 136.216 194.389C143.559 192.553 151.086 191.085 158.796 190.534C160.265 190.351 162.101 190.351 163.202 189.433C163.386 189.249 163.386 189.249 163.569 189.065C166.874 188.698 170.178 187.046 173.299 185.577C176.236 184.292 178.99 182.64 181.744 180.804C187.068 177.133 191.106 172.36 193.676 166.669C196.614 160.427 197.899 153.451 198.449 146.475C198.449 145.557 198.633 144.456 198.633 143.538C199.551 137.663 199.918 131.605 199.734 125.731C198.817 118.571 198.082 111.595 196.981 104.619Z" fill="black"/>
<path d="M103.722 297.377C101.152 298.662 98.2147 299.764 95.2774 300.131C92.5237 300.498 89.77 299.947 87.3835 298.662C79.1224 294.44 73.9822 286.179 74.1658 277C74.3493 269.657 78.2045 262.13 84.4462 258.091C85.3641 257.724 86.282 257.541 87.0163 257.357C88.485 256.99 89.9536 256.623 91.6058 256.439C94.7267 256.256 98.0311 256.806 100.968 257.908C107.026 260.294 111.432 265.435 113.635 271.493C114.737 274.246 115.104 277.184 115.471 280.121C115.471 280.304 115.471 280.672 115.471 280.855C115.288 282.875 114.92 284.71 114.37 286.546C114.002 288.015 113.452 289.483 112.717 290.768C110.331 293.522 107.21 295.725 103.722 297.377ZM117.307 265.618C112.35 256.806 102.07 251.85 91.973 252.217C91.4222 252.217 90.8715 252.217 90.3207 252.4C86.4656 252.033 82.794 254.053 79.8567 256.623C76.7359 259.56 74.1658 263.415 71.7792 267.087C69.3927 270.758 67.7405 274.981 67.9241 279.387C68.1076 283.792 69.9434 287.831 72.33 291.503C74.7165 294.991 77.8374 298.479 81.1418 301.049C84.8134 303.803 89.0357 304.904 93.6252 304.537C97.8475 304.17 102.07 302.701 105.925 300.682C109.413 298.846 112.901 296.276 115.288 293.155C119.326 288.198 121.529 280.855 119.877 274.43C119.877 271.125 118.776 268.188 117.307 265.618Z" fill="black"/>
</g>
<defs>
<clipPath id="clip0_0_3570">
<rect width="199" height="303.64" fill="white" transform="translate(0 0.896667)"/>
</clipPath>
</defs>
</svg>
