<svg width="228" height="81" viewBox="0 0 228 81" fill="none" xmlns="http://www.w3.org/2000/svg">
<g clip-path="url(#clip0_0_3496)">
<path d="M13.2662 31.4913C14.8268 23.971 13.5783 15.824 12.642 8.30368V8.14701C15.7632 8.30368 18.8843 8.46035 22.0055 8.46035C24.0342 8.46035 24.5024 5.79691 22.3176 5.32689C15.295 4.23018 7.96028 5.32689 0.781636 6.4236C-0.622881 6.58028 -0.154709 8.46035 1.24981 8.30368C4.37096 7.99034 7.64816 7.99033 10.7693 8.14701V8.30368C10.1451 15.824 8.89662 23.8143 9.67691 31.3346C9.98903 32.9014 12.9541 33.2147 13.2662 31.4913Z" fill="black"/>
<path d="M22.1589 20.2108C22.1589 19.2708 22.0029 18.4874 21.8468 17.5474C22.0029 17.5474 22.0029 17.5474 22.1589 17.5474C24.0316 17.7041 24.6559 18.8008 23.7195 20.5242C23.0953 20.2108 22.6271 20.2108 22.1589 20.2108ZM26.5285 22.4043C27.777 21.4642 28.5573 20.0542 28.2452 18.0174C27.6209 14.884 24.1877 13.4739 21.3786 14.1006C20.9105 13.4739 19.8181 13.6306 19.8181 14.4139C19.8181 14.5706 19.8181 14.7273 19.8181 15.0406C19.506 15.5107 19.506 15.9807 19.662 16.4507C19.3499 19.8975 19.1938 23.3443 19.0378 26.7911C18.8817 30.8646 18.1014 35.0948 18.5696 39.0116C18.7257 39.9517 20.1302 39.9517 20.4423 39.1683C22.0029 35.0948 22.4711 30.0813 22.6271 25.2244C24.0316 26.4778 25.4361 27.7312 26.8407 28.9845C28.4012 30.7079 29.6497 32.4313 31.6784 33.5281C33.3951 34.3114 35.5799 32.9014 34.9556 31.0213C33.8632 27.8878 29.9618 24.5977 26.5285 22.4043Z" fill="black"/>
<path d="M43.383 19.8975C42.2906 21.3075 40.2619 21.3075 38.8573 20.3675C37.6089 19.4275 36.9847 17.8607 36.8286 16.294C36.9847 16.294 37.2968 16.1373 37.4528 15.9807C37.7649 15.6673 38.0771 15.354 38.2331 15.0406C39.6376 14.5706 41.1982 14.4139 42.6027 15.0406C44.4754 15.824 44.6315 18.3308 43.383 19.8975ZM46.1921 13.4739C43.5391 10.6538 39.0134 10.9671 35.7362 11.9072C35.268 12.0638 34.7999 12.3772 34.4877 12.8472C34.0196 13.0039 33.5514 13.3172 33.2393 13.9439C32.1469 17.5474 33.2393 21.6209 36.6725 23.501C39.6376 25.2244 44.1633 24.911 46.5042 22.0909C48.3769 19.5841 48.3769 15.6673 46.1921 13.4739Z" fill="black"/>
<path d="M57.4282 26.0077C59.4569 25.6944 62.1099 23.6576 60.5493 21.4642C60.0812 20.8375 58.9888 20.8375 58.3645 21.3076C57.7403 21.7776 57.2721 22.5609 56.4918 22.0909C55.3994 21.6209 55.2434 19.5841 55.2434 18.6441C55.0873 15.824 56.3358 12.2205 59.613 12.2205C61.4857 12.2205 61.9539 9.71374 59.9251 9.55707C52.9025 8.61703 48.845 15.9807 51.3419 22.0909C52.2783 24.7544 54.6191 26.4778 57.4282 26.0077Z" fill="black"/>
<path d="M63.6713 17.7041C64.1394 17.8607 64.4515 18.0174 64.9197 18.0174C64.9197 18.1741 64.9197 18.4874 64.9197 18.6441C65.0758 22.0909 64.7637 25.8511 65.7 29.2979C66.0121 30.5512 68.509 30.3946 68.8211 29.1412C69.4454 25.8511 68.9772 22.4042 68.8211 18.9574C70.0696 19.1141 71.3181 19.2708 72.5665 19.2708C72.5665 23.1876 72.7226 27.1044 73.3468 30.7079C73.815 32.9013 77.2483 32.588 77.4043 30.5512C78.0285 21.9342 77.0922 13.0039 77.0922 4.23016C77.0922 2.35009 73.6589 2.50676 73.5029 4.38684C73.1908 7.99032 72.7226 11.9071 72.5665 15.6673C71.7862 15.6673 70.8499 15.824 70.0696 15.824C69.6014 15.824 69.1333 15.824 68.6651 15.824C68.6651 13.0039 68.509 10.1837 67.2606 7.83364C66.9485 7.36363 66.0121 7.20695 65.8561 7.83364C64.7637 10.1837 64.9197 13.0039 64.9197 15.6673H64.7637C63.5152 15.6673 62.2667 17.234 63.6713 17.7041Z" fill="black"/>
<path d="M95.0374 26.1644C91.6041 27.4178 88.1708 25.5377 84.7376 25.8511C84.7376 23.6576 84.7376 21.4642 84.8936 19.2708C87.5466 20.0542 92.0723 21.1509 94.101 18.8008C94.5692 18.3308 94.2571 17.5474 93.7889 17.234C92.6965 16.294 91.292 16.4507 89.8875 16.6074C88.3269 16.764 86.9224 16.764 85.3618 16.764C85.2057 16.764 85.0497 16.764 84.8936 16.764C84.8936 13.6306 85.0497 10.3404 85.2057 7.20697C87.0784 7.36364 88.9511 7.52032 90.9799 7.67699C92.5404 7.83366 93.0086 5.64024 91.292 5.32689C88.7951 4.85687 86.2981 4.38685 83.8012 4.07351C82.8649 3.91683 81.4604 4.54353 81.4604 5.64024C81.6164 13.1605 81.4604 20.6809 80.9922 28.2012C80.9922 29.2979 82.5528 29.7679 83.4891 29.4546C85.83 28.6712 88.0148 29.2979 90.1996 29.7679C89.4193 30.5513 88.7951 31.648 88.639 32.9014C88.1708 35.2515 89.4193 39.4816 92.3844 39.325C93.0086 39.325 93.6328 38.8549 93.6328 38.2282C93.6328 37.4449 93.3207 37.1315 92.8526 36.6615C92.2283 35.8782 91.9162 34.9381 91.9162 33.9981C91.9162 32.2747 93.0086 30.8646 94.5692 30.2379C95.3495 30.0812 96.1298 29.9246 97.0661 29.4546C99.407 28.2012 97.2222 25.5377 95.0374 26.1644Z" fill="black"/>
<path d="M114.545 28.3578C114.389 24.441 114.389 20.5242 114.233 16.4507C118.758 16.764 123.284 16.764 127.81 16.6074C132.335 16.4507 137.797 17.234 141.855 14.8839C142.947 14.2573 142.791 13.0039 141.699 12.5339C137.641 10.6538 132.804 11.9072 128.434 12.0638C123.596 12.2205 118.914 12.3772 114.077 12.8472C114.077 10.1838 113.921 7.52031 113.921 4.85687C124.532 5.32689 135.3 4.70019 145.756 4.38685C148.409 4.38685 149.034 0.313347 146.068 0.156674C135.144 -0.313345 123.284 1.22935e-06 112.36 2.19342C112.204 2.19342 111.892 2.19342 111.736 2.3501C111.58 2.3501 111.58 2.3501 111.424 2.3501C110.175 2.66344 110.175 3.44681 110.799 4.0735C109.395 12.2205 109.395 20.3675 109.707 28.5145C109.863 31.3346 115.013 30.8646 114.545 28.3578Z" fill="black"/>
<path d="M74.1286 48.412C76.3135 47.7853 76.0013 45.1219 73.8165 44.8085C70.3833 44.3385 66.7939 44.8085 63.2046 44.9652C58.679 45.1219 54.3093 45.1219 49.7837 44.8085C47.5989 44.6518 47.1307 47.7853 49.4716 47.942C52.9048 48.2553 56.6502 48.7253 60.3956 49.0387C60.0835 52.1721 59.9274 55.4623 59.9274 58.5957C59.9274 61.5725 59.3032 64.5493 61.0198 67.0561C61.644 67.8394 63.2046 67.8394 63.6728 66.8994C65.2334 64.236 64.6091 61.1025 64.4531 58.1257C64.297 54.9923 64.141 52.0155 63.6728 49.0387C67.4182 49.5087 70.8514 49.352 74.1286 48.412Z" fill="black"/>
<path d="M73.9698 58.5958C73.9698 56.7157 73.8137 54.6789 73.8137 52.9555C77.5591 52.1722 78.6515 58.7524 74.2819 58.5958C74.1258 58.5958 73.9698 58.5958 73.9698 58.5958ZM78.0273 60.3192C79.9 58.5958 81.1484 56.2457 79.9 53.7389C78.4954 50.9188 75.3743 50.1354 72.7213 51.5455L72.5653 51.7021C71.785 51.7021 71.0047 52.0155 71.0047 52.7988C70.2244 60.4758 68.8199 69.2495 69.9123 76.9265C70.0683 78.3366 72.7213 78.6499 73.0334 77.0832C73.9698 72.6963 74.1258 67.6828 74.1258 62.8259C75.8425 64.236 77.5591 65.646 79.1197 67.0561C80.6802 68.6228 81.6166 69.7195 83.8014 70.0329C84.7377 70.1896 85.9862 69.7195 85.9862 68.6228C85.8301 65.4894 81.3045 62.3559 78.0273 60.3192Z" fill="black"/>
<path d="M94.1023 65.0194C93.0099 65.646 91.2932 62.9826 91.1372 62.3559C90.669 61.4159 90.513 60.3192 90.3569 59.2225C90.2008 57.029 90.9811 55.1489 91.1372 52.9555C92.0735 53.1122 93.1659 52.7989 93.478 51.8588C93.322 52.4855 93.9462 53.8956 94.1023 54.3656C94.4144 55.619 94.5704 56.8724 94.7265 57.9691C94.8826 59.3791 95.1947 64.0793 94.1023 65.0194ZM89.7327 50.2921C89.4205 50.2921 88.9524 50.4488 88.7963 50.7621C85.5191 54.3656 85.207 61.1025 88.016 65.3327C90.513 68.9362 96.131 70.8163 98.1598 65.8027C99.8764 61.5725 99.8764 53.4255 96.7552 49.6654C94.8826 47.472 90.2008 47.7853 89.7327 50.2921Z" fill="black"/>
<path d="M108.93 62.5126C108.462 62.9826 108.15 63.4526 107.994 64.0793C107.369 65.8027 106.901 65.9594 106.745 64.0793C106.277 63.1393 106.433 61.2592 106.277 60.1625C106.277 58.2824 105.965 50.9188 108.93 51.0754C110.959 51.2321 111.895 49.0387 109.71 48.412C100.815 46.0619 100.815 59.5358 101.907 64.8627C102.532 67.6828 104.248 70.1896 107.526 70.0329C110.803 69.7195 113.456 66.4294 112.831 63.1393C112.519 61.2592 109.866 61.1025 108.93 62.5126Z" fill="black"/>
<path d="M178.373 44.9652C175.564 52.6422 172.599 60.1625 171.039 67.9961C167.137 60.9459 163.236 53.8956 159.022 47.0019C158.086 45.5919 154.965 45.4352 154.965 47.6286C155.433 58.7524 156.525 69.5629 157.462 80.53C157.462 81.1567 158.866 81.1567 158.866 80.53C158.866 72.5397 159.022 64.5493 159.022 56.559C162.456 63.4526 166.045 70.1896 169.946 76.6132C171.195 78.6499 174.94 78.3366 175.096 75.6731C175.252 67.9961 176.969 60.6325 179.466 53.4255C180.558 62.0426 181.807 70.9729 184.304 79.1199C184.928 81.1567 188.829 80.53 188.673 78.3366C188.049 67.3694 184.772 55.9323 182.431 45.1219C181.963 43.0851 178.998 43.0851 178.373 44.9652Z" fill="black"/>
<path d="M208.648 54.0522C208.336 53.4255 207.555 52.7988 206.931 52.7988C201.469 52.3288 195.227 51.8588 190.077 54.0522C188.673 54.6789 189.453 55.9323 190.701 56.2456C190.701 56.2456 190.701 56.2456 190.545 56.4023C193.042 56.559 195.695 56.4023 198.192 56.2456C197.256 62.6692 197.568 69.0928 197.88 75.5164C196.631 75.5164 195.383 75.6731 193.978 75.6731C191.794 75.8298 191.169 78.8066 193.666 78.9632C197.88 79.2766 202.093 79.4332 206.151 79.2766C208.648 79.1199 209.272 75.5164 206.463 75.3597C205.059 75.3597 203.654 75.2031 202.25 75.2031C202.093 68.7795 202.093 62.1992 200.845 55.9323C203.342 56.089 206.463 57.3423 208.336 55.3056C208.648 54.9922 208.804 54.6789 208.648 54.3656C208.804 54.3656 208.804 54.2089 208.648 54.0522Z" fill="black"/>
<path d="M227.843 44.4952C225.814 40.8917 221.444 41.6751 217.699 41.5184C211.457 41.205 204.746 40.4217 198.504 41.3617C196.943 41.6751 197.411 43.2418 198.66 43.5551C203.498 44.8085 208.804 44.9652 213.641 45.4352C213.797 45.4352 213.953 45.4352 214.11 45.4352C214.11 45.4352 214.11 45.5919 214.11 45.7486C213.641 51.0754 213.641 56.2457 213.641 61.5725C213.641 66.1161 212.861 71.1296 214.266 75.5164C214.578 76.6132 216.763 76.4565 217.075 75.3598C218.479 70.9729 217.699 65.9594 217.699 61.2592C217.699 56.089 217.543 50.9188 217.075 45.7486C220.04 46.2186 223.161 46.6886 226.126 46.3752C226.906 46.5319 228.467 45.5919 227.843 44.4952Z" fill="black"/>
<path d="M122.195 46.8453C121.571 49.6654 121.415 52.7989 121.415 55.9323C120.01 55.7756 118.606 55.7756 117.201 55.7756C117.045 52.7989 116.733 49.8221 116.577 46.8453C116.577 46.0619 115.172 46.0619 115.016 46.8453C114.704 49.9787 114.392 52.9555 114.236 55.9323C113.3 56.089 112.363 56.4023 111.583 56.8724C110.803 57.1857 110.959 58.1257 111.583 58.4391C112.363 58.9091 113.3 59.0658 114.236 59.2224C114.236 62.8259 114.392 66.4294 115.016 70.0329C115.172 71.4429 117.669 71.4429 117.825 69.8762C117.981 66.2727 117.825 62.8259 117.669 59.3791C119.074 59.3791 120.478 59.5358 121.883 59.5358C122.195 62.3559 122.507 65.176 122.663 67.6828C122.819 69.5629 126.096 69.4062 126.096 67.5261C125.94 61.1025 126.408 52.7989 124.068 46.6886C123.599 46.2186 122.351 46.2186 122.195 46.8453Z" fill="black"/>
<path d="M141.544 66.2727C138.579 66.5861 135.614 67.0561 132.805 67.5261C132.805 65.176 132.649 62.8259 132.493 60.6325C132.961 60.7892 133.429 60.9459 133.897 61.1025C135.302 61.4159 137.174 61.5725 138.423 60.7892C139.359 60.1625 139.983 58.7524 138.735 57.9691C136.862 56.7157 134.521 57.499 132.337 57.3424C132.024 55.1489 131.712 53.1122 131.244 50.9188C132.181 51.0754 133.117 51.2321 134.209 51.2321C136.238 51.3888 138.267 52.0155 139.983 50.7621C140.452 50.4488 140.452 49.8221 140.139 49.352C138.735 47.942 136.862 48.2553 134.99 48.0987C132.649 47.942 130.776 47.942 128.435 48.7253C127.811 48.882 127.967 49.5087 128.435 49.8221C128.747 49.9787 129.059 50.1354 129.372 50.2921C129.215 52.7988 129.371 55.3056 129.528 57.8124C129.215 58.1257 129.215 58.5958 129.528 59.0658C129.684 62.3559 130.152 65.4894 130.62 68.7795C130.62 69.2495 131.088 69.5629 131.556 69.5629C133.897 70.0329 136.238 70.1896 138.579 70.1896C136.862 74.1064 137.643 79.7466 142.792 78.6499C145.289 78.1799 144.197 75.0464 142.012 75.2031C141.076 75.2031 142.012 72.2263 142.636 70.0329C144.821 69.5629 144.353 65.9594 141.544 66.2727Z" fill="black"/>
<path d="M25.438 60.3192C24.9698 60.3192 24.6577 60.3192 24.1895 60.3192C24.8137 57.9691 25.2819 55.619 25.9061 53.4255C26.3743 55.619 26.9985 57.9691 27.7788 60.1625C26.9985 60.1625 26.2183 60.1625 25.438 60.3192ZM32.7727 63.6093C33.3969 63.2959 33.709 62.6693 33.2408 62.0426C32.7727 61.5725 32.4606 61.2592 31.8363 60.9459C30.4318 56.8724 28.8712 52.7988 27.1546 49.0387C26.8425 48.412 25.594 48.2553 25.2819 49.0387C24.3456 52.7988 22.785 56.2457 21.8486 60.0058C21.8486 60.1625 21.6926 60.4758 21.6926 60.6325C19.5078 60.9459 17.323 61.4159 15.1382 62.0426C12.4852 62.6693 14.0458 65.646 16.5427 65.176C18.1033 64.8627 19.5078 64.5493 21.0684 64.236C20.6002 66.5861 20.2881 68.9362 19.976 71.2863C19.8199 72.0696 21.5365 72.0696 21.6926 71.4429C22.3168 68.9362 22.9411 66.4294 23.5653 63.9226C24.1895 63.9226 24.6577 63.766 25.2819 63.766C26.6864 63.766 27.9349 63.9226 29.3394 64.0793C30.5879 67.3695 31.9924 70.5029 33.3969 73.323C34.0211 74.4197 36.362 74.1064 35.8938 72.6963C34.8014 69.7196 33.709 66.7428 32.7727 63.6093Z" fill="black"/>
<path d="M193.822 32.2747C193.666 32.7447 193.978 33.2147 194.446 33.3714C196.787 34.1547 199.44 32.2747 201 30.5513C201.937 29.6112 202.717 28.5145 203.029 27.2611C203.497 25.8511 203.029 24.911 203.029 23.6576C203.029 23.501 202.873 23.3443 202.873 23.3443C202.717 23.1876 202.561 23.1876 202.405 23.1876C201.937 23.1876 201.781 23.501 201.781 23.6576C201.157 25.381 199.44 27.2611 198.035 28.5145C196.787 29.6112 194.29 30.5513 193.822 32.2747Z" fill="black"/>
<path d="M146.537 19.4275C146.537 19.2708 146.693 19.2708 146.693 19.1141C146.693 19.2708 146.693 19.2708 146.849 19.4275C146.693 19.4275 146.693 19.4275 146.537 19.4275ZM154.964 29.4545C154.184 27.4178 153.247 25.381 152.467 23.3443C152.779 23.3443 153.247 23.1876 153.559 23.1876C155.588 22.8743 156.525 20.0542 153.872 19.7408C152.935 19.5841 151.843 19.5841 150.907 19.4275C150.126 17.5474 149.346 15.6673 148.566 13.7872C148.254 12.8472 146.537 12.8472 146.069 13.6306C144.976 15.5106 143.884 17.3907 142.635 19.2708C137.33 19.4275 131.868 19.8975 126.874 20.5242C125.157 20.6808 124.377 23.1876 126.562 23.3443C130.931 23.6576 135.457 23.8143 140.139 23.971C138.11 28.0445 136.237 32.118 134.989 36.1915C134.52 37.6015 136.861 37.7582 137.486 36.9748C140.295 33.058 142.635 28.5145 144.664 23.971C145.757 23.971 147.005 23.8143 148.097 23.8143C148.878 26.1644 149.814 28.5145 150.75 30.7079C151.687 32.7447 155.9 31.8046 154.964 29.4545Z" fill="black"/>
<path d="M158.398 26.7911C158.398 28.2012 161.051 28.0445 161.051 26.6344C161.051 23.8143 161.363 20.9942 161.675 18.0174C161.832 18.0174 161.832 18.0174 161.832 17.8607C163.08 16.6074 164.172 15.354 165.109 13.9439C166.513 18.6441 169.478 23.6576 173.068 26.7911C174.628 28.2012 177.749 26.3211 176.501 24.2843C175.409 22.4043 173.692 20.6809 172.287 18.9574C170.727 16.9207 169.166 14.8839 167.294 13.0039C166.981 12.6905 166.513 12.5339 166.045 12.5339C166.357 12.0638 166.825 11.4371 167.137 10.9671C169.166 8.30368 170.259 5.48356 171.819 2.50677C172.287 1.72341 170.571 1.41006 170.103 2.03675C167.294 5.95358 164.172 9.87041 161.832 14.2573C162.144 10.3404 162.144 6.58027 161.519 2.82012C161.363 1.72341 159.335 1.41006 159.023 2.66344C156.994 10.4971 158.086 19.1141 158.398 26.7911Z" fill="black"/>
<path d="M194.291 11.9072C197.1 12.0638 197.725 8.61702 194.603 8.61702C190.39 8.46034 186.332 8.46034 182.119 8.61702C178.998 8.77369 175.564 8.30367 172.599 9.71373C171.351 10.3404 172.287 11.5938 173.38 11.5938C176.345 11.4371 179.31 11.4371 182.431 11.4371C181.495 16.294 181.495 21.4642 181.495 26.3211C181.495 28.5145 185.708 28.5145 185.864 26.4778C185.864 26.3211 185.864 26.3211 185.864 26.1644C185.864 26.0077 185.864 26.0077 185.864 25.8511C185.708 20.9942 185.708 15.9807 184.616 11.2805C187.893 11.4371 191.17 11.7505 194.291 11.9072Z" fill="black"/>
</g>
<defs>
<clipPath id="clip0_0_3496">
<rect width="228" height="81" fill="white"/>
</clipPath>
</defs>
</svg>
