<svg width="417" height="111" viewBox="0 0 417 111" fill="none" xmlns="http://www.w3.org/2000/svg">
<g clip-path="url(#clip0_0_3656)">
<path d="M29.824 41.4418C29.4246 42.2413 29.0252 43.0408 28.4926 43.7071C29.2915 41.9748 30.2235 40.2425 31.0223 38.5102C32.2206 40.3758 33.552 41.9748 35.0166 43.7071C33.6852 42.7743 32.3537 41.9748 31.0223 41.042C30.6229 40.7755 29.9572 41.042 29.824 41.4418ZM15.711 39.1765C15.5779 33.5799 15.9773 27.9832 16.5099 22.3866C16.9093 22.2533 17.575 22.1201 17.9744 21.8536C17.7081 23.9856 17.575 26.1177 17.4419 28.2497C16.7761 37.0444 16.9093 45.9724 17.7081 54.7671C17.8413 55.6999 18.2407 56.2329 18.9064 56.6327C18.507 57.1657 18.1076 57.5654 17.7081 58.0985C16.5099 51.8355 15.8442 45.4394 15.711 39.1765ZM41.9399 14.2581C41.2742 23.3193 40.8748 32.5138 40.3422 41.5751C37.4131 38.6435 34.8834 35.3121 32.8863 31.7143C31.8212 29.982 29.2915 30.6483 28.4926 32.1141C26.4955 36.2449 24.3652 40.2425 22.3681 44.3734C22.235 37.5774 22.3681 30.6483 23.0338 23.8524C23.167 21.9868 23.8327 19.7215 23.0338 17.856C21.9687 15.7239 19.7053 15.5907 17.7081 16.3902C11.983 18.922 6.39109 21.5871 0.932281 24.5186C-0.798562 25.4514 0.665997 27.9832 2.39684 27.4502C6.79052 26.1177 10.9179 24.3854 15.1784 22.6531C13.5807 34.7791 14.5127 47.5714 16.7761 59.431C16.9093 59.8307 17.575 60.2305 17.8413 59.8308C18.7733 58.7647 19.7053 57.6987 20.6373 56.6327C21.5693 56.4994 22.3681 56.0997 22.7675 55.1669C23.3001 54.2341 23.6995 53.1681 24.2321 52.2353C24.3652 51.9688 24.6315 51.7023 24.8978 51.4358C27.0281 48.6375 28.892 45.7059 31.0223 42.9076C35.1497 45.5726 39.2771 48.2377 43.4045 51.036C43.9371 51.3025 44.7359 50.9028 44.8691 50.3698C44.8691 49.8368 45.0022 49.1705 45.0022 48.6375C45.4016 48.2377 45.5348 47.7047 45.6679 47.1717C46.4668 36.1117 47.2656 25.0516 47.7982 13.9916C47.665 10.7935 42.2062 10.7935 41.9399 14.2581Z" fill="black"/>
<path d="M84.8117 13.9916C84.9449 13.9916 84.9449 13.9916 85.078 13.9916C84.9449 13.9916 84.9449 13.9916 84.8117 13.9916ZM81.2169 12.6591C81.35 12.9256 81.4832 13.3253 81.7494 13.5918C81.8826 13.8584 82.1489 14.1249 82.4152 14.3914C82.5483 14.5246 82.8146 14.6579 83.0809 14.9244C83.3472 15.0576 83.4803 15.1909 83.7466 15.3241C84.0129 15.4574 84.4123 15.5906 84.8117 15.5906C84.9449 15.5906 85.2111 15.5906 85.4774 15.5906C85.6106 15.5906 85.8768 15.4574 86.01 15.4574C86.1431 15.3241 86.2763 15.3241 86.5426 15.1909C86.6757 15.0576 86.942 14.9244 87.0751 14.6579C87.4745 14.1249 87.7408 13.4586 87.7408 12.7923C87.7408 12.5258 87.7408 12.3926 87.7408 11.9928V11.8596C87.7408 11.593 87.6077 11.3265 87.4745 11.1933V11.06C87.3414 10.9268 87.3414 10.6603 87.2083 10.527C87.0751 10.2605 86.8088 9.86075 86.5426 9.7275C86.2763 9.59425 86.01 9.32774 85.6106 9.19449C84.9449 8.92798 84.6786 8.92798 84.0129 8.92798C83.8797 8.92798 83.6134 8.92798 83.4803 9.06123C83.3471 9.06123 83.214 9.06123 83.214 9.06123C82.6814 9.06123 82.1489 9.32774 81.7494 9.7275C81.6163 9.86075 81.4832 9.994 81.4832 10.1273C81.35 10.3938 81.2169 10.7935 81.2169 11.1933C81.2169 11.593 81.35 11.8596 81.35 12.2593C81.0837 12.3926 81.2169 12.5258 81.2169 12.6591Z" fill="black"/>
<path d="M373.995 67.4262C373.995 67.4262 373.862 67.5594 373.862 67.6927C373.862 67.8259 373.729 67.8259 373.729 67.9592C373.862 67.8259 373.862 67.6927 373.995 67.4262ZM373.329 72.6231C373.462 72.8896 373.729 73.1561 374.128 73.2893C374.394 73.5558 374.661 73.6891 375.06 73.6891C375.726 73.8223 376.525 73.6891 377.057 73.2893C377.19 73.1561 377.456 73.0228 377.59 72.7563C377.856 72.3565 378.122 71.9568 378.255 71.557C378.388 71.1573 378.388 70.8908 378.522 70.491C378.522 70.3578 378.655 70.0912 378.655 69.958C378.655 69.8247 378.655 69.8247 378.655 69.6915V69.5582C378.788 69.0252 378.655 68.6255 378.655 68.0924C378.655 67.8259 378.522 67.6927 378.522 67.4262C378.388 67.2929 378.255 67.0264 378.255 66.8932C378.122 66.7599 377.989 66.6267 377.856 66.4934C377.59 66.3602 377.323 66.2269 377.057 66.0936C376.924 65.9604 376.658 65.9604 376.524 65.9604C376.258 65.9604 376.125 65.9604 375.859 66.0936C375.592 66.0936 375.459 66.2269 375.326 66.3601C375.06 66.4934 374.794 66.6267 374.66 66.8932C375.06 66.4934 374.927 66.4934 374.527 67.0264C374.527 67.1597 374.394 67.1597 374.394 67.2929C374.261 67.4262 374.261 67.5594 374.128 67.6927C373.995 67.9592 373.995 68.0924 373.862 68.3589C373.862 68.4922 373.862 68.6255 373.729 68.6255C373.729 68.892 373.595 69.0252 373.595 69.2917C373.462 69.6915 373.329 70.0912 373.196 70.491C373.063 70.8908 373.063 71.1573 373.196 71.557C372.93 71.9568 373.063 72.2233 373.329 72.6231Z" fill="black"/>
<path d="M360.813 70.6242C360.946 70.7575 361.213 71.024 361.346 71.1572C361.612 71.2905 361.745 71.4238 362.012 71.557C362.278 71.6903 362.677 71.8235 363.077 71.6903C363.343 71.6903 363.609 71.6903 363.742 71.557C363.876 71.557 364.009 71.557 364.142 71.4237C364.408 71.2905 364.541 71.2905 364.674 71.1572C364.807 71.024 365.074 70.8907 365.207 70.6242C365.34 70.491 365.473 70.2245 365.473 70.0912C365.606 69.8247 365.606 69.6915 365.606 69.425C365.606 69.1584 365.606 69.0252 365.606 68.7587C365.606 68.6254 365.606 68.4922 365.473 68.3589C365.473 68.2257 365.473 68.0924 365.34 67.9592C365.207 67.6927 365.207 67.5594 365.074 67.4262C364.941 67.2929 364.807 67.0264 364.541 66.8931C364.275 66.7599 364.142 66.6266 363.875 66.4934C363.476 66.3601 362.943 66.2269 362.544 66.3601C359.082 66.2269 360.014 69.1584 360.813 70.6242C360.813 70.6242 360.813 70.491 360.813 70.6242Z" fill="black"/>
<path d="M411.674 64.0948C409.543 70.2244 404.351 73.689 400.223 78.0864C398.226 80.2184 396.495 82.8835 395.963 85.8151C395.963 86.2148 395.83 86.6146 395.83 87.0144C395.83 86.6146 395.83 86.2148 395.83 85.8151C395.697 83.15 396.096 80.3517 397.694 78.0864C399.158 76.0876 401.155 74.6218 403.019 73.0228C404.883 71.4237 406.747 69.6914 408.212 67.6926C409.943 65.2941 411.807 62.3625 412.073 59.2977C412.339 61.03 412.206 62.629 411.674 64.0948ZM394.365 58.8979C394.232 59.1644 394.232 59.4309 394.099 59.5642C394.099 59.6974 393.833 59.9639 393.433 60.2305C393.833 58.0984 394.765 56.2329 396.229 54.6338C395.697 55.4333 395.164 56.2329 394.898 57.1656C394.631 57.8319 394.498 58.3649 394.365 58.8979ZM411.94 49.9699C408.212 46.9051 402.886 45.8391 398.359 47.8379C392.901 50.2365 389.705 55.8331 390.637 61.8295C390.77 62.8955 391.969 63.0288 392.634 62.629C392.901 62.629 393.167 62.629 393.433 62.629C395.697 62.096 395.963 58.8979 396.762 57.1656C397.96 54.5006 400.623 51.9687 403.685 51.9687C406.747 51.9687 409.676 54.5006 410.209 57.4321C410.875 60.8967 408.478 64.3613 406.481 67.0264C404.484 69.5582 402.087 71.4237 399.558 73.4225C397.561 75.1548 395.697 77.0204 394.631 79.5522C394.365 80.2184 394.099 81.018 394.099 81.8175C393.966 82.2172 393.966 82.617 393.966 82.8835C393.699 84.216 393.699 85.4153 393.699 86.7479C393.833 89.1464 394.232 91.8115 395.297 93.9435C395.83 94.8763 396.629 95.8091 397.694 95.9423C398.759 96.0756 399.691 95.6758 400.357 94.8763C401.022 94.8763 401.555 94.6098 402.087 94.0768C402.354 93.8103 402.62 93.2773 402.753 92.8775C402.753 92.7443 402.62 90.7455 402.487 90.8787C402.487 90.7455 402.221 90.3457 401.821 89.8127C401.821 89.1464 401.821 88.3469 401.688 87.6806C401.688 86.6146 401.555 85.4153 401.688 84.3493C401.688 84.216 401.821 84.0828 401.821 84.0828C403.286 81.551 405.549 79.6854 407.679 77.6866C411.674 73.8223 415.402 69.2917 416.6 63.695C417.798 58.6314 416.067 53.3013 411.94 49.9699Z" fill="black"/>
<path d="M406.749 103.005C406.483 102.605 406.084 102.339 405.684 102.205C405.152 101.539 404.619 101.139 403.953 100.74C403.155 100.34 402.089 100.206 401.158 100.34C400.625 100.206 400.226 100.206 399.693 100.34C398.228 100.606 397.03 101.806 396.364 103.271C395.699 105.137 395.965 107.136 397.163 108.735C397.163 108.868 397.296 108.868 397.296 109.001C397.43 109.401 397.696 109.667 398.095 109.801C398.228 109.801 398.228 109.934 398.362 109.934C398.628 110.201 399.027 110.334 399.294 110.6C401.956 111.8 405.152 110.6 406.483 108.068C406.749 107.669 406.883 107.269 406.883 106.736C407.016 106.469 407.149 106.203 407.149 105.936C407.149 105.803 407.149 105.803 407.149 105.67C407.149 105.27 407.149 104.87 407.149 104.471C407.282 103.938 407.149 103.405 406.749 103.005Z" fill="black"/>
<path d="M248.975 73.4226C248.841 73.2893 248.842 73.0228 248.708 72.8895C248.708 72.7563 248.708 72.4898 248.575 72.3565C248.575 72.2233 248.575 71.9568 248.575 71.8235C248.575 71.6903 248.575 71.6903 248.708 71.557C248.708 71.6903 248.708 71.8235 248.575 71.9568C248.575 72.2233 248.575 72.3565 248.575 72.623C248.708 73.0228 248.842 73.4226 249.108 73.8223C249.374 73.8223 248.975 73.2893 248.975 73.4226ZM248.841 74.2221C248.975 74.3553 249.108 74.6218 249.374 74.7551C249.64 75.0216 249.907 75.1549 250.306 75.2881C250.572 75.4214 250.972 75.4214 251.371 75.4214C251.637 75.4214 251.771 75.2881 252.037 75.2881C252.037 75.2881 252.303 75.1549 252.436 75.0216C252.569 75.0216 252.703 75.0216 252.836 75.0216C253.102 75.0216 253.235 74.8883 253.368 74.7551C253.635 74.6218 253.901 74.4886 254.034 74.2221C254.167 74.0888 254.3 73.8223 254.3 73.6891C254.3 73.5558 254.433 73.2893 254.433 73.1561C254.433 72.8895 254.433 72.7563 254.433 72.4898C254.433 72.2233 254.3 72.09 254.3 71.8235C254.167 71.6903 254.167 71.4238 254.034 71.2905C253.901 71.024 253.635 70.8907 253.368 70.7575C253.235 70.6242 252.969 70.491 252.836 70.491L252.703 70.3577C252.569 70.2245 252.436 70.2245 252.303 70.0912C252.17 70.0912 252.037 69.958 252.037 69.958C251.771 69.8247 251.504 69.6915 251.105 69.6915C250.705 69.6915 250.439 69.6915 250.173 69.8247C249.907 69.958 249.507 70.0912 249.374 70.3577C249.241 70.491 249.108 70.6242 248.975 70.8907C248.975 70.8907 248.975 71.024 248.841 71.024C248.575 71.2905 248.442 71.557 248.309 71.9568C248.176 72.2233 248.176 72.3565 248.176 72.623C248.176 73.0228 248.176 73.2893 248.309 73.6891C248.708 73.8223 248.841 73.9556 248.841 74.2221Z" fill="black"/>
<path d="M271.877 93.9435C270.013 96.0756 267.75 97.6746 265.486 99.1404C267.75 97.5414 269.88 95.4093 271.744 93.4105C272.01 93.144 272.143 93.0108 272.41 92.7443C273.075 92.078 273.874 91.2785 274.54 90.6122C273.741 91.6782 272.942 92.8775 271.877 93.9435ZM216.49 102.605C216.091 102.072 216.224 101.272 216.091 100.739C215.824 99.0072 215.691 97.1416 215.558 95.4093C215.159 91.9447 214.892 88.4802 214.626 85.0156C213.96 77.5534 213.561 70.0912 213.295 62.7623C213.161 58.7647 213.028 54.9003 213.028 50.9027C213.028 49.0372 213.028 47.0384 213.028 45.1728C213.028 44.2401 213.028 43.3073 213.028 42.3745C213.028 41.8415 213.827 40.1092 214.626 40.1092C214.626 40.2425 214.493 40.3757 214.493 40.509C214.227 50.7695 214.227 61.03 214.759 71.4237C215.025 76.4874 215.292 81.4177 215.691 86.4814C215.957 89.1464 216.091 91.6782 216.357 94.3433C216.49 95.5426 216.623 96.7419 216.889 98.0744C216.357 99.5402 216.091 101.272 217.023 102.472C217.023 102.605 217.023 102.872 217.023 103.138C216.889 103.005 216.756 102.872 216.49 102.605ZM240.722 102.872C240.855 102.872 240.988 102.738 241.254 102.738C241.387 102.738 241.387 102.738 241.521 102.605C240.988 102.872 240.589 103.005 240.056 103.005C240.322 103.005 240.589 103.005 240.722 102.872ZM280.398 79.2857C279.2 78.0864 277.203 78.6194 276.271 79.9519C271.877 87.0144 265.752 92.611 259.228 97.5414C257.631 96.6086 256.299 95.4093 255.234 94.0768C254.169 92.2112 253.637 89.9459 253.37 87.8139C253.104 86.3481 251.107 86.4814 250.707 87.6806C250.574 88.2137 250.308 88.6134 250.042 89.1464C249.642 89.2797 249.243 89.5462 248.977 89.8127C246.713 91.9447 244.317 93.9435 241.787 95.8091C240.988 96.4754 239.39 97.9411 238.458 97.9411C238.458 97.9411 238.325 97.8079 238.192 97.6746C238.059 97.5414 237.926 97.2749 237.793 97.0084C236.594 94.6098 238.059 91.545 238.192 89.1464C238.325 86.6146 237.793 84.0828 235.796 82.2173C232.6 79.2857 227.408 79.5522 223.946 81.8175C221.949 83.0168 220.751 84.7491 219.952 86.6146C219.952 85.9483 219.819 85.2821 219.819 84.6158C219.685 70.0912 219.552 55.6998 218.62 41.1752C218.62 40.509 218.088 40.1092 217.555 40.1092C217.422 39.3097 216.623 38.9099 215.824 38.9099C214.759 38.2437 213.161 38.3769 212.363 39.4429C211.564 40.3757 211.431 41.575 211.297 42.7743C211.164 44.7731 211.297 46.7719 211.297 48.7707C211.297 56.6326 211.564 64.4946 211.963 72.3565C212.363 79.9519 213.028 87.6806 213.827 95.2761C213.96 97.1416 214.227 99.1404 214.493 101.006C214.626 102.205 214.759 103.405 215.691 104.337C216.49 105.27 217.422 105.27 218.221 104.737C219.685 105.67 222.082 104.604 221.949 102.472C221.949 102.205 221.816 101.805 221.683 101.539C221.416 100.606 221.283 99.5402 221.15 98.4742C221.15 98.3409 221.283 98.3409 221.283 98.2076C221.416 97.2749 221.683 96.0756 221.949 94.8763C222.481 93.8103 223.014 92.7443 223.546 91.6782C224.079 90.6122 224.612 89.4129 225.144 88.2136C225.81 87.4141 226.609 86.6146 227.541 86.3481C229.138 85.6818 231.535 86.3481 231.801 88.2136C231.801 88.3469 231.801 88.3469 231.934 88.4802C231.934 88.6134 232.068 88.7467 232.068 88.8799C232.334 90.2124 232.334 91.6782 232.201 93.0108C232.068 95.2761 231.934 97.6746 232.6 99.9399C233.266 102.072 234.73 103.938 236.994 104.737C239.524 105.537 242.32 104.604 244.45 103.005C246.846 101.272 248.843 98.8739 250.841 96.6086C252.571 99.1404 254.968 101.272 257.897 102.605C258.696 103.005 259.362 102.872 260.027 102.738C260.56 102.738 260.959 102.738 261.492 102.738C262.557 102.605 263.489 102.072 264.155 101.406C267.217 100.073 270.013 98.2077 272.41 95.8091C273.874 94.3433 275.072 92.8775 276.271 91.1452C276.936 90.2125 277.469 89.4129 278.135 88.6134C278.268 88.3469 278.534 88.2137 278.667 88.0804C279.599 89.1464 280.398 90.2125 281.197 91.2785C281.596 91.8115 282.129 92.611 282.528 93.2773C282.528 93.677 282.528 94.0768 282.528 94.4766C282.395 96.3421 281.463 98.0744 280.132 99.0072C279.599 99.4069 278.667 99.6734 277.868 99.6734C276.803 99.6734 275.738 99.0072 274.54 99.1404C274.274 99.1404 274.14 99.1404 273.874 99.2737C273.475 99.0072 272.942 98.8739 272.543 98.8739C272.41 98.8739 272.276 98.8739 272.143 98.8739C271.078 99.0072 270.279 100.073 270.146 101.006C269.747 103.405 271.478 105.403 273.741 105.936C275.472 106.336 277.203 105.936 278.933 105.537C281.996 104.87 285.324 103.671 287.188 101.006C288.919 98.6074 288.786 96.0756 287.987 93.5438C287.721 88.2136 284.259 83.2833 280.398 79.2857Z" fill="black"/>
<path d="M126.617 31.9808C127.017 31.4478 127.416 31.048 127.815 30.6483C128.215 31.048 128.747 31.3145 129.147 31.7143H129.014C128.082 31.4478 127.283 31.7143 126.617 31.9808ZM107.578 33.8463C107.711 33.8463 107.844 33.7131 108.11 33.5798C108.51 33.8464 108.909 33.9796 109.442 34.1129C109.708 34.1129 109.974 34.1129 110.108 34.2461H110.241C110.241 34.2461 110.241 34.2461 110.374 34.2461C110.64 34.3794 110.906 34.3794 111.173 34.5126C111.306 34.5126 111.306 34.6459 111.439 34.6459C111.572 34.7791 111.838 34.9124 111.972 35.0456C112.238 35.3121 112.504 35.4454 112.77 35.8451C113.836 37.1777 114.501 38.7767 114.901 40.3758C114.901 40.3758 115.034 41.042 115.034 41.1753C115.167 41.7083 115.167 42.1081 115.3 42.6411C115.433 43.5738 115.566 44.6399 115.433 45.4394C115.433 47.0384 115.034 48.6375 114.102 49.8367C113.569 50.503 113.569 50.6363 112.904 51.036L112.637 51.1693C112.504 51.1693 112.238 51.3025 112.105 51.4358C111.972 51.4358 111.972 51.4358 111.838 51.569C111.838 51.569 111.439 51.569 111.439 51.7023C110.773 51.8355 110.108 51.7023 109.442 51.569C109.176 51.569 109.042 51.4358 108.776 51.4358C108.776 51.4358 108.643 51.4358 108.51 51.3025C108.11 51.1693 107.711 51.036 107.445 50.9028C106.246 50.3698 105.315 49.5702 104.516 48.371C104.516 48.2377 104.383 48.2377 104.383 48.1044C104.383 47.9712 104.249 47.8379 104.249 47.8379C104.116 47.3049 103.85 46.9052 103.717 46.3722C103.584 45.7059 103.451 44.6399 103.451 43.8403C103.451 41.7083 104.249 39.7095 105.181 37.8439C105.714 36.9112 106.247 35.9784 106.912 35.1789C107.045 34.3794 107.312 34.1129 107.578 33.8463ZM130.079 53.1681C130.212 53.1681 130.345 53.0348 130.611 52.9016C130.345 52.9016 130.212 53.0348 130.079 53.1681ZM64.3068 37.1777C63.3749 38.5102 62.576 40.1093 61.7772 41.575C62.0434 40.7755 62.3097 39.976 62.576 39.1765C63.1086 37.7107 63.7743 36.1117 64.5731 34.7791C65.1057 33.9796 66.4371 31.7143 67.6354 32.1141C68.5674 32.3806 68.5674 34.1129 68.7005 34.7791C68.7005 35.0456 68.7005 35.4454 68.7005 35.7119C68.4342 35.4454 68.168 35.3121 67.9017 35.1789C66.304 34.9124 65.1057 36.1117 64.3068 37.1777ZM139.665 54.3674C140.065 54.1008 140.331 53.9676 140.73 53.7011C142.594 52.3686 143.659 50.503 144.059 48.5042C144.591 46.3722 144.325 44.1069 143.393 42.1081C143.127 41.575 142.86 41.1753 142.594 40.6423C141.529 38.91 140.198 37.5774 138.6 36.3782C138.067 35.9784 137.668 35.5786 137.135 35.1789C134.206 32.9136 131.144 30.7815 128.215 28.6495C127.682 28.2497 127.017 28.383 126.75 28.916C124.753 31.9808 122.357 34.6459 119.827 37.3109C119.161 37.9772 119.96 38.7767 120.626 38.6435C120.36 39.0432 120.093 39.443 119.96 39.7095C119.428 37.4442 118.629 35.3121 117.43 33.4466C115.833 30.9148 113.037 28.6495 109.974 28.7827C109.176 28.7827 108.51 29.0492 107.977 29.449C106.246 29.449 104.383 30.2485 103.184 31.581C102.785 31.9808 102.385 32.5138 101.986 33.0468C98.7906 35.7119 96.9266 39.7095 96.9266 43.9736C96.9266 44.7731 97.0597 45.4394 97.1929 46.1056C97.1929 46.2389 97.1929 46.3722 97.1929 46.3722C97.4591 48.2377 95.5952 49.437 93.9975 48.7707C92.2666 48.1044 91.2015 46.2389 90.6689 44.5066C89.8701 42.2413 89.7369 39.8427 89.3375 37.4442C88.9381 35.3121 88.2724 33.3133 87.2072 31.4478C86.2752 29.8488 83.8787 29.7155 83.0798 31.581C81.7484 34.9124 80.417 38.2437 79.0856 41.575C78.4199 43.3073 77.7542 45.0396 76.9553 46.7719C76.689 47.4382 76.1565 49.1705 75.3576 49.3037C73.6268 49.5702 73.4936 44.7731 73.4936 43.8403C73.2273 40.7755 73.0942 37.5774 72.8279 34.5126C72.5616 32.2473 71.8959 29.982 69.7657 28.7827C67.3691 27.4502 64.8394 28.7827 63.1086 30.515C61.644 32.1141 60.712 34.2461 59.9132 36.2449C59.1143 32.6471 57.916 29.1825 56.3183 25.9844C55.7858 24.9184 54.5875 24.6519 53.5224 25.3181C53.2561 25.5846 52.8567 25.8512 52.5904 26.1177C52.1909 26.2509 51.7915 26.3842 51.3921 26.7839C49.395 28.6495 49.9275 32.7803 50.327 35.1789C50.4601 35.9784 51.7915 35.8451 51.7915 35.0456C51.7915 34.5126 51.6584 33.8463 51.6584 33.3133C52.3241 33.4466 53.2561 32.9136 53.2561 31.9808C53.2561 31.1813 53.5224 30.3818 53.9218 29.7155C56.1852 35.8451 57.1172 42.1081 56.8509 48.7707C56.8509 49.7035 57.2503 50.2365 57.916 50.503C58.1823 51.036 59.1143 51.3025 59.3806 50.6363C60.0463 50.3698 60.4457 49.8367 60.5789 49.0372C60.5789 48.7707 60.5789 48.371 60.712 48.1044C61.3777 46.7719 61.9103 45.4394 62.576 44.1069C63.6411 42.1081 64.5731 39.5762 66.0377 37.8439C67.236 36.3782 68.168 37.9772 68.8337 39.7095C68.9668 42.6411 68.8337 45.7059 69.6325 48.5042C70.1651 50.7695 71.3634 52.9016 73.7599 53.7011C76.0233 54.5006 78.4199 53.1681 79.7513 51.3025C81.4821 48.904 82.4141 45.7059 83.4793 43.0408C84.0118 41.8415 84.4112 40.6423 84.9438 39.3097C85.2101 40.9088 85.3432 42.5078 85.6095 43.9736C86.2752 47.3049 87.7398 50.6363 90.6689 52.6351C93.3317 54.5006 96.7934 54.7671 99.4563 52.9016C99.5894 52.7683 99.8557 52.6351 99.9888 52.5018C101.187 54.2341 102.918 56.0996 104.649 56.3662C105.048 56.3662 105.315 56.2329 105.448 56.0996C107.445 56.8992 109.708 57.0324 111.838 56.3662C113.17 56.2329 114.368 55.8331 115.566 55.1669C118.629 53.4346 120.093 50.1032 120.493 46.7719C120.626 46.6387 120.759 46.5054 120.892 46.2389C121.292 45.3061 122.224 44.2401 122.756 43.4406C123.289 42.5078 123.954 41.575 124.62 40.6423C125.286 39.8427 125.818 39.0432 126.484 38.2437C126.75 37.8439 127.15 37.4442 127.549 37.0444C127.815 36.7779 128.215 36.2449 128.481 36.1117C129.014 35.9784 130.212 36.7779 130.745 37.0444C131.677 37.4442 132.609 37.8439 133.541 38.377C135.138 39.1765 136.736 40.2425 138.067 41.7083C139.931 43.9736 141.13 47.7047 138.6 49.97C137.402 51.036 135.804 51.569 134.339 51.7023C133.541 51.8355 132.742 51.8355 131.943 51.8355C131.943 51.8355 131.677 51.8355 131.543 51.8355C131.677 51.3025 131.543 50.9028 131.41 50.3698C130.345 48.2377 127.416 49.0372 126.484 50.7695C125.286 52.9016 126.351 55.5666 128.481 56.4994C130.611 57.2989 133.008 56.8992 135.138 56.3662C136.07 56.0996 137.002 55.9664 137.934 55.5666C138.334 55.1669 138.999 54.9004 139.665 54.3674Z" fill="black"/>
<path d="M185.868 50.7695C185.202 49.3037 184.936 47.7047 184.802 46.1056C184.936 46.3721 184.936 46.6386 185.069 46.9051C185.868 49.3037 186.933 52.635 189.729 53.3013C189.462 53.4346 189.063 53.4346 188.797 53.4346C187.332 53.3013 186.4 51.9688 185.868 50.7695ZM194.256 49.437C194.256 49.3037 194.256 49.3037 194.256 49.437C194.122 49.1704 194.122 49.0372 194.122 49.0372C194.256 49.0372 194.256 49.1704 194.256 49.437ZM155.911 27.7167C156.976 21.7203 157.908 15.5906 158.574 9.59422C158.44 12.3925 157.908 15.1909 157.508 17.9892C157.242 21.1873 156.576 24.3853 155.911 27.7167ZM160.438 33.8463C160.97 33.1801 161.503 32.647 162.035 31.9808C162.035 33.5798 161.503 35.3121 160.704 36.6446C159.506 38.7767 157.642 40.6422 155.511 41.575C156.843 38.9099 158.574 36.3781 160.438 33.8463ZM156.843 2.39854C157.375 2.93155 157.775 3.59782 158.174 4.26409C157.508 3.99758 156.576 4.26409 156.443 5.06361C156.443 5.19686 156.443 5.33011 156.31 5.46337C156.443 4.39734 156.576 3.33131 156.843 2.39854ZM194.921 47.1717C193.989 46.9051 192.924 47.5714 192.525 48.3709C192.392 48.7707 192.258 49.3037 192.258 49.7035C191.726 50.1032 191.326 50.6362 191.326 51.3025C188.664 52.2353 187.332 47.8379 186.666 45.9724C186.134 44.3733 185.601 42.7743 185.335 41.042C184.936 39.443 184.802 37.5774 184.27 35.9784C184.137 35.7119 183.87 35.5786 183.604 35.7119C182.672 34.7791 181.208 34.6458 180.142 35.8451C175.882 40.7755 171.755 45.7059 167.627 50.6362C167.494 50.9027 166.828 51.9688 166.429 51.9688C166.163 51.9688 165.497 51.3025 165.231 51.1693C164.032 50.2365 162.834 49.437 161.503 48.5042C160.171 47.5714 158.973 46.6386 157.642 45.7059C160.704 44.1068 163.233 41.4418 164.831 38.2437C165.896 35.9784 166.562 33.3133 166.296 30.7815C166.029 28.3829 164.432 25.9844 161.769 26.6506C159.506 27.1837 158.041 29.7155 156.843 31.581C158.041 25.8511 159.106 20.2545 159.772 14.3913C160.438 9.72747 161.769 2.39854 156.576 -0.266526C156.044 -0.533033 155.511 -0.266526 155.378 0.39974C151.916 18.3889 148.721 36.6446 147.123 54.9003C146.99 55.4334 146.99 55.8331 146.857 56.3661C146.458 58.7647 150.319 58.8979 150.718 56.4994C151.118 53.7011 151.783 50.9027 152.715 48.2377C155.112 50.1032 157.508 51.9688 160.038 53.7011C162.834 55.8331 166.163 58.6314 169.624 56.2329C171.089 55.3001 172.021 53.7011 173.086 52.3685C174.284 50.9027 175.483 49.437 176.681 47.9712C177.746 46.6386 178.811 45.3061 179.876 43.9736C179.876 45.7059 179.876 47.4382 180.142 49.1705C180.675 52.102 182.006 55.0336 184.403 56.8991C188.93 60.2305 196.519 57.4322 195.986 51.569C196.519 50.1032 196.519 47.7047 194.921 47.1717Z" fill="black"/>
<path d="M183.204 20.7875C183.071 20.7875 183.071 20.7875 182.938 20.6542H182.805C182.671 20.521 182.538 20.521 182.405 20.3877C182.405 20.2545 182.272 20.2545 182.272 20.1212C182.272 20.1212 182.272 19.988 182.139 19.988V19.8547C182.139 19.7215 182.139 19.7215 182.006 19.5882C182.006 19.455 182.006 19.3217 182.006 19.1885V19.0552C182.006 19.0552 182.006 19.0552 182.006 19.1885C182.139 19.455 182.272 19.5882 182.272 19.8547C182.272 19.988 182.405 20.1212 182.538 20.1212C182.671 20.3877 182.938 20.6543 183.204 20.7875C183.47 20.9208 183.603 21.054 183.87 21.1873C183.737 21.1873 183.737 21.1873 183.603 21.1873C183.603 21.1873 183.603 21.1873 183.47 21.1873C183.337 20.7875 183.337 20.7875 183.204 20.7875ZM182.272 22.2533C183.737 22.9196 185.734 22.653 187.065 21.7203C188.53 20.521 189.062 18.5222 188.397 16.7899C187.864 15.0576 186.133 14.2581 184.402 14.5246C184.003 14.5246 183.603 14.6579 183.337 14.9244C183.071 15.0576 182.805 15.1909 182.671 15.4574C182.538 15.4574 182.405 15.4574 182.272 15.5906C181.873 15.7239 181.473 15.9904 181.207 16.3901C180.674 16.9232 180.408 17.7227 180.275 18.3889C180.142 19.0552 180.275 19.988 180.541 20.6542C180.807 21.3205 181.473 21.9868 182.272 22.2533Z" fill="black"/>
<path d="M367.472 102.738C367.472 102.738 367.605 102.738 367.605 102.605C367.605 102.605 367.605 102.605 367.472 102.738ZM368.404 102.072C368.404 102.072 368.537 102.072 368.404 102.072C368.537 102.072 368.537 102.072 368.404 102.072C368.404 102.072 368.537 102.072 368.404 102.072ZM364.409 103.671C363.211 103.804 362.146 103.405 361.347 102.472C360.948 101.939 360.548 101.273 360.282 100.606C361.081 101.939 362.412 103.005 364.143 103.271C365.075 103.405 366.007 103.405 366.939 103.005C366.14 103.271 365.208 103.538 364.409 103.671ZM358.95 91.2785C358.817 90.479 358.817 89.5462 358.684 88.7467C358.817 88.7467 358.817 88.7467 358.95 88.6135C358.95 89.5462 358.95 90.3458 358.95 91.2785ZM368.27 97.0084C368.404 97.1417 368.537 97.2749 368.67 97.4082C368.537 97.2749 368.27 97.2749 368.137 97.2749C368.137 97.1417 368.137 97.1417 368.27 97.0084ZM324.999 96.0756C323.002 97.1417 320.339 97.4082 318.209 96.4754C316.611 95.6759 315.679 94.4766 315.014 93.1441C315.28 90.3458 316.212 87.5474 318.342 85.6819C319.541 84.6159 321.138 83.8163 322.869 83.9496C323.668 83.9496 324.467 84.2161 325.132 84.4826C325.665 84.7491 326.064 85.0156 326.464 85.4154C329.127 88.4802 328.86 93.9436 324.999 96.0756ZM311.818 88.7467C312.75 89.0132 313.815 88.7467 314.481 87.9472C314.481 87.8139 314.614 87.8139 314.614 87.6807C314.082 88.7467 313.815 89.8127 313.549 91.012C313.283 90.6123 313.017 90.2125 312.75 89.8127C312.617 89.413 312.351 89.0132 311.818 88.7467ZM298.105 104.337C297.705 104.604 297.439 105.004 297.04 105.27C296.374 105.936 296.241 105.67 295.974 104.737C295.176 102.738 295.176 100.206 295.042 98.0744C294.776 96.0756 294.643 94.0768 294.51 92.078C294.244 88.4802 293.977 84.8824 293.711 81.2845C293.844 81.2845 294.11 81.2845 294.244 81.2845C294.377 83.0168 294.377 84.7491 294.51 86.4814C294.643 89.946 294.776 93.4106 295.042 96.7419C295.309 99.5402 296.241 101.939 298.77 103.271C298.904 103.405 299.037 103.405 299.17 103.405C298.77 103.804 298.371 104.071 298.105 104.337ZM295.442 62.2293C295.575 62.2293 295.708 62.3626 295.841 62.6291C295.309 62.6291 294.909 62.7623 294.51 63.0288C294.643 62.4958 294.909 62.0961 295.442 62.2293ZM298.904 76.6207C298.77 76.6207 298.637 76.6207 298.504 76.6207C298.238 73.4226 298.105 70.2245 297.705 67.1597C297.972 68.2257 298.105 69.2917 298.238 70.3578C298.504 72.3566 298.77 74.4886 298.904 76.6207ZM299.702 97.5414C299.303 95.9424 299.436 93.6771 299.436 92.6111C299.303 89.413 299.17 86.2149 298.904 83.0168C298.904 82.4838 298.77 81.8175 298.77 81.2845C298.904 81.2845 298.904 81.2845 299.037 81.2845C299.303 86.7479 299.303 92.2113 299.702 97.5414ZM332.189 83.5498C331.923 83.8163 331.79 84.0828 331.523 84.3494C331.39 84.2161 331.257 83.9496 331.124 83.8163C331.656 83.6831 331.923 83.6831 332.189 83.5498ZM332.322 85.8151C332.455 85.6819 332.455 85.6819 332.588 85.5486C332.455 85.6819 332.455 85.6819 332.322 85.8151ZM342.041 101.006C341.908 100.606 341.908 100.206 341.775 99.8067C342.042 99.8067 342.175 99.94 342.441 99.8067C342.441 99.94 342.441 100.073 342.308 100.206C342.175 100.473 342.175 100.74 342.041 101.006ZM369.202 95.4094C369.202 95.2761 369.336 95.1429 369.336 95.0096C369.469 94.4766 368.803 94.0768 368.537 94.4766C368.537 94.6099 368.404 94.6099 368.27 94.7431C368.137 94.8764 368.004 94.8764 367.871 95.0096C367.738 95.1429 367.605 95.2761 367.472 95.4094C367.205 95.6759 367.072 95.8091 366.806 96.0756C366.406 96.4754 365.874 96.8752 365.474 97.1417C365.341 97.2749 365.075 97.4082 364.809 97.5414C364.676 97.6747 364.409 97.8079 364.276 97.8079C364.276 97.8079 364.143 97.4082 364.01 97.4082C363.877 97.2749 363.877 97.1417 363.877 97.0084C363.61 96.2089 363.61 95.2761 363.61 94.4766C363.477 92.3446 363.477 90.0792 363.477 87.9472C363.477 87.4142 363.477 87.0144 363.344 86.4814C363.344 85.5486 363.344 84.4826 363.078 83.5498C363.211 82.6171 362.945 81.8175 362.412 80.8848C361.48 79.5522 359.483 80.0852 358.95 81.4178C358.285 82.8836 358.551 83.6831 356.953 84.2161C356.155 84.4826 355.223 84.3494 354.291 83.9496C351.361 82.6171 349.231 78.2197 345.503 79.6855C342.973 80.7515 342.041 83.8163 341.509 86.3482C341.243 85.0156 340.976 83.8163 340.71 82.4838C340.444 81.551 339.645 81.1513 338.846 81.1513C338.58 81.018 338.314 80.8848 337.914 80.7515C337.648 80.6183 337.515 80.6183 337.248 80.6183C337.115 80.485 336.982 80.485 336.716 80.485C337.248 80.485 336.583 80.485 336.45 80.485C336.316 80.485 336.05 80.6183 335.917 80.6183C335.651 80.7515 335.384 80.7515 334.985 80.8848C334.319 81.018 333.787 81.1513 333.121 81.2845C332.056 81.551 331.124 81.8175 330.192 82.084C328.727 80.3518 326.863 78.886 324.467 78.353C318.875 76.8872 311.419 79.952 310.087 85.9484C309.954 86.8812 310.221 87.5474 310.753 88.0804C310.221 87.9472 309.555 87.8139 309.022 88.0804C307.425 88.4802 306.226 90.0792 305.161 91.2785C303.83 92.7443 302.498 94.0768 301.3 95.5426C301.167 90.7455 300.768 85.9484 300.634 81.1513C300.901 81.1513 301.3 81.1513 301.566 81.1513C303.564 81.018 306.226 81.018 307.158 78.886C307.291 78.4862 307.425 77.6867 307.025 77.2869C305.428 75.4214 303.164 76.0876 301.034 76.3542C300.901 76.3542 300.634 76.3542 300.501 76.3542C300.368 72.6231 300.235 68.7587 299.037 65.1609C298.504 63.6951 297.572 61.2965 296.108 60.497C294.51 59.5642 293.445 61.03 292.912 62.4958C292.113 64.7611 292.513 67.2929 292.779 69.5582C293.045 71.9568 292.912 74.4886 292.646 76.8872C290.249 76.8872 287.853 76.8872 285.323 76.4874C283.193 76.2209 282.793 79.2857 284.924 79.6855C287.453 80.2185 289.983 80.6183 292.513 81.018C292.646 85.5486 292.912 90.0792 293.312 94.6099C293.445 96.8752 293.711 99.1405 293.977 101.273C294.11 103.005 294.244 105.537 295.575 106.869C296.906 108.202 298.238 106.603 299.17 105.803C300.901 104.337 302.498 102.872 304.096 101.273C305.694 99.6735 307.291 97.9412 308.756 96.3422C309.289 95.6759 309.821 95.1429 310.354 94.4766C310.753 95.4094 311.419 96.3421 311.818 96.8752C315.147 101.539 320.872 103.005 326.198 101.006C330.991 99.1405 333.787 94.3433 333.387 89.2797C333.387 88.88 333.254 88.4802 333.254 88.0804C333.787 87.2809 334.452 86.6147 335.118 86.0816C335.651 85.6819 336.183 85.1489 336.716 84.8824C336.849 84.7491 336.982 84.7491 337.115 84.6159C338.314 90.6123 339.911 96.6087 341.243 102.605C341.376 103.138 341.775 103.538 342.308 103.271C343.772 102.738 344.172 101.406 344.438 100.073C344.837 98.0744 345.37 95.9424 345.769 93.9436C346.169 91.9448 346.701 89.946 347.101 88.0804C347.367 87.1477 347.5 86.0816 347.767 85.1489C347.9 84.7491 347.9 84.4826 348.033 84.0828C348.565 84.4826 349.231 85.2821 349.497 85.5486C351.761 87.6807 354.557 89.413 357.752 89.0132C357.885 91.2785 358.018 93.4106 358.152 95.6759C358.418 98.0744 358.684 100.606 360.016 102.738C361.347 104.87 363.477 105.803 365.874 105.27C368.27 104.737 370.8 103.671 371.466 101.139C371.599 99.2737 371.066 96.3421 369.202 95.4094Z" fill="black"/>
<path d="M377.322 101.672C377.588 101.672 377.854 101.672 378.121 101.672C377.854 101.672 377.588 101.672 377.322 101.672ZM379.186 95.8091C379.452 95.6759 380.251 95.2761 380.517 95.5426C380.65 95.6759 380.784 96.0756 380.65 96.4754C380.251 96.0756 379.585 95.9424 379.053 96.0756C378.786 96.0756 378.653 96.2089 378.52 96.2089C378.786 96.0756 379.053 95.9424 379.186 95.8091ZM378.786 93.9436C378.121 94.2101 377.588 94.7431 377.056 95.4094C376.922 94.8764 376.789 94.2101 376.523 93.6771C375.591 90.2125 374.792 86.6147 374.26 83.0168C374.126 82.2173 373.594 81.8175 372.928 81.6843C372.795 81.2845 372.262 81.2845 372.129 81.6843V81.8175C371.597 82.084 371.197 82.4838 371.197 83.2833C371.197 86.0816 371.064 88.88 371.33 91.6783C371.597 93.6771 371.73 95.6759 372.396 97.5414C372.662 98.874 373.061 100.34 373.86 101.539C375.458 103.671 378.254 104.204 380.251 102.339C381.316 101.406 381.716 100.073 381.982 98.6074C382.248 97.4082 382.648 95.6759 381.849 94.6099C381.316 93.5438 379.852 93.5438 378.786 93.9436Z" fill="black"/>
<path d="M153.644 93.2773C152.978 94.2101 152.179 95.2761 151.647 96.2089C151.38 96.0756 150.981 95.9424 150.715 95.8091C151.647 95.0096 152.712 94.0768 153.644 93.2773ZM148.851 83.4166C148.984 83.4166 148.984 83.4166 148.851 83.4166V83.4166ZM163.763 80.2185C163.763 80.2185 163.763 80.0852 163.763 80.2185C163.763 80.0852 163.763 80.0852 163.763 80.2185C163.763 80.2185 163.763 80.0852 163.763 80.2185ZM164.295 95.8091C164.428 95.8091 164.561 95.8091 164.695 95.8091C164.295 96.0756 163.896 96.4754 163.629 96.7419C163.363 96.8751 163.23 97.0084 162.964 97.1417C162.831 97.1417 162.831 97.0084 162.697 97.0084C161.1 96.6086 159.502 97.6747 157.904 97.6747C157.505 97.6747 156.972 97.6747 156.573 97.5414C157.771 97.2749 158.969 96.8752 160.301 96.6086C160.7 96.4754 161.1 96.3421 161.499 96.3421C162.298 96.2089 163.23 96.0756 164.295 95.8091ZM165.627 98.7407C165.36 98.8739 164.961 99.0072 164.561 99.0072C164.695 98.874 164.961 98.7407 165.094 98.7407C165.627 98.4742 166.026 98.0744 166.425 97.6747C166.292 98.2077 166.026 98.6074 165.627 98.7407ZM166.958 94.0768C166.559 93.9436 166.159 93.8103 165.627 93.8103C164.561 93.5438 163.363 93.9436 162.165 94.2101C160.7 94.4766 159.236 94.7431 157.771 95.0096C156.839 95.1429 155.774 95.2761 154.842 95.5426C154.709 95.5426 154.443 95.6759 154.309 95.6759C155.774 93.5438 157.372 91.4118 158.969 89.413C161.366 86.3481 163.629 83.2833 166.026 80.2185C166.425 79.8187 166.292 79.0192 165.627 78.7527C160.567 76.7539 155.241 77.1537 149.916 78.0864C147.786 78.4862 145.123 78.886 143.924 80.7515C142.992 82.2173 142.992 84.3493 144.59 85.2821C144.723 85.4154 144.856 85.4154 144.99 85.2821C145.256 85.4154 145.389 85.4154 145.655 85.4154C146.854 85.5486 147.519 84.4826 147.386 83.5498C147.519 83.5498 147.786 83.5498 147.786 83.4166C148.052 83.4166 148.318 83.2833 148.584 83.2833C148.718 83.2833 148.851 83.2833 148.984 83.2833C150.448 83.1501 151.913 83.1501 153.377 83.1501C154.443 83.1501 155.641 83.1501 156.839 83.1501C153.111 87.1477 149.117 90.7455 144.856 94.0768C143.791 93.9436 142.593 93.9436 141.528 94.4766C139.131 95.4094 137.667 98.0744 138.732 100.606C139.398 102.205 140.995 102.339 142.327 101.672C143.658 100.873 144.856 100.073 146.188 99.1405C148.052 99.6735 149.783 100.606 151.514 101.273C152.712 101.672 153.91 102.072 155.108 102.339C158.171 103.138 161.366 103.138 164.295 102.072C166.559 101.273 168.955 99.5402 168.689 96.8751C168.822 95.6759 168.156 94.6098 166.958 94.0768Z" fill="black"/>
</g>
<defs>
<clipPath id="clip0_0_3656">
<rect width="417" height="111" fill="white"/>
</clipPath>
</defs>
</svg>
