<svg width="325" height="51" viewBox="0 0 325 51" fill="none" xmlns="http://www.w3.org/2000/svg">
<path d="M317.15 44.15C316.783 44.15 316.517 44.0833 316.35 43.95C315.95 43.7167 315.6 43.4167 315.3 43.05C315 42.65 314.85 42.1 314.85 41.4C314.883 40.9 315 40.4667 315.2 40.1C315.4 39.7 315.683 39.4167 316.05 39.25C316.75 38.8833 317.65 38.7 318.75 38.7C319.55 38.7 320.2 39 320.7 39.6C321.2 40.1667 321.45 40.8667 321.45 41.7C321.45 42.7 321.15 43.85 320.55 45.15C319.983 46.4833 319.417 47.5167 318.85 48.25C318.417 48.75 317.917 49.1833 317.35 49.55C316.817 49.9167 316.35 50.1 315.95 50.1C315.15 50.1 314.633 49.9667 314.4 49.7C314.2 49.4667 314.1 49.0333 314.1 48.4C314.1 48.1333 314.45 47.7167 315.15 47.15C315.717 46.65 316.067 46.3 316.2 46.1C316.7 45.4333 317.067 44.7833 317.3 44.15H317.15Z" fill="black"/>
<g clip-path="url(#clip0_0_1)">
<path d="M17.347 11.7866C14.2494 8.56078 9.16933 11.6625 6.81515 14.268C3.84146 17.4938 2.47851 21.7121 1.61119 25.9305C0.743859 30.0248 -1.1147 35.3598 1.11557 39.33C2.85023 42.3077 7.93029 43.5484 9.66494 39.9504C10.2845 38.4615 8.67371 37.7171 7.55857 38.4615C3.46975 40.9429 3.22194 34.7394 3.71755 32.2581C4.21317 29.6526 4.70878 26.9231 5.57611 24.3176C6.44344 21.8362 7.43467 19.4789 9.04542 17.3697C9.78885 16.5012 10.6562 15.5087 11.6474 14.8883C13.0103 14.0198 14.1255 14.1439 15.7362 14.1439C16.6036 14.0198 18.4621 12.9032 17.347 11.7866Z" fill="black"/>
<path d="M24.6588 38.4616C23.2958 38.5856 21.9329 38.8338 20.5699 38.8338C19.7026 38.8338 18.7114 38.8338 17.8441 38.8338C17.5963 38.8338 17.2245 38.7097 16.8528 38.7097C16.9767 38.3375 16.9767 37.8412 16.9767 37.5931C17.1006 36.9727 17.3484 36.2283 17.4724 35.608C17.8441 34.1191 18.3397 32.6303 18.7114 31.1415C20.6939 24.6899 23.7915 18.6105 26.6412 12.531C26.8891 12.1588 26.5173 11.5385 26.0217 11.4144C24.5349 10.9181 23.048 10.5459 21.5612 11.0422C20.9417 11.1663 20.5699 12.0348 21.3134 12.2829C22.1807 12.6551 23.048 12.7792 23.9154 13.0273C20.5699 19.7271 17.1006 26.4268 14.7465 33.6229C14.1269 35.608 11.6489 40.3226 14.4987 41.6874C15.8616 42.3077 17.8441 42.1837 19.3309 42.1837C21.1895 42.1837 23.1719 42.0596 25.0305 41.5633C27.013 41.067 27.013 38.2134 24.6588 38.4616Z" fill="black"/>
<path d="M35.189 28.7842C35.313 29.0323 35.5608 29.1564 35.8086 29.1564C34.8173 33.4988 33.8261 37.8412 32.5871 42.1837C32.0915 44.0447 35.1891 44.0447 35.5608 42.4318C37.791 32.6303 40.8886 22.7048 42.0038 12.7792C42.1277 12.0348 40.7647 12.1588 40.5169 12.7792C39.154 16.5013 38.0388 20.3474 36.9237 24.3177C36.3042 22.5807 35.313 20.7196 34.6934 19.2308C33.7022 16.9976 32.711 13.3995 30.6046 12.0348C30.109 11.6626 29.1178 11.9107 29.1178 12.6551C28.8699 15.3846 30.9763 18.3623 31.9675 20.8437C32.9588 23.3251 33.5783 26.675 35.189 28.7842Z" fill="black"/>
<path d="M69.3873 14.3921C67.5288 14.144 65.6702 14.0199 63.9356 13.7717C62.9443 13.6477 62.077 15.0124 63.316 15.2606C64.679 15.5087 66.0419 15.8809 67.4049 16.1291C63.316 24.1936 59.8467 32.8784 57.1208 41.4392C56.873 42.4318 57.8643 42.9281 58.6077 42.804C61.3336 42.5559 64.0595 42.4318 66.7854 42.1837C68.6439 42.0596 68.6439 39.3301 66.6614 39.4541C64.5551 39.7023 62.5726 39.8263 60.4663 40.0745C63.1921 31.6378 67.0332 23.6973 70.2547 15.3847C70.5025 15.0124 69.883 14.5162 69.3873 14.3921Z" fill="black"/>
<path d="M72.3592 40.8188C73.4743 35.4839 74.0938 30.1489 74.5894 24.8139C75.5807 30.8933 76.448 36.9727 78.9261 42.6799C79.5456 44.1687 81.7759 43.3002 81.8998 41.9355C82.2715 37.0968 82.6432 32.258 83.0149 27.2953C83.1388 24.9379 83.3866 22.5806 83.5105 20.2233C83.7583 17.7419 84.254 15.1365 84.0061 12.7791C83.8822 11.5384 81.8998 11.6625 81.652 12.7791C81.0325 15.0124 81.1564 17.4938 80.9086 19.727C80.6607 22.2084 80.5368 24.8139 80.289 27.2953C80.0412 29.6526 79.7934 32.134 79.6695 34.4913C78.1827 27.6675 77.8109 20.4714 75.0851 13.8958C74.5894 12.6551 72.3592 13.2754 72.3592 14.5161C72.607 23.325 71.8636 32.258 70.9962 40.9429C70.8723 41.6873 72.2353 41.4392 72.3592 40.8188Z" fill="black"/>
<path d="M92.6789 27.0472C92.6789 27.4194 92.8028 27.7916 92.8028 28.1638C92.4311 28.1638 92.0594 28.2879 91.6877 28.2879C90.9442 28.2879 90.0769 28.4119 89.3335 28.536C89.3335 28.2879 89.4574 27.9157 89.4574 27.6675C89.8291 25.1861 90.2008 22.5807 90.5725 20.0993C90.6964 18.7345 90.8203 17.2457 90.9442 15.7569C91.4399 19.603 92.1833 23.3251 92.6789 27.0472ZM85.9881 42.3077C87.7227 38.9578 88.4662 34.8636 89.0857 30.8933C90.0769 30.8933 90.9442 30.8933 91.9355 30.7693C92.4311 30.7693 92.8028 30.7693 93.2984 30.7693C93.794 34.3673 94.4136 38.0894 95.0331 41.6874C95.2809 43.3003 98.0068 42.804 97.759 41.3152C97.1394 37.5931 96.5199 33.9951 95.9004 30.273C96.0243 30.1489 96.2721 30.0248 96.396 29.9008C96.8916 29.5286 96.7677 28.9082 96.396 28.536C96.1482 28.2879 95.9004 28.1638 95.5287 28.0397C95.4048 27.4194 95.2809 26.675 95.157 26.0546C94.4136 21.2159 93.794 16.3772 92.6789 11.6626C92.555 11.1663 91.9355 11.0422 91.4399 11.2904C90.9442 10.5459 89.3335 11.1663 89.2096 12.1588C89.0857 14.6402 88.4662 17.2457 88.0945 19.7271C87.7227 22.4566 87.2271 25.0621 86.7315 27.7916C86.3598 30.273 85.8642 32.6303 85.2447 34.9876C84.749 37.3449 83.8817 39.5782 83.7578 41.9355C83.8817 43.0521 85.6164 42.9281 85.9881 42.3077Z" fill="black"/>
<path d="M105.069 31.8858C104.325 28.66 102.715 25.5583 102.095 22.2084C101.847 20.5955 101.723 18.9826 102.095 17.3697C102.343 16.2531 102.715 15.2605 103.086 14.268C103.334 13.6476 104.201 12.655 103.954 12.2828C104.449 13.1513 106.06 12.4069 105.812 11.4144C105.317 8.68483 102.343 10.794 101.352 12.0347C99.2453 15.0124 98.5018 18.6104 99.1214 22.2084C99.7409 25.9305 101.476 29.2804 102.343 32.8784C102.838 34.6153 102.962 36.4764 102.715 38.2134C102.343 40.3225 101.228 41.4392 99.9887 43.0521C99.2453 43.9206 100.608 44.789 101.476 44.4168C106.06 42.4317 106.06 35.9801 105.069 31.8858Z" fill="black"/>
<path d="M116.096 40.1985C113.866 40.5707 111.512 40.8189 109.281 40.8189C110.025 34.4913 111.759 28.2878 112.875 22.0844C113.122 20.5955 113.494 19.1067 113.742 17.7419C113.99 16.5013 114.733 14.5161 114.485 13.2754C113.99 11.4144 111.016 11.7866 109.529 11.7866C108.29 11.7866 107.299 13.5236 108.91 13.7717C109.405 13.8958 109.901 13.8958 110.397 14.0199C110.768 14.0199 111.14 14.1439 111.512 14.1439C111.883 14.0199 112.007 14.1439 111.883 14.5161C112.131 15.3846 111.264 17.6179 111.14 18.3623L109.653 26.1787C108.662 31.3896 108.042 36.8486 106.555 41.9355C106.308 42.5558 106.927 43.3003 107.671 43.3003C110.644 43.4243 113.494 43.1762 116.468 42.6799C117.955 42.4318 117.955 39.8263 116.096 40.1985Z" fill="black"/>
<path d="M141.498 31.7618C140.631 28.2878 139.639 24.6898 137.905 21.5881C137.781 21.3399 137.533 21.2159 137.285 21.2159C137.409 20.8437 137.657 20.3474 137.781 19.9752C139.02 16.9975 140.755 13.6476 141.25 10.4218C141.374 9.42927 139.763 9.67741 139.392 10.1737C137.657 12.531 136.666 15.7568 135.551 18.4863C134.931 20.0992 134.188 21.5881 133.568 23.201C133.816 19.2308 133.816 15.2605 133.444 11.4144C133.32 10.4218 131.71 10.67 131.71 11.5384C131.338 16.8734 131.338 22.0844 130.966 27.4193C130.842 30.0248 130.595 32.5062 130.223 35.1116C129.975 37.469 129.355 39.8263 129.355 42.1836C129.355 43.4243 131.338 43.0521 131.586 42.1836C132.329 39.9504 132.329 37.469 132.577 35.2357C132.825 33.4987 132.949 31.7618 133.073 30.0248C133.196 30.0248 133.32 29.9007 133.444 29.7767C134.559 28.4119 135.055 26.6749 135.675 25.062C135.798 24.6898 136.046 24.1935 136.17 23.8213C136.914 26.6749 138.153 29.4045 138.896 32.3821C139.763 35.8561 140.383 39.4541 140.879 42.928C141.126 44.4169 143.728 44.0446 143.481 42.5558C143.109 38.9578 142.489 35.3598 141.498 31.7618Z" fill="black"/>
<path d="M151.286 32.5062C151.038 33.871 150.79 35.2358 150.542 36.4765C150.418 37.0968 150.17 38.8338 149.799 39.9504C148.56 38.3375 148.188 35.2358 148.064 33.7469C147.816 31.2655 147.568 28.9082 147.568 26.4268C147.445 21.464 148.312 16.7494 148.684 11.9107C150.666 12.531 151.162 15.0124 151.409 16.8735C151.781 19.4789 152.029 22.0844 152.029 24.6898C151.905 27.4194 151.657 30.0248 151.286 32.5062ZM149.923 8.56082C148.188 8.06454 146.825 10.0497 147.445 11.2903C146.949 11.4144 146.453 11.6626 146.329 12.0348C144.099 18.6104 144.347 26.5509 145.09 33.3747C145.338 36.1042 145.586 38.9578 147.073 41.3152C148.188 43.1762 150.418 44.7891 152.029 42.4318C152.896 41.3152 153.144 39.7023 153.516 38.3375C154.011 36.6005 154.507 34.8635 154.755 33.1266C155.374 29.9008 155.622 26.5509 155.498 23.201C155.622 18.6104 155.622 10.2978 149.923 8.56082Z" fill="black"/>
<path d="M168.633 21.5881C168.014 21.464 167.518 21.464 167.023 21.3399C166.899 21.2159 166.651 21.2159 166.403 21.0918C166.031 21.0918 165.66 20.9677 165.288 20.9677C163.553 20.7196 162.314 23.4491 164.297 24.0695C164.421 24.0695 164.544 24.1935 164.668 24.1935C164.916 26.799 164.916 29.2804 164.792 31.8858C164.668 34.1191 164.916 37.593 164.049 40.0744C163.801 40.1985 163.677 40.3226 163.429 40.4466C162.066 41.9355 160.58 34.4913 160.58 33.871C160.332 31.0174 160.58 28.0397 161.075 25.1861C161.447 22.7047 162.066 20.0992 162.686 17.6179C162.934 16.5012 163.305 15.2605 163.801 14.268C163.925 14.1439 165.907 11.2903 166.031 11.4144C166.527 12.531 168.509 12.0347 168.509 10.9181C168.509 9.3052 167.146 8.56078 165.66 8.80892C163.925 9.18113 162.314 10.794 161.447 12.2829C158.969 16.129 158.225 21.5881 157.482 26.0546C156.738 30.6451 156.615 35.8561 158.349 40.3226C159.712 43.4243 164.297 45.6576 166.155 41.6873C166.279 41.3151 166.403 41.067 166.279 40.6948C167.146 38.8337 167.27 36.3523 167.518 34.4913C167.89 31.1414 167.89 27.7915 167.766 24.3176C168.138 24.3176 168.509 24.1935 168.757 24.0695C170.244 23.8213 170.12 21.9603 168.633 21.5881Z" fill="black"/>
<path d="M179.164 32.2581C178.668 34.7394 178.173 37.469 177.057 39.8263C176.81 40.3226 176.562 40.8189 176.314 41.1911C175.571 41.9355 175.942 41.8114 175.695 41.1911C175.199 40.0744 175.075 38.7097 174.951 37.593C174.827 35.1117 174.951 32.6303 175.075 30.2729C175.447 24.5658 176.066 18.9826 176.686 13.2754C176.81 13.2754 177.057 13.1514 177.181 13.0273C179.412 16.2531 180.279 20.2233 180.279 24.1935C180.279 26.799 179.783 29.5285 179.164 32.2581ZM177.925 11.5385V11.6625C177.801 11.6625 177.925 11.6625 177.925 11.5385ZM178.668 9.42927C178.173 8.80892 177.429 8.80893 176.81 9.05706C175.571 9.42927 174.703 10.4218 174.703 11.6625C174.455 11.7866 174.208 12.0347 174.208 12.4069C172.597 19.603 171.977 27.1712 171.853 34.6154C171.73 37.9653 172.349 48.3871 177.925 43.6725C179.907 41.9355 180.527 39.4541 181.27 36.9727C182.261 33.3747 183.129 29.9007 183.377 26.1787C183.872 20.0992 182.757 14.0198 178.668 9.42927Z" fill="black"/>
<path d="M190.069 18.7345C189.697 17.2457 189.202 15.7568 189.573 14.1439C189.821 12.9032 190.565 11.0422 191.804 12.6551C192.671 13.7717 194.406 12.7792 194.53 11.6625C194.777 7.69232 189.45 7.81639 187.467 10.0496C184.617 13.2754 186.848 18.6104 187.963 22.2085C189.45 26.675 191.556 31.0174 192.547 35.732C192.919 37.7171 193.291 40.8189 191.308 42.0596C190.317 42.6799 188.458 43.0521 187.343 42.6799C185.609 41.9355 186.228 40.1985 186.352 38.7097C186.6 36.4764 183.13 36.3524 182.759 38.4616C182.263 42.1836 183.874 45.6576 187.963 45.5335C191.804 45.4094 195.149 43.3003 195.521 39.206C196.016 34.7395 193.786 30.1489 192.299 26.0546C191.68 23.5732 190.812 21.2159 190.069 18.7345Z" fill="black"/>
<path d="M195.769 0.124084C194.53 0.248154 193.415 0.992571 192.299 1.61292C191.184 2.23327 190.069 2.72954 189.078 3.59803C188.335 4.21838 188.954 5.45907 189.945 5.21093C191.184 4.96279 192.3 4.34245 193.415 3.7221C194.53 3.22582 195.769 2.72954 196.636 1.73699C197.256 0.992571 196.76 0.124084 195.769 0.124084Z" fill="black"/>
<path d="M216.832 25.1861C216.708 28.0397 216.46 30.8933 216.089 33.7469C215.841 35.4838 215.593 40.4466 213.735 41.067C212.867 41.3151 212.991 41.191 212.495 40.3226C212.124 39.7022 211.876 39.0819 211.504 38.3374C211.009 37.2208 210.761 35.9801 210.513 34.7394C210.017 32.258 210.017 29.6526 210.017 27.0471C210.017 21.9603 211.133 17.2456 211.876 12.2829C217.699 12.6551 216.956 21.0918 216.832 25.1861ZM212.124 9.05705C211.256 9.05705 210.761 9.80147 210.637 10.5459C210.389 10.67 210.141 10.9181 210.017 11.0422C208.654 14.6402 208.159 18.6104 207.787 22.4566C207.539 26.0546 207.415 29.9007 207.911 33.4987C208.283 36.7245 210.637 47.2704 215.717 42.3077C217.823 40.3226 218.195 36.4764 218.691 33.7469C219.31 30.1489 219.682 26.4268 219.806 22.8288C219.93 17.6178 219.558 8.68484 212.124 9.05705Z" fill="black"/>
<path d="M227.366 11.2903C228.233 11.7866 230.587 11.0422 229.844 9.67741C228.481 7.19602 225.259 7.07195 223.029 8.80892C220.303 10.9181 220.179 14.7643 220.799 17.7419C221.666 21.9603 224.268 25.3102 225.879 29.2804C226.746 31.3896 227.737 33.7469 227.118 36.1042C226.622 38.2134 224.392 39.5782 222.409 38.3375C220.551 37.0968 218.073 40.0744 220.055 41.4392C222.409 42.928 225.259 42.5558 227.242 40.6948C229.596 38.5856 230.091 35.2357 229.596 32.3821C228.852 28.536 226.25 25.5583 225.259 21.7121C224.887 19.8511 222.657 8.80892 227.366 11.2903Z" fill="black"/>
<path d="M237.401 38.4616C237.029 39.0819 236.905 39.4541 236.162 39.5782C235.171 39.7023 235.047 38.5856 234.799 37.8412C234.427 36.6005 234.179 35.2357 234.179 33.871C234.179 31.5137 234.551 29.0323 234.799 26.675C235.171 23.9454 235.419 21.34 235.666 18.6104C235.914 16.6253 236.286 14.3921 236.162 12.2829C236.41 13.0273 237.153 13.7717 237.401 14.5161C237.897 15.5087 238.268 16.5013 238.64 17.6179C239.383 19.8511 239.755 22.0844 239.879 24.4417C240.499 29.0323 239.755 34.2432 237.401 38.4616ZM236.41 11.1663L236.534 11.0422C236.41 11.1663 236.41 11.1663 236.41 11.1663C236.41 11.2903 236.41 11.2903 236.41 11.1663ZM239.136 10.2978C237.897 8.31268 234.799 7.32012 233.684 10.0496C233.312 10.7941 233.684 11.4144 234.179 11.6626C233.188 14.8884 233.188 18.7345 232.94 21.9603C232.445 26.0546 231.949 30.273 231.949 34.3673C231.949 36.7246 232.197 41.3152 235.047 42.1836C237.773 42.9281 239.507 40.4467 240.499 38.3375C243.224 32.5062 243.844 25.8065 242.605 19.4789C241.862 16.3772 240.87 13.0273 239.136 10.2978Z" fill="black"/>
<path d="M252.021 18.9827C251.773 21.8363 250.534 24.3176 248.551 26.3028C248.551 25.9306 248.551 25.6824 248.551 25.3102C248.799 20.4715 249.047 15.7569 248.056 11.1663C251.525 10.7941 252.269 16.5013 252.021 18.9827ZM251.401 36.4765C250.658 38.3375 249.419 40.0745 247.684 40.943C247.932 37.0968 248.056 33.2506 248.304 29.4045C248.923 30.1489 249.667 31.0174 250.286 31.7618C251.773 33.2506 252.269 34.3673 251.401 36.4765ZM255.242 16.2531C254.871 12.0348 252.269 7.19606 247.436 8.18861C246.197 8.43675 245.702 9.67745 246.073 10.5459C246.569 15.7569 246.073 20.9678 245.702 26.1787C245.33 31.7618 244.958 37.469 244.463 43.0521C244.339 43.9206 245.454 44.2928 246.073 44.1688C249.914 44.0447 252.764 40.8189 254.251 37.469C254.994 35.8561 255.49 34.1191 254.747 32.3822C254.003 30.6452 252.516 29.1564 251.153 27.7916C254.127 24.6899 255.614 20.4715 255.242 16.2531Z" fill="black"/>
<path d="M261.437 9.18113C261.313 8.31264 259.578 8.68485 259.454 9.42927C258.463 14.392 258.835 19.727 258.711 24.6898C258.587 30.0248 258.091 35.3598 258.215 40.6948C258.215 42.6799 261.684 42.4318 261.808 40.5707C262.056 35.3598 261.684 30.0248 261.684 24.8139C261.808 19.727 262.304 14.268 261.437 9.18113Z" fill="black"/>
<path d="M269.737 16.0049C268.994 13.6476 269.613 9.55331 272.958 10.5459C273.95 10.794 275.56 9.67738 274.445 8.80889C272.215 7.07192 269.117 8.06448 267.507 10.1737C265.276 13.1513 266.392 16.9975 267.507 20.0992C268.994 24.1935 271.224 28.2878 272.339 32.5062C272.958 34.7394 272.711 36.8486 270.976 38.4615C270.233 39.2059 268.746 40.3225 267.507 40.4466C266.515 39.7022 264.781 40.5707 264.905 41.9354C265.276 45.4094 269.489 43.5484 271.224 42.5558C274.198 40.8188 276.428 38.2134 276.428 34.4913C276.428 30.2729 273.95 26.0546 272.339 22.2084C271.472 20.2233 270.356 18.2382 269.737 16.0049Z" fill="black"/>
<path d="M275.934 -9.19695e-06C274.819 0.24813 273.952 0.744408 273.085 1.36476C272.093 1.9851 271.226 2.72952 270.483 3.59801C269.615 4.59056 270.607 5.58312 271.722 5.21091C272.837 4.8387 273.704 4.21835 274.695 3.59801C275.563 2.97766 276.43 2.35731 277.05 1.36476C277.545 0.744408 276.802 -0.124079 275.934 -9.19695e-06Z" fill="black"/>
<path d="M287.83 39.0819C286.219 40.6948 283.988 41.5632 282.502 39.33C281.015 37.2208 281.015 33.995 280.891 31.5136C280.767 28.1637 280.891 24.9379 281.263 21.5881C281.51 20.2233 281.758 18.7345 282.006 17.3697C282.13 16.6253 282.997 11.7866 284.484 13.1513C285.228 13.7717 286.962 12.9032 286.467 11.9106C285.847 10.2977 284.36 9.80146 282.749 10.2977C280.891 10.9181 280.024 12.7791 279.528 14.5161C277.917 19.9752 277.422 25.8064 277.545 31.5136C277.669 35.3598 277.917 40.9429 281.634 43.0521C284.856 44.9131 289.44 43.1761 289.936 39.4541C290.184 38.3374 288.325 38.5856 287.83 39.0819Z" fill="black"/>
<path d="M292.786 11.1663C291.423 15.3846 291.919 20.3474 291.795 24.6899C291.671 27.0472 291.671 29.5286 291.547 31.8859C291.547 33.1266 291.423 34.2432 291.547 35.4839C291.795 36.8487 292.167 37.9653 292.167 39.3301C292.167 39.4541 292.167 39.5782 292.291 39.5782V39.7023C292.167 40.3226 292.043 40.943 292.043 41.5633C291.919 42.3077 291.795 42.9281 292.167 43.5484C292.538 44.2928 293.654 43.7966 294.025 43.3003C294.521 42.804 294.397 42.0596 294.521 41.3152C294.645 40.6948 294.645 39.9504 294.645 39.3301C294.645 38.9578 294.521 38.7097 294.273 38.5856C294.397 36.4765 295.264 34.6154 295.264 32.3822C295.388 30.0248 295.388 27.5434 295.388 25.1861C295.388 22.8288 295.388 20.3474 295.512 17.9901C295.512 15.5087 295.76 13.0273 295.14 10.67C294.645 9.92558 293.034 10.4219 292.786 11.1663Z" fill="black"/>
<path d="M303.938 10.794C305.673 10.9181 307.284 12.0347 308.894 11.1662C309.266 11.0422 309.514 10.5459 309.39 10.0496C308.77 8.43671 306.292 8.18857 304.806 8.18857C303.319 8.18857 300.964 8.0645 300.097 9.55333C299.725 9.6774 299.478 9.92554 299.478 10.1737C299.106 18.4863 298.362 26.799 297.867 35.2357C297.743 37.0968 297.371 39.33 297.743 41.1911C297.867 42.1836 298.239 42.6799 299.23 43.0521C301.832 43.9206 306.664 43.1762 308.77 41.4392C309.886 40.5707 309.39 39.0819 307.903 39.2059C306.292 39.33 304.806 39.9504 303.195 40.3226C302.451 40.4466 301.708 40.6948 300.964 40.5707C300.221 40.4466 300.345 40.8188 300.469 39.8263C300.717 36.6005 300.469 33.1265 300.717 29.7767C300.841 28.7841 300.841 27.9156 300.964 26.9231C301.584 26.9231 302.327 26.799 302.947 26.6749C304.186 26.4268 305.425 26.1786 306.045 25.062C306.416 24.4417 306.168 23.8213 305.425 23.4491C304.434 22.9528 303.319 23.5732 302.327 23.8213C301.956 23.9454 301.46 24.0695 301.088 24.1935C301.46 19.727 301.584 15.2605 301.212 10.794C302.08 10.9181 303.071 10.794 303.938 10.794Z" fill="black"/>
</g>
<defs>
<clipPath id="clip0_0_1">
<rect width="325" height="50" fill="white"/>
</clipPath>
</defs>
</svg>
