<svg width="302" height="584" viewBox="0 0 302 584" fill="none" xmlns="http://www.w3.org/2000/svg">
<g clip-path="url(#clip0_0_2659)">
<path d="M242.32 540.616C240.615 539.1 239.099 537.395 237.773 535.69C243.078 539.479 250.467 543.459 256.909 542.89C257.098 545.164 257.477 547.248 257.666 549.522C252.172 547.438 246.867 544.596 242.32 540.616ZM165.589 508.403C164.831 505.75 163.883 503.287 163.883 500.444C163.883 497.602 164.831 494.76 165.02 491.917C165.02 490.97 163.505 490.78 162.936 491.349C159.526 495.517 159.526 503.666 162.178 508.592C160.663 508.782 159.147 508.971 157.821 509.161C157.442 506.508 156.494 503.855 156.494 501.013C156.494 497.602 157.442 494.381 158.389 491.159C165.21 490.591 171.651 490.78 177.904 491.349C175.441 496.654 175.062 502.718 177.146 508.024C173.167 507.834 169.378 508.024 165.589 508.403ZM136.033 509.161C134.328 509.161 132.622 509.35 130.917 509.54C130.349 503.097 129.591 496.844 128.833 490.401V490.212C134.517 490.401 140.201 490.401 146.074 491.159C149.106 491.538 151.758 491.728 154.6 491.538C151.947 496.654 150.811 504.803 153.463 509.919C147.779 508.971 141.906 508.971 136.033 509.161ZM119.55 498.928C119.55 498.549 119.36 498.36 119.171 498.17C119.929 495.328 120.686 492.486 121.634 489.833C121.634 489.833 121.823 489.833 122.013 489.833C122.392 489.833 122.771 489.833 123.149 489.833C122.202 494.57 122.771 500.444 123.149 505.182C123.339 506.887 123.718 508.592 124.286 510.108C122.392 510.487 120.308 510.866 118.223 511.056C119.55 507.266 119.929 503.097 119.55 498.928ZM98.709 515.982C99.2774 515.982 99.6563 516.172 100.225 516.172C102.119 516.361 103.824 516.74 105.719 517.119C103.446 517.119 101.172 516.551 98.709 515.982ZM63.4694 542.511C57.975 546.68 52.4807 548.954 45.8496 550.659C45.4706 550.849 45.0917 550.849 44.7128 551.038C44.7128 550.28 44.9023 549.333 44.9023 548.575C59.8696 543.648 71.9951 533.226 79.763 519.583C80.5208 519.583 81.2787 519.583 82.0365 519.583C77.1105 528.11 71.4267 536.258 63.4694 542.511ZM37.7028 196.312C39.029 192.712 40.9236 189.869 43.1971 187.217C42.4393 189.301 41.8709 191.575 41.492 193.849C40.7341 198.775 41.3025 203.702 40.5447 208.439C39.9763 212.987 38.2712 216.777 36.1871 220.567C34.8609 221.514 33.3452 222.462 32.019 223.22C34.6714 214.693 34.6714 204.65 37.7028 196.312ZM41.1131 180.016C43.0077 178.689 44.7128 176.795 46.039 174.71C45.0917 176.795 43.7655 178.689 41.1131 180.016ZM46.9863 142.876C46.4179 132.454 53.8069 128.475 56.6488 119.568V119.379C56.6488 120.895 56.6488 122.411 56.2699 123.927C55.3226 127.906 52.8596 131.317 52.2912 135.486C52.1018 136.812 51.9123 138.328 52.1018 139.654C47.1758 145.908 48.3126 149.508 52.1018 160.498C53.6175 164.667 54.3753 167.32 54.5648 169.215C53.428 171.11 52.1018 172.815 50.7755 174.521C53.0491 164.288 47.5547 154.056 46.9863 142.876ZM57.5961 99.1035C59.3013 96.4506 61.7643 94.7452 63.2799 91.7134C64.7956 88.492 64.9851 85.0812 65.364 81.6704C66.3113 72.5748 70.29 66.3217 75.7843 59.879C75.7843 60.6369 75.7843 61.2054 75.7843 61.9634C73.5108 65.7532 68.9637 75.4172 67.2586 91.5239C66.3113 93.4188 65.364 95.1242 64.2272 96.8296C62.3326 99.4825 60.438 100.619 60.438 103.841C60.6275 108.578 64.0378 112.747 64.0378 117.863C64.0378 119.189 64.0378 120.705 63.8483 122.032C62.3326 126.39 59.8696 131.127 56.2699 134.917C56.0804 135.107 55.891 135.296 55.891 135.486C56.0804 134.159 56.2699 132.833 56.8383 131.506C57.975 127.717 60.0591 124.306 60.6275 120.137C61.1959 112.178 52.6701 106.683 57.5961 99.1035ZM78.4368 40.9299C79.0052 33.1608 79.763 28.2341 89.0466 25.9602C93.0252 25.0127 97.7617 25.5812 101.93 25.5812C102.498 25.5812 102.877 25.3917 103.067 25.0127C129.591 26.1497 156.305 24.4443 183.019 23.8758C183.208 23.8758 183.398 23.8758 183.587 23.6863C186.429 23.6863 189.461 23.4968 192.303 23.4968C196.092 23.4968 202.344 23.1178 205.754 25.0127C209.733 27.2866 208.975 33.3503 209.354 37.1401C209.543 38.656 209.733 40.3615 209.733 41.8774C208.975 58.9315 210.112 76.3646 210.301 93.4188C210.491 110.852 209.922 128.664 211.438 146.097C211.059 154.814 211.438 163.909 212.764 172.057C211.249 173.005 209.922 174.331 208.596 175.468C208.028 175.847 207.459 176.416 206.702 176.795C205.565 139.086 205.186 101.377 202.912 63.6688C203.102 60.8264 202.912 57.9841 202.912 55.1417C202.723 50.215 202.912 45.2882 202.154 40.551C201.965 39.793 201.586 39.2245 200.639 39.035C197.986 38.4666 195.902 38.2771 193.439 39.035C193.25 39.035 193.25 39.2245 193.25 39.2245C183.777 37.3296 169.378 39.035 165.399 39.035C139.064 39.414 112.54 39.414 86.2047 40.551C84.31 40.551 83.7417 42.0669 84.1206 43.2038C82.6049 45.6672 82.9838 50.0255 82.9838 52.6783C83.5522 66.5111 83.7417 80.3439 83.9311 94.1768C84.1206 108.01 84.3101 121.842 84.689 135.675C85.2573 149.318 86.3941 162.962 85.8257 176.605C85.6363 176.416 85.4468 176.416 85.2573 176.226C85.2573 175.847 85.0679 175.468 84.4995 175.089C82.9838 174.331 80.8998 173.573 78.4368 173.005C78.8157 172.815 79.0052 172.436 79.0052 171.868C80.7103 146.666 78.4368 120.895 78.2473 95.5032C78.2473 82.9968 78.2473 70.6799 78.0579 58.1736C78.6262 52.8678 78.0579 46.8041 78.4368 40.9299ZM103.256 23.6863C103.067 23.4968 103.067 23.4968 102.877 23.4968H108.182C106.477 23.4968 104.772 23.6863 103.256 23.6863ZM214.469 142.686C214.469 142.497 214.469 142.307 214.469 142.118C214.469 141.739 214.469 141.36 214.469 141.17V142.686ZM247.436 177.174C248.193 182.1 247.246 187.406 248.951 192.143C251.035 198.586 255.582 201.428 255.772 209.008C255.772 212.229 255.393 215.451 255.582 218.482C255.014 218.293 254.635 217.914 254.067 217.725C253.498 216.398 252.551 214.693 251.225 212.798C251.035 209.576 249.709 206.734 248.193 203.513C244.594 195.365 245.351 189.111 245.541 180.395C245.73 175.468 244.973 171.299 241.941 167.32C240.615 165.615 239.099 164.099 237.584 162.772C236.068 160.309 233.984 158.414 231.521 155.003C230.005 152.919 228.868 151.024 228.111 148.939C234.363 158.793 245.541 165.425 247.436 177.174ZM280.402 448.334C280.402 448.334 280.402 448.145 280.402 448.334C280.781 447.576 281.16 446.818 281.538 446.06L281.728 445.871C281.917 445.682 281.917 445.492 282.107 445.303C281.917 448.145 281.538 450.987 281.159 453.83C280.97 451.935 280.781 450.04 280.402 448.334ZM261.835 520.151L261.645 519.962C262.024 519.772 262.213 519.772 262.592 519.583C262.403 519.772 262.024 519.962 261.835 520.151ZM255.203 526.404C255.582 530.384 256.151 534.553 256.53 538.532C252.74 537.016 248.762 536.447 244.973 534.742C243.457 533.984 238.531 531.331 235.121 528.489C241.752 528.11 248.572 527.541 255.203 526.404ZM228.679 523.941V524.131C226.405 524.131 224.132 524.131 221.858 523.941C224.132 524.131 226.405 524.131 228.679 523.941ZM100.414 513.519C100.225 509.54 99.2774 505.75 99.088 501.771C99.4669 502.339 100.035 502.718 101.93 503.097C102.688 503.287 103.446 502.529 104.203 502.529C106.098 502.529 107.993 501.771 109.887 501.392C109.698 504.613 110.077 508.403 111.403 511.435C111.024 511.814 111.024 512.193 111.213 512.761C107.993 515.035 104.393 514.088 100.414 513.519ZM97.0039 512.951C96.8144 511.056 96.2461 509.161 95.8671 507.455C95.4882 505.371 95.2988 503.287 95.4882 501.013C96.4355 500.823 97.0039 500.823 97.3828 500.823C97.3828 504.803 97.5723 509.35 99.088 513.14C98.709 513.14 98.5196 513.14 98.1407 512.951C97.9512 513.14 97.3828 513.14 97.0039 512.951ZM45.2812 544.027C45.8496 537.395 46.2285 530.763 45.8496 524.32C53.9964 522.046 62.7116 520.72 70.8584 519.772C71.8057 519.772 72.5635 519.583 73.3213 519.583C66.5008 530.573 56.8383 538.721 45.2812 544.027ZM92.4568 512.761C92.2674 511.056 91.5095 509.54 91.3201 507.834C90.9412 505.939 90.9412 504.234 91.1306 502.339C91.8885 501.96 92.8358 501.581 93.7831 501.392C93.5936 504.992 93.7831 509.54 95.2988 512.761C94.3514 512.951 93.4042 512.951 92.4568 512.761ZM90.3728 512.951C90.3728 512.761 90.3728 512.761 90.1833 512.572C90.1833 512.572 90.3728 512.761 90.3728 512.951ZM38.6501 507.645C39.029 507.455 39.5974 507.455 39.9763 507.266C39.9763 510.108 40.1658 513.14 40.5447 515.982C39.4079 514.846 38.2712 513.519 37.3238 511.624C37.1344 510.487 37.1344 509.35 37.1344 508.213C37.5133 507.834 37.8922 507.834 38.6501 507.645ZM54.5648 483.201C55.3226 485.096 56.2699 486.801 57.2172 488.506C59.3013 492.675 60.2486 496.465 60.6275 501.013C60.0591 500.823 59.4907 500.823 58.9223 500.823C58.354 497.223 57.7856 493.812 55.891 490.401C54.7542 488.317 53.2385 486.611 52.2912 484.527C50.965 481.685 50.965 479.032 51.3439 476C52.1018 476 53.0491 475.811 53.8069 475.621C53.2385 478.084 53.8069 480.737 54.5648 483.201ZM84.689 505.371C84.8784 505.371 85.0679 505.371 85.0679 505.371C86.773 504.803 88.0993 504.045 89.236 503.287C88.6676 506.129 88.6676 509.729 89.9939 512.382C89.236 511.056 86.773 510.677 85.8257 512.193C85.8257 512.382 85.6363 512.382 85.6363 512.572C85.4468 511.056 85.0679 509.729 84.8784 508.213C84.8784 507.455 84.689 506.319 84.689 505.371ZM78.8157 510.298C78.2473 508.024 77.8684 505.75 77.6789 503.476C79.5735 503.855 81.2787 504.424 82.7944 504.613C82.6049 507.455 82.6049 510.677 83.9311 513.14C82.6049 513.14 81.2787 513.33 79.9525 513.33C79.3841 512.382 79.1946 511.435 78.8157 510.298ZM74.6476 513.898C74.2686 512.761 73.7003 511.814 73.3213 510.677C72.753 508.592 72.1846 506.697 71.9951 504.613C72.374 504.424 72.753 504.234 73.1319 503.855C74.0792 503.476 75.0265 503.287 76.1632 503.476C76.1632 506.697 76.5422 510.487 77.6789 513.709C76.7316 513.709 75.5949 513.709 74.6476 513.898ZM66.1218 505.75C66.1218 508.592 66.1218 511.814 66.8797 514.467C66.3113 514.467 65.5535 514.656 64.9851 514.656C64.7956 513.33 64.4167 512.003 64.2272 510.677C63.8483 508.782 63.4694 506.697 62.901 504.803C63.2799 504.803 63.6589 504.992 64.0378 504.992C64.9851 505.182 65.5535 505.56 66.1218 505.75ZM70.6689 505.56C70.6689 508.403 71.0478 511.624 72.5635 514.088C71.4267 514.277 70.1005 514.277 68.9638 514.467C69.1532 511.814 68.3954 508.971 67.827 506.319C69.1532 506.129 69.911 505.939 70.6689 505.56ZM57.7856 515.604C57.4067 515.604 57.0277 515.793 56.4594 515.793C54.3753 516.172 52.2912 516.362 50.2072 516.74C50.0177 514.277 50.0177 511.814 49.6388 509.54C49.6388 508.971 48.6915 508.782 48.502 509.35C47.7442 512.003 48.1231 514.656 48.502 517.309C47.5547 517.688 46.7969 517.877 46.039 517.877C45.8496 514.656 45.4706 511.435 44.5233 508.592C44.3339 508.024 43.3866 508.024 43.3866 508.592C43.3866 511.624 43.955 514.846 44.7128 517.688H44.5233C44.3339 516.74 43.576 516.172 42.4393 515.982C42.2498 512.761 42.0604 509.54 41.6814 506.697V506.508C44.3339 505.371 46.7969 504.424 50.0177 503.855C50.5861 503.855 51.5334 504.045 52.4807 504.045C52.1018 506.318 52.1018 509.161 53.2385 511.245C53.428 511.814 54.5648 511.814 54.5648 511.056C54.5648 508.782 54.3753 506.318 54.1858 503.855C55.1331 503.855 56.2699 503.855 57.2172 503.855C57.4067 507.266 57.4067 511.056 58.354 514.277C58.5434 514.846 59.6802 514.846 59.6802 514.088C60.0591 510.677 59.3013 507.076 58.7329 503.855C59.6802 503.855 60.6275 504.045 61.5748 504.234C61.3853 507.455 62.1432 511.435 63.2799 514.656C62.901 514.656 62.5221 514.656 62.1432 514.846C60.6275 515.225 59.3013 515.414 57.7856 515.604ZM82.6049 462.357C85.4468 475.053 75.4054 488.885 82.0365 500.444C81.6576 500.065 81.0892 499.876 80.5208 499.497C78.6262 498.549 76.3527 497.981 74.2686 498.928C72.5635 499.876 72.9424 501.202 71.6162 502.15C67.827 504.613 65.1745 502.339 61.9537 501.392C62.3326 496.844 61.1959 493.244 59.3013 489.075C57.0277 483.959 55.5121 480.169 56.6488 474.863C57.2172 474.674 57.975 474.295 58.5434 474.105C60.2486 473.158 61.1959 471.831 62.7115 470.694C67.0691 467.283 69.7216 467.852 74.837 467.094C78.2473 466.525 80.7103 464.82 82.6049 462.357ZM43.3866 474.105C43.576 478.463 43.7655 483.58 45.6601 487.18C46.9863 489.643 48.3126 490.97 48.6915 494.002C48.8809 496.844 49.2599 498.739 50.3966 501.392C50.3966 501.581 50.7755 501.581 50.7755 501.392C49.2599 497.412 50.5861 493.244 49.0704 489.643C47.9336 487.18 46.2285 485.096 45.8496 482.064C45.4706 479.79 45.6601 477.516 45.4706 475.242C46.2285 475.621 47.1758 475.811 48.1231 476C49.0704 476.189 50.0177 476.189 50.7755 476.189C47.9336 485.285 57.5961 491.917 57.4067 501.013C56.6488 501.202 55.891 501.392 55.1331 501.771C52.6702 502.339 50.3966 502.339 48.1231 501.771C46.9863 501.96 45.6601 502.529 44.3339 503.097C43.955 500.634 43.955 498.549 44.3339 495.897C44.3339 495.707 44.3339 495.707 44.1444 495.707C39.5974 494.002 37.7028 490.401 38.2712 485.096C38.6501 484.527 39.2185 483.959 39.5974 483.39C40.1658 481.495 40.3552 481.495 40.7341 479.79C41.1131 477.516 41.1131 475.053 40.9236 472.589C41.3025 472.968 42.2498 473.537 43.3866 474.105ZM32.019 497.033C28.6087 484.527 30.3138 469.557 27.6614 457.43C27.6614 457.051 27.2824 456.861 26.9035 456.672C26.9035 456.482 26.9035 456.482 26.7141 456.293C26.7141 455.535 26.5246 454.967 26.5246 454.209C32.3979 455.725 34.103 463.873 37.7028 468.989C37.7028 469.747 37.8922 470.505 37.8922 471.452C38.6501 477.326 38.6501 477.705 36.9449 483.959C36.3765 486.232 35.2398 486.232 36.1871 488.885C37.1344 491.728 39.5974 492.675 41.3025 494.76C43.1971 497.033 43.0077 500.065 43.3866 502.908C40.9236 504.045 38.4606 505.182 35.9976 505.182C35.8082 505.182 35.6187 504.992 35.4292 504.992C35.0503 504.424 34.8609 503.855 34.6714 503.287C33.9136 501.392 32.9663 499.307 32.019 497.033ZM13.0729 430.522C11.5572 421.806 10.231 413.089 9.09423 404.373C8.90477 403.046 8.71531 401.72 8.52585 400.393C8.71531 395.088 9.47315 389.971 10.231 384.666C11.9361 382.013 14.0202 379.928 15.9148 377.465C16.1043 377.465 16.2937 377.275 16.4832 377.086C16.6727 376.896 16.8621 376.707 16.6727 376.328C17.4305 375.381 17.9989 374.244 18.3778 372.917C20.0829 367.99 20.0829 362.116 19.8935 357C19.704 352.452 19.3251 347.904 17.4305 343.736C15.7254 339.946 13.0729 337.104 10.4205 334.072C10.7994 333.693 11.1783 333.314 11.5572 332.935C12.5045 331.798 13.6413 330.661 14.5886 329.524C15.3464 331.798 16.4832 333.882 18.5673 333.693C29.177 333.503 14.2097 293.71 12.8834 289.92C12.5045 289.162 11.7467 288.973 10.9888 289.162C10.9888 287.268 10.7994 285.562 10.7994 283.667C10.7994 283.478 10.6099 283.288 10.6099 283.099C10.6099 281.393 10.6099 279.688 10.6099 278.172C10.9888 277.982 11.5572 277.793 11.5572 277.414C16.6727 263.581 10.7994 247.664 24.8195 237.621C34.8609 230.42 47.1758 226.252 56.4594 218.104C56.4594 218.104 56.4594 218.104 56.6488 217.914C56.6488 218.104 56.6488 218.482 56.6488 218.672C56.0804 220.188 56.0804 221.704 56.0804 223.22C55.7015 223.409 55.3226 223.599 55.1331 224.167C54.9437 224.925 54.5648 225.873 54.1858 226.631C53.9964 226.631 53.9964 226.82 53.8069 226.82C50.7755 230.61 47.1758 234.021 42.6287 235.916C38.2712 237.621 33.5346 238.379 29.3665 240.084C25.0089 241.79 18.5673 245.58 21.0302 251.075C21.2197 251.643 22.5459 251.833 22.7354 251.075C25.7668 241.79 35.4292 241.79 43.0077 238.379C47.3653 236.295 51.1545 233.452 53.9964 229.662C54.9437 228.904 55.7015 228.146 56.6488 227.199C56.8383 228.146 56.8383 229.094 57.0277 229.852C57.7856 235.537 57.975 241.221 58.1645 246.717C57.975 246.717 57.7856 246.717 57.5961 246.906C51.5334 252.022 50.0177 259.791 48.1231 267.182C47.5547 269.455 47.3653 272.298 46.2285 274.572C45.2812 277.035 43.7655 278.551 41.6814 279.498C41.1131 279.688 40.5447 280.067 39.7868 280.256C38.4606 282.151 37.8922 282.341 37.5133 284.804C36.1871 295.984 47.1758 305.838 44.3339 316.26C42.4393 322.892 41.6814 326.682 45.2812 330.661C45.4706 332.556 45.6601 334.451 46.2285 336.346C46.4179 337.104 47.5547 337.293 48.3126 336.914C48.3126 337.104 48.3126 337.293 48.1231 337.482C45.8496 338.998 45.0917 342.788 44.5233 345.252C43.955 347.336 43.576 349.42 43.3866 351.694C41.6814 355.674 39.5974 359.084 35.9976 362.874C33.3452 365.717 30.8822 368.369 29.556 372.159C27.8508 377.465 28.7981 382.581 26.5246 387.887C24.0616 393.382 19.8935 397.93 17.62 403.425C17.241 404.562 18.9462 404.562 19.5146 403.994C23.6827 399.635 28.7981 393.193 31.4506 387.697C33.5346 383.529 32.3979 379.549 33.1557 375.002C34.4819 368.18 39.5974 363.822 43.3866 358.705V358.895C43.576 360.221 44.7128 360.79 45.8496 360.79C46.2285 361.169 47.1758 361.358 47.7442 360.979V361.169C47.9336 362.306 49.4493 362.874 50.3966 362.495C52.8596 363.632 55.7015 364.39 58.354 365.148C59.8696 365.527 61.3853 365.906 62.901 366.285C62.7116 366.285 62.5221 366.285 62.5221 366.475L62.3326 366.664C62.1432 366.854 61.9537 367.232 62.1432 367.422C62.1432 367.422 62.1432 367.422 62.3326 367.611L62.5221 367.801C61.9537 369.317 61.7642 371.97 61.7642 371.97C61.5748 374.244 61.5748 376.518 61.5748 378.602C61.3853 382.96 60.6275 387.129 60.2486 391.487C59.8696 394.33 61.0064 400.962 65.7429 398.877C67.0691 398.309 67.2586 397.361 67.6375 396.225C68.2059 394.709 67.827 393.193 68.0164 391.677C68.3954 388.455 69.911 387.508 71.6162 385.613C75.5949 381.065 76.7316 374.054 77.3 367.99C77.8684 367.99 78.2473 367.99 78.8157 367.801C78.8157 367.801 78.8157 367.99 79.0052 367.99C79.3841 368.18 79.763 368.369 80.1419 368.369C79.5735 374.433 79.0051 380.497 78.6262 386.75C78.6262 387.318 79.763 387.508 79.9525 386.939C81.4681 382.771 82.4154 378.223 82.9838 373.486C83.3627 374.244 83.7417 375.002 84.1206 375.76C85.8257 378.791 85.6363 380.497 85.2573 383.908C85.0679 385.803 85.0679 386.94 85.6363 388.645C86.0152 389.782 87.9098 389.592 88.0993 388.455C88.6676 384.476 91.3201 381.065 89.6149 376.896C87.9098 372.728 85.8257 369.317 84.689 364.959C85.6363 363.064 86.0152 360.979 86.2047 358.895C86.5836 353.589 86.5836 347.904 84.8784 342.788C84.8784 342.599 84.689 342.22 84.4995 342.03C84.4995 341.841 84.4995 341.651 84.4995 341.462C84.689 325.166 84.4995 308.68 85.2573 292.384C85.2573 292.005 85.0679 291.815 84.689 291.626C85.6363 290.11 86.5836 288.594 87.5309 286.889C88.6676 290.11 92.8358 291.815 94.5409 295.416C98.1407 302.806 97.9512 312.091 98.3301 320.239C98.3301 320.618 99.088 320.618 99.088 320.239C99.6563 313.228 100.035 306.217 97.9512 299.395C97.3828 297.121 96.4355 294.847 95.1093 292.952C93.0252 289.92 89.0466 288.594 88.8571 284.425C89.0466 284.046 89.236 283.857 89.4255 283.478L89.6149 283.667C89.6149 283.857 89.6149 284.046 89.8044 284.236C94.7304 291.057 99.6563 296.932 101.551 305.269C103.824 314.933 102.309 324.976 104.014 334.83C106.666 351.694 115.571 368.938 114.624 385.803C113.866 401.341 122.96 414.795 121.634 430.522C119.929 449.282 115.192 467.473 113.108 486.232C113.108 486.422 113.108 486.611 113.298 486.801C112.35 489.833 111.592 493.244 111.592 496.465C111.403 496.465 111.024 496.465 110.835 496.465C111.024 494.381 110.645 492.107 110.077 490.212C110.077 490.022 109.698 490.022 109.508 490.212C108.94 492.296 108.561 494.57 108.75 496.844C106.666 497.223 104.961 498.549 102.688 498.17C100.604 497.791 100.793 496.844 99.088 496.275C98.709 496.086 98.3301 496.086 97.9512 495.897C100.035 492.865 101.74 489.643 101.74 485.853C101.74 480.927 99.2774 476.379 99.088 471.263C99.088 468.61 101.551 456.861 95.8671 456.861C90.1833 456.861 91.8885 466.336 92.4568 469.557C93.5936 475.432 95.2988 480.548 93.0252 486.422C91.5095 490.212 89.8044 492.107 91.699 496.086C91.8885 496.465 92.6463 496.276 92.4568 495.897C90.5622 490.401 95.6777 485.854 95.8671 480.548C96.0566 475.621 92.4568 469.936 93.4042 465.199C92.6463 462.167 94.3514 461.409 98.1407 463.304C98.1407 464.252 98.1407 465.01 98.1407 465.957C98.709 468.231 97.7617 471.831 97.9512 474.295C98.1407 476.758 99.088 479.032 99.6563 481.495C100.983 487.559 99.6563 491.159 96.2461 495.707C95.1093 495.518 93.7831 495.707 92.2674 496.275C90.5622 497.033 89.6149 498.549 87.9098 499.497C85.4468 500.823 84.4995 501.013 83.5522 500.444C76.3527 487.369 89.4255 472.589 83.7417 459.514C86.5836 454.588 87.5309 447.955 88.8571 442.65C92.2674 428.248 95.4882 410.247 93.0252 395.656C92.6463 393.761 88.8571 393.003 88.4782 395.277C86.3941 408.92 86.9625 422.943 84.8784 436.586C83.9311 443.029 83.5522 450.987 81.2787 456.861C77.3 466.715 71.9951 463.494 64.7956 465.768C59.6802 467.473 56.2699 471.642 50.5861 471.831C40.9236 472.021 39.2185 462.736 34.6714 456.672C32.2084 453.261 28.7981 450.987 25.0089 450.987C24.2511 450.608 23.3038 450.419 22.3565 450.608C22.167 450.419 21.9775 450.419 21.9775 450.229C18.5673 447.008 18.5673 439.618 17.9989 434.881C17.8094 433.744 15.7254 433.554 15.5359 434.881C15.5359 435.639 15.3464 436.586 15.3464 437.533C14.778 436.018 14.2097 434.312 13.8307 432.796C13.4518 432.986 13.2624 431.659 13.0729 430.522ZM43.3866 209.008C44.1444 210.713 45.0917 212.419 46.2285 213.935C44.5233 215.072 42.8182 216.209 41.1131 217.156C42.2498 214.693 43.0077 212.04 43.3866 209.008ZM74.837 172.815C75.0265 172.626 75.2159 172.436 75.2159 172.247H75.4054V172.436C75.4054 172.626 75.4054 172.815 75.5949 173.005C75.2159 172.815 75.0265 172.815 74.837 172.815ZM203.291 179.826V179.258C203.481 179.447 203.481 179.447 203.291 179.826C203.481 179.637 203.481 179.637 203.291 179.826ZM286.464 405.889C286.275 405.699 286.085 405.51 285.896 405.32C286.654 401.53 287.601 397.74 288.548 393.761C288.548 394.14 288.548 394.709 288.548 395.088C287.98 398.877 287.222 402.288 286.464 405.889ZM255.014 346.01C255.393 347.336 255.772 348.852 255.961 350.368C256.151 352.831 256.34 355.295 256.53 357.568C256.34 356.811 255.961 355.863 255.772 355.105C255.203 352.263 255.393 349.041 255.014 346.01ZM222.237 418.016C223.374 420.1 224.7 422.185 225.648 424.269C226.784 426.732 227.921 429.196 229.058 431.659C226.405 427.301 224.132 422.943 222.237 418.016ZM262.213 458.377C259.94 458.946 257.856 459.325 255.582 459.514C255.203 459.135 254.635 459.135 254.446 459.514C246.488 459.893 238.531 457.998 230.574 457.43C222.427 451.556 223.942 444.924 222.048 435.639C221.669 433.744 220.911 431.849 220.153 430.143C220.153 428.438 219.206 426.732 218.827 425.027C218.448 422.564 218.259 420.1 218.827 417.826C219.016 417.258 217.88 417.068 217.69 417.637C217.122 419.532 216.553 421.806 216.553 424.08C216.175 423.322 215.796 422.753 215.417 421.995C215.606 421.995 215.796 421.806 215.796 421.616C216.175 419.342 215.796 417.068 216.175 414.795C216.364 413.658 216.743 412.521 217.122 411.384C219.964 423.89 224.7 435.828 233.415 443.787C234.173 444.355 235.689 443.787 235.31 442.839C235.5 442.65 235.689 442.46 235.5 442.081C232.279 429.575 226.216 416.879 219.395 405.889C219.206 405.51 218.827 405.32 218.448 405.32C215.985 393.761 215.606 381.823 215.038 370.075C214.659 362.116 214.28 354.158 213.901 346.199C215.796 346.578 217.69 346.957 219.585 347.336V347.525C221.101 352.642 221.101 358.516 220.911 364.39C220.722 364.769 220.532 364.959 220.532 365.338C220.532 365.527 220.532 365.906 220.911 365.906C220.722 370.264 220.343 374.812 220.153 378.981C220.153 378.981 220.153 378.981 220.153 379.17C219.964 379.36 219.964 379.549 220.153 379.739C220.153 381.065 220.153 382.202 220.153 383.529C220.343 389.782 219.964 397.361 225.458 401.53C226.216 402.099 227.542 401.909 227.921 400.962C230.952 392.245 230.195 382.013 230.574 372.917C230.952 367.422 230.574 363.064 229.437 358.705C229.437 358.516 229.626 358.516 229.626 358.326C229.626 357.947 229.437 357.758 229.247 357.758C228.868 356.432 228.489 355.105 227.921 353.968L228.111 353.779C228.3 353.4 227.921 353.21 227.732 353.21C227.353 352.452 226.974 351.505 226.595 350.747C226.784 350.557 226.784 350.368 226.974 350.178C227.163 349.799 226.595 349.42 226.405 349.61H226.216C226.027 349.231 225.837 348.662 225.458 348.283C228.679 348.473 231.71 348.094 234.931 346.957C235.5 346.768 235.878 346.578 236.447 346.389C237.205 350.178 237.584 353.968 237.584 357.758C237.584 359.842 236.826 362.495 237.773 364.39C238.72 366.096 240.804 367.232 242.51 365.717C243.267 364.959 243.457 363.822 243.646 362.685C244.025 359.084 243.267 356.811 245.73 353.589C246.867 352.073 247.246 352.073 247.246 350.178C247.246 347.715 246.488 344.873 245.73 342.599C245.73 342.409 245.541 342.22 245.351 342.03C246.867 340.893 248.383 339.567 249.52 338.051C251.035 340.514 252.551 343.167 252.93 345.252C253.309 348.473 251.983 351.505 251.983 354.537C251.983 358.137 253.309 359.842 254.635 363.253C256.909 368.748 256.151 373.865 256.151 379.739C256.151 381.255 256.34 382.96 256.151 384.476C257.287 386.371 256.909 387.887 255.203 389.024C254.446 391.108 253.309 391.298 252.172 389.592C249.709 389.403 247.625 387.697 245.92 390.54C243.078 394.898 249.141 402.478 252.172 405.131C252.93 405.889 254.825 405.131 254.067 403.994C252.93 402.099 250.467 399.067 250.277 396.793C249.899 391.298 251.225 394.33 253.688 394.519C255.014 394.709 256.53 395.656 257.856 395.088C262.592 393.572 259.94 387.129 259.561 383.718C259.182 379.739 260.129 375.76 260.129 371.591C265.434 380.686 271.497 390.35 272.823 400.772C273.013 402.667 276.802 402.667 276.612 400.772C276.234 397.93 275.665 395.277 274.718 392.624C275.286 381.255 270.739 368.938 259.94 364.201C258.993 358.137 259.372 352.073 258.045 346.199C256.909 340.704 253.119 336.725 251.414 331.608C251.604 328.387 251.604 324.976 250.277 321.944C249.141 319.102 247.246 317.207 245.162 315.312C246.299 309.248 249.33 303.564 254.067 299.395C257.477 296.363 263.54 295.416 266.003 291.626C266.95 290.11 265.055 289.352 263.919 289.352C256.151 290.489 251.035 293.9 245.541 298.637C245.351 298.637 245.162 298.637 244.973 298.637C245.351 296.932 247.057 294.468 248.762 292.194C249.33 292.005 249.709 291.815 250.277 291.626C251.414 291.057 251.414 290.299 251.035 289.541C252.362 288.215 253.309 287.078 253.309 286.889C255.203 285.183 251.983 283.288 250.467 284.615C249.709 285.373 248.004 287.078 246.299 289.162C243.646 290.11 239.478 291.626 237.963 291.057C237.773 290.678 237.394 290.489 237.205 290.11C236.826 289.731 236.257 289.541 235.689 289.352C233.794 280.635 232.089 271.919 230.005 263.202C229.437 251.643 234.552 238.758 238.152 227.389C246.299 229.662 243.646 238.379 246.488 244.064C248.762 248.611 253.498 250.696 257.098 254.107C268.845 265.476 278.318 291.057 272.255 306.217C271.876 306.975 273.392 307.164 273.581 306.596C278.318 290.299 272.823 270.592 262.971 257.139C257.666 249.938 248.383 246.717 246.299 237.621C245.162 232.694 243.836 227.389 238.341 226.252C238.341 226.252 238.341 226.252 238.152 226.252C238.72 224.357 239.289 222.651 239.668 220.946C239.857 220.377 240.047 219.619 240.047 219.051C240.236 219.051 240.236 219.24 240.426 219.24C246.867 218.672 251.035 224.357 255.582 227.389C258.614 229.283 262.213 230.42 264.866 232.694C265.624 233.452 266.192 234.21 266.761 234.968C267.139 235.537 267.708 236.295 268.087 236.863C268.466 237.811 268.655 238.947 268.845 240.274C268.655 243.874 267.708 247.853 268.845 250.885C270.929 256.381 275.286 260.549 277.56 265.855C280.781 273.624 282.107 281.583 289.306 286.32C289.875 289.92 290.254 293.521 290.822 297.121C290.633 297.5 290.633 297.879 290.443 298.258C289.117 300.721 288.738 303.374 288.359 306.406C288.17 308.111 287.222 310.575 287.791 312.28C288.17 313.417 288.927 313.796 289.875 314.554C291.58 316.07 293.096 317.207 294.043 318.533C294.232 321.376 293.474 323.839 290.822 324.408C288.738 324.787 284.57 322.134 282.296 322.134C278.886 321.944 276.044 323.081 274.718 326.492C271.118 337.104 285.138 338.809 292.148 337.861C291.959 338.619 291.769 339.567 291.769 340.325C291.39 340.135 290.822 340.325 290.822 340.704C291.769 346.957 293.095 353.021 293.474 359.274C293.664 360.979 293.664 362.685 293.474 364.201C292.717 363.822 291.769 363.822 291.39 364.58C290.443 356.621 286.654 348.283 289.875 340.514C290.443 338.998 287.601 338.619 287.033 339.946C283.812 346.957 286.654 354.537 287.98 361.548C288.927 367.043 287.98 371.78 286.843 376.707C284.191 379.549 281.917 382.202 281.349 386.939C281.16 389.213 281.349 391.298 281.538 393.572C281.538 394.14 281.538 394.709 281.728 395.277C281.728 396.225 281.728 396.982 281.728 397.93C281.728 398.119 281.728 398.119 281.728 398.309C280.97 400.772 280.402 403.425 280.023 406.078C279.265 408.162 278.697 410.247 278.128 412.331C276.802 417.637 277.56 421.616 278.697 425.785C278.697 426.922 278.697 428.059 278.697 429.196C278.697 429.954 279.265 430.522 280.023 430.522C280.212 431.28 280.402 432.038 280.591 432.796C283.812 444.734 273.392 455.156 262.213 458.377ZM264.676 500.634C264.487 500.823 264.298 501.013 264.298 501.013C263.54 499.876 262.971 498.549 262.592 497.223C262.024 495.707 260.129 496.086 259.372 497.033C259.372 497.223 259.182 497.412 258.803 497.791C254.825 494.57 253.498 490.212 254.824 484.338C255.203 483.959 255.582 483.39 255.961 482.822C256.34 480.737 256.719 481.116 256.909 478.463C257.098 473.158 256.719 467.473 255.961 461.978C259.372 461.599 262.782 460.841 265.813 459.704C265.624 459.893 265.624 460.083 265.813 460.272C266.571 461.22 262.971 463.873 262.971 465.389C262.971 467.094 263.729 465.957 263.919 467.094C264.298 467.473 264.866 467.852 265.434 468.231C266.192 471.263 265.624 473.726 263.729 475.811C259.75 482.253 256.151 486.232 261.645 493.623C261.835 493.812 262.592 493.812 262.403 493.433C261.266 489.643 259.372 486.232 261.077 482.064C262.213 479.411 264.487 477.326 266.003 474.863C267.139 473.347 268.845 471.073 268.276 469.178C267.897 467.852 266.003 467.662 265.434 466.525C264.676 464.82 266.571 464.062 266.95 463.115C267.897 461.409 268.655 461.03 267.139 459.514C266.95 459.325 266.76 459.325 266.571 459.325C268.087 458.756 269.413 457.998 270.739 457.24C273.771 455.535 276.234 453.261 278.318 450.987C277.37 460.462 277.37 469.936 274.339 479.221C272.444 484.717 269.792 489.643 267.329 494.949C266.571 496.465 265.434 498.549 264.676 500.634ZM226.595 520.909C225.648 519.014 224.89 517.119 224.321 515.224C223.942 513.898 223.753 512.572 223.374 511.245C225.648 510.677 226.784 508.403 227.921 506.319C229.247 508.024 230.384 509.919 233.037 509.729C234.173 509.729 235.121 509.35 235.878 508.592C236.257 512.382 237.394 516.551 238.91 520.151C238.152 520.151 237.205 520.341 235.878 520.341C234.552 517.498 233.605 514.656 232.847 511.624C232.847 511.245 232.089 511.245 232.089 511.624C232.089 514.846 233.226 517.688 234.552 520.341C232.089 520.72 229.437 520.909 226.595 520.909ZM221.29 520.909C220.911 519.393 219.964 517.877 219.395 516.361C218.638 514.277 218.069 512.193 217.69 509.919C217.69 509.35 217.122 509.161 216.553 509.35C216.743 508.782 217.122 508.213 217.311 507.645C218.259 509.35 219.395 510.866 221.29 511.435C220.911 514.656 222.806 518.446 224.321 521.099C223.374 520.909 222.237 520.909 221.29 520.909ZM216.553 520.53C215.985 518.825 215.038 517.309 214.469 515.604C214.09 514.277 213.712 512.951 213.522 511.624C214.469 512.193 215.796 511.624 216.175 510.677V510.487C216.175 512.572 216.364 514.467 216.932 516.361C217.311 517.688 217.88 519.393 218.638 520.72C217.88 520.72 217.122 520.53 216.553 520.53ZM209.165 513.709C208.975 512.951 208.786 512.003 208.596 511.245C209.165 509.919 209.733 508.592 210.301 507.266C210.491 507.645 210.87 508.024 211.059 508.403C211.059 512.003 211.628 517.119 213.712 520.341C212.385 520.151 211.059 519.962 209.922 519.583C210.301 519.393 210.491 519.204 210.491 518.825C210.491 517.119 209.543 515.414 209.165 513.709ZM248.951 299.774C248.951 299.584 248.762 299.584 248.762 299.584C249.33 299.016 249.899 298.637 250.467 298.068C250.088 298.637 249.52 299.205 248.951 299.774ZM242.699 317.586C242.699 317.586 242.699 317.397 242.699 317.586C242.889 317.775 243.836 317.775 243.836 317.396V317.207C245.351 319.102 246.678 320.997 247.436 323.271C247.814 324.218 248.004 325.166 248.004 326.303C247.246 322.513 245.541 319.102 242.699 317.586ZM250.656 335.209C251.035 336.156 251.414 337.104 251.793 337.861C251.225 337.104 250.656 336.535 250.088 335.967C250.277 335.777 250.467 335.588 250.656 335.209ZM216.553 345.062C216.743 345.062 216.743 345.062 216.553 345.062C216.743 345.062 216.553 345.062 216.553 345.062ZM212.764 383.529C212.385 383.718 211.817 383.908 211.438 384.097C211.817 381.444 212.385 378.602 212.954 375.76C212.954 377.086 213.143 378.602 213.143 379.928C213.143 381.065 213.333 382.202 213.333 383.339C213.333 383.339 212.954 383.529 212.764 383.529ZM213.333 403.804C213.901 402.857 214.659 401.909 215.227 400.962C215.417 401.72 215.417 402.478 215.606 403.236C213.712 405.889 211.817 409.678 211.438 413.089C211.059 412.142 210.68 411.194 210.491 410.057C211.438 407.973 212.196 405.889 213.333 403.804ZM211.438 347.525C210.87 349.799 210.301 352.263 210.301 354.537C210.301 354.726 210.491 354.916 210.491 354.916C209.543 359.084 209.354 363.443 207.838 367.611C207.08 369.696 206.133 371.591 205.565 373.675C205.186 373.675 204.807 373.865 204.617 374.244C204.807 371.212 205.186 368.18 205.944 364.959C207.459 358.705 210.301 352.642 211.249 346.389C211.438 346.578 211.438 347.146 211.438 347.525ZM216.743 341.841C215.606 341.651 214.469 341.272 213.333 340.704C212.954 335.209 212.575 329.713 212.196 324.218C213.143 324.597 214.28 324.787 215.227 324.787L215.038 324.976C214.28 328.197 213.522 338.619 216.743 341.841ZM219.016 339.377C216.364 338.051 217.501 328.197 217.122 325.355C217.122 325.166 217.122 325.166 216.932 324.976C218.069 324.976 219.206 324.976 220.532 324.787C220.343 327.629 219.206 339.377 219.016 339.377ZM227.921 338.051C226.027 333.693 224.511 329.145 223.753 324.408C224.89 324.218 225.837 323.839 226.974 323.46C227.921 323.081 229.058 322.702 230.195 322.134C230.384 327.818 229.626 332.935 227.921 338.051ZM245.73 334.072C245.73 334.261 245.73 334.64 245.73 334.83L245.541 335.019C245.73 334.64 245.73 334.261 245.73 334.072ZM237.015 337.482C234.931 338.619 232.658 339.567 230.384 340.325C231.521 337.293 232.468 334.072 232.847 331.04C233.984 333.693 235.31 335.967 237.015 337.482ZM222.237 339.946C222.806 338.43 223.185 336.535 223.374 334.64C224.132 336.914 225.079 339.188 226.216 341.462C224.321 341.841 222.427 342.03 221.101 342.22C221.479 341.651 222.048 340.893 222.237 339.946ZM207.08 378.223C207.08 377.086 207.08 375.949 207.08 374.623C207.08 374.433 206.891 374.244 206.891 374.054C208.217 370.643 210.87 367.043 211.628 364.011C211.817 363.443 212.006 362.685 212.196 362.116C212.196 362.685 212.196 363.253 212.196 363.822C210.112 368.369 208.217 373.296 207.08 378.223ZM213.712 386.182C212.764 386.182 211.817 386.561 210.87 387.129C211.059 386.371 211.059 385.803 211.249 385.045C212.006 384.855 212.575 384.666 213.333 384.476H213.522C213.712 385.045 213.712 385.613 213.712 386.182ZM210.112 404.752C210.112 403.804 210.112 402.667 209.922 401.72C210.301 400.962 210.87 400.204 211.438 399.635C212.385 398.498 213.522 397.74 214.659 396.793C214.659 397.361 214.848 397.93 214.848 398.498C212.385 400.393 210.491 403.804 209.543 407.215C209.354 406.646 209.165 406.078 209.165 405.51C209.733 405.51 210.301 405.32 210.112 404.752ZM207.838 394.33C207.838 395.088 207.838 395.656 207.838 396.414C207.838 395.846 207.649 395.088 207.649 394.519C207.649 394.519 207.649 394.33 207.838 394.33ZM214.09 389.213C212.954 389.213 211.817 389.971 210.87 390.54C210.68 390.54 210.68 390.729 210.491 390.729C210.491 390.161 210.68 389.403 210.68 388.834C210.87 388.645 211.059 388.645 211.249 388.455C212.006 388.076 212.954 387.887 213.712 387.318C213.901 387.887 213.901 388.645 214.09 389.213ZM211.249 394.14C210.87 394.519 210.491 394.709 210.112 395.088C210.112 394.33 210.301 393.761 210.301 393.003C210.87 392.624 211.628 392.056 212.385 391.677C212.954 391.298 213.712 391.108 214.28 390.729C214.28 390.919 214.28 391.108 214.28 391.487C213.143 392.245 212.196 393.382 211.249 394.14ZM210.112 397.551C211.059 396.793 212.006 396.035 212.954 395.088C213.522 394.709 214.09 394.14 214.659 393.761C214.659 394.33 214.848 394.898 214.848 395.467C212.954 396.035 211.438 397.361 210.301 398.877C210.112 398.498 210.112 397.93 210.112 397.551ZM212.575 370.075C211.817 371.591 211.249 373.296 210.68 375.002C211.249 372.728 211.817 370.454 212.575 368.18C212.575 368.938 212.575 369.506 212.575 370.075ZM244.404 325.924C244.783 326.682 244.973 327.629 245.162 328.576C244.404 328.576 243.836 328.955 243.646 329.713C243.457 331.229 242.699 332.745 241.562 334.072C240.994 334.072 240.236 334.451 240.236 335.019C240.047 336.156 237.773 332.745 237.773 332.745C237.205 331.419 236.447 330.282 235.878 328.955C234.931 326.682 233.984 324.218 233.226 321.755C233.037 321.376 232.847 321.186 232.658 320.997C233.984 320.428 235.31 320.049 236.447 320.049C239.668 320.049 243.078 323.081 244.404 325.924ZM237.773 301.1C237.773 301.29 237.584 301.479 237.584 301.669C237.584 301.479 237.394 301.1 237.394 300.911C237.584 301.1 237.584 301.1 237.773 301.1ZM238.341 304.511C238.341 304.701 238.341 304.701 238.341 304.701C238.341 304.89 238.341 304.89 238.341 305.08C238.341 304.89 238.341 304.701 238.341 304.511ZM210.491 328.955C210.68 331.798 210.87 334.64 211.059 337.482C210.68 335.967 210.68 334.072 210.68 332.935C210.491 331.608 210.491 330.282 210.491 328.955ZM213.712 418.395C213.522 418.016 213.333 417.637 213.143 417.068C213.712 414.984 213.712 412.71 214.28 410.436C214.659 408.731 215.417 407.025 216.175 405.32C216.364 406.268 216.553 407.404 216.743 408.352C215.038 411.194 213.522 415.174 213.712 418.395ZM258.235 517.309C257.098 517.877 255.961 518.256 254.635 518.446C252.93 514.277 251.414 510.677 251.225 505.939C251.225 505.371 250.656 505.182 250.088 505.182C250.467 504.424 250.846 503.666 251.225 502.718C252.93 504.424 255.014 506.129 257.477 505.371C257.856 507.645 258.235 509.919 258.803 512.003C259.182 513.33 259.561 514.846 260.508 515.982C259.75 516.551 258.993 516.93 258.235 517.309ZM245.92 508.782C246.488 512.382 247.246 516.172 248.951 519.393C247.814 519.583 246.678 519.583 245.73 519.772C244.783 516.172 243.836 512.761 243.267 509.161C243.836 509.161 244.215 509.161 244.783 509.161C244.973 509.161 245.351 508.971 245.92 508.782ZM249.33 506.319C249.33 510.487 250.277 515.224 252.74 519.014C251.983 519.204 251.225 519.204 250.467 519.393C248.762 515.982 247.246 512.572 246.488 508.782C247.625 508.024 248.572 507.266 249.33 506.319ZM237.963 504.992C239.099 506.697 240.236 508.213 242.131 508.782C242.51 512.382 243.267 516.362 244.594 519.583C243.267 519.772 241.941 519.772 240.804 519.772C240.236 518.067 239.668 516.172 239.289 514.467C238.531 511.814 238.152 509.161 237.205 506.697C237.584 506.318 237.773 505.75 237.963 504.992ZM254.446 462.167C254.446 465.768 254.825 469.368 255.014 472.968C255.203 476 255.393 478.084 254.446 480.927C254.067 482.253 252.93 483.769 252.551 485.096C251.035 490.97 253.877 494.57 258.235 498.36C257.666 499.307 256.909 500.444 257.287 500.444C255.393 501.202 252.93 499.307 251.604 498.36C250.656 497.602 248.951 497.981 248.572 499.307C247.057 504.424 241.183 502.908 238.72 499.307C238.152 498.549 237.205 498.549 236.447 498.928C232.658 493.054 227.732 487.369 226.784 480.548C225.837 473.537 228.679 466.147 229.626 459.135C237.015 461.599 245.92 462.925 254.446 462.167ZM219.585 438.481C219.964 441.892 219.774 445.303 220.722 448.713C221.858 452.882 224.321 456.104 227.921 457.809C227.732 458.188 227.732 458.567 228.3 458.946C228.3 458.946 228.3 458.946 228.489 458.946C226.784 465.578 224.132 474.105 224.89 480.927C225.648 487.748 231.331 494.57 235.689 499.876C235.689 499.876 235.689 500.065 235.5 500.065C234.742 502.718 233.605 505.371 230.763 504.613C231.142 504.803 229.247 502.908 228.679 502.339C228.489 502.15 228.3 502.15 228.3 502.15C227.732 498.36 227.163 494.002 225.269 491.159C224.89 491.159 224.321 490.97 223.942 490.97C221.669 489.833 220.343 488.317 219.585 486.232C218.638 484.338 218.259 482.253 217.501 480.358C215.796 476.189 214.09 471.831 211.438 468.231C211.249 468.041 210.68 468.041 210.68 468.42C212.385 472.968 214.659 477.326 216.364 481.874C217.311 484.527 218.069 488.317 220.153 490.401C221.29 491.349 222.427 491.159 223.374 491.917C225.837 494.002 226.405 498.36 227.163 502.15C226.784 502.339 226.216 502.529 226.027 502.908C224.7 504.803 222.427 509.919 218.827 503.097C218.448 502.339 217.69 501.96 216.932 502.15C215.417 496.275 217.122 490.401 215.796 484.527C214.469 478.842 211.628 473.726 209.354 468.42C202.533 452.882 207.649 439.997 214.469 425.975C216.932 429.954 219.016 433.554 219.585 438.481ZM223.185 350.747C222.616 351.315 221.858 351.884 221.479 352.642C221.479 352.073 221.29 351.694 221.101 351.126C221.29 351.126 221.29 351.126 221.479 350.936C222.048 350.368 222.616 349.799 223.185 349.42C223.374 349.799 223.564 349.989 223.753 350.368C223.564 350.368 223.374 350.557 223.185 350.747ZM223.564 355.295C222.995 356.053 222.427 356.621 221.858 357.379C221.858 356.242 221.669 355.105 221.669 353.968C221.858 353.968 222.237 353.968 222.427 353.779C223.185 353.21 223.753 352.642 224.321 352.073C224.511 352.642 224.89 353.21 225.079 353.968C224.511 354.347 223.942 354.726 223.564 355.295ZM224.132 360.6C223.374 361.169 222.616 361.927 221.858 362.685C221.858 361.548 222.048 360.6 222.048 359.463C222.427 359.463 222.616 359.463 222.806 359.084C223.564 357.947 224.321 356.811 225.458 355.863C225.648 355.674 225.837 355.484 226.027 355.484C226.405 356.432 226.595 357.379 226.784 358.326C225.648 359.084 224.7 359.842 224.132 360.6ZM227.542 372.728C227.353 372.728 227.353 372.728 227.163 372.917C225.648 374.054 224.7 375.76 223.564 377.275C222.616 378.602 221.858 379.739 221.101 381.065C221.101 380.497 221.101 380.118 221.101 379.549C222.427 377.654 223.942 375.76 225.269 373.865C226.027 373.107 226.784 372.159 227.353 371.401C227.542 371.78 227.542 372.159 227.542 372.728ZM227.163 384.666C226.974 384.666 226.784 384.855 226.784 384.855C225.837 386.182 225.269 387.697 224.511 389.024C223.942 389.971 223.374 390.919 222.806 391.677C222.616 390.729 222.237 389.782 222.048 388.834C222.237 388.834 222.427 388.645 222.427 388.645C223.942 386.371 225.837 383.908 227.163 381.444C227.163 382.581 227.163 383.718 227.163 384.666ZM227.353 378.033C224.89 380.497 223.374 383.908 221.669 386.939C221.479 385.613 221.29 384.476 221.29 383.15C221.479 383.15 221.669 382.96 221.858 382.771C223.185 381.065 224.321 379.549 225.458 377.844C226.027 376.896 226.784 376.139 227.353 375.191C227.353 376.328 227.353 377.275 227.353 378.033ZM221.29 371.97C221.669 371.97 221.858 371.97 222.237 371.78C223.564 370.264 224.89 368.748 226.216 367.232C226.595 366.664 227.163 366.096 227.732 365.527C227.732 366.664 227.921 367.801 227.921 368.748C225.269 370.643 223.185 373.865 221.479 376.707C221.29 375.002 221.29 373.486 221.29 371.97ZM227.353 362.685C226.216 363.632 225.458 364.959 224.511 366.096C223.374 367.611 222.427 369.127 221.29 370.643V370.454C221.29 368.938 221.479 367.232 221.479 365.717C222.995 364.769 224.321 363.064 225.458 361.927C225.837 361.548 226.216 361.169 226.784 360.979C227.163 361.358 227.163 362.116 227.353 362.685ZM222.237 347.715C222.237 347.715 222.237 347.904 222.427 347.904L222.237 348.094C221.669 348.662 221.29 349.231 220.911 349.799C220.722 349.041 220.343 348.094 219.964 347.336C220.722 347.525 221.479 347.525 222.237 347.715ZM225.458 397.551C224.7 396.604 224.132 395.467 223.564 394.14C224.7 393.003 225.648 391.677 226.595 390.161C226.595 389.971 226.784 389.782 226.784 389.782C226.595 392.435 226.027 395.088 225.458 397.551ZM233.794 344.873C228.111 346.768 222.806 346.199 217.122 345.252C222.995 346.199 229.626 344.115 235.121 342.22C236.068 341.841 237.015 341.651 237.963 341.272C239.857 341.272 241.752 339.946 243.267 339.188C244.594 338.43 245.73 337.482 246.488 336.346C246.678 336.346 246.867 336.535 247.057 336.535C243.457 340.325 238.91 342.978 233.794 344.873ZM239.289 344.683C238.91 344.873 238.531 345.252 238.531 345.82C238.531 345.82 238.531 345.82 238.531 346.01C238.152 346.01 237.773 346.199 237.773 346.389C237.773 346.578 237.773 346.578 237.773 346.768C237.584 346.389 237.584 346.01 237.394 345.441C237.963 345.252 238.72 344.873 239.289 344.683C239.289 344.683 239.289 344.494 239.289 344.683ZM259.94 367.232C259.94 366.854 259.75 366.664 259.75 366.285C264.866 369.885 266.95 375.191 268.276 381.065C265.434 376.897 262.403 372.728 259.561 368.18C259.94 367.801 260.129 367.611 259.94 367.232ZM256.34 224.925C256.34 224.925 256.53 224.925 256.53 225.115C255.772 224.736 255.014 224.167 254.446 223.599C254.635 223.788 254.824 223.788 255.203 223.978C255.582 224.357 255.961 224.736 256.34 224.925ZM293.474 335.019C293.664 334.83 294.043 334.64 294.043 334.261C294.043 334.261 294.043 334.451 294.232 334.451C294.043 334.64 293.853 334.83 293.664 335.019H293.474ZM291.201 334.261C291.39 334.451 291.58 334.64 291.769 334.83C291.769 334.83 291.959 334.83 291.959 335.019C291.39 335.019 291.011 335.019 290.443 335.019C291.011 335.019 291.39 334.64 291.201 334.261ZM287.98 335.209C286.843 334.072 286.464 333.314 286.464 331.608C286.464 331.419 286.464 331.04 286.464 330.85C286.654 331.229 286.654 331.608 286.843 331.987C287.601 333.503 288.738 335.209 290.443 335.209C289.875 335.209 289.496 335.209 288.927 335.209C288.548 335.209 288.17 335.209 287.98 335.209ZM288.738 326.113C288.548 326.871 288.548 327.629 288.738 328.387C288.548 328.576 288.359 328.766 288.548 329.145C288.738 329.334 288.927 329.713 289.117 329.903C289.306 330.661 289.685 331.608 290.064 332.366C289.685 331.987 289.306 331.608 289.117 331.04C288.359 329.713 288.17 328.197 288.359 326.682C288.548 325.734 286.654 325.545 286.275 326.303C286.275 326.113 286.275 325.924 286.275 325.734C286.275 324.597 284.38 324.597 284.38 325.734C284.191 327.439 284.001 329.713 284.001 331.798C283.622 329.903 283.622 327.44 284.191 324.218C284.949 324.218 287.412 325.166 289.117 325.734C288.927 325.734 288.738 325.924 288.738 326.113ZM292.906 327.439C292.338 327.25 291.58 327.25 291.201 327.629C291.201 327.25 291.201 326.682 291.201 326.303C291.959 326.303 292.527 326.492 293.096 326.303C292.717 326.492 292.527 326.871 292.906 327.439ZM288.548 280.446C288.548 281.014 288.738 281.393 288.738 281.962C288.548 281.772 288.548 281.772 288.359 281.583C288.548 281.204 288.548 280.825 288.548 280.446ZM286.085 271.919C286.085 270.971 286.275 270.024 286.275 269.076C286.654 269.834 286.843 270.782 287.033 271.729C287.033 271.919 286.843 271.919 286.843 272.108C286.654 274.003 286.464 275.709 286.275 277.604C286.275 277.982 286.275 278.551 286.275 278.93C285.896 278.361 285.517 277.793 285.138 277.225C285.896 275.519 285.896 273.814 286.085 271.919ZM283.244 266.045C283.244 265.097 283.433 264.339 283.433 263.392C283.812 263.96 284.001 264.339 284.38 264.908C284.191 266.803 284.001 268.887 283.812 270.782C283.812 271.729 283.622 272.677 283.433 273.624C283.054 272.866 282.865 272.108 282.486 271.54C283.054 269.834 283.054 267.939 283.244 266.045ZM280.023 264.339C280.781 263.013 280.97 261.497 280.97 259.981C281.16 260.17 281.349 260.36 281.538 260.739C281.349 262.444 281.159 264.339 281.159 266.045C281.159 266.613 280.97 267.182 280.97 267.939C280.591 266.803 280.023 265.666 279.644 264.718C279.833 264.718 280.023 264.529 280.023 264.339ZM278.697 258.465C278.697 258.086 278.697 257.707 278.886 257.328C279.075 257.518 279.265 257.707 279.265 257.897C279.265 259.602 278.886 261.307 278.886 263.013C278.697 262.444 278.318 261.876 278.128 261.307C278.507 260.549 278.507 259.412 278.697 258.465ZM275.855 257.139C276.234 256.57 276.423 255.623 276.612 254.865C276.802 255.054 276.991 255.244 276.991 255.433C276.802 256.381 276.612 257.139 276.612 258.086C276.612 258.275 276.612 258.465 276.612 258.654C276.234 258.275 276.044 257.707 275.665 257.328L275.855 257.139ZM273.202 253.349C273.581 252.97 273.771 252.401 273.96 251.643C274.339 252.022 274.718 252.591 275.097 252.97C274.907 253.917 274.718 254.865 274.718 255.623C273.96 255.054 273.581 254.296 273.202 253.349C273.202 253.538 273.013 253.538 273.202 253.349ZM272.065 251.643C271.118 249.938 270.55 248.232 270.171 246.338C270.739 247.664 271.497 248.801 272.255 249.938C272.255 250.127 272.255 250.127 272.255 250.317C272.255 250.696 272.065 251.075 272.065 251.643ZM126.939 468.61C127.128 468.42 127.128 468.231 126.939 468.041C127.507 462.546 127.697 457.051 128.265 451.177C129.212 441.702 132.054 433.365 130.349 423.701C128.644 414.984 125.234 407.215 124.476 398.688C125.612 389.213 123.907 380.118 121.444 371.022C118.413 354.347 113.866 337.861 110.456 321.186C109.887 316.07 108.94 311.333 107.614 306.596C105.151 295.226 101.93 283.857 94.3514 274.761C94.3514 274.761 94.162 274.761 94.162 274.572C97.0039 267.939 99.2774 261.118 100.793 254.296C101.361 255.244 101.93 256.002 102.498 256.76C101.172 260.36 100.035 263.771 99.4669 267.371C99.088 267.182 98.8985 266.992 98.5196 266.803C98.1407 266.613 97.1934 266.803 97.7617 267.371C98.1407 267.75 98.709 268.129 99.2774 268.697V268.887C99.088 269.834 100.225 270.213 101.172 270.213C102.877 271.54 104.582 272.677 106.287 273.624C106.287 274.003 106.477 274.382 106.666 274.761C107.045 275.519 108.561 275.898 109.129 275.14C120.308 280.446 133.38 281.772 145.695 281.962C146.074 281.962 146.453 281.962 146.832 281.962C147.021 282.151 147.021 282.151 147.211 282.341C147.59 282.53 148.158 282.72 148.537 282.341C148.537 282.151 148.727 282.151 148.727 281.962C153.084 281.962 157.252 281.772 161.61 281.583C161.989 281.772 162.368 281.772 162.557 281.583C173.925 280.635 184.914 278.172 194.766 272.298C195.523 272.487 196.66 272.298 196.66 271.35V271.161C196.85 270.971 197.039 270.971 197.229 270.782C197.797 272.487 198.555 274.003 199.123 275.709C199.123 275.898 199.313 276.088 199.313 276.277C183.208 279.877 177.525 299.584 178.282 313.796C178.851 325.924 182.261 337.672 183.398 349.61C184.535 362.306 183.398 375.002 182.451 387.508C181.503 398.688 179.988 410.815 181.693 421.995C182.261 425.596 183.587 428.248 185.292 431.47C189.84 439.618 189.84 443.029 188.324 452.124C187.187 459.325 187.945 466.336 189.271 473.347C179.23 472.968 168.999 476 158.957 477.326C153.084 478.084 147.021 478.463 141.148 478.084C135.843 477.705 130.917 476.379 125.802 476.758C126.181 474.105 126.56 471.452 126.939 468.61ZM120.308 463.494C120.497 463.494 120.686 463.494 120.876 463.304C122.581 462.167 123.907 460.462 125.234 458.756C124.665 462.357 123.907 466.146 123.149 469.747C122.771 470.126 122.392 470.315 122.202 470.694C121.065 471.642 119.929 472.779 118.792 473.916C119.171 470.315 119.739 466.904 120.308 463.494ZM122.013 452.314C123.528 450.798 124.665 448.524 125.612 446.629C125.991 445.871 126.56 444.924 126.939 444.166C126.749 447.576 126.181 450.798 125.802 454.209C125.044 455.346 124.476 456.861 123.718 457.998C122.771 459.325 121.634 460.651 120.497 461.978C121.065 458.567 121.444 455.346 122.013 452.314ZM123.718 438.481C124.855 436.396 125.991 434.123 127.128 432.038C127.318 434.502 127.318 437.154 127.318 439.807C125.991 441.513 125.234 443.597 124.286 445.492C123.718 446.44 123.149 447.576 122.581 448.524C122.96 445.113 123.339 441.702 123.718 438.481ZM123.718 418.395C124.097 417.637 124.286 416.879 124.476 415.932C125.423 419.911 126.181 424.08 126.749 428.059C125.802 429.575 125.044 431.28 124.286 432.986C124.286 432.228 124.476 431.28 124.476 430.333C124.855 426.164 124.476 422.374 123.718 418.395ZM121.065 408.541C121.444 406.836 121.823 405.131 122.013 403.425C122.202 405.131 122.392 407.025 122.771 408.731C122.96 409.299 122.96 409.678 123.149 410.247C122.96 411.384 122.96 412.71 122.771 413.847V414.037C122.202 412.142 121.634 410.247 121.065 408.541ZM120.118 387.887C120.308 386.939 120.497 386.182 120.686 385.234C121.065 387.697 121.255 390.35 121.255 392.814C120.497 396.793 119.739 401.151 119.929 405.32C119.171 403.046 118.413 400.772 117.845 398.498C118.981 395.088 119.36 391.487 120.118 387.887ZM114.245 364.201C114.434 364.011 114.434 363.632 114.624 363.443C115.192 365.148 115.76 366.854 116.329 368.559C116.329 369.317 116.329 370.264 116.139 371.022C115.571 368.748 114.813 366.475 114.055 364.39C114.245 364.39 114.245 364.39 114.245 364.201ZM111.213 348.094V347.904C111.592 351.126 112.161 354.158 112.919 357.379C113.108 357.947 113.298 358.516 113.298 359.084C113.298 359.274 113.298 359.463 113.298 359.653C113.298 360.411 113.108 361.169 113.108 361.927C112.161 359.274 111.403 356.81 110.645 354.158C110.456 353.589 110.456 353.21 110.266 352.642C111.024 351.315 111.024 349.61 111.213 348.094ZM109.698 333.314C109.887 335.777 110.077 338.051 110.266 340.514C110.077 340.514 109.887 340.704 109.887 340.893C109.698 343.167 109.508 345.252 109.319 347.525C108.75 344.873 108.372 342.03 107.993 339.377C108.94 337.672 109.319 335.588 109.698 333.314ZM108.561 323.839C108.561 323.65 108.75 323.271 108.75 323.081C108.94 324.976 109.129 326.871 109.319 328.576C108.75 330.282 108.182 332.177 107.614 334.072C107.424 332.177 107.424 330.282 107.235 328.576C107.803 326.871 108.182 325.355 108.561 323.839ZM91.699 284.994C92.2674 284.236 92.4568 283.099 92.6463 282.151C92.8358 281.393 93.0252 280.825 93.0252 280.067C97.5723 287.268 101.93 294.658 104.582 302.806C105.34 305.08 105.909 307.354 106.477 309.817C106.287 309.817 106.287 310.006 106.287 310.006C106.098 310.385 106.098 310.764 105.909 310.954C104.772 300.721 100.983 290.868 91.699 284.994ZM91.1306 281.393C91.1306 281.583 90.9412 281.772 90.9412 281.962C90.7517 282.53 90.5622 283.099 90.5622 283.667C90.3728 283.478 90.3728 283.478 90.1833 283.288C90.5622 282.53 90.7517 281.962 91.1306 281.393ZM107.045 322.702C107.045 320.239 106.856 317.586 106.666 314.933C106.856 313.986 107.045 313.038 107.235 312.091C107.614 314.365 107.993 316.828 108.372 319.102C107.803 320.428 107.424 321.755 107.235 323.081C107.045 322.892 107.045 322.892 107.045 322.702ZM120.308 374.054C118.981 369.317 117.087 364.769 115.76 360.032C115.571 359.084 115.192 358.326 115.003 357.379C115.003 356.242 114.624 355.295 114.245 354.347C112.54 346.957 111.403 339.567 111.024 331.987V332.177C111.024 332.366 111.403 332.366 111.592 332.366C113.108 340.135 114.624 348.094 116.329 355.863C115.76 354.158 115.003 352.263 114.434 350.557C114.434 350.368 114.055 350.368 114.245 350.557C115.76 358.705 118.413 366.285 120.308 374.054ZM122.96 391.866C122.96 389.213 122.771 386.561 122.392 384.097C122.771 386.75 123.149 389.213 123.339 391.866C123.339 391.866 123.149 391.866 122.96 391.866ZM117.087 391.866C116.897 387.318 118.413 382.96 117.845 378.223C117.845 377.465 117.655 376.896 117.466 376.139C117.845 375.381 118.034 374.623 118.034 373.865C118.602 375.949 119.171 378.033 119.739 380.118C118.792 382.581 118.413 385.424 118.034 388.076C117.845 389.592 117.466 391.108 117.087 392.435C117.087 392.435 117.087 392.056 117.087 391.866ZM91.1306 239.137C91.1306 239.705 91.3201 240.274 91.5095 240.842C90.3728 240.842 89.236 241.221 88.2887 241.79C87.7203 242.169 87.3414 242.548 86.9625 242.927C86.3941 241.6 86.0152 240.274 85.6363 239.137C86.9625 239.326 88.2887 239.326 89.8044 239.137C90.1833 239.137 90.7517 239.137 91.1306 239.137ZM81.2787 295.226C80.8998 295.984 82.4154 296.174 82.6049 295.795C82.6049 295.605 82.7944 295.605 82.7944 295.416C81.4681 310.575 82.0365 325.734 82.0365 340.893C82.0365 341.462 82.0365 342.03 82.0365 342.599C81.8471 342.599 81.6576 342.599 81.4681 342.788H81.2787C75.9738 342.788 71.0478 343.357 65.7429 342.409C61.0064 341.651 56.6488 339.946 52.2912 338.051C53.428 330.85 54.5648 323.65 56.2699 316.449C59.3013 303.564 62.7116 289.92 62.901 276.656L63.0905 276.467C63.0905 276.277 63.2799 276.088 63.2799 275.898C64.0378 277.793 65.1745 279.877 66.3113 281.772C67.0691 282.909 69.7216 281.962 68.7743 280.635C60.438 268.508 62.1432 253.538 60.2486 239.705C60.2486 237.811 60.2486 235.916 60.2486 233.831C60.0591 228.715 58.1645 223.599 60.0591 218.672C62.901 214.882 69.1532 216.019 73.1319 215.83C80.7103 215.451 88.4782 215.072 96.0566 214.503C96.4355 214.503 96.625 214.314 96.8144 214.314C97.0039 214.314 97.0039 214.503 97.1934 214.503C98.3301 215.261 98.8985 216.209 99.6563 217.346C99.8458 217.725 100.414 217.914 100.793 217.914C102.119 220.567 103.635 223.03 104.961 225.494C106.666 228.715 109.887 232.315 106.098 236.105C105.151 237.053 104.393 237.432 103.446 238C103.067 234.968 102.119 231.368 101.172 229.852C96.2461 222.083 79.3841 224.546 72.1846 224.357C62.901 224.167 60.8169 228.146 61.0064 237.811C61.0064 238.947 62.901 238.947 63.0905 237.811C63.8483 233.831 63.0905 230.041 66.8797 227.578C69.5321 225.873 70.6689 226.252 73.7003 226.252C79.0052 226.631 84.689 226.252 89.8044 227.389C97.0039 228.904 100.793 232.126 100.983 239.705C100.983 243.306 100.225 242.927 97.7617 244.822C96.4355 245.769 89.0466 250.506 88.4782 245.39C88.4782 245.011 88.0993 244.632 87.7203 244.443V244.253C89.0466 243.495 90.7517 243.116 92.2674 242.927C92.4568 242.927 92.4568 242.927 92.6463 242.737C93.2147 243.495 93.7831 243.874 94.5409 244.253C95.6777 244.632 97.7617 243.874 96.8144 242.358C96.2461 241.411 95.2988 240.842 94.7304 239.705C94.5409 239.326 94.3514 238.947 94.3514 238.568C94.7304 238.379 94.9198 238.189 95.2988 238C96.0566 237.432 95.4882 236.295 94.7304 236.295C94.5409 236.295 94.3515 236.295 94.162 236.295C93.9725 235.347 91.8885 235.158 91.699 236.295C91.699 236.295 91.699 236.484 91.699 236.674C90.9412 236.863 90.3728 237.053 89.6149 237.053C87.7203 237.432 85.8257 237.621 83.7417 237.811C82.7944 238 82.7944 239.137 83.7417 239.137C83.9311 239.137 84.31 239.137 84.4995 239.326C84.4995 241.79 84.689 243.685 85.4468 245.769C85.0679 248.422 86.2047 249.938 88.0993 250.696C88.4782 251.264 89.0466 251.643 89.8044 251.833C89.9939 251.833 90.1833 251.833 90.3728 251.833C90.1833 256.381 90.7517 260.739 89.4255 265.287C88.0993 269.834 85.4468 273.056 82.7944 276.846C81.8471 278.361 84.1206 278.93 85.2573 278.361C93.4042 272.677 94.5409 259.791 91.8885 250.885C92.6463 250.696 93.5936 250.506 94.3514 250.127C96.8144 248.99 99.6563 247.853 101.551 246.148C99.088 253.917 97.1934 261.876 94.162 269.645C90.5622 278.551 85.6363 286.699 81.2787 295.226ZM75.0265 366.475C74.837 363.253 74.0792 360.221 73.8897 357C73.5108 353.589 73.5108 349.989 73.5108 346.578C73.5108 346.389 73.5108 346.389 73.3213 346.199C75.0265 346.199 76.7316 346.199 78.2473 346.199C78.6262 350.936 78.4368 355.674 78.2473 360.221C78.0578 361.927 77.4895 364.58 77.8684 366.475C76.9211 366.475 75.9738 366.475 75.0265 366.475ZM74.2686 376.139C73.1319 373.486 71.0478 371.022 69.3427 368.748C69.7216 368.748 70.29 368.938 70.6689 368.938C70.6689 368.938 70.6689 368.938 70.6689 369.127C70.8584 370.643 71.9951 372.159 72.9424 373.296C73.3213 373.675 73.8897 374.244 74.6476 374.623C74.6476 375.002 74.4581 375.57 74.2686 376.139ZM72.753 381.255C72.1846 379.17 70.4794 377.465 69.3427 375.57C67.827 373.296 66.6902 370.833 65.364 368.369C65.1745 367.99 64.6062 367.801 64.2272 367.99C64.2272 367.801 64.0378 367.611 64.0378 367.611C64.0378 367.611 63.8483 367.611 63.8483 367.422C64.9851 367.611 66.1218 367.99 67.2586 368.18C68.7743 371.022 70.29 374.433 72.5635 376.707C72.753 376.897 73.5108 377.086 73.8897 376.896C73.7003 377.654 73.5108 378.412 73.3213 379.17C73.3213 380.118 73.1319 380.686 72.753 381.255ZM70.4794 384.287C69.911 382.771 68.7743 381.255 67.827 379.928C66.8797 378.602 65.9324 377.275 64.9851 376.139C65.1745 374.623 65.1745 373.107 64.9851 371.78C65.5535 373.107 66.3113 374.623 67.0691 375.949C68.2059 378.033 69.5321 380.686 71.6162 382.013C71.8057 382.202 71.9951 382.202 72.1846 382.013C71.6162 382.96 71.0478 383.908 70.29 384.666C70.6689 384.476 70.6689 384.287 70.4794 384.287ZM66.8797 388.834C66.6902 388.266 66.1218 387.697 65.7429 387.129C65.364 386.561 64.9851 385.992 64.7956 385.424C64.7956 384.666 64.9851 383.718 64.9851 382.771C64.9851 382.771 64.9851 382.96 65.1745 382.96C65.7429 384.287 66.3113 385.613 67.2586 386.561C67.4481 386.75 68.2059 386.75 68.2059 386.371C67.827 385.045 67.0691 383.908 66.3113 382.771C65.9324 382.013 65.364 381.255 64.9851 380.686C64.9851 380.307 64.9851 379.928 64.9851 379.549C64.9851 379.17 64.9851 378.602 64.9851 378.223C65.364 378.791 65.9324 379.549 66.3113 380.118C67.2586 381.634 68.0164 383.339 69.1532 384.666C69.3427 384.855 69.911 385.045 70.29 384.855C69.7216 385.424 69.1532 386.182 68.3954 386.939C67.6375 387.697 67.4481 387.697 66.8797 388.455C67.0691 388.645 66.8797 388.645 66.8797 388.834ZM66.3113 392.435C66.1218 392.056 65.7429 391.677 65.5535 391.487C64.9851 390.729 64.6062 390.161 64.0378 389.403C64.2272 388.455 64.4167 387.697 64.4167 386.939C64.7956 387.887 65.364 388.834 66.1218 389.592C66.1218 389.592 66.3113 389.782 66.5008 389.782C66.5008 390.729 66.5008 391.677 66.3113 392.435ZM63.8483 391.487C64.0378 391.677 64.2272 391.866 64.2272 392.245C64.6062 392.814 64.9851 393.572 65.7429 393.951C63.6589 396.035 63.4694 393.951 63.8483 391.487ZM67.6375 365.717C66.8797 365.527 65.9324 365.527 65.1745 365.338C64.4167 361.548 63.4694 357.947 63.4694 354.158C63.4694 350.936 63.8483 347.904 63.8483 344.683C64.7956 344.873 65.7429 345.062 66.6902 345.252C64.2272 351.315 65.364 359.653 67.6375 365.717ZM73.8897 371.022C73.3213 370.454 72.9424 369.696 72.374 369.127C73.3213 369.127 74.2686 369.317 75.4054 369.317C75.2159 370.264 75.2159 371.212 75.0265 372.349C74.6476 371.78 74.2686 371.401 73.8897 371.022ZM73.1319 366.285C72.1846 366.285 71.2373 366.096 70.1005 366.096C69.3427 362.495 68.3954 359.084 68.2059 355.295C68.0164 352.073 68.5848 348.852 68.3954 345.82C69.7216 346.01 71.0478 346.199 72.374 346.199L72.1846 346.389C70.8583 352.452 70.6689 360.221 73.1319 366.285ZM59.6802 354.916C59.8696 351.126 60.0591 347.336 60.2486 343.736C60.8169 343.925 61.3853 344.115 61.9537 344.304C60.2486 350.557 61.7642 359.274 63.8483 365.338C63.2799 365.148 62.7116 365.148 61.9537 364.959C61.1959 364.769 60.2486 364.58 59.4907 364.39C60.0591 361.169 59.6802 358.137 59.6802 354.916ZM53.6175 340.893C54.1858 341.272 54.7542 341.462 55.3226 341.841C53.6175 347.336 52.6701 355.105 54.7542 360.411C54.9437 360.6 55.5121 360.79 55.5121 360.411C56.2699 357.568 56.0804 354.726 56.2699 351.694C56.4594 348.473 56.6488 345.441 56.8383 342.22C57.2172 342.409 57.7856 342.599 58.1645 342.788C56.8383 349.041 55.7015 357.379 57.5961 363.632C55.7015 363.253 53.8069 362.685 51.9123 361.927C52.1018 354.916 52.2912 348.094 53.6175 340.893ZM41.492 287.457C41.6814 290.11 42.2498 292.763 43.1971 295.795C43.955 298.258 44.5233 300.532 45.0917 302.995C42.8182 297.689 40.3552 292.573 41.492 287.457ZM46.9863 281.014C46.7969 280.635 46.2285 280.446 45.6601 280.446C46.418 279.688 46.9863 278.93 47.5547 278.172C47.3653 279.119 47.1758 280.067 46.9863 281.014ZM58.354 250.506C58.354 250.696 58.354 250.885 58.354 251.075C58.354 250.885 58.354 250.696 58.354 250.506ZM56.4594 215.64C56.4594 216.019 56.4594 216.588 56.4594 216.967C56.2699 216.777 56.0804 216.777 55.7015 216.588C56.0804 216.209 56.2699 216.019 56.4594 215.64ZM61.1959 278.74C61.1959 278.172 61.1959 277.414 61.1959 276.846C61.3853 276.846 61.3853 276.656 61.5748 276.467C61.3853 277.414 61.3853 278.172 61.1959 278.74ZM57.0277 305.08C57.4067 302.995 57.975 301.1 58.5434 299.016V299.205C58.1645 301.29 57.5961 303.374 57.0277 305.459C57.0277 305.269 57.0277 305.269 57.0277 305.08ZM44.3339 283.857C44.3339 284.236 44.3339 284.425 44.5233 284.804C44.3339 284.425 44.3339 284.046 44.3339 283.857C44.3339 283.667 44.1444 283.667 44.3339 283.857ZM50.7755 315.123C50.7755 315.312 50.7755 315.502 50.965 315.691C50.965 315.881 50.965 316.07 50.7755 316.26C50.7755 315.881 50.7755 315.502 50.7755 315.123ZM87.3414 208.818C87.3414 208.818 87.3414 209.008 87.3414 208.818C87.7203 209.576 88.2887 210.145 88.8571 210.713C89.236 211.092 89.6149 211.471 89.9939 211.661C87.5309 211.85 85.0679 212.04 82.7944 212.229C83.1733 212.04 83.3627 211.85 83.7417 211.661C84.8784 210.713 86.0152 209.955 87.3414 208.818ZM95.6777 202.186C98.5196 205.787 105.34 212.419 103.824 217.725C102.688 216.019 101.551 214.503 100.793 213.556C100.604 213.366 100.225 213.177 99.8458 213.177C99.2774 212.798 98.8985 212.608 98.3301 212.419C97.9512 212.229 97.5723 212.229 97.1934 212.04C97.0039 211.661 96.4355 211.471 95.8671 211.471C95.2988 211.471 94.7304 211.471 94.162 211.661C94.162 211.471 94.162 211.282 94.162 210.903C93.7831 209.766 92.4568 209.387 91.5095 208.629C91.1306 208.25 90.7517 207.871 90.3728 207.682C89.9939 207.303 89.4255 207.113 89.0466 206.734C88.4782 206.166 87.152 206.166 86.773 206.734C84.8784 207.303 83.1733 208.061 81.2787 209.008C79.5735 209.955 77.4895 210.713 76.5422 212.229C76.3527 212.419 76.3527 212.608 76.3527 212.798C71.8056 212.987 63.2799 212.419 59.6802 214.693C59.4907 214.693 59.4907 214.882 59.3013 214.882C62.901 203.513 77.1105 198.775 87.7203 195.933C91.699 196.123 93.0252 198.775 95.6777 202.186ZM194.387 265.287C193.439 263.202 192.681 261.118 191.545 259.223C191.355 259.033 191.166 258.844 190.976 258.844C191.355 258.465 191.924 257.896 192.303 257.518C193.439 261.307 194.766 265.097 196.092 268.887C195.902 268.887 195.902 268.887 195.713 268.887C195.334 267.56 194.766 266.424 194.387 265.287ZM178.093 276.467C177.904 275.709 177.714 274.761 177.525 274.003C176.956 271.729 176.577 269.455 176.198 267.182C176.198 267.182 176.198 267.182 176.198 266.992C177.335 266.613 178.472 266.234 179.609 265.855C179.609 267.561 179.798 269.266 180.177 270.971C180.367 272.487 180.745 274.193 181.693 275.519C180.367 275.898 179.23 276.277 178.093 276.467ZM172.788 277.793C172.599 276.088 172.22 274.193 172.03 272.487C171.841 271.161 171.841 269.645 171.841 268.318C172.409 268.129 172.788 268.129 173.356 267.939C173.546 270.024 173.735 271.919 174.114 274.003C174.304 275.14 174.304 276.467 174.683 277.414C174.114 277.414 173.356 277.604 172.788 277.793ZM168.052 274.761C167.862 272.866 167.483 270.971 167.104 269.076C168.052 268.887 169.188 268.697 170.136 268.508C170.136 270.024 170.325 271.35 170.515 272.866C170.704 274.572 170.704 276.277 170.893 277.982C169.946 278.172 168.999 278.361 168.241 278.361C168.431 277.225 168.241 276.088 168.052 274.761ZM152.137 274.761C152.137 273.245 152.326 271.729 152.516 270.403C152.895 270.403 153.274 270.403 153.653 270.403C153.653 272.487 153.842 274.572 153.653 276.656C153.653 277.793 153.463 278.74 153.653 279.688C153.084 279.688 152.516 279.688 151.947 279.688C152.326 277.982 152.137 276.277 152.137 274.761ZM148.916 279.688C148.916 278.93 148.727 278.172 148.727 277.414C148.537 275.14 148.537 273.056 148.537 270.782C148.537 270.592 148.537 270.403 148.348 270.403C149.106 270.403 149.863 270.403 150.621 270.403C150.432 271.161 150.242 272.108 150.242 273.056C150.053 275.33 150.053 277.793 150.811 279.688C150.242 279.688 149.674 279.688 148.916 279.688ZM140.011 275.898C140.011 274.003 139.822 272.108 139.633 270.213C141.717 270.213 143.801 270.213 145.885 270.213C145.885 270.403 145.695 270.403 145.695 270.592C145.506 273.056 145.506 275.33 145.506 277.793C145.506 278.361 145.506 279.119 145.695 279.688H145.506C143.611 279.688 141.906 279.688 140.011 279.498C140.201 278.361 140.011 277.225 140.011 275.898ZM133.191 275.519C133.001 273.624 132.812 271.729 132.812 269.834C134.328 270.024 135.654 270.024 137.17 270.024C136.98 271.919 136.791 273.814 136.791 275.898C136.791 277.035 136.601 278.172 136.791 279.309C135.654 279.309 134.517 279.119 133.57 278.93C133.38 277.793 133.191 276.656 133.191 275.519ZM116.329 271.919C116.518 270.213 116.518 268.508 116.708 266.613C118.223 267.182 119.929 267.561 121.634 268.129C121.255 270.403 121.065 272.677 121.065 275.14C121.065 277.225 125.044 277.225 125.044 275.14C125.044 273.056 124.855 270.971 124.665 268.887C126.56 269.266 128.454 269.455 130.159 269.645C129.97 271.54 129.591 273.624 129.591 275.519C129.591 276.467 129.591 277.604 129.781 278.551C125.044 277.982 120.497 276.846 115.95 275.519C116.139 274.572 116.139 273.245 116.329 271.919ZM110.077 270.403C110.266 268.318 110.645 266.424 111.024 264.339C112.161 264.908 113.108 265.476 114.245 265.855C113.866 267.561 113.487 269.455 113.298 271.161C113.108 272.108 112.729 273.435 112.729 274.572C111.782 274.193 110.835 273.814 109.887 273.435C109.887 272.298 109.887 271.35 110.077 270.403ZM102.309 269.645C103.067 266.234 103.446 262.634 104.203 259.223C105.34 260.549 106.666 261.686 108.182 262.634C107.614 264.529 107.045 266.613 106.666 268.697C106.477 269.645 106.287 270.782 106.098 271.919C104.772 270.971 103.635 270.403 102.309 269.645ZM162.936 279.119C162.936 277.035 162.178 275.14 162.178 273.056C162.178 272.298 160.852 272.298 160.852 273.056C160.473 275.14 159.905 277.414 160.094 279.309C159.147 279.309 158.01 279.498 157.063 279.498C157.442 278.551 157.252 277.225 157.252 276.088C157.252 274.003 156.873 272.108 156.494 270.024C159.147 269.834 161.989 269.645 164.831 269.266C164.831 271.161 164.641 273.056 164.831 275.14C164.831 276.467 164.831 277.603 165.21 278.93C164.262 278.93 163.694 279.119 162.936 279.119ZM191.734 270.971C191.355 270.024 190.787 269.076 190.408 268.318C189.65 266.613 188.703 264.908 187.945 263.202C187.755 262.444 186.05 262.634 186.429 263.392C187.187 265.287 187.566 267.182 188.134 269.076C188.513 270.213 188.703 271.35 189.271 272.298C188.892 272.487 188.513 272.677 188.134 272.866C187.945 271.919 187.377 271.161 187.187 270.213C186.429 268.318 185.671 266.424 184.724 264.529C184.535 263.96 183.398 263.96 183.587 264.718C183.966 266.803 184.345 268.697 184.724 270.782C184.914 271.919 185.103 273.056 185.482 274.003C185.103 274.193 184.724 274.382 184.345 274.382C184.345 273.245 183.777 272.108 183.398 270.971C182.83 269.266 182.64 267.371 182.451 265.666C182.451 265.287 182.261 265.097 182.072 264.908C184.724 263.581 187.377 262.065 189.65 260.17C189.84 262.255 190.408 264.15 191.166 266.234C191.734 267.75 192.113 269.266 192.871 270.592C192.303 270.592 191.924 270.782 191.734 270.971ZM186.429 237.432C186.05 238.379 186.808 238.947 187.566 239.137C187.377 241.79 187.945 245.011 188.703 247.285C188.892 248.232 189.461 248.99 190.029 249.559C190.408 251.264 190.787 252.97 191.355 254.675C190.976 254.675 190.787 254.675 190.597 254.865C176.767 263.202 164.641 266.045 148.537 266.234C130.538 266.424 116.518 264.718 101.93 253.538C101.74 253.349 101.172 253.349 100.983 253.349C101.551 250.506 101.93 247.854 102.309 245.011V244.822C103.067 243.874 103.446 242.927 103.635 241.79C103.635 241.221 103.635 240.274 103.635 239.516C103.635 239.516 103.635 239.516 103.824 239.516C114.624 238.379 109.887 227.578 105.34 219.809C106.287 219.809 107.235 219.619 107.424 218.861C108.182 216.967 108.182 215.261 107.803 213.745C120.876 215.64 134.517 213.745 147.779 214.314C161.61 214.693 176.198 216.209 190.218 215.072C188.324 219.24 188.703 221.514 190.218 226.062C190.218 226.252 190.408 226.441 190.408 226.441C188.324 229.283 187.566 234.21 186.429 237.432ZM94.7304 194.417C112.161 195.554 129.97 194.986 147.59 195.175C164.831 195.365 182.261 195.933 199.502 195.175C197.229 198.207 195.334 201.618 194.576 203.513C193.439 205.787 192.681 207.113 194.008 209.197C193.629 209.576 193.439 209.955 193.25 210.145C192.871 209.955 192.492 209.955 192.113 209.955C177.714 208.818 162.557 210.524 148.158 211.282C134.707 212.04 120.876 210.334 107.614 212.419C106.666 210.334 104.961 208.25 103.256 205.976C100.793 202.755 97.7617 197.828 94.162 194.986C94.162 194.796 94.5409 194.607 94.7304 194.417ZM198.744 190.248C198.934 190.817 199.313 191.385 199.691 191.954C199.313 191.954 198.744 191.954 198.365 191.954L198.744 190.248ZM79.1946 193.659C79.0051 193.091 79.0051 192.333 78.8157 191.575C79.3841 191.575 79.9525 191.575 80.5208 191.575C80.8998 192.143 81.2787 192.712 82.0365 193.091C82.4154 193.28 82.6049 193.47 82.9838 193.659C82.6049 193.849 82.4154 193.849 82.0365 194.038C81.2787 194.417 80.3314 194.796 79.5735 194.986C79.3841 194.417 79.1946 194.038 79.1946 193.659ZM6.25233 336.346C6.25233 336.156 6.25233 335.967 6.25233 335.777C6.25233 335.209 6.25233 334.451 6.44179 333.882C6.63125 333.693 6.82071 333.503 7.01017 333.314C7.19963 333.693 7.57855 334.072 7.95747 334.451C7.19963 335.209 6.63125 335.777 6.25233 336.346ZM7.01017 342.599C6.82071 341.272 6.63125 339.756 6.44179 338.43C7.19963 337.672 8.14693 336.725 8.90477 335.777C9.47315 336.346 10.0415 337.103 10.6099 337.672C9.09423 339.188 7.95747 340.893 7.01017 342.599ZM10.0415 345.062C9.47315 346.01 8.71531 346.768 7.95747 347.525C7.95747 347.146 7.76801 346.768 7.76801 346.389C7.57855 345.82 7.57855 345.441 7.38909 344.873C9.09423 342.978 10.6099 341.083 11.5572 338.809C11.9361 339.188 12.3151 339.567 12.5045 340.135C12.5045 340.325 12.694 340.325 12.694 340.514C11.7467 341.841 10.9888 343.546 10.0415 345.062ZM11.9361 349.61C11.5572 350.178 11.1783 350.747 10.7994 351.315C10.231 350.368 9.66261 349.61 9.09423 348.662C11.1783 346.768 13.0729 344.494 14.0202 342.03C14.3991 342.599 14.778 343.357 14.9675 344.115C13.8307 346.01 12.8834 347.904 11.9361 349.61ZM17.241 358.137C16.4832 358.705 15.7254 359.274 14.9675 360.032C14.5886 359.084 14.2097 357.947 13.6413 357C14.778 355.295 15.5359 353.589 15.9148 351.694C16.1043 351.126 15.157 351.126 14.778 351.505C14.0202 352.642 13.2624 353.968 12.5045 355.105C12.1256 354.537 11.9361 353.968 11.5572 353.4C13.2624 351.315 14.5886 349.041 15.5359 346.768C16.6727 350.368 17.0516 354.347 17.241 358.137C17.241 357.947 17.4305 357.947 17.241 358.137ZM16.1043 362.685L15.9148 362.874C15.9148 362.685 15.9148 362.685 15.7254 362.495C16.4832 361.737 17.0516 360.79 17.62 360.032C17.62 360.6 17.62 361.358 17.62 361.927C17.0516 361.927 16.4832 362.306 16.1043 362.685ZM16.8621 371.022C16.2937 371.212 15.9148 371.401 15.3464 371.591H15.157C15.3464 370.454 15.7254 369.506 15.7254 368.559C16.1043 368.369 16.4832 368.18 16.6727 367.99C16.8621 367.801 17.0516 367.801 17.241 367.611C17.241 368.748 17.0516 369.885 16.8621 371.022ZM10.6099 381.823C11.1783 380.876 11.7467 379.928 12.3151 378.791C12.3151 378.791 12.5045 378.791 12.5045 378.602C12.694 378.602 12.8834 378.412 13.0729 378.412C12.5045 379.549 11.5572 380.686 10.6099 381.823ZM10.9888 357.758C10.9888 357.568 10.9888 357.379 10.7994 357.189C10.7994 357.379 10.9888 357.568 10.9888 357.758ZM17.62 365.527C17.0516 365.717 16.4832 366.096 15.9148 366.475C15.9148 365.717 15.9148 365.148 15.9148 364.39C16.2937 364.201 16.6727 364.011 17.0516 363.822C17.241 363.632 17.4305 363.632 17.62 363.443C17.62 364.201 17.62 364.959 17.62 365.527ZM8.71531 322.702C10.4205 321.565 12.1256 320.428 13.6413 319.102C13.6413 319.481 13.6413 319.86 13.6413 320.049C12.3151 321.186 10.9888 322.513 9.66261 323.839C9.09423 324.408 8.52585 324.976 7.95747 325.545C8.14693 324.597 8.33639 323.65 8.71531 322.702ZM9.66261 317.775C10.7994 316.828 11.7467 316.07 12.8834 315.123C13.2624 314.933 13.4518 314.744 13.8307 314.365C13.8307 315.312 13.8307 316.07 13.8307 317.018C12.3151 318.154 10.7994 319.291 9.28369 320.618C9.28369 319.67 9.47315 318.723 9.66261 317.775ZM10.231 313.228C11.1783 312.47 12.1256 311.712 12.8834 310.954C13.0729 311.333 13.4518 311.901 13.6413 312.28C13.6413 312.659 13.6413 313.038 13.6413 313.228C12.8834 313.796 12.3151 314.365 11.5572 314.933C10.9888 315.502 10.231 316.07 9.66261 316.639C10.0415 315.312 10.0415 314.175 10.231 313.228ZM15.7254 320.428C15.7254 320.997 15.7254 321.376 15.7254 321.944C15.7254 321.565 15.7254 320.997 15.7254 320.428C15.7254 320.618 15.7254 320.618 15.7254 320.428ZM15.7254 317.018C15.7254 317.775 15.7254 318.533 15.7254 319.102C15.7254 319.102 15.7254 319.102 15.5359 319.102C15.7254 318.344 15.7254 317.775 15.7254 317.018ZM10.7994 306.975C11.1783 307.732 11.5572 308.49 11.9361 309.248C11.7467 309.438 11.5572 309.627 11.5572 309.627C11.1783 310.006 10.7994 310.196 10.6099 310.575C10.6099 309.438 10.7994 308.301 10.7994 306.975ZM7.57855 330.282C7.38909 330.092 7.19963 329.903 7.01017 329.903C7.19963 329.334 7.19963 328.766 7.38909 328.197C8.71531 327.061 10.231 325.924 11.5572 324.597C12.3151 323.839 13.0729 323.271 13.8307 322.513C13.8307 322.892 13.8307 323.271 13.8307 323.839C12.8834 324.787 11.9361 325.924 10.7994 326.871C9.85207 328.197 8.71531 329.334 7.57855 330.282ZM14.9675 375.949C14.5886 375.949 14.0202 375.949 13.6413 376.139C14.0202 375.191 14.3991 374.244 14.778 373.296C15.3464 373.296 15.9148 373.296 16.2937 373.107C15.9148 374.054 15.5359 375.002 14.9675 375.949ZM9.47315 332.745C9.28369 332.366 8.90477 332.177 8.71531 331.798C9.66261 330.85 10.6099 329.903 11.3678 328.766C12.1256 327.818 13.0729 327.061 14.0202 326.113C14.0202 326.492 14.0202 326.871 14.2097 327.061C12.8834 328.576 11.5572 330.092 10.4205 331.608C10.0415 332.177 9.66261 332.366 9.47315 332.745ZM114.624 488.885C115.192 488.885 115.571 488.506 115.571 488.127C116.329 484.148 117.087 480.169 117.845 476C118.034 476 118.223 476 118.413 475.811C119.739 474.863 120.876 473.916 122.013 473.158C121.823 474.105 121.634 474.863 121.444 475.811H121.255C120.876 475.811 120.308 475.811 120.118 476.189C120.118 476.379 120.118 476.379 120.118 476.568C120.118 476.758 120.118 476.758 120.118 476.947V477.137V477.326C119.739 477.895 120.308 478.463 120.876 478.463C120.497 479.79 120.308 481.116 119.929 482.443C119.739 482.253 119.55 482.253 119.36 482.253C118.034 482.253 118.034 483.959 119.36 483.959C119.55 483.959 119.55 483.959 119.55 483.959C119.36 484.527 119.171 485.285 118.981 485.853C118.792 485.664 118.602 485.475 118.413 485.475C118.034 485.475 117.655 485.664 117.466 485.853C117.655 485.664 117.655 485.475 117.466 485.853C117.466 485.853 117.276 486.043 117.276 486.232C117.087 486.422 117.087 486.611 116.897 486.801C116.708 486.99 116.708 487.369 116.708 487.559C116.708 487.938 117.087 488.127 117.466 488.127C117.845 488.317 118.034 488.127 118.413 488.127C118.413 488.127 118.602 488.127 118.602 487.938C118.034 490.401 117.276 492.865 116.708 495.518C116.518 495.518 116.329 495.518 116.139 495.518L115.95 495.707C115.95 495.707 115.76 495.518 115.571 495.518C115.003 495.518 114.813 496.086 115.192 496.275C114.813 496.844 114.434 497.602 114.245 498.36C114.055 498.36 114.055 498.36 113.866 498.17C114.245 496.844 114.813 495.517 115.382 494.191C115.571 494.191 115.571 494.381 115.76 494.381C116.139 494.381 116.897 494.381 116.897 493.812C117.087 493.244 117.087 492.865 117.087 492.296C117.087 491.728 116.139 491.538 115.76 491.917C115.76 491.538 115.76 491.349 115.76 490.97C115.76 490.212 114.624 490.212 114.245 490.78C114.055 491.159 113.866 491.538 113.676 491.917C114.245 490.97 114.434 490.022 114.624 488.885ZM113.487 510.487C113.108 508.971 112.729 507.455 112.35 505.939C112.161 504.234 111.971 502.529 111.971 500.823C113.108 500.634 114.434 500.634 115.571 500.823C115.571 501.013 115.76 501.202 115.95 501.202C115.571 503.855 115.192 506.697 114.245 509.161C114.055 509.729 113.866 510.108 113.487 510.487ZM199.691 491.159C199.313 490.97 198.934 490.78 198.744 490.78C198.555 487.369 197.986 483.769 197.418 480.358C197.418 479.979 196.471 479.979 196.471 480.358C196.66 483.58 196.66 486.801 197.229 490.022C197.229 490.022 197.039 490.022 197.039 489.833C193.629 477.516 190.029 465.389 191.924 453.072C193.25 444.924 193.818 439.997 189.271 432.607C182.83 421.806 183.019 412.142 183.587 399.825C184.724 378.033 187.187 356.053 184.156 334.261C182.64 323.65 180.745 312.47 182.83 301.669C185.103 290.299 191.924 285.183 199.881 278.172C200.07 278.93 200.449 279.498 200.639 280.256C198.365 281.204 196.092 282.72 194.387 284.425C192.681 286.131 190.787 288.594 190.408 291.057C190.408 291.626 191.166 291.626 191.355 291.247C193.06 289.352 194.197 287.078 195.902 285.183C197.418 283.667 199.123 282.341 201.018 281.204C201.965 283.478 203.291 285.562 205.375 286.51C205.565 288.025 205.944 289.731 206.512 291.057C206.702 291.247 207.08 291.436 207.08 291.057C207.08 289.731 206.891 288.215 206.512 286.889C206.702 286.889 206.891 286.889 206.891 286.699C208.217 287.457 209.733 288.025 211.249 287.836C213.143 287.646 213.901 285.183 211.628 284.804C210.112 284.425 208.596 284.425 207.27 283.478C206.133 282.72 204.428 281.393 203.86 280.067C203.67 279.877 203.481 279.877 203.291 279.877C201.207 275.898 199.502 270.971 198.176 267.182C196.092 261.686 194.197 256.002 192.492 250.506C192.871 250.696 193.25 250.696 193.818 250.696C199.691 250.696 199.502 242.548 199.881 238C201.397 238.189 202.912 238 204.239 237.811C200.07 244.822 198.934 254.486 199.123 262.255C199.123 263.771 201.965 263.771 201.776 262.255C201.207 252.97 203.86 245.769 206.512 237.053C207.27 236.863 208.028 236.484 208.786 236.105C209.165 235.916 209.733 235.537 209.543 234.968C209.354 233.263 207.459 233.642 206.323 234.21C203.291 235.537 200.449 235.726 197.229 235.158C195.523 234.779 194.576 236.863 196.471 237.432C196.66 237.432 197.039 237.621 197.418 237.621C197.418 240.653 195.523 250.506 192.492 247.285C191.355 245.959 190.976 243.874 190.597 242.169C190.218 240.842 189.84 239.705 189.461 238.379C189.84 238.189 190.218 238 190.218 237.621C191.166 235.158 191.734 231.747 193.06 229.473C195.523 225.494 199.313 225.304 203.481 224.357C208.596 223.03 214.09 220.567 219.395 220.377C220.532 220.377 221.101 218.861 219.774 218.482C216.932 217.725 214.469 218.672 211.628 219.43C206.702 220.567 201.776 221.893 196.85 223.22C195.713 223.599 194.576 223.788 193.818 223.978C191.734 214.693 197.229 206.166 208.217 207.682C213.901 208.439 219.585 208.25 225.269 209.387C226.216 209.576 227.353 208.439 226.216 207.871C221.101 205.218 214.848 206.166 209.165 205.218C204.996 204.65 201.586 203.892 197.797 205.976C197.418 206.166 197.229 206.355 196.85 206.545C197.229 203.134 200.828 198.396 202.723 196.502C204.617 192.143 208.407 191.006 214.09 192.901C216.175 193.659 218.259 194.607 220.153 195.744C224.321 197.639 229.247 199.154 232.847 202.186C240.615 208.629 236.826 217.914 234.552 226.062C231.142 238.947 222.427 256.381 227.353 269.834C228.868 285.752 233.037 302.237 237.394 317.207C236.068 317.396 234.742 317.965 233.415 318.344C226.026 320.997 220.722 323.46 212.575 322.513C211.628 313.228 210.301 304.132 208.028 295.037C208.028 294.847 207.459 294.847 207.459 295.037C208.975 304.89 209.922 314.744 210.68 324.597C210.68 324.218 210.491 324.029 210.491 323.65C210.491 323.46 209.922 323.46 209.922 323.65C207.08 328.197 207.649 335.398 209.543 340.325C210.112 341.651 210.68 342.599 211.628 343.357C207.838 359.084 200.449 374.433 204.049 390.54C204.807 402.288 208.596 414.416 214.09 424.269C207.649 436.018 202.344 448.903 206.512 462.357C208.596 469.178 212.764 475.242 214.659 482.253C216.553 488.885 215.227 495.707 217.122 502.15C216.743 502.339 216.364 502.718 216.175 503.097C215.606 504.424 215.038 505.561 214.659 506.887C213.712 505.561 212.954 504.234 212.006 502.908C211.438 501.96 209.543 501.96 209.165 503.097C208.596 504.234 208.217 505.371 207.649 506.508C207.27 506.508 207.08 506.508 206.702 506.697C206.133 505.75 205.565 504.613 205.186 503.476C204.807 502.718 203.86 502.529 203.102 502.718C202.912 500.444 201.586 498.36 200.639 496.275C200.449 496.086 200.07 496.086 200.07 496.465C200.828 498.739 201.018 501.392 201.965 503.666C201.776 503.855 201.397 504.234 201.207 504.424C200.639 501.013 199.691 497.791 198.744 494.381C200.26 495.139 202.154 492.296 199.691 491.159ZM204.617 515.982C204.049 515.793 203.481 515.604 202.912 515.414C202.723 514.846 202.533 514.277 202.533 513.519C202.533 512.761 202.154 512.382 201.586 512.193C201.397 510.487 201.207 508.782 201.018 507.266C201.776 507.076 202.344 506.887 202.723 506.697C203.481 508.403 204.428 509.729 205.754 511.435C205.944 511.624 206.133 511.814 206.323 511.814C206.702 514.656 207.27 517.498 208.975 519.393C207.649 519.014 206.702 518.635 205.754 518.067C205.944 517.309 205.754 516.361 204.617 515.982ZM231.71 524.131V523.941C233.226 523.941 234.552 523.752 236.068 523.752C237.015 523.752 238.152 523.562 239.099 523.562C236.636 523.752 234.173 523.941 231.71 524.131ZM265.624 509.35C265.245 512.572 263.919 514.088 262.213 515.224C260.319 512.193 259.561 508.592 258.614 504.992C259.75 504.234 260.319 503.097 260.698 501.771C261.266 502.718 261.835 503.476 262.592 504.424C263.161 504.992 264.108 505.182 265.055 504.803C265.245 504.803 265.434 504.992 265.434 504.992C265.624 506.508 265.813 508.024 265.624 509.35ZM243.646 196.123C244.594 200.67 246.867 204.46 248.383 208.439C246.109 205.218 243.646 201.997 241.373 198.965C234.931 190.627 243.267 192.522 241.752 177.742C241.373 174.521 240.994 171.868 240.615 169.783C242.888 172.626 244.404 175.847 244.215 180.395C243.836 185.89 242.51 191.006 243.646 196.123ZM214.848 169.404C215.227 169.783 215.796 170.352 216.364 170.92C215.796 170.92 215.227 171.11 214.659 171.299C214.659 170.731 214.659 170.162 214.848 169.404ZM206.891 179.826C208.975 177.742 212.385 174.521 214.469 174.331C219.206 173.763 220.343 177.742 222.237 180.963C222.427 181.342 222.806 181.532 222.995 181.721C224.132 187.027 226.595 192.143 229.437 196.691C223.942 193.849 217.311 191.385 211.628 190.059C209.165 189.49 207.27 188.732 204.807 189.869C204.049 190.248 203.102 191.006 202.344 191.764C201.776 190.059 201.207 190.438 201.397 187.596C201.586 184.185 203.291 183.048 205.565 180.963C205.754 180.774 205.754 180.774 205.944 180.584C206.512 180.395 206.702 180.205 206.891 179.826ZM83.1733 177.742C83.5522 177.932 83.7417 177.932 84.1206 177.742C85.8257 180.395 87.5309 182.858 88.8571 185.701C89.9939 188.164 90.5622 191.006 91.699 193.47C91.5096 193.28 91.3201 193.28 91.1306 193.091C89.0466 192.143 87.152 192.143 85.2573 192.522C85.2573 192.333 85.2574 192.143 85.0679 192.143C85.2574 192.333 85.0679 191.764 84.8784 191.764C84.689 191.575 84.4995 191.385 84.4995 191.006C84.1206 190.627 83.9311 190.059 83.5522 189.68C82.9838 188.732 82.9838 187.596 82.6049 186.648C82.226 184.753 79.0051 185.511 78.8157 187.027C78.8157 187.406 78.8157 187.785 78.8157 188.164C78.6262 188.164 78.4368 188.164 78.2473 188.164C76.7316 187.975 75.4054 187.406 74.0792 186.648C72.9424 185.89 70.29 183.995 69.5321 186.459C69.3427 187.027 69.5321 187.596 70.1005 187.975C71.4267 188.922 73.3213 190.059 75.2159 190.817C74.837 192.333 75.2159 194.417 75.4054 195.744C75.4054 195.933 75.5949 196.123 75.5949 196.312C71.9951 198.018 68.5848 199.912 65.1745 201.997C66.1218 195.933 65.5535 189.301 65.5535 183.237C65.5535 182.479 65.5535 181.721 65.5535 180.963C66.1218 179.258 66.6902 177.742 67.827 176.416C68.3954 176.037 69.1532 175.658 70.1005 175.468C74.837 174.521 79.1946 176.416 83.1733 177.742ZM64.6062 107.441C63.8483 103.841 65.1745 100.43 66.8797 96.8296C66.6902 100.619 66.6902 104.599 66.8797 108.957C66.8797 108.957 66.6902 111.42 65.7429 115.21C65.364 112.747 65.1745 110.094 64.6062 107.441ZM142.853 487.748C137.738 487.369 132.433 486.99 127.318 487.559C126.749 486.232 124.097 486.422 123.528 487.748V487.938C122.96 487.938 122.392 488.127 122.013 488.127C122.96 485.475 123.718 482.632 124.665 479.979V479.79C146.264 483.959 168.241 482.822 189.65 477.516C190.029 479.411 190.408 481.116 190.787 483.011C191.166 484.717 191.545 486.422 191.734 488.317C182.451 485.854 172.03 485.854 162.936 487.18C156.116 488.127 149.863 488.317 142.853 487.748ZM180.367 508.592C178.472 502.908 178.472 497.412 180.745 491.917C181.503 492.107 182.451 492.107 183.208 492.296C180.745 497.033 181.693 503.855 182.83 509.161C181.882 508.782 181.124 508.782 180.367 508.592ZM185.671 509.729C184.724 506.697 184.345 503.476 184.535 500.255C184.724 497.602 185.482 495.139 185.671 492.486C188.134 492.865 190.408 493.244 192.871 493.623C194.197 500.444 195.523 507.076 197.986 513.519C193.818 512.193 189.84 510.677 185.671 509.729ZM298.4 352.831C305.032 340.514 300.863 327.061 298.021 313.796C304.463 293.331 295.748 269.076 286.275 251.075C282.107 243.116 277.749 233.831 271.118 227.389C267.518 223.978 263.161 222.083 258.993 220.188C257.287 213.556 260.508 205.597 256.719 198.965C255.203 196.312 252.74 194.038 251.793 191.196C250.656 188.164 250.846 184.564 250.656 181.342C250.467 176.795 249.899 173.005 247.814 169.025C244.025 162.014 237.205 157.277 232.468 151.024C229.816 147.424 227.921 143.444 226.405 139.465C226.405 139.275 226.405 139.275 226.405 139.086C229.626 140.223 233.984 139.844 236.826 139.086C242.699 137.57 247.057 132.833 245.92 126.769V126.58C245.73 125.632 243.836 125.822 243.836 126.769C243.267 136.433 232.279 135.107 227.353 129.801C226.974 129.422 226.784 129.043 226.405 128.854C226.405 128.475 226.405 128.096 226.405 127.527C226.405 127.338 226.405 126.959 226.405 126.769C227.163 127.527 227.732 128.285 228.679 128.854C231.331 130.369 236.826 129.801 236.826 125.822C236.826 124.874 235.31 124.685 234.931 125.443C231.521 130.369 227.732 125.064 225.837 121.842C225.837 121.842 225.837 121.842 225.837 121.653C223.374 110.283 215.038 102.135 215.038 102.135V102.893C215.038 99.1035 214.848 95.5032 214.848 91.7134C214.469 74.8487 214.28 57.4156 212.196 40.7404C212.196 37.7086 212.196 34.4873 211.817 31.4554C211.628 28.6131 211.249 25.9602 208.786 24.0653C205.754 21.7914 201.018 21.9809 197.418 21.7914C194.008 21.6019 190.408 21.6019 186.998 21.9809C182.64 18.3806 164.262 3.78981 154.41 0.94745C143.422 -2.27389 138.685 3.78981 138.685 3.78981C122.013 -7.57962 98.3301 17.6226 93.7831 22.7389C86.9625 22.9283 80.3314 25.2022 77.1105 31.8344C74.837 36.5717 75.5949 43.0143 75.5949 48.1306C75.5949 51.5414 75.5949 54.7627 75.5949 58.1736C69.911 61.5844 65.9324 67.4586 64.0378 73.9013C62.7115 78.2596 63.0905 82.8073 61.9537 87.3551C60.2486 94.1768 54.7542 96.0717 51.9123 101.756C50.965 103.462 50.965 104.788 51.5334 106.683C51.7228 107.441 52.2912 108.01 52.6701 108.578C52.6701 108.768 52.6701 108.768 52.8596 108.957C59.4907 117.484 50.5861 123.927 46.6074 130.748C44.3339 134.728 43.576 138.707 43.955 143.255C44.3339 148.561 46.039 153.487 47.1758 158.604C47.5547 159.93 47.7442 161.256 47.7442 162.583C47.1758 166.562 46.418 170.352 43.955 173.763C41.1131 177.742 35.0503 182.479 30.3138 179.068C28.9876 178.121 26.5246 179.826 28.2297 180.963C32.3979 184.185 38.8395 184.753 43.576 182.479C43.576 182.669 43.3866 182.858 43.3866 182.858C39.9763 186.838 36.566 190.817 34.8609 196.123C31.4506 206.166 30.8822 216.398 28.0403 226.252C22.3565 229.852 16.1043 233.263 11.7467 238.379C2.84204 248.801 5.68394 265.476 5.11556 278.172C4.35772 295.984 0.0001297 313.986 0.18959 331.608C0.18959 340.325 3.59988 348.283 4.54718 356.811C5.49448 364.39 4.16826 371.401 2.84204 378.602C1.32635 383.339 1.51581 388.266 2.0842 393.382C2.46312 397.93 3.0315 402.478 3.59988 406.836C3.59988 409.489 3.78934 412.142 3.9788 414.795C4.54718 420.479 5.68394 425.975 7.19963 431.47C7.95747 436.586 9.09423 441.702 11.3678 446.06C14.3991 451.745 18.3778 455.914 21.2197 461.22C22.167 473.726 21.0302 486.611 26.3351 498.17C28.4192 502.718 28.7981 505.56 29.556 510.487C29.9349 513.33 30.5033 515.793 31.8295 518.446C33.3452 521.288 35.0503 523.183 37.3238 524.699C36.1871 536.258 35.6187 548.196 35.9976 559.944C35.9976 560.323 35.9976 560.702 35.9976 561.081C35.9976 561.271 35.9976 561.46 35.9976 561.46C36.3765 571.882 37.5133 582.115 39.5974 591.968C39.5974 592.158 39.5974 592.347 39.7868 592.726C39.7868 592.916 39.7868 593.105 39.9763 593.484C40.5447 596.326 46.2285 595.379 45.6601 592.537C44.3339 586.094 43.3866 579.841 42.8182 573.398C43.1971 566.955 43.7655 560.513 44.5233 554.07C48.1231 552.933 51.9123 552.554 55.1331 551.417C60.2486 549.522 64.9851 546.869 69.1532 543.269C76.7316 537.016 82.4154 528.678 87.152 520.151C92.0779 520.72 96.8144 521.288 101.93 521.857C108.94 522.615 113.676 519.772 116.518 515.035C119.55 515.035 122.96 514.088 125.234 513.709C125.802 513.709 126.37 513.519 126.939 513.519C127.318 513.709 127.507 514.088 127.886 514.277C128.833 514.846 131.107 514.846 131.296 513.33C138.875 512.951 146.453 513.33 154.032 512.761C154.032 518.635 152.326 522.804 150.432 528.868C150.432 529.057 150.242 529.247 150.242 529.626C147.211 528.299 143.801 528.11 140.58 528.299C137.359 528.489 133.38 528.678 130.917 530.952C129.781 531.9 130.538 533.416 131.865 533.605C134.896 534.174 137.738 533.037 140.769 532.847C143.611 532.658 146.643 532.847 149.484 532.658C147.779 543.269 153.274 554.07 147.59 564.113C146.453 566.198 150.053 567.524 151.19 565.818C154.789 560.513 154.41 554.828 153.463 549.143C155.926 549.333 158.389 549.143 160.852 549.333C163.694 549.712 166.157 550.849 168.999 551.038C170.325 551.228 171.272 549.522 170.136 548.764C166.346 545.732 157.821 544.785 152.895 546.68C152.516 544.596 152.137 542.511 151.947 540.616C152.137 540.616 152.326 540.616 152.326 540.616C155.737 540.616 159.147 539.669 162.747 539.479C165.778 539.29 169.188 540.048 172.03 539.29C172.788 539.1 173.546 538.153 172.599 537.584C169.757 535.69 165.968 535.879 162.557 536.068C158.957 536.258 154.789 536.637 151.569 538.342C151.569 536.258 151.569 534.363 152.137 532.279C152.895 529.247 154.221 526.404 155.168 523.562C155.737 523.941 156.495 524.131 157.063 524.32C157.821 524.51 158.768 524.51 159.336 523.941C159.526 523.752 159.526 523.752 159.526 523.562C159.905 523.562 160.473 523.562 160.852 523.562C161.799 523.373 162.747 522.994 162.747 522.046C162.936 521.099 162.178 520.341 161.231 520.341C159.336 519.962 157.821 519.583 156.116 520.151C156.116 519.962 156.116 519.962 156.305 519.772C156.873 517.309 156.684 515.035 156.305 512.761C156.684 512.761 156.873 512.572 157.063 512.382C163.694 512.382 170.325 511.435 176.956 512.193C178.093 512.382 179.04 512.382 180.177 512.761C180.367 513.14 180.745 513.33 181.124 513.33C181.503 513.33 181.882 513.33 182.072 513.33C187.945 514.656 193.629 516.93 199.313 519.014C200.07 520.341 201.207 521.288 202.912 522.046C207.08 526.783 213.901 528.299 220.343 528.868C222.616 529.057 224.89 529.057 227.163 529.247C229.058 534.742 233.984 540.048 238.152 543.648C243.646 548.575 250.277 552.175 257.477 553.881H257.666C257.856 556.533 258.235 559.186 258.424 561.65C258.993 570.366 259.75 578.893 260.508 587.42C260.698 590.642 266.382 590.263 266.192 587.041C266.003 584.957 266.003 582.683 265.813 580.599C265.813 571.124 264.676 561.65 263.54 552.175C262.971 546.301 262.592 540.237 261.835 534.363C261.645 531.521 261.645 528.678 261.645 525.836C266.571 524.131 270.739 520.341 272.634 515.035C274.528 509.729 271.686 504.803 273.013 499.876C274.339 494.76 278.318 489.643 280.023 484.338C283.054 475.621 284.759 466.525 286.085 457.43C288.927 446.439 290.443 433.933 290.064 423.322C289.496 408.92 295.937 396.035 294.232 381.444C294.232 381.065 294.043 380.686 293.853 380.307C296.506 375.381 297.453 369.885 297.453 364.011C297.643 363.253 297.832 362.306 298.021 361.548C298.779 358.137 298.779 355.484 298.4 352.831Z" fill="black"/>
</g>
<path d="M118.201 99.8846C117.17 100.577 116.654 101.615 116.654 102.827C116.654 104.038 117.342 105.423 118.201 106.115C120.263 107.673 123.528 107.327 125.075 105.25C126.621 103.173 125.59 100.058 123.356 99.0193C120.779 97.8077 117.514 99.5385 117.17 102.308C116.826 105.423 119.404 107.154 121.981 106.981C124.731 106.808 126.793 104.212 125.762 101.442C125.246 100.231 124.044 99.1923 122.841 98.8462C120.95 98.327 119.06 99.5385 119.06 101.442C119.06 104.212 122.153 105.942 124.559 104.904C127.48 103.692 127.48 99.8846 125.075 98.1539C122.325 96.25 116.998 98.327 117.857 102.135C118.201 103.692 120.779 103.865 121.81 102.827C122.153 102.481 122.497 102.135 122.669 101.788L122.841 101.615C122.841 101.615 121.981 101.615 121.981 101.442C121.638 101.442 121.81 101.096 121.981 101.442C121.981 101.615 121.981 101.615 121.981 101.442C121.981 101.788 121.981 101.788 121.981 101.442C122.325 100.923 123.012 100.577 123.7 100.75C123.872 100.923 124.215 101.096 124.044 100.75C124.215 100.923 124.215 100.923 124.215 101.096C124.044 101.615 124.044 101.788 124.215 101.442C123.356 101.788 122.325 102.135 121.466 102.654C121.81 102.654 121.81 102.654 121.122 102.481C121.294 102.654 121.294 102.654 121.294 102.481C121.294 102.308 121.294 102.308 121.294 102.654C121.294 102.481 121.294 102.481 121.294 102.827C121.122 102.827 121.638 102.481 121.638 102.481C121.81 102.481 121.81 102.481 121.638 102.481C121.81 102.481 121.981 102.481 122.153 102.481C122.325 102.654 122.325 102.654 122.153 102.481C122.325 102.481 122.325 102.481 122.497 102.654L122.669 102.827C122.669 102.481 122.669 102.481 122.669 102.654C122.669 102.135 122.841 102.654 122.497 102.654C122.325 102.654 121.294 102.654 121.466 102.481L121.81 102.827C121.981 103.173 121.981 102.827 121.81 103.173C121.981 102.827 121.981 103.346 121.81 103.173C121.981 103.173 121.981 103.173 121.638 103.173H121.81C121.638 103.346 121.466 103 121.638 103.173C121.466 103 121.294 102.654 121.294 102.481C121.122 101.962 121.122 101.269 121.294 100.923C121.122 99.7116 119.232 99.3654 118.201 99.8846Z" fill="white"/>
<path d="M167.176 98.1539C166.489 99.0193 165.974 100.058 165.286 100.923C164.771 101.615 164.599 102.308 164.942 103.173C166.661 105.769 169.754 107.5 172.847 106.462C175.425 105.596 177.315 102.827 175.769 100.231C174.394 97.9808 171.473 96.9423 169.067 98.1539C166.661 99.3654 166.317 102.481 167.692 104.558C169.239 106.808 172.504 107.327 174.566 105.596C176.971 103.519 176.456 99.8846 173.363 98.8462C170.613 97.8077 167.52 99.8846 168.036 103C168.551 105.942 171.988 107.154 174.394 105.942C177.487 104.385 177.143 100.058 173.878 99.0193C170.441 97.8077 167.176 101.442 169.067 104.558C169.926 105.942 172.332 105.596 173.019 104.385C173.878 103 174.05 101.615 173.535 100.058C173.191 98.6731 171.129 98.327 170.098 99.0193C168.723 100.058 167.864 101.096 168.207 102.827C168.551 104.385 171.129 104.212 171.816 103.173C171.988 103 172.16 102.481 172.504 102.308C171.301 101.962 170.27 101.615 169.067 101.269C169.239 101.788 169.067 102.135 168.895 102.481C170.27 102.481 171.473 102.308 172.847 102.308C172.847 102.654 172.847 102.654 172.847 102.481C171.644 102.135 171.301 102.135 171.644 102.654C172.16 102.827 171.473 102.827 171.644 102.827C171.816 102.827 171.988 102.827 171.988 102.827V102.481C171.644 102.827 171.301 102.827 170.957 102.654C170.957 102.654 170.957 102.827 171.129 102.827C171.129 102.827 171.129 103 170.957 103C170.613 103.173 170.785 103.173 171.129 103.173C171.129 103 170.785 102.654 170.785 102.481C170.785 102.135 170.785 102.135 170.785 101.788C170.785 101.615 170.785 102.135 170.613 101.962C170.785 102.135 171.301 102.481 171.301 102.827C171.301 103.519 170.613 103.692 170.098 103.519C169.239 103.346 168.379 102.308 167.864 101.615C168.036 102.135 168.036 102.481 168.207 103C168.723 101.962 169.239 101.096 169.926 100.231C171.644 97.6346 168.379 96.5962 167.176 98.1539Z" fill="white"/>
<path d="M157.037 86.0385C162.364 83.9616 167.176 81.8846 173.018 82.0577C178.002 82.2308 182.47 85.3462 187.109 85C187.969 85 189.343 84.1346 188.828 83.0962C186.25 78.077 178.174 77.3846 173.19 77.3846C167.004 77.3846 159.443 79.1154 154.975 83.7885C153.6 85.3462 155.662 86.5577 157.037 86.0385Z" fill="white"/>
<path d="M108.749 82.9231C116.654 79.2885 124.73 79.6346 132.463 83.4423C135.213 84.6539 137.962 80.8462 134.869 79.2885C126.105 74.4423 115.107 75.1346 106.859 80.3269C104.796 81.5385 106.859 83.6154 108.749 82.9231Z" fill="white"/>
<path d="M142.602 110.962C142.259 114.596 142.087 118.404 141.915 122.038C141.743 124.981 140.884 128.788 141.571 131.731C142.774 136.404 147.929 134.846 151.366 134.673C152.913 134.5 154.288 132.769 152.741 131.558C151.71 130.692 150.851 130.346 149.476 130.346C148.961 130.346 147.414 130.865 147.07 130.692C146.039 130.173 146.383 127.923 146.383 127.058C146.383 121.692 146.383 116.327 146.211 110.962C146.211 108.885 142.774 109.058 142.602 110.962Z" fill="white"/>
<path d="M123.356 147.308C136.245 162.365 161.162 158.212 174.222 145.923C176.799 143.5 172.503 140.904 170.269 142.808C163.739 148.519 156.178 152.154 147.414 152.327C139.166 152.5 132.636 149.038 125.247 145.75C124.387 145.577 122.325 146.269 123.356 147.308Z" fill="white"/>
<defs>
<clipPath id="clip0_0_2659">
<rect width="302" height="595" fill="white"/>
</clipPath>
</defs>
</svg>
