<svg width="876" height="99" viewBox="0 0 876 99" fill="none" xmlns="http://www.w3.org/2000/svg">
<g clip-path="url(#clip0_51_21794)">
<path d="M266.652 5.1207C275.426 4.63302 283.957 5.36454 292.488 7.31528C295.657 8.04681 297.119 3.4138 293.95 2.43843C285.176 0.487696 275.914 -0.487674 266.895 1.10716e-05C263.483 0.243853 263.483 5.36454 266.652 5.1207Z" fill="black"/>
<path d="M428.497 42.9163C428.741 43.4039 429.228 43.8916 429.716 44.1355L429.959 44.3793C430.203 44.6232 430.691 44.6232 430.934 44.867C431.422 44.867 431.909 45.1108 432.397 44.867C432.884 44.867 433.372 44.867 433.859 44.6232C434.347 44.3793 434.834 44.1355 435.322 43.8916C436.053 43.4039 437.028 42.6724 437.271 41.697C437.515 41.2094 437.759 40.7217 437.759 40.234C438.003 39.5025 438.003 38.7709 437.759 38.0394C437.759 37.7956 437.515 37.3079 437.271 37.064C437.028 36.8202 437.028 36.5764 436.784 36.3325L436.54 36.0887C436.297 35.8448 436.053 35.601 435.809 35.601C434.834 35.1133 433.615 34.8695 432.64 35.1133C431.909 35.3571 431.422 35.601 430.934 36.0887C430.691 36.3325 430.447 36.5764 430.447 36.8202C429.959 36.8202 429.472 37.3079 428.984 37.5517C428.741 37.7956 428.741 37.7956 428.497 38.0394C428.253 38.2833 428.253 38.2833 428.253 38.5271C428.009 39.2586 427.766 39.5025 427.766 40.234C427.766 40.7217 427.766 41.2094 427.766 41.4532C428.253 42.1847 428.253 42.6724 428.497 42.9163Z" fill="black"/>
<path d="M592.044 92.9039C590.094 93.3916 587.9 93.1478 586.194 92.4162C584 91.4409 582.538 89.734 580.588 88.2709C579.125 87.0517 577.663 85.8325 575.957 84.8571C576.688 85.3448 577.419 85.5887 578.151 86.0763C581.563 87.7832 585.463 90.4655 589.363 90.4655C593.019 90.4655 596.187 88.2709 598.381 85.5886C599.843 83.6379 600.818 81.4433 601.55 79.0049C601.306 81.6872 600.575 84.6133 600.331 85.3448C599.356 88.7586 596.187 91.9285 592.044 92.9039ZM571.326 53.8891C571.326 54.3768 571.326 54.8645 571.326 55.596C571.326 59.7414 571.326 63.6428 571.082 67.7882C570.838 68.2758 570.351 68.7635 570.107 69.2512C570.107 65.8374 570.107 62.4236 570.351 59.2537C570.838 57.3029 571.082 55.596 571.326 53.8891ZM563.039 66.3251C561.089 71.9335 558.164 78.0295 553.777 82.4187C559.626 72.1773 563.039 60.4729 565.72 49.0123C565.476 51.9384 565.476 55.1084 565.476 58.0345C564.745 60.9606 564.014 63.6428 563.039 66.3251ZM567.913 30.4803C567.67 31.2118 567.67 31.9433 567.426 32.9187C567.182 33.1625 566.695 33.4064 566.695 33.8941C566.695 33.1625 566.939 32.431 567.182 31.6995C567.426 31.2118 567.67 30.7241 567.913 30.4803ZM571.326 31.9433C571.57 32.6749 571.57 33.6502 571.57 34.6256C571.57 34.1379 571.326 33.8941 571.082 33.4064C570.595 32.1872 570.107 30.968 569.62 29.7488C570.595 29.7488 571.082 30.968 571.326 31.9433ZM569.132 31.6995C569.132 31.9433 569.376 32.1872 569.376 32.431C569.132 32.431 569.132 32.431 568.888 32.431C568.888 32.1872 569.132 31.9433 569.132 31.6995ZM579.857 67.0566C578.394 69.2512 576.201 71.202 574.007 72.665C575.226 70.2266 577.419 67.7882 579.857 67.0566ZM567.426 92.4162C567.913 92.4162 568.645 92.4162 569.132 92.1724C568.888 93.6354 568.645 95.0985 568.645 96.5616C567.913 95.3423 567.426 93.8793 567.182 92.4162H567.426ZM528.184 75.835C528.184 75.3473 528.184 75.1034 528.184 74.6157V74.3719C528.671 74.6157 529.159 75.1034 529.646 75.3473C529.646 75.835 529.646 76.3226 529.646 76.8103C529.646 78.7611 529.646 80.7118 530.134 82.4187C528.915 80.468 528.184 78.0295 528.184 75.835ZM528.671 72.9088C529.159 73.1527 529.646 73.3965 529.89 73.6404V73.8842C529.403 73.6404 528.915 73.3965 528.671 72.9088C528.428 72.9088 528.428 72.9088 528.671 72.9088ZM531.109 68.7635C531.109 68.5197 530.865 68.5197 531.109 68.7635C531.109 68.5197 531.109 68.2758 531.353 68.2758C531.109 68.2758 531.109 68.5197 531.109 68.7635ZM544.271 64.3744C545.977 65.3497 546.464 66.8128 545.733 68.2758C545.246 69.7389 543.539 71.202 542.077 71.6896C538.908 72.9088 535.252 71.202 532.084 69.2512C532.571 67.7882 533.302 66.5689 534.521 65.3497C537.202 63.8867 541.102 62.9113 544.271 64.3744ZM542.321 77.298C538.177 78.0295 534.277 76.8103 530.865 74.6157V74.3719C534.277 76.3226 537.934 77.5419 541.833 76.8103C545.002 76.3226 547.927 74.1281 549.633 71.4458C548.902 74.3719 545.489 76.8103 542.321 77.298ZM493.085 84.8571C490.892 86.0763 488.942 87.5394 486.992 89.0024C486.504 89.2463 486.261 89.4901 485.773 89.734C486.261 88.7586 486.992 88.0271 487.479 87.0517C488.698 85.5887 490.404 84.6133 492.354 83.8818C494.06 83.1502 495.523 82.9064 497.229 83.1502C495.523 83.3941 494.304 84.1256 493.085 84.8571ZM480.411 92.9039C476.999 93.3916 478.705 89.4901 479.436 88.0271C480.655 86.0763 482.117 83.8818 483.58 81.931C486.261 78.2734 489.186 74.6157 492.11 70.9581C488.942 75.3473 485.773 79.9803 482.848 84.6133C482.117 85.5887 481.386 86.8079 480.655 88.0271C480.655 88.0271 480.655 88.2709 480.411 88.2709C480.411 88.5148 480.167 88.7586 480.167 88.7586C479.68 89.9778 480.655 91.197 481.63 91.6847C481.873 91.6847 482.117 91.9286 482.361 91.9286C482.117 92.4162 481.386 92.6601 480.411 92.9039ZM443.119 75.3473C443.85 73.3965 444.825 71.6896 445.8 69.7389C445.556 70.4704 445.556 70.9581 445.312 71.6896C445.069 72.9088 444.825 74.1281 444.581 75.5911C444.094 75.3473 443.606 75.3473 443.119 75.3473ZM463.349 62.1798C465.299 62.6675 466.762 63.6428 467.736 65.3497C467.249 65.3497 466.762 65.5936 466.518 65.3497C465.543 65.3497 464.812 65.1059 463.837 64.8621C462.374 64.6182 460.912 64.6182 459.449 64.8621C456.768 65.1059 454.087 66.0813 452.381 68.2758C451.406 69.4951 450.918 70.9581 450.431 72.1773C450.431 72.4212 450.187 72.9089 450.187 73.1527C451.162 69.0074 453.112 64.862 456.768 62.9113C458.718 61.9359 461.156 61.6921 463.349 62.1798ZM430.201 82.4187C428.738 79.7364 428.738 76.3226 428.738 73.6404C428.982 70.2266 429.469 66.8128 430.201 63.6428C430.688 66.3251 429.957 69.7389 429.713 72.1773C429.469 76.3226 430.688 80.468 432.151 84.3694C431.419 83.8818 430.688 83.3941 430.201 82.4187ZM402.658 65.8374C401.196 64.3744 398.758 63.399 396.565 63.8867C393.883 64.6182 392.665 67.0566 391.446 69.0074C390.959 69.7389 390.715 70.2266 390.227 70.9581C390.715 69.9827 390.959 69.2512 391.446 68.2758C393.152 64.8621 397.296 59.4975 401.439 63.399C402.658 64.6182 403.389 65.8374 403.877 67.3005C403.633 66.8128 403.146 66.3251 402.658 65.8374ZM372.922 65.8374C371.216 66.0813 369.022 66.3251 367.316 65.3497C366.828 65.1059 366.341 64.6182 366.097 64.1305C366.097 63.8867 366.097 63.8867 366.097 63.6428C370.484 65.1059 375.359 64.6182 379.503 62.1798C379.503 62.4236 379.503 62.6675 379.503 62.9113C377.553 64.6182 375.115 65.3497 372.922 65.8374ZM361.71 76.0788C361.71 74.8596 361.71 73.8842 361.71 72.665C361.71 71.9335 361.71 71.4458 361.71 70.7143C361.71 71.6896 361.71 72.4212 361.71 73.3965C361.71 74.3719 361.71 75.3473 361.71 76.0788ZM357.81 81.931C356.348 81.6872 354.885 79.7364 354.154 78.7611C352.935 77.5419 351.96 76.0788 350.985 74.3719C350.254 73.3965 349.767 72.1773 349.279 70.9581C349.767 71.9335 350.498 72.665 351.229 73.6404C352.448 75.3473 353.91 77.0542 355.373 78.5172C356.348 79.4926 357.566 81.1995 359.029 81.931C358.541 81.931 358.297 81.931 357.81 81.931ZM295.169 67.5443C295.656 67.7882 295.9 68.032 296.388 68.2758C296.144 70.7143 296.631 73.1527 297.363 75.5911C296.144 73.1527 295.656 70.4704 295.169 67.5443ZM291.513 74.8596C291.513 75.1034 291.757 75.3473 291.757 75.5911C291.513 75.835 291.025 76.0788 290.782 76.5665C291.025 75.835 291.269 75.3473 291.513 74.8596ZM272.501 84.6133C270.795 83.1502 270.795 80.7118 270.795 78.5172C270.795 69.7389 271.282 60.9606 272.014 52.4261C272.014 52.1823 272.257 52.1822 272.257 51.9384C272.257 55.1084 272.257 58.0345 272.257 61.2044C272.257 64.3744 272.257 67.7882 272.257 70.9581C272.257 73.6404 272.014 76.3226 272.501 79.0049C272.989 81.6872 274.451 83.8818 277.132 84.8571C275.426 85.5887 273.72 85.5887 272.501 84.6133ZM227.166 76.3226C229.359 71.4458 235.453 69.2512 240.084 67.5443C244.227 66.0813 248.371 65.1059 252.514 63.8867C252.271 64.1305 252.027 64.3744 251.783 64.3744C244.715 68.7635 237.159 71.6896 230.334 76.3226C228.872 77.298 227.653 78.5172 226.922 79.7364C226.434 78.7611 226.434 77.5419 227.166 76.3226ZM245.69 50.963C249.102 53.6453 252.514 56.8153 253.733 60.7167C253.733 60.9606 253.977 61.4483 253.977 61.6921H253.733C251.783 57.7906 248.858 54.3768 245.69 50.963ZM230.822 82.4187C231.309 81.6872 232.04 80.9557 232.772 80.468C233.99 79.4926 235.209 78.7611 236.671 78.0295C239.353 76.5665 242.034 75.1034 244.715 73.6404C247.883 72.1773 250.808 70.4704 253.733 68.7635C253.246 70.2266 252.514 71.9335 251.54 73.3965C248.858 77.5419 244.959 80.7118 240.815 83.1502C238.621 84.3694 235.94 85.8325 233.259 85.5886C231.797 85.3448 230.09 83.8818 230.822 82.4187ZM280.301 19.2635C280.301 19.0197 280.301 19.0197 280.301 19.2635V19.2635ZM280.788 21.2143C280.788 22.4335 280.545 23.4089 280.301 24.6281C279.813 27.0665 279.082 29.2611 278.107 31.6995C278.595 27.798 279.326 24.3842 280.788 21.2143ZM295.169 59.7414C295.169 59.7414 295.169 59.7414 295.413 59.4975C295.656 59.2537 295.9 59.2537 295.9 59.0098C296.631 58.5222 297.119 58.5222 297.85 58.2783C300.531 57.7906 303.7 59.4975 305.893 61.4483C307.356 62.6675 308.575 64.1305 309.55 65.5936C308.575 65.5936 307.6 65.8374 306.625 65.8374C303.212 65.8374 299.556 65.1059 296.875 62.9113C296.144 62.4236 295.413 61.6921 295.169 60.9606C294.925 60.229 295.169 59.9852 295.169 59.7414ZM327.83 63.6428C325.393 65.1059 322.955 66.3251 320.274 67.3005C320.274 67.3005 320.274 67.3005 320.274 67.0566C322.955 65.8374 325.393 64.3744 327.83 62.6675C327.83 63.1552 327.83 63.399 327.83 63.6428ZM304.675 81.4433C303.456 81.1995 302.481 80.7118 301.75 80.2241C300.775 79.4926 300.287 78.5172 299.556 77.5419C298.094 74.8596 297.363 71.6896 297.363 68.7635C298.094 69.0074 299.069 69.4951 299.8 69.7389C303.456 70.7143 306.868 70.9581 310.281 70.4704C311.012 72.9088 311.499 75.5911 311.012 78.0295C310.768 79.0049 310.524 79.7364 310.037 80.468C308.818 81.6872 306.625 81.931 304.675 81.4433ZM312.718 75.5911V75.3473C312.474 73.8842 312.231 72.4212 311.987 70.7143C311.987 70.4704 311.987 70.2266 311.743 69.9827C311.743 69.9827 311.743 69.9827 311.987 69.9827C312.231 71.9335 312.718 73.8842 312.718 75.5911ZM383.403 57.3029C383.646 57.5468 383.646 57.7906 383.89 58.2783C383.159 57.5468 381.94 57.3029 380.965 57.5468C380.965 57.5468 380.965 57.5468 381.209 57.5468C381.696 56.8153 382.671 56.5714 383.403 57.3029ZM384.378 69.4951C384.378 67.3005 384.134 65.1059 384.134 63.1552C384.134 64.6182 384.378 66.0813 384.378 67.5443C384.378 68.032 384.378 68.7635 384.378 69.4951ZM603.012 74.6157C603.256 73.3965 602.524 72.665 601.793 72.1773C601.062 71.6896 600.331 71.4458 599.112 71.6896C598.625 71.6896 598.625 72.1773 598.868 72.4212C598.625 72.665 598.381 73.1527 598.137 73.6404C597.406 76.5665 596.675 79.4926 594.969 81.931C593.506 83.6379 591.312 85.3448 588.875 84.8571C587.413 84.6133 585.95 83.8818 584.731 83.1502C583.025 82.4187 581.319 81.4433 579.857 80.7118L574.738 78.2734C579.857 75.5911 584.244 71.4458 586.438 66.0813C587.169 64.6182 586.681 63.1552 584.975 62.4236C580.588 60.7167 575.957 62.6675 572.788 65.8374C573.032 58.2783 573.032 50.7192 572.544 43.1601C572.544 42.1847 572.788 41.4532 572.788 40.4778C573.032 38.2832 573.032 36.0887 573.032 33.6502C573.032 31.9433 573.032 29.9926 571.326 28.7734C568.157 26.5788 565.964 30.968 565.72 33.4064C565.476 35.601 565.476 37.7955 565.476 39.9901C565.476 41.697 565.476 43.4039 565.476 44.867C563.282 55.596 560.358 66.3251 555.727 76.3226C554.508 79.0049 553.045 81.6872 551.339 84.3694C549.633 85.5886 547.683 86.564 545.489 87.2955C541.346 88.5148 536.959 88.0271 533.546 85.3448C533.302 85.101 533.302 85.101 533.059 84.8571C531.84 82.9064 531.353 80.468 531.353 78.5172C531.353 77.5419 531.353 76.5665 531.353 75.5911C534.765 77.5419 538.421 78.7611 542.321 78.2734C547.196 77.5419 552.802 73.3965 551.339 67.7882C551.339 67.7882 551.339 67.7882 551.339 67.5443C551.339 67.0566 551.339 66.3251 551.339 65.8374C550.608 59.7414 544.027 57.7906 538.421 58.5222C533.79 59.2537 529.646 61.9359 526.721 65.5936C525.503 65.5936 524.528 67.0566 524.284 68.032C524.04 69.0074 524.04 70.2266 523.797 71.4458C523.553 72.1773 523.553 72.665 523.553 73.3965C523.065 75.5911 522.334 77.7857 520.872 79.7364C518.678 82.6625 515.266 83.6379 511.853 82.4187C507.954 81.1995 504.541 79.0049 500.641 78.0295C498.204 77.5419 495.767 77.5419 493.329 78.0295C496.498 73.3965 499.91 68.7635 503.322 64.1305C504.054 63.1552 503.566 61.4483 502.348 60.7167C501.129 59.9852 499.666 60.4729 498.935 61.6921C495.523 66.0813 487.723 65.8374 484.311 61.6921C483.336 60.4729 480.898 60.7167 480.411 62.1798C477.974 67.5443 474.561 72.665 470.174 76.8103C467.98 78.7611 465.543 80.7118 463.105 82.1749C460.912 83.6379 458.474 84.6133 456.037 84.8571C454.087 85.101 452.137 84.8571 451.162 83.3941C451.162 83.3941 451.162 83.3941 451.162 83.1502C450.187 80.468 450.675 77.7857 451.406 75.1034C452.137 71.9335 453.112 68.2758 456.281 66.5689C458.962 65.1059 462.13 65.1059 465.055 65.5936C466.274 65.8374 467.98 66.3251 469.199 65.8374C469.93 66.569 471.393 66.8128 472.368 66.3251C473.586 65.5936 473.83 64.1305 473.342 62.9113C470.905 57.3029 463.837 55.596 458.231 57.0591C457.743 57.3029 457.256 57.3029 456.524 57.5468C456.281 57.5468 456.281 57.5468 456.037 57.5468L455.793 57.7906C452.868 59.0098 450.675 61.2044 449.212 63.8867C445.8 67.7882 443.119 72.4212 441.656 77.5419C440.438 79.7364 439.219 81.931 437.025 83.1502C436.294 83.6379 435.563 83.8818 434.588 83.8818C432.882 79.2488 431.419 74.3719 432.151 69.2512C432.638 65.3497 433.369 59.9852 428.738 57.7906C428.494 57.5468 428.007 57.7906 427.763 58.0345C424.107 63.1552 421.182 68.5197 418.745 74.1281C418.745 74.1281 418.745 74.1281 418.745 74.3719C418.014 75.5911 417.039 77.0542 416.064 78.2734C415.332 79.2487 412.651 83.3941 411.189 81.6872C410.458 80.7118 410.458 78.7611 410.214 77.7857C409.97 76.0788 410.214 74.3719 409.97 72.665C409.726 67.0566 408.264 60.229 402.414 57.5468C396.321 54.8645 390.959 59.2537 388.034 64.1305C387.302 65.5936 386.571 67.0566 385.84 68.5197C385.84 67.5443 385.84 66.5689 385.84 65.5936C385.84 63.8867 385.596 62.1798 385.596 60.4729C385.353 59.2537 385.353 57.7906 384.865 56.8153C384.378 55.8399 383.646 55.3522 382.671 55.1084C381.453 55.1084 380.478 55.8399 379.503 56.5714C378.772 56.5714 378.04 56.8153 377.553 57.3029C373.653 60.229 367.56 59.9852 363.903 57.0591C361.954 55.596 359.029 57.0591 359.76 59.4975C360.004 60.229 360.247 61.2044 360.491 61.9359C360.491 62.9113 360.491 63.8867 360.491 64.8621C360.491 69.4951 360.491 74.1281 360.491 78.7611C360.491 79.2487 360.735 80.468 359.76 80.468C359.272 80.468 358.785 79.9803 358.541 79.7364C357.81 79.0049 357.079 78.2734 356.348 77.298C354.885 75.5911 353.423 74.1281 352.204 72.4212C350.742 70.4704 349.279 68.2758 347.817 66.0813C347.573 65.3497 347.573 64.3744 347.329 63.6428C347.085 62.4236 346.598 61.6921 345.379 61.2044C344.404 60.9606 342.942 61.4483 342.454 62.4236C339.773 68.2758 336.361 73.6404 332.461 78.7611C332.461 71.9335 332.949 64.862 333.436 58.0345C333.68 56.3276 331.242 54.8645 329.536 55.8399C324.905 59.0098 320.03 62.4236 314.668 64.3744C311.499 58.5221 305.893 53.6453 299.312 53.4015C295.169 53.1576 290.05 55.596 290.05 60.229C290.05 60.4729 290.05 60.4729 290.05 60.7167C289.807 60.9606 289.807 61.4483 289.807 61.9359C289.563 67.5443 287.613 73.3965 284.201 77.7857C283.226 79.0049 280.788 81.4433 279.082 80.7118C277.376 79.9803 277.62 77.0542 277.62 75.5911C277.62 65.3497 277.62 54.8645 277.863 44.6231C278.107 44.3793 278.107 44.1355 278.351 43.6478C278.351 43.4039 278.595 43.4039 278.595 43.1601C281.763 38.2832 284.932 32.1872 285.176 26.335C286.151 22.4335 286.882 17.5566 283.226 15.1182C282.494 14.6305 281.276 14.3867 280.301 14.3867C280.057 14.1428 279.813 14.1428 279.57 14.1428C278.595 13.899 277.863 14.6305 277.132 15.6059C275.67 17.5566 274.939 19.9951 274.451 22.1896C273.232 27.798 272.989 33.6502 272.257 39.5024C272.014 41.2093 272.014 43.1601 271.77 44.867C270.307 47.0616 268.845 49.2561 267.139 51.2069C264.701 54.133 261.777 57.0591 258.852 59.4975C256.658 53.4015 251.783 49.0123 246.421 45.3547C243.74 43.4039 241.059 41.697 238.378 39.7463C235.94 37.7955 233.015 35.601 232.284 32.431C231.553 30.2364 232.04 27.0665 234.478 26.0911C236.915 25.1157 239.353 26.8226 241.059 28.5295C242.034 29.5049 242.765 30.7241 243.496 31.9433C243.496 32.1872 243.496 32.431 243.496 32.431C243.496 32.9187 243.984 33.1625 244.227 32.9187C244.959 33.4064 246.177 33.4064 246.908 32.9187C248.127 32.1872 248.371 30.7241 247.883 29.5049C245.933 25.1157 241.546 20.9704 236.428 20.4827C230.822 19.9951 227.166 24.8719 226.922 29.7488C226.678 35.1133 230.578 39.5024 234.721 42.6724C236.184 43.8916 237.89 45.1108 239.596 46.0862C241.79 48.2808 243.984 50.2315 245.934 52.4261C248.615 55.3522 251.296 58.5222 253.002 62.1798C252.514 62.4236 251.783 62.6675 251.052 62.6675C246.177 64.1305 241.059 65.3497 236.184 67.3005C232.04 69.0074 227.653 71.4458 225.947 75.835C225.216 77.7857 225.216 79.4926 225.947 81.1995C225.703 82.4187 225.703 83.6379 226.434 85.101C228.141 88.5148 232.04 90.2217 235.696 89.734C239.596 89.2463 243.009 87.2956 246.177 85.101C249.102 83.1502 251.783 80.7118 254.221 78.0295C257.389 74.1281 259.583 69.2512 259.583 64.3744C263.726 61.2044 267.626 57.5468 271.039 53.4015C270.551 60.9606 270.064 68.2758 269.82 75.835C269.82 79.4926 269.332 85.3448 274.451 86.0763C276.157 86.3202 278.107 85.8325 279.57 84.8571C281.519 84.8571 283.226 84.1256 284.932 83.1502C286.638 81.931 288.1 80.468 289.075 79.0049C290.294 78.0295 291.513 77.298 292.488 76.3226C294.438 80.468 297.363 83.6379 301.75 85.3448C305.893 86.8079 310.524 86.564 313.937 83.6379C317.593 80.468 318.08 75.5911 317.349 71.202C317.349 70.7143 317.105 70.2266 317.105 69.4951C321.005 69.2512 324.905 67.7882 327.83 65.1059C327.586 71.6896 327.343 78.5172 327.343 85.101C327.343 87.0517 330.267 88.5148 331.73 86.8079C336.361 81.6872 340.504 76.0788 343.917 69.9827C345.623 74.8596 348.548 79.4926 352.204 83.1502C353.666 84.6133 355.373 85.8325 357.566 86.0763C359.516 86.3202 361.466 85.5886 363.172 84.3694C366.585 81.6872 366.828 77.0542 366.828 72.9088C366.828 70.4704 366.585 68.032 366.341 65.5936C368.047 66.8128 370.484 66.8128 372.678 66.5689C375.115 66.3251 377.553 65.5936 379.259 64.3744C379.503 71.6896 379.99 79.0049 380.721 86.3202C380.965 87.5394 381.453 88.5148 382.915 88.7586C384.134 89.0024 385.596 88.2709 385.596 87.0517C386.084 84.6133 386.571 82.1749 387.059 79.7364C388.277 76.5665 389.74 73.3965 391.446 70.4704C392.665 68.2758 394.371 64.3744 397.54 64.3744C400.708 64.3744 402.658 67.3005 403.389 69.9827C404.12 72.4212 403.877 75.5911 404.364 78.2734C404.364 78.7611 404.364 79.2488 404.608 79.7364C405.095 82.9064 406.07 86.0763 409.727 86.8079C413.383 87.5394 416.307 85.101 418.257 82.4187C419.964 79.9803 421.67 77.5419 423.376 74.8596C423.376 78.7611 424.107 82.9064 426.545 85.8325C429.469 89.0024 433.857 89.2463 437.757 87.5394C440.681 86.0763 442.631 83.6379 444.094 80.7118C444.581 84.6133 446.287 87.7832 450.431 89.2463C457.012 91.197 463.837 87.0517 468.955 83.3941C474.561 79.0049 479.436 73.3965 482.605 67.3005C485.042 68.7635 487.967 69.7389 490.648 69.7389C487.723 73.1527 485.042 76.5665 482.361 80.2241C480.655 82.4187 479.192 84.8571 477.73 87.0517C476.999 88.5148 476.024 90.4655 476.999 92.1724C477.974 93.8793 480.167 93.6354 481.873 92.9039C484.555 91.6847 486.748 89.734 489.186 88.0271C491.379 86.564 493.817 84.6133 496.254 83.8818C498.448 83.1502 500.398 83.3941 502.348 84.1256C505.76 85.5887 509.172 87.5394 513.072 87.7832C517.459 88.0271 521.359 85.8325 523.797 82.6626C523.797 82.6626 523.797 82.6625 523.797 82.4187C525.746 87.0517 529.646 90.7093 534.765 92.1724C540.615 93.8793 546.952 92.4162 552.07 89.2463C557.189 86.0763 560.845 81.1995 563.526 75.835C563.77 75.3473 564.014 74.6157 564.257 74.1281C564.257 78.0295 564.257 81.931 564.257 85.8325C564.257 87.0517 564.257 88.0271 564.257 89.2463C564.257 89.4901 564.257 89.4901 564.257 89.734C564.257 89.9778 564.257 90.2217 564.257 90.4655C564.501 93.3916 565.476 96.0739 567.182 98.5123C567.426 99 568.157 99 568.401 98.2684C569.132 94.1231 569.62 89.9778 570.107 85.8325C570.351 84.8571 570.351 83.8818 570.595 82.9064C573.52 84.8571 576.444 86.8079 579.126 89.0024C582.05 91.4409 584.732 94.1231 588.875 94.1231C596.675 94.1231 601.062 87.0517 601.793 80.2241C603.256 79.0049 603.499 76.5665 603.012 74.6157Z" fill="black"/>
<path d="M9.75109 68.2759C6.82621 64.8621 7.55743 60.4729 10.2386 57.0591C13.4072 53.1576 19.5007 51.2069 25.1067 50.7192C31.9314 49.9877 38.9998 51.2069 45.3371 53.1576C52.6493 55.1084 59.474 57.7906 66.5424 60.2291C81.1668 65.3498 95.7912 70.7143 110.659 75.3473C124.796 79.7365 139.664 84.3695 155.264 83.6379C170.619 82.9064 185.244 77.5419 195.481 69.0074C196.943 67.7882 197.187 66.0813 195.481 64.8621C194.018 63.8867 191.337 63.6429 189.875 64.8621C181.1 72.4212 168.669 77.298 155.264 77.7857C139.664 78.5172 124.309 73.3966 110.172 68.7636C95.0599 63.8867 80.1918 58.2783 65.3237 53.1576C51.4306 48.2808 36.3187 42.6724 20.4756 45.3547C12.9197 46.5739 5.85126 49.9877 2.4389 55.1084C-0.973453 59.9852 -1.46093 66.3251 2.68264 71.202C5.60752 74.3719 12.4322 71.4458 9.75109 68.2759Z" fill="black"/>
<path d="M867.468 47.0616C874.536 49.5 876.974 56.0837 875.755 61.6921C874.292 68.2758 867.711 72.665 859.668 74.6157C850.65 76.8103 840.656 75.835 831.882 73.8842C821.888 71.9335 813.114 68.032 804.095 63.8867C799.952 61.9359 795.565 60.229 790.933 59.0098C786.302 57.7906 781.428 57.3029 776.553 57.3029C766.56 57.3029 756.566 59.2537 747.304 62.1798C728.536 67.7882 711.231 76.8103 691.244 79.9803C672.964 82.9064 651.271 80.9556 638.596 69.2512C637.134 68.032 636.89 66.0813 638.596 64.8621C640.059 63.6428 642.984 63.6428 644.446 64.8621C654.196 73.8842 670.039 76.0788 684.419 74.6157C702.943 72.665 719.274 64.8621 736.092 59.0098C753.398 52.9138 773.628 48.2808 792.396 52.9138C801.658 55.1084 809.701 59.4975 817.989 63.1552C826.032 66.5689 834.807 68.7635 843.825 69.4951C851.137 69.9827 861.374 69.4951 865.762 64.3744C867.468 62.4236 868.199 59.9852 867.711 57.5468C867.224 55.3522 866.005 53.6453 863.324 52.6699C861.374 51.9384 860.887 49.7438 861.862 48.2808C863.324 46.5739 865.518 46.33 867.468 47.0616Z" fill="black"/>
</g>
<defs>
<clipPath id="clip0_51_21794">
<rect width="876" height="99" fill="white"/>
</clipPath>
</defs>
</svg>
