<svg width="481" height="658" viewBox="0 0 481 658" fill="none" xmlns="http://www.w3.org/2000/svg">
<path d="M294.501 603.473C294.376 603.349 294.128 603.101 294.003 602.852C293.755 602.604 293.506 602.231 293.257 601.982C293.506 601.858 293.879 601.734 294.128 601.61C294.128 601.734 294.128 601.734 294.128 601.858C294.252 602.479 294.501 602.976 294.625 603.597C294.625 603.473 294.501 603.473 294.501 603.473ZM287.414 595.646C287.29 595.646 287.29 595.522 287.165 595.522C287.29 595.522 287.29 595.522 287.414 595.522C288.409 595.15 289.03 594.031 289.03 593.038C289.776 593.907 290.522 594.777 291.144 595.771C292.014 596.889 293.009 598.131 293.879 599.249C293.879 599.249 293.879 599.249 293.879 599.373C293.879 599.498 293.879 599.498 293.879 599.622V599.746C293.879 599.87 293.755 599.995 293.755 600.119C293.63 600.243 293.506 600.492 293.382 600.616L293.257 600.74C293.133 600.864 293.133 600.864 293.009 600.864H292.884H292.76H292.636C291.89 599.995 291.268 599.001 290.398 598.255C289.403 597.262 288.533 596.392 287.414 595.646ZM265.533 577.757C266.776 577.757 268.02 578.005 269.387 578.378C270.755 578.875 272.122 579.372 273.49 580.117C273.987 580.366 274.484 580.614 274.982 580.863C275.23 580.987 275.603 581.235 275.852 581.36C276.474 581.732 276.971 582.105 277.593 582.478C278.711 583.347 279.706 584.217 280.576 585.335C282.317 587.447 283.56 590.18 283.56 593.038C283.56 593.286 283.56 593.535 283.56 593.783C283.436 593.907 283.436 594.031 283.436 594.28C283.436 594.28 283.436 594.28 283.436 594.404C283.063 596.392 282.193 598.007 280.825 599.498C280.825 599.125 280.701 598.752 280.701 598.38C280.452 597.137 279.955 595.895 279.333 594.777C277.965 592.416 276.101 590.305 273.987 588.441C271.874 586.577 269.511 585.087 266.901 584.217C264.911 583.596 262.549 583.223 260.436 583.596C260.311 583.596 260.187 583.596 260.187 583.596V583.472C261.803 581.235 263.544 579.372 265.533 577.757ZM288.16 590.056C288.16 589.932 288.16 589.808 288.16 589.683L288.284 589.808C288.657 590.305 289.03 590.801 289.403 591.423C288.906 591.05 288.533 590.553 288.16 590.056ZM286.295 594.528C286.047 594.528 285.922 594.404 285.674 594.28C285.674 594.156 285.798 594.031 285.798 593.783C285.922 593.038 285.922 592.416 285.922 591.671C285.922 591.298 285.922 590.926 285.922 590.553C286.047 590.304 286.171 590.18 286.171 589.932C286.171 590.056 286.295 590.305 286.42 590.429C286.917 591.05 287.414 591.547 287.663 592.292C287.787 592.789 287.787 593.41 287.538 593.907C287.414 594.28 286.917 594.653 286.295 594.528ZM286.917 586.329C286.917 586.329 287.041 586.329 286.917 586.329C287.041 586.453 286.917 586.329 286.917 586.329ZM275.852 579.869C274.484 578.999 273.117 578.254 271.625 577.633C270.63 577.136 269.636 576.763 268.641 576.39C268.393 576.266 268.268 576.266 268.02 576.142C268.268 575.893 268.393 575.769 268.641 575.521C269.387 575.148 270.133 574.775 270.879 574.527C272.744 574.03 274.733 574.527 276.474 575.148C279.209 576.142 281.944 577.757 283.56 580.242C284.43 581.608 285.052 583.223 285.301 584.838C285.425 586.205 285.176 587.199 284.803 588.441C284.803 588.441 284.803 588.441 284.803 588.565C284.679 587.199 283.56 585.584 282.69 584.714C281.074 583.099 279.209 581.857 277.344 580.739C276.722 580.366 276.349 580.117 275.852 579.869ZM256.955 608.318C256.582 608.07 256.333 607.821 256.084 607.573C255.463 606.952 254.841 606.206 254.22 605.461C252.603 602.976 252.106 599.87 252.852 596.765C253.101 596.019 253.349 595.274 253.598 594.528C254.22 593.286 254.966 592.168 255.836 591.05C256.706 589.808 257.576 588.565 258.322 587.323C258.944 586.578 259.566 585.832 260.187 585.087C260.311 584.962 260.311 584.714 260.311 584.466C260.933 584.466 261.555 584.466 262.052 584.59C263.295 584.714 264.538 584.838 265.782 585.211C268.144 585.832 270.382 587.199 272.247 588.689C275.852 591.671 278.09 595.895 279.209 600.367C275.603 602.728 273.117 606.331 269.511 608.815C267.895 609.933 266.03 610.803 264.165 611.051C261.679 610.927 259.068 609.933 256.955 608.318ZM366.609 59.2072C369.095 60.2011 371.209 61.6919 373.073 63.5554C367.728 60.5738 361.138 59.9526 355.295 61.5676C358.155 58.586 362.63 57.7164 366.609 59.2072ZM346.095 81.8176C344.479 80.6996 344.23 79.2087 344.479 77.5937C347.09 76.2271 349.203 74.1152 350.571 71.6305C351.814 73.3698 353.555 74.7364 355.544 75.606C355.544 76.1029 355.544 76.7241 355.419 77.3452C354.549 81.1965 349.825 84.4266 346.095 81.8176ZM326.328 86.6627C318.247 90.8867 308.301 93.4956 299.225 91.2594C292.263 89.6443 283.809 84.675 283.933 76.4756C283.933 76.3514 283.933 76.2271 283.933 76.1029C284.057 75.9787 284.182 75.7302 284.306 75.4817C285.052 73.2455 285.798 71.1336 286.668 68.8974C287.787 67.4066 289.403 66.04 291.02 64.9219C291.392 66.5369 292.014 68.2762 292.884 69.8913C297.982 79.2087 308.549 84.1781 318.744 81.5692C319.614 82.563 320.733 83.4327 321.976 84.0538C322.722 84.4265 323.717 84.1781 324.338 83.5569C325.955 81.6934 326.949 79.5815 327.447 77.4695C329.063 76.3514 330.555 74.9848 331.922 73.6182C333.29 73.494 334.657 73.3698 336.025 72.9971C338.511 72.3759 340.874 71.2578 342.863 69.767C340.874 72.1274 338.76 74.3636 336.647 76.5998C335.901 77.3452 337.268 78.7118 338.014 77.9664C338.263 77.7179 338.511 77.4695 338.76 77.221C334.906 81.5692 330.057 84.675 326.328 86.6627ZM284.555 38.2118C285.176 35.6029 286.668 32.6213 288.782 30.882C292.014 32.994 295.247 35.2302 298.23 37.7148C293.133 43.9265 289.776 51.5047 286.544 58.9587C285.549 61.4434 284.43 63.8038 283.56 66.2885C283.311 62.81 283.187 59.3314 283.187 55.8529C283.187 50.0139 283.187 43.8023 284.555 38.2118ZM294.749 29.1427C297.236 29.6397 299.474 31.3789 301.463 32.8697C301.711 33.1182 301.96 33.2424 302.209 33.4909C301.587 33.9878 301.09 34.609 300.468 35.1059C297.857 32.994 295.122 31.0062 292.263 29.1427C293.133 29.0185 293.879 28.8943 294.749 29.1427ZM310.663 25.4157C310.663 26.2854 311.284 27.0308 312.03 27.4035C312.403 27.6519 312.901 27.9004 313.274 28.1489C311.409 28.5216 309.544 29.0185 307.928 29.8881C308.425 28.1489 309.42 26.6581 310.663 25.4157ZM319.365 21.9372C318.371 23.1795 317.501 24.4219 316.755 25.9127C315.636 25.2915 314.392 24.5461 313.274 23.9249C313.025 23.8007 312.776 23.6765 312.403 23.6765C315.014 21.5645 318.371 20.1979 321.728 19.701C320.857 20.3222 320.111 21.0676 319.365 21.9372ZM337.641 66.04C338.511 65.5431 339.382 64.9219 340.128 64.425C340.625 64.0523 341.247 63.6796 341.744 63.4311C342.241 63.5554 342.738 63.6796 343.236 63.8038C342.49 64.6735 341.744 65.4189 340.874 66.1643C339.506 67.2823 337.765 68.152 336.025 68.8974C336.522 67.9035 337.144 67.0339 337.641 66.04ZM326.701 69.3943C326.452 68.6489 326.203 68.0277 325.83 67.2823C327.447 68.4005 329.311 69.0216 331.425 68.7732C331.176 69.1459 330.928 69.3943 330.555 69.767C329.311 69.8913 327.944 69.6428 326.701 69.3943ZM320.484 70.6367C321.479 71.3821 322.474 71.879 323.592 72.3759C323.717 73.494 323.717 74.6121 323.592 75.7302C322.598 76.3514 321.479 76.8483 320.36 77.3452C319.614 75.2333 319.738 72.7486 320.484 70.6367ZM309.047 60.3253C310.787 60.4495 312.403 60.8222 314.02 61.3192C314.392 62.313 314.89 63.4311 315.387 64.425C316.009 65.5431 316.63 66.537 317.376 67.5308C316.63 69.0216 316.133 70.5124 316.009 72.2517C315.76 74.4879 316.133 76.5998 316.879 78.5876C311.782 79.7057 306.436 78.836 301.836 75.3575C297.982 72.5002 294.998 68.0278 294.252 63.4311C298.976 61.0707 304.571 60.0768 309.047 60.3253ZM290.647 61.3192C290.149 61.5676 289.776 61.9403 289.279 62.1888C289.901 60.698 290.522 59.2072 291.144 57.7164C290.895 58.8345 290.771 60.0768 290.647 61.3192ZM296.49 53.8652C298.852 50.6351 302.209 48.5231 305.938 47.1566C307.555 50.2624 309.544 53.1198 312.155 55.356C312.279 55.9771 312.528 56.7225 312.652 57.3437C306.56 55.9771 299.847 56.971 294.128 59.4557C294.376 57.5922 295.122 55.6044 296.49 53.8652ZM304.198 42.6842C304.322 43.1811 304.571 43.8023 304.82 44.2992C303.701 44.6719 302.582 45.1688 301.463 45.6658C297.982 47.405 295.247 49.7655 293.382 52.6228C293.755 51.7532 294.252 50.7593 294.749 49.8897C296.49 46.4112 298.355 42.8084 300.841 39.7026C301.96 40.6964 303.079 41.6903 304.198 42.6842ZM311.782 35.2302C311.533 35.8513 311.409 36.4725 311.284 37.0937C310.041 35.7271 308.798 34.4848 307.43 33.2424C309.42 31.8759 311.657 31.1305 313.771 30.6335C313.025 32.1243 312.279 33.6151 311.782 35.2302ZM340.749 58.9587C340.998 58.2133 341.247 57.5922 341.371 56.8468H341.495C341.868 57.3437 342.241 57.8406 342.614 58.4618C342.241 58.7103 341.868 58.9587 341.495 59.2072C341.247 59.083 340.998 59.083 340.749 58.9587ZM332.171 62.9342C333.165 62.81 334.16 62.81 335.279 62.81C335.155 62.9342 335.155 63.0584 335.03 63.1827C333.29 64.3008 331.052 65.7916 328.938 65.2946C328.192 65.1704 327.695 64.6735 327.198 64.1765C328.814 63.5554 330.555 63.0584 332.171 62.9342ZM320.733 59.8284C320.982 60.4495 321.23 61.0707 321.479 61.5676C320.484 60.5738 319.241 59.8284 317.998 59.2072C317.874 59.083 317.749 59.083 317.501 58.9587C317.501 58.8345 317.376 58.7103 317.376 58.7103C318.495 59.2072 319.614 59.5799 320.733 59.8284ZM319.117 30.7578C320.609 31.0062 321.976 31.5032 323.344 32.1243C320.36 34.8575 317.998 38.5845 317.003 42.4357C316.506 42.4357 316.009 42.4357 315.511 42.4357C315.263 42.063 315.014 41.8145 314.765 41.4418C315.387 37.5906 316.755 33.7394 319.117 30.7578ZM339.133 23.8007C339.009 24.6703 339.009 25.6642 339.009 26.5338C334.284 26.2854 329.311 27.7762 325.706 30.3851L325.582 30.5093C324.214 29.6397 322.722 29.0185 321.23 28.6458C322.101 27.9004 322.971 27.155 324.09 26.4096C326.949 24.5461 330.43 23.428 333.911 23.1795C335.652 23.0553 337.392 23.3038 339.133 23.8007ZM350.074 33.1182C349.452 32.0001 348.582 31.0062 347.711 30.0124C346.468 28.8943 344.976 28.0246 343.484 27.4035C343.36 26.7823 343.36 26.1611 343.36 25.54C344.603 26.4096 345.722 27.2792 346.841 28.1489C348.457 29.5154 349.701 31.1305 350.571 32.8697C350.447 32.994 350.322 33.1182 350.074 33.1182ZM346.344 54.2379C346.965 53.7409 347.587 53.244 348.209 52.7471C348.209 52.9955 348.084 53.244 348.084 53.4925C347.711 53.9894 347.463 54.3621 347.214 54.9833C346.965 54.6106 346.592 54.3621 346.344 54.2379ZM344.852 56.971C344.728 56.7225 344.479 56.4741 344.355 56.2256C344.603 56.3498 344.852 56.5983 345.101 56.8468C344.976 56.8468 344.976 56.8468 344.852 56.971ZM317.128 54.6106C316.755 53.6167 316.257 52.6228 315.76 51.629C315.511 50.3866 315.387 49.2685 315.138 48.0262C315.511 48.6474 316.009 49.2685 316.382 50.0139C317.376 51.8774 318.247 53.7409 319.117 55.6044C318.371 55.356 317.749 54.9833 317.128 54.6106ZM322.474 45.9142C325.582 46.5354 329.063 47.6535 332.295 49.3928C332.047 50.6351 331.549 51.8774 330.803 52.9955C330.43 53.6167 330.057 54.1136 329.56 54.4863C328.938 54.3621 328.317 54.3621 327.695 54.1136C324.96 53.4925 322.474 51.7532 321.479 48.8958C321.106 47.7777 320.982 46.6596 321.106 45.6658C321.603 45.79 321.976 45.79 322.474 45.9142ZM327.198 34.7332C330.43 37.7148 332.668 42.063 332.668 46.5354C329.187 44.7961 325.457 43.5538 321.603 42.9326C321.976 41.8145 322.349 40.8207 322.971 39.8268C323.965 37.9633 325.457 36.224 327.198 34.7332ZM338.263 53.4925C336.647 53.9894 335.03 54.3621 333.414 54.6106C334.036 53.4925 334.533 52.2501 334.906 51.0078C336.149 51.7532 337.268 52.4986 338.263 53.4925ZM339.63 30.6335C339.755 30.6335 340.003 30.6335 340.128 30.7578C341.619 33.8636 344.23 36.4725 347.587 37.2179C348.582 39.951 348.83 42.9326 348.83 45.9142C348.209 46.9081 347.463 47.7777 346.592 48.5231C345.225 49.7655 343.609 50.8836 341.992 51.8774C341.619 51.7532 341.247 51.629 340.874 51.5047C340.625 51.5047 340.376 51.5047 340.128 51.5047C338.636 50.2624 337.144 49.0201 335.528 48.0262C335.528 47.2808 335.652 46.6596 335.528 45.9142C335.279 41.0691 332.917 36.5967 329.311 33.2424C332.42 31.2547 336.025 30.1366 339.63 30.6335ZM325.582 60.3253C325.333 60.4495 325.084 60.5738 324.836 60.5738C324.711 60.4495 324.711 60.3253 324.587 60.0768C326.203 59.9526 327.82 59.4557 329.187 58.586C329.809 58.7103 330.555 58.7103 331.176 58.7103C329.311 59.083 327.447 59.5799 325.582 60.3253ZM335.528 58.586C336.149 58.4618 336.771 58.3376 337.392 58.2133C337.392 58.3376 337.268 58.4618 337.268 58.586C336.647 58.586 336.025 58.586 335.528 58.586ZM310.663 41.9388C310.663 42.3115 310.663 42.5599 310.663 42.9326C310.165 43.0569 309.668 43.0569 309.295 43.1811C308.798 42.5599 308.176 42.063 307.679 41.4418C307.306 40.1995 307.057 38.9572 306.933 37.5906C307.057 37.7148 307.182 37.8391 307.306 37.9633C308.425 39.2056 309.544 40.5722 310.663 41.9388ZM354.425 46.0385C354.301 47.0323 354.176 48.0262 354.052 49.0201C353.679 49.1443 353.306 49.3928 353.057 49.517C353.057 48.7716 353.182 47.902 353.182 47.1566C353.679 46.2869 354.176 45.2931 354.549 44.2992C354.425 44.7961 354.425 45.4173 354.425 46.0385ZM350.944 26.9065C351.068 27.155 351.317 27.4035 351.441 27.6519C349.576 25.4157 347.09 23.5522 344.603 21.9372C344.728 21.813 344.728 21.6887 344.852 21.5645C347.214 22.9311 349.452 24.7946 350.944 26.9065ZM330.057 19.8252C330.182 19.8252 330.182 19.8252 330.306 19.8252C330.057 19.8252 329.933 19.8252 329.684 19.9495C329.809 19.9495 329.933 19.8252 330.057 19.8252ZM369.841 68.4005C365.738 69.6428 361.387 70.3882 357.657 69.0216C357.284 68.4005 356.911 67.9035 356.538 67.4066C356.29 67.0339 355.917 66.6612 355.668 66.4127C360.641 64.6735 366.36 64.9219 370.96 67.5308C370.587 67.6551 370.214 68.0278 369.841 68.4005ZM367.106 17.589C370.463 18.7071 375.187 20.5706 375.187 24.7946C375.187 29.0185 371.084 32.2486 367.976 34.4848C366.236 35.7271 364.371 36.8452 363.252 38.7087C362.755 39.5783 362.506 40.448 362.382 41.4418C362.257 42.9326 362.009 43.678 360.765 44.6719C359.646 45.5415 358.652 46.4112 357.533 47.405C357.036 47.6535 356.414 47.7777 355.917 48.0262C356.165 45.0446 356.041 41.9388 355.419 38.9572C355.544 37.5906 355.419 36.224 355.046 34.8575C356.538 33.1182 356.663 30.6335 356.041 28.5216C354.674 24.2976 350.944 20.9433 347.214 18.5829C348.582 17.4648 350.198 16.7194 351.814 16.0982C356.911 14.8559 362.382 15.974 367.106 17.589ZM31.182 142.071C31.3063 141.822 31.555 141.698 31.8036 141.574C30.9334 142.568 30.0631 143.686 29.4415 144.928C29.8144 143.81 30.4361 142.816 31.182 142.071ZM48.4631 133.25C48.836 133.126 49.3333 132.878 49.8306 132.753C49.8306 132.878 49.8306 133.002 49.8306 133.126C49.7063 133.374 49.582 133.499 49.582 133.747C49.3333 133.747 49.0847 133.871 49.0847 134.12C48.836 134.12 48.5874 134.12 48.3387 134.12C47.5928 134.12 46.9712 134.244 46.2252 134.244C46.2252 134.244 46.3496 134.244 46.3496 134.12C46.9712 133.747 47.7171 133.499 48.4631 133.25ZM49.4577 135.486C49.582 135.486 49.7063 135.486 49.8306 135.486C50.7009 136.853 51.5712 138.22 52.1928 139.71C53.0631 141.574 53.9333 143.437 54.6793 145.425C55.4252 147.413 55.9225 149.401 56.4198 151.513C56.2955 151.637 56.1712 151.761 56.0468 151.761C55.5495 152.258 54.9279 152.631 54.3063 153.003C53.436 153.5 52.4414 153.997 51.4468 154.37C51.4468 153.997 51.4468 153.749 51.4468 153.376C51.4468 151.016 51.0739 148.655 50.2036 146.419C48.836 142.692 46.1009 139.213 43.2415 136.48C43.3658 136.48 43.3658 136.356 43.4901 136.356C43.8631 136.232 44.1117 136.108 44.4847 135.983C45.1063 135.735 45.7279 135.611 46.4739 135.486C47.0955 135.362 47.8414 135.362 48.5874 135.362C48.836 135.362 49.0847 135.362 49.4577 135.486ZM68.7279 137.723C69.4739 144.183 67.7333 153.003 61.3928 155.736C61.5171 154.991 61.2685 154.121 61.1441 153.376C60.6468 150.767 60.0252 148.282 59.1549 145.798C57.5387 141.201 55.4252 136.356 52.3171 132.629C53.5604 131.635 55.4252 131.014 56.2955 130.641C58.1604 130.02 60.2739 129.772 62.2631 130.144C64.8739 130.517 66.7387 132.132 68.1063 134.368C68.3549 135.486 68.6036 136.605 68.7279 137.723ZM50.4523 174.744C50.4523 174.868 50.4523 174.993 50.5766 174.993C50.7009 175.614 50.8252 176.235 50.5766 176.732C50.2036 176.732 49.8306 176.856 49.4577 176.98C49.4577 176.856 49.4577 176.732 49.3333 176.732C49.8306 176.235 50.2036 175.49 50.4523 174.744ZM41.9982 164.681C41.9982 164.805 41.9982 164.93 41.9982 165.178C41.8739 165.054 41.7496 164.93 41.6252 164.805C41.6252 164.805 41.7496 164.681 41.9982 164.681ZM51.0739 135.114C51.3225 135.486 51.4468 135.983 51.6955 136.48C51.4468 136.108 51.1982 135.735 50.9496 135.362C51.0739 135.238 51.0739 135.238 51.0739 135.114ZM55.5495 140.456C55.6739 140.704 55.7982 140.953 55.9225 141.201C55.7982 140.953 55.6739 140.704 55.5495 140.456ZM59.9009 155.364C59.9009 154.991 59.9009 154.494 59.9009 154.121C59.9009 154.618 60.0252 155.115 59.9009 155.364ZM49.3333 171.763C49.0847 172.508 49.209 173.378 48.9604 174.247C48.836 174.496 48.836 174.744 48.7117 174.993C48.2144 171.887 48.0901 168.781 48.2144 165.675C48.4631 167.166 48.9604 168.532 49.3333 170.023C49.4577 170.52 49.582 171.017 49.7063 171.514C49.582 171.514 49.4577 171.514 49.3333 171.763ZM45.355 168.905C45.355 168.781 45.355 168.781 45.2306 168.657C45.2306 168.408 45.2306 168.16 45.2306 167.911C45.2306 167.414 45.2306 166.793 45.2306 166.296C45.2306 165.551 45.2306 164.805 45.1063 164.06H45.2306C45.2306 165.054 45.2306 166.048 45.355 167.042C45.355 167.911 45.4793 168.781 45.6036 169.651C45.6036 169.775 45.6036 169.775 45.6036 169.899C45.4793 169.775 45.4793 169.651 45.355 169.526C45.4793 169.278 45.4793 169.029 45.355 168.905ZM45.1063 168.781C45.1063 168.781 45.2306 168.781 45.2306 168.905C45.2306 168.781 45.1063 168.781 45.1063 168.781ZM56.1712 154.991C56.4198 154.743 56.6685 154.618 56.9171 154.37C57.0414 155.115 57.1658 155.861 57.1658 156.606C55.4252 157.848 53.5604 158.718 51.4468 158.967C51.4468 158.718 51.4468 158.594 51.1982 158.47C51.1982 158.097 51.3225 157.6 51.3225 157.227C52.4414 157.103 53.436 156.606 54.4306 156.109C55.0522 155.861 55.5495 155.488 56.1712 154.991ZM51.4468 133.747C51.4468 133.871 51.4468 133.871 51.5712 133.996C51.4468 133.871 51.3225 133.747 51.4468 133.747C51.3225 133.747 51.3225 133.747 51.4468 133.747ZM46.8469 166.793C46.7225 165.675 46.7225 164.557 46.5982 163.439C46.7225 163.315 46.9712 163.315 47.0955 163.19C46.9712 164.433 46.8469 165.551 46.8469 166.793ZM34.5388 157.103C34.4144 156.358 34.1658 155.488 33.7928 154.867C32.9225 153.003 31.555 151.264 29.6901 150.27C30.0631 147.786 31.182 145.301 32.6739 143.313C33.9171 141.822 35.2847 140.58 36.9009 139.462C38.2685 138.592 39.7604 137.971 41.2523 137.35C41.3766 137.723 41.7496 138.095 41.9982 138.468C42.7442 139.213 43.4901 140.083 44.1117 140.953C45.4793 142.816 46.7225 144.928 47.5928 147.164C48.4631 149.276 49.0847 151.513 49.3333 153.749C49.4577 154.867 49.4577 155.985 49.4577 157.103C49.4577 157.476 49.3333 157.724 49.3333 158.097C48.2144 158.221 46.9712 159.215 46.1009 159.712C44.8577 160.333 43.4901 160.954 41.9982 161.203C40.6306 161.575 39.2631 161.7 37.7712 161.7C37.1496 161.7 36.0306 161.7 35.5334 162.321C35.2847 162.197 35.0361 162.072 34.7874 161.948C35.6577 160.457 35.1604 158.594 34.5388 157.103ZM29.5658 152.631C29.8144 152.879 30.0631 153.128 30.1874 153.376C30.809 154.121 31.182 154.991 31.555 155.861C32.0523 157.227 32.4252 158.594 32.6739 159.96C31.182 158.221 30.1874 156.109 29.6901 154.121C29.5658 153.749 29.5658 153.128 29.5658 152.631ZM42.6198 162.569C42.4955 162.569 42.2469 162.569 42.2469 162.694C41.6252 162.818 41.0036 162.818 40.2577 162.942C41.2523 162.818 42.3712 162.694 43.3658 162.445C43.6144 162.445 43.8631 162.321 43.9874 162.197C43.9874 162.321 43.8631 162.321 43.9874 162.445C43.4901 162.445 43.1171 162.569 42.6198 162.569ZM43.2415 165.427C43.2415 165.178 43.1171 164.805 43.1171 164.557C43.3658 164.557 43.6144 164.433 43.8631 164.433C43.8631 165.302 43.8631 166.048 43.8631 166.917C43.8631 167.166 43.8631 167.29 43.8631 167.539C43.7387 167.414 43.6144 167.29 43.4901 167.166C43.4901 167.166 43.4901 167.042 43.3658 167.042C43.4901 166.421 43.3658 165.924 43.2415 165.427ZM54.0577 154.743C53.9333 154.867 53.809 154.867 53.6847 154.991C52.9387 155.364 52.1928 155.736 51.4468 155.985C51.4468 155.861 51.4468 155.736 51.4468 155.612C52.3171 155.364 53.1874 155.115 54.0577 154.743ZM479.371 315.997C481.111 307.425 481.609 298.605 480.117 289.908C478.749 281.585 475.765 273.758 472.657 266.056C469.425 258.105 465.695 250.154 463.084 241.954C460.473 234.128 459.106 225.804 458.609 217.605C456.744 183.813 469.052 150.891 465.322 117.1C461.841 85.5446 441.079 57.4679 410.619 47.2808C395.949 42.3115 379.911 41.6903 364.744 45.2931C365.117 44.6719 365.365 43.9265 365.49 43.0569C365.614 41.6903 365.49 40.6964 366.484 39.5783C367.355 38.7087 368.598 38.0875 369.717 37.4664C373.571 35.2302 377.673 31.7516 378.668 27.155C379.787 22.1857 376.555 18.086 372.452 15.6013C367.852 12.8682 362.009 11.5016 356.663 11.3774C351.565 11.2531 346.592 12.8682 342.863 16.4709L342.738 16.5952C338.263 14.9801 333.414 14.6074 329.063 15.8498C323.344 14.9801 317.501 15.7255 312.279 18.7071C308.674 20.8191 305.69 23.9249 304.074 27.7762C303.825 28.5216 303.576 29.1427 303.328 29.8881C303.203 29.7639 303.079 29.6397 302.955 29.5154C299.349 26.7823 294.998 24.2976 290.274 25.6642C289.652 25.7884 288.906 26.1611 288.284 26.4096C285.052 24.2976 281.82 22.3099 278.463 20.3222C270.257 15.4771 260.933 10.3835 251.111 11.3774C246.014 11.8743 241.166 14.1105 236.193 15.1044C230.722 16.0982 225.128 15.2286 219.782 14.1105C209.09 11.7501 198.398 9.01694 187.582 7.02921C176.766 5.04148 165.825 3.42645 154.885 2.30835C134.495 0.0721481 113.733 -1.04595 93.3441 1.31448C74.4468 3.55068 55.6739 9.14118 40.009 19.9495C26.3334 29.3912 14.6469 42.4357 8.55501 57.9649C5.4469 65.6673 3.83069 73.9909 3.95501 82.3146C4.07933 92.3775 6.44149 102.068 8.67933 111.758C10.9172 121.324 13.155 131.262 12.6577 141.201C12.1604 151.388 7.93338 160.457 4.45231 169.775C1.3442 177.85 -0.893633 186.174 0.349609 194.87C1.3442 202.2 4.9496 209.281 11.5388 213.008C19.4955 217.48 29.4415 215.493 36.7766 210.648C43.7387 206.051 48.9604 198.597 51.1982 190.522C52.3171 186.671 52.6901 182.695 52.3171 178.595L52.4414 178.471C53.1874 177.477 53.0631 176.235 52.8144 175.117C52.4414 173.626 52.0685 172.259 51.6955 170.893C51.3225 169.402 50.8252 167.787 50.4523 166.296C50.3279 165.551 50.2036 164.805 50.2036 164.06C50.2036 163.563 50.2036 163.19 50.3279 162.818C50.3279 162.694 50.4523 162.569 50.4523 162.445C50.4523 162.321 50.4523 162.197 50.5766 162.197C50.7009 162.197 50.8252 162.072 50.8252 161.948C50.9495 161.948 51.1982 161.824 51.3225 161.824C51.6955 161.7 52.0685 161.575 52.3171 161.451C53.0631 161.203 53.809 160.83 54.4306 160.457C54.6793 160.333 55.0522 160.085 55.3009 159.96C55.7982 159.712 56.2955 159.588 56.6685 159.339C56.9171 159.215 57.2901 159.091 57.5387 158.967C58.1604 158.718 58.782 158.47 59.2793 158.345C59.9009 158.097 60.5225 157.973 61.0198 157.6C63.5063 157.351 65.8685 155.612 67.4847 153.873C69.9712 151.016 71.2144 147.164 71.3387 143.437C71.463 140.456 70.8414 137.474 69.4739 134.741C68.3549 131.014 65.7441 127.66 61.5171 127.163C57.6631 126.666 53.0631 128.281 50.3279 131.387C50.0793 131.262 49.8306 131.262 49.582 131.387C48.836 131.511 48.2144 131.759 47.5928 132.008C46.8469 132.256 46.2252 132.629 45.4793 133.002C44.7333 133.374 44.1117 133.747 43.4901 134.244C43.1171 134.493 42.6198 134.865 42.2469 135.238C42.1225 135.114 42.1225 134.99 41.8739 134.99C40.755 134.617 39.3874 135.238 38.3928 135.611C37.1496 136.108 36.0306 136.729 34.9117 137.35C32.6739 138.592 30.3117 139.959 28.6955 142.071C27.328 143.934 26.7063 146.419 26.4577 148.655C26.3334 149.649 25.9604 152.009 26.582 153.128V153.252C26.7063 154.37 26.8307 155.488 27.0793 156.606C27.4523 158.47 28.0739 160.457 29.4415 161.824C30.5604 163.066 32.0523 163.812 33.6685 164.06C33.9171 164.06 34.1658 164.06 34.4144 164.06C35.1604 164.433 35.9063 164.681 36.6523 164.805C37.2739 164.93 37.8955 164.93 38.5171 165.054C39.2631 165.799 40.1333 166.421 40.8793 167.042C41.2523 167.414 41.6252 167.787 41.8739 168.16C42.6198 169.029 43.2415 169.899 43.8631 170.769C44.609 171.763 45.1063 172.881 45.7279 173.999C46.2252 175.117 46.5982 176.359 47.0955 177.477C47.3441 178.098 47.8414 178.595 48.3387 178.968C48.9604 187.043 46.2252 195.118 41.1279 201.454C35.9063 207.914 27.4523 212.884 18.8739 212.014C11.2901 211.269 6.19285 205.554 4.32798 198.473C2.21447 190.77 3.58204 182.944 6.06852 175.49C9.17663 166.421 13.528 157.848 15.2685 148.282C16.8847 138.965 15.7658 129.399 13.9009 120.081C12.0361 110.764 9.42527 101.447 8.18203 92.0048C7.06311 83.4327 7.31176 74.8606 9.5496 66.537C14.1496 51.132 24.0955 37.4664 36.4036 27.4035C50.3279 16.2225 67.236 9.51388 84.7657 6.28381C104.036 2.80528 123.804 3.05375 143.198 4.54455C164.209 6.28381 185.095 9.38965 205.733 13.9863C215.679 16.2225 226.247 20.0737 236.566 18.2102C241.414 17.3406 245.89 15.2286 250.738 14.4832C255.587 13.7378 260.311 14.7317 264.787 16.4709C272.247 19.3283 278.836 24.0492 285.425 28.5216C283.684 30.2608 282.317 32.497 281.447 34.7332C279.706 39.5783 279.582 44.9204 279.333 50.0139C279.084 55.6044 279.209 61.0707 279.582 66.537C279.83 69.2701 280.079 72.0032 280.452 74.7364C280.452 74.9848 280.576 75.109 280.701 75.3575C280.328 80.2026 282.317 85.0477 286.668 88.7747C294.625 95.4833 305.69 96.4772 315.511 94.241C324.338 92.2533 333.787 87.4081 340.376 80.5753C341.371 83.6812 343.982 86.1658 347.463 86.6627C351.565 87.4081 355.917 85.6689 358.03 81.9419C358.901 80.3269 359.398 78.4633 359.398 76.5998C364.122 77.0968 368.349 75.109 372.079 72.2517C374.69 71.382 377.301 70.2639 379.663 69.2701C381.03 68.6489 381.403 67.1581 380.409 65.9158C376.182 60.3253 370.587 54.7348 363.252 53.8652C360.019 53.4925 356.538 54.3621 353.803 56.2256C353.928 55.9771 353.928 55.7287 354.052 55.4802C354.176 55.1075 354.301 54.6106 354.425 54.2379C355.171 53.6167 355.917 53.1198 356.538 52.4986C357.906 51.8774 359.398 51.5047 360.641 51.0078C376.43 45.79 393.96 45.79 409.749 51.2563C423.798 56.1014 436.106 65.0462 445.182 76.8483C454.63 89.1474 459.852 103.807 461.219 119.212C464.079 151.14 453.138 182.322 454.257 214.25C454.506 221.829 455.376 229.283 457.365 236.612C459.354 244.315 462.463 251.645 465.571 258.974C472.16 274.379 478.5 289.66 476.884 306.804C475.268 324.321 467.809 340.596 462.96 357.367C458.111 374.014 455.749 391.407 456.246 408.8C456.744 426.813 460.598 444.455 462.09 462.468C463.582 481.228 461.592 499.987 460.1 518.622C458.484 537.505 456.868 556.389 455.252 575.272C453.76 592.416 452.89 610.43 445.679 626.456C439.836 639.252 428.149 651.179 413.603 653.167C406.765 654.16 399.43 652.67 394.084 647.949C387.246 641.861 389.236 633.662 389.982 625.587C391.101 612.915 387.992 600.119 381.155 589.435C374.814 579.496 363.874 570.179 351.565 569.557C346.468 569.309 340.874 570.303 337.019 573.906C335.403 575.521 334.16 577.384 333.787 579.62C332.917 583.969 334.906 587.944 335.652 592.044C338.138 606.206 323.965 619.002 310.165 614.654C304.322 612.791 299.349 608.443 296.987 602.852C296.987 602.728 297.111 602.479 297.111 602.355C297.111 602.231 297.111 601.982 297.111 601.858C297.236 601.734 297.36 601.61 297.484 601.361C297.733 600.616 297.609 599.87 297.236 599.249C296.738 598.38 295.992 597.634 295.371 596.889C294.749 596.019 294.003 595.15 293.382 594.28C292.138 592.541 291.02 590.801 289.776 589.062C289.155 588.068 288.533 587.199 288.036 586.205C287.663 585.459 287.165 584.714 286.668 584.093C286.544 583.347 286.42 582.602 286.295 581.857C285.549 578.875 283.809 576.142 281.447 574.154C279.084 572.166 275.852 570.676 272.62 571.173C270.009 571.545 267.522 573.409 265.782 575.521C265.782 575.521 265.657 575.521 265.657 575.645H265.533C265.409 575.645 265.284 575.769 265.284 576.018C264.911 576.39 264.414 576.639 264.041 577.011C263.793 577.136 263.668 577.136 263.42 577.26C263.295 577.384 263.295 577.508 263.295 577.633C261.43 579.248 259.814 581.235 258.695 583.223V583.347C258.571 583.472 258.447 583.596 258.322 583.72C258.322 583.72 258.322 583.72 258.198 583.72L258.074 583.844C257.825 584.093 257.701 584.466 257.452 584.714C256.955 585.459 256.457 586.205 255.96 586.95C255.339 587.944 254.717 588.814 254.095 589.808C253.847 590.18 253.598 590.553 253.349 590.926C253.349 590.926 253.349 590.926 253.349 591.05C253.225 591.174 253.101 591.298 253.101 591.547C252.852 591.919 252.728 592.292 252.479 592.665C252.106 593.162 251.857 593.783 251.484 594.404C249.744 597.758 249.744 601.361 251.484 604.716C251.609 604.964 251.733 605.212 251.857 605.461C251.982 605.709 252.106 605.958 252.23 606.082C252.355 606.331 252.479 606.579 252.728 606.703C252.852 606.952 253.101 607.2 253.225 607.449C253.225 607.449 253.225 607.449 253.349 607.573C254.966 609.561 257.079 611.3 259.317 612.17C260.809 612.791 262.425 612.915 263.917 612.666C266.03 612.791 268.268 612.294 270.133 611.176C272.122 610.058 273.614 608.443 275.106 606.828C275.23 606.703 275.23 606.703 275.355 606.579C276.101 605.834 276.971 605.212 277.717 604.467C278.214 603.97 278.711 603.473 279.209 602.976C279.333 602.852 279.582 602.604 279.706 602.479C280.079 602.479 280.452 602.231 280.328 601.858V601.734C280.452 601.61 280.576 601.485 280.701 601.485C281.82 600.492 282.938 599.498 283.809 598.131C284.182 597.51 284.43 596.889 284.679 596.268C284.803 596.268 284.803 596.392 284.928 596.392C286.047 597.013 287.041 597.758 287.911 598.628C289.652 600.367 291.02 602.479 292.636 604.343C293.257 604.964 294.003 605.461 294.749 605.212C299.598 615.896 312.279 622.357 323.717 618.381C330.057 616.145 335.03 611.176 337.641 605.088C338.884 602.231 339.63 598.877 339.63 595.771C339.63 591.547 337.641 587.696 337.392 583.596C336.771 576.639 343.982 573.781 349.825 573.657C356.663 573.533 363.003 577.011 368.225 581.235C379.165 590.304 385.133 604.964 385.257 619.002C385.382 626.953 382.398 635.153 385.133 642.855C387.246 648.943 392.592 653.539 398.56 655.9C412.36 661.366 427.403 655.527 437.598 645.713C449.533 634.159 454.63 618.009 456.868 601.858C459.603 582.602 460.349 562.973 461.965 543.717C463.582 523.591 465.819 503.465 466.317 483.34C466.814 464.083 463.209 445.573 460.598 426.565C457.863 407.06 458.982 387.059 463.582 367.927C468.182 350.162 475.89 333.638 479.371 315.997Z" fill="#C9C9C7"/>
</svg>
