<svg width="180" height="69" viewBox="0 0 180 69" fill="none" xmlns="http://www.w3.org/2000/svg">
<g clip-path="url(#clip0_27_822)">
<path d="M174.708 0.00665218L0.015625 16.8284L4.99986 68.5892L179.693 51.7675L174.708 0.00665218Z" fill="black"/>
<path d="M24.2984 20.8C24.4984 20.8 24.7984 20.8 24.9984 20.8L27.3984 20.3C27.5984 20.3 27.7984 20.3 27.8984 20.5C27.9984 20.6 28.0984 20.8 28.1984 21C28.5984 25.5 28.2984 31.5 27.0984 39.1L28.3984 38.9C29.2984 38.8 29.7984 39 29.7984 39.6V39.7L29.3984 40.1L26.1984 40.5C25.8984 40.5 25.5984 40.3 25.3984 39.9C25.6984 39.2 25.9984 37.6 26.2984 34.9C26.4984 32.2 26.6984 29.6 26.7984 27.2C26.8984 24.7 26.8984 22.9 26.8984 21.8C26.2984 21.9 25.7984 22 25.3984 22.1C24.4984 22.2 23.9984 22 23.8984 21.4V21.3L24.2984 20.8ZM36.3984 27.7L36.4984 28.1C37.1984 35.7 36.4984 39.6 34.2984 39.8C33.3984 39.9 32.7984 39.6 32.2984 38.9C31.7984 38.2 31.4984 37.5 31.2984 36.8C31.0984 35.7 30.7984 34.5 30.6984 33C30.4984 31.6 30.2984 29.5 30.0984 26.9L29.5984 23.2C29.6984 22.8 29.8984 22.6 30.0984 22.6C30.2984 22.6 30.4984 22.7 30.6984 23C30.8984 23.3 30.9984 23.6 30.9984 24L31.6984 31C31.7984 31.6 31.8984 32.5 32.0984 33.7C32.2984 34.9 32.4984 35.8 32.4984 36.4C32.5984 37.7 33.1984 38.2 34.2984 38.1C35.4984 38 35.6984 33.3 34.7984 24.1L34.6984 22.7L34.5984 22.3C34.5984 22.1 34.5984 21.9 34.6984 21.8C34.7984 21.7 34.8984 21.6 35.1984 21.6C35.3984 21.6 35.5984 21.6 35.6984 21.7C35.7984 21.8 35.8984 21.8 35.9984 22C36.0984 22.2 36.1984 22.5 36.1984 22.8L36.2984 25.4L36.3984 27.7ZM42.1984 38.6L40.6984 38.7C40.5984 38.7 40.3984 38.8 40.2984 38.9C39.9984 38.9 39.8984 39 39.6984 39C39.5984 39 39.3984 39 39.2984 38.9C39.0984 38.8 39.0984 38.6 38.9984 38.3C38.8984 36.8 39.1984 34 39.9984 30.1C40.7984 26.2 41.2984 23.8 41.3984 22.9L39.2984 23.3C39.0984 23.3 38.9984 23.3 38.7984 23.1C38.6984 23 38.5984 22.8 38.5984 22.6C38.5984 22.1 39.4984 21.8 41.3984 21.6C42.1984 21.5 42.6984 21.7 42.6984 22.2C42.7984 22.8 42.6984 23.6 42.3984 24.7C42.0984 25.8 41.9984 26.5 41.9984 26.9C41.8984 28.3 41.6984 30.3 41.1984 33C40.6984 35.7 40.4984 37.2 40.4984 37.5H40.8984L41.9984 37.3C42.6984 37.2 43.0984 37.4 43.0984 37.8C43.0984 38 42.9984 38.2 42.8984 38.3C42.5984 38.5 42.3984 38.5 42.1984 38.6ZM50.7984 32.6L51.1984 34.2C51.1984 34.4 51.3984 34.9 51.5984 35.7C51.7984 36.5 51.9984 37 51.9984 37.3C51.9984 37.7 51.8984 37.9 51.5984 38.1C51.1984 38.1 50.9984 38.1 50.6984 38C50.3984 37.9 50.3984 37.7 50.2984 37.4C50.1984 36.7 49.9984 35.6 49.5984 34.3L47.1984 34C46.9984 34.6 46.9984 35.3 46.9984 35.9C46.9984 36.6 46.8984 37.1 46.8984 37.4C46.7984 38.1 46.5984 38.4 46.1984 38.4C45.9984 38.4 45.7984 38.4 45.5984 38.3C45.3984 38.2 45.2984 38 45.2984 37.8V37.6C45.9984 33 46.4984 28.6 46.5984 24.3C46.5984 24.2 46.5984 23.8 46.5984 23.3C46.5984 22 46.5984 21.2 46.7984 20.9L47.6984 20.8C47.8984 20.8 48.0984 20.8 48.2984 20.9C48.4984 21 48.5984 21.1 48.5984 21.4C48.6984 22.7 49.0984 24.6 49.6984 27.2C50.2984 29.7 50.6984 31.5 50.7984 32.6ZM47.1984 33.1C47.4984 33.3 48.2984 33.3 49.4984 33.3C49.3984 33.1 49.3984 32.6 49.2984 32C49.1984 31.4 49.0984 30.6 48.9984 29.7C48.7984 28.8 48.5984 27.7 48.3984 26.5C48.0984 25.3 47.9984 24.4 47.8984 23.9C47.3984 28.2 47.1984 31.3 47.1984 33.1ZM57.8984 34.1L57.5984 30.5C57.0984 25.5 56.4984 21.7 55.7984 19C55.6984 19 55.5984 19.1 55.4984 19.1C55.1984 19.2 54.8984 19.3 54.6984 19.3C54.4984 19.3 54.3984 19.3 54.1984 19.2C54.0984 19.1 53.9984 19 53.9984 18.8C53.8984 18.2 54.8984 17.8 56.9984 17.6H57.2984C58.0984 17.5 58.4984 17.7 58.4984 18.2C58.4984 18.7 58.1984 18.9 57.4984 19H57.3984H56.9984V19.2C56.9984 19.6 57.1984 20.3 57.2984 21.2C57.4984 22.1 57.5984 22.9 57.6984 23.7C57.7984 24.5 57.9984 26 58.3984 28.2C58.7984 30.4 58.9984 32.1 59.0984 33.2L59.2984 35.2C59.3984 36.2 59.2984 37.1 58.8984 38C58.5984 38.8 57.9984 39.4 57.1984 39.8C56.8984 39.8 56.6984 39.8 56.4984 39.7C56.2984 39.6 56.1984 39.4 56.1984 39.2C56.1984 39 56.2984 38.7 56.4984 38.5C56.6984 38.3 56.8984 38.1 57.0984 38C57.2984 37.7 57.4984 37.2 57.6984 36.5C57.9984 35.7 57.9984 34.9 57.8984 34.1ZM66.4984 31.1L66.8984 32.7C66.8984 32.9 67.0984 33.4 67.2984 34.2C67.4984 35 67.6984 35.5 67.6984 35.8C67.6984 36.2 67.5984 36.4 67.2984 36.6C66.8984 36.6 66.6984 36.6 66.3984 36.5C66.0984 36.4 66.0984 36.2 65.9984 35.9C65.8984 35.2 65.6984 34.1 65.2984 32.8L62.6984 32.7C62.5984 33.3 62.4984 33.9 62.4984 34.6C62.4984 35.3 62.3984 35.8 62.3984 36.1C62.2984 36.8 62.0984 37.1 61.6984 37.1C61.4984 37.1 61.2984 37.1 61.0984 37C60.8984 36.9 60.7984 36.7 60.7984 36.5V36.3C61.4984 31.7 61.9984 27.3 62.0984 23C62.0984 22.9 62.0984 22.5 62.0984 22C62.0984 20.7 62.0984 19.9 62.2984 19.6L63.1984 19.5C63.3984 19.5 63.5984 19.5 63.7984 19.6C63.9984 19.7 64.0984 19.8 64.0984 20.1C64.1984 21.4 64.5984 23.3 65.1984 25.9C65.9984 28.1 66.3984 30 66.4984 31.1ZM62.8984 31.6C63.1984 31.8 63.9984 31.8 65.1984 31.8C65.0984 31.6 65.0984 31.1 64.9984 30.5C64.8984 29.9 64.7984 29.1 64.6984 28.2C64.4984 27.3 64.2984 26.2 64.0984 25C63.7984 23.8 63.6984 22.9 63.5984 22.4C63.1984 26.7 62.9984 29.8 62.8984 31.6ZM68.0984 21.4L67.7984 20V19.9C67.7984 19.5 67.7984 19.2 67.8984 19C67.9984 18.8 68.2984 18.6 68.6984 18.6C69.0984 18.6 69.5984 18.6 70.0984 18.8C70.5984 19 70.9984 19.3 71.2984 19.7C71.8984 20.5 72.1984 21.4 72.2984 22.5C72.3984 23.6 72.3984 24.4 72.2984 25.1C72.1984 25.7 71.9984 26.3 71.6984 26.9C72.3984 27.5 72.8984 28.5 73.1984 30C73.1984 30.3 73.2984 30.7 73.2984 31.2C73.2984 31.7 73.3984 32.1 73.2984 32.6C73.2984 33.1 73.1984 33.5 72.9984 33.9C72.7984 34.3 72.5984 34.7 72.3984 35C71.7984 35.7 70.9984 36.1 69.9984 36.2C69.5984 36.2 69.3984 36.1 69.2984 35.8C69.0984 35.7 68.9984 35.4 68.9984 35L68.6984 29.5L68.0984 21.4ZM69.4984 19.8C69.2984 20.3 69.2984 21.2 69.4984 22.6L69.8984 26.4C70.7984 26.3 71.0984 25.2 70.8984 23C70.5984 20.9 70.1984 19.8 69.4984 19.8ZM70.2984 33.6V33.7L70.3984 34.9C70.9984 34.7 71.3984 34.3 71.5984 33.8C71.7984 33.2 71.8984 32.7 71.8984 32.2C71.8984 31.7 71.7984 31.4 71.7984 31.1C71.7984 30.8 71.6984 30.5 71.5984 30.1C71.4984 29.7 71.3984 29.4 71.1984 29.1C70.8984 28.4 70.3984 28 69.8984 27.9C69.8984 29 69.9984 30.3 70.1984 31.8L70.2984 33.6ZM75.4984 19V21C75.5984 21.6 75.5984 22.4 75.7984 23.5C75.8984 24.6 75.9984 25.3 75.9984 25.7C76.6984 25.4 77.2984 25.2 77.5984 25.1C77.8984 25.1 78.1984 25.1 78.2984 25.2C78.3984 25.3 78.4984 25.4 78.4984 25.5C78.4984 25.6 78.4984 25.7 78.4984 25.8C78.4984 25.9 78.3984 25.9 78.2984 26C78.1984 26 78.0984 26 77.9984 26.1C77.8984 26.2 77.7984 26.2 77.5984 26.3C77.3984 26.4 77.2984 26.4 77.1984 26.5C76.7984 26.6 76.4984 26.7 76.0984 26.9C75.9984 27.2 75.9984 27.7 76.0984 28.4V28.7L76.3984 32.8C76.4984 34 76.5984 34.6 76.6984 34.6L78.4984 34.4C79.3984 34.3 79.8984 34.5 79.9984 35C79.9984 35.2 79.9984 35.3 79.7984 35.5C79.6984 35.6 79.4984 35.7 79.2984 35.8C78.6984 35.7 77.8984 35.6 76.9984 35.7C76.6984 35.9 76.4984 36 76.1984 36C75.8984 36 75.6984 36 75.5984 35.8C75.3984 35.6 75.3984 35.5 75.2984 35.2C75.1984 34.1 74.9984 31.6 74.7984 27.5C74.2984 27.8 73.8984 28 73.6984 28C73.2984 28 73.0984 27.9 73.0984 27.6C73.0984 27.2 73.5984 26.8 74.7984 26.4C74.6984 25.2 74.5984 24.3 74.5984 23.7V23.5C74.3984 22.4 74.2984 21.6 74.1984 21.1C73.9984 19.5 74.2984 18.6 74.8984 18.6C75.0984 18.6 75.1984 18.6 75.3984 18.7C75.3984 18.7 75.3984 18.8 75.4984 19ZM80.7984 30.9C80.4984 29.5 80.2984 28.2 80.1984 27.1L80.0984 26.1C80.0984 26 80.0984 26 80.0984 26V25.5C79.7984 22.8 79.7984 20.9 79.9984 19.7C80.1984 18.7 80.3984 18.1 80.5984 17.8C80.7984 17.6 80.9984 17.4 81.2984 17.4C83.2984 17.2 84.7984 18.1 85.6984 20C86.1984 21.1 86.5984 22.5 86.7984 24.2V24.4L87.0984 27.3C87.5984 32.2 86.6984 34.8 84.3984 35C83.4984 35.1 82.6984 34.6 82.0984 33.6C81.3984 32.8 80.9984 31.9 80.7984 30.9ZM81.3984 23.5L81.4984 25.9C81.6984 28.4 82.0984 30.5 82.6984 32.3C83.1984 33.3 83.6984 33.9 84.0984 34.1C84.3984 34.1 84.6984 33.9 84.8984 33.6C85.0984 33.3 85.2984 33 85.3984 32.5C85.4984 32.1 85.5984 31.6 85.5984 31.1C85.5984 30.6 85.6984 30.1 85.6984 29.6C85.6984 28.7 85.6984 27.9 85.5984 27.3C85.4984 26.7 85.3984 25.7 85.0984 24.4C84.7984 23.1 84.6984 22.1 84.5984 21.4V20.9C84.4984 20.3 84.2984 19.7 83.7984 19.3C83.3984 18.8 82.7984 18.7 82.1984 18.7C81.5984 18.8 81.2984 19.1 81.0984 19.8C80.9984 20.4 80.9984 21.1 81.0984 21.9L81.3984 23.5ZM88.2984 23.8L87.9984 19C87.8984 18.2 88.1984 17.5 88.7984 17V17.2C88.8984 17.2 88.8984 17.1 88.9984 17.1C89.3984 17.1 89.9984 17.7 90.6984 19C91.3984 20.3 92.0984 21.8 92.7984 23.4C93.3984 25 94.0984 26.6 94.6984 28.3C95.2984 29.9 95.6984 30.9 95.8984 31.2C95.8984 27.6 95.6984 23.2 95.1984 18.1L94.9984 17.4C94.9984 16.9 95.0984 16.6 95.5984 16.6C95.7984 16.6 95.9984 16.7 96.1984 16.8C96.2984 17 96.3984 17.2 96.3984 17.5L96.5984 19.4C96.7984 21.4 96.8984 24.1 97.0984 27.5C97.2984 30.9 97.1984 32.8 96.9984 33.3C96.4984 33.5 96.1984 33.6 95.9984 33.6C95.7984 33.6 95.6984 33.6 95.5984 33.5C95.4984 33.4 95.3984 33.2 95.2984 33C95.1984 32.8 95.1984 32.6 95.0984 32.5V32.4C94.9984 31.8 94.1984 29.8 92.6984 26.5C91.0984 23.2 89.9984 21 89.2984 19.7L90.4984 32.6C90.4984 32.6 90.5984 32.7 90.5984 32.8C90.6984 33 90.7984 33.1 90.7984 33.3C90.7984 33.5 90.7984 33.6 90.5984 33.8C90.4984 34 90.2984 34.1 90.0984 34.1C89.4984 34.2 89.1984 33.7 89.0984 32.6L88.2984 23.8ZM90.9984 15.2C90.8984 15.1 90.8984 15.1 90.8984 15C90.8984 14.9 90.9984 14.7 91.1984 14.5C91.3984 14.3 91.8984 13.7 92.6984 12.9C93.4984 12.1 93.8984 11.6 94.0984 11.4C94.1984 11.4 94.2984 11.3 94.3984 11.3C94.4984 11.3 94.6984 11.4 94.8984 11.6C95.0984 11.8 95.1984 12 95.1984 12.2C95.1984 12.4 95.1984 12.5 95.0984 12.6C94.4984 13.1 93.2984 14 91.5984 15.1C91.4984 15.1 91.4984 15.2 91.3984 15.2C91.1984 15.2 91.0984 15.2 90.9984 15.2ZM99.6984 32.1L100.798 32.2C101.098 32.2 101.398 32 101.598 31.7C101.798 31.4 101.998 31 101.998 30.6C102.098 29.8 102.198 29 102.098 28.4C101.998 27.8 101.898 27.2 101.598 26.6C101.298 26 100.998 25.4 100.698 24.9C100.298 24.4 99.9984 23.9 99.5984 23.4C98.7984 22.2 98.2984 20.9 98.0984 19.7C97.9984 18.9 98.0984 18.2 98.2984 17.6C98.6984 16.4 99.2984 15.8 100.098 15.8C100.398 15.8 100.698 15.8 100.998 16C101.298 16.2 101.398 16.4 101.498 16.6C101.498 17 101.298 17.2 100.898 17.3C100.698 17.3 100.498 17.3 100.298 17.2C99.7984 17.3 99.3984 17.9 99.3984 19.1C99.3984 19.4 99.3984 19.7 99.3984 20C99.3984 20.3 99.5984 20.8 99.7984 21.3C99.9984 21.8 100.198 22.2 100.498 22.6C100.798 23 101.098 23.4 101.398 23.8C101.698 24.3 101.998 24.7 102.298 25.1C102.898 26.1 103.298 27.3 103.398 28.6C103.498 29.6 103.398 30.7 102.998 31.6C102.798 32.1 102.498 32.5 102.098 32.8C101.698 33.1 101.198 33.3 100.698 33.4V33.5C99.9984 33.5 99.5984 33.2 99.3984 32.6L99.6984 32.1ZM109.598 16.9C108.498 19.1 107.898 20.4 107.798 20.7L107.898 22.2C107.998 22.9 108.398 24.3 109.198 26.2C109.998 28.2 110.598 29.4 111.098 30.1C111.198 30.2 111.298 30.3 111.498 30.5C111.698 30.7 111.798 30.9 111.898 31.1C111.998 31.3 112.098 31.4 112.098 31.6C112.098 31.8 112.098 32 111.898 32.1C111.798 32.2 111.598 32.3 111.398 32.3C110.998 32.3 110.498 32 109.998 31.1C109.498 30.3 108.998 29.3 108.498 28.1C107.698 26.1 107.098 24.3 106.698 22.7C106.198 24 105.998 25.5 106.198 27.3L106.698 32.1C106.698 32.5 106.598 32.7 106.198 32.8C105.898 32.8 105.698 32.8 105.598 32.6C105.398 32.5 105.298 32.3 105.298 32L104.498 24.2C104.398 23.3 104.398 21.9 104.298 20C104.298 18.1 104.198 16.7 104.098 15.8C104.198 15.5 104.398 15.3 104.698 15.2C104.998 15.2 105.198 15.2 105.398 15.4C105.598 15.5 105.698 15.7 105.698 15.9V16C105.498 16.4 105.498 18 105.798 20.7L105.898 21.6C105.898 21.6 106.198 20.9 106.698 19.6C107.898 16.5 108.598 15 108.998 14.9C109.298 14.9 109.498 14.9 109.698 15C109.898 15.1 109.998 15.3 110.098 15.5C110.098 15.9 109.898 16.2 109.598 16.9ZM118.498 26.1L118.898 27.7C118.898 27.9 119.098 28.4 119.298 29.2C119.498 30 119.698 30.5 119.698 30.8C119.698 31.2 119.598 31.4 119.298 31.6C118.898 31.6 118.698 31.6 118.398 31.5C118.198 31.4 118.098 31.2 117.998 30.9C117.898 30.2 117.698 29.1 117.298 27.8L114.698 27.7C114.598 28.3 114.498 28.9 114.498 29.6C114.498 30.3 114.398 30.8 114.398 31.1C114.298 31.8 114.098 32.1 113.698 32.1C113.498 32.1 113.298 32.1 113.098 32C112.898 31.9 112.798 31.7 112.798 31.5V31.3C113.498 26.7 113.998 22.3 114.098 18C114.098 17.9 114.098 17.5 114.098 17C114.098 15.7 114.098 14.9 114.298 14.6L115.198 14.5C115.398 14.5 115.598 14.5 115.798 14.6C115.998 14.7 116.098 14.8 116.098 15.1C116.198 16.4 116.598 18.3 117.198 20.9C117.998 23.1 118.398 25 118.498 26.1ZM114.898 26.5C115.198 26.7 115.998 26.7 117.198 26.7C117.098 26.5 117.098 26 116.998 25.4C116.898 24.8 116.798 24 116.698 23.1C116.498 22.2 116.298 21.1 116.098 19.9C115.798 18.7 115.698 17.8 115.598 17.3C115.098 21.7 114.898 24.8 114.898 26.5Z" fill="white"/>
<path d="M163.498 43.8H163.698C163.998 43.8 164.198 43.7 164.198 43.5L164.098 42.7C164.098 42.5 163.898 42.4 163.598 42.5H163.398C163.098 42.5 162.898 42.6 162.898 42.8L162.998 43.6C162.998 43.8 163.198 43.9 163.498 43.8ZM163.098 39.4H163.298C163.598 39.4 163.798 39.3 163.798 39.1L163.698 38.3C163.698 38.1 163.498 38 163.198 38.1H162.998C162.698 38.1 162.498 38.2 162.498 38.4L162.598 39.2C162.598 39.3 162.698 39.4 163.098 39.4ZM158.998 43.4C158.698 43.4 158.498 43.4 158.398 43.3C158.198 43.2 158.198 43 158.098 42.7C158.098 42.3 158.198 42 158.598 41.8C158.998 41.6 159.598 41.5 160.298 41.4L160.398 42.5C160.198 42.8 159.998 43 159.798 43.1C159.598 43.3 159.298 43.4 158.998 43.4ZM158.898 44.4C159.298 44.4 159.598 44.2 159.898 44C160.198 43.8 160.398 43.6 160.598 43.3C160.598 43.3 160.598 43.4 160.698 43.5C160.698 43.6 160.798 43.7 160.798 43.8C160.898 43.9 160.898 44 161.098 43.9C161.298 43.9 161.398 43.8 161.598 43.8C161.798 43.7 161.898 43.7 161.798 43.6C161.798 43.6 161.798 43.4 161.698 43.2C161.598 43 161.598 42.6 161.498 42.1L161.298 39.7C161.198 39.1 160.998 38.7 160.598 38.5C160.198 38.2 159.598 38.1 158.898 38.2C158.498 38.2 158.198 38.3 157.898 38.4C157.598 38.5 157.298 38.6 157.198 38.8C156.998 38.9 156.898 39.1 156.898 39.2C156.898 39.3 156.998 39.4 157.098 39.6C157.198 39.8 157.298 39.8 157.398 39.8C157.398 39.8 157.498 39.7 157.698 39.7C157.798 39.6 157.998 39.5 158.298 39.4C158.498 39.3 158.798 39.2 159.098 39.2C159.498 39.2 159.798 39.2 159.998 39.3C160.198 39.4 160.298 39.6 160.298 39.9L160.398 40.4C159.298 40.5 158.398 40.8 157.898 41.1C157.298 41.5 157.098 42 157.098 42.8C157.198 43.3 157.398 43.7 157.698 44C157.898 44.3 158.298 44.4 158.898 44.4ZM156.098 44.3L153.698 41.8L155.298 39.2C155.398 39.1 155.398 39 155.398 39C155.398 39 155.398 38.9 155.298 38.9C155.198 38.9 155.098 38.9 154.998 38.9H154.898C154.598 38.9 154.398 39 154.298 39.1L152.698 41.7L152.198 36.9C152.198 36.7 151.998 36.6 151.698 36.7H151.598C151.298 36.7 151.098 36.8 151.098 37L151.898 44.8C151.898 45 152.098 45.1 152.398 45H152.498C152.798 45 152.998 44.9 152.998 44.7L152.698 42.2L154.998 44.6C155.098 44.7 155.098 44.7 155.198 44.7C155.298 44.7 155.398 44.7 155.598 44.7H155.798C155.998 44.7 156.098 44.7 156.198 44.6C156.298 44.6 156.298 44.5 156.298 44.5C156.198 44.4 156.198 44.3 156.098 44.3ZM148.198 45.4H148.298C148.598 45.4 148.798 45.3 148.798 45.1L148.398 41.2C148.498 41.1 148.598 40.9 148.698 40.7C148.798 40.5 149.098 40.4 149.298 40.4C149.398 40.4 149.598 40.4 149.698 40.4C149.798 40.4 149.898 40.4 149.898 40.4C149.998 40.4 149.998 40.3 150.098 40.1C150.098 39.9 150.098 39.8 150.098 39.6C150.098 39.5 149.998 39.4 149.898 39.3C149.798 39.2 149.598 39.2 149.398 39.2C148.898 39.2 148.498 39.6 148.198 40.2C148.198 40.2 148.198 40.1 148.098 40C148.098 39.9 147.998 39.8 147.998 39.7C147.898 39.6 147.898 39.6 147.698 39.6C147.498 39.6 147.398 39.7 147.198 39.7C146.998 39.8 146.898 39.8 146.898 40C146.898 40 146.898 40.2 146.998 40.4C147.098 40.6 147.098 41 147.198 41.5L147.598 45.3C147.698 45.4 147.798 45.5 148.198 45.4ZM143.198 45.1C142.898 45.1 142.698 45.1 142.598 45C142.398 44.9 142.298 44.7 142.298 44.4C142.298 44 142.398 43.7 142.798 43.5C143.198 43.3 143.798 43.2 144.498 43.1L144.598 44.2C144.398 44.4 144.198 44.7 143.998 44.8C143.798 44.9 143.498 45 143.198 45.1ZM143.098 46C143.498 46 143.798 45.8 144.098 45.6C144.398 45.4 144.598 45.2 144.798 44.9C144.798 44.9 144.798 45 144.898 45.1C144.898 45.2 144.998 45.3 144.998 45.4C145.098 45.5 145.098 45.6 145.298 45.5C145.498 45.5 145.598 45.4 145.798 45.4C145.998 45.3 146.098 45.3 145.998 45.2C145.998 45.2 145.998 45 145.898 44.8C145.798 44.6 145.798 44.2 145.698 43.7L145.498 41.3C145.398 40.7 145.198 40.3 144.798 40.1C144.398 39.8 143.798 39.7 143.098 39.8C142.698 39.8 142.398 39.9 142.098 40C141.798 40.1 141.498 40.2 141.398 40.4C141.198 40.5 141.098 40.7 141.098 40.8C141.098 40.9 141.198 41 141.298 41.2C141.398 41.4 141.498 41.4 141.598 41.4C141.598 41.4 141.698 41.4 141.898 41.3C142.098 41.2 142.198 41.1 142.498 41C142.698 40.9 142.998 40.8 143.298 40.8C143.698 40.8 143.998 40.8 144.198 40.9C144.398 41 144.498 41.2 144.498 41.5V42C143.398 42.1 142.498 42.4 141.998 42.7C141.398 43.1 141.198 43.6 141.198 44.4C141.298 44.9 141.498 45.3 141.798 45.6C142.098 46 142.498 46.1 143.098 46ZM140.298 45.9L137.898 43.4L139.498 40.8C139.598 40.7 139.598 40.6 139.598 40.6C139.598 40.6 139.598 40.5 139.498 40.5C139.398 40.5 139.298 40.5 139.198 40.5H139.098C138.798 40.5 138.598 40.6 138.498 40.7L136.898 43.3L136.398 38.5C136.398 38.3 136.198 38.2 135.898 38.3H135.798C135.498 38.3 135.298 38.4 135.298 38.6L136.098 46.4C136.098 46.6 136.298 46.7 136.598 46.6H136.698C136.998 46.6 137.198 46.5 137.198 46.3L136.898 43.8L139.198 46.2C139.298 46.3 139.298 46.3 139.398 46.3C139.498 46.3 139.598 46.3 139.798 46.3H139.998C140.198 46.3 140.298 46.3 140.398 46.2C140.498 46.1 140.498 46.1 140.498 46.1C140.398 46.1 140.398 46 140.298 45.9ZM130.198 47.3H130.298C130.598 47.3 130.798 47.2 130.798 47L130.398 43.1C130.498 42.9 130.698 42.7 130.898 42.5C131.098 42.3 131.298 42.2 131.598 42.2C131.898 42.2 132.198 42.2 132.398 42.4C132.598 42.5 132.698 42.8 132.698 43.1L133.098 46.8C133.098 47 133.298 47.1 133.598 47H133.698C133.998 47 134.198 46.9 134.198 46.7L133.798 42.9C133.698 42.3 133.498 41.9 133.198 41.6C132.898 41.3 132.398 41.2 131.898 41.3C131.598 41.3 131.298 41.4 130.998 41.6C130.698 41.8 130.498 42 130.298 42.3C130.298 42.3 130.298 42.2 130.198 42.1C130.198 42 130.098 41.9 130.098 41.8C129.998 41.7 129.998 41.7 129.798 41.7C129.598 41.7 129.498 41.8 129.298 41.8C129.098 41.9 128.998 41.9 128.998 42.1C128.998 42.1 128.998 42.3 129.098 42.5C129.198 42.7 129.198 43.1 129.298 43.6L129.698 47.4C129.698 47.3 129.898 47.4 130.198 47.3ZM124.298 44.6C124.298 43.5 124.698 43 125.498 42.9C125.898 42.9 126.198 43 126.398 43.2C126.598 43.4 126.798 43.8 126.798 44.3L124.298 44.6ZM126.198 47.8C126.498 47.8 126.798 47.7 127.098 47.6C127.398 47.5 127.598 47.4 127.798 47.2C127.998 47.1 128.098 46.9 128.098 46.8C128.098 46.7 127.998 46.6 127.898 46.4C127.798 46.2 127.698 46.2 127.598 46.2C127.598 46.2 127.498 46.2 127.398 46.3C127.298 46.4 127.098 46.5 126.898 46.6C126.698 46.7 126.498 46.7 126.198 46.8C125.698 46.9 125.298 46.8 124.998 46.5C124.698 46.3 124.498 45.9 124.398 45.3L127.698 45C127.798 45 127.798 44.9 127.898 44.8C127.998 44.7 127.998 44.5 127.998 44.5C127.898 43.6 127.598 42.9 127.198 42.4C126.798 41.9 126.198 41.8 125.398 41.8C124.598 41.9 123.898 42.2 123.498 42.8C123.098 43.4 122.998 44.1 123.098 45.1C123.398 47.1 124.398 48 126.198 47.8ZM120.498 48.4C120.898 48.4 121.198 48.2 121.498 48.1C121.798 47.9 121.998 47.7 122.198 47.4C122.298 47.1 122.398 46.8 122.398 46.5C122.398 46.2 122.298 45.9 122.198 45.7C122.098 45.5 121.898 45.3 121.698 45.2C121.498 45.1 121.198 45 120.698 44.9C120.398 44.8 120.098 44.7 119.898 44.6C119.698 44.5 119.598 44.3 119.598 44.1C119.598 43.9 119.598 43.8 119.798 43.6C119.898 43.5 120.198 43.4 120.398 43.4C120.698 43.4 120.898 43.4 121.098 43.5C121.298 43.6 121.398 43.6 121.398 43.6C121.498 43.6 121.598 43.5 121.598 43.3C121.698 43.1 121.698 43 121.698 42.9C121.698 42.8 121.498 42.6 121.198 42.6C120.898 42.5 120.498 42.5 120.098 42.6C119.498 42.7 119.098 42.9 118.798 43.2C118.498 43.5 118.398 44 118.398 44.5C118.398 44.9 118.598 45.3 118.898 45.5C119.198 45.7 119.498 45.9 120.098 46C120.498 46.1 120.798 46.2 120.998 46.3C121.198 46.4 121.298 46.6 121.298 46.8C121.398 47.3 121.098 47.6 120.398 47.7C120.198 47.7 119.998 47.7 119.798 47.7C119.598 47.7 119.498 47.6 119.298 47.5C119.198 47.4 119.098 47.4 119.098 47.4C118.998 47.4 118.898 47.5 118.798 47.7C118.698 47.9 118.698 48 118.698 48.1C118.698 48.2 118.798 48.3 118.998 48.4C119.198 48.5 119.398 48.6 119.698 48.6C119.998 48.6 120.198 48.5 120.498 48.4ZM115.098 48C114.598 48.1 114.198 47.9 113.998 47.6C113.698 47.3 113.598 46.8 113.498 46.1C113.398 45.4 113.498 44.9 113.698 44.5C113.898 44.1 114.198 43.9 114.698 43.9C115.198 43.8 115.598 44 115.798 44.3C116.098 44.6 116.198 45.1 116.298 45.8C116.398 46.5 116.298 47 116.098 47.4C115.898 47.8 115.598 48 115.098 48ZM115.198 49C115.998 48.9 116.598 48.6 116.998 48C117.398 47.5 117.498 46.7 117.398 45.7C117.298 44.7 116.998 44 116.498 43.6C115.998 43.1 115.298 42.9 114.498 43C113.698 43.1 113.098 43.4 112.698 44C112.298 44.6 112.198 45.3 112.298 46.3C112.398 47.3 112.698 48 113.198 48.4C113.698 48.9 114.398 49.1 115.198 49ZM110.598 49.4H110.698C110.998 49.4 111.198 49.3 111.198 49.1L110.598 43.8C110.598 43.6 110.398 43.5 110.098 43.6H109.998C109.698 43.6 109.498 43.7 109.498 43.9L110.098 49.2C109.998 49.4 110.198 49.4 110.598 49.4ZM109.898 42.7C110.298 42.7 110.498 42.5 110.498 42.3L110.398 41.6C110.398 41.4 110.198 41.3 109.798 41.4C109.398 41.4 109.198 41.6 109.198 41.8L109.298 42.5C109.298 42.6 109.498 42.7 109.898 42.7ZM105.998 49C105.498 49 105.098 49 104.798 48.7L104.498 45.8C104.698 45.6 104.898 45.4 105.098 45.2C105.298 45 105.498 45 105.798 44.9C106.198 44.9 106.498 45 106.798 45.3C106.998 45.6 107.198 46.1 107.298 46.8C107.398 47.4 107.298 47.9 107.098 48.3C106.698 48.7 106.398 48.9 105.998 49ZM104.498 52.3H104.598C104.898 52.3 105.098 52.2 105.098 52L104.798 49.6C104.998 49.7 105.298 49.8 105.498 49.9C105.698 50 105.998 50 106.298 50C106.998 49.9 107.498 49.6 107.898 49C108.298 48.4 108.398 47.7 108.298 46.8C108.198 46.2 108.098 45.7 107.898 45.3C107.698 44.9 107.398 44.5 107.098 44.3C106.798 44.1 106.398 44 105.898 44C105.598 44 105.298 44.1 104.998 44.3C104.698 44.5 104.498 44.7 104.298 45C104.298 45 104.298 44.9 104.198 44.8C104.198 44.7 104.098 44.6 103.998 44.5C103.898 44.4 103.898 44.4 103.698 44.4C103.498 44.4 103.398 44.5 103.198 44.5C102.998 44.6 102.898 44.6 102.898 44.8C102.898 44.8 102.898 45 102.998 45.2C103.098 45.4 103.098 45.8 103.198 46.3L103.798 52.3C103.998 52.3 104.098 52.4 104.498 52.3Z" fill="white"/>
</g>
<defs>
<clipPath id="clip0_27_822">
<rect width="179.7" height="68.5" fill="white"/>
</clipPath>
</defs>
</svg>
