<svg width="587" height="34" viewBox="0 0 587 34" fill="none" xmlns="http://www.w3.org/2000/svg">
<g clip-path="url(#clip0_0_4285)">
<path d="M62 31L62 3L4 3L4 31L62 31Z" fill="black" fill-opacity="0.5"/>
<path d="M3.85199 30.7925H60.9898V3.63525H3.85199V30.7925ZM65.0558 34H0V0.213867H65.0558V34Z" fill="black"/>
<path d="M411.521 0.641479H345.609V33.7861H411.521V0.641479Z" fill="black"/>
<path d="M346.036 33.3585H411.091V1.06921H346.036V33.3585ZM411.733 34H345.18V0.213867H411.733V34Z" fill="black"/>
<path d="M176.977 30.7925H237.753V3.42141H176.977V30.7925ZM241.819 34H173.125V0.213867H241.819V34Z" fill="black"/>
<path d="M583 36.4493L583 39L528 39L528 36.4493L583 36.4493ZM583 31.3478L583 33.8986L528 33.8986L528 31.3478L583 31.3478ZM583 26.0338L583 28.5846L528 28.5846L528 26.0338L583 26.0338ZM583 20.9324L583 23.4831L528 23.4831L528 20.9324L583 20.9324ZM583 15.8309L583 18.3816L528 18.3816L528 15.8309L583 15.8309ZM583 10.5169L583 13.0676L528 13.0676L528 10.5169L583 10.5169ZM583 5.41545L583 7.9662L528 7.9662L528 5.41545L583 5.41545ZM583 0.314013L583 2.86476L528 2.86477L528 0.314015L583 0.314013ZM583 -5L583 -2.44925L528 -2.44924L528 -4.99999L583 -5Z" fill="black" fill-opacity="0.5"/>
<path d="M528.579 30.7925H583.363V3.20755H528.579V30.7925ZM587.001 34H524.941V0H587.001V34Z" fill="black"/>
</g>
<defs>
<clipPath id="clip0_0_4285">
<rect width="587" height="34" fill="white"/>
</clipPath>
</defs>
</svg>
