<svg width="742" height="266" viewBox="0 0 742 266" fill="none" xmlns="http://www.w3.org/2000/svg">
<g clip-path="url(#clip0_0_4229)">
<path d="M12.8671 252.402C13.3437 252.879 13.5819 253.595 13.8202 254.31C14.0585 255.026 14.0585 255.742 14.0585 256.457C14.0585 257.412 13.8202 258.127 13.5819 259.082C13.3437 259.797 12.8671 260.513 12.1523 260.99C11.4374 261.467 10.7226 261.706 10.0078 261.706C9.29293 261.706 8.33981 261.467 7.62497 260.99C6.91014 260.513 6.43358 260.036 5.95702 259.559C5.71874 259.082 5.48047 258.604 5.48047 258.127C5.24219 257.65 5.24219 257.173 5.24219 256.457C5.24219 255.503 5.48047 254.549 5.71875 253.833C6.1953 252.879 6.67186 252.163 7.3867 251.686C8.10153 251.209 8.81637 250.97 9.5312 250.97C10.9609 251.447 11.914 251.686 12.8671 252.402ZM8.33981 253.595C8.33981 253.833 8.10153 253.833 8.10153 254.072C7.86325 254.549 7.62497 254.787 7.62497 255.026C7.62497 255.265 7.3867 255.742 7.3867 256.219C7.3867 256.457 7.3867 256.696 7.3867 256.934C7.3867 257.65 7.62497 258.366 7.86325 259.082C8.10153 259.559 8.57809 260.036 9.29293 260.274C9.53121 260.274 9.76948 260.513 10.246 260.513C11.1992 260.513 11.6757 260.036 12.1523 259.32C12.6288 258.604 12.8671 257.65 12.8671 256.457C12.8671 255.503 12.6288 254.549 12.3905 253.833C11.914 253.117 11.4374 252.879 10.7226 252.879C10.4843 252.879 10.0078 252.879 9.76948 253.117C9.05465 253.117 8.81637 253.356 8.33981 253.595ZM18.1092 251.209C18.3475 251.209 18.8241 251.209 19.0624 251.447C19.3006 251.686 19.7772 251.925 20.0155 252.163C20.2537 252.402 20.2537 252.879 20.2537 253.117C20.2537 253.595 20.2537 254.072 20.0155 254.549C19.7772 255.026 19.5389 255.265 19.0624 255.503C18.5858 255.742 18.3475 255.742 17.871 255.742C17.1561 255.742 16.6796 255.503 16.203 255.026C15.7265 254.549 15.4882 254.072 15.4882 253.356C15.4882 252.64 15.7265 252.163 16.203 251.686C16.9178 251.447 17.3944 251.209 18.1092 251.209ZM17.871 254.549C18.5858 254.549 19.0624 254.072 19.0624 253.356C19.0624 253.117 19.0624 252.879 18.8241 252.879C18.5858 252.879 18.3475 252.64 18.1092 252.64C17.6327 252.64 17.3944 252.64 17.3944 252.879C17.3944 253.117 17.1561 253.356 17.1561 253.595C17.1561 253.833 17.1561 254.072 17.3944 254.31C17.3944 254.549 17.6327 254.549 17.871 254.549ZM24.781 251.209C25.0193 251.209 25.0193 251.209 25.0193 251.447C25.0193 251.686 25.0193 251.686 25.0193 251.925C25.0193 252.163 25.0193 252.402 24.781 252.64L24.0662 253.595C22.8748 255.265 21.6834 256.696 20.9686 257.889C20.2537 259.082 19.5389 260.274 18.8241 261.467C18.5858 262.183 18.1092 262.421 17.6327 262.421C17.3944 262.421 17.1561 262.421 17.1561 262.183C16.9178 262.183 16.9178 261.944 16.9178 261.706C16.9178 261.467 16.9178 261.467 17.1561 261.229C17.6327 260.752 18.1092 259.797 19.0624 258.366C20.0155 256.934 20.7303 255.98 21.2069 255.026C21.6834 254.072 22.3983 253.356 22.8748 252.64C22.8748 252.64 23.1131 252.402 23.1131 252.163C23.3514 251.925 23.5897 251.686 23.8279 251.686C24.3045 251.209 24.5428 251.209 24.781 251.209ZM26.449 259.559C26.449 260.036 26.2107 260.274 25.9724 260.752C25.7342 260.99 25.4959 261.467 25.0193 261.467C24.5428 261.706 24.3045 261.706 23.8279 261.706C23.3514 261.706 23.1131 261.706 22.8748 261.467C22.6365 261.229 22.3983 260.99 22.16 260.752C21.9217 260.513 21.9217 260.036 21.9217 259.559C21.9217 259.082 21.9217 258.843 22.16 258.366C22.3983 257.889 22.6365 257.65 23.1131 257.412C23.5897 257.173 24.0662 257.173 24.5428 257.173C25.2576 257.173 25.7342 257.412 26.2107 257.889C26.2107 258.366 26.449 258.843 26.449 259.559ZM24.0662 258.604C23.8279 258.604 23.5897 258.604 23.3514 258.843C23.1131 259.082 23.1131 259.32 23.1131 259.559C23.1131 259.797 23.1131 260.036 23.3514 260.274C23.5897 260.513 23.5897 260.513 23.8279 260.513C24.781 260.513 25.0193 260.036 25.0193 259.32C25.0193 259.082 25.0193 258.843 24.781 258.604C24.781 258.604 24.5428 258.604 24.0662 258.604Z" fill="black"/>
<path d="M10.0078 225.205C10.0078 227.353 9.76949 229.261 9.76949 230.454C9.76949 231.17 9.76949 231.885 9.76949 232.362C9.76949 232.362 10.0078 232.362 10.246 232.362H10.7226C10.9609 232.362 10.9609 232.362 11.1992 232.362C11.4374 232.362 11.6757 232.362 11.914 232.601C12.1523 232.601 12.1523 232.84 12.1523 233.078C12.1523 233.317 12.1523 233.555 11.914 233.794C11.6757 234.032 11.4374 234.032 10.9609 234.032C10.4843 234.032 10.0078 234.032 9.29293 234.032C9.05465 234.032 9.05465 234.032 8.81637 234.032C8.57809 234.032 8.57809 234.032 8.33981 234.032C7.62498 234.032 7.14842 234.032 6.91014 234.032C6.67186 234.032 6.19531 234.032 5.95703 234.032C5.71875 234.032 5.48047 233.794 5.48047 233.317C5.48047 232.84 5.71875 232.601 6.43358 232.601C6.43358 232.601 6.67186 232.601 6.91014 232.601C7.14842 232.601 7.3867 232.601 7.62498 232.601C7.86326 232.601 7.86326 232.601 7.86326 232.601C7.86326 231.885 7.86326 230.692 7.86326 229.261C7.86326 227.591 7.86326 226.398 7.86326 225.444C7.86326 225.444 7.62498 225.444 7.3867 225.683C6.91014 225.921 6.43358 226.16 6.1953 226.16C5.95703 226.16 5.95703 226.16 5.71875 225.921C5.71875 225.683 5.48047 225.683 5.48047 225.444C5.48047 225.205 5.48047 224.967 5.71875 224.967C5.95703 224.728 6.43358 224.49 6.91014 224.251C7.14842 224.013 7.3867 224.013 7.86326 223.774C7.86326 223.774 8.10154 223.774 8.10154 223.535C8.33981 223.535 8.33981 223.535 8.33981 223.535C8.57809 223.535 8.81637 223.535 9.05465 223.774C9.29293 223.774 9.53121 224.013 9.53121 224.251L10.0078 225.205ZM20.7303 224.49C21.2069 224.967 21.4451 225.683 21.6834 226.398C21.9217 227.114 21.9217 227.83 21.9217 228.545C21.9217 229.5 21.6834 230.215 21.4451 231.17C21.2069 231.885 20.7303 232.601 20.0155 233.078C19.3006 233.555 18.5858 233.794 17.871 233.794C17.1561 233.794 16.203 233.555 15.4882 233.078C14.7733 232.601 14.2968 232.124 13.8202 231.647C13.5819 231.17 13.3437 230.692 13.3437 230.215C13.1054 229.738 13.1054 229.261 13.1054 228.545C13.1054 227.591 13.3437 226.637 13.5819 225.921C14.2968 225.444 14.7733 224.728 15.4882 224.251C16.203 223.774 16.9179 223.535 17.6327 223.535C18.5858 223.297 19.7772 223.774 20.7303 224.49ZM16.203 225.683C16.203 225.921 15.9647 225.921 15.9647 226.16C15.7265 226.637 15.4882 226.875 15.4882 227.114C15.4882 227.353 15.2499 227.83 15.2499 228.307C15.2499 228.545 15.2499 228.784 15.2499 229.022C15.2499 229.738 15.4882 230.454 15.7265 231.17C15.9647 231.647 16.4413 232.124 17.1561 232.362C17.3944 232.362 17.6327 232.601 18.1092 232.601C19.0624 232.601 19.5389 232.124 20.0155 231.408C20.492 230.692 20.7303 229.738 20.7303 228.545C20.7303 227.591 20.492 226.637 20.2538 225.921C19.7772 225.205 19.3006 224.967 18.5858 224.967C18.3475 224.967 17.871 224.967 17.6327 225.205C16.9179 225.205 16.6796 225.444 16.203 225.683ZM25.9724 223.297C26.2107 223.297 26.6873 223.297 26.9256 223.535C27.1638 223.774 27.6404 224.013 27.8787 224.251C28.117 224.49 28.117 224.967 28.117 225.205C28.117 225.683 28.117 226.16 27.8787 226.637C27.6404 227.114 27.4021 227.353 26.9256 227.591C26.449 227.83 26.2107 227.83 25.7342 227.83C25.0193 227.83 24.5428 227.591 24.0662 227.114C23.5897 226.637 23.3514 226.16 23.3514 225.444C23.3514 224.728 23.5897 224.251 24.0662 223.774C24.5428 223.535 25.2576 223.297 25.9724 223.297ZM25.7342 226.637C26.449 226.637 26.9256 226.16 26.9256 225.444C26.9256 225.205 26.9256 224.967 26.6873 224.967C26.449 224.967 26.2107 224.728 25.9724 224.728C25.4959 224.728 25.2576 224.728 25.2576 224.967C25.2576 225.205 25.0193 225.444 25.0193 225.683C25.0193 225.921 25.0193 226.16 25.2576 226.398C25.2576 226.398 25.4959 226.637 25.7342 226.637ZM32.6442 223.058C32.8825 223.058 32.8825 223.058 32.8825 223.297C32.8825 223.535 32.8825 223.535 32.8825 223.774C32.8825 224.013 32.8825 224.251 32.6442 224.49L31.9294 225.444C30.738 227.114 29.5466 228.545 28.8318 229.738C28.117 230.931 27.4021 232.124 26.6873 233.317C26.449 234.032 25.9724 234.271 25.4959 234.271C25.2576 234.271 25.0193 234.271 25.0193 234.032C24.781 234.032 24.781 233.794 24.781 233.555C24.781 233.317 24.781 233.317 25.0193 233.078C25.4959 232.601 25.9724 231.647 26.9256 230.215C27.8787 228.784 28.5935 227.83 29.0701 226.875C29.5466 225.921 30.2615 225.205 30.738 224.49C30.738 224.49 30.9763 224.251 30.9763 224.013C31.2146 223.774 31.4529 223.535 31.6911 223.535C32.1677 223.297 32.406 223.058 32.6442 223.058ZM34.3122 231.647C34.3122 232.124 34.0739 232.362 33.8356 232.84C33.5974 233.078 33.3591 233.555 32.8825 233.555C32.406 233.794 32.1677 233.794 31.6911 233.794C31.2146 233.794 30.9763 233.794 30.738 233.555C30.4997 233.317 30.2615 233.078 30.0232 232.84C29.7849 232.601 29.7849 232.124 29.7849 231.647C29.7849 231.17 29.7849 230.931 30.0232 230.454C30.2615 229.977 30.4997 229.738 30.9763 229.5C31.4529 229.261 31.9294 229.261 32.406 229.261C33.1208 229.261 33.5974 229.5 34.0739 229.977C34.0739 230.215 34.3122 230.931 34.3122 231.647ZM31.9294 230.692C31.6911 230.692 31.4529 230.692 31.2146 230.931C30.9763 230.931 30.9763 231.17 30.9763 231.647C30.9763 231.885 30.9763 232.124 31.2146 232.362C31.4529 232.601 31.4529 232.601 31.6911 232.601C32.6442 232.601 32.8825 232.124 32.8825 231.408C32.8825 231.17 32.8825 230.931 32.6442 230.692C32.6442 230.692 32.406 230.692 31.9294 230.692Z" fill="black"/>
<path d="M7.86325 204.45C8.33981 204.45 8.57809 204.45 8.57809 204.45C9.05465 204.45 9.29293 204.45 9.5312 204.45C9.76948 204.45 10.0078 204.45 10.246 204.45C10.7226 204.45 11.1992 204.45 11.6757 204.45C12.1523 204.45 12.3906 204.45 12.6288 204.689C12.8671 204.927 12.8671 205.166 12.8671 205.643C12.8671 205.882 12.8671 205.882 12.6288 206.12C12.3906 206.12 12.1523 206.359 11.914 206.359C11.6757 206.359 11.1992 206.359 10.4843 206.359C9.76948 206.359 9.05465 206.359 8.57809 206.359C8.33981 206.359 8.10153 206.359 7.62497 206.359C7.3867 206.359 7.3867 206.359 7.14842 206.359C6.91014 206.359 6.67186 206.359 6.43358 206.359C5.95702 206.359 5.71874 206.359 5.48047 206.12C5.24219 205.882 5.24219 205.882 5.24219 205.405C5.24219 205.166 5.24219 204.927 5.48047 204.45C5.71874 204.212 5.95702 203.735 6.43358 203.496L7.14842 202.78C7.3867 202.542 7.62498 202.303 8.10153 201.826C9.05465 201.11 9.5312 200.395 10.0078 199.918C10.4843 199.44 10.7226 198.725 10.7226 198.248C10.7226 198.009 10.4843 197.532 10.246 197.293C10.0078 197.055 9.5312 197.055 9.05465 197.055C8.33981 197.055 7.86325 197.293 7.62497 197.532C7.3867 197.77 7.14842 198.248 7.14842 198.725C7.14842 198.963 7.14842 198.963 6.91014 199.202C6.67186 199.202 6.67186 199.44 6.43358 199.44C6.1953 199.44 5.95702 199.44 5.71875 199.202C5.48047 198.963 5.48047 198.725 5.48047 198.486C5.48047 198.009 5.71874 197.532 5.95702 197.055C6.1953 196.578 6.67186 196.339 7.14842 196.1C7.86325 195.623 8.57809 195.623 9.05465 195.623C9.5312 195.623 10.0078 195.623 10.4843 195.862C10.9609 196.1 11.4374 196.339 11.6757 196.816C11.914 197.293 12.1523 197.532 12.1523 198.009C12.1523 198.725 11.914 199.44 11.6757 199.918C11.4374 200.633 10.9609 201.11 10.4843 201.587C10.246 202.303 9.5312 202.78 8.81637 203.496C8.57809 203.735 8.10153 203.973 7.86325 204.45ZM21.9217 196.578C22.3983 197.055 22.6365 197.77 22.8748 198.486C23.1131 199.202 23.1131 199.918 23.1131 200.633C23.1131 201.587 22.8748 202.303 22.6365 203.257C22.3983 203.973 21.9217 204.689 21.2069 205.166C20.492 205.643 19.7772 205.882 19.0624 205.882C18.3475 205.882 17.3944 205.643 16.6796 205.166C15.9647 204.689 15.4882 204.212 15.0116 203.735C14.7733 203.257 14.5351 202.78 14.5351 202.303C14.5351 202.065 14.2968 201.587 14.2968 201.11C14.2968 200.156 14.5351 199.202 14.7733 198.486C15.2499 197.532 15.7265 196.816 16.4413 196.339C17.1561 195.862 17.871 195.623 18.8241 195.623C19.7772 195.623 20.7303 195.862 21.9217 196.578ZM17.3944 197.77C17.3944 198.009 17.1561 198.009 17.1561 198.248C16.6796 198.486 16.6796 198.963 16.4413 199.202C16.4413 199.44 16.203 199.918 16.203 200.395C16.203 200.633 16.203 200.872 16.203 201.11C16.203 201.826 16.4413 202.542 16.6796 203.257C16.9178 203.735 17.3944 204.212 18.1092 204.45C18.3475 204.45 18.5858 204.689 19.0624 204.689C20.0155 204.689 20.492 204.212 20.9686 203.496C21.2069 202.542 21.4451 201.587 21.4451 200.633C21.4451 199.679 21.2069 198.725 20.9686 198.009C20.492 197.293 20.0155 197.055 19.3006 197.055C19.0624 197.055 18.5858 197.055 18.3475 197.293C17.871 197.293 17.6327 197.532 17.3944 197.77ZM27.1638 195.385C27.4021 195.385 27.8787 195.385 28.1169 195.623C28.3552 195.862 28.8318 196.1 29.0701 196.339C29.3083 196.578 29.3083 197.055 29.3083 197.293C29.3083 197.77 29.3083 198.248 29.0701 198.725C28.8318 199.202 28.5935 199.44 28.1169 199.679C27.6404 199.918 27.4021 199.918 26.9256 199.918C26.2107 199.918 25.7342 199.679 25.2576 199.202C24.781 198.725 24.5428 198.248 24.5428 197.532C24.5428 196.816 24.781 196.339 25.2576 195.862C25.7342 195.623 26.2107 195.385 27.1638 195.385ZM26.6873 198.725C27.4021 198.725 27.8787 198.248 27.8787 197.532C27.8787 197.293 27.8787 197.055 27.6404 197.055C27.4021 197.055 27.1638 196.816 26.9256 196.816C26.449 196.816 26.2107 196.816 26.2107 197.055C26.2107 197.293 25.9724 197.532 25.9724 197.77C25.9724 198.009 25.9724 198.248 26.2107 198.486C26.2107 198.486 26.449 198.725 26.6873 198.725ZM33.8356 195.146C34.0739 195.146 34.0739 195.146 34.0739 195.385C34.0739 195.623 34.0739 195.623 34.0739 195.862C34.0739 196.1 34.0739 196.339 33.8356 196.578L33.3591 197.293C32.1677 198.963 30.9763 200.395 30.2615 201.587C29.5466 202.78 28.8318 203.973 28.1169 205.166C27.8787 205.882 27.4021 206.12 26.9256 206.12C26.6873 206.12 26.449 206.12 26.449 205.882C26.2107 205.882 26.2107 205.643 26.2107 205.405C26.2107 205.166 26.2107 205.166 26.449 204.927C26.9256 204.45 27.4021 203.496 28.3552 202.065C29.3083 200.633 30.0232 199.679 30.4997 198.725C30.9763 197.77 31.6911 197.055 32.1677 196.339C32.1677 196.339 32.406 196.1 32.406 195.862C32.6442 195.623 32.8825 195.385 33.1208 195.385C33.3591 195.385 33.5974 195.146 33.8356 195.146ZM35.2653 203.735C35.2653 204.212 35.027 204.45 34.7888 204.927C34.5505 205.166 34.3122 205.643 33.8356 205.643C33.3591 205.882 33.1208 205.882 32.6442 205.882C32.1677 205.882 31.9294 205.882 31.6911 205.643C31.2146 205.643 30.9763 205.166 30.9763 204.927C30.738 204.689 30.738 204.212 30.738 203.735C30.738 203.257 30.738 203.019 30.9763 202.542C31.2146 202.065 31.4528 201.826 31.9294 201.587C32.406 201.349 32.8825 201.349 33.3591 201.349C34.0739 201.349 34.5505 201.587 35.027 202.065C35.027 202.303 35.2653 203.019 35.2653 203.735ZM33.1208 202.78C32.8825 202.78 32.6442 202.78 32.406 203.019C32.1677 203.257 32.1677 203.496 32.1677 203.735C32.1677 203.973 32.1677 204.212 32.406 204.45C32.6442 204.689 32.6442 204.689 32.8825 204.689C33.8356 204.689 34.0739 204.212 34.0739 203.496C34.0739 203.257 34.0739 203.019 33.8356 202.78C33.5974 202.78 33.3591 202.78 33.1208 202.78Z" fill="black"/>
<path d="M10.0078 171.528C10.9609 171.767 11.6757 172.244 12.3905 172.721C13.1054 173.437 13.3437 173.914 13.3437 174.868C13.3437 175.345 13.3437 175.822 13.1054 176.3C12.6288 177.015 12.1523 177.492 11.4374 177.97C10.7226 178.447 10.0078 178.447 9.05465 178.447C8.57809 178.447 7.86325 178.447 7.3867 178.208C6.91014 177.97 6.43358 177.731 5.95702 177.254C5.71874 177.015 5.71874 176.777 5.48047 176.538C5.24219 176.3 5.24219 176.061 5.24219 175.822C5.24219 175.584 5.24219 175.345 5.48047 175.107C5.71874 174.868 5.71874 174.868 5.95702 174.868C6.1953 174.868 6.43358 174.868 6.43358 175.107C6.67186 175.107 6.67186 175.345 6.91014 175.584C7.14842 175.822 7.14842 176.061 7.3867 176.061C7.62497 176.3 7.62497 176.3 7.86325 176.538C8.33981 176.538 8.57809 176.538 9.05465 176.538C9.76948 176.538 10.4843 176.3 10.7226 176.061C11.1992 175.584 11.4374 175.107 11.4374 174.391C11.4374 174.153 11.1992 173.914 10.9609 173.675C10.7226 173.437 10.4843 173.198 10.246 173.198C10.0078 173.198 9.76948 172.96 9.5312 172.96C9.05465 172.721 8.57809 172.721 8.33981 172.483C8.10153 172.244 7.86325 172.244 7.86325 171.767C7.86325 171.528 7.86325 171.29 8.10153 171.29C8.33981 171.051 8.57809 170.813 8.81637 170.574C9.29293 170.335 9.5312 170.097 9.5312 169.858C9.5312 169.62 9.76948 169.381 9.76948 169.381C9.5312 169.381 9.29293 169.381 8.81637 169.381C8.57809 169.381 8.33981 169.381 7.86325 169.381C7.62497 169.381 7.14842 169.381 7.14842 169.381C6.67186 169.381 6.43358 169.381 6.1953 169.143C5.95702 168.904 5.71875 168.904 5.71875 168.666C5.71875 168.427 5.71875 168.188 5.71875 168.188C5.71875 167.95 5.95702 167.95 5.95702 167.95C5.95702 167.95 6.1953 167.95 6.43358 167.95C6.91014 167.95 7.3867 167.95 7.86325 167.95C8.33981 167.95 8.57809 167.95 8.81637 167.95H10.246C11.4374 167.95 11.914 168.188 11.914 168.666C11.914 169.143 11.6757 169.62 11.1992 170.097C10.9609 170.574 10.4843 171.051 10.0078 171.528ZM22.16 168.666C22.6365 169.143 22.8748 169.858 23.1131 170.574C23.3514 171.29 23.3514 172.005 23.3514 172.721C23.3514 173.675 23.1131 174.391 22.8748 175.345C22.6365 176.061 22.16 176.777 21.4451 177.254C20.7303 177.731 20.0155 177.97 19.3006 177.97C18.5858 177.97 17.6327 177.731 16.9178 177.254C16.203 176.777 15.7265 176.3 15.2499 175.822C15.0116 175.345 14.7733 174.868 14.7733 174.391C14.5351 173.914 14.5351 173.437 14.5351 172.721C14.5351 171.767 14.7733 170.813 15.0116 170.097C15.4882 169.143 15.9647 168.427 16.6796 167.95C17.3944 167.473 18.1092 167.234 18.8241 167.234C20.0155 167.711 20.9686 167.95 22.16 168.666ZM17.6327 169.858C17.6327 170.097 17.3944 170.097 17.3944 170.335C17.1561 170.813 16.9178 171.051 16.9178 171.29C16.9178 171.528 16.6796 172.005 16.6796 172.483C16.6796 172.721 16.6796 172.96 16.6796 173.198C16.6796 173.914 16.9178 174.63 17.1561 175.345C17.3944 175.822 17.871 176.3 18.5858 176.538C18.5858 176.538 18.8241 176.538 19.0624 176.538C20.0155 176.538 20.492 176.061 20.9686 175.345C21.4451 174.63 21.6834 173.675 21.6834 172.483C21.6834 171.528 21.4451 170.574 21.2069 169.858C20.7303 169.143 20.2537 168.904 19.5389 168.904C19.3006 168.904 18.8241 168.904 18.5858 169.143C18.3475 169.381 17.871 169.62 17.6327 169.858ZM27.4021 167.473C27.6404 167.473 28.1169 167.473 28.3552 167.711C28.5935 167.95 29.0701 168.188 29.3083 168.427C29.5466 168.666 29.5466 169.143 29.5466 169.381C29.5466 169.858 29.5466 170.335 29.3083 170.813C29.0701 171.29 28.8318 171.528 28.3552 171.767C27.8787 172.005 27.6404 172.005 27.1638 172.005C26.449 172.005 25.9724 171.767 25.4959 171.29C25.0193 170.813 24.781 170.335 24.781 169.62C24.781 168.904 25.0193 168.427 25.4959 167.95C25.9724 167.711 26.6873 167.473 27.4021 167.473ZM26.9256 170.813C27.6404 170.813 28.1169 170.335 28.1169 169.62C28.1169 169.381 28.1169 169.143 27.8787 169.143C27.6404 169.143 27.4021 168.904 27.1638 168.904C26.6873 168.904 26.449 168.904 26.449 169.143C26.449 169.381 26.2107 169.62 26.2107 169.858C26.2107 170.097 26.2107 170.335 26.449 170.574C26.6873 170.574 26.6873 170.813 26.9256 170.813ZM34.0739 167.234C34.3122 167.234 34.3122 167.234 34.3122 167.473C34.3122 167.711 34.3122 167.711 34.3122 167.95C34.3122 168.188 34.3122 168.427 34.0739 168.666L33.5974 169.381C32.406 171.051 31.2146 172.483 30.4997 173.675C29.7849 174.868 29.0701 176.061 28.3552 177.254C28.1169 177.97 27.6404 178.208 27.1638 178.208C26.9256 178.208 26.6873 178.208 26.6873 177.97C26.449 177.97 26.449 177.731 26.449 177.492C26.449 177.254 26.449 177.254 26.6873 177.015C27.1638 176.538 27.6404 175.584 28.5935 174.153C29.5466 172.721 30.2615 171.767 30.738 170.813C31.2146 169.858 31.9294 169.143 32.406 168.427C32.406 168.427 32.6442 168.188 32.6442 167.95C32.8825 167.711 33.1208 167.473 33.3591 167.473C33.5974 167.473 33.8356 167.234 34.0739 167.234ZM35.5036 175.822C35.5036 176.3 35.2653 176.538 35.027 177.015C34.7888 177.254 34.5505 177.731 34.0739 177.731C33.5974 177.97 33.3591 177.97 32.8825 177.97C32.406 177.97 32.1677 177.97 31.9294 177.731C31.6911 177.492 31.4529 177.254 31.2146 177.015C30.9763 176.777 30.9763 176.3 30.9763 176.061C30.9763 175.584 30.9763 175.345 31.2146 174.868C31.4529 174.391 31.6911 174.153 32.1677 173.914C32.6442 173.675 33.1208 173.675 33.5974 173.675C34.3122 173.675 34.7888 173.914 35.2653 174.391C35.5036 174.63 35.5036 175.107 35.5036 175.822ZM33.3591 174.868C33.1208 174.868 32.8825 174.868 32.6442 175.107C32.406 175.345 32.406 175.584 32.406 175.822C32.406 176.061 32.406 176.3 32.6442 176.538C32.8825 176.777 32.8825 176.777 33.1208 176.777C34.0739 176.777 34.3122 176.3 34.3122 175.584C34.3122 175.345 34.3122 175.107 34.0739 174.868C33.8356 174.868 33.5974 174.868 33.3591 174.868Z" fill="black"/>
<path d="M8.57809 140.276C8.57809 140.753 8.57809 141.469 8.33981 142.185C8.10154 142.9 7.86326 143.855 7.3867 144.809L7.14842 146.002C7.3867 146.002 7.62498 146.002 7.62498 146.002C7.86326 146.002 8.57809 146.002 9.29293 146.002C10.0078 146.002 10.4843 146.002 10.7226 146.002V144.093C10.7226 142.9 10.7226 141.946 10.7226 141.231C10.7226 140.515 10.9609 140.038 11.4374 140.038C11.914 140.038 12.1523 140.038 12.1523 140.276C12.1523 140.515 12.3906 140.753 12.3906 141.231C12.3906 141.708 12.3906 142.423 12.3906 143.378C12.3906 143.616 12.3906 143.855 12.3906 144.332C12.3906 144.809 12.3906 145.048 12.3906 145.525V146.002H12.6288C12.8671 146.002 13.1054 146.002 13.3437 146.002C13.5819 146.002 13.8202 146.002 14.0585 146.24C14.2968 146.479 14.5351 146.717 14.5351 146.956C14.5351 147.195 14.5351 147.433 14.2968 147.672C14.2968 147.91 14.0585 147.91 14.0585 147.91C13.8202 147.91 13.5819 147.91 13.3437 147.91H13.1054C12.8671 147.91 12.8671 147.91 12.6288 147.91H12.3906V150.296C12.3906 150.535 12.3906 150.773 12.1523 150.773C11.914 150.296 11.6757 150.296 11.6757 150.296C11.4374 150.296 11.1992 150.296 10.9609 150.057C10.7226 149.819 10.7226 149.819 10.7226 149.58C10.7226 148.865 10.7226 148.149 10.7226 147.91C10.7226 147.91 10.7226 147.672 10.7226 147.433C10.4843 147.433 9.76949 147.433 9.05465 147.433C8.33981 147.433 7.62498 147.672 7.14842 147.672C6.67186 147.672 6.19531 147.672 5.95703 147.433C5.71875 147.195 5.48047 146.956 5.48047 146.717C5.48047 146.479 5.48047 146.002 5.71875 145.525C5.95703 145.048 5.95703 144.57 6.1953 143.855C6.1953 143.616 6.43358 143.378 6.43358 143.139C6.67186 142.662 6.67186 142.185 6.91014 141.708C6.91014 141.231 7.14842 140.753 7.14842 140.276C7.14842 140.038 7.3867 140.038 7.3867 139.799C7.62498 139.799 7.62498 139.561 7.86326 139.561C8.10153 139.561 8.33981 139.561 8.33981 139.799C8.57809 139.799 8.57809 140.038 8.57809 140.276ZM23.1131 140.753C23.5897 141.231 23.8279 141.946 24.0662 142.662C24.3045 143.378 24.3045 144.093 24.3045 144.809C24.3045 145.763 24.0662 146.479 23.8279 147.433C23.5897 148.149 23.1131 148.865 22.3983 149.342C21.9217 150.057 21.2069 150.296 20.2538 150.296C19.5389 150.296 18.5858 150.057 17.871 149.58C17.1561 149.103 16.6796 148.626 16.203 148.149C15.9647 147.672 15.7265 147.195 15.7265 146.717C15.4882 146.24 15.4882 145.763 15.4882 145.048C15.4882 144.093 15.7265 143.139 15.9647 142.423C16.203 141.708 16.9178 140.753 17.6327 140.276C18.3475 139.799 19.0624 139.561 19.7772 139.561C20.9686 139.799 21.9217 140.038 23.1131 140.753ZM18.5858 141.946C18.5858 142.185 18.3475 142.185 18.3475 142.423C18.1092 142.9 17.871 143.139 17.871 143.378C17.871 143.616 17.6327 144.093 17.6327 144.57C17.6327 144.809 17.6327 145.048 17.6327 145.286C17.6327 146.002 17.871 146.717 18.1092 147.433C18.1092 147.91 18.5858 148.387 19.0624 148.626C19.3006 148.626 19.5389 148.865 20.0155 148.865C20.9686 148.865 21.4451 148.387 21.9217 147.672C22.3983 146.956 22.6365 146.002 22.6365 144.809C22.6365 143.855 22.3983 142.9 22.16 142.185C21.6834 141.469 21.2069 141.231 20.492 141.231C20.2538 141.231 19.7772 141.23 19.5389 141.469C19.3006 141.469 18.8241 141.708 18.5858 141.946ZM28.3552 139.561C28.5935 139.561 29.0701 139.561 29.3083 139.799C29.5466 140.038 30.0232 140.276 30.2615 140.515C30.4997 140.753 30.4997 141.23 30.4997 141.469C30.4997 141.946 30.4997 142.423 30.2615 142.9C30.0232 143.378 29.7849 143.616 29.3083 143.855C28.8318 144.093 28.5935 144.093 28.1169 144.093C27.4021 144.093 26.9256 143.855 26.449 143.378C25.9724 142.9 25.7342 142.423 25.7342 141.708C25.7342 140.992 25.9724 140.515 26.449 140.038C26.9256 139.799 27.6404 139.561 28.3552 139.561ZM27.8787 142.9C28.5935 142.9 29.0701 142.423 29.0701 141.708C29.0701 141.469 29.0701 141.231 28.8318 141.231C28.5935 141.231 28.3552 140.992 28.1169 140.992C27.6404 140.992 27.4021 140.992 27.4021 141.231C27.4021 141.469 27.1638 141.708 27.1638 141.946C27.1638 142.185 27.1638 142.423 27.4021 142.662C27.6404 142.662 27.6404 142.9 27.8787 142.9ZM35.027 139.561C35.2653 139.561 35.2653 139.561 35.2653 139.799C35.2653 140.038 35.2653 140.038 35.2653 140.276C35.2653 140.515 35.2653 140.753 35.027 140.992L34.3122 141.946C33.1208 143.616 31.9294 145.048 31.2146 146.24C30.4997 147.433 29.7849 148.626 29.0701 149.819C28.8318 150.057 28.5935 150.296 28.1169 150.296C27.8787 150.296 27.6404 150.296 27.6404 150.057C27.4021 150.057 27.4021 149.819 27.4021 149.58C27.4021 149.342 27.4021 149.342 27.6404 149.103C28.117 148.626 28.5935 147.672 29.5466 146.24C30.4997 144.809 31.2146 143.855 31.6911 142.9C32.1677 141.946 32.8825 141.231 33.3591 140.515C33.3591 140.515 33.5974 140.276 33.5974 140.038C33.8356 139.799 34.0739 139.561 34.3122 139.561C34.5505 139.561 34.7888 139.561 35.027 139.561ZM36.4567 147.91C36.4567 148.387 36.2184 148.626 35.9801 149.103C35.7419 149.342 35.5036 149.819 35.027 149.819C34.5505 150.057 34.3122 150.057 33.8356 150.057C33.3591 150.057 33.1208 150.057 32.8825 149.819C32.6442 149.58 32.406 149.342 32.1677 149.103C31.9294 148.865 31.9294 148.387 31.9294 147.91C31.9294 147.433 31.9294 147.195 32.1677 146.717C32.406 146.24 32.6442 146.002 33.1208 145.763C33.5974 145.525 34.0739 145.525 34.5505 145.525C35.2653 145.525 35.7419 145.763 36.2184 146.24C36.4567 146.717 36.4567 147.195 36.4567 147.91ZM34.3122 146.956C34.0739 146.956 33.8356 146.956 33.5974 147.195C33.3591 147.433 33.3591 147.672 33.3591 147.91C33.3591 148.149 33.3591 148.387 33.5974 148.626C33.8356 148.865 33.8356 148.865 34.0739 148.865C35.027 148.865 35.2653 148.387 35.2653 147.672C35.2653 147.433 35.2653 147.195 35.027 146.956C34.7888 146.956 34.5505 146.956 34.3122 146.956Z" fill="black"/>
<path d="M7.86326 113.557C7.86326 113.796 7.62498 114.273 7.62498 114.75C7.62498 115.227 7.62498 115.465 7.62498 115.704C7.86326 115.465 8.33982 115.465 8.57809 115.465C8.81637 115.465 9.29293 115.465 9.76949 115.465C10.4843 115.465 10.9609 115.704 11.6757 115.943C12.1523 116.181 12.6288 116.658 12.8671 117.135C13.1054 117.613 13.3437 118.328 13.3437 118.805C13.3437 119.044 13.3437 119.283 13.1054 119.76C12.8671 120.237 12.8671 120.475 12.6288 120.714C11.914 121.43 11.4374 121.668 10.9609 122.145C10.4843 122.384 9.76949 122.622 9.29293 122.622C8.81637 122.622 8.33982 122.622 8.10154 122.384C7.62498 122.145 7.14842 121.907 6.91014 121.668C6.43359 121.43 6.19531 121.191 5.95703 120.952C5.71875 120.714 5.71875 120.475 5.71875 119.998C5.71875 119.76 5.71875 119.521 5.95703 119.521C5.95703 119.521 6.19531 119.283 6.43359 119.283H6.67186C6.67186 119.283 6.91014 119.521 7.14842 119.521L7.62498 119.998C7.86326 120.237 8.10154 120.475 8.33982 120.475C8.57809 120.475 8.81637 120.714 9.29293 120.714C9.53121 120.714 10.0078 120.714 10.246 120.475C10.7226 120.237 10.9609 119.998 11.1992 119.76C11.4374 119.521 11.6757 119.044 11.6757 118.567C11.6757 118.09 11.4374 117.613 11.1992 117.135C10.4843 117.135 9.76949 116.897 8.81637 116.897C8.57809 116.897 8.57809 116.897 8.33982 116.897C8.10154 116.897 7.86326 117.135 7.62498 117.135C7.14842 117.374 6.67186 117.374 6.67186 117.374C6.43359 117.374 6.43359 117.374 6.19531 117.135C5.95703 117.135 5.95703 116.897 5.95703 116.897C6.19531 115.465 6.19531 114.511 6.19531 113.557V113.08C6.19531 112.841 6.19531 112.603 6.19531 112.603C6.19531 112.364 6.19531 112.364 6.43359 112.126C6.67186 112.126 6.91014 111.887 7.14842 111.887C7.3867 111.887 7.86326 111.887 8.57809 111.887H9.29293C9.29293 111.887 9.53121 111.887 9.76949 111.887H10.4843C10.7226 111.887 10.7226 111.887 10.9609 111.887C11.1992 111.887 11.6757 111.887 11.914 112.126C12.1523 112.126 12.1523 112.364 12.1523 112.603C12.1523 112.841 12.1523 113.318 11.914 113.318C11.914 113.557 11.6757 113.557 11.4374 113.557C11.1992 113.557 10.9609 113.557 10.7226 113.557C10.246 113.557 9.76949 113.557 9.29293 113.557C9.05465 113.557 8.57809 113.557 7.86326 113.557ZM21.9217 112.841C22.3983 113.318 22.6365 114.034 22.8748 114.75C23.1131 115.465 23.1131 116.181 23.1131 116.897C23.1131 117.851 22.8748 118.567 22.6365 119.521C22.3983 120.237 21.9217 120.952 21.2069 121.43C20.492 121.907 19.7772 122.145 19.0624 122.145C18.3475 122.145 17.3944 121.907 16.6796 121.43C15.9647 120.952 15.4882 120.475 15.0116 119.998C14.7733 119.521 14.5351 119.044 14.5351 118.567C14.2968 118.567 14.2968 117.851 14.2968 117.374C14.2968 116.42 14.5351 115.465 14.7733 114.75C15.0116 114.034 15.7265 113.08 16.4413 112.603C17.1561 112.126 17.871 111.887 18.5858 111.887C19.7772 111.887 20.7303 112.126 21.9217 112.841ZM17.3944 114.034C17.3944 114.273 17.1561 114.273 17.1561 114.511C16.9178 114.988 16.6796 115.227 16.6796 115.465C16.6796 115.704 16.4413 116.181 16.4413 116.658C16.4413 116.897 16.4413 117.135 16.4413 117.374C16.4413 118.09 16.6796 118.805 16.9178 119.521C17.1561 119.998 17.6327 120.475 18.3475 120.714C18.5858 120.714 18.8241 120.952 19.3006 120.952C20.2538 120.952 20.7303 120.475 21.2069 119.76C21.2069 119.044 21.4451 118.09 21.4451 116.897C21.4451 115.943 21.2069 114.988 20.9686 114.273C20.492 113.557 20.0155 113.318 19.3006 113.318C19.0624 113.318 18.5858 113.318 18.3475 113.557C17.871 113.557 17.6327 113.796 17.3944 114.034ZM27.1638 111.648C27.4021 111.648 27.8787 111.648 28.1169 111.887C28.3552 112.126 28.8318 112.364 29.0701 112.603C29.3083 112.841 29.3083 113.318 29.3083 113.557C29.3083 114.034 29.3083 114.511 29.0701 114.988C28.8318 115.465 28.5935 115.704 28.1169 115.943C27.6404 116.181 27.4021 116.181 26.9256 116.181C26.2107 116.181 25.7342 115.943 25.2576 115.465C24.781 114.988 24.5428 114.511 24.5428 113.796C24.5428 113.08 24.781 112.603 25.2576 112.126C25.7342 111.887 26.2107 111.648 27.1638 111.648ZM26.6873 114.988C27.4021 114.988 27.8787 114.511 27.8787 113.796C27.8787 113.557 27.8787 113.318 27.6404 113.318C27.4021 113.318 27.1638 113.08 26.9256 113.08C26.449 113.08 26.2107 113.08 26.2107 113.318C26.2107 113.557 25.9724 113.796 25.9724 114.034C25.9724 114.273 25.9724 114.511 26.2107 114.75C26.2107 114.988 26.449 114.988 26.6873 114.988ZM33.8356 111.648C34.0739 111.648 34.0739 111.648 34.0739 111.887C34.0739 112.126 34.0739 112.126 34.0739 112.364C34.0739 112.603 34.0739 112.841 33.8356 113.08L33.3591 113.557C32.1677 115.227 30.9763 116.658 30.2615 117.851C29.5466 119.044 28.8318 120.237 28.1169 121.43C27.8787 122.145 27.4021 122.384 26.9256 122.384C26.6873 122.384 26.449 122.384 26.449 122.145C26.2107 122.145 26.2107 121.907 26.2107 121.668C26.2107 121.43 26.2107 121.43 26.449 121.191C26.9256 120.714 27.4021 119.76 28.3552 118.328C29.3083 116.897 30.0232 115.943 30.4997 114.988C30.9763 114.034 31.6911 113.318 32.1677 112.603C32.1677 112.603 32.406 112.364 32.406 112.126C32.6442 111.887 32.8825 111.648 33.1208 111.648C33.3591 111.648 33.5974 111.648 33.8356 111.648ZM35.2653 119.998C35.2653 120.475 35.027 120.714 34.7888 121.191C34.5505 121.43 34.3122 121.907 33.8356 121.907C33.3591 122.145 33.1208 122.145 32.6442 122.145C32.1677 122.145 31.9294 122.145 31.6911 121.907C31.4529 121.668 31.2146 121.43 30.9763 121.191C30.738 120.952 30.738 120.475 30.738 119.998C30.738 119.521 30.738 119.283 30.9763 118.805C31.2146 118.328 31.4529 118.09 31.9294 117.851C32.406 117.613 32.8825 117.613 33.3591 117.613C34.0739 117.613 34.5505 117.851 35.027 118.328C35.027 118.805 35.2653 119.283 35.2653 119.998ZM33.1208 119.044C32.8825 119.044 32.6442 119.044 32.406 119.283C32.1677 119.521 32.1677 119.76 32.1677 119.998C32.1677 120.237 32.1677 120.475 32.406 120.714C32.6442 120.952 32.6442 120.952 32.8825 120.952C33.8356 120.952 34.0739 120.475 34.0739 119.76C34.0739 119.521 34.0739 119.283 33.8356 119.044C33.5974 119.044 33.3591 119.044 33.1208 119.044Z" fill="black"/>
<path d="M10.0078 85.6449C9.53121 85.6449 9.29293 85.8834 9.05465 86.122C8.81637 86.3605 8.57809 86.5991 8.33982 87.0762L8.10154 87.5534C7.86326 87.7919 7.86326 88.0305 7.62498 88.2691C7.62498 88.5076 7.3867 88.7462 7.3867 88.9848C7.86326 88.5076 8.81637 88.0305 9.76949 88.0305C10.246 88.0305 10.7226 88.2691 11.1992 88.5076C11.6757 88.7462 12.1523 88.9848 12.3906 89.4619C12.6288 89.7005 12.6288 89.939 12.8671 90.4162C13.1054 90.8933 13.1054 91.3704 13.1054 91.8475C13.1054 92.3247 13.1054 92.5632 12.8671 93.0404C12.6288 93.5175 12.3906 93.7561 11.914 94.2332C11.6757 94.4718 11.1992 94.7103 10.9609 94.7103C10.4843 94.7103 10.0078 94.9489 9.76949 94.9489C9.05465 94.9489 8.33982 94.7103 7.62498 94.2332C6.91014 93.7561 6.43359 93.2789 6.19531 92.5632C5.71875 91.8475 5.71875 91.1318 5.71875 90.4162C5.71875 89.2233 5.95703 88.2691 6.43359 87.3148C6.91014 86.3605 7.62498 85.4063 8.57809 84.9292C8.81637 84.9292 9.05465 84.6906 9.29293 84.6906C9.76949 84.6906 10.0078 84.452 10.246 84.452C10.7226 84.452 10.9609 84.6906 10.9609 85.1677C10.9609 85.4063 10.9609 85.6449 10.7226 85.8834C10.4843 85.4063 10.246 85.4063 10.0078 85.6449ZM9.29293 93.0404C9.53121 93.0404 9.76949 93.0404 10.0078 93.0404C10.246 93.0404 10.246 93.0404 10.4843 92.8018C10.7226 92.5632 10.9609 92.5632 11.1992 92.3247C11.4374 92.0861 11.4374 91.8475 11.4374 91.609C11.4374 90.8933 11.1992 90.1776 10.9609 89.939C10.4843 89.7005 10.246 89.4619 9.53121 89.4619C9.29293 89.4619 9.05465 89.4619 8.57809 89.7005C8.33982 89.939 7.86326 89.939 7.62498 90.1776C7.3867 90.4161 7.3867 90.6547 7.3867 90.8933C7.3867 91.3704 7.3867 91.8475 7.62498 92.0861C7.86326 92.3247 8.10154 92.5632 8.33982 92.8018C8.81637 92.8018 9.05465 93.0404 9.29293 93.0404ZM21.9217 84.9292C22.3983 85.4063 22.6365 86.122 22.8748 86.8377C23.1131 87.5534 23.1131 88.2691 23.1131 88.9848C23.1131 89.939 22.8748 90.6547 22.6365 91.609C22.3983 92.3247 21.9217 93.0404 21.2069 93.5175C20.492 93.9946 19.7772 94.2332 19.0624 94.2332C18.3475 94.2332 17.3944 93.9946 16.6796 93.5175C15.9647 93.0404 15.4882 92.5632 15.0116 92.0861C14.7733 91.609 14.5351 91.1318 14.5351 90.6547C14.5351 90.6547 14.2968 89.939 14.2968 89.4619C14.2968 88.5076 14.5351 87.5534 14.7733 86.8377C15.0116 86.122 15.7265 85.1677 16.4413 84.6906C17.1561 84.2135 17.871 83.9749 18.5858 83.9749C19.7772 83.9749 20.7303 84.2135 21.9217 84.9292ZM17.3944 86.122C17.3944 86.3605 17.1561 86.3605 17.1561 86.5991C16.6796 87.0762 16.6796 87.3148 16.4413 87.5534C16.4413 87.7919 16.203 88.2691 16.203 88.7462C16.203 88.9848 16.203 89.2233 16.203 89.4619C16.203 90.1776 16.4413 90.8933 16.6796 91.609C16.9178 92.0861 17.3944 92.5632 18.1092 92.8018C18.3475 92.8018 18.5858 93.0404 19.0624 93.0404C20.0155 93.0404 20.492 92.5632 20.9686 91.8475C21.2069 91.1318 21.4451 90.1776 21.4451 88.9848C21.4451 88.0305 21.2069 87.0762 20.9686 86.3605C20.492 85.8834 19.7772 85.4063 19.0624 85.4063C18.8241 85.4063 18.3475 85.4063 18.1092 85.6449C18.1092 85.8834 17.6327 85.8834 17.3944 86.122ZM27.1638 83.9749C27.4021 83.9749 27.8787 83.9749 28.1169 84.2135C28.3552 84.452 28.8318 84.6906 29.0701 84.9292C29.3083 85.1677 29.3083 85.6449 29.3083 85.8834C29.3083 86.3605 29.3083 86.8377 29.0701 87.3148C28.8318 87.7919 28.5935 88.0305 28.1169 88.2691C27.8787 88.2691 27.4021 88.2691 26.9256 88.2691C26.2107 88.2691 25.7342 88.0305 25.2576 87.5534C24.781 87.0762 24.5428 86.5991 24.5428 85.8834C24.5428 85.1677 24.781 84.6906 25.2576 84.2135C25.7342 83.9749 26.449 83.9749 27.1638 83.9749ZM26.6873 87.0762C27.4021 87.0762 27.8787 86.5991 27.8787 85.8834C27.8787 85.6449 27.8787 85.4063 27.6404 85.4063C27.4021 85.4063 27.1638 85.1677 26.9256 85.1677C26.449 85.1677 26.2107 85.1677 26.2107 85.4063C26.2107 85.6448 25.9724 85.8834 25.9724 86.122C25.9724 86.3605 25.9724 86.5991 26.2107 86.8377C26.2107 87.0762 26.449 87.0762 26.6873 87.0762ZM33.8356 83.7363C34.0739 83.7363 34.0739 83.7363 34.0739 83.9749C34.0739 84.2135 34.0739 84.2135 34.0739 84.452C34.0739 84.6906 34.0739 84.9292 33.8356 85.1677L33.3591 85.8834C32.1677 87.5534 30.9763 88.9848 30.2615 90.1776C29.5466 91.3704 28.8318 92.5632 28.1169 93.7561C27.8787 94.4718 27.4021 94.7103 26.9256 94.7103C26.6873 94.7103 26.449 94.7103 26.449 94.4718C26.2107 94.4718 26.2107 94.2332 26.2107 93.9946C26.2107 93.7561 26.2107 93.7561 26.449 93.5175C26.9256 93.0404 27.4021 92.0861 28.3552 90.6547C29.3083 89.2233 30.0232 88.2691 30.4997 87.3148C30.9763 86.3605 31.6911 85.6448 32.1677 84.9292C32.1677 84.9292 32.406 84.6906 32.406 84.452C32.6442 84.2135 32.8825 83.9749 33.1208 83.9749C33.3591 83.7363 33.5974 83.7363 33.8356 83.7363ZM35.2653 92.0861C35.2653 92.5632 35.027 92.8018 34.7888 93.2789C34.5505 93.5175 34.3122 93.9946 33.8356 93.9946C33.3591 94.2332 33.1208 94.2332 32.6442 94.2332C32.1677 94.2332 31.9294 94.2332 31.6911 93.9946C31.4529 93.7561 31.2146 93.5175 30.9763 93.2789C30.738 93.0404 30.738 92.5632 30.738 92.0861C30.738 91.609 30.738 91.3704 30.9763 90.8933C31.2146 90.4161 31.4529 90.1776 31.9294 89.939C32.406 89.7005 32.8825 89.7005 33.3591 89.7005C34.0739 89.7005 34.5505 89.939 35.027 90.4162C35.2653 90.8933 35.2653 91.3704 35.2653 92.0861ZM33.1208 91.1318C32.8825 91.1318 32.6442 91.1318 32.406 91.3704C32.1677 91.609 32.1677 91.8475 32.1677 92.0861C32.1677 92.3247 32.1677 92.5632 32.406 92.8018C32.6442 93.0404 32.6442 93.0404 32.8825 93.0404C33.8356 93.0404 34.0739 92.5632 34.0739 91.8475C34.0739 91.609 34.0739 91.3704 33.8356 91.1318C33.5974 91.1318 33.3591 91.1318 33.1208 91.1318Z" fill="black"/>
<path d="M12.6288 56.7785C12.3905 57.4942 12.3905 58.2099 12.1523 58.9256C11.914 59.6413 11.6757 60.357 11.1991 61.3112C10.7226 62.7426 10.246 64.174 10.0078 65.1282C9.76948 65.8439 9.5312 66.3211 9.5312 66.5596C9.29292 66.5596 9.05464 66.7982 8.81636 66.7982C8.57808 66.7982 8.3398 66.7982 8.10153 66.5596C8.10153 66.5596 8.10153 66.3211 8.10153 66.0825C8.10153 65.8439 8.10153 65.6054 8.10153 65.3668C8.10153 65.1283 8.3398 64.6511 8.3398 64.4126L8.57808 63.6969C8.81636 63.2197 9.05464 62.504 9.29292 61.7883C9.5312 61.0726 9.76948 60.5955 10.0078 59.8798C10.246 59.4027 10.4843 58.687 10.7226 57.7327C10.246 57.9713 9.5312 57.9713 9.05464 57.9713C8.81636 57.9713 8.3398 57.9713 7.86325 57.9713C7.38669 57.9713 7.14841 57.9713 6.91013 57.9713C6.91013 58.2099 6.91013 58.4484 7.14841 58.9256C7.14841 59.4027 7.14841 59.6413 7.14841 59.8798C7.14841 60.1184 7.14841 60.1184 6.91013 60.357C6.91013 60.357 6.67185 60.5955 6.43357 60.5955C6.1953 60.5955 5.95702 60.5955 5.71874 60.357C5.48046 60.1184 5.48046 59.8798 5.24218 59.6413C5.24218 59.4027 5.0039 59.1641 5.0039 59.1641C4.76562 58.687 4.76562 58.4484 4.52734 57.9713C5.0039 57.4942 4.76562 57.2556 4.76562 57.017C4.76562 56.7785 4.76562 56.7785 5.0039 56.5399C5.0039 56.3014 5.24218 56.3014 5.24218 56.3014C5.48046 56.3014 5.71874 56.3014 5.95702 56.5399C6.43357 56.5399 6.91013 56.7785 7.38669 56.7785C7.86325 56.7785 8.10152 56.7785 8.57808 56.7785C9.5312 56.7785 10.4843 56.5399 10.9609 56.3014H11.1991C11.4374 56.3014 11.6757 56.3014 12.1523 56.5399C12.6288 56.3014 12.6288 56.5399 12.6288 56.7785ZM21.2069 57.017C21.6834 57.4942 21.9217 58.2099 22.16 58.9256C22.3982 59.6413 22.3982 60.357 22.3982 61.0726C22.3982 62.0269 22.16 62.7426 21.9217 63.6969C21.6834 64.4126 21.2069 65.1283 20.492 65.6054C20.0155 66.5596 19.3006 66.7982 18.3475 66.7982C17.6327 66.7982 16.6796 66.5596 15.9647 66.0825C15.2499 65.6054 14.7733 65.1283 14.2968 64.6511C14.2968 64.174 14.2968 63.6969 14.0585 63.2197C13.8202 62.7426 13.8202 62.2655 13.8202 61.5498C13.8202 60.5955 14.0585 59.6413 14.2968 58.9256C14.5351 58.2099 15.2499 57.2556 15.9647 56.7785C16.6796 56.3013 17.3944 56.0628 18.1092 56.0628C19.3006 56.0628 20.2537 56.3013 21.2069 57.017ZM16.6796 58.2099C16.6796 58.4484 16.4413 58.4484 16.4413 58.687C16.203 59.1641 15.9647 59.4027 15.9647 59.6413C15.9647 59.8798 15.7264 60.357 15.7264 60.8341C15.7264 61.0726 15.7264 61.3112 15.7264 61.5498C15.7264 62.2655 15.9647 62.9812 16.203 63.6969C16.4413 64.174 16.9178 64.6511 17.6327 64.8897C17.871 64.8897 18.1092 65.1282 18.5858 65.1282C19.5389 65.1282 20.0155 64.6511 20.492 63.9354C20.9686 63.2197 21.2069 62.2655 21.2069 61.0726C21.2069 60.1184 20.9686 59.1641 20.7303 58.4484C20.2537 57.7327 19.7772 57.4942 19.0623 57.4942C18.8241 57.4942 18.3475 57.4942 18.1092 57.7327C17.3944 57.9713 17.1561 57.9713 16.6796 58.2099ZM26.6873 56.0628C26.9255 56.0628 27.4021 56.0628 27.6404 56.3014C27.8787 56.5399 28.3552 56.7785 28.5935 57.017C28.8318 57.2556 28.8318 57.7327 28.8318 57.9713C28.8318 58.4484 28.8318 58.9256 28.5935 59.4027C28.3552 59.8798 28.1169 60.1184 27.6404 60.357C27.1638 60.5955 26.9255 60.5955 26.449 60.5955C25.7342 60.5955 25.2576 60.357 24.781 59.8798C24.3045 59.4027 24.0662 58.9256 24.0662 58.2099C24.0662 57.4942 24.3045 57.017 24.781 56.5399C25.2576 56.0628 25.7342 56.0628 26.6873 56.0628ZM26.2107 59.1641C26.9255 59.1641 27.4021 58.687 27.4021 57.9713C27.4021 57.7327 27.4021 57.4942 27.1638 57.4942C26.9255 57.4942 26.6873 57.2556 26.449 57.2556C25.9724 57.2556 25.7342 57.2556 25.7342 57.4942C25.7342 57.7327 25.4959 57.9713 25.4959 58.2099C25.4959 58.4484 25.4959 58.687 25.7342 58.9256C25.7342 59.1641 25.9724 59.1641 26.2107 59.1641ZM33.3591 55.8242C33.5974 55.8242 33.5974 55.8242 33.5974 56.0628C33.5974 56.3013 33.5974 56.3014 33.5974 56.5399C33.5974 56.7785 33.5974 57.017 33.3591 57.2556L32.6442 58.2099C31.4528 59.8798 30.2614 61.3112 29.5466 62.504C28.8318 63.6969 28.1169 64.8897 27.4021 66.0825C27.1638 66.3211 26.6873 66.7982 26.2107 66.7982C25.9724 66.7982 25.7342 66.7982 25.7342 66.5596C25.4959 66.5596 25.4959 66.3211 25.4959 66.0825C25.4959 65.8439 25.4959 65.8439 25.7342 65.6054C26.2107 65.1283 26.6873 64.174 27.6404 62.7426C28.5935 61.3112 29.3083 60.357 29.7849 59.4027C30.2614 58.4484 30.9763 57.7327 31.4528 57.017C31.4528 57.017 31.6911 56.7785 31.6911 56.5399C31.9294 56.3014 32.1677 56.0628 32.406 56.0628C32.6442 55.8242 32.8825 55.8242 33.3591 55.8242ZM34.7887 64.174C34.7887 64.6511 34.5505 64.8897 34.3122 65.3668C34.0739 65.6054 33.8356 66.0825 33.3591 66.0825C32.8825 66.3211 32.6442 66.3211 32.1677 66.3211C31.6911 66.3211 31.4528 66.3211 31.2146 66.0825C30.9763 65.8439 30.738 65.6054 30.4997 65.3668C30.2614 65.1283 30.2614 64.6511 30.2614 64.174C30.2614 63.6969 30.2614 63.4583 30.4997 62.9812C30.738 62.504 30.9763 62.2655 31.4528 62.0269C31.9294 61.7883 32.406 61.7883 32.8825 61.7883C33.5974 61.7883 34.0739 62.0269 34.5505 62.504C34.5505 62.9812 34.7887 63.4583 34.7887 64.174ZM32.6442 63.2197C32.406 63.2197 32.1677 63.2197 31.9294 63.4583C31.6911 63.6969 31.6911 63.9354 31.6911 64.174C31.6911 64.4126 31.6911 64.6511 31.9294 64.8897C32.1677 65.1283 32.1677 65.1282 32.406 65.1282C33.3591 65.1282 33.5974 64.6511 33.5974 63.9354C33.5974 63.6969 33.5974 63.4583 33.3591 63.2197C33.1208 63.2197 32.8825 63.2197 32.6442 63.2197Z" fill="black"/>
<path d="M11.1992 33.1606C11.914 33.3991 12.3906 33.8763 12.8671 34.1148C13.3437 34.592 13.5819 35.0691 13.5819 35.7848C13.5819 36.0234 13.5819 36.2619 13.5819 36.5005C13.5819 36.7391 13.3437 36.9776 13.3437 37.2162C12.6288 38.409 11.1992 38.8861 9.29293 38.8861C8.33981 38.8861 7.3867 38.6476 6.67186 38.1704C5.95703 37.6933 5.48047 37.2162 5.48047 36.2619C5.48047 35.0691 6.1953 34.1148 7.86326 33.3991C6.43358 32.922 5.71875 31.9678 5.71875 31.0135C5.71875 30.2978 5.95703 29.8207 6.1953 29.3435C6.67186 28.8664 7.14842 28.6278 7.62498 28.3893C8.10153 28.1507 8.81637 28.1507 9.53121 28.1507C10.0078 28.1507 10.4843 28.3893 11.1992 28.6278C11.6757 28.8664 12.1523 29.105 12.3906 29.5821C12.6288 30.0592 12.6288 30.2978 12.6288 30.7749C12.6288 31.2521 12.6288 31.7292 12.3906 32.2063C11.914 32.4449 11.6757 32.6834 11.1992 33.1606ZM11.6757 35.7848C11.6757 35.5462 11.4374 35.3077 11.1992 35.0691C10.9609 34.8305 10.7226 34.592 10.246 34.592C10.0078 34.3534 9.53121 34.3534 9.53121 34.3534C9.05465 34.592 8.81637 34.8305 8.33981 35.0691C7.86326 35.3077 7.62498 35.5462 7.3867 35.7848C7.3867 36.0234 7.14842 36.0234 7.14842 36.2619C7.14842 36.2619 7.14842 36.5005 7.14842 36.7391C7.14842 36.9776 7.14842 36.9776 7.3867 37.2162C7.62498 37.4548 7.86326 37.4548 8.10154 37.6933C8.33981 37.6933 8.57809 37.9319 8.81637 37.9319C9.53121 37.9319 10.246 37.6933 10.7226 37.4547C11.4374 36.7391 11.6757 36.2619 11.6757 35.7848ZM9.29293 32.6834C9.76949 32.4449 10.0078 32.2063 10.246 32.2063C10.4843 31.9678 10.7226 31.9678 10.7226 31.7292C10.9609 31.4906 10.9609 31.2521 10.9609 31.0135C10.9609 30.7749 10.7226 30.2978 10.4843 30.0592C10.246 29.8207 9.76949 29.8207 9.53121 29.8207C8.81637 29.8207 8.10153 30.0592 7.86326 30.2978C7.62498 30.5364 7.3867 31.0135 7.3867 31.2521C7.3867 31.4906 7.3867 31.7292 7.62498 31.9678C7.86326 32.2063 8.10153 32.4449 8.33981 32.4449C8.57809 32.4449 8.81637 32.4449 9.29293 32.6834ZM22.16 29.105C22.6365 29.5821 22.8748 30.2978 23.1131 31.0135C23.3514 31.7292 23.3514 32.4449 23.3514 33.1606C23.3514 34.1148 23.1131 34.8305 22.8748 35.7848C22.6365 36.5005 22.16 37.2162 21.4451 37.6933C20.7303 38.1704 20.0155 38.409 19.3006 38.409C18.5858 38.409 17.6327 38.1704 16.9178 37.6933C16.203 37.2162 15.7265 36.7391 15.2499 36.2619C15.0116 35.7848 14.7733 35.3077 14.7733 34.8305C14.5351 34.3534 14.5351 33.8763 14.5351 33.1606C14.5351 32.2063 14.7733 31.2521 15.0116 30.5364C15.2499 29.8207 15.9647 28.8664 16.6796 28.3893C17.3944 27.9121 18.1092 27.6736 18.8241 27.6736C20.0155 28.1507 21.2069 28.6278 22.16 29.105ZM17.6327 30.2978C17.6327 30.5364 17.3944 30.5364 17.3944 30.7749C17.1561 31.2521 16.9178 31.4906 16.9178 31.7292C16.9178 31.9678 16.6796 32.4449 16.6796 32.922C16.6796 33.1606 16.6796 33.3991 16.6796 33.6377C16.6796 34.3534 16.9178 35.0691 17.1561 35.7848C17.3944 36.2619 17.871 36.7391 18.5858 36.9776C18.8241 36.9776 19.0624 37.2162 19.5389 37.2162C20.492 37.2162 20.9686 36.7391 21.4451 36.0234C21.9217 35.3077 22.16 34.3534 22.16 33.1606C22.16 32.2063 21.9217 31.2521 21.6834 30.5364C21.2069 29.8207 20.7303 29.5821 20.0155 29.5821C19.7772 29.5821 19.3006 29.5821 19.0624 29.8207C18.3475 30.0592 18.1092 30.0592 17.6327 30.2978ZM27.4021 28.1507C27.6404 28.1507 28.1169 28.1507 28.3552 28.3893C28.5935 28.6278 29.0701 28.8664 29.3083 29.105C29.5466 29.3435 29.5466 29.8207 29.5466 30.0592C29.5466 30.5364 29.5466 31.0135 29.3083 31.4906C29.0701 31.9678 28.8318 32.2063 28.3552 32.4449C27.8787 32.6834 27.6404 32.6834 27.1638 32.6834C26.449 32.6834 25.9724 32.4449 25.4959 31.9678C25.0193 31.4906 24.781 31.0135 24.781 30.2978C24.781 29.5821 25.0193 29.105 25.4959 28.6278C25.9724 28.1507 26.6873 28.1507 27.4021 28.1507ZM27.1638 31.2521C27.8787 31.2521 28.3552 30.7749 28.3552 30.0592C28.3552 29.8207 28.3552 29.5821 28.1169 29.5821C27.8787 29.5821 27.6404 29.3435 27.4021 29.3435C26.9256 29.3435 26.6873 29.3435 26.6873 29.5821C26.6873 29.8207 26.2107 30.0592 26.2107 30.2978C26.2107 30.5364 26.2107 30.7749 26.449 31.0135C26.6873 31.2521 26.9256 31.2521 27.1638 31.2521ZM34.0739 27.9121C34.3122 27.9121 34.3122 27.9121 34.3122 28.1507C34.3122 28.3893 34.3122 28.3893 34.3122 28.6278C34.3122 28.8664 34.3122 29.105 34.0739 29.3435L33.3591 30.2978C32.1677 31.9678 30.9763 33.3991 30.2615 34.592C29.5466 35.7848 28.8318 36.9776 28.1169 38.1704C27.8787 38.8861 27.4021 39.1247 26.9256 39.1247C26.6873 39.1247 26.449 39.1247 26.449 38.8861C26.2107 38.8861 26.2107 38.6476 26.2107 38.409C26.2107 38.1704 26.2107 38.1704 26.449 37.9319C26.9256 37.4547 27.4021 36.5005 28.3552 35.0691C29.3083 33.6377 30.0232 32.6834 30.4997 31.7292C30.9763 30.7749 31.6911 30.0592 32.1677 29.3435C32.1677 29.3435 32.406 29.105 32.406 28.8664C32.6442 28.6278 32.8825 28.3893 33.1208 28.3893C33.5974 27.9121 33.8356 27.9121 34.0739 27.9121ZM35.7419 36.5005C35.7419 36.9776 35.5036 37.2162 35.2653 37.6933C35.027 37.9319 34.7888 38.409 34.3122 38.409C33.8356 38.6476 33.5974 38.6476 33.1208 38.6476C32.6442 38.6476 32.406 38.6476 32.1677 38.409C31.9294 38.1704 31.6911 37.9319 31.4528 37.6933C30.9763 37.2162 30.9763 36.9776 30.9763 36.5005C30.9763 36.0234 30.9763 35.7848 31.2146 35.3077C31.4528 34.8305 31.6911 34.592 32.1677 34.3534C32.6442 34.1148 33.1208 34.1148 33.5974 34.1148C34.3122 34.1148 34.7888 34.3534 35.2653 34.8305C35.5036 35.0691 35.7419 35.5462 35.7419 36.5005ZM33.3591 35.3077C33.1208 35.3077 32.8825 35.3077 32.6442 35.5462C32.406 35.7848 32.406 36.0234 32.406 36.2619C32.406 36.5005 32.406 36.7391 32.6442 36.9776C32.8825 37.2162 32.8825 37.2162 33.1208 37.2162C34.0739 37.2162 34.3122 36.7391 34.3122 36.0234C34.3122 35.7848 34.3122 35.5462 34.0739 35.3077C33.8356 35.5462 33.5974 35.3077 33.3591 35.3077Z" fill="black"/>
<path d="M8.33981 9.30404C8.81637 9.06547 9.05465 9.06547 9.53121 8.58834C9.76949 8.34978 10.246 7.87265 10.4843 7.39552C10.7226 6.91839 10.9609 6.67982 10.9609 6.20269C10.246 6.44126 10.0078 6.67982 9.76949 6.67982C9.53121 6.67982 9.05465 6.91839 8.57809 6.91839C8.10153 6.91839 7.62498 6.91839 7.14842 6.67982C6.67186 6.44126 6.43358 5.96413 5.95703 5.72556C5.95703 5.72556 5.71875 5.487 5.71875 5.24843C5.71875 5.00987 5.48047 4.7713 5.48047 4.29417C5.48047 4.05561 5.48047 3.57848 5.48047 3.33991C5.48047 3.10135 5.48047 2.62422 5.71875 2.38565C5.95703 1.90852 6.19531 1.66996 6.43358 1.43139C6.67186 1.19283 7.14842 0.95426 7.3867 0.715695C7.62498 0.715695 7.86326 0.47713 8.33981 0.47713C8.57809 0.47713 9.05465 0.238565 9.29293 0.238565C10.0078 0.238565 10.7226 0.47713 11.1992 0.715695C11.6757 1.19283 11.914 1.66996 12.3906 2.38565C12.6288 3.10135 12.8671 3.57848 12.8671 4.53274C12.8671 5.72556 12.6288 6.91839 11.914 8.11121C11.1992 9.06547 10.4843 9.78117 9.53121 10.4969C9.53121 10.4969 9.29293 10.4969 8.81637 10.7354C8.57809 10.7354 8.10153 10.974 7.86326 10.974C7.62498 10.974 7.3867 10.974 7.3867 10.7354C7.14842 10.4969 7.14842 10.2583 7.14842 10.0197C7.14842 9.78117 7.14842 9.5426 7.14842 9.5426C7.3867 9.5426 7.3867 9.30404 7.86326 9.30404H8.33981ZM9.05465 1.66996C8.81637 1.66996 8.57809 1.66996 8.33981 1.66996C8.10154 1.66996 7.86326 1.90852 7.62498 1.90852C7.62498 2.14709 7.3867 2.38565 7.14842 2.62422C7.14842 2.86278 6.91014 3.10135 6.91014 3.10135C6.91014 4.53274 7.62498 5.24843 8.81637 5.24843C9.05465 5.24843 9.29293 5.24843 9.76949 5.00987C10.0078 5.00987 10.246 4.7713 10.4843 4.7713C10.7226 4.53274 10.7226 4.29417 10.7226 4.05561C10.7226 3.33991 10.4843 2.86278 10.246 2.38565C10.0078 1.90852 9.53121 1.66996 9.05465 1.66996ZM21.6834 1.43139C22.16 1.90852 22.3983 2.62422 22.6365 3.33991C22.8748 4.05561 23.1131 4.7713 23.1131 5.487C23.1131 6.44126 22.8748 7.15695 22.6365 8.11121C22.16 9.06547 21.6834 9.5426 21.2069 10.2583C20.492 10.7354 19.7772 10.974 18.8241 10.974C18.1092 10.974 17.1561 10.7354 16.4413 10.2583C15.9647 9.78117 15.4882 9.30404 15.0116 8.82691C14.7733 8.34978 14.5351 7.87265 14.5351 7.39552C14.2968 6.91839 14.2968 6.44126 14.2968 5.72556C14.2968 4.7713 14.5351 3.81704 14.7733 3.10135C15.0116 2.38565 15.7265 1.43139 16.4413 0.95426C17.1561 0.47713 17.871 0.238565 18.5858 0.238565C19.7772 0.238565 20.7303 0.715695 21.6834 1.43139ZM17.1561 2.38565C17.1561 2.62422 16.9178 2.62422 16.9178 2.86278C16.6796 3.33991 16.4413 3.57848 16.4413 3.81704C16.4413 4.05561 16.203 4.53274 16.203 5.00987C16.203 5.24843 16.203 5.487 16.203 5.72556C16.203 6.44126 16.4413 7.15695 16.6796 7.87265C16.9178 8.34978 17.3944 8.82691 18.1092 9.06547C18.3475 9.06547 18.5858 9.30404 19.0624 9.30404C20.0155 9.30404 20.492 8.82691 20.9686 8.11121C21.4451 7.39552 21.6834 6.44126 21.6834 5.24843C21.6834 4.29417 21.4451 3.33991 21.2069 2.62422C20.2537 2.14709 19.7772 1.90852 19.0624 1.90852C18.8241 1.90852 18.3475 1.90852 18.1092 2.14709C17.871 2.14709 17.6327 2.14709 17.1561 2.38565ZM26.9256 0.238565C27.1638 0.238565 27.6404 0.238565 27.8787 0.47713C28.1169 0.715695 28.5935 0.95426 28.8318 1.19283C29.0701 1.43139 29.0701 1.90852 29.0701 2.14709C29.0701 2.62422 29.0701 3.10135 28.8318 3.57848C28.5935 4.05561 28.3552 4.29417 27.8787 4.53274C27.6404 4.53274 27.4021 4.7713 26.9256 4.7713C26.2107 4.7713 25.7342 4.53274 25.2576 4.05561C24.781 3.57848 24.5428 3.10135 24.5428 2.38565C24.5428 1.66996 24.781 1.19283 25.2576 0.715695C25.7342 0.47713 26.2107 0.238565 26.9256 0.238565ZM26.6873 3.33991C27.4021 3.33991 27.8787 2.86278 27.8787 2.14709C27.8787 1.90852 27.8787 1.66996 27.6404 1.66996C27.4021 1.66996 27.1638 1.43139 26.9256 1.43139C26.449 1.43139 26.2107 1.43139 26.2107 1.66996C26.2107 1.90852 25.7342 2.14709 25.7342 2.38565C25.7342 2.62422 25.7342 2.86278 25.9724 3.10135C26.2107 3.33991 26.449 3.33991 26.6873 3.33991ZM33.5974 0C33.8356 0 33.8356 0 33.8356 0.238565C33.8356 0.47713 33.8356 0.47713 33.8356 0.715695C33.8356 0.95426 33.8356 1.19283 33.5974 1.43139L33.3591 2.14709C32.1677 3.81704 30.9763 5.24843 30.2615 6.44126C29.5466 7.63408 28.8318 8.82691 28.1169 10.0197C27.8787 10.7354 27.4021 10.974 26.9256 10.974C26.6873 10.974 26.449 10.974 26.449 10.7354C26.2107 10.7354 26.2107 10.4969 26.2107 10.2583C26.2107 10.0197 26.2107 10.0197 26.449 9.78117C26.9256 9.30404 27.4021 8.34978 28.3552 6.91839C29.3083 5.487 30.0232 4.53274 30.4997 3.57848C30.9763 2.62422 31.6911 1.90852 32.1677 1.19283C32.1677 1.19283 32.406 0.95426 32.406 0.715695C32.6442 0.47713 32.8825 0.238565 33.1208 0.238565C33.1208 0 33.3591 0 33.5974 0ZM35.2653 8.58834C35.2653 9.06547 35.027 9.30404 34.7888 9.78117C34.5505 10.0197 34.3122 10.4969 33.8356 10.4969C33.3591 10.7354 33.1208 10.7354 32.6442 10.7354C32.1677 10.7354 31.9294 10.7354 31.6911 10.4969C31.4529 10.2583 31.2146 10.0197 30.9763 9.78117C30.738 9.5426 30.738 9.06547 30.738 8.58834C30.738 8.11121 30.738 7.87265 30.9763 7.39552C30.9763 7.15695 31.4529 6.67982 31.6911 6.44126C32.1677 6.20269 32.6442 6.20269 33.1208 6.20269C33.8356 6.20269 34.3122 6.44126 34.7888 6.91839C35.027 7.15695 35.2653 7.63408 35.2653 8.58834ZM32.8825 7.39552C32.6442 7.39552 32.406 7.39552 32.1677 7.63408C31.9294 7.87265 31.9294 8.11121 31.9294 8.34978C31.9294 8.58834 31.9294 8.82691 32.1677 9.06547C32.406 9.30404 32.406 9.5426 32.6442 9.5426C33.5974 9.5426 33.8356 9.06547 33.8356 8.34978C33.8356 8.11121 33.8356 7.87265 33.5974 7.63408C33.5974 7.63408 33.3591 7.39552 32.8825 7.39552Z" fill="black"/>
<path d="M616.664 265.523H603.559V263.376H616.664V265.523ZM616.664 261.229H603.559V259.082H616.664V261.229ZM616.664 256.696H603.559V254.549H616.664V256.696ZM616.664 252.402H603.559V250.255H616.664V252.402ZM616.664 247.869H603.559V245.722H616.664V247.869ZM616.664 243.575H603.559V241.428H616.664V243.575ZM616.664 239.042H603.559V236.895H616.664V239.042ZM616.664 234.748H603.559V232.601H616.664V234.748ZM616.664 230.215H603.559V228.068H616.664V230.215Z" fill="black" fill-opacity="0.5"/>
<path d="M509.441 265.523H496.336V263.376H509.441V265.523ZM509.441 261.229H496.336V259.082H509.441V261.229ZM509.441 256.696H496.336V254.549H509.441V256.696ZM509.441 252.402H496.336V250.255H509.441V252.402ZM509.441 247.869H496.336V245.722H509.441V247.869ZM509.441 243.575H496.336V241.428H509.441V243.575ZM509.441 239.042H496.336V236.895H509.441V239.042ZM509.441 234.748H496.336V232.601H509.441V234.748ZM509.441 230.215H496.336V228.068H509.441V230.215ZM509.441 225.921H496.336V223.774H509.441V225.921ZM509.441 221.388H496.336V219.241H509.441V221.388ZM509.441 217.094H496.336V214.708H509.441V217.094ZM509.441 212.561H496.336V211.846H509.441V212.561Z" fill="black" fill-opacity="0.5"/>
<path d="M401.5 265.523H388.156V263.376H401.5V265.523ZM401.5 261.229H388.156V259.082H401.5V261.229ZM401.5 256.696H388.156V254.549H401.5V256.696ZM401.5 252.402H388.156V250.255H401.5V252.402ZM401.5 247.869H388.156V245.722H401.5V247.869ZM401.5 243.575H388.156V241.428H401.5V243.575ZM401.5 239.042H388.156V236.895H401.5V239.042ZM401.5 234.748H388.156V232.601H401.5V234.748ZM401.5 230.215H388.156V228.068H401.5V230.215ZM401.5 225.921H388.156V223.774H401.5V225.921ZM401.5 221.388H388.156V219.241H401.5V221.388ZM401.5 217.094H388.156V214.708H401.5V217.094Z" fill="black" fill-opacity="0.5"/>
<path d="M292.844 265.523H279.5V263.376H292.844V265.523ZM292.844 261.229H279.5V259.082H292.844V261.229ZM292.844 256.696H279.5V254.549H292.844V256.696ZM292.844 252.402H279.5V250.255H292.844V252.402ZM292.844 247.869H279.5V245.722H292.844V247.869ZM292.844 243.575H279.5V241.428H292.844V243.575ZM292.844 239.042H279.5V236.895H292.844V239.042ZM292.844 234.748H279.5V232.601H292.844V234.748ZM292.844 230.215H279.5V228.068H292.844V230.215ZM292.844 225.921H279.5V223.774H292.844V225.921ZM292.844 221.388H279.5V219.241H292.844V221.388ZM292.844 217.094H279.5V214.709H292.844V217.094ZM292.844 212.561H279.5V210.414H292.844V212.561ZM292.844 208.267H279.5V206.12H292.844V208.267ZM292.844 203.735H279.5V201.587H292.844V203.735ZM292.844 199.44H279.5V197.293H292.844V199.44ZM292.844 194.908H279.5V192.761H292.844V194.908ZM292.844 190.613H279.5V188.466H292.844V190.613ZM292.844 186.081H279.5V183.934H292.844V186.081ZM292.844 181.787H279.5V179.64H292.844V181.787ZM292.844 177.254H279.5V175.107H292.844V177.254ZM292.844 172.721H279.5V170.574H292.844V172.721ZM292.844 168.427H279.5V166.28H292.844V168.427ZM292.844 163.894H279.5V161.747H292.844V163.894ZM292.844 159.6H279.5V157.453H292.844V159.6ZM292.844 155.067H279.5V154.113H292.844V155.067Z" fill="black" fill-opacity="0.5"/>
<path d="M184.906 265.523H171.562V263.376H184.906V265.523ZM184.906 261.229H171.562V259.082H184.906V261.229ZM184.906 256.696H171.562V254.549H184.906V256.696ZM184.906 252.402H171.562V250.255H184.906V252.402ZM184.906 247.869H171.562V245.722H184.906V247.869ZM184.906 243.575H171.562V241.428H184.906V243.575ZM184.906 239.042H171.562V236.895H184.906V239.042ZM184.906 234.748H171.562V232.601H184.906V234.748ZM184.906 230.215H171.562V228.068H184.906V230.215ZM184.906 225.921H171.562V223.774H184.906V225.921ZM184.906 221.388H171.562V219.241H184.906V221.388ZM184.906 217.094H171.562V214.709H184.906V217.094ZM184.906 212.561H171.562V210.414H184.906V212.561ZM184.906 208.267H171.562V206.12H184.906V208.267ZM184.906 203.735H171.562V201.587H184.906V203.735ZM184.906 199.44H171.562V197.293H184.906V199.44ZM184.906 194.908H171.562V192.761H184.906V194.908ZM184.906 190.613H171.562V188.466H184.906V190.613ZM184.906 186.081H171.562V183.934H184.906V186.081ZM184.906 181.787H171.562V179.639H184.906V181.787ZM184.906 177.254H171.562V175.107H184.906V177.254ZM184.906 172.721H171.562V170.574H184.906V172.721Z" fill="black" fill-opacity="0.5"/>
<path d="M742 264.33H0V264.807H742V264.33Z" fill="black" fill-opacity="0.5"/>
<path d="M742 237.372H0V237.849H742V237.372Z" fill="black" fill-opacity="0.5"/>
<path d="M742 208.744H0V209.221H742V208.744Z" fill="black" fill-opacity="0.5"/>
<path d="M742 181.786H0V182.264H742V181.786Z" fill="black" fill-opacity="0.5"/>
<path d="M742 154.352H0V154.829H742V154.352Z" fill="black" fill-opacity="0.5"/>
<path d="M742 125.008H0V125.485H742V125.008Z" fill="black" fill-opacity="0.5"/>
<path d="M742 98.0502H0V98.5273H742V98.0502Z" fill="black" fill-opacity="0.5"/>
<path d="M742 70.8538H0V71.3309H742V70.8538Z" fill="black" fill-opacity="0.5"/>
<path d="M742 42.7031H0V43.1803H742V42.7031Z" fill="black" fill-opacity="0.5"/>
<path d="M132.246 208.983H118.902V264.807H132.246V208.983Z" fill="black" fill-opacity="0.5"/>
<path d="M131.293 210.176H120.094V263.614H131.293V210.176ZM133.437 266H117.711V207.79H133.437V266Z" fill="black"/>
<path d="M183.476 170.097H172.277V263.614H183.476V170.097ZM185.621 266H169.895V167.95H185.621V266Z" fill="black"/>
<path d="M241.375 163.656H228.031V264.807H241.375V163.656Z" fill="black" fill-opacity="0.5"/>
<path d="M240.183 164.61H228.984V263.614H240.183V164.61ZM242.566 266H226.84V162.463H242.566V266Z" fill="black"/>
<path d="M291.652 155.783H280.453V263.614H291.652V155.783ZM294.035 266H278.309V153.397H294.035V266Z" fill="black"/>
<path d="M349.078 219.718H335.734V264.807H349.078V219.718Z" fill="black" fill-opacity="0.5"/>
<path d="M347.887 220.673H336.687V263.614H347.887V220.673ZM350.031 266H334.305V218.526H350.031V266Z" fill="black"/>
<path d="M400.07 214.708H388.871V263.614H400.07V214.708ZM402.453 266H386.727V212.561H402.453V266Z" fill="black"/>
<path d="M457.496 179.401H444.152V264.807H457.496V179.401Z" fill="black" fill-opacity="0.5"/>
<path d="M456.305 180.594H445.105V263.614H456.305V180.594ZM458.687 266H442.961V178.447H458.687V266Z" fill="black"/>
<path d="M492.285 191.329H478.941V266H492.285V191.329Z" fill="black"/>
<path d="M492.047 191.329H478.941V264.569H492.047V191.329ZM492.523 265.046H478.941V191.091H492.523V265.046Z" fill="black"/>
<path d="M564.484 200.395H551.141V264.807H564.484V200.395Z" fill="black" fill-opacity="0.5"/>
<path d="M563.531 201.587H552.332V263.614H563.531V201.587ZM565.676 266H549.949V199.202H565.676V266Z" fill="black"/>
<path d="M599.746 210.891H586.402V265.761H599.746V210.891Z" fill="black"/>
<path d="M599.746 211.13H586.641V264.807H599.746V211.13ZM599.984 265.046H586.402V210.653H599.984V265.046Z" fill="black"/>
<path d="M615.234 229.022H604.035V263.614H615.234V229.022ZM617.617 266H601.891V226.637H617.617V266Z" fill="black"/>
<path d="M508.25 213.754H497.051V263.614H508.25V213.754ZM510.394 266H494.668V211.369H510.394V266Z" fill="black"/>
<path d="M473.223 66.321H462.262V263.614H473.461V66.321H473.223ZM475.605 266H459.879V64.174H475.605V266Z" fill="black"/>
<path d="M581.637 66.321H570.437V263.614H581.637V66.321ZM584.019 266H568.293V64.174H584.019V266Z" fill="black"/>
<path d="M383.629 176.538H370.285V266H383.629V176.538Z" fill="black"/>
<path d="M383.39 176.538H370.285V264.569H383.39V176.538ZM383.867 265.046H370.047V176.3H383.867V265.046Z" fill="black"/>
<path d="M365.281 55.5856H354.082V263.853H365.281V55.5856ZM367.664 266H351.938V53.2H367.664V266Z" fill="black"/>
<path d="M275.687 108.308H262.344V265.761H275.687V108.308Z" fill="black"/>
<path d="M275.687 108.547H262.82V264.569H275.687V108.547ZM276.164 265.046H262.105V108.07H275.926V265.046H276.164Z" fill="black"/>
<path d="M257.578 32.4449H246.379V263.853H257.578V32.4449ZM259.961 266H244.234V30.0592H259.961V266Z" fill="black"/>
<path d="M167.273 142.9H153.93V266H167.273V142.9Z" fill="black"/>
<path d="M167.035 143.139H154.168V264.569H167.035V143.139ZM167.512 265.046H153.691V142.662H167.512V265.046Z" fill="black"/>
<path d="M148.687 55.5856H137.488V263.853H148.687V55.5856ZM150.832 266H135.105V53.2H150.832V266Z" fill="black"/>
</g>
<defs>
<clipPath id="clip0_0_4229">
<rect width="742" height="266" fill="white"/>
</clipPath>
</defs>
</svg>
