<svg width="46" height="46" viewBox="0 0 46 46" fill="none" xmlns="http://www.w3.org/2000/svg">
<circle cx="23" cy="23" r="22" fill="#C4C4C4"/>
<path fill-rule="evenodd" clip-rule="evenodd" d="M23 43.25C34.1836 43.25 43.25 34.1836 43.25 23C43.25 11.8164 34.1836 2.75 23 2.75C11.8164 2.75 2.75 11.8164 2.75 23C2.75 34.1836 11.8164 43.25 23 43.25ZM23 45.5C35.4268 45.5 45.5 35.4268 45.5 23C45.5 10.5733 35.4268 0.5 23 0.5C10.5733 0.5 0.5 10.5733 0.5 23C0.5 35.4268 10.5733 45.5 23 45.5Z" fill="#5F5F5F"/>
<path d="M9.5 36.0837C9.5 34.9216 10.3685 33.9395 11.525 33.8112C20.2044 32.8505 25.835 32.9371 34.4952 33.8326C34.9277 33.878 35.3376 34.0484 35.6748 34.3229C36.012 34.5974 36.262 34.9642 36.3942 35.3785C36.5264 35.7928 36.5351 36.2365 36.4193 36.6557C36.3034 37.0748 36.068 37.4511 35.7418 37.7386C25.5211 46.6475 19.6801 46.5249 10.22 37.7476C9.75875 37.3201 9.5 36.7115 9.5 36.0837Z" fill="#5F5F5F"/>
<path fill-rule="evenodd" clip-rule="evenodd" d="M34.3794 34.9509C25.7878 34.0621 20.2381 33.9789 11.6476 34.9295C11.3649 34.9624 11.1042 35.0985 10.9155 35.3117C10.7268 35.5249 10.6234 35.8002 10.625 36.0849C10.625 36.4066 10.7589 36.7115 10.985 36.923C15.674 41.2722 19.2268 43.2376 22.6996 43.25C26.1849 43.2624 29.9289 41.3127 35.0026 36.8915C35.1638 36.748 35.2799 36.5608 35.3366 36.3526C35.3934 36.1445 35.3885 35.9243 35.3225 35.7188C35.2565 35.5134 35.1322 35.3315 34.9648 35.1954C34.7973 35.0593 34.594 34.9736 34.3794 34.9509ZM11.4013 32.693C20.1718 31.7221 25.8845 31.8099 34.6123 32.7132C35.2628 32.7812 35.8795 33.0373 36.3868 33.4503C36.8941 33.8633 37.2699 34.4152 37.4683 35.0385C37.6667 35.6618 37.6791 36.3294 37.5039 36.9597C37.3288 37.5899 36.9736 38.1554 36.482 38.5869C31.3351 43.0734 27.0489 45.5169 22.6929 45.5C18.3245 45.4842 14.2273 42.9991 9.45613 38.5722C9.11453 38.2541 8.84221 37.8689 8.65619 37.4407C8.47017 37.0125 8.37445 36.5506 8.37501 36.0837C8.37337 35.245 8.68124 34.4351 9.23964 33.8092C9.79805 33.1833 10.5677 32.7866 11.4013 32.693Z" fill="#5F5F5F"/>
<path d="M32 18.5C32 20.8869 31.0518 23.1761 29.364 24.864C27.6761 26.5518 25.3869 27.5 23 27.5C20.6131 27.5 18.3239 26.5518 16.636 24.864C14.9482 23.1761 14 20.8869 14 18.5C14 16.1131 14.9482 13.8239 16.636 12.136C18.3239 10.4482 20.6131 9.5 23 9.5C25.3869 9.5 27.6761 10.4482 29.364 12.136C31.0518 13.8239 32 16.1131 32 18.5Z" fill="#5F5F5F"/>
<path fill-rule="evenodd" clip-rule="evenodd" d="M23 25.25C24.7902 25.25 26.5071 24.5388 27.773 23.273C29.0388 22.0071 29.75 20.2902 29.75 18.5C29.75 16.7098 29.0388 14.9929 27.773 13.727C26.5071 12.4612 24.7902 11.75 23 11.75C21.2098 11.75 19.4929 12.4612 18.227 13.727C16.9612 14.9929 16.25 16.7098 16.25 18.5C16.25 20.2902 16.9612 22.0071 18.227 23.273C19.4929 24.5388 21.2098 25.25 23 25.25ZM23 27.5C25.3869 27.5 27.6761 26.5518 29.364 24.864C31.0518 23.1761 32 20.8869 32 18.5C32 16.1131 31.0518 13.8239 29.364 12.136C27.6761 10.4482 25.3869 9.5 23 9.5C20.6131 9.5 18.3239 10.4482 16.636 12.136C14.9482 13.8239 14 16.1131 14 18.5C14 20.8869 14.9482 23.1761 16.636 24.864C18.3239 26.5518 20.6131 27.5 23 27.5Z" fill="#5F5F5F"/>
</svg>
