<svg width="617" height="192" viewBox="0 0 617 192" fill="none" xmlns="http://www.w3.org/2000/svg">
<g clip-path="url(#clip0_0_4170)">
<path d="M609.303 99.6455C609.454 99.6455 609.454 99.6455 609.605 99.6455C609.454 99.6455 609.454 99.6455 609.303 99.6455ZM600.398 99.4835H600.549C600.549 99.4835 600.549 99.4835 600.7 99.6455C601.455 99.9696 602.058 100.294 602.813 100.456C604.02 100.942 605.379 101.428 606.586 101.59C606.586 101.59 606.586 101.59 606.737 101.59C604.624 101.266 602.36 100.294 600.398 99.4835ZM596.172 97.7012C596.172 97.7012 596.172 97.5392 596.172 97.7012C596.323 97.7012 596.625 97.8632 596.776 98.0253C596.625 97.8632 596.323 97.7012 596.172 97.7012ZM591.644 96.567C591.795 96.567 591.795 96.567 591.644 96.567C591.795 96.567 591.795 96.567 591.644 96.567ZM584.098 97.5392V97.3772L584.249 97.5392H584.098ZM581.532 98.8354C581.683 98.6734 581.683 98.5113 581.683 98.1873C581.834 98.3493 581.985 98.3493 582.136 98.5113C581.834 98.6734 581.683 98.8354 581.532 98.8354ZM575.495 97.7012C575.344 97.5392 575.344 97.3772 575.193 97.3772C575.947 97.5392 576.551 97.7012 577.306 98.0253C576.853 97.8632 576.098 97.7012 575.495 97.7012ZM574.438 99.9696C574.589 99.9696 574.74 99.9696 575.042 99.9696C574.891 99.9696 574.589 99.9696 574.438 99.9696ZM574.438 90.248C574.438 90.086 574.287 90.086 574.287 89.924H574.438C574.589 90.086 574.589 90.086 574.438 90.248ZM567.344 105.316C564.628 107.423 561.458 107.261 559.345 104.506C557.383 102.076 557.987 98.3493 559.798 96.0809C561.76 93.6506 565.835 92.5164 567.948 95.4328C569.91 98.0253 569.306 102.724 567.344 105.316ZM570.363 103.534C569.306 105.64 568.099 107.585 566.59 109.367C565.231 109.529 563.722 109.853 562.364 109.853C561.156 109.853 560.1 109.367 559.043 108.719C558.59 108.233 558.289 107.585 557.836 106.937C556.779 104.992 555.874 102.724 556.025 100.456C556.176 95.7569 563.571 88.3037 567.948 91.7063C572.023 94.7847 571.269 101.752 568.552 105.802C568.552 105.64 568.401 105.478 568.25 105.478C569.306 104.182 569.759 102.4 570.061 100.618C570.514 98.8354 570.514 96.7291 569.306 95.1088C566.892 91.7063 562.364 91.7063 559.496 94.2987C556.628 96.8911 555.421 101.914 557.534 105.478C559.949 109.367 564.93 110.177 568.25 107.099C568.552 106.937 568.552 106.613 568.552 106.289C569.306 105.478 569.91 104.506 570.363 103.372V103.534ZM561.911 125.57C561.911 125.408 562.062 125.083 562.213 124.921C562.213 125.083 562.062 125.408 561.911 125.57ZM554.364 178.714C556.025 180.496 557.987 182.116 558.741 184.547C560.552 191.028 555.421 191.028 551.648 190.542C549.836 190.218 548.176 189.732 546.516 188.921C545.61 188.435 544.856 187.949 543.95 187.301C543.799 187.139 543.648 187.301 543.497 187.301C542.441 186.653 541.384 186.005 540.328 185.357C535.649 181.792 531.574 177.418 527.348 173.367C522.367 168.344 516.934 163.808 512.557 157.975C508.482 152.466 503.199 145.661 502.143 138.37C501.539 133.671 505.01 129.782 506.821 125.732C507.425 124.273 508.18 122.977 508.783 121.519C508.783 121.519 508.934 121.519 509.085 121.519C513.311 122.167 517.386 124.759 521.16 126.866C525.537 129.458 527.952 131.727 530.065 136.587C530.216 137.073 530.517 137.559 530.668 138.046C532.027 144.527 534.743 151.008 538.064 156.354C540.177 159.757 542.592 162.835 545.158 165.752C545.158 165.914 545.309 165.914 545.309 166.076C547.874 170.937 550.742 174.987 554.364 178.714ZM529.31 128.324C529.159 128.486 529.159 128.324 529.159 128.324C529.159 128.324 529.159 128.324 529.31 128.324ZM532.932 133.023C532.932 133.347 532.932 133.509 532.781 133.833C532.63 133.509 532.63 133.185 532.479 132.861C532.63 132.861 532.781 133.023 532.932 133.023ZM535.498 132.051C535.498 132.051 535.498 132.213 535.347 132.213C535.347 132.051 535.196 132.051 535.196 131.889C535.347 132.051 535.347 132.051 535.498 132.051ZM540.328 154.41C540.177 154.41 540.177 154.41 540.328 154.41C540.177 154.41 540.177 154.248 540.177 154.248C540.177 154.248 540.177 154.41 540.328 154.41ZM549.686 137.883C549.384 137.721 548.931 137.883 548.78 138.37C547.723 140.962 545.61 143.392 542.894 143.716C540.026 143.878 537.611 141.61 537.309 138.694C537.309 138.532 537.309 138.532 537.158 138.532C537.007 133.995 540.177 129.458 544.705 129.944C548.931 130.106 550.44 133.833 549.686 137.883ZM540.781 145.337C545.309 146.309 550.289 144.527 551.044 139.504C551.346 139.342 551.648 139.18 551.799 138.856C554.515 133.833 550.591 127.352 545.309 127.19C539.422 127.028 535.951 132.537 536.706 138.208C536.555 138.208 536.555 138.37 536.404 138.532C536.102 139.018 536.404 139.504 536.856 139.504C537.309 142.258 539.573 144.04 542.29 144.202C545.61 144.364 548.78 142.744 550.289 139.342C550.44 139.342 550.44 139.342 550.591 139.342C549.233 144.364 544.252 146.471 539.724 143.878C534.894 141.124 534.743 135.939 537.158 131.24C539.422 126.704 543.95 125.408 548.478 126.866C554.213 128.648 553.761 135.129 551.497 139.828C550.893 140.638 550.591 141.61 550.138 142.582C549.384 144.202 548.176 145.499 546.667 146.309C544.101 147.767 541.083 147.605 538.517 146.471C538.064 146.147 537.762 145.661 537.309 145.337C536.555 144.364 535.951 143.23 535.498 142.096C535.347 141.772 535.347 141.286 535.196 140.962C535.196 140.8 535.045 140.476 535.045 140.314C535.498 142.744 537.46 144.527 540.781 145.337ZM536.555 129.782C536.555 129.782 536.555 129.944 536.404 129.944C536.404 129.944 536.404 129.782 536.253 129.782C536.404 129.782 536.555 129.782 536.555 129.782ZM542.29 118.116H542.441C542.29 118.44 541.988 118.927 541.837 119.251H541.686C541.535 119.251 541.535 119.089 541.384 119.089C541.686 118.764 541.988 118.44 542.29 118.116ZM543.497 113.094C543.346 113.094 543.346 113.094 543.497 113.094C543.346 113.256 543.346 113.418 543.196 113.418C543.196 113.256 543.346 113.094 543.497 113.094ZM541.837 125.408C541.686 125.408 541.686 125.408 541.535 125.57C541.535 125.57 541.686 125.408 541.837 125.408C541.686 125.408 541.837 125.408 541.837 125.408ZM551.799 91.2202C551.648 91.2202 551.648 91.2202 551.497 91.3822C551.497 91.3822 551.497 91.2202 551.346 91.2202C551.497 91.0582 551.648 91.0582 551.799 91.2202ZM549.535 123.301C549.082 123.301 548.78 123.139 548.478 123.139L548.327 122.977C548.629 122.977 549.082 123.139 549.535 123.301ZM553.308 99.8075C553.308 99.9696 553.308 99.9696 553.308 99.8075C553.308 99.9696 553.308 99.9696 553.308 99.8075ZM553.157 115.686C553.157 115.686 553.308 115.686 553.157 115.686V115.686ZM567.948 90.086C568.099 90.248 568.25 90.4101 568.25 90.5721C567.948 90.4101 567.646 90.248 567.193 90.086C567.495 90.086 567.646 90.086 567.948 90.086ZM549.836 58.9772C548.629 59.6253 547.723 60.4354 546.667 61.4075C545.912 61.8936 545.309 62.5417 544.554 63.1898C545.912 61.0835 547.723 59.7873 549.836 58.9772ZM617 93.3265C617.151 91.5442 616.849 89.5999 616.397 87.9797C615.038 83.767 612.472 81.4987 609.303 78.9063C609.152 78.7442 608.85 79.2303 608.85 79.3923C610.51 81.6607 612.322 84.7392 613.529 87.4936C614.284 89.2759 614.586 91.0582 614.435 93.0025C614.284 93.9746 614.133 94.7847 613.982 95.5949L613.831 95.4328C610.058 94.1367 606.435 92.6784 602.511 91.7063C596.776 88.6278 590.286 87.6556 583.947 87.4936C581.683 87.0075 579.419 86.8455 577.306 87.1696C575.193 87.0075 573.08 87.1696 571.118 87.1696C566.59 87.3316 562.213 89.1139 557.836 89.5999C557.685 89.5999 557.383 89.5999 557.232 89.4379C557.081 89.4379 556.93 89.4379 556.779 89.5999C556.326 89.5999 555.874 89.5999 555.421 89.5999C555.27 89.4379 554.968 89.4379 554.817 89.5999C550.138 89.4379 548.025 85.7113 545.158 82.4708C542.894 80.0404 539.271 77.286 538.064 74.0455C537.913 73.5594 537.611 73.5594 537.309 73.8835C539.12 71.7772 541.082 69.5088 542.743 67.0784C543.045 67.2404 543.497 66.7544 543.648 66.4303C543.799 66.1063 543.799 65.7822 543.95 65.4582C544.252 64.9721 544.705 64.486 545.007 63.9999C545.158 63.8379 545.158 63.6759 545.309 63.5139C548.931 60.4354 553.157 58.167 557.836 57.843C563.269 58.167 569.005 59.9493 572.929 61.0835C582.89 63.8379 592.55 68.0506 601.606 73.2354C602.209 73.5594 602.964 72.4253 602.36 72.1012C591.191 62.8658 577.608 61.5696 564.477 57.5189C559.647 56.0607 553.912 55.2506 549.082 57.3569C548.176 57.843 547.12 58.4911 546.214 59.1392C546.667 57.681 545.46 55.8987 544.101 57.0329C542.29 58.3291 541.082 60.4354 539.724 62.2177C538.517 63.8379 537.007 65.1341 536.253 67.0784C535.951 67.4025 535.8 67.7265 535.649 68.0506C535.649 68.2126 535.498 68.3746 535.649 68.5366C535.649 68.8607 535.8 69.1847 535.951 69.3468C536.102 69.5088 536.102 69.5088 536.253 69.6708C536.404 69.8329 536.555 69.8328 536.706 69.8328C537.007 69.9949 537.46 70.1569 537.762 69.9949C536.404 71.7772 535.045 73.5594 533.838 75.3417C533.687 75.5037 533.536 75.8278 533.385 75.9898C532.178 77.124 531.121 78.7442 530.517 80.3645C528.404 83.605 526.744 86.8455 525.084 90.5721C524.933 90.8961 525.235 91.0582 525.386 90.7341C528.253 85.3873 531.876 80.3645 535.498 75.6658C535.8 75.1797 536.253 74.6936 536.706 74.2075C536.555 74.5316 536.555 74.8556 536.856 75.0177C538.215 75.9898 539.724 78.4202 540.932 79.7164C540.932 79.7164 543.196 82.9569 543.648 83.605C545.007 85.2253 546.818 87.0075 548.478 88.4658C549.686 91.2202 549.535 95.1088 548.629 98.3493C548.478 99.1594 548.176 99.8075 547.874 100.618C547.271 102.238 546.214 103.858 545.459 105.316C543.648 108.233 541.988 111.149 540.328 114.066C538.668 117.144 536.856 120.871 534.442 123.301C530.668 127.028 527.801 125.57 523.575 125.408C519.198 123.301 514.217 122.167 510.293 119.089C510.293 119.089 510.142 119.089 510.142 118.927C511.047 116.982 512.104 115.2 513.16 113.256C513.764 112.283 512.557 111.473 512.104 112.446C510.444 115.524 508.783 118.602 506.972 121.519C506.67 121.033 506.067 120.709 505.463 120.709C505.312 120.709 505.161 120.709 505.01 120.709C504.406 120.709 503.652 121.357 503.35 121.843C501.69 125.083 494.445 136.587 500.331 139.342C501.086 145.013 504.708 150.683 507.576 155.058C509.991 158.461 512.859 161.377 515.726 164.618C518.594 167.858 521.16 171.099 524.329 174.177C531.272 180.982 538.819 186.653 547.723 190.38H547.874C549.082 190.866 550.289 191.19 551.648 191.352C552.402 191.514 553.157 191.514 553.912 191.514C554.063 191.514 554.213 191.514 554.364 191.514C555.119 191.514 555.874 191.514 556.628 191.352C560.1 190.866 561.609 188.111 562.062 184.871C562.213 184.709 562.213 184.385 562.213 184.223C562.213 184.061 562.364 183.737 562.364 183.575C565.382 175.959 557.383 168.344 553.761 162.349C551.799 158.947 551.648 156.516 552.704 152.628C553.61 149.225 555.421 145.985 557.081 142.906C558.59 139.99 559.949 137.235 561.458 134.319C562.967 131.24 563.722 127.676 565.533 124.759C572.023 113.418 578.362 95.9189 593.757 99.6455C596.625 100.294 607.341 105.478 611.567 102.886C614.887 102.076 616.849 97.7012 617 93.3265Z" fill="black"/>
<path d="M604.624 75.3417C604.775 75.3417 604.775 75.1797 604.775 75.1797C604.624 74.8557 604.322 74.6936 604.021 74.5316C603.719 74.3696 603.417 75.0177 603.719 75.0177C604.021 75.0177 604.322 75.3417 604.624 75.3417Z" fill="black"/>
<path d="M606.737 77.4481C607.039 77.6101 607.19 77.9341 607.492 78.0962L607.643 77.9341C607.492 77.6101 607.19 77.448 607.039 77.124C606.737 76.7999 606.435 76.6379 606.133 76.3139C605.982 76.1518 605.832 76.4759 605.982 76.6379C606.133 76.962 606.435 77.124 606.737 77.4481Z" fill="black"/>
<path d="M544.855 136.101C545.157 137.235 545.006 138.046 544.252 138.532C544.403 138.208 544.403 137.884 544.252 137.559C544.554 137.073 544.705 136.425 544.403 135.939C544.252 135.615 544.101 135.453 543.799 135.291C543.648 135.129 543.497 134.967 543.195 134.967C542.893 134.967 542.592 135.129 542.441 135.291C542.29 135.453 542.139 135.777 541.988 136.101C541.686 135.777 541.384 135.453 541.535 134.805C541.686 134.157 542.29 133.995 542.893 133.995C543.799 134.157 544.554 135.129 544.855 136.101ZM539.12 133.509C538.365 134.967 538.516 136.749 539.573 138.208C539.724 138.37 539.875 138.694 540.177 138.856C540.78 140.152 541.988 141.124 543.346 141.124C547.27 141.286 548.931 136.587 547.27 133.347C545.459 129.782 540.78 129.782 539.12 133.509Z" fill="black"/>
<path d="M564.176 95.2708C562.817 94.9468 561.308 96.081 560.553 97.3772C560.251 97.8632 560.251 98.3493 560.1 98.8354C559.95 98.8354 559.95 98.9974 559.799 99.1594C557.987 102.076 560.251 105.802 563.27 105.802C566.59 105.965 568.854 102.076 567.647 98.8354C567.194 97.2151 565.685 95.4329 564.176 95.2708Z" fill="black"/>
<path d="M510.745 126.866C511.5 126.38 512.103 125.894 513.16 126.218C513.613 126.38 514.971 126.866 515.273 127.352C516.027 128.162 514.82 128.648 514.216 128.648C513.763 128.486 513.16 128 512.858 127.838C512.405 127.676 512.103 127.352 511.65 127.19C511.349 127.028 511.047 127.028 510.745 126.866ZM513.009 129.134C513.613 129.296 514.367 129.62 514.971 129.62C516.027 129.458 516.782 128.324 516.329 127.19C515.726 125.894 514.065 125.57 512.858 125.246C511.65 124.921 509.99 124.921 509.537 126.38C509.386 126.866 509.839 127.352 510.292 127.19C510.745 127.514 510.896 128 511.5 128.324C511.952 128.648 512.405 128.972 513.009 129.134Z" fill="black"/>
<path d="M519.348 140.8C519.348 140.962 519.348 140.962 519.499 141.124C519.499 141.286 519.499 141.448 519.65 141.61C519.801 141.934 519.952 142.42 520.405 142.582C520.858 142.906 521.461 142.744 521.914 142.582C523.424 142.582 525.989 142.096 526.14 140.476C526.14 139.99 525.687 139.666 525.386 139.99L525.235 139.828C525.235 139.666 525.235 139.504 524.933 139.504C524.178 139.666 523.574 140.152 522.82 140.476C522.669 140.476 522.669 140.638 522.518 140.638C522.518 140.638 522.518 140.638 522.367 140.638C522.065 140.8 521.612 140.962 521.311 140.962C520.858 140.962 520.556 140.8 520.405 140.476C520.405 139.666 520.254 138.694 520.254 137.884C520.254 137.559 520.254 137.235 520.254 137.073C520.707 136.587 521.16 135.939 521.461 135.291C521.914 134.481 522.216 133.671 523.273 133.995C524.631 134.481 525.688 136.425 527.197 136.425C527.046 136.749 526.895 137.073 526.744 137.559C526.593 137.884 526.593 138.208 526.442 138.694C526.442 138.856 526.593 139.018 526.744 138.856C526.895 138.532 527.197 138.208 527.348 137.884C527.499 137.559 527.65 137.235 527.801 136.749C527.951 136.587 527.801 136.263 527.65 136.101V135.939C527.197 134.805 525.989 134.319 525.084 133.671C524.329 133.347 523.424 132.375 522.669 132.375C522.065 132.375 521.612 132.861 521.16 133.347C520.556 134.319 519.801 135.291 519.348 136.425C519.047 136.263 518.594 136.425 518.594 136.911C518.594 137.559 518.745 138.37 519.047 139.018C519.047 139.666 519.197 140.152 519.348 140.8Z" fill="black"/>
<path d="M510.745 141.61C510.443 141.286 509.99 140.962 510.141 140.476C510.141 139.828 510.896 139.18 511.348 138.694C511.801 138.046 512.254 137.397 512.556 136.749C513.009 136.911 513.31 137.073 513.763 137.235C514.518 137.721 515.423 138.532 516.329 138.856H516.48C516.631 139.342 516.782 139.828 516.933 140.314C517.084 140.962 517.235 141.934 517.537 142.582C517.084 142.744 516.782 142.744 516.329 142.906C516.027 143.068 515.725 143.068 515.424 143.23C515.122 143.392 514.971 143.716 514.669 143.716C514.065 143.23 513.31 142.906 512.556 142.42C511.801 142.258 511.197 141.934 510.745 141.61ZM509.688 141.934C509.084 141.934 508.934 141.61 509.084 141.124C509.235 141.286 509.235 141.286 509.386 141.448C509.537 141.772 509.839 141.934 509.99 142.258C509.839 142.096 509.839 141.934 509.688 141.934ZM513.31 144.689C513.914 144.527 514.518 144.203 515.122 144.04C515.122 144.04 515.122 144.04 515.273 144.04C515.574 144.04 515.876 143.878 516.329 143.878C516.48 143.878 516.782 143.878 516.933 143.716C517.235 143.716 517.537 143.716 517.838 143.716C517.989 143.716 518.14 143.554 518.14 143.392C518.442 143.392 518.593 142.906 518.593 142.744C518.593 142.42 518.442 142.258 518.442 142.096C518.593 141.286 518.291 140.476 517.989 139.666C517.838 138.856 517.386 137.721 516.631 137.559C516.329 137.073 515.725 136.749 515.273 136.263C514.971 136.101 514.82 135.939 514.518 135.777C514.065 135.453 513.763 135.291 513.31 134.967C513.16 134.805 513.009 134.805 512.858 134.967C512.707 134.643 512.254 134.643 511.952 134.805C511.197 135.291 510.745 136.263 510.292 137.073C509.839 137.884 509.386 138.532 509.084 139.504C508.934 139.828 508.933 140.152 508.933 140.314C508.481 140.638 508.33 141.286 508.632 141.772C509.084 142.42 509.99 142.744 510.594 143.068C510.896 143.23 511.047 143.392 511.348 143.392C511.499 143.554 511.65 143.716 511.801 143.878C512.254 144.203 512.707 144.365 513.16 144.365C513.16 144.689 513.31 144.689 513.31 144.689Z" fill="black"/>
<path d="M526.291 143.392C526.291 143.23 526.14 143.068 525.838 143.068H525.688C525.688 142.906 525.537 142.744 525.235 142.744C524.027 143.068 522.669 143.068 521.461 143.392C521.311 143.392 521.311 143.554 521.311 143.554C520.556 143.392 520.254 144.527 520.405 145.175C520.405 145.823 520.707 146.309 520.858 146.957C521.009 147.605 521.009 148.091 521.311 148.739C521.311 148.901 521.16 149.063 521.311 149.063C522.065 149.873 522.82 150.359 523.725 150.846C524.48 151.332 525.235 151.98 526.14 151.98C526.442 151.98 526.744 151.494 526.593 151.17C526.14 150.359 525.084 150.035 524.329 149.711C523.725 149.387 523.273 149.063 522.669 148.901C522.669 148.253 522.518 147.605 522.367 146.957C522.367 146.633 521.914 145.337 521.914 145.337C522.065 145.013 523.273 144.851 523.574 144.851C524.329 144.689 525.084 144.527 525.838 144.365C526.895 145.013 527.951 145.823 529.008 146.147C529.159 146.309 529.31 146.633 529.461 146.795C529.763 147.767 529.008 148.577 528.555 149.387C528.102 150.197 527.65 150.846 527.197 151.656C526.744 152.466 527.65 153.114 528.253 152.304C529.008 151.17 529.612 150.197 530.215 148.901C530.517 148.091 530.97 147.281 530.819 146.471C529.763 144.689 527.801 144.04 526.291 143.392Z" fill="black"/>
<path d="M518.595 149.711C518.293 150.359 517.991 151.17 517.689 151.818C517.236 152.79 516.934 154.086 515.576 153.438C514.52 152.79 513.463 152.142 512.557 151.332C512.105 150.359 513.01 149.387 513.463 148.577C513.765 147.929 514.218 147.119 514.369 146.309V146.147C514.821 145.985 515.425 145.661 515.878 145.499C515.727 145.499 517.689 145.175 517.991 145.337C517.991 145.499 517.84 145.661 517.991 145.823C518.142 146.147 518.142 146.309 518.293 146.633C518.444 147.443 518.595 148.253 518.746 149.225C518.746 149.387 518.897 149.387 518.897 149.549C518.746 149.549 518.746 149.549 518.595 149.711ZM519.802 150.521C519.802 150.359 519.802 150.359 519.802 150.359C519.953 150.197 519.802 149.873 519.802 149.711C519.802 149.711 519.802 149.711 519.802 149.549C519.802 149.387 519.802 149.063 519.802 148.901C519.802 148.901 519.802 148.901 519.802 148.739C519.802 148.577 519.802 148.253 519.651 147.929C519.651 147.767 519.651 147.767 519.5 147.605C519.349 146.309 518.897 144.851 518.142 144.365C517.538 144.04 516.331 144.689 515.727 144.851C514.972 145.013 514.369 145.337 513.765 145.823L513.614 145.985C513.161 146.633 512.708 147.281 512.407 148.091C511.954 148.901 511.501 149.711 511.199 150.683C511.048 151.008 511.048 151.494 511.199 151.818C511.048 152.304 511.35 152.79 511.803 153.114C512.859 153.924 514.369 154.572 515.425 154.896C516.18 155.22 516.633 155.058 517.236 154.734C518.444 154.248 519.048 152.304 519.5 151.008C519.5 151.008 519.651 151.008 519.651 150.846C519.802 150.683 519.802 150.683 519.802 150.521Z" fill="black"/>
<path d="M554.063 84.5772C554.365 84.9012 554.818 85.3873 555.27 85.3873C555.723 85.3873 555.874 84.9012 556.176 84.5772C556.478 83.9291 556.931 83.281 557.232 82.7949C557.383 82.6328 557.383 82.3088 557.232 82.1468C556.478 81.6607 555.723 81.1746 555.119 80.5265C554.968 80.3645 554.667 80.5265 554.667 80.6885C554.365 81.1746 554.063 81.6607 553.912 82.1468C553.761 82.9569 554.667 83.1189 554.818 82.3088C554.818 81.9848 554.968 81.8227 554.968 81.6607C555.421 81.9848 555.874 82.4708 556.327 82.7949C556.176 83.1189 556.025 83.443 555.874 83.767C555.723 84.0911 555.421 84.7392 555.119 84.5772C554.818 84.4151 554.365 84.0911 554.063 83.9291C553.761 83.767 553.459 83.443 553.006 83.443C552.855 83.443 552.705 83.605 552.855 83.767C553.157 84.0911 553.61 84.2531 554.063 84.5772Z" fill="black"/>
<path d="M552.553 81.3366C552.553 81.3366 552.553 81.1746 552.553 81.3366C553.609 80.3645 554.666 79.7164 556.024 79.8784C557.836 80.2025 559.043 82.3088 558.439 84.0911C557.081 89.2759 549.383 85.7113 552.553 81.3366ZM553.006 86.6835C554.968 87.9797 557.534 87.1696 558.741 85.2253C559.949 83.1189 559.345 80.3645 557.232 79.2303C555.572 78.2582 553.308 79.0683 552.251 80.6885C552.1 80.6885 552.1 80.6885 551.949 80.8506C550.742 82.7949 551.195 85.5493 553.006 86.6835Z" fill="black"/>
<path d="M544.706 78.2582C544.404 78.0962 543.951 77.7721 543.649 77.6101C542.895 77.124 542.291 76.6379 541.536 75.9898C541.385 75.8278 541.234 76.1518 541.385 76.3139C542.291 77.124 543.045 77.9341 544.102 78.5822C544.555 78.9063 545.008 79.2303 545.611 79.0683C546.668 78.7443 546.064 77.4481 545.611 76.962C545.008 76.1519 544.555 75.5038 543.8 74.8557C543.347 74.5316 542.744 73.5594 542.14 73.5594C541.234 73.5594 540.932 74.8556 541.234 75.5037C541.385 75.8278 541.838 75.5038 541.687 75.1797C541.385 74.6936 541.536 74.2075 542.291 74.0455C542.442 74.2075 542.442 74.2075 542.593 74.3696C542.895 74.6936 543.196 75.0177 543.498 75.3417C544.102 75.9898 544.706 76.6379 545.158 77.4481C545.158 77.9341 545.611 78.7443 544.706 78.2582Z" fill="black"/>
<path d="M553.308 70.481C553.912 70.1569 554.214 69.1848 554.516 68.5367C554.667 68.3746 554.667 67.8886 554.365 67.8886C553.459 67.7265 552.403 67.5645 551.497 67.5645C551.044 67.5645 550.591 67.7265 550.44 68.3746C550.29 69.6708 551.195 71.6151 551.95 72.4253C552.252 72.7493 552.704 72.2632 552.553 71.9392C552.101 70.967 551.648 70.1569 551.346 69.0227C551.346 68.8607 551.044 68.5367 551.346 68.3746L552.252 68.5367C552.704 68.5367 553.157 68.6987 553.459 68.6987C553.157 69.1848 552.855 69.5088 552.855 70.1569C552.855 70.481 553.157 70.643 553.308 70.481Z" fill="black"/>
<path d="M548.327 68.0506C547.119 70.1569 548.327 72.7493 550.289 73.7214C552.402 74.8556 554.968 73.8835 556.175 71.7771C557.231 69.8328 556.93 66.7544 554.817 65.7822C552.553 64.8101 549.534 65.1341 548.477 67.5645C548.327 67.7265 548.628 67.8885 548.779 67.7265C549.987 66.1063 552.251 65.7822 554.062 66.4303C556.477 67.2404 556.628 70.1569 555.42 72.1012C554.213 73.8835 551.496 74.3696 549.836 72.7493C548.628 71.4531 548.779 69.8328 549.081 68.2126C548.93 67.8885 548.477 67.7265 548.327 68.0506Z" fill="black"/>
<path d="M563.269 67.0784C563.118 66.9164 562.967 67.2405 562.967 67.2405C563.269 68.0506 563.872 68.3746 564.778 68.2126C565.533 68.0506 565.985 67.4025 566.136 66.5924C566.287 65.7822 565.835 64.9721 565.08 64.6481C564.325 64.324 563.42 64.6481 562.967 65.2962C562.665 65.7822 563.118 66.2683 563.571 65.7822C563.872 65.2962 564.325 65.1341 564.778 65.2962C565.231 65.4582 565.684 65.9443 565.533 66.4303C565.382 67.7265 563.872 67.8886 563.269 67.0784Z" fill="black"/>
<path d="M567.193 69.8329C568.552 68.8607 569.307 67.0784 568.854 65.2962C568.401 63.5139 566.892 62.2177 565.08 62.3797C564.93 62.3797 564.93 62.5417 565.08 62.5417C567.797 63.3519 569.759 66.9164 566.892 69.0227C565.684 69.8329 563.873 69.5088 562.666 68.6987C561.458 67.8886 561.156 66.2683 561.458 64.8101C561.609 64.486 561.005 64.324 560.854 64.6481C558.741 69.0227 564.024 72.2632 567.193 69.8329Z" fill="black"/>
<path d="M561.76 63.9999C561.76 64.162 561.76 64.162 561.911 64.162C562.213 64.162 562.363 63.8379 562.514 63.6759C562.816 63.3518 562.967 63.0278 563.42 62.7037C562.967 63.0278 561.76 63.1898 561.76 63.9999Z" fill="black"/>
<path d="M565.231 80.8506C565.835 80.8506 566.438 80.6886 567.042 80.5266C567.193 81.1747 567.495 81.8228 567.948 82.3088C568.099 82.4709 568.551 82.1468 568.4 81.9848C568.249 81.4987 567.948 80.8506 567.797 80.3645C568.249 80.2025 568.853 80.0405 569.306 79.7164C569.608 79.5544 569.608 78.9063 569.155 78.9063C568.551 78.9063 568.099 79.2303 567.495 79.3924C567.495 79.0683 567.344 78.7443 567.344 78.5822C567.193 78.0962 566.589 78.4202 566.589 78.9063C566.589 79.2303 566.74 79.5544 566.74 79.7164C566.287 79.8785 565.684 80.0405 565.231 80.2025C565.08 80.3645 564.929 80.8506 565.231 80.8506Z" fill="black"/>
<path d="M566.137 84.4151C568.703 84.9012 570.816 83.605 571.721 81.0126C573.683 75.3417 564.326 74.2075 564.175 78.5822C564.175 78.7442 564.326 78.5822 564.326 78.5822C564.929 76.7999 567.646 76.3139 569.155 76.7999C571.117 77.448 571.721 79.5544 570.665 81.4987C568.703 84.7392 563.269 83.767 564.477 79.2303C564.628 78.7442 564.024 78.5822 563.873 79.0683C563.118 81.0126 563.873 83.9291 566.137 84.4151Z" fill="black"/>
<path d="M71.5386 19.605C82.5565 24.1417 92.3669 31.2708 102.932 36.7797C112.743 41.8025 123.006 45.6911 134.024 45.8531C145.042 46.0151 155.909 42.9367 166.172 38.886C177.793 34.1873 188.811 27.8683 199.98 22.3595C211.904 16.3645 224.28 11.9898 237.109 8.5873C247.674 5.83287 262.616 0.972108 271.974 9.39742C280.124 16.6886 277.709 29.8126 276.653 39.6962C275.747 47.6354 274.54 56.7088 278.464 63.8379C282.992 72.1012 292.349 74.6936 300.651 75.5038C311.367 76.4759 321.328 73.3974 330.837 68.0506C337.176 64.486 344.119 60.5974 351.061 64.324C355.891 66.9164 359.212 71.6152 362.381 76.1519C367.513 83.443 372.493 91.2202 380.493 95.1088C389.549 99.6455 398.453 98.1873 407.509 94.6227C414.603 91.8683 427.13 87.4936 430.451 98.5114C432.111 104.182 430.3 110.339 433.62 115.524C438.752 123.301 449.921 125.57 458.222 124.759C468.636 123.787 477.843 118.116 483.88 109.043C487.955 103.048 490.521 95.7569 495.954 90.7341C502.595 84.4151 517.839 83.1189 517.236 96.567C517.236 97.8633 518.594 98.6734 519.952 98.6734V98.8354C518.896 101.59 517.386 103.696 517.085 106.775C517.085 107.099 517.386 107.099 517.537 106.937C519.349 104.506 519.5 101.914 520.556 99.1595C520.556 98.9974 520.707 98.8354 520.707 98.6734C521.311 98.5114 521.763 98.0253 521.914 97.3772C522.216 96.405 522.216 95.4329 522.367 94.4607C522.518 93.8126 522.82 93.1645 522.971 92.3544C522.971 92.1924 522.82 91.8683 522.669 92.1924C522.518 92.3544 522.518 92.5164 522.367 92.6784C521.612 86.3595 516.33 81.8227 509.84 81.0126C500.331 79.7164 492.936 88.7898 487.955 96.243C479.805 108.395 472.56 120.061 457.316 121.519C450.826 122.167 440.865 120.547 436.79 114.066C433.318 108.557 436.337 101.266 433.62 95.4329C429.998 87.8177 420.64 86.6835 413.697 88.4658C407.66 89.924 402.076 93.3265 396.039 94.1367C387.737 95.2708 380.04 91.8683 374.305 85.5493C362.532 72.5873 354.684 52.3341 334.459 61.8936C329.026 64.486 324.045 68.0506 318.31 69.8329C310.159 72.4253 300.953 73.0734 292.802 70.643C278.313 66.2683 278.464 52.3341 280.275 39.3721C281.483 30.7848 283.445 21.0632 279.822 12.8C276.049 4.37464 268.05 0.810083 259.749 -4.39286e-05C236.203 -2.43042 210.998 9.2354 190.321 19.9291C178.548 26.086 166.926 32.8911 154.55 37.1038C139.306 42.2886 124.515 41.3164 109.724 34.8354C97.1967 29.3265 85.726 21.7113 73.0479 16.6886C61.2753 11.9898 48.899 9.55945 36.2209 9.39742C11.9211 9.2354 -12.8315 17.3367 -31.8487 33.7012C-32.3015 34.1873 -31.5468 34.6734 -31.094 34.3493C-11.1712 19.9291 12.072 11.9898 36.0699 12.4759C48.1444 12.6379 60.3697 14.9063 71.5386 19.605Z" fill="black"/>
</g>
<defs>
<clipPath id="clip0_0_4170">
<rect width="649" height="192" fill="white" transform="translate(-32)"/>
</clipPath>
</defs>
</svg>
