<svg width="434" height="98" viewBox="0 0 434 98" fill="none" xmlns="http://www.w3.org/2000/svg">
<path d="M6.97765 24.694C6.08689 26.0294 4.75074 26.9197 3.26613 27.5133C2.96921 21.1327 2.52383 14.7522 2.07845 8.37171C6.23535 9.26201 7.27457 14.9006 7.71995 18.4618C8.01687 20.5392 8.16533 22.9134 6.97765 24.694ZM8.61072 26.0294C10.2438 23.6553 10.0953 20.836 9.7984 18.1651C9.0561 13.12 7.42303 6.44271 1.18769 5.99756C0.445382 5.99756 0.148461 6.59109 0.148461 7.18463C0.148461 7.33302 0 7.62978 0 7.92655C0.445382 14.9006 0.890764 21.7263 1.33615 28.7003C1.03922 29.4423 1.63307 30.3326 2.52383 30.0358C4.75074 29.1455 7.12611 28.1068 8.61072 26.0294Z" fill="black"/>
<path d="M13.9557 10.3006C14.698 10.0039 15.1433 8.81679 14.2526 8.37163C13.9557 8.22325 13.9557 7.92648 14.1041 7.62971C14.2526 7.18456 14.8464 7.18456 15.2918 7.33294C16.331 7.62971 16.7764 8.6684 17.0733 9.70709C17.6672 11.9329 17.9641 14.307 18.1126 16.6812C18.261 18.9069 18.261 21.2811 18.261 23.5068C18.261 24.6939 18.1126 26.6229 16.9249 27.3648C14.8464 25.4358 14.5495 22.023 14.2526 19.5005C13.9557 16.3844 13.8072 13.2683 13.9557 10.3006ZM18.261 28.997C19.5972 28.1067 20.0425 26.4745 20.191 24.9907C20.4879 22.9133 20.3395 20.8359 20.3395 18.9069C20.3395 16.6812 20.0425 14.307 19.7456 12.0812C19.4487 10.1522 19.1518 7.92648 17.8156 6.44264C16.6279 5.10718 14.2526 4.51364 12.768 5.99749C12.0257 6.73941 11.8772 7.62971 12.0257 8.52002V8.6684C11.5803 13.4167 11.8772 18.0166 12.6195 22.6165C13.0649 24.8423 14.8464 31.3712 18.261 28.997Z" fill="black"/>
<path d="M25.534 26.3262C25.3855 22.9133 25.3855 19.6489 25.534 16.236C26.4247 19.5005 27.7609 22.765 29.5424 25.7326C29.9878 26.4746 31.3239 26.4746 31.4724 25.4359C32.3632 20.3908 33.8478 15.3457 35.9262 10.5974C36.2231 14.0103 36.5201 17.4231 36.817 20.9843C36.9654 22.1714 36.9654 23.3585 37.1139 24.5456C37.1139 25.2875 37.1139 26.4746 37.7077 27.0681C39.0439 28.5519 40.9739 25.881 39.3408 25.1391V24.9907C39.3408 24.5456 39.3408 24.1004 39.1924 23.6553C39.1924 22.9133 39.0439 22.023 39.0439 21.2811C38.8954 19.6489 38.747 18.0167 38.5985 16.3844C38.3016 13.12 38.0047 9.85553 37.8562 6.59108C37.7078 5.70077 36.3716 5.10723 35.9262 5.99754C33.4024 11.191 31.4724 16.5328 30.2847 22.1714C27.9093 17.4231 26.7217 12.3781 26.5732 7.03623C26.5732 5.70077 24.6432 5.70077 24.4948 7.03623C23.7525 13.4167 23.4555 19.7973 23.7525 26.3262C23.4555 27.6616 25.534 27.6616 25.534 26.3262Z" fill="black"/>
<path d="M45.5785 26.3262C45.4301 19.7973 45.2816 13.12 45.1331 6.59107C45.1331 5.25561 43.0547 5.25561 43.0547 6.59107C43.2031 13.2684 43.3516 19.7973 43.5001 26.3262C43.5001 27.6616 45.5785 27.6616 45.5785 26.3262Z" fill="black"/>
<path d="M59.3844 25.7326C59.6813 19.5005 60.4236 13.4167 61.3144 7.18461C61.4629 5.84915 59.5329 5.25561 59.236 6.59107C58.3452 11.9329 57.7513 17.2747 57.4544 22.6166C54.1883 17.5715 52.4068 11.7845 50.6252 6.14592C50.6252 5.99753 50.4768 5.84915 50.3283 5.70077C50.3283 5.55238 50.3283 5.55238 50.3283 5.404C50.3283 4.06854 48.2499 4.06854 48.2499 5.404C48.1014 12.5264 48.1014 19.5005 48.3983 26.6229C48.3983 27.81 50.3283 28.1068 50.4768 26.9197C51.0706 22.9133 51.3675 19.0553 51.3675 15.049C52.8521 19.0553 54.7821 23.0617 57.6029 26.4746C58.1967 27.2165 59.3844 26.6229 59.3844 25.7326Z" fill="black"/>
<path d="M66.3626 25.2875C66.0657 19.2037 66.2142 12.9716 66.808 6.88782C66.9565 5.55237 64.7296 5.55237 64.7296 6.88782C64.2842 12.9716 64.1357 19.2037 64.2842 25.2875C64.2842 26.6229 66.5111 26.6229 66.3626 25.2875Z" fill="black"/>
<path d="M73.6352 26.9197C73.6352 26.0294 73.6352 25.2875 73.6352 24.3972C73.6352 24.2488 73.6352 23.952 73.4867 23.952C73.4867 22.3198 73.3383 20.5392 73.3383 18.907C76.159 21.8747 78.8313 24.9907 81.0582 28.4036C81.8005 29.4423 83.1367 28.7003 82.9882 27.6616C82.9882 27.2165 82.8397 26.623 82.8397 26.1778C82.6913 25.4359 82.0974 25.2875 81.6521 25.4359C79.5736 22.4682 77.1982 19.6489 74.6744 17.1264C76.4559 13.5651 78.089 10.1523 79.8705 6.59109C80.4644 5.40401 78.6828 4.36532 78.089 5.5524C76.4559 8.81685 74.9713 11.9329 73.3383 15.1974C73.1898 12.2297 73.1898 9.11362 73.0413 6.14593C73.0413 4.81048 70.9629 4.81048 70.9629 6.14593C71.1114 13.12 71.4083 20.0941 71.5567 27.0681C71.5567 28.2552 73.4867 28.2552 73.6352 26.9197Z" fill="black"/>
<path d="M91.1564 34.6356C91.7503 34.6356 92.1956 34.1905 92.1956 33.5969C92.641 29.8873 92.7895 26.1777 92.4926 22.4681C92.4926 21.8746 92.0472 21.4294 91.4533 21.4294C90.8595 21.4294 90.4141 21.8746 90.4141 22.4681C90.711 26.1777 90.5626 29.8873 90.1172 33.5969C90.1172 34.1905 90.711 34.6356 91.1564 34.6356Z" fill="black"/>
<path d="M71.0392 70.2062C71.6331 70.2062 72.0784 69.761 72.0784 69.1675C72.5238 65.4579 72.6723 61.7483 72.3754 58.0387C72.3754 57.4452 71.93 57 71.3361 57C70.7423 57 70.2969 57.4452 70.2969 58.0387C70.5938 61.7483 70.4454 65.4579 70 69.1675C70 69.761 70.5938 70.2062 71.0392 70.2062Z" fill="black"/>
<path d="M108.673 20.6876C108.228 19.2037 108.228 17.7199 108.08 16.236C107.931 14.0103 108.08 11.6361 108.377 9.41036C108.97 9.41036 109.564 9.11359 109.564 8.37167C109.564 7.03621 109.416 5.40399 110.455 4.3653C111.197 3.47499 112.533 3.32661 112.979 4.66207C113.721 7.48137 113.573 10.7458 113.276 13.5651C113.127 15.049 112.682 16.5328 112.237 18.0166C111.791 19.2037 111.494 20.8359 110.603 21.8746C109.564 22.7649 108.822 21.5779 108.673 20.6876ZM111.197 23.952C112.682 23.0617 113.276 21.1327 113.87 19.6489C114.463 17.7199 114.909 15.7909 115.206 13.8619C115.503 11.7845 115.503 9.55874 115.354 7.48137C115.206 5.84914 115.206 3.77176 113.87 2.58469C112.533 1.39761 110.455 1.84277 109.119 2.88146C108.673 3.32661 108.377 3.77176 108.08 4.21691C107.634 4.21691 107.189 4.3653 107.04 4.95883C106.001 9.26198 105.704 13.5651 106.15 17.8683C106.298 19.6489 106.447 21.7262 107.486 23.0617C108.228 24.2488 109.861 24.6939 111.197 23.952Z" fill="black"/>
<path d="M137.623 22.7649C137.623 22.1714 137.771 21.5779 137.771 20.9843C137.771 19.9456 136.583 19.6489 135.989 20.2424C135.247 19.3521 134.653 18.4618 133.911 17.5715C133.317 16.6812 132.575 15.9393 131.981 15.049C131.387 14.307 130.793 13.7135 131.239 12.8232C132.575 9.55874 134.653 6.29429 136.732 3.47499C137.474 2.4363 135.693 1.24923 134.95 2.4363C133.763 4.06853 132.575 5.84914 131.684 7.62975C131.239 8.52005 130.645 9.41036 130.2 10.3007C129.903 10.7458 129.754 11.3394 129.457 11.7845C129.457 11.6361 129.457 11.4877 129.457 11.3394C129.309 8.66844 129.16 5.84914 128.863 3.17822C128.715 1.84276 126.636 1.84276 126.785 3.17822C127.23 7.48136 127.379 11.7845 127.379 16.0876C127.379 17.1263 127.23 18.0166 127.379 19.0553C127.379 19.7973 127.824 20.6876 128.715 20.6876C130.051 20.6876 130.348 18.9069 129.457 18.3134C129.457 18.0166 129.457 17.7199 129.457 17.2747C129.457 16.6812 129.457 15.9393 129.457 15.3457V15.1973C130.051 16.0876 130.793 16.978 131.387 17.8683C132.723 19.6489 134.208 21.5779 135.544 23.3585C136.286 24.1004 137.474 23.952 137.623 22.7649Z" fill="black"/>
<path d="M138.661 4.51374C139.255 4.51374 139.997 4.66213 140.591 4.66213C140.888 10.1523 141.037 15.6426 140.74 21.1328C140.74 22.4682 142.373 22.4682 142.818 21.4295C142.966 20.9844 143.115 20.5392 143.263 20.0941C143.412 19.5005 143.263 19.2038 142.818 18.907C142.966 14.1587 142.818 9.41042 142.521 4.66213C144.006 5.10728 145.193 5.25567 146.381 5.40405C146.975 5.40405 147.42 4.81051 147.42 4.36536C147.42 3.77182 146.975 3.32667 146.381 3.32667C144.451 3.17829 142.521 2.88152 140.591 2.73313C140.591 2.43637 140.591 2.1396 140.294 1.99121C139.849 1.54606 139.255 1.54606 138.81 1.99121C138.513 2.28798 138.216 2.58475 137.919 2.88152C137.325 3.47505 137.77 4.51374 138.661 4.51374Z" fill="black"/>
<path d="M152.321 7.18465C152.321 7.03627 152.469 6.88788 152.766 6.88788C153.211 6.88788 153.36 7.33303 153.508 7.77819C153.954 8.81688 154.102 10.3007 154.102 11.4878C154.102 14.0103 153.508 16.5329 152.321 18.7586C152.172 18.907 151.727 19.7973 151.43 19.7973C151.133 19.7973 150.984 18.4619 150.984 18.3135C150.687 16.978 150.836 15.6426 150.836 14.3071C150.984 12.2297 151.133 10.1523 151.43 8.07496C151.875 7.77819 152.172 7.6298 152.321 7.18465ZM151.43 21.7263C152.766 21.7263 153.657 20.5392 154.251 19.3522C154.844 18.1651 155.438 16.8296 155.735 15.4942C156.329 12.9716 156.477 9.85557 155.587 7.33303C155.141 6.14596 154.251 4.95889 152.914 4.8105C152.469 4.8105 152.024 4.8105 151.578 4.95889C151.43 3.9202 149.648 4.06858 149.5 5.25566C149.203 8.37172 148.757 11.4878 148.609 14.7522C148.461 16.2361 148.609 17.8683 148.906 19.3522C149.351 20.3908 150.094 21.7263 151.43 21.7263Z" fill="black"/>
<path d="M164.793 7.62977C164.644 9.41038 163.308 10.7458 161.823 11.7845C161.972 9.55876 162.12 7.333 162.417 5.10724V4.95885C163.753 4.66208 164.941 6.14593 164.793 7.62977ZM161.526 20.6876C161.526 18.6102 161.526 16.3844 161.675 14.3071C163.605 16.3844 165.535 18.6102 167.168 20.9843C167.91 22.023 169.84 20.9843 168.949 19.9457C167.316 17.5715 165.386 15.3457 163.456 13.2684C165.386 11.7845 167.168 9.55876 166.871 6.88785C166.574 4.36532 164.05 1.99117 161.378 3.02986C160.784 3.17824 160.636 3.77178 160.636 4.21693C160.339 4.36532 160.19 4.66208 160.19 5.10724C159.596 10.3007 159.3 15.4941 159.448 20.6876C159.448 22.023 161.526 22.023 161.526 20.6876Z" fill="black"/>
<path d="M174.292 14.1587C174.144 14.9006 173.995 15.7909 173.847 16.5328C173.55 17.7199 173.401 18.907 173.104 19.9457C172.956 20.836 172.511 21.8747 173.104 22.6166C174.144 24.1004 176.371 22.1714 175.034 20.9844C175.034 20.836 175.034 20.6876 175.034 20.6876C175.183 20.2424 175.183 19.9457 175.331 19.5005C175.48 18.6102 175.628 17.8683 175.777 16.978C176.074 15.3458 176.371 13.7135 176.816 12.0813C177.558 8.81686 178.152 5.55241 178.894 2.28796C179.191 0.952497 177.113 0.358961 176.816 1.69442C176.222 4.6621 175.628 7.62979 175.034 10.4491C173.995 8.07494 172.956 5.84918 171.917 3.47503C171.62 3.02988 170.878 2.88149 170.432 3.02988C169.838 3.32664 169.838 3.92018 169.987 4.51372C171.471 7.77817 172.956 10.8942 174.292 14.1587Z" fill="black"/>
<path d="M180.676 21.5779C181.567 17.7199 182.606 13.8619 183.497 10.0039C183.942 13.7135 184.684 17.2748 185.724 20.836C186.02 21.7263 187.654 21.8747 187.802 20.836C188.544 16.2361 189.732 11.7845 191.365 7.4814C191.959 11.6362 192.404 15.7909 192.998 19.9457C193.147 21.2811 195.225 21.2811 195.077 19.9457C194.334 14.4555 193.592 8.96524 192.998 3.32664C192.85 2.43634 191.514 1.69442 191.068 2.73311C189.287 6.88787 187.802 11.191 186.763 15.6425C185.872 11.4878 185.427 7.33302 185.278 3.02988C185.278 1.8428 183.497 1.54603 183.2 2.73311C181.715 8.81686 180.231 14.9006 178.746 20.9844C178.301 22.3198 180.379 22.9134 180.676 21.5779Z" fill="black"/>
<path d="M218.385 4.51371C219.275 4.95886 219.869 5.70078 220.018 6.59109C220.463 8.3717 218.682 10.4491 216.752 10.4491C216.455 10.4491 216.306 10.5975 216.009 10.7458C216.158 8.52008 216.306 6.29432 216.455 4.06856C217.197 3.92017 217.791 4.06856 218.385 4.51371ZM216.009 21.4295C215.861 21.1327 215.712 20.836 215.416 20.836C215.416 20.5392 215.416 20.094 215.416 19.7973C215.416 19.0554 215.564 18.1651 215.564 17.4231C215.712 15.9393 215.712 14.4555 215.861 12.9716C215.861 12.8232 215.861 12.5265 215.861 12.3781C216.009 12.5265 216.306 12.6748 216.603 12.6748C219.127 12.6748 221.354 10.7458 221.799 8.3717C222.393 5.99755 221.057 3.6234 218.83 2.58471C217.642 1.99118 216.306 1.84279 214.97 2.28795C214.376 2.43633 214.079 3.02987 214.228 3.6234V3.77179C213.931 8.07493 213.634 12.3781 213.337 16.6812C213.337 17.7199 213.189 18.7586 213.189 19.7973C213.189 20.6876 212.892 21.7263 213.189 22.4682C213.931 23.8037 216.455 23.0617 216.009 21.4295Z" fill="black"/>
<path d="M230.56 7.03622C230.56 8.81683 228.778 10.1523 227.145 10.3007C226.997 10.3007 226.848 10.3007 226.7 10.4491C226.848 8.52007 227.145 6.59107 227.293 4.66208C228.927 4.06854 230.56 5.70077 230.56 7.03622ZM225.809 21.5779C225.957 21.2811 226.106 20.9843 226.254 20.5392C226.403 20.094 226.254 19.7973 226.106 19.5005C226.254 16.978 226.403 14.6038 226.7 12.0813C229.223 14.9006 231.153 18.165 232.341 21.8746C232.787 23.2101 234.865 22.6166 234.42 21.2811C233.232 17.8683 231.45 14.6038 229.223 11.7845C231.45 10.8942 233.232 8.96522 232.935 6.44269C232.638 3.475 229.372 1.54601 226.551 2.73308C226.254 2.88147 226.106 3.02985 226.106 3.17823C225.809 3.32662 225.66 3.77177 225.512 4.06854C224.77 9.70714 224.176 15.3457 223.879 20.9843C223.582 22.4682 225.364 22.6166 225.809 21.5779Z" fill="black"/>
<path d="M236.498 6.29432C237.24 6.44271 238.131 6.59109 238.873 6.73948C239.17 6.73948 240.209 6.88786 240.358 7.18463C240.506 7.4814 239.764 8.66847 239.616 8.96524C239.319 9.70716 239.022 10.3007 238.725 11.0426C237.537 13.8619 236.646 16.6812 236.053 19.6489C235.904 20.2424 236.201 20.836 236.795 20.9844C238.725 21.5779 240.655 21.5779 242.585 21.1327C243.921 20.836 243.327 18.7586 241.991 19.0554C240.803 19.3521 239.467 19.3521 238.28 19.0554C238.873 15.9393 239.913 12.8232 241.397 10.0039C242.139 8.66847 243.327 6.88786 241.843 5.5524C241.397 5.10725 240.655 4.81048 239.913 4.81048C239.022 4.6621 237.983 4.51371 237.092 4.36533C236.498 4.21694 235.904 4.51371 235.756 5.10725C235.607 5.5524 236.053 6.29432 236.498 6.29432Z" fill="black"/>
<path d="M251.939 18.4618C251.048 18.7586 250.305 18.907 249.415 18.907C249.118 18.907 248.524 19.0554 248.227 18.907C247.93 18.7586 248.079 18.4618 248.079 18.1651C248.079 16.5328 248.079 14.9006 248.079 13.2684C248.672 13.4168 249.266 13.4168 249.86 13.5651C250.157 13.5651 250.454 13.4168 250.602 13.2684C250.751 13.12 250.899 12.8232 250.899 12.5265C250.899 12.2297 250.751 11.9329 250.602 11.7845C250.454 11.3394 250.305 11.3394 250.009 11.3394C249.415 11.191 248.821 11.191 248.227 11.0426C248.227 9.70715 248.376 8.37169 248.376 7.03624C248.376 6.59108 248.375 5.70078 248.969 5.55239C249.563 5.40401 250.305 5.99755 250.751 6.29432C251.939 7.03624 252.978 5.25563 251.79 4.51371C250.009 3.47502 247.485 2.88148 246.446 5.10724C246 6.14593 246.149 7.333 246 8.37169C246 9.262 246 10.0039 245.852 10.8942C245.703 10.8942 245.555 11.0426 245.406 11.191C245.258 11.3394 245.109 11.6361 245.109 11.9329C245.109 12.2297 245.258 12.5265 245.406 12.6748C245.555 12.8232 245.703 12.8232 245.852 12.9716C245.852 14.0103 245.852 15.049 245.852 16.2361C245.852 17.4231 245.703 18.6102 246 19.7973C246.742 22.1714 250.602 21.2811 252.384 20.6876C253.72 19.9457 253.275 18.0167 251.939 18.4618Z" fill="black"/>
<path d="M256.985 20.094C258.618 21.1327 261.142 20.6876 261.735 18.6102C262.181 17.2747 260.102 16.8296 259.657 18.0166C259.36 18.9069 257.875 18.165 257.579 17.7199C256.688 16.5328 256.836 14.6038 256.836 13.12C256.836 10.8942 257.133 6.88782 259.509 5.70075C259.657 5.84914 259.657 5.84914 259.805 5.99752C260.845 6.88783 262.329 5.40398 261.29 4.51368C260.696 4.06853 260.251 3.3266 259.509 3.47499C259.063 3.62337 258.469 3.77176 258.024 4.06852C257.133 4.66206 256.539 5.40398 256.094 6.29429C255.055 8.52005 254.758 11.0426 254.758 13.5651C254.758 15.9393 254.906 18.7586 256.985 20.094Z" fill="black"/>
<path d="M264.408 11.7846C263.963 14.7522 263.666 17.8683 263.369 20.836C263.369 21.5779 264.111 22.0231 264.705 21.8747C266.041 21.5779 267.526 21.1328 268.862 20.836C270.198 20.5392 269.604 18.4618 268.268 18.7586C267.377 19.0554 266.486 19.2038 265.596 19.5005C265.893 15.9393 266.338 12.3781 267.08 8.81687C267.377 7.18464 268.416 5.25565 267.377 3.62342C266.635 2.28796 264.853 1.84281 263.666 2.8815C262.626 3.7718 264.111 5.25565 265.15 4.36534C265.002 4.36534 265.002 4.36534 265.15 4.36534C265.299 4.36534 265.299 4.36534 265.447 4.51372C265.596 4.66211 265.596 4.95888 265.596 5.10726C265.596 5.84918 265.299 6.5911 265.15 7.18464C264.853 8.81687 264.556 10.3007 264.408 11.7846Z" fill="black"/>
<path d="M273.612 11.6362C273.909 12.2297 274.206 12.8232 274.503 13.5652C274.8 14.1587 274.948 14.6038 275.542 14.9006H275.691C275.691 15.1974 275.542 15.3458 275.542 15.6425C275.394 16.3845 275.245 17.1264 275.245 17.8683C275.245 18.1651 275.097 18.4618 275.097 18.7586C275.097 18.907 275.097 18.907 275.097 19.0554C273.464 19.9457 275.245 22.4682 276.582 20.9844C277.175 20.3908 277.175 19.3521 277.175 18.6102C277.324 17.5715 277.472 16.3845 277.621 15.3458C278.363 11.191 279.551 7.03625 281.332 3.17826C281.629 2.58473 281.035 1.99119 280.59 1.84281C279.996 1.69442 279.551 1.99119 279.254 2.58473C278.066 5.40403 277.175 8.22333 276.433 11.191C276.285 11.6362 276.285 11.9329 276.136 12.3781C276.136 12.3781 276.136 12.2297 275.988 12.2297C275.839 11.7845 275.542 11.3394 275.394 10.8942C274.948 10.0039 274.652 9.26202 274.206 8.37171C273.464 6.5911 272.722 4.95887 271.831 3.17826C271.534 2.73311 270.792 2.58473 270.346 2.73311C269.752 3.02988 269.752 3.62342 269.901 4.21695C271.237 6.5911 272.425 9.11363 273.612 11.6362Z" fill="black"/>
<path d="M284.302 3.92015C285.044 4.06854 285.786 4.06854 286.529 4.21692C286.38 8.37168 286.232 12.3781 286.232 16.5328C285.935 16.6812 285.786 16.978 285.935 17.2747C286.083 18.0166 286.083 18.6102 286.232 19.3521C286.38 20.6876 288.31 20.6876 288.31 19.3521C288.459 14.4554 288.607 9.41037 288.755 4.51369C289.646 4.66207 290.389 4.81046 291.279 4.95884C291.873 5.10723 292.467 4.81046 292.615 4.21692C292.764 3.62338 292.467 3.02985 291.873 2.88146C289.498 2.43631 286.974 1.99116 284.599 1.84277C284.005 1.84277 283.559 2.43631 283.559 2.88146C283.262 3.62338 283.708 3.92015 284.302 3.92015Z" fill="black"/>
<path d="M296.032 10.1523C296.477 8.96524 297.071 7.62978 297.665 6.44271C297.665 7.77816 297.665 9.11362 297.813 10.3007C297.219 10.1523 296.626 10.1523 296.032 10.1523ZM292.914 12.5265C292.172 14.4555 291.429 16.5328 290.836 18.6102C290.39 19.9457 292.469 20.3908 292.914 19.2037C293.656 16.8296 294.399 14.6038 295.289 12.3781C295.438 12.3781 295.586 12.3781 295.883 12.3781C296.329 12.3781 296.626 12.3781 297.071 12.3781C297.071 12.3781 297.071 12.3781 297.219 12.3781C297.368 12.3781 297.368 12.3781 297.516 12.3781C297.665 12.3781 297.962 12.5265 298.11 12.5265C298.259 14.7522 298.407 16.978 298.704 19.3521C298.852 20.6876 300.931 20.6876 300.782 19.3521C300.189 13.5651 299.892 7.77817 300.04 1.99118C300.04 0.952492 298.556 0.507339 298.11 1.39764C296.626 4.36533 295.141 7.4814 293.953 10.5975C293.805 10.5975 293.508 10.7458 293.359 10.7458C292.766 10.8942 292.469 11.4878 292.617 12.0813C292.469 12.0813 292.617 12.3781 292.914 12.5265Z" fill="black"/>
<path d="M309.541 13.4167C309.392 12.0813 309.392 10.7458 308.501 9.70711C307.759 8.8168 306.571 8.66842 305.532 8.07488C304.641 7.48135 305.384 5.84912 305.532 4.95882C305.829 3.92013 306.274 2.58467 307.462 2.13952C308.798 1.69436 308.204 -0.383015 306.868 0.0621371C304.938 0.804058 303.899 2.43628 303.454 4.36528C303.008 6.29427 302.415 8.52004 304.344 9.70711C305.087 10.1523 305.978 10.1523 306.571 10.7458C307.314 11.4877 307.314 12.9716 307.314 13.8619C307.314 15.1973 307.165 16.5328 306.274 17.5715C305.978 18.0166 305.532 18.3134 304.938 18.6102C304.79 18.7585 304.493 18.7585 304.344 18.7585H304.196C304.048 18.6102 304.048 18.4618 303.899 18.4618C302.711 17.8682 301.375 19.2037 302.415 20.3908C303.157 21.2811 304.938 20.9843 305.829 20.6875C308.798 19.5005 309.689 16.3844 309.541 13.4167Z" fill="black"/>
<path d="M319.784 16.8296C317.854 17.1264 316.073 17.4232 314.143 17.7199C315.182 12.5265 316.667 7.33303 318.597 2.28797C318.745 1.84281 318.448 1.10089 317.854 0.952508C316.073 0.507355 314.44 0.358971 312.658 0.655739C311.322 0.804123 311.322 2.8815 312.658 2.73312C313.846 2.58473 315.034 2.58473 316.221 2.73312C314.291 7.92657 312.807 13.2684 311.768 18.6102C311.619 19.5005 312.213 20.0941 313.104 19.9457C315.479 19.5005 317.854 19.2038 320.378 18.7586C321.714 18.6102 321.121 16.5328 319.784 16.8296Z" fill="black"/>
<path d="M5.55152 49.1703C4.66075 49.9122 3.62153 50.5057 2.58231 50.9509C2.58231 48.4283 2.58231 46.0542 2.58231 43.5317C3.32461 43.68 4.06691 43.8284 4.80922 44.1252C5.69998 44.5704 6.44226 45.0155 6.73918 45.9058C7.0361 47.2413 6.29382 48.4283 5.55152 49.1703ZM2.13692 41.4543C1.84 41.4543 1.39461 41.4543 1.24615 41.6027C0.800769 41.7511 0.503848 42.0478 0.503848 42.6414C0.652309 48.7251 0.652313 54.6605 0.206932 60.7442C-0.0899892 61.1894 -0.0899801 61.7829 0.355401 62.2281C0.949243 63.1184 2.28537 62.6732 2.28537 61.6345C2.73075 61.3378 2.73076 60.5958 2.43384 60.1507C2.5823 57.7766 2.73076 55.4024 2.73076 53.0283C2.87922 53.0283 3.02768 53.0283 3.17614 52.8799C4.66075 52.1379 6.2938 51.396 7.48149 50.0606C8.66917 48.7251 9.26302 47.0929 8.81764 45.4607C8.07534 42.7897 4.80921 41.8994 2.13692 41.4543Z" fill="black"/>
<path d="M18.0233 53.0282C17.5779 54.3637 16.9841 55.5507 16.3902 56.8862C15.7964 57.9249 15.2025 59.2603 14.0148 59.7055C12.9756 60.1506 12.6787 58.6668 12.5302 57.9249C12.2333 56.441 12.0848 54.9572 11.9364 53.4734C11.7879 51.9895 11.7879 50.3573 11.7879 48.8734C11.7879 48.4283 11.9364 47.8348 12.0849 47.3896C12.6787 47.3896 13.2725 47.0928 13.2725 46.3509C13.2725 45.4606 14.1633 44.8671 14.9056 44.7187C15.9448 44.4219 16.9841 45.0155 17.5779 45.7574C19.5079 47.6864 18.7656 50.6541 18.0233 53.0282ZM14.1633 42.6413C13.5695 42.7897 13.1241 43.0865 12.6787 43.3832C12.3818 43.2348 11.9364 43.3832 11.6395 43.68C9.11563 46.2025 9.56102 50.3573 9.85794 53.6217C10.0064 55.4023 10.1549 57.4797 10.7487 59.2603C11.1941 60.7442 12.5302 61.9313 14.1633 61.6345C15.7964 61.3377 16.9841 60.0023 17.7264 58.6668C18.7656 57.0346 19.5079 55.254 20.1017 53.4734C21.141 50.2089 21.5863 46.2025 18.7656 43.68C17.4294 42.6413 15.7964 42.0478 14.1633 42.6413Z" fill="black"/>
<path d="M30.1963 41.7511C30.0478 46.4994 29.6024 51.0993 28.7117 55.6992C26.6332 52.138 26.4848 47.6864 26.4848 43.6801C26.4848 42.493 24.5548 42.1962 24.4063 43.3833C23.5156 48.7251 22.6248 53.9186 21.5856 59.2604C21.2887 60.5959 23.3671 61.1894 23.664 59.8539C24.1094 57.183 24.5548 54.5121 25.0002 51.8412C25.594 54.5121 26.6333 56.8863 28.5632 58.9636C29.1571 59.5572 30.1963 59.2604 30.3448 58.5185C31.384 53.4734 32.1263 48.4284 32.2747 43.3833C32.4232 43.0865 32.5717 42.7898 32.5717 42.493C32.5717 42.1962 32.4232 41.8995 32.4232 41.4543C32.1263 40.2672 30.3447 40.564 30.1963 41.7511Z" fill="black"/>
<path d="M35.0958 42.3446C34.7989 48.28 34.6504 54.2153 34.6504 60.1507C34.6504 61.4862 36.5804 61.4862 36.7288 60.1507C36.7288 59.5572 36.8773 58.9636 36.8773 58.3701C36.8773 58.0733 36.8773 57.925 36.7288 57.7766C36.7288 52.5831 36.8773 47.5381 37.1742 42.3446C37.3226 41.0092 35.2442 41.0092 35.0958 42.3446Z" fill="black"/>
<path d="M45.6366 56.7379C44.7458 57.183 43.7066 57.183 42.8158 57.0346C42.5189 57.0346 42.3704 56.8862 42.0735 56.8862C41.925 56.8862 41.925 56.8862 41.7766 56.8862C41.7766 56.7379 41.7766 56.4411 41.7766 56.4411C41.7766 56.1443 41.7766 55.9959 41.925 55.6992C42.0735 54.2153 42.3704 52.8799 42.6673 51.396C43.5581 51.396 44.4489 51.396 45.3396 51.2476C45.9335 51.2476 46.3789 50.8025 46.3789 50.209C46.3789 49.6154 45.9335 49.1703 45.3396 49.1703C44.5973 49.3186 43.855 49.3186 43.1127 49.3186C43.1127 49.1703 43.1127 49.1703 43.1127 49.0219C43.4096 47.9832 43.7066 46.7961 44.0035 45.7574C44.3004 44.8671 44.7458 43.8284 44.152 42.9381C43.7066 42.3446 42.9643 42.0478 42.3704 42.0478C42.0735 42.0478 41.6281 42.0478 41.3312 42.0478C41.1827 42.0478 41.0343 42.0478 41.0343 42.0478H40.8858C40.8858 42.0478 40.8858 42.0478 40.8858 41.8994C39.995 40.8607 38.5104 42.3446 39.4012 43.3833C39.995 43.9768 40.7373 44.1252 41.6281 44.1252C41.925 44.1252 42.222 44.1252 42.5189 44.1252C42.3704 44.2736 42.3704 44.7187 42.222 44.8671C41.7766 46.351 41.4797 47.6864 41.1827 49.1703H41.0343H40.8858C40.5889 49.1703 40.4404 49.0219 40.1435 49.0219C39.5497 48.8735 38.9558 49.1703 38.8074 49.7638C38.6589 50.209 38.9558 50.9509 39.5497 51.0993C39.995 51.2476 40.4404 51.2476 40.8858 51.2476C40.8858 51.5444 40.7374 51.8412 40.7374 52.1379C40.5889 53.325 40.292 54.5121 40.1435 55.6992C39.995 56.7379 39.6981 57.9249 40.7374 58.6669C41.6281 59.112 42.8158 59.2604 43.855 59.2604C45.0427 59.2604 46.0819 59.112 46.9727 58.6669C47.8635 57.9249 46.8242 56.1443 45.6366 56.7379Z" fill="black"/>
<path d="M56.7727 57.3314C55.7334 57.183 54.6942 57.183 53.5065 57.0346C52.9127 57.0346 52.3188 56.8862 51.725 56.8862H51.5765C51.5765 56.7379 51.5765 56.5895 51.5765 56.5895C51.725 54.5121 51.8734 52.4347 52.0219 50.3573H55.2881C55.8819 50.3573 56.3273 49.9122 56.3273 49.3187C56.3273 48.7251 55.8819 48.28 55.2881 48.28H52.3188C52.4673 46.7961 52.6157 45.3123 52.9127 43.9768C53.0611 43.3833 53.2096 42.7897 53.8034 42.6414C54.1004 42.6414 54.6942 42.7897 54.8426 43.0865C55.288 44.2736 57.3665 43.8284 56.9211 42.493C56.1788 40.7124 53.9519 39.8221 52.1704 41.0091C51.2796 41.6027 50.9827 42.7897 50.6858 43.8284C50.5373 45.3123 50.2404 46.7961 50.0919 48.4283C49.9435 49.9122 49.795 51.5444 49.6465 53.0283C49.498 54.5121 49.3496 55.9959 49.3496 57.3314C49.3496 58.8152 50.6857 58.9636 51.8734 59.112C53.5065 59.2604 55.1396 59.4088 56.6242 59.4088C58.1088 59.4088 58.1088 57.3314 56.7727 57.3314Z" fill="black"/>
<path d="M61.2271 64.899C61.0786 65.4926 60.9302 66.5313 60.6332 67.2732C60.4848 66.6796 60.3363 65.4926 60.3363 65.3442C60.3363 64.6023 60.3363 63.8603 60.4848 63.1184C60.6332 61.9313 61.0786 60.8927 61.8209 59.854C61.8209 60.4475 61.8209 61.041 61.8209 61.6346C61.524 62.8217 61.524 63.8603 61.2271 64.899ZM63.6025 43.0866C63.7509 42.493 62.8601 41.8995 62.2663 42.0479C61.3755 42.3446 60.7817 42.493 59.8909 42.0479C58.7032 41.4543 57.664 43.2349 58.8517 43.8285C59.594 44.2736 60.4848 44.422 61.3755 44.422C61.0786 48.1316 61.3755 51.9896 61.6724 55.6992C61.6724 56.1444 61.6724 56.7379 61.6724 57.1831C61.3755 57.1831 61.2271 57.3314 60.9301 57.4798C58.7032 60.0024 57.8124 63.2668 58.2578 66.5313C58.4063 67.7183 59.0001 69.7957 60.4848 69.9441C62.1178 70.0925 62.5632 67.8667 62.8602 66.6796C65.0871 58.9637 62.5632 50.8025 63.6025 43.0866Z" fill="black"/>
<path d="M89.9763 53.9934C89.234 54.8837 88.1947 55.3288 87.1555 55.6256C87.1555 51.0257 87.007 46.4258 87.007 41.9743C88.0463 42.271 89.0855 43.1613 89.6793 44.0516C90.7186 45.5355 91.1639 47.4645 91.3124 49.2451C91.4609 50.8773 91.3124 52.6579 89.9763 53.9934ZM90.867 42.1226C89.3824 40.342 87.1555 39.3033 84.7801 39.6001C84.1863 39.7485 83.8894 40.4904 84.0378 40.9356C84.1863 41.3807 84.4832 41.5291 84.7801 41.6775C84.7801 46.4258 84.9286 51.3225 84.9286 56.0708C84.6317 56.3675 84.6317 56.9611 84.9286 57.2578C84.9286 59.0384 84.9286 60.9674 84.9286 62.748C84.9286 63.6383 86.1163 64.0835 86.7101 63.49C87.007 63.3416 87.1555 63.1932 87.304 63.0448C87.8978 62.4513 87.6009 61.8577 87.1555 61.561C87.1555 60.2255 87.1555 59.0384 87.1555 57.703C88.7886 57.4062 90.4216 56.6643 91.4609 55.4772C93.2424 53.6966 93.6878 51.3225 93.3909 48.9483C93.0939 46.4258 92.5001 44.0516 90.867 42.1226Z" fill="black"/>
<path d="M100.369 52.0644C99.4783 52.2128 98.5875 52.2128 97.6968 52.3612C97.8452 51.916 97.9937 51.4709 97.9937 51.0257C98.4391 49.5419 98.736 48.058 99.1814 46.5742C99.1814 46.2774 99.3298 46.129 99.3298 45.8323C99.7752 48.058 100.072 50.1354 100.369 52.0644C100.518 52.0644 100.518 52.0644 100.369 52.0644ZM99.4783 41.3807C98.2906 42.271 97.9937 43.4581 97.6968 44.7936C97.2514 46.4258 96.806 48.2064 96.3606 49.8386C95.4699 53.1031 94.2822 56.5159 94.4306 59.7804C94.4306 61.1158 96.6575 61.1158 96.5091 59.7804C96.5091 57.9998 96.806 56.2192 97.2514 54.4385C98.2906 54.2902 99.3298 54.2902 100.518 54.1418C100.666 54.1418 100.814 54.1418 100.814 53.9934C100.814 54.2902 100.963 54.4385 100.963 54.7353C101.111 55.774 101.26 56.6643 101.408 57.703C101.557 58.4449 101.557 59.632 102.002 60.2255C103.19 61.561 104.971 59.9288 103.932 58.5933C103.932 58.4449 103.784 58.4449 103.635 58.4449V58.2965C103.635 57.9998 103.487 57.5546 103.487 57.2578C103.338 56.5159 103.19 55.774 103.19 55.0321C102.893 53.5482 102.744 52.2128 102.448 50.7289C102.002 47.7613 101.557 44.942 100.963 41.9743C100.814 41.3807 99.9237 40.9356 99.4783 41.3807Z" fill="black"/>
<path d="M112.245 50.2837C112.542 53.3998 111.057 56.5159 108.385 58.2965C108.385 58.2965 108.385 58.2965 108.236 58.4449C108.385 53.6966 108.385 48.9483 108.236 44.0516C110.463 45.387 111.948 47.7612 112.245 50.2837ZM107.939 59.4835C108.088 60.0771 108.682 60.6706 109.424 60.2255C112.542 58.1481 114.62 54.2901 114.323 50.4321C114.026 46.7225 111.651 43.3097 108.236 41.6774C108.236 41.6774 108.236 41.6774 108.088 41.6774C107.643 40.7871 106.009 40.9355 106.158 42.1226C106.455 47.7612 106.455 53.2514 106.158 58.89C106.158 59.7803 107.346 59.9287 107.939 59.4835Z" fill="black"/>
<path d="M119.964 59.7803C121.152 59.6319 122.34 59.6319 123.527 59.4836C124.864 59.3352 124.864 57.2578 123.527 57.4062C122.637 57.5546 121.597 57.5546 120.707 57.703C120.113 57.703 119.667 57.8513 119.074 57.8513C118.925 57.8513 118.628 57.8513 118.48 57.8513C118.48 57.5546 118.48 57.4062 118.48 57.1094C118.48 56.6643 118.48 56.2191 118.48 55.774C118.48 54.7353 118.48 53.845 118.48 52.8063C118.48 52.6579 118.48 52.5095 118.48 52.3611C118.925 52.2127 119.519 52.2127 119.964 52.0644C120.558 51.916 120.855 51.3224 120.707 50.7289C120.558 50.1354 119.964 49.8386 119.37 49.987C119.074 49.987 118.777 50.1354 118.48 50.1354C118.48 47.1677 118.628 44.2 118.628 41.2323C118.628 39.8968 116.55 39.8968 116.55 41.2323C116.55 44.3484 116.401 47.4644 116.401 50.5805C116.253 50.5805 116.253 50.5805 116.104 50.5805C115.511 50.7289 115.214 51.3224 115.362 51.916C115.511 52.3611 115.956 52.6579 116.401 52.6579C116.401 53.2514 116.401 53.845 116.401 54.4385C116.401 55.4772 116.401 56.5159 116.401 57.5546C116.401 58.4449 116.401 59.3352 117.292 59.7803C118.034 60.2255 119.074 59.9287 119.964 59.7803Z" fill="black"/>
<path d="M142.679 43.3097L142.828 43.4581C143.422 44.0516 144.313 43.6065 144.609 43.0129C145.946 43.3097 146.985 44.7936 147.282 46.129C147.727 48.3548 147.133 50.8773 146.391 52.9547C146.094 53.845 144.461 58.2965 142.828 56.8127C142.234 56.2191 142.086 55.1804 141.937 54.2901C141.789 53.1031 141.64 51.7676 141.64 50.5805C141.64 48.2064 141.937 45.6839 142.679 43.3097ZM142.086 59.0384C145.055 60.6707 146.985 56.9611 147.876 54.8837C149.063 52.0644 149.657 48.7999 149.212 45.8322C148.618 43.0129 145.797 40.0453 142.679 41.3807C142.234 40.9356 141.195 40.9356 140.898 41.8259C140.007 44.9419 139.413 48.2064 139.562 51.6192C139.562 53.1031 139.71 54.7353 140.007 56.2191C140.304 57.1094 140.898 58.2965 142.086 59.0384Z" fill="black"/>
<path d="M151.735 41.6775C151.587 47.3161 151.587 52.9547 151.735 58.5933C151.735 59.9287 153.814 59.9287 153.814 58.5933C153.814 55.6256 153.665 52.5095 153.814 49.5418C155.298 49.5418 156.783 49.2451 158.119 48.6515C158.564 48.3548 158.861 47.6129 158.564 47.1677C158.267 46.7225 157.674 46.5742 157.08 46.7225C156.931 46.7225 156.931 46.8709 156.783 46.8709C156.783 46.8709 156.486 47.0193 156.783 46.8709C156.634 47.0193 156.337 47.0193 156.189 47.0193C155.892 47.1677 155.447 47.3161 155.001 47.3161C154.853 47.3161 154.853 47.3161 154.704 47.3161C154.556 47.3161 154.259 47.3161 154.111 47.3161H153.962C153.962 45.3871 153.962 43.4581 154.111 41.5291C156.189 41.5291 158.267 41.5291 160.197 41.5291C161.534 41.5291 161.534 39.4517 160.197 39.4517C157.525 39.4517 154.853 39.4517 152.181 39.6001C150.696 39.6001 150.547 41.5291 151.735 41.6775Z" fill="black"/>
<path d="M162.426 40.1937C162.426 46.4258 162.426 52.5096 162.129 58.7417C162.129 60.0772 164.207 60.0772 164.207 58.7417C164.504 52.5096 164.653 46.4258 164.504 40.1937C164.504 38.8582 162.426 38.8582 162.426 40.1937Z" fill="black"/>
<path d="M170.441 50.8773C170.738 49.6902 171.183 48.3547 171.628 47.1677C171.777 48.3547 171.777 49.3934 171.925 50.5805C171.331 50.5805 170.886 50.7289 170.441 50.8773ZM168.808 56.8126C169.105 55.6256 169.401 54.4385 169.698 53.2514C170.441 53.103 171.183 52.8063 172.074 52.6579C172.074 52.8063 172.074 53.103 172.074 53.2514C172.222 54.1417 172.222 55.032 172.371 55.9223C172.519 56.8126 172.519 57.8513 172.668 58.7416C172.816 59.3352 173.261 59.9287 174.004 59.9287C174.746 59.9287 175.34 59.3352 175.191 58.5933C175.191 58.2965 175.043 57.9997 174.746 57.703C174.746 57.5546 174.746 57.4062 174.746 57.2578C174.746 56.961 174.746 56.5159 174.598 56.2191C174.598 55.4772 174.449 54.8837 174.449 54.1417C174.449 53.3998 174.301 52.6579 174.301 51.7676C174.598 51.7676 174.746 51.6192 175.043 51.6192C175.637 51.4708 175.934 50.8773 175.785 50.2837C175.637 49.6902 175.043 49.3934 174.449 49.5418C174.301 49.5418 174.301 49.5418 174.152 49.6902C173.855 47.0193 173.707 44.3484 173.41 41.6775C173.261 40.4904 171.777 40.1936 171.331 41.3807C169.698 46.129 168.214 50.8773 167.026 55.774C166.432 57.5546 168.511 57.9997 168.808 56.8126Z" fill="black"/>
<path d="M184.247 43.0129C184.098 44.4967 183.059 45.5354 181.872 46.129C182.02 44.3484 182.168 42.5677 182.168 40.7871C182.168 40.6387 182.168 40.6387 182.168 40.4904C183.356 40.342 184.395 41.8258 184.247 43.0129ZM178.902 57.4062C178.902 58.1481 179.793 58.7416 180.535 58.2965C181.278 57.7029 181.723 56.8126 181.426 55.9223C181.426 55.7739 181.278 55.6256 181.278 55.4772C181.426 53.6966 181.575 51.9159 181.575 49.987C182.762 51.6192 183.95 53.3998 184.989 55.3288C185.286 55.9223 185.583 56.5159 185.88 57.1094C186.177 57.5546 186.325 58.1481 186.919 58.4449C188.107 59.0384 188.849 57.7029 188.404 56.6642C188.255 56.3675 187.958 56.2191 187.81 56.2191C187.662 55.9223 187.513 55.7739 187.513 55.4772C187.365 55.032 187.068 54.5869 186.919 54.2901C186.474 53.3998 185.88 52.5095 185.435 51.7676C184.692 50.4321 183.802 49.245 182.762 48.058C184.989 46.7225 186.771 44.6451 186.474 41.9742C186.177 39.3033 183.059 37.5227 180.684 39.0065C180.09 39.3033 180.09 40.0452 180.387 40.4904C180.387 40.6387 180.238 40.7871 180.238 40.9355C179.645 46.4257 179.199 51.9159 178.902 57.4062Z" fill="black"/>
<path d="M195.235 48.3548C195.532 47.1677 195.829 45.9806 196.126 44.9419C196.422 46.129 196.571 47.1677 196.719 48.3548C196.274 48.3548 195.829 48.3548 195.235 48.3548ZM200.728 63.7867C200.282 63.49 199.54 63.6383 199.243 64.2319H199.095H198.946C198.946 64.2319 198.798 64.2319 198.798 64.0835C198.798 64.0835 198.798 64.0835 198.798 63.9351V63.7867C198.649 63.49 198.798 63.0448 198.946 62.748C199.243 61.8577 199.689 60.9674 199.986 60.0771C200.431 59.0384 200.728 58.1481 201.173 57.1094C201.322 56.5159 200.876 55.9224 200.431 55.774H200.282C200.134 53.845 199.837 52.0644 199.54 50.1354C199.986 49.987 200.431 49.6902 200.282 49.0967C200.282 48.5032 199.837 48.058 199.243 48.058C199.243 48.058 199.243 48.058 199.095 48.058C198.649 45.2387 198.056 42.5678 197.313 39.8969C197.016 38.8582 195.532 38.8582 195.235 39.8969C194.641 43.0129 193.899 45.9806 193.008 49.0967C193.008 49.0967 193.008 49.2451 193.008 49.3935C192.117 52.5095 191.226 55.6256 190.336 58.7417C189.89 60.0771 191.969 60.5223 192.414 59.3352C193.305 56.5159 194.196 53.5482 194.938 50.5805C195.68 50.5805 196.571 50.4322 197.313 50.4322C197.61 52.5095 197.907 54.4385 198.204 56.5159C197.759 56.8127 197.61 57.2578 197.907 57.8514C198.056 57.9997 198.204 58.2965 198.352 58.4449C198.056 59.0384 197.907 59.632 197.61 60.2255C197.165 61.4126 196.571 62.5997 196.719 63.7867C196.868 64.9738 197.61 65.8641 198.649 66.1609C199.54 66.4576 200.728 66.1609 201.173 65.2706C201.322 64.8254 201.173 64.0835 200.728 63.7867Z" fill="black"/>
<path d="M228.518 39.2297C226.588 44.2748 224.954 49.3198 223.47 54.3649C221.54 49.6166 219.907 44.7199 218.571 39.8233C218.274 38.6362 216.641 38.933 216.492 40.12C216.047 46.5005 215.453 52.8811 215.008 59.2616C214.859 60.597 216.938 60.597 217.086 59.2616C217.383 54.8101 217.828 50.2101 218.125 45.7586C219.461 49.9134 221.094 54.0681 222.728 58.0745C223.173 58.9648 224.509 58.668 224.658 57.7777C225.845 53.4746 227.181 49.1715 228.518 45.0167C228.814 49.765 229.408 54.5133 230.596 59.1132C230.893 60.4487 232.971 59.8551 232.674 58.5197C231.19 52.2875 230.447 45.7586 230.596 39.3781C230.596 38.191 228.963 38.191 228.518 39.2297Z" fill="black"/>
<path d="M240.098 55.2551C239.653 56.1455 238.317 57.6293 237.574 55.9971C236.98 54.3648 236.684 52.5842 236.535 50.8036C236.09 47.3908 236.238 43.8296 236.98 40.5651C237.871 39.8232 239.207 41.1586 239.653 41.9006C240.395 43.0876 240.84 44.5715 241.137 46.0553C241.88 49.023 241.583 52.5842 240.098 55.2551ZM242.325 42.1973C241.731 40.7135 240.692 39.2297 239.059 38.6361C237.574 38.0426 235.941 38.4877 234.902 39.8232C234.605 40.12 234.605 40.5651 234.754 40.7135C234.16 44.1263 233.863 47.5392 234.308 50.952C234.457 52.7326 234.754 54.6616 235.347 56.4422C235.793 57.7777 236.684 58.9648 238.168 58.9648C241.434 58.9648 242.77 54.5132 243.216 51.9907C243.958 48.5779 243.661 45.3134 242.325 42.1973Z" fill="black"/>
<path d="M257.021 57.3326C258.803 51.2488 260.139 45.1651 260.881 38.7846C261.03 37.4491 258.951 37.4491 258.803 38.7846C258.209 43.6812 257.318 48.4295 255.982 53.1778C254.646 48.5779 253.755 43.978 253.161 39.2297C253.013 38.191 251.38 37.7459 251.083 38.9329C250.192 43.0877 249.153 47.2425 248.262 51.3972C247.668 47.5392 247.074 43.5328 246.481 39.6749C246.332 38.3394 244.254 38.9329 244.402 40.2684C245.293 45.907 246.184 51.694 247.074 57.3326C247.223 58.3713 248.856 58.2229 249.153 57.3326C250.044 53.1778 251.083 49.0231 251.974 44.8683C252.716 49.0231 253.755 53.3262 255.091 57.3326C255.24 58.3713 256.724 58.3713 257.021 57.3326Z" fill="black"/>
<path d="M264.742 37.8942C264.297 36.5588 262.218 37.1523 262.664 38.4878C263.703 41.7522 264.742 45.0167 265.781 48.2811C265.484 48.7263 265.633 49.1714 265.93 49.4682C266.078 49.765 266.375 50.0618 266.524 50.2101C266.672 50.5069 266.969 50.5069 267.118 50.5069C266.672 52.1391 266.375 53.9197 265.93 55.552C265.781 55.7004 265.633 55.9971 265.633 56.2939C265.633 56.739 265.484 57.1842 265.484 57.6293C265.336 58.8164 267.266 59.1132 267.563 57.9261C269.048 51.5456 270.681 45.1651 272.165 38.7846C272.462 37.4491 270.384 36.8556 270.087 38.191C269.344 41.4555 268.602 44.5715 267.86 47.836C266.821 44.5715 265.781 41.3071 264.742 37.8942Z" fill="black"/>
<path d="M297.109 37.1524C296.218 41.7523 295.179 46.3522 293.694 50.8037C292.952 46.5006 292.21 42.1974 291.616 38.0427C291.467 37.004 289.834 37.1524 289.537 38.0427C287.904 43.978 286.865 49.9134 286.271 55.9972C286.123 57.3326 288.201 57.3326 288.35 55.9972C288.795 51.8424 289.389 47.6876 290.28 43.5329C290.874 47.3909 291.616 51.3972 292.21 55.2552C292.358 56.4423 293.991 56.1455 294.288 55.2552C296.367 49.6166 298 43.6813 299.039 37.7459C299.336 36.4104 297.257 35.8169 297.109 37.1524Z" fill="black"/>
<path d="M302.156 54.3649C302.305 54.0681 302.305 53.7714 302.453 53.3262C302.453 53.1778 302.453 53.0294 302.453 52.8811C303.641 47.836 303.938 42.6426 303.492 37.4491C303.344 36.1136 301.265 36.1136 301.414 37.4491C302.008 42.9393 301.562 48.4295 300.078 53.7714C299.781 55.1068 301.711 55.7004 302.156 54.3649Z" fill="black"/>
<path d="M312.101 55.7004C313.437 55.552 313.437 53.4746 312.101 53.623C310.616 53.7714 309.131 53.7714 307.795 53.7714C307.795 51.8424 307.944 49.9134 307.944 48.1328C307.944 48.1328 308.092 48.1328 308.092 47.9844H308.241C308.389 47.9844 308.389 47.9844 308.538 47.836C308.983 47.6876 309.28 47.5392 309.725 47.5392C309.874 47.5392 310.171 47.5392 310.319 47.3909C310.319 47.3909 310.319 47.3909 310.468 47.3909C310.616 47.3909 310.616 47.3909 310.764 47.3909C311.21 47.3909 311.507 47.3909 311.952 47.3909C312.546 47.3909 312.991 46.9457 312.991 46.3522C312.991 45.7586 312.546 45.3135 311.952 45.3135C310.616 45.3135 309.428 45.4619 308.241 45.907C308.241 43.3845 308.389 40.862 308.389 38.3394H308.538C308.686 38.3394 308.834 38.3394 308.983 38.4878C309.28 38.6362 309.577 38.6362 309.874 38.7846C309.874 38.7846 310.022 38.7846 310.022 38.933C310.022 38.933 310.022 38.933 310.171 38.933C310.319 39.0813 310.468 39.0813 310.616 39.0813C311.061 39.3781 311.804 39.2297 312.101 38.6362C312.398 38.191 312.249 37.4491 311.655 37.1523C310.171 36.4104 308.686 36.1137 307.053 35.9653C306.459 35.9653 306.014 36.4104 306.014 37.004C306.014 37.3007 306.162 37.4491 306.162 37.5975C306.162 37.7459 306.014 37.8943 306.014 38.0427C305.865 43.5329 305.717 49.1715 305.568 54.6617C305.568 55.2552 306.014 55.7004 306.608 55.7004C308.538 55.9971 310.319 55.9971 312.101 55.7004Z" fill="black"/>
<path d="M325.314 37.1523C324.572 41.7522 323.681 46.2037 322.642 50.8036C321.009 46.2037 319.673 41.307 318.633 36.4104C318.336 35.0749 316.406 35.6684 316.555 37.0039C316.555 37.1523 316.555 37.1523 316.555 37.3007C316.258 37.4491 316.11 37.7458 316.11 38.0426C315.516 43.8296 315.07 49.6166 314.922 55.2551C314.922 55.9971 315.813 56.5906 316.555 56.1455C317.297 55.7003 317.594 54.9584 317.446 54.0681C317.446 53.7713 317.297 53.6229 317.149 53.6229C317.297 49.9133 317.594 46.0553 317.891 42.3457C318.93 46.5005 320.266 50.6552 321.9 54.6616C322.196 55.5519 323.681 55.8487 323.978 54.6616C325.314 49.023 326.353 43.236 327.393 37.5974C327.541 36.4104 325.463 35.8168 325.314 37.1523Z" fill="black"/>
<path d="M332.145 46.2038C332.442 45.3135 332.59 44.5715 332.887 43.6812C332.887 44.5715 332.887 45.3135 333.036 46.2038C332.739 46.2038 332.442 46.2038 332.145 46.2038ZM336.005 56.8874C336.153 56.4423 336.153 55.9971 335.856 55.552C335.559 53.0294 335.262 50.6553 335.114 48.1328C335.114 47.9844 335.262 47.9844 335.262 47.836C335.411 47.5392 335.262 47.0941 334.966 46.7973C334.817 43.5328 334.669 40.4168 334.817 37.1523C334.817 35.9653 333.184 35.8169 332.739 36.8556C331.551 40.12 330.66 43.3845 329.769 46.7973C329.472 46.9457 329.176 46.9457 329.027 47.0941C328.582 47.3908 328.285 48.1328 328.582 48.5779C328.73 48.8747 328.879 49.0231 329.176 49.0231C328.879 50.2101 328.582 51.3972 328.285 52.7327C327.988 54.0681 330.066 54.6617 330.363 53.3262C330.66 51.694 331.106 50.0617 331.403 48.4295C331.551 48.4295 331.551 48.4295 331.699 48.4295C331.699 48.4295 331.699 48.4295 331.848 48.4295C332.293 48.4295 332.59 48.4295 333.036 48.4295C333.184 50.6553 333.481 52.881 333.629 55.2552C333.332 55.552 333.332 56.1455 333.778 56.4423C333.778 56.5906 333.778 56.8874 333.778 57.0358C334.075 57.9261 335.708 57.7777 336.005 56.8874Z" fill="black"/>
<path d="M350.85 36.8555C350.108 41.7522 349.217 46.6489 348.178 51.5455C346.99 47.2424 346.248 42.9393 345.951 38.6361C345.951 37.449 344.169 37.1523 343.872 38.3393C343.13 42.049 342.239 45.6102 341.497 49.3198C340.755 45.3134 340.012 41.1586 339.27 37.1523C338.973 35.8168 337.043 36.4104 337.192 37.7458C338.231 43.3844 339.27 49.1714 340.458 54.81C340.606 55.8487 342.239 55.8487 342.536 54.81C343.279 51.5455 344.021 48.1327 344.763 44.8683C345.357 48.5779 346.248 52.2875 347.584 55.8487C347.881 56.739 349.366 56.8874 349.662 55.8487C351.147 49.7649 352.335 43.5328 353.225 37.3007C353.077 36.1136 351.147 35.52 350.85 36.8555Z" fill="black"/>
<path d="M356.342 51.9907C356.342 52.7327 356.639 53.4746 357.529 53.4746C358.123 53.623 358.866 53.1778 358.866 52.4359C358.866 51.9907 358.866 51.694 358.42 51.3972C358.42 51.1004 358.42 50.6553 358.42 50.3585C358.42 49.765 358.42 49.1714 358.42 48.4295C358.42 47.0941 358.42 45.7586 358.42 44.5715C358.42 41.9006 358.42 39.3781 358.42 36.7072C358.42 35.3717 356.342 35.3717 356.342 36.7072C356.342 40.12 356.342 43.5328 356.342 47.0941C356.193 48.7263 356.193 50.3585 356.342 51.9907Z" fill="black"/>
<path d="M369.407 52.881C370.447 49.9134 367.923 46.9457 366.735 44.5715C365.696 42.4941 364.954 39.6748 366.29 37.5975C366.29 37.7459 366.29 37.7459 366.29 37.8942C365.844 39.2297 367.923 39.6748 368.368 38.4878C368.814 37.0039 368.071 35.6685 366.587 35.0749C366.29 34.9266 365.844 35.0749 365.547 35.3717C363.914 36.7072 363.321 38.7845 363.469 40.8619C363.617 43.2361 364.805 45.3134 365.844 47.3908C366.438 48.4295 367.181 49.6166 367.477 50.8037C367.774 51.9907 367.181 53.1778 366.29 53.9197C365.547 54.5133 364.508 55.2552 363.469 54.6617C362.875 54.3649 362.43 53.3262 363.024 52.7327C363.914 51.8424 362.43 50.3585 361.539 51.2488C359.758 53.0294 360.945 55.9971 363.024 56.739C365.696 57.481 368.517 55.2552 369.407 52.881Z" fill="black"/>
<path d="M373.119 26.617C371.041 27.5073 369.111 28.546 367.032 29.4363C366.587 29.7331 366.438 30.475 366.587 30.9202C366.884 31.3653 367.478 31.5137 368.072 31.3653C370.15 30.475 372.08 29.4363 374.158 28.546C374.604 28.2492 374.752 27.5073 374.604 27.0622C374.307 26.4686 373.713 26.3202 373.119 26.617Z" fill="black"/>
<path d="M376.385 54.81C377.721 54.3649 378.463 53.1778 379.057 51.9907C379.8 50.8036 377.87 49.765 377.276 50.952C376.533 52.1391 375.346 53.7713 374.01 52.2875C372.822 50.952 373.416 48.7263 373.564 47.094C373.713 45.3134 374.158 43.5328 374.603 41.7522C374.9 40.8619 375.346 39.9716 375.791 39.2297C376.088 38.7845 376.237 38.4877 376.533 38.191C376.682 38.0426 377.276 37.8942 377.276 37.8942C376.979 39.2297 379.057 39.8232 379.354 38.4877C379.651 37.1523 378.612 35.8168 377.127 35.8168C375.791 35.8168 374.752 37.0039 374.158 38.0426C372.674 40.5651 371.931 43.3844 371.634 46.3521C371.337 49.023 370.744 52.2875 372.97 54.2165C373.861 54.9584 375.197 55.2552 376.385 54.81Z" fill="black"/>
<path d="M383.957 52.5843C383.957 52.4359 383.957 52.4359 383.957 52.4359C383.957 51.9908 383.957 51.694 384.106 51.2488C384.106 50.6553 384.254 49.9134 384.254 49.3199C384.403 47.9844 384.403 46.6489 384.551 45.3135C384.7 42.6426 384.997 39.8233 385.145 37.1524C385.293 35.8169 383.067 35.8169 383.067 37.1524C382.77 41.1587 382.473 45.0167 382.176 49.0231C382.176 50.0618 382.027 50.9521 382.027 51.9908C382.027 52.7327 381.73 53.623 382.324 54.3649C383.215 55.552 385.145 53.7714 383.957 52.5843Z" fill="black"/>
<path d="M11.2837 94.4263C9.3537 94.5747 7.57218 94.5747 5.64219 94.4263C7.42372 89.5296 9.65062 84.7813 12.1745 80.3298C12.6198 79.5879 12.026 78.8459 11.2837 78.6975C9.50216 78.5492 7.57218 78.4008 5.79065 78.4008C4.4545 78.2524 4.4545 80.4782 5.79065 80.4782C7.12679 80.6265 8.31448 80.6265 9.65062 80.7749C7.12679 85.5232 5.04835 90.2715 3.26682 95.3166C2.9699 96.0585 3.7122 96.652 4.30604 96.652C6.68141 96.652 9.05678 96.652 11.4322 96.652C12.6198 96.5037 12.6198 94.4263 11.2837 94.4263Z" fill="black"/>
<path d="M23.755 94.5747C22.1219 95.0199 20.4889 95.3166 18.8558 95.465C19.0043 93.8328 19.0043 92.0522 19.1527 90.42H23.3096C23.9035 90.42 24.3488 89.9748 24.3488 89.3813C24.3488 88.7877 23.9035 88.3426 23.3096 88.3426H19.3012C19.3012 87.4523 19.4496 86.562 19.4496 85.6717C19.4496 84.7814 19.5981 83.8911 19.5981 82.8524C19.5981 82.4072 19.5981 81.9621 19.5981 81.5169C19.5981 81.3685 19.5981 81.2201 19.5981 81.0718C20.0435 81.0718 20.6373 81.3685 21.0827 81.3685C21.6765 81.5169 22.4188 81.3685 23.0127 81.0718C24.2004 80.4782 23.1611 78.6976 21.9735 79.2911C21.5281 79.4395 20.9342 79.1428 20.4889 78.9944C19.895 78.846 19.1527 78.846 18.5589 79.1428C17.8166 79.5879 17.5196 80.3298 17.5196 81.2201C17.3712 82.2588 17.3712 83.1491 17.3712 84.1878C17.3712 85.6717 17.2227 87.0071 17.2227 88.491C16.9258 88.6393 16.7773 88.9361 16.7773 89.2329C16.7773 89.5297 16.9258 89.8264 17.0743 89.9748C16.9258 92.2006 16.9258 94.4263 16.7773 96.5037C16.7773 97.0972 17.2227 97.5424 17.8166 97.5424C20.0435 97.2456 22.2704 96.9489 24.3488 96.3553C25.685 96.3553 25.0911 94.2779 23.755 94.5747Z" fill="black"/>
<path d="M40.6774 81.3685C39.9351 82.2588 39.3413 83.2975 39.7867 84.4846C40.0836 85.6716 41.1228 86.4136 42.1621 87.0071C43.0528 87.6006 44.092 88.0458 44.389 89.2329C44.6859 90.1232 44.389 91.1618 44.092 91.9038C43.6467 92.7941 42.9044 93.8328 42.0136 94.2779C41.7167 94.4263 41.2713 94.4263 40.8259 94.4263C41.4197 93.6844 40.8259 92.3489 39.7867 92.7941C39.3413 92.9425 39.0444 93.0908 38.599 93.2392C38.0052 93.536 37.7082 94.1295 38.0052 94.7231C39.0444 96.9488 42.0136 96.9488 43.7951 95.7618C45.5766 94.4263 46.7643 92.0522 46.6159 89.8264C46.6159 88.7877 46.1705 87.6006 45.4282 86.8587C44.5374 85.9684 43.3497 85.6716 42.459 84.7813C42.0136 84.4846 41.7167 84.0394 41.8651 83.4459C42.0136 83.0007 42.6074 82.5556 42.9044 82.2588C43.6467 81.6653 44.8343 80.775 45.7251 81.3685C46.9128 82.1104 47.952 80.3298 46.7643 79.5879C44.6859 78.104 42.0136 79.7363 40.6774 81.3685Z" fill="black"/>
<path d="M56.414 79.8846C54.1871 79.4395 51.8117 79.4395 49.5848 80.033C48.991 80.1814 48.6941 80.7749 48.8425 81.3685C48.991 81.962 49.5848 82.2588 50.1787 82.1104C51.0694 81.962 51.8117 81.8136 52.7025 81.8136C52.7025 81.8136 52.7025 81.8136 52.7025 81.962C52.4056 86.2651 52.2571 90.4199 51.9602 94.723C51.8117 96.0585 54.0386 96.0585 54.0386 94.723C54.3356 90.4199 54.484 86.2651 54.7809 81.962C55.2263 81.962 55.5232 82.1104 55.9686 82.1104C56.5625 82.2588 57.1563 81.962 57.3048 81.3685C57.3048 80.6266 57.0079 80.033 56.414 79.8846Z" fill="black"/>
<path d="M61.6106 85.3749C61.7591 83.7427 61.7591 82.2588 61.9075 80.6266C63.0952 80.6266 65.3221 80.6266 64.8767 82.2588C64.5798 83.7427 62.9468 84.7814 61.6106 85.3749C61.7591 85.3749 61.7591 85.3749 61.6106 85.3749ZM67.1037 81.8137C66.9552 78.9944 63.8375 78.5492 61.6106 78.5492C61.4622 78.5492 61.4622 78.5492 61.4622 78.5492C60.8683 78.4009 59.9775 78.6976 59.9775 79.4396C59.8291 83.0008 59.5322 86.4136 59.3837 89.9748C59.3837 90.8651 59.2352 91.607 59.2352 92.4974C59.2352 93.2393 59.0868 93.9812 59.6806 94.4263C60.8683 95.6134 62.3529 93.8328 61.3137 92.7941C61.3137 92.4974 61.3137 92.2006 61.3137 91.9038C61.3137 91.3103 61.3137 90.7167 61.4622 90.1232C61.4622 89.0845 61.6106 88.0458 61.6106 87.0071C63.2437 89.9748 64.8767 93.0909 66.5098 96.0586C67.1037 97.2456 69.0336 96.207 68.2913 95.0199C66.8067 92.2006 65.1737 89.3813 63.6891 86.562C65.4706 85.6717 67.1037 83.7427 67.1037 81.8137Z" fill="black"/>
<path d="M72.7469 82.7039C73.6377 82.4071 74.5284 82.7039 75.2707 83.2975C77.0523 84.6329 77.3492 87.1554 77.3492 89.3812C77.3492 91.1618 77.0523 94.1295 74.8254 94.4263C72.5985 94.8714 71.5592 92.0521 71.2623 90.2715C70.9654 88.4909 70.9654 86.5619 71.1138 84.6329C71.1138 84.4845 71.2623 84.3361 71.2623 84.1878C71.2623 83.4458 72.0046 82.8523 72.7469 82.7039ZM75.4192 96.3553C78.5369 95.6133 79.4276 92.2005 79.4276 89.3812C79.4276 86.4135 78.8338 83.1491 76.1615 81.3685C74.8254 80.4782 73.0438 80.3298 71.5592 80.9233C71.1138 80.1814 69.9262 80.033 69.6292 81.0717C68.8869 84.3361 68.59 87.8974 69.3323 91.3102C69.9262 94.1295 72.1531 97.0972 75.4192 96.3553Z" fill="black"/>
<path d="M90.711 93.9812C92.0472 88.491 93.3833 83.1491 94.7195 77.6589C95.0164 76.3235 92.9379 75.7299 92.641 77.0654C91.4533 81.5169 90.4141 86.1168 89.2264 90.5684C87.4449 86.562 86.5541 82.2588 86.5541 77.9557C86.5541 76.7686 84.6241 76.4719 84.4757 77.6589C83.7334 82.8524 82.9911 88.0458 82.2488 93.3877C82.1003 93.9812 82.3972 94.5747 82.9911 94.7231C83.4365 94.8715 84.1788 94.5747 84.3272 93.9812C84.7726 91.3103 85.0695 88.6394 85.5149 86.1168C86.2572 88.9361 87.2964 91.6071 88.781 94.278C89.2264 95.0199 90.5626 94.8715 90.711 93.9812Z" fill="black"/>
<path d="M103.625 76.7686C102.438 80.1814 101.25 83.4459 100.062 86.8587C99.32 83.4459 98.8746 79.8846 98.7262 76.4718C98.7262 75.1364 96.4993 75.1364 96.6477 76.4718C96.7962 80.9233 97.5385 85.3749 98.4293 89.678C98.4293 89.9748 98.5777 90.1232 98.8746 90.2715C98.5777 91.3102 98.1323 92.2005 97.8354 93.2392C97.8354 93.2392 97.8354 93.2392 97.8354 93.3876C97.687 93.8328 97.5385 94.2779 97.39 94.7231C96.9447 96.0585 99.0231 96.5037 99.4685 95.3166C101.547 89.3812 103.625 83.4459 105.704 77.6589C106.001 76.0267 104.071 75.4331 103.625 76.7686Z" fill="black"/>
<path d="M126.934 78.9944C127.825 79.1427 128.716 79.4395 129.606 79.5879C129.903 79.5879 130.349 79.7363 130.497 80.0331C130.646 80.3298 130.349 80.9234 130.2 81.2201C129.309 82.704 127.973 83.5943 126.34 84.0394C126.637 82.4072 126.786 80.6266 126.934 78.9944ZM128.419 85.5233C130.349 84.633 131.982 83.1491 132.576 81.2201C133.763 77.8073 129.309 77.3621 127.083 76.7686C126.637 76.6202 126.34 76.7686 126.192 77.0654C125.598 77.0654 125.004 77.3621 125.004 78.1041C124.41 83.5943 123.965 89.0845 123.668 94.4263C123.668 95.7618 125.746 95.7618 125.746 94.4263C125.895 91.607 126.043 88.9361 126.34 86.1168C128.567 89.2329 130.646 92.3489 132.873 95.3166C133.615 96.3553 135.545 95.3166 134.654 94.2779C132.576 91.4586 130.497 88.491 128.419 85.5233Z" fill="black"/>
<path d="M142.374 91.1619C142.226 91.9038 142.078 92.6457 141.781 93.2393C141.632 93.6844 141.484 94.8715 141.038 95.1682C139.999 96.0586 139.405 93.2393 139.257 92.6457C138.96 91.1619 138.811 89.678 138.663 88.1942C138.514 85.5233 138.811 83.0007 139.554 80.4782C139.702 80.4782 139.999 80.3298 140.148 80.1814C140.593 79.8847 141.187 80.1814 141.484 80.4782C141.929 80.9234 142.226 81.6653 142.374 82.4072C142.671 83.8911 142.82 85.2265 142.968 86.7103C142.82 88.3426 142.671 89.8264 142.374 91.1619ZM142.671 78.846C141.781 78.1041 140.741 77.9557 139.851 78.2524C139.405 77.6589 138.218 77.5105 137.921 78.5492C136.881 81.6653 136.436 84.9297 136.584 88.3426C136.584 89.9748 136.881 91.607 137.178 93.2393C137.475 94.5747 137.772 96.0586 138.96 96.9489C139.999 97.6908 141.484 97.8392 142.523 96.8005C143.414 95.7618 143.859 94.1296 144.156 92.7941C144.898 89.678 145.047 86.4136 144.601 83.2975C144.304 81.6653 143.859 79.8847 142.671 78.846Z" fill="black"/>
<path d="M145.936 72.0203C145.194 72.3171 144.452 72.6139 143.709 72.7622C143.264 72.9106 142.967 72.9106 142.522 73.059C142.373 73.059 142.373 73.059 142.225 73.059C142.225 73.059 141.78 73.2074 142.076 73.059C141.928 73.059 141.631 73.059 141.483 73.059C140.889 73.059 140.443 73.5042 140.443 74.0977C140.443 74.6912 140.889 75.1364 141.483 75.1364C143.264 74.988 144.897 74.5428 146.53 73.9493C146.827 73.8009 146.976 73.6525 147.124 73.5042C147.273 73.2074 147.273 72.9106 147.273 72.7622C147.124 72.3171 146.53 71.8719 145.936 72.0203Z" fill="black"/>
<path d="M158.853 79.5879C158.556 83.1491 158.408 86.7104 158.408 90.2716C156.478 87.3039 155.29 84.0394 154.845 80.6266C154.696 79.5879 153.063 79.1428 152.766 80.3298C152.024 83.4459 151.133 86.562 150.243 89.6781C149.946 86.2652 149.649 82.704 149.649 79.2911C149.649 77.9557 147.57 77.9557 147.57 79.2911C147.719 84.4846 148.016 89.5297 148.758 94.5747C148.758 95.0199 149.352 95.3167 149.797 95.3167C150.243 95.3167 150.688 95.0199 150.836 94.5747C152.024 91.4587 152.915 88.3426 153.806 85.0781C154.845 88.3426 156.478 91.4587 158.853 94.1296C159.447 94.8715 160.635 94.278 160.635 93.3877C160.486 88.7877 160.635 84.1878 161.08 79.5879C161.08 78.2525 158.853 78.2525 158.853 79.5879Z" fill="black"/>
<path d="M163.011 79.2911C163.308 83.891 163.456 88.4909 163.753 93.0908C163.902 94.4263 165.98 94.4263 165.832 93.0908C165.535 88.4909 165.238 83.891 165.089 79.2911C165.089 77.9556 162.863 77.9556 163.011 79.2911Z" fill="black"/>
<path d="M176.667 93.0909C174.886 93.3877 172.956 93.536 171.174 93.536C171.026 91.4587 170.877 89.3813 170.877 87.3039C171.026 87.3039 171.026 87.3039 171.174 87.3039C171.471 87.3039 171.768 87.3039 172.214 87.3039C172.362 87.3039 172.511 87.3039 172.659 87.3039C172.659 87.3039 172.659 87.3039 172.807 87.3039C172.956 87.3039 172.956 87.3039 173.104 87.3039C173.401 87.3039 173.698 87.4523 173.995 87.4523C174.589 87.6007 175.183 87.3039 175.331 86.7104C175.48 86.1168 175.183 85.5233 174.589 85.3749C173.401 85.0781 172.214 84.9298 171.026 85.0781C171.026 84.1878 171.026 83.1491 171.026 82.2588C171.026 81.6653 171.026 80.9234 171.174 80.3298C171.174 80.0331 171.174 79.2912 171.174 78.6976C171.323 78.6976 171.471 78.846 171.62 78.846C172.065 78.9944 172.511 79.1428 172.956 79.2912C173.847 79.5879 174.737 79.8847 175.628 80.3298C176.816 80.775 177.41 78.846 176.222 78.2525C175.183 77.8073 174.292 77.5106 173.253 77.2138C172.362 76.917 171.323 76.4719 170.432 76.4719C169.393 76.6202 169.244 77.5105 169.096 78.2525C168.947 79.2912 168.947 80.4782 168.799 81.5169C168.502 85.8201 168.651 90.1232 169.096 94.4263C169.096 95.0199 169.541 95.465 170.135 95.465C172.511 95.465 174.886 95.3167 177.113 95.0199C178.597 94.8715 178.004 92.7941 176.667 93.0909Z" fill="black"/>
<path d="M187.061 78.5492C186.913 77.3622 186.022 76.6202 184.834 76.4719C183.647 76.4719 182.607 77.2138 182.014 78.2525C180.826 80.1815 179.638 82.8524 180.826 85.0781C181.271 86.1168 182.162 86.7104 183.201 87.3039C183.647 87.6007 184.092 87.7491 184.389 88.1942C184.834 88.6394 184.686 89.2329 184.686 89.6781C184.686 90.42 184.686 91.1619 184.686 91.9038C184.686 92.4973 184.834 93.0909 184.686 93.6844C184.686 93.6844 184.686 93.6844 184.537 93.6844C184.389 93.6844 184.241 93.6844 184.092 93.536C183.795 93.536 183.647 93.3877 183.35 93.3877C183.201 93.2393 182.311 92.7941 182.607 92.4974C183.498 91.4587 182.014 89.9748 181.123 91.0135C180.381 91.9038 180.232 93.2393 180.974 94.278C181.717 95.3167 183.053 95.7618 184.241 95.9102C185.725 96.0586 186.616 95.465 186.764 93.9812C186.913 92.4974 186.764 91.0135 186.764 89.5297C186.764 88.1942 186.319 87.3039 185.28 86.4136C184.537 85.8201 183.201 85.3749 182.756 84.4846C182.162 83.4459 182.756 81.9621 183.201 80.9234C183.498 80.3299 183.647 79.8847 184.092 79.4395C184.241 79.2912 184.389 78.9944 184.686 78.846C184.983 78.846 184.983 78.9944 184.983 78.846C184.983 79.8847 187.21 79.8847 187.061 78.5492Z" fill="black"/>
<path d="M189.584 71.5751C190.029 71.4267 190.474 70.8332 190.326 70.2397C190.177 69.7945 189.584 69.3493 188.99 69.4977C186.763 70.2397 184.684 71.2783 182.754 72.7622C182.309 73.059 182.012 73.6525 182.309 74.246C182.606 74.6912 183.2 74.988 183.794 74.6912C184.684 74.0976 185.575 73.5041 186.614 72.9106C187.06 72.6138 187.505 72.4654 188.099 72.1687C188.099 72.1687 188.544 72.0203 188.396 72.0203C188.544 72.0203 188.693 71.8719 188.841 71.8719C189.138 71.7235 189.435 71.7235 189.584 71.5751Z" fill="black"/>
<path d="M198.789 76.7686C198.343 80.4782 197.898 84.1878 197.453 87.8974C196.117 84.3362 194.929 80.7749 193.89 77.0653C193.593 75.8783 191.96 76.175 191.811 77.3621C191.217 83.1491 190.475 88.9361 189.584 94.7231C189.436 96.0585 191.366 96.6521 191.663 95.3166C192.405 91.0135 192.85 86.7103 193.444 82.5556C194.632 85.9684 195.671 89.3812 197.007 92.7941C197.453 93.9811 198.937 93.6844 199.086 92.4973C199.68 87.3039 200.422 82.1104 201.016 76.917C201.016 75.4331 198.937 75.4331 198.789 76.7686Z" fill="black"/>
<path d="M204.283 77.0654C203.986 82.704 203.838 88.491 203.541 94.1296C203.541 95.465 205.619 95.465 205.619 94.1296C205.916 88.491 206.065 82.704 206.362 77.0654C206.362 75.7299 204.283 75.7299 204.283 77.0654Z" fill="black"/>
<path d="M217.643 91.4586L217.495 91.3102C217.198 91.0135 217.049 90.7167 216.752 90.2716C216.307 89.678 215.862 89.0845 215.416 88.4909C214.971 87.8974 214.377 87.1555 213.932 86.562C213.783 86.2652 213.635 86.1168 213.338 85.82C213.189 85.5233 212.744 85.2265 212.595 84.7813C212.447 84.4846 212.447 84.633 212.744 84.1878C212.892 83.891 213.041 83.7427 213.338 83.4459C213.783 82.704 214.229 82.1104 214.674 81.3685C215.565 80.0331 216.455 78.846 217.346 77.5105C218.089 76.3234 216.307 75.2848 215.565 76.4718C214.377 78.1041 213.338 79.8847 212.15 81.5169C212.15 80.1814 212.299 78.846 212.299 77.5105C212.299 76.1751 210.22 76.1751 210.22 77.5105C210.22 82.5556 210.072 87.4523 209.626 92.4973C209.478 93.8328 211.705 93.8328 211.705 92.4973C211.853 90.8651 211.853 89.0845 212.002 87.4523C213.338 89.2329 214.525 91.0135 215.862 92.6457C216.307 93.3876 217.049 94.2779 217.94 93.8328C218.831 93.536 218.979 92.4973 218.385 91.7554C218.237 91.4586 217.94 91.3102 217.643 91.4586Z" fill="black"/>
<path d="M226.995 88.7877C226.55 89.8264 225.065 92.9424 223.432 91.4586C222.244 90.2715 222.541 87.8974 222.541 86.4135C222.541 84.0394 222.838 81.5169 223.284 79.1427C225.362 78.4008 226.847 80.3298 227.292 82.1104C228.034 84.3362 227.737 86.7103 226.995 88.7877ZM223.284 77.0653C222.69 76.6202 221.799 76.7686 221.502 77.5105C220.463 80.6266 220.314 83.891 220.314 87.1555C220.314 89.3812 220.463 92.2005 222.541 93.536C225.065 95.0198 227.441 92.4973 228.48 90.4199C229.667 87.749 230.113 84.6329 229.371 81.8136C228.777 79.1427 226.253 76.3234 223.284 77.0653Z" fill="black"/>
<path d="M229.224 70.5365C227.739 70.8332 226.255 71.4268 224.918 72.1687C224.473 72.4655 224.176 73.059 224.473 73.6525C224.77 74.0977 225.364 74.3945 225.958 74.0977C226.255 73.9493 226.551 73.8009 226.848 73.6525C226.997 73.5042 227.145 73.5042 227.294 73.3558C227.294 73.3558 227.442 73.3558 227.442 73.2074C228.036 72.9106 228.778 72.7622 229.521 72.6138C230.115 72.4655 230.411 71.8719 230.263 71.2784C230.263 70.6849 229.818 70.3881 229.224 70.5365Z" fill="black"/>
<path d="M245.405 76.3234C244.514 81.6653 243.475 86.8587 242.287 92.2006C240.654 87.8974 240.357 83.1491 240.06 78.5492C240.06 77.5105 238.13 77.0654 237.982 78.2524C237.388 81.8137 236.794 85.5233 236.2 89.0845C235.458 85.2265 234.716 81.3685 233.973 77.5105C233.676 76.1751 231.746 76.7686 231.895 78.1041C232.934 83.891 234.122 89.678 235.161 95.465C235.309 96.5037 237.091 96.5037 237.239 95.465C237.685 92.4973 238.13 89.678 238.724 86.7103C239.318 89.9748 240.06 93.0909 241.693 96.0585C242.139 96.8005 243.475 96.6521 243.623 95.7618C245.108 89.5296 246.444 83.2975 247.335 76.917C247.78 75.5815 245.702 74.988 245.405 76.3234Z" fill="black"/>
<path d="M260.445 74.9975C260.297 81.378 260.148 87.7586 260 94.1391C260 95.4745 261.93 95.4745 262.078 94.1391C262.078 93.8423 262.078 93.5455 262.227 93.1004C262.227 92.952 262.227 92.8036 262.227 92.6552C262.375 86.7199 262.524 80.7845 262.672 74.8491C262.672 73.5137 260.445 73.5137 260.445 74.9975Z" fill="black"/>
<path d="M284.348 87.3134C284.051 88.6489 283.754 90.2811 282.863 91.3198C281.972 92.3584 281.379 91.023 281.082 90.2811C280.785 88.9456 280.785 87.3134 280.785 85.9779C280.785 83.0103 281.082 80.0426 281.676 77.0749C282.269 77.0749 283.012 76.6297 282.863 75.7394C282.863 76.0362 282.863 75.7394 283.16 75.8878C283.309 76.0362 283.457 76.333 283.606 76.4813C283.902 77.0749 284.051 77.8168 284.348 78.5587C284.793 80.0426 284.942 81.5264 284.942 83.0103C284.942 84.3457 284.793 85.8296 284.348 87.3134ZM283.457 73.662C282.566 73.3653 281.527 73.8104 281.082 74.5524C280.488 74.404 279.894 74.5524 279.746 75.2943C278.855 79.0039 278.558 82.7135 278.558 86.4231C278.558 88.7972 278.409 93.1004 281.379 93.6939C284.645 94.5842 285.832 89.6875 286.426 87.3134C287.169 84.0489 287.02 80.4877 286.129 77.2233C285.684 75.8878 285.09 74.1072 283.457 73.662Z" fill="black"/>
<path d="M291.92 79.449C290.733 77.9652 291.327 75.5911 292.96 74.5524C294.147 73.9588 293.108 72.0298 291.92 72.7718C290.287 73.6621 289.397 75.4427 289.248 77.2233C289.248 78.1136 289.397 79.0039 289.693 79.7458C290.139 80.7845 290.881 81.378 291.772 81.9716C293.405 83.4554 293.85 85.8296 292.96 87.9069C292.514 88.9456 291.772 89.8359 290.881 90.5779C290.733 90.5779 290.287 90.8746 290.584 91.023C290.436 91.023 290.139 90.4295 290.139 90.2811C289.842 89.6876 289.693 89.094 289.545 88.5005C289.397 87.165 287.318 87.7586 287.467 89.094C287.615 90.2811 288.209 91.9133 289.248 92.6552C290.287 93.5455 291.475 92.8036 292.366 92.0617C294.296 90.4295 295.483 88.0553 295.483 85.5328C295.483 84.3457 295.187 83.0103 294.444 81.9716C293.702 80.9329 292.663 80.3393 291.92 79.449Z" fill="black"/>
<path d="M303.203 85.5328C303.055 86.5715 302.758 88.2037 301.867 88.9456C299.492 90.8746 299.789 85.5328 299.789 84.6425C299.937 81.8232 300.234 79.1523 300.976 76.4814C301.125 76.333 301.273 76.1846 301.273 76.0362C301.273 75.8878 301.867 76.1846 301.867 76.333C302.164 76.7781 302.461 77.2233 302.61 77.8168C303.055 79.1523 303.352 80.3394 303.5 81.6748C303.5 82.8619 303.5 84.3457 303.203 85.5328ZM302.461 74.1072C301.422 73.6621 300.234 73.9588 299.492 74.7008C299.195 74.8491 299.046 74.9975 298.898 75.4427C298.156 78.5588 297.71 81.6748 297.562 84.9393C297.562 87.165 297.413 90.7262 300.234 91.4682C303.203 92.0617 304.688 88.9456 305.282 86.5715C305.876 83.6038 305.727 80.6361 304.836 77.8168C304.391 76.333 303.797 74.7008 302.461 74.1072Z" fill="black"/>
<path d="M304.985 68.4686C303.204 68.617 301.571 69.3589 300.234 70.546C299.789 70.8428 299.789 71.7331 300.234 72.0298C300.68 72.475 301.274 72.475 301.719 72.0298L301.867 71.8814L302.016 71.7331L302.164 71.5847C302.461 71.4363 302.758 71.2879 303.055 71.1395C303.204 71.1395 303.204 71.1395 303.352 70.9911C303.501 70.9911 303.649 70.8428 303.797 70.8428C303.946 70.8428 304.094 70.6944 304.243 70.6944C304.243 70.6944 304.243 70.6944 304.391 70.6944H304.54C304.837 70.6944 305.134 70.546 305.282 70.3976C305.431 70.2492 305.579 69.9525 305.579 69.6557C306.024 69.0622 305.579 68.4686 304.985 68.4686Z" fill="black"/>
<path d="M315.378 86.8683C314.933 88.7972 313.003 89.6876 311.073 89.8359C311.073 89.3908 310.924 89.2424 310.627 88.9456C310.627 87.3134 310.776 85.6812 310.924 84.1973C311.073 84.7909 311.815 85.236 312.409 84.7909L312.557 84.6425C313.151 84.049 314.042 84.1973 314.636 84.6425C315.378 85.0876 315.526 85.9779 315.378 86.8683ZM312.706 75.7394C313.448 76.0362 313.745 77.2233 313.745 77.9652C313.745 79.7458 312.854 81.6748 311.518 82.8619C311.37 83.0103 311.221 83.1587 311.073 83.307C310.924 83.4554 310.924 83.4554 310.924 83.6038C311.073 81.2297 311.221 79.0039 311.518 76.6297V76.4814C311.518 76.333 311.518 76.333 311.518 76.1846C311.518 75.5911 312.409 75.5911 312.706 75.7394ZM315.378 82.5651C315.081 82.4167 314.933 82.4167 314.636 82.2683C315.823 80.3393 316.417 78.1136 315.526 76.0362C314.933 74.5524 313.893 73.5137 312.26 73.5137C310.776 73.5137 309.588 74.5524 309.44 76.0362V76.1846C309.44 76.333 309.44 76.333 309.44 76.4814C308.994 81.2297 308.697 85.978 308.549 90.7262C308.549 91.3198 308.846 91.6166 309.291 91.7649C309.44 92.0617 309.737 92.2101 310.182 92.2101C313.596 92.2101 317.605 90.4295 317.753 86.4231C317.605 84.6425 316.714 83.1587 315.378 82.5651Z" fill="black"/>
<path d="M331.684 90.2886C331.536 84.9468 331.684 79.605 331.981 74.2631C334.802 76.0438 335.544 79.7534 335.396 82.8694C335.247 85.5403 334.356 89.2499 331.684 90.2886ZM332.129 71.889C331.833 70.9987 330.051 71.1471 330.051 72.3341C330.051 72.4825 330.051 72.6309 330.051 72.7793C329.606 78.7147 329.457 84.65 329.754 90.5854H329.606C328.269 90.437 328.269 92.5144 329.606 92.6628C331.981 92.9596 334.059 91.6241 335.544 89.8435C337.029 87.9145 337.623 85.392 337.623 83.0178C337.771 78.8631 336.435 73.818 332.129 71.889Z" fill="black"/>
<path d="M347.57 86.579C347.274 87.6177 346.828 88.9532 346.086 89.6951C345.195 90.437 343.859 89.6951 343.117 89.1016C341.187 87.4694 340.89 84.9468 340.741 82.5727C340.741 80.1985 340.89 77.8244 341.78 75.747C342.374 76.0438 343.117 75.8954 343.414 75.1535H343.71C344.007 75.1535 344.156 75.1535 344.453 75.3018C345.047 75.4502 345.64 75.747 346.086 76.1921C346.977 76.9341 347.422 78.1211 347.867 79.1598C348.313 81.534 348.313 84.2049 347.57 86.579ZM345.195 73.3729C344.304 73.0761 342.968 72.9277 342.226 73.3729C341.78 72.9277 340.89 72.7793 340.444 73.5212C338.663 76.4889 338.366 80.0501 338.663 83.463C338.811 86.579 339.85 90.1403 342.968 91.6241C344.453 92.366 346.234 92.5144 347.422 91.3273C348.61 90.2887 349.204 88.508 349.649 87.1726C350.54 83.9081 350.688 80.0501 349.204 77.0825C348.313 75.3018 346.977 73.9664 345.195 73.3729Z" fill="black"/>
<path d="M356.922 77.2308C356.773 78.863 355.437 80.1985 354.249 81.3856C354.249 79.1598 354.249 76.934 354.249 74.5599C356.031 73.818 357.219 75.5986 356.922 77.2308ZM360.039 89.5467C359.891 89.3983 359.594 89.1016 359.594 88.9532C359.445 88.6564 359.148 88.3596 359 88.0629C358.555 87.4693 358.109 86.7274 357.664 86.1339C356.922 85.0952 356.179 84.0565 355.437 82.8694C357.367 81.0888 359.297 78.863 358.852 76.0437C358.555 73.6696 356.031 71.4438 353.507 72.4825C353.359 72.4825 353.21 72.6309 353.062 72.7793C352.468 72.7793 351.874 73.076 351.874 73.818C351.874 78.1211 351.874 82.4243 351.874 86.579C351.874 87.6177 351.874 88.6564 351.874 89.6951C351.874 90.437 351.725 91.4757 352.319 92.0692C353.655 93.2563 355.14 91.3273 353.952 90.2886V90.1402C353.952 89.6951 353.952 89.3983 353.952 88.9532C353.952 88.2112 353.952 87.6177 353.952 86.8758C353.952 86.1339 353.952 85.5403 353.952 84.7984C355.14 86.579 356.179 88.2112 357.367 89.9919C357.812 90.7338 358.406 92.0692 359.594 92.0692C360.782 92.0692 361.078 90.7338 360.336 89.9919C360.485 89.6951 360.336 89.5467 360.039 89.5467Z" fill="black"/>
<path d="M367.76 88.8048C367.463 89.3983 367.018 89.9919 366.572 90.437C366.275 90.7338 366.424 90.8822 366.127 90.5854C365.83 90.437 365.83 89.8435 365.681 89.5467C365.088 88.0629 364.642 86.4306 364.494 84.7984C363.9 81.534 363.9 78.1211 364.642 74.8567C364.791 74.8567 364.791 74.8567 364.939 74.8567C366.275 74.4115 367.611 75.1534 368.354 76.1921C369.244 77.5276 369.393 79.1598 369.393 80.6437C369.393 83.463 369.096 86.4306 367.76 88.8048ZM364.197 72.7793C363.9 72.9277 363.603 73.0761 363.603 73.3728C363.158 73.3728 362.712 73.5212 362.564 74.1148C361.821 77.5276 361.821 80.9404 362.267 84.5017C362.564 86.2823 362.861 87.9145 363.455 89.5467C363.9 90.7338 364.345 92.5144 365.83 92.8112C367.315 93.2563 368.354 91.7725 369.096 90.7338C369.838 89.5467 370.432 88.3596 370.878 87.0242C371.62 84.2049 371.917 80.7921 371.323 77.9728C370.432 74.8567 367.611 71.7406 364.197 72.7793Z" fill="black"/>
<path d="M378.302 79.7534C377.559 79.1598 376.817 78.7147 376.223 77.9728C375.629 77.3792 375.481 76.6373 376.223 75.8954C376.817 75.3018 377.559 75.1535 378.302 75.5986C379.489 76.3405 380.529 74.5599 379.341 73.818C377.559 72.6309 375.036 73.5212 374.145 75.4502C372.957 77.676 374.739 79.605 376.52 80.9404C378.302 82.2759 380.232 84.2049 379.786 86.8758C379.638 87.9145 378.896 88.9532 378.005 89.3983C377.559 89.6951 376.966 89.8435 376.52 89.6951C376.223 89.6951 375.481 89.3984 375.629 88.9532C375.926 87.6177 373.848 87.0242 373.551 88.3597C373.106 90.437 375.184 91.9209 377.263 91.7725C379.341 91.4757 380.974 89.9919 381.716 88.2113C382.459 86.2823 382.013 83.9081 380.826 82.2759C379.935 81.2372 379.193 80.4953 378.302 79.7534Z" fill="black"/>
<path d="M391.958 89.5467C390.177 89.9919 388.247 90.2886 386.465 90.5854C386.614 88.508 386.614 86.4306 386.614 84.3533C387.653 84.2049 388.692 84.2049 389.731 84.0565C390.028 84.0565 390.325 83.9081 390.474 83.7597C390.622 83.6114 390.771 83.3146 390.771 83.0178C390.771 82.4243 390.325 81.8307 389.731 81.9791C388.692 82.1275 387.801 82.1275 386.762 82.2759C386.911 79.4566 386.911 76.6373 387.059 73.818C387.059 72.4825 384.981 72.4825 384.981 73.818C384.832 76.7857 384.832 79.605 384.684 82.5727C384.535 82.5727 384.387 82.721 384.238 82.8694C384.09 83.0178 383.941 83.3146 383.941 83.6114C383.941 84.0565 384.238 84.5017 384.535 84.65C384.387 87.0242 384.387 89.5467 384.238 91.9209C384.238 92.5144 384.684 92.9596 385.278 92.9596C387.653 92.8112 390.177 92.366 392.552 91.7725C393.888 91.1789 393.294 89.1016 391.958 89.5467Z" fill="black"/>
<path d="M394.037 72.3342C393.889 72.3342 393.889 72.3342 394.037 72.3342V72.3342ZM401.163 70.8503C400.272 73.9664 399.53 77.0825 398.788 80.1985C398.788 80.0501 398.788 79.9017 398.639 79.7534C398.491 79.0114 398.342 78.4179 398.045 77.676C397.6 76.1921 397.155 74.8567 396.561 73.3729C396.264 72.6309 395.967 71.889 395.67 71.2955C395.373 70.7019 394.779 70.2568 394.037 70.2568C392.552 70.4052 392.701 72.6309 394.037 72.7793C394.185 73.0761 394.185 73.3728 394.334 73.5212C394.631 74.1148 394.779 74.7083 395.076 75.4502C395.522 76.6373 395.967 77.9728 396.264 79.3082C396.412 79.9018 396.561 80.4953 396.709 81.0888C396.858 81.6824 396.858 82.4243 397.303 83.0178C397.452 83.3146 397.749 83.463 398.045 83.463C397.749 85.392 397.303 87.321 397.155 89.25C397.155 89.5467 397.006 89.8435 397.006 90.1403C396.858 91.4757 398.788 92.0693 399.085 90.7338C399.975 84.2049 401.312 77.676 403.093 71.2955C403.539 70.1084 401.609 69.5149 401.163 70.8503Z" fill="black"/>
<path d="M410.072 72.1858C407.697 72.7793 406.657 75.5986 406.063 77.676C405.173 80.0501 404.727 82.7211 404.876 85.2436C404.876 87.321 405.173 89.9919 407.251 91.179C408.142 91.6241 409.478 91.7725 410.369 91.179C410.814 90.8822 411.26 90.5854 411.408 89.9919C411.557 89.6951 411.557 89.5467 411.705 89.25C411.705 89.1016 411.853 89.1016 411.853 88.9532C412.447 88.8048 412.744 88.2113 412.596 87.6177C412.447 87.0242 411.853 86.8758 411.26 86.8758C410.369 87.0242 409.923 87.7661 409.627 88.508C409.33 89.1016 408.884 89.3983 408.142 89.1016C406.509 88.3597 406.657 85.0952 406.806 83.7597C406.954 81.534 407.4 79.1598 408.29 77.0825C408.736 76.1921 409.181 75.0051 409.923 74.4115C410.22 74.2631 410.517 73.9664 410.814 74.1148C410.963 74.1148 411.26 74.4115 411.26 74.5599C410.517 75.747 412.447 76.7857 413.041 75.5986C414.229 73.818 412.002 71.7406 410.072 72.1858Z" fill="black"/>
<path d="M422.543 79.9018C422.691 77.0825 422.988 74.2632 423.285 71.4439C423.433 70.1084 421.355 70.1084 421.207 71.4439C420.91 74.2632 420.761 77.0825 420.464 79.9018C419.722 79.9018 419.128 79.9018 418.386 79.9018C418.386 77.2308 418.534 74.5599 418.534 71.889C418.534 70.5536 416.456 70.5536 416.456 71.889C416.456 74.5599 416.307 77.2308 416.307 79.9018C416.159 79.9018 415.862 79.9018 415.713 79.9018C415.268 79.9018 414.823 80.1985 414.674 80.6437C414.526 81.0888 414.823 81.534 415.12 81.8308C415.417 81.9791 415.565 82.1275 415.862 82.2759C416.01 82.4243 416.159 82.4243 416.307 82.4243C416.307 84.6501 416.159 86.7274 416.159 88.9532C416.159 90.2887 418.237 90.2887 418.237 88.9532C418.237 86.5791 418.386 84.3533 418.386 81.9791C418.98 81.9791 419.722 81.9791 420.316 81.9791C420.167 83.6114 420.019 85.2436 419.87 86.8758C419.722 87.0242 419.722 87.1726 419.722 87.4694C419.722 87.7661 419.722 88.2113 419.722 88.508C419.722 89.8435 421.652 89.8435 421.8 88.508C421.949 86.2823 422.097 84.2049 422.394 81.9791H422.543C423.137 81.9791 423.582 81.534 423.582 80.9404C423.582 80.4953 423.137 79.9018 422.543 79.9018Z" fill="black"/>
<path d="M432.787 88.3597C432.342 87.9146 431.748 87.6178 431.005 87.6178C430.709 87.6178 430.263 87.6178 429.966 87.7662C429.818 87.7662 429.818 87.7662 429.669 87.7662C429.521 87.7662 429.521 87.7662 429.372 87.9146C429.224 87.9146 429.224 88.063 429.075 88.2113C428.779 88.3597 428.63 88.6565 428.482 88.8049C428.333 89.1016 428.185 89.5468 428.185 89.8436C428.036 90.7339 428.63 91.9209 429.669 92.0693C429.818 92.0693 429.818 92.0693 429.966 92.0693C430.56 92.3661 431.302 92.3661 431.896 91.9209C432.49 91.6242 432.935 91.0306 433.084 90.4371C433.232 89.9919 433.232 89.6952 433.084 89.25C433.084 88.9533 432.935 88.6565 432.787 88.3597Z" fill="black"/>
</svg>
