<svg width="573" height="187" viewBox="0 0 573 187" fill="none" xmlns="http://www.w3.org/2000/svg">
<g clip-path="url(#clip0_6_643)">
<path d="M10.0497 36.3314C8.7668 38.2549 6.84238 39.5372 4.70414 40.392C4.27649 31.2023 3.63501 22.0126 2.99354 12.8229C8.98062 14.1052 10.4774 22.2263 11.1189 27.3554C11.5465 30.3474 11.7603 33.7669 10.0497 36.3314ZM12.4018 38.2549C14.7539 34.8354 14.5401 30.7749 14.1124 26.928C13.0433 19.6617 10.6912 10.0446 1.71059 9.40344C0.641473 9.40344 0.213824 10.2583 0.213824 11.1132C0.213824 11.3269 0 11.7543 0 12.1817C0.641473 22.2263 1.28295 32.0572 1.92442 42.1017C1.49677 43.1703 2.35207 44.4526 3.63501 44.0252C6.84238 42.7429 10.2636 41.2469 12.4018 38.2549Z" fill="black"/>
<path d="M20.0987 15.6011C21.1678 15.1737 21.8093 13.464 20.5263 12.8228C20.0987 12.6091 20.0987 12.1817 20.3125 11.7543C20.5263 11.1131 21.3816 11.1131 22.0231 11.3268C23.5199 11.7543 24.1614 13.2503 24.589 14.7463C25.4443 17.952 25.8719 21.3714 26.0858 24.7908C26.2996 27.9965 26.2996 31.416 26.2996 34.6217C26.2996 36.3314 26.0858 39.1097 24.3752 40.1783C21.3816 37.4 20.954 32.4845 20.5263 28.8514C20.0987 24.3634 19.8849 19.8754 20.0987 15.6011ZM26.2996 42.5291C28.224 41.2468 28.8655 38.896 29.0793 36.7588C29.507 33.7668 29.2931 30.7748 29.2931 27.9965C29.2931 24.7908 28.8655 21.3714 28.4378 18.1657C28.0102 15.3874 27.5825 12.1817 25.6581 10.0445C23.9475 8.12112 20.5263 7.26626 18.3881 9.4034C17.319 10.472 17.1051 11.7543 17.319 13.0365V13.2503C16.6775 20.0891 17.1051 26.7143 18.1743 33.3394C18.8157 36.5451 21.3816 45.9485 26.2996 42.5291Z" fill="black"/>
<path d="M36.7766 38.6823C36.5628 33.7668 36.5628 29.0651 36.7766 24.1497C38.0596 28.8514 39.984 33.5531 42.5499 37.8274C43.1914 38.896 45.1158 38.896 45.3296 37.4C46.6126 30.1337 48.7508 22.8674 51.7444 16.0286C52.172 20.944 52.5996 25.8594 53.0273 30.9886C53.2411 32.6983 53.2411 34.408 53.4549 36.1177C53.4549 37.1863 53.4549 38.896 54.3102 39.7508C56.2347 41.888 59.0144 38.0411 56.6623 36.9726V36.7588C56.6623 36.1177 56.6623 35.4766 56.4485 34.8354C56.4485 33.7668 56.2347 32.4846 56.2347 31.416C56.0208 29.0651 55.807 26.7143 55.5932 24.3634C55.1655 19.6617 54.7379 14.96 54.5241 10.2583C54.3102 8.97599 52.3858 8.12113 51.7444 9.40342C48.1093 16.8834 45.3296 24.5771 43.619 32.6983C40.1978 25.8594 38.4872 18.5931 38.2734 10.8994C38.2734 8.97599 35.4937 8.97599 35.2799 10.8994C34.2108 20.0891 33.7831 29.2788 34.2108 38.6823C33.7831 40.6057 36.7766 40.6057 36.7766 38.6823Z" fill="black"/>
<path d="M65.6448 38.6822C65.431 29.2788 65.2171 19.6617 65.0033 10.2582C65.0033 8.33482 62.0098 8.33482 62.0098 10.2582C62.2236 19.8754 62.4374 29.2788 62.6512 38.6822C62.6512 40.6057 65.6448 40.6057 65.6448 38.6822Z" fill="black"/>
<path d="M85.5308 37.8274C85.9584 28.8514 87.0276 20.0892 88.3105 11.1132C88.5243 9.18973 85.7446 8.33488 85.317 10.2583C84.034 17.952 83.1787 25.6457 82.7511 33.3394C78.0469 26.0732 75.481 17.7383 72.9152 9.61716C72.9152 9.40345 72.7013 9.18973 72.4875 8.97602C72.4875 8.7623 72.4875 8.7623 72.4875 8.54859C72.4875 6.62516 69.494 6.62516 69.494 8.54859C69.2801 18.8069 69.2801 28.8514 69.7078 39.1097C69.7078 40.8194 72.4875 41.2469 72.7013 39.5372C73.5566 33.7669 73.9843 28.2103 73.9843 22.44C76.1225 28.2103 78.9022 33.9806 82.9649 38.896C83.8202 39.9646 85.5308 39.1097 85.5308 37.8274Z" fill="black"/>
<path d="M95.5796 37.1862C95.1519 28.424 95.3658 19.448 96.2211 10.6857C96.4349 8.76225 93.2275 8.76225 93.2275 10.6857C92.586 19.448 92.3722 28.424 92.586 37.1862C92.586 39.1097 95.7934 39.1097 95.5796 37.1862Z" fill="black"/>
<path d="M106.056 39.5371C106.056 38.2548 106.056 37.1863 106.056 35.904C106.056 35.6903 106.056 35.2628 105.842 35.2628C105.842 32.912 105.628 30.3474 105.628 27.9965C109.691 32.2708 113.54 36.7588 116.747 41.6743C117.816 43.1703 119.741 42.1017 119.527 40.6057C119.527 39.9645 119.313 39.1097 119.313 38.4685C119.099 37.4 118.244 37.1863 117.602 37.4C114.609 33.1257 111.188 29.0651 107.553 25.432C110.119 20.3028 112.471 15.3874 115.036 10.2583C115.892 8.54854 113.326 7.05254 112.471 8.76226C110.119 13.464 107.98 17.952 105.628 22.6537C105.414 18.3794 105.414 13.8914 105.201 9.61711C105.201 7.69368 102.207 7.69368 102.207 9.61711C102.421 19.6617 102.849 29.7063 103.062 39.7508C103.062 41.4605 105.842 41.4605 106.056 39.5371Z" fill="black"/>
<path d="M131.29 50.6503C132.145 50.6503 132.786 50.0091 132.786 49.1543C133.428 43.8114 133.642 38.4686 133.214 33.1257C133.214 32.2708 132.573 31.6297 131.717 31.6297C130.862 31.6297 130.221 32.2708 130.221 33.1257C130.648 38.4686 130.434 43.8114 129.793 49.1543C129.793 50.0091 130.648 50.6503 131.29 50.6503Z" fill="black"/>
<path d="M156.519 30.5611C155.878 28.424 155.878 26.2868 155.664 24.1497C155.45 20.944 155.664 17.5246 156.092 14.3188C156.947 14.3188 157.802 13.8914 157.802 12.8228C157.802 10.8994 157.589 8.54855 159.085 7.05255C160.154 5.77027 162.079 5.55655 162.72 7.47998C163.789 11.5406 163.576 16.2423 163.148 20.3028C162.934 22.44 162.293 24.5771 161.651 26.7143C161.01 28.424 160.582 30.7748 159.299 32.2708C157.802 33.5531 156.733 31.8434 156.519 30.5611ZM160.154 35.2628C162.293 33.9806 163.148 31.2023 164.003 29.0651C164.859 26.2868 165.5 23.5086 165.928 20.7303C166.355 17.7383 166.355 14.5326 166.141 11.5406C165.928 9.1897 165.928 6.1977 164.003 4.48798C162.079 2.77827 159.085 3.41941 157.161 4.91541C156.519 5.55655 156.092 6.1977 155.664 6.83884C155.023 6.83884 154.381 7.05255 154.167 7.90741C152.671 14.1051 152.243 20.3028 152.884 26.5006C153.098 29.0651 153.312 32.0571 154.809 33.9806C155.878 35.6903 158.23 36.3314 160.154 35.2628Z" fill="black"/>
<path d="M198.214 33.5531C198.214 32.6983 198.428 31.8434 198.428 30.9886C198.428 29.4926 196.717 29.0651 195.862 29.92C194.793 28.6377 193.937 27.3554 192.868 26.0731C192.013 24.7908 190.944 23.7223 190.089 22.44C189.233 21.3714 188.378 20.5166 189.019 19.2343C190.944 14.5326 193.937 9.83084 196.931 5.77027C198 4.27427 195.434 2.56456 194.365 4.27427C192.654 6.62513 190.944 9.1897 189.661 11.7543C189.019 13.0366 188.164 14.3188 187.523 15.6011C187.095 16.2423 186.881 17.0971 186.453 17.7383C186.453 17.5246 186.453 17.3108 186.453 17.0971C186.24 13.2503 186.026 9.1897 185.598 5.34284C185.384 3.41941 182.391 3.41941 182.605 5.34284C183.246 11.5406 183.46 17.7383 183.46 23.936C183.46 25.432 183.246 26.7143 183.46 28.2103C183.46 29.2788 184.101 30.5611 185.384 30.5611C187.309 30.5611 187.736 27.9966 186.453 27.1417C186.453 26.7143 186.453 26.2868 186.453 25.6457C186.453 24.7908 186.453 23.7223 186.453 22.8674V22.6537C187.309 23.936 188.378 25.2183 189.233 26.5006C191.158 29.0651 193.296 31.8434 195.22 34.408C196.289 35.4766 198 35.2628 198.214 33.5531Z" fill="black"/>
<path d="M199.711 7.26634C200.566 7.26634 201.635 7.48006 202.49 7.48006C202.918 15.3875 203.132 23.2949 202.704 31.2023C202.704 33.1258 205.056 33.1258 205.698 31.6298C205.911 30.9886 206.125 30.3475 206.339 29.7063C206.553 28.8515 206.339 28.4241 205.698 27.9966C205.911 21.1578 205.698 14.3189 205.27 7.48006C207.408 8.1212 209.119 8.33491 210.829 8.54863C211.685 8.54863 212.326 7.69377 212.326 7.05263C212.326 6.19777 211.685 5.55663 210.829 5.55663C208.05 5.34291 205.27 4.91549 202.49 4.70177C202.49 4.27434 202.49 3.84692 202.063 3.6332C201.421 2.99206 200.566 2.99206 199.924 3.6332C199.497 4.06063 199.069 4.48806 198.641 4.91549C197.786 5.77034 198.428 7.26634 199.711 7.26634Z" fill="black"/>
<path d="M219.383 11.1132C219.383 10.8995 219.596 10.6858 220.024 10.6858C220.666 10.6858 220.879 11.3269 221.093 11.968C221.735 13.464 221.949 15.6012 221.949 17.3109C221.949 20.944 221.093 24.5772 219.383 27.7829C219.169 27.9966 218.527 29.2789 218.1 29.2789C217.672 29.2789 217.458 27.3555 217.458 27.1418C217.031 25.2183 217.244 23.2949 217.244 21.3715C217.458 18.3795 217.672 15.3875 218.1 12.3955C218.741 11.968 219.169 11.7543 219.383 11.1132ZM218.1 32.0572C220.024 32.0572 221.307 30.3475 222.162 28.6378C223.018 26.928 223.873 25.0046 224.301 23.0812C225.156 19.448 225.37 14.96 224.087 11.3269C223.445 9.61718 222.162 7.90747 220.238 7.69375C219.596 7.69375 218.955 7.69375 218.314 7.90747C218.1 6.41147 215.534 6.62518 215.32 8.3349C214.892 12.8229 214.251 17.3109 214.037 22.0126C213.823 24.1498 214.037 26.5006 214.465 28.6378C215.106 30.1338 216.175 32.0572 218.1 32.0572Z" fill="black"/>
<path d="M237.346 11.7543C237.132 14.3189 235.208 16.2423 233.069 17.7383C233.283 14.5326 233.497 11.3269 233.925 8.12116V7.90744C235.849 7.48001 237.56 9.61716 237.346 11.7543ZM232.642 30.5612C232.642 27.5692 232.642 24.3634 232.856 21.3714C235.635 24.3634 238.415 27.5692 240.767 30.9886C241.836 32.4846 244.616 30.9886 243.333 29.4926C240.981 26.0732 238.201 22.8674 235.421 19.8754C238.201 17.7383 240.767 14.5326 240.339 10.6857C239.912 7.05258 236.277 3.63316 232.428 5.12916C231.573 5.34287 231.359 6.19773 231.359 6.83887C230.931 7.05258 230.717 7.48001 230.717 8.12116C229.862 15.6012 229.434 23.0812 229.648 30.5612C229.648 32.4846 232.642 32.4846 232.642 30.5612Z" fill="black"/>
<path d="M251.029 21.1578C250.815 22.2263 250.601 23.5086 250.387 24.5772C249.96 26.2869 249.746 27.9966 249.318 29.4926C249.104 30.7749 248.463 32.2709 249.318 33.3395C250.815 35.4766 254.022 32.6983 252.098 30.9886C252.098 30.7749 252.098 30.5612 252.098 30.5612C252.312 29.9201 252.312 29.4926 252.525 28.8515C252.739 27.5692 252.953 26.5006 253.167 25.2183C253.595 22.8675 254.022 20.5166 254.664 18.1658C255.733 13.4641 256.588 8.76235 257.657 4.06063C258.085 2.1372 255.091 1.28235 254.664 3.20578C253.808 7.48006 252.953 11.7543 252.098 15.8149C250.601 12.3955 249.104 9.18978 247.608 5.77035C247.18 5.1292 246.111 4.91549 245.469 5.1292C244.614 5.55663 244.614 6.41149 244.828 7.26635C246.966 11.9681 249.104 16.4561 251.029 21.1578Z" fill="black"/>
<path d="M260.223 31.8435C261.506 26.2869 263.003 20.7303 264.286 15.1737C264.927 20.5166 265.996 25.6457 267.493 30.7749C267.921 32.0572 270.273 32.2709 270.487 30.7749C271.556 24.1497 273.266 17.7383 275.618 11.5406C276.474 17.5246 277.115 23.5086 277.97 29.4926C278.184 31.416 281.178 31.416 280.964 29.4926C279.895 21.5852 278.826 13.6777 277.97 5.5566C277.757 4.27432 275.832 3.20575 275.191 4.70175C272.625 10.6857 270.487 16.8835 268.99 23.2949C267.707 17.3109 267.065 11.3269 266.852 5.12917C266.852 3.41946 264.286 2.99203 263.858 4.70175C261.72 13.464 259.581 22.2263 257.443 30.9886C256.802 32.912 259.795 33.7669 260.223 31.8435Z" fill="black"/>
<path d="M314.535 7.26631C315.818 7.90745 316.673 8.97602 316.887 10.2583C317.529 12.8229 314.963 15.8149 312.183 15.8149C311.756 15.8149 311.542 16.0286 311.114 16.2423C311.328 13.0366 311.542 9.83088 311.756 6.62517C312.825 6.41145 313.68 6.62517 314.535 7.26631ZM311.114 31.6297C310.9 31.2023 310.686 30.7749 310.259 30.7749C310.259 30.3475 310.259 29.7063 310.259 29.2789C310.259 28.2103 310.473 26.928 310.473 25.8595C310.686 23.7223 310.686 21.5852 310.9 19.448C310.9 19.2343 310.9 18.8069 310.9 18.5932C311.114 18.8069 311.542 19.0206 311.969 19.0206C315.604 19.0206 318.812 16.2423 319.453 12.8229C320.308 9.40345 318.384 5.98402 315.177 4.48802C313.466 3.63317 311.542 3.41945 309.617 4.06059C308.762 4.27431 308.334 5.12917 308.548 5.98402V6.19774C308.121 12.3955 307.693 18.5932 307.265 24.7909C307.265 26.2869 307.051 27.7829 307.051 29.2789C307.051 30.5612 306.624 32.0572 307.051 33.1257C308.121 35.0492 311.756 33.9806 311.114 31.6297Z" fill="black"/>
<path d="M332.07 10.8995C332.07 13.464 329.504 15.3875 327.152 15.6012C326.938 15.6012 326.725 15.6012 326.511 15.8149C326.725 13.0366 327.152 10.2583 327.366 7.48002C329.718 6.62517 332.07 8.97602 332.07 10.8995ZM325.228 31.8435C325.442 31.416 325.656 30.9886 325.869 30.3475C326.083 29.7063 325.869 29.2789 325.656 28.8515C325.869 25.2183 326.083 21.7989 326.511 18.1657C330.146 22.2263 332.926 26.928 334.636 32.2709C335.278 34.1943 338.271 33.3395 337.63 31.416C335.919 26.5006 333.353 21.7989 330.146 17.7383C333.353 16.456 335.919 13.6777 335.491 10.0446C335.064 5.77031 330.36 2.99202 326.297 4.70174C325.869 4.91545 325.656 5.12917 325.656 5.34288C325.228 5.5566 325.014 6.19774 324.8 6.62517C323.731 14.7463 322.876 22.8675 322.448 30.9886C322.021 33.1257 324.586 33.3395 325.228 31.8435Z" fill="black"/>
<path d="M340.623 9.83086C341.692 10.0446 342.975 10.2583 344.044 10.472C344.472 10.472 345.968 10.6857 346.182 11.1131C346.396 11.5406 345.327 13.2503 345.113 13.6777C344.685 14.7463 344.258 15.6011 343.83 16.6697C342.12 20.7303 340.837 24.7909 339.981 29.0651C339.767 29.92 340.195 30.7749 341.05 30.9886C343.83 31.8434 346.61 31.8434 349.39 31.2023C351.314 30.7749 350.459 27.7829 348.534 28.2103C346.824 28.6377 344.899 28.6377 343.189 28.2103C344.044 23.7223 345.541 19.2343 347.679 15.1737C348.748 13.2503 350.459 10.6857 348.32 8.76228C347.679 8.12114 346.61 7.69371 345.541 7.69371C344.258 7.48 342.761 7.26628 341.478 7.05257C340.623 6.83886 339.767 7.26628 339.554 8.12114C339.34 8.76228 339.981 9.83086 340.623 9.83086Z" fill="black"/>
<path d="M362.861 27.3555C361.578 27.7829 360.509 27.9966 359.226 27.9966C358.799 27.9966 357.943 28.2103 357.516 27.9966C357.088 27.7829 357.302 27.3555 357.302 26.928C357.302 24.5772 357.302 22.2263 357.302 19.8755C358.157 20.0892 359.012 20.0892 359.868 20.3029C360.295 20.3029 360.723 20.0892 360.937 19.8755C361.151 19.6617 361.365 19.2343 361.365 18.8069C361.365 18.3795 361.151 17.952 360.937 17.7383C360.723 17.0972 360.509 17.0972 360.082 17.0972C359.226 16.8835 358.371 16.8835 357.516 16.6697C357.516 14.7463 357.73 12.8229 357.73 10.8995C357.73 10.2583 357.73 8.97603 358.585 8.76232C359.44 8.5486 360.509 9.40346 361.151 9.83089C362.861 10.8995 364.358 8.33489 362.648 7.26632C360.082 5.77032 356.447 4.91546 354.95 8.12117C354.308 9.61717 354.522 11.3269 354.308 12.8229C354.308 14.1052 354.308 15.1737 354.095 16.456C353.881 16.456 353.667 16.6697 353.453 16.8835C353.239 17.0972 353.025 17.5246 353.025 17.952C353.025 18.3795 353.239 18.8069 353.453 19.0206C353.667 19.2343 353.881 19.2343 354.095 19.448C354.095 20.944 354.095 22.44 354.095 24.1497C354.095 25.8595 353.881 27.5692 354.308 29.2789C355.377 32.6983 360.937 31.416 363.503 30.5612C365.427 29.4926 364.786 26.7143 362.861 27.3555Z" fill="black"/>
<path d="M370.129 29.7063C372.481 31.2023 376.116 30.5611 376.972 27.5691C377.613 25.6457 374.619 25.0046 373.978 26.7143C373.55 27.9966 371.412 26.928 370.985 26.2869C369.702 24.5771 369.915 21.7989 369.915 19.6617C369.915 16.456 370.343 10.6857 373.764 8.976C373.978 9.18972 373.978 9.18972 374.192 9.40343C375.689 10.6857 377.827 8.54858 376.33 7.26629C375.475 6.62515 374.833 5.55658 373.764 5.77029C373.123 5.984 372.267 6.19772 371.626 6.62515C370.343 7.48 369.488 8.54857 368.846 9.83086C367.35 13.0366 366.922 16.6697 366.922 20.3029C366.922 23.7223 367.136 27.7829 370.129 29.7063Z" fill="black"/>
<path d="M380.82 17.7383C380.179 22.0126 379.751 26.5006 379.323 30.7748C379.323 31.8434 380.392 32.4846 381.248 32.2708C383.172 31.8434 385.31 31.2023 387.235 30.7748C389.159 30.3474 388.304 27.3554 386.379 27.7828C385.096 28.2103 383.813 28.424 382.531 28.8514C382.958 23.7223 383.6 18.5931 384.669 13.464C385.096 11.1131 386.593 8.33484 385.096 5.98399C384.027 4.06056 381.461 3.41941 379.751 4.91541C378.254 6.1977 380.392 8.33484 381.889 7.05256C381.675 7.05256 381.675 7.05256 381.889 7.05256C382.103 7.05256 382.103 7.05256 382.317 7.26627C382.531 7.47999 382.531 7.90741 382.531 8.12113C382.531 9.1897 382.103 10.2583 381.889 11.1131C381.461 13.464 381.034 15.6011 380.82 17.7383Z" fill="black"/>
<path d="M394.078 17.5246C394.505 18.3795 394.933 19.2343 395.361 20.3029C395.788 21.1577 396.002 21.7989 396.857 22.2263H397.071C397.071 22.6537 396.857 22.8675 396.857 23.2949C396.644 24.3635 396.43 25.432 396.43 26.5006C396.43 26.928 396.216 27.3555 396.216 27.7829C396.216 27.9966 396.216 27.9966 396.216 28.2103C393.864 29.4926 396.43 33.1257 398.354 30.9886C399.209 30.1337 399.209 28.6377 399.209 27.5692C399.423 26.0732 399.637 24.3635 399.851 22.8675C400.92 16.8835 402.631 10.8995 405.197 5.34288C405.624 4.48802 404.769 3.63317 404.127 3.41945C403.272 3.20574 402.631 3.63317 402.203 4.48802C400.492 8.54859 399.209 12.6092 398.14 16.8835C397.927 17.5246 397.927 17.952 397.713 18.5932C397.713 18.5932 397.713 18.3795 397.499 18.3795C397.285 17.7383 396.857 17.0972 396.644 16.456C396.002 15.1737 395.574 14.1052 394.933 12.8229C393.864 10.2583 392.795 7.90745 391.512 5.34288C391.084 4.70174 390.015 4.48802 389.374 4.70174C388.518 5.12917 388.518 5.98402 388.732 6.83888C390.656 10.2583 392.367 13.8915 394.078 17.5246Z" fill="black"/>
<path d="M409.473 6.41143C410.542 6.62515 411.611 6.62515 412.68 6.83886C412.466 12.8229 412.253 18.5931 412.253 24.5771C411.825 24.7909 411.611 25.2183 411.825 25.6457C412.039 26.7143 412.039 27.5691 412.253 28.6377C412.466 30.5611 415.246 30.5611 415.246 28.6377C415.46 21.5851 415.674 14.3189 415.888 7.26629C417.171 7.48001 418.24 7.69372 419.523 7.90743C420.378 8.12115 421.233 7.69372 421.447 6.83886C421.661 5.98401 421.233 5.12915 420.378 4.91543C416.957 4.27429 413.322 3.63315 409.9 3.41943C409.045 3.41943 408.404 4.27429 408.404 4.91543C407.976 5.984 408.618 6.41143 409.473 6.41143Z" fill="black"/>
<path d="M426.366 15.3874C427.008 13.6777 427.863 11.7543 428.718 10.0446C428.718 11.968 428.718 13.8914 428.932 15.6011C428.077 15.3874 427.222 15.3874 426.366 15.3874ZM421.876 18.8069C420.807 21.5851 419.738 24.5771 418.883 27.5691C418.241 29.4926 421.235 30.1337 421.876 28.424C422.945 25.0046 424.014 21.7989 425.297 18.5931C425.511 18.5931 425.725 18.5931 426.153 18.5931C426.794 18.5931 427.222 18.5931 427.863 18.5931C427.863 18.5931 427.863 18.5931 428.077 18.5931C428.291 18.5931 428.291 18.5931 428.505 18.5931C428.718 18.5931 429.146 18.8069 429.36 18.8069C429.574 22.0126 429.788 25.2183 430.215 28.6377C430.429 30.5611 433.423 30.5611 433.209 28.6377C432.354 20.3029 431.926 11.968 432.14 3.63314C432.14 2.13714 430.001 1.496 429.36 2.77828C427.222 7.05257 425.083 11.5406 423.373 16.0286C423.159 16.0286 422.731 16.2423 422.518 16.2423C421.662 16.456 421.235 17.3109 421.448 18.1657C421.235 18.1657 421.448 18.5931 421.876 18.8069Z" fill="black"/>
<path d="M445.823 20.0892C445.609 18.1657 445.609 16.2423 444.326 14.7463C443.257 13.464 441.546 13.2503 440.05 12.3954C438.767 11.5406 439.836 9.18973 440.05 7.90745C440.477 6.41145 441.119 4.48802 442.829 3.84688C444.754 3.20573 443.899 0.213733 441.974 0.854876C439.194 1.92345 437.698 4.2743 437.056 7.05259C436.415 9.83088 435.559 13.0366 438.339 14.7463C439.408 15.3874 440.691 15.3874 441.546 16.2423C442.616 17.3109 442.616 19.448 442.616 20.7303C442.616 22.6537 442.402 24.5772 441.119 26.0732C440.691 26.7143 440.05 27.1417 439.194 27.5692C438.981 27.7829 438.553 27.7829 438.339 27.7829H438.125C437.911 27.5692 437.911 27.3554 437.698 27.3554C435.987 26.5006 434.063 28.424 435.559 30.1337C436.629 31.416 439.194 30.9886 440.477 30.5612C444.754 28.8514 446.037 24.3634 445.823 20.0892Z" fill="black"/>
<path d="M460.578 25.0046C457.798 25.432 455.232 25.8595 452.453 26.2869C453.949 18.8069 456.088 11.3269 458.867 4.0606C459.081 3.41945 458.654 2.35088 457.798 2.13717C455.232 1.49603 452.88 1.28231 450.314 1.70974C448.39 1.92345 448.39 4.91545 450.314 4.70174C452.025 4.48803 453.736 4.48803 455.446 4.70174C452.666 12.1817 450.528 19.8755 449.031 27.5692C448.818 28.8515 449.673 29.7063 450.956 29.4926C454.377 28.8515 457.798 28.424 461.433 27.7829C463.358 27.5692 462.502 24.5772 460.578 25.0046Z" fill="black"/>
<path d="M488.8 12.6091C487.517 13.6777 486.021 14.5325 484.524 15.1737C484.524 11.5405 484.524 8.12111 484.524 4.48797C485.593 4.70169 486.662 4.9154 487.731 5.34283C489.014 5.98397 490.083 6.62511 490.511 7.9074C490.939 9.83083 489.87 11.5405 488.8 12.6091ZM483.882 1.49597C483.455 1.49597 482.813 1.49597 482.599 1.70969C481.958 1.9234 481.53 2.35083 481.53 3.20569C481.744 11.968 481.744 20.5165 481.103 29.2788C480.675 29.92 480.675 30.7748 481.317 31.416C482.172 32.6983 484.096 32.0571 484.096 30.5611C484.738 30.1337 484.738 29.0651 484.31 28.424C484.524 25.0045 484.738 21.5851 484.738 18.1657C484.952 18.1657 485.165 18.1657 485.379 17.952C487.517 16.8834 489.869 15.8148 491.58 13.8914C493.291 11.968 494.146 9.61712 493.505 7.26626C492.435 3.4194 487.731 2.13711 483.882 1.49597Z" fill="black"/>
<path d="M506.764 18.1657C506.122 20.0891 505.267 21.7988 504.412 23.7223C503.556 25.2183 502.701 27.1417 500.991 27.7828C499.494 28.424 499.066 26.2868 498.852 25.2183C498.425 23.0811 498.211 20.944 497.997 18.8068C497.783 16.6697 497.783 14.3188 497.783 12.1817C497.783 11.5405 497.997 10.6857 498.211 10.0445C499.066 10.0445 499.921 9.61712 499.921 8.54855C499.921 7.26626 501.204 6.4114 502.273 6.19769C503.77 5.77026 505.267 6.62512 506.122 7.69369C508.902 10.472 507.833 14.7463 506.764 18.1657ZM501.204 3.20569C500.349 3.4194 499.708 3.84683 499.066 4.27426C498.638 4.06055 497.997 4.27426 497.569 4.70169C493.934 8.33483 494.576 14.3188 495.003 19.0205C495.217 21.5851 495.431 24.5771 496.286 27.1417C496.928 29.2788 498.852 30.9885 501.204 30.5611C503.556 30.1337 505.267 28.2103 506.336 26.2868C507.833 23.936 508.902 21.3714 509.757 18.8068C511.254 14.1051 511.896 8.33483 507.833 4.70169C505.909 3.20569 503.556 2.35083 501.204 3.20569Z" fill="black"/>
<path d="M524.297 1.92342C524.083 8.76228 523.442 15.3874 522.159 22.0126C519.165 16.8834 518.951 10.472 518.951 4.70171C518.951 2.992 516.172 2.56457 515.958 4.27428C514.675 11.968 513.392 19.448 511.895 27.1417C511.468 29.0651 514.461 29.92 514.889 27.9966C515.53 24.1497 516.172 20.3029 516.813 16.456C517.668 20.3029 519.165 23.7223 521.945 26.7143C522.8 27.5691 524.297 27.1417 524.511 26.0731C526.008 18.8069 527.077 11.5406 527.291 4.27428C527.504 3.84685 527.718 3.41942 527.718 2.992C527.718 2.56457 527.504 2.13714 527.504 1.496C527.077 -0.213718 524.511 0.21371 524.297 1.92342Z" fill="black"/>
<path d="M531.352 2.77833C530.925 11.3269 530.711 19.8755 530.711 28.424C530.711 30.3475 533.491 30.3475 533.704 28.424C533.704 27.5692 533.918 26.7143 533.918 25.8595C533.918 25.432 533.918 25.2183 533.704 25.0046C533.704 17.5246 533.918 10.2583 534.346 2.77833C534.56 0.854897 531.566 0.854897 531.352 2.77833Z" fill="black"/>
<path d="M546.535 23.5086C545.252 24.1497 543.755 24.1497 542.472 23.936C542.045 23.936 541.831 23.7223 541.403 23.7223C541.189 23.7223 541.189 23.7223 540.976 23.7223C540.976 23.5086 540.976 23.0811 540.976 23.0811C540.976 22.6537 540.976 22.44 541.189 22.0126C541.403 19.8754 541.831 17.952 542.258 15.8148C543.541 15.8148 544.824 15.8148 546.107 15.6011C546.963 15.6011 547.604 14.96 547.604 14.1051C547.604 13.2503 546.963 12.6091 546.107 12.6091C545.038 12.8228 543.969 12.8228 542.9 12.8228C542.9 12.6091 542.9 12.6091 542.9 12.3954C543.328 10.8994 543.755 9.1897 544.183 7.6937C544.611 6.41141 545.252 4.91541 544.397 3.63312C543.755 2.77827 542.686 2.35084 541.831 2.35084C541.403 2.35084 540.762 2.35084 540.334 2.35084C540.12 2.35084 539.906 2.35084 539.906 2.35084H539.693C539.693 2.35084 539.693 2.35084 539.693 2.13712C538.41 0.641125 536.271 2.77827 537.554 4.27427C538.41 5.12912 539.479 5.34284 540.762 5.34284C541.189 5.34284 541.617 5.34284 542.045 5.34284C541.831 5.55655 541.831 6.1977 541.617 6.41141C540.976 8.54855 540.548 10.472 540.12 12.6091H539.906H539.693C539.265 12.6091 539.051 12.3954 538.623 12.3954C537.768 12.1817 536.913 12.6091 536.699 13.464C536.485 14.1051 536.913 15.1737 537.768 15.3874C538.41 15.6011 539.051 15.6011 539.693 15.6011C539.693 16.0286 539.479 16.456 539.479 16.8834C539.265 18.5931 538.837 20.3028 538.623 22.0126C538.41 23.5086 537.982 25.2183 539.479 26.2868C540.762 26.928 542.472 27.1417 543.969 27.1417C545.68 27.1417 547.176 26.928 548.459 26.2868C549.742 25.2183 548.246 22.6537 546.535 23.5086Z" fill="black"/>
<path d="M562.572 24.3634C561.075 24.1497 559.579 24.1497 557.868 23.936C557.013 23.936 556.157 23.7223 555.302 23.7223H555.088C555.088 23.5086 555.088 23.2948 555.088 23.2948C555.302 20.3028 555.516 17.3108 555.73 14.3188H560.434C561.289 14.3188 561.931 13.6777 561.931 12.8228C561.931 11.968 561.289 11.3268 560.434 11.3268H556.157C556.371 9.1897 556.585 7.05255 557.013 5.12913C557.226 4.27427 557.44 3.41941 558.296 3.2057C558.723 3.2057 559.579 3.41941 559.792 3.84684C560.434 5.55655 563.427 4.91541 562.786 2.99198C561.717 0.427411 558.509 -0.854875 555.944 0.85484C554.661 1.7097 554.233 3.41941 553.805 4.91541C553.591 7.05255 553.164 9.1897 552.95 11.5406C552.736 13.6777 552.522 16.0286 552.308 18.1657C552.095 20.3028 551.881 22.44 551.881 24.3634C551.881 26.5005 553.805 26.7143 555.516 26.928C557.868 27.1417 560.22 27.3554 562.358 27.3554C564.497 27.3554 564.497 24.3634 562.572 24.3634Z" fill="black"/>
<path d="M568.988 35.2629C568.774 36.1177 568.56 37.6137 568.132 38.6823C567.919 37.8275 567.705 36.1177 567.705 35.904C567.705 34.8355 567.705 33.7669 567.919 32.6983C568.132 30.9886 568.774 29.4926 569.843 27.9966C569.843 28.8515 569.843 29.7063 569.843 30.5612C569.415 32.2709 569.415 33.7669 568.988 35.2629ZM572.409 3.84689C572.623 2.99203 571.34 2.13717 570.484 2.35089C569.201 2.77831 568.346 2.99203 567.063 2.35089C565.353 1.49603 563.856 4.0606 565.566 4.91546C566.636 5.5566 567.919 5.77031 569.202 5.77031C568.774 11.1132 569.201 16.6697 569.629 22.0126C569.629 22.6537 569.629 23.5086 569.629 24.1497C569.201 24.1497 568.988 24.3635 568.56 24.5772C565.353 28.2103 564.07 32.912 564.711 37.6137C564.925 39.3235 565.78 42.3155 567.919 42.5292C570.271 42.7429 570.912 39.5372 571.34 37.8275C574.547 26.7143 570.912 14.96 572.409 3.84689Z" fill="black"/>
<path d="M12.6153 82.9211C11.5462 84.2034 10.0494 84.8446 8.55261 85.272C8.55261 78.6469 8.33879 72.0217 8.33879 65.6103C9.83556 66.0377 11.3323 67.32 12.1876 68.6023C13.6844 70.7394 14.3259 73.5177 14.5397 76.0823C14.7535 78.4331 14.5397 80.9977 12.6153 82.9211ZM13.8982 65.824C11.76 63.2594 8.55261 61.7634 5.13142 62.1909C4.27613 62.4046 3.84848 63.4731 4.0623 64.1143C4.27613 64.7554 4.70378 64.9691 5.13142 65.1829C5.13142 72.0217 5.34525 79.0743 5.34525 85.9131C4.9176 86.3406 4.9176 87.1954 5.34525 87.6229C5.34525 90.1874 5.34525 92.9657 5.34525 95.5303C5.34525 96.8126 7.05584 97.4537 7.91114 96.5989C8.33879 96.3851 8.55261 96.1714 8.76644 95.9577C9.62174 95.1029 9.19409 94.248 8.55261 93.8206C8.55261 91.8972 8.55261 90.1874 8.55261 88.264C10.9047 87.8366 13.2568 86.768 14.7535 85.0583C17.3194 82.4937 17.9609 79.0743 17.5332 75.6549C17.1056 72.0217 16.2503 68.6023 13.8982 65.824Z" fill="black"/>
<path d="M27.5849 80.1429C26.3019 80.3566 25.019 80.3566 23.7361 80.5703C23.9499 79.9292 24.1637 79.288 24.1637 78.6469C24.8052 76.5097 25.2328 74.3726 25.8743 72.2355C25.8743 71.808 26.0881 71.5943 26.0881 71.1669C26.7296 74.3726 27.1572 77.3646 27.5849 80.1429C27.7987 80.1429 27.7987 80.1429 27.5849 80.1429ZM26.3019 64.7555C24.5914 66.0377 24.1637 67.7475 23.7361 69.6709C23.0946 72.0217 22.4531 74.5863 21.8116 76.9372C20.5287 81.6389 18.8181 86.5543 19.0319 91.256C19.0319 93.1795 22.2393 93.1795 22.0255 91.256C22.0255 88.6915 22.4531 86.1269 23.0946 83.5623C24.5914 83.3486 26.0881 83.3486 27.7987 83.1349C28.0125 83.1349 28.2264 83.1349 28.2264 82.9212C28.2264 83.3486 28.4402 83.5623 28.4402 83.9897C28.654 85.4857 28.8678 86.768 29.0817 88.264C29.2955 89.3326 29.2955 91.0423 29.937 91.8972C31.6476 93.8206 34.2134 91.4697 32.7167 89.5463C32.7167 89.3326 32.5029 89.3326 32.289 89.3326V89.1189C32.289 88.6915 32.0752 88.0503 32.0752 87.6229C31.8614 86.5543 31.6476 85.4857 31.6476 84.4172C31.2199 82.28 31.0061 80.3566 30.5784 78.2195C29.937 73.9452 29.2955 69.8846 28.4402 65.6103C28.2264 64.7555 26.9434 64.1143 26.3019 64.7555Z" fill="black"/>
<path d="M44.6887 77.5783C45.1163 82.0663 42.9781 86.5543 39.1293 89.1189C39.1293 89.1189 39.1293 89.1188 38.9154 89.3326C39.1293 82.4937 39.1293 75.6548 38.9154 68.6023C42.1228 70.5257 44.261 73.9451 44.6887 77.5783ZM38.4878 90.8286C38.7016 91.6834 39.5569 92.5383 40.626 91.8971C45.1163 88.9051 48.1099 83.3486 47.6822 77.792C47.2546 72.4491 43.8334 67.5337 38.9154 65.1828C38.9154 65.1828 38.9154 65.1828 38.7016 65.1828C38.0601 63.9006 35.7081 64.1143 35.9219 65.824C36.3495 73.9451 36.3495 81.8526 35.9219 89.9737C35.9219 91.256 37.6325 91.4697 38.4878 90.8286Z" fill="black"/>
<path d="M55.808 91.256C57.5186 91.0423 59.2292 91.0423 60.9398 90.8286C62.8642 90.6148 62.8642 87.6228 60.9398 87.8366C59.6569 88.0503 58.1601 88.0503 56.8772 88.264C56.0219 88.264 55.3804 88.4777 54.5251 88.4777C54.3113 88.4777 53.8836 88.4777 53.6698 88.4777C53.6698 88.0503 53.6698 87.8366 53.6698 87.4091C53.6698 86.768 53.6698 86.1268 53.6698 85.4857C53.6698 83.9897 53.6698 82.7074 53.6698 81.2114C53.6698 80.9977 53.6698 80.784 53.6698 80.5703C54.3113 80.3566 55.1666 80.3566 55.808 80.1428C56.6633 79.9291 57.091 79.0743 56.8772 78.2194C56.6633 77.3645 55.808 76.9371 54.9527 77.1508C54.5251 77.1508 54.0975 77.3646 53.6698 77.3646C53.6698 73.0903 53.8836 68.816 53.8836 64.5417C53.8836 62.6183 50.8901 62.6183 50.8901 64.5417C50.8901 69.0297 50.6763 73.5177 50.6763 78.0057C50.4624 78.0057 50.4624 78.0057 50.2486 78.0057C49.3933 78.2194 48.9657 79.0743 49.1795 79.9291C49.3933 80.5703 50.0348 80.9977 50.6763 80.9977C50.6763 81.8526 50.6763 82.7074 50.6763 83.5623C50.6763 85.0583 50.6763 86.5543 50.6763 88.0503C50.6763 89.3326 50.6763 90.6148 51.9592 91.256C53.0283 91.8971 54.5251 91.4697 55.808 91.256Z" fill="black"/>
<path d="M88.5231 67.5337L88.7369 67.7474C89.5922 68.6023 90.8751 67.9612 91.3028 67.1063C93.2272 67.5337 94.724 69.6709 95.1516 71.5943C95.7931 74.8 94.9378 78.4332 93.8687 81.4251C93.441 82.7074 91.089 89.1189 88.7369 86.9817C87.8816 86.1269 87.6678 84.6309 87.4539 83.3486C87.2401 81.6389 87.0263 79.7154 87.0263 78.0057C87.0263 74.5863 87.4539 70.9532 88.5231 67.5337ZM87.6678 90.1874C91.9443 92.5383 94.724 87.1954 96.0069 84.2034C97.7175 80.1429 98.5728 75.4412 97.9313 71.1669C97.076 67.1063 93.0134 62.832 88.5231 64.7554C87.8816 64.1143 86.3848 64.1143 85.9572 65.3966C84.6742 69.8846 83.8189 74.5863 84.0327 79.5017C84.0327 81.6389 84.2466 83.9897 84.6742 86.1269C85.1019 87.4092 85.9572 89.1189 87.6678 90.1874Z" fill="black"/>
<path d="M101.566 65.1829C101.352 73.304 101.352 81.4252 101.566 89.5463C101.566 91.4697 104.56 91.4697 104.56 89.5463C104.56 85.272 104.346 80.784 104.56 76.5097C106.698 76.5097 108.836 76.0823 110.761 75.2275C111.402 74.8 111.83 73.7315 111.402 73.0903C110.974 72.4492 110.119 72.2355 109.264 72.4492C109.05 72.4492 109.05 72.6629 108.836 72.6629C108.836 72.6629 108.409 72.8766 108.836 72.6629C108.622 72.8766 108.195 72.8766 107.981 72.8766C107.553 73.0903 106.912 73.304 106.27 73.304C106.056 73.304 106.056 73.304 105.843 73.304C105.629 73.304 105.201 73.304 104.987 73.304H104.774C104.774 70.5257 104.774 67.7475 104.987 64.9692C107.981 64.9692 110.974 64.9692 113.754 64.9692C115.679 64.9692 115.679 61.9772 113.754 61.9772C109.905 61.9772 106.056 61.9772 102.208 62.1909C100.069 62.1909 99.8556 64.9692 101.566 65.1829Z" fill="black"/>
<path d="M116.963 63.0457C116.963 72.0217 116.963 80.784 116.535 89.76C116.535 91.6834 119.529 91.6834 119.529 89.76C119.956 80.784 120.17 72.0217 119.956 63.0457C119.956 61.1223 116.963 61.1223 116.963 63.0457Z" fill="black"/>
<path d="M128.508 78.4331C128.936 76.7234 129.577 74.8 130.219 73.0903C130.433 74.8 130.433 76.296 130.647 78.0057C129.791 78.0057 129.15 78.2194 128.508 78.4331ZM126.156 86.9817C126.584 85.272 127.012 83.5623 127.439 81.8525C128.508 81.6388 129.577 81.2114 130.86 80.9977C130.86 81.2114 130.86 81.6388 130.86 81.8525C131.074 83.1348 131.074 84.4171 131.288 85.6994C131.502 86.9817 131.502 88.4777 131.716 89.76C131.93 90.6148 132.571 91.4697 133.64 91.4697C134.709 91.4697 135.565 90.6148 135.351 89.5463C135.351 89.1188 135.137 88.6914 134.709 88.264C134.709 88.0503 134.709 87.8365 134.709 87.6228C134.709 87.1954 134.709 86.5543 134.495 86.1268C134.495 85.0583 134.282 84.2034 134.282 83.1348C134.282 82.0663 134.068 80.9977 134.068 79.7154C134.495 79.7154 134.709 79.5017 135.137 79.5017C135.992 79.288 136.42 78.4331 136.206 77.5783C135.992 76.7234 135.137 76.296 134.282 76.5097C134.068 76.5097 134.068 76.5097 133.854 76.7234C133.426 72.8765 133.212 69.0297 132.785 65.1828C132.571 63.4731 130.433 63.0457 129.791 64.7554C127.439 71.5943 125.301 78.4331 123.59 85.4857C122.735 88.0503 125.729 88.6914 126.156 86.9817Z" fill="black"/>
<path d="M148.393 67.1063C148.179 69.2434 146.682 70.7394 144.972 71.5943C145.186 69.0297 145.399 66.4651 145.399 63.9006C145.399 63.6868 145.399 63.6869 145.399 63.4731C147.11 63.2594 148.607 65.3966 148.393 67.1063ZM140.695 87.8366C140.695 88.9051 141.978 89.76 143.047 89.1189C144.116 88.264 144.758 86.9817 144.33 85.6994C144.33 85.4857 144.116 85.272 144.116 85.0583C144.33 82.4937 144.544 79.9291 144.544 77.1508C146.255 79.5017 147.965 82.0663 149.462 84.8446C149.89 85.6994 150.317 86.5543 150.745 87.4091C151.173 88.0503 151.387 88.9051 152.242 89.3326C153.952 90.1874 155.022 88.264 154.38 86.768C154.166 86.3406 153.739 86.1268 153.525 86.1268C153.311 85.6994 153.097 85.4857 153.097 85.0583C152.883 84.4171 152.456 83.776 152.242 83.3486C151.6 82.0663 150.745 80.784 150.104 79.7154C149.034 77.792 147.752 76.0823 146.255 74.3726C149.462 72.4491 152.028 69.4571 151.6 65.6103C151.173 61.7634 146.682 59.1989 143.261 61.336C142.406 61.7634 142.406 62.832 142.834 63.4731C142.834 63.6869 142.62 63.9006 142.62 64.1143C141.764 72.0217 141.123 79.9291 140.695 87.8366Z" fill="black"/>
<path d="M164.218 74.8C164.646 73.0903 165.073 71.3806 165.501 69.8846C165.929 71.5943 166.142 73.0903 166.356 74.8C165.715 74.8 165.073 74.8 164.218 74.8ZM172.13 97.0263C171.488 96.5988 170.419 96.8126 169.991 97.6674H169.777H169.564C169.564 97.6674 169.35 97.6674 169.35 97.4537C169.35 97.4537 169.35 97.4537 169.35 97.24V97.0263C169.136 96.5988 169.35 95.9577 169.564 95.5303C169.991 94.248 170.633 92.9657 171.06 91.6834C171.702 90.1874 172.13 88.9051 172.771 87.4091C172.985 86.5543 172.343 85.6994 171.702 85.4857H171.488C171.274 82.7074 170.847 80.1428 170.419 77.3646C171.06 77.1508 171.702 76.7234 171.488 75.8686C171.488 75.0137 170.847 74.3726 169.991 74.3726C169.991 74.3726 169.991 74.3726 169.777 74.3726C169.136 70.312 168.281 66.4651 167.212 62.6183C166.784 61.1223 164.646 61.1223 164.218 62.6183C163.363 67.1063 162.294 71.3806 161.011 75.8686C161.011 75.8686 161.011 76.0823 161.011 76.296C159.728 80.784 158.445 85.272 157.162 89.76C156.52 91.6834 159.514 92.3246 160.155 90.6148C161.438 86.5543 162.721 82.28 163.79 78.0057C164.859 78.0057 166.142 77.792 167.212 77.792C167.639 80.784 168.067 83.5623 168.494 86.5543C167.853 86.9817 167.639 87.6228 168.067 88.4777C168.281 88.6914 168.494 89.1188 168.708 89.3326C168.281 90.1874 168.067 91.0423 167.639 91.8971C166.998 93.6068 166.142 95.3166 166.356 97.0263C166.57 98.736 167.639 100.018 169.136 100.446C170.419 100.873 172.13 100.446 172.771 99.1634C172.985 98.5223 172.771 97.4537 172.13 97.0263Z" fill="black"/>
<path d="M221.307 57.7029C218.527 64.9692 216.175 72.2355 214.037 79.5017C211.257 72.6629 208.905 65.6103 206.981 58.5577C206.553 56.848 204.201 57.2755 203.987 58.9852C203.346 68.1749 202.49 77.3646 201.849 86.5543C201.635 88.4777 204.629 88.4777 204.842 86.5543C205.27 80.1429 205.911 73.5177 206.339 67.1063C208.264 73.0903 210.616 79.0743 212.968 84.8446C213.609 86.1269 215.534 85.6995 215.747 84.4172C217.458 78.2195 219.382 72.0217 221.307 66.0377C221.734 72.8766 222.59 79.7155 224.3 86.3406C224.728 88.264 227.722 87.4092 227.294 85.4857C225.156 76.5097 224.087 67.1063 224.3 57.9166C224.3 56.2069 221.948 56.2069 221.307 57.7029Z" fill="black"/>
<path d="M237.988 80.7839C237.346 82.0662 235.422 84.2034 234.353 81.8525C233.498 79.5017 233.07 76.9371 232.856 74.3725C232.215 69.4571 232.428 64.3279 233.498 59.6262C234.78 58.5577 236.705 60.4811 237.346 61.5497C238.416 63.2594 239.057 65.3965 239.485 67.5337C240.554 71.808 240.126 76.9371 237.988 80.7839ZM241.195 61.9771C240.34 59.84 238.843 57.7028 236.491 56.848C234.353 55.9931 232.001 56.6342 230.504 58.5577C230.076 58.9851 230.076 59.6262 230.29 59.84C229.435 64.7554 229.007 69.6708 229.649 74.5862C229.863 77.1508 230.29 79.9291 231.145 82.4937C231.787 84.4171 233.07 86.1268 235.208 86.1268C239.912 86.1268 241.837 79.7154 242.478 76.0822C243.547 71.1668 243.12 66.4651 241.195 61.9771Z" fill="black"/>
<path d="M262.362 83.776C264.928 75.0137 266.852 66.2514 267.921 57.0617C268.135 55.1383 265.142 55.1383 264.928 57.0617C264.072 64.1143 262.789 70.9531 260.865 77.792C258.941 71.1669 257.658 64.5417 256.802 57.7029C256.589 56.2069 254.236 55.5657 253.809 57.2754C252.526 63.2594 251.029 69.2434 249.746 75.2274C248.891 69.6709 248.036 63.9006 247.18 58.344C246.966 56.4206 243.973 57.2754 244.187 59.1989C245.47 67.32 246.753 75.6549 248.036 83.776C248.249 85.272 250.601 85.0583 251.029 83.776C252.312 77.792 253.809 71.808 255.092 65.824C256.161 71.808 257.658 78.0057 259.582 83.776C259.796 85.272 261.934 85.272 262.362 83.776Z" fill="black"/>
<path d="M273.482 55.7794C272.84 53.856 269.847 54.7109 270.488 56.6343C271.985 61.336 273.482 66.0377 274.978 70.7394C274.551 71.3806 274.764 72.0217 275.192 72.4492C275.406 72.8766 275.834 73.304 276.047 73.5177C276.261 73.9452 276.689 73.9452 276.903 73.9452C276.261 76.296 275.834 78.8606 275.192 81.2114C274.978 81.4252 274.764 81.8526 274.764 82.28C274.764 82.9212 274.551 83.5623 274.551 84.2034C274.337 85.9132 277.117 86.3406 277.544 84.6309C279.682 75.4412 282.034 66.2514 284.173 57.0617C284.6 55.1383 281.607 54.2834 281.179 56.2069C280.11 60.9086 279.041 65.3966 277.972 70.0983C276.475 65.3966 274.978 60.6949 273.482 55.7794Z" fill="black"/>
<path d="M320.097 54.7109C318.814 61.336 317.317 67.9612 315.179 74.3726C314.11 68.1749 313.04 61.9772 312.185 55.9932C311.971 54.4972 309.619 54.7109 309.192 55.9932C306.84 64.5418 305.343 73.0903 304.487 81.8526C304.274 83.776 307.267 83.776 307.481 81.8526C308.123 75.8686 308.978 69.8846 310.261 63.9006C311.116 69.4572 312.185 75.2275 313.04 80.784C313.254 82.4938 315.606 82.0663 316.034 80.784C319.028 72.6629 321.38 64.1143 322.876 55.5658C323.304 53.6423 320.31 52.7875 320.097 54.7109Z" fill="black"/>
<path d="M327.366 79.5017C327.58 79.0743 327.58 78.6469 327.794 78.0057C327.794 77.792 327.794 77.5783 327.794 77.3646C329.504 70.0983 329.932 62.6183 329.291 55.1383C329.077 53.2149 326.083 53.2149 326.297 55.1383C327.152 63.0457 326.511 70.9532 324.373 78.6469C323.945 80.5703 326.725 81.4252 327.366 79.5017Z" fill="black"/>
<path d="M341.691 81.4252C343.616 81.2114 343.616 78.2195 341.691 78.4332C339.553 78.6469 337.415 78.6469 335.491 78.6469C335.491 75.8686 335.704 73.0903 335.704 70.5257C335.704 70.5257 335.918 70.5257 335.918 70.312H336.132C336.346 70.312 336.346 70.312 336.56 70.0983C337.201 69.8846 337.629 69.6709 338.27 69.6709C338.484 69.6709 338.912 69.6709 339.126 69.4572C339.126 69.4572 339.126 69.4572 339.339 69.4572C339.553 69.4572 339.553 69.4572 339.767 69.4572C340.409 69.4572 340.836 69.4572 341.478 69.4572C342.333 69.4572 342.974 68.816 342.974 67.9612C342.974 67.1063 342.333 66.4652 341.478 66.4652C339.553 66.4652 337.843 66.6789 336.132 67.32C336.132 63.6869 336.346 60.0537 336.346 56.4206H336.56C336.774 56.4206 336.987 56.4206 337.201 56.6343C337.629 56.848 338.056 56.848 338.484 57.0617C338.484 57.0617 338.698 57.0617 338.698 57.2754C338.698 57.2754 338.698 57.2754 338.912 57.2754C339.126 57.4892 339.339 57.4892 339.553 57.4892C340.195 57.9166 341.264 57.7029 341.691 56.848C342.119 56.2069 341.905 55.1383 341.05 54.7109C338.912 53.6423 336.774 53.2149 334.421 53.0012C333.566 53.0012 332.925 53.6423 332.925 54.4972C332.925 54.9246 333.139 55.1383 333.139 55.352C333.139 55.5657 332.925 55.7794 332.925 55.9932C332.711 63.9006 332.497 72.0217 332.283 79.9292C332.283 80.784 332.925 81.4252 333.78 81.4252C336.56 81.8526 339.126 81.8526 341.691 81.4252Z" fill="black"/>
<path d="M360.722 54.7108C359.652 61.3359 358.37 67.7474 356.873 74.3725C354.521 67.7474 352.596 60.6948 351.099 53.6422C350.672 51.7188 347.892 52.5737 348.106 54.4971C348.106 54.7108 348.106 54.7108 348.106 54.9245C347.678 55.1382 347.465 55.5657 347.465 55.9931C346.609 64.328 345.968 72.6628 345.754 80.7839C345.754 81.8525 347.037 82.7074 348.106 82.0662C349.175 81.4251 349.603 80.3565 349.389 79.0742C349.389 78.6468 349.175 78.4331 348.961 78.4331C349.175 73.0902 349.603 67.5337 350.03 62.1908C351.527 68.1748 353.452 74.1588 355.804 79.9291C356.231 81.2114 358.37 81.6388 358.797 79.9291C360.722 71.8079 362.218 63.4731 363.715 55.352C363.929 53.6422 360.935 52.7874 360.722 54.7108Z" fill="black"/>
<path d="M370.558 67.7474C370.986 66.4652 371.2 65.3966 371.627 64.1143C371.627 65.3966 371.627 66.4652 371.841 67.7474C371.413 67.7474 370.986 67.7474 370.558 67.7474ZM376.118 83.1349C376.331 82.4937 376.331 81.8526 375.904 81.2114C375.476 77.5783 375.048 74.1589 374.835 70.5257C374.835 70.312 375.048 70.312 375.048 70.0983C375.262 69.6709 375.048 69.0297 374.621 68.6023C374.407 63.9006 374.193 59.4126 374.407 54.7109C374.407 53.0012 372.055 52.7874 371.413 54.2834C369.703 58.9852 368.42 63.6869 367.137 68.6023C366.709 68.816 366.282 68.816 366.068 69.0297C365.426 69.4571 364.999 70.5257 365.426 71.1669C365.64 71.5943 365.854 71.808 366.282 71.808C365.854 73.5177 365.426 75.2274 364.999 77.1509C364.571 79.0743 367.565 79.9291 367.992 78.0057C368.42 75.6549 369.061 73.304 369.489 70.9532C369.703 70.9532 369.703 70.9532 369.917 70.9532C369.917 70.9532 369.917 70.9532 370.131 70.9532C370.772 70.9532 371.2 70.9532 371.841 70.9532C372.055 74.1589 372.483 77.3646 372.696 80.784C372.269 81.2114 372.269 82.0663 372.91 82.4937C372.91 82.7074 372.91 83.1349 372.91 83.3486C373.338 84.6309 375.69 84.4171 376.118 83.1349Z" fill="black"/>
<path d="M397.5 54.2834C396.431 61.336 395.148 68.3885 393.651 75.4411C391.941 69.2434 390.871 63.0457 390.444 56.848C390.444 55.1383 387.878 54.7108 387.45 56.4205C386.381 61.7634 385.098 66.8925 384.029 72.2354C382.96 66.4651 381.891 60.4811 380.822 54.7108C380.394 52.7874 377.614 53.6423 377.828 55.5657C379.325 63.6868 380.822 72.0217 382.532 80.1428C382.746 81.6388 385.098 81.6388 385.526 80.1428C386.595 75.4411 387.664 70.5257 388.733 65.824C389.588 71.1668 390.871 76.5097 392.796 81.6388C393.223 82.9211 395.362 83.1348 395.789 81.6388C397.928 72.8765 399.638 63.9005 400.921 54.9245C400.707 53.2148 397.928 52.36 397.5 54.2834Z" fill="black"/>
<path d="M405.41 76.0823C405.41 77.1509 405.838 78.2194 407.121 78.2194C407.976 78.4331 409.045 77.792 409.045 76.7234C409.045 76.0823 409.045 75.6549 408.404 75.2274C408.404 74.8 408.404 74.1589 408.404 73.7314C408.404 72.8766 408.404 72.0217 408.404 70.9531C408.404 69.0297 408.404 67.1063 408.404 65.3966C408.404 61.5497 408.404 57.9166 408.404 54.0697C408.404 52.1463 405.41 52.1463 405.41 54.0697C405.41 58.9851 405.41 63.9006 405.41 69.0297C405.197 71.3806 405.197 73.7314 405.41 76.0823Z" fill="black"/>
<path d="M424.227 77.3646C425.724 73.0903 422.089 68.816 420.378 65.3966C418.881 62.4046 417.812 58.344 419.737 55.352C419.737 55.5657 419.737 55.5657 419.737 55.7794C419.095 57.7029 422.089 58.344 422.73 56.6343C423.372 54.4971 422.303 52.5737 420.164 51.7189C419.737 51.5051 419.095 51.7188 418.668 52.1463C416.316 54.0697 415.46 57.0617 415.674 60.0537C415.888 63.4731 417.598 66.4651 419.095 69.4571C419.951 70.9531 421.02 72.6628 421.447 74.3726C421.875 76.0823 421.02 77.792 419.737 78.8606C418.668 79.7154 417.171 80.784 415.674 79.9291C414.819 79.5017 414.177 78.0057 415.033 77.1508C416.316 75.8686 414.177 73.7314 412.894 75.0137C410.328 77.5783 412.039 81.8526 415.033 82.9211C418.881 83.9897 422.944 80.784 424.227 77.3646Z" fill="black"/>
<path d="M429.572 39.5371C426.579 40.8194 423.799 42.3154 420.806 43.5977C420.164 44.0251 419.95 45.0937 420.164 45.7349C420.592 46.376 421.447 46.5897 422.302 46.376C425.296 45.0937 428.076 43.5977 431.069 42.3154C431.711 41.888 431.924 40.8194 431.711 40.1783C431.283 39.3234 430.428 39.1097 429.572 39.5371Z" fill="black"/>
<path d="M434.279 80.1428C436.203 79.5017 437.272 77.792 438.128 76.0823C439.197 74.3726 436.417 72.8766 435.562 74.5863C434.493 76.296 432.782 78.6468 430.858 76.5097C429.147 74.5863 430.002 71.3806 430.216 69.0297C430.43 66.4651 431.071 63.9006 431.713 61.336C432.141 60.0537 432.782 58.7714 433.423 57.7028C433.851 57.0617 434.065 56.6343 434.493 56.2068C434.706 55.9931 435.562 55.7794 435.562 55.7794C435.134 57.7028 438.128 58.5577 438.555 56.6343C438.983 54.7108 437.486 52.7874 435.348 52.7874C433.423 52.7874 431.927 54.4971 431.071 55.9931C428.933 59.6263 427.864 63.6868 427.436 67.9611C427.009 71.808 426.153 76.5097 429.361 79.288C430.644 80.3566 432.568 80.784 434.279 80.1428Z" fill="black"/>
<path d="M445.184 76.9372C445.184 76.7235 445.184 76.7235 445.184 76.7235C445.184 76.0823 445.184 75.6549 445.397 75.0137C445.397 74.1589 445.611 73.0903 445.611 72.2355C445.825 70.312 445.825 68.3886 446.039 66.4652C446.253 62.6183 446.68 58.5577 446.894 54.7109C447.108 52.7875 443.901 52.7875 443.901 54.7109C443.473 60.4812 443.045 66.0377 442.618 71.808C442.618 73.304 442.404 74.5863 442.404 76.0823C442.404 77.1509 441.976 78.4332 442.831 79.5017C444.114 81.2115 446.894 78.6469 445.184 76.9372Z" fill="black"/>
<path d="M16.2513 132.503C13.4716 132.717 10.9057 132.717 8.12597 132.503C10.6919 125.45 13.8992 118.611 17.5342 112.2C18.1757 111.131 17.3204 110.063 16.2513 109.849C13.6854 109.635 10.9057 109.422 8.3398 109.422C6.41538 109.208 6.41538 112.414 8.3398 112.414C10.2642 112.627 11.9748 112.627 13.8992 112.841C10.2642 119.68 7.27067 126.519 4.70478 133.785C4.27713 134.854 5.34626 135.709 6.20155 135.709C9.62274 135.709 13.0439 135.709 16.4651 135.709C18.1757 135.495 18.1757 132.503 16.2513 132.503Z" fill="black"/>
<path d="M34.2138 132.717C31.8617 133.358 29.5097 133.785 27.1576 133.999C27.3714 131.648 27.3714 129.083 27.5853 126.733H33.5723C34.4276 126.733 35.0691 126.091 35.0691 125.237C35.0691 124.382 34.4276 123.741 33.5723 123.741H27.7991C27.7991 122.458 28.0129 121.176 28.0129 119.894C28.0129 118.611 28.2267 117.329 28.2267 115.833C28.2267 115.192 28.2267 114.551 28.2267 113.91C28.2267 113.696 28.2267 113.482 28.2267 113.269C28.8682 113.269 29.7235 113.696 30.365 113.696C31.2203 113.91 32.2894 113.696 33.1447 113.269C34.8553 112.414 33.3585 109.849 31.6479 110.704C31.0064 110.918 30.1511 110.49 29.5097 110.277C28.6544 110.063 27.5853 110.063 26.73 110.49C25.6608 111.131 25.2332 112.2 25.2332 113.482C25.0194 114.978 25.0194 116.261 25.0194 117.757C25.0194 119.894 24.8055 121.817 24.8055 123.954C24.3779 124.168 24.1641 124.595 24.1641 125.023C24.1641 125.45 24.3779 125.878 24.5917 126.091C24.3779 129.297 24.3779 132.503 24.1641 135.495C24.1641 136.35 24.8055 136.991 25.6608 136.991C28.8682 136.563 32.0756 136.136 35.0691 135.281C36.9935 135.281 36.1382 132.289 34.2138 132.717Z" fill="black"/>
<path d="M58.5869 113.696C57.5178 114.978 56.6625 116.474 57.304 118.184C57.7316 119.894 59.2284 120.962 60.7252 121.817C62.0081 122.672 63.5049 123.313 63.9325 125.023C64.3602 126.305 63.9325 127.801 63.5049 128.87C62.8634 130.152 61.7943 131.648 60.5113 132.289C60.0837 132.503 59.4422 132.503 58.8007 132.503C59.656 131.434 58.8007 129.511 57.304 130.152C56.6625 130.366 56.2349 130.579 55.5934 130.793C54.7381 131.221 54.3104 132.075 54.7381 132.93C56.2349 136.136 60.5113 136.136 63.0772 134.426C65.6431 132.503 67.3537 129.083 67.1399 125.878C67.1399 124.382 66.4984 122.672 65.4293 121.603C64.1464 120.321 62.4358 119.894 61.1528 118.611C60.5113 118.184 60.0837 117.543 60.2975 116.688C60.5113 116.047 61.3666 115.406 61.7943 114.978C62.8634 114.123 64.574 112.841 65.8569 113.696C67.5675 114.765 69.0643 112.2 67.3537 111.131C64.3602 108.994 60.5113 111.345 58.5869 113.696Z" fill="black"/>
<path d="M81.2525 111.559C78.0451 110.918 74.6239 110.918 71.4166 111.773C70.5613 111.986 70.1336 112.841 70.3475 113.696C70.5613 114.551 71.4166 114.978 72.2719 114.765C73.5548 114.551 74.6239 114.337 75.9069 114.337C75.9069 114.337 75.9069 114.337 75.9069 114.551C75.4792 120.749 75.2654 126.733 74.8378 132.93C74.6239 134.854 77.8313 134.854 77.8313 132.93C78.259 126.733 78.4728 120.749 78.9004 114.551C79.5419 114.551 79.9696 114.765 80.611 114.765C81.4663 114.978 82.3216 114.551 82.5354 113.696C82.5354 112.627 82.1078 111.773 81.2525 111.559Z" fill="black"/>
<path d="M88.736 119.466C88.9498 117.115 88.9498 114.978 89.1636 112.627C90.8742 112.627 94.0816 112.627 93.4401 114.978C93.0125 117.115 90.6604 118.611 88.736 119.466C88.9498 119.466 88.9498 119.466 88.736 119.466ZM96.6475 114.337C96.4336 110.277 91.9433 109.635 88.736 109.635C88.5221 109.635 88.5221 109.635 88.5221 109.635C87.6668 109.422 86.3839 109.849 86.3839 110.918C86.1701 116.047 85.7424 120.962 85.5286 126.091C85.5286 127.374 85.3148 128.442 85.3148 129.725C85.3148 130.793 85.1009 131.862 85.9562 132.503C87.6668 134.213 89.8051 131.648 88.3083 130.152C88.3083 129.725 88.3083 129.297 88.3083 128.87C88.3083 128.015 88.3083 127.16 88.5221 126.305C88.5221 124.809 88.736 123.313 88.736 121.817C91.088 126.091 93.4401 130.579 95.7922 134.854C96.6475 136.563 99.4272 135.067 98.3581 133.358C96.2198 129.297 93.8678 125.237 91.7295 121.176C94.2954 119.894 96.6475 117.115 96.6475 114.337Z" fill="black"/>
<path d="M104.776 115.619C106.058 115.192 107.341 115.619 108.411 116.474C110.976 118.398 111.404 122.031 111.404 125.237C111.404 127.801 110.976 132.075 107.769 132.503C104.562 133.144 103.065 129.083 102.637 126.519C102.21 123.954 102.21 121.176 102.423 118.398C102.423 118.184 102.637 117.97 102.637 117.757C102.637 116.688 103.706 115.833 104.776 115.619ZM108.624 135.281C113.115 134.213 114.398 129.297 114.398 125.237C114.398 120.962 113.542 116.261 109.693 113.696C107.769 112.414 105.203 112.2 103.065 113.055C102.423 111.986 100.713 111.773 100.285 113.269C99.2161 117.97 98.7884 123.099 99.8576 128.015C100.713 132.075 103.92 136.35 108.624 135.281Z" fill="black"/>
<path d="M130.649 131.862C132.573 123.954 134.498 116.261 136.422 108.353C136.85 106.43 133.856 105.575 133.428 107.498C131.718 113.91 130.221 120.535 128.51 126.946C125.945 121.176 124.662 114.978 124.662 108.781C124.662 107.071 121.882 106.643 121.668 108.353C120.599 115.833 119.53 123.313 118.461 131.007C118.247 131.862 118.675 132.717 119.53 132.93C120.171 133.144 121.24 132.717 121.454 131.862C122.096 128.015 122.523 124.168 123.165 120.535C124.234 124.595 125.731 128.442 127.869 132.289C128.51 133.358 130.435 133.144 130.649 131.862Z" fill="black"/>
<path d="M149.249 107.071C147.539 111.986 145.828 116.688 144.118 121.603C143.049 116.688 142.407 111.559 142.193 106.643C142.193 104.72 138.986 104.72 139.2 106.643C139.414 113.055 140.483 119.466 141.766 125.664C141.766 126.091 141.979 126.305 142.407 126.519C141.979 128.015 141.338 129.297 140.91 130.793C140.91 130.793 140.91 130.793 140.91 131.007C140.696 131.648 140.483 132.289 140.269 132.93C139.627 134.854 142.621 135.495 143.262 133.785C146.256 125.237 149.249 116.688 152.243 108.353C152.671 106.002 149.891 105.147 149.249 107.071Z" fill="black"/>
<path d="M182.821 110.277C184.104 110.49 185.387 110.918 186.67 111.131C187.098 111.131 187.739 111.345 187.953 111.773C188.167 112.2 187.739 113.055 187.525 113.482C186.242 115.619 184.318 116.902 181.966 117.543C182.394 115.192 182.607 112.627 182.821 110.277ZM184.96 119.68C187.739 118.398 190.091 116.261 190.947 113.482C192.657 108.567 186.243 107.926 183.035 107.071C182.394 106.857 181.966 107.071 181.752 107.498C180.897 107.498 180.042 107.926 180.042 108.994C179.186 116.902 178.545 124.809 178.117 132.503C178.117 134.426 181.111 134.426 181.111 132.503C181.325 128.442 181.538 124.595 181.966 120.535C185.173 125.023 188.167 129.511 191.374 133.785C192.443 135.281 195.223 133.785 193.94 132.289C190.947 128.229 187.953 123.954 184.96 119.68Z" fill="black"/>
<path d="M205.059 127.801C204.845 128.87 204.631 129.938 204.204 130.793C203.99 131.434 203.776 133.144 203.135 133.571C201.638 134.854 200.782 130.793 200.569 129.938C200.141 127.801 199.927 125.664 199.713 123.527C199.499 119.68 199.927 116.047 200.996 112.414C201.21 112.414 201.638 112.2 201.852 111.986C202.493 111.559 203.348 111.986 203.776 112.414C204.417 113.055 204.845 114.123 205.059 115.192C205.487 117.329 205.7 119.253 205.914 121.39C205.7 123.741 205.487 125.878 205.059 127.801ZM205.487 110.063C204.204 108.994 202.707 108.781 201.424 109.208C200.782 108.353 199.072 108.139 198.644 109.635C197.147 114.123 196.506 118.825 196.72 123.741C196.72 126.091 197.147 128.442 197.575 130.793C198.003 132.717 198.43 134.854 200.141 136.136C201.638 137.205 203.776 137.418 205.273 135.922C206.556 134.426 207.197 132.075 207.625 130.152C208.694 125.664 208.908 120.962 208.266 116.474C207.839 114.123 207.197 111.559 205.487 110.063Z" fill="black"/>
<path d="M210.189 100.232C209.12 100.659 208.051 101.087 206.981 101.301C206.34 101.514 205.912 101.514 205.271 101.728C205.057 101.728 205.057 101.728 204.843 101.728C204.843 101.728 204.202 101.942 204.629 101.728C204.416 101.728 203.988 101.728 203.774 101.728C202.919 101.728 202.277 102.369 202.277 103.224C202.277 104.079 202.919 104.72 203.774 104.72C206.34 104.506 208.692 103.865 211.044 103.01C211.472 102.797 211.686 102.583 211.899 102.369C212.113 101.942 212.113 101.514 212.113 101.301C211.899 100.659 211.044 100.018 210.189 100.232Z" fill="black"/>
<path d="M228.792 111.131C228.364 116.261 228.15 121.39 228.15 126.519C225.37 122.245 223.66 117.543 223.018 112.627C222.805 111.131 220.453 110.49 220.025 112.2C218.956 116.688 217.673 121.176 216.39 125.664C215.962 120.749 215.535 115.619 215.535 110.704C215.535 108.781 212.541 108.781 212.541 110.704C212.755 118.184 213.182 125.45 214.252 132.717C214.252 133.358 215.107 133.785 215.748 133.785C216.39 133.785 217.031 133.358 217.245 132.717C218.956 128.229 220.239 123.741 221.522 119.039C223.018 123.741 225.37 128.229 228.792 132.075C229.647 133.144 231.358 132.289 231.358 131.007C231.144 124.382 231.358 117.757 231.999 111.131C231.999 109.208 228.792 109.208 228.792 111.131Z" fill="black"/>
<path d="M234.78 110.704C235.207 117.329 235.421 123.954 235.849 130.579C236.063 132.503 239.056 132.503 238.842 130.579C238.415 123.954 237.987 117.329 237.773 110.704C237.773 108.781 234.566 108.781 234.78 110.704Z" fill="black"/>
<path d="M254.45 130.579C251.884 131.007 249.104 131.221 246.538 131.221C246.324 128.229 246.111 125.237 246.111 122.245C246.324 122.245 246.324 122.245 246.538 122.245C246.966 122.245 247.394 122.245 248.035 122.245C248.249 122.245 248.463 122.245 248.676 122.245C248.676 122.245 248.676 122.245 248.89 122.245C249.104 122.245 249.104 122.245 249.318 122.245C249.746 122.245 250.173 122.458 250.601 122.458C251.456 122.672 252.311 122.245 252.525 121.39C252.739 120.535 252.311 119.68 251.456 119.466C249.746 119.039 248.035 118.825 246.324 119.039C246.324 117.757 246.324 116.261 246.324 114.978C246.324 114.123 246.324 113.055 246.538 112.2C246.538 111.773 246.538 110.704 246.538 109.849C246.752 109.849 246.966 110.063 247.18 110.063C247.821 110.277 248.463 110.49 249.104 110.704C250.387 111.131 251.67 111.559 252.953 112.2C254.664 112.841 255.519 110.063 253.808 109.208C252.311 108.567 251.029 108.139 249.532 107.712C248.249 107.285 246.752 106.643 245.469 106.643C243.972 106.857 243.759 108.139 243.545 109.208C243.331 110.704 243.331 112.414 243.117 113.91C242.689 120.107 242.903 126.305 243.545 132.503C243.545 133.358 244.186 133.999 245.041 133.999C248.463 133.999 251.884 133.785 255.091 133.358C257.229 133.144 256.374 130.152 254.45 130.579Z" fill="black"/>
<path d="M269.42 109.635C269.206 107.926 267.923 106.857 266.212 106.643C264.502 106.643 263.005 107.712 262.15 109.208C260.439 111.986 258.728 115.833 260.439 119.039C261.08 120.535 262.363 121.39 263.86 122.245C264.502 122.672 265.143 122.886 265.571 123.527C266.212 124.168 265.998 125.023 265.998 125.664C265.998 126.733 265.998 127.801 265.998 128.87C265.998 129.725 266.212 130.579 265.998 131.434C265.998 131.434 265.998 131.434 265.785 131.434C265.571 131.434 265.357 131.434 265.143 131.221C264.716 131.221 264.502 131.007 264.074 131.007C263.86 130.793 262.577 130.152 263.005 129.725C264.288 128.229 262.15 126.091 260.867 127.587C259.798 128.87 259.584 130.793 260.653 132.289C261.722 133.785 263.646 134.426 265.357 134.64C267.495 134.854 268.778 133.999 268.992 131.862C269.206 129.725 268.992 127.587 268.992 125.45C268.992 123.527 268.351 122.245 266.854 120.962C265.785 120.107 263.86 119.466 263.219 118.184C262.363 116.688 263.219 114.551 263.86 113.055C264.288 112.2 264.502 111.559 265.143 110.918C265.357 110.704 265.571 110.277 265.998 110.063C266.426 110.063 266.426 110.277 266.426 110.063C266.426 111.559 269.633 111.559 269.42 109.635Z" fill="black"/>
<path d="M273.054 99.5909C273.695 99.3771 274.337 98.5223 274.123 97.6674C273.909 97.0263 273.054 96.3852 272.199 96.5989C268.991 97.6674 265.998 99.1634 263.218 101.301C262.576 101.728 262.149 102.583 262.576 103.438C263.004 104.079 263.859 104.506 264.715 104.079C265.998 103.224 267.281 102.369 268.777 101.514C269.419 101.087 270.06 100.873 270.916 100.446C270.916 100.446 271.557 100.232 271.343 100.232C271.557 100.232 271.771 100.018 271.985 100.018C272.412 99.8046 272.84 99.8046 273.054 99.5909Z" fill="black"/>
<path d="M286.312 107.071C285.67 112.414 285.029 117.757 284.387 123.099C282.463 117.97 280.752 112.841 279.256 107.498C278.828 105.789 276.476 106.216 276.262 107.926C275.407 116.261 274.338 124.595 273.055 132.93C272.841 134.854 275.621 135.709 276.048 133.785C277.117 127.587 277.759 121.39 278.614 115.406C280.325 120.321 281.821 125.237 283.746 130.152C284.387 131.862 286.526 131.434 286.739 129.725C287.595 122.245 288.664 114.765 289.519 107.285C289.519 105.147 286.526 105.147 286.312 107.071Z" fill="black"/>
<path d="M294.223 107.498C293.796 115.619 293.582 123.954 293.154 132.075C293.154 133.999 296.148 133.999 296.148 132.075C296.575 123.954 296.789 115.619 297.217 107.498C297.217 105.575 294.223 105.575 294.223 107.498Z" fill="black"/>
<path d="M313.467 128.229L313.253 128.015C312.825 127.587 312.612 127.16 312.184 126.519C311.542 125.664 310.901 124.809 310.26 123.954C309.618 123.099 308.763 122.031 308.121 121.176C307.907 120.749 307.694 120.535 307.266 120.107C307.052 119.68 306.411 119.253 306.197 118.611C305.983 118.184 305.983 118.398 306.411 117.757C306.625 117.329 306.838 117.115 307.266 116.688C307.907 115.619 308.549 114.765 309.19 113.696C310.473 111.773 311.756 110.063 313.039 108.139C314.108 106.43 311.542 104.934 310.473 106.643C308.763 108.994 307.266 111.559 305.555 113.91C305.555 111.986 305.769 110.063 305.769 108.139C305.769 106.216 302.776 106.216 302.776 108.139C302.776 115.406 302.562 122.458 301.92 129.725C301.707 131.648 304.914 131.648 304.914 129.725C305.128 127.374 305.128 124.809 305.342 122.458C307.266 125.023 308.977 127.587 310.901 129.938C311.542 131.007 312.612 132.289 313.895 131.648C315.178 131.221 315.391 129.725 314.536 128.656C314.322 128.229 313.895 128.015 313.467 128.229Z" fill="black"/>
<path d="M326.937 124.382C326.295 125.878 324.157 130.366 321.805 128.229C320.094 126.519 320.522 123.099 320.522 120.962C320.522 117.543 320.949 113.91 321.591 110.49C324.584 109.422 326.723 112.2 327.364 114.765C328.433 117.97 328.006 121.39 326.937 124.382ZM321.591 107.498C320.736 106.857 319.453 107.071 319.025 108.139C317.528 112.627 317.314 117.329 317.314 122.031C317.314 125.237 317.528 129.297 320.522 131.221C324.157 133.358 327.578 129.725 329.075 126.733C330.785 122.886 331.427 118.398 330.358 114.337C329.502 110.49 325.867 106.43 321.591 107.498Z" fill="black"/>
<path d="M330.145 98.0949C328.007 98.5223 325.869 99.3772 323.944 100.446C323.303 100.873 322.875 101.728 323.303 102.583C323.731 103.224 324.586 103.651 325.441 103.224C325.869 103.01 326.297 102.797 326.724 102.583C326.938 102.369 327.152 102.369 327.366 102.155C327.366 102.155 327.579 102.155 327.579 101.942C328.435 101.514 329.504 101.301 330.573 101.087C331.428 100.873 331.856 100.018 331.642 99.1634C331.642 98.3086 331.001 97.8812 330.145 98.0949Z" fill="black"/>
<path d="M353.45 106.43C352.167 114.123 350.671 121.603 348.96 129.297C346.608 123.099 346.18 116.261 345.753 109.635C345.753 108.139 342.973 107.498 342.759 109.208C341.904 114.337 341.048 119.68 340.193 124.809C339.124 119.253 338.055 113.696 336.986 108.139C336.558 106.216 333.778 107.071 333.992 108.994C335.489 117.329 337.2 125.664 338.696 133.999C338.91 135.495 341.476 135.495 341.69 133.999C342.331 129.725 342.973 125.664 343.828 121.39C344.683 126.091 345.753 130.579 348.105 134.854C348.746 135.922 350.671 135.709 350.884 134.426C353.023 125.45 354.947 116.474 356.23 107.285C356.871 105.361 353.878 104.506 353.45 106.43Z" fill="black"/>
<path d="M374.833 107.071C374.619 116.261 374.405 125.45 374.191 134.64C374.191 136.563 376.971 136.563 377.185 134.64C377.185 134.213 377.185 133.785 377.399 133.144C377.399 132.93 377.399 132.717 377.399 132.503C377.613 123.954 377.826 115.406 378.04 106.857C378.04 104.934 374.833 104.934 374.833 107.071Z" fill="black"/>
<path d="M409.259 124.809C408.831 126.733 408.404 129.083 407.121 130.579C405.838 132.075 404.982 130.152 404.555 129.083C404.127 127.16 404.127 124.809 404.127 122.886C404.127 118.611 404.555 114.337 405.41 110.063C406.265 110.063 407.334 109.422 407.121 108.139C407.121 108.567 407.121 108.139 407.548 108.353C407.762 108.567 407.976 108.994 408.19 109.208C408.617 110.063 408.831 111.131 409.259 112.2C409.9 114.337 410.114 116.474 410.114 118.611C410.114 120.535 409.9 122.672 409.259 124.809ZM407.976 105.147C406.693 104.72 405.196 105.361 404.555 106.43C403.699 106.216 402.844 106.43 402.63 107.498C401.347 112.841 400.92 118.184 400.92 123.527C400.92 126.946 400.706 133.144 404.982 133.999C409.687 135.281 411.397 128.229 412.252 124.809C413.322 120.107 413.108 114.978 411.825 110.277C411.183 108.353 410.328 105.789 407.976 105.147Z" fill="black"/>
<path d="M420.164 113.482C418.453 111.345 419.309 107.926 421.661 106.43C423.371 105.575 421.875 102.797 420.164 103.865C417.812 105.147 416.529 107.712 416.315 110.277C416.315 111.559 416.529 112.841 416.957 113.91C417.598 115.406 418.667 116.261 419.95 117.115C422.302 119.253 422.944 122.672 421.661 125.664C421.019 127.16 419.95 128.442 418.667 129.511C418.453 129.511 417.812 129.938 418.24 130.152C418.026 130.152 417.598 129.297 417.598 129.083C417.17 128.229 416.957 127.374 416.743 126.519C416.529 124.595 413.535 125.45 413.749 127.374C413.963 129.083 414.818 131.434 416.315 132.503C417.812 133.785 419.522 132.717 420.805 131.648C423.585 129.297 425.296 125.878 425.296 122.245C425.296 120.535 424.868 118.611 423.799 117.115C422.73 115.619 421.233 114.765 420.164 113.482Z" fill="black"/>
<path d="M436.416 122.245C436.203 123.741 435.775 126.091 434.492 127.16C431.071 129.938 431.498 122.245 431.498 120.962C431.712 116.902 432.14 113.055 433.209 109.208C433.423 108.994 433.637 108.781 433.637 108.567C433.637 108.353 434.492 108.781 434.492 108.994C434.92 109.635 435.347 110.277 435.561 111.131C436.202 113.055 436.63 114.765 436.844 116.688C436.844 118.398 436.844 120.535 436.416 122.245ZM435.347 105.789C433.85 105.147 432.14 105.575 431.071 106.643C430.643 106.857 430.429 107.071 430.215 107.712C429.146 112.2 428.505 116.688 428.291 121.39C428.291 124.595 428.077 129.725 432.14 130.793C436.416 131.648 438.555 127.16 439.41 123.741C440.265 119.466 440.051 115.192 438.768 111.131C438.127 108.994 437.272 106.643 435.347 105.789Z" fill="black"/>
<path d="M438.982 97.6674C436.416 97.8811 434.064 98.9497 432.139 100.659C431.498 101.087 431.498 102.369 432.139 102.797C432.781 103.438 433.636 103.438 434.278 102.797L434.491 102.583L434.705 102.369L434.919 102.155C435.347 101.942 435.774 101.728 436.202 101.514C436.416 101.514 436.416 101.514 436.63 101.301C436.843 101.301 437.057 101.087 437.271 101.087C437.485 101.087 437.699 100.873 437.913 100.873C437.913 100.873 437.913 100.873 438.126 100.873H438.34C438.768 100.873 439.196 100.659 439.409 100.446C439.623 100.232 439.837 99.8046 439.837 99.3771C440.478 98.5223 439.837 97.6674 438.982 97.6674Z" fill="black"/>
<path d="M453.949 124.168C453.308 126.946 450.528 128.229 447.748 128.442C447.748 127.801 447.534 127.587 447.107 127.16C447.107 124.809 447.321 122.458 447.534 120.321C447.748 121.176 448.817 121.817 449.673 121.176L449.887 120.962C450.742 120.107 452.025 120.321 452.88 120.962C453.949 121.603 454.163 122.886 453.949 124.168ZM450.1 108.139C451.169 108.567 451.597 110.277 451.597 111.345C451.597 113.91 450.314 116.688 448.39 118.398C448.176 118.611 447.962 118.825 447.748 119.039C447.534 119.253 447.534 119.253 447.534 119.466C447.748 116.047 447.962 112.841 448.39 109.422V109.208C448.39 108.994 448.39 108.994 448.39 108.781C448.39 107.926 449.673 107.926 450.1 108.139ZM453.949 117.97C453.522 117.757 453.308 117.757 452.88 117.543C454.591 114.765 455.446 111.559 454.163 108.567C453.308 106.43 451.811 104.934 449.459 104.934C447.321 104.934 445.61 106.43 445.396 108.567V108.781C445.396 108.994 445.396 108.994 445.396 109.208C444.755 116.047 444.327 122.886 444.113 129.725C444.113 130.579 444.541 131.007 445.182 131.221C445.396 131.648 445.824 131.862 446.465 131.862C451.383 131.862 457.157 129.297 457.37 123.527C457.157 120.962 455.874 118.825 453.949 117.97Z" fill="black"/>
<path d="M8.76693 183.153C8.55311 175.459 8.76693 167.766 9.19458 160.072C13.2572 162.637 14.3264 167.979 14.1125 172.467C13.8987 176.314 12.6158 181.657 8.76693 183.153ZM9.40841 156.653C8.98076 155.37 6.41487 155.584 6.41487 157.294C6.41487 157.507 6.41487 157.721 6.41487 157.935C5.77339 166.483 5.55957 175.032 5.98722 183.581H5.77339C3.84897 183.367 3.84897 186.359 5.77339 186.573C9.19458 187 12.1881 185.077 14.3264 182.512C16.4646 179.734 17.3199 176.101 17.3199 172.681C17.5337 166.697 15.6093 159.431 9.40841 156.653Z" fill="black"/>
<path d="M31.6478 177.81C31.2201 179.306 30.5786 181.23 29.5095 182.298C28.2266 183.367 26.3022 182.298 25.233 181.443C22.4533 179.093 22.0257 175.459 21.8118 172.04C21.8118 168.621 22.0257 165.201 23.3086 162.209C24.1639 162.637 25.233 162.423 25.6607 161.354H26.0883C26.516 161.354 26.7298 161.354 27.1575 161.568C28.0127 161.782 28.868 162.209 29.5095 162.85C30.7925 163.919 31.4339 165.629 32.0754 167.125C32.7169 170.544 32.7169 174.391 31.6478 177.81ZM28.2266 158.79C26.9436 158.362 25.0192 158.149 23.9501 158.79C23.3086 158.149 22.0257 157.935 21.3842 159.003C18.8183 163.278 18.3907 168.407 18.8183 173.322C19.0321 177.81 20.5289 182.939 25.0192 185.077C27.1575 186.145 29.7233 186.359 31.4339 184.649C33.1445 183.153 33.9998 180.589 34.6413 178.665C35.9243 173.963 36.1381 168.407 33.9998 164.133C32.7169 161.568 30.7925 159.645 28.2266 158.79Z" fill="black"/>
<path d="M45.1161 164.346C44.9022 166.697 42.9778 168.621 41.2672 170.33C41.2672 167.125 41.2672 163.919 41.2672 160.499C43.8331 159.431 45.5437 161.995 45.1161 164.346ZM49.6064 182.085C49.3925 181.871 48.9649 181.443 48.9649 181.23C48.7511 180.802 48.3234 180.375 48.1096 179.947C47.4681 179.093 46.8266 178.024 46.1852 177.169C45.1161 175.673 44.0469 174.177 42.9778 172.467C45.7575 169.903 48.5372 166.697 47.8958 162.637C47.4681 159.217 43.8331 156.011 40.1981 157.507C39.9843 157.507 39.7704 157.721 39.5566 157.935C38.7013 157.935 37.846 158.362 37.846 159.431C37.846 165.629 37.846 171.826 37.846 177.81C37.846 179.306 37.846 180.802 37.846 182.298C37.846 183.367 37.6322 184.863 38.4875 185.718C40.4119 187.427 42.5502 184.649 40.8396 183.153V182.939C40.8396 182.298 40.8396 181.871 40.8396 181.23C40.8396 180.161 40.8396 179.306 40.8396 178.238C40.8396 177.169 40.8396 176.314 40.8396 175.246C42.5502 177.81 44.0469 180.161 45.7575 182.726C46.399 183.794 47.2543 185.718 48.9649 185.718C50.6755 185.718 51.1031 183.794 50.034 182.726C50.2478 182.298 50.034 182.085 49.6064 182.085Z" fill="black"/>
<path d="M60.7262 181.016C60.2986 181.871 59.6571 182.726 59.0156 183.367C58.588 183.794 58.8018 184.008 58.3742 183.581C57.9465 183.367 57.9465 182.512 57.7327 182.085C56.8774 179.947 56.2359 177.597 56.0221 175.246C55.1668 170.544 55.1668 165.629 56.2359 160.927C56.4497 160.927 56.4497 160.927 56.6636 160.927C58.588 160.286 60.5124 161.354 61.5815 162.85C62.8645 164.774 63.0783 167.125 63.0783 169.262C63.0783 173.322 62.6507 177.597 60.7262 181.016ZM55.5944 157.935C55.1668 158.149 54.7392 158.362 54.7392 158.79C54.0977 158.79 53.4562 159.003 53.2424 159.858C52.1733 164.774 52.1733 169.689 52.8147 174.818C53.2424 177.383 53.67 179.734 54.5253 182.085C55.1668 183.794 55.8083 186.359 57.9465 186.786C60.0848 187.427 61.5815 185.29 62.6507 183.794C63.7198 182.085 64.5751 180.375 65.2165 178.451C66.2857 174.391 66.7133 169.475 65.858 165.415C64.5751 160.927 60.5124 156.439 55.5944 157.935Z" fill="black"/>
<path d="M75.9085 167.979C74.8394 167.125 73.7702 166.483 72.9149 165.415C72.0596 164.56 71.8458 163.491 72.9149 162.423C73.7702 161.568 74.8394 161.354 75.9085 161.995C77.6191 163.064 79.1158 160.499 77.4053 159.431C74.8394 157.721 71.2043 159.003 69.9214 161.782C68.2108 164.987 70.7767 167.766 73.3426 169.689C75.9085 171.613 78.6882 174.391 78.0467 178.238C77.8329 179.734 76.7638 181.23 75.4808 181.871C74.8394 182.298 73.9841 182.512 73.3426 182.298C72.9149 182.298 71.8458 181.871 72.0596 181.23C72.4873 179.306 69.4937 178.451 69.0661 180.375C68.4246 183.367 71.4182 185.504 74.4117 185.29C77.4052 184.863 79.7573 182.726 80.8264 180.161C81.8956 177.383 81.2541 173.963 79.5435 171.613C78.2605 170.117 77.1914 169.048 75.9085 167.979Z" fill="black"/>
<path d="M95.5797 182.085C93.0138 182.726 90.2341 183.153 87.6682 183.581C87.882 180.589 87.882 177.597 87.882 174.605C89.3788 174.391 90.8756 174.391 92.3724 174.177C92.8 174.177 93.2277 173.963 93.4415 173.75C93.6553 173.536 93.8691 173.109 93.8691 172.681C93.8691 171.826 93.2277 170.971 92.3724 171.185C90.8756 171.399 89.5926 171.399 88.0959 171.613C88.3097 167.552 88.3097 163.491 88.5235 159.431C88.5235 157.507 85.53 157.507 85.53 159.431C85.3162 163.705 85.3161 167.766 85.1023 172.04C84.8885 172.04 84.6747 172.254 84.4609 172.467C84.247 172.681 84.0332 173.109 84.0332 173.536C84.0332 174.177 84.4609 174.818 84.8885 175.032C84.6747 178.451 84.6747 182.085 84.4609 185.504C84.4609 186.359 85.1023 187 85.9576 187C89.3788 186.786 93.0138 186.145 96.435 185.29C98.3594 184.435 97.5041 181.443 95.5797 182.085Z" fill="black"/>
<path d="M98.5734 157.294C98.3596 157.294 98.3596 157.294 98.5734 157.294V157.294ZM108.837 155.157C107.554 159.645 106.485 164.133 105.416 168.621C105.416 168.407 105.416 168.193 105.202 167.979C104.988 166.911 104.774 166.056 104.347 164.987C103.705 162.85 103.064 160.927 102.208 158.79C101.781 157.721 101.353 156.653 100.925 155.798C100.498 154.943 99.6425 154.302 98.5734 154.302C96.4351 154.515 96.649 157.721 98.5734 157.935C98.7872 158.362 98.7872 158.79 99.001 159.003C99.4287 159.858 99.6425 160.713 100.07 161.782C100.712 163.491 101.353 165.415 101.781 167.338C101.995 168.193 102.208 169.048 102.422 169.903C102.636 170.758 102.636 171.826 103.278 172.681C103.491 173.109 103.919 173.322 104.347 173.322C103.919 176.101 103.278 178.879 103.064 181.657C103.064 182.085 102.85 182.512 102.85 182.939C102.636 184.863 105.416 185.718 105.843 183.794C107.126 174.391 109.051 164.987 111.617 155.798C112.258 154.088 109.478 153.233 108.837 155.157Z" fill="black"/>
<path d="M121.667 157.08C118.246 157.935 116.749 161.995 115.894 164.987C114.611 168.407 113.969 172.254 114.183 175.887C114.183 178.879 114.611 182.726 117.604 184.435C118.887 185.077 120.812 185.29 122.095 184.435C122.736 184.008 123.378 183.581 123.591 182.726C123.805 182.298 123.805 182.085 124.019 181.657C124.019 181.443 124.233 181.443 124.233 181.23C125.088 181.016 125.516 180.161 125.302 179.306C125.088 178.451 124.233 178.238 123.378 178.238C122.095 178.451 121.453 179.52 121.025 180.589C120.598 181.443 119.956 181.871 118.887 181.443C116.535 180.375 116.749 175.673 116.963 173.75C117.177 170.544 117.818 167.125 119.101 164.133C119.743 162.85 120.384 161.141 121.453 160.286C121.881 160.072 122.308 159.645 122.736 159.858C122.95 159.858 123.378 160.286 123.378 160.499C122.308 162.209 125.088 163.705 125.943 161.995C127.654 159.431 124.447 156.439 121.667 157.08Z" fill="black"/>
<path d="M139.628 168.193C139.842 164.133 140.269 160.072 140.697 156.011C140.911 154.088 137.917 154.088 137.703 156.011C137.276 160.072 137.062 164.133 136.634 168.193C135.565 168.193 134.71 168.193 133.641 168.193C133.641 164.346 133.855 160.499 133.855 156.653C133.855 154.729 130.861 154.729 130.861 156.653C130.861 160.499 130.647 164.346 130.647 168.193C130.433 168.193 130.006 168.193 129.792 168.193C129.15 168.193 128.509 168.621 128.295 169.262C128.081 169.903 128.509 170.544 128.937 170.971C129.364 171.185 129.578 171.399 130.006 171.613C130.22 171.826 130.433 171.826 130.647 171.826C130.647 175.032 130.433 178.024 130.433 181.23C130.433 183.153 133.427 183.153 133.427 181.23C133.427 177.81 133.641 174.605 133.641 171.185C134.496 171.185 135.565 171.185 136.42 171.185C136.207 173.536 135.993 175.887 135.779 178.238C135.565 178.451 135.565 178.665 135.565 179.093C135.565 179.52 135.565 180.161 135.565 180.589C135.565 182.512 138.345 182.512 138.559 180.589C138.773 177.383 138.986 174.391 139.414 171.185H139.628C140.483 171.185 141.125 170.544 141.125 169.689C141.125 169.048 140.483 168.193 139.628 168.193Z" fill="black"/>
<path d="M154.382 180.375C153.74 179.734 152.885 179.306 151.816 179.306C151.388 179.306 150.747 179.306 150.319 179.52C150.105 179.52 150.105 179.52 149.891 179.52C149.678 179.52 149.678 179.52 149.464 179.734C149.25 179.734 149.25 179.947 149.036 180.161C148.609 180.375 148.395 180.802 148.181 181.016C147.967 181.443 147.753 182.085 147.753 182.512C147.539 183.794 148.395 185.504 149.891 185.718C150.105 185.718 150.105 185.718 150.319 185.718C151.174 186.145 152.244 186.145 153.099 185.504C153.954 185.077 154.596 184.222 154.809 183.367C155.023 182.726 155.023 182.298 154.809 181.657C154.809 181.23 154.596 180.802 154.382 180.375Z" fill="black"/>
</g>
<defs>
<clipPath id="clip0_6_643">
<rect width="572.835" height="187" fill="white"/>
</clipPath>
</defs>
</svg>
