<svg width="504" height="15" viewBox="0 0 504 15" fill="none" xmlns="http://www.w3.org/2000/svg">
<path d="M1.60046 12.1765C-0.53287 12.1765 -0.355092 14.8235 1.60046 14.8235C3.7338 15 3.55602 12.1765 1.60046 12.1765Z" fill="black"/>
<path d="M16.0008 7.05884C14.4008 7.05884 14.4008 9.17648 16.0008 9.17648C17.423 9.17648 17.423 7.05884 16.0008 7.05884Z" fill="black"/>
<path d="M35.9109 8.11768C34.3109 8.11768 34.3109 10.2353 35.9109 10.2353C37.5109 10.2353 37.5109 8.11768 35.9109 8.11768Z" fill="black"/>
<path d="M54.0451 6.52942C53.8674 6.00001 53.5118 5.64707 53.1563 5.4706C52.2674 4.76472 51.2007 4.41177 50.134 4.58824C49.7785 4.58824 49.4229 4.76472 49.0674 4.76472C48.3563 4.94119 47.8229 5.29413 47.2896 5.82354C46.934 6.17648 46.5785 6.52942 46.4007 6.88236C46.0451 7.2353 45.6896 7.58824 45.5118 8.11766C45.334 8.4706 45.1562 9.00001 45.1562 9.52942C45.1562 10.0588 45.334 10.4118 45.5118 10.9412C45.6896 11.4706 46.0451 11.8235 46.4007 12C47.2896 12.5294 48.3563 13.0588 49.4229 12.8824C50.4896 12.7059 51.5563 12.5294 52.2674 11.6471C52.6229 11.1177 52.9785 10.7647 53.334 10.5882C53.6896 10.2353 54.0451 9.88236 54.2229 9.35295C54.4007 9.00001 54.5785 8.4706 54.5785 7.94119C54.5785 7.41177 54.4007 6.88236 54.0451 6.52942Z" fill="black"/>
<path d="M73.4246 7.76471C72.0023 7.76471 70.4023 8.82353 70.4023 10.4118C70.4023 12 72.1801 12.8824 73.6024 12.8824C75.0246 12.8824 76.6246 11.8235 76.6246 10.2353C76.6246 8.64706 74.8468 7.76471 73.4246 7.76471Z" fill="black"/>
<path d="M96.7115 9.17649C96.7115 8.64707 96.3559 8.11766 95.8226 7.76472C95.6448 7.58825 95.2892 7.41178 95.1115 7.41178C94.9337 7.41178 94.5781 7.41178 94.4004 7.41178C94.4004 7.41178 94.4004 7.41178 94.2226 7.41178C93.3337 7.23531 92.6226 7.41178 91.7337 7.58825C91.3781 7.76472 90.8448 7.94119 90.4893 8.29413C90.1337 8.64707 89.7781 9.17649 89.6004 9.7059C88.8893 11.8235 91.2004 13.5883 93.1559 13.4118C94.0448 13.4118 94.9337 13.0588 95.6448 12.5294C96.0004 12.1765 96.3559 11.6471 96.5337 11.1177C96.7115 10.5883 96.7115 10.0588 96.5337 9.52943C96.8892 9.35296 96.8893 9.17649 96.7115 9.17649Z" fill="black"/>
<path d="M112.178 7.94116C108.623 7.94116 108.623 12.5294 112.178 12.5294C115.734 12.5294 115.734 7.94116 112.178 7.94116Z" fill="black"/>
<path d="M146.489 7.58826C144.889 7.58826 143.289 8.64708 143.289 10.2353C143.289 12 145.067 12.8824 146.667 12.8824C148.267 12.8824 149.867 11.8236 149.867 10.2353C149.689 8.47061 147.911 7.58826 146.489 7.58826Z" fill="black"/>
<path d="M167.468 5.82355C163.912 5.82355 164.09 10.2353 167.468 10.2353C171.023 10.2353 171.023 5.82355 167.468 5.82355Z" fill="black"/>
<path d="M200.888 4.7647C200.711 4.41175 200.533 4.23528 200.177 4.05881C199.822 3.88234 199.288 3.70587 198.933 3.70587C198.4 3.70587 197.866 3.70587 197.333 3.88234C196.977 3.88234 196.8 3.88234 196.444 4.05881C196.088 4.23528 195.911 4.23528 195.555 4.41175C195.2 4.58822 194.844 4.94117 194.488 5.29411C194.311 5.47058 194.133 5.64705 193.955 5.99999C193.777 6.17646 193.777 6.35293 193.777 6.70587C193.777 7.05881 193.777 7.23528 193.777 7.58822C193.777 7.94117 193.955 8.11764 194.133 8.29411C194.311 8.64705 194.488 8.99999 195.022 9.17646L195.733 9.70587C196.088 9.88234 196.266 9.88234 196.622 10.0588H197.688C198.044 10.0588 198.4 9.88234 198.755 9.88234C199.111 9.70587 199.288 9.70587 199.644 9.5294C200 9.35293 200.355 8.99999 200.711 8.64705C200.888 8.47058 201.066 8.29411 201.244 7.94117C201.422 7.58822 201.6 7.23528 201.6 6.70587V6.5294V6.35293C201.6 6.17646 201.6 5.99999 201.777 5.82352C201.777 5.64705 201.777 5.47058 201.6 5.29411L200.888 4.7647Z" fill="black"/>
<path d="M236.266 2.64704C235.91 2.47057 235.377 2.2941 234.844 2.11762C233.955 1.94115 233.066 1.94115 232.355 2.29409C231.644 2.47057 230.933 2.82351 230.399 3.35292C230.221 3.52939 229.866 3.88233 229.688 4.23527C229.51 4.58821 229.333 4.94115 229.333 5.2941C229.155 5.64704 229.155 6.17645 229.333 6.52939C229.333 6.88233 229.51 7.41174 229.866 7.76468C230.399 8.47057 231.288 8.99998 232.177 9.17645C233.244 9.35292 234.31 9.17645 235.199 8.82351C235.377 8.64704 235.555 8.64704 235.733 8.47057C236.444 8.2941 237.51 7.76468 237.866 6.88233C238.221 6.17645 238.577 5.2941 238.221 4.41174C237.688 3.52939 236.977 2.99998 236.266 2.64704Z" fill="black"/>
<path d="M265.958 4.41174C264.536 4.41174 262.758 5.47057 262.758 7.0588C262.758 8.64704 264.536 9.70586 266.136 9.70586C267.558 9.70586 269.336 8.64704 269.336 7.0588C269.158 5.2941 267.38 4.41174 265.958 4.41174Z" fill="black"/>
<path d="M307.911 3C306.311 3 304.355 4.23529 304.355 6C304.355 7.94118 306.311 8.82353 308.089 8.82353C309.689 8.82353 311.644 7.58824 311.644 5.82353C311.467 3.88235 309.511 3 307.911 3Z" fill="black"/>
<path d="M356.088 4.23532C355.91 4.05885 355.91 3.88237 355.732 3.7059C355.377 3.35296 355.021 3.17649 354.666 2.82355C354.31 2.64708 353.777 2.47061 353.421 2.47061C353.066 2.29414 352.71 2.29414 352.354 2.47061C351.821 2.47061 351.466 2.64708 351.11 2.82355C350.932 3.00002 350.577 3.17649 350.399 3.35296C349.866 3.52943 349.51 4.05885 349.154 4.41179C348.799 4.9412 348.621 5.29414 348.621 6.00002C348.621 6.88237 349.154 7.58826 349.688 8.11767C350.399 8.64708 351.466 9.00002 352.354 9.00002C353.599 9.00002 354.843 8.47061 355.377 7.41179C355.554 7.23531 355.732 6.88237 355.732 6.7059C355.91 6.52943 356.088 6.17649 356.088 6.00002C356.266 5.47061 356.266 5.29414 356.088 4.76473C356.266 4.58826 356.266 4.41179 356.088 4.23532Z" fill="black"/>
<path d="M415.29 2.82355C413.512 2.82355 411.734 4.05884 411.734 6.00002C411.734 7.9412 413.868 8.82355 415.468 8.82355C417.245 8.82355 419.023 7.58825 419.023 5.64708C419.023 3.88237 416.89 2.82355 415.29 2.82355Z" fill="black"/>
<path d="M438.579 0C437.157 0 435.379 1.05882 435.379 2.64706C435.379 4.23529 437.157 5.11765 438.579 5.11765C440.001 5.11765 441.779 4.05882 441.779 2.47059C441.779 0.882353 440.001 0 438.579 0Z" fill="black"/>
<path d="M461.867 1.05884C459.556 1.05884 459.378 4.05884 461.867 4.05884C464.178 4.05884 464.178 1.05884 461.867 1.05884Z" fill="black"/>
<path d="M480.534 1.41174C476.978 1.41174 476.978 5.99998 480.534 5.99998C484.267 5.99998 484.267 1.41174 480.534 1.41174Z" fill="black"/>
<path d="M501.689 5.11768C498.666 5.11768 498.666 9.00003 501.689 9.00003C504.711 9.00003 504.711 5.11768 501.689 5.11768Z" fill="black"/>
</svg>
