<svg width="260" height="192" viewBox="0 0 260 192" fill="none" xmlns="http://www.w3.org/2000/svg">
<path d="M14.2815 18.0522C14.2815 20.8381 14.1699 23.6239 14.1699 26.4097C14.1699 29.1956 14.1699 31.9814 14.1699 34.7672C14.1699 37.5531 14.0583 40.3389 14.1699 43.1248C14.1699 43.7934 14.6163 44.462 15.2858 44.5734C15.8438 44.6848 16.7365 44.5734 16.848 43.9048C16.9596 43.4591 17.0712 43.0133 17.1828 42.679C17.2944 42.2333 17.1828 41.899 16.9596 41.5647C16.9596 39.4475 16.9596 37.3302 16.9596 35.213C16.9596 32.4271 16.9596 29.6413 16.9596 26.8555C16.9596 24.0696 16.9596 21.2838 16.848 18.3865C16.848 15.935 16.9596 13.372 16.5133 10.9205C18.6334 10.809 20.7536 10.809 22.8738 10.809C23.9897 10.809 25.2171 10.9205 26.333 10.9205C27.5605 11.0319 28.788 11.2548 30.127 11.2548C30.7965 11.2548 31.3545 10.5862 31.2429 9.91756C31.2429 9.24896 30.685 8.58036 29.9038 8.46893C28.6764 8.24606 27.3373 8.24606 26.1098 8.13463C24.8824 8.02319 23.6549 8.02319 22.4274 8.02319C19.9725 8.02319 17.5176 8.02319 15.0626 8.24606C12.6077 8.69179 10.1528 9.0261 7.80942 9.3604C5.35448 9.80613 2.89954 10.2519 0.667785 11.0319C-0.67127 11.4776 0.333021 13.2606 1.56049 12.9263C5.80083 12.0348 10.1528 11.4776 14.5047 11.1433C14.1699 13.4834 14.2815 15.8235 14.2815 18.0522Z" fill="black"/>
<path d="M25.3323 16.2693C25.3323 16.2693 25.3323 16.3807 25.3323 16.2693C24.7743 16.4922 24.7743 17.2722 25.2207 17.7179C24.7743 21.7296 24.5512 25.6297 24.328 29.6413C24.1048 34.0987 23.8816 38.6675 23.5469 43.1248C23.5469 43.9048 24.2164 44.5734 24.9975 44.5734C27.3409 44.5734 29.6842 44.3506 32.0276 44.3506C34.3709 44.2391 36.7143 44.3506 39.0576 44.2391C39.8387 44.2391 40.3967 43.4591 40.1735 42.7905C40.0619 42.0105 39.2808 41.4533 38.4997 41.4533C36.1563 41.3419 33.813 41.5647 31.5812 41.6762C29.7958 41.7876 27.8988 41.899 26.1134 42.1219L26.5597 32.3157C27.564 32.4272 28.5683 32.4272 29.6842 32.5386C30.2422 32.5386 30.9117 32.5386 31.4696 32.5386C32.1392 32.5386 32.8087 32.65 33.4782 32.4272C34.0361 32.3157 34.3709 31.6471 34.2593 31.09C34.1477 30.4214 33.7014 30.0871 33.0319 29.8642C32.3623 29.7528 31.6928 29.7528 31.0233 29.7528C30.4653 29.7528 29.7958 29.7528 29.2379 29.7528C28.3452 29.7528 27.564 29.8642 26.6713 29.8642C26.7829 25.964 27.0061 22.0639 26.8945 18.1637C29.0147 18.498 31.1349 18.6094 33.3666 18.6094C35.8216 18.7208 38.3881 18.8323 40.9546 18.7208C41.6241 18.6094 42.1821 18.0522 41.9589 17.3836C41.8473 16.6036 41.1778 16.2693 40.3967 16.1579C37.9417 16.0464 35.4868 16.2693 33.0319 16.2693C30.9117 16.2693 28.9031 16.1579 26.7829 16.1579C26.4482 15.7121 25.4439 15.4893 25.3323 16.2693Z" fill="black"/>
<path d="M46.7562 37.776C46.8678 35.6587 46.9794 33.6529 47.091 31.5357C47.3142 29.1956 47.6489 26.8555 48.0953 24.6268C48.3185 23.5125 48.7648 22.3982 49.0996 21.2838C49.4343 20.3924 49.7691 19.5009 49.9923 18.6094C50.1039 18.498 50.2155 18.3865 50.4386 18.2751C51.1082 17.9408 51.7777 17.9408 52.4472 18.3865C54.0095 19.278 54.4558 21.3953 54.679 23.0668C55.3485 27.4127 55.0137 31.87 53.7863 36.1045C53.2283 37.9989 52.5588 40.2275 51.1082 41.5647C50.1039 42.4562 48.4301 43.0134 47.6489 42.0105C46.7562 40.7847 46.7562 39.0018 46.7562 37.776ZM46.3099 44.1277C48.2069 45.6878 50.9966 45.3535 52.8936 43.7934C54.7906 42.1219 55.7949 39.6704 56.4644 37.3302C58.0266 32.3157 58.473 26.6326 57.3571 21.5067C56.6876 18.7208 55.1253 16.0464 52.1125 15.3778C49.4343 14.7092 46.1983 16.8265 47.091 19.7238C46.9794 19.8352 46.9794 20.0581 46.8678 20.1695C46.4215 21.2838 45.9751 22.5096 45.7519 23.7354C45.0824 26.1869 44.7477 28.7499 44.5245 31.3128C44.3013 33.6529 44.0781 36.1045 44.0781 38.4446C44.0781 40.4504 44.5245 42.6791 46.3099 44.1277Z" fill="black"/>
<path d="M67.7325 19.1666C68.5136 19.278 69.1832 19.5009 69.8527 19.8352C70.9686 20.6152 71.6381 21.9524 71.7497 23.2896C71.7497 26.2983 68.8484 28.3041 66.1703 28.7498C66.0587 28.7498 65.8355 28.8613 65.7239 28.8613C65.7239 25.6297 65.7239 22.3981 65.5008 19.1666C66.1703 19.278 66.9514 19.0551 67.7325 19.1666ZM63.8269 45.7992C64.4965 45.7992 65.0544 45.4649 65.166 44.6848C65.5008 42.3447 65.3892 40.0046 65.5008 37.6645C65.6123 35.6587 65.6123 33.7644 65.6123 31.7585C68.6252 36.4388 71.7497 41.119 74.7626 45.7992C75.2089 46.4678 76.3248 46.6906 77.1059 46.2449C77.887 45.6877 77.7754 44.7963 77.3291 44.0162C74.5394 39.6703 71.6381 35.4359 68.7368 31.0899C72.196 29.7527 75.0973 26.9669 74.651 22.9553C74.4278 20.6152 72.9771 18.498 70.9686 17.3836C69.9643 16.8265 68.8484 16.6036 67.7325 16.4922C66.9514 16.4922 66.0587 16.6036 65.2776 16.9379C65.2776 16.715 65.2776 16.4922 65.2776 16.2693C65.166 15.2664 63.269 14.9321 63.269 16.1579C63.0458 20.8381 63.0458 25.4068 62.9342 30.087C62.9342 32.4271 62.8226 34.6558 62.7111 36.9959C62.5995 38.8903 62.4879 40.7847 62.3763 42.7905C62.3763 42.9019 62.2647 42.9019 62.2647 43.0133C62.1531 43.5705 62.1531 43.9048 62.3763 44.462C62.5995 45.242 63.1574 45.7992 63.8269 45.7992Z" fill="black"/>
<path d="M81.126 45.3535C81.126 45.4649 81.2376 45.4649 81.2376 45.5763V45.6878C81.2376 45.7992 81.2376 45.7992 81.3492 45.9106C81.9071 46.9135 83.3578 47.3593 83.9157 46.1335C84.1389 45.5763 84.1389 44.9077 84.1389 44.2391C84.1389 43.682 84.1389 43.1248 84.1389 42.4562C84.1389 41.2304 84.1389 40.0047 84.2505 38.8903C84.2505 36.5502 84.3621 34.2101 84.4737 31.87C84.5852 29.5299 84.6968 27.1898 84.8084 24.8497C84.8084 23.7354 84.92 22.5096 84.92 21.3953C84.92 20.1695 84.8084 18.8323 84.8084 17.6065C84.8084 16.9379 83.6926 16.3807 83.4694 17.1608C83.1346 18.3865 82.7998 19.5009 82.5767 20.7267C82.3535 21.841 82.2419 22.9553 82.1303 24.1811C81.7956 26.6326 81.684 29.0842 81.4608 31.5357C81.3492 33.8758 81.2376 36.3273 81.126 38.7789C81.126 40.0047 81.0144 41.2304 81.0144 42.3448C81.0144 43.2362 80.9029 44.1277 81.0144 45.0192C81.0144 44.9077 81.0144 45.1306 81.126 45.3535Z" fill="black"/>
<path d="M97.3042 24.8497C97.5274 24.0697 97.7506 23.2896 97.9738 22.621C98.0853 22.3982 98.0853 22.1753 98.1969 21.9524C98.3085 22.1753 98.3085 22.5096 98.3085 22.7325C98.4201 23.5125 98.4201 24.2925 98.4201 24.9611C98.5317 27.9698 98.5317 30.9785 98.6433 33.9873C97.7506 34.0987 96.7463 34.2101 95.8536 34.2101C95.5188 34.2101 95.0725 34.2101 94.7377 34.2101C95.5188 31.09 96.2999 27.9698 97.3042 24.8497ZM98.5317 21.2838C98.5317 21.3953 98.4201 21.3953 98.5317 21.2838C98.4201 21.2838 98.5317 21.2838 98.5317 21.2838ZM90.3858 43.9048C90.3858 44.462 90.7205 44.9077 91.1669 45.0192C91.6132 45.1306 92.1712 45.0192 92.3944 44.462C92.9523 42.9019 93.1755 41.2304 93.5102 39.5589C93.7334 38.6675 93.845 37.776 94.0682 36.8845C94.5145 36.8845 94.9609 36.996 95.4072 36.996C96.5231 36.996 97.639 36.996 98.6433 36.8845C98.6433 38.3332 98.7549 39.7818 98.7549 41.2304C98.7549 42.2333 98.8665 43.2362 98.8665 44.2391C98.8665 45.242 98.8664 46.3564 98.978 47.3593C99.2012 49.0308 101.768 49.1422 101.991 47.5821C102.103 46.5792 101.991 45.6878 101.879 44.6849C101.879 43.682 101.768 42.6791 101.768 41.6762C101.656 39.8932 101.656 38.2217 101.545 36.4388C101.768 36.4388 101.991 36.3274 102.214 36.3274C102.437 36.3274 102.66 36.2159 102.884 36.2159H103.218C103.33 36.2159 103.665 36.3274 103.665 36.3274C103.776 36.4388 104.111 36.5502 103.999 36.4388C104.446 36.7731 105.115 36.8845 105.673 36.5502C106.12 36.2159 106.343 35.5473 106.008 34.9902C105.004 33.0958 103.218 33.0958 101.433 33.4301C101.321 30.3099 101.21 27.1898 100.987 24.0697C100.875 22.3982 100.763 20.7267 99.536 19.5009C98.8664 18.8323 97.9737 18.498 97.081 18.7209C96.1883 18.9437 95.742 19.6123 95.4072 20.3924C94.7377 22.0639 94.2913 23.8468 93.845 25.6297C93.2871 27.4127 92.8407 29.1956 92.3944 31.09C92.1712 32.2043 91.8364 33.3187 91.6132 34.433H91.5016C90.4974 34.5444 90.3858 35.8816 91.1669 36.3274C91.0553 36.6617 91.0553 37.1074 90.9437 37.4417C90.8321 39.5589 90.2742 41.7876 90.3858 43.9048Z" fill="black"/>
<path d="M143.835 33.0958C143.947 33.0958 144.059 33.0958 143.835 33.0958V33.0958ZM132.9 44.9077C134.351 44.9077 135.913 45.0192 137.363 45.0192C138.033 45.0192 138.814 45.0192 139.484 45.1306C140.265 45.1306 141.046 45.242 141.827 45.0192C142.943 44.5734 142.831 42.9019 141.715 42.5676C140.265 42.1219 138.479 42.3447 137.029 42.3447C136.024 42.3447 135.132 42.3447 134.127 42.3447C134.239 39.2246 134.462 36.1045 134.685 32.9843C135.132 33.0958 135.578 33.0958 136.024 33.0958C137.029 33.0958 138.033 33.0958 138.926 33.0958C139.818 33.0958 140.823 33.0958 141.715 33.0958C142.162 33.0958 142.608 33.0958 143.166 33.0958C143.278 33.0958 143.501 33.0958 143.612 33.0958C143.724 33.0958 143.724 33.2072 143.835 33.2072C144.282 33.5415 145.063 33.5415 145.621 33.2072C146.402 32.65 146.29 31.7586 145.844 31.09C145.063 29.9756 143.724 30.0871 142.496 30.1985C141.381 30.3099 140.265 30.3099 139.149 30.4214C138.033 30.5328 136.917 30.5328 135.801 30.6442C135.466 30.6442 135.132 30.7557 134.797 30.7557C135.02 26.8555 135.243 23.0667 135.243 19.1666C136.917 19.278 138.479 19.3894 140.153 19.3894C142.05 19.3894 143.947 19.5009 145.844 19.5009C146.29 19.5009 146.625 19.1666 146.848 18.8323C146.848 18.8323 146.848 18.8323 146.848 18.7208C147.072 18.3865 146.848 17.9408 146.625 17.6065C145.844 16.6036 144.393 16.9379 143.278 16.9379C142.273 16.9379 141.269 16.9379 140.376 16.9379C138.591 16.9379 136.805 17.0493 134.908 17.1608C134.462 16.715 133.569 16.6036 133.458 17.4951C132.9 21.7295 132.565 26.0755 132.342 30.3099C132.007 34.6558 131.784 38.8903 131.338 43.2362C131.226 44.3506 132.119 44.9077 132.9 44.9077Z" fill="black"/>
<path d="M155.555 20.7267C156.336 20.9495 157.117 21.061 157.898 21.1724C157.787 21.841 157.675 22.621 157.563 23.2896C157.452 24.2925 157.34 25.4069 157.229 26.4098C157.006 28.527 156.782 30.7557 156.559 32.8729C156.336 34.9902 156.224 37.1074 156.001 39.2246C155.89 41.4533 155.555 43.682 155.555 45.9106C155.555 46.6907 156.113 47.4707 157.006 47.6936C157.787 47.805 158.679 47.3593 158.679 46.4678C158.903 44.3506 158.903 42.1219 159.126 40.0047C159.237 37.8874 159.46 35.6588 159.572 33.5415C159.684 31.4243 159.907 29.307 160.018 27.1898C160.13 26.0755 160.13 25.0726 160.242 23.9582C160.353 23.1782 160.353 22.2867 160.353 21.5067C161.357 21.6181 162.362 21.6181 163.366 21.7296C164.593 21.7296 166.267 21.9524 167.383 21.5067C168.945 20.9495 168.276 18.8323 166.825 18.6094C165.598 18.3866 164.147 18.7209 162.92 18.7209C161.804 18.7209 160.688 18.7209 159.46 18.6094C158.233 18.498 157.117 18.3866 155.89 18.2751C154.774 18.1637 153.212 17.6065 152.096 17.9408C151.538 18.1637 151.315 18.9437 151.761 19.3895C152.877 20.2809 154.327 20.5038 155.555 20.7267Z" fill="black"/>
<path d="M174.634 26.4097C175.304 24.7382 175.973 23.0667 176.643 21.3952C176.643 21.6181 176.643 21.7295 176.643 21.841C177.089 25.4068 177.424 29.0841 177.647 32.65C177.312 32.65 176.866 32.65 176.531 32.65C175.304 32.5386 174.076 32.5386 172.849 32.4272C172.625 32.4272 172.514 32.4272 172.291 32.4272C173.072 30.3099 173.853 28.4155 174.634 26.4097ZM165.037 31.87C164.033 32.0929 164.145 33.2072 164.926 33.6529C165.93 34.2101 167.046 34.5444 168.274 34.7673C166.823 38.4446 165.261 42.1219 164.145 45.9106C163.81 47.2478 165.707 48.1393 166.265 46.9135C167.827 43.6819 169.166 40.1161 170.505 36.7731C170.728 36.3273 170.952 35.7702 171.063 35.3244C171.621 35.4359 172.179 35.4359 172.625 35.5473C173.965 35.6587 175.304 35.7702 176.754 35.8816C177.089 35.8816 177.424 35.8816 177.759 35.993C177.87 39.1132 177.982 42.1219 178.205 45.242C178.316 46.9135 181.218 47.2478 181.329 45.4649C181.329 45.1306 181.329 44.9077 181.329 44.6848C181.329 41.7876 181.106 38.8903 180.883 36.1045C182.668 35.8816 182.334 33.2072 180.66 32.9843C180.325 29.0842 179.99 25.184 179.432 21.2838C179.209 19.7237 178.205 17.9408 176.419 17.9408C174.411 17.9408 173.965 20.2809 173.407 21.7295C172.068 25.184 170.728 28.7498 169.389 32.2043C169.278 32.2043 169.166 32.2043 169.055 32.2043C167.716 31.87 166.377 31.6471 165.037 31.87Z" fill="black"/>
<path d="M191.037 26.2983C191.149 25.184 191.149 24.0696 191.26 22.9553C191.26 22.1753 191.372 21.3952 191.372 20.6152C192.265 20.5038 193.269 20.7266 194.05 21.2838C195.501 22.2867 195.835 23.9582 195.612 25.7411C195.277 27.8584 194.162 29.5299 192.711 31.0899C192.041 31.7585 191.372 32.3157 190.591 32.8729C190.702 30.7556 190.925 28.527 191.037 26.2983ZM189.028 46.4678C189.252 45.9106 189.475 45.3534 189.475 44.7963C189.475 44.2391 189.586 43.6819 189.586 43.0133C189.698 41.899 189.81 40.8961 189.921 39.7818C190.033 38.8903 190.033 37.9988 190.144 37.1074C190.368 37.1074 190.479 36.9959 190.702 36.8845C191.149 36.6616 191.595 36.2159 192.041 35.993C192.934 35.3244 193.827 34.6558 194.608 33.8758C196.17 32.4271 197.509 30.6442 198.179 28.6384C199.518 24.8497 198.29 20.058 194.162 18.6094C192.376 17.9408 189.81 17.8294 188.694 19.6123C188.359 20.058 188.582 20.6152 189.028 20.9495C188.917 21.5067 188.917 22.0638 188.805 22.621C188.694 23.6239 188.582 24.7382 188.471 25.7411C188.247 27.9698 188.024 30.3099 187.689 32.5386C187.466 34.7673 187.243 36.9959 187.02 39.2246C186.908 40.3389 186.797 41.4533 186.685 42.5676C186.685 43.1248 186.574 43.6819 186.574 44.3505C186.462 45.0191 186.574 45.4649 186.685 46.1335C186.908 47.0249 188.582 47.5821 189.028 46.4678Z" fill="black"/>
<path d="M204.094 34.3216C204.54 30.0871 205.545 25.964 206.772 21.9524C206.884 21.9524 206.884 21.9524 206.995 21.9524C207.33 21.9524 207.441 21.841 207.776 21.9524C208.334 22.0639 208.781 22.3982 209.115 22.9553C210.008 24.1811 210.12 26.0755 210.343 27.5241C210.678 30.8671 210.343 34.3216 209.227 37.4417C208.669 39.0018 207.999 40.339 207.107 41.6762C206.66 42.2333 206.214 42.9019 205.656 43.2362C205.433 43.3477 205.21 43.3477 204.987 43.3477C204.875 43.3477 204.875 43.3477 204.875 43.3477C204.875 43.3477 204.763 43.2362 204.875 43.3477C204.205 42.5676 203.982 41.4533 203.982 40.2275C203.871 38.2217 203.982 36.3274 204.094 34.3216ZM202.978 45.4649C204.763 46.9135 206.995 46.3564 208.557 44.7963C210.008 43.3477 211.012 41.4533 211.793 39.5589C213.356 35.6588 213.69 31.4243 213.356 27.3012C213.132 24.9611 212.686 22.2867 210.901 20.5038C210.008 19.6123 209.004 19.0552 207.776 18.8323C207.218 18.7209 206.437 18.7209 205.879 18.9437C205.21 19.1666 204.875 19.7238 204.763 20.3924C204.763 20.6152 204.763 20.7267 204.875 20.9495C202.866 25.0726 201.751 29.4185 201.193 33.9873C200.969 36.2159 200.746 38.556 200.858 40.7847C201.081 42.5676 201.527 44.3506 202.978 45.4649Z" fill="black"/>
<path d="M210.009 10.8091C211.795 9.5833 213.357 8.35753 214.919 6.9089C215.589 6.24029 216.37 5.46026 217.039 4.79166C217.709 4.01162 218.49 3.23159 218.936 2.34012C219.271 1.78295 219.271 1.11435 218.825 0.668618C218.602 0.445751 218.49 0.334317 218.155 0.222884C217.597 1.6652e-05 216.928 0.11145 216.481 0.557184C215.812 1.33722 215.254 2.11725 214.584 2.89729C213.915 3.67732 213.245 4.34592 212.576 5.12596C211.237 6.5746 209.898 7.80036 208.335 9.02613C207.22 9.80617 208.782 11.7005 210.009 10.8091Z" fill="black"/>
<path d="M234.337 44.1276C233.89 44.3505 234.002 44.2391 234.337 44.1276V44.1276ZM218.268 23.0667C218.156 21.7295 216.148 21.6181 215.925 22.9553C215.59 24.8496 215.701 26.8554 215.701 28.7498C215.701 30.7556 215.925 32.7614 216.148 34.7672C216.594 38.6674 217.375 42.5676 218.491 46.3563C218.714 47.0249 219.161 47.5821 219.942 47.805C220.611 47.9164 221.392 47.5821 221.504 47.0249C223.066 42.1218 224.628 37.2188 226.302 32.3157C226.749 33.6529 227.083 35.1015 227.53 36.4387C228.088 37.9988 228.646 39.6703 229.315 41.2304C229.873 42.5676 230.431 44.0162 231.324 45.1305C232.216 46.3563 233.667 47.3592 235.118 47.3592C237.238 47.3592 237.461 45.5763 237.907 43.9048C238.689 40.5618 239.581 37.1073 240.362 33.7643C240.809 31.9814 241.255 30.087 241.59 28.3041C241.701 27.4126 241.813 26.5211 241.701 25.6297C241.59 24.5153 241.255 23.6239 240.697 22.7324C239.916 21.5066 237.684 22.0638 238.019 23.6239C238.354 24.9611 238.465 26.1868 238.242 27.524C238.019 28.8612 237.684 30.1985 237.35 31.5357C236.68 34.4329 235.899 37.4416 235.229 40.3389C235.118 41.0075 234.895 41.6761 234.783 42.3447C234.671 42.679 234.56 43.1247 234.56 43.459C234.56 43.5705 234.337 43.9048 234.337 44.2391C234.002 44.0162 233.779 43.7933 233.556 43.3476C232.998 42.3447 232.551 41.1189 231.993 40.0046C231.435 38.6674 230.989 37.3302 230.431 35.993C229.315 32.9843 228.534 29.8642 227.865 26.744C227.641 25.4068 225.298 24.5153 224.74 26.1868C223.178 31.0899 221.616 36.1044 220.053 41.0075C219.607 39.1131 219.384 37.2188 219.049 35.3244C218.826 33.43 218.603 31.5357 218.491 29.6413C218.491 27.0783 218.491 25.0725 218.268 23.0667Z" fill="black"/>
<path d="M73.87 92.6013C73.7584 92.4899 73.6469 92.3784 73.5353 92.267C73.2005 91.8213 72.9773 91.3755 72.6425 90.8184C72.0846 89.8155 71.5267 88.7011 70.9687 87.5868C70.634 86.8068 70.2992 85.9153 69.9644 85.1353C70.1876 85.581 70.4108 85.9153 70.634 86.361C71.7498 88.2554 72.7541 90.2612 73.87 92.1556C73.9816 92.3784 73.87 92.4899 73.87 92.6013ZM78.6683 78.5607C78.5567 78.5607 78.3335 78.6721 78.222 78.7835C78.3335 78.5607 78.3335 78.4492 78.6683 78.5607ZM50.4365 83.5752C49.767 85.9153 47.9816 87.9211 46.0846 89.3697C45.6383 89.704 45.1919 90.0383 44.7456 90.3726C44.634 89.704 44.5224 89.0354 44.5224 88.3668C44.5224 87.2525 44.5224 86.0267 44.7456 84.9124C45.0803 83.1294 45.6383 81.3465 46.4194 79.675C47.2005 79.2293 47.9816 79.0064 48.8743 79.2293C50.6597 79.5636 50.8829 82.0151 50.4365 83.5752ZM43.4065 90.8184C43.4065 90.2612 43.5181 89.704 43.5181 89.1469C43.6297 88.2554 43.7413 87.3639 43.8528 86.4725C43.7413 87.9211 43.7413 89.3697 44.076 90.7069C43.9644 90.7069 43.8528 90.8184 43.7413 90.8184C43.6297 90.8184 43.5181 90.8184 43.4065 90.8184ZM45.3035 80.455C44.7456 81.5694 44.4108 82.7951 44.1876 84.0209C44.2992 83.018 44.5224 82.0151 44.7456 81.1236C44.8571 80.9008 45.0803 80.6779 45.3035 80.455ZM34.9258 85.581C34.4795 86.9182 34.1447 88.2554 33.9215 89.5926C33.8099 90.4841 33.8099 91.7098 33.4752 92.6013C33.4752 91.3755 33.4752 90.1498 33.3636 88.924C33.5868 87.1411 34.3679 85.4696 35.4837 84.0209C35.2606 84.5781 35.149 85.0238 34.9258 85.581ZM30.9086 80.1207C30.9086 79.8979 30.9086 80.1207 30.9086 80.1207V80.1207ZM18.9687 80.1207C18.634 78.895 17.4065 77.7806 16.0674 77.8921C16.2906 77.7806 16.5138 77.6692 16.8486 77.5578C17.6297 77.4463 18.4108 78.0035 18.8571 78.5607C19.4151 79.3407 19.5267 80.455 19.4151 81.4579C19.3035 81.9037 19.3035 82.238 19.1919 82.6837C19.1919 81.7922 19.1919 80.9008 18.9687 80.1207ZM76.1018 94.9414C76.7713 94.0499 76.8829 92.9356 77.2177 91.9327C77.5524 90.7069 77.8872 89.5926 78.222 88.3668C78.5567 87.2525 78.8915 86.2496 79.2262 85.1353C79.6726 84.1323 80.0074 83.018 80.3421 81.9037C80.6769 81.1236 81.1232 80.1207 80.7885 79.2293C80.5653 78.5607 79.8958 78.1149 79.1147 77.8921C78.5567 77.6692 77.664 77.4463 77.3293 78.1149C77.1061 78.4492 77.1061 79.0064 77.1061 79.4521C76.9945 80.1207 76.8829 80.7893 76.7713 81.3465C76.6597 82.238 76.4365 83.1294 76.2134 83.9095C75.8786 84.9124 75.6554 85.9153 75.3207 86.8068C74.9859 88.144 74.5396 89.3697 74.2048 90.7069C74.2048 90.8184 74.0932 91.0412 74.0932 91.1527C73.0889 89.4812 72.0846 87.6982 71.0803 86.0267C70.2992 84.6895 69.5181 83.3523 68.8486 82.0151C68.737 81.6808 68.6254 81.3465 68.5138 81.0122C68.2906 79.8979 66.7284 79.1178 65.9473 80.2322C63.7155 83.018 61.7069 86.0267 60.1447 89.1469C60.1447 88.8126 60.1447 88.4783 60.1447 88.144C60.0331 86.9182 60.0331 85.6924 59.9215 84.4667C59.9215 83.3523 59.8099 82.238 59.5868 81.1236C59.0288 79.1178 57.4666 77.2235 55.3464 77.2235C54.0074 77.2235 52.8915 78.0035 52.5567 79.1178C51.9988 78.2264 51.2177 77.3349 50.2134 76.7777C48.0932 75.6634 45.5267 76.2206 43.7413 77.6692C43.6297 77.6692 43.6297 77.6692 43.5181 77.6692C39.8357 77.6692 36.1533 79.3407 33.8099 82.1265C33.5868 82.3494 33.4752 82.5723 33.3636 82.7951C33.3636 80.7893 33.252 78.2264 31.1318 77.7806C28.9001 77.3349 27.4494 80.3436 26.5567 81.9037C25.5524 83.798 24.7713 85.8038 23.6554 87.6982C22.7627 89.2583 21.5353 91.2641 19.7498 91.8213C19.5267 91.9327 19.0803 92.0441 18.7456 91.9327C18.4108 91.8213 18.5224 91.1527 18.5224 90.8184C18.634 89.5926 19.1919 88.3668 19.6383 87.2525C20.7541 84.9124 21.9816 82.4608 21.6468 79.7864C21.3121 77.5578 19.4151 75.552 17.0717 75.4405C14.282 75.3291 12.6082 78.4492 11.3807 80.455C10.3765 82.1265 9.59534 83.798 8.92581 85.6924C9.0374 83.1294 9.14898 80.5665 9.37216 78.0035C9.37216 77.112 8.25628 76.1091 7.47516 76.8892C5.2434 78.895 3.34641 81.2351 2.11894 83.9095C1.67259 84.801 3.12323 85.6924 3.79276 84.9124C4.57388 83.4637 5.57817 82.1265 6.69405 80.9008C6.2477 85.9153 5.91293 90.9298 5.57817 95.9443L4.90864 105.082C4.79705 106.642 4.68546 108.202 4.57388 109.762C4.57388 110.542 4.46229 111.322 4.46229 112.102C4.46229 112.436 4.3507 112.882 4.3507 113.217C4.3507 113.662 4.46229 113.997 4.57388 114.442C4.79705 115.334 6.13611 115.891 6.58246 114.777C7.25199 113.328 7.1404 111.768 7.25199 110.208C7.36358 108.648 7.47516 107.088 7.58675 105.528C7.80993 102.519 8.0331 99.3987 8.14469 96.39C8.25628 94.7185 8.36787 93.047 8.47946 91.3755C9.48375 88.3668 10.8228 85.4695 12.4966 82.6837C13.0546 81.7922 13.7241 80.9008 14.3936 80.0093C15.1747 79.0064 16.179 78.1149 17.2949 79.1178C18.2992 79.8979 18.4108 81.2351 18.1876 82.3494C17.9644 83.6866 17.5181 84.9124 17.1833 86.1382C17.1833 86.2496 17.1833 86.361 17.2949 86.4725C16.9601 87.0296 16.737 87.6982 16.5138 88.2554C15.8443 90.3726 15.6211 93.3813 18.1876 94.1614C20.1962 94.83 22.0932 93.4928 23.4322 92.1556C26.2219 89.3697 27.1147 85.3581 29.2348 82.0151C29.5696 81.5694 29.9044 81.1236 30.2391 80.6779C30.2391 80.6779 30.4623 80.455 30.5739 80.3436C30.6855 80.5665 30.6855 80.7893 30.6855 80.9008C30.7971 81.6808 30.6855 82.4608 30.6855 83.2409C30.6855 85.0238 30.7971 86.8068 30.7971 88.4783C30.5739 89.9269 30.6855 91.2641 30.9086 92.7127C31.0202 93.2699 31.5782 93.8271 32.1361 93.8271C32.2477 93.8271 32.3593 93.8271 32.3593 93.8271C32.4709 93.9385 32.5825 94.0499 32.694 94.1614C32.8056 94.2728 33.0288 94.2728 33.1404 94.1614C34.0331 93.3813 34.0331 92.267 34.2563 91.1527C34.4795 89.5926 34.8142 88.144 35.149 86.5839C35.4837 85.3581 35.9301 84.1323 36.5996 83.018C36.7112 82.7951 36.8228 82.5723 37.046 82.3494C38.385 81.3465 39.9473 80.6779 41.5095 80.455C41.5095 80.6779 41.5095 80.9008 41.6211 81.1236C41.0631 83.9095 40.6168 86.6953 40.3936 89.4812C40.282 90.2612 40.282 91.1527 40.6168 91.9327C40.9516 92.7127 41.7327 93.2699 42.6254 93.4928C44.076 93.8271 45.5267 93.1585 46.6425 92.3784C49.2091 90.5955 51.7756 88.0325 52.7799 85.0238C53.1147 84.1323 53.2262 83.2409 53.2262 82.238C53.3378 81.9037 53.561 81.5694 53.7842 81.2351C53.8958 81.1236 54.0074 81.0122 54.0074 80.7893C54.0074 80.6779 54.1189 80.6779 54.1189 80.5665C54.3421 80.1207 54.6769 79.675 55.0116 79.3407C55.458 79.2293 55.9044 79.4521 56.2391 79.7864L56.3507 79.8979C56.3507 80.0093 56.3507 80.0093 56.3507 80.1207C56.6855 81.6808 56.9086 83.3523 57.1318 84.9124C57.2434 88.2554 57.355 91.5984 57.4666 94.83C57.4666 95.4986 57.9129 96.1672 58.5825 96.39C59.252 96.6129 59.9215 96.39 60.2563 95.7214C61.8185 91.5984 63.9387 87.6982 66.5052 84.1323C67.6211 87.3639 69.0717 90.4841 70.8571 93.4928C71.4151 94.3842 71.973 95.2757 72.9773 95.7214C74.3164 96.2786 75.5438 95.9443 76.1018 94.9414Z" fill="black"/>
<path d="M213.916 80.3435C212.577 81.3464 211.461 82.6837 210.568 84.1323C210.456 84.1323 210.345 84.1323 210.233 84.1323C210.791 83.018 211.349 81.6807 212.242 80.7893C212.353 80.6778 212.577 80.5664 212.688 80.455C212.8 80.3435 213.023 80.2321 213.135 80.2321C213.135 80.2321 213.246 80.2321 213.246 80.1207C213.246 80.1207 213.246 80.1207 213.358 80.1207C213.916 79.8978 214.585 79.6749 215.143 79.5635C214.697 79.6749 214.25 80.0092 213.916 80.3435ZM192.379 106.865C191.486 111.099 190.705 115.445 189.813 119.68C189.366 121.797 188.92 123.803 188.585 125.92C188.25 127.814 187.916 129.82 187.358 131.603C187.135 132.16 186.911 132.829 186.465 133.274C186.242 133.497 186.019 133.609 185.796 133.497C185.349 133.274 185.014 132.494 184.903 131.937C184.568 130.934 184.456 129.931 184.568 128.929C184.568 125.251 185.795 121.463 186.8 118.008C187.804 114.554 188.92 111.099 190.705 107.979C191.263 106.976 191.933 106.085 192.602 105.193C192.602 105.862 192.491 106.419 192.379 106.865ZM183.229 118.008C183.787 115.779 184.68 113.662 185.684 111.656C185.014 113.328 184.568 114.999 184.01 116.671C183.452 118.565 183.006 120.571 182.448 122.465C182.448 122.688 182.336 122.8 182.336 123.023C182.559 121.351 182.894 119.68 183.229 118.008ZM186.465 99.3987C184.122 99.8444 182.671 97.95 182.336 95.8328C182.225 94.607 182.336 93.3813 182.559 92.1555C182.559 91.8212 182.671 91.3755 182.671 91.0412L182.783 90.9297C182.783 93.827 183.787 96.6128 186.019 98.5072C186.688 99.0644 187.581 98.9529 188.139 98.3958C189.032 97.3929 189.924 96.39 190.817 95.3871C189.813 97.17 188.585 98.9529 186.465 99.3987ZM166.937 96.8357C166.602 96.5014 166.714 95.7214 166.714 95.1642C166.826 94.4956 166.937 93.827 167.16 93.1584C167.049 94.0499 167.049 94.9413 167.272 95.7214C167.383 96.1671 167.718 96.6128 168.053 96.9471C167.607 97.17 167.16 97.0586 166.937 96.8357ZM160.353 116.002C160.577 116.002 160.8 116.002 161.023 116.002C159.126 117.005 157.006 115.334 156.448 113.328C155.778 110.988 156.671 108.202 157.341 105.862C157.564 104.859 157.899 103.856 158.233 102.965C157.452 105.416 156.894 107.979 157.006 110.653C157.117 112.771 157.787 115.557 160.353 116.002ZM160.8 113.105C160.688 113.105 160.688 113.105 160.688 112.994C160.8 113.105 161.023 113.216 160.8 113.105ZM158.456 102.407C158.456 102.519 158.345 102.63 158.345 102.742C158.345 102.63 158.345 102.519 158.456 102.407ZM158.68 97.5043C158.68 97.6157 158.568 97.6157 158.68 97.5043C158.568 97.5043 158.68 97.5043 158.68 97.5043ZM155.89 88.0325C154.328 90.3726 152.319 92.9355 149.753 94.2727C149.195 94.607 148.637 94.8299 147.967 94.9413C147.744 95.0528 147.409 95.0528 147.186 95.0528C147.186 94.8299 147.186 94.607 147.186 94.3842C147.186 94.1613 147.298 93.9384 147.298 93.7156C147.521 93.047 147.744 92.2669 148.079 91.5983C149.083 89.1468 150.757 86.8067 152.877 85.1352C153.993 84.2437 155.22 83.3523 156.559 82.7951C157.341 82.4608 158.122 82.2379 158.903 82.3494C158.122 84.3552 157.117 86.2495 155.89 88.0325ZM147.074 95.0528C146.963 95.0528 147.074 94.9413 147.074 95.0528V95.0528ZM145.401 89.9268C145.177 89.9268 144.954 89.9268 144.731 90.0383C145.177 89.0354 145.624 88.1439 146.182 87.2524C147.186 85.6924 148.525 84.578 149.976 83.4637C148.19 85.1352 146.628 87.141 145.512 89.3697C145.624 89.5925 145.512 89.8154 145.401 89.9268ZM159.795 80.0092V80.1207C159.126 79.8978 158.456 79.7864 157.787 79.7864C158.345 79.7864 159.126 79.7864 159.795 80.0092ZM134.465 89.0354C134.242 89.3697 133.907 89.704 133.684 90.0383C133.461 90.3726 133.014 90.7069 132.68 91.1526C132.568 91.0412 132.568 91.0412 132.456 90.9297C133.126 90.3726 133.795 89.704 134.465 89.0354ZM237.126 89.3697C237.907 88.1439 238.8 86.8067 239.916 85.8038C240.362 85.3581 240.808 85.0238 241.366 84.8009L241.701 84.6895C241.701 84.6895 241.701 84.6895 241.813 84.6895C242.036 85.0238 242.036 85.5809 242.036 86.0267C240.585 86.4724 239.358 87.4753 238.353 88.7011C236.791 90.3726 235.452 92.2669 234.225 94.1613C235.117 92.6012 236.01 90.9297 237.126 89.3697ZM230.319 98.5072C229.761 98.2843 229.426 97.5043 229.315 96.9471C229.315 96.7243 229.315 96.5014 229.203 96.39C229.315 96.8357 229.426 97.2814 229.538 97.7272C229.65 98.1729 230.096 98.5072 230.542 98.7301C230.542 98.5072 230.431 98.5072 230.319 98.5072ZM231.881 78.0034C232.551 76.7777 233.109 75.5519 233.667 74.2147C233.555 74.7719 233.332 75.329 233.22 75.7748C231.993 80.455 230.542 85.1352 229.426 89.8154C229.315 90.484 229.203 91.1526 229.092 91.8212C228.868 92.9355 228.757 94.0499 228.645 95.0528C228.534 96.6128 228.645 98.8415 230.542 99.1758C232.328 99.5101 233.22 97.5043 234.002 96.2785C235.117 94.2727 236.345 92.4898 237.796 90.7069C238.911 89.3697 240.25 87.5867 242.036 86.9181C241.924 87.5867 241.813 88.3668 241.701 89.0354C241.366 90.5954 241.143 92.0441 241.478 93.6041C241.924 96.39 244.156 99.0644 247.28 98.7301C248.843 98.5072 250.07 97.6157 251.074 96.39C252.079 95.0528 252.525 93.6041 252.86 91.9326C253.083 90.9297 251.298 89.9268 250.74 90.9297C250.07 92.0441 249.289 93.047 248.508 94.0499C248.173 94.4956 247.838 94.8299 247.504 95.0528C247.169 95.2756 246.723 95.3871 246.499 95.3871C246.165 95.3871 246.165 95.3871 245.83 95.1642C246.053 95.2756 245.718 95.0528 245.607 94.9413C245.607 94.9413 245.272 94.3842 245.383 94.607C245.272 94.3842 245.049 94.0499 245.049 93.7156C244.714 92.6012 244.937 91.264 245.16 89.9268C245.718 87.0296 246.499 82.1265 242.371 81.3464C239.135 80.7893 236.791 84.1323 235.229 86.361C234.559 87.3639 233.89 88.3668 233.22 89.4811C233.667 87.3639 234.336 85.3581 234.894 83.2408C236.122 78.5606 237.349 73.769 238.577 69.0888C239.246 66.6372 239.692 64.0742 238.688 61.6227C238.242 60.5084 236.345 60.1741 235.899 61.3998C232.774 69.3116 229.538 77.2234 224.628 84.2437C223.401 85.9152 222.173 87.5867 220.723 89.1468C219.383 90.7069 217.933 92.2669 216.147 93.2698C214.808 94.0499 213.135 94.3842 211.796 93.6041C211.238 93.2698 210.791 92.8241 210.791 92.1555C210.68 91.0412 211.126 89.9268 211.572 88.9239C213.023 84.6895 215.924 80.1207 220.834 79.6749C221.615 79.5635 221.727 78.672 221.392 78.2263C221.392 78.0034 221.169 77.7806 220.946 77.6691C220.834 77.5577 220.611 77.4463 220.499 77.4463C219.83 77.2234 219.16 77.112 218.379 77.112C216.371 77.2234 214.362 78.1149 212.688 79.1178C210.791 80.1207 209.675 81.6807 208.671 83.5751C207.778 85.2466 206.997 87.0296 206.439 88.9239C204.096 91.5983 200.971 93.827 198.07 96.0557C199.074 91.3755 199.967 86.5838 200.971 81.9036C201.195 80.5664 198.963 79.4521 198.182 80.6778C195.057 85.6924 191.375 90.484 187.358 94.9413C186.465 93.4927 186.242 91.7098 186.465 90.1497C186.8 87.2524 188.25 84.6895 189.589 82.2379C190.036 81.4579 189.255 80.5664 188.697 80.2321C187.916 79.8978 187.135 80.2321 186.688 80.9007C183.452 86.6953 178.654 91.5983 172.851 95.0528C171.735 95.7214 170.62 96.39 169.392 96.7243C168.276 96.39 168.165 94.607 168.276 93.6041C168.388 92.2669 168.723 90.9297 169.057 89.704C169.169 89.3697 169.28 89.0354 169.392 88.7011C169.95 87.5867 170.731 86.5838 171.401 85.6924C172.517 84.3552 173.744 83.2408 175.418 82.6836C176.645 82.2379 178.208 81.9036 179.323 82.7951C180.328 83.5751 181.778 82.3493 180.886 81.3464C179.547 79.8978 177.761 79.2292 175.864 79.5635C174.079 79.8978 172.293 80.7893 170.843 82.015C167.718 84.6895 165.486 88.8125 164.371 92.7127C164.036 93.827 163.813 95.0528 164.036 96.2785C163.589 95.6099 162.808 95.1642 162.027 95.3871C161.135 95.7214 160.577 96.2785 159.907 96.8357C159.796 96.9471 159.684 97.0586 159.461 97.17C159.461 97.0586 159.461 96.8357 159.461 96.8357C159.461 96.2785 159.572 95.8328 159.684 95.2756C159.796 94.2727 159.907 93.2698 160.13 92.2669C160.8 88.2553 161.804 84.3552 163.032 80.5664C163.478 79.0063 161.135 77.6691 160.353 79.0063C156.894 77.892 153.212 80.1207 150.645 82.2379C148.971 83.4637 147.298 84.8009 146.182 86.4724C145.289 87.8096 144.62 89.3697 144.062 90.9297C142.723 92.3784 141.607 94.1613 139.486 94.7185C138.594 94.9413 137.701 94.8299 136.92 94.3842C136.92 94.3842 136.585 94.1613 136.474 94.0499C136.25 93.9384 136.139 93.7156 135.916 93.6041C135.692 93.3813 135.246 92.9355 135.135 92.8241C134.577 92.2669 134.13 91.8212 133.572 91.3755C133.795 91.0412 134.13 90.8183 134.242 90.5954C134.577 90.1497 134.911 89.8154 135.246 89.3697C135.916 88.4782 136.697 87.6982 137.366 86.8067C138.036 86.0267 138.705 85.1352 139.375 84.3552C139.933 83.6865 140.714 82.9065 141.16 82.015C141.272 81.9036 141.383 81.6807 141.607 81.5693C142.388 80.6778 141.495 79.3406 140.491 79.1178C138.594 78.7835 136.697 78.4492 134.911 78.1149C133.238 77.892 131.341 77.2234 129.667 77.6691C126.654 78.5606 127.435 82.2379 128.439 84.3552C128.997 85.5809 131.006 85.0238 130.448 83.6866C130.113 82.9065 129.778 81.9036 130.002 81.0121C130.225 80.1207 130.783 80.1207 131.564 80.2321C133.572 80.5664 135.581 81.0121 137.589 81.3464C134.911 84.2437 132.122 87.0296 129.109 89.5925C126.989 89.8154 125.426 91.3755 124.98 93.4927C124.757 94.7185 126.542 95.8328 127.547 95.0528C128.551 94.2727 129.555 93.4927 130.559 92.6012H130.671L131.006 92.7127C131.117 92.7127 131.117 92.8241 131.229 92.8241C131.229 92.8241 131.341 92.8241 131.341 92.9355C132.903 93.9384 133.795 95.3871 135.358 96.5014C138.594 98.7301 142.276 97.5043 144.843 95.0528C145.289 96.5014 146.517 97.5043 148.302 97.5043C151.984 97.3929 155.109 94.607 157.229 91.9326L157.341 91.8212C157.229 92.3784 157.117 92.9355 157.117 93.4927C156.783 95.6099 155.89 98.7301 158.345 99.8444C158.568 99.9558 158.791 100.067 159.126 100.067C158.903 100.513 158.791 101.07 158.568 101.516C158.122 102.63 157.787 103.745 157.452 104.859C156.783 106.976 156.113 109.316 156.225 111.545C156.225 113.328 157.006 115.111 158.456 116.114C159.907 117.005 161.581 117.005 162.92 115.779C163.701 115.111 164.371 114.108 164.929 113.216C165.486 112.548 166.156 111.879 166.602 111.099C167.383 109.985 165.821 108.313 164.705 109.205C163.813 109.873 163.032 110.653 162.25 111.322C161.916 111.656 161.469 111.991 161.135 112.436C161.023 112.214 160.911 111.991 160.911 111.656C160.8 110.653 160.8 109.762 160.911 108.759C161.246 104.747 163.032 100.959 164.594 97.3929C164.594 97.2814 164.705 97.17 164.705 97.0586C164.929 97.6157 165.263 98.1729 165.821 98.7301C167.383 100.179 169.615 99.9558 171.401 99.2872C173.298 98.6186 175.083 97.5043 176.757 96.5014C178.431 95.3871 179.993 94.2727 181.444 92.9355C181.89 92.4898 182.336 92.1555 182.783 91.7098C182.671 92.7127 182.559 93.6041 182.448 94.607C182.448 96.2785 182.894 98.0615 184.233 99.1758C185.572 100.29 187.358 100.29 188.808 99.5101C190.594 98.6186 191.71 96.8357 192.714 95.2756C193.383 94.1613 194.053 93.047 194.499 91.8212C195.28 90.8183 196.062 89.8154 196.843 88.8125C196.173 92.2669 195.504 95.7214 194.723 99.1758C192.602 101.07 190.705 103.187 189.255 105.639L189.143 105.75C184.903 111.322 182.225 118.008 182.336 125.028C182.336 125.697 182.336 126.254 182.448 126.923C182.448 127.368 182.336 127.814 182.336 128.26C182.336 130.377 182.671 132.606 183.787 134.389C184.791 135.949 186.8 136.84 188.474 136.06C190.036 135.28 190.817 133.609 191.152 131.937C191.598 129.82 192.044 127.591 192.491 125.363C193.383 120.905 194.276 116.448 195.169 111.991C195.95 108.313 196.62 104.636 197.401 100.959C197.512 100.847 197.735 100.736 197.847 100.624C201.195 97.8386 205.1 95.2756 208.225 92.1555C208.225 92.1555 208.225 92.1555 208.225 92.2669C208.336 92.6012 208.336 92.8241 208.448 93.047V93.1584C209.006 95.2756 211.014 96.7243 213.135 97.0586C217.933 97.95 221.95 93.2698 224.74 89.9268C227.195 86.4724 229.65 82.3493 231.881 78.0034Z" fill="black"/>
<path d="M20.1959 159.573C19.7495 161.579 18.6336 163.473 17.183 164.922C15.5092 166.593 13.5006 167.373 11.1572 167.93C11.1572 167.373 11.1572 166.816 11.1572 166.259C11.1572 165.145 11.2688 163.919 11.2688 162.804C11.3804 160.464 11.3804 158.124 11.492 155.784C11.6036 151.327 11.8268 146.869 11.7152 142.412C13.6122 142.524 15.5092 143.526 16.7366 144.975C18.4105 146.869 19.1916 149.321 19.7495 151.772C20.1959 154.113 20.7538 157.01 20.1959 159.573ZM18.8568 143.415C16.625 140.963 13.5006 139.403 10.1529 140.072C9.48342 140.183 9.37183 140.741 9.48342 141.186C9.03706 145.755 8.92548 150.435 8.81389 155.116C8.7023 157.456 8.7023 159.684 8.59071 162.024C8.59071 163.139 8.47912 164.364 8.47912 165.479C8.47912 166.705 8.25595 167.93 8.59071 169.156C8.81389 169.825 9.70659 170.493 10.3761 170.159C10.7109 170.605 11.2688 170.828 11.8268 170.828C16.9598 170.493 21.7581 165.925 22.9856 161.021C23.7667 157.901 23.3203 154.67 22.6508 151.661C21.9813 148.652 20.977 145.644 18.8568 143.415Z" fill="black"/>
<path d="M35.7081 158.124C35.2617 159.907 34.7038 161.579 33.9227 163.139C33.5879 163.919 33.1416 164.699 32.8068 165.479C32.5836 165.925 31.9141 167.262 31.3562 167.373C30.0171 167.596 30.0171 164.81 29.9055 164.03C29.7939 161.913 29.6823 159.796 29.7939 157.678C29.9055 155.338 30.0171 152.998 30.3519 150.658C30.5751 148.429 31.0214 146.312 31.3562 144.084C31.6909 144.084 32.1373 143.972 32.3605 143.638C32.9184 142.969 33.9227 142.635 34.5922 143.304C35.7081 144.418 35.9313 145.978 36.1545 147.427C36.7124 150.881 36.6008 154.558 35.7081 158.124ZM35.2617 140.406C33.4763 139.515 30.2403 139.738 29.7939 142.078V142.189C29.5708 142.301 29.4592 142.412 29.3476 142.635C28.4549 144.975 28.0085 147.538 27.6738 149.99C27.339 152.441 27.1158 155.004 27.0042 157.567C26.8927 160.13 26.8926 162.693 27.2274 165.256C27.4506 167.485 28.9012 169.825 31.3562 169.936C33.8111 170.048 34.927 167.485 35.9313 165.702C36.9356 163.807 37.7167 161.69 38.2746 159.573C39.3905 155.227 39.6137 150.658 38.721 146.201C38.3862 143.972 37.4935 141.521 35.2617 140.406Z" fill="black"/>
<path d="M70.2985 163.807C68.2899 163.473 66.1697 163.807 64.1611 163.919C62.7105 164.03 61.2598 164.142 59.8092 164.142C60.0324 160.019 60.2556 156.007 60.3671 151.884C60.4787 149.544 60.5903 147.204 60.7019 144.864C60.7019 143.749 60.8135 142.635 60.8135 141.521C60.8135 140.406 61.0367 139.069 60.144 138.289C59.9208 138.066 59.4744 138.066 59.2513 138.178C58.3586 138.735 58.4701 140.295 58.3586 141.186C58.247 142.301 58.1354 143.526 58.1354 144.641C58.0238 146.869 57.8006 149.209 57.689 151.438C57.4659 156.007 57.2427 160.687 56.9079 165.256C56.7963 166.147 57.689 166.927 58.5817 166.927C60.5903 166.927 62.7105 166.816 64.7191 166.705C66.7277 166.593 68.8478 166.705 70.8564 166.259C72.1955 166.036 71.4144 164.03 70.2985 163.807Z" fill="black"/>
<path d="M86.2586 139.18C86.2586 140.963 86.2586 142.746 86.147 144.529C86.0355 146.312 85.8123 147.984 85.5891 149.767C85.0312 153.221 84.0269 156.676 82.5762 159.907C82.0183 161.244 81.4604 162.693 80.3445 163.696C79.4518 164.476 78.8938 164.03 78.5591 163.027C78.1127 161.579 78.0011 159.796 77.8895 158.236C77.6664 156.341 77.5548 154.447 77.4432 152.664C77.3316 150.435 77.3316 148.318 77.3316 146.089C77.3316 145.086 77.3316 143.972 77.4432 142.969C77.4432 141.855 77.5548 140.741 77.1084 139.738C76.8852 139.292 76.2157 139.069 75.881 139.515C75.323 140.295 75.2114 141.298 75.0998 142.301C74.9883 143.415 74.8767 144.529 74.8767 145.644C74.7651 147.761 74.7651 149.878 74.8767 151.995C74.9882 154.113 75.0998 156.341 75.323 158.458C75.5462 160.353 75.5462 162.359 76.3273 164.142C76.8852 165.702 78.3359 167.039 80.1213 166.927C81.9067 166.816 83.2458 165.479 84.0269 164.03C86.0355 160.687 87.1513 156.787 88.044 152.998C88.4904 150.881 88.9368 148.652 89.0483 146.424C89.2715 144.084 89.3831 141.743 89.0483 139.515C88.7136 138.066 86.2586 137.62 86.2586 139.18Z" fill="black"/>
<path d="M104.556 159.461C103.552 161.579 101.766 163.25 99.8694 164.699C98.7536 165.59 97.5261 166.37 96.2986 167.039C95.8523 167.262 95.4059 167.485 94.9596 167.708C95.6291 163.25 95.9639 158.681 96.2986 154.224C96.5218 149.767 96.6334 145.309 96.2986 140.852C97.1913 141.186 98.084 141.521 98.9767 141.855C100.204 142.301 101.32 142.969 102.213 143.749C104.333 145.532 105.114 148.207 105.449 150.881C105.895 153.89 105.784 156.787 104.556 159.461ZM104.779 142.412C103.552 141.298 102.101 140.406 100.539 139.738C98.9767 139.069 97.0797 138.4 95.4059 138.289C95.1827 138.289 94.9596 138.401 94.848 138.512C94.5132 138.623 94.1784 138.846 94.1784 139.292C93.8437 144.195 93.7321 149.098 93.3973 153.89C93.0626 158.793 92.393 163.696 91.8351 168.488C91.8351 168.822 91.9467 169.156 92.0583 169.379C92.0583 169.49 91.9467 169.602 91.9467 169.602C91.6119 170.159 92.0583 170.939 92.393 171.273C92.8394 171.719 93.5089 171.942 94.0669 171.719C95.4059 171.273 96.745 170.382 98.084 169.713C99.3115 169.045 100.539 168.265 101.766 167.373C103.998 165.702 106.007 163.696 107.346 161.133C109.02 158.013 109.131 154.558 108.685 151.104C108.239 147.984 107.234 144.752 104.779 142.412Z" fill="black"/>
<path d="M124.756 162.916C124.31 164.81 123.64 167.039 121.967 168.265C121.297 168.71 120.516 169.156 119.623 169.045C119.289 169.045 119.065 168.933 118.842 168.822C118.619 168.71 118.731 168.822 118.507 168.599L118.173 168.376C117.057 167.373 116.61 165.702 116.276 164.253C115.829 162.136 115.718 159.796 115.606 157.678C115.495 152.664 116.164 147.538 117.392 142.635C117.503 142.746 117.726 142.746 117.838 142.858C119.512 143.192 120.962 143.861 122.19 145.086C123.417 146.201 124.31 147.761 124.98 149.432C126.653 153.667 125.761 158.57 124.756 162.916ZM124.868 143.526C123.083 141.743 120.739 140.072 118.173 139.849C117.615 139.849 117.28 139.961 117.057 140.183C116.499 139.849 115.829 139.961 115.606 140.629C113.598 145.755 112.816 151.215 112.816 156.676C112.816 159.239 112.928 161.913 113.486 164.476C113.932 166.37 114.602 168.488 115.941 169.936C117.503 171.608 119.846 172.388 122.078 171.608C124.533 170.828 126.207 168.599 126.988 166.259C127.881 163.696 128.439 161.021 128.774 158.347C129.108 155.561 129.108 152.664 128.327 149.99C127.769 147.538 126.542 145.309 124.868 143.526Z" fill="black"/>
<path d="M144.951 161.021C144.281 164.922 140.264 166.593 136.693 165.925C137.028 162.582 137.251 159.239 137.474 156.007C137.474 155.784 137.474 155.673 137.474 155.45C137.921 155.896 138.479 156.118 139.037 155.784C140.599 155.115 142.273 155.561 143.389 156.453C144.728 157.456 145.174 159.239 144.951 161.021ZM137.586 146.424C137.586 145.755 137.586 144.975 137.586 144.306L137.698 144.195C138.479 143.415 139.595 143.081 140.264 143.749C140.487 143.972 140.711 144.306 140.934 144.752C141.157 145.198 141.268 145.644 141.268 146.201C141.268 147.427 140.599 148.652 139.929 149.655C139.148 150.77 138.256 151.772 137.474 152.887C137.474 151.772 137.586 150.77 137.586 149.655C137.586 148.541 137.586 147.427 137.586 146.424ZM144.17 153.555C143.389 153.11 142.496 152.775 141.603 152.664C143.277 150.324 144.728 147.984 143.947 144.975C143.5 143.304 142.496 141.743 140.822 141.075C139.148 140.406 137.028 140.963 136.135 142.523C135.801 142.523 135.578 142.746 135.354 143.081C135.02 143.972 135.131 145.198 135.02 146.201C135.02 147.204 134.908 148.318 134.796 149.321C134.685 151.438 134.573 153.555 134.462 155.561C134.127 159.796 133.792 163.919 133.346 168.153C133.123 169.825 135.689 170.493 136.247 168.933C140.376 169.825 144.951 168.265 146.959 164.476C149.191 160.576 147.964 155.784 144.17 153.555Z" fill="black"/>
<path d="M175.861 185.648C175.638 186.54 175.526 187.877 174.857 188.657C174.41 189.214 173.741 188.768 173.295 188.434C172.067 187.32 171.844 185.091 172.179 183.42C172.625 180.968 174.076 178.739 175.08 176.622C175.526 175.842 175.861 175.062 176.307 174.282C176.307 175.508 176.307 176.734 176.307 178.071C176.419 180.522 176.307 183.197 175.861 185.648ZM182.891 158.124C182.333 157.79 181.329 157.679 180.994 158.347C180.659 158.904 180.325 159.461 179.99 160.019C180.101 158.793 180.213 157.456 180.325 156.23C180.659 152.887 181.106 149.655 181.441 146.312C181.552 145.421 180.659 144.529 179.767 144.641C177.423 144.975 175.192 144.641 172.848 143.861C172.402 143.749 171.956 143.749 171.621 144.195C171.398 144.641 171.509 145.198 171.956 145.421C173.853 146.647 175.973 147.315 178.204 147.427C177.87 149.544 177.646 151.661 177.312 153.778C176.977 156.453 176.754 159.127 176.642 161.913C176.531 163.473 176.531 165.145 176.419 166.705C175.08 169.268 173.853 171.831 172.513 174.282C170.17 178.739 167.046 184.2 170.17 189.103C171.509 191.109 174.634 192.891 176.865 191.109C177.87 190.217 178.316 188.88 178.539 187.654C178.874 186.317 179.097 184.868 179.32 183.42C179.543 180.634 179.432 177.848 179.432 174.951C179.432 172.611 179.432 170.27 179.543 167.93C180.883 165.256 182.445 162.582 183.561 159.796C183.895 159.35 183.449 158.459 182.891 158.124Z" fill="black"/>
<path d="M194.499 153.555C193.606 152.775 192.713 152.107 192.267 151.104C191.486 149.767 191.932 148.207 192.713 146.869C193.16 146.089 193.718 145.309 194.276 144.641C194.499 144.306 194.834 144.084 195.057 143.749C195.168 143.638 195.168 143.638 195.28 143.526C195.503 144.195 196.396 144.529 196.954 143.861C197.958 142.635 196.507 140.852 195.168 140.852C193.606 140.852 192.379 142.412 191.486 143.526C189.589 145.867 188.362 148.987 189.812 151.884C191.04 154.224 193.495 155.45 194.945 157.567C196.507 159.796 195.615 163.027 194.164 165.033C193.495 166.036 192.379 167.15 191.04 166.927C190.259 166.816 189.589 166.37 188.919 165.925C188.585 165.702 188.696 165.813 188.473 165.479C188.585 165.702 188.473 165.367 188.362 165.256C188.585 164.699 188.027 163.919 187.246 163.919C185.572 163.919 185.237 165.813 186.018 166.927C186.911 168.265 188.696 169.156 190.147 169.602C193.383 170.493 195.95 168.265 197.4 165.59C198.851 162.693 199.186 159.127 197.4 156.341C196.507 155.338 195.503 154.447 194.499 153.555Z" fill="black"/>
<path d="M217.598 140.518C216.593 140.629 215.701 140.852 214.696 140.963C213.692 140.963 212.799 140.963 211.795 140.741C209.675 140.518 207.443 140.183 205.323 140.072C203.761 139.961 203.649 141.966 205.1 142.301C206.55 142.635 208.113 142.969 209.563 143.192C209.005 147.092 208.447 150.992 208.001 154.893C207.778 157.01 207.555 159.127 207.22 161.244C207.108 162.247 206.997 163.25 206.885 164.253C206.774 165.367 206.439 166.482 206.774 167.596C207.108 168.71 208.559 169.156 209.229 168.042C209.787 167.15 209.675 165.925 209.787 164.922C209.898 163.919 210.01 162.804 210.121 161.802C210.344 159.684 210.568 157.567 210.791 155.45C211.237 151.55 211.46 147.538 211.795 143.638C211.907 143.638 211.907 143.638 212.018 143.638C213.134 143.861 214.25 143.972 215.366 143.861C216.482 143.861 217.821 143.749 218.825 143.081C220.053 142.301 218.825 140.518 217.598 140.518Z" fill="black"/>
<path d="M242.481 139.18C241.142 146.312 239.691 153.444 238.129 160.464C237.794 161.913 237.46 163.362 237.125 164.922C237.125 164.81 237.013 164.587 237.013 164.476C236.009 161.021 235.228 157.567 234.447 154.113C233.554 150.212 232.884 146.201 232.438 142.301C232.215 140.741 229.648 140.406 229.425 142.078C228.644 147.427 227.305 152.664 225.52 157.79C225.631 156.118 225.631 154.447 225.743 152.775C225.854 148.095 226.078 143.415 225.966 138.735C225.966 137.732 224.292 137.175 224.181 138.4C223.511 142.969 223.288 147.649 222.953 152.218C222.618 156.898 222.395 161.467 222.172 166.147C222.06 167.707 224.292 168.599 225.073 167.039C227.528 161.913 229.537 156.453 230.876 150.992C231.769 155.896 232.884 160.799 234.335 165.702C234.781 167.373 235.674 169.602 237.794 169.602C240.026 169.49 240.138 166.816 240.584 165.144C241.588 161.244 242.481 157.233 243.262 153.333C244.266 148.875 245.159 144.306 245.94 139.849C246.163 137.843 242.927 137.063 242.481 139.18Z" fill="black"/>
<path d="M254.086 153.89C253.64 153.89 253.305 153.89 252.858 153.89C253.305 152.664 253.64 151.438 254.086 150.212C254.198 151.438 254.086 152.664 254.086 153.89ZM247.837 156.118C247.837 156.007 247.837 156.007 247.837 156.118C247.837 156.007 247.837 156.007 247.837 156.118ZM258.661 154.113C258.215 154.113 257.768 154.001 257.322 154.001C257.21 150.324 257.322 146.647 257.657 142.969C257.768 141.632 255.871 140.518 254.979 141.743C252.412 145.198 251.296 149.655 249.957 153.778C249.957 153.89 249.957 153.89 249.846 154.001C248.73 154.001 247.502 153.89 246.498 154.335C245.27 155.004 244.824 156.341 245.94 157.233C246.61 157.79 247.502 157.456 247.725 156.787C247.837 156.787 247.837 156.787 247.837 156.787C248.172 156.787 248.507 156.787 248.841 156.787C248.395 158.013 248.06 159.239 247.614 160.464C247.279 161.579 246.944 162.693 246.61 163.807C246.275 165.033 245.828 166.259 245.717 167.485C245.717 168.376 246.944 169.156 247.502 168.265C248.172 167.373 248.507 166.259 248.953 165.144C249.399 164.03 249.734 162.916 250.069 161.913C250.627 160.241 251.185 158.57 251.743 156.898C251.966 156.898 252.189 156.898 252.301 156.898C252.858 156.898 253.416 156.898 253.974 157.01C254.086 159.127 254.198 161.244 254.421 163.362C254.086 163.584 253.974 163.919 254.086 164.364C254.086 164.476 254.086 164.476 254.198 164.587C254.198 165.367 254.532 165.925 254.979 166.705C255.425 167.373 256.095 167.93 256.987 167.707C257.768 167.485 258.215 166.816 258.103 166.036C257.768 163.027 257.434 160.019 257.21 157.01C257.657 157.01 258.103 157.01 258.549 156.898C260.558 156.787 260.223 154.224 258.661 154.113Z" fill="black"/>
<path d="M91.1669 89.5926C91.39 89.2583 91.6132 89.0354 91.8364 88.7011C92.3943 87.9211 92.9523 87.141 93.5102 86.361C93.287 86.9182 92.9523 87.3639 92.6175 87.9211C92.2827 88.4782 91.7248 89.1468 91.1669 89.5926ZM82.7978 93.827C82.463 92.9356 82.5746 92.0441 82.6862 91.1527C82.7978 90.2612 82.9094 89.3697 83.1325 88.4782C82.6862 90.9298 82.463 94.3842 85.2527 94.7185C85.4759 94.7185 85.5875 94.7185 85.8106 94.7185H85.6991C84.4716 95.1643 83.2441 94.9414 82.7978 93.827ZM85.9222 92.267C85.9222 92.3784 85.9222 92.3784 85.9222 92.267V92.267ZM90.8321 80.7893C91.2785 80.455 92.6175 79.8979 92.9523 80.6779C92.9523 80.7893 93.0639 80.7893 93.1755 80.9008C91.39 84.2438 89.2699 87.2525 86.8149 90.0383C86.4802 90.3726 86.1454 90.8184 85.8106 91.1527C85.8106 91.0412 85.8106 90.8183 85.8106 90.7069C85.8106 90.1497 85.9222 89.5926 85.9222 89.0354C86.257 86.9182 87.1497 84.9124 88.3772 83.2409C89.0467 82.3494 89.8278 81.4579 90.8321 80.7893ZM104.557 86.8067C104.446 86.9182 104.446 87.141 104.334 87.2525H104.223C104.334 87.0296 104.446 86.9182 104.557 86.8067ZM118.506 80.0093C118.06 80.7893 117.725 81.5694 117.278 82.3494C115.27 85.6924 112.815 88.924 109.802 91.4869C109.356 91.8212 108.798 92.267 108.24 92.6013C107.57 91.8212 107.793 90.3726 108.017 89.4811C108.24 88.3668 108.686 87.2525 109.244 86.2496C109.69 85.2467 110.137 84.1323 110.695 83.1294C110.695 83.1294 110.695 83.1294 110.695 83.018C111.364 82.238 112.145 81.5694 113.038 81.1236C114.712 80.1207 116.609 79.675 118.506 80.0093ZM106.454 91.5984C106.231 90.5955 106.678 89.5926 107.124 88.7011C107.459 87.9211 107.905 87.141 108.351 86.4724C108.351 86.5839 108.24 86.6953 108.24 86.8067C107.682 88.1439 107.124 89.5926 107.236 91.0412C107.236 91.5984 107.347 92.267 107.682 92.7127C107.57 92.7127 107.57 92.7127 107.459 92.7127C106.789 92.7127 106.566 92.1555 106.454 91.5984ZM94.0682 87.3639C93.9566 89.4811 93.6218 91.8212 94.8493 93.7156C96.2999 95.9443 99.0896 95.9443 101.098 94.4957C101.991 93.8271 102.884 92.9356 103.553 91.9327C103.888 93.3813 104.669 94.6071 106.12 95.2757C108.798 96.2786 111.141 94.4957 112.927 92.7127C114.6 91.1526 116.163 89.4811 117.502 87.5868C117.613 87.3639 117.836 87.141 117.948 86.9182C117.502 88.924 117.055 90.9298 116.721 92.9356C116.386 94.4957 119.287 95.4986 119.733 93.827C121.184 88.2554 122.3 82.5723 123.416 76.8892C123.527 76.6663 123.527 76.332 123.639 76.1091C123.751 75.8863 123.862 75.6634 123.862 75.4405C125.536 70.5374 126.54 65.3001 126.987 60.0627C127.098 58.2798 124.309 57.6112 123.974 59.5055C122.969 64.6315 121.854 69.8688 120.738 74.9948C120.403 75.9977 119.957 77.0006 119.51 78.0035C114.935 75.7748 110.025 78.7835 107.236 82.4608C107.012 82.6837 106.901 83.018 106.678 83.2409C106.343 83.5752 106.008 83.9095 105.673 84.3552C105.227 84.8009 104.892 85.3581 104.446 85.8038C103.888 86.4724 103.33 87.0296 102.884 87.6982C101.656 88.924 100.763 90.4841 99.536 91.7098C99.0896 92.1556 98.4201 92.6013 97.7506 92.7127C97.5274 92.7127 97.4158 92.6013 97.4158 92.4898C97.5274 92.6013 97.3042 92.267 97.3042 92.1555C97.1926 91.9327 97.3042 92.0441 97.1926 91.8213C96.9694 91.0412 97.081 90.3726 97.081 89.5926C97.081 88.4782 97.1926 87.3639 97.1926 86.2496C97.3042 83.9095 97.3042 81.6808 97.4158 79.3407C97.4158 77.7806 95.2956 76.8892 94.5145 78.4492C94.4029 78.5607 94.4029 78.6721 94.2913 78.895C93.6218 78.3378 92.8407 78.0035 91.948 77.8921C90.6089 77.6692 89.3815 78.3378 88.2656 79.1178C87.5961 79.3407 87.0381 79.8979 86.5918 80.2322C85.6991 81.0122 84.9179 81.9037 84.36 82.7951C82.9094 85.0238 82.2398 87.6982 82.0167 90.3726C81.7935 92.1555 81.5703 94.83 83.6905 95.61C84.8064 95.9443 85.9222 95.61 86.9265 94.9414C88.0424 94.0499 89.0467 93.047 90.1626 92.0441C91.1669 91.1526 92.1712 90.1497 93.0639 89.0354C93.287 88.4782 93.7334 88.0325 94.0682 87.3639Z" fill="black"/>
<path d="M156.336 159.239C156.782 155.004 157.787 150.881 159.014 146.869C159.126 146.869 159.126 146.869 159.237 146.869C159.572 146.869 159.684 146.758 160.018 146.869C160.576 146.981 161.023 147.315 161.358 147.872C162.25 149.098 162.362 150.992 162.585 152.441C162.92 155.784 162.585 159.239 161.469 162.359C160.911 163.919 160.242 165.256 159.349 166.593C158.903 167.15 158.456 167.819 157.898 168.153C157.675 168.265 157.452 168.265 157.229 168.265C157.117 168.265 157.117 168.265 157.117 168.265C157.117 168.265 157.006 168.153 157.117 168.265C156.448 167.485 156.224 166.37 156.224 165.145C156.001 163.139 156.113 161.244 156.336 159.239ZM155.22 170.382C157.006 171.831 159.237 171.273 160.8 169.713C162.25 168.265 163.255 166.37 164.036 164.476C165.598 160.576 165.933 156.341 165.598 152.218C165.375 149.878 164.928 147.204 163.143 145.421C162.25 144.529 161.246 143.972 160.018 143.749C159.461 143.638 158.679 143.638 158.121 143.861C157.452 144.084 157.117 144.641 157.006 145.309C157.006 145.532 157.006 145.644 157.117 145.867C155.109 149.99 153.993 154.335 153.435 158.904C153.212 161.133 152.988 163.473 153.1 165.702C153.212 167.373 153.77 169.268 155.22 170.382Z" fill="black"/>
<path d="M155.22 138.846C157.229 138.289 159.237 137.509 161.134 136.617C162.027 136.172 162.92 135.726 163.813 135.169C164.705 134.612 165.598 134.055 166.379 133.386C166.825 132.94 167.049 132.383 166.825 131.714C166.714 131.492 166.602 131.269 166.379 131.046C165.933 130.6 165.263 130.6 164.705 130.823C163.813 131.269 163.031 131.937 162.25 132.494C161.358 133.052 160.576 133.497 159.684 134.055C158.01 134.946 156.336 135.726 154.439 136.506C152.877 137.063 153.77 139.292 155.22 138.846Z" fill="black"/>
</svg>
