<svg width="120" height="341" viewBox="0 0 120 341" fill="none" xmlns="http://www.w3.org/2000/svg">
<path d="M8.90873 80.544C6.68193 79.3049 4.70255 80.0484 2.47574 80.544C0.743784 81.0396 1.73347 83.7656 2.22832 85.7482C2.47574 86.7395 3.21801 86.9873 4.2077 86.4916C9.651 84.5091 9.89842 84.5091 10.1458 83.5178C10.3933 82.2787 11.383 81.7831 12.8675 82.2787C14.352 82.7744 15.0943 82.0309 17.8159 81.0396C19.7953 80.2962 18.5582 79.0571 18.3108 75.8355C18.0634 72.1182 18.0634 72.1182 13.8572 71.8704C13.1149 71.8704 12.3727 72.1182 11.8778 72.6139C10.1458 74.1008 9.89842 72.1182 7.91904 71.6226C7.17677 71.3748 6.18708 71.6226 5.19739 71.6226C0.496361 71.8704 -0.245907 72.366 0.248938 76.3311C0.248938 77.0746 0.496361 77.5702 1.73347 77.5702C4.94997 77.3224 6.43451 77.5702 7.91904 76.3311C10.8881 74.1008 13.1149 77.3224 12.1252 79.3049C11.6304 80.2962 9.89842 81.0396 8.90873 80.544Z" fill="black"/>
<path d="M16.824 98.3869C14.8446 97.8912 13.1127 98.6347 11.3807 99.1303C6.92708 100.369 6.67966 101.113 9.15389 104.582C9.64873 105.326 10.391 105.574 11.1333 105.078C16.0817 102.352 16.3291 102.352 17.0714 100.865C18.0611 98.8825 19.2982 100.865 20.5353 100.122C26.4735 97.1478 24.7415 97.8912 22.7621 91.6958C22.5147 90.9524 22.0199 90.4567 21.0302 90.4567C16.824 90.9524 15.8343 90.9524 15.3395 92.1914C14.8446 93.1827 13.3601 93.4305 12.8652 92.4393C11.8755 90.7045 9.89616 90.9524 5.68997 91.2002C3.21574 91.448 4.70028 92.9349 5.68997 96.4043C6.18482 98.3869 7.42193 98.1391 13.1127 96.4043C15.092 95.9087 15.5869 93.6783 17.3188 94.9174C18.3085 95.6609 18.8034 96.6522 18.3085 97.6434C18.0611 97.8912 17.3188 98.3869 16.824 98.3869Z" fill="black"/>
<path d="M23.0115 113.256C21.0321 113.008 19.795 114.247 18.3104 114.991C14.5991 116.973 14.5991 117.717 17.8156 120.938C18.5579 121.682 19.0527 121.682 19.795 121.186C23.7537 117.469 23.7537 117.469 24.2486 115.734C24.7434 113.504 26.228 115.238 27.2177 114.495C31.9187 110.53 30.4341 111.273 26.9702 105.574C25.9805 104.087 25.4857 104.335 21.5269 105.574C20.7847 105.821 20.0424 106.069 19.795 107.061C19.5475 108.3 18.3104 108.547 17.5682 107.804C16.0836 106.069 14.3517 106.813 10.6403 107.804C8.41353 108.3 10.3929 109.786 11.8774 113.256C12.8671 114.991 13.6094 114.743 18.5579 112.017C20.2898 111.026 20.0424 108.795 22.0218 109.539C23.2589 110.034 23.7537 111.026 23.7537 112.265C24.0012 112.512 23.2589 113.256 23.0115 113.256Z" fill="black"/>
<path d="M10.3918 60.7186C8.65979 60.223 7.17526 59.9752 5.4433 59.4795V59.7273C0.247423 59.7273 0 60.223 0 63.6924C0 64.9315 0 66.1706 1.97938 65.675C4.45361 65.1793 6.92783 64.6837 9.15464 64.1881C9.89691 64.1881 12.3711 62.7012 12.866 62.949C14.1031 63.9402 15.5876 63.4446 16.8247 63.4446C17.8144 63.4446 18.3093 62.949 18.3093 62.2055C18.8041 58.7361 19.5464 56.7535 19.0515 55.7623C18.5567 55.0188 14.8454 54.0275 14.1031 54.5232C13.3608 55.0188 12.6186 55.0188 12.3711 54.5232C11.8763 53.2841 11.3814 53.5319 6.43299 52.5406C1.73196 51.5494 1.73196 51.3016 0.742268 56.2579C0.494845 57.0014 0.989691 57.497 1.97938 57.497C7.6701 57.497 9.15464 57.7448 10.1443 57.2492C12.3711 55.7623 14.5979 57.9926 13.1134 59.9752C12.6186 60.7186 11.6289 61.2142 10.3918 60.7186Z" fill="black"/>
<path d="M58.1439 87.483C59.8758 87.9786 57.1542 88.4742 67.5459 88.9699C69.5253 88.9699 69.0305 86.2439 69.2779 84.0135C69.2779 83.0223 68.783 82.5266 67.5459 82.5266C61.6078 82.7744 61.1129 83.0222 60.3707 84.2613C59.6284 85.5004 58.3913 85.5004 57.1542 84.5092C55.9171 83.5179 55.9171 83.7657 50.7212 84.0135C49.4841 84.0135 48.7418 84.5092 48.9892 85.7482C49.2367 91.2002 46.7624 91.2002 51.9583 92.9349C52.7006 93.1828 54.4325 93.6784 55.4222 93.1828C56.4119 92.6871 57.1542 92.9349 57.8964 93.6784C58.6387 94.4218 59.1336 94.9175 63.5872 96.4044C67.5459 97.6435 67.7934 97.3957 68.2882 94.4218C68.783 91.9437 68.783 92.1915 64.082 91.448V91.2002C58.8861 91.448 54.1851 92.4393 56.4119 87.9786C56.1645 87.2351 57.4016 87.2351 58.1439 87.483Z" fill="black"/>
<path d="M55.4239 69.64C56.661 70.1357 57.8981 69.64 59.8775 69.1444C64.0837 68.1531 64.3311 67.4097 61.362 64.6837C60.6198 63.9402 59.6301 63.4446 58.393 63.9402C56.661 64.4359 55.1765 64.6837 53.4445 65.4271C51.7126 66.1706 52.2074 68.6488 49.7332 67.4097C48.7435 66.914 48.0012 67.4097 44.7847 68.8966C43.795 69.3922 43.795 70.1357 44.2899 70.8791C47.7538 76.8267 45.7744 76.8267 50.7229 77.0746C52.2074 77.0746 53.1971 77.3224 54.1868 76.3311C54.9291 75.5876 56.1662 75.5876 56.9084 76.3311C57.6507 77.3224 58.393 77.3224 61.8569 77.3224C63.5889 77.3224 66.3105 77.3224 66.3105 77.0746C66.8053 76.5789 66.8053 75.5876 66.5579 74.8442C66.0631 73.6051 65.5682 72.366 64.5785 71.3747C63.5889 70.6313 58.1456 72.1182 57.4033 73.1095C56.4136 74.3486 54.9291 74.3486 53.4445 73.8529C50.4755 72.8616 51.2177 68.1531 55.4239 69.64Z" fill="black"/>
<path d="M57.6489 102.848C67.7932 108.547 67.5458 105.326 67.7932 102.104C67.7932 101.113 67.5458 100.617 66.3087 100.369C60.3705 99.3781 60.1231 98.8825 59.1334 99.8738C58.3911 100.617 57.4014 100.617 57.154 99.626C56.6592 98.3869 55.9169 98.6347 49.9788 97.8912C48.9891 97.6434 48.2468 98.1391 48.4942 99.3781C48.7416 102.848 45.5252 103.839 50.9685 106.813C51.2159 107.06 51.4633 107.308 51.7107 107.308C52.453 107.556 53.1953 107.804 53.9375 107.556C55.4221 107.556 56.4117 108.052 56.6592 109.043C57.154 111.026 58.886 112.017 60.3705 113.008C63.0922 114.991 63.3396 114.991 64.5767 112.265C66.0612 109.291 66.0612 109.291 62.5973 108.052C60.8654 107.308 58.1437 106.813 56.4117 106.565C54.9272 106.317 53.6901 105.078 53.9375 103.839C53.9375 102.848 56.1643 102.104 57.6489 102.848Z" fill="black"/>
<path d="M39.8356 131.594C39.8356 132.586 40.3305 133.081 41.5676 133.081C48.9903 132.338 50.2274 132.586 49.2377 130.108C46.0212 122.673 45.7738 122.425 44.2892 121.434C42.8047 120.443 42.8047 118.956 44.2892 117.964C44.7841 117.717 45.5264 117.469 46.2686 117.221C44.0418 113.504 44.2892 113.504 41.3202 113.999C40.3305 113.999 39.0934 113.999 38.8459 114.247C38.3511 114.743 38.3511 115.982 38.3511 116.725C38.1037 117.469 37.8563 118.212 39.3408 118.708C41.3202 119.204 41.5676 120.443 40.5779 121.93C39.3408 123.664 39.5882 124.16 39.8356 131.594Z" fill="black"/>
<path d="M35.1358 118.212C35.6307 117.964 36.373 118.46 36.6204 118.212C37.1152 117.469 37.3626 116.478 37.6101 115.734C37.8575 113.256 37.3626 113.504 32.6616 111.273C31.9194 112.76 31.1771 113.999 30.6822 115.486C30.1874 116.725 32.1668 117.964 29.94 118.46C29.1977 118.708 29.1977 118.46 25.9812 125.895C25.7338 126.638 25.7338 127.629 26.7235 128.125C31.6719 130.851 33.8987 132.586 34.1462 130.107C35.3833 120.443 35.1358 123.169 34.1462 121.186C33.4039 119.699 32.6616 119.204 35.1358 118.212Z" fill="black"/>
<path d="M55.1733 127.629C55.6682 128.373 56.4105 128.621 57.1527 127.877C62.8435 122.673 61.8538 123.664 57.6476 118.46C56.9053 117.717 56.163 116.973 54.9259 116.973C52.4517 116.725 53.6888 114.495 52.9465 113.752C51.9569 112.512 50.7197 111.273 49.4826 110.034C48.9878 109.539 48.2455 109.539 47.7507 110.282C46.761 111.521 44.7816 113.256 45.029 113.752C47.2558 117.964 47.2558 116.725 49.2352 116.973C51.2146 116.725 51.9569 117.717 51.2146 119.451C50.7197 120.195 50.7197 120.195 55.1733 127.629Z" fill="black"/>
<path d="M48.495 55.2668C50.9692 55.2668 52.4537 54.0277 54.1857 53.0364C56.4125 51.7973 52.2063 47.5844 47.7527 51.7973C47.0104 52.5408 47.5053 53.2842 45.5259 54.2755C45.031 54.5233 44.2888 54.5233 43.7939 54.7711C43.0517 55.2668 42.5568 56.0102 41.8146 56.5058C40.5774 57.4971 40.5774 58.2406 41.8146 58.984C44.0414 60.2231 43.2991 62.7013 47.5053 61.71C48.9898 61.4622 50.4743 61.4622 51.2166 59.9753C51.7115 58.7362 53.4434 59.9753 54.6805 60.4709C59.629 59.7275 61.3609 59.9753 60.3713 58.4884C58.6393 56.0102 58.3919 55.0189 56.6599 55.7624C54.6805 56.7537 52.4537 57.0015 50.9692 58.7362C50.7218 59.2318 48.9898 59.2318 48.495 58.984C47.7527 58.7362 47.2579 57.7449 47.2579 57.0015C47.0104 56.258 47.7527 55.2668 48.495 55.2668Z" fill="black"/>
<path d="M46.5166 -0.244386C48.2486 0.746884 49.7331 -0.244385 51.4651 -0.74002C53.6919 -1.23565 53.197 -2.47474 52.9496 -4.95291C52.4548 -8.42236 51.2177 -5.44855 40.5785 -0.492201C36.8671 1.24252 36.8671 0.994701 37.1146 4.95978C37.1146 6.19886 37.6094 6.44668 38.8465 6.44668C54.4342 4.95978 53.6919 6.19886 53.197 1.49033C53.197 1.49033 53.197 1.24252 52.9496 0.746885C50.9702 1.49034 48.9909 1.98597 47.0115 2.97724C46.0218 3.47287 45.0321 4.21633 44.0424 3.22506C42.3104 1.49034 44.2898 -1.23565 46.5166 -0.244386Z" fill="black"/>
<path d="M17.8157 12.8899C3.21775 11.6509 3.46517 11.1552 3.96002 15.8638C3.96002 15.8638 3.96002 16.1116 4.20744 16.3594C8.66105 15.1203 13.8569 12.8899 12.3724 17.3507C12.3724 17.5985 11.1353 17.8463 10.6404 17.5985C8.41362 16.3594 6.43424 17.8463 4.70228 18.5897C3.96002 18.8376 4.20744 20.5723 3.96002 21.8114C3.96002 22.8026 4.45486 23.0505 5.44455 22.8026C21.0322 18.0941 20.0425 19.8288 19.5476 16.6072C19.3002 14.6247 20.5373 12.8899 17.8157 12.8899Z" fill="black"/>
<path d="M9.64775 3.96851C8.65806 2.97724 4.6993 3.22506 4.45188 4.46415C4.20445 5.70324 4.20445 6.94232 3.95703 7.93359C23.0086 7.93359 18.3075 8.92486 19.5447 3.7207C19.7921 2.23379 19.2972 1.49034 17.8127 1.24252C4.94672 -2.97037 5.44157 -3.21819 4.94672 1.24252C4.94672 1.24252 4.94672 1.49034 5.19414 1.73816C6.9261 1.73816 8.65806 1.98598 10.1426 1.73816C11.1323 1.49034 12.122 1.24252 12.6168 2.48161C12.8642 3.47288 11.8746 5.95105 9.64775 3.96851Z" fill="black"/>
<path d="M45.2799 13.6333C46.7645 14.3768 50.7232 14.3768 51.7129 13.3855C52.4552 12.3943 52.4552 10.6595 52.95 8.9248C49.7335 9.42044 49.2387 9.91608 41.3212 11.8986C39.8366 12.1464 38.1047 12.1464 37.115 12.8899C36.3727 13.6333 36.3727 15.3681 36.1253 16.6071C35.8779 17.5984 36.1253 18.3419 37.3624 18.3419C52.2078 19.8288 50.7232 20.5722 51.9603 15.6159C46.7645 16.3593 43.548 17.1028 43.3005 15.8637C43.0531 15.1202 43.3005 14.3768 43.548 13.8812C43.7954 13.3855 44.7851 13.3855 45.2799 13.6333Z" fill="black"/>
<path d="M43.7933 90.9523C47.0098 89.4654 44.0407 85.7481 41.319 87.9785C40.3294 88.7219 39.5871 88.9698 38.5974 88.2263C35.3809 86.4916 33.4015 90.9523 36.8654 91.6958C38.35 91.9436 38.5974 92.687 38.8448 93.9261C38.8448 94.6696 39.8345 95.413 40.3294 95.6608C42.5562 95.6608 43.5458 94.4217 43.051 92.9348C42.5562 91.9436 42.5562 91.4479 43.7933 90.9523Z" fill="black"/>
<path d="M36.8675 98.8825C40.084 97.3956 37.1149 93.6784 34.3933 95.9087C33.4036 96.6522 32.6613 96.9 31.6716 96.1565C28.4551 94.4218 26.4757 98.8825 29.9397 99.626C31.4242 99.8738 31.6716 100.617 31.919 101.856C31.919 102.6 32.9087 103.343 33.4036 103.591C35.6304 103.591 36.6201 102.352 36.1252 100.865C35.6304 100.122 35.8778 99.3782 36.8675 98.8825Z" fill="black"/>
<path d="M26.2261 54.2754C23.257 55.7623 26.9683 59.4796 29.1951 57.0014C30.1848 55.7623 31.1745 55.7623 32.4116 56.2579C33.8962 56.7536 35.1333 56.0101 35.3807 54.0276C34.8858 53.7798 34.391 52.7885 33.4013 52.5407C32.1642 52.2929 31.4219 51.7972 31.1745 50.5581C30.9271 47.5843 25.7312 48.8234 26.9683 51.5494C27.4632 52.7885 27.4632 53.5319 26.2261 54.2754Z" fill="black"/>
<path d="M23.7524 66.6663C20.7833 68.401 23.9998 71.8705 26.7214 69.3923C27.4637 68.6488 28.206 68.401 29.4431 68.8967C32.6596 70.3836 34.3915 65.9228 30.6802 65.4272C29.4431 65.1794 28.9483 64.6838 28.7008 63.6925C28.4534 62.949 27.4637 62.4534 27.2163 61.9578C24.9895 61.9578 23.9998 63.1969 24.7421 64.6838C24.9895 65.4272 24.7421 65.9228 23.7524 66.6663Z" fill="black"/>
<path d="M44.0394 107.061C46.5136 105.574 43.792 102.104 41.0703 104.335C39.0909 106.069 38.8435 105.326 36.6167 104.83C36.1219 105.326 35.3796 105.821 35.1322 106.565C34.8847 107.556 35.3796 108.547 36.6167 108.795C38.1012 109.043 39.0909 109.291 39.3384 110.778C39.8332 113.256 44.7817 112.017 43.2971 109.539C42.8023 108.3 42.8023 107.804 44.0394 107.061Z" fill="black"/>
<path d="M28.9497 9.66827C27.96 10.1639 27.4652 10.1639 26.4755 9.66827C25.2384 8.677 24.0013 8.92482 23.259 9.91609C22.5167 10.9074 23.0116 11.8986 24.4961 12.8899C26.4755 14.129 24.7435 16.855 27.7126 17.1028C28.9497 17.1028 29.692 16.3593 29.692 14.129C29.9394 13.8812 30.1868 13.3855 30.9291 13.1377C32.4136 12.3943 32.9085 11.6508 32.4136 10.4117C31.6714 8.92482 30.4342 8.677 28.9497 9.66827Z" fill="black"/>
<path d="M24.9897 83.2701C24.4948 83.5179 24.2474 84.2613 24 84.757C24.4948 85.2526 24.9897 86.2439 25.4845 86.2439C28.4536 86.7395 28.2062 83.7657 31.1753 85.2526C34.1443 86.4917 35.6289 82.031 32.4124 81.5353C30.9278 81.2875 30.1856 80.7919 29.9381 79.305C29.6907 76.8268 24.7423 77.5703 25.732 80.2962C26.4742 81.7831 26.4742 82.5266 24.9897 83.2701Z" fill="black"/>
<path d="M39.3421 75.0921C42.0638 73.3574 38.105 70.1358 36.3731 72.3662C35.3834 73.6052 34.3937 73.6052 32.9092 73.1096C31.4246 72.614 30.1875 73.6052 30.1875 75.5878C30.6823 75.8356 31.4246 76.579 32.1669 76.8269C33.404 77.0747 34.1463 77.3225 34.3937 78.5616C34.8885 81.5354 39.837 80.2963 38.5999 77.5703C37.8576 76.579 38.105 75.8356 39.3421 75.0921Z" fill="black"/>
<path d="M26.2276 -1.23565C26.2276 -0.244381 25.9801 0.251253 24.9904 0.499071C21.5265 1.49034 23.5059 5.45542 26.7224 3.7207C27.7121 3.22506 28.4544 3.22506 29.1966 3.96851C31.9183 6.19887 34.3925 2.23379 31.4234 0.994705C30.1863 0.49907 29.9389 -0.244382 30.1863 -1.48347C30.9286 -3.96164 25.9801 -4.20946 26.2276 -1.23565Z" fill="black"/>
<path d="M112.082 277.063C113.814 277.807 115.298 277.311 118.267 276.815C119.505 276.568 119.505 275.824 119.505 275.328C119.01 271.363 118.267 271.116 113.566 271.859C112.577 272.107 111.834 272.107 111.092 272.602C109.113 273.346 109.608 275.328 107.381 274.585C106.886 274.337 105.896 274.089 105.401 274.337C101.195 275.576 101.443 275.576 102.185 279.294C102.927 282.515 101.937 284.002 103.917 284.25C106.639 284.498 107.876 285.241 108.865 284.25C109.855 283.506 111.092 283.506 111.587 284.745C112.082 285.737 112.329 285.489 118.02 286.232C119.01 286.48 119.752 285.985 119.752 284.993C119.752 283.011 119.999 279.789 118.267 280.037C116.041 280.037 113.814 279.789 112.082 281.524C111.34 282.267 109.608 282.02 108.618 281.028C107.381 279.294 108.865 275.576 112.082 277.063Z" fill="black"/>
<path d="M112.331 297.88C118.269 298.128 119.506 298.128 119.506 296.145C119.506 292.676 120.496 290.693 118.269 291.189C114.31 291.932 112.083 291.932 111.588 293.915C111.341 294.906 109.856 295.154 109.114 294.163C108.124 293.171 107.382 293.419 102.929 294.41C101.939 294.658 101.691 295.154 101.691 295.897C101.197 302.341 99.4647 302.093 105.898 303.332C107.135 303.58 107.877 301.349 109.362 303.084C110.351 304.323 110.599 304.323 116.289 305.562C117.279 305.81 117.774 305.314 118.021 304.571C119.506 300.606 119.258 300.11 114.557 299.862C112.826 299.862 111.094 299.367 109.114 300.358C108.867 300.606 107.877 300.358 107.63 299.862C106.887 298.871 107.135 297.88 107.877 296.889C109.362 295.897 110.351 297.632 112.331 297.88Z" fill="black"/>
<path d="M106.391 312.749C108.123 311.51 108.371 313.74 110.35 314.236C115.546 315.723 116.783 315.971 117.278 313.988C118.02 310.271 119.505 308.536 117.278 308.536C113.319 308.536 111.587 308.04 110.597 310.023C110.103 311.014 108.865 310.766 108.371 309.775C107.876 308.784 107.134 308.536 106.391 308.536C102.432 308.536 101.69 308.288 101.195 310.023C99.216 316.466 97.7315 315.971 103.175 318.944C104.164 319.44 105.402 317.21 106.391 319.44C107.134 320.927 107.381 320.927 111.835 323.653C112.577 324.149 113.072 323.901 113.814 322.909C116.041 318.944 116.041 318.201 111.835 317.21C110.35 316.714 108.618 315.971 106.886 316.714C106.639 316.714 105.896 316.218 105.649 315.971C105.154 314.731 105.402 313.492 106.391 312.749Z" fill="black"/>
<path d="M105.403 258.973C106.64 259.468 108.124 258.477 113.568 257.238C114.557 256.99 114.805 256.494 114.557 255.751C112.578 251.042 112.33 251.29 108.124 253.273C103.423 255.255 102.928 255.503 102.928 256.742C102.928 257.486 101.939 257.486 101.196 257.238C100.207 256.99 96.7428 258.725 96.7428 259.468C96.4954 260.459 97.7325 262.194 98.9696 265.416C99.217 266.159 99.7119 266.655 100.702 266.407C101.939 266.159 103.423 266.407 104.66 265.168C104.908 264.672 107.629 265.664 108.372 265.664C110.846 265.664 113.32 265.416 115.794 265.416C117.774 265.416 117.526 264.424 117.279 262.938C116.537 259.468 116.042 259.22 111.093 260.459C111.093 260.459 111.093 260.212 110.846 260.212C109.361 260.955 107.877 261.698 106.392 262.442C104.165 263.681 101.691 261.451 102.928 259.716C103.423 258.725 104.413 258.725 105.403 258.973Z" fill="black"/>
<path d="M61.6083 304.571V304.819C57.4021 306.553 57.4021 306.553 58.3918 308.784C59.6289 311.758 59.8764 311.758 63.3403 309.775C67.299 307.297 67.7939 306.801 68.2887 305.81C68.7836 304.819 69.2784 304.323 70.5155 304.819C71.7526 305.067 73.2372 304.075 73.9795 303.827C78.6805 300.854 76.2063 301.597 74.9691 296.145C74.7217 295.154 73.9795 294.658 72.7423 294.906C67.5465 295.897 67.7939 295.65 66.8042 296.889C65.8145 298.128 64.5774 298.375 63.5877 297.384C62.598 296.393 62.1032 296.393 56.165 297.632C54.9279 297.88 54.4331 298.623 54.9279 299.367C55.6702 301.349 55.9176 304.075 57.897 303.58C67.7939 300.606 65.0722 300.606 66.5568 299.862C67.299 299.615 68.5362 299.119 68.5362 299.367C71.5052 303.332 66.8042 303.58 61.6083 304.571Z" fill="black"/>
<path d="M67.5482 285.737C66.3111 286.48 64.8266 286.728 63.5895 285.985C62.5998 285.241 56.9091 285.241 56.1668 285.985C55.4245 286.976 55.1771 288.463 54.9297 289.702C54.9297 290.445 55.1771 291.189 55.672 291.684C55.9194 291.932 58.3936 291.189 60.1256 290.693C63.3421 289.95 64.3317 289.95 64.5792 288.711C65.074 287.719 66.3111 287.472 67.0534 287.967C68.0431 288.711 69.0328 288.215 70.5173 287.967C75.4658 286.728 73.239 286.976 75.4658 280.533C75.7132 279.541 75.4658 279.046 74.4761 278.798C71.0122 278.055 70.2699 277.807 69.2802 278.55C66.806 280.285 67.0534 277.559 65.074 277.559C63.3421 277.311 61.6101 277.311 59.8781 277.311C58.641 277.311 57.6513 277.807 57.1565 278.798C55.1771 282.02 55.4245 282.763 59.6307 282.763C61.6101 282.763 63.0946 283.011 64.0843 282.267C68.2905 279.541 70.2699 284.25 67.5482 285.737Z" fill="black"/>
<path d="M72.9916 318.696C71.5071 319.192 69.0329 320.431 67.5483 321.422C64.5793 323.653 64.5793 323.653 66.5586 326.131C68.538 328.361 68.7854 328.361 70.7648 325.883C72.0019 324.644 73.239 323.157 73.239 321.175C73.239 319.936 73.9813 319.192 75.4659 318.944C76.2081 318.944 76.9504 318.449 77.4452 318.201C77.6927 317.953 77.9401 317.705 78.1875 317.457C82.8885 313.244 79.4246 312.997 78.9298 309.527C78.6823 308.288 77.9401 308.04 76.9504 308.288C71.5071 310.271 70.7648 310.271 70.5174 311.51C70.27 312.253 69.2803 312.749 68.538 312.253C67.3009 311.51 67.0535 312.005 61.6102 314.484C60.6205 314.979 60.3731 315.475 60.6205 316.466C61.6102 319.44 62.105 322.662 70.5174 314.731C71.7545 313.492 73.9813 313.74 74.7236 315.227C75.2184 316.466 74.2287 318.201 72.9916 318.696Z" fill="black"/>
<path d="M92.0399 325.635C93.5244 324.892 92.7821 324.149 92.5347 323.405C92.2873 322.662 92.0399 321.67 91.2976 321.175C90.8028 320.927 89.5656 321.423 88.8234 321.423C85.8543 321.67 86.1017 321.67 84.6172 325.883C85.6069 325.883 86.1017 326.131 86.844 326.131C88.5759 326.627 88.8234 328.114 87.8337 329.353C86.5966 330.592 86.3491 331.087 85.112 339.018C84.6172 341.744 85.8543 341.248 93.277 340.009C94.5141 339.761 94.7615 339.265 94.5141 338.274C93.0296 330.84 93.277 330.592 91.545 329.105C90.3079 327.866 90.3079 326.627 92.0399 325.635Z" fill="black"/>
<path d="M99.9592 335.3C100.454 336.292 101.196 336.539 102.186 335.796C106.887 331.831 107.877 330.84 106.887 329.353C102.186 322.909 102.186 322.909 101.196 322.909C98.9695 322.909 100.701 321.423 99.7118 320.183C98.7221 318.944 97.7324 317.953 96.7427 316.714C92.784 319.936 92.0417 319.936 93.0314 322.166C93.2788 322.909 94.0211 323.653 94.5159 324.396C94.7634 324.644 95.5056 323.901 96.0005 324.149C98.7221 324.396 97.9798 325.14 97.7324 326.627C97.485 328.609 96.4953 326.379 99.9592 335.3Z" fill="black"/>
<path d="M81.8971 326.131C83.8765 325.388 84.1239 326.627 85.361 321.918C85.6084 321.423 83.1342 320.183 81.8971 319.44C81.1548 318.944 80.66 318.944 80.1651 319.688C79.4229 321.175 78.4332 322.662 77.6909 324.149C77.196 325.14 78.928 327.122 76.7012 327.866C75.4641 328.361 74.9692 329.105 74.4744 330.096C72.495 334.309 71.0105 335.548 73.2373 336.787C77.196 339.265 78.6806 340.257 79.1754 338.522C81.6497 330.096 81.6497 330.344 80.9074 329.105C79.4229 327.618 79.9177 326.379 81.8971 326.131Z" fill="black"/>
<path d="M72.4965 190.575C73.9811 189.336 73.4862 188.592 73.4862 182.149C73.4862 179.175 71.2594 180.167 63.3419 181.901C62.1048 182.149 61.8574 183.14 62.3522 184.132C65.8161 191.566 65.5687 191.318 67.0533 191.814C69.2801 192.557 69.5275 193.797 68.0429 195.531C67.0533 196.523 68.0429 197.514 69.5275 199.744C74.4759 197.762 73.4862 200.24 74.2285 194.54C73.7337 194.292 73.2388 194.292 72.9914 194.044C71.2594 193.053 71.2594 191.814 72.4965 190.575Z" fill="black"/>
<path d="M68.7843 269.629C68.2895 270.124 66.8049 270.372 66.3101 270.124C64.5781 268.885 62.3513 269.133 60.1245 268.637C58.3926 268.39 58.3926 269.381 57.4029 272.107C56.6606 273.842 58.3926 273.346 63.341 272.85C64.3307 272.107 65.8152 270.62 66.5575 271.611C67.5472 272.85 69.0317 272.603 70.5163 272.355C74.7225 272.355 73.4853 270.372 75.2173 268.39C76.4544 267.151 76.207 266.655 74.7225 265.911C73.9802 265.664 73.2379 265.168 72.2482 264.672C71.7534 264.425 71.0111 264.672 70.5163 264.672C68.2895 264.177 68.5369 263.433 67.7946 262.938C62.3513 259.964 59.3822 265.168 61.6091 265.664C63.5884 266.159 65.5678 266.903 67.7946 266.407C68.2895 266.407 69.5266 266.903 69.5266 267.151C69.774 268.142 69.5266 269.133 68.7843 269.629Z" fill="black"/>
<path d="M82.64 196.77C81.1554 199.496 79.6709 202.47 82.64 205.444C84.1245 203.957 86.3513 202.966 86.8462 200.735C86.8462 200.24 87.341 199.744 87.8358 199.744C89.5678 199.249 93.774 196.027 94.0214 194.54C94.2688 193.549 94.0214 193.301 88.0833 186.858C87.341 186.114 86.3513 186.362 86.1039 187.105C85.1142 189.336 83.6297 191.814 85.1142 194.292C85.3616 194.788 85.3616 195.779 84.8668 196.275C84.6194 196.523 83.6297 196.523 82.64 196.77Z" fill="black"/>
<path d="M59.6296 202.47C59.1348 202.222 59.1348 199.992 58.3925 199.496C50.7224 192.805 50.9698 192.557 48.9904 201.975C48.743 203.461 49.2379 204.453 50.7224 204.948C58.8874 207.179 53.9389 206.435 57.6502 206.435C58.1451 206.435 58.8873 206.435 59.1348 206.683C60.6193 208.666 63.0935 208.17 65.0729 208.913C66.8049 204.948 64.3306 203.461 61.8564 201.975C60.8667 202.222 59.877 202.718 59.6296 202.47Z" fill="black"/>
<path d="M60.1241 185.371C59.6292 184.38 58.887 184.38 57.8973 185.371C54.4334 188.84 52.7014 190.079 54.4334 191.814C58.6395 196.027 59.8767 197.514 60.3715 197.266C62.3509 196.77 62.1035 198.009 62.5983 199.001C63.3406 200.488 64.8251 201.727 66.3096 202.966C68.5364 200.24 69.0313 199.744 68.5365 198.753C68.0416 198.009 67.0519 196.027 66.0622 196.027C63.8354 196.027 63.0932 194.788 63.588 193.053C64.0828 191.071 63.0932 189.831 60.1241 185.371Z" fill="black"/>
<path d="M56.9063 215.604C54.927 215.109 52.9476 215.109 50.7208 214.861C50.7208 215.357 50.7208 215.604 50.7208 215.604C51.463 220.313 50.4734 219.322 65.8136 216.844C67.0507 216.596 67.2981 216.1 67.0507 215.109C66.3084 211.392 66.3084 211.392 62.3496 210.648C50.7208 208.418 48.7414 205.692 49.2362 209.161C49.4837 211.392 49.2362 212.878 51.463 212.878C53.195 212.878 54.6795 213.374 56.1641 212.135C58.1435 210.4 60.8651 212.878 59.3806 215.109C59.1331 216.1 57.896 215.852 56.9063 215.604Z" fill="black"/>
<path d="M101.691 224.526C102.928 224.526 103.423 224.278 102.928 223.287C102.681 222.296 102.186 220.561 101.443 220.313C99.4641 219.817 97.2373 219.074 95.2579 220.809C95.0105 221.057 93.7733 221.057 93.5259 220.809C91.0517 217.091 96.495 217.835 101.196 217.835C101.196 217.339 101.443 217.339 101.196 217.339C100.454 212.631 100.949 213.126 87.0929 217.835C84.6187 218.578 86.1032 220.065 86.3507 221.8C86.8455 225.022 85.6084 223.535 101.691 224.526Z" fill="black"/>
<path d="M92.2894 205.196C94.0213 204.948 95.7533 204.453 97.2378 203.957C97.2378 203.461 97.2378 203.461 97.2378 203.214C95.5059 199.001 96.2481 199.249 84.6193 206.187C83.3822 206.931 83.1347 207.674 83.6296 208.913C85.8564 213.622 81.4028 214.118 99.712 209.409C99.4646 208.418 98.9698 207.179 98.4749 206.187C97.9801 205.196 94.0213 205.94 93.2791 206.931C91.7945 209.409 90.0626 207.179 90.31 205.94C90.0626 205.196 91.0523 205.196 92.2894 205.196Z" fill="black"/>
<path d="M54.9287 228.739C57.4029 233.199 55.9184 232.704 69.774 227.748C71.0112 227.252 71.0112 226.756 70.5163 225.765C69.774 224.526 69.5266 223.039 68.5369 222.296C67.5472 221.8 65.8153 222.296 64.3307 222.296C55.9184 222.296 55.6709 222.048 52.207 222.296C53.1967 223.782 53.4441 225.517 54.4338 226.261C55.4235 227.252 59.6297 226.013 60.6194 225.022C61.1142 224.774 62.1039 224.526 62.3514 224.774C62.8462 225.269 63.0936 226.013 63.0936 226.756C63.3411 228.243 60.1246 228.243 54.9287 228.739Z" fill="black"/>
<path d="M80.4135 191.566C81.898 190.823 81.898 190.079 83.1351 186.114C83.8774 183.388 83.63 182.893 80.6609 181.653C75.7124 179.671 76.7021 180.414 75.9599 187.601C75.7125 188.84 75.9599 190.079 77.4444 190.823C78.6815 191.566 78.1867 193.053 76.7021 193.797C75.465 194.292 74.2279 197.514 74.9702 198.257C75.465 198.753 76.2073 198.753 76.7021 199.001C77.197 199.249 77.9393 199.744 78.929 200.24C79.4238 197.762 81.1558 195.531 80.1661 193.053C79.9186 192.557 80.1661 191.566 80.4135 191.566Z" fill="black"/>
<path d="M85.6094 303.58C85.8569 303.084 86.5991 302.341 86.5991 301.597C86.5991 300.358 86.5991 299.615 87.8362 299.119C91.0527 297.384 88.0837 293.667 85.362 296.145C84.3723 296.889 83.6301 296.889 82.6404 296.393C79.4239 294.906 77.4445 299.119 80.9084 299.862C82.1455 300.11 82.3929 300.606 82.1455 301.597C82.3929 303.084 83.63 304.075 85.6094 303.58Z" fill="black"/>
<path d="M94.2696 309.775C94.517 309.279 95.2593 308.536 95.2593 307.793C95.2593 306.553 95.2593 305.81 96.4964 305.314C99.7129 303.58 96.7438 299.862 94.0222 302.341C93.0325 303.084 92.2902 303.084 91.3005 302.588C88.084 301.101 86.1046 305.314 89.5686 306.058C90.8057 306.306 91.0531 306.801 90.8057 307.793C90.8057 309.527 92.0428 310.271 94.2696 309.775Z" fill="black"/>
<path d="M83.6292 257.981C83.8767 259.22 83.1344 259.716 82.1447 260.459C81.4024 260.955 80.9076 261.946 80.6602 262.194C81.155 263.929 82.6395 264.424 83.8767 263.681C85.1138 262.938 86.1035 262.69 87.3406 263.433C89.8148 265.168 92.5364 260.707 89.32 259.964C87.8354 259.716 87.588 258.973 87.8354 257.733C88.3303 255.007 83.1344 255.007 83.6292 257.981Z" fill="black"/>
<path d="M90.3081 267.646C90.0606 268.142 89.3184 268.885 89.3184 269.629C89.3184 270.868 89.071 271.363 87.8338 271.859C84.3699 273.346 87.339 277.311 90.0606 275.081C91.0503 274.337 91.7926 274.337 92.7823 274.833C95.9988 276.815 98.2256 272.602 95.0091 271.363C93.772 271.116 93.5246 270.62 93.772 269.381C93.772 268.142 92.5349 267.15 90.3081 267.646Z" fill="black"/>
<path d="M90.0618 318.201C90.0618 316.714 90.804 315.971 92.2886 315.475C93.5257 314.979 94.0205 313.988 93.2782 312.997C92.7834 312.253 91.7937 312.006 91.2989 311.758C89.3195 312.749 89.3195 313.492 87.0927 312.501C83.8762 311.014 82.1442 314.979 84.6185 315.723C85.8556 316.218 86.3504 316.714 85.8556 317.953C85.1133 320.679 90.3092 320.679 90.0618 318.201Z" fill="black"/>
<path d="M78.1855 216.844C77.4432 217.587 76.9484 217.835 75.9587 217.587C74.2267 217.091 73.237 217.587 72.7422 218.826C72.4948 220.065 73.237 220.809 74.7216 221.056C75.4639 221.304 75.9587 221.8 76.2061 221.8C76.701 224.03 77.6907 224.526 78.9278 224.278C81.6494 223.287 79.4226 221.056 80.9072 219.57C82.1443 218.33 82.3917 217.339 81.402 216.348C80.4123 215.357 79.1752 215.604 78.1855 216.844Z" fill="black"/>
<path d="M91.7951 285.737C92.0425 287.224 91.3003 287.719 90.0632 288.463C87.0941 289.702 89.8157 293.667 92.29 291.684C94.7642 289.702 95.259 292.676 98.2281 291.437C98.7229 291.189 98.9704 290.198 99.4652 289.454C98.9704 288.958 98.4755 288.215 97.9807 288.215C96.4961 287.967 96.2487 286.976 96.4961 285.737C96.2487 282.763 91.5477 283.011 91.7951 285.737Z" fill="black"/>
<path d="M87.3385 285.737C87.3385 284.498 87.8333 284.002 89.0704 283.506C89.8127 283.011 90.3076 282.267 90.8024 281.772C90.3076 279.789 88.823 279.294 87.5859 280.037C86.3488 280.78 85.3591 281.028 84.122 280.037C81.6478 278.302 78.9261 282.515 81.8952 283.506C83.1323 284.002 83.6271 284.498 83.1323 285.737C82.39 288.711 87.5859 288.711 87.3385 285.737Z" fill="black"/>
<path d="M71.2569 209.905C68.7826 211.887 72.2466 215.109 74.2259 212.135C74.9682 211.144 75.7105 211.144 76.7002 211.392C80.1641 212.383 81.1538 207.922 77.4424 207.922C76.2053 207.922 75.9579 207.427 75.7105 206.435C75.2156 203.461 70.5146 204.948 71.7517 207.427C72.494 208.418 72.2466 209.161 71.2569 209.905Z" fill="black"/>
</svg>
