<svg width="560" height="62" viewBox="0 0 560 62" fill="none" xmlns="http://www.w3.org/2000/svg">
<path d="M0.90625 13.157C28.3163 14.2384 559.091 0.901184 559.091 0.901184L556.55 47.4012C556.55 47.4012 0.90625 69.0291 0.90625 58.2151V13.157Z" fill="white" fill-opacity="0.1" stroke="black" stroke-miterlimit="10"/>
<path d="M20 28C27.7179 28 34 21.7179 34 14C34 6.28205 27.7179 0 20 0C12.2821 0 6 6.28205 6 14C6 21.7179 12.2821 28 20 28Z" fill="black"/>
<path d="M20 11L20 41" stroke="black" stroke-width="4" stroke-miterlimit="10" stroke-linecap="round"/>
<path d="M16.5932 10C19.5763 10 22 8.92857 22 7.5C22 6.07143 19.5763 5 16.5932 5C13.6102 5 11 6.07143 11 7.5C11 8.92857 13.6102 10 16.5932 10Z" fill="white"/>
</svg>
