<svg width="45" height="45" viewBox="0 0 45 45" fill="none" xmlns="http://www.w3.org/2000/svg">
<path d="M30.6646 39.3807C25.868 40.4074 20.5574 41.0918 15.5895 41.2629C10.6216 41.434 5.31099 41.7762 4.28314 36.3008C2.57005 27.2323 4.11183 16.6237 4.11183 7.21291C13.7051 5.84406 32.3777 0.882017 36.4891 10.4639C40.0866 19.0192 41.971 36.8142 30.6646 39.3807ZM44.198 25.179C43.6841 17.6503 43.5128 6.69959 36.3178 2.07974C32.549 -0.315737 28.095 -0.144616 23.8123 0.197595C16.7887 0.710912 9.93632 1.56643 2.91267 2.25086C0.000424832 2.59307 -0.684809 6.01518 1.19958 7.04182C-0.342192 18.1637 0.000424922 29.4566 0.856967 40.5785C0.856967 41.434 1.37089 41.7762 2.22743 42.1184C11.992 45.8828 24.1549 45.7117 34.2621 42.974C43.3415 40.4074 44.7119 34.0765 44.198 25.179Z" fill="white"/>
<path d="M22.7839 28.6011C20.3856 30.1411 17.4734 29.4566 16.1029 26.8901C15.4177 25.3501 15.4177 23.8102 15.589 22.2702C16.2742 21.928 16.9594 21.4147 16.9594 20.5592C17.4734 16.6237 22.7839 19.0192 23.9831 20.9014C26.0388 23.468 25.5249 26.8901 22.7839 28.6011ZM24.8396 16.1104C20.2143 13.2017 12.848 14.5705 11.9915 20.5592C11.9915 20.9014 11.9915 21.2436 12.1628 21.5858C10.9636 24.3235 11.8202 28.0878 13.7046 30.3122C17.302 34.4187 23.9831 33.5632 27.4092 29.7989C31.3493 25.3501 29.6363 19.0192 24.8396 16.1104Z" fill="white"/>
<path d="M31.5199 9.26618C30.8346 8.58176 29.8068 8.41065 28.9502 8.75286C28.9502 8.75286 28.9502 8.75286 29.1215 8.75286H28.9502C28.4363 8.92397 28.0937 9.09506 27.7511 9.43727C27.7511 9.43727 27.5798 9.43728 27.5798 9.60839C27.2371 9.9506 26.8945 10.4639 26.8945 11.1483C26.8945 11.3194 26.8945 11.3194 26.8945 11.4905C26.8945 12.8594 28.265 13.886 29.8068 13.886C30.492 13.886 31.3486 13.7149 31.8625 13.2016C32.0338 13.0305 32.2051 12.8594 32.3764 12.6883C32.5477 12.3461 32.719 12.0038 32.719 11.4905C32.719 11.3194 32.719 11.1483 32.719 10.8061C32.3764 10.1217 32.0338 9.60839 31.5199 9.26618Z" fill="white"/>
</svg>
