<svg width="25" height="43" viewBox="0 0 25 43" fill="none" xmlns="http://www.w3.org/2000/svg">
<path d="M22.4918 5.09776L24.8901 9.88873C24.8901 9.88873 22.6631 10.9154 20.95 11.2576C18.3804 11.7709 16.496 11.5998 16.496 11.5998L15.1255 11.4287L21.4639 24.0905C21.8066 24.7749 22.4918 26.6571 22.6631 28.3681C22.8344 30.5925 22.4918 32.4747 22.3205 32.8169C22.3205 32.8169 21.8066 35.2124 20.0935 37.6078C18.3804 39.8322 16.496 40.6878 15.9821 41.03C15.9821 41.03 12.7272 42.9121 8.78712 42.3988C8.27319 42.2277 7.93058 42.0566 7.41665 41.8855C5.87488 41.2011 4.50441 40.0033 4.16179 39.6611C3.64786 39.1478 2.2774 37.6078 1.42085 35.8968C0.0503873 32.988 0.221696 30.5925 0.221696 30.0792C0.221696 28.5392 0.564313 26.9993 1.24955 25.4593C1.76347 24.2616 2.44871 23.0639 3.47656 22.0372C4.50441 20.8395 5.53226 19.984 6.90273 19.2995L9.30105 24.0905C9.30105 24.0905 6.56011 24.6038 5.36095 26.9993C4.50441 28.7103 4.3331 30.2503 5.01833 32.1325C5.70357 33.5013 6.90273 35.2124 9.47235 35.5546C9.81497 35.5546 9.98628 35.5546 10.3289 35.5546C10.8428 35.8968 11.3567 36.0679 12.042 36.0679C14.4403 36.4101 15.9821 35.7257 17.3525 33.8435C18.3804 32.6458 18.723 31.1058 18.5517 29.5659C18.3804 28.5392 18.0378 27.8548 17.5238 26.9993L5.70357 3.21562L10.1576 0.991241C10.8428 2.01787 12.2133 3.38672 14.269 4.07115C15.1255 4.41336 15.9821 4.58445 16.8386 4.75556C17.1812 4.92666 18.723 5.43997 20.2648 5.43997C20.7787 5.43997 21.6353 5.26887 22.4918 5.09776Z" fill="white"/>
</svg>
