<svg width="51" height="51" viewBox="0 0 51 51" fill="none" xmlns="http://www.w3.org/2000/svg">
<path d="M40.4909 44.2602C40.6131 44.2602 40.6131 44.3824 40.4909 44.2602C41.1019 44.8713 41.9573 44.9935 42.5683 44.5047C45.7456 41.694 48.1897 38.1501 49.6562 33.8729C50.5116 31.3066 51.0004 28.6182 51.0004 26.0519C51.0004 25.0742 50.145 24.341 49.1673 24.7076H49.0451C48.4341 24.8298 48.0675 25.4409 48.0675 26.0519C48.0675 28.3737 47.5787 30.6956 46.8455 32.8953C45.5012 36.6836 43.4238 39.8609 40.6131 42.305C40.1243 42.7938 40.0021 43.6492 40.4909 44.2602Z" fill="black"/>
<path d="M1.99727 30.329C2.73049 30.2068 3.34151 29.4736 3.21931 28.7404C2.73049 25.3187 2.9749 21.7747 4.19694 18.2308C5.90779 13.3427 9.08509 9.30996 13.1178 6.74368C13.6066 6.37706 13.851 5.76605 13.7288 5.15503V5.03282C13.4844 4.05519 12.3846 3.68858 11.6514 4.1774C7.00763 7.11029 3.34151 11.6318 1.38625 17.2532C0.0420075 21.1637 -0.324604 25.3187 0.286415 29.107C0.408619 29.8402 1.14184 30.4512 1.87507 30.329C1.99727 30.329 1.99727 30.329 1.99727 30.329Z" fill="black"/>
<path d="M5.54366 38.1501C4.56603 38.3945 4.19942 39.4943 4.81044 40.3497C5.78807 41.8162 7.01011 43.0382 8.23215 44.2603C8.35435 44.0158 8.47655 43.8936 8.59876 43.7714C8.84317 43.527 9.08757 43.2826 9.33198 43.0382C9.8208 42.4272 9.8208 41.694 9.33198 41.083C8.59876 40.3497 7.86554 39.4943 7.25452 38.5167C6.8879 38.0279 6.27689 37.7835 5.78807 38.0279C5.66587 38.0279 5.54366 38.1501 5.54366 38.1501Z" fill="black"/>
<path d="M31.2084 48.1708C30.8418 47.8042 30.3529 47.5597 29.8641 47.6819C26.0758 48.4152 22.1653 48.1708 18.2548 46.8265C17.3993 46.5821 16.6661 46.2155 15.9329 45.8489C15.3219 45.6045 14.7109 45.7267 14.222 46.2155C13.9776 46.5821 13.7332 46.8265 13.4888 47.1931C13.3666 47.3153 13.1222 47.5597 13 47.6819C14.3442 48.4152 15.8107 49.1484 17.2771 49.6372C21.6765 51.1037 26.198 51.3481 30.4751 50.4926C31.575 50.3704 31.9416 49.1484 31.2084 48.1708C31.2084 48.1708 31.3306 48.293 31.2084 48.1708Z" fill="black"/>
<path d="M48.4344 18.7197H48.5566C49.2898 18.4753 49.7786 17.6198 49.412 16.8866C48.801 15.1758 47.9456 13.4649 46.9679 11.8762C46.6013 11.2652 45.7459 11.0208 45.1349 11.3874C45.1349 11.3874 45.0127 11.3874 45.0127 11.5096C44.2794 11.8762 44.035 12.8539 44.5238 13.4649C45.3793 14.8091 46.1125 16.3978 46.7235 17.8642C46.9679 18.5975 47.7011 18.9641 48.4344 18.7197Z" fill="black"/>
<path d="M32.9168 4.17739C35.1165 4.91061 37.0718 6.01045 38.7826 7.35469C39.2714 7.7213 39.8825 7.7213 40.3713 7.35469C40.3713 7.35469 40.4935 7.35469 40.4935 7.23248C41.3489 6.74367 41.4711 5.52163 40.6157 4.91061C38.6604 3.44416 36.3386 2.22213 33.8945 1.3667C30.8394 0.266865 27.7843 -0.0997469 24.7292 0.0224569C23.7516 0.0224569 23.0183 1.12229 23.5072 1.97772V2.09992C23.7516 2.58874 24.2404 2.95535 24.8514 2.95535C27.4177 2.95535 30.2284 3.32196 32.9168 4.17739Z" fill="black"/>
<path d="M45.1373 32.2842C41.4711 43.0382 29.6174 48.7818 18.8634 45.1157C8.10948 41.4495 2.3659 29.5958 6.03202 18.8418C9.69814 8.08788 21.5519 2.3443 32.3058 6.01041C43.0598 9.67653 48.8034 21.4081 45.1373 32.2842Z" fill="black"/>
<path d="M37.0698 23.2412L35.9699 26.2963C35.9699 26.2963 34.6257 25.8074 33.6481 25.1964C32.3038 24.341 31.6928 23.3634 31.6928 23.3634C31.6928 23.3634 31.204 22.7523 31.204 22.6301L28.3933 30.6956C28.2711 31.1844 27.7823 32.162 27.049 33.0175C26.1936 34.1173 25.216 34.6061 24.9716 34.7283C24.9716 34.7283 23.7495 35.4615 21.9165 35.7059C20.3278 35.8282 19.1058 35.4615 18.7392 35.3393C18.7392 35.3393 16.5395 34.7283 15.0731 32.7731C14.9509 32.5286 14.8287 32.162 14.7065 31.9176C14.3398 30.94 14.3398 29.8402 14.3398 29.5958C14.3398 29.1069 14.462 27.8849 14.8287 26.9073C15.5619 25.0742 16.5395 24.0966 16.7839 23.9744C17.5171 23.3634 18.2504 22.8745 19.228 22.5079C19.9612 22.2635 20.8166 22.0191 21.6721 22.0191C22.5275 22.0191 23.5051 22.0191 24.3606 22.3857L23.2607 25.4408C23.2607 25.4408 21.9165 24.341 20.3278 24.8298C19.228 25.1964 18.4948 25.6852 18.006 26.7851C17.7616 27.6405 17.5171 28.9847 18.3726 30.2068C18.4948 30.329 18.617 30.4512 18.7392 30.5734C18.8614 30.94 18.9836 31.3066 19.228 31.551C20.0834 32.6509 21.0611 33.1397 22.4053 33.0175C23.3829 33.0175 24.2384 32.4064 24.7272 31.6732C25.0938 31.1844 25.216 30.6956 25.4604 30.2068L30.7152 15.0535L33.5258 16.0311C33.4036 16.7644 33.4036 17.8642 33.8925 19.2084C34.1369 19.6972 34.3813 20.1861 34.7479 20.5527C34.8701 20.6749 35.2367 21.6525 35.9699 22.2635C36.3365 22.7523 36.7031 22.9967 37.0698 23.2412Z" fill="white"/>
</svg>
