<svg width="539" height="82" viewBox="0 0 539 82" fill="none" xmlns="http://www.w3.org/2000/svg">
<g clip-path="url(#clip0_0_1606)">
<path d="M365.792 36.6966C363.644 37.0606 361.496 36.2042 361.496 33.7635C361.6 32.2112 362.255 30.7464 363.343 29.6313C364.825 31.7723 367.79 31.8794 370.217 31.5582C371.163 31.4512 372.108 31.2799 373.032 31.1086C372.795 33.8919 367.983 36.3326 365.857 36.6966H365.792ZM368.005 26.8052C369.052 27.0721 370.052 27.4981 370.969 28.0684L369.917 28.2183C368.892 28.5192 367.81 28.5778 366.759 28.3896L365.964 27.212C366.23 26.9573 366.563 26.7837 366.925 26.7116C367.286 26.6395 367.661 26.672 368.005 26.8052ZM396.533 27.6402C397.219 29.3932 397.561 31.261 397.542 33.1426C397.542 34.0204 397.542 37.2533 396.49 37.4245C396.017 37.553 393.719 34.2773 393.375 33.8277C392.364 32.458 391.439 31.028 390.604 29.5457C390.067 28.5823 388.455 27.7473 387.575 28.9676L383.665 34.7483C383.145 32.1763 383.044 29.5378 383.364 26.9337C383.376 26.6364 383.316 26.3407 383.191 26.0707C383.066 25.8007 382.878 25.5642 382.643 25.3804C382.409 25.1966 382.133 25.0708 381.841 25.0133C381.548 24.9558 381.245 24.9683 380.958 25.0496C378.919 25.8556 376.831 26.5349 374.707 27.0835C372.658 24.8314 369.804 23.4707 366.759 23.294C365.763 23.2708 364.789 23.5935 364.006 24.2067C363.222 24.8198 362.676 25.6855 362.462 26.6554C362.229 26.6022 361.987 26.6022 361.754 26.6554C359.191 27.3323 356.503 27.391 353.913 26.8266C353.075 26.5142 352.164 26.4511 351.29 26.6449C350.417 26.8387 349.619 27.2812 348.993 27.9185C347.294 30.1626 345.852 32.5901 344.697 35.1551C344.697 33.3995 344.697 31.6225 344.697 29.8668C344.697 28.1112 344.461 26.0559 342.549 25.5849C340.272 25.0496 338.532 27.7259 337.479 29.2674C336.167 31.7807 334.455 34.0654 332.409 36.0329C331.802 36.5136 331.11 36.8767 330.369 37.1034C329.316 37.4031 329.617 37.5102 329.617 36.8251C329.885 35.3569 330.31 33.9215 330.884 32.5431C331.268 31.4506 331.398 30.2856 331.264 29.1359C331.13 27.9861 330.736 26.8818 330.111 25.906C329.655 25.302 329.079 24.7985 328.418 24.4272C327.757 24.0558 327.027 23.8247 326.272 23.7483C325.518 23.6719 324.756 23.7519 324.033 23.9832C323.311 24.2145 322.645 24.5922 322.077 25.0924C322.054 24.8915 321.981 24.6994 321.865 24.5334C321.749 24.3674 321.594 24.2327 321.413 24.1414C321.232 24.0501 321.031 24.0051 320.828 24.0104C320.625 24.0157 320.427 24.0712 320.251 24.1718C317.232 25.9438 314.397 28.0092 311.787 30.3379C310.971 31.0444 312.023 32.3504 312.904 31.7509C315.052 30.3807 317.05 29.0318 319.134 27.683C318.317 31.3869 317.823 35.1551 317.351 38.9232C317.05 41.2997 316.771 43.6762 316.405 46.0313C316.04 48.3864 315.138 51.2339 314.859 53.846C314.708 55.1305 316.685 55.8585 317.265 54.5953C319.134 50.4846 319.22 45.0893 319.671 40.636C320.013 36.4671 320.594 32.3211 321.411 28.2183C321.498 28.214 321.582 28.1857 321.654 28.1366C321.726 28.0874 321.783 28.0194 321.819 27.94C323.409 25.1567 327.404 24.4287 328.822 27.7472C329.982 30.3807 328.135 33.2282 327.318 35.7117C326.201 39.1802 329.037 40.529 332.087 39.3729C335.761 37.9812 337.35 34.3201 339.305 31.2371C339.793 30.1906 340.53 29.2791 341.453 28.5823C342.27 28.1755 341.947 28.5823 341.947 29.4387C341.947 30.295 341.947 30.8303 341.947 31.5796L341.69 39.1373C341.69 40.2078 343.043 41.2783 344.031 40.5504C347.082 38.1097 348.005 34.4914 350.089 31.3655C350.39 30.7736 350.857 30.2809 351.432 29.9467C352.007 29.6124 352.667 29.4509 353.333 29.4815C354.471 29.4815 355.653 29.9953 356.834 30.1024C357.599 30.1558 358.368 30.1558 359.133 30.1024C358.303 31.7074 358.111 33.5652 358.596 35.305C359.067 36.6259 359.943 37.7661 361.099 38.565C362.255 39.3638 363.634 39.7812 365.04 39.7582C369.594 39.7582 376.898 35.2836 376.211 30.2522C377.414 29.9525 378.574 29.5885 379.755 29.2031C379.713 32.6631 380.302 36.1019 381.495 39.3515C381.608 39.6283 381.788 39.8728 382.02 40.0628C382.251 40.2528 382.526 40.3823 382.821 40.4397C383.115 40.497 383.419 40.4804 383.705 40.3914C383.991 40.3023 384.251 40.1436 384.46 39.9295L388.95 33.3567C390.014 35.0555 391.214 36.6664 392.537 38.1739C393.912 39.7368 395.587 41.6637 397.886 40.893C400.185 40.1222 400.829 37.446 401.087 35.3692C401.436 32.324 401.015 29.2401 399.862 26.3984C399.046 24.2575 395.566 25.1995 396.49 27.5332" fill="black"/>
<path d="M479.431 19.376C479.632 19.6401 479.898 19.8468 480.205 19.9755C480.479 20.1056 480.782 20.1645 481.085 20.1467H481.429C481.646 20.1284 481.857 20.0704 482.052 19.9755C482.263 19.9087 482.449 19.7822 482.589 19.6115C482.689 19.4793 482.755 19.3251 482.782 19.1619C482.835 19.0019 482.835 18.8294 482.782 18.6695C482.744 18.4357 482.648 18.215 482.503 18.0271C482.287 17.7322 482.035 17.466 481.751 17.235C481.515 17.0425 481.233 16.9122 480.933 16.8561C480.633 16.8 480.323 16.8198 480.033 16.9138C479.753 17.0042 479.506 17.1756 479.324 17.4063C479.178 17.5663 479.087 17.769 479.066 17.9843C479.001 18.1936 479.001 18.4174 479.066 18.6266C479.12 18.9233 479.245 19.2025 479.431 19.4402" fill="black"/>
<path d="M161.35 26.6982C161.076 26.5512 160.858 26.3186 160.73 26.0362C160.602 25.7537 160.571 25.4372 160.641 25.1353C160.856 24.5358 161.608 24.3431 162.166 24.3003C162.912 24.2515 163.657 24.4148 164.314 24.7713C165.522 25.4388 166.457 26.5069 166.957 27.7901L163.992 27.4261C163.068 27.3792 162.166 27.1307 161.35 26.6982V26.6982ZM137.14 75.1916C136.989 76.1765 136.839 77.1399 136.667 78.1248C136.607 78.6659 136.407 79.1823 136.087 79.6235C136.087 79.6235 135.937 79.7734 136.087 79.6235C135.922 79.4558 135.778 79.2689 135.658 79.0668C135.247 78.3934 134.915 77.675 134.669 76.9258C133.626 73.8815 133.499 70.5994 134.304 67.484C135.27 63.9369 136.715 60.5372 138.601 57.3786C139.309 56.0297 140.04 54.7238 140.749 53.3963C139.61 60.6115 138.45 67.8052 137.312 75.0204L137.14 75.1916ZM139.932 40.8501C138.79 41.4189 137.487 41.585 136.238 41.3212C135.112 41.0301 134.142 40.3167 133.531 39.33C132.879 38.1306 132.481 36.8112 132.359 35.4528C132.237 34.0943 132.394 32.7253 132.822 31.4297C133.353 31.1569 133.856 30.8343 134.326 30.4663C134.97 29.9311 135.572 29.3102 136.173 28.7107C137.113 27.5147 138.43 26.6698 139.911 26.3128C141.522 26.1201 142.253 27.6188 142.811 28.882C143.526 30.4064 143.92 32.0602 143.971 33.742V33.742C143.756 34.8125 143.563 35.883 143.391 36.9535C142.78 38.6241 141.539 39.9913 139.932 40.7645V40.8501ZM117.548 28.6893C118.634 27.0716 120.317 25.9479 122.231 25.5634C122.56 25.5527 122.885 25.6264 123.177 25.7775C123.366 25.9085 123.526 26.0759 123.649 26.27C123.982 26.8464 124.096 27.5223 123.971 28.1755C123.725 28.9973 123.207 29.7116 122.5 30.2016C121.794 30.6916 120.942 30.9283 120.083 30.8731C118.851 30.8945 117.63 30.6306 116.517 30.1023C116.826 29.607 117.171 29.1347 117.548 28.6893V28.6893ZM178.084 29.246C175.206 28.7963 172.306 28.4538 169.491 28.0898C168.97 26.2248 167.845 24.5839 166.291 23.4225C165.444 22.7269 164.428 22.2658 163.346 22.0854C162.264 21.905 161.153 22.0117 160.125 22.3948C159.585 22.6184 159.121 22.9911 158.786 23.469C158.451 23.9468 158.26 24.5101 158.235 25.0924C158.24 25.6968 158.379 26.2924 158.643 26.8366C158.907 27.3808 159.288 27.86 159.76 28.2397C160.893 29.0768 162.242 29.5744 163.648 29.6741L167.451 30.188C167.474 31.4523 167.256 32.7094 166.806 33.8919C166.251 35.7181 165.264 37.3848 163.928 38.752C163.371 39.3017 162.646 39.6507 161.868 39.7438C161.09 39.8368 160.303 39.6686 159.631 39.2658C155.335 37.1248 156.602 31.3441 157.483 27.5974C157.762 26.4627 156.323 25.3493 155.335 26.3556C151.337 31.0936 147.744 36.1569 144.594 41.4924C144.744 40.5932 144.873 39.694 145.002 38.7948C145.437 37.8872 145.734 36.9204 145.883 35.9258C146.022 34.91 146.022 33.88 145.883 32.8642C145.883 32.3504 146.012 31.858 146.055 31.3441C146.055 30.2736 146.248 29.2031 146.356 28.154C146.393 27.9581 146.35 27.7556 146.237 27.591C146.124 27.4264 145.951 27.3132 145.754 27.2762C145.557 27.2393 145.354 27.2818 145.189 27.3942C145.024 27.5066 144.91 27.6798 144.873 27.8757C144.873 28.1112 144.873 28.3467 144.723 28.6037C144.214 27.0736 143.219 25.7506 141.887 24.8355C140.878 24.3572 139.748 24.1893 138.642 24.3532C137.537 24.5172 136.505 25.0056 135.679 25.7561C134.829 26.4533 134.039 27.2196 133.316 28.047C132.805 28.6562 132.237 29.2154 131.619 29.717C131.442 29.6629 131.253 29.667 131.079 29.7287C130.905 29.7904 130.755 29.9064 130.652 30.0595C128.567 33.6396 125.81 36.7869 122.532 39.33C121.06 40.7942 119.155 41.7476 117.097 42.0491C115.529 42.0491 114.648 40.7431 114.283 39.3086C113.782 36.8475 114.13 34.2896 115.271 32.0507C116.603 32.7456 118.067 33.1541 119.568 33.2496C120.665 33.3347 121.766 33.1325 122.76 32.6631C123.755 32.1937 124.61 31.4733 125.239 30.5734C125.748 29.6996 125.971 28.6887 125.874 27.6827C125.778 26.6767 125.368 25.726 124.702 24.964C123.794 24.1485 122.616 23.6972 121.394 23.6972C120.172 23.6972 118.993 24.1485 118.085 24.964C116.496 26.1165 115.153 27.5719 114.133 29.246L113.274 28.7321C112.737 28.411 111.963 28.3467 111.684 29.0532C110.094 33.2983 108.191 37.4203 105.991 41.3854C105.733 41.835 105.239 42.777 104.616 42.4773C104.304 42.2839 104.022 42.0458 103.779 41.7707C103.413 41.3989 103.025 41.0487 102.619 40.7217C101.326 39.6602 99.7167 39.0576 98.043 39.0089L103.091 29.5457C103.413 28.9034 102.726 28.3039 102.189 28.1326C100.05 27.5005 97.9951 26.6165 96.0666 25.4992C95.9322 25.4291 95.7829 25.3922 95.6312 25.3917C95.4795 25.3913 95.3299 25.4272 95.195 25.4965C95.0602 25.5658 94.9441 25.6664 94.8565 25.7898C94.7689 25.9133 94.7124 26.056 94.6918 26.2058C94.0117 29.4313 92.7055 32.4933 90.8465 35.2193C89.0424 38.0738 86.611 40.4824 83.7361 42.2632C83.1645 42.6956 82.4666 42.9296 81.749 42.9296C81.0314 42.9296 80.3335 42.6956 79.7619 42.2632C79.267 41.7374 78.8919 41.1113 78.662 40.4277C78.4322 39.7442 78.353 39.0192 78.4301 38.3023C78.6283 36.4409 79.0912 34.6171 79.8049 32.8856C80.2787 31.2838 81.212 29.8549 82.4901 28.7749C83.1118 28.2914 83.855 27.9877 84.6383 27.8971C84.9997 27.8227 85.3725 27.8227 85.7339 27.8971C85.8846 27.9432 86.0289 28.008 86.1635 28.0898L86.4213 28.2825L86.6146 28.518C86.6828 28.588 86.7407 28.6673 86.7865 28.7535C86.9394 29.016 87.0346 29.308 87.0658 29.6099C87.1103 29.8427 87.1026 30.0825 87.0432 30.312C86.9837 30.5415 86.8741 30.7551 86.722 30.9373C86.4858 31.1333 86.3372 31.4148 86.309 31.7199C86.2808 32.025 86.3753 32.3287 86.5716 32.5645C86.9154 32.9927 87.7961 33.3352 88.2687 32.907C88.9028 32.3048 89.3232 31.5134 89.4665 30.6522C89.6099 29.791 89.4685 28.9067 89.0635 28.1326C88.6453 27.257 87.9739 26.5261 87.1355 26.0339C86.2971 25.5418 85.3302 25.3108 84.359 25.3708C79.633 25.5849 77.6997 30.4663 76.6041 34.3201C75.8249 36.5373 75.7722 38.9438 76.4537 41.1927C76.7764 42.1333 77.3279 42.9795 78.0589 43.6557C78.7899 44.3319 79.6776 44.8171 80.6427 45.0679C81.7408 45.2067 82.8561 45.1 83.9076 44.7556C84.9592 44.4112 85.9206 43.8377 86.722 43.0767C88.31 41.8137 89.7511 40.3774 91.0184 38.7948C93.5942 35.57 95.4276 31.8205 96.3888 27.8115C97.7365 28.4962 99.1288 29.0898 100.556 29.5885C98.6659 33.0569 96.7827 36.5253 94.9066 39.9937C94.3574 40.3807 93.9104 40.8943 93.6036 41.4909C93.2969 42.0874 93.1396 42.749 93.1451 43.4193C93.1451 44.5326 94.6273 45.1963 95.2933 44.083C95.9592 42.9697 96.217 42.3702 96.6681 41.5138C97.1437 41.23 97.6825 41.0681 98.2363 41.0428C99.1375 41.1397 100.01 41.415 100.803 41.8525C101.596 42.29 102.294 42.8809 102.855 43.5906C103.213 43.9617 103.656 44.2396 104.147 44.4001C104.638 44.5606 105.16 44.5988 105.669 44.5112C106.1 44.3803 106.5 44.1653 106.847 43.8786C107.194 43.5919 107.48 43.2392 107.688 42.8412C108.805 40.9572 109.836 38.9446 110.696 36.9535C111.276 35.6903 111.834 34.4057 112.371 33.1211C112.006 34.3662 111.818 35.6563 111.813 36.9535C111.747 38.0293 111.903 39.1071 112.273 40.12C112.642 41.1329 113.217 42.0592 113.961 42.8412C114.923 43.608 116.104 44.052 117.335 44.1096C118.566 44.1673 119.783 43.8358 120.814 43.1624C123.264 41.7971 125.488 40.064 127.409 38.024C128.248 37.1653 129.044 36.265 129.793 35.3264C129.838 36.8534 130.219 38.3519 130.91 39.7154C131.658 41.2192 132.906 42.4174 134.442 43.1048C135.979 43.7922 137.707 43.9261 139.331 43.4835C140.371 43.2088 141.349 42.7362 142.21 42.0919L141.501 46.6094C139.868 49.4641 138.271 52.3187 136.71 55.1734C134.713 58.5387 133.133 62.1333 132.006 65.8783C130.979 69.3055 130.905 72.9461 131.791 76.412C132.193 78.1914 133.026 79.8454 134.218 81.2292C134.534 81.5557 134.932 81.7916 135.37 81.9122C135.808 82.0327 136.271 82.0335 136.71 81.9144C137.071 81.7803 137.399 81.5718 137.673 81.3024C137.947 81.0331 138.16 80.709 138.3 80.3514C138.618 79.6084 138.821 78.8215 138.901 78.0178C139.052 76.9901 139.224 75.9838 139.374 74.9775L140.341 68.7687C140.985 64.6151 141.63 60.4402 142.295 56.2867C142.725 53.5034 143.133 50.7201 143.563 47.9368C146.747 42.2084 150.336 36.7135 154.304 31.494C154.175 32.5821 154.175 33.6816 154.304 34.7697C154.432 35.9158 154.791 37.0242 155.36 38.0285C155.928 39.0329 156.694 39.9125 157.612 40.6146C158.442 41.2931 159.434 41.7462 160.492 41.93C161.549 42.1138 162.637 42.022 163.648 41.6637C165.791 40.4836 167.437 38.5769 168.288 36.2898C169.156 34.4925 169.611 32.5251 169.62 30.5305C172.327 30.8945 175.034 31.2799 177.762 31.5796C179.395 31.7509 179.438 29.4386 177.955 29.2674" fill="black"/>
<path d="M279.651 28.2825C280.373 27.0925 281.288 26.0292 282.357 25.1353C283.259 24.4501 284.183 24.5786 284.505 25.6277C284.64 26.1071 284.614 26.6172 284.432 27.0808C284.25 27.5443 283.921 27.9361 283.496 28.1969C282.957 28.5606 282.343 28.7978 281.699 28.8906C281.056 28.9833 280.399 28.9291 279.779 28.7321L279.35 28.6037L279.543 28.2825H279.651ZM246.418 34.5342C245.662 35.142 244.75 35.5263 243.785 35.6436C242.821 35.7609 241.843 35.6065 240.962 35.1979C240.742 35.107 240.533 34.9921 240.339 34.8553L240.017 34.6198L239.737 34.3843C239.345 34.0112 239.05 33.5481 238.878 33.0355C238.473 31.3743 237.845 29.7754 237.009 28.2825V28.2825C237.105 28.216 237.192 28.1368 237.267 28.047C237.947 27.143 238.834 26.4146 239.854 25.9228C240.875 25.4311 241.998 25.1904 243.131 25.2209C244.191 25.2783 245.206 25.6672 246.031 26.3321C246.856 26.997 247.45 27.9042 247.729 28.9248C248.043 29.8814 248.085 30.9063 247.85 31.8853C247.615 32.8644 247.112 33.7591 246.397 34.47L246.418 34.5342ZM293.829 34.8125C292.206 36.9519 289.953 38.5315 287.384 39.33C286.242 39.641 285.044 39.6909 283.88 39.4758C282.715 39.2608 281.615 38.7865 280.66 38.0882C279.693 37.4027 278.934 36.4641 278.468 35.3761C278.001 34.288 277.846 33.0928 278.018 31.9222C278.089 31.4488 278.204 30.9829 278.362 30.5305V30.5305C279.98 31.1906 281.776 31.2812 283.453 30.7875C284.173 30.5582 284.835 30.1751 285.391 29.6648C285.948 29.1545 286.386 28.5293 286.675 27.8329C286.951 27.0932 287.003 26.2891 286.824 25.5204C286.645 24.7517 286.243 24.0524 285.668 23.5095C285.094 22.9665 284.372 22.6038 283.592 22.4665C282.813 22.3292 282.01 22.4234 281.283 22.7373C279.934 23.6176 278.785 24.77 277.911 26.1201C277.568 26.5872 277.253 27.0733 276.965 27.576C276.461 27.424 275.918 27.4621 275.44 27.683C274.001 28.3039 273.765 30.1023 273.292 31.4083C272.82 32.9447 272.26 34.4529 271.616 35.9258C271.316 36.6538 271.015 37.3389 270.671 38.0668C270.399 38.7408 270.061 39.3862 269.662 39.9937C269.339 40.4433 268.91 40.272 268.416 39.9937C267.921 39.7154 266.783 39.4371 265.967 39.1373C264.205 38.4736 262.487 37.7671 260.79 36.9963C259.687 36.4217 258.554 35.9071 257.395 35.4548C259.544 32.7786 261.799 30.188 264.162 27.683C264.314 27.4907 264.396 27.2532 264.396 27.0086C264.396 26.764 264.314 26.5266 264.162 26.3342C264.002 26.1274 263.784 25.9724 263.535 25.8886C263.287 25.8048 263.019 25.796 262.766 25.8632C261.317 26.1476 259.816 25.9755 258.469 25.3708C256.976 24.7647 255.377 24.4591 253.765 24.4715C252.826 24.5309 251.929 24.8773 251.194 25.4635C250.46 26.0496 249.925 26.8471 249.662 27.7472C249.198 26.5619 248.451 25.5073 247.485 24.6753C246.519 23.8432 245.364 23.2588 244.12 22.9728C242.458 22.5867 240.719 22.7023 239.124 23.3047C237.529 23.9071 236.149 24.9692 235.162 26.3556C235.015 26.5693 234.948 26.8274 234.971 27.0853C234.995 27.3432 235.108 27.5848 235.291 27.7687C235.099 27.8842 234.949 28.0564 234.861 28.2611C233.402 31.5056 231.708 34.6397 229.791 37.6386C229.161 36.354 228.699 34.9941 228.416 33.5922C228.03 31.5582 228.416 29.1603 227.342 27.2976C227.125 26.8354 226.814 26.423 226.429 26.0862C226.044 25.7495 225.593 25.4958 225.105 25.341C224.616 25.1862 224.101 25.1337 223.592 25.1867C223.082 25.2397 222.589 25.3971 222.144 25.6491C221.299 26.2213 220.57 26.9477 219.996 27.7901C219.322 28.6465 218.7 29.5243 218.127 30.4235C217.504 31.4083 216.945 32.3932 216.43 33.4209L216.086 30.8945L215.635 27.6616C215.653 27.1571 215.544 26.6561 215.319 26.2038C215.094 25.7515 214.76 25.3622 214.346 25.071C212.52 24.0647 210.78 26.0559 209.706 27.212C208.656 28.4535 207.741 29.8028 206.978 31.2371C206.846 28.4311 206.176 25.6763 205.001 23.1227C204.89 22.8947 204.703 22.7123 204.472 22.6069C204.24 22.5014 203.98 22.4794 203.734 22.5446C202.633 22.7542 201.626 23.303 200.855 24.1136C200.085 24.9241 199.589 25.9555 199.438 27.0621C199.438 27.7473 200.447 28.1755 200.726 27.4689C200.962 26.8135 201.332 26.2141 201.813 25.7091C202.293 25.2041 202.875 24.8044 203.519 24.5357C205.061 28.7274 205.242 33.2963 204.035 37.5958C203.691 38.7948 205.538 39.7368 206.054 38.495C207.124 35.5308 208.522 32.6943 210.221 30.0381C210.665 29.411 211.146 28.8105 211.661 28.2397C211.918 27.9614 212.176 27.683 212.455 27.4261C212.731 27.1882 213.025 26.9734 213.336 26.7838V26.7838C213.336 27.2334 213.465 27.6616 213.508 28.0898C213.637 29.0532 213.766 30.0381 213.873 31.0016C214.153 33.1425 214.41 35.2835 214.69 37.4245C214.818 38.4094 216.43 38.859 216.838 37.8313C217.491 36.0187 218.311 34.2699 219.287 32.6073C220.206 30.9378 221.324 29.3851 222.616 27.9827C223.025 27.5545 223.669 27.0193 224.313 27.1692C224.589 27.2796 224.833 27.4537 225.028 27.6771C225.222 27.9004 225.36 28.1667 225.43 28.4538C225.777 29.4817 225.951 30.5595 225.946 31.6439C225.991 32.6154 226.113 33.5819 226.311 34.5342C226.808 36.7392 227.704 38.8358 228.953 40.7217C229.056 40.8685 229.191 40.9905 229.347 41.0787C229.504 41.167 229.678 41.2192 229.857 41.2315C230.036 41.2438 230.216 41.2159 230.383 41.1499C230.55 41.0839 230.7 40.9815 230.822 40.8501C232.793 37.9576 234.545 34.9233 236.064 31.7723C236.236 32.5846 236.48 33.3799 236.794 34.1488C237.43 35.4351 238.461 36.4854 239.737 37.1462C240.94 37.7822 242.291 38.0858 243.651 38.0256C245.011 37.9654 246.33 37.5435 247.471 36.8037C248.499 36.0368 249.299 35.0069 249.787 33.8233C250.275 32.6397 250.432 31.3465 250.242 30.0809C250.672 30.2736 251.295 30.0809 251.144 29.5029C251.034 29.0362 251.084 28.5463 251.287 28.1115C251.49 27.6768 251.833 27.3223 252.261 27.105C252.778 26.8305 253.346 26.6642 253.929 26.6163C254.513 26.5684 255.1 26.64 255.655 26.8266C257.309 27.212 258.878 27.9185 260.489 28.2397C258.341 30.5305 256.321 32.9285 254.431 35.3906C253.87 35.506 253.337 35.7321 252.865 36.0557C252.393 36.3793 251.99 36.7937 251.681 37.2747C250.943 38.5469 250.462 39.9505 250.263 41.4068C250.07 42.4559 251.81 43.3337 252.412 42.3916C253.5 40.7645 254.639 39.1802 255.827 37.6386C256.348 37.675 256.857 37.8056 257.331 38.024C258.964 38.7091 260.51 39.5655 262.143 40.165C263.775 40.7645 265.537 41.5567 267.298 42.1561C268.178 42.56 269.151 42.7155 270.113 42.6057C270.492 42.5071 270.847 42.3304 271.154 42.087C271.461 41.8437 271.714 41.5391 271.896 41.1927C272.778 39.6373 273.546 38.0202 274.194 36.354C274.624 35.2407 275.032 34.106 275.397 32.9713C275.45 35.1375 276.325 37.2033 277.846 38.752C278.882 39.8556 280.147 40.7205 281.554 41.2863C282.96 41.8521 284.473 42.1051 285.988 42.0277C289.139 41.7632 292.082 40.3535 294.258 38.0668C294.779 37.536 295.227 36.9384 295.59 36.2898C296.277 35.1551 294.645 33.7634 293.721 34.8553" fill="black"/>
<path d="M259.543 16.1003L259.672 16.4856C259.759 16.6621 259.867 16.8274 259.994 16.978C260.091 17.0887 260.199 17.1891 260.316 17.2778C260.433 17.3695 260.563 17.4418 260.703 17.4919C260.983 17.6028 261.283 17.6539 261.584 17.6418C261.873 17.6252 262.154 17.5369 262.4 17.3848C262.771 17.1559 263.063 16.8199 263.238 16.4214C263.322 16.2101 263.366 15.985 263.367 15.7577C263.388 15.6014 263.388 15.443 263.367 15.2867C263.367 15.1796 263.367 15.0726 263.367 14.9869C263.322 14.8802 263.265 14.7795 263.195 14.6872C263.044 14.5041 262.853 14.3577 262.636 14.259C262.453 14.2161 262.262 14.2161 262.078 14.259C261.953 14.2149 261.816 14.2149 261.691 14.259C261.563 14.3051 261.451 14.3868 261.369 14.4945V14.4945C261.285 14.4062 261.179 14.3433 261.061 14.3129C260.943 14.2826 260.819 14.2862 260.703 14.3232C260.567 14.2959 260.427 14.3075 260.297 14.3568C260.168 14.4061 260.055 14.4909 259.973 14.6015C259.907 14.6967 259.85 14.7969 259.801 14.9013C259.792 14.9795 259.792 15.0585 259.801 15.1368V15.1368C259.788 15.2435 259.788 15.3513 259.801 15.458V15.458C259.79 15.5862 259.79 15.7151 259.801 15.8433C259.801 15.8433 259.801 15.9504 259.801 16.0146" fill="black"/>
<path d="M436.145 32.0506C434.818 34.0559 432.928 35.6272 430.71 36.5681C430.086 36.8076 429.413 36.8899 428.749 36.8078C428.086 36.7256 427.454 36.4815 426.908 36.0971C425.468 34.9624 425.791 33.2068 426.499 31.7081C427.621 29.428 429.353 27.5014 431.505 26.1415C432.562 25.5067 433.772 25.1666 435.006 25.1566C435.64 25.1772 436.265 25.3076 436.854 25.542C437.326 25.7561 438.143 26.6767 438.658 26.5911C438.512 26.6201 438.378 26.6932 438.274 26.8004C438.171 26.9077 438.103 27.044 438.079 27.1909C438.056 27.3379 438.078 27.4885 438.143 27.6224C438.208 27.7563 438.313 27.8671 438.443 27.9399C437.873 29.4102 437.099 30.7938 436.145 32.0506V32.0506ZM406.07 37.4245C405.456 36.24 405.212 34.8995 405.369 33.5755C405.526 32.2515 406.077 31.0046 406.951 29.9953C407.794 29.0335 408.864 28.2975 410.066 27.8543C410.538 27.683 414.706 26.7624 414.126 28.4966C414.083 28.6507 414.083 28.8135 414.126 28.9676C413.954 29.6099 413.804 30.2736 413.675 30.9587C413.179 32.022 412.59 33.0395 411.913 33.9989C410.968 35.3692 407.617 39.6726 406.049 37.4245H406.07ZM502.158 34.3415C499.709 35.5618 497.389 37.0606 494.919 38.2167C493.679 38.9696 492.267 39.3968 490.816 39.4585C490.372 39.4518 489.945 39.2858 489.613 38.9909C489.282 38.696 489.068 38.2919 489.012 37.8527C489.148 37.5197 489.255 37.176 489.334 36.825C489.385 36.6071 489.386 36.3805 489.338 36.1619C489.29 35.9433 489.193 35.7383 489.055 35.5619C489.366 33.2262 490.284 31.0122 491.718 29.1389C493.007 27.6188 496.681 26.2271 497.54 29.1389C497.969 30.6376 500.332 30.8089 500.182 28.9676C499.881 25.435 495.714 23.7864 492.599 24.6856C488.646 25.8846 486.756 30.5734 485.983 34.2345C485.786 35.1774 485.728 36.1438 485.811 37.1034C485.484 37.5426 485.109 37.9446 484.694 38.3023C483.211 39.6297 482.159 38.6877 481.536 37.189C480.409 34.5583 479.98 31.6829 480.29 28.8391C480.505 27.2548 477.884 26.6982 477.626 28.3467C477.274 30.8995 476.389 33.3502 475.027 35.5405V35.5405C474.898 35.7546 474.748 35.9472 474.597 36.1613L474.017 36.8893C472.779 38.3093 471.139 39.324 469.313 39.801C468.49 39.9963 467.636 40.0249 466.802 39.8851C465.969 39.7454 465.171 39.4401 464.458 38.9874C463.015 37.815 461.327 36.9809 459.517 36.5467C462.231 34.1841 465.174 32.0971 468.303 30.3164C470.022 29.3316 468.088 26.8052 466.477 27.3405C463.969 28.23 461.248 28.3346 458.679 27.6402C456.875 27.1264 454.791 25.3065 452.815 26.1201C450.838 26.9337 449.872 29.5029 448.884 31.0872C448.196 32.1363 447.53 33.2282 446.735 34.1916C446.37 34.6841 445.941 35.1337 445.532 35.6047C445.124 36.0757 444.974 36.8036 444.394 35.6047C443.563 33.1522 443.371 30.5295 443.835 27.9827C444.029 25.1352 444.243 22.3091 444.437 19.4188C444.888 13.3169 445.425 7.19372 445.661 1.07048C445.661 -0.235527 443.513 -0.79219 443.513 0.663685C443.513 2.11956 443.212 3.23288 443.083 4.51748C442.525 8.62818 441.73 12.7389 441.043 16.8068C440.613 19.4188 440.248 22.0736 439.603 24.6L439.088 24.129C437.941 23.2524 436.566 22.7236 435.126 22.6059C433.686 22.4882 432.242 22.7865 430.968 23.4652C427.965 25.156 425.591 27.7697 424.201 30.9159C423.969 30.9378 423.748 31.0207 423.559 31.1562C423.37 31.2916 423.221 31.4748 423.127 31.6867C422.451 33.0876 421.51 34.3452 420.356 35.3906C419.925 35.7618 419.465 36.0983 418.981 36.3968C418.014 36.9963 417.649 37.4031 416.833 36.611C416.016 35.8188 416.596 33.378 416.704 32.072C416.886 30.595 416.95 29.1059 416.897 27.6188C416.855 27.339 416.712 27.0842 416.494 26.9027C416.276 26.7212 415.999 26.6256 415.716 26.6339C414.878 24.6 411.183 24.3859 409.056 25.1138C407.109 25.8155 405.468 27.1726 404.417 28.951C403.366 30.7294 402.971 32.8175 403.299 34.8553C403.836 38.3023 406.435 41.6637 409.894 39.1373C411.15 38.2533 412.271 37.1933 413.224 35.9901C413.15 36.8921 413.383 37.7926 413.886 38.5462C414.389 39.2998 415.132 39.8626 415.995 40.1436C419.131 41.0642 422.16 38.8162 424.158 36.1613C424.747 37.1144 425.617 37.8624 426.65 38.3023C432.708 41.1713 438.357 34.5556 440.763 29.3316C440.34 32.3256 441.028 35.3707 442.697 37.8955C446.392 42.6271 451.01 33.5065 452.643 31.0444C452.922 30.6376 453.459 29.4172 453.932 29.2031C454.813 28.7749 455.328 29.3744 456.08 29.7384C457.31 30.3586 458.618 30.8123 459.968 31.0872L460.699 31.1942C457.751 33.4428 455.018 35.9585 452.535 38.7091C451.29 40.1008 453.545 41.8992 454.92 41.0856C456.298 39.9603 458.037 39.3675 459.818 39.4157C461.14 39.8524 462.37 40.5273 463.448 41.4068C465.07 42.3488 466.951 42.7536 468.819 42.5629C470.867 42.3505 472.79 41.4786 474.296 40.0794C474.727 39.8037 475.137 39.4959 475.521 39.1587C476.509 38.2785 477.356 37.2533 478.034 36.1185C478.411 38.1344 479.454 39.9664 480.999 41.3211C481.465 41.6839 481.999 41.9512 482.569 42.1077C483.139 42.2643 483.735 42.307 484.322 42.2334C484.909 42.1597 485.475 41.9713 485.989 41.6788C486.502 41.3863 486.953 40.9955 487.314 40.5289C487.779 41.1071 488.367 41.5744 489.036 41.8967C489.705 42.219 490.438 42.3881 491.181 42.3916C495.671 42.6057 501.041 39.0517 503.533 35.5619C504.027 34.8767 503.19 33.6992 502.373 34.106" fill="black"/>
<path d="M508.152 15.5864C505.744 13.9908 502.897 13.181 500.007 13.2693C497.116 13.3575 494.325 14.3394 492.019 16.0789C490.773 17.0209 492.384 18.9264 493.609 18.0914C495.569 16.7507 497.871 15.9909 500.247 15.8999C502.623 15.809 504.977 16.3906 507.035 17.5776C508.281 18.2841 509.333 16.3572 508.152 15.5864" fill="black"/>
<path d="M22.9427 39.6512C22.3479 40.9925 21.6287 42.2755 20.7945 43.4835C20.3863 44.0402 18.9685 46.2668 18.3241 46.2882C17.6796 46.3096 16.1759 44.7681 15.5314 44.1472C14.887 43.5263 13.8773 42.6057 13.0181 42.0062C11.575 40.6849 9.80149 39.7753 7.88391 39.3728C8.42812 33.1211 8.89356 26.8552 9.28023 20.5749C11.2015 19.6013 13.3932 19.2925 15.51 19.6971C21.1597 20.7248 24.4679 26.1201 24.7471 31.494C24.8255 34.3098 24.2368 37.1045 23.0286 39.6512H22.9427ZM15.1233 16.3572C8.07725 15.4365 2.2342 20.2324 0.0860223 26.741C-0.365096 28.0898 1.52531 29.353 2.49199 28.1968C3.95647 26.0043 5.57146 23.9154 7.3254 21.9451C6.4518 28.5822 5.65698 35.2336 4.94091 41.8992C3.67349 44.7681 2.01938 48.8146 5.11276 50.2276C5.29343 50.3182 5.49323 50.3644 5.69545 50.3622C5.89767 50.3601 6.09644 50.3098 6.27517 50.2155C6.4539 50.1212 6.60739 49.9857 6.72283 49.8202C6.83826 49.6547 6.91229 49.464 6.93872 49.2642C7.11058 47.3587 7.30391 45.4318 7.45428 43.5049C7.6691 42.9911 7.84096 42.5201 8.01281 42.1347C10.8269 42.9269 12.6099 45.7102 14.8225 47.53C17.0352 49.3498 19.3122 50.2919 21.5463 47.9154C24.0241 45.4465 25.8743 42.4235 26.943 39.0979C28.0116 35.7724 28.2678 32.2405 27.6901 28.7963C27.1332 25.6759 25.6196 22.8042 23.3575 20.5765C21.0955 18.3489 18.1962 16.8748 15.0588 16.3572" fill="black"/>
<path d="M39.0541 38.6663C35.66 39.4799 32.6096 37.5744 33.34 33.8919C33.6377 32.373 34.2129 30.9216 35.037 29.61C35.8558 30.1447 36.8081 30.4413 37.7867 30.4663C39.9349 30.7233 42.212 30.8303 44.4246 30.8945C45.3913 30.8945 46.3579 30.8945 47.3461 30.8945C47.3461 34.7911 42.7705 37.7885 39.0541 38.6449V38.6663ZM40.3645 25.6705C41.4531 25.3175 42.627 25.3248 43.7111 25.6914C44.7951 26.058 45.7312 26.7641 46.3794 27.7045C44.2313 27.7045 42.0831 27.7045 39.9349 27.576C39.3764 27.576 38.1089 27.212 37.6578 27.4475C38.4385 26.6686 39.3859 26.0758 40.429 25.7133L40.3645 25.6705ZM58.1085 27.2548C55.152 27.1945 52.1948 27.3376 49.258 27.683H49.1506C48.4039 25.9262 47.0462 24.497 45.3268 23.658C44.2027 23.1662 42.9885 22.9123 41.7608 22.9123C40.5332 22.9123 39.3189 23.1662 38.1949 23.658C36.6701 24.2822 35.3994 25.3978 34.5859 26.8267C31.3636 30.2522 28.8932 35.8617 32.674 39.4157C36.9704 43.5264 44.6179 40.4219 48.0335 36.4825C49.335 34.9515 50.0032 32.9843 49.9024 30.9802H51.621C53.9818 31.0617 56.3417 30.7948 58.6241 30.188C60.0633 29.6742 59.4833 27.5332 58.1085 27.3833" fill="black"/>
<path d="M525.252 54.4026L524.328 53.9744C524.109 53.8641 523.865 53.8124 523.619 53.8245C523.386 53.7698 523.143 53.7698 522.91 53.8245C522.681 53.9013 522.474 54.0338 522.309 54.2099C522.102 54.351 521.944 54.5531 521.858 54.788L521.707 55.2804C521.622 55.5887 521.622 55.9142 521.707 56.2225L521.922 56.6293C522.114 56.9035 522.373 57.1245 522.674 57.2715L523.598 57.6998C523.819 57.805 524.062 57.8563 524.307 57.8496C524.539 57.9113 524.783 57.9113 525.016 57.8496C525.245 57.7842 525.453 57.6585 525.617 57.4856C525.812 57.3325 525.967 57.134 526.068 56.9075C526.108 56.7405 526.159 56.5761 526.218 56.4151C526.289 56.105 526.289 55.7832 526.218 55.4731C526.139 55.342 526.067 55.2062 526.004 55.0663C525.812 54.7921 525.553 54.571 525.252 54.424" fill="black"/>
<path d="M532.856 7.53629C530.773 6.67028 528.474 6.46253 526.268 6.94116C524.063 7.41979 522.059 8.56171 520.526 10.2125C518.871 12.0554 517.815 14.3543 517.497 16.8068C517.217 18.7551 517.346 22.0308 519.86 22.4162C519.965 22.4351 520.074 22.4283 520.177 22.3963C520.279 22.3643 520.372 22.308 520.448 22.2323C520.524 22.1566 520.581 22.0636 520.613 21.9614C520.645 21.8592 520.652 21.7508 520.633 21.6454C520.09 19.3992 520.271 17.0396 521.149 14.9013C521.613 13.7575 522.32 12.7273 523.221 11.881C524.122 11.0348 525.195 10.3926 526.369 9.99842C527.477 9.58519 528.671 9.45674 529.843 9.62491C531.014 9.79309 532.123 10.2525 533.069 10.9607C534.015 11.6689 534.767 12.6031 535.256 13.6772C535.744 14.7513 535.953 15.9307 535.863 17.1065C535.653 18.267 535.207 19.3724 534.554 20.3553C533.9 21.3382 533.052 22.1779 532.061 22.823C530.121 24.327 528.438 26.1346 527.077 28.1755C524.658 32.5664 523.325 37.4695 523.189 42.4773C523.06 44.6183 526.54 45.282 526.669 43.0339C526.637 38.0656 528.015 33.1893 530.643 28.9676C533.393 25.1138 538.205 23.1869 538.914 18.0485C539.17 15.8804 538.719 13.6876 537.628 11.7945C536.537 9.90133 534.864 8.40836 532.856 7.53629" fill="black"/>
</g>
<defs>
<clipPath id="clip0_0_1606">
<rect width="539" height="82" fill="white"/>
</clipPath>
</defs>
</svg>
