<svg width="393" height="190" viewBox="0 0 393 190" fill="none" xmlns="http://www.w3.org/2000/svg">
<g clip-path="url(#clip0_0_1618)">
<path d="M50.0152 116.839C51.1153 104.906 51.9404 92.9306 52.9718 80.9693L48.5437 82.0316C50.8403 88.3365 52.6693 94.7792 54.622 101.208C56.5748 107.637 58.9126 114.025 60.4253 120.523C60.7691 121.971 63.3132 121.157 63.4507 119.943C64.9772 106.727 65.7198 93.4272 67.4113 80.2243C67.7275 77.7548 63.2857 78.4171 62.9694 80.7624C61.4705 93.7583 59.999 107.099 60.3841 120.205L63.4232 119.626C61.553 113.169 60.3016 106.492 58.4176 99.9942C56.5335 93.4962 54.4983 87.0672 52.9168 80.5141C52.4217 78.5136 48.7913 79.3276 48.5437 81.0659C46.4155 92.9747 45.7918 105.105 46.6872 117.17C46.8523 119.019 49.8914 118.55 50.0427 116.867" fill="black"/>
<path d="M70.767 114.066C72.4173 109.527 73.6687 104.837 75.1539 100.27C75.8415 98.1041 76.5291 95.9381 77.3267 93.7997C77.973 91.9511 78.7019 87.9226 80.5859 87.081L77.7255 85.6048C77.7255 95.5105 76.6116 105.789 77.5605 115.653C77.7942 118.122 81.5347 117.281 81.7685 115.17C82.8687 105.292 82.0436 95 82.2086 85.053C82.2086 83.6734 80.4208 83.1216 79.3482 83.563C74.6726 85.5083 73.6412 91.1371 72.156 95.4967C69.9368 101.517 68.3109 107.741 67.3016 114.08C67.0541 115.943 70.2857 115.46 70.767 114.08" fill="black"/>
<path d="M71.1517 104.657C72.2867 104.485 73.441 104.485 74.576 104.657C75.7311 105.008 76.9551 105.065 78.1377 104.823C79.0315 104.533 80.228 103.222 79.3478 102.257C77.3538 100.063 73.2558 101.112 70.8492 102.022C70.1891 102.271 69.474 102.795 69.5703 103.595C69.6611 103.93 69.8743 104.218 70.1674 104.402C70.4605 104.586 70.8119 104.653 71.1517 104.588" fill="black"/>
<path d="M86.3754 82.9422C88.5207 82.8319 90.6522 82.7629 92.7975 82.5421L90.7485 81.0797C90.7485 90.3645 90.446 99.6355 89.8271 108.893C89.5658 112.921 90.0059 118.398 86.8567 121.378C84.1064 124.055 80.4209 123.558 77.1479 122.22C75.0027 121.351 72.0048 124.4 74.3976 126.055C80.8059 130.594 90.5972 126.372 93.0726 119.323C94.9841 113.887 94.4477 107.099 94.709 101.388C94.9703 94.4896 95.0253 87.5915 94.9291 80.5969C94.9015 80.3617 94.8255 80.1347 94.706 79.9305C94.5864 79.7263 94.4259 79.5491 94.2346 79.4104C94.0433 79.2716 93.8253 79.1742 93.5945 79.1243C93.3637 79.0745 93.1251 79.0732 92.8938 79.1207C90.7622 79.3828 88.672 79.7829 86.5679 80.1416C84.4639 80.5003 84.0651 83.0388 86.4442 82.9008" fill="black"/>
<path d="M110.358 78.9551C99.4392 73.2711 97.6239 97.3729 97.5139 103.209C97.4177 107.761 96.5238 114.646 101.502 117.129C105.229 118.978 110.633 116.467 111.513 112.397C111.83 111.017 110.386 110.3 109.176 110.714C107.965 111.128 107.03 112.424 105.806 112.88C103.441 113.735 102.891 111.197 102.698 109.638C102.467 106.588 102.49 103.523 102.767 100.477C102.874 97.1452 103.307 93.832 104.06 90.5852C104.651 88.1985 105.944 82.3075 108.928 81.9626C110.056 81.8109 112.077 79.8518 110.303 78.9551" fill="black"/>
<path d="M114.374 85.9636C115.048 85.9636 119.132 86.1015 119.297 86.7223C119.38 87.0259 117.922 90.7784 117.798 91.2475C117.468 92.5029 117.166 93.7722 116.877 95.0414C115.648 100.321 114.489 105.628 113.398 110.962C113.081 112.48 114.36 113.307 115.735 113.211C118.706 112.99 121.69 112.769 124.633 112.328C127.576 111.886 127.7 107.913 124.482 108.189C121.525 108.382 118.568 108.824 115.625 109.238L117.977 111.473C119.6 104.326 121.47 97.0418 122.419 89.7575C123.12 84.239 120.301 82.5697 114.938 82.956C113.164 83.0802 112.077 85.8118 114.374 86.0187" fill="black"/>
<path d="M139.183 76.7339C137.109 75.8619 134.795 75.7543 132.651 76.4304C131.633 76.6511 130.244 77.4375 130.134 78.6378C129.034 90.7922 128.594 103.002 127.576 115.17C127.452 116.674 129.35 116.812 130.326 116.55C134.576 115.542 140.737 119.309 143.391 113.887C144.298 112.052 142.016 110.81 140.558 111.886C137.257 114.259 132.981 112.19 129.171 113.266L131.922 114.646C132.568 102.74 134.177 90.9301 135.538 79.0931L133.022 81.3004C134.948 81.0121 136.854 80.602 138.729 80.0726C140.324 79.4931 140.929 77.5341 139.21 76.7201" fill="black"/>
<path d="M131.248 97.2901C133.118 97.5937 135.579 96.8487 136.143 94.8206C136.405 93.9101 134.851 93.9653 134.411 94.186C133.765 94.6352 132.996 94.8715 132.21 94.862C131.814 94.8024 131.408 94.8704 131.052 95.0563C130.697 95.2422 130.409 95.5364 130.23 95.8967C129.941 96.6555 130.56 97.1798 131.248 97.2764" fill="black"/>
<path d="M142.332 111.652C137.299 114.411 132.417 119.267 134.383 125.614C134.933 127.379 137.739 127.242 138.715 125.986C139.137 125.521 139.501 125.007 139.801 124.455C140.558 123.158 139.444 122.275 138.193 122.303C137.689 122.279 137.185 122.326 136.694 122.44L139.361 124.317C138.564 119.874 141.507 116.646 144.67 113.873C146.485 112.273 143.913 110.769 142.332 111.652Z" fill="black"/>
<path d="M156.069 75.6855C149.014 78.1688 145.425 86.5292 149.551 93.1375C152.301 97.4971 156.661 99.5113 157.197 105.237C157.747 111.279 153.47 114.397 148.011 114.742C145.412 114.894 144.751 118.509 147.543 119.005C155.409 120.385 162.147 112.549 162.216 105.209C162.173 103.094 161.712 101.009 160.86 99.0744C160.008 97.1396 158.781 95.3936 157.252 93.9377C155.23 91.8821 153.264 90.1162 153.126 87.0396C152.892 83.4665 155.093 80.9142 158.146 79.3552C160.704 77.9756 158.531 74.9129 156.124 75.7682" fill="black"/>
<path d="M174.126 79.4794C168.996 77.4376 166.521 83.6182 165.105 87.4674C163 93.4025 162.396 99.7685 163.344 105.996C164.046 110.272 165.916 115.432 170.894 116.039C175.418 116.577 178.031 112.645 178.994 108.796C179.42 107.058 176.725 106.851 176.01 108.093C175.46 109.058 174.415 111.362 173.466 111.928C170.179 113.846 168.831 110.548 168.268 108.52C166.935 102.52 167.195 96.2735 169.024 90.4059C169.533 88.8332 171.21 82.3766 173.149 82.2662C174.525 82.1834 175.9 80.1692 174.14 79.507" fill="black"/>
<path d="M182.377 80.583C181.662 85.7271 181.662 90.9458 182.377 96.0899C182.9 98.8938 182.9 101.771 182.377 104.574C181.814 106.921 181.624 109.342 181.813 111.748C181.965 112.935 184.151 112.369 184.426 111.541C185.097 109.214 185.339 106.783 185.141 104.368C185.146 101.298 185.497 98.2388 186.186 95.2483C187.047 90.1518 186.907 84.9358 185.774 79.8932C185.389 78.1687 182.515 79.2034 182.336 80.583" fill="black"/>
<path d="M200.873 78.8862C196.665 74.0161 191.453 79.2449 190.875 84.0459C189.789 93.11 190.559 102.45 189.981 111.555C189.981 112.535 190.889 113.073 191.687 113.211C195.812 113.942 201.519 114.48 205.163 112.135C206.071 111.555 206.704 109.803 205.163 109.445C201.244 108.52 196.844 109.541 192.787 109.362L194.492 111.004C194.643 106.133 195.07 101.25 195.386 96.3934C195.537 94.0757 195.716 91.7717 195.867 89.4954C195.867 88.6952 196.486 81.1073 197.352 81.7282C198.975 82.9008 202.482 80.8038 200.859 78.9689" fill="black"/>
<path d="M192.498 96.6417C194.809 96.7935 197.875 97.566 199.691 95.6484C199.871 95.5064 200.016 95.3252 200.117 95.1185C200.217 94.9117 200.269 94.6849 200.269 94.455C200.269 94.2252 200.217 93.9983 200.117 93.7916C200.016 93.5849 199.871 93.4037 199.691 93.2617C197.6 91.7717 194.74 93.2617 192.608 93.9101C191.233 94.324 190.628 96.5175 192.512 96.6693" fill="black"/>
<path d="M208.024 79.576C210.497 80.4091 213.088 80.8377 215.697 80.8452L213.579 79.3138C212.839 83.2542 212.325 87.2341 212.039 91.2337L211.585 104.506C211.448 108.382 211.998 113.542 209.674 116.922C207.941 119.419 199.429 123.82 197.476 119.861C196.431 117.75 193.254 118.785 193.02 120.923C192.512 125.683 197.971 126.855 201.574 125.972C206.112 124.882 210.912 122.33 213.483 118.288C216.495 113.556 215.738 107.251 215.78 101.857C215.78 95.2622 214.542 85.798 217.54 79.7829C217.682 79.586 217.775 79.358 217.812 79.1179C217.848 78.8777 217.827 78.6323 217.751 78.4018C217.674 78.1713 217.544 77.9624 217.371 77.7923C217.198 77.6223 216.987 77.4959 216.756 77.4238C214.448 76.6628 212.034 76.2763 209.605 76.2787C207.955 76.2787 205.48 78.8172 208.037 79.5898" fill="black"/>
<path d="M242.61 80.183C241.822 85.6318 241.362 91.1235 241.235 96.6279C240.973 102.146 240.052 107.665 240.121 113.183C240.121 114.935 243.132 114.425 243.27 112.907C243.779 107.389 243.463 101.87 243.944 96.4624C244.425 91.0543 245.319 85.5634 245.402 79.9898C245.402 78.4171 242.761 78.9275 242.541 80.2243" fill="black"/>
<path d="M243.587 80.6106C251.659 82.9836 253.694 91.0681 251.425 98.5456C250.478 101.62 248.925 104.472 246.86 106.934C244.976 109.196 242.102 110.631 240.685 113.211C239.901 114.59 241.098 115.68 242.514 115.611C246.64 115.446 250.215 110.934 252.443 107.817C255.062 104.215 256.758 100.022 257.38 95.607C258.453 87.3293 254.341 77.81 245.251 76.7891C243.174 76.5546 240.905 79.8243 243.587 80.6106Z" fill="black"/>
<path d="M275.985 82.28C274.844 79.3138 271.626 78.555 268.793 79.6863C265.658 80.9279 264.159 84.1562 263.292 87.1776C261.583 92.4011 260.656 97.8501 260.542 103.347C260.542 107.886 260.542 113.901 262.165 118.205C263.334 121.295 266.552 121.999 269.453 120.964C272.795 119.695 275.023 116.522 276.329 113.363C279.217 106.644 282.352 93.3306 276.123 87.5087C274.748 86.1291 270.512 87.3293 271.805 89.6747C273.097 92.02 274.555 93.979 274.858 96.7383C275.067 99.6893 274.812 102.655 274.101 105.526C273.551 108.189 269.742 122.082 265.451 116.412C263.897 114.37 263.925 109.707 263.98 107.403C264.176 104.106 264.636 100.83 265.355 97.6074C265.836 95.0276 268.532 80.5554 272.974 84.1286C274.033 84.9702 276.7 83.8941 276.095 82.3351" fill="black"/>
<path d="M282.765 83.9355C285.029 84.9437 287.447 85.5595 289.916 85.7566C292.749 86.2532 295.555 87.3155 298.388 86.6257C299.584 86.336 300.354 84.8322 299.268 83.9493C297.246 82.3075 294.056 82.211 291.553 81.8109C288.959 81.171 286.26 81.0864 283.632 81.5626C282.752 81.7833 281.583 83.2733 282.765 83.9355Z" fill="black"/>
<path d="M289.476 86.1567C287.757 96.0899 286.726 106.023 285.53 116.025C285.255 118.315 289.449 117.708 289.655 115.556C290.673 105.664 291.8 95.883 292.24 85.9498C292.309 84.4184 289.683 84.9151 289.49 86.1567" fill="black"/>
<path d="M296.668 91.4958C296.984 93.3859 299.033 94.931 300.299 96.2831C301.756 97.8466 303.191 99.424 304.603 101.015C304.951 101.376 305.399 101.625 305.888 101.731C306.378 101.836 306.888 101.794 307.353 101.608C307.759 101.498 308.126 101.28 308.417 100.976C308.708 100.672 308.911 100.295 309.003 99.8838C309.074 99.6118 309.081 99.327 309.024 99.0517C308.967 98.7765 308.847 98.5182 308.673 98.2973C306.858 96.6142 305.07 94.8896 303.296 93.1513C301.921 91.7717 300.656 90.1438 298.69 89.7851C297.686 89.6058 296.462 90.4197 296.641 91.4958" fill="black"/>
<path d="M312.69 80.6934C310.265 86.576 308.203 92.6025 306.515 98.7387C304.419 104.733 302.732 110.863 301.468 117.088C301.166 118.853 304.095 118.122 304.59 117.088C307.364 111.074 309.623 104.834 311.342 98.4352C313.317 92.653 314.821 86.7196 315.839 80.6934C316.073 78.9551 313.171 79.5897 312.69 80.6934Z" fill="black"/>
<path d="M327.101 81.8661C318.698 73.5884 314.573 99.056 314.27 103.236C313.927 107.679 313.775 113.79 319.606 114.356C323.25 114.701 327.032 111.597 326.014 107.817C325.492 105.871 322.824 106.823 321.999 107.817C321.628 108.286 321.449 108.755 320.802 108.906C319.51 109.196 319.579 107.196 319.427 105.968C319.34 103.315 319.571 100.661 320.115 98.0627C320.376 96.4762 323.965 84.9702 323.47 84.7218C325.066 85.5496 328.971 83.7423 327.046 81.8109" fill="black"/>
<path d="M332.629 83.9631C334.882 85.2817 337.523 85.7697 340.096 85.3427L338.212 83.5079C336.232 93.2479 331.02 102.174 329.274 112.024C329.215 112.298 329.217 112.582 329.28 112.855C329.342 113.128 329.464 113.384 329.636 113.605C329.807 113.826 330.025 114.006 330.274 114.134C330.523 114.261 330.796 114.332 331.075 114.342C333.482 114.494 335.888 114.715 338.295 114.701C340.702 114.687 342.613 111.059 339.395 110.659C337.002 110.369 334.582 110.3 332.175 110.162L333.963 112.48C334.986 107.752 336.257 103.083 337.772 98.4904C339.148 93.6618 340.028 88.5158 341.898 83.8942C342.311 82.9284 341.348 82.211 340.523 82.0593C338.492 81.8409 336.482 81.4579 334.513 80.9142C332.588 80.2658 330.195 82.8043 332.505 83.9631" fill="black"/>
<path d="M345.047 82.9422C345.79 89.0125 347.715 95.0965 348.788 101.139C349.283 103.898 354.068 103.126 353.67 100.491C352.748 94.3378 351.291 87.081 348.059 81.6867C347.261 80.3071 344.882 81.5764 345.047 82.9422Z" fill="black"/>
<path d="M357.823 81.8661C355.345 86.995 353.374 92.3551 351.937 97.8696C350.232 103.719 347.908 110.024 347.454 116.122C347.289 118.426 351.181 118.219 351.896 116.563C354.151 111.321 354.99 105.306 356.517 99.801C358.359 93.9146 359.86 87.9263 361.014 81.8661C361.289 80.045 358.332 80.8314 357.823 81.8661Z" fill="black"/>
<path d="M0.852539 27.5232C1.36136 37.691 0.70127 47.9415 1.25134 58.0816L3.03908 57.9023C2.31023 49.0866 3.31412 40.1605 2.47526 31.3172C2.47526 30.7791 1.30635 31.0413 1.2651 31.5241C0.618762 40.3674 1.78767 49.2521 1.2651 58.0816C1.2651 59.0887 2.94282 58.7576 3.05283 57.9023C4.42801 47.9139 3.45164 37.3599 2.42025 27.3853C2.33774 26.5575 0.825038 26.7645 0.866294 27.5232" fill="black"/>
<path d="M0.0141861 26.0608C0.467997 31.2344 0.605514 36.4769 0.646769 41.6643C0.688025 46.8516 -0.315857 52.1631 0.509253 57.0883C0.908056 59.4888 4.31851 59.0749 4.99235 57.0883C6.60132 52.1631 6.05124 46.0514 5.81746 41.002C5.50839 35.7256 4.84682 30.4759 3.8372 25.2883C3.5209 23.4672 -0.150836 24.3777 0.0141861 26.116" fill="black"/>
<path d="M3.25909 26.5713C10.6163 23.1085 11.6477 33.1107 9.69495 37.6082C7.89346 41.747 4.67553 43.237 1.44385 45.8859C1.21705 46.0658 1.05938 46.319 0.997624 46.6024C0.93587 46.8858 0.973844 47.1819 1.1051 47.4404C1.23636 47.6989 1.4528 47.9038 1.71763 48.0203C1.98245 48.1368 2.2793 48.1577 2.55775 48.0795C9.63994 47.0172 15.4845 37.8151 14.8381 30.9171C14.2881 25.0951 5.69317 19.0662 1.49886 25.3297C0.687502 26.5437 2.33773 26.9852 3.23159 26.5713" fill="black"/>
<path d="M21.0815 29.1374H21.2465C22.3054 28.7924 23.5568 27.0541 22.1542 26.2402L21.8654 26.0746C21.5478 25.8904 21.1943 25.7772 20.829 25.7429C20.4637 25.7086 20.0954 25.7539 19.7493 25.8757C19.4031 25.9976 19.0873 26.1931 18.8236 26.4489C18.5598 26.7047 18.3543 27.0147 18.2211 27.3577C16.7497 31.193 16.8459 36.1458 16.6397 40.2156C16.4334 44.2855 15.9658 49.2521 17.1897 53.0736C17.3575 53.701 17.649 54.2883 18.047 54.8006C18.4451 55.313 18.9415 55.74 19.507 56.0565C20.0724 56.3729 20.6955 56.5724 21.3391 56.643C21.9828 56.7135 22.634 56.6539 23.2543 56.4674C26.3347 55.6397 27.7924 52.8667 28.8513 50.0523C30.309 46.3164 31.0157 42.3283 30.9307 38.3173C30.8457 34.3064 29.9708 30.352 28.3562 26.6816C27.1873 24.2259 25.2071 22.2255 22.3054 22.6946C20.0226 23.0671 17.5748 25.3434 18.8675 27.7439C19.0759 28.1079 19.3764 28.4103 19.7386 28.6206C20.1008 28.8308 20.5118 28.9416 20.9302 28.9416C21.3487 28.9416 21.7597 28.8308 22.1219 28.6206C22.4841 28.4103 22.7845 28.1079 22.993 27.7439C23.1993 27.3439 24.932 31.3309 25.1383 32.0207C25.7058 33.9513 26.0428 35.9427 26.1422 37.9531C26.2755 40.1788 26.1323 42.4125 25.7159 44.6028C25.4408 45.9824 24.7533 50.1212 23.6119 50.7834C21.7416 51.9837 22.0166 49.2797 21.9616 47.7759C21.8654 45.5271 21.8516 43.2784 21.9616 41.0296C21.9616 39.0292 22.0579 37.0425 22.1817 35.0559C22.2642 33.6763 21.8379 29.1511 22.5805 28.1578L19.2663 28.9304L19.4725 29.0546L19.1425 27.0679L19.06 27.2059C18.1661 28.7235 19.8714 29.7582 21.2465 29.3029" fill="black"/>
<path d="M37.1023 51.3629C38.4217 42.1268 38.9325 32.7926 38.6288 23.4672C38.0374 24.2397 37.4598 25.0261 36.8823 25.7987L37.3636 25.6608L34.9433 25.44C35.6859 26.0194 36.1809 28.889 36.4972 29.8134C37.1298 31.6896 37.7899 33.5659 38.4362 35.4422C39.7152 39.1947 40.9941 42.9473 42.3142 46.6998C43.1944 49.2107 46.8661 47.9829 47.4437 45.941C49.5752 38.4359 51.693 30.8619 55.4472 23.9914L50.7579 23.5499C51.0742 34.0626 50.4966 45.0719 51.8443 55.5017C52.2018 58.261 56.3549 57.378 56.5199 54.9085C57.2075 44.3821 56.0386 33.4418 55.736 22.8877C55.6535 20.363 51.9818 20.7355 51.0467 22.4463C47.2676 29.7704 44.3112 37.493 42.2317 45.472L47.3612 44.7132C45.4084 39.0982 43.4144 33.4969 41.4341 27.8957C40.3477 24.8192 39.4951 20.501 35.3696 21.7978C34.8763 21.9641 34.4458 22.2781 34.136 22.6974C33.8261 23.1168 33.6519 23.6214 33.6368 24.1432C33.8544 33.2462 33.5284 42.3542 32.6605 51.4181C32.4542 53.7496 36.786 53.4047 37.1023 51.4181" fill="black"/>
<path d="M60.1914 22.3083C60.1914 25.5366 62.0204 28.5993 63.3543 31.4827C64.5985 34.5289 66.0887 37.4681 67.8099 40.2708L70.5603 36.5321H70.2853C69.7328 36.4709 69.1756 36.5929 68.6988 36.8794C68.222 37.1659 67.8518 37.6012 67.6449 38.1186C67.6449 38.2842 67.5486 38.436 67.5074 38.6015C66.4485 42.0091 73.7095 41.816 72.4718 37.8841C71.3006 34.7773 69.8747 31.7733 68.2087 28.9028C66.8336 26.1436 65.5546 23.0533 63.1068 21.1356C62.2542 20.4596 60.2327 21.1356 60.2464 22.3359" fill="black"/>
<path d="M73.6134 21.2322C72.6921 27.3991 71.2756 33.497 70.4505 39.6914C69.7217 45.0305 69.0753 50.3006 68.0714 55.5983C67.8927 56.5365 69.7904 56.3847 70.0104 55.5983C71.7432 50.2316 73.6134 44.8098 74.9061 39.3189C76.1591 33.2352 76.9452 27.064 77.2576 20.8597C77.4227 18.8179 73.8747 19.4801 73.6134 21.2322Z" fill="black"/>
<path d="M83.6113 27.2335C81.4248 29.7306 79.1832 32.4485 78.7569 35.8561C78.2756 39.5397 80.2696 42.3955 81.6998 45.61C82.4149 47.2517 83.5701 51.9148 80.4759 52.2597C79.197 52.4114 79.7196 51.4595 78.6469 50.6041C75.8966 48.4106 73.3937 53.3634 74.6589 55.7501C77.6843 61.2685 86.0454 55.4466 87.5856 51.5009C88.672 48.7417 87.8194 45.6513 86.5955 43.0439C85.6191 40.9469 83.9551 38.6981 84.0101 36.27C84.0651 33.8419 85.9491 31.6759 87.4481 29.8686C89.6209 27.2335 85.5778 24.971 83.6113 27.2335Z" fill="black"/>
<path d="M96.0017 18.7627C95.2591 23.8121 94.1865 28.8063 93.4026 33.8556C92.5775 39.2085 92.0274 44.6994 90.8723 49.9695C90.7784 50.2732 90.7839 50.599 90.8878 50.8993C90.9917 51.1997 91.1887 51.4588 91.4499 51.6388C95.3554 54.3981 100.994 55.1017 105.656 55.4466C109.52 55.7363 110.771 49.9281 106.604 49.5004C102.163 49.0866 97.3632 47.9691 92.9351 48.4105L95.0666 49.9419C95.3279 44.6994 96.2768 39.4569 96.9231 34.2419C97.5694 29.027 97.8995 23.7845 98.5733 18.5696C98.7383 17.1899 96.1805 17.59 96.0017 18.7627Z" fill="black"/>
<path d="M125.994 3.40766C124.413 9.03647 124.303 15.1757 123.863 20.9977C123.423 26.8197 122.9 32.7382 122.488 38.6291C122.116 44.051 122.02 49.5142 121.594 54.9361C121.236 59.5578 118.843 67.463 125.265 68.8288C137.642 71.4501 135.387 46.3411 135.469 39.5673C135.538 33.4832 135.469 27.3991 135.469 21.3012C135.469 15.2033 135.772 8.55361 134.562 2.33156C133.737 -1.89005 126.806 0.331124 125.939 3.40766" fill="black"/>
<path d="M166.48 2.27636C159.13 6.60682 152.269 11.7228 146.017 17.5349C143.266 20.1009 140.97 23.0533 138.371 25.7159C135.167 29.027 130.766 30.5584 127.507 33.7591C125.554 35.6767 127.507 38.0911 129.996 37.1391C137.394 34.2833 143.129 27.3163 149.056 22.1979C155.794 16.3898 163.124 11.3404 169.918 5.64261C172.668 3.31107 168.914 0.882954 166.48 2.33154" fill="black"/>
<path d="M143.019 27.6198C144.766 28.4062 145.852 32.8348 146.32 34.5179C146.992 37.2457 147.511 40.0093 147.874 42.7955C148.685 47.7483 149.661 53.2944 153.031 57.2539C162.368 68.2908 175.212 48.3692 177.935 40.8779L167.511 41.1538C167.291 46.5481 167.374 52.508 172.091 56.1226C174.077 57.4974 176.369 58.3633 178.766 58.6446C181.164 58.926 183.593 58.6143 185.842 57.7367C197.298 53.7221 199.718 39.8018 200.337 29.2478C200.914 19.3422 199.237 2.15221 185.017 4.74588C172.201 7.09122 171.045 24.0604 169.45 34.3385C168.543 40.2571 177.399 40.2019 178.801 35.2629C179.902 31.4276 180.878 27.5922 181.758 23.7017C182.377 20.9425 182.707 17.3141 184.591 15.1205C186.888 12.4441 188.634 15.9759 189.212 18.2247C189.864 21.6511 190.045 25.1512 189.748 28.6269C189.542 34.3937 189.074 42.8369 185.031 47.3897C183.807 48.7693 181.662 50.0247 179.792 49.0452C177.22 47.6656 177.605 43.2508 177.894 40.8779C178.595 35.1249 170.248 33.8971 168.02 38.7671C167.091 40.9604 165.968 43.0658 164.665 45.0581C163.289 47.0447 161.199 48.5071 159.824 50.4386C158.779 51.1008 158.848 51.225 160.03 50.7973C161.172 50.7973 161.282 50.4386 160.36 49.6522C160.007 48.6666 159.585 47.7076 159.095 46.7826C158.373 44.7002 157.794 42.5706 157.362 40.4088C155.987 34.104 153.416 19.8112 143.996 22.7084C141.644 23.4258 140.241 26.4334 142.978 27.6612" fill="black"/>
<path d="M214.308 6.52557C205.205 9.56072 202.619 20.1699 201.395 28.5993C200.309 36.063 198.342 51.2664 206.181 56.1088C209.646 58.2472 214.074 56.2468 216.935 53.9566C220.299 51.1339 222.596 47.2376 223.439 42.9197C225.158 35.3456 225.557 22.6394 214.858 23.0257C210.967 23.1637 209.729 29.3995 214.184 29.6616C217.939 29.8686 221.679 30.1859 225.433 30.3652C230.219 30.5722 232.392 23.2051 227.056 23.0809C223.316 22.9843 219.575 23.0809 215.835 23.0809C215.615 25.2883 215.381 27.4957 215.161 29.703C219.025 29.3857 215.67 44.1752 214.845 45.7617C214.32 46.8289 213.612 47.7954 212.754 48.6175C212.686 48.6175 210.004 50.1765 211.104 50.2592C209.303 50.1213 208.78 43.237 208.711 42.2161C208.302 36.2025 208.765 30.1612 210.086 24.2812C211.118 19.5767 212.424 13.8651 216.962 11.3266C220.4 9.38136 217.65 5.3667 214.295 6.48419" fill="black"/>
<path d="M233.506 12.9821C231.326 19.2198 229.693 25.6363 228.624 32.1587C227.689 37.9393 226.589 44.1475 227.125 50.0109C227.538 54.5774 229.174 61.1995 234.483 62.1514C240.451 63.2 244.109 56.8124 246.254 52.37C251.302 42.3406 252.921 30.9239 250.861 19.8802C249.954 15.2033 248.386 9.91939 243.394 8.23627C242.17 7.78038 240.858 7.6149 239.56 7.75278C238.261 7.89067 237.013 8.32817 235.911 9.03103C234.809 9.73389 233.885 10.683 233.21 11.8041C232.535 12.9252 232.128 14.1878 232.021 15.493C231.526 20.5562 239.736 19.6319 241.4 16.376C241.152 16.845 239.708 16.983 239.653 17.1899C239.876 17.8905 240.161 18.5693 240.506 19.218C241.027 20.8738 241.399 22.5728 241.62 24.2949C242.147 27.9831 242.221 31.7222 241.84 35.4284C241.452 38.9125 240.658 42.339 239.475 45.6375C238.54 48.3002 236.834 53.722 234.153 55.0465L237.742 54.1635C236.504 54.1635 236.174 46.2583 236.202 44.9477C236.284 41.6366 236.697 38.3394 237.041 35.0421C237.783 27.7026 238.512 20.4182 239.172 13.0925C239.433 10.1263 234.235 10.8437 233.506 12.9821Z" fill="black"/>
<path d="M82.9375 24.8882C85.1653 23.5086 87.5582 22.3773 89.8135 20.9287C91.0374 20.1148 90.336 18.7075 88.9196 19.1352C86.2975 20.0653 83.8168 21.356 81.5486 22.9705C79.8709 24.0742 81.5486 25.8401 82.9925 24.8882" fill="black"/>
<path d="M265.754 21.6323C266.181 27.675 266.593 33.7177 267.13 39.7604C267.611 45.1133 267.858 50.5627 269.88 55.6121C270.664 57.6126 273.607 56.4537 273.799 54.6878C274.459 48.875 275.106 43.0623 275.738 37.2495C276.33 31.8138 277.457 26.2126 276.797 20.6942C276.508 18.335 272.672 19.011 272.672 21.2046C272.929 33.4823 276.207 45.5059 282.215 56.2053C282.47 56.6136 282.837 56.939 283.272 57.1416C283.708 57.3443 284.192 57.4156 284.668 57.3469C285.143 57.2782 285.588 57.0724 285.948 56.7546C286.309 56.4368 286.569 56.0207 286.698 55.5569C288.698 43.982 289.101 32.1861 287.895 20.501C287.647 17.7418 283.247 18.611 283.274 21.1494C283.398 32.6002 284.292 43.7889 282.16 55.1431L286.63 54.4946C280.612 44.2179 277.229 32.6044 276.783 20.6942L272.658 21.2046C273.318 26.7231 272.204 32.3243 271.613 37.76C270.998 43.5635 270.384 49.3671 269.77 55.1706L273.703 54.2463C271.516 48.7968 271.31 42.8507 270.526 37.0977C269.811 31.7908 269.069 26.4793 268.299 21.1632C268.134 20.0182 265.672 20.5562 265.741 21.6323" fill="black"/>
<path d="M305.717 21.7978C308.124 21.5633 310.654 20.4182 313.061 21.3012C316.375 22.5152 317.104 26.723 317.255 29.8134C317.479 32.9918 316.813 36.1699 315.33 38.9878C313.487 41.9815 309.719 41.8712 307.078 39.65C305.786 38.5325 303.118 40.0777 303.709 41.7746C305.387 46.5343 312.786 46.2307 316.306 43.7612C319.826 41.2917 321.257 34.8351 321.325 30.5997C321.394 26.3643 320.294 20.5976 315.825 18.5557C314.012 17.7885 312.031 17.512 310.078 17.7541C308.126 17.9963 306.271 18.7484 304.699 19.9354C303.737 20.7217 304.521 21.8668 305.621 21.7564" fill="black"/>
<path d="M306.308 20.2527C305.236 33.5659 305.827 46.9481 304.369 60.2614C304.149 62.3446 308.123 61.8755 308.192 59.8061C308.701 46.5618 310.117 33.0279 308.797 19.7974C308.673 18.6385 306.391 19.2593 306.308 20.2527Z" fill="black"/>
<path d="M324.764 25.9643C322.495 28.558 322.247 32.8623 321.656 36.132C320.9 40.09 320.596 44.1214 320.748 48.1484C320.982 52.7149 321.986 62.7171 328.669 57.9988C333.551 54.536 334.5 46.962 335.133 41.4435C335.71 36.5183 335.229 27.3163 329.068 26.0609C328.583 26.0139 328.094 26.1056 327.659 26.3253C327.223 26.545 326.858 26.8838 326.607 27.3025L326.331 27.7302C326.178 28.0014 326.108 28.3119 326.13 28.6228C326.151 28.9338 326.264 29.2315 326.453 29.4787C326.642 29.726 326.9 29.9118 327.194 30.013C327.488 30.1143 327.805 30.1264 328.105 30.0479C329.481 29.772 330.76 35.8009 330.856 36.5183C331.063 39.0134 330.924 41.5252 330.443 43.982C330.141 45.8169 328.381 56.2605 325.878 54.1911C324.502 53.1012 324.819 47.8449 324.778 46.1618C324.752 43.9914 324.858 41.8214 325.094 39.6638C325.396 36.9046 325.864 34.1454 326.373 31.3862C326.758 29.3443 327.349 27.8681 326.675 25.8677C326.4 25.0813 325.204 25.3297 324.778 25.8677" fill="black"/>
<path d="M358.318 27.0818C359.088 24.1984 355.98 23.3982 353.848 24.6674C350.383 26.7507 348.939 32.1725 348.416 35.8975C347.646 40.2784 347.646 44.7608 348.416 49.1417C348.784 50.8405 349.763 52.3436 351.167 53.3633C352.088 54.1083 353.491 54.5498 354.22 55.5293C355.994 57.9161 352.569 59.9027 350.204 59.2957C348.513 58.8542 345.515 61.1306 347.742 62.5378C352.693 65.6695 362.938 59.5026 358.538 53.5013C357.492 52.1217 355.87 51.5147 354.577 50.4248C352.349 48.5347 352.624 46.0238 352.583 43.3198C352.461 40.5518 352.617 37.7785 353.051 35.0421C353.161 34.4489 355.65 27.0128 356.296 27.6198C356.47 27.7262 356.663 27.7958 356.864 27.8241C357.065 27.8525 357.27 27.8391 357.466 27.7848C357.662 27.7305 357.845 27.6364 358.003 27.5083C358.162 27.3803 358.292 27.221 358.386 27.0404" fill="black"/>
<path d="M370.983 30.0066C370.006 25.509 365.125 28.2545 363.859 30.9171C361.546 36.4158 360.498 42.3668 360.793 48.3278C360.875 51.8734 360.724 58.1368 365.578 58.3714C370.433 58.6059 373.513 52.1355 374.435 48.3002C374.833 46.5895 372.564 46.3964 371.602 47.2793C370.705 48.0381 369.93 48.9316 369.305 49.9282C369.003 50.3834 367.229 53.7497 366.789 53.8463C365.303 54.1912 365.413 47.6242 365.413 46.9482C365.385 44.1051 365.648 41.2666 366.197 38.4774C366.514 36.877 368.425 32.3519 367.902 31.3448C368.645 32.7244 371.327 31.4276 370.997 29.9652" fill="black"/>
<path d="M388.655 27.7578C386.826 25.9091 385.189 24.157 382.384 24.8192C379.578 25.4814 378.753 27.8544 378.465 30.3377C377.447 39.2499 377.791 48.5347 378.052 57.4884C378.091 57.7669 378.187 58.0344 378.333 58.2743C378.48 58.5141 378.674 58.7213 378.903 58.883C379.133 59.0446 379.393 59.1573 379.667 59.2141C379.942 59.2708 380.225 59.2704 380.5 59.2129C384.35 58.4127 388.751 58.3162 392.189 56.5227C392.554 56.4623 392.879 56.259 393.095 55.9576C393.31 55.6562 393.397 55.2813 393.337 54.9154C393.277 54.5495 393.074 54.2226 392.774 54.0066C392.473 53.7905 392.1 53.7031 391.735 53.7635C388.105 52.9633 383.855 54.3567 380.28 55.1431C381.091 55.7225 381.902 56.3019 382.728 56.8676C382.59 51.9148 382.549 46.9482 382.728 41.9954C382.728 39.6362 382.865 37.2909 382.975 34.9456C383.085 32.6002 382.398 27.3853 385.877 29.9652C387.101 30.8619 390.071 29.1926 388.723 27.813" fill="black"/>
<path d="M383.896 41.5539C384.034 41.5539 384.419 41.3745 384.061 41.4435H384.419C384.24 41.4435 384.212 41.4435 384.419 41.4435H384.694C384.46 41.4435 384.501 41.4435 384.804 41.4435C385.297 41.5327 385.804 41.4898 386.275 41.3193L385.23 41.4435H385.574C387.073 41.5814 388.916 39.8155 387.389 38.5463C387.912 39.788 388.077 40.0087 387.898 39.2085L387.692 38.836C387.578 38.7062 387.454 38.5862 387.32 38.4773C387.224 38.3945 387.224 38.4773 387.32 38.4773C386.973 38.1314 386.525 37.9045 386.041 37.8289C385.863 37.8153 385.684 37.8153 385.505 37.8289C384.411 37.8006 383.33 38.0776 382.383 38.6291C382.002 38.8249 381.709 39.1599 381.566 39.5653C381.423 39.9706 381.44 40.4156 381.613 40.8089C381.863 41.1819 382.235 41.4554 382.664 41.5814C383.094 41.7075 383.554 41.6782 383.965 41.4987" fill="black"/>
<path d="M339.216 24.088C337.209 34.242 337.099 44.5201 335.806 54.7568C335.802 54.902 335.834 55.046 335.899 55.176C335.963 55.3059 336.059 55.4178 336.177 55.5018C338.796 57.235 341.624 58.6258 344.593 59.6406C346.477 60.3028 348.719 57.447 346.464 56.702C344.621 56.095 339.945 55.212 338.9 53.5841C337.621 51.5975 339.065 46.1618 339.354 43.8441C340.193 37.2357 341.004 30.6274 341.444 23.9914C341.527 22.7774 339.409 23.1775 339.216 24.1432" fill="black"/>
<path d="M151.518 74.0575C154.635 72.1559 157.933 70.5707 161.364 69.3255C161.644 69.2396 161.884 69.0571 162.043 68.8103C162.201 68.5634 162.267 68.2683 162.229 67.9773C162.191 67.6862 162.052 67.4181 161.836 67.2204C161.619 67.0227 161.34 66.9082 161.048 66.8974C156.675 66.7318 152.797 68.6357 149.249 71.1604C146.897 72.8435 149.345 75.5751 151.518 74.0575Z" fill="black"/>
<path d="M376.277 122.785C377.204 123.097 378.195 123.168 379.157 122.992C380.119 122.816 381.021 122.398 381.778 121.778C382.445 121.281 382.972 120.62 383.309 119.859C383.646 119.098 383.782 118.262 383.703 117.432C383.63 116.647 383.324 115.902 382.823 115.294C382.315 114.721 381.665 114.293 380.939 114.052L381.957 114.549H381.874L380.815 114.039C380.241 113.82 379.622 113.749 379.014 113.832H378.079H379.344H378.863L380.073 114.066C379.48 113.847 378.843 113.776 378.216 113.859C377.554 113.843 376.897 113.989 376.305 114.287C375.685 114.527 375.136 114.921 374.71 115.432C374.23 115.844 373.861 116.371 373.637 116.963C373.392 117.527 373.266 118.135 373.266 118.75C373.266 119.365 373.392 119.973 373.637 120.537L374.297 121.571C374.825 122.204 375.514 122.681 376.291 122.951" fill="black"/>
<path d="M49.6581 144.528C53.4811 144.307 57.4417 144.873 61.2372 144.445L59.862 143.921C60.302 144.362 58.8168 148.281 58.6793 149.15C58.3084 151.473 58.1016 153.819 58.0605 156.172C57.923 160.849 58.2393 165.553 57.923 170.244C57.7579 172.562 56.8778 174.921 56.7816 177.142C55.9702 178.122 56.0252 178.522 56.9466 178.163C57.8267 178.26 57.9092 177.887 57.2216 177.032C57.1347 175.614 57.2552 174.192 57.5792 172.81C58.6656 168.878 61.7047 165.443 61.8285 161.249C61.8285 159.235 59.0781 159.4 57.9505 160.352C55.0213 162.946 53.3711 167.443 52.1335 171.099C51.1571 173.996 50.5795 177.832 52.3947 180.55C52.7617 181.064 53.2301 181.498 53.7709 181.823C54.3117 182.149 54.9134 182.36 55.5387 182.442C56.1639 182.525 56.7995 182.478 57.406 182.304C58.0124 182.131 58.5769 181.834 59.0644 181.433C61.7322 179.487 62.186 175.914 62.5986 172.824C63.7813 164.077 62.4611 155.096 62.9836 146.28C63.1624 143.328 63.3825 141.3 59.9582 141.038C56.3068 140.776 52.6498 141.465 49.3418 143.038C48.3654 143.466 48.613 144.556 49.6856 144.418" fill="black"/>
<path d="M77.1477 141.079C74.2228 146.679 71.8375 152.546 70.0242 158.6C68.0027 164.546 64.9223 171.43 64.8535 177.79C64.8535 179.805 68.0852 179.639 68.8828 178.259C71.922 172.934 73.1046 166.229 75.0161 160.407C77.0239 154.296 79.5955 148.267 81.0532 142.003C81.5758 139.741 78.0828 139.437 77.1477 141.079Z" fill="black"/>
<path d="M76.6942 144.569C76.0017 151.601 76.1356 158.691 77.093 165.691C77.4781 168.92 77.9731 172.134 78.6057 175.349C79.2383 178.563 79.5958 181.791 81.3561 184.371C82.2637 185.751 84.8628 184.771 85.0278 183.309C85.3991 180.122 84.2852 176.77 83.7352 173.652C83.1438 170.175 82.5937 166.685 82.1399 163.194C81.3286 156.82 80.7647 150.419 79.9396 144.059C79.7334 142.555 76.8317 143.355 76.6942 144.611" fill="black"/>
<path d="M72.0181 167.581C74.1526 167.912 76.3331 167.78 78.4127 167.195C79.5953 166.754 80.778 165.098 79.0728 164.436C77.0311 163.825 74.8794 163.679 72.7744 164.008C72.2553 164.031 71.7559 164.214 71.3447 164.532C70.9335 164.851 70.6307 165.29 70.4778 165.788C70.4419 166.011 70.4549 166.24 70.5159 166.458C70.5768 166.675 70.6843 166.877 70.8308 167.049C70.9774 167.221 71.1595 167.359 71.3645 167.453C71.5695 167.548 71.7925 167.596 72.0181 167.595" fill="black"/>
<path d="M90.9001 144.666C90.3638 149.536 90.0337 154.42 89.8825 159.317C89.7312 163.663 89.1674 168.437 90.3775 172.658C90.7901 174.038 93.3342 173.569 93.7467 172.396C95.2869 168.092 95.1219 163.208 95.3969 158.697C95.6445 153.868 95.727 149.039 95.5757 144.211C95.4932 141.576 91.1614 142.417 90.9001 144.666Z" fill="black"/>
<path d="M101.241 144.928C97.6933 149.771 91.725 156.393 92.4676 162.863C92.8664 166.312 94.7229 169.458 96.1393 172.52C97.7208 175.942 98.8897 179.749 100.925 182.895C102.066 184.619 105.642 183.13 105.147 181.088C103.689 174.99 99.646 169.623 98.1883 163.47C97.322 159.704 99.2197 157 100.939 153.813C102.314 151.15 103.689 148.432 104.94 145.714C105.944 143.617 102.19 143.59 101.255 144.845" fill="black"/>
<path d="M134.245 146.211C133.575 145.399 132.621 144.874 131.579 144.743C130.536 144.613 129.483 144.886 128.634 145.508C125.966 147.26 124.619 152.033 124.33 155.013C123.972 158.559 125.623 160.38 127.548 163.084C129.097 165.132 129.984 167.606 130.092 170.175C130.265 171.349 130.108 172.548 129.638 173.638L125.416 174.893C125.16 174.511 124.991 174.077 124.919 173.622C124.848 173.166 124.877 172.701 125.004 172.258C125.279 170.879 122.982 171.044 122.405 171.665C121.936 172.099 121.579 172.64 121.363 173.242C121.147 173.844 121.08 174.49 121.166 175.124C121.253 175.757 121.491 176.361 121.859 176.883C122.228 177.405 122.717 177.83 123.285 178.122C126.214 179.763 129.556 178.122 131.357 175.638C133.791 172.3 133.654 167.678 132.292 163.939C131.481 161.704 129.707 160.145 128.813 158.007C128.243 156.391 128.243 154.628 128.813 153.013C128.964 152.447 130.876 147.881 131.096 148.087C132.347 149.315 135.538 147.88 134.204 146.211" fill="black"/>
<path d="M137.738 148.322C137.587 153.164 137.573 157.979 137.463 162.849C137.353 167.719 136.803 172.617 137.34 177.404C137.463 178.494 139.581 178.011 139.801 177.197C140.855 172.569 141.349 167.83 141.273 163.084C141.447 158.062 141.291 153.034 140.805 148.032C140.626 146.363 137.793 146.804 137.738 148.322Z" fill="black"/>
<path d="M147.585 148.694H151.036C152.18 148.802 153.333 148.714 154.447 148.432C155.327 148.101 156.317 146.873 155.231 146.128C152.948 144.542 149.221 145.508 146.98 146.57C145.536 147.232 146.347 148.722 147.654 148.722" fill="black"/>
<path d="M147.997 147.784C147.612 152.327 147.341 156.88 147.185 161.442C147.048 165.995 147.791 171.637 146.525 176.025C146.195 177.211 147.653 177.404 148.451 177.018C151.244 175.741 154.218 174.903 157.266 174.535C158.379 174.355 159.466 172.713 157.761 172.479C153.892 172.158 150.037 173.24 146.897 175.528L149.166 176.066C148.684 171.279 150.28 165.871 150.651 161.07C150.988 156.562 151.043 152.037 150.816 147.522C150.733 145.977 148.066 146.418 147.997 147.784Z" fill="black"/>
<path d="M149.372 161.58C150.748 161.58 152.123 161.58 153.498 161.58C154.571 161.58 156.455 161.208 156.688 159.883C156.731 159.623 156.68 159.357 156.543 159.131C156.407 158.906 156.195 158.737 155.946 158.655C155.761 158.587 155.564 158.558 155.368 158.573C155.148 158.573 155.107 158.573 155.203 158.435C155.299 158.297 155.203 158.117 154.777 158.186H154.364C152.99 158.116 151.613 158.116 150.239 158.186C149.724 158.139 149.208 158.262 148.768 158.536C148.329 158.81 147.991 159.22 147.805 159.704C147.754 159.935 147.757 160.174 147.813 160.404C147.869 160.634 147.977 160.848 148.128 161.029C148.28 161.21 148.471 161.354 148.686 161.45C148.902 161.545 149.137 161.59 149.372 161.58Z" fill="black"/>
<path d="M155.506 171.872C153.97 173.211 152.72 174.846 151.829 176.681C150.938 178.516 150.425 180.512 150.321 182.55C150.321 185.53 152.26 189.103 155.684 187.834C156.812 187.42 157.679 185.972 156.496 185.075C152.81 182.316 155.973 176.162 158.16 173.238C159.397 171.596 156.565 170.865 155.506 171.858" fill="black"/>
<path d="M181.249 148.846C179.489 162.053 178.621 175.365 178.65 188.689C178.65 190.883 182.693 190.152 182.267 187.862L182.061 186.717C181.813 185.337 179.64 186.123 179.31 186.979L178.746 188.358H182.377C182.996 175.197 183.848 161.911 183.821 148.736C183.821 147.356 181.469 147.784 181.291 148.943" fill="black"/>
<path d="M184.742 147.315L184.591 147.025C184.591 147.48 184.591 147.936 184.591 148.405C185.004 147.825 188.084 150.391 188.194 150.516C188.938 151.437 189.494 152.496 189.831 153.633C190.739 156.11 190.92 158.796 190.353 161.373C190.081 162.452 189.539 163.444 188.779 164.255C188.019 165.067 187.065 165.67 186.008 166.009C183.326 166.795 181.428 165.222 178.898 165.098C177.605 165.029 175.79 166.298 176.78 167.719C179.214 171.168 185.279 170.547 188.51 168.588C190.189 167.602 191.6 166.216 192.619 164.554C193.638 162.891 194.234 161.003 194.355 159.055C194.589 154.834 193.269 149.536 189.638 146.998C187.465 145.494 182.68 144.445 181.497 147.701C181.423 147.933 181.425 148.182 181.501 148.413C181.578 148.643 181.726 148.843 181.923 148.984L182.157 149.205C183.271 150.253 185.513 148.722 184.756 147.315" fill="black"/>
<path d="M199.388 148.832C197.641 158.49 197.476 168.878 197.023 178.687L200.571 178.301C200.54 173.354 200.821 168.41 201.409 163.498C201.698 161.18 202.193 149.605 205.783 149.329L204.256 148.777C207.845 154.02 206.511 160.669 200.749 163.608L203.692 164.243C203.6 164.334 203.527 164.444 203.48 164.566C203.433 164.687 203.412 164.818 203.418 164.948C203.424 165.078 203.458 165.206 203.518 165.322C203.577 165.438 203.66 165.541 203.761 165.622C204.113 166.237 204.417 166.878 204.669 167.54C205.15 168.575 205.604 169.637 206.044 170.685C207.061 173.003 208.07 175.303 209.069 177.584C209.963 179.667 213.91 178.204 212.989 176.204C211.448 172.851 209.977 169.499 208.464 166.147C207.667 164.367 206.938 162.201 204.999 161.401C202.413 160.325 198.632 162.491 199.856 165.54C200.351 166.767 201.822 166.685 202.798 166.174C204.887 165.149 206.669 163.588 207.963 161.65C209.257 159.712 210.019 157.465 210.169 155.137C210.279 152.047 208.794 145.314 204.545 146.542C199.897 147.922 199.457 154.296 198.769 158.159C197.587 164.937 196.994 171.806 196.995 178.687C196.995 180.715 200.392 180.067 200.543 178.301C200.956 173.348 201.176 168.368 201.492 163.415C201.964 158.491 202.161 153.544 202.083 148.598C202.001 147.067 199.58 147.577 199.333 148.832" fill="black"/>
<path d="M215.037 149.633C217.499 150.488 219.933 151.329 222.436 152.102L221.638 150.584C219.245 160.131 216.889 169.692 214.569 179.267C214.212 180.715 215.738 181.239 216.88 180.908C219.629 180.151 222.509 179.995 225.323 180.453C227.359 180.715 228.679 177.887 226.272 177.377C222.809 176.709 219.233 176.928 215.876 178.011L218.131 179.653C220.414 170.092 222.697 160.531 224.911 150.957C224.96 150.807 224.978 150.648 224.965 150.491C224.952 150.333 224.907 150.18 224.834 150.04C224.761 149.9 224.661 149.775 224.54 149.675C224.418 149.574 224.278 149.499 224.127 149.453C221.459 148.791 218.819 148.225 216.123 147.66C215.037 147.425 213.497 149.108 214.982 149.633" fill="black"/>
<path d="M230.797 149.026C229.023 152.088 229.284 156.462 228.954 159.924C228.542 164.312 228.139 168.703 227.744 173.1C227.662 174.107 228.858 174.479 229.628 174.479C233.451 174.3 236.999 175.266 240.754 175.362C242.129 175.362 243.834 173.762 242.046 172.879C238.361 171.072 233.644 171.196 229.67 171.334L231.554 172.713C231.966 168.575 232.365 164.367 232.75 160.2C233.066 156.807 234.29 152.13 232.984 148.929C232.612 147.991 231.251 148.405 230.838 149.081" fill="black"/>
<path d="M230.701 164.036C232.159 164.328 233.633 164.53 235.115 164.643C235.569 164.692 236.025 164.593 236.419 164.362C236.813 164.132 237.122 163.78 237.302 163.36C237.577 162.463 236.862 161.87 236.064 161.718C236.944 162.077 237.095 162.104 236.477 161.815L235.693 161.649C235.266 161.58 234.84 161.552 234.4 161.525L231.65 161.359C231.232 161.313 230.81 161.4 230.445 161.608C230.079 161.816 229.789 162.134 229.614 162.518C229.339 163.332 229.986 163.898 230.728 164.036" fill="black"/>
<path d="M231.801 150.612C233.616 150.971 235.445 151.136 237.302 151.316C239.158 151.495 240.685 151.937 242.294 151.247C243.188 150.874 244.37 149.453 243.091 148.681C241.496 147.715 239.722 147.936 237.907 147.922C236.045 147.887 234.183 147.998 232.337 148.253C230.962 148.474 230 150.253 231.829 150.612" fill="black"/>
<path d="M243.174 156.062C245.262 156.611 247.391 156.989 249.541 157.193L248.427 155.11C245.677 159.759 246.447 165.126 246.034 170.285C245.755 173.669 245.198 177.023 244.37 180.315C243.903 182.205 243.779 184.454 241.496 185.102C240.973 185.254 235.459 184.385 235.707 183.833C236.518 181.929 234.331 180.701 232.777 181.791C230.123 183.64 230.838 187.075 233.864 188.165C237.137 189.324 243.49 189.421 245.842 186.427C248.482 183.074 248.895 177.239 249.431 173.141C250.132 167.83 248.853 161.014 251.604 156.227C251.725 156.023 251.791 155.79 251.797 155.552C251.802 155.315 251.746 155.079 251.634 154.87C251.521 154.66 251.357 154.483 251.157 154.356C250.956 154.229 250.727 154.156 250.49 154.144C248.343 153.861 246.177 153.75 244.013 153.813C242.967 153.813 241.634 155.606 243.174 156.048" fill="black"/>
<path d="M260.143 147.508C258.575 153.537 257.613 159.731 256.21 165.802C255.513 168.837 254.766 171.858 253.969 174.866C253.281 177.501 252.14 180.191 252.181 182.936C252.181 184.44 254.464 184.233 255.082 183.268C256.609 180.881 257.076 177.984 257.833 175.266C258.672 172.037 259.442 168.795 260.171 165.608C261.655 159.682 262.713 153.656 263.334 147.577C263.457 145.921 260.583 146.266 260.198 147.577" fill="black"/>
<path d="M261.216 149.357C260.295 155.068 261.574 161.69 262.468 167.361C263.321 172.796 264.104 178.922 266.318 183.916C267.061 185.599 270.444 184.937 270.183 183.005C269.385 177.28 267.432 171.624 266.401 165.898C265.37 160.173 265.37 154.227 263.774 148.832C263.417 147.618 261.381 148.281 261.216 149.301" fill="black"/>
<path d="M256.224 166.74C258.3 169.389 262.44 171.113 265.52 169.099C266.593 168.395 266.62 166.905 265.176 166.698C263.045 166.395 261.051 166.45 259.538 164.67C258.163 163.153 254.835 164.974 256.224 166.74Z" fill="black"/>
<path d="M271.764 148.846C271.285 154.494 271.198 160.169 271.503 165.829C271.668 168.515 271.893 171.201 272.177 173.886C272.411 176.232 272.369 178.425 273.648 180.412C274.281 181.391 276.22 180.826 276.522 179.818C277.224 177.446 276.522 175.1 276.316 172.672C276.027 169.996 275.807 167.319 275.615 164.629C275.243 159.29 274.9 153.937 274.666 148.584C274.666 146.984 271.916 147.439 271.764 148.846Z" fill="black"/>
<path d="M276.852 179.225C280.881 169.858 284.14 160.2 287.441 150.543H284.291C282.531 161.332 283.37 172.244 284.47 183.047C284.677 185.185 287.606 184.55 288.238 183.047C292.488 172.713 296.764 161.704 298.703 150.653C299.102 148.363 295.623 148.405 295.045 150.267C291.649 161.166 288.843 172.037 284.525 182.66H288.293C287.152 171.872 285.955 161.111 287.509 150.295C287.757 148.584 284.759 149.095 284.36 150.295C280.867 159.814 277.278 169.292 274.5 179.06C274.101 180.439 276.412 180.439 276.852 179.363" fill="black"/>
<path d="M302.664 180.646C303.091 176.742 303.613 172.851 304.04 168.947C304.37 165.512 304.988 161.925 304.37 158.503C304.177 157.386 302.156 157.896 301.894 158.71C299.653 165.498 300.519 173.748 300.258 180.784C300.258 182.095 302.582 181.722 302.706 180.591" fill="black"/>
<path d="M302.485 149.467C304.837 149.467 306.24 145.839 303.462 145.839C301.124 145.839 299.708 149.467 302.485 149.467Z" fill="black"/>
<path d="M308.977 179.818C312.632 170.233 315.444 160.345 317.379 150.267L313.955 150.653C316.705 159.345 318.837 168.519 322.357 176.963C323.168 178.908 326.483 177.68 326.043 175.666C323.911 166.781 320.226 158.172 317.393 149.453C316.911 148.005 314.216 148.46 313.955 149.853C312.069 159.881 309.584 169.786 306.515 179.515C306.047 180.964 308.55 180.895 308.977 179.818Z" fill="black"/>
<path d="M310.998 167.83C314.945 167.981 318.864 167.83 322.412 165.967C323.43 165.429 323.498 163.732 322.109 163.705C318.534 163.622 315.041 164.394 311.466 164.491C309.499 164.491 308.715 167.747 310.998 167.83Z" fill="black"/>
<path d="M333.358 140.582C333.716 133.56 343.989 137.74 345.996 141.52C348.747 146.666 342.586 151.109 339.038 153.771C336.287 155.868 332.629 157.91 332.822 162.049C333.056 166.657 338.722 167.43 342.187 168.506C345.199 169.444 347.688 164.919 344.387 163.76C343.328 163.401 339.863 162.904 339.203 162.049C337.759 160.214 340.661 158.793 341.761 157.91C344.291 156.117 346.599 154.029 348.637 151.688C351.841 147.77 353.106 142.555 350.012 138.168C348.583 136.248 346.692 134.724 344.514 133.739C342.337 132.755 339.946 132.342 337.566 132.539C332.905 133.008 329.082 136.457 329.907 141.314C330.195 143.024 333.248 142.031 333.317 140.569" fill="black"/>
<path d="M340.798 175.017C341.142 174.59 341.5 174.162 341.857 173.748C342.279 173.25 342.491 172.607 342.448 171.955C342.402 171.639 342.293 171.336 342.127 171.064C341.962 170.791 341.744 170.555 341.486 170.368C341.257 170.209 341.007 170.083 340.743 169.996C340.268 169.845 339.765 169.802 339.272 169.872C338.434 169.997 337.669 170.418 337.113 171.058C336.668 171.572 336.446 172.242 336.494 172.92C336.56 173.454 336.819 173.945 337.223 174.3C337.584 174.609 338.025 174.809 338.494 174.877C338.964 174.946 339.443 174.88 339.877 174.686C340.289 174.522 340.656 174.262 340.949 173.928C341.165 173.703 341.321 173.428 341.403 173.127C341.871 171.932 341.156 172.511 339.258 174.866H338.598C339.067 174.902 339.538 174.826 339.973 174.645C340.44 174.444 340.855 174.137 341.183 173.748L340.688 174.217C340.72 174.211 340.753 174.211 340.784 174.217C340.564 174.328 340.358 174.452 340.152 174.576H340.317L339.629 174.769H339.739H339.052H339.162L338.529 174.631H338.625L338.062 174.355L337.69 170.989L336.728 172.369C336.319 172.858 336.108 173.483 336.136 174.121C336.172 174.431 336.274 174.729 336.436 174.996C336.597 175.263 336.814 175.491 337.071 175.666C337.652 176.007 338.333 176.133 338.996 176.022C339.66 175.911 340.263 175.57 340.702 175.059" fill="black"/>
<path d="M375.562 75.2578C377.694 72.9952 381.063 75.6027 382.562 77.3134C384.542 79.645 384.556 81.7144 382.218 83.6182C379.014 86.2395 375.535 88.1847 372.867 91.4682C371.052 93.7308 370.034 96.5866 371.794 99.194C373.843 102.243 377.831 102.312 380.486 104.519C383.14 106.727 387.733 103.25 385.739 100.381C384.185 98.0903 382.163 97.7593 379.757 96.8349C378.189 96.2417 377.446 95.814 378.382 94.0067C379.11 92.5305 381.517 90.8888 382.768 89.9369C386.028 87.4674 390.414 85.2738 390.648 80.5831C391.088 71.2569 377.281 65.6695 371.643 73.2987C369.869 75.6993 374.05 76.9685 375.59 75.3268" fill="black"/>
</g>
<defs>
<clipPath id="clip0_0_1618">
<rect width="393" height="190" fill="white"/>
</clipPath>
</defs>
</svg>
