<svg width="194" height="95" viewBox="0 0 194 95" fill="none" xmlns="http://www.w3.org/2000/svg">
<path d="M193.233 0H0V94.9097H193.233V0Z" fill="#1A171B"/>
<path d="M38.3281 63.1532L38.0291 29.1784C38.0291 25.3812 38.0291 21.584 38.1487 17.8068L40.6002 16.2879C42.3342 16.4078 44.3274 21.0644 46.5796 30.2776C48.4 37.8053 49.855 44.5736 50.9445 50.5825C52.0607 56.5781 52.6785 59.8357 52.7981 60.3353C53.1968 58.4567 53.9408 55.0792 55.0304 50.2028C56.12 45.3264 56.9305 41.5492 57.462 38.8712C58.9215 31.9729 59.9005 24.9812 60.3919 17.9467V17.4271C60.4446 17.071 60.5668 16.7289 60.7515 16.4203C60.9362 16.1117 61.1797 15.8426 61.4682 15.6284C61.9981 15.1935 62.6572 14.9474 63.3418 14.9289C63.6479 14.9163 63.9528 14.9747 64.2328 15.0995C64.5128 15.2243 64.7603 15.4121 64.9562 15.6484C65.3481 16.0569 65.5692 16.6004 65.574 17.1673C65.574 24.1887 65.8398 34.6943 66.3713 48.6839C66.9028 62.6736 67.1619 73.1924 67.1486 80.2405C67.1804 81.5423 66.7886 82.8191 66.0325 83.8779C65.2884 84.9171 64.5708 85.4367 63.8799 85.4367C62.4648 85.4367 61.7472 84.2776 61.7472 81.9593L61.4084 44.9467V40.43C61.0098 42.7083 60.1062 46.6654 58.6978 52.3012C57.5822 56.5829 56.6841 60.9186 56.0071 65.2916V65.8512C56.0071 66.091 55.8675 66.6306 55.7479 67.49C55.6284 68.3494 55.5088 69.0488 55.3892 69.6084C55.2407 70.2474 55.0475 70.8752 54.8112 71.487C54.6358 72.0655 54.2796 72.5721 53.7951 72.932C53.3106 73.2919 52.7234 73.4859 52.1205 73.4856C50.1273 73.4856 48.9913 70.7476 48.9913 65.2716C48.6006 57.5681 47.2617 49.9426 45.005 42.5685C43.6896 37.6921 42.8524 34.4145 42.4737 32.6958C42.4538 37.4522 42.4538 40.9896 42.4538 43.3479L43.1713 79.5011C43.1876 80.7379 42.7147 81.9307 41.8559 82.8186C41.2589 82.8926 40.6533 82.7947 40.1098 82.5364C39.5662 82.278 39.1073 81.8699 38.7865 81.3597C38.2003 80.1123 37.9267 78.7402 37.9892 77.3627L38.3281 63.1532ZM73.108 69.1488C72.5614 64.8729 72.2619 60.5689 72.2111 56.2583V52.9008C72.2111 52.621 72.1713 52.4811 72.0916 52.4811V50.8823C71.8484 44.288 72.3769 37.6878 73.6661 31.2169C74.0828 29.0561 74.9598 27.011 76.2372 25.2213C76.8792 24.5385 77.755 24.1244 78.6888 24.0622C85.4654 24.0622 90.116 27.4996 92.6407 34.3745C94.2505 39.0642 95.0066 44.0058 94.873 48.9637V49.6232L95.0523 59.6158C95.0523 76.4833 91.1524 84.9104 83.3527 84.8971C80.1238 84.8971 77.6524 83.1118 75.9383 79.5411C74.3961 76.3501 73.3861 72.9272 72.9486 69.4086L73.108 69.1488ZM77.3933 44.2672L76.9548 52.2613C76.8413 59.7253 77.5094 67.1806 78.9479 74.5048C80.4029 78.202 81.7981 80.3804 83.1135 81.04C83.6548 81.0302 84.1885 80.91 84.6819 80.6867C85.1754 80.4633 85.6183 80.1415 85.9836 79.7409C86.9031 78.7565 87.5849 77.5737 87.9767 76.2835C88.4893 74.7922 88.9086 73.2704 89.2324 71.7268C89.5513 70.148 89.7905 68.4493 89.9699 66.6506C90.2489 63.5329 90.3884 60.8749 90.3884 58.6565C90.3884 56.4382 90.209 53.0807 89.8104 48.524C89.4118 43.9674 89.2324 40.53 89.2324 38.3516V36.8127C89.2229 34.7317 88.5215 32.7133 87.2393 31.077C86.6425 30.2787 85.865 29.6341 84.9709 29.1963C84.0769 28.7584 83.0918 28.54 82.097 28.5588C81.1357 28.5479 80.2028 28.8858 79.4703 29.5101C78.7378 30.1344 78.2549 31.0032 78.1108 31.9563C77.5213 34.2396 77.2464 36.5931 77.2936 38.9511L77.3933 44.2672ZM124.172 27.5995C123.981 27.1226 123.88 26.6145 123.873 26.1006C123.873 24.6617 124.69 23.9422 126.324 23.9422C127.979 23.9422 128.796 24.6417 128.796 25.9408C128.841 27.1442 128.768 28.3492 128.577 29.5381V30.0177C127.759 32.6023 127.356 35.3005 127.381 38.0118V44.4471C127.243 49.9843 126.79 55.5092 126.025 60.9948C125.294 66.2963 124.848 71.6334 124.69 76.983C124.69 82.9385 123.561 85.9163 121.302 85.9163C119.608 85.9163 118.771 84.6573 118.771 82.1591C118.771 79.661 118.771 77.1228 118.511 74.5847C118.252 72.0466 118.073 69.2287 117.674 66.171C117.276 63.1132 116.957 60.5751 116.678 58.5966C116.399 56.618 115.96 53.7602 115.402 50.0429C114.844 46.3257 114.445 43.8275 114.246 42.5085C114.03 44.4595 113.923 46.4211 113.927 48.3841C113.927 50.3827 113.708 54.0999 113.269 59.5759C112.809 65.1904 112.037 70.7749 110.957 76.3035C109.868 81.9659 108.619 84.7972 107.21 84.7972C104.965 84.7972 103.264 78.655 102.108 66.3708C101.616 61.108 101.165 55.8186 100.753 50.5026C99.6897 37.0192 98.7728 29.3716 98.0022 27.5596C98.2145 27.0728 98.5717 26.6637 99.0248 26.3882C99.4779 26.1128 100.005 25.9844 100.533 26.0207C102.527 26.0207 103.364 28.1391 103.364 32.396C103.568 38.9099 104.181 45.4046 105.197 51.8416C106.433 60.5551 107.097 66.9171 107.19 70.9274C109.302 58.1025 110.547 45.1493 110.918 32.1562L113.289 31.1169C113.944 31.1092 114.584 31.3047 115.123 31.6765C115.376 31.8566 115.579 32.0973 115.715 32.3766C115.851 32.6559 115.914 32.9649 115.9 33.2753V33.9948C117.979 42.0282 119.314 50.2371 119.887 58.5166C120.338 63.4197 120.77 67.2102 121.182 69.8882C122.346 60.2473 122.886 50.5407 122.797 40.8297C122.863 38.6112 123.089 36.4004 123.474 34.2146C123.844 32.0272 124.063 29.817 124.132 27.5995H124.172ZM151.438 65.2117L152.394 70.6277C152.551 72.3906 152.83 74.1403 153.232 75.8638C153.649 77.6584 153.929 79.4823 154.069 81.3197V81.3197C154.13 81.8382 154.022 82.3627 153.759 82.8136C153.497 83.2645 153.094 83.6171 152.614 83.8179C151.621 83.8724 150.632 83.6657 149.744 83.2183C149.377 82.9632 149.086 82.6124 148.904 82.2039C148.721 81.7953 148.653 81.3445 148.707 80.9001C148.582 77.247 148.156 73.6105 147.432 70.0281L138.781 68.7291C138.205 70.8333 137.785 72.9776 137.526 75.1443C137.346 76.8435 137.073 78.5315 136.709 80.2006C136.21 82.379 135.254 83.4582 133.839 83.4582C133.118 83.4783 132.413 83.245 131.845 82.7986C131.569 82.6116 131.344 82.3581 131.191 82.0613C131.038 81.7646 130.961 81.434 130.968 81.0999L131.188 80.3405C135.052 65.698 138.034 50.8354 140.117 35.8334C140.117 35.4337 140.256 34.2746 140.376 32.316C140.655 28.0192 141.193 25.3012 142.01 24.1221H144.96C145.697 24.1027 146.424 24.297 147.053 24.6817C147.341 24.8527 147.577 25.0996 147.735 25.3956C147.893 25.6915 147.967 26.0252 147.95 26.3605C148.137 33.0122 148.73 39.6463 149.724 46.2257C150.66 52.5151 151.219 58.8552 151.398 65.2117H151.438ZM139.12 65.5514C141.587 66.529 144.221 67.0111 146.874 66.9704C146.656 65.4887 146.569 63.9907 146.614 62.4937C146.614 60.3553 146.495 57.6972 146.236 54.4996C145.977 51.302 145.658 47.6647 145.199 43.4678C144.741 39.2709 144.422 36.2331 144.263 34.3345C141.605 49.0836 139.891 59.4759 139.12 65.5114V65.5514Z" fill="white"/>
</svg>
