<svg width="292" height="108" viewBox="0 0 292 108" fill="none" xmlns="http://www.w3.org/2000/svg">
<path d="M291.999 0.0599365H0.146484V108H291.999V0.0599365Z" fill="#1A171B"/>
<path d="M16.5098 52.4012L17.028 35.9933C16.9895 34.7297 17.2622 33.476 17.8219 32.3431C18.3816 31.2102 19.211 30.2331 20.2369 29.4981V30.0577C20.4262 29.9317 20.6475 29.8624 20.8747 29.8579C22.2035 29.8579 23.9175 32.2228 26.017 36.9526C28.1911 42.035 30.0483 47.2478 31.5778 52.561C33.2254 58.2368 34.8731 63.9526 36.5207 69.7084C38.175 75.4841 39.1915 78.8616 39.5901 79.8808C40.786 67.5966 41.3839 52.7076 41.3839 35.2139L41.2644 32.8556C41.2644 31.1169 41.9819 30.2376 43.4369 30.2376C43.8154 30.2141 44.1927 30.2995 44.5246 30.4835C44.8565 30.6676 45.1291 30.9428 45.3104 31.2768C45.7285 32.0056 45.942 32.8344 45.9283 33.675V40.3301C45.9283 47.2183 45.6226 56.4248 45.0114 67.9496C44.4533 79.4811 43.696 85.9363 42.7592 87.4752C41.6832 87.8504 40.5653 88.092 39.4307 88.1947C39.1629 88.2096 38.8954 88.1613 38.6496 88.0537C38.4038 87.9461 38.1867 87.7822 38.0156 87.5751C37.6117 86.975 37.3462 86.2924 37.2382 85.5766C37.1217 84.9881 36.9482 84.4125 36.72 83.8579V83.4582C36.72 81.2998 34.6206 74.3915 30.4218 62.7335C26.2229 51.0755 23.1867 43.0814 21.3132 38.7513V83.1784C21.4152 83.3842 21.5283 83.5844 21.652 83.7779C21.9874 84.3055 22.1798 84.9117 22.2101 85.5366C22.1648 86.1598 21.8787 86.7405 21.4128 87.1554C21.1783 87.4145 20.8922 87.6214 20.5728 87.7625C20.2535 87.9037 19.9082 87.976 19.5592 87.9748C17.5661 87.9748 16.6891 86.1961 16.6891 82.6188L16.5098 52.4012ZM61.4547 58.7365L61.8732 77.4226V80.0407V82.4989H63.0293H65.5605C67.9523 82.4989 69.1481 83.2383 69.1481 84.6972C69.1639 85.0754 69.093 85.4521 68.941 85.7986C68.789 86.145 68.5598 86.4519 68.2712 86.6958C67.7349 87.2107 67.0205 87.4972 66.278 87.4952H62.3516C60.6731 87.4733 58.9967 87.3665 57.3289 87.1754H56.2526C54.2595 87.1754 53.1234 86.5159 53.1234 85.1769C53.1305 84.6221 53.3118 84.0836 53.6416 83.638C53.7483 83.441 53.8962 83.2694 54.075 83.1349C54.2539 83.0004 54.4596 82.9061 54.6781 82.8586H57.1495L57.3289 81.6995L56.731 63.0133L57.2093 43.4478C57.2093 40.0903 57.0499 36.9526 56.7709 33.9948H55.0966H53.1035C52.4072 34.0281 51.7158 33.8617 51.1104 33.5152C50.8463 33.2851 50.6427 32.9934 50.5176 32.6657C50.3924 32.3381 50.3496 31.9847 50.3928 31.6365C50.3928 30.2975 51.8279 29.638 54.7179 29.638H65.1619C67.5337 29.638 68.7097 30.2576 68.7097 31.4967C68.6995 31.7866 68.6265 32.0709 68.4957 32.3298C68.3649 32.5886 68.1795 32.8158 67.9523 32.9955C67.4752 33.4377 66.8479 33.6807 66.1983 33.675H61.5743C61.7935 36.0933 61.9131 38.8112 61.9131 41.829L61.4547 58.7365ZM74.2904 43.5877L73.812 36.1532C73.812 32.0163 75.0279 29.9378 77.4993 29.9378C79.676 30.0341 81.8321 30.4033 83.9172 31.037C86.6278 31.7565 87.9034 32.6958 87.9034 33.8349C87.9034 34.9741 87.0464 35.9534 85.3323 36.5929C83.1817 35.8115 80.9581 35.2491 78.6952 34.9141C78.6952 36.1732 78.8347 37.4323 78.8347 38.6913L78.4361 51.322C78.4361 51.322 78.4361 51.8416 78.6952 52.7009L81.8244 52.561C84.6546 52.561 86.0697 53.3605 86.0697 54.9593C86.0695 55.276 85.9997 55.5888 85.8654 55.8755C85.7311 56.1622 85.5354 56.4157 85.2924 56.618C85.0241 56.8641 84.7098 57.0544 84.3677 57.1779C84.0256 57.3014 83.6625 57.3556 83.2993 57.3375C82.4459 57.3324 81.5938 57.2723 80.7481 57.1576H78.6553C78.8148 59.396 78.9144 61.6143 78.9144 63.8127L78.5158 79.8009C78.4163 81.4483 78.4764 83.1015 78.6952 84.7372L85.1529 84.5174C87.3852 84.5174 88.5014 85.2368 88.5014 86.6758C88.5388 87.0879 88.4476 87.5015 88.2405 87.8595C88.0335 88.2175 87.7207 88.5022 87.3454 88.6743C86.5354 89.0807 85.64 89.2863 84.7344 89.2739H77.2602C76.5236 89.2463 75.8193 88.9639 75.267 88.4744C74.9642 88.2357 74.7177 87.9327 74.5454 87.5871C74.3731 87.2416 74.2792 86.8621 74.2705 86.4759V84.1576L73.6725 69.1887L74.2904 43.5877ZM92.8065 52.4012L93.3247 35.9933C93.2897 34.7302 93.564 33.4777 94.1234 32.3454C94.6828 31.2132 95.5103 30.2356 96.5336 29.4981V30.0577C96.723 29.9317 96.9442 29.8624 97.1714 29.8579C98.5002 29.8579 100.214 32.2228 102.314 36.9526C104.488 42.035 106.345 47.2478 107.875 52.561C109.522 58.2368 111.17 63.9526 112.817 69.7084C114.472 75.4841 115.488 78.8616 115.887 79.8808C117.069 67.5966 117.654 52.7209 117.641 35.2539L117.521 32.8956C117.521 31.1569 118.239 30.2776 119.694 30.2776C120.072 30.2541 120.45 30.3394 120.781 30.5235C121.113 30.7076 121.386 30.9828 121.567 31.3168C121.985 32.0456 122.199 32.8743 122.185 33.715V40.3701C122.185 47.2583 121.88 56.4648 121.268 67.9896C120.71 79.5211 119.953 85.9763 119.016 87.5152C117.94 87.8903 116.822 88.132 115.688 88.2346C115.42 88.2496 115.152 88.2013 114.906 88.0937C114.661 87.9861 114.444 87.8222 114.272 87.6151C113.869 87.015 113.603 86.3323 113.495 85.6166C113.379 85.0281 113.205 84.4525 112.977 83.8978V83.4981C112.977 81.3397 110.877 74.4315 106.679 62.7735C102.48 51.1155 99.4436 43.1214 97.5701 38.7913V83.1784L97.9089 83.7779C98.2443 84.3055 98.4366 84.9117 98.467 85.5366C98.4488 85.8462 98.3689 86.149 98.232 86.427C98.095 86.7051 97.9038 86.9528 97.6697 87.1554C97.4368 87.4165 97.151 87.6247 96.8313 87.7661C96.5116 87.9074 96.1655 87.9786 95.8161 87.9748C93.823 87.9748 92.946 86.1961 92.946 82.6188L92.8065 52.4012ZM147.677 70.128L148.614 75.544C148.771 77.3068 149.051 79.0564 149.451 80.7802C149.867 82.5683 150.146 84.3855 150.288 86.2161C150.356 86.7327 150.249 87.257 149.986 87.706C149.722 88.1549 149.316 88.5028 148.833 88.6943C147.841 88.7488 146.851 88.5421 145.963 88.0947C145.598 87.8387 145.31 87.4871 145.131 87.0783C144.952 86.6695 144.888 86.2192 144.947 85.7765C144.812 82.1297 144.378 78.5002 143.651 74.9245L135.001 73.6254C134.431 75.7234 134.018 77.8611 133.765 80.0207C133.466 82.339 133.207 84.0177 132.948 85.0969C132.43 87.2753 131.473 88.3545 130.078 88.3545C129.358 88.3681 128.655 88.1355 128.085 87.695C127.809 87.508 127.584 87.2545 127.43 86.9577C127.277 86.6609 127.201 86.3304 127.208 85.9963L127.427 85.2169C131.259 70.5544 134.194 55.6711 136.217 40.6499C136.217 40.2502 136.356 39.091 136.456 37.1325C136.419 34.3162 136.976 31.5239 138.09 28.9385H141.04C141.783 28.9241 142.514 29.1179 143.153 29.4981C143.441 29.6642 143.677 29.9072 143.836 30.2001C143.994 30.493 144.068 30.8243 144.05 31.1569C144.222 37.8494 144.814 44.5243 145.824 51.1421C146.811 57.429 147.43 63.7685 147.677 70.128ZM135.34 70.4678C137.807 71.4429 140.441 71.9249 143.093 71.8867C142.885 70.3974 142.799 68.8935 142.834 67.3901C142.834 65.2716 142.714 62.6136 142.475 59.396C142.236 56.1784 141.877 52.561 141.419 48.3642C140.96 44.1673 140.661 41.1295 140.482 39.2309C137.825 53.98 136.11 64.3723 135.34 70.4078V70.4678ZM178.192 32.4959C178.001 32.019 177.9 31.5108 177.893 30.997C177.893 29.5581 178.73 28.8386 180.364 28.8386C181.999 28.8386 182.836 29.5381 182.836 30.8371C182.881 32.0472 182.807 33.2588 182.617 34.4545V34.9141C181.802 37.4994 181.399 40.1971 181.421 42.9082V49.3634C181.272 54.9001 180.82 60.4244 180.065 65.9112C179.33 71.2126 178.878 76.5495 178.71 81.8993C178.71 87.8549 177.587 90.8327 175.342 90.8327C173.648 90.8327 172.81 89.5736 172.81 87.0755C172.81 84.5773 172.711 82.0392 172.551 79.5011C172.392 76.963 172.093 74.1451 171.714 71.0873C171.336 68.0296 170.997 65.4915 170.718 63.493C170.439 61.4944 170 58.6565 169.422 54.9593C168.844 51.262 168.465 48.7439 168.266 47.4249C168.066 49.377 167.966 51.3381 167.967 53.3005C167.967 55.299 167.748 58.9963 167.309 64.4922C166.839 70.1056 166.067 75.6896 164.997 81.2198C163.895 86.869 162.646 89.7002 161.25 89.7135C158.998 89.7135 157.264 83.5381 156.148 71.2872C155.63 66.0377 155.171 60.7084 154.773 55.299C153.75 41.6824 152.853 34.0015 152.082 32.2561C152.291 31.7656 152.647 31.3522 153.1 31.073C153.554 30.7938 154.082 30.6625 154.613 30.6972C156.487 30.6972 157.424 32.8357 157.424 37.0725C157.627 43.594 158.246 50.0958 159.277 56.5381C160.493 65.2516 161.27 71.6069 161.27 75.624C163.381 62.799 164.627 49.8458 164.997 36.8527L167.349 35.8135C168.006 35.7901 168.651 35.987 169.183 36.373C169.434 36.55 169.637 36.7873 169.772 37.0631C169.908 37.3389 169.973 37.6445 169.96 37.9519V38.6913C172.031 46.7265 173.365 54.9345 173.947 63.2132C174.405 68.1095 174.823 71.8867 175.222 74.5847C176.403 64.9451 176.949 55.2379 176.857 45.5263C176.924 43.3087 177.144 41.0985 177.514 38.9112C177.884 36.7237 178.103 34.5136 178.172 32.2961L178.192 32.4959ZM197.386 58.7165L197.804 77.4026V80.0207V82.4789H198.841H201.372C203.764 82.4789 204.96 83.2183 204.96 84.6773C204.975 85.0554 204.904 85.4321 204.752 85.7786C204.6 86.125 204.371 86.4319 204.083 86.6758C203.546 87.1907 202.832 87.4773 202.089 87.4752H198.243C196.54 87.5086 194.837 87.4552 193.14 87.3153H192.064C190.071 87.3153 188.935 86.6558 188.935 85.3168C188.942 84.7619 189.123 84.2235 189.453 83.7779C189.56 83.5809 189.708 83.4093 189.886 83.2748C190.065 83.1403 190.271 83.0461 190.489 82.9985H192.961L193.14 81.8394L192.542 63.1532L193.021 43.5877C193.021 40.2302 192.861 37.0925 192.582 34.1347H190.868H188.875C188.179 34.168 187.487 34.0016 186.882 33.6551C186.618 33.425 186.414 33.1332 186.289 32.8056C186.164 32.478 186.121 32.1246 186.164 31.7764C186.164 30.4374 187.599 29.7779 190.489 29.7779H200.933C203.305 29.7779 204.481 30.3975 204.481 31.6365C204.471 31.9265 204.398 32.2108 204.267 32.4697C204.136 32.7285 203.951 32.9557 203.724 33.1354C203.247 33.5776 202.619 33.8206 201.97 33.8149H197.465C197.685 36.2332 197.804 38.9511 197.804 41.9689L197.386 58.7165ZM209.604 84.2776L213.251 84.9171C213.815 84.9133 214.371 84.7798 214.875 84.5268C215.38 84.2739 215.819 83.9083 216.161 83.4582C217.035 82.3877 217.667 81.1399 218.014 79.8009C218.721 77.3838 219.11 74.8844 219.17 72.3664C219.168 70.1765 218.804 68.0021 218.094 65.9311C217.408 63.8859 216.527 61.9115 215.463 60.0355C214.407 58.2169 213.371 56.3582 212.354 54.4796C210.03 50.4817 208.761 45.9558 208.667 41.3294C208.62 38.9298 209.075 36.5471 210.002 34.3345C211.663 30.564 213.862 28.6787 216.599 28.6787C217.654 28.6885 218.679 29.0312 219.529 29.658C219.917 29.8752 220.246 30.1831 220.489 30.5554C220.732 30.9278 220.881 31.3536 220.924 31.7964C220.924 33.1554 220.207 33.795 218.772 33.795C218.128 33.7919 217.495 33.6196 216.938 33.2953C215.085 33.2953 213.829 35.4537 213.171 39.5107C213.018 40.5427 212.945 41.5851 212.952 42.6284C213.005 44.1232 213.266 45.6032 213.729 47.0252C214.204 48.6522 214.873 50.2158 215.722 51.6817C216.52 53.0407 217.357 54.5396 218.254 56.1984C219.151 57.8571 220.008 59.436 220.805 60.9748C222.693 64.7888 223.617 69.0096 223.496 73.2657C223.532 76.8055 222.697 80.2997 221.064 83.4382C220.291 85.0435 219.117 86.4206 217.656 87.4352C216.174 88.4463 214.425 88.9892 212.633 88.9941V89.1739C210.221 88.8342 208.906 87.695 208.647 85.7765L209.604 84.2776ZM212.015 23.9423C211.88 23.8528 211.769 23.7311 211.693 23.5881C211.616 23.445 211.576 23.2852 211.577 23.1228C211.577 22.8231 211.995 22.2835 212.793 21.524C213.59 20.7646 215.463 19.1458 218.333 16.6876C221.203 14.2295 222.937 12.6906 223.535 12.191C223.908 12.065 224.299 12.0042 224.691 12.0111C225.11 12.0111 225.628 12.3708 226.226 13.1103C226.763 13.6894 227.081 14.4391 227.123 15.2287C227.151 15.5064 227.107 15.7866 226.996 16.0423C226.884 16.2979 226.708 16.5202 226.485 16.6876C222.392 19.4302 218.132 21.9132 213.729 24.1221C213.474 24.2404 213.193 24.2952 212.912 24.282C212.584 24.2895 212.265 24.1757 212.015 23.9622V23.9423ZM233.401 87.3753C229.508 84.8438 227.568 77.9556 227.581 66.7106V61.5544V59.5559C227.37 53.5311 227.804 47.501 228.877 41.5692C229.415 38.3155 230.907 35.296 233.162 32.8956C235.757 30.6149 239.122 29.4139 242.57 29.5381C243.291 29.4902 244.003 29.7188 244.563 30.1776C244.783 30.3715 244.958 30.6117 245.075 30.8812C245.192 31.1506 245.249 31.4427 245.241 31.7365C245.248 32.3154 245.058 32.8795 244.702 33.3353C244.548 33.5556 244.346 33.7382 244.111 33.8696C243.876 34.0011 243.615 34.078 243.347 34.0947H239.241C238.559 34.159 237.906 34.4089 237.355 34.8174C236.804 35.226 236.374 35.7776 236.112 36.413C235.183 38.1826 234.55 40.0933 234.238 42.0688C233.556 45.5387 233.196 49.0645 233.162 52.601V53.0207L232.764 69.9881C232.669 72.4804 232.863 74.9752 233.342 77.4226C233.652 78.561 234.059 79.6708 234.557 80.7402C234.923 81.4914 235.423 82.1688 236.032 82.7387C236.706 83.3736 237.499 83.8682 238.364 84.1941C239.23 84.52 240.151 84.6706 241.075 84.6373C241.783 84.6314 242.461 84.3522 242.968 83.8579C243.612 83.8481 244.246 84.0139 244.802 84.3375C245.061 84.4795 245.275 84.6915 245.419 84.9495C245.564 85.2074 245.633 85.5009 245.619 85.7964C245.619 88.1147 244.005 89.2739 240.776 89.2739C239.382 89.2597 237.995 89.0649 236.65 88.6943C235.52 88.4308 234.432 88.0068 233.421 87.4352L233.401 87.3753ZM259.471 58.7165L259.89 77.4026V80.0207V82.4789H261.046H263.577C265.969 82.4789 267.165 83.2183 267.165 84.6773C267.185 85.056 267.117 85.4342 266.964 85.7814C266.812 86.1286 266.58 86.435 266.288 86.6758C265.752 87.1907 265.037 87.4773 264.295 87.4752H260.448C258.746 87.5086 257.043 87.4552 255.346 87.3153H254.269C252.197 87.3153 251.16 86.6491 251.16 85.3168C251.16 84.7639 251.334 84.2253 251.658 83.7779C251.767 83.5825 251.916 83.4122 252.094 83.2779C252.273 83.1436 252.477 83.0485 252.695 82.9985H255.186L255.346 81.8394L254.748 63.1532L255.226 43.5877C255.238 40.4313 255.092 37.2763 254.788 34.1347H253.113H251.12C250.424 34.1703 249.732 34.0037 249.127 33.6551C248.857 33.4294 248.647 33.1389 248.518 32.8105C248.389 32.4821 248.345 32.1265 248.39 31.7764C248.39 30.4374 249.825 29.7779 252.715 29.7779H263.159C265.531 29.7779 266.726 30.3975 266.726 31.6365C266.714 31.9281 266.638 32.2134 266.503 32.4724C266.369 32.7314 266.18 32.9577 265.949 33.1354C265.472 33.5776 264.845 33.8206 264.195 33.8149H259.691C259.93 36.2332 260.03 38.9511 260.03 41.9689L259.471 58.7165ZM277.609 80.3605C277.193 80.3683 276.781 80.2868 276.399 80.1213C276.017 79.9558 275.676 79.7103 275.397 79.4012C274.853 78.7925 274.561 77.9995 274.579 77.1828C274.597 76.3151 274.955 75.4892 275.576 74.8845C275.863 74.5659 276.214 74.3107 276.605 74.1353C276.996 73.9598 277.42 73.8678 277.848 73.8653C278.266 73.8623 278.679 73.9522 279.058 74.1285C279.437 74.3047 279.773 74.5629 280.04 74.8845C280.646 75.5353 280.981 76.3929 280.977 77.2827C280.986 77.7035 280.9 78.1208 280.728 78.5044C280.556 78.8881 280.3 79.2285 279.981 79.5011C279.336 80.0957 278.484 80.4116 277.609 80.3804V80.3605ZM278.566 47.205C278.149 47.2169 277.735 47.1371 277.353 46.9714C276.971 46.8057 276.63 46.558 276.353 46.2457C275.808 45.637 275.509 44.8457 275.516 44.0274C275.533 43.1634 275.883 42.3395 276.493 41.7291C276.772 41.4044 277.118 41.1436 277.506 40.9643C277.895 40.785 278.317 40.6914 278.745 40.6898C279.162 40.691 279.574 40.7827 279.952 40.9587C280.331 41.1346 280.667 41.3906 280.937 41.7091C281.553 42.3545 281.896 43.214 281.894 44.1073C281.902 44.528 281.817 44.9453 281.645 45.329C281.473 45.7127 281.217 46.0531 280.898 46.3257C280.263 46.9104 279.427 47.2257 278.566 47.205Z" fill="white"/>
</svg>
