<svg width="40" height="37" viewBox="0 0 40 37" fill="none" xmlns="http://www.w3.org/2000/svg">
<path d="M37.5645 15.4119C37.7861 16.7361 37.8874 18.0773 37.8671 19.4194C37.8661 20.4076 37.9166 21.3952 38.0185 22.3782C38.2625 24.6857 38.3509 27.0067 38.2833 29.3258L29.1853 30.5618C29.1853 29.9064 29.1853 29.1011 29.3555 28.146C29.7025 25.1596 29.7025 22.1437 29.3555 19.1573V18.4082C29.3434 17.9873 29.2992 17.5678 29.2231 17.1535C29.1835 16.8598 29.094 16.5749 28.9583 16.3108C28.9155 16.2345 28.8836 16.1525 28.8637 16.0674H29.1096C31.9117 15.5258 34.7693 15.3183 37.6212 15.4494L37.5645 15.4119ZM4.59604 33.1835C4.59604 33.1835 4.59606 33.0899 4.72846 32.9213C4.96482 32.8524 5.20476 32.7962 5.44723 32.7528C6.92259 32.4344 7.81154 32.2472 7.77371 31.5543C7.73588 30.8614 7.16845 30.7678 5.06891 30.5618C4.63821 30.5668 4.21287 30.4669 3.83029 30.271C3.4477 30.0751 3.11957 29.7891 2.87479 29.4382C2.78722 29.1947 2.76738 28.9324 2.8173 28.6787C2.86721 28.4251 2.98503 28.1893 3.1585 27.9962C3.68811 27.2097 4.53929 27.191 5.65527 27.2285C6.77124 27.2659 7.54678 27.2284 7.75484 26.1985V26.0299V25.8801C7.28197 25.0562 5.86333 25.1311 4.2934 25.206C3.70796 25.252 3.11978 25.252 2.53434 25.206C2.27 24.8641 2.09821 24.461 2.03532 24.0349C1.97243 23.6089 2.0205 23.174 2.17495 22.7715C3.07694 22.3868 4.049 22.1893 5.0311 22.191C6.69561 22.0412 8.11419 21.8914 8.49249 20.955V20.749V20.543C7.98179 19.5318 6.84691 19.7191 5.84443 19.9063C5.07929 20.1377 4.25665 20.098 3.51789 19.794C3.29474 19.6914 3.09945 19.5376 2.94816 19.3455C2.79687 19.1534 2.69393 18.9284 2.64782 18.6891C2.66441 18.3427 2.75977 18.0045 2.9268 17.6997C3.09383 17.3949 3.32824 17.1314 3.61249 16.9288C4.8987 15.7678 8.05743 15.4494 10.365 15.206C12.2565 15.0187 13.1266 14.9251 13.486 14.5131L13.6184 14.3633V14.1573C13.6184 12.9775 12.3322 12.9775 11.7269 12.9962H11.4811C8.58709 7.77151 9.26799 3.63294 10.384 2.2659C10.5161 2.06849 10.7188 1.92795 10.9514 1.87263C11.577 2.56622 12.019 3.40272 12.2376 4.30709C12.6625 5.77414 13.3846 7.14012 14.3602 8.32172C15.3358 9.50333 16.5444 10.4758 17.9121 11.1797C18.8475 11.5688 19.6925 12.1434 20.3951 12.868C21.0977 13.5927 21.6432 14.452 21.9977 15.3932C22.1073 15.8823 22.3534 16.3311 22.7078 16.6886C23.0622 17.0461 23.5108 17.298 24.0026 17.4157L25.024 17.6404C25.7049 17.7902 26.4048 17.9588 26.9155 18.1273L27.3695 29.2509C27.0292 29.2691 26.6883 29.2691 26.348 29.2509C25.6713 29.1122 24.9702 29.1441 24.3092 29.3437C23.6482 29.5433 23.0484 29.9042 22.5651 30.3932L22.0733 30.9738C21.4403 31.9266 20.5395 32.6752 19.482 33.1273C15.7558 33.9215 11.9372 34.205 8.1331 33.97H7.60349C5.06891 33.7453 4.57715 33.4082 4.50149 33.221L4.59604 33.1835ZM39.5127 16.367C39.5382 15.8725 39.4645 15.3779 39.2956 14.9118C39.1268 14.4458 38.8663 14.0174 38.5292 13.6517C38.1499 13.433 37.73 13.2921 37.2945 13.2375C36.8591 13.1828 36.417 13.2154 35.9946 13.3333C35.3671 13.4117 34.7356 13.4555 34.1031 13.4644C31.7093 13.5035 29.3234 13.7479 26.9722 14.1947L26.6696 14.3445V16.2172C24.7781 16.2172 24.3809 15.4307 23.7567 14.2509C23.0438 12.7215 21.831 11.4746 20.3142 10.7116C16.4367 8.83892 16.2664 8.44568 14.2615 4.75654L14.148 4.55055C13.9341 4.12932 13.7569 3.69075 13.6184 3.23966C13.2212 2.07861 12.7672 0.767774 11.6323 0.337063C11.2972 0.184175 10.9326 0.10498 10.5637 0.10498C10.1947 0.10498 9.83008 0.184175 9.49497 0.337063C8.97976 0.632662 8.52888 1.0265 8.16848 1.49582C7.80809 1.96513 7.54537 2.50057 7.39545 3.07113C6.48462 6.48872 6.88905 10.1195 8.53029 13.2584C7.97586 13.3967 7.4138 13.503 6.84691 13.5767C5.31627 13.6538 3.84534 14.1893 2.62889 15.1123C0.169967 17.0974 -0.302882 17.9962 1.17247 20.6179C1.05004 20.799 0.91072 20.9683 0.756344 21.1236C0.37664 21.4522 0.0847746 21.8686 -0.0934019 22.3358C-0.271578 22.8029 -0.330573 23.3064 -0.265071 23.8015C-0.294857 24.3446 -0.183597 24.8862 0.0581219 25.3747C0.299841 25.8632 0.663979 26.2822 1.11573 26.5917L1.53186 26.9662C1.53186 27.1161 1.38055 27.2846 1.30489 27.4532C0.930801 28.0075 0.731118 28.6592 0.731118 29.3258C0.731118 29.9925 0.930801 30.6442 1.30489 31.1985C1.49864 31.4709 1.73486 31.7111 2.00473 31.9101C2.26953 32.1161 2.30737 32.1723 2.30737 32.2472C2.30737 32.3221 2.30737 32.6404 2.30737 32.7715C2.15605 33.352 2.21279 33.6516 2.83698 34.4569C3.99078 35.9176 6.6199 36.161 9.05991 36.161H11.1217H12.4457C21.468 36.161 22.6786 34.176 23.5486 32.7715C23.7418 32.4057 24.0208 32.0911 24.362 31.8539C25.0273 31.638 25.7236 31.5305 26.4237 31.5355H26.8587C26.816 31.9167 26.9246 32.2995 27.1614 32.603L27.256 32.734H27.4262C31.511 32.5687 35.5738 32.0549 39.5695 31.1985L39.7208 31.0861C40.4396 30.2622 39.456 16.7415 39.4182 16.3483" fill="black"/>
</svg>
