<svg width="32" height="36" viewBox="0 0 32 36" fill="none" xmlns="http://www.w3.org/2000/svg">
<path d="M22.4361 23.5051C21.6907 24.6241 20.7588 25.5565 19.6406 26.3025C17.2178 27.9809 13.8632 27.6079 11.4404 29.4728C9.76302 30.7782 9.01751 33.3891 10.8812 34.881C14.795 37.8649 20.7588 34.881 24.2998 32.0837C27.8409 29.2863 30.2637 25.1835 31.0092 20.7078C31.3819 20.1483 31.5682 19.5888 31.5682 19.0293C31.941 17.1644 31.3819 15.6725 30.45 14.3671C29.8909 13.4346 29.1455 12.6887 28.0272 12.1292C25.0453 10.8238 21.3179 12.1292 19.6406 14.7401C17.7769 17.9104 19.4542 22.0132 22.4361 23.5051Z" fill="black"/>
<path d="M2.30374 16.605C0.0673095 18.0969 -0.491753 21.6402 2.11742 23.1321C4.35385 24.4376 7.33574 22.7592 9.19943 21.2672C11.6222 19.5888 13.6723 17.1644 14.9769 14.5536C17.2133 13.2481 18.7043 10.6373 18.7043 8.0264C18.8906 7.28044 18.8906 6.34799 18.7043 5.41554C18.3315 3.92362 17.586 2.80467 16.4678 1.87222C14.2314 0.193807 11.2495 0.3803 9.01305 1.68573C4.72655 4.11011 4.5402 9.89131 7.33574 13.2481C5.84478 14.5536 3.98107 15.2995 2.30374 16.605Z" fill="black"/>
</svg>
