<svg width="276" height="108" viewBox="0 0 276 108" fill="none" xmlns="http://www.w3.org/2000/svg">
<g clip-path="url(#clip0_50_14033)">
<path d="M78.1826 46.7249C79.2086 47.7495 81.2607 47.1347 81.0554 45.9051C80.2346 38.5275 79.619 31.3548 78.7982 23.9772L77.7722 13.7306C77.567 11.6812 78.1826 8.19735 75.9253 6.76281C75.3097 6.35294 74.6941 6.55788 74.0785 6.96774C73.4629 7.37761 73.2577 7.78748 73.2577 8.40228C73.2577 8.81215 73.6681 9.22201 74.2837 9.42695C74.4889 10.4516 74.4889 12.0911 74.4889 12.7059C74.6941 14.3454 74.8993 16.1898 75.1045 17.8292C75.5149 20.9032 75.7201 23.7723 76.1305 26.8463C76.5409 31.7647 77.1566 36.4782 77.567 41.3966C69.7692 32.1746 62.9975 22.5427 56.2257 12.7059C55.1997 11.6812 53.5581 12.296 53.3528 13.3207C51.0956 23.5674 48.2227 33.6091 45.7603 43.6509C44.5291 37.5028 44.1186 31.1499 43.2978 24.797C42.0666 17.8292 40.8354 11.0664 39.6041 4.09867C39.6041 3.48387 38.5781 3.48387 38.5781 4.09867C39.6041 11.6812 40.6302 19.2638 41.6562 26.8463C42.6822 34.019 44.5291 41.1917 44.7343 48.1594C44.7343 49.1841 46.5811 49.389 46.7863 48.3643C49.8644 37.7078 52.532 27.2562 55.4049 16.5996C62.3818 27.0512 69.564 37.093 78.1826 46.7249Z" fill="white"/>
<path d="M88.4421 42.2163C88.4421 43.4459 88.4421 44.2657 90.0837 44.8805C90.4941 45.0854 91.1098 44.8805 91.315 44.6755C91.5202 44.4706 91.7254 44.2657 91.9306 44.2657C92.1358 44.0607 92.341 43.6509 92.1358 43.241C92.1358 43.0361 92.1358 43.0361 91.9306 42.8311C91.7254 42.6262 91.5202 42.2163 91.315 42.2163C91.315 41.6015 91.5202 40.9867 91.5202 40.7818C91.5202 39.1423 90.9046 37.5029 90.6994 35.8634C90.2889 32.9943 89.6733 30.1253 89.2629 27.2562C88.2369 21.1082 87.4161 14.5503 85.5692 8.60724C85.364 7.99244 84.1328 8.19737 84.1328 8.81217C84.5432 16.1898 86.1849 23.3625 87.4161 30.5351C87.8265 34.4289 88.4421 38.3226 88.4421 42.2163Z" fill="white"/>
<path d="M120.047 45.2903C115.943 44.0607 110.197 45.2903 106.093 45.4952C104.452 45.4952 102.81 45.9051 101.989 44.4706C101.579 43.6508 101.784 42.2163 101.579 41.3966C101.374 38.9374 100.963 36.4782 100.758 34.019C100.553 32.1746 100.348 30.3302 100.142 28.4858C102.605 28.2808 105.067 28.2808 107.53 28.4858C109.582 28.6907 111.634 29.3055 113.686 28.6907C114.096 28.4858 114.507 28.0759 114.096 27.666C112.455 26.0266 109.787 26.2315 107.53 26.0266C104.862 26.0266 102.4 26.2315 99.732 26.8463C99.1164 20.9032 98.2956 14.7552 97.2696 8.81213C104.041 7.78746 110.403 7.58253 117.38 8.19733C119.432 8.40226 120.047 5.94306 117.995 5.53319C109.787 4.30359 100.758 4.91839 92.7551 7.17266C91.3186 7.58253 91.9342 9.42693 93.3707 9.222C93.9863 9.01706 94.6019 9.01707 95.2175 8.81213C95.8331 19.8785 97.2696 30.74 98.5008 41.8064C98.9112 45.0854 98.706 47.7495 103.426 47.7495C105.888 47.7495 108.351 47.5446 110.813 47.5446C113.686 47.5446 117.174 47.7495 119.842 46.7248C121.073 46.5199 121.073 45.7002 120.047 45.2903Z" fill="white"/>
<path d="M127.839 47.3397C128.66 34.8387 128.865 22.3378 129.891 9.83681C133.79 21.518 138.099 33.1992 142.614 44.6755C143.23 46.1101 145.282 45.0854 145.487 44.0607C148.154 32.1746 152.874 20.6983 159.441 10.0417C159.851 21.723 161.288 33.1992 163.545 44.6755C162.724 44.6755 161.698 45.2903 162.314 46.1101C163.134 47.5446 163.955 48.7742 164.776 50.0038C165.802 51.4383 167.854 50.2087 167.649 48.7742C164.16 34.4288 162.519 19.6736 162.314 5.12334C162.314 3.89374 160.262 3.27894 159.441 4.50854C152.259 15.37 146.923 27.0512 143.64 39.3472C138.92 27.2562 134.816 15.1651 130.507 3.074C130.096 2.04933 128.044 2.4592 128.044 3.48387C126.403 17.8292 124.761 32.7894 125.992 47.3397C126.198 48.1594 127.839 48.1594 127.839 47.3397Z" fill="white"/>
<path d="M193.508 50.4137C190.841 49.7989 187.763 49.389 184.685 49.1841C185.095 44.8805 185.3 40.3719 185.3 36.0683C185.3 32.1746 185.711 28.0759 184.89 24.1822C185.095 23.9773 185.3 23.9773 185.3 23.7723C188.173 16.3947 191.046 9.0171 193.714 1.84443C194.329 0.204957 191.251 -0.20491 190.636 1.22962C188.173 7.7875 185.711 14.3454 183.248 20.9032C180.991 18.649 178.529 16.1898 176.271 13.9355C174.219 12.0911 172.578 9.83683 169.91 8.60723C169.5 8.4023 168.679 8.81217 168.884 9.22203C170.115 11.8862 172.783 14.1404 175.04 16.3947C177.708 19.0588 180.17 21.518 182.838 24.1822C182.838 24.1822 183.043 24.3871 183.248 24.3871C182.633 28.4858 183.043 32.9943 183.043 37.093C182.838 40.7818 182.633 44.6755 182.222 48.3643C181.812 48.3643 181.401 48.5693 181.401 48.9791V49.1841C180.17 49.1841 179.144 49.1841 177.913 49.1841C176.887 49.1841 176.477 50.4137 177.503 50.8235C179.144 51.2334 180.786 51.4384 182.427 51.6433C182.838 51.8482 183.248 51.8482 183.659 51.8482C184.479 51.8482 185.095 52.0532 185.916 52.0532C188.378 52.2581 190.636 52.668 193.098 52.668C194.534 52.668 194.945 50.6186 193.508 50.4137Z" fill="white"/>
<path d="M103.835 98.1632C92.7539 100.008 81.6728 100.622 70.3866 99.5977C79.0052 87.5067 92.7539 78.4896 99.936 65.5788C100.346 64.759 99.7308 63.7344 98.7048 63.7344C89.4706 63.5294 79.6208 62.2998 70.3866 63.5294C69.3606 63.7344 69.1554 64.759 70.3866 64.964C74.6959 65.7837 79.4156 65.7837 83.7249 65.9886C87.829 66.1936 91.9331 66.3985 96.0372 66.3985C88.2394 78.6945 74.4907 87.7116 66.4877 100.008C65.8721 101.032 66.4877 102.057 67.9241 102.262C80.2364 103.491 92.7539 103.082 105.066 100.827C106.708 100.622 106.092 97.7533 103.835 98.1632Z" fill="white"/>
<path d="M152.672 90.5806C147.542 96.3188 136.461 97.5484 127.637 98.3681C128.868 94.0645 128.252 88.9412 128.663 84.4326C128.663 83.408 128.663 82.3833 128.868 81.3586C133.998 81.5636 139.128 81.9734 144.053 82.5882C146.516 82.7932 149.183 82.9981 151.44 83.8178C155.134 85.0474 154.724 88.1214 152.672 90.5806ZM139.539 70.907C141.385 71.7267 141.591 71.9317 140.565 73.3662C138.307 76.4402 133.177 78.0797 128.868 78.4896C129.073 75.0057 129.073 71.7267 129.278 68.2429C131.536 68.6527 133.998 69.0626 136.255 69.6774C137.281 70.0873 138.307 70.4971 139.539 70.907ZM151.03 80.7438C146.721 79.7192 142.001 79.3093 137.487 79.1044C140.565 77.6698 143.232 75.8254 144.463 73.1613C146.926 67.4231 131.741 66.1935 127.637 66.1935C126.405 66.1935 126.405 67.4231 127.226 67.833C126.816 71.5218 126.611 75.2106 126.2 78.8994C125.585 79.3093 125.585 80.334 125.995 80.7438C125.995 81.7685 125.79 82.7932 125.79 84.0228C125.585 88.7362 124.353 93.8596 125.174 98.3681C124.764 98.3681 124.353 98.3681 123.943 98.573C122.096 98.778 122.301 101.442 124.148 101.442C134.614 100.622 153.492 99.1879 157.391 88.9412C158.828 84.8425 155.545 81.7685 151.03 80.7438Z" fill="white"/>
<path d="M173.194 84.4326C171.142 84.4326 169.09 84.4326 167.243 84.4326C169.295 80.334 171.347 76.4402 173.605 72.5465C174.836 76.4402 176.067 80.334 177.093 84.2277C175.657 84.2277 174.426 84.4326 173.194 84.4326ZM184.891 103.491C184.891 103.082 184.686 103.082 184.481 102.877C184.07 101.852 184.07 100.213 183.865 99.3928C183.455 97.7533 183.249 96.1139 182.839 94.4744C182.223 91.8102 181.608 89.351 180.992 86.6869C181.608 86.482 182.223 86.277 182.839 86.0721C183.865 85.6622 183.66 84.4326 182.634 84.2277C181.608 84.0228 180.992 84.0228 180.171 84.0228C178.735 78.8994 177.093 73.5712 175.246 68.6528C174.836 67.6281 172.989 67.2182 172.579 68.2429C169.706 73.5712 166.833 78.8994 164.165 84.4326C163.755 84.4326 163.139 84.4326 162.729 84.4326C161.498 84.4326 161.087 86.0721 162.318 86.277C162.524 86.277 162.934 86.277 163.139 86.482C161.087 90.3757 159.035 94.4744 157.804 98.778C157.394 99.8027 159.446 100.008 159.856 99.1879C162.318 95.2941 163.96 90.9905 166.012 86.8918C168.064 87.0968 170.321 87.3017 172.373 87.3017C174.015 87.3017 175.862 87.3017 177.709 87.3017C177.914 88.5313 178.324 89.556 178.53 90.7856C179.35 94.0645 179.966 97.3435 180.787 100.622C181.197 102.467 180.787 105.131 183.455 105.336C184.275 105.336 185.096 104.721 184.891 104.106C184.891 103.696 184.891 103.491 184.891 103.491Z" fill="white"/>
<path d="M210.129 89.1461C208.077 95.0892 200.279 96.7286 193.507 98.778C194.328 90.1708 195.149 81.3586 195.97 72.7514C198.842 73.3662 201.715 74.3909 204.178 76.0303C208.897 79.1043 211.77 84.2277 210.129 89.1461ZM196.175 70.2922C196.175 69.8823 196.175 69.4725 196.38 68.8577C196.38 67.833 194.533 67.6281 194.328 68.6527C194.328 69.0626 194.123 69.4725 194.123 69.6774C191.866 69.2675 189.608 69.2675 187.556 69.2675C186.325 69.2675 186.325 70.907 187.556 71.1119C189.608 71.5218 191.66 71.7267 193.712 72.1366C192.071 81.1537 191.045 90.3757 190.429 99.5977C189.608 99.8026 188.787 100.212 187.967 100.622C186.12 101.442 187.967 103.696 189.608 102.877C189.813 102.877 189.813 102.672 190.019 102.672C190.019 103.491 190.019 104.311 190.019 105.131C190.019 106.565 192.892 106.361 192.892 104.926C192.892 103.696 193.097 102.467 193.097 101.237C201.921 98.1632 213.002 96.1138 213.412 86.482C214.028 78.2846 205.614 72.3415 196.175 70.2922Z" fill="white"/>
<path d="M223.058 87.9165C223.263 87.7116 223.263 87.3017 223.468 87.0968C224.904 83.6129 226.341 80.129 227.983 76.6451C229.009 80.334 229.829 83.8178 230.65 87.5066C227.983 87.5066 225.52 87.7116 223.058 87.9165ZM237.012 87.7116C235.986 87.7116 234.959 87.7116 233.933 87.7116C232.702 82.5882 231.061 77.4649 229.419 72.3415C229.009 71.3169 227.162 71.5218 226.751 72.3415C224.699 77.055 222.647 81.7685 220.595 86.482C220.39 87.0968 219.98 87.7116 219.774 88.3264C218.748 88.3264 217.928 88.5313 216.901 88.7362C215.465 88.9412 215.26 90.7856 216.901 90.7856C217.517 90.7856 218.133 90.7856 218.748 90.7856C217.312 94.2694 215.875 97.7533 215.26 101.237C215.055 102.057 216.696 102.467 217.107 101.647C219.159 98.1632 220.39 94.4744 221.826 90.7856C224.904 90.7856 227.777 90.5806 230.855 90.7856C231.881 95.499 232.702 100.213 233.523 104.926C233.523 105.131 233.318 105.336 233.523 105.541C233.523 106.361 233.728 107.18 234.139 108C234.754 109.435 237.422 108.82 237.217 107.18C236.601 101.852 235.575 96.3188 234.344 90.9905C234.959 90.9905 235.575 90.9905 236.191 91.1954C238.653 90.5806 239.064 87.7116 237.012 87.7116Z" fill="white"/>
<path d="M269.431 66.3985C266.558 77.4649 263.48 88.3264 260.607 99.3928C258.145 95.2941 256.503 90.9905 255.067 86.482C253.015 80.334 250.758 74.3909 248.706 68.2429C248.295 66.8083 246.243 67.4231 246.038 68.6527C244.396 79.9241 242.549 90.9905 241.523 102.262C241.523 103.287 243.37 103.491 243.575 102.467C245.422 93.2448 246.654 83.8178 247.885 74.3909C249.526 78.8994 250.963 83.6129 252.604 88.1214C254.451 93.4497 256.298 98.778 259.992 103.491C260.813 104.516 262.66 103.901 262.865 102.877C266.148 90.7856 269.431 78.4896 272.715 66.3985C273.125 64.9639 270.047 64.759 269.431 66.3985Z" fill="white"/>
<path d="M273.946 50.6186C267.379 52.8729 261.018 55.9469 255.067 58.8159C253.63 59.6357 254.656 61.2751 256.298 60.8653C262.659 58.611 269.431 55.9469 275.587 53.0778C276.818 52.2581 275.587 50.0038 273.946 50.6186Z" fill="white"/>
<path d="M8.21063 8.19737C6.7742 6.5579 4.31175 5.9431 2.46491 7.1727C0.823273 8.19737 0.00245566 10.6566 0.00245566 12.501C-0.202749 14.1404 0.823273 15.9848 2.67011 16.3947C3.49093 16.3947 4.31175 16.3947 5.13257 16.1898C5.54298 16.1898 6.15859 16.1898 6.569 15.9848C6.7742 17.2144 6.97941 18.649 6.7742 19.8786C6.36379 22.9526 11.2887 23.1575 11.6991 20.2884C12.3147 16.5996 11.4939 12.9108 9.03145 10.0418C9.03145 9.42697 8.62104 8.81217 8.21063 8.19737Z" fill="white"/>
<path d="M22.7801 12.9108C22.1644 10.2467 20.728 7.99243 19.0864 5.73816C18.2656 4.09869 16.4187 2.66415 14.1615 3.27895C12.9302 3.68882 12.1094 4.91842 11.699 5.94309C11.4938 6.96776 11.699 8.19736 12.5198 9.01709C12.5198 9.42696 12.725 9.6319 12.9302 10.0418C13.5459 11.0664 14.9823 11.4763 16.2135 11.2714C16.6239 11.2714 17.0343 11.0664 17.4447 10.8615C17.6499 11.8862 18.0604 12.9108 18.2656 13.9355C18.676 15.7799 18.2656 17.2144 17.8551 19.0588C17.6499 20.0835 18.0604 21.1082 19.0864 21.518C19.9072 21.9279 21.5488 21.723 21.9592 20.9032C22.7801 19.2638 23.3957 18.2391 23.3957 16.3947C23.1905 15.1651 22.9853 13.9355 22.7801 12.9108Z" fill="white"/>
<path d="M269.93 103.09C269.71 103.09 269.55 103.05 269.45 102.97C269.21 102.83 269 102.65 268.82 102.43C268.64 102.19 268.55 101.86 268.55 101.44C268.57 101.14 268.64 100.88 268.76 100.66C268.88 100.42 269.05 100.25 269.27 100.15C269.69 99.93 270.23 99.82 270.89 99.82C271.37 99.82 271.76 100 272.06 100.36C272.36 100.7 272.51 101.12 272.51 101.62C272.51 102.22 272.33 102.91 271.97 103.69C271.63 104.49 271.29 105.11 270.95 105.55C270.69 105.85 270.39 106.11 270.05 106.33C269.73 106.55 269.45 106.66 269.21 106.66C268.73 106.66 268.42 106.58 268.28 106.42C268.16 106.28 268.1 106.02 268.1 105.64C268.1 105.48 268.31 105.23 268.73 104.89C269.07 104.59 269.28 104.38 269.36 104.26C269.66 103.86 269.88 103.47 270.02 103.09H269.93Z" fill="white"/>
</g>
<defs>
<clipPath id="clip0_50_14033">
<rect width="276" height="108" fill="white"/>
</clipPath>
</defs>
</svg>
