<svg width="910" height="736" viewBox="0 0 910 736" fill="none" xmlns="http://www.w3.org/2000/svg">
<path d="M904.635 692.363C904.257 691.985 903.879 691.608 903.501 691.23C903.69 691.041 903.69 691.041 903.879 690.852C904.068 690.852 904.068 690.852 904.257 690.852C904.445 690.852 904.446 690.852 904.635 690.852C905.768 690.852 905.957 689.53 905.39 688.963C905.957 688.207 906.524 687.452 906.902 686.507C906.713 688.774 905.957 690.663 904.635 692.363ZM901.989 695.575C901.611 695.008 901.233 694.441 900.666 693.874C901.044 693.497 901.611 693.119 901.989 692.741C902.367 693.308 902.745 693.685 903.312 694.252C902.934 694.63 902.556 695.008 901.989 695.575ZM898.209 698.408C898.209 698.219 898.209 698.03 898.02 697.841C897.642 697.275 897.264 696.708 896.886 695.952C897.453 695.575 898.209 695.197 898.776 695.008C899.343 695.575 899.721 696.33 900.288 696.897C899.721 697.464 898.965 697.841 898.209 698.408ZM891.595 701.619C891.028 700.675 890.65 699.73 890.272 698.786C891.973 698.219 893.485 697.652 894.997 696.897C895.375 697.652 895.753 698.219 896.131 698.786C896.32 698.975 896.32 699.164 896.508 699.164C895.186 700.108 893.485 700.864 891.595 701.619ZM885.737 703.508C885.359 702.564 884.792 701.619 884.225 700.486C885.548 700.108 886.871 699.73 888.193 699.353C888.382 700.486 888.949 701.431 889.516 702.375C888.383 702.753 887.06 703.131 885.737 703.508ZM879.878 705.02C879.501 704.075 878.934 703.131 878.556 702.186C879.878 701.808 881.012 701.619 882.335 701.242C882.713 702.186 883.28 703.131 883.847 704.264C882.335 704.453 881.201 704.642 879.878 705.02ZM873.642 706.153C873.453 705.209 873.075 704.453 872.697 703.508C874.02 703.32 875.154 702.942 876.477 702.564C876.855 703.508 877.233 704.453 877.611 705.209C876.288 705.586 874.965 705.964 873.642 706.153ZM866.272 707.098C865.894 706.342 865.516 705.775 865.138 705.02C867.028 704.642 868.729 704.264 870.619 703.886C870.808 704.642 871.186 705.586 871.375 706.342C869.674 706.72 867.973 706.909 866.272 707.098ZM858.146 708.042C857.579 707.475 857.201 707.098 857.201 706.531C859.091 706.153 860.981 705.775 862.871 705.398V705.586C863.06 706.153 863.438 706.72 863.815 707.287C861.926 707.664 860.036 707.853 858.146 708.042ZM854.178 708.609C852.288 708.987 850.209 709.176 848.319 709.553C848.13 709.176 847.941 708.609 847.752 708.231C850.209 707.853 852.855 707.475 855.311 707.098C855.311 707.664 855.5 708.231 855.878 708.609C855.122 708.42 854.555 708.609 854.178 708.609ZM839.437 710.876C839.248 710.498 838.87 709.931 838.681 709.553C840.949 709.176 843.217 708.987 845.485 708.609C845.674 708.987 845.863 709.553 846.052 709.931C843.784 710.12 841.516 710.498 839.437 710.876ZM831.689 712.009C831.5 711.443 831.311 711.065 831.122 710.498C832.823 710.309 834.524 710.12 836.225 709.742V709.931C836.414 710.309 836.603 710.687 836.792 711.065C835.28 711.443 833.39 711.631 831.689 712.009ZM824.13 712.954C823.941 712.387 823.563 712.009 823.374 711.442C825.264 711.254 827.154 710.876 829.044 710.687C829.044 710.687 829.044 710.687 829.044 710.876C829.233 711.254 829.422 711.82 829.422 712.198C827.721 712.576 826.02 712.765 824.13 712.954ZM816.571 714.087C816.571 713.52 816.382 712.954 816.004 712.576C817.705 712.387 819.406 712.009 821.107 711.82C821.295 712.387 821.484 712.765 821.862 713.331C820.162 713.709 818.461 713.898 816.571 714.087ZM808.067 715.221V715.032C807.878 714.654 807.689 714.276 807.5 713.709C809.39 713.52 811.469 713.143 813.358 712.954C813.547 712.954 813.736 712.954 813.925 712.954C813.925 713.332 814.114 713.52 814.303 713.898C814.492 714.087 814.492 714.276 814.492 714.465C812.414 714.654 810.146 715.032 808.067 715.221ZM797.673 716.732C797.484 716.165 797.106 715.787 796.917 715.221C799.752 714.843 802.398 714.465 805.232 714.087C805.421 714.654 805.61 715.032 805.988 715.598C803.154 715.976 800.508 716.354 797.673 716.732ZM788.224 718.054C788.036 717.487 787.846 717.11 787.469 716.732C789.925 716.354 792.193 715.976 794.65 715.787C794.65 715.787 794.65 715.787 794.65 715.976C794.839 716.354 795.217 716.921 795.406 717.298C792.949 717.298 790.681 717.676 788.224 718.054ZM782.933 718.81C781.61 718.999 780.287 719.188 778.965 719.376C778.776 718.81 778.587 718.432 778.398 718.054C780.476 717.676 782.744 717.487 784.823 717.11C784.823 717.298 785.012 717.487 785.201 717.676C785.579 717.865 785.768 718.243 785.957 718.432C785.012 718.432 783.878 718.621 782.933 718.81ZM770.65 720.321C770.461 719.943 770.272 719.376 770.083 718.999C771.972 718.81 773.862 718.432 775.752 718.243C775.752 718.432 775.941 718.432 776.13 718.621C776.508 718.81 776.697 719.188 776.886 719.565C774.807 719.943 772.728 720.132 770.65 720.321ZM763.09 721.266C762.901 720.888 762.713 720.321 762.713 719.943C764.413 719.754 766.114 719.565 768.004 719.188C768.193 719.565 768.382 720.132 768.571 720.51C766.681 720.888 764.98 721.077 763.09 721.266ZM754.586 722.399C754.209 722.021 753.831 721.643 753.642 721.077C755.909 720.699 758.177 720.51 760.634 720.132V720.321C760.823 720.699 760.823 721.077 761.012 721.454C758.744 721.832 756.665 722.21 754.586 722.399ZM746.838 723.532C746.649 723.155 746.46 722.588 746.271 722.21C747.972 722.021 749.673 721.832 751.374 721.454C751.563 721.832 751.752 722.399 751.941 722.777C750.24 722.966 748.539 723.155 746.838 723.532ZM737.768 724.666C737.579 724.288 737.39 723.91 737.39 723.343C738.146 723.343 738.712 723.155 739.468 723.155C741.169 722.966 742.681 722.777 744.382 722.588C744.571 722.966 744.76 723.532 744.949 723.91C742.303 724.099 740.035 724.288 737.768 724.666ZM731.342 725.421C731.153 725.044 731.153 724.477 730.964 724.099C732.476 723.91 733.799 723.721 735.311 723.532C735.311 723.91 735.311 724.477 735.5 724.855C733.988 725.044 732.665 725.232 731.342 725.421ZM723.216 726.366C723.027 725.988 723.027 725.421 722.838 725.044C724.917 724.855 726.807 724.477 728.886 724.288C728.886 724.477 728.886 724.477 728.886 724.666C728.886 725.044 729.075 725.232 729.075 725.61C727.185 725.799 725.106 726.177 723.216 726.366ZM716.035 727.31C716.035 727.122 715.846 726.744 715.846 726.555C715.846 726.366 715.657 726.177 715.468 725.988C717.169 725.799 719.059 725.61 720.76 725.421C720.948 725.799 720.949 726.366 721.138 726.744C719.248 726.744 717.736 727.122 716.035 727.31ZM705.641 728.444C705.452 728.066 705.452 727.688 705.263 727.122C708.098 726.744 710.933 726.366 713.956 726.177C713.767 726.366 713.767 726.744 713.767 727.122C713.767 727.31 713.956 727.499 713.956 727.688C711.122 727.877 708.287 728.066 705.641 728.444ZM700.161 729.011C699.972 728.633 699.783 728.255 699.594 727.688C700.728 727.499 701.862 727.499 702.996 727.31C702.996 727.499 702.996 727.499 702.996 727.688C703.185 728.066 703.185 728.255 703.374 728.633C702.429 728.822 701.295 729.011 700.161 729.011ZM692.791 729.955C692.791 729.577 692.602 729.011 692.602 728.633C694.303 728.444 696.004 728.255 697.704 728.066C697.704 728.255 697.704 728.633 697.704 728.822C697.704 729.011 697.893 729.199 697.893 729.388C696.193 729.577 694.492 729.766 692.791 729.955ZM688.255 730.333C688.067 729.955 687.878 729.577 687.878 729.011C688.633 729.011 689.578 728.822 690.334 728.822C690.334 729.199 690.523 729.577 690.523 730.144C689.956 730.144 689.2 730.333 688.255 730.333ZM681.263 731.277C681.074 730.9 680.885 730.333 680.696 729.955C682.397 729.766 684.098 729.577 685.799 729.388C685.799 729.766 685.988 730.333 686.177 730.711C684.476 730.9 682.775 731.089 681.263 731.277ZM676.539 731.655C676.35 731.277 675.972 730.711 675.783 730.333C676.728 730.144 677.673 730.144 678.429 729.955C678.618 730.333 678.807 730.9 678.996 731.277C678.24 731.466 677.295 731.655 676.539 731.655ZM672.381 732.222C672.003 731.844 671.814 731.466 671.814 730.9C672.381 730.9 672.948 730.711 673.704 730.711C673.704 730.9 673.704 730.9 673.893 731.089C674.082 731.466 674.271 731.655 674.46 732.033C673.515 732.033 672.948 732.033 672.381 732.222ZM664.444 732.978C664.255 732.6 664.066 732.033 664.066 731.655C665.956 731.466 667.846 731.277 669.736 731.089C669.736 731.655 669.925 732.033 670.114 732.411C668.035 732.6 666.334 732.789 664.444 732.978ZM659.531 733.544V733.355C659.342 732.978 659.153 732.6 658.964 732.222C659.909 732.033 660.854 732.033 661.799 731.844C661.988 732.222 662.177 732.789 662.177 733.166C661.232 733.355 660.476 733.355 659.531 733.544ZM652.161 734.3V734.111C651.972 733.733 651.972 733.355 651.783 732.978C653.295 732.789 654.806 732.6 656.507 732.6C656.507 732.789 656.696 732.978 656.885 733.166C657.074 733.355 657.263 733.733 657.452 733.922C655.751 733.922 653.862 734.111 652.161 734.3ZM646.869 734.867C646.68 734.489 646.302 733.922 646.302 733.544C647.436 733.355 648.57 733.355 649.704 733.166C649.893 733.544 650.082 734.111 650.271 734.489C648.948 734.678 648.003 734.678 646.869 734.867ZM837.17 295.287C846.052 242.582 853.989 189.689 859.847 136.607C872.886 141.33 887.249 141.896 900.666 145.108C884.981 208.013 864.382 269.784 845.107 331.556C842.461 319.466 839.815 307.376 837.17 295.287ZM827.154 252.405C827.154 252.216 827.343 252.027 827.154 251.65C820.54 222.936 814.681 194.034 808.445 165.32C808.634 165.132 808.634 164.754 808.445 164.565C802.965 138.118 797.295 111.861 791.437 85.414C815.059 89.0032 838.303 93.1591 861.17 99.7708C853.422 162.487 845.674 225.203 835.091 287.73C832.634 275.829 829.988 264.117 827.154 252.405ZM330.332 105.249C330.521 105.06 330.71 104.682 330.521 104.304C330.521 103.738 330.332 103.36 330.332 102.982C332.411 104.682 333.167 107.327 331.655 109.972C330.899 111.105 329.765 112.238 328.443 112.805C329.199 112.238 329.954 111.294 330.143 110.16C330.71 108.46 330.71 106.76 330.332 105.249ZM342.805 171.743C343.183 172.499 343.183 173.254 343.183 174.199C342.994 173.254 342.994 172.499 342.805 171.743ZM370.018 370.659C371.34 370.848 372.474 371.415 373.041 372.737C373.608 374.249 373.419 376.326 372.663 377.838C372.096 378.971 371.34 379.916 370.207 380.293C370.963 379.349 371.529 378.027 371.718 376.893C372.096 374.626 371.529 372.359 370.018 370.659ZM792.571 223.314C792.571 223.503 792.571 223.692 792.571 223.881C803.532 281.874 813.736 339.868 824.697 397.862C835.658 456.233 845.485 514.982 858.335 572.976C865.516 605.278 873.075 637.581 880.256 670.072C739.468 686.318 598.68 702.942 457.892 719.376C447.876 720.51 437.86 721.832 427.845 722.966C418.207 724.099 407.624 726.555 397.797 726.555C391.183 726.555 391.939 722.777 390.805 716.921C390.049 712.765 389.104 708.42 388.348 704.264C386.648 695.386 384.947 686.696 383.057 677.818C383.246 677.629 383.624 677.251 383.435 676.873C383.246 675.551 383.057 674.228 382.868 672.906C388.537 672.717 394.207 674.039 398.742 677.062C398.742 679.896 398.175 683.296 401.577 684.429C404.6 685.374 408.758 684.429 411.215 682.54C413.86 680.651 415.372 677.251 414.238 674.039C413.104 670.45 409.514 668.561 406.112 667.617C401.01 660.061 390.994 657.227 380.789 657.983C379.655 648.537 378.333 639.281 377.199 629.836C382.301 629.836 387.592 630.969 392.506 633.803C391.561 641.359 401.388 642.681 405.734 638.337C410.459 633.803 407.624 624.547 400.632 625.68C394.207 618.313 385.514 614.535 375.309 615.101C373.986 605.467 372.663 595.644 371.529 586.01C377.199 586.199 382.868 587.899 388.348 590.733C387.781 593.755 389.671 596.211 392.695 596.967C396.285 597.911 400.065 596.589 402.333 593.755C406.679 588.277 402.711 579.021 395.152 580.343C394.963 580.343 394.963 580.343 394.774 580.532C387.404 574.109 378.333 570.898 369.451 570.898C368.128 560.886 366.805 551.063 365.482 541.051C372.096 541.24 377.955 543.696 383.435 546.907C383.435 546.907 383.435 546.907 383.435 547.096C383.435 553.707 391.939 556.163 396.096 551.441C398.175 549.174 398.742 545.962 397.797 543.129C396.852 540.484 394.396 537.462 391.372 537.651C384.758 529.528 374.175 526.316 363.403 526.883C362.081 517.249 360.758 507.804 359.435 498.17C362.647 498.17 365.671 498.736 368.506 500.059C370.585 501.003 372.096 502.326 373.608 503.837C372.852 506.67 374.364 509.504 376.821 511.393C379.844 513.66 384.569 512.715 387.781 511.015C391.561 508.937 391.939 505.537 390.805 501.759C390.049 499.114 387.97 495.714 384.947 496.092C377.01 488.158 368.317 483.246 357.356 483.813C356.033 474.746 354.899 465.867 353.577 456.8C360.002 456.8 366.616 458.878 372.663 462.845C372.663 465.489 374.742 467.378 377.199 467.945C380.411 468.701 384.002 467.567 386.27 464.923C390.994 459.633 386.648 451.888 380.033 451.51C379.844 451.51 379.655 451.51 379.466 451.51C371.718 444.332 361.892 440.743 351.498 441.121C351.309 439.42 350.931 437.72 350.742 436.02C349.797 429.031 348.852 422.041 347.907 415.052C353.955 414.674 360.758 415.241 366.049 418.074C366.049 421.663 367.372 423.741 370.963 424.686C374.175 425.442 377.388 424.686 379.277 421.852C382.49 416.941 380.033 404.851 372.285 408.251C372.096 408.44 371.907 408.44 371.718 408.629C367.75 404.851 361.892 403.151 356.411 402.584C353.01 402.206 349.419 402.206 346.018 402.395C344.695 392.761 343.372 383.127 342.049 373.493C348.663 373.493 354.333 376.138 360.002 379.349C359.813 381.427 361.892 383.127 363.97 383.694C366.994 384.638 370.774 384.449 373.041 381.994C375.12 379.727 375.687 375.949 374.931 373.115C373.797 369.715 370.396 368.77 367.183 369.148C360.191 363.103 349.797 360.458 340.537 360.647C339.403 352.336 338.269 343.835 337.136 335.523C343.183 335.523 349.797 336.657 353.955 340.435C352.632 347.424 364.726 348.746 368.317 344.213C373.041 338.357 366.994 330.423 360.38 330.423C354.899 323.811 343.939 320.978 335.246 321.166C333.923 311.532 332.789 302.087 331.466 292.453C337.891 292.642 344.128 295.475 349.797 299.065C349.797 299.254 349.797 299.254 349.608 299.442C349.23 302.087 352.254 305.298 354.899 305.865C357.923 306.621 361.703 304.354 363.403 302.087C367.561 296.987 361.892 289.997 356.411 289.808C349.419 282.819 340.348 278.663 329.765 279.041C328.443 269.407 327.309 259.961 325.986 250.327C332.411 249.761 338.647 250.894 343.939 253.917C341.86 259.206 348.285 263.173 353.01 260.906C358.301 258.261 358.301 250.516 353.388 247.494C353.199 247.305 352.821 247.305 352.632 247.305C346.018 238.049 335.246 234.648 324.285 235.593C323.34 227.659 322.206 219.914 321.261 211.98C325.986 212.358 330.71 213.869 335.435 216.325C335.435 219.158 336.569 221.992 339.403 223.125C341.86 224.259 345.262 223.125 347.529 221.614C351.876 218.591 351.498 210.28 346.395 208.391C339.403 199.701 329.576 196.112 319.372 196.49C319.183 194.412 318.805 192.334 318.616 190.256C317.671 183.644 316.915 177.033 315.97 170.421C321.072 170.61 325.419 172.499 329.576 175.521C328.821 177.41 329.388 179.677 330.899 181.188C333.356 183.644 336.758 184.778 339.97 183.266C346.773 180.244 347.529 170.61 340.537 167.21C340.348 167.21 340.348 167.21 340.159 167.021C333.734 158.331 323.907 154.931 313.702 155.309C312.758 149.264 312.002 143.03 311.057 136.985C315.781 137.174 320.506 138.496 324.474 141.141C322.962 148.508 332.411 150.964 337.325 146.997C343.372 142.274 339.781 134.529 334.301 131.318C328.443 123.195 318.616 119.795 308.6 120.172C307.655 113.75 306.71 107.327 305.576 100.904C311.813 101.282 317.671 103.549 321.639 108.46C320.695 110.916 321.261 113.75 323.529 115.261C325.986 116.772 328.821 116.205 330.899 114.505C335.624 110.916 335.624 102.982 329.765 100.526C329.387 100.337 329.01 100.526 328.821 100.526C325.041 91.2701 313.324 87.1142 303.12 86.9253C302.175 81.0693 301.23 75.2132 300.096 69.3572C305.576 69.735 310.301 72.3797 314.836 75.9688C312.191 82.7694 320.695 85.9808 325.608 82.3916C327.876 80.6914 329.388 78.0468 329.576 75.4021C329.765 71.8129 327.687 69.1683 325.23 66.9014C321.073 61.2343 313.324 58.5897 306.71 57.4562C303.876 57.0784 301.041 56.8895 298.206 57.0784C298.206 56.7006 298.017 56.3228 298.017 55.945C298.017 55.7561 298.206 55.5672 298.206 55.5672L298.395 55.3783C298.584 54.6227 299.151 54.056 300.096 54.056C300.474 54.056 300.663 53.6781 300.852 53.4892C326.742 42.9106 354.899 43.0995 382.679 42.7217C412.349 42.3439 442.018 41.3994 471.498 40.077C530.27 37.2435 589.042 31.9542 647.058 22.8868C680.129 17.7864 712.823 11.3636 745.327 3.61854C746.271 9.47457 747.216 15.3306 748.161 21.1866C748.161 21.5644 748.35 22.1311 748.35 22.509C748.35 22.6979 748.35 22.6979 748.539 22.8868C760.256 89.5699 776.13 156.82 792.571 223.314ZM754.02 27.9872C754.398 31.0096 754.587 33.8432 754.964 36.8657C756.098 44.9886 757.421 53.1114 758.933 61.2343C759.689 65.0124 760.256 68.7905 761.012 72.5686C757.421 55.3783 754.02 38.188 750.807 20.9977C754.586 20.8088 753.642 24.7758 754.02 27.9872ZM877.044 679.329C877.044 678.384 875.721 677.818 874.965 678.762C874.965 678.762 874.965 678.762 874.776 678.762C844.351 679.518 813.547 683.485 783.122 686.885C751.185 690.474 719.059 693.685 687.122 697.464C686.933 697.275 686.744 697.275 686.366 697.275C660.098 699.164 634.208 702.375 608.318 706.72C582.239 711.065 555.593 712.198 529.515 715.032C529.326 714.843 529.136 714.843 528.759 714.843C484.727 721.454 440.317 725.988 396.096 731.655C396.096 731.466 396.096 731.466 395.908 731.277C396.096 731.089 396.096 730.711 395.908 730.333C395.719 729.955 395.53 729.388 395.53 729.011C521.2 714.465 647.058 699.919 772.728 685.185C807.122 681.218 841.705 677.44 876.099 673.284C876.288 674.417 876.477 675.551 876.666 676.495C876.855 677.062 877.044 678.195 877.044 678.951C877.233 679.14 877.044 679.329 877.044 679.329ZM408.758 671.773C411.593 673.662 413.86 676.306 410.648 679.707C409.136 681.218 406.868 681.973 404.789 681.973C403.278 682.162 402.144 682.351 401.388 679.896C401.199 679.518 401.199 679.14 401.199 678.573C401.388 678.762 401.766 678.951 401.955 679.329C402.144 679.329 402.144 679.518 402.333 679.518C402.522 680.084 402.9 680.462 403.656 680.651C404.978 680.84 406.301 679.518 407.057 678.573C408.758 676.873 409.514 674.039 408.758 671.773ZM371.907 672.339C371.907 672.15 371.907 672.15 371.907 672.339H371.718C365.293 674.606 359.624 678.762 356.411 684.429C355.088 684.618 353.955 684.618 353.01 683.296C352.254 682.162 351.687 681.029 351.309 679.707C351.498 679.518 351.498 679.518 351.498 679.329C356.978 659.872 397.23 651.56 406.112 671.961C406.301 672.15 406.301 672.339 406.49 672.528C406.679 673.473 406.679 674.417 406.301 675.362C406.112 675.929 405.923 676.495 405.545 676.873C405.356 677.251 404.978 677.44 404.789 677.629C404.789 677.629 404.6 677.818 404.411 677.818C404.411 677.629 404.223 677.44 404.034 677.251C396.096 669.506 382.868 668.372 371.907 672.339ZM358.112 688.396C355.655 689.719 352.821 689.341 350.553 687.829C347.529 685.374 347.34 681.785 348.852 678.951V679.14C348.852 681.407 349.797 684.051 351.498 685.752C353.01 687.452 355.655 687.641 357.734 686.885C358.49 686.696 358.679 685.94 358.49 685.374C359.057 684.429 359.813 683.485 360.569 682.729C360.758 684.996 360.569 687.074 358.112 688.396ZM366.238 631.914C369.073 630.78 372.096 630.025 375.12 629.836C376.443 639.281 377.577 648.726 378.9 658.172C375.876 658.549 372.852 659.305 370.018 660.249C368.695 650.804 367.561 641.359 366.238 631.914ZM403.845 630.025C404.034 629.647 404.034 629.08 403.656 628.702C403.467 628.514 403.467 628.325 403.278 628.136C406.301 629.269 407.057 633.614 404.411 636.259C401.766 638.903 396.096 638.903 395.341 635.125C397.23 636.448 399.12 637.77 401.199 636.636C403.467 635.503 404.034 632.481 403.845 630.025ZM363.592 630.025H363.403V630.214C357.923 632.858 353.199 636.825 349.797 641.926C348.096 639.848 346.395 637.959 347.34 634.936C357.734 614.912 388.159 610.756 401.01 630.214C400.254 636.825 394.963 631.347 392.317 630.025C390.049 629.08 387.781 628.136 385.514 627.569C381.167 626.625 376.632 626.436 372.285 627.002C369.262 627.758 366.427 628.702 363.592 630.025ZM349.23 644.948C347.529 645.893 344.884 645.704 343.372 644.381C340.537 641.926 342.238 637.77 344.884 635.503C344.128 638.714 346.017 642.492 348.663 644.193C348.663 644.57 349.041 644.759 349.23 644.948C349.419 644.948 349.419 644.948 349.23 644.948ZM360.947 587.144C363.781 586.199 366.616 585.821 369.64 585.821C370.963 595.644 372.285 605.467 373.419 615.29C370.396 615.668 367.372 616.424 364.537 617.368C363.214 607.167 362.081 597.155 360.947 587.144ZM397.608 583.365C397.608 582.988 397.608 582.799 397.608 582.421C401.01 583.365 403.278 586.577 401.577 590.544C400.632 592.622 398.931 593.944 396.663 594.322C394.396 594.7 391.372 594.133 390.994 591.677C391.939 592.244 392.884 592.811 393.64 593.377C394.207 593.755 394.774 593.755 395.152 593.377C397.041 593.566 398.742 591.866 399.12 589.977C399.498 587.71 398.931 585.254 397.608 583.365ZM343.939 596.022C342.994 596.4 341.86 595.644 341.293 594.511C340.348 593 339.781 591.299 340.159 589.41C353.199 570.709 379.089 566.553 395.152 583.932C395.341 584.121 395.341 584.121 395.53 584.121C396.474 586.388 397.419 590.355 394.774 590.544C378.9 579.398 356.222 579.21 343.939 596.022ZM345.451 598.478C343.183 599.989 339.97 599.611 338.08 597.722C335.057 595.078 335.813 592.055 337.891 589.599C337.325 592.244 338.458 595.455 340.348 597.344C342.238 599.044 346.017 599.422 346.773 596.4C346.773 596.211 346.773 596.022 346.773 596.022C346.962 595.833 347.151 595.644 347.34 595.455C347.151 596.589 346.584 597.533 345.451 598.478ZM355.466 541.995C357.923 541.24 360.38 540.673 363.025 540.484C363.214 540.484 363.403 540.484 363.592 540.484C363.592 540.862 363.781 541.429 363.781 541.807C365.104 551.252 366.238 560.886 367.561 570.331C364.726 570.52 361.892 571.087 359.246 571.842C359.057 569.575 358.679 567.497 358.49 565.231C358.49 565.042 358.301 564.853 358.301 564.664C357.167 557.297 356.411 549.74 355.466 541.995ZM393.829 540.295C396.285 541.995 397.041 545.773 395.152 548.418C392.884 551.818 387.97 551.252 386.459 547.852C386.837 548.04 387.215 548.418 387.781 548.607C387.97 548.985 388.348 549.174 388.915 549.174C389.293 549.363 389.671 549.174 390.049 548.985C391.939 548.418 393.451 546.907 394.207 545.207C394.774 543.696 394.585 541.807 393.829 540.295ZM337.136 551.818H336.947C335.813 552.196 334.49 550.307 334.112 549.552C333.545 548.607 333.356 547.852 333.356 546.907L333.545 546.718C343.939 527.828 378.333 521.216 391.372 541.051C391.561 541.429 391.939 541.618 392.317 541.618C392.695 542.562 392.506 543.696 392.128 544.64C391.561 545.585 390.805 546.151 389.86 546.529C380.789 540.673 371.718 536.706 360.569 538.406C351.12 539.917 343.183 544.829 337.136 551.818ZM335.057 556.352C332.789 556.352 330.521 555.03 329.576 552.763C328.821 550.874 329.199 548.607 330.71 547.096C330.71 548.796 331.466 550.496 332.6 552.007C333.734 553.33 335.435 554.841 336.947 554.274C337.325 554.274 337.514 554.274 337.891 553.896C338.647 552.952 339.592 552.196 340.348 551.441C341.671 554.274 337.514 556.352 335.057 556.352ZM349.608 499.303C351.687 498.547 353.955 498.17 356.033 497.792C356.6 497.792 357.167 497.603 357.734 497.603C359.057 507.237 360.38 516.871 361.703 526.505C359.057 526.883 356.411 527.45 353.766 528.205C352.443 518.382 351.12 508.748 349.608 499.303ZM386.459 498.359C387.781 499.114 388.537 500.814 388.915 502.514C389.671 505.726 388.537 507.615 385.325 508.559C383.624 509.126 381.734 509.504 380.033 509.126C378.144 508.559 376.821 506.859 376.443 504.97C376.821 505.348 377.388 505.537 377.766 505.726C383.813 508.748 387.97 503.459 386.459 498.359ZM331.277 508.748C331.088 508.748 331.088 508.748 330.899 508.937C329.765 509.882 329.01 510.448 327.687 509.315C327.12 508.748 326.742 507.804 326.553 507.048C326.175 505.348 326.931 504.026 327.876 502.514C328.065 502.137 328.065 501.759 328.065 501.57C334.301 493.636 342.427 488.347 352.632 486.458C365.293 484.191 374.553 488.724 383.246 497.414C380.978 502.703 378.711 503.837 376.443 500.625C375.876 500.059 375.12 499.492 374.364 498.925C373.041 497.981 371.529 497.225 370.018 496.47C365.482 494.58 360.38 494.203 355.466 494.769C346.395 496.281 337.136 501.381 331.277 508.748ZM330.332 512.715C328.632 513.471 326.553 513.471 325.041 512.526C322.962 511.582 321.45 509.315 322.017 507.048C322.395 505.537 323.34 504.592 324.474 503.648C323.907 505.537 324.096 507.804 325.041 509.504C326.742 512.526 329.765 513.093 332.222 510.826C332.411 510.826 332.6 510.637 332.789 510.448C333.167 509.882 333.545 509.504 334.112 509.126C333.356 510.826 331.655 512.149 330.332 512.715ZM344.884 457.177C347.151 456.611 349.608 456.233 352.065 456.044C353.388 465.111 354.521 474.179 355.844 483.246C355.466 483.246 355.088 483.246 354.71 483.435C352.443 483.813 350.175 484.38 347.907 484.946C347.151 475.501 346.017 466.245 344.884 457.177ZM381.734 453.21C385.325 453.966 387.593 457.933 385.514 461.522C384.191 463.789 379.655 465.489 377.199 464.167C377.388 464.167 377.577 464.167 377.766 463.978C380.033 465.3 382.301 461.711 382.679 459.633C383.246 457.366 382.868 455.099 381.734 453.21ZM326.742 465.3C326.553 465.3 326.553 465.3 326.364 465.489C325.041 466.434 323.907 464.356 323.34 463.411C322.584 462.089 322.017 460.767 322.395 459.255C326.742 449.81 340.537 444.332 350.364 443.387C360.947 442.443 370.963 446.41 378.522 453.777C378.711 453.966 378.9 453.966 379.089 454.155C379.655 455.099 379.844 456.044 380.033 457.177C380.033 457.555 379.466 462.278 378.333 461.522C377.955 461.333 377.766 461.333 377.577 461.333C362.081 449.055 339.781 450.188 326.742 465.3ZM325.23 469.834C322.773 470.212 319.939 469.078 318.616 467C315.97 463.6 317.86 460.578 320.506 458.5C319.372 461.144 320.506 463.978 322.206 466.245C323.529 467.945 326.742 469.834 328.065 467.189C329.01 466.245 329.765 465.489 330.71 464.734C330.143 467.189 327.309 469.456 325.23 469.834ZM338.836 415.996C340.348 415.43 342.049 415.052 343.75 414.863C344.506 414.674 345.262 414.674 346.206 414.485C347.529 423.175 348.663 431.864 349.986 440.554C349.419 440.554 348.663 440.743 348.096 440.743C346.395 440.932 344.695 441.309 342.994 441.876C341.482 433.187 340.159 424.686 338.836 415.996ZM374.175 409.763C378.9 408.44 379.466 416.374 377.766 419.208C376.632 421.097 374.931 421.663 372.852 421.286C370.774 421.097 369.64 420.152 369.073 418.641C369.64 419.019 370.207 419.397 370.585 419.963C370.963 420.341 371.529 420.341 371.907 420.341C372.285 420.719 372.852 420.908 373.419 420.53C377.766 417.696 377.01 413.541 374.175 409.763ZM320.884 424.686C317.86 425.064 316.348 422.23 315.592 419.774C322.962 410.14 333.545 405.796 345.262 404.851C349.797 404.473 354.71 404.473 359.246 405.229C362.081 405.796 379.278 412.407 372.096 418.074C366.049 411.463 353.955 410.896 345.64 412.029C336.191 412.974 327.498 417.319 320.884 424.686ZM313.324 426.386C311.813 424.875 311.057 422.608 311.813 420.53C312.38 419.019 313.513 418.074 314.647 417.508C314.458 417.885 314.08 418.263 313.891 418.641C313.702 418.83 313.702 419.019 313.702 419.019C313.702 419.208 313.513 419.208 313.513 419.397C313.324 421.663 314.458 424.119 316.159 425.442C317.482 426.575 319.561 427.708 321.261 427.142C318.805 428.653 315.592 428.464 313.324 426.386ZM332.978 374.249C335.057 373.682 337.136 373.115 339.403 372.926C339.781 372.926 339.97 372.926 340.348 372.737C341.671 382.371 342.994 392.005 344.506 401.64C342.049 401.829 339.592 402.395 337.136 402.962C335.435 393.517 334.112 383.883 332.978 374.249ZM314.647 383.316C311.435 382.371 310.868 378.404 312.191 375.571C318.805 368.959 326.931 364.425 336.191 362.914C346.584 361.214 360.002 363.859 367.561 371.793C367.75 371.982 368.128 372.171 368.317 372.171C369.073 373.115 369.451 374.249 369.64 375.382C369.64 376.893 369.262 378.782 367.75 379.16C367.75 379.16 367.75 379.16 367.561 378.971C358.679 372.548 348.663 367.826 337.702 370.093C328.632 372.171 319.939 375.76 314.647 383.316ZM307.655 384.638C305.765 383.127 304.631 381.427 305.576 378.971C306.332 377.271 308.033 375.382 309.734 374.626V374.815C307.655 378.404 308.978 384.638 313.135 385.772C311.624 386.527 309.545 386.149 307.655 384.638ZM328.065 335.901C329.199 335.712 330.332 335.334 331.466 335.145C332.6 334.956 333.734 334.768 334.868 334.768C336.002 343.268 337.136 351.58 338.269 360.081C338.08 360.081 337.891 360.081 337.702 360.081C335.435 360.27 333.356 360.836 331.088 361.403C330.899 359.136 330.521 356.869 330.332 354.602C330.332 354.414 330.332 354.225 330.332 354.225C330.332 353.658 330.143 353.091 330.143 352.713C329.954 351.391 329.954 350.258 329.765 348.935C329.765 348.746 329.576 348.558 329.576 348.369C329.199 344.024 328.632 339.868 328.065 335.901ZM362.836 333.067C362.836 332.878 362.836 332.69 362.836 332.501C366.238 333.445 369.262 337.034 367.561 340.624C366.427 342.89 364.159 343.268 361.892 343.268C360.191 343.268 358.679 342.89 357.923 341.946C358.112 341.946 358.112 342.135 358.301 342.135C360.38 342.89 362.27 341.379 363.025 339.49C363.781 337.412 363.592 335.145 362.836 333.067ZM310.112 343.646C309.167 343.835 308.222 343.457 307.277 342.513C306.521 341.568 305.765 340.246 305.954 339.112C306.143 339.112 306.143 338.923 306.332 338.923C312.002 331.556 319.372 325.889 328.443 323.811C338.269 321.733 354.71 323.433 360.002 333.445C360.191 333.634 360.38 333.823 360.569 334.012C360.758 336.09 361.136 339.679 358.868 339.49C358.679 339.49 358.49 339.49 358.301 339.49C346.773 325.133 321.073 332.312 310.112 343.646ZM303.687 347.424C301.419 346.291 300.474 343.457 301.23 341.19C301.797 339.301 303.498 336.845 305.576 336.09C305.387 336.468 305.198 336.657 305.009 337.034C304.631 337.034 304.253 337.223 304.065 337.601C301.419 341.946 308.222 349.313 312.38 345.346C312.758 344.968 312.758 344.591 312.758 344.213C313.324 343.835 313.891 343.268 314.458 342.89C314.269 347.613 307.655 349.502 303.687 347.424ZM322.206 293.398C324.285 292.642 326.553 292.075 328.821 291.886H329.01C329.388 294.72 329.765 297.742 330.143 300.765C331.088 307.376 331.844 313.988 332.789 320.6C332.411 320.6 331.844 320.6 331.466 320.789C329.576 320.978 327.876 321.355 325.986 321.922C324.852 312.288 323.529 302.843 322.206 293.398ZM361.703 294.531C361.325 294.153 360.947 293.586 360.569 293.209C362.27 294.72 363.214 296.609 362.081 298.876C361.325 300.387 359.246 301.52 357.734 302.087C357.167 302.276 356.6 302.276 356.033 302.087C356.6 302.276 357.167 301.709 357.545 301.143C359.813 300.576 361.703 298.687 361.703 296.231C361.892 295.664 362.081 295.098 361.703 294.531ZM303.687 302.087C303.498 302.087 303.12 302.087 302.931 302.276C302.175 302.654 301.041 300.954 300.663 300.387C300.285 299.631 300.096 298.876 299.907 298.12C304.065 290.942 310.679 285.841 318.238 283.197H318.427C332.789 278.096 350.364 282.063 359.057 296.042C359.057 296.042 359.057 296.042 359.246 296.231C359.057 297.553 358.112 298.687 356.789 299.065C349.041 293.398 338.647 287.542 328.632 288.864C319.372 289.997 310.301 295.853 303.687 302.087ZM298.017 306.81C295.561 305.298 294.049 302.465 294.994 299.631C295.75 297.553 297.261 296.42 298.962 295.475C298.773 295.664 298.773 296.042 298.584 296.231C298.206 296.231 298.017 296.609 298.017 296.987C298.017 297.365 297.828 297.553 297.828 297.931C297.828 298.12 297.828 298.498 297.828 298.687C297.828 300.387 298.584 302.087 299.718 303.409C300.663 304.543 302.931 305.865 304.065 304.921C304.253 304.921 304.443 304.732 304.631 304.732C305.954 303.598 307.088 302.465 308.6 301.52C309.923 307.376 302.553 309.643 298.017 306.81ZM316.537 251.461C318.994 250.705 321.45 250.138 323.907 249.761C325.041 259.206 326.364 268.84 327.498 278.285C325.23 278.474 322.773 279.041 320.506 279.796C319.183 270.351 317.86 260.906 316.537 251.461ZM353.01 255.617C353.766 254.672 354.521 253.35 354.71 252.028C355.277 253.917 354.71 255.806 353.199 257.317C350.364 259.584 346.395 257.884 346.584 254.483C346.962 254.861 347.529 255.239 347.907 255.617C347.907 255.617 347.907 255.617 347.907 255.806C348.852 258.072 351.687 257.128 353.01 255.617ZM298.017 259.017C297.828 259.017 297.639 259.206 297.639 259.395L297.45 259.584C296.505 260.528 295.372 259.395 294.805 258.261C294.049 256.75 293.482 255.05 293.86 253.35C293.86 253.161 293.86 252.972 293.86 252.783C298.584 247.305 305.576 242.582 313.324 239.749C313.891 239.56 314.458 239.371 315.025 239.371C315.025 239.371 315.025 239.371 315.214 239.371C315.214 239.371 315.214 239.371 315.214 239.182C329.199 234.648 345.073 236.348 352.443 250.327C352.632 251.272 352.632 252.028 352.254 252.972C352.065 253.35 351.498 254.294 350.931 254.672C337.325 240.504 310.679 247.494 298.017 259.017ZM300.285 262.606C298.206 264.495 295.183 264.684 292.915 263.173C289.891 261.095 289.891 257.884 291.214 255.239C291.214 257.506 292.159 259.961 293.482 261.473C295.183 263.362 298.395 262.984 299.34 260.528C300.096 259.773 301.041 259.206 301.797 258.639C301.986 259.961 301.608 261.473 300.285 262.606ZM311.435 211.602C313.891 211.035 316.537 210.846 319.183 210.846C320.128 218.78 321.261 226.903 322.206 234.837C319.75 235.215 317.293 235.782 314.836 236.537C313.513 228.415 312.38 219.914 311.435 211.602ZM346.962 216.702C347.529 215.947 347.907 215.002 348.096 213.869C348.285 215.758 347.718 217.836 345.829 218.78C344.506 219.536 342.616 220.292 340.915 219.725C339.214 219.347 338.458 218.025 338.08 216.702C338.836 217.08 339.403 217.647 340.159 218.025C340.726 218.403 341.104 218.403 341.482 218.214C343.372 218.969 345.64 218.214 346.962 216.702ZM290.458 220.481L290.269 220.669C290.08 220.858 289.702 221.236 289.513 221.425C289.513 221.425 289.513 221.614 289.324 221.614C288.19 221.803 286.49 218.969 286.301 218.214C285.923 216.702 286.301 215.191 287.057 213.869C287.057 213.869 287.057 213.869 287.057 213.68C292.159 208.013 299.34 203.29 307.088 200.457C307.088 200.457 307.277 200.457 307.277 200.268C310.868 198.945 314.647 198.19 318.427 198.001C318.994 198.001 319.372 198.001 319.939 198.001C319.939 198.001 319.939 198.001 319.939 197.812C329.387 197.623 338.647 201.212 344.884 210.091C345.073 210.28 345.262 210.469 345.451 210.658C345.64 211.602 345.64 212.735 345.451 213.68C344.884 215.191 343.561 215.758 342.049 215.191L341.86 215.002C325.797 204.046 303.687 205.935 290.458 220.481ZM292.159 224.259C289.702 225.77 287.057 225.77 284.789 224.07C282.521 222.181 281.009 219.347 282.521 216.514C283.088 215.569 283.844 214.813 284.6 214.247C283.466 216.702 283.655 219.914 285.545 222.181C286.49 223.503 288.001 224.448 289.702 224.259C291.025 224.07 291.97 223.125 292.159 221.992C293.104 221.047 294.049 220.292 294.994 219.536C294.805 221.425 294.049 223.125 292.159 224.259ZM305.954 170.988C307.088 170.61 308.411 170.421 309.545 170.232C310.868 169.854 312.38 169.854 313.702 169.665C313.891 171.365 314.269 173.254 314.458 174.955C315.403 181.944 316.348 188.745 317.104 195.734C314.458 195.923 312.002 196.49 309.356 197.056C308.222 188.367 307.088 179.677 305.954 170.988ZM336.191 180.244C336.002 180.244 335.624 180.055 335.435 180.055C333.923 179.488 332.6 178.166 332.6 176.844C333.356 177.599 334.301 178.166 335.057 179.111C335.246 179.299 335.624 179.488 336.002 179.488C335.813 179.488 336.002 179.866 336.191 180.244ZM286.301 181.377C283.088 180.055 281.009 176.088 282.899 172.877C297.072 157.198 327.309 148.886 339.592 171.177C339.781 171.554 340.159 171.743 340.348 171.932C340.537 173.254 340.726 174.577 340.348 175.899C339.97 177.221 339.214 177.788 338.458 178.355C338.269 177.977 338.08 177.788 337.891 177.41C337.891 177.033 337.703 176.655 337.325 176.466C329.765 169.287 320.695 164.754 310.112 166.832C301.23 168.721 290.08 172.31 286.301 181.377ZM290.836 182.133C290.458 181.755 290.08 181.566 289.513 181.755C289.135 181.755 288.757 181.944 288.568 181.944C289.702 180.055 291.025 178.544 292.726 177.221C292.915 178.922 291.97 180.622 290.836 182.133ZM280.253 182.7C275.34 178.544 277.419 173.821 281.387 170.988C281.009 171.554 280.631 171.932 280.253 172.499C280.064 172.688 280.064 172.877 280.064 173.066C278.931 175.521 279.497 178.544 281.198 180.811C282.521 182.511 284.6 184.022 286.679 184.589C284.6 184.967 282.332 184.211 280.253 182.7ZM311.624 154.742C309.167 154.931 306.71 155.497 304.254 156.253C303.498 149.83 302.553 143.597 301.797 137.174C302.553 136.985 303.12 136.796 303.876 136.796C305.576 136.418 307.277 136.229 308.978 136.229C309.734 142.463 310.679 148.697 311.624 154.742ZM329.954 144.919C328.821 144.541 327.876 143.974 327.687 142.652C328.443 143.219 329.01 143.974 329.765 144.73C329.765 144.73 329.954 144.73 329.954 144.919ZM279.875 150.775C278.175 150.964 276.474 150.397 275.151 149.075C272.883 146.619 273.261 143.974 274.962 141.707C275.151 142.463 276.474 142.841 276.852 141.896C281.954 131.129 291.403 124.517 303.12 123.006C315.025 121.306 329.01 124.328 334.49 136.229C334.679 136.607 334.868 136.796 335.057 136.796C335.624 139.63 335.624 142.463 332.6 143.785C332.6 143.597 332.411 143.408 332.411 143.408C332.411 143.03 332.222 142.652 332.033 142.274C324.474 133.962 313.513 131.696 302.742 134.151C293.86 136.04 282.143 140.763 279.875 150.775ZM282.521 150.019C283.088 148.886 283.655 147.752 284.411 146.808C284.411 148.13 283.655 149.264 282.521 150.019ZM296.883 101.093C298.962 100.526 301.041 100.337 303.309 100.149C304.254 106.76 305.387 113.183 306.332 119.795C304.065 119.983 301.797 120.55 299.529 121.117C298.584 114.316 297.828 107.705 296.883 101.093ZM274.584 116.961C273.45 117.15 272.316 117.15 271.371 116.772C271.182 116.772 271.182 116.772 270.993 116.583C269.671 114.505 269.671 112.427 270.049 110.16C270.238 109.972 270.427 109.783 270.427 109.594C274.017 98.4484 284.222 92.4035 295.183 89.7588C305.765 87.3031 325.608 90.1366 327.309 103.927C327.309 104.304 327.498 104.682 327.876 105.06C328.065 106.005 328.065 106.949 327.876 107.894C327.687 108.838 327.309 109.405 326.742 109.972C316.348 89.7588 280.631 96.1816 274.584 116.961ZM277.23 116.205C277.797 114.883 278.553 113.561 279.309 112.427C279.497 114.127 278.553 115.45 277.23 116.205ZM301.041 86.5475C300.663 86.5475 300.285 86.5475 299.907 86.5475C298.206 86.7364 296.694 86.9253 294.994 87.3031C294.238 81.4471 293.482 75.4021 292.726 69.5461C294.616 69.1683 296.505 68.7905 298.206 68.7905C299.151 74.6465 300.096 80.5025 301.041 86.5475ZM327.12 77.2912C327.12 77.4801 326.931 77.4801 326.931 77.669C326.175 79.1802 324.663 80.5025 322.962 81.0692C320.128 81.8249 317.293 79.9358 317.671 77.2912C318.805 78.2357 319.75 79.1802 320.695 80.3136C321.261 80.8803 321.828 80.8803 322.206 80.5025C322.584 80.6914 322.773 80.6914 323.151 80.5025C325.041 79.7469 326.175 78.6135 327.12 77.2912ZM268.726 84.6584C268.537 84.6584 268.159 84.6584 267.97 84.8473C268.537 84.4695 267.025 82.9583 266.836 82.7694C266.269 81.8249 265.891 80.6914 265.891 79.7469C265.702 78.0468 265.891 75.591 267.025 74.2687C273.828 66.7125 282.71 61.4232 292.915 59.7231C298.395 58.7786 304.065 58.9675 309.545 60.2898C312.191 60.8565 315.025 61.801 317.293 63.3123C321.072 65.5791 330.899 74.0798 322.017 78.2357C314.269 70.3017 305.765 64.8235 294.238 67.0903C283.655 68.7905 275.34 76.1577 268.726 84.6584ZM269.293 87.3031C269.482 87.3031 269.482 87.1142 269.671 87.1142C270.993 85.414 272.505 83.7139 273.828 82.2027C273.828 84.8473 271.749 86.9253 269.293 87.3031ZM264.946 85.9808C263.056 84.0917 262.678 81.4471 263.434 79.1802C263.434 79.7469 263.434 80.5025 263.623 80.8803C264.001 83.1472 265.702 86.7364 268.159 87.3031C268.348 87.3031 268.348 87.3031 268.537 87.3031C268.537 87.3031 268.726 87.3031 268.915 87.3031C267.403 87.492 266.08 86.9253 264.946 85.9808ZM216.946 55.3783C198.237 57.4562 179.906 61.6121 161.576 65.5791C160.064 60.4787 158.174 55.3783 156.095 50.4668C158.363 47.8221 164.032 47.2554 167.245 46.4998C170.836 45.5553 174.615 44.7996 178.206 44.044C184.631 42.7217 191.056 41.7772 197.67 40.8327C205.04 39.6992 212.222 38.7547 219.592 37.9991C225.639 37.4324 228.474 38.7547 231.119 44.6107C232.442 47.4443 233.198 50.8446 234.143 53.8671C228.474 54.2449 222.615 54.8116 216.946 55.3783ZM158.552 66.1458C158.363 65.5791 158.174 65.0124 157.985 64.4457C158.174 64.2568 158.363 64.0679 158.552 64.0679C158.741 64.8235 159.119 65.3902 159.308 66.1458C158.93 66.1458 158.741 66.1458 158.552 66.1458ZM157.229 62.3677C156.851 61.6121 156.662 60.6676 156.284 59.912C156.473 59.7231 156.662 59.5342 156.851 59.3453C157.229 60.2898 157.418 61.0454 157.796 61.9899C157.607 61.9899 157.418 62.1788 157.229 62.3677ZM154.206 54.2449C154.017 53.867 154.017 53.4892 153.828 53.1114C154.017 52.9225 154.394 52.5447 154.583 52.3558C154.772 52.7336 154.961 53.3003 155.15 53.6781C154.583 53.867 154.394 54.056 154.206 54.2449ZM155.717 55.7561C155.906 56.1339 156.095 56.7006 156.095 57.0784C155.906 57.2673 155.717 57.4562 155.339 57.6451C155.15 57.2673 154.961 56.7006 154.772 56.3228C155.15 56.1339 155.339 55.945 155.717 55.7561ZM149.292 68.0349C134.93 70.8684 120.568 72.9464 106.016 74.6465C105.827 68.2238 104.127 62.1788 100.914 56.5117C113.953 51.0335 127.371 46.4998 141.166 43.4773C149.103 41.7772 157.04 40.2659 164.977 39.5103C168.568 39.1325 182.174 36.4879 183.119 40.8327C180.284 41.3994 177.639 41.7772 174.804 42.3439C169.135 43.4773 158.363 43.8551 154.394 48.9555C154.206 48.9555 154.017 49.1444 154.017 49.3333C153.45 50.089 152.883 50.8446 152.127 51.6002C151.749 51.7891 151.371 52.1669 151.56 52.7336C153.261 57.2673 154.772 61.801 156.473 66.1458C154.017 67.0903 151.749 67.6571 149.292 68.0349ZM906.335 655.149C896.508 600.178 886.682 545.396 876.288 490.613C876.477 490.425 876.477 490.047 876.477 489.669C870.43 455.477 863.815 421.097 857.012 387.094C857.012 386.905 857.012 386.716 857.012 386.527C853.422 370.093 850.02 353.469 846.43 337.034C856.445 305.11 866.272 273.185 876.288 241.26C886.115 209.713 896.319 177.977 903.312 145.486C903.501 144.919 903.123 144.352 902.556 144.163C902.556 143.597 902.367 143.03 901.8 142.841C888.193 138.874 874.02 138.496 860.414 134.34C861.737 122.439 863.06 110.538 864.193 98.6373C864.193 97.6928 863.248 97.315 862.493 97.8817C839.248 90.3255 815.437 86.5475 791.437 83.1472C789.925 76.3466 788.602 69.735 787.091 62.9344C785.201 54.4338 783.311 45.9331 781.421 37.4324C779.909 30.8207 779.343 23.0757 775.941 17.2196C770.461 7.39662 758.744 10.4191 750.24 14.1972C749.673 10.0413 749.106 5.69648 748.539 1.54059C748.539 1.54059 748.539 1.54059 748.539 1.35169C748.539 0.596071 747.783 -0.159545 746.838 0.029359C628.35 28.7428 506.27 37.8102 384.758 39.6992C355.088 40.077 324.096 39.3214 296.883 52.7336C296.694 52.7336 296.694 52.9225 296.505 52.9225C296.127 53.1114 295.75 53.3003 295.75 53.8671C295.75 54.6227 296.128 55.5672 296.694 55.945C296.694 56.3228 296.883 56.7006 296.883 57.0784C295.183 57.2673 293.482 57.4562 291.781 57.834C291.781 57.6451 291.781 57.4562 291.781 57.4562C291.781 57.0784 291.592 56.8895 291.403 56.7006C291.025 55.945 290.458 55.3783 289.324 55.3783H289.135H288.946C271.749 53.6781 254.552 53.3003 237.545 54.2449C236.033 49.1444 234.899 38.9436 229.985 36.299C224.127 33.0876 212.411 37.0546 206.174 37.8102C199.56 38.7547 192.946 39.6992 186.332 40.8327C186.332 39.8881 186.143 38.9436 186.143 38.188C186.143 37.6213 185.576 37.0546 185.009 37.0546C156.284 35.9212 125.859 43.8551 99.78 55.5672C98.2682 55.5672 98.2682 56.3228 98.8351 56.8895V57.0784C101.859 62.7455 103.56 68.6016 103.938 75.0243C69.7326 78.9913 35.1498 80.6914 0.566932 82.3916C0.377955 82.3916 0.188977 82.3916 0 82.5805V85.0362C0.188977 85.0362 0.377955 85.2251 0.566932 85.2251C48.5672 82.9583 96.9454 80.6914 144.19 72.0018C168.568 67.4681 192.19 61.0454 216.946 58.2118C240.19 55.5672 263.812 55.3783 287.057 57.2673C287.246 57.2673 287.246 57.4562 287.435 57.4562C287.812 57.4562 288.001 57.834 288.19 58.0229C288.19 58.2118 288.379 58.4007 288.568 58.4007C279.875 60.8565 271.749 65.768 265.891 72.7575C265.702 72.9464 265.702 72.9464 265.513 73.1353C265.324 73.1353 265.135 73.1353 264.946 73.3242C259.844 77.2912 258.71 86.3586 265.324 89.7588C270.616 92.4035 279.686 86.5475 276.096 80.5025C276.096 80.5025 276.096 80.5025 276.096 80.3136C280.253 76.1577 285.167 72.5686 290.836 70.6795C291.592 76.5355 292.348 82.3916 292.915 88.2476C283.466 90.8923 274.395 96.5594 270.238 105.249C269.86 105.06 269.482 105.06 269.104 105.438C263.812 109.972 264.19 118.472 271.749 119.984C274.962 120.55 278.175 120.172 280.442 117.717C282.143 115.828 283.466 112.427 281.387 110.538C284.789 106.76 289.513 103.738 294.616 102.227C295.372 109.027 296.316 115.639 297.072 122.439C288.946 125.273 281.576 130.373 277.23 137.363H277.041C274.017 138.874 271.56 141.141 271.182 144.541C270.805 147.941 272.316 151.153 275.151 152.853C280.631 156.442 291.025 151.531 287.246 144.352C290.647 141.519 294.994 139.63 299.151 138.307C299.907 144.73 300.852 151.153 301.608 157.387C295.561 159.464 289.891 162.865 285.356 167.21H285.167C280.82 168.343 276.474 170.799 275.151 175.332C274.017 179.488 276.285 183.266 279.686 185.722C283.277 188.178 287.624 188.556 291.214 185.911C294.427 183.644 296.694 179.488 295.183 175.521C297.639 174.01 300.474 172.877 303.498 171.932C304.631 180.622 305.765 189.5 306.899 198.19C299.718 200.646 292.915 204.801 287.812 210.28H287.624C284.222 211.791 280.253 214.247 279.686 218.403C279.12 221.992 281.576 225.392 284.411 227.092C290.269 230.681 299.34 224.825 297.45 218.025C301.041 215.569 304.82 213.68 308.789 212.547C309.923 221.047 311.057 229.359 312.191 237.86C305.198 240.504 298.584 244.66 293.86 249.761C293.671 249.761 293.671 249.761 293.482 249.95C287.435 253.35 285.356 262.228 292.159 266.195C298.395 269.785 306.143 263.928 304.631 257.128C307.466 255.428 310.679 253.917 314.08 252.594C315.403 262.039 316.726 271.485 318.049 280.93C311.435 283.197 305.387 287.164 301.23 292.453C297.261 293.209 293.293 295.853 292.348 300.009C291.403 303.976 293.671 307.565 297.072 309.643C300.474 311.532 305.009 311.91 308.222 309.454C311.246 307.376 312.38 303.409 310.868 300.009C310.868 300.009 310.868 299.82 310.679 299.82C313.513 297.742 316.726 295.853 319.939 294.531C321.261 303.976 322.584 313.232 323.718 322.678C317.293 324.945 311.624 328.912 307.277 334.201C303.876 333.256 300.663 336.845 299.34 339.679C297.639 343.079 298.395 347.424 301.608 349.691C307.277 353.658 319.561 349.88 316.915 341.379C319.75 339.49 322.584 337.979 325.797 336.845C326.553 342.89 327.498 348.935 328.254 354.98C328.254 355.169 328.443 355.358 328.443 355.547C328.632 357.814 328.821 360.081 329.01 362.159C322.584 364.237 316.726 367.637 312.002 372.548C311.813 372.548 311.813 372.359 311.624 372.359C308.222 371.982 305.009 375.193 303.498 378.027C302.175 381.049 302.931 384.072 305.387 386.149C307.844 388.416 311.435 389.739 314.647 388.416C317.293 387.283 319.372 384.638 319.372 381.805V381.616C322.584 378.782 326.175 376.893 330.143 375.382C331.277 385.016 332.411 394.461 333.923 404.095C327.498 406.173 321.639 409.574 317.104 414.674C313.891 415.052 310.49 416.752 309.356 420.152C308.222 423.175 309.356 426.575 311.813 428.842C317.293 433.564 327.12 430.542 326.931 422.608V422.419C329.765 420.341 332.789 418.641 336.002 417.319C337.325 425.819 338.647 434.509 339.97 443.01C333.167 445.276 326.175 449.432 322.395 455.099C319.183 456.233 315.781 458.5 314.836 461.9C314.08 465.111 315.403 468.512 318.049 470.59C320.884 472.668 325.23 473.612 328.443 471.912C331.277 470.401 334.301 466.434 333.356 463.033C336.191 460.956 339.214 459.444 342.238 458.311C343.372 466.623 344.506 474.745 345.451 483.057C345.262 483.246 345.073 483.435 345.073 483.813C345.073 484.569 345.262 485.135 345.262 485.891C337.514 488.724 330.899 493.636 326.175 500.625C325.986 500.625 325.797 500.625 325.608 500.625C322.395 502.137 319.372 504.781 319.372 508.559C319.372 511.771 321.828 514.415 324.663 515.549C327.687 516.682 331.088 516.116 333.734 514.227C336.002 512.526 338.458 509.882 336.38 507.237C339.592 504.404 343.372 502.137 347.34 500.437C348.663 510.071 349.986 519.516 351.309 529.15C343.561 531.983 336.758 536.895 332.789 543.696C332.222 543.696 331.844 543.884 331.655 544.451C331.277 544.64 330.143 545.207 329.954 545.207C329.388 545.585 329.01 546.151 328.443 546.718C327.498 547.851 326.931 549.363 326.931 550.685C326.742 553.896 328.443 556.919 331.277 558.43C334.301 560.13 338.08 559.752 340.726 557.674C343.183 555.974 345.073 552.574 342.616 549.929C345.829 547.285 349.419 545.018 353.199 543.318C354.332 552.385 355.466 561.641 356.6 570.898C356.6 571.276 356.789 571.464 356.978 571.653C356.978 572.22 357.167 572.598 357.167 573.165C350.931 575.431 345.262 579.587 340.915 585.254C334.49 587.899 330.521 595.833 337.325 600.745C340.159 602.823 344.317 603.2 347.34 601.122C349.797 599.422 351.309 596.022 350.364 593.188C353.01 591.111 355.844 589.41 358.868 588.277C360.002 598.289 361.136 608.49 362.27 618.502C355.655 621.335 350.175 626.058 346.773 632.481C341.104 633.992 336.947 642.87 342.616 647.026C347.34 650.426 356.033 647.026 354.521 640.603C357.356 637.581 360.569 635.314 364.159 633.614C365.293 642.87 366.616 652.315 367.939 661.572C361.136 664.216 355.277 668.561 352.065 674.039C345.073 676.684 343.372 686.318 349.797 690.852C356.222 695.386 366.049 690.285 363.403 682.162C363.214 681.784 363.025 681.596 362.836 681.407C365.104 679.518 367.561 677.818 370.396 676.495C373.041 693.874 376.065 711.065 379.466 728.255C364.348 730.144 349.23 732.6 334.301 735.622C334.112 735.622 334.112 735.811 333.923 735.811H347.34C357.167 734.111 366.994 732.6 376.632 730.9C375.687 733.355 366.049 733.733 364.159 734.111C360.947 734.678 357.734 735.244 354.521 735.811H368.128C371.529 735.244 375.12 734.678 378.522 734.3C378.9 734.3 379.277 733.733 379.277 733.166C379.277 731.655 379.278 731.466 378.9 730.522C379.278 730.522 379.655 730.333 380.033 730.333C380.789 730.9 382.301 730.333 382.112 729.011C378.522 711.254 375.498 693.308 372.852 675.362C375.687 674.417 378.522 673.662 381.545 673.473C381.545 673.851 381.545 674.039 381.734 674.417C381.356 674.606 381.167 674.984 381.167 675.551C384.569 693.308 387.97 711.254 391.561 729.011C391.561 729.388 392.128 729.955 392.695 729.955L394.207 729.766C394.207 730.333 394.396 730.711 394.585 731.277C394.585 731.466 394.396 731.655 394.585 732.033C394.585 732.222 394.774 732.411 394.774 732.6V732.789C394.774 733.166 394.963 733.355 395.152 733.544C395.152 734.111 395.53 734.489 396.096 734.489C397.041 734.3 397.797 734.3 398.742 734.111C399.12 734.678 399.309 735.244 399.498 736H401.955C401.766 735.244 401.577 734.489 401.199 733.922C443.53 728.822 486.05 724.099 528.381 717.865C553.515 715.787 579.216 713.898 604.161 710.309C631.373 706.342 658.397 702.186 685.988 700.297C686.177 700.297 686.366 700.486 686.555 700.297C719.059 697.086 751.563 693.119 784.067 689.53C812.414 686.507 841.138 682.918 869.863 681.785C869.674 681.785 869.674 681.973 869.674 682.162C865.894 682.729 861.737 682.729 859.469 682.918C854.556 683.485 849.642 684.051 844.729 684.618C834.902 685.752 825.075 686.885 815.059 687.829C794.839 690.096 774.618 692.363 754.398 694.819C715.279 699.353 675.972 703.886 636.854 708.798C636.665 708.798 636.476 708.609 636.287 708.609C599.058 712.765 562.397 719.565 525.168 722.21C508.349 723.343 491.53 726.555 474.9 729.011C461.861 731.089 448.821 733.166 435.971 735.622H449.388C510.428 724.477 572.601 720.699 634.019 711.065C634.208 711.254 634.397 711.443 634.775 711.254C678.24 706.342 721.515 700.864 764.98 695.763C786.713 693.308 808.445 690.663 829.988 688.396C840.382 687.263 850.776 686.129 860.981 684.996C862.682 684.807 864.76 684.807 866.839 684.618C759.689 703.509 651.972 711.631 545.011 724.666C519.31 727.877 493.42 731.277 467.908 735.433H483.215C582.05 721.454 681.452 713.52 780.287 700.108C810.335 696.141 840.193 691.419 870.052 685.94C870.241 685.94 870.241 685.94 870.43 685.94C870.808 685.94 871.186 685.752 871.375 685.563C871.563 685.374 871.752 684.996 871.752 684.618C871.752 684.24 871.752 683.862 871.752 683.485C872.697 683.296 873.831 682.918 874.587 682.351C874.776 682.54 875.154 682.54 875.343 682.54C876.288 682.351 877.233 681.973 878.178 681.596C878.556 681.784 879.123 681.596 879.5 681.218C880.256 680.273 880.067 678.951 879.878 677.818C879.69 676.306 879.312 674.795 878.934 673.284C879.69 673.284 880.445 673.095 881.39 673.095C882.146 673.095 882.524 672.528 882.713 671.961C883.091 671.773 883.469 671.206 883.28 670.639C870.241 612.457 856.634 554.463 846.052 495.714C835.658 438.287 824.886 380.671 814.114 323.244C808.067 290.942 801.831 258.45 795.595 226.148C795.784 225.959 795.784 225.581 795.784 225.203C787.28 186.1 778.02 147.375 769.327 108.46C766.492 78.6135 757.988 49.5222 755.909 19.4865C755.909 18.7309 755.153 18.3531 754.586 18.3531C753.453 18.542 752.13 18.7309 750.996 18.9198C750.996 18.542 750.807 18.3531 750.807 17.9753C750.807 17.4085 750.618 16.8418 750.618 16.2751C759.311 12.6859 770.461 9.28566 774.996 20.9977C777.075 26.6648 778.02 33.4654 779.343 39.5103C782.555 53.6781 785.768 67.8459 788.791 82.0138C788.98 82.5805 788.98 83.1472 789.169 83.9028C788.98 84.2806 789.169 84.6584 789.358 84.8473C795.217 111.672 800.697 138.496 806.555 165.32C806.555 165.509 806.744 165.698 806.933 165.887C812.225 194.978 818.839 223.692 825.453 252.405C825.453 252.405 825.453 252.405 825.453 252.594C828.477 266.762 831.689 280.93 834.713 295.098C834.713 295.287 834.713 295.475 834.902 295.475C837.925 309.265 840.949 323.244 843.973 337.034C843.784 337.412 843.973 337.79 844.162 338.168C847.752 354.602 851.343 370.848 854.744 387.283C854.744 387.472 854.933 387.85 855.122 387.85C860.225 420.53 866.272 453.211 873.453 485.513C882.902 542.373 894.052 599.044 904.068 655.716C904.068 655.905 904.068 655.905 904.068 656.094V656.282C904.257 656.849 904.257 657.605 904.446 658.172C904.446 658.549 904.635 658.738 904.823 658.927C908.603 671.961 909.548 687.263 895.375 694.252C882.902 700.486 867.028 702.375 853.422 704.642C837.737 707.287 822.051 709.742 806.366 711.82C805.988 711.631 805.61 711.631 805.232 712.009C791.248 714.087 777.075 715.976 763.09 717.676C708.476 724.855 653.862 730.522 599.058 735.622H625.893C629.861 735.244 633.83 734.867 637.799 734.489C637.987 734.867 638.177 735.244 638.177 735.622H640.633C640.444 735.244 640.255 734.678 640.066 734.3C641.389 734.111 642.901 734.111 644.224 733.922C644.413 734.489 644.413 734.867 644.602 735.244C644.035 735.244 643.657 735.433 643.09 735.433C642.901 735.433 642.901 735.433 642.712 735.622H665.767C677.106 734.489 688.444 733.166 699.594 731.844C699.783 731.844 699.972 731.844 699.972 731.844C728.886 728.444 757.799 724.855 786.713 721.077C787.091 721.266 787.469 721.077 787.658 720.888C791.626 720.321 795.784 719.754 799.752 719.188C821.485 716.165 843.406 713.143 865.138 709.553C865.516 709.742 865.705 709.553 866.083 709.365C870.052 708.798 874.02 708.042 877.989 707.476C890.65 705.398 908.036 699.164 909.548 685.374V685.185C909.926 682.162 910.115 679.329 909.926 676.306C910.304 668.939 908.414 661.572 906.335 655.149Z" fill="black"/>
</svg>
