<svg width="354" height="184" viewBox="0 0 354 184" fill="none" xmlns="http://www.w3.org/2000/svg">
<g clip-path="url(#clip0_39_6227)">
<path d="M32.3506 55.323C31.9411 56.9622 30.9174 58.3965 29.4842 59.2161C29.0747 59.421 28.6652 59.6259 28.051 59.8308C28.87 59.2161 29.4842 58.1916 30.0984 57.372C31.3269 55.7328 32.1458 53.8887 32.5553 51.8397C32.5553 51.6348 32.5553 51.6348 32.5553 51.4299C32.7601 52.6593 32.7601 54.0936 32.3506 55.323ZM26.4131 58.3965C25.1846 59.0112 24.1609 58.1916 23.5467 57.372C23.1372 56.3475 22.7277 55.323 22.5229 54.5034C21.9087 52.2495 21.4992 49.9956 21.2945 47.7417C21.2945 46.9221 21.4992 46.1025 21.704 45.2829C21.704 45.078 21.9087 44.6682 21.9087 44.4633C23.1372 42.8241 25.3893 42.2094 27.232 43.029C29.6889 44.2584 30.7126 47.3319 30.5079 49.9956C30.3032 51.6348 29.6889 53.274 28.87 54.7083C28.4605 55.323 28.051 56.1426 27.6415 56.7573C27.4368 57.372 27.0273 58.1916 26.4131 58.3965ZM5.11982 64.1337C3.27714 62.0847 3.27714 58.6014 3.48188 56.1426C3.68662 51.225 4.50559 46.3074 5.93879 41.5947C5.73405 45.6927 6.14353 49.9956 6.55302 54.0936C6.75776 55.5279 6.9625 56.9622 7.16725 58.3965C7.37199 59.6259 7.57673 60.8553 8.19096 61.8798C8.60045 62.4945 9.62416 63.1092 10.4431 63.3141C10.4431 63.519 10.2384 63.519 10.2384 63.7239C9.00993 65.1582 6.9625 65.9778 5.11982 64.1337ZM21.704 38.931C17.1996 41.1849 15.7664 46.5123 15.9712 51.0201C15.357 52.4544 14.7427 54.0936 14.1285 55.5279C13.5143 57.1671 12.9 59.0112 12.0811 60.6504C12.0811 60.6504 11.8763 60.6504 11.8763 60.8553C11.4668 61.2651 10.8526 61.2651 10.2384 61.0602C9.62416 60.6504 9.62416 59.6259 9.41942 58.8063C9.00993 56.7573 8.80519 54.7083 8.60044 52.4544C8.19096 48.1515 7.78148 43.8486 8.19096 39.5457C8.3957 36.882 9.00993 34.4232 9.8289 31.9644C10.2384 30.9399 10.8526 29.9154 11.2621 28.8909C12.0811 27.2517 13.1048 25.6125 13.9238 23.9733C14.7427 22.9488 15.5617 22.1292 16.5854 21.3096C18.0186 20.0802 19.6565 18.8508 21.4992 18.2361C23.3419 17.6214 25.7988 17.8263 26.4131 20.0802C26.4131 20.2851 26.6178 20.49 27.0273 20.6949C27.232 21.7194 29.2795 21.9243 29.2795 20.6949C29.2795 17.8263 27.4368 15.5724 24.9799 14.5479C22.1135 13.5234 19.2471 13.9332 16.7902 15.5724C14.1285 17.4165 12.2858 20.2851 10.6479 23.1537C8.80519 26.2272 7.16725 29.5056 5.73405 32.784C2.86765 39.5457 0.820226 46.7172 0.410741 54.0936C0.205998 57.5769 0.00125533 61.47 1.84394 64.7484C3.48188 67.617 6.9625 69.666 10.2384 68.2317C13.5143 66.7974 14.9475 63.3141 16.1759 60.2406C16.9949 57.9867 18.0186 55.7328 18.8376 53.4789C19.0423 53.8887 19.0423 54.2985 19.2471 54.7083C20.066 57.1671 20.885 60.2406 23.1372 61.8798C26.8225 64.5435 32.3506 62.9043 34.6028 59.0112C37.0597 54.7083 36.4454 48.5613 34.1933 44.2584C31.9411 39.9555 26.6178 36.4722 21.704 38.931Z" fill="black"/>
<path d="M79.8498 59.4209C80.2593 55.9376 80.6688 52.4543 81.283 48.971C80.8735 57.7817 80.0545 66.5924 78.8261 75.4031C78.8261 73.7639 78.8261 72.3296 79.0308 70.6904C79.2356 67.0022 79.6451 63.314 79.8498 59.4209ZM67.3605 56.3474C67.77 55.9376 68.1795 55.7327 68.3842 55.5278C69.2032 54.7082 70.0222 53.8886 70.8411 53.069C70.8411 53.6837 70.4316 54.5033 70.0222 54.9131C69.6127 55.3229 69.2032 55.7327 68.7937 56.1425C68.3842 56.1425 67.9747 56.3474 67.3605 56.3474ZM112.404 39.5456C112.404 39.1358 112.609 38.1113 112.813 37.9064C112.813 37.9064 112.813 37.9064 113.018 37.9064C113.223 37.9064 113.428 38.1113 113.837 38.1113C114.451 38.3162 115.27 38.5211 115.885 38.9309C115.68 38.9309 115.68 38.9309 115.475 38.9309C114.451 38.726 113.632 38.9309 113.018 39.7505C112.404 40.5701 112.199 41.5946 111.79 42.4142C111.79 42.2093 111.79 42.2093 111.79 42.0044C111.994 41.1848 112.199 40.3652 112.404 39.5456ZM128.579 38.5211C130.216 37.7015 131.854 37.0868 133.697 36.8819C132.264 39.9554 130.421 42.824 128.169 45.4877C126.736 47.1269 124.484 49.9955 122.232 49.7906H122.027C122.027 49.7906 121.822 49.7906 121.822 49.5857C121.617 48.971 121.822 48.1514 121.822 47.5367C122.027 46.3073 122.436 45.0779 123.05 44.0534C124.484 41.5946 126.326 39.7505 128.579 38.5211ZM140.044 55.9376C139.43 56.5523 138.816 57.167 137.997 57.167C136.564 57.3719 135.335 56.3474 134.721 55.3229C133.288 53.069 133.697 50.2004 133.902 47.5367C134.107 48.971 134.311 50.2004 134.516 51.6347C134.721 53.069 135.13 54.5033 136.359 55.5278C137.587 56.3474 138.816 56.3474 140.044 55.9376ZM138.406 52.6592C138.201 52.6592 138.201 52.4543 138.406 52.6592V52.6592ZM145.777 48.1514C145.982 47.7416 146.186 47.3318 146.391 46.7171C146.391 46.922 146.391 46.922 146.391 47.1269C146.391 47.5367 146.186 47.7416 145.777 48.1514ZM122.027 49.7906C122.232 49.7906 122.232 49.7906 122.027 49.7906V49.7906ZM171.779 35.6525C171.575 35.4476 171.37 35.2427 171.165 34.8329C171.165 34.628 170.96 34.628 170.96 34.4231C173.008 34.628 175.26 34.628 177.512 34.4231C175.465 35.0378 173.622 35.2427 171.779 35.6525ZM157.243 40.5701C157.243 40.775 157.243 40.5701 157.243 40.5701V40.5701ZM225.012 44.873C223.989 46.7171 222.555 48.3563 220.917 49.5857C219.689 46.7171 218.87 43.8485 218.87 40.5701C218.87 40.3652 218.87 40.1603 218.87 39.9554C219.075 39.9554 219.484 39.7505 219.484 39.5456C219.894 37.7015 220.303 35.8574 221.327 34.2182C221.532 34.0133 221.736 33.8084 221.941 33.3986C222.351 32.7839 222.965 32.1692 223.579 31.7594C223.784 31.7594 223.784 31.5545 223.989 31.3496C224.603 31.7594 225.422 31.5545 226.036 31.1447C226.446 31.5545 226.65 32.3741 226.65 32.9888C226.855 34.0133 226.855 35.2427 226.855 36.2672C226.855 38.726 226.241 40.9799 225.627 43.2338C225.627 43.4387 225.627 43.4387 225.627 43.6436C225.422 43.8485 225.217 44.4632 225.012 44.873ZM216.413 51.2249C216.208 50.8151 215.799 50.6102 215.594 50.2004C215.185 49.3808 214.775 48.5612 214.57 47.7416C214.366 47.1269 214.366 46.3073 214.366 45.6926C214.366 43.8485 214.775 42.0044 215.389 40.3652C215.594 39.9554 215.594 39.5456 215.799 39.3407C216.413 38.1113 217.027 36.8819 217.846 35.6525C218.051 35.4476 218.051 35.2427 218.256 35.0378C216.413 40.1603 216.823 46.1024 219.484 50.6102C218.461 51.2249 217.437 51.6347 216.413 51.2249ZM96.0245 54.5033C97.2529 53.6837 98.2766 52.4543 99.3004 51.4298C100.324 50.2004 101.143 48.971 101.962 47.7416C102.781 46.5122 103.395 45.0779 104.009 43.6436C104.624 47.5367 104.828 51.4298 105.033 55.3229C105.033 56.7572 107.9 57.5768 108.104 55.9376C108.514 54.5033 108.923 52.8641 109.128 51.4298C109.333 51.02 109.537 50.6102 109.742 50.4053C110.766 48.5612 111.585 46.7171 112.404 44.6681C112.813 43.6436 113.223 42.824 113.428 41.7995C113.632 41.5946 113.632 41.1848 113.837 40.9799C114.247 40.5701 114.861 40.9799 115.27 40.9799C116.294 41.1848 117.318 41.3897 118.546 41.5946C118.956 41.5946 119.365 41.7995 119.775 41.7995C119.57 42.0044 119.57 42.2093 119.365 42.4142C117.932 45.2828 116.294 50.2004 119.365 52.4543C122.436 54.9131 126.326 52.4543 128.579 50.2004C129.807 48.971 130.831 47.7416 131.854 46.3073C131.854 46.922 131.65 47.5367 131.65 47.9465C131.24 51.02 131.24 54.7082 133.492 57.167C134.516 58.1915 135.745 59.0111 137.382 59.216C138.816 59.216 140.044 58.3964 141.068 57.167C142.296 55.7327 143.32 54.2984 144.344 52.8641C145.163 51.8396 145.982 50.8151 146.596 49.7906C147.21 51.2249 148.029 52.6592 149.462 53.6837C152.124 55.3229 155.605 54.9131 157.447 52.2494C158.471 50.6102 158.88 48.7661 158.676 46.922C160.109 47.7416 161.337 48.5612 162.975 49.3808C165.637 50.6102 168.708 51.8396 171.779 51.02C173.212 50.6102 174.441 49.5857 174.85 48.1514C175.26 46.5122 174.85 44.873 174.646 43.4387C174.031 41.1848 173.212 39.1358 172.189 37.2917C174.031 37.2917 176.079 37.0868 177.922 36.677C179.559 36.2672 181.197 35.8574 182.835 35.2427C181.812 39.1358 181.402 43.2338 181.402 47.3318C181.402 49.3808 181.607 51.4298 182.835 53.2739C183.859 54.7082 185.702 55.9376 187.544 55.5278C189.387 55.118 190.82 53.6837 191.844 52.2494C193.072 50.6102 194.301 48.7661 195.529 46.922C197.372 44.0534 199.01 40.9799 200.238 37.9064C199.829 40.9799 199.624 44.0534 200.034 47.1269C200.238 48.971 200.648 51.02 202.081 52.4543C203.514 53.8886 205.767 53.8886 207.2 52.6592C208.633 51.4298 209.452 49.3808 210.271 47.5367C210.476 49.5857 211.09 51.4298 212.318 53.069C214.366 55.5278 217.642 56.1425 220.508 54.7082C223.17 53.4788 225.422 51.02 227.264 48.5612C230.336 43.8485 232.178 37.2917 230.336 31.7594C229.312 28.6859 226.241 26.8418 223.17 27.6614C222.965 27.6614 222.555 27.8663 222.351 27.8663C220.713 27.8663 219.075 28.481 218.051 29.5055C215.799 31.5545 213.956 34.2182 212.728 36.8819C212.728 37.0868 212.523 37.0868 212.523 37.2917C212.318 37.2917 211.909 37.2917 211.704 37.7015C211.09 38.5211 210.271 39.1358 209.861 40.1603C209.452 41.1848 208.838 42.0044 208.428 43.0289C207.609 44.873 206.79 46.7171 205.767 48.5612C205.562 49.1759 205.152 49.5857 204.743 49.9955C204.333 50.2004 204.538 50.2004 204.129 49.7906C203.31 48.5612 203.31 46.5122 203.31 45.0779C203.105 40.9799 203.924 36.8819 204.333 32.7839C204.948 28.6859 205.562 24.5879 206.176 20.4899C206.995 15.9821 207.814 11.2694 209.042 6.76164C209.042 6.55674 209.042 6.14694 209.042 5.94204C210.885 5.94204 212.728 5.94204 214.57 6.14694C216.413 6.35184 218.256 6.55674 220.303 7.17144C221.122 7.37634 221.941 6.76164 222.146 5.94204C222.351 5.12244 221.736 4.09794 220.917 3.89304C217.437 2.25384 213.137 2.45874 209.452 2.66364C206.176 2.66364 202.286 2.66364 199.42 0.819545C197.986 -0.204954 196.348 1.63914 197.782 2.86854C200.238 4.91754 202.9 5.73714 205.971 5.94204C204.743 12.2939 202.9 18.6458 200.648 24.9977C199.419 28.0712 198.191 31.3496 196.963 34.4231C196.348 36.0623 195.529 37.4966 194.915 39.1358C194.71 39.5456 194.506 39.9554 194.301 40.5701C194.096 40.775 193.891 40.775 193.687 40.9799C191.435 43.8485 189.387 46.7171 187.34 49.5857C187.34 49.3808 187.135 48.971 187.135 48.5612C186.93 46.922 187.135 45.0779 187.34 43.4387C187.749 39.3407 188.159 35.0378 189.182 30.9398C189.592 29.5055 187.544 28.481 186.521 28.6859C184.269 29.3006 181.812 29.9153 179.355 30.3251C178.536 30.3251 177.717 30.53 177.103 30.53C175.669 30.53 174.236 30.53 172.803 30.53C171.165 30.53 169.527 30.3251 168.094 29.9153C167.275 29.7104 166.456 29.3006 165.637 28.8908C165.227 28.6859 164.818 28.2761 164.409 28.0712C164.204 28.0712 164.204 27.8663 163.999 27.8663C163.18 27.4565 162.156 27.6614 161.747 28.481C161.337 29.3006 161.542 30.3251 162.361 30.9398C162.771 31.3496 163.385 31.5545 163.794 31.9643C164.409 33.8084 165.842 35.4476 167.07 37.0868C168.913 39.1358 171.165 41.5946 171.165 44.4632C171.165 45.0779 171.165 46.3073 170.551 46.5122C170.141 46.7171 168.913 46.3073 168.503 46.3073C167.07 46.1024 165.432 45.6926 163.999 45.0779C162.771 44.4632 161.542 43.8485 160.723 42.824C160.109 42.0044 159.699 41.1848 159.495 40.3652C159.495 39.9554 159.29 39.5456 159.29 39.1358C159.29 39.1358 159.29 38.9309 159.085 38.9309C159.085 38.3162 158.061 38.1113 157.857 38.726C157.652 38.726 157.652 38.726 157.447 38.9309C157.243 39.1358 156.833 39.1358 156.628 39.3407C156.219 39.7505 155.809 40.1603 155.605 40.775C155.4 41.1848 155.195 41.7995 155.195 42.4142C155.195 43.0289 155.4 43.6436 155.809 44.0534C156.424 45.8975 156.628 47.9465 155.809 49.5857C154.99 51.2249 153.352 51.6347 151.919 50.4053C150.281 48.7661 150.691 45.6926 150.895 43.6436C151.1 40.775 151.51 38.1113 152.124 35.2427C152.533 33.3986 149.258 32.1692 148.643 34.2182C147.415 37.2917 146.186 40.3652 144.753 43.4387C143.934 45.0779 143.32 46.5122 142.501 47.9465C141.887 49.1759 141.068 50.6102 140.249 51.8396C139.839 52.2494 139.43 52.4543 139.02 52.8641C138.611 51.4298 138.406 49.9955 138.201 48.3563C137.792 45.0779 137.587 41.5946 137.792 38.3162C137.792 38.1113 137.792 37.7015 137.587 37.4966C137.997 37.4966 138.406 37.7015 138.816 37.7015C139.839 37.7015 141.068 37.0868 141.273 36.0623C142.092 33.1937 137.587 33.1937 135.745 33.6035C135.13 33.6035 134.516 33.8084 133.902 34.0133C133.697 34.0133 133.697 34.2182 133.492 34.2182C133.288 34.2182 132.878 34.2182 132.469 34.2182C130.831 34.4231 129.193 34.8329 127.76 35.6525C127.35 35.8574 127.145 36.0623 126.941 36.0623C126.326 35.4476 125.098 35.0378 124.279 36.0623C122.846 37.9064 119.979 37.2917 118.137 36.677C115.885 35.8574 111.994 33.8084 110.356 36.4721C109.742 37.7015 109.537 39.3407 109.128 40.5701C108.719 42.0044 108.309 43.6436 108.104 45.0779C108.104 45.0779 108.104 45.0779 108.104 45.2828C107.695 42.6191 107.081 39.9554 106.262 37.2917C106.057 36.677 105.238 36.0623 104.419 36.2672C103.6 36.2672 103.19 36.8819 102.986 37.4966C102.371 40.1603 101.348 43.0289 99.9146 45.4877C98.4814 47.7416 96.6387 50.4053 94.5913 51.8396C94.1818 52.0445 93.977 52.2494 93.5676 52.4543C93.5676 52.2494 93.5676 52.2494 93.5676 52.0445C93.7723 51.6347 93.7723 51.2249 93.977 51.02C94.1818 50.4053 94.5913 49.5857 94.796 48.971C96.0245 46.3073 97.2529 43.6436 97.6624 40.5701C97.8672 39.1358 97.8671 37.9064 97.4577 36.4721C97.2529 35.8574 97.0482 35.0378 96.6387 34.4231C96.0245 33.6035 95.0008 33.3986 94.1818 33.3986C91.3154 33.1937 88.449 35.0378 87.0158 37.4966C86.4016 38.3162 85.9921 39.3407 85.7873 40.1603C85.7873 39.3407 85.7873 38.5211 85.7873 37.7015C85.7873 36.0623 83.9447 35.0378 82.7162 36.2672C82.5115 36.2672 82.5115 36.4721 82.5115 36.4721C82.5115 36.4721 82.5115 36.677 82.3067 36.677C79.2356 39.9554 76.1644 43.2338 73.0933 46.5122L72.8885 46.7171C72.0696 45.2828 71.0459 43.8485 70.2269 42.6191C68.9984 40.775 67.77 38.726 67.77 36.677C67.77 35.2427 65.7226 34.2182 65.1083 35.8574C64.9036 36.4721 64.4941 37.0868 64.2894 37.9064C61.423 42.824 58.5566 47.7416 55.8949 52.6592C55.4854 53.2739 56.7139 54.0935 57.1234 53.4788C56.9186 54.0935 56.5091 54.7082 56.3044 55.118C55.8949 56.3474 57.7376 57.167 58.3518 55.9376C60.8087 50.8151 63.4704 45.6926 65.9273 40.5701C66.3368 41.3897 66.7463 42.2093 67.1558 43.0289C68.3842 45.0779 69.8174 46.922 70.6364 48.971C69.8174 49.7906 68.9984 50.6102 68.3842 51.4298C67.5652 52.2494 66.951 53.069 66.132 53.8886C65.3131 54.7082 64.4941 55.5278 64.2894 56.5523C63.8799 58.6013 66.132 60.0356 67.9747 60.2405C69.6127 60.4454 71.2506 59.8307 72.4791 58.6013C74.936 56.3474 75.3455 53.2739 74.5265 50.2004C75.1407 49.5857 75.7549 48.971 76.3692 48.3563C78.0071 46.7171 79.4403 45.0779 81.0783 43.2338C78.8261 55.5278 77.5976 68.2316 77.5976 80.7305C77.5976 81.5501 77.3929 82.3697 77.8024 82.9844C78.2119 83.5991 78.8261 84.0089 79.4403 83.5991C79.8498 83.3942 80.0545 83.1893 80.0545 82.7795C80.8735 83.1893 82.102 82.7795 82.3067 81.5501C83.3304 74.5835 84.5589 67.8218 85.5826 60.8552C86.1968 57.3719 86.6063 53.8886 87.2205 50.4053C87.63 47.3318 88.0395 44.0534 89.0632 41.1848C89.8822 38.9309 91.7249 36.4721 94.1818 36.4721C95.0008 38.726 94.1818 41.1848 93.3628 43.2338C92.7486 44.6681 92.1344 46.1024 91.5201 47.5367C90.9059 48.971 90.2917 50.4053 90.2917 52.0445C90.2917 53.6837 91.5201 55.118 93.1581 55.3229C93.5676 55.5278 95.0008 55.118 96.0245 54.5033Z" fill="black"/>
<path d="M186.929 13.5234C186.929 13.7283 187.134 13.9332 187.134 14.1381C187.134 14.343 187.134 14.343 187.339 14.5479C187.543 14.9577 187.748 15.1626 187.953 15.3675C188.157 15.5724 188.362 15.5724 188.567 15.7773C188.772 15.7773 188.976 15.9822 189.181 15.9822H189.386C189.795 15.9822 190 15.9822 190.41 15.9822C190.41 15.9822 190.41 15.9822 190.614 15.9822C190.819 15.9822 191.024 15.7773 191.024 15.7773C191.229 15.5724 191.433 15.5724 191.433 15.3675C191.638 15.1626 191.638 14.9577 191.843 14.7528C192.048 14.5479 192.048 14.1381 192.048 13.7283C192.048 13.3185 192.048 12.7038 191.843 12.294C191.843 12.0891 191.638 11.8842 191.433 11.8842C191.229 11.6793 191.229 11.6793 191.024 11.4744C190.819 11.2695 190.614 11.2695 190.41 11.0646C190.41 11.0646 190.41 11.0646 190.205 11.0646C190 11.0646 189.795 10.8597 189.591 10.8597C189.591 10.8597 189.591 10.8597 189.386 10.8597C189.181 10.8597 189.181 10.6548 188.976 10.6548C188.772 10.6548 188.772 10.6548 188.567 10.6548C188.362 10.6548 188.157 10.6548 187.953 10.8597C187.748 11.0646 187.543 11.0646 187.339 11.2695C187.339 11.2695 187.339 11.2695 187.134 11.4744C186.929 11.6793 186.929 11.6793 186.724 11.8842C186.724 11.8842 186.724 11.8842 186.724 12.0891C186.724 12.294 186.52 12.294 186.52 12.4989V12.7038C186.52 12.9087 186.52 13.1136 186.52 13.1136C186.929 13.1136 186.929 13.3185 186.929 13.5234Z" fill="black"/>
<path d="M234.839 60.0356C235.249 59.4209 235.453 59.0111 235.453 58.3964C235.453 57.9866 235.658 57.5768 235.658 56.9621C235.658 55.9376 235.863 54.9131 235.863 53.8886C236.067 51.8396 236.068 49.7906 236.272 47.7416C236.272 46.1024 234.02 45.4877 233.611 47.3318C233.201 49.3808 232.792 51.2249 232.587 53.2739C232.382 54.2984 232.382 55.3229 232.177 56.3474C232.177 56.7572 231.973 57.3719 231.973 57.7817C231.973 58.3964 231.973 59.0111 232.382 59.6258C232.792 60.4454 234.43 60.8552 234.839 60.0356Z" fill="black"/>
<path d="M278.653 29.9153C279.472 29.3007 280.905 29.0958 281.724 29.7104C282.543 30.53 281.724 32.3741 281.11 33.1937C280.086 34.4231 278.653 35.4476 277.015 35.2427C276.606 35.2427 275.992 35.0378 275.582 34.8329C275.582 34.628 275.787 34.4231 275.991 34.0133C276.606 32.579 277.425 30.9398 278.653 29.9153ZM273.739 42.0044C273.535 43.2338 273.535 44.4632 273.535 45.6926C272.92 43.8485 273.33 41.5946 273.944 39.7505C274.149 39.1358 274.354 38.5211 274.558 37.9064H274.763C274.354 39.3407 273.944 40.5701 273.739 42.0044ZM253.675 53.069C254.494 50.4053 255.517 47.7416 256.541 45.0779C256.746 45.2828 256.95 45.4877 256.95 45.6926C257.565 46.5122 257.974 47.3318 258.384 48.1514C259.612 50.2004 261.864 52.0445 264.526 51.02C267.188 49.9955 268.621 46.922 269.644 44.4632C269.849 46.7171 270.668 48.7661 272.716 50.4053C275.173 52.2494 278.244 52.2494 280.905 50.6102C283.362 49.1759 285 46.3073 285.819 43.6436C286.024 42.824 285.614 42.2093 285 41.7995C285 41.5946 285 41.3897 285 40.9799C284.795 40.5701 284.181 40.1603 283.772 40.3652C283.362 40.775 283.157 41.1848 282.953 41.5946C282.748 42.0044 282.543 42.4142 282.339 42.824C281.52 44.0534 280.905 45.4877 279.882 46.5122C278.858 47.5367 277.22 48.5612 275.787 48.1514C275.582 47.7416 275.582 46.922 275.377 46.5122C275.377 45.4877 275.173 44.2583 275.377 43.2338C275.377 41.5946 275.787 39.9554 276.196 38.3162C278.039 38.726 280.291 38.5211 282.134 37.2917C284.181 36.0623 285.614 33.6035 285.819 31.3496C285.819 28.686 284.181 26.4321 281.52 26.0223C277.425 25.2027 274.968 28.2762 273.33 31.5545C272.306 30.7349 270.873 30.7349 270.668 32.3741C270.054 35.6525 268.826 38.9309 267.392 42.0044C266.778 43.4387 266.164 44.873 265.345 46.1024C264.935 46.922 264.116 48.1514 262.888 47.9465H262.683L262.478 47.7416C262.274 47.5367 261.864 46.922 261.66 46.7171C261.045 45.6926 260.636 44.6681 259.817 43.8485C259.203 43.2338 258.588 42.6191 257.974 42.2093C259.612 38.3162 261.66 34.4231 263.707 30.53C263.912 30.3251 264.116 29.9153 264.321 29.5055C264.526 28.686 264.116 27.8664 263.502 27.4566C262.888 27.0468 261.864 27.0468 261.455 27.6615C261.25 27.8664 261.25 28.2762 261.045 28.4811C260.226 29.3006 258.384 27.4566 257.769 27.0468C256.95 26.2272 255.517 26.0223 254.903 27.2517C254.494 28.4811 253.879 29.7105 253.675 30.9398C253.47 31.9643 252.856 33.3986 253.06 34.628C253.265 35.6525 254.698 36.677 255.722 36.0623C256.336 35.6525 256.541 34.8329 256.131 34.2182C256.131 34.2182 256.131 34.2182 256.131 34.0133C256.336 33.3986 256.541 32.7839 256.541 32.1692C256.746 31.7594 256.95 31.1447 256.95 30.7349C257.565 31.1447 258.179 31.5545 258.793 31.7594C256.95 35.0378 255.517 38.3162 254.084 41.5946C253.47 41.7995 253.06 42.0044 252.651 42.2093C249.375 44.4632 249.58 48.7661 250.399 52.2494C250.603 53.8886 253.06 54.9131 253.675 53.069Z" fill="black"/>
<path d="M260.435 19.4655C260.639 19.8753 261.049 20.0802 261.458 20.2851C261.663 20.49 261.868 20.49 262.072 20.49C262.277 20.49 262.482 20.49 262.687 20.49C263.096 20.49 263.506 20.2851 263.915 20.0802C264.529 19.6704 264.939 19.0557 264.939 18.2361C264.939 17.8263 264.939 17.6214 264.939 17.2116C264.939 16.8018 264.734 16.5969 264.529 16.1871L264.325 15.9822C264.12 15.5724 263.915 15.3675 263.506 15.1626C263.096 14.9577 262.891 14.7528 262.482 14.7528C262.277 14.7528 261.868 14.7528 261.663 14.7528C261.458 14.7528 261.458 14.7528 261.253 14.7528C261.049 14.7528 260.844 14.9577 260.844 15.1626C260.639 15.1626 260.639 15.3675 260.639 15.5724C260.435 15.7773 260.435 15.9822 260.435 16.1871C260.23 16.1871 260.23 16.392 260.23 16.392C260.025 16.8018 259.82 17.0067 259.82 17.4165C259.82 17.8263 259.82 18.2361 260.025 18.6459C260.025 18.8508 260.23 19.2606 260.435 19.4655Z" fill="black"/>
<path d="M184.269 73.7639C184.474 73.9688 184.474 73.9688 184.679 74.1737C184.883 74.1737 184.883 74.3786 185.088 74.3786C185.498 74.5835 185.702 74.5835 186.112 74.5835C186.317 74.5835 186.317 74.5835 186.521 74.3786C186.726 74.3786 186.726 74.1737 186.931 74.1737C187.136 74.1737 187.136 73.9688 187.136 73.7639C187.34 73.559 187.34 73.3541 187.34 73.1492C187.34 72.9443 187.34 72.7394 187.34 72.3296C187.34 72.1247 187.136 71.9198 187.136 71.51C186.931 71.1002 186.726 70.6904 186.521 70.4855C186.317 70.2806 186.317 70.0757 186.112 69.8708C185.907 69.6659 185.498 69.2561 185.293 69.0512C185.088 68.8463 184.883 68.8463 184.679 68.8463C184.474 68.8463 184.269 68.6414 184.064 68.8463C183.86 68.8463 183.86 68.8463 183.655 68.8463C183.45 68.8463 183.245 69.0512 183.245 69.0512C183.041 69.0512 183.041 69.2561 183.041 69.2561C182.836 69.461 182.836 69.6659 182.836 69.8708C182.836 70.2806 182.836 70.6904 183.245 70.8953L183.45 71.1002C183.655 71.51 183.86 71.7149 183.86 72.1247C183.86 71.9198 183.86 71.9198 183.655 71.7149C183.655 71.9198 183.86 72.3296 183.86 72.5345C184.064 73.1492 184.269 73.559 184.269 73.7639Z" fill="black"/>
<path d="M221.94 68.4365C221.94 68.2316 221.94 68.0267 221.94 67.6169C221.94 67.412 221.735 67.2071 221.735 67.0022C221.735 66.7973 221.53 66.5924 221.326 66.5924C221.121 66.5924 221.121 66.3875 220.916 66.3875C220.711 66.3875 220.507 66.1826 220.302 66.1826C220.097 66.1826 220.097 66.1826 219.893 66.1826C219.688 66.1826 219.483 66.1826 219.278 66.3875C218.869 66.5924 218.664 67.0022 218.664 67.412C218.664 67.6169 218.664 67.8218 218.664 68.2316C218.664 68.4365 218.664 68.4365 218.664 68.6414V68.8463C218.664 69.0512 218.664 69.0512 218.664 69.2561C218.664 69.461 218.664 69.461 218.869 69.6659C218.869 69.8708 219.074 70.0757 219.278 70.2806C219.278 70.4855 219.483 70.4855 219.688 70.4855C219.893 70.6904 220.097 70.6904 220.302 70.6904C220.507 70.6904 220.507 70.6904 220.711 70.6904C220.916 70.6904 220.916 70.6904 221.121 70.6904C221.326 70.6904 221.53 70.4855 221.53 70.2806C221.735 70.0757 221.735 70.0757 221.94 69.8708C221.94 69.6659 222.145 69.461 222.145 69.461C222.145 69.2561 222.145 69.0512 222.145 69.0512V68.8463C221.94 68.8463 221.94 68.6414 221.94 68.4365Z" fill="black"/>
<path d="M49.3438 158.797C45.8632 150.192 46.0679 140.151 49.7533 131.751C49.5485 132.16 49.5485 132.775 49.3438 133.185C48.7296 135.849 48.3201 138.717 48.1153 141.586C47.9106 144.454 47.9106 147.323 47.9106 149.987C48.1153 152.445 48.3201 155.109 49.139 157.363C49.5485 158.592 49.958 159.617 50.5722 160.641C50.9817 161.256 51.3912 161.871 52.0054 162.485C50.5722 162.281 49.7533 160.027 49.3438 158.797ZM73.7082 151.421C72.8892 151.421 71.8655 151.831 72.0702 152.855C72.0702 153.88 71.8655 154.699 71.6607 155.519C71.456 156.339 71.0465 156.953 70.4323 157.568C70.0228 157.978 69.8181 157.978 69.4086 158.183C69.2038 158.183 68.9991 158.183 68.5896 158.183C68.3848 158.183 68.3849 158.183 68.3849 158.183C67.9754 157.363 67.7706 156.134 67.5659 155.314C66.9517 151.216 66.3374 147.323 65.7232 143.225C65.7232 142.815 65.7232 142.61 65.9279 142.405C65.9279 141.791 65.9279 141.381 65.5185 140.971V140.766C65.5185 139.947 64.29 139.537 63.6758 140.151C63.0615 140.151 62.4473 140.561 62.2426 141.176C60.1951 146.708 58.1477 152.241 56.1003 157.773C55.8955 158.387 55.4861 159.207 55.2813 159.822C55.0766 160.232 54.6671 160.436 54.2576 160.846C53.8481 161.256 53.6434 161.461 53.0292 161.051C52.4149 160.232 51.8007 159.412 51.3912 158.592C49.5485 154.699 49.5485 149.782 49.7533 145.684C49.958 140.971 50.5722 136.258 51.8007 131.751C52.2102 130.521 52.6197 129.087 53.0292 127.857C53.2339 127.243 53.4386 126.423 53.8481 125.808C55.4861 125.399 56.7145 127.038 57.5335 128.472C57.5335 128.882 57.5335 129.292 57.5335 129.702C57.5335 130.111 57.943 130.316 58.3525 130.316V130.521C58.9667 131.955 61.6283 131.751 61.0141 129.906C60.1951 127.038 59.1714 124.169 56.305 122.735C55.0766 122.12 53.4386 121.915 52.0054 122.325C50.5722 122.94 49.5485 123.964 48.7296 125.194C45.6584 130.111 43.611 135.644 42.9968 141.381C42.3825 147.118 42.9968 153.06 45.0442 158.388C45.8632 160.846 47.0916 163.715 49.5485 165.149C52.4149 166.993 55.4861 165.969 57.3287 163.51C59.5809 160.846 60.3999 157.158 61.6283 153.88C61.6283 153.675 61.8331 153.47 61.8331 153.265C62.2426 155.929 63.0615 158.592 65.109 160.437C67.1564 162.281 70.4323 162.485 72.6844 160.641C74.9366 158.797 75.7556 155.724 75.1414 153.06C75.3461 152.24 74.5271 151.421 73.7082 151.421Z" fill="black"/>
<path d="M66.7468 136.258C67.7705 136.258 68.3848 135.234 68.18 134.414C67.9753 133.39 67.1563 132.775 66.1326 132.775C65.1089 132.775 64.4946 133.8 64.6994 134.619C64.9041 135.644 65.7231 136.258 66.7468 136.258Z" fill="black"/>
<path d="M168.911 131.136C169.525 130.521 170.344 129.906 171.368 129.906C171.573 129.906 171.573 129.906 171.982 130.111V130.316C171.982 130.521 171.982 130.521 171.982 130.726C171.982 130.521 171.982 131.341 171.982 131.341C171.982 131.751 171.778 132.16 171.573 132.365C171.163 133.185 170.344 133.8 169.525 134.414C168.502 134.824 167.478 135.234 166.454 135.439C166.659 133.8 167.683 132.16 168.911 131.136ZM139.019 149.372C139.224 149.372 139.224 149.372 139.019 149.372V149.372ZM132.672 142.2C132.467 142.2 132.672 141.996 132.672 141.996V142.2ZM121.411 151.011C121.206 151.011 121.206 151.011 121.411 151.011C121.206 151.011 121.411 151.011 121.411 151.011ZM121.001 150.601C121.001 150.396 120.797 150.192 120.797 150.192C120.592 148.962 120.797 147.528 121.001 146.503C121.82 143.84 123.458 141.381 125.915 139.947C127.144 139.332 128.577 138.717 129.805 138.512C127.553 142.815 124.892 146.913 121.411 150.192C121.616 150.192 121.206 150.396 121.001 150.601ZM108.512 139.947C107.898 138.922 107.284 137.898 106.874 136.873C106.669 136.463 106.465 135.849 106.26 135.439C107.488 135.644 108.512 136.053 109.741 136.258C110.355 136.463 110.969 136.463 111.583 136.668C111.583 136.668 111.583 136.668 111.788 136.668C111.379 137.078 111.174 137.283 110.764 137.693C110.15 138.512 109.536 139.127 108.717 139.947C108.717 139.947 108.717 139.947 108.512 139.947C108.512 140.151 108.512 139.947 108.512 139.947ZM112.607 136.873C113.221 136.873 112.812 137.283 112.607 136.873V136.873ZM172.392 142.815C171.163 144.454 169.73 146.503 167.478 146.913C165.431 147.323 165.021 145.684 164.612 143.84C164.407 142.2 164.407 140.766 164.816 139.127C168.911 139.127 172.801 137.898 174.849 134.209C176.077 131.955 175.872 128.882 173.62 127.243C171.163 125.399 167.887 126.423 165.84 128.267C163.793 130.111 162.359 132.57 161.54 135.234C160.721 135.234 159.903 135.029 159.084 134.824C157.855 134.619 156.422 134.004 154.989 134.209C152.122 134.414 151.099 137.078 150.689 139.537C150.28 137.488 149.87 135.439 149.461 133.595C149.051 131.546 146.185 131.136 145.571 133.39C144.342 138.922 142.09 144.249 139.224 149.167C139.428 149.372 139.838 150.192 139.224 149.372C139.224 149.372 139.224 149.372 139.224 149.577C139.224 149.372 139.224 149.372 139.224 149.372C139.019 148.962 138.814 148.757 138.609 148.347C137.995 147.118 137.586 145.889 137.176 144.454C136.562 142.815 136.357 140.971 136.152 139.127C137.381 139.127 137.381 137.078 136.357 136.668C136.357 136.668 136.152 136.668 136.152 136.463C136.152 136.258 136.152 136.053 136.152 135.849C136.152 134.004 133.491 132.775 132.467 134.619C132.467 134.824 132.262 135.029 132.058 135.234C131.239 134.619 130.215 134.209 128.986 134.209C127.553 134.209 125.915 134.619 124.687 135.234C121.82 136.463 119.568 138.922 118.34 141.996C117.93 143.225 117.521 144.454 117.316 145.684C116.497 146.503 116.292 147.528 115.883 148.552C115.473 149.372 114.859 150.192 114.245 150.601C113.631 151.011 113.221 151.011 112.402 150.806C111.583 150.396 110.764 149.577 109.945 148.962C109.126 148.347 108.103 147.938 107.079 147.528C109.126 145.274 111.174 143.02 113.016 140.766C114.04 139.742 115.678 138.307 115.883 136.668C116.088 134.824 114.45 133.8 113.016 133.595C111.379 133.185 109.741 132.98 108.103 132.57C106.669 132.365 105.031 131.751 103.803 132.57C101.96 133.595 102.984 135.849 103.598 137.283C104.417 138.922 105.441 140.356 106.465 141.586C106.669 141.791 106.874 141.996 107.079 141.996C106.26 142.815 105.441 143.84 104.622 144.659C103.394 145.889 102.37 147.323 101.141 148.552C99.094 149.782 97.8655 151.831 96.4323 153.675C95.2038 155.519 97.8655 157.568 99.2987 155.929C100.732 154.29 102.165 152.855 103.598 151.216C104.008 151.011 104.417 150.806 105.031 150.806C107.284 150.396 108.922 152.65 110.56 153.675C112.812 154.904 115.473 154.699 117.316 152.855C117.726 153.88 118.34 154.904 119.363 155.314C120.797 155.724 122.025 154.699 123.254 153.675C123.868 153.265 124.687 152.65 125.301 152.036C125.71 151.626 126.12 151.216 126.325 150.806C128.577 148.757 130.624 146.708 132.672 144.659C132.876 144.659 133.081 144.659 133.286 144.659C133.9 146.913 134.719 149.167 135.948 150.806C136.767 151.831 137.995 152.855 139.428 152.855C140.861 152.855 141.885 152.036 142.704 150.806C144.137 148.347 145.366 145.889 146.594 143.225C146.799 142.61 147.004 141.996 147.413 141.381C148.027 144.659 148.846 147.733 149.461 151.011C149.665 152.036 150.484 152.65 151.508 152.855C152.327 152.855 153.351 152.241 153.351 151.421C153.351 149.987 153.351 148.757 153.555 147.323C153.555 147.118 153.555 147.118 153.76 146.913C154.374 145.479 154.989 144.045 155.603 142.405C156.217 140.971 157.036 139.332 158.06 138.307C158.674 138.512 159.084 138.512 159.698 138.717C160.107 138.717 160.517 138.922 161.131 138.922C160.926 140.971 160.926 142.815 161.131 144.659C161.336 146.298 162.155 147.938 163.383 149.167C164.612 150.396 166.454 151.011 168.092 150.806C171.573 150.601 174.03 147.938 175.872 145.069C176.896 143.225 173.825 140.971 172.392 142.815Z" fill="black"/>
<path d="M171.779 130.111C171.574 130.111 171.779 130.521 171.779 130.111V130.111Z" fill="black"/>
<path d="M256.954 154.494C256.749 154.29 256.749 153.88 256.544 153.47C256.749 153.88 256.954 154.085 257.363 154.29C257.158 154.494 256.954 154.494 256.954 154.494ZM245.898 144.454C244.669 145.889 243.441 147.528 242.212 148.962C241.803 149.372 241.189 149.987 240.574 149.987C240.37 149.987 240.165 149.987 239.96 149.987C239.96 149.987 239.96 149.987 239.755 149.987C239.755 149.987 239.755 149.987 239.551 149.782L239.346 149.577C239.346 149.577 239.346 149.372 239.141 149.372C239.141 149.167 238.936 148.962 238.936 148.757C238.732 148.143 238.527 147.528 238.527 146.913C238.117 144.454 238.732 141.586 239.551 138.922C240.37 139.947 241.598 140.561 243.031 140.561C244.874 140.766 246.921 140.151 248.764 139.537C248.764 139.742 248.764 139.742 248.559 139.947C248.15 141.791 246.921 143.225 245.898 144.454ZM239.96 150.192C240.165 150.192 240.37 150.192 239.96 150.192V150.192ZM249.378 136.463C248.355 136.668 247.536 136.873 246.512 137.078C245.283 137.283 243.441 137.898 242.212 137.283C242.212 137.078 242.417 137.078 242.417 137.078C243.031 136.053 244.055 135.439 244.874 134.824C245.283 134.414 245.898 134.209 246.307 133.8C246.717 133.8 246.921 133.8 247.331 133.8H247.536C247.74 133.8 247.74 133.8 247.945 134.004C248.15 134.004 248.15 134.209 248.355 134.414C248.764 134.824 248.969 135.234 249.174 135.849C249.378 136.053 249.378 136.258 249.378 136.463ZM265.962 144.045C265.962 144.249 266.167 144.249 266.167 144.454C265.962 144.454 265.962 144.454 265.758 144.454C265.962 144.249 265.962 144.045 265.962 144.045ZM220.714 165.764C220.51 167.403 220.1 169.042 219.691 170.477C220.1 169.042 220.305 167.403 220.714 165.764ZM221.943 141.996C221.533 144.454 219.281 146.503 217.234 147.733C216.005 148.552 214.572 149.372 213.139 149.167C212.729 149.167 212.115 148.962 211.91 148.757C211.296 148.347 211.091 148.143 210.682 147.528C209.044 145.069 209.658 141.791 210.477 139.127C210.887 139.537 211.296 139.742 211.706 139.947C212.115 140.356 212.729 140.561 213.139 140.766C214.982 141.381 216.824 141.381 218.667 141.176C219.691 141.176 220.714 141.176 221.738 140.971C221.943 141.381 221.943 141.586 221.943 141.996ZM215.186 118.227C215.596 115.973 216.415 114.129 217.438 112.08C217.438 115.564 217.234 119.252 217.234 122.735C217.234 124.784 217.029 126.628 216.824 128.677C215.186 125.399 214.572 121.915 215.186 118.227ZM221.533 138.717C219.076 138.922 216.824 138.922 214.367 138.512C213.958 138.512 213.548 138.307 213.139 138.307C213.344 138.102 213.344 137.693 213.139 137.283C212.934 136.463 214.367 136.258 214.982 136.258C216.415 136.258 217.848 136.463 219.281 136.873C220.51 137.283 221.124 137.693 221.533 138.717ZM191.846 144.045C191.846 143.84 192.05 143.84 192.05 143.635V143.84C192.05 143.84 191.846 143.84 191.846 144.045ZM178.947 147.733C179.356 148.552 179.766 149.167 180.585 149.782C180.994 149.987 181.199 150.396 181.608 150.396C181.404 150.396 181.199 150.396 181.199 150.396C179.971 150.192 179.152 148.962 178.947 147.733ZM180.994 136.258C180.585 137.078 180.175 137.898 179.766 138.717C179.152 139.742 178.742 140.971 178.537 142.2C178.947 139.947 179.971 138.102 180.994 136.258ZM189.593 129.906C189.798 129.906 190.208 130.111 190.412 130.316C189.593 130.111 188.57 130.111 187.751 130.316C187.137 130.521 186.522 130.726 186.113 130.931C186.932 130.111 188.16 129.497 189.593 129.906ZM186.522 145.069C185.908 145.889 184.884 147.118 183.861 147.528C183.042 147.733 182.427 147.118 182.223 146.298C181.813 145.069 182.223 143.635 182.632 142.61C183.656 139.947 184.884 136.873 187.137 135.029C187.955 134.209 188.979 133.595 190.208 133.595C190.617 133.595 191.027 133.8 191.231 134.004C190.822 136.668 190.208 139.127 188.979 141.381C188.16 142.61 187.341 143.84 186.522 145.069ZM166.253 96.3029C166.048 95.8931 165.639 95.6882 165.434 95.2784C167.891 97.3274 170.552 98.9666 173.624 99.9911C173.419 100.196 173.009 100.196 172.805 100.196C170.348 100.606 167.686 97.9421 166.253 96.3029ZM186.932 98.147C187.137 98.147 187.137 98.3519 186.932 98.147V98.147ZM198.602 84.4187C199.831 82.9844 201.878 81.755 203.311 83.1893C203.925 83.804 204.54 84.8285 204.949 85.6481C204.949 85.853 205.154 86.2628 205.359 86.2628C205.154 86.2628 205.154 86.4677 204.949 86.4677C202.492 86.4677 200.035 86.8775 197.578 86.8775C197.578 86.8775 197.578 86.8775 197.374 86.8775C197.578 86.0579 197.988 85.0334 198.602 84.4187ZM192.46 89.1314C192.665 89.1314 192.665 89.1314 192.869 89.1314C192.665 89.3363 192.46 89.3363 192.46 89.1314C192.46 89.3363 192.46 89.3363 192.46 89.1314ZM143.117 98.9666C143.117 98.5568 142.912 98.3519 142.912 98.147C142.912 97.9421 142.912 97.9421 142.912 97.7372C143.117 98.147 143.322 98.5568 143.526 98.9666H143.322C143.322 98.9666 143.322 98.9666 143.117 98.9666ZM137.589 83.3942C137.589 82.9844 137.794 82.5746 137.794 82.1648C138.203 80.5256 138.408 78.8864 138.817 77.2472C138.817 76.8374 139.022 76.6325 139.022 76.2227C139.022 76.2227 139.022 76.2227 139.022 76.4276C138.817 78.8864 138.613 81.1403 137.998 83.3942C137.794 83.3942 137.589 83.3942 137.589 83.3942ZM141.069 70.6905C141.069 70.8954 141.274 71.1002 141.274 71.3051C141.479 71.7149 141.479 72.3296 141.479 72.7394C140.865 72.5345 140.25 72.3297 139.841 72.5346C140.046 72.1248 140.25 71.5101 140.66 71.1003C140.66 71.1003 140.865 70.8954 141.069 70.6905ZM114.862 103.679C113.839 102.86 113.429 101.63 113.224 100.196C114.043 101.016 114.862 101.63 115.681 102.04C116.91 102.655 118.138 102.86 119.571 103.065C118.343 104.089 116.5 104.909 114.862 103.679ZM123.462 98.3519C122.028 99.7862 119.571 100.196 117.729 99.5813C116.091 98.9666 114.862 97.7372 114.248 96.3029C114.658 95.2784 115.272 94.2539 115.886 93.4343C116.296 93.0245 116.5 92.8196 116.91 92.6147C118.138 91.7951 119.367 91.3853 120.8 91.1804C122.233 91.1804 123.666 91.7951 124.281 93.2294C125.304 94.6637 124.895 96.9176 123.462 98.3519ZM97.2545 77.657C96.2308 77.8619 94.7976 78.2717 93.7739 77.8619C93.5691 77.8619 93.3644 77.657 93.1597 77.4521C95.0023 77.2472 96.845 76.8374 98.6877 76.6325C100.53 76.4276 102.578 76.0178 104.625 75.8129C104.625 75.8129 104.625 75.8129 104.83 75.8129C104.625 75.8129 104.421 76.0178 104.011 76.0178C103.806 76.0178 103.602 76.2227 103.192 76.2227C102.783 76.2227 102.373 76.2227 101.964 76.4276C100.53 76.8374 98.8925 77.2472 97.2545 77.657ZM272.924 96.7127C272.924 96.7127 273.128 96.9176 272.924 96.7127C273.128 96.9176 272.924 96.9176 272.924 96.7127ZM296.06 97.1225C296.264 97.3274 296.674 97.3274 297.083 97.3274C296.674 97.7372 296.264 97.9421 295.855 98.3519C295.65 98.147 295.65 97.7372 295.65 97.5323C295.855 97.3274 295.855 97.1225 296.06 97.1225ZM315.92 81.1403C316.124 81.5501 316.534 81.9599 316.739 82.3697C316.739 82.5746 316.739 82.5746 316.739 82.7795C316.534 84.4187 315.51 86.0579 314.486 87.2873C313.463 88.5167 312.234 89.7461 310.801 90.3608C309.573 90.9755 308.139 90.7706 307.32 89.7461C306.911 87.2873 308.344 84.6236 310.187 82.9844C311.415 81.9599 313.053 80.9354 314.691 80.5256C314.896 80.5256 315.101 80.5256 315.305 80.5256C315.305 80.7305 315.715 80.9354 315.92 81.1403ZM316.329 89.1314C315.101 91.5902 312.439 93.2294 309.777 93.4343C309.368 93.2294 308.958 93.0245 308.549 92.6147C308.754 92.6147 308.958 92.6147 309.368 92.6147C311.415 92.6147 313.463 91.1804 314.896 89.7461C315.715 88.9265 316.534 87.902 317.148 86.8775C316.943 87.6971 316.739 88.3118 316.329 89.1314ZM280.704 138.512C280.294 136.873 279.68 135.234 279.066 133.8C279.885 134.004 280.704 133.595 281.113 132.775C283.366 127.038 283.775 120.686 283.775 114.539C283.775 112.695 283.775 110.646 283.57 108.802C283.57 108.597 283.775 108.392 283.775 107.982C286.027 102.245 288.484 96.7127 290.736 90.9755C290.736 93.4343 290.736 96.098 291.146 98.5568C291.555 100.401 293.807 100.811 294.626 99.5813C294.626 99.5813 294.626 99.7862 294.831 99.7862C295.036 100.401 295.855 100.606 296.469 100.196C298.926 98.5568 300.973 96.5078 302.816 94.2539C303.021 94.049 303.226 93.8441 303.43 93.6392C304.659 95.2784 306.501 96.5078 308.754 96.7127C312.848 97.1225 317.148 95.0735 319.4 91.5902C321.652 87.902 321.652 83.1893 319.195 79.5011C317.762 77.2472 315.305 75.8129 312.644 76.2227C311.415 76.4276 310.187 77.0423 308.958 77.8619C308.344 78.2717 307.935 78.6815 307.525 79.2962C307.32 79.706 307.116 79.9109 306.911 80.1158C304.454 81.3452 302.816 83.5991 301.997 86.2628L301.792 86.4677C299.54 88.7216 297.288 91.1804 295.65 94.049C295.445 94.4588 295.241 94.6637 295.036 95.0735C294.831 94.049 294.831 92.8196 294.831 91.7951C294.831 88.7216 294.831 85.853 294.831 82.7795C294.831 82.5746 294.831 82.5746 294.831 82.3697C295.036 79.9109 295.241 77.4521 295.445 74.9933C295.65 73.3541 295.855 71.51 296.06 69.8708C296.06 69.461 296.06 69.2561 295.855 68.8463C295.855 68.4366 296.06 67.8219 296.06 67.4121H302.816C304.864 67.4121 307.116 67.4121 309.163 67.8219C311.415 68.2317 311.825 65.1582 309.982 64.3386C307.73 63.519 305.478 63.519 303.021 63.519L296.06 63.7239C291.351 63.9288 286.641 64.1337 281.932 64.3386C281.113 64.3386 280.499 65.1582 280.704 65.9778C280.909 66.7974 281.728 67.4121 282.547 67.4121C286.641 67.617 290.532 67.617 294.626 67.617V67.8219C293.603 67.617 292.579 68.0268 292.374 69.2562C292.169 71.3051 291.76 73.1492 291.555 75.1982C290.327 81.9599 287.665 88.5167 285.003 94.6637C284.389 96.098 283.775 97.7372 283.161 99.1715C283.161 97.7372 282.956 96.5078 282.956 95.0735C282.751 91.1804 282.751 87.4922 282.547 83.5991C282.547 82.5746 281.932 81.755 281.113 81.5501C280.294 81.3452 279.271 81.5501 278.861 82.5746C278.247 85.2383 277.428 87.902 276.2 90.3608C275.585 91.5902 275.176 92.8196 274.357 93.8441C273.947 94.6637 273.333 95.4833 272.719 96.098C272.719 95.4833 272.514 95.0735 272.514 94.4588C272.309 93.0245 272.309 91.7951 272.309 90.3608C272.309 87.4922 272.924 84.6236 273.743 81.755C274.357 79.706 271.9 78.2717 270.467 79.706C269.034 80.9354 267.396 82.5746 265.553 82.7795C265.143 82.7795 264.734 82.7795 264.325 82.5746C264.325 82.3697 264.12 82.1648 264.12 82.1648V81.9599C264.324 81.3452 263.71 80.7305 263.096 80.9354C262.891 80.7305 262.687 80.5256 262.482 80.3207C261.253 79.0913 259.001 79.2962 259.206 81.3452C259.206 82.7795 260.025 84.0089 261.049 84.8285C261.049 85.0334 261.049 85.2383 261.049 85.4432C261.049 86.4677 261.049 87.6971 261.049 88.7216C261.049 89.1314 260.844 89.5412 260.844 89.7461C260.434 91.3853 259.615 92.8196 258.796 94.4588C258.387 95.0735 257.977 95.8931 257.568 96.5078C257.363 96.9176 256.954 97.5323 256.544 97.5323C256.34 97.1225 256.34 96.5078 256.34 96.3029C256.135 95.2784 255.725 94.049 255.725 92.8196C255.316 90.7706 255.111 88.7216 254.906 86.6726C254.906 85.2383 254.702 83.804 254.702 82.3697C254.702 81.3452 254.906 80.5256 254.906 79.5011C255.316 75.4031 256.135 71.51 257.568 67.617C257.773 67.2072 257.568 66.5925 257.363 66.3876C257.773 65.568 257.977 64.5435 258.387 63.7239C258.592 62.9043 257.568 62.0847 256.954 62.6994C254.906 64.5435 253.883 67.2072 253.268 69.8708C250.811 76.6325 248.559 83.5991 246.307 90.3608C245.283 92.6147 244.26 95.0735 242.827 97.1225C242.417 97.7372 243.441 98.5568 243.85 97.9421C244.055 97.7372 244.055 97.7372 244.26 97.5323C244.464 98.5568 246.102 99.1715 246.512 97.9421C248.15 93.6392 249.788 89.5412 251.221 85.2383C251.221 87.4922 251.426 89.7461 251.63 92C252.04 95.0735 252.654 100.606 256.749 101.016C257.158 101.016 257.773 101.016 258.182 100.811C258.387 100.811 258.592 100.606 259.001 100.606C259.82 100.196 260.434 99.3764 261.049 98.5568C261.253 98.3519 261.458 98.147 261.458 97.9421L261.663 97.7372C261.663 97.7372 261.663 97.5323 261.868 97.5323C262.891 95.8931 263.915 94.2539 264.529 92.4098C265.348 90.5657 265.553 88.5167 265.553 86.4677H265.758C266.986 86.4677 268.215 86.2628 269.238 85.6481C269.034 87.4922 268.829 89.1314 268.829 90.9755C268.829 92.8196 269.034 94.6637 269.238 96.5078C269.648 98.147 270.672 99.7862 272.514 100.196C275.995 100.811 278.042 96.098 279.271 93.6392C279.271 93.6392 279.271 93.6392 279.271 93.4343C279.475 96.5078 279.475 99.5813 279.68 102.655C279.68 104.294 279.885 105.933 279.885 107.572C278.452 111.67 277.223 115.564 276.404 119.866C275.995 122.325 275.585 124.784 275.585 127.243C275.585 128.062 275.585 128.882 275.79 129.702C274.766 129.087 273.538 129.906 273.538 130.931C273.333 131.136 273.333 131.341 273.333 131.546C273.333 131.955 273.743 132.365 273.947 132.775C274.152 132.98 274.357 133.39 274.357 133.595C274.357 133.595 274.357 133.595 274.357 133.8C275.995 136.873 277.019 140.151 277.019 143.635C277.019 144.659 277.019 145.889 276.404 146.503C275.79 147.118 274.562 146.708 273.947 146.298C272.924 145.684 271.9 144.864 270.876 144.045C269.034 142.2 267.6 140.151 266.577 137.693C265.962 136.053 262.891 135.849 262.891 137.898C262.687 140.971 262.072 143.84 261.049 146.708C260.639 147.938 260.025 149.372 259.411 150.601C259.206 149.372 259.411 148.143 259.206 146.913C259.206 145.274 259.206 143.635 259.411 141.996C259.615 139.332 260.025 136.873 260.639 134.414C260.639 134.414 260.844 134.414 260.844 134.209C261.458 133.8 261.253 133.185 261.049 132.775C261.049 132.57 261.049 132.57 261.049 132.365C261.253 131.955 261.049 131.751 261.049 131.341C261.049 130.521 260.025 129.906 259.411 130.316C259.206 130.316 259.001 130.521 258.796 130.726C256.749 131.955 254.906 132.98 252.859 133.8C252.245 132.365 251.016 131.136 249.583 130.316C246.307 128.677 242.622 129.906 240.165 132.16C239.551 132.16 238.936 132.16 238.527 132.775C237.913 133.8 237.298 134.824 236.889 135.849C235.456 137.693 233.613 139.127 232.18 140.766C229.723 143.02 227.676 145.479 225.628 148.143C225.628 147.118 225.423 146.298 225.423 145.274C225.833 144.249 226.242 143.225 226.447 141.996C227.061 137.898 224.604 134.004 220.714 132.57C221.329 123.759 221.738 114.744 221.533 105.728C222.148 104.909 222.557 104.089 223.171 103.27C223.99 101.835 224.809 100.401 225.423 98.9666C226.038 97.5323 226.242 95.8931 226.242 94.2539C226.242 93.0245 223.99 91.7951 223.581 93.4343C223.171 95.0735 222.352 96.7127 221.533 98.3519C221.533 97.3274 221.533 96.098 221.329 95.0735C221.124 91.3853 220.919 87.4922 220.51 83.804C220.305 81.755 216.824 81.3452 216.824 83.5991C216.824 88.1069 214.777 92.6147 210.887 94.8686C207.406 96.9176 202.492 96.7127 199.831 93.8441C199.012 93.0245 198.602 92.2049 198.193 90.9755C201.469 90.5657 204.949 90.5657 207.816 89.1314C211.501 87.2873 208.839 82.9844 206.997 80.7305C204.13 78.4766 200.65 77.8619 197.578 79.9109C195.121 81.5501 193.688 84.2138 193.279 87.2873H193.074C192.46 87.2873 191.846 87.2873 191.231 87.4922C191.027 87.4922 190.617 87.4922 190.617 87.6971C190.412 87.6971 190.412 87.902 190.208 87.902C189.184 88.5167 189.184 89.5412 189.389 90.5657C189.389 90.9755 189.593 91.3853 189.593 91.7951C189.389 92.2049 189.389 92.6147 189.593 93.0245C189.593 93.2294 189.593 93.2294 189.593 93.4343C188.979 94.049 188.57 94.6637 188.16 95.2784C187.751 96.098 187.341 97.1225 186.932 97.9421C186.932 97.7372 186.727 97.7372 186.727 97.5323C186.522 97.1225 186.318 96.7127 186.318 96.3029C186.113 95.8931 186.113 95.6882 186.113 95.2784C186.113 94.4588 185.908 93.6392 185.908 92.8196C185.908 90.9755 185.703 89.1314 185.499 87.4922C185.499 86.8775 185.703 86.4677 185.703 85.853C186.113 84.4187 185.089 83.1893 183.656 83.1893C179.561 83.1893 175.671 82.9844 171.781 82.1648C170.962 81.9599 170.348 82.3697 169.938 82.9844C169.324 83.1893 169.119 83.804 169.529 84.4187C170.143 85.4432 170.757 86.4677 171.371 87.6971C172.395 90.3608 173.009 93.2294 173.214 96.3029C169.119 94.4588 165.639 91.3853 163.386 87.4922C162.977 86.8775 162.363 86.2628 161.339 86.2628C160.725 86.2628 159.906 86.8775 159.906 87.6971C159.906 90.3608 159.701 93.0245 159.087 95.4833C158.677 96.7127 158.473 98.147 157.858 99.3764C157.654 99.7862 157.449 100.401 156.835 99.9911C156.22 99.3764 156.22 98.147 156.016 97.3274C155.811 95.8931 155.811 94.6637 155.811 93.2294C155.811 90.3608 155.811 87.4922 155.811 84.6236C155.811 83.1893 153.559 82.5746 153.354 84.2138C152.74 87.6971 152.33 90.9755 152.535 94.6637C152.535 94.8686 152.535 95.0735 152.535 95.2784C151.921 94.6637 150.692 94.2539 150.078 95.2784C148.645 96.3029 147.212 97.5323 145.369 98.3519C143.526 95.6882 143.731 92.4098 143.731 89.3363C143.731 88.5167 143.731 87.6971 143.731 86.8775C144.141 86.8775 144.345 86.8775 144.755 86.8775C146.188 86.8775 148.645 87.2873 149.464 85.853C149.873 85.4432 149.669 84.8285 149.464 84.4187C148.44 82.9844 146.188 83.1893 144.55 83.1893C144.345 83.1893 143.936 83.1893 143.731 83.1893C143.731 81.5501 143.731 79.9109 143.731 78.2717C143.731 76.6325 143.731 74.7884 143.526 73.1492C143.322 71.9199 143.322 69.8709 142.298 69.0513C139.841 67.0023 138.203 72.9443 137.794 74.3786C137.384 76.2227 137.179 78.0668 136.77 79.9109C136.565 80.9354 136.36 82.1648 136.156 83.3942C134.108 83.5991 132.061 83.804 130.013 84.0089C127.966 84.4187 128.785 87.0824 130.628 87.0824C132.88 87.0824 135.132 86.8775 137.589 86.8775C137.179 88.3118 136.77 89.5412 136.156 90.9755C135.337 93.2294 134.313 95.2784 132.675 96.9176C131.856 97.7372 130.832 98.5568 129.809 98.7617H129.399C129.399 98.7617 129.194 98.5568 129.194 98.7617C128.99 98.3519 128.785 97.9421 128.785 97.5323C128.58 96.098 128.58 94.4588 128.375 92.8196C128.171 90.9755 128.171 89.3363 127.966 87.4922C127.761 86.2628 125.509 85.853 125.509 87.2873C125.509 87.902 125.509 88.3118 125.509 88.9265C123.871 87.6971 121.619 87.0824 119.367 87.4922C116.5 87.902 113.839 89.5412 112.405 92C111.586 91.7951 110.768 92 110.563 92.8196C109.539 95.6882 108.311 98.3519 106.468 100.811C106.058 101.425 105.649 102.04 105.035 102.45C105.035 102.04 104.83 101.835 104.83 101.425C104.83 100.606 104.83 99.7862 104.83 98.7617C104.625 91.7951 104.83 84.8285 105.035 77.8619C106.673 77.4521 108.515 77.2472 110.153 76.8374C111.586 76.6325 113.02 76.2227 114.453 76.0178C115.886 75.608 117.524 75.608 118.752 74.7884C119.367 74.3786 118.957 73.5591 118.343 73.5591C118.138 73.5591 117.934 73.5591 117.729 73.5591C117.729 72.7395 117.319 71.9198 116.296 71.9198C115.272 71.9198 114.248 71.7149 113.224 71.7149C112.201 71.7149 111.382 71.7149 110.358 71.9198C108.311 72.1247 106.263 72.3297 104.421 72.5346C102.578 72.7395 100.53 73.1493 98.6877 73.5591C96.6403 73.9689 94.5929 74.1737 92.7502 74.7884C91.7265 75.1982 91.7265 76.0178 91.9312 76.8374C91.7265 78.0668 92.5454 79.2962 93.5691 79.706C94.7976 80.3207 96.0261 80.1158 97.2545 79.9109C98.6877 79.706 100.121 79.2962 101.554 79.0913C101.759 79.0913 101.964 79.0913 102.168 78.8864C101.349 85.4432 99.9162 92 98.0735 98.3519C97.664 99.5813 99.7114 100.606 100.121 99.3764C100.735 97.5323 101.349 95.6882 101.759 94.049C101.759 95.0735 101.759 96.3029 101.759 97.3274C101.759 98.9666 101.759 100.401 101.759 102.04C101.759 103.27 101.964 104.499 102.783 105.319C103.602 106.343 105.035 106.753 106.263 106.138C107.492 105.523 108.515 104.294 109.13 103.065C110.153 101.835 110.972 100.401 111.586 98.9666C111.382 101.016 111.996 103.065 113.02 104.499C114.862 106.753 118.138 106.753 120.39 105.319C121.619 104.704 122.438 103.679 123.462 102.655C124.076 102.45 124.69 102.04 125.304 101.63C125.714 101.425 126.123 101.016 126.328 100.606C126.533 101.016 126.942 101.221 127.147 101.63C128.58 102.655 130.423 102.45 131.856 101.835C135.337 99.9911 137.589 96.7127 139.022 93.0245C139.022 94.2539 139.227 95.6882 139.227 96.9176C139.431 98.5568 139.431 100.196 140.455 101.425C141.684 102.86 143.526 103.065 145.369 102.655C148.235 102.04 150.897 100.196 152.535 97.7372C152.74 99.9911 153.354 102.245 155.606 103.474C157.039 104.089 158.677 104.089 159.906 102.86C160.929 101.835 161.339 100.196 161.748 98.7617C162.158 97.1225 162.567 95.4833 162.772 94.049C164.205 97.3274 166.458 100.196 169.733 102.04C171.781 103.065 174.647 103.474 176.08 101.221C176.285 101.016 176.285 100.811 176.49 100.401C176.695 100.196 176.899 99.7862 176.899 99.5813C176.899 95.2784 176.285 90.9755 174.647 86.8775C175.261 87.0824 176.08 87.2873 176.695 87.4922C177.718 87.6971 178.947 88.1069 179.971 88.3118C180.585 88.5167 180.994 88.5167 181.608 88.7216C181.404 89.951 181.404 91.1804 181.608 92.6147C181.813 94.8686 182.223 97.5323 183.451 99.7862C184.475 101.835 187.137 103.884 189.389 102.245C190.412 101.63 190.822 100.401 191.231 99.3764C191.846 97.9421 192.255 96.7127 192.255 95.2784V95.0735C192.255 94.8686 192.255 94.4588 192.46 94.2539C193.074 93.8441 193.484 93.6392 194.098 93.4343C194.303 94.049 194.507 94.6637 194.917 95.2784C197.783 100.401 204.335 102.45 209.863 100.811C212.934 99.9911 215.391 97.9421 217.234 95.2784C217.438 98.5568 217.438 102.04 217.643 105.319C216.619 106.753 215.8 108.187 214.982 109.621C213.548 112.285 212.32 114.949 211.706 118.022C211.296 120.891 211.501 124.169 212.115 127.038C212.729 129.087 213.548 131.136 214.777 132.98C214.163 132.98 213.548 132.98 212.934 133.185C212.525 133.185 212.32 133.39 212.115 133.595C208.225 134.004 205.359 137.488 205.563 141.176C204.949 142.405 204.13 143.84 203.516 145.069C202.697 146.298 201.878 147.528 201.059 148.757C200.65 149.372 199.831 150.601 199.012 150.396C198.193 150.396 197.578 149.577 197.374 148.757C196.759 147.528 196.759 145.889 196.555 144.454C196.145 141.176 195.736 137.693 195.531 134.414C195.531 133.595 194.712 132.98 193.893 132.775C193.279 130.111 190.617 128.267 187.955 128.882C186.318 129.292 184.884 130.521 183.656 131.751C182.223 133.185 180.994 134.414 179.971 136.053C177.718 139.332 176.49 143.02 176.899 146.913C177.104 148.757 177.718 150.806 178.947 152.036C180.175 153.265 182.018 153.88 183.656 153.47C185.908 153.06 187.546 151.626 189.389 150.192C190.617 149.167 191.846 148.347 192.869 147.323C193.074 148.962 193.688 150.601 194.712 152.036C196.555 154.29 199.626 155.109 202.083 153.675C203.106 153.06 203.925 152.036 204.744 151.011C205.359 149.987 206.178 149.167 206.792 148.143C206.997 148.962 207.406 149.782 208.02 150.601C209.044 152.241 210.887 153.47 212.729 154.085C214.982 154.699 217.438 153.88 219.486 152.855C220.714 152.241 221.738 151.421 222.762 150.396C222.762 151.626 222.762 152.855 222.762 154.085C219.691 159.207 217.438 164.739 216.619 170.682C216.005 174.984 216.21 179.287 217.234 183.59C217.643 185.229 220.1 186.254 220.919 184.205C224.195 175.189 225.833 165.969 226.038 156.543C228.495 152.241 231.77 148.552 235.251 145.069C235.251 146.094 235.251 147.323 235.251 148.347C235.456 150.192 236.07 152.241 237.503 153.675C239.346 155.519 241.803 155.929 244.055 154.699C246.102 153.675 247.536 151.421 248.764 149.782C250.402 147.733 252.04 145.889 253.064 143.635C253.678 142.405 254.087 140.971 254.087 139.537C255.111 139.127 255.93 138.717 256.954 138.307C256.135 141.381 255.725 144.659 255.316 147.938C255.111 149.577 254.906 151.216 255.111 152.855C255.111 154.085 255.111 155.724 255.93 156.748C256.544 157.773 257.773 158.183 259.001 157.773C259.615 157.568 260.025 157.158 260.639 156.543C262.277 156.339 263.096 154.904 263.71 153.675C263.915 153.265 264.12 152.855 264.325 152.241C265.553 151.011 266.781 149.577 268.01 148.347C269.853 149.782 271.9 151.216 274.152 152.036C275.381 152.445 277.019 153.47 278.247 152.855C279.066 152.65 279.271 151.831 279.475 151.216C280.499 150.601 281.318 149.577 281.728 148.143C281.523 144.249 281.318 141.176 280.704 138.512Z" fill="black"/>
<path d="M283.976 149.372C282.748 148.757 282.953 147.118 283.362 145.684C283.772 146.298 284.386 146.913 285.205 147.323C286.228 147.938 287.457 147.938 288.685 147.528C287.047 148.962 285.614 150.192 283.976 149.372ZM286.433 144.045C286.638 144.045 286.638 144.045 286.433 144.045V144.045ZM286.433 144.045C286.433 144.045 286.228 143.635 286.228 143.43C286.228 142.405 287.047 141.176 287.662 140.356C288.481 139.127 289.3 138.102 290.119 137.078C291.347 135.644 293.19 134.414 295.032 134.004C294.418 137.078 292.78 139.947 290.528 141.996C289.709 142.61 288.89 143.225 287.866 143.635C287.457 143.84 287.252 143.84 286.843 144.045H286.433ZM323.287 138.307C323.082 138.102 322.877 138.102 322.673 138.102C321.444 138.307 320.42 139.537 319.397 140.356C318.373 141.176 317.349 141.996 316.326 142.815C315.711 143.225 315.302 143.635 314.688 144.045C314.278 144.249 313.664 144.864 313.254 144.864C312.026 144.864 312.026 143.225 312.231 142.405C312.64 140.151 313.664 137.693 314.892 135.849C315.916 134.004 317.349 132.365 318.783 130.931C319.397 131.546 319.806 132.16 320.216 132.98C320.42 133.39 320.83 133.39 321.239 133.185C321.649 133.185 322.263 133.185 322.673 132.775C323.696 131.546 323.492 129.702 322.468 128.267C321.444 126.833 319.806 126.218 318.168 126.423C316.326 126.833 314.892 128.062 313.664 129.497C312.436 130.931 311.412 132.57 310.388 134.004C309.979 134.824 309.364 135.849 308.955 136.668C308.75 136.463 308.545 136.258 308.341 136.053C307.522 135.644 306.907 135.644 306.293 136.258C304.655 137.898 303.017 139.947 301.584 141.791C300.356 139.127 299.741 136.258 299.332 133.185C299.537 132.98 299.537 132.775 299.537 132.57C299.537 132.16 299.537 131.955 299.332 131.546C299.332 130.931 299.332 130.521 299.127 129.906C298.923 127.857 295.237 127.243 295.237 129.702C295.237 129.906 295.237 130.111 295.237 130.316C292.575 130.521 290.119 131.751 288.276 133.39C287.047 134.619 285.819 136.053 284.795 137.488C283.976 138.717 282.953 140.151 282.543 141.791C281.315 144.045 279.881 147.323 281.724 149.577C283.567 152.241 287.252 151.216 289.3 149.372C290.733 147.938 291.961 146.503 293.394 144.864C294.418 143.635 295.647 142.405 296.67 141.176C296.875 141.381 296.875 141.791 297.08 141.996C297.489 143.02 297.899 143.84 298.308 144.864C298.718 145.684 299.332 146.503 299.741 147.528C300.151 148.143 300.765 148.962 301.584 149.372C303.632 150.192 304.86 147.938 305.474 146.503C306.293 145.069 306.907 143.84 307.726 142.405C307.726 143.225 307.931 144.045 308.341 144.864C309.774 148.552 313.869 150.192 317.554 148.962C319.602 148.347 321.035 146.913 322.263 145.274C322.877 144.454 323.287 143.43 323.696 142.61C324.106 141.586 324.72 140.561 324.311 139.537C324.311 138.922 323.901 138.512 323.287 138.307Z" fill="black"/>
<path d="M347.449 117.817L347.244 118.022C348.063 116.383 348.677 114.744 349.087 113.105C349.701 111.056 350.315 109.007 350.52 106.958C350.725 110.851 350.11 115.154 347.449 117.817ZM343.559 136.668C343.559 136.463 343.559 136.258 343.559 136.053L343.763 136.258C343.763 136.258 343.763 136.463 343.559 136.668ZM337.826 133.8C337.826 133.8 337.621 133.8 337.621 133.595V133.39C337.826 133.595 338.235 133.8 338.645 134.004C338.44 134.004 338.235 133.8 337.826 133.8ZM339.464 137.898C339.259 138.102 338.849 138.102 338.645 138.102C338.235 138.102 338.03 137.898 337.826 137.488C338.44 137.693 339.054 137.898 339.464 137.898ZM352.977 101.63C352.158 98.9666 351.134 96.3029 348.882 94.4588C346.834 93.0245 344.582 92.2049 341.921 92C336.188 91.7951 330.66 96.3029 329.636 101.835C329.431 102.655 330.66 103.269 331.274 103.065C331.479 103.065 331.479 103.065 331.683 103.065C332.707 102.245 333.321 101.22 334.345 100.401C335.369 99.5813 336.393 98.7617 337.416 98.147C338.44 97.5323 339.668 96.9176 340.897 96.5078C342.33 96.098 343.763 95.6882 344.992 96.3029C347.244 97.3274 348.268 100.196 348.472 102.655C348.677 105.728 347.858 109.007 347.039 111.875C346.015 114.949 344.787 117.817 342.944 120.481C342.125 120.891 341.306 121.301 340.487 121.71C338.031 122.94 335.574 124.374 333.936 126.833C332.912 128.677 332.502 130.931 332.912 132.775C332.912 135.234 333.936 137.488 335.574 139.332C337.621 141.176 340.283 141.586 342.535 140.151C343.559 139.537 344.582 138.512 345.197 137.283C346.015 136.053 344.992 134.619 343.968 133.8C343.149 133.185 342.125 132.98 341.102 132.775C340.283 132.365 339.054 131.955 338.44 131.341C338.235 131.136 338.235 131.136 338.235 130.931C338.645 129.906 339.054 128.882 339.464 127.857C339.668 127.448 340.078 127.038 340.283 126.628C340.487 126.423 340.692 126.013 340.897 125.808C342.944 124.579 345.401 123.759 347.449 122.325C349.701 120.891 351.339 118.842 352.363 116.383C354.615 111.875 354.205 106.343 352.977 101.63Z" fill="black"/>
<path d="M336.599 114.744C337.213 114.539 337.008 113.515 336.599 113.31C336.394 113.31 336.394 113.105 336.189 113.105C336.189 112.695 335.78 112.285 335.37 112.08C331.89 110.441 327.59 111.056 324.109 112.08C320.424 113.31 317.353 115.359 314.691 118.022C314.077 118.637 314.282 119.457 314.896 120.071C314.691 120.481 314.691 121.096 314.896 121.71C315.101 122.325 316.534 122.325 316.329 121.506C316.329 121.301 316.329 121.096 316.329 121.096C316.739 121.096 317.148 121.096 317.353 120.686C318.172 119.866 319.196 119.047 320.219 118.432C320.219 118.432 320.424 118.432 320.424 118.227C322.062 117.408 323.905 116.588 325.747 116.178C327.59 115.564 329.433 115.359 331.275 115.154C332.094 115.154 333.118 114.949 333.937 114.949C334.756 114.949 335.78 115.154 336.599 114.744Z" fill="black"/>
<path d="M340.691 146.708C340.896 146.708 340.896 146.913 340.691 146.708C340.896 146.913 340.896 146.913 340.691 146.708C340.896 146.913 340.896 146.913 340.896 146.913C340.896 146.913 340.896 146.913 340.896 147.118C340.896 147.323 340.896 147.528 340.896 147.733C340.896 147.528 340.896 147.528 340.691 147.323C340.691 147.118 340.691 146.913 340.691 146.708C340.486 146.708 340.486 146.708 340.486 146.708C340.691 146.708 340.691 146.708 340.691 146.708ZM341.715 145.069C341.51 145.069 341.51 144.864 341.51 144.864C340.691 144.454 339.872 144.454 339.053 144.659C338.848 144.659 338.439 144.864 338.234 144.864C338.029 144.864 337.825 144.864 337.62 144.864C337.415 144.864 337.415 144.864 337.21 144.864C337.006 144.864 336.596 144.864 336.391 145.069H336.187C335.982 145.069 335.777 145.274 335.572 145.274C335.368 145.479 335.163 145.479 335.163 145.684C335.163 145.889 334.958 146.094 334.958 146.298C334.754 146.503 334.754 146.913 334.958 147.118C334.958 147.323 335.163 147.528 335.163 147.733C335.163 148.347 335.163 148.962 335.368 149.577C335.982 151.216 337.825 152.241 339.463 151.831C341.101 151.626 342.534 150.396 343.557 148.962C343.762 148.552 343.967 148.347 344.172 147.938C344.376 147.323 344.172 146.913 343.967 146.298C343.148 146.094 342.534 145.479 341.715 145.069Z" fill="black"/>
</g>
<defs>
<clipPath id="clip0_39_6227">
<rect width="354" height="184" fill="white"/>
</clipPath>
</defs>
</svg>
