<svg width="329" height="44" viewBox="0 0 329 44" fill="none" xmlns="http://www.w3.org/2000/svg">
<g opacity="0.46">
<g opacity="0.46">
<path opacity="0.46" d="M318.195 34.1247C317.891 34.7319 317.891 34.7319 318.195 34.1247C318.195 33.2138 318.195 32.9102 318.498 33.2138C318.195 33.5174 318.195 33.821 318.195 34.1247ZM317.588 23.4979C317.588 23.1943 317.588 22.8907 317.891 22.8907C318.195 22.8907 318.195 23.1943 318.195 23.4979C318.195 23.8015 318.195 24.1052 317.891 24.1052C317.588 24.1052 317.588 23.8015 317.588 23.4979ZM315.159 33.821C315.159 34.1247 314.855 34.1247 314.855 34.1247C314.551 33.5174 314.551 33.2138 315.159 33.5174C315.159 33.2138 315.462 33.5174 315.159 33.821ZM312.122 36.5536C311.819 35.9464 311.819 35.6428 312.122 35.9464C312.426 36.25 312.426 36.5536 312.426 36.5536C312.426 36.8573 312.122 36.5536 312.122 36.5536ZM311.515 24.4088C311.515 24.4088 311.212 24.1052 311.212 23.8015C311.212 23.4979 311.212 23.1943 311.212 23.1943C311.212 23.1943 311.515 23.4979 311.515 23.8015C311.819 24.1052 311.819 24.4088 311.515 24.4088ZM310.301 20.4617C310.301 20.1581 309.997 19.8545 309.997 19.8545C309.997 19.8545 309.997 19.5509 310.301 19.5509C310.604 19.5509 310.604 19.8545 310.301 20.4617C310.604 20.4617 310.604 20.4617 310.301 20.4617ZM309.693 32.6066C309.39 31.9993 309.39 31.6957 309.693 31.9993C309.997 32.3029 309.997 32.3029 309.997 32.6066C309.997 32.6066 309.997 32.6066 309.693 32.6066ZM309.997 35.9464C309.997 36.25 309.693 36.25 309.693 35.6428C309.693 35.0355 309.693 34.7319 309.997 35.0355C310.301 35.3391 310.301 35.6428 309.997 35.9464ZM309.086 25.6233C309.086 25.3197 309.39 25.3197 309.693 25.9269C309.997 26.2305 310.301 26.8378 309.997 26.8378C309.997 27.1414 309.086 26.2305 309.086 25.6233ZM307.264 26.2305C307.264 26.2305 306.961 25.9269 306.961 25.6233C306.961 25.3197 306.961 25.016 307.264 25.016C307.568 25.016 307.568 25.3197 307.568 25.6233C307.568 25.9269 307.264 26.2305 307.264 26.2305ZM305.139 20.1581C304.835 20.1581 304.835 19.8545 304.835 19.8545C304.835 19.5509 305.139 19.5509 305.139 20.1581C305.443 20.1581 305.443 19.8545 305.139 20.1581ZM303.621 27.7486C303.317 27.7486 303.317 27.445 303.317 27.1414C303.317 26.8378 303.621 26.5341 303.621 26.5341C303.621 26.5341 303.925 26.8378 303.925 27.1414C303.925 27.7486 303.925 27.7486 303.621 27.7486ZM301.799 19.5509C301.799 19.5509 301.496 19.5509 301.799 19.5509C301.496 18.9436 301.799 18.64 301.799 18.64C302.103 18.64 302.103 18.64 302.103 18.9436C302.103 18.9436 302.103 19.2472 301.799 19.5509ZM297.852 23.1943C297.549 22.5871 297.852 22.2834 298.763 22.2834C299.067 22.2834 299.37 22.5871 299.37 22.8907C299.37 23.8015 298.156 23.8015 297.852 23.1943ZM298.459 30.1776C298.156 30.4812 298.156 30.4812 298.459 29.874C298.763 29.5703 298.763 29.2667 299.067 29.5703C298.763 29.874 298.763 29.874 298.459 30.1776ZM297.549 37.4645C296.638 37.1609 296.638 37.1609 297.549 35.9464C297.852 35.3391 298.156 35.3391 297.852 35.6428C297.852 35.9464 297.852 36.5536 297.852 36.5536C298.459 37.1609 298.156 37.7681 297.549 37.4645ZM296.638 17.7291C296.638 17.4255 296.941 17.4255 297.245 17.4255C297.549 17.4255 297.852 17.7291 297.852 17.7291C297.852 18.0327 297.549 18.0327 297.245 18.0327C296.941 18.0327 296.638 18.0327 296.638 17.7291ZM294.512 18.0327C294.209 18.0327 293.905 17.7291 294.209 17.4255C294.209 17.1219 294.512 17.1219 294.816 17.1219C295.423 17.7291 295.12 18.0327 294.512 18.0327ZM293.905 21.9798C292.691 21.9798 292.387 20.7653 293.298 20.1581C293.601 20.1581 293.905 20.4617 294.209 21.069L294.816 22.2834L293.905 21.9798ZM292.387 16.5146C292.387 16.211 292.387 15.9074 292.691 15.9074C292.994 15.9074 292.994 16.211 292.994 16.5146C292.994 16.8183 292.994 17.1219 292.691 17.1219C292.387 17.1219 292.387 16.8183 292.387 16.5146ZM292.387 20.1581C292.387 19.8545 292.083 19.8545 292.083 19.5509C292.083 19.5509 292.083 19.2472 292.387 19.2472C292.691 19.2472 292.691 19.5509 292.387 20.1581C292.691 20.1581 292.691 20.1581 292.387 20.1581ZM291.78 18.64C291.78 18.64 291.476 18.64 291.476 18.0327C291.476 17.7291 291.476 17.1219 291.476 17.1219C291.476 16.8183 291.78 17.1219 291.78 17.7291C291.78 18.0327 291.78 18.64 291.78 18.64ZM291.78 24.4088C291.476 25.3197 290.869 24.4088 290.869 23.4979C290.869 22.8907 290.869 22.8907 290.565 22.8907C290.262 22.8907 289.958 22.8907 289.958 22.2834C289.958 21.6762 290.262 21.3726 290.565 21.6762C291.173 21.6762 291.173 22.2834 291.173 23.1943C291.173 24.1052 291.476 24.4088 291.78 24.4088C291.78 24.1052 291.78 23.8015 291.78 24.4088ZM289.654 31.6957C289.654 31.6957 289.351 31.6957 289.654 31.6957C289.351 31.3921 289.654 31.0885 289.654 30.7848C289.654 30.4812 289.958 30.7848 289.958 31.0885C289.958 31.3921 289.958 31.6957 289.654 31.6957ZM288.744 19.8545C288.744 20.7653 288.744 21.069 288.44 20.4617C287.529 19.8545 287.529 18.9436 288.44 18.0327C289.047 17.4255 289.351 17.4255 289.351 18.0327C289.351 18.3364 289.654 18.64 289.654 18.3364C289.654 18.0327 289.958 18.3364 289.958 18.64C289.958 18.9436 289.654 18.9436 289.351 18.9436C288.744 18.9436 288.744 18.9436 288.744 19.8545ZM286.618 17.1219C286.618 16.8183 286.315 16.8183 286.011 16.8183C285.404 16.8183 285.404 16.8183 285.707 16.5146C286.011 16.211 286.315 15.9074 286.618 15.9074C287.225 15.9074 287.529 17.4255 287.529 18.0327C287.529 18.3364 286.618 17.4255 286.618 17.1219ZM287.225 22.8907C287.225 22.8907 286.922 22.8907 287.225 22.8907C286.922 22.5871 287.225 22.2834 287.225 21.9798C287.529 21.6762 287.529 21.9798 287.529 22.2834C287.529 22.8907 287.529 22.8907 287.225 22.8907ZM284.796 16.5146C284.493 15.9074 284.493 15.9074 285.1 15.9074C285.404 15.9074 285.404 16.211 285.404 16.5146C285.404 17.1219 284.796 17.1219 284.796 16.5146ZM284.189 20.4617C283.886 20.4617 283.886 20.4617 284.189 20.4617C283.886 20.1581 284.189 19.8545 284.189 19.5509C284.493 19.2472 284.493 19.5509 284.493 19.8545C284.493 20.1581 284.189 20.4617 284.189 20.4617ZM290.262 18.9436C290.565 18.9436 290.565 19.2472 290.565 19.5509C290.565 19.8545 290.565 20.1581 290.262 20.1581C289.958 20.1581 289.958 19.8545 289.958 19.5509C289.958 19.2472 290.262 18.9436 290.262 18.9436ZM290.565 17.4255C290.869 17.4255 290.869 17.7291 290.869 18.0327C290.869 18.3364 290.869 18.64 290.565 18.64C290.565 18.64 290.262 18.3364 290.262 18.0327C290.262 17.7291 290.565 17.4255 290.565 17.4255ZM290.565 15.9074C290.565 15.9074 290.869 16.211 290.869 16.5146C290.869 16.8183 290.869 17.1219 290.869 17.1219C290.565 17.1219 290.565 16.8183 290.565 16.5146C290.262 16.211 290.565 15.9074 290.565 15.9074ZM281.76 35.0355C281.457 35.0355 281.457 34.7319 281.457 34.4283C281.457 34.1247 281.457 33.821 281.76 33.821C282.064 33.821 282.064 34.1247 282.064 34.4283C282.064 35.0355 282.064 35.0355 281.76 35.0355ZM280.849 36.25C280.849 35.9464 280.546 35.6428 280.546 35.3391C280.546 35.0355 280.546 35.0355 280.849 35.0355C280.849 35.3391 281.153 35.9464 280.849 36.25C280.849 36.5536 280.849 36.5536 280.849 36.25ZM278.117 20.4617C277.813 20.4617 277.813 20.1581 277.813 20.1581C277.813 19.8545 278.117 19.8545 278.117 20.4617C278.42 20.4617 278.42 20.1581 278.117 20.4617ZM276.902 19.2472C276.599 19.2472 275.991 18.64 275.991 18.3364C275.991 18.3364 276.295 18.3364 276.599 18.3364C277.51 18.64 277.813 19.2472 276.902 19.2472ZM275.688 17.4255C275.688 17.4255 275.384 17.1219 275.081 16.8183C274.473 16.211 274.473 15.9074 275.081 15.9074C275.384 15.9074 275.688 16.211 275.688 16.8183C275.688 17.1219 275.688 17.4255 275.688 17.4255ZM274.473 21.3726C274.17 21.6762 274.17 21.3726 274.17 20.7653C274.17 20.1581 274.17 19.8545 274.473 20.1581C274.777 20.4617 274.777 20.7653 274.777 20.7653C275.081 20.7653 274.777 21.069 274.473 21.3726ZM273.563 21.9798C273.259 21.9798 273.259 21.6762 273.259 21.6762C273.259 21.6762 273.563 21.6762 273.563 21.9798C273.866 21.9798 273.866 21.9798 273.563 21.9798ZM270.83 22.5871C270.526 22.5871 270.526 22.5871 270.526 22.2834C270.526 21.9798 270.83 21.6762 270.83 21.6762C271.134 21.6762 271.134 21.6762 271.134 21.9798C271.134 22.2834 271.134 22.2834 270.83 22.5871ZM259.9 35.0355C259.292 35.0355 259.292 35.0355 259.596 34.1247C259.9 33.821 260.203 33.5174 260.203 33.821C261.114 34.4283 260.81 35.0355 259.9 35.0355ZM259.596 37.1609C259.292 37.1609 259.292 36.8573 259.292 36.5536C259.292 36.25 259.596 36.25 259.596 36.25C259.9 36.5536 259.9 36.5536 259.9 36.8573C260.203 36.8573 259.9 37.1609 259.596 37.1609ZM258.381 36.25C258.078 36.25 258.078 35.9464 258.078 35.9464C258.078 35.9464 258.381 35.9464 258.381 36.25C258.685 36.25 258.685 36.25 258.381 36.25ZM252.309 35.9464C252.005 36.25 252.005 35.9464 252.005 35.3391C252.005 34.7319 252.005 34.4283 252.309 34.4283C252.309 34.4283 252.613 34.7319 252.613 35.0355C252.613 35.3391 252.613 35.9464 252.309 35.9464ZM249.88 32.9102C249.576 33.5174 249.576 33.821 249.576 33.821C249.88 33.821 248.969 34.7319 248.666 34.7319C248.362 34.7319 248.666 33.821 249.273 32.9102C250.184 32.3029 250.184 32.3029 249.88 32.9102ZM245.326 32.3029C245.326 32.3029 245.022 32.3029 245.022 31.6957C245.022 31.0885 244.719 30.7848 245.022 30.7848C245.022 30.7848 245.326 30.7848 245.326 31.3921C245.326 31.6957 245.326 32.3029 245.326 32.3029ZM242.593 13.1748C242.593 13.4784 242.29 13.4784 242.29 12.8712C242.29 12.264 242.29 11.9603 242.593 12.264C242.897 12.264 242.897 12.8712 242.593 13.1748ZM240.164 26.2305C240.164 25.9269 239.861 25.6233 239.861 25.016C239.861 24.4088 239.861 24.4088 240.164 24.4088C240.164 24.7124 240.468 25.016 240.468 25.6233C240.468 26.2305 240.164 26.5341 240.164 26.2305ZM239.253 18.9436C238.95 18.9436 238.95 18.64 238.95 18.3364C238.95 18.0327 238.95 17.7291 239.253 17.7291C239.557 17.7291 239.557 18.0327 239.557 18.3364C239.557 18.9436 239.253 18.9436 239.253 18.9436ZM232.574 33.2138C232.27 33.2138 232.27 32.9102 232.27 32.6066C232.27 32.3029 232.27 31.9993 232.574 31.9993C232.877 31.9993 232.877 32.3029 232.877 32.6066C232.877 32.9102 232.877 33.2138 232.574 33.2138ZM231.359 17.1219C231.359 17.4255 231.359 17.1219 231.359 16.5146C231.359 15.9074 231.359 15.6038 231.663 15.9074C231.359 16.211 231.359 16.8183 231.359 17.1219ZM224.376 5.28067C223.769 5.28067 221.947 4.3698 221.947 4.06618C221.947 4.06618 222.858 4.06618 223.769 4.06618C224.68 4.06618 225.894 4.06618 225.894 4.06618C226.198 4.06618 226.501 4.06618 226.501 4.36981C226.805 4.97705 225.894 5.28067 224.376 5.28067ZM225.59 30.1776C225.287 30.1776 224.983 29.5703 225.287 29.2667C225.287 29.2667 225.59 29.2667 225.59 29.5703C225.59 30.1776 225.894 30.1776 225.59 30.1776ZM224.072 32.9102C224.072 33.2138 223.769 33.2138 223.769 33.2138C223.465 32.6066 223.465 32.3029 224.072 32.6066C224.072 32.3029 224.376 32.6066 224.072 32.9102ZM222.554 9.53136C222.554 9.22774 222.251 9.22774 222.251 8.92412C222.251 8.92412 222.251 8.6205 222.554 8.6205C222.858 8.92412 222.858 8.92412 222.554 9.53136C222.554 9.83498 222.858 9.53136 222.554 9.53136ZM221.643 33.821C221.643 33.5174 221.34 33.5174 221.34 33.2138C221.34 33.2138 221.34 32.9102 221.643 32.9102C221.947 32.9102 221.947 33.2138 221.643 33.821C221.643 34.1247 221.947 33.821 221.643 33.821ZM221.036 31.3921C220.732 31.9993 219.822 31.9993 219.822 31.3921C219.822 31.0885 220.125 31.0885 220.429 31.0885C220.732 31.3921 220.732 31.0885 220.732 31.0885C220.429 30.7848 220.429 30.4812 220.429 30.1776C220.429 29.874 220.732 29.874 220.732 30.1776C221.036 30.7848 221.036 31.0885 221.036 31.3921ZM218.303 33.5174C218.303 33.821 218 33.5174 218 32.9102C218 32.6066 218 31.9993 218.303 31.9993C218.607 32.3029 218.607 32.3029 218.607 32.6066C218.607 32.9102 218.607 33.2138 218.303 33.5174ZM217.393 31.3921C217.089 31.3921 217.089 31.0885 217.089 30.7848C217.089 30.4812 217.089 30.1776 217.089 30.1776C217.089 30.1776 217.393 30.4812 217.393 30.7848C217.696 31.3921 217.696 31.6957 217.393 31.3921ZM211.624 4.67343C211.624 4.97705 211.32 4.67343 211.32 4.06618C211.32 3.76256 211.32 3.15532 211.624 3.15532C211.624 3.15532 211.927 3.45894 211.927 3.76256C211.927 4.36981 211.927 4.67343 211.624 4.67343ZM211.624 7.40602C211.624 7.40602 211.32 7.40602 211.624 7.40602C211.32 6.79877 211.624 6.49515 211.624 6.49515C211.624 6.49515 211.927 6.49515 211.927 6.79877C211.927 7.10239 211.927 7.1024 211.624 7.40602ZM208.588 9.83498C208.588 9.83498 208.284 9.83498 208.588 9.83498C208.284 9.53136 208.588 9.22774 208.588 8.92412C208.588 8.6205 208.891 8.92412 208.891 9.22774C208.891 9.83498 208.891 9.83498 208.588 9.83498ZM206.766 35.6428C206.462 35.9464 206.462 35.9464 206.766 36.25C207.07 36.25 207.07 36.5536 207.07 36.5536C207.07 36.8573 206.766 36.5536 206.462 36.25C206.159 35.6428 206.159 35.3391 206.462 35.0355C206.766 34.7319 207.07 34.7319 207.07 35.0355C207.07 35.0355 207.07 35.6428 206.766 35.6428ZM206.159 34.7319C205.855 34.7319 205.855 34.4283 206.159 34.1247C206.159 33.821 206.462 33.5174 206.462 33.5174C206.462 33.5174 206.766 33.821 206.462 34.1247C206.462 34.4283 206.159 34.7319 206.159 34.7319ZM200.997 32.3029C200.997 31.9993 200.693 31.6957 200.693 31.6957C200.693 31.6957 200.693 31.3921 200.997 31.3921C201.301 31.3921 201.301 31.6957 200.997 32.3029C201.301 32.3029 201.301 32.3029 200.997 32.3029ZM200.39 26.5341C200.39 26.8378 200.086 26.8378 200.086 26.2305C200.086 25.6233 200.086 25.3197 200.39 25.6233C200.39 25.9269 200.39 26.2305 200.39 26.5341ZM196.139 34.7319C195.836 34.7319 195.836 34.4283 195.836 34.1247C195.836 33.821 195.836 33.5174 196.139 33.5174C196.443 33.5174 196.443 33.821 196.443 34.1247C196.443 34.4283 196.443 34.7319 196.139 34.7319ZM195.836 32.3029C195.532 32.3029 195.532 32.3029 195.836 32.3029C195.532 31.9993 195.836 31.6957 195.836 31.3921C195.836 31.0885 196.139 31.3921 196.139 31.6957C195.836 32.3029 195.836 32.6066 195.836 32.3029ZM194.925 14.9965C194.621 14.9965 194.621 14.6929 194.621 14.3893C194.621 14.0857 194.925 13.7821 194.925 13.7821C194.925 13.7821 195.228 14.0857 195.228 14.3893C195.228 14.6929 195.228 14.9965 194.925 14.9965ZM194.317 30.4812C194.014 30.1776 194.014 29.874 194.014 29.874C194.014 29.5703 194.317 29.5703 194.317 29.5703C194.621 29.5703 194.621 29.874 194.621 30.1776C194.621 30.4812 194.621 30.4812 194.317 30.4812ZM193.407 3.45894C193.407 3.15532 193.71 3.15532 194.317 3.15532C195.228 3.45894 195.228 4.06618 194.621 4.36981C194.317 4.67343 193.407 4.06618 193.407 3.45894ZM193.71 33.2138C193.71 33.5174 193.407 33.5174 193.103 33.2138C192.799 32.9102 192.496 32.9102 192.799 33.5174C192.799 33.821 192.799 34.1247 192.496 34.1247C191.888 34.1247 191.888 33.5174 192.496 32.9102C192.799 32.3029 194.014 32.6066 193.71 33.2138ZM191.585 36.25C191.281 36.25 191.281 36.25 191.281 35.9464C191.281 35.6428 191.585 35.6428 191.888 35.9464C191.888 35.9464 191.888 36.25 191.585 36.25ZM190.978 15.3002C190.674 14.6929 190.674 14.3893 190.978 14.6929C191.281 14.9965 191.281 15.3002 191.281 15.3002C191.281 15.6038 190.978 15.6038 190.978 15.3002ZM192.799 31.0885C192.799 30.7848 193.103 30.4812 193.103 30.4812C193.103 30.4812 193.407 30.7848 193.407 31.0885C193.407 31.3921 193.103 31.6957 193.103 31.6957C192.799 31.6957 192.496 31.3921 192.799 31.0885ZM195.532 1.94084C195.532 1.94084 195.836 1.94084 195.836 2.54808C195.836 3.15532 195.836 3.15532 195.532 2.8517C195.228 2.54808 194.925 2.24446 195.532 1.94084ZM190.067 31.9993C190.067 31.6957 189.763 31.3921 189.763 31.3921C189.763 31.3921 189.763 31.0885 190.067 31.0885C190.37 31.3921 190.37 31.6957 190.067 31.9993C190.37 32.3029 190.37 32.3029 190.067 31.9993ZM189.459 28.0522C188.852 28.0522 188.852 27.7486 189.156 27.1414C189.156 26.8378 189.459 27.1414 189.459 27.445C189.763 27.7486 189.763 28.0522 189.459 28.0522ZM189.459 30.1776C189.156 30.1776 189.156 29.874 189.156 29.5703C189.156 29.2667 189.156 28.9631 189.459 28.9631C189.763 28.9631 189.763 29.2667 189.763 29.5703C189.459 29.874 189.459 30.1776 189.459 30.1776ZM187.031 33.2138C186.727 33.5174 186.727 33.5174 187.031 33.2138C187.031 32.6066 186.727 32.6066 186.727 32.3029C186.423 32.3029 186.423 31.6957 186.727 31.0885C187.031 30.7848 187.638 31.6957 187.638 32.3029C187.334 32.9102 187.334 33.2138 187.031 33.2138ZM185.209 6.49515C185.209 6.19153 185.512 6.19153 185.512 6.19153C185.816 6.19153 185.816 6.49515 185.816 6.79877C185.816 7.10239 186.12 7.10239 186.12 7.10239C186.423 6.79877 186.423 6.79877 186.12 7.40602C186.12 7.70964 185.209 7.10239 185.209 6.49515ZM185.816 4.06618C185.816 4.06618 186.12 4.06618 186.423 4.36981C186.727 4.97705 186.423 4.97705 186.12 4.67343C185.816 4.36981 185.816 4.06618 185.816 4.06618ZM183.387 28.3559C183.083 28.6595 183.083 28.3559 183.083 27.7486C183.083 27.445 183.083 26.8378 183.083 26.8378C183.387 26.8378 183.387 28.0522 183.387 28.3559ZM181.869 34.1247C181.565 34.1247 181.565 33.821 181.565 33.5174C181.565 33.2138 181.565 32.9102 181.869 32.9102C182.173 32.9102 182.173 33.2138 182.173 33.5174C182.173 34.1247 182.173 34.1247 181.869 34.1247ZM181.869 2.24446C181.869 2.24446 182.173 2.24446 182.173 2.8517C182.173 3.45894 182.173 3.45894 181.869 3.15532C181.565 2.8517 181.565 2.54808 181.869 2.24446ZM181.262 33.821C181.262 33.5174 180.958 33.5174 180.958 33.2138C180.958 33.2138 180.958 32.9102 181.262 32.6066C181.262 32.3029 181.565 32.6066 181.565 33.2138C181.565 33.821 181.262 34.1247 181.262 33.821ZM180.958 12.8712C180.958 12.8712 181.262 13.1748 181.262 13.4784C181.262 13.7821 181.262 13.7821 180.958 13.7821C180.654 13.4784 180.654 13.1748 180.958 12.8712C180.958 12.8712 180.654 12.8712 180.958 12.8712ZM175.493 28.3559C175.189 28.3559 175.189 28.0522 175.189 27.7486C175.189 27.445 175.493 27.1414 175.493 27.1414C175.797 27.1414 175.797 27.445 175.797 27.7486C176.1 28.0522 175.797 28.3559 175.493 28.3559ZM173.671 2.54808C173.368 2.54808 173.368 2.24446 173.368 1.94084C173.368 1.63722 173.368 1.3336 173.671 1.3336C173.975 1.3336 173.975 1.63722 173.975 1.94084C173.975 2.54808 173.975 2.54808 173.671 2.54808ZM171.242 34.4283C170.939 34.1247 171.242 33.821 171.242 33.5174C171.546 33.2138 171.546 33.2138 171.849 33.2138C171.849 33.821 171.546 34.7319 171.242 34.4283ZM169.117 36.8573C168.813 36.8573 168.813 36.5536 168.813 36.25C168.813 35.9464 169.117 35.6428 169.117 35.6428C169.724 35.6428 169.724 36.5536 169.117 36.8573ZM167.902 36.5536C167.902 36.8573 167.599 36.8573 167.902 36.5536C167.599 35.9464 167.902 35.6428 167.902 35.6428C168.206 35.6428 168.206 35.6428 168.206 35.9464C168.206 36.25 168.206 36.5536 167.902 36.5536ZM167.295 36.25C166.992 36.5536 166.992 36.25 166.992 35.6428C166.992 35.3391 166.992 34.7319 167.295 34.7319C167.295 34.7319 167.599 35.0355 167.599 35.3391C167.599 35.6428 167.295 35.9464 167.295 36.25ZM166.688 33.5174C166.688 33.2138 166.688 32.9102 166.992 32.9102C167.295 32.9102 167.295 33.2138 167.295 33.5174C167.295 33.821 167.295 34.1247 166.992 34.1247C166.992 34.1247 166.688 33.821 166.688 33.5174ZM166.081 29.2667C165.777 29.2667 165.777 28.9631 165.777 28.6595C165.777 28.3559 165.777 28.0522 166.081 28.0522C166.384 28.0522 166.384 28.3559 166.384 28.6595C166.384 29.2667 166.081 29.2667 166.081 29.2667ZM163.652 34.1247C163.348 34.4283 163.348 34.7319 163.348 34.7319C163.348 34.7319 163.348 34.4283 163.348 33.821C163.348 33.5174 163.652 33.2138 163.652 33.2138C163.955 33.5174 163.955 33.821 163.652 34.1247ZM163.044 25.6233C163.044 25.3197 162.741 25.3197 162.741 25.016C162.741 25.016 162.741 24.7124 163.044 24.7124C163.044 24.7124 163.348 25.016 163.044 25.6233C163.044 25.6233 163.348 25.6233 163.044 25.6233ZM161.223 29.2667C160.919 29.2667 160.919 28.9631 160.919 28.6595C160.919 28.3559 160.919 28.0522 160.919 28.0522C160.919 28.0522 161.223 28.3559 161.223 28.6595C161.526 29.2667 161.526 29.2667 161.223 29.2667ZM160.008 11.9603C160.008 12.264 159.705 11.9603 160.008 11.9603C159.705 11.3531 160.008 11.0495 160.008 11.0495C160.312 11.0495 160.312 11.0495 160.312 11.3531C160.312 11.6567 160.312 11.9603 160.008 11.9603ZM157.883 3.45894C157.883 3.45894 157.579 3.45894 157.883 3.45894C157.579 3.15532 157.883 2.8517 157.883 2.54808C158.187 2.24446 158.187 2.54808 158.187 2.8517C158.187 3.45894 158.187 3.76256 157.883 3.45894ZM157.883 28.3559C157.883 28.6595 157.579 28.6595 157.579 28.6595C157.276 28.0522 157.276 27.7486 157.883 27.7486C157.883 28.0522 157.883 28.0522 157.883 28.3559ZM157.579 33.821C157.276 33.821 157.276 33.5174 157.276 33.2138C157.276 32.9102 157.276 32.6066 157.579 32.6066C157.883 32.6066 157.883 32.9102 157.883 33.2138C157.883 33.5174 157.883 33.821 157.579 33.821ZM155.758 34.7319C155.454 35.0355 155.454 35.6428 155.15 35.3391C155.15 35.3391 155.15 35.0355 155.15 34.4283C155.15 33.821 155.454 33.5174 155.758 33.5174C156.061 34.1247 156.061 34.1247 155.758 34.7319ZM154.239 33.821C154.239 34.1247 153.936 34.4283 153.936 34.4283C153.632 34.4283 153.632 34.1247 153.936 33.821C153.936 33.5174 154.239 33.2138 154.239 33.2138C154.239 33.5174 154.239 33.5174 154.239 33.821ZM153.025 35.9464C152.721 35.9464 152.721 35.9464 153.025 36.8573C153.329 37.4645 153.329 37.7681 152.721 37.7681C152.114 37.7681 152.114 36.25 152.721 35.9464C153.025 35.6428 153.329 35.6428 153.025 35.9464C153.329 35.9464 153.329 35.9464 153.025 35.9464ZM152.418 33.821C152.721 33.821 152.721 33.821 152.418 33.821C152.721 34.1247 152.418 34.4283 152.418 34.7319C152.418 35.0355 152.114 34.7319 152.114 34.4283C152.418 34.1247 152.418 33.821 152.418 33.821ZM151.507 34.1247C150.9 34.1247 150.9 33.821 151.203 33.2138C151.203 32.9102 151.507 33.2138 151.507 33.5174C152.114 34.1247 151.81 34.1247 151.507 34.1247ZM147.863 35.3391C147.863 35.3391 147.56 34.7319 147.56 34.1247C147.56 33.5174 147.56 33.2138 147.56 33.2138C147.56 33.2138 147.863 33.821 147.863 34.4283C148.167 35.0355 148.167 35.3391 147.863 35.3391ZM147.56 31.6957C147.56 31.3921 147.56 31.0885 147.56 31.0885C147.56 31.0885 147.863 31.3921 147.863 31.6957C147.863 31.9993 147.863 32.3029 147.863 32.3029C147.56 32.3029 147.56 31.9993 147.56 31.6957ZM146.953 34.1247C146.649 34.1247 146.345 33.821 146.649 33.2138C146.649 32.9102 146.953 32.6066 146.953 32.6066C147.56 33.2138 147.56 34.1247 146.953 34.1247ZM143.005 28.9631C143.005 28.0522 143.005 27.7486 143.613 28.3559C143.916 28.6595 143.916 28.9631 143.916 29.2667C143.916 29.874 143.005 29.874 143.005 28.9631ZM141.791 31.6957C142.095 31.6957 142.095 31.9993 142.095 31.9993C141.791 32.3029 141.487 31.6957 141.487 31.0885C141.487 30.7848 141.791 30.4812 142.095 30.7848C142.398 30.7848 142.095 31.0885 142.095 31.3921C141.487 31.3921 141.487 31.3921 141.791 31.6957ZM141.487 34.4283C141.487 34.7319 141.184 34.4283 141.487 34.4283C141.184 33.821 141.487 33.5174 141.487 33.5174C141.791 33.5174 141.791 33.5174 141.791 33.821C141.791 34.1247 141.791 34.4283 141.487 34.4283ZM140.577 33.5174C140.273 34.1247 139.362 33.5174 139.362 32.9102C139.362 32.6066 139.666 32.6066 139.969 32.9102C140.577 33.2138 140.88 33.5174 140.577 33.5174ZM139.666 35.0355C139.666 35.6428 139.666 35.9464 139.362 35.3391C139.058 34.7319 139.058 33.821 139.666 33.821C139.666 34.1247 139.666 34.4283 139.666 35.0355ZM138.755 29.5703C138.755 28.3559 138.755 28.0522 139.362 28.0522C139.666 28.0522 139.969 28.3559 139.969 28.9631C139.969 29.2667 140.273 29.874 140.273 30.1776C140.577 30.7848 140.577 30.7848 140.273 30.7848C139.969 30.7848 139.666 30.4812 139.666 29.874C139.362 28.6595 139.058 28.6595 139.058 29.874C138.755 30.7848 138.755 30.4812 138.755 29.5703ZM136.933 34.7319C136.022 33.5174 136.022 32.3029 136.629 31.9993C136.933 31.6957 137.237 31.9993 136.933 32.9102C136.933 33.821 136.933 34.1247 137.237 34.1247C137.54 34.1247 137.54 34.1247 137.237 33.5174C136.933 32.9102 136.933 32.9102 137.237 33.2138C137.54 33.5174 137.844 33.5174 137.844 33.5174C137.844 33.5174 137.844 33.821 137.844 34.4283C138.451 35.9464 137.844 35.9464 136.933 34.7319ZM134.808 31.9993C134.504 31.3921 134.2 31.0885 134.504 30.7848C134.808 30.7848 135.111 31.0885 135.111 31.3921C136.022 32.9102 135.719 33.2138 134.808 31.9993ZM133.593 29.874C133.593 29.5703 133.29 29.5703 133.29 29.2667C133.29 29.2667 133.29 28.9631 133.593 28.9631C133.897 29.2667 133.897 29.5703 133.593 29.874C133.897 30.1776 133.897 29.874 133.593 29.874ZM132.682 30.1776C132.379 30.1776 132.379 30.1776 132.379 30.4812C132.379 31.3921 132.379 31.6957 132.075 31.0885C131.468 30.1776 131.772 29.2667 132.682 29.2667C132.986 29.2667 133.29 29.5703 133.29 29.874C132.986 29.874 132.986 30.1776 132.682 30.1776ZM130.861 29.5703C130.861 29.2667 130.557 28.9631 130.557 28.6595C130.557 28.3559 130.557 28.3559 130.861 28.3559C131.164 28.6595 131.164 29.2667 130.861 29.5703C131.164 29.874 131.164 29.874 130.861 29.5703ZM126.914 17.4255C126.61 17.1219 126.61 15.9074 126.914 16.211C126.914 16.211 127.217 16.5146 127.217 17.1219C126.914 17.4255 126.914 17.7291 126.914 17.4255ZM122.663 1.63722C122.359 1.02998 122.663 0.422733 123.27 0.422733C123.574 0.422733 123.877 0.726354 124.181 1.02997C124.181 1.63722 122.967 2.24446 122.663 1.63722ZM122.056 24.1052C121.752 24.1052 121.752 24.1052 122.056 24.1052C121.752 23.4979 122.056 23.1943 122.056 23.1943C122.056 23.1943 122.359 23.1943 122.359 23.4979C122.359 23.4979 122.056 23.8015 122.056 24.1052ZM121.752 31.9993C121.448 31.9993 121.448 31.6957 121.448 31.0885C121.448 30.7848 121.448 30.1776 121.145 30.1776C120.841 30.1776 120.841 29.874 121.145 29.5703C121.448 28.9631 121.448 28.9631 121.752 29.874C122.056 31.0885 122.056 32.3029 121.752 31.9993ZM120.234 35.0355C120.234 35.0355 120.538 35.0355 120.538 35.6428C120.538 36.25 120.538 36.5536 120.234 36.25C119.93 36.25 119.93 35.3391 120.234 35.0355ZM119.627 34.4283C119.627 35.0355 119.323 35.3391 119.323 35.0355C119.019 34.7319 119.323 33.5174 119.627 33.5174C119.627 33.5174 119.93 33.821 119.627 34.4283ZM118.109 35.3391C117.805 35.3391 117.805 35.0355 117.805 34.4283C117.805 33.821 117.805 33.821 118.109 34.1247C118.109 34.4283 118.412 34.7319 118.412 35.0355C118.412 35.3391 118.412 35.3391 118.109 35.3391ZM116.894 31.3921C116.287 32.3029 115.983 32.6066 115.68 32.3029C115.376 31.6957 115.376 31.6957 114.465 31.3921C114.161 31.3921 114.465 31.0885 114.769 30.7848C115.072 30.4812 115.376 30.7848 115.68 31.0885C115.983 31.3921 116.287 31.3921 116.287 30.7848C116.287 30.4812 116.59 30.1776 116.894 30.1776C117.805 30.1776 117.501 30.1776 116.894 31.3921ZM117.501 32.9102C117.501 33.2138 117.198 33.2138 117.198 33.2138C117.198 32.9102 116.894 32.6066 117.198 32.3029C117.198 31.9993 117.501 31.9993 117.501 31.9993C117.501 32.3029 117.501 32.6066 117.501 32.9102ZM106.571 37.7681C106.571 37.7681 106.267 37.7681 106.571 37.7681C106.267 37.1609 106.571 36.8573 106.571 36.8573C106.875 36.8573 106.875 36.8573 106.875 37.1609C106.875 37.1609 106.875 37.4645 106.571 37.7681ZM109.911 20.7653C109.607 20.7653 109.607 20.4617 109.607 20.1581C109.607 19.8545 109.607 19.5509 109.607 19.5509C109.607 19.5509 109.911 19.8545 109.911 20.1581C109.911 20.4617 109.911 20.7653 109.911 20.7653ZM105.66 5.58429C105.356 5.58429 105.053 4.97705 105.053 4.67343C105.053 4.67343 105.356 4.67343 105.356 4.97705C105.964 5.28067 105.964 5.58429 105.66 5.58429ZM103.231 6.49515C103.231 6.19153 102.928 6.19153 102.928 5.88791C102.928 5.88791 102.928 5.58429 103.231 5.58429C103.231 5.88791 103.535 6.19153 103.231 6.49515C103.231 6.79877 103.535 6.79877 103.231 6.49515ZM102.32 18.0327C102.32 18.0327 102.017 17.7291 102.32 18.0327C102.017 17.7291 102.32 17.4255 102.32 17.1219C102.624 16.8183 102.624 17.1219 102.624 17.4255C102.624 17.7291 102.624 18.0327 102.32 18.0327ZM92.6044 30.7848C92.3008 31.0885 91.6935 30.7848 91.6935 30.1776C91.6935 30.1776 91.9972 29.874 92.3008 29.874C92.908 29.874 93.2116 30.4812 92.6044 30.7848ZM88.6573 34.1247C88.6573 33.821 88.3537 33.5174 88.3537 33.5174C88.3537 33.5174 88.3537 33.2138 88.6573 33.2138C88.6573 33.5174 88.961 33.821 88.6573 34.1247C88.6573 34.4283 88.6573 34.4283 88.6573 34.1247ZM87.7465 3.15532C87.4428 3.15532 87.4428 3.15532 87.4428 2.8517C87.4428 2.54808 87.7465 2.54808 88.0501 2.8517C88.0501 2.8517 88.0501 3.15532 87.7465 3.15532ZM85.9247 33.5174C85.9247 33.2138 85.9247 32.9102 85.9247 32.9102H86.2284C86.532 32.9102 86.8356 33.2138 86.8356 33.821C86.8356 34.4283 85.9247 34.4283 85.9247 33.5174ZM85.6211 5.28067C85.6211 4.67343 85.6211 4.36981 85.9247 4.67343C85.9247 4.97705 85.9247 5.28067 85.9247 5.58429C85.6211 6.19153 85.6211 5.88791 85.6211 5.28067ZM82.2813 34.7319C81.9777 34.7319 81.9777 34.4283 81.9777 34.4283C81.9777 34.4283 82.2813 34.4283 82.2813 34.7319C82.5849 34.7319 82.5849 34.7319 82.2813 34.7319ZM80.7632 7.70964C80.4596 7.70964 80.4596 7.40602 80.4596 6.79877C80.7632 6.49515 80.7632 6.19153 81.0668 6.19153C81.0668 6.19153 81.3704 6.49515 81.3704 7.10239C81.3704 7.40601 81.0668 7.70964 80.7632 7.70964ZM80.7632 34.7319C80.4596 35.3391 80.1559 34.7319 80.1559 34.1247C80.1559 33.821 80.1559 33.5174 80.4596 33.5174C80.7632 33.5174 81.0668 34.4283 80.7632 34.7319ZM80.1559 28.9631C80.1559 28.6595 80.1559 28.3559 80.1559 28.3559C80.1559 28.3559 80.4596 28.6595 80.4596 28.9631C80.4596 29.2667 80.4596 29.5703 80.4596 29.5703C80.1559 29.2667 80.1559 28.9631 80.1559 28.9631ZM80.4596 13.1748C80.7632 13.1748 80.7632 13.1748 80.4596 13.1748C80.7632 13.7821 80.4596 14.0857 80.4596 14.0857C80.1559 14.0857 80.1559 14.0857 80.1559 13.7821C80.1559 13.7821 80.4596 13.4784 80.4596 13.1748ZM68.922 9.53136C68.6183 9.53136 68.6183 9.22774 68.6183 8.92412C68.6183 8.6205 68.6183 8.31688 68.6183 8.31688C68.6183 8.31688 68.922 8.6205 68.922 8.92412C69.2256 9.53136 68.922 9.53136 68.922 9.53136ZM62.8495 8.6205C62.8495 8.6205 62.8495 8.31688 62.8495 8.6205C62.5459 8.31688 62.8495 8.01326 62.8495 7.70964C63.1532 7.40602 63.1532 7.70964 63.1532 8.01326C63.1532 8.31688 63.1532 8.6205 62.8495 8.6205ZM62.5459 12.264C62.5459 12.264 62.2423 11.9603 62.5459 12.264C62.2423 11.9603 62.5459 11.6567 62.5459 11.3531C62.5459 11.0495 62.8495 11.3531 62.8495 11.6567C62.8495 11.9603 62.8495 12.264 62.5459 12.264ZM62.2423 25.9269C61.9387 25.9269 61.9387 25.6233 61.9387 25.3197C61.9387 25.016 61.9387 24.7124 61.9387 24.7124C61.9387 24.7124 62.2423 25.016 62.2423 25.3197C62.5459 25.6233 62.5459 25.9269 62.2423 25.9269ZM61.9387 6.79877C61.9387 7.10239 61.6351 7.10239 61.3314 6.79877C60.7242 6.19153 60.7242 5.88791 61.6351 6.19153C61.6351 6.19153 61.9387 6.49515 61.9387 6.79877ZM58.9025 5.88791C58.5988 5.88791 58.2952 5.58429 58.5988 5.28067C58.5988 4.97705 58.9025 4.97705 59.2061 5.28067C59.5097 5.58429 59.5097 5.88791 58.9025 5.88791ZM57.9916 16.211C57.688 15.9074 57.688 15.6038 57.688 15.6038C57.688 15.6038 57.688 15.3002 57.9916 15.3002C57.9916 15.3002 58.2952 15.6038 57.9916 16.211C57.9916 16.5146 58.2952 16.211 57.9916 16.211ZM57.0807 5.88791C56.7771 6.79877 56.4735 6.19153 56.4735 5.28067C56.4735 4.67343 56.7771 4.36981 56.7771 4.97705C57.0807 4.97705 57.0807 5.58429 57.0807 5.88791ZM55.8663 29.2667C55.8663 28.9631 55.5626 28.9631 55.5626 28.6595C55.5626 28.6595 55.5626 28.3559 55.8663 28.3559C56.1699 28.3559 56.1699 28.6595 55.8663 29.2667C56.1699 29.2667 56.1699 29.2667 55.8663 29.2667ZM52.83 10.1386C52.5264 9.83498 52.2228 9.53136 51.9192 9.83498C51.3119 10.1386 51.3119 9.53136 51.9192 8.6205C52.2228 8.01326 52.5264 8.01326 52.83 8.92412C53.4373 10.1386 53.4373 11.0495 52.83 10.1386ZM50.0975 28.0522C50.0975 27.7486 49.7938 27.445 49.7938 27.445C49.7938 27.445 49.7938 27.1414 50.0975 27.1414C50.4011 27.1414 50.4011 27.445 50.0975 28.0522C50.4011 28.3559 50.4011 28.0522 50.0975 28.0522ZM46.454 35.9464C46.1504 35.6428 46.454 35.3391 46.454 35.0355C46.7576 34.7319 46.7576 34.7319 47.0613 34.7319C47.0613 35.6428 46.7576 36.5536 46.454 35.9464ZM43.7214 7.40602C43.4178 7.40602 43.4178 7.10239 43.4178 6.79877C43.4178 6.49515 43.7214 6.19153 43.7214 6.19153C43.7214 6.19153 44.025 6.49515 44.025 6.79877C44.3287 7.40602 44.025 7.70964 43.7214 7.40602ZM43.7214 8.6205C43.7214 8.31688 43.7214 8.01326 43.7214 8.01326C43.7214 8.01326 44.025 8.31688 44.025 8.6205C44.025 8.92412 44.025 9.22774 44.025 9.22774C43.7214 9.22774 43.7214 8.92412 43.7214 8.6205ZM43.1142 28.6595C42.5069 28.6595 42.2033 28.3559 42.2033 28.0522C42.5069 27.7486 42.5069 27.445 41.8997 26.5341C40.9888 25.016 41.5961 25.016 42.8106 26.5341C43.4178 27.1414 44.025 28.0522 44.025 28.3559C44.3287 28.6595 43.7214 28.6595 43.1142 28.6595ZM43.4178 35.6428C43.4178 35.6428 43.1142 35.3391 43.4178 35.6428C43.1142 35.3391 43.4178 35.0355 43.4178 34.7319C43.7214 34.4283 43.7214 34.7319 43.7214 35.0355C43.7214 35.3391 43.7214 35.6428 43.4178 35.6428ZM42.8106 35.3391C42.8106 35.9464 42.8106 36.5536 42.5069 36.5536C42.2033 36.5536 42.2033 35.9464 42.5069 35.0355C42.8106 34.4283 42.8106 34.4283 42.8106 35.3391ZM42.2033 6.79877C42.2033 6.79877 42.5069 6.79877 42.5069 7.40602C42.5069 7.70964 42.5069 8.01326 42.2033 8.01326C41.8997 8.01326 41.5961 7.10239 42.2033 6.79877ZM39.7743 7.70964C39.1671 7.70964 39.1671 7.70964 38.8635 8.31688C38.8635 8.92412 38.8635 8.92412 38.5599 8.31688C38.5599 8.01326 38.2562 7.70964 37.9526 8.01326C37.649 8.31688 37.649 8.01326 37.649 7.70964C37.649 7.40602 37.649 7.10239 37.9526 6.79877C38.5599 6.19153 40.078 6.49515 40.078 7.10239C40.3816 7.70964 40.078 8.01326 39.7743 7.70964ZM39.1671 36.5536C38.8635 36.5536 38.8635 36.25 38.8635 35.9464C38.8635 35.6428 38.8635 35.3391 39.1671 35.3391C39.1671 35.3391 39.4707 35.6428 39.4707 35.9464C39.4707 36.5536 39.4707 36.8573 39.1671 36.5536ZM37.9526 37.1609C37.3454 37.4645 37.0418 37.1609 37.3454 35.6428C37.3454 35.0355 37.649 35.0355 37.9526 35.3391C38.5599 36.25 38.5599 37.1609 37.9526 37.1609ZM35.5237 6.19153C35.22 6.19153 35.22 6.19153 35.22 5.88791C35.22 5.58429 35.5237 5.58429 35.8273 5.88791C36.1309 5.88791 35.8273 6.19153 35.5237 6.19153ZM34.9164 7.40602C34.6128 7.40602 34.6128 7.40601 34.6128 7.10239C34.6128 6.79877 34.9164 6.49515 34.9164 6.49515C35.22 6.49515 35.22 6.49515 35.22 6.79877C35.5237 7.10239 35.22 7.1024 34.9164 7.40602ZM30.9693 39.2862C30.6657 39.2862 30.0585 39.5898 29.4512 39.5898C28.2368 39.8935 27.3259 39.2862 27.3259 38.679C27.3259 38.3754 27.9331 38.3754 28.2368 38.3754C28.844 38.679 29.4512 38.679 29.4512 38.3754C29.4512 38.3754 30.0585 38.0717 30.6657 38.0717C31.273 38.0717 31.8802 37.7681 31.8802 37.4645C32.1838 36.8573 33.0947 37.4645 33.0947 38.0717C33.3983 38.679 32.4874 38.9826 30.9693 39.2862ZM28.2368 25.016C28.5404 25.016 28.5404 25.3197 28.5404 25.6233C28.5404 25.9269 28.5404 26.2305 28.2368 26.2305C27.9331 26.2305 27.9331 25.9269 27.9331 25.6233C27.9331 25.3197 28.2368 25.016 28.2368 25.016ZM29.1476 35.3391C29.4512 35.0355 29.4512 35.3391 29.1476 35.3391C29.1476 35.9464 29.1476 36.5536 29.4512 36.8573C29.7549 37.1609 29.7549 37.4645 29.4512 37.4645C28.844 37.1609 28.5404 35.9464 29.1476 35.3391ZM28.844 30.1776C28.844 29.874 29.1476 29.874 29.1476 30.1776C29.4512 30.7848 29.1476 31.6957 28.844 31.0885C28.844 31.0885 28.844 30.4812 28.844 30.1776ZM26.1114 11.0495C25.8078 10.1386 25.8078 9.83498 26.1114 10.1386C26.415 10.4422 26.415 10.7458 26.1114 11.0495C26.415 11.6567 26.415 11.6567 26.1114 11.0495ZM25.2005 31.6957C24.8969 31.9993 24.5933 31.3921 24.5933 30.4812C24.5933 30.1776 24.8969 29.874 24.8969 30.1776C25.5042 30.7848 25.5042 31.3921 25.2005 31.6957ZM21.2535 34.4283C21.2535 34.7319 20.9498 35.0355 20.9498 35.0355C20.6462 34.4283 20.6462 33.821 21.2535 33.821C21.2535 33.821 21.2535 34.1247 21.2535 34.4283ZM19.7354 28.9631C19.1281 28.3559 19.4317 27.7486 20.039 28.0522C20.3426 28.3559 20.3426 28.6595 20.3426 28.9631C20.3426 29.2667 20.3426 29.2667 19.7354 28.9631ZM19.7354 31.0885C19.4317 31.0885 19.4317 30.7848 19.4317 30.4812C19.4317 30.1776 19.4317 29.874 19.7354 29.874C19.7354 29.874 20.039 30.1776 20.039 30.4812C20.039 30.7848 20.039 31.0885 19.7354 31.0885ZM18.5209 33.2138C17.9136 32.9102 17.9136 31.9993 18.5209 31.9993C18.8245 31.9993 18.8245 32.3029 18.8245 32.6066C18.8245 33.2138 18.8245 33.5174 18.5209 33.2138ZM17.61 19.2472C17.3064 18.3364 17.3064 18.0327 17.61 18.3364C17.9136 18.0327 17.9136 18.64 17.61 19.2472C17.9136 19.8545 17.9136 19.8545 17.61 19.2472ZM17.3064 32.3029C17.0028 32.3029 17.0028 31.9993 17.0028 31.6957C17.0028 31.3921 17.0028 31.0885 17.3064 31.0885C17.61 31.0885 17.61 31.3921 17.61 31.6957C17.61 31.9993 17.61 32.3029 17.3064 32.3029ZM9.41225 37.7681C9.10863 36.8573 9.41225 36.25 10.0195 36.25C10.3231 36.25 10.6267 36.5536 10.6267 37.1609C10.6267 38.3754 10.0195 38.679 9.41225 37.7681ZM9.71587 39.5898C9.41225 39.5898 9.10863 39.5898 9.10863 39.2862C9.10863 38.9826 9.41225 38.679 9.71587 38.9826C10.0195 38.9826 10.3231 38.9826 10.3231 39.2862C10.3231 39.2862 10.0195 39.5898 9.71587 39.5898ZM9.41225 31.0885C9.71587 31.0885 9.71587 31.0885 10.0195 31.3921C10.3231 31.6957 10.3231 31.9993 10.0195 31.9993C9.71587 31.9993 9.41225 31.6957 9.41225 31.6957C9.10863 31.3921 9.10863 31.0885 9.41225 31.0885ZM6.98328 40.8043C6.67966 40.8043 6.67966 40.5007 6.67966 40.1971C6.67966 39.8935 6.67966 39.5898 6.98328 39.5898C6.98328 39.5898 7.2869 39.8935 7.2869 40.1971C7.2869 40.5007 6.98328 40.8043 6.98328 40.8043ZM5.46518 28.6595C5.16156 28.9631 5.16156 28.6595 5.46518 28.6595C5.16156 28.0522 5.46518 27.7486 5.46518 27.7486C5.7688 27.7486 5.7688 27.7486 5.7688 28.0522C5.7688 28.3559 5.46518 28.6595 5.46518 28.6595ZM4.85794 28.9631C4.85794 29.2667 4.55431 29.2667 4.55431 28.6595C4.55431 28.0522 4.55431 27.7486 4.85794 28.0522C4.85794 28.0522 4.85794 28.6595 4.85794 28.9631ZM4.55431 40.8043C4.55431 40.5007 4.25069 40.5007 4.25069 40.1971C4.25069 40.1971 4.25069 39.8935 4.55431 39.5898C4.55431 39.2862 4.85794 39.5898 4.85794 40.1971C4.85794 40.8043 4.55431 41.1079 4.55431 40.8043ZM327.303 27.7486C328.214 27.7486 328.518 27.1414 328.214 26.2305C327.911 25.9269 327.607 25.016 327.303 24.1052C326.696 22.8907 326.393 22.8907 326.089 23.1943C325.785 23.4979 325.785 23.4979 325.785 23.1943C325.785 22.8907 325.785 22.5871 325.482 22.8907C325.482 23.1943 325.178 22.8907 325.178 22.5871C325.178 22.2834 324.874 21.9798 324.267 21.9798C323.964 21.9798 323.053 21.6762 322.142 21.6762C321.535 21.3726 320.927 21.3726 320.624 21.6762C320.624 21.9798 320.017 21.6762 319.713 21.3726C319.409 21.069 318.498 20.7653 318.195 21.069C317.588 21.069 317.284 21.069 317.284 20.7653C316.98 19.8545 315.462 19.5509 315.159 20.1581C314.855 20.7653 314.855 20.7653 314.855 20.1581C314.551 19.2472 312.426 20.1581 312.426 21.069C312.426 21.3726 312.122 21.6762 312.122 21.6762C311.515 21.6762 311.515 20.7653 312.122 20.7653C312.73 20.4617 311.211 19.2472 310.301 19.2472C309.693 19.2472 308.783 19.2472 307.568 19.2472C306.354 19.2472 305.746 18.9436 305.443 18.64C305.139 18.3364 304.835 18.3364 304.228 18.3364C303.621 18.64 303.317 18.3364 303.317 17.7291C303.317 17.1219 303.014 16.8183 302.71 17.1219C302.103 17.7291 297.852 16.8183 297.852 16.211C297.852 15.9074 297.549 15.9074 297.245 16.211C296.638 16.8183 294.209 16.5146 293.298 15.6038C292.994 15.3002 292.387 15.3002 291.78 15.3002C291.173 15.6038 290.565 15.3002 290.565 14.9965C290.565 14.6929 290.262 14.6929 290.262 14.6929C290.262 14.6929 289.958 15.3002 290.262 15.6038C290.262 16.211 290.262 16.211 289.958 15.9074C289.654 15.6038 289.654 15.3002 289.654 14.9965C289.654 14.6929 289.351 14.0857 289.351 14.0857H289.047C289.047 14.3893 288.744 14.6929 288.44 14.6929C288.136 14.6929 287.529 14.6929 287.529 14.3893C287.529 13.7821 285.707 13.7821 285.1 14.3893C284.796 14.6929 284.796 14.6929 284.796 14.0857C284.796 13.4784 284.493 13.7821 284.189 14.0857C283.582 14.6929 283.582 14.6929 282.975 13.7821C282.671 13.1748 282.064 12.5676 281.76 12.264C281.153 11.9603 281.153 11.9603 281.153 12.8712C281.153 13.4784 281.153 13.7821 281.153 14.0857H281.457C281.76 14.0857 281.76 14.3893 281.76 14.9965C281.76 15.9074 281.76 15.9074 281.153 15.6038C280.849 15.3002 280.546 15.6038 280.546 15.6038C280.546 15.9074 280.849 16.211 281.153 16.5146C281.457 16.8183 281.76 17.1219 281.457 17.1219C281.153 17.7291 279.331 17.1219 278.724 16.211C278.117 15.3002 278.117 15.3002 277.813 15.9074C277.51 17.1219 277.206 17.1219 277.206 17.1219C277.206 17.1219 277.206 16.5146 277.51 15.9074C277.813 15.3002 278.117 14.9965 278.42 15.3002C279.028 15.9074 279.939 16.211 279.939 15.6038C279.939 15.3002 279.635 14.9965 279.331 14.6929C279.028 14.3893 278.724 14.0857 278.724 13.7821C278.724 13.4784 278.724 13.4784 279.028 13.7821C279.331 14.0857 279.331 14.0857 279.028 13.4784C279.028 13.1748 278.724 12.8712 278.42 13.1748C278.117 13.1748 278.117 13.1748 278.117 12.8712C278.117 12.5676 277.813 12.264 277.51 12.264C277.206 12.264 276.902 12.264 276.902 12.5676C277.206 13.1748 275.081 11.9603 275.081 11.3531C274.777 10.4422 273.563 9.83498 271.134 9.53136C269.919 9.22774 268.097 8.92412 266.883 8.6205C265.365 8.31688 264.757 8.31688 264.757 8.6205C264.757 8.92412 264.454 8.92412 264.15 8.6205C263.847 8.31688 262.936 8.01326 261.721 8.01326C260.507 7.70964 258.989 7.40601 258.381 7.10239C257.471 6.79877 257.167 6.79877 257.167 7.10239C257.167 7.40601 256.863 7.40601 256.56 7.10239C255.952 6.79877 255.042 7.10239 255.042 8.01326C255.345 8.92412 253.524 8.31688 253.22 7.70964C252.916 7.10239 252.613 7.1024 252.309 7.40602C252.005 7.70964 251.398 7.40602 250.487 6.79877C249.273 5.88791 248.969 5.88791 248.969 6.49515C248.969 6.79877 248.666 7.10239 248.362 6.79877C248.058 6.49515 247.755 6.79877 247.755 7.10239C247.755 7.40601 247.451 7.70964 247.451 7.70964C247.147 7.70964 247.147 8.01326 247.147 8.31688C247.147 8.6205 246.844 8.6205 246.844 8.01326C246.54 7.40602 246.237 7.1024 246.237 7.40602C246.237 7.40602 245.933 7.40601 245.933 7.10239C245.933 6.19153 241.986 5.58429 241.682 6.19153C241.379 6.79877 240.468 6.49515 240.164 5.88791C239.861 5.28067 238.646 5.28067 238.646 5.88791C238.646 6.49515 235.913 5.58429 235.61 4.97705C235.306 4.67343 235.306 4.67343 235.306 5.28067C235.306 5.88791 235.306 6.19153 234.395 5.88791C233.788 4.97705 233.181 4.67343 233.181 4.67343C233.181 4.67343 232.574 4.36981 231.663 4.36981C230.752 4.36981 230.145 4.36981 230.145 4.67343C230.145 4.97705 230.145 4.97705 230.145 4.67343C230.145 4.36981 229.537 4.06618 228.93 4.06618C228.019 3.76256 228.019 3.76256 227.716 4.97705C227.412 5.88791 227.412 6.19153 227.109 5.58429C227.109 5.28067 227.109 4.67343 227.109 4.06618C227.109 3.45894 226.501 3.45894 223.465 3.15532C220.429 2.8517 219.518 3.15532 219.822 3.45894C219.822 3.76256 219.822 4.06618 219.518 4.06618C219.214 4.06618 219.214 3.45894 219.214 2.8517C219.214 2.24446 219.214 1.63722 218.911 1.63722C218.607 1.94084 218.607 2.24446 218.607 2.54808C218.607 2.8517 217.696 2.8517 216.785 2.8517C215.267 2.54808 214.964 2.8517 214.964 3.45894C214.964 4.36981 213.446 4.36981 213.142 3.45894C213.142 3.15532 213.142 2.8517 213.749 2.8517C214.053 2.8517 214.66 2.54808 214.66 2.24446C214.66 1.94084 214.66 1.63722 214.053 1.94084C213.749 2.24446 212.838 2.24446 212.231 2.24446C211.32 2.24446 211.017 2.24446 211.017 2.8517C211.017 3.15532 210.713 3.45894 210.713 3.45894C210.409 3.45894 210.409 3.15532 210.409 2.8517C210.409 2.54808 210.713 2.24446 210.713 2.24446C211.017 2.24446 211.017 2.24446 211.017 1.94084C211.017 1.63722 210.713 1.63722 210.409 1.94084C209.802 2.24446 209.802 2.24446 210.106 2.8517C210.409 3.15532 210.409 3.45894 210.106 3.45894C208.891 3.45894 206.766 3.15532 206.766 2.8517C206.766 2.24446 208.284 1.94084 208.588 2.24446C208.588 2.54808 208.891 2.24446 209.195 1.94084C209.498 1.63722 209.195 1.3336 207.98 1.3336C207.07 1.3336 206.462 1.3336 206.462 1.63722C206.462 1.94084 205.248 2.54808 204.033 2.24446C203.426 2.24446 203.426 1.94084 203.73 1.3336C203.73 0.726354 203.73 0.726353 203.426 0.726353C203.122 0.726353 202.819 1.02997 202.819 1.02997C202.819 1.02997 202.819 1.3336 202.819 1.63722C202.819 2.24446 202.212 2.24446 200.693 2.24446C197.657 2.8517 197.354 2.54808 197.354 1.3336C197.354 0.119112 197.05 0.119112 197.05 1.02997C196.746 1.63722 196.746 1.94084 195.836 1.63722C195.228 1.3336 194.925 1.3336 194.925 1.94084C194.925 2.24446 194.621 2.54808 194.317 2.54808C194.014 2.54808 193.407 2.24446 193.407 2.24446C193.103 2.24446 193.103 1.94084 193.407 1.63722C193.71 1.3336 194.014 1.3336 194.317 1.63722C194.621 1.94084 194.925 1.63722 194.621 1.3336C194.621 1.02997 194.014 0.726354 193.71 1.02997C193.407 1.02997 192.496 1.3336 191.888 1.3336H190.978V4.06618C190.978 6.79877 190.978 6.79877 190.674 5.88791C190.37 5.28067 190.067 4.97705 189.459 4.97705L188.245 4.67343L189.156 4.06618C190.37 3.15532 190.37 1.63722 189.459 1.94084C188.852 2.24446 188.852 1.94084 188.549 1.3336C188.549 0.726354 188.245 0.726353 187.941 0.726353C187.638 1.02997 187.334 1.02997 186.727 0.726353C185.512 0.422733 185.816 1.02997 187.031 1.3336C187.638 1.63722 187.941 1.94084 188.245 2.24446C188.549 2.8517 187.638 5.28067 187.334 5.28067C187.031 5.28067 187.031 4.97705 187.334 4.36981C187.334 3.76256 187.334 3.45894 187.031 3.45894C186.727 3.45894 186.727 3.15532 186.727 2.8517C186.727 2.54808 186.423 2.24446 185.816 2.24446C185.209 2.24446 185.209 2.24446 185.209 2.8517C185.209 3.15532 185.209 3.45894 184.905 3.45894C184.602 3.45894 184.602 3.15532 184.602 2.8517C184.905 2.24446 182.173 1.63722 180.958 1.94084C179.744 2.24446 179.44 1.94084 179.744 1.02997C180.047 0.422733 180.047 0.422733 179.744 0.726353C179.44 0.726353 179.44 1.3336 179.136 1.63722C179.136 1.94084 178.833 1.94084 178.833 1.94084C178.529 1.63722 178.529 1.94084 178.529 2.24446C178.226 1.94084 177.922 1.94084 177.618 1.94084C177.315 1.94084 177.011 2.24446 176.707 2.54808C176.707 3.15532 176.707 3.15532 176.404 2.54808C176.404 2.24446 176.1 1.94084 175.493 1.94084C174.886 1.94084 174.582 1.3336 174.278 1.02997C173.975 0.119112 173.064 0.422733 172.76 1.3336C172.76 1.63722 172.153 1.94084 171.242 1.94084C170.635 1.94084 169.724 2.24446 169.724 2.54808C169.724 2.8517 169.421 2.8517 169.117 2.54808C169.724 2.24446 169.117 1.94084 168.813 1.94084C168.51 1.94084 168.206 1.63722 168.206 1.02997C168.206 0.422733 168.206 0.119112 167.902 0.119112C167.902 0.119112 167.599 0.422733 167.599 1.02997C167.599 1.94084 167.295 1.94084 166.384 1.02997C166.081 0.726354 165.777 0.726354 166.081 1.02997C166.081 1.63722 165.473 1.63722 163.044 1.3336C161.526 1.02997 160.008 1.02997 160.008 1.3336C160.008 1.63722 159.401 1.3336 158.49 1.02997C157.579 0.726354 156.668 0.726353 156.061 0.726353C155.454 1.02997 153.936 0.726353 152.721 0.726353C151.507 0.422733 150.292 0.422733 150.292 0.726353C150.292 1.02997 149.685 1.02997 149.078 1.02997C148.471 1.02997 147.863 1.02997 147.56 1.3336C147.256 1.63722 146.953 1.63722 146.953 1.3336C146.953 1.02997 146.042 0.726353 145.131 0.726353C144.22 0.726353 142.702 0.726353 141.791 0.726353C140.88 0.726353 139.969 0.726354 139.666 1.02997C139.362 1.3336 138.755 1.02997 138.148 0.726353C137.237 0.119112 136.933 0.119112 136.326 0.726353C136.022 1.02997 135.719 1.02997 135.415 0.726353C134.808 0.119112 132.379 -0.184509 132.075 0.119112C132.075 0.422733 131.772 0.422733 131.468 0.422733C129.646 0.422733 127.217 0.726354 127.217 1.02997C127.217 1.63722 126.306 1.63722 125.699 0.726353C125.395 0.422733 125.092 0.119112 124.788 0.119112C124.485 0.119112 122.966 0.119112 121.752 0.119112C120.234 0.119112 119.019 0.119112 119.019 0.422733C118.716 0.726354 116.59 1.02997 113.554 1.02997C112.34 1.02997 112.036 1.02997 112.34 0.726353C112.643 0.422733 112.643 0.422733 112.036 0.422733C111.733 0.422733 111.125 0.726353 110.822 0.726353C110.214 1.3336 107.482 1.02997 107.482 0.422733C107.482 0.119112 107.482 0.119112 107.482 0.726353C107.482 1.63722 106.875 1.94084 106.875 1.02997C106.875 0.119112 104.749 0.422733 104.749 1.02997C104.749 1.3336 104.142 1.63722 103.838 1.63722C102.928 1.63722 103.231 0.726354 104.142 0.422733C104.446 0.422733 104.142 0.119112 103.231 0.119112C102.017 -0.184509 101.713 0.119112 101.409 0.726353C101.409 1.02997 101.409 1.63722 101.106 1.63722C100.802 1.63722 100.802 1.3336 100.802 1.02997C100.802 0.726354 100.802 0.422733 100.499 0.422733C100.195 0.119112 100.195 0.422733 100.195 1.02997C100.195 1.94084 97.1587 1.94084 96.8551 1.02997C96.8551 0.726354 96.5515 0.422733 96.2479 0.726353C95.337 1.3336 95.337 1.3336 94.1225 1.63722C93.2116 1.94084 92.908 2.24446 93.2116 2.8517C93.2116 3.45894 93.2116 3.76256 92.908 3.45894C92.6044 3.15532 92.6044 2.8517 92.6044 2.24446C92.6044 1.94084 92.3008 1.3336 92.3008 1.3336C91.9972 1.02997 91.6935 0.726354 91.3899 0.422733C91.0863 0.119112 91.0863 0.119112 91.0863 0.422733C91.0863 0.726354 90.7827 1.02997 90.1754 1.3336C89.5682 1.3336 88.9609 1.94084 88.9609 2.24446C88.9609 2.54808 88.9609 2.54808 89.2646 2.54808C89.2646 2.24446 89.5682 2.54808 89.5682 2.8517C89.5682 3.15532 89.5682 3.45894 89.2646 3.45894C88.9609 3.45894 88.6573 3.45894 88.6573 3.45894C88.6573 3.45894 88.6573 3.45894 88.6573 3.15532C88.6573 2.24446 88.0501 1.94084 87.1392 1.94084C86.2284 1.94084 86.2284 2.24446 86.532 2.8517C86.8356 3.45894 86.8356 3.45894 86.2284 3.45894C85.9247 3.45894 85.6211 3.15532 85.6211 2.54808C85.6211 2.24446 85.3175 1.94084 85.0139 1.94084C84.7103 1.94084 84.4066 1.63722 84.103 1.3336C83.7994 0.726354 83.7994 0.726354 83.4958 1.3336C83.1921 1.94084 83.1921 1.94084 82.8885 1.3336C82.5849 0.726354 82.5849 0.726354 82.2813 1.3336C81.9777 2.24446 80.4596 2.8517 79.8523 2.54808C79.5487 2.54808 79.5487 2.54808 79.5487 3.15532C79.8523 3.76256 79.5487 3.76256 79.2451 3.15532C78.9415 2.8517 78.3342 2.54808 77.727 2.54808H76.5125L77.4234 3.15532C78.9415 3.76256 78.9415 4.67343 77.727 4.06618C76.8161 3.76256 76.5125 3.76256 76.5125 4.36981C76.5125 4.67343 76.5125 4.67343 76.5125 4.06618C76.5125 3.15532 76.2089 3.15532 74.3871 3.15532C73.1727 3.15532 72.2618 3.45894 72.2618 3.45894C72.2618 3.45894 72.2618 3.76256 72.5654 3.76256C72.869 3.76256 72.869 4.06618 72.869 4.36981C72.869 4.67343 72.5654 4.67343 72.5654 4.67343C72.2618 4.36981 71.9582 4.36981 71.3509 4.67343C71.0473 4.97705 70.7437 4.97705 70.7437 4.67343C70.7437 3.45894 70.7437 3.15532 70.1364 3.15532C69.8328 3.15532 69.5292 3.15532 69.5292 3.45894C69.5292 3.76256 69.2256 3.76256 68.922 3.45894C68.3147 3.15532 68.3147 3.15532 68.6183 3.76256C69.2256 4.36981 69.2256 4.36981 68.6183 4.36981C68.3147 4.36981 68.0111 4.3698 67.7075 4.06618C67.4039 3.45894 67.1002 3.45894 65.8858 3.76256C64.9749 4.06618 64.3676 4.36981 64.6713 4.36981C64.9749 4.36981 64.9749 4.67343 64.3677 4.97705C64.064 5.28067 63.4568 5.28067 63.4568 4.97705C63.4568 4.67343 63.1532 4.97705 63.1532 5.28067C63.1532 5.58429 63.1532 5.88791 62.8495 5.88791C62.8495 5.88791 62.5459 5.58429 62.5459 4.97705C62.5459 3.45894 62.2423 3.45894 61.6351 3.76256C61.3314 3.76256 61.0278 4.36981 61.0278 4.67343C61.3314 4.97705 61.0278 4.97705 60.7242 4.97705C60.4206 4.97705 60.4206 4.67343 60.4206 4.06618C60.4206 3.45894 60.117 3.15532 58.9025 3.45894C57.9916 3.45894 57.3844 4.06618 57.3844 4.36981C57.3844 4.67343 57.0807 4.67343 57.0807 4.36981C56.7771 3.45894 55.5626 3.45894 55.259 4.36981C55.259 5.28067 54.3482 6.79877 54.0445 6.19153C54.0445 5.88791 54.0445 5.58429 54.3482 5.58429C54.6518 5.58429 54.6518 5.58429 54.3482 5.28067C54.0445 4.97705 54.0445 4.67343 54.3482 4.67343C54.6518 4.67343 54.0445 4.36981 53.1337 4.36981C52.2228 4.36981 51.3119 4.06618 51.3119 3.76256C51.3119 3.45894 51.0083 3.45894 51.0083 3.45894C50.7047 3.45894 50.7047 4.06618 50.7047 4.36981C50.7047 5.28067 50.4011 5.28067 49.4902 4.36981C48.883 3.76256 48.883 4.06618 49.1866 4.97705C49.4902 5.58429 51.0083 5.88791 51.0083 5.28067C50.7047 4.67343 52.2228 4.36981 52.5264 5.28067C52.83 5.88791 52.8301 5.88791 52.2228 6.79877C52.2228 8.01326 51.9192 8.01326 51.3119 7.40602C51.0083 7.1024 50.7047 6.79877 50.7047 7.10239C50.7047 8.01326 49.7938 7.70964 49.4902 6.79877C49.4902 6.19153 49.1866 6.19153 48.883 6.49515C48.5794 6.79877 48.2757 6.79877 47.6685 5.88791C47.3649 5.28067 47.0613 4.67343 47.3649 4.67343C47.3649 4.67343 47.3649 4.3698 47.0613 4.06618C46.7576 3.45894 43.7214 3.45894 42.8106 3.76256C42.5069 3.76256 42.2033 4.36981 42.2033 4.67343C42.2033 5.28067 42.5069 5.28067 42.8106 4.97705C42.8106 4.67343 43.7214 4.67343 44.3287 4.67343C44.9359 4.67343 45.5431 4.67343 45.8468 4.36981C45.8468 4.06618 46.1504 4.36981 46.454 4.67343C46.7576 5.28067 47.0613 5.58429 47.3649 5.58429C47.6685 5.58429 47.6685 5.88791 47.6685 5.88791C47.6685 6.79877 47.0612 7.40602 46.454 7.40602C45.8468 7.40602 45.8468 7.40602 46.454 6.49515C47.0612 5.58429 47.0613 5.58429 44.6323 5.58429C43.1142 5.58429 42.2033 5.28067 42.2033 4.97705C42.2033 4.67343 41.8997 4.67343 41.8997 5.28067C41.8997 5.88791 41.5961 6.19153 40.9888 6.19153C40.078 6.19153 40.078 6.19153 40.6852 5.28067C41.2925 4.67343 41.2925 4.36981 40.3816 4.67343C39.7743 4.97705 39.1671 4.97705 39.1671 4.97705C38.8635 4.97705 38.8635 5.28067 38.5599 5.58429C38.5599 5.88791 37.9526 6.19153 37.649 6.19153C37.0418 6.19153 37.0418 5.88791 37.3454 5.28067C37.649 4.36981 37.3454 4.36981 35.8273 4.97705C35.22 5.28067 34.0055 5.28067 33.0947 5.58429C32.1838 5.58429 31.273 5.88791 31.273 6.19153C30.9693 7.10239 30.6657 6.79877 30.9693 5.58429C31.273 4.67343 30.9693 4.67343 29.4512 4.67343C27.9331 4.67343 27.6295 4.67343 27.6295 3.76256C27.3259 3.15532 25.8078 2.8517 25.2005 3.45894C24.8969 3.76256 24.5933 3.76256 24.5933 3.45894C24.5933 3.15532 24.2897 3.15532 23.6824 3.45894C23.3788 3.76256 23.0752 3.76256 23.0752 3.45894C23.0752 3.15532 22.7716 3.45894 22.7716 3.76256C22.468 4.06618 21.8607 4.06618 21.5571 4.06618C20.3426 4.06618 19.7354 4.06618 19.4317 4.67343C19.1281 4.97705 18.2173 4.97705 17.61 5.28067C12.7521 5.28067 11.8412 5.88791 11.8412 7.70964C11.8412 8.31688 12.1448 8.31688 12.4485 8.01326C12.7521 8.01326 12.7521 8.01326 12.4485 8.6205C12.4485 9.22774 12.4485 9.53136 12.4485 9.53136C12.7521 9.53136 12.7521 9.83498 12.4485 10.1386C12.4485 10.4422 12.4485 10.7458 12.7521 10.7458C13.0557 10.7458 13.0557 11.0495 13.0557 11.3531C13.0557 11.6567 12.7521 11.6567 12.4485 11.0495C12.4485 10.4422 12.1448 10.1386 12.1448 10.4422C12.1448 10.7458 12.1448 11.9603 12.1448 12.264C12.1448 12.264 12.1448 13.1748 12.1448 13.7821C12.1448 14.9965 11.8412 15.3002 11.5376 15.9074C11.234 16.211 10.9304 16.5146 10.9304 16.8183C10.9304 17.1219 10.3231 17.4255 9.41225 17.7291C8.50139 18.0327 7.89415 18.0327 7.89415 17.7291C7.89415 16.8183 7.2869 16.8183 7.2869 17.7291C7.2869 18.0327 7.2869 18.64 6.98328 18.64C6.98328 18.64 6.67966 18.9436 6.67966 19.5509C6.67966 20.1581 6.67966 20.1581 6.37604 19.8545C6.07242 18.9436 5.46518 18.9436 5.46518 19.8545C5.46518 20.1581 5.46518 20.7653 5.16156 20.7653C4.85794 20.7653 4.85794 20.4617 4.85794 20.1581C4.85794 19.5509 3.64345 19.5509 3.33983 20.1581C3.33983 20.4617 2.73259 20.7653 2.42897 20.4617C1.82173 19.8545 1.5181 20.1581 1.5181 21.3726C1.5181 22.5871 1.51811 22.5871 2.12535 22.5871C3.33983 21.9798 3.64345 21.9798 3.03621 22.5871C2.73259 22.8907 2.73259 23.4979 2.73259 23.8015C2.73259 24.1052 2.73259 24.7124 2.73259 25.016C2.42897 25.3197 2.42897 26.2305 2.42897 27.445C2.42897 28.3559 2.42897 29.2667 2.42897 29.5703C2.12535 30.1776 0.607242 31.3921 0.303621 31.0885C0.303621 31.0885 0 31.0885 0 31.3921C0 31.6957 6.78646e-08 31.6957 0.303621 31.6957C0.910863 31.9993 1.21448 31.9993 1.5181 31.3921C1.82173 30.7848 1.82173 31.0885 2.12535 31.3921C2.42897 31.9993 2.42897 32.3029 1.82173 32.9102C1.5181 33.5174 0.910863 33.821 0.910863 33.5174C0.607242 33.2138 0.607242 34.1247 0.910863 34.7319C0.910863 35.0355 1.21448 34.7319 1.5181 34.4283C1.82173 34.1247 1.82173 34.1247 2.12535 34.4283C2.42897 35.0355 2.12535 35.3391 1.5181 35.6428C0.910863 36.25 0.607242 36.25 0.910863 36.5536C1.21448 36.8573 1.21448 36.8573 1.5181 36.5536C1.5181 36.25 2.12535 36.5536 2.42897 36.8573C3.03621 37.4645 3.03621 37.4645 2.42897 37.7681C2.12535 38.0717 1.82173 38.0717 2.12535 38.0717C2.42897 38.0717 2.42897 38.3754 2.42897 39.2862C2.12535 40.8043 4.85794 42.9297 5.7688 42.0188C6.07242 41.4116 6.67966 41.4116 7.2869 41.4116C7.59052 41.4116 8.19777 41.4116 8.50139 41.1079C8.80501 40.8043 9.10863 40.8043 9.10863 41.4116C9.10863 42.0188 9.41225 42.0188 9.41225 41.4116C9.41225 41.1079 9.71587 40.8043 10.3231 40.8043C10.9304 40.8043 11.234 40.5007 11.234 39.8935C11.234 38.9826 11.5376 38.9826 11.5376 39.8935C11.5376 41.1079 11.8412 41.1079 13.0557 40.5007C13.9666 39.8935 15.7883 39.8935 16.3955 40.5007C16.3955 40.8043 17.3064 40.5007 17.9136 40.1971C19.1281 39.5898 19.1281 39.2862 18.5209 38.9826C18.2173 38.679 17.9136 38.3754 18.2173 38.0717C18.5209 37.7681 18.8245 38.0717 18.8245 38.679C19.1281 39.5898 19.4317 39.5898 20.9498 39.8935C21.8607 39.8935 23.0752 39.8935 23.0752 39.5898C23.3788 39.2862 23.3788 39.2862 23.6824 39.5898C23.6824 39.8935 23.9861 39.8935 23.9861 39.5898C23.9861 39.2862 24.2897 39.2862 24.5933 39.2862C24.8969 39.2862 25.5042 39.5898 25.5042 39.5898C26.1114 39.5898 25.8078 40.8043 25.2005 40.8043C24.8969 40.8043 24.5933 40.8043 24.5933 41.1079C24.5933 41.4116 23.9861 41.4116 23.3788 41.4116C22.1643 41.4116 21.5571 41.7152 20.3426 42.0188L19.4317 42.3224L20.039 42.9297C20.6462 43.5369 22.1643 43.5369 22.468 42.9297C22.468 42.6261 22.7716 42.626 23.0752 42.626C23.3788 42.626 23.6824 42.3224 23.6824 42.0188C23.6824 41.7152 23.9861 41.7152 24.5933 42.3224C25.5042 43.2333 25.5042 43.2333 25.8078 42.3224C26.1114 41.4116 26.1114 41.1079 26.1114 41.4116C26.1114 42.0188 27.3259 42.0188 27.9331 41.4116C28.2368 41.1079 28.2368 40.8043 27.9331 40.5007C27.6295 40.1971 27.6295 40.1971 28.2368 40.1971C28.844 40.1971 28.844 40.5007 28.844 40.8043C28.844 41.1079 28.844 41.4116 28.844 41.1079C28.844 40.8043 29.1476 41.1079 29.4512 41.4116C29.7549 42.0188 29.7549 41.7152 30.0585 40.8043C30.3621 39.8935 30.3621 39.8935 30.6657 40.1971C31.273 40.8043 33.0947 40.5007 33.0947 39.8935C33.0947 39.5898 33.3983 39.5898 33.3983 39.5898C33.7019 39.5898 33.7019 39.8935 33.7019 40.1971C33.7019 40.5007 33.7019 40.8043 34.0055 40.8043C34.3092 40.8043 34.6128 40.5007 34.6128 39.8935C34.6128 39.2862 34.9164 38.9826 35.5237 39.2862C35.8273 39.2862 36.4345 39.5898 36.4345 39.8935C36.4345 40.1971 37.0418 39.8935 37.3454 39.5898C37.649 39.2862 37.9526 39.2862 38.2562 39.8935C38.5599 40.5007 38.5599 40.5007 38.8635 39.8935C39.1671 39.2862 39.1671 39.2862 39.1671 39.8935C39.1671 40.5007 39.1671 40.5007 39.4707 39.8935C39.4707 39.5898 39.7743 39.2862 39.7743 39.5898C40.078 39.8935 42.5069 38.9826 43.4178 37.7681C44.025 37.1609 44.025 37.1609 44.025 37.7681C44.025 38.3754 44.6323 38.3754 45.5431 38.679C46.7576 38.679 47.0613 38.3754 47.3649 36.8573C47.3649 36.5536 47.9721 36.8573 48.5794 37.1609C49.1866 37.7681 49.4902 37.7681 49.7938 37.4645C49.7938 37.1609 50.4011 37.1609 51.0083 37.1609C51.6156 37.4645 51.9192 37.4645 51.9192 36.8573C51.6156 35.6428 52.2228 36.25 52.5264 37.4645C53.1337 38.679 53.1337 38.679 53.1337 37.7681C53.1337 36.8573 53.1337 36.8573 53.4373 37.4645C53.7409 38.0717 54.0445 38.3754 54.3482 38.0717C54.6518 37.7681 54.9554 37.7681 54.9554 38.0717C54.9554 38.0717 55.259 37.7681 55.259 37.4645C55.259 36.8573 55.259 36.5536 55.5626 37.1609C55.8663 38.0717 56.4735 38.0717 56.1699 37.4645C56.1699 37.1609 56.1699 36.8573 56.4735 36.5536C56.7771 36.25 56.7771 36.5536 56.4735 36.8573C56.1699 37.4645 56.7771 38.0717 57.3844 37.7681C57.688 37.4645 57.688 37.4645 57.3844 37.1609C57.0807 36.8573 57.3844 36.8573 57.688 36.8573C57.9916 36.8573 58.2952 37.1609 57.9916 37.4645C57.9916 37.7681 57.9916 38.0717 58.2952 37.7681C59.5097 37.1609 60.117 37.1609 60.4206 37.7681C60.4206 38.0717 60.7242 38.0717 61.3314 37.7681C61.6351 37.4645 62.8495 37.1609 64.064 37.1609C64.9749 37.1609 66.1894 36.8573 66.1894 36.5536C66.493 35.9464 66.493 35.9464 66.7966 36.5536C66.7966 37.4645 68.922 37.7681 69.2256 36.8573C69.2256 36.5536 69.5292 36.5536 69.8328 36.5536C70.1364 36.8573 70.4401 36.5536 70.1364 35.6428C70.1364 34.7319 70.1364 34.7319 70.7437 35.0355C71.0473 35.3391 71.9582 35.6428 72.5654 35.6428C73.1727 35.9464 73.7799 36.25 73.7799 36.5536C73.7799 36.8573 74.0835 36.8573 74.3871 36.8573C74.9944 36.5536 74.9944 36.5536 74.3871 36.25C74.0835 35.9464 74.0835 35.6428 74.0835 35.3391C74.0835 35.0355 74.3871 35.0355 74.6908 35.6428C74.9944 36.25 74.9944 36.25 75.298 35.6428C75.298 35.3391 75.6016 35.0355 75.6016 35.3391C75.6016 35.6428 75.9052 35.3391 76.2089 35.0355C76.5125 34.4283 76.5125 34.4283 76.2089 35.3391C75.9052 36.5536 77.1197 36.5536 78.0306 35.3391C78.3342 34.7319 78.6378 34.7319 78.6378 35.0355C78.6378 35.3391 78.9415 35.3391 79.2451 35.0355C79.8523 34.4283 79.8523 34.7319 79.8523 35.6428C79.8523 36.5536 79.8523 36.5536 81.3704 36.5536C83.1921 36.5536 83.4958 36.25 82.8885 35.3391C82.5849 35.0355 82.5849 34.7319 83.1921 34.7319C83.4958 34.7319 83.7994 34.4283 83.7994 34.4283C83.7994 34.1247 84.103 34.1247 84.4066 34.4283C84.7103 34.7319 85.0139 35.3391 85.0139 35.3391C85.0139 36.25 88.3537 35.9464 88.6573 35.0355C88.961 34.1247 90.1754 34.1247 89.8718 35.0355C89.8718 35.3391 89.8718 35.6428 90.1754 35.6428C90.4791 35.6428 90.7827 35.6428 90.4791 35.3391C90.1754 35.0355 90.1754 34.7319 90.1754 34.4283C90.1754 34.1247 90.4791 34.1247 90.4791 34.4283C90.7827 34.7319 91.0863 34.4283 91.6935 34.1247C92.3008 33.5174 92.6044 33.5174 92.6044 34.1247C92.6044 34.4283 92.908 34.4283 93.2116 34.4283C93.5153 34.1247 93.8189 34.1247 94.1225 34.1247C94.4261 34.1247 94.7297 33.821 95.0334 33.5174C95.6406 32.9102 95.6406 32.9102 95.337 33.821C95.0334 34.4283 95.337 34.7319 95.337 34.4283C95.6406 34.1247 95.9442 33.821 96.2479 33.5174C96.5515 33.2138 96.5515 33.2138 96.5515 34.4283C96.2478 35.0355 96.2479 35.6428 96.2479 35.6428C96.5515 35.9464 97.4623 34.4283 97.4623 33.5174C97.4623 33.2138 97.766 32.6066 97.766 32.3029C98.0696 31.6957 98.0696 31.9993 98.0696 32.6066C98.0696 33.2138 98.0696 33.5174 98.3732 33.5174C99.2841 33.2138 99.5877 33.821 99.5877 34.7319C99.2841 35.9464 99.8913 36.8573 100.499 35.9464C100.802 35.3391 100.802 35.0355 100.802 34.7319C100.499 34.1247 100.499 33.821 100.802 33.821C101.106 33.5174 101.106 33.821 101.106 34.1247C101.106 34.4283 101.409 35.3391 101.713 36.25C102.017 37.1609 102.32 37.4645 102.32 36.8573C102.32 36.25 102.32 35.9464 102.624 35.6428C102.928 35.3391 102.624 35.0355 102.32 34.7319C101.713 34.4283 101.713 34.1247 102.017 33.821C102.32 33.821 102.624 33.2138 102.624 33.2138C102.928 32.3029 103.231 33.5174 103.231 34.4283C103.231 35.0355 103.231 35.3391 103.535 35.0355C103.838 34.7319 104.142 35.0355 104.446 35.6428C104.749 36.25 105.053 36.5536 105.964 36.25C106.571 36.25 106.875 35.9464 106.571 35.9464C106.267 35.9464 105.964 35.3391 106.267 35.0355C106.267 34.4283 106.267 34.1247 105.964 34.7319C105.66 35.3391 105.66 35.3391 105.66 34.7319C105.66 34.4283 105.356 34.1247 104.749 34.1247C104.446 34.1247 103.838 33.821 103.838 33.5174C103.838 32.6066 104.749 32.6066 105.053 33.5174C105.356 33.821 105.66 34.1247 105.66 33.821C105.964 33.5174 106.571 33.5174 108.089 33.821C108.696 34.1247 108.696 35.0355 108.089 35.0355C107.482 35.0355 108.089 36.25 109 36.5536C109.607 36.8573 109.607 36.5536 109.304 35.6428C109 34.7319 109 34.7319 109.304 34.7319C109.607 34.7319 109.911 35.0355 109.911 35.3391C109.911 35.6428 110.518 35.9464 110.822 35.9464C111.733 35.9464 112.34 37.4645 111.733 37.7681C111.429 38.0717 111.429 37.7681 111.429 37.4645C111.429 37.1609 111.429 37.1609 110.822 37.4645C110.518 37.7681 110.214 38.3754 110.518 38.679C110.518 39.2862 110.518 39.5898 110.214 39.2862C109.911 39.2862 109.911 38.9826 109.911 38.679C109.911 38.3754 109.911 38.0717 109.304 38.0717C108.696 38.0717 108.393 38.3754 108.696 39.2862C109 39.5898 108.696 39.8935 108.089 39.8935C107.482 39.8935 107.178 39.5898 107.482 38.9826C107.482 38.3754 107.482 38.0717 107.178 38.0717C106.875 38.0717 106.875 38.3754 106.875 39.2862C106.875 40.5007 106.875 40.5007 106.571 39.5898C106.267 38.679 105.964 38.679 105.053 38.9826C104.446 39.2862 103.231 39.5898 102.624 39.5898C100.802 39.8935 100.499 39.8935 100.195 40.5007C99.5877 41.1079 98.6768 40.5007 98.9804 39.8935C98.9804 39.2862 98.9804 39.2862 98.0696 39.5898C97.4623 39.8935 96.8551 40.1971 96.8551 40.8043C96.8551 41.1079 96.8551 41.4116 97.1587 41.4116C97.4623 41.4116 97.4623 41.7152 97.4623 42.0188C97.4623 42.6261 97.4623 42.626 98.0696 42.3224C98.3732 42.0188 99.2841 42.0188 99.5877 42.0188C100.195 42.0188 100.499 42.0188 100.499 41.4116C100.499 41.1079 100.499 40.8043 100.802 40.8043C101.106 40.8043 101.106 41.1079 101.106 41.7152C101.106 42.0188 101.106 42.3224 101.409 42.3224C101.713 42.3224 101.713 41.7152 101.713 41.1079C101.713 40.5007 101.713 40.5007 102.017 40.8043C102.32 41.7152 104.446 41.7152 104.749 40.8043C105.053 40.1971 105.053 40.1971 105.356 40.5007C105.66 41.1079 108.696 41.4116 109.304 40.8043C109.607 40.5007 109.911 40.1971 110.214 40.1971C111.125 40.1971 111.125 40.1971 111.733 39.2862C112.036 38.9826 112.643 38.679 113.251 38.679C113.858 38.679 114.465 38.3754 114.161 38.3754C114.465 35.3391 114.161 35.3391 114.161 35.3391C114.161 35.3391 113.858 35.3391 113.858 35.0355C113.858 34.7319 113.554 34.4283 113.554 34.7319C113.554 34.7319 113.251 34.4283 113.251 34.1247C113.251 33.5174 113.554 33.2138 115.376 33.5174C116.894 33.5174 117.501 33.821 117.501 34.1247C117.501 34.4283 116.894 34.7319 116.59 34.4283C116.287 34.4283 115.68 34.7319 115.376 35.0355C115.072 35.6428 115.072 35.6428 115.376 35.3391C115.68 35.0355 115.983 35.3391 115.68 35.9464C115.68 36.8573 115.68 36.8573 115.983 36.25C116.287 35.6428 116.287 35.6428 116.287 36.25C116.287 36.5536 116.59 36.8573 116.894 36.8573C117.198 36.8573 117.501 37.1609 117.501 37.4645C117.501 37.7681 117.198 38.0717 116.894 38.0717C116.59 38.0717 116.287 38.3754 115.983 38.679C115.983 38.9826 115.983 39.2862 116.287 38.9826C116.59 38.679 117.198 38.679 117.805 38.3754C118.716 38.0717 118.716 38.3754 119.019 39.2862C119.323 40.1971 119.323 40.1971 119.323 38.9826C119.323 37.7681 119.323 37.7681 120.234 38.0717C120.841 38.3754 121.752 38.679 122.056 38.679C122.359 38.679 123.27 38.679 123.574 38.679C123.877 38.679 124.181 38.3754 124.181 38.3754C124.181 38.0717 124.788 38.0717 125.395 38.0717C126.003 38.0717 126.61 38.3754 126.61 38.0717C126.61 38.0717 126.306 37.1609 126.003 36.5536C125.395 35.0355 124.485 34.7319 123.27 35.6428C122.663 35.9464 122.663 35.9464 122.359 35.3391C122.056 34.7319 122.056 34.7319 122.056 35.3391C122.056 36.5536 121.145 36.5536 120.841 35.0355C120.841 34.4283 120.538 33.821 119.93 33.2138C119.019 32.3029 119.019 31.6957 119.93 31.6957C120.234 31.6957 120.538 31.9993 120.538 32.3029C120.538 32.6066 120.538 32.9102 120.841 33.2138C121.145 33.821 121.145 33.5174 121.448 32.9102C121.448 32.3029 121.752 32.3029 122.056 32.3029C122.359 32.6066 122.359 32.3029 122.663 31.9993C122.663 31.6957 122.663 31.6957 122.359 31.6957C122.056 31.6957 122.056 31.3921 122.056 31.0885C122.056 30.7848 122.056 30.1776 121.752 30.1776C121.448 29.2667 121.752 28.9631 122.359 28.9631C122.663 28.9631 123.27 28.9631 123.574 28.9631C123.877 28.6595 124.181 28.6595 124.485 28.9631C124.788 29.2667 125.092 28.9631 125.092 28.6595C125.092 28.3559 125.092 28.0522 125.395 28.0522C125.699 28.0522 125.699 28.6595 125.699 29.2667C125.699 30.1776 125.395 30.1776 124.788 30.1776C123.574 30.1776 123.27 30.4812 123.574 31.3921C123.877 31.9993 124.788 32.3029 125.395 31.9993C125.395 31.9993 125.699 31.9993 126.003 31.9993C126.306 31.9993 126.306 31.9993 126.306 31.0885C126.306 30.1776 126.306 29.874 126.61 30.1776C126.914 30.4812 126.914 30.1776 126.914 29.874C126.61 28.6595 126.914 28.9631 127.824 30.4812C128.432 31.9993 129.343 31.9993 129.343 31.0885C129.343 30.7848 129.039 30.1776 128.735 29.874L128.128 29.2667H128.735C129.343 29.2667 129.646 29.5703 129.646 30.7848C129.646 31.9993 129.95 32.3029 130.253 32.3029C130.557 32.3029 130.557 32.3029 130.557 32.6066C130.557 32.9102 130.557 33.2138 130.557 33.2138C130.861 33.2138 130.861 33.5174 130.557 33.821C130.557 34.1247 130.253 34.1247 129.95 33.821C129.343 32.9102 129.039 33.2138 129.343 34.1247C129.343 34.7319 129.343 35.0355 129.039 35.0355C128.735 35.0355 128.735 35.0355 128.735 34.7319C128.735 34.4283 128.735 33.821 128.432 33.5174C128.128 32.9102 128.128 32.9102 127.521 33.821C126.914 35.0355 126.61 36.25 126.914 36.25C127.217 36.25 127.217 35.9464 127.217 35.6428C127.217 35.3391 127.217 35.0355 127.521 35.0355C128.128 35.0355 128.432 35.3391 128.128 35.9464C128.128 36.25 128.432 36.25 128.735 36.25C129.039 35.9464 129.343 36.25 129.039 36.5536C129.039 36.8573 129.039 37.1609 129.343 37.1609C129.646 37.1609 129.646 36.8573 129.646 36.5536C129.646 36.25 129.95 35.3391 130.253 35.0355C130.861 34.4283 131.164 33.821 131.164 33.2138C131.164 32.3029 131.772 31.6957 132.075 32.9102C132.075 33.2138 132.379 33.2138 132.682 32.9102C133.29 32.3029 134.2 32.6066 134.504 33.5174C134.504 33.821 134.808 34.1247 134.808 34.1247C134.808 34.1247 135.111 34.1247 135.111 34.4283C135.111 34.7319 135.111 34.7319 135.111 35.0355C135.111 35.3391 134.808 35.0355 134.808 34.7319C134.808 34.4283 134.2 34.1247 134.2 34.4283C133.897 34.7319 133.897 34.4283 133.897 34.1247C133.897 33.5174 132.075 33.5174 131.468 33.821C131.164 34.1247 131.164 34.4283 131.164 34.7319C131.164 35.0355 130.861 35.3391 130.557 35.6428C130.253 35.9464 129.95 36.25 129.95 36.5536C129.95 36.8573 130.253 36.8573 130.253 36.5536C130.557 36.25 130.861 36.5536 131.164 36.8573C131.468 37.1609 131.772 37.1609 132.075 37.1609C132.682 36.5536 133.29 36.8573 133.897 38.0717C134.2 38.679 134.2 38.679 134.2 37.7681C134.2 36.8573 134.2 36.5536 134.504 36.5536C134.808 36.5536 135.111 36.8573 135.111 37.1609C135.111 37.4645 135.415 37.7681 136.022 37.7681C136.629 37.7681 136.933 37.7681 136.629 36.8573C136.326 35.6428 136.933 35.6428 137.54 36.5536C138.148 37.7681 138.148 37.7681 138.148 36.5536C138.148 35.9464 138.148 35.9464 138.451 36.25C138.451 36.5536 138.755 36.8573 138.755 36.5536C138.755 36.5536 139.058 36.5536 139.362 36.8573C139.666 37.1609 139.666 37.1609 139.666 36.8573C139.666 35.9464 141.184 35.9464 141.791 36.8573C142.095 37.4645 142.398 37.4645 142.398 37.1609C142.398 36.25 143.916 36.25 144.827 37.1609C145.738 38.3754 146.649 38.3754 146.345 37.4645C146.345 37.1609 146.345 36.8573 146.649 37.1609C146.953 37.4645 147.256 37.1609 147.56 36.8573C147.863 35.9464 148.471 36.25 148.471 37.4645C148.471 38.0717 148.774 38.3754 149.078 38.3754C149.382 38.3754 149.989 38.679 150.292 38.9826C150.596 39.2862 150.9 39.2862 150.9 38.679C150.9 38.0717 150.9 37.7681 151.203 37.4645C151.507 37.1609 151.507 37.4645 151.507 37.7681C151.507 38.0717 152.114 38.3754 152.721 38.3754C153.329 38.3754 153.936 38.0717 153.936 37.7681C153.936 37.4645 153.936 37.1609 154.239 37.4645C154.239 37.7681 154.543 37.4645 154.543 37.1609C154.543 36.8573 154.543 36.8573 154.847 36.8573C155.15 37.1609 155.454 36.5536 155.758 35.9464L156.365 34.7319L156.061 36.25C155.758 38.0717 156.061 38.679 156.972 37.4645C157.579 36.8573 157.579 36.8573 157.883 37.4645C158.187 38.0717 158.49 38.0717 159.097 37.4645C159.705 36.8573 160.008 36.8573 160.008 37.4645C160.312 38.0717 160.312 38.0717 160.616 36.8573C160.919 36.25 161.223 35.9464 160.919 36.25C160.919 36.8573 161.223 36.8573 161.83 36.8573C162.134 36.8573 162.741 36.8573 162.741 37.1609C162.741 37.4645 163.044 37.4645 163.348 37.4645C163.652 37.4645 163.955 37.1609 163.955 36.5536C163.955 35.9464 163.955 35.9464 164.563 35.9464C165.473 35.9464 165.777 36.8573 165.17 37.1609C164.866 37.1609 165.17 37.4645 165.473 37.4645C166.081 37.4645 166.384 37.4645 166.384 37.1609C166.384 36.8573 166.992 36.8573 167.295 37.1609C167.902 37.4645 168.51 37.4645 169.117 36.8573C169.724 36.5536 170.331 36.25 170.635 35.9464C171.242 35.9464 171.242 35.9464 170.635 36.5536C170.331 37.1609 170.331 37.1609 171.546 37.1609C172.153 37.1609 172.457 37.1609 172.457 37.1609C171.546 36.8573 171.849 35.9464 172.76 35.9464C173.064 35.9464 173.671 36.25 173.671 36.5536C173.671 37.1609 174.886 37.1609 175.189 36.5536C175.189 36.25 175.493 36.25 175.797 36.8573C176.1 37.1609 176.1 37.4645 176.1 37.1609C176.1 36.8573 176.707 36.8573 177.618 36.8573C178.529 36.8573 179.136 36.8573 179.44 36.8573C179.744 36.5536 180.351 36.5536 181.262 36.5536C182.173 36.5536 182.476 36.25 182.476 36.25C182.476 35.9464 182.476 35.9464 182.78 35.9464C183.083 35.9464 183.387 36.5536 183.387 36.8573C183.387 37.4645 183.691 37.4645 183.994 37.1609C184.298 36.8573 184.298 36.8573 184.602 36.8573C184.602 37.1609 185.209 37.1609 185.512 37.4645C186.12 37.7681 186.12 37.4645 186.12 36.5536C186.12 35.9464 186.12 35.3391 186.423 35.3391C186.423 35.3391 186.727 35.6428 186.727 35.9464C186.727 37.7681 187.638 38.0717 189.763 37.4645C190.37 37.1609 190.978 37.1609 190.978 37.4645C191.281 38.0717 192.496 37.1609 192.496 36.5536C192.496 35.9464 192.496 35.9464 193.103 35.9464C193.71 35.9464 194.014 36.5536 194.014 36.8573C194.014 37.7681 194.621 37.7681 195.228 36.5536C195.532 35.6428 195.532 35.6428 195.532 36.8573C195.532 37.4645 195.532 37.7681 195.836 37.7681C196.443 37.4645 197.354 37.4645 198.872 37.4645C200.086 37.4645 200.086 37.4645 200.086 36.8573C199.783 36.5536 199.783 36.25 200.693 36.25C201.301 36.25 201.604 36.5536 201.604 36.8573C201.604 37.4645 203.122 37.4645 203.426 37.1609C203.426 36.8573 204.033 37.1609 204.641 37.4645C205.248 37.7681 205.855 37.7681 205.855 37.4645C205.855 37.1609 205.855 37.1609 206.159 37.4645C206.159 37.7681 206.462 38.0717 206.159 38.3754C205.855 38.9826 206.159 38.9826 206.766 38.3754C207.07 38.0717 208.284 38.0717 209.802 38.0717C211.32 38.0717 212.838 38.0717 213.446 37.7681C214.356 37.1609 214.356 37.1609 213.749 36.5536L213.142 35.9464L213.749 35.6428C214.356 35.3391 214.356 35.6428 214.66 36.5536C214.964 37.7681 215.571 38.3754 215.875 37.7681C216.178 37.1609 217.393 37.1609 217.089 37.7681C216.785 38.679 217.696 38.0717 218 37.1609C218.303 36.25 218.607 35.9464 221.036 36.25C223.465 36.5536 223.769 36.5536 223.769 35.6428C223.769 35.0355 223.769 34.7319 224.072 35.3391C224.376 35.6428 224.983 35.9464 225.59 35.9464C226.198 35.9464 226.805 35.9464 226.805 36.25C226.805 37.1609 227.716 36.8573 228.019 35.9464C228.323 35.3391 228.323 35.3391 228.627 35.9464C229.234 36.8573 232.27 37.1609 233.181 36.25C233.788 35.6428 233.788 35.6428 233.485 36.25C233.181 36.5536 233.485 36.8573 233.788 36.5536C235.914 35.6428 237.432 35.3391 237.735 35.9464C238.039 36.5536 238.039 36.5536 238.039 35.9464C238.039 35.6428 238.342 35.3391 238.646 35.6428C239.253 35.9464 239.253 35.9464 239.253 35.3391C239.253 34.7319 239.253 34.7319 239.557 35.3391C239.861 35.6428 240.164 35.9464 240.164 35.9464C240.164 35.6428 240.771 35.9464 241.075 36.5536C241.986 37.7681 241.986 37.7681 241.986 36.5536C241.682 35.6428 242.593 35.9464 242.897 36.8573C243.2 37.4645 243.2 37.4645 243.2 36.8573C243.2 36.25 243.504 36.25 244.415 36.5536C245.933 36.8573 247.147 36.5536 247.147 35.6428C247.147 35.3391 247.147 35.0355 247.147 35.0355C247.147 34.7319 247.451 35.3391 247.451 35.9464C247.451 36.5536 247.755 36.8573 248.058 36.8573C248.362 36.5536 248.362 36.8573 248.362 37.4645C248.362 38.0717 248.666 38.3754 248.969 38.3754C249.273 38.3754 249.576 38.3754 249.576 38.0717C249.576 37.4645 250.184 37.1609 251.095 37.1609C251.398 37.1609 252.005 37.1609 252.005 36.8573C252.005 36.5536 252.309 36.5536 252.613 37.1609C252.916 38.0717 253.22 38.0717 253.524 37.1609C253.827 36.5536 254.131 36.5536 253.827 36.8573C253.827 37.1609 253.827 37.4645 254.131 37.4645C254.434 37.4645 254.434 37.1609 254.434 36.8573C254.434 36.5536 254.738 36.25 254.738 36.25C255.042 36.25 255.042 36.5536 255.042 36.8573C255.042 37.4645 260.507 38.0717 261.114 37.7681C261.721 37.4645 261.721 36.5536 260.81 35.9464C261.721 35.3391 261.114 35.3391 261.418 36.25C261.721 36.5536 261.721 36.8573 261.418 37.1609C261.114 37.4645 261.114 37.1609 261.114 34.7319C261.114 33.5174 261.114 33.5174 261.418 34.1247C261.721 34.7319 262.025 34.7319 262.025 34.1247C262.329 33.821 262.329 33.2138 262.025 32.9102C262.025 32.6066 262.025 32.9102 262.329 33.2138C262.632 33.5174 262.936 34.1247 262.936 34.4283C263.239 35.3391 263.543 35.0355 264.15 34.1247C264.757 33.2138 264.757 33.2138 264.454 34.1247C264.15 34.7319 264.454 35.0355 265.972 35.0355C266.883 35.0355 267.794 35.0355 267.794 34.4283C268.097 33.5174 268.705 33.5174 269.008 34.4283C269.008 35.0355 270.83 35.3391 277.206 36.25C277.206 36.25 277.813 36.25 278.117 35.9464C278.42 35.9464 279.028 35.9464 279.028 36.25C279.331 36.8573 280.849 37.1609 281.153 36.5536C281.153 36.25 282.368 36.25 283.582 36.5536C284.796 36.8573 286.315 37.1609 286.922 37.1609C287.529 37.1609 288.136 37.4645 288.136 37.7681C288.136 38.679 288.44 38.3754 289.047 36.8573C289.351 35.0355 289.958 34.7319 289.958 36.25C289.958 37.1609 290.262 37.1609 292.691 37.4645C296.334 37.7681 296.334 37.7681 298.156 38.0717C299.37 38.3754 299.978 38.3754 299.978 37.7681C299.978 36.8573 301.799 36.8573 302.406 37.7681C302.71 38.0717 303.014 38.0717 303.621 37.7681C304.228 37.4645 304.835 37.4645 304.835 37.7681C304.835 38.0717 305.139 37.7681 305.443 37.1609C305.746 36.25 305.746 36.25 305.746 37.1609C305.746 38.0717 305.746 38.0717 306.657 37.7681C307.264 37.7681 307.872 37.4645 308.479 37.4645C309.086 37.4645 309.39 37.4645 309.086 37.1609C308.479 36.5536 308.783 36.25 309.997 36.25C310.604 36.25 310.908 36.25 310.908 35.9464C310.908 35.6428 310.908 35.3391 310.908 35.3391C311.212 35.3391 311.212 35.6428 311.212 36.25C311.212 37.1609 312.122 37.4645 313.033 36.5536C313.337 36.25 313.944 35.9464 314.551 35.9464C314.855 35.9464 315.462 35.9464 315.462 35.6428C315.462 35.3391 315.462 35.3391 315.159 35.0355C314.855 35.0355 314.855 34.7319 314.855 34.7319C314.855 34.4283 315.766 34.4283 316.677 34.4283C318.195 34.4283 318.498 34.4283 318.802 33.821C319.106 33.2138 319.409 33.2138 320.624 33.2138C321.838 33.2138 322.445 33.2138 322.749 32.6066C323.053 32.3029 323.053 31.9993 323.356 32.3029C323.356 33.2138 324.874 32.6066 324.874 31.3921C324.874 30.7848 325.178 30.4812 325.785 30.4812C326.696 30.4812 327.911 29.5703 327.607 28.9631C327.607 28.6595 327.607 28.3559 327.911 28.3559C328.214 28.3559 328.214 28.0522 328.214 27.7486C328.214 27.445 327.911 27.1414 327.607 27.1414C327.303 27.1414 327 26.8378 327 26.5341C326.393 27.7486 327 27.7486 327.303 27.7486Z" fill="black"/>
</g>
</g>
<path d="M113.346 8.87097C113.559 9.27419 113.772 9.47581 113.986 9.67742C114.199 9.87903 114.199 10.0806 114.199 10.2823C114.199 10.4839 113.986 10.6855 113.772 11.0887C113.559 11.4919 113.133 11.4919 112.92 11.4919C112.494 11.4919 112.28 11.4919 111.854 11.2903C111.641 11.0887 111.428 11.0887 111.215 10.6855C110.788 10.2823 110.575 9.87903 109.936 9.47581C109.51 9.07258 108.657 9.07258 107.804 9.07258C106.952 9.07258 106.099 9.27419 104.821 9.67742C103.755 10.0806 103.115 10.4839 102.689 11.0887C102.263 11.4919 101.837 12.2984 101.623 13.3065C101.41 14.3145 101.197 15.121 101.197 16.129C101.197 17.1371 101.41 18.3468 102.05 19.1532C102.476 20.1613 103.329 20.7661 104.181 21.371C105.247 21.9758 106.312 22.1774 107.804 22.1774C108.444 22.1774 109.296 21.9758 110.149 21.7742C111.002 21.5726 111.641 20.9677 112.28 20.3629C112.707 19.9597 113.133 19.7581 113.559 19.7581C113.986 19.7581 114.199 19.9597 114.412 20.1613C114.625 20.3629 114.838 20.7661 114.838 20.9677C114.838 21.1694 114.838 21.5726 114.625 21.7742C114.625 21.9758 114.412 22.1774 114.199 22.5806C113.346 23.3871 112.494 23.9919 111.215 24.3952C110.149 24.7984 108.657 24.7984 107.165 24.7984C105.673 24.7984 104.394 24.3952 102.902 23.7903C101.41 23.1855 100.345 22.379 99.7051 21.5726C99.2788 20.9677 98.8526 20.1613 98.6394 19.1532C98.2131 18.1452 98 17.3387 98 16.5323C98 14.9194 98.2131 13.3065 98.8526 11.8952C99.492 10.4839 100.131 9.27419 101.197 8.26613C101.837 7.66129 102.902 7.25806 104.181 6.85484C105.46 6.45161 106.739 6.45161 107.804 6.45161C109.083 6.45161 110.149 6.65323 111.002 7.05645C111.854 7.25806 112.494 7.8629 113.346 8.87097ZM108.657 0C109.083 0 109.51 0 109.723 0.201613C109.936 0.403226 110.149 0.604839 110.149 0.806452C110.149 1.41129 109.936 1.81452 109.296 2.21774C108.87 2.62097 108.231 3.02419 107.591 3.42742C107.378 3.83065 106.952 3.83065 106.526 4.03226C106.099 4.23387 105.673 4.23387 105.46 4.23387C105.034 4.23387 104.821 4.03226 104.821 3.62903C104.821 3.42742 104.821 3.42742 105.034 3.22581C105.034 3.22581 105.247 3.02419 105.46 2.82258C105.46 2.82258 105.673 2.62097 105.886 2.41935C106.099 2.21774 106.312 2.01613 106.312 1.81452C106.526 1.6129 106.739 1.41129 106.739 1.00806C106.952 0.604839 107.165 0.201613 107.591 0C107.804 0 108.231 0 108.657 0ZM131.463 17.9435C131.676 17.5403 131.676 16.9355 131.889 16.129C132.103 15.3226 132.316 14.7177 132.316 14.1129C132.529 13.7097 132.529 13.3065 132.742 12.9032C132.955 12.5 133.168 12.2984 133.381 12.2984C133.595 12.0968 133.808 12.0968 134.021 12.0968C135.087 12.0968 135.513 12.5 135.513 13.3065C135.513 13.7097 135.3 14.3145 135.087 15.5242C134.021 18.5484 133.168 20.9677 132.742 22.5806C132.529 23.1855 132.316 23.7903 131.889 24.1935C131.463 24.5968 131.037 24.7984 130.184 24.7984C129.758 24.7984 129.545 24.5968 129.119 24.3952C128.692 23.9919 128.479 23.7903 128.266 23.1855L127.84 22.379C127.2 20.9677 126.774 19.9597 126.561 19.1532C126.348 18.3468 126.135 17.7419 126.135 17.1371L125.921 18.1452C125.495 19.7581 124.856 21.371 124.429 22.7823C124.216 23.5887 123.79 23.9919 123.364 24.3952C122.937 24.7984 122.511 24.7984 121.872 24.7984C121.446 24.7984 121.232 24.7984 121.019 24.5968C120.806 24.3952 120.38 24.1935 120.167 23.7903C119.74 23.3871 119.527 22.5806 119.314 21.7742C119.101 20.9677 118.675 19.5564 118.035 17.9435C117.822 17.1371 117.609 16.3306 117.396 15.5242C117.183 14.7177 116.97 14.1129 116.97 13.7097C116.97 13.3065 117.183 12.9032 117.396 12.7016C117.609 12.5 118.035 12.2984 118.462 12.2984C119.101 12.2984 119.314 12.2984 119.527 12.5C119.74 12.7016 119.954 12.9032 120.167 13.3065C120.167 13.9113 120.593 14.9194 120.806 16.129L121.446 18.75C121.446 18.9516 121.659 19.3548 121.872 20.1613L122.085 20.9677C122.511 20.1613 122.937 19.1532 123.151 18.3468C123.364 17.5403 123.79 16.5323 124.216 15.3226C124.216 15.3226 124.429 14.5161 124.856 13.3065C125.069 12.9032 125.282 12.7016 125.495 12.5C125.708 12.2984 125.921 12.2984 126.135 12.2984C126.561 12.2984 126.987 12.5 127.2 12.7016C127.413 12.9032 127.627 13.3065 127.84 13.5081C128.053 14.3145 128.266 14.9194 128.479 15.5242C128.479 15.7258 128.692 16.3306 129.119 17.3387C129.332 18.3468 129.758 19.1532 129.971 19.7581C130.184 20.3629 130.397 20.7661 130.611 21.1694L131.463 17.9435ZM139.562 6.25C140.202 6.25 140.841 6.45161 141.481 6.85484C141.907 7.05645 142.333 7.66129 142.333 8.26613C142.333 8.66935 142.12 9.07258 141.694 9.27419C141.268 9.47581 140.841 9.67742 140.202 9.67742C139.562 9.67742 139.136 9.47581 138.923 9.27419C138.71 9.07258 138.497 8.66935 138.497 8.46774C138.497 7.8629 138.497 7.45968 138.71 7.05645C138.71 6.45161 139.136 6.25 139.562 6.25ZM141.907 18.9516V19.7581C141.907 20.5645 141.907 21.1694 141.907 21.7742C141.907 22.379 142.12 23.1855 142.12 23.7903C142.12 23.9919 141.907 24.1935 141.694 24.3952C141.481 24.5968 141.054 24.5968 140.841 24.5968C140.415 24.5968 139.989 24.5968 139.776 24.3952C139.349 24.1935 139.136 23.9919 139.136 23.7903C138.923 23.1855 138.923 22.5806 138.923 22.1774C138.923 20.5645 138.923 18.9516 138.71 16.9355C138.71 15.121 138.497 14.1129 138.497 13.3065C138.497 12.9032 138.71 12.7016 139.136 12.5C139.562 12.2984 139.776 12.0968 140.202 12.0968C140.841 12.0968 141.268 12.2984 141.481 12.5C141.694 12.7016 141.907 13.1048 141.907 13.7097V18.9516ZM155.122 16.129C154.909 16.129 154.482 16.129 154.269 15.9274C154.056 15.7258 153.843 15.5242 153.63 15.3226C153.417 15.121 153.204 14.9194 152.99 14.9194C152.777 14.9194 152.351 14.7177 152.138 14.7177C151.498 14.7177 151.072 14.9194 150.433 15.121C149.793 15.5242 149.367 15.9274 149.154 16.5323C148.728 17.1371 148.728 17.7419 148.728 18.5484C148.728 19.3548 148.941 19.9597 149.154 20.5645C149.58 21.1694 150.006 21.5726 150.646 21.9758C150.859 22.1774 151.285 22.1774 151.498 22.379C151.925 22.379 152.138 22.5806 152.351 22.5806C152.99 22.5806 153.843 22.379 154.696 21.7742C154.696 21.7742 154.909 21.5726 155.122 21.5726C155.335 21.371 155.548 21.371 155.548 21.371C155.761 21.371 155.974 21.371 156.401 21.5726C156.614 21.7742 156.827 21.9758 156.827 22.379C156.827 22.9839 156.614 23.3871 155.974 23.7903C155.335 24.1935 154.909 24.3952 154.056 24.5968C153.204 24.7984 152.564 24.7984 151.712 24.7984C150.433 24.7984 149.367 24.5968 148.301 23.9919C147.236 23.3871 146.383 22.7823 145.957 21.7742C145.53 20.7661 145.104 19.7581 145.104 18.75C145.104 17.5403 145.317 16.3306 145.957 15.3226C146.596 14.3145 147.236 13.5081 148.301 12.9032C149.367 12.2984 150.433 12.0968 151.498 12.0968C152.564 12.0968 153.63 12.2984 154.696 12.7016C155.548 13.1048 156.188 13.7097 156.188 14.7177C156.401 15.5242 155.974 16.129 155.122 16.129ZM170.042 14.9194C169.615 15.5242 168.976 16.3306 168.337 16.9355C167.697 17.7419 166.631 18.5484 165.566 19.5565C164.5 20.5645 163.861 20.9677 163.861 21.1694L162.582 22.1774C163.008 22.1774 163.647 22.379 164.926 22.379C165.353 22.379 165.992 22.379 166.845 22.1774C167.697 21.9758 168.337 21.9758 168.55 21.9758C168.976 21.9758 169.189 21.9758 169.615 22.1774C170.042 22.1774 170.468 22.379 170.681 22.5806C170.894 22.5806 171.107 22.7823 171.107 22.9839C171.321 23.1855 171.321 23.3871 171.321 23.5887C171.321 23.7903 171.321 24.1935 171.107 24.3952C170.894 24.7984 170.681 24.7984 170.468 24.7984C170.255 24.7984 170.042 24.7984 169.615 24.5968C168.976 24.5968 168.763 24.3952 168.55 24.3952C167.91 24.3952 166.845 24.3952 165.779 24.5968C164.074 24.7984 163.008 24.7984 162.155 24.7984C161.09 24.7984 160.45 24.5968 159.811 24.3952C159.171 24.1935 158.958 23.7903 158.958 23.1855C158.958 22.7823 159.171 22.1774 159.811 21.5726C160.237 20.9677 160.877 20.3629 161.729 19.5565L162.155 19.1532C162.582 18.75 163.008 18.3468 163.861 17.7419C164.713 17.1371 165.139 16.5323 165.566 16.3306C165.992 15.9274 166.205 15.5242 166.631 15.121H161.729C160.877 15.121 160.45 15.121 160.024 14.9194C159.598 14.7177 159.385 14.5161 159.385 13.9113C159.385 13.7097 159.385 13.3065 159.598 13.1048C159.811 12.9032 160.024 12.7016 160.45 12.7016C161.09 12.7016 162.582 12.5 164.926 12.5C167.058 12.5 168.763 12.7016 169.615 12.9032C169.829 12.9032 170.042 13.1048 170.042 13.3065C170.255 13.5081 170.255 13.7097 170.255 13.9113C170.255 14.1129 170.255 14.5161 170.042 14.9194ZM173.239 18.1452C173.239 16.9355 173.452 15.9274 174.091 15.3226C174.731 14.5161 175.37 13.9113 176.436 13.1048C176.649 12.9032 177.288 12.7016 177.928 12.7016C178.567 12.5 179.207 12.5 179.633 12.5C180.272 12.5 180.912 12.7016 181.551 12.9032C182.191 13.1048 182.83 13.5081 183.256 13.7097C183.896 14.3145 184.535 14.9194 184.748 15.5242C184.962 16.129 185.175 16.9355 185.175 17.9435C185.175 18.3468 184.962 18.75 184.535 19.1532C184.109 19.5565 183.47 19.7581 183.043 19.7581H181.978C181.338 19.7581 180.486 19.7581 179.42 19.7581H178.78C178.354 19.7581 177.928 19.7581 177.715 19.7581C177.288 19.7581 176.862 19.7581 176.436 19.5565C176.436 20.3629 176.862 21.1694 177.502 21.5726C178.141 22.1774 178.78 22.379 179.42 22.379C180.699 22.379 181.551 22.1774 181.978 21.5726C182.404 21.371 182.617 21.1694 182.83 20.9677C183.043 20.9677 183.256 20.7661 183.47 20.7661C183.896 20.7661 184.109 20.9677 184.322 21.1694C184.535 21.371 184.748 21.7742 184.748 21.9758C184.748 22.379 184.535 22.5806 184.109 22.9839C183.683 23.3871 183.043 23.5887 182.404 23.9919C181.978 24.1935 181.551 24.1935 180.912 24.3952C180.272 24.5968 179.633 24.5968 179.207 24.5968C178.567 24.5968 177.715 24.3952 176.862 23.9919C176.01 23.5887 175.37 23.1855 174.944 22.7823C174.518 22.379 174.091 21.5726 173.878 20.7661C173.452 19.9597 173.239 19.1532 173.239 18.1452ZM179.207 17.3387C180.699 17.3387 181.764 17.3387 182.404 17.1371C182.404 16.5323 182.191 16.129 181.764 15.7258C181.338 15.3226 180.912 15.121 180.486 14.9194C180.272 14.9194 180.059 14.7177 180.059 14.7177C179.846 14.7177 179.846 14.7177 179.633 14.7177C178.78 14.7177 177.928 14.9194 177.288 15.5242C176.649 15.9274 176.223 16.5323 176.223 17.3387C177.075 17.3387 178.141 17.3387 179.207 17.3387ZM201.587 22.5806C201.587 22.5806 201.8 22.5806 202.013 22.7823C202.226 22.7823 202.439 22.9839 202.439 22.9839L202.652 23.1855C202.652 23.5887 202.439 23.9919 202.226 24.3952C201.8 24.5968 201.373 24.7984 200.947 24.7984C200.095 24.7984 199.455 24.5968 199.029 24.1935C198.603 23.7903 198.176 23.1855 197.963 22.379C197.963 21.9758 197.75 21.5726 197.75 20.9677C197.75 20.5645 197.75 20.1613 197.75 19.3548C197.75 18.5484 197.75 17.9435 197.75 17.5403C197.75 16.9355 197.537 16.3306 197.111 15.7258C196.684 15.121 196.258 14.9194 195.405 14.9194C194.979 14.9194 194.553 15.121 194.127 15.3226C193.7 15.5242 193.274 15.9274 193.061 16.129C192.848 16.7339 192.635 17.3387 192.421 17.9435C192.635 19.1532 192.635 20.3629 192.635 21.5726C192.635 22.1774 192.635 22.5806 192.635 22.9839C192.635 22.9839 192.635 23.1855 192.635 23.3871C192.635 23.5887 192.635 23.7903 192.635 23.9919C192.635 24.1935 192.421 24.3952 192.421 24.3952C192.421 24.3952 192.208 24.5968 191.995 24.5968C191.782 24.5968 191.569 24.5968 191.356 24.5968C191.143 24.5968 190.716 24.3952 190.29 24.1935C189.864 23.9919 189.651 23.7903 189.651 23.3871V22.9839C189.651 22.7823 189.651 22.5806 189.651 22.379C189.864 20.9677 190.077 19.9597 190.077 18.9516C190.077 18.5484 190.077 18.1452 190.077 17.9435V16.5323C190.077 16.129 189.864 15.7258 189.651 15.121C189.437 14.7177 189.224 14.5161 188.798 14.5161C188.798 14.5161 188.585 14.5161 188.372 14.5161C188.159 14.5161 187.946 14.5161 187.946 14.5161C187.732 14.5161 187.519 14.5161 187.306 14.3145C187.093 14.1129 186.88 13.9113 186.88 13.7097C186.88 13.3065 187.093 12.9032 187.306 12.7016C187.519 12.5 187.946 12.2984 188.159 12.0968C188.372 11.8952 188.798 11.8952 189.224 11.8952C189.651 11.8952 189.864 11.8952 190.077 11.8952C190.29 11.8952 190.503 12.0968 190.929 12.2984C191.143 12.2984 191.356 12.7016 191.569 12.9032C191.782 13.3065 191.995 13.7097 192.208 14.3145C192.635 13.3065 193.487 12.7016 194.127 12.2984C194.979 11.8952 195.832 11.6935 197.111 11.6935C197.537 11.6935 198.176 11.8952 198.603 12.0968C199.242 12.2984 199.668 12.7016 199.881 13.1048C200.308 13.5081 200.521 14.1129 200.734 14.7177C200.947 15.3226 201.16 15.9274 201.16 16.3306C201.16 16.5323 201.16 17.1371 201.16 17.7419C201.16 18.3468 201.16 18.75 201.16 19.3548C200.734 21.371 201.16 22.1774 201.587 22.5806ZM206.489 6.25C207.128 6.25 207.768 6.45161 208.407 6.85484C208.833 7.05645 209.26 7.66129 209.26 8.26613C209.26 8.66935 209.046 9.07258 208.62 9.27419C208.194 9.47581 207.768 9.67742 207.128 9.67742C206.489 9.67742 206.062 9.47581 205.849 9.27419C205.636 9.07258 205.423 8.66935 205.423 8.46774C205.423 7.8629 205.423 7.45968 205.636 7.05645C205.636 6.45161 205.849 6.25 206.489 6.25ZM205.849 18.1452V17.3387C205.849 16.3306 205.849 15.5242 205.636 14.7177C205.636 13.9113 205.423 13.5081 205.423 13.3065C205.423 13.1048 205.636 12.9032 205.849 12.7016C206.062 12.5 206.489 12.5 206.702 12.5C207.128 12.5 207.554 12.5 207.768 12.7016C208.194 12.9032 208.407 13.1048 208.407 13.3065C208.407 13.9113 208.62 14.5161 208.62 14.9194C208.62 15.7258 208.62 17.1371 208.833 18.9516V20.1613V21.1694C208.833 21.5726 208.833 21.7742 208.833 22.1774C208.833 22.5806 208.833 22.9839 208.833 23.5887C208.833 23.9919 208.62 24.1935 208.194 24.5968C207.768 24.7984 207.341 25 207.128 25C206.489 25 206.062 24.7984 205.849 24.5968C205.636 24.3952 205.423 23.9919 205.423 23.3871L205.849 18.1452ZM212.457 18.5484C212.457 17.7419 212.67 17.1371 212.883 16.3306C213.096 15.5242 213.522 14.9194 213.949 14.3145C214.375 13.7097 215.228 13.1048 216.08 12.9032C217.146 12.5 217.998 12.2984 218.851 12.2984C219.704 12.2984 220.556 12.5 221.409 12.7016C222.261 12.9032 222.901 13.3065 223.114 13.7097C223.753 14.7177 224.179 15.7258 224.179 16.5323C224.179 17.1371 223.966 17.5403 223.753 17.9435C223.54 18.3468 223.114 18.75 222.687 19.1532C222.261 19.5565 221.835 19.7581 220.982 19.7581C220.343 19.9597 219.49 19.9597 218.851 19.9597C218.425 19.9597 217.785 19.9597 217.146 19.7581C216.506 19.5565 216.08 19.5565 215.441 19.3548C215.441 19.7581 215.654 20.1613 215.654 20.5645C215.867 20.9677 216.08 21.1694 216.293 21.371C216.72 21.7742 217.146 21.9758 217.572 21.9758C217.998 21.9758 218.638 22.1774 219.277 22.1774C219.917 22.1774 220.769 21.9758 221.196 21.7742C221.622 21.5726 222.048 21.5726 222.474 21.5726C222.901 21.5726 223.114 21.7742 223.327 21.9758C223.54 22.1774 223.54 22.379 223.54 22.7823C223.54 23.1855 223.327 23.5887 222.687 23.9919C222.048 24.3952 221.409 24.5968 220.769 24.5968C219.917 24.7984 219.49 24.7984 218.851 24.7984C217.998 24.7984 216.933 24.5968 216.08 24.3952C215.228 23.9919 214.375 23.5887 213.949 22.9839C213.522 22.379 213.096 21.7742 212.883 20.9677C212.457 20.3629 212.457 19.5565 212.457 18.5484ZM219.064 14.7177C218.638 14.7177 218.212 14.7177 217.785 14.9194C217.359 15.121 216.933 15.3226 216.72 15.5242C216.293 15.9274 216.08 16.129 216.08 16.3306C215.867 16.5323 215.867 16.9355 215.867 17.1371C216.293 17.3387 217.359 17.3387 219.064 17.3387C219.917 17.3387 220.556 17.1371 220.982 16.9355C221.409 16.7339 221.622 16.3306 221.622 15.9274C221.622 15.5242 221.409 15.121 220.769 14.9194C220.13 14.9194 219.49 14.7177 219.064 14.7177ZM229.295 16.129C228.869 16.129 228.229 15.9274 227.803 15.5242C227.377 15.121 227.163 14.7177 227.163 14.1129C227.163 13.9113 227.163 13.7097 227.377 13.3065C227.59 12.9032 227.803 12.7016 228.016 12.5C228.229 12.2984 228.655 12.2984 228.869 12.2984C229.508 12.2984 229.934 12.5 230.361 12.9032C230.787 13.3065 231 13.9113 231 14.3145C231 14.7177 231 14.9194 230.787 15.121C230.361 15.7258 229.934 16.129 229.295 16.129ZM229.082 21.371C229.721 21.371 230.361 21.5726 230.574 21.7742C231 21.9758 231 22.379 231 22.7823C231 23.1855 230.787 23.7903 230.574 24.1935C230.147 24.5968 229.721 24.7984 229.295 24.7984C228.655 24.7984 228.016 24.5968 227.803 24.1935C227.377 23.7903 227.377 23.3871 227.377 22.9839C227.377 22.5806 227.59 22.1774 227.803 21.7742C228.016 21.5726 228.442 21.371 229.082 21.371Z" fill="black"/>
</svg>
