<svg width="470" height="114" viewBox="0 0 470 114" fill="none" xmlns="http://www.w3.org/2000/svg">
<g clip-path="url(#clip0_39_5456)">
<path d="M4.1328 55.7654C6.19964 52.0614 6.61301 47.7401 7.23306 43.6246C7.85311 39.0975 8.47317 34.5704 8.67985 30.0433C8.67985 29.426 8.67985 29.0145 8.88654 28.3971C10.7467 26.7509 12.4002 24.8989 14.0536 23.0469C15.2937 34.5704 19.4274 45.4766 19.6341 57C19.6341 59.8809 25.0079 59.2636 24.5945 56.7942C22.321 45.2708 21.701 32.3069 16.1205 21.6065C16.1205 21.4007 15.9138 21.4007 15.7071 21.195C16.7405 20.1661 17.5673 19.1372 18.6007 18.3141C22.5277 14.4044 26.4547 10.7004 29.9683 6.58486C31.0017 5.3502 28.7282 4.73287 27.9015 5.3502C23.5611 8.64262 19.6341 12.5524 15.7071 16.0506C13.6403 17.9025 11.3667 19.9603 9.09322 21.8123C9.2999 15.639 9.09322 9.46572 8.47317 3.29244C8.47317 2.46933 7.02638 2.46933 6.81969 3.29244C5.3729 11.3177 4.33948 19.343 3.51274 27.3682C3.51274 27.574 3.51274 27.7798 3.51274 27.7798C3.09938 28.3971 3.09938 28.8087 3.30606 29.2202C2.89269 33.13 2.47932 37.0397 1.85927 40.7437C1.23922 45.2708 -0.414257 50.2094 -0.000888221 54.9423C0.205796 56.7942 3.09938 57.2058 4.1328 55.7654Z" fill="black"/>
<path d="M31.4175 26.3393C31.0041 25.1047 28.9372 25.1047 28.5239 26.3393C26.6637 33.3357 26.6637 41.7725 26.457 48.9747C26.457 51.444 31.2108 51.8556 31.6241 49.3863C32.8642 42.1841 33.4843 33.3357 31.4175 26.3393Z" fill="black"/>
<path d="M30.3818 19.9603C33.2753 19.9603 33.2753 16.0505 30.1751 16.0505C27.2815 16.0505 27.4882 19.9603 30.3818 19.9603Z" fill="black"/>
<path d="M54.3577 6.7906C51.8775 6.17328 49.3973 6.17328 46.7104 6.37905C44.8503 6.58483 42.3701 6.17328 40.7166 6.99638C37.4096 8.64259 38.6497 13.3754 38.6497 16.2563C38.6497 20.9892 38.6497 25.5162 38.4431 30.2491C37.4096 30.2491 36.3762 30.4549 35.3428 30.8664C34.7227 31.0722 34.5161 31.8953 35.1361 32.1011C36.1695 32.7184 37.2029 33.13 38.4431 33.3357C38.0297 40.3321 37.4096 47.1227 36.3762 53.9133C36.1695 55.148 37.2029 55.9711 38.4431 55.9711C42.7834 55.9711 47.1238 56.3827 51.2575 56.7942C53.9444 57.2058 55.1845 53.5018 52.2909 53.296C48.3639 52.8845 44.4369 52.6787 40.5099 52.6787C41.3366 46.5054 41.9567 40.1263 42.5767 33.9531C45.0569 34.3646 47.5372 35.3935 49.3973 33.3357C49.604 33.13 49.604 32.7184 49.604 32.3068C48.3639 30.0433 45.677 30.4549 43.4035 30.4549C43.1968 30.4549 42.9901 30.4549 42.7834 30.4549C42.9901 28.6029 42.9901 26.5451 43.1968 24.6931C43.1968 22.4296 43.4035 20.1661 43.4035 17.9025C43.4035 16.6679 42.5767 11.1119 43.4035 10.2888C43.8168 9.87725 48.3639 10.083 49.1906 10.083C51.2575 9.87725 52.9109 9.46569 54.7711 8.64259C55.8045 8.23104 55.3912 6.99638 54.3577 6.7906Z" fill="black"/>
<path d="M62.6262 50.0036C62.8328 48.5632 62.8328 47.1227 62.8328 45.4765C63.0395 41.9783 63.2462 38.4801 63.4529 34.9819C63.8663 29.0144 63.8663 23.2527 63.8663 17.2852C64.8997 18.7256 65.9331 20.1661 66.5532 22.018C67.7933 25.1047 68 28.8087 68.4133 32.1011C69.0334 38.6859 68.8267 46.917 62.6262 50.0036ZM63.0395 11.3177C61.7994 10.7003 59.3192 11.935 60.5593 13.3754C60.9727 13.9928 61.3861 14.4043 61.7994 14.8159C60.9727 21.6065 60.3526 28.1913 59.9393 34.9819C59.5259 40.3321 58.0791 46.917 58.6992 52.4729C58.6992 52.6787 58.6992 52.8845 58.6992 53.0902C58.6992 53.5018 58.9058 53.9133 58.9058 54.3249C59.1125 55.148 60.3526 55.3538 60.9727 54.9422C61.1794 54.9422 61.5927 54.9422 61.7994 54.9422C70.4802 52.4729 73.7871 43.6245 73.3737 35.3935C73.1671 26.7509 71.5136 15.8448 63.0395 11.3177Z" fill="black"/>
<path d="M82.466 55.148C85.7729 41.361 89.4932 27.7798 94.247 14.4043C94.867 12.7581 91.9734 12.3465 91.3534 13.787C89.0799 18.1083 87.2197 22.6354 85.3595 27.3682C84.5328 25.722 83.7061 24.0758 82.8793 22.6354C80.8125 18.7256 78.3323 15.8447 75.4387 12.5523C74.8186 11.935 73.1652 12.3465 73.7852 13.3754C77.5055 19.3429 80.8125 26.1335 83.2927 32.7184C80.6058 40.3321 78.539 47.9458 77.0922 55.7653C76.6788 58.0289 79.3657 59.0577 81.0192 58.0289C82.0526 57.4115 82.466 56.7942 82.466 55.7653C82.466 55.5595 82.466 55.3538 82.466 55.148Z" fill="black"/>
<path d="M127.732 46.0939C126.492 47.9458 124.838 49.3863 122.978 50.4152C122.771 50.4152 122.565 50.6209 122.358 50.8267C122.358 50.2094 122.358 49.5921 122.358 49.1805C122.565 45.2708 122.771 41.361 123.185 37.2455C123.598 30.0433 124.218 22.8412 124.218 15.639C128.765 20.7834 132.072 26.5451 132.072 33.7473C131.866 38.2744 130.419 42.5957 127.732 46.0939ZM123.185 11.935C122.565 11.7292 121.738 11.935 121.531 12.5523C121.118 12.7581 120.911 12.9639 120.911 13.3754C119.878 21.6065 119.464 29.8375 118.844 38.0686C118.431 41.9783 118.224 46.0939 117.811 50.0036C117.811 50.6209 117.604 51.444 117.398 52.2671C115.124 50.8267 111.61 53.0902 113.264 55.5596C115.537 59.4693 124.012 55.5596 126.492 53.9134C131.452 50.8267 134.966 45.6823 136.206 39.9206C138.686 29.426 133.932 16.2563 123.185 11.935Z" fill="black"/>
<path d="M141.163 34.5704C141.163 29.0144 142.197 23.6643 144.884 18.9314C145.09 18.9314 145.504 18.9314 145.711 18.7256C153.358 16.0505 153.565 29.6318 153.565 34.1588C153.565 37.4513 152.324 55.5596 145.09 52.0614C139.717 49.1805 141.163 39.3032 141.163 34.5704ZM142.817 53.9134C145.297 55.9711 148.397 56.3827 151.084 54.7365C154.805 52.2672 156.251 47.1227 157.078 43.0072C158.318 37.8628 158.525 32.3069 157.698 27.1625C157.078 23.2527 156.251 18.9314 153.151 16.2563C150.464 13.9928 145.917 13.1697 143.23 16.0505C142.817 16.4621 142.817 16.8736 142.817 17.0794C139.923 19.7545 138.89 23.2527 138.683 27.1625C138.477 32.5126 138.683 37.8628 138.477 43.213C138.683 47.5343 139.303 50.8267 142.817 53.9134Z" fill="black"/>
<path d="M174.234 49.7978C175.474 47.9458 172.374 46.7112 171.134 47.9458C170.514 48.9747 169.48 49.1805 168.447 48.7689C167.207 49.1805 166.38 48.7689 166.38 47.5343C165.553 46.2996 165.346 43.4187 165.14 41.9783C164.726 39.0975 164.52 36.2166 164.726 33.3357C164.933 27.3682 166.587 15.8447 175.267 18.3141C176.301 18.5198 177.747 17.2852 176.714 16.4621C172.994 13.787 168.447 14.6101 165.14 17.6967C161.006 21.8123 160.386 28.6029 160.179 34.1588C159.973 39.0975 159.973 48.1516 163.9 52.2671C167.207 55.3538 172.167 53.0902 174.234 49.7978Z" fill="black"/>
<path d="M193.869 32.1011C193.662 32.1011 193.662 32.1011 193.455 32.1011C193.662 26.5451 193.662 20.9892 193.662 15.2274C193.662 13.9928 191.595 13.9928 191.388 15.2274C190.355 20.7834 189.735 26.3394 189.322 31.8953C187.048 32.1011 184.775 32.5126 182.708 32.5126C182.501 32.5126 182.294 32.5126 182.294 32.5126C182.294 27.3682 182.088 22.2238 181.881 17.0794C181.881 16.2563 180.227 16.2563 180.227 17.0794C180.021 22.2238 179.607 27.574 179.401 32.7184C176.921 32.7184 174.44 32.9242 172.167 33.3358C170.927 33.5415 171.133 34.7762 172.167 35.1877C174.44 35.8051 176.921 36.2166 179.401 36.2166C179.194 41.5668 178.987 46.7112 178.987 52.0614C178.987 53.9134 182.294 53.9134 182.501 52.0614C182.708 46.7112 182.708 41.5668 182.708 36.2166C182.914 36.2166 183.121 36.2166 183.121 36.2166C185.188 36.2166 187.255 36.4224 189.528 36.2166C189.115 41.7726 188.702 47.5343 189.115 52.8845C189.322 55.148 192.835 54.9422 193.042 52.8845C193.662 47.1228 193.455 41.1552 193.455 35.3935C193.869 35.1877 194.075 35.1877 194.489 34.982C195.936 34.3646 195.315 32.5126 193.869 32.1011Z" fill="black"/>
<path d="M207.925 47.3285C205.858 47.1228 204.825 45.6823 203.998 43.8303C202.758 41.1552 202.758 38.0686 202.964 34.982C203.171 31.8953 203.378 28.8087 203.791 25.722C203.998 24.2816 204.618 17.9025 205.858 16.6679C207.718 17.2852 209.372 17.9025 210.612 19.5488C212.679 22.2238 213.092 25.9278 213.299 29.2202C213.505 34.5704 213.299 40.3321 210.818 45.2708C209.992 47.1228 209.785 47.5343 207.925 47.3285ZM217.846 26.7509C217.226 20.5776 212.472 10.9062 204.825 12.9639C203.584 13.3755 202.964 14.8159 203.584 15.639C200.898 18.1083 200.278 23.2527 199.657 26.7509C198.831 31.6895 198.004 37.0397 198.831 41.7726C199.864 47.1228 206.685 55.148 212.472 50.2094C218.466 45.2708 218.466 33.7473 217.846 26.7509Z" fill="black"/>
<path d="M237.479 32.7184C237.065 36.4224 235.412 40.7437 232.518 43.4188C230.452 45.2707 227.558 46.5054 224.664 47.3285C224.871 42.5956 224.458 37.4512 224.458 32.7184C224.458 27.3682 225.284 21.1949 224.251 15.639C226.938 17.2852 229.625 18.7256 232.105 20.3718C236.652 23.4585 238.099 27.7798 237.479 32.7184ZM217.637 51.444C217.43 53.296 219.911 53.9133 221.357 53.5018C221.771 53.5018 221.978 53.296 222.391 53.296C223.011 53.5018 223.838 53.296 224.251 52.6787C228.798 51.2382 233.552 49.7978 236.859 46.5054C240.372 43.213 242.439 38.0686 243.059 33.3357C243.679 28.6029 242.853 23.4585 239.339 19.9603C235.619 16.0505 229.005 13.5812 224.044 11.935C223.011 11.5234 220.737 12.5523 221.771 13.787C220.117 19.3429 221.151 26.1336 221.151 32.1011C221.151 37.2455 220.737 42.8014 220.944 48.1516C219.497 47.9458 218.051 48.9747 217.844 50.6209C217.637 50.8267 217.637 51.0325 217.637 51.444Z" fill="black"/>
<path d="M263.521 51.4441C265.795 50.6209 264.141 47.7401 262.281 47.7401C256.287 48.3574 250.293 49.7978 244.093 50.4152C250.293 39.0975 256.701 27.7798 261.868 15.8448C263.934 15.0217 263.521 12.1408 260.834 12.1408C255.874 12.3466 250.5 12.5524 245.54 13.1697C244.506 13.3755 244.506 14.6101 245.54 14.8159C249.673 15.8448 254.22 16.0506 258.561 15.8448C252.153 27.1625 246.366 38.8917 239.132 49.5921C238.099 51.2383 239.546 52.4729 241.199 52.6787H241.406C248.433 54.3249 256.494 54.3249 263.521 51.4441Z" fill="black"/>
<path d="M272.202 15.0217C271.995 14.4043 270.755 14.1985 270.548 15.0217C268.482 20.7834 269.102 27.9856 268.688 34.1588C268.482 37.657 268.068 40.9494 267.861 44.4476C267.655 47.3285 267.241 49.3863 268.688 51.8556C269.308 53.0902 271.375 52.6787 272.202 51.8556C273.855 49.3863 273.649 46.917 273.855 44.0361C274.062 40.7437 273.855 37.2455 273.855 33.9531C273.442 27.9855 274.269 20.7834 272.202 15.0217Z" fill="black"/>
<path d="M269.931 4.3213C273.031 4.3213 272.825 0 269.724 0C266.624 0 266.831 4.3213 269.931 4.3213Z" fill="black"/>
<path d="M308.167 22.4296C310.854 25.5162 312.094 30.2491 312.714 33.953C313.747 42.1841 310.234 49.3863 301.346 47.3285C301.553 46.0938 301.346 44.8592 301.346 43.4187C301.346 40.3321 301.553 37.2455 301.553 34.1588C301.76 29.426 303 22.6354 300.726 18.1083C303.206 19.7545 306.1 19.9603 308.167 22.4296ZM299.073 51.0325C307.547 55.7653 317.054 48.5631 317.881 39.9205C318.501 34.3646 317.261 28.8086 314.781 23.87C313.747 21.6065 312.301 19.5487 310.234 18.1083C307.754 16.2563 304.86 16.4621 301.966 15.639C300.726 15.2274 299.279 16.6678 300.313 17.6967C300.106 17.6967 299.9 17.6967 299.9 17.9025C297.213 22.2238 298.246 29.2202 298.039 34.1588C297.833 37.2455 297.833 40.3321 297.626 43.4187C297.419 46.0938 297.006 48.1516 298.246 50.6209C298.246 50.8267 298.659 51.0325 299.073 51.0325Z" fill="black"/>
<path d="M333.381 41.361C331.934 43.6245 328.627 46.5054 325.734 43.4188C324.287 41.9783 324.08 39.0975 323.874 37.2455C323.667 34.982 323.46 32.7184 323.667 30.6606C323.667 29.6318 323.874 23.2527 325.32 21.6065C335.448 21.4007 338.135 33.9531 333.381 41.361ZM324.287 18.1083C323.874 18.3141 323.667 18.7256 323.46 18.9314C318.706 20.9892 319.533 33.9531 319.947 37.2455C320.773 43.8303 324.7 50.6209 332.348 47.3285C338.962 44.4477 340.822 35.3935 339.582 29.2202C338.341 23.2527 331.314 13.9928 324.287 18.1083Z" fill="black"/>
<path d="M381.953 44.8592C381.953 46.7112 381.953 47.9459 384.019 48.769C386.913 49.7978 390.22 46.917 388.153 44.0361C387.74 43.4188 386.913 43.0072 386.293 42.8015C386.5 40.3321 386.293 37.4513 386.293 37.0397C386.293 35.1877 386.293 33.3358 386.293 31.278C387.12 30.4549 386.913 29.6318 386.293 29.0145C386.293 28.6029 386.293 28.1914 386.293 27.7798C386.293 22.2238 386.913 16.0506 385.26 10.4946C385.053 9.67149 383.193 9.46572 382.986 10.4946C381.333 16.0506 381.746 22.8412 381.953 28.8087C379.266 29.6318 375.545 29.426 372.858 29.8376C371.618 30.0433 370.585 30.0433 369.345 30.0433C369.552 25.722 370.378 20.3719 368.725 16.4621C368.311 15.639 366.451 15.639 366.451 16.4621C364.591 20.3719 365.211 25.9278 365.211 30.4549C364.591 30.6607 363.971 30.6607 363.144 30.8664C361.698 31.278 361.491 32.9242 363.144 33.3358C363.764 33.5415 364.384 33.5415 365.005 33.5415C364.798 38.0686 363.971 43.0072 365.211 47.1228C365.625 48.3574 367.898 48.3574 368.311 47.1228C369.758 43.0072 369.345 38.0686 369.138 33.5415C371.412 33.5415 373.685 33.13 375.959 32.9242C377.612 32.7184 379.886 32.9242 381.746 32.7184C381.953 36.8339 381.953 40.9495 381.953 44.8592Z" fill="black"/>
<path d="M409.443 43.213C410.89 41.7725 409.03 39.7148 407.377 40.3321C404.483 41.361 401.796 41.361 398.903 41.361C398.903 37.0397 399.109 32.9242 399.316 28.6029C402.209 28.1913 405.103 27.574 407.997 27.7798C410.89 27.7798 410.684 23.87 407.79 24.0758C405.103 24.2816 402.003 24.4873 399.316 25.3104C399.523 21.8122 399.729 18.314 399.729 14.8159C401.176 14.8159 402.623 15.0216 404.07 15.4332C405.103 15.639 406.757 14.4043 405.516 13.5812C403.036 11.7292 400.763 11.1119 397.456 11.3177C396.422 11.3177 395.389 12.1408 395.389 13.1696C394.769 23.2527 394.355 33.3357 394.355 43.4187C394.355 44.4476 395.596 45.2707 396.629 45.0649C400.969 44.8592 406.136 46.2996 409.443 43.213Z" fill="black"/>
<path d="M421.635 8.6426C418.741 6.99639 412.127 8.02527 409.027 8.43682C407.787 8.6426 407.993 9.87725 409.027 10.2888C411.92 11.1119 415.434 10.9061 418.328 11.7292C418.741 15.2274 418.121 19.343 418.121 22.8412C418.121 27.1625 418.121 31.278 418.121 35.5993C418.121 39.7148 418.741 44.6534 416.261 48.1516C415.021 49.7978 413.161 51.0325 411.3 51.444C410.267 51.6498 405.307 52.0614 405.513 50.0036C405.72 48.7689 403.86 48.1516 402.826 48.3574C402 48.5632 400.346 51.0325 400.553 51.8556C400.553 52.2671 401.173 52.8845 401.38 53.0902C402.206 54.1191 403.446 54.5307 404.687 54.9422C407.167 55.7653 409.854 55.7653 412.334 55.3538C418.741 53.9133 422.461 48.7689 423.081 42.3899C423.908 33.5415 423.288 24.4874 423.081 15.639C422.875 13.5812 423.701 9.87725 421.635 8.6426Z" fill="black"/>
<path d="M446.026 10.9061C440.239 10.9061 434.658 11.3177 428.871 11.5235C427.837 11.5235 427.217 12.9639 428.458 13.1697C430.731 13.5812 433.005 13.9928 435.278 14.1985C434.038 17.6967 434.451 21.6065 434.451 25.3105C434.451 29.426 434.245 33.7473 434.451 37.8628C434.451 38.6859 435.278 39.509 436.105 39.7148C436.312 39.7148 436.518 39.7148 436.932 39.9206C437.758 40.1263 438.998 39.7148 438.998 38.6859C438.998 36.8339 438.585 35.1877 438.378 33.3357C438.172 31.0722 438.172 28.6029 438.172 26.3393C437.965 22.4296 438.172 18.3141 436.725 14.6101C439.825 15.0217 442.925 15.2274 446.026 15.2274C449.333 15.0217 449.126 10.9061 446.026 10.9061Z" fill="black"/>
<path d="M468.552 10.4946C468.345 8.02526 463.798 8.02526 464.005 10.7004C464.005 15.4332 464.625 20.1661 464.832 24.8989C465.038 27.9856 465.452 35.805 461.731 37.4513C455.531 40.3321 455.944 28.6029 455.737 25.1047C455.531 20.1661 455.944 15.0217 454.704 10.2888C454.497 9.25992 452.637 9.25992 452.224 10.2888C449.537 17.0794 450.777 27.1624 451.81 34.1588C452.431 38.4801 454.911 43.0072 460.078 42.3899C473.719 41.361 469.585 18.7256 468.552 10.4946Z" fill="black"/>
<path d="M61.1796 109.061C57.2526 109.061 53.3256 108.65 49.3986 107.827C48.9852 98.1552 49.3986 88.278 49.1919 78.6065C49.1919 76.9603 46.0917 76.9603 46.0917 78.6065C45.4716 88.8953 45.6783 99.1841 44.8516 109.473C44.8516 110.09 45.4716 110.913 46.0917 111.119C51.0521 112.971 56.0125 113.794 61.3863 114C65.1066 114 64.6933 109.267 61.1796 109.061Z" fill="black"/>
<path d="M69.0307 82.5162C68.824 85.3971 69.4441 88.278 69.2374 91.1588C69.0307 93.6282 66.9639 104.123 63.0369 99.3899C59.7299 95.4801 60.7634 87.2491 60.97 82.5162C60.97 80.87 58.0765 80.87 57.8698 82.5162C57.2497 87.2491 56.8364 92.1877 58.0765 96.9206C58.9032 100.007 60.97 104.74 64.897 104.74C73.5778 104.74 75.4379 87.6607 72.5444 82.1047C71.7176 80.6643 69.0307 80.6643 69.0307 82.5162Z" fill="black"/>
<path d="M82.4681 107.209C82.0548 107.209 81.8481 107.209 81.4347 107.209C82.0548 104.123 81.6414 100.625 81.6414 97.7437C81.6414 97.3321 81.6414 96.9206 81.6414 96.7148C84.7416 97.1264 88.462 98.1552 90.7355 100.419C96.316 105.357 85.9818 107.415 82.4681 107.209ZM86.1884 86.8376C86.8085 88.8953 85.155 90.7473 83.5015 91.3646C82.8815 91.5704 82.2614 91.7762 81.8481 91.982C81.6414 89.1011 81.4347 86.426 81.0213 83.5451C82.8815 84.3682 85.9818 85.8087 86.1884 86.8376ZM88.0486 93.6282C90.1154 92.3935 91.5622 90.7473 91.3555 88.278C90.9422 82.5163 84.7417 82.1047 80.4013 80.87C79.7812 80.6643 79.3679 81.0758 78.9545 81.4874C78.5411 81.6931 78.1277 81.8989 78.1277 82.3105C77.7144 87.2491 77.5077 91.982 77.5077 96.9206C77.301 100.83 76.0609 106.181 77.7144 109.884C77.9211 110.502 78.7478 110.708 79.3679 110.708C79.7812 111.325 80.608 111.942 82.0548 111.942C87.4285 112.148 97.5561 110.09 97.7628 103.094C97.7628 98.1552 93.009 95.2744 88.0486 93.6282Z" fill="black"/>
<path d="M152.119 80.0469C149.225 88.4838 145.505 96.509 141.784 104.534C138.271 96.0975 136.411 86.8376 131.657 78.8123C130.83 77.7834 128.143 78.195 128.143 79.8412C128.143 90.3357 126.076 100.213 127.937 110.708C128.143 111.325 129.177 111.119 129.383 110.708C130.21 103.094 130.003 95.2744 130.83 87.6607C133.31 95.4801 135.791 103.505 139.511 110.708C140.338 112.148 143.024 112.765 144.058 111.119C147.365 105.152 150.052 98.9783 152.532 92.8051C152.739 98.5668 152.739 104.123 152.945 109.884C152.945 112.56 157.906 112.354 157.699 109.679C157.492 100.007 157.079 90.3357 156.666 80.6643C156.459 78.195 152.739 78.195 152.119 80.0469Z" fill="black"/>
<path d="M174.647 95.2744C174.233 97.1263 173.613 99.8014 172.373 101.242C170.1 103.711 167.619 103.094 166.379 100.007C163.899 94.2455 165.759 88.4837 169.273 83.5451C169.686 83.7509 169.893 83.7509 170.306 83.7509C176.714 83.9567 175.887 90.9531 174.647 95.2744ZM170.926 80.0469C170.306 79.4296 169.273 79.2238 168.653 79.6354C162.866 82.9278 160.179 89.7184 160.592 96.3032C161.005 101.653 164.932 110.296 171.753 107.827C177.747 105.769 180.227 95.8917 180.227 90.5415C180.434 84.7798 176.507 79.0181 170.926 80.0469Z" fill="black"/>
<path d="M207.304 83.7509C205.031 89.9242 202.757 96.0975 200.277 102.271C199.037 96.0975 198.21 89.9242 197.797 83.7509C197.59 81.2816 194.077 81.4874 193.25 83.3393C190.976 88.278 189.116 93.2166 187.669 98.361C186.223 92.805 184.776 87.2491 182.709 81.6931C182.502 81.2816 181.469 81.2816 181.676 81.8989C182.916 90.5415 184.983 99.3899 185.603 108.032C185.809 110.09 189.53 110.502 189.943 108.444C190.976 103.3 192.217 98.1552 194.077 93.2166C194.903 99.1841 195.937 105.152 197.384 111.119C197.797 112.971 201.104 112.971 201.931 111.531C205.858 102.888 209.165 93.8339 212.472 84.7798C213.505 81.8989 208.338 81.0758 207.304 83.7509Z" fill="black"/>
<path d="M229.832 81.0758C227.558 84.9856 225.698 89.3069 223.838 93.4224C221.771 90.3357 219.291 87.4549 216.81 84.3682C216.397 83.7509 214.744 83.9567 215.157 84.7798C216.19 87.2491 217.017 89.5126 218.257 91.7762C219.291 93.8339 220.531 95.8917 221.771 97.9494C219.704 102.477 217.43 106.798 214.537 110.708C213.297 112.354 216.19 113.588 217.43 112.56C221.564 108.65 224.044 104.123 226.525 99.1841C229.211 93.6282 232.312 88.0722 234.585 82.3105C235.205 80.0469 230.865 79.018 229.832 81.0758Z" fill="black"/>
<path d="M270.344 74.6967C270.137 83.7509 269.517 92.5993 269.103 101.653C266.417 95.8917 264.35 89.9242 262.076 83.7509C261.456 81.8989 258.149 82.3104 258.149 84.3682C257.529 92.3935 256.702 100.213 256.289 108.238C256.289 109.679 258.769 109.679 259.183 108.238C260.009 103.505 260.629 98.7725 261.249 94.0397C263.523 100.213 266.21 106.18 269.31 111.942C270.344 113.794 273.857 113.794 273.857 111.325C274.064 99.3899 274.064 87.0433 275.717 75.3141C275.924 71.8159 270.55 71.6101 270.344 74.6967Z" fill="black"/>
<path d="M281.299 81.6932C281.093 80.8701 279.646 81.0758 279.439 81.899C277.579 90.9531 277.992 100.213 277.992 109.473C277.992 112.354 283.159 111.942 282.953 109.267C282.746 100.007 282.953 90.9531 281.299 81.6932Z" fill="black"/>
<path d="M303.001 105.357C299.487 105.563 295.973 105.769 292.253 105.975C292.253 103.094 292.46 100.213 292.46 97.1264C294.733 97.3321 297.007 97.9495 299.28 98.361C302.174 98.7726 303.414 95.0686 300.314 94.4513C297.627 93.834 295.147 94.0397 292.46 94.4513C292.46 93.2166 292.46 92.1877 292.46 90.9531C292.46 89.7184 292.46 88.6895 292.46 87.4549C292.46 86.6318 292.46 85.8087 292.46 84.9856C292.253 84.1625 292.46 83.9567 293.286 84.1625C294.94 83.3394 300.107 83.9567 301.967 83.7509C303.827 83.5451 304.861 80.8701 302.381 80.6643C298.247 80.2527 288.533 77.7834 287.499 83.7509C286.879 87.2491 287.293 91.1589 287.293 94.4513C287.293 98.9784 287.086 103.505 287.086 108.033C287.086 109.267 288.533 110.09 289.566 109.884C293.907 109.679 298.454 109.473 302.794 109.267C306.514 109.473 306.308 105.152 303.001 105.357Z" fill="black"/>
<path d="M326.976 77.5776C325.943 76.7545 323.67 76.7545 322.843 78.195C322.843 78.195 322.843 78.4007 322.636 78.4007C322.223 79.2238 322.223 80.0469 322.843 80.6643C322.636 81.6932 322.429 84.574 322.429 85.1914C322.223 87.4549 322.223 89.7184 322.016 92.1877C322.016 93.8339 321.809 95.2744 321.809 96.9206C320.983 95.6859 320.363 94.4513 319.536 93.0108C317.469 89.5127 314.575 85.8087 313.542 81.8989C313.335 81.2816 312.715 81.0758 311.888 81.0758C311.062 80.6643 309.822 81.0758 309.615 82.1047C309.202 86.426 309.202 90.9531 308.995 95.2744C308.788 99.5957 307.755 104.123 308.582 108.444C308.788 110.09 311.475 110.296 311.888 108.856C313.335 104.946 312.922 100.419 313.129 96.0975C313.129 94.4513 313.129 92.5993 313.129 90.9531C315.402 96.3033 318.709 101.448 321.396 106.386C322.636 108.65 326.15 108.238 326.356 105.563C326.77 99.8015 326.976 94.0397 327.39 88.278C327.803 85.6029 329.663 79.6354 326.976 77.5776Z" fill="black"/>
<path d="M339.171 86.6318C339.584 89.7184 340.204 92.5993 340.824 95.6859C339.791 95.4801 338.757 95.4801 337.724 95.2744C338.137 92.1877 338.757 89.3069 339.171 86.6318ZM340.411 80.2527C340.411 80.0469 339.998 79.8412 339.791 79.8412C339.584 79.6354 338.757 79.6354 338.551 80.0469C336.897 84.9856 335.244 89.7184 333.797 94.657C332.97 94.657 332.144 94.657 331.317 94.657C330.49 94.657 329.25 95.6859 330.283 96.509C331.11 97.1264 331.937 97.5379 332.764 97.7437C331.937 100.625 331.317 103.505 330.697 106.386C330.283 108.444 333.59 108.856 334.21 107.209C335.244 104.534 335.864 101.653 336.484 98.9783C337.931 99.1841 339.171 99.5957 340.618 99.5957C340.824 99.5957 340.824 99.5957 341.031 99.5957C341.651 103.505 342.064 107.621 343.305 111.119C343.925 112.56 346.611 112.354 346.611 110.708C346.611 105.769 345.165 100.625 344.131 95.8917C343.511 90.7473 342.684 85.1913 340.411 80.2527Z" fill="black"/>
<path d="M375.959 82.3105C375.133 88.8953 374.306 95.2744 373.272 101.653C370.586 96.0975 368.105 90.5415 365.212 85.1913C365.418 84.3682 365.418 83.3393 365.418 82.5162C365.418 81.0758 363.145 80.4585 362.112 81.4874C359.425 84.1624 358.391 88.4838 356.944 91.9819C356.324 93.4224 355.704 94.8628 355.084 96.3032C354.051 90.9531 352.811 85.8087 351.157 80.87C350.537 79.2238 347.437 79.6354 347.85 81.6931C349.504 89.5126 350.744 97.3321 351.571 105.357C351.777 107.415 355.291 108.238 356.324 106.18C358.184 102.271 359.838 98.361 361.698 94.4513C362.318 93.2166 362.938 91.7762 363.765 90.13C366.039 96.9206 369.139 103.505 372.239 110.09C373.066 111.736 376.373 112.148 376.993 109.884C379.06 101.036 380.92 92.3935 382.16 83.3393C382.16 79.8412 376.373 79.018 375.959 82.3105Z" fill="black"/>
<path d="M388.772 83.3394C388.565 81.4874 385.465 81.4874 385.465 83.3394C385.052 91.1589 385.258 98.9784 385.878 106.798C386.085 109.884 391.046 108.65 390.632 106.386C390.219 98.7726 389.599 90.9531 388.772 83.3394Z" fill="black"/>
<path d="M391.666 70.5812C391.459 70.3755 391.253 70.1697 391.253 70.1697C390.839 69.9639 390.426 69.7581 389.806 69.5524H389.599C388.979 69.5524 388.359 69.5524 387.739 69.7581C387.532 69.9639 387.326 69.9639 387.119 69.9639C386.912 70.1697 386.706 70.1697 386.499 70.3755C386.292 70.5813 386.292 70.787 386.086 70.9928C385.879 71.1986 385.879 71.6101 385.879 72.0217C385.879 72.2275 385.879 72.4332 385.879 72.639C385.879 72.8448 385.879 73.0506 386.086 73.2563C386.086 73.4621 386.292 73.6679 386.499 73.8737C386.706 74.0795 387.119 74.2852 387.326 74.491C387.532 74.491 387.946 74.6968 388.152 74.6968C388.359 74.6968 388.772 74.6968 388.979 74.6968H389.186C389.599 74.6968 390.013 74.491 390.219 74.491C390.633 74.2852 390.839 74.0795 391.046 73.8737C391.253 73.6679 391.253 73.4621 391.459 73.2563C391.666 73.0506 391.666 72.639 391.666 72.2275C391.666 72.0217 391.666 71.8159 391.666 71.6101C392.079 70.9928 391.873 70.787 391.666 70.5812Z" fill="black"/>
<path d="M409.856 90.3358C407.789 89.5127 404.895 89.3069 404.275 86.6318C403.655 84.3682 406.962 79.2238 409.856 81.6932C410.889 82.722 413.783 81.4874 412.543 80.047C406.756 73.0506 396.628 82.5163 400.555 89.5127C403.242 94.2455 410.476 93.2166 413.576 97.9495C416.263 102.271 413.99 105.975 408.822 106.386C406.136 106.592 400.762 106.592 399.522 103.917C398.902 102.682 397.248 102.682 396.421 103.711C393.321 107.621 399.108 109.473 402.209 109.884C407.169 110.296 413.99 111.325 417.503 106.798C420.19 103.094 419.157 98.1552 416.263 94.8628C414.61 92.5993 412.336 91.1589 409.856 90.3358Z" fill="black"/>
<path d="M412.335 68.5235C409.442 68.7293 406.755 69.7582 404.895 72.0217C403.655 73.4621 406.342 74.2852 407.375 73.8737C409.235 73.0506 410.889 72.4332 412.955 72.4332C414.816 72.4332 416.262 73.2564 418.123 72.8448C418.949 72.639 419.776 71.8159 419.363 70.9928C418.123 68.7293 414.816 68.3177 412.335 68.5235Z" fill="black"/>
<path d="M436.931 99.1841C436.517 101.036 436.517 103.094 434.864 104.534C431.764 107.415 428.043 103.917 427.01 100.83C425.976 97.9495 426.39 94.8628 427.216 92.1877C427.423 91.1589 432.177 80.6643 434.45 85.6029C434.864 86.6318 437.344 86.8376 437.344 85.3971C437.137 80.4585 431.35 79.8412 428.043 82.3105C422.876 86.2202 420.809 94.8628 422.049 100.83C423.289 106.181 428.043 110.502 433.83 109.884C438.171 109.267 443.338 104.123 440.858 99.3899C440.031 97.7437 437.344 97.3322 436.931 99.1841Z" fill="black"/>
<path d="M447.059 83.3394C446.646 81.8989 444.166 82.3105 443.959 83.7509C442.719 91.5704 442.925 99.5957 442.719 107.415C442.719 109.884 447.059 110.09 447.679 107.827C447.679 107.621 447.886 107.415 447.886 107.209C448.093 106.798 447.886 106.386 447.886 105.975C448.299 98.5668 448.713 90.7473 447.059 83.3394Z" fill="black"/>
<path d="M446.025 70.5813C445.198 70.1697 444.165 70.1697 443.338 70.787C442.511 71.1986 442.098 72.0217 442.098 72.8448C442.098 73.6679 442.304 74.2852 442.924 74.9026C443.131 75.3141 443.338 75.5199 443.751 75.9314C444.164 76.5488 444.991 76.9603 445.611 76.9603C446.438 77.1661 447.265 76.9603 447.885 76.5488C449.125 75.7257 449.745 74.2852 448.712 72.8448C447.885 71.8159 447.265 70.787 446.025 70.5813Z" fill="black"/>
<path d="M459.872 87.6606C460.078 87.8664 460.285 87.8664 460.492 88.0722C460.698 88.0722 461.112 88.278 461.318 88.278C461.525 88.278 461.939 88.278 462.145 88.278C462.145 88.278 462.765 88.0722 462.972 88.0722L463.592 87.8664C463.799 87.8664 463.799 87.6606 463.799 87.6606C464.212 87.4549 464.005 87.4549 464.419 87.2491C464.625 87.0433 464.625 87.0433 464.625 86.8375L464.832 86.2202C464.832 86.0144 464.832 85.8087 464.832 85.3971C464.832 85.1913 464.832 84.9856 464.625 84.7798C464.625 84.574 464.419 84.574 464.419 84.3682C464.419 84.3682 464.212 84.1625 464.212 83.9567C464.212 83.7509 464.005 83.7509 464.005 83.7509L463.799 83.5451C463.592 83.3393 463.179 83.1336 462.765 83.1336C462.352 82.9278 461.939 82.9278 461.732 82.9278C461.318 82.9278 460.905 82.9278 460.698 83.1336C460.285 83.3394 460.078 83.3394 459.872 83.7509C459.458 84.1625 459.252 84.574 459.045 85.1913C459.045 85.1913 459.045 85.1913 459.045 85.3971V85.6029C458.838 86.0144 459.045 86.426 459.045 86.8375C459.045 87.0433 459.252 87.2491 459.458 87.4549C459.458 87.4549 459.665 87.4549 459.872 87.6606Z" fill="black"/>
<path d="M462.764 98.1553C462.144 97.9495 461.524 98.1553 460.904 98.5668C460.698 98.7726 460.491 98.9784 460.491 98.9784C460.284 98.9784 460.284 99.1841 460.078 99.1841C459.664 99.5957 459.457 100.007 459.457 100.625C459.044 102.065 459.044 103.711 460.078 105.152C460.698 106.181 462.351 106.386 463.384 105.769C465.245 104.534 466.485 102.477 466.071 100.007C465.865 98.5668 464.211 97.9495 462.764 98.1553Z" fill="black"/>
</g>
<defs>
<clipPath id="clip0_39_5456">
<rect width="470" height="114" fill="white"/>
</clipPath>
</defs>
</svg>
