<svg width="25" height="20" viewBox="0 0 25 20" fill="none" xmlns="http://www.w3.org/2000/svg">
<g clip-path="url(#clip0_0_4223)">
<path d="M5.91216 16.2903C5.91216 15 5.74324 14.0323 5.57432 13.7097H4.56081C4.05405 13.7097 3.71622 13.5484 3.71622 13.0645C3.71622 12.7419 4.22297 12.4194 5.23649 12.2581C5.40541 12.2581 5.74324 12.2581 5.91216 12.2581C6.08108 12.2581 6.41892 12.4194 6.58784 12.5806C6.75676 12.9032 6.92568 13.2258 6.92568 13.5484C6.92568 13.871 6.92568 14.5161 7.09459 15.4839C7.26351 16.4516 7.26351 16.9355 7.26351 17.2581C7.26351 17.7419 7.09459 18.0645 6.75676 18.0645C6.41892 18.0645 6.08108 17.9032 5.91216 17.5806C5.74324 17.5806 5.57432 17.7419 5.40541 17.9032C4.89865 18.2258 4.39189 18.2258 3.88514 18.2258C3.5473 18.2258 3.20946 18.2258 2.87162 18.0645C2.19595 17.7419 1.52027 17.2581 1.18243 16.6129C0.844595 16.129 0.675676 15.4839 0.506757 14.8387C0.337838 14.1935 0.168919 13.7097 0.168919 13.2258C0.168919 12.9032 0.168919 12.4194 0 11.9355C0 11.2903 0 10.6452 0 9.67742V8.06452C0 6.6129 0 5.48387 0.168919 4.83871C0.337838 4.19355 0.337838 3.70968 0.506757 3.22581C0.675676 2.74194 0.675676 2.41935 0.844595 2.09677C1.01351 1.93548 1.18243 1.6129 1.35135 1.45161C1.52027 1.12903 1.85811 0.967742 2.02703 0.645161C2.53378 0.16129 3.20946 0 4.05405 0C4.72973 0 5.06757 0.16129 5.06757 0.645161C5.06757 0.806452 5.06757 0.967742 4.89865 0.967742C4.72973 1.12903 4.56081 1.12903 4.39189 1.12903H3.71622C3.04054 1.12903 2.7027 1.45161 2.36486 2.09677C2.02703 2.90323 1.68919 3.54839 1.68919 4.19355C1.52027 4.83871 1.52027 5.48387 1.52027 5.80645C1.52027 6.29032 1.35135 6.6129 1.35135 7.25806C1.35135 7.90323 1.35135 8.70968 1.35135 9.35484V10.8065C1.35135 12.2581 1.35135 13.2258 1.52027 13.871C1.68919 14.6774 1.68919 15.1613 1.85811 15.4839C2.02703 15.8065 2.19595 16.129 2.36486 16.4516C3.04054 16.9355 3.5473 17.2581 4.05405 17.2581C4.89865 17.2581 5.40541 16.9355 5.91216 16.2903ZM11.9932 9.35484H11.3176C11.1486 9.35484 10.9797 9.35484 10.8108 9.51613V16.6129C11.6554 16.6129 11.9932 16.6129 12.1622 16.6129C13.0068 16.6129 13.5135 16.7742 13.5135 17.2581C13.5135 17.4194 13.1757 17.5806 13.0068 17.7419C12.6689 17.9032 12.5 17.9032 12.3311 17.9032C12.1622 17.9032 11.8243 17.9032 11.4865 17.9032H10.8108C10.1351 17.9032 9.7973 17.7419 9.62838 17.5806C9.62838 17.4194 9.45946 17.4194 9.45946 17.0968V3.87097C9.45946 3.54839 9.45946 3.22581 9.29054 2.74194C9.29054 2.25806 9.29054 1.77419 9.29054 1.6129C9.62838 1.12903 9.7973 0.967742 9.96622 0.806452L11.8243 0.645161C11.9932 0.645161 12.3311 0.645161 12.5 0.806452C12.6689 0.967742 12.8378 1.12903 12.8378 1.29032C12.8378 1.77419 12.5 1.93548 11.8243 1.93548H11.1486C10.9797 1.93548 10.9797 1.93548 10.8108 1.93548L10.9797 5.64516C10.9797 5.96774 10.9797 6.45161 10.9797 6.93548C10.9797 7.58065 10.9797 7.90323 10.9797 8.22581C11.1486 8.22581 11.1486 8.22581 11.3176 8.22581C11.4865 8.06452 11.6554 8.06452 11.8243 8.06452C11.9932 8.06452 12.1622 8.06452 12.3311 8.22581C12.5 8.3871 12.5 8.54839 12.5 8.70968C12.5 8.87097 12.5 9.03226 12.3311 9.19355C12.3311 9.35484 12.1622 9.35484 11.9932 9.35484ZM17.0608 15.1613V11.9355C17.0608 7.58065 16.8919 4.03226 16.3851 1.6129C16.3851 1.6129 16.2162 1.6129 16.0473 1.6129C15.7095 1.6129 15.5405 1.77419 15.3716 1.77419C15.2027 1.77419 15.0338 1.77419 14.8649 1.6129C14.6959 1.45161 14.6959 1.45161 14.6959 1.29032C14.6959 0.806452 15.7095 0.483871 17.5676 0.483871H17.9054C18.5811 0.483871 18.9189 0.645161 18.9189 1.12903C18.9189 1.45161 18.5811 1.6129 17.9054 1.6129H17.5676V1.77419C17.5676 2.09677 17.5676 2.74194 17.7365 3.54839C17.9054 4.35484 17.9054 5 17.9054 5.80645C17.9054 6.6129 17.9054 7.90323 18.0743 9.83871C18.2432 11.7742 18.2432 13.2258 18.2432 14.3548V16.129C18.2432 17.0968 18.0743 17.9032 17.7365 18.5484C17.3986 19.1935 16.723 19.6774 16.0473 20C15.8784 20 15.5405 20 15.3716 19.8387C15.2027 19.6774 15.2027 19.5161 15.2027 19.3548C15.2027 19.1935 15.3716 19.0323 15.5405 18.7097C15.7095 18.5484 15.8784 18.3871 16.2162 18.3871C16.3851 18.0645 16.723 17.7419 16.8919 17.0968C16.8919 16.4516 17.0608 15.8065 17.0608 15.1613ZM23.3108 9.35484H22.6351C22.4662 9.35484 22.2973 9.35484 22.1284 9.51613V16.6129C22.973 16.6129 23.3108 16.6129 23.4797 16.6129C24.3243 16.6129 24.8311 16.7742 24.8311 17.2581C24.6622 17.4194 24.4932 17.5806 24.3243 17.7419C23.9865 17.9032 23.8176 17.9032 23.6486 17.9032C23.4797 17.9032 23.1419 17.9032 22.8041 17.9032H22.1284C21.4527 17.9032 21.1149 17.7419 20.9459 17.5806C20.9459 17.4194 20.777 17.4194 20.777 17.0968V3.87097C20.777 3.54839 20.777 3.22581 20.6081 2.74194C20.4392 2.25806 20.4392 1.77419 20.4392 1.6129C20.777 1.12903 20.9459 0.967742 21.1149 0.806452L22.973 0.645161C23.1419 0.645161 23.4797 0.645161 23.6486 0.806452C23.8176 0.967742 23.9865 1.12903 23.9865 1.29032C23.9865 1.77419 23.6486 1.93548 22.973 1.93548H22.2973C22.1284 1.93548 22.1284 1.93548 21.9595 1.93548L22.1284 5.64516C22.1284 5.96774 22.1284 6.45161 22.1284 6.93548C22.1284 7.58065 22.1284 7.90323 22.1284 8.22581C22.2973 8.22581 22.2973 8.22581 22.4662 8.22581C22.8041 8.06452 23.1419 8.06452 23.3108 8.06452C23.4797 8.06452 23.6486 8.06452 23.8176 8.22581C23.9865 8.3871 23.9865 8.54839 23.9865 8.70968C23.9865 8.87097 23.9865 9.03226 23.8176 9.19355C23.6486 9.35484 23.6486 9.35484 23.3108 9.35484Z" fill="black"/>
</g>
<defs>
<clipPath id="clip0_0_4223">
<rect width="25" height="20" fill="white"/>
</clipPath>
</defs>
</svg>
