<svg width="58" height="16" viewBox="0 0 58 16" fill="none" xmlns="http://www.w3.org/2000/svg">
<g clip-path="url(#clip0_0_4213)">
<path d="M1.88972 14.5965C1.88972 14.7368 1.88972 14.8772 1.88972 15.0175C1.88972 15.1579 1.88972 15.2982 1.74436 15.2982C1.599 15.4386 1.45363 15.5789 1.16291 15.5789C0.726817 15.5789 0.581454 15.1579 0.581454 14.3158C0.581454 13.0526 0.581454 10.6667 0.43609 7.15789C0.290727 3.64912 0.145363 1.68421 0 1.54386C0 0.842105 0.43609 0.421053 1.45363 0.421053C1.599 0.421053 1.74436 0.421053 2.03509 0.421053C2.32581 0.421053 2.47118 0.421053 2.61654 0.561404C2.7619 0.701754 2.90727 0.842105 2.90727 1.12281C2.90727 1.40351 2.61654 1.54386 2.32581 1.54386H1.88972C1.45363 1.54386 1.16291 1.54386 1.16291 1.68421C1.16291 2.24561 1.16291 3.22807 1.30827 4.35088C1.45363 5.61404 1.45363 6.45614 1.599 7.01754C1.599 7.01754 1.74436 7.01754 1.88972 7.01754C2.18045 6.87719 2.47118 6.87719 2.61654 6.87719C2.7619 6.87719 2.90727 6.87719 3.05263 7.01754C3.19799 7.15789 3.19799 7.29825 3.19799 7.4386C3.19799 7.85965 2.61654 8.14035 1.45363 8.14035C1.45363 8.84211 1.45363 9.96491 1.599 11.3684C1.88972 12.7719 1.88972 13.8947 1.88972 14.5965ZM6.97744 8.2807H6.39599C6.25063 8.2807 6.10526 8.2807 5.9599 8.42105V14.5965C6.68672 14.5965 6.97744 14.5965 7.12281 14.5965C7.84962 14.5965 8.28571 14.7368 8.28571 15.1579C8.14035 15.2982 7.99499 15.4386 7.84962 15.5789C7.5589 15.7193 7.41353 15.7193 7.26817 15.7193C7.12281 15.7193 6.83208 15.7193 6.54135 15.7193H5.9599C5.37845 15.7193 5.08772 15.5789 4.94236 15.4386C4.94236 15.2982 4.79699 15.2982 4.79699 15.0175V3.36842C4.79699 3.08772 4.79699 2.80702 4.65163 2.38597C4.79699 1.96491 4.65163 1.54386 4.65163 1.40351C4.94236 0.982456 5.08772 0.842105 5.23308 0.701754L6.83208 0.561404C6.97744 0.561404 7.26817 0.561404 7.41353 0.701754C7.5589 0.842105 7.70426 0.982456 7.70426 1.12281C7.70426 1.54386 7.41353 1.68421 6.83208 1.68421H6.25063C6.10526 1.68421 6.10526 1.68421 5.9599 1.68421L6.10526 4.91228C6.10526 5.19298 6.10526 5.61404 6.10526 6.03509C6.10526 6.59649 6.10526 6.87719 6.10526 7.15789C6.25063 7.15789 6.25063 7.15789 6.39599 7.15789C6.54135 7.15789 6.83208 7.01754 6.97744 7.01754C7.12281 7.01754 7.26817 7.01754 7.41353 7.15789C7.5589 7.29825 7.5589 7.4386 7.5589 7.57895C7.5589 7.7193 7.5589 7.85965 7.41353 8C7.26817 8.14035 7.12281 8.2807 6.97744 8.2807ZM10.0301 10.9474V3.22807C10.0301 2.38596 10.0301 1.54386 10.0301 0.701754L10.6115 0.421053C11.0476 0.421053 11.4837 1.54386 12.0652 3.64912C12.5013 5.33333 12.792 6.87719 13.0827 8.2807C13.3734 9.68421 13.5188 10.386 13.5188 10.5263C13.6642 10.1053 13.8095 9.40351 14.1002 8.2807C14.2456 7.01754 14.391 6.17544 14.5363 5.47368C14.9724 3.64912 15.1178 2.10526 15.2632 0.701754C15.2632 0.561404 15.4085 0.421053 15.5539 0.280702C15.6992 0.140351 15.8446 0.140351 15.99 0.140351C16.1353 0.140351 16.2807 0.140351 16.4261 0.280702C16.5714 0.421053 16.5714 0.561404 16.5714 0.561404C16.5714 2.10526 16.5714 4.49123 16.7168 7.7193C16.8622 10.9474 16.8622 13.3333 16.8622 14.8772C16.8622 15.1579 16.7168 15.4386 16.5714 15.7193C16.4261 16 16.2807 16 16.1353 16C15.8446 16 15.6992 15.7193 15.6992 15.1579L15.5539 6.73684V5.89474C15.4085 6.45614 15.2632 7.29825 14.9724 8.5614C14.5363 9.82456 14.2456 10.807 14.1002 11.5088V11.6491C14.1002 11.6491 14.1002 11.7895 14.1002 12.0702C14.1002 12.2105 14.1003 12.4912 13.9549 12.4912C13.9549 12.6316 13.8095 12.7719 13.8095 12.9123C13.8095 13.193 13.5188 13.3333 13.2281 13.3333C12.792 13.3333 12.5013 12.7719 12.5013 11.5088C12.5013 10.2456 12.2105 8.5614 11.6291 6.31579C11.3383 5.19298 11.0476 4.49123 11.0476 4.07018C11.0476 5.19298 11.0476 5.89474 11.0476 6.45614L11.193 14.5965C11.193 14.8772 11.0476 15.1579 10.9023 15.2982C10.6115 15.2982 10.3208 15.1579 10.1754 15.0175C10.0301 14.7368 10.0301 14.4561 10.0301 14.1754V10.9474ZM20.9323 1.54386H20.6416C20.4962 1.54386 20.3509 1.54386 20.3509 1.68421C20.3509 1.68421 20.2055 1.82456 20.2055 1.96491C20.2055 3.22807 20.3509 5.19298 20.4962 7.7193C20.6416 10.2456 20.787 12.2105 20.787 13.4737V14.1754C20.9323 14.1754 21.0777 14.1754 21.2231 14.1754C21.8045 14.1754 22.0952 14.4561 22.0952 14.8772V15.0175L21.5138 15.4386H20.0602C18.8972 15.4386 18.3158 15.2982 18.3158 14.8772C18.3158 14.5965 18.4612 14.4561 18.8972 14.4561H19.3333C19.4787 14.4561 19.6241 14.3158 19.6241 14.0351C19.6241 13.0526 19.6241 11.5088 19.4787 9.40351C19.3333 7.29825 19.3333 5.89474 19.3333 4.77193V2.80702C19.3333 2.38596 19.3333 1.96491 19.3333 1.68421C19.188 1.68421 19.0426 1.82456 18.8972 1.82456C18.6065 1.82456 18.4612 1.68421 18.4612 1.40351C18.4612 1.26316 18.6065 1.12281 18.7519 0.982456C18.8972 0.842105 19.188 0.842105 19.4787 0.701754C20.0601 0.561404 20.4962 0.561404 20.787 0.561404C21.0777 0.561404 21.2231 0.561404 21.3684 0.701754C21.5138 0.842105 21.5138 0.982456 21.5138 1.12281C21.5138 1.26316 21.5138 1.40351 21.3684 1.54386C21.2231 1.40351 21.0777 1.54386 20.9323 1.54386ZM23.5489 5.05263L23.6942 1.40351V1.26316C23.6942 0.561403 23.8396 0.280702 24.1303 0.280702C24.4211 0.280702 24.7118 0.842105 25.2932 2.10526C26.1654 4.35088 27.183 8 28.3459 13.193V13.3333L28.4912 6.45614V0.561404C28.4912 0.140351 28.6366 0 29.0727 0C29.5088 0 29.6541 0.280702 29.6541 0.842105V0.982456C29.5088 1.12281 29.5088 1.40351 29.5088 1.54386L29.3634 8.84211V14.8772C29.3634 15.0175 29.3634 15.2982 29.218 15.4386C29.0727 15.5789 28.9273 15.7193 28.782 15.7193C28.4912 15.7193 27.9098 14.3158 27.0376 11.6491C26.1654 8.98246 25.4386 6.03509 24.5664 2.80702V9.40351C24.5664 10.1053 24.5664 10.9474 24.7118 12.2105C24.8571 13.4737 24.8571 14.4561 24.8571 15.0175C24.8571 15.1579 24.7118 15.2982 24.5664 15.2982C24.4211 15.4386 24.2757 15.4386 23.985 15.4386C23.6942 15.4386 23.6942 15.2982 23.6942 15.1579L23.8396 13.7544C23.8396 13.0526 23.8396 11.9298 23.6942 10.386C23.5489 8.84211 23.5489 7.85965 23.5489 7.57895V5.05263ZM33.8697 1.54386H33.5789C33.4336 1.54386 33.2882 1.54386 33.2882 1.68421C33.2882 1.68421 33.1429 1.82456 33.1429 1.96491C33.1429 3.22807 33.2882 5.19298 33.4336 7.7193C33.5789 10.2456 33.7243 12.2105 33.7243 13.4737V14.1754C33.8697 14.1754 34.015 14.1754 34.1604 14.1754C34.7419 14.1754 35.0326 14.4561 35.0326 14.8772V15.0175L34.3058 15.4386H32.8521C31.6892 15.4386 31.1078 15.2982 31.1078 14.8772C31.1078 14.5965 31.2531 14.4561 31.6892 14.4561H32.1253C32.2707 14.4561 32.416 14.3158 32.416 14.0351C32.416 13.0526 32.416 11.5088 32.2707 9.40351C32.1253 7.29825 32.1253 5.89474 32.1253 4.77193V2.80702C32.1253 2.38596 32.1253 1.96491 32.1253 1.68421C31.9799 1.68421 31.8346 1.82456 31.6892 1.82456C31.3985 1.82456 31.2531 1.68421 31.2531 1.40351C31.2531 1.26316 31.3985 1.12281 31.5439 0.982456C31.6892 0.842105 31.9799 0.842105 32.2707 0.701754C32.8521 0.561404 33.2882 0.561404 33.5789 0.561404C33.8697 0.561404 34.015 0.561404 34.1604 0.701754C34.3058 0.842105 34.3058 0.982456 34.3058 1.12281C34.3058 1.26316 34.3058 1.40351 34.1604 1.54386C34.015 1.40351 33.8697 1.54386 33.8697 1.54386ZM36.0501 15.2982C36.0501 14.8772 36.1955 14.7368 36.4862 14.7368C36.6316 14.7368 36.7769 14.7368 37.0677 14.8772C37.3584 15.0175 37.5038 15.0175 37.7945 15.0175C37.9398 15.0175 38.2306 14.8772 38.3759 14.7368C38.5213 14.4561 38.812 14.1754 38.812 13.8947C39.1028 13.193 39.2481 12.4912 39.2481 11.9298C39.2481 11.3684 39.1028 10.807 38.9574 10.1053C38.812 9.40351 38.5213 8.84211 38.2306 8.2807C37.9398 7.7193 37.6491 7.15789 37.3584 6.59649C36.6316 5.47368 36.1955 4.21053 36.3409 3.08772C36.3409 2.10526 36.6316 1.26316 37.3584 0.701754C37.6491 0.421053 38.0852 0.280702 38.6667 0.280702C38.9574 0.280702 39.1028 0.280702 39.3935 0.421053C39.6842 0.561404 39.8296 0.701754 39.8296 0.982456L39.3935 1.40351C39.1028 1.40351 38.812 1.40351 38.5213 1.26316C38.2306 1.26316 38.0852 1.40351 37.7945 1.54386C37.5038 1.96491 37.213 2.38596 37.213 2.94737C37.213 3.50877 37.3584 4.07018 37.5038 4.63158C37.6491 5.19298 37.7945 5.61404 38.0852 6.03509C38.3759 6.45614 38.5213 6.87719 38.812 7.4386C39.1028 8 39.2481 8.42105 39.5388 8.84211C40.1203 9.82456 40.2657 11.0877 40.2657 12.2105C40.2657 13.0526 39.9749 13.8947 39.5388 14.7368C39.3935 15.1579 38.9574 15.4386 38.6667 15.7193C38.2306 16 37.9398 16.1404 37.3584 16.1404C36.9223 16.1404 36.4862 16 36.1955 15.8596C36.1955 15.5789 36.0501 15.4386 36.0501 15.2982ZM44.4812 1.54386C44.6266 2.24561 44.6266 3.08772 44.6266 3.92982V6.45614L44.7719 11.0877L44.9173 14.5965C44.9173 15.2982 44.7719 15.5789 44.3358 15.5789C44.0451 15.5789 43.8997 15.4386 43.8997 15.2982C43.7544 15.1579 43.7544 14.8772 43.7544 14.5965L43.8997 11.3684C43.8997 10.6667 43.8997 9.68421 43.7544 8.2807C43.609 7.01754 43.609 5.89474 43.609 5.33333V3.64912C43.609 2.66667 43.609 2.10526 43.4637 1.82456L42.3008 1.96491C42.1554 1.96491 42.01 1.96491 41.8647 1.82456C41.7193 1.68421 41.7193 1.54386 41.7193 1.40351C41.7193 1.26316 41.8647 1.12281 42.1554 0.982456C42.4461 0.842105 42.8822 0.842105 43.3183 0.701754C44.1905 0.561404 44.7719 0.561404 45.3534 0.561404C45.4987 0.561404 45.6441 0.561404 45.7895 0.701754C45.9348 0.842105 45.9348 0.982456 45.9348 1.12281C45.9348 1.26316 45.9348 1.40351 45.7895 1.54386C45.6441 1.68421 45.4987 1.68421 45.3534 1.68421H44.6266C44.6266 1.54386 44.4812 1.54386 44.4812 1.54386ZM47.8246 9.12281V5.33333C47.8246 4.63158 47.8246 3.92982 47.6792 3.08772C47.5338 2.24561 47.5338 1.68421 47.5338 1.40351C47.5338 1.12281 47.5338 0.982456 47.6792 0.842105C47.8246 0.701754 47.9699 0.701754 48.1153 0.701754C48.6967 0.701754 48.8421 1.26316 48.8421 2.24561C48.8421 2.24561 48.8421 3.64912 48.6967 6.31579C48.6967 6.17544 48.8421 5.89474 49.1328 5.33333C49.4236 4.77193 49.7143 4.21053 49.8596 3.64912C50.1504 3.08772 50.2957 2.52632 50.5865 1.96491C51.1679 0.701754 51.604 0 51.8947 0C52.0401 0 52.1855 0 52.3308 0.140351C52.4762 0.280702 52.4762 0.421053 52.4762 0.561404C52.4762 0.701754 52.0401 1.54386 51.3133 3.08772C50.5865 4.63158 50.1504 5.61404 50.005 6.03509V6.31579C50.1504 6.87719 50.7318 8.42105 51.604 11.0877C52.4762 13.7544 52.9123 15.2982 52.9123 15.4386C52.9123 15.5789 52.9123 15.7193 52.7669 15.8596C52.6216 16 52.4762 16 52.3308 16L51.8947 15.8596C51.604 14.0351 51.3133 12.3509 50.8772 10.9474C50.4411 9.54386 50.005 8.14035 49.4236 6.87719C48.9875 7.57895 48.8421 8 48.8421 8.14035C48.8421 8.5614 48.8421 8.8421 48.8421 9.12281L48.9875 12.7719V14.4561C48.9875 15.1579 48.6967 15.5789 48.2607 15.5789C47.8246 15.5789 47.6792 15.2982 47.6792 14.5965C47.6792 13.8947 47.6792 13.0526 47.8246 11.7895C47.8246 10.5263 47.8246 9.68421 47.8246 9.12281ZM56.9825 1.54386H56.6917C56.5464 1.54386 56.401 1.54386 56.401 1.68421C56.401 1.68421 56.2556 1.82456 56.2556 1.96491C56.2556 3.22807 56.401 5.19298 56.5464 7.7193C56.5464 10.2456 56.6917 12.2105 56.6917 13.4737V14.1754C56.8371 14.1754 56.9825 14.1754 57.1278 14.1754C57.7093 14.1754 58 14.4561 58 14.8772V15.0175L57.4185 15.4386H55.9649C54.802 15.4386 54.2205 15.2982 54.2205 14.8772C54.2205 14.5965 54.3659 14.4561 54.802 14.4561H55.2381C55.3835 14.4561 55.5288 14.3158 55.5288 14.0351C55.5288 13.0526 55.5288 11.5088 55.3835 9.40351C55.3835 7.29825 55.2381 5.75439 55.2381 4.77193V2.80702C55.2381 2.38596 55.2381 1.96491 55.2381 1.68421C55.0927 1.68421 54.9474 1.82456 54.802 1.82456C54.5113 1.82456 54.3659 1.68421 54.3659 1.40351C54.3659 1.26316 54.5113 1.12281 54.6566 0.982456C54.802 0.842105 55.0927 0.842105 55.3835 0.701754C55.9649 0.561404 56.401 0.561404 56.6917 0.561404C56.9825 0.561404 57.1278 0.561404 57.2732 0.701754C57.4185 0.842105 57.4185 0.982456 57.4185 1.12281C57.4185 1.26316 57.4185 1.40351 57.2732 1.54386C57.2732 1.40351 57.1278 1.54386 56.9825 1.54386Z" fill="black"/>
</g>
<defs>
<clipPath id="clip0_0_4213">
<rect width="58" height="16" fill="white"/>
</clipPath>
</defs>
</svg>
