<svg width="91" height="14" viewBox="0 0 91 14" fill="none" xmlns="http://www.w3.org/2000/svg">
<path d="M3.92758 1.96C3.88758 2.81333 3.86758 3.63333 3.86758 4.42C3.86758 5.23333 3.92091 6.42667 4.02758 8C4.04091 8.24 4.06758 8.72667 4.10758 9.46C4.14758 10.18 4.16758 10.84 4.16758 11.44C4.30091 11.4267 4.44091 11.4067 4.58758 11.38C4.74758 11.3533 4.86758 11.34 4.94758 11.34C5.24091 11.34 5.47425 11.4133 5.64758 11.56C5.82091 11.7067 5.90758 11.9333 5.90758 12.24C5.90758 12.44 5.82758 12.5933 5.66758 12.7C5.50758 12.8067 5.22758 12.8867 4.82758 12.94C4.44091 12.98 3.87424 13 3.12758 13C2.30091 13 1.68091 12.9733 1.26758 12.92C0.854245 12.8667 0.567578 12.7667 0.407578 12.62C0.247578 12.46 0.167578 12.2267 0.167578 11.92C0.167578 11.6933 0.240911 11.54 0.387578 11.46C0.534245 11.38 0.740912 11.34 1.00758 11.34L1.42758 11.36L2.08758 11.4L1.98758 9.04C1.90758 7.76 1.86758 6.58667 1.86758 5.52C1.86758 4.94667 1.88758 4.16 1.92758 3.16L1.96758 2.06C1.51424 2.08667 1.16091 2.1 0.907578 2.1C0.614245 2.1 0.414245 2.04667 0.307578 1.94C0.214245 1.83333 0.167578 1.61333 0.167578 1.28C0.167578 0.906666 0.420912 0.666666 0.927578 0.559999C1.44758 0.453332 2.23424 0.399999 3.28758 0.399999C4.10091 0.399999 4.70758 0.426666 5.10758 0.479999C5.52091 0.533333 5.72758 0.653333 5.72758 0.839999C5.72758 1.29333 5.62758 1.59333 5.42758 1.74C5.24091 1.87333 4.87424 1.94 4.32758 1.94L3.92758 1.96ZM16.5285 1.76C16.5285 1.37333 16.6152 1.04 16.7885 0.759999C16.9752 0.466666 17.2485 0.32 17.6085 0.32C17.9152 0.32 18.1885 0.38 18.4285 0.5C18.6685 0.619999 18.7885 0.819999 18.7885 1.1C18.7885 1.64667 18.7618 2.41333 18.7085 3.4C18.6552 4.36 18.6285 5.07333 18.6285 5.54C18.6285 6.27333 18.6552 7.25333 18.7085 8.48C18.7618 9.65333 18.7885 10.5133 18.7885 11.06C18.7885 11.5 18.7818 11.8267 18.7685 12.04C18.7685 12.2533 18.6485 12.4667 18.4085 12.68C18.1818 12.88 17.8285 12.98 17.3485 12.98C17.0952 12.98 16.8752 12.94 16.6885 12.86C16.5152 12.7667 16.3952 12.6667 16.3285 12.56C15.7018 11.8 14.7885 10.5067 13.5885 8.68C12.2418 6.64 11.1418 5.08 10.2885 4C10.3952 4.96 10.4485 6.13333 10.4485 7.52C10.4485 8.13333 10.4352 8.93333 10.4085 9.92C10.3952 10.8933 10.3685 11.5333 10.3285 11.84C10.2752 12.2267 10.1552 12.5267 9.96852 12.74C9.79518 12.94 9.51518 13.04 9.12852 13.04C8.83518 13.04 8.61518 12.96 8.46852 12.8C8.33518 12.6267 8.25518 12.3333 8.22852 11.92C8.21518 11.3733 8.24852 10.5533 8.32852 9.46C8.34185 9.28667 8.36185 8.98667 8.38852 8.56C8.41518 8.13333 8.42852 7.75333 8.42852 7.42C8.42852 6.5 8.38185 5.44667 8.28852 4.26C8.20852 2.95333 8.16852 1.98667 8.16852 1.36C8.16852 1.04 8.28185 0.793333 8.50852 0.62C8.74852 0.446666 9.02185 0.359999 9.32852 0.359999C9.59518 0.359999 9.87518 0.426666 10.1685 0.559999C11.3152 2 12.8685 4.14667 14.8285 7L16.7085 9.88C16.7218 9.66667 16.7285 9.36667 16.7285 8.98C16.7285 8.3 16.7152 7.56667 16.6885 6.78C16.6618 5.99333 16.6418 5.46 16.6285 5.18C16.5618 3.88667 16.5285 2.74667 16.5285 1.76ZM20.4446 1.34C20.4446 0.766666 20.8646 0.479999 21.7046 0.479999C22.0646 0.479999 22.7513 0.493333 23.7646 0.52C24.8846 0.573333 25.7313 0.6 26.3046 0.6C26.7713 0.6 27.3379 0.573333 28.0046 0.52C28.4579 0.493333 28.7446 0.479999 28.8646 0.479999C29.5979 0.506666 30.2179 0.64 30.7246 0.88C30.8713 0.946666 30.9913 1.02667 31.0846 1.12C31.1779 1.21333 31.2246 1.36667 31.2246 1.58C31.2246 1.87333 31.1313 2.12667 30.9446 2.34C30.7579 2.54 30.5313 2.64 30.2646 2.64C29.9713 2.64 29.5446 2.6 28.9846 2.52C28.4913 2.42667 28.0579 2.38 27.6846 2.38C27.3246 2.38 27.0513 2.38667 26.8646 2.4C26.8246 2.84 26.8046 3.89333 26.8046 5.56C26.8046 7.54667 26.8646 9.56 26.9846 11.6L27.0246 12.18C27.0246 12.7267 26.7113 13 26.0846 13C25.5913 13 25.2579 12.8867 25.0846 12.66C24.9113 12.42 24.8246 12.06 24.8246 11.58C24.8246 10.6333 24.7979 9.45333 24.7446 8.04C24.6913 6.86667 24.6646 6.03333 24.6646 5.54C24.6646 5.20667 24.7046 4.18667 24.7846 2.48L22.4446 2.5C21.6979 2.5 21.1779 2.43333 20.8846 2.3C20.5913 2.15333 20.4446 1.83333 20.4446 1.34ZM41.9755 11.72C41.9889 12 41.9555 12.2 41.8755 12.32C41.7955 12.4267 41.6355 12.54 41.3955 12.66C41.0355 12.8333 40.6089 12.9467 40.1155 13C39.6355 13.0533 39.0155 13.08 38.2555 13.08H36.8955C35.7089 13.08 34.8289 12.88 34.2555 12.48C33.6822 12.0667 33.3222 11.5733 33.1755 11C33.0289 10.4267 32.9422 9.68667 32.9155 8.78C32.9022 8.47333 32.8955 8.02 32.8955 7.42C32.8955 6.11333 33.0089 4.36667 33.2355 2.18C33.3022 1.54 33.5355 1.08 33.9355 0.8C34.3355 0.506666 34.7889 0.359999 35.2955 0.359999C35.7089 0.359999 36.3822 0.346666 37.3155 0.32L39.0755 0.299999C39.7955 0.299999 40.3155 0.319999 40.6355 0.359999C41.0355 0.439999 41.3355 0.533333 41.5355 0.639999C41.7355 0.733333 41.8422 0.9 41.8555 1.14C41.8555 1.40667 41.7689 1.66667 41.5955 1.92C41.4222 2.17333 41.1555 2.3 40.7955 2.3C40.3822 2.3 39.7889 2.27333 39.0155 2.22C38.2422 2.16667 37.6555 2.14 37.2555 2.14C36.8955 2.14 36.5689 2.16 36.2755 2.2C35.9022 2.22667 35.6355 2.27333 35.4755 2.34C35.3155 2.40667 35.2289 2.52 35.2155 2.68C35.0689 4.13333 35.0089 5.14667 35.0355 5.72C35.3422 5.76 35.6489 5.78 35.9555 5.78C36.2622 5.78 36.6822 5.75333 37.2155 5.7C37.3489 5.68667 37.5155 5.67333 37.7155 5.66C37.9155 5.64667 38.1422 5.64 38.3955 5.64C38.5422 5.64 38.7755 5.65333 39.0955 5.68L39.7155 5.7C40.3289 5.7 40.6355 5.92 40.6355 6.36C40.6355 6.62667 40.5622 6.84 40.4155 7C40.2689 7.16 40.0089 7.28 39.6355 7.36C39.1289 7.45333 38.3089 7.5 37.1755 7.5H35.9555C35.7022 7.5 35.3889 7.48667 35.0155 7.46C35.0022 7.7 34.9955 8.04667 34.9955 8.5C34.9955 9.08667 35.0022 9.5 35.0155 9.74C35.0555 10.6733 35.7022 11.14 36.9555 11.14C37.3822 11.14 37.8355 11.1533 38.3155 11.18L39.0555 11.2C39.4022 11.2 39.6889 11.1667 39.9155 11.1C40.1422 11.02 40.3622 10.9533 40.5755 10.9C40.8022 10.8333 41.0089 10.8 41.1955 10.8C41.4489 10.8 41.6422 10.9 41.7755 11.1C41.9089 11.2867 41.9755 11.4933 41.9755 11.72ZM50.787 7.7C51.947 9.67333 53.0336 11.24 54.047 12.4C54.1536 12.5067 54.207 12.6267 54.207 12.76C54.207 12.9333 54.1003 13.08 53.887 13.2C53.6736 13.3333 53.427 13.4 53.147 13.4C52.7336 13.4 52.287 13.2267 51.807 12.88C51.4603 12.64 51.1403 12.2867 50.847 11.82C50.5536 11.34 50.2203 10.7267 49.847 9.98L49.507 9.3C49.1603 8.67333 48.9536 8.30667 48.887 8.2C48.5936 8.32 48.2536 8.40667 47.867 8.46C47.4803 8.51333 47.007 8.56 46.447 8.6C46.4736 10.3067 46.487 11.5 46.487 12.18C46.487 12.4333 46.3936 12.64 46.207 12.8C46.0203 12.9467 45.787 13.02 45.507 13.02C45.1603 13.02 44.8936 12.88 44.707 12.6C44.5203 12.2267 44.427 11.6467 44.427 10.86L44.447 9.4C44.447 8.49333 44.467 7.63333 44.507 6.82C44.5336 5.75333 44.547 4.96667 44.547 4.46L44.567 3.44C44.567 3.13333 44.547 2.82 44.507 2.5C44.2936 2.43333 44.107 2.33333 43.947 2.2C43.787 2.05333 43.707 1.89333 43.707 1.72C43.707 1.38667 43.827 1.13333 44.067 0.959999C44.3203 0.773332 44.6336 0.653333 45.007 0.6C46.087 0.426666 47.1403 0.34 48.167 0.34C49.9136 0.34 51.3603 0.666666 52.507 1.32C53.6536 1.97333 54.227 2.96667 54.227 4.3C54.227 4.71333 54.1336 5.11333 53.947 5.5C53.7736 5.87333 53.5336 6.18667 53.227 6.44C52.427 7.06667 51.6136 7.48667 50.787 7.7ZM52.107 4.24C52.107 3.6 51.767 3.08 51.087 2.68C50.4203 2.26667 49.4603 2.06 48.207 2.06C47.6603 2.06 47.1003 2.12667 46.527 2.26C46.5536 2.74 46.567 3.08 46.567 3.28C46.567 3.68 46.5403 4.25333 46.487 5C46.4603 5.74667 46.447 6.34667 46.447 6.8C47.3403 6.8 48.1936 6.68 49.007 6.44C49.5936 6.26667 50.087 6.1 50.487 5.94C50.887 5.78 51.2536 5.56 51.587 5.28C51.9336 4.98667 52.107 4.64 52.107 4.24ZM64.7512 1.76C64.7512 1.37333 64.8378 1.04 65.0112 0.759999C65.1978 0.466666 65.4712 0.32 65.8312 0.32C66.1378 0.32 66.4112 0.38 66.6512 0.5C66.8912 0.619999 67.0112 0.819999 67.0112 1.1C67.0112 1.64667 66.9845 2.41333 66.9312 3.4C66.8778 4.36 66.8512 5.07333 66.8512 5.54C66.8512 6.27333 66.8778 7.25333 66.9312 8.48C66.9845 9.65333 67.0112 10.5133 67.0112 11.06C67.0112 11.5 67.0045 11.8267 66.9912 12.04C66.9912 12.2533 66.8712 12.4667 66.6312 12.68C66.4045 12.88 66.0512 12.98 65.5712 12.98C65.3178 12.98 65.0978 12.94 64.9112 12.86C64.7378 12.7667 64.6178 12.6667 64.5512 12.56C63.9245 11.8 63.0112 10.5067 61.8112 8.68C60.4645 6.64 59.3645 5.08 58.5112 4C58.6178 4.96 58.6712 6.13333 58.6712 7.52C58.6712 8.13333 58.6578 8.93333 58.6312 9.92C58.6178 10.8933 58.5912 11.5333 58.5512 11.84C58.4978 12.2267 58.3778 12.5267 58.1912 12.74C58.0178 12.94 57.7378 13.04 57.3512 13.04C57.0578 13.04 56.8378 12.96 56.6912 12.8C56.5578 12.6267 56.4778 12.3333 56.4512 11.92C56.4378 11.3733 56.4712 10.5533 56.5512 9.46C56.5645 9.28667 56.5845 8.98667 56.6112 8.56C56.6378 8.13333 56.6512 7.75333 56.6512 7.42C56.6512 6.5 56.6045 5.44667 56.5112 4.26C56.4312 2.95333 56.3912 1.98667 56.3912 1.36C56.3912 1.04 56.5045 0.793333 56.7312 0.62C56.9712 0.446666 57.2445 0.359999 57.5512 0.359999C57.8178 0.359999 58.0978 0.426666 58.3912 0.559999C59.5378 2 61.0912 4.14667 63.0512 7L64.9312 9.88C64.9445 9.66667 64.9512 9.36667 64.9512 8.98C64.9512 8.3 64.9378 7.56667 64.9112 6.78C64.8845 5.99333 64.8645 5.46 64.8512 5.18C64.7845 3.88667 64.7512 2.74667 64.7512 1.76ZM78.1473 10.46C78.4006 10.46 78.5873 10.56 78.7073 10.76C78.8406 10.9467 78.9073 11.1533 78.9073 11.38C78.9073 11.66 78.8606 11.86 78.7673 11.98C78.6873 12.0867 78.5206 12.2 78.2673 12.32C77.7339 12.5733 77.1339 12.7533 76.4673 12.86C75.8139 12.9667 74.9939 13.02 74.0073 13.02C72.8206 13.02 71.9073 12.82 71.2673 12.42C70.6406 12.0067 70.2273 11.4933 70.0273 10.88C69.8273 10.2667 69.7273 9.55333 69.7273 8.74V7.48C69.7273 6.61333 69.7473 5.78 69.7873 4.98C69.8406 4.18 69.9406 3.24667 70.0873 2.18C70.1806 1.54 70.4339 1.08 70.8473 0.8C71.2606 0.506666 71.7139 0.359999 72.2073 0.359999C72.7406 0.359999 73.4739 0.346666 74.4073 0.32L76.1473 0.299999C76.8539 0.299999 77.3739 0.319999 77.7073 0.359999C78.1073 0.439999 78.4006 0.533333 78.5873 0.639999C78.7873 0.733333 78.8873 0.9 78.8873 1.14C78.8873 1.40667 78.7939 1.66667 78.6073 1.92C78.4339 2.17333 78.1673 2.3 77.8073 2.3C77.3939 2.3 76.8006 2.27333 76.0273 2.22C75.2539 2.16667 74.6739 2.14 74.2873 2.14C73.8073 2.14 73.4206 2.16 73.1273 2.2C72.7539 2.22667 72.4873 2.27333 72.3273 2.34C72.1673 2.40667 72.0739 2.52 72.0473 2.68C71.8606 4.05333 71.7673 5.06667 71.7673 5.72C72.0606 5.76 72.3739 5.78 72.7073 5.78C73.1339 5.78 73.8473 5.73333 74.8473 5.64C75.5806 5.57333 76.1873 5.54 76.6673 5.54C76.9739 5.54 77.2006 5.59333 77.3473 5.7C77.4939 5.80667 77.5673 5.95333 77.5673 6.14C77.5673 6.43333 77.4939 6.66 77.3473 6.82C77.2006 6.98 76.9339 7.1 76.5473 7.18C76.0806 7.27333 75.4739 7.34667 74.7273 7.4C73.9939 7.45333 73.2939 7.48 72.6273 7.48C72.3739 7.48 72.0606 7.46667 71.6873 7.44C71.6873 8.32 71.7273 9.01333 71.8073 9.52C71.9006 10.0267 72.0873 10.42 72.3673 10.7C72.6606 10.98 73.1006 11.12 73.6873 11.12C75.0073 11.12 76.0606 11 76.8473 10.76C77.4073 10.56 77.8406 10.46 78.1473 10.46ZM79.7415 1.34C79.7415 0.766666 80.1615 0.479999 81.0015 0.479999C81.3615 0.479999 82.0482 0.493333 83.0615 0.52C84.1815 0.573333 85.0282 0.6 85.6015 0.6C86.0682 0.6 86.6348 0.573333 87.3015 0.52C87.7548 0.493333 88.0415 0.479999 88.1615 0.479999C88.8948 0.506666 89.5148 0.64 90.0215 0.88C90.1682 0.946666 90.2882 1.02667 90.3815 1.12C90.4748 1.21333 90.5215 1.36667 90.5215 1.58C90.5215 1.87333 90.4282 2.12667 90.2415 2.34C90.0548 2.54 89.8282 2.64 89.5615 2.64C89.2682 2.64 88.8415 2.6 88.2815 2.52C87.7882 2.42667 87.3548 2.38 86.9815 2.38C86.6215 2.38 86.3482 2.38667 86.1615 2.4C86.1215 2.84 86.1015 3.89333 86.1015 5.56C86.1015 7.54667 86.1615 9.56 86.2815 11.6L86.3215 12.18C86.3215 12.7267 86.0082 13 85.3815 13C84.8882 13 84.5548 12.8867 84.3815 12.66C84.2082 12.42 84.1215 12.06 84.1215 11.58C84.1215 10.6333 84.0948 9.45333 84.0415 8.04C83.9882 6.86667 83.9615 6.03333 83.9615 5.54C83.9615 5.20667 84.0015 4.18667 84.0815 2.48L81.7415 2.5C80.9948 2.5 80.4748 2.43333 80.1815 2.3C79.8882 2.15333 79.7415 1.83333 79.7415 1.34Z" fill="black"/>
</svg>
