<svg width="102" height="14" viewBox="0 0 102 14" fill="none" xmlns="http://www.w3.org/2000/svg">
<path d="M0.468047 1.34C0.468047 0.766666 0.888047 0.479999 1.72805 0.479999C2.08805 0.479999 2.77471 0.493333 3.78805 0.52C4.90805 0.573333 5.75471 0.6 6.32805 0.6C6.79471 0.6 7.36138 0.573333 8.02805 0.52C8.48138 0.493333 8.76805 0.479999 8.88805 0.479999C9.62138 0.506666 10.2414 0.64 10.748 0.88C10.8947 0.946666 11.0147 1.02667 11.108 1.12C11.2014 1.21333 11.248 1.36667 11.248 1.58C11.248 1.87333 11.1547 2.12667 10.968 2.34C10.7814 2.54 10.5547 2.64 10.288 2.64C9.99471 2.64 9.56805 2.6 9.00805 2.52C8.51471 2.42667 8.08138 2.38 7.70805 2.38C7.34805 2.38 7.07471 2.38667 6.88805 2.4C6.84805 2.84 6.82805 3.89333 6.82805 5.56C6.82805 7.54667 6.88805 9.56 7.00805 11.6L7.04805 12.18C7.04805 12.7267 6.73471 13 6.10805 13C5.61471 13 5.28138 12.8867 5.10805 12.66C4.93471 12.42 4.84805 12.06 4.84805 11.58C4.84805 10.6333 4.82138 9.45333 4.76805 8.04C4.71471 6.86667 4.68805 6.03333 4.68805 5.54C4.68805 5.20667 4.72805 4.18667 4.80805 2.48L2.46805 2.5C1.72138 2.5 1.20138 2.43333 0.908047 2.3C0.614714 2.15333 0.468047 1.83333 0.468047 1.34ZM21.099 10.28C21.3523 10.28 21.539 10.38 21.659 10.58C21.7923 10.7667 21.859 10.9733 21.859 11.2C21.859 11.48 21.8123 11.68 21.719 11.8C21.639 11.9067 21.479 12.02 21.239 12.14C20.679 12.4067 19.9857 12.62 19.159 12.78C18.3323 12.94 17.4457 13.02 16.499 13.02C15.3123 13.02 14.439 12.82 13.879 12.42C13.3323 12.02 12.9923 11.54 12.859 10.98C12.739 10.4067 12.679 9.66 12.679 8.74C12.679 7.75333 12.719 6.78667 12.799 5.84C12.879 4.88 13.019 3.66 13.219 2.18C13.3123 1.54 13.5657 1.08 13.979 0.8C14.3923 0.506666 14.8457 0.359999 15.339 0.359999C15.7523 0.359999 16.4257 0.346666 17.359 0.32L19.099 0.299999C19.819 0.299999 20.339 0.319999 20.659 0.359999C21.059 0.439999 21.3523 0.533333 21.539 0.639999C21.739 0.733333 21.839 0.9 21.839 1.14C21.839 1.40667 21.7457 1.66667 21.559 1.92C21.3857 2.17333 21.119 2.3 20.759 2.3C20.3457 2.3 19.7523 2.27333 18.979 2.22C18.2057 2.16667 17.6257 2.14 17.239 2.14C16.9057 2.14 16.579 2.16 16.259 2.2C15.8857 2.22667 15.619 2.27333 15.459 2.34C15.299 2.40667 15.2057 2.52 15.179 2.68C14.9923 4.05333 14.899 5.06667 14.899 5.72C15.2057 5.76 15.5057 5.78 15.799 5.78C16.1723 5.78 16.5723 5.76 16.999 5.72C17.4257 5.68 17.699 5.65333 17.819 5.64C18.5257 5.57333 19.1323 5.54 19.639 5.54C19.9323 5.54 20.1523 5.59333 20.299 5.7C20.459 5.80667 20.539 5.95333 20.539 6.14C20.539 6.43333 20.459 6.66 20.299 6.82C20.1523 6.98 19.8857 7.1 19.499 7.18C19.0323 7.27333 18.4523 7.34667 17.759 7.4C17.079 7.45333 16.4123 7.48 15.759 7.48C15.5323 7.48 15.219 7.46667 14.819 7.44C14.779 8.25333 14.759 9.00667 14.759 9.7C14.759 10.6467 15.3857 11.12 16.639 11.12C17.3057 11.12 17.859 11.0733 18.299 10.98C18.739 10.8867 19.2457 10.7533 19.819 10.58C20.3523 10.38 20.779 10.28 21.099 10.28ZM24.9541 0.299999C25.2075 0.299999 25.4341 0.366666 25.6341 0.5C25.8475 0.633333 25.9741 0.866666 26.0141 1.2C26.1741 2.25333 26.2741 3.30667 26.3141 4.36C26.3675 5.4 26.3941 6.58 26.3941 7.9C26.3941 8.46 26.3475 9.48 26.2541 10.96C26.8408 11.0133 27.2941 11.04 27.6141 11.04C27.8408 11.04 28.3541 11.0067 29.1541 10.94C29.6208 10.8733 30.0275 10.84 30.3741 10.84C30.6941 10.84 30.9875 10.8733 31.2541 10.94C31.5208 10.9933 31.7941 11.0867 32.0741 11.22C32.3541 11.38 32.4941 11.6267 32.4941 11.96C32.4941 12.2267 32.4075 12.4667 32.2341 12.68C32.0741 12.8933 31.8808 13 31.6541 13C31.4941 13 31.2408 12.9733 30.8941 12.92C30.2675 12.8267 29.6675 12.78 29.0941 12.78C28.9075 12.78 28.6941 12.7933 28.4541 12.82C28.2275 12.8333 28.0608 12.84 27.9541 12.84C27.6341 12.88 27.3141 12.9 26.9941 12.9C26.3408 12.9 25.7541 12.8667 25.2341 12.8C24.9675 12.7733 24.7008 12.6733 24.4341 12.5C24.1675 12.3133 24.0341 12.0467 24.0341 11.7C24.0341 11.5 24.0608 10.9867 24.1141 10.16C24.2075 8.78667 24.2541 7.74 24.2541 7.02C24.2541 6.46 24.2275 5.87333 24.1741 5.26C24.1208 4.64667 24.0875 4.26 24.0741 4.1C23.9541 2.96667 23.8941 2.03333 23.8941 1.3C23.8941 0.953333 23.9741 0.7 24.1341 0.539999C24.3075 0.379999 24.5808 0.299999 24.9541 0.299999ZM43.1318 11.72C43.1451 12 43.1118 12.2 43.0318 12.32C42.9518 12.4267 42.7918 12.54 42.5518 12.66C42.1918 12.8333 41.7651 12.9467 41.2718 13C40.7918 13.0533 40.1718 13.08 39.4118 13.08H38.0518C36.8651 13.08 35.9851 12.88 35.4118 12.48C34.8385 12.0667 34.4785 11.5733 34.3318 11C34.1851 10.4267 34.0985 9.68667 34.0718 8.78C34.0585 8.47333 34.0518 8.02 34.0518 7.42C34.0518 6.11333 34.1651 4.36667 34.3918 2.18C34.4585 1.54 34.6918 1.08 35.0918 0.8C35.4918 0.506666 35.9451 0.359999 36.4518 0.359999C36.8651 0.359999 37.5385 0.346666 38.4718 0.32L40.2318 0.299999C40.9518 0.299999 41.4718 0.319999 41.7918 0.359999C42.1918 0.439999 42.4918 0.533333 42.6918 0.639999C42.8918 0.733333 42.9985 0.9 43.0118 1.14C43.0118 1.40667 42.9251 1.66667 42.7518 1.92C42.5785 2.17333 42.3118 2.3 41.9518 2.3C41.5385 2.3 40.9451 2.27333 40.1718 2.22C39.3985 2.16667 38.8118 2.14 38.4118 2.14C38.0518 2.14 37.7251 2.16 37.4318 2.2C37.0585 2.22667 36.7918 2.27333 36.6318 2.34C36.4718 2.40667 36.3851 2.52 36.3718 2.68C36.2251 4.13333 36.1651 5.14667 36.1918 5.72C36.4985 5.76 36.8051 5.78 37.1118 5.78C37.4185 5.78 37.8385 5.75333 38.3718 5.7C38.5051 5.68667 38.6718 5.67333 38.8718 5.66C39.0718 5.64667 39.2985 5.64 39.5518 5.64C39.6985 5.64 39.9318 5.65333 40.2518 5.68L40.8718 5.7C41.4851 5.7 41.7918 5.92 41.7918 6.36C41.7918 6.62667 41.7185 6.84 41.5718 7C41.4251 7.16 41.1651 7.28 40.7918 7.36C40.2851 7.45333 39.4651 7.5 38.3318 7.5H37.1118C36.8585 7.5 36.5451 7.48667 36.1718 7.46C36.1585 7.7 36.1518 8.04667 36.1518 8.5C36.1518 9.08667 36.1585 9.5 36.1718 9.74C36.2118 10.6733 36.8585 11.14 38.1118 11.14C38.5385 11.14 38.9918 11.1533 39.4718 11.18L40.2118 11.2C40.5585 11.2 40.8451 11.1667 41.0718 11.1C41.2985 11.02 41.5185 10.9533 41.7318 10.9C41.9585 10.8333 42.1651 10.8 42.3518 10.8C42.6051 10.8 42.7985 10.9 42.9318 11.1C43.0651 11.2867 43.1318 11.4933 43.1318 11.72ZM58.2632 1.44C58.3432 1.16 58.4632 0.933333 58.6232 0.759999C58.7832 0.573332 58.9565 0.479999 59.1432 0.479999C59.5965 0.479999 59.9232 0.566666 60.1232 0.739999C60.3232 0.913333 60.4232 1.21333 60.4232 1.64C60.4232 1.76 60.3299 2.1 60.1432 2.66C59.7299 3.92667 59.2765 5.49333 58.7832 7.36C58.6632 7.78667 58.5632 8.16 58.4832 8.48C58.4165 8.8 58.3565 9.06667 58.3032 9.28C57.9832 10.6533 57.7032 11.6867 57.4632 12.38C57.3832 12.58 57.2432 12.74 57.0432 12.86C56.8432 12.9667 56.6299 13.02 56.4032 13.02C56.1765 13.02 55.9499 12.9733 55.7232 12.88C55.5099 12.7733 55.3565 12.6533 55.2632 12.52C54.9432 11.8933 54.4632 10.76 53.8232 9.12C53.1965 7.48 52.7032 6.08667 52.3432 4.94C51.7165 6.55333 51.0632 8.44667 50.3832 10.62C50.1165 11.4867 49.9299 12.0733 49.8232 12.38C49.7299 12.58 49.5965 12.74 49.4232 12.86C49.2499 12.9667 49.0565 13.02 48.8432 13.02C48.6032 13.02 48.3699 12.9733 48.1432 12.88C47.9165 12.7733 47.7632 12.6533 47.6832 12.52C47.5099 12.2267 47.3232 11.7733 47.1232 11.16C46.9365 10.5467 46.6832 9.68667 46.3632 8.58L45.8632 6.88C45.5165 5.77333 45.2165 4.64 44.9632 3.48C44.7099 2.32 44.5832 1.62667 44.5832 1.4C44.5832 1.12 44.7232 0.9 45.0032 0.739999C45.2832 0.566666 45.5632 0.479999 45.8432 0.479999C46.0032 0.479999 46.1699 0.533333 46.3432 0.639999C46.5165 0.733333 46.6299 0.9 46.6832 1.14C47.1499 3.63333 47.8365 6.52667 48.7432 9.82C49.1165 8.9 49.6632 7.28 50.3832 4.96C50.4765 4.65333 50.6165 4.2 50.8032 3.6C51.0032 3 51.1699 2.5 51.3032 2.1C51.3565 1.9 51.4899 1.74 51.7032 1.62C51.9299 1.5 52.1565 1.44 52.3832 1.44C52.6765 1.44 52.9165 1.51333 53.1032 1.66C53.2899 1.80667 53.4099 1.96667 53.4632 2.14C53.4899 2.22 53.7632 3.14 54.2832 4.9C54.8032 6.66 55.4165 8.3 56.1232 9.82C56.3899 9.03333 56.7099 7.77333 57.0832 6.04L57.3832 4.72C57.7432 3.30667 58.0365 2.21333 58.2632 1.44ZM65.5526 1.96C65.4992 3.10667 65.4726 3.92667 65.4726 4.42C65.4726 5.5 65.5059 6.69333 65.5726 8C65.6259 9.54667 65.6526 10.6933 65.6526 11.44C66.1592 11.3733 66.4659 11.34 66.5726 11.34C66.8659 11.34 67.0992 11.4133 67.2726 11.56C67.4459 11.7067 67.5326 11.9333 67.5326 12.24C67.5326 12.44 67.4526 12.5933 67.2926 12.7C67.1326 12.8067 66.8526 12.8867 66.4526 12.94C66.0659 12.98 65.4992 13 64.7526 13C63.9259 13 63.3059 12.9733 62.8926 12.92C62.4792 12.8667 62.1926 12.7667 62.0326 12.62C61.8726 12.46 61.7926 12.2267 61.7926 11.92C61.7926 11.6933 61.8659 11.54 62.0126 11.46C62.1592 11.38 62.3659 11.34 62.6326 11.34L63.0526 11.36L63.7126 11.4L63.6126 9.04C63.5326 7.76 63.4926 6.58667 63.4926 5.52C63.4926 4.94667 63.5126 4.16 63.5526 3.16L63.5926 2.06C63.1392 2.08667 62.7859 2.1 62.5326 2.1C62.2392 2.1 62.0392 2.04667 61.9326 1.94C61.8392 1.83333 61.7926 1.61333 61.7926 1.28C61.7926 0.906666 62.0459 0.666666 62.5526 0.559999C63.0726 0.453332 63.8592 0.399999 64.9126 0.399999C65.7259 0.399999 66.3326 0.426666 66.7326 0.479999C67.1459 0.533333 67.3526 0.653333 67.3526 0.839999C67.3526 1.29333 67.2526 1.59333 67.0526 1.74C66.8659 1.87333 66.4992 1.94 65.9526 1.94L65.5526 1.96ZM70.4135 12.64C69.8268 12.5867 69.4335 12.4467 69.2335 12.22C69.0335 11.98 68.9335 11.7333 68.9335 11.48C68.9335 11.32 68.9668 11.14 69.0335 10.94C69.1002 10.74 69.1668 10.6 69.2335 10.52C69.8602 9.74667 71.0335 8.38667 72.7535 6.44C74.4735 4.49333 75.6268 3.19333 76.2135 2.54L75.4335 2.5C74.7268 2.46 74.1335 2.44 73.6535 2.44C73.4802 2.44 73.0402 2.47333 72.3335 2.54C71.8935 2.60667 71.4935 2.64 71.1335 2.64C70.6135 2.64 70.2335 2.59333 69.9935 2.5C69.7668 2.39333 69.6268 2.27333 69.5735 2.14C69.5335 2.00667 69.5135 1.82 69.5135 1.58C69.5135 1.40667 69.5802 1.23333 69.7135 1.06C69.8602 0.873333 70.0335 0.766666 70.2335 0.739999C70.7668 0.673333 71.4802 0.613333 72.3735 0.559999C73.2668 0.493333 73.9935 0.459999 74.5535 0.459999C76.2468 0.459999 77.4402 0.546666 78.1335 0.72C78.3068 0.773333 78.4535 0.906666 78.5735 1.12C78.6935 1.33333 78.7535 1.5 78.7535 1.62C78.7535 1.78 78.7268 1.94667 78.6735 2.12C78.6335 2.29333 78.5735 2.44 78.4935 2.56C78.3202 2.86667 77.9202 3.42667 77.2935 4.24C76.6668 5.04 76.0002 5.84667 75.2935 6.66C74.5468 7.54 73.7802 8.41333 72.9935 9.28C72.2202 10.1467 71.7202 10.7 71.4935 10.94C71.8668 10.9267 72.4402 10.8933 73.2135 10.84C74.4668 10.76 75.4068 10.72 76.0335 10.72C76.5268 10.72 77.0735 10.7533 77.6735 10.82C78.2868 10.8867 78.7468 11.02 79.0535 11.22C79.1468 11.2733 79.2335 11.4267 79.3135 11.68C79.4068 11.9333 79.4535 12.14 79.4535 12.3C79.4535 12.4733 79.3668 12.6267 79.1935 12.76C79.0335 12.8933 78.8068 12.96 78.5135 12.96C78.4868 12.96 78.1935 12.9333 77.6335 12.88C76.4735 12.7467 75.7068 12.68 75.3335 12.68L73.9135 12.7C73.2735 12.7267 72.7868 12.74 72.4535 12.74C71.6402 12.74 70.9602 12.7067 70.4135 12.64ZM86.1602 0.479999C86.5736 0.479999 86.8669 0.579999 87.0402 0.78C87.2269 0.966667 87.3202 1.24667 87.3202 1.62C87.3069 2.39333 87.3536 3.53333 87.4602 5.04C87.5536 6.10667 87.6002 6.98 87.6002 7.66C87.6002 9.43333 87.2736 10.7867 86.6202 11.72C85.9669 12.64 84.9136 13.1 83.4602 13.1C82.5669 13.1 81.8002 12.84 81.1602 12.32C80.5336 11.7867 80.1536 10.9933 80.0202 9.94V9.82C80.0202 9.55333 80.1336 9.34667 80.3602 9.2C80.5869 9.04 80.8669 8.96 81.2002 8.96C81.6002 8.96 81.8602 9.21333 81.9802 9.72C82.1402 10.28 82.3336 10.68 82.5602 10.92C82.8002 11.1467 83.1136 11.26 83.5002 11.26C84.2869 11.26 84.8136 10.9067 85.0802 10.2C85.3602 9.49333 85.5002 8.48667 85.5002 7.18C85.5002 6.43333 85.4402 5.53333 85.3202 4.48C85.2136 3.36 85.1602 2.52667 85.1602 1.98C85.1602 1.43333 85.2336 1.04667 85.3802 0.819999C85.5402 0.593333 85.8002 0.479999 86.1602 0.479999ZM99.519 12.7C99.3457 12.4733 99.199 12.2267 99.079 11.96C98.959 11.68 98.8323 11.3467 98.699 10.96C98.6723 10.8933 98.5923 10.6933 98.459 10.36C98.339 10.0267 98.199 9.74 98.039 9.5C97.199 9.62 96.5123 9.68 95.979 9.68C95.6857 9.68 95.359 9.67333 94.999 9.66C94.6523 9.63333 94.3923 9.62 94.219 9.62C93.5523 9.56667 93.019 9.54 92.619 9.54C92.459 9.75333 92.319 9.98 92.199 10.22C92.0923 10.46 91.9523 10.82 91.779 11.3C91.539 11.9933 91.3323 12.4867 91.159 12.78C91.039 12.98 90.8057 13.08 90.459 13.08C90.1657 13.08 89.8923 13.02 89.639 12.9C89.399 12.7667 89.279 12.5867 89.279 12.36C89.3857 11.8533 89.5523 11.32 89.779 10.76C90.019 10.1867 90.359 9.42667 90.799 8.48L91.599 6.52C92.039 5.4 92.439 4.44 92.799 3.64C93.1723 2.84 93.659 1.89333 94.259 0.8C94.339 0.639999 94.4723 0.506666 94.659 0.399999C94.8457 0.279999 95.0523 0.219999 95.279 0.219999C95.5323 0.219999 95.7123 0.239999 95.819 0.279999C95.939 0.306666 96.0323 0.36 96.099 0.44C96.1657 0.506666 96.2657 0.653333 96.399 0.88C96.8523 1.58667 97.239 2.31333 97.559 3.06C97.8923 3.80667 98.3123 4.84 98.819 6.16L99.239 7.22C99.6123 8.18 99.9323 8.98667 100.199 9.64C100.479 10.28 100.786 10.8667 101.119 11.4C101.332 11.7467 101.439 11.9867 101.439 12.12C101.439 12.44 101.339 12.6867 101.139 12.86C100.952 13.02 100.706 13.1 100.399 13.1C100.012 13.1 99.719 12.9667 99.519 12.7ZM97.459 7.86C97.2457 7.40667 96.939 6.62 96.539 5.5C96.1257 4.3 95.7123 3.34667 95.299 2.64C95.0457 3.28 94.6723 4.10667 94.179 5.12C93.8457 5.74667 93.4657 6.65333 93.039 7.84C93.8923 7.94667 94.8123 8 95.799 8C96.5057 8 97.059 7.95333 97.459 7.86Z" fill="black"/>
</svg>
