<svg width="100" height="38" viewBox="0 0 100 38" fill="none" xmlns="http://www.w3.org/2000/svg">
<path d="M14.5679 1.44C14.6479 1.16 14.7679 0.933333 14.9279 0.759999C15.0879 0.573332 15.2612 0.479999 15.4479 0.479999C15.9012 0.479999 16.2279 0.566666 16.4279 0.739999C16.6279 0.913333 16.7279 1.21333 16.7279 1.64C16.7279 1.76 16.6346 2.1 16.4479 2.66C16.0346 3.92667 15.5812 5.49333 15.0879 7.36C14.9679 7.78667 14.8679 8.16 14.7879 8.48C14.7212 8.8 14.6612 9.06667 14.6079 9.28C14.2879 10.6533 14.0079 11.6867 13.7679 12.38C13.6879 12.58 13.5479 12.74 13.3479 12.86C13.1479 12.9667 12.9346 13.02 12.7079 13.02C12.4812 13.02 12.2546 12.9733 12.0279 12.88C11.8146 12.7733 11.6612 12.6533 11.5679 12.52C11.1546 11.7067 10.6412 10.6 10.0279 9.2C9.42789 7.78667 8.96122 6.55333 8.62789 5.5C7.80122 7.59333 7.06122 9.61333 6.40789 11.56C6.36789 11.68 6.32122 11.8133 6.26789 11.96C6.22789 12.0933 6.18122 12.2333 6.12789 12.38C6.03456 12.58 5.90122 12.74 5.72789 12.86C5.55456 12.9667 5.36122 13.02 5.14789 13.02C4.90789 13.02 4.67456 12.9733 4.44789 12.88C4.22122 12.7733 4.06789 12.6533 3.98789 12.52C3.81456 12.2267 3.62789 11.7733 3.42789 11.16C3.24122 10.5467 2.98789 9.68667 2.66789 8.58L2.16789 6.88C1.82122 5.77333 1.52122 4.64 1.26789 3.48C1.01456 2.32 0.887891 1.62667 0.887891 1.4C0.887891 1.12 1.02789 0.9 1.30789 0.739999C1.58789 0.566666 1.86789 0.479999 2.14789 0.479999C2.30789 0.479999 2.47456 0.533333 2.64789 0.639999C2.82122 0.733333 2.93456 0.9 2.98789 1.14C3.45456 3.63333 4.14122 6.52667 5.04789 9.82C5.39456 8.99333 5.77456 7.98667 6.18789 6.8C6.61456 5.61333 7.02122 4.46 7.40789 3.34L7.60789 2.74C7.66122 2.54 7.79456 2.38667 8.00789 2.28C8.23456 2.16 8.46122 2.1 8.68789 2.1C8.98122 2.1 9.22122 2.17333 9.40789 2.32C9.59456 2.46667 9.71456 2.62667 9.76789 2.8C9.78122 2.85333 10.0479 3.64667 10.5679 5.18C11.0879 6.71333 11.7079 8.26 12.4279 9.82C12.6946 9.03333 13.0146 7.77333 13.3879 6.04L13.6879 4.72C14.0479 3.30667 14.3412 2.21333 14.5679 1.44ZM21.9095 1.34C21.9095 0.766666 22.3295 0.479999 23.1695 0.479999C23.5295 0.479999 24.2161 0.493333 25.2295 0.52C26.3495 0.573333 27.1961 0.6 27.7695 0.6C28.2361 0.6 28.8028 0.573333 29.4695 0.52C29.9228 0.493333 30.2095 0.479999 30.3295 0.479999C31.0628 0.506666 31.6828 0.64 32.1895 0.88C32.3361 0.946666 32.4561 1.02667 32.5495 1.12C32.6428 1.21333 32.6895 1.36667 32.6895 1.58C32.6895 1.87333 32.5961 2.12667 32.4095 2.34C32.2228 2.54 31.9961 2.64 31.7295 2.64C31.4361 2.64 31.0095 2.6 30.4495 2.52C29.9561 2.42667 29.5228 2.38 29.1495 2.38C28.7895 2.38 28.5161 2.38667 28.3295 2.4C28.2895 2.84 28.2695 3.89333 28.2695 5.56C28.2695 7.54667 28.3295 9.56 28.4495 11.6L28.4895 12.18C28.4895 12.7267 28.1761 13 27.5495 13C27.0561 13 26.7228 12.8867 26.5495 12.66C26.3761 12.42 26.2895 12.06 26.2895 11.58C26.2895 10.6333 26.2628 9.45333 26.2095 8.04C26.1561 6.86667 26.1295 6.03333 26.1295 5.54C26.1295 5.20667 26.1695 4.18667 26.2495 2.48L23.9095 2.5C23.1628 2.5 22.6428 2.43333 22.3495 2.3C22.0561 2.15333 21.9095 1.83333 21.9095 1.34ZM41.0604 7.7C42.2204 9.67333 43.3071 11.24 44.3204 12.4C44.4271 12.5067 44.4804 12.6267 44.4804 12.76C44.4804 12.9333 44.3737 13.08 44.1604 13.2C43.9471 13.3333 43.7004 13.4 43.4204 13.4C43.0071 13.4 42.5604 13.2267 42.0804 12.88C41.7337 12.64 41.4137 12.2867 41.1204 11.82C40.8271 11.34 40.4937 10.7267 40.1204 9.98L39.7804 9.3C39.4337 8.67333 39.2271 8.30667 39.1604 8.2C38.8671 8.32 38.5271 8.40667 38.1404 8.46C37.7537 8.51333 37.2804 8.56 36.7204 8.6C36.7471 10.3067 36.7604 11.5 36.7604 12.18C36.7604 12.4333 36.6671 12.64 36.4804 12.8C36.2937 12.9467 36.0604 13.02 35.7804 13.02C35.4337 13.02 35.1671 12.88 34.9804 12.6C34.7937 12.2267 34.7004 11.6467 34.7004 10.86L34.7204 9.4C34.7204 8.49333 34.7404 7.63333 34.7804 6.82C34.8071 5.75333 34.8204 4.96667 34.8204 4.46L34.8404 3.44C34.8404 3.13333 34.8204 2.82 34.7804 2.5C34.5671 2.43333 34.3804 2.33333 34.2204 2.2C34.0604 2.05333 33.9804 1.89333 33.9804 1.72C33.9804 1.38667 34.1004 1.13333 34.3404 0.959999C34.5937 0.773332 34.9071 0.653333 35.2804 0.6C36.3604 0.426666 37.4137 0.34 38.4404 0.34C40.1871 0.34 41.6337 0.666666 42.7804 1.32C43.9271 1.97333 44.5004 2.96667 44.5004 4.3C44.5004 4.71333 44.4071 5.11333 44.2204 5.5C44.0471 5.87333 43.8071 6.18667 43.5004 6.44C42.7004 7.06667 41.8871 7.48667 41.0604 7.7ZM42.3804 4.24C42.3804 3.6 42.0404 3.08 41.3604 2.68C40.6937 2.26667 39.7337 2.06 38.4804 2.06C37.9337 2.06 37.3737 2.12667 36.8004 2.26C36.8271 2.74 36.8404 3.08 36.8404 3.28C36.8404 3.68 36.8137 4.25333 36.7604 5C36.7337 5.74667 36.7204 6.34667 36.7204 6.8C37.6137 6.8 38.4671 6.68 39.2804 6.44C39.8671 6.26667 40.3604 6.1 40.7604 5.94C41.1604 5.78 41.5271 5.56 41.8604 5.28C42.2071 4.98667 42.3804 4.64 42.3804 4.24ZM55.7846 12.7C55.6113 12.4733 55.4646 12.2267 55.3446 11.96C55.2246 11.68 55.0979 11.3467 54.9646 10.96C54.9379 10.8933 54.8579 10.6933 54.7246 10.36C54.6046 10.0267 54.4646 9.74 54.3046 9.5C53.4646 9.62 52.7779 9.68 52.2446 9.68C51.9513 9.68 51.6246 9.67333 51.2646 9.66C50.9179 9.63333 50.6579 9.62 50.4846 9.62C49.8179 9.56667 49.2846 9.54 48.8846 9.54C48.7246 9.75333 48.5846 9.98 48.4646 10.22C48.3579 10.46 48.2179 10.82 48.0446 11.3C47.8046 11.9933 47.5979 12.4867 47.4246 12.78C47.3046 12.98 47.0713 13.08 46.7246 13.08C46.4313 13.08 46.1579 13.02 45.9046 12.9C45.6646 12.7667 45.5446 12.5867 45.5446 12.36C45.6513 11.8533 45.8179 11.32 46.0446 10.76C46.2846 10.1867 46.6246 9.42667 47.0646 8.48L47.8646 6.52C48.3046 5.4 48.7046 4.44 49.0646 3.64C49.4379 2.84 49.9246 1.89333 50.5246 0.8C50.6046 0.639999 50.7379 0.506666 50.9246 0.399999C51.1113 0.279999 51.3179 0.219999 51.5446 0.219999C51.7979 0.219999 51.9779 0.239999 52.0846 0.279999C52.2046 0.306666 52.2979 0.36 52.3646 0.44C52.4313 0.506666 52.5313 0.653333 52.6646 0.88C53.1179 1.58667 53.5046 2.31333 53.8246 3.06C54.1579 3.80667 54.5779 4.84 55.0846 6.16L55.5046 7.22C55.8779 8.18 56.1979 8.98667 56.4646 9.64C56.7446 10.28 57.0513 10.8667 57.3846 11.4C57.5979 11.7467 57.7046 11.9867 57.7046 12.12C57.7046 12.44 57.6046 12.6867 57.4046 12.86C57.2179 13.02 56.9713 13.1 56.6646 13.1C56.2779 13.1 55.9846 12.9667 55.7846 12.7ZM53.7246 7.86C53.5113 7.40667 53.2046 6.62 52.8046 5.5C52.3913 4.3 51.9779 3.34667 51.5646 2.64C51.3113 3.28 50.9379 4.10667 50.4446 5.12C50.1113 5.74667 49.7313 6.65333 49.3046 7.84C50.1579 7.94667 51.0779 8 52.0646 8C52.7713 8 53.3246 7.95333 53.7246 7.86ZM70.2376 11.48C70.3709 11.5467 70.4709 11.6333 70.5376 11.74C70.6176 11.8467 70.6576 12 70.6576 12.2C70.6576 12.4533 70.5576 12.66 70.3576 12.82C70.1709 12.9667 69.9509 13.04 69.6976 13.04C69.4042 13.04 69.0709 12.9667 68.6976 12.82C67.9509 12.4867 67.2176 11.8733 66.4976 10.98C65.7909 10.0733 64.9376 8.77333 63.9376 7.08C63.1776 7.66667 62.4042 8.21333 61.6176 8.72C61.6176 9 61.6242 9.32667 61.6376 9.7C61.6642 10.06 61.6776 10.3267 61.6776 10.5C61.7042 11.2733 61.7176 11.7867 61.7176 12.04C61.7176 12.2667 61.6442 12.4867 61.4976 12.7C61.3509 12.9 61.1309 13 60.8376 13C60.4109 13 60.1042 12.9333 59.9176 12.8C59.7309 12.6533 59.6176 12.4467 59.5776 12.18C59.4709 11.5133 59.4176 10.8733 59.4176 10.26C59.4176 9.56667 59.4709 8.56667 59.5776 7.26C59.6842 6.00667 59.7376 5.06667 59.7376 4.44C59.7376 4.2 59.7242 3.85333 59.6976 3.4C59.6842 3.04 59.6442 2.70667 59.5776 2.4C59.5242 1.97333 59.4976 1.67333 59.4976 1.5C59.4976 1.07333 59.5909 0.766666 59.7776 0.579999C59.9642 0.393332 60.2509 0.299999 60.6376 0.299999C60.9309 0.299999 61.1709 0.386666 61.3576 0.559999C61.5576 0.72 61.6709 0.94 61.6976 1.22C61.7642 2.35333 61.7976 3.22667 61.7976 3.84C61.7842 4.17333 61.7576 4.65333 61.7176 5.28C61.6909 5.89333 61.6642 6.28 61.6376 6.44C62.0909 6.18667 62.9776 5.46 64.2976 4.26C65.6309 3.04667 66.5776 2.09333 67.1376 1.4L67.3976 1.1C67.6109 0.819999 67.7909 0.626666 67.9376 0.52C68.0842 0.413333 68.2842 0.359999 68.5376 0.359999C68.7909 0.359999 69.0176 0.446666 69.2176 0.62C69.4309 0.779999 69.5376 0.973332 69.5376 1.2C69.5376 1.64 69.3109 2.08667 68.8576 2.54C67.7509 3.68667 66.6442 4.75333 65.5376 5.74C67.0976 8.66 68.6642 10.5733 70.2376 11.48ZM81.991 2.26C82.191 2.5 82.331 2.69333 82.411 2.84C82.491 2.98667 82.531 3.12667 82.531 3.26C82.531 3.42 82.4243 3.60667 82.211 3.82C82.011 4.03333 81.811 4.14 81.611 4.14C81.3443 4.14 81.131 4.1 80.971 4.02C80.811 3.94 80.6777 3.81333 80.571 3.64C80.3177 3.24 80.0243 2.88667 79.691 2.58C79.3577 2.26 78.911 2.1 78.351 2.1C77.8043 2.1 77.191 2.22667 76.511 2.48C75.831 2.73333 75.331 3.04667 75.011 3.42C74.291 4.3 73.931 5.46667 73.931 6.92C73.931 8.08 74.291 9.07333 75.011 9.9C75.771 10.7533 76.731 11.18 77.891 11.18C78.4243 11.18 79.0043 11.0867 79.631 10.9C80.271 10.7 80.7777 10.38 81.151 9.94H81.131C81.371 9.68667 81.671 9.56 82.031 9.56C82.2443 9.56 82.4443 9.65333 82.631 9.84C82.831 10.0267 82.931 10.2133 82.931 10.4C82.931 10.6 82.8977 10.78 82.831 10.94C82.7777 11.0867 82.671 11.2533 82.511 11.44C81.9643 12.04 81.2643 12.46 80.411 12.7C79.571 12.9267 78.611 13.04 77.531 13.04C76.6377 13.04 75.7777 12.8267 74.951 12.4C74.1377 11.9733 73.4643 11.4333 72.931 10.78C72.6643 10.3933 72.4043 9.84 72.151 9.12C71.911 8.38667 71.791 7.79333 71.791 7.34C71.791 6.18 71.9643 5.08 72.311 4.04C72.671 2.98667 73.2043 2.14667 73.911 1.52C74.3777 1.09333 75.051 0.773333 75.931 0.559999C76.811 0.346666 77.6177 0.24 78.351 0.24C78.9377 0.24 79.4377 0.326667 79.851 0.5C80.2777 0.66 80.6443 0.879999 80.951 1.16C81.2577 1.42667 81.6043 1.79333 81.991 2.26ZM86.2426 13.06C85.8426 13.06 85.5626 12.94 85.4026 12.7C85.2559 12.46 85.1826 12.12 85.1826 11.68L85.2026 9.08L85.1826 8.68C85.1159 7.41333 85.0826 6.36667 85.0826 5.54L85.1626 3.16L85.1826 1.96C85.1826 1.56 85.1959 1.25333 85.2226 1.04C85.2492 0.826666 85.3359 0.653333 85.4826 0.52C85.6292 0.386667 85.8626 0.32 86.1826 0.32C86.5826 0.32 86.8692 0.42 87.0426 0.62C87.2159 0.806666 87.3026 1.13333 87.3026 1.6L87.2826 2.02C87.2292 3.08667 87.2026 3.89333 87.2026 4.44C87.2026 5.04 87.2159 5.74667 87.2426 6.56C87.2692 7.36 87.2892 7.92667 87.3026 8.26C87.3692 9.68667 87.4026 10.9133 87.4026 11.94C87.4026 12.34 87.3159 12.6267 87.1426 12.8C86.9826 12.9733 86.6826 13.06 86.2426 13.06ZM98.5379 10.46C98.7912 10.46 98.9779 10.56 99.0979 10.76C99.2312 10.9467 99.2979 11.1533 99.2979 11.38C99.2979 11.66 99.2512 11.86 99.1579 11.98C99.0779 12.0867 98.9112 12.2 98.6579 12.32C98.1246 12.5733 97.5246 12.7533 96.8579 12.86C96.2046 12.9667 95.3846 13.02 94.3979 13.02C93.2112 13.02 92.2979 12.82 91.6579 12.42C91.0312 12.0067 90.6179 11.4933 90.4179 10.88C90.2179 10.2667 90.1179 9.55333 90.1179 8.74V7.48C90.1179 6.61333 90.1379 5.78 90.1779 4.98C90.2312 4.18 90.3312 3.24667 90.4779 2.18C90.5712 1.54 90.8246 1.08 91.2379 0.8C91.6512 0.506666 92.1046 0.359999 92.5979 0.359999C93.1312 0.359999 93.8646 0.346666 94.7979 0.32L96.5379 0.299999C97.2446 0.299999 97.7646 0.319999 98.0979 0.359999C98.4979 0.439999 98.7912 0.533333 98.9779 0.639999C99.1779 0.733333 99.2779 0.9 99.2779 1.14C99.2779 1.40667 99.1846 1.66667 98.9979 1.92C98.8246 2.17333 98.5579 2.3 98.1979 2.3C97.7846 2.3 97.1912 2.27333 96.4179 2.22C95.6446 2.16667 95.0646 2.14 94.6779 2.14C94.1979 2.14 93.8112 2.16 93.5179 2.2C93.1446 2.22667 92.8779 2.27333 92.7179 2.34C92.5579 2.40667 92.4646 2.52 92.4379 2.68C92.2512 4.05333 92.1579 5.06667 92.1579 5.72C92.4512 5.76 92.7646 5.78 93.0979 5.78C93.5246 5.78 94.2379 5.73333 95.2379 5.64C95.9712 5.57333 96.5779 5.54 97.0579 5.54C97.3646 5.54 97.5912 5.59333 97.7379 5.7C97.8846 5.80667 97.9579 5.95333 97.9579 6.14C97.9579 6.43333 97.8846 6.66 97.7379 6.82C97.5912 6.98 97.3246 7.1 96.9379 7.18C96.4712 7.27333 95.8646 7.34667 95.1179 7.4C94.3846 7.45333 93.6846 7.48 93.0179 7.48C92.7646 7.48 92.4512 7.46667 92.0779 7.44C92.0779 8.32 92.1179 9.01333 92.1979 9.52C92.2912 10.0267 92.4779 10.42 92.7579 10.7C93.0512 10.98 93.4912 11.12 94.0779 11.12C95.3979 11.12 96.4512 11 97.2379 10.76C97.7979 10.56 98.2312 10.46 98.5379 10.46ZM9.67781 31.7C10.1445 32.4867 10.6111 33.1867 11.0778 33.8C11.5578 34.4 12.1845 35.14 12.9578 36.02C13.0511 36.1133 13.0978 36.22 13.0978 36.34C13.0978 36.5267 12.9911 36.6867 12.7778 36.82C12.5778 36.9533 12.3311 37.02 12.0378 37.02C11.6245 37.02 11.1778 36.8467 10.6978 36.5C10.2711 36.1933 9.89115 35.7867 9.55781 35.28C9.22448 34.7733 8.83781 34.1133 8.39781 33.3C8.05115 32.6733 7.84448 32.3067 7.77781 32.2C7.25781 32.4133 6.44448 32.5467 5.33781 32.6C5.33781 33.0533 5.37781 33.6667 5.45781 34.44C5.53781 35.24 5.57781 35.82 5.57781 36.18C5.57781 36.42 5.45781 36.62 5.21781 36.78C4.99115 36.94 4.73115 37.02 4.43781 37.02C4.09115 37.02 3.82448 36.88 3.63781 36.6C3.45115 36.2267 3.33115 35.78 3.27781 35.26C3.22448 34.74 3.19781 34.12 3.19781 33.4C3.19781 32.64 3.24448 31.78 3.33781 30.82C3.41781 29.7533 3.45781 28.9667 3.45781 28.46C3.45781 28.0467 3.41781 27.4933 3.33781 26.8C3.32448 26.68 3.30448 26.4733 3.27781 26.18C3.25115 25.8867 3.23781 25.62 3.23781 25.38C3.23781 25.1933 3.30448 25.0333 3.43781 24.9C3.58448 24.7533 3.73781 24.6533 3.89781 24.6C4.97781 24.4267 6.03115 24.34 7.05781 24.34C8.80448 24.34 10.2511 24.6667 11.3978 25.32C12.5445 25.9733 13.1178 26.9667 13.1178 28.3C13.1178 28.7133 13.0245 29.1133 12.8378 29.5C12.6645 29.8733 12.4245 30.1867 12.1178 30.44C11.3045 31.0667 10.4911 31.4867 9.67781 31.7ZM11.0178 28.24C11.0178 27.6 10.6778 27.08 9.99781 26.68C9.31781 26.2667 8.35115 26.06 7.09781 26.06C6.53781 26.06 5.98448 26.1267 5.43781 26.26L5.45781 27.28C5.45781 27.8667 5.43781 28.44 5.39781 29C5.35781 29.56 5.33781 30.16 5.33781 30.8C5.56448 30.7467 5.80448 30.7133 6.05781 30.7C6.31115 30.6733 6.47781 30.6533 6.55781 30.64C7.14448 30.5867 7.59781 30.52 7.91781 30.44C8.51781 30.2533 9.01115 30.0867 9.39781 29.94C9.79781 29.78 10.1645 29.56 10.4978 29.28C10.8445 28.9867 11.0178 28.64 11.0178 28.24ZM20.7681 24.28C21.6615 24.28 22.4748 24.3933 23.2081 24.62C23.9415 24.8333 24.5415 25.1533 25.0081 25.58C25.8481 26.34 26.4348 27.1733 26.7681 28.08C27.1148 28.9733 27.2881 30.12 27.2881 31.52C27.2881 31.8133 27.2481 32.08 27.1681 32.32C27.1015 32.56 26.9881 32.8667 26.8281 33.24C26.6281 33.6533 26.5081 33.98 26.4681 34.22C26.2015 34.6867 25.7615 35.1333 25.1481 35.56C24.5481 35.9867 23.8948 36.3333 23.1881 36.6C22.4815 36.8667 21.8615 37 21.3281 37C18.7548 37 16.9215 36.12 15.8281 34.36C15.5215 33.8667 15.2815 33.3533 15.1081 32.82C14.9481 32.2867 14.8681 31.7667 14.8681 31.26C14.8681 29.9 15.1081 28.72 15.5881 27.72C16.0815 26.7067 16.7615 25.92 17.6281 25.36C18.1481 25.0533 18.6881 24.8 19.2481 24.6C19.8215 24.3867 20.3281 24.28 20.7681 24.28ZM16.9481 31.32C16.9481 32.04 17.1081 32.6333 17.4281 33.1C17.7615 33.5667 18.2681 34.0733 18.9481 34.62C19.5081 34.8333 19.8881 34.9733 20.0881 35.04C20.2881 35.0933 20.5148 35.12 20.7681 35.12C22.1148 35.12 23.1881 34.7533 23.9881 34.02C24.7881 33.2867 25.1881 32.28 25.1881 31C25.1881 29.9867 25.0748 29.1867 24.8481 28.6C24.6215 28.0133 24.2148 27.4867 23.6281 27.02C23.3215 26.7667 22.9281 26.58 22.4481 26.46C21.9815 26.34 21.4748 26.28 20.9281 26.28C20.1015 26.28 19.3881 26.5267 18.7881 27.02C18.1881 27.5 17.7281 28.1267 17.4081 28.9C17.1015 29.6733 16.9481 30.48 16.9481 31.32ZM30.3803 36.64C29.7936 36.5867 29.4003 36.4467 29.2003 36.22C29.0003 35.98 28.9003 35.7333 28.9003 35.48C28.9003 35.32 28.9336 35.14 29.0003 34.94C29.067 34.74 29.1336 34.6 29.2003 34.52C29.827 33.7467 31.0003 32.3867 32.7203 30.44C34.4403 28.4933 35.5936 27.1933 36.1803 26.54L35.4003 26.5C34.6936 26.46 34.1003 26.44 33.6203 26.44C33.447 26.44 33.007 26.4733 32.3003 26.54C31.8603 26.6067 31.4603 26.64 31.1003 26.64C30.5803 26.64 30.2003 26.5933 29.9603 26.5C29.7336 26.3933 29.5936 26.2733 29.5403 26.14C29.5003 26.0067 29.4803 25.82 29.4803 25.58C29.4803 25.4067 29.547 25.2333 29.6803 25.06C29.827 24.8733 30.0003 24.7667 30.2003 24.74C30.7336 24.6733 31.447 24.6133 32.3403 24.56C33.2336 24.4933 33.9603 24.46 34.5203 24.46C36.2136 24.46 37.407 24.5467 38.1003 24.72C38.2736 24.7733 38.4203 24.9067 38.5403 25.12C38.6603 25.3333 38.7203 25.5 38.7203 25.62C38.7203 25.78 38.6936 25.9467 38.6403 26.12C38.6003 26.2933 38.5403 26.44 38.4603 26.56C38.287 26.8667 37.887 27.4267 37.2603 28.24C36.6336 29.04 35.967 29.8467 35.2603 30.66C34.5136 31.54 33.747 32.4133 32.9603 33.28C32.187 34.1467 31.687 34.7 31.4603 34.94C31.8336 34.9267 32.407 34.8933 33.1803 34.84C34.4336 34.76 35.3736 34.72 36.0003 34.72C36.4936 34.72 37.0403 34.7533 37.6403 34.82C38.2536 34.8867 38.7136 35.02 39.0203 35.22C39.1136 35.2733 39.2003 35.4267 39.2803 35.68C39.3736 35.9333 39.4203 36.14 39.4203 36.3C39.4203 36.4733 39.3336 36.6267 39.1603 36.76C39.0003 36.8933 38.7736 36.96 38.4803 36.96C38.4536 36.96 38.1603 36.9333 37.6003 36.88C36.4403 36.7467 35.6736 36.68 35.3003 36.68L33.8803 36.7C33.2403 36.7267 32.7536 36.74 32.4203 36.74C31.607 36.74 30.927 36.7067 30.3803 36.64ZM52.627 24.36C52.8137 24.36 53.0404 24.4867 53.307 24.74C53.587 24.98 53.727 25.1867 53.727 25.36C53.727 26.1733 53.7004 27.2867 53.647 28.7C53.6337 29.0467 53.6204 29.4667 53.607 29.96C53.5937 30.44 53.587 31 53.587 31.64C53.587 32.7067 53.6004 33.6067 53.627 34.34C53.667 35.06 53.747 35.6533 53.867 36.12C53.8537 36.44 53.727 36.6733 53.487 36.82C53.247 36.9533 53.0004 37.02 52.747 37.02C52.227 37.02 51.8937 36.84 51.747 36.48C51.6137 36.12 51.547 35.58 51.547 34.86C51.547 31.9267 51.5804 29.56 51.647 27.76C51.3404 28.0933 51.047 28.4733 50.767 28.9C50.487 29.3267 50.1404 29.8867 49.727 30.58C49.1937 31.4733 48.7604 32.1533 48.427 32.62C48.2537 32.8333 48.1004 32.98 47.967 33.06C47.8337 33.14 47.6337 33.18 47.367 33.18C47.0337 33.18 46.7737 33.1 46.587 32.94C46.4137 32.78 46.207 32.52 45.967 32.16C45.6204 31.64 45.0737 30.74 44.327 29.46L43.267 27.72C43.267 29.9067 43.307 31.7 43.387 33.1C43.4537 33.9667 43.487 34.88 43.487 35.84C43.487 36.16 43.4004 36.4333 43.227 36.66C43.067 36.8733 42.8204 36.98 42.487 36.98C42.127 36.98 41.8404 36.9133 41.627 36.78C41.427 36.6467 41.3204 36.4467 41.307 36.18C41.3204 35.9533 41.327 35.58 41.327 35.06C41.327 33.3133 41.3004 31.6867 41.247 30.18L41.207 28.78C41.1937 28.3667 41.1804 27.8867 41.167 27.34C41.1537 26.78 41.147 26.1733 41.147 25.52C41.147 24.72 41.5804 24.32 42.447 24.32C42.7137 24.32 42.9804 24.3867 43.247 24.52C43.527 24.6533 43.7337 24.8467 43.867 25.1C44.0937 25.58 44.627 26.5 45.467 27.86C46.307 29.2067 46.9337 30.1867 47.347 30.8C47.627 30.44 47.8804 30.0667 48.107 29.68C48.347 29.2933 48.547 28.96 48.707 28.68C49.2004 27.88 49.7337 27.1267 50.307 26.42C50.747 25.8867 51.107 25.3933 51.387 24.94C51.5204 24.78 51.6937 24.6467 51.907 24.54C52.1337 24.42 52.3737 24.36 52.627 24.36ZM62.8325 37.02C61.9525 37.02 61.1458 36.9133 60.4125 36.7C59.6792 36.4733 59.0792 36.1467 58.6125 35.72C57.7592 34.96 57.1592 34.1333 56.8125 33.24C56.4792 32.3333 56.3125 31.18 56.3125 29.78C56.3125 29.4867 56.3525 29.2133 56.4325 28.96C56.5258 28.6933 56.6458 28.4 56.7925 28.08C56.8325 27.9867 56.8925 27.84 56.9725 27.64C57.0658 27.4267 57.1258 27.2333 57.1525 27.06C57.4058 26.5933 57.8325 26.1467 58.4325 25.72C59.0458 25.2933 59.7058 24.9533 60.4125 24.7C61.1192 24.4333 61.7392 24.3 62.2725 24.3C64.8458 24.3 66.6858 25.18 67.7925 26.94C68.4192 27.9667 68.7325 29 68.7325 30.04C68.7325 31.3867 68.4858 32.5667 67.9925 33.58C67.5125 34.5933 66.8458 35.38 65.9925 35.94C65.4592 36.26 64.9125 36.52 64.3525 36.72C63.7925 36.92 63.2858 37.02 62.8325 37.02ZM58.3925 31.26C58.3792 31.9933 58.5325 32.6 58.8525 33.08C59.1858 33.5467 59.7058 34.06 60.4125 34.62C60.9458 34.82 61.3192 34.9533 61.5325 35.02C61.7458 35.0867 61.9792 35.12 62.2325 35.12C63.0992 35.12 63.8658 34.94 64.5325 34.58C65.1992 34.22 65.7125 33.7267 66.0725 33.1C66.4458 32.4733 66.6325 31.7733 66.6325 31C66.6325 29.9867 66.5192 29.1867 66.2925 28.6C66.0658 28.0133 65.6592 27.4867 65.0725 27.02C64.7658 26.7667 64.3725 26.58 63.8925 26.46C63.4258 26.34 62.9258 26.28 62.3925 26.28C61.1125 26.28 60.1192 26.7333 59.4125 27.64C58.7192 28.5333 58.3792 29.74 58.3925 31.26ZM84.2261 25.44C84.3061 25.16 84.4261 24.9333 84.5861 24.76C84.7461 24.5733 84.9194 24.48 85.1061 24.48C85.5594 24.48 85.8861 24.5667 86.0861 24.74C86.2861 24.9133 86.3861 25.2133 86.3861 25.64C86.3861 25.76 86.2928 26.1 86.1061 26.66C85.6928 27.9267 85.2394 29.4933 84.7461 31.36C84.6261 31.7867 84.5261 32.16 84.4461 32.48C84.3794 32.8 84.3194 33.0667 84.2661 33.28C83.9461 34.6533 83.6661 35.6867 83.4261 36.38C83.3461 36.58 83.2061 36.74 83.0061 36.86C82.8061 36.9667 82.5928 37.02 82.3661 37.02C82.1394 37.02 81.9128 36.9733 81.6861 36.88C81.4728 36.7733 81.3194 36.6533 81.2261 36.52C80.8128 35.7067 80.2994 34.6 79.6861 33.2C79.0861 31.7867 78.6194 30.5533 78.2861 29.5C77.4594 31.5933 76.7194 33.6133 76.0661 35.56C76.0261 35.68 75.9794 35.8133 75.9261 35.96C75.8861 36.0933 75.8394 36.2333 75.7861 36.38C75.6928 36.58 75.5594 36.74 75.3861 36.86C75.2128 36.9667 75.0194 37.02 74.8061 37.02C74.5661 37.02 74.3328 36.9733 74.1061 36.88C73.8794 36.7733 73.7261 36.6533 73.6461 36.52C73.4728 36.2267 73.2861 35.7733 73.0861 35.16C72.8994 34.5467 72.6461 33.6867 72.3261 32.58L71.8261 30.88C71.4794 29.7733 71.1794 28.64 70.9261 27.48C70.6728 26.32 70.5461 25.6267 70.5461 25.4C70.5461 25.12 70.6861 24.9 70.9661 24.74C71.2461 24.5667 71.5261 24.48 71.8061 24.48C71.9661 24.48 72.1328 24.5333 72.3061 24.64C72.4794 24.7333 72.5928 24.9 72.6461 25.14C73.1128 27.6333 73.7994 30.5267 74.7061 33.82C75.0528 32.9933 75.4328 31.9867 75.8461 30.8C76.2728 29.6133 76.6794 28.46 77.0661 27.34L77.2661 26.74C77.3194 26.54 77.4528 26.3867 77.6661 26.28C77.8928 26.16 78.1194 26.1 78.3461 26.1C78.6394 26.1 78.8794 26.1733 79.0661 26.32C79.2528 26.4667 79.3728 26.6267 79.4261 26.8C79.4394 26.8533 79.7061 27.6467 80.2261 29.18C80.7461 30.7133 81.3661 32.26 82.0861 33.82C82.3528 33.0333 82.6728 31.7733 83.0461 30.04L83.3461 28.72C83.7061 27.3067 83.9994 26.2133 84.2261 25.44ZM98.0555 25.26C98.0555 25.5 97.8488 25.8533 97.4355 26.32C97.1421 26.6533 96.5021 27.5667 95.5155 29.06C94.6755 30.3267 94.0288 31.2667 93.5755 31.88C93.5888 33.3067 93.6421 34.3533 93.7355 35.02C93.7755 35.42 93.7955 35.7067 93.7955 35.88C93.7955 36.32 93.7155 36.62 93.5555 36.78C93.4088 36.9267 93.1488 37 92.7755 37C92.4955 37 92.2288 36.92 91.9755 36.76C91.7355 36.5867 91.6155 36.38 91.6155 36.14C91.6155 35.4467 91.5955 34.1533 91.5555 32.26C91.5555 32.1667 91.4355 31.92 91.1955 31.52C90.9821 31.1467 90.4555 30.4267 89.6155 29.36C88.8021 28.3067 88.1888 27.48 87.7755 26.88C87.3755 26.2667 87.1755 25.8 87.1755 25.48C87.1755 25.2 87.3021 24.98 87.5555 24.82C87.8221 24.6467 88.1088 24.56 88.4155 24.56C88.8021 24.56 89.1155 24.74 89.3555 25.1C89.4888 25.2867 89.6955 25.6467 89.9755 26.18C90.1755 26.5667 90.4021 26.9733 90.6555 27.4C90.9088 27.8267 91.1421 28.1733 91.3555 28.44L91.9155 29.12C92.3155 29.6 92.5155 29.8467 92.5155 29.86C92.9155 29.46 93.2755 29.02 93.5955 28.54C93.9155 28.0467 94.3021 27.42 94.7555 26.66L95.5155 25.42L95.8555 24.9C95.9755 24.74 96.1155 24.6133 96.2755 24.52C96.4355 24.4267 96.6555 24.38 96.9355 24.38C97.1888 24.38 97.4355 24.4533 97.6755 24.6C97.9288 24.7467 98.0555 24.9667 98.0555 25.26Z" fill="black"/>
</svg>
