<svg width="695" height="296" viewBox="0 0 695 296" fill="none" xmlns="http://www.w3.org/2000/svg">
<path d="M673.411 59.7649C673.411 59.7649 656.105 29.9084 502.068 29.9084C319.588 29.9084 158.183 6.74395 119.459 59.9365C92.2155 97.3428 70.455 220.715 109.864 263.612C139.506 296.043 272.64 307.882 373.047 279.742C473.454 251.601 604.017 229.123 656.105 232.04C708.193 234.785 701.511 83.6157 673.411 59.7649Z" fill="black"/>
<path d="M120.499 33.987C120.61 34.3116 120.559 34.6918 120.508 35.072C120.35 35.67 119.919 35.9987 119.377 36.0028C119.215 36.0583 119.16 35.8959 119.104 35.7336C119.266 35.6781 119.428 35.6226 119.428 35.6226C120.832 34.961 120.165 33.0129 118.919 33.0765C119.188 32.8032 119.892 32.7436 120.165 33.0129C120.221 33.1752 120.387 33.6623 120.499 33.987ZM118.373 32.538C117.78 32.9223 117.516 33.7381 117.576 34.443C117.632 34.6053 117.525 34.8231 117.581 34.9855C117.636 35.1478 117.692 35.3102 117.692 35.3102C117.692 35.3102 117.692 35.3102 117.747 35.4725C117.914 35.9596 118.08 36.4466 118.516 36.6603C118.951 36.8741 119.331 36.9255 119.873 36.9214C120.359 36.755 120.79 36.4262 121.003 35.9906C121.216 35.555 121.212 35.0124 121.263 34.6323C121.258 34.0898 121.198 33.3849 120.869 32.9533C120.156 31.9278 119.072 31.936 118.373 32.538Z" fill="black"/>
<path d="M115.289 7.11556C115.738 8.95685 116.025 10.8536 116.474 12.6949C116.76 14.5917 117.047 16.4884 117.116 18.2783C117.126 19.3634 117.135 20.4484 117.088 21.3711C117.093 21.9136 116.935 22.5116 116.884 22.8917C116.94 23.0541 116.833 23.2719 116.727 23.4897C115.584 16.4452 114.279 9.45611 112.812 2.52251C112.701 2.19782 112.589 1.87312 112.316 1.6039C112.478 1.54843 112.423 1.38608 112.585 1.3306C114.224 2.94593 114.946 5.05645 115.289 7.11556ZM112.687 0.570271C112.631 0.407924 112.307 0.518872 112.145 0.574345C111.876 0.847638 111.608 1.12093 111.557 1.5011C110.853 1.56064 110.098 2.00036 110.213 2.86757C111.791 10.1259 113.152 17.2773 114.406 24.6465C114.633 25.8384 115.772 25.9926 116.527 25.5529C117.013 25.3865 117.389 24.8954 117.384 24.3529C118.176 21.9054 117.987 18.7058 117.696 16.2665C117.4 13.2848 116.942 10.3584 116.104 7.38071C115.595 4.83456 114.868 2.18153 112.687 0.570271Z" fill="black"/>
<path d="M107.92 33.2133C108.133 32.7777 108.29 32.1797 108.453 32.1242C109.045 31.74 109.212 32.227 109.323 32.5517C108.943 32.5003 108.295 32.7222 107.92 33.2133ZM98.8504 37.4048C98.2994 36.3239 98.1792 34.9142 97.8969 33.5599C97.6146 32.2057 97.3878 31.0138 96.9434 29.715C97.1055 29.6595 97.2676 29.604 97.4298 29.5486C97.7767 32.1502 98.559 34.9656 99.7165 37.2898C100.156 38.0461 100.703 38.5845 101.194 38.9606C100.328 39.0756 99.4014 38.4858 98.8504 37.4048ZM95.5092 20.2311C96.8106 20.3299 97.2551 21.6287 97.2641 22.7137C97.3843 24.1234 97.3424 25.5886 97.4626 26.9983C97.1384 27.1093 96.9763 27.1648 96.652 27.2757C96.4253 26.0838 96.092 25.1097 95.8652 23.9178C95.8051 23.2129 95.5273 22.4012 95.3051 21.7518C95.0829 21.1024 94.592 20.7263 94.2123 20.6749C94.4809 20.4016 94.9117 20.0729 95.5092 20.2311ZM105.568 24.2247C106.439 24.6522 106.175 25.468 105.364 25.7453C105.249 24.8781 104.591 24.015 103.618 24.3478C103.456 24.4033 103.294 24.4588 103.294 24.4588C103.943 24.2369 104.753 23.9595 105.568 24.2247ZM91.5623 53.6818C92.6688 56.3862 93.6132 59.1461 94.3399 61.7992C94.6176 62.6109 95.6267 66.6182 94.0565 66.7928C94.1076 66.4126 94.1586 66.0324 94.0475 65.7077C93.7141 64.7336 93.4364 63.9219 93.1031 62.9478C92.1541 59.6454 91.3673 56.2875 90.7426 52.8742C90.8492 52.6563 90.9557 52.4385 91.0623 52.2207C91.0668 52.7632 91.3956 53.1948 91.5623 53.6818ZM89.8845 60.422C89.5977 58.5253 89.8527 56.6244 90.1078 54.7236C90.3901 56.0778 90.7279 57.5944 91.0658 59.111C91.2925 60.3029 91.737 61.6017 92.1258 62.7381C92.348 63.3875 92.5703 64.0369 92.7925 64.6863C92.9036 65.011 93.0147 65.3357 93.0702 65.498C93.1258 65.6604 93.2369 65.9851 93.2924 66.1474C93.348 66.3098 93.4035 66.4721 93.2414 66.5276L93.0238 66.4207C92.9682 66.2584 92.695 65.9892 92.5329 66.0446C91.0602 64.9164 90.1714 62.3188 89.8845 60.422ZM86.71 43.7354C86.7655 43.8977 86.659 44.1155 86.5524 44.3334C86.5478 43.7909 86.5433 43.2483 86.5388 42.7058C86.5206 40.5358 86.5024 38.3657 87.0261 36.1916C87.2438 36.2984 87.517 36.5677 87.7902 36.8369C87.3039 37.0033 86.9287 37.4944 86.9888 38.1993C87.0579 39.9892 86.965 41.8345 86.71 43.7354ZM78.1416 43.0402C77.8174 43.1511 77.5487 43.4244 77.1689 43.373C76.9513 43.2662 76.7336 43.1593 76.4604 42.8901C76.4048 42.7277 76.1872 42.6208 76.0761 42.2962C76.0761 42.2962 76.2382 42.2407 76.4003 42.1852C77.5351 41.7969 78.4522 41.3017 79.3138 40.6442C79.3694 40.8065 79.3184 41.1867 79.3739 41.349C79.2719 42.1094 78.7345 42.656 78.1416 43.0402ZM109.041 31.1975C108.064 30.9878 107.586 32.2392 107.267 32.8927C106.627 34.1996 106.423 35.7203 105.728 36.8649C105.622 37.0827 105.622 37.0827 105.515 37.3005C104.978 37.8471 104.603 38.3382 103.954 38.5601C103.792 38.6156 103.63 38.671 103.468 38.7265C102.982 38.8929 102.384 38.7347 101.731 38.414C100.532 37.555 100.138 35.876 99.6382 34.4149C99.0827 32.7914 98.6893 31.1125 98.458 29.3781C99.1065 29.1562 99.7549 28.9343 100.403 28.7124C101.052 28.4905 101.538 28.3241 102.187 28.1022C103.321 27.7139 104.618 27.2701 105.86 26.664C106.453 26.2797 107.152 25.6777 107.036 24.8104C106.976 24.1056 106.212 23.4603 105.453 23.3575C104.313 23.2033 103.29 23.9163 102.373 24.4115C101.455 24.9066 100.594 25.5642 99.6767 26.0594C99.1903 26.2258 98.704 26.3922 98.2176 26.5586C98.102 25.6914 98.1484 24.7687 98.1949 23.846C98.1303 22.5987 98.3899 21.2403 97.4591 20.108C96.0374 18.5995 94.0921 19.2652 93.3461 20.79C93.0775 21.0632 92.8643 21.4989 93.031 21.9859C93.2022 23.0155 93.5355 23.9896 93.7067 25.0191C93.8779 26.0487 94.1047 27.2406 94.2759 28.2701C93.1411 28.6585 91.8441 29.1022 90.7649 29.6529C89.1437 30.2076 90.1392 32.5874 91.7603 32.0326C92.733 31.6998 93.7057 31.367 94.6228 30.8718L94.6784 31.0341C94.9743 34.0159 94.5107 36.8949 93.5051 39.778C92.9769 41.4096 92.2865 43.0967 91.5961 44.7838C90.9805 42.4554 91.0133 39.9052 89.9669 37.9056C89.9624 37.3631 89.6892 37.0939 89.3094 37.0425C88.7074 36.3417 88.1609 35.8033 87.3458 35.5381C87.1282 35.4312 86.8039 35.5422 86.7529 35.9224C85.9186 39.835 86.5479 43.7909 86.0378 47.5925C86.0933 47.7549 85.9867 47.9727 85.8802 48.1905C85.6671 48.6262 85.3984 48.8994 85.0141 48.3055C83.8101 46.904 83.25 44.738 82.8566 43.059C82.4076 41.2177 82.445 39.21 82.4824 37.2023C82.742 35.844 80.4587 34.9931 80.0926 36.5692C79.5133 38.581 78.0078 40.0029 76.0624 40.6686C74.9276 41.0569 75.1544 42.2488 75.9185 42.8941C76.0852 43.3812 76.3074 44.0306 76.7983 44.4067C77.0715 44.6759 77.5068 44.8896 77.8866 44.941C78.2664 44.9924 78.7527 44.826 79.1835 44.4972C79.6143 44.1685 80.2072 43.7842 80.5824 43.2931C80.7491 43.7802 80.8092 44.485 81.0314 45.1344C81.5915 47.3004 82.7581 50.7097 85.1479 51.3428C87.8109 52.2451 89.0295 48.9264 89.6088 46.9146C89.8866 47.7264 90.1088 48.3758 90.3866 49.1875C89.3765 51.528 88.7462 53.92 88.3336 56.4188C87.9765 59.08 87.9992 61.7926 88.8881 64.3901C89.6658 66.663 91.2031 69.0386 93.4864 69.8896C95.7696 70.7405 97.7614 69.1521 98.2296 66.8157C98.5867 64.1545 97.5867 61.2322 96.6979 58.6347C95.5868 55.3877 94.3692 52.3586 93.096 49.1671C94.3702 46.0108 95.9177 43.1236 96.7565 39.7535C96.8075 39.3734 97.0207 38.9377 97.0717 38.5576C97.4605 39.694 98.1736 40.7195 99.1554 41.4717C101.063 42.8137 103.717 42.631 105.714 41.5851C108.303 40.1551 109.744 37.4857 111.078 35.0342C111.291 34.5986 111.287 34.0561 111.014 33.7869L111.12 33.5691C110.134 32.2743 109.8 31.3003 109.041 31.1975Z" fill="black"/>
<path d="M69.8295 60.0302C69.6674 60.0856 69.5053 60.1411 69.3432 60.1966C69.825 59.4876 71.1729 58.6637 71.4416 58.3904C71.7103 58.1171 71.9789 57.8438 72.2476 57.5705C71.9325 58.7665 71.182 59.7487 69.8295 60.0302ZM68.7342 45.7151C69.165 45.3863 69.3781 44.9507 69.2114 44.4637C69.9755 45.109 69.767 46.0871 68.7342 45.7151ZM67.5994 46.1034C68.1413 46.0993 68.3079 46.5864 68.8498 46.5823C69.4473 46.7406 69.9846 46.194 70.3599 45.7029C70.624 44.8871 70.3462 44.0753 69.6377 43.5924C69.1468 43.2163 68.5493 43.058 67.8453 43.1175C67.5211 43.2285 67.1413 43.1771 66.655 43.3435C66.4929 43.399 66.4929 43.399 66.3307 43.4545C66.1686 43.5099 66.1686 43.5099 66.0065 43.5654C65.8444 43.6209 65.6823 43.6764 65.4136 43.9496C64.552 44.6072 64.0748 45.8586 64.0839 46.9437C63.9308 48.0842 63.8334 49.387 64.3843 50.468C64.7732 51.6044 65.755 52.3566 66.8433 52.891C68.5847 53.7459 71.1876 53.9434 72.0163 55.8361C72.0719 55.9984 72.1274 56.1608 72.183 56.3231C72.0764 56.541 71.9699 56.7588 71.8077 56.8143C70.9507 58.0143 69.8159 58.4026 68.9033 59.4403C68.366 59.9869 68.1574 60.9651 68.7038 61.5035C68.7639 62.2084 69.3104 62.7468 70.1765 62.6318C72.233 62.2908 74.0627 60.7579 74.642 58.7461C75.1657 56.572 74.5501 54.2437 72.8042 52.8462L72.5865 52.7393C72.2577 52.3077 71.9845 52.0385 71.6557 51.6069C70.8916 50.9616 69.9144 50.7519 68.9372 50.5423C67.7423 50.2257 66.8115 49.0934 66.7469 47.846C66.8489 47.0856 66.8954 46.163 67.5994 46.1034Z" fill="black"/>
<path d="M63.0763 62.5226C62.0991 62.3129 61.1774 62.2655 60.2557 62.2182C59.7139 62.2223 59.7139 62.2223 59.5472 61.7352C59.5427 61.1927 59.7002 60.5947 59.6957 60.0522C59.7467 59.6721 59.9043 59.0741 60.1729 58.8008C60.3351 58.7453 60.3351 58.7453 60.4972 58.6898L60.6593 58.6344C60.6593 58.6344 60.6593 58.6344 60.7148 58.7967C61.9698 59.8181 63.6329 57.7982 62.1602 56.6699C61.1785 55.9177 59.9326 55.9813 58.8533 56.532C58.1493 56.5915 57.5564 56.9758 57.1301 57.8471C56.6483 58.556 56.6019 59.4787 56.8796 60.2904C56.62 61.6487 56.5781 63.1139 57.8331 64.1353C58.8149 64.8875 60.0052 64.6616 61.1446 64.8158C63.2056 65.0173 65.2247 66.684 65.7292 68.6877C65.7848 68.85 65.8403 69.0124 65.7338 69.2302C65.6873 70.1529 64.9878 70.7549 64.2328 71.1946C63.9641 71.4679 63.5334 71.7967 63.047 71.9631C62.5051 71.9672 62.2319 71.698 61.5789 71.3774C61.3612 71.2705 60.9814 71.2191 60.6572 71.33C60.1709 71.4964 60.0133 72.0944 60.0178 72.6369C59.8047 73.0726 59.7537 73.4528 60.138 74.0467C61.6152 75.7175 63.6672 74.834 65.1217 73.7922C66.7383 72.695 68.1882 71.1107 68.2256 69.103C68.1009 67.1507 66.8368 65.0443 65.202 63.9715C64.7621 63.2152 64.0536 62.7322 63.0763 62.5226Z" fill="black"/>
<path d="M58.0352 81.6579C58.0862 81.2777 57.9195 80.7907 57.8084 80.466C57.6973 80.1413 57.5862 79.8166 57.5307 79.6542C57.8039 79.9235 58.0771 80.1927 58.2437 80.6797C58.2993 80.8421 58.2483 81.2222 58.0352 81.6579ZM49.5961 83.4575C49.9759 83.5089 50.4112 83.7226 50.6845 83.9918C50.1426 83.9959 49.7118 84.3247 49.4986 84.7603C49.4431 84.598 49.3875 84.4356 49.1699 84.3287C49.0032 83.8417 48.9987 83.2992 49.5961 83.4575ZM57.6145 76.7239C56.5262 76.1895 55.4934 75.8175 54.4096 75.8256C53.8677 75.8297 53.3258 75.8337 52.6218 75.8933C52.4597 75.9488 52.1354 76.0597 51.9178 75.9528C51.7557 76.0083 51.3759 75.9569 51.5935 76.0638C51.3759 75.9569 51.5845 74.9788 51.691 74.7609C51.8486 74.1629 52.0062 73.565 52.2193 73.1293C52.4324 72.6937 53.5627 71.7629 53.8404 72.5746C54.5581 74.1426 56.9342 73.1481 56.2166 71.5801C55.2212 69.2004 52.1875 69.3317 50.5754 70.9715C49.7694 71.7914 49.4542 72.9873 49.1391 74.1833C48.824 75.3793 48.6709 76.5198 49.384 77.5453C50.1527 78.7331 51.292 78.8873 52.6445 78.6059C53.6727 78.4354 54.7565 78.4272 55.6272 78.8547C55.6272 78.8547 55.6272 78.8547 55.7893 78.7993C56.5534 79.4446 57.0489 80.3632 57.2201 81.3927C57.2801 82.0976 57.3402 82.8025 57.0206 83.4559C56.4322 84.3827 55.4641 85.258 54.2737 85.484C53.9495 85.5949 53.7318 85.4881 53.352 85.4367C53.1344 85.3298 52.9167 85.2229 52.699 85.116C51.9349 84.4707 51.495 83.7145 50.7309 83.0691C50.0224 82.5862 49.2628 82.4834 48.5633 83.0854C48.026 83.632 48.3593 84.6061 48.7436 85.2C49.0724 85.6316 49.4012 86.0632 49.8921 86.4392C51.3137 87.9477 53.648 88.4185 55.5933 87.7528C57.8629 86.9762 59.6881 84.9008 60.374 82.6712C60.8512 81.4197 61.0042 80.2792 60.2356 79.0914C59.6846 78.0104 58.7028 77.2582 57.6145 76.7239Z" fill="black"/>
<path d="M46.0411 112.24C46.0967 112.402 46.2588 112.347 46.2588 112.347C46.2588 112.347 46.2032 112.184 46.0411 112.24ZM43.7816 107.754C43.064 106.186 42.1287 104.511 41.411 102.943C40.8045 101.699 40.198 100.456 39.5914 99.2128C41.7908 102.994 43.8281 106.831 45.4346 110.996C45.3235 110.672 45.2679 110.509 44.9947 110.24C44.4993 109.322 44.2215 108.51 43.7816 107.754ZM30.9494 96.1852C30.463 96.3516 30.3519 96.0269 30.3984 95.1042C30.505 94.8864 30.9913 94.72 31.3155 94.609C31.2645 94.9892 31.4312 95.4763 31.9221 95.8524C31.76 95.9078 31.4357 96.0188 31.2736 96.0742C30.9494 96.1852 30.9494 96.1852 30.9494 96.1852ZM40.8824 78.6405C42.3131 81.234 42.3404 84.489 41.0616 87.1029C41.1126 86.7227 41.2192 86.5049 41.1081 86.1802C41.1828 82.1648 38.1219 79.041 35.1765 76.7844C34.0327 76.0877 32.8332 75.2286 31.5828 74.7498C32.1247 74.7457 32.5044 74.7971 32.9908 74.6307C36.2977 74.7686 39.1229 75.6154 40.8824 78.6405ZM39.241 89.7208C38.7036 90.2674 38.2728 90.5962 37.7355 91.1427C34.7119 86.0113 31.8504 80.8243 29.744 75.1976C30.448 75.1381 31.0454 75.2963 31.6984 75.617C33.6019 76.4165 35.4543 77.5962 36.876 79.1046C38.4597 80.5576 39.8304 82.4462 40.2283 84.6677C40.6773 86.509 40.2046 88.3029 39.241 89.7208ZM43.754 78.5646C42.152 74.9416 39.2067 72.685 35.2468 72.2265C31.2868 71.768 25.979 72.1334 22.6948 74.708C18.4424 78.158 17.5662 83.5359 17.1207 88.5849C16.9722 90.2679 19.4686 90.6832 19.6171 89.0002C19.8676 86.5568 20.1181 84.1135 20.966 81.8284C21.9761 79.4879 23.3149 77.5789 25.3623 76.1529C25.7931 75.8241 26.2795 75.6577 26.6037 75.5467C27.0991 76.4653 27.5945 77.384 27.8723 78.1957C29.3677 82.0365 31.2939 85.5486 33.3821 89.0053C33.9331 90.0862 34.4841 91.1672 35.0351 92.2481C33.9558 92.7988 32.9832 93.1316 31.7928 93.3576C31.6307 93.4131 31.6307 93.4131 31.4686 93.4685C30.2782 93.6945 28.495 94.3047 29.0505 95.9282C29.606 97.5517 31.7645 96.4503 32.9503 95.6819C33.923 95.349 35.0578 94.9607 35.9749 94.4655C36.637 95.8712 37.5168 97.3837 38.1789 98.7894C40.3273 102.951 42.3135 107.168 44.4619 111.329C44.9018 112.086 45.5639 113.491 46.6431 112.941C47.1295 112.774 47.287 112.176 47.338 111.796C47.7688 111.467 47.982 111.032 47.7597 110.382C45.4866 104.268 41.9166 98.5985 38.5642 93.0354C43.5251 90.0684 46.1336 84.4605 43.754 78.5646Z" fill="black"/>
</svg>
