<svg width="556" height="194" viewBox="0 0 556 194" fill="none" xmlns="http://www.w3.org/2000/svg">
<g clip-path="url(#clip0_0_1211)">
<path d="M17.371 66.4814C13.2263 67.2055 9.41329 69.2099 6.46877 72.2125C3.52425 75.2151 1.59654 79.0647 0.957031 83.2193" stroke="black" stroke-linecap="round" stroke-linejoin="round" stroke-dasharray="2 2"/>
<path d="M0.810547 90.381V171.283" stroke="black" stroke-linecap="round" stroke-linejoin="round" stroke-dasharray="2 2"/>
<path d="M1.37891 178.251C2.54021 182.288 4.91148 185.873 8.17367 188.524C11.4359 191.174 15.4325 192.763 19.6257 193.076" stroke="black" stroke-linecap="round" stroke-linejoin="round" stroke-dasharray="2 2"/>
<path d="M26.7773 193.19H531.67" stroke="black" stroke-linejoin="round" stroke-dasharray="2 2"/>
<path d="M538.629 192.736C542.771 192.013 546.583 190.011 549.527 187.012C552.471 184.012 554.4 180.166 555.043 176.015" stroke="black" stroke-linejoin="round" stroke-dasharray="2 2"/>
<path d="M555.189 168.837V87.9182" stroke="black" stroke-linejoin="round" stroke-dasharray="2 2"/>
<path d="M554.622 80.9832C553.457 76.9463 551.085 73.3614 547.824 70.7087C544.563 68.056 540.568 66.4624 536.375 66.1412" stroke="black" stroke-linejoin="round" stroke-dasharray="2 2"/>
<path d="M529.481 66.0277H513.262" stroke="black" stroke-linejoin="round" stroke-dasharray="2 2"/>
<path d="M457.273 125.914C457.144 125.914 457.127 126.076 457.273 126.076C457.419 126.076 457.419 125.914 457.273 125.914Z" fill="black"/>
<path d="M62.2177 52.2065C62.3637 52.3199 62.3475 52.3199 62.2177 52.2065V52.2065ZM104.388 4.0508C104.297 3.5742 104.064 3.1363 103.719 2.79492C103.374 2.45354 102.933 2.22474 102.455 2.13872C101.978 2.05271 101.485 2.11353 101.042 2.31316C100.6 2.51279 100.228 2.84183 99.9764 3.25684C97.6043 8.6586 95.6627 14.239 94.1699 19.9461C92.5263 25.7468 90.9044 31.5367 89.3041 37.3158C88.266 28.955 87.1307 20.578 85.7358 12.2496C85.1519 8.76051 84.5139 5.28223 83.8219 1.81476C83.384 -0.340251 79.8806 -0.907354 79.4913 1.55552C77.8694 12.12 76.0853 22.7492 72.6468 32.941C70.9886 37.9692 68.8145 42.8127 66.159 47.3942C65.5451 48.5153 64.8626 49.5975 64.1154 50.6348C63.6288 51.2667 62.9151 52.1255 62.1366 52.2551C62.0393 52.1255 62.0069 52.1255 62.1366 52.2551C61.9363 51.9327 61.7987 51.5753 61.7311 51.2019C61.5759 50.1273 61.5759 49.0359 61.7311 47.9613C62.4667 42.7479 65.1854 38.0182 69.3218 34.7557C70.9437 33.3623 68.819 30.8184 67.0186 31.9364C64.6413 33.4551 62.5994 35.4428 61.0181 37.7776C59.4367 40.1124 58.3493 42.7452 57.8223 45.5146C57.1265 48.0448 57.2342 50.7284 58.1304 53.1949C58.4379 53.8854 58.8959 54.4985 59.471 54.9895C60.0461 55.4804 60.7237 55.8368 61.4544 56.0325C62.1851 56.2282 62.9503 56.2582 63.6942 56.1205C64.438 55.9828 65.1416 55.6808 65.7535 55.2365C68.1864 53.5027 69.63 50.3755 71.0248 47.9127C72.4705 45.2906 73.7595 42.5854 74.885 39.8111C77.0697 34.1791 78.7999 28.3814 80.059 22.4737C80.6429 19.8975 81.1619 17.305 81.681 14.7125C82.9461 22.6682 83.9841 30.6725 84.9248 38.6769C85.3465 42.193 85.7358 45.709 86.1413 49.2089C86.2521 49.7005 86.5022 50.1498 86.8617 50.5032C87.2212 50.8566 87.6749 51.0991 88.1687 51.2019C88.637 51.3036 89.1261 51.2417 89.5542 51.0264C89.9823 50.8111 90.3234 50.4555 90.5205 50.0191C92.2722 44.0131 93.9752 38.0396 95.6296 32.0984C97.2515 26.4759 98.7113 20.7562 100.495 15.2472C100.82 24.0779 100.771 32.9248 100.495 41.7555C100.349 45.3526 100.155 48.9659 99.8953 52.563C99.8824 53.2198 100.106 53.8594 100.526 54.3651C100.946 54.8707 101.534 55.2088 102.182 55.3175C102.483 55.3855 102.794 55.3903 103.096 55.3318C103.399 55.2732 103.685 55.1525 103.939 54.9772C104.192 54.802 104.406 54.5762 104.567 54.314C104.728 54.0518 104.833 53.759 104.875 53.4541C105.62 40.6769 105.685 27.8692 105.069 15.0851C104.891 11.407 104.68 7.74511 104.421 4.067" fill="black"/>
<path d="M125.7 46.9567C124.97 48.4262 123.903 49.703 122.586 50.6834C121.402 51.5746 119.44 52.8222 117.899 52.3037C117.212 51.9663 116.599 51.4961 116.095 50.9204C115.591 50.3447 115.206 49.6748 114.963 48.9497C114.374 47.3994 114.109 45.7451 114.185 44.0887C114.212 41.9939 114.568 39.9163 115.239 37.9315C115.377 38.0126 115.524 38.0779 115.677 38.126C116.417 39.5001 117.545 40.6269 118.921 41.3666C121.29 42.5316 123.991 42.8353 126.56 42.2254C126.655 43.8046 126.348 45.3822 125.668 46.8109L125.7 46.9567ZM121.11 34.8529C122.64 35.3211 123.962 36.2991 124.857 37.6237C125.087 37.9261 125.293 38.2457 125.473 38.5797C124.082 38.957 122.615 38.957 121.224 38.5797C120.106 38.2429 119.152 37.504 118.548 36.5057C119.294 35.5821 120.283 34.5775 121.11 34.8854V34.8529ZM163.621 29.83C163.325 29.8421 163.035 29.9169 162.769 30.0496C162.504 30.1823 162.27 30.3697 162.083 30.5996C161.896 30.8294 161.76 31.0963 161.684 31.3827C161.608 31.669 161.594 31.9682 161.642 32.2604C162.055 38.6048 161.536 44.9754 160.102 51.1695L159.956 50.9751C158.999 49.7598 158.09 48.5122 157.263 47.2159C155.611 44.5912 154.241 41.7996 153.176 38.8875C153.008 38.485 152.731 38.1374 152.375 37.8844C152.02 37.6313 151.6 37.4829 151.164 37.4559C150.729 37.4289 150.294 37.5244 149.91 37.7317C149.526 37.9389 149.208 38.2495 148.991 38.6283C147.489 41.8258 145.698 44.8793 143.639 47.7506C143.201 42.7898 143.59 37.7907 144.79 32.9572C144.921 32.5268 144.915 32.0665 144.773 31.6399C144.63 31.2132 144.359 30.8412 143.996 30.5753C143.634 30.2875 143.193 30.1176 142.732 30.0886C142.271 30.0596 141.812 30.173 141.417 30.4133C137.774 33.1382 133.808 35.4023 129.609 37.1538C129.366 36.7001 129.106 36.2626 128.814 35.8251C127.131 33.2604 124.581 31.3857 121.629 30.5429C120.528 30.2606 119.365 30.3286 118.304 30.7374C118.078 30.5597 117.812 30.4413 117.528 30.3932C117.245 30.3451 116.954 30.3687 116.682 30.4619C111.817 32.3901 110.195 37.9153 109.87 42.5818C109.481 47.4428 111.022 52.9842 115.725 55.5443C120.721 58.3313 126.836 53.924 129.301 49.8246C130.908 47.1498 131.485 43.9817 130.923 40.9129C133.965 39.816 136.884 38.404 139.633 36.7001C138.827 42.2192 138.964 47.835 140.038 53.3083C140.13 53.7239 140.33 54.1079 140.618 54.4214C140.906 54.7348 141.272 54.9666 141.679 55.0933C142.086 55.2199 142.519 55.237 142.934 55.1426C143.349 55.0482 143.733 54.8458 144.044 54.556C146.674 51.5174 148.999 48.2286 150.986 44.7369C151.538 45.8549 152.105 46.9567 152.738 47.9775C153.371 48.9983 154.36 50.57 155.187 51.8176C156.01 53.1206 156.997 54.3131 158.123 55.3661C158.706 55.9043 159.421 56.2791 160.196 56.4526C160.97 56.6262 161.777 56.5923 162.534 56.3545C164.383 55.6416 164.594 53.6 164.967 51.9796C165.653 48.9153 166.13 45.808 166.395 42.6791C166.67 39.0656 166.67 35.4364 166.395 31.823C166.253 31.1876 165.89 30.6234 165.37 30.2315C164.85 29.8396 164.207 29.6455 163.556 29.6842" fill="black"/>
<path d="M181.56 40.4754C181.339 42.2889 181.025 44.0898 180.619 45.871C180.271 47.5069 179.524 49.0317 178.446 50.3107C177.58 51.2028 176.436 51.7742 175.202 51.931C174.765 51.9636 174.326 51.9197 173.904 51.8014H173.758C173.586 51.6903 173.424 51.5657 173.272 51.4287C173.204 51.3255 173.128 51.228 173.045 51.1371C172.44 49.9243 172.203 48.5613 172.363 47.2159C172.477 43.9753 172.899 40.2324 175.04 37.6237C176.007 36.3755 177.397 35.5228 178.949 35.2256C179.564 35.1348 180.193 35.2 180.776 35.4152C181.36 35.6303 181.881 35.9886 182.29 36.457L181.608 40.6698L181.56 40.4754ZM193.708 50.3917C192.962 51.3153 191.956 52.1254 190.854 51.7852C190.675 51.7852 190.854 51.7852 190.578 51.6718L190.351 51.5745C190.189 51.4699 190.037 51.3506 189.897 51.2181L189.621 50.975C189.091 50.3936 188.698 49.7017 188.469 48.9496C187.918 46.7837 187.64 44.5574 187.642 42.3225C187.48 39.8111 187.285 37.2996 187.139 34.7881C187.025 34.2422 186.731 33.7499 186.305 33.389C185.879 33.0282 185.345 32.8192 184.788 32.7951C184.478 32.7839 184.17 32.8335 183.879 32.9409C183.046 32.1625 182.032 31.6054 180.927 31.3206C178.624 30.7705 176.196 31.1427 174.164 32.3576C169.801 34.8043 168.422 39.8597 167.919 44.3641C167.449 48.577 167.741 53.7296 172.25 55.8522C176.759 57.9748 181.576 55.204 183.733 51.3801C183.879 51.1046 184.025 50.8292 184.155 50.5375C184.382 51.101 184.659 51.6432 184.982 52.1578C185.684 53.4087 186.692 54.4615 187.912 55.218C189.131 55.9745 190.523 56.4101 191.956 56.4841C194.552 56.4841 197.617 54.8638 197.633 52.1092C197.633 50.3107 195.119 48.7228 193.724 50.3917" fill="black"/>
<path d="M280.562 35.1932C280.562 33.5729 280.416 31.7581 280.416 30.0406C280.416 29.4735 280.416 28.8902 280.416 28.3231C280.529 26.168 276.831 25.2607 276.62 27.6425C276.15 33.2002 275.923 38.8875 273.993 44.2021C273.161 46.7519 271.802 49.0982 270.003 51.0884C269.451 51.6718 268.494 52.4333 267.748 51.9958C266.942 51.2756 266.375 50.3255 266.126 49.2737C264.277 43.8294 265.834 37.9315 263.45 32.5359C262.945 31.2002 262.095 30.0217 260.987 29.1197C259.879 28.2177 258.552 27.6243 257.141 27.3995C255.748 27.381 254.376 27.7442 253.175 28.4498C251.974 29.1554 250.99 30.1763 250.329 31.4017C249.713 32.4237 249.213 33.5105 248.836 34.6423C248.464 33.3068 247.824 32.061 246.955 30.9804C246.534 30.3373 245.959 29.8093 245.282 29.4443C244.605 29.0793 243.848 28.8889 243.079 28.8902C241.457 29.1008 240.451 30.8345 239.705 32.0498C239.248 32.7205 238.941 33.4813 238.804 34.2807C238.667 35.0801 238.703 35.8996 238.91 36.6839C239.001 37.0505 239.208 37.3781 239.5 37.6175C239.792 37.857 240.154 37.9956 240.532 38.0125C241.181 38.0125 242.008 37.6075 241.976 36.8621C241.98 35.9613 242.276 35.0861 242.819 34.3668C243.141 33.8561 243.499 33.3687 243.89 32.9085C244.029 33.068 244.159 33.2357 244.279 33.4108C244.629 34.0054 244.886 34.6503 245.041 35.3228C245.373 36.8114 245.52 38.3352 245.479 39.8597C245.479 44.1697 245.382 48.4959 245.22 52.8222C245.122 55.204 248.95 56.1924 249.42 53.5675C250.004 50.3269 250.604 46.9567 251.188 43.635C251.547 40.4944 252.288 37.4093 253.394 34.4478C254.043 32.9571 255.811 30.3646 257.838 31.2072C258.77 31.6919 259.487 32.5066 259.849 33.4919C260.396 34.7285 260.756 36.0389 260.92 37.3806C261.325 40.2162 261.212 43.1003 261.52 45.9521C261.627 48.8527 262.643 51.6466 264.423 53.9402C264.909 54.5227 265.508 55.0013 266.183 55.3474C266.859 55.6935 267.597 55.9 268.354 55.9544C269.111 56.0089 269.871 55.9102 270.589 55.6644C271.307 55.4185 271.968 55.0305 272.533 54.5235C274.084 53.152 275.366 51.5035 276.312 49.6626C276.312 51.2829 276.312 52.9032 276.312 54.3939C276.3 54.9939 276.505 55.5781 276.889 56.0393C277.274 56.5006 277.812 56.8081 278.404 56.9054C278.673 56.9716 278.953 56.9817 279.226 56.9348C279.499 56.888 279.76 56.7853 279.991 56.6331C280.223 56.481 280.42 56.2827 280.571 56.0507C280.723 55.8188 280.824 55.5581 280.87 55.2851C280.87 50.8292 280.87 46.3733 280.756 41.9175C280.756 39.7463 280.756 37.5912 280.756 35.4362" fill="black"/>
<path d="M283.416 10.2242C283.39 10.172 283.357 10.1231 283.319 10.0784C283.312 10.0355 283.312 9.99165 283.319 9.94874L283.06 9.55986L282.881 9.38164L282.719 9.2196L282.297 8.96035C282.138 8.90213 281.976 8.85343 281.811 8.81452L281.178 8.60388L280.773 8.6849L280.4 8.86314C280.188 8.91883 279.985 9.00623 279.799 9.12238L279.41 9.47885C279.189 9.75815 279.053 10.096 279.021 10.451C278.985 10.7211 279.024 10.9959 279.134 11.245C279.201 11.5216 279.335 11.7775 279.524 11.9903C279.787 12.2989 280.113 12.5476 280.481 12.7195C280.833 12.8728 281.217 12.9395 281.6 12.9139H281.876H282.151L282.395 12.7843L282.638 12.6709L283.027 12.3306C283.2 12.1423 283.308 11.9039 283.335 11.6501C283.409 11.4015 283.409 11.1371 283.335 10.8885C283.335 10.7265 283.222 10.5645 283.173 10.3862" fill="black"/>
<path d="M370.629 53.9726C370.937 53.8592 370.807 54.1832 370.629 53.9726V53.9726ZM360.151 44.0077C359.078 45.4963 357.885 46.8945 356.583 48.1881C355.457 49.4144 354.13 50.4392 352.658 51.2181C352.026 51.544 351.325 51.7108 350.614 51.7042C350.809 51.7042 350.176 51.7042 350.014 51.6069L349.576 51.4287H349.479L349.349 51.3315C349.349 51.2343 349.138 51.0398 349.122 51.0722C349.028 50.8624 348.973 50.6373 348.96 50.4079C348.995 49.5138 349.199 48.6343 349.56 47.8154C350.691 44.3499 352.612 41.1939 355.172 38.5958C356.421 37.4361 357.894 36.5422 359.5 35.9685C361.106 35.3947 362.812 35.1529 364.514 35.258C363.54 38.405 362.067 41.3756 360.151 44.0563V44.0077ZM342.456 52.6277C342.115 52.4009 342.358 52.6277 342.456 52.6277V52.6277ZM295.679 35.1284C296.293 34.2985 297.085 33.6173 297.998 33.1354L298.372 32.9733L299.037 32.7465L299.702 32.5683C300.156 32.4711 299.929 32.5683 299.831 32.5683H300.302C300.61 32.5522 300.918 32.5522 301.226 32.5683H301.68C301.98 32.5956 302.278 32.6389 302.572 32.6979L303.075 32.8437L303.773 33.1354H303.87L304.065 33.265L304.421 33.5242L304.567 33.6539L304.94 34.0752V34.1562L305.167 34.5612C305.289 34.8239 305.392 35.0946 305.476 35.3714C305.681 36.0729 305.838 36.7875 305.946 37.5102C305.946 37.9315 306.124 38.3366 306.238 38.7417C303.205 38.7417 300.188 38.6444 297.155 38.6444H293.911C294.217 37.4078 294.769 36.2452 295.533 35.2256L295.679 35.1284ZM424.039 50.9426C423.528 50.8588 423.004 50.9334 422.537 51.1565C422.07 51.3796 421.683 51.7404 421.428 52.1903C421.372 51.8966 421.344 51.5981 421.347 51.2991C421.361 50.216 421.431 49.1343 421.558 48.0585C421.963 43.3433 422.498 38.6282 423.18 33.9293C423.488 31.6771 420.666 30.4295 418.865 31.3854C416.317 32.6715 413.495 33.3185 410.64 33.2705C407.786 33.2225 404.987 32.481 402.484 31.11C402.102 30.9022 401.669 30.8043 401.235 30.8272C400.801 30.8501 400.381 30.9929 400.023 31.2398C399.665 31.4866 399.383 31.8277 399.207 32.2253C399.032 32.6229 398.97 33.0613 399.029 33.4918C399.618 36.3851 400.763 39.1366 402.403 41.5934C403.7 43.8618 405.192 46.4543 404.852 49.0631C404.859 49.1926 404.859 49.3224 404.852 49.4519C404.857 49.4895 404.857 49.5277 404.852 49.5653C404.757 49.8302 404.649 50.0898 404.527 50.3431C404.527 50.3431 404.3 50.6834 404.252 50.7482L403.781 51.2991C403.602 51.4579 403.413 51.6041 403.214 51.7366L402.808 51.9796C402.635 52.0586 402.456 52.1237 402.273 52.174C402.273 52.174 401.819 52.174 401.867 52.174H401.559C401.444 52.1068 401.325 52.0472 401.202 51.9958L400.943 51.8014C400.709 51.5633 400.492 51.3088 400.294 51.0398C399.53 50.0271 398.867 48.9417 398.315 47.7992C396.908 44.9737 396.028 41.9152 395.72 38.7741C395.588 38.1638 395.256 37.6147 394.778 37.213C394.299 36.8112 393.701 36.5795 393.076 36.5542C391.99 36.5542 390.611 37.2348 390.66 38.4824C390.868 42.9087 389.601 47.2791 387.059 50.9102C386.686 51.4287 386.199 51.9472 385.843 52.3847L385.713 52.2389C385.583 52.012 385.47 51.7528 385.356 51.5097L385.226 51.137V50.9102C384.989 49.5346 384.864 48.1419 384.853 46.746C384.737 43.1291 384.922 39.5088 385.405 35.9223C385.794 33.103 381.123 32.066 380.539 35.0473C379.307 40.6876 376.981 46.0324 373.694 50.7806C373.005 51.9592 372.171 53.0478 371.213 54.0212C371.114 54.1017 370.997 54.1573 370.872 54.1832H370.759C370.152 53.4857 369.723 52.6518 369.51 51.7528C369.121 50.1563 368.866 48.5304 368.747 46.8918C368.48 43.4677 368.787 40.0232 369.656 36.7001C369.826 36.1063 369.771 35.4707 369.502 34.9147C369.233 34.3588 368.768 33.9214 368.196 33.6863L367.758 33.5567C367.675 33.3085 367.537 33.0821 367.354 32.8942C367.172 32.7063 366.95 32.5617 366.704 32.4711C364.327 31.3039 361.65 30.8912 359.032 31.2882C356.871 31.7739 354.833 32.7006 353.047 34.0103C349.426 36.9215 346.704 40.7978 345.197 45.1905C344.289 47.5076 343.575 50.0514 344.726 52.4657L344.564 52.5791L344.353 52.6925C344.24 52.6925 343.818 52.8222 343.916 52.8384H343.234H342.877L342.618 52.7088L342.391 52.5629C342.31 52.4657 342.05 52.1092 342.05 52.1254C341.89 51.8383 341.749 51.5406 341.629 51.2343C341.226 49.5038 341.122 47.7175 341.32 45.9521C341.32 43.5216 341.499 41.0911 341.596 38.6444C341.596 36.5218 341.904 34.2372 340.591 32.39C339.923 31.5372 339.03 30.8869 338.013 30.512C336.996 30.1371 335.895 30.0525 334.833 30.2674C330.47 31.0452 328.54 35.8413 326.901 39.2926C326.878 39.3482 326.851 39.4023 326.82 39.4546C326.68 36.8405 326.469 34.2318 326.188 31.6285C326.097 31.2066 325.894 30.8167 325.602 30.4987C325.31 30.1807 324.939 29.9461 324.526 29.819C324.113 29.692 323.674 29.6771 323.253 29.7758C322.833 29.8746 322.446 30.0834 322.133 30.3809C318.321 34.9015 316.034 40.3944 312.32 44.9637C309.368 48.6094 305.021 51.9148 300.107 51.2829C299.047 51.1704 298.021 50.8452 297.09 50.3269L296.701 50.0838L296.101 49.614C295.988 49.5336 295.889 49.435 295.809 49.3223C295.549 49.0422 295.315 48.7384 295.111 48.4149C294.106 46.6242 293.586 44.6024 293.603 42.5494C299.118 42.7762 304.665 42.8411 310.179 43.1003C310.574 43.0947 310.957 42.9735 311.283 42.7517C311.609 42.5298 311.863 42.2172 312.012 41.8527C312.138 41.4786 312.167 41.0787 312.096 40.6905C312.025 40.3023 311.857 39.9384 311.607 39.6328C311.074 38.4444 310.724 37.1825 310.569 35.8899C310.258 34.284 309.593 32.7675 308.622 31.4503C307.737 30.4058 306.64 29.5599 305.405 28.9679C304.169 28.376 302.823 28.0513 301.453 28.0152C298.79 27.8161 296.144 28.5747 293.992 30.154C291.601 32.1063 289.985 34.8468 289.435 37.8829C289.435 38.1097 289.354 38.3366 289.305 38.5634C287.959 38.5634 286.612 38.6768 285.25 38.7903C283.206 38.9685 283.515 41.9337 285.428 42.0309L289.062 42.2739C289.256 47.1349 291.349 51.9958 295.89 54.1832C301.551 56.9864 308.298 55.0744 312.758 51.137C316.927 47.4589 319.424 42.6304 322.328 38.0611C322.595 43.2167 322.563 48.3834 322.23 53.5351C322.052 56.2572 326.318 57.2456 326.95 54.3777C327.883 50.1595 329.236 46.045 330.989 42.0957C331.753 40.2577 332.648 38.4762 333.665 36.7649C334.05 36.0856 334.55 35.4772 335.141 34.9663C335.577 34.6229 336.11 34.4245 336.665 34.3992C336.795 34.3992 336.844 34.3992 336.876 34.3992L337.039 34.4964C336.828 34.3992 337.039 34.3668 337.039 34.4964C337.039 34.6261 337.039 34.7395 337.039 34.8043C337.168 35.7342 337.168 36.6776 337.039 37.6074C336.925 39.9893 336.795 42.355 336.682 44.7206C336.487 48.5608 336.244 53.1948 339.634 55.917C341.219 57.142 343.225 57.6897 345.213 57.4401C346.49 57.292 347.656 56.6455 348.457 55.6415C349.017 55.847 349.6 55.9831 350.192 56.0466C355.058 56.5975 359.048 52.7088 361.951 49.4033C362.487 48.8038 362.99 48.1719 363.476 47.54C363.527 50.5465 364.463 53.4716 366.169 55.9494C366.706 56.6786 367.388 57.2895 368.172 57.7439C368.956 58.1983 369.826 58.4865 370.726 58.5905C371.646 58.6231 372.56 58.4306 373.388 58.0295C374.217 57.6285 374.934 57.0312 375.478 56.2896C377.107 54.308 378.551 52.182 379.793 49.938C379.958 51.1734 380.343 52.3695 380.928 53.4703C382.388 56.1114 385.47 58.1044 388.486 56.3545C389.746 55.4703 390.788 54.3125 391.536 52.968C392.301 51.8048 392.969 50.58 393.531 49.3061C394.925 52.1416 396.888 55.4147 400.018 56.5165C401.624 57.0198 403.352 56.9744 404.929 56.3876C406.506 55.8008 407.843 54.7059 408.728 53.2759C410.837 50.0352 410.237 46.1951 408.728 42.8573C407.869 40.9129 406.636 39.0981 405.663 37.2024C409.465 38.1905 413.457 38.1905 417.26 37.2024C417.081 38.8227 416.886 40.443 416.724 42.0633C416.3 44.9447 416.078 47.8521 416.059 50.7644C416.157 53.6809 417.584 56.7109 420.844 57.2456C423.309 57.7155 426.505 56.3058 426.359 53.5351C426.358 52.8647 426.123 52.2155 425.693 51.7004C425.264 51.1854 424.667 50.837 424.007 50.7158" fill="black"/>
<path d="M426.716 16.3975L426.602 16.2031L426.521 16.0411L426.326 15.7332L426.148 15.4254C425.989 15.1278 425.781 14.8593 425.532 14.6314L425.223 14.3073L424.834 14.0805L424.413 13.9671C424.211 13.9103 423.998 13.9103 423.796 13.9671C423.664 13.9727 423.536 14.0117 423.423 14.0805C423.294 14.1215 423.181 14.2006 423.099 14.3073C422.988 14.3824 422.903 14.4899 422.855 14.6152C422.775 14.7324 422.72 14.8647 422.693 15.0041C422.58 15.2199 422.513 15.4574 422.499 15.7008C422.499 15.8142 422.499 15.9115 422.499 16.0249C422.49 16.1327 422.49 16.2411 422.499 16.3489C422.491 16.4189 422.491 16.4896 422.499 16.5596C422.474 16.699 422.474 16.8415 422.499 16.9809C422.482 17.1699 422.515 17.36 422.596 17.5318C422.668 17.8143 422.807 18.0754 423.001 18.2933L423.147 18.4554L423.569 18.8604C424.042 19.1972 424.611 19.3733 425.191 19.3627L425.71 19.2655L426.18 19.0387C426.262 18.9872 426.333 18.9213 426.391 18.8442C426.541 18.7484 426.655 18.606 426.716 18.4391C426.788 18.316 426.848 18.1857 426.894 18.0503C427.012 17.8033 427.052 17.5263 427.008 17.2563C427.025 16.9729 426.957 16.6908 426.813 16.4462" fill="black"/>
<path d="M437.535 38.9523C437.495 38.9153 437.462 38.8714 437.437 38.8227C437.437 38.8227 437.518 38.9199 437.535 38.9199C437.551 38.9199 437.535 38.9199 437.535 38.9199V38.9523ZM450.51 43.7808C449.533 43.0408 448.49 42.39 447.396 41.8364C446.252 41.1904 445.052 40.6482 443.812 40.2161C442.655 39.8166 441.459 39.5449 440.243 39.406L438.897 39.2601C438.456 39.2272 438.024 39.1232 437.616 38.9523H437.535C437.535 38.9523 437.405 38.6444 437.421 38.8551C437.357 38.4963 437.391 38.1271 437.518 37.7857C437.68 37.3635 437.927 36.9796 438.246 36.6587C438.564 36.3378 438.946 36.0869 439.367 35.9223C440.933 35.3193 442.667 35.3193 444.233 35.9223C445.855 36.4246 447.12 35.0473 446.115 33.6053C443.568 29.9758 437.616 30.7049 434.761 33.4432C433.952 34.1769 433.355 35.1145 433.032 36.1578C432.71 37.201 432.674 38.3117 432.928 39.3736C433.332 40.5239 434.066 41.5303 435.038 42.2677C436.009 43.0051 437.177 43.4411 438.394 43.5216C439.351 43.6674 440.324 43.6998 441.265 43.878C442.363 44.1184 443.422 44.5111 444.412 45.0447C445.271 45.4659 446.196 45.9844 446.958 46.4543C447.201 46.6164 447.445 46.7622 447.672 46.9404C447.899 47.1187 447.883 47.1835 447.85 47.1187C447.98 47.3293 447.964 47.3617 447.85 47.7668C447.039 49.5052 445.744 50.9735 444.12 51.9958C442.595 53.0657 440.858 53.7952 439.027 54.1346C437.995 54.33 436.941 54.3737 435.897 54.2642C435.053 54.2034 434.243 53.9057 433.561 53.4055C433.492 53.3282 433.416 53.2576 433.334 53.1948L433.237 53.049C433.173 52.9517 433.119 52.8486 433.074 52.7411C433.074 52.8384 433.155 53.1138 433.074 52.6439C433.067 52.5144 433.067 52.3846 433.074 52.2551C433.074 52.0606 433.074 51.8824 433.074 51.6879C433.074 51.4935 433.074 51.4611 433.188 51.2667C433.188 51.4125 433.188 51.4287 433.188 51.2667C433.211 51.138 433.264 51.0165 433.343 50.9123C433.422 50.8081 433.524 50.7241 433.642 50.6671C435.54 49.3385 433.447 46.4219 431.42 47.1673C430.363 47.565 429.478 48.3177 428.915 49.2962C428.353 50.2747 428.149 51.4182 428.338 52.5305C428.547 53.727 429.064 54.8488 429.837 55.7861C430.611 56.7233 431.614 57.444 432.75 57.8775C437.113 59.7409 442.482 58.5419 446.39 56.1276C450.299 53.7133 455.279 47.9126 450.559 43.9104" fill="black"/>
<path d="M453.851 20.821C451.049 18.9279 447.685 18.0475 444.314 18.3257C442.916 18.4478 441.568 18.9028 440.383 19.6528C439.198 20.4027 438.21 21.4256 437.502 22.6358C437.048 23.4945 437.761 24.5801 438.491 25.0176C439.221 25.4551 440.535 25.5361 441.038 24.7098C441.159 24.4923 441.3 24.2862 441.459 24.0941L441.8 23.7052C441.966 23.5613 442.139 23.4261 442.319 23.3001L442.773 23.0409C443.223 22.8433 443.69 22.686 444.168 22.571H444.541C444.8 22.5549 445.06 22.5549 445.32 22.571C445.803 22.5462 446.287 22.5788 446.763 22.6682C447.42 22.7736 448.07 22.9197 448.709 23.1057C448.985 23.2029 449.034 23.2029 448.839 23.1057L449.666 23.3487C449.926 23.4459 449.974 23.4459 449.812 23.3487L450.283 23.4945C451.004 23.7672 451.755 23.9521 452.521 24.0454C452.918 24.1211 453.329 24.0636 453.689 23.8819C454.05 23.7002 454.341 23.4046 454.516 23.0409C454.639 22.6458 454.634 22.2222 454.503 21.8298C454.372 21.4374 454.122 21.0959 453.786 20.8534" fill="black"/>
<path d="M496.897 47.0701C496.538 46.8442 496.122 46.7244 495.697 46.7244C495.272 46.7244 494.856 46.8442 494.497 47.0701C493.844 47.5649 493.293 48.1812 492.875 48.8848C492.632 49.3709 492.404 49.857 492.129 50.3269C491.532 51.3513 490.854 52.3266 490.101 53.2435C489.842 53.5838 489.55 53.8916 489.274 54.1995C489.024 53.7427 488.812 53.2657 488.642 52.7736C488.105 50.8697 487.826 48.9023 487.814 46.9243C487.717 44.1535 487.636 41.399 487.539 38.6445C487.55 38.0641 487.368 37.4964 487.022 37.0302C486.675 36.5641 486.184 36.2257 485.625 36.0682C485.102 35.8897 484.531 35.9081 484.02 36.1199C483.51 36.3317 483.094 36.7224 482.851 37.2186C480.926 41.1305 478.53 44.7926 475.715 48.1233C473.152 51.1371 470.135 54.4587 466.291 55.917C465.501 56.2902 464.643 56.4971 463.77 56.525C462.896 56.5529 462.027 56.4011 461.215 56.079C461.328 56.079 460.89 55.7064 461.101 55.9494C460.679 55.4633 460.971 55.7388 460.988 55.8036C460.846 55.4973 460.737 55.1769 460.663 54.8476C460.496 53.8466 460.426 52.832 460.452 51.8176C460.23 47.801 461.424 43.8337 463.826 40.605C465.047 39.0851 466.663 37.9303 468.497 37.2672C469.221 36.899 470.028 36.7263 470.839 36.7661C471.649 36.8059 472.436 37.0568 473.12 37.494C473.447 37.7612 473.857 37.9072 474.279 37.9072C474.702 37.9072 475.112 37.7612 475.439 37.494C475.719 37.2065 475.883 36.8252 475.898 36.424C475.913 36.0229 475.778 35.6305 475.52 35.3228C474.757 34.3192 473.735 33.5418 472.564 33.0738C471.392 32.6057 470.116 32.4646 468.87 32.6655C466.485 32.9856 464.237 33.968 462.382 35.5011C460.421 37.1833 458.831 39.2549 457.714 41.5842C456.597 43.9134 455.978 46.4493 455.895 49.0307C455.566 51.6045 455.799 54.219 456.576 56.6947C457.197 57.9793 458.181 59.0547 459.405 59.7887C460.63 60.5227 462.042 60.8834 463.469 60.8265C468.984 61.0534 473.509 57.2295 477.077 53.6324C479.207 51.4694 481.159 49.1395 482.916 46.665C482.916 46.9405 482.916 47.2159 482.916 47.4914C482.871 50.4171 483.492 53.3148 484.733 55.9656C485.102 56.8431 485.653 57.6329 486.349 58.2834C487.045 58.9339 487.87 59.4306 488.771 59.7409C490.88 60.1946 492.226 58.8822 493.491 57.4725C494.509 56.3545 495.421 55.1449 496.216 53.8592C497.284 52.5299 497.923 50.9085 498.049 49.2089C498.059 48.782 497.953 48.3603 497.742 47.9892C497.53 47.618 497.221 47.3115 496.849 47.1025" fill="black"/>
<path d="M485.348 22.6196C485.429 22.7838 485.545 22.9278 485.689 23.0409C485.883 23.2628 486.128 23.435 486.402 23.5432C486.638 23.6459 486.882 23.7273 487.132 23.7862H487.343C487.484 23.7942 487.624 23.7942 487.765 23.7862C488.019 23.8027 488.273 23.8027 488.527 23.7862C489.039 23.7769 489.53 23.5805 489.906 23.2341C490.283 22.8878 490.519 22.4155 490.571 21.9067C490.586 21.7775 490.586 21.6469 490.571 21.5178C490.588 21.3887 490.588 21.258 490.571 21.1289C490.525 20.8985 490.448 20.6751 490.344 20.4646C490.129 20.0101 489.806 19.6152 489.403 19.3142C488.991 19.0057 488.514 18.7952 488.008 18.6984C487.701 18.6576 487.391 18.6576 487.084 18.6984C486.956 18.6662 486.822 18.6662 486.694 18.6984C486.56 18.7066 486.431 18.7514 486.321 18.8281C486.194 18.8627 486.08 18.9364 485.997 19.0387C485.839 19.1578 485.72 19.3215 485.656 19.5086L485.543 19.6868C485.426 19.8433 485.354 20.0278 485.332 20.2215V20.4808V20.7238C485.332 20.8697 485.332 21.0155 485.251 21.1613C485.17 21.3071 485.251 21.5016 485.251 21.6798C485.284 21.9468 485.39 22.1994 485.559 22.4089" fill="black"/>
<path d="M36.8335 35.8575C36.3507 35.3089 35.7288 34.9003 35.0332 34.6747C34.7264 34.5589 34.3917 34.5387 34.0731 34.6168C33.7546 34.6949 33.4673 34.8676 33.2491 35.1122C33.1247 35.2829 33.0212 35.4678 32.9409 35.6631C32.5984 35.878 32.3113 36.1704 32.1028 36.5166C31.8943 36.8628 31.7703 37.2531 31.7406 37.6561C31.4333 38.4539 31.4333 39.3373 31.7406 40.1352C32.0516 40.8209 32.5746 41.3889 33.2328 41.7555C32.1445 44.8526 30.1072 47.5286 27.4101 49.4033C26.9806 49.7042 26.687 50.162 26.5929 50.6775C26.4988 51.1931 26.6117 51.7249 26.9073 52.1579C27.1716 52.6287 27.6055 52.9812 28.1207 53.1438C28.6359 53.3063 29.1938 53.2666 29.6808 53.0328C31.6322 51.7639 33.3083 50.1159 34.6095 48.1869C35.9107 46.258 36.8105 44.0873 37.2552 41.8041C37.7329 41.5142 38.116 41.092 38.3582 40.5888C38.7236 39.7281 38.7691 38.7653 38.4866 37.874C38.2041 36.9827 37.6121 36.2216 36.8173 35.7279" fill="black"/>
<path d="M47.3613 44.3803C47.5498 43.9513 47.6471 43.4878 47.6471 43.0193C47.6471 42.5507 47.5498 42.0873 47.3613 41.6582C45.7393 38.4176 40.7438 39.5518 40.1923 42.7762C40.0664 43.6806 40.2513 44.601 40.7168 45.3868C41.1822 46.1726 41.9008 46.7775 42.755 47.1025C43.0477 47.2074 43.3532 47.2728 43.6633 47.2969C43.6114 48.1087 43.4136 48.9046 43.0794 49.6463C42.982 49.8408 42.8685 50.0352 42.755 50.2297L42.5441 50.5213C42.3898 50.7217 42.2218 50.9112 42.0413 51.0884L41.7656 51.3315C41.6151 51.4434 41.458 51.5462 41.2952 51.6393C41.2952 51.6393 40.7924 51.8662 40.8411 51.8662C40.2795 51.9812 39.7346 52.1663 39.2191 52.4171C37.727 53.3407 38.4893 55.4795 39.9652 56.0142C40.6576 56.1784 41.3789 56.179 42.0715 56.0158C42.7642 55.8527 43.4092 55.5303 43.9552 55.0744C45.0452 54.2785 45.9294 53.2342 46.5341 52.0282C47.167 50.6431 47.5093 49.1432 47.5397 47.621C47.5945 46.5399 47.5619 45.4562 47.4424 44.3803" fill="black"/>
<path d="M512.791 1.52307C511.672 1.05999 510.419 1.03088 509.28 1.44143C508.14 1.85199 507.194 2.67267 506.628 3.7429C505.827 4.28456 505.265 5.11365 505.06 6.05805C504.854 7.00244 505.021 7.98956 505.525 8.81448C505.917 9.49629 506.485 10.0605 507.17 10.4481C507.854 10.8357 508.631 11.0326 509.418 11.0181C509.912 11.1632 510.427 11.2288 510.942 11.2125C510.694 12.1707 510.358 13.1037 509.937 13.9995C509.328 15.2794 508.536 16.4639 507.585 17.5156C506.579 18.5585 505.494 19.5227 504.341 20.3997C503.971 20.6693 503.721 21.0729 503.645 21.5242C503.569 21.9755 503.674 22.4385 503.935 22.814C504.19 23.2419 504.581 23.5719 505.046 23.7512C505.51 23.9304 506.022 23.9484 506.498 23.8024C509.861 22.1404 512.511 19.321 513.959 15.8628C515.265 12.9877 515.764 9.81215 515.402 6.67566C515.522 6.22668 515.577 5.76287 515.565 5.2984C515.524 4.46936 515.243 3.67 514.756 2.99709C514.27 2.32418 513.598 1.80656 512.824 1.50688" fill="black"/>
<path d="M538.792 8.03674L538.775 8.05286H538.792V8.03674Z" fill="black"/>
<path d="M526.449 8.4742C526.411 8.54641 526.362 8.61206 526.303 8.66865C526.222 8.66865 526.19 8.66864 526.011 8.76586H525.833V8.65244V8.4742C525.829 8.42565 525.829 8.37693 525.833 8.32838C525.869 8.2602 525.902 8.18985 525.93 8.11773C526.076 8.11773 526.108 8.11773 525.93 8.11773L526.027 8.00431C526.125 7.89089 526.027 8.00431 526.027 8.00431H526.254C526.352 8.00431 526.481 8.00431 526.254 8.00431L526.514 8.10154C526.491 8.19111 526.458 8.27799 526.417 8.36078L526.449 8.4742ZM530.504 4.06695C530.108 3.92164 529.679 3.89015 529.266 3.97608C528.854 4.06201 528.473 4.26191 528.168 4.55305C527.705 4.33136 527.214 4.1733 526.709 4.08316C526.601 3.83132 526.432 3.61073 526.216 3.44198C526 3.27323 525.745 3.1618 525.475 3.11812C525.205 3.07444 524.927 3.09992 524.669 3.19217C524.411 3.28442 524.181 3.44044 524 3.64568C523.706 4.01752 523.435 4.40714 523.189 4.81231C522.407 5.36847 521.854 6.18835 521.63 7.12054C521.407 8.05273 521.528 9.03427 521.972 9.88388C522.532 11.0009 523.485 11.8721 524.649 12.3306C525.018 12.4822 525.405 12.5857 525.8 12.6384C526.409 12.7015 527.023 12.6296 527.601 12.4278C527.426 13.5122 527.11 14.569 526.66 15.5712C526.154 16.73 525.408 17.7683 524.47 18.6174C523.411 19.438 522.189 20.0235 520.886 20.3349C520.668 20.4061 520.467 20.52 520.294 20.67C520.121 20.8199 519.979 21.0029 519.878 21.2082C519.777 21.4135 519.718 21.6369 519.704 21.8654C519.691 22.0938 519.723 22.3227 519.799 22.5385C519.962 23.0207 520.275 23.4381 520.692 23.7297C521.109 24.0212 521.609 24.1716 522.118 24.1588C525.816 24.1588 528.898 20.9182 530.374 17.9044C531.606 15.0633 532.134 11.9676 531.915 8.87928C532.052 8.6085 532.166 8.32665 532.256 8.03673C532.519 7.30147 532.483 6.4924 532.155 5.78342C531.828 5.07443 531.235 4.52211 530.504 4.24519" fill="black"/>
</g>
<defs>
<clipPath id="clip0_0_1211">
<rect width="556" height="194" fill="white"/>
</clipPath>
</defs>
</svg>
