<svg width="526" height="95" viewBox="0 0 526 95" fill="none" xmlns="http://www.w3.org/2000/svg">
<g clip-path="url(#clip0_19_944)">
<path d="M255.395 92.7163H255.548C256.156 92.7163 256.764 92.8686 257.221 92.8686C256.764 92.8686 256.308 92.8686 255.852 92.7163C255.7 92.7163 255.548 92.7163 255.395 92.7163ZM259.959 92.7163V92.8686C259.655 92.8686 259.198 92.8686 258.894 92.8686C259.198 92.8686 259.502 92.8686 259.959 92.7163ZM265.283 91.8029C265.283 91.9551 265.283 91.9551 265.283 91.8029H265.435C265.587 91.8029 265.587 91.8029 265.587 91.6506C265.587 91.6506 265.587 91.6506 265.587 91.4984C265.739 91.4984 265.739 91.4984 265.891 91.4984C265.891 91.9551 265.891 92.4118 265.891 92.8686C265.891 92.8686 265.891 92.8686 265.891 93.0208C265.739 93.0208 265.587 93.0208 265.435 93.0208C265.435 92.7163 265.283 92.2596 265.283 91.8029ZM229.993 27.2516C230.297 27.2516 230.449 27.2516 230.753 27.4038C230.449 27.4038 230.297 27.4038 229.993 27.2516C229.993 27.4038 229.993 27.2516 229.993 27.2516ZM268.021 22.2275C267.869 22.2275 267.716 22.0753 267.716 22.0753V21.9231C268.477 22.2275 269.238 22.3798 269.998 22.6843C269.39 22.532 268.629 22.3798 268.021 22.2275ZM264.978 89.8237C264.826 88.6058 264.826 87.2356 264.826 86.0176C264.826 83.2772 264.826 80.5368 264.826 77.7965C264.826 72.3157 264.978 66.9872 264.674 61.5064C265.131 61.5064 265.435 61.5064 265.891 61.5064C265.891 62.2676 266.043 63.0288 266.043 63.7901C266.043 65.008 266.043 66.3782 266.043 67.5961C266.043 70.1843 266.043 72.7724 265.891 75.5128C265.891 80.2324 265.283 84.9519 264.978 89.8237ZM258.59 59.6795C258.59 59.6795 258.438 59.6795 258.59 59.6795C258.438 59.6795 258.438 59.6795 258.59 59.6795C258.438 59.5272 258.438 59.5272 258.59 59.6795C258.438 59.5272 258.438 59.6795 258.59 59.6795ZM265.435 13.2452C265.283 13.2452 265.283 13.0929 265.131 13.0929C265.131 12.3317 265.283 11.5705 265.283 10.8093C265.435 11.5705 265.435 12.484 265.435 13.2452ZM266.043 92.2596C266.043 92.1074 266.043 92.1074 266.043 92.2596V92.2596ZM284.449 47.1955C283.688 43.3894 282.319 39.5833 280.798 36.0817C279.277 32.5801 277.756 28.774 275.626 25.5769C274.105 23.2933 271.367 20.7051 268.325 20.7051C268.325 20.4006 268.325 20.0961 268.325 19.7917C268.325 19.3349 268.477 18.8782 268.477 18.4215C268.629 17.508 268.933 16.7468 269.39 15.8333C269.998 14.1586 270.607 12.3317 270.302 10.5048C269.998 8.83011 268.933 7.30768 267.412 6.39421C266.652 5.93748 264.978 5.32851 263.762 5.48075C262.545 5.48075 261.176 6.08973 260.415 6.6987C259.502 7.45992 258.742 8.37338 258.286 9.43909C258.133 9.74357 258.133 9.89582 257.981 10.2003C257.373 11.1138 256.764 12.0272 256.156 12.9407C255.852 13.3974 256.308 14.1586 256.917 14.1586C257.221 14.1586 257.373 14.1586 257.677 14.1586C257.677 14.4631 257.677 14.7676 257.829 15.2243C257.829 15.5288 257.829 15.8333 257.981 16.1378C258.133 16.7468 258.286 17.0513 258.59 17.508C258.894 17.8125 259.198 17.9647 259.655 17.9647C259.807 17.9647 259.807 17.9647 259.959 18.117C260.111 18.117 260.263 18.117 260.415 18.2692C260.719 18.4215 260.871 18.5737 261.176 18.7259C261.176 18.8782 261.328 19.0304 261.328 19.3349C261.48 19.7917 261.632 20.2484 261.784 20.7051C261.328 20.7051 261.024 20.8574 260.567 20.8574C259.807 21.0096 258.894 21.1618 258.133 21.1618C257.221 21.3141 256.46 21.4663 255.548 21.6186C252.505 21.7708 249.311 22.0753 246.269 22.2275C243.227 22.3798 240.184 22.532 237.142 22.532C236.99 22.532 236.838 22.532 236.686 22.532C234.404 22.532 231.818 22.2275 229.537 22.532C229.689 21.7708 229.384 20.8574 229.08 20.0961C229.08 19.9439 228.928 19.6394 228.928 19.4872V19.3349C228.928 19.1827 228.928 19.0304 228.776 19.0304C228.624 18.5737 228.472 18.117 228.015 17.8125C227.255 17.3558 226.342 17.9647 226.19 18.7259C225.886 19.6394 226.038 20.5529 226.038 21.4663C226.038 23.4455 226.342 25.4247 226.799 27.4038C226.951 27.8606 226.951 28.3173 227.407 28.6218C227.863 28.9263 228.32 28.774 228.776 28.6218C228.776 28.6218 228.776 28.6218 228.928 28.6218C231.058 29.2308 233.644 29.0785 235.773 29.2308C238.207 29.383 240.793 29.383 243.227 29.5352C245.66 29.5352 248.246 29.5352 250.68 29.5352C251.897 29.5352 253.114 29.5352 254.331 29.5352C254.787 29.5352 255.395 29.5352 255.852 29.5352C255.852 29.6875 255.852 29.8397 256.004 29.992C256.004 30.2965 256.156 30.6009 256.156 30.9054C256.308 31.5144 256.46 31.9711 256.612 32.5801C256.46 35.016 256.46 37.4519 256.46 39.8878C256.46 42.9327 256.46 46.1298 256.46 49.1747C256.46 52.2195 256.46 55.2644 256.46 58.3093C256.46 59.2227 256.156 60.7452 257.221 61.3541C257.525 61.5064 257.829 61.6586 258.286 61.6586C258.286 62.4199 258.286 63.3333 258.286 64.0945C258.286 65.4647 258.438 66.8349 258.438 68.2051C258.59 70.9455 258.59 73.6859 258.742 76.274C258.894 78.8622 258.894 81.4503 259.046 84.0384C259.046 85.2564 259.198 86.4743 259.35 87.8445C259.502 88.9102 259.502 90.1282 259.959 91.1939C259.807 91.1939 259.655 91.1939 259.655 91.1939C259.35 91.1939 259.046 91.3461 258.742 91.3461C258.133 91.3461 257.525 91.3461 257.069 91.1939C256.004 91.0416 254.939 90.7372 254.026 91.4984C253.266 92.1074 252.962 93.0208 253.418 93.782C253.874 94.5433 254.787 94.8477 255.7 95C257.981 95.3045 260.567 95.3045 262.849 95.3045C264.218 95.3045 265.435 95.3045 266.804 95.3045C267.716 95.3045 268.781 95.3045 269.694 95C270.15 95.1522 270.759 95 270.911 94.391C274.105 77.1875 273.345 59.6795 273.04 42.3237C273.04 38.8221 273.04 35.1683 273.04 31.6666C275.018 35.3205 276.995 38.9743 278.821 42.7804C279.429 43.9984 280.037 45.2163 280.646 46.4343C280.798 46.7388 280.798 47.0433 280.95 47.3477C280.95 47.5 280.95 47.5 280.95 47.6522C281.102 48.5657 281.102 49.4791 280.95 50.3926C280.646 51.4583 280.19 52.6763 280.342 53.8942C280.646 55.2644 282.319 56.9391 283.84 56.3301C283.992 56.3301 283.992 56.3301 284.144 56.3301C284.297 56.3301 284.449 56.3301 284.601 56.1779C284.905 56.0256 285.057 55.8734 285.209 55.5689C285.513 54.9599 285.361 54.0465 285.361 53.4375C285.057 51.1538 284.905 49.1747 284.449 47.1955Z" fill="black"/>
<path d="M182.837 76.1218C182.381 76.7308 181.925 77.3398 181.468 77.9487C184.511 73.6859 187.401 69.5753 190.443 65.3125C196.071 57.3959 201.851 49.4792 207.479 41.5625C205.35 44.4551 203.372 47.5 201.243 50.3926C195.158 59.0705 189.074 67.5962 182.837 76.1218ZM160.021 82.8205C160.021 82.8205 160.021 82.9728 160.021 82.8205C160.021 82.6683 160.021 82.6683 160.021 82.5161V82.3638C160.173 82.516 160.477 82.6683 160.629 82.8205C160.629 82.9728 160.781 83.125 161.086 83.2773C161.542 83.734 162.15 84.0385 162.607 84.4952C163.063 84.7997 163.519 85.2564 163.976 85.5609C163.671 85.4087 163.367 85.1042 163.063 84.9519C162.15 84.1907 161.238 83.4295 160.021 82.8205ZM155.305 82.0593C154.545 82.8205 153.936 83.5818 153.176 84.343C151.807 85.8654 150.286 87.3878 148.917 89.0625C148.917 88.9103 148.917 88.758 148.917 88.4535C148.917 88.1491 148.917 87.9968 148.765 87.6923C148.765 87.3878 148.612 87.0834 148.612 86.7789C148.612 86.6266 148.46 86.4744 148.46 86.3221C148.46 86.1699 148.308 86.1699 148.308 86.0176C148.308 86.0176 148.308 85.8654 148.156 85.8654L148.004 85.7132C148.004 85.7132 148.004 85.7132 148.156 85.7132C148.917 84.9519 149.677 84.343 150.286 83.734C150.894 83.125 151.503 82.516 152.111 81.9071C153.328 80.6891 154.393 79.3189 155.457 78.101C155.914 77.492 156.37 77.0353 156.826 76.4263C156.826 76.7308 156.826 77.0353 156.826 77.492C156.826 78.101 156.826 78.8622 156.826 79.4712C156.826 79.7757 156.674 80.0801 156.826 80.3846C156.826 80.5369 156.826 80.5369 156.979 80.6891C156.826 80.8414 156.826 80.8414 156.674 80.9936C155.914 81.2981 155.61 81.6026 155.305 82.0593ZM144.658 82.9728C143.745 82.2116 142.68 81.4503 141.768 80.6891C140.855 79.9279 139.942 79.3189 138.877 78.5577C137.813 77.7965 136.9 77.0353 135.683 76.5785C139.182 72.468 142.376 68.2051 145.874 64.0946C149.221 59.8317 152.719 55.7212 156.066 51.6106C163.063 43.085 169.908 34.7116 176.905 26.3382C178.883 24.0545 180.86 21.6186 182.685 19.1827C183.598 18.117 184.511 16.8991 185.423 15.8334C186.336 14.7676 187.249 13.7019 187.857 12.484C188.466 13.093 189.226 13.7019 189.987 14.3109C190.899 15.0721 191.964 15.9856 192.877 16.7468C193.789 17.508 194.702 18.4215 195.615 19.1827C196.071 19.6394 196.527 19.9439 196.984 20.4007C197.44 20.8574 197.896 21.3141 198.657 21.3141L198.505 21.4664C195.006 25.8814 191.508 30.2965 188.009 34.8638C184.663 39.1266 181.468 43.5417 177.97 47.8045C174.623 51.7628 171.581 55.8734 168.387 59.984C167.322 61.3542 166.41 62.5721 165.497 63.9423C164.888 64.3991 164.432 65.1603 163.976 65.617C163.215 66.5305 162.455 67.4439 161.542 68.3574C159.869 70.1843 158.348 72.0112 156.674 73.8382C153.48 77.492 150.286 81.2981 147.091 84.9519C146.331 84.343 145.418 83.734 144.658 82.9728ZM141.92 64.2468C143.289 62.8766 144.658 61.5064 145.874 60.2885C145.57 60.7452 145.266 61.2019 144.81 61.5064C143.897 62.4199 142.832 63.3334 141.92 64.2468ZM167.018 37.2997C166.257 38.2132 165.345 39.2789 164.584 40.1923C165.04 39.7356 165.345 39.2789 165.801 38.8221C166.105 38.2132 166.562 37.7564 167.018 37.2997ZM124.731 80.3846C123.362 81.6026 122.145 82.8205 120.776 84.1907C119.559 85.4087 118.19 86.4744 117.126 87.8446V87.6923C117.126 87.3878 117.126 87.2356 116.973 86.9311C116.973 86.6266 116.821 86.3221 116.821 86.1699C116.821 86.0176 116.821 86.0177 116.669 85.8654V85.7132C116.669 85.7132 116.669 85.5609 116.517 85.5609C116.973 85.2564 117.278 84.7997 117.582 84.4952C118.495 83.5818 119.559 82.516 120.472 81.6026C122.449 79.6234 124.427 77.7965 126.404 75.8173C130.511 71.859 134.466 67.7484 138.421 63.7901C146.179 56.0257 153.936 48.2612 161.694 40.6491C163.063 39.2789 164.584 37.9087 165.953 36.5385C165.497 36.9952 165.193 37.4519 164.736 37.9087C162.303 40.6491 159.869 43.3894 157.587 46.1298C156.522 47.1955 155.61 48.2612 154.545 49.3269C151.959 51.9151 149.525 54.6555 146.939 57.2436C142.376 62.1154 137.508 66.6827 133.554 72.0112C133.249 72.3157 133.097 72.468 132.793 72.7725C130.207 75.2084 127.469 77.7965 124.731 80.3846ZM107.999 77.9487C107.39 77.1875 106.63 76.4263 105.869 75.8173C107.847 73.8382 109.824 71.7067 111.65 69.7276C113.475 67.7484 115.452 65.9215 117.278 63.9423C121.08 60.1362 124.883 56.4824 128.686 52.8285C136.292 45.3686 144.049 38.0609 151.959 30.9055C156.522 26.7949 161.238 22.9888 165.497 18.8782C166.714 20.4007 167.931 21.9231 169.147 23.4455C169.756 24.2068 170.516 24.968 171.125 25.7292C171.429 26.1859 171.885 26.6427 172.19 26.9471C172.494 27.2516 172.646 27.5561 172.95 27.8606C172.342 28.4696 171.733 28.9263 171.125 29.5353C170.212 30.4487 169.147 31.5144 168.235 32.4279C166.409 34.4071 164.432 36.234 162.607 38.2132C158.956 42.0192 155.153 45.6731 151.35 49.3269C143.745 56.7869 136.139 64.2468 128.382 71.7067C126.252 73.8382 123.971 75.9696 121.841 78.101C120.776 79.1667 119.711 80.2324 118.495 81.2981C118.038 81.7548 117.43 82.2116 116.973 82.8205C116.821 82.9728 116.061 84.0385 115.452 84.343C115.3 84.343 115.148 84.343 114.996 84.343C113.171 82.9728 111.497 81.6026 109.824 80.0801C109.368 79.4712 108.759 78.71 107.999 77.9487ZM88.5286 81.2981C85.7906 83.2773 82.7484 84.952 80.1625 87.0834C80.1625 86.7789 80.1625 86.4744 80.0104 86.1699C80.0104 86.0176 79.8583 85.8654 79.8583 85.5609C79.8583 85.4087 79.7062 85.1042 79.7062 84.9519C79.7062 84.7997 79.5541 84.6475 79.5541 84.6475C83.6611 82.516 87.3117 79.7757 91.1145 77.3398C94.9173 74.7516 98.568 72.1635 102.219 69.4231C107.238 65.9215 112.258 62.2677 117.278 58.6138C114.235 61.2019 111.345 63.6378 108.303 66.0737C106.326 67.7484 104.196 69.4231 102.067 71.0978C99.7849 72.9247 97.3511 74.5994 95.3736 76.5785C93.092 78.2532 90.8103 79.7757 88.5286 81.2981ZM75.295 83.4295C73.6217 81.9071 72.1006 80.3846 70.5795 78.71C70.5795 78.71 70.5795 78.71 70.5795 78.5577C70.5795 78.101 70.5795 77.6443 70.5795 77.1875C70.5795 76.7308 70.5795 76.2741 70.5795 75.8173C70.5795 75.3606 70.5795 75.0561 70.5795 74.5994C71.6443 75.9696 72.8612 77.3398 73.926 78.71C74.6865 79.6234 75.295 80.3846 75.9034 81.2981C76.664 82.2116 77.2724 83.2773 78.033 84.0385C78.1851 84.1907 78.3372 84.1907 78.4893 84.1907C78.4893 84.1907 78.3372 84.343 78.3372 84.4952C78.3372 84.7997 78.3372 84.9519 78.3372 85.2564C78.3372 85.4087 78.3372 85.7132 78.4893 85.8654C78.4893 86.0177 78.4893 86.3221 78.6414 86.4744C78.3372 86.1699 77.8809 85.8654 77.5766 85.4087C76.8161 84.9519 76.0555 84.1907 75.295 83.4295ZM55.6726 81.7548C53.5431 83.125 51.4135 84.6475 49.4361 86.1699C47.6108 87.5401 45.7854 88.9103 44.1122 90.4327C44.1122 90.4327 44.1122 90.4327 44.1122 90.2805C44.1122 90.1282 44.1122 89.8237 43.9601 89.5192C43.9601 89.2148 43.9601 88.9103 43.9601 88.758C43.9601 88.6058 43.9601 88.6058 43.808 88.4535C58.4106 78.8622 72.4049 68.2052 87.0075 58.6138C84.7259 60.2885 82.4442 61.9632 80.1625 63.6378C77.2724 65.7693 74.3823 67.9007 71.4922 70.0321C70.7316 70.4888 69.819 71.0978 69.0584 71.7067C66.3204 73.5337 63.5824 75.5128 61.3008 77.6443C61.1486 77.7965 61.3008 77.9487 61.4529 77.9487C59.4754 79.3189 57.498 80.5369 55.6726 81.7548ZM39.0925 85.8654C38.4841 85.1042 37.7235 84.343 36.963 83.5818C36.2024 82.6683 35.2898 81.9071 34.5292 81.1459C34.9855 80.8414 34.8334 80.3846 34.8334 79.9279C34.8334 79.6234 34.6813 79.3189 34.6813 78.8622V78.71C35.7461 80.0802 36.8109 81.4503 37.8757 82.8205C38.6362 83.734 39.3968 84.6475 40.0052 85.4087C40.4615 85.8654 40.7658 86.3221 41.2221 86.7789C41.6784 87.2356 41.9827 87.8446 42.5911 88.1491C42.7432 88.1491 42.8953 88.1491 42.8953 88.1491C42.8953 88.1491 42.8953 88.3013 42.7432 88.3013C42.5911 88.4535 42.5911 88.758 42.5911 88.9103C42.5911 89.0625 42.5911 89.2148 42.5911 89.367C41.5263 88.4536 40.3094 87.2356 39.0925 85.8654ZM21.904 82.3638C18.5575 84.343 15.2111 86.3221 11.8647 88.3013V88.1491V87.9968C11.7126 87.6923 11.7126 87.3878 11.7126 87.0834C11.7126 86.9311 11.7126 86.7789 11.7126 86.6266C18.1012 82.6683 24.4899 79.0144 31.0307 75.3606C31.0307 75.3606 31.0307 75.3606 31.0307 75.5128C30.8785 75.5128 30.8785 75.5128 30.7264 75.6651C30.4222 75.9696 30.4222 75.8173 30.2701 75.9696C30.2701 75.9696 30.2701 75.9696 30.2701 76.1218C30.2701 76.2741 30.2701 76.2741 30.2701 76.4263C30.2701 76.5786 30.2701 76.7308 30.2701 76.883C30.2701 77.1875 30.4222 77.492 30.5743 77.7965C30.5743 77.7965 30.5743 77.7965 30.7264 77.9487C27.38 79.0145 24.642 80.6891 21.904 82.3638ZM3.65067 81.7548C2.89011 80.9936 2.12955 80.2324 1.369 79.3189C1.52111 79.1667 1.52111 79.0144 1.52111 78.8622C1.52111 78.4055 1.369 78.101 1.369 77.6443C1.369 77.3398 1.21689 77.0353 1.21689 76.7308C1.21689 76.5786 1.21689 76.5786 1.06478 76.4263C1.369 76.883 1.82533 77.3398 2.12955 77.7965C3.04222 78.8622 3.80278 79.7757 4.71544 80.8414C5.476 81.7548 6.38866 82.6683 7.14922 83.734C7.90977 84.6475 8.67033 85.7132 9.583 86.4744C9.73511 86.6266 10.0393 86.6266 10.1914 86.6266C10.1914 86.6266 10.1914 86.6266 10.1914 86.7789C10.1914 86.9311 10.1914 87.0834 10.1914 87.2356C10.1914 87.3878 10.1914 87.6923 10.1914 87.8446C10.1914 87.9968 10.1914 87.9968 10.1914 88.1491C8.67033 86.9311 7.14922 85.5609 5.78022 84.1907C5.17178 83.2773 4.41122 82.5161 3.65067 81.7548ZM58.1064 59.984C58.2585 59.8318 58.4106 59.6795 58.7149 59.6795C58.5628 59.6795 58.2585 59.8318 58.1064 59.984ZM33.4644 76.5785V76.4263V76.2741C33.4644 76.2741 33.4644 76.2741 33.4644 76.1218C33.4644 75.9696 33.4644 75.9696 33.4644 75.8173C37.4193 73.3814 41.2221 70.7933 45.177 68.3574C45.6333 68.0529 46.0896 67.7484 46.6981 67.4439C42.439 70.1843 38.0278 72.9247 33.7687 75.8173C33.4644 75.9696 33.4644 76.1218 33.4644 76.5785C33.4644 76.4263 33.4644 76.4263 33.4644 76.5785ZM32.0954 76.5785C32.0954 76.2741 32.0954 75.9696 32.0954 75.5128C32.0954 75.6651 32.0954 75.8173 32.2475 75.8173C32.2475 75.9696 32.2475 76.1218 32.0954 76.2741C32.2475 76.4263 32.2475 76.5785 32.0954 76.5785V76.7308C32.0954 76.7308 32.0954 76.7308 32.0954 76.5785ZM31.3349 77.0353C31.3349 77.0353 31.487 77.0353 31.3349 77.0353C31.487 77.0353 31.3349 77.0353 31.3349 77.0353ZM92.7877 38.3654C97.199 35.7773 102.371 33.7981 106.021 29.992C107.39 31.6667 108.607 33.4936 109.824 35.1683C110.433 36.0818 111.041 36.9952 111.65 37.9087C111.954 38.3654 112.258 38.8221 112.562 39.2789C112.866 39.7356 113.171 40.3446 113.627 40.6491L113.779 40.8013C113.475 41.1058 113.019 41.4103 112.714 41.5625C109.216 44.1507 105.565 46.5866 102.067 49.1747C102.371 49.0225 102.067 48.5657 101.762 48.718C100.698 49.1747 99.7849 49.6314 98.8722 50.2404C98.7201 50.0882 98.7201 50.0882 98.568 50.2404C97.8074 50.6971 97.0469 51.3061 96.2863 51.9151C96.1342 52.0673 95.9821 52.0673 95.83 52.2196C94.0046 53.2853 92.3314 54.351 90.5061 55.4167C86.7033 57.8526 83.0526 60.4407 79.402 63.0289C71.7964 68.3574 64.0387 73.5337 56.4332 78.8622C52.022 81.9071 47.6108 85.1042 43.1995 88.3013C43.3517 88.1491 43.3517 87.9968 43.3517 87.8446C43.1995 87.2356 42.7432 86.9311 42.2869 86.4744C41.9827 86.0176 41.5263 85.5609 41.2221 85.1042C40.4615 84.1907 39.701 83.2773 38.9404 82.3638C37.4193 80.5369 36.0503 78.71 34.5292 76.883C44.4164 70.3366 54.1515 63.6378 64.0387 57.0914C68.9063 53.8943 73.7739 50.6971 78.6414 47.5C83.3569 44.3029 87.9202 41.258 92.7877 38.3654ZM107.847 31.6667C107.39 30.9055 106.782 30.2965 106.326 29.5353C106.326 29.5353 106.326 29.5353 106.478 29.383V29.5353C106.934 30.2965 107.39 31.0577 107.847 31.6667ZM112.41 37.6042C113.019 38.3654 113.779 39.2789 114.235 40.0401C114.235 40.1923 114.235 40.3446 114.388 40.3446C114.235 40.3446 114.235 40.4968 114.083 40.4968V40.3446C113.931 39.8878 113.475 39.4311 113.171 38.9744C113.019 38.6699 112.714 38.2132 112.41 37.6042C111.65 36.6907 111.041 35.7773 110.433 34.8638C110.281 34.7116 110.281 34.5593 110.128 34.5593C110.281 34.7116 110.433 34.8638 110.585 35.1683C111.193 35.9295 111.802 36.843 112.41 37.6042ZM71.6443 71.4023C71.7964 71.25 71.9485 71.0978 72.2527 70.9455C71.4922 71.5545 70.8838 72.0112 70.1232 72.468C69.9711 72.468 69.9711 72.6202 69.9711 72.7725C69.819 72.7725 69.6669 72.9247 69.6669 72.9247C69.6669 72.9247 69.6669 72.9247 69.5148 72.9247L69.3626 73.0769L69.2105 73.2292C68.9063 73.5337 68.45 73.8382 67.9936 74.1427C67.8415 74.2949 67.6894 74.2949 67.5373 74.4471C67.6894 74.2949 67.8415 74.1427 67.9936 74.1427C69.0584 73.2292 70.4274 72.1635 71.6443 71.4023ZM94.7652 54.351C95.83 53.4375 96.7426 52.6763 97.8074 51.7628C99.1764 51.0016 100.545 50.2404 101.914 49.3269C99.3285 51.1539 96.8947 52.8285 94.3089 54.6555C94.461 54.6555 94.6131 54.5032 94.7652 54.351ZM69.5148 73.9904C69.3626 73.8382 69.3626 73.8382 69.2105 73.8382C69.3626 73.8382 69.3626 73.6859 69.5148 73.5337C69.5148 73.6859 69.5148 73.8382 69.5148 73.9904ZM114.844 63.7901C114.692 63.9423 114.692 64.0946 114.692 64.2468C114.388 64.3991 114.083 64.5513 113.931 64.7035C114.235 64.3991 114.54 64.0946 114.844 63.7901ZM105.413 69.8798C105.565 69.8798 105.717 69.8798 105.869 69.7276C106.326 69.2709 106.782 68.9664 107.238 68.6619C108.151 68.0529 109.216 67.4439 110.128 66.835C110.433 66.5305 110.889 66.3782 111.193 66.0737C111.193 66.226 111.345 66.3782 111.345 66.3782C108.607 68.0529 106.021 69.7276 103.436 71.4023C104.044 70.9455 104.805 70.3366 105.413 69.8798ZM123.514 54.8077C124.123 54.1987 124.883 53.4375 125.492 52.8285C125.796 52.6763 126.1 52.3718 126.404 52.2196C125.34 52.9808 124.427 53.8942 123.514 54.8077ZM132.032 29.383C134.162 28.0128 136.292 26.4904 138.117 24.6635C138.269 24.968 138.421 25.2725 138.573 25.5769C138.877 26.0337 139.182 26.4904 139.486 26.9471C140.094 27.8606 140.855 28.7741 141.463 29.6875C142.832 31.3622 144.201 33.0369 145.57 34.7116C145.722 34.8638 146.027 35.016 146.179 34.8638C144.505 36.3862 142.984 37.7564 141.311 39.2789C139.79 40.6491 138.269 42.1715 136.748 43.6939C136.596 43.6939 136.444 43.6939 136.292 43.6939C134.314 44.6074 132.337 46.1298 130.511 47.5C128.686 48.718 126.861 50.0882 125.035 51.3061C121.385 53.8943 117.734 56.6346 114.083 59.2228C106.782 64.5513 99.4806 70.0321 92.0272 75.2084C87.7681 78.101 83.2048 80.8414 78.9456 83.8862C79.0977 83.734 79.0977 83.4295 78.9456 83.2773C78.3372 82.2116 77.4245 81.2981 76.664 80.3846C75.9034 79.4712 75.295 78.71 74.5344 77.7965C73.1654 76.2741 71.9485 74.7516 70.4274 73.3814H70.5795C79.402 66.3782 88.3765 59.6795 97.3511 53.133C103.131 48.8702 108.912 44.6074 114.692 40.4968C114.844 40.4968 114.844 40.3446 114.996 40.3446C118.19 38.0609 121.537 35.7773 124.883 33.6459C127.469 32.2757 129.751 30.9055 132.032 29.383ZM146.939 34.1026C147.091 34.2548 147.243 34.1026 147.243 34.1026C147.091 34.2548 146.939 34.4071 146.787 34.4071C146.787 34.4071 146.787 34.4071 146.787 34.2548C146.787 34.4071 146.787 34.4071 146.787 34.2548C146.787 34.1026 146.787 34.1026 146.635 33.9503C146.635 33.9503 146.635 33.9503 146.939 34.1026C146.787 33.9503 146.787 33.9503 146.635 33.9503C146.635 33.9503 146.787 33.9503 146.939 34.1026ZM172.342 30.601H172.19C172.646 30.1443 173.102 29.6875 173.407 29.2308C173.102 29.6875 172.798 30.1443 172.342 30.601ZM174.167 26.4904C174.319 26.6426 174.623 26.7949 174.776 26.6426C174.928 26.6426 175.08 26.4904 175.232 26.3382C175.232 26.3382 175.232 26.3382 175.384 26.4904C175.384 26.4904 175.384 26.4904 175.384 26.6426L175.232 26.7949C175.08 26.6426 174.928 26.6426 174.776 26.6426C174.471 26.7949 174.319 27.0994 174.015 27.2516C173.863 26.9471 173.711 26.7949 173.407 26.6426C173.102 26.1859 172.798 25.8814 172.342 25.4247C171.581 24.6635 170.973 23.75 170.212 22.9888C169.908 22.6843 169.604 22.3798 169.452 22.0753C171.125 23.5978 172.646 25.1202 174.167 26.4904ZM175.84 25.5769C176.449 25.1202 177.057 24.5112 177.666 23.9023C177.057 24.6635 176.601 25.2725 175.992 26.0337L175.84 25.8814C175.84 25.7292 175.688 25.7292 175.688 25.5769C175.536 25.5769 175.688 25.5769 175.84 25.5769ZM199.57 20.0962L199.722 19.9439C199.722 19.9439 199.722 20.0962 199.57 20.0962ZM171.581 90.7372C171.733 90.7372 171.733 90.8895 171.885 90.8895C171.885 91.0417 171.733 91.0417 171.733 91.1939C171.581 91.0417 171.429 91.0417 171.277 90.8895C171.429 90.7372 171.429 90.7372 171.581 90.7372ZM161.238 82.0593C161.086 81.9071 160.781 81.6026 160.629 81.6026C160.933 81.4503 161.086 81.1459 161.086 80.8414C160.934 79.7757 160.629 78.8622 160.477 77.7965C161.238 78.5577 161.998 79.3189 162.911 80.0801C163.824 80.8414 164.736 81.6026 165.497 82.2116C167.17 83.5818 168.843 85.1042 170.669 86.4744C170.669 86.4744 170.821 86.4744 170.821 86.6266C170.973 87.2356 170.973 87.8446 171.125 88.4535C171.125 88.6058 171.277 88.9103 171.277 89.0625V89.2148C169.604 87.9968 167.931 86.7789 166.257 85.5609C164.432 84.4952 162.911 83.2773 161.238 82.0593ZM159.26 73.5337V73.3814C159.412 73.2292 159.564 73.077 159.717 72.9247C159.564 73.077 159.412 73.2292 159.26 73.5337ZM158.043 76.5785C158.043 76.5785 158.043 76.7308 158.043 76.5785C158.043 76.4263 158.043 76.1218 157.891 75.9696C158.043 75.6651 158.043 75.2084 157.739 75.0561C157.891 74.9039 158.043 74.7516 158.043 74.5994C158.043 75.2084 158.043 75.9696 158.043 76.5785ZM160.325 77.3398C160.325 77.492 160.325 77.492 160.325 77.3398C160.325 77.492 160.325 77.492 160.325 77.492C160.325 77.492 160.325 77.492 160.325 77.3398ZM220.257 18.2693C219.04 19.6394 218.127 21.1619 217.062 22.6843C215.846 24.359 214.629 25.8814 213.412 27.5561C210.826 30.7532 208.24 33.9503 205.654 37.1475C200.482 43.5417 195.615 49.9359 191.812 57.2436C191.66 57.3959 191.964 57.7003 192.116 57.3959C196.527 50.2404 201.851 43.6939 207.023 37.1475C209.609 33.9503 212.195 30.7532 214.781 27.5561C215.998 26.0337 217.215 24.359 218.431 22.6843C219.04 21.9231 219.648 21.1619 220.105 20.2484C219.953 20.5529 219.953 20.8574 219.8 21.1619C219.648 21.6186 219.496 22.0753 219.344 22.6843C219.192 22.9888 219.192 23.2933 219.04 23.5978C218.888 23.9023 218.736 24.359 218.584 24.6635C218.431 24.968 218.584 25.2725 218.888 25.4247C218.736 25.5769 218.584 25.8814 218.431 26.0337C218.584 25.7292 218.127 25.4247 217.975 25.7292C214.629 29.6875 211.739 33.9503 208.696 38.2132C205.806 42.1715 202.916 46.2821 200.026 50.2404C193.942 58.6138 187.857 66.9872 181.773 75.3606C180.099 77.6443 178.426 79.9279 176.905 82.2116C175.992 83.4295 175.232 84.6475 174.319 85.7132C173.863 86.3221 173.407 86.9311 172.95 87.5401C172.798 87.8446 172.646 87.9968 172.342 88.3013C172.19 88.4535 172.19 88.6058 172.038 88.6058C172.038 88.4536 172.038 88.4535 171.885 88.3013C171.733 87.6923 171.429 87.2356 171.277 86.6266C171.429 86.4744 171.429 86.1699 171.429 85.8654C171.581 85.8654 171.885 85.8654 172.038 85.7132C172.95 84.7997 173.559 83.4295 174.167 82.2116C174.928 80.9936 175.84 79.7757 176.601 78.71C178.274 76.4263 179.795 74.1426 181.468 72.0112C182.99 70.0321 184.511 68.0529 186.032 66.0737C187.705 63.9423 189.53 61.9632 191.051 59.8318C191.204 59.5273 190.899 59.2228 190.595 59.5273C188.618 61.3542 187.097 63.6378 185.271 65.617C183.598 67.7484 181.773 69.8798 180.099 72.1635C178.426 74.2949 176.905 76.4263 175.384 78.5577C174.623 79.6234 173.863 80.6891 173.102 81.7548C172.342 82.8205 171.277 83.8862 170.669 85.1042C170.669 85.2564 170.669 85.2564 170.669 85.4087C170.669 85.4087 170.669 85.4087 170.516 85.4087C168.995 84.1907 167.322 82.9728 165.801 81.6026C164.888 80.8414 164.128 80.2324 163.215 79.4712C162.303 78.8622 161.542 78.2532 160.629 77.6443C161.086 77.492 160.934 76.7308 160.477 76.5785L160.325 76.4263C160.325 76.4263 160.173 76.2741 160.021 76.2741C159.869 76.2741 159.869 76.2741 159.717 76.2741H159.564V76.1218C159.564 75.9696 159.564 75.9696 159.412 75.9696C159.412 75.8173 159.26 75.8173 159.26 75.6651C159.26 75.5128 159.26 75.5128 159.26 75.3606C159.26 75.3606 159.26 75.3606 159.26 75.2084C159.412 75.2084 159.564 75.0561 159.564 74.9039C161.086 72.3157 162.607 69.7276 164.28 67.1394C164.432 66.9872 164.432 66.9872 164.584 66.835C165.345 65.9215 166.409 65.1603 166.866 63.9423C167.018 63.7901 166.866 63.4856 166.714 63.3334C167.018 62.8766 167.322 62.4199 167.626 61.9632C170.669 57.8526 173.711 53.742 176.905 49.7837C183.902 40.9535 191.051 32.1234 198.201 23.2933C200.178 20.8574 202.003 18.4215 203.829 16.1378C204.741 14.9199 205.806 13.7019 206.719 12.3318C207.327 11.4183 207.936 10.5048 208.544 9.43912C208.696 9.28688 208.696 9.28688 208.848 9.13464C210.674 10.6571 212.347 12.1795 214.172 13.5497C216.454 15.2244 218.279 16.8991 220.257 18.2693ZM221.322 17.508C221.322 17.3558 221.169 17.3558 221.017 17.3558C217.062 14.0064 212.803 10.9616 208.696 7.76444C208.24 7.45996 207.784 8.06893 208.088 8.37342L208.24 8.52566C207.936 8.83015 207.479 9.13464 207.175 9.43912C206.719 9.89585 206.263 10.3526 205.806 10.8093C204.894 11.7228 203.981 12.7885 203.068 13.7019C202.156 14.6154 201.395 15.6811 200.634 16.7468C200.33 17.2035 199.874 17.6603 199.57 18.2693C199.265 18.5737 198.961 19.0305 198.657 19.335C198.505 19.4872 198.505 19.4872 198.505 19.6394C196.832 18.5737 195.615 17.0513 194.246 15.8334C192.877 14.6154 191.356 13.3975 189.682 12.484C189.074 12.0273 188.466 11.5705 187.705 11.1138C187.249 10.8093 186.792 11.4183 187.097 11.875L187.249 12.0273C187.097 12.1795 186.944 12.3318 186.792 12.484C186.64 12.3318 186.336 12.3318 186.184 12.484C185.119 13.093 184.206 14.1587 183.294 15.0721C182.533 15.9856 181.773 17.0513 181.012 18.117C179.187 20.5529 177.057 22.6843 175.08 24.968L174.928 25.1202C174.928 24.968 174.776 24.968 174.776 24.8157C174.471 24.359 174.015 23.9023 173.711 23.4455C173.559 23.2933 173.407 23.2933 173.254 23.4455C173.102 23.5978 173.102 23.75 173.254 23.9023L173.407 24.0545C171.125 21.9231 168.995 19.9439 166.562 18.117C166.714 17.6603 166.257 17.2035 165.801 17.508C165.801 17.508 165.801 17.508 165.649 17.6603C161.39 21.0096 157.587 24.8157 153.48 28.3173C151.35 30.1443 149.373 32.1234 147.243 33.9503C147.396 33.7981 147.396 33.7981 147.396 33.6459C147.396 33.4936 147.091 33.1891 146.939 33.0369C146.787 32.8846 146.635 32.7324 146.483 32.5801C146.179 32.2757 145.874 31.8189 145.57 31.5144C144.962 30.7532 144.353 30.1443 143.745 29.383C143.593 29.2308 143.289 29.383 143.441 29.5353C144.049 30.2965 144.506 31.0577 144.962 31.8189C145.266 32.1234 145.57 32.5801 145.722 32.8846C145.875 33.0369 146.027 33.1891 146.179 33.4936C146.179 33.6459 146.331 33.6459 146.331 33.7981C146.179 33.6459 146.027 33.3414 145.874 33.1891C145.57 32.7324 145.114 32.2757 144.81 31.8189C144.049 30.9055 143.289 29.992 142.528 28.9263C142.224 28.6218 142.072 28.3173 141.768 27.8606C142.072 28.1651 142.376 28.3173 142.528 28.6218C142.68 28.7741 142.984 28.6218 142.832 28.4696C142.528 28.0128 142.224 27.5561 141.768 27.0994C141.463 26.6426 141.007 26.1859 140.703 25.8814C140.094 25.1202 139.334 24.359 138.573 23.5978C138.573 23.4455 138.421 23.4455 138.269 23.4455C138.117 23.2933 137.965 23.2933 137.813 23.4455C135.683 25.1202 133.706 26.7949 131.576 28.3173C129.599 29.6875 127.469 31.0577 125.492 32.2757C121.841 34.5593 118.495 37.1475 114.996 39.7356C114.844 39.5834 114.692 39.2789 114.54 39.1266C114.235 38.6699 113.779 38.2132 113.475 37.7564C112.714 36.843 112.106 35.9295 111.345 34.8638C109.824 32.8846 108.303 31.0577 106.782 29.2308C106.63 29.0785 106.478 29.0785 106.326 29.0785C106.63 28.7741 106.174 28.3173 105.717 28.6218C102.067 32.1234 97.5032 34.2548 93.2441 36.843C88.8329 39.5834 84.2695 42.6282 79.7062 45.6731C75.1429 48.718 70.5795 51.7628 66.0162 54.6555C65.8641 54.5032 65.5599 54.351 65.4078 54.5032C57.9543 58.4616 50.653 62.7244 43.3517 66.835C36.3545 70.641 29.5095 74.5994 22.6645 78.71C18.8618 80.9936 15.059 83.4295 11.4083 85.8654L11.2562 85.7132C11.1041 85.7132 11.1041 85.7132 10.952 85.7132C10.952 85.7132 10.952 85.5609 10.7999 85.5609C10.1914 84.6475 9.27877 83.734 8.36611 82.8205C7.60555 81.9071 6.69289 80.9936 5.93233 80.0801C5.01966 79.1667 4.25911 78.101 3.34644 77.1875C2.89011 76.7308 2.58589 76.2741 2.12955 75.8173C1.67322 75.3606 1.21689 75.0561 0.912666 74.7516C5.78022 72.7725 10.6478 69.8798 15.2111 66.9872C19.9265 64.0946 24.642 61.2019 29.3574 58.4616C39.2447 52.6763 49.284 47.3478 59.4754 42.0192C65.1035 38.9744 70.8838 36.0818 76.5119 33.0369C77.4245 34.5593 78.3372 36.0818 79.2499 37.4519C79.8583 38.3654 80.6189 39.2789 81.2273 40.0401C81.8357 40.9535 82.5963 41.867 83.3569 42.6282C83.8132 43.085 84.7259 42.6282 84.5737 42.0192C84.7259 42.1715 84.7259 42.1715 84.878 42.1715C85.0301 42.1715 85.0301 42.1715 85.1822 42.0192V41.867V41.7148C85.1822 41.5625 85.0301 41.5625 85.0301 41.4103C84.878 41.258 84.5737 40.9535 84.4216 40.8013C84.1174 40.6491 83.9653 40.4968 83.6611 40.3446C83.509 40.3446 83.509 40.3446 83.3569 40.3446C83.0526 40.0401 82.7484 39.7356 82.4442 39.2789C81.8357 38.3654 81.0752 37.6042 80.4668 36.6907C79.402 35.3205 78.3372 33.9503 77.4245 32.4279C77.5766 32.4279 77.5766 32.2757 77.7287 32.2757C77.8809 32.5801 78.033 32.7324 78.1851 32.8846C78.4893 33.3414 78.7935 33.7981 79.2499 34.2548C79.8583 35.1683 80.3146 36.0817 80.9231 36.9952C81.0752 37.1475 81.3794 36.9952 81.2273 36.843C80.771 35.7773 80.0104 34.8638 79.5541 33.7981C79.402 33.3414 79.0977 32.8846 78.7935 32.4279C78.6414 32.1234 78.3372 31.6667 78.033 31.5144L77.8809 31.3622C77.7288 31.3622 77.7288 31.3622 77.5766 31.3622C77.4245 31.21 77.1203 31.21 76.9682 31.3622C76.9682 31.3622 76.8161 31.3622 76.8161 31.5144C76.5119 31.21 75.9034 31.5144 76.2076 31.8189C66.0162 37.2997 55.8248 42.7805 45.6333 48.2612C35.7461 53.5898 26.3152 59.5273 16.7322 65.1603C11.4083 68.3574 6.08444 71.0978 0.760555 74.1427C0.608444 74.2949 0.608444 74.4471 0.608444 74.5994C0 74.5994 0 74.7516 0 74.9039C0 74.9039 0 74.9039 0 75.0561C0.152111 75.6651 0.152111 76.2741 0.304222 76.883C0.304222 77.1875 0.456333 77.492 0.456333 77.7965C0.456333 78.101 0.456333 78.4055 0.456333 78.8622C0.456333 79.0144 0.608444 79.1667 0.608444 79.3189V79.4712C1.52111 80.5369 2.12955 81.4503 2.89011 82.2116C3.65067 83.125 4.41122 83.8862 5.32389 84.6475C6.99711 86.3221 8.82244 87.9968 10.4957 89.5192C10.952 89.8237 11.4083 89.5193 11.5604 89.0625C11.7126 88.9103 11.8647 88.9103 11.8647 88.758C15.3632 86.9311 18.8618 85.1042 22.3603 83.2773C25.7068 81.4503 28.9011 79.4712 32.5518 78.101C32.856 77.9487 33.0081 77.7965 33.0081 77.492C33.0081 77.492 33.0081 77.492 33.1602 77.492L33.3123 77.3398C33.3123 77.492 33.3123 77.492 33.3123 77.6443C33.3123 77.7965 33.3123 78.101 33.3123 78.2532C33.3123 78.5577 33.3123 79.0144 33.4644 79.3189C33.4644 79.6234 33.4644 79.9279 33.6165 80.3846C33.6165 80.5369 33.6165 80.6891 33.6165 80.8414C33.6165 81.1459 33.9208 81.4503 34.225 81.4503C34.0729 81.6026 34.0729 81.7548 34.225 81.9071C35.4419 83.5817 36.963 85.2564 38.4841 86.7789C39.8531 88.3013 41.2221 89.976 42.7432 91.6507C43.0474 91.9552 43.5038 91.8029 43.808 91.6507C43.808 91.6507 43.808 91.6507 43.808 91.4984C43.9601 91.4984 43.9601 91.4984 44.1122 91.4984C46.3939 90.1282 48.3713 88.4535 50.653 86.9311C52.6304 85.4087 54.76 84.0385 56.8895 82.6683C58.867 81.2981 60.9965 80.0802 62.974 78.71C65.1035 77.3398 67.5373 76.2741 69.6669 74.7516C69.6669 75.2084 69.6669 75.5128 69.6669 75.9696C69.6669 76.4263 69.6669 76.7308 69.6669 77.1875C69.6669 77.6443 69.6669 78.101 69.6669 78.5577C69.6669 78.8622 69.9711 79.1667 70.2753 79.1667C71.6443 80.8414 73.1654 82.5161 74.6865 84.0385C75.4471 84.7997 76.0555 85.5609 76.8161 86.3221C77.5766 87.0834 78.3372 87.9968 79.0977 88.758C79.7062 89.367 80.771 88.4536 80.1625 87.8446L80.0104 87.6923C80.0104 87.8446 80.1625 87.9968 80.3146 87.8446C83.509 86.3221 86.247 84.0385 89.1371 82.2116C92.1793 80.2324 95.2215 78.4055 98.1116 76.4263C103.436 72.9247 108.607 69.5753 113.931 66.226C113.171 66.9872 112.41 67.7484 111.65 68.5096C109.368 70.7933 106.782 72.9247 104.5 75.3606C104.348 75.5128 104.348 75.6651 104.348 75.8173L104.196 75.9696C104.044 76.4263 104.196 76.883 104.348 77.1875C104.348 77.6443 104.5 77.9487 104.5 78.4055C104.5 78.71 104.5 79.1667 104.652 79.4712C104.652 79.6234 104.652 79.7757 104.652 79.9279C104.652 80.0801 104.805 80.0802 104.805 80.2324C104.805 80.3846 104.957 80.5369 105.109 80.6891C105.717 80.9936 105.869 79.9279 105.869 79.4712C105.869 79.1667 105.717 78.71 105.717 78.4055C105.717 78.101 105.565 77.6442 105.565 77.3398C105.565 77.3398 105.717 77.3398 105.717 77.1875C106.174 77.7965 106.782 78.4055 107.39 79.0145C108.151 79.7757 108.912 80.6891 109.824 81.4503C111.497 82.9728 113.171 84.4952 114.996 86.0176C115.148 86.1699 115.452 86.1699 115.604 86.1699H115.757H115.909C115.909 86.3221 115.909 86.3221 115.909 86.4744C115.909 86.7789 115.909 86.9311 116.061 87.2356C116.061 87.3878 116.061 87.6923 116.061 87.8446C116.061 87.9968 116.061 88.1491 116.061 88.1491C116.061 88.1491 116.061 88.1491 116.061 88.3013C116.061 88.3013 116.061 88.3013 116.061 88.4535C116.061 88.6058 116.061 88.6058 116.213 88.758C116.061 88.4535 115.604 88.3013 115.452 88.1491C114.996 87.8446 114.54 87.5401 114.083 87.2356C113.171 86.6266 112.258 85.8654 111.345 85.1042C109.52 83.734 107.695 82.2116 105.869 80.6891C105.413 80.3846 104.957 80.9936 105.413 81.2981C107.086 82.8205 108.759 84.343 110.585 85.7132C111.497 86.4744 112.41 87.0834 113.323 87.8446C113.779 88.1491 114.235 88.6058 114.692 88.9103C115.148 89.2148 115.604 89.6715 116.061 89.6715C116.365 89.6715 116.517 89.367 116.517 89.0625C116.517 88.9103 116.365 88.9103 116.365 88.758C116.517 88.9103 116.669 88.9103 116.821 88.9103C117.126 88.9103 117.278 88.758 117.278 88.6058H117.43C118.951 87.5401 120.32 86.0177 121.689 84.7997C123.058 83.5818 124.427 82.2116 125.796 80.8414C128.534 78.2532 131.272 75.6651 134.162 73.2292C136.9 70.7933 139.638 68.2052 142.224 65.7693C142.984 65.008 143.897 64.2468 144.658 63.4856C144.81 63.4856 144.962 63.3334 145.114 63.3334C145.418 63.0289 145.57 62.7244 145.874 62.5721C146.027 62.4199 146.179 62.2677 146.331 62.1154L146.483 61.9632C142.528 66.6827 138.421 71.0978 134.618 75.8173C134.314 76.1218 134.466 76.5786 134.618 76.7308C134.466 76.7308 134.466 76.883 134.466 77.0353C134.466 77.6442 134.618 78.2532 134.77 78.71C134.923 79.1667 134.923 79.4712 135.075 79.9279C135.227 80.6891 135.531 81.6026 135.683 82.3638C135.683 82.516 135.835 82.6683 135.835 82.6683C135.835 82.8205 135.835 82.8205 135.987 82.9728C137.661 84.1907 139.486 85.4087 141.159 86.6266C142.072 87.2356 142.984 87.8446 143.897 88.6058C144.658 89.2148 145.57 89.976 146.483 90.4327C146.939 90.7372 147.396 90.1282 147.091 89.6715C146.331 88.9103 145.266 88.3013 144.353 87.6923C143.441 87.0834 142.68 86.4744 141.768 85.8654C140.094 84.6475 138.421 83.4295 136.748 82.3638C136.748 82.2116 136.748 82.2116 136.748 82.0593C136.596 81.1459 136.292 80.3846 135.987 79.4712C135.835 79.0145 135.683 78.71 135.683 78.2532C135.683 78.101 135.531 77.9487 135.531 77.6443C136.139 78.2532 136.9 78.8622 137.661 79.3189C138.725 80.0801 139.638 80.8414 140.551 81.6026C141.463 82.3638 142.376 83.125 143.289 83.8862C144.201 84.6475 145.114 85.5609 146.179 86.3221C146.331 86.4744 146.635 86.4744 146.787 86.3221V86.4744C146.787 86.6266 146.787 86.9311 146.787 87.0834C146.787 87.2356 146.787 87.3878 146.939 87.3878C146.939 87.6923 147.091 87.8446 147.091 88.1491C147.091 88.3013 147.091 88.3013 147.091 88.4535V88.6058V88.758V88.9103V89.0625C147.091 89.2148 147.091 89.367 147.091 89.5192C147.091 89.8237 147.396 90.1282 147.7 90.1282C147.852 90.1282 148.004 89.976 148.156 89.976C148.308 90.1282 148.46 90.1282 148.612 89.976C150.134 88.4535 151.655 86.9311 153.176 85.4087C153.936 84.6475 154.697 83.8862 155.457 83.125C155.762 82.6683 156.218 82.3638 156.522 81.9071C156.979 81.4503 157.435 81.1459 157.739 80.5369V80.3846C158.043 80.3846 158.195 80.3846 158.5 80.0801C158.5 80.2324 158.5 80.2324 158.5 80.3846C158.5 80.8414 158.652 81.2981 158.652 81.7548C158.652 81.9071 158.652 82.2116 158.804 82.3638C158.804 82.6683 158.956 82.8205 158.956 82.9728C158.956 83.125 159.26 83.125 159.412 82.9728C160.173 83.8862 161.238 84.4952 162.15 85.1042C163.215 85.8654 164.128 86.4744 165.193 87.2356C167.17 88.6058 169.3 90.1282 171.277 91.6507C171.429 91.8029 171.733 91.6507 171.733 91.4984C171.885 91.4984 172.038 91.3462 172.19 91.1939C184.663 73.9904 196.984 56.6346 209.153 39.2789C210.826 36.9952 212.499 34.5593 214.02 32.2757C215.846 29.6875 217.823 27.2516 219.496 24.5112C219.648 24.359 219.496 24.0545 219.344 24.0545C219.496 23.5978 219.496 23.2933 219.648 22.8366C219.8 22.3798 219.953 21.7709 220.105 21.3141C220.257 20.8574 220.409 20.2484 220.561 19.7917C220.713 19.335 220.865 19.0305 220.865 18.5737C221.017 18.2693 221.169 17.9648 220.865 17.6603C221.474 17.6603 221.474 17.6603 221.322 17.508Z" fill="black"/>
<path d="M301.18 85.2564V85.4086C301.18 85.2564 301.028 85.1041 300.724 84.9519C300.267 84.7997 300.572 83.4295 300.572 83.125C300.572 82.3638 300.572 81.7548 300.572 80.9936C300.572 79.6234 300.572 78.2532 300.572 76.883C300.572 74.1426 300.572 71.5545 300.572 68.8141C300.572 65.4647 300.572 62.1154 300.572 58.766C300.876 67.7484 301.028 76.4263 301.18 85.2564ZM315.935 1.06569C313.501 0.913442 310.915 1.06569 308.481 1.21793C305.896 1.21793 303.31 1.37017 300.572 1.52242C300.572 1.52242 300.42 1.52242 300.42 1.67466C300.42 1.52242 300.42 1.52242 300.42 1.37017C300.42 1.06569 299.963 1.06569 299.963 1.37017C299.659 4.2628 299.811 7.15543 299.659 10.2003C299.659 12.9407 299.659 15.6811 299.507 18.4215C299.355 24.2067 299.203 29.8397 299.203 35.625C299.051 47.0432 299.051 58.6138 298.898 70.032C298.898 73.2291 298.898 76.4263 298.898 79.6234C298.898 81.1458 298.898 82.6682 298.898 84.1907C298.898 85.1041 298.898 86.3221 299.963 86.6266C300.42 86.7788 300.876 86.4743 301.18 86.1698C303.158 86.1698 304.983 86.3221 306.96 86.0176C308.025 85.8654 309.09 85.8654 310.155 85.8654C311.219 85.8654 312.436 86.0176 313.501 85.8654C313.805 85.8654 313.805 85.4086 313.501 85.4086C312.436 85.4086 311.219 85.5609 310.155 85.5609C308.938 85.5609 307.873 85.5609 306.808 85.4086C305.287 85.4086 303.918 85.4086 302.397 85.4086C302.397 85.4086 302.397 85.4086 302.397 85.2564C302.093 76.1218 301.941 66.9872 301.789 57.8525C301.636 48.8702 301.028 39.8878 300.876 30.9054C300.876 30.9054 300.876 30.7532 300.724 30.7532C300.724 26.9471 300.724 23.141 300.572 19.1827C300.572 16.1378 300.572 13.0929 300.572 9.89581C300.572 7.15543 300.724 4.56729 300.42 1.8269H300.572C303.158 2.13139 305.743 2.13139 308.329 2.13139C310.763 2.13139 313.349 2.43588 315.783 2.28363C315.326 12.9407 315.326 23.75 315.022 34.407C314.718 45.3686 314.566 56.4823 314.414 67.4439C314.414 73.8381 314.11 80.0801 314.414 86.4743C314.414 87.54 316.087 87.54 316.087 86.4743C316.087 80.8413 315.935 75.2083 315.935 69.7275C315.935 64.0945 315.935 58.6138 316.087 52.9807C316.239 42.0192 316.239 30.9054 316.239 19.9439C316.239 14.0064 316.391 8.06889 316.239 2.13139C316.695 1.97915 316.543 1.06569 315.935 1.06569Z" fill="black"/>
<path d="M355.636 85.1042C355.18 85.1042 354.724 85.1042 354.267 84.9519C353.659 84.9519 352.898 84.7997 352.29 84.7997C350.921 84.6475 349.552 84.6475 348.335 84.4952C346.053 84.343 343.772 84.4952 341.338 84.7997C341.338 84.6475 341.338 84.6475 341.338 84.4952C340.425 63.0289 340.425 41.4103 341.338 19.9439C341.49 14.7677 342.098 9.28688 341.338 4.1106C342.707 3.95836 344.076 3.95836 345.293 3.95836C346.662 3.95836 348.031 4.1106 349.4 4.26285C350.769 4.41509 352.138 4.56733 353.659 4.71958C354.419 4.71958 355.18 4.87182 355.941 4.87182C356.245 4.87182 356.397 4.87182 356.701 4.87182C356.245 7.00323 356.397 9.43913 356.245 11.5705C356.093 14.1587 355.941 16.7468 355.941 19.335C355.788 24.6635 355.636 29.992 355.636 35.3205C355.484 45.9776 355.636 56.6346 356.093 67.2917C356.245 70.3366 356.397 73.3814 356.549 76.4263C356.549 79.4712 356.701 82.3638 355.636 85.1042ZM357.462 69.7276C357.157 64.3991 357.005 58.9183 357.005 53.4375C356.853 42.6282 356.853 31.8189 357.31 21.0096C357.462 17.9648 357.462 14.9199 357.614 11.875C357.766 9.43913 358.07 7.00323 357.918 4.56733C358.07 4.41509 358.222 4.1106 357.918 3.95836C357.918 3.95836 357.918 3.95836 357.766 3.95836C357.766 3.80611 357.766 3.50163 357.614 3.34938C357.614 3.0449 357.157 3.19714 357.157 3.34938C357.157 3.50163 357.157 3.50163 357.005 3.65387C356.701 3.65387 356.245 3.65387 355.941 3.65387C355.332 3.65387 354.572 3.50163 353.963 3.50163C352.442 3.34938 350.769 3.34938 349.248 3.34938C346.662 3.19714 343.62 2.74041 341.186 3.50163C341.186 3.19714 341.034 2.89265 341.034 2.58817C342.251 2.89265 343.467 2.89265 344.684 2.89265C346.053 2.89265 347.27 2.89265 348.639 2.89265C350.008 2.89265 351.377 2.89265 352.594 3.0449C353.963 3.0449 355.332 3.19714 356.549 3.19714C357.462 3.19714 357.462 1.97919 356.701 1.82695C354.115 1.52246 351.377 1.52246 348.639 1.52246C347.422 1.52246 346.053 1.52246 344.836 1.52246C343.467 1.52246 342.098 1.52246 340.882 1.97919C340.882 1.6747 340.121 1.6747 340.273 2.13144C341.034 12.7885 339.969 23.4455 339.665 34.1026C339.36 44.7596 339.208 55.2644 339.36 65.9215C339.36 72.1635 339.513 78.2532 339.665 84.4952C339.665 84.7997 339.969 85.1042 340.121 85.2564C340.121 85.4087 340.273 85.5609 340.425 85.5609C343.011 85.4087 345.445 85.4087 348.031 85.4087C349.248 85.4087 350.617 85.4087 351.834 85.5609C352.442 85.5609 353.203 85.7132 353.811 85.7132C354.419 85.7132 355.028 86.0176 355.636 85.8654C355.941 86.1699 356.701 86.1699 357.005 85.5609C358.07 83.2773 358.07 80.6891 357.918 78.101C357.766 75.3606 357.614 72.6202 357.462 69.7276Z" fill="black"/>
<path d="M395.335 18.2692C395.031 23.9022 394.575 29.383 394.423 35.016C393.966 46.1298 394.271 57.0913 394.423 68.2051C394.423 71.25 394.575 74.2949 394.575 77.3397C394.575 79.7756 394.423 82.0593 394.423 84.4952C394.118 84.4952 393.814 84.4952 393.51 84.4952C392.749 84.4952 391.989 84.4952 391.228 84.4952C389.707 84.4952 388.338 84.4952 386.817 84.6474C385.448 84.6474 383.927 84.7997 382.558 84.7997C381.341 84.9519 379.972 84.9519 378.755 85.2564C378.603 63.4856 378.603 41.7147 379.212 19.9439C379.364 14.0064 379.516 8.22116 379.668 2.28366C380.124 2.4359 380.581 2.58815 381.037 2.58815C380.428 11.875 380.124 21.3141 379.972 30.7532C379.668 40.3446 379.516 50.0881 380.733 59.5272C380.733 59.984 381.493 59.984 381.493 59.5272C381.037 49.9359 380.733 40.3446 380.885 30.7532C381.037 21.4664 381.797 12.0272 381.493 2.74039C382.102 2.74039 382.71 2.74039 383.319 2.89263C384.84 3.04488 386.209 3.04488 387.73 3.34936C389.251 3.50161 390.62 3.65385 392.141 3.80609C393.358 3.95834 394.727 4.26283 396.096 4.11058C395.792 8.67789 395.64 13.5497 395.335 18.2692ZM386.665 86.0176C385.296 86.0176 384.079 86.0176 382.71 86.0176C382.102 86.0176 381.341 86.0176 380.733 86.0176C381.341 86.0176 381.95 86.0176 382.406 85.8654C383.927 85.8654 385.296 85.7131 386.817 85.7131C388.186 85.7131 389.555 85.7131 391.076 85.7131C391.685 85.7131 392.445 85.7131 393.054 85.7131C393.51 85.7131 393.966 85.7131 394.271 85.7131C394.271 85.8654 394.271 86.0176 394.271 86.1699C391.989 85.7131 389.251 86.0176 386.665 86.0176ZM380.276 86.1699C379.82 86.1699 379.364 86.1699 378.755 86.3221V86.1699C379.212 86.1699 379.668 86.1699 380.276 86.1699ZM380.885 1.52244C380.885 1.52244 381.037 1.52244 380.885 1.52244C381.037 1.67468 381.037 1.67468 380.885 1.52244C380.581 1.52244 380.124 1.52244 379.668 1.67468C379.668 1.67468 379.516 1.67468 379.516 1.82693C379.516 1.67468 379.516 1.52244 379.516 1.3702C380.124 1.52244 380.581 1.52244 380.885 1.52244ZM386.361 1.82693C388.034 1.82693 389.555 1.82693 391.228 1.67468C392.902 1.52244 394.423 1.52244 396.096 1.97917C396.096 2.13141 396.096 2.28366 396.096 2.4359C395.335 2.4359 394.575 2.4359 393.966 2.4359C393.358 2.4359 392.749 2.4359 392.141 2.4359C390.772 2.4359 389.403 2.28366 388.034 2.28366C386.665 2.28366 385.296 2.13141 383.927 1.97917C383.319 1.97917 382.71 1.82693 381.95 1.82693C381.797 1.82693 381.645 1.82693 381.645 1.82693C383.014 1.67468 384.688 1.82693 386.361 1.82693ZM396.856 0.913466C396.704 0.761223 396.552 0.608979 396.4 0.456735C393.814 -0.456726 391.076 0.304492 388.338 0.304492C386.969 0.304492 385.6 0.304492 384.079 0.304492C383.319 0.304492 382.558 0.304492 381.797 0.304492C381.493 0.304492 379.516 0.456735 379.516 0.304492C379.364 4.69061e-06 378.907 0.152248 378.755 0.456735C378.755 0.608979 378.755 0.761223 378.755 0.913466V1.06571C377.386 23.141 377.234 45.2164 377.082 67.2917C377.082 73.5337 377.082 79.7756 377.082 86.0176C377.082 86.6266 377.538 86.9311 377.995 86.7788C377.995 87.0833 378.147 87.3878 378.451 87.5401C379.668 87.8446 380.885 87.6923 382.102 87.6923C383.471 87.6923 384.84 87.6923 386.209 87.8446C387.578 87.8446 388.947 87.8446 390.316 87.9968C391.685 87.9968 392.902 88.3013 394.271 88.4535C394.879 88.4535 395.183 88.149 395.335 87.8446C395.64 87.8446 395.792 87.6923 395.792 87.2356C396.248 84.4952 395.944 81.4503 395.944 78.7099C395.944 75.9696 395.944 73.0769 395.944 70.3365C395.944 64.8558 395.792 59.2228 395.64 53.742C395.487 42.6282 395.944 31.6667 396.552 20.5529C397.009 14.0064 397.617 7.61218 397.009 1.21795C397.009 1.06571 397.009 0.913466 396.856 0.913466Z" fill="black"/>
<path d="M438.233 4.41509C438.233 4.11061 438.233 3.80612 438.081 3.50163H438.233C438.385 3.80612 438.385 4.11061 438.233 4.41509ZM433.365 85.4087C431.996 85.2564 430.779 84.952 429.41 85.1042C428.041 85.1042 426.672 85.2564 425.456 85.4087C424.847 85.4087 424.391 85.4087 423.782 85.4087C422.109 63.6378 424.543 42.0193 424.847 20.2484C424.999 14.4632 424.999 8.67791 424.391 2.89266C425.151 3.0449 426.064 3.0449 426.825 3.0449C428.194 3.19714 429.41 3.19714 430.779 3.19714C431.996 3.19714 433.365 3.0449 434.582 2.89266C435.495 2.74041 436.56 2.89266 437.472 3.19714V3.34939C437.168 5.02407 437.32 6.85099 437.32 8.52567C437.32 10.5048 437.32 12.6362 437.32 14.6154C437.32 18.5737 437.472 22.5321 437.472 26.6427C437.472 26.7949 437.624 26.7949 437.624 26.9471C437.472 29.8398 437.472 32.5802 437.32 35.4728C437.016 46.1298 436.712 56.9391 436.56 67.5962C436.56 70.6411 436.407 73.6859 436.407 76.7308C436.407 79.6234 436.103 82.5161 436.255 85.2564C435.191 85.4087 434.278 85.5609 433.365 85.4087ZM422.87 20.5529C423.174 14.4632 423.478 8.52567 423.174 2.43593C423.326 2.43593 423.478 2.58817 423.478 2.58817C423.63 7.61221 423.934 12.7885 423.934 17.8125C423.934 23.2933 423.782 28.9263 423.478 34.4071C423.022 45.3686 422.109 56.3302 421.957 67.2917C421.805 73.2292 421.957 79.3189 422.413 85.2564C422.261 85.2564 422.261 85.2564 422.109 85.2564C420.436 63.7901 421.957 42.1715 422.87 20.5529ZM439.146 2.13144C438.993 1.9792 438.993 1.82695 438.841 1.82695C437.624 1.21798 436.255 1.06573 434.886 1.06573C433.517 1.06573 432.3 1.37022 430.931 1.37022C429.562 1.37022 428.194 1.37022 426.825 1.37022C425.456 1.37022 423.934 0.913491 422.565 1.37022C422.413 1.37022 422.261 1.52247 422.261 1.67471C422.109 1.67471 422.109 1.82695 422.109 1.9792C421.653 7.45997 421.653 12.9407 421.349 18.4215C421.196 23.9023 420.892 29.2308 420.588 34.5593C419.98 45.5209 419.371 56.4824 419.371 67.2917C419.371 73.3814 419.523 79.4712 419.98 85.5609C419.98 86.3221 420.74 86.4744 421.349 86.3221C422.109 86.4744 422.718 86.7789 423.478 86.7789C424.087 86.7789 424.847 86.9311 425.456 86.9311C426.977 86.9311 428.498 86.7789 430.019 86.7789C431.388 86.7789 432.605 87.0834 433.974 87.2356C435.343 87.3878 436.864 87.2356 438.081 86.7789C438.993 86.4744 438.689 85.2564 437.929 84.952C438.233 82.6683 438.081 80.2324 438.081 77.7965C438.081 75.2084 438.233 72.468 438.233 69.8798C438.385 64.5513 438.537 59.2228 438.689 53.742C438.993 43.085 439.145 32.2757 439.45 21.6186C439.45 18.4215 439.602 15.2244 439.602 11.875C439.602 8.67792 439.754 5.4808 439.45 2.28368C439.45 2.43593 439.298 2.28368 439.146 2.13144Z" fill="black"/>
<path d="M482.65 9.43913C482.65 12.1795 482.65 14.9199 482.65 17.6603C482.65 23.1411 482.65 28.4696 482.498 33.9503C482.346 44.9119 482.194 55.7212 481.737 66.6827C481.585 72.6202 481.281 78.5577 480.977 84.4952C479.304 84.343 477.782 84.343 476.109 84.6475C474.588 84.7997 473.067 85.1042 471.394 85.2564C471.242 85.2564 471.242 85.2564 471.242 85.2564C470.633 85.2564 470.025 85.2564 469.264 85.2564C468.96 85.2564 468.656 85.2564 468.352 85.2564C468.199 85.2564 468.047 85.2564 467.895 85.2564C467.591 79.9279 467.439 74.4472 467.135 69.1186C466.83 63.7901 466.374 58.3093 466.678 52.8286C466.83 50.2404 467.135 47.6523 467.287 44.9119C467.439 42.1715 467.439 39.5834 467.439 36.843C467.439 31.21 467.591 25.7292 467.439 20.0962C467.287 16.8991 467.591 13.702 467.591 10.5048C467.591 7.45996 467.743 4.41509 466.983 1.37022C468.199 1.82695 469.721 1.82695 470.937 1.82695C472.306 1.9792 473.675 1.9792 474.892 2.13144C476.261 2.28368 477.63 2.28368 478.999 2.43593C479.608 2.43593 480.216 2.43593 480.825 2.43593C481.129 2.43593 482.194 2.28368 482.194 2.43593C482.498 2.74041 482.802 2.74041 483.106 2.58817C482.498 4.71958 482.65 7.15548 482.65 9.43913ZM465.614 85.1042C465.766 82.5161 465.461 79.9279 465.309 77.3398C465.157 74.5994 465.157 71.859 465.157 69.1186C465.005 63.6379 465.005 58.1571 465.157 52.6763C465.309 41.5625 465.461 30.601 465.918 19.4872C466.07 14.0064 466.374 8.37343 466.526 2.89266V2.74041C466.526 2.58817 466.526 2.43593 466.526 2.43593C466.678 4.71958 466.83 7.00323 466.83 9.28689C466.83 12.0273 467.135 14.9199 466.983 17.6603C466.83 23.1411 466.678 28.7741 466.526 34.2548C466.374 39.7356 466.222 45.0641 465.766 50.3927C465.309 55.8734 465.614 61.3542 465.918 66.835C466.222 72.9247 466.526 79.0145 466.83 85.1042C466.222 85.1042 465.918 85.1042 465.614 85.1042ZM483.715 2.13144C483.715 1.9792 483.715 1.9792 483.715 2.13144C483.563 0.45676 481.737 0.761247 480.673 0.761247C479.304 0.761247 477.782 0.761247 476.413 0.761247C475.044 0.761247 473.675 0.609004 472.154 0.45676C470.633 0.304516 469.112 0.152273 467.591 0.304516C467.287 0.152273 467.135 0.304516 466.83 0.45676C466.678 0.609004 466.678 0.761247 466.678 0.913491C466.526 0.913491 466.374 0.913491 466.222 1.06573C466.07 0.913491 465.918 1.06573 465.918 1.21798C464.853 23.1411 463.788 45.0641 463.94 67.1395C463.94 70.1843 464.092 73.2292 464.092 76.2741C464.092 79.4712 463.94 82.8205 464.397 85.8654C464.397 86.0177 464.549 86.1699 464.853 86.3222C464.853 86.4744 465.157 86.6266 465.461 86.7789C466.222 86.9311 466.83 86.7789 467.591 86.9311C468.199 86.9311 468.808 86.9311 469.416 86.9311C470.025 86.9311 470.633 86.9311 471.242 86.9311C471.546 86.9311 471.85 86.9311 472.002 86.9311C472.459 86.9311 472.611 86.9311 473.067 86.7789C473.675 86.7789 474.284 86.6266 474.892 86.6266C477.174 86.3222 479.608 86.1699 481.889 86.6266C482.954 86.9311 483.411 85.4087 482.65 84.952C483.106 74.5994 483.258 64.0946 483.563 53.742C483.867 43.085 484.019 32.5802 484.171 21.9231C484.171 18.8782 484.171 15.9856 484.323 12.9407C484.323 9.59138 484.171 6.08977 484.475 2.74041C484.171 2.13144 484.019 1.9792 483.715 2.13144Z" fill="black"/>
<path d="M525.393 1.97914C525.393 1.8269 525.241 1.67466 525.089 1.67466C525.089 1.52241 525.241 1.52241 525.241 1.37017V1.21793C525.241 0.91344 525.089 0.608952 524.785 0.456709C524.329 0.152222 523.72 0.152222 523.112 0.152222C522.503 0.152222 521.895 0.152222 521.286 0.152222C519.765 0.152222 518.244 0.152222 516.875 0.152222C513.833 0.152222 510.791 0.608952 507.901 0.456709C507.748 0.456709 507.596 0.456709 507.596 0.608952C507.444 0.608952 507.292 0.761196 507.292 0.91344C506.836 6.39421 506.836 11.875 506.684 17.3557C506.532 22.8365 506.532 28.165 506.379 33.6458C506.379 44.4551 506.532 55.2644 506.379 66.2259C506.379 72.3157 506.532 78.7099 505.771 84.7997C505.619 85.5609 506.836 85.5609 506.836 84.7997C506.684 79.3189 507.14 73.6859 507.14 68.0529C507.14 62.5721 507.14 57.2436 507.14 51.7628C507.14 40.9535 506.988 30.1442 506.988 19.3349C506.988 13.3974 507.292 7.45991 507.444 1.67466C507.596 1.67466 507.901 1.8269 508.053 1.8269C508.053 2.28363 508.053 2.74036 508.053 3.19709C508.053 3.80607 508.053 4.56729 508.205 5.17626C508.205 5.3285 508.509 5.3285 508.661 5.17626C508.813 4.56729 508.661 3.80607 508.661 3.19709C508.661 2.74036 508.661 2.43588 508.509 1.97914C509.574 2.28363 510.486 2.28363 511.703 2.13139C513.072 2.13139 514.593 1.97914 515.962 1.97914C517.484 1.97914 518.853 1.97914 520.374 1.97914C520.982 1.97914 521.743 1.97914 522.351 2.13139C522.96 2.13139 523.568 2.28363 524.176 2.28363C524.329 2.28363 524.328 2.28363 524.481 2.28363C525.241 12.9407 523.72 23.5977 523.568 34.2548C523.416 45.0641 523.72 55.8734 523.72 66.5304C523.72 72.6202 523.264 78.7099 522.959 84.6474C522.959 84.6474 522.807 84.4952 522.655 84.4952C522.047 84.1907 521.438 84.4952 520.83 84.4952C520.222 84.6474 519.461 84.6474 518.853 84.7997C517.484 84.9519 516.114 85.4086 514.593 85.1041C513.377 84.7997 512.312 84.4952 511.095 84.4952C510.486 84.4952 509.878 84.4952 509.117 84.4952C508.357 84.4952 507.596 84.4952 506.836 84.7997C506.532 84.9519 506.379 85.5609 506.836 85.7131C508.053 86.1699 509.574 85.8654 510.791 85.8654C512.16 85.8654 513.377 86.4743 514.746 86.6266C516.115 86.7788 517.484 86.6266 518.7 86.3221C519.309 86.1699 520.069 86.1699 520.678 86.0176C521.286 85.8654 522.047 86.0176 522.503 85.5609C522.655 85.4086 522.655 85.4086 522.655 85.2564C522.96 85.7131 523.72 85.5609 523.872 84.9519C524.481 79.4711 524.633 73.9904 524.785 68.5096C524.937 63.0288 524.785 57.5481 524.633 52.2195C524.481 41.4102 524.481 30.6009 525.241 19.7916C526.002 13.8541 526.458 7.7644 525.393 1.97914Z" fill="black"/>
</g>
<defs>
<clipPath id="clip0_19_944">
<rect width="526" height="95" fill="white"/>
</clipPath>
</defs>
</svg>
