<svg width="40" height="37" viewBox="0 0 40 37" fill="none" xmlns="http://www.w3.org/2000/svg">
<path d="M26.918 34.4355C25.7288 34.1387 24.2423 34.4355 22.7558 34.4355C22.7558 34.4355 22.7558 34.4355 22.7558 34.1387C23.6477 23.1549 23.945 11.8743 24.2423 0.593712C24.2423 -0.296862 22.7558 -0.296862 22.4585 0.593712C20.0801 5.04658 17.9991 9.49946 16.2153 14.2492C15.918 14.8429 17.1072 15.1398 17.4045 14.546C18.891 11.2806 20.3774 7.71831 22.1612 4.45287C21.5666 14.2492 20.972 24.3424 20.6747 34.1387C19.4856 34.1387 18.2964 33.8418 17.1072 34.1387C16.8099 34.1387 16.5126 34.7324 16.8099 35.0293C18.2964 35.9198 20.0801 35.9198 21.8639 36.2167C23.6477 36.2167 25.4315 36.5135 26.918 35.9198C27.5126 35.623 27.8099 34.7324 26.918 34.4355Z" fill="black"/>
<path d="M4.9177 11.5775C6.40419 12.1712 7.59338 13.0617 9.07987 13.6555C9.67446 13.9523 11.1609 13.3586 10.2691 12.7649C7.89068 11.5775 5.215 9.49945 2.24203 8.90574C1.94473 8.60888 1.35014 9.20259 1.64743 9.49945C2.53932 10.39 3.72851 10.9837 4.9177 11.5775Z" fill="black"/>
<path d="M9.37843 17.8114C10.8649 17.5146 9.97302 16.3271 8.78383 16.3271C7.59465 16.624 6.40546 16.9209 5.21627 16.624C4.02708 16.624 2.54059 16.3271 1.3514 16.3271C1.0541 16.3271 0.45951 16.624 0.756807 16.9209C3.13519 18.702 7.00005 18.4052 9.37843 17.8114Z" fill="black"/>
<path d="M9.08159 22.5612C8.1897 22.8581 7.00051 23.4518 6.10862 23.7487C5.21673 24.0455 4.32484 24.6392 4.02754 25.2329C3.43294 25.5298 4.02754 26.1235 4.62213 25.8267C5.51403 25.8267 6.40592 25.2329 7.29781 24.9361C8.1897 24.6392 9.08159 24.0455 10.2708 23.7487C11.46 23.1549 9.97349 21.9675 9.08159 22.5612Z" fill="black"/>
<path d="M34.6496 8.90573C35.2442 8.60887 34.6496 8.31201 34.055 8.31201C32.8658 8.31201 31.6766 8.90573 30.7847 9.49944C29.5955 10.0932 28.4064 10.39 27.2172 10.9837C26.3253 11.2806 27.2172 11.8743 27.8118 11.5775C29.0009 11.2806 30.1901 10.6869 31.3793 10.39C32.5685 9.7963 33.7577 9.49944 34.6496 8.90573Z" fill="black"/>
<path d="M29.8904 13.6554C28.7012 13.9523 29.2958 15.4366 30.485 15.1397C31.6742 14.8428 32.8634 14.8428 34.0526 14.546C35.2418 14.546 36.1336 14.546 37.3228 14.2491C37.9174 14.2491 38.2147 13.3586 37.6201 13.3586C35.2417 12.468 32.2688 13.0617 29.8904 13.6554Z" fill="black"/>
<path d="M39.7016 22.2644C36.4314 21.077 33.1611 20.4832 29.5935 19.8895C28.7016 19.8895 27.8098 20.7801 28.9989 21.077C32.2692 21.9675 35.8368 22.8581 39.4044 23.155C39.9989 23.4518 40.2962 22.5612 39.7016 22.2644Z" fill="black"/>
</svg>
