<svg width="32" height="37" viewBox="0 0 32 37" fill="none" xmlns="http://www.w3.org/2000/svg">
<path d="M21.8663 2.26758C20.3799 2.26758 18.8934 2.56443 17.4069 2.56443C15.9204 2.56443 14.4339 2.56443 12.9474 2.56443C12.0555 2.56443 11.7582 3.45502 12.6501 3.45502H12.9474C12.0555 9.09532 11.7582 14.7356 11.4609 20.3759C11.7582 21.2665 12.6501 21.2665 12.9474 21.2665C15.0285 21.2665 17.7042 20.9696 18.8934 23.0476C19.488 23.9382 19.488 25.7194 19.488 26.61C19.488 27.7974 19.1907 29.2817 18.8934 30.766C18.8934 31.3597 18.5961 31.9534 18.5961 32.2502C18.2988 34.0314 16.8123 34.3283 14.4339 33.1408C14.4339 32.2503 12.3528 32.2503 12.3528 33.1408C12.0555 35.2188 14.4339 36.4063 16.515 36.1094C19.7853 35.5157 20.6772 32.5471 21.2717 30.4691C21.8663 27.7974 22.7582 23.9382 20.3799 21.5634C18.8934 20.0791 16.2177 20.0791 13.8393 20.0791C14.4339 14.7356 14.7312 9.39217 14.7312 4.04872C17.1096 4.34558 20.0826 4.04873 22.4609 3.75187C23.3528 3.45501 23.0555 2.26758 21.8663 2.26758Z" fill="black"/>
<path d="M26.9199 35.2188C26.028 34.625 25.1361 34.3282 24.2442 34.0313C23.6496 33.7345 22.7577 34.3282 23.3523 34.625C24.2442 35.2188 24.8388 35.5156 25.7307 36.1093C26.3253 36.4062 27.2172 36.9999 28.1091 37.2968C28.4064 37.2968 29.001 37.2967 28.7037 36.703C28.4064 35.8125 27.5145 35.5156 26.9199 35.2188Z" fill="black"/>
<path d="M29.5946 31.6566C29 31.3597 28.4054 31.6566 27.8108 31.3597C27.2162 31.3597 26.3243 31.0628 25.7297 30.766C25.1351 30.4691 24.2432 31.0628 25.1351 31.6566C26.3243 32.2503 28.4054 32.844 29.8919 32.2503C30.1892 32.2503 30.1892 31.9534 29.5946 31.6566Z" fill="black"/>
<path d="M31.0841 25.1256C28.7058 25.4225 26.922 26.313 25.4355 27.7973C24.8409 28.0942 26.0301 28.6879 26.6247 28.391C28.1112 27.5005 29.8949 26.6099 31.6787 26.0162C32.2733 25.7193 31.6787 25.1256 31.0841 25.1256Z" fill="black"/>
<path d="M8.78706 24.8287C7.89517 25.1256 6.70598 25.4225 5.51679 25.4225C4.3276 25.4225 3.43571 25.1256 2.54381 24.8287C2.24652 24.8287 1.94922 25.1256 1.94922 25.4225C3.43571 27.2036 7.59787 26.6099 9.38165 25.7193C10.2735 25.4225 9.38165 24.8287 8.78706 24.8287Z" fill="black"/>
<path d="M6.40688 20.9696C7.00148 20.9696 7.00148 20.3759 6.40688 20.3759C5.21769 20.3759 4.3258 20.079 3.43391 19.7822C2.83932 19.4853 2.24472 18.8916 1.35283 18.5947C1.05553 18.5947 0.460938 18.5947 0.460938 18.8916C1.35283 20.3759 4.6231 20.9696 6.40688 20.9696Z" fill="black"/>
<path d="M5.21685 15.3292C5.51415 15.6261 6.70334 15.3293 6.10874 14.7355C5.21685 13.845 4.32496 13.2512 3.73036 12.3607C3.13577 11.4701 2.54117 10.5795 1.94658 9.68895C1.94658 9.39209 1.05469 9.39209 1.05469 9.68895C1.35198 11.767 3.43307 13.845 5.21685 15.3292Z" fill="black"/>
<path d="M7.89305 7.31414C6.70386 5.23613 5.81197 2.86126 4.62278 0.783251C4.32549 0.486393 3.43359 0.486388 3.43359 1.0801C3.73089 3.45497 5.21738 5.82984 6.70386 7.61099C7.00116 7.90785 8.19035 7.90785 7.89305 7.31414Z" fill="black"/>
</svg>
