<svg width="158" height="245" viewBox="0 0 158 245" fill="none" xmlns="http://www.w3.org/2000/svg">
<g clip-path="url(#clip0_38_1132)">
<path d="M148.337 68.6249C148.337 72.0406 146.156 75.7668 143.04 77.3194C140.546 78.872 134.314 79.4931 131.821 78.251C131.821 78.251 131.509 78.251 131.509 77.9405C132.755 69.5564 134.002 61.4829 134.937 53.0989C140.858 56.8251 148.649 60.5514 148.337 68.6249ZM141.17 49.6832C138.365 48.7516 135.249 48.1306 131.821 47.5095C127.769 46.578 123.718 46.2675 120.29 46.2675C119.667 46.2675 119.355 46.578 119.043 46.8885C118.109 47.199 117.174 47.199 116.239 47.5095C114.992 47.8201 115.615 49.0621 116.55 49.3727C119.978 50.6147 124.341 50.9253 128.393 51.5463C127.769 54.0304 127.146 56.8251 126.523 59.6198C124.653 66.4512 123.718 73.9037 122.471 81.0457C120.602 90.3612 119.043 99.6768 116.862 108.992C115.615 113.65 114.369 118.308 113.434 122.966C112.811 126.071 111.564 129.487 112.811 132.592C114.992 137.56 121.537 137.871 124.653 134.145C125.276 133.834 125.588 133.523 125.899 132.902C128.704 128.555 127.458 121.413 127.769 116.134C128.393 108.371 129.016 100.919 129.639 93.4664C129.951 91.6033 129.951 89.7402 130.262 87.8771C142.416 87.5666 159.245 81.0457 156.752 67.3828C156.128 64.2776 154.57 61.1724 152.389 58.6882C149.584 54.341 146.156 51.2358 141.17 49.6832Z" fill="black"/>
<path d="M21.193 45.6464C26.1792 49.0622 33.3468 49.3727 39.8912 49.9937C31.1654 72.9722 29.2956 98.1243 26.8025 122.345C26.4908 122.966 26.4908 123.897 26.8025 124.829C27.1141 126.071 28.049 127.003 28.9839 127.934C30.8537 129.797 33.6585 130.108 36.1516 129.797C37.3981 130.729 40.2028 130.108 40.5145 128.245C41.761 114.271 42.0727 99.9874 43.0076 86.014C43.3192 81.6667 43.6309 77.0089 43.6309 72.6617C44.2541 66.1407 45.189 59.6198 45.5007 53.0989C45.5007 52.1674 45.5007 51.5463 45.8123 50.6148C50.1752 51.2358 55.4731 52.4779 59.5243 51.2358C62.0174 51.5463 64.1989 51.5463 66.692 50.6148C68.5618 49.6832 68.5618 47.199 66.3804 46.578C66.3804 46.2675 66.0687 45.957 65.4455 45.6464C63.264 44.7149 61.3942 44.0938 59.5243 43.4728C55.4731 41.2992 49.2403 41.9202 44.8774 41.2992C37.7097 40.6781 28.6723 38.5045 21.8163 40.9887C19.9464 41.9202 19.6348 44.4044 21.193 45.6464Z" fill="black"/>
<path d="M69.1831 110.234C70.118 104.024 71.6762 97.8137 71.9878 91.6033C74.1692 91.9138 76.0391 92.2244 77.5973 92.2244C86.0115 93.4664 94.4257 95.3295 102.84 95.6401C107.826 95.9506 109.073 90.0507 105.645 87.5666C105.956 86.635 105.645 85.7034 104.398 85.0824C98.1653 82.5982 90.9977 82.2877 84.4533 81.6667C78.2205 81.0456 72.2994 80.4246 66.0667 79.8036V79.493C66.0667 77.6299 62.6387 77.3194 62.327 79.1825C59.8339 89.1192 59.2107 99.6768 57.6525 109.613C56.0943 119.861 54.5361 129.797 52.6663 140.044C52.6663 140.665 52.6663 141.286 52.9779 141.907C52.3547 143.46 53.9128 145.944 56.0943 145.634C58.899 145.634 61.7038 145.323 64.1969 145.634C69.4947 149.049 74.7925 152.155 76.3507 158.986C78.8438 169.233 74.4809 181.965 72.6111 191.901C70.4296 203.08 67.9365 214.569 64.1969 225.748C62.9503 229.163 61.0805 235.374 57.0292 231.648C54.2245 229.474 53.6012 225.748 52.3546 222.643C52.043 219.537 52.043 216.743 52.043 214.569C51.7314 210.532 52.043 206.496 52.043 202.459C52.6663 199.664 53.2896 197.18 53.9128 194.385C54.8477 190.97 50.1732 190.349 48.3034 191.901C47.0568 192.833 45.4986 194.385 44.5637 195.938C43.9404 196.248 43.3172 196.869 43.0055 197.801C43.0055 198.422 42.6939 199.043 42.6939 199.664C42.3823 200.906 42.0706 202.148 42.0706 203.39C40.8241 210.532 40.5124 219.537 42.0706 227.3C42.0706 228.232 42.3823 228.853 42.6939 229.785C44.5637 236.305 48.3034 241.584 55.1594 244.068C55.471 244.068 55.7827 244.068 55.7827 244.379C62.6387 247.484 67.3132 244.689 70.7412 239.411C76.6623 232.579 79.7787 220.779 81.9602 213.638C85.0765 203.39 87.5696 192.833 89.4395 182.275C90.686 174.202 92.5558 165.196 90.686 157.123C89.7511 153.397 88.1929 150.292 86.0115 147.807C80.7136 141.286 71.3645 138.181 62.9503 138.802C64.1969 134.766 64.5085 130.108 65.4434 126.071C67.3132 120.482 68.2481 115.513 69.1831 110.234Z" fill="black"/>
<path d="M81.9605 59.9303C81.0256 57.4461 81.6489 53.4094 83.2071 50.3042C83.5187 50.3042 83.8303 49.9937 84.142 49.9937C84.4536 49.9937 84.4536 49.6832 84.7652 49.6832C89.7514 48.7516 95.6725 49.0621 97.854 54.6515C99.4122 58.6882 97.2307 61.7934 93.8027 63.9671C89.7514 65.2091 83.5187 64.5881 81.9605 59.9303ZM91.6213 42.8517C89.4398 42.5412 86.9467 42.8517 84.7652 43.1622C84.142 42.8517 83.5187 42.8517 82.8954 43.1622C79.1558 44.4043 76.6627 48.7516 75.7278 53.4094C73.8579 57.7567 73.8579 62.4145 77.2859 66.1407C77.2859 66.1407 77.2859 66.1407 77.5976 66.4512C81.6489 72.6616 90.3747 73.5932 97.5424 71.4195C105.957 68.9354 113.747 60.2408 110.008 50.9252C107.203 44.0938 98.7889 41.9202 91.6213 42.8517Z" fill="black"/>
<path d="M54.537 36.0203C61.0814 38.1939 67.9374 40.3676 75.1051 40.6781C76.04 40.6781 76.6633 39.436 75.7284 39.1255C68.8723 36.6413 61.3931 35.3992 54.2254 33.2256C47.681 31.052 41.4483 27.9468 34.9039 26.0837C34.2806 25.7731 33.0341 26.7047 33.969 27.3257C39.8901 31.3625 47.681 33.8466 54.537 36.0203Z" fill="black"/>
<path d="M66.6923 25.1521C71.6785 28.8783 77.2879 32.294 81.0276 37.2623C81.3392 37.5728 82.2741 37.5728 82.2741 36.9518C81.3392 31.9835 74.7948 28.5678 71.0552 25.7731C66.069 21.7363 60.7712 17.3891 55.1617 13.9734C54.5384 13.6628 53.2919 14.2839 54.2268 15.2154C57.9664 18.6311 62.641 22.0469 66.6923 25.1521Z" fill="black"/>
<path d="M80.0922 19.5628C82.5853 24.8416 84.7667 30.7415 88.5064 35.0888C89.1296 35.7098 90.3762 35.3993 90.3762 34.4677C89.1297 28.2573 85.39 22.3575 82.5853 16.4576C80.0922 11.1788 78.2224 5.58941 74.7943 0.621096C74.1711 -0.310463 72.3012 0.310576 72.6129 1.24214C74.1711 7.45253 77.2874 13.6629 80.0922 19.5628Z" fill="black"/>
<path d="M96.6094 32.6046C98.4792 22.3574 100.661 11.1787 100.037 0.931578C100.037 -0.3105 97.856 -0.3105 97.5443 0.621059C95.6745 10.8682 95.3629 21.7364 93.8047 32.2941C94.1163 33.5361 96.6094 33.8467 96.6094 32.6046Z" fill="black"/>
<path d="M102.216 33.5362C105.644 31.3625 108.137 28.2573 110.631 25.1521C113.124 22.0469 115.928 19.2523 117.798 15.8365C118.421 14.5945 116.552 13.9734 115.928 14.5945C113.747 16.7681 111.877 19.2523 109.696 21.7364C106.891 25.1521 102.84 28.5679 100.658 32.6046C100.347 33.2256 101.905 33.8467 102.216 33.5362Z" fill="black"/>
<path d="M109.385 31.3625C109.073 31.673 108.761 31.9835 108.761 32.2941C108.138 32.6046 107.826 33.2256 107.826 33.5361C107.515 33.5361 107.203 33.8467 107.203 34.1572V34.4677C107.203 34.7782 107.515 35.0887 108.138 35.0887C110.319 35.0887 111.878 32.6046 113.436 31.3625C116.864 28.5678 120.292 26.3942 124.032 24.2205C130.264 20.4943 137.432 17.0786 142.418 11.4892C143.353 10.5577 141.172 9.93664 140.548 10.2472C134.316 14.5944 128.394 18.6312 121.85 22.3574C118.422 23.91 115.617 25.7731 112.813 27.9468C111.566 29.1889 110.319 30.1204 109.385 31.3625Z" fill="black"/>
<path d="M113.123 39.436C112.188 39.7465 112.811 40.9886 113.746 40.9886C113.746 41.2991 114.058 41.2991 114.058 41.6096V41.9201H114.369C114.369 41.2991 131.821 39.1254 134.002 38.8149C141.17 37.5728 148.649 36.3308 155.505 33.8466C156.752 33.5361 156.44 31.673 155.194 31.673C148.649 32.294 142.417 34.1571 136.184 35.3992C128.393 36.6413 120.29 36.9518 113.123 39.436Z" fill="black"/>
<path d="M6.2345 165.817C14.3371 163.644 22.128 159.607 29.6073 156.502C30.8538 155.881 29.9189 154.328 28.6724 154.639C20.8814 157.433 12.4672 159.918 5.29959 163.954C4.05304 164.575 4.98795 166.128 6.2345 165.817Z" fill="black"/>
<path d="M33.3436 160.849C21.813 168.923 9.34756 177.928 0.310082 189.106C-0.624829 190.348 1.55663 190.97 2.49154 190.348C14.0221 181.654 24.3061 171.407 35.5251 162.712C36.7716 161.47 34.5902 159.918 33.3436 160.849Z" fill="black"/>
<path d="M40.2023 171.096C34.9045 179.791 29.9183 188.485 24.9321 197.18C19.9459 205.874 14.3364 214.259 9.97352 223.264C9.35025 224.816 11.5317 225.437 12.4666 224.506C23.9972 208.359 33.3463 189.727 42.0721 172.028C42.6954 170.786 40.514 170.475 40.2023 171.096Z" fill="black"/>
<path d="M106.582 170.475C106.582 169.544 104.712 169.544 105.023 170.475C105.958 181.654 106.893 192.833 107.828 204.011C108.763 215.19 108.451 226.369 110.01 237.548C110.01 238.79 112.191 238.79 112.191 237.548C112.814 226.369 111.568 215.19 110.633 204.011C109.386 192.833 108.14 181.654 106.582 170.475Z" fill="black"/>
<path d="M124.03 193.764C120.914 185.07 117.486 176.065 114.058 167.37C113.435 166.128 111.253 166.749 111.876 167.991C114.993 176.996 118.421 185.691 121.537 194.385C124.654 203.08 127.147 212.395 130.886 220.779C131.51 221.711 133.379 221.4 133.068 220.158C130.575 211.464 127.147 202.769 124.03 193.764Z" fill="black"/>
<path d="M158 193.454C147.404 180.101 133.069 168.612 118.733 159.297C118.11 158.676 116.552 159.607 117.487 160.228C124.031 165.818 130.887 171.096 137.432 176.996C143.976 182.586 149.897 188.796 156.442 194.385C157.065 195.006 158.623 194.385 158 193.454Z" fill="black"/>
</g>
<defs>
<clipPath id="clip0_38_1132">
<rect width="158" height="245" fill="white"/>
</clipPath>
</defs>
</svg>
