<svg width="496" height="239" viewBox="0 0 496 239" fill="none" xmlns="http://www.w3.org/2000/svg">
<path d="M238.633 161.25C239.642 160.818 240.507 160.244 241.515 159.812C241.948 159.669 242.38 159.381 242.524 158.95C242.524 158.663 242.38 158.375 242.38 158.088C241.66 156.651 240.795 155.213 240.219 153.776C238.922 150.471 239.642 147.165 242.524 145.01C243.821 144.004 245.406 143.429 246.991 142.71C247.712 144.004 248.432 145.297 249.009 146.591C247.424 147.453 245.694 148.603 245.118 150.183C244.398 152.052 245.406 154.207 246.415 155.932C246.703 156.363 246.991 156.794 247.424 156.794C247.712 156.794 248 156.651 248.288 156.507C249.297 155.932 250.45 155.357 251.459 154.782C251.747 154.639 252.035 154.495 252.323 154.639C252.467 154.782 252.611 154.926 252.755 155.07C253.188 155.788 253.476 156.507 253.764 157.226C253.764 157.369 253.908 157.513 253.764 157.657C253.764 157.8 253.62 157.8 253.476 157.944C252.323 158.519 251.314 159.094 250.162 159.669C249.729 159.956 249.153 160.244 249.153 160.675C249.153 160.962 249.297 161.25 249.441 161.537C251.026 164.699 254.629 171.885 256.214 175.046C254.917 175.765 253.62 176.34 252.323 177.058C250.45 173.465 246.559 165.848 244.83 162.399C243.389 163.118 242.092 163.836 240.651 164.411C239.642 163.549 239.066 162.399 238.633 161.25ZM239.786 166.423C240.074 166.423 240.219 166.423 240.507 166.28C241.66 165.705 242.668 165.13 243.821 164.555C245.406 167.717 249.153 175.046 250.882 178.352C251.026 178.639 251.314 179.07 251.603 179.07C251.747 179.07 252.035 178.927 252.179 178.927C253.908 178.064 255.493 177.202 257.223 176.34C257.367 176.196 257.655 176.196 257.655 175.909C257.799 175.621 257.655 175.19 257.511 174.759C255.926 171.597 252.179 164.268 250.738 161.106C252.179 160.387 253.62 159.669 255.205 158.806C255.493 158.663 255.637 158.519 255.782 158.375C255.926 158.088 255.782 157.944 255.637 157.657C254.917 156.219 254.052 154.782 253.332 153.201C252.9 152.339 252.179 152.627 251.459 153.058C250.162 153.633 249.009 154.351 247.712 154.926C246.991 153.776 246.271 152.483 246.559 151.046C246.847 149.321 248.432 148.171 250.017 147.597C250.306 147.453 250.594 147.309 250.738 147.022C250.882 146.734 250.738 146.303 250.594 146.016C249.873 144.435 249.153 142.998 248.288 141.417C248.144 141.273 248 140.986 247.856 140.842C247.712 140.698 247.424 140.554 247.28 140.554C246.991 140.554 246.847 140.698 246.559 140.698C245.694 141.129 244.83 141.56 243.965 141.992C242.668 142.71 241.515 143.429 240.363 144.291C238.201 146.016 237.481 148.171 237.913 150.902C238.345 153.489 239.498 155.932 240.651 158.232C239.642 158.663 238.778 159.238 237.769 159.669C237.481 159.812 237.048 160.1 236.904 160.387C236.76 160.675 236.904 161.106 237.192 161.393C237.913 162.687 238.489 163.98 239.21 165.417C239.21 165.992 239.498 166.423 239.786 166.423Z" fill="black"/>
<path d="M238.633 161.25C239.642 160.818 240.507 160.244 241.515 159.812C241.948 159.669 242.38 159.381 242.524 158.95C242.524 158.663 242.38 158.375 242.38 158.088C241.66 156.651 240.795 155.213 240.219 153.776C238.922 150.471 239.642 147.165 242.524 145.01C243.821 144.004 245.406 143.429 246.991 142.71C247.712 144.004 248.432 145.297 249.009 146.591C247.424 147.453 245.694 148.603 245.118 150.183C244.398 152.052 245.406 154.207 246.415 155.932C246.703 156.363 246.991 156.794 247.424 156.794C247.712 156.794 248 156.651 248.288 156.507C249.297 155.932 250.45 155.357 251.459 154.782C251.747 154.639 252.035 154.495 252.323 154.639C252.467 154.782 252.611 154.926 252.755 155.07C253.188 155.788 253.476 156.507 253.764 157.226C253.764 157.369 253.908 157.513 253.764 157.657C253.764 157.8 253.62 157.8 253.476 157.944C252.323 158.519 251.314 159.094 250.162 159.669C249.729 159.956 249.153 160.244 249.153 160.675C249.153 160.962 249.297 161.25 249.441 161.537C251.026 164.699 254.629 171.885 256.214 175.046C254.917 175.765 253.62 176.34 252.323 177.058C250.45 173.465 246.559 165.848 244.83 162.399C243.389 163.118 242.092 163.836 240.651 164.411C239.642 163.549 239.066 162.399 238.633 161.25ZM239.786 166.423C240.074 166.423 240.219 166.423 240.507 166.28C241.66 165.705 242.668 165.13 243.821 164.555C245.406 167.717 249.153 175.046 250.882 178.352C251.026 178.639 251.314 179.07 251.603 179.07C251.747 179.07 252.035 178.927 252.179 178.927C253.908 178.064 255.493 177.202 257.223 176.34C257.367 176.196 257.655 176.196 257.655 175.909C257.799 175.621 257.655 175.19 257.511 174.759C255.926 171.597 252.179 164.268 250.738 161.106C252.179 160.387 253.62 159.669 255.205 158.806C255.493 158.663 255.637 158.519 255.782 158.375C255.926 158.088 255.782 157.944 255.637 157.657C254.917 156.219 254.052 154.782 253.332 153.201C252.9 152.339 252.179 152.627 251.459 153.058C250.162 153.633 249.009 154.351 247.712 154.926C246.991 153.776 246.271 152.483 246.559 151.046C246.847 149.321 248.432 148.171 250.017 147.597C250.306 147.453 250.594 147.309 250.738 147.022C250.882 146.734 250.738 146.303 250.594 146.016C249.873 144.435 249.153 142.998 248.288 141.417C248.144 141.273 248 140.986 247.856 140.842C247.712 140.698 247.424 140.554 247.28 140.554C246.991 140.554 246.847 140.698 246.559 140.698C245.694 141.129 244.83 141.56 243.965 141.992C242.668 142.71 241.515 143.429 240.363 144.291C238.201 146.016 237.481 148.171 237.913 150.902C238.345 153.489 239.498 155.932 240.651 158.232C239.642 158.663 238.778 159.238 237.769 159.669C237.481 159.812 237.048 160.1 236.904 160.387C236.76 160.675 236.904 161.106 237.192 161.393C237.913 162.687 238.489 163.98 239.21 165.417C239.21 165.992 239.498 166.423 239.786 166.423Z" stroke="black" stroke-width="0.25" stroke-miterlimit="10"/>
<path d="M236.906 63.5225C238.347 63.5225 239.499 62.3728 239.499 60.9356C239.499 59.4985 238.347 58.3488 236.906 58.3488C235.465 58.3488 234.312 59.4985 234.312 60.9356C234.168 62.3728 235.465 63.5225 236.906 63.5225Z" fill="black"/>
<path d="M236.906 63.5225C238.347 63.5225 239.499 62.3728 239.499 60.9356C239.499 59.4985 238.347 58.3488 236.906 58.3488C235.465 58.3488 234.312 59.4985 234.312 60.9356C234.168 62.3728 235.465 63.5225 236.906 63.5225Z" stroke="white" stroke-width="0.25" stroke-miterlimit="10"/>
<path d="M414.293 238.856C415.734 238.856 416.887 237.707 416.887 236.269C416.887 234.832 415.734 233.682 414.293 233.682C412.852 233.682 411.699 234.832 411.699 236.269C411.699 237.563 412.852 238.856 414.293 238.856Z" stroke="white" stroke-width="0.25" stroke-miterlimit="10"/>
<path d="M185.027 103.619C186.468 103.619 187.621 102.47 187.621 101.032C187.621 99.5953 186.468 98.4456 185.027 98.4456C183.586 98.4456 182.433 99.5953 182.433 101.032C182.289 102.47 183.586 103.619 185.027 103.619Z" fill="black" fill-opacity="0.5"/>
<path d="M144.391 209.251C145.832 209.251 146.985 208.101 146.985 206.664C146.985 205.227 145.832 204.077 144.391 204.077C142.95 204.077 141.797 205.227 141.797 206.664C141.797 208.101 142.95 209.251 144.391 209.251Z" fill="black" fill-opacity="0.5"/>
<path d="M52.0201 203.79C53.4611 203.79 54.6139 202.64 54.6139 201.203C54.6139 199.765 53.4611 198.616 52.0201 198.616C50.579 198.616 49.4262 199.765 49.4262 201.203C49.2821 202.496 50.4349 203.79 52.0201 203.79Z" fill="black" fill-opacity="0.5"/>
<path d="M88.4806 164.842C89.9216 164.842 91.0744 163.693 91.0744 162.256C91.0744 160.818 89.9216 159.669 88.4806 159.669C87.0395 159.669 85.8867 160.818 85.8867 162.256C85.8867 163.693 87.0395 164.842 88.4806 164.842Z" fill="white"/>
<path d="M198.719 173.034C199.439 173.034 199.872 172.459 199.872 171.741C199.872 171.022 199.295 170.591 198.719 170.591C197.998 170.591 197.422 171.166 197.422 171.741C197.566 172.603 198.142 173.034 198.719 173.034Z" fill="black"/>
<path d="M198.719 173.034C199.439 173.034 199.872 172.459 199.872 171.741C199.872 171.022 199.295 170.591 198.719 170.591C197.998 170.591 197.422 171.166 197.422 171.741C197.566 172.603 198.142 173.034 198.719 173.034Z" stroke="white" stroke-width="0.25" stroke-miterlimit="10"/>
<path d="M172.348 238.856C173.068 238.856 173.501 238.281 173.501 237.563C173.501 236.844 172.924 236.413 172.348 236.413C171.627 236.413 171.051 236.988 171.051 237.563C171.051 238.281 171.627 238.856 172.348 238.856Z" stroke="white" stroke-width="0.25" stroke-miterlimit="10"/>
<path d="M479.86 193.011C480.58 193.011 481.013 192.436 481.013 191.717C481.013 190.999 480.436 190.568 479.86 190.568C479.283 190.568 478.707 191.143 478.707 191.717C478.707 192.436 479.283 193.011 479.86 193.011Z" fill="white"/>
<path d="M25.939 22.9946C28.5328 22.9946 30.6943 20.8388 30.6943 18.2519C30.6943 15.6651 28.5328 13.5093 25.939 13.5093C23.3451 13.5093 21.1836 15.6651 21.1836 18.2519C21.1836 20.9825 23.3451 22.9946 25.939 22.9946Z" fill="black" fill-opacity="0.5"/>
<path d="M7.06101 22.1323C10.9518 22.1323 14.122 18.9705 14.122 15.0902C14.122 11.2099 10.9518 8.0481 7.06101 8.0481C3.17025 8.19181 0 11.3536 0 15.2339C0 19.1142 3.17025 22.1323 7.06101 22.1323Z" fill="black" fill-opacity="0.5"/>
<path d="M467.612 89.8226C471.503 89.8226 474.673 86.6609 474.673 82.7805C474.673 78.9002 471.503 75.7384 467.612 75.7384C463.721 75.7384 460.551 78.9002 460.551 82.7805C460.551 86.6609 463.721 89.8226 467.612 89.8226Z" fill="black" fill-opacity="0.5"/>
<path d="M201.31 31.1864L205.345 39.3782C205.345 39.3782 202.463 40.6717 200.013 41.2465C196.699 41.9651 194.105 41.6777 194.105 41.6777C194.105 41.6777 192.376 41.534 192.232 41.534L200.589 58.3488C201.022 59.3548 202.03 61.798 202.175 64.0974C202.463 67.1155 201.886 69.5586 201.742 70.1335C201.742 70.1335 201.022 73.2953 198.716 76.457C196.555 79.3313 193.961 80.6248 193.24 81.0559C193.24 81.0559 188.917 83.4991 183.729 82.7805C182.577 82.6368 181.424 82.3494 180.415 81.9182C185.747 82.6368 189.926 80.1936 189.926 80.1936C190.646 79.7625 193.24 78.469 195.402 75.5947C197.852 72.433 198.428 69.2712 198.428 69.2712C198.572 68.84 199.148 66.3969 198.86 63.2351C198.572 60.9357 197.707 58.4925 197.275 57.4865L188.917 40.6717C189.061 40.6717 190.79 40.8154 190.79 40.8154C190.79 40.8154 193.24 41.1028 196.699 40.3842C199.148 39.8094 202.03 38.5159 202.03 38.5159L198.86 32.1924C199.869 31.905 200.734 31.4738 201.31 31.1864ZM187.62 30.899C184.882 29.7493 183.153 28.0247 182.144 26.7312L184.306 25.5815C184.306 25.5815 185.747 29.6055 190.935 31.7613H191.079C189.782 31.6176 188.629 31.3301 187.62 30.899ZM175.372 68.1215C174.363 65.5346 174.651 63.6663 175.804 61.2231C177.389 57.9176 181.136 57.3428 181.136 57.3428L177.965 50.8755C178.686 50.4444 179.551 50.1569 180.415 49.8695L184.594 58.2051C184.594 58.2051 180.847 58.7799 179.262 62.0854C178.11 64.3848 177.965 66.2532 178.83 68.9838C179.551 70.2772 180.559 72.0018 182.433 72.8641C182.144 72.8641 181.712 72.8641 181.28 72.7204C177.965 72.2892 176.236 69.9898 175.372 68.1215ZM174.219 81.9182L174.651 82.3494C174.651 82.2057 174.507 82.0619 174.219 81.9182Z" fill="black" fill-opacity="0.3"/>
<path d="M198.86 32.1924L202.03 38.5159C202.03 38.5159 199.148 39.8094 196.698 40.3843C193.384 41.1028 190.79 40.8154 190.79 40.8154C190.79 40.8154 189.061 40.6717 188.917 40.6717L197.419 57.4865C197.851 58.4925 198.86 60.9357 199.004 63.2351C199.292 66.2532 198.715 68.6964 198.571 69.2712C198.571 69.2712 197.851 72.433 195.545 75.5947C193.384 78.469 190.79 79.7625 190.069 80.1936C190.069 80.1936 185.746 82.6368 180.559 81.9182C179.982 81.7745 179.262 81.4871 178.685 81.1997C176.668 80.1936 174.939 78.7565 174.362 78.3253C173.642 77.6068 171.768 75.5947 170.76 73.2953C169.03 69.2712 169.03 66.2532 169.175 65.5346C169.319 63.3788 169.751 61.3668 170.471 59.3548C171.192 57.6302 172.201 56.0493 173.353 54.7559C174.65 53.175 176.236 51.8816 177.965 51.0193L181.135 57.4865C181.135 57.4865 177.388 58.0614 175.803 61.3668C174.65 63.6663 174.506 65.5346 175.371 68.2652C176.236 70.1335 177.965 72.433 181.279 72.8641C181.711 72.8641 182 72.8641 182.432 73.0078C183.152 73.439 183.873 73.5827 184.738 73.7264C187.908 74.1576 189.925 73.1516 191.943 70.8521C193.24 69.2712 193.816 67.1155 193.528 65.1034C193.384 63.81 192.807 62.804 192.231 61.6543L176.38 29.893L182.288 26.8749C183.297 28.1684 185.026 29.893 187.764 31.0427C188.917 31.4739 190.069 31.7613 191.222 31.905C191.654 32.0487 193.672 32.7673 195.833 32.7673C196.698 32.4799 197.707 32.3362 198.86 32.1924Z" fill="black"/>
<path d="M173.353 54.7558C172.2 56.193 171.192 57.6302 170.471 59.3548C169.751 61.3668 169.318 63.3788 169.174 65.5346C169.174 66.2531 169.03 69.4149 170.903 73.2952C171.912 75.5947 173.785 77.463 174.506 78.3253C174.938 78.7565 176.667 80.3373 178.829 81.1996C179.405 81.4871 179.982 81.7745 180.702 81.9182C178.973 81.6308 177.1 81.1996 175.515 80.3373C173.497 79.3313 171.768 77.8942 171.336 77.463C170.615 76.7444 168.742 74.7324 167.733 72.4329C166.004 68.4089 166.004 65.3909 166.004 64.6723C166.148 62.5165 166.58 60.5045 167.301 58.4925C168.021 56.7679 169.03 55.187 170.183 53.8936C170.903 53.0313 171.768 52.169 172.633 51.4504C174.074 50.4444 175.515 49.5821 177.1 49.0072L177.964 50.8755C176.235 51.8815 174.65 53.175 173.353 54.7558Z" fill="black" fill-opacity="0.5"/>
<path d="M197.995 30.3241L198.86 32.0487C197.851 32.3361 196.698 32.4799 195.546 32.4799C193.384 32.4799 191.367 31.7613 190.934 31.6176C191.367 31.6176 191.799 31.6176 192.087 31.6176C194.825 31.7613 196.987 31.0427 197.995 30.3241ZM182.144 26.5875L176.236 29.6055L192.087 61.3668C192.663 62.5165 193.24 63.5225 193.384 64.816C193.672 66.828 193.096 68.9838 191.799 70.5646C189.781 72.8641 187.764 73.8701 184.594 73.439C183.873 73.2952 183.009 73.1515 182.288 72.7204C184.882 72.7204 186.611 71.8581 188.34 69.7023C189.637 68.1215 190.214 65.9657 189.926 63.9537C189.781 62.6603 189.205 61.6542 188.629 60.5045L172.777 28.7432L180.847 24.5755C180.991 24.7192 181.279 25.5815 182.144 26.5875Z" fill="black" fill-opacity="0.5"/>
<path d="M495.855 0L496 0.143716C496 0.143716 496 0.143716 495.855 0Z" fill="black"/>
<path d="M445.419 134.95C441.673 136.53 437.35 137.968 433.315 138.974C429.136 139.836 424.957 141.129 423.083 136.674C420.201 129.345 419.769 120.578 418.328 112.673C426.11 110.087 440.664 103.045 445.563 110.23C449.886 116.554 454.354 131.069 445.419 134.95ZM454.21 121.153C452.624 114.973 450.607 106.063 443.978 103.332C440.52 101.895 436.773 102.757 433.315 103.763C427.695 105.344 422.075 107.069 416.455 108.793C414.005 109.512 414.005 112.386 415.734 112.961C416.166 122.302 418.328 131.644 420.778 140.698C420.922 141.417 421.498 141.704 422.075 141.704C430.865 143.141 440.808 141.129 448.734 137.249C455.939 133.8 456.083 128.339 454.21 121.153Z" fill="black"/>
<path d="M445.419 134.95C441.673 136.53 437.35 137.968 433.315 138.974C429.136 139.836 424.957 141.129 423.083 136.674C420.201 129.345 419.769 120.578 418.328 112.673C426.11 110.087 440.664 103.045 445.563 110.23C449.886 116.554 454.354 131.069 445.419 134.95ZM454.21 121.153C452.624 114.973 450.607 106.063 443.978 103.332C440.52 101.895 436.773 102.757 433.315 103.763C427.695 105.344 422.075 107.069 416.455 108.793C414.005 109.512 414.005 112.386 415.734 112.961C416.166 122.302 418.328 131.644 420.778 140.698C420.922 141.417 421.498 141.704 422.075 141.704C430.865 143.141 440.808 141.129 448.734 137.249C455.939 133.8 456.083 128.339 454.21 121.153Z" stroke="white" stroke-width="0.25" stroke-miterlimit="10"/>
<path d="M437.207 127.476C435.477 129.201 432.884 129.057 431.442 127.189C430.578 126.039 430.29 124.746 430.29 123.452C430.866 123.021 431.298 122.446 431.154 121.728C430.866 118.422 435.621 119.572 437.062 120.865C439.08 122.734 439.08 125.608 437.207 127.476ZM436.918 116.698C432.595 114.973 426.831 117.272 426.975 122.446C426.975 122.734 427.119 123.021 427.264 123.308C426.687 125.752 427.984 128.77 430.001 130.207C433.604 133.081 439.08 131.213 441.241 127.476C443.691 123.308 441.241 118.422 436.918 116.698Z" fill="black"/>
<path d="M437.207 127.476C435.477 129.201 432.884 129.057 431.442 127.189C430.578 126.039 430.29 124.746 430.29 123.452C430.866 123.021 431.298 122.446 431.154 121.728C430.866 118.422 435.621 119.572 437.062 120.865C439.08 122.734 439.08 125.608 437.207 127.476ZM436.918 116.698C432.595 114.973 426.831 117.272 426.975 122.446C426.975 122.734 427.119 123.021 427.264 123.308C426.687 125.752 427.984 128.77 430.001 130.207C433.604 133.081 439.08 131.213 441.241 127.476C443.691 123.308 441.241 118.422 436.918 116.698Z" stroke="white" stroke-width="0.25" stroke-miterlimit="10"/>
<path d="M441.241 109.943C440.521 109.512 439.656 109.512 438.935 109.943C438.935 109.943 438.935 109.943 439.08 109.943C439.08 109.943 438.935 109.943 438.935 110.087C438.647 110.23 438.359 110.518 438.071 110.949C438.071 110.949 437.927 110.949 437.927 111.093C437.639 111.524 437.494 111.955 437.639 112.386C437.639 112.53 437.639 112.53 437.639 112.673C437.927 113.823 439.224 114.542 440.376 114.254C440.953 114.111 441.529 113.823 441.962 113.392C442.106 113.248 442.106 113.105 442.25 112.961C442.394 112.673 442.394 112.242 442.394 111.955C442.394 111.811 442.394 111.667 442.25 111.38C442.106 110.661 441.673 110.23 441.241 109.943Z" fill="black"/>
<path d="M441.241 109.943C440.521 109.512 439.656 109.512 438.935 109.943C438.935 109.943 438.935 109.943 439.08 109.943C439.08 109.943 438.935 109.943 438.935 110.087C438.647 110.23 438.359 110.518 438.071 110.949C438.071 110.949 437.927 110.949 437.927 111.093C437.639 111.524 437.494 111.955 437.639 112.386C437.639 112.53 437.639 112.53 437.639 112.673C437.927 113.823 439.224 114.542 440.376 114.254C440.953 114.111 441.529 113.823 441.962 113.392C442.106 113.248 442.106 113.105 442.25 112.961C442.394 112.673 442.394 112.242 442.394 111.955C442.394 111.811 442.394 111.667 442.25 111.38C442.106 110.661 441.673 110.23 441.241 109.943Z" stroke="white" stroke-width="0.25" stroke-miterlimit="10"/>
<path d="M113.263 39.8094C104.04 39.8094 94.5292 41.6777 85.3067 43.546C79.9749 44.552 74.499 45.7017 69.1672 46.4203C58.6478 47.8575 51.5868 51.4504 48.2724 57.199C45.2463 62.6602 45.6786 69.4149 46.3991 75.3073C47.4078 83.6428 48.8488 91.9783 50.7221 100.17C51.5868 104.194 52.7396 108.218 55.6216 110.805C58.936 113.679 63.8355 114.111 68.3026 114.111C88.4769 114.542 108.507 111.667 127.817 105.775C132.14 104.482 137.039 102.757 140.354 99.3079C145.686 93.5592 145.397 84.7925 144.821 76.3133C143.956 64.9597 142.515 54.0373 135.166 46.9952C130.699 42.6837 124.07 40.0968 116.289 39.8094C115.28 39.8094 114.271 39.8094 113.263 39.8094ZM71.9052 116.698C70.7524 116.698 69.4554 116.698 68.3026 116.698C63.1149 116.554 57.9273 116.123 54.1806 112.817C50.7221 109.799 49.4252 105.344 48.4165 100.889C46.5432 92.5532 45.1022 84.074 44.0934 75.7384C43.3729 69.4149 42.7965 62.0854 46.255 56.0493C50.0016 49.5821 57.6391 45.558 68.879 43.9771C74.0667 43.2586 79.5426 42.2525 84.8744 41.1028C95.2498 39.0908 105.913 36.935 116.433 37.3662C124.791 37.7973 131.996 40.528 136.895 45.2706C140.498 48.8635 143.092 53.4624 144.821 59.6422C146.262 64.9597 146.838 70.7084 147.271 76.0259C147.559 80.3373 147.847 84.7925 147.271 89.104C146.55 94.1341 144.965 98.0144 142.227 100.889C138.625 104.769 133.293 106.637 128.681 108.075C110.092 113.823 91.0708 116.698 71.9052 116.698Z" fill="black"/>
<path d="M58.0713 64.6723C55.3334 70.5646 56.3421 77.8942 57.2067 83.6428C58.2154 90.9723 59.9447 99.0204 65.8529 102.757C70.8964 105.919 77.381 105.2 84.1538 104.051L116.433 98.733C121.765 97.8707 126.808 96.721 129.834 93.2718C134.013 88.5292 133.005 81.0559 131.852 74.445C130.411 67.1154 128.537 58.9236 123.061 53.6061C118.738 49.2946 111.533 47.8575 101.446 49.4384C95.9702 50.3007 90.4943 51.163 85.0185 52.169C80.9836 52.8875 76.9487 53.6061 72.9139 54.181C65.8529 55.4744 60.9534 58.7799 58.0713 64.6723ZM74.9313 107.643C71.1846 107.643 67.5821 106.925 64.4118 104.913C57.639 100.601 55.9098 91.8346 54.757 84.074C53.8924 77.8942 52.7395 70.2772 55.9098 63.6663C59.2241 57.199 64.7 53.175 72.3375 52.0253C76.3723 51.4504 80.4072 50.7318 84.442 50.0132C89.7738 49.1509 95.3938 48.1449 100.87 47.2826C111.677 45.7017 119.747 47.2826 124.502 52.169C130.411 58.0613 132.428 66.6843 133.869 74.3013C134.446 77.6067 135.166 81.4871 135.022 85.08C134.878 89.2477 133.581 92.5532 131.419 95.1401C127.817 99.1642 122.341 100.314 116.577 101.32L84.2979 106.637C81.2718 107.069 78.1015 107.643 74.9313 107.643Z" fill="black"/>
<path d="M70.3226 73.439C70.0344 73.439 69.8903 73.439 69.6021 73.2953C69.0257 72.8641 68.8816 72.1455 69.3139 71.5707L75.9426 61.9417C76.3749 61.3668 77.0954 61.2231 77.6718 61.6543C78.2482 62.0854 78.3923 62.804 77.96 63.3788L71.3313 73.0078C71.1872 73.2953 70.7549 73.439 70.3226 73.439Z" fill="black"/>
<path d="M75.5101 78.1816C75.2219 78.1816 75.0778 78.1816 74.7896 78.0379C74.2132 77.6067 74.0691 76.8882 74.5014 76.3133L80.8419 66.828C81.2742 66.2532 81.9947 66.1095 82.5711 66.5406C83.1475 66.9718 83.2916 67.6903 82.8593 68.2652L76.5188 77.6067C76.2306 77.8942 75.7983 78.1816 75.5101 78.1816Z" fill="black"/>
<path d="M74.5009 93.5592C74.2127 93.5592 73.7804 93.4155 73.6363 93.1281C73.204 92.6969 73.204 91.8346 73.7804 91.4035C83.4352 82.6368 91.9373 72.7204 99.1424 61.6542C99.5747 61.0794 100.295 60.9357 100.872 61.3668C101.448 61.798 101.592 62.5165 101.16 63.0914C93.9547 74.1575 85.3086 84.3614 75.3655 93.2718C75.0773 93.4155 74.7891 93.5592 74.5009 93.5592Z" fill="black"/>
<path d="M91.9384 88.8166C91.6502 88.8166 91.362 88.6729 91.2179 88.5292C90.6415 88.098 90.6415 87.3794 91.0738 86.8046L98.423 77.7505C98.8553 77.1756 99.5758 77.1756 100.152 77.6067C100.729 78.0379 100.729 78.7565 100.296 79.3313L92.9471 88.3855C92.6589 88.6729 92.2266 88.8166 91.9384 88.8166Z" fill="black"/>
<path d="M104.619 90.11C104.187 90.11 103.899 89.9663 103.611 89.5352C103.178 88.9603 103.323 88.2417 103.899 87.8106C107.79 85.2237 110.672 81.4871 112.257 77.0319C112.545 76.457 113.121 76.0259 113.842 76.3133C114.418 76.6007 114.851 77.1756 114.562 77.8942C112.833 82.7805 109.519 86.9483 105.34 89.8226C105.052 90.11 104.764 90.11 104.619 90.11Z" fill="black"/>
<path d="M116.29 89.104C116.001 89.104 115.857 89.104 115.713 88.9603C115.137 88.6729 114.993 87.8106 115.281 87.3794L120.324 79.3313C120.613 78.7565 121.477 78.6128 121.91 78.9002C122.486 79.1876 122.63 80.0499 122.342 80.4811L117.298 88.5292C117.01 88.9603 116.722 89.104 116.29 89.104Z" fill="black"/>
<path d="M62.9727 155.788C60.2348 155.788 57.6409 155.213 55.6235 153.345C52.3092 150.327 52.1651 145.441 52.3092 141.56C52.8856 132.219 55.0471 123.021 58.6497 114.254C58.9379 113.679 59.6584 113.392 60.2348 113.679C60.8112 113.967 61.0994 114.685 60.8112 115.26C57.3527 123.596 55.3353 132.506 54.7589 141.704C54.6148 145.01 54.6148 149.177 57.2086 151.477C59.9466 154.064 64.4137 153.489 68.8809 152.627L156.639 134.518C159.954 133.8 163.268 132.937 164.853 130.638C167.015 127.333 164.997 122.446 162.259 119.141C156.351 111.811 147.561 106.494 138.194 104.769C137.474 104.625 137.041 104.051 137.185 103.332C137.329 102.613 137.906 102.182 138.626 102.326C148.569 104.194 157.792 109.799 164.133 117.56C165.862 119.716 167.159 122.159 167.879 124.314C168.6 127.189 168.311 129.776 167.015 131.931C164.853 135.093 161.106 136.099 157.36 136.962L69.6014 155.07C67.2958 155.357 65.1343 155.788 62.9727 155.788Z" fill="black"/>
<path d="M69.1672 164.555C65.5647 164.555 62.1062 164.124 59.2242 163.262C56.9185 162.543 54.9011 160.387 53.7483 157.082C52.7396 154.351 52.3073 151.189 52.5955 148.603C52.7396 147.884 53.316 147.453 53.8924 147.596C54.6129 147.74 55.0452 148.315 54.9011 148.89C54.4688 152.914 56.198 159.812 59.8006 160.962C66.1411 162.974 75.3636 162.112 81.4159 160.818C94.8174 157.8 103.175 156.507 111.101 155.357C119.027 154.207 127.385 152.914 140.642 149.896C141.218 149.752 142.083 149.609 142.948 149.465C148.568 148.315 160.24 145.872 162.834 142.566C166.436 138.111 168.742 127.333 164.995 123.883C164.563 123.452 164.419 122.734 164.851 122.159C165.283 121.728 166.004 121.584 166.58 122.015C168.886 124.027 169.751 127.907 169.03 132.937C168.454 137.105 166.724 141.417 164.707 143.86C161.825 147.453 152.17 149.752 143.38 151.621C142.515 151.764 141.795 151.908 141.074 152.052C127.673 155.07 119.315 156.363 111.389 157.513C103.464 158.663 95.1056 159.956 81.8482 162.974C78.3898 163.836 73.6344 164.555 69.1672 164.555Z" fill="black"/>
<path d="M70.7551 161.537C70.4669 161.537 70.3228 161.393 70.0346 161.25L64.2705 156.938C63.6941 156.507 63.6941 155.788 63.9823 155.213C64.4146 154.639 65.1351 154.639 65.7115 154.926L71.4756 159.238C72.052 159.669 72.052 160.387 71.7638 160.962C71.4756 161.393 71.1874 161.537 70.7551 161.537Z" fill="black"/>
<path d="M82.4248 159.812C82.2807 159.812 81.9925 159.812 81.8484 159.669L74.7874 155.357C74.2109 155.07 74.0668 154.207 74.355 153.776C74.6432 153.201 75.5079 153.058 75.9402 153.345L83.0012 157.657C83.5776 157.944 83.7217 158.806 83.4335 159.238C83.1453 159.525 82.713 159.812 82.4248 159.812Z" fill="black"/>
<path d="M93.9547 159.381C93.8106 159.381 93.5224 159.381 93.3783 159.238C90.6403 157.8 88.3347 155.645 86.7496 152.914C86.4614 152.339 86.6055 151.621 87.1819 151.333C87.7583 151.046 88.4788 151.189 88.767 151.764C90.208 154.064 92.0814 155.932 94.5311 157.225C95.1075 157.513 95.3957 158.232 94.9634 158.806C94.6752 159.094 94.2429 159.381 93.9547 159.381Z" fill="black"/>
<path d="M103.321 156.363C103.032 156.363 102.744 156.219 102.456 156.076L97.2684 151.477C96.8361 151.046 96.692 150.327 97.1243 149.752C97.5566 149.321 98.2771 149.177 98.8535 149.609L104.041 154.207C104.474 154.639 104.618 155.357 104.185 155.932C104.041 156.219 103.609 156.363 103.321 156.363Z" fill="black"/>
<path d="M112.976 154.207C112.688 154.207 112.4 154.064 112.112 153.92L107.212 149.321C106.78 148.89 106.636 148.171 107.212 147.597C107.645 147.165 108.365 147.022 108.941 147.597L113.841 152.195C114.273 152.627 114.417 153.345 113.841 153.92C113.697 154.064 113.264 154.207 112.976 154.207Z" fill="black"/>
<path d="M125.371 154.064C125.082 154.064 124.794 153.92 124.65 153.776L117.589 147.74C117.013 147.309 117.013 146.59 117.445 146.016C117.877 145.441 118.598 145.441 119.174 145.872L126.235 151.908C126.812 152.339 126.812 153.058 126.379 153.633C126.091 153.92 125.659 154.064 125.371 154.064Z" fill="black"/>
<path d="M132.718 150.902C132.43 150.902 132.141 150.758 131.997 150.615L126.233 145.872C125.801 145.441 125.657 144.722 126.089 144.147C126.521 143.572 127.242 143.572 127.818 143.86L128.395 144.291C128.539 144.435 128.539 144.435 128.683 144.578L133.727 148.746C134.303 149.177 134.303 149.896 133.871 150.471C133.438 150.758 133.15 150.902 132.718 150.902Z" fill="black"/>
<path d="M140.499 149.177C140.211 149.177 139.922 149.034 139.634 148.89L134.879 144.291C134.447 143.86 134.447 143.141 134.879 142.566C135.311 142.135 136.176 142.135 136.608 142.566L141.364 147.165C141.796 147.597 141.796 148.459 141.364 148.89C141.075 149.034 140.787 149.177 140.499 149.177Z" fill="black"/>
<path d="M148.137 146.878C147.848 146.878 147.56 146.734 147.272 146.591L143.237 142.998C142.805 142.566 142.661 141.848 143.093 141.273C143.525 140.842 144.246 140.698 144.822 141.129L148.857 144.722C149.289 145.153 149.434 145.872 149.001 146.447C148.713 146.734 148.425 146.878 148.137 146.878Z" fill="black"/>
<path d="M155.342 145.153C155.054 145.153 154.622 145.01 154.478 144.722L151.019 140.986C150.587 140.554 150.587 139.692 151.163 139.261C151.74 138.83 152.46 138.83 152.892 139.405L156.351 143.141C156.783 143.572 156.783 144.435 156.207 144.866C155.919 145.01 155.63 145.153 155.342 145.153Z" fill="black"/>
<path d="M72.7697 124.458C72.4815 127.907 71.9051 131.357 71.4728 134.662C71.0405 137.68 70.4641 140.842 70.1759 144.004C83.8656 140.842 97.8435 137.968 111.245 135.237C124.358 132.506 137.904 129.632 151.305 126.614C146.262 122.734 141.362 117.991 138.048 113.248L72.7697 124.458ZM68.7348 146.734C68.4466 146.734 68.1584 146.59 68.0143 146.447C67.7261 146.159 67.582 145.872 67.582 145.441C67.8702 141.704 68.4466 137.968 69.0231 134.375C69.5995 130.782 70.1759 127.045 70.4641 123.452C70.4641 122.877 70.8964 122.446 71.4728 122.302L138.48 110.805C138.913 110.661 139.345 110.949 139.633 111.236C143.236 116.554 149.144 122.302 154.908 126.183C155.34 126.47 155.484 126.901 155.34 127.333C155.196 127.764 154.908 128.195 154.476 128.339C140.21 131.5 125.799 134.518 111.677 137.536C97.6994 140.411 83.1451 143.429 69.0231 146.734C69.0231 146.734 68.879 146.734 68.7348 146.734Z" fill="black"/>
<path d="M76.6609 130.494C76.0845 130.494 75.6522 130.063 75.5081 129.488C75.364 128.77 75.7963 128.195 76.5168 128.051L131.708 117.847C132.428 117.704 133.005 118.135 133.149 118.853C133.293 119.572 132.861 120.147 132.14 120.29L76.9491 130.494C76.805 130.494 76.805 130.494 76.6609 130.494Z" fill="black"/>
<path d="M77.6726 137.536C77.0962 137.536 76.6639 137.105 76.5198 136.53C76.3757 135.812 76.808 135.237 77.5285 135.093L136.899 123.883C137.619 123.74 138.196 124.171 138.34 124.889C138.484 125.608 138.051 126.183 137.331 126.327L77.8167 137.536H77.6726Z" fill="black"/>
<path d="M82.7163 143.716C82.1399 143.716 81.5634 143.285 81.5634 142.71L79.2578 122.159C79.2578 121.44 79.6901 120.865 80.2665 120.865C80.987 120.865 81.5634 121.296 81.5634 121.871L83.8691 142.423C84.0132 143.141 83.5809 143.716 82.7163 143.716C82.8604 143.716 82.7163 143.716 82.7163 143.716Z" fill="black"/>
<path d="M91.2166 141.417C90.6402 141.417 90.0638 140.842 90.0638 140.267L89.1992 120.147C89.1992 119.428 89.6315 118.997 90.352 118.853C91.0725 118.853 91.5048 119.284 91.6489 120.003L92.5136 140.123C92.3695 140.842 91.9372 141.417 91.2166 141.417Z" fill="black"/>
<path d="M99.7201 139.692C99.1437 139.692 98.5673 139.261 98.5673 138.542L97.5586 118.71C97.5586 117.991 97.9909 117.416 98.7114 117.416C99.4319 117.416 100.008 117.847 100.008 118.566L100.873 138.399C101.017 139.117 100.441 139.692 99.7201 139.692Z" fill="black"/>
<path d="M109.375 137.536C108.799 137.536 108.222 137.105 108.222 136.53L105.772 117.847C105.628 117.129 106.205 116.554 106.781 116.554C107.502 116.41 108.078 116.985 108.078 117.56L110.528 136.099C110.672 136.818 110.095 137.393 109.519 137.393C109.519 137.536 109.519 137.536 109.375 137.536Z" fill="black"/>
<path d="M122.197 135.093C121.765 135.093 121.188 134.806 121.044 134.375L114.271 116.41C113.983 115.835 114.416 115.117 114.992 114.829C115.568 114.542 116.289 114.973 116.577 115.548L123.35 133.369C123.638 133.943 123.206 134.662 122.629 134.949C122.485 134.949 122.341 135.093 122.197 135.093Z" fill="black"/>
<path d="M132.285 133.225C131.853 133.225 131.42 132.937 131.132 132.506L123.062 114.973C122.774 114.398 123.062 113.679 123.639 113.392C124.215 113.105 124.936 113.392 125.224 113.967L133.294 131.644C133.582 132.219 133.294 132.937 132.717 133.225C132.717 133.225 132.429 133.225 132.285 133.225Z" fill="black"/>
<path d="M140.357 131.213C139.924 131.213 139.348 130.925 139.204 130.351C137.186 124.602 134.737 119.141 131.711 113.967C131.422 113.392 131.566 112.673 132.143 112.386C132.719 112.099 133.44 112.242 133.728 112.817C136.898 118.135 139.492 123.74 141.509 129.632C141.654 130.207 141.365 130.925 140.789 131.213C140.645 131.213 140.501 131.213 140.357 131.213Z" fill="black"/>
<path d="M304.057 135.812C301.175 135.812 298.293 135.668 295.411 134.949C292.673 134.231 290.224 133.225 288.062 131.644C285.756 130.063 284.027 127.907 282.874 125.608C280.569 120.434 281.722 113.967 285.756 109.224C289.359 105.2 294.691 102.613 301.031 101.895C301.608 101.895 302.184 102.182 302.184 102.901C302.184 103.476 301.752 104.051 301.175 104.051C295.411 104.625 290.512 107.069 287.197 110.661C283.595 114.686 282.586 120.434 284.604 124.746C286.333 128.482 290.512 131.5 295.555 132.794C300.311 133.943 305.498 133.656 310.398 133.369L364.58 130.207C366.886 130.063 369.624 129.919 371.641 128.77C374.812 126.901 376.108 122.446 374.812 118.71C373.659 115.26 370.488 112.386 366.31 110.518C361.986 108.649 358.24 108.506 353.34 110.23C352.764 110.374 352.188 110.087 351.899 109.512C351.755 108.937 352.043 108.362 352.62 108.218C358.096 106.35 362.419 106.494 367.174 108.649C371.93 110.661 375.388 114.111 376.829 117.991C377.694 120.147 377.694 122.734 376.973 125.033C376.253 127.476 374.812 129.488 372.794 130.638C370.344 132.075 367.174 132.363 364.724 132.363L310.542 135.524C308.669 135.812 306.363 135.812 304.057 135.812Z" fill="black"/>
<path d="M365.3 109.943C365.156 109.943 365.156 109.943 365.011 109.943C364.435 109.799 364.003 109.224 364.147 108.649C365.444 103.476 363.715 97.5833 359.824 93.8467C355.933 90.11 350.025 88.3854 344.693 89.5352C341.09 90.3975 338.353 92.2658 336.767 94.8527C336.479 95.4275 335.759 95.5713 335.326 95.2838C334.75 94.9964 334.606 94.4215 334.894 93.8467C336.623 90.6849 340.082 88.3854 344.117 87.3794C350.169 85.9423 356.942 87.9543 361.265 92.2658C365.588 96.5773 367.605 103.188 366.164 109.081C366.308 109.512 365.876 109.943 365.3 109.943Z" fill="black"/>
<path d="M293.535 106.063C292.958 106.063 292.526 105.631 292.526 105.057C292.094 97.4396 295.84 89.6789 302.181 85.3674C308.521 81.0559 317.312 80.1936 324.373 83.2117C324.949 83.4991 325.237 84.074 324.949 84.6488C324.661 85.2237 324.084 85.3674 323.508 85.2237C317.023 82.4931 309.242 83.2117 303.478 87.092C297.714 90.9723 294.255 98.0144 294.687 104.913C294.687 105.488 294.255 106.063 293.535 106.063C293.679 106.063 293.679 106.063 293.535 106.063Z" fill="black"/>
<path d="M317.602 93.8467C317.458 93.8467 317.314 93.8467 317.17 93.7029C316.594 93.4155 316.45 92.8406 316.738 92.2658C319.62 86.5171 325.528 82.0619 332.013 81.0559C338.497 80.0499 345.558 82.0619 350.314 86.5171C350.746 86.9483 350.746 87.5232 350.314 87.9543C349.881 88.3854 349.161 88.3854 348.729 87.9543C344.406 83.9302 338.065 82.0619 332.301 83.0679C326.537 84.074 321.205 87.9543 318.467 93.1281C318.467 93.7029 318.035 93.8467 317.602 93.8467Z" fill="black"/>
<path d="M306.506 144.147C304.056 144.147 301.75 144.004 299.301 143.429C291.807 141.704 289.213 138.111 286.187 130.782C285.899 130.207 286.187 129.632 286.764 129.345C287.34 129.201 287.917 129.345 288.205 129.919C290.799 136.53 292.816 139.836 299.733 141.273C304.056 142.279 308.811 141.992 313.278 141.56C320.339 140.986 328.553 140.986 336.623 140.842C344.549 140.842 352.763 140.698 359.824 140.267C364.291 139.98 369.334 139.548 373.369 137.536C378.989 134.662 382.592 128.339 382.159 122.015C381.727 115.26 377.548 109.368 371.928 107.5C371.64 107.356 371.496 107.212 371.352 106.925C371.208 106.637 371.208 106.35 371.352 106.063C373.081 101.751 372.36 96.5773 369.767 92.8406C367.029 88.9603 362.417 86.6608 357.662 86.5171C357.23 86.5171 356.941 86.3734 356.797 85.9423C355.356 83.6428 352.763 81.9182 349.736 81.1996C346.71 80.481 343.54 80.9122 341.234 82.4931C340.802 82.7805 340.082 82.6368 339.793 82.2056C339.505 81.7745 339.649 81.0559 340.082 80.7685C342.964 79.0439 346.71 78.469 350.169 79.1876C353.483 79.9062 356.509 81.9182 358.238 84.3614C363.426 84.5051 368.47 87.2357 371.496 91.5472C374.378 95.715 375.242 101.032 373.801 105.775C376.683 106.925 379.133 109.081 381.007 111.955C383.024 114.829 384.177 118.422 384.465 121.871C385.041 128.913 380.862 136.099 374.522 139.405C370.055 141.704 364.723 142.135 360.112 142.423C353.051 142.998 344.837 142.998 336.767 143.141C328.842 143.141 320.628 143.285 313.567 143.716C311.117 143.86 308.811 144.147 306.506 144.147Z" fill="black"/>
<path d="M308.957 141.129C308.669 141.129 308.381 140.986 308.237 140.842L305.931 138.83C305.499 138.399 305.499 137.824 305.787 137.393C306.219 136.962 306.94 136.962 307.372 137.249L309.678 139.261C310.11 139.692 310.11 140.267 309.822 140.698C309.533 140.986 309.245 141.129 308.957 141.129Z" fill="black"/>
<path d="M300.164 140.986C299.876 140.986 299.588 140.842 299.444 140.698L297.138 138.686C296.706 138.255 296.706 137.68 296.994 137.249C297.426 136.818 298.147 136.818 298.579 137.105L300.885 139.117C301.317 139.548 301.317 140.123 301.029 140.554C300.741 140.842 300.452 140.986 300.164 140.986Z" fill="black"/>
<path d="M318.035 141.848C317.746 141.848 317.458 141.704 317.17 141.417L314.144 138.111C313.712 137.68 313.856 136.962 314.288 136.674C314.72 136.243 315.441 136.387 315.873 136.818L318.899 140.123C319.332 140.554 319.187 141.273 318.755 141.56C318.467 141.848 318.179 141.848 318.035 141.848Z" fill="black"/>
<path d="M326.536 140.554C326.248 140.554 325.96 140.411 325.672 140.267L322.934 137.393C322.501 136.962 322.501 136.243 322.934 135.956C323.366 135.524 324.086 135.524 324.519 135.956L327.257 138.83C327.689 139.261 327.689 139.98 327.257 140.267C327.113 140.411 326.824 140.554 326.536 140.554Z" fill="black"/>
<path d="M334.173 140.842C333.74 140.842 333.452 140.698 333.308 140.267L331.291 137.105C331.002 136.674 331.146 135.956 331.579 135.668C332.011 135.381 332.732 135.524 333.02 135.956L335.037 139.117C335.325 139.548 335.181 140.267 334.749 140.554C334.461 140.842 334.317 140.842 334.173 140.842Z" fill="black"/>
<path d="M341.665 140.986C341.377 140.986 340.944 140.842 340.8 140.554L338.783 137.393C338.495 136.962 338.639 136.243 339.071 135.956C339.503 135.668 340.224 135.812 340.512 136.243L342.529 139.405C342.818 139.836 342.673 140.554 342.241 140.842C342.097 140.842 341.953 140.986 341.665 140.986Z" fill="black"/>
<path d="M349.302 139.836C349.014 139.836 348.726 139.692 348.438 139.405L346.132 136.818C345.7 136.387 345.844 135.668 346.276 135.381C346.709 134.949 347.429 135.093 347.861 135.524L350.167 138.111C350.599 138.542 350.455 139.261 350.023 139.548C349.879 139.836 349.591 139.836 349.302 139.836Z" fill="black"/>
<path d="M357.374 140.411C357.086 140.411 356.798 140.267 356.654 140.123L353.195 136.674C352.763 136.243 352.763 135.524 353.195 135.237C353.628 134.806 354.348 134.806 354.78 135.237L358.239 138.686C358.671 139.117 358.671 139.836 358.239 140.123C357.951 140.411 357.662 140.411 357.374 140.411Z" fill="black"/>
<path d="M364.867 139.261H364.723C362.706 138.974 361.121 137.249 360.977 135.237C360.977 134.662 361.409 134.087 361.985 134.087C362.562 134.087 363.138 134.518 363.138 135.093C363.138 136.099 364.003 136.962 365.011 137.105C365.588 137.249 366.02 137.68 365.876 138.255C365.876 138.974 365.444 139.261 364.867 139.261Z" fill="black"/>
<path d="M370.629 138.542C370.341 138.542 370.053 138.399 369.764 138.255L366.738 135.093C366.306 134.662 366.306 133.943 366.738 133.656C367.171 133.225 367.891 133.225 368.323 133.656L371.35 136.818C371.782 137.249 371.782 137.968 371.35 138.255C371.061 138.399 370.917 138.542 370.629 138.542Z" fill="black"/>
<path d="M376.828 134.231C376.539 134.231 376.395 134.231 376.251 134.087L373.801 132.363C373.369 132.075 373.225 131.357 373.513 130.925C373.801 130.494 374.522 130.351 374.954 130.638L377.404 132.363C377.836 132.65 377.98 133.369 377.692 133.8C377.548 134.087 377.116 134.231 376.828 134.231Z" fill="black"/>
<path d="M379.852 123.74C379.42 123.74 378.988 123.452 378.844 123.165C378.555 122.59 378.844 122.015 379.42 121.728C379.708 121.584 379.852 121.296 379.852 121.009C379.852 120.434 380.285 120.003 380.861 119.859C381.437 119.859 382.014 120.29 382.014 120.865C382.014 122.015 381.293 123.165 380.285 123.596C380.14 123.74 379.996 123.74 379.852 123.74Z" fill="black"/>
<path d="M377.837 118.135C377.548 118.135 377.26 117.991 376.972 117.847C376.54 117.416 376.684 116.698 377.116 116.41L379.133 114.685C379.566 114.254 380.286 114.398 380.719 114.829C381.151 115.26 381.007 115.979 380.575 116.266L378.557 117.991C378.269 118.135 378.125 118.135 377.837 118.135Z" fill="black"/>
<path d="M372.072 112.961C371.783 112.961 371.495 112.817 371.207 112.673C370.775 112.242 370.775 111.524 371.207 111.236L373.945 108.793C374.377 108.362 375.098 108.362 375.53 108.793C375.962 109.224 375.962 109.943 375.53 110.23L372.792 112.673C372.648 112.961 372.36 112.961 372.072 112.961Z" fill="black"/>
<path d="M368.901 105.488C368.613 105.488 368.469 105.488 368.325 105.344C367.893 105.057 367.748 104.338 368.037 103.907L370.198 101.032C370.486 100.601 371.207 100.458 371.639 100.745C372.072 101.032 372.216 101.751 371.927 102.182L369.766 105.057C369.622 105.344 369.189 105.488 368.901 105.488Z" fill="black"/>
<path d="M366.74 99.0204C366.452 99.0204 366.164 98.8767 366.02 98.733C365.587 98.3019 365.587 97.5833 366.02 97.2958L368.757 94.709C369.19 94.2778 369.91 94.2778 370.343 94.709C370.775 95.1401 370.775 95.8587 370.343 96.1461L367.605 98.733C367.316 98.8767 367.028 99.0204 366.74 99.0204Z" fill="black"/>
<path d="M364.292 93.7029C364.004 93.7029 363.572 93.5592 363.428 93.2718C363.139 92.8406 363.139 92.1221 363.716 91.8346L366.021 90.2537C366.454 89.9663 367.174 89.9663 367.462 90.5412C367.751 90.9723 367.751 91.6909 367.174 91.9783L364.869 93.5592C364.725 93.5592 364.436 93.7029 364.292 93.7029Z" fill="black"/>
<path d="M359.105 90.5412C358.816 90.5412 358.528 90.3975 358.384 90.2538C357.952 89.8226 357.952 89.2478 358.24 88.8166L359.969 86.8046C360.401 86.3734 360.978 86.3734 361.554 86.6609C362.131 86.9483 361.987 87.6669 361.698 88.098L359.969 90.1101C359.681 90.3975 359.393 90.5412 359.105 90.5412Z" fill="black"/>
<path d="M350.167 86.3734C350.023 86.3734 349.735 86.3734 349.591 86.2297C349.158 85.9423 349.014 85.2237 349.302 84.7925L350.887 82.6368C351.176 82.2057 351.896 82.0619 352.328 82.3494C352.761 82.6368 352.905 83.3554 352.617 83.7865L351.032 85.9423C350.887 86.2297 350.599 86.3734 350.167 86.3734Z" fill="black"/>
<path d="M319.905 113.823C321.346 115.404 322.787 116.985 324.228 118.566C325.957 120.434 327.687 122.302 329.416 124.171C332.154 121.728 334.892 118.278 337.486 114.254C336.909 114.254 336.333 114.254 335.756 114.398C334.459 114.542 333.163 114.542 331.866 114.398C331.289 114.398 330.857 113.967 330.857 113.392C330.857 110.518 330.857 107.5 330.857 104.625C330.857 102.182 331.001 99.5953 330.857 97.0084L324.516 97.1521C324.66 99.5953 324.66 102.038 324.66 104.482C324.66 107.212 324.66 110.087 324.805 112.817C324.805 113.105 324.66 113.392 324.516 113.536C324.372 113.679 324.084 113.823 323.796 113.823C322.787 113.823 321.778 113.967 320.77 113.967C320.482 113.823 320.193 113.823 319.905 113.823ZM329.272 126.758C328.984 126.758 328.695 126.614 328.407 126.327C326.534 124.171 324.516 122.015 322.643 120.003C320.77 117.847 318.752 115.692 316.735 113.679C316.447 113.392 316.447 112.961 316.591 112.53C316.735 112.099 317.167 111.955 317.599 111.955C318.608 111.955 319.617 111.811 320.626 111.811C321.346 111.811 321.923 111.667 322.643 111.667C322.499 109.224 322.499 106.781 322.499 104.338C322.499 101.607 322.499 98.733 322.355 96.0024C322.355 95.715 322.499 95.4275 322.643 95.2838C322.787 95.1401 323.075 94.9964 323.364 94.9964L331.866 94.8527C332.154 94.8527 332.442 94.9964 332.586 95.1401C332.73 95.2838 332.874 95.5712 332.874 95.8587C332.874 98.733 332.874 101.751 332.874 104.625C332.874 107.212 332.73 109.799 332.874 112.386C333.739 112.386 334.604 112.386 335.468 112.242C336.765 112.099 338.062 112.099 339.359 112.242C339.791 112.242 340.079 112.53 340.224 112.817C340.368 113.105 340.368 113.536 340.224 113.823C336.909 119.284 333.451 123.596 329.992 126.614C329.848 126.614 329.56 126.758 329.272 126.758Z" fill="black"/>
<path d="M336.191 34.2045C336.479 33.917 336.767 33.7733 337.199 33.6296C346.134 32.911 355.789 32.3361 364.579 33.4859C374.666 34.7793 383.168 38.5159 389.076 44.1209C392.679 47.5701 395.417 51.7378 398.01 55.9056C398.299 56.3367 398.587 56.9116 398.875 57.3428C401.613 61.6542 404.783 66.1094 408.962 69.2712C413.429 72.5767 418.761 73.8701 423.084 72.5767C428.704 70.9958 433.171 64.9597 433.748 58.2051C434.468 50.8755 431.01 44.4083 428.128 40.0968C420.49 29.1744 407.665 21.5574 391.958 18.5394C376.395 15.5214 360.4 17.8208 348.151 19.9766C347.575 20.1203 347.142 19.8328 346.854 19.4017C346.566 18.9705 346.71 18.3957 346.998 17.9645L355.933 7.18581C347.286 9.05412 338.64 10.635 330.282 12.2159C321.492 13.7968 312.414 15.3776 303.335 17.5334C304.056 18.252 304.632 18.9705 305.353 19.6891C312.846 28.1684 320.628 36.9351 329.706 43.9772C330.715 42.3963 331.723 41.1028 332.588 39.8094C333.741 37.9411 334.894 36.2165 336.191 34.2045ZM432.307 68.9838C430.145 71.8581 427.119 74.0138 423.805 75.0199C418.617 76.6007 412.565 75.1636 407.377 71.4269C402.766 67.9778 399.596 63.3788 396.714 58.9236C396.425 58.4925 396.137 57.9176 395.849 57.4865C393.255 53.6061 390.661 49.4384 387.203 46.2766C380.142 39.522 370.775 37.2225 364.146 36.3602C355.789 35.3542 346.71 35.7853 338.064 36.3602C336.911 38.0848 335.758 39.6657 334.75 41.2466C333.597 42.9711 332.444 44.6957 331.147 46.564C331.003 46.8515 330.571 47.1389 330.282 47.1389C329.994 47.1389 329.562 47.1389 329.274 46.8515C319.619 39.522 311.405 30.3241 303.623 21.4137C302.471 20.1203 301.318 18.8268 300.165 17.5334C299.877 17.2459 299.733 16.6711 299.877 16.2399C300.021 15.8088 300.453 15.5214 300.886 15.3776C310.829 13.0782 320.628 11.3536 330.138 9.62899C339.649 7.90439 349.448 6.1798 359.247 3.88034C359.823 3.73663 360.4 4.02406 360.544 4.45521C360.832 4.88635 360.832 5.46122 360.4 5.89237L351.465 16.8148C363.426 14.8028 378.268 13.2219 392.823 15.9525C400.46 17.3897 407.665 19.9766 414.006 23.7132C420.779 27.5935 426.399 32.6236 430.578 38.6597C433.748 43.2586 437.494 50.3007 436.63 58.3488C436.053 62.3728 434.612 66.1094 432.307 68.9838Z" fill="black"/>
<path d="M421.933 75.7384C421.789 75.8822 421.789 75.8822 421.644 76.0259C417.177 79.3313 410.693 79.9062 404.64 77.463C399.165 75.3073 394.841 71.2832 391.239 67.6903C390.807 67.2592 390.374 66.828 389.798 66.2532C386.484 62.9477 383.169 59.6422 379.134 57.3428C368.759 51.163 355.213 52.169 342.1 53.8936C341.235 55.4745 340.371 56.7679 339.506 58.2051C338.497 59.7859 337.489 61.2231 336.768 62.804C336.624 63.0914 336.336 63.3788 335.904 63.5226C335.471 63.6663 335.183 63.5226 334.751 63.2351C329.851 59.3548 324.952 55.187 320.052 51.0192C315.297 46.9952 310.253 42.8274 305.498 38.9471C305.354 38.8034 305.21 38.5159 305.066 38.3722L299.302 17.3897C299.158 16.6711 299.446 15.9525 300.166 15.8088C300.887 15.6651 301.607 15.9525 301.751 16.6711L307.371 37.2225C312.127 40.9591 317.026 45.1269 321.782 49.1509C326.249 52.8876 330.716 56.7679 335.183 60.3608C335.904 59.0674 336.624 57.9176 337.345 56.9116C338.353 55.3307 339.362 53.8936 340.083 52.3127C340.227 51.8815 340.659 51.5941 341.091 51.5941C354.781 49.8695 369.191 48.7198 380.431 55.3307C384.61 57.7739 388.213 61.3668 391.527 64.6723C391.959 65.1034 392.392 65.5346 392.968 66.1095C396.427 69.5586 400.606 73.2953 405.649 75.3073C409.396 76.7445 414.728 77.3193 419.051 74.8761C419.051 74.5887 419.195 74.1576 419.339 73.8701C419.771 73.2953 420.636 73.2953 421.212 73.7264L421.789 74.1576C422.077 74.445 422.221 74.7324 422.221 75.1636C422.221 75.3073 422.077 75.451 421.933 75.7384Z" fill="black"/>
<path d="M311.981 35.929C311.549 36.5039 310.829 36.6476 310.252 36.2165C309.676 35.7853 309.532 35.0667 309.82 34.4919L310.685 33.1984C311.117 32.6236 311.837 32.3361 312.414 32.7673C312.99 33.1984 313.134 33.917 312.846 34.4919L311.981 35.929C311.981 35.7853 311.981 35.7853 311.981 35.929Z" fill="black"/>
<path d="M315.294 40.3843C314.862 40.8154 314.285 41.1028 313.709 40.8154C313.133 40.528 312.844 39.8094 313.133 39.0908L314.141 36.9351C314.43 36.2165 315.294 36.0728 315.871 36.3602C316.447 36.6476 316.735 37.3662 316.447 38.0848L315.438 40.2405C315.438 40.2405 315.294 40.2405 315.294 40.3843Z" fill="black"/>
<path d="M320.05 45.2706C319.618 45.8454 318.897 45.9892 318.465 45.7017C317.888 45.4143 317.6 44.552 318.032 43.9771L319.329 41.6777C319.618 41.1028 320.482 40.8154 321.059 41.1028C321.635 41.3902 321.923 42.2525 321.491 42.8274L320.194 45.1269C320.194 45.1269 320.194 45.1269 320.05 45.2706Z" fill="black"/>
<path d="M327.545 51.4504C327.257 51.8815 326.681 52.0253 326.104 51.8815C325.384 51.5941 325.096 50.8755 325.384 50.3007L326.537 46.8515C326.825 46.1329 327.545 45.8455 328.122 45.9892C328.698 46.1329 329.131 46.9952 328.842 47.5701L327.689 51.0192C327.689 51.163 327.69 51.3067 327.545 51.4504Z" fill="black"/>
<path d="M337.2 52.6001C336.912 53.0313 336.336 53.175 335.759 53.0313C334.174 52.4564 333.021 50.8755 332.733 49.2947C332.589 48.5761 333.165 48.0012 333.886 47.8575C334.606 47.7138 335.183 48.2886 335.327 49.0072C335.471 49.7258 335.903 50.4444 336.624 50.7318C337.344 51.0193 337.633 51.7378 337.344 52.3127C337.344 52.4564 337.2 52.4564 337.2 52.6001Z" fill="black"/>
<path d="M340.224 47.57C340.08 47.7138 339.936 47.8575 339.792 47.8575C339.215 48.2886 338.351 48.0012 338.063 47.4263L336.91 45.4143C336.622 44.8394 336.766 43.9771 337.342 43.6897C337.918 43.2586 338.783 43.546 339.071 44.1209L340.224 46.1329C340.512 46.564 340.512 47.1389 340.224 47.57Z" fill="black"/>
<path d="M347.286 47.4263C347.142 47.7138 346.854 47.8575 346.422 47.8575C345.701 48.0012 345.125 47.57 344.981 46.8515L344.116 41.2465C343.972 40.528 344.548 39.8094 345.125 39.6657C345.845 39.5219 346.422 39.9531 346.566 40.6717L347.43 46.2766C347.719 46.8515 347.575 47.1389 347.286 47.4263Z" fill="black"/>
<path d="M354.635 46.9952C354.491 47.2826 354.203 47.4264 353.771 47.4264C353.05 47.5701 352.474 47.1389 352.33 46.4203L351.465 41.3903C351.321 40.6717 351.753 39.9531 352.474 39.8094C353.194 39.6657 353.771 40.0968 353.915 40.8154L354.779 45.8455C354.924 46.2766 354.779 46.7078 354.635 46.9952Z" fill="black"/>
<path d="M363.282 46.2766C362.994 46.564 362.705 46.7078 362.417 46.8515C361.697 46.8515 361.12 46.4203 361.12 45.7017L360.832 41.2465C360.832 40.528 361.264 39.9531 361.985 39.8094C362.705 39.8094 363.282 40.2405 363.282 40.9591L363.57 45.4143C363.57 45.7018 363.57 45.9892 363.282 46.2766Z" fill="black"/>
<path d="M370.056 47.8575C369.767 48.1449 369.479 48.4323 369.047 48.4323C368.326 48.4323 367.75 47.8575 367.75 47.1389L367.894 42.2526C367.894 41.534 368.471 40.9591 369.191 40.9591C369.912 40.9591 370.488 41.534 370.488 42.2526L370.344 47.1389C370.344 47.4263 370.2 47.7138 370.056 47.8575Z" fill="black"/>
<path d="M376.539 49.1509C376.251 49.4384 375.818 49.7258 375.386 49.7258C374.665 49.7258 374.089 49.0072 374.233 48.2886L374.665 43.4023C374.665 42.6837 375.386 42.1088 376.106 42.2525C376.827 42.2525 377.403 42.9711 377.259 43.6897L376.827 48.5761C376.827 48.7198 376.683 49.0072 376.539 49.1509Z" fill="black"/>
<path d="M383.455 53.0313C383.167 53.4624 382.591 53.6061 382.158 53.4624C381.438 53.3187 381.15 52.6001 381.294 51.8815L382.303 48.5761C382.447 47.8575 383.167 47.4263 383.888 47.7138C384.608 47.8575 384.896 48.5761 384.752 49.2947L383.744 52.6001C383.744 52.7438 383.599 52.8876 383.455 53.0313Z" fill="black"/>
<path d="M389.075 57.9176C388.643 58.4925 387.922 58.6362 387.346 58.2051C386.77 57.7739 386.625 57.0553 386.914 56.4805L388.787 53.6061C389.219 53.0313 389.94 52.7438 390.516 53.175C391.093 53.6061 391.237 54.3247 390.949 54.8996L389.075 57.9176Z" fill="black"/>
<path d="M395.418 62.6602C394.842 63.3788 393.977 63.9537 392.968 64.2411C392.248 64.3848 391.527 63.9537 391.383 63.2351C391.239 62.5165 391.671 61.7979 392.392 61.6542C392.968 61.5105 393.401 61.0794 393.545 60.5045C393.689 59.7859 394.409 59.3548 395.13 59.4985C395.85 59.6422 396.283 60.3608 396.138 61.0794C396.138 61.6542 395.85 62.2291 395.418 62.6602Z" fill="black"/>
</svg>
