<svg width="592" height="365" viewBox="0 0 592 365" fill="none" xmlns="http://www.w3.org/2000/svg">
<path d="M364.547 239.125C363.601 244.64 362.971 250.47 361.238 255.827C355.88 251.573 350.365 247.634 344.693 243.852C349.735 238.81 355.092 233.925 360.45 229.198C361.08 228.568 360.765 227.78 360.292 227.465C359.977 226.992 359.347 226.677 358.717 226.992C351.311 231.562 343.59 235.501 335.554 239.125C335.554 239.125 335.396 239.125 335.396 239.283L330.669 237.55C330.354 237.392 327.991 236.762 326.73 236.289C339.966 230.932 353.517 225.89 367.225 221.478C366.91 227.308 365.492 233.295 364.547 239.125ZM343.117 251.888C343.275 249.84 343.432 247.791 343.905 245.901C345.166 246.688 346.269 247.476 347.529 248.264C345.954 249.525 344.535 250.785 343.117 251.888ZM342.172 243.064C341.069 244.798 341.069 248.264 340.911 250.312C339.493 247.161 338.233 244.01 337.13 240.858C342.329 238.495 347.372 235.974 352.414 233.138C350.05 235.344 347.844 237.392 345.481 239.598C344.535 240.701 342.96 241.804 342.172 243.064ZM367.856 218.799C367.54 218.799 367.225 218.799 366.753 218.957C352.414 223.526 338.233 228.726 324.209 234.556C323.894 234.713 323.736 234.871 323.736 235.028C323.421 235.344 323.264 235.659 323.421 236.131C323.894 237.865 326.257 238.18 327.676 238.652C330.039 239.598 332.56 240.386 334.924 241.331C336.499 246.058 338.39 250.47 340.596 254.882C340.754 255.355 341.384 255.512 341.699 255.355C342.014 255.355 342.329 255.355 342.645 255.039C344.851 253.149 347.056 251.258 349.42 249.367C353.359 252.203 357.298 255.039 361.08 258.033C361.868 258.664 362.656 258.348 363.128 257.245C363.128 257.088 363.444 256.615 363.444 256.458C365.492 250.47 366.122 244.01 367.068 237.865C367.698 234.241 368.486 230.617 368.959 226.992C369.274 225.417 370.849 218.957 367.856 218.799Z" stroke="white" stroke-width="0.25" stroke-miterlimit="10"/>
<path d="M234.394 313.42C235.497 312.947 236.442 312.317 237.545 311.844C238.018 311.687 238.491 311.372 238.648 310.899C238.648 310.584 238.491 310.269 238.491 309.953C237.703 308.378 236.758 306.802 236.127 305.226C234.709 301.602 235.497 297.978 238.648 295.615C240.067 294.512 241.8 293.882 243.533 293.094C244.321 294.512 245.109 295.93 245.739 297.348C244.006 298.293 242.115 299.554 241.485 301.287C240.697 303.336 241.8 305.699 242.903 307.59C243.218 308.063 243.533 308.535 244.006 308.535C244.321 308.535 244.636 308.378 244.951 308.22C246.054 307.59 247.315 306.96 248.418 306.329C248.733 306.172 249.048 306.014 249.363 306.172C249.521 306.329 249.678 306.487 249.836 306.645C250.308 307.432 250.624 308.22 250.939 309.008C250.939 309.166 251.096 309.323 250.939 309.481C250.939 309.638 250.781 309.638 250.624 309.796C249.363 310.426 248.26 311.056 247 311.687C246.527 312.002 245.897 312.317 245.897 312.79C245.897 313.105 246.054 313.42 246.212 313.735C247.945 317.202 251.884 325.08 253.617 328.546C252.199 329.334 250.781 329.965 249.363 330.752C247.315 326.813 243.06 318.462 241.169 314.68C239.594 315.468 238.176 316.256 236.6 316.886C235.655 315.941 235.024 314.681 234.394 313.42ZM235.655 319.092C235.97 319.092 236.127 318.935 236.442 318.935C237.703 318.305 238.806 317.674 240.067 317.044C241.8 320.51 245.897 328.546 247.787 332.17C247.945 332.486 248.26 332.958 248.575 332.958C248.733 332.958 249.048 332.801 249.206 332.801C251.096 331.855 252.83 330.91 254.72 329.965C254.878 329.807 255.193 329.807 255.193 329.492C255.351 329.177 255.193 328.704 255.036 328.231C253.302 324.765 249.206 316.729 247.63 313.262C249.206 312.475 250.781 311.687 252.514 310.741C252.83 310.584 252.987 310.426 253.145 310.269C253.302 309.953 253.145 309.796 252.987 309.481C252.199 307.905 251.254 306.329 250.466 304.596C249.993 303.651 249.206 303.966 248.418 304.439C247 305.069 245.739 305.857 244.321 306.487C243.533 305.226 242.745 303.808 243.06 302.233C243.375 300.342 245.109 299.081 246.842 298.451C247.157 298.294 247.472 298.136 247.63 297.821C247.787 297.506 247.63 297.033 247.472 296.718C246.684 294.985 245.897 293.409 244.951 291.676C244.794 291.518 244.636 291.203 244.478 291.045C244.321 290.888 244.006 290.73 243.848 290.73C243.533 290.73 243.375 290.888 243.06 290.888C242.115 291.361 241.169 291.833 240.224 292.306C238.806 293.094 237.545 293.882 236.285 294.827C233.921 296.718 233.133 299.081 233.606 302.075C234.079 304.911 235.339 307.59 236.6 310.111C235.497 310.584 234.552 311.214 233.449 311.687C233.134 311.844 232.661 312.159 232.503 312.475C232.346 312.79 232.503 313.262 232.818 313.578C233.606 314.996 234.236 316.414 235.024 317.989C235.182 318.62 235.339 319.092 235.655 319.092Z" stroke="black" stroke-width="0.25" stroke-miterlimit="10"/>
<path d="M514.864 243.537C515.81 243.379 516.755 243.222 517.858 242.907C518.331 242.749 518.804 242.749 518.961 242.277C519.119 241.961 519.119 241.646 518.961 241.489C518.646 240.071 518.331 238.495 518.173 237.077C517.858 233.768 519.276 231.089 522.428 229.986C523.846 229.514 525.422 229.356 526.84 229.041C527.155 230.301 527.47 231.719 527.627 232.98C526.052 233.453 524.319 233.925 523.373 235.186C522.27 236.762 522.585 238.81 523.058 240.701C523.216 241.174 523.216 241.646 523.688 241.804C524.003 241.961 524.161 241.804 524.476 241.804C525.579 241.646 526.682 241.331 527.627 241.174C527.943 241.174 528.1 241.016 528.415 241.174C528.573 241.331 528.573 241.489 528.73 241.646C528.888 242.434 529.046 243.064 529.203 243.852C529.203 244.01 529.203 244.167 529.203 244.325C529.203 244.482 529.046 244.482 528.888 244.482C527.785 244.64 526.682 244.955 525.579 245.113C525.106 245.27 524.634 245.27 524.476 245.743C524.319 246.058 524.476 246.373 524.476 246.688C525.106 249.84 526.525 257.245 526.997 260.397C525.737 260.712 524.319 260.87 523.058 261.185C522.428 257.561 520.852 249.84 520.064 246.216C518.646 246.531 517.228 246.688 515.81 247.004C515.337 245.901 515.022 244.64 514.864 243.537ZM514.707 248.422C514.864 248.579 515.18 248.422 515.337 248.422C516.44 248.264 517.543 247.949 518.646 247.791C519.276 251.1 520.694 258.506 521.325 261.815C521.325 262.13 521.482 262.603 521.797 262.603C521.955 262.603 522.113 262.603 522.27 262.603C524.003 262.288 525.579 261.973 527.312 261.657C527.47 261.657 527.627 261.657 527.785 261.5C528.1 261.342 527.943 260.87 527.943 260.554C527.312 257.403 525.894 249.997 525.422 246.688C526.84 246.373 528.415 246.058 529.833 245.901C529.991 245.901 530.306 245.743 530.464 245.585C530.621 245.428 530.621 245.113 530.464 244.955C530.149 243.537 529.833 241.961 529.518 240.543C529.361 239.598 528.573 239.755 527.943 239.913C526.682 240.071 525.422 240.386 524.161 240.543C523.846 239.283 523.531 238.022 524.161 236.762C524.791 235.344 526.525 234.713 528.1 234.556C528.415 234.556 528.73 234.556 528.888 234.241C529.046 234.083 529.046 233.61 529.046 233.295C528.73 231.719 528.415 230.144 528.258 228.726C528.258 228.568 528.1 228.253 528.1 228.095C527.943 227.938 527.785 227.78 527.627 227.623C527.47 227.465 527.155 227.623 526.997 227.623C526.052 227.78 525.264 227.938 524.319 228.095C523.058 228.411 521.797 228.726 520.537 229.198C518.173 230.301 517.07 231.877 516.755 234.398C516.44 236.762 516.913 239.125 517.386 241.489C516.44 241.646 515.495 241.804 514.392 242.119C514.077 242.119 513.761 242.277 513.446 242.592C513.289 242.907 513.289 243.222 513.446 243.537C513.761 244.955 513.919 246.216 514.234 247.634C514.234 247.949 514.392 248.264 514.707 248.422Z" stroke="white" stroke-width="0.25" stroke-miterlimit="10"/>
<path d="M590.498 348.162C590.34 348.32 590.025 348.319 589.868 348.319C588.292 348.319 586.716 348.319 585.141 348.319C585.141 351.786 585.298 359.664 585.298 363.131C585.298 363.446 585.298 363.919 584.983 364.076C584.825 364.234 584.668 364.234 584.353 364.234C582.462 364.234 580.729 364.234 578.995 364.391C578.838 364.391 578.523 364.391 578.365 364.234C578.05 364.076 578.05 363.604 578.05 363.288C578.05 359.822 577.892 351.786 577.735 348.319C576.474 348.319 575.371 348.319 574.111 348.319C573.953 348.319 573.638 348.32 573.48 348.162C573.165 348.004 573.165 347.532 573.165 347.217C573.165 345.798 573.165 344.38 573.008 342.805C573.008 342.489 573.008 342.017 573.323 341.859C573.638 341.544 573.953 341.544 574.268 341.544C575.371 341.544 576.317 341.544 577.42 341.544C577.42 339.023 577.42 336.502 578.208 333.981C578.995 331.46 580.571 329.884 583.092 329.254C584.51 328.939 585.771 328.781 587.189 328.781C588.134 328.781 589.08 328.781 590.025 328.781C590.34 328.781 590.498 328.781 590.813 328.939C590.971 329.096 591.128 329.254 591.128 329.569C591.128 329.726 591.128 330.042 591.128 330.199C591.128 331.932 591.128 333.508 591.128 335.241C591.128 335.557 591.128 335.872 590.813 336.187C590.655 336.344 590.183 336.344 589.868 336.344C588.134 336.187 586.401 336.502 585.298 337.92C584.51 339.023 584.51 340.441 584.668 341.859C585.928 341.859 587.347 341.859 588.607 341.859C589.395 341.859 590.183 341.859 590.183 342.805C590.183 344.38 590.183 345.956 590.34 347.532C590.655 347.689 590.655 348.004 590.498 348.162Z" fill="white"/>
<path d="M127.719 229.671C129.295 229.671 130.555 228.411 130.555 226.835C130.555 225.259 129.295 223.999 127.719 223.999C126.143 223.999 124.883 225.259 124.883 226.835C124.883 228.253 126.143 229.671 127.719 229.671Z" fill="white"/>
<path d="M489.34 238.81C490.916 238.81 492.176 237.549 492.176 235.974C492.176 234.398 490.916 233.138 489.34 233.138C487.764 233.138 486.504 234.398 486.504 235.974C486.504 237.549 487.764 238.81 489.34 238.81Z" fill="white"/>
<path d="M194.528 219.429C196.103 219.429 197.364 218.169 197.364 216.593C197.364 215.017 196.103 213.757 194.528 213.757C192.952 213.757 191.691 215.017 191.691 216.593C191.691 218.169 192.952 219.429 194.528 219.429Z" fill="white"/>
<path d="M3.08261 318.224C4.6583 318.224 5.91885 316.964 5.91885 315.388C5.91885 313.812 4.6583 312.552 3.08261 312.552C1.50692 312.552 0.246376 313.812 0.246376 315.388C0.0888076 316.964 1.50692 318.224 3.08261 318.224Z" fill="#C9C9C7"/>
<path d="M161.125 232.665C161.913 232.665 162.386 232.035 162.386 231.247C162.386 230.459 161.755 229.986 161.125 229.986C160.337 229.986 159.707 230.617 159.707 231.247C159.707 232.192 160.337 232.665 161.125 232.665Z" fill="white"/>
<path d="M561.035 200.679C561.823 200.679 562.296 200.048 562.296 199.261C562.296 198.473 561.666 198 561.035 198C560.247 198 559.617 198.63 559.617 199.261C559.775 200.048 560.247 200.679 561.035 200.679Z" fill="white"/>
<path d="M38.852 236.604L43.264 245.585C43.264 245.585 40.1126 247.004 37.4339 247.634C33.8098 248.422 30.9736 248.107 30.9736 248.107C30.9736 248.107 29.0828 247.949 28.9252 247.949L38.0642 266.384C38.5369 267.487 39.6399 270.166 39.7974 272.687C40.1126 275.996 39.4823 278.675 39.3247 279.305C39.3247 279.305 38.5369 282.771 36.0158 286.238C33.6523 289.389 30.816 290.807 30.0282 291.28C30.0282 291.28 25.3011 293.959 19.6287 293.171C18.3681 293.013 17.1076 292.698 16.0046 292.226C21.8346 293.013 26.4041 290.335 26.4041 290.335C27.192 289.862 30.0282 288.444 32.3917 285.293C35.0704 281.826 35.7007 278.359 35.7007 278.359C35.8582 277.887 36.4885 275.208 36.1734 271.742C35.8582 269.221 34.9128 266.542 34.4401 265.439L25.3011 247.004C25.4587 247.004 27.3495 247.161 27.3495 247.161C27.3495 247.161 30.0282 247.476 33.8098 246.688C36.4885 246.058 39.6399 244.64 39.6399 244.64L36.1734 237.707C37.4339 237.392 38.3793 237.077 38.852 236.604ZM24.0406 236.289C21.0468 235.028 19.156 233.138 18.053 231.72L20.4165 230.459C20.4165 230.459 21.9922 234.871 27.6647 237.234H27.8222C26.4041 237.077 25.1436 236.762 24.0406 236.289ZM10.6473 277.257C9.54429 274.42 9.85942 272.372 11.12 269.693C12.8532 266.069 16.95 265.439 16.95 265.439L13.4835 258.348C14.2713 257.876 15.2168 257.561 16.1622 257.245L20.7317 266.384C20.7317 266.384 16.6349 267.015 14.9016 270.639C13.6411 273.16 13.4835 275.366 14.4289 278.202C15.2168 279.62 16.3197 281.511 18.3681 282.456C18.053 282.456 17.5803 282.456 17.1076 282.299C13.4835 281.826 11.5927 279.147 10.6473 277.257ZM9.38672 292.226L9.85943 292.698C9.70186 292.698 9.54429 292.541 9.38672 292.226Z" fill="#87888A"/>
<path d="M36.1728 237.707L39.6393 244.64C39.6393 244.64 36.488 246.058 33.8093 246.688C30.1852 247.476 27.349 247.161 27.349 247.161C27.349 247.161 25.4582 247.004 25.3006 247.004L34.7547 265.597C35.2274 266.699 36.3304 269.378 36.488 271.899C36.8031 275.208 36.1728 277.887 36.0153 278.517C36.0153 278.517 35.2274 281.983 32.7063 285.45C30.3428 288.601 27.5066 290.019 26.7187 290.492C26.7187 290.492 21.9917 293.171 16.3192 292.383C15.6889 292.068 14.9011 291.91 14.2708 291.595C12.0648 290.492 10.174 288.916 9.54375 288.444C8.75591 287.656 6.70751 285.45 5.60454 282.929C3.71371 278.517 3.71371 275.208 3.87128 274.42C4.02885 272.057 4.50155 269.851 5.2894 267.645C6.07724 265.754 7.18022 264.021 8.44077 262.603C9.85888 260.87 11.5921 259.451 13.483 258.506L16.9495 265.597C16.9495 265.597 12.8527 266.227 11.1194 269.851C9.85889 272.372 9.70132 274.578 10.6467 277.414C11.5921 279.462 13.483 281.984 17.107 282.456C17.5797 282.456 17.8949 282.456 18.3676 282.614C19.1554 283.086 19.9433 283.244 20.8887 283.402C24.3552 283.874 26.5612 282.771 28.7671 280.25C30.1852 278.517 30.8155 276.154 30.5004 273.948C30.3428 272.529 29.7125 271.427 29.0822 270.166L11.7497 235.344L18.21 232.035C19.313 233.453 21.2038 235.344 24.1976 236.604C25.4582 237.077 26.7187 237.392 27.9793 237.55C28.452 237.707 30.6579 238.495 33.0215 238.495C33.8093 238.18 35.0699 238.022 36.1728 237.707Z" fill="black"/>
<path d="M8.44224 262.445C7.1817 264.021 6.07872 265.597 5.29087 267.487C4.50303 269.693 4.03033 271.899 3.87276 274.263C3.87276 275.051 3.71519 278.517 5.76358 282.771C6.86656 285.292 8.91495 287.341 9.70279 288.286C10.1755 288.759 12.0663 290.492 14.4299 291.438C15.0601 291.753 15.6904 292.068 16.4782 292.225C14.5874 291.91 12.539 291.438 10.8058 290.492C8.59981 289.389 6.70899 287.814 6.23628 287.341C5.44844 286.553 3.40005 284.347 2.29707 281.826C0.406248 277.414 0.40625 274.105 0.40625 273.317C0.563819 270.954 1.03652 268.748 1.82437 266.542C2.61221 264.651 3.71519 262.918 4.97574 261.5C5.76358 260.554 6.70899 259.609 7.6544 258.821C9.23009 257.718 10.8058 256.773 12.539 256.142L13.4844 258.191C11.436 259.451 9.86036 260.712 8.44224 262.445Z" fill="#C8C8C5"/>
<path d="M35.2307 235.816L36.1762 237.707C35.0732 238.022 33.8126 238.18 32.5521 238.18C30.1886 238.18 27.9826 237.392 27.5099 237.234C27.9826 237.234 28.4553 237.234 28.7704 237.234C31.9218 237.234 34.2853 236.447 35.2307 235.816ZM17.8982 231.719L11.4379 235.028L28.7704 269.851C29.4007 271.111 30.031 272.214 30.1886 273.632C30.5037 275.838 29.8734 278.202 28.4553 279.935C26.2493 282.456 24.0434 283.559 20.5769 283.086C19.789 282.929 18.8436 282.771 18.0558 282.299C20.892 282.299 22.7828 281.353 24.6737 278.99C26.0918 277.257 26.722 274.893 26.4069 272.687C26.2493 271.269 25.6191 270.166 24.9888 268.905L7.65625 234.083L16.4801 229.514C16.7952 229.671 17.1104 230.459 17.8982 231.719Z" fill="#C8C8C5"/>
<path d="M585.617 0.175476L585.775 0.333069C585.775 0.333069 585.617 0.333059 585.617 0.175476Z" fill="black"/>
</svg>
