<svg width="539" height="134" viewBox="0 0 539 134" fill="none" xmlns="http://www.w3.org/2000/svg">
<path d="M468.449 2.82848C456.632 2.82848 444.639 3.71238 432.116 4.77307C415.713 6.18732 398.958 6.71766 382.731 7.248C375.147 7.42479 367.21 7.77835 359.45 8.13191L49.913 26.3403C37.214 26.8707 25.9261 27.9314 17.4601 34.6491C10.4051 40.1293 7.2304 48.438 5.64303 54.2717C3.70291 62.0501 3.35016 70.182 2.99741 78.1372C2.82104 84.3245 2.46829 90.8654 4.23203 96.876C5.99578 103.417 10.0524 108.367 14.9909 110.488C18.6947 112.079 23.2805 111.902 27.1607 111.902L475.328 91.5725C483.617 91.3958 493.142 91.219 500.902 86.7994C508.134 82.7335 513.777 74.4248 516.423 64.3483C518.892 54.9789 518.716 45.2559 518.54 35.7097C518.363 26.5171 517.834 17.6781 512.19 11.8443C507.428 6.89444 500.197 5.30341 492.965 4.41951C484.676 3.18204 476.563 2.82848 468.449 2.82848ZM24.1623 114.554C20.8112 114.554 17.1074 114.377 13.7562 112.963C7.9359 110.665 3.35016 104.831 1.41005 97.5831C-0.353698 91.219 -0.177324 84.5013 0.175425 77.9604C0.528174 69.8285 0.880922 61.5198 2.82104 53.5646C4.40841 47.2005 8.11227 38.3615 15.6964 32.3509C19.9294 28.9921 25.397 26.6939 31.9228 25.2797C37.7432 24.0422 43.5635 23.6886 49.7366 23.5119V24.9261V23.5119L359.274 5.30341C367.034 4.94985 374.971 4.77307 382.731 4.41951C398.958 3.88917 415.537 3.35882 431.94 1.94457C453.457 0.176765 472.859 -1.23748 493.318 1.41423C501.079 2.47492 509.015 4.06595 514.307 9.72294C520.656 16.2638 521.185 25.9868 521.362 35.533C521.538 45.2559 521.538 55.1557 519.069 64.8786C517.834 70.0053 515.718 74.7783 513.072 78.6675C510.074 83.087 506.37 86.6227 502.313 89.0976C494.024 93.8707 484.147 94.0475 475.504 94.2242L27.1607 114.554C26.1025 114.554 25.2206 114.554 24.1623 114.554Z" fill="black"/>
<path d="M78.6631 134C68.4334 134 58.5565 133.47 48.6795 131.525C37.3916 129.227 21.3415 123.923 9.87717 111.195C9.34804 110.665 9.34804 109.781 10.0535 109.251C10.5827 108.72 11.4645 108.72 11.9937 109.427C22.9289 121.449 38.2734 126.752 49.2086 128.873C63.1422 131.702 77.6049 131.525 92.4204 131.171C136.867 129.934 450.637 110.135 494.907 105.185C505.489 103.947 514.837 102.533 522.068 96.876C533.885 87.6834 535.825 70.1821 536.002 56.0396C536.178 43.8417 536.002 29.876 529.3 18.562C526.301 13.6121 520.304 9.54618 511.838 6.89446C503.902 4.41953 494.201 3.35884 483.971 3.53562C483.266 3.53562 482.56 3.00528 482.56 2.12137C482.56 1.41425 483.089 0.707126 483.971 0.707126C494.554 0.353564 504.607 1.59103 512.72 4.06596C521.892 6.89446 528.418 11.314 531.769 16.971C538.824 28.9921 539.176 43.3113 539 55.8628C538.647 70.7124 536.707 88.9208 524.008 98.8206C516.248 104.831 506.018 106.422 495.436 107.66C451.166 112.609 137.219 132.409 92.7731 133.646C87.8346 133.823 83.2489 134 78.6631 134Z" fill="black"/>
<path d="M523.655 34.2955C523.302 34.2955 522.95 34.1187 522.597 33.7652C522.068 33.2348 522.244 32.3509 522.773 31.8206L528.594 26.6939C529.123 26.1636 530.005 26.3404 530.534 26.8707C531.063 27.4011 530.886 28.285 530.357 28.8153L524.537 33.942C524.361 34.2955 524.008 34.2955 523.655 34.2955Z" fill="black"/>
<path d="M524.538 42.9578C524.185 42.9578 523.832 42.781 523.48 42.4275C522.951 41.8971 523.127 41.0132 523.656 40.4829L529.124 35.8866C529.653 35.3562 530.535 35.533 531.064 36.0633C531.593 36.5937 531.416 37.4776 530.887 38.0079L525.42 42.6042C525.243 42.9578 524.891 42.9578 524.538 42.9578Z" fill="black"/>
<path d="M526.124 50.9129C525.771 50.9129 525.418 50.7361 525.066 50.3826C524.536 49.8522 524.713 48.9683 525.242 48.438L530.357 44.1952C530.886 43.6649 531.768 43.8417 532.297 44.372C532.826 44.9023 532.65 45.7862 532.121 46.3166L527.006 50.5593C526.829 50.7361 526.477 50.9129 526.124 50.9129Z" fill="black"/>
<path d="M523.301 61.6966C522.772 61.6966 522.419 61.5198 522.066 60.9894C521.714 60.2823 521.89 59.3984 522.419 59.0449L529.121 54.8021C529.827 54.4485 530.709 54.6253 531.061 55.1557C531.414 55.8628 531.238 56.7467 530.709 57.1003L524.183 61.5198C523.83 61.6966 523.654 61.6966 523.301 61.6966Z" fill="black"/>
<path d="M521.364 71.066C520.835 71.066 520.482 70.8892 520.129 70.3588C519.777 69.6517 519.953 68.7678 520.659 68.4142L528.948 63.4644C529.654 63.1108 530.536 63.2876 530.888 63.9947C531.241 64.7018 531.065 65.5857 530.359 65.9393L522.07 70.8892C521.893 71.066 521.717 71.066 521.364 71.066Z" fill="black"/>
<path d="M520.835 79.5515C520.482 79.5515 519.953 79.3747 519.776 79.0211C519.247 78.314 519.424 77.6069 520.129 77.0765L527.537 71.5963C528.242 71.066 528.948 71.2428 529.477 71.9499C530.006 72.657 529.83 73.3641 529.124 73.8945L521.716 79.3747C521.54 79.3747 521.187 79.5515 520.835 79.5515Z" fill="black"/>
<path d="M519.071 85.562C518.542 85.562 518.189 85.3853 517.837 84.8549C517.484 84.1478 517.66 83.2639 518.366 82.9103L525.421 79.0211C526.126 78.6676 527.008 78.8444 527.361 79.5515C527.713 80.2586 527.537 81.1425 526.832 81.4961L519.777 85.3852C519.6 85.562 519.247 85.562 519.071 85.562Z" fill="black"/>
<path d="M295.251 111.195C294.899 111.195 294.37 111.018 294.193 110.665L288.726 103.417C288.197 102.887 288.373 102.003 289.078 101.472C289.607 100.942 290.489 101.119 291.019 101.826L296.486 109.074C297.015 109.604 296.839 110.488 296.133 111.018C295.781 111.018 295.604 111.195 295.251 111.195Z" fill="black"/>
<path d="M302.305 111.726C301.776 111.726 301.247 111.549 301.07 111.018L297.719 105.008C297.367 104.301 297.543 103.417 298.248 103.063C298.954 102.71 299.836 102.887 300.189 103.594L303.54 109.604C303.892 110.311 303.716 111.195 303.011 111.549C302.834 111.726 302.658 111.726 302.305 111.726Z" fill="black"/>
<path d="M312.181 111.372C312.005 111.372 311.652 111.372 311.476 111.195C308.477 109.251 306.361 106.245 305.655 102.887C305.479 102.179 306.008 101.296 306.714 101.119C307.419 100.942 308.301 101.472 308.477 102.179C309.183 104.831 310.77 107.306 313.063 108.72C313.768 109.074 313.945 109.958 313.416 110.665C313.239 111.195 312.71 111.372 312.181 111.372Z" fill="black"/>
<path d="M321.531 111.726C321.178 111.726 320.649 111.549 320.473 111.195L315.534 104.124C315.005 103.417 315.181 102.533 315.887 102.179C316.592 101.649 317.474 101.826 317.827 102.533L322.766 109.604C323.295 110.311 323.118 111.195 322.413 111.549C322.236 111.549 321.884 111.726 321.531 111.726Z" fill="black"/>
<path d="M332.112 112.786C331.759 112.786 331.406 112.61 331.23 112.433C328.055 109.781 325.762 106.069 325.233 102.003C325.057 101.296 325.586 100.588 326.468 100.412C327.173 100.235 327.879 100.765 328.055 101.649C328.584 105.008 330.524 108.19 333.17 110.311C333.699 110.842 333.875 111.726 333.346 112.256C332.993 112.61 332.641 112.786 332.112 112.786Z" fill="black"/>
<path d="M341.992 110.665C341.815 110.665 341.463 110.665 341.286 110.488C338.464 108.72 336.348 105.892 335.466 102.71C335.29 102.003 335.642 101.119 336.524 100.942C337.406 100.765 338.112 101.119 338.288 102.003C338.993 104.478 340.581 106.776 342.874 108.013C343.579 108.367 343.756 109.251 343.403 109.958C342.874 110.311 342.345 110.665 341.992 110.665Z" fill="black"/>
<path d="M350.105 110.842C349.576 110.842 349.047 110.488 348.87 110.135L344.99 102.356C344.637 101.649 344.99 100.765 345.695 100.412C346.401 100.058 347.283 100.412 347.636 101.119L351.516 108.897C351.869 109.604 351.516 110.488 350.81 110.842C350.634 110.665 350.281 110.842 350.105 110.842Z" fill="black"/>
<path d="M358.745 108.897C358.215 108.897 357.686 108.544 357.51 108.013L355.041 101.649C354.688 100.942 355.041 100.058 355.746 99.8813C356.452 99.5277 357.334 99.8813 357.51 100.588L359.979 106.952C360.332 107.66 359.979 108.544 359.274 108.72C359.097 108.897 358.921 108.897 358.745 108.897Z" fill="black"/>
<path d="M366.504 109.251C365.975 109.251 365.622 109.074 365.27 108.544L361.919 103.063C361.566 102.356 361.742 101.472 362.448 101.119C363.153 100.765 364.035 100.942 364.388 101.649L367.739 107.129C368.092 107.836 367.915 108.72 367.21 109.074C366.857 109.251 366.681 109.251 366.504 109.251Z" fill="black"/>
<path d="M376.737 109.604C376.207 109.604 375.855 109.427 375.502 108.897L371.622 102.356C371.269 101.649 371.445 100.765 372.151 100.412C372.856 100.058 373.738 100.235 374.091 100.942L377.971 107.483C378.324 108.19 378.148 109.074 377.442 109.427C377.089 109.604 376.913 109.604 376.737 109.604Z" fill="black"/>
<path d="M387.141 109.958C386.612 109.958 386.259 109.781 385.907 109.251L381.321 101.826C380.968 101.119 381.145 100.235 381.85 99.8812C382.556 99.5277 383.437 99.7045 383.79 100.412L388.376 107.836C388.729 108.544 388.552 109.427 387.847 109.781C387.67 109.958 387.318 109.958 387.141 109.958Z" fill="black"/>
<path d="M397.194 108.544C396.841 108.544 396.312 108.367 396.136 108.013L391.55 101.649C391.021 100.942 391.197 100.058 391.903 99.7045C392.608 99.1741 393.49 99.3509 393.843 100.058L398.428 106.422C398.958 107.129 398.781 108.013 398.076 108.367C397.723 108.367 397.547 108.544 397.194 108.544Z" fill="black"/>
<path d="M182.548 115.084C182.196 115.084 181.666 114.908 181.49 114.554L176.023 107.306C175.493 106.776 175.67 105.892 176.375 105.361C177.081 104.831 177.786 105.008 178.315 105.715L183.783 112.963C184.312 113.493 184.136 114.377 183.43 114.908C183.077 115.084 182.901 115.084 182.548 115.084Z" fill="black"/>
<path d="M189.602 115.615C189.073 115.615 188.544 115.438 188.367 114.908L185.016 108.897C184.663 108.19 184.84 107.306 185.545 106.953C186.251 106.599 187.133 106.776 187.485 107.483L190.837 113.493C191.189 114.201 191.013 115.084 190.307 115.438C190.131 115.615 189.955 115.615 189.602 115.615Z" fill="black"/>
<path d="M199.478 115.261C199.302 115.261 198.949 115.261 198.772 115.084C195.774 113.14 193.658 110.135 192.952 106.776C192.776 106.069 193.305 105.185 194.01 105.008C194.716 104.831 195.598 105.361 195.774 106.069C196.48 108.72 198.067 111.195 200.36 112.609C201.065 112.963 201.242 113.847 200.713 114.554C200.536 115.084 200.007 115.261 199.478 115.261Z" fill="black"/>
<path d="M208.828 115.615C208.475 115.615 207.946 115.438 207.77 115.084L202.831 108.013C202.302 107.306 202.478 106.422 203.184 106.069C203.889 105.538 204.771 105.715 205.124 106.422L210.062 113.493C210.592 114.201 210.415 115.084 209.71 115.438C209.533 115.438 209.181 115.615 208.828 115.615Z" fill="black"/>
<path d="M219.408 116.852C219.056 116.852 218.703 116.675 218.527 116.499C215.352 113.847 213.059 110.135 212.53 106.069C212.354 105.362 212.883 104.654 213.764 104.478C214.47 104.301 215.175 104.831 215.352 105.715C215.881 109.074 217.821 112.256 220.467 114.377C220.996 114.908 221.172 115.792 220.643 116.322C220.29 116.675 219.938 116.852 219.408 116.852Z" fill="black"/>
<path d="M229.285 114.554C229.108 114.554 228.756 114.554 228.579 114.377C225.757 112.609 223.641 109.781 222.759 106.599C222.583 105.892 222.935 105.008 223.817 104.831C224.523 104.654 225.405 105.008 225.581 105.892C226.286 108.367 227.874 110.665 230.167 111.902C230.872 112.256 231.049 113.14 230.696 113.847C230.167 114.201 229.638 114.554 229.285 114.554Z" fill="black"/>
<path d="M237.402 114.731C236.873 114.731 236.343 114.377 236.167 114.024L232.287 106.245C231.934 105.538 232.287 104.654 232.992 104.301C233.698 103.947 234.58 104.301 234.932 105.008L238.813 112.786C239.165 113.493 238.813 114.377 238.107 114.731C237.931 114.731 237.578 114.731 237.402 114.731Z" fill="black"/>
<path d="M246.041 112.786C245.512 112.786 244.983 112.433 244.807 111.902L242.338 105.538C241.985 104.831 242.338 103.947 243.043 103.77C243.749 103.417 244.63 103.77 244.807 104.478L247.276 110.842C247.629 111.549 247.276 112.433 246.571 112.609C246.394 112.786 246.218 112.786 246.041 112.786Z" fill="black"/>
<path d="M253.801 113.14C253.272 113.14 252.919 112.963 252.567 112.433L249.215 106.952C248.863 106.245 249.039 105.361 249.745 105.008C250.45 104.654 251.332 104.831 251.685 105.538L255.036 111.018C255.389 111.726 255.212 112.609 254.507 112.963C254.33 113.14 253.978 113.14 253.801 113.14Z" fill="black"/>
<path d="M264.033 113.493C263.504 113.493 263.152 113.317 262.799 112.786L258.919 106.245C258.566 105.538 258.742 104.654 259.448 104.301C260.153 103.947 261.035 104.124 261.388 104.831L265.268 111.372C265.621 112.079 265.444 112.963 264.739 113.317C264.386 113.493 264.21 113.493 264.033 113.493Z" fill="black"/>
<path d="M274.438 114.024C273.909 114.024 273.556 113.847 273.203 113.317L268.618 105.892C268.265 105.185 268.441 104.301 269.147 103.947C269.852 103.594 270.734 103.77 271.087 104.478L275.673 111.902C276.025 112.609 275.849 113.493 275.144 113.847C274.967 113.847 274.615 114.024 274.438 114.024Z" fill="black"/>
<path d="M284.491 112.433C284.138 112.433 283.609 112.256 283.432 111.902L278.847 105.538C278.318 104.831 278.494 103.947 279.199 103.594C279.905 103.063 280.787 103.24 281.14 103.947L285.725 110.311C286.254 111.018 286.078 111.902 285.373 112.256C285.02 112.433 284.843 112.433 284.491 112.433Z" fill="black"/>
<path d="M70.5483 119.857C70.1956 119.857 69.6665 119.681 69.4901 119.327L64.0225 112.079C63.4934 111.549 63.6698 110.665 64.3752 110.135C64.9044 109.604 65.7862 109.781 66.3154 110.488L71.783 117.736C72.3121 118.266 72.1357 119.15 71.4302 119.681C71.2538 119.681 70.9011 119.857 70.5483 119.857Z" fill="black"/>
<path d="M77.7816 120.388C77.2525 120.388 76.7234 120.211 76.547 119.681L73.1959 113.67C72.8432 112.963 73.0195 112.079 73.725 111.726C74.4305 111.372 75.3124 111.549 75.6651 112.256L79.0163 118.267C79.369 118.974 79.1926 119.858 78.4871 120.211C78.1344 120.211 77.958 120.388 77.7816 120.388Z" fill="black"/>
<path d="M87.6577 120.034C87.4813 120.034 87.1286 120.034 86.9522 119.857C83.9538 117.913 81.8373 114.908 81.1318 111.549C80.9555 110.842 81.4846 109.958 82.1901 109.781C82.8956 109.604 83.7775 110.135 83.9538 110.842C84.6593 113.493 86.2467 115.968 88.5396 117.383C89.2451 117.736 89.4214 118.62 88.8923 119.327C88.5396 119.857 88.0104 120.034 87.6577 120.034Z" fill="black"/>
<path d="M97.0075 120.211C96.6548 120.211 96.1256 120.034 95.9493 119.681L91.0108 112.61C90.4817 111.902 90.658 111.018 91.3635 110.665C92.069 110.311 92.9509 110.311 93.3037 111.018L98.2421 118.09C98.7713 118.797 98.5949 119.681 97.8894 120.034C97.5366 120.211 97.1839 120.211 97.0075 120.211Z" fill="black"/>
<path d="M107.588 121.449C107.235 121.449 106.883 121.272 106.706 121.095C103.532 118.443 101.239 114.731 100.71 110.665C100.533 109.958 101.062 109.251 101.944 109.074C102.65 108.897 103.355 109.427 103.532 110.311C104.061 113.67 106.001 116.852 108.646 118.974C109.176 119.504 109.352 120.388 108.823 120.918C108.294 121.272 107.941 121.449 107.588 121.449Z" fill="black"/>
<path d="M117.289 119.15C117.112 119.15 116.76 119.15 116.583 118.974C113.761 117.206 111.645 114.377 110.763 111.195C110.586 110.488 110.939 109.604 111.821 109.427C112.527 109.251 113.408 109.604 113.585 110.488C114.29 112.963 115.878 115.261 118.171 116.499C118.876 116.852 119.052 117.736 118.7 118.443C118.171 118.974 117.818 119.15 117.289 119.15Z" fill="black"/>
<path d="M125.402 119.327C124.873 119.327 124.343 118.974 124.167 118.62L120.287 110.842C119.934 110.135 120.287 109.251 120.992 108.897C121.698 108.544 122.58 108.897 122.932 109.604L126.813 117.383C127.165 118.09 126.813 118.974 126.107 119.327C125.931 119.327 125.754 119.327 125.402 119.327Z" fill="black"/>
<path d="M134.221 117.559C133.692 117.559 133.163 117.206 132.987 116.675L130.517 110.311C130.165 109.604 130.517 108.72 131.223 108.544C131.928 108.19 132.81 108.544 132.987 109.251L135.456 115.615C135.809 116.322 135.456 117.206 134.75 117.383C134.574 117.559 134.398 117.559 134.221 117.559Z" fill="black"/>
<path d="M141.805 117.913C141.276 117.913 140.923 117.736 140.57 117.206L137.219 111.726C136.867 111.018 137.043 110.135 137.748 109.781C138.454 109.427 139.336 109.604 139.689 110.311L143.04 115.792C143.392 116.499 143.216 117.383 142.511 117.736C142.334 117.736 141.981 117.913 141.805 117.913Z" fill="black"/>
<path d="M152.033 118.266C151.504 118.266 151.152 118.09 150.799 117.559L146.919 111.018C146.566 110.311 146.742 109.427 147.448 109.074C148.153 108.72 149.035 108.897 149.388 109.604L153.268 116.145C153.621 116.852 153.444 117.736 152.739 118.09C152.563 118.09 152.21 118.266 152.033 118.266Z" fill="black"/>
<path d="M162.442 118.62C161.913 118.62 161.56 118.443 161.207 117.913L156.622 110.488C156.269 109.781 156.445 108.897 157.151 108.544C157.856 108.19 158.738 108.367 159.091 109.074L163.677 116.499C164.029 117.206 163.853 118.09 163.148 118.443C162.971 118.62 162.618 118.62 162.442 118.62Z" fill="black"/>
<path d="M172.495 117.029C172.142 117.029 171.613 116.852 171.436 116.499L166.851 110.135C166.321 109.427 166.498 108.544 167.203 108.19C167.909 107.66 168.791 107.836 169.143 108.544L173.729 114.908C174.258 115.615 174.082 116.499 173.376 116.852C173.2 117.029 172.847 117.029 172.495 117.029Z" fill="black"/>
<path d="M424.532 106.776C424.003 106.776 423.65 106.599 423.297 106.069L418.535 98.8206C418.182 98.1134 418.359 97.2295 418.888 96.876C419.593 96.5224 420.475 96.6992 420.828 97.2295L425.59 104.478C425.943 105.185 425.766 106.069 425.237 106.422C425.237 106.776 424.885 106.776 424.532 106.776Z" fill="black"/>
<path d="M437.761 107.306C437.408 107.306 437.056 107.129 436.703 106.776L431.588 100.942C431.059 100.412 431.059 99.5277 431.764 98.9974C432.294 98.467 433.175 98.467 433.705 99.1741L438.819 105.008C439.349 105.538 439.349 106.422 438.643 106.953C438.467 107.129 438.114 107.306 437.761 107.306Z" fill="black"/>
<path d="M445.872 106.245C445.52 106.245 445.167 106.069 444.814 105.715L440.581 100.765C440.052 100.235 440.228 99.3509 440.758 98.8206C441.287 98.2902 442.169 98.467 442.698 98.9974L446.931 103.947C447.46 104.478 447.283 105.361 446.754 105.892C446.402 106.245 446.049 106.245 445.872 106.245Z" fill="black"/>
<path d="M455.046 106.069C454.694 106.069 454.341 105.892 453.988 105.538L450.284 101.119C449.755 100.588 449.932 99.7045 450.461 99.1742C450.99 98.6438 451.872 98.8206 452.401 99.3509L456.105 103.77C456.634 104.301 456.457 105.185 455.928 105.715C455.752 105.892 455.399 106.069 455.046 106.069Z" fill="black"/>
<path d="M465.979 106.422C465.626 106.422 465.097 106.245 464.921 105.892L460.335 99.8813C459.806 99.3509 459.982 98.467 460.511 97.9367C461.041 97.4063 461.922 97.5831 462.452 98.1135L467.037 104.124C467.566 104.654 467.39 105.538 466.861 106.069C466.508 106.245 466.332 106.422 465.979 106.422Z" fill="black"/>
<path d="M480.973 104.124C480.62 104.124 480.268 103.947 479.915 103.594L475.682 98.8206C475.153 98.2902 475.153 97.4063 475.858 96.876C476.387 96.3456 477.269 96.3456 477.798 97.0527L482.031 101.826C482.56 102.356 482.56 103.24 481.855 103.77C481.679 104.124 481.326 104.124 480.973 104.124Z" fill="black"/>
<path d="M490.496 103.24C490.144 103.24 489.614 103.063 489.438 102.71L485.558 98.1134C485.029 97.5831 485.205 96.6992 485.734 96.1689C486.263 95.6385 487.145 95.8153 487.674 96.3456L491.555 100.942C492.084 101.472 491.907 102.356 491.378 102.887C491.202 103.063 490.849 103.24 490.496 103.24Z" fill="black"/>
<path d="M500.901 103.063C500.549 103.063 500.196 102.887 499.843 102.533L493.67 95.8153C493.141 95.285 493.141 94.4011 493.847 93.8707C494.376 93.3404 495.258 93.3404 495.787 94.0475L501.96 100.765C502.489 101.296 502.489 102.179 501.783 102.71C501.607 102.887 501.254 103.063 500.901 103.063Z" fill="black"/>
<path d="M507.604 99.7045C507.251 99.7045 506.899 99.5277 506.546 99.1741L502.842 94.7546C502.313 94.2243 502.313 93.3404 503.018 92.81C503.548 92.2797 504.429 92.2797 504.958 92.9868L508.662 97.4063C509.191 97.9367 509.191 98.8206 508.486 99.3509C508.31 99.7045 507.957 99.7045 507.604 99.7045Z" fill="black"/>
<path d="M517.481 96.5224C517.128 96.5224 516.775 96.3457 516.422 96.1689L511.131 90.6887C510.602 90.1583 510.602 89.2744 511.131 88.7441C511.66 88.2137 512.542 88.2137 513.071 88.7441L518.363 94.2243C518.892 94.7546 518.892 95.6385 518.363 96.1689C518.186 96.3457 517.833 96.5224 517.481 96.5224Z" fill="black"/>
<path d="M10.7604 62.934C10.0549 62.934 9.34944 62.4037 9.34944 61.6966C8.82031 54.9789 10.9368 48.2612 15.1698 42.9578C19.2264 37.6543 25.3995 34.1187 32.1017 33.058C32.8072 32.8813 33.5127 33.4116 33.6891 34.2955C33.8655 35.0026 33.3363 35.7098 32.4545 35.8865C26.6341 36.7704 20.9901 39.9525 17.2863 44.7256C13.5824 49.4987 11.6423 55.5092 12.1714 61.5198C12.1714 62.2269 11.6423 62.934 10.7604 62.934Z" fill="black"/>
<path d="M18.1649 59.9287C18.1649 59.9287 17.9885 59.9287 18.1649 59.9287C17.283 59.9287 16.7539 59.2216 16.7539 58.3377C17.4594 50.9129 22.2215 44.372 29.1001 41.3667C29.8056 41.0132 30.6875 41.3667 30.8639 42.0739C31.0402 42.781 30.8639 43.6649 30.1584 43.8417C24.338 46.3166 20.105 52.3272 19.5759 58.5145C19.3995 59.3984 18.8704 59.9287 18.1649 59.9287Z" fill="black"/>
<path d="M35.8055 108.19C35.1 108.19 34.3945 107.66 34.3945 106.776C34.3945 106.069 34.9237 105.361 35.8055 105.361L197.717 96.876C198.423 96.876 199.128 97.4063 199.128 98.2902C199.128 99.1741 198.599 99.7045 197.717 99.7045L35.8055 108.19Z" fill="black"/>
<path d="M336.345 92.4564C335.639 92.4564 334.934 91.9261 334.934 91.219C334.934 90.5119 335.463 89.8047 336.168 89.8047L390.315 86.2691C391.021 86.2691 391.726 86.7994 391.726 87.5066C391.726 88.2137 391.197 88.9208 390.492 88.9208L336.345 92.4564Z" fill="black"/>
</svg>
