<svg width="322" height="425" viewBox="0 0 322 425" fill="none" xmlns="http://www.w3.org/2000/svg">
<path d="M132.713 338.613C133.985 336.978 135.44 335.524 137.258 334.615C137.258 334.797 137.258 334.797 137.439 334.978C137.258 334.978 137.076 335.16 136.894 335.16C136.53 335.16 136.349 335.524 136.349 335.887C136.349 336.251 136.53 336.432 136.894 336.614C137.803 336.978 138.894 336.978 139.803 336.432C140.712 336.069 141.257 335.16 141.257 334.07C141.257 334.07 141.439 333.888 141.439 333.706C141.439 333.524 141.439 333.161 141.257 332.979C141.984 332.797 142.711 332.615 143.439 332.434C144.348 332.252 143.984 330.98 143.075 331.161C138.712 331.888 134.712 334.433 131.985 337.886C131.258 338.25 132.167 339.341 132.713 338.613Z" fill="white"/>
<path d="M156.526 330.616C156.526 330.434 156.526 330.434 156.526 330.253V330.616ZM149.982 330.616C150.709 330.253 151.436 330.071 152.163 330.071C152.163 330.071 151.981 330.253 151.981 330.434C151.799 330.616 151.799 330.98 151.799 331.161C151.799 331.343 151.799 331.343 151.799 331.525C151.799 331.707 151.981 331.889 151.981 331.889C152.163 332.07 152.345 332.07 152.527 332.07C152.708 332.07 153.072 332.07 153.254 332.07H153.436C153.617 332.07 153.617 331.889 153.799 331.889C153.981 331.707 154.163 331.707 154.163 331.525C154.345 331.343 154.526 331.161 154.526 330.98V330.798C154.89 330.98 155.072 331.343 155.435 331.343C155.981 331.525 156.526 331.343 156.708 330.616C156.708 330.253 156.526 329.707 155.981 329.707C155.799 329.707 155.617 329.707 155.435 329.707L155.254 329.526C155.072 329.344 154.708 329.162 154.526 329.162C153.981 328.98 153.254 328.799 152.708 328.617C151.436 328.435 150.345 328.799 149.254 329.344C148.527 329.889 149.254 331.161 149.982 330.616Z" fill="white"/>
<path d="M145.801 346.065C146.71 346.247 147.619 345.884 148.528 345.702C149.437 345.338 150.164 345.338 151.255 345.338C152.891 345.52 154.709 345.338 155.255 343.521C155.8 342.067 154.891 340.431 153.8 339.34C152.528 338.068 150.71 337.341 150.164 335.524C149.983 334.615 148.528 334.978 148.892 335.887C149.255 337.159 150.164 338.068 151.255 338.977C152.346 339.704 153.255 340.431 153.8 341.703C153.982 342.249 154.164 342.794 153.8 343.157C153.618 343.703 152.891 343.884 152.346 343.884C151.619 343.884 150.891 343.884 150.346 343.884C149.619 343.884 148.892 344.066 148.165 344.248C147.619 344.43 146.528 344.975 145.983 344.611C145.619 344.43 145.256 343.884 145.619 343.703C146.347 343.157 145.256 342.249 144.71 342.794C143.256 343.884 144.529 345.702 145.801 346.065Z" fill="white"/>
<path d="M117.443 344.066C117.079 344.066 116.715 344.248 116.534 344.611C116.534 344.611 116.534 344.611 116.352 344.611H116.17C116.17 344.611 116.17 344.611 116.17 344.43C116.17 344.611 116.17 344.43 116.17 344.43C116.17 344.43 116.17 344.248 116.17 344.43C116.17 344.43 116.17 344.43 116.17 344.248C116.17 344.248 116.17 344.248 116.352 344.066H116.534H116.715H116.897H117.079C117.443 344.248 117.988 343.884 117.988 343.339C117.988 342.067 117.443 340.795 116.352 340.249C115.261 339.704 113.807 339.704 112.716 340.431C112.352 340.613 112.171 340.976 112.534 341.34C112.716 341.703 113.08 341.885 113.443 341.522C113.625 341.522 113.625 341.34 113.807 341.34H113.988C113.988 341.34 113.988 341.34 114.17 341.34C114.352 341.34 114.352 341.34 114.534 341.158H114.716C114.897 341.158 114.897 341.158 115.079 341.158H115.261C115.443 341.158 115.443 341.158 115.625 341.34H115.806H115.988C115.988 341.34 115.988 341.34 116.17 341.34C116.17 341.34 116.352 341.522 116.17 341.34L116.352 341.522C116.352 341.522 116.352 341.703 116.534 341.703C116.534 341.885 116.534 341.703 116.534 341.703C116.534 341.885 116.715 341.885 116.715 342.067V342.249V342.43C115.806 342.612 115.079 343.339 114.897 344.066C114.716 345.338 115.988 346.065 117.079 345.884C117.624 345.884 118.17 345.338 118.352 344.793C117.988 344.611 117.806 344.248 117.443 344.066Z" fill="white"/>
<path d="M148.709 356.426C148.891 356.426 148.891 356.426 148.891 356.426C149.073 356.426 149.254 356.426 149.436 356.426C149.982 356.426 150.527 356.607 150.891 356.607C150.891 356.607 150.891 356.789 151.072 356.789C150.163 356.789 149.436 356.789 148.709 356.426ZM147.982 355.88C147.982 356.062 147.982 356.062 148.164 356.244C147.982 356.062 147.8 356.062 147.618 355.88C147.618 355.88 147.8 355.88 147.982 355.88ZM144.709 351.336C144.528 351.518 144.346 351.7 144.528 351.882C144.528 352.063 144.528 352.245 144.528 352.609C144.346 352.245 144.164 351.882 143.982 351.518C144.164 351.518 144.528 351.336 144.709 351.336ZM156.708 348.61C156.708 349.337 156.708 350.064 156.708 350.791C156.708 350.791 156.526 350.791 156.526 350.973C155.072 352.427 152.89 353.154 150.891 353.336C149.8 353.518 148.709 353.518 147.618 353.518C147.436 353.518 147.073 353.518 146.891 353.518C146.709 353.336 146.709 352.972 146.709 352.609C146.527 352.245 146.527 351.7 146.346 351.336C147.436 351.155 148.527 351.155 149.618 350.791C150.891 350.428 151.981 350.064 153.254 349.519C154.345 349.155 155.617 348.792 156.708 348.61ZM156.708 346.611C155.981 346.429 155.254 346.793 154.526 347.156C153.981 347.52 153.254 347.883 152.709 348.247C151.618 348.428 150.709 348.792 149.618 348.974C147.255 349.519 144.709 350.246 142.346 349.701C141.983 349.701 141.801 349.882 141.619 350.064C141.255 350.428 141.074 351.155 141.801 351.155C141.983 351.155 142.164 351.155 142.346 351.155C143.255 354.426 145.8 357.334 149.254 357.88C152.527 358.425 156.344 356.789 157.617 353.518C158.526 351.155 157.981 348.61 158.162 346.247C158.162 345.702 156.708 345.702 156.708 346.611Z" fill="white"/>
<path d="M141.802 307.533C142.166 307.533 142.529 307.351 142.711 306.988C142.711 306.624 142.893 306.261 142.893 305.897C142.893 305.715 143.075 305.534 143.075 305.352C143.075 305.352 143.075 305.17 143.256 305.17C143.256 305.17 143.256 305.17 143.256 304.988C143.62 304.261 143.984 303.716 144.347 303.171C144.529 302.807 144.347 302.444 144.165 302.262C143.802 302.08 143.438 302.262 143.256 302.444C142.347 303.716 141.802 304.988 141.439 306.624C141.257 307.17 141.439 307.533 141.802 307.533Z" fill="white"/>
<path d="M145.62 307.351C145.802 307.351 145.984 307.533 146.166 307.351C146.347 307.351 146.529 307.17 146.529 306.988C146.711 306.442 147.075 305.897 147.256 305.352C147.256 305.17 147.438 304.988 147.256 304.807C147.256 304.625 147.075 304.443 146.893 304.443C146.711 304.443 146.529 304.261 146.347 304.443C146.166 304.443 145.984 304.625 145.984 304.807C145.802 305.352 145.438 305.897 145.257 306.442C145.257 306.624 145.075 306.806 145.257 306.988C145.438 306.988 145.438 307.17 145.62 307.351Z" fill="white"/>
<path d="M135.257 306.624C135.62 306.624 135.984 306.261 135.984 305.897V305.715V305.534C135.984 305.352 136.166 305.17 136.166 304.988C136.166 304.988 136.166 304.988 136.166 304.807C136.166 304.807 136.166 304.625 136.347 304.625C136.529 304.443 136.529 304.261 136.711 304.08C136.711 303.898 136.711 304.08 136.711 304.08C136.711 304.08 136.711 304.08 136.711 303.898L136.893 303.716C137.075 303.534 137.075 303.534 137.256 303.353C137.256 303.353 137.256 303.353 137.438 303.353L137.62 303.171C137.802 302.989 137.984 302.989 138.165 302.807C138.529 302.626 138.529 302.08 138.347 301.899C138.165 301.535 137.802 301.535 137.438 301.717C135.802 302.444 134.711 304.08 134.348 305.897C134.529 306.442 134.893 306.624 135.257 306.624Z" fill="white"/>
<path d="M129.438 310.078C129.802 309.896 129.983 309.532 129.983 309.169C129.802 307.533 130.165 305.715 131.256 304.443C131.438 304.08 131.62 303.716 131.256 303.534C131.074 303.353 130.529 303.171 130.347 303.534C129.074 305.352 128.347 307.351 128.711 309.532C128.711 310.078 129.074 310.259 129.438 310.078Z" fill="white"/>
<path d="M124.712 312.622C125.076 312.44 125.257 312.077 125.257 311.713C125.076 310.986 124.894 310.623 125.076 309.896C125.076 309.532 125.076 309.351 125.257 308.987C125.257 308.805 125.257 308.624 125.439 308.442V308.26C125.439 308.26 125.439 308.26 125.439 308.078C125.621 307.715 125.621 307.351 125.257 307.169C124.894 306.988 124.53 306.988 124.349 307.351C123.621 308.805 123.621 310.441 123.985 312.077C123.985 312.622 124.349 312.804 124.712 312.622Z" fill="white"/>
<path d="M121.441 309.169C121.441 307.169 121.986 305.352 123.077 303.716C123.259 303.353 123.077 302.989 122.895 302.807C122.531 302.626 122.168 302.807 121.986 302.989C120.713 304.807 120.168 306.988 120.168 309.169C119.986 310.078 121.441 310.078 121.441 309.169Z" fill="white"/>
<path d="M116.352 315.894C116.715 315.712 116.897 315.349 116.897 314.985C116.715 313.349 117.079 311.713 117.806 310.441C118.352 309.714 117.079 308.987 116.715 309.714C115.625 311.35 115.261 313.349 115.625 315.349C115.625 315.894 116.17 316.076 116.352 315.894Z" fill="white"/>
<path d="M113.622 318.984C113.986 318.802 113.986 318.438 113.804 318.075C113.804 318.075 113.804 318.075 113.804 317.893V317.711C113.804 317.53 113.622 317.348 113.622 317.166V316.984C113.622 316.984 113.622 316.984 113.622 316.803C113.622 316.621 113.622 316.439 113.622 316.439C113.622 316.257 113.622 316.076 113.622 316.076V315.894V315.712C113.622 315.349 113.804 315.167 113.804 314.803C113.986 314.44 113.622 314.076 113.259 313.895C112.895 313.895 112.531 314.076 112.35 314.44C111.804 315.894 111.804 317.348 112.532 318.62C112.713 318.984 113.259 319.165 113.622 318.984Z" fill="white"/>
<path d="M111.805 324.618C111.986 324.618 112.168 324.8 112.35 324.618C112.532 324.618 112.714 324.436 112.714 324.255C112.714 324.073 112.895 323.891 112.714 323.709C112.714 323.709 112.714 323.709 112.714 323.528C112.714 323.346 112.714 323.346 112.714 323.164C112.714 322.982 112.714 322.982 112.714 322.801C112.714 322.801 112.714 322.801 112.714 322.619C112.714 322.437 112.714 322.255 112.895 322.074V321.892C112.895 321.71 113.077 321.71 113.077 321.528C113.259 321.165 113.077 320.801 112.895 320.619C112.532 320.438 112.168 320.619 111.986 320.801C111.805 321.165 111.623 321.71 111.441 322.255C111.259 322.801 111.259 323.346 111.441 323.891C111.441 324.436 111.623 324.618 111.805 324.618Z" fill="white"/>
<path d="M117.805 330.616C117.805 330.616 117.805 330.434 117.805 330.616C117.805 330.434 117.805 330.434 117.805 330.616C117.805 330.434 117.624 330.253 117.624 330.253V330.071C117.624 329.889 117.624 329.707 117.624 329.707V329.526C117.624 329.162 117.442 328.799 117.078 328.617C116.715 328.617 116.351 328.799 116.169 329.162C115.806 330.616 116.351 332.07 117.624 332.979C117.987 333.161 118.351 332.979 118.533 332.797C118.714 332.434 118.533 332.07 118.351 331.888C118.351 331.888 118.351 331.888 118.169 331.707L117.987 331.525C117.987 330.798 117.987 330.798 117.805 330.616C117.805 330.616 117.987 330.616 117.805 330.616Z" fill="white"/>
<path d="M113.258 332.797C113.621 332.434 113.44 332.07 113.258 331.889C112.167 330.616 111.804 328.98 111.985 327.345C111.985 326.981 111.804 326.618 111.44 326.436C111.076 326.254 110.713 326.618 110.531 326.981C110.167 328.98 110.713 331.161 112.167 332.797C112.531 332.979 113.076 332.979 113.258 332.797Z" fill="white"/>
<path d="M297.601 333.161V333.343V333.161ZM295.965 329.162C295.783 328.799 295.783 328.253 296.147 327.89C296.511 327.526 297.056 327.345 297.601 327.526C298.692 327.89 299.238 328.98 299.419 330.071C298.147 329.889 297.056 330.616 296.511 331.707C296.147 332.616 296.147 333.706 297.056 334.251C297.42 334.433 297.965 334.433 298.329 334.251C298.874 333.888 299.056 333.524 298.874 332.979C298.874 332.616 298.329 332.434 297.965 332.434C297.601 332.434 297.601 332.797 297.601 332.979V332.797C297.601 332.434 297.783 332.07 297.965 331.889C298.51 331.343 299.238 331.343 299.783 331.707C300.146 331.888 300.874 331.707 300.874 331.161C300.692 330.071 300.51 328.799 299.965 327.89C299.419 326.981 298.51 326.436 297.42 326.254C296.329 326.072 295.42 326.436 294.874 327.345C294.329 328.072 294.147 329.162 294.693 329.889C295.238 330.616 296.511 330.071 295.965 329.162Z" fill="white"/>
<path d="M277.603 291.538C277.422 291.175 277.058 290.993 276.694 291.357C274.876 292.629 273.422 294.083 271.968 295.719C271.786 296.082 271.604 296.446 271.968 296.628C272.15 296.809 272.695 296.991 272.877 296.628C274.149 294.992 275.604 293.538 277.24 292.447C277.785 292.265 277.785 291.902 277.603 291.538Z" fill="white"/>
<path d="M268.694 298.99C268.149 300.081 267.603 301.172 267.24 302.444C267.058 302.807 267.422 303.171 267.785 303.353C268.149 303.353 268.512 303.171 268.694 302.807C268.876 302.626 268.876 302.262 269.058 302.08C269.058 302.08 269.058 302.08 269.058 301.899V301.717C269.058 301.535 269.24 301.353 269.24 301.353C269.421 300.808 269.785 300.263 269.967 299.717C270.149 299.354 269.967 298.99 269.785 298.809C269.24 298.445 268.876 298.627 268.694 298.99Z" fill="white"/>
<path d="M272.149 302.08C271.785 302.08 271.422 302.444 271.422 302.807C271.422 302.989 271.422 302.989 271.422 303.171V303.353C271.422 303.353 271.422 303.534 271.422 303.353C271.422 303.534 271.422 303.898 271.24 304.08C271.058 304.625 271.058 304.988 270.876 305.534C270.695 305.897 271.058 306.261 271.422 306.443C271.785 306.443 272.149 306.261 272.331 305.897C272.694 304.807 272.876 303.716 272.876 302.626C272.876 302.444 272.513 302.08 272.149 302.08Z" fill="white"/>
<path d="M278.694 299.354C278.512 299.172 277.966 298.99 277.785 299.354C276.876 300.445 276.512 302.08 276.694 303.534C276.694 303.898 277.239 304.08 277.603 304.08C277.966 303.898 278.148 303.534 278.148 303.171V302.989C278.148 303.171 278.148 302.989 278.148 302.807C278.148 302.626 278.148 302.444 278.148 302.444C278.148 302.262 278.148 302.262 278.148 302.08C278.148 302.262 278.148 302.08 278.148 301.899V301.717C278.148 301.535 278.148 301.353 278.33 301.353V301.172C278.33 300.99 278.512 300.99 278.512 300.808C278.512 300.808 278.512 300.626 278.694 300.626C278.694 300.626 278.875 300.445 278.694 300.626C278.875 299.899 278.875 299.536 278.694 299.354Z" fill="white"/>
<path d="M282.331 308.442C281.968 308.26 281.604 308.442 281.422 308.624C280.514 309.714 280.332 311.35 280.877 312.622C281.059 312.986 281.422 313.167 281.786 313.167C282.15 312.986 282.331 312.622 282.331 312.259C282.331 312.077 282.15 311.895 282.15 311.895V311.713C282.15 311.532 282.15 311.35 282.15 311.35V311.168C282.15 311.168 282.15 311.168 282.15 310.986C282.15 310.623 282.331 310.441 282.331 310.259V310.078C282.331 310.078 282.331 309.896 282.513 309.896C282.513 309.714 282.695 309.714 282.695 309.532C282.695 309.169 282.513 308.624 282.331 308.442Z" fill="white"/>
<path d="M287.421 296.264C287.239 296.082 286.694 295.901 286.512 296.264C285.058 298.082 284.149 300.081 283.785 302.444C283.785 302.807 283.967 303.171 284.331 303.353C284.694 303.353 285.058 303.171 285.239 302.807C285.603 300.808 286.33 298.809 287.603 297.355C287.603 296.809 287.603 296.446 287.421 296.264Z" fill="white"/>
<path d="M290.51 298.99C287.238 302.444 285.238 307.169 285.238 312.077C285.238 312.986 286.511 312.986 286.693 312.077C286.693 307.533 288.511 303.353 291.601 300.081C292.147 299.354 291.238 298.445 290.51 298.99Z" fill="white"/>
<path d="M286.877 315.349C286.332 316.439 286.15 317.711 286.513 318.984C286.695 319.347 287.059 319.529 287.422 319.529C287.786 319.347 287.968 318.984 287.968 318.62C287.968 318.438 287.968 318.438 287.786 318.257V318.075C287.786 317.893 287.786 317.53 287.786 317.348V317.166C287.786 316.984 287.786 316.984 287.786 316.803V316.621C287.786 316.439 287.968 316.439 287.968 316.257C288.15 315.894 287.968 315.53 287.786 315.349C287.422 314.985 287.059 315.167 286.877 315.349Z" fill="white"/>
<path d="M297.057 304.08C294.693 307.351 293.057 311.35 292.512 315.349C292.33 316.257 293.784 316.621 293.784 315.712C294.33 311.713 295.966 308.078 298.148 304.807C298.693 304.08 297.42 303.353 297.057 304.08Z" fill="white"/>
<path d="M290.511 320.62C290.329 320.62 290.147 320.62 289.966 320.62C289.784 320.801 289.784 320.801 289.602 320.983C289.238 321.892 289.238 322.982 289.42 323.891C289.42 324.255 289.966 324.436 290.329 324.436C290.693 324.255 290.875 323.891 290.875 323.528C290.875 323.528 290.875 323.528 290.875 323.346C290.875 323.164 290.875 323.164 290.875 322.982C290.875 322.801 290.875 322.619 290.875 322.437V322.255C290.875 322.074 290.875 322.074 290.875 321.892C290.875 321.71 291.056 321.528 291.056 321.347C291.056 321.165 291.056 320.983 291.056 320.801C290.875 320.801 290.693 320.62 290.511 320.62Z" fill="white"/>
<path d="M299.6 317.711C299.6 317.711 299.418 317.711 299.6 317.711C299.418 317.711 299.418 317.711 299.6 317.711ZM299.964 312.622C299.6 312.44 299.236 312.804 299.055 313.167C298.873 313.713 298.691 314.44 298.509 314.985C298.327 315.53 298.146 316.076 298.146 316.803C297.964 317.893 298.146 318.984 299.418 319.165C299.782 319.165 300.145 318.802 300.145 318.438C300.145 318.075 299.964 317.893 299.6 317.711C299.6 317.711 299.6 317.711 299.6 317.53C299.6 317.348 299.6 317.166 299.6 316.984V316.803C299.6 316.621 299.6 316.621 299.6 316.439C299.782 315.349 300.145 314.44 300.327 313.349C300.509 312.986 300.327 312.622 299.964 312.622Z" fill="white"/>
<path d="M303.963 312.622C303.236 314.076 302.872 315.712 303.054 317.348C303.054 317.711 303.418 318.075 303.781 318.075C304.145 318.075 304.509 317.711 304.509 317.348C304.509 316.984 304.509 316.621 304.509 316.257C304.509 316.076 304.509 315.894 304.509 315.712V315.53C304.509 315.349 304.509 315.349 304.509 315.167C304.509 314.803 304.69 314.44 304.872 314.076C305.054 313.713 305.054 313.531 305.236 313.167C305.418 312.804 305.236 312.44 305.054 312.259C304.69 312.259 304.145 312.259 303.963 312.622Z" fill="white"/>
<path d="M307.419 320.438C307.419 320.074 307.237 319.711 306.874 319.529C306.51 319.347 306.146 319.711 305.965 320.074C305.601 321.892 305.783 323.891 306.692 325.527C306.874 325.89 307.237 325.89 307.601 325.709C307.964 325.527 307.964 325.163 307.783 324.8C307.237 323.346 307.055 321.892 307.419 320.438Z" fill="white"/>
<path d="M315.055 329.162C315.055 329.162 315.055 328.98 314.873 328.98C314.873 328.98 314.691 328.799 314.873 328.799C314.873 328.617 314.691 328.435 314.691 328.253C314.509 327.89 314.509 327.526 314.328 327.163C314.328 326.981 314.328 326.799 314.146 326.618C314.146 326.618 314.146 326.618 314.146 326.436C314.146 326.254 314.146 326.254 314.146 326.072C314.146 325.709 313.782 325.345 313.419 325.345C313.055 325.345 312.691 325.709 312.691 326.072C312.873 327.708 313.419 329.162 314.146 330.616C314.328 330.98 314.691 330.98 315.055 330.798C315.418 330.616 315.6 330.253 315.237 329.889C315.418 329.707 315.237 329.344 315.055 329.162Z" fill="white"/>
<path d="M314.51 317.711C314.874 317.348 314.692 316.984 314.51 316.803C313.601 315.712 313.056 314.076 313.056 312.622C313.056 312.259 312.692 311.895 312.329 311.895C311.965 311.895 311.602 312.259 311.602 312.622C311.602 314.44 312.329 316.257 313.42 317.711C313.783 317.893 314.329 317.893 314.51 317.711Z" fill="white"/>
<path d="M303.421 309.169C303.602 309.169 303.784 308.987 303.784 308.805C303.784 308.624 303.966 308.442 303.784 308.26C303.602 307.533 303.602 306.624 303.421 305.897C303.421 305.715 303.239 305.534 303.057 305.534C302.875 305.534 302.693 305.352 302.512 305.534C302.33 305.534 302.148 305.715 302.148 305.897C301.966 306.079 301.966 306.261 302.148 306.442C302.33 307.169 302.33 308.078 302.512 308.805C302.512 308.987 302.693 309.169 302.875 309.169C303.057 309.169 303.239 309.351 303.421 309.169Z" fill="white"/>
<path d="M303.42 300.444C303.42 299.899 303.42 299.536 303.42 298.99C303.42 298.809 303.42 298.809 303.42 298.627V298.445C303.42 298.445 303.42 298.445 303.42 298.263C303.42 298.082 303.42 297.718 303.602 297.536C303.602 297.173 303.42 296.809 303.057 296.628C302.693 296.628 302.33 296.809 302.148 297.173C301.966 298.263 301.784 299.354 301.966 300.444C301.966 300.808 302.33 301.172 302.693 301.172C303.057 301.172 303.42 300.808 303.42 300.444Z" fill="white"/>
<path d="M313.964 306.261C314.327 306.079 314.327 305.715 314.145 305.352C313.964 304.988 313.6 304.988 313.236 305.17H313.055H312.873H312.691H312.509C312.509 305.17 312.509 305.17 312.327 304.988C312.327 304.988 312.327 304.988 312.327 304.807C312.146 304.443 311.782 304.443 311.418 304.625C311.055 304.807 311.055 305.17 311.237 305.534C311.782 306.442 313.055 306.806 313.964 306.261Z" fill="white"/>
<path d="M314.508 300.808C314.871 300.808 315.053 300.263 315.053 299.899C314.871 299.536 314.508 299.354 314.144 299.354H313.962C313.962 299.354 313.781 299.354 313.599 299.354H313.417C313.417 299.354 313.417 299.354 313.235 299.354H313.053C312.872 299.354 312.872 299.354 312.69 299.172H312.508C312.326 299.172 312.326 298.99 312.144 298.99C312.144 298.99 312.144 298.99 311.963 298.809C311.781 298.627 311.235 298.445 311.054 298.809C310.872 298.99 310.69 299.536 311.054 299.717C312.144 300.808 313.417 301.172 314.508 300.808Z" fill="white"/>
<path d="M311.235 292.992H311.417C311.598 292.992 311.962 292.992 312.144 292.992C312.326 292.992 312.507 292.992 312.689 292.811C312.871 292.629 312.871 292.447 312.871 292.265C312.871 291.902 312.507 291.72 312.144 291.538C311.053 291.357 309.78 291.72 308.872 292.265C308.508 292.447 308.508 292.811 308.69 293.174C308.872 293.538 309.235 293.719 309.599 293.356C309.781 293.174 309.962 292.992 310.326 292.992C310.144 292.992 310.326 292.992 310.326 292.992H310.508C310.689 292.992 310.689 292.992 310.871 292.811H311.053C311.053 292.992 311.053 292.992 311.235 292.992Z" fill="white"/>
<path d="M303.782 291.72C304.873 291.175 305.964 290.63 307.055 290.084C307.418 289.903 307.418 289.539 307.236 289.176C307.055 288.812 306.691 288.812 306.327 288.994C305.237 289.539 304.146 290.084 303.055 290.63C302.692 290.811 302.692 291.357 302.873 291.538C303.055 291.72 303.419 291.902 303.782 291.72Z" fill="white"/>
<path d="M295.966 289.721C296.33 289.721 296.693 289.539 296.875 289.176C296.875 288.994 296.875 288.812 297.057 288.63V288.449C297.057 288.449 297.057 288.267 297.239 288.267C297.421 288.267 297.421 288.085 297.421 288.085C297.421 288.085 297.421 288.085 297.421 287.903C297.602 287.721 297.784 287.54 297.784 287.54L297.966 287.358C297.966 287.358 298.148 287.358 298.148 287.176C298.33 286.994 298.511 286.994 298.693 286.813H298.875C299.057 286.813 299.057 286.813 299.239 286.813C299.42 286.813 299.42 286.813 299.602 286.813H299.784C300.147 286.813 300.511 286.449 300.511 286.086C300.511 285.722 300.147 285.359 299.784 285.359C297.784 285.54 295.966 286.994 295.603 288.994C295.421 289.176 295.603 289.721 295.966 289.721Z" fill="white"/>
<path d="M284.15 288.994C285.241 289.176 286.331 289.357 287.422 289.176C287.786 289.176 288.149 288.812 288.149 288.448C288.149 288.085 287.786 287.721 287.422 287.721C286.877 287.721 286.513 287.721 285.968 287.721C285.786 287.721 285.786 287.721 285.604 287.721H285.422C285.241 287.721 284.877 287.721 284.695 287.54C284.332 287.54 283.968 287.721 283.786 288.085C283.604 288.63 283.786 288.994 284.15 288.994Z" fill="white"/>
<path d="M295.782 295.719C295.782 295.901 295.963 296.082 295.963 296.082C295.963 296.264 296.145 296.446 296.145 296.628C296.327 296.991 296.327 297.173 296.327 297.536C296.327 297.9 296.509 298.082 296.509 298.445C296.509 298.809 296.872 299.172 297.236 299.172C297.6 299.172 297.963 298.809 297.963 298.445C297.781 296.991 297.418 295.355 296.691 294.083C296.509 293.719 296.145 293.719 295.782 293.901C295.418 294.083 295.418 294.447 295.6 294.81C295.418 294.992 295.6 295.355 295.782 295.719Z" fill="white"/>
<path d="M303.601 211.929C303.238 210.475 302.692 209.202 302.147 207.93C302.874 209.021 303.42 210.475 303.601 211.929ZM241.063 289.176V288.994C241.063 288.812 241.063 288.63 241.063 288.449H241.245C241.245 288.994 241.245 289.721 241.427 290.266C241.245 290.266 241.245 290.266 241.063 290.084C241.245 289.721 241.245 289.539 241.063 289.176ZM229.428 277.725C226.156 278.088 222.884 278.088 219.611 277.907C218.339 277.907 216.884 277.725 215.612 277.361C216.339 277.543 216.884 277.543 217.612 277.543C219.793 277.725 221.793 277.725 223.974 277.725C225.792 277.725 227.61 277.543 229.428 277.725ZM205.977 215.2C206.704 210.475 208.522 206.658 212.339 203.75C217.975 201.205 224.52 202.296 230.519 203.023C231.61 203.204 232.701 203.204 233.973 203.386C238.7 204.295 243.427 204.659 248.153 204.84C248.517 204.84 248.881 204.659 249.062 204.477C250.517 204.477 252.153 204.477 253.607 204.659C255.971 204.659 258.516 204.659 260.879 204.477C262.697 204.477 264.515 204.477 266.333 204.477C268.333 204.477 270.333 204.113 272.151 203.931C273.605 203.75 275.059 203.75 276.514 203.568C280.331 203.386 284.149 203.204 287.967 203.386C290.33 203.568 292.875 203.568 295.239 204.113C303.238 207.93 302.511 220.653 302.329 228.105C302.147 238.102 301.238 248.644 297.966 258.277C296.33 263.184 293.784 267.91 290.148 271.363C285.967 274.09 281.24 275.362 276.15 276.271C271.969 276.816 267.787 277.18 263.424 277.18C260.152 276.634 256.88 276.089 253.607 275.726C251.062 275.544 248.699 275.362 246.154 275.362C244.517 275.362 242.336 275.362 240.7 276.089C240.518 276.089 240.336 276.271 240.154 276.271C238.518 277.18 238.155 278.452 238.155 280.269C238.155 281.36 238.155 282.451 238.336 283.359C237.791 282.814 237.246 282.087 236.7 281.542C235.609 280.088 234.7 278.452 233.428 276.998C232.337 275.726 230.701 275.726 229.065 275.726C226.883 275.726 224.52 275.544 222.338 275.544C218.702 275.544 214.339 275.907 211.067 273.726C209.794 272.999 208.885 271.727 208.158 270.636C208.158 270.636 208.158 270.455 207.976 270.455C207.249 268.637 206.704 267.001 206.158 265.184C205.068 261.367 204.34 257.368 204.159 253.369C204.159 253.188 204.159 253.006 203.977 252.824C203.977 252.461 203.977 252.097 203.977 251.552C203.795 246.463 203.795 241.555 203.795 236.466C204.34 233.194 204.704 229.923 204.886 226.651C205.068 224.47 204.886 221.925 205.068 219.381C205.613 217.745 205.613 216.473 205.977 215.2ZM201.068 253.006C201.068 254.278 201.068 255.369 201.068 256.641C200.886 260.821 200.886 265.002 202.159 269.001C202.704 271 203.795 272.817 205.068 274.635C205.977 276.998 207.249 279.179 209.613 280.633C214.521 283.905 221.248 282.632 226.701 282.269C229.61 282.087 231.61 282.996 233.428 284.813C234.7 286.267 235.973 287.722 237.246 289.176C238.7 290.811 241.063 293.538 243.427 291.902C243.972 291.538 243.972 291.175 243.972 290.63C243.427 287.176 242.881 281.905 246.517 279.724C248.153 278.815 250.153 279.179 251.789 279.361C253.789 279.542 255.607 279.724 257.607 279.906C261.97 280.088 266.333 279.906 270.696 279.542C276.15 279.906 281.604 279.361 286.513 276.634C287.058 276.271 287.603 275.907 288.149 275.544C291.603 274.271 294.693 272.817 297.239 270.455C301.602 266.456 303.238 260.276 304.329 254.642C305.783 247.371 306.874 240.101 307.601 232.831C308.328 225.924 308.51 218.654 306.692 211.929C305.056 205.749 301.783 200.842 295.239 199.206C288.512 197.57 281.604 199.751 274.878 200.842C274.696 200.842 274.332 200.842 274.15 201.023C269.787 201.387 265.606 201.569 261.243 201.75C256.698 201.75 252.335 201.387 247.972 201.023C242.154 200.66 236.518 200.115 230.701 199.751C230.519 199.751 230.337 199.751 230.156 199.569C225.429 198.297 220.52 197.025 215.612 197.752C206.522 199.388 204.159 207.748 203.613 215.564C203.068 219.017 202.704 222.652 202.522 225.924C202.522 226.469 202.522 226.833 202.341 227.378C202.159 227.56 201.977 227.923 201.977 228.287C201.977 229.196 201.977 230.286 201.977 231.195C201.795 234.648 201.432 237.92 201.432 241.373C200.886 245.554 200.704 249.189 201.068 253.006Z" fill="white"/>
<path d="M108.713 289.539C110.167 290.811 111.258 292.265 112.531 293.719C110.894 292.992 109.804 291.357 108.713 289.539ZM94.7145 203.386C97.2596 203.204 99.8048 203.023 102.168 202.841C102.714 202.841 103.259 202.841 103.623 203.023C107.986 203.386 112.167 203.568 116.53 203.75C125.256 204.113 133.983 204.295 142.891 204.113C151.435 204.113 160.161 203.386 168.706 203.568C175.978 203.75 183.613 205.204 189.067 210.293C192.339 214.655 193.248 220.108 193.612 225.561C193.976 232.104 194.157 238.647 193.612 245.19C193.248 251.915 192.339 258.64 191.067 265.365C189.976 270.818 189.431 278.27 183.795 280.815C181.25 282.087 178.159 282.087 175.432 282.269C174.705 282.269 173.796 282.269 173.069 282.269C168.16 282.087 163.07 281.178 158.343 280.996C148.708 280.451 139.255 280.996 129.801 282.269C129.438 282.269 128.892 282.451 128.529 282.451C126.165 282.451 123.802 282.632 121.62 283.541C121.439 283.541 121.439 283.723 121.257 283.723C119.802 284.086 118.348 284.45 117.076 285.177C115.258 286.449 114.349 288.267 113.621 290.266C112.349 289.539 111.44 288.449 110.349 287.358C109.076 285.904 107.622 284.813 105.804 284.086C103.986 283.359 101.805 283.359 99.8048 283.178C97.2597 282.996 94.8963 282.996 92.3511 282.814C91.9875 282.814 91.8058 282.996 91.624 282.996C90.1696 282.996 88.7152 282.632 87.4426 281.905C85.4429 280.633 84.7157 278.088 84.3521 275.907C83.4431 270.818 83.4431 265.365 83.0795 260.276C82.7159 255.005 82.5341 249.552 82.3523 244.282C82.3523 237.375 82.3523 230.468 82.3523 223.561C82.3523 217.927 81.8069 210.475 85.2611 206.113C87.988 204.113 91.4422 203.568 94.7145 203.386ZM80.1708 279.906C80.7161 282.814 81.6251 284.632 84.5339 285.54C87.8062 286.631 91.2604 287.358 94.7145 287.54C96.5325 287.721 98.3504 287.54 100.168 287.176C101.805 286.813 103.077 286.449 104.532 287.54C107.804 290.084 108.349 294.992 112.712 296.264C112.894 296.264 113.076 296.264 113.258 296.264C113.803 296.446 114.53 296.264 114.712 295.537C115.621 292.811 116.53 289.903 118.53 287.721C119.439 286.631 120.53 285.904 121.802 285.359C123.802 284.995 125.802 284.632 127.983 284.268C134.892 284.086 141.8 284.268 148.708 284.086C155.98 284.086 163.07 284.086 170.342 283.905C171.978 283.905 173.796 283.905 175.614 283.905C179.432 283.905 183.25 283.359 186.885 281.723C189.794 280.451 192.158 278.27 193.067 275.18C193.612 273.363 193.612 271.545 193.794 269.546C194.157 267.001 194.521 264.457 194.885 261.912C196.157 253.188 197.793 244.282 198.157 235.375C198.52 227.742 198.339 218.472 193.976 211.747C192.885 210.111 191.794 208.839 190.34 207.567C187.613 204.113 183.977 201.569 179.977 200.115C173.978 197.933 166.888 198.842 160.707 198.842L117.621 199.569C112.349 199.569 107.077 199.569 101.805 199.751C98.3504 199.569 94.8963 199.388 91.624 199.751C91.4422 199.569 91.2604 199.569 90.8968 199.569C87.6244 200.115 85.2611 201.75 83.6249 203.931C83.0795 204.477 82.5341 205.022 81.9887 205.749C78.5346 210.838 78.8982 217.745 78.8982 223.561C78.8982 230.65 78.7164 237.738 78.7164 244.827C78.7164 252.642 78.3528 260.458 78.8982 268.273C79.2618 272.999 79.6254 276.453 80.1708 279.906Z" fill="white"/>
<path d="M315.78 276.998C315.598 276.998 315.598 277.18 315.416 277.18C307.962 276.634 300.509 277.18 293.419 278.997C289.783 279.542 286.329 280.451 282.875 281.905C276.875 284.268 271.603 287.54 267.422 292.265C266.876 292.811 266.513 293.356 265.967 293.901C262.331 297.718 259.786 302.262 259.241 307.533C259.241 307.715 259.241 307.897 259.423 308.078C258.877 308.624 258.877 309.714 259.786 310.078C260.695 310.441 261.604 310.441 262.513 310.623C262.513 310.805 262.695 310.986 262.695 311.168C262.513 311.713 262.877 311.895 263.422 312.077C264.331 312.986 265.422 313.531 266.695 313.349C266.695 315.53 266.695 317.53 266.695 319.711C266.695 321.71 266.331 324.255 267.422 326.072C267.967 327.345 268.694 327.89 268.331 329.344C267.967 330.616 267.785 332.07 267.422 333.343C266.876 336.069 266.149 338.795 265.604 341.703C265.422 342.249 265.786 342.976 266.331 343.157C269.422 343.884 272.694 344.43 275.966 344.43H276.148C276.693 344.975 277.239 345.52 277.784 346.247C278.148 346.793 278.33 347.338 278.33 347.883C277.966 350.609 277.784 353.518 279.057 356.062C279.784 357.516 281.057 358.607 282.511 359.152C278.148 359.152 273.966 360.243 270.331 362.242C266.149 364.423 263.24 367.876 260.15 371.33C253.787 378.782 247.606 386.416 241.425 394.049C236.335 387.688 231.062 381.69 225.609 375.692C225.427 375.51 225.063 375.328 224.881 375.328C224.154 373.511 223.427 371.875 222.7 370.057C221.245 366.604 219.609 363.332 217.246 360.424C214.883 357.698 211.792 355.699 208.338 355.153C204.52 354.426 200.521 354.972 196.703 354.972C194.158 352.791 191.613 350.609 189.249 348.428C187.249 346.611 185.068 344.43 182.341 343.521C179.614 342.612 176.342 342.976 173.433 342.976C170.888 342.976 168.343 342.976 165.797 342.976C164.888 335.342 162.707 328.072 159.253 321.165C159.071 318.257 159.253 315.53 157.98 312.804C157.071 310.805 155.617 309.169 154.526 307.351C154.162 306.624 153.799 306.079 153.435 305.352C153.617 305.17 153.617 304.807 153.617 304.443C153.072 301.899 152.526 298.99 150.526 297.173C147.981 294.81 144.527 295.719 141.437 295.901C137.437 295.901 133.801 294.628 129.802 294.81C127.438 294.81 125.075 295.719 123.621 297.536C122.348 297.536 120.894 297.9 119.621 298.445C117.803 299.354 116.894 300.99 115.803 302.626C114.531 304.625 112.713 306.079 110.895 307.351C109.259 308.442 107.077 309.351 106.168 311.168C105.259 312.986 106.168 315.167 106.168 317.166C106.168 319.711 105.441 322.437 105.077 324.982C104.532 328.617 104.895 332.616 107.441 335.342C106.35 336.614 105.804 338.25 105.986 339.886C106.35 342.976 108.531 345.884 110.168 348.428C111.077 349.882 111.986 351.337 112.895 352.791C113.622 353.881 114.531 354.972 115.803 355.517C118.167 356.426 120.166 355.335 121.803 353.881C122.166 354.608 122.348 355.335 122.712 356.244C122.53 356.244 122.166 356.426 121.984 356.789C119.439 360.788 116.712 364.605 114.167 368.603C113.622 369.512 112.895 370.421 112.349 371.33C111.804 372.057 111.258 373.147 110.531 373.693C108.895 374.783 106.35 373.693 104.532 373.693C98.5326 374.056 97.0782 381.508 91.6243 382.599C90.8971 380.963 90.7153 376.964 90.7153 376.601C90.7153 374.601 90.7153 372.42 89.9881 370.421C89.4427 368.603 88.5337 366.968 86.3522 367.149C84.1706 367.149 82.3526 368.603 81.4437 370.421C79.0803 374.42 79.4439 379.872 80.1711 384.235C80.7165 387.688 81.4437 391.141 81.6255 394.595C81.2619 396.594 80.1711 398.412 79.0803 400.229C77.2623 402.956 75.4444 405.682 73.6264 408.226V196.661H316.507V276.998H315.78ZM315.78 279.724C315.78 279.724 315.598 279.724 315.78 279.724C315.598 279.724 315.78 279.542 315.78 279.724ZM299.418 280.815C299.6 280.815 299.782 280.815 299.782 280.815C299.782 280.815 299.6 280.815 299.418 280.815ZM315.78 291.538V291.72V340.613C314.689 339.522 313.598 338.432 312.689 337.159C311.417 335.524 310.508 333.706 309.599 331.889C308.69 330.253 307.781 328.617 306.326 327.163C305.781 326.618 305.235 326.254 304.508 325.891C303.054 323.346 300.509 321.165 297.418 321.528C295.782 321.71 294.509 322.619 293.419 323.891C293.419 323.891 293.419 323.891 293.237 323.891C292.328 324.618 291.964 325.345 291.783 326.436C291.783 326.618 291.601 326.799 291.601 326.799C290.692 328.98 290.146 332.252 287.965 333.524C287.783 333.524 287.601 333.706 287.419 333.706H287.238C286.147 328.617 285.056 323.346 283.602 318.438C282.147 313.895 277.784 313.895 273.966 314.803C274.148 313.531 273.966 312.077 273.057 310.986C272.33 310.259 271.421 309.896 270.512 310.078C270.331 308.805 269.967 307.17 268.694 306.988C268.149 306.806 267.604 307.17 267.058 307.351C266.331 307.715 265.604 308.078 264.877 308.442C264.877 308.26 264.877 308.078 264.877 307.897C264.877 307.715 264.877 307.533 265.058 307.533C265.058 307.17 264.877 306.806 264.513 306.624C264.149 305.897 263.786 305.534 263.059 305.352C263.604 304.08 264.149 302.807 264.877 301.535C271.239 293.356 280.148 287.54 290.146 284.632C290.874 285.359 291.783 286.086 292.51 286.631C292.692 286.813 293.237 286.994 293.419 286.631C293.6 286.449 293.782 285.904 293.419 285.722C292.873 285.177 292.146 284.632 291.601 284.086C296.873 282.632 302.509 281.905 308.144 282.087C308.69 282.269 309.235 282.269 309.599 282.451C309.599 282.451 309.599 282.451 309.78 282.451C310.508 282.814 311.417 283.178 312.144 283.723C312.144 283.905 311.962 284.086 311.962 284.45C311.598 285.359 313.053 285.722 313.235 284.813C313.416 284.45 313.416 284.086 313.598 283.723C314.325 283.905 315.053 283.905 315.78 283.905V291.538V291.538ZM285.601 334.797C285.601 334.978 285.783 335.16 285.965 335.342H285.783C285.783 335.16 285.783 334.978 285.601 334.797ZM270.876 312.077C271.24 311.895 271.421 311.895 271.603 312.077C271.421 312.077 271.24 312.077 270.876 312.077ZM274.148 341.885C274.148 341.885 274.148 342.067 274.148 341.885C273.785 342.067 273.239 341.885 272.876 341.885C273.239 341.885 273.603 341.885 274.148 341.885ZM273.421 340.613C272.876 340.613 272.148 340.613 271.603 340.613C272.148 340.613 272.876 340.613 273.421 340.613ZM272.876 338.977C272.876 338.977 272.876 339.159 272.876 338.977L272.694 339.159C271.785 339.159 270.876 339.159 269.967 339.341C270.512 336.069 271.058 332.616 271.967 329.344C272.148 329.526 272.148 329.707 272.33 330.071C272.33 330.253 272.33 330.253 272.33 330.434C273.239 331.888 272.694 333.706 272.512 335.342C272.512 336.614 272.512 337.886 272.876 338.977ZM279.239 345.884C278.693 344.975 277.966 344.066 277.421 343.157C277.966 343.703 278.511 344.248 278.875 344.975C279.42 345.702 279.602 346.611 279.784 347.338L279.602 347.156C279.602 347.156 279.602 346.974 279.42 346.974C279.42 346.793 279.239 346.611 279.239 346.429C279.42 346.247 279.42 346.066 279.239 345.884ZM315.78 364.605C315.78 364.605 315.598 364.605 315.598 364.787C315.234 365.15 314.871 365.514 314.507 366.059C314.325 366.059 314.325 366.241 314.144 366.422C314.144 366.604 313.962 366.604 313.962 366.786C313.598 367.149 313.053 367.695 312.507 368.058C310.871 369.149 308.871 369.876 306.872 370.057C306.872 369.512 306.508 368.967 306.326 368.603C305.963 367.695 305.599 366.786 305.235 365.877C304.508 364.06 303.781 362.242 302.872 360.424C302.145 358.97 301.236 357.88 299.782 357.516C298.145 357.153 296.327 357.516 294.873 357.88C291.419 358.607 286.692 360.424 283.602 357.516C281.966 355.88 281.42 353.518 281.42 351.155C281.966 348.61 281.42 346.066 279.784 344.066C278.511 342.43 276.693 341.34 276.148 339.159C275.784 337.159 276.33 335.16 276.148 333.343C275.784 329.889 272.876 328.435 271.603 325.527C270.694 323.528 271.058 320.983 271.058 318.802C271.058 317.166 271.058 315.712 271.058 314.076C271.24 314.076 271.421 314.076 271.603 314.076C271.785 315.167 271.967 316.076 272.33 317.166C272.33 317.53 272.694 317.711 273.057 317.711H273.239C273.421 317.711 273.421 317.711 273.603 317.711C273.603 317.711 273.603 317.711 273.785 317.711C275.784 317.711 277.602 317.893 279.42 318.438C280.875 318.802 281.057 319.529 281.42 320.801C281.602 321.892 281.966 322.982 282.147 324.255C283.056 328.072 283.783 332.07 284.692 335.887C284.692 336.069 284.692 336.069 284.692 336.251C284.692 336.614 284.874 336.796 284.874 337.159C284.874 337.341 285.056 337.523 285.238 337.523C285.238 337.523 285.238 337.523 285.42 337.523C285.42 337.523 285.42 337.523 285.601 337.523C285.965 337.523 286.147 337.523 286.51 337.341C286.692 337.523 286.874 337.705 287.056 337.705C287.419 337.705 287.783 337.705 287.965 337.523C288.147 337.523 288.328 337.523 288.51 337.341C289.965 336.978 291.237 336.432 291.964 334.978C293.237 333.161 293.601 331.161 293.964 329.162C293.964 328.98 294.146 328.617 294.146 328.435C294.509 327.708 294.873 326.799 295.418 326.072C295.782 325.527 296.146 325.345 296.691 324.982C297.964 324.8 299.418 325.163 300.509 326.072C301.781 327.163 302.327 329.162 303.054 330.616C303.599 331.888 304.508 334.251 303.599 335.705C303.236 336.251 302.509 336.614 301.781 336.432C300.145 336.251 298.873 335.524 297.236 335.887C295.964 336.251 296.327 337.886 297.418 338.068C297.6 338.25 297.964 338.25 298.145 338.068C298.145 338.068 298.145 338.068 298.327 338.068C299.236 338.977 300.509 338.977 301.6 338.614C301.963 338.614 302.145 338.614 302.509 338.614C303.963 338.432 305.054 337.523 305.963 336.432C306.69 335.342 306.872 334.251 306.872 332.979C307.781 334.07 308.508 335.16 309.417 336.251C310.508 337.523 311.417 338.977 312.507 340.249C312.689 340.431 312.871 340.795 313.053 340.976C313.962 342.067 314.871 343.157 315.962 344.066C316.143 344.248 316.143 344.248 316.325 344.248V364.605H315.78ZM306.144 371.148L306.326 371.33C306.326 371.33 306.326 371.33 306.144 371.512C306.326 371.33 306.144 371.33 306.144 371.148ZM315.78 393.141C315.053 394.231 314.325 395.14 313.598 396.231C313.235 396.231 312.871 396.594 312.871 396.958C312.689 397.503 312.507 398.048 312.326 398.412C311.235 400.411 310.326 402.41 309.599 404.591C309.235 406.045 308.871 407.499 308.69 408.953C308.69 409.135 308.508 409.499 308.508 409.681C307.781 412.043 306.326 414.77 306.326 417.496C306.144 417.678 306.145 418.041 305.963 418.223C305.781 418.405 305.781 418.768 305.781 418.95H267.967C269.058 414.043 270.512 409.317 272.33 404.773C275.603 398.23 279.057 391.868 282.875 385.689C282.875 385.507 282.874 385.507 283.056 385.325C284.147 383.871 285.238 382.235 286.329 380.781C287.783 378.964 289.237 377.146 290.692 375.51C291.783 374.056 292.51 372.602 292.873 370.966C292.873 370.785 293.055 370.603 293.055 370.603C293.237 370.239 293.237 369.876 293.055 369.694V369.512C293.782 366.604 294.328 363.514 295.055 360.606C295.237 360.606 295.418 360.606 295.782 360.606C295.964 360.788 296.146 360.788 296.327 360.788C296.509 360.788 296.873 360.788 297.055 360.788C299.054 361.333 300.691 362.605 301.6 364.423C302.145 365.695 302.509 367.149 302.872 368.603C303.236 369.876 303.781 371.33 304.326 372.602C304.872 373.693 305.236 374.965 306.69 375.147C307.962 375.328 309.053 374.238 309.962 373.693C311.598 372.42 313.053 371.148 314.507 369.694C314.689 369.694 314.689 369.512 314.871 369.512C315.053 369.33 315.053 369.33 315.053 369.149C315.234 368.785 315.598 368.603 315.78 368.24L315.962 368.058V393.141H315.78ZM315.78 419.132H309.417C310.144 414.406 311.235 409.681 312.689 404.955C313.78 402.592 314.871 400.229 315.78 397.866V419.132ZM266.513 418.95H265.24C266.149 417.133 266.876 415.315 267.785 413.497C267.24 415.497 266.876 417.133 266.513 418.95ZM268.694 365.695C269.058 365.332 269.422 365.15 269.785 364.968C269.785 364.968 269.967 364.787 270.149 364.787C270.149 364.787 270.149 364.787 270.149 364.968C269.603 365.15 269.058 365.514 268.694 365.695C268.694 365.877 268.694 365.877 268.694 365.695ZM262.877 419.132H259.968C262.513 400.956 271.967 384.598 277.421 367.331C277.784 365.877 275.603 365.332 275.239 366.786C269.603 384.416 260.332 400.774 257.605 419.314H211.247C216.7 415.315 222.154 411.498 227.79 408.045C231.244 405.864 234.88 403.683 238.334 401.683C238.516 401.683 238.698 401.501 238.88 401.32C241.97 399.502 245.243 398.048 248.151 395.685C250.878 393.322 252.878 390.414 255.06 387.506C257.787 383.871 260.513 380.418 263.24 376.964C265.967 373.693 268.513 370.421 271.421 367.149C271.785 366.604 272.33 366.059 272.876 365.695C273.239 365.514 273.421 365.15 273.785 364.968C273.966 364.787 274.148 364.605 274.148 364.423C276.33 363.332 279.057 362.969 281.42 362.605C283.056 362.424 284.874 362.242 286.51 362.06C287.419 362.06 288.147 361.878 289.056 361.878C289.419 361.878 289.783 361.878 290.328 361.697C290.51 361.697 290.874 361.697 291.055 361.697C291.237 361.697 291.419 361.697 291.419 361.697C291.419 361.697 291.419 361.878 291.601 361.878C291.237 363.696 290.874 365.514 290.51 367.331C290.328 368.24 289.965 369.33 289.783 370.239C289.601 370.785 289.601 371.148 289.419 371.693V371.875C289.237 372.057 289.056 372.42 289.056 372.602C288.874 372.784 288.874 372.966 288.692 373.147C279.057 387.87 267.058 401.501 262.877 418.95C262.877 418.95 262.877 418.95 262.877 419.132ZM234.88 389.869C235.062 390.051 235.062 390.233 235.244 390.233C235.244 390.233 235.062 390.051 234.88 389.869ZM224.518 382.962C224.518 382.962 224.7 382.962 224.518 382.962C224.7 382.962 224.7 382.962 224.518 382.962ZM218.7 371.33C219.246 372.966 219.973 374.783 220.7 376.419C217.973 370.603 215.61 364.423 210.883 360.061C211.61 360.606 212.156 361.151 212.701 361.878C215.246 364.787 217.064 368.058 218.7 371.33ZM223.609 381.872C223.063 381.508 222.882 380.963 222.518 380.418C222.154 379.691 221.791 379.145 221.609 378.418C221.973 379.327 222.518 380.054 223.063 380.963C223.245 381.326 223.427 381.69 223.609 381.872ZM223.609 378.964C222.7 376.964 221.973 374.965 221.064 372.966C220.518 371.693 219.973 370.421 219.427 369.149C218.882 367.513 218.155 366.059 217.428 364.605C218.882 366.786 219.791 369.149 220.882 371.512C221.609 374.056 222.518 376.601 223.609 378.964ZM210.338 415.86C210.338 415.679 210.156 415.679 210.156 415.497C209.974 414.77 209.792 413.861 209.61 412.952C209.61 411.68 209.61 410.408 209.61 409.317C209.792 408.045 209.974 406.772 209.974 405.5C210.338 401.138 211.065 396.958 212.156 392.595C212.337 392.05 211.792 391.687 211.428 391.687C211.065 391.687 210.519 391.868 210.519 392.232C210.338 394.776 209.247 397.139 208.52 399.502C207.611 401.865 206.883 404.228 206.156 406.772C205.065 410.771 204.338 414.951 203.975 419.132H183.25C183.977 415.86 184.704 412.77 185.613 409.499C187.249 403.137 190.158 397.503 192.703 391.505C197.066 381.145 198.521 369.512 196.703 358.425C199.43 358.425 201.975 358.425 204.702 358.607C205.429 358.607 206.338 358.607 207.065 358.789C215.428 364.059 217.246 373.874 221.791 381.872C222.336 382.78 223.063 383.507 223.791 384.235L223.972 384.416C225.972 386.234 228.699 387.324 230.699 389.324C233.426 392.05 235.426 395.685 236.153 399.502C231.244 402.047 226.336 404.41 221.791 407.499C217.791 410.226 214.155 413.316 210.701 416.587C210.519 416.406 210.338 416.042 210.338 415.86ZM208.338 409.681C208.338 410.589 208.338 411.68 208.338 412.589C208.338 412.77 208.338 412.952 208.338 413.316C208.338 413.316 208.338 413.316 208.156 413.316C208.156 412.77 207.974 412.589 207.611 412.589C207.792 411.316 208.156 410.044 208.338 408.772C208.338 408.953 208.338 409.317 208.338 409.681ZM187.613 399.32C186.34 402.41 185.25 405.5 184.341 408.772C184.341 408.408 184.522 408.045 184.522 407.681C185.068 405.137 186.159 402.592 187.249 400.229C187.431 400.047 187.431 399.866 187.431 399.684C187.431 399.684 187.431 399.502 187.613 399.32ZM182.704 346.611C184.704 347.701 186.34 349.519 187.977 350.973C188.886 351.7 189.613 352.427 190.522 353.154C189.613 352.609 188.886 352.064 187.977 351.518C186.34 349.882 184.704 347.883 182.704 346.611ZM170.888 346.247C171.251 346.247 171.615 346.247 171.978 346.247C173.251 346.247 174.524 346.247 175.978 346.247C175.978 346.247 175.978 346.429 175.796 346.429C174.524 346.429 173.433 346.429 172.16 346.247C171.797 346.247 171.433 346.247 170.888 346.247ZM170.706 369.33V369.149V368.967C170.888 368.967 170.888 369.149 170.706 369.33C170.888 369.33 170.888 369.33 170.706 369.33ZM181.432 412.77C181.068 414.77 180.887 416.951 180.523 419.132H156.526C156.162 416.224 155.617 413.497 154.89 410.771C154.89 410.589 154.708 410.408 154.708 410.226C154.344 408.953 153.981 407.681 153.617 406.409C152.89 404.046 151.981 401.683 151.254 399.139C150.163 394.958 150.708 389.869 150.708 385.507C150.708 385.143 150.708 384.962 150.708 384.598C150.708 384.053 150.708 383.507 150.89 382.962C151.072 382.78 151.254 382.417 151.072 382.235C151.072 382.053 150.89 381.872 150.89 381.69C150.89 381.508 150.89 381.145 150.89 380.963C151.254 378.782 151.617 376.601 151.981 374.42C152.163 373.693 152.344 372.966 152.708 372.239C153.435 371.148 154.526 371.875 155.435 372.42C156.889 373.147 158.162 374.238 159.434 375.328C160.707 376.419 161.616 377.691 162.525 378.782C163.252 379.691 164.343 380.054 165.07 378.782C166.161 377.328 166.888 375.692 167.979 374.238C168.888 373.147 169.797 372.239 170.888 371.148C170.888 386.779 170.888 402.41 170.888 418.041C170.888 418.95 172.16 418.95 172.342 418.041C173.796 400.593 173.069 383.144 172.342 365.695C172.524 365.695 172.706 365.514 172.706 365.332C172.887 365.15 172.887 364.968 172.706 364.787V364.605C172.706 364.241 172.524 363.878 172.342 363.696C172.16 362.787 171.797 362.06 171.615 361.151C171.251 359.516 170.888 358.062 170.706 356.426C170.16 353.336 169.797 350.246 169.433 347.338C170.16 347.338 170.706 347.52 171.433 347.52C172.887 347.52 174.524 347.701 175.978 347.701C176.523 347.701 177.251 347.701 177.978 347.701C180.341 348.428 182.523 350.064 183.795 352.245C183.977 352.609 184.341 352.609 184.522 352.609C185.431 354.063 187.068 354.972 188.704 355.699C190.522 356.426 192.521 357.153 193.794 358.789C194.158 361.151 194.339 363.332 194.521 365.695C194.521 366.241 194.521 366.604 194.521 367.149C194.703 376.237 192.703 385.325 188.886 393.504C187.613 396.049 186.34 398.775 185.25 401.32C183.613 404.773 182.159 408.59 181.432 412.77ZM133.438 419.132C133.438 418.95 133.438 418.95 133.438 419.132C133.438 418.768 133.438 418.587 133.256 418.587C133.438 409.681 133.619 400.774 133.983 392.05C135.983 390.233 137.255 387.506 137.619 384.78C137.619 384.053 137.619 383.326 137.619 382.78C137.619 382.599 137.801 382.417 137.619 382.235C137.619 382.053 137.437 381.69 137.437 381.508C137.437 381.145 137.437 380.781 137.437 380.418C137.437 379.691 137.619 378.964 138.164 378.6C138.528 378.6 138.891 378.418 139.255 378.6C139.437 378.6 139.437 378.6 139.619 378.6C139.8 378.964 140.164 378.964 140.346 378.964C141.437 379.509 142.527 380.418 143.255 380.963C144.164 381.69 145.073 382.599 145.982 383.508C146.709 384.235 147.254 384.962 147.981 385.689C147.799 387.143 147.618 388.415 147.618 389.869C147.254 393.686 146.891 396.594 148.345 400.229C150.89 406.409 152.526 412.77 153.253 419.314H133.438V419.132ZM132.165 408.953C131.801 403.137 132.165 397.321 132.529 391.505C132.529 397.321 132.347 403.137 132.165 408.953ZM148.708 378.964C148.89 378.964 148.89 379.145 148.708 378.964C148.89 378.964 148.89 378.782 148.708 378.964C148.89 378.782 148.89 378.782 148.89 378.964C148.89 379.145 148.89 379.145 148.89 379.327C148.89 379.145 148.89 379.145 148.708 378.964C148.89 378.964 148.89 378.964 148.708 378.964ZM132.529 384.962C132.165 384.053 131.62 383.144 131.256 382.235C131.801 382.962 132.165 383.689 132.529 384.416C132.529 384.598 132.529 384.78 132.529 384.962ZM134.347 389.142C134.165 389.324 134.165 389.505 133.983 389.687C133.983 389.505 133.983 389.324 133.983 389.142C134.165 388.96 134.165 389.142 134.347 389.142ZM135.437 377.691C135.074 378.782 135.074 380.054 135.074 381.145C135.256 381.872 135.256 382.599 135.256 383.326C134.892 384.598 134.528 385.87 133.983 387.143C133.801 386.597 133.801 385.87 133.801 385.325C133.801 384.598 133.438 383.871 133.256 383.326C132.529 381.69 131.256 380.599 130.347 378.964C129.256 376.782 129.983 374.42 130.165 372.239C130.529 370.057 130.347 367.876 130.165 365.514C132.347 367.331 134.71 368.967 137.255 370.421C139.619 372.057 141.982 373.874 144.345 375.51C144.891 375.874 145.254 376.419 145.8 376.964C146.163 377.328 146.527 378.055 147.072 378.418C147.436 379.327 148.163 380.236 148.89 380.963C148.89 381.145 148.89 381.326 148.89 381.69C147.981 380.781 147.072 380.054 146.163 379.327C145.254 378.6 144.164 377.873 143.255 377.146C142.346 376.601 141.618 375.874 140.709 375.328C139.437 374.601 136.528 374.056 135.801 375.874C135.256 376.419 135.437 377.146 135.437 377.691ZM132.347 361.878H132.165V361.697C132.165 361.697 132.165 361.697 132.347 361.878C132.347 361.878 132.347 361.697 132.347 361.878ZM154.162 366.241H154.344C154.344 366.422 154.344 366.604 154.162 366.786C154.344 366.422 154.344 366.241 154.162 366.241ZM167.979 370.966C167.797 371.148 167.797 371.148 167.615 371.33C167.615 371.148 167.797 370.966 167.797 370.785C167.797 370.785 167.797 370.785 167.979 370.966ZM170.342 365.15C170.342 365.332 170.16 365.514 170.16 365.695C169.979 365.695 169.615 365.695 169.433 366.059V366.241C169.252 366.241 169.252 366.422 169.07 366.422C169.252 365.877 169.797 365.332 170.342 365.15ZM166.888 367.513C165.616 370.603 164.707 373.693 164.161 376.964C161.071 374.238 158.162 368.785 153.617 369.512L153.799 368.785C153.799 368.967 153.981 369.33 154.344 369.33C154.708 369.33 155.071 369.149 155.253 368.785C155.435 368.058 155.617 367.149 155.799 366.422C155.799 366.241 155.799 366.059 155.617 365.877C156.526 365.695 157.435 365.332 158.162 364.787C159.798 363.514 160.707 361.697 161.252 359.879C161.98 357.334 161.98 354.79 161.98 352.245C161.98 350.791 161.98 349.155 161.98 347.701C163.616 347.701 165.252 347.883 167.07 347.883H167.252C167.979 353.154 169.07 358.425 170.342 363.696C168.524 364.06 167.615 365.877 166.888 367.513ZM152.89 311.713C153.072 311.713 153.072 311.713 152.89 311.713C153.072 311.713 153.072 311.895 153.253 311.895C153.253 311.895 153.072 311.713 152.89 311.713ZM149.799 302.989C149.799 303.171 149.981 303.353 149.981 303.716C149.981 303.534 149.799 303.534 149.799 303.353C149.799 303.171 149.799 302.989 149.799 302.989ZM149.254 300.081C149.436 300.263 149.617 300.626 149.799 300.808C149.799 300.99 149.617 300.99 149.617 301.172C149.436 300.808 149.436 300.445 149.254 300.081ZM119.439 301.535C120.348 300.808 121.439 300.263 122.53 300.081C122.712 300.263 122.712 300.263 122.893 300.263C122.53 300.445 122.166 300.626 121.803 300.626C121.075 300.99 120.166 300.99 119.439 301.535ZM108.895 334.07C107.259 332.434 106.895 330.253 106.713 328.072C106.895 329.526 107.441 330.98 107.986 332.252C108.168 332.797 108.531 333.343 108.895 334.07ZM107.986 327.163C107.622 324.618 108.713 322.801 109.259 320.438C109.622 318.62 109.077 316.984 109.077 315.167C109.077 311.35 113.985 310.805 115.985 308.26C116.894 307.17 117.439 305.897 118.167 304.625C118.712 303.898 119.076 303.171 119.985 302.626C121.075 301.899 122.166 302.08 123.439 301.535C124.893 300.99 125.802 300.081 126.893 299.172C128.893 297.536 130.892 297.173 133.438 297.718C137.073 298.445 140.164 299.536 143.8 299.354C144.709 299.354 145.8 299.172 146.709 299.354C148.163 299.899 148.163 301.353 148.527 302.626C148.708 304.08 149.436 305.534 150.163 306.806C150.89 307.897 151.617 308.987 152.526 310.259C151.981 310.259 151.435 310.441 150.89 310.441C149.072 310.078 147.254 310.078 145.436 310.259C143.618 310.441 141.618 310.623 139.8 310.986C138.346 311.35 137.255 312.077 135.983 312.804C133.256 313.168 130.711 313.531 127.984 314.076C125.984 314.44 124.166 314.803 122.348 315.894C114.167 321.165 121.621 331.525 121.984 338.614C121.621 338.614 121.257 338.432 120.894 338.068C120.53 337.705 120.166 337.886 119.985 338.068C118.894 337.705 117.621 337.341 116.53 336.978C114.712 336.251 112.349 335.887 111.077 334.433C111.077 333.888 110.895 333.524 110.349 333.343C109.077 331.888 108.168 329.526 107.986 327.163ZM107.622 312.804C108.168 311.35 110.895 310.078 112.167 309.351C113.258 308.624 114.349 307.715 115.44 306.806C114.531 308.078 113.44 309.169 111.804 309.896C110.349 310.623 108.895 311.532 108.168 312.986C107.986 313.349 107.804 313.713 107.804 314.258C107.622 313.713 107.441 313.168 107.622 312.804ZM107.986 318.62C107.986 318.438 107.986 318.257 107.986 318.075C107.986 318.257 107.986 318.62 107.986 318.62C108.168 319.711 107.804 320.801 107.622 321.71C107.622 320.801 107.804 319.711 107.986 318.62ZM116.894 353.518H116.712C116.712 353.518 116.712 353.518 116.894 353.518C116.712 353.518 116.712 353.518 116.894 353.518ZM115.258 350.064C115.076 349.519 114.894 348.974 114.712 348.428C114.349 347.52 113.803 346.429 113.44 345.52C112.349 343.521 111.077 341.885 109.622 340.249C109.259 338.613 109.259 336.614 111.44 337.341C111.622 337.341 111.804 337.341 111.804 337.341C111.986 337.341 112.167 337.523 112.349 337.523C115.258 338.613 118.53 340.068 121.621 340.613C123.257 340.976 124.166 340.431 124.166 338.795C124.348 336.251 123.075 333.343 122.348 330.98C121.439 327.526 120.712 324.073 121.439 320.438C121.439 320.438 121.621 320.438 121.621 320.256C123.802 317.893 126.529 316.257 129.802 315.894C131.074 315.712 132.347 315.894 133.801 315.712C134.71 315.53 135.619 314.985 136.528 314.622L138.164 314.44C141.255 313.895 144.527 313.531 147.618 312.986C152.163 313.531 153.981 318.075 155.253 322.437C155.617 325.527 156.344 328.435 157.617 331.161C159.071 334.251 160.707 336.796 160.889 340.249C160.889 341.703 160.889 343.157 160.889 344.611C160.889 344.975 160.889 345.157 160.889 345.52C160.889 346.974 160.707 348.247 160.707 349.701C160.525 352.791 160.343 355.88 159.616 358.789C158.526 362.242 156.708 364.241 153.253 364.787C151.799 364.968 150.345 365.15 148.89 364.968C148.708 364.787 148.527 364.605 148.345 364.605C146.527 364.423 144.709 364.241 142.891 363.696C141.073 363.332 139.437 362.605 137.801 361.878C136.528 361.151 134.892 360.424 133.438 360.424C132.71 360.424 131.983 360.606 131.62 361.151C131.438 361.333 131.438 361.515 131.438 361.697C131.074 361.878 131.074 362.787 131.62 362.969C137.982 365.332 144.709 366.604 151.617 366.604C152.344 366.604 153.072 366.604 153.799 366.604C153.617 367.513 153.435 368.422 153.253 369.33C153.253 369.512 153.253 369.876 153.435 370.057C153.253 370.057 153.253 370.057 153.072 370.239C151.617 370.966 151.072 372.057 150.89 373.511C150.526 374.601 150.345 375.692 150.345 376.782C150.163 376.964 150.163 377.146 149.981 377.328C149.799 377.146 149.799 377.146 149.617 377.146C149.617 377.146 149.617 377.146 149.436 377.146C148.345 376.237 147.072 375.51 145.982 374.601C145.436 374.238 145.073 373.693 144.527 373.329C142.709 371.875 140.891 370.785 138.891 369.512C137.619 368.603 136.346 367.695 135.256 366.786C133.801 365.695 132.165 364.605 130.711 363.332C129.62 362.242 128.711 361.151 128.165 359.697C127.62 358.425 126.529 353.699 124.893 351.155C124.529 350.246 124.166 349.155 123.257 348.974C121.621 348.428 120.712 350.246 119.803 351.155C117.621 352.427 115.985 351.518 115.258 350.064ZM131.074 412.043C131.074 413.861 131.074 415.679 131.074 417.314C131.074 417.86 131.074 418.405 131.074 419.132H123.439C123.257 418.95 123.075 418.95 122.893 418.95C122.712 418.768 122.712 418.768 122.53 418.768C122.53 418.587 122.53 418.587 122.348 418.405C122.166 418.223 122.166 418.041 121.984 417.86C121.984 417.678 121.803 417.678 121.803 417.678C121.621 417.314 121.257 416.769 121.075 416.406C120.53 415.497 119.985 414.588 119.439 413.497C118.348 411.498 117.439 409.681 116.53 407.681C116.167 406.772 115.621 405.5 115.076 404.591C115.076 404.41 115.076 404.41 114.894 404.41C114.531 403.864 114.349 403.501 113.803 403.137C113.44 402.774 112.895 402.592 112.531 402.592C114.712 401.138 116.894 399.502 118.712 397.685C120.894 396.049 122.893 394.049 124.348 391.868C125.257 390.778 125.802 389.324 125.438 387.87C125.257 386.779 124.53 385.87 123.439 385.507C123.621 384.962 123.621 384.416 123.621 383.689C123.439 382.78 122.712 381.872 121.803 381.69C120.712 381.508 119.621 382.053 118.712 382.78C118.348 383.144 117.985 383.326 117.621 383.689C117.076 382.78 116.167 382.235 115.076 382.417C113.985 382.599 113.258 383.326 112.349 383.871C111.44 384.598 110.531 385.507 109.622 386.416C107.804 388.233 106.168 390.051 104.35 391.505C103.441 392.232 102.35 393.141 100.896 393.141C99.8051 393.141 97.9872 392.05 99.2597 390.778C99.4415 390.596 99.4415 390.233 99.4415 390.051C101.078 388.597 102.532 387.143 104.168 385.689C105.077 384.78 106.168 383.871 107.077 382.962C107.622 382.417 108.35 381.872 108.168 380.963C108.168 380.599 107.986 380.418 107.986 380.054C108.713 379.872 109.44 379.509 109.804 379.327C110.895 378.782 111.986 378.237 112.895 377.691C114.894 376.419 116.53 374.601 117.621 372.602C118.894 370.421 119.621 367.876 120.712 365.514C121.257 364.423 121.803 363.514 122.348 362.605C122.53 362.424 122.53 362.242 122.712 362.242C123.439 361.515 124.348 360.788 125.257 360.606C125.62 361.333 126.166 362.06 126.529 362.787C126.893 363.332 127.438 363.696 127.802 364.241C127.802 364.423 127.62 364.423 127.62 364.605C127.984 368.785 127.802 372.966 127.256 377.146C126.893 377.328 126.711 377.51 126.893 377.873C126.893 378.055 127.075 378.237 127.075 378.418C127.075 378.6 127.075 378.6 127.256 378.782C128.347 381.326 129.438 383.871 130.711 386.416C130.529 386.597 130.529 386.779 130.529 386.961C130.347 387.324 130.711 387.688 130.892 387.688C130.892 395.503 130.165 403.683 131.074 412.043ZM120.712 419.132C120.712 418.95 120.712 418.95 120.53 418.768C120.348 418.587 120.166 418.223 119.985 418.041C119.985 417.678 119.803 417.496 119.439 417.314C118.894 416.406 118.348 415.679 117.985 414.77C118.712 416.042 119.621 417.314 120.53 418.587C120.712 418.768 120.712 418.95 120.894 419.132H120.712ZM104.714 419.132C104.895 419.132 105.077 418.95 105.077 418.768C105.259 418.768 105.259 418.587 105.441 418.587C105.623 418.95 106.168 419.132 106.532 418.768C106.532 418.768 106.532 418.587 106.713 418.587C107.986 416.951 108.895 415.133 109.259 413.134C109.44 412.225 109.804 411.316 109.804 410.408C109.986 409.681 109.986 408.772 109.804 408.045C110.531 407.499 111.258 407.136 111.986 406.591C112.167 407.318 112.531 407.863 112.895 408.59C113.803 411.135 114.712 413.861 115.803 416.406C116.167 417.314 116.53 418.041 116.894 418.95C116.894 419.132 117.076 419.132 117.076 419.314H104.714V419.132ZM85.2614 390.778C85.2614 391.687 85.2614 392.595 85.2614 393.686C85.2614 394.595 85.2614 395.322 85.2614 396.231C85.2614 396.049 85.2614 395.685 85.2614 395.503C85.2614 394.049 85.0796 392.414 85.0796 390.96C85.0796 390.778 85.0796 390.778 85.2614 390.778ZM99.078 408.045C98.3508 408.226 97.8054 408.226 97.0782 408.226C96.8964 407.863 96.351 407.863 96.1692 408.045C95.8056 407.863 95.2602 407.863 94.8966 407.499C93.6241 406.772 92.5333 405.864 91.6243 404.773C93.8059 406.409 96.351 407.863 99.078 407.681C99.078 407.863 99.078 407.863 99.078 408.045ZM102.714 408.045C102.714 408.226 102.714 408.226 102.714 408.226L102.532 408.045C102.532 408.226 102.532 408.045 102.714 408.045ZM109.259 404.41C109.259 404.41 109.077 404.591 109.259 404.41C109.077 404.591 109.077 404.591 109.077 404.591C109.077 404.591 109.077 404.41 109.259 404.41ZM99.9869 394.231H100.169C100.169 394.413 100.169 394.413 99.9869 394.231C99.9869 394.413 99.9869 394.413 99.9869 394.231ZM99.2597 394.049C99.2597 394.049 99.4415 394.049 99.4415 394.231C99.4415 394.049 99.2597 394.049 99.2597 394.049ZM98.3508 393.868C98.169 393.504 98.169 392.959 98.169 392.777C98.3508 393.141 98.7144 393.686 99.078 393.868H98.8962C98.5326 393.686 98.5326 393.868 98.3508 393.868C98.5326 393.868 98.5326 393.868 98.5326 393.868C98.3508 393.868 98.3508 393.868 98.3508 393.868ZM105.259 375.874C105.623 375.874 106.168 375.874 106.713 376.055C106.895 376.055 106.895 376.055 107.077 376.055C106.895 376.055 106.895 376.055 106.713 376.237C106.35 376.237 106.168 376.419 105.986 376.419C105.623 376.237 105.441 376.055 105.259 375.874ZM99.6233 378.418C100.169 377.873 100.896 377.146 101.441 376.782C102.35 376.237 103.259 375.874 104.168 375.874C102.532 376.419 101.078 377.328 99.6233 378.418ZM86.7158 370.966C86.8976 370.966 86.8976 370.785 87.0794 370.785C87.2612 371.33 87.443 372.057 87.6248 372.602C87.443 371.875 87.0794 371.33 86.7158 370.966ZM83.807 370.239C83.9888 370.057 83.9888 370.057 83.9888 370.057C83.807 370.239 83.807 370.239 83.807 370.239ZM83.9888 376.601C84.1706 375.692 84.1706 374.965 84.3524 374.056C84.3524 373.874 84.3524 373.874 84.3524 373.693C84.5342 373.329 84.716 373.147 85.2614 373.329C85.4432 373.329 85.4432 373.511 85.625 373.511C85.9886 374.42 86.1704 375.328 86.3522 376.237C86.3522 376.964 86.1704 377.691 86.1704 378.237C85.9886 380.599 87.0794 382.417 88.5337 384.235C89.2609 385.143 90.1699 386.234 91.0789 386.961C91.4425 387.143 91.6243 387.506 91.9879 387.688C91.6243 388.051 91.0789 388.415 90.7153 388.597C89.9881 389.142 90.7153 390.233 91.4425 389.687C95.2602 386.961 99.078 384.053 102.896 381.326C103.623 380.781 104.35 380.236 105.259 379.872C105.441 380.054 105.623 380.054 105.804 379.872H105.986C106.532 379.872 106.895 380.236 106.895 380.599C104.714 383.507 101.623 385.143 99.2597 387.87C98.7144 388.415 98.169 389.142 97.8054 390.051C97.0782 390.778 96.1692 391.323 95.6238 392.232C94.8966 393.322 95.2602 394.776 96.351 395.685C97.8054 396.776 99.6233 396.049 101.26 395.503C103.077 394.958 104.714 394.231 106.168 393.141C107.986 392.05 109.44 390.778 110.713 389.142C111.44 388.233 111.986 387.324 112.713 386.416C113.076 385.87 113.44 385.507 113.985 385.143C114.167 384.962 114.349 384.78 114.531 384.78C115.076 384.416 115.44 384.416 115.803 384.78C116.167 384.962 116.167 385.143 115.985 385.507C115.803 385.689 115.803 385.87 115.803 386.052C115.076 386.961 114.531 387.87 113.803 388.597C112.713 389.869 111.804 391.323 110.531 392.595C108.531 394.231 105.804 394.776 103.623 396.231C103.259 396.049 102.896 396.23 102.714 396.594C102.532 396.594 102.35 396.594 102.169 396.594C101.805 396.776 101.805 396.958 101.623 397.321C101.623 397.685 101.805 397.866 102.169 398.048C102.532 398.23 102.896 398.048 103.259 398.048H103.441C103.986 397.866 104.532 397.503 104.895 397.321C106.168 396.776 107.259 396.23 108.531 395.685C109.622 395.14 110.895 394.776 111.804 394.049C112.713 393.504 113.44 392.595 114.167 391.687C115.803 389.687 117.439 387.688 119.076 385.507C119.439 385.143 121.075 382.599 121.803 383.689C122.166 384.235 121.803 384.962 121.621 385.689C117.803 390.596 113.803 395.867 107.804 398.23C107.077 398.593 107.259 399.684 108.168 399.502C109.44 399.139 110.713 398.593 111.804 397.866C111.986 398.048 112.349 398.048 112.713 397.866C114.894 395.685 117.076 393.504 119.257 391.323C119.803 390.778 120.53 390.051 121.075 389.505C121.439 389.142 122.166 388.051 122.712 387.87C123.075 387.87 123.257 387.87 123.257 388.051V388.233C123.257 388.597 122.893 388.96 122.893 389.142C122.53 389.687 122.348 390.233 121.984 390.778C119.076 395.503 114.531 398.957 109.804 401.501C107.259 402.956 104.714 404.228 101.987 405.318C100.169 406.045 99.078 406.591 97.0782 405.864C95.8056 405.5 94.533 404.773 93.4423 404.046C91.4425 402.592 89.0791 400.774 87.6248 398.775C86.534 397.321 86.8976 395.14 86.8976 393.504C86.8976 391.687 86.8976 390.051 86.8976 388.233C87.0794 388.051 87.0794 387.688 86.8976 387.324C85.4432 385.87 84.5342 384.053 83.9888 382.053C83.9888 381.69 83.9888 381.508 83.9888 381.145C83.6252 379.691 83.807 378.055 83.9888 376.601ZM81.2619 377.328C81.2619 376.601 81.4437 375.874 81.4437 375.147C81.6255 374.42 81.8073 373.511 82.1709 372.602C81.8073 374.238 81.6255 375.874 81.2619 377.328ZM79.2621 404.228C79.6257 403.683 79.8075 403.137 80.1711 402.774C80.3529 402.592 80.5347 402.228 80.8983 402.047C80.7165 402.41 80.5347 402.774 80.3529 403.137C79.9893 403.501 79.8075 403.864 79.2621 404.228C79.4439 404.228 79.4439 404.228 79.2621 404.228ZM103.986 417.678C103.805 417.678 103.805 417.86 103.623 417.86C103.077 418.041 103.077 418.768 103.441 419.132H76.8987C77.2623 418.95 77.4441 418.768 77.6259 418.405C77.9895 416.769 78.3531 415.315 78.7167 413.679C79.0803 413.679 79.4439 413.497 79.6257 413.134C80.1711 408.772 81.8073 404.773 84.5342 401.32C84.716 400.956 84.716 400.593 84.3524 400.411C84.5342 400.229 84.5342 400.047 84.716 399.866C85.4432 401.138 86.534 402.228 87.8066 403.137C87.6248 403.137 87.6248 403.137 87.443 403.319C84.3524 406.772 82.898 411.498 83.2616 416.042C83.2616 416.587 83.807 416.769 84.3524 416.587C84.5342 416.951 84.8978 416.951 85.2614 416.769C85.8068 416.587 85.9886 416.042 85.9886 415.497C85.9886 415.315 85.8068 415.133 85.625 414.951C85.8068 413.316 85.9886 411.498 86.3522 409.862C86.534 408.772 86.8976 407.863 87.2612 406.954C87.443 406.227 87.8066 405.318 88.5337 405.137C88.8973 404.955 89.0791 404.773 89.0791 404.41L89.2609 404.591C89.8063 404.955 90.1699 405.5 90.7153 406.045L90.5335 406.227C88.7155 409.681 87.9883 413.497 88.3519 417.314C88.3519 418.223 89.8063 418.223 89.8063 417.314C89.6245 416.224 89.8063 414.951 89.8063 413.861C89.9881 415.315 90.3517 416.587 91.0789 417.86C91.4425 418.587 92.7151 417.86 92.1697 417.133C90.3517 414.043 90.5335 410.408 92.3515 407.318C93.4423 408.226 94.533 408.953 95.6238 409.317C94.8966 411.862 94.8966 414.588 95.8056 417.133C96.1692 418.041 97.26 417.678 97.0782 416.769C97.26 416.951 97.26 417.133 97.4418 417.133C98.169 417.86 99.4416 417.678 99.8051 416.587C100.169 415.86 98.8962 415.497 98.5326 416.042C98.5326 416.042 98.5326 416.042 98.5326 416.224V416.042L98.3508 415.86C98.169 415.679 97.9872 415.315 97.9872 414.951C97.8054 414.406 97.6236 413.861 97.6236 413.134C97.4418 411.862 97.6236 410.589 97.8054 409.317C99.078 409.317 100.351 408.772 101.623 408.226V408.408C101.623 410.044 101.623 411.68 101.623 413.316C101.623 414.043 101.441 414.77 101.987 415.315C102.168 415.497 102.35 415.679 102.532 415.679C102.714 415.86 102.896 416.042 103.077 416.042C103.441 416.042 103.623 415.679 103.805 415.497C104.714 414.406 105.077 412.952 105.259 411.68C105.441 410.589 105.259 409.317 105.077 408.226C105.259 408.045 105.441 407.863 105.623 407.863H105.804H105.986C106.168 407.681 106.532 407.681 106.713 407.499C106.895 407.681 107.077 407.681 107.441 407.499C107.622 407.499 107.622 407.318 107.804 407.318C107.986 407.863 107.986 408.59 107.804 409.135C107.804 409.862 107.804 410.771 107.622 411.498C107.441 413.134 106.895 415.315 105.804 416.587L105.623 416.769C105.623 416.769 105.441 416.769 105.441 416.951H105.259C104.35 416.769 103.986 417.314 103.986 417.678ZM74.5354 419.132H74.3536C74.3536 418.95 74.5354 418.95 74.5354 418.768C74.7172 418.768 74.7172 418.587 74.899 418.587C74.7172 418.768 74.7172 418.95 74.5354 419.132ZM73.081 416.406C73.081 416.587 72.8992 416.769 72.8992 416.951C72.8992 416.769 73.081 416.406 73.081 416.224C73.081 416.224 73.081 416.224 73.081 416.406ZM67.4453 191.208V424.585H154.708H157.071H179.978H182.159H321.234V191.208H67.4453Z" fill="white"/>
</svg>
