<svg width="284" height="52" viewBox="0 0 284 52" fill="none" xmlns="http://www.w3.org/2000/svg">
<g clip-path="url(#clip0_50_13514)">
<path d="M32.2173 27.8229C30.288 30.5092 27.3939 32.8118 23.9211 32.8118C20.2553 32.8118 17.1684 30.1255 16.2037 26.6716C14.2744 19.7638 24.307 9.01844 31.0597 13.6236C32.0244 14.1993 33.9537 13.4317 32.7961 12.2804C24.307 4.60516 10.4157 17.4612 12.5379 27.2472C13.5026 32.0443 18.1331 35.8819 22.7635 36.4576C27.9727 37.0332 33.7608 34.5387 36.2689 29.9336C37.6195 27.2472 33.5678 25.9041 32.2173 27.8229Z" fill="black"/>
<path d="M49.3884 31.2767C45.3368 32.428 42.6357 27.8229 42.6357 24.1771C42.6357 22.0664 43.2145 19.5719 44.3721 17.6531C44.758 16.8856 45.5297 16.1181 46.3015 15.3505C47.845 16.31 49.3884 16.6937 50.9319 17.845C52.4754 18.9963 53.4401 20.7232 54.0189 22.6421C54.9836 26.2878 52.8613 30.3173 49.3884 31.2767ZM54.2118 16.1181C53.633 15.5424 52.6683 14.7749 51.8966 14.1993C52.0895 13.8155 52.0895 13.4317 51.7037 13.048C47.2662 9.59409 42.2499 12.8561 40.1276 17.2694C37.8124 21.6826 37.6194 27.4391 41.0922 31.4686C47.652 39.1439 59.9999 32.0443 58.0705 22.4502C57.4917 19.9557 56.1412 17.845 54.2118 16.1181Z" fill="black"/>
<path d="M98.2045 8.82657C95.6963 9.5941 93.9599 12.2804 92.2235 14.1993C90.68 15.9262 89.1365 17.6531 87.5931 19.572C85.8566 19.3801 84.1202 19.572 82.1909 19.7638C81.9979 16.5018 81.805 13.4317 81.2262 10.1697C81.0333 9.01845 78.7181 9.21034 78.7181 10.3616C78.5251 14.3911 78.5251 18.4207 78.3322 22.4502C78.3322 24.5609 78.1393 26.4797 77.9463 28.5904C77.7534 30.5092 77.3675 32.428 77.9463 34.155C78.3322 35.69 80.6474 35.3063 81.2262 34.155C81.9979 32.428 81.805 30.3173 81.998 28.3985C82.1909 26.2878 82.1909 24.1771 82.1909 22.0664C84.1202 22.2583 86.0496 22.834 87.9789 23.0258C87.9789 23.0258 87.9789 23.0258 88.1719 23.0258C88.7507 24.9447 89.7153 26.8635 90.68 28.5904C91.6447 30.7011 92.2235 33.1956 94.7316 33.3875C95.1175 33.3875 95.6963 33.1956 95.8893 32.8118C95.8893 32.6199 96.0822 32.6199 96.0822 32.428C96.2751 32.0443 96.4681 31.4686 96.2751 31.0849C94.7317 27.8229 92.9952 24.369 90.68 21.6827C91.2588 21.107 91.6447 20.5314 92.2235 19.9557C93.574 18.4207 94.9246 16.8856 96.2751 15.3506C97.4327 14.0074 99.555 12.4723 99.9409 10.5535C100.52 9.21034 99.3621 8.44281 98.2045 8.82657Z" fill="black"/>
<path d="M110.934 16.31C112.478 18.9963 108.812 20.1476 106.497 20.1476C106.497 18.0369 106.497 15.9262 106.304 13.8155C108.233 14.3911 109.969 14.7749 110.934 16.31ZM113.635 26.6716C112.092 25.7122 110.548 24.5609 109.198 23.0258C112.285 22.2583 115.372 20.3395 114.793 16.8856C114.214 12.4723 109.005 10.9373 105.339 11.5129C105.146 11.5129 104.76 11.7048 104.76 11.8967C104.374 12.0885 103.988 12.2804 103.795 12.8561C103.217 16.5018 102.638 19.9557 102.445 23.6015C102.252 25.5203 100.709 31.8524 104.181 31.4686C105.532 31.2767 106.111 30.3173 106.111 29.166C106.304 28.0147 106.304 26.8635 106.304 25.7122C107.268 26.6716 108.426 27.631 109.391 28.5904C111.127 29.9336 114.407 32.6199 116.529 31.6605C117.494 31.2767 118.073 30.7011 117.88 29.7417C117.88 28.3985 114.986 27.631 113.635 26.6716Z" fill="black"/>
<path d="M133.316 12.0886C131.966 14.7749 130.615 17.2694 129.265 19.9557C128.107 18.6126 126.757 17.4613 125.599 16.1181C123.863 14.3912 122.126 12.4723 120.197 11.1292C119.039 10.3616 116.531 11.1292 117.689 12.6642C119.039 14.7749 120.776 16.5019 122.319 18.2288C123.863 19.9557 125.406 21.8746 127.142 23.4096C127.142 23.4096 127.142 23.4096 127.335 23.6015C126.757 24.7528 125.985 25.9041 125.406 27.0554C124.441 28.5904 123.284 29.7417 124.248 31.4687C124.634 32.0443 125.406 32.0443 125.985 32.0443C128.3 31.8524 129.651 28.0148 130.422 26.2878C131.194 24.9447 131.773 23.6015 132.545 22.0664C134.088 18.9963 135.246 15.7343 136.21 12.4723C136.21 11.3211 133.895 10.9373 133.316 12.0886Z" fill="black"/>
<path d="M149.527 11.5129C147.019 10.9373 144.317 9.97784 141.809 9.97784C140.459 9.97784 139.687 11.5129 141.038 12.2804C142.581 13.048 144.51 13.6236 146.247 14.1992C145.668 15.7343 145.861 17.4612 146.054 19.1882C146.247 22.4502 146.44 25.904 145.668 29.166C145.089 31.6605 143.932 35.1144 141.038 35.8819C139.88 36.2657 138.722 35.8819 138.143 34.7306C137.565 33.5793 137.951 32.6199 137.758 31.2767C137.565 30.1254 136.407 29.7417 135.249 30.1254C134.478 30.5092 133.513 32.0443 133.32 32.8118C133.32 33.1956 133.127 33.5793 133.32 33.9631C133.32 34.7306 133.706 35.4981 133.899 36.0738C134.671 37.417 135.635 38.5683 137.179 39.1439C140.459 40.4871 144.317 39.1439 146.633 36.6494C149.141 33.7712 149.913 29.9336 150.298 26.0959C150.491 23.9852 150.298 21.8745 150.298 19.7638C150.105 18.4206 149.527 15.5424 150.684 14.3911C151.456 13.2398 150.684 11.8967 149.527 11.5129Z" fill="black"/>
<path d="M160.911 12.2805C163.226 12.4723 165.541 12.4723 167.856 12.6642C169.593 12.6642 170.172 10.3616 168.242 9.97787C164.769 9.59411 156.28 6.524 155.316 12.0886C154.737 14.9668 155.123 18.0369 155.123 20.9151C155.123 24.1771 154.93 27.4391 154.93 30.5092C154.93 31.6605 156.087 32.4281 157.052 32.2362C160.332 32.0443 163.612 32.2362 166.892 32.2362C169.207 32.2362 169.786 28.9742 167.278 28.5904C164.576 28.2067 161.875 28.2067 158.981 28.3985C158.981 26.4797 158.981 24.369 158.981 22.4502C161.104 23.2177 163.226 23.7934 165.155 23.0258C166.12 22.6421 166.12 21.4908 165.541 20.9151C164.383 19.9557 162.84 19.9557 161.489 19.9557C160.718 19.9557 159.753 19.9557 158.981 19.9557C158.981 18.6126 158.981 17.4613 158.981 16.1181C158.981 14.9668 158.981 14.0074 158.981 12.8561C159.56 12.0886 159.946 12.2805 160.911 12.2805Z" fill="black"/>
<path d="M214.349 13.6236C214.349 12.0886 214.542 10.3616 213.577 9.01846C212.998 8.25094 211.455 8.05905 210.876 9.01846C209.911 10.3616 210.104 11.8967 210.104 13.4317C210.104 14.7749 210.104 16.1181 210.104 17.4613C207.21 17.6532 204.316 17.6532 201.422 17.845C198.914 17.845 196.599 17.845 194.091 18.2288C194.091 15.3506 194.284 12.2805 193.898 9.40223C193.512 8.05905 191.39 7.67529 191.004 9.01846C190.039 12.4723 190.039 16.31 190.039 19.9557C190.039 21.6827 190.039 23.4096 190.039 25.1365C190.039 27.0554 190.039 28.9742 190.618 30.7011C191.004 32.0443 193.705 32.2362 194.091 30.7011C194.477 28.9742 194.091 27.4391 194.091 25.7122C194.091 24.1771 193.898 22.6421 193.898 21.2989C196.406 21.4908 198.914 21.4908 201.229 21.2989C204.123 21.2989 207.017 21.2989 209.911 21.2989C209.911 23.9853 209.911 26.8635 209.911 29.5498C210.104 32.0443 214.349 32.0443 214.542 29.3579C214.735 25.9041 214.542 22.2583 214.349 18.6126C214.349 17.0775 214.349 15.3506 214.349 13.6236Z" fill="black"/>
<path d="M232.68 27.2472C229.593 26.8635 226.506 26.6716 223.419 27.0554C223.226 25.1365 223.226 23.0258 223.034 21.107C224.577 21.107 226.12 21.2989 227.664 21.6827C229.593 22.0664 231.523 19.3801 229.207 18.4207C227.278 17.4613 224.963 17.4613 222.841 17.845C222.841 17.0775 222.841 16.5018 222.648 15.7343C222.648 14.7749 222.455 13.8155 222.455 12.6642C222.455 12.6642 222.262 11.321 222.262 11.1292C222.262 11.1292 222.648 11.1292 223.034 11.1292C225.349 11.1292 227.471 11.1292 229.786 10.7454C231.33 10.5535 231.137 8.63469 229.786 8.44281C227.278 7.86716 224.191 7.4834 221.683 7.67528C219.561 7.86716 218.21 9.21034 218.21 11.321C218.017 17.2694 218.789 23.4096 219.175 29.3579C219.175 30.893 220.718 31.2768 222.069 31.0849C225.156 30.5092 228.436 30.5092 231.716 31.0849C234.224 31.2768 235.381 27.631 232.68 27.2472Z" fill="black"/>
<path d="M242.135 6.71588C240.399 5.18083 237.312 6.524 235.383 7.09965C234.225 7.48341 234.418 8.82659 235.576 8.82659C236.54 8.82659 237.312 8.82659 238.277 8.82659C238.663 8.82659 239.048 8.82659 239.434 8.82659C239.627 9.40223 239.241 10.9373 239.241 11.5129C239.241 12.2805 239.241 13.048 239.048 13.8155C238.856 17.4613 238.663 20.9151 238.47 24.5609C238.277 27.631 238.663 31.2768 236.733 33.9631C235.962 34.9225 234.997 35.6901 233.839 36.2657C233.26 36.4576 232.682 36.6495 232.103 36.8413C231.91 36.8413 231.524 36.8413 231.331 36.8413C231.138 36.0738 230.366 35.3063 229.209 35.3063C227.087 35.1144 225.543 37.6089 227.087 39.3358C228.437 41.0628 231.331 40.8709 233.26 40.4871C237.698 39.7196 241.364 36.0738 242.135 31.6605C242.714 28.7823 242.521 25.9041 242.714 22.834C242.907 19.9557 242.907 16.8856 243.1 14.0074C243.1 11.7048 243.872 8.25094 242.135 6.71588Z" fill="black"/>
<path d="M259.882 9.97788C257.76 9.40223 255.637 9.21035 253.515 8.82659C251.393 8.44282 249.27 7.86718 247.148 7.6753C245.605 7.48341 243.675 9.59411 245.798 10.3616C247.727 11.1292 250.042 11.8967 252.164 12.4723C251.393 18.4207 250.814 24.369 251.007 30.3174C251.007 32.8118 255.251 32.6199 255.444 30.1255C255.83 24.5609 255.83 18.8044 255.444 13.048C256.602 13.2399 257.76 13.4318 258.917 13.6236C261.425 14.0074 262.776 10.7454 259.882 9.97788Z" fill="black"/>
<path d="M3.85684 43.5572C3.47097 40.8709 3.47097 37.9926 3.66391 35.3063C3.85684 33.5793 0.769887 33.7712 0.576952 35.3063C0.191082 38.1845 -0.194787 41.4465 0.191082 44.3247C0.384017 46.6273 0.769887 50.2731 2.69923 51.8081C3.27804 52.1919 4.43565 52.1919 4.82152 51.4244C5.40032 50.2731 5.01445 49.3137 4.82152 47.9705C4.24271 46.4354 4.04978 45.0923 3.85684 43.5572Z" fill="black"/>
<path d="M4.82024 37.0332C5.39905 41.0628 5.59198 45.2842 6.17079 49.3137C6.36372 50.8487 9.06481 51.0406 9.25774 49.3137C9.64361 45.0923 9.25774 41.0628 8.486 37.0332C8.10014 35.1144 4.62731 35.1144 4.82024 37.0332Z" fill="black"/>
<path d="M276.858 0.959414C276.858 3.95626e-06 275.122 -0.191878 274.736 0.57565C273.578 3.64576 273.192 6.90775 272.806 10.1697C272.613 13.048 272.035 16.8856 273.578 19.3801C274.157 20.3395 275.893 20.1476 276.279 19.1882C277.437 16.5019 276.665 12.8561 276.665 10.1697C276.858 7.09964 277.051 4.02952 276.858 0.959414Z" fill="black"/>
<path d="M281.298 1.3432C280.141 4.41331 279.369 7.48342 279.176 10.7454C278.983 12.4724 278.983 14.0074 279.176 15.7343C279.369 17.4613 279.755 18.6126 280.526 20.1476C281.105 21.2989 283.421 21.4908 283.421 19.7639C283.228 13.8155 282.456 7.86719 283.806 1.91885C284.192 0.383793 281.877 2.96831e-05 281.298 1.3432Z" fill="black"/>
</g>
<defs>
<clipPath id="clip0_50_13514">
<rect width="284" height="52" fill="white"/>
</clipPath>
</defs>
</svg>
