<svg width="275" height="88" viewBox="0 0 275 88" fill="none" xmlns="http://www.w3.org/2000/svg">
<path d="M172.776 74.0625C170.838 74.0625 168.9 73.8468 167.177 74.4939C166.316 74.9252 166.316 75.788 167.177 76.2194C168.254 76.6507 169.546 76.8664 170.838 76.8664C170.838 77.2978 170.838 77.9448 170.623 78.3762C169.761 79.239 169.115 80.1017 167.608 80.1017C165.239 80.1017 163.086 78.1605 162.44 76.0037C161.793 73.8468 162.655 71.9056 164.162 70.3958C166.1 68.239 168.469 67.5919 171.053 69.1017C171.484 69.3174 172.346 69.1017 172.13 68.4546C170.623 65.435 166.962 65.2193 164.162 66.9448C161.147 68.6703 158.563 72.1213 159.209 75.788C159.855 79.239 163.086 82.6899 166.746 83.337C168.039 83.5527 169.331 83.5527 170.623 83.1213C170.623 83.7684 170.838 84.4154 171.484 84.8468C172.346 85.4939 174.068 85.4939 174.499 84.4154C174.714 83.9841 174.714 83.5527 174.499 83.1213C174.499 83.1213 174.499 82.9056 174.499 82.6899C174.499 82.4743 174.499 82.2586 174.499 82.0429C174.499 81.1801 174.499 80.5331 174.499 79.6703C174.499 79.4546 174.499 79.0233 174.499 78.8076C174.499 77.7291 174.714 76.6507 174.714 75.3566C174.714 74.4939 173.638 74.0625 172.776 74.0625Z" fill="black"/>
<path d="M78.6022 16.6899C77.7408 19.0625 77.0948 21.6507 76.2334 24.2389C76.6641 21.8664 76.8794 19.2782 77.3101 16.9056C77.9562 16.6899 78.1715 16.6899 78.6022 16.6899ZM48.2381 36.3174C50.6069 30.4938 52.9757 24.886 55.5599 19.0625C55.9906 18.1997 56.4213 17.1213 56.852 16.2585C55.7753 24.0233 54.6985 31.788 53.6218 39.337C51.2529 39.984 48.6688 40.4154 46.2999 41.0625C46.946 39.5527 47.592 37.8272 48.2381 36.3174ZM88.9389 9.57227C91.0924 9.35659 93.4612 8.92521 95.6147 8.70953C94.7533 8.92521 93.6766 9.1409 92.8152 9.1409C87.2161 10.2193 81.6171 11.0821 76.018 12.1605C73.0031 12.8076 69.9883 13.6703 66.758 14.1017C66.3273 14.1017 65.8966 14.1017 65.4659 14.3174C64.6045 14.3174 63.7432 14.5331 62.8818 14.3174V14.1017C71.711 12.3762 80.325 10.8664 88.9389 9.57227ZM84.4166 14.5331C83.9859 14.5331 83.3399 14.5331 82.9092 14.7487C83.3399 14.5331 83.9859 14.5331 84.4166 14.5331ZM82.6938 16.2585C83.1245 16.2585 83.5552 16.2585 83.9859 16.2585C83.1245 19.2782 82.2631 22.2978 81.4017 25.3174C81.8324 22.2978 82.2631 19.2782 82.6938 16.2585ZM80.5403 16.4742C79.6789 19.0625 79.0329 21.6507 78.3868 24.4546C78.8176 21.8664 79.4636 19.2782 79.8943 16.6899C79.8943 16.4742 80.1096 16.4742 80.5403 16.4742ZM57.498 33.0821C57.498 33.7291 57.498 34.5919 57.498 35.2389C57.498 36.3174 57.498 37.3958 57.2827 38.4742C57.0673 38.4742 57.0673 38.4742 56.852 38.4742C57.0673 36.7487 57.2827 34.8076 57.498 33.0821ZM17.0125 34.3762C17.0125 34.5919 16.7972 34.8076 16.7972 35.0233C16.5818 35.4546 16.3665 35.886 16.3665 36.3174C16.3665 35.6703 16.7972 35.0233 17.0125 34.3762ZM116.504 32.2193C116.073 31.788 115.427 31.788 114.781 31.788C112.627 32.2193 110.258 32.8664 108.105 33.2978C105.09 33.7291 102.075 34.1605 99.0603 34.8076C99.7063 32.0036 100.568 29.4154 100.998 26.6115C101.214 26.3958 101.644 26.3958 101.86 26.1801C104.659 25.5331 107.244 24.4546 110.043 23.5919C110.689 23.3762 111.335 23.1605 111.981 22.9448C118.011 21.2193 124.256 19.9252 130.07 17.984C130.07 17.984 130.07 17.984 130.286 17.984C134.162 17.1213 138.254 16.6899 142.13 15.3958C143.207 14.9644 142.561 13.886 141.699 13.886C141.269 13.886 140.838 13.886 140.407 13.886C142.991 13.4546 145.791 12.8076 148.16 11.7291C149.883 10.8664 148.806 9.35659 147.298 9.1409C146.868 9.1409 146.652 9.1409 146.222 9.1409C146.006 8.70953 145.791 8.49384 145.36 8.49384C141.053 8.49384 136.531 9.78796 132.439 10.6507C128.348 11.5134 124.256 12.5919 120.164 13.6703C116.073 14.7487 111.981 16.0429 107.89 17.337C105.09 18.1997 102.075 19.0625 99.2757 20.1409C99.0603 18.8468 99.2757 17.1213 99.491 15.3958C99.491 15.1801 99.491 15.1801 99.491 15.1801C105.951 14.7487 112.412 14.5331 118.657 13.886C119.303 13.886 119.088 13.0233 118.442 13.0233C108.536 12.5919 98.4143 13.4546 88.5082 14.3174C87.6468 14.3174 86.5701 14.5331 85.7087 14.5331V14.3174C87.2161 14.1017 88.9389 13.886 90.4464 13.4546C91.9538 13.2389 93.4612 13.2389 95.184 13.0233C104.444 12.1605 114.135 11.7291 123.395 9.78796C123.61 9.78796 123.825 9.57227 123.825 9.57227C124.041 9.57227 124.041 9.57227 124.256 9.57227C124.902 9.35659 125.548 8.92521 125.333 8.27815C125.333 8.27815 125.333 8.06247 125.117 8.06247C125.333 7.19972 124.471 6.55266 123.825 6.12129C121.672 5.25855 119.518 5.04286 117.15 5.25855C117.15 5.25855 117.15 5.25855 116.934 5.25855C112.197 5.04286 107.244 5.47423 102.506 5.9056C97.7682 6.33698 93.2459 6.98404 88.5082 7.63109C79.8943 8.92521 71.2803 10.8664 62.8818 13.0233C62.8818 9.1409 62.8818 5.47423 62.8818 1.59188C62.8818 -0.564984 59.4362 -0.349297 58.7901 1.16051C58.1441 2.67031 57.9287 3.96443 57.2827 5.47423C56.6367 6.98404 55.9906 8.27815 55.5599 9.78796C54.2678 12.5919 53.1911 15.6115 51.899 18.4154C49.5302 24.2389 47.1613 29.8468 44.7925 35.6703C43.9311 37.8272 43.0697 39.984 42.2083 41.9252C40.9162 42.1409 39.6241 42.5723 38.332 43.0036C38.332 42.5723 38.5474 42.3566 38.5474 41.9252C41.993 30.4938 44.7925 19.0625 47.3767 7.41541C47.592 5.9056 45.0078 5.47423 44.7925 6.76835C44.5771 7.41541 44.3618 8.06247 44.1464 8.70953C44.1464 8.49384 43.9311 8.27815 43.7157 8.27815C44.3618 6.33698 44.7925 4.3958 45.4385 2.45462C45.8692 0.94482 43.0697 0.513448 42.8543 1.80757C41.5623 5.68992 40.2702 9.57227 38.9781 13.6703C38.1167 12.8076 36.1785 12.8076 35.9632 14.1017C34.2404 20.5723 32.3023 27.2585 30.5795 33.7291C29.5027 33.9448 28.6413 34.3762 27.5646 34.5919C25.4111 35.0233 23.0423 35.4546 20.8888 35.886C22.6116 31.1409 24.3344 26.3958 26.0572 21.8664C26.7032 19.9252 23.2576 19.4938 22.6116 21.2193C21.7502 23.3762 20.8888 25.5331 20.0274 27.6899H19.8121C20.8888 25.1017 21.7502 22.5134 22.8269 19.9252C23.2576 18.8468 21.1042 18.6311 20.8888 19.4938C18.52 25.3174 16.3665 31.1409 13.9977 36.9644C11.4135 37.1801 9.04464 37.6115 6.46045 37.8272C4.95302 38.0429 4.95302 39.984 6.46045 40.1997C8.61394 40.4154 10.5521 40.4154 12.7056 40.4154C11.8442 42.5723 10.9828 44.7291 10.3367 46.6703C8.61394 51.1997 6.89115 55.7291 5.16836 60.2585C3.87627 62.4154 3.01488 64.5723 2.15348 66.9448C1.29209 69.1017 0 71.2585 0 73.6311C0 74.4938 1.29209 74.4938 1.72279 74.0625C2.15348 73.6311 2.36883 73.1997 2.58418 72.7683C2.58418 73.1997 2.58418 73.4154 2.58418 73.8468C2.79953 75.1409 4.52232 75.5723 5.59906 74.7095C7.1065 73.1997 7.75255 71.0429 8.61394 69.1017C9.47533 66.9448 10.3367 64.5723 11.1981 62.4154C12.9209 57.886 14.6437 53.3566 16.1511 49.0429C17.2279 46.0233 18.3046 43.2193 19.3814 40.1997C19.8121 40.1997 20.4581 40.1997 20.8888 39.984C23.2576 39.7683 25.4111 39.337 27.78 38.9056C28.2106 38.9056 28.6413 38.6899 29.072 38.6899C29.072 38.9056 29.072 39.1213 28.8567 39.1213C27.78 43.2193 26.4879 47.3174 25.4111 51.4154C24.3344 55.2978 22.3962 59.6115 22.3962 63.4938C22.3962 63.7095 22.3962 63.9252 22.6116 63.9252C22.6116 64.1409 22.3962 64.5723 22.3962 64.788C21.5348 67.5919 20.4581 70.6115 20.0274 73.6311C19.8121 75.3566 22.6116 75.1409 23.2576 73.8468C23.9037 72.7683 24.3344 71.6899 24.7651 70.3958C24.3344 71.6899 24.119 73.1997 23.9037 74.4938C23.9037 75.5723 25.6265 75.5723 26.2725 74.9252C27.9953 72.5527 29.072 69.7487 30.1488 67.1605C31.2255 64.3566 32.3023 61.5527 33.1637 58.5331C34.2404 55.0821 35.5325 51.8468 36.6092 48.3958C37.0399 48.6115 37.686 48.8272 38.332 48.8272C38.7627 48.8272 38.9781 48.8272 39.4088 48.6115C36.3939 55.7291 33.5944 62.8468 31.0102 69.9644C30.5795 71.2585 32.9483 71.6899 33.5944 70.6115C37.0399 63.2782 40.2702 55.7291 43.5004 48.1801C45.8692 47.7487 48.2381 47.3174 50.8222 46.886H51.0376C51.6836 46.886 52.3297 46.886 52.7604 46.6703C52.3297 50.1213 51.899 53.788 51.4683 57.2389C51.0376 60.2585 50.8222 63.0625 50.3915 66.0821C49.9608 69.1017 49.3148 72.337 49.7455 75.3566C49.9608 76.435 51.4683 76.6507 51.899 75.5723C52.9757 72.984 53.1911 69.7487 53.6218 66.9448C54.0525 63.9252 54.2678 61.1213 54.6985 58.1017C55.1292 54.0036 55.5599 49.9056 56.206 46.0233C56.4213 46.0233 56.6367 46.0233 56.852 45.8076C56.4213 50.5527 55.7753 55.2978 55.3446 60.0429C54.9139 63.2782 54.4832 66.2978 54.0525 69.5331C53.8371 71.2585 53.6218 72.7683 53.4064 74.4938C53.1911 76.0036 52.7604 77.2978 53.4064 78.5919C54.0525 79.6703 55.5599 79.886 56.4213 78.8076C57.498 77.5134 57.498 76.0036 57.7134 74.4938C57.9287 73.1997 58.1441 71.6899 58.3594 70.3958C59.6515 70.8272 61.5897 70.6115 61.805 68.886C62.4511 66.0821 62.2357 63.2782 62.2357 60.6899C62.2357 57.886 62.4511 55.0821 62.4511 52.2782C62.4511 49.4742 62.6664 46.4546 62.6664 43.6507C63.7432 43.2193 64.8199 43.0036 65.6813 42.1409C66.112 41.7095 66.112 41.4938 66.112 41.0625C66.3273 41.0625 66.5427 40.8468 66.5427 40.8468C67.1887 40.4154 66.9734 39.5527 66.3273 39.337C65.8966 39.1213 65.4659 39.1213 64.8199 38.9056C64.6045 38.0429 63.7432 37.1801 62.6664 36.9644C62.6664 36.3174 62.6664 35.886 62.6664 35.2389C62.6664 29.4154 62.8818 23.5919 63.0971 17.7684C67.6194 17.337 71.9264 16.9056 76.4487 16.6899C74.0799 28.984 70.419 41.0625 68.0501 53.3566C68.0501 53.788 68.6962 54.0036 69.1269 54.0036C68.4808 57.4546 67.8348 61.1213 67.4041 64.788C67.4041 65.435 68.6962 65.6507 68.9115 65.0036C69.7729 61.7684 70.6343 58.7487 71.4957 55.5134C70.8497 58.7487 70.2036 61.7684 69.5576 65.0036C68.9115 68.0233 68.2655 71.0429 67.8348 74.0625C67.1887 77.0821 66.112 80.3174 66.112 83.337C66.112 84.4154 67.8348 84.4154 68.2655 83.5527C69.5576 80.9644 69.7729 77.5134 70.6343 74.4938C70.8496 74.0625 70.8496 73.6311 71.065 72.984C71.065 73.4154 71.711 73.6311 72.1417 73.4154C71.9264 74.9252 71.4957 76.6507 71.4957 78.1605C71.4957 79.0232 73.2185 79.2389 73.4338 78.3762C75.372 73.4154 76.018 68.0233 77.0948 62.8468C78.1715 57.6703 79.2482 52.2782 80.325 47.1017C82.2631 37.1801 83.7706 27.0429 85.278 16.9056C85.278 16.4742 85.4933 16.2585 85.4933 15.8272C87.0008 15.6115 88.5082 15.6115 90.0157 15.3958C92.8152 15.1801 95.8301 14.9644 98.6296 14.9644C98.6296 14.9644 98.6296 14.9644 98.6296 15.1801C97.9836 17.337 97.5529 19.4938 96.9068 21.435C97.1222 20.3566 97.1222 19.4938 97.3375 18.4154C97.3375 17.7684 96.2608 17.7684 96.0454 18.1997C95.184 20.788 94.3226 23.3762 93.6766 25.9644C93.4612 25.9644 93.2459 25.9644 93.0305 25.9644C92.1692 25.9644 91.9538 27.0429 92.5998 27.2585C92.5998 27.2585 92.5999 27.2585 92.3845 27.2585C91.0924 27.9056 91.7384 28.7684 92.8152 28.984C92.1691 31.5723 91.5231 34.1605 91.0924 36.5331C89.8003 36.9644 88.5082 37.1801 87.4315 37.6115C86.5701 37.8272 86.3547 38.4742 86.3547 38.9056H86.1394C84.4166 39.1213 84.8473 41.2782 86.5701 41.2782C87.2161 41.2782 87.8622 41.2782 88.5082 41.0625C88.5082 41.0625 88.5082 41.0625 88.7236 41.0625H88.9389C89.3696 41.0625 89.585 41.0625 90.0157 41.0625C90.0157 41.2782 89.8003 41.4938 89.8003 41.7095C89.8003 41.7095 89.8003 41.7095 89.585 41.7095C88.9389 41.9252 89.1543 42.3566 89.3696 42.788C88.7236 45.5919 87.8622 48.3958 87.2161 51.1997C86.5701 53.788 85.7087 56.5919 85.0627 59.1801C84.8473 59.1801 84.632 59.1801 84.4166 59.3958C83.1245 59.8272 83.5552 61.1213 84.8473 61.1213C84.8473 61.337 84.8473 61.337 84.8473 61.5527C83.1245 61.7683 81.6171 62.1997 79.8943 62.4154C78.3868 62.6311 79.0329 64.1409 80.1096 64.3566C79.8943 64.788 79.8943 65.2193 80.325 65.6507C80.325 66.2978 80.7557 67.1605 81.8324 67.1605C82.6938 67.1605 83.5552 67.1605 84.4166 66.9448C82.6938 73.6311 81.1864 80.3174 80.325 87.0036C80.1096 87.8664 81.8324 87.8664 82.0478 87.2193C82.4785 86.1409 82.9092 84.8468 83.3399 83.7684C83.7706 83.7684 83.9859 83.7683 84.2013 83.337C84.4166 82.9056 84.4166 82.4742 84.632 82.2585C84.632 83.1213 86.3547 83.337 86.5701 82.4742C88.7236 78.1605 89.3696 72.984 90.4464 68.2389C90.6617 67.3762 90.8771 66.7291 91.0924 65.8664C92.8152 65.435 94.7533 65.0036 96.2608 64.3566C99.491 63.7095 102.937 63.0625 105.951 62.4154C107.674 61.984 107.459 60.2585 106.167 59.8272C107.674 59.3958 109.182 58.9644 110.689 58.5331C112.412 58.1017 112.197 56.8076 111.335 55.9448C112.412 55.5134 111.766 54.2193 110.689 54.2193C106.382 54.2193 102.291 55.5135 98.1989 56.3762C96.4761 56.8076 94.7533 57.0233 93.0305 57.4546C93.4612 56.1605 93.6766 54.8664 94.1073 53.5723C95.184 49.6899 96.0454 45.8076 96.9068 41.7095C102.937 40.6311 108.966 39.337 114.35 37.1801C115.642 36.5331 114.565 35.6703 113.704 35.6703C114.565 35.4546 115.427 35.0233 116.288 34.5919C117.15 34.1605 117.365 33.5134 117.365 32.8664C117.796 32.8664 117.15 32.2193 116.504 32.2193Z" fill="black"/>
<path d="M161.724 57.886L170.768 22.7291H159.57L156.125 37.6115L150.095 22.9448L139.543 23.3762L135.882 36.9644L129.852 22.9448L115.424 23.8076L114.562 30.4938L122.315 30.9252L131.36 57.886L140.189 58.3174L144.927 44.5134L150.095 57.886H161.724Z" fill="black"/>
<path d="M179.601 44.5134L183.693 32.8664L185.631 33.0821L188.861 44.2978L179.601 44.5134ZM175.94 23.8076L164.742 58.1017L176.371 59.1801L179.171 52.0625L191.876 53.1409L193.384 58.5331H206.735L193.599 24.2389L175.94 23.8076Z" fill="black"/>
<path d="M149.664 73.4154C149.449 73.4154 149.234 73.4154 149.018 73.4154C149.018 71.6899 149.018 69.9644 148.588 68.2389C150.526 68.6703 152.464 69.1017 153.756 70.6115C154.833 71.6899 153.756 72.5526 152.679 73.1997C152.033 73.6311 150.957 73.8468 149.664 73.4154ZM154.187 75.1409C154.402 75.1409 154.618 74.9252 154.618 74.9252C155.91 74.0624 158.063 72.5526 157.632 70.8272C157.417 69.1017 155.264 68.0232 153.756 67.3762C151.818 66.5134 149.664 66.2977 147.726 66.7291C147.511 66.7291 147.296 66.9448 147.08 67.1605C146.865 67.1605 146.65 67.3762 146.434 67.5919C145.573 69.9644 145.788 72.337 145.788 74.7095C145.788 77.0821 145.573 79.6703 146.004 82.0428C146.219 83.1213 148.372 83.1213 148.588 82.0428C149.018 80.1017 148.803 78.1605 148.803 76.2193C148.803 76.2193 148.803 76.2193 149.018 76.2193C149.88 76.2193 150.741 76.2193 151.387 76.0036C151.603 77.0821 152.464 78.5919 152.895 79.4546C153.541 80.7487 154.187 82.4742 155.264 83.337C156.34 83.984 158.063 83.7683 158.278 82.2585C158.494 80.7487 157.202 79.0232 156.34 77.9448C156.125 77.0821 155.264 76.0036 154.187 75.1409Z" fill="black"/>
<path d="M166.248 74.4938C165.817 74.4938 165.171 74.4938 164.741 74.4938C165.387 72.5526 165.817 70.6115 166.679 68.886C166.894 70.6115 167.54 72.337 167.971 74.2781V74.4938C167.325 74.4938 166.679 74.4938 166.248 74.4938ZM167.756 66.7291C167.756 66.7291 167.54 66.5134 167.325 66.5134C166.894 65.6507 164.741 65.435 164.525 66.5134C163.879 69.533 162.587 72.1213 161.51 75.1409C160.864 75.3566 160.218 75.7879 159.788 76.435C159.572 76.6507 159.788 77.0821 160.218 77.0821C160.434 77.0821 160.649 77.0821 160.864 77.0821C160.649 77.7291 160.434 78.5919 160.434 79.2389C160.218 80.3174 162.156 80.1017 162.372 79.4546C162.802 78.5919 163.233 77.9448 163.449 77.0821C163.879 77.0821 164.095 77.0821 164.525 77.0821C166.033 77.0821 167.325 77.7291 168.832 77.5134C169.263 78.8076 169.694 80.1017 170.34 81.1801C170.986 82.2585 174.001 82.0428 173.785 80.3174C173.57 77.7291 172.278 75.3566 171.201 72.984C170.34 70.8272 169.478 68.6703 167.756 66.7291Z" fill="black"/>
<path d="M195.971 66.0821C193.817 69.1017 191.664 72.337 189.726 75.3566C189.51 75.1409 189.295 74.7096 189.295 74.7096C188.649 73.6311 187.788 72.5527 187.142 71.4743C185.85 69.5331 184.988 67.5919 183.911 65.6507C183.481 64.788 181.543 64.788 181.543 65.8664C181.543 66.2978 181.543 66.5135 181.543 66.9448C181.543 69.3174 181.112 71.6899 180.897 74.0625C180.897 76.435 180.035 79.4547 181.112 81.6115C181.327 82.2586 182.619 82.2586 182.835 81.6115C183.911 79.4547 183.481 76.435 183.696 74.0625C183.696 73.4154 183.696 72.7684 183.696 72.337C184.127 72.9841 184.342 73.4154 184.773 74.0625C185.85 76.2194 186.711 79.239 189.51 80.1017C190.372 80.3174 191.449 79.886 191.879 79.239C193.387 77.0821 194.894 74.7096 196.402 72.337C196.617 75.5723 196.402 78.8076 196.186 82.0429C195.971 84.1997 200.063 83.9841 200.278 82.0429C200.709 76.8664 200.278 71.9056 199.632 66.7292C199.416 65.2194 196.832 64.5723 195.971 66.0821Z" fill="black"/>
<path d="M204.795 67.8076C204.579 67.3762 203.718 67.3762 203.503 67.8076C202.641 70.3958 202.426 72.7684 201.995 75.5723C201.78 77.9449 201.349 80.9645 202.211 83.1213C202.857 84.4154 205.441 84.4154 205.441 82.69C205.656 80.3174 205.441 77.5135 205.226 75.1409C205.226 72.5527 205.226 70.3958 204.795 67.8076Z" fill="black"/>
<path d="M216.208 69.1017C217.5 69.1017 219.008 69.3173 220.084 68.4546C220.73 67.8075 220.3 67.1605 219.654 66.9448C218.792 66.7291 218.146 66.9448 217.5 66.9448C216.639 66.9448 215.777 66.9448 214.701 66.9448C213.409 66.9448 212.332 67.1605 211.04 67.8075C210.394 67.5919 209.748 67.8075 209.532 68.6703C209.317 70.8272 209.102 72.7683 209.102 75.1409C209.102 77.2977 209.317 79.4546 209.317 81.3958C209.317 82.2585 210.178 82.6899 211.04 82.6899C213.409 82.6899 215.777 82.6899 217.931 82.2585C220.084 82.0428 219.438 79.2389 217.285 79.2389C215.777 79.2389 214.055 79.4546 212.547 79.6703C212.547 78.8075 212.547 77.7291 212.547 76.8664C213.624 77.0821 214.485 77.0821 215.562 77.0821C216.639 76.8664 217.069 76.0036 216.639 75.3566C216.423 75.1409 216.208 74.7095 215.993 74.7095C215.993 74.7095 215.993 74.7095 215.777 74.7095C215.777 74.7095 215.777 74.7095 215.562 74.7095H215.347C214.27 74.4938 213.193 74.4938 212.332 74.7095C212.332 72.984 211.901 71.4742 211.686 69.7487C213.193 69.1017 214.701 69.1017 216.208 69.1017Z" fill="black"/>
<path d="M225.038 66.9448C225.469 69.5331 225.253 72.5527 225.038 75.1409C225.038 76.2194 225.038 77.9448 224.177 78.8076C223.1 79.886 222.454 78.8076 221.593 78.1605C221.377 77.9448 220.946 78.1605 220.946 78.1605C219.654 79.0233 220.3 80.3174 221.593 81.1801C223.1 82.0429 225.038 82.0429 226.33 80.9645C227.838 79.6703 228.268 77.5135 228.484 75.788C228.699 72.7684 228.268 69.7488 228.699 66.7292C228.699 65.0037 224.607 65.0037 225.038 66.9448Z" fill="black"/>
<path d="M237.957 73.4154C237.526 72.9841 237.095 72.7684 236.449 72.5527C235.803 72.337 235.373 71.9056 234.726 71.6899C234.726 71.0429 234.726 70.3958 234.726 69.9644C235.373 68.6703 237.957 69.1017 239.033 69.1017C240.11 69.1017 241.187 68.0233 240.11 66.9448C237.311 64.3566 230.419 66.7292 230.85 70.8272C231.066 72.9841 233.65 73.6311 235.373 74.7095C236.665 75.5723 239.249 77.7292 236.665 79.0233C234.726 79.886 233.65 78.5919 232.358 77.7291C231.496 77.0821 229.773 77.2978 229.773 78.5919C229.989 83.337 239.679 82.9056 240.972 79.0233C241.618 76.8664 239.679 74.7095 237.957 73.4154Z" fill="black"/>
<path d="M253.894 66.9448C252.387 68.0232 250.879 69.533 249.587 71.2585C249.372 71.4742 248.941 72.1213 248.726 72.337C248.08 72.337 247.434 72.5526 246.788 72.7683C246.788 71.0428 246.572 69.1017 246.141 67.3762C245.926 66.7291 244.419 66.5134 244.203 67.3762C243.557 69.7487 243.342 72.1213 243.342 74.4938C243.342 76.8664 242.696 79.886 243.557 82.2585C243.988 83.337 246.141 83.5527 246.357 82.2585C246.788 80.1017 246.572 77.7291 246.572 75.3566C247.003 75.3566 247.434 75.3566 247.649 75.5723C248.08 76.0036 248.726 76.2193 249.156 76.2193H249.372C250.233 78.3762 251.525 80.3174 252.817 82.2585C253.679 83.5527 256.694 82.4742 255.617 80.9644C254.325 79.0232 252.817 76.8664 251.31 74.9252C251.741 74.2781 251.956 73.8468 252.387 73.1997C253.463 71.4742 255.401 70.1801 256.048 68.0232C256.909 66.7291 254.755 66.2977 253.894 66.9448Z" fill="black"/>
<path d="M265.092 74.4938C264.446 74.4938 264.015 74.7095 263.369 74.9252C264.015 73.1997 264.446 71.4742 265.307 69.9644C265.738 71.4742 266.168 72.984 266.599 74.2782C266.168 74.4939 265.738 74.4938 265.092 74.4938ZM266.814 67.8076C266.814 66.5135 263.8 65.8664 263.369 67.5919C262.723 69.9644 261.646 72.337 261 74.4938C260.785 74.9252 260.569 75.3566 260.569 76.0037C260.354 76.2193 260.139 76.435 260.354 76.6507C260.139 77.0821 260.139 77.2978 259.923 77.7291C259.493 78.8076 258.631 79.6703 258.846 80.7488C258.846 81.3958 259.923 81.6115 260.354 81.1801C261.646 80.5331 262.292 79.0233 262.938 77.5135C263.369 77.5135 264.015 77.5135 264.661 77.5135C265.738 77.5135 267.03 77.5135 268.106 77.5135C268.537 79.0233 268.968 80.5331 270.26 81.3958C271.121 82.0429 272.413 81.8272 272.844 80.9644C273.706 78.8076 271.983 75.788 271.121 73.8468C269.614 71.6899 268.322 69.7488 266.814 67.8076Z" fill="black"/>
<path d="M230.635 39.1213L218.144 38.6899C218.144 38.6899 218.575 32.2193 218.144 30.9252C218.144 30.9252 227.404 30.9252 230.635 31.5723C233.865 32.2193 230.635 39.1213 230.635 39.1213ZM266.382 32.8664L274.996 33.0821V22.7291L255.615 22.9448C249.801 22.9448 246.14 29.1997 249.155 33.9448L254.754 43.0036C255.83 44.7291 254.538 46.886 252.385 46.886H235.157L232.357 43.8664C232.357 43.8664 242.263 40.8468 241.833 35.0232C241.402 29.1997 238.387 22.9448 229.989 22.9448H206.516L206.731 58.3174L217.929 57.6703L219.652 47.3174L230.204 58.9644H264.875C264.875 58.9644 278.442 54.0036 271.982 46.0232C268.967 42.1409 266.383 38.9056 264.444 36.7487C263.368 35.0232 264.444 32.8664 266.382 32.8664Z" fill="black"/>
</svg>
