<svg width="211" height="63" viewBox="0 0 211 63" fill="none" xmlns="http://www.w3.org/2000/svg">
<path d="M34.2107 22.8937C31.6839 22.8937 28.9767 22.8937 26.4499 23.074C26.2694 18.2077 25.9084 13.7019 25.006 8.83559C24.8255 7.75419 22.8402 7.93443 22.8402 9.01582C22.6597 13.8821 22.6597 18.5681 22.4792 23.4344C18.5086 23.7949 14.538 24.1554 10.3868 24.6961C10.3868 19.4693 10.2064 14.0623 10.3868 8.83559C10.3868 7.2135 7.31863 7.2135 7.31863 8.83559C6.95766 14.2426 6.59669 19.8298 6.59669 25.2367C4.97234 25.417 3.34799 25.7774 1.72364 25.9577C0.460252 26.1379 0.821219 27.76 2.0846 27.76C3.52847 27.5798 5.15282 27.5798 6.59669 27.3995C6.59669 32.0856 6.77718 36.7716 7.13814 41.4577C7.31863 43.4402 10.7478 43.4402 10.7478 41.4577C10.7478 36.5914 10.5673 31.9054 10.5673 27.0391C14.538 26.6786 18.5086 26.3181 22.4792 26.3181C22.4792 28.6612 22.2988 31.0042 22.4792 33.5274C22.6597 35.51 22.4792 38.2135 24.6451 39.1147C25.367 39.4751 26.2694 39.2949 26.6304 38.7542C27.8938 37.1321 26.6304 34.6088 26.6304 32.8065C26.4499 30.6437 26.6304 28.6612 26.6304 26.4984C28.9767 26.4984 31.5034 26.4984 33.8497 26.8588C36.7374 26.8588 37.4594 22.8937 34.2107 22.8937Z" fill="black"/>
<path d="M39.6269 36.231C39.6269 37.1322 40.7098 37.8531 41.6122 37.8531C44.8609 37.4926 48.4706 37.4926 51.7193 36.5915C53.7046 36.0508 53.1631 33.7077 51.1778 33.7077C48.651 33.7077 46.1243 34.0682 43.5975 34.4287C43.5975 31.3647 43.5975 28.1205 43.5975 25.0566C45.4023 25.2368 47.3876 25.2368 49.373 25.417C51.3583 25.5973 53.1631 26.138 54.968 25.417C55.5094 25.2368 55.8704 24.5159 55.5094 24.1554C54.0655 22.5333 51.8997 22.5333 49.7339 22.3531C47.7486 22.1729 45.5828 21.9926 43.5975 22.3531C43.5975 21.8124 43.5975 21.4519 43.5975 20.9112C43.5975 19.6496 43.5975 18.388 43.5975 17.1263C43.5975 16.2252 43.9585 14.0624 43.5975 13.3415C44.1389 13.5217 45.0414 13.3415 45.5828 13.3415C47.0267 13.3415 48.2901 13.3415 49.7339 13.3415C51.1778 13.3415 51.5388 11.7194 50.0949 11.3589C47.5681 10.8182 44.1389 9.55658 41.6122 10.4577C39.0854 11.3589 39.6269 14.4229 39.6269 16.4054C39.6269 22.7136 39.6269 29.5624 39.6269 36.231Z" fill="black"/>
<path d="M63.8051 26.3182C63.6246 24.5158 63.2637 22.5333 63.0832 20.731C62.9027 19.6496 63.0832 18.3879 62.3613 17.4868C61.4588 16.4054 59.8345 16.4054 58.7516 16.2251C56.7663 15.8647 54.7809 15.6844 52.6151 15.5042C51.1713 15.324 50.9908 17.1263 52.2542 17.4868C53.5176 17.8472 54.6005 18.2077 55.8638 18.5682C56.4053 18.7484 59.1125 18.9286 59.4735 19.2891C59.654 19.4693 59.654 21.4519 59.654 21.9926C59.8345 23.2542 59.8345 24.3356 60.015 25.5972C60.3759 30.2833 60.5564 35.1496 58.7516 39.4751C56.9467 43.6205 53.5176 46.1437 49.0055 46.324C46.8397 46.5042 44.3129 46.6844 42.3276 45.7833C39.9813 44.8821 40.1618 42.7193 39.0789 41.0972C38.5374 40.1961 37.0936 40.1961 36.3716 40.917C34.0253 42.7193 35.4692 45.9635 37.0936 47.7658C39.2594 49.9286 42.1471 50.4693 45.0348 50.6496C51.1713 50.8298 57.3077 49.5682 60.9174 44.3414C64.3466 38.9344 64.5271 32.4461 63.8051 26.3182Z" fill="black"/>
<path d="M63.2672 12.4403C65.433 12.9809 67.5988 13.3414 69.7646 13.7019C69.4036 20.5507 69.0426 27.2193 69.0426 34.0682C69.0426 36.0507 72.4718 35.8705 72.6523 34.0682C72.6523 33.8879 72.6523 33.5275 72.8328 33.3472C72.8328 33.167 72.8328 32.9868 72.6523 32.8065C72.6523 26.4984 72.6523 20.3705 72.2913 14.0623C74.6376 14.4228 77.5254 14.9635 79.6912 14.0623C80.5936 13.7019 80.9545 12.4403 80.0521 11.8996C77.8863 10.4577 74.8181 10.9984 72.2913 10.8182C69.4036 10.6379 66.3354 10.6379 63.4476 10.8182C62.5452 10.8182 62.0038 12.0798 63.2672 12.4403Z" fill="black"/>
<path d="M92.1425 38.0334C95.7522 38.7543 99.9033 36.4113 100.625 32.6264C101.528 28.8415 99.1814 23.6147 97.0155 20.5508C96.4741 19.8299 95.7522 19.1089 95.0302 18.388C94.3083 17.6671 92.8644 17.1264 92.6839 16.045C91.962 13.702 95.2107 11.8996 97.196 11.8996C98.6399 11.8996 99.0009 10.2775 97.557 9.91708C94.4888 9.01591 91.0596 10.2775 89.4352 13.1613C87.4499 16.5857 89.7962 18.5682 92.323 20.731C93.7668 21.9927 94.6693 23.795 95.3912 25.5973C96.1131 27.3996 97.196 29.7427 96.8351 31.9054C96.4741 33.7078 94.6693 35.3299 92.8644 34.6089C91.2401 33.888 90.5181 31.9054 90.6986 30.2834C90.8791 28.3008 87.2694 28.1206 86.9085 29.9229C85.8256 33.7078 88.3523 37.3124 92.1425 38.0334Z" fill="black"/>
<path d="M108.024 34.7891C110.551 34.9694 115.604 32.4461 114.341 29.2019C113.799 27.9403 112.175 27.9403 111.273 28.6612C110.009 29.7426 109.287 32.0857 107.302 30.824C105.317 29.5624 105.136 26.8589 105.317 24.8763C105.317 22.7136 105.858 20.5508 106.58 18.388C106.941 17.3066 108.565 12.6205 110.009 12.8008C111.633 12.981 111.994 10.8182 110.37 10.4577C106.58 9.55658 104.414 13.3415 103.151 16.4054C101.526 20.0101 100.443 24.3356 101.165 28.3008C101.887 31.545 104.414 34.6089 108.024 34.7891Z" fill="black"/>
<path d="M110.737 21.2717C109.473 21.452 109.473 23.0741 110.737 23.2543C112.722 23.6148 114.707 23.795 116.693 23.9752C116.693 25.0566 116.693 26.138 116.873 27.3996C117.054 29.3822 116.873 31.545 117.595 33.3473C117.956 34.2485 119.58 34.2485 119.761 33.3473C120.483 30.4636 120.483 27.2194 120.302 23.9752C121.024 23.9752 121.927 23.9752 122.468 23.795C122.468 24.8764 122.468 25.9578 122.468 26.8589C122.468 28.8415 122.288 31.0043 123.009 32.9868C123.37 34.2485 125.897 34.2485 126.078 32.9868C126.439 31.0043 126.078 28.8415 126.078 26.8589C126.078 24.8764 125.897 23.0741 125.897 21.0915C125.897 17.1264 125.536 12.981 125.356 9.01592C125.356 8.29499 123.912 8.29499 123.912 9.01592C123.19 12.8008 122.829 16.5857 122.649 20.5508C121.927 20.3706 121.024 20.5508 120.302 20.5508C120.122 16.9461 119.761 13.5217 119.039 9.91708C118.858 9.19615 117.595 9.37638 117.595 10.0973C116.693 13.5217 116.512 17.1264 116.512 20.731C114.527 20.9113 112.722 21.0915 110.737 21.2717Z" fill="black"/>
<path d="M137.806 25.5973C137.264 27.2194 136.001 29.9229 134.196 30.4636C130.045 31.7252 130.045 23.2543 130.406 21.0915C130.767 18.5682 131.308 15.6845 132.752 13.5217C133.113 13.5217 133.294 13.3415 133.655 13.1613C135.64 11.8996 136.181 13.1613 137.084 14.7833C137.986 16.4054 138.889 18.2078 138.889 20.1903C139.069 22.1729 138.528 23.9752 137.806 25.5973ZM138.167 10.4578C136.181 8.65544 133.655 9.19613 131.669 10.638C131.128 10.9985 130.947 11.3589 130.767 11.7194C127.699 15.324 126.616 20.9112 127.157 25.5973C127.699 29.9229 131.489 35.5101 136.542 32.4461C140.874 29.7426 142.859 22.5333 141.776 17.8473C141.235 15.324 139.972 12.0799 138.167 10.4578Z" fill="black"/>
<path d="M149.538 10.4577C150.621 9.91699 151.524 11.3589 152.065 12.0798C153.148 13.5216 153.509 15.324 153.689 17.1263C154.05 21.0914 153.328 25.7775 151.524 29.2019C150.982 30.2833 150.621 30.824 149.538 30.103C148.816 29.5623 148.275 28.6612 147.914 27.9402C147.012 26.3182 146.47 24.3356 146.47 22.353C146.29 18.5682 147.373 15.1437 148.455 11.5391C148.816 11.1786 149.177 10.6379 149.538 10.4577ZM144.124 27.76C145.026 29.9228 146.651 32.6263 148.997 33.3472C151.343 34.0682 153.328 32.6263 154.411 30.6437C155.855 27.9402 156.397 24.3356 156.758 21.2716C157.119 18.5682 156.938 15.5042 156.036 12.8007C155.314 10.4577 153.689 7.93444 151.163 7.03327C148.455 6.13211 145.748 8.11467 145.207 10.8182C145.207 11.1786 145.207 11.3589 145.387 11.7193C143.041 16.5856 141.958 22.5333 144.124 27.76Z" fill="black"/>
<path d="M161.453 33.3473C163.258 33.5275 165.063 32.4461 166.868 32.0857C169.034 31.7252 171.019 31.7252 173.185 31.3647C175.17 31.0043 174.99 28.481 173.004 28.1206C171.019 27.7601 169.034 28.1206 167.229 28.481C166.146 28.6613 165.244 28.8415 164.161 29.202C163.8 29.3822 163.258 29.5624 162.717 29.7426C162.717 28.481 162.897 26.138 162.897 25.7775C162.897 23.795 163.078 21.8124 163.258 19.8299C163.439 18.0275 163.619 16.045 163.8 14.2427C163.98 12.0799 163.8 10.2775 163.619 8.11474C163.619 7.21358 161.995 7.03335 161.814 7.93451C160.912 11.1787 160.19 14.0624 159.829 17.3066C159.468 20.5508 159.107 23.795 159.107 27.2194C158.927 29.5624 158.385 33.1671 161.453 33.3473Z" fill="black"/>
<path d="M140.696 53.5333C139.613 53.7135 139.072 54.2542 138.17 54.7949C137.628 55.1554 136.545 55.8763 135.823 55.1554C135.462 54.7949 135.643 53.3531 135.643 52.8124C135.643 49.7484 136.545 46.8647 138.17 44.3414C138.711 43.4403 137.267 43.0798 136.726 43.6205C134.921 45.7833 133.296 48.1263 131.311 50.2891C129.506 52.2717 127.521 54.2542 125.897 56.417C125.897 54.4345 125.536 52.6321 125.355 50.6496C124.994 47.5856 124.633 44.5217 124.272 41.4577C124.092 40.5566 122.467 40.1961 122.106 41.2775C121.565 42.7194 121.385 44.3414 120.843 45.7833C120.302 47.2252 119.219 48.667 118.316 50.1089C116.511 52.6321 114.887 55.5159 112.541 57.4984C111.277 58.76 108.57 59.6612 108.39 56.9577C108.39 55.8763 108.57 54.6147 108.751 53.5333C110.736 50.2891 111.819 46.6845 111.999 42.7194C111.999 41.8182 110.556 41.8182 110.375 42.5391C109.292 45.6031 108.029 48.667 107.126 51.731C105.682 54.074 103.878 56.2368 101.712 58.0391C100.268 59.1205 98.8241 59.481 98.1022 57.4984C97.7412 56.2368 97.9217 54.9752 98.1022 53.7135C98.4631 51.5507 99.0046 49.2077 99.907 47.0449C100.268 46.1438 100.629 45.0624 100.99 44.1612C101.531 42.7194 98.8241 42.3589 98.2827 43.6205C97.7412 44.7019 97.3802 45.9635 96.8388 47.2252C96.1168 49.0275 95.2144 50.8298 94.1315 52.4519C93.0486 54.2542 91.2438 57.6787 88.8975 58.3996C90.3414 53.5333 91.0633 48.4868 90.7023 43.4403C90.7023 42.3589 89.078 42.1787 88.5365 42.7194C86.7317 44.3414 84.9269 45.9635 83.483 47.9461C83.6635 46.1438 84.0244 44.5217 84.2049 42.7194C84.2049 41.638 82.5806 41.4577 82.0391 41.9984C79.5124 44.5217 77.1661 47.4054 75.1807 50.4694C75.3612 49.7484 75.5417 49.2077 75.7222 48.4868C76.2637 46.324 76.6246 43.981 74.2783 42.7194C74.0978 42.3589 73.5564 42.3589 73.1954 42.7194C67.2395 46.6845 62.7274 52.4519 60.0201 59.1205C59.8396 59.8414 60.9225 60.0217 61.2835 59.481C63.9908 53.3531 68.3224 48.3066 73.7369 44.5217C74.8198 46.324 73.1954 49.9287 72.8345 51.5507C72.1125 54.6147 71.2101 57.4984 70.4882 60.5624C70.1272 61.824 72.293 62.1845 72.8345 61.1031C74.8198 55.5159 77.527 50.6496 81.3172 46.1438C80.7757 49.7484 79.8733 53.5333 78.7904 57.138C78.6099 57.6787 78.4295 58.0391 78.4295 58.5798C78.0685 60.0217 80.5953 60.5624 81.1367 59.1205C81.3172 58.3996 81.4977 57.6787 81.8586 56.9577C83.3025 52.8124 85.4683 49.2077 88.5365 46.1438C88.3561 50.6496 87.6341 54.9752 86.1903 59.1205C86.0098 59.8414 86.5512 60.3821 87.2731 60.5624C90.8828 61.2833 93.5901 58.76 95.5754 55.8763V55.6961V55.8763C95.7559 58.76 97.3802 61.6438 100.629 61.1031C102.795 60.7426 104.78 59.1205 106.404 57.138C106.585 59.3007 108.029 60.9228 110.736 60.5624C114.346 60.2019 116.511 56.417 118.136 53.8938C119.399 52.0914 120.302 50.1089 121.204 47.9461C121.565 47.0449 122.106 46.1438 122.467 45.2426C122.648 47.5856 122.828 49.9287 123.189 52.2717C123.37 53.7135 123.55 55.3356 123.37 56.7775C123.189 58.3996 121.746 61.824 119.58 60.2019C118.316 59.1205 115.97 61.1031 117.594 62.0042C120.843 63.9868 124.994 62.0042 125.897 58.3996C126.077 58.0391 126.077 57.4984 126.077 57.138C126.258 57.3182 126.799 57.3182 126.98 57.138C129.506 55.1554 131.853 52.6321 134.018 50.1089C133.477 52.0914 133.477 54.074 134.018 55.8763C135.643 59.8414 140.155 56.417 141.96 54.6147C142.501 54.074 141.238 53.5333 140.696 53.5333Z" fill="black"/>
<path d="M191.773 20.731C192.134 18.0275 192.495 15.324 192.675 12.6206C192.856 11.3589 193.036 10.0973 193.217 8.83567C193.397 7.39381 193.217 5.59149 193.939 4.32986C194.841 2.52753 194.66 3.96939 194.66 4.69032C194.66 5.41125 194.66 6.13218 194.841 6.67288C194.841 7.93451 194.841 9.19614 194.841 10.4578C194.841 13.1613 194.66 16.045 194.3 18.7485C193.578 25.0566 192.314 31.7252 189.787 37.6729C189.787 37.4926 189.787 37.3124 189.787 37.3124C190.509 31.7252 191.051 26.3182 191.773 20.731ZM169.032 54.074C167.588 55.1554 165.242 56.2368 163.617 54.795C162.534 53.8938 162.173 52.4519 162.173 51.0101C162.173 50.4694 162.173 49.9287 162.354 49.5682C163.076 48.8473 163.617 47.9461 164.159 47.2252C164.7 46.324 165.603 45.2426 166.144 43.981C166.505 43.981 166.866 43.8008 167.046 43.6206C168.31 42.3589 170.295 40.3764 171.92 42.3589C172.822 43.4403 173.002 44.8822 173.002 46.324C172.822 49.2078 171.378 52.2717 169.032 54.074ZM207.655 38.0333C205.67 39.6554 204.226 41.8182 202.782 43.981C201.158 46.1438 199.534 48.3066 197.909 50.4694C197.187 51.3706 196.465 52.452 195.743 53.3531C195.202 54.074 194.48 55.1554 193.758 55.6961C191.231 57.138 189.607 53.3531 189.065 51.5508C188.705 49.9287 188.524 48.3066 188.705 46.5043C193.758 38.7543 196.285 29.3822 197.368 20.1903C197.729 16.7659 198.09 13.1613 198.09 9.73683C198.09 7.57404 198.631 3.24846 196.646 1.62637C195.021 0.18451 192.495 1.08567 191.231 2.70777C190.509 3.78916 190.329 5.05079 190.148 6.13218C189.968 8.11474 189.607 10.0973 189.426 12.0799C188.524 18.9287 187.622 25.9578 186.719 32.8066C186.178 36.4113 185.817 40.0159 185.275 43.6206C185.095 44.3415 185.095 45.2426 185.095 46.1438C184.012 47.5857 182.929 49.0275 181.846 50.2892C180.402 51.9113 178.597 53.7136 176.793 54.795C175.89 55.1554 175.89 55.3357 175.71 54.2543C175.529 53.7136 175.89 52.6322 175.89 52.0915C176.071 50.6496 176.251 49.2078 176.432 47.7659C176.793 44.702 177.334 41.8182 177.334 38.7543C177.334 38.3938 176.612 38.2136 176.432 38.574C175.89 39.8357 175.349 41.0973 174.988 42.3589C174.266 40.7368 172.822 39.4752 171.017 39.1147C168.851 38.7543 167.046 39.6554 165.783 41.0973C165.242 40.5566 164.159 40.7368 163.798 41.2775C162.715 43.4403 161.091 45.9636 160.188 48.4868C159.466 49.388 158.564 50.1089 157.842 51.0101C155.496 53.3531 152.608 55.8764 149.179 56.4171C143.764 57.138 145.749 50.2892 147.193 47.4054C147.915 45.9636 148.998 44.3415 150.442 43.4403C151.344 42.8996 152.788 42.3589 152.788 43.981C152.788 45.0624 152.066 45.9636 151.525 46.8647C150.803 47.7659 152.608 48.4868 153.149 47.5857C154.413 45.9636 155.857 43.4403 154.232 41.638C152.608 39.8357 150.081 40.9171 148.457 41.9985C146.291 43.8008 144.486 46.324 143.584 49.0275C142.862 51.1903 142.14 54.4345 143.584 56.5973C146.832 61.2833 154.413 57.138 157.661 54.4345C158.383 53.8938 158.925 53.3531 159.647 52.6322C159.827 53.3531 160.008 54.2543 160.369 54.9752C162.895 59.481 168.671 58.0392 171.92 55.1554C172.281 54.795 172.641 54.4345 173.002 54.074C173.002 54.9752 173.183 55.8764 173.724 56.4171C176.793 60.7426 183.651 52.9926 185.456 50.8299L185.636 50.6496C185.636 50.8299 185.636 51.0101 185.817 51.3706C186.719 56.4171 192.134 62.0043 197.007 57.3182C199.534 54.795 201.699 51.5508 203.865 48.6671C206.031 45.6031 208.919 42.5392 210.182 39.1147C210.363 37.6729 208.377 37.3124 207.655 38.0333Z" fill="black"/>
<path d="M139.792 41.0972C140.694 41.0972 141.236 40.3763 141.236 39.6554C141.236 38.7542 140.514 38.2135 139.792 38.2135C138.89 38.2135 138.348 38.9344 138.348 39.6554C138.168 40.5565 138.89 41.0972 139.792 41.0972Z" fill="black"/>
</svg>
