<svg width="267" height="49" viewBox="0 0 267 49" fill="none" xmlns="http://www.w3.org/2000/svg">
<path d="M20.1875 11.9094C20.1875 15.058 19 18.0098 18.6042 21.1584C18.2083 23.7167 18.0104 26.2749 17.6146 28.8331C17.4167 30.0139 17.2188 31.3914 17.2188 32.5721C16.8229 31.1946 16.4271 29.6203 16.0312 28.2428C14.4479 23.1263 13.4583 17.8131 12.6667 12.6966C12.6667 12.1062 12.8646 11.5159 12.8646 10.7287C12.8646 9.74478 10.8854 9.54799 10.6875 10.5319C10.0938 13.0902 9.89583 15.8452 9.30208 18.4034C8.70833 21.3552 8.11458 24.307 7.52083 27.4556C7.125 29.8171 6.53125 32.3753 6.13542 34.7367C5.9375 32.3753 5.73958 29.8171 5.54167 27.4556C5.34375 24.5038 4.94792 21.552 4.75 18.6002C4.55208 15.6484 4.35417 12.6966 3.76042 9.94157C3.36458 8.17048 0 8.76084 0 10.5319C0 13.4837 0.395833 16.4355 0.791667 19.3873C0.989583 22.3392 1.38542 25.291 1.78125 28.2428C2.17708 31.1946 2.57292 34.1464 2.96875 37.0982C3.36458 39.8532 3.36458 42.805 3.95833 45.56C4.15625 46.7408 6.72917 46.7408 6.92708 45.56C7.91667 39.6564 9.10417 33.7528 10.2917 28.046C10.8854 25.291 11.2812 22.5359 11.4792 19.7809C11.6771 18.2066 11.875 16.6323 12.2708 15.058C12.8646 19.5841 13.4583 24.307 13.4583 28.8331C13.6562 34.54 14.8438 40.05 15.6354 45.7568C15.8333 47.5279 19.1979 48.1183 19.5937 46.1504C20.3854 40.6404 20.9792 35.1303 21.375 29.6203C21.5729 26.8653 21.9688 24.307 22.1667 21.552C22.3646 20.1745 22.3646 18.6002 22.3646 17.2227C22.1667 15.4516 22.1667 14.0741 22.5625 12.303C22.9583 10.7287 20.1875 10.5319 20.1875 11.9094Z" fill="black"/>
<path d="M43.539 28.2427C42.7473 28.2427 41.9557 28.0459 41.164 28.0459C41.164 25.2909 41.3619 22.5359 41.3619 19.7808C41.3619 18.4033 41.3619 17.0258 41.3619 15.6483C41.3619 13.6804 40.7682 12.1061 40.7682 10.1383C40.7682 9.74469 39.9765 9.54791 39.9765 9.94148C39.5807 11.5158 38.9869 12.6965 38.789 14.2708C38.5911 15.6483 38.3932 17.0258 38.3932 18.4033C38.1953 21.5519 37.9973 24.5037 37.9973 27.6523V27.8491C37.2057 27.8491 36.414 27.8491 35.6223 27.8491C33.6432 27.8491 31.664 28.0459 29.6848 28.2427C29.6848 25.0941 29.6848 21.9455 29.4869 18.6001C29.4869 15.6483 29.4869 12.4997 28.6953 9.54791C28.4973 8.76076 26.7161 8.56397 26.5182 9.54791C25.7265 12.4997 25.9244 15.6483 26.1223 18.6001C26.1223 21.7487 26.1223 24.8973 26.3203 28.2427C26.3203 28.4395 26.3203 28.6363 26.3203 28.833C25.9244 29.2266 25.9244 29.817 26.3203 30.2106C26.3203 32.7688 26.3203 35.327 26.5182 37.8853C26.5182 39.2628 26.7161 40.8371 26.914 42.2146C26.914 43.9857 26.914 45.7567 26.914 47.331C26.914 48.7086 29.4869 48.7086 29.4869 47.331C29.6848 44.1824 29.4869 40.8371 29.6848 37.6885C29.6848 35.327 29.6848 32.9656 29.6848 30.8009C31.664 30.9977 33.4453 30.9977 35.4244 30.9977C36.2161 30.9977 37.2057 30.9977 37.9973 31.1945C37.9973 36.1142 38.1953 41.0339 38.5911 45.9535C38.789 47.5278 41.5598 47.5278 41.5598 45.9535C41.3619 41.0339 41.3619 36.1142 41.3619 31.3913C41.9557 31.3913 42.7473 31.3913 43.3411 31.1945C45.3203 31.3913 46.1119 28.4395 43.539 28.2427Z" fill="black"/>
<path d="M60.5626 26.6685C60.5626 32.3753 59.573 38.6725 55.8126 43.1986C54.823 44.3793 53.2397 45.7568 52.2501 43.789C51.6564 42.4114 51.4585 40.8372 51.2605 39.4596C51.0626 36.5078 51.2605 33.3592 51.4585 30.2106C51.8543 26.6685 52.2501 23.3231 52.8439 19.9777C53.0418 19.1906 54.2293 11.5159 55.021 11.5159C55.2189 11.5159 55.4168 11.5159 55.4168 11.5159C58.1876 11.9094 59.573 14.0741 59.9689 17.0259C60.5626 20.1745 60.5626 23.5199 60.5626 26.6685ZM62.7397 12.4998C61.1564 9.74479 58.1876 7.77691 55.021 8.56406C54.0314 8.76085 53.6355 9.74479 53.8335 10.3351C52.646 10.7287 52.0522 12.1062 51.6564 13.4837C50.6668 16.8291 50.073 20.3713 49.4793 23.9135C48.4897 30.4074 47.3022 37.8853 49.2814 44.1825C50.073 46.7408 52.0522 48.5119 54.823 47.7247C57.5939 46.9376 59.573 44.3793 60.9585 42.0179C64.1251 36.311 64.7189 29.4235 64.323 22.9295C64.323 19.5841 64.521 15.6484 62.7397 12.4998Z" fill="black"/>
<path d="M108.657 16.6323C108.459 14.6645 109.845 7.97371 112.814 8.95764C113.605 9.15443 115.189 8.95764 114.793 7.77692C114.001 5.61226 111.23 5.41547 109.251 6.39941C106.876 7.58013 105.887 10.5319 105.095 12.8934C104.303 15.6484 104.303 18.2066 105.689 20.7649C106.876 23.3231 109.053 25.4878 110.637 27.8492C113.209 31.3914 119.345 39.2629 114.793 43.3954C113.209 44.7729 110.637 45.1665 109.053 43.5922C107.272 42.0179 106.876 39.4597 107.47 37.295C108.064 35.3271 104.897 34.7368 104.105 36.1143C101.73 40.6404 104.303 46.3472 109.251 47.7247C114.001 49.1022 119.543 46.1504 120.532 41.2307C121.72 35.1303 116.772 29.0299 113.407 24.7006C111.626 22.536 108.855 19.9777 108.657 16.6323Z" fill="black"/>
<path d="M98.3607 6.00579C96.5794 5.809 95.194 6.00579 93.4128 6.39936C92.819 6.59615 92.6211 7.3833 93.4128 7.58009C94.6003 7.77687 95.9857 8.17045 97.1732 8.36724C96.3815 11.5158 96.7774 14.8612 96.7774 18.0098C96.7774 21.1584 96.7774 24.5038 96.7774 27.6524C96.7774 30.801 96.7774 34.1464 96.7774 37.2949C96.7774 39.066 96.7774 40.8371 96.7774 42.6082C96.7774 43.3953 96.5794 44.1825 96.9753 44.7729C96.5794 44.7729 96.1836 44.9696 95.9857 45.1664C94.9961 45.56 95.3919 46.7407 96.1836 46.9375C97.569 47.1343 98.9544 47.3311 100.34 47.3311C101.132 47.3311 102.121 46.7407 102.121 45.7568C102.121 44.9696 101.329 44.3793 100.538 44.3793V44.1825C100.538 43.9857 100.538 43.7889 100.34 43.5921C100.34 43.1986 100.142 42.6082 100.142 42.4114C100.142 41.6243 100.142 40.6403 100.142 39.8532C100.142 38.2789 100.142 36.9014 100.142 35.3271C100.142 32.1785 100.142 29.0299 100.142 25.8813C100.142 22.9295 100.142 19.9777 100.142 16.8291C100.142 14.0741 100.34 11.319 99.7461 8.56402C100.34 8.56402 101.132 8.56402 101.725 8.36724C102.121 8.17045 102.517 7.58009 102.121 6.98973C101.329 6.20258 99.7461 6.20258 98.3607 6.00579Z" fill="black"/>
<path d="M162.292 5.61227C162.49 5.02191 162.885 4.43155 163.083 3.84118C163.083 3.6444 163.083 3.44761 163.083 3.44761C162.885 3.25082 162.49 3.05404 162.292 3.25082C162.292 3.25082 162.292 3.25082 162.094 3.25082C161.896 3.25082 161.698 3.44761 161.698 3.6444C161.698 4.23476 161.5 4.82512 161.5 5.41548C161.5 6.00584 162.094 6.00584 162.292 5.61227Z" fill="black"/>
<path d="M172.982 3.25082C172.586 4.82512 172.586 6.59621 172.388 8.1705C172.19 9.7448 171.992 11.5159 171.794 13.0902C171.398 16.8291 170.805 20.3713 170.211 23.9135C169.419 28.8332 168.43 33.556 167.638 38.4757C166.648 35.3271 165.857 31.9817 165.065 28.8332C163.878 23.9135 163.086 18.4034 161.107 13.8773C161.305 13.287 161.503 12.4998 161.503 11.9095C161.701 11.3191 161.503 10.9255 161.701 10.3352C161.701 9.35123 161.898 8.36729 161.898 7.38335C161.898 7.18657 161.503 6.98978 161.305 7.38335C160.513 8.95765 159.721 10.5319 159.128 12.303C158.732 13.6805 158.336 15.2548 158.138 16.6323C157.346 19.7809 156.951 23.3231 155.763 26.2749C154.576 29.2267 153.784 32.3753 153.19 35.5239C152.992 35.9175 152.992 36.5079 152.794 36.9014C152.794 36.3111 152.596 35.7207 152.596 35.1303C152.003 31.5882 151.409 28.046 150.815 24.7006C149.826 17.6163 148.638 10.5319 145.867 3.84119C145.471 2.66046 142.898 2.66046 142.898 4.23476C143.492 11.3191 145.273 18.4034 146.659 25.4878C147.253 29.0299 147.846 32.5721 148.242 35.9175C148.836 39.4597 149.034 43.0018 150.023 46.544C150.419 48.3151 153.784 47.9215 153.784 45.9536C153.784 45.7569 153.784 45.5601 153.784 45.1665C153.784 41.8211 154.971 38.6725 155.961 35.5239C156.753 32.5721 157.544 29.6203 157.94 26.6685C158.336 23.9135 159.128 21.3552 159.919 18.6002C160.513 22.1424 161.701 25.8813 162.492 29.2267C163.878 34.54 165.659 40.05 166.648 45.5601C166.846 46.9376 169.419 46.7408 169.815 45.5601C171.398 38.6725 172.388 31.5882 173.576 24.5038C174.169 21.1585 174.565 17.6163 175.357 14.2709C175.753 12.4998 175.951 10.9255 176.346 9.15444C176.742 7.38335 177.138 5.41548 177.138 3.6444C177.138 1.47974 173.576 1.28295 172.982 3.25082Z" fill="black"/>
<path d="M197.522 42.805C193.366 42.4114 189.011 42.6082 184.855 42.805C184.657 41.4275 184.855 39.8532 185.053 38.4757C185.053 36.9014 185.053 35.3271 185.251 33.7528C185.251 31.3913 185.449 28.8331 185.647 26.4716C186.241 26.6684 187.032 26.6684 187.824 26.6684C188.813 26.6684 189.803 26.8652 190.793 26.4716C192.574 26.0781 192.376 24.1102 190.793 23.7166C189.803 23.5198 188.813 23.5198 187.824 23.5198C187.23 23.5198 186.636 23.7166 185.845 23.7166C186.241 18.0098 186.636 12.303 186.834 6.59614C188.22 6.39935 189.605 6.39935 190.991 6.39935C192.376 6.39935 193.761 6.79292 195.147 6.20256C195.543 6.00578 195.741 5.6122 195.543 5.21863C194.355 4.0379 192.574 3.84112 190.991 3.84112C189.011 3.64433 186.834 3.84112 184.855 4.23469C184.261 4.43148 183.668 4.82505 183.668 5.6122C183.272 11.9094 183.074 18.2066 182.876 24.307C182.876 27.4556 182.678 30.4074 182.678 33.556C182.678 35.1303 182.678 36.5078 182.678 38.0821C182.678 39.8532 182.876 41.821 182.48 43.7889C182.282 44.3793 182.678 44.9696 183.47 45.1664C188.22 45.7568 192.97 46.1504 197.72 46.1504C200.095 45.9536 199.699 43.0018 197.522 42.805Z" fill="black"/>
<path d="M212.169 23.7167C210.982 23.9134 209.794 23.9134 208.409 23.9134C209.003 20.5681 209.794 17.4195 210.19 14.0741C210.388 12.8934 210.586 11.9094 210.784 10.7287C210.982 11.9094 211.18 13.0901 211.378 14.2709C211.773 17.4195 212.367 20.5681 212.961 23.7167C212.763 23.5199 212.367 23.7167 212.169 23.7167ZM219.294 33.556C218.503 30.2106 217.711 26.8652 216.919 23.5199C216.128 20.1745 215.534 16.8291 214.742 13.4837C214.148 10.1383 213.555 6.79296 212.565 3.44758C212.169 2.46364 210.388 2.46364 210.19 3.64436C209.992 4.82509 210.19 5.80902 209.794 6.98975C209.596 7.77689 209.201 8.56404 209.003 9.35119C208.409 11.1223 208.013 12.8934 207.419 14.6644C206.628 17.6163 206.034 20.5681 205.44 23.5199C202.669 23.5199 199.701 23.5199 196.93 24.1102C195.742 24.307 195.742 25.6845 196.93 26.0781C199.503 26.8652 202.076 26.8652 204.846 26.8652C204.451 29.4235 204.055 31.7849 203.659 34.3432C203.065 37.6885 202.273 41.2307 202.867 44.5761C202.867 45.1665 204.055 44.9697 204.253 44.5761C205.638 41.6243 205.836 37.8853 206.43 34.5399C206.826 31.9817 207.419 29.4235 207.815 26.8652C209.398 26.8652 210.784 26.8652 212.367 26.8652C212.763 26.8652 213.357 26.8652 213.753 26.8652C214.148 29.2267 214.742 31.5881 215.138 33.9496C215.534 35.7207 215.93 37.295 216.326 39.066C216.721 40.8371 216.919 42.6082 217.909 43.9857C218.898 45.56 221.471 44.7729 221.669 43.0018C221.669 41.4275 221.076 39.8532 220.68 38.2789C220.086 36.9014 219.69 35.3271 219.294 33.556Z" fill="black"/>
<path d="M246.21 42.4114L246.012 42.2146C243.835 38.4756 241.46 34.7366 239.085 30.9977C237.898 29.0298 236.71 27.2587 235.325 25.2909C234.137 23.5198 232.95 21.3551 231.367 19.9776C234.533 14.8611 237.7 9.94147 240.273 4.62821C241.065 3.2507 238.492 3.05392 237.7 3.84106C233.742 8.17038 230.179 13.2868 227.012 18.4033C226.815 13.4836 226.617 8.76074 226.023 3.84106C225.825 3.05392 224.637 3.2507 224.637 4.03785C223.846 10.5318 223.846 17.2226 223.846 23.7166C223.648 23.9134 223.648 24.1101 223.45 24.3069C222.856 25.2909 223.252 26.078 223.846 26.4716C223.846 29.0298 223.846 31.3913 223.846 33.9495C223.846 35.7206 223.846 37.4917 223.846 39.2628C223.846 40.8371 223.648 42.4113 224.044 43.9856C224.44 45.1664 226.815 45.1664 227.012 43.9856C227.606 41.0338 227.21 37.6885 227.21 34.7366C227.21 31.9816 227.21 29.4234 227.21 26.6684C227.408 26.4716 227.606 26.2748 227.606 26.078C228.2 25.0941 228.596 24.3069 229.19 23.5198C229.783 24.8973 230.773 26.078 231.367 27.2587C232.554 29.2266 233.742 31.3913 235.127 33.3591C237.502 37.4917 239.877 41.6242 242.252 45.7567C243.242 47.5278 247.2 46.5439 246.804 44.3792C246.804 43.3953 246.606 42.8049 246.21 42.4114Z" fill="black"/>
<path d="M264.809 4.82504C262.038 -0.0946443 255.903 -1.07858 250.955 1.08608C248.58 2.2668 246.601 4.23467 245.216 6.59612C244.622 7.77684 244.028 9.15435 243.83 10.5319C243.632 11.9094 243.83 13.2869 243.83 14.6644C243.83 15.4515 245.216 15.4515 245.216 14.6644C245.413 13.2869 246.205 12.1062 246.601 10.7287C246.997 9.54793 247.393 8.3672 247.986 7.38327C249.372 5.21861 251.153 3.44752 253.726 2.66038C258.476 1.47965 263.424 5.61218 262.038 10.7287C260.851 14.8612 256.497 17.4194 254.122 20.9616C251.153 25.2909 250.559 30.0138 250.955 35.1303C251.153 37.4917 255.309 36.9013 254.518 34.5399C253.726 31.3913 254.518 27.4556 256.101 24.5038C257.486 21.9455 259.466 19.9776 261.445 18.0098C265.007 14.4676 267.778 9.74471 264.809 4.82504Z" fill="black"/>
<path d="M254.917 40.2467C254.521 40.0499 254.125 40.0499 253.729 40.0499C253.333 40.0499 253.135 40.0499 252.74 40.2467C252.542 40.2467 252.146 40.4435 251.948 40.6403C251.75 40.8371 251.552 41.2307 251.354 41.6242C251.354 41.821 251.156 42.0178 251.156 42.2146V42.4114C251.156 42.6082 251.156 42.8049 251.156 43.0017C251.156 43.3953 251.354 43.9857 251.75 44.1825C252.344 44.7728 253.333 44.9696 254.323 44.7728C255.312 44.576 256.104 43.7889 256.302 42.8049C256.5 42.4114 256.302 41.821 256.302 41.4274C255.906 40.8371 255.51 40.2467 254.917 40.2467Z" fill="black"/>
</svg>
