<svg width="333" height="267" viewBox="0 0 333 267" fill="none" xmlns="http://www.w3.org/2000/svg">
<g clip-path="url(#clip0_40_8205)">
<path d="M271.658 150.931C258.514 150.931 246.19 147.096 235.784 139.974C234.415 138.878 232.772 137.782 231.403 136.687C229.486 135.317 227.843 133.674 225.926 131.756C224.282 130.113 222.639 128.195 220.996 126.278L217.71 122.169H227.843H258.24L261.252 127.099C268.92 139.152 280.148 146.274 291.923 147.37C285.625 149.835 278.778 150.931 271.658 150.931ZM307.806 142.987C304.794 144.357 301.508 145.178 298.222 145.452C285.351 146.548 272.206 140.248 263.443 126.278L261.252 122.717L259.883 120.251H213.055L219.353 128.195C232.772 145.178 252.215 153.396 271.658 153.396C272.754 153.396 274.123 153.396 275.218 153.396C276.314 153.396 277.683 153.122 278.778 153.122C279.874 153.122 280.969 152.848 282.065 152.574C282.338 152.574 282.338 152.574 282.612 152.574C285.077 152.3 287.268 151.752 289.458 150.931C289.458 150.931 289.458 150.931 289.732 150.931C292.197 150.383 294.388 149.561 296.579 148.465C297.674 147.918 298.769 147.644 299.865 146.822C302.056 145.726 304.246 144.63 306.437 143.261C307.259 143.535 307.806 143.261 307.806 142.987C308.08 142.987 308.08 142.987 307.806 142.987Z" fill="white"/>
<path d="M166.5 19.1745C163.487 19.1745 160.749 16.7092 160.749 13.4221C160.749 10.9568 162.392 8.76548 164.583 8.21764C164.035 9.0394 163.761 10.1351 163.761 11.2308C163.761 14.5178 166.226 16.9831 169.512 16.9831C170.333 16.9831 170.881 16.7092 171.429 16.7092C170.333 18.0788 168.417 19.1745 166.5 19.1745ZM271.657 0C263.716 0 257.143 6.57411 257.143 14.5178V20.818C257.143 22.1876 256.048 23.5572 254.405 23.5572C253.036 23.5572 251.667 22.4615 251.667 20.818V14.5178C251.667 13.1482 250.571 12.0525 249.202 12.0525H174.441C173.894 8.21764 170.607 5.47842 166.773 5.47842C162.94 5.47842 159.653 8.21764 158.832 12.0525H84.0711C82.7019 12.0525 81.6065 13.1482 81.6065 14.5178V20.818C81.6065 22.1876 80.5111 23.5572 78.868 23.5572C77.2249 23.5572 76.1295 22.4615 76.1295 20.818V14.5178C76.1295 6.57411 69.5572 0 61.6155 0C53.6739 0 47.1016 6.57411 47.1016 14.5178C47.1016 15.8874 48.197 16.9831 49.5662 16.9831C50.9354 16.9831 52.0308 15.8874 52.0308 14.5178C52.0308 9.31332 56.4124 4.93058 61.8894 4.93058C67.3664 4.93058 71.7479 9.31332 71.7479 14.5178V20.818C71.7479 24.9268 75.0341 28.2139 79.1419 28.2139C83.2496 28.2139 86.5358 24.9268 86.5358 20.818V16.9831H159.927C161.296 19.4484 163.761 21.3659 167.047 21.3659C170.06 21.3659 172.798 19.7223 174.167 16.9831H247.559V20.818C247.559 24.9268 250.845 28.2139 254.953 28.2139C259.06 28.2139 262.347 24.9268 262.347 20.818V14.5178C262.347 9.31332 266.728 4.93058 272.205 4.93058C277.682 4.93058 281.79 9.31332 281.79 14.5178C281.79 15.8874 282.885 16.9831 284.255 16.9831C285.624 16.9831 286.719 15.8874 286.719 14.5178C286.445 6.57411 279.873 0 271.657 0Z" fill="white"/>
<path d="M276.039 14.7918C276.039 12.3265 274.122 10.4091 271.657 10.4091C269.193 10.4091 267.276 12.3265 267.276 14.7918C267.276 15.3396 267.276 15.8875 267.55 16.4353C267.55 16.7092 267.824 16.9832 267.824 16.9832C267.824 17.2571 268.097 17.2571 268.371 17.531C269.193 18.3528 270.288 19.1745 271.657 19.1745C273.027 19.1745 274.122 18.6267 274.944 17.531C275.218 17.2571 275.491 16.7092 275.765 16.1614C276.039 15.8875 276.039 15.3396 276.039 14.7918ZM271.657 151.205C258.513 151.205 246.19 147.37 235.783 140.248C234.414 139.152 232.771 138.056 231.402 136.961C229.485 135.317 227.842 133.948 225.925 132.03C224.282 130.387 222.639 128.469 220.995 126.552L217.709 122.443H227.842H258.239L261.251 127.373C268.919 139.426 280.147 146.548 291.922 147.644C285.624 150.109 278.778 151.205 271.657 151.205ZM332.726 119.156C332.452 118.334 331.356 117.786 330.535 117.786H316.021L277.682 21.3659C276.587 22.1877 275.491 23.0094 274.396 23.2834L274.67 26.8443L311.092 117.786H231.676C245.368 83.546 264.537 36.4316 269.741 24.1051V23.5573C268.097 23.2834 267.002 22.4616 265.907 21.3659C262.347 28.7618 253.31 50.6755 226.746 117.786H213.328C212.232 117.786 211.411 118.334 211.137 119.156C210.863 119.978 210.863 121.073 211.411 121.621L217.709 129.565C222.639 135.865 228.663 141.069 235.236 145.178C236.331 146 237.426 146.548 238.522 147.096C240.713 148.465 243.177 149.561 245.368 150.383C253.857 153.944 262.894 155.861 271.931 155.861C279.599 155.861 287.541 154.492 294.935 151.752C296.03 151.478 297.125 150.931 298.221 150.657C299.316 150.383 300.138 149.835 301.233 149.287C301.781 149.013 302.329 148.739 302.876 148.465C303.698 148.191 304.519 147.644 305.067 147.37C305.615 147.096 305.889 146.822 306.436 146.548C307.258 146 308.079 145.726 308.901 145.178C309.175 145.178 309.449 144.904 309.449 144.904C309.449 144.904 309.722 144.904 309.722 144.63C316.021 140.522 321.498 135.591 326.153 129.565L332.452 121.621C333 121.073 333.273 119.978 332.726 119.156Z" fill="white"/>
<path d="M65.4496 14.7918C65.4496 12.3265 63.5327 10.4091 61.068 10.4091C58.6034 10.4091 56.6865 12.3265 56.6865 14.7918C56.6865 15.3396 56.6865 15.8875 56.9603 16.4353C57.2342 16.4353 57.508 16.7092 57.508 16.9832C57.508 17.2571 57.7819 17.2571 58.0557 17.531C58.8773 18.3528 59.9726 19.1745 61.3419 19.1745C62.7111 19.1745 63.8065 18.6267 64.6281 17.531C64.9019 17.2571 65.1758 16.7092 65.4496 16.1614C65.4496 15.8875 65.4496 15.3396 65.4496 14.7918ZM61.3419 151.205C48.1971 151.205 35.874 147.37 25.4677 140.248C24.0985 139.152 22.4554 138.056 21.0861 136.961C19.1692 135.317 17.5261 133.948 15.6092 132.03C13.9661 130.387 12.323 128.469 10.6799 126.552L7.39369 122.443H17.5261H47.9233L50.9356 127.373C58.6034 139.426 69.8312 146.548 81.6067 147.644C75.0343 150.109 68.1881 151.205 61.3419 151.205ZM122.136 119.156C121.862 118.334 120.767 117.786 119.946 117.786H105.432L67.0927 21.3659C65.9973 22.1877 64.9019 23.0094 63.8065 23.2834L64.0804 26.8443L100.502 117.786H21.0861C34.7786 83.546 53.948 36.4316 59.1511 24.1051V23.5573C57.508 23.2834 56.4126 22.4616 55.3172 21.3659C51.7572 28.7618 42.7202 50.9494 15.883 117.786H2.46442C1.36902 117.786 0.547477 118.334 0.273629 119.156C-0.000220008 119.978 -0.000220008 121.073 0.547477 121.621L6.846 129.565C11.7753 135.865 17.7999 141.069 24.3723 145.178C25.4677 146 26.5631 146.548 27.6585 147.096C29.8493 148.465 32.3139 149.561 34.5047 150.383C42.994 153.944 52.031 155.861 61.068 155.861C68.7358 155.861 76.6774 154.492 84.0713 151.752C85.1667 151.478 86.2621 150.931 87.3575 150.657C88.4529 150.383 89.2745 149.835 90.3699 149.287C90.9175 149.013 91.4652 148.739 92.0129 148.465C92.8345 148.191 93.656 147.644 94.2037 147.37C94.7514 147.096 95.0253 146.822 95.573 146.548C96.3945 146 97.2161 145.726 98.0376 145.178C98.3115 145.178 98.5853 144.904 98.5853 144.904C98.5853 144.904 98.8592 144.904 98.8592 144.63C105.158 140.522 110.635 135.591 115.29 129.565L121.589 121.621C122.41 121.073 122.684 119.978 122.136 119.156Z" fill="white"/>
<path d="M197.444 82.1764C197.444 84.9156 195.253 87.1069 192.514 87.1069C190.324 87.1069 188.681 85.7373 187.859 83.8199H185.942C180.191 83.8199 175.262 88.4765 175.262 94.5028V253.925C175.262 262.417 173.893 270.908 171.154 279.126L170.059 281.865L168.416 286.795L168.142 287.343C165.677 279.4 164.308 259.403 164.308 250.912V92.8593C164.308 87.9287 161.296 84.0938 157.462 82.7242C156.093 82.4503 154.723 82.9981 154.176 84.0938C154.176 84.0938 161.569 84.3677 161.843 94.5028V252.555C161.843 261.047 165.951 279.674 168.416 287.617L166.773 292L162.391 279.126C159.653 270.908 158.283 262.417 158.283 253.925V94.5028C158.283 88.7505 153.628 83.8199 147.603 83.8199H145.686C145.139 85.7373 143.222 87.1069 141.031 87.1069C138.292 87.1069 136.102 84.9156 136.102 82.1764C136.102 79.4371 138.292 77.2458 141.031 77.2458C143.222 77.2458 145.139 78.6154 145.686 80.5328H147.603C150.616 80.5328 153.08 79.4371 154.997 77.5197C156.914 75.6023 158.009 72.863 158.009 70.1238C158.009 67.6585 159.926 65.7411 162.391 65.7411H170.88C171.976 65.7411 173.071 66.2889 173.893 67.1107C174.714 67.9325 175.262 69.0281 175.262 70.1238C175.262 75.8762 179.917 80.8068 185.942 80.8068H187.859C188.407 78.8893 190.324 77.5197 192.514 77.5197C195.253 77.5197 197.444 79.7111 197.444 82.1764Z" fill="white"/>
<path d="M172.251 60.8105C171.703 61.0844 171.156 61.0844 170.608 61.0844H166.226C163.488 61.0844 161.023 58.8931 161.023 55.8799V28.7617C161.023 27.1182 161.845 25.7486 162.94 24.6529C163.488 24.379 164.036 24.379 164.309 24.379C163.762 25.2008 163.488 26.0225 163.488 27.1182V54.2364C163.488 56.9756 165.953 59.4409 168.691 59.4409H173.073C173.073 59.9888 172.799 60.2627 172.251 60.8105ZM168.965 22.7355H164.309C163.762 22.7355 163.214 22.7355 162.666 23.0094C160.202 23.8312 158.559 25.7486 158.559 28.4878V57.7974C158.559 60.8105 161.023 63.2758 164.309 63.2758H168.965C170.334 63.2758 171.429 62.728 172.525 61.9062C173.073 61.6323 173.346 61.0844 173.62 60.5366C174.168 59.7148 174.442 58.6191 174.442 57.5235V28.4878C174.716 25.4747 172.251 22.7355 168.965 22.7355Z" fill="white"/>
</g>
<defs>
<clipPath id="clip0_40_8205">
<rect width="333" height="292" fill="white"/>
</clipPath>
</defs>
</svg>
