<svg width="1178" height="91" viewBox="0 0 1178 91" fill="none" xmlns="http://www.w3.org/2000/svg">
<path d="M1043.04 13.8283C1041.35 16.086 1040.78 18.9081 1041.06 22.0125L1013.41 14.3927C1015.1 12.135 1015.66 9.31289 1015.38 6.20856L1043.04 13.8283Z" fill="white"/>
<path d="M1042.47 24.8345C1042.19 25.6811 1041.63 26.2455 1040.78 25.9633L1012.28 18.0614C1011.43 17.7791 1011.15 16.9325 1011.15 16.0859C1011.43 15.2392 1012 14.6748 1012.84 14.957L1041.35 22.859C1042.19 23.1412 1042.76 23.9878 1042.47 24.8345Z" fill="white"/>
<path d="M1046.15 11.2885C1045.87 12.6996 1044.46 13.8284 1043.33 13.264L1015.96 5.64425C1014.54 5.36204 1013.98 3.66876 1014.26 2.2577C1014.54 0.846635 1015.67 0 1016.8 0H1020.47C1028.09 0 1035.43 2.2577 1041.92 5.92646L1045.02 7.61973C1045.87 8.74858 1046.43 9.87743 1046.15 11.2885Z" fill="white"/>
<path d="M1032.04 60.9579C1031.75 58.1358 1032.32 55.3136 1034.01 52.7737L1006.35 45.154C1006.64 47.9761 1006.07 50.7982 1004.38 53.3382L1032.04 60.9579Z" fill="white"/>
<path d="M1036.27 51.3629C1036.56 50.5163 1035.99 49.6696 1035.15 49.3874L1006.64 41.4855C1005.79 41.2032 1005.23 41.7677 1004.95 42.6143C1004.67 43.461 1005.23 44.3076 1006.08 44.5898L1034.58 52.4917C1035.43 52.4917 1035.99 51.9273 1036.27 51.3629Z" fill="white"/>
<path d="M1033.44 64.9088C1033.73 63.4977 1033.16 61.8045 1031.75 61.5223L1004.38 53.9025C1002.96 53.6203 1001.84 54.4669 1001.55 55.878C1001.27 57.2891 1001.84 58.4179 1002.68 58.9823L1005.79 60.6756C1012.56 64.3444 1019.9 66.3199 1027.24 66.6021H1030.9C1032.32 67.1665 1033.16 66.3199 1033.44 64.9088Z" fill="white"/>
<path d="M1039.09 26.2459L1013.69 19.1906C1013.41 20.6016 1011.71 21.7305 1010.3 21.166L1006.35 37.8166C1008.04 38.381 1008.89 39.7921 1008.61 41.4853L1034.01 48.5406C1034.29 47.1296 1035.98 46.0007 1037.39 46.5652L1041.35 29.9146C1039.65 29.3502 1038.81 27.6569 1039.09 26.2459Z" fill="white"/>
<path d="M1045.87 30.479H1045.59C1044.46 30.1968 1043.05 31.0434 1042.76 32.1723L1039.94 44.8718C1039.66 46.2829 1040.51 47.6939 1041.63 47.9762H1041.92C1041.63 49.6694 1042.48 51.3627 1043.89 51.9271C1045.59 52.4916 1047 51.3627 1047.56 49.6694H1047.84C1048.97 49.9516 1050.38 49.105 1050.67 47.9762L1053.49 35.2766C1053.77 33.8655 1052.92 32.4545 1051.79 32.1723H1051.51C1051.79 30.479 1050.95 28.7857 1049.54 28.2213C1047.84 27.6569 1046.15 28.7857 1045.87 30.479Z" fill="white"/>
<path d="M1063.07 50.2341C1059.12 49.3874 1055.45 48.5408 1052.07 47.6942L1054.89 35.559C1058.28 36.6879 1061.94 37.8167 1065.61 39.2278L1063.07 50.2341Z" fill="white"/>
<path d="M1171.17 63.7801C1175.96 65.1912 1179.07 70.5532 1177.66 75.9153C1176.25 81.2773 1171.17 84.6639 1166.09 82.9706C1102.02 61.8047 1108.8 61.5224 1070.7 52.2094L1073.24 41.7676C1111.06 53.0561 1105.13 49.6695 1170.6 63.7801C1170.88 63.7801 1171.17 63.7801 1171.17 63.7801Z" fill="white"/>
<path d="M1070.13 38.0989C1070.7 38.3811 1071.26 38.6634 1071.54 39.2278C1071.82 39.7922 1071.82 40.3566 1071.82 41.2033L1069.28 51.6451C1069 53.0562 1067.59 53.9028 1066.46 53.3384C1065.9 53.0562 1065.33 52.774 1065.05 52.2096C1064.77 51.6451 1064.77 51.0807 1064.77 50.5163V50.2341L1067.31 39.7922V39.51C1067.59 38.6634 1069 37.8167 1070.13 38.0989Z" fill="white"/>
<path d="M1059.42 86.3571V82.9705C1059.42 82.1239 1058.85 80.995 1058.29 80.4306L1053.21 75.633C1052.36 74.7864 1051.23 74.5042 1050.1 74.5042H984.066C982.655 74.5042 981.526 75.0686 980.679 75.9152L976.164 80.4306C975.6 80.995 975.035 81.8417 975.035 82.9705V86.3571H1059.42Z" fill="white"/>
<path d="M975.035 87.4858C975.317 89.4613 977.011 90.8724 979.268 90.8724H992.815H1055.18C1057.44 90.8724 1059.42 89.4613 1059.42 87.4858H975.035Z" fill="white"/>
<path d="M1050.66 73.6575H983.778C982.932 73.6575 982.367 72.8108 982.367 71.9642C982.367 71.1176 982.932 70.2709 983.778 70.2709H1050.66C1051.51 70.2709 1052.07 71.1176 1052.07 71.9642C1052.07 72.8108 1051.51 73.6575 1050.66 73.6575Z" fill="white"/>
<path d="M979.27 37.2523C980.116 41.7677 980.963 46.2831 981.809 50.7985C981.809 51.3629 982.092 51.9273 982.092 52.774C982.374 53.6206 982.938 53.9028 983.785 53.9028C984.632 53.6206 984.914 52.774 984.632 52.2095C983.785 47.6941 982.938 43.1788 982.092 38.6634C982.092 38.0989 981.809 37.5345 981.809 36.6879C981.527 35.8412 980.963 35.559 980.116 35.559C979.552 35.559 979.27 36.4057 979.27 37.2523Z" fill="white"/>
<path d="M983.786 58.9825C983.786 59.5469 984.068 60.1114 984.068 60.958C984.35 61.8046 984.914 62.0868 985.761 62.0868C986.608 61.8046 986.89 61.2402 986.608 60.3936C986.608 59.8292 986.325 59.2647 986.325 58.4181C986.043 57.5715 985.479 57.2892 984.632 57.2892C983.785 57.5715 983.503 58.1359 983.786 58.9825Z" fill="white"/>
<path d="M962.619 47.4116L971.085 57.8534C971.367 58.4178 971.932 58.7001 972.214 59.2645C972.778 59.8289 973.625 59.8289 974.189 59.2645C974.754 58.7001 974.754 57.8534 974.189 57.289L965.723 46.8471C965.441 46.2827 964.876 46.0005 964.594 45.4361C964.03 44.8717 963.183 44.8717 962.619 45.4361C962.054 46.0005 962.054 46.8471 962.619 47.4116Z" fill="white"/>
<path d="M976.161 64.0624C976.443 64.6269 977.007 64.9091 977.29 65.4735C977.854 66.0379 978.701 66.0379 979.265 65.4735C979.83 64.9091 979.83 64.0624 979.265 63.498C978.983 62.9336 978.419 62.6514 978.136 62.087C977.572 61.5225 976.725 61.5225 976.161 62.087C975.879 62.3692 975.879 63.2158 976.161 64.0624Z" fill="white"/>
<path d="M952.457 65.191C956.408 66.6021 960.641 68.0131 964.592 69.4242C965.156 69.7064 965.721 69.7064 966.285 69.9886C966.85 70.2708 967.696 69.7064 967.979 68.8598C968.261 68.0131 967.696 67.4487 967.132 67.1665C963.181 65.7554 958.948 64.3444 954.997 62.9333C954.432 62.6511 953.868 62.6511 953.304 62.3689C952.739 62.0867 951.892 62.6511 951.61 63.4977C951.328 64.3444 951.892 65.191 952.457 65.191Z" fill="white"/>
<path d="M972.206 72.2463C972.771 72.5285 973.335 72.5285 973.9 72.8107C974.464 73.0929 975.311 72.5285 975.593 71.6819C975.875 70.8352 975.311 70.2708 974.746 69.9886C974.182 69.7064 973.617 69.7064 973.053 69.4242C972.489 69.142 971.642 69.7064 971.36 70.553C971.078 71.1174 971.36 71.9641 972.206 72.2463Z" fill="white"/>
<path d="M-0.0585938 89.4612L1039.94 89.4612" stroke="white" stroke-miterlimit="10"/>
</svg>
