<svg width="59" height="45" viewBox="0 0 59 45" fill="none" xmlns="http://www.w3.org/2000/svg">
<path d="M46.4082 8.20674C42.8491 5.88152 39.5637 3.69307 35.8676 1.23106C37.5103 -0.410277 39.2899 -0.136721 40.9326 0.683948C45.9975 3.14595 51.1994 5.60796 56.1275 8.61708C59.9604 10.9423 59.9604 13.8146 56.5381 15.3192C53.6634 16.687 50.7887 17.7812 47.914 19.2858C46.5451 19.9697 45.5869 21.3374 44.3549 22.1581C43.8073 22.5684 42.9859 22.5684 42.1646 22.842C41.8908 21.7478 41.0695 20.5168 41.2064 19.8329C41.7539 18.6019 42.7122 17.7812 43.6704 16.687C44.0811 16.1399 44.6286 15.7295 45.8606 14.6353C44.0811 14.6353 42.9859 14.3618 42.1646 14.6353C37.3734 16.4134 32.3084 17.7812 27.9279 20.2432C18.0718 25.7143 9.17387 32.5532 3.83513 43.0852C3.56134 43.7691 3.28756 44.4529 2.74 44.7265C2.32933 45.0001 1.50798 45.1368 0.960416 44.7265C0.549743 44.4529 -0.134711 43.3587 0.00217969 42.9484C0.139071 41.4438 0.275962 39.9393 0.960416 38.845C2.87689 35.6991 4.79336 32.5532 7.12051 29.8177C15.0602 20.9271 24.5057 14.225 36.0045 10.3952C39.153 9.30097 42.5753 8.89063 46.4082 8.20674Z" fill="black"/>
</svg>
