<svg width="57" height="75" viewBox="0 0 57 75" fill="none" xmlns="http://www.w3.org/2000/svg">
<path d="M7.24297 0C6.75992 2.41158 6.51839 3.85852 6.27687 5.30547C3.13704 15.9164 4.58619 26.2862 7.72602 36.4148C8.69212 39.5498 10.8658 42.6849 13.0396 45.0965C20.7684 53.0547 29.9464 57.8778 41.5396 60.0482C40.5735 57.1543 38.1582 56.1897 36.4675 54.5016C35.0184 53.0547 33.3277 51.6077 32.1201 49.9196C31.637 49.4373 31.637 47.9904 32.1201 47.2669C32.6031 46.7846 33.8108 46.3022 34.5353 46.5434C36.226 47.2669 38.1582 47.9904 39.6074 49.1961C44.4379 52.8135 49.5099 56.672 54.3404 60.2894C57.7218 62.9421 57.9633 64.8714 54.582 67.5241C49.2684 71.865 42.9887 74.2765 36.226 75C35.0184 75.2412 33.8108 74.5177 32.3616 74.0354C35.2599 68.9711 41.2981 70.418 44.6794 66.8006C42.5057 66.3183 40.815 65.836 39.1243 65.3537C28.7387 62.9421 19.5608 58.3601 11.832 51.3666C6.51839 46.5434 3.13704 40.7556 1.92941 33.7621C-0.00279372 26.2862 -0.72737 18.5691 0.963308 10.8521C1.68788 7.23473 2.41246 3.13505 7.24297 0Z" fill="black"/>
</svg>
