<svg width="39" height="53" viewBox="0 0 39 53" fill="none" xmlns="http://www.w3.org/2000/svg">
<path d="M29.0573 5.90319C26.7328 6.8015 24.2791 7.82813 21.9546 8.59811C20.6632 9.11142 19.2427 9.49641 17.9513 9.75307C16.7891 10.0097 15.756 9.8814 15.1103 8.59811C15.4977 8.34145 15.6268 7.82813 16.1434 7.6998C21.9546 5.38987 27.895 2.95162 33.8354 0.770019C35.256 0.256702 37.0639 -0.513274 38.3553 0.898349C39.6467 2.18164 38.6136 3.72159 38.3553 5.00489C37.5805 7.95646 36.8056 10.908 35.9017 13.7313C35.3851 15.2712 34.352 16.6829 33.3189 17.9661C33.0606 18.3511 32.0275 18.4795 31.6401 18.3511C31.2526 18.0945 30.8652 17.3245 30.9944 16.8112C31.5109 14.8862 32.1566 12.9613 32.8023 11.1647C33.0606 10.523 33.0606 9.75307 33.3189 8.46978C31.2526 10.0097 29.5738 11.1647 28.0242 12.3197C21.0507 17.4528 14.5937 23.2276 9.81556 30.4141C7.74934 33.6223 6.07053 37.2155 4.52086 40.8088C3.87516 42.2204 3.87516 44.1453 4.13344 45.9419C4.39172 48.1235 5.81225 49.1502 8.13675 49.2785C8.65331 49.2785 9.16987 49.2785 9.81556 49.2785C18.2096 47.6102 25.6997 44.402 30.7361 37.3439C31.6401 36.0606 32.2858 34.649 32.6732 33.109C33.1897 31.1841 32.0275 30.0291 29.9613 30.1574C25.5705 30.5424 22.2129 32.724 20.0175 36.3172C19.6301 36.8306 20.0175 37.7289 20.0175 38.6272C18.4679 38.8838 17.5639 37.9855 17.693 36.5739C17.8222 35.5473 18.2096 34.5206 18.7262 33.6223C21.0507 29.7724 24.6666 27.5908 29.1864 26.9492C33.9646 26.3076 36.9348 29.2591 36.0308 33.879C35.7725 35.1623 35.256 36.4456 34.6103 37.6005C32.6732 41.0654 29.9613 43.8887 26.7328 46.1986C21.9546 49.4068 16.7891 51.5884 11.2361 52.7434C4.0043 54.155 -0.515565 50.5618 0.000991795 43.3753C0.130131 40.9371 0.904965 38.4988 1.80894 36.1889C4.13344 30.5424 7.87848 25.5376 12.0109 21.046C16.4017 16.2979 21.4381 12.1913 26.7328 8.34145C27.6368 7.6998 28.4116 7.05816 29.3156 6.41651C29.3156 6.28818 29.1864 6.15985 29.0573 5.90319Z" fill="black"/>
</svg>
