<svg width="85" height="45" viewBox="0 0 85 45" fill="none" xmlns="http://www.w3.org/2000/svg">
<path d="M17.859 5.34656C10.8511 9.57924 6.78191 15.3713 0 18.2674C0.452128 17.599 0.678191 16.7079 1.13032 16.0396C5.19947 11.807 9.26862 7.57429 13.5638 3.78716C17.1809 0.445574 20.1197 1.11389 22.1543 5.79211C23.2846 8.46537 23.9628 11.3614 24.641 14.2575C25.9973 20.0495 26.9016 25.6188 28.258 31.4109C28.7101 33.8614 29.6144 36.0891 30.2926 38.3169C34.3617 37.203 63.0718 16.4852 70.0798 9.35646C66.0106 10.4703 62.6197 11.3614 59.2287 12.0297C57.4202 12.4753 54.7074 13.8119 53.8032 11.5842C52.6729 8.68815 56.2899 8.91092 58.0984 8.2426C65.1064 5.56934 72.3404 3.11884 79.3484 0.445574C83.4175 -0.89106 85.9043 0.668346 85 4.2327C82.7394 12.698 79.8005 20.9406 77.0878 29.1832C76.8617 30.0743 75.9574 30.7426 75.2793 31.8565C71.8883 28.9604 73.9229 26.0644 74.375 23.1683C74.8271 20.2723 75.7314 17.3763 76.8617 13.3664C75.0532 14.4802 74.1489 15.1485 73.4707 15.5941C61.9415 24.0594 50.6383 32.5248 39.109 40.9901C37.9787 41.6584 36.8484 42.5495 35.7181 43.2178C30.2926 46.3367 27.3537 45.2228 25.0931 39.4307C24.4149 37.6485 23.7367 35.6436 23.5106 33.8614C22.1543 27.401 21.0239 20.7178 19.8936 14.2575C19.2154 11.5842 18.5372 8.91092 17.859 5.34656Z" fill="black"/>
</svg>
