<svg width="115" height="32" viewBox="0 0 115 32" fill="none" xmlns="http://www.w3.org/2000/svg">
<path d="M16.0408 18.9892C17.1467 14.5688 16.8702 9.45786 16.3173 5.03754C16.3173 4.89941 16.3173 4.89941 16.179 4.89941C20.0497 4.89941 23.9203 6.97143 23.7821 11.5299C23.7821 15.9502 19.9114 17.8841 16.0408 18.9892ZM11.7554 4.34687C10.7878 4.89941 11.7554 5.86635 12.5849 5.59008C13.5525 5.31381 14.5202 5.03754 15.4878 5.03754L15.3496 5.17567C15.0731 7.6621 14.7967 10.1485 14.5202 12.7731C14.382 14.9832 13.9672 17.3315 13.9672 19.6798C13.4143 19.818 12.9996 19.9561 12.4466 19.9561C11.6172 20.0942 11.6172 21.1993 12.4466 21.3375C18.5291 22.5807 27.238 17.1934 26.2703 10.4248C25.4409 3.24179 17.4232 1.3079 11.7554 4.34687Z" fill="black"/>
<path d="M35.9452 18.2985C33.8717 19.2654 31.7981 17.4697 31.1069 15.5358C30.8304 14.4307 30.9687 12.3587 31.6599 10.7011C32.2128 11.1155 33.1805 11.1155 33.5952 10.7011C38.157 6.83328 40.0923 16.5027 35.9452 18.2985ZM34.8393 7.38582C30.554 4.8994 27.9275 11.9443 28.3422 15.1214C28.8951 18.9891 33.0422 21.6137 36.7746 20.3705C40.507 19.1273 42.0276 13.8782 40.507 10.4248C39.5394 8.21463 37.0511 7.10955 34.8393 7.38582Z" fill="black"/>
<path d="M78.2449 18.851C76.8625 19.2654 75.7566 19.956 74.5125 20.5086C71.7477 21.7518 68.5683 21.3374 68.1535 17.7459C68.0153 17.0552 68.0153 16.3645 68.1535 15.812C69.2594 15.6739 70.2271 15.6739 71.1948 15.5357C73.4066 15.3976 76.033 15.2595 77.0007 12.9112C77.4154 12.0824 76.1713 11.8061 75.6183 12.0824C73.2683 12.773 70.9183 13.0493 68.43 13.1874C68.8447 10.9773 69.3977 8.62899 69.8124 6.6951C69.9506 5.59002 67.6006 5.31375 67.4624 6.41883C67.0477 8.35272 66.2183 10.8391 65.8035 13.3256C63.8682 13.4637 61.9329 13.6018 60.1358 14.0162C61.38 11.8061 62.7623 9.59593 63.3153 7.24764C63.73 5.59002 61.2417 5.17562 60.4123 6.2807C58.7534 8.49085 57.6475 11.3917 56.2652 13.8781C55.1593 15.6739 54.0534 17.4696 52.8093 19.2654C51.8416 18.0221 51.1504 16.2264 50.4592 14.845C49.3533 12.9112 48.2474 10.8391 46.7268 9.04339C46.5886 8.90526 46.4504 8.76712 46.3121 8.76712C46.4504 7.52391 46.5886 6.2807 46.7268 4.89935C46.7268 4.20868 45.3445 4.07054 45.2062 4.76121C44.1003 10.2866 43.4091 15.812 42.718 21.3374C42.5797 22.5806 45.068 22.5806 45.068 21.3374C45.3445 18.2984 45.7592 15.2595 46.0356 12.0824C46.7268 14.0162 47.8327 15.9501 48.6621 17.7459C49.6298 19.5416 50.4592 21.3374 51.9798 22.7187C52.8092 23.4094 54.0534 23.1331 54.7446 22.3043C56.4034 20.2323 57.924 17.884 59.3064 15.5357C61.3799 15.812 63.5917 15.812 65.6653 15.6739C65.5271 18.0222 65.9418 20.2323 67.7389 21.8899C71.1948 25.2052 77.2772 23.2713 79.489 19.4035C79.3508 19.1272 78.5213 18.7128 78.2449 18.851Z" fill="black"/>
<path d="M85.9882 0.340941C85.5735 -0.211598 84.3293 -0.0734623 84.3293 0.617212C84.1911 2.27483 84.4676 3.79431 84.3293 5.45193C84.1911 7.66209 83.4999 9.59598 82.394 11.5299C81.8411 12.3587 83.3617 12.9112 83.9146 12.2205C86.4029 9.18158 88.4764 3.93245 85.9882 0.340941Z" fill="black"/>
<path d="M94.5583 15.5357C94.1436 15.2595 93.3141 15.1213 92.8994 14.8451C92.4847 14.1544 92.07 13.4637 91.517 12.7731C91.7935 11.8061 92.4847 11.2536 93.4524 11.2536C94.5583 11.9442 96.4936 10.9773 95.2495 9.7341C92.2082 6.83327 87.6464 10.9773 88.7523 14.4307C89.4435 16.779 92.3465 16.779 93.7288 18.7129C96.4936 22.8569 88.0611 20.0942 86.817 20.2323C85.9876 20.3705 85.1581 20.7849 85.4346 21.7518C86.1258 25.4814 94.973 25.067 97.0465 22.7188C98.4289 21.0611 97.876 18.7128 96.6318 17.1934C96.0789 16.6408 95.3877 15.9502 94.5583 15.5357Z" fill="black"/>
<path d="M108.103 3.10369C107.412 4.07063 107.412 5.31384 107.274 6.41892C107.136 8.07654 106.445 9.59602 105.615 10.9774C105.339 11.3918 106.168 11.5299 106.445 11.2536C107.965 9.45789 110.868 5.45198 109.209 3.10369C109.071 2.82742 108.38 2.82742 108.103 3.10369Z" fill="black"/>
<path d="M114.048 2.6892C113.634 2.27479 112.942 2.27479 112.528 2.55106C111.56 3.1036 111.422 4.20868 111.145 5.17562C110.869 6.2807 110.454 7.24764 109.901 8.21459C109.21 9.31967 111.145 10.0103 111.837 9.18153C112.528 8.21459 113.219 7.10951 113.772 6.00443C114.187 4.89936 114.739 3.65614 114.048 2.6892Z" fill="black"/>
<path d="M3.04191 21.7519C3.45662 20.5087 1.10661 20.0943 0.691901 21.1994C-0.552223 24.3765 -0.414 30.4544 3.59484 31.5595C3.87132 31.6976 4.56249 31.5595 4.56249 31.0069C4.42426 29.6256 3.59484 28.5205 3.18013 27.2773C2.48895 25.4815 2.35073 23.5476 3.04191 21.7519Z" fill="black"/>
<path d="M8.43821 24.2383C8.0235 22.5807 4.70581 23.1332 5.25876 25.0671C5.67347 26.4484 6.22643 27.8298 6.91762 29.073C7.6088 30.3162 8.29997 31.5594 9.82058 31.9738C10.5118 32.112 11.4794 31.6976 11.4794 30.8687C11.4794 29.7637 10.3735 28.6586 9.82058 27.6917C9.26763 26.7247 8.85292 25.4815 8.43821 24.2383Z" fill="black"/>
</svg>
