<svg width="259" height="63" viewBox="0 0 259 63" fill="none" xmlns="http://www.w3.org/2000/svg">
<g clip-path="url(#clip0_0_3040)">
<path d="M70.8954 4.56772C73.3966 4.56772 73.3966 1.37894 70.8954 1.37894C68.3942 1.37894 68.3942 4.56772 70.8954 4.56772Z" fill="black"/>
<path d="M74.3438 19.9083C72.5326 18.9603 71.9288 13.8755 71.4976 12.0657C71.2389 10.8591 68.8239 10.6867 68.3065 11.7209C67.3577 13.3584 66.3228 14.9959 65.2016 16.5472C61.4929 21.632 59.078 24.4761 61.148 16.7196C61.148 15.0821 62.0104 13.617 60.5442 12.3242C59.078 11.0315 56.5769 11.1176 54.7657 12.0657C54.7657 11.8933 54.8519 11.7209 54.8519 11.6347C55.2832 10.2558 53.127 9.91108 52.437 10.7729C49.6771 14.0479 46.7447 16.9781 43.3811 19.5636C43.8985 17.6676 44.416 15.6854 45.0197 13.7893C46.141 9.91108 47.8659 6.20519 48.8146 2.24076C49.4184 -4.96861e-06 45.796 -0.775655 44.6748 0.861828C41.0524 6.46374 39.3274 13.8755 37.8612 20.684C36.5675 19.3051 35.2738 17.9261 34.0664 16.5472C35.6188 13.617 37.2575 10.4282 37.1713 7.15321C37.1713 6.03283 35.6188 6.03283 35.0151 6.63611C33.1176 8.44596 31.9102 10.8591 30.7027 13.186C29.8403 12.4104 29.064 11.6347 28.1153 10.9453C27.7703 10.6867 26.6491 10.7729 26.9079 11.4624C27.5116 13.0999 28.3741 14.565 29.3228 16.0301C28.1153 18.357 26.8216 20.684 25.5279 23.0109C25.0104 20.7702 24.7517 18.357 24.2342 16.2886C23.5442 13.0137 22.6818 9.91108 21.388 6.80848C21.2156 6.20519 19.8356 6.03283 19.9218 6.80848C20.0081 9.99726 20.4393 12.9275 21.0431 16.0301C21.8193 19.6498 23.458 24.0451 23.0267 27.751C22.8542 29.7332 26.1316 29.8194 26.9941 28.6129C28.8915 25.855 30.7027 22.8386 32.2552 19.9083C33.9801 21.9767 35.7051 24.0451 37.2575 26.1135C38.2062 27.4925 41.0524 27.3201 41.5699 25.5964C42.0011 24.3037 42.3461 22.9248 42.7773 21.632C45.7097 19.6498 48.5559 17.409 51.1433 15.0821C50.6258 17.5814 50.3671 20.1669 50.1083 22.7524C49.7633 25.7688 49.4184 28.0096 49.5908 35.5075C49.4184 36.5417 50.6258 39.041 51.4883 36.9726C53.0407 24.5622 53.0407 22.2353 54.2482 14.0479C57.1806 11.7209 58.2156 15.1683 58.0431 17.4952C57.9568 18.1847 56.8356 19.736 56.9218 20.4254C57.0943 22.1491 58.2156 23.6142 59.9405 23.8728C62.5279 24.3899 65.8915 21.0287 67.789 18.2709C68.3065 21.2873 69.7727 24.0451 72.9638 23.959C75.465 23.959 76.7587 21.1149 74.3438 19.9083Z" fill="black"/>
<path d="M85.729 23.959C87.3677 22.7524 88.144 20.7702 87.0227 18.9603C86.2465 17.7538 85.0391 16.9781 83.9179 16.1163C83.3141 15.5992 82.6241 15.0821 82.1067 14.4788C81.1579 13.5308 80.2955 11.1176 82.8829 11.7209C83.6591 11.8933 84.6078 10.8591 83.5729 10.5144C81.4167 9.65252 77.4493 10.342 78.1393 13.4446C78.4843 15.2544 80.468 16.5472 81.6754 17.7538C82.1067 18.1847 83.5729 19.3051 83.5729 20.0807C83.4866 21.0287 82.1929 21.8906 81.3304 21.4596C80.468 21.1149 79.9505 19.8222 79.2605 19.1327C78.1393 18.0985 75.9831 18.788 75.8106 20.2531C75.2932 25.1655 82.7966 26.1135 85.729 23.959Z" fill="black"/>
<path d="M90.7335 23.7866C95.0459 21.8906 99.0132 26.0274 103.584 25.0794C106.172 24.5623 109.277 22.1491 107.81 19.2189C107.12 17.9261 105.137 17.3229 104.016 18.4432C102.722 19.6498 102.032 20.5116 100.134 20.2531C98.582 19.9945 97.2021 19.5636 95.6496 19.4774C95.3909 19.4774 95.1321 19.4774 94.7871 19.4774C96.5983 17.409 98.3233 15.3406 99.7032 13.0999C100.479 11.8933 99.272 10.9453 98.1508 10.8591C95.8221 10.6006 92.631 10.0835 90.3023 10.6006C89.5261 10.7729 89.0948 10.8591 88.8361 11.6348C88.4911 12.5828 90.3023 12.9275 90.6473 12.0657C90.6473 12.0657 93.3209 12.7551 95.3909 13.1861C93.2347 16.1163 91.0785 19.1327 88.5774 21.8906C87.1974 23.2695 89.6986 24.3037 90.7335 23.7866Z" fill="black"/>
<path d="M138.687 14.9097C137.479 14.0479 135.927 13.7893 134.547 13.3584C133.857 13.1861 130.924 12.669 131.873 11.2038C132.563 10.1696 134.547 11.6348 135.151 12.0657C136.789 13.1861 139.377 11.29 137.22 9.99727C135.323 8.7907 132.649 7.67032 130.752 9.48017C129.544 10.6006 129.544 12.669 130.752 13.7032C131.701 14.565 133.081 15.0821 134.202 15.6854C134.633 15.9439 135.927 16.5472 136.185 17.0643C136.875 18.1847 135.668 19.0465 134.806 19.4774C133.253 20.1669 130.752 20.5116 129.631 18.8742C128.854 17.7538 129.286 16.6334 127.906 16.0301C127.561 15.8577 127.043 15.7716 126.612 16.0301C122.817 18.0985 127.13 22.1491 129.458 22.9248C132.304 23.8728 136.099 23.1833 138.428 21.2873C140.498 19.4774 140.929 16.5472 138.687 14.9097Z" fill="black"/>
<path d="M160.075 10.9453C160.506 7.84268 155.848 7.15321 154.727 9.91108C154.037 11.5486 154.123 13.2722 154.296 14.9959C154.296 15.5992 154.382 16.3748 154.468 17.1505C153.347 15.5992 152.485 13.7893 151.881 11.9795C151.364 10.5144 149.121 10.1696 148 11.2038C146.534 12.4966 145.671 14.0479 145.068 15.6854C144.895 14.1341 144.809 12.5828 144.636 11.0315C144.464 9.8249 142.308 9.39398 141.876 10.6867C141.014 13.5308 139.72 21.8044 144.033 22.58C147.137 23.1833 148.259 20.0807 149.38 17.409C151.019 20.5978 153.434 23.959 156.452 23.1833C161.196 21.9767 159.643 14.4788 160.075 10.9453Z" fill="black"/>
<path d="M167.493 12.7551C168.959 13.0999 170.597 12.669 171.805 13.8755C173.444 15.513 172.581 18.3571 170.684 19.4774C168.7 20.5978 166.371 18.788 166.026 16.7196C165.854 15.3406 166.544 13.8755 167.493 12.7551ZM172.322 22.6662C176.203 21.2873 178.532 16.6334 176.376 12.9275C175.427 11.29 173.789 10.0835 172.064 9.56636C170.77 9.22163 168.872 8.96308 167.579 9.65254C167.493 9.65254 167.406 9.65254 167.32 9.65254C163.439 10.5144 160.938 14.6512 162.49 18.4432C164.043 22.0629 168.7 23.959 172.322 22.6662Z" fill="black"/>
<path d="M158.09 29.7332C159.297 37.4035 171.63 36.0246 176.891 34.2148C187.069 30.6812 182.411 21.2011 183.188 13.0999C183.36 11.1176 179.651 11.1176 179.393 13.0999C178.875 17.7537 181.721 24.3037 179.048 28.4405C177.236 31.1983 173.269 31.8016 170.164 31.974C166.283 32.2325 164.041 31.026 161.022 28.699C160.246 28.2681 157.831 28.2681 158.09 29.7332Z" fill="black"/>
<path d="M181.465 7.58413C181.897 7.84268 182.328 8.01505 182.759 8.10123C183.277 8.18742 183.794 8.10123 184.225 7.84268C184.398 7.7565 184.57 7.67032 184.657 7.58413C184.915 7.32558 185.088 7.06703 185.26 6.7223C185.347 6.54993 185.433 6.37757 185.519 6.2052C185.605 6.11902 185.605 6.03283 185.692 5.94665V5.86047C185.692 5.86047 185.692 5.86047 185.692 5.94665C185.778 5.6881 185.864 5.51573 185.864 5.171C185.864 4.6539 185.519 4.05062 185.088 3.70588C184.657 3.36115 184.139 3.18878 183.622 3.18878C183.104 3.1026 182.5 3.18878 181.983 3.44733C181.81 3.53352 181.638 3.70588 181.465 3.79207C181.207 4.05062 180.948 4.30917 180.862 4.74008C180.689 5.08482 180.775 5.42955 180.775 5.77428C180.775 5.94665 180.775 6.2052 180.775 6.37757C180.775 6.7223 181.034 7.32558 181.465 7.58413Z" fill="black"/>
<path d="M192.762 12.0657C195.694 10.6867 196.643 12.7551 193.883 14.2203C192.848 14.7374 191.555 14.9959 190.261 15.1683C190.606 13.7893 191.382 12.669 192.762 12.0657ZM186.638 17.5814C186.811 19.5636 187.673 21.5458 189.14 22.9248C193.711 27.1478 203.025 22.8386 206.389 19.0465C208.028 17.2367 204.923 15.8577 203.543 16.1163C201.214 16.5472 199.317 17.7538 197.247 18.8742C196.212 19.3913 195.091 20.2531 193.883 20.4255C191.296 20.8564 190.175 19.3051 190.002 17.409C194.228 17.0643 200.093 15.9439 199.662 11.8933C199.231 7.32559 191.813 8.53216 189.398 10.4282C187.846 11.6348 186.983 13.5308 186.725 15.5992C186.638 15.5992 186.466 15.6854 186.38 15.6854C185.086 16.0301 185.259 17.6676 186.638 17.5814Z" fill="black"/>
</g>
<defs>
<clipPath id="clip0_0_3040">
<rect width="259" height="63" fill="white"/>
</clipPath>
</defs>
</svg>
