<svg width="215" height="30" viewBox="0 0 215 30" fill="none" xmlns="http://www.w3.org/2000/svg">
<path d="M30.2548 13.8211C30.0823 14.3382 28.7886 17.7855 28.0124 17.6132C27.4949 17.527 27.8399 15.6309 27.8399 15.3724C27.8399 14.8553 28.0124 14.252 28.2711 13.8211C28.3573 12.9593 28.8748 12.6145 29.8236 12.7007C29.2198 13.1316 29.7373 13.5625 30.2548 13.7349V13.8211ZM7.05431 10.4599C6.53682 11.3218 4.72564 15.2 3.69067 13.9935C3.17319 13.2178 5.84685 10.2876 7.05431 10.4599C7.14055 10.4599 7.05431 10.4599 7.05431 10.4599ZM31.8935 4.77185C31.4622 6.66788 31.2897 8.6501 31.031 10.5461C30.686 10.2876 30.1685 10.1152 29.651 10.1152C26.5462 10.2014 25.4249 14.4244 25.5112 16.9237C25.3387 16.9237 25.2525 17.0099 25.08 17.1822C24.39 17.8717 22.4925 12.1836 21.8888 11.6665C21.2851 11.2356 20.6813 10.977 19.9914 10.977C18.1802 10.977 16.9727 12.2698 16.1965 13.8211C16.024 12.7869 15.8515 11.8389 15.679 10.8047C15.5065 9.85666 14.2991 9.51193 13.6091 10.2014C12.6604 11.1494 12.2291 11.9251 11.7117 13.1316C11.1079 14.5106 11.4529 15.8033 9.81421 15.2C8.08927 14.5967 9.12424 12.6145 9.55548 11.1494C9.72797 10.3738 9.03799 9.85666 8.34801 9.85666C8.34801 9.77048 8.26177 9.6843 8.17552 9.59811C4.81188 7.27116 -1.65666 14.3382 1.1895 17.4408C1.53449 17.7855 2.05198 17.9579 2.56946 17.8717C4.03566 17.527 5.24311 16.6651 6.36433 15.6309C6.45057 17.2684 7.14055 18.5612 9.03799 18.9059C12.1429 19.3368 13.2641 16.579 14.3853 13.9935C14.7303 15.2862 14.989 16.579 15.2478 17.9579C15.4203 18.8197 16.8865 19.0783 17.1452 18.1303C17.404 17.0099 17.749 14.3382 18.6114 13.7349C20.4226 12.4422 20.5951 14.0796 21.1126 15.1138C21.8026 16.4928 21.7163 18.5612 23.2688 19.423C24.3037 20.0263 25.5112 19.8539 26.2012 19.1645C27.1499 20.5434 28.9611 20.1125 30.4273 18.475C30.7723 18.1303 31.031 17.6993 31.2898 17.3546C31.2898 17.6132 31.2898 17.8717 31.2898 18.1303C31.2898 19.5092 33.7909 19.423 33.7909 18.0441C33.7909 13.7349 33.9634 9.42575 34.3946 5.11658C34.3946 3.73765 32.066 3.65147 31.8935 4.77185Z" fill="black"/>
<g clip-path="url(#clip0_1007_886)">
<path d="M116.99 16.8055C118.093 12.3611 117.818 7.22222 117.266 2.77777C117.266 2.63888 117.266 2.63888 117.128 2.63888C120.988 2.63888 124.848 4.72222 124.71 9.30555C124.71 13.75 120.85 15.6944 116.99 16.8055ZM112.717 1.94444C111.752 2.49999 112.717 3.47222 113.544 3.19444C114.509 2.91666 115.474 2.63888 116.439 2.63888L116.301 2.77777C116.026 5.27777 115.75 7.77777 115.474 10.4167C115.336 12.6389 114.923 15 114.923 17.3611C114.371 17.5 113.958 17.6389 113.406 17.6389C112.579 17.7778 112.579 18.8889 113.406 19.0278C119.472 20.2778 128.156 14.8611 127.191 8.05555C126.364 0.972216 118.369 -0.972229 112.717 1.94444Z" fill="black"/>
<path d="M136.84 16.1111C134.772 17.0833 132.705 15.2778 132.016 13.3333C131.74 12.2222 131.878 10.1389 132.567 8.47221C133.118 8.88888 134.083 8.88888 134.497 8.47221C139.046 4.58333 140.976 14.3055 136.84 16.1111ZM135.737 5.13888C131.464 2.63888 128.845 9.72221 129.259 12.9167C129.81 16.8055 133.945 19.4444 137.667 18.1944C141.389 16.9444 142.905 11.6667 141.389 8.19444C140.424 5.97221 138.081 4.8611 135.737 5.13888Z" fill="black"/>
<path d="M168.959 0.972228C168.545 0.416672 167.305 0.555561 167.305 1.25001C167.167 2.91667 167.442 4.44445 167.305 6.11112C167.167 8.33334 166.477 10.2778 165.375 12.2222C164.823 13.0556 166.34 13.6111 166.891 12.9167C169.234 9.86112 171.44 4.58334 168.959 0.972228Z" fill="black"/>
<path d="M195.288 13.3333C194.874 13.0555 194.047 12.9167 193.633 12.6389C193.22 11.9444 192.806 11.25 192.255 10.5555C192.531 9.58333 193.22 9.02777 194.185 9.02777C195.288 9.72221 197.355 8.74999 196.115 7.63888C193.082 4.72221 188.533 8.88888 189.636 12.3611C190.325 14.7222 193.22 14.7222 194.598 16.6667C197.355 20.8333 188.947 18.0555 187.706 18.1944C186.879 18.3333 186.052 18.75 186.328 19.7222C187.017 23.4722 195.839 23.0555 197.907 20.6944C199.285 19.0278 198.734 16.6667 197.493 15.1389C196.942 14.4444 196.115 13.75 195.288 13.3333Z" fill="black"/>
<path d="M208.797 0.833344C208.108 1.80557 208.108 3.05557 207.97 4.16668C207.832 5.83334 207.143 7.36112 206.316 8.75001C206.04 9.16668 206.867 9.30557 207.143 9.02779C208.659 7.22223 211.554 3.19446 209.9 0.833344C209.762 0.555567 209.073 0.416678 208.797 0.833344Z" fill="black"/>
<path d="M214.724 0.416681C214.311 1.42381e-05 213.621 1.42381e-05 213.208 0.277792C212.243 0.833348 212.105 1.94446 211.829 2.91668C211.554 4.02779 211.14 5.00001 210.589 5.97224C209.9 6.94446 211.829 7.6389 212.519 6.66668C213.208 5.69446 213.897 4.58335 214.449 3.47224C214.862 2.50001 215.413 1.3889 214.724 0.416681Z" fill="black"/>
<path d="M104.033 19.5833C104.446 18.3333 102.103 17.9167 101.689 19.0278C100.449 22.2222 100.587 28.3333 104.584 29.4444C104.86 29.5833 105.549 29.4444 105.549 28.8889C105.411 27.5 104.584 26.3889 104.171 25.1389C103.481 23.3333 103.344 21.3889 104.033 19.5833Z" fill="black"/>
<path d="M109.409 22.0833C108.995 20.4167 105.687 20.9722 106.238 22.9167C106.652 24.3056 107.203 25.6944 107.892 26.9444C108.581 28.1944 109.271 29.4444 110.787 29.8611C111.476 30 112.441 29.5833 112.441 28.75C112.441 27.6389 111.338 26.5278 110.787 25.5556C110.236 24.5833 109.822 23.3333 109.409 22.0833Z" fill="black"/>
<path d="M187.844 14.5833C186.466 15 185.363 15.6944 184.122 16.25C181.365 17.5 178.195 17.0833 177.781 13.4722C177.643 12.7778 177.643 12.2222 177.781 11.5278C178.884 11.3889 179.849 11.3889 180.814 11.25C183.019 11.1111 185.639 10.9722 186.603 8.61112C187.017 7.77778 185.776 7.50001 185.225 7.77778C182.882 8.47223 180.538 8.75001 178.057 8.8889C178.47 6.66667 179.022 4.30556 179.435 2.36112C179.573 1.25001 177.23 0.972229 177.092 2.08334C176.678 4.02778 175.851 6.52778 175.438 9.02778V9.30556C174.059 9.44445 172.129 9.44445 172.129 9.44445C172.129 9.44445 169.924 10.1389 170.2 10.9722C170.475 11.6667 173.646 11.5278 175.162 11.3889V11.5278C175.024 13.8889 175.438 16.1111 177.23 17.7778C180.676 21.1111 186.741 19.1667 188.947 15.2778C188.947 14.8611 188.12 14.4445 187.844 14.5833Z" fill="black"/>
<path d="M160.826 11.8056C162.066 9.72222 163.445 7.36111 163.996 5C164.41 3.19445 161.929 2.77778 161.102 3.88889C159.447 6.11111 158.345 9.02778 156.966 11.5278C155.863 13.3333 154.761 15.1389 153.52 16.9444C152.555 15.6944 151.866 14.0278 151.177 12.5C150.074 10.5556 148.971 8.47222 147.592 6.66667C147.455 6.52778 147.317 6.38889 147.179 6.38889C147.317 5.13889 147.455 3.88889 147.592 2.5C147.592 1.80556 146.214 1.52778 146.076 2.36111C144.973 7.91667 144.146 13.4722 143.595 19.0278C143.457 20.2778 145.938 20.2778 145.938 19.0278C146.214 15.9722 146.628 12.9167 146.903 9.72222C147.592 11.6667 148.695 13.6111 149.522 15.4167C150.487 17.2222 151.314 18.8889 152.831 20.4167C153.658 21.1111 154.898 20.8333 155.588 20C157.242 17.9167 158.758 15.5556 160.137 13.1944" fill="black"/>
</g>
<defs>
<clipPath id="clip0_1007_886">
<rect width="114" height="30" fill="white" transform="translate(101)"/>
</clipPath>
</defs>
</svg>
