<svg width="35" height="16" viewBox="0 0 35 16" fill="none" xmlns="http://www.w3.org/2000/svg">
<path d="M30.2548 9.8211C30.0823 10.3382 28.7886 13.7855 28.0124 13.6132C27.4949 13.527 27.8399 11.6309 27.8399 11.3724C27.8399 10.8553 28.0124 10.252 28.2711 9.8211C28.3573 8.95926 28.8748 8.61453 29.8236 8.70071C29.2198 9.13163 29.7373 9.56254 30.2548 9.73491C30.2548 9.73491 30.2548 9.8211 30.2548 9.8211ZM7.05431 6.45995C6.53682 7.32178 4.72564 11.2 3.69067 9.99346C3.17319 9.21781 5.84685 6.28758 7.05431 6.45995C7.05431 6.45995 7.14055 6.45995 7.05431 6.45995ZM31.8935 0.77185C31.4622 2.66788 31.2897 4.6501 31.031 6.54613C30.686 6.28758 30.1685 6.11521 29.651 6.11521C26.5462 6.20139 25.4249 10.4244 25.5112 12.9237C25.3387 12.9237 25.2525 13.0099 25.08 13.1822C24.39 13.8717 22.4925 8.18361 21.8888 7.66651C21.2851 7.2356 20.6813 6.97704 19.9914 6.97704C18.1802 6.97704 16.9727 8.2698 16.1965 9.8211C16.024 8.7869 15.8515 7.83888 15.679 6.80468C15.5065 5.85666 14.2991 5.51193 13.6091 6.2014C12.6604 7.14941 12.2291 7.92506 11.7117 9.13163C11.1079 10.5106 11.4529 11.8033 9.81421 11.2C8.08927 10.5967 9.12424 8.61453 9.55548 7.14941C9.72797 6.37376 9.03799 5.85666 8.34801 5.85666C8.34801 5.77048 8.26177 5.6843 8.17552 5.59811C4.81188 3.27116 -1.65666 10.3382 1.1895 13.4408C1.53449 13.7855 2.05198 13.9579 2.56946 13.8717C4.03566 13.527 5.24311 12.6651 6.36433 11.6309C6.45057 13.2684 7.14055 14.5612 9.03799 14.9059C12.1429 15.3368 13.2641 12.579 14.3853 9.99346C14.7303 11.2862 14.989 12.579 15.2478 13.9579C15.4203 14.8197 16.8865 15.0783 17.1452 14.1303C17.404 13.0099 17.749 10.3382 18.6114 9.73491C20.4226 8.44216 20.5951 10.0796 21.1126 11.1138C21.8026 12.4928 21.7163 14.5612 23.2688 15.423C24.3037 16.0263 25.5112 15.8539 26.2012 15.1645C27.1499 16.5434 28.9611 16.1125 30.4273 14.475C30.7723 14.1303 31.031 13.6993 31.2898 13.3546C31.2898 13.6132 31.2898 13.8717 31.2898 14.1303C31.2898 15.5092 33.7909 15.423 33.7909 14.0441C33.7909 9.73491 33.9634 5.42575 34.3946 1.11658C34.3946 -0.262352 32.066 -0.348533 31.8935 0.77185Z" fill="black"/>
</svg>
