<svg width="259" height="63" viewBox="0 0 259 63" fill="none" xmlns="http://www.w3.org/2000/svg">
<g clip-path="url(#clip0_0_1)">
<path d="M70.8954 4.56769C73.3966 4.56769 73.3966 1.37891 70.8954 1.37891C68.3942 1.37891 68.3942 4.56769 70.8954 4.56769Z" fill="black"/>
<path d="M74.3438 19.9084C72.5326 18.9604 71.9288 13.8755 71.4976 12.0657C71.2389 10.8591 68.8239 10.6868 68.3065 11.721C67.3577 13.3584 66.3228 14.9959 65.2016 16.5472C61.4929 21.632 59.078 24.4761 61.148 16.7196C61.148 15.0821 62.0104 13.617 60.5442 12.3242C59.078 11.0315 56.5769 11.1177 54.7657 12.0657C54.7657 11.8933 54.8519 11.721 54.8519 11.6348C55.2832 10.2558 53.127 9.91111 52.437 10.7729C49.6771 14.0479 46.7447 16.9781 43.3811 19.5636C43.8985 17.6676 44.416 15.6854 45.0197 13.7894C46.141 9.91111 47.8659 6.20522 48.8146 2.24079C49.4184 2.55493e-05 45.796 -0.775624 44.6748 0.861859C41.0524 6.46377 39.3274 13.8755 37.8612 20.684C36.5675 19.3051 35.2738 17.9262 34.0664 16.5472C35.6188 13.617 37.2575 10.4282 37.1713 7.15324C37.1713 6.03286 35.6188 6.03286 35.0151 6.63614C33.1176 8.44599 31.9102 10.8591 30.7027 13.1861C29.8403 12.4104 29.064 11.6348 28.1153 10.9453C27.7703 10.6868 26.6491 10.7729 26.9079 11.4624C27.5116 13.0999 28.3741 14.565 29.3228 16.0301C28.1153 18.3571 26.8216 20.684 25.5279 23.011C25.0104 20.7702 24.7517 18.3571 24.2342 16.2887C23.5442 13.0137 22.6818 9.91111 21.388 6.80851C21.2156 6.20522 19.8356 6.03286 19.9218 6.80851C20.0081 9.99729 20.4393 12.9275 21.0431 16.0301C21.8193 19.6498 23.458 24.0452 23.0267 27.7511C22.8542 29.7333 26.1316 29.8195 26.9941 28.6129C28.8915 25.855 30.7027 22.8386 32.2552 19.9084C33.9801 21.9768 35.7051 24.0452 37.2575 26.1136C38.2062 27.4925 41.0524 27.3201 41.5699 25.5965C42.0011 24.3037 42.3461 22.9248 42.7773 21.632C45.7097 19.6498 48.5559 17.4091 51.1433 15.0821C50.6258 17.5814 50.3671 20.1669 50.1083 22.7524C49.7633 25.7688 49.4184 28.0096 49.5908 35.5076C49.4184 36.5418 50.6258 39.0411 51.4883 36.9727C53.0407 24.5623 53.0407 22.2353 54.2482 14.0479C57.1806 11.721 58.2156 15.1683 58.0431 17.4952C57.9568 18.1847 56.8356 19.736 56.9218 20.4255C57.0943 22.1491 58.2156 23.6143 59.9405 23.8728C62.5279 24.3899 65.8915 21.0288 67.789 18.2709C68.3065 21.2873 69.7727 24.0452 72.9638 23.959C75.465 23.959 76.7587 21.1149 74.3438 19.9084Z" fill="black"/>
<path d="M85.729 23.959C87.3677 22.7524 88.144 20.7702 87.0227 18.9603C86.2465 17.7538 85.0391 16.9781 83.9179 16.1163C83.3141 15.5992 82.6241 15.0821 82.1067 14.4788C81.1579 13.5308 80.2955 11.1176 82.8829 11.7209C83.6591 11.8933 84.6078 10.8591 83.5729 10.5144C81.4167 9.65252 77.4493 10.342 78.1393 13.4446C78.4843 15.2544 80.468 16.5472 81.6754 17.7538C82.1067 18.1847 83.5729 19.3051 83.5729 20.0807C83.4866 21.0287 82.1929 21.8906 81.3304 21.4596C80.468 21.1149 79.9505 19.8222 79.2605 19.1327C78.1393 18.0985 75.9831 18.788 75.8106 20.2531C75.2932 25.1655 82.7966 26.1135 85.729 23.959Z" fill="black"/>
<path d="M90.7335 23.7866C95.0459 21.8905 99.0132 26.0273 103.584 25.0793C106.172 24.5622 109.277 22.1491 107.81 19.2189C107.12 17.9261 105.137 17.3228 104.016 18.4432C102.722 19.6498 102.032 20.5116 100.134 20.2531C98.582 19.9945 97.2021 19.5636 95.6496 19.4774C95.3909 19.4774 95.1321 19.4774 94.7871 19.4774C96.5983 17.409 98.3233 15.3406 99.7032 13.0998C100.479 11.8933 99.272 10.9453 98.1508 10.8591C95.8221 10.6005 92.631 10.0834 90.3023 10.6005C89.5261 10.7729 89.0948 10.8591 88.8361 11.6347C88.4911 12.5827 90.3023 12.9275 90.6473 12.0656C90.6473 12.0656 93.3209 12.7551 95.3909 13.186C93.2347 16.1163 91.0785 19.1327 88.5774 21.8905C87.1974 23.2695 89.6986 24.3037 90.7335 23.7866Z" fill="black"/>
<path d="M138.687 14.9097C137.479 14.0479 135.927 13.7893 134.547 13.3584C133.857 13.186 130.924 12.6689 131.873 11.2038C132.563 10.1696 134.547 11.6347 135.151 12.0656C136.789 13.186 139.377 11.29 137.22 9.99724C135.323 8.79067 132.649 7.67029 130.752 9.48014C129.544 10.6005 129.544 12.6689 130.752 13.7031C131.701 14.565 133.081 15.0821 134.202 15.6853C134.633 15.9439 135.927 16.5472 136.185 17.0643C136.875 18.1847 135.668 19.0465 134.806 19.4774C133.253 20.1669 130.752 20.5116 129.631 18.8741C128.854 17.7537 129.286 16.6334 127.906 16.0301C127.561 15.8577 127.043 15.7715 126.612 16.0301C122.817 18.0985 127.13 22.1491 129.458 22.9247C132.304 23.8728 136.099 23.1833 138.428 21.2873C140.498 19.4774 140.929 16.5472 138.687 14.9097Z" fill="black"/>
<path d="M160.075 10.9453C160.506 7.84271 155.848 7.15324 154.727 9.91111C154.037 11.5486 154.123 13.2723 154.296 14.9959C154.296 15.5992 154.382 16.3749 154.468 17.1505C153.347 15.5992 152.485 13.7894 151.881 11.9795C151.364 10.5144 149.121 10.1697 148 11.2039C146.534 12.4966 145.671 14.0479 145.068 15.6854C144.895 14.1341 144.809 12.5828 144.636 11.0315C144.464 9.82493 142.308 9.39401 141.876 10.6868C141.014 13.5308 139.72 21.8044 144.033 22.5801C147.137 23.1833 148.259 20.0807 149.38 17.4091C151.019 20.5978 153.434 23.959 156.452 23.1833C161.196 21.9768 159.643 14.4788 160.075 10.9453Z" fill="black"/>
<path d="M167.493 12.7551C168.959 13.0999 170.597 12.669 171.805 13.8755C173.444 15.513 172.581 18.3571 170.684 19.4774C168.7 20.5978 166.371 18.788 166.026 16.7196C165.854 15.3406 166.544 13.8755 167.493 12.7551ZM172.322 22.6662C176.203 21.2873 178.532 16.6334 176.376 12.9275C175.427 11.29 173.789 10.0835 172.064 9.56636C170.77 9.22163 168.872 8.96308 167.579 9.65254C167.493 9.65254 167.406 9.65254 167.32 9.65254C163.439 10.5144 160.938 14.6512 162.49 18.4432C164.043 22.0629 168.7 23.959 172.322 22.6662Z" fill="black"/>
<path d="M158.09 29.7333C159.297 37.4036 171.63 36.0246 176.891 34.2148C187.069 30.6813 182.411 21.2011 183.188 13.0999C183.36 11.1177 179.651 11.1177 179.393 13.0999C178.875 17.7538 181.721 24.3037 179.048 28.4405C177.236 31.1984 173.269 31.8017 170.164 31.974C166.283 32.2326 164.041 31.026 161.022 28.6991C160.246 28.2681 157.831 28.2681 158.09 29.7333Z" fill="black"/>
<path d="M181.465 7.58416C181.897 7.84271 182.328 8.01508 182.759 8.10126C183.277 8.18745 183.794 8.10126 184.225 7.84271C184.398 7.75653 184.57 7.67035 184.657 7.58416C184.915 7.32561 185.088 7.06706 185.26 6.72233C185.347 6.54996 185.433 6.3776 185.519 6.20523C185.605 6.11905 185.605 6.03286 185.692 5.94668V5.8605C185.692 5.8605 185.692 5.8605 185.692 5.94668C185.778 5.68813 185.864 5.51576 185.864 5.17103C185.864 4.65393 185.519 4.05065 185.088 3.70591C184.657 3.36118 184.139 3.18881 183.622 3.18881C183.104 3.10263 182.5 3.18881 181.983 3.44736C181.81 3.53355 181.638 3.70591 181.465 3.7921C181.207 4.05065 180.948 4.3092 180.862 4.74011C180.689 5.08485 180.775 5.42958 180.775 5.77431C180.775 5.94668 180.775 6.20523 180.775 6.3776C180.775 6.72233 181.034 7.32561 181.465 7.58416Z" fill="black"/>
<path d="M192.762 12.0656C195.694 10.6867 196.643 12.7551 193.883 14.2202C192.848 14.7373 191.555 14.9959 190.261 15.1682C190.606 13.7893 191.382 12.6689 192.762 12.0656ZM186.638 17.5814C186.811 19.5636 187.673 21.5458 189.14 22.9247C193.711 27.1477 203.025 22.8386 206.389 19.0465C208.028 17.2366 204.923 15.8577 203.543 16.1163C201.214 16.5472 199.317 17.7537 197.247 18.8741C196.212 19.3912 195.091 20.2531 193.883 20.4254C191.296 20.8563 190.175 19.305 190.002 17.409C194.228 17.0643 200.093 15.9439 199.662 11.8933C199.231 7.32556 191.813 8.53213 189.398 10.4282C187.846 11.6347 186.983 13.5308 186.725 15.5992C186.638 15.5992 186.466 15.6853 186.38 15.6853C185.086 16.0301 185.259 17.6676 186.638 17.5814Z" fill="black"/>
</g>
<path d="M143.255 55.8211C143.082 56.3382 141.789 59.7855 141.012 59.6132C140.495 59.527 140.84 57.6309 140.84 57.3724C140.84 56.8553 141.012 56.252 141.271 55.8211C141.357 54.9593 141.875 54.6145 142.824 54.7007C142.22 55.1316 142.737 55.5625 143.255 55.7349C143.255 55.7349 143.255 55.8211 143.255 55.8211ZM120.054 52.4599C119.537 53.3218 117.726 57.2 116.691 55.9935C116.173 55.2178 118.847 52.2876 120.054 52.4599C120.054 52.4599 120.141 52.4599 120.054 52.4599ZM144.893 46.7718C144.462 48.6679 144.29 50.6501 144.031 52.5461C143.686 52.2876 143.169 52.1152 142.651 52.1152C139.546 52.2014 138.425 56.4244 138.511 58.9237C138.339 58.9237 138.252 59.0099 138.08 59.1822C137.39 59.8717 135.493 54.1836 134.889 53.6665C134.285 53.2356 133.681 52.977 132.991 52.977C131.18 52.977 129.973 54.2698 129.197 55.8211C129.024 54.7869 128.852 53.8389 128.679 52.8047C128.507 51.8567 127.299 51.5119 126.609 52.2014C125.66 53.1494 125.229 53.9251 124.712 55.1316C124.108 56.5106 124.453 57.8033 122.814 57.2C121.089 56.5967 122.124 54.6145 122.555 53.1494C122.728 52.3738 122.038 51.8567 121.348 51.8567C121.348 51.7705 121.262 51.6843 121.176 51.5981C117.812 49.2712 111.343 56.3382 114.189 59.4408C114.534 59.7855 115.052 59.9579 115.569 59.8717C117.036 59.527 118.243 58.6651 119.364 57.6309C119.451 59.2684 120.141 60.5612 122.038 60.9059C125.143 61.3368 126.264 58.579 127.385 55.9935C127.73 57.2862 127.989 58.579 128.248 59.9579C128.42 60.8197 129.886 61.0783 130.145 60.1303C130.404 59.0099 130.749 56.3382 131.611 55.7349C133.423 54.4422 133.595 56.0796 134.113 57.1138C134.803 58.4928 134.716 60.5612 136.269 61.423C137.304 62.0263 138.511 61.8539 139.201 61.1645C140.15 62.5434 141.961 62.1125 143.427 60.475C143.772 60.1303 144.031 59.6993 144.29 59.3546C144.29 59.6132 144.29 59.8717 144.29 60.1303C144.29 61.5092 146.791 61.423 146.791 60.0441C146.791 55.7349 146.963 51.4257 147.395 47.1166C147.395 45.7376 145.066 45.6515 144.893 46.7718Z" fill="black"/>
<defs>
<clipPath id="clip0_0_1">
<rect width="259" height="63" fill="white"/>
</clipPath>
</defs>
</svg>
