<svg width="530" height="137" viewBox="0 0 530 137" fill="none" xmlns="http://www.w3.org/2000/svg">
<g clip-path="url(#clip0_50_12713)">
<path d="M283.631 15.3912C280.019 20.5215 276.217 25.4619 272.605 30.5923C272.415 30.5923 272.415 30.4022 272.225 30.2122C271.084 27.362 269.563 24.7018 268.233 22.0416C266.712 18.8114 265.001 15.5812 262.34 13.301C262.149 13.111 261.769 12.921 261.389 12.921C259.488 12.1609 256.637 12.921 257.207 15.3912C258.538 20.1415 261.579 24.8918 263.86 29.2622C264.811 31.3523 265.571 33.2525 266.712 35.3426C267.092 35.9127 267.662 36.4827 268.233 36.8627C265.571 40.663 263.1 44.2733 260.819 48.2636C259.868 49.9737 262.53 50.7337 263.67 49.5937C271.845 40.093 278.878 29.6422 286.292 19.5715C287.243 19.3814 287.813 18.6214 287.813 17.6713C287.813 17.2913 287.813 16.9113 288.003 16.5312C288.193 13.871 284.581 14.0611 283.631 15.3912Z" fill="black"/>
<path d="M395.026 45.4133C388.562 45.0333 381.909 44.6533 375.255 44.6533C376.966 42.1831 378.107 39.1429 379.628 36.4827C381.529 33.2525 383.43 30.0222 385.331 26.792C385.901 26.0319 385.901 25.2719 385.711 24.5118C385.901 24.3218 386.091 24.1318 386.281 24.1318C387.612 22.9917 386.661 21.0916 385.14 20.9016C379.628 19.9515 374.115 18.6214 368.412 17.6713C365.75 17.2913 364.039 16.9113 361.948 18.6214C361.568 19.0014 361.378 19.3814 361.568 19.7615C361.758 20.1415 361.758 20.3315 361.948 20.7115C362.138 21.4716 363.469 21.6616 363.849 20.9016C363.849 20.7115 364.039 20.7115 364.229 20.7115C364.229 20.9016 364.039 21.0916 364.039 21.2816C364.42 23.7518 366.701 24.3218 368.792 25.0819C371.263 26.0319 373.734 26.602 376.396 27.362C376.206 27.552 376.206 27.7421 376.016 27.7421C370.503 33.2525 365.75 39.3329 361.758 45.9834C360.808 47.6935 362.519 49.0236 364.039 49.0236C373.925 49.4036 384 49.5937 393.885 50.3537C397.117 50.3537 398.638 45.6034 395.026 45.4133Z" fill="black"/>
<path d="M448.256 46.5534C446.925 37.0527 444.644 27.552 442.173 18.2413C442.173 18.0513 442.173 17.6713 442.173 17.4813C442.173 16.9112 441.983 16.7212 441.792 16.3412C441.792 16.1512 441.792 16.1512 441.792 15.9611C441.032 12.7309 436.28 13.491 434.569 15.3911C429.626 21.2815 425.444 27.552 422.212 34.0125C420.881 29.0721 419.361 23.9417 417.27 19.3814C416.889 17.2912 416.509 15.2011 416.129 13.1109C415.939 11.4008 412.897 11.0208 412.327 12.7309C412.327 12.9209 412.327 12.9209 412.137 13.1109C411.376 13.3009 410.616 13.871 410.616 14.631C409.095 22.8016 405.103 32.3023 404.723 41.043C404.343 42.9431 403.772 44.8433 403.392 46.7434C403.012 48.4535 406.054 49.0236 406.434 47.3134C406.814 46.1733 407.194 45.0333 407.574 43.8932C409.856 39.5229 410.996 34.2025 411.947 29.0721C413.277 36.1026 415.369 42.9431 416.699 49.4036C417.27 51.8738 419.551 52.4438 421.832 52.0638C423.353 52.8238 425.444 52.2538 425.824 50.5437C426.394 48.2635 427.155 45.9833 427.915 43.8932C430.386 38.1928 433.238 32.6824 436.28 27.172C437.8 34.7725 439.321 42.3731 440.842 49.9736C441.412 53.0138 446.925 52.8238 448.256 50.3537C448.826 49.7836 449.016 49.2136 448.826 48.2635C448.636 47.6935 448.446 47.1234 448.256 46.5534Z" fill="black"/>
<path d="M525.818 5.89042C517.263 10.2607 511.37 19.1914 505.287 26.4119C502.245 30.0222 498.063 34.2025 494.641 38.3828C494.831 30.9722 495.782 23.5617 493.31 16.7212C492.74 15.0111 490.459 16.5312 489.889 17.4813C489.699 18.0513 489.508 18.8114 489.318 19.3814C488.558 19.7614 487.988 20.3315 487.988 21.0915C487.417 26.6019 487.607 32.3023 487.798 38.0028C487.798 42.5631 487.798 47.3134 486.657 51.6838C485.897 54.534 487.988 57.1942 491.029 56.8141C497.112 56.0541 503.196 54.344 509.279 52.6338C509.849 52.6338 510.61 52.4438 511.18 52.4438C515.362 52.0638 521.065 52.2538 524.867 50.1636C526.198 49.4036 526.958 48.2635 526.578 46.9334C530.57 43.8932 530.38 35.7226 524.487 37.4327C517.453 39.5229 510.039 41.233 502.815 43.3231C505.667 39.9029 508.328 36.2926 510.8 33.4424C517.263 26.2219 525.818 18.8114 529.429 9.6907C530.76 7.0305 528.099 4.75034 525.818 5.89042Z" fill="black"/>
<path d="M64.06 16.1512C59.4976 11.0208 55.5055 5.13037 50.3728 0.570041C48.6619 -0.760056 44.6698 0.190013 45.4302 2.85021C49.0421 14.061 59.4976 24.1318 69.1927 32.3024C59.8778 29.8322 48.2817 30.5922 39.347 30.2122C27.5607 29.6422 14.2537 27.552 2.65758 30.4022C-0.00383051 31.3523 -1.33453 35.5326 1.89717 36.4827C12.7329 40.0929 25.4696 39.1429 36.6856 39.3329C45.2401 39.5229 55.5055 40.853 64.6303 40.0929C62.5392 42.1831 60.6382 44.4632 58.357 46.5534C55.3154 49.7836 51.8936 52.8239 48.2817 55.6741C44.4797 58.7143 39.9173 60.6144 37.8262 64.9847C36.4955 67.6449 38.7767 70.1151 41.6282 70.1151C49.0421 69.9251 55.5055 63.2746 60.8283 58.5243C67.6719 52.4438 73.1848 42.9431 81.1691 38.3828C83.4503 37.0527 84.0206 34.2025 81.7394 32.4924C75.6562 27.552 69.5729 22.0416 64.06 16.1512Z" fill="black"/>
<path d="M352.64 18.6213C352.64 18.4313 352.64 18.2413 352.64 18.0513C352.64 16.3412 349.218 15.9611 349.028 17.6713C346.937 28.6921 346.557 40.0929 346.176 51.3037C345.986 54.344 351.879 53.9639 351.499 50.9237C351.499 50.5437 351.499 50.1637 351.499 49.9736C351.879 49.7836 352.069 49.5936 352.45 49.2136C355.491 45.0333 355.111 38.9528 355.301 33.8225C355.491 28.6921 356.062 23.5617 353.59 19.0014C353.02 18.8114 352.83 18.6213 352.64 18.6213Z" fill="black"/>
<path d="M337.619 18.4313C337.619 18.2413 337.619 18.2413 337.619 18.0513C337.619 15.7712 333.627 15.5811 333.057 17.6713C332.487 19.7614 332.106 21.6616 331.536 23.7517C329.255 26.982 327.544 30.5922 325.833 34.2025C323.172 29.0721 320.32 24.1318 317.088 19.3814C316.898 19.0014 316.518 18.8114 316.328 18.6214C315.948 17.8613 315.758 17.1013 315.377 16.5312C314.617 14.8211 311.575 14.4411 310.625 16.3412C307.013 23.7517 303.211 30.9723 299.599 38.3828C299.029 31.1623 298.839 23.9418 298.459 16.7212C298.459 15.0111 295.417 15.0111 295.227 16.7212C294.086 26.982 294.466 37.0527 295.417 47.3135C295.607 49.5936 299.029 49.9737 300.169 48.0735C300.169 48.0735 300.169 48.0735 300.169 47.8835C302.07 48.4535 304.732 47.8835 305.302 45.7933C307.013 39.5229 311.385 35.1526 314.617 29.8322C317.469 34.7725 320.13 39.9029 322.411 45.0333C322.601 45.6033 322.982 45.9834 323.362 46.3634C323.932 47.6935 324.692 49.0236 325.263 50.5437C326.403 52.6339 329.635 52.4438 330.395 50.1637C332.487 44.2732 334.388 38.0028 335.908 31.7323C337.619 28.3121 339.14 24.8918 340.281 21.2816C341.041 19.1914 339.33 18.4313 337.619 18.4313Z" fill="black"/>
<path d="M246.182 17.8613C241.619 18.4313 237.247 19.0014 232.875 19.5714C227.552 19.5714 222.229 19.3814 217.096 20.5215C216.716 20.5215 216.336 20.7115 216.146 20.9015C215.956 20.9015 215.766 20.9015 215.575 20.9015C213.865 21.0915 213.294 23.1817 215.195 23.5617H215.385C215.766 24.3218 216.336 24.8918 217.286 25.0818C220.898 25.8419 224.51 26.0319 228.122 26.0319C226.601 32.8724 226.791 40.4729 226.601 47.3134C226.411 52.4438 235.536 51.8738 235.726 46.9334C236.106 40.0929 236.677 32.8724 235.916 26.0319C239.338 26.2219 242.95 26.7919 245.992 25.2718C246.182 25.2718 246.562 25.2718 246.752 25.2718C247.702 25.2718 248.273 24.8918 248.843 24.5118C249.984 24.3218 250.554 23.3717 250.554 22.4216C251.124 20.5215 249.603 17.4813 246.182 17.8613Z" fill="black"/>
<path d="M140.675 32.3024C140.675 32.1124 140.865 32.1124 140.865 31.9223C143.716 27.9321 147.328 23.9418 150.37 19.5714C150.37 19.7615 150.37 19.7615 150.56 19.9515C151.13 23.9418 152.271 27.9321 153.411 31.7323C149.229 31.5423 144.857 31.9223 140.675 32.3024ZM153.601 13.681C153.792 13.301 153.982 12.921 154.172 12.7309C155.122 10.2608 151.32 9.31069 149.799 10.2608C149.229 10.0708 148.469 10.2608 148.089 10.6408C142.576 17.6713 137.443 24.8918 133.071 32.4924C126.987 32.6824 120.714 33.0624 114.631 33.4425C112.54 33.6325 112.54 36.2927 114.631 36.2927C119.954 36.2927 125.276 36.2927 130.599 36.2927C127.748 40.283 125.086 44.2733 123.946 48.6436C123.566 49.7837 125.276 50.3537 126.037 49.7837C130.789 46.3634 134.401 41.233 137.823 36.2927C138.013 36.2927 138.203 36.2927 138.393 36.2927C143.716 36.2927 149.419 36.6727 154.932 36.1027C156.453 41.233 157.974 47.1235 161.396 51.1138C161.396 51.3038 161.396 51.3038 161.586 51.4938C161.776 52.0638 162.346 52.4438 162.726 52.6339C164.627 53.7739 168.049 53.5839 168.049 50.7337C167.859 44.0832 164.057 37.4327 161.586 31.1623C159.114 25.0818 157.403 18.8114 153.601 13.681Z" fill="black"/>
<path d="M207.402 47.1234C207.212 46.7434 207.022 46.3634 206.642 45.9833C203.98 42.7531 202.65 37.2427 200.939 33.6324C199.418 30.4022 198.087 26.982 196.186 23.9417C201.699 20.7115 207.402 17.6713 213.295 15.0111C213.485 15.0111 213.676 14.8211 213.866 14.8211C214.056 14.8211 214.056 14.6311 214.246 14.6311C214.626 14.441 215.006 14.251 215.196 13.871C217.287 11.4008 213.295 7.60054 209.874 9.31067C204.361 12.1609 199.038 15.2011 193.715 18.4313C190.483 20.3315 186.871 22.0416 183.64 24.3218C183.83 19.7614 183.83 15.0111 182.879 10.4508C182.689 9.31067 180.408 9.31067 180.028 10.4508C177.937 16.1512 177.366 22.4216 176.796 28.3121C176.036 34.2025 174.325 40.663 175.655 46.5534C176.416 49.4036 180.978 48.8335 181.929 46.5534C182.309 45.7933 182.499 44.8433 182.689 43.8932C184.78 41.613 183.45 35.3426 183.45 32.6824C183.45 32.1123 183.45 31.7323 183.45 31.1623C186.301 29.6422 188.963 28.122 191.624 26.6019C191.814 27.552 192.384 29.0721 192.574 29.2621C193.335 31.1623 194.095 33.0624 195.046 35.1526C195.236 35.7226 195.616 36.4826 195.806 37.0527C197.327 41.043 198.658 45.0333 200.369 48.8336C201.129 50.1637 202.27 50.9237 203.79 50.9237C203.98 50.9237 204.171 50.9237 204.361 50.9237C206.072 50.9237 208.163 49.4036 207.402 47.5035C207.402 47.3134 207.402 47.3134 207.402 47.1234Z" fill="black"/>
<path d="M121.095 92.9168C121.285 92.9168 121.285 92.9168 121.095 92.9168V92.9168ZM127.939 86.2663C127.368 86.6463 127.178 87.0264 126.798 87.4064C126.418 87.9764 125.848 88.3565 125.467 88.9265C124.707 89.8766 123.947 90.6366 123.186 91.3967C122.616 91.7767 121.665 92.9168 121.095 92.9168C120.905 92.9168 121.095 92.9168 120.905 92.7268C120.715 92.3467 120.715 91.9667 120.715 91.5867C120.715 90.2566 121.095 88.9265 121.285 87.5964C121.475 86.0763 121.665 84.7462 122.046 83.2261C122.426 80.3759 122.996 77.3357 123.376 74.4854C123.566 72.9653 121.665 72.0153 120.335 72.7753C114.442 76.3856 108.739 80.5659 103.796 85.1262C102.465 86.4563 104.366 88.7365 105.697 87.5964C110.069 84.1761 114.442 80.9459 119.004 77.9057C118.624 79.9958 118.244 82.086 117.863 84.1761C117.483 85.8863 117.103 87.7864 116.913 89.4965C116.723 91.0166 116.723 92.7268 117.483 94.0569C118.244 95.387 119.574 96.5271 121.285 96.7171C122.996 96.9071 124.517 95.957 125.658 95.0069C126.798 94.0569 127.939 92.9168 128.699 91.7767C129.65 90.4466 130.41 88.9265 130.41 87.4064C130.22 86.4563 129.079 85.5062 127.939 86.2663Z" fill="black"/>
<path d="M125.275 62.3245C125.465 62.7046 125.656 62.8946 125.846 63.0846C126.036 63.2746 126.226 63.4646 126.606 63.4646C126.796 63.6546 127.176 63.6546 127.366 63.6546C127.557 63.6546 127.937 63.6546 128.127 63.4646C128.317 63.4646 128.507 63.2746 128.697 63.0846C128.887 62.8946 129.077 62.5145 129.077 62.1345V61.9445C129.077 61.7545 129.267 61.7545 129.267 61.5645C129.267 61.5645 129.267 61.5645 129.458 61.5645C129.648 61.3745 129.648 61.3745 129.838 61.1845C129.838 61.1845 129.838 60.9944 130.028 60.9944C130.028 60.8044 130.028 60.8044 130.028 60.6144V60.2344C130.028 60.0444 129.838 59.8544 129.838 59.6643V59.4743L129.267 58.9043L128.887 58.7143H128.697C128.507 58.7143 128.317 58.5243 128.127 58.7143C127.937 58.7143 127.747 58.7143 127.557 58.9043C127.366 58.9043 127.366 58.9043 127.176 59.0943C126.986 59.2843 126.796 59.2843 126.606 59.4743L126.416 59.6643C126.226 59.8544 126.036 60.0444 125.846 60.2344C125.656 60.4244 125.465 60.6144 125.465 60.9944C125.465 61.1844 125.275 61.1844 125.275 61.3745C125.085 61.7545 125.085 61.9445 125.275 62.3245C125.085 62.1345 125.085 61.9445 125.275 62.3245Z" fill="black"/>
<path d="M259.87 94.0568C259.87 93.8668 259.68 93.8668 259.87 94.0568V94.0568ZM242.571 94.2469C242.761 94.0568 242.761 94.4369 242.571 94.2469V94.2469ZM221.089 119.899C220.709 122.369 220.519 125.029 220.139 127.499C219.949 129.209 219.949 131.49 218.808 132.82C218.808 132.82 218.808 132.82 218.618 133.01C218.428 133.01 218.428 133.01 218.048 132.82C217.477 132.44 216.907 131.68 216.337 130.92C215.576 129.779 215.006 128.069 214.626 126.359C214.056 122.749 215.006 119.139 216.337 115.718C217.858 112.108 219.949 108.878 222.42 105.648C222.23 110.398 221.66 115.148 221.089 119.899ZM218.618 132.82C218.428 133.01 218.428 132.82 218.618 132.82V132.82ZM206.262 91.0166C204.741 92.5367 202.84 94.0568 200.558 94.4369C199.608 94.6269 198.657 94.4369 197.897 94.2469C196.947 93.8668 196.376 93.4868 195.806 92.7267C194.285 90.4466 195.616 87.2163 196.376 85.1262C197.517 81.896 198.657 78.8557 199.988 75.6255C200.178 75.0555 200.178 74.6754 199.988 74.1054C200.558 73.9154 201.129 73.9154 201.889 73.9154C205.121 73.9154 208.353 76.1955 209.493 79.4258C210.824 83.4161 209.113 87.9764 206.262 91.0166ZM179.077 94.0568C178.317 94.8169 177.366 95.577 176.416 95.767C176.226 95.767 176.036 95.957 175.845 95.957H175.655C175.465 95.957 175.275 95.957 175.275 95.957C175.085 95.957 174.705 95.767 175.085 95.957C174.895 95.957 174.895 95.957 174.895 95.957C174.895 95.957 174.895 95.957 174.895 95.767C174.895 95.767 174.895 95.3869 175.085 95.1969C175.275 94.6269 176.226 94.0568 176.796 93.6768C178.507 92.5367 180.218 91.7767 182.119 90.8266C181.358 92.1567 180.028 93.2968 179.077 94.0568ZM174.515 95.577C174.705 95.767 174.515 95.767 174.515 95.577V95.577ZM356.251 92.5367C355.49 92.5367 354.92 93.1068 354.92 93.8668C354.92 94.0568 354.73 94.0568 354.73 94.2469C354.73 94.2469 354.54 94.4369 354.35 94.4369H354.16C353.97 94.4369 353.779 94.0568 353.589 94.0568C352.639 92.9168 351.878 91.3966 351.308 89.8765C350.168 87.0263 350.168 83.6061 350.928 80.5659C351.308 79.4258 350.738 78.2857 349.597 77.9057C348.647 77.5256 347.316 77.7156 346.936 78.8557C345.035 84.1761 342.944 89.8765 339.142 94.2469C338.571 92.3467 338.571 90.4466 338.571 88.3564C338.571 86.8363 338.762 85.1262 338.952 83.6061C339.142 82.086 339.332 80.3758 339.142 78.8557C338.952 77.1456 338.001 75.6255 336.29 74.8654C334.579 74.1054 332.488 74.8654 331.158 76.0055C328.496 78.2857 326.785 81.3259 325.454 84.3661C325.264 84.9362 324.884 85.5062 324.694 86.0763C324.694 85.3162 324.694 84.5561 324.694 83.7961C324.694 79.8058 324.504 75.8155 322.223 72.3953C321.652 71.4452 319.942 71.2552 319.371 72.2052C315.569 77.5256 312.338 83.2261 309.486 89.1165C308.345 90.8266 307.775 92.9168 306.254 94.4369C305.494 95.0069 304.734 95.577 303.783 95.767C302.833 95.957 302.072 95.3869 301.312 94.8169C300.361 94.0568 299.221 93.2968 298.08 92.7267C301.882 86.8363 305.684 81.1359 309.486 75.2455C310.627 73.3453 308.345 71.2552 306.635 72.3953C304.734 73.5353 302.642 73.7254 300.551 73.9154C298.27 74.1054 295.989 74.1054 293.708 74.8654C291.427 75.6255 289.526 77.1456 288.195 79.2358C287.434 80.5659 287.054 82.086 287.054 83.7961C285.723 82.086 283.822 80.7559 282.112 79.4258C280.401 78.0957 278.31 76.0055 278.119 73.7254C278.31 72.9653 278.5 72.2052 278.5 71.4452C278.88 69.165 275.268 68.0249 274.317 70.1151C273.937 71.0652 273.747 72.0152 273.747 72.9653C272.416 78.2857 269.945 83.4161 266.713 87.9764C265.763 89.3065 264.812 90.4466 263.672 91.5867C262.721 92.5367 261.581 93.8668 260.44 94.4369C260.25 94.4369 260.06 94.6269 259.87 94.6269C259.87 94.6269 259.87 94.6269 259.68 94.6269C259.49 94.4369 259.3 94.0568 259.3 93.4868C258.919 91.7767 259.109 90.0666 259.109 88.3564C259.109 83.9861 259.49 79.6158 260.06 75.2455C260.44 73.1553 256.638 71.6352 255.878 73.9154C253.787 79.9958 250.745 85.5062 246.753 90.4466C245.802 91.5867 244.852 92.9168 243.711 93.8668C243.521 94.0568 243.141 94.4369 242.761 94.4369C242.571 94.4369 242.381 94.6269 242.19 94.6269C242.19 94.6269 242 94.4369 242 94.2469C241.62 93.2968 241.62 91.7767 241.62 90.6366C241.62 89.1165 241.81 87.4064 242 85.8862C242.381 83.9861 242.951 82.086 243.521 80.1858C244.472 78.6657 245.232 76.9556 245.992 75.2455C246.373 74.2954 245.802 73.1553 245.042 72.5853C244.282 72.2052 242.951 72.0152 242.381 72.9653C241.43 74.4854 240.67 76.1955 239.909 77.9057C236.487 83.7961 231.735 88.9265 227.173 93.8668C226.982 94.0568 226.792 94.2469 226.792 94.4369C226.982 87.4064 226.792 80.5659 226.412 73.5353C226.222 72.0152 224.131 71.2552 223.18 72.3953C220.139 76.0055 217.097 79.8058 214.056 83.4161C214.056 82.656 214.056 81.896 213.866 81.1359C213.105 75.6255 208.733 71.4452 203.41 70.3051C200.558 69.7351 197.517 70.3051 195.236 72.0152C192.764 73.9154 191.434 76.7656 190.293 79.6158C188.392 81.1359 186.491 82.656 184.59 84.1761C184.02 84.5561 183.449 84.9362 182.879 85.3162C182.309 84.5562 181.739 83.9861 181.168 83.226C180.218 82.086 179.267 80.7559 178.507 79.6158C176.796 77.1456 175.275 74.4854 173.944 71.8252C173.374 70.6851 171.663 70.1151 170.903 71.2552C166.34 77.3356 162.348 83.7961 158.736 90.6366C157.786 92.3467 160.828 93.8668 161.778 91.9667C164.82 86.4563 168.241 80.9459 172.043 75.8155C173.754 79.2358 175.655 82.276 177.937 85.3162C178.507 86.0763 179.077 86.6463 179.647 87.4064C179.077 87.7864 178.507 88.1664 177.937 88.3564C175.845 89.4965 173.374 90.4466 171.663 92.1567C169.762 94.0568 169.762 96.9071 171.663 98.8072C173.754 100.897 176.796 100.707 179.267 99.3772C181.358 98.2371 183.64 96.147 184.78 94.0568C185.731 92.3467 185.731 90.6366 185.16 88.9265C186.111 88.3564 187.061 87.7864 187.822 87.0263C189.343 85.8862 190.863 84.7462 192.384 83.4161C192.384 83.6061 192.194 83.7961 192.194 83.9861C191.053 87.0263 190.293 90.2566 191.624 93.4868C192.764 96.337 195.616 98.4272 198.657 98.8072C201.889 99.1872 204.931 98.0471 207.402 96.147C209.303 94.6269 211.014 92.7267 212.155 90.6366C215.767 86.4563 219.569 82.276 223.18 78.0957C223.371 84.9362 223.18 91.7767 222.99 98.6172C218.808 103.368 214.816 108.308 212.535 114.008C211.014 117.809 210.064 122.179 210.634 126.359C210.824 128.259 211.584 130.349 212.535 132.06C213.675 134.15 215.386 136.24 217.858 137C223.371 138.52 223.941 130.92 224.511 127.309C225.272 121.799 225.842 116.288 226.412 110.778C226.602 107.358 226.982 104.128 226.982 100.707C228.123 99.3772 229.264 98.2371 230.594 96.9071C233.066 94.2469 235.727 91.3966 238.008 88.5464C238.008 88.9265 238.008 89.3065 238.008 89.4965C238.008 91.3966 238.008 93.1068 238.769 95.0069C239.339 96.717 240.86 98.2371 242.761 98.4272C244.852 98.6172 246.563 97.2871 248.084 95.957C250.745 93.2968 253.026 90.2566 254.927 87.0263C255.117 86.8363 255.117 86.6463 255.307 86.4563C255.307 86.8363 255.307 87.0263 255.307 87.4064C255.307 91.0166 254.927 96.337 258.919 98.0471C262.911 99.7573 266.523 95.3869 268.995 92.5367C271.466 89.6865 273.557 86.4563 275.268 83.036C276.028 81.7059 276.599 80.1858 277.169 78.8557C278.88 80.9459 280.971 82.276 283.062 83.9861C284.773 85.5062 286.294 87.2163 286.104 89.4965C285.914 91.5867 284.963 93.6768 283.062 94.6269C281.921 95.1969 280.591 95.1969 279.45 95.0069C278.31 94.8169 277.169 94.2469 276.409 93.4868C275.648 92.7267 274.508 92.1567 273.557 92.9168C272.607 93.4868 272.607 94.8169 273.367 95.767C275.458 98.2372 278.5 99.5672 281.921 99.3772C285.153 99.1872 287.815 97.2871 289.335 94.4369C290.476 92.3467 290.666 89.8765 290.286 87.5964C290.666 87.4064 291.046 86.8363 291.046 86.2663C290.856 84.1761 291.236 81.7059 292.567 79.9958C293.708 78.4757 295.419 77.9057 297.32 77.5256C299.601 77.1456 301.882 77.1456 303.973 76.9556C300.551 82.086 297.13 87.4064 293.708 92.5367C292.567 93.2968 291.807 94.4369 291.997 96.147C292.187 97.6671 294.658 98.8072 295.609 97.2871C295.989 96.717 296.369 96.147 296.749 95.767C297.13 95.767 297.51 95.767 298.08 96.147C300.171 97.4771 301.692 99.1872 304.353 99.3772C309.106 99.5672 312.908 95.1969 313.478 90.8266C315.759 86.0763 318.421 81.5159 321.462 76.9556C322.033 79.2358 321.843 81.7059 321.652 83.9861C321.462 88.3564 321.272 92.5367 321.082 96.9071C321.082 98.9972 324.124 100.327 325.074 98.0471C326.405 94.8169 327.736 91.3967 329.257 88.1664C330.397 85.5062 331.538 82.846 333.439 80.7559C333.819 80.1858 334.389 79.8058 334.769 79.2358C334.769 79.2358 335.53 78.8557 335.72 78.6657C335.72 78.6657 335.72 78.6657 335.72 78.8557C335.91 79.4258 335.72 79.9958 335.72 80.5659C335.53 83.4161 334.96 86.4563 334.96 89.3065C334.96 92.7267 335.53 96.147 337.621 98.9972C338.191 99.7573 339.712 100.327 340.663 99.5673C343.704 96.9071 345.985 93.6768 347.696 90.0666C348.076 91.2066 348.457 92.5367 349.027 93.6768C350.168 95.957 351.878 98.2371 354.54 98.8072C357.201 99.1872 360.053 96.717 358.532 94.0568C357.772 92.9168 357.011 92.3467 356.251 92.5367Z" fill="black"/>
<path d="M350.737 62.1346C350.927 62.3246 351.117 62.5146 351.497 62.7046C351.687 62.8946 352.068 62.8946 352.258 63.0846C352.448 63.0846 352.828 63.0846 353.018 63.0846C353.208 63.0846 353.588 63.0846 353.779 62.8946C354.729 62.5146 355.299 61.5645 355.489 60.6144C355.489 60.0444 355.489 59.4744 355.299 59.0943C354.919 58.3343 354.349 57.9542 353.588 57.5742C353.588 57.3842 353.588 57.1942 353.398 57.0042C353.208 56.6241 353.018 56.4341 352.638 56.0541C352.258 55.8641 351.878 55.6741 351.497 55.6741C351.117 55.6741 350.547 55.8641 350.357 56.2441C349.786 57.0042 349.406 57.9542 349.406 58.9043C349.406 59.4744 349.406 60.0444 349.596 60.6144C349.977 61.3745 350.357 61.7545 350.737 62.1346Z" fill="black"/>
<path d="M397.308 72.0153C403.392 71.0652 409.475 69.5451 415.748 68.785C417.459 68.595 419.17 68.405 420.881 68.405C421.831 68.405 422.782 68.405 423.732 68.215C424.493 68.025 425.443 68.025 426.204 67.4549C426.964 66.8849 426.964 65.7448 426.014 65.1747C425.253 64.6047 424.683 64.6047 423.732 64.4147C422.782 64.2247 422.021 64.2247 421.071 64.2247C419.55 64.2247 418.029 64.4147 416.509 64.6047C413.277 64.9847 410.235 65.5548 407.194 66.1248C403.392 66.8849 399.78 67.6449 395.978 68.215C398.449 59.8544 399.78 51.3037 400.92 42.5631C401.301 40.4729 397.498 38.9528 396.738 41.233C394.077 50.3537 391.986 59.4743 390.845 68.785C390.085 68.785 389.324 68.975 388.564 68.975C386.853 69.165 385.142 69.165 383.431 69.3551C381.72 69.3551 379.819 69.165 378.108 69.5451C376.587 69.9251 377.158 72.0152 378.298 72.5853C379.819 73.1553 381.53 73.1553 383.241 73.1553C384.762 73.1553 386.283 73.1553 387.803 73.1553C388.374 73.1553 389.134 73.1553 389.704 72.9653C388.754 75.4355 387.613 77.9057 386.283 80.3759C384.762 83.2261 382.861 85.8863 380.77 88.3564C378.869 90.6366 376.397 92.7268 373.736 94.0569C371.265 95.1969 368.223 95.767 365.752 94.6269C363.471 93.6768 361.57 91.9667 360.999 89.6865C360.239 86.6463 362.71 83.9861 365.181 82.276C366.702 81.1359 368.413 79.9958 370.124 79.6158C371.075 79.4258 372.785 79.4258 372.976 80.5659C373.356 82.466 376.587 82.656 376.207 80.3759C376.017 78.4757 374.496 76.9556 372.976 76.1955C371.075 75.4355 368.793 75.6255 366.892 76.5756C363.471 78.0957 360.049 80.3759 358.148 83.6061C356.247 86.8363 356.437 90.6366 358.718 93.8668C360.619 96.7171 364.041 98.6172 367.463 99.1872C375.257 100.327 381.91 94.4369 386.283 88.7365C387.613 87.0263 388.944 85.1262 389.894 83.0361C389.894 83.6061 389.894 84.1761 389.894 84.9362C389.894 87.4064 389.894 89.8765 389.894 92.3467V92.5368C389.894 94.4369 389.894 96.147 390.085 97.8571C390.085 98.8072 391.225 99.7573 392.366 99.7573C393.316 99.7573 394.457 99.1872 394.457 98.0471C394.077 89.4965 394.457 80.7559 395.407 72.2053C395.788 72.2053 396.548 72.2053 397.308 72.0153Z" fill="black"/>
<path d="M434.191 76.5756V76.3856C434.191 75.8155 434.192 75.2455 433.811 74.6754C433.431 73.9154 432.671 73.5354 431.91 73.1553C430.199 72.5853 428.679 73.9154 429.249 75.6255C430.199 78.2857 431.15 80.9459 431.72 83.7961C431.91 84.9362 432.1 86.0763 432.1 87.4064C431.53 87.4064 430.77 87.0264 430.199 87.0264C425.067 85.6963 420.124 83.0361 415.942 79.6158C414.801 78.6657 412.71 79.0458 412.52 80.7559C412.33 83.0361 411.76 85.3162 410.999 87.5964C410.619 88.5465 410.239 89.6865 409.669 90.6366C409.098 88.9265 408.718 87.0264 408.528 85.1262C408.148 82.656 408.338 79.9958 407.958 77.5257C407.768 76.1956 405.486 75.4355 404.916 76.9556C403.775 79.9958 404.346 83.6061 404.726 86.6463C404.916 88.1664 405.296 89.6865 405.867 91.3967C406.247 92.9168 406.817 94.6269 408.148 95.767C409.669 96.9071 411.57 96.527 412.52 95.1969C413.471 94.0569 414.041 92.3467 414.611 91.0166C415.372 89.1165 416.132 87.0264 416.512 84.9362C418.413 86.2663 420.314 87.4064 422.215 88.3565C423.736 89.1165 425.257 89.6865 426.968 90.2566C428.489 90.8266 430.199 91.3967 431.91 91.5867C433.621 91.7767 435.522 91.2067 436.283 89.4965C436.853 87.9764 436.663 86.4563 436.283 84.9362C435.902 81.896 435.142 79.0458 434.191 76.5756Z" fill="black"/>
<path d="M457 83.6061C457 83.9861 457 84.1761 457 84.5562V84.7462V85.1262C457 85.5062 456.81 85.6962 456.62 86.0763C456.62 86.2663 456.43 86.2663 456.43 86.4563C456.43 86.4563 456.43 86.6463 456.24 86.6463C456.049 86.8363 455.859 87.0263 455.669 87.4064L455.479 87.5964L455.289 87.7864C454.719 88.1664 453.958 88.5464 453.198 88.7365C450.156 89.4965 446.735 87.7864 444.643 85.8862C443.693 84.9362 442.933 83.6061 442.933 82.276C442.933 81.1359 443.313 79.9958 444.073 79.2358C444.643 79.8058 445.404 80.1858 446.354 79.8058C447.685 79.2358 449.016 78.4757 450.346 78.2857C450.727 78.2857 451.107 78.2857 451.487 78.2857C451.677 78.2857 451.867 78.2857 451.867 78.2857C451.867 78.2857 451.867 78.2857 452.057 78.2857C452.438 78.2857 452.818 78.2857 453.198 78.4757C453.388 78.4757 453.388 78.4757 453.578 78.6657L453.958 78.8557C454.339 79.0458 454.529 79.0458 454.909 79.2358C455.099 79.4258 455.289 79.4258 455.289 79.6158C455.479 79.8058 455.479 79.8058 455.669 79.9958C455.669 80.1858 455.859 80.1858 455.859 80.3758C455.859 80.3758 456.049 80.7559 456.24 80.7559C456.43 80.9459 456.43 81.1359 456.62 81.5159C456.62 81.7059 456.81 81.7059 456.81 81.896C456.81 81.896 456.81 81.896 456.81 82.086C457 82.656 457.19 82.846 457 83.6061ZM457 75.8155C454.909 74.4854 452.628 73.9154 450.346 74.1054C448.445 74.2954 445.974 74.8654 444.453 76.1955C444.073 76.0055 443.693 75.8155 443.123 76.0055C438.94 77.9057 438.37 82.846 440.461 86.4563C442.933 90.4466 447.875 92.9168 452.438 92.9168C454.529 92.9168 456.81 92.3467 458.331 90.8266C459.851 89.4965 460.802 87.7864 461.182 85.6962C461.943 82.086 460.232 77.9057 457 75.8155Z" fill="black"/>
<path d="M222.414 58.9043C222.604 59.2844 222.794 59.4744 222.984 59.6644C223.365 60.0444 223.555 60.2344 224.125 60.4244C224.505 60.6145 225.075 60.8045 225.456 60.8045C226.026 60.8045 226.596 60.8045 227.167 60.6145C227.737 60.4244 228.117 60.0444 228.497 59.6644C228.877 59.0943 229.068 58.3343 229.068 57.5742C228.877 56.8142 228.497 56.0541 227.737 55.4841C226.976 54.914 225.836 54.534 224.695 54.914C224.695 54.914 224.505 54.914 224.505 55.104C224.315 54.914 224.315 54.724 224.125 54.724C223.745 54.534 223.365 54.344 222.984 54.344C222.604 54.344 222.224 54.534 222.034 54.914C221.844 55.2941 221.844 55.4841 221.844 56.0541C221.844 57.0042 222.034 58.1443 222.414 58.9043Z" fill="black"/>
</g>
<defs>
<clipPath id="clip0_50_12713">
<rect width="530" height="137" fill="white"/>
</clipPath>
</defs>
</svg>
