<svg width="279" height="357" viewBox="0 0 279 357" fill="none" xmlns="http://www.w3.org/2000/svg">
<path d="M159.72 212.478C159.72 212.298 159.72 212.298 159.72 212.298V212.118C159.72 212.298 159.72 212.298 159.72 212.478ZM159.179 216.62C159.179 216.44 159.179 216.26 159.179 216.26C159.179 216.44 159.179 216.62 159.179 216.62ZM159.179 216.62C159.179 216.44 159.179 216.44 159.179 216.62C159.179 216.44 159.179 216.62 159.179 216.62ZM159.179 216.98C159.179 216.8 159.179 216.8 159.179 216.62C159.179 216.8 159.179 216.98 159.179 216.98ZM106.6 330.422C106.6 330.602 106.6 330.602 106.78 330.782C106.6 330.602 106.6 330.602 106.6 330.422ZM91.2945 195.552C91.2945 195.732 91.2945 195.912 91.2945 195.912C91.2945 195.912 91.2945 195.732 91.2945 195.552ZM165.482 73.287C165.482 73.287 165.482 73.4671 165.482 73.287C165.482 73.4671 165.482 73.287 165.482 73.287ZM136.851 51.8592C135.951 51.8592 134.87 51.8592 133.97 51.8592C133.07 51.8592 132.169 52.0392 131.269 52.0392C130.549 52.2193 130.009 52.2193 129.288 52.3993C128.388 52.5794 127.308 52.7595 126.407 53.1196C124.787 53.4798 123.166 54.2 121.546 54.9203C121.005 55.1004 120.465 55.4605 119.925 55.6406C119.385 56.0007 118.845 56.3608 118.124 56.5409C117.224 57.0811 116.144 57.6213 115.243 58.3416C112.902 59.9622 110.562 61.5827 108.221 63.2033C107.5 63.9236 106.78 64.4638 106.06 65.1841C105.16 66.0844 104.259 67.1648 103.539 68.2452C102.999 68.9655 102.639 69.5057 102.098 70.2259C101.738 70.7661 101.378 71.3063 101.198 71.8465C100.658 72.5668 100.298 73.4671 99.9376 74.1874C99.2174 75.6279 98.4971 77.2485 97.7768 78.689C97.5967 79.2292 97.4167 79.7695 97.2366 80.1296C97.0566 80.4897 96.8765 81.0299 96.6964 81.39C96.5164 82.1103 96.3363 82.8306 96.1562 83.5508C95.9761 83.911 95.9762 84.4511 95.7961 84.8113C95.616 85.5315 95.436 86.2518 95.2559 86.9721C95.0758 87.5123 95.0759 87.8724 94.8958 88.4126C94.7157 89.493 94.5356 90.5735 94.3556 91.8339C94.1755 93.4545 93.9954 94.895 93.8154 96.5156C93.6353 98.1362 93.6353 99.7568 93.4552 101.377C93.2752 104.799 93.0951 108.22 93.0951 111.461C93.0951 114.702 93.0951 117.944 93.0951 121.005C93.0951 124.246 93.0951 127.487 93.0951 130.908C93.0951 134.149 93.0951 137.391 93.0951 140.632C93.0951 143.873 92.915 147.114 92.735 150.355C92.5549 153.597 92.5549 156.838 92.3748 160.079C92.1947 163.32 92.0147 166.561 91.8346 169.803C91.4745 174.124 91.1144 178.446 90.9343 182.947C90.9343 185.108 90.9343 187.269 90.9343 189.43C90.9343 191.591 91.2944 193.931 91.4745 196.092C91.6545 197.533 91.8347 199.153 92.1948 200.594C92.3749 202.034 92.735 203.655 93.0951 205.096C93.8154 208.157 94.3556 211.398 94.8958 214.459C95.0759 216.08 95.436 217.88 95.616 219.501C95.7961 221.122 95.7961 222.742 95.9761 224.363C96.1562 227.604 96.1562 230.845 96.3363 234.086C96.5164 240.569 96.8765 247.051 96.8765 253.534C96.8765 260.016 96.8765 266.498 96.8765 272.981C96.8765 275.502 97.0565 277.843 97.0565 280.363C97.2366 282.884 97.2366 285.585 97.4167 288.106C97.5968 290.627 97.5967 293.148 97.7768 295.669C97.9569 298.01 98.137 300.351 98.317 302.692C98.6772 305.032 99.0373 307.373 99.7575 309.534C100.478 311.875 101.018 314.216 101.918 316.557C103.359 321.058 104.979 325.74 106.78 330.242C107.5 332.042 108.401 333.663 109.301 335.464C110.201 337.084 111.282 338.705 112.542 340.145C113.443 341.406 114.523 342.666 115.603 343.747C116.684 345.007 117.944 346.088 119.205 347.168C120.285 347.888 121.185 348.609 122.266 349.329C123.166 349.869 124.067 350.409 125.147 350.769C126.948 351.49 128.748 352.03 130.729 352.21C131.269 352.21 131.629 352.21 132.169 352.21C132.71 352.21 133.07 352.21 133.61 352.21C134.15 352.03 134.871 352.03 135.411 351.85C136.131 351.67 136.851 351.31 137.571 351.13C139.372 350.229 141.173 349.149 142.973 347.888C143.514 347.528 144.054 346.988 144.594 346.628C145.314 346.088 146.035 345.367 146.575 344.647C146.935 344.107 147.295 343.567 147.475 342.846C147.835 341.946 148.015 341.046 148.195 339.965L148.015 339.785C147.655 339.425 147.475 338.885 147.475 338.525C147.835 336.364 148.015 334.023 148.195 331.862C148.375 330.422 148.375 328.801 148.556 327.361C148.736 323.939 148.916 320.698 149.096 317.277C149.456 310.795 149.456 304.312 149.636 297.65C149.816 290.987 150.176 284.505 150.356 277.842C150.716 271.36 151.076 264.698 151.617 258.215C151.797 254.794 151.977 251.553 152.337 248.132C152.697 244.71 153.057 241.469 153.417 238.048C153.777 234.987 154.138 231.926 154.318 228.864C154.678 225.623 154.858 222.562 155.398 219.321C155.758 215.72 156.298 212.298 156.839 208.697C157.199 205.636 157.559 202.395 158.099 199.334C158.639 195.912 159.179 192.311 159.72 188.89C160.26 185.829 160.62 182.767 161.16 179.706C161.52 177.185 161.88 174.664 162.241 172.143C162.601 169.803 163.141 167.462 163.501 165.121C163.861 162.96 164.221 160.799 164.581 158.638C164.942 156.118 165.302 153.777 165.662 151.256C166.022 148.015 166.382 144.773 166.922 141.532C167.282 138.291 167.823 135.05 168.003 131.629C168.363 128.387 168.543 125.146 168.723 121.905C169.083 118.664 169.263 115.423 169.443 112.181C169.623 109.66 169.623 107.32 169.623 104.799C169.623 102.458 169.623 99.9369 169.623 97.596C169.623 95.0751 169.443 92.7342 169.263 90.2133C169.083 88.0525 168.903 85.7116 168.723 83.5508C168.363 81.7502 168.003 79.9495 167.643 78.1489C167.463 77.2485 167.102 76.1681 166.922 75.2678C166.562 74.3675 166.202 73.287 165.842 72.3867C165.662 72.0266 165.482 71.6664 165.482 71.3063C164.762 69.6857 163.861 68.0652 162.961 66.6246C162.061 65.1841 160.98 63.5635 159.9 62.123C158.999 60.8625 158.099 59.7821 157.019 58.7017C155.938 57.6213 154.858 56.5409 153.597 55.4605C153.057 55.1004 152.337 54.5601 151.797 54.2C151.257 53.8399 150.536 53.4797 149.816 53.2997C149.276 53.1196 148.916 52.9396 148.375 52.7595C147.655 52.5794 147.115 52.3994 146.395 52.2193C145.134 51.8592 143.874 51.6791 142.613 51.499C140.453 52.0392 138.652 51.8592 136.851 51.8592ZM141.533 48.4379C143.154 48.618 144.954 48.9781 146.575 49.3382C149.816 50.0585 152.877 51.3189 155.398 53.4797C157.919 55.4605 160.08 57.8014 162.061 60.3223C164.041 62.8432 165.842 65.7242 167.463 68.6053C168.903 71.4864 170.164 74.7276 170.884 77.9688C171.244 79.4093 171.604 80.8498 171.784 82.4704C172.144 84.2711 172.324 85.8917 172.504 87.6924C172.684 89.313 172.684 91.1137 172.865 92.7342C173.045 94.1748 173.045 95.6153 173.045 96.8758C173.045 98.6764 173.045 100.477 173.045 102.278C173.045 103.898 173.045 105.519 173.045 106.959C173.045 110.021 172.865 113.262 172.684 116.323C172.504 119.564 172.144 122.985 171.964 126.227C171.784 129.468 171.424 132.709 171.064 135.95C170.704 139.191 170.163 142.433 169.803 145.674C169.443 149.275 168.903 152.696 168.363 156.298C167.463 162.78 166.022 169.082 165.122 175.565C164.401 180.427 163.681 185.288 162.961 189.97C162.601 192.491 162.061 195.012 161.7 197.353C161.34 199.694 160.98 201.854 160.62 204.195C160.44 205.636 160.26 206.896 160.08 208.157V207.977C159.9 209.417 159.72 210.858 159.54 212.298V212.478V212.298C159.54 212.478 159.54 212.478 159.54 212.658C159.54 212.478 159.54 212.478 159.54 212.298C159.36 213.559 159.179 214.999 158.999 216.26C158.999 216.44 158.999 216.44 158.999 216.62V216.44C158.639 219.501 158.279 222.742 157.919 225.803C157.559 229.044 157.199 232.466 156.839 235.707C156.478 238.948 156.118 242.369 155.758 245.611C155.398 248.672 155.218 251.733 155.038 254.794C154.678 261.456 154.138 268.119 153.777 274.961C153.417 281.624 153.057 288.106 152.877 294.769C152.697 301.251 152.517 307.553 152.337 314.036C152.157 317.277 152.157 320.518 151.797 323.759C151.617 325.92 151.617 327.901 151.437 330.062C151.437 330.782 151.257 331.682 151.257 332.403C151.797 332.763 152.157 333.303 152.157 334.023C152.157 335.464 152.157 336.904 151.977 338.345C151.797 339.785 151.617 341.046 151.257 342.486C151.076 343.207 150.716 343.927 150.536 344.647C150.176 345.367 149.816 346.088 149.276 346.808C148.916 347.348 148.375 347.888 147.835 348.428C147.295 348.969 146.755 349.329 146.035 349.869C144.774 350.769 143.694 351.85 142.433 352.57C141.173 353.47 139.732 354.191 138.292 354.911C137.571 355.271 136.851 355.451 136.131 355.631C135.411 355.811 134.69 355.991 133.97 355.991C132.35 356.171 130.909 356.171 129.288 355.991C126.227 355.631 123.166 354.551 120.465 352.93C119.205 352.21 117.944 351.31 116.684 350.409C115.243 349.329 114.163 348.248 112.902 346.988C111.822 345.908 110.922 344.827 110.021 343.567C108.941 342.306 107.861 340.866 106.96 339.425C106.06 337.985 105.34 336.544 104.439 335.104C103.719 333.663 102.999 332.042 102.459 330.422C101.918 328.981 101.378 327.361 100.658 325.74C100.118 324.3 99.5775 322.679 99.0373 321.238C97.9569 318.177 97.0565 315.116 96.1562 312.055C95.2559 308.814 94.5356 305.573 94.1755 302.331C93.8153 299.09 93.6353 295.849 93.4552 292.428C93.2752 289.187 93.0951 285.945 92.915 282.704C92.735 279.643 92.735 276.402 92.735 273.161C92.5549 266.678 92.735 260.196 92.735 253.714C92.735 247.411 92.5549 240.929 92.3748 234.447C92.3748 231.385 92.1948 228.324 92.0147 225.263C92.0147 223.642 91.8346 222.022 91.8346 220.401C91.6546 218.961 91.4745 217.52 91.2945 216.08C90.7543 212.839 90.2141 209.597 89.4938 206.356C89.1337 204.735 88.7735 202.935 88.4134 201.314C88.0532 199.334 87.8732 197.353 87.5131 195.552C87.5131 195.732 87.5131 195.912 87.5131 196.092C86.6127 189.61 86.7928 182.947 87.333 176.285C87.513 173.044 87.8732 169.803 88.0532 166.561C88.2333 163.5 88.4134 160.439 88.5935 157.558C88.7735 154.137 88.9536 150.716 88.9536 147.474C89.1336 144.053 89.1336 140.812 89.3137 137.391C89.3137 134.33 89.3137 131.268 89.3137 128.207C89.3137 124.786 89.3137 121.365 89.3137 117.944C89.3137 114.702 89.3137 111.461 89.3137 108.22C89.3137 104.979 89.4938 101.557 89.8539 98.3163C90.034 96.8757 90.034 95.2551 90.214 93.8146C90.3941 92.9143 90.3941 92.0139 90.5741 91.1136C90.7542 90.0332 90.9343 89.1329 91.1144 88.0525C91.2944 86.4319 91.6546 84.8113 92.0147 83.3708C92.1948 82.6505 92.3748 81.7502 92.735 81.0299C92.915 80.3097 93.0951 79.5894 93.4552 79.0492C93.8154 78.1489 93.9954 77.4286 94.3556 76.5283C94.7157 75.808 95.0758 74.9076 95.436 74.1874C96.1562 72.7468 96.8765 71.3063 97.5968 69.6857C97.9569 68.9655 98.4971 68.2452 98.8572 67.525C99.2173 66.8047 99.7576 66.0844 100.298 65.5442C101.018 64.4638 101.918 63.5635 102.639 62.6631C104.619 60.3223 107.14 58.7017 109.661 56.901C110.922 56.0007 112.362 55.1003 113.803 54.2C115.063 53.2997 116.504 52.5794 117.944 51.8592C118.304 51.6791 118.665 51.499 119.025 51.319C119.385 51.1389 119.925 50.9588 120.285 50.7787C121.005 50.4186 121.726 50.2385 122.446 49.8784C123.346 49.5183 124.067 49.3382 124.967 49.1582C125.687 48.9781 126.587 48.798 127.488 48.618C128.208 48.4379 129.108 48.2578 129.829 48.2578C130.549 48.0778 131.449 48.0777 132.169 47.8977C133.79 47.7176 135.411 47.7177 137.211 47.7177C137.391 47.7177 137.391 47.7177 137.571 47.7177C138.652 48.0778 140.092 48.2578 141.533 48.4379Z" fill="black"/>
<path d="M87.1521 167.282C87.1521 167.282 86.9721 167.282 87.1521 167.282C86.9721 167.282 87.1521 167.282 87.1521 167.282ZM15.1256 156.478L15.3056 156.658C15.3056 156.478 15.1256 156.478 15.1256 156.478ZM14.2252 155.217C14.2252 155.217 14.4053 155.217 14.2252 155.217C14.4053 155.217 14.2252 155.217 14.2252 155.217ZM36.5535 62.303C37.4538 63.0233 38.3541 63.7436 39.2545 64.4639C39.9747 65.1841 40.695 65.9044 41.4153 66.8047C42.1355 67.525 42.6757 68.2453 43.2159 69.1456C45.7369 72.5669 47.7176 76.3482 48.9781 80.4898C49.5183 82.4705 50.0585 84.4512 50.5987 86.612C51.1389 88.7728 51.3189 90.9336 51.6791 92.9143C52.2193 97.0559 52.5794 101.017 52.7594 105.159C52.9395 109.3 53.1196 113.622 53.1196 117.764C53.1196 119.744 53.1196 121.905 53.1196 123.886C53.1196 126.047 53.2997 128.207 53.4797 130.368C53.6598 131.449 53.6598 132.529 53.8398 133.789C54.0199 134.51 54.2 135.23 54.2 136.13C54.3801 136.851 54.5601 137.571 54.7402 138.291C55.1003 139.552 55.6405 140.812 56.0007 142.072C56.3608 143.153 56.901 144.053 57.2611 145.134C57.8013 146.394 58.3415 147.474 58.8817 148.555C59.4219 149.455 59.9621 150.536 60.5023 151.436C60.8625 151.976 61.0425 152.516 61.4027 152.876C61.7628 153.417 62.1229 153.777 62.4831 154.317C64.2837 156.478 66.0843 158.459 68.0651 160.259C69.1455 161.16 70.2259 161.7 71.4864 162.42C72.0266 162.78 72.5668 162.96 73.107 163.14C74.0073 163.5 74.7276 163.86 75.6279 164.221C78.689 165.301 81.5701 166.562 84.8113 167.102C85.5315 167.102 86.2518 167.102 87.1521 167.102C87.6923 166.922 88.4126 166.922 88.9528 166.742C89.8531 166.561 90.9335 167.102 91.1136 168.002C91.2937 168.902 90.7534 169.983 89.8531 170.163C89.3129 170.343 88.5927 170.523 88.0525 170.523C87.3322 170.703 86.612 170.703 85.8917 170.703C84.2711 170.703 82.8306 170.343 81.21 169.983C79.4093 169.443 77.6086 168.722 75.808 168.002C73.8272 167.282 71.8465 166.381 69.8657 165.301C66.6245 163.68 64.1036 161.34 61.7628 158.639C60.3222 157.018 59.0618 155.397 57.9814 153.597C55.6405 149.995 53.8399 145.854 52.2193 141.892C50.5987 137.751 50.0585 133.429 49.6983 129.108C49.3382 124.966 49.3382 120.645 49.3382 116.323C49.3382 112.181 49.1581 108.22 48.9781 104.078C48.798 100.297 48.4379 96.5157 47.8977 92.9143C47.5375 90.3934 47.1774 87.8725 46.4571 85.3516C46.097 83.911 45.7369 82.4705 45.3768 81.21C45.0166 80.1296 44.6565 78.8692 44.1163 77.7888C43.5761 76.5283 42.8558 75.0878 42.1355 73.8273C41.4153 72.5669 40.695 71.4864 39.7947 70.406C39.2545 69.6858 38.5342 68.7855 37.8139 68.0652C37.0937 67.3449 36.3734 66.6246 35.4731 65.9044C35.6532 66.0844 35.6531 66.0845 35.8332 66.2645C35.4731 66.0845 35.293 65.7243 34.9329 65.5443C34.2126 65.0041 33.3123 64.4638 32.4119 64.1037C31.8718 63.9236 31.1515 63.7436 30.6113 63.5635C29.891 63.5635 29.3508 63.5635 28.8106 63.5635C27.7302 63.7436 26.6498 64.1037 25.5694 64.6439C23.7688 65.5443 21.9681 66.6246 20.3475 67.8851C18.907 69.1456 17.4665 70.5861 16.3861 72.2067C15.4857 73.4672 14.5854 74.7276 13.8651 76.1682C13.505 76.8884 13.1449 77.4287 12.7847 78.1489C12.2445 79.2293 11.7043 80.3097 11.3442 81.3901C10.9841 82.2904 10.6239 83.0107 10.4439 83.911C10.0837 84.8113 9.72358 85.8918 9.36345 86.7921C9.00331 87.8725 8.6432 88.9529 8.28306 89.8532C7.92293 90.9336 7.74287 92.014 7.38273 93.0944C6.84253 95.0751 6.4824 97.0559 5.9422 99.0366C5.58206 101.017 5.22192 102.998 4.86179 104.979C4.86179 105.339 4.68174 105.879 4.68174 106.239C4.14154 110.021 3.78141 113.982 3.78141 117.944C3.78141 119.924 3.60134 121.905 3.78141 123.886C3.96147 125.867 4.14152 127.847 4.32158 129.828C4.68172 132.169 5.04185 134.69 5.76212 137.031C6.12225 138.291 6.4824 139.552 6.84253 140.812C7.02259 141.532 7.20265 142.072 7.56278 142.793C7.74285 143.333 7.92293 143.873 8.28306 144.413C8.6432 145.314 9.18339 146.214 9.54352 147.114C10.0837 148.015 10.6239 148.915 11.1641 149.995C11.7043 150.896 12.2445 151.616 12.7847 152.516C13.3249 153.417 14.0452 154.137 14.5854 155.037L14.7654 155.217C14.9455 155.397 14.9455 155.577 15.1256 155.758C15.3056 155.938 15.4857 156.298 15.6658 156.478C17.2864 158.459 18.907 160.619 20.7076 162.42C21.608 163.32 22.5083 164.401 23.5887 165.301C24.1289 165.841 24.6691 166.201 25.2093 166.742C25.7495 167.102 26.2897 167.462 26.6498 168.002C29.3508 169.983 32.2319 171.963 35.1129 173.944C36.7335 175.025 38.3542 175.925 39.9748 176.825C41.4153 177.726 43.0358 178.446 44.6564 179.166C46.9973 180.067 49.3382 180.967 51.8591 181.687C53.2996 182.047 54.5601 182.407 56.0007 182.587C57.0811 182.767 58.3415 182.948 59.4219 183.128C60.6824 183.308 61.7628 183.308 63.0232 183.488C64.2837 183.488 65.5442 183.488 66.8046 183.668C68.0651 183.668 69.1455 183.668 70.406 183.668C71.4864 183.668 72.3867 183.488 73.4671 183.308C74.5475 183.128 75.808 182.948 76.8884 182.768C78.1488 182.587 79.2292 182.227 80.4897 182.047C82.8306 181.687 85.3515 181.507 87.6924 181.507C88.7728 181.507 89.673 182.407 89.673 183.668C89.673 184.748 88.7728 185.649 87.6924 185.829C85.5316 185.829 83.3708 186.009 81.39 186.189C79.5894 186.549 77.7887 186.909 75.988 187.089C73.8272 187.449 71.6664 187.629 69.5056 187.809C67.5249 187.989 65.5441 187.809 63.5634 187.809C61.4026 187.629 59.4219 187.449 57.2611 187.089C53.2996 186.369 49.5182 185.469 45.7369 184.028C41.9555 182.587 38.1741 180.607 34.5728 178.446C32.7721 177.365 30.9714 176.105 29.1708 174.845C27.5502 173.764 25.7495 172.504 24.309 171.243C23.4086 170.523 22.6884 169.983 21.788 169.263C21.0678 168.542 20.1674 167.822 19.4472 167.102C18.7269 166.381 18.0067 165.661 17.2864 164.941C16.7462 164.221 16.0259 163.5 15.4857 162.78C14.2253 161.16 12.7847 159.359 11.5242 157.738C10.2638 156.118 9.00331 154.497 7.92291 152.696C6.84251 150.716 5.58205 148.735 4.86179 146.754C4.50165 145.854 4.14154 144.773 3.78141 143.873C3.42127 142.793 3.06113 141.712 2.701 140.632C2.1608 138.651 1.62059 136.49 1.26046 134.51C0.900326 132.529 0.540194 130.368 0.360127 128.207C0.180061 126.227 0 124.066 0 122.085C0 120.104 1.09877e-05 117.944 0.180077 115.963C0.360144 111.641 0.900321 107.32 1.62059 102.998C1.98072 100.837 2.52094 98.6765 2.88107 96.5157C3.42127 94.5349 3.96146 92.3741 4.50166 90.3934C5.76212 86.2519 7.20266 82.2905 9.00332 78.329C9.36345 77.4287 9.90366 76.5283 10.4439 75.4479C11.5243 73.2871 12.9648 71.3064 14.5854 69.3257C15.4857 68.2453 16.3861 67.3449 17.2864 66.4446C18.3668 65.3642 19.8073 64.6439 21.0678 63.7436C22.3282 63.0233 23.5887 62.3031 24.8492 61.7629C26.2897 61.2227 27.7302 60.8625 29.1708 60.6825C29.5309 60.6825 29.711 60.6825 30.0711 60.6825C32.0518 59.7821 34.5727 60.8625 36.5535 62.303Z" fill="black"/>
<path d="M160.079 277.663C159.899 277.663 159.899 277.843 159.719 277.843C159.719 277.663 159.899 277.663 160.079 277.663ZM196.092 265.598C198.073 266.138 199.873 267.039 201.674 267.939C202.754 268.479 203.835 269.379 204.555 270.28C204.915 270.82 205.275 271.36 205.455 272.08C205.635 272.621 205.815 273.161 205.815 273.701C205.996 274.781 206.176 276.042 206.176 277.122C206.356 279.103 206.356 280.904 206.176 282.884C206.176 283.965 205.816 285.045 205.635 286.126C205.455 287.206 205.095 288.286 204.555 289.187C204.195 289.727 204.015 290.267 203.655 290.807C202.574 292.428 201.134 294.049 199.693 295.309C198.253 296.569 196.632 297.65 195.012 298.55C194.111 299.09 193.211 299.451 192.311 299.811C191.05 300.351 189.79 300.711 188.529 301.071C187.809 301.251 187.089 301.251 186.368 301.431C184.568 301.611 182.587 301.611 180.786 301.611C177.005 301.611 173.224 301.071 169.442 300.711C166.741 300.351 163.86 300.171 161.159 299.991C159.719 299.811 158.278 299.631 157.018 299.451C156.297 299.451 155.577 299.27 154.857 299.09C153.956 298.91 152.876 298.73 151.976 298.55C151.616 298.55 151.075 298.01 150.895 297.65C150.715 297.29 150.535 296.75 150.715 296.209C150.895 295.669 151.075 295.309 151.616 295.129C151.976 294.949 152.516 294.949 153.056 294.949C154.497 295.129 155.937 295.489 157.378 295.669C159.178 295.849 160.979 296.029 162.78 296.209C164.76 296.389 166.741 296.569 168.722 296.75C170.703 296.93 172.503 297.11 174.484 297.29C176.285 297.47 178.085 297.65 179.886 297.65C181.146 297.65 182.407 297.83 183.667 297.65C184.928 297.65 186.188 297.47 187.449 297.29C188.709 297.11 189.79 296.75 191.05 296.209C191.95 295.849 193.031 295.309 193.931 294.769C194.831 294.229 195.912 293.508 196.812 292.968C197.532 292.428 198.073 291.888 198.793 291.168C199.333 290.627 199.873 289.907 200.414 289.187C201.134 288.286 201.674 287.386 202.034 286.306C202.574 285.045 202.754 283.605 202.934 282.344C203.115 279.823 203.115 277.122 202.754 274.601C202.574 273.881 202.574 273.161 202.394 272.441C202.214 272.261 202.214 271.9 202.034 271.72C201.854 271.54 201.674 271.18 201.314 271C200.594 270.46 199.873 270.1 199.153 269.74C198.073 269.199 196.992 268.839 195.732 268.479C195.012 268.299 194.291 268.119 193.391 267.939C192.671 267.759 192.13 267.759 191.41 267.579C189.429 267.399 187.629 267.219 185.648 267.399C184.027 267.579 182.407 268.119 180.786 268.659C180.066 269.019 179.166 269.379 178.445 269.74C177.545 270.28 176.825 270.82 175.925 271.36C174.304 272.441 172.863 273.521 171.423 274.601C169.802 275.682 168.362 276.762 166.741 277.843C165.121 278.743 163.5 279.643 161.879 280.364C160.439 280.904 159.178 281.444 157.738 281.984C156.477 282.524 155.217 282.884 153.776 283.065C153.236 283.065 152.876 283.064 152.516 282.884C152.156 282.704 151.796 282.344 151.796 281.804C151.616 281.264 151.796 280.904 151.976 280.364C152.156 280.003 152.516 279.643 153.056 279.463C154.317 279.283 155.577 278.923 156.837 278.383C158.098 277.843 159.358 277.482 160.619 276.942C162.239 276.222 163.68 275.502 165.121 274.601C166.741 273.701 168.182 272.621 169.802 271.54C171.243 270.46 172.863 269.379 174.304 268.299C175.204 267.759 175.925 267.219 176.825 266.678C177.545 266.138 178.445 265.778 179.166 265.418C182.047 263.977 185.108 263.437 188.349 263.437C190.51 264.338 193.391 264.698 196.092 265.598Z" fill="black"/>
<path d="M177.182 212.659C177.182 212.659 177.362 212.659 177.362 212.478C177.362 212.659 177.362 212.659 177.182 212.659ZM191.047 223.823C191.047 223.823 191.227 223.823 191.047 223.823C191.227 223.823 191.227 223.823 191.047 223.823ZM190.867 224.003C190.867 224.003 191.047 224.003 191.047 223.823C191.047 223.823 190.867 223.823 190.867 224.003ZM189.607 220.762C189.607 220.762 189.427 220.762 189.607 220.762C189.427 220.762 189.607 220.762 189.607 220.762ZM222.919 209.597C222.739 209.597 222.739 209.597 222.559 209.777C222.739 209.597 222.739 209.597 222.919 209.597ZM187.266 201.855C187.086 202.035 187.086 202.035 186.906 202.215C187.086 202.035 187.266 202.035 187.266 201.855ZM205.093 183.668L204.912 183.848C204.912 183.848 204.912 183.848 205.093 183.668ZM227.781 33.8526C227.601 33.8526 227.601 34.0327 227.421 34.0327C227.601 34.0327 227.601 33.8526 227.781 33.8526ZM243.087 31.8719C243.267 31.8719 243.267 31.8719 243.447 31.8719C243.447 31.8719 243.267 31.8719 243.087 31.8719ZM239.305 27.7304C240.386 27.7304 241.286 27.9104 242.366 28.0905C243.447 28.2705 244.707 28.4506 245.788 28.6307C247.768 28.9908 249.749 29.531 251.73 30.4314C253.35 31.1516 254.971 32.052 256.411 33.1324C258.032 34.2128 259.293 35.4732 260.553 36.7337C260.913 37.0938 261.273 37.634 261.633 37.9941C261.994 38.3543 262.354 38.8945 262.714 39.2546C263.434 40.1549 263.974 40.8752 264.514 41.7755C265.055 42.6759 265.595 43.5762 266.135 44.4765C266.675 45.3769 267.035 46.4573 267.576 47.3576C268.116 48.438 268.476 49.5184 268.836 50.5988C269.556 52.5795 270.277 54.7403 270.817 56.7211C271.357 58.7018 271.717 60.8626 272.077 62.8433C272.437 65.0041 272.798 67.3449 272.978 69.5057C273.158 71.3064 273.158 72.927 273.338 74.7277C273.518 76.5284 273.698 78.5091 273.878 80.3097C274.238 83.911 274.598 87.5124 275.138 90.9337C275.498 92.9144 275.679 95.0752 276.039 97.0559C276.219 98.1363 276.399 99.2167 276.579 100.297C276.759 101.378 276.939 102.278 277.119 103.358C277.479 105.699 277.659 107.86 277.839 110.201C278.019 112.362 278.38 114.522 278.56 116.683C278.56 117.223 278.56 117.583 278.74 118.124C278.74 118.664 278.92 119.204 278.92 119.744C278.92 120.825 279.1 121.905 278.92 122.985C278.92 125.326 278.74 127.487 278.56 129.828C278.38 131.989 278.199 133.97 278.019 136.13C277.659 138.471 277.299 140.632 276.759 142.793C275.859 146.754 274.778 150.896 273.698 154.857C272.978 156.838 272.257 158.999 271.357 160.979C270.457 162.96 269.736 164.941 268.656 166.922C266.675 170.883 264.695 174.845 262.534 178.626C260.553 182.227 258.212 185.829 255.691 189.25C252.99 192.491 250.109 195.552 247.048 198.613C245.608 200.054 243.987 201.494 242.366 202.755C240.566 204.015 238.765 205.276 236.964 206.536C235.344 207.617 233.543 208.517 231.922 209.417C230.122 210.318 228.321 211.398 226.34 212.118C225.26 212.659 224.18 213.199 222.919 213.559C222.019 213.919 220.938 214.279 220.038 214.639C219.138 214.999 218.057 215.36 216.977 215.54C216.077 215.72 214.996 216.08 214.096 216.26C213.015 216.44 211.755 216.62 210.675 216.8C209.414 216.98 208.334 217.34 207.073 217.52C205.993 217.7 204.913 218.061 203.652 218.421C202.572 218.781 201.671 219.141 200.591 219.501C198.79 220.401 196.99 221.302 195.009 222.202C193.928 222.742 192.848 223.283 191.768 223.643C191.768 223.643 191.768 223.643 191.588 223.643C191.408 223.643 191.408 223.823 191.227 223.823C189.247 224.723 187.086 225.443 184.925 226.163C184.025 226.524 183.124 226.704 182.224 227.064C181.684 227.244 180.964 227.424 180.423 227.604C178.983 227.964 177.542 228.144 175.922 228.324C175.021 228.324 173.941 228.324 173.041 228.324C171.96 228.324 170.88 228.324 169.98 228.324C167.819 228.144 165.658 227.964 163.497 227.604C162.597 227.424 161.517 227.424 160.436 227.244C159.176 227.064 157.735 226.704 156.475 226.524C155.574 226.344 155.034 225.263 155.214 224.363C155.394 223.462 156.475 222.922 157.195 223.102C158.635 223.462 159.896 223.643 161.336 224.003C162.237 224.183 163.317 224.363 164.218 224.363C166.198 224.543 167.999 224.903 169.98 224.903C171.06 224.903 172.14 224.903 173.221 224.903C174.481 224.903 175.922 224.903 177.182 224.723C179.523 224.363 181.864 223.463 184.205 222.742C186.005 222.022 187.806 221.482 189.607 220.762C189.787 220.762 189.787 220.581 189.967 220.581C190.147 220.581 190.147 220.401 190.327 220.401C191.768 219.681 193.208 218.961 194.649 218.241C195.549 217.881 196.449 217.34 197.35 216.8C198.43 216.26 199.33 215.9 200.411 215.36C201.491 214.999 202.392 214.639 203.472 214.459C204.552 214.279 205.633 213.919 206.713 213.739C208.694 213.379 210.675 213.019 212.835 212.659C214.456 212.298 216.077 211.938 217.697 211.398C219.318 210.858 220.758 210.318 222.199 209.597C223.639 208.877 225.26 208.157 226.701 207.437C228.141 206.716 229.762 205.996 231.202 205.096C232.823 204.195 234.443 203.115 235.884 202.215C237.324 201.314 238.585 200.414 239.845 199.334C241.106 198.433 242.186 197.353 243.267 196.273C244.527 195.192 245.608 193.932 246.868 192.851C249.029 190.69 251.19 188.17 253.17 185.829C254.251 184.388 255.331 182.767 256.411 181.147C257.492 179.166 258.752 177.365 259.833 175.385C260.913 173.584 261.813 171.603 262.894 169.623C263.794 167.822 264.695 166.021 265.595 164.221C266.315 162.42 267.215 160.619 267.936 158.999C268.656 157.198 269.376 155.217 269.916 153.237C270.637 151.256 271.177 149.095 271.717 147.114C272.257 145.134 272.617 143.153 273.158 141.172C273.518 139.191 273.878 137.211 274.238 135.05C274.598 130.908 274.958 126.587 274.958 122.445C274.958 121.905 274.958 121.365 274.958 120.825C274.958 120.465 274.958 119.924 274.958 119.564C274.778 118.484 274.778 117.403 274.598 116.323C274.418 114.162 274.058 112.001 273.878 110.021C273.698 108.04 273.518 106.059 273.158 104.259C272.978 103.358 272.978 102.458 272.798 101.558C272.617 100.477 272.437 99.3968 272.257 98.3164C271.897 96.1556 271.537 93.9948 271.177 92.014C270.817 89.8532 270.637 87.6925 270.457 85.5317C270.277 83.3709 269.916 81.03 269.736 78.8692C269.556 77.2486 269.556 75.628 269.376 73.8274C269.196 72.0267 269.196 70.226 268.836 68.4254C268.656 66.8048 268.296 65.1842 268.116 63.5636C267.756 61.7629 267.396 60.1423 267.035 58.3417C266.315 55.2805 265.235 52.2194 263.974 49.1583C263.614 48.6181 263.434 47.8978 263.074 47.3576C262.714 46.6373 262.354 45.917 261.813 45.1968C261.093 43.9363 260.373 42.8559 259.473 41.7755C259.112 41.4154 258.932 41.0553 258.572 40.6951C258.212 40.335 257.852 39.7948 257.492 39.4347C257.132 39.0746 256.772 38.7144 256.592 38.5344C255.871 37.9942 255.331 37.2739 254.611 36.7337C252.99 35.4732 251.19 34.5729 249.389 33.6725C247.228 32.7722 244.887 32.4121 242.546 31.8719C241.466 31.6918 240.206 31.5118 238.945 31.5118C237.505 31.3317 235.884 31.5117 234.263 31.6918C231.742 32.0519 229.402 32.9523 227.061 33.8526C225.44 34.5729 223.819 35.4732 222.199 36.3735C220.758 37.2739 219.318 38.1742 218.057 39.2546C217.697 39.6147 217.337 39.9749 216.797 40.335C216.437 40.6952 215.897 41.2353 215.536 41.5954C214.456 42.6758 213.376 43.7563 212.475 44.8367C211.935 45.5569 211.395 46.4573 210.855 47.1775C210.495 47.7177 210.134 48.2579 209.954 48.9782C209.414 50.0586 208.874 51.139 208.514 52.2194C207.974 53.4799 207.613 54.7403 207.073 56.0008C206.713 57.2612 206.533 58.7018 206.173 59.9622C205.993 61.943 205.813 63.9237 205.633 65.9044C205.453 67.8851 205.453 69.8659 205.453 72.0267C205.453 74.1875 205.273 76.3483 205.273 78.5091C205.273 80.6699 205.273 83.0107 205.453 85.1715C205.633 88.5928 205.993 92.0141 206.353 95.2553C206.893 99.2167 207.433 103.178 208.154 107.14C208.874 111.461 209.414 115.783 210.134 120.104C210.855 124.426 211.575 128.748 212.295 133.249C212.655 135.23 212.835 137.211 213.196 139.372C213.556 141.712 213.916 143.873 214.096 146.214C214.276 148.375 214.276 150.356 214.456 152.516C214.456 154.497 214.636 156.658 214.636 158.819C214.636 160.979 214.636 163.14 214.456 165.301C214.456 166.381 214.276 167.462 214.276 168.362C214.276 169.443 214.096 170.703 213.916 171.783C213.556 173.764 213.015 175.745 212.295 177.726C211.575 179.706 210.315 181.687 209.234 183.488C208.514 184.388 207.794 185.288 207.253 186.369C206.713 187.089 205.993 187.809 205.453 188.71C204.012 190.33 202.752 191.951 201.311 193.572C199.871 195.192 198.61 196.633 197.17 198.073C195.729 199.514 194.109 200.774 192.668 202.035C191.588 202.935 190.507 203.835 189.247 204.736L189.067 204.916C188.526 205.276 187.986 205.816 187.446 206.176C186.546 206.716 185.825 207.437 184.925 207.977C184.025 208.517 183.124 209.057 182.224 209.777C181.324 210.318 180.604 210.858 179.703 211.218C178.623 211.758 177.542 212.298 176.462 212.839H176.642C173.581 214.099 170.52 214.999 167.459 215.9C166.018 216.44 164.578 216.8 162.957 216.98C161.336 217.16 159.716 217.34 158.095 217.34C157.195 217.34 156.295 216.44 156.295 215.54C156.295 214.459 157.195 213.739 158.095 213.739C159.356 213.739 160.616 213.559 161.697 213.379C162.777 213.199 163.857 213.019 164.938 212.659C166.018 212.298 167.279 211.938 168.359 211.578C170.7 210.858 172.861 210.138 175.202 209.237C177.182 208.337 178.983 207.257 180.784 206.176C181.864 205.456 182.944 204.736 183.845 204.015C184.745 203.295 185.645 202.575 186.546 201.855C186.726 201.674 187.086 201.494 187.266 201.314C187.446 201.134 187.806 200.954 187.986 200.774C188.346 200.414 188.707 200.234 189.067 199.874C190.687 198.613 192.308 197.173 193.928 195.732C195.369 194.292 196.81 192.671 198.07 191.231C199.33 189.61 200.771 188.169 202.031 186.549C202.752 185.649 203.472 184.748 204.192 183.848C205.813 181.687 207.433 179.346 208.514 176.645C208.874 175.565 209.234 174.484 209.594 173.404C209.954 172.144 210.134 170.883 210.314 169.623C210.495 167.642 210.675 165.661 210.675 163.68C210.675 161.52 210.855 159.359 210.675 157.198C210.675 152.876 210.495 148.735 209.954 144.413C209.954 143.873 209.774 143.333 209.774 142.793C209.414 140.812 209.234 139.011 208.874 137.031C208.514 134.87 208.154 132.529 207.794 130.368C207.073 126.227 206.353 122.085 205.633 117.944C204.913 113.622 204.372 109.3 203.652 105.159C203.292 102.998 202.932 101.017 202.752 98.8566C202.392 96.5157 202.031 94.3549 201.851 92.014C201.671 90.9336 201.671 89.8532 201.491 88.5928C201.491 87.5124 201.311 86.2519 201.311 85.1715C201.131 83.0107 201.131 80.8499 201.131 78.6891C201.131 76.5283 201.131 74.3675 201.311 72.2067C201.311 70.226 201.311 68.2453 201.491 66.0845C201.671 63.9237 201.851 61.5829 202.211 59.4221C202.392 58.3417 202.572 57.0812 202.752 56.0008C202.932 54.9204 203.292 54.0201 203.652 52.9397C204.372 50.7789 205.273 48.7981 206.353 46.8174C206.893 45.9171 207.433 44.8367 207.974 43.9363C209.054 42.3157 210.314 40.8752 211.575 39.4347C211.935 39.0746 212.115 38.8945 212.475 38.5344C212.835 38.1742 213.196 37.634 213.736 37.2739C214.096 36.9137 214.636 36.5536 214.996 36.1935C215.536 35.8333 216.077 35.2932 216.617 34.933C217.337 34.3928 218.237 33.8526 219.138 33.3124C220.038 32.7722 220.758 32.232 221.659 31.8719C222.559 31.3317 223.639 30.7915 224.72 30.4314C225.8 29.8912 227.061 29.531 228.141 28.9908C229.041 28.6307 229.942 28.4506 230.842 28.0905C232.103 27.7303 233.543 27.5503 234.803 27.5503C235.524 27.5503 236.064 27.5503 236.784 27.5503C238.405 27.7304 238.945 27.7304 239.305 27.7304Z" fill="black"/>
<path d="M130.008 48.9782C130.188 48.9782 130.188 48.9782 130.008 48.9782C130.188 48.9782 130.188 48.9782 130.008 48.9782ZM138.651 45.0168C138.651 45.1968 138.651 45.1968 138.651 45.3769C138.651 45.1968 138.651 45.1968 138.651 45.0168ZM124.066 39.0745L124.246 39.2546C124.246 39.0745 124.066 39.0745 124.066 39.0745ZM114.522 30.0712C114.162 29.7111 113.622 29.531 113.262 29.1709C113.262 29.351 113.262 29.5311 113.262 29.7111C113.442 30.9716 113.622 32.052 113.982 33.1324C114.342 34.2128 114.702 35.2931 115.063 36.1935C115.783 37.634 116.323 38.8945 117.223 40.1549C118.124 41.2353 119.024 41.9556 120.104 42.8559C122.805 45.0167 125.686 46.8174 128.928 48.2579C129.288 48.438 129.648 48.6181 130.008 48.6181C130.008 48.438 129.828 48.438 129.828 48.2579C129.648 48.0779 129.648 47.8978 129.468 47.7178C129.288 47.3576 128.928 46.9975 128.748 46.6373C128.207 45.9171 127.847 45.1968 127.487 44.4765C126.947 43.5762 126.587 42.4958 126.047 41.5955C125.867 41.4154 125.686 41.0553 125.506 40.8752C125.146 40.335 124.606 39.6147 124.246 39.0745C123.706 38.3543 123.166 37.8141 122.625 37.2739C121.905 36.5536 121.185 35.8334 120.465 34.933C119.384 33.6726 118.124 32.5922 116.863 31.5118C116.143 31.1516 115.423 30.6114 114.522 30.0712ZM147.835 23.7689C148.015 23.7689 148.015 23.7689 147.835 23.7689C148.015 23.7689 148.015 23.7689 147.835 23.7689ZM125.506 20.1676C126.227 20.3476 126.767 20.7078 127.307 20.8878C128.207 21.428 128.928 22.1483 129.648 22.8686C130.368 23.5888 130.908 24.3091 131.449 25.2095C132.529 26.8301 133.249 28.4506 133.97 30.2513C134.51 31.3317 134.87 32.4121 135.23 33.4925C135.41 34.0327 135.77 34.5729 135.95 35.1131C135.95 34.753 136.13 34.3928 136.31 33.8526C136.851 31.8719 137.391 29.8912 138.471 28.2706C139.552 26.2898 141.172 24.3091 142.793 22.8686C143.513 22.1483 144.413 21.6081 145.314 21.0679C146.394 20.5277 148.015 19.9875 149.095 20.8878C149.275 21.0679 149.635 21.248 149.815 21.6081C149.995 21.7882 149.995 22.1483 150.175 22.3284C150.175 22.5085 150.356 23.0486 150.356 23.2287C150.356 23.4088 150.356 23.4087 150.356 23.5888C150.356 23.9489 150.356 24.4892 150.356 24.8493C150.356 26.65 150.176 28.4506 149.815 30.4314C149.455 32.052 149.275 33.8526 148.735 35.4732C148.195 37.2739 147.655 39.0745 147.114 40.8752C146.574 42.6759 145.854 44.4765 144.773 46.2772C144.233 47.3576 143.333 48.438 142.613 49.3383C141.892 50.2387 140.992 51.139 140.092 52.0393C139.371 52.7596 138.291 52.7596 137.751 52.0393C137.031 51.3191 137.031 50.2386 137.751 49.6984C138.651 48.7981 139.732 47.7177 140.452 46.6373C140.992 45.9171 141.352 45.1968 141.892 44.4765C142.253 43.7563 142.613 42.856 142.973 42.1357C143.873 39.7948 144.593 37.2739 145.314 34.753C145.854 32.7722 146.214 30.7915 146.574 28.6307C146.574 27.7304 146.754 26.83 146.754 25.9297C146.754 25.3895 146.754 24.8493 146.754 24.129C146.214 24.3091 145.854 24.6692 145.494 25.0294C144.593 25.9297 143.693 26.83 142.793 27.7304C141.892 28.9908 140.992 30.4313 140.452 31.8719C140.092 32.9523 139.552 34.2127 139.372 35.4732C139.191 35.8333 139.191 36.3736 139.011 36.9138C139.011 37.2739 138.831 37.634 138.831 37.9941C138.651 39.2546 138.651 40.5151 138.651 41.5955C138.651 43.036 138.651 44.4766 138.471 45.737C138.471 46.0971 138.471 46.2772 138.291 46.6373C138.111 46.9975 137.571 47.3576 137.211 47.5377C136.851 47.5377 136.671 47.5377 136.31 47.5377C135.95 47.3576 135.41 47.1775 135.23 46.6373C134.87 46.0971 134.87 45.3769 134.69 44.6566C134.51 44.1164 134.51 43.3961 134.33 42.8559C134.15 41.7755 133.789 40.6952 133.609 39.6148C133.249 38.5344 133.069 37.634 132.709 36.5536C132.349 35.4732 131.989 34.5729 131.449 33.4925C130.368 30.9715 129.288 28.6307 127.847 26.4699C127.307 25.7496 126.587 25.2094 126.047 24.4891C125.867 24.3091 125.686 24.129 125.326 24.129C125.326 24.3091 125.326 24.6692 125.146 24.8493C124.966 26.4699 125.146 28.0905 125.326 29.7111C125.506 30.7915 125.686 31.6918 126.047 32.7722C126.407 33.8526 126.767 34.753 127.127 35.8334C127.667 36.9138 128.207 38.1742 128.568 39.2546C128.928 39.7948 129.288 40.335 129.648 41.0553C130.188 41.9556 130.728 42.8559 131.269 43.7563C131.629 44.2965 131.809 44.8367 132.169 45.3769C132.529 46.2772 133.069 46.9974 133.429 47.8978C133.609 48.438 133.429 49.3383 132.889 49.6984C132.529 50.0586 132.169 50.2387 131.809 50.2387C131.989 50.5988 131.989 50.7789 131.989 51.139C131.989 52.0393 131.088 53.1197 130.188 52.9397C129.648 52.9397 129.288 52.7596 128.928 52.7596C128.748 52.7596 128.568 52.5795 128.207 52.5795C127.667 52.3994 127.127 52.2194 126.587 51.8593C125.686 51.4991 124.966 50.9589 124.246 50.5988C122.625 49.6984 121.185 48.6181 119.564 47.5377C118.664 46.9975 117.944 46.2772 117.043 45.5569C115.603 44.2965 114.342 43.036 113.262 41.2354C112.722 40.335 112.362 39.6148 112.001 38.7144C111.641 37.8141 111.101 36.9138 110.921 35.8334C110.201 33.6726 109.661 31.3317 109.48 28.9908C109.48 28.2705 109.48 27.7304 109.661 27.0101C109.661 26.8301 109.841 26.2899 110.021 26.1098C110.201 25.9297 110.381 25.5695 110.561 25.3895C110.741 25.2094 111.281 24.8493 111.641 24.8493C112.001 24.6692 112.542 24.8493 112.902 24.8493C113.442 25.0294 113.802 25.2094 114.342 25.3895C115.063 25.7496 115.963 26.2898 116.683 26.83C118.304 27.9104 119.924 29.1709 121.365 30.4314C121.725 30.7915 122.265 31.3317 122.625 31.6918C122.445 30.4313 122.265 29.1709 122.085 27.9105C122.085 27.1902 122.085 26.65 122.085 25.9297C122.085 25.2094 122.085 24.6692 122.265 23.949C122.265 23.2287 122.445 22.6885 122.625 21.9682C122.805 21.428 123.166 20.8879 123.526 20.5277C123.886 20.1676 124.606 19.9875 125.146 19.9875C125.146 20.1676 125.326 20.1676 125.506 20.1676Z" fill="black"/>
<path d="M213.741 21.2478C213.741 21.4279 213.741 21.4279 213.741 21.2478C213.741 21.4279 213.741 21.4279 213.741 21.2478ZM238.95 15.3056V15.4857V15.3056ZM225.625 0.720255C226.886 1.08039 227.966 1.9807 228.686 3.0611C229.767 4.68169 230.667 6.30232 231.567 8.10299C232.108 9.18339 232.468 10.2638 232.828 11.3442C233.008 11.7043 233.008 12.0644 233.188 12.4246C233.368 12.7847 233.548 13.3249 233.548 13.685C233.908 14.9455 234.268 16.386 234.628 17.6465C234.809 16.9262 234.989 16.386 235.349 15.6657C235.709 14.7654 236.069 13.8651 236.429 12.9647C236.969 11.7043 238.05 10.4438 238.95 9.5435C239.85 8.64316 240.931 7.74284 241.831 7.02258C243.092 6.12225 244.352 5.58204 245.613 5.04184C246.693 4.6817 248.133 4.32157 249.214 5.04184C249.394 5.04184 249.394 5.22193 249.574 5.40199C249.754 5.58206 249.934 5.7621 249.934 5.94217C250.114 6.3023 250.114 6.66245 250.294 7.02258C250.294 7.38271 250.294 7.92288 250.294 8.28301C250.294 9.36341 249.934 10.4438 249.934 11.5242C249.754 12.4246 249.574 13.3249 249.394 14.2252C249.214 15.1256 248.854 16.206 248.494 17.1063C248.133 18.1867 247.593 19.2671 247.053 20.1674C246.153 21.9681 245.072 23.9488 243.992 25.5694C242.912 27.19 241.471 28.8106 240.03 30.2511C239.31 30.9714 238.23 30.9714 237.69 30.2511C236.969 29.5309 236.969 28.4505 237.69 27.7302C238.77 26.6498 239.85 25.5694 240.751 24.309C241.651 23.0485 242.371 21.6079 243.272 20.3475C243.992 18.9069 244.712 17.2864 245.432 15.8458C245.793 14.7654 246.153 13.685 246.513 12.6046C246.693 12.0644 246.693 11.5242 246.873 10.984C247.053 10.2637 247.053 9.54351 247.233 8.82324C247.233 8.64318 247.233 8.46308 247.233 8.28301C247.053 8.28301 246.873 8.46309 246.693 8.46309C245.432 9.00329 244.172 9.72357 243.092 10.6239C242.191 11.3442 241.471 12.0644 240.751 12.9647C240.211 13.685 239.67 14.5853 239.31 15.4857C238.41 17.8265 237.69 20.3475 237.329 22.8684C237.149 23.5887 237.149 24.489 237.149 25.2093C237.149 25.5694 237.149 25.9295 236.969 26.4697C236.969 26.6498 236.969 26.8299 236.969 27.01C236.969 27.19 236.969 27.3701 236.969 27.5501C236.969 27.9103 236.789 28.0903 236.789 28.4505C236.069 29.7109 233.908 29.5308 233.728 28.0903C233.548 27.37 233.548 26.4697 233.368 25.7495C233.188 25.0292 233.188 24.3089 233.008 23.5887C232.828 22.1481 232.468 20.7076 232.108 19.2671C231.927 18.3667 231.747 17.6465 231.567 16.7462C231.387 16.0259 231.207 15.1256 230.847 14.4053C230.487 12.9648 229.947 11.7043 229.407 10.4438C229.226 9.90363 228.866 9.36345 228.686 9.00332C228.506 8.46312 228.146 7.92288 227.966 7.38268C227.606 6.48235 227.066 5.76209 226.525 4.86176C226.525 4.68169 226.345 4.68173 226.345 4.50166C225.985 5.58206 225.985 6.48236 225.805 7.56276C225.625 9.54349 225.445 11.7043 225.805 13.685C225.985 15.1255 226.345 16.5661 226.706 17.8266C227.066 19.087 227.426 20.3475 227.966 21.608C228.146 22.1482 228.506 22.6884 228.866 23.2286C229.046 23.4086 229.046 23.5887 229.226 23.5887C229.767 24.1289 230.307 24.6691 230.667 25.2093C230.847 25.3894 231.027 25.7495 231.387 25.9295C231.387 25.9295 231.387 25.9296 231.567 26.1096C231.927 26.4698 232.468 26.8299 232.648 27.3701C233.368 28.4505 232.468 30.2511 231.027 30.0711C230.847 30.0711 230.667 30.0711 230.487 30.0711C230.127 29.891 229.767 29.7109 229.587 29.5309C229.407 29.3508 229.226 29.1707 229.226 28.9906C229.046 28.8106 228.686 28.4505 228.506 28.2704C227.966 27.5501 227.246 27.0099 226.706 26.2896C225.265 24.6691 223.824 23.0485 222.384 21.788C221.844 21.4279 221.123 21.0678 220.583 20.7076C219.503 20.1674 218.242 19.9874 216.982 19.6272C216.262 19.4472 215.361 19.2671 214.641 19.087V19.2671V19.4471C214.821 19.9873 214.821 20.3475 215.001 20.8877C215.361 21.6079 215.721 22.3282 216.082 22.8684C216.622 23.5887 217.342 24.309 218.062 25.0292C218.603 25.3893 219.323 25.9296 219.863 26.1096C221.123 26.6498 222.564 26.8298 224.005 27.19C225.265 27.5501 226.525 27.9103 227.786 28.2704C228.866 28.6305 229.407 29.711 229.046 30.6113C228.686 31.6917 227.786 32.2318 226.706 31.8717C224.905 31.3315 222.924 30.6113 221.123 30.2511C220.583 30.0711 220.043 29.891 219.503 29.891C218.062 29.5308 216.802 28.6305 215.721 27.7302C213.741 26.1096 212.12 23.9488 211.22 21.4279C210.86 20.3475 210.68 19.087 210.86 17.8266C211.04 17.4664 211.22 16.9262 211.4 16.5661C211.76 15.8458 212.48 15.3056 213.201 15.1256C214.461 14.7654 215.902 15.3056 216.982 15.4857C217.882 15.6657 218.783 16.0259 219.863 16.206C220.943 16.5661 222.024 16.9262 222.924 17.4664L223.104 17.6465C222.924 17.2864 222.924 16.9262 222.924 16.5661C222.384 14.4053 222.204 12.4245 222.204 10.2638C222.204 9.18335 222.384 8.10298 222.384 7.02258C222.384 6.48238 222.564 5.76211 222.564 5.22191C222.744 4.14152 222.924 2.88106 223.464 1.80066C223.644 1.44053 224.005 0.90031 224.365 0.540177C224.725 0.180044 225.265 0 225.805 0C225.265 0.540199 225.445 0.720255 225.625 0.720255Z" fill="black"/>
<path d="M37.631 47.3576C37.4509 47.5377 37.0908 47.7178 36.9107 47.7178C36.3705 48.0779 36.0103 48.6181 35.6502 49.1583C34.93 50.2387 34.2097 51.4991 33.6695 52.5795C32.7692 54.7403 32.229 57.0812 31.8689 59.4221C31.8689 59.6022 31.8689 59.6021 31.8689 59.7822C31.8689 59.9623 31.8689 60.3224 31.8689 60.5025C33.3094 58.1616 34.93 55.6407 36.0104 53.1198C36.7306 51.4992 37.2708 49.5184 37.631 47.3576ZM37.9911 47.1776C38.1712 47.1776 38.1712 47.1776 37.9911 47.1776C38.1712 47.1776 38.1712 47.1776 37.9911 47.1776ZM21.2449 46.0971C21.2449 46.2772 21.2449 46.6374 21.2449 46.8175C21.425 48.0779 21.7851 49.3383 22.3253 50.5988C22.8655 51.6792 23.4057 52.5795 23.9459 53.4799C24.8463 54.5603 25.7466 55.4606 26.6469 56.541C26.2868 55.4606 25.9267 54.3802 25.3865 53.2998C25.2064 52.7596 24.8462 52.2194 24.6662 51.6792C24.4861 51.139 24.126 50.5988 23.7659 50.0586C23.4057 49.5184 23.2257 48.9782 22.8655 48.438C22.5054 47.8978 22.1453 47.3577 21.7851 46.8175C21.6051 46.6374 21.425 46.2772 21.2449 46.0971ZM21.425 44.6566C21.425 44.8367 21.425 44.6566 21.425 44.6566V44.6566ZM21.425 41.7756C22.6854 42.1357 23.7659 43.3962 24.4861 44.4766C25.0263 45.1968 25.7466 46.0972 26.1067 46.8175C26.2868 47.1776 26.6469 47.5377 26.827 48.0779C27.007 48.6181 27.3672 49.1583 27.5473 49.6985C27.7273 50.0586 27.9074 50.4187 28.0875 50.7789C28.2675 51.139 28.4476 51.6792 28.6276 52.0394C28.8077 52.5796 28.9878 53.1198 29.3479 53.66C29.8881 52.0394 30.4283 50.4187 31.3286 48.9782C31.8688 47.8978 32.5891 46.8175 33.4895 45.9171C34.3898 44.8367 35.6502 44.1164 36.9107 43.7563C37.4509 43.5762 38.1712 43.5762 38.7114 43.7563C39.0715 43.7563 39.4316 44.1164 39.7918 44.2965C39.9718 44.4765 40.332 44.8367 40.332 45.0168C40.512 45.3769 40.6921 45.557 40.6921 45.9171C40.6921 46.0972 40.6921 46.4573 40.8722 46.8175C40.8722 47.3577 40.8722 47.8978 40.6921 48.258C40.512 49.1583 40.3319 50.0586 40.1519 51.139C39.9718 51.6792 39.7918 52.0393 39.6117 52.5795C39.2516 53.6599 38.8914 54.7404 38.3512 55.6407C37.2708 58.1616 35.6502 60.5025 34.2097 62.8434C33.6695 63.5636 32.7692 63.9237 31.8689 63.5636C31.3287 63.2035 30.9685 62.4832 30.9685 61.943C30.6084 62.3032 30.2482 62.6633 29.528 62.6633C29.1678 62.6633 28.9878 62.6633 28.6276 62.4832C28.6276 62.4832 28.4476 62.4832 28.4476 62.6633C28.0874 62.8433 27.3672 62.6633 27.0071 62.4832C26.1067 61.7629 25.3865 61.0427 24.4861 60.3224C23.7659 59.6022 23.2257 59.062 22.5054 58.3417C21.6051 57.2613 20.7047 56.1809 19.9845 55.1005C19.2642 54.0201 18.724 52.7596 18.3639 51.6792C17.8237 50.2387 17.4635 48.7982 17.2835 47.3576C17.1034 46.2772 17.1034 45.0168 17.6436 43.9364C17.8237 43.2161 18.1838 42.6759 18.9041 42.3158C19.2642 41.9557 19.8044 41.9556 20.3446 41.9556C20.8848 41.5955 21.2449 41.5955 21.425 41.7756Z" fill="black"/>
<path d="M147.114 165.121V165.301C146.934 165.301 146.934 165.121 147.114 165.121ZM140.272 50.9589C140.812 51.4991 141.532 52.0393 142.072 52.7595C142.613 53.4798 143.153 54.02 143.873 54.7403C144.413 55.4605 144.954 56.1808 145.494 56.901C146.394 58.1615 146.934 59.422 147.294 60.8625C148.375 63.7436 149.455 66.6246 150.356 69.5057C151.256 72.3867 152.516 75.2678 153.237 78.1489C154.137 81.21 154.677 84.2711 155.037 87.5123C155.397 90.5735 155.577 93.6346 155.758 96.8758C155.938 100.117 155.938 103.358 156.118 106.419C156.118 109.48 155.938 112.361 155.758 115.423C155.577 117.043 155.577 118.664 155.397 120.104C155.217 121.545 155.037 123.165 154.857 124.606C154.677 126.227 154.497 127.667 154.497 129.288C154.317 130.908 154.317 132.529 154.137 133.969C153.957 137.211 153.417 140.272 153.057 143.513C152.696 146.574 152.336 149.815 151.796 152.876C151.616 154.317 151.256 155.938 150.896 157.378C150.716 158.819 150.356 160.259 150.175 161.7C149.815 163.86 149.635 166.021 149.275 168.362C148.915 170.343 148.555 172.324 148.375 174.484C147.655 178.986 147.114 183.308 146.574 187.809C146.574 187.629 146.574 187.449 146.574 187.449C145.854 193.391 144.773 199.153 144.053 205.096V204.916C143.513 209.417 142.793 213.739 142.253 218.241C141.892 221.302 141.532 224.363 141.352 227.424C140.992 230.485 140.812 233.546 140.452 236.427C140.092 239.488 139.732 242.369 139.552 245.431C139.191 248.672 139.011 251.913 138.831 255.154C138.651 256.595 138.651 258.035 138.651 259.476C138.651 260.916 138.651 262.537 138.651 263.977C138.651 265.598 138.651 267.219 138.831 268.839C138.831 270.28 139.011 271.9 139.011 273.341C139.191 279.643 139.011 285.765 139.191 292.068C139.191 294.769 139.371 297.47 139.552 300.171C139.732 302.692 139.912 305.393 140.092 307.914C140.272 308.994 140.452 309.894 140.632 310.975C140.812 312.235 140.992 313.496 141.172 314.576C141.532 316.917 141.892 319.438 141.892 321.779C142.072 324.3 142.072 326.641 141.892 329.161C141.712 331.682 141.352 334.203 140.992 336.724C140.992 336.544 140.992 336.544 140.992 336.364C140.812 337.805 140.632 339.425 140.452 340.866C140.272 342.306 139.912 343.567 139.732 345.007C139.371 346.268 139.011 347.348 138.291 348.429C137.571 349.509 136.851 350.409 136.13 351.49C135.95 351.85 135.41 351.85 135.05 351.85C134.69 351.85 134.33 351.67 133.969 351.49C133.609 351.13 133.609 350.769 133.609 350.409C133.609 350.049 133.789 349.689 133.969 349.329C133.969 349.329 133.969 349.149 134.15 349.149C134.87 348.068 135.77 346.988 136.31 345.728C136.671 344.647 136.851 343.567 137.211 342.486C137.391 341.226 137.751 339.965 137.751 338.705C137.751 338.885 137.751 338.885 137.751 339.065C137.931 337.084 138.291 334.924 138.471 332.943C138.831 330.422 139.011 327.721 139.011 325.2C139.011 323.759 139.011 322.319 138.831 320.878C138.831 319.618 138.651 318.357 138.471 317.097C138.471 317.277 138.471 317.457 138.471 317.457C138.291 316.017 138.111 314.576 137.931 313.135C137.751 311.695 137.391 310.254 137.211 308.994C137.031 308.274 137.031 307.373 136.851 306.653C136.851 305.933 136.67 305.033 136.67 304.312C136.49 301.251 136.31 298.37 136.13 295.309C135.95 292.068 135.95 288.827 135.95 285.585C135.95 282.524 135.95 279.463 135.95 276.222C135.95 274.781 135.95 273.341 135.77 271.9C135.77 270.28 135.59 268.839 135.59 267.219C135.59 264.157 135.41 261.096 135.59 258.035C135.59 256.595 135.77 254.974 135.77 253.534C135.95 251.913 135.95 250.292 136.13 248.672C136.31 245.611 136.67 242.55 137.031 239.488C137.391 236.787 137.751 234.266 137.931 231.565C138.111 229.045 138.291 226.524 138.651 224.003C139.191 218.601 139.912 213.379 140.632 207.977C140.992 204.736 141.532 201.494 141.892 198.433C142.433 195.372 142.973 192.131 143.333 189.07C143.873 185.108 144.413 181.327 144.954 177.365C145.314 175.205 145.494 173.224 145.854 171.243C146.214 169.623 146.394 168.002 146.574 166.201C146.574 165.841 146.574 165.661 146.754 165.301V165.121V164.941C146.754 164.761 146.754 164.761 146.754 164.581C146.754 164.221 146.754 164.041 146.934 163.68C147.294 161.34 147.474 158.999 148.015 156.658C148.195 155.397 148.555 154.137 148.735 152.876C148.915 151.796 149.095 150.716 149.275 149.635C149.635 146.394 149.995 143.333 150.356 140.092C150.536 138.471 150.716 136.851 150.896 135.23C151.076 133.789 151.076 132.169 151.256 130.728C151.436 129.108 151.436 127.487 151.616 125.866C151.796 124.426 151.976 122.805 152.156 121.365C152.336 118.304 152.696 115.243 152.696 112.001C152.876 107.86 152.696 103.718 152.696 99.5768C152.696 97.416 152.516 95.4353 152.336 93.2745C152.156 91.2937 151.976 89.4931 151.796 87.5123C151.436 85.3515 151.076 83.1908 150.536 81.03C150.175 79.7695 149.995 78.6891 149.635 77.4286C149.275 76.3482 148.915 75.4479 148.555 74.3675C147.655 72.0266 146.934 69.6858 146.214 67.3449C145.494 65.1841 144.593 63.0233 143.873 61.0426C143.693 60.6825 143.513 60.1422 143.333 59.7821C143.153 59.2419 142.793 58.7017 142.433 58.3416C141.892 57.6213 141.352 56.9011 140.812 56.3609C140.452 56.0007 140.092 55.4605 139.732 55.1004C139.191 54.5602 138.651 54.02 138.111 53.4798C137.571 52.9396 137.571 51.8592 138.111 51.1389C138.471 50.7788 138.831 50.5987 139.191 50.5987C139.552 50.4186 139.912 50.5987 140.272 50.9589Z" fill="black"/>
<path d="M132.169 329.341C132.169 329.522 132.169 329.522 132.169 329.702C132.169 329.522 132.169 329.522 132.169 329.341ZM135.95 50.5987C136.851 52.2193 137.751 53.84 138.291 55.6406C138.651 56.3609 138.831 57.0811 139.011 57.8014C139.192 58.7017 139.552 59.422 139.732 60.3224C140.092 61.7629 140.452 63.2034 140.812 64.824C141.172 66.4446 141.352 68.0652 141.532 69.6858C141.892 72.7469 142.073 75.9881 142.073 79.2293C142.073 82.4705 142.073 85.7117 142.073 88.9529C142.073 92.1941 142.073 95.2552 142.073 98.4964C142.073 101.738 141.893 105.159 141.712 108.4C141.532 111.641 141.532 114.702 141.352 117.944C141.352 119.384 141.352 121.005 141.172 122.445C140.992 124.066 140.992 125.686 140.812 127.127C140.092 133.609 139.372 140.092 138.831 146.754C138.651 148.195 138.651 149.815 138.471 151.256C138.291 152.876 138.111 154.677 137.751 156.298C137.211 159.539 136.671 162.6 136.13 165.841C135.59 168.902 134.87 171.964 134.51 175.205C134.33 176.825 133.97 178.266 133.789 179.886C133.609 181.507 133.249 182.948 133.069 184.568C132.709 186.189 132.349 187.629 132.169 189.25C131.809 190.87 131.629 192.491 131.269 194.112C130.908 195.552 130.728 197.173 130.368 198.613C130.008 200.054 129.828 201.674 129.648 203.115C129.468 204.195 129.288 205.276 129.288 206.356V206.176C128.928 209.237 128.568 212.298 128.207 215.179C127.847 218.241 127.487 221.482 127.127 224.723C126.587 231.025 126.047 237.328 125.686 243.63C125.686 245.251 125.506 246.871 125.506 248.492C125.506 249.932 125.326 251.553 125.326 252.993C125.326 256.055 125.506 259.296 125.867 262.357C126.047 265.598 126.407 268.659 126.587 271.9C126.767 273.521 126.767 275.322 127.127 276.942C127.307 278.563 127.487 280.183 127.667 281.804C127.847 283.425 127.847 285.045 128.027 286.666C128.207 288.286 128.207 289.907 128.387 291.528C128.568 294.589 128.928 297.65 129.108 300.891C129.468 304.132 129.648 307.193 129.828 310.435C130.008 312.055 130.188 313.496 130.368 314.936C130.548 316.557 130.728 318.177 130.908 319.618C131.089 321.239 131.269 322.859 131.449 324.48C131.449 324.3 131.449 324.12 131.449 324.12C131.629 326.1 131.989 328.081 132.169 330.062C132.349 332.043 132.709 333.843 133.069 335.824C133.429 337.805 133.609 339.965 133.789 341.946C133.97 343.747 134.15 345.367 134.15 347.168C134.15 348.068 134.15 348.969 134.15 349.869C134.15 350.589 134.15 351.31 134.15 352.03C134.15 352.93 133.429 353.65 132.529 353.65C131.629 353.65 130.908 352.93 130.908 352.03C130.908 350.95 130.908 349.869 130.908 348.789C130.908 347.708 130.908 346.448 130.728 345.367C130.548 342.847 130.368 340.326 130.008 337.805C129.648 335.824 129.468 333.843 129.108 332.042C128.748 329.882 128.568 327.901 128.387 325.74C128.387 325.92 128.387 326.1 128.387 326.1C128.207 324.48 128.027 322.859 127.847 321.239C127.667 319.618 127.487 318.177 127.307 316.557C127.127 314.936 126.947 313.496 126.767 311.875C126.587 310.255 126.407 308.634 126.407 307.193C126.227 303.952 125.867 300.891 125.686 297.65C125.506 294.589 125.146 291.348 124.966 288.286C124.786 285.045 124.606 281.804 124.246 278.563C124.066 276.942 123.886 275.322 123.706 273.701C123.526 272.26 123.526 270.82 123.346 269.199C123.166 267.579 122.985 265.958 122.985 264.338C122.805 262.717 122.805 261.276 122.625 259.656C122.625 258.035 122.445 256.595 122.445 254.974C122.445 253.353 122.445 251.733 122.445 249.932C122.625 243.63 122.986 237.508 123.526 231.205C123.706 228.144 124.066 225.083 124.246 222.022C124.606 218.781 124.966 215.359 125.326 212.118C125.506 210.498 125.686 209.057 125.867 207.437C126.047 205.816 126.227 204.195 126.587 202.575C126.947 199.514 127.487 196.633 128.207 193.571C128.568 192.131 128.748 190.69 128.928 189.25C129.288 187.629 129.468 186.009 129.828 184.568C130.548 181.327 130.908 178.266 131.449 175.025C131.989 171.243 132.709 167.462 133.429 163.861C133.79 162.06 133.97 160.259 134.33 158.459C134.69 156.658 134.87 154.857 135.23 152.876C135.59 149.635 135.77 146.574 136.13 143.333C136.491 140.092 136.671 136.851 137.031 133.609C137.211 131.989 137.391 130.548 137.571 128.928C137.751 127.307 137.931 125.867 138.111 124.246C138.291 122.625 138.291 120.825 138.291 119.204C138.291 117.764 138.291 116.143 138.471 114.702C138.651 108.4 139.011 102.098 139.011 95.6153C139.011 92.3741 139.011 88.9529 139.011 85.7117C139.011 82.6506 139.011 79.4094 138.831 76.3483C138.831 75.4479 138.831 74.3675 138.651 73.4672C138.651 72.5669 138.471 71.6665 138.471 70.7662C138.291 69.6858 138.111 68.6054 137.931 67.3449C137.751 66.0845 137.391 65.0041 137.211 63.7436C137.031 62.4831 136.671 61.4028 136.31 60.1423C135.95 59.0619 135.59 57.9815 135.23 56.9011C135.05 56.3609 134.69 55.6406 134.33 55.1004C133.79 54.2001 133.429 53.2997 132.889 52.3994C132.529 51.6791 132.709 50.5988 133.429 50.2386C133.609 50.0586 133.97 50.0586 134.15 50.0586C135.05 49.8785 135.59 50.0585 135.95 50.5987Z" fill="black"/>
<path d="M133.43 51.139C133.79 51.4991 133.97 51.8592 133.97 52.2194C133.97 52.5795 133.79 53.1196 133.43 53.2997C131.99 54.3801 130.729 55.4605 129.289 56.5409C128.748 57.0811 128.208 57.4413 127.668 57.9815C127.128 58.5217 126.588 59.0618 126.228 59.602C125.867 60.1422 125.507 60.6824 125.147 61.4027C124.967 61.7628 124.787 62.123 124.607 62.4831C124.427 62.8432 124.247 63.2034 124.247 63.5635C123.527 65.3642 122.806 67.1648 122.446 68.9655C121.906 70.7662 121.546 72.7469 121.366 74.7277C121.186 76.5283 121.006 78.329 120.645 80.1297C120.465 82.1104 120.105 83.911 119.745 85.8917C119.385 88.9529 119.205 92.014 118.845 95.0751C118.665 98.1363 118.305 101.197 118.125 104.439C117.944 107.68 117.584 110.741 117.404 113.982C117.224 117.223 117.044 120.284 116.864 123.526C116.684 126.587 116.504 129.648 116.324 132.709C116.144 135.95 116.144 139.011 116.144 142.253C116.144 145.314 116.324 148.555 116.324 151.616C116.324 154.857 116.504 157.918 116.324 161.16C116.324 164.401 115.964 167.462 115.784 170.703C115.604 173.584 115.243 176.645 114.883 179.526C114.523 182.768 114.163 186.009 113.983 189.25C113.803 192.311 113.803 195.192 113.803 198.253C113.803 201.494 113.623 204.555 113.803 207.797C113.803 209.417 113.983 210.858 114.163 212.478C114.343 213.919 114.343 215.54 114.343 216.98C114.343 218.601 114.343 220.221 114.343 221.842C114.343 223.463 114.343 225.083 114.343 226.884C114.343 228.504 114.163 229.945 113.983 231.565C113.803 233.006 113.803 234.627 113.623 236.067C113.443 239.128 113.263 242.369 113.443 245.431C113.623 248.672 113.803 251.733 113.803 254.974C113.983 257.855 113.803 260.916 113.983 263.797C113.983 266.859 114.163 269.92 114.343 272.981C114.523 276.222 114.883 279.463 115.063 282.704C115.243 285.946 115.424 289.187 115.784 292.428C115.964 294.048 116.504 295.489 116.864 297.11C117.224 298.55 117.584 299.991 117.944 301.431C118.305 303.052 118.845 304.492 119.205 306.113C119.565 307.553 119.925 309.174 120.285 310.615C120.645 312.055 121.006 313.676 121.366 315.116C121.726 316.737 122.086 318.538 122.266 320.158C122.446 321.779 122.626 323.399 122.806 325.02C122.986 326.46 122.986 328.081 123.166 329.522C123.166 330.062 123.346 330.602 123.346 330.962C123.707 333.303 124.067 335.644 124.607 337.985C125.147 340.146 125.687 342.306 126.588 344.287C126.768 344.827 127.128 345.367 127.488 345.908C128.208 346.808 129.109 347.708 129.829 348.609C130.549 349.329 131.269 350.229 131.99 350.949C132.17 350.949 132.17 351.13 132.35 351.13C132.89 351.31 133.43 351.49 134.15 351.49C135.051 351.67 135.411 352.75 135.231 353.47C135.051 353.831 134.871 354.191 134.511 354.371C134.15 354.551 133.79 354.551 133.25 354.551C132.53 354.371 131.63 354.191 130.909 353.831C130.009 353.29 129.289 352.57 128.748 351.85C127.848 350.769 126.948 349.869 126.047 348.789C125.507 348.249 124.967 347.528 124.607 346.988C124.247 346.448 123.887 345.547 123.707 345.007C123.166 343.747 122.806 342.306 122.446 340.866C122.086 339.245 121.726 337.805 121.366 336.184C121.006 334.563 120.645 332.943 120.465 331.142C120.285 329.522 120.105 327.901 120.105 326.46C119.925 325.02 119.925 323.579 119.745 321.959C119.745 321.599 119.745 321.239 119.565 320.878C119.385 319.258 119.025 317.637 118.845 316.197C118.485 314.756 118.125 313.316 117.764 311.875C117.044 308.814 116.324 305.573 115.604 302.512C115.243 301.071 114.883 299.451 114.523 298.01C114.163 296.569 113.623 294.949 113.443 293.508C112.903 290.447 112.903 287.206 112.723 284.145C112.362 278.023 111.642 271.9 111.462 265.778C111.462 262.717 111.462 259.836 111.462 256.775C111.462 253.714 111.282 250.653 111.102 247.591C111.102 245.971 110.922 244.53 110.922 242.91C110.922 241.289 110.922 239.849 111.102 238.228C111.282 235.167 111.462 231.926 111.642 228.864C111.822 227.244 111.822 225.623 111.822 224.183C111.822 222.562 111.822 220.942 111.822 219.321C111.822 217.7 111.822 216.08 111.642 214.459C111.642 212.839 111.462 211.398 111.282 209.957C111.102 206.896 111.102 203.835 111.102 200.774C111.102 197.713 111.282 194.472 111.282 191.411C111.462 188.35 111.642 185.288 112.002 182.227C112.362 179.166 112.723 175.925 113.083 172.864C113.443 169.623 113.623 166.561 113.803 163.32C113.803 161.88 113.803 160.259 113.803 158.819C113.803 157.378 113.803 155.758 113.803 154.317C113.803 152.696 113.803 151.076 113.623 149.275C113.623 147.835 113.443 146.394 113.443 144.954C113.443 141.712 113.443 138.651 113.623 135.41C113.803 132.169 113.983 128.928 114.163 125.686C114.343 122.625 114.523 119.744 114.523 116.683C114.523 115.063 114.703 113.622 114.703 112.001C114.883 110.381 114.883 108.76 115.063 107.14C115.243 104.078 115.424 100.837 115.784 97.5961C115.964 94.5349 116.144 91.4738 116.504 88.5927C116.684 86.9721 116.864 85.5316 117.044 83.911C117.224 82.4705 117.584 81.0299 117.764 79.5894C118.125 77.0685 118.305 74.3675 118.845 71.8466C119.205 69.3257 120.105 66.8047 121.006 64.2838C121.546 63.0233 122.086 61.7628 122.626 60.5024C123.166 59.2419 124.067 58.1615 124.967 57.0811C125.867 56.1808 126.948 55.2805 127.848 54.3801C128.929 53.2997 130.189 52.3994 131.449 51.499C131.81 51.1389 132.17 50.9589 132.53 50.9589C132.71 50.5987 133.07 50.7788 133.43 51.139Z" fill="black"/>
<path d="M116.683 338.165L116.863 338.345C116.683 338.345 116.683 338.345 116.683 338.165ZM125.867 53.8398C126.407 54.38 126.587 55.6404 125.867 56.1806C125.326 56.7208 124.786 57.261 124.246 57.8012C123.706 58.1613 123.346 58.7015 122.806 59.0617C122.265 59.6019 121.725 59.962 121.185 60.5022C120.645 60.8623 120.105 61.4025 119.744 61.9427C118.844 62.8431 117.764 63.7434 116.863 64.6437C115.783 65.5441 114.883 66.6244 113.982 67.7048C113.622 68.245 113.262 68.7853 112.902 69.3255C112.362 70.0457 112.002 70.766 111.641 71.4862C110.921 72.7467 110.021 74.1873 109.301 75.6278C108.4 77.9687 107.86 80.3095 107.5 82.8305C107.14 84.271 106.96 85.5314 106.78 86.972C106.6 88.2324 106.239 89.4929 106.059 90.7534C105.699 93.6344 105.699 96.6956 105.519 99.5766C105.339 102.638 105.339 105.879 105.339 108.94C105.339 112.001 105.159 114.882 104.979 117.943C104.799 121.005 104.619 124.246 104.439 127.307C104.259 130.548 104.259 133.609 104.259 136.85C104.259 140.092 104.079 143.513 104.079 146.754C104.079 152.876 103.899 158.999 104.079 164.941C104.079 168.002 104.259 171.243 104.259 174.304C104.259 177.545 104.259 180.787 104.259 184.028C104.259 187.089 104.259 190.15 104.259 193.211C104.259 196.452 104.439 199.694 104.439 202.935C104.439 205.996 104.439 209.057 104.619 212.118C104.799 215.359 104.799 218.781 104.979 222.022C105.159 228.324 105.159 234.626 105.159 240.929C105.159 243.99 105.339 247.051 105.519 250.292C105.699 253.353 106.059 256.414 106.42 259.476C106.78 262.537 106.78 265.598 106.78 268.659C106.96 271.9 106.96 274.961 107.14 278.022C107.32 281.083 107.5 284.145 107.68 287.206C107.86 290.447 108.04 293.508 108.4 296.749C108.76 299.81 109.12 302.692 109.481 305.753C109.661 308.814 109.841 311.875 110.201 314.936C110.381 316.557 110.561 318.357 110.741 319.978C110.921 321.779 111.281 323.399 111.461 325.2C111.821 327.361 112.182 329.521 112.902 331.502C113.442 332.583 113.982 333.483 114.523 334.563C115.243 335.824 115.963 336.904 116.863 338.165C117.764 339.245 118.844 340.325 119.744 341.406C120.465 342.126 121.005 342.846 121.725 343.567C122.265 344.287 122.986 345.007 123.526 345.727C123.886 346.088 124.246 346.448 124.606 346.808C125.327 347.528 126.047 348.248 126.947 348.969C128.027 349.689 129.108 350.409 130.188 350.949C130.909 351.309 131.089 352.39 130.728 353.11C130.368 353.83 129.288 354.01 128.568 353.65C127.667 353.11 126.947 352.75 126.047 352.21C125.146 351.67 124.426 350.949 123.706 350.229C123.166 349.869 122.806 349.329 122.265 348.789C121.905 348.428 121.545 348.068 121.365 347.888C120.285 346.628 119.384 345.547 118.304 344.287C117.764 343.747 117.223 343.026 116.683 342.486C116.323 341.946 115.783 341.586 115.423 341.046C114.703 340.325 114.162 339.425 113.442 338.525C112.542 337.264 111.641 335.824 110.921 334.383C110.381 333.483 110.021 332.402 109.661 331.322C109.481 330.602 109.301 329.702 109.121 328.981C108.76 327.541 108.58 326.1 108.4 324.66C107.86 321.418 107.5 318.357 107.14 315.116C106.78 312.055 106.78 308.994 106.42 305.933C106.059 302.872 105.699 299.81 105.339 296.929C104.979 293.688 104.799 290.627 104.619 287.386C104.439 284.325 104.259 281.264 104.079 278.202C103.899 275.141 103.719 271.9 103.719 268.839C103.538 265.778 103.538 262.717 103.358 259.656C103.178 258.215 102.998 256.595 102.818 255.154C102.638 253.533 102.458 251.913 102.458 250.292C102.278 247.231 102.098 244.35 102.098 241.289C102.098 234.987 102.098 228.684 101.918 222.382C101.738 219.141 101.738 215.9 101.558 212.478C101.378 209.417 101.558 206.356 101.378 203.115C101.378 199.874 101.198 196.632 101.198 193.391C101.198 190.33 101.198 187.089 101.198 184.028C101.198 180.787 101.198 177.545 101.198 174.304C101.198 171.243 101.018 168.182 101.018 165.121C100.837 158.999 101.018 152.876 101.018 146.754C101.018 143.513 101.018 140.272 101.198 137.03C101.198 133.789 101.378 130.728 101.378 127.487C101.558 124.426 101.738 121.365 101.918 118.304C102.098 115.242 102.098 112.361 102.278 109.3C102.278 106.059 102.458 102.998 102.638 99.7567C102.638 98.3162 102.818 96.6956 102.998 95.255C103.178 93.6344 103.178 92.1939 103.358 90.5733C103.538 88.9527 103.899 87.5122 104.079 85.8916C104.259 84.271 104.619 82.8304 104.979 81.2098C105.339 79.7693 105.519 78.3288 106.059 76.8882C106.239 76.168 106.42 75.4477 106.6 74.9075C106.96 74.0072 107.32 73.2869 107.68 72.5667C108.4 71.3062 109.121 70.0457 110.021 68.7853C110.381 68.065 110.741 67.5248 111.101 66.9846C111.641 66.2643 112.002 65.544 112.542 65.0038C113.442 63.9234 114.523 62.8431 115.603 61.7627C116.503 60.8623 117.584 59.962 118.484 58.8816C119.384 57.9813 120.465 57.261 121.365 56.3607C121.725 56.0005 122.265 55.6404 122.625 55.1002C123.166 54.56 123.526 54.0198 124.066 53.6597C124.426 53.2996 124.786 53.1195 125.146 53.1195C125.146 53.4796 125.507 53.6597 125.867 53.8398Z" fill="black"/>
<path d="M238.406 29.891C239.306 30.0711 240.026 30.2512 240.927 30.6113C242.007 30.9715 242.907 31.5116 243.808 32.0518C244.528 32.592 245.428 33.1322 246.149 33.6724C246.869 34.2126 247.409 34.9329 248.129 35.6532C248.849 36.3734 249.39 37.2737 249.93 37.994C250.47 38.8943 251.01 39.6147 251.37 40.515C251.911 41.4153 252.271 42.3156 252.811 43.216C253.351 44.2964 253.711 45.3768 254.071 46.4572C254.792 48.2578 255.512 50.0585 256.052 51.8591C256.772 53.8399 257.493 55.6406 258.033 57.6213C258.573 59.602 259.113 61.5827 259.654 63.5635C260.014 65.5442 260.374 67.5249 260.734 69.3256C261.094 71.3063 261.454 73.4671 261.814 75.4478C262.174 77.4286 262.535 79.4093 262.895 81.5701C263.255 83.7309 263.795 85.7116 264.155 87.8724C264.335 88.9528 264.695 90.0332 264.875 91.1136C265.055 92.194 265.416 93.2744 265.596 94.3548C265.776 95.4352 266.136 96.5156 266.496 97.596C266.856 98.8565 267.036 100.117 267.216 101.377C267.216 101.197 267.216 101.017 267.216 101.017C267.216 101.557 267.396 102.098 267.396 102.638C267.576 104.619 267.937 106.599 268.117 108.58C268.117 109.66 268.297 110.741 268.297 111.821C268.297 112.902 268.297 113.802 268.297 114.882C268.297 116.863 268.297 118.844 268.117 120.825C267.937 122.805 267.756 124.966 267.576 126.947C267.396 128.928 267.216 130.908 267.036 132.889C266.856 133.969 266.676 135.05 266.496 136.31C266.316 137.211 266.136 138.291 265.776 139.191C265.416 140.992 264.875 142.793 264.515 144.773C264.155 146.574 263.795 148.375 263.615 150.355C263.435 152.336 263.075 154.497 262.715 156.478C262.535 157.378 262.354 158.278 262.174 158.999C261.994 159.719 261.814 160.439 261.454 160.979C261.094 162.06 260.554 162.96 260.014 163.86C259.113 165.661 258.213 167.642 257.313 169.442C256.952 170.343 256.592 171.243 256.232 171.963C255.692 173.044 255.332 173.944 254.612 174.844C254.071 175.745 253.531 176.465 252.991 177.365C252.451 178.266 251.911 178.986 251.19 179.886C250.11 181.507 248.849 183.128 247.589 184.928C245.248 188.169 242.007 190.87 238.946 193.571C238.046 194.292 237.145 195.012 236.245 195.732C235.345 196.452 234.444 196.993 233.544 197.533C232.644 198.073 231.743 198.433 231.023 198.973C230.123 199.514 229.042 199.874 228.142 200.234C226.341 201.134 224.541 202.034 222.56 202.755C220.759 203.475 218.778 204.015 216.978 204.375C214.997 204.736 213.196 205.456 211.216 205.996C209.235 206.536 207.434 207.256 205.634 208.157C205.454 208.157 205.273 208.337 205.093 208.337C204.733 208.517 204.373 208.697 204.013 208.877C203.653 209.057 203.113 209.417 202.753 209.597C201.852 210.137 201.132 210.498 200.232 211.038C199.331 211.578 198.431 211.938 197.531 212.478C196.63 213.019 195.91 213.559 195.01 214.099C194.289 214.639 193.389 215.179 192.669 215.54C191.768 216.08 190.868 216.44 189.788 216.8C187.987 217.52 186.186 218.601 184.566 219.321C183.485 219.861 182.405 220.221 181.325 220.761C180.424 221.122 179.524 221.482 178.444 221.662C176.643 222.202 174.662 222.562 172.681 222.742C170.701 223.102 168.72 223.462 166.739 223.823C164.758 224.183 162.598 224.363 160.617 224.723C160.077 224.723 159.717 224.903 159.176 224.903C158.816 224.903 158.276 224.903 157.916 224.723C157.556 224.543 157.376 224.183 157.196 223.823C157.016 223.462 157.196 222.922 157.376 222.562C157.556 222.202 157.916 221.842 158.276 221.842C162.238 221.122 166.199 220.581 170.16 219.861C172.141 219.501 174.122 219.141 176.103 218.781C176.643 218.601 177.003 218.601 177.543 218.421C177.903 218.24 178.444 218.24 178.804 218.06C179.344 217.88 179.704 217.7 180.244 217.52C180.784 217.34 181.325 217.16 181.685 216.8C181.505 216.8 181.505 216.98 181.325 216.98C183.125 216.26 184.926 215.359 186.547 214.459C187.447 214.099 188.347 213.559 189.248 213.199C190.148 212.838 191.048 212.298 191.949 211.758C193.569 210.678 195.19 209.597 196.99 208.517C197.891 207.977 198.791 207.617 199.511 207.256C200.412 206.716 201.312 206.176 202.212 205.816C203.113 205.276 204.013 204.916 204.913 204.555C205.634 204.195 206.534 203.835 207.254 203.655C208.875 202.935 210.675 202.575 212.296 201.854C213.016 201.674 213.917 201.314 214.637 201.134C215.357 200.954 216.257 200.774 217.158 200.594C218.058 200.414 218.778 200.234 219.679 199.874C220.579 199.514 221.479 199.334 222.2 198.973C223.1 198.613 224 198.073 225.081 197.713C226.161 197.173 227.422 196.632 228.502 196.092C228.322 196.092 228.322 196.272 228.142 196.272C230.303 195.192 232.283 194.112 234.084 192.671C235.885 191.231 237.865 189.61 239.666 187.989C240.566 187.269 241.467 186.369 242.187 185.468C242.727 184.928 243.267 184.388 243.628 183.848C243.988 183.488 244.348 182.947 244.708 182.587C247.049 179.346 249.39 176.105 251.551 172.684C252.091 171.783 252.631 170.883 252.991 169.983C253.351 169.082 253.711 168.182 254.252 167.282C255.152 165.481 256.052 163.5 256.953 161.7C257.493 160.799 257.853 159.899 258.393 158.819C258.753 158.098 258.933 157.198 259.113 156.478C259.293 155.757 259.473 154.857 259.473 154.137C259.653 153.056 259.834 151.796 260.014 150.716C260.194 149.095 260.374 147.474 260.734 146.034C260.914 144.593 261.274 143.333 261.634 141.892C262.354 139.011 263.075 136.13 263.615 133.249C263.795 131.268 263.975 129.468 264.155 127.487C264.335 125.326 264.515 123.345 264.695 121.185C264.875 119.024 264.875 116.863 265.055 114.702C265.055 112.722 265.236 110.741 265.055 108.94C264.875 106.419 264.515 103.898 264.155 101.377C263.975 100.297 263.795 99.3966 263.615 98.3162C263.435 97.4159 263.075 96.3356 262.895 95.4352C262.354 93.4545 261.994 91.4737 261.454 89.493C261.274 88.5927 260.914 87.6923 260.734 86.6119C260.554 85.5315 260.374 84.4512 260.194 83.5508C259.834 81.5701 259.293 79.4093 258.933 77.4286C258.573 75.4479 258.213 73.287 257.853 71.3063C257.493 69.3256 257.313 67.3448 256.953 65.184C256.772 64.2837 256.592 63.2033 256.232 62.303C256.052 61.4026 255.692 60.3223 255.512 59.422C254.972 57.4412 254.251 55.4604 253.531 53.2997C252.991 51.8591 252.451 50.5987 251.911 49.1581C251.37 47.7176 250.83 46.4572 250.29 45.0166C249.75 43.7562 249.21 42.4957 248.489 41.4153C247.949 40.3349 247.229 39.0744 246.509 37.994C245.788 36.9136 244.888 36.0133 243.808 35.113C242.727 34.2127 241.467 33.4924 240.206 32.9522C239.126 32.592 238.046 32.2319 236.785 32.0518C236.065 32.0518 235.345 32.0518 234.804 32.0518C233.904 32.0518 233.184 32.2319 232.283 32.2319C231.383 32.2319 230.663 31.5117 230.663 30.6113C230.663 29.711 231.383 28.9907 232.283 28.9907C233.364 28.9907 234.444 28.8107 235.345 28.8107C235.525 28.8107 235.705 28.8107 235.885 28.8107C236.605 29.711 237.505 29.891 238.406 29.891Z" fill="black"/>
<path d="M232.11 31.3317C233.19 33.1323 234.451 34.7529 235.531 36.3735C236.071 37.0938 236.612 37.9941 236.972 38.7144C237.512 39.6147 238.052 40.335 238.412 41.2353C239.313 43.216 240.033 45.1967 240.753 47.1775C241.293 48.9781 241.834 50.9589 242.374 52.9396C243.274 56.9011 243.994 60.8626 244.715 64.824C245.075 66.8047 245.435 68.7855 245.975 70.7662C246.515 72.7469 247.056 74.5476 247.596 76.5283C248.136 78.5091 248.676 80.4898 249.036 82.6506C249.396 84.6313 249.937 86.7921 250.117 88.7728C250.297 90.7536 250.477 92.7343 250.657 94.715C250.657 96.6957 250.657 98.6765 250.657 100.837C250.657 102.818 250.477 104.799 250.657 106.779C250.657 107.86 250.657 108.76 250.657 109.841C250.657 110.921 250.837 112.001 250.837 112.902C251.017 114.882 251.197 117.043 251.557 119.024C251.737 121.005 252.097 122.805 252.097 124.786C252.457 128.928 252.458 133.069 252.458 137.031C252.458 139.011 252.277 141.172 251.917 143.153C251.557 145.134 251.197 147.114 250.657 149.095C250.117 151.076 249.396 153.057 248.676 155.037C247.956 156.838 247.236 158.639 246.335 160.439C244.354 164.041 242.014 167.462 239.493 170.523C238.953 171.243 238.232 171.963 237.512 172.684C236.792 173.404 236.252 174.124 235.531 174.845C234.271 176.285 232.65 177.366 231.21 178.626C229.769 179.886 228.329 181.327 227.068 182.768C225.808 184.208 224.547 185.829 223.287 187.449C222.026 188.89 220.766 190.33 219.505 191.771C218.245 193.211 216.624 194.472 215.184 195.732C213.743 196.993 211.943 198.073 210.322 199.154C208.701 200.234 207.081 201.134 205.28 202.035C204.38 202.395 203.479 202.755 202.759 203.295C201.859 203.655 200.959 204.195 200.058 204.736C198.438 205.636 196.817 206.536 195.376 207.617C194.476 208.157 193.756 208.697 192.856 209.237C192.135 209.777 191.235 210.138 190.515 210.678C188.714 211.758 187.093 212.659 185.293 213.739C183.492 214.819 181.691 215.54 179.891 216.26C177.91 216.98 176.109 217.34 174.129 218.06C172.328 218.601 170.527 219.321 168.727 219.861C166.926 220.401 165.305 220.942 163.505 221.302C162.244 221.662 161.164 221.842 159.903 222.202C159.183 222.382 158.463 222.382 157.743 222.562C157.202 222.562 156.662 222.562 156.122 222.202C155.402 221.842 155.042 220.942 155.222 220.221C155.402 219.321 156.302 218.781 157.202 219.141C157.382 219.141 157.563 219.321 157.563 219.321C157.743 219.321 158.103 219.321 158.283 219.321C159.903 219.141 161.524 218.601 162.965 218.241C164.765 217.7 166.566 217.16 168.366 216.62C170.167 216.08 171.968 215.359 173.949 214.819C175.749 214.279 177.55 213.739 179.351 213.199C179.891 213.019 180.251 212.839 180.791 212.658C182.592 211.758 184.212 210.858 185.833 209.957C187.454 208.877 189.074 207.977 190.875 207.076C191.595 206.536 192.495 206.176 193.216 205.636C194.116 205.096 194.836 204.556 195.737 204.015C197.357 202.935 198.978 202.035 200.778 201.314C201.859 200.774 202.759 200.414 203.84 199.874C204.92 199.334 205.82 198.793 206.901 198.253C207.801 197.713 208.881 196.993 209.782 196.453C210.682 195.732 211.763 195.192 212.663 194.472C214.103 193.391 215.364 192.131 216.624 190.87C218.065 189.43 219.325 187.989 220.586 186.549C221.846 184.928 223.107 183.488 224.367 181.867C225.628 180.427 226.888 179.166 228.149 177.906C229.049 177.005 229.949 176.285 231.03 175.385C231.93 174.484 232.83 173.764 233.731 172.864C234.631 171.964 235.351 171.063 236.252 170.163C236.972 169.263 237.692 168.362 238.412 167.462C239.673 165.661 240.933 163.861 242.014 162.06C242.554 161.16 243.094 160.079 243.634 159.179C244.174 158.278 244.535 157.378 244.895 156.478C245.255 155.577 245.615 154.497 245.975 153.417C246.335 152.336 246.875 151.076 247.056 149.995C247.416 148.735 247.776 147.655 247.956 146.394C248.136 145.314 248.316 144.053 248.496 142.973C248.676 142.072 248.676 140.992 248.856 140.092C249.036 139.011 249.036 138.111 249.036 137.031C249.036 135.05 249.036 133.069 249.036 131.088C249.036 129.108 248.856 127.127 248.676 125.146C248.496 122.985 248.136 121.005 247.956 118.844C247.776 116.863 247.596 114.882 247.416 112.722C247.236 110.741 247.236 108.94 247.236 106.96C247.236 102.998 247.416 99.0366 247.236 95.0751C247.236 94.1748 247.236 93.2745 247.056 92.1941C247.056 91.2937 246.875 90.5735 246.695 89.6732C245.975 85.7117 245.255 81.7502 243.994 77.7888C243.454 75.808 242.914 73.8273 242.374 71.8466C241.834 69.8659 241.473 67.8851 241.113 65.9044C240.393 62.303 240.033 58.7017 239.133 55.2805C238.772 53.4798 238.232 51.6791 237.692 49.8785C237.152 48.2579 236.612 46.6373 236.071 45.0167C235.171 43.036 234.091 41.0552 232.83 39.2546C231.57 37.2738 230.309 35.4731 229.049 33.4924C228.509 32.7722 228.869 31.6918 229.589 31.1516C229.769 30.9715 230.129 30.9715 230.309 30.9715C231.21 30.4313 231.75 30.7915 232.11 31.3317Z" fill="black"/>
<path d="M223.281 95.7954C223.281 95.6153 223.281 95.6153 223.281 95.7954C223.281 95.6153 223.281 95.6153 223.281 95.7954ZM229.944 130.008V129.648C229.944 129.828 229.944 130.008 229.944 130.008ZM196.632 199.694C196.632 199.694 196.451 199.694 196.632 199.694C196.451 199.694 196.632 199.694 196.632 199.694ZM226.523 96.1555V96.3356C226.523 96.3356 226.523 96.3356 226.523 96.1555ZM230.844 31.1516C231.384 31.6918 231.564 32.9522 230.844 33.4924C230.484 33.8525 230.124 34.2127 229.764 34.7529C229.404 35.2931 229.043 35.8333 228.683 36.3735C228.323 37.0937 227.783 37.814 227.243 38.5343C226.883 39.2546 226.342 39.9748 225.982 40.695C225.622 41.4153 225.082 42.1356 224.722 42.6758C224.002 43.9363 223.101 45.1967 222.381 46.6373C221.481 47.8977 220.58 49.3382 220.04 50.7788C219.68 51.8592 219.32 53.1196 219.14 54.2C218.96 56.1808 218.78 58.3416 218.78 60.3223C218.78 62.4831 218.96 64.4639 219.14 66.6247C219.32 68.4253 219.86 70.226 220.22 72.0266C220.76 74.0074 221.481 75.808 222.021 77.7887C222.381 78.6891 222.741 79.5894 223.101 80.4897C223.461 81.3901 223.822 82.4705 224.182 83.3708C224.542 84.2711 224.722 85.3516 225.082 86.432C225.262 87.3323 225.442 88.4126 225.622 89.313C225.982 91.2937 226.162 93.4545 226.342 95.4353C226.342 95.6153 226.342 95.9755 226.523 96.1555V95.9754V96.1555C226.523 96.3356 226.523 96.5156 226.523 96.5156C226.703 98.3163 226.883 100.117 227.063 102.098C227.243 103.898 227.243 105.879 227.243 107.68C227.243 111.281 227.423 114.882 227.783 118.484C228.143 120.464 228.323 122.265 228.683 124.246C228.863 125.326 229.043 126.227 229.224 127.307C229.404 128.387 229.584 129.288 229.764 130.368C229.944 131.449 229.944 132.529 230.124 133.429C230.124 134.33 230.124 135.41 230.124 136.31C230.124 138.291 230.124 140.272 229.944 142.072C229.944 144.053 229.584 146.034 229.404 147.835C229.224 149.815 229.043 151.616 228.863 153.597C228.683 154.677 228.683 155.757 228.503 156.838C228.323 157.918 228.143 158.819 227.963 159.899C227.603 161.88 227.063 163.68 226.523 165.661C225.982 167.642 225.442 169.443 224.542 171.243C223.822 173.044 222.741 174.664 221.841 176.105C220.76 177.906 219.5 179.526 218.24 181.147C216.979 182.587 215.719 184.208 214.458 185.648C213.198 187.089 211.937 188.53 210.677 189.97C209.416 191.411 208.156 192.671 206.715 194.112C205.275 195.552 204.014 196.993 202.574 198.253C201.133 199.694 199.693 201.134 198.072 202.395C196.632 203.655 195.011 204.555 193.21 205.456C191.59 206.356 189.789 207.257 188.348 208.337C187.628 208.877 186.728 209.417 185.828 209.957C184.927 210.498 184.027 211.038 183.127 211.398C181.506 212.298 179.885 213.379 178.265 214.279C177.364 214.639 176.464 215.179 175.564 215.54C174.483 216.08 173.403 216.44 172.503 216.98C170.702 217.7 168.901 218.06 167.101 218.601C164.4 219.321 161.879 220.041 159.178 220.761C158.457 220.941 157.557 220.401 157.377 219.681C157.197 218.781 157.557 218.06 158.457 217.7C160.978 216.98 163.319 216.26 165.84 215.72C167.101 215.359 168.361 215.179 169.442 214.819C170.522 214.459 171.602 214.099 172.683 213.559C174.303 212.839 176.104 211.938 177.725 211.038C179.345 210.138 180.966 209.057 182.766 208.157C184.567 207.076 186.188 205.996 187.988 204.916C189.609 204.015 191.23 203.115 192.67 202.215C193.931 201.494 195.011 200.774 196.091 199.874C197.532 198.613 198.972 197.353 200.413 195.912C201.853 194.472 203.114 193.031 204.554 191.591C205.275 190.87 205.815 190.33 206.535 189.61C207.255 188.89 207.796 188.169 208.516 187.449C209.776 186.009 211.037 184.568 212.297 182.947C213.558 181.327 214.998 179.706 216.259 178.086C217.339 176.645 218.24 175.205 219.14 173.764C220.04 172.324 220.94 170.703 221.661 169.082C222.561 166.742 223.281 164.581 223.822 162.06C224.362 159.539 225.082 157.018 225.442 154.317C225.622 152.516 225.802 150.536 225.982 148.735C226.162 146.754 226.342 144.954 226.523 142.973C226.703 140.992 226.703 139.011 226.703 137.031C226.703 135.05 226.703 133.249 226.523 131.268C226.523 131.088 226.523 130.908 226.523 130.548C226.523 130.368 226.523 130.188 226.523 130.008C226.342 129.108 226.162 128.207 225.982 127.307C225.802 126.227 225.622 125.326 225.442 124.246C225.082 122.265 224.722 120.284 224.542 118.484C224.002 114.522 224.002 110.381 224.002 106.239C224.002 104.619 224.002 102.998 223.822 101.377C223.641 99.7568 223.461 98.1363 223.281 96.3356C223.281 96.3356 223.281 96.3356 223.281 96.1555C223.281 95.9755 223.281 95.6153 223.101 95.4353C223.101 95.2552 223.101 95.0751 223.101 94.895C223.101 95.0751 223.101 95.0751 223.101 95.2552C222.921 93.2745 222.561 91.2937 222.381 89.493C222.021 87.5123 221.841 85.7116 221.121 83.911C220.76 83.0107 220.4 81.9303 220.04 81.03C219.68 80.1296 219.32 79.2293 218.96 78.329C218.24 76.3482 217.699 74.5476 216.979 72.5668C216.439 70.5861 215.899 68.6054 215.719 66.6247C215.358 64.4639 215.358 62.4831 215.358 60.3223C215.358 58.3416 215.358 56.3608 215.539 54.3801C215.719 53.2997 215.719 52.2193 216.079 51.319C216.259 50.2386 216.799 49.3383 217.159 48.2579C217.519 47.5376 218.059 46.6373 218.42 45.917C218.96 45.1968 219.5 44.2964 219.86 43.5761C220.4 42.6758 221.121 41.5954 221.661 40.515C222.381 39.4346 222.921 38.3542 223.642 37.2738C224.362 36.1934 225.082 35.113 225.622 34.0326C226.342 32.9522 227.063 31.6917 228.143 30.7914C228.503 30.4313 228.863 30.2512 229.224 30.2512C230.124 30.6114 230.484 30.7914 230.844 31.1516Z" fill="black"/>
<path d="M37.4568 81.03C37.4568 81.03 37.6369 81.2101 37.4568 81.03C37.6369 81.2101 37.4568 81.03 37.4568 81.03ZM31.5147 60.8626C32.2349 61.2227 32.9552 61.7629 33.6755 62.4832C34.2157 63.0234 34.7559 63.7436 35.2961 64.4639C36.3765 65.9044 36.9166 67.525 37.6369 69.1456C37.997 69.8659 38.1771 70.7662 38.5372 71.4865C38.7173 72.2067 39.0774 72.927 39.2575 73.8274C39.7977 75.448 40.1578 77.0685 40.518 78.8692C40.698 80.1297 40.8781 81.3902 41.0582 82.6506C41.2382 84.2712 41.5984 85.8918 41.7785 87.5124C41.9585 89.313 42.3187 90.9337 42.6788 92.7343C43.0389 94.535 43.219 96.3357 43.399 98.1363C43.5791 99.937 43.5791 101.738 43.399 103.538C43.399 105.339 43.219 106.96 43.0389 108.76C43.0389 110.381 43.0389 112.001 43.0389 113.622C43.0389 115.423 43.219 117.223 43.219 119.024C43.219 120.645 43.219 122.445 43.399 124.066C43.5791 126.407 43.9392 128.748 44.1193 131.088C44.2994 132.169 44.2994 133.429 44.4795 134.51C44.6595 135.59 44.8396 136.671 44.8396 137.751V137.571V137.751V137.931V137.751C45.0196 138.831 45.1997 139.912 45.5598 140.992C45.9199 142.073 46.1 143.153 46.4601 144.053C47.7206 146.934 49.3412 149.815 50.9618 152.516C51.6821 153.957 52.5824 155.217 53.4828 156.478C54.3831 157.738 55.2834 158.999 56.1838 160.259C56.724 160.979 57.2642 161.7 57.8044 162.24C58.5246 162.96 59.2449 163.68 59.9651 164.401C60.6854 164.941 61.5858 165.481 62.306 165.841C63.2064 166.381 64.2868 166.922 65.1871 167.282C66.0874 167.642 67.1678 168.182 68.0681 168.542C68.9684 168.902 69.8688 169.443 70.7691 169.803C72.2096 170.343 73.4701 170.883 74.9107 171.243C75.6309 171.423 76.5312 171.603 77.2515 171.783C77.9718 171.963 78.6921 172.144 79.5924 172.144C81.213 172.504 82.8336 172.684 84.4542 173.044C86.2548 173.404 87.8755 173.764 89.4961 174.304C90.3964 174.484 90.7565 175.385 90.5764 176.285C90.3963 177.185 89.4961 177.726 88.5957 177.366C86.7951 176.825 84.9944 176.465 83.1937 175.925C81.5731 175.565 79.9525 175.385 78.3319 175.025C76.7113 174.665 74.9107 174.484 73.2901 173.944C72.5698 173.764 71.6695 173.404 70.9492 173.044C70.0489 172.684 69.1485 172.324 68.2482 171.964C67.5279 171.603 66.8077 171.243 66.0874 170.883C65.3672 170.523 64.4668 170.163 63.7465 169.803C62.1259 169.082 60.6854 168.362 59.2449 167.282C57.8043 166.201 56.5439 164.941 55.2834 163.68C54.023 162.42 53.1226 160.799 52.0422 159.359C51.1419 157.918 50.0615 156.658 49.1611 155.217C48.2608 153.957 47.5406 152.336 46.6402 151.076C45.7399 149.635 45.0196 148.015 44.2994 146.574C43.9392 145.674 43.399 144.774 43.219 143.873C43.0389 142.973 42.6788 142.073 42.4987 141.352C42.3187 140.632 42.1386 139.912 41.9585 139.011C41.7784 138.111 41.7785 137.211 41.5984 136.31C41.4183 135.41 41.4183 134.51 41.2382 133.609C41.0582 132.709 41.0582 131.989 41.0582 131.088C40.8781 129.288 40.698 127.667 40.518 125.867C40.3379 124.066 40.1578 122.265 40.1578 120.465C39.9778 117.043 39.9778 113.622 39.7977 110.201C39.7977 108.58 39.9778 106.78 39.9778 105.159C40.1579 103.358 40.1578 101.558 40.1578 99.937C40.1578 98.4965 39.9778 96.8759 39.7977 95.4353C39.4376 93.0945 38.8974 90.5735 38.7173 88.2327C38.5372 86.9722 38.3572 85.8918 38.1771 84.6314C37.9971 83.3709 37.817 82.1104 37.6369 80.6699C37.2768 78.5091 36.7366 76.5284 36.1964 74.5476C35.8363 73.6473 35.6562 72.5669 35.2961 71.6666C34.9359 70.7662 34.5758 69.6858 34.2157 68.7855C33.8555 67.7051 33.3153 66.8047 32.5951 65.9044C32.0549 65.3642 31.6947 64.644 30.9745 64.2838C30.6143 64.1038 30.2542 63.7436 29.8941 63.5636C29.1738 63.2034 28.8136 62.123 29.3538 61.4027C29.714 60.8626 30.2542 60.6825 30.7944 60.6825C30.9745 60.6825 31.3346 60.6825 31.5147 60.8626Z" fill="black"/>
<path d="M31.3339 61.5829C31.694 61.7629 32.0541 62.1231 32.0541 62.6633C32.2342 63.0234 32.0542 63.5636 31.8741 63.9237C31.694 64.2839 31.3339 64.4639 30.9738 64.644C30.4336 64.8241 29.8934 65.1842 29.1731 65.3643C28.4528 65.7244 27.7326 66.0845 27.0123 66.4447C26.112 66.9849 25.0315 67.345 24.1312 68.0653C23.4109 68.6055 22.8707 69.3257 22.3305 70.046C21.2501 71.4865 20.5299 73.1071 19.8096 74.9078C19.4495 75.9882 19.0894 77.0686 18.7292 78.149C18.3691 79.4094 18.009 80.4898 17.6488 81.7503C17.2887 83.0108 16.7485 84.2712 16.3884 85.5317C16.0282 86.7922 15.6681 87.8726 15.488 89.133C15.488 90.0334 15.308 90.7536 15.308 91.654C15.308 92.5543 15.308 93.4546 15.308 94.355C15.308 95.2553 15.488 95.9755 15.488 96.8759C15.488 97.7762 15.6681 98.6765 15.6681 99.5769C15.8482 102.998 15.6681 106.599 15.6681 110.021C15.6681 111.821 15.6681 113.622 15.488 115.423C15.488 117.223 15.308 118.844 15.308 120.645C15.308 122.445 15.488 124.066 15.6681 125.867C15.8482 127.667 15.8482 129.468 16.0282 131.269C16.2083 133.249 16.2083 135.23 16.3884 137.211C16.5684 138.651 16.9286 140.092 17.2887 141.352C17.4688 142.073 17.6488 142.793 17.8289 143.333C18.009 144.053 18.3691 144.774 18.5492 145.494C18.7292 146.034 18.9093 146.574 19.2694 146.934C19.6296 147.655 19.9897 148.195 20.3498 148.915C21.0701 150.176 21.7904 151.256 22.5106 152.516C23.2309 153.777 23.9512 155.037 24.4914 156.298C24.8515 157.018 25.2116 157.558 25.5717 158.279C25.9319 158.819 26.292 159.359 26.6522 159.719C27.9126 161.16 29.1731 162.6 30.4335 164.041C31.694 165.481 32.9545 166.742 34.395 168.002C36.1957 169.263 37.9963 170.343 39.797 171.243C41.0575 171.783 42.318 172.144 43.5784 172.504C44.8389 173.044 46.0993 173.584 47.5398 173.944C48.9804 174.304 50.4209 174.845 51.6814 175.205C52.9419 175.565 54.3824 175.745 55.8229 175.925C55.6428 175.925 55.4628 175.925 55.4628 175.925C58.884 176.285 62.3053 176.645 65.7266 176.645C67.3472 176.645 69.1478 176.645 70.7684 176.825C72.5691 177.005 74.1897 177.185 75.9904 177.546C76.5306 177.546 77.0708 177.726 77.611 177.726C79.0515 177.906 80.6721 177.906 82.1126 178.086C82.8329 178.086 83.7332 178.086 84.4535 178.086C85.1737 178.086 86.0741 178.086 86.7943 178.086H86.9744C87.8747 177.906 88.7751 178.266 89.1352 179.346C89.3153 180.247 88.775 181.327 87.8747 181.507C86.9744 181.687 86.2541 181.687 85.3538 181.687C84.8136 181.687 84.0933 181.687 83.5531 181.687C82.4727 181.687 81.3923 181.507 80.312 181.507C79.0515 181.507 77.6109 181.327 76.3505 181.147C75.2701 180.967 74.1897 180.787 73.1093 180.607H73.2894H73.1093H72.9292H73.1093C71.6688 180.427 70.0482 180.247 68.6076 180.247C66.807 180.247 65.0063 180.247 63.2056 180.067C59.7844 180.067 56.183 179.526 52.7618 178.986C51.1412 178.626 49.5206 178.086 47.9 177.726C46.2794 177.186 44.8389 176.645 43.2183 175.925C42.498 175.565 41.5977 175.385 40.8774 175.025C39.9771 174.665 39.0768 174.304 38.1764 173.944C36.5558 173.224 35.1153 172.324 33.6748 171.423C32.2342 170.343 30.7937 169.082 29.5332 167.822C28.4528 166.562 27.1924 165.481 26.112 164.221C24.8515 162.78 23.7711 161.34 22.6907 159.719C22.1505 158.999 21.7903 158.098 21.4302 157.378C21.0701 156.658 20.5299 155.938 20.1698 155.037C19.2694 153.597 18.3691 151.976 17.6488 150.536C17.1086 149.815 16.7485 148.915 16.3884 148.015C16.0282 147.114 15.6681 146.214 15.308 145.314C14.7678 143.693 14.4076 142.073 14.0475 140.452C13.8674 139.552 13.6874 138.651 13.5073 137.931C13.3272 137.031 13.3272 135.95 13.1472 135.05C12.9671 133.249 12.9671 131.449 12.7871 129.648C12.607 127.847 12.607 126.047 12.4269 124.246C12.4269 123.346 12.2468 122.625 12.2468 121.725C12.2468 120.825 12.2468 119.924 12.2468 119.024C12.2468 117.223 12.2468 115.603 12.4269 113.802C12.4269 112.001 12.4269 110.201 12.4269 108.58C12.4269 106.78 12.4269 105.159 12.4269 103.358C12.4269 101.558 12.2468 99.757 12.2468 97.9563C12.0668 96.3357 11.8867 94.535 11.8867 92.9144C11.8867 90.9337 12.0668 89.133 12.4269 87.1523C12.787 85.3516 13.3272 83.7311 14.0475 81.9304C14.5877 80.3098 14.9478 78.6892 15.488 77.0686C16.0282 75.2679 16.7485 73.4673 17.6488 71.8467C18.189 70.7663 18.7292 69.8659 19.2694 68.9656C19.6296 68.4254 19.9897 67.8852 20.5299 67.345C21.0701 66.6247 21.7904 66.0845 22.5106 65.3643C23.0508 64.8241 23.9512 64.4639 24.4914 64.2838C25.0316 63.9237 25.7518 63.7436 26.292 63.3835C27.5525 62.8433 28.813 62.3031 30.0734 61.7629C30.2535 61.7629 30.2535 61.7629 30.4335 61.7629C30.7937 61.4028 31.1538 61.5829 31.3339 61.5829Z" fill="black"/>
<path d="M27.3752 67.8851C27.3752 67.7051 27.3752 67.525 27.3752 67.525C27.3752 67.7051 27.3752 67.7051 27.3752 67.8851ZM31.1566 63.5636C31.1566 65.0041 30.7965 66.6247 30.6164 68.0652C30.4364 69.6858 30.2563 71.1264 29.8962 72.747C29.7161 74.3676 29.536 75.9881 29.356 77.6087C29.1759 79.4094 28.9958 81.03 28.8158 82.8307C28.8158 84.6314 28.8158 86.612 28.8158 88.4127C28.8158 90.2134 28.8158 92.014 28.9959 93.8147C28.9959 95.6154 29.1759 97.236 29.1759 99.0367C29.356 100.837 29.536 102.458 29.536 104.079C29.8962 107.68 29.8962 111.101 30.2563 114.702V114.522C30.4364 116.143 30.7965 117.583 30.9766 119.204C31.1567 120.825 31.3367 122.265 31.5168 123.886C32.057 127.307 32.7772 130.728 33.8576 133.97C34.3978 135.59 34.938 137.211 35.6583 139.011C36.1985 140.812 36.7387 142.433 37.2789 144.233C37.6391 145.674 38.1792 147.294 38.5394 148.735C38.8995 150.175 39.4397 151.616 39.9799 153.057C40.8803 155.037 41.9606 157.018 43.4012 158.819C44.6616 160.439 46.1021 161.88 47.5427 163.14C49.1633 164.401 50.6038 165.661 52.2244 167.102C52.9447 167.642 53.845 168.362 54.5653 168.722C55.4656 169.263 56.546 169.803 57.4463 170.163C58.7068 170.703 59.7872 171.243 61.0477 171.603C62.4882 172.144 63.7487 172.504 65.1892 172.864C66.6297 173.224 68.2503 173.404 69.6909 173.764C71.1314 173.944 72.752 174.304 74.1925 174.484C74.0125 174.484 73.8324 174.484 73.8324 174.484C74.9128 174.664 75.9932 174.845 77.0736 174.845C78.154 175.025 79.4145 175.025 80.4949 175.025C81.7553 175.205 83.0157 175.385 84.2762 175.565C85.3566 175.745 86.257 175.925 87.3374 176.105C87.5174 176.105 87.6975 176.105 87.6975 176.105C88.0576 176.105 88.4177 176.285 88.7779 176.645C89.138 177.005 89.3181 177.366 89.3181 177.726C89.3181 178.086 89.138 178.626 88.7779 178.806C88.5978 179.166 88.0576 179.346 87.6975 179.346C86.257 179.166 84.9965 178.986 83.736 178.806C82.8357 178.626 81.9354 178.446 81.035 178.446C80.1347 178.446 79.4145 178.446 78.5141 178.266C77.6138 178.266 76.7135 178.086 75.8131 178.086C74.0125 177.906 72.0317 177.546 70.2311 177.366C66.8098 176.825 63.3885 176.285 60.1473 175.025C58.5267 174.304 56.9062 173.584 55.1055 172.864C53.4849 172.144 52.0444 171.243 50.6038 170.163C49.1633 169.082 47.7228 167.822 46.2822 166.742C45.0218 165.661 43.7613 164.581 42.6809 163.32C40.16 160.619 38.1792 157.558 36.7387 153.957C36.0184 152.336 35.6583 150.536 35.1181 148.915C34.5779 147.114 34.2178 145.494 33.6776 143.693C33.1374 142.073 32.5972 140.272 32.057 138.651C31.5168 137.031 30.7965 135.23 30.2563 133.609C29.1759 130.008 28.4557 126.407 28.0955 122.805C27.9155 121.905 27.9154 120.825 27.7354 119.924C27.5553 118.124 27.1952 116.323 27.0151 114.522C26.8351 112.722 26.655 111.101 26.4749 109.3C26.2948 107.5 26.2949 105.699 26.1148 103.898C25.9347 102.098 25.7547 100.477 25.7547 98.6765C25.5746 95.0752 25.3945 91.2938 25.3945 87.6924C25.3945 85.8918 25.3945 84.0911 25.3945 82.2905C25.5746 80.4898 25.7546 78.8692 25.9347 77.0685C26.2948 74.0074 26.655 71.1264 27.0151 68.0652C27.0151 68.0652 27.0151 68.0652 27.0151 68.2453V68.0652C27.1952 67.1649 27.1952 66.4446 27.3752 65.5443C27.3752 65.7244 27.3752 65.7243 27.3752 65.9044C27.3752 65.7243 27.3753 65.3642 27.5553 65.1841C27.5553 65.3642 27.5553 65.3642 27.5553 65.5443C27.5553 65.5443 27.5553 65.5443 27.5553 65.7244C27.5553 65.0041 27.7354 64.4639 27.7354 63.7436C27.7354 62.8433 28.4556 61.943 29.536 61.943C30.4364 61.7629 31.1566 62.6632 31.1566 63.5636Z" fill="black"/>
<path d="M191.232 290.267C191.052 290.447 191.052 290.447 191.232 290.267C191.052 290.447 191.052 290.447 191.232 290.267ZM199.155 282.344C199.155 282.524 199.155 282.524 199.155 282.344C199.155 282.524 199.155 282.524 199.155 282.344ZM205.818 272.621C205.637 274.781 205.457 277.122 204.737 279.103C204.377 280.364 203.657 281.444 202.936 282.524C202.756 282.884 202.576 283.064 202.396 283.425C202.036 283.965 201.676 284.325 201.316 284.685C200.235 285.946 199.155 287.206 198.075 288.467C196.994 289.727 195.554 290.627 194.293 291.708C193.573 292.248 193.033 292.788 192.313 293.328C191.592 293.868 190.872 294.229 190.152 294.769C188.531 295.669 186.911 296.209 185.11 296.57C183.489 296.93 181.689 297.11 179.888 297.29C179.528 297.29 179.168 297.29 178.808 297.29C178.267 297.29 177.907 297.29 177.367 297.29C176.647 297.29 175.746 297.11 175.026 297.11C173.045 296.93 170.885 296.75 168.904 296.029C168.004 295.669 167.103 295.489 166.023 295.309C165.123 295.129 164.402 294.949 163.502 294.769C161.701 294.589 160.081 294.409 158.28 294.409C156.479 294.409 154.859 294.409 153.058 294.409C152.158 294.409 151.438 293.688 151.438 292.788C151.438 291.888 152.158 291.168 153.058 291.168C153.958 291.168 154.679 291.168 155.579 291.168C157.92 291.168 160.081 291.167 162.422 291.348C164.222 291.528 165.843 291.888 167.463 292.248C168.184 292.428 169.084 292.788 169.804 292.968C170.525 293.148 171.425 293.328 172.145 293.508C172.505 293.508 173.045 293.688 173.406 293.688C174.846 293.868 176.467 293.868 177.907 294.049C178.627 294.049 179.348 294.049 180.068 294.049C180.788 294.049 181.509 293.869 182.229 293.869C183.129 293.688 184.029 293.508 185.11 293.328C186.01 293.148 186.731 292.788 187.451 292.428C188.171 292.068 188.711 291.708 189.432 291.348C189.972 290.987 190.692 290.627 191.232 290.087C191.952 289.547 192.493 289.007 193.213 288.467C193.933 287.926 194.653 287.206 195.374 286.666C196.814 285.225 198.075 283.785 199.155 282.164C200.055 281.084 200.776 279.823 201.496 278.563C201.856 277.663 202.036 276.582 202.396 275.502C202.576 274.962 202.576 274.601 202.576 274.061C202.576 273.521 202.756 272.981 202.756 272.441C202.756 271.54 203.477 270.82 204.377 270.82C205.097 271 205.818 271.72 205.818 272.621Z" fill="black"/>
<path d="M197.713 270.46C199.153 270.46 200.594 270.82 202.035 271.36C202.395 271.54 202.755 271.72 202.935 272.08C203.115 272.441 203.295 272.981 203.115 273.341C202.935 274.241 202.035 274.781 201.134 274.421C200.234 274.061 199.514 273.881 198.613 273.701C196.993 273.521 195.552 273.701 193.932 273.881C192.131 273.881 190.51 273.881 188.71 274.061C187.809 274.241 187.089 274.421 186.369 274.781C183.488 276.042 180.967 277.843 178.266 279.643C177.545 280.003 176.825 280.543 176.285 281.084C175.565 281.624 174.844 281.984 174.124 282.344C172.504 283.245 171.063 283.965 169.262 284.685C168.002 285.225 166.561 285.585 165.121 285.946C163.86 286.306 162.42 286.486 160.979 286.846C159.539 287.206 158.278 287.386 156.838 287.746C155.397 287.926 153.957 288.106 152.516 288.466C152.156 288.466 151.616 288.466 151.256 288.286C150.896 288.106 150.716 287.746 150.536 287.386C150.355 287.026 150.536 286.486 150.716 286.126C150.896 285.765 151.256 285.405 151.616 285.405C153.056 285.225 154.497 285.045 155.938 284.685C157.378 284.505 158.819 284.145 160.259 283.785C160.979 283.605 161.7 283.425 162.6 283.245C163.32 283.064 164.04 282.884 164.761 282.704C166.201 282.344 167.462 281.804 168.902 281.264C170.343 280.544 171.783 279.823 173.044 279.103C173.764 278.743 174.484 278.203 175.205 277.662C175.925 277.122 176.645 276.762 177.365 276.222C178.806 275.322 180.246 274.421 181.687 273.521C183.128 272.621 184.568 271.9 186.009 271.36C187.269 271 188.71 270.64 190.15 270.64C191.411 270.64 192.851 270.64 194.112 270.64C194.652 270.64 195.372 270.64 195.912 270.46C196.452 270.46 196.993 270.46 197.713 270.46Z" fill="black"/>
<path d="M201.318 271.72C201.679 271.9 202.039 272.08 202.219 272.441C202.399 272.801 202.579 273.341 202.399 273.701C202.219 274.241 202.039 274.421 201.679 274.601C200.958 275.142 200.238 275.682 199.338 276.402C199.158 276.582 198.797 276.762 198.617 276.942C198.437 277.122 198.077 277.302 197.897 277.482C197.357 277.842 196.817 278.203 196.096 278.563C195.376 278.923 194.656 279.283 194.116 279.643C191.595 280.904 188.894 281.444 186.373 282.524C185.653 282.884 184.932 283.245 184.212 283.605C183.492 283.965 182.772 284.325 182.051 284.865C181.331 285.225 180.611 285.585 179.891 286.126C178.99 286.486 178.09 286.846 177.19 287.386C175.569 288.106 174.128 288.646 172.508 289.187C170.887 289.727 169.267 290.447 167.646 290.807C166.566 290.987 165.485 291.347 164.225 291.528C163.144 291.708 162.064 291.888 160.803 292.068C159.723 292.068 158.823 292.248 157.742 292.068C156.482 292.068 155.402 291.888 154.141 291.708C153.241 291.528 152.881 290.627 153.061 289.727C153.241 288.827 154.141 288.466 155.041 288.646C155.402 288.646 155.582 288.827 155.942 288.827C157.742 289.007 159.543 289.007 161.344 288.827C162.604 288.646 163.685 288.466 164.945 288.106C166.386 287.746 167.826 287.566 169.267 287.026C170.527 286.666 171.788 286.126 173.048 285.585C174.489 285.045 175.749 284.505 177.19 283.965C177.009 283.965 177.009 284.145 176.829 284.145C177.55 283.785 178.09 283.605 178.63 283.245C179.35 282.884 179.891 282.524 180.431 282.164C181.691 281.444 182.952 280.724 184.212 280.183C185.653 279.463 187.093 279.103 188.534 278.563C189.074 278.383 189.794 278.203 190.334 278.023C190.875 277.842 191.595 277.662 192.135 277.302C192.675 276.942 193.396 276.762 193.936 276.402C194.656 276.042 195.376 275.682 195.916 275.142C197.357 274.241 198.617 273.161 199.878 272.261C200.058 272.08 200.418 272.08 200.598 272.08C200.958 271.72 201.138 271.72 201.318 271.72Z" fill="black"/>
</svg>
