<svg width="169" height="324" viewBox="0 0 169 324" fill="none" xmlns="http://www.w3.org/2000/svg">
<path d="M6.73089 41.8887C6.36706 41.8887 6.18515 42.0708 6.18515 42.253C6.18515 42.253 6.18515 42.253 6.36706 42.4351C6.54898 42.253 6.73089 42.0708 6.73089 41.8887ZM162.451 46.9882C162.451 46.9882 162.451 46.8061 162.451 46.9882C162.451 46.8061 162.451 46.6239 162.269 46.4418C162.269 46.4418 162.269 46.4418 162.087 46.4418C162.269 46.6239 162.269 46.8061 162.451 46.9882ZM114.607 110.732C113.879 110.55 113.879 110.732 114.061 111.46C114.425 111.096 114.425 110.914 114.607 110.732ZM92.5953 6.19224V6.01012C92.4133 6.01012 92.2314 5.82799 92.0495 5.82799V6.01012C92.2314 6.01012 92.4133 6.19224 92.5953 6.19224ZM111.696 103.265L111.878 103.447C112.06 103.265 112.06 103.083 112.242 102.901H112.06C111.878 103.083 111.878 103.265 111.696 103.265ZM115.881 11.1096C116.062 10.9275 116.062 10.9275 115.881 11.1096C115.699 10.9275 115.335 10.7454 115.153 10.7454C115.335 10.7454 115.699 10.9275 115.881 11.1096ZM108.058 117.653H108.24C108.422 117.47 108.422 117.288 108.604 117.106C108.604 117.106 108.422 117.106 108.422 116.924C108.24 117.288 108.24 117.47 108.058 117.653ZM149.171 113.099L148.989 112.917C148.807 113.099 148.625 113.282 148.443 113.646C148.443 113.646 148.443 113.646 148.625 113.828C148.625 113.464 148.807 113.282 149.171 113.099ZM113.152 112.371C112.97 112.371 112.97 112.189 112.788 112.189C112.606 112.553 112.242 112.917 112.06 113.099L112.242 113.282C112.606 113.099 112.788 112.735 113.152 112.371ZM69.1281 8.55986C69.1281 8.55986 69.1281 8.37774 69.1281 8.19562C68.7643 8.19562 68.2185 8.19562 67.8547 8.37774C67.8547 8.55986 67.8547 8.55987 67.8547 8.74199C68.2185 8.74199 68.5823 8.55986 69.1281 8.55986ZM74.0398 4.00675C74.0398 3.82462 74.0398 3.82462 74.0398 4.00675L72.9483 3.82462V4.00675H74.0398ZM122.975 122.206C123.703 122.024 123.703 122.024 123.703 121.113C123.339 121.477 123.157 121.841 122.975 122.206ZM117.7 11.2917V11.4739C118.245 11.656 118.791 11.8381 119.155 12.0202V11.8381C118.791 11.656 118.245 11.4739 117.7 11.2917ZM118.064 10.7454C116.972 10.199 116.972 10.199 116.244 10.199C116.972 10.3811 117.518 10.5632 118.064 10.7454ZM6.91281 45.3491C6.18514 45.5312 5.6394 45.8955 5.27557 46.8061C6.00323 46.0776 6.54898 45.7133 6.91281 45.3491ZM90.7761 28.5936C90.7761 28.7757 90.7761 28.7757 90.7761 28.5936C90.7761 28.7757 90.7761 28.7757 90.7761 28.7757C91.3219 28.7757 92.0495 28.9578 92.7772 28.9578C92.2314 28.5936 91.5038 28.4115 90.7761 28.5936ZM78.5877 226.017L78.7696 223.649C78.4058 224.378 78.4058 225.106 78.5877 226.017ZM104.42 121.295C104.966 120.931 105.693 120.567 106.239 119.656C105.147 120.02 104.784 120.567 104.42 121.295ZM32.7449 35.8786V35.6965C32.0172 35.8786 31.1076 36.2428 30.38 36.425C30.38 36.6071 30.38 36.6071 30.5619 36.7892C31.2896 36.425 32.0172 36.2428 32.7449 35.8786ZM115.517 10.0169C114.971 9.47049 113.698 9.10624 112.788 9.28836C113.879 9.65261 114.789 9.83474 115.517 10.0169ZM87.8654 15.8449C89.6846 16.3912 89.8665 16.3912 90.4123 15.8449C90.0484 15.8449 89.6846 15.8449 89.3208 15.8449C88.9569 15.6627 88.5931 15.4806 88.2293 15.2985C88.2293 15.4806 88.0474 15.6627 87.8654 15.8449ZM78.5877 12.5666V12.3845C77.4962 12.2024 76.4047 12.2024 75.3132 12.0202V12.2024C76.4047 12.3845 77.4962 12.3845 78.5877 12.5666ZM126.614 116.742C127.341 116.013 127.705 115.285 127.523 114.374C127.159 115.103 126.25 115.467 126.614 116.742ZM89.8665 10.199C90.7761 10.5632 91.5038 10.7454 92.5953 10.7454C91.6857 10.0169 90.7761 10.0169 89.8665 10.199ZM133.163 114.192L132.981 114.01C132.253 115.467 131.525 116.742 130.798 118.199C130.798 118.199 130.98 118.199 130.98 118.381C131.707 116.924 132.435 115.467 133.163 114.192ZM87.3197 7.46712C87.3197 7.28499 87.3197 7.28499 87.3197 7.10287C85.8644 6.92074 84.591 6.37437 82.9537 6.73862C84.591 6.92074 85.8644 7.10287 87.3197 7.46712ZM52.2099 2.914C53.6652 3.46037 54.9386 3.27825 55.1206 2.36762C54.0291 2.54975 53.1195 2.73187 52.2099 2.914ZM82.408 10.0169C84.0452 10.5632 85.5005 10.7454 86.4101 10.3811C85.5005 9.83474 84.2271 9.65261 82.408 10.0169ZM69.8558 190.138C69.31 191.231 68.9462 191.96 68.4004 192.87C69.4919 192.87 69.8558 192.324 69.8558 190.138ZM82.408 14.57C82.408 14.7521 82.408 14.7521 82.408 14.9342C84.0452 15.2985 85.8644 15.4806 87.5016 15.8449C86.9559 15.1164 86.0463 15.1164 85.1367 14.9342C84.591 14.7521 84.0452 14.9342 83.4995 14.7521C83.1356 14.7521 82.7718 14.57 82.408 14.57ZM149.717 120.567C150.808 119.838 152.628 117.288 152.809 116.378C151.9 117.106 149.899 119.656 149.717 120.567ZM68.2185 194.509C67.4909 194.509 67.4908 195.056 67.4908 195.602C67.3089 196.877 67.6728 198.334 66.9451 199.609C66.9451 199.791 66.9451 199.973 67.127 200.337C67.6728 199.245 68.2185 196.513 68.2185 194.509ZM91.3219 6.55649C91.5038 5.82799 91.3219 5.46374 90.7761 5.46374C90.2304 5.46374 89.5027 5.64587 88.9569 5.46374C87.8654 5.09949 86.7739 5.28162 85.3186 5.46374C87.5016 5.82799 89.3208 6.19224 91.3219 6.55649ZM101.327 14.2057C99.69 12.9309 94.7783 11.8381 93.5048 12.2024C94.7783 12.5666 96.0517 12.7487 97.1432 13.113C98.5985 13.6594 99.8719 13.8415 101.327 14.2057ZM110.787 37.882C110.605 37.5177 110.605 37.5177 110.605 37.3356C110.059 36.6071 109.15 36.425 108.24 36.2428C104.238 35.1501 100.236 33.8752 96.2336 32.7825C95.1421 32.4182 94.2325 32.2361 93.141 32.054V32.2361C98.9623 33.8752 104.784 35.6965 110.787 37.882ZM164.27 51.9056C164.27 52.2698 164.27 52.4519 164.452 52.8162C164.998 54.8196 165.544 56.8229 165.907 59.0084C166.453 61.3761 166.999 63.7437 167.181 66.1113C167.363 68.1147 167.727 70.118 167.909 72.1214C167.909 65.0185 166.635 58.4621 164.27 51.9056ZM110.241 111.46C111.333 110.914 111.878 109.639 113.152 109.275C112.606 110.003 112.242 110.55 111.696 111.278C112.06 111.46 112.242 111.46 112.242 111.642C112.424 111.642 112.424 111.643 112.424 111.46C113.152 110.914 113.879 110.003 114.971 110.186C115.153 110.186 115.335 110.003 115.517 109.821C115.881 109.457 116.062 108.911 116.244 108.546C115.335 108.182 115.153 109.639 114.243 109.275C115.153 107.818 116.608 107.271 117.336 105.814C116.972 105.632 116.79 105.268 116.426 105.086C114.425 106.361 110.605 110.186 110.241 111.46ZM121.702 12.7487C122.611 13.113 123.521 13.4772 124.431 13.8415C126.432 14.57 128.433 15.2985 130.07 16.5734C130.798 17.1197 131.525 17.484 132.617 17.3019C132.799 17.3019 132.981 17.3019 133.163 17.3019C134.254 17.6661 135.527 18.0304 136.619 18.5767C138.256 19.4874 139.893 20.5801 141.531 21.4907C143.168 22.4014 144.623 23.4941 145.897 24.5868C146.624 25.1332 147.17 25.6796 147.898 26.226C148.262 26.5902 148.625 26.7723 149.171 26.9545C149.535 27.1366 149.899 27.5008 150.263 27.8651L150.445 27.683C148.989 26.4081 147.534 24.9511 146.079 23.6762C144.987 22.7656 143.532 21.855 142.258 21.1265C141.167 20.398 140.075 19.6695 138.984 19.1231C137.165 18.0304 135.164 17.3019 133.163 16.2091C130.252 14.7521 127.159 13.6594 124.067 12.5666C123.703 12.3845 123.157 12.3845 123.157 12.3845C122.793 13.113 122.248 12.3845 121.702 12.7487ZM95.324 16.027C94.2325 16.027 93.141 16.2091 92.0495 16.2091C94.4144 16.5734 96.7793 16.7555 99.1442 17.1197C100.963 17.3019 102.783 17.8482 104.602 18.2125C106.057 18.5767 107.694 18.7589 109.15 19.1231C110.605 19.4874 112.06 19.3052 113.334 19.8516C114.243 20.2159 115.335 20.398 116.244 20.7622C117.154 21.1265 118.245 21.6729 119.155 22.0371C119.883 22.4014 120.428 22.9477 121.338 22.5835C121.52 22.5835 121.884 22.7656 122.066 22.7656C122.248 22.7656 122.611 22.9477 122.793 22.9477C123.339 22.7656 123.703 23.1298 123.885 23.4941C124.249 23.8583 124.431 24.4047 124.976 24.5868C126.614 25.4975 128.251 26.4081 129.888 27.1366C132.071 28.2293 134.254 29.3221 136.437 30.597C136.619 30.597 136.801 30.7791 136.983 30.7791C136.983 30.597 136.801 30.4148 136.801 30.4148C133.89 28.4115 131.161 26.226 128.069 24.4047C123.157 22.0371 118.064 20.0337 112.788 18.2125C112.242 18.0304 111.878 18.0304 111.333 17.8482C110.423 17.484 109.332 17.3019 108.422 16.7555C107.694 16.3912 106.967 16.3912 106.239 16.2091C104.602 15.8449 102.783 15.2985 101.145 14.7521C100.6 14.57 99.8719 14.57 99.3261 14.3879C98.4166 14.57 97.507 14.57 96.4155 14.3879C96.0517 14.3879 95.6878 14.2057 95.324 14.2057C92.9591 14.0236 90.5942 13.6594 88.0474 13.4772C86.592 13.2951 85.3186 13.2951 83.8633 13.113C86.592 13.8415 89.1389 14.3879 91.8676 14.9342C93.141 15.2985 94.2325 15.8449 95.324 16.027ZM101.873 123.663C101.691 124.027 101.327 124.391 101.145 124.755C101.509 124.391 102.055 124.209 101.873 123.663C102.419 123.845 102.601 123.481 102.783 122.752C102.419 123.116 102.237 123.298 101.873 123.663ZM18.3735 13.8415C19.6469 12.5666 21.1023 11.656 22.7395 10.9275C23.6491 10.5632 24.3767 10.0169 25.4682 10.0169C25.4682 10.0169 25.4682 10.0169 25.6502 10.0169C26.9236 8.55986 29.1066 8.55986 30.5619 7.28499C30.9257 6.92074 31.4715 6.92074 31.8353 6.73862C37.8385 4.91737 43.8418 3.09612 50.0269 1.82125C56.394 0.546374 62.9429 0 69.31 0C73.1302 0 76.9505 0.36425 80.7707 0.546374C80.9526 0.546374 81.1346 0.728499 81.3165 0.910624C80.4069 0.728499 79.4973 0.728499 78.5877 0.546374C73.8579 0.182125 69.1281 0.182125 64.2164 0.546374C62.761 0.728499 61.4876 0.728499 60.0323 1.09275C60.3961 1.09275 60.578 1.09275 60.9419 1.09275C62.5791 1.09275 64.2164 0.910624 65.8536 0.910624C67.6728 0.910624 69.6738 0.546374 71.493 0.728499C75.1313 0.910624 78.7696 1.09275 82.2261 1.457C85.5005 1.63912 88.775 2.36762 91.8676 3.09612C92.5953 3.27825 93.3229 3.27825 94.2325 3.46037C93.5048 3.09612 92.9591 2.914 92.4133 2.54975C92.7772 2.54975 93.3229 2.73187 93.6868 2.73187C94.2325 2.914 94.7783 2.914 95.5059 2.73187C96.5974 2.54975 97.6889 2.54975 98.7804 2.54975C102.601 2.73187 106.239 4.00675 110.059 4.91737C112.242 6.55649 114.607 6.55649 116.79 7.28499C118.973 8.01349 121.338 8.55986 123.339 9.47049C124.794 10.0169 126.25 10.7454 127.705 11.2917L127.887 11.4739C126.25 10.9275 124.794 10.3811 123.157 10.0169C120.792 9.47049 118.609 8.37774 116.062 8.19562C116.426 8.92412 116.426 8.92412 117.154 9.10624C118.427 9.47049 119.519 9.83474 120.792 10.199C122.611 10.7454 124.431 11.4739 126.068 12.0202C127.523 12.5666 128.797 13.113 130.252 13.4772C133.89 14.57 137.165 16.7555 140.439 18.7589C142.44 20.0337 144.259 21.4907 146.442 22.7656C148.443 24.0405 150.081 25.4975 151.536 27.3187C153.719 29.8685 156.084 32.6003 157.539 35.5143C158.631 37.5177 159.904 39.5211 160.996 41.5245C162.633 44.6206 163.724 48.0809 164.816 51.3592C166.453 55.9123 167.181 60.6476 167.909 65.3828C168.454 69.0253 168.818 72.8499 168.636 76.4924C168.454 81.5919 168.272 86.6914 166.999 91.6088C166.271 94.5228 165.544 97.6189 164.27 100.533C163.724 101.808 163.179 103.265 162.633 104.54C162.633 104.722 162.451 104.904 162.269 104.904C162.633 103.993 162.997 103.265 163.179 102.354C164.088 99.8044 164.816 97.2546 165.544 94.887C165.544 94.7049 165.907 94.3406 165.362 94.1585C165.362 94.1585 165.362 93.7943 165.362 93.43C166.817 88.8769 167.545 84.1417 167.545 79.2243C167.545 77.9494 167.727 76.6745 167.727 75.3997C167.727 75.0354 168.09 74.3069 167.363 74.3069C167.363 73.9427 167.363 73.7605 167.363 73.3963C167.363 73.3963 167.363 73.3963 167.181 73.3963C167.181 73.7605 167.181 73.9427 167.363 74.3069C167.363 74.489 167.181 74.489 167.181 74.6712C167.181 77.403 166.089 80.1349 165.907 82.8668C165.907 83.4132 165.907 83.7774 165.907 84.3238C165.725 84.1417 165.544 84.1417 165.18 83.7774C164.998 84.8702 164.816 85.7808 164.634 86.8735H164.816C164.998 86.5093 165.18 86.145 165.18 85.7808H165.362C165.362 85.9629 165.362 86.3271 165.362 86.5093C164.816 87.7841 164.452 89.059 164.634 90.3339C164.27 90.6981 163.906 91.2445 163.906 92.1551C164.452 91.4266 164.634 90.8803 164.634 90.3339C164.816 89.9696 165.18 89.4233 165.18 89.2411V89.059C165.907 88.3305 165.726 87.2378 166.271 86.3272C166.271 86.8735 166.271 87.2378 166.271 87.7841C166.089 88.8769 165.907 89.9697 165.726 90.8803C165.544 91.4267 165.544 92.1551 164.816 92.3373C164.634 92.3373 164.634 92.8836 164.634 93.0658C164.452 93.9764 164.088 94.887 163.906 95.7976H163.724C163.724 95.2513 163.906 94.887 163.906 94.1585C163.724 94.3406 163.543 94.5228 163.361 94.5228C162.997 92.7015 164.27 91.0624 164.452 89.4233C164.27 89.4233 164.088 89.6054 164.088 89.6054C163.361 91.7909 162.815 93.7943 162.087 95.9798C161.178 98.7116 160.268 101.626 158.995 104.358C158.449 105.268 158.085 106.361 157.721 107.454C157.539 107.636 157.539 108 157.357 108.182C155.902 110.55 154.447 112.917 152.991 115.285C154.447 114.374 155.72 112.917 156.448 110.914C156.448 110.732 156.63 110.732 156.63 110.55C157.175 110.003 157.903 109.457 158.449 108.911C157.721 110.55 156.994 112.007 155.902 113.464C156.084 113.646 156.084 113.828 156.266 114.01C155.538 115.103 154.992 116.378 154.265 117.288C153.355 118.563 152.446 119.838 151.172 120.567C150.626 120.931 150.263 121.477 150.263 122.388C149.899 122.388 149.535 122.206 149.171 122.388C148.989 122.57 148.807 122.934 148.625 123.116C148.262 123.845 147.716 124.573 147.17 125.12C146.988 125.302 146.806 125.12 146.624 125.302C146.442 125.302 146.26 125.484 146.079 125.666H146.806C146.442 126.212 146.079 126.759 145.715 127.305H145.533C145.715 126.941 145.715 126.759 145.897 126.395C145.897 126.395 145.715 126.395 145.715 126.212C144.987 127.305 144.259 128.398 143.532 129.491C144.441 129.309 145.169 129.126 145.533 128.216C145.715 127.852 146.26 127.669 146.624 127.305C147.716 126.03 148.989 124.755 150.081 123.663C150.99 122.57 152.082 121.659 152.991 120.749C153.173 120.567 153.355 120.384 153.355 120.202C153.173 119.474 153.901 119.656 154.083 119.474C154.083 119.11 154.083 118.745 154.265 118.563C155.538 116.56 156.994 114.556 158.449 112.735C158.449 112.553 158.631 112.553 158.631 112.371C158.813 112.553 158.995 112.553 158.813 112.553C158.449 113.646 158.085 114.921 157.357 116.013C156.266 117.653 154.992 119.292 153.719 120.749C153.173 121.477 152.809 122.206 152.264 122.752C151.536 123.663 150.808 124.391 150.081 125.12C149.171 126.03 148.262 126.941 147.716 128.034C147.17 128.762 146.442 129.309 145.715 130.037C145.533 130.219 145.351 130.583 145.169 130.766C144.987 130.948 144.987 131.13 144.805 131.312C143.168 132.405 141.895 133.862 140.621 135.319C138.984 136.958 137.347 138.779 136.073 140.782C135.891 140.965 135.709 141.147 135.527 141.329C133.526 143.332 131.525 145.336 129.524 147.339C128.797 148.067 127.887 148.796 127.159 149.524C126.795 149.889 126.614 150.253 126.432 150.435C125.886 150.799 125.158 151.164 124.794 151.71C123.157 153.167 121.702 154.806 120.065 156.445C119.519 156.992 118.791 157.356 118.064 157.902C117.336 158.631 116.426 159.359 115.699 160.088L115.517 160.27C115.699 161.363 114.789 161.727 114.243 162.273C112.97 163.73 111.696 165.369 110.241 166.826C107.694 169.74 105.511 173.019 103.328 176.115C103.146 176.479 102.964 176.843 102.783 177.207C100.781 180.668 98.5985 184.128 96.7793 187.771C96.0517 189.41 95.1421 191.049 94.4144 192.688C94.2325 193.052 94.2325 193.417 94.2325 193.781C95.324 194.145 95.324 194.145 95.8698 193.417C96.5974 192.324 97.1432 191.231 97.8708 190.138C97.8708 189.956 98.0527 189.956 98.4166 189.774C98.4166 191.049 97.8708 192.142 97.3251 193.052C96.0517 195.602 94.7783 198.152 93.5048 200.702C91.5038 204.89 89.3208 209.079 87.5016 213.268C86.592 215.271 86.0463 217.275 85.3186 219.46C85.1367 219.825 85.1367 220.371 84.409 220.735C84.7729 219.46 84.7729 218.186 85.3186 217.093C85.6825 216.182 85.5005 215.089 85.8644 214.179C84.409 216.729 83.6814 219.825 82.7718 222.556C82.7718 222.01 82.7718 221.464 82.7718 220.917C82.0441 221.282 82.408 222.01 81.8622 222.556V220.917H81.6803C81.4984 221.646 81.3165 222.374 81.1346 222.921C80.9526 223.649 80.9526 224.196 80.5888 224.924C80.7707 222.921 80.7707 220.917 80.9526 218.914H80.7707C80.4069 219.825 80.0431 220.917 79.8611 221.828C79.4973 223.467 79.1335 224.924 78.9516 226.563C78.7696 227.11 78.5877 227.656 77.8601 228.02C77.4962 227.292 77.6781 226.381 77.6781 225.653C77.6781 225.106 77.6781 224.56 77.8601 224.013C77.8601 223.649 77.8601 223.285 77.6781 223.103C76.7686 221.1 76.9505 219.096 77.1324 217.093C77.1324 214.907 77.3143 212.904 77.3143 210.718C77.3143 210.172 77.4962 209.808 77.6781 209.261C77.6781 208.715 78.042 208.169 77.3143 207.622C76.5866 208.715 76.7686 209.808 76.4047 210.901C75.6771 210.536 75.4952 209.99 75.4952 209.261C75.4952 208.169 75.3132 207.076 75.4952 205.983C75.4952 205.801 75.4952 205.437 75.3132 205.255C74.9494 205.801 74.9494 206.53 74.9494 207.258C74.9494 209.626 74.9494 211.811 74.7675 214.179C74.7675 214.907 74.2217 215.636 74.0398 216.364C73.8579 216.729 73.676 217.093 73.676 217.639C73.3122 219.096 72.9483 220.371 72.2207 221.646C72.0387 220.371 73.1302 218.914 72.0387 217.639C71.8568 219.46 71.493 221.282 71.1292 222.921C70.9473 222.921 70.9473 222.921 70.7653 222.921C70.7653 222.557 70.7653 222.01 70.7653 221.646C70.7653 221.464 70.7653 221.1 70.5834 220.917C70.2196 220.735 70.0377 221.1 69.8558 221.282H69.6738C69.4919 221.1 69.4919 221.1 69.31 220.917C69.1281 221.1 68.9462 221.464 68.7643 221.828C67.8547 220.553 68.4004 219.096 67.4908 218.003C66.9451 218.55 67.127 219.278 67.3089 219.825C67.6728 221.282 67.8547 222.739 67.3089 224.013C67.127 224.378 66.9451 224.742 66.7632 225.288C66.5813 225.288 66.5813 225.288 66.3994 225.288C66.2174 224.013 66.0355 222.739 65.8536 221.464H65.6717V223.467H65.4898C65.3079 223.103 64.7621 222.739 64.7621 222.374C64.5802 221.464 64.0344 221.1 63.3068 220.371C63.1249 221.282 63.1249 222.192 62.2153 222.739C62.0334 222.739 61.6695 222.556 61.1238 222.556C61.3057 223.103 61.4876 223.285 61.6695 223.831C61.4876 224.014 61.1238 224.196 60.9419 224.378C59.8504 224.013 59.3046 223.285 58.9408 222.192C58.7589 222.374 58.7589 222.556 58.7589 222.556C58.7589 222.739 58.7589 222.739 58.7589 222.921C58.395 222.921 58.0312 223.103 57.6674 223.103C57.3036 222.192 57.1216 221.282 56.9397 220.189C56.394 220.735 56.5759 221.282 56.394 222.01C56.2121 221.646 56.0301 221.646 56.0301 221.464C55.1206 219.643 54.3929 217.639 54.0291 215.636C53.4833 211.993 52.7556 208.533 52.2099 204.89C51.8461 202.523 52.028 200.155 52.2099 197.605C52.2099 196.695 52.7556 195.602 52.9376 194.691C52.9376 194.327 53.1195 193.963 53.1195 193.599C53.1195 192.87 53.1195 192.142 53.3014 191.413C53.4833 190.685 53.6652 189.956 53.8471 189.228C54.0291 189.228 54.211 189.41 54.5748 189.41C54.9386 188.135 55.3025 187.042 55.6663 185.767C56.2121 184.128 56.5759 182.671 56.9397 181.032C58.0312 177.207 59.4865 173.747 61.3057 170.287C62.2153 168.465 63.3068 166.644 64.3983 164.641C68.0366 158.084 72.0387 151.71 76.2228 145.518C76.9505 144.425 77.6781 143.332 78.9516 142.968C79.1335 142.968 79.1335 142.786 79.4973 142.604C79.1335 143.332 78.5877 143.879 78.5877 144.607C78.4058 145.518 77.6781 146.246 77.3143 146.975C76.7686 147.885 76.2228 148.796 75.4952 149.707C76.4047 149.889 76.7686 149.342 76.9505 148.796C78.2239 146.975 79.4973 145.153 80.7707 143.514C82.7718 140.965 84.7729 138.415 86.592 136.047C88.2293 134.044 89.6846 132.04 91.3219 130.037C92.0495 129.309 92.5953 128.398 93.3229 127.669C94.4144 126.577 95.1421 125.12 96.0517 123.845C97.3251 122.206 98.4166 120.567 99.69 118.927C100.054 118.563 99.69 118.017 100.054 117.653C101.145 116.56 102.055 115.285 103.146 114.01C104.42 112.371 105.875 110.732 107.149 109.093C107.512 108.546 108.058 108 108.422 107.454C108.786 107.089 109.15 106.725 109.332 106.179C109.332 106.179 109.15 106.179 109.15 105.997C108.968 106.361 108.786 106.907 108.604 107.272C107.512 107.818 106.603 108.364 106.057 109.275C105.147 110.55 104.238 111.643 103.146 112.917C102.601 113.646 102.055 114.556 101.327 115.285C100.963 115.831 100.236 116.196 99.8719 116.742C98.9623 118.017 98.0527 119.474 97.1432 120.749C97.1432 120.931 97.1432 120.931 96.9612 121.113C96.0517 121.841 95.324 122.752 94.7783 123.845C94.7783 124.027 94.2325 124.209 94.0506 124.027C93.5048 123.845 93.3229 124.027 93.141 124.391C91.1399 126.941 89.1389 129.491 87.3197 132.04C86.592 132.951 86.0463 134.044 85.5005 135.137C84.0452 137.322 82.5899 139.508 81.1346 141.875L80.9526 141.693C81.3165 140.965 81.6803 140.236 82.0441 139.325C81.8622 139.143 81.6803 139.143 81.4984 139.143C84.9548 134.59 88.4112 130.037 91.8676 125.484C92.0495 125.302 92.0495 124.938 92.2314 124.573C91.6857 124.573 91.5038 124.938 91.1399 125.302C89.6846 127.123 88.2293 128.944 86.7739 130.766C85.3186 132.769 83.6814 134.772 82.2261 136.594C82.2261 136.594 82.0441 136.776 81.6803 136.958C81.8622 136.594 81.8622 136.229 82.0441 136.047C83.4995 133.862 84.9548 131.676 86.592 129.491C87.5016 128.034 88.5931 126.759 89.6846 125.484C91.1399 123.298 92.7772 121.113 94.0506 118.927C94.9602 117.47 95.6878 116.013 96.5974 114.739C97.6889 113.099 98.7804 111.643 99.8719 110.186C100.054 109.821 100.418 109.639 100.963 109.275C101.327 110.368 100.963 111.096 100.418 112.007C100.963 111.825 101.145 111.825 101.327 111.642C101.691 111.46 102.055 111.096 102.237 110.732C105.147 107.089 108.24 103.993 111.333 100.351C111.878 99.8044 112.242 99.258 112.788 98.5295C112.97 98.3474 113.152 97.9831 113.334 97.9831C114.061 97.9831 114.425 97.4368 114.425 97.0725C114.789 95.9798 115.517 95.2513 115.881 93.9764C115.335 94.1585 115.153 94.1585 114.607 94.3406C114.971 93.6121 115.153 93.0658 115.335 92.5194C115.517 91.973 115.699 91.4267 115.699 90.8803C115.699 90.6982 115.699 90.516 115.699 90.516C116.608 89.6054 116.426 88.5126 116.79 87.4199C117.336 85.5987 117.154 83.7774 117.154 81.774C116.608 82.1383 116.608 82.6847 116.426 83.0489C115.881 82.8668 116.244 82.3204 116.244 81.9562C116.244 81.4098 116.062 81.0455 116.062 80.4992C115.881 79.5885 115.517 78.4958 115.335 77.5852C115.153 76.6745 115.153 75.946 114.971 75.0354C114.789 74.489 114.789 73.9427 114.243 73.7605C114.061 73.5784 113.879 73.032 113.879 72.6678C113.152 69.3895 111.696 66.2934 110.241 63.1973C108.786 60.4654 106.967 57.9157 105.147 55.5481C104.056 54.0911 102.783 52.8162 101.145 51.9056C100.418 51.5413 100.054 50.8128 99.3261 50.4486C97.8708 49.5379 96.5974 48.6273 95.1421 47.8988C89.5027 44.9848 83.4995 43.5278 77.3143 42.9815C70.7653 42.6172 64.2164 42.9814 57.6674 44.2563C54.3929 44.8027 51.1184 45.3491 48.0258 46.0776C47.4801 46.0776 46.9343 46.0776 46.9343 46.9882L46.3886 47.1703C46.2067 46.4418 45.6609 46.8061 45.2971 46.8061C43.1141 47.5346 40.9311 48.2631 38.7481 48.9916C35.1098 50.4486 31.4715 51.7234 27.8332 53.1804C27.6512 53.1804 27.6512 53.3626 27.4693 53.3626C26.7417 52.9983 26.3778 53.5447 26.014 53.9089C25.6502 53.5447 26.014 53.1804 26.1959 52.9983C27.6512 51.7234 29.1066 50.6307 30.7438 49.7201C31.2896 49.5379 31.8353 49.1737 32.3811 48.8094C32.0172 48.6273 31.6534 48.6273 31.2896 48.4452C31.4715 48.2631 31.6534 48.0809 31.8353 47.7167C31.6534 47.3524 31.6534 47.1703 31.4715 46.8061C31.6534 46.4418 31.8353 46.2597 32.0172 46.0776C30.0161 45.8954 28.7427 47.1703 26.9236 47.8988C24.5587 48.8094 22.1938 49.5379 19.8288 50.6307C18.0097 51.5413 16.1905 52.0877 14.3714 52.6341C14.0075 52.8162 13.4618 52.9983 13.098 53.1804C12.0065 53.5447 11.0969 53.9089 10.0054 54.2732C9.45963 54.4553 8.91389 54.6374 8.36814 54.8196C7.09473 55.5481 5.82131 56.2766 4.5479 57.0051L4.36598 57.1872C3.63832 57.5514 2.72874 57.7336 2.00108 58.0978C2.00108 57.0051 2.72874 56.2766 3.27449 55.3659C4.72982 52.9983 6.54898 50.8128 8.73197 48.9916C10.0054 48.0809 11.2788 47.1703 12.7341 46.4418C15.4629 44.9848 18.1916 43.5278 20.9203 42.0708C23.1033 40.9781 25.2863 40.0675 27.4693 38.9747C28.5608 38.4283 29.4704 38.0641 30.7438 37.5177C30.1981 37.3356 29.6523 36.9713 28.9246 36.6071C27.6512 37.3356 26.014 38.0641 24.3767 38.7926L24.1948 38.9747C23.1033 38.9747 22.1938 39.5211 21.2842 40.0675C21.1023 40.2496 20.7384 40.0675 20.3746 39.8853C20.5565 39.5211 20.7384 39.339 20.7384 39.1568C19.2831 39.7032 17.8278 40.2496 16.7363 41.5245C16.0086 41.8887 15.2809 42.6172 14.5533 43.1636C13.8256 43.5278 13.2799 44.0742 12.5522 44.4384C12.0065 44.8027 11.2788 44.9848 10.915 45.5312C9.64155 46.8061 7.64047 46.9882 6.36706 48.4452C6.36706 48.4452 6.18514 48.6273 6.00323 48.6273V47.8988C5.45748 48.0809 4.91173 48.2631 4.5479 48.9916C4.18407 49.9022 3.27449 50.2664 2.00108 50.2664C2.54682 49.7201 2.72874 49.1737 3.09257 48.8094C3.4564 48.4452 4.18407 48.2631 3.82024 47.3524C3.82024 47.3524 4.00215 47.1703 4.18407 46.9882C4.36598 46.8061 4.72982 46.4418 4.91173 46.0776C4.36598 46.4418 3.82024 46.9882 3.09257 47.3524C2.91066 46.9882 2.91066 46.8061 2.72874 46.4418C3.27449 45.7133 4.00215 44.9848 4.5479 44.0742C4.18407 44.0742 4.00215 43.8921 3.82024 43.8921C3.82024 43.8921 3.82024 43.5278 4.00215 43.3457C4.36598 42.9814 4.91173 42.6172 5.27557 42.253C5.45748 42.0708 5.82131 41.8887 6.00323 41.3423C6.18514 40.6138 6.91281 40.0675 7.45856 39.7032C8.0043 39.339 8.55005 38.7926 8.73197 38.2462C8.73197 38.0641 9.0958 37.6998 9.27772 37.6998C11.0969 37.1535 12.5522 35.8786 14.1895 34.7858C14.9171 34.2395 15.6448 33.6931 16.3724 33.1467C16.1905 33.1467 15.8267 33.1467 15.6448 33.3288C13.8256 34.0573 12.0065 34.4216 10.5511 35.6965C10.1873 35.8786 10.0054 36.2428 9.64155 36.425C8.36814 37.5177 7.09473 38.6105 5.82131 39.5211C5.6394 39.7032 5.27556 39.8853 5.09365 39.8853C4.72982 38.6105 6.00323 38.2462 6.73089 37.5177C6.00323 37.5177 5.6394 37.6998 5.27557 38.0641C4.72982 38.7926 4.18407 39.5211 3.63832 40.2496C3.27449 40.6138 3.09257 40.9781 2.72874 41.3423C1.81916 40.9781 2.36491 40.4317 2.36491 40.0675C2.91066 38.4283 4.18407 36.9713 5.09365 35.5143C5.09365 35.3322 5.27557 35.3322 5.27557 35.1501C5.82131 32.9646 7.45856 31.6897 8.91389 30.4148L9.0958 30.2327C9.45963 29.8685 9.27772 29.14 10.0054 28.9578C10.5511 28.7757 10.915 28.5936 11.6426 28.2293C11.4607 28.0472 11.2788 28.0472 10.915 27.8651C11.6426 27.3187 12.5522 27.3187 13.098 26.9545C12.5522 26.4081 12.5522 26.4081 12.0065 26.7723C10.1873 28.0472 8.18622 28.7757 6.73089 30.4148C5.45748 31.6897 3.82024 32.2361 2.18299 32.7825V31.8718C1.45533 32.2361 0.90958 32.4182 0.363832 32.7825C0.181916 32.6003 0.181916 32.2361 0 32.054C0.181916 32.054 0.181916 31.8718 0.363832 31.8718C1.63724 32.2361 2.00108 31.3255 2.72874 30.597C2.54682 29.14 3.63832 28.5936 4.18407 27.683C4.91173 26.7723 5.6394 25.8617 6.54898 25.3153C8.18622 24.0405 10.0054 22.7656 11.8245 21.4907C12.3703 21.1265 13.098 20.5801 13.4618 20.0337C13.098 20.2159 12.7341 20.398 12.3703 20.5801C11.4607 21.1265 10.3692 21.6729 9.45963 22.4014C8.73197 22.9477 8.18622 23.4941 7.45856 24.0405C6.91281 24.5868 6.36706 24.9511 5.82131 25.4975C4.5479 26.5902 3.27449 27.8651 2.00108 28.9578C2.00108 28.2293 2.36491 27.8651 2.72874 27.5008C4.91173 24.769 7.64047 22.7656 10.5511 21.1265C12.3703 20.0337 14.1895 18.7589 16.0086 17.6661C16.1905 16.7555 16.0086 16.3912 15.8267 15.8449C16.3724 15.2985 17.1001 14.9342 17.6459 14.3879C18.0097 14.2057 18.1916 14.0236 18.3735 13.8415Z" fill="black"/>
<path d="M101.509 275.919C101.509 275.555 101.509 275.373 101.327 275.191C101.145 275.008 101.145 275.008 100.963 275.008C100.963 275.008 100.963 275.191 100.781 275.191C100.963 275.373 101.145 275.555 101.509 275.919ZM43.4775 289.943C43.2956 289.761 43.1137 289.761 42.9318 289.761C42.7499 289.943 42.7498 290.125 42.7498 290.125L42.9318 290.307C43.1137 290.307 43.2956 290.125 43.4775 289.943ZM86.9554 261.713C86.5916 260.985 86.5916 260.985 86.0459 260.985C86.2278 261.167 86.5916 261.349 86.9554 261.713ZM68.2181 318.536C69.4915 319.083 70.2192 319.083 70.7649 318.536H68.2181ZM91.3214 262.624C91.3214 262.442 91.3214 262.442 91.5033 262.26C90.5938 261.895 89.6842 261.531 88.7746 261.167C88.7746 261.349 88.7746 261.349 88.5927 261.531C89.5023 261.895 90.4119 262.442 91.3214 262.624ZM40.5669 283.568C41.2945 283.022 41.6584 282.84 42.0222 282.476C42.386 282.111 42.386 281.747 42.0222 281.201C41.2945 281.747 40.9307 282.476 40.5669 283.568ZM81.1341 258.071C81.6799 259.164 82.5895 258.799 83.681 258.981C83.3171 258.071 82.4075 258.617 82.0437 257.889C82.5895 257.889 83.1352 258.071 83.681 258.071V257.889C83.1352 257.707 82.4075 257.342 81.8618 257.16V256.978C84.4086 257.524 87.1374 258.071 89.6842 258.981C91.6853 259.528 93.5044 260.256 95.3236 261.349C95.5055 261.349 95.6874 261.531 95.6874 261.531C96.0512 262.624 96.9608 262.988 97.6885 263.535C95.8693 263.17 94.414 261.895 92.4129 261.531C92.231 261.895 92.231 262.442 92.0491 262.806C92.231 262.988 92.4129 263.17 92.5948 263.17C93.5044 263.352 94.414 263.899 94.9598 264.627C95.8693 265.72 97.3247 266.084 98.4162 266.631C99.3257 266.995 100.235 267.359 101.327 267.906C101.509 267.723 101.873 267.359 102.418 267.177C103.328 267.359 104.237 267.723 105.147 267.906C105.329 267.906 105.329 267.906 105.511 268.088C105.875 268.634 106.057 268.998 106.602 269.727C104.237 269.545 102.054 268.998 99.8715 268.634C99.6896 269.18 100.053 269.363 100.235 269.545C100.781 269.727 101.327 269.727 101.873 269.909C103.146 270.455 104.237 270.455 105.511 270.82C105.875 271.002 106.42 271.184 106.784 271.366C106.239 272.459 106.057 272.459 105.147 271.73C104.965 271.548 104.783 271.548 104.601 271.366C103.692 270.82 103.692 270.82 102.964 271.912C103.51 272.641 104.965 271.548 104.965 273.187C104.783 273.187 104.419 273.369 104.237 273.369C103.51 273.187 102.782 273.187 102.054 273.551C101.873 273.551 101.509 273.551 101.327 273.369C100.963 273.187 100.781 273.005 100.417 273.005L100.235 273.187C100.417 273.369 100.417 273.551 100.599 273.551C101.509 273.734 101.691 274.462 101.509 275.008C101.327 275.919 101.873 276.648 101.509 277.558C101.509 277.74 101.509 278.105 101.691 278.287C102.418 279.197 102.418 280.29 102.6 281.201C102.782 281.747 102.782 282.293 103.146 282.658C103.692 283.386 103.874 284.297 103.874 285.207C103.874 285.936 103.51 286.847 103.146 287.575C102.782 288.85 102.418 289.943 102.054 291.218C102.418 291.764 102.782 291.946 102.964 292.31C102.6 292.492 102.418 292.675 102.054 293.039C101.509 294.132 101.691 295.406 102.236 296.681C101.691 297.046 101.327 297.228 100.963 297.592C100.235 298.138 100.235 298.503 100.963 299.049C101.145 299.231 101.145 299.231 101.509 299.595C101.145 299.413 100.963 299.413 100.781 299.413C100.417 299.231 100.235 299.231 99.8715 299.595C99.6896 299.777 99.6896 299.96 99.5077 300.142C98.9619 301.234 98.4162 302.509 98.0523 303.602C98.0523 303.784 98.0523 303.784 98.0523 303.966C98.4162 304.148 98.9619 304.513 99.3257 304.695C99.1438 305.241 98.9619 305.605 99.1438 305.97C99.3257 306.334 99.6896 306.516 100.053 306.88C100.417 307.062 100.963 307.245 101.145 307.609C100.781 307.973 100.417 307.609 100.053 307.609C99.5077 307.427 98.78 307.245 98.4162 307.973C98.2342 308.155 97.8704 308.337 97.5066 308.337C97.6885 309.43 98.9619 309.612 99.5077 310.341C100.053 311.069 100.781 311.433 101.691 312.162C101.145 312.162 100.781 312.162 100.417 312.162C100.417 312.162 100.417 312.344 100.235 312.344C101.327 313.437 103.328 313.801 103.692 315.622C103.51 315.622 103.51 315.804 103.328 315.804C102.782 316.169 102.6 316.169 102.964 316.715C103.328 317.079 103.692 317.444 103.328 318.172C102.6 318.354 101.873 318.172 101.145 317.808C100.599 317.626 99.8715 317.444 99.1438 317.808C99.3257 319.265 100.053 320.722 99.3257 322.179C98.2342 321.632 97.3247 321.086 96.2332 320.722C95.1417 320.358 94.0502 320.175 92.9587 319.993C92.4129 319.993 92.0491 320.175 91.5033 320.175C91.3214 320.175 91.1395 320.175 91.1395 320.175C90.2299 319.811 90.2299 319.811 89.8661 320.722C89.8661 320.722 89.8661 320.904 89.6842 320.904C88.9565 321.268 88.5927 320.722 88.4108 319.993C87.865 320.358 87.5012 320.358 86.9554 319.993C86.7735 319.811 86.4097 319.811 86.0459 319.629C85.3182 319.265 84.9544 319.447 84.4086 319.993C83.3171 321.086 81.6799 321.632 80.2245 321.815C79.1331 321.815 78.2235 321.632 77.3139 322.361C76.4043 321.997 75.4947 321.997 74.949 321.086C74.7671 320.904 74.5852 320.54 74.5852 320.175C73.4937 318.354 72.0383 318.354 70.9468 319.993C69.3096 320.175 67.4904 320.358 65.8532 320.54C64.9436 320.722 64.034 320.722 63.1244 321.086C62.7606 321.268 62.2149 320.904 61.851 320.904C61.4872 320.904 61.1234 321.268 60.7595 321.45C60.2138 321.632 59.668 321.632 59.1223 321.632C59.1223 321.632 59.1223 321.632 58.9404 321.632C57.4851 321.086 56.2116 321.814 54.5744 322.179C54.7563 321.814 54.7563 321.815 54.9382 321.632C56.3936 321.086 57.667 320.358 59.1223 319.993C60.7595 319.629 62.5787 319.447 64.3979 319.265C65.3074 319.083 66.0351 318.901 66.9447 318.718C62.5787 318.536 58.2127 319.629 53.8467 320.175C54.3925 319.083 55.8478 319.083 56.3936 318.172C54.5744 317.808 52.9371 318.718 52.0276 320.175C51.4818 320.904 51.118 321.632 50.9361 322.543C50.9361 322.907 50.3903 323.454 49.8446 324C49.6627 322.907 49.4807 322.179 49.2988 321.086C48.935 321.632 48.7531 321.814 48.5712 322.179C48.3892 322.179 48.2073 322.179 48.2073 321.997C48.2073 321.632 48.0254 321.45 48.0254 321.086C48.0254 320.722 48.2073 320.358 48.2073 319.993C48.2073 319.447 48.3892 318.901 47.4797 318.718C47.2978 318.718 47.1158 318.354 46.9339 318.172C46.5701 318.354 46.2063 318.536 45.8424 318.718C46.0243 318.354 46.0243 318.172 46.0243 317.99C46.3882 317.808 46.752 317.444 47.1158 317.261C47.8435 316.897 48.0254 316.351 47.6616 315.44C46.9339 316.169 46.3882 316.715 45.6605 317.444C45.2967 316.897 45.1148 316.533 44.7509 316.169C44.0233 316.533 43.4775 316.897 42.7498 317.079C41.8403 316.169 41.8403 316.169 40.7488 316.715C40.203 316.897 39.8392 317.261 39.2934 317.626C38.9296 316.715 38.9296 315.804 39.2934 314.894C39.4754 313.983 39.8392 313.255 40.203 312.344C38.5658 311.798 37.1105 313.073 35.6551 312.89C35.1094 311.798 36.7466 311.433 36.5647 310.341C36.3828 310.341 36.019 310.159 35.837 309.976C35.837 309.794 35.837 309.612 35.837 309.612C36.5647 308.519 37.2924 307.427 38.5658 307.062C39.2934 306.88 39.8392 306.334 40.0211 305.788C39.6573 305.241 39.1115 305.97 38.7477 305.788C38.9296 305.605 38.9296 305.241 39.1115 305.241C39.8392 304.877 40.3849 304.331 41.1126 303.784C42.0222 302.874 43.1137 302.327 44.2052 301.781C44.7509 301.417 44.7509 300.87 44.7509 300.324C44.569 299.231 44.569 298.32 44.7509 297.228C44.9328 296.681 44.7509 295.953 44.0233 295.953C43.8413 295.042 45.1148 294.86 44.569 293.949C44.2052 294.132 43.8413 294.314 43.2956 294.496C43.4775 293.585 43.4775 292.857 43.6594 291.946C43.1137 291.4 42.9318 291.764 42.5679 291.946C42.0222 292.128 41.6584 292.31 41.2945 291.764C41.4764 291.035 42.7498 291.4 42.5679 290.307C41.2945 290.489 40.3849 291.218 39.2934 291.764C38.9296 291.946 38.5658 291.946 38.3839 291.582C38.02 291.218 38.2019 290.671 38.7477 290.671C39.6573 290.489 39.8392 289.761 39.8392 288.85C39.8392 288.668 39.6573 288.304 39.6573 288.304C38.9296 288.121 38.9296 287.575 38.5658 286.847C39.4754 286.664 40.3849 287.211 41.1126 286.3C40.9307 286.118 40.7488 285.936 40.5669 285.936C40.203 285.936 39.8392 285.936 39.8392 285.572C39.8392 285.207 40.0211 285.025 40.3849 285.025C40.9307 284.843 41.2945 283.933 41.1126 283.568C40.5669 282.293 41.2945 281.565 42.0222 280.836C42.2041 280.654 42.5679 280.108 42.5679 279.926C42.386 279.197 41.8403 279.926 41.4764 279.926C41.2945 279.562 41.4764 279.197 41.8403 279.197C42.2041 279.015 42.5679 278.833 42.5679 278.469C42.5679 277.922 42.386 277.558 42.2041 277.012C42.0222 276.83 41.6584 276.83 41.2945 276.83C41.1126 276.83 40.7488 276.83 40.3849 276.83C40.7488 276.101 42.0222 276.101 41.4764 275.008C41.1126 275.008 40.7488 275.008 40.3849 275.008C40.5669 274.462 40.7488 273.916 40.9307 273.369C40.7488 273.005 40.5669 272.641 40.5669 272.277C40.203 271.184 39.6573 271.002 38.5658 271.002C38.02 271.002 37.4743 271.184 36.9285 271.184C36.9285 270.273 37.2924 270.091 37.8381 270.091C38.2019 270.091 38.7477 269.909 39.4754 269.727C38.9296 269.18 38.7477 268.998 38.3839 268.634C37.8381 268.998 37.2924 269.18 36.9285 269.545C36.019 270.273 36.019 270.273 35.1094 269.363C36.3828 268.816 37.8381 268.452 39.1115 267.906C38.3839 266.995 37.6562 267.723 36.9285 267.541C36.9285 266.813 37.1105 266.266 37.8381 265.902C38.3839 265.72 38.5658 265.174 38.7477 264.809C39.1115 263.899 39.4754 262.988 40.0211 262.078C40.7488 260.621 42.0222 259.892 43.4775 259.346C44.7509 258.981 46.2063 258.799 47.4797 258.435C48.2073 258.253 48.7531 258.071 49.1169 257.524C49.6627 256.796 50.2084 256.614 50.9361 256.796C51.6637 256.796 52.3914 256.796 53.1191 256.796C53.8467 256.796 54.5744 256.614 55.484 256.432C57.1212 256.25 58.7585 255.885 60.3957 256.25C61.4872 256.432 62.5787 256.432 63.6702 256.432C65.6713 256.614 67.6723 256.978 69.8553 256.978C70.7649 256.978 71.8564 256.796 72.766 256.796C73.6756 256.796 74.7671 256.796 75.8586 256.796C76.0405 256.796 76.0405 256.978 76.5862 257.16C75.3128 257.342 74.2213 257.342 73.1298 257.524V257.707C74.0394 257.524 74.949 258.435 76.0405 257.889C76.2224 257.889 76.4043 257.889 76.4043 258.071C77.4958 258.435 78.7692 258.981 79.8607 259.346C80.2246 259.528 80.7703 259.528 81.1341 259.164C80.4065 258.253 80.7703 258.253 81.1341 258.071Z" fill="black"/>
</svg>
