<svg width="232" height="194" viewBox="0 0 232 194" fill="none" xmlns="http://www.w3.org/2000/svg">
<path d="M200.726 21.2541C199.523 20.6511 198.771 20.0482 197.869 19.596C192.607 16.8827 187.194 14.6216 181.631 12.8127C169.903 8.89355 158.025 6.331 145.846 4.97436C137.275 4.06993 128.705 3.76845 120.135 4.37141C108.858 5.1251 97.7317 6.93396 86.7557 9.64724C71.1186 13.5664 56.534 19.8974 43.0019 28.4895C32.6273 34.9713 23.7563 43.1111 16.3889 52.9091C11.8782 58.9386 8.2696 65.5711 6.31497 72.9573C4.96176 77.9316 4.05962 83.0567 3.75891 88.1818C3.30784 94.965 3.90927 101.748 6.01426 108.23C10.3746 121.796 18.6442 132.197 30.5224 139.885C35.9352 143.352 41.6487 146.216 47.5126 148.628C54.7297 151.643 62.0972 153.451 69.7654 155.11C75.7797 156.315 81.9443 157.22 88.1089 157.521C93.9728 157.672 99.8367 157.521 105.701 157.521C107.204 157.521 108.708 157.521 110.211 157.672C111.113 157.672 111.564 158.275 111.865 159.029C112.016 159.933 112.166 160.838 112.467 161.742C113.369 165.963 114.421 170.334 115.323 174.555C115.925 177.72 116.526 180.735 117.278 183.901C117.278 184.202 117.579 184.504 118.03 185.106C118.331 184.202 118.631 183.75 118.782 183.147C119.383 181.037 119.984 179.077 120.436 176.967C121.488 172.143 123.593 167.772 125.848 163.4C126.299 162.345 127.202 161.742 128.404 161.441C130.66 160.988 132.915 160.385 135.02 159.782C142.087 157.672 149.304 155.411 156.22 152.698C166.896 148.477 176.819 142.598 186.292 136.117C191.404 132.8 195.764 128.58 200.275 124.51C203.282 121.796 206.289 119.083 208.995 116.219C218.618 105.818 224.633 93.4577 227.64 79.5898C228.542 75.3691 228.993 70.9977 228.542 66.4755C228.391 64.8174 228.391 63.0086 228.241 61.3504C227.94 57.1298 227.189 53.0598 225.986 48.9899C224.783 45.3722 223.58 41.6037 221.024 38.589C220.122 37.986 208.695 24.7211 200.726 21.2541ZM213.807 27.7358C218.167 31.8058 222.076 36.0264 225.384 41.0008C227.339 44.0155 228.843 47.3318 229.594 50.7988C230.045 52.7584 230.797 54.5672 231.098 56.5268C232.601 66.4755 232.451 76.1228 229.594 85.9208C227.489 92.8547 224.783 99.4872 221.174 105.818C218.167 111.245 214.408 116.219 209.898 120.44C204.635 125.414 199.222 130.238 193.809 135.061C192.306 136.418 190.652 137.624 188.998 138.83C180.428 144.709 171.557 150.135 162.084 154.356C155.92 157.069 149.454 159.33 142.989 161.29C139.23 162.496 135.321 163.551 131.562 164.757C130.96 164.908 130.509 165.209 130.058 165.36C129.908 165.661 129.758 165.812 129.758 165.963C126.901 174.253 124.044 182.695 121.037 190.985C120.736 191.739 120.436 192.643 119.984 193.397C119.533 194.151 118.932 194.301 118.18 194C116.827 193.699 115.774 192.794 115.173 191.437C114.572 189.93 113.97 188.423 113.519 186.765C112.767 183.448 112.016 180.283 111.414 176.967C110.362 171.992 109.459 167.018 108.407 162.044C108.407 161.893 108.257 161.742 108.106 161.441C107.204 160.988 106.152 161.139 105.25 161.139C101.942 161.139 98.6338 161.139 95.326 161.29C86.455 161.441 77.5839 160.536 68.8633 158.727C61.3454 157.069 53.8276 155.26 46.6105 152.246C40.5962 149.834 34.8827 146.97 29.3195 143.503C19.9974 137.775 12.6299 130.238 7.36747 120.591C2.55606 111.998 0 102.954 0 93.0055C0 82.303 1.95463 72.0528 6.46533 62.2549C9.3221 56.0746 13.2314 50.7988 17.5917 45.6737C25.2599 36.6294 34.4316 29.5447 44.5055 23.3644C57.1355 15.6768 70.6675 10.4009 84.801 6.78322C95.7771 4.06993 106.753 2.11033 118.03 1.35664C125.848 0.75369 133.667 1.05517 141.485 1.80886C152.311 2.71329 162.836 4.52214 173.211 7.53691C182.683 10.2502 191.704 13.7172 200.275 18.5408C200.575 18.6915 201.027 18.8423 201.478 19.1437C201.628 19.1437 213.506 27.4343 213.807 27.7358Z" fill="black"/>
<path d="M223.278 70.0932C222.977 70.9977 222.676 71.9021 222.225 72.6558C222.075 72.8065 221.924 72.9573 221.473 73.2587C221.323 72.8065 221.323 72.5051 221.323 72.2036C221.323 70.6962 221.173 69.1888 221.173 67.5307C221.173 65.4204 221.323 63.4608 221.323 61.3504C221.473 55.4716 220.27 49.8943 217.714 44.7692C217.564 44.317 217.113 43.8648 217.414 43.4126C217.714 42.9604 218.316 43.1111 218.917 43.7141C220.872 45.5229 222.075 47.9347 222.977 50.4973C223.879 53.2106 224.33 56.2253 224.33 59.0894C224.48 62.8578 224.18 66.6263 223.278 70.0932Z" fill="black"/>
<path d="M218.018 52.4568C219.22 56.5267 219.521 60.5967 219.07 64.6666C218.92 67.0784 218.018 69.3395 216.664 71.4498C216.664 71.6005 216.364 71.6005 216.364 71.7513C216.364 67.9828 216.514 64.0636 216.364 60.1444C216.213 56.8282 215.762 53.512 214.409 50.3465C213.958 49.442 214.108 48.6883 214.559 48.5376C215.311 48.2361 215.612 48.8391 216.063 49.1406C216.965 50.045 217.567 51.2509 218.018 52.4568Z" fill="black"/>
<path d="M213.806 63.1593C213.655 64.9681 213.354 66.777 212.753 68.4351C212.603 68.7366 212.603 69.038 212.001 69.1888C212.001 68.7366 211.851 68.4351 211.851 67.9829C211.851 66.3248 211.701 64.5159 211.701 62.8578C211.701 59.6923 211.4 56.6775 210.197 53.8135C210.047 53.3613 209.896 52.7583 210.648 52.4568C212.001 53.2105 212.603 54.7179 213.054 56.0746C213.806 58.4864 214.106 60.7474 213.806 63.1593Z" fill="black"/>
<path d="M108.559 184.202C108.86 185.559 109.01 186.915 108.258 188.423C107.056 187.367 106.605 186.162 106.304 185.106C105.101 180.886 103.898 176.665 102.695 172.444C102.545 171.841 102.395 171.088 102.395 170.485C102.395 169.882 102.545 169.279 103.146 168.977C103.748 168.827 103.898 169.43 104.048 169.731C105.853 174.404 107.507 179.228 108.559 184.202Z" fill="black"/>
<path d="M55.9336 12.2098C56.535 11.0039 57.4372 10.7024 58.1889 10.0994C61.3464 8.13984 64.8046 6.63246 68.2628 5.27582C73.5253 3.31622 78.7878 1.6581 84.351 0.301458C87.0574 -0.301495 88.7113 -0.301495 91.2674 0.301458C90.8163 0.602934 90.5156 1.05515 90.0645 1.20589C88.1099 1.80884 86.1552 2.56253 84.2006 3.01474C75.931 5.27582 67.6614 7.53689 59.8429 11.1546C58.9407 11.6068 57.8882 11.9083 56.9861 12.2098C56.9861 12.3605 56.535 12.2098 55.9336 12.2098Z" fill="black"/>
<path d="M26.9146 50.045C26.7642 50.9495 26.1628 51.4017 25.7118 51.8539C22.7046 55.0194 20.2989 58.6371 18.0436 62.4056C16.54 65.1189 15.4875 68.1336 14.5854 71.2991C13.8336 74.0124 13.0818 76.575 12.33 79.7405C11.4279 77.3286 11.2775 75.8213 11.5782 73.7109C12.0293 69.3395 13.5329 65.2696 15.6379 61.3504C17.1414 58.4864 19.0961 55.7731 21.2011 53.3613C22.4039 52.0046 23.7571 50.7987 25.2607 49.8943C25.7117 49.4421 26.3132 49.2914 26.9146 50.045Z" fill="black"/>
<path d="M24.5092 79.5897C24.3588 80.1927 24.2085 80.7956 24.0581 81.5493C23.3063 81.5493 23.4567 80.9464 23.3063 80.6449C23.156 80.3434 23.0056 80.042 23.0056 79.7405C22.8552 78.2331 22.7049 76.575 22.8552 75.0676C23.3063 71.4499 24.2085 67.9829 25.5617 64.6667C26.1631 63.31 26.7645 62.1041 27.817 61.0489C28.4184 60.446 28.5688 60.446 29.922 60.7475C29.922 61.0489 29.922 61.5012 29.7716 61.6519C27.6667 65.2696 26.9149 69.3395 26.0127 73.2587C25.261 75.3691 24.9602 77.4794 24.5092 79.5897Z" fill="black"/>
<path d="M19.3971 77.4793C19.2468 77.9316 19.0964 78.3838 18.7957 78.6852C18.1943 78.5345 18.1943 78.0823 18.1943 77.7808C17.8936 75.6705 17.8936 73.7109 18.1943 71.6006C18.7957 67.8321 20.1489 64.0636 21.9532 60.7474C22.4043 59.843 23.0057 59.0893 23.7575 58.1849C24.2085 57.5819 24.9603 57.1297 25.7121 57.5819C26.0128 58.0341 25.8625 58.3356 25.7121 58.7878C25.5618 59.24 25.261 59.5415 25.1107 59.843C23.0057 63.6114 21.3518 67.6814 20.6 72.0528C20.2993 73.8616 19.8482 75.6705 19.3971 77.4793Z" fill="black"/>
<path d="M75.0263 77.178C76.8306 69.4903 79.8377 62.4056 84.1981 56.2253C85.852 53.9643 87.5059 52.0047 89.3102 50.3466C89.3102 51.1003 89.3102 52.0047 89.1598 53.0598C88.8591 55.3209 88.2577 57.8835 87.0549 60.8982C84.7995 67.0785 81.4917 73.108 77.432 78.5346C76.3795 79.8912 75.3271 81.2479 74.2746 82.4538C74.2746 80.7957 74.5753 78.9868 75.0263 77.178ZM62.5468 82.7553C61.795 82.7553 60.8928 83.2075 60.4418 83.9612C59.9907 84.5641 59.8403 85.4685 59.8403 86.2222C59.9907 87.7296 60.1411 89.3877 60.4418 91.3473C60.5921 92.2518 60.7425 93.0055 60.8928 93.9099C60.8928 94.0606 60.8928 94.0606 60.8928 94.2114C58.7878 95.568 56.3821 96.7739 53.5254 96.7739C50.6686 96.7739 49.165 95.7187 48.4132 92.8547C47.9622 91.1966 47.9622 89.237 48.1125 86.9759C48.5636 82.0016 49.7665 77.0272 51.4204 71.6006C53.5254 65.2696 55.9311 60.1445 58.7878 55.6224C61.0432 52.3062 63.2985 49.5929 65.8546 47.3318C68.7114 44.7692 71.7185 43.1111 74.7256 42.2067C77.432 41.453 79.6874 41.1515 81.7924 41.6037C81.9427 41.6037 82.2434 41.7545 82.3938 41.7545C84.1981 42.2067 85.7016 42.9604 86.7541 44.1663C82.6945 47.1811 79.2363 51.251 76.0788 56.979C72.1696 63.7623 69.6135 70.8469 68.2603 78.0824C67.6589 81.5494 67.5085 84.7149 68.1099 87.5789C68.2603 88.3326 68.1099 88.634 67.5085 89.0863C67.0574 89.3877 66.7567 89.6892 66.3057 89.9907C66.0049 90.1414 65.8546 90.4429 65.5539 90.5936C65.4035 89.6892 65.2532 88.9355 64.9525 88.0311V85.9208C64.8021 85.4686 64.8021 85.0163 64.5014 84.4134C64.351 83.8104 63.5992 82.7553 62.5468 82.7553ZM166.894 119.686C164.188 124.058 160.579 127.524 155.918 130.389C153.813 131.745 151.558 132.8 149.302 133.403C147.799 133.855 146.446 134.006 145.092 133.856H144.792C144.641 133.856 144.491 133.856 144.341 133.856C143.89 133.705 143.138 133.554 142.837 133.253C142.536 132.8 142.687 132.197 142.687 131.594C142.837 130.69 143.288 129.786 144.04 128.73C145.243 126.771 146.897 125.263 148.25 123.907C150.205 122.098 152.46 120.44 155.317 118.782C159.376 116.219 164.037 113.807 169.149 111.546C169.3 111.546 169.3 111.546 169.45 111.396C169.45 111.546 169.45 111.697 169.45 111.848C169.3 114.561 168.548 117.124 166.894 119.686ZM156.369 92.8547L157.121 92.101C159.527 89.6892 162.083 87.1267 164.789 85.0163C165.391 84.5641 165.992 84.1119 166.593 83.6597C166.443 83.9612 166.142 84.2626 165.992 84.5641C164.639 86.373 162.835 88.1818 160.579 89.84C159.527 90.5936 158.474 91.4981 157.422 92.2518C156.82 92.704 156.068 93.3069 155.467 93.7591C155.617 93.6084 155.918 93.1562 156.369 92.8547ZM193.056 100.995C192.154 98.7335 190.199 99.035 189.598 99.1857C188.997 99.3365 188.545 99.3365 187.944 99.4872C187.042 99.6379 186.29 99.7887 185.388 99.9394C181.328 100.392 177.419 101.296 173.51 102.653C173.359 102.653 173.209 102.803 173.059 102.803C172.758 102.502 172.457 102.05 172.157 101.748C170.202 99.4872 168.849 98.1306 162.383 96.4724C164.789 94.6636 167.496 92.4025 169.901 89.6892C171.405 87.8804 172.608 86.0715 173.51 84.4134C174.262 82.906 174.713 81.5494 174.713 80.1927C174.713 78.8361 174.262 77.4794 173.359 76.7257C172.457 75.972 171.254 75.5198 169.901 75.8213C168.849 75.972 168.097 76.1228 167.345 76.575L167.044 76.7257C165.842 77.3287 164.488 77.9316 163.436 78.8361C160.73 80.7957 158.625 82.6045 156.82 84.2626C155.166 85.77 153.663 87.4281 152.009 88.9355C151.107 89.84 150.355 90.5936 149.453 91.4981C147.498 93.4577 145.694 95.1158 143.89 96.7739C142.536 98.1306 141.183 99.035 139.83 99.6379C139.379 99.7887 138.928 99.9394 138.326 100.09C138.176 99.4872 138.176 98.8843 138.176 98.432V98.1306C138.477 96.4724 138.777 94.8143 139.379 93.3069C141.183 88.3326 143.589 83.3582 145.844 78.6853C146.446 77.4794 147.047 76.2735 147.498 75.0676L147.648 74.9169C147.949 74.4647 148.1 73.8617 148.4 73.4095C148.851 72.3543 148.551 71.1484 147.648 70.244C146.746 69.3396 145.243 69.1888 144.19 69.7918C143.589 70.0933 143.138 70.6962 142.837 71.1484C142.536 71.6006 142.386 71.9021 142.085 72.3543C141.785 72.9573 141.334 73.4095 141.033 73.8617L140.882 74.0124C138.777 76.575 136.672 79.2883 134.417 81.8508C130.959 85.77 127.952 88.7848 124.794 91.0459C123.742 91.7996 122.689 92.5532 121.336 93.3069C120.885 93.6084 120.284 93.7591 119.682 93.9099C119.081 94.0606 118.93 93.7591 118.93 93.4577C118.78 92.2518 118.78 91.4981 118.78 90.8951C119.081 88.7848 119.532 86.5237 120.284 84.4134C121.486 80.3435 123.291 76.2735 125.546 71.9021C125.847 71.2992 126.148 70.5455 126.298 69.9425C126.448 69.1888 126.448 68.4351 125.997 67.6814C125.546 67.0785 124.794 66.6263 123.892 66.4755C121.938 66.3248 120.885 67.8322 120.584 68.4351C118.329 71.7514 116.074 74.9169 114.42 77.3287C112.014 80.7957 109.007 84.8656 105.549 88.634C104.797 89.3877 104.045 90.1414 102.842 91.1966C102.542 91.4981 102.241 91.6488 101.79 91.9503C101.639 91.6488 101.639 91.1966 101.639 90.8951C101.639 89.84 101.79 88.6341 102.09 87.4281C103.744 81.5494 106.3 76.575 109.608 72.3543C110.661 71.1484 111.563 69.7918 112.315 68.4351L112.465 68.1337C113.217 67.0785 113.518 65.8726 113.518 64.8174C113.518 63.913 113.067 63.0086 112.315 62.5563C110.661 61.5012 109.007 61.8027 107.804 63.4608C106.902 64.6667 105.849 66.1741 104.797 67.6814C102.542 71.4499 99.6848 74.7661 96.828 78.0824C94.272 80.9464 91.1145 84.4134 87.3556 87.1267C85.7016 88.3326 83.8974 89.5385 82.3938 90.4429C81.3413 91.0459 80.2888 91.4981 79.086 91.6488C77.7328 91.7995 76.6803 91.6488 75.9285 89.9907C76.2292 89.6892 76.5299 89.3877 76.8306 89.0863C79.2363 86.5237 81.4917 83.6597 83.5967 80.6449C88.1073 74.3139 91.8663 67.0785 95.1741 58.9386C96.2266 56.3761 97.1287 53.6628 97.5798 50.7988C97.7302 49.4421 97.7302 48.387 97.5798 47.4825C97.1287 44.0156 94.8734 42.9604 93.0691 42.5082H92.9188C91.2648 40.0964 89.4606 38.2875 87.2052 37.2323C84.7995 36.0264 82.2434 35.5742 79.537 35.5742C75.0263 35.725 70.8164 37.0816 66.3057 39.9456C62.3964 42.3574 59.0886 45.6737 55.9311 49.7436C52.7736 53.9643 50.2175 58.7879 47.8118 64.6667C45.1054 71.6006 43.3011 78.6853 42.399 85.77C41.9479 88.9355 42.0983 91.7996 42.6997 94.3621C44.0529 100.241 48.2629 103.406 54.2771 103.105C56.6828 102.954 59.0886 102.2 62.0957 100.844C62.246 100.693 62.5468 100.542 62.6971 100.542C62.6971 100.542 62.8475 100.542 62.8475 100.392C62.9978 100.693 63.1482 101.145 63.2985 101.447L63.7496 102.351C64.351 103.708 65.1028 105.215 65.7042 106.723C66.1553 107.476 66.6064 108.23 67.3582 108.984C67.8092 109.587 68.7114 109.888 69.6135 109.888C70.666 109.888 71.5681 109.436 72.0192 108.531C72.6206 107.627 72.6206 106.572 72.1696 105.517C72.0192 105.065 71.7185 104.763 71.5681 104.462C71.4178 104.311 71.4178 104.16 71.2674 104.009C70.0646 102.05 69.0121 99.7887 68.1099 97.0754L71.1171 94.6636C71.2674 94.8143 71.2674 94.8143 71.4178 94.9651C73.5228 97.3769 76.2292 98.432 79.6874 98.1306C81.191 97.9798 82.8449 97.5276 84.6491 96.6232C86.9045 95.568 89.0095 94.2114 90.9641 92.5532C92.4677 91.1966 93.9712 89.84 95.4748 88.634C95.1741 90.5936 95.1741 92.704 96.0762 94.8143C97.4294 97.9798 100.737 99.4872 103.895 98.2813C104.797 97.9798 105.699 97.3769 106.601 96.7739C107.804 95.7187 108.857 94.8143 109.759 93.9099C110.962 92.5532 112.014 91.1966 113.217 89.9907C112.916 92.2518 113.067 94.2114 113.668 95.8695C114.871 98.7335 117.427 100.392 120.584 100.09C122.238 99.9394 123.892 99.3365 125.396 98.432C127.05 97.3769 128.854 96.171 130.508 94.8143C131.711 93.7592 132.914 92.704 133.966 91.6488C133.365 93.3069 132.914 95.1158 132.613 97.0754C132.312 98.5828 132.463 100.09 132.763 101.447C133.515 104.612 135.62 106.421 138.928 106.421C139.529 106.421 140.582 106.27 141.634 105.969C142.987 105.366 144.19 104.914 145.393 104.009C147.498 102.502 149.302 100.995 150.956 99.4872C151.558 98.8842 152.31 98.2813 152.911 97.6783C152.61 98.432 152.61 99.3365 152.761 100.09C153.212 101.296 154.114 102.2 155.467 102.502C155.918 102.653 156.369 102.653 156.82 102.653C156.971 102.653 157.121 102.653 157.422 102.653C157.873 102.653 158.474 102.803 158.925 102.803C159.978 102.954 161.03 102.954 162.083 103.105C164.338 103.406 166.293 104.311 167.646 105.818C167.345 105.969 167.195 106.12 166.894 106.12C160.88 108.833 155.016 112.149 149.002 116.37C146.596 118.028 144.491 119.837 142.536 121.796C141.033 123.455 139.68 124.962 138.777 126.771C137.725 128.58 137.124 130.539 136.973 132.499C136.672 135.815 138.326 138.679 141.484 140.036C142.236 140.337 142.987 140.639 143.89 140.789C144.341 140.94 144.792 140.94 145.243 140.94C147.799 141.091 150.355 140.789 152.911 139.885C156.82 138.528 160.579 136.418 164.338 133.403C168.548 129.936 171.706 126.168 173.961 121.947C175.916 118.179 176.818 114.109 176.367 109.888C176.367 109.737 176.367 109.737 176.367 109.587C176.818 109.436 177.269 109.285 177.72 109.134C180.727 108.381 183.433 107.778 185.989 107.326C186.741 107.175 187.343 107.024 188.094 107.024C188.696 106.873 189.448 106.873 190.049 106.723C190.65 106.572 191.703 106.421 192.605 105.969C193.207 104.311 193.808 102.653 193.056 100.995Z" fill="black"/>
<g clip-path="url(#clip0_0_3369)">
<path d="M147.968 64.0597C148.1 64.194 148.231 64.194 148.231 64.3283C148.886 64.7313 149.542 65 150.198 65C150.854 65 151.509 64.7313 152.034 64.194C153.345 63.2537 153.87 61.9104 154.001 60.0298V59.8955V59.7612C153.87 58.6866 153.477 57.6119 152.69 56.9403C152.165 56.5373 151.509 56.1343 150.854 56C149.804 55.8657 148.231 56 146.919 57.8806C146.001 59.2239 145.739 60.8358 146.263 62.3134C146.657 63.2537 147.444 63.791 147.968 64.0597Z" fill="black"/>
</g>
<defs>
<clipPath id="clip0_0_3369">
<rect width="8" height="9" fill="white" transform="translate(146 56)"/>
</clipPath>
</defs>
</svg>
