<svg width="521" height="550" viewBox="0 0 521 550" fill="none" xmlns="http://www.w3.org/2000/svg">
<g clip-path="url(#clip0_0_2406)">
<path d="M514.534 62.8571C513.425 57.3109 512.501 51.2101 509.545 46.2185C506.959 41.7815 503.079 39.563 498.091 38.4538C494.211 37.5294 485.897 37.1597 487.006 31.4286C487.56 27.916 489.962 24.0336 491.44 20.7059C492.918 17.1933 494.396 13.8655 496.059 10.3529C496.428 9.61345 496.059 8.5042 495.32 8.31933C481.833 3.88235 467.792 4.2521 453.75 4.62185C438.601 4.9916 423.451 5.36134 408.117 5.54622C377.633 6.10084 347.333 6.28572 316.849 6.28572C255.696 6.28572 194.544 5.36134 133.391 3.88235C116.394 3.32773 99.2117 2.95798 82.0298 2.40336C64.8479 1.84874 47.666 0.739496 30.484 0C29.1908 0 29.3755 1.84874 30.6688 2.03361C46.1879 2.77311 61.7071 3.14286 77.2262 3.69748C92.3759 4.43698 107.526 4.9916 122.675 5.54622C152.79 6.65546 182.904 7.39496 212.834 7.94958C273.433 9.2437 334.216 9.2437 394.999 8.5042C411.996 8.31933 428.994 7.94958 445.991 7.57983C461.51 7.21008 477.583 6.10084 492.548 10.5378C489.962 16.2689 487.375 22 484.973 27.916C483.495 31.6134 483.495 35.6807 487.19 38.084C490.516 40.4874 495.135 40.6723 499.015 41.7815C504.003 43.2605 506.959 46.7731 508.622 51.5798C510.654 57.1261 511.393 63.2269 512.317 68.958C513.425 75.6134 514.349 82.084 515.088 88.7395C516.751 102.42 517.49 116.286 517.859 130.151C518.044 143.832 517.49 157.513 516.381 171.008C515.827 177.664 515.457 184.689 513.795 191.16C512.317 196.891 509.361 201.513 506.405 206.319C503.818 210.571 501.047 215.378 501.047 220.555C501.047 225.361 503.264 229.613 506.035 233.496C509.176 238.118 512.686 242.555 513.425 248.471C514.349 254.756 513.24 261.597 512.686 267.882C510.1 299.311 507.144 330.555 503.633 361.798C503.633 362.353 503.818 362.723 504.003 363.092C504.188 371.597 504.372 380.101 504.372 388.42C504.188 397.294 504.188 406.168 504.003 414.857C503.633 432.975 502.894 451.092 501.971 469.21C501.047 487.143 500.123 505.076 498.645 522.824C498.276 527.076 498.46 531.882 497.352 535.95C496.243 540.202 492.363 541.126 488.484 541.496C479.431 542.42 470.193 542.235 460.956 541.496C443.589 540.202 426.222 537.429 408.856 537.244C391.674 536.874 374.677 538.168 357.679 539.647C339.943 541.126 322.207 542.79 304.286 542.975C286.55 543.16 268.999 542.42 251.447 541.866C233.896 541.126 216.344 540.571 198.793 541.126C181.611 541.496 164.614 542.605 147.617 543.529C112.883 545.563 77.9652 547.412 43.4167 542.975C39.1674 542.42 34.9181 541.681 30.6688 540.941C28.8213 540.571 26.9738 540.202 24.9415 539.832C23.094 539.462 20.6922 539.277 19.0294 538.168C17.1819 536.874 16.9972 534.656 16.8124 532.622C16.4429 530.403 16.0734 528 15.7039 525.782C14.9649 521.345 14.4106 516.908 13.8564 512.655C11.0851 493.798 9.05284 474.202 7.39007 454.605C4.61879 419.479 3.32553 384.353 3.14078 349.042C2.77128 313.546 3.32553 277.866 4.06454 242.37C4.80355 207.059 5.54255 171.563 5.91206 136.252C5.91206 127.748 6.09681 119.059 6.09681 110.555C6.09681 108.521 2.95603 108.151 2.95603 110.37C2.95603 146.79 2.21702 183.025 1.47801 219.445C0.739007 255.866 0 292.471 0 329.261C0 365.496 0.923759 401.731 3.14078 437.966C4.24929 455.16 5.54255 472.353 7.39007 489.361C8.31383 498.42 9.42234 507.479 10.7156 516.353C11.2699 520.79 12.0089 525.227 12.5631 529.664C13.1174 533.177 13.1174 537.613 15.3344 540.387C17.3667 542.975 21.0617 543.529 24.0177 544.084C28.4518 545.008 32.8858 545.748 37.3199 546.487C46.0032 547.782 54.8713 548.706 63.5546 549.261C81.106 550.37 98.8422 550.185 116.578 549.63C152.235 548.151 187.708 544.824 223.18 545.563C259.392 546.303 295.603 548.891 331.814 546.303C349.92 545.008 367.841 543.16 385.946 542.235C404.237 541.311 422.158 542.235 440.263 544.084C449.316 545.008 458.184 545.933 467.237 546.303C471.671 546.487 476.105 546.487 480.539 546.303C484.419 546.118 488.299 545.933 492.179 545.008C494.95 544.269 497.352 542.975 498.83 540.387C500.677 537.059 500.493 532.622 500.677 528.74C501.416 519.681 501.971 510.437 502.525 501.378C504.742 464.403 506.22 427.059 505.481 389.899C505.296 381.21 505.481 372.521 505.481 364.017C506.035 363.832 506.405 363.462 506.589 362.723C509.73 335.176 512.317 307.63 514.718 279.899C515.273 273.059 515.827 266.219 516.381 259.193C516.751 253.462 516.751 247.731 514.534 242.37C512.501 237.563 508.991 233.866 506.405 229.429C503.449 224.437 503.264 219.261 505.85 213.899C508.067 209.092 511.578 205.025 513.795 200.219C516.381 195.042 517.305 189.496 518.044 183.765C519.707 170.269 520.446 156.773 520.815 143.092C521.37 116.101 519.152 89.1093 514.534 62.8571Z" fill="black"/>
</g>
<defs>
<clipPath id="clip0_0_2406">
<rect width="521" height="550" fill="white"/>
</clipPath>
</defs>
</svg>
