<svg width="97" height="534" viewBox="0 0 97 534" fill="none" xmlns="http://www.w3.org/2000/svg">
<g clip-path="url(#clip0_0_2399)">
<path d="M79.1415 40.6284C78.2016 39.876 77.0737 40.2522 76.1337 39.6879C74.8178 39.1237 72.938 38.9356 71.0582 39.1237C71.4341 27.838 71.8101 16.5523 71.2461 5.26666C71.0582 2.25715 66.9225 1.88096 66.5465 4.89047C65.7946 16.3642 65.6066 28.0261 65.4186 39.4998C62.9748 39.4998 60.531 39.4998 58.0872 39.6879C51.8837 39.876 45.4923 40.0641 39.2888 40.8165C34.0252 41.3808 28.5737 41.9451 23.3101 42.6974C23.4981 36.6784 23.6861 30.8475 23.874 24.8285C24.062 17.1166 23.874 9.40473 24.25 1.88096C24.438 -0.376175 20.8663 -0.564269 20.8663 1.69286C20.4903 9.59283 19.5504 17.3047 19.3624 25.2047C19.1744 31.2237 18.9864 37.2427 18.7985 43.2617C18.7985 43.2617 18.7985 43.2617 18.6105 43.2617C15.7907 43.6379 13.1589 44.0141 10.3392 44.5784C6.95544 45.1427 3.94769 46.2712 0.75195 47.0236C-0.93991 47.3998 -0.187972 49.845 1.3159 49.845C4.88761 49.845 8.45931 50.2212 12.031 50.0331C14.2868 49.845 16.3547 49.845 18.6105 49.6569C18.4225 63.9521 17.8585 78.2473 17.8585 92.5425C17.8585 96.1163 23.3101 95.552 23.3101 91.9782C23.1221 77.8711 22.7461 63.5759 23.1221 49.4688C28.7616 49.2807 34.5892 49.0927 40.2287 48.9046C46.2442 48.9046 52.4477 48.5284 58.4632 48.5284C60.531 48.5284 62.7868 48.5284 64.8547 48.5284C64.6667 54.7355 64.2907 60.9426 64.1027 67.1497C63.9147 70.7235 63.9147 74.4854 63.5388 78.0592C63.1628 81.8211 62.5988 85.7711 63.1628 89.533C63.7268 92.9187 69.9303 93.671 70.3062 89.9091C71.2461 82.3854 70.4942 74.4854 70.4942 66.7735C70.4942 60.7545 70.4942 54.5474 70.4942 48.5284C72.938 48.5284 75.1938 48.5284 77.4496 47.9641C79.3295 47.3998 80.2694 44.9546 79.8934 43.0736C80.4574 41.9451 79.8934 41.1927 79.1415 40.6284Z" fill="black"/>
<path d="M43.4244 127.34C47.3721 125.835 53.0116 125.835 55.2675 130.161C56.5834 132.418 56.7713 135.24 56.9593 138.061C55.0795 138.061 53.1996 138.249 51.3198 138.249C46.9961 138.437 42.6725 138.626 38.1609 139.002C35.5291 139.19 32.7093 139.378 30.0775 139.566C33.2733 134.111 37.5969 129.597 43.4244 127.34ZM69.5543 168.721C62.2229 172.859 54.3275 175.304 46.0562 175.304C42.1086 175.304 38.1609 174.74 34.4012 173.799C30.0775 172.671 27.2578 170.602 26.3179 166.087C25.002 160.256 25.3779 153.485 27.2578 147.09C27.4458 147.09 27.6337 147.09 27.6337 147.09C31.5814 147.278 35.7171 147.278 39.6648 147.466C43.4244 147.654 47.1841 147.654 51.1318 147.842C54.8915 147.842 58.8392 148.406 62.4109 147.842C65.6066 147.466 68.4264 143.516 65.9826 140.507C62.4109 135.992 62.2229 129.785 58.2752 125.459C55.2675 122.261 50.7558 120.757 46.4322 121.133C37.4089 122.073 29.7016 129.597 25.5659 137.497C25.002 138.437 24.626 139.378 24.25 140.318C21.2423 140.507 18.4225 140.883 15.6027 142.011C13.7229 142.764 13.9109 145.209 15.7907 145.773C17.6706 146.526 19.7384 146.714 21.9942 146.902C20.4903 152.356 19.9264 157.999 20.3023 163.642C20.4903 168.721 21.6182 173.799 25.5659 177.185C29.5136 180.383 34.5892 181.699 39.2888 182.452C50.9438 184.333 63.1628 181.511 72.75 174.928C76.1337 172.671 73.126 166.84 69.5543 168.721Z" fill="black"/>
<path d="M50.3798 384.089C50.0039 385.405 49.4399 386.91 48.688 388.039C48.312 388.791 46.8081 391.236 45.8682 391.424C43.2364 391.989 40.7926 384.089 40.4167 382.208C37.4089 369.417 43.6124 355.31 49.4399 343.837C50.0039 350.232 50.3798 356.627 50.9438 363.022C51.5078 369.794 52.4477 377.317 50.3798 384.089ZM64.8547 293.427C62.7868 302.644 58.8391 310.92 54.5155 319.008C53.9516 309.415 53.5756 299.822 53.1996 290.418C53.0116 284.399 52.8236 278.568 52.6357 272.549C52.4477 265.213 51.5078 258.066 51.1318 250.73C50.9438 248.097 46.8081 248.285 46.6202 250.918C46.2442 260.511 45.6802 270.104 45.8682 279.696C46.0562 289.101 46.4322 298.506 46.9961 307.911C47.3721 315.434 47.936 322.958 48.312 330.482C46.8081 333.303 45.1163 336.125 43.8004 338.946C36.845 352.489 29.1376 368.853 33.0853 384.465C34.5891 390.672 40.4167 401.77 48.312 398.384C54.8915 395.563 57.7112 387.098 58.6512 380.327C59.5911 372.051 58.2752 363.586 57.5233 355.498C56.7713 347.787 56.2074 340.075 55.6434 332.363C62.2229 320.325 68.8023 308.099 71.8101 294.556C72.562 290.23 65.7946 289.101 64.8547 293.427Z" fill="black"/>
<path d="M47.5601 222.704C47.748 222.704 47.748 222.516 47.936 222.516C47.936 222.516 47.936 222.516 48.124 222.328C48.312 222.139 48.688 222.139 48.876 221.951C49.0639 221.763 49.4399 221.575 49.6279 221.199C49.8159 220.823 50.0039 220.635 50.1918 220.259C50.1918 220.259 50.1918 220.259 50.1918 220.07C50.3798 219.694 50.3798 219.506 50.3798 219.13C50.3798 218.754 50.3798 218.378 50.3798 218.001C50.3798 217.625 50.1918 217.249 50.0039 217.061C50.0039 216.873 49.8159 216.685 49.6279 216.497C49.4399 216.309 49.4399 216.12 49.2519 215.932C49.0639 215.744 49.0639 215.744 48.876 215.556C48.688 215.368 48.688 215.368 48.5 215.18C48.124 214.992 47.748 214.804 47.3721 214.616C46.9961 214.428 46.8081 214.428 46.4322 214.428C46.0562 214.428 45.6802 214.428 45.3042 214.428C44.9283 214.616 44.5523 214.616 44.1763 214.804C43.8004 214.992 43.6124 215.18 43.2364 215.368C42.8604 215.744 42.4845 216.12 42.2965 216.685C41.9205 217.249 41.9205 217.625 41.7325 218.19C43.4244 219.694 44.9283 221.387 46.6201 222.892C47.1841 222.704 47.3721 222.704 47.5601 222.704Z" fill="black"/>
<path d="M94.1802 468.167C89.1046 466.474 82.9012 467.226 77.6376 467.226C72.562 467.038 67.2984 467.038 62.2229 466.85C59.0271 466.85 55.8314 466.85 52.4477 466.662C52.4477 463.277 52.6357 459.891 52.6357 456.505C52.6357 450.862 52.0717 445.408 51.5077 439.765C51.3198 437.508 48.124 437.32 47.936 439.765C47.7481 442.962 46.9961 446.16 46.8081 449.546C46.6201 452.555 46.6201 455.565 46.6201 458.574C46.6201 461.207 46.6201 464.029 46.6201 466.662C45.8682 466.662 45.3043 466.662 44.5523 466.662C41.5446 466.662 38.5368 466.662 35.5291 466.85C32.7093 467.038 30.2655 467.603 27.6337 467.979C25.7539 468.355 25.9419 471.365 27.6337 471.741C30.6415 472.305 33.2732 473.246 36.281 473.622C38.9128 473.998 41.7326 474.186 44.3643 474.374C45.1163 474.374 45.8682 474.562 46.6201 474.562C46.6201 475.315 46.6201 476.067 46.6201 476.819C46.8081 487.729 46.0562 498.45 46.0562 509.36C46.2442 518.388 48.688 528.169 57.3353 532.495C64.8546 536.257 77.4496 532.495 76.5097 522.526C76.3217 519.329 71.9981 518.576 70.1182 520.833C68.2384 523.09 67.2984 525.348 64.1027 525.912C60.719 526.476 57.7112 524.219 55.8314 521.398C50.9438 514.25 51.8837 504.281 51.6957 496.005C51.6957 488.857 51.6957 481.898 51.8837 474.75C54.7035 474.938 57.3353 475.126 60.155 475.315C65.7946 475.691 71.4341 475.879 77.0736 476.255C79.7054 476.443 82.3372 476.443 84.781 476.631C87.4128 476.819 90.4205 477.384 93.0523 476.631C97.188 475.503 98.6919 469.672 94.1802 468.167Z" fill="black"/>
</g>
<defs>
<clipPath id="clip0_0_2399">
<rect width="97" height="534" fill="white"/>
</clipPath>
</defs>
</svg>
