<svg width="555" height="80" viewBox="0 0 555 80" fill="none" xmlns="http://www.w3.org/2000/svg">
<path d="M0 0H515C537.091 0 555 17.9086 555 40C555 62.0914 537.091 80 515 80H40C17.9086 80 0 62.0914 0 40V0Z" fill="black"/>
<path d="M40.3312 34.256H45.0652C45.7252 34.256 46.3492 34.316 46.9372 34.436C47.5252 34.556 48.0352 34.766 48.4672 35.066C48.9112 35.354 49.2592 35.75 49.5112 36.254C49.7752 36.746 49.9072 37.37 49.9072 38.126C49.9072 38.87 49.7872 39.494 49.5472 39.998C49.3072 40.502 48.9772 40.904 48.5572 41.204C48.1372 41.504 47.6392 41.72 47.0632 41.852C46.4872 41.972 45.8632 42.032 45.1912 42.032H43.1392V47H40.3312V34.256ZM43.1392 39.656H45.0112C45.2632 39.656 45.5032 39.632 45.7312 39.584C45.9712 39.536 46.1812 39.458 46.3612 39.35C46.5532 39.23 46.7032 39.074 46.8112 38.882C46.9312 38.678 46.9912 38.426 46.9912 38.126C46.9912 37.802 46.9132 37.544 46.7572 37.352C46.6132 37.148 46.4212 36.992 46.1812 36.884C45.9532 36.776 45.6952 36.71 45.4072 36.686C45.1192 36.65 44.8432 36.632 44.5792 36.632H43.1392V39.656ZM51.669 34.256H56.601C57.249 34.256 57.861 34.322 58.437 34.454C59.025 34.574 59.535 34.784 59.967 35.084C60.411 35.372 60.759 35.768 61.011 36.272C61.275 36.764 61.407 37.382 61.407 38.126C61.407 39.026 61.173 39.794 60.705 40.43C60.237 41.054 59.553 41.45 58.653 41.618L61.893 47H58.527L55.863 41.906H54.477V47H51.669V34.256ZM54.477 39.53H56.133C56.385 39.53 56.649 39.524 56.925 39.512C57.213 39.488 57.471 39.434 57.699 39.35C57.927 39.254 58.113 39.11 58.257 38.918C58.413 38.726 58.491 38.456 58.491 38.108C58.491 37.784 58.425 37.526 58.293 37.334C58.161 37.142 57.993 36.998 57.789 36.902C57.585 36.794 57.351 36.722 57.087 36.686C56.823 36.65 56.565 36.632 56.313 36.632H54.477V39.53ZM67.5349 34.256H69.8569L75.4009 47H72.2329L71.1349 44.3H66.1849L65.1229 47H62.0269L67.5349 34.256ZM68.6149 37.964L67.0669 41.924H70.1809L68.6149 37.964ZM74.8937 34.256H77.9537L79.9877 42.428H80.0237L82.6877 34.256H85.2977L87.9437 42.644H87.9797L90.1217 34.256H92.9657L89.2397 47H86.7377L83.9297 38.18H83.8937L81.0857 47H78.6737L74.8937 34.256ZM94.1897 34.256H96.9977V47H94.1897V34.256ZM99.5519 34.256H103.764C104.784 34.256 105.75 34.37 106.662 34.598C107.586 34.826 108.39 35.198 109.074 35.714C109.758 36.218 110.298 36.878 110.694 37.694C111.102 38.51 111.306 39.5 111.306 40.664C111.306 41.696 111.108 42.608 110.712 43.4C110.328 44.18 109.806 44.84 109.146 45.38C108.486 45.908 107.724 46.31 106.86 46.586C105.996 46.862 105.09 47 104.142 47H99.5519V34.256ZM102.36 44.408H103.818C104.466 44.408 105.066 44.342 105.618 44.21C106.182 44.078 106.668 43.862 107.076 43.562C107.484 43.25 107.802 42.848 108.03 42.356C108.27 41.852 108.39 41.24 108.39 40.52C108.39 39.896 108.27 39.356 108.03 38.9C107.802 38.432 107.49 38.048 107.094 37.748C106.698 37.448 106.23 37.226 105.69 37.082C105.162 36.926 104.604 36.848 104.016 36.848H102.36V44.408ZM113.318 44.12L112.238 45.056V42.68L113.318 41.744V34.256H116.126V39.314L119.906 35.984V38.324L116.126 41.636V44.408H121.328V47H113.318V44.12ZM122.194 40.628C122.194 39.608 122.362 38.684 122.698 37.856C123.046 37.028 123.526 36.326 124.138 35.75C124.75 35.162 125.476 34.712 126.316 34.4C127.156 34.088 128.074 33.932 129.07 33.932C130.066 33.932 130.984 34.088 131.824 34.4C132.664 34.712 133.39 35.162 134.002 35.75C134.614 36.326 135.088 37.028 135.424 37.856C135.772 38.684 135.946 39.608 135.946 40.628C135.946 41.648 135.772 42.572 135.424 43.4C135.088 44.228 134.614 44.936 134.002 45.524C133.39 46.1 132.664 46.544 131.824 46.856C130.984 47.168 130.066 47.324 129.07 47.324C128.074 47.324 127.156 47.168 126.316 46.856C125.476 46.544 124.75 46.1 124.138 45.524C123.526 44.936 123.046 44.228 122.698 43.4C122.362 42.572 122.194 41.648 122.194 40.628ZM125.11 40.628C125.11 41.228 125.2 41.78 125.38 42.284C125.572 42.776 125.842 43.208 126.19 43.58C126.538 43.94 126.952 44.222 127.432 44.426C127.924 44.63 128.47 44.732 129.07 44.732C129.67 44.732 130.21 44.63 130.69 44.426C131.182 44.222 131.602 43.94 131.95 43.58C132.298 43.208 132.562 42.776 132.742 42.284C132.934 41.78 133.03 41.228 133.03 40.628C133.03 40.04 132.934 39.494 132.742 38.99C132.562 38.486 132.298 38.054 131.95 37.694C131.602 37.322 131.182 37.034 130.69 36.83C130.21 36.626 129.67 36.524 129.07 36.524C128.47 36.524 127.924 36.626 127.432 36.83C126.952 37.034 126.538 37.322 126.19 37.694C125.842 38.054 125.572 38.486 125.38 38.99C125.2 39.494 125.11 40.04 125.11 40.628ZM136.523 34.256H139.583L141.617 42.428H141.653L144.317 34.256H146.927L149.573 42.644H149.609L151.751 34.256H154.595L150.869 47H148.367L145.559 38.18H145.523L142.715 47H140.303L136.523 34.256ZM155.963 34.256H164.621V36.848H158.771V39.224H164.297V41.816H158.771V44.408H164.945V47H155.963V34.256ZM171.835 40.628C171.835 39.608 172.003 38.684 172.339 37.856C172.687 37.028 173.167 36.326 173.779 35.75C174.391 35.162 175.117 34.712 175.957 34.4C176.797 34.088 177.715 33.932 178.711 33.932C179.707 33.932 180.625 34.088 181.465 34.4C182.305 34.712 183.031 35.162 183.643 35.75C184.255 36.326 184.729 37.028 185.065 37.856C185.413 38.684 185.587 39.608 185.587 40.628C185.587 41.648 185.413 42.572 185.065 43.4C184.729 44.228 184.255 44.936 183.643 45.524C183.031 46.1 182.305 46.544 181.465 46.856C180.625 47.168 179.707 47.324 178.711 47.324C177.715 47.324 176.797 47.168 175.957 46.856C175.117 46.544 174.391 46.1 173.779 45.524C173.167 44.936 172.687 44.228 172.339 43.4C172.003 42.572 171.835 41.648 171.835 40.628ZM174.751 40.628C174.751 41.228 174.841 41.78 175.021 42.284C175.213 42.776 175.483 43.208 175.831 43.58C176.179 43.94 176.593 44.222 177.073 44.426C177.565 44.63 178.111 44.732 178.711 44.732C179.311 44.732 179.851 44.63 180.331 44.426C180.823 44.222 181.243 43.94 181.591 43.58C181.939 43.208 182.203 42.776 182.383 42.284C182.575 41.78 182.671 41.228 182.671 40.628C182.671 40.04 182.575 39.494 182.383 38.99C182.203 38.486 181.939 38.054 181.591 37.694C181.243 37.322 180.823 37.034 180.331 36.83C179.851 36.626 179.311 36.524 178.711 36.524C178.111 36.524 177.565 36.626 177.073 36.83C176.593 37.034 176.179 37.322 175.831 37.694C175.483 38.054 175.213 38.486 175.021 38.99C174.841 39.494 174.751 40.04 174.751 40.628ZM187.495 34.256H191.707C192.727 34.256 193.693 34.37 194.605 34.598C195.529 34.826 196.333 35.198 197.017 35.714C197.701 36.218 198.241 36.878 198.637 37.694C199.045 38.51 199.249 39.5 199.249 40.664C199.249 41.696 199.051 42.608 198.655 43.4C198.271 44.18 197.749 44.84 197.089 45.38C196.429 45.908 195.667 46.31 194.803 46.586C193.939 46.862 193.033 47 192.085 47H187.495V34.256ZM190.303 44.408H191.761C192.409 44.408 193.009 44.342 193.561 44.21C194.125 44.078 194.611 43.862 195.019 43.562C195.427 43.25 195.745 42.848 195.973 42.356C196.213 41.852 196.333 41.24 196.333 40.52C196.333 39.896 196.213 39.356 195.973 38.9C195.745 38.432 195.433 38.048 195.037 37.748C194.641 37.448 194.173 37.226 193.633 37.082C193.105 36.926 192.547 36.848 191.959 36.848H190.303V44.408ZM201.153 34.256H205.887C206.547 34.256 207.171 34.316 207.759 34.436C208.347 34.556 208.857 34.766 209.289 35.066C209.733 35.354 210.081 35.75 210.333 36.254C210.597 36.746 210.729 37.37 210.729 38.126C210.729 38.87 210.609 39.494 210.369 39.998C210.129 40.502 209.799 40.904 209.379 41.204C208.959 41.504 208.461 41.72 207.885 41.852C207.309 41.972 206.685 42.032 206.013 42.032H203.961V47H201.153V34.256ZM203.961 39.656H205.833C206.085 39.656 206.325 39.632 206.553 39.584C206.793 39.536 207.003 39.458 207.183 39.35C207.375 39.23 207.525 39.074 207.633 38.882C207.753 38.678 207.813 38.426 207.813 38.126C207.813 37.802 207.735 37.544 207.579 37.352C207.435 37.148 207.243 36.992 207.003 36.884C206.775 36.776 206.517 36.71 206.229 36.686C205.941 36.65 205.665 36.632 205.401 36.632H203.961V39.656ZM211.807 40.628C211.807 39.608 211.975 38.684 212.311 37.856C212.659 37.028 213.139 36.326 213.751 35.75C214.363 35.162 215.089 34.712 215.929 34.4C216.769 34.088 217.687 33.932 218.683 33.932C219.679 33.932 220.597 34.088 221.437 34.4C222.277 34.712 223.003 35.162 223.615 35.75C224.227 36.326 224.701 37.028 225.037 37.856C225.385 38.684 225.559 39.608 225.559 40.628C225.559 41.648 225.385 42.572 225.037 43.4C224.701 44.228 224.227 44.936 223.615 45.524C223.003 46.1 222.277 46.544 221.437 46.856C220.597 47.168 219.679 47.324 218.683 47.324C217.687 47.324 216.769 47.168 215.929 46.856C215.089 46.544 214.363 46.1 213.751 45.524C213.139 44.936 212.659 44.228 212.311 43.4C211.975 42.572 211.807 41.648 211.807 40.628ZM214.723 40.628C214.723 41.228 214.813 41.78 214.993 42.284C215.185 42.776 215.455 43.208 215.803 43.58C216.151 43.94 216.565 44.222 217.045 44.426C217.537 44.63 218.083 44.732 218.683 44.732C219.283 44.732 219.823 44.63 220.303 44.426C220.795 44.222 221.215 43.94 221.563 43.58C221.911 43.208 222.175 42.776 222.355 42.284C222.547 41.78 222.643 41.228 222.643 40.628C222.643 40.04 222.547 39.494 222.355 38.99C222.175 38.486 221.911 38.054 221.563 37.694C221.215 37.322 220.795 37.034 220.303 36.83C219.823 36.626 219.283 36.524 218.683 36.524C218.083 36.524 217.537 36.626 217.045 36.83C216.565 37.034 216.151 37.322 215.803 37.694C215.455 38.054 215.185 38.486 214.993 38.99C214.813 39.494 214.723 40.04 214.723 40.628ZM226.136 34.256H229.196L231.23 42.428H231.266L233.93 34.256H236.54L239.186 42.644H239.222L241.364 34.256H244.208L240.482 47H237.98L235.172 38.18H235.136L232.328 47H229.916L226.136 34.256ZM245.432 34.256H248.24V47H245.432V34.256ZM250.902 34.256H259.56V36.848H253.71V39.224H259.236V41.816H253.71V44.408H259.884V47H250.902V34.256ZM262.132 34.256H266.344C267.364 34.256 268.33 34.37 269.242 34.598C270.166 34.826 270.97 35.198 271.654 35.714C272.338 36.218 272.878 36.878 273.274 37.694C273.682 38.51 273.886 39.5 273.886 40.664C273.886 41.696 273.688 42.608 273.292 43.4C272.908 44.18 272.386 44.84 271.726 45.38C271.066 45.908 270.304 46.31 269.44 46.586C268.576 46.862 267.67 47 266.722 47H262.132V34.256ZM264.94 44.408H266.398C267.046 44.408 267.646 44.342 268.198 44.21C268.762 44.078 269.248 43.862 269.656 43.562C270.064 43.25 270.382 42.848 270.61 42.356C270.85 41.852 270.97 41.24 270.97 40.52C270.97 39.896 270.85 39.356 270.61 38.9C270.382 38.432 270.07 38.048 269.674 37.748C269.278 37.448 268.81 37.226 268.27 37.082C267.742 36.926 267.184 36.848 266.596 36.848H264.94V44.408ZM275.124 44.408L281.586 36.74H275.358V34.256H284.988V36.74L278.652 44.408H285.204V47H275.124V44.408ZM287.092 34.256H289.9V47H287.092V34.256ZM297.096 44.3L301.632 40.412H297.204V38.252H304.764V40.844L300.012 44.84H304.872V47H297.096V44.3ZM314.718 45.488C314.286 46.04 313.74 46.466 313.08 46.766C312.42 47.066 311.736 47.216 311.028 47.216C310.356 47.216 309.72 47.108 309.12 46.892C308.532 46.676 308.016 46.37 307.572 45.974C307.14 45.566 306.798 45.08 306.546 44.516C306.294 43.952 306.168 43.322 306.168 42.626C306.168 41.93 306.294 41.3 306.546 40.736C306.798 40.172 307.14 39.692 307.572 39.296C308.016 38.888 308.532 38.576 309.12 38.36C309.72 38.144 310.356 38.036 311.028 38.036C311.652 38.036 312.216 38.144 312.72 38.36C313.236 38.576 313.668 38.888 314.016 39.296C314.376 39.692 314.652 40.172 314.844 40.736C315.036 41.3 315.132 41.93 315.132 42.626V43.472H308.868C308.976 43.988 309.21 44.402 309.57 44.714C309.93 45.014 310.374 45.164 310.902 45.164C311.346 45.164 311.718 45.068 312.018 44.876C312.33 44.672 312.6 44.414 312.828 44.102L314.718 45.488ZM312.432 41.636C312.444 41.18 312.294 40.79 311.982 40.466C311.67 40.142 311.268 39.98 310.776 39.98C310.476 39.98 310.212 40.028 309.984 40.124C309.756 40.22 309.558 40.346 309.39 40.502C309.234 40.646 309.108 40.82 309.012 41.024C308.928 41.216 308.88 41.42 308.868 41.636H312.432ZM327.05 40.826C326.654 40.334 326.132 40.088 325.484 40.088C325.256 40.088 325.034 40.142 324.818 40.25C324.602 40.358 324.494 40.544 324.494 40.808C324.494 41.024 324.602 41.186 324.818 41.294C325.046 41.39 325.328 41.48 325.664 41.564C326.012 41.636 326.378 41.72 326.762 41.816C327.158 41.9 327.524 42.038 327.86 42.23C328.208 42.422 328.49 42.686 328.706 43.022C328.934 43.346 329.048 43.784 329.048 44.336C329.048 44.9 328.922 45.368 328.67 45.74C328.43 46.1 328.118 46.394 327.734 46.622C327.35 46.838 326.918 46.988 326.438 47.072C325.958 47.168 325.484 47.216 325.016 47.216C324.404 47.216 323.786 47.132 323.162 46.964C322.538 46.784 322.01 46.472 321.578 46.028L323.216 44.21C323.468 44.522 323.744 44.762 324.044 44.93C324.356 45.086 324.716 45.164 325.124 45.164C325.436 45.164 325.718 45.122 325.97 45.038C326.222 44.942 326.348 44.774 326.348 44.534C326.348 44.306 326.234 44.138 326.006 44.03C325.79 43.91 325.508 43.814 325.16 43.742C324.824 43.658 324.458 43.574 324.062 43.49C323.678 43.394 323.312 43.256 322.964 43.076C322.628 42.896 322.346 42.644 322.118 42.32C321.902 41.984 321.794 41.54 321.794 40.988C321.794 40.472 321.896 40.028 322.1 39.656C322.316 39.284 322.592 38.978 322.928 38.738C323.276 38.498 323.672 38.324 324.116 38.216C324.56 38.096 325.01 38.036 325.466 38.036C326.042 38.036 326.624 38.12 327.212 38.288C327.8 38.456 328.298 38.756 328.706 39.188L327.05 40.826ZM336.391 40.412H334.015V43.328C334.015 43.568 334.027 43.79 334.051 43.994C334.075 44.186 334.129 44.354 334.213 44.498C334.297 44.642 334.423 44.756 334.591 44.84C334.771 44.912 335.005 44.948 335.293 44.948C335.437 44.948 335.623 44.936 335.851 44.912C336.091 44.876 336.271 44.804 336.391 44.696V46.946C336.091 47.054 335.779 47.126 335.455 47.162C335.131 47.198 334.813 47.216 334.501 47.216C334.045 47.216 333.625 47.168 333.241 47.072C332.857 46.976 332.521 46.826 332.233 46.622C331.945 46.406 331.717 46.13 331.549 45.794C331.393 45.458 331.315 45.05 331.315 44.57V40.412H329.587V38.252H331.315V35.66H334.015V38.252H336.391V40.412ZM337.763 38.252H340.463V39.656H340.499C340.787 39.116 341.129 38.714 341.525 38.45C341.921 38.174 342.419 38.036 343.019 38.036C343.175 38.036 343.331 38.042 343.487 38.054C343.643 38.066 343.787 38.09 343.919 38.126V40.592C343.727 40.532 343.535 40.49 343.343 40.466C343.163 40.43 342.971 40.412 342.767 40.412C342.251 40.412 341.843 40.484 341.543 40.628C341.243 40.772 341.009 40.976 340.841 41.24C340.685 41.492 340.583 41.798 340.535 42.158C340.487 42.518 340.463 42.914 340.463 43.346V47H337.763V38.252ZM344.452 42.626C344.452 41.93 344.578 41.3 344.83 40.736C345.082 40.172 345.424 39.692 345.856 39.296C346.3 38.888 346.816 38.576 347.404 38.36C348.004 38.144 348.64 38.036 349.312 38.036C349.984 38.036 350.614 38.144 351.202 38.36C351.802 38.576 352.318 38.888 352.75 39.296C353.194 39.692 353.542 40.172 353.794 40.736C354.046 41.3 354.172 41.93 354.172 42.626C354.172 43.322 354.046 43.952 353.794 44.516C353.542 45.08 353.194 45.566 352.75 45.974C352.318 46.37 351.802 46.676 351.202 46.892C350.614 47.108 349.984 47.216 349.312 47.216C348.64 47.216 348.004 47.108 347.404 46.892C346.816 46.676 346.3 46.37 345.856 45.974C345.424 45.566 345.082 45.08 344.83 44.516C344.578 43.952 344.452 43.322 344.452 42.626ZM347.152 42.626C347.152 43.286 347.338 43.82 347.71 44.228C348.094 44.636 348.628 44.84 349.312 44.84C349.996 44.84 350.524 44.636 350.896 44.228C351.28 43.82 351.472 43.286 351.472 42.626C351.472 41.966 351.28 41.432 350.896 41.024C350.524 40.616 349.996 40.412 349.312 40.412C348.628 40.412 348.094 40.616 347.71 41.024C347.338 41.432 347.152 41.966 347.152 42.626ZM355.763 38.252H358.355V39.44H358.391C358.475 39.272 358.595 39.104 358.751 38.936C358.907 38.768 359.093 38.618 359.309 38.486C359.525 38.354 359.771 38.246 360.047 38.162C360.323 38.078 360.623 38.036 360.947 38.036C361.631 38.036 362.183 38.144 362.603 38.36C363.023 38.564 363.347 38.852 363.575 39.224C363.815 39.596 363.977 40.034 364.061 40.538C364.145 41.042 364.187 41.588 364.187 42.176V47H361.487V42.716C361.487 42.464 361.475 42.206 361.451 41.942C361.439 41.666 361.385 41.414 361.289 41.186C361.205 40.958 361.067 40.772 360.875 40.628C360.695 40.484 360.431 40.412 360.083 40.412C359.735 40.412 359.453 40.478 359.237 40.61C359.021 40.73 358.853 40.898 358.733 41.114C358.625 41.318 358.553 41.552 358.517 41.816C358.481 42.08 358.463 42.356 358.463 42.644V47H355.763V38.252ZM371.139 48.422C370.959 48.89 370.785 49.304 370.617 49.664C370.449 50.024 370.233 50.324 369.969 50.564C369.717 50.816 369.393 51.002 368.997 51.122C368.601 51.254 368.079 51.32 367.431 51.32C366.735 51.32 366.063 51.212 365.415 50.996L365.775 48.782C366.183 48.962 366.603 49.052 367.035 49.052C367.335 49.052 367.581 49.016 367.773 48.944C367.965 48.884 368.121 48.788 368.241 48.656C368.373 48.536 368.481 48.386 368.565 48.206C368.649 48.026 368.739 47.816 368.835 47.576L369.033 47.072L365.199 38.252H368.115L370.365 44.03H370.401L372.327 38.252H375.099L371.139 48.422ZM381.355 44.138L386.305 39.692C386.557 39.464 386.809 39.206 387.061 38.918C387.313 38.63 387.439 38.294 387.439 37.91C387.439 37.478 387.283 37.142 386.971 36.902C386.659 36.65 386.293 36.524 385.873 36.524C385.369 36.524 384.973 36.68 384.685 36.992C384.409 37.304 384.253 37.688 384.217 38.144L381.517 37.946C381.553 37.286 381.691 36.716 381.931 36.236C382.171 35.744 382.489 35.336 382.885 35.012C383.281 34.688 383.743 34.448 384.271 34.292C384.811 34.124 385.393 34.04 386.017 34.04C386.593 34.04 387.133 34.124 387.637 34.292C388.141 34.448 388.579 34.688 388.951 35.012C389.323 35.324 389.611 35.72 389.815 36.2C390.031 36.68 390.139 37.238 390.139 37.874C390.139 38.282 390.097 38.654 390.013 38.99C389.929 39.314 389.809 39.614 389.653 39.89C389.509 40.154 389.335 40.4 389.131 40.628C388.927 40.856 388.705 41.078 388.465 41.294L384.595 44.624H390.247V47H381.355V44.138ZM395.013 39.278H395.895C396.147 39.278 396.393 39.26 396.633 39.224C396.873 39.188 397.089 39.122 397.281 39.026C397.485 38.918 397.647 38.774 397.767 38.594C397.887 38.402 397.947 38.156 397.947 37.856C397.947 37.472 397.791 37.154 397.479 36.902C397.179 36.65 396.807 36.524 396.363 36.524C395.943 36.524 395.595 36.638 395.319 36.866C395.043 37.094 394.863 37.376 394.779 37.712L391.809 37.1C391.953 36.548 392.169 36.08 392.457 35.696C392.745 35.3 393.087 34.982 393.483 34.742C393.879 34.502 394.317 34.328 394.797 34.22C395.289 34.1 395.805 34.04 396.345 34.04C396.909 34.04 397.449 34.112 397.965 34.256C398.493 34.388 398.955 34.604 399.351 34.904C399.747 35.192 400.059 35.558 400.287 36.002C400.527 36.446 400.647 36.974 400.647 37.586C400.647 38.294 400.461 38.9 400.089 39.404C399.717 39.908 399.177 40.232 398.469 40.376V40.43C398.853 40.478 399.189 40.592 399.477 40.772C399.777 40.952 400.029 41.174 400.233 41.438C400.437 41.702 400.593 42.002 400.701 42.338C400.809 42.674 400.863 43.028 400.863 43.4C400.863 44.036 400.737 44.594 400.485 45.074C400.245 45.554 399.915 45.956 399.495 46.28C399.087 46.592 398.601 46.826 398.037 46.982C397.485 47.138 396.897 47.216 396.273 47.216C395.133 47.216 394.149 46.952 393.321 46.424C392.505 45.896 391.965 45.062 391.701 43.922L394.545 43.256C394.641 43.712 394.833 44.072 395.121 44.336C395.421 44.6 395.859 44.732 396.435 44.732C397.023 44.732 397.455 44.582 397.731 44.282C398.019 43.97 398.163 43.574 398.163 43.094C398.163 42.734 398.085 42.458 397.929 42.266C397.785 42.062 397.593 41.912 397.353 41.816C397.113 41.72 396.843 41.666 396.543 41.654C396.243 41.63 395.943 41.618 395.643 41.618H395.013V39.278ZM414.016 40.412H411.64V43.328C411.64 43.568 411.652 43.79 411.676 43.994C411.7 44.186 411.754 44.354 411.838 44.498C411.922 44.642 412.048 44.756 412.216 44.84C412.396 44.912 412.63 44.948 412.918 44.948C413.062 44.948 413.248 44.936 413.476 44.912C413.716 44.876 413.896 44.804 414.016 44.696V46.946C413.716 47.054 413.404 47.126 413.08 47.162C412.756 47.198 412.438 47.216 412.126 47.216C411.67 47.216 411.25 47.168 410.866 47.072C410.482 46.976 410.146 46.826 409.858 46.622C409.57 46.406 409.342 46.13 409.174 45.794C409.018 45.458 408.94 45.05 408.94 44.57V40.412H407.212V38.252H408.94V35.66H411.64V38.252H414.016V40.412ZM415.064 42.626C415.064 41.93 415.19 41.3 415.442 40.736C415.694 40.172 416.036 39.692 416.468 39.296C416.912 38.888 417.428 38.576 418.016 38.36C418.616 38.144 419.252 38.036 419.924 38.036C420.596 38.036 421.226 38.144 421.814 38.36C422.414 38.576 422.93 38.888 423.362 39.296C423.806 39.692 424.154 40.172 424.406 40.736C424.658 41.3 424.784 41.93 424.784 42.626C424.784 43.322 424.658 43.952 424.406 44.516C424.154 45.08 423.806 45.566 423.362 45.974C422.93 46.37 422.414 46.676 421.814 46.892C421.226 47.108 420.596 47.216 419.924 47.216C419.252 47.216 418.616 47.108 418.016 46.892C417.428 46.676 416.912 46.37 416.468 45.974C416.036 45.566 415.694 45.08 415.442 44.516C415.19 43.952 415.064 43.322 415.064 42.626ZM417.764 42.626C417.764 43.286 417.95 43.82 418.322 44.228C418.706 44.636 419.24 44.84 419.924 44.84C420.608 44.84 421.136 44.636 421.508 44.228C421.892 43.82 422.084 43.286 422.084 42.626C422.084 41.966 421.892 41.432 421.508 41.024C421.136 40.616 420.608 40.412 419.924 40.412C419.24 40.412 418.706 40.616 418.322 41.024C417.95 41.432 417.764 41.966 417.764 42.626ZM426.428 45.452C426.428 45.224 426.47 45.008 426.554 44.804C426.638 44.6 426.752 44.426 426.896 44.282C427.052 44.126 427.232 44.006 427.436 43.922C427.64 43.838 427.856 43.796 428.084 43.796C428.312 43.796 428.528 43.838 428.732 43.922C428.936 44.006 429.11 44.126 429.254 44.282C429.41 44.426 429.53 44.6 429.614 44.804C429.698 45.008 429.74 45.224 429.74 45.452C429.74 45.68 429.698 45.896 429.614 46.1C429.53 46.304 429.41 46.484 429.254 46.64C429.11 46.784 428.936 46.898 428.732 46.982C428.528 47.066 428.312 47.108 428.084 47.108C427.856 47.108 427.64 47.066 427.436 46.982C427.232 46.898 427.052 46.784 426.896 46.64C426.752 46.484 426.638 46.304 426.554 46.1C426.47 45.896 426.428 45.68 426.428 45.452ZM426.428 39.692C426.428 39.464 426.47 39.248 426.554 39.044C426.638 38.84 426.752 38.666 426.896 38.522C427.052 38.366 427.232 38.246 427.436 38.162C427.64 38.078 427.856 38.036 428.084 38.036C428.312 38.036 428.528 38.078 428.732 38.162C428.936 38.246 429.11 38.366 429.254 38.522C429.41 38.666 429.53 38.84 429.614 39.044C429.698 39.248 429.74 39.464 429.74 39.692C429.74 39.92 429.698 40.136 429.614 40.34C429.53 40.544 429.41 40.724 429.254 40.88C429.11 41.024 428.936 41.138 428.732 41.222C428.528 41.306 428.312 41.348 428.084 41.348C427.856 41.348 427.64 41.306 427.436 41.222C427.232 41.138 427.052 41.024 426.896 40.88C426.752 40.724 426.638 40.544 426.554 40.34C426.47 40.136 426.428 39.92 426.428 39.692ZM436.954 44.138L441.904 39.692C442.156 39.464 442.408 39.206 442.66 38.918C442.912 38.63 443.038 38.294 443.038 37.91C443.038 37.478 442.882 37.142 442.57 36.902C442.258 36.65 441.892 36.524 441.472 36.524C440.968 36.524 440.572 36.68 440.284 36.992C440.008 37.304 439.852 37.688 439.816 38.144L437.116 37.946C437.152 37.286 437.29 36.716 437.53 36.236C437.77 35.744 438.088 35.336 438.484 35.012C438.88 34.688 439.342 34.448 439.87 34.292C440.41 34.124 440.992 34.04 441.616 34.04C442.192 34.04 442.732 34.124 443.236 34.292C443.74 34.448 444.178 34.688 444.55 35.012C444.922 35.324 445.21 35.72 445.414 36.2C445.63 36.68 445.738 37.238 445.738 37.874C445.738 38.282 445.696 38.654 445.612 38.99C445.528 39.314 445.408 39.614 445.252 39.89C445.108 40.154 444.934 40.4 444.73 40.628C444.526 40.856 444.304 41.078 444.064 41.294L440.194 44.624H445.846V47H436.954V44.138ZM448.363 44.084H450.955L449.335 49.16H447.031L448.363 44.084ZM463.371 44.444H457.809V42.176L463.011 34.256H465.963V42.176H467.601V44.444H465.963V47H463.371V44.444ZM463.371 37.784H463.335L460.509 42.176H463.371V37.784ZM469.667 44.084H472.259L470.639 49.16H468.335L469.667 44.084ZM483.848 38.81C483.992 38.774 484.136 38.744 484.28 38.72C484.424 38.696 484.574 38.684 484.73 38.684C485.33 38.684 485.876 38.792 486.368 39.008C486.86 39.224 487.28 39.518 487.628 39.89C487.976 40.262 488.246 40.706 488.438 41.222C488.63 41.726 488.726 42.266 488.726 42.842C488.726 43.502 488.6 44.102 488.348 44.642C488.108 45.17 487.772 45.626 487.34 46.01C486.92 46.394 486.416 46.694 485.828 46.91C485.252 47.114 484.634 47.216 483.974 47.216C483.302 47.216 482.678 47.114 482.102 46.91C481.526 46.694 481.022 46.394 480.59 46.01C480.17 45.626 479.834 45.17 479.582 44.642C479.342 44.102 479.222 43.502 479.222 42.842C479.222 42.386 479.264 41.972 479.348 41.6C479.432 41.216 479.54 40.856 479.672 40.52C479.816 40.184 479.978 39.866 480.158 39.566C480.35 39.254 480.548 38.936 480.752 38.612L483.542 34.256H486.836L483.848 38.81ZM486.026 42.734C486.026 42.158 485.834 41.684 485.45 41.312C485.078 40.928 484.586 40.736 483.974 40.736C483.362 40.736 482.864 40.928 482.48 41.312C482.108 41.684 481.922 42.158 481.922 42.734C481.922 43.31 482.108 43.79 482.48 44.174C482.864 44.546 483.362 44.732 483.974 44.732C484.586 44.732 485.078 44.546 485.45 44.174C485.834 43.79 486.026 43.31 486.026 42.734ZM490.972 44.084H493.564L491.944 49.16H489.64L490.972 44.084ZM506.952 36.74H500.652V34.256H509.976V36.632L504.882 47H501.732L506.952 36.74ZM511.647 45.452C511.647 45.224 511.689 45.008 511.773 44.804C511.857 44.6 511.971 44.426 512.115 44.282C512.271 44.126 512.451 44.006 512.655 43.922C512.859 43.838 513.075 43.796 513.303 43.796C513.531 43.796 513.747 43.838 513.951 43.922C514.155 44.006 514.329 44.126 514.473 44.282C514.629 44.426 514.749 44.6 514.833 44.804C514.917 45.008 514.959 45.224 514.959 45.452C514.959 45.68 514.917 45.896 514.833 46.1C514.749 46.304 514.629 46.484 514.473 46.64C514.329 46.784 514.155 46.898 513.951 46.982C513.747 47.066 513.531 47.108 513.303 47.108C513.075 47.108 512.859 47.066 512.655 46.982C512.451 46.898 512.271 46.784 512.115 46.64C511.971 46.484 511.857 46.304 511.773 46.1C511.689 45.896 511.647 45.68 511.647 45.452Z" fill="white"/>
</svg>
