<svg width="300" height="103" viewBox="0 0 300 103" fill="none" xmlns="http://www.w3.org/2000/svg">
<path d="M64.7624 19.7534V23.3816C64.7624 26.4051 64.9642 28.8239 65.3677 30.4364L64.9642 31.4443H63.9554L63.5519 31.0411C63.5519 30.0333 63.5519 28.8239 63.5519 27.6145C63.5519 26.4051 63.5519 23.5832 63.3502 19.3503C63.1484 15.1174 63.1484 12.094 63.1484 10.0783C63.1484 9.07047 63.5519 8.46578 64.3589 8.46578C65.5694 8.46578 66.5782 8.86891 67.3852 9.47361C68.1922 10.0783 68.5956 11.0861 68.5956 12.094V14.5127C68.5956 15.1174 68.3939 15.7221 68.1921 16.3268C67.9904 16.9315 67.5869 17.5362 67.3852 17.9394C66.9817 18.5441 66.9817 18.9472 66.7799 18.9472C66.9817 19.5519 67.1834 20.5597 67.3852 22.1722C67.9904 25.8004 68.7974 28.2192 69.6044 29.8317C69.8061 30.2349 70.0079 30.638 70.0079 30.8396C70.0079 31.0411 70.0079 31.2427 69.8061 31.4443C69.6044 31.6458 69.4026 31.6458 69.2009 31.6458C68.7974 31.6458 68.1921 31.0411 67.7887 30.0333C67.3852 29.0255 66.9817 27.8161 66.7799 26.4051C65.9729 22.3738 65.3677 20.1566 65.3677 19.5519H64.7624V19.7534ZM66.3764 10.683C66.1747 9.87674 65.5694 9.47361 64.7624 9.47361V10.0783C64.7624 11.0861 64.7624 12.2955 64.7624 14.1096C64.7624 15.9237 64.7624 17.1331 64.7624 17.9394C65.3677 17.7378 65.7712 16.9315 65.9729 15.7221C66.3764 14.5127 66.3764 13.7065 66.3764 13.1018C66.3764 12.4971 66.3764 12.094 66.3764 11.6908C66.5782 11.4893 66.5782 11.0861 66.3764 10.683ZM75.0516 31.0411H73.0341C72.8324 31.0411 72.6306 31.0411 72.4289 31.2427C72.2271 31.4443 72.0254 31.4443 71.8236 31.4443C71.6219 31.4443 71.4201 31.4443 71.2184 31.2427C71.0166 31.0411 71.0166 30.8396 71.0166 30.4364C71.0166 28.4208 71.8236 24.7926 73.2359 19.7534C74.8498 14.7143 75.6568 11.4893 76.0603 10.2799L73.2359 10.4814C73.0341 10.4814 72.8324 10.4814 72.6306 10.2799C72.4289 10.0783 72.4289 9.87674 72.4289 9.67517C72.4289 9.07047 73.6394 8.66734 76.2621 8.66734C77.4726 8.66734 77.8761 9.07047 77.8761 9.67517C77.8761 10.4814 77.6743 11.4893 77.0691 12.9002C76.6656 14.1096 76.2621 14.9159 76.2621 15.5206C76.0603 17.3347 75.4551 19.955 74.4464 23.3816C73.4376 26.8082 73.0341 28.8239 73.0341 29.227H73.6394H75.0516C76.0603 29.227 76.4638 29.4286 76.4638 30.0333C76.4638 30.2349 76.2621 30.4364 76.0603 30.638C75.6568 30.8396 75.4551 31.0411 75.0516 31.0411ZM79.8936 13.908L79.6918 11.0861C79.6918 9.4736 80.0953 8.66734 81.1041 8.66734C81.7093 8.66734 82.5163 8.86891 83.525 9.07047C84.7355 9.27204 85.139 9.67517 85.139 10.0783C85.139 10.4814 84.7355 10.8846 84.1303 11.0861C83.1215 10.683 82.1128 10.4814 81.5076 10.4814C81.5076 10.8846 81.5076 11.4893 81.5076 11.8924L81.3058 16.73C81.3058 16.73 81.3058 16.9315 81.3058 17.3347H82.5163C83.525 17.3347 84.1303 17.7378 84.1303 18.3425C84.1303 18.5441 84.1303 18.7456 83.9285 18.9472C83.7268 19.1488 83.525 19.1488 83.1215 19.1488C82.718 19.1488 82.5163 19.1488 82.1128 19.1488H81.3058C81.3058 19.955 81.3058 20.9628 81.3058 21.7691L81.1041 28.0176C81.1041 29.227 81.1041 30.0333 81.1041 30.0333H83.7268C84.5338 30.0333 84.9373 30.2349 84.9373 30.8396C84.9373 31.2427 84.7355 31.4442 84.5338 31.6458C84.332 31.8474 83.9285 31.8474 83.525 31.8474H80.7006C80.4988 31.8474 80.0953 31.6458 79.8936 31.4443C79.6918 31.2427 79.4901 31.0411 79.4901 30.638V29.8317L79.2883 23.9863L79.8936 13.908ZM88.9722 31.0411C87.3583 30.0333 86.753 27.4129 86.753 22.9785V20.9628V20.1566C86.753 16.73 86.9548 14.5127 87.1565 13.1018C87.56 11.4893 88.1653 10.2799 88.7705 9.67517C89.7792 8.86891 90.9897 8.46578 92.402 8.46578C92.8055 8.46578 93.0072 8.46578 93.209 8.66734C93.4107 8.86891 93.4107 9.07047 93.4107 9.27204C93.4107 9.47361 93.4107 9.67517 93.209 9.87674C93.209 10.0783 93.0072 10.0783 92.8055 10.0783H91.1915C90.788 10.0783 90.3845 10.2799 89.981 10.8846C89.5775 11.4893 89.3757 12.2955 89.174 13.1018C88.9722 14.7143 88.7705 16.1253 88.7705 17.1331V17.3347L88.5688 24.1879C88.5688 25.5988 88.5687 26.6067 88.7705 27.0098C88.9722 27.4129 89.174 28.0176 89.174 28.2192C89.3757 28.6223 89.5775 28.8239 89.7792 29.0255C90.3845 29.4286 90.9897 29.8317 91.7967 29.8317C91.9985 29.8317 92.402 29.8317 92.6037 29.6302C92.8055 29.6302 93.209 29.6302 93.4107 29.8317C93.6125 30.0333 93.8142 30.2349 93.8142 30.4364C93.8142 31.2427 93.209 31.8474 91.9985 31.8474C91.3932 31.8474 90.9897 31.8474 90.3845 31.6458C89.5775 31.2427 89.174 31.0411 88.9722 31.0411ZM99.0597 31.0411H97.0422C96.8404 31.0411 96.6387 31.0411 96.4369 31.2427C96.2352 31.4443 96.0334 31.4443 95.8317 31.4443C95.6299 31.4443 95.4282 31.4443 95.2265 31.2427C94.823 30.8396 94.823 30.638 94.823 30.2349C94.823 28.2192 95.6299 24.591 97.0422 19.5519C98.6562 14.5127 99.4632 11.2877 99.8667 10.0783L97.0422 10.2799C96.8404 10.2799 96.6387 10.2799 96.4369 10.0783C96.2352 9.87674 96.2352 9.67517 96.2352 9.47361C96.2352 8.86891 97.4457 8.46578 100.068 8.46578C101.279 8.46578 101.682 8.86891 101.682 9.47361C101.682 10.2799 101.481 11.2877 100.875 12.6987C100.472 14.1096 100.068 15.1174 100.068 15.5206C99.8667 17.3347 99.2614 19.955 98.2527 23.3816C97.2439 26.8082 96.8404 29.0255 96.8404 29.4286H97.4457H98.8579C99.8667 29.4286 100.27 29.6302 100.27 30.2349C100.27 30.4364 100.068 30.638 99.8667 30.8396C99.4632 30.8396 99.2614 31.0411 99.0597 31.0411ZM107.937 29.8317C107.937 30.4364 107.735 31.0411 107.331 31.6458C106.928 32.4521 106.524 33.0568 105.919 33.6615C105.314 34.2662 104.91 34.4677 104.305 34.4677C103.902 34.4677 103.7 34.2662 103.7 34.0646C103.7 33.863 103.902 33.4599 104.103 33.2583C104.507 32.6536 104.91 31.6458 105.112 30.0333C105.314 28.6223 105.717 28.0176 106.524 28.0176C107.533 28.0176 107.937 28.6223 107.937 29.8317ZM122.059 11.0861C120.445 13.908 119.436 15.5206 119.235 15.9237V17.9394C119.235 18.9472 119.638 20.7613 120.445 23.3816C121.252 26.002 121.857 27.8161 122.462 28.6223C122.462 28.6223 122.664 29.0255 122.866 29.227C123.068 29.6302 123.269 29.8317 123.269 30.0333C123.471 30.2349 123.471 30.4364 123.471 30.8396C123.471 31.0411 123.471 31.2427 123.269 31.4443C123.068 31.6458 122.866 31.6458 122.664 31.6458C122.059 31.6458 121.656 31.0411 121.05 30.0333C120.445 28.8239 120.042 27.6145 119.436 25.8004C118.629 22.9785 118.024 20.5597 117.822 18.5441C117.015 20.1566 116.612 22.1722 116.612 24.591V30.8396C116.612 31.4443 116.41 31.6458 116.007 31.6458C115.603 31.6458 115.401 31.6458 115.2 31.4443C114.998 31.2427 114.796 31.0411 114.796 30.638V20.1566C114.796 18.9472 114.998 17.1331 115.2 14.5127C115.401 11.8924 114.998 10.2799 114.998 9.07047C115.2 8.66734 115.401 8.46578 115.805 8.46578C116.208 8.46578 116.41 8.66734 116.612 8.86891C116.814 9.07047 117.015 9.27204 117.015 9.67517C116.814 10.2799 116.612 12.2955 116.612 15.9237V17.1331C116.612 17.1331 117.015 16.3268 117.822 14.7143C119.84 10.8846 121.05 8.86891 121.454 8.86891C121.857 8.86891 122.059 8.86891 122.462 9.07047C122.664 9.27204 122.866 9.47361 122.866 9.67517C122.866 9.67517 122.664 10.0783 122.059 11.0861ZM128.111 30.638V28.0176C128.111 28.0176 128.111 27.6145 128.111 26.8082C128.111 26.6067 127.91 23.9863 127.506 19.1488C127.304 14.3112 127.103 11.2877 127.103 10.2799C127.103 10.2799 127.103 10.2799 126.901 10.2799C125.085 10.2799 124.076 9.87674 124.076 9.27204C124.076 9.07047 124.278 8.86891 124.48 8.66734C124.682 8.46578 124.883 8.46578 125.287 8.46578L129.927 8.86891H130.532C131.339 8.86891 131.541 9.07047 131.541 9.67517C131.541 9.87674 131.339 10.2799 131.138 10.2799C130.936 10.4814 130.734 10.4814 130.331 10.4814L128.717 10.2799V10.683C128.717 12.9002 128.918 16.1253 129.322 20.3581C129.725 24.591 129.927 28.0176 129.927 30.0333C129.927 30.2349 129.725 30.638 129.524 30.8396C129.322 31.0411 128.918 31.2427 128.717 31.2427L128.111 30.638ZM133.155 25.8004C132.953 23.7848 132.752 22.1722 132.752 20.7613V19.5519C132.752 19.3503 132.752 19.3503 132.752 19.3503V18.5441C132.752 14.9159 132.953 12.4971 133.357 10.8846C133.76 9.67517 133.962 8.86891 134.366 8.46578C134.769 8.26421 134.971 8.06265 135.374 8.06265C137.997 8.06265 139.813 9.47361 140.822 12.094C141.427 13.7065 141.629 15.5206 141.629 17.7378V18.1409V21.9707C141.629 28.6223 140.015 31.8474 136.988 31.8474C135.778 31.8474 134.769 31.2427 134.164 29.8317C133.559 28.4208 133.357 27.0098 133.155 25.8004ZM134.769 16.1253L134.567 19.3503C134.567 22.5754 134.769 25.5988 135.374 28.0176C135.98 29.4286 136.585 30.2349 136.988 30.638C137.392 30.638 137.795 30.4364 138.199 30.2349C138.602 30.0333 138.804 29.4286 139.006 28.8239C139.208 28.2192 139.409 27.6145 139.409 27.0098C139.611 26.4051 139.611 25.8004 139.611 24.9942C139.813 23.7848 139.813 22.7769 139.813 21.9707C139.813 21.1644 139.813 19.7534 139.611 17.9394C139.409 16.1253 139.409 14.9159 139.409 13.908V13.1018C139.409 12.2955 139.208 11.4893 138.602 10.8846C137.997 10.2799 137.392 9.87674 136.585 9.87674C135.778 9.87674 135.374 10.2799 134.971 11.2877C134.769 12.094 134.567 12.9002 134.567 14.1096L134.769 16.1253ZM136.181 6.24856C135.98 6.24856 135.98 6.04699 135.98 5.84543C135.98 5.64386 136.181 5.44229 136.383 5.24073C136.787 5.03916 137.392 4.2329 138.602 3.42664C139.813 2.41881 140.418 1.81411 140.62 1.61255C140.822 1.61255 140.822 1.61255 141.023 1.61255C141.225 1.61255 141.427 1.81411 141.629 2.01568C141.83 2.21725 142.032 2.62038 142.032 2.82194C142.032 3.02351 142.032 3.22507 141.83 3.42664C140.822 4.03134 139.208 5.03916 136.787 6.45012C136.787 6.45012 136.585 6.45012 136.383 6.45012C136.383 6.45012 136.181 6.45012 136.181 6.24856ZM145.462 19.7534V23.3816C145.462 26.4051 145.664 28.8239 146.067 30.4364L145.664 31.4443H144.655L144.251 31.0411C144.251 30.0333 144.251 28.8239 144.251 27.6145C144.251 26.4051 144.251 23.5832 144.05 19.3503C143.848 15.1174 143.848 12.094 143.848 10.0783C143.848 9.07047 144.251 8.46578 145.058 8.46578C146.269 8.46578 147.278 8.86891 148.085 9.47361C148.892 10.0783 149.295 11.0861 149.295 12.094V14.5127C149.295 15.1174 149.093 15.7221 148.892 16.3268C148.69 16.9315 148.286 17.5362 148.085 17.9394C147.479 18.5441 147.278 18.7456 147.278 18.9472C147.479 19.5519 147.681 20.5597 147.883 22.1722C148.488 25.8004 149.295 28.2192 150.102 29.8317C150.304 30.2349 150.506 30.638 150.506 30.8396C150.506 31.0411 150.506 31.2427 150.304 31.4443C150.102 31.6458 149.9 31.6458 149.699 31.6458C149.295 31.6458 148.69 31.0411 148.286 30.0333C147.883 29.0255 147.479 27.8161 147.278 26.4051C146.471 22.3738 145.865 20.1566 145.865 19.5519H145.462V19.7534ZM147.076 10.683C146.874 9.87674 146.269 9.47361 145.462 9.47361V10.0783C145.462 11.0861 145.462 12.2955 145.462 14.1096C145.462 15.9237 145.462 17.1331 145.462 17.9394C146.067 17.7378 146.471 16.9315 146.672 15.7221C147.278 14.7143 147.278 13.7065 147.278 13.1018C147.278 12.4971 147.278 12.094 147.278 11.6908C147.278 11.4893 147.278 11.0861 147.076 10.683ZM159.181 24.1879L159.584 26.2035C159.584 26.4051 159.786 27.2114 159.988 28.2192C160.189 29.227 160.391 30.0333 160.391 30.4364C160.391 30.8396 160.189 31.2427 159.786 31.4443C159.382 31.4443 158.979 31.4443 158.575 31.2427C158.172 31.0411 158.172 30.8396 158.172 30.4364C158.172 29.4286 157.97 28.0176 157.768 26.2035L154.339 25.8004C154.137 26.6067 153.935 27.4129 153.935 28.2192C153.734 29.0255 153.734 29.8317 153.532 30.2349C153.33 31.0411 152.927 31.4443 152.321 31.4443C152.12 31.4443 151.716 31.4443 151.514 31.2427C151.313 31.0411 151.111 30.8396 151.111 30.638V30.4364C152.725 24.591 153.734 18.7456 154.541 13.1018C154.541 12.9002 154.541 12.4971 154.541 11.6908C154.742 10.0783 154.944 8.86891 155.146 8.46578H156.356C156.76 8.46578 156.961 8.46578 157.163 8.66734C157.365 8.86891 157.567 9.07047 157.567 9.27204C157.567 11.0861 157.768 13.5049 158.172 16.9315C158.777 20.1566 159.181 22.7769 159.181 24.1879ZM154.339 24.3895C154.742 24.591 155.751 24.7926 157.365 24.9942C157.365 24.591 157.365 23.9863 157.365 23.1801C157.365 22.3738 157.365 21.366 157.163 20.1566C157.163 18.9472 156.961 17.5362 156.76 15.9237C156.558 14.3112 156.558 13.1018 156.356 12.2955C155.146 17.9394 154.541 21.9707 154.339 24.3895ZM157.163 36.0803C157.567 36.0803 158.172 35.8787 158.575 35.4756L158.777 36.0803C158.777 36.2818 158.575 36.685 158.172 36.8865C157.768 37.0881 157.365 37.2897 156.961 37.2897C156.558 37.2897 156.154 37.0881 155.953 36.685C155.751 36.2818 155.549 35.8787 155.549 35.4756C155.549 34.4677 155.953 33.6615 156.558 32.8552C157.163 32.0489 157.97 31.4443 158.777 30.8396L159.786 31.2427C159.584 31.2427 159.382 31.4442 159.181 31.6458C158.979 31.8474 158.777 32.0489 158.575 32.2505C158.374 32.4521 158.172 32.4521 158.172 32.6536C158.172 32.6536 157.97 32.8552 157.768 33.0568C157.567 33.2583 157.567 33.4599 157.365 33.4599C157.365 33.6615 157.163 33.6615 157.163 33.863C156.961 34.0646 156.961 34.2662 156.961 34.2662C156.76 34.6693 156.76 35.0724 156.76 35.4756C156.76 35.8787 156.961 36.0803 157.163 36.0803ZM167.452 31.0411C165.838 30.0333 165.233 27.4129 165.233 22.9785V20.9628V20.1566C165.233 16.73 165.435 14.5127 165.637 13.1018C166.04 11.4893 166.645 10.2799 167.251 9.67517C168.259 8.86891 169.47 8.46578 170.882 8.46578C171.286 8.46578 171.487 8.46578 171.689 8.66734C171.891 8.86891 171.891 9.07047 171.891 9.27204C171.891 9.47361 171.891 9.67517 171.689 9.87674C171.689 10.0783 171.487 10.0783 171.286 10.0783H169.672C169.268 10.0783 168.865 10.2799 168.461 10.8846C168.058 11.4893 167.856 12.2955 167.654 13.1018C167.452 14.7143 167.251 16.1253 167.251 17.1331V17.3347V24.1879C167.251 25.5988 167.251 26.6067 167.452 27.0098C167.654 27.4129 167.856 28.0176 167.856 28.2192C168.058 28.6223 168.259 28.8239 168.461 29.0255C169.066 29.4286 169.672 29.8317 170.479 29.8317C170.68 29.8317 171.084 29.8317 171.286 29.6302C171.487 29.6302 171.891 29.6302 172.093 29.8317C172.294 30.0333 172.496 30.2349 172.496 30.4364C172.496 31.2427 171.891 31.8474 170.68 31.8474C170.075 31.8474 169.672 31.8474 169.066 31.6458C168.058 31.2427 167.654 31.0411 167.452 31.0411ZM174.715 8.46578C175.522 8.46578 175.724 9.07047 175.724 10.4814L175.522 18.9472C175.926 19.1488 176.531 19.1488 177.338 19.1488H178.549C178.549 19.1488 178.549 18.7456 178.549 18.1409C178.549 17.5362 178.549 16.1253 178.347 13.908C178.145 11.6908 178.145 10.0783 178.145 9.07047C178.145 8.86891 178.145 8.66734 178.347 8.46578C178.549 8.26421 178.75 8.26421 178.952 8.26421C179.154 8.26421 179.356 8.26421 179.356 8.26421C179.557 8.26421 179.557 8.26421 179.759 8.46578C179.961 8.46578 179.961 8.46578 180.163 8.66734C180.163 11.6908 180.364 15.9237 180.566 21.7691C180.768 27.6145 180.97 30.4364 180.97 30.638C180.97 30.8396 180.768 31.0411 180.566 31.2427C180.364 31.4443 179.961 31.4443 179.759 31.4443C179.557 31.4443 179.154 31.2427 178.952 30.8396C178.75 30.4364 178.75 29.8317 178.549 28.8239C178.549 28.0176 178.347 27.2114 178.347 26.6067C178.347 26.4051 178.347 26.002 178.347 25.5988C178.347 25.1957 178.347 24.591 178.347 23.9863C178.347 22.9785 178.347 22.3738 178.347 22.1722V21.9707V20.9628L178.145 20.5597C177.943 20.5597 177.742 20.5597 177.54 20.5597L175.321 20.1566V24.1879L175.522 29.8317C175.522 30.2349 175.522 30.4364 175.321 30.638C175.119 30.8396 174.917 31.0411 174.514 31.0411C174.11 31.0411 173.707 30.638 173.505 29.8317C173.303 29.0255 173.303 27.8161 173.303 26.4051V21.1644C173.303 20.1566 173.303 19.5519 173.303 19.3503V19.3503C173.303 18.1409 173.505 17.5362 173.505 17.3347L173.303 9.67517C173.303 9.47361 173.303 9.07047 173.505 8.86891C174.312 8.66734 174.514 8.46578 174.715 8.46578ZM185.206 31.0411C183.592 30.0333 182.987 27.4129 182.987 22.9785V20.9628V20.1566C182.987 16.73 183.189 14.5127 183.391 13.1018C183.794 11.4893 184.399 10.2799 185.005 9.67517C186.013 8.86891 187.224 8.46578 188.636 8.46578C189.039 8.46578 189.241 8.46578 189.443 8.66734C189.645 8.86891 189.645 9.07047 189.645 9.27204C189.645 9.47361 189.645 9.67517 189.443 9.87674C189.443 10.0783 189.241 10.0783 189.039 10.0783H187.426C187.022 10.0783 186.619 10.2799 186.215 10.8846C185.812 11.4893 185.61 12.2955 185.408 13.1018C185.206 14.7143 185.005 16.1253 185.005 17.1331V17.3347L184.803 24.1879C184.803 25.5988 184.803 26.6067 185.005 27.0098C185.206 27.4129 185.408 28.0176 185.408 28.2192C185.61 28.6223 185.812 28.8239 186.013 29.0255C186.619 29.4286 187.224 29.8317 188.031 29.8317C188.232 29.8317 188.636 29.8317 188.838 29.6302C189.039 29.6302 189.443 29.6302 189.645 29.8317C189.846 30.0333 190.048 30.2349 190.048 30.4364C190.048 31.2427 189.443 31.8474 188.233 31.8474C187.627 31.8474 187.224 31.8474 186.619 31.6458C185.812 31.2427 185.408 31.0411 185.206 31.0411ZM193.074 36.4834C193.478 36.4834 194.083 36.2818 194.487 35.8787L194.688 36.4834C194.688 36.685 194.487 37.0881 194.083 37.2897C193.68 37.4912 193.276 37.6928 192.873 37.6928C192.469 37.6928 192.066 37.4912 191.864 37.0881C191.662 36.685 191.46 36.2818 191.46 35.8787C191.46 34.8709 191.864 34.0646 192.469 33.2583C193.074 32.4521 193.881 31.8474 194.688 31.2427L195.697 31.6458C195.495 31.6458 195.294 31.8474 195.092 32.0489C194.89 32.2505 194.688 32.4521 194.487 32.6536C194.285 32.8552 194.083 32.8552 194.083 33.0568C194.083 33.0568 193.881 33.2583 193.68 33.4599C193.478 33.6615 193.478 33.863 193.276 33.863C193.276 34.0646 193.074 34.0646 193.074 34.2662C192.873 34.4677 192.873 34.6693 192.873 34.6693C192.671 35.0724 192.671 35.4756 192.671 35.8787C192.671 36.2818 192.873 36.4834 193.074 36.4834ZM191.864 13.908L191.662 11.0861C191.662 9.4736 192.066 8.66734 193.074 8.66734C193.68 8.66734 194.487 8.86891 195.495 9.07047C196.504 9.27204 197.109 9.67517 197.109 10.0783C197.109 10.4814 196.706 10.8846 196.101 11.0861C195.092 10.683 194.083 10.4814 193.478 10.4814C193.478 10.8846 193.478 11.4893 193.478 11.8924L193.276 16.73C193.276 16.73 193.276 16.9315 193.276 17.3347H194.487C195.495 17.3347 196.101 17.7378 196.101 18.3425C196.101 18.5441 196.101 18.7456 195.899 18.9472C195.697 19.1488 195.697 19.1488 195.294 19.1488C194.89 19.1488 194.688 19.1488 194.285 19.1488H193.478C193.478 19.955 193.478 20.9628 193.478 21.7691L193.276 28.0176C193.276 29.227 193.276 30.0333 193.276 30.0333H195.899C196.706 30.0333 197.109 30.2349 197.109 30.8396C197.109 31.2427 196.908 31.4442 196.706 31.6458C196.504 31.8474 196.101 31.8474 195.697 31.8474H192.873C192.671 31.8474 192.267 31.6458 192.066 31.4443C191.864 31.2427 191.662 31.0411 191.662 30.638V29.8317V23.9863L191.864 13.908ZM206.39 31.0411H204.372C204.171 31.0411 203.969 31.0411 203.767 31.2427C203.565 31.4443 203.364 31.4443 203.162 31.4443C202.96 31.4443 202.758 31.4443 202.557 31.2427C202.355 31.0411 202.355 30.8396 202.355 30.4364C202.355 28.4208 203.162 24.7926 204.574 19.7534C206.188 14.7143 206.995 11.4893 207.399 10.2799L204.574 10.4814C204.372 10.4814 204.171 10.4814 203.969 10.2799C203.767 10.0783 203.767 9.87674 203.767 9.67517C203.767 9.07047 204.978 8.66734 207.6 8.66734C208.811 8.66734 209.214 9.07047 209.214 9.67517C209.214 10.4814 209.013 11.4893 208.407 12.9002C208.004 14.3112 207.6 15.319 207.6 15.7221C207.399 17.5362 206.793 20.1566 205.785 23.5832C204.776 27.0098 204.372 29.0255 204.372 29.4286H204.978H206.39C207.399 29.4286 207.802 29.6302 207.802 30.2349C207.802 30.4364 207.6 30.638 207.399 30.8396C206.995 30.8396 206.793 31.0411 206.39 31.0411ZM212.442 19.7534V23.3816C212.442 26.4051 212.644 28.8239 213.048 30.4364L212.644 31.4443H211.635L211.232 31.0411C211.232 30.0333 211.232 28.8239 211.232 27.6145C211.232 26.4051 211.232 23.5832 211.03 19.3503C210.828 15.1174 210.828 12.094 210.828 10.0783C210.828 9.07047 211.232 8.46578 212.039 8.46578C213.249 8.46578 214.258 8.86891 215.065 9.47361C215.872 10.0783 216.276 11.0861 216.276 12.094V14.5127C216.276 15.1174 216.074 15.7221 215.872 16.3268C215.67 16.9315 215.267 17.5362 215.065 17.9394C214.662 18.5441 214.662 18.9472 214.46 18.9472C214.662 19.5519 214.863 20.5597 215.065 22.1722C215.67 25.8004 216.477 28.2192 217.284 29.8317C217.486 30.2349 217.688 30.638 217.688 30.8396C217.688 31.0411 217.688 31.2427 217.486 31.4443C217.284 31.6458 217.083 31.6458 216.881 31.6458C216.477 31.6458 215.872 31.0411 215.469 30.0333C215.065 29.0255 214.662 27.8161 214.46 26.4051C213.653 22.3738 213.048 20.1566 213.048 19.5519H212.442V19.7534ZM214.056 10.683C213.855 9.87674 213.249 9.47361 212.442 9.47361V10.0783C212.442 11.0861 212.442 12.2955 212.442 14.1096C212.442 15.9237 212.442 17.1331 212.442 17.9394C213.048 17.7378 213.451 16.9315 213.653 15.7221C214.056 14.5127 214.056 13.7065 214.056 13.1018C214.056 12.4971 214.056 12.094 214.056 11.6908C214.258 11.4893 214.258 11.0861 214.056 10.683ZM218.898 25.8004C218.697 23.7848 218.495 22.1722 218.495 20.7613V19.5519C218.495 19.3503 218.495 19.3503 218.495 19.3503V18.5441C218.495 14.9159 218.697 12.4971 219.1 10.8846C219.504 9.67517 219.705 8.86891 220.109 8.46578C220.512 8.26421 220.714 8.06265 221.118 8.06265C223.74 8.06265 225.556 9.47361 226.565 12.094C227.17 13.7065 227.372 15.5206 227.372 17.7378V18.1409V21.9707C227.372 28.6223 225.758 31.8474 222.732 31.8474C221.521 31.8474 220.512 31.2427 219.907 29.8317C219.504 28.4208 219.1 27.0098 218.898 25.8004ZM220.714 16.1253L220.512 19.3503C220.512 22.5754 220.714 25.5988 221.319 28.0176C221.924 29.4286 222.53 30.2349 222.933 30.638C223.337 30.638 223.74 30.4364 224.144 30.2349C224.547 30.0333 224.749 29.4286 224.951 28.8239C225.152 28.2192 225.354 27.6145 225.354 27.0098C225.556 26.4051 225.556 25.8004 225.556 24.9942C225.758 23.7848 225.758 22.7769 225.758 21.9707C225.758 21.1644 225.758 19.7534 225.556 17.9394C225.354 16.1253 225.354 14.9159 225.354 13.908V13.1018C225.354 12.2955 225.152 11.4893 224.547 10.8846C223.942 10.2799 223.337 9.87674 222.53 9.87674C221.723 9.87674 221.319 10.2799 220.916 11.2877C220.714 12.094 220.512 12.9002 220.512 14.1096L220.714 16.1253ZM229.994 11.4893L229.793 9.67517C229.793 9.27204 229.793 8.86891 229.994 8.46578C230.196 8.26421 230.6 8.06265 231.205 8.06265C231.81 8.06265 232.415 8.26421 233.021 8.46578C233.626 8.86891 234.029 9.27204 234.433 9.87674C235.038 11.0861 235.442 12.2955 235.442 13.7065C235.442 15.1174 235.24 16.3268 235.038 17.1331C234.836 17.9394 234.433 18.7456 234.029 19.3503C234.836 20.1566 235.442 21.5675 235.643 23.5832C235.643 23.9863 235.643 24.591 235.643 25.1957C235.643 25.8004 235.643 26.4051 235.442 27.0098C235.24 27.6145 235.24 28.2192 234.836 28.8239C234.635 29.4286 234.231 29.8317 233.828 30.2349C233.021 31.0411 231.81 31.4443 230.398 31.4443C229.994 31.4443 229.591 31.2427 229.389 30.8396C229.389 30.4364 229.187 30.0333 229.187 29.6302L229.591 22.3738L229.994 11.4893ZM231.407 28.0176V29.6302C232.214 29.4286 232.819 29.0255 233.222 28.2192C233.626 27.4129 233.828 26.8082 233.828 26.2035C233.828 25.5988 233.828 24.9942 233.828 24.7926C233.828 24.591 233.828 23.9863 233.626 23.3816C233.626 22.7769 233.424 22.3738 233.222 21.9707C232.819 20.9628 232.415 20.3581 231.608 20.3581C231.608 21.7691 231.407 23.5832 231.407 25.5988V28.0176ZM232.214 9.67517C232.012 10.2799 231.81 11.4893 231.81 13.3034V18.3425C233.021 18.3425 233.626 16.9315 233.626 14.1096C233.626 11.2877 233.021 9.67517 232.214 9.67517ZM241.292 19.7534L241.494 27.0098V28.0176V29.0255H241.898H242.906C243.915 29.0255 244.319 29.227 244.319 29.8317C244.319 30.0333 244.117 30.4364 243.915 30.638C243.713 30.8396 243.512 31.0411 243.108 31.0411H241.696C240.687 31.0411 240.082 31.0411 239.678 31.0411C239.477 31.0411 239.275 31.0411 239.275 31.0411C238.468 31.0411 238.064 30.8396 238.064 30.2349C238.064 30.0333 238.064 29.8317 238.266 29.6302C238.468 29.4286 238.468 29.4286 238.67 29.4286H239.678V29.0255L239.477 21.7691L239.678 14.1096C239.678 12.9002 239.678 11.4893 239.477 10.4814H238.871H238.064C237.661 10.4814 237.459 10.4814 237.257 10.2799C237.056 10.0783 237.056 9.87674 237.056 9.47361C237.056 8.86891 237.661 8.66734 238.67 8.66734H242.705C243.713 8.66734 244.117 8.86891 244.117 9.47361C244.117 9.67517 244.117 9.87674 243.915 10.0783C243.713 10.0783 243.31 10.0783 243.108 10.0783H241.292C241.292 11.0861 241.494 12.094 241.494 13.3034L241.292 19.7534ZM247.748 31.0411C246.134 30.0333 245.529 27.4129 245.529 22.9785V20.9628V20.1566C245.529 16.73 245.731 14.5127 245.933 13.1018C246.336 11.4893 246.941 10.2799 247.547 9.67517C248.555 8.86891 249.766 8.46578 251.178 8.46578C251.582 8.46578 251.783 8.46578 251.985 8.66734C252.187 8.86891 252.187 9.07047 252.187 9.27204C252.187 9.47361 252.187 9.67517 251.985 9.87674C251.985 10.0783 251.985 10.0783 251.783 10.0783H250.169C249.766 10.0783 249.362 10.2799 248.959 10.8846C248.555 11.4893 248.354 12.2955 248.152 13.1018C247.95 14.7143 247.748 16.1253 247.748 17.1331V17.3347L247.547 23.9863C247.547 25.3973 247.547 26.4051 247.748 26.8082C247.95 27.2114 248.152 27.8161 248.152 28.0176C248.354 28.4208 248.555 28.6223 248.757 28.8239C249.362 29.227 249.968 29.6302 250.775 29.6302C250.976 29.6302 251.38 29.6302 251.582 29.4286C251.783 29.4286 252.187 29.4286 252.389 29.6302C252.59 29.8317 252.792 30.0333 252.792 30.2349C252.792 31.0411 252.187 31.6458 250.976 31.6458C250.371 31.6458 249.968 31.6458 249.362 31.4443C248.555 31.2427 248.152 31.0411 247.748 31.0411ZM247.95 6.24856C247.748 6.24856 247.748 6.04699 247.748 5.84543C247.748 5.64386 247.95 5.44229 248.152 5.24073C248.555 5.03916 249.161 4.2329 250.371 3.42664C251.582 2.41881 252.187 1.81411 252.389 1.61255C252.59 1.61255 252.59 1.61255 252.792 1.61255C252.994 1.61255 253.196 1.81411 253.397 2.01568C253.599 2.21725 253.801 2.62038 253.801 2.82194C253.801 3.02351 253.801 3.22507 253.599 3.42664C252.792 4.03134 250.976 5.03916 248.555 6.24856C248.555 6.24856 248.354 6.24856 248.152 6.24856C248.152 6.45012 248.152 6.45012 247.95 6.24856ZM254.204 31.6458C254.204 31.8474 254.003 32.0489 253.801 32.0489C253.599 32.0489 253.397 31.8474 253.397 31.2427C253.397 31.0411 253.397 30.8396 253.599 30.4364C253.801 30.0333 254.608 26.2035 256.423 18.7456C258.239 11.2877 259.45 6.85325 259.853 5.24073C259.853 5.03916 260.055 5.03916 260.257 5.03916C260.458 5.03916 260.66 5.03916 260.66 5.24073C260.862 5.44229 260.862 5.44229 260.862 5.64386C260.862 5.84543 260.66 6.45012 260.458 7.65952C260.257 8.86891 259.248 12.9002 257.634 19.3503C256.222 26.002 255.011 30.2349 254.204 31.6458ZM266.309 31.0411H264.292C264.09 31.0411 263.888 31.0411 263.686 31.2427C263.485 31.4443 263.283 31.4443 263.081 31.4443C262.879 31.4443 262.678 31.4443 262.476 31.2427C262.274 31.0411 262.274 30.8396 262.274 30.4364C262.274 28.4208 263.081 24.7926 264.493 19.7534C266.107 14.7143 266.914 11.4893 267.318 10.2799L264.493 10.4814C264.292 10.4814 264.09 10.4814 263.888 10.2799C263.686 10.0783 263.686 9.87674 263.686 9.67517C263.686 9.07047 264.897 8.66734 267.52 8.66734C268.73 8.66734 269.134 9.07047 269.134 9.67517C269.134 10.4814 268.932 11.4893 268.327 12.9002C267.923 14.3112 267.52 15.319 267.52 15.7221C267.318 17.5362 266.713 20.1566 265.704 23.5832C264.695 27.0098 264.292 29.0255 264.292 29.4286H264.897H266.309C267.318 29.4286 267.721 29.6302 267.721 30.2349C267.721 30.4364 267.52 30.638 267.318 30.8396C266.914 30.8396 266.511 31.0411 266.309 31.0411ZM272.362 19.7534V23.3816C272.362 26.4051 272.563 28.8239 272.967 30.4364L272.563 31.4443H271.555L271.151 31.0411C271.151 30.0333 271.151 28.8239 271.151 27.6145C271.151 26.4051 271.151 23.5832 270.949 19.3503C270.748 15.1174 270.748 12.094 270.748 10.0783C270.748 9.07047 271.151 8.46578 271.958 8.46578C273.169 8.46578 274.177 8.86891 274.984 9.47361C275.791 10.0783 276.195 11.0861 276.195 12.094V14.5127C276.195 15.1174 275.993 15.7221 275.791 16.3268C275.59 16.9315 275.186 17.5362 274.984 17.9394C274.581 18.5441 274.581 18.9472 274.379 18.9472C274.581 19.5519 274.783 20.5597 274.984 22.1722C275.59 25.8004 276.397 28.2192 277.204 29.8317C277.405 30.2349 277.607 30.638 277.607 30.8396C277.607 31.0411 277.607 31.2427 277.405 31.4443C277.204 31.6458 277.002 31.6458 276.8 31.6458C276.397 31.6458 275.791 31.0411 275.388 30.0333C274.984 29.0255 274.581 27.8161 274.379 26.4051C273.572 22.3738 272.967 20.1566 272.967 19.5519H272.362V19.7534ZM273.976 10.683C273.774 9.87674 273.169 9.47361 272.362 9.47361V10.0783C272.362 11.0861 272.362 12.2955 272.362 14.1096C272.362 15.9237 272.362 17.1331 272.362 17.9394C272.967 17.7378 273.37 16.9315 273.572 15.7221C273.976 14.5127 273.976 13.7065 273.976 13.1018C273.976 12.4971 273.976 12.094 273.976 11.6908C274.177 11.4893 274.177 11.0861 273.976 10.683ZM278.818 25.8004C278.616 23.7848 278.414 22.1722 278.414 20.7613V19.5519C278.414 19.3503 278.414 19.3503 278.414 19.3503V18.5441C278.414 14.9159 278.616 12.4971 279.019 10.8846C279.423 9.67517 279.625 8.86891 280.028 8.46578C280.432 8.26421 280.633 8.06265 281.037 8.06265C283.66 8.06265 285.475 9.47361 286.484 12.094C287.089 13.7065 287.291 15.5206 287.291 17.7378V18.1409V21.9707C287.291 28.6223 285.677 31.8474 282.651 31.8474C281.44 31.8474 280.432 31.2427 279.826 29.8317C279.423 28.4208 279.019 27.0098 278.818 25.8004ZM280.432 16.1253V19.1488C280.432 22.3738 280.633 25.3973 281.239 27.8161C281.844 29.227 282.449 30.0333 282.853 30.4364C283.256 30.4364 283.66 30.2349 284.063 30.0333C284.467 29.8317 284.668 29.227 284.87 28.6223C285.072 28.0176 285.274 27.4129 285.274 26.8082C285.475 26.2035 285.475 25.5988 285.475 24.7926C285.677 23.5832 285.677 22.5754 285.677 21.7691C285.677 20.9628 285.677 19.5519 285.475 17.7378C285.274 15.9237 285.274 14.7143 285.274 13.7065V13.1018C285.274 12.2955 285.072 11.4893 284.467 10.8846C283.861 10.2799 283.256 9.87674 282.449 9.87674C281.642 9.87674 281.239 10.2799 280.835 11.2877C280.633 12.094 280.432 12.9002 280.432 13.908V16.1253Z" fill="black"/>
<path d="M63.5492 45.7554L63.3474 43.9413V43.7397C63.3474 43.3366 63.3474 42.9335 63.5492 42.5303C63.7509 42.3288 64.1544 42.1272 64.7597 42.1272C65.3649 42.1272 65.9702 42.3288 66.5754 42.5303C67.1807 42.9335 67.5842 43.3366 67.9876 43.9413C68.5929 45.1507 68.9964 46.3601 68.9964 47.771C68.9964 49.182 68.7946 50.3914 68.5929 51.1976C68.3911 52.0039 67.9876 52.8102 67.5842 53.4149C68.3911 54.2211 68.9964 55.6321 69.1981 57.6477C69.1981 58.0509 69.1981 58.6556 69.1981 59.2603C69.1981 59.865 69.1981 60.4697 68.9964 61.0744C68.7946 61.6791 68.7946 62.2838 68.3911 62.8885C68.1894 63.4931 67.7859 63.8963 67.3824 64.2994C66.5754 65.1057 65.3649 65.5088 63.9527 65.5088C63.5492 65.5088 63.1457 65.3072 62.9439 64.9041C62.9439 64.501 62.7422 64.0978 62.7422 63.6947L63.1457 56.4384L63.5492 45.7554ZM64.9614 62.2838V63.8963C65.7684 63.6947 66.3737 63.2916 66.7772 62.4853C67.1807 61.6791 67.3824 61.0744 67.3824 60.4697C67.3824 59.865 67.3824 59.2603 67.3824 59.0587C67.3824 58.8571 67.3824 58.2524 67.1807 57.6477C67.1807 57.043 66.9789 56.6399 66.7772 56.2368C66.3737 55.229 65.9702 54.6243 65.1632 54.6243C65.1632 56.0352 64.9614 57.8493 64.9614 59.865V62.2838ZM65.5667 43.9413C65.3649 44.546 65.1632 45.7554 65.1632 47.5695V52.6086C66.3737 52.6086 66.9789 51.1976 66.9789 48.3757C66.9789 45.5538 66.5754 43.9413 65.5667 43.9413ZM74.8471 54.0196L75.0488 61.2759V62.2838V63.2916H75.4523H76.4611C77.4698 63.2916 77.8733 63.4931 77.8733 64.0978C77.8733 64.2994 77.6716 64.7025 77.4698 64.9041C77.2681 65.1057 77.0663 65.3072 76.6628 65.3072H75.2506C74.2418 65.3072 73.6366 65.3072 73.2331 65.3072C73.0314 65.3072 72.8296 65.3072 72.8296 65.3072C72.0226 65.3072 71.6191 65.1057 71.6191 64.501C71.6191 64.2994 71.6191 64.0978 71.8209 63.8963C72.0226 63.6947 72.0226 63.6947 72.2244 63.6947H73.2331V63.2916L73.0314 56.0352L73.2331 48.3757C73.2331 47.1663 73.2331 45.7554 73.0314 44.7476H72.4261H71.6191C71.2156 44.7476 71.0139 44.7475 70.8121 44.546C70.6104 44.3444 70.6104 44.1429 70.6104 43.7397C70.6104 43.135 71.2156 42.9335 72.2244 42.9335H76.2593C77.2681 42.9335 77.6716 43.135 77.6716 43.7397C77.6716 43.9413 77.6716 44.1429 77.4698 44.3444C77.0663 44.3444 76.8646 44.3444 76.6628 44.3444H74.8471C74.8471 45.3522 75.0488 46.3601 75.0488 47.5695L74.8471 54.0196ZM80.8995 70.7495C81.303 70.7495 81.9083 70.5479 82.3118 70.1448L82.5135 70.7495C82.5135 70.9511 82.3118 71.3542 81.9083 71.5558C81.5048 71.7573 81.1013 71.9589 80.6978 71.9589C80.2943 71.9589 79.8908 71.7573 79.6891 71.3542C79.4873 70.9511 79.2856 70.5479 79.2856 70.1448C79.2856 69.137 79.6891 68.3307 80.2943 67.5245C80.8995 66.7182 81.7065 66.1135 82.5135 65.5088L83.5223 65.9119C83.3205 65.9119 83.1188 66.1135 82.917 66.3151C82.7153 66.5166 82.5135 66.7182 82.3118 66.9198C82.11 67.1213 81.9083 67.1213 81.9083 67.3229C81.9083 67.3229 81.7065 67.5245 81.5048 67.726C81.3031 67.9276 81.303 68.1292 81.1013 68.1292C81.1013 68.3307 80.8995 68.3307 80.8995 68.5323C80.8995 68.5323 80.6978 68.7339 80.6978 68.9354C80.4961 69.3386 80.4961 69.7417 80.4961 70.1448C80.4961 70.5479 80.6978 70.7495 80.8995 70.7495ZM79.6891 48.1742L79.4873 45.3522C79.4873 43.7397 79.8908 42.9335 80.8995 42.9335C81.5048 42.9335 82.3118 43.135 83.3205 43.3366C84.3293 43.5382 84.9345 43.9413 84.9345 44.3444C84.9345 44.7475 84.531 45.1507 83.9258 45.3522C82.917 44.9491 81.9083 44.7476 81.303 44.7476C81.303 45.1507 81.303 45.7554 81.303 46.1585L81.1013 50.9961C81.1013 50.9961 81.1013 51.1976 81.1013 51.6008H82.3118C83.3205 51.6008 83.9258 52.0039 83.9258 52.6086C83.9258 52.8102 83.9258 53.0117 83.724 53.2133C83.5223 53.4149 83.3205 53.4149 82.917 53.4149C82.5135 53.4149 82.3118 53.4149 81.9083 53.4149H81.1013C81.1013 54.2211 81.1013 55.229 81.1013 56.0352L80.8995 62.2838C80.8995 63.4931 80.8995 64.2994 80.8995 64.2994H83.5223C84.3293 64.2994 84.7328 64.501 84.7328 65.1057C84.7328 65.5088 84.531 65.7104 84.3293 65.9119C84.1275 66.1135 83.724 66.1135 83.3205 66.1135H80.4961C80.2943 66.1135 79.8908 65.9119 79.6891 65.7104C79.4873 65.5088 79.2856 65.3072 79.2856 64.9041V64.0978L79.0838 58.2524L79.6891 48.1742ZM91.3905 64.0978C91.3905 64.7025 91.1887 65.3072 90.7852 65.9119C90.3817 66.7182 89.9782 67.3229 89.373 67.9276C88.7677 68.5323 88.3642 68.7338 87.759 68.7338C87.3555 68.7338 87.1538 68.5323 87.1538 68.3307C87.1538 68.1292 87.3555 67.726 87.5573 67.5245C87.9608 66.9198 88.3642 65.9119 88.566 64.2994C88.7677 62.8885 89.1712 62.2838 89.9782 62.2838C90.987 62.2838 91.3905 62.8884 91.3905 64.0978ZM98.4517 45.7554L98.2499 43.9413V43.7397C98.2499 43.3366 98.2499 42.9335 98.4517 42.5303C98.6534 42.3288 99.0569 42.1272 99.6622 42.1272C100.267 42.1272 100.873 42.3288 101.478 42.5303C102.083 42.9335 102.487 43.3366 102.89 43.9413C103.495 45.1507 103.899 46.3601 103.899 47.771C103.899 49.182 103.697 50.3914 103.495 51.1976C103.294 52.0039 102.89 52.8102 102.487 53.4149C103.294 54.2211 103.899 55.6321 104.101 57.6477C104.101 58.0509 104.101 58.6556 104.101 59.2603C104.101 59.865 104.101 60.4697 103.899 61.0744C103.697 61.6791 103.697 62.2838 103.294 62.8885C103.092 63.4931 102.688 63.8963 102.285 64.2994C101.478 65.1057 100.267 65.5088 98.8552 65.5088C98.4517 65.5088 98.0482 65.3072 97.8464 64.9041C97.8464 64.501 97.6447 64.0978 97.6447 63.6947L98.0482 56.4384L98.4517 45.7554ZM99.8639 62.2838V63.8963C100.671 63.6947 101.276 63.2916 101.68 62.4853C102.083 61.6791 102.285 61.0744 102.285 60.4697C102.285 59.865 102.285 59.2603 102.285 59.0587C102.285 58.8571 102.285 58.2524 102.083 57.6477C102.083 57.043 101.881 56.6399 101.68 56.2368C101.276 55.229 100.873 54.6243 100.066 54.6243C100.066 56.0352 99.8639 57.8493 99.8639 59.865V62.2838ZM100.469 43.9413C100.267 44.546 100.066 45.7554 100.066 47.5695V52.6086C101.276 52.6086 101.881 51.1976 101.881 48.3757C101.881 45.5538 101.478 43.9413 100.469 43.9413ZM110.355 63.6947C110.355 65.3072 109.951 65.9119 109.144 65.9119C108.741 65.9119 108.337 65.7104 108.136 65.1057C108.337 64.7025 108.539 62.6869 108.539 59.2603C108.539 58.6556 108.539 57.8493 108.337 56.6399C108.136 55.4305 108.136 54.6243 108.136 54.2211V53.4149C108.136 53.4149 107.732 52.407 107.127 50.7945C105.513 46.9648 104.908 44.7475 104.908 43.9413V43.7397L105.715 43.135C106.32 43.135 107.329 44.9491 108.136 48.3757C108.539 49.9883 108.741 50.593 108.741 50.7945C108.741 50.593 108.943 49.5851 109.346 48.1742C109.951 44.546 110.758 42.5303 111.565 42.5303C111.767 42.5303 111.969 42.5303 112.171 42.7319C112.372 42.9335 112.372 43.135 112.372 43.3366C112.372 44.546 111.969 46.1585 111.364 48.3757C110.758 50.593 110.355 52.2055 110.355 53.4149V63.6947V63.6947ZM117.618 53.6164C117.82 53.2133 118.021 52.2055 118.021 50.593V47.3679C118.021 45.9569 118.021 44.9491 117.82 44.1429C118.021 43.3366 118.223 42.9335 118.828 42.9335H120.241C121.653 42.9335 122.46 43.5382 123.065 44.546C123.468 45.5538 123.67 46.5616 123.67 47.9726C123.67 49.5851 123.67 50.5929 123.468 50.9961C123.468 51.3992 123.267 51.8023 123.267 52.0039C123.267 52.407 123.065 52.6086 122.863 52.8102C122.661 53.0117 122.661 53.2133 122.46 53.4149C122.258 53.6164 122.056 53.818 121.854 54.0196C121.249 54.4227 120.644 54.6243 119.837 55.0274V58.6556L120.039 65.1057C120.039 65.3072 119.837 65.7104 119.635 65.9119C119.434 66.1135 119.232 66.1135 118.828 66.1135L118.021 65.7104C117.82 64.501 117.618 62.6869 117.618 60.6712L117.82 54.6243C117.618 54.2211 117.618 54.0196 117.618 53.6164ZM119.635 46.7632V53.4149C121.047 53.2133 121.653 51.3992 121.653 47.5695C121.653 46.5616 121.451 45.7554 121.249 45.3522C121.047 44.9491 120.442 44.7476 119.837 44.7476C119.837 44.7476 119.635 44.7476 119.434 44.7476V46.7632H119.635ZM127.302 54.0196V57.6477C127.302 60.6712 127.503 63.09 127.907 64.7025L127.503 65.7104H126.495L126.091 65.3072C126.091 64.2994 126.091 63.09 126.091 61.8806C126.091 60.6712 126.091 57.8493 125.889 53.6164C125.688 49.3836 125.688 46.3601 125.688 44.3444C125.688 43.3366 126.091 42.7319 126.898 42.7319C128.109 42.7319 129.117 43.135 129.924 43.7397C130.731 44.3444 131.135 45.3522 131.135 46.3601V48.7789C131.135 49.3836 130.933 49.9883 130.731 50.593C130.53 51.1976 130.126 51.8023 129.924 52.2055C129.521 52.8102 129.521 53.2133 129.319 53.2133C129.521 53.818 129.723 54.8258 129.924 56.4384C130.53 60.0665 131.337 62.4853 132.144 64.0978C132.345 64.501 132.547 64.9041 132.547 65.1057C132.547 65.3072 132.547 65.5088 132.345 65.7104C132.144 65.9119 131.942 65.9119 131.74 65.9119C131.337 65.9119 130.731 65.3072 130.328 64.2994C129.924 63.2916 129.521 62.0822 129.319 60.6712C128.512 56.6399 127.907 54.4227 127.907 53.818H127.302V54.0196ZM128.916 44.9491C128.714 44.1429 128.109 43.7397 127.302 43.7397V44.3444C127.302 45.3522 127.302 46.5616 127.302 48.3757C127.302 50.1898 127.302 51.3992 127.302 52.2055C127.907 52.0039 128.31 51.1976 128.512 49.9883C128.916 48.7789 128.916 47.9726 128.916 47.3679C128.916 46.7632 128.916 46.3601 128.916 45.9569C129.117 45.7554 128.916 45.3522 128.916 44.9491ZM137.591 65.3072H135.573C135.372 65.3072 135.17 65.3072 134.968 65.5088C134.766 65.7104 134.565 65.7104 134.363 65.7104C134.161 65.7104 133.959 65.7104 133.758 65.5088C133.556 65.3072 133.556 65.1057 133.556 64.7025C133.556 62.6869 134.363 59.0587 135.775 54.0196C137.389 48.9804 138.196 45.7554 138.6 44.546L135.775 44.7476C135.573 44.7476 135.372 44.7475 135.17 44.546C134.968 44.3444 134.968 44.1429 134.968 43.9413C134.968 43.3366 136.179 42.9335 138.801 42.9335C140.012 42.9335 140.415 43.3366 140.415 43.9413C140.415 44.7475 140.214 45.7554 139.608 47.1663C139.205 48.5773 138.801 49.5851 138.801 49.9883C138.6 51.8023 137.994 54.4227 136.986 57.8493C135.977 61.2759 135.573 63.2916 135.573 63.6947H136.179H137.591C138.6 63.6947 139.003 63.8963 139.003 64.501C139.003 64.7025 138.801 64.9041 138.6 65.1057C138.196 65.1057 137.793 65.3072 137.591 65.3072ZM142.231 48.1742L142.029 45.3522C142.029 43.7397 142.433 42.9335 143.442 42.9335C144.047 42.9335 144.854 43.135 145.863 43.3366C146.871 43.5382 147.477 43.9413 147.477 44.3444C147.477 44.7475 147.073 45.1507 146.468 45.3522C145.459 44.9491 144.45 44.7476 143.845 44.7476C143.845 45.1507 143.845 45.7554 143.845 46.1585L143.643 50.9961C143.643 50.9961 143.643 51.1976 143.643 51.6008H144.854C145.863 51.6008 146.468 52.0039 146.468 52.6086C146.468 52.8102 146.468 53.0117 146.266 53.2133C146.064 53.4149 145.863 53.4149 145.459 53.4149C145.056 53.4149 144.854 53.4149 144.45 53.4149H143.643C143.643 54.2211 143.643 55.229 143.643 56.0352L143.442 62.2838C143.442 63.4931 143.442 64.2994 143.442 64.2994H146.064C146.871 64.2994 147.275 64.501 147.275 65.1057C147.275 65.5088 147.073 65.7104 146.871 65.9119C146.67 66.1135 146.266 66.1135 145.863 66.1135H143.038C142.836 66.1135 142.433 65.9119 142.231 65.7104C142.029 65.5088 141.828 65.3072 141.828 64.9041V64.0978L141.626 58.2524L142.231 48.1742ZM151.31 65.3072C149.696 64.2994 149.091 61.6791 149.091 57.2446V55.229V54.4227C149.091 50.9961 149.292 48.7789 149.494 47.3679C149.898 45.7554 150.503 44.546 151.108 43.9413C152.117 43.135 153.327 42.7319 154.739 42.7319C155.143 42.7319 155.345 42.7319 155.546 42.9335C155.748 43.135 155.748 43.3366 155.748 43.5382C155.748 43.7397 155.748 43.9413 155.546 44.1429C155.546 44.3444 155.345 44.3444 155.143 44.3444H153.529C153.126 44.3444 152.722 44.546 152.319 45.1507C151.915 45.7554 151.713 46.5616 151.512 47.3679C151.31 48.9804 151.108 50.3914 151.108 51.3992V51.6008V58.454C151.108 59.865 151.108 60.8728 151.31 61.2759C151.512 61.6791 151.713 62.2838 151.713 62.4853C151.915 62.8885 152.117 63.09 152.319 63.2916C152.924 63.6947 153.529 64.0978 154.336 64.0978C154.538 64.0978 154.941 64.0978 155.143 63.8963C155.345 63.8963 155.748 63.8963 155.95 64.0978C156.152 64.2994 156.353 64.501 156.353 64.7025C156.353 65.5088 155.748 66.1135 154.538 66.1135C153.933 66.1135 153.529 66.1135 152.924 65.9119C151.915 65.5088 151.512 65.3072 151.31 65.3072ZM161.397 54.0196L161.599 61.2759V62.2838V63.2916H162.002H163.011C164.02 63.2916 164.423 63.4931 164.423 64.0978C164.423 64.2994 164.222 64.7025 164.02 64.9041C163.818 65.1057 163.616 65.3072 163.213 65.3072H161.801C160.792 65.3072 160.187 65.3072 159.783 65.3072C159.581 65.3072 159.38 65.3072 159.38 65.3072C158.573 65.3072 158.169 65.1057 158.169 64.501C158.169 64.2994 158.169 64.0978 158.371 63.8963C158.573 63.6947 158.573 63.6947 158.774 63.6947H159.783V63.2916L159.38 55.8337L159.581 48.1742C159.581 46.9648 159.581 45.5538 159.38 44.546H158.774H157.967C157.564 44.546 157.362 44.546 157.16 44.3444C156.959 44.1429 156.959 43.9413 156.959 43.5382C156.959 42.9335 157.564 42.7319 158.573 42.7319H162.608C163.616 42.7319 164.02 42.9335 164.02 43.5382C164.02 43.7397 164.02 43.9413 163.818 44.1429C163.616 44.3444 163.415 44.3444 163.213 44.3444H161.397C161.397 45.3522 161.599 46.3601 161.599 47.5695L161.397 54.0196ZM175.52 43.7397C175.52 43.5382 175.318 43.3366 175.318 43.135C175.318 42.5303 175.721 42.3288 176.327 42.3288C176.932 42.3288 177.335 42.5303 177.335 43.135C177.335 43.9413 177.335 44.3444 177.335 44.546V44.7476C176.932 45.7554 176.932 46.7632 176.932 47.9726V50.3914C176.932 51.8023 176.73 54.0196 176.327 56.8415C175.923 59.6634 175.721 61.8806 175.721 63.09C175.721 65.5088 175.318 66.5166 174.309 66.5166C173.704 66.5166 173.3 66.1135 173.3 65.1057C173.3 64.0978 173.3 63.09 173.3 62.0822C173.3 61.0744 173.099 60.0665 172.897 58.8571C172.695 57.6477 172.695 56.6399 172.493 55.8337C172.292 55.0274 172.292 54.0196 172.09 52.407C171.888 50.9961 171.686 49.9883 171.686 49.3836C171.686 50.1898 171.485 50.9961 171.485 51.6008C171.485 52.2055 171.485 53.818 171.283 56.0352C171.081 58.2524 170.879 60.2681 170.476 62.4853C170.072 64.7025 169.467 65.7104 169.064 65.7104C168.257 65.7104 167.45 63.2916 167.046 58.454C166.844 56.4384 166.643 54.4227 166.441 52.2055C166.037 46.9648 165.634 43.9413 165.432 43.135C165.634 42.7319 166.037 42.5303 166.441 42.5303C167.248 42.5303 167.45 43.3366 167.45 44.9491C167.45 46.5616 167.651 49.182 168.257 52.6086C168.66 56.0352 169.064 58.454 169.064 60.0665C170.072 53.4149 170.476 48.3757 170.476 44.9491L171.485 44.546C171.686 44.546 172.09 44.546 172.292 44.7476C172.493 44.9491 172.493 45.1507 172.493 45.3522V46.3601C173.099 48.5773 173.704 51.8023 174.107 55.8337C174.309 57.6477 174.511 59.2603 174.511 60.2681C174.914 57.043 175.116 53.4149 175.116 48.9804C175.116 48.3757 175.116 47.5695 175.318 46.3601C175.318 45.3522 175.52 44.3444 175.52 43.7397ZM180.16 65.7104C179.555 65.7104 179.353 64.2994 179.353 61.2759V50.3914C179.353 49.5851 179.353 48.5773 179.151 46.9648C178.949 45.5538 178.949 44.546 178.949 44.1429C178.949 43.7397 179.151 43.3366 179.353 43.135C179.555 42.9335 179.958 42.7319 180.16 42.7319C182.581 42.7319 184.397 44.1429 185.809 46.9648C186.616 48.5773 187.019 50.1898 187.019 52.0039V53.818V55.6321C187.019 57.8493 186.818 59.4618 186.616 60.2681C186.414 61.0744 186.212 61.6791 186.011 62.2838C185.809 62.8885 185.607 63.2916 185.204 63.6947C184.397 64.7025 183.59 65.3072 182.379 65.9119H180.16V65.7104ZM181.572 63.09V63.8963C183.59 63.8963 184.8 61.8806 185.204 57.8493C185.204 56.8415 185.405 56.0352 185.405 55.229C185.405 48.3757 183.993 44.7475 181.37 44.3444C181.169 45.1507 181.169 46.5616 181.169 47.9726C181.169 49.5851 181.169 52.0039 181.37 55.4305C181.572 58.8571 181.572 61.4775 181.572 63.09ZM192.87 65.3072H190.852C190.651 65.3072 190.449 65.3072 190.247 65.5088C190.045 65.7104 189.844 65.7104 189.642 65.7104C189.44 65.7104 189.238 65.7104 189.037 65.5088C188.835 65.3072 188.835 65.1057 188.835 64.7025C188.835 62.6869 189.642 59.0587 191.054 54.0196C192.668 48.9804 193.475 45.7554 193.879 44.546L191.054 44.7476C190.852 44.7476 190.651 44.7475 190.449 44.546C190.247 44.3444 190.247 44.1429 190.247 43.9413C190.247 43.3366 191.458 42.9335 194.08 42.9335C195.291 42.9335 195.694 43.3366 195.694 43.9413C195.694 44.7475 195.493 45.7554 194.887 47.1663C194.484 48.5773 194.08 49.5851 194.08 49.9883C193.879 51.8023 193.273 54.4227 192.265 57.8493C191.256 61.2759 190.852 63.2916 190.852 63.6947H191.458H192.87C193.879 63.6947 194.282 63.8963 194.282 64.501C194.282 64.7025 194.08 64.9041 193.879 65.1057C193.475 65.1057 193.273 65.3072 192.87 65.3072ZM200.94 54.0196L201.142 61.2759V62.2838V63.2916H201.545H202.554C203.563 63.2916 203.966 63.4931 203.966 64.0978C203.966 64.2994 203.764 64.7025 203.563 64.9041C203.361 65.1057 203.159 65.3072 202.756 65.3072H201.343C200.335 65.3072 199.729 65.3072 199.326 65.3072C199.124 65.3072 198.922 65.3072 198.922 65.3072C198.115 65.3072 197.712 65.1057 197.712 64.501C197.712 64.2994 197.712 64.0978 197.914 63.8963C198.115 63.6947 198.115 63.6947 198.317 63.6947H199.326V63.2916L199.124 56.0352L199.326 48.3757C199.326 47.1663 199.326 45.7554 199.124 44.7476H198.519H197.712C197.308 44.7476 197.107 44.7475 196.905 44.546C196.703 44.3444 196.703 44.1429 196.703 43.7397C196.703 43.135 197.308 42.9335 198.317 42.9335H202.352C203.361 42.9335 203.764 43.135 203.764 43.7397C203.764 43.9413 203.764 44.1429 203.563 44.3444C203.361 44.546 203.159 44.546 202.957 44.546H201.142C201.142 45.5538 201.343 46.5616 201.343 47.771L200.94 54.0196ZM213.045 58.454L213.448 60.4697C213.448 60.6712 213.65 61.4775 213.852 62.4853C214.054 63.4931 214.255 64.2994 214.255 64.7025C214.255 65.1057 214.054 65.5088 213.65 65.7104C213.247 65.7104 212.843 65.7104 212.44 65.5088C212.036 65.3072 212.036 65.1057 212.036 64.7025C212.036 63.6947 211.834 62.2838 211.633 60.4697L208.203 60.0665C208.001 60.8728 207.799 61.6791 207.799 62.4853C207.598 63.2916 207.598 64.0978 207.396 64.501C207.194 65.3072 206.791 65.7104 206.185 65.7104C205.984 65.7104 205.58 65.7104 205.378 65.5088C205.177 65.3072 204.975 65.1057 204.975 64.9041V64.7025C206.589 58.8571 207.598 53.0117 208.405 47.3679C208.405 47.1663 208.405 46.7632 208.405 45.9569C208.606 44.3444 208.808 43.135 209.01 42.7319H210.22C210.624 42.7319 210.826 42.7319 211.027 42.9335C211.229 43.135 211.431 43.3366 211.431 43.5382C211.431 45.3522 211.633 47.771 212.036 51.1976C212.843 54.4227 213.045 57.043 213.045 58.454ZM208.203 58.6556C208.606 58.8571 209.615 59.0587 211.229 59.2603C211.229 58.8571 211.229 58.2524 211.229 57.4462C211.229 56.6399 211.229 55.6321 211.027 54.4227C211.027 53.2133 210.826 51.8023 210.624 50.1898C210.422 48.5773 210.422 47.3679 210.22 46.5616C209.212 52.2055 208.405 56.2368 208.203 58.6556ZM217.887 43.5382L217.685 46.1585C217.685 46.9648 217.685 47.9726 217.685 49.3836C217.685 50.7945 217.685 51.8023 217.685 52.407C218.694 52.0039 219.501 51.8023 219.904 51.8023C220.308 51.8023 220.711 51.8023 220.711 52.0039C220.913 52.2055 220.913 52.2055 220.913 52.407C220.913 52.6086 220.913 52.6086 220.913 52.8102L220.711 53.0117C220.51 53.0117 220.51 53.2133 220.308 53.2133C220.106 53.2133 220.106 53.4149 219.703 53.4149C219.501 53.4149 219.299 53.6164 219.097 53.6164C218.694 53.818 218.089 53.818 217.685 54.0196C217.483 54.4227 217.483 55.0274 217.483 56.0352V56.4384L217.282 61.8806C217.282 63.4931 217.282 64.2994 217.483 64.2994H219.904C221.115 64.2994 221.72 64.7025 221.72 65.3072C221.72 65.5088 221.518 65.7104 221.316 65.9119C221.115 66.1135 220.913 66.1135 220.51 66.1135C219.703 65.9119 218.694 65.7104 217.483 65.7104C217.08 65.9119 216.676 66.1135 216.475 66.1135C216.071 66.1135 215.869 65.9119 215.668 65.7104C215.466 65.5088 215.466 65.3072 215.466 64.9041C215.466 63.4931 215.668 60.0665 215.869 54.6243C215.062 55.0274 214.659 55.229 214.255 55.229C213.852 55.229 213.448 55.0274 213.448 54.6243C213.448 54.0196 214.255 53.6164 215.869 53.2133C215.869 51.6008 215.869 50.3914 215.869 49.5851V49.3836C215.668 47.9726 215.668 46.9648 215.668 46.1585C215.668 43.9413 216.071 42.9335 216.878 42.9335C217.08 42.9335 217.282 42.9335 217.483 43.135C217.887 43.135 217.887 43.3366 217.887 43.5382ZM230.799 58.454L231.202 60.4697C231.202 60.6712 231.404 61.4775 231.606 62.4853C231.807 63.4931 232.009 64.2994 232.009 64.7025C232.009 65.1057 231.807 65.5088 231.404 65.7104C231 65.7104 230.597 65.7104 230.193 65.5088C229.79 65.3072 229.79 65.1057 229.79 64.7025C229.79 63.6947 229.588 62.2838 229.386 60.4697L225.957 60.0665C225.755 60.8728 225.553 61.6791 225.553 62.4853C225.351 63.2916 225.351 64.0978 225.15 64.501C224.948 65.3072 224.544 65.7104 223.939 65.7104C223.737 65.7104 223.334 65.7104 223.132 65.5088C222.93 65.3072 222.729 65.1057 222.729 64.9041V64.7025C224.343 58.8571 225.351 53.0117 226.158 47.3679C226.158 47.1663 226.158 46.7632 226.158 45.9569C226.36 44.3444 226.562 43.135 226.764 42.7319H227.974C228.378 42.7319 228.579 42.7319 228.781 42.9335C228.983 43.135 229.185 43.3366 229.185 43.5382C229.185 45.3522 229.386 47.771 229.79 51.1976C230.597 54.4227 230.799 57.043 230.799 58.454ZM226.158 58.6556C226.562 58.8571 227.571 59.0587 229.185 59.2603C229.185 58.8571 229.185 58.2524 229.185 57.4462C229.185 56.6399 229.185 55.6321 228.983 54.4227C228.983 53.2133 228.781 51.8023 228.579 50.1898C228.378 48.5773 228.378 47.3679 228.176 46.5616C226.965 52.2055 226.36 56.2368 226.158 58.6556ZM235.439 65.3072C233.825 64.2994 233.22 61.6791 233.22 57.2446V55.229V54.4227C233.22 50.9961 233.421 48.7789 233.623 47.3679C234.027 45.7554 234.632 44.546 235.237 43.9413C236.246 43.135 237.456 42.7319 238.869 42.7319C239.272 42.7319 239.474 42.7319 239.676 42.9335C239.877 43.135 239.877 43.3366 239.877 43.5382C239.877 43.7397 239.877 43.9413 239.676 44.1429C239.474 44.3444 239.272 44.3444 239.07 44.3444H237.456C237.053 44.3444 236.649 44.546 236.246 45.1507C235.842 45.7554 235.641 46.5616 235.439 47.3679C235.237 48.9804 235.035 50.3914 235.035 51.3992V51.6008L234.834 58.2524C234.834 59.6634 234.834 60.6712 235.035 61.0744C235.237 61.4775 235.439 62.0822 235.439 62.2838C235.641 62.6869 235.842 62.8884 236.044 63.09C236.649 63.4931 237.255 63.8963 238.062 63.8963C238.263 63.8963 238.667 63.8963 238.869 63.6947C239.07 63.6947 239.474 63.6947 239.676 63.8963C239.877 64.0978 240.079 64.2994 240.079 64.501C240.079 65.3072 239.474 65.9119 238.263 65.9119C237.658 65.9119 237.255 65.9119 236.649 65.7104C236.246 65.5088 235.842 65.3072 235.439 65.3072ZM235.641 40.5147C235.439 40.5147 235.439 40.3131 235.439 40.1115C235.439 39.91 235.641 39.7084 235.842 39.5068C236.246 39.3053 236.851 38.499 238.062 37.6928C239.272 36.6849 239.877 36.0802 240.079 35.8787C240.281 35.8787 240.281 35.8787 240.483 35.8787C240.684 35.8787 240.886 36.0802 241.088 36.2818C241.29 36.4834 241.491 36.8865 241.491 37.0881C241.491 37.2896 241.491 37.4912 241.29 37.6928C240.483 38.2975 238.667 39.3053 236.246 40.5147C236.246 40.5147 236.044 40.5147 235.842 40.5147C235.842 40.7162 235.842 40.7162 235.641 40.5147ZM259.245 67.3229C258.438 67.3229 258.236 66.5166 258.236 65.1057V60.6712C258.236 59.6634 258.236 58.2524 258.035 56.2368C257.833 54.2211 257.833 53.0117 257.833 52.2055C257.833 51.6008 257.833 50.7945 257.833 49.7867C257.833 48.7789 257.833 48.1742 257.833 47.5695C257.833 47.771 257.429 49.3836 256.622 52.2055C254.807 59.6634 253.596 63.2916 252.789 63.2916C252.386 63.2916 251.982 63.09 251.781 62.8885C251.579 62.6869 251.377 62.2838 251.377 61.8806C251.377 60.8728 250.974 58.6556 250.167 55.229C249.36 51.8023 248.553 49.182 247.947 47.5695C247.544 55.6321 247.342 61.0744 247.342 63.8963V64.9041C247.342 65.3072 247.342 65.5088 247.14 65.7104C246.939 65.9119 246.737 65.9119 246.333 65.9119C245.93 65.9119 245.728 65.9119 245.526 65.7104C245.325 65.5088 245.123 65.3072 245.123 65.1057C245.123 62.6869 245.325 59.2603 245.728 54.6243C246.132 49.9883 246.333 46.5616 246.333 44.1429C246.132 43.9413 246.132 43.7397 246.132 43.3366C246.132 43.135 246.333 42.9335 246.535 42.7319C246.737 42.5303 247.14 42.5303 247.342 42.5303C247.746 42.5303 248.754 44.7475 250.167 49.3836C251.579 54.0196 252.588 57.2446 252.789 58.8571C252.789 58.454 253.193 57.6477 253.395 56.2368C253.596 54.8258 254 53.4149 254.403 52.0039C254.807 50.5929 255.21 48.9804 255.614 47.5695C256.622 44.1429 257.429 42.3288 258.035 42.3288C258.236 42.3288 258.64 42.3288 258.842 42.5303C259.043 42.7319 259.245 42.9335 259.245 43.135C259.245 44.7475 259.245 47.1663 259.447 50.593C259.649 53.818 259.649 56.2368 259.649 57.6477V61.2759C259.649 61.4775 259.649 62.2838 259.85 63.6947V64.2994C259.85 64.501 260.052 64.9041 260.052 65.1057C260.052 65.3072 259.85 65.7104 259.649 65.9119C260.052 67.1213 259.649 67.3229 259.245 67.3229ZM262.473 60.0665C262.271 58.0509 262.07 56.4384 262.07 55.0274V53.818C262.07 53.6164 262.07 53.6164 262.07 53.6164V53.0117C262.07 49.3836 262.271 46.9648 262.675 45.3522C263.078 44.1429 263.28 43.3366 263.684 42.9335C264.087 42.7319 264.289 42.5303 264.692 42.5303C267.315 42.5303 269.131 43.9413 270.14 46.5616C270.745 48.1742 270.947 49.9883 270.947 52.2055V52.407V56.2368C270.947 62.8884 269.333 66.1135 266.306 66.1135C265.096 66.1135 264.087 65.5088 263.482 64.0978C263.078 62.6869 262.675 61.2759 262.473 60.0665ZM264.087 50.3914L263.885 53.6164C263.885 56.8415 264.087 59.865 264.692 62.2838C265.298 63.6947 265.903 64.501 266.306 64.9041C266.71 64.9041 267.113 64.7025 267.517 64.501C267.92 64.2994 268.122 63.6947 268.324 63.09C268.526 62.4853 268.727 61.8806 268.727 61.2759C268.929 60.6712 268.929 60.0665 268.929 59.2603C269.131 58.0509 269.131 57.043 269.131 56.2368C269.131 55.4305 269.131 54.0196 268.929 52.2055C268.727 50.3914 268.727 49.182 268.727 48.1742V47.5695C268.727 46.7632 268.526 45.9569 267.92 45.3522C267.315 44.7475 266.71 44.3444 265.903 44.3444C265.096 44.3444 264.692 44.7476 264.289 45.7554C264.087 46.5616 263.885 47.3679 263.885 48.5773L264.087 50.3914ZM282.245 43.7397C282.245 43.5382 282.043 43.3366 282.043 43.135C282.043 42.5303 282.446 42.3288 283.052 42.3288C283.657 42.3288 284.06 42.5303 284.06 43.135C284.06 43.9413 284.06 44.3444 284.06 44.546V44.7476C283.657 45.7554 283.657 46.7632 283.657 47.9726V50.3914C283.657 51.8023 283.455 54.0196 283.052 56.8415C282.648 59.6634 282.446 61.8806 282.446 63.09C282.446 65.5088 282.043 66.5166 281.034 66.5166C280.429 66.5166 280.025 66.1135 280.025 65.1057C280.025 64.0978 280.025 63.09 280.025 62.0822C280.025 61.0744 279.824 60.0665 279.622 58.8571C279.42 57.6477 279.42 56.6399 279.218 55.8337C279.017 55.0274 279.017 54.0196 278.815 52.407C278.613 50.9961 278.411 49.9883 278.411 49.3836C278.411 50.1898 278.21 50.9961 278.21 51.6008C278.21 52.2055 278.21 53.818 278.008 56.0352C277.806 58.2524 277.604 60.2681 277.201 62.4853C276.797 64.7025 276.192 65.7104 275.789 65.7104C274.982 65.7104 274.175 63.2916 273.771 58.454C273.569 56.4384 273.368 54.4227 273.166 52.2055C272.762 46.9648 272.359 43.9413 272.157 43.135C272.359 42.7319 272.762 42.5303 273.166 42.5303C273.973 42.5303 274.175 43.3366 274.175 44.9491C274.175 46.5616 274.376 49.182 274.982 52.6086C275.385 56.0352 275.789 58.454 275.789 60.0665C276.797 53.4149 277.201 48.3757 277.201 44.9491L278.21 44.546C278.411 44.546 278.815 44.546 279.017 44.7476C279.218 44.9491 279.218 45.1507 279.218 45.3522V46.3601C279.824 48.5773 280.429 51.8023 280.832 55.8337C281.034 57.6477 281.236 59.2603 281.236 60.2681C281.639 57.043 281.841 53.4149 281.841 48.9804C281.841 48.3757 281.841 47.5695 282.043 46.3601C282.245 45.3522 282.245 44.3444 282.245 43.7397ZM289.507 54.0196L289.709 61.2759V62.2838V63.2916H290.113H291.121C292.13 63.2916 292.534 63.4931 292.534 64.0978C292.534 64.2994 292.332 64.7025 292.13 64.9041C291.928 65.1057 291.727 65.3072 291.323 65.3072H289.911C288.902 65.3072 288.297 65.3072 287.893 65.3072C287.692 65.3072 287.49 65.3072 287.49 65.3072C286.683 65.3072 286.28 65.1057 286.28 64.501C286.28 64.2994 286.28 64.0978 286.481 63.8963C286.683 63.6947 286.683 63.6947 286.885 63.6947H287.893V63.2916L287.692 56.0352L287.893 48.3757C287.893 47.1663 287.894 45.7554 287.692 44.7476H287.087H286.28C285.876 44.7476 285.674 44.7475 285.473 44.546C285.271 44.3444 285.271 44.1429 285.271 43.7397C285.271 43.135 285.876 42.9335 286.885 42.9335H290.92C291.928 42.9335 292.332 43.135 292.332 43.7397C292.332 43.9413 292.332 44.1429 292.13 44.3444C291.928 44.546 291.727 44.546 291.525 44.546H289.709C289.709 45.5538 289.911 46.5616 289.911 47.771L289.507 54.0196ZM294.349 48.1742L294.148 45.3522C294.148 43.7397 294.551 42.9335 295.56 42.9335C296.165 42.9335 296.972 43.135 297.981 43.3366C298.99 43.5382 299.595 43.9413 299.595 44.3444C299.595 44.7475 299.191 45.1507 298.586 45.3522C297.577 44.9491 296.569 44.7476 295.963 44.7476C295.963 45.1507 295.963 45.7554 295.963 46.1585L295.762 50.9961C295.762 50.9961 295.762 51.1976 295.762 51.6008H296.972C297.981 51.6008 298.586 52.0039 298.586 52.6086C298.586 52.8102 298.586 53.0117 298.384 53.2133C298.183 53.4149 297.981 53.4149 297.577 53.4149C297.174 53.4149 296.972 53.4149 296.569 53.4149H295.762C295.762 54.2211 295.762 55.229 295.762 56.0352L295.56 62.2838C295.56 63.4931 295.56 64.2994 295.56 64.2994H298.183C298.99 64.2994 299.393 64.501 299.393 65.1057C299.393 65.5088 299.191 65.7104 298.99 65.9119C298.788 66.1135 298.384 66.1135 297.981 66.1135H295.156C294.955 66.1135 294.551 65.9119 294.349 65.7104C294.148 65.5088 293.946 65.3072 293.946 64.9041V64.0978L293.744 58.2524L294.349 48.1742Z" fill="black"/>
<path d="M63.1471 85.8669L63.3488 79.4168C63.3488 78.409 63.7523 77.6027 64.5593 76.7964V76.998H64.761C65.3663 76.998 65.9715 78.0058 66.7785 79.8199C67.5855 81.634 68.3925 83.6497 68.9978 85.8669C69.603 88.0841 70.2083 90.3013 71.0153 92.5186C71.6205 94.7358 72.024 96.1467 72.2257 96.5499C72.6292 91.7123 72.831 86.0685 72.831 79.2152V78.2074C72.831 77.6027 73.0327 77.1996 73.638 77.1996C74.0415 77.1996 74.2432 77.4011 74.445 77.6027C74.6467 77.8043 74.6467 78.2074 74.6467 78.6105V81.2309C74.6467 83.8512 74.445 87.4794 74.2432 91.9139C74.0415 96.3483 73.638 98.9687 73.4362 99.5733C72.831 99.7749 72.4275 99.7749 72.2257 99.7749C72.024 99.7749 71.8222 99.7749 71.6205 99.5733C71.4187 99.3718 71.4187 99.1702 71.217 98.7671C71.217 98.364 71.0153 98.1624 71.0153 98.1624V97.9608C71.0153 97.1546 70.2083 94.3326 68.5943 89.8982C66.9803 85.2622 65.7698 82.2387 64.9628 80.6262V97.9608C64.9628 97.9608 64.9628 98.1624 65.1645 98.1624C65.3663 98.364 65.3663 98.5655 65.3663 98.7671C65.3663 98.9686 65.1645 99.1702 64.9628 99.3718C64.761 99.5733 64.5593 99.7749 64.1558 99.7749C63.3488 99.7749 62.9453 99.1702 62.9453 97.7593L63.1471 85.8669ZM80.4974 88.2857L80.6992 95.542V96.5499V97.5577H81.1027H82.1114C83.1202 97.5577 83.5237 97.7593 83.5237 98.3639C83.5237 98.5655 83.3219 98.9686 83.1202 99.1702C82.9184 99.3718 82.7167 99.5733 82.3132 99.5733H80.9009C79.8922 99.5733 79.2869 99.5733 78.8834 99.5733C78.6817 99.5733 78.4799 99.5733 78.4799 99.5733C77.673 99.5733 77.2695 99.3718 77.2695 98.7671C77.2695 98.5655 77.2695 98.364 77.4712 98.1624C77.673 97.9608 77.6729 97.9608 77.8747 97.9608H78.6817V97.5577V90.0998L78.8834 82.4403C78.8834 81.2309 78.8834 79.8199 78.6817 78.8121H78.0765H77.2695C76.866 78.8121 76.6642 78.8121 76.4625 78.6105C76.2607 78.409 76.2607 78.2074 76.2607 77.8043C76.2607 77.1996 76.866 76.998 77.8747 76.998H81.9097C82.9184 76.998 83.3219 77.1996 83.3219 77.8043C83.3219 78.0058 83.3219 78.2074 83.1202 78.409C82.7167 78.6105 82.5149 78.6105 82.3132 78.6105H80.4974C80.4974 79.6184 80.6992 80.6262 80.6992 81.8356L80.4974 88.2857ZM85.3394 82.4403L85.1376 79.6184C85.1376 78.0058 85.5411 77.1996 86.5499 77.1996C87.1551 77.1996 87.9621 77.4011 88.9709 77.6027C89.9796 77.8043 90.5849 78.2074 90.5849 78.6105C90.5849 79.0137 90.1814 79.4168 89.5761 79.6184C88.5674 79.2152 87.5586 79.0137 86.9534 79.0137C86.9534 79.4168 86.9534 80.0215 86.9534 80.4246L86.7516 85.2622C86.7516 85.2622 86.7516 85.4638 86.7516 85.8669H87.9621C88.9709 85.8669 89.5761 86.27 89.5761 86.8747C89.5761 87.0763 89.5761 87.2778 89.3744 87.4794C89.1726 87.681 88.9709 87.681 88.5674 87.681C88.1639 87.681 87.9621 87.681 87.5586 87.681H86.7516C86.7516 88.4872 86.7516 89.4951 86.7516 90.3013L86.5499 96.5499C86.5499 97.7593 86.5499 98.5655 86.5499 98.5655H89.1726C89.9796 98.5655 90.3831 98.7671 90.3831 99.3718C90.3831 99.7749 90.1814 99.9765 89.9796 100.178C89.7779 100.38 89.3744 100.38 88.9709 100.38H86.1464C85.9446 100.38 85.5411 100.178 85.3394 99.9765C85.1376 99.7749 84.9359 99.5733 84.9359 99.1702V98.3639L84.7342 92.5186L85.3394 82.4403ZM92.4006 85.8669L92.6023 79.4168C92.6023 78.409 93.0058 77.6027 93.8128 76.7964V76.998H94.0146C94.6198 76.998 95.2251 78.0058 96.0321 79.8199C96.8391 81.634 97.6461 83.6497 98.2513 85.8669C98.8565 88.0841 99.4618 90.3013 100.269 92.5186C100.874 94.7358 101.278 96.1467 101.479 96.5499C101.883 91.7123 102.085 86.0685 102.085 79.2152V78.2074C102.085 77.6027 102.286 77.1996 102.892 77.1996C103.295 77.1996 103.497 77.4011 103.699 77.6027C103.9 77.8043 103.9 78.2074 103.9 78.6105V81.2309C103.9 83.8512 103.699 87.4794 103.497 91.9139C103.295 96.3483 102.892 98.9687 102.69 99.5733C102.085 99.7749 101.681 99.7749 101.479 99.7749C101.278 99.7749 101.076 99.7749 100.874 99.5733C100.672 99.3718 100.672 99.1702 100.471 98.7671C100.471 98.364 100.269 98.1624 100.269 98.1624V97.9608C100.269 97.1546 99.4618 94.3326 97.8478 89.8982C96.2338 85.2622 95.0233 82.2387 94.2163 80.6262V97.9608C94.2163 97.9608 94.2163 98.1624 94.4181 98.1624C94.6198 98.364 94.6198 98.5655 94.6198 98.7671C94.6198 98.9686 94.4181 99.1702 94.2163 99.3718C94.0146 99.5733 93.8128 99.7749 93.4093 99.7749C92.6023 99.7749 92.1988 99.1702 92.1988 97.7593L92.4006 85.8669ZM113.786 92.7201L114.189 94.7358C114.189 94.9373 114.391 95.7436 114.593 96.7514C114.795 97.7593 114.996 98.5655 114.996 98.9686C114.996 99.3718 114.795 99.7749 114.391 99.9765C113.988 99.9765 113.584 99.9765 113.181 99.7749C112.777 99.5733 112.777 99.3718 112.777 98.9686C112.777 97.9608 112.575 96.5499 112.374 94.7358L108.944 94.3326C108.742 95.1389 108.54 95.9452 108.54 96.7514C108.339 97.5577 108.339 98.364 108.137 98.7671C107.935 99.5733 107.532 99.9765 106.926 99.9765C106.725 99.9765 106.321 99.9765 106.119 99.7749C105.918 99.5733 105.716 99.3718 105.716 99.1702V98.9686C107.33 93.1232 108.339 87.2778 109.146 81.634C109.146 81.4324 109.146 81.0293 109.146 80.2231C109.347 78.6105 109.549 77.4011 109.751 76.998H110.961C111.365 76.998 111.567 76.998 111.768 77.1996C111.97 77.4011 112.172 77.6027 112.172 77.8043C112.172 79.6184 112.374 82.0371 112.777 85.4638C113.382 88.6888 113.786 91.3092 113.786 92.7201ZM108.944 92.9217C109.347 93.1232 110.356 93.3248 111.97 93.5264C111.97 93.1233 111.97 92.5186 111.97 91.7123C111.97 90.906 111.97 89.8982 111.768 88.6888C111.768 87.4794 111.567 86.0685 111.365 84.4559C111.163 82.6418 110.961 81.4324 110.961 80.8277C109.751 86.4716 109.146 90.5029 108.944 92.9217ZM125.487 78.0058C125.487 77.8043 125.286 77.6027 125.286 77.4011C125.286 76.7964 125.689 76.5949 126.294 76.5949C126.9 76.5949 127.303 76.7964 127.303 77.4011C127.303 78.2074 127.303 78.6105 127.303 78.8121V79.0137C126.9 80.0215 126.9 81.0293 126.9 82.2387V84.6575C126.9 86.0685 126.698 88.2857 126.294 91.1076C125.891 93.9295 125.689 96.1467 125.689 97.3561C125.689 99.7749 125.286 100.783 124.277 100.783C123.672 100.783 123.268 100.38 123.268 99.3718C123.268 98.3639 123.268 97.3561 123.268 96.3483C123.268 95.3405 123.066 94.3326 122.865 93.1232C122.663 91.9139 122.663 90.906 122.461 90.0998C122.259 89.2935 122.259 88.2857 122.058 86.6732C121.856 85.2622 121.654 84.2544 121.654 83.6497C121.654 84.4559 121.452 85.2622 121.452 85.8669C121.452 86.4716 121.452 88.0841 121.251 90.3013C121.049 92.5185 120.847 94.5342 120.444 96.7514C120.04 98.9686 119.435 99.9765 119.031 99.9765C118.224 99.9765 117.417 97.5577 117.014 92.7201C116.812 90.7045 116.61 88.6888 116.409 86.4716C116.005 81.2309 115.602 78.2074 115.4 77.4011C115.602 76.998 116.005 76.7964 116.409 76.7964C117.216 76.7964 117.417 77.6027 117.417 79.2152C117.417 80.8277 117.619 83.4481 118.224 86.8747C118.628 90.3013 119.031 92.7201 119.031 94.3326C120.04 87.681 120.444 82.6418 120.444 79.2152L121.452 78.8121C121.654 78.8121 122.058 78.8121 122.259 79.0137C122.461 79.2152 122.461 79.4168 122.461 79.6184V80.6262C123.066 82.8434 123.672 86.0685 124.075 90.0998C124.277 91.9139 124.479 93.5264 124.479 94.5342C124.882 91.3092 125.084 87.681 125.084 83.2465C125.084 82.6418 125.084 81.8356 125.286 80.6262C125.487 79.6184 125.487 78.6105 125.487 78.0058ZM132.75 88.2857L132.952 95.542V96.5499V97.5577H133.356H134.364C135.373 97.5577 135.777 97.7593 135.777 98.3639C135.777 98.5655 135.575 98.9686 135.373 99.1702C135.171 99.3718 134.97 99.5733 134.566 99.5733H133.154C132.145 99.5733 131.54 99.5733 131.136 99.5733C130.935 99.5733 130.733 99.5733 130.733 99.5733C129.926 99.5733 129.522 99.3718 129.522 98.7671C129.522 98.5655 129.522 98.364 129.724 98.1624C129.926 97.9608 129.926 97.9608 130.128 97.9608H131.136V97.5577L130.935 90.3013L131.136 82.6418C131.136 81.4324 131.136 80.0215 130.935 79.0137H130.329H129.522C129.119 79.0137 128.917 79.0137 128.715 78.8121C128.514 78.6105 128.514 78.409 128.514 78.0058C128.514 77.4011 129.119 77.1996 130.128 77.1996H134.163C135.171 77.1996 135.575 77.4011 135.575 78.0058C135.575 78.2074 135.575 78.409 135.373 78.6105C135.171 78.6105 134.97 78.6105 134.566 78.6105H132.75C132.75 79.6184 132.952 80.6262 132.952 81.8356L132.75 88.2857ZM137.391 98.3639L138.803 98.5655C139.206 98.5655 139.61 98.3639 140.013 97.9608C140.417 97.5577 140.618 97.1546 140.82 96.5499C141.022 95.542 141.224 94.5342 141.224 93.7279C141.224 92.9217 141.022 92.1154 140.82 91.3092C140.618 90.5029 140.215 89.6966 139.812 89.0919C139.408 88.2857 139.004 87.681 138.601 86.8747C137.592 85.0606 137.189 83.4481 137.189 81.8356C137.189 80.8277 137.391 79.8199 137.794 79.0137C138.399 77.6027 139.206 76.7964 140.417 76.7964C140.82 76.7964 141.224 76.998 141.627 77.1996C142.031 77.4011 142.232 77.8043 142.232 78.0058C142.232 78.6105 142.031 78.8121 141.425 78.8121C141.224 78.8121 141.022 78.8121 140.618 78.6105C139.811 78.6105 139.408 79.4168 139.206 81.0293C139.206 81.4324 139.206 81.8356 139.206 82.2387C139.206 82.6418 139.206 83.2465 139.408 84.0528C139.61 84.6575 139.811 85.2622 140.215 85.8669C140.618 86.4716 140.82 87.0763 141.224 87.681C141.627 88.2857 141.829 88.8904 142.232 89.4951C143.039 90.906 143.241 92.5185 143.241 94.3326C143.241 95.7436 142.838 96.953 142.232 98.3639C141.829 98.9686 141.425 99.5733 140.82 99.9765C140.215 100.38 139.61 100.581 138.803 100.581C137.794 100.38 137.391 99.9765 137.189 99.1702L137.391 98.3639ZM138.399 74.7808C138.198 74.7808 138.198 74.5792 138.198 74.3777C138.198 74.1761 138.399 73.9745 138.601 73.773C139.004 73.5714 139.61 72.7651 140.82 71.9589C142.031 70.951 142.636 70.3463 142.838 70.1448C143.039 70.1448 143.039 70.1448 143.241 70.1448C143.443 70.1448 143.645 70.3463 143.846 70.5479C144.048 70.7495 144.25 71.1526 144.25 71.3542C144.25 71.5557 144.25 71.7573 144.048 71.9589C143.241 72.5636 141.425 73.5714 139.005 74.7808C139.005 74.7808 138.803 74.7808 138.601 74.7808C138.601 74.9823 138.399 74.7808 138.399 74.7808ZM146.469 99.5733C144.855 98.5655 144.25 95.9452 144.25 91.5107V89.4951V88.6888C144.25 85.2622 144.452 83.045 144.653 81.634C145.057 80.0215 145.662 78.8121 146.267 78.2074C147.276 77.4011 148.487 76.998 149.899 76.998C150.302 76.998 150.504 76.998 150.706 77.1996C150.908 77.4011 150.908 77.6027 150.908 77.8043C150.908 78.0058 150.908 78.2074 150.706 78.409C150.908 78.6105 150.706 78.6105 150.504 78.6105H148.89C148.487 78.6105 148.083 78.8121 147.68 79.4168C147.276 80.0215 147.074 80.8277 146.873 81.634C146.671 83.2465 146.469 84.6575 146.469 85.6653V85.8669L146.267 92.7201C146.267 94.1311 146.267 95.1389 146.469 95.542C146.671 95.9452 146.873 96.5499 146.873 96.7514C147.074 97.1546 147.276 97.3561 147.478 97.5577C148.083 97.9608 148.688 98.3639 149.495 98.3639C149.697 98.3639 150.101 98.364 150.302 98.1624C150.504 98.1624 150.908 98.1624 151.109 98.3639C151.311 98.3639 151.311 98.5655 151.311 98.7671C151.311 99.5733 150.706 100.178 149.495 100.178C148.89 100.178 148.487 100.178 147.881 99.9765C147.276 99.7749 146.873 99.5733 146.469 99.5733ZM156.557 88.2857L156.758 95.542V96.5499V97.5577H157.162H158.171C159.179 97.5577 159.583 97.7593 159.583 98.3639C159.583 98.5655 159.381 98.9686 159.179 99.1702C158.978 99.3718 158.776 99.5733 158.372 99.5733H156.96C155.951 99.5733 155.346 99.5733 154.943 99.5733C154.741 99.5733 154.539 99.5733 154.539 99.5733C153.732 99.5733 153.329 99.3718 153.329 98.7671C153.329 98.5655 153.329 98.364 153.53 98.1624C153.732 97.9608 153.732 97.9608 153.934 97.9608H154.943V97.5577L154.741 90.3013L154.943 82.6418C154.943 81.4324 154.943 80.0215 154.741 79.0137H154.136H153.329C152.925 79.0137 152.723 79.0137 152.522 78.8121C152.32 78.6105 152.32 78.409 152.32 78.0058C152.32 77.4011 152.925 77.1996 153.934 77.1996H157.969C158.978 77.1996 159.381 77.4011 159.381 78.0058C159.381 78.2074 159.381 78.409 159.179 78.6105C158.776 78.6105 158.574 78.6105 158.372 78.6105H156.557C156.557 79.6184 156.758 80.6262 156.758 81.8356L156.557 88.2857ZM168.46 88.2857L168.662 95.542V96.5499V97.5577H169.065H170.074C171.083 97.5577 171.486 97.7593 171.486 98.3639C171.486 98.5655 171.284 98.9686 171.083 99.1702C170.881 99.3718 170.679 99.5733 170.276 99.5733H168.863C167.855 99.5733 167.249 99.5733 166.846 99.5733C166.644 99.5733 166.442 99.5733 166.442 99.5733C165.635 99.5733 165.232 99.3718 165.232 98.7671C165.232 98.5655 165.232 98.364 165.434 98.1624C165.635 97.9608 165.635 97.9608 165.837 97.9608H166.846V97.5577L166.644 90.3013L166.846 82.6418C166.846 81.4324 166.846 80.0215 166.644 79.0137H166.039H165.232C164.828 79.0137 164.627 79.0137 164.425 78.8121C164.223 78.6105 164.223 78.409 164.223 78.0058C164.223 77.4011 164.828 77.1996 165.837 77.1996H169.872C170.881 77.1996 171.284 77.4011 171.284 78.0058C171.284 78.2074 171.284 78.409 171.083 78.6105C170.881 78.6105 170.477 78.6105 170.276 78.6105H168.46C168.46 79.6184 168.662 80.6262 168.662 81.8356L168.46 88.2857ZM177.74 76.998C178.547 76.998 178.749 77.6027 178.749 79.0137L178.547 87.4794C178.951 87.681 179.556 87.681 180.363 87.681H181.573C181.573 87.681 181.573 87.2778 181.573 86.6732C181.573 86.0685 181.573 84.6575 181.372 82.4403C181.17 80.2231 181.17 78.6105 181.17 77.6027C181.17 77.4011 181.17 77.1996 181.372 76.998C181.573 76.7964 181.775 76.7964 181.977 76.7964C182.179 76.7964 182.38 76.7964 182.38 76.7964C182.582 76.7964 182.582 76.7964 182.784 76.998C182.986 76.998 182.986 76.998 183.187 77.1996C183.187 80.2231 183.389 84.4559 183.591 90.3013C183.793 96.1467 183.994 98.9686 183.994 99.1702C183.994 99.3718 183.793 99.5733 183.591 99.7749C183.389 99.9765 182.986 99.9765 182.784 99.9765C182.582 99.9765 182.179 99.7749 181.977 99.3718C181.775 98.9686 181.775 98.3639 181.573 97.3561C181.573 96.5499 181.372 95.7436 181.372 95.1389C181.372 94.9373 181.372 94.5342 181.372 94.1311C181.372 93.7279 181.372 93.1233 181.372 92.5186C181.372 91.5107 181.372 90.906 181.372 90.7045V90.5029V89.4951L181.573 89.0919C181.372 89.0919 181.17 89.0919 180.968 89.0919L178.749 88.6888V92.7201L178.951 98.3639C178.951 98.7671 178.951 98.9686 178.749 99.1702C178.547 99.3718 178.345 99.5733 177.942 99.5733C177.538 99.5733 177.135 99.1702 176.933 98.3639C176.731 97.5577 176.731 96.3483 176.731 94.9373V89.6966C176.731 88.6888 176.731 88.0841 176.731 87.8825V87.681C176.731 86.4716 176.933 85.8669 176.933 85.6653L176.731 78.0058C176.731 77.8043 176.731 77.4011 176.933 77.1996C177.337 77.1996 177.538 76.998 177.74 76.998ZM186.415 82.4403L186.214 79.6184C186.214 78.0058 186.617 77.1996 187.626 77.1996C188.231 77.1996 189.038 77.4011 190.047 77.6027C191.056 77.8043 191.661 78.2074 191.661 78.6105C191.661 79.0137 191.257 79.4168 190.652 79.6184C189.643 79.2152 188.635 79.0137 188.029 79.0137C188.029 79.4168 188.029 80.0215 188.029 80.4246L187.828 85.2622C187.828 85.2622 187.828 85.4638 187.828 85.8669H189.038C190.047 85.8669 190.652 86.27 190.652 86.8747C190.652 87.0763 190.652 87.2778 190.45 87.4794C190.249 87.681 190.047 87.681 189.643 87.681C189.24 87.681 189.038 87.681 188.635 87.681H187.828C187.828 88.4872 187.828 89.4951 187.828 90.3013L187.626 96.5499C187.626 97.7593 187.626 98.5655 187.626 98.5655H190.249C191.056 98.5655 191.459 98.7671 191.459 99.3718C191.459 99.7749 191.257 99.9765 191.056 100.178C190.854 100.38 190.45 100.38 190.047 100.38H187.626C187.424 100.38 187.021 100.178 186.819 99.9765C186.617 99.7749 186.415 99.5733 186.415 99.1702V98.3639L186.214 92.5186L186.415 82.4403ZM198.117 78.8121L198.52 93.3248V96.953C198.52 98.1624 198.52 98.9686 198.319 99.3718C198.117 99.7749 197.713 100.38 197.512 100.783C197.31 101.186 197.108 101.387 196.906 101.589C196.705 101.791 196.301 101.992 196.099 102.194C195.494 102.597 194.485 102.798 193.275 102.798C193.073 102.798 192.871 102.597 192.871 102.395V101.791C192.871 101.589 193.073 101.589 193.275 101.387C194.485 100.984 195.292 100.581 195.494 100.38C196.099 99.5733 196.503 98.364 196.503 96.5499L196.099 79.0137V78.8121C195.292 78.8121 194.687 78.8121 194.284 78.6105C193.88 78.6105 193.678 78.409 193.678 78.409C193.678 78.409 193.678 78.2074 193.678 78.0058C193.678 77.8043 193.88 77.6027 194.082 77.6027C194.284 77.4011 194.687 77.4011 195.292 77.4011C195.898 77.4011 196.906 77.4011 198.52 77.6027C200.134 77.8043 200.941 78.0058 200.941 78.2074C200.941 78.409 200.941 78.6105 200.74 78.8121C200.538 79.0137 200.336 79.0137 200.134 79.0137H198.117V78.8121ZM205.38 99.1702V96.5499C205.38 96.5499 205.38 96.1467 205.38 95.3405C205.38 95.1389 205.178 92.5186 204.775 87.681C204.573 82.8434 204.371 79.8199 204.371 78.8121C204.371 78.8121 204.371 78.8121 204.169 78.8121C202.354 78.8121 201.345 78.409 201.345 77.8043C201.345 77.6027 201.547 77.4011 201.748 77.1996C201.95 76.998 202.152 76.998 202.555 76.998L207.196 77.4011H207.801C208.608 77.4011 208.809 77.6027 208.809 78.2074C208.809 78.409 208.608 78.8121 208.406 78.8121C208.204 79.0137 208.002 79.0137 207.599 79.0137L205.985 78.8121V79.2152C205.985 81.4324 206.187 84.6575 206.59 88.8904C206.994 93.1232 207.196 96.5499 207.196 98.5655C207.196 98.7671 206.994 99.1702 206.792 99.3718C206.59 99.5733 206.187 99.7749 205.985 99.7749L205.38 99.1702ZM210.423 94.3326C210.222 92.317 210.02 90.7045 210.02 89.2935V88.0841C210.02 87.8825 210.02 87.8825 210.02 87.8825V87.2778C210.02 83.6497 210.222 81.2309 210.625 79.6184C211.029 78.409 211.23 77.6027 211.634 77.1996C212.037 76.998 212.239 76.7964 212.643 76.7964C215.265 76.7964 217.081 78.2074 218.09 80.8277C218.695 82.4403 218.897 84.2544 218.897 86.4716V86.6732V90.5029C218.897 97.1546 217.283 100.38 214.257 100.38C213.046 100.38 212.037 99.7749 211.432 98.3639C210.827 96.953 210.423 95.542 210.423 94.3326ZM212.037 84.6575L211.836 87.8825C211.836 91.1076 212.037 94.1311 212.643 96.5499C213.248 97.9608 213.853 98.7671 214.257 99.1702C214.66 99.1702 215.064 98.9686 215.467 98.7671C215.871 98.5655 216.072 97.9608 216.274 97.3561C216.476 96.7514 216.678 96.1467 216.678 95.542C216.879 94.9373 216.879 94.3326 216.879 93.5264C217.081 92.317 217.081 91.3092 217.081 90.5029C217.081 89.6966 217.081 88.2857 216.879 86.4716C216.678 84.6575 216.678 83.4481 216.678 82.4403V81.8356C216.678 81.0293 216.476 80.2231 215.871 79.6184C215.265 79.0137 214.66 78.6105 213.853 78.6105C213.046 78.6105 212.643 79.0137 212.239 80.0215C212.037 80.8278 211.836 81.634 211.836 82.8434L212.037 84.6575ZM230.195 78.0058C230.195 77.8043 229.993 77.6027 229.993 77.4011C229.993 76.7964 230.397 76.5949 231.002 76.5949C231.607 76.5949 232.011 76.7964 232.011 77.4011C232.011 78.2074 232.011 78.6105 232.011 78.8121V79.0137C231.607 80.0215 231.607 81.0293 231.607 82.2387V84.6575C231.607 86.0685 231.405 88.2857 231.002 91.1076C230.598 93.9295 230.397 96.1467 230.397 97.3561C230.397 99.7749 229.993 100.783 228.984 100.783C228.379 100.783 227.976 100.38 227.976 99.3718C227.976 98.3639 227.976 97.3561 227.976 96.3483C227.976 95.3405 227.774 94.3326 227.572 93.1232C227.37 91.9139 227.37 90.906 227.169 90.0998C226.967 89.2935 226.967 88.2857 226.765 86.6732C226.563 85.2622 226.362 84.2544 226.362 83.6497C226.362 84.4559 226.16 85.2622 226.16 85.8669C226.16 86.4716 226.16 88.0841 225.958 90.3013C225.756 92.5185 225.555 94.5342 225.151 96.7514C224.748 98.9686 224.142 99.9765 223.739 99.9765C222.932 99.9765 222.125 97.5577 221.721 92.7201C221.52 90.7045 221.318 88.6888 221.116 86.4716C220.713 81.2309 220.309 78.2074 220.107 77.4011C220.309 76.998 220.713 76.7964 221.116 76.7964C221.923 76.7964 222.125 77.6027 222.125 79.2152C222.125 80.8277 222.327 83.4481 222.932 86.8747C223.335 90.3013 223.739 92.7201 223.739 94.3326C224.748 87.681 225.151 82.6418 225.151 79.2152L226.16 78.8121C226.362 78.8121 226.765 78.8121 226.967 79.0137C227.169 79.2152 227.169 79.4168 227.169 79.6184V80.6262C227.774 82.8434 228.379 86.0685 228.783 90.0998C228.984 91.9139 229.186 93.5264 229.186 94.5342C229.59 91.3092 229.791 87.681 229.791 83.2465C229.791 82.6418 229.791 81.8356 229.993 80.6262C229.993 79.6184 230.195 78.6105 230.195 78.0058ZM237.458 88.2857L237.66 95.542V96.5499V97.5577H238.063H239.072C240.081 97.5577 240.484 97.7593 240.484 98.3639C240.484 98.5655 240.282 98.9686 240.081 99.1702C239.879 99.3718 239.677 99.5733 239.274 99.5733H237.861C236.853 99.5733 236.247 99.5733 235.844 99.5733C235.642 99.5733 235.44 99.5733 235.44 99.5733C234.633 99.5733 234.23 99.3718 234.23 98.7671C234.23 98.5655 234.23 98.364 234.432 98.1624C234.633 97.9608 234.633 97.9608 234.835 97.9608H235.844V97.5577L235.642 90.3013L235.844 82.6418C235.844 81.4324 235.844 80.0215 235.642 79.0137H235.037H234.23C233.826 79.0137 233.625 79.0137 233.423 78.8121C233.221 78.6105 233.221 78.409 233.221 78.0058C233.221 77.4011 233.826 77.1996 234.835 77.1996H238.87C239.879 77.1996 240.282 77.4011 240.282 78.0058C240.282 78.2074 240.282 78.409 240.081 78.6105C239.879 78.8121 239.677 78.8121 239.475 78.8121H237.66C237.66 79.8199 237.861 80.8278 237.861 82.0371L237.458 88.2857ZM244.519 100.178C244.115 100.178 243.914 99.9765 243.712 99.7749C243.51 99.5733 243.308 99.1702 243.308 98.9686C243.308 98.5655 243.51 98.364 243.712 98.1624C243.914 97.9608 244.317 97.7593 244.519 97.7593C244.721 97.7593 245.124 97.9608 245.326 98.1624C245.528 98.364 245.729 98.7671 245.729 99.1702C245.729 99.5733 245.528 99.7749 245.326 99.9765C245.124 100.178 244.922 100.178 244.519 100.178Z" fill="black"/>
<path d="M4.23672 86.8748C4.23672 87.0763 4.23672 87.0763 4.43847 87.2779C4.03497 87.2779 3.83322 87.2779 3.42972 87.4795C2.42098 87.681 2.21923 89.092 3.22798 89.4951C4.03497 89.8982 4.84196 89.8982 5.64896 90.0998C6.05245 90.0998 6.45595 89.6967 6.2542 89.4951H6.45595C8.47344 90.5029 11.2979 90.7045 13.5171 90.9061C13.7189 90.9061 13.9206 90.9061 13.9206 90.9061C10.2892 91.1076 6.6577 91.5108 2.82448 91.7123C2.42098 90.0998 2.01748 88.4873 1.61399 86.8748C1.81574 86.8748 1.81574 87.0763 2.01748 87.0763C3.02623 86.8748 3.63147 86.8748 4.23672 86.8748ZM19.5696 78.0059C19.3679 78.2074 19.1661 78.409 18.9644 78.6106C19.1661 78.409 19.3679 78.2074 19.5696 78.0059ZM13.7189 36.0802C12.7102 38.2975 11.0962 41.1194 8.87693 42.7319C9.48218 41.3209 10.0874 39.91 10.6927 38.7006C10.8944 38.499 11.2979 38.0959 11.4997 37.6928C14.3241 31.8474 16.3416 25.8004 18.5609 19.5519C18.5609 20.7613 18.5609 21.9706 18.7626 22.9785C16.9469 27.4129 15.5346 31.8474 13.7189 36.0802ZM2.62273 43.9413C2.82448 43.5382 3.02623 42.9335 3.02623 42.5303C3.02623 43.135 2.82448 43.5382 2.62273 43.9413C2.62273 43.9413 2.82448 43.9413 2.62273 43.9413ZM41.7619 89.092C41.5602 88.4873 41.5602 87.8826 41.3584 87.2779C41.7619 86.6732 41.9637 86.0685 41.9637 85.2622C44.7882 83.6497 42.9724 78.6106 39.7445 78.2074C37.727 78.0059 35.9112 78.2074 33.8937 78.409C33.4902 78.409 33.2885 78.409 32.885 78.409C32.078 78.409 31.4728 78.6106 30.6658 78.6106C28.85 56.8415 27.0343 35.0724 25.2186 13.3033C25.2186 10.2798 25.0168 7.0548 25.0168 4.03131C25.0168 2.41879 24.2098 1.00783 22.5958 0.201566C22.1923 0 21.3853 0 20.5783 0C19.1661 0 18.1574 0.604697 17.5521 1.81409C17.3504 1.81409 16.9469 1.81409 16.9469 2.01566C14.9294 4.83757 13.7189 8.26419 12.5084 11.4892C11.0962 15.1174 9.68393 18.7456 8.27169 22.3738C5.64896 29.4286 3.02623 36.6849 0.403497 43.9413C0.201748 44.546 0.605245 44.9491 1.00874 45.1507C1.81574 45.5538 2.62273 45.9569 3.63147 45.9569C4.84196 46.9648 6.6577 46.9648 7.46469 45.5538C10.2892 44.546 12.7102 42.3288 14.1224 39.7084C15.7364 36.8865 16.7451 33.863 17.7539 31.0411C17.9556 30.4364 18.3591 29.6301 18.5609 29.0254C18.7626 34.4677 18.9644 39.91 18.9644 45.1507C18.9644 52.0039 19.3679 58.8571 18.9644 65.5088C18.7626 69.3386 18.1574 72.9667 17.7539 76.7965C17.7539 77.6027 17.5521 78.6106 17.7539 79.4168C17.5521 79.4168 17.3504 79.4168 17.1486 79.4168C14.5259 79.6184 11.9032 79.82 9.28043 80.2231C6.6577 80.6262 4.23672 81.2309 1.61399 81.8356C0.403497 82.4403 0 83.2466 0 83.8513C0 83.8513 0 84.0528 0 84.2544C0.403497 87.0763 0.806994 89.6967 1.41224 92.5186C1.61399 92.9217 2.01748 93.3249 2.42098 93.3249C15.3329 92.9217 28.043 91.7123 40.7532 90.0998C41.5602 90.0998 41.9637 89.6967 41.7619 89.092Z" fill="black"/>
</svg>
