<svg width="251" height="96" viewBox="0 0 251 96" fill="none" xmlns="http://www.w3.org/2000/svg">
<g clip-path="url(#clip0_156_5056)">
<path d="M50.2715 21.7674L50.457 15.8139C50.457 14.8836 50.828 14.1394 51.57 13.3953V13.5813H51.7556C52.3121 13.5813 52.8686 14.5115 53.6107 16.186C54.3528 17.8604 55.0948 19.7208 55.6513 21.7674C56.2079 23.8139 56.7644 25.8604 57.5065 27.9069C58.063 29.9534 58.4341 31.2557 58.6196 31.6278C58.9906 27.1627 59.1761 21.9534 59.1761 15.6278V14.6976C59.1761 14.1394 59.3616 13.7674 59.9182 13.7674C60.2892 13.7674 60.4747 13.9534 60.6602 14.1394C60.8457 14.3255 60.8457 14.6976 60.8457 15.0697V17.4883C60.8457 19.9069 60.6602 23.2557 60.4747 27.3487C60.2892 31.4418 59.9182 33.8604 59.7327 34.4185C59.1761 34.6046 58.8051 34.6046 58.6196 34.6046C58.4341 34.6046 58.2485 34.6046 58.063 34.4185C57.8775 34.2325 57.8775 34.0464 57.692 33.6743C57.692 33.3022 57.5065 33.1162 57.5065 33.1162V32.9301C57.5065 32.186 56.7644 29.5813 55.2803 25.4883C53.7962 21.3953 52.6831 18.6046 51.9411 16.9301V32.9301C51.9411 32.9301 51.9411 33.1162 52.1266 33.1162C52.3121 33.3022 52.3121 33.4883 52.3121 33.6743C52.3121 33.8604 52.1266 34.0464 51.9411 34.2325C51.7556 34.4185 51.57 34.6046 51.199 34.6046C50.457 34.6046 50.0859 34.0464 50.0859 32.7441L50.2715 21.7674ZM69.7504 28.279L70.1214 30.1394C70.1214 30.3255 70.3069 31.0697 70.4924 31.9999C70.678 32.9301 70.8635 33.6743 70.8635 34.0464C70.8635 34.4185 70.678 34.7906 70.3069 34.9767C69.9359 34.9767 69.5649 34.9767 69.1938 34.7906C68.8228 34.6046 68.8228 34.4185 68.8228 34.0464C68.8228 33.1162 68.6373 31.8139 68.4518 30.1394L65.2981 29.7674C65.1125 30.5115 64.927 31.2557 64.927 31.9999C64.7415 32.7441 64.7415 33.4883 64.556 33.8604C64.3705 34.6046 63.9995 34.9767 63.4429 34.9767C63.2574 34.9767 62.8864 34.9767 62.7009 34.7906C62.5154 34.6046 62.3298 34.4185 62.3298 34.2325V34.0464C63.8139 28.6511 64.7415 23.2557 65.4836 18.0464C65.4836 17.8604 65.4836 17.4883 65.4836 16.7441C65.6691 15.2557 65.8546 14.1394 66.0401 13.7674H67.1532C67.5242 13.7674 67.7097 13.7674 67.8952 13.9534C68.4518 13.7674 68.6373 13.9534 68.6373 14.3255C68.6373 15.9999 68.8228 18.2325 69.1938 21.3953C69.5649 24.558 69.7504 26.7906 69.7504 28.279ZM65.4836 28.279C65.8546 28.465 66.7822 28.6511 68.2663 28.8371C68.2663 28.465 68.2663 27.9069 68.2663 27.1627C68.2663 26.4185 68.2663 25.4883 68.0808 24.372C68.0808 23.2557 67.8953 21.9534 67.7097 20.465C67.5242 18.9767 67.5242 17.8604 67.3387 17.1162C66.2256 22.5115 65.6691 26.2325 65.4836 28.279ZM76.4289 15.4418L76.7999 28.8371V32.186C76.7999 33.3022 76.7999 34.0464 76.6144 34.4185C76.4289 34.7906 76.0579 35.3487 75.8723 35.5348C75.6868 35.9069 75.5013 36.0929 75.3158 36.279C75.1303 36.465 74.7593 36.6511 74.5737 36.8371C74.0172 37.2092 73.0896 37.3953 71.9766 37.3953C71.791 37.3953 71.6055 37.2092 71.6055 37.0232V36.465C71.6055 36.279 71.791 36.279 71.9766 36.0929C73.0896 35.7208 73.8317 35.3487 74.0172 35.1627C74.5737 34.4185 74.9448 33.3022 74.9448 31.6278L74.5737 15.4418C73.8317 15.4418 73.2751 15.4418 72.9041 15.2557C72.5331 15.0697 72.3476 15.0697 72.3476 14.8836C72.3476 14.8836 72.3476 14.6976 72.3476 14.5115C72.3476 14.3255 72.5331 14.1394 72.7186 14.1394C72.9041 13.9534 73.2751 13.9534 73.8317 13.9534C74.3882 13.9534 75.3158 13.9534 76.7999 14.1394C78.284 14.3255 79.0261 14.5115 79.0261 14.6976C79.0261 14.8836 79.0261 15.0697 78.8406 15.2557C78.655 15.4418 78.4695 15.4418 78.284 15.4418H76.4289ZM89.0438 14.6976C89.0438 14.5115 88.8583 14.3255 88.8583 14.1394C88.8583 13.5813 89.2293 13.3953 89.7859 13.3953C90.3424 13.3953 90.7134 13.5813 90.7134 14.1394C90.7134 14.8836 90.7134 15.2557 90.7134 15.4418V15.6278C90.3424 16.558 90.3424 17.4883 90.3424 18.6046V20.8371C90.3424 22.1394 90.1569 24.186 89.7859 26.7906C89.4148 29.3953 89.2293 31.4418 89.2293 32.558C89.2293 34.7906 88.8583 35.7208 87.9307 35.7208C87.3742 35.7208 87.0032 35.3487 87.0032 34.4185C87.0032 33.4883 87.0032 32.558 87.0032 31.6278C87.0032 30.6976 86.8176 29.7674 86.6321 28.6511C86.4466 27.5348 86.4466 26.6046 86.2611 25.8604C86.0756 25.1162 86.0756 24.186 85.8901 22.6976C85.7046 21.3953 85.5191 20.465 85.5191 19.9069C85.5191 20.6511 85.3335 21.3953 85.3335 21.9534C85.3335 22.5115 85.3335 23.9999 85.148 26.0464C84.9625 28.0929 84.777 29.9534 84.406 31.9999C84.0349 34.0464 83.4784 34.9767 83.1074 34.9767C82.3653 34.9767 81.6233 32.7441 81.2522 28.279C81.0667 26.4185 80.8812 24.5581 80.6957 22.5115C80.3247 17.6743 79.9536 14.8836 79.7681 14.1394C79.9536 13.7674 80.3247 13.5813 80.6957 13.5813C81.4377 13.5813 81.6233 14.3255 81.6233 15.8139C81.6233 17.3022 81.8088 19.7208 82.3653 22.8836C82.7364 26.0464 83.1074 28.279 83.1074 29.7674C84.0349 23.6278 84.406 18.9767 84.406 15.8139L85.3335 15.4418C85.5191 15.4418 85.8901 15.4418 86.0756 15.6278C86.2611 15.8139 86.2611 15.9999 86.2611 16.186V16.372C86.8176 18.4185 87.3742 21.3953 87.7452 25.1162C87.9307 26.7906 88.1162 28.279 88.1162 29.2092C88.4873 26.2325 88.6728 22.8836 88.6728 18.7906C88.6728 18.2325 88.6728 17.4883 88.8583 16.372C88.8583 15.9999 89.0438 15.2557 89.0438 14.6976ZM98.6905 28.279L99.0616 30.1394C99.0616 30.3255 99.2471 31.0697 99.4326 31.9999C99.6181 32.9301 99.8036 33.6743 99.8036 34.0464C99.8036 34.4185 99.6181 34.7906 99.2471 34.9767C98.876 34.9767 98.505 34.9767 98.134 34.7906C97.763 34.6046 97.763 34.4185 97.763 34.0464C97.763 33.1162 97.5774 31.8139 97.3919 30.1394L94.2382 29.7674C94.0527 30.5115 93.8672 31.2557 93.8672 31.9999C93.6817 32.7441 93.6817 33.4883 93.4961 33.8604C93.3106 34.6046 92.9396 34.9767 92.3831 34.9767C92.1975 34.9767 91.8265 34.9767 91.641 34.7906C91.4555 34.6046 91.27 34.4185 91.27 34.2325V34.0464C92.7541 28.6511 93.6817 23.2557 94.4237 18.0464C94.4237 17.8604 94.4237 17.4883 94.4237 16.7441C94.6092 15.2557 94.7947 14.1394 94.9803 13.7674H96.0933C96.4644 13.7674 96.6499 13.7674 96.8354 13.9534C97.0209 14.1394 97.2064 14.3255 97.2064 14.5115C97.2064 16.186 97.3919 18.4185 97.763 21.5813C98.505 24.5581 98.6905 26.7906 98.6905 28.279ZM94.2382 28.279C94.6092 28.465 95.5368 28.6511 97.0209 28.8371C97.0209 28.465 97.0209 27.9069 97.0209 27.1627C97.0209 26.4185 97.0209 25.4883 96.8354 24.372C96.8354 23.2557 96.6499 21.9534 96.4644 20.465C96.2788 18.9767 96.2788 17.8604 96.0933 17.1162C95.1658 22.5115 94.4237 26.2325 94.2382 28.279ZM104.441 34.4185H102.586C102.401 34.4185 102.215 34.4185 102.03 34.6046C101.844 34.7906 101.659 34.7906 101.473 34.7906C101.288 34.7906 101.102 34.7906 100.917 34.6046C100.731 34.4185 100.731 34.2325 100.731 33.8604C100.731 31.9999 101.473 28.6511 102.772 23.9999C104.256 19.3487 104.998 16.372 105.369 15.2557L102.772 15.4418C102.586 15.4418 102.401 15.4418 102.215 15.2557C102.03 15.0697 102.03 14.6976 102.03 14.5115C102.03 13.9534 103.143 13.5813 105.555 13.5813C106.668 13.5813 107.039 13.9534 107.039 14.5115C107.039 15.2557 106.853 16.186 106.297 17.4883C105.926 18.7906 105.555 19.7208 105.555 20.0929C105.369 21.7674 104.812 24.186 103.885 27.3487C102.957 30.5115 102.586 32.372 102.586 32.7441H103.143H104.441C105.369 32.7441 105.74 32.9301 105.74 33.4883C105.74 33.6743 105.555 33.8604 105.369 34.0464C104.998 34.4185 104.812 34.4185 104.441 34.4185ZM104.441 11.7208C104.07 11.7208 103.885 11.5348 103.699 11.3487C103.514 11.1627 103.328 10.7906 103.328 10.6046C103.328 10.2325 103.514 10.0464 103.699 9.86037C103.885 9.67433 104.256 9.48828 104.441 9.48828C104.627 9.48828 104.998 9.67433 105.184 9.86037C105.555 10.0464 105.74 10.4185 105.74 10.6046C105.74 10.7906 105.555 11.1627 105.369 11.3487C105.184 11.7208 104.812 11.7208 104.441 11.7208ZM108.523 21.7674L108.708 15.8139C108.708 14.8836 109.079 14.1394 109.821 13.3953V13.5813H110.007C110.563 13.5813 111.12 14.5115 111.862 16.186C112.604 17.8604 113.346 19.7208 113.903 21.7674C114.459 23.8139 115.016 25.8604 115.758 27.9069C116.314 29.9534 116.685 31.2557 116.871 31.6278C117.242 27.1627 117.427 21.9534 117.427 15.6278V14.6976C117.427 14.1394 117.613 13.7674 118.169 13.7674C118.54 13.7674 118.726 13.9534 118.912 14.1394C119.097 14.3255 119.097 14.6976 119.097 15.0697V17.4883C119.097 19.9069 118.912 23.2557 118.726 27.3487C118.54 31.4418 118.169 33.8604 117.984 34.4185C117.427 34.6046 117.056 34.6046 116.871 34.6046C116.685 34.6046 116.5 34.6046 116.314 34.4185C116.129 34.2325 116.129 34.0464 115.943 33.6743C115.943 33.3022 115.758 33.1162 115.758 33.1162V32.9301C115.758 32.186 115.016 29.5813 113.532 25.4883C112.048 21.2092 110.934 18.4185 110.192 16.9301V32.9301C110.192 32.9301 110.192 33.1162 110.378 33.1162C110.563 33.3022 110.563 33.4883 110.563 33.6743C110.563 33.8604 110.378 34.0464 110.192 34.2325C110.007 34.4185 109.821 34.6046 109.45 34.6046C108.708 34.6046 108.337 34.0464 108.337 32.7441L108.523 21.7674ZM124.477 24.186L124.662 30.8836V31.8139V32.7441H125.033H125.961C126.889 32.7441 127.26 32.9301 127.26 33.4883C127.26 33.6743 127.074 34.0464 126.889 34.2325C126.703 34.4185 126.518 34.6046 126.147 34.6046H124.848C123.92 34.6046 123.364 34.6046 122.993 34.6046C122.807 34.6046 122.622 34.6046 122.622 34.6046C121.88 34.6046 121.509 34.4185 121.509 33.8604C121.509 33.6743 121.509 33.4883 121.694 33.3022C121.88 33.1162 121.88 33.1162 122.065 33.1162H122.993V32.7441L122.807 26.0464L122.993 18.9767C122.993 17.8604 122.993 16.558 122.807 15.6278H122.251H121.509C121.138 15.6278 120.952 15.6278 120.767 15.4418C120.581 15.2557 120.581 15.0697 120.581 14.6976C120.581 14.1394 121.138 13.9534 122.065 13.9534H125.776C126.703 13.9534 127.074 14.1394 127.074 14.6976C127.074 14.8836 127.074 15.0697 126.889 15.2557C126.703 15.4418 126.518 15.4418 126.332 15.4418H124.662C124.662 16.372 124.848 17.3022 124.848 18.4185L124.477 24.186ZM128.929 18.6046L128.744 15.9999C128.744 14.5115 129.115 13.7674 130.042 13.7674C130.599 13.7674 131.341 13.9534 132.269 14.1394C133.196 14.3255 133.753 14.6976 133.753 15.0697C133.753 15.4418 133.382 15.8139 132.825 15.9999C131.897 15.6278 130.97 15.4418 130.413 15.4418C130.413 15.8139 130.413 16.372 130.413 16.7441L130.228 21.2092C130.228 21.2092 130.228 21.3953 130.228 21.7674H131.341C132.269 21.7674 132.825 22.1394 132.825 22.6976C132.825 22.8836 132.825 23.0697 132.64 23.2557C132.454 23.4418 132.269 23.4418 131.897 23.4418C131.526 23.4418 131.341 23.4418 130.97 23.4418H130.228C130.228 24.186 130.228 25.1162 130.228 25.8604L130.413 31.6278C130.413 32.7441 130.413 33.4883 130.413 33.4883H132.825C133.567 33.4883 133.938 33.6743 133.938 34.2325C133.938 34.6046 133.753 34.7906 133.567 34.9767C133.382 35.1627 133.011 35.1627 132.64 35.1627H130.042C129.857 35.1627 129.486 34.9767 129.3 34.7906C129.115 34.6046 128.929 34.4185 128.929 34.0464V33.3022L128.744 27.9069L128.929 18.6046ZM139.504 15.4418L139.875 28.8371V32.186C139.875 33.3022 139.875 34.0464 139.689 34.4185C139.504 34.7906 139.318 35.3487 139.133 35.5348C138.947 35.9069 138.761 36.0929 138.576 36.279C138.39 36.465 138.019 36.6511 137.834 36.8371C137.277 37.2092 136.35 37.3953 135.237 37.3953C135.051 37.3953 134.866 37.2092 134.866 37.0232V36.465C134.866 36.279 135.051 36.279 135.237 36.0929C136.35 35.7208 137.092 35.3487 137.277 35.1627C137.834 34.4185 138.205 33.3022 138.205 31.6278L137.834 15.4418C137.092 15.4418 136.535 15.4418 136.164 15.2557C135.793 15.0697 135.608 15.0697 135.422 14.8836C135.422 14.8836 135.422 14.6976 135.422 14.5115C135.422 14.3255 135.608 14.1394 135.793 14.1394C135.979 13.9534 136.35 13.9534 136.906 13.9534C137.463 13.9534 138.39 13.9534 139.875 14.1394C141.359 14.3255 142.101 14.5115 142.101 14.6976C142.101 14.8836 142.101 15.0697 141.915 15.2557C141.73 15.4418 141.544 15.4418 141.359 15.4418H139.504ZM143.399 33.3022L144.698 33.4883C145.069 33.4883 145.44 33.3022 145.811 32.9301C146.182 32.5581 146.368 32.186 146.553 31.6278C146.739 30.6976 146.924 29.7674 146.924 29.0232C146.924 28.279 146.739 27.5348 146.553 26.7906C146.368 26.0464 145.997 25.3022 145.625 24.7441C145.254 23.9999 144.883 23.4418 144.512 22.6976C143.585 21.0232 143.214 19.5348 143.214 18.0464C143.214 17.1162 143.399 16.186 143.77 15.4418C144.327 14.1394 145.069 13.3953 146.182 13.3953C146.553 13.3953 146.924 13.5813 147.295 13.7674C147.666 13.9534 147.852 14.3255 147.852 14.5115C147.852 15.0697 147.666 15.2557 147.11 15.2557C146.924 15.2557 146.739 15.2557 146.368 15.0697C145.625 15.0697 145.254 15.8139 145.069 17.3022C145.069 17.6743 145.069 18.0464 145.069 18.4185C145.069 18.7906 145.069 19.3487 145.254 20.0929C145.44 20.6511 145.625 21.2092 145.997 21.7674C146.368 22.3255 146.553 22.8836 146.924 23.4418C147.295 23.9999 147.481 24.558 147.852 25.1162C148.594 26.4185 148.779 27.9069 148.779 29.5813C148.779 30.8836 148.408 31.9999 147.852 33.3022C147.481 33.8604 147.11 34.4185 146.553 34.7906C145.997 35.1627 145.44 35.3487 144.698 35.3487C143.77 35.1627 143.399 34.7906 143.214 34.0464L143.399 33.3022ZM153.417 34.4185H151.562C151.376 34.4185 151.191 34.4185 151.005 34.6046C150.82 34.7906 150.634 34.7906 150.449 34.7906C150.263 34.7906 150.078 34.7906 149.892 34.6046C149.707 34.4185 149.707 34.2325 149.707 33.8604C149.707 31.9999 150.449 28.6511 151.747 23.9999C153.232 19.3487 153.974 16.372 154.345 15.2557L151.747 15.4418C151.562 15.4418 151.376 15.4418 151.191 15.2557C151.005 15.0697 151.005 14.8836 151.005 14.6976C151.005 14.1394 152.118 13.7674 154.53 13.7674C155.643 13.7674 156.014 14.1394 156.014 14.6976C156.014 15.4418 155.829 16.372 155.272 17.6743C154.901 18.9767 154.53 19.9069 154.53 20.279C154.345 21.9534 153.788 24.372 152.861 27.5348C151.933 30.6976 151.562 32.5581 151.562 32.9301H152.118H153.417C154.345 32.9301 154.716 33.1162 154.716 33.6743C154.716 33.8604 154.53 34.0464 154.345 34.2325C153.974 34.4185 153.788 34.4185 153.417 34.4185ZM157.684 18.6046L157.498 15.9999C157.498 14.5115 157.869 13.7674 158.797 13.7674C159.353 13.7674 160.096 13.9534 161.023 14.1394C161.951 14.3255 162.507 14.6976 162.507 15.0697C162.507 15.4418 162.136 15.8139 161.58 15.9999C160.652 15.6278 159.725 15.4418 159.168 15.4418C159.168 15.8139 159.168 16.372 159.168 16.7441L158.982 21.2092C158.982 21.2092 158.982 21.3953 158.982 21.7674H160.096C161.023 21.7674 161.58 22.1394 161.58 22.6976C161.58 22.8836 161.58 23.0697 161.394 23.2557C161.209 23.4418 161.023 23.4418 160.652 23.4418C160.281 23.4418 160.096 23.4418 159.725 23.4418H158.982C158.982 24.186 158.982 25.1162 158.982 25.8604L159.354 31.6278C159.354 32.7441 159.354 33.4883 159.354 33.4883H161.765C162.507 33.4883 162.878 33.6743 162.878 34.2325C162.878 34.6046 162.693 34.7906 162.507 34.9767C162.322 35.1627 161.951 35.1627 161.58 35.1627H158.982C158.797 35.1627 158.426 34.9767 158.24 34.7906C158.055 34.6046 157.869 34.4185 157.869 34.0464V33.3022L157.498 27.9069L157.684 18.6046ZM169.186 23.9999V27.3487C169.186 30.1394 169.371 32.372 169.742 33.8604L169.371 34.7906H168.444L168.073 34.4185C168.073 33.4883 168.073 32.372 168.073 31.2557C168.073 30.1394 168.073 27.5348 167.887 23.6278C167.702 19.7208 167.702 16.9301 167.702 15.0697C167.702 14.1394 168.073 13.5813 168.815 13.5813C169.928 13.5813 170.855 13.9534 171.597 14.5115C172.339 15.0697 172.71 15.9999 172.71 16.9301V19.1627C172.71 19.7208 172.525 20.279 172.339 20.8371C172.154 21.3953 171.783 21.9534 171.597 22.3255C171.226 22.8836 171.226 23.2557 171.041 23.2557C171.226 23.8139 171.412 24.7441 171.597 26.2325C172.154 29.5813 172.896 31.8139 173.638 33.3022C173.824 33.6743 174.009 34.0464 174.009 34.2325C174.009 34.4185 174.009 34.6046 173.824 34.7906C173.638 34.9767 173.453 34.9767 173.267 34.9767C172.896 34.9767 172.339 34.4185 171.968 33.4883C171.597 32.558 171.226 31.4418 171.041 30.1394C170.299 26.4185 169.742 24.372 169.742 23.8139H169.186V23.9999ZM170.855 15.8139C170.67 15.0697 170.113 14.6976 169.371 14.6976L169.186 15.0697C169.186 15.9999 169.186 17.1162 169.186 18.7906C169.186 20.465 169.186 21.5813 169.186 22.3255C169.742 22.1394 170.113 21.3953 170.299 20.279C170.67 19.1627 170.67 18.4185 170.67 17.8604C170.67 17.3022 170.67 16.9301 170.67 16.558C171.041 16.372 170.855 16.186 170.855 15.8139ZM178.832 34.4185H176.977C176.792 34.4185 176.606 34.4185 176.421 34.6046C176.235 34.7906 176.05 34.7906 175.864 34.7906C175.679 34.7906 175.493 34.7906 175.308 34.6046C175.122 34.4185 175.122 34.2325 175.122 33.8604C175.122 31.9999 175.864 28.6511 177.163 23.9999C178.647 19.3487 179.389 16.372 179.76 15.2557L177.163 15.4418C176.977 15.4418 176.792 15.4418 176.606 15.2557C176.235 15.0697 176.235 14.6976 176.235 14.5115C176.235 13.9534 177.348 13.5813 179.76 13.5813C180.873 13.5813 181.244 13.9534 181.244 14.5115C181.244 15.2557 181.059 16.186 180.502 17.4883C180.131 18.7906 179.76 19.7208 179.76 20.0929C179.574 21.7674 179.018 24.186 178.09 27.3487C177.163 30.5115 176.792 32.372 176.792 32.7441H177.348H178.647C179.574 32.7441 179.946 32.9301 179.946 33.4883C179.946 33.6743 179.76 33.8604 179.574 34.0464C179.389 34.4185 179.018 34.4185 178.832 34.4185ZM183.099 18.6046L182.914 15.9999C182.914 14.5115 183.285 13.7674 184.212 13.7674C184.769 13.7674 185.511 13.9534 186.438 14.1394C187.366 14.3255 187.923 14.6976 187.923 15.0697C187.923 15.4418 187.552 15.8139 186.995 15.9999C186.067 15.6278 185.14 15.4418 184.583 15.4418C184.583 15.8139 184.583 16.372 184.583 16.7441L184.398 21.2092C184.398 21.2092 184.398 21.3953 184.398 21.7674H185.511C186.438 21.7674 186.995 22.1394 186.995 22.6976C186.995 22.8836 186.995 23.0697 186.81 23.2557C186.624 23.4418 186.439 23.4418 186.067 23.4418C185.696 23.4418 185.511 23.4418 185.14 23.4418H184.398C184.398 24.186 184.398 25.1162 184.398 25.8604L184.583 31.6278C184.583 32.7441 184.583 33.4883 184.583 33.4883H186.995C187.737 33.4883 188.108 33.6743 188.108 34.2325C188.108 34.6046 187.923 34.7906 187.737 34.9767C187.552 35.1627 187.181 35.1627 186.81 35.1627H184.212C184.027 35.1627 183.656 34.9767 183.47 34.7906C183.285 34.6046 183.099 34.4185 183.099 34.0464V33.3022L182.914 27.9069L183.099 18.6046ZM191.447 34.4185C189.963 33.4883 189.407 31.0697 189.407 26.9767V25.1162V24.372C189.407 21.2092 189.592 19.1627 189.778 17.8604C190.149 16.372 190.705 15.2557 191.262 14.6976C192.189 13.9534 193.303 13.5813 194.601 13.5813C194.972 13.5813 195.158 13.5813 195.343 13.7674C195.529 13.9534 195.529 14.1394 195.529 14.3255C195.529 14.5115 195.529 14.6976 195.343 14.8836C195.158 15.0697 194.972 15.0697 194.787 15.0697H193.303C192.931 15.0697 192.56 15.2557 192.189 15.8139C191.818 16.372 191.633 17.1162 191.447 17.8604C191.262 19.3487 191.076 20.6511 191.076 21.5813V21.7674L190.891 27.9069C190.891 29.2092 190.891 30.1394 191.076 30.5115C191.262 30.8836 191.447 31.4418 191.447 31.6278C191.633 31.9999 191.818 32.186 192.004 32.372C192.56 32.7441 193.117 33.1162 193.859 33.1162C194.045 33.1162 194.416 33.1162 194.601 32.9301C194.787 32.9301 195.158 32.9301 195.343 33.1162C195.529 33.3022 195.714 33.4883 195.714 33.6743C195.714 34.4185 195.158 34.9767 194.045 34.9767C193.488 34.9767 193.117 34.9767 192.56 34.7906C192.004 34.7906 191.633 34.6046 191.447 34.4185ZM200.723 34.4185H198.868C198.682 34.4185 198.497 34.4185 198.311 34.6046C198.126 34.7906 197.94 34.7906 197.755 34.7906C197.569 34.7906 197.384 34.7906 197.198 34.6046C197.013 34.4185 197.013 34.2325 197.013 33.8604C197.013 31.9999 197.755 28.6511 199.053 23.9999C200.538 19.3487 201.28 16.372 201.651 15.2557L199.053 15.4418C198.868 15.4418 198.682 15.4418 198.497 15.2557C198.311 15.0697 198.311 14.8836 198.311 14.6976C198.311 14.1394 199.424 13.7674 201.836 13.7674C202.949 13.7674 203.32 14.1394 203.32 14.6976C203.32 15.4418 203.135 16.372 202.578 17.6743C202.207 18.9767 201.836 19.9069 201.836 20.279C201.651 21.9534 201.094 24.372 200.167 27.5348C199.239 30.6976 198.868 32.5581 198.868 32.9301H199.424H200.723C201.651 32.9301 202.022 33.1162 202.022 33.6743C202.022 33.8604 201.836 34.0464 201.651 34.2325C201.28 34.4185 200.909 34.4185 200.723 34.4185ZM209.071 32.9301C209.071 34.4185 208.7 34.9767 207.958 34.9767C207.587 34.9767 207.216 34.7906 207.031 34.2325C207.216 33.8604 207.402 31.9999 207.402 28.8371C207.402 28.279 207.402 27.5348 207.216 26.4185C207.031 25.3022 207.031 24.558 207.031 24.186V23.4418C207.031 23.4418 206.659 22.5115 206.103 21.0232C204.619 17.4883 204.062 15.4418 204.062 14.6976V14.5115L204.804 13.9534C205.361 13.9534 206.288 15.6278 207.031 18.7906C207.402 20.279 207.587 20.8371 207.587 21.0232C207.587 20.8371 207.773 19.9069 208.144 18.6046C208.7 15.2557 209.442 13.3953 210.184 13.3953C210.37 13.3953 210.555 13.3953 210.741 13.5813C210.926 13.7674 210.926 13.9534 210.926 14.1394C210.926 15.2557 210.555 16.7441 209.999 18.7906C209.442 20.8371 209.071 22.3255 209.071 23.4418V32.9301ZM216.677 33.4883C216.677 34.0464 216.492 34.6046 216.121 35.1627C215.75 35.9069 215.379 36.465 214.822 37.0232C214.266 37.5813 213.895 37.7673 213.338 37.7673C212.967 37.7673 212.781 37.5813 212.781 37.3953C212.781 37.2092 212.967 36.8371 213.152 36.6511C213.523 36.0929 213.895 35.1627 214.08 33.6743C214.266 32.372 214.637 31.8139 215.379 31.8139C216.306 31.8139 216.677 32.372 216.677 33.4883Z" fill="black"/>
<path d="M57.3269 43.907C55.8428 46.5117 54.9153 48 54.7297 48.3721V50.2326C54.7297 51.1628 55.1008 52.8373 55.8428 55.2559C56.5849 57.6745 57.1414 59.3489 57.698 60.0931C57.698 60.0931 57.8835 60.4652 58.069 60.6512C58.2545 61.0233 58.44 61.2093 58.44 61.3954C58.6255 61.5814 58.6255 61.7675 58.6255 62.1396C58.6255 62.3256 58.6255 62.5117 58.44 62.6977C58.2545 62.8838 58.069 62.8838 57.8835 62.8838C57.3269 62.8838 56.9559 62.3256 56.3994 61.3954C55.8428 60.2791 55.4718 59.1628 54.9153 57.4884C54.1732 54.8838 53.6167 52.6512 53.4311 50.7907C52.6891 52.2791 52.3181 54.1396 52.3181 56.3721V62.1396C52.3181 62.6977 52.1325 62.8838 51.7615 62.8838C51.3905 62.8838 51.205 62.8838 51.0195 62.6977C50.834 62.5117 50.6484 62.3256 50.6484 61.9535V52.2791C50.6484 51.1628 50.834 49.4884 51.0195 47.0698C51.205 44.6512 51.3905 43.1628 51.3905 42.0466C51.576 41.6745 51.7615 41.4884 52.1325 41.4884C52.5036 41.4884 52.6891 41.6745 52.8746 41.8605C53.0601 42.0466 53.2456 42.2326 53.2456 42.6047C53.0601 43.1628 52.8746 45.0233 52.8746 48.3721V49.4884C52.8746 49.4884 53.2456 48.7442 53.9877 47.2559C55.8428 43.721 56.9559 41.8605 57.3269 41.8605C57.698 41.8605 57.8835 41.8605 58.2545 42.0466C58.44 42.2326 58.6255 42.4186 58.6255 42.6047C58.069 42.6047 57.8835 43.1628 57.3269 43.907ZM62.8923 61.9535V59.5349C62.8923 59.5349 62.8923 59.1628 62.8923 58.4186C62.8923 58.2326 62.7068 55.814 62.3358 51.3489C62.1503 46.8838 61.9648 44.0931 61.9648 43.1628C61.9648 43.1628 61.9648 43.1628 61.7793 43.1628C60.1096 43.1628 59.1821 42.7907 59.1821 42.2326C59.1821 42.0466 59.3676 41.8605 59.5531 41.6745C59.7386 41.4884 59.9241 41.4884 60.2951 41.4884L64.562 41.8605H65.1185C65.8606 41.8605 66.0461 42.0466 66.0461 42.6047C66.0461 42.7907 65.8606 43.1628 65.675 43.1628C65.4895 43.3489 65.304 43.3489 64.933 43.3489L63.4489 43.1628V43.5349C63.4489 45.5814 63.6344 48.5582 64.0054 52.4652C64.3765 56.3721 64.562 59.5349 64.562 61.3954C64.562 61.5814 64.3764 61.9535 64.1909 62.1396C64.0054 62.3256 63.6344 62.5117 63.4489 62.5117L62.8923 61.9535ZM67.5302 57.4884C67.3447 55.6279 67.1592 54.1396 67.1592 52.8372V51.721C67.1592 51.5349 67.1592 51.5349 67.1592 51.5349V50.9768C67.1592 47.6279 67.3447 45.3954 67.7157 43.907C68.0867 42.7907 68.2722 42.0466 68.6433 41.6745C69.0143 41.4884 69.1998 41.3024 69.5708 41.3024C71.9825 41.3024 73.6521 42.6047 74.5797 45.0233C75.1362 46.5117 75.3218 48.1861 75.3218 50.2326V50.4186V53.9535C75.3218 60.0931 73.8376 63.0698 71.0549 63.0698C69.9419 63.0698 69.0143 62.5117 68.4578 61.2093C67.9012 59.907 67.5302 58.7907 67.5302 57.4884ZM69.0143 48.5582L68.8288 51.5349C68.8288 54.5117 69.0143 57.3024 69.5708 59.5349C70.1274 60.8372 70.6839 61.5814 71.0549 61.9535C71.426 61.9535 71.797 61.7675 72.168 61.5814C72.5391 61.3954 72.7246 60.8373 72.9101 60.2791C73.0956 59.721 73.2811 59.1628 73.2811 58.6047C73.4666 58.0466 73.4666 57.4884 73.4666 56.7442C73.6521 55.6279 73.6521 54.6977 73.6521 53.9535C73.6521 53.2093 73.6521 51.907 73.4666 50.2326C73.2811 48.5582 73.2811 47.4419 73.2811 46.5117V45.9535C73.2811 45.2093 73.0956 44.4652 72.539 43.907C71.9825 43.3489 71.426 42.9768 70.6839 42.9768C69.9419 42.9768 69.5708 43.3489 69.1998 44.2791C69.0143 45.0233 68.8288 45.7675 68.8288 46.8838L69.0143 48.5582ZM70.1274 39.6279C69.9419 39.6279 69.9419 39.4419 69.9419 39.2559C69.9419 39.0698 70.1274 38.8838 70.3129 38.6977C70.6839 38.5117 71.2405 37.7675 72.3535 37.0233C73.4666 36.0931 74.0232 35.5349 74.2087 35.3489C74.3942 35.3489 74.3942 35.3489 74.5797 35.3489C74.7652 35.3489 74.9507 35.5349 75.1362 35.721C75.3218 35.907 75.5073 36.2791 75.5073 36.4652C75.5073 36.6512 75.5073 36.8372 75.3218 37.0233C74.5797 37.5814 72.9101 38.5117 70.6839 39.6279C70.6839 39.6279 70.4984 39.6279 70.3129 39.6279C70.4984 39.6279 70.3129 39.6279 70.1274 39.6279ZM78.8465 51.907V55.2559C78.8465 58.0466 79.032 60.2791 79.4031 61.7675L79.032 62.6977H78.1045L77.7334 62.3256C77.7334 61.3954 77.7334 60.2791 77.7334 59.1628C77.7334 58.0466 77.7334 55.4419 77.5479 51.5349C77.3624 47.6279 77.3624 44.8372 77.3624 42.9768C77.3624 42.0466 77.7334 41.4884 78.4755 41.4884C79.5886 41.4884 80.5161 41.8605 81.2582 42.4186C82.0002 42.9768 82.3713 43.907 82.3713 44.8372V47.0698C82.3713 47.6279 82.1858 48.1861 82.0003 48.7442C81.8147 49.3024 81.4437 49.8605 81.2582 50.2326C80.8872 50.7907 80.8872 51.1628 80.7017 51.1628C80.8872 51.721 81.0727 52.6512 81.2582 54.1396C81.8147 57.4884 82.5568 59.721 83.2988 61.2093C83.4844 61.5814 83.6699 61.9535 83.6699 62.1396C83.6699 62.3256 83.6699 62.5117 83.4844 62.6977C83.2988 62.8838 83.1133 62.8838 82.9278 62.8838C82.5568 62.8838 82.0002 62.3256 81.6292 61.3954C81.2582 60.4652 80.8872 59.3489 80.7017 58.0466C79.9596 54.3256 79.4031 52.2791 79.4031 51.721H78.8465V51.907ZM80.3306 43.721C80.1451 42.9768 79.5886 42.6047 78.8465 42.6047L78.661 42.9768C78.661 43.907 78.661 45.0233 78.661 46.6977C78.661 48.3721 78.661 49.4884 78.661 50.2326C79.2175 50.0466 79.5886 49.3024 79.7741 48.1861C80.1451 47.0698 80.1451 46.3256 80.1451 45.7675C80.1451 45.2093 80.1451 44.8372 80.1451 44.4652C80.5161 44.2791 80.5161 44.0931 80.3306 43.721ZM85.154 46.5117L84.9685 43.907C84.9685 42.4186 85.3395 41.6745 86.2671 41.6745C86.8236 41.6745 87.5657 41.8605 88.4932 42.0466C89.4208 42.2326 89.9773 42.6047 89.9773 42.9768C89.9773 43.3489 89.6063 43.721 89.0498 43.907C88.1222 43.5349 87.1946 43.3489 86.6381 43.3489C86.6381 43.721 86.6381 44.2791 86.6381 44.6512L86.4526 49.1163C86.4526 49.1163 86.4526 49.3024 86.4526 49.6745H87.5657C88.4932 49.6745 89.0498 50.0466 89.0498 50.6047C89.0498 50.7907 89.0498 50.9768 88.8643 51.1628C88.6787 51.3489 88.4932 51.3489 88.1222 51.3489C87.7512 51.3489 87.5657 51.3489 87.1946 51.3489H86.4526C86.4526 52.0931 86.4526 53.0233 86.4526 53.7675L86.6381 59.5349C86.6381 60.6512 86.6381 61.3954 86.6381 61.3954H89.0498C89.7918 61.3954 90.1628 61.5814 90.1628 62.1396C90.1628 62.5117 89.9773 62.6977 89.7918 62.8838C89.6063 63.0698 89.2353 63.0698 88.8643 63.0698H86.2671C86.0816 63.0698 85.7105 62.8838 85.525 62.6977C85.3395 62.5117 85.154 62.3256 85.154 61.9535V61.2093L84.9685 55.814L85.154 46.5117ZM95.1717 57.4884C94.9862 55.6279 94.8007 54.1396 94.8007 52.8372V51.721C94.8007 51.5349 94.8007 51.5349 94.8007 51.5349V50.9768C94.8007 47.6279 94.9862 45.3954 95.3572 43.907C95.7283 42.7907 95.9138 42.0466 96.2848 41.6745C96.6558 41.4884 96.8413 41.3024 97.2124 41.3024C99.6241 41.3024 101.294 42.6047 102.221 45.0233C102.778 46.5117 102.963 48.1861 102.963 50.2326V50.4186V53.9535C102.963 60.0931 101.479 63.0698 98.6965 63.0698C97.5834 63.0698 96.6558 62.5117 96.0993 61.2093C95.7283 59.907 95.3572 58.7907 95.1717 57.4884ZM96.8413 48.5582L96.6558 51.5349C96.6558 54.5117 96.8413 57.3024 97.3979 59.5349C97.9544 60.8372 98.511 61.5814 98.882 61.9535C99.253 61.9535 99.6241 61.7675 99.9951 61.5814C100.366 61.3954 100.552 60.8373 100.737 60.2791C100.923 59.721 101.108 59.1628 101.108 58.6047C101.294 58.0466 101.294 57.4884 101.294 56.7442C101.479 55.6279 101.479 54.6977 101.479 53.9535C101.479 53.2093 101.479 51.907 101.294 50.2326C101.108 48.5582 101.108 47.4419 101.108 46.5117V45.9535C101.108 45.2093 100.923 44.4652 100.366 43.907C99.8096 43.3489 99.253 42.9768 98.511 42.9768C97.7689 42.9768 97.3979 43.3489 97.0269 44.2791C96.8413 45.0233 96.6558 45.7675 96.6558 46.8838L96.8413 48.5582ZM105.932 62.6977C105.375 62.6977 105.189 61.3954 105.189 58.6047V48.5582C105.189 47.814 105.189 46.8838 105.004 45.3954C104.818 44.0931 104.818 43.1628 104.818 42.7907C104.818 42.4186 105.004 42.0466 105.189 41.8605C105.375 41.6745 105.746 41.4884 105.932 41.4884C108.158 41.4884 109.827 42.7907 111.126 45.3954C111.868 46.8838 112.239 48.3721 112.239 50.0466V51.721V53.3954C112.239 55.4419 112.053 56.9303 111.868 57.6745C111.682 58.4186 111.497 58.9768 111.311 59.5349C111.126 60.0931 110.94 60.4652 110.569 60.8373C109.827 61.7675 109.085 62.3256 107.972 62.8838H105.932V62.6977ZM107.23 60.4652V61.2093C109.085 61.2093 110.198 59.3489 110.569 55.6279C110.569 54.6977 110.755 53.9535 110.755 53.2093C110.755 46.8838 109.456 43.5349 107.045 43.1628C106.859 43.907 106.859 45.2093 106.859 46.5117C106.859 48 106.859 50.2326 107.045 53.3954C107.23 56.5582 107.23 58.7907 107.23 60.4652ZM121.329 43.907C119.66 46.5117 118.917 48 118.732 48.3721V50.2326C118.732 51.1628 119.103 52.8373 119.845 55.2559C120.587 57.6745 121.144 59.3489 121.7 60.0931C121.7 60.0931 121.886 60.4652 122.071 60.6512C122.257 61.0233 122.442 61.2093 122.442 61.3954C122.628 61.5814 122.628 61.7675 122.628 62.1396C122.628 62.3256 122.628 62.5117 122.442 62.6977C122.257 62.8838 122.071 62.8838 121.886 62.8838C121.329 62.8838 120.958 62.3256 120.402 61.3954C119.845 60.2791 119.474 59.1628 118.917 57.4884C118.175 54.8838 117.619 52.6512 117.433 50.7907C116.691 52.2791 116.32 54.1396 116.32 56.3721V62.1396C116.32 62.6977 116.135 62.8838 115.764 62.8838C115.393 62.8838 115.207 62.8838 115.022 62.6977C114.836 62.5117 114.651 62.3256 114.651 61.9535V52.2791C114.651 51.1628 114.836 49.4884 115.022 47.0698C115.207 44.6512 115.393 43.1628 115.393 42.0466C115.578 41.6745 115.764 41.4884 116.135 41.4884C116.506 41.4884 116.691 41.6745 116.877 41.8605C117.062 42.0466 117.248 42.2326 117.248 42.6047C117.062 43.1628 116.877 45.0233 116.877 48.3721V49.4884C116.877 49.4884 117.248 48.7442 117.99 47.2559C119.845 43.721 120.958 41.8605 121.329 41.8605C121.7 41.8605 121.886 41.8605 122.257 42.0466C122.442 42.2326 122.628 42.4186 122.628 42.6047C122.071 42.6047 121.7 43.1628 121.329 43.907ZM125.41 51.907V55.2559C125.41 58.0466 125.596 60.2791 125.967 61.7675L125.596 62.6977H124.668L124.297 62.3256C124.297 61.3954 124.297 60.2791 124.297 59.1628C124.297 58.0466 124.297 55.4419 124.112 51.5349C123.926 47.6279 123.926 44.8372 123.926 42.9768C123.926 42.0466 124.297 41.4884 125.039 41.4884C126.153 41.4884 127.08 41.8605 127.822 42.4186C128.564 42.9768 128.935 43.907 128.935 44.8372V47.0698C128.935 47.6279 128.75 48.1861 128.564 48.7442C128.379 49.3024 128.008 49.8605 127.822 50.2326C127.451 50.7907 127.451 51.1628 127.266 51.1628C127.451 51.721 127.637 52.6512 127.822 54.1396C128.379 57.4884 129.121 59.721 129.863 61.2093C130.048 61.5814 130.234 61.9535 130.234 62.1396C130.234 62.3256 130.234 62.5117 130.048 62.6977C129.863 62.8838 129.677 62.8838 129.492 62.8838C129.121 62.8838 128.564 62.3256 128.193 61.3954C127.822 60.4652 127.451 59.3489 127.266 58.0466C126.524 54.3256 125.967 52.2791 125.967 51.721H125.41V51.907ZM126.895 43.721C126.709 42.9768 126.153 42.6047 125.41 42.6047L125.225 42.9768C125.225 43.907 125.225 45.0233 125.225 46.6977C125.225 48.3721 125.225 49.4884 125.225 50.2326C125.781 50.0466 126.153 49.3024 126.338 48.1861C126.709 47.0698 126.709 46.3256 126.709 45.7675C126.709 45.2093 126.709 44.8372 126.709 44.4652C127.08 44.2791 127.08 44.0931 126.895 43.721ZM135.428 60.8373C135.428 62.3256 135.057 62.8838 134.315 62.8838C133.944 62.8838 133.573 62.6977 133.388 62.1396C133.573 61.7675 133.759 59.907 133.759 56.7442C133.759 56.1861 133.759 55.4419 133.573 54.3256C133.388 53.2093 133.388 52.4652 133.388 52.0931V51.3489C133.388 51.3489 133.017 50.4186 132.46 48.9303C130.976 45.3954 130.419 43.3489 130.419 42.6047V42.4186L131.161 41.8605C131.718 41.8605 132.645 43.5349 133.388 46.6977C133.759 48.1861 133.944 48.7442 133.944 48.9303C133.944 48.7442 134.13 47.814 134.501 46.5117C135.057 43.1628 135.799 41.3024 136.541 41.3024C136.727 41.3024 136.912 41.3024 137.098 41.4884C137.283 41.6745 137.283 41.8605 137.283 42.0466C137.283 43.1628 136.912 44.6512 136.356 46.6977C135.799 48.7442 135.428 50.2326 135.428 51.3489V60.8373ZM140.808 42.4186L140.623 44.8372C140.623 45.5814 140.623 46.5117 140.623 47.814C140.623 49.1163 140.623 50.0466 140.623 50.6047C141.55 50.2326 142.292 50.0466 142.663 50.0466C143.034 50.0466 143.405 50.0466 143.405 50.2326C143.591 50.4186 143.591 50.4186 143.591 50.6047C143.591 50.7907 143.591 50.7907 143.591 50.9768L143.405 51.1628C143.22 51.1628 143.22 51.3489 143.034 51.3489C142.849 51.3489 142.849 51.5349 142.478 51.5349C142.292 51.5349 142.107 51.721 141.921 51.721C141.55 51.907 140.994 51.907 140.623 52.0931C140.437 52.4652 140.437 53.0233 140.437 53.9535V54.3256L140.252 59.3489C140.252 60.8372 140.252 61.5814 140.437 61.5814H142.663C143.776 61.5814 144.333 61.9535 144.333 62.5117C144.333 62.6977 144.147 62.8838 143.962 63.0698C143.776 63.2559 143.591 63.2559 143.22 63.2559C142.478 63.0698 141.55 62.8838 140.437 62.8838C140.066 63.0698 139.695 63.2559 139.509 63.2559C139.138 63.2559 138.953 63.0698 138.767 62.8838C138.582 62.6977 138.582 62.5117 138.582 62.1396C138.582 60.8373 138.767 57.6745 138.953 52.6512C138.211 53.0233 137.84 53.2093 137.469 53.2093C137.098 53.2093 136.727 53.0233 136.727 52.6512C136.727 52.0931 137.469 51.721 138.953 51.3489C138.953 49.8605 138.953 48.7442 138.953 48V47.814C138.767 46.5117 138.767 45.5814 138.767 44.8372C138.767 42.7907 139.138 41.8605 139.881 41.8605C140.066 41.8605 140.252 41.8605 140.437 42.0466C140.808 42.0466 140.808 42.2326 140.808 42.4186ZM146.002 46.5117L145.817 43.907C145.817 42.4186 146.188 41.6745 147.116 41.6745C147.672 41.6745 148.414 41.8605 149.342 42.0466C150.269 42.2326 150.826 42.6047 150.826 42.9768C150.826 43.3489 150.455 43.721 149.898 43.907C148.971 43.5349 148.043 43.3489 147.487 43.3489C147.487 43.721 147.487 44.2791 147.487 44.6512L147.301 49.1163C147.301 49.1163 147.301 49.3024 147.301 49.6745H148.414C149.342 49.6745 149.898 50.0466 149.898 50.6047C149.898 50.7907 149.898 50.9768 149.713 51.1628C149.527 51.3489 149.342 51.3489 148.971 51.3489C148.6 51.3489 148.414 51.3489 148.043 51.3489H147.301C147.301 52.0931 147.301 53.0233 147.301 53.7675L147.672 59.5349C147.672 60.6512 147.672 61.3954 147.672 61.3954H150.084C150.826 61.3954 151.197 61.5814 151.197 62.1396C151.197 62.5117 151.011 62.6977 150.826 62.8838C150.64 63.0698 150.269 63.0698 149.898 63.0698H147.301C147.116 63.0698 146.745 62.8838 146.559 62.6977C146.373 62.5117 146.188 62.3256 146.188 61.9535V61.2093L145.817 55.814L146.002 46.5117ZM165.296 64.1861C164.554 64.1861 164.368 63.4419 164.368 62.1396V58.0466C164.368 57.1163 164.368 55.814 164.183 53.9535C163.997 52.0931 163.997 50.9768 163.997 50.2326C163.997 49.6745 163.997 48.9303 163.997 48C163.997 47.0698 163.997 46.5117 163.997 45.9535C163.997 46.1396 163.626 47.6279 162.884 50.2326C161.215 57.1163 160.102 60.4652 159.359 60.4652C158.988 60.4652 158.617 60.2791 158.432 60.0931C158.246 59.907 158.061 59.5349 158.061 59.1628C158.061 58.2326 157.69 56.1861 156.948 53.0233C156.206 49.8605 155.464 47.4419 154.907 45.9535C154.536 53.3954 154.351 58.4186 154.351 61.0233V61.9535C154.351 62.3256 154.351 62.5117 154.165 62.6977C153.98 63.0698 153.794 63.2559 153.609 63.2559C153.423 63.2559 153.052 63.2559 152.866 63.0698C152.681 62.8838 152.495 62.6977 152.495 62.5117C152.495 60.2791 152.681 57.1163 153.052 52.8372C153.423 48.5582 153.609 45.3954 153.609 43.1628C153.423 42.9768 153.423 42.7907 153.423 42.4186C153.423 42.2326 153.609 42.0466 153.794 41.8605C153.98 41.6745 154.351 41.6745 154.536 41.6745C154.907 41.6745 155.835 43.721 157.133 48C158.432 52.2791 159.359 55.2559 159.545 56.7442C159.545 56.3721 159.916 55.6279 160.102 54.3256C160.287 53.0233 160.658 51.721 161.029 50.4186C161.4 49.1163 161.771 47.6279 162.142 46.3256C163.07 43.1628 163.812 41.4884 164.368 41.4884C164.554 41.4884 164.925 41.4884 165.11 41.6745C165.296 41.8605 165.481 42.0466 165.481 42.2326C165.481 43.721 165.481 45.9535 165.667 49.1163C165.852 52.0931 165.852 54.3256 165.852 55.6279V58.9768C165.852 59.1628 165.852 59.907 166.038 61.2093V61.7675C166.038 61.9535 166.223 62.3256 166.223 62.5117C166.223 62.6977 166.038 63.0698 165.852 63.2559C165.852 64 165.667 64.1861 165.296 64.1861ZM168.264 63.0698C168.264 63.2559 168.079 63.4419 167.893 63.4419C167.708 63.4419 167.522 63.2559 167.522 62.6977C167.522 62.5117 167.522 62.3256 167.708 61.9535C167.893 61.5814 168.635 58.0466 170.305 51.1628C171.974 44.2791 173.087 40.1861 173.458 38.6977C173.458 38.5117 173.644 38.5117 173.83 38.5117C174.015 38.5117 174.201 38.5117 174.201 38.6977C174.386 38.8838 174.386 38.8838 174.386 39.0698C174.386 39.2559 174.201 39.814 174.015 40.9303C173.83 42.0466 172.902 45.7675 171.418 51.721C169.934 57.8605 168.821 61.5814 168.264 63.0698ZM182.734 56.1861L183.105 58.0466C183.105 58.2326 183.291 58.9768 183.476 59.907C183.662 60.8373 183.847 61.5814 183.847 61.9535C183.847 62.3256 183.662 62.6977 183.291 62.8838C182.92 62.8838 182.549 62.8838 182.178 62.6977C181.807 62.5117 181.807 62.1396 181.807 61.7675C181.807 60.8373 181.621 59.5349 181.436 57.8605L178.282 57.4884C178.096 58.2326 177.911 58.9768 177.911 59.721C177.725 60.4652 177.725 61.2093 177.54 61.5814C177.354 62.3256 176.983 62.6977 176.427 62.6977C176.241 62.6977 175.87 62.6977 175.685 62.5117C175.499 62.3256 175.314 62.1396 175.314 61.9535V61.7675C176.798 56.3721 177.725 50.9768 178.467 45.7675C178.467 45.5814 178.467 45.2093 178.467 44.4652C178.653 42.9768 178.838 41.8605 179.024 41.4884H180.137C180.508 41.4884 180.694 41.4884 180.879 41.6745C181.065 41.8605 181.25 42.0466 181.25 42.2326C181.25 43.907 181.436 46.1396 181.807 49.3024C182.549 52.4652 182.734 54.6977 182.734 56.1861ZM178.282 56.1861C178.653 56.3721 179.58 56.5582 181.065 56.7442C181.065 56.3721 181.065 55.814 181.065 55.0698C181.065 54.3256 181.065 53.3954 180.879 52.2791C180.879 51.1628 180.694 49.8605 180.508 48.3721C180.322 46.8838 180.323 45.7675 180.137 45.0233C179.209 50.4186 178.653 54.1396 178.282 56.1861ZM197.761 64.1861C197.019 64.1861 196.833 63.4419 196.833 62.1396V58.0466C196.833 57.1163 196.833 55.814 196.648 53.9535C196.462 52.0931 196.462 50.9768 196.462 50.2326C196.462 49.6745 196.462 48.9303 196.462 48C196.462 47.0698 196.462 46.5117 196.462 45.9535C196.462 46.1396 196.091 47.6279 195.349 50.2326C193.679 57.1163 192.566 60.4652 191.824 60.4652C191.453 60.4652 191.082 60.2791 190.897 60.0931C190.711 59.907 190.526 59.5349 190.526 59.1628C190.526 58.2326 190.155 56.1861 189.413 53.0233C188.671 49.8605 187.929 47.4419 187.372 45.9535C187.001 53.3954 186.815 58.4186 186.815 61.0233V61.9535C186.815 62.3256 186.815 62.5117 186.63 62.6977C186.444 62.8838 186.259 62.8838 185.888 62.8838C185.517 62.8838 185.331 62.8838 185.146 62.6977C184.96 62.5117 184.775 62.3256 184.775 62.1396C184.775 59.907 184.96 56.7442 185.331 52.4652C185.702 48.1861 185.888 45.0233 185.888 42.7907C185.702 42.6047 185.702 42.4186 185.702 42.0466C185.702 41.8605 185.888 41.6745 186.073 41.4884C186.259 41.3024 186.63 41.3024 186.815 41.3024C187.186 41.3024 188.114 43.3489 189.413 47.6279C190.711 51.907 191.639 54.8838 191.824 56.3721C191.824 56 192.195 55.2559 192.381 53.9535C192.566 52.6512 192.937 51.3489 193.308 50.0466C193.679 48.7442 194.051 47.2559 194.422 45.9535C195.349 42.7907 196.091 41.1163 196.648 41.1163C196.833 41.1163 197.204 41.1163 197.39 41.3024C197.575 41.4884 197.761 41.6745 197.761 41.8605C197.761 43.3489 197.761 45.5814 197.946 48.7442C198.132 51.721 198.132 53.9535 198.132 55.2559V58.6047C198.132 58.7907 198.132 59.5349 198.317 60.8373V61.3954C198.317 61.5814 198.503 61.9535 198.503 62.1396C198.503 62.3256 198.317 62.6977 198.132 62.8838C198.503 64 198.132 64.1861 197.761 64.1861ZM204.996 62.6977C204.439 62.6977 204.254 61.3954 204.254 58.6047V48.5582C204.254 47.814 204.254 46.8838 204.068 45.3954C203.883 44.0931 203.883 43.1628 203.883 42.7907C203.883 42.4186 204.068 42.0466 204.254 41.8605C204.439 41.6745 204.81 41.4884 204.996 41.4884C207.222 41.4884 208.892 42.7907 210.19 45.3954C210.932 46.8838 211.303 48.3721 211.303 50.0466V51.721V53.3954C211.303 55.4419 211.118 56.9303 210.932 57.6745C210.747 58.4186 210.561 58.9768 210.376 59.5349C210.19 60.0931 210.005 60.4652 209.634 60.8373C208.892 61.7675 208.15 62.3256 207.036 62.8838H204.996V62.6977ZM206.48 60.4652V61.2093C208.335 61.2093 209.448 59.3489 209.819 55.6279C209.819 54.6977 210.005 53.9535 210.005 53.2093C210.005 46.8838 208.706 43.5349 206.294 43.1628C206.109 43.907 206.109 45.2093 206.109 46.5117C206.109 48 206.109 50.2326 206.294 53.3954C206.294 56.5582 206.48 58.7907 206.48 60.4652ZM216.683 62.3256H214.828C214.643 62.3256 214.457 62.3256 214.271 62.5117C214.086 62.6977 213.9 62.6977 213.715 62.6977C213.529 62.6977 213.344 62.6977 213.158 62.5117C212.973 62.3256 212.973 62.1396 212.973 61.7675C212.973 59.907 213.715 56.5582 215.014 51.907C216.498 47.2559 217.24 44.2791 217.611 43.1628L215.014 43.3489C214.828 43.3489 214.643 43.3489 214.457 43.1628C214.271 42.9768 214.271 42.7907 214.271 42.6047C214.271 42.0466 215.385 41.6745 217.796 41.6745C218.909 41.6745 219.28 42.0466 219.28 42.6047C219.28 43.3489 219.095 44.2791 218.538 45.5814C218.167 46.8838 217.796 47.814 217.796 48.1861C217.611 49.8605 217.054 52.2791 216.127 55.4419C215.199 58.6047 214.828 60.4652 214.828 60.8373H215.385H216.683C217.611 60.8373 217.982 61.0233 217.982 61.5814C217.982 61.7675 217.796 61.9535 217.611 62.1396C217.24 62.3256 217.054 62.3256 216.683 62.3256ZM224.104 52.0931L224.289 58.7907V59.721V60.6512H224.66H225.588C226.515 60.6512 226.886 60.8372 226.886 61.3954C226.886 61.5814 226.701 61.9535 226.515 62.1396C226.33 62.3256 226.144 62.5117 225.773 62.5117H224.475C223.547 62.5117 222.991 62.5117 222.62 62.5117C222.434 62.5117 222.249 62.5117 222.249 62.5117C221.507 62.5117 221.135 62.3256 221.135 61.7675C221.135 61.5814 221.135 61.3954 221.321 61.2093C221.507 61.0233 221.507 61.0233 221.692 61.0233H222.62V60.6512L222.434 53.9535L222.62 46.5117C222.62 45.3954 222.62 44.0931 222.434 43.1628H221.878H221.135C220.764 43.1628 220.579 43.1628 220.393 42.9768C220.208 42.7907 220.208 42.6047 220.208 42.2326C220.208 41.6745 220.764 41.4884 221.692 41.4884H225.402C226.33 41.4884 226.701 41.6745 226.701 42.2326C226.701 42.4186 226.701 42.6047 226.515 42.7907C226.33 42.9768 226.144 42.9768 225.959 42.9768H224.289C224.289 43.907 224.475 44.8373 224.475 45.9535L224.104 52.0931ZM229.855 67.3489C230.226 67.3489 230.782 67.1628 231.153 66.7907L231.339 67.3489C231.339 67.5349 231.153 67.907 230.782 68.0931C230.411 68.2791 230.04 68.4652 229.669 68.4652C229.298 68.4652 228.927 68.2791 228.742 67.907C228.556 67.5349 228.371 67.1628 228.371 66.7907C228.371 65.8605 228.742 65.1163 229.298 64.3721C229.855 63.6279 230.597 63.0698 231.339 62.5117L232.266 62.8838C232.081 62.8838 231.895 63.0698 231.71 63.2559C231.524 63.4419 231.339 63.6279 231.153 63.814C230.968 64 230.782 64 230.782 64.1861C230.782 64.1861 230.597 64.3721 230.411 64.5582C230.226 64.7442 230.226 64.9303 230.04 64.9303C230.04 65.1163 229.855 65.1163 229.855 65.3024C229.669 65.4884 229.669 65.6745 229.669 65.6745C229.484 66.0466 229.484 66.4186 229.484 66.7907C229.298 67.1628 229.484 67.3489 229.855 67.3489ZM228.556 46.5117L228.371 43.907C228.371 42.4186 228.742 41.6745 229.669 41.6745C230.226 41.6745 230.968 41.8605 231.895 42.0466C232.823 42.2326 233.379 42.6047 233.379 42.9768C233.379 43.3489 233.008 43.721 232.452 43.907C231.524 43.5349 230.597 43.3489 230.04 43.3489C230.04 43.721 230.04 44.2791 230.04 44.6512L229.855 49.1163C229.855 49.1163 229.855 49.3024 229.855 49.6745H230.968C231.895 49.6745 232.452 50.0466 232.452 50.6047C232.452 50.7907 232.452 50.9768 232.266 51.1628C232.081 51.3489 231.895 51.3489 231.524 51.3489C231.153 51.3489 230.968 51.3489 230.597 51.3489H229.855C229.855 52.0931 229.855 53.0233 229.855 53.7675L230.04 59.5349C230.04 60.6512 230.04 61.3954 230.04 61.3954H232.452C233.194 61.3954 233.565 61.5814 233.565 62.1396C233.565 62.5117 233.379 62.6977 233.194 62.8838C233.008 63.0698 232.637 63.0698 232.266 63.0698H229.669C229.484 63.0698 229.113 62.8838 228.927 62.6977C228.742 62.5117 228.556 62.3256 228.556 61.9535V61.2093L228.371 55.814L228.556 46.5117ZM242.099 43.907C240.614 46.5117 239.687 48 239.501 48.3721V50.2326C239.501 51.1628 239.872 52.8373 240.614 55.2559C241.356 57.6745 241.913 59.3489 242.47 60.0931C242.47 60.0931 242.655 60.4652 242.841 60.6512C243.026 61.0233 243.212 61.2093 243.212 61.3954C243.397 61.5814 243.397 61.7675 243.397 62.1396C243.397 62.3256 243.397 62.5117 243.212 62.6977C243.026 62.8838 242.841 62.8838 242.655 62.8838C242.099 62.8838 241.728 62.3256 241.171 61.3954C240.614 60.2791 240.243 59.1628 239.687 57.4884C238.945 54.8838 238.388 52.6512 238.203 50.7907C237.461 52.2791 237.09 54.1396 237.09 56.3721V62.1396C237.09 62.6977 236.904 62.8838 236.533 62.8838C236.162 62.8838 235.977 62.8838 235.791 62.6977C235.606 62.5117 235.42 62.3256 235.42 61.9535V52.2791C235.42 51.1628 235.606 49.4884 235.791 47.0698C235.977 44.6512 236.162 43.1628 236.162 42.0466C236.348 41.6745 236.533 41.4884 236.904 41.4884C237.275 41.4884 237.461 41.6745 237.646 41.8605C237.832 42.0466 238.017 42.2326 238.017 42.6047C237.832 43.1628 237.646 45.0233 237.646 48.3721V49.4884C237.646 49.4884 238.017 48.7442 238.759 47.2559C240.614 43.721 241.728 41.8605 242.099 41.8605C242.47 41.8605 242.655 41.8605 243.026 42.0466C243.212 42.2326 243.397 42.4186 243.397 42.6047C242.841 42.6047 242.655 43.1628 242.099 43.907ZM248.221 52.0931L248.406 58.7907V59.721V60.6512H248.777H249.705C250.632 60.6512 251.003 60.8372 251.003 61.3954C251.003 61.5814 250.818 61.9535 250.632 62.1396C250.447 62.3256 250.261 62.5117 249.89 62.5117H248.592C247.664 62.5117 247.107 62.5117 246.736 62.5117C246.551 62.5117 246.365 62.5117 246.365 62.5117C245.623 62.5117 245.252 62.3256 245.252 61.7675C245.252 61.5814 245.252 61.3954 245.438 61.2093C245.623 61.0233 245.623 61.0233 245.809 61.0233H246.736V60.6512L246.551 53.9535L246.736 46.8838C246.736 45.7675 246.736 44.4652 246.551 43.5349H245.994H245.252C244.881 43.5349 244.696 43.5349 244.51 43.3489C244.325 43.1628 244.325 42.9768 244.325 42.6047C244.325 42.0466 244.881 41.8605 245.809 41.8605H249.519C250.447 41.8605 250.818 42.0466 250.818 42.6047C250.818 42.7907 250.818 42.9768 250.632 43.1628C250.447 43.3489 250.261 43.3489 250.076 43.3489H248.406C248.406 44.2791 248.592 45.2093 248.592 46.3256L248.221 52.0931Z" fill="black"/>
<path d="M53.2415 89.8604V87.4418C53.2415 87.4418 53.2415 87.0697 53.2415 86.3255C53.2415 86.1395 53.056 83.7209 52.685 79.2557C52.4995 74.7906 52.314 71.9999 52.314 71.0697C52.314 71.0697 52.314 71.0697 52.1284 71.0697C50.4588 71.0697 49.5312 70.6976 49.5312 70.1395C49.5312 69.9534 49.7168 69.7674 49.9023 69.5813C50.0878 69.3953 50.2733 69.3953 50.6443 69.3953L54.9111 69.7674H55.4677C56.2097 69.7674 56.3953 69.9534 56.3953 70.5116C56.3953 70.6976 56.2097 71.0697 56.0242 71.0697C55.8387 71.2557 55.6532 71.2557 55.2822 71.2557L53.7981 71.0697V71.4418C53.7981 73.4883 53.9836 76.465 54.3546 80.372C54.7256 84.279 54.9111 87.4418 54.9111 89.3023C54.9111 89.4883 54.7256 89.8604 54.5401 90.0464C54.3546 90.2325 53.9836 90.4185 53.7981 90.4185L53.2415 89.8604ZM58.0649 74.4185L57.8794 71.8139C57.8794 70.3255 58.2504 69.5813 59.178 69.5813C59.7345 69.5813 60.4766 69.7674 61.4041 69.9534C62.3317 70.1395 62.8882 70.5115 62.8882 70.8836C62.8882 71.2557 62.5172 71.6278 61.9607 71.8139C61.0331 71.4418 60.1055 71.2557 59.549 71.2557C59.549 71.6278 59.549 72.186 59.549 72.5581L59.3635 77.0232C59.3635 77.0232 59.3635 77.2092 59.3635 77.5813H60.4766C61.4041 77.5813 61.9607 77.9534 61.9607 78.5116C61.9607 78.6976 61.9607 78.8836 61.7751 79.0697C61.5896 79.2557 61.4041 79.2557 61.0331 79.2557C60.6621 79.2557 60.4766 79.2557 60.1055 79.2557H59.3635C59.3635 79.9999 59.3635 80.9302 59.3635 81.6743L59.549 87.4418C59.549 88.5581 59.549 89.3023 59.549 89.3023H61.9607C62.7027 89.3023 63.0737 89.4883 63.0737 90.0464C63.0737 90.4185 62.8882 90.6046 62.7027 90.7906C62.5172 90.9767 62.1462 90.9767 61.7751 90.9767H59.178C58.9924 90.9767 58.6214 90.7906 58.4359 90.6046C58.2504 90.4185 58.0649 90.2325 58.0649 89.8604V89.1162L57.8794 83.7209L58.0649 74.4185ZM68.6392 71.2557L69.0102 84.6511V87.9999C69.0102 89.1162 69.0102 89.8604 68.8247 90.2325C68.6392 90.6046 68.4536 91.1627 68.2681 91.3488C68.0826 91.7209 67.8971 91.9069 67.7116 92.0929C67.5261 92.279 67.155 92.465 66.9695 92.6511C66.413 93.0232 65.4854 93.2092 64.3723 93.2092C64.1868 93.2092 64.0013 93.0232 64.0013 92.8371V92.279C64.0013 92.0929 64.1868 92.093 64.3723 91.9069C65.4854 91.5348 66.2275 91.1627 66.413 90.9767C66.9695 90.2325 67.3406 89.1162 67.3406 87.4418L66.9695 71.2557V71.0697C66.2275 71.0697 65.6709 71.0697 65.2999 70.8836C64.9289 70.6976 64.7434 70.6976 64.7434 70.5116C64.7434 70.5116 64.7434 70.3255 64.7434 70.1395C64.7434 69.9534 64.9289 69.7674 65.1144 69.7674C65.2999 69.5813 65.6709 69.5813 66.2275 69.5813C66.784 69.5813 67.7116 69.5813 69.1957 69.7674C70.6798 69.9534 71.4219 70.1395 71.4219 70.3255C71.4219 70.5116 71.4219 70.6976 71.2363 70.8836C71.0508 71.0697 70.8653 71.0697 70.6798 71.0697H68.6392V71.2557ZM82.9237 71.8139C81.4396 74.4185 80.512 75.9069 80.3265 76.279V78.1395C80.3265 79.0697 80.6975 80.7441 81.4396 83.1627C82.1817 85.5813 82.7382 87.2557 83.2947 87.9999C83.2947 87.9999 83.4802 88.372 83.6658 88.5581C83.8513 88.9302 84.0368 89.1162 84.0368 89.3023C84.2223 89.4883 84.2223 89.6743 84.2223 90.0464C84.2223 90.2325 84.2223 90.4185 84.0368 90.6046C83.8513 90.7906 83.6658 90.7906 83.4802 90.7906C82.9237 90.7906 82.5527 90.2325 81.9961 89.3023C81.4396 88.186 81.0686 87.0697 80.512 85.3953C79.77 82.7906 79.2134 80.5581 79.0279 78.6976C78.2859 80.186 77.9148 82.0464 77.9148 84.279V90.0464C77.9148 90.6046 77.7293 90.7906 77.3583 90.7906C76.9873 90.7906 76.8018 90.7906 76.6162 90.6046C76.4307 90.4185 76.2452 90.2325 76.2452 89.8604V80.186C76.2452 79.0697 76.4307 77.3953 76.6162 74.9767C76.8018 72.5581 76.9873 71.0697 76.9873 69.9534C77.1728 69.5813 77.3583 69.3953 77.7293 69.3953C78.1004 69.3953 78.2859 69.5813 78.4714 69.7674C78.6569 69.9534 78.8424 70.1395 78.8424 70.5116C78.1004 71.0697 77.9148 72.9302 77.9148 76.279V77.3953C77.9148 77.3953 78.2859 76.6511 79.0279 75.1627C80.8831 71.6278 81.9961 69.7674 82.3672 69.7674C82.7382 69.7674 82.9237 69.7674 83.2947 69.9534C83.4803 70.1395 83.6658 70.3255 83.6658 70.5116C83.6658 70.5116 83.4803 71.0697 82.9237 71.8139ZM85.5209 89.1162L86.8195 89.3023C87.1905 89.3023 87.5616 89.1162 87.9326 88.7441C88.3036 88.372 88.4891 87.9999 88.6746 87.4418C88.8601 86.5116 89.0457 85.5813 89.0457 84.8371C89.0457 84.0929 88.8601 83.3488 88.6746 82.6046C88.4891 81.8604 88.1181 81.1162 87.7471 80.5581C87.376 79.8139 87.005 79.2557 86.634 78.5116C85.7064 76.8371 85.3354 75.3488 85.3354 73.8604C85.3354 72.9302 85.5209 71.9999 85.8919 71.2557C86.4485 69.9534 87.1905 69.2092 88.3036 69.2092C88.6746 69.2092 89.0457 69.3953 89.4167 69.5813C89.7877 69.7674 89.9732 70.1395 89.9732 70.3255C89.9732 70.8836 89.7877 71.0697 89.2312 71.0697C89.0457 71.0697 88.8601 71.0697 88.4891 70.8836C87.7471 70.8836 87.376 71.6278 87.1905 73.1162C87.1905 73.4883 87.1905 73.8604 87.1905 74.2325C87.1905 74.6046 87.1905 75.1627 87.376 75.9069C87.5615 76.465 87.7471 77.0232 88.1181 77.5813C88.4891 78.1395 88.6746 78.6976 89.0457 79.2557C89.4167 79.8139 89.6022 80.372 89.9732 80.9302C90.7153 82.2325 90.9008 83.7209 90.9008 85.3953C90.9008 86.6976 90.5298 87.8139 89.9732 89.1162C89.6022 89.6743 89.2312 90.2325 88.6746 90.6046C88.1181 90.9767 87.5615 91.1627 86.8195 91.1627C85.8919 90.9767 85.5209 90.6046 85.3354 89.8604L85.5209 89.1162ZM95.5386 79.9999L95.7241 86.6976V87.6278V88.5581H96.0952H97.0227C97.9503 88.5581 98.3213 88.7441 98.3213 89.3023C98.3213 89.4883 98.1358 89.8604 97.9503 90.0464C97.7648 90.2325 97.5793 90.4185 97.2083 90.4185H95.9097C94.9821 90.4185 94.4256 90.4185 94.0545 90.4185C93.869 90.4185 93.6835 90.4185 93.6835 90.4185C92.9414 90.4185 92.5704 90.2325 92.5704 89.6743C92.5704 89.4883 92.5704 89.3023 92.7559 89.1162C92.9414 88.9302 92.9414 88.9302 93.127 88.9302H94.0545V88.5581L93.869 81.8604L94.0545 74.7906C94.0545 73.6743 94.0545 72.372 93.869 71.4418H93.3125H92.5704C92.1994 71.4418 92.0139 71.4418 91.8284 71.2557C91.6428 71.0697 91.6429 70.8836 91.6429 70.5116C91.6429 69.9534 92.1994 69.7674 93.127 69.7674H96.8372C97.7648 69.7674 98.1358 69.9534 98.1358 70.5116C98.1358 70.6976 98.1358 70.8836 97.9503 71.0697C97.7648 71.2557 97.5793 71.2557 97.3938 71.2557H95.7241C95.7241 72.186 95.9097 73.1162 95.9097 74.2325L95.5386 79.9999ZM106.669 84.0929L107.04 85.9534C107.04 86.1395 107.226 86.8836 107.412 87.8139C107.597 88.7441 107.783 89.4883 107.783 89.8604C107.783 90.2325 107.597 90.6046 107.226 90.7906C106.855 90.7906 106.484 90.7906 106.113 90.6046C105.742 90.4185 105.742 90.0464 105.742 89.6743C105.742 88.7441 105.556 87.4418 105.371 85.7674L102.217 85.3953C102.032 86.1395 101.846 86.8836 101.846 87.6278C101.661 88.372 101.661 89.1162 101.475 89.4883C101.29 90.2325 100.919 90.6046 100.362 90.6046C100.176 90.6046 99.8055 90.6046 99.6199 90.4185C99.4344 90.2325 99.2489 90.0464 99.2489 89.8604V89.6743C100.733 84.279 101.661 78.8836 102.403 73.6743C102.403 73.4883 102.403 73.1162 102.403 72.372C102.588 70.8836 102.774 69.7674 102.959 69.3953H104.072C104.443 69.3953 104.629 69.3953 104.814 69.5813C105 69.7674 105.185 69.9534 105.185 70.1395C105.185 71.8139 105.371 74.0464 105.742 77.2092C106.484 80.372 106.669 82.6046 106.669 84.0929ZM102.217 84.0929C102.588 84.279 103.516 84.465 105 84.6511C105 84.279 105 83.7209 105 82.9767C105 82.2325 105 81.3022 104.814 80.186C104.814 79.0697 104.629 77.7674 104.443 76.279C104.258 74.7906 104.258 73.6743 104.072 72.9302C103.145 78.3255 102.588 82.0464 102.217 84.0929ZM105 95.0697C105.371 95.0697 105.927 94.8836 106.298 94.5116L106.484 95.0697C106.484 95.2557 106.298 95.6278 105.927 95.8139C105.556 95.9999 105.185 96.186 104.814 96.186C104.443 96.186 104.072 95.9999 103.887 95.6278C103.701 95.2557 103.516 94.8836 103.516 94.5116C103.516 93.5813 103.887 92.8371 104.443 92.0929C105 91.3488 105.742 90.7906 106.484 90.2325L107.412 90.6046C107.226 90.6046 107.04 90.7906 106.855 90.9767C106.669 91.1627 106.484 91.3488 106.298 91.5348C106.113 91.7209 105.927 91.7209 105.927 91.9069C105.927 91.9069 105.742 92.0929 105.556 92.279C105.371 92.465 105.371 92.6511 105.185 92.6511C105.185 92.8371 105 92.8371 105 93.0232C104.814 93.2092 104.814 93.3953 104.814 93.3953C104.629 93.7674 104.629 94.1395 104.629 94.5116C104.629 94.8836 104.629 95.0697 105 95.0697ZM112.606 90.2325H110.751C110.565 90.2325 110.38 90.2325 110.194 90.4185C110.009 90.6046 109.823 90.6046 109.638 90.6046C109.452 90.6046 109.267 90.6046 109.081 90.4185C108.896 90.2325 108.896 90.0464 108.896 89.6743C108.896 87.8139 109.638 84.465 110.936 79.8139C112.42 75.1627 113.162 72.186 113.533 71.0697L110.936 71.2557C110.751 71.2557 110.565 71.2557 110.38 71.0697C110.194 70.8836 110.194 70.6976 110.194 70.5116C110.194 69.9534 111.307 69.5813 113.719 69.5813C114.832 69.5813 115.203 69.9534 115.203 70.5116C115.203 71.2557 115.018 72.186 114.461 73.4883C114.09 74.7906 113.719 75.7209 113.719 76.093C113.533 77.7674 112.977 80.186 112.049 83.3488C111.122 86.5116 110.751 88.372 110.751 88.7441H111.307H112.606C113.533 88.7441 113.904 88.9302 113.904 89.4883C113.904 89.6743 113.719 89.8604 113.533 90.0464C113.162 90.2325 112.791 90.2325 112.606 90.2325ZM112.606 67.5348C112.235 67.5348 112.049 67.3488 111.864 67.1627C111.678 66.9767 111.493 66.6046 111.493 66.4185C111.493 66.0464 111.678 65.8604 111.864 65.6743C112.049 65.4883 112.42 65.3022 112.606 65.3022C112.791 65.3022 113.162 65.4883 113.348 65.6743C113.533 65.8604 113.719 66.2325 113.719 66.6046C113.719 66.9767 113.533 67.1627 113.348 67.3488C113.162 67.5348 112.977 67.5348 112.606 67.5348ZM118.357 90.2325C116.873 89.3023 116.316 86.8836 116.316 82.7906V80.9302V80.186C116.316 77.0232 116.502 74.9767 116.687 73.6743C117.058 72.186 117.615 71.0697 118.171 70.5116C119.099 69.7674 120.212 69.3953 121.511 69.3953C121.882 69.3953 122.067 69.3953 122.253 69.5813C122.438 69.7674 122.438 69.9534 122.438 70.1395C122.438 70.3255 122.438 70.5116 122.253 70.6976C122.067 70.8836 121.882 70.8836 121.696 70.8836H120.212C119.841 70.8836 119.47 71.0697 119.099 71.6278C118.728 72.186 118.542 72.9302 118.357 73.6743C118.171 75.1627 117.986 76.465 117.986 77.3953V77.5813L117.8 83.7209C117.8 85.0232 117.8 85.9534 117.986 86.3255C118.171 86.6976 118.728 87.4418 118.728 87.8139C118.913 88.186 119.099 88.372 119.284 88.5581C119.841 88.9302 120.397 89.3023 121.14 89.3023C121.325 89.3023 121.696 89.3023 121.882 89.1162C122.067 89.1162 122.438 89.1162 122.624 89.3023C122.809 89.4883 122.995 89.6743 122.995 89.8604C122.995 90.6046 122.438 91.1627 121.325 91.1627C120.769 91.1627 120.397 91.1627 119.841 90.9767C119.099 90.6046 118.728 90.4185 118.357 90.2325ZM124.479 74.4185L124.293 71.8139C124.293 70.3255 124.664 69.5813 125.592 69.5813C126.148 69.5813 126.89 69.7674 127.818 69.9534C128.746 70.1395 129.302 70.5115 129.302 70.8836C129.302 71.2557 128.931 71.6278 128.375 71.8139C127.447 71.4418 126.519 71.2557 125.963 71.2557C125.963 71.6278 125.963 72.186 125.963 72.5581L125.777 77.0232C125.777 77.0232 125.777 77.2092 125.777 77.5813H126.89C127.818 77.5813 128.375 77.9534 128.375 78.5116C128.375 78.6976 128.375 78.8836 128.189 79.0697C128.004 79.2557 127.818 79.2557 127.447 79.2557C127.076 79.2557 126.89 79.2557 126.519 79.2557H126.148C126.148 79.9999 126.148 80.9302 126.148 81.6743L125.963 87.4418C125.963 88.5581 125.963 89.3023 125.963 89.3023H128.375C129.117 89.3023 129.488 89.4883 129.488 90.0464C129.488 90.4185 129.302 90.6046 129.117 90.7906C128.931 90.9767 128.56 90.9767 128.189 90.9767H125.592C125.406 90.9767 125.035 90.7906 124.85 90.6046C124.664 90.4185 124.479 90.2325 124.479 89.8604V89.1162L124.293 83.7209L124.479 74.4185ZM133.383 90.9767C133.012 90.9767 132.827 90.7906 132.641 90.6046C132.456 90.4185 132.27 90.0464 132.27 89.8604C132.27 89.4883 132.456 89.3023 132.641 89.1162C132.827 88.9302 133.198 88.7441 133.383 88.7441C133.569 88.7441 133.94 88.9302 134.125 89.1162C134.311 89.3023 134.497 89.6743 134.497 90.0464C134.497 90.4185 134.311 90.6046 134.125 90.7906C134.125 90.7906 133.754 90.9767 133.383 90.9767Z" fill="black"/>
<path d="M14.6578 10.9769C15.0288 10.9769 15.2143 10.7908 15.5853 10.7908C16.1419 10.7908 16.6984 10.7908 17.2549 10.7908C17.4405 11.1629 17.4405 11.349 17.626 11.7211C17.997 12.2792 18.1825 13.0234 18.368 13.7676V13.5815C17.4405 12.2792 16.1419 11.1629 14.6578 10.9769ZM10.9475 10.7908C9.27786 11.9071 8.35029 13.5815 7.79375 15.442C7.97927 12.8373 8.72132 10.0466 10.3909 8.18617C11.6895 6.6978 13.5447 6.6978 15.0288 7.62803C15.3998 8.00013 15.9564 8.37222 16.1419 8.74431C15.7708 8.74431 15.5853 8.74431 15.2143 8.74431C13.7302 9.11641 12.2461 9.67455 10.9475 10.7908ZM13.9157 79.2559C14.4722 79.442 14.8433 79.8141 15.2143 80.0001C13.7302 80.3722 12.2461 80.1862 10.9475 79.442C10.2054 77.9536 9.64889 76.4652 9.09235 74.9769C9.46338 75.1629 9.8344 75.349 10.0199 75.7211C11.504 76.6513 12.6171 78.1397 13.9157 79.2559ZM18.368 78.3257C17.997 78.5118 17.626 78.5118 17.2549 78.5118C15.3998 78.6978 14.1012 77.2094 12.8026 75.9071C11.3185 74.4187 9.46338 72.9304 7.42273 72.1862C5.56759 70.5118 2.04283 71.0699 1.6718 74.0466C1.11526 77.7676 2.9704 81.3025 5.56759 83.535C7.42273 86.6978 9.8344 89.3025 13.3592 90.9769C19.2956 93.7676 25.7886 91.9071 29.3133 86.3257C32.6526 80.9304 33.9512 73.8606 34.6932 67.7211C35.6208 61.0234 35.0643 53.9536 31.725 48.0001C29.3133 43.7211 25.6031 39.8141 21.1507 37.9536C23.3769 33.4885 25.0465 28.6513 25.6031 23.442C26.3451 17.3025 25.9741 9.67455 21.7073 4.65129C17.997 0.186173 10.5765 -2.04639 5.56759 2.41873C1.6718 5.95361 0.558721 11.535 0.373207 16.7443C0.00218004 18.0466 -0.368847 19.349 0.558721 20.4652C1.11526 21.2094 1.85732 21.5815 2.59937 21.7676C3.34143 22.5118 4.82553 22.6978 5.38208 21.5815C6.12413 21.3955 6.68067 21.0234 7.23721 20.4652C7.42273 20.4652 7.60824 20.2792 7.79375 19.9071C7.97927 19.9071 8.16478 19.9071 8.35029 19.9071C8.90684 19.9071 9.27786 19.535 9.27786 18.9769C9.27786 18.4187 9.27786 17.8606 9.27786 17.1164C10.5765 14.6978 11.6895 12.2792 14.2867 12.2792C17.8115 12.4652 17.8115 18.2327 17.8115 20.6513C17.8115 23.0699 17.626 25.3025 17.4405 27.535C15.9564 31.628 13.3592 35.535 10.2054 38.3257C8.35029 40.0001 8.90683 42.9769 11.3185 43.9071C17.997 46.5118 22.6348 52.6513 23.9334 59.7211C25.0465 66.2327 23.7479 74.4187 18.368 78.3257Z" fill="black"/>
</g>
<defs>
<clipPath id="clip0_156_5056">
<rect width="251" height="96" fill="white"/>
</clipPath>
</defs>
</svg>
