<svg width="302" height="93" viewBox="0 0 302 93" fill="none" xmlns="http://www.w3.org/2000/svg">
<path d="M54.0679 32.6514V36.7046C54.0679 40.0823 54.2941 42.7845 54.7465 44.586L54.2941 45.7119H53.163L52.9368 45.0363C52.9368 43.9104 52.9368 42.5593 52.9368 41.2083C52.9368 39.8572 52.9368 36.7046 52.7106 31.9758C52.4844 27.247 52.4844 23.8693 52.4844 21.6175C52.4844 20.4915 52.9368 19.816 53.8417 19.816C55.199 19.816 56.3301 20.2664 57.2349 20.9419C58.1398 21.6175 58.5922 22.7434 58.5922 23.8693V26.5715C58.5922 27.247 58.366 27.9225 58.1398 28.5981C57.9136 29.2736 57.4611 29.9492 57.2349 30.3995C56.5563 31.0751 56.3301 31.5254 56.3301 31.5254C56.5563 32.201 56.7825 33.3269 57.0087 35.1284C57.6874 39.1816 58.5922 41.8838 59.4971 43.6853C59.7233 44.1356 59.9495 44.586 59.9495 44.8112C59.9495 45.0363 59.9495 45.2615 59.7233 45.4867C59.4971 45.7119 59.2709 45.7119 59.0447 45.7119C58.5922 45.7119 57.9136 45.0363 57.4612 43.9104C57.0087 42.7845 56.5563 41.4334 56.3301 39.8572C55.4252 35.3535 54.7465 32.8765 54.7465 32.201H54.0679V32.6514ZM56.1038 22.5182C55.8776 21.6175 55.199 21.1671 54.2941 21.1671L54.0679 21.6175C54.0679 22.7434 54.0679 24.0945 54.0679 26.1211C54.0679 28.1477 54.0679 29.4988 54.0679 30.3995C54.7465 30.1744 55.199 29.2736 55.4252 27.9225C55.8776 26.5715 55.8776 25.6707 55.8776 24.9952C55.8776 24.3196 55.8776 23.8693 55.8776 23.4189C56.3301 23.4189 56.1038 22.9685 56.1038 22.5182ZM65.8312 45.0363H63.569C63.3428 45.0363 63.1166 45.0363 62.8904 45.2615C62.6641 45.4867 62.4379 45.4867 62.2117 45.4867C61.9855 45.4867 61.7593 45.4867 61.5331 45.2615C61.0806 45.0363 61.0806 44.8112 61.0806 44.3608C61.0806 42.109 61.9855 38.0557 63.569 32.4262C65.3788 26.7966 66.2836 23.1937 66.7361 21.8426L63.569 22.0678C63.3428 22.0678 63.1166 22.0678 62.8904 21.8426C62.6641 21.6175 62.6641 21.3923 62.6641 21.1671C62.6641 20.4915 64.0215 20.0412 66.9623 20.0412C68.3196 20.0412 68.772 20.4915 68.772 21.1671C68.772 22.0678 68.5458 23.1937 67.8671 24.77C67.4147 26.3463 66.9623 27.4722 66.9623 27.9225C66.7361 29.9492 66.0574 32.8765 64.9263 36.7046C63.7952 40.5327 63.3428 42.7845 63.3428 43.4601H64.0214H65.605C66.7361 43.4601 67.1885 43.6853 67.1885 44.3608C67.1885 44.586 66.9623 44.8112 66.7361 45.0363C66.2836 45.0363 66.0574 45.0363 65.8312 45.0363ZM71.0342 26.1211L70.808 22.9685C70.808 21.1671 71.2604 20.2664 72.3915 20.2664C73.0701 20.2664 73.975 20.4915 75.1061 20.7167C76.4634 20.9419 76.9158 21.3923 76.9158 21.8426C76.9158 22.293 76.4634 22.7434 75.7847 22.9685C74.6537 22.5182 73.5226 22.293 72.8439 22.293C72.8439 22.7434 72.8439 23.4189 72.8439 23.8693L72.6177 29.2736C72.6177 29.2736 72.6177 29.4988 72.6177 29.9492H73.975C75.1061 29.9492 75.7847 30.3995 75.7847 31.0751C75.7847 31.3003 75.7847 31.5254 75.5585 31.7506C75.3323 31.9758 75.1061 31.9758 74.6537 31.9758C74.2012 31.9758 73.975 31.9758 73.5226 31.9758H72.6177C72.6177 32.8765 72.6177 34.0024 72.6177 34.9032L72.3915 41.8838C72.3915 43.2349 72.3915 44.1356 72.3915 44.1356H75.3323C76.2372 44.1356 76.6896 44.3608 76.6896 45.0363C76.6896 45.4867 76.4634 45.7119 76.2372 45.9371C76.011 46.1623 75.5585 46.1623 75.1061 46.1623H72.3915C72.1653 46.1623 71.7128 45.9371 71.4866 45.7119C71.2604 45.4867 71.0342 45.2615 71.0342 44.8112V43.9104L70.808 37.3802L71.0342 26.1211ZM81.214 45.0363C79.4042 43.9104 78.7256 40.9831 78.7256 36.0291V33.7773V32.8765C78.7256 29.0485 78.9518 26.5715 79.178 24.9952C79.6304 23.1937 80.3091 21.8426 80.9877 21.1671C82.1188 20.2664 83.4761 19.816 85.0596 19.816C85.5121 19.816 85.7383 19.816 85.9645 20.0412C86.1907 20.2664 86.1907 20.4915 86.1907 20.7167C86.1907 20.9419 86.1907 21.1671 85.9645 21.3923C85.7383 21.6175 85.5121 21.6175 85.2859 21.6175H83.7023C83.2499 21.6175 82.7975 21.8426 82.345 22.5182C81.8926 23.1937 81.6664 24.0945 81.4402 24.9952C81.214 26.7966 80.9877 28.3729 80.9877 29.4988V29.724L80.7615 37.155C80.7615 38.7313 80.7615 39.8572 80.9877 40.3075C81.214 40.7579 81.4402 41.4334 81.4402 41.6586C81.6664 42.109 81.8926 42.3342 82.1188 42.5593C82.7975 43.0097 83.4761 43.4601 84.381 43.4601C84.6072 43.4601 85.0597 43.4601 85.2859 43.2349C85.5121 43.2349 85.9645 43.2349 86.1907 43.4601C86.4169 43.6853 86.6432 43.9104 86.6432 44.1356C86.6432 45.0363 85.9645 45.7119 84.6072 45.7119C83.9286 45.7119 83.4761 45.7119 82.7975 45.4867C81.8926 45.4867 81.4402 45.2615 81.214 45.0363ZM92.5248 45.0363H90.2626C90.0364 45.0363 89.8102 45.0363 89.584 45.2615C89.3578 45.4867 89.1316 45.4867 88.9053 45.4867C88.6791 45.4867 88.4529 45.4867 88.2267 45.2615C88.0005 45.0363 88.0005 44.8112 88.0005 44.3608C88.0005 42.109 88.9053 38.0557 90.4889 32.4262C92.2986 26.7966 93.2035 23.1937 93.6559 21.8426L90.4889 22.0678C90.2626 22.0678 90.0364 22.0678 89.8102 21.8426C89.584 21.6175 89.584 21.3923 89.584 21.1671C89.584 20.4915 90.9413 20.0412 93.8821 20.0412C95.2394 20.0412 95.6919 20.4915 95.6919 21.1671C95.6919 22.0678 95.4656 23.1937 94.787 24.77C94.3346 26.3463 93.8821 27.4722 93.8821 27.9225C93.6559 29.9492 92.9772 32.8765 91.8462 36.7046C90.7151 40.5327 90.2626 42.7845 90.2626 43.2349H90.9413H92.5248C93.6559 43.2349 94.1083 43.4601 94.1083 44.1356C94.1083 44.3608 93.8821 44.586 93.6559 44.8112C93.2035 45.0363 92.751 45.0363 92.5248 45.0363ZM102.705 43.2349C102.705 45.0363 102.252 45.7119 101.347 45.7119C100.895 45.7119 100.442 45.4867 100.216 44.8112C100.442 44.3608 100.669 42.109 100.669 38.2809C100.669 37.6054 100.669 36.7046 100.442 35.3535C100.216 34.0024 100.216 33.1017 100.216 32.6514V31.7506C100.216 31.7506 99.7638 30.6247 99.0851 28.8233C97.2754 24.5448 96.5967 22.0678 96.5967 21.1671V21.1671L97.5016 20.4915C98.1802 20.4915 99.3113 22.5182 100.216 26.3463C100.669 28.1477 100.895 28.8233 100.895 29.0484C100.895 28.8233 101.121 27.6974 101.574 26.1211C102.252 22.0678 103.157 19.816 104.062 19.816C104.288 19.816 104.514 19.816 104.741 20.0412C104.967 20.2664 104.967 20.4915 104.967 20.7167C104.967 22.0678 104.514 23.8693 103.836 26.3463C103.157 28.8233 102.705 30.6247 102.705 31.9758V43.2349V43.2349ZM111.979 43.9104C111.979 44.586 111.753 45.2615 111.301 45.9371C110.848 46.8378 110.396 47.5133 109.717 48.1889C109.039 48.8644 108.586 49.0896 107.908 49.0896C107.455 49.0896 107.229 48.8644 107.229 48.6393C107.229 48.4141 107.455 47.9637 107.681 47.7385C108.134 47.063 108.586 45.9371 108.812 44.1356C109.039 42.5593 109.491 41.8838 110.396 41.8838C111.527 41.8838 111.979 42.5593 111.979 43.9104ZM123.517 45.0363H121.254C121.028 45.0363 120.802 45.0363 120.576 45.2615C120.35 45.4867 120.123 45.4867 119.897 45.4867C119.671 45.4867 119.445 45.4867 119.218 45.2615C118.992 45.0363 118.992 44.8112 118.992 44.3608C118.992 42.109 119.897 38.0557 121.481 32.4262C123.29 26.7966 124.195 23.1937 124.648 21.8426L121.481 22.0678C121.254 22.0678 121.028 22.0678 120.802 21.8426C120.576 21.6175 120.576 21.3923 120.576 21.1671C120.576 20.4915 121.933 20.0412 124.874 20.0412C126.231 20.0412 126.684 20.4915 126.684 21.1671C126.684 22.0678 126.457 23.1937 125.779 24.77C125.326 26.3463 124.874 27.4722 124.874 27.9225C124.648 29.9492 123.969 32.8765 122.838 36.7046C121.707 40.5327 121.254 42.7845 121.254 43.2349H121.933H123.517C124.648 43.2349 125.1 43.4601 125.1 44.1356C125.1 44.3608 124.874 44.586 124.648 44.8112C123.969 45.0363 123.743 45.0363 123.517 45.0363ZM141.162 22.7434C139.352 25.8959 138.221 27.6974 137.994 28.1477V30.3995C137.994 31.5254 138.447 33.5521 139.352 36.4794C140.257 39.4068 140.935 41.4334 141.614 42.3342C141.614 42.3342 141.84 42.7845 142.066 43.0097C142.293 43.4601 142.519 43.6853 142.519 43.9104C142.519 44.3608 142.519 44.8112 142.519 45.0363C142.519 45.2615 142.519 45.4867 142.293 45.7119C142.066 45.9371 141.84 45.9371 141.614 45.9371C140.935 45.9371 140.483 45.2615 139.804 44.1356C139.126 42.7845 138.673 41.4334 137.994 39.4068C137.09 36.2543 136.411 33.5521 136.185 31.3003C135.28 33.1017 134.827 35.3535 134.827 38.0557V45.0363C134.827 45.7119 134.601 45.9371 134.149 45.9371C133.696 45.9371 133.47 45.9371 133.244 45.7119C133.018 45.4867 132.791 45.2615 132.791 44.8112V33.1017C132.791 31.7506 133.018 29.724 133.244 26.7966C133.47 23.8693 133.696 22.0678 133.696 20.7167C133.47 20.2664 133.696 20.0412 134.149 20.0412C134.601 20.0412 134.827 20.2664 135.054 20.4915C135.28 20.7167 135.506 20.9419 135.506 21.3923C135.28 22.0678 135.054 24.3196 135.054 28.3729V29.724C135.054 29.724 135.506 28.8233 136.411 27.0218C138.673 22.7434 140.03 20.4915 140.483 20.4915C140.935 20.4915 141.162 20.4915 141.614 20.7167C141.84 20.9419 142.066 21.1671 142.066 21.3923C142.066 21.3923 141.614 21.8426 141.162 22.7434ZM147.948 44.8112V41.8838C147.948 41.8838 147.948 41.4334 147.948 40.5327C147.948 40.3075 147.722 37.3802 147.269 31.9758C147.043 26.5715 146.817 23.1937 146.817 22.0678C146.817 22.0678 146.817 22.0678 146.591 22.0678C144.555 22.0678 143.424 21.6175 143.424 20.9419C143.424 20.7167 143.65 20.4915 143.876 20.2664C144.102 20.0412 144.329 20.0412 144.781 20.0412L149.984 20.2664H150.663C151.568 20.2664 151.794 20.4915 151.794 21.1671C151.794 21.3923 151.568 21.8426 151.341 21.8426C151.115 22.0678 150.889 22.0678 150.436 22.0678L148.627 21.8426V22.293C148.627 24.77 148.853 28.3729 149.305 33.1017C149.758 37.8305 149.984 41.6586 149.984 43.9104C149.984 44.1356 149.758 44.586 149.532 44.8112C149.305 45.0363 148.853 45.2615 148.627 45.2615L147.948 44.8112ZM153.377 39.4068C153.151 37.155 152.925 35.3535 152.925 33.7773V32.4262C152.925 32.201 152.925 32.201 152.925 32.201V31.5254C152.925 27.4722 153.151 24.77 153.603 22.9685C154.056 21.6175 154.282 20.7167 154.735 20.2664C155.187 20.0412 155.413 19.816 155.866 19.816C158.806 19.816 160.842 21.3923 161.973 24.3196C162.652 26.1211 162.878 28.1477 162.878 30.6247V30.8499V35.1284C162.878 42.5593 161.069 46.1623 157.675 46.1623C156.318 46.1623 155.187 45.4867 154.508 43.9104C154.056 42.3342 153.603 40.7579 153.377 39.4068ZM155.413 28.3729L155.187 31.9758C155.187 35.5787 155.413 38.9564 156.092 41.6586C156.771 43.2349 157.449 44.1356 157.902 44.586C158.354 44.586 158.806 44.3608 159.259 44.1356C159.711 43.9104 159.938 43.2349 160.164 42.5593C160.39 41.8838 160.616 41.2083 160.616 40.5327C160.842 39.8572 160.842 39.1816 160.842 38.2809C161.069 36.9298 161.069 35.8039 161.069 34.9032C161.069 34.0024 161.069 32.4262 160.842 30.3995C160.616 28.3729 160.616 27.0218 160.616 25.8959V25.2204C160.616 24.3196 160.39 23.4189 159.711 22.7434C159.033 22.0678 158.354 21.6175 157.449 21.6175C156.544 21.6175 156.092 22.0678 155.639 23.1937C155.413 24.0945 155.187 24.9952 155.187 26.3463L155.413 28.3729ZM156.771 17.5642C156.544 17.5642 156.544 17.339 156.544 17.1138C156.544 16.8886 156.771 16.6635 156.997 16.4383C157.449 16.2131 158.128 15.3124 159.485 14.4116C160.842 13.2857 161.521 12.6102 161.747 12.385C161.973 12.385 161.973 12.385 162.2 12.385C162.426 12.385 162.652 12.6102 162.878 12.8354C163.105 13.0606 163.331 13.5109 163.331 13.7361C163.331 13.9613 163.331 14.1865 163.105 14.4116C162.2 15.0872 160.164 16.2131 157.449 17.5642C157.449 17.5642 157.223 17.5642 156.997 17.5642C156.997 17.7894 156.997 17.5642 156.771 17.5642ZM167.176 32.6514V36.7046C167.176 40.0823 167.403 42.7845 167.855 44.586L167.403 45.7119H166.272L166.045 45.0363C166.045 43.9104 166.045 42.5593 166.045 41.2083C166.045 39.8572 166.045 36.7046 165.819 31.9758C165.593 27.247 165.593 23.8693 165.593 21.6175C165.593 20.4915 166.045 19.816 166.95 19.816C168.308 19.816 169.439 20.2664 170.344 20.9419C171.248 21.6175 171.701 22.7434 171.701 23.8693V26.5715C171.701 27.247 171.475 27.9225 171.248 28.5981C171.022 29.2736 170.57 29.9492 170.344 30.3995C169.665 31.0751 169.439 31.5254 169.439 31.5254C169.665 32.201 169.891 33.3269 170.117 35.1284C170.796 39.1816 171.701 41.8838 172.606 43.6853C172.832 44.1356 173.058 44.586 173.058 44.8112C173.058 45.0363 173.058 45.2615 172.832 45.4867C172.606 45.7119 172.379 45.7119 172.153 45.7119C171.701 45.7119 171.022 45.0363 170.57 43.9104C170.117 42.7845 169.665 41.4334 169.439 39.8572C168.534 35.3535 167.855 32.8765 167.855 32.201H167.176V32.6514ZM169.212 22.5182C168.986 21.6175 168.308 21.1671 167.403 21.1671L167.176 21.6175C167.176 22.7434 167.176 24.0945 167.176 26.1211C167.176 28.1477 167.176 29.4988 167.176 30.3995C167.855 30.1744 168.308 29.2736 168.534 27.9225C168.986 26.5715 168.986 25.6707 168.986 24.9952C168.986 24.3196 168.986 23.8693 168.986 23.4189C169.439 23.4189 169.212 22.9685 169.212 22.5182ZM179.392 43.2349C179.392 45.0363 178.94 45.7119 178.035 45.7119C177.582 45.7119 177.13 45.4867 176.904 44.8112C177.13 44.3608 177.356 42.109 177.356 38.2809C177.356 37.6054 177.356 36.7046 177.13 35.3535C176.904 34.0024 176.904 33.1017 176.904 32.6514V31.7506C176.904 31.7506 176.451 30.6247 175.773 28.8233C173.963 24.5448 173.284 22.0678 173.284 21.1671V21.1671L174.189 20.4915C174.868 20.4915 175.999 22.5182 176.904 26.3463C177.356 28.1477 177.582 28.8233 177.582 29.0484C177.582 28.8233 177.809 27.6974 178.261 26.1211C178.94 22.0678 179.845 19.816 180.75 19.816C180.976 19.816 181.202 19.816 181.428 20.0412C181.654 20.2664 181.654 20.4915 181.654 20.7167C181.654 22.0678 181.202 23.8693 180.523 26.3463C179.845 28.8233 179.392 30.6247 179.392 31.9758V43.2349V43.2349ZM198.847 47.2882C197.942 47.2882 197.716 46.3874 197.716 44.8112V39.8572C197.716 38.7313 197.716 37.155 197.49 34.9032C197.263 32.6514 197.263 31.3003 197.263 30.3995C197.263 29.724 197.263 28.8233 197.263 27.6974C197.263 26.5715 197.263 25.8959 197.263 25.2204C197.263 25.4455 196.811 27.247 195.906 30.3995C193.87 38.7313 192.513 42.7845 191.608 42.7845C191.156 42.7845 190.703 42.5593 190.477 42.3342C190.251 42.109 190.024 41.6586 190.024 41.2083C190.024 40.0823 189.572 37.6054 188.667 33.7773C187.762 29.9492 186.857 27.0218 186.179 25.2204C185.726 34.2276 185.5 40.3075 185.5 43.4601V44.586C185.5 45.0363 185.5 45.2615 185.274 45.4867C185.048 45.7119 184.821 45.7119 184.369 45.7119C183.917 45.7119 183.69 45.7119 183.464 45.4867C183.238 45.2615 183.012 45.0363 183.012 44.8112C183.012 42.109 183.238 38.2809 183.69 33.1017C184.143 27.9225 184.369 24.0945 184.369 21.3923C184.143 21.1671 184.143 20.9419 184.143 20.4915C184.143 20.2664 184.369 20.0412 184.595 19.816C185.048 20.2664 185.5 20.0412 185.726 20.0412C186.179 20.0412 187.31 22.5182 188.893 27.6974C190.477 32.8765 191.608 36.4794 191.834 38.2809C191.834 37.8305 192.287 36.9298 192.513 35.3535C192.965 33.7773 193.191 32.201 193.644 30.6247C194.096 29.0485 194.549 27.247 195.001 25.6707C196.359 22.0678 197.263 20.2664 197.942 20.2664C198.168 20.2664 198.621 20.2664 198.847 20.4915C199.073 20.7167 199.299 20.9419 199.299 21.1671C199.299 22.9685 199.299 25.6707 199.526 29.4988C199.752 33.1017 199.752 35.8039 199.752 37.3802V41.4334C199.752 41.6586 199.752 42.5593 199.978 44.1356V44.8112C199.978 45.0363 200.204 45.4867 200.204 45.7119C200.204 45.9371 199.978 46.3874 199.752 46.6126C199.526 47.2882 199.299 47.2882 198.847 47.2882ZM206.538 32.6514L206.764 40.7579V41.8838V43.0097H207.217H208.348C209.479 43.0097 209.932 43.2349 209.932 43.9104C209.932 44.1356 209.705 44.586 209.479 44.8112C209.253 45.0363 208.8 45.0363 208.574 45.0363H206.991C205.86 45.0363 205.181 45.0363 204.729 45.0363C204.502 45.0363 204.276 45.0363 204.276 45.0363C203.371 45.0363 202.919 44.8112 202.919 44.1356C202.919 43.9104 202.919 43.6853 203.145 43.4601C203.371 43.2349 203.371 43.2349 203.597 43.2349H204.729V42.7845L204.502 34.678L204.729 26.1211C204.729 24.77 204.729 23.1937 204.502 22.0678H203.597H202.693C202.24 22.0678 202.014 22.0678 201.788 21.8426C201.562 21.6175 201.561 21.3923 201.561 20.9419C201.561 20.2664 202.24 20.0412 203.371 20.0412H207.896C209.027 20.0412 209.479 20.2664 209.479 20.9419C209.479 21.1671 209.479 21.3923 209.253 21.6175C209.027 21.8426 208.8 21.8426 208.574 21.8426H206.538C206.538 22.9685 206.764 24.0945 206.764 25.4455L206.538 32.6514ZM215.587 29.9492L215.813 22.7434C215.813 21.6175 216.266 20.7167 217.171 19.816V20.0412H217.397C218.075 20.0412 218.754 21.1671 219.659 23.1937C220.564 25.2204 221.469 27.4722 222.147 29.9492C222.826 32.4262 223.505 34.9032 224.409 37.3802C225.088 39.8572 225.541 41.4334 225.767 41.8838C226.219 36.4794 226.445 30.1744 226.445 22.5182V21.3923C226.445 20.7167 226.672 20.2664 227.35 20.2664C227.803 20.2664 228.029 20.4915 228.255 20.7167C228.481 20.9419 228.481 21.3923 228.481 21.8426V24.77C228.481 27.6974 228.255 31.7506 228.029 36.7046C227.803 41.6586 227.35 44.586 227.124 45.2615C226.445 45.4867 225.993 45.4867 225.767 45.4867C225.541 45.4867 225.314 45.4867 225.088 45.2615C224.862 45.0363 224.862 44.8112 224.636 44.3608C224.636 43.9104 224.409 43.6853 224.409 43.6853V43.4601C224.409 42.5593 223.505 39.4068 221.695 34.4528C219.885 29.2736 218.528 25.8959 217.623 24.0945V43.4601C217.623 43.4601 217.623 43.6853 217.849 43.6853C218.075 43.9104 218.075 44.1356 218.075 44.3608C218.075 44.586 217.849 44.8112 217.623 45.0363C217.397 45.2615 217.171 45.4867 216.718 45.4867C215.813 45.4867 215.361 44.8112 215.361 43.2349L215.587 29.9492ZM239.566 37.6054L240.018 39.8572C240.018 40.0824 240.245 40.9831 240.471 42.109C240.697 43.2349 240.923 44.1356 240.923 44.586C240.923 45.0363 240.697 45.4867 240.245 45.7119C239.792 45.7119 239.34 45.7119 238.887 45.4867C238.435 45.2615 238.435 45.0363 238.435 44.586C238.435 43.4601 238.209 41.8838 237.982 39.8572L234.137 39.4068C233.911 40.3075 233.684 41.2083 233.684 42.109C233.458 43.0097 233.458 43.9104 233.232 44.3608C233.006 45.2615 232.553 45.7119 231.875 45.7119C231.648 45.7119 231.196 45.7119 230.97 45.4867C230.744 45.2615 230.517 45.0363 230.517 44.8112V44.586C232.327 38.0557 233.458 31.5254 234.363 25.2204C234.363 24.9952 234.363 24.5448 234.363 23.6441C234.589 21.8426 234.815 20.4915 235.042 20.0412H236.399C236.851 20.0412 237.078 20.0412 237.304 20.2664C237.53 20.4915 237.756 20.7167 237.756 20.9419C237.756 22.9685 237.982 25.6707 238.435 29.4988C239.34 33.1017 239.566 35.8039 239.566 37.6054ZM234.137 37.8305C234.589 38.0557 235.72 38.2809 237.53 38.5061C237.53 38.0557 237.53 37.3802 237.53 36.4794C237.53 35.5787 237.53 34.4528 237.304 33.1017C237.304 31.7506 237.078 30.1744 236.851 28.3729C236.625 26.5715 236.625 25.2204 236.399 24.3196C235.268 30.6247 234.363 35.1284 234.137 37.8305ZM243.638 45.4867C242.959 45.4867 242.733 43.9104 242.733 40.5327V28.3729C242.733 27.4722 242.733 26.3463 242.507 24.5448C242.281 22.9685 242.281 21.8426 242.281 21.3923C242.281 20.9419 242.507 20.4915 242.733 20.2664C242.959 20.0412 243.412 19.816 243.638 19.816C246.353 19.816 248.388 21.3923 249.972 24.5448C250.877 26.3463 251.329 28.1477 251.329 30.1744V32.201V34.2276C251.329 36.7046 251.103 38.5061 250.877 39.4068C250.651 40.3075 250.424 40.9831 250.198 41.6586C249.972 42.3342 249.746 42.7845 249.293 43.2349C248.388 44.3608 247.484 45.0363 246.126 45.7119H243.638V45.4867ZM245.221 42.7845V43.6853C247.484 43.6853 248.841 41.4334 249.293 36.9298C249.293 35.8039 249.52 34.9032 249.52 34.0024C249.52 26.3463 247.936 22.293 244.995 21.8426C244.769 22.7434 244.769 24.3196 244.769 25.8959C244.769 27.6974 244.769 30.3995 244.995 34.2276C245.221 38.0557 245.221 40.7579 245.221 42.7845ZM262.188 37.6054L262.64 39.8572C262.64 40.0824 262.866 40.9831 263.093 42.109C263.319 43.2349 263.545 44.1356 263.545 44.586C263.545 45.0363 263.319 45.4867 262.866 45.7119C262.414 45.7119 261.961 45.7119 261.509 45.4867C261.057 45.2615 261.057 45.0363 261.057 44.586C261.057 43.4601 260.83 41.8838 260.604 39.8572L256.759 39.4068C256.532 40.3075 256.306 41.2083 256.306 42.109C256.08 43.0097 256.08 43.9104 255.854 44.3608C255.627 45.2615 255.175 45.7119 254.496 45.7119C254.27 45.7119 253.818 45.7119 253.591 45.4867C253.365 45.2615 253.139 45.0363 253.139 44.8112V44.586C254.949 38.0557 256.08 31.5254 256.985 25.2204C256.985 24.9952 256.985 24.5448 256.985 23.6441C257.211 21.8426 257.437 20.4915 257.663 20.0412H259.021C259.473 20.0412 259.699 20.0412 259.926 20.2664C260.152 20.4915 260.378 20.7167 260.378 20.9419C260.378 22.9685 260.604 25.6707 261.057 29.4988C261.961 33.1017 262.188 35.8039 262.188 37.6054ZM256.759 37.8305C257.211 38.0557 258.342 38.2809 260.152 38.5061C260.152 38.0557 260.152 37.3802 260.152 36.4794C260.152 35.5787 260.152 34.4528 259.926 33.1017C259.926 31.7506 259.699 30.1744 259.473 28.3729C259.247 26.5715 259.247 25.2204 259.021 24.3196C257.89 30.6247 257.211 35.1284 256.759 37.8305ZM267.617 23.8693V33.1017C267.391 33.5521 267.391 33.7773 267.391 34.4528V35.1284L267.164 41.2083C267.164 43.0097 267.617 43.9104 268.522 43.9104H270.105C271.463 43.9104 272.141 44.3608 272.141 45.0363C272.141 45.2615 271.915 45.4867 271.689 45.7119C271.463 45.9371 271.236 45.9371 270.784 45.9371C269.879 45.7119 268.748 45.4867 267.391 45.4867C266.938 45.7119 266.486 45.9371 266.26 45.9371C265.807 45.9371 265.581 45.7119 265.355 45.4867C265.129 45.2615 265.129 45.0363 265.129 44.586C265.129 42.7845 265.129 39.8572 265.355 36.0291C265.581 32.201 265.581 29.2736 265.581 27.4722V27.247C265.355 25.6707 265.355 24.5448 265.355 23.6441C265.355 21.1671 265.807 20.0412 266.712 20.0412C266.938 20.0412 267.164 20.0412 267.391 20.2664C267.617 20.4915 267.617 20.7167 267.617 20.9419V23.8693ZM278.023 43.6853L279.606 43.9104C280.059 43.9104 280.511 43.6853 280.964 43.2349C281.416 42.7845 281.642 42.3342 281.869 41.6586C282.095 40.5327 282.321 39.4068 282.321 38.5061C282.321 37.6054 282.095 36.7046 281.869 35.8039C281.642 34.9032 281.19 34.0024 280.738 33.3269C280.285 32.4262 279.833 31.7506 279.38 30.8499C278.249 28.8233 277.797 27.0218 277.797 25.2204C277.797 24.0945 278.023 22.9685 278.475 22.0678C279.154 20.4915 280.059 19.5908 281.416 19.5908C281.869 19.5908 282.321 19.816 282.773 20.0412C283.226 20.2664 283.452 20.7167 283.452 20.9419C283.452 21.6175 283.226 21.8426 282.547 21.8426C282.321 21.8426 282.095 21.8426 281.642 21.6175C280.738 21.6175 280.285 22.5182 280.059 24.3196C280.059 24.77 280.059 25.2204 280.059 25.6707C280.059 26.1211 280.059 26.7966 280.285 27.6974C280.511 28.3729 280.738 29.0484 281.19 29.724C281.642 30.3995 281.869 31.0751 282.321 31.7506C282.773 32.4262 283 33.1017 283.452 33.7773C284.357 35.3535 284.583 37.155 284.583 39.1816C284.583 40.7579 284.131 42.109 283.452 43.6853C283 44.3608 282.547 45.0363 281.869 45.4867C281.19 45.9371 280.511 46.1623 279.606 46.1623C278.475 45.9371 278.023 45.4867 277.797 44.586L278.023 43.6853ZM290.239 32.6514L290.465 40.7579V41.8838V43.0097H290.917H292.048C293.179 43.0097 293.632 43.2349 293.632 43.9104C293.632 44.1356 293.406 44.586 293.179 44.8112C292.953 45.0363 292.727 45.2615 292.275 45.2615H290.691C289.56 45.2615 288.881 45.2615 288.429 45.2615C288.203 45.2615 287.976 45.2615 287.976 45.2615C287.072 45.2615 286.619 45.0363 286.619 44.3608C286.619 44.1356 286.619 43.9104 286.845 43.6853C287.072 43.4601 287.072 43.4601 287.298 43.4601H288.429V43.0097L288.203 34.9032L288.429 26.3463C288.429 24.9952 288.429 23.4189 288.203 22.293H287.524H286.619C286.167 22.293 285.941 22.293 285.714 22.0678C285.488 21.8426 285.488 21.6175 285.488 21.1671C285.488 20.4915 286.167 20.2664 287.298 20.2664H291.822C292.953 20.2664 293.406 20.4915 293.406 21.1671C293.406 21.3923 293.406 21.6175 293.179 21.8426C292.953 22.0678 292.727 22.0678 292.501 22.0678H290.465C290.465 23.1937 290.691 24.3196 290.691 25.6707L290.239 32.6514ZM297.251 51.3414C297.704 51.3414 298.382 51.1162 298.835 50.6659L299.061 51.3414C299.061 51.5666 298.835 52.017 298.382 52.2422C297.93 52.4673 297.478 52.6925 297.025 52.6925C296.573 52.6925 296.12 52.4673 295.894 52.017C295.668 51.5666 295.442 51.1162 295.442 50.6659C295.442 49.54 295.894 48.6393 296.573 47.7385C297.251 46.8378 298.156 46.1623 299.061 45.4867L300.192 45.9371C299.966 45.9371 299.74 46.1623 299.514 46.3874C299.287 46.6126 299.061 46.8378 298.835 47.063C298.609 47.2882 298.382 47.2882 298.382 47.5133C298.382 47.5133 298.156 47.7385 297.93 47.9637C297.704 48.1889 297.704 48.4141 297.478 48.4141C297.478 48.6393 297.251 48.6393 297.251 48.8644C297.025 49.0896 297.025 49.3148 297.025 49.3148C296.799 49.7652 296.799 50.2155 296.799 50.6659C296.573 50.8911 296.799 51.3414 297.251 51.3414ZM295.668 26.1211L295.442 22.9685C295.442 21.1671 295.894 20.2664 297.025 20.2664C297.704 20.2664 298.609 20.4915 299.74 20.7167C300.871 20.9419 301.55 21.3923 301.55 21.8426C301.55 22.293 301.097 22.7434 300.418 22.9685C299.287 22.5182 298.156 22.293 297.478 22.293C297.478 22.7434 297.478 23.4189 297.478 23.8693L297.251 29.2736C297.251 29.2736 297.251 29.4988 297.251 29.9492H298.609C299.74 29.9492 300.418 30.3995 300.418 31.0751C300.418 31.3003 300.418 31.5254 300.192 31.7506C299.966 31.9758 299.74 31.9758 299.287 31.9758C298.835 31.9758 298.609 31.9758 298.156 31.9758H297.251C297.251 32.8765 297.251 34.0024 297.251 34.9032L297.025 41.8838C297.025 43.2349 297.025 44.1356 297.025 44.1356H299.966C300.871 44.1356 301.323 44.3608 301.323 45.0363C301.323 45.4867 301.097 45.7119 300.871 45.9371C300.645 46.1623 300.192 46.1623 299.74 46.1623H296.573C296.347 46.1623 295.894 45.9371 295.668 45.7119C295.442 45.4867 295.215 45.2615 295.215 44.8112V43.9104L294.989 37.3802L295.668 26.1211Z" fill="black"/>
<path d="M52.2575 63.7264L52.4837 56.5205C52.4837 55.3946 52.9361 54.4939 53.841 53.5932V53.8184H54.0672C54.7459 53.8184 55.4245 54.9443 56.3294 56.9709C57.2342 58.9975 58.1391 61.2494 58.8178 63.7264C59.4964 66.2033 60.1751 68.6803 61.0799 71.1573C61.7586 73.6343 62.211 75.2106 62.4372 75.661C62.8897 70.2566 63.1159 63.9515 63.1159 56.2954V55.1695C63.1159 54.4939 63.3421 54.0435 64.0208 54.0435C64.4732 54.0435 64.6994 54.2687 64.9256 54.4939C65.1519 54.7191 65.1518 55.1695 65.1518 55.6198V58.5472C65.1518 61.4745 64.9256 65.5278 64.6994 70.4818C64.4732 75.4358 64.0208 78.3631 63.7945 79.0387C63.1159 79.2639 62.6635 79.2639 62.4372 79.2639C62.211 79.2639 61.9848 79.2639 61.7586 79.0387C61.5324 78.8135 61.5324 78.5883 61.3062 78.138C61.3062 77.6876 61.0799 77.4624 61.0799 77.4624V77.2372C61.0799 76.3365 60.1751 73.184 58.3653 68.23C56.5556 63.0508 55.1983 59.6731 54.2934 57.6465V77.0121C54.2934 77.0121 54.2934 77.2372 54.5196 77.2372C54.7459 77.4624 54.7459 77.6876 54.7459 77.9128C54.7459 78.138 54.5196 78.3632 54.2934 78.5883C54.0672 78.8135 53.841 79.0387 53.3886 79.0387C52.4837 79.0387 52.0312 78.3631 52.0312 76.7869L52.2575 63.7264ZM71.7122 66.4285L71.9384 74.5351V75.661V76.7869H72.3908H73.5219C74.653 76.7869 75.1054 77.0121 75.1054 77.6876C75.1054 77.9128 74.8792 78.3632 74.653 78.5883C74.4268 78.8135 74.2005 78.8135 73.7481 78.8135H72.1646C71.0335 78.8135 70.3548 78.8135 69.9024 78.8135C69.6762 78.8135 69.45 78.8135 69.45 78.8135C68.5451 78.8135 68.0927 78.5883 68.0927 77.9128C68.0927 77.6876 68.0927 77.4624 68.3189 77.2372C68.5451 77.0121 68.5451 77.0121 68.7713 77.0121H69.9024V76.5617L69.6762 68.4552L69.9024 59.8983C69.9024 58.5472 69.9024 56.9709 69.6762 55.845H68.9975H68.0927C67.6402 55.845 67.414 55.845 67.1878 55.6198C66.9616 55.3946 66.9616 55.1695 66.9616 54.7191C66.9616 54.0435 67.6402 53.8184 68.7713 53.8184H73.2957C74.4268 53.8184 74.8792 54.0435 74.8792 54.7191C74.8792 54.9443 74.8792 55.1695 74.653 55.3946C74.4268 55.6198 74.2005 55.6198 73.9743 55.6198H71.9384C71.9384 56.7457 72.1646 57.8716 72.1646 59.2227L71.7122 66.4285ZM77.1414 59.8983L76.9151 56.5205C76.9151 54.7191 77.3676 53.8184 78.4987 53.8184C79.1773 53.8184 80.0822 54.0435 81.2133 54.2687C82.3444 54.4939 83.023 54.9443 83.023 55.3946C83.023 55.845 82.5706 56.2954 81.8919 56.5205C80.7608 56.0702 79.6298 55.845 78.9511 55.845C78.9511 56.2954 78.9511 56.9709 78.9511 57.4213L78.7249 62.8256C78.7249 62.8256 78.7249 63.0508 78.7249 63.5012H80.0822C81.2133 63.5012 81.8919 63.9515 81.8919 64.6271C81.8919 64.8523 81.8919 65.0774 81.6657 65.3026C81.4395 65.5278 81.2133 65.5278 80.7608 65.5278C80.3084 65.5278 80.0822 65.5278 79.6298 65.5278H79.1773C79.1773 66.4285 79.1773 67.5544 79.1773 68.4552L78.9511 75.4358C78.9511 76.7869 78.9511 77.6876 78.9511 77.6876H81.8919C82.7968 77.6876 83.2492 77.9128 83.2492 78.5883C83.2492 79.0387 83.023 79.2639 82.7968 79.4891C82.5706 79.7142 82.1181 79.7142 81.6657 79.7142H78.4987C78.2724 79.7142 77.82 79.4891 77.5938 79.2639C77.3676 79.0387 77.1414 78.8135 77.1414 78.3632V77.4624L76.9151 70.9322L77.1414 59.8983ZM93.6552 78.8135H91.3931C91.1668 78.8135 90.9406 78.8135 90.7144 79.0387C90.4882 79.2639 90.262 79.2639 90.0357 79.2639C89.8095 79.2639 89.5833 79.2639 89.3571 79.0387C89.1309 78.8135 89.1309 78.5883 89.1309 78.138C89.1309 75.8862 90.0357 71.8329 91.6193 66.2033C93.429 60.5738 94.3339 56.9709 94.7863 55.6198L91.6193 55.845C91.393 55.845 91.1668 55.845 90.9406 55.6198C90.4882 55.3946 90.4882 55.1695 90.4882 54.7191C90.4882 54.0435 91.8455 53.5932 94.7863 53.5932C96.1436 53.5932 96.596 54.0435 96.596 54.7191C96.596 55.6198 96.3698 56.7457 95.6912 58.322C95.2387 59.8983 94.7863 61.0242 94.7863 61.4745C94.5601 63.5012 93.8814 66.4285 92.7503 70.2566C91.6193 74.0847 91.1668 76.3365 91.1668 76.7869H91.8455H93.429C94.5601 76.7869 95.0125 77.0121 95.0125 77.6876C95.0125 77.9128 94.7863 78.138 94.5601 78.3632C94.1077 78.8135 93.8814 78.8135 93.6552 78.8135ZM107.681 71.3825L107.907 75.4358C107.907 76.7869 107.454 77.6876 106.55 78.3632C105.645 79.0387 104.74 79.4891 103.383 79.4891C101.573 79.4891 100.216 78.8135 99.5369 77.4624C98.8582 76.5617 98.632 75.661 98.4058 74.7603C98.1796 73.8595 98.1796 73.184 98.1796 72.7336C98.1796 72.2832 98.1796 71.6077 97.9533 70.9322C97.9533 69.8063 97.9533 69.1307 97.9533 68.4552V66.8789C97.9533 63.276 97.9533 61.0242 98.1796 60.1235C98.4058 59.2227 98.632 58.322 98.8582 57.4213C99.0844 56.5205 99.5369 56.0702 99.7631 55.6198C100.668 54.4939 101.799 54.0435 103.156 54.0435C104.514 54.0435 104.966 54.2687 104.966 54.9443C104.966 55.1695 104.74 55.3946 104.514 55.6198C104.287 55.845 104.061 55.845 103.609 55.845H102.704C101.799 55.845 101.12 56.7457 100.668 58.5472C99.9893 61.0242 99.7631 63.9515 99.7631 67.5544C99.7631 70.0314 99.7631 71.6077 99.9893 72.5084C100.216 73.4092 100.216 74.0847 100.442 74.7603C100.668 75.4358 100.894 75.8862 101.12 76.3365C101.799 77.2372 102.478 77.6876 103.383 77.6876C104.514 77.6876 105.192 75.661 105.192 71.6077V69.8063C104.966 69.8063 104.74 69.5811 104.287 69.5811H103.609C102.704 69.5811 102.251 69.3559 102.251 68.6803C102.251 68.23 102.478 68.0048 102.704 67.7796C102.93 67.5544 103.383 67.5544 103.609 67.5544H104.061C106.323 67.5544 107.454 68.0048 107.454 68.6803L107.681 71.3825ZM118.765 71.3825L119.218 73.6343C119.218 73.8595 119.444 74.7603 119.67 75.8862C119.896 77.0121 120.123 77.9128 120.123 78.3632C120.123 78.8135 119.896 79.2639 119.444 79.4891C118.992 79.4891 118.539 79.4891 118.087 79.2639C117.634 79.0387 117.634 78.8135 117.634 78.3632C117.634 77.2372 117.408 75.661 117.182 73.6343L113.11 72.9588C112.884 73.8595 112.657 74.7602 112.657 75.661C112.431 76.5617 112.431 77.4624 112.205 77.9128C111.979 78.8135 111.526 79.2639 110.848 79.2639C110.622 79.2639 110.169 79.2639 109.943 79.0387C109.717 78.8135 109.49 78.5883 109.49 78.3632V78.138C111.3 71.6077 112.431 65.0774 113.336 58.7724C113.336 58.5472 113.336 58.0968 113.336 57.1961C113.562 55.3946 113.789 54.0435 114.015 53.5932H115.372C115.825 53.5932 116.051 53.5932 116.277 53.8184C116.503 54.0435 116.729 54.2687 116.729 54.4939C116.729 56.5205 116.956 59.2227 117.408 63.0508C118.539 66.8789 118.765 69.5811 118.765 71.3825ZM113.336 71.6077C113.789 71.8329 114.92 72.0581 116.729 72.2832C116.729 71.8329 116.729 71.1573 116.729 70.2566C116.729 69.3559 116.729 68.23 116.503 66.8789C116.503 65.5278 116.277 63.9515 116.051 62.1501C115.825 60.3486 115.825 58.9975 115.598 58.0968C114.467 64.4019 113.562 68.9055 113.336 71.6077ZM122.837 79.2639C122.159 79.2639 121.932 77.6876 121.932 74.3099V62.1501C121.932 61.2494 121.932 60.1234 121.706 58.322C121.48 56.7457 121.48 55.6198 121.48 55.1695C121.48 54.7191 121.706 54.2687 121.932 54.0435C122.159 53.8184 122.611 53.5932 122.837 53.5932C125.552 53.5932 127.588 55.1695 129.171 58.322C130.076 60.1234 130.529 61.9249 130.529 63.9515V65.9782V68.0048C130.529 70.4818 130.302 72.2833 130.076 73.184C129.85 74.0847 129.624 74.7602 129.398 75.4358C129.171 76.1113 128.945 76.5617 128.493 77.0121C127.588 78.138 126.683 78.8135 125.326 79.4891H122.837V79.2639ZM124.421 76.5617V77.4624C126.683 77.4624 128.04 75.2106 128.493 70.707C128.493 69.5811 128.719 68.6803 128.719 67.7796C128.719 60.1234 127.135 56.0702 124.195 55.6198C123.968 56.5205 123.968 58.0968 123.968 59.6731C123.968 61.4745 123.968 64.1767 124.195 68.0048C124.421 71.8329 124.421 74.5351 124.421 76.5617ZM137.089 78.8135H134.827C134.601 78.8135 134.374 78.8135 134.148 79.0387C133.922 79.2639 133.696 79.2639 133.469 79.2639C133.243 79.2639 133.017 79.2639 132.791 79.0387C132.565 78.8135 132.565 78.5883 132.565 78.138C132.565 75.8862 133.469 71.8329 135.053 66.2033C136.863 60.5738 137.768 56.9709 138.22 55.6198L135.053 55.845C134.827 55.845 134.601 55.845 134.374 55.6198C134.148 55.3946 134.148 55.1695 134.148 54.9443C134.148 54.2687 135.505 53.8184 138.446 53.8184C139.804 53.8184 140.256 54.2687 140.256 54.9443C140.256 55.845 140.03 56.9709 139.351 58.5472C138.899 60.1234 138.446 61.2494 138.446 61.6997C138.22 63.7264 137.541 66.6537 136.41 70.4818C135.279 74.3099 134.827 76.5617 134.827 77.0121H135.505H137.089C138.22 77.0121 138.672 77.2372 138.672 77.9128C138.672 78.138 138.446 78.3632 138.22 78.5883C137.768 78.8135 137.541 78.8135 137.089 78.8135ZM150.436 71.3825L150.888 73.6343C150.888 73.8595 151.114 74.7603 151.341 75.8862C151.567 77.0121 151.793 77.9128 151.793 78.3632C151.793 78.8135 151.567 79.2639 151.114 79.4891C150.662 79.4891 150.21 79.4891 149.757 79.2639C149.305 79.0387 149.305 78.8135 149.305 78.138C149.305 77.0121 149.078 75.4358 148.852 73.4092L145.007 72.9588C144.78 73.8595 144.554 74.7602 144.554 75.661C144.328 76.5617 144.328 77.4624 144.102 77.9128C143.875 78.8135 143.423 79.2639 142.744 79.2639C142.518 79.2639 142.066 79.2639 141.839 79.0387C141.613 78.8135 141.387 78.5883 141.387 78.3632V78.138C143.197 71.6077 144.328 65.0774 145.233 58.7724C145.233 58.5472 145.233 58.0968 145.233 57.1961C145.459 55.3946 145.685 54.0435 145.911 53.5932H147.269C147.721 53.5932 147.947 53.5932 148.174 53.8184C148.4 54.0435 148.626 54.2687 148.626 54.4939C148.626 56.5205 148.852 59.2227 149.305 63.0508C150.21 66.8789 150.436 69.5811 150.436 71.3825ZM145.007 71.6077C145.459 71.8329 146.59 72.0581 148.4 72.2832C148.4 71.8329 148.4 71.1573 148.4 70.2566C148.4 69.3559 148.4 68.23 148.174 66.8789C148.174 65.5278 147.947 63.9515 147.721 62.1501C147.495 60.3486 147.495 58.9975 147.269 58.0968C146.138 64.4019 145.459 68.9055 145.007 71.6077ZM168.986 81.0653C168.081 81.0653 167.854 80.1646 167.854 78.5883V73.6343C167.854 72.5084 167.854 70.9322 167.628 68.6803C167.402 66.4285 167.402 65.0774 167.402 64.1767C167.402 63.5012 167.402 62.6004 167.402 61.4745C167.402 60.3486 167.402 59.6731 167.402 58.9975C167.402 59.2227 166.95 61.0242 166.045 64.1767C164.009 72.5084 162.651 76.5617 161.747 76.5617C161.294 76.5617 160.842 76.3365 160.616 76.1113C160.389 75.8862 160.163 75.4358 160.163 74.9854C160.163 73.8595 159.711 71.3825 158.806 67.5544C157.901 63.7264 156.996 60.799 156.317 58.9975C155.865 68.0048 155.639 74.0847 155.639 77.2372V78.3632C155.639 78.8135 155.639 79.0387 155.413 79.2639C155.186 79.4891 154.96 79.4891 154.508 79.4891C154.055 79.4891 153.829 79.4891 153.603 79.2639C153.377 79.0387 153.15 78.8135 153.15 78.5883C153.15 75.8862 153.377 72.0581 153.829 66.8789C154.281 61.6997 154.508 57.8716 154.508 55.1695C154.281 54.9443 154.281 54.7191 154.281 54.2687C154.281 54.0435 154.508 53.8184 154.734 53.5932C154.96 53.368 155.413 53.368 155.639 53.368C156.091 53.368 157.222 55.845 158.806 61.0242C160.389 66.2034 161.52 69.8063 161.747 71.6077C161.747 71.1573 162.199 70.2566 162.425 68.6803C162.651 67.1041 163.104 65.5278 163.556 63.9515C164.009 62.3753 164.461 60.5738 164.914 58.9975C166.045 55.1695 166.95 53.1428 167.628 53.1428C167.854 53.1428 168.307 53.1428 168.533 53.368C168.759 53.5932 168.986 53.8184 168.986 54.0435C168.986 55.845 168.986 58.5472 169.212 62.3753C169.438 65.9782 169.438 68.6803 169.438 70.2566V74.3099C169.438 74.5351 169.438 75.4358 169.664 77.0121V77.6876C169.664 77.9128 169.89 78.3632 169.89 78.5883C169.89 78.8135 169.664 79.2639 169.438 79.4891C169.664 81.0653 169.212 81.0653 168.986 81.0653ZM177.582 77.6876C177.582 78.3632 177.356 79.0387 176.903 79.7142C176.451 80.615 175.998 81.2905 175.32 81.9661C174.641 82.6416 174.189 82.8668 173.51 82.8668C173.057 82.8668 172.831 82.6416 172.831 82.4164C172.831 82.1912 173.057 81.7409 173.284 81.5157C173.736 80.8402 174.189 79.7142 174.415 77.9128C174.641 76.3365 175.093 75.661 175.998 75.661C177.129 75.661 177.582 76.3365 177.582 77.6876ZM185.273 57.1961L185.047 55.1695V54.9443C185.047 54.4939 185.047 54.0435 185.273 53.5932C185.499 53.368 185.952 53.1428 186.63 53.1428C187.309 53.1428 187.988 53.368 188.666 53.5932C189.345 54.0435 189.798 54.4939 190.25 55.1695C190.929 56.5205 191.381 57.8716 191.381 59.4479C191.381 61.0242 191.155 62.3753 190.929 63.276C190.702 64.1767 190.25 65.0774 189.798 65.753C190.702 66.6537 191.381 68.23 191.607 70.4818C191.607 70.9322 191.607 71.6077 191.607 72.2832C191.607 72.9588 191.607 73.6343 191.381 74.3099C191.155 74.9854 191.155 75.661 190.702 76.3365C190.476 77.0121 190.024 77.4624 189.571 77.9128C188.666 78.8135 187.309 79.2639 185.726 79.2639C185.273 79.2639 184.821 79.0387 184.595 78.5883C184.595 78.138 184.368 77.6876 184.368 77.2372L184.821 69.1307L185.273 57.1961ZM186.857 75.661V77.4624C187.762 77.2372 188.44 76.7869 188.893 75.8862C189.345 74.9854 189.571 74.3099 189.571 73.6343C189.571 72.9588 189.571 72.2833 189.571 72.0581C189.571 71.8329 189.571 71.1573 189.345 70.4818C189.345 69.8063 189.119 69.3559 188.893 68.9055C188.44 67.7796 187.988 67.1041 187.083 67.1041C187.083 68.6803 186.857 70.707 186.857 72.9588V75.661ZM187.535 55.1695C187.309 55.845 187.083 57.1961 187.083 59.2227V64.8523C188.44 64.8523 189.119 63.276 189.119 60.1235C189.119 56.7457 188.666 55.1695 187.535 55.1695ZM193.869 73.184C193.643 70.9322 193.417 69.1307 193.417 67.5544V66.2033C193.417 65.9782 193.417 65.9782 193.417 65.9782V65.3026C193.417 61.2494 193.643 58.5472 194.096 56.7457C194.548 55.3946 194.774 54.4939 195.227 54.0435C195.679 53.8184 195.905 53.5932 196.358 53.5932C199.299 53.5932 201.335 55.1695 202.466 58.0968C203.144 59.8983 203.371 61.9249 203.371 64.4019V64.6271V68.9055C203.371 76.3365 201.561 79.9394 198.168 79.9394C196.81 79.9394 195.679 79.2639 195.001 77.6876C194.548 76.1113 194.096 74.5351 193.869 73.184ZM195.905 62.1501L195.679 65.753C195.679 69.3559 195.905 72.7336 196.584 75.4358C197.263 77.0121 197.941 77.9128 198.394 78.3632C198.846 78.3632 199.299 78.138 199.751 77.9128C200.204 77.6876 200.43 77.0121 200.656 76.3365C200.882 75.661 201.108 74.9854 201.108 74.3099C201.335 73.6343 201.335 72.9588 201.335 72.0581C201.561 70.707 201.561 69.5811 201.561 68.6803C201.561 67.7796 201.561 66.2034 201.335 64.1767C201.108 62.1501 201.108 60.799 201.108 59.6731V58.9975C201.108 58.0968 200.882 57.1961 200.204 56.5205C199.525 55.845 198.846 55.3946 197.941 55.3946C197.036 55.3946 196.584 55.845 196.132 56.9709C195.905 57.8716 195.679 58.7724 195.679 60.1235L195.905 62.1501ZM208.8 79.7142C208.347 79.7142 208.121 79.4891 207.895 79.2639C207.669 79.0387 207.442 78.5883 207.442 78.3632C207.442 77.9128 207.669 77.6876 207.895 77.4624C208.121 77.2372 208.574 77.0121 208.8 77.0121C209.026 77.0121 209.478 77.2372 209.705 77.4624C209.931 77.6876 210.157 78.138 210.157 78.5883C210.157 79.0387 209.931 79.2639 209.705 79.4891C209.478 79.7142 209.252 79.7142 208.8 79.7142ZM216.944 79.7142C216.491 79.7142 216.265 79.4891 216.039 79.2639C215.813 79.0387 215.586 78.5883 215.586 78.3632C215.586 77.9128 215.813 77.6876 216.039 77.4624C216.265 77.2372 216.717 77.0121 216.944 77.0121C217.17 77.0121 217.622 77.2372 217.848 77.4624C218.075 77.6876 218.301 78.138 218.301 78.5883C218.301 79.0387 218.075 79.2639 217.848 79.4891C217.622 79.7142 217.396 79.7142 216.944 79.7142ZM225.087 79.7142C224.635 79.7142 224.409 79.4891 224.183 79.2639C223.956 79.0387 223.73 78.5883 223.73 78.3632C223.73 77.9128 223.956 77.6876 224.183 77.4624C224.409 77.2372 224.861 77.0121 225.087 77.0121C225.314 77.0121 225.766 77.2372 225.992 77.4624C226.219 77.6876 226.445 78.138 226.445 78.5883C226.445 79.0387 226.219 79.2639 225.992 79.4891C225.766 79.7142 225.54 79.7142 225.087 79.7142Z" fill="black"/>
<path d="M19.4574 44.3608C16.969 42.7845 14.2544 41.8838 11.5398 40.5327C10.6349 40.0823 9.95625 39.632 9.2776 38.9564V38.7312V38.5061C9.2776 38.5061 9.2776 38.5061 9.2776 38.2809V38.0557C9.50382 38.2809 9.95625 38.5061 10.1825 38.5061C10.8611 38.9564 11.5398 39.4068 12.2184 39.4068C16.969 40.3075 20.8147 43.0097 23.5293 46.3874C23.7555 46.6126 23.7555 46.8378 23.9817 47.0629C24.6604 48.1889 25.339 49.5399 26.0177 50.891C24.6604 48.6392 22.3982 46.1622 19.4574 44.3608ZM9.50382 38.5061C9.50382 38.2809 9.50382 38.2809 9.50382 38.5061C9.50382 38.2809 9.50382 38.2809 9.50382 38.5061C9.50382 38.5061 9.50382 38.2809 9.50382 38.5061ZM7.9203 36.7046C7.9203 36.2542 7.9203 36.0291 7.9203 35.8039C8.14652 36.2542 8.14652 36.7046 8.59895 36.9298H8.37273C7.9203 36.9298 7.9203 36.7046 7.9203 36.7046ZM32.1255 43.6852C29.8634 40.5327 27.1488 37.8305 23.9817 35.5787C23.5293 35.1283 22.8506 34.9031 22.3982 34.4528C22.6244 34.2276 22.8506 34.0024 23.0769 33.7772C25.5652 31.9758 27.8274 29.9492 29.4109 27.247C32.8042 21.6174 32.3518 15.5375 28.5061 10.5835C27.8274 8.78208 26.6963 6.98063 25.339 5.62954C22.3982 2.25182 17.8739 0.225182 13.1233 0.225182C11.9922 0 10.6349 0 9.50382 0C3.62217 0.675545 -0.902172 5.62954 0.228914 11.2591C0.228914 11.7094 0.455131 11.9346 0.455131 12.1598C1.13378 13.9613 2.7173 15.3123 4.97948 15.7627C6.563 16.4383 8.14652 15.9879 9.05139 14.6368C9.73004 13.7361 9.95626 12.385 9.73004 11.2591C9.73004 11.2591 9.73004 11.2591 9.73004 11.0339C10.1825 10.8087 10.6349 10.3584 11.3136 9.90799C12.4446 9.45763 13.8019 9.00726 15.1593 9.23244C16.0641 9.23244 17.4214 9.68281 18.1001 10.3584C19.0049 11.2591 19.9098 12.385 20.5885 13.9613C23.0769 21.1671 17.6476 27.247 11.766 30.8499C11.0873 31.0751 10.4087 31.3002 9.95625 31.5254C9.50382 31.7506 9.05139 31.9758 8.59895 32.4261C7.9203 32.4261 7.24165 32.4261 6.78921 32.6513C6.11056 33.1017 5.88434 34.4528 5.65813 35.3535C5.65813 37.6053 7.01543 39.8571 8.82517 41.2082C11.3136 43.0097 14.2544 43.6852 16.7428 45.2615C19.4574 46.8378 21.9458 48.8644 23.7555 51.3414C27.6012 56.0702 29.6372 62.1501 29.8634 68.23C29.8634 70.0315 29.8634 71.8329 29.6372 73.4092C28.5061 76.3366 26.4701 78.8136 23.0769 79.9395C20.8147 80.8402 18.3263 81.0654 16.2903 80.615C14.0282 80.1646 11.9922 79.2639 10.8611 77.9128C9.50382 76.3366 7.24165 75.4358 5.20569 76.5617C3.39596 77.4625 2.7173 79.7143 3.62217 81.7409C6.33678 87.8208 12.6709 92.0993 19.2312 92.7748C26.6963 93.4504 33.0304 89.8474 36.6499 83.5424C40.0431 77.4625 40.2694 69.8063 39.3645 63.0508C38.6858 56.0702 35.9712 49.3148 32.1255 43.6852Z" fill="black"/>
</svg>
