<svg width="273" height="101" viewBox="0 0 273 101" fill="none" xmlns="http://www.w3.org/2000/svg">
<g clip-path="url(#clip0_156_5051)">
<path d="M55.8594 24.0113C56.05 23.6301 56.2407 22.6773 56.2407 21.1528V18.1037C56.2407 16.7698 56.2407 15.8169 56.05 15.0547C56.2407 14.2924 56.4313 13.9113 57.0032 13.9113H58.3377C59.6722 13.9113 60.4348 14.483 61.0067 15.4358C61.388 16.3886 61.5786 17.3415 61.5786 18.6754C61.5786 20.1999 61.5787 21.1528 61.388 21.5339C61.388 21.915 61.1974 22.2962 61.1974 22.4867C61.1974 22.8679 61.0067 23.0584 60.8161 23.249C60.6254 23.4396 60.6254 23.6301 60.4348 23.8207C60.2442 24.0113 60.0535 24.2018 59.8629 24.3924C59.2909 24.7735 58.719 24.9641 57.9564 25.3452V28.7754L58.1471 34.8735C58.1471 35.0641 57.9564 35.4452 57.7658 35.6358C57.5752 35.8264 57.3845 35.8264 57.0032 35.8264L56.2407 35.4452C56.05 34.3018 55.8594 32.5867 55.8594 30.6811L56.05 24.9641C55.8594 24.583 55.8594 24.2018 55.8594 24.0113ZM57.7658 17.532V23.8207C59.1003 23.6301 59.6722 21.915 59.6722 18.2943C59.6722 17.3415 59.4816 16.5792 59.2909 16.1981C59.1003 15.8169 58.5284 15.6264 57.9564 15.6264C57.9564 15.6264 57.7658 15.6264 57.5752 15.6264V17.532H57.7658ZM67.6792 33.349C67.6792 34.8735 67.2979 35.4452 66.5354 35.4452C66.1541 35.4452 65.7728 35.2547 65.5821 34.683C65.7728 34.3018 65.9634 32.3962 65.9634 29.1565C65.9634 28.5849 65.9634 27.8226 65.7728 26.6792C65.5821 25.5358 65.5821 24.7735 65.5821 24.3924V23.6301C65.5821 23.6301 65.2009 22.6773 64.6289 21.1528C63.1038 17.532 62.5319 15.4358 62.5319 14.6735L63.2944 14.1018C63.8664 14.1018 64.8196 15.8169 65.5821 19.0565C65.9634 20.5811 66.1541 21.1528 66.1541 21.3433C66.1541 21.1528 66.3447 20.1999 66.726 18.866C67.2979 15.4358 68.0605 13.5301 68.8231 13.5301C69.0137 13.5301 69.2044 13.5301 69.395 13.7207C69.5856 13.9113 69.5856 14.1018 69.5856 14.2924C69.5856 15.4358 69.2043 16.9603 68.6324 19.0565C68.0605 21.1528 67.6792 22.6773 67.6792 23.8207V33.349ZM74.1611 34.683V32.2056C74.1611 32.2056 74.1611 31.8245 74.1611 31.0622C74.1611 30.8716 73.9704 28.3943 73.5891 23.8207C73.2078 19.0565 73.2078 16.3886 73.2078 15.2452C73.2078 15.2452 73.2078 15.2452 73.0172 15.2452C71.3014 15.2452 70.3482 14.8641 70.3482 14.2924C70.3482 14.1018 70.5388 13.9113 70.7295 13.7207C70.9201 13.5301 71.1108 13.5301 71.4921 13.5301L75.8768 13.9113H76.4488C77.2113 13.9113 77.402 14.1018 77.402 14.6735C77.402 14.8641 77.2113 15.2452 77.0207 15.2452C76.8301 15.4358 76.6394 15.4358 76.2581 15.4358L74.733 15.2452V15.6264C74.733 17.7226 74.9236 20.7716 75.3049 24.7735C75.6862 28.7754 75.8768 32.015 75.8768 33.9207C75.8768 34.1113 75.6862 34.4924 75.4955 34.683C75.3049 34.8735 74.9236 35.0641 74.733 35.0641L74.1611 34.683ZM85.7902 28.5849L86.1715 30.4905C86.1715 30.6811 86.3622 31.4433 86.5528 32.3962C86.7435 33.349 86.9341 34.1113 86.9341 34.4924C86.9341 34.8735 86.7435 35.2547 86.3622 35.4452C85.9809 35.4452 85.5996 35.4452 85.2183 35.2547C84.837 35.0641 84.837 34.8735 84.837 34.4924C84.837 33.5396 84.6464 32.2056 84.4557 30.4905L81.2148 30.1094C81.0242 30.8716 80.8335 31.6339 80.8335 32.3962C80.6429 33.1584 80.6429 33.9207 80.4523 34.3018C80.2616 35.0641 79.8803 35.4452 79.3084 35.4452C79.1178 35.4452 78.7365 35.4452 78.5458 35.2547C78.3552 35.0641 78.1645 34.8735 78.1645 34.683V34.4924C79.6897 28.966 80.6429 23.4396 81.4055 18.1037C81.4055 17.9132 81.4055 17.532 81.4055 16.7698C81.7868 14.8641 81.9774 13.9113 82.3587 13.3396H83.5025C83.8838 13.3396 84.0745 13.3396 84.2651 13.5301C84.4557 13.7207 84.6464 13.9113 84.6464 14.1018C84.6464 15.8169 84.837 18.1037 85.2183 21.3433C85.5996 24.7735 85.7902 27.0603 85.7902 28.5849ZM81.2148 28.7754C81.5961 28.966 82.5493 29.1565 84.0745 29.3471C84.0745 28.966 84.0745 28.3943 84.0745 27.632C84.0745 26.8698 84.0745 25.9169 83.8838 24.7735C83.8838 23.6301 83.6932 22.2962 83.5025 20.7716C83.3119 19.0565 83.3119 17.9132 83.1212 17.1509C82.168 22.6773 81.5961 26.4886 81.2148 28.7754ZM88.2686 22.1056L88.4592 16.0075C88.4592 15.0547 88.8405 14.2924 89.6031 13.5301V13.7207H89.7937C90.3657 13.7207 90.9376 14.6735 91.7002 16.3886C92.4627 18.1037 93.2253 20.0094 93.7972 22.1056C94.3692 24.2018 94.9411 26.2981 95.7037 28.3943C96.2756 30.4905 96.6569 31.8245 96.8475 32.2056C97.2288 27.632 97.4194 22.2962 97.4194 15.8169V14.8641C97.4194 14.2924 97.6101 13.9113 98.182 13.9113C98.5633 13.9113 98.7539 14.1018 98.9446 14.2924C99.1352 14.483 99.1352 14.8641 99.1352 15.2452V17.7226C99.1352 20.1999 98.9446 23.6301 98.7539 27.8226C98.5633 32.015 98.182 34.4924 97.9914 35.0641C97.4194 35.2547 97.0382 35.2547 96.8475 35.2547C96.6569 35.2547 96.4662 35.2547 96.2756 35.0641C96.0849 34.8735 96.0849 34.683 95.8943 34.3018C95.8943 33.9207 95.7037 33.7301 95.7037 33.7301V33.5396C95.7037 32.7773 94.9411 30.1094 93.4159 25.9169C91.8908 21.5339 90.747 18.6754 89.9844 17.1509V33.5396C89.9844 33.5396 89.9844 33.7301 90.175 33.7301C90.3657 33.9207 90.3657 34.1113 90.3657 34.3018C90.3657 34.4924 90.175 34.683 89.9844 34.8735C89.7937 35.0641 89.6031 35.2547 89.2218 35.2547C88.4592 35.2547 88.078 34.683 88.078 33.349L88.2686 22.1056ZM92.6534 11.6245C92.4627 11.6245 92.4627 11.4339 92.4627 11.2433C92.4627 11.0528 92.6534 10.8622 92.844 10.6716C93.2253 10.4811 93.7972 9.71881 94.9411 8.95655C96.0849 8.00372 96.6569 7.43202 96.8475 7.24146C97.0382 7.24146 97.0382 7.24146 97.2288 7.24146C97.4194 7.24146 97.6101 7.43202 97.8007 7.62259C97.9914 7.81315 98.182 8.19429 98.182 8.38485C98.182 8.57542 98.182 8.76598 97.9914 8.95655C97.2288 9.52825 95.7037 10.4811 93.4159 11.6245C93.4159 11.6245 93.2253 11.6245 93.0347 11.6245C92.844 11.815 92.844 11.6245 92.6534 11.6245ZM105.617 33.9207C105.617 34.4924 105.426 35.0641 105.045 35.6358C104.664 36.3981 104.283 36.9698 103.711 37.5415C103.139 38.1132 102.757 38.3037 102.185 38.3037C101.804 38.3037 101.614 38.1132 101.614 37.9226C101.614 37.732 101.804 37.3509 101.995 37.1603C102.376 36.5886 102.757 35.6358 102.948 34.1113C103.139 32.7773 103.52 32.2056 104.283 32.2056C105.236 32.2056 105.617 32.7773 105.617 33.9207ZM118.962 16.0075C117.437 18.6754 116.484 20.1999 116.293 20.5811V22.4867C116.293 23.4396 116.674 25.1547 117.437 27.632C118.199 30.1094 118.771 31.8245 119.343 32.5867C119.343 32.5867 119.534 32.9679 119.725 33.1584C119.915 33.5396 120.106 33.7301 120.106 33.9207C120.297 34.1113 120.297 34.3018 120.297 34.683C120.297 34.8735 120.297 35.0641 120.106 35.2547C119.915 35.4452 119.725 35.4452 119.534 35.4452C118.962 35.4452 118.581 34.8735 118.009 33.9207C117.437 32.7773 117.056 31.6339 116.484 29.9188C115.721 27.2509 115.149 24.9641 114.959 23.0584C114.196 24.583 113.815 26.4886 113.815 28.7754V34.683C113.815 35.2547 113.624 35.4452 113.243 35.4452C112.861 35.4452 112.671 35.4452 112.48 35.2547C112.29 35.0641 112.099 34.8735 112.099 34.4924V24.7735C112.099 23.6301 112.29 21.915 112.48 19.4377C112.671 16.9603 112.48 15.4358 112.48 14.2924C112.671 13.9113 112.861 13.7207 113.243 13.7207C113.624 13.7207 113.815 13.9113 114.005 14.1018C114.196 14.1018 114.387 14.483 114.387 14.6735C114.005 15.2452 114.005 17.1509 114.005 20.7716V21.915C114.005 21.915 114.387 21.1528 115.149 19.6282C117.056 16.0075 118.199 14.1018 118.581 14.1018C118.962 14.1018 119.153 14.1018 119.534 14.2924C119.725 14.483 119.915 14.6735 119.915 14.8641C119.725 14.8641 119.534 15.2452 118.962 16.0075ZM124.681 34.683V32.2056C124.681 32.2056 124.681 31.8245 124.681 31.0622C124.681 30.8716 124.491 28.3943 124.109 23.8207C123.919 19.0565 123.728 16.3886 123.728 15.2452C123.728 15.2452 123.728 15.2452 123.537 15.2452C121.822 15.2452 120.868 14.8641 120.868 14.2924C120.868 14.1018 121.059 13.9113 121.25 13.7207C121.44 13.5301 121.631 13.5301 122.012 13.5301L126.397 13.9113H126.969C127.732 13.9113 127.922 14.1018 127.922 14.6735C127.922 15.0547 127.922 15.2452 127.732 15.2452C127.541 15.4358 127.35 15.4358 126.969 15.4358L125.444 15.2452V15.6264C125.444 17.7226 125.635 20.7716 126.016 24.7735C126.397 28.7754 126.588 32.015 126.588 33.9207C126.588 34.1113 126.397 34.4924 126.206 34.683C126.016 34.8735 125.635 35.0641 125.444 35.0641L124.681 34.683ZM129.447 30.1094C129.257 28.2037 129.066 26.6792 129.066 25.3452V24.2018C129.066 24.0113 129.066 24.0113 129.066 24.0113V23.4396C129.066 20.0094 129.257 17.7226 129.638 16.1981C130.019 15.0547 130.21 14.2924 130.591 13.9113C130.973 13.5301 131.163 13.3396 131.544 13.3396C134.023 13.3396 135.739 14.6735 136.692 17.1509C137.264 18.6754 137.454 20.3905 137.454 22.4867V22.6773V26.2981C137.454 32.5867 135.929 35.6358 133.07 35.6358C131.926 35.6358 130.973 35.0641 130.401 33.7301C130.019 32.5867 129.638 31.2528 129.447 30.1094ZM130.973 20.7716L130.782 23.8207C130.782 26.8698 130.973 29.7282 131.544 32.015C132.116 33.349 132.688 34.1113 133.07 34.4924C133.451 34.4924 133.832 34.3018 134.213 34.1113C134.595 33.9207 134.785 33.349 134.976 32.7773C135.167 32.2056 135.357 31.6339 135.357 31.0622C135.548 30.4905 135.548 29.9188 135.548 29.1565C135.739 28.0132 135.739 27.0603 135.739 26.2981C135.739 25.5358 135.739 24.2018 135.548 22.4867C135.357 20.7716 135.357 19.6282 135.357 18.6754V18.1037C135.357 17.3415 135.167 16.5792 134.595 16.0075C134.023 15.4358 133.451 15.0547 132.688 15.0547C131.926 15.0547 131.544 15.4358 131.163 16.3886C130.973 17.1509 130.782 17.9132 130.782 19.0565L130.973 20.7716ZM132.307 11.6245C132.116 11.6245 132.116 11.4339 132.116 11.2433C132.116 11.0528 132.307 10.8622 132.498 10.6716C132.879 10.4811 133.451 9.71881 134.595 8.95655C135.739 8.00372 136.311 7.43202 136.501 7.24146C136.692 7.24146 136.692 7.24146 136.882 7.24146C137.073 7.24146 137.264 7.43202 137.454 7.62259C137.645 7.81315 137.836 8.19429 137.836 8.38485C137.836 8.57542 137.836 8.76598 137.645 8.95655C136.882 9.52825 135.167 10.4811 132.879 11.6245C132.879 11.6245 132.688 11.6245 132.498 11.6245C132.498 11.815 132.307 11.6245 132.307 11.6245ZM141.077 24.3924V27.8226C141.077 30.6811 141.267 32.9679 141.648 34.4924L141.267 35.4452H140.314L139.933 35.0641C139.933 34.1113 139.933 32.9679 139.933 31.8245C139.933 30.6811 139.933 28.0132 139.742 24.0113C139.551 20.0094 139.551 17.1509 139.551 15.2452C139.551 14.2924 139.933 13.7207 140.695 13.7207C141.839 13.7207 142.792 14.1018 143.555 14.6735C144.317 15.2452 144.699 16.1981 144.699 17.1509V19.4377C144.699 20.0094 144.508 20.5811 144.317 21.1528C144.127 21.7245 143.746 22.2962 143.555 22.6773C143.174 23.249 143.174 23.6301 142.983 23.6301C143.174 24.2018 143.364 25.1547 143.555 26.6792C144.127 30.1094 144.889 32.3962 145.652 33.9207C145.843 34.3018 146.033 34.683 146.033 34.8735C146.033 35.0641 146.033 35.2547 145.843 35.4452C145.652 35.6358 145.461 35.6358 145.271 35.6358C144.889 35.6358 144.317 35.0641 143.936 34.1113C143.555 33.1584 143.174 32.015 142.983 30.6811C142.22 26.8698 141.648 24.7735 141.648 24.2018H141.077V24.3924ZM142.602 15.8169C142.411 15.0547 141.839 14.6735 141.077 14.6735V15.2452C141.077 16.1981 141.077 17.3415 141.077 19.0565C141.077 20.7716 141.077 21.915 141.077 22.6773C141.648 22.4867 142.03 21.7245 142.22 20.5811C142.602 19.4377 142.602 18.6754 142.602 18.1037C142.602 17.532 142.602 17.1509 142.602 16.7698C142.792 16.5792 142.792 16.1981 142.602 15.8169ZM147.558 18.866L147.368 16.1981C147.368 14.6735 147.749 13.9113 148.702 13.9113C149.274 13.9113 150.037 14.1018 150.99 14.2924C151.943 14.483 152.515 14.8641 152.515 15.2452C152.515 15.6264 152.134 16.0075 151.562 16.1981C150.609 15.8169 149.655 15.6264 149.084 15.6264C149.084 16.0075 149.084 16.5792 149.084 16.9603L148.893 21.5339C148.893 21.5339 148.893 21.7245 148.893 22.1056H150.037C150.99 22.1056 151.562 22.4867 151.562 23.0584C151.562 23.249 151.562 23.4396 151.371 23.6301C151.181 23.8207 150.99 23.8207 150.609 23.8207C150.227 23.8207 150.037 23.8207 149.655 23.8207H148.893C148.893 24.583 148.893 25.5358 148.893 26.2981L148.702 32.2056C148.702 33.349 148.702 34.1113 148.702 34.1113H151.181C151.943 34.1113 152.324 34.3018 152.324 34.8735C152.324 35.2547 152.134 35.4452 151.943 35.6358C151.753 35.8264 151.371 35.8264 150.99 35.8264H148.702C148.512 35.8264 148.13 35.6358 147.94 35.4452C147.749 35.2547 147.558 35.0641 147.558 34.683V33.9207L147.368 28.3943L147.558 18.866ZM159.76 34.8735C158.234 33.9207 157.662 31.4433 157.662 27.2509V25.3452V24.583C157.662 21.3433 157.853 19.2471 158.044 17.9132C158.425 16.3886 158.997 15.2452 159.569 14.6735C160.522 13.9113 161.666 13.5301 163 13.5301C163.382 13.5301 163.572 13.5301 163.763 13.7207C163.954 13.9113 163.954 14.1018 163.954 14.2924C163.954 14.483 163.954 14.6735 163.763 14.8641C163.763 15.0547 163.572 15.2452 163.382 15.2452H161.857C161.475 15.2452 161.094 15.4358 160.713 16.0075C160.331 16.5792 160.141 17.3415 159.95 18.1037C159.76 19.6282 159.569 20.9622 159.569 21.915V22.1056L159.378 28.3943C159.378 29.7282 159.378 30.6811 159.569 31.0622C159.76 31.4433 159.95 32.015 159.95 32.2056C160.141 32.5867 160.331 32.7773 160.522 32.9679C161.094 33.349 161.666 33.7301 162.429 33.7301C162.619 33.7301 163 33.7301 163.191 33.5396C163.382 33.5396 163.763 33.5396 163.954 33.7301C164.144 33.9207 164.335 34.1113 164.335 34.3018C164.335 35.0641 163.763 35.6358 162.619 35.6358C162.047 35.6358 161.666 35.6358 161.094 35.4452C160.331 35.2547 159.95 35.0641 159.76 34.8735ZM166.623 13.7207C167.385 13.7207 167.576 14.2924 167.576 15.6264L167.385 23.6301C167.767 23.8207 168.338 23.8207 169.101 23.8207H170.245C170.245 23.8207 170.245 23.4396 170.245 22.8679C170.245 22.2962 170.245 20.9622 170.054 18.866C169.864 16.7698 170.245 15.2452 170.245 14.2924C170.245 14.1018 170.245 13.9113 170.436 13.7207C170.626 13.5301 170.817 13.3396 171.007 13.3396C171.198 13.3396 171.389 13.3396 171.389 13.3396C171.579 13.3396 171.579 13.3396 171.77 13.5301C171.961 13.5301 171.961 13.5301 172.151 13.7207C172.151 16.5792 172.342 20.5811 172.533 26.1075C172.723 31.6339 172.914 34.3018 172.914 34.4924C172.914 34.683 172.723 34.8735 172.533 35.0641C172.342 35.2547 171.961 35.2547 171.77 35.2547C171.579 35.2547 171.198 35.0641 171.007 34.683C170.817 34.3018 170.817 33.7301 170.626 32.7773C170.626 32.015 170.436 31.2528 170.436 30.6811C170.436 30.4905 170.436 30.1094 170.436 29.7282C170.436 29.3471 170.436 28.7754 170.436 28.2037C170.436 27.2509 170.436 26.6792 170.436 26.4886V26.2981V25.3452L170.245 24.9641C170.054 24.9641 169.864 24.9641 169.673 24.9641L167.576 24.7735V28.5849L167.767 33.9207C167.767 34.3018 167.767 34.4924 167.576 34.683C167.385 34.8735 167.195 35.0641 166.813 35.0641C166.432 35.0641 166.051 34.683 165.86 33.9207C165.669 33.1584 165.669 32.015 165.669 30.6811V25.7264C165.669 24.7735 165.669 24.2018 165.669 24.0113V23.8207C165.669 22.6773 165.86 22.1056 165.86 21.915L165.669 14.6735C165.669 14.483 165.669 14.1018 165.86 13.9113C166.241 13.7207 166.432 13.7207 166.623 13.7207ZM176.536 34.8735C175.011 33.9207 174.439 31.4433 174.439 27.2509V25.3452V24.583C174.439 21.3433 174.63 19.2471 174.82 17.9132C175.202 16.3886 175.773 15.2452 176.345 14.6735C177.299 13.9113 178.442 13.5301 179.777 13.5301C180.158 13.5301 180.349 13.5301 180.54 13.7207C180.73 13.9113 180.73 14.1018 180.73 14.2924C180.73 14.483 180.73 14.6735 180.54 14.8641C180.54 15.0547 180.349 15.2452 180.158 15.2452H178.633C178.252 15.2452 177.871 15.4358 177.489 16.0075C177.108 16.5792 176.917 17.3415 176.727 18.1037C176.536 19.6282 176.345 20.9622 176.345 21.915V22.1056L176.155 28.3943C176.155 29.7282 176.155 30.6811 176.345 31.0622C176.536 31.4433 176.727 32.015 176.727 32.2056C176.917 32.5867 177.108 32.7773 177.299 32.9679C177.871 33.349 178.442 33.7301 179.205 33.7301C179.396 33.7301 179.777 33.7301 179.968 33.5396C180.158 33.5396 180.54 33.5396 180.73 33.7301C180.921 33.9207 181.111 34.1113 181.111 34.3018C181.111 35.0641 180.54 35.6358 179.396 35.6358C178.824 35.6358 178.442 35.6358 177.871 35.4452C177.108 35.2547 176.727 35.0641 176.536 34.8735ZM183.971 40.2094C184.352 40.2094 184.924 40.0188 185.306 39.6377L185.496 40.2094C185.496 40.3999 185.306 40.7811 184.924 40.9716C184.543 41.1622 184.162 41.3528 183.78 41.3528C183.399 41.3528 183.018 41.1622 182.827 40.7811C182.637 40.3999 182.446 40.0188 182.446 39.6377C182.446 38.6849 182.827 37.9226 183.399 37.1603C183.971 36.3981 184.734 35.8264 185.496 35.2547L186.449 35.6358C186.259 35.6358 186.068 35.8264 185.878 36.0169C185.687 36.2075 185.496 36.3981 185.306 36.5886C185.115 36.7792 184.924 36.7792 184.924 36.9698C184.924 36.9698 184.734 37.1603 184.543 37.3509C184.352 37.5415 184.352 37.732 184.162 37.732C184.162 37.9226 183.971 37.9226 183.971 38.1132C183.78 38.3037 183.78 38.4943 183.78 38.4943C183.59 38.8754 183.59 39.2565 183.59 39.6377C183.59 39.8282 183.59 40.2094 183.971 40.2094ZM182.827 18.866L182.637 16.1981C182.637 14.6735 183.018 13.9113 183.971 13.9113C184.543 13.9113 185.306 14.1018 186.259 14.2924C187.212 14.483 187.784 14.8641 187.784 15.2452C187.784 15.6264 187.403 16.0075 186.831 16.1981C185.878 15.8169 184.924 15.6264 184.352 15.6264C184.352 16.0075 184.352 16.5792 184.352 16.9603L184.162 21.5339C184.162 21.5339 184.162 21.7245 184.162 22.1056H185.306C186.259 22.1056 186.831 22.4867 186.831 23.0584C186.831 23.249 186.831 23.4396 186.64 23.6301C186.449 23.8207 186.259 23.8207 185.878 23.8207C185.496 23.8207 185.306 23.8207 184.924 23.8207H184.162C184.162 24.583 184.162 25.5358 184.162 26.2981L183.971 32.2056C183.971 33.349 183.971 34.1113 183.971 34.1113H186.449C187.212 34.1113 187.593 34.3018 187.593 34.8735C187.593 35.2547 187.403 35.4452 187.212 35.6358C187.021 35.8264 186.64 35.8264 186.259 35.8264H183.59C183.399 35.8264 183.018 35.6358 182.827 35.4452C182.637 35.2547 182.446 35.0641 182.446 34.683V33.9207L182.255 28.3943L182.827 18.866Z" fill="black"/>
<path d="M63.1053 48.4037C61.5802 51.0717 60.627 52.5962 60.4363 52.9773V54.883C60.4363 55.8358 60.8176 57.5509 61.5802 60.0283C62.3427 62.5056 62.9147 64.2207 63.4866 64.983C63.4866 64.983 63.6772 65.3641 63.8679 65.5547C64.0585 65.9358 64.2492 66.1264 64.2492 66.3169C64.4398 66.5075 64.4398 66.6981 64.4398 67.0792C64.4398 67.2698 64.4398 67.4603 64.2492 67.6509C64.0585 67.8415 63.8679 67.8415 63.6772 67.8415C63.1053 67.8415 62.724 67.2698 62.1521 66.3169C61.5802 65.1735 61.1989 64.0301 60.627 62.3151C59.8644 59.6471 59.2925 57.3603 59.1018 55.4547C58.3393 56.9792 57.958 58.8849 57.958 61.1717V67.0792C57.958 67.6509 57.7673 67.8415 57.386 67.8415C57.0048 67.8415 56.8141 67.8415 56.6235 67.6509C56.4328 67.4603 56.2422 67.2698 56.2422 66.8886V57.1698C56.2422 56.0264 56.4328 54.3113 56.6235 51.8339C56.8141 49.3566 57.0048 47.832 57.0048 46.6886C57.1954 46.3075 57.386 46.1169 57.7673 46.1169C58.1486 46.1169 58.3393 46.3075 58.5299 46.4981C58.7205 46.6886 58.9112 46.8792 58.9112 47.2603C58.7205 47.832 58.5299 49.7377 58.5299 53.1679V54.3113C58.5299 54.3113 58.9112 53.549 59.6738 52.0245C61.5802 48.4037 62.724 46.4981 63.1053 46.4981C63.4866 46.4981 63.6772 46.4981 64.0585 46.6886C64.2492 46.8792 64.4398 47.0698 64.4398 47.2603C63.8679 47.2603 63.6772 47.6415 63.1053 48.4037ZM65.2024 62.5056C65.0117 60.6 64.8211 59.0754 64.8211 57.7415V56.5981C64.8211 56.4075 64.8211 56.4075 64.8211 56.4075V55.8358C64.8211 52.4056 65.0117 50.1188 65.393 48.5943C65.7743 47.4509 65.965 46.6886 66.3462 46.3075C66.7275 46.1169 66.9182 45.9264 67.2994 45.9264C69.7778 45.9264 71.4936 47.2603 72.4468 49.7377C73.0187 51.2622 73.2094 52.9773 73.2094 55.0735V55.2641V58.8849C73.2094 65.1735 71.6842 68.2226 68.8246 68.2226C67.6807 68.2226 66.7275 67.6509 66.1556 66.3169C65.7743 64.983 65.393 63.649 65.2024 62.5056ZM66.7275 53.1679L66.5369 56.2169C66.5369 59.266 66.7275 62.1245 67.2994 64.4113C67.8714 65.7452 68.4433 66.5075 68.8246 66.8886C69.2059 66.8886 69.5872 66.6981 69.9684 66.5075C70.3497 66.3169 70.5404 65.7452 70.731 65.1735C70.9217 64.6018 71.1123 64.0301 71.1123 63.4584C71.3029 62.8867 71.3029 62.3151 71.3029 61.5528C71.4936 60.4094 71.4936 59.4566 71.4936 58.6943C71.4936 57.932 71.4936 56.5981 71.3029 54.883C71.1123 53.1679 71.1123 52.0245 71.1123 51.0717V50.5C71.1123 49.7377 70.9217 48.9754 70.3497 48.4037C69.7778 47.832 69.2059 47.4509 68.4433 47.4509C67.6807 47.4509 67.2994 47.832 66.9182 48.7849C66.7275 49.5471 66.5369 50.3094 66.5369 51.4528L66.7275 53.1679ZM88.2701 69.1754C87.5075 69.1754 87.3169 68.4132 87.3169 67.0792V62.8868C87.3169 61.9339 87.3169 60.6 87.1263 58.6943C86.9356 56.7886 86.9356 55.6452 86.9356 54.883C86.9356 54.3113 86.9356 53.549 86.9356 52.5962C86.9356 51.6434 86.9356 51.0717 86.9356 50.5C86.9356 50.6905 86.5543 52.2151 85.7918 54.883C84.076 61.9339 82.9321 65.3641 82.1696 65.3641C81.7883 65.3641 81.407 65.1735 81.2163 64.983C81.0257 64.7924 80.8351 64.4113 80.8351 64.0301C80.8351 63.0773 80.4538 60.9811 79.6912 57.7415C78.9286 54.5018 78.1661 52.0245 77.5941 50.5C77.2129 58.1226 77.0222 63.2679 77.0222 65.9358V66.8886C77.0222 67.2698 77.0222 67.4603 76.8316 67.6509C76.6409 67.8415 76.4503 67.8415 76.069 67.8415C75.6877 67.8415 75.4971 67.8415 75.3064 67.6509C75.1158 67.4603 74.9251 67.2698 74.9251 67.0792C74.9251 64.7924 75.1158 61.5528 75.4971 57.1698C75.8784 52.7868 76.069 49.5471 76.069 47.2603C75.8784 47.0698 75.8784 46.8792 75.8784 46.4981C75.8784 46.3075 76.069 46.1169 76.2596 45.9264C76.4503 45.7358 76.8316 45.7358 77.0222 45.7358C77.4035 45.7358 78.3567 47.832 79.6912 52.2151C81.0257 56.5981 81.9789 59.6471 82.1696 61.1717C82.1696 60.7905 82.5508 60.0283 82.7415 58.6943C82.9321 57.3603 83.3134 56.0264 83.6947 54.6924C84.076 53.3585 84.4573 51.8339 84.8386 50.5C85.7918 47.2603 86.5543 45.5452 87.1263 45.5452C87.3169 45.5452 87.6982 45.5452 87.8888 45.7358C88.0795 45.9264 88.2701 46.1169 88.2701 46.3075C88.2701 47.832 88.2701 50.1188 88.4608 53.3584C88.6514 56.4075 88.6514 58.6943 88.6514 60.0283V63.4584C88.6514 63.649 88.6514 64.4113 88.842 65.7452V66.3169C88.842 66.5075 89.0327 66.8886 89.0327 67.0792C89.0327 67.2698 88.842 67.6509 88.6514 67.8415C88.842 69.1754 88.6514 69.1754 88.2701 69.1754ZM98.9461 53.1679V53.7396C98.9461 63.2679 97.6116 68.032 94.752 68.032C93.6081 68.032 92.8455 67.6509 92.2736 66.6981C91.7017 65.7452 91.3204 64.983 91.3204 64.0301C91.1298 62.6962 91.1298 60.9811 90.9391 59.266C90.9391 57.5509 90.9391 54.883 90.9391 51.4528L90.7485 46.8792C90.9391 46.4981 91.1298 46.1169 91.511 46.1169C91.7017 46.1169 92.083 46.3075 92.2736 46.6886C92.4643 47.0698 92.6549 47.4509 92.6549 48.0226V56.7886C92.6549 57.5509 92.6549 58.6943 92.8455 60.2188C93.0362 61.7434 93.0362 62.8868 93.0362 63.649C93.0362 65.1735 93.7988 65.9358 95.1333 65.9358C96.6584 65.9358 97.421 60.2188 97.421 48.5943V46.6886V46.1169C97.421 45.9264 97.421 45.7358 97.6116 45.5452C97.8022 45.3547 97.9929 45.3547 98.1835 45.3547C98.5648 45.3547 98.7555 45.3547 98.7555 45.5452C98.9461 45.5452 98.9461 45.7358 99.1367 45.9264C99.1367 46.1169 99.3274 46.4981 99.3274 46.8792L99.1367 50.3094L98.9461 53.1679ZM101.234 66.1264L102.568 66.3169C102.95 66.3169 103.331 66.1264 103.712 65.7452C104.093 65.3641 104.284 64.983 104.475 64.4113C104.665 63.4584 104.856 62.5056 104.856 61.7434C104.856 60.9811 104.665 60.2188 104.475 59.4566C104.284 58.6943 103.903 57.932 103.522 57.3603C103.14 56.5981 102.759 56.0264 102.378 55.2641C101.424 53.549 101.043 52.0245 101.043 50.5C101.043 49.5471 101.234 48.5943 101.615 47.832C102.187 46.4981 102.95 45.7358 104.093 45.7358C104.475 45.7358 104.856 45.9264 105.237 46.1169C105.619 46.3075 105.809 46.6886 105.809 46.8792C105.809 47.4509 105.619 47.6415 105.047 47.6415C104.856 47.6415 104.665 47.6415 104.284 47.4509C103.522 47.4509 103.14 48.2132 102.95 49.7377C102.95 50.1188 102.95 50.5 102.95 50.8811C102.95 51.2622 102.95 51.8339 103.14 52.5962C103.331 53.1679 103.522 53.7396 103.903 54.3113C104.284 54.883 104.475 55.4547 104.856 56.0264C105.237 56.5981 105.428 57.1698 105.809 57.7415C106.572 59.0754 106.762 60.6 106.762 62.3151C106.762 63.649 106.381 64.7924 105.809 66.1264C105.428 66.6981 105.047 67.2698 104.475 67.6509C103.903 68.032 103.331 68.2226 102.568 68.2226C101.615 68.032 101.234 67.6509 101.043 66.8886L101.234 66.1264ZM101.996 44.0207C101.806 44.0207 101.806 43.8301 101.806 43.6396C101.806 43.449 101.996 43.2585 102.187 43.0679C102.568 42.8773 103.14 42.1151 104.284 41.3528C105.428 40.4 106 39.8283 106.191 39.6377C106.381 39.6377 106.381 39.6377 106.572 39.6377C106.762 39.6377 106.953 39.8283 107.144 40.0188C107.334 40.2094 107.525 40.5905 107.525 40.7811C107.525 40.9717 107.525 41.1622 107.334 41.3528C106.572 41.9245 104.856 42.8773 102.568 44.0207C102.568 44.0207 102.378 44.0207 102.187 44.0207C102.378 44.0207 102.187 44.0207 101.996 44.0207ZM114.96 67.2698H113.054C112.863 67.2698 112.672 67.2698 112.482 67.4603C112.291 67.6509 112.1 67.6509 111.91 67.6509C111.719 67.6509 111.529 67.6509 111.338 67.4603C111.147 67.2698 111.147 67.0792 111.147 66.6981C111.147 64.7924 111.91 61.3622 113.244 56.5981C114.769 51.8339 115.532 48.7849 115.913 47.6415L113.244 47.832C113.054 47.832 112.863 47.832 112.672 47.6415C112.482 47.4509 112.482 47.2603 112.482 46.8792C112.482 46.3075 113.626 45.9264 116.104 45.9264C117.248 45.9264 117.629 46.3075 117.629 46.8792C117.629 47.6415 117.438 48.5943 116.866 49.9283C116.485 51.2622 116.104 52.2151 116.104 52.5962C115.913 54.3113 115.341 56.7886 114.388 60.0283C113.626 63.2679 113.054 65.1735 113.054 65.5547H113.626H114.96C115.913 65.5547 116.295 65.7452 116.295 66.3169C116.295 66.5075 116.104 66.6981 115.913 66.8886C115.532 67.2698 115.341 67.2698 114.96 67.2698ZM126.399 60.9811L126.78 62.8868C126.78 63.0773 126.971 63.8396 127.161 64.7924C127.352 65.7452 127.542 66.5075 127.542 66.8886C127.542 67.2698 127.352 67.6509 126.971 67.8415C126.589 67.8415 126.208 67.8415 125.827 67.6509C125.445 67.4603 125.445 67.2698 125.445 66.8886C125.445 65.9358 125.255 64.6018 125.064 62.8868L121.823 62.5056C121.633 63.2679 121.442 64.0301 121.442 64.7924C121.251 65.5547 121.251 66.3169 121.061 66.6981C120.87 67.4603 120.489 67.8415 119.917 67.8415C119.726 67.8415 119.345 67.8415 119.154 67.6509C118.964 67.4603 118.773 67.2698 118.773 67.0792V66.8886C120.298 61.3622 121.251 55.8358 122.014 50.5C122.014 50.3094 122.014 49.9283 122.014 49.166C122.204 47.6415 122.395 46.4981 122.586 46.1169H123.92C124.302 46.1169 124.492 46.1169 124.683 46.3075C124.873 46.4981 125.064 46.6886 125.064 46.8792C125.064 48.5943 125.255 50.8811 125.636 54.1207C126.017 57.1698 126.399 59.4566 126.399 60.9811ZM121.823 61.1717C122.204 61.3622 123.158 61.5528 124.683 61.7434C124.683 61.3622 124.683 60.7905 124.683 60.0283C124.683 59.266 124.683 58.3132 124.492 57.1698C124.492 56.0264 124.302 54.6924 124.111 53.1679C123.92 51.4528 123.73 50.3094 123.73 49.5471C122.586 55.0735 122.014 58.8849 121.823 61.1717ZM129.83 67.6509C129.258 67.6509 129.068 66.3169 129.068 63.4584V53.1679C129.068 52.4056 129.068 51.4528 128.877 49.9283C128.686 48.5943 128.686 47.6415 128.686 47.2603C128.686 46.8792 128.877 46.4981 129.068 46.3075C129.258 46.1169 129.64 45.9264 129.83 45.9264C132.118 45.9264 133.834 47.2603 135.168 49.9283C135.931 51.4528 136.312 52.9773 136.312 54.6924V56.4075V58.1226C136.312 60.2188 136.121 61.7434 135.931 62.5056C135.74 63.2679 135.549 63.8396 135.359 64.4113C135.168 64.983 134.978 65.3641 134.596 65.7452C133.834 66.6981 133.071 67.2698 131.927 67.8415H129.83V67.6509ZM131.165 65.3641V66.1264C133.071 66.1264 134.215 64.2207 134.596 60.4094C134.596 59.4566 134.787 58.6943 134.787 57.932C134.787 51.4528 133.452 48.0226 130.974 47.6415C130.783 48.4037 130.783 49.7377 130.783 51.0717C130.783 52.5962 130.783 54.883 130.974 58.1226C131.165 61.3622 131.165 63.649 131.165 65.3641ZM145.463 60.9811L145.844 62.8868C145.844 63.0773 146.035 63.8396 146.225 64.7924C146.416 65.7452 146.607 66.5075 146.607 66.8886C146.607 67.2698 146.416 67.6509 146.035 67.8415C145.653 67.8415 145.272 67.8415 144.891 67.6509C144.51 67.4603 144.51 67.2698 144.51 66.8886C144.51 65.9358 144.319 64.6018 144.128 62.8868L140.887 62.5056C140.697 63.2679 140.506 64.0301 140.506 64.7924C140.316 65.5547 140.316 66.3169 140.125 66.6981C139.934 67.4603 139.553 67.8415 138.981 67.8415C138.79 67.8415 138.409 67.8415 138.218 67.6509C138.028 67.4603 137.837 67.2698 137.837 67.0792V66.8886C139.362 61.3622 140.316 55.8358 141.078 50.5C141.078 50.3094 141.078 49.9283 141.078 49.166C141.269 47.6415 141.459 46.4981 141.65 46.1169H142.985C143.366 46.1169 143.556 46.1169 143.747 46.3075C143.938 46.4981 144.128 46.6886 144.128 46.8792C144.128 48.5943 144.319 50.8811 144.7 54.1207C145.272 57.1698 145.463 59.4566 145.463 60.9811ZM140.887 61.1717C141.269 61.3622 142.222 61.5528 143.747 61.7434C143.747 61.3622 143.747 60.7905 143.747 60.0283C143.747 59.266 143.747 58.3132 143.556 57.1698C143.556 56.0264 143.366 54.6924 143.175 53.1679C142.984 51.4528 142.794 50.3094 142.794 49.5471C141.841 55.0735 141.269 58.8849 140.887 61.1717ZM149.848 67.2698C148.322 66.3169 147.751 63.8396 147.751 59.6471V57.7415V56.9792C147.751 53.7396 147.941 51.6434 148.132 50.3094C148.513 48.7849 149.085 47.6415 149.657 47.0698C150.61 46.3075 151.754 45.9264 153.089 45.9264C153.47 45.9264 153.66 45.9264 153.851 46.1169C154.042 46.3075 154.042 46.4981 154.042 46.6886C154.042 46.8792 154.042 47.0698 153.851 47.2603C153.66 47.4509 153.47 47.4509 153.279 47.4509H151.754C151.373 47.4509 150.991 47.6415 150.61 48.2132C150.229 48.7849 150.038 49.5471 149.848 50.3094C149.657 51.8339 149.466 53.1679 149.466 54.1207V54.3113L149.276 60.6C149.276 61.9339 149.276 62.8868 149.466 63.2679C149.657 63.649 149.848 64.2207 149.848 64.4113C150.038 64.7924 150.229 64.983 150.42 65.1735C150.991 65.5547 151.563 65.9358 152.326 65.9358C152.517 65.9358 152.898 65.9358 153.089 65.7452C153.279 65.7452 153.66 65.7452 153.851 65.9358C154.042 66.1264 154.232 66.3169 154.232 66.5075C154.232 67.2698 153.66 67.8415 152.517 67.8415C151.945 67.8415 151.563 67.8415 150.991 67.6509C150.42 67.6509 150.038 67.4603 149.848 67.2698ZM150.038 44.0207C149.848 44.0207 149.848 43.8301 149.848 43.6396C149.848 43.449 150.038 43.2585 150.229 43.0679C150.61 42.8773 151.182 42.1151 152.326 41.3528C153.47 40.4 154.042 39.8283 154.232 39.6377C154.423 39.6377 154.423 39.6377 154.614 39.6377C154.804 39.6377 154.995 39.8283 155.186 40.0188C155.376 40.2094 155.567 40.5905 155.567 40.7811C155.567 40.9717 155.567 41.1622 155.376 41.3528C154.423 41.9245 152.898 42.8773 150.61 44.0207C150.61 44.0207 150.42 44.0207 150.229 44.0207C150.229 44.2113 150.038 44.0207 150.038 44.0207ZM162.811 56.7886L163.002 63.649V64.6018V65.5547H163.383H164.336C165.29 65.5547 165.671 65.7452 165.671 66.3169C165.671 66.5075 165.48 66.8886 165.29 67.0792C165.099 67.2698 164.908 67.4603 164.527 67.4603H163.193C162.239 67.4603 161.667 67.4603 161.286 67.4603C161.096 67.4603 160.905 67.4603 160.905 67.4603C160.142 67.4603 159.761 67.2698 159.761 66.6981C159.761 66.5075 159.761 66.3169 159.952 66.1264C160.142 65.9358 160.142 65.9358 160.333 65.9358H161.286V65.5547L161.096 58.6943L161.286 51.4528C161.286 50.3094 161.286 48.9754 161.096 48.0226H160.524H159.761C159.38 48.0226 159.189 48.0226 158.998 47.832C158.808 47.6415 158.808 47.4509 158.808 47.0698C158.808 46.4981 159.38 46.3075 160.333 46.3075H164.146C165.099 46.3075 165.48 46.4981 165.48 47.0698C165.48 47.2603 165.48 47.4509 165.29 47.6415C165.099 47.832 164.908 47.832 164.718 47.832H163.002C163.002 48.7849 163.193 49.7377 163.193 50.8811L162.811 56.7886ZM170.628 54.5018L170.818 48.4037C170.818 47.4509 171.2 46.6886 171.962 45.9264V46.1169H172.153C172.725 46.1169 173.297 47.0698 174.059 48.7849C174.822 50.5 175.584 52.4056 176.156 54.5018C176.728 56.5981 177.3 58.6943 178.063 60.7905C178.635 62.8867 179.016 64.2207 179.207 64.6018C179.588 60.0283 179.779 54.6924 179.779 48.2132V47.2603C179.779 46.6886 179.969 46.3075 180.541 46.3075C180.922 46.3075 181.113 46.4981 181.304 46.6886C181.494 46.8792 181.494 47.2603 181.494 47.6415V50.1188C181.494 52.5962 181.304 56.0264 181.113 60.2188C180.922 64.4113 180.541 66.8886 180.35 67.4603C179.778 67.6509 179.397 67.6509 179.207 67.6509C179.016 67.6509 178.825 67.6509 178.635 67.4603C178.444 67.2698 178.444 67.0792 178.253 66.6981C178.253 66.3169 178.063 66.1264 178.063 66.1264V65.9358C178.063 65.1735 177.3 62.5056 175.775 58.3132C174.25 53.9301 173.106 51.0717 172.343 49.5471V65.9358C172.343 65.9358 172.343 66.1264 172.534 66.1264C172.725 66.3169 172.725 66.5075 172.725 66.6981C172.725 66.8886 172.534 67.0792 172.343 67.2698C172.153 67.4603 171.962 67.6509 171.581 67.6509C170.818 67.6509 170.437 67.0792 170.437 65.7452L170.628 54.5018ZM190.645 60.9811L191.026 62.8868C191.026 63.0773 191.217 63.8396 191.408 64.7924C191.598 65.7452 191.789 66.5075 191.789 66.8886C191.789 67.2698 191.598 67.6509 191.217 67.8415C190.836 67.8415 190.454 67.8415 190.073 67.6509C189.692 67.4603 189.692 67.2698 189.692 66.8886C189.692 65.9358 189.501 64.6018 189.311 62.8868L186.07 62.5056C185.879 63.2679 185.688 64.0301 185.688 64.7924C185.498 65.5547 185.498 66.3169 185.307 66.6981C185.116 67.4603 184.735 67.8415 184.163 67.8415C183.973 67.8415 183.591 67.8415 183.401 67.6509C183.21 67.4603 183.019 67.2698 183.019 67.0792V66.8886C184.545 61.3622 185.498 55.8358 186.26 50.5C186.26 50.3094 186.26 49.9283 186.26 49.166C186.451 47.6415 186.642 46.4981 186.832 46.1169H187.976C188.357 46.1169 188.548 46.1169 188.739 46.3075C188.929 46.4981 189.12 46.6886 189.12 46.8792C189.12 48.5943 189.311 50.8811 189.692 54.1207C190.454 57.1698 190.645 59.4566 190.645 60.9811ZM186.07 61.1717C186.451 61.3622 187.404 61.5528 188.929 61.7434C188.929 61.3622 188.929 60.7905 188.929 60.0283C188.929 59.266 188.929 58.3132 188.739 57.1698C188.739 56.0264 188.548 54.6924 188.357 53.1679C188.167 51.6434 188.167 50.5 187.976 49.7377C187.023 55.0735 186.451 58.8849 186.07 61.1717ZM203.99 48.4037C202.465 51.0717 201.512 52.5962 201.321 52.9773V54.883C201.321 55.8358 201.702 57.5509 202.465 60.0283C203.228 62.5056 203.799 64.2207 204.371 64.983C204.371 64.983 204.562 65.3641 204.753 65.5547C204.943 65.9358 205.134 66.1264 205.134 66.3169C205.325 66.5075 205.325 66.6981 205.325 67.0792C205.325 67.2698 205.325 67.4603 205.134 67.6509C204.943 67.8415 204.753 67.8415 204.562 67.8415C203.99 67.8415 203.609 67.2698 203.037 66.3169C202.465 65.1735 202.084 64.0301 201.512 62.3151C200.749 59.6471 200.177 57.3603 199.987 55.4547C199.224 56.9792 198.843 58.8849 198.843 61.1717V67.0792C198.843 67.6509 198.652 67.8415 198.271 67.8415C197.89 67.8415 197.699 67.8415 197.508 67.6509C197.318 67.4603 197.127 67.2698 197.127 66.8886V57.1698C197.127 56.0264 197.318 54.3113 197.508 51.8339C197.699 49.3566 197.89 47.832 197.89 46.6886C198.08 46.3075 198.271 46.1169 198.652 46.1169C199.033 46.1169 199.224 46.3075 199.415 46.4981C199.605 46.6886 199.796 46.8792 199.796 47.2603C199.605 47.832 199.415 49.7377 199.415 53.1679V54.3113C199.415 54.3113 199.796 53.549 200.559 52.0245C202.465 48.4037 203.609 46.4981 203.99 46.4981C204.371 46.4981 204.562 46.4981 204.943 46.6886C205.134 46.8792 205.325 47.0698 205.325 47.2603C204.753 47.2603 204.562 47.6415 203.99 48.4037ZM209.709 67.0792V64.6018C209.709 64.6018 209.709 64.2207 209.709 63.4584C209.709 63.2679 209.519 60.7905 209.137 56.2169C208.947 51.6434 208.756 48.7849 208.756 47.832C208.756 47.832 208.756 47.832 208.566 47.832C206.85 47.832 205.897 47.4509 205.897 46.8792C205.897 46.6886 206.087 46.4981 206.278 46.3075C206.468 46.1169 206.659 46.1169 207.04 46.1169L211.425 46.4981H211.997C212.76 46.4981 212.95 46.6886 212.95 47.2603C212.95 47.4509 212.76 47.832 212.569 47.832C212.378 48.0226 212.188 48.0226 211.806 48.0226L210.281 47.832V48.2132C210.281 50.3094 210.472 53.3585 210.853 57.3603C211.234 61.3622 211.425 64.6018 211.425 66.5075C211.425 66.6981 211.234 67.0792 211.044 67.2698C210.853 67.4603 210.472 67.6509 210.281 67.6509L209.709 67.0792ZM214.475 62.5056C214.285 60.6 214.094 59.0754 214.094 57.7415V56.5981C214.094 56.4075 214.094 56.4075 214.094 56.4075V55.8358C214.094 52.4056 214.285 50.1188 214.666 48.5943C215.047 47.4509 215.238 46.6886 215.619 46.3075C216.001 46.1169 216.191 45.9264 216.572 45.9264C219.051 45.9264 220.767 47.2603 221.72 49.7377C222.292 51.2622 222.482 52.9773 222.482 55.0735V55.2641V58.8849C222.482 65.1735 220.957 68.2226 218.098 68.2226C216.954 68.2226 216.001 67.6509 215.429 66.3169C214.857 64.983 214.475 63.649 214.475 62.5056ZM216.001 53.1679L215.81 56.2169C215.81 59.266 216.001 62.1245 216.572 64.4113C217.144 65.7452 217.716 66.5075 218.098 66.8886C218.479 66.8886 218.86 66.6981 219.241 66.5075C219.623 66.3169 219.813 65.7452 220.004 65.1735C220.195 64.6018 220.385 64.0301 220.385 63.4584C220.576 62.8867 220.576 62.3151 220.576 61.5528C220.767 60.4094 220.767 59.4566 220.767 58.6943C220.767 57.932 220.767 56.5981 220.576 54.883C220.385 53.1679 220.385 52.0245 220.385 51.0717V50.5C220.385 49.7377 220.195 48.9754 219.623 48.4037C219.051 47.832 218.479 47.4509 217.716 47.4509C216.954 47.4509 216.572 47.832 216.191 48.7849C216.001 49.5471 215.81 50.3094 215.81 51.4528L216.001 53.1679ZM217.144 44.0207C216.954 44.0207 216.954 43.8301 216.954 43.6396C216.954 43.449 217.144 43.2585 217.335 43.0679C217.716 42.8773 218.288 42.1151 219.432 41.3528C220.576 40.4 221.148 39.8283 221.339 39.6377C221.529 39.6377 221.529 39.6377 221.72 39.6377C221.91 39.6377 222.101 39.8283 222.292 40.0188C222.482 40.2094 222.673 40.5905 222.673 40.7811C222.673 40.9717 222.673 41.1622 222.482 41.3528C221.72 41.9245 220.004 42.8773 217.716 44.0207C217.716 44.0207 217.526 44.0207 217.335 44.0207C217.335 44.2113 217.335 44.0207 217.144 44.0207ZM226.105 56.7886V60.2188C226.105 63.0773 226.295 65.3641 226.677 66.8886L226.295 67.8415H225.342L224.961 67.4603C224.961 66.5075 224.961 65.3641 224.961 64.2207C224.961 63.0773 224.961 60.4094 224.77 56.4075C224.579 52.4056 224.579 49.5471 224.579 47.6415C224.579 46.6886 224.961 46.1169 225.723 46.1169C226.867 46.1169 227.82 46.4981 228.583 47.0698C229.346 47.6415 229.727 48.5943 229.727 49.5471V51.8339C229.727 52.4056 229.536 52.9773 229.346 53.549C229.155 54.1207 228.774 54.6924 228.583 55.0735C228.202 55.6452 228.202 56.0264 228.011 56.0264C228.202 56.5981 228.392 57.5509 228.583 59.0754C229.155 62.5056 229.917 64.7924 230.68 66.3169C230.871 66.6981 231.061 67.0792 231.061 67.2698C231.061 67.4603 231.061 67.6509 230.871 67.8415C230.68 68.032 230.489 68.032 230.299 68.032C229.917 68.032 229.346 67.4603 228.964 66.5075C228.583 65.5547 228.202 64.4113 228.011 63.0773C227.248 59.266 226.677 57.1698 226.677 56.5981H226.105V56.7886ZM227.63 48.2132C227.439 47.4509 226.867 47.0698 226.105 47.0698L225.914 47.4509C225.914 48.4037 225.914 49.5471 225.914 51.2622C225.914 52.9773 225.914 54.1207 225.914 54.883C226.486 54.6924 226.867 53.9301 227.058 52.7868C227.439 51.6434 227.439 50.8811 227.439 50.3094C227.439 49.7377 227.439 49.3566 227.439 48.9754C227.82 48.9754 227.63 48.5943 227.63 48.2132ZM232.586 51.2622L232.396 48.5943C232.396 47.0698 232.777 46.3075 233.73 46.3075C234.302 46.3075 235.065 46.4981 236.018 46.6886C236.971 46.8792 237.543 47.2603 237.543 47.6415C237.543 48.0226 237.162 48.4037 236.59 48.5943C235.637 48.2132 234.684 48.0226 234.112 48.0226C234.112 48.4037 234.112 48.9754 234.112 49.3566L233.921 53.9301C233.921 53.9301 233.921 54.1207 233.921 54.5018H235.065C236.018 54.5018 236.59 54.883 236.59 55.4547C236.59 55.6452 236.59 55.8358 236.399 56.0264C236.209 56.2169 236.018 56.2169 235.637 56.2169C235.255 56.2169 235.065 56.2169 234.684 56.2169H233.921C233.921 56.9792 233.921 57.932 233.921 58.6943L233.73 64.6018C233.73 65.7452 233.73 66.5075 233.73 66.5075H236.209C236.971 66.5075 237.353 66.6981 237.353 67.2698C237.353 67.6509 237.162 67.8415 236.971 68.032C236.781 68.2226 236.399 68.2226 236.018 68.2226H233.349C233.158 68.2226 232.777 68.032 232.586 67.8415C232.396 67.6509 232.205 67.4603 232.205 67.0792V66.3169L232.015 60.7905L232.586 51.2622ZM244.597 67.2698C243.072 66.3169 242.5 63.8396 242.5 59.6471V57.7415V56.9792C242.5 53.7396 242.691 51.6434 242.881 50.3094C243.262 48.7849 243.834 47.6415 244.406 47.0698C245.359 46.3075 246.503 45.9264 247.838 45.9264C248.219 45.9264 248.41 45.9264 248.6 46.1169C248.791 46.3075 248.791 46.4981 248.791 46.6886C248.791 46.8792 248.791 47.0698 248.6 47.2603C248.41 47.4509 248.219 47.4509 248.029 47.4509H246.503C246.122 47.4509 245.741 47.6415 245.359 48.2132C244.978 48.7849 244.788 49.5471 244.597 50.3094C244.406 51.8339 244.216 53.1679 244.216 54.1207V54.3113L244.025 60.6C244.025 61.9339 244.025 62.8868 244.216 63.2679C244.406 63.649 244.597 64.2207 244.597 64.4113C244.788 64.7924 244.978 64.983 245.169 65.1735C245.741 65.5547 246.313 65.9358 247.075 65.9358C247.266 65.9358 247.647 65.9358 247.838 65.7452C248.028 65.7452 248.41 65.7452 248.6 65.9358C248.791 66.1264 248.982 66.3169 248.982 66.5075C248.982 67.2698 248.41 67.8415 247.266 67.8415C246.694 67.8415 246.313 67.8415 245.741 67.6509C245.359 67.6509 244.978 67.4603 244.597 67.2698ZM251.651 46.1169C252.413 46.1169 252.604 46.6886 252.604 48.0226L252.413 56.0264C252.795 56.2169 253.366 56.2169 254.129 56.2169H255.273C255.273 56.2169 255.273 55.8358 255.273 55.2641C255.273 54.6924 255.273 53.3584 255.082 51.2622C254.892 49.166 254.892 47.6415 254.892 46.6886C254.892 46.4981 254.892 46.3075 255.082 46.1169C255.273 45.9264 255.464 45.9264 255.654 45.9264C255.845 45.9264 256.035 45.9264 256.035 45.9264C256.226 45.9264 256.226 45.9264 256.417 46.1169C256.607 46.1169 256.607 46.1169 256.798 46.3075C256.798 49.166 256.989 53.1679 257.179 58.6943C257.37 64.2207 257.561 66.8886 257.561 67.0792C257.561 67.2698 257.37 67.4603 257.179 67.6509C256.989 67.8415 256.607 67.8415 256.417 67.8415C256.226 67.8415 255.845 67.6509 255.654 67.2698C255.464 66.8886 255.464 66.3169 255.273 65.3641C255.273 64.6018 255.082 63.8396 255.082 63.2679C255.082 63.0773 255.082 62.6962 255.082 62.3151C255.082 61.9339 255.082 61.3622 255.082 60.7905C255.082 59.8377 255.082 59.266 255.082 59.0754V58.8849V57.932L254.892 57.5509C254.701 57.5509 254.51 57.5509 254.32 57.5509L252.223 57.1698V60.9811L252.413 66.3169C252.413 66.6981 252.413 66.8886 252.223 67.0792C252.032 67.2698 251.841 67.4603 251.46 67.4603C251.079 67.4603 250.697 67.0792 250.507 66.3169C250.316 65.5547 250.316 64.4113 250.316 63.0773V58.1226C250.316 57.1698 250.316 56.5981 250.316 56.4075V56.2169C250.316 55.0735 250.507 54.5018 250.507 54.3113L250.316 47.0698C250.316 46.8792 250.316 46.4981 250.507 46.3075C251.079 46.1169 251.269 46.1169 251.651 46.1169ZM261.373 67.2698C259.848 66.3169 259.276 63.8396 259.276 59.6471V57.7415V56.9792C259.276 53.7396 259.467 51.6434 259.658 50.3094C260.039 48.7849 260.611 47.6415 261.183 47.0698C262.136 46.3075 263.28 45.9264 264.614 45.9264C264.996 45.9264 265.186 45.9264 265.377 46.1169C265.568 46.3075 265.568 46.4981 265.568 46.6886C265.568 46.8792 265.568 47.0698 265.377 47.2603C265.186 47.4509 264.996 47.4509 264.805 47.4509H263.28C262.899 47.4509 262.517 47.6415 262.136 48.2132C261.755 48.7849 261.564 49.5471 261.373 50.3094C261.183 51.8339 260.992 53.1679 260.992 54.1207V54.3113L260.802 60.6C260.802 61.9339 260.802 62.8868 260.992 63.2679C261.183 63.649 261.373 64.2207 261.373 64.4113C261.564 64.7924 261.755 64.983 261.945 65.1735C262.517 65.5547 263.089 65.9358 263.852 65.9358C264.042 65.9358 264.424 65.9358 264.614 65.7452C264.805 65.7452 265.186 65.7452 265.377 65.9358C265.568 66.1264 265.758 66.3169 265.758 66.5075C265.758 67.2698 265.186 67.8415 264.042 67.8415C263.471 67.8415 263.089 67.8415 262.517 67.6509C262.136 67.6509 261.755 67.4603 261.373 67.2698ZM268.999 72.6056C269.38 72.6056 269.952 72.4151 270.334 72.0339L270.524 72.6056C270.524 72.7962 270.334 73.1773 269.952 73.3679C269.571 73.5584 269.19 73.749 268.809 73.749C268.427 73.749 268.046 73.5584 267.855 73.1773C267.665 72.7962 267.474 72.4151 267.474 72.0339C267.474 71.0811 267.855 70.3188 268.427 69.5566C268.999 68.7943 269.762 68.2226 270.524 67.6509L271.478 68.032C271.287 68.032 271.096 68.2226 270.906 68.4132C270.715 68.6037 270.524 68.7943 270.334 68.9849C270.143 69.1754 269.952 69.1754 269.952 69.366C269.952 69.366 269.762 69.5566 269.571 69.7471C269.38 69.9377 269.38 70.1283 269.19 70.1283C269.19 70.3188 268.999 70.3188 268.999 70.5094C268.809 70.7 268.809 70.8905 268.809 70.8905C268.618 71.2717 268.618 71.6528 268.618 72.0339C268.427 72.2245 268.618 72.6056 268.999 72.6056ZM267.665 51.2622L267.474 48.5943C267.474 47.0698 267.855 46.3075 268.809 46.3075C269.38 46.3075 270.143 46.4981 271.096 46.6886C272.049 46.8792 272.621 47.2603 272.621 47.6415C272.621 48.0226 272.24 48.4037 271.668 48.5943C270.715 48.2132 269.762 48.0226 269.19 48.0226C269.19 48.4037 269.19 48.9754 269.19 49.3566L268.999 53.9301C268.999 53.9301 268.999 54.1207 268.999 54.5018H270.143C271.096 54.5018 271.668 54.883 271.668 55.4547C271.668 55.6452 271.668 55.8358 271.478 56.0264C271.287 56.2169 271.096 56.2169 270.715 56.2169C270.334 56.2169 270.143 56.2169 269.762 56.2169H268.999C268.999 56.9792 268.999 57.932 268.999 58.6943L268.809 64.6018C268.809 65.7452 268.809 66.5075 268.809 66.5075H271.287C272.049 66.5075 272.431 66.6981 272.431 67.2698C272.431 67.6509 272.24 67.8415 272.049 68.032C271.859 68.2226 271.478 68.2226 271.096 68.2226H268.809C268.618 68.2226 268.237 68.032 268.046 67.8415C267.855 67.6509 267.665 67.4603 267.665 67.0792V66.3169L267.474 60.7905L267.665 51.2622Z" fill="black"/>
<path d="M55.8594 88.8037C56.05 88.4226 56.2407 87.4698 56.2407 85.9453V82.8962C56.2407 81.5622 56.2407 80.6094 56.05 79.8471C56.2407 79.0849 56.4313 78.7037 57.0032 78.7037H58.3377C59.6722 78.7037 60.4348 79.2754 61.0067 80.2283C61.388 81.1811 61.5786 82.1339 61.5786 83.4679C61.5786 84.9924 61.5787 85.9453 61.388 86.3264C61.388 86.7075 61.1974 87.0887 61.1974 87.2792C61.1974 87.6604 61.0067 87.8509 60.8161 88.0415C60.6254 88.2321 60.6254 88.4226 60.4348 88.6132C60.2442 88.8037 60.0535 88.9943 59.8629 89.1849C59.2909 89.566 58.719 89.7566 57.9564 90.1377V93.5679L58.1471 99.666C58.1471 99.8566 57.9564 100.238 57.7658 100.428C57.5752 100.619 57.3845 100.619 57.0032 100.619L56.2407 100.238C56.05 99.0943 55.8594 97.3792 55.8594 95.4736L56.05 89.7566C55.8594 89.3754 55.8594 88.9943 55.8594 88.8037ZM57.7658 82.3245V88.6132C59.1003 88.4226 59.6722 86.7075 59.6722 83.0868C59.6722 82.1339 59.4816 81.3717 59.2909 80.9905C59.1003 80.6094 58.5284 80.4188 57.9564 80.4188C57.9564 80.4188 57.7658 80.4188 57.5752 80.4188V82.3245H57.7658ZM63.4851 94.9019C63.2944 92.9962 63.1038 91.4717 63.1038 90.1377V88.9943C63.1038 88.8038 63.1038 88.8037 63.1038 88.8037V88.232C63.1038 84.8019 63.2944 82.5151 63.6757 80.9905C64.057 79.8471 64.2476 79.0849 64.6289 78.7037C65.0102 78.5132 65.2009 78.3226 65.5821 78.3226C68.0605 78.3226 69.7763 79.6566 70.7295 82.1339C71.3014 83.6585 71.4921 85.3736 71.4921 87.4698V87.6604V91.2811C71.4921 97.5698 69.9669 100.619 67.1073 100.619C65.9634 100.619 65.0102 100.047 64.4383 98.7132C64.057 97.3792 63.6757 96.0453 63.4851 94.9019ZM65.0102 85.5641L64.8196 88.6132C64.8196 91.6622 65.0102 94.5207 65.5821 96.8075C66.1541 98.1415 66.726 98.9037 67.1073 99.2849C67.4886 99.2849 67.8699 99.0943 68.2511 98.9038C68.6324 98.7132 68.8231 98.1415 69.0137 97.5698C69.2044 96.9981 69.395 96.4264 69.395 95.8547C69.5856 95.283 69.5856 94.7113 69.5856 93.949C69.7763 92.8056 69.7763 91.8528 69.7763 91.0905C69.7763 90.3283 69.7763 88.9943 69.5856 87.2792C69.395 85.5641 69.395 84.4207 69.395 83.4679V82.8962C69.395 82.1339 69.2043 81.3717 68.6324 80.8C68.0605 80.2283 67.4886 79.8471 66.726 79.8471C65.9634 79.8471 65.5821 80.2283 65.2009 81.1811C65.0102 81.9434 64.8196 82.7056 64.8196 83.849L65.0102 85.5641ZM73.5891 98.5226L74.9236 98.7132C75.3049 98.7132 75.6862 98.5226 76.0675 98.1415C76.4488 97.7604 76.6394 97.3792 76.83 96.8075C77.0207 95.8547 77.2113 94.9019 77.2113 94.1396C77.2113 93.3773 77.0207 92.6151 76.83 91.8528C76.6394 91.0905 76.2581 90.3283 75.8768 89.7566C75.4956 88.9943 75.1143 88.4226 74.733 87.6604C73.7798 85.9453 73.3985 84.4207 73.3985 82.8962C73.3985 81.9434 73.5891 80.9905 73.9704 80.2283C74.3517 78.7037 75.1143 78.1321 76.2581 78.1321C76.6394 78.1321 77.0207 78.3226 77.402 78.5132C77.7833 78.7038 77.9739 79.0849 77.9739 79.2754C77.9739 79.8471 77.7833 80.0377 77.2113 80.0377C77.0207 80.0377 76.83 80.0377 76.4488 79.8471C75.6862 79.8471 75.3049 80.6094 75.1143 82.1339C75.1143 82.5151 75.1143 82.8962 75.1143 83.2773C75.1143 83.6585 75.1143 84.2302 75.3049 84.9924C75.4956 85.5641 75.6862 86.1358 76.0675 86.7075C76.4488 87.2792 76.6394 87.8509 77.0207 88.4226C77.402 88.9943 77.5926 89.566 77.9739 90.1377C78.7365 91.4717 78.9271 92.9962 78.9271 94.7113C78.9271 96.0453 78.5458 97.1887 77.9739 98.5226C77.5926 99.0943 77.2113 99.666 76.6394 100.047C76.0675 100.428 75.4956 100.619 74.733 100.619C73.7798 100.428 73.3985 100.047 73.2078 99.2849L73.5891 98.5226ZM83.8838 99.666H81.9774C81.7868 99.666 81.5961 99.666 81.4055 99.8566C81.2148 100.047 81.0242 100.047 80.8335 100.047C80.6429 100.047 80.4523 100.047 80.2616 99.8566C80.071 99.666 80.071 99.4754 80.071 99.0943C80.071 97.1887 80.8335 93.7585 82.168 88.9943C83.6932 84.2302 84.4557 81.1811 84.837 80.0377L82.168 80.2283C81.9774 80.2283 81.7868 80.2283 81.5961 80.0377C81.4055 79.8471 81.4055 79.6566 81.4055 79.466C81.4055 78.8943 82.5493 78.5132 85.0277 78.5132C86.1715 78.5132 86.5528 78.8943 86.5528 79.466C86.5528 80.2283 86.3622 81.1811 85.7902 82.5151C85.409 83.849 85.0277 84.8019 85.0277 85.183C84.837 86.8981 84.2651 89.3754 83.3119 92.6151C82.3587 95.8547 81.9774 97.7604 81.9774 98.1415H82.5493H83.8838C84.837 98.1415 85.2183 98.3321 85.2183 98.9038C85.2183 99.0943 85.0277 99.2849 84.837 99.4755C84.4557 99.666 84.2651 99.666 83.8838 99.666ZM95.8943 85.5641V86.1358C95.8943 95.6641 94.5598 100.428 91.7002 100.428C90.5563 100.428 89.7937 100.047 89.2218 99.0943C88.6499 98.1415 88.2686 97.3792 88.2686 96.4264C88.078 95.0924 88.078 93.3773 87.8873 91.6622C87.8873 89.9471 87.8873 87.2792 87.8873 83.849L87.6967 79.2754C87.8873 78.8943 88.078 78.5132 88.4592 78.5132C88.6499 78.5132 89.0312 78.7037 89.2218 79.0849C89.4125 79.466 89.6031 79.8471 89.6031 80.4188V89.1849C89.6031 89.9471 89.6031 91.0905 89.7937 92.6151C89.9844 94.1396 89.9844 95.283 89.9844 96.0453C89.9844 97.5698 90.7469 98.332 92.0814 98.332C93.6066 98.332 94.3692 92.6151 94.3692 80.9905V79.0849V78.5132C94.3692 78.3226 94.3692 78.1321 94.5598 77.9415C94.7504 77.7509 94.9411 77.7509 95.1317 77.7509C95.513 77.7509 95.7037 77.7509 95.7037 77.9415C95.8943 77.9415 95.8943 78.132 96.0849 78.3226C96.0849 78.5132 96.2756 78.8943 96.2756 79.2754L96.0849 82.5151L95.8943 85.5641ZM105.236 80.8C103.711 83.4679 102.757 84.9924 102.567 85.3736V87.2792C102.567 88.232 102.948 89.9471 103.711 92.4245C104.473 94.9019 105.045 96.617 105.617 97.3792C105.617 97.3792 105.808 97.7604 105.998 97.9509C106.189 98.3321 106.38 98.5226 106.38 98.7132C106.57 98.9037 106.57 99.0943 106.57 99.4755C106.57 99.666 106.57 99.8566 106.38 100.047C106.189 100.238 105.998 100.238 105.808 100.238C105.236 100.238 104.854 99.666 104.283 98.7132C103.711 97.5698 103.329 96.4264 102.757 94.7113C101.995 92.0434 101.423 89.7566 101.232 87.8509C100.47 89.3754 100.088 91.2811 100.088 93.5679V99.4755C100.088 100.047 99.8978 100.238 99.5165 100.238C99.1352 100.238 98.9446 100.238 98.7539 100.047C98.5633 99.8566 98.3726 99.666 98.3726 99.2849V89.566C98.3726 88.4226 98.5633 86.7075 98.7539 84.2302C98.9446 81.7528 99.1352 80.2283 99.1352 79.0849C99.3259 78.7037 99.5165 78.5132 99.8978 78.5132C100.279 78.5132 100.47 78.7038 100.66 78.8943C100.851 79.0849 101.042 79.2754 101.042 79.6566C100.851 80.2283 100.66 82.1339 100.66 85.5641V86.7075C100.66 86.7075 101.042 85.9453 101.804 84.4207C103.711 80.8 104.854 78.8943 105.236 78.8943C105.617 78.8943 105.808 78.8943 106.189 79.0849C106.38 79.2754 106.57 79.466 106.57 79.6566C105.998 79.6566 105.808 80.0377 105.236 80.8ZM115.149 93.3773L115.53 95.283C115.53 95.4736 115.721 96.2358 115.912 97.1887C116.102 98.1415 116.293 98.9037 116.293 99.2849C116.293 99.666 116.102 100.047 115.721 100.238C115.34 100.238 114.959 100.238 114.577 100.047C114.196 99.8566 114.196 99.666 114.196 99.2849C114.196 98.332 114.005 96.9981 113.815 95.283L110.574 94.9019C110.383 95.6641 110.192 96.4264 110.192 97.1887C110.002 97.9509 110.002 98.7132 109.811 99.0943C109.621 99.8566 109.239 100.238 108.667 100.238C108.477 100.238 108.095 100.238 107.905 100.047C107.714 99.8566 107.523 99.666 107.523 99.4755V99.2849C109.049 93.7585 110.002 88.2321 110.764 82.8962C110.764 82.7056 110.764 82.3245 110.764 81.5622C110.955 80.0377 111.146 78.8943 111.336 78.5132H112.48C112.861 78.5132 113.052 78.5132 113.243 78.7037C113.433 78.8943 113.624 79.0849 113.624 79.2754C113.624 80.9905 113.815 83.2773 114.196 86.517C114.959 89.566 115.149 91.8528 115.149 93.3773ZM110.574 93.5679C110.955 93.7585 111.908 93.949 113.433 94.1396C113.433 93.7585 113.433 93.1868 113.433 92.4245C113.433 91.6622 113.433 90.7094 113.243 89.566C113.243 88.4226 113.052 87.0887 112.861 85.5641C112.671 83.849 112.48 82.7056 112.48 81.9434C111.527 87.4698 110.764 91.2811 110.574 93.5679ZM119.534 99.666C118.009 98.7132 117.437 96.2358 117.437 92.0434V90.1377V89.3755C117.437 86.1358 117.628 84.0396 117.818 82.7056C118.199 81.1811 118.771 80.0377 119.343 79.466C120.297 78.7038 121.44 78.3226 122.775 78.3226C123.156 78.3226 123.347 78.3226 123.537 78.5132C123.728 78.7038 123.728 78.8943 123.728 79.0849C123.728 79.2754 123.728 79.466 123.537 79.6566C123.347 79.8471 123.156 79.8471 122.966 79.8471H121.44C121.059 79.8471 120.678 80.0377 120.297 80.6094C119.915 81.1811 119.725 81.9434 119.534 82.7056C119.343 84.2302 119.153 85.5641 119.153 86.517V86.7075L118.962 92.9962C118.962 94.3302 118.962 95.283 119.153 95.6641C119.343 96.0453 119.534 96.617 119.534 96.8075C119.725 97.1887 119.915 97.3792 120.106 97.5698C120.678 97.9509 121.25 98.332 122.012 98.332C122.203 98.332 122.584 98.3321 122.775 98.1415C122.966 98.1415 123.347 98.1415 123.537 98.332C123.919 98.7132 123.919 98.9037 123.919 99.0943C123.919 99.8566 123.347 100.428 122.203 100.428C121.631 100.428 121.25 100.428 120.678 100.238C120.106 100.047 119.725 99.8566 119.534 99.666ZM119.534 76.417C119.343 76.417 119.343 76.2264 119.343 76.0358C119.343 75.8453 119.534 75.6547 119.725 75.4641C120.106 75.2736 120.678 74.5113 121.822 73.749C122.966 72.7962 123.537 72.2245 123.728 72.0339C123.919 72.0339 123.919 72.0339 124.109 72.0339C124.3 72.0339 124.491 72.2245 124.681 72.4151C124.872 72.6056 125.063 72.9868 125.063 73.1773C125.063 73.3679 125.063 73.5585 124.872 73.749C124.109 74.3207 122.394 75.2736 120.106 76.417C120.106 76.417 119.915 76.417 119.725 76.417C119.915 76.6075 119.725 76.417 119.534 76.417ZM129.066 94.9019C128.875 92.9962 128.685 91.4717 128.685 90.1377V88.9943C128.685 88.8038 128.685 88.8037 128.685 88.8037V88.232C128.685 84.8019 128.875 82.5151 129.257 80.9905C129.638 79.8471 129.829 79.0849 130.21 78.7037C130.591 78.5132 130.782 78.3226 131.163 78.3226C133.642 78.3226 135.357 79.6566 136.311 82.1339C136.882 83.6585 137.073 85.3736 137.073 87.4698V87.6604V91.2811C137.073 97.5698 135.548 100.619 132.688 100.619C131.544 100.619 130.591 100.047 130.019 98.7132C129.638 97.3792 129.257 96.0453 129.066 94.9019ZM130.591 85.5641L130.401 88.6132C130.401 91.6622 130.591 94.5207 131.163 96.8075C131.735 98.1415 132.307 98.9037 132.688 99.2849C133.07 99.2849 133.451 99.0943 133.832 98.9038C134.213 98.7132 134.404 98.1415 134.595 97.5698C134.785 96.9981 134.976 96.4264 134.976 95.8547C135.167 95.283 135.167 94.7113 135.167 93.949C135.357 92.8056 135.357 91.8528 135.357 91.0905C135.357 90.3283 135.357 88.9943 135.167 87.2792C134.976 85.5641 134.976 84.4207 134.976 83.4679V82.8962C134.976 82.1339 134.785 81.3717 134.213 80.8C133.642 80.2283 133.07 79.8471 132.307 79.8471C131.544 79.8471 131.163 80.2283 130.782 81.1811C130.591 81.9434 130.401 82.7056 130.401 83.849L130.591 85.5641ZM140.123 100.047C139.551 100.047 139.361 98.7132 139.361 95.8547V85.5641C139.361 84.8019 139.361 83.849 139.17 82.3245C138.979 80.9905 138.979 80.0377 138.979 79.6566C138.979 79.2754 139.17 78.8943 139.361 78.7037C139.551 78.5132 139.933 78.3226 140.123 78.3226C142.411 78.3226 144.127 79.6566 145.461 82.3245C146.224 83.849 146.605 85.3736 146.605 87.0887V88.8037V90.5188C146.605 92.6151 146.415 94.1396 146.224 94.9019C146.033 95.6641 145.843 96.2358 145.652 96.8075C145.461 97.3792 145.271 97.7604 144.889 98.1415C144.127 99.0943 143.364 99.666 142.22 100.238H140.123V100.047ZM141.458 97.7604V98.5226C143.364 98.5226 144.508 96.617 144.889 92.8056C144.889 91.8528 145.08 91.0905 145.08 90.3283C145.08 83.849 143.746 80.4188 141.267 80.0377C141.077 80.9905 141.077 82.1339 141.077 83.6585C141.077 85.183 141.077 87.4698 141.267 90.7094C141.458 93.7585 141.458 96.0453 141.458 97.7604ZM148.512 88.8037C148.702 88.4226 148.893 87.4698 148.893 85.9453V82.8962C148.893 81.5622 148.893 80.6094 148.702 79.8471C148.893 79.0849 149.084 78.7037 149.655 78.7037H150.99C152.324 78.7037 153.087 79.2754 153.659 80.2283C154.04 81.1811 154.231 82.1339 154.231 83.4679C154.231 84.9924 154.231 85.9453 154.04 86.3264C154.04 86.7075 153.85 87.0887 153.85 87.2792C153.85 87.6604 153.659 87.8509 153.468 88.0415C153.278 88.2321 153.278 88.4226 153.087 88.6132C152.896 88.8037 152.706 88.9943 152.515 89.1849C151.943 89.566 151.371 89.7566 150.609 90.1377V93.5679L150.799 99.666C150.799 99.8566 150.609 100.238 150.418 100.428C150.227 100.619 150.037 100.619 149.655 100.619L148.893 100.238C148.702 98.9037 148.702 97.3792 148.702 95.4736L148.893 89.7566C148.702 89.3754 148.512 88.9943 148.512 88.8037ZM150.418 82.3245V88.6132C151.753 88.4226 152.324 86.7075 152.324 83.0868C152.324 82.1339 152.134 81.3717 151.943 80.9905C151.753 80.6094 151.181 80.4188 150.609 80.4188C150.609 80.4188 150.418 80.4188 150.227 80.4188V82.3245H150.418ZM156.137 94.9019C155.947 92.9962 155.756 91.4717 155.756 90.1377V88.9943C155.756 88.8038 155.756 88.8037 155.756 88.8037V88.232C155.756 84.8019 155.947 82.5151 156.328 80.9905C156.709 79.8471 156.9 79.0849 157.281 78.7037C157.662 78.5132 157.853 78.3226 158.234 78.3226C160.713 78.3226 162.429 79.6566 163.382 82.1339C163.954 83.6585 164.144 85.3736 164.144 87.4698V87.6604V91.2811C164.144 97.5698 162.619 100.619 159.76 100.619C158.616 100.619 157.662 100.047 157.091 98.7132C156.709 97.3792 156.328 96.0453 156.137 94.9019ZM157.853 85.5641L157.662 88.6132C157.662 91.6622 157.853 94.5207 158.425 96.8075C158.997 98.1415 159.569 98.9037 159.95 99.2849C160.331 99.2849 160.713 99.0943 161.094 98.9038C161.475 98.7132 161.666 98.1415 161.857 97.5698C162.047 96.9981 162.238 96.4264 162.238 95.8547C162.429 95.283 162.429 94.7113 162.429 93.949C162.619 92.8056 162.619 91.8528 162.619 91.0905C162.619 90.3283 162.619 88.9943 162.429 87.2792C162.238 85.5641 162.238 84.4207 162.238 83.4679V82.8962C162.238 82.1339 162.047 81.3717 161.475 80.8C160.903 80.2283 160.331 79.8471 159.569 79.8471C158.806 79.8471 158.425 80.2283 158.044 81.1811C157.853 81.9434 157.662 82.7056 157.662 83.849L157.853 85.5641ZM174.82 79.466C174.82 79.2754 174.63 79.0849 174.63 78.8943C174.63 78.3226 175.011 78.1321 175.583 78.1321C176.155 78.1321 176.536 78.3226 176.536 78.8943C176.536 79.6566 176.536 80.0377 176.536 80.2283V80.4188C176.155 81.3717 176.155 82.3245 176.155 83.4679V85.7547C176.155 87.0887 175.964 89.1849 175.583 91.8528C175.202 94.5207 175.011 96.617 175.011 97.7604C175.011 100.047 174.63 101 173.676 101C173.104 101 172.723 100.619 172.723 99.666C172.723 98.7132 172.723 97.7604 172.723 96.8075C172.723 95.8547 172.533 94.9019 172.342 93.7585C172.151 92.6151 172.151 91.6622 171.961 90.9C171.77 90.1377 171.77 89.1849 171.579 87.6604C171.389 86.3264 171.198 85.3736 171.198 84.8019C171.198 85.5641 171.007 86.3264 171.007 86.8981C171.007 87.4698 171.007 88.9943 170.817 91.0905C170.626 93.1868 170.436 95.0924 170.054 97.1887C169.673 99.2849 169.101 100.238 168.72 100.238C167.957 100.238 167.195 97.9509 166.813 93.3773C166.623 91.4717 166.432 89.566 166.241 87.4698C165.86 82.5151 165.479 79.6566 165.288 78.8943C165.479 78.5132 165.86 78.3226 166.241 78.3226C167.004 78.3226 167.195 79.0849 167.195 80.6094C167.195 82.1339 167.385 84.6113 167.957 87.8509C168.338 91.0905 168.72 93.3773 168.72 94.9019C169.673 88.6132 170.054 83.849 170.054 80.6094L171.007 80.2283C171.198 80.2283 171.579 80.2283 171.77 80.4188C171.961 80.6094 171.961 80.8 171.961 80.9905V81.9434C172.533 84.0396 173.104 87.0887 173.486 90.9C173.676 92.6151 173.867 94.1396 173.867 95.0924C174.248 92.0434 174.439 88.6132 174.439 84.4207C174.439 83.849 174.439 83.0868 174.63 81.9434C174.82 80.8 174.82 80.0377 174.82 79.466ZM181.874 89.1849L182.065 96.0453V96.9981V97.9509H182.446H183.399C184.352 97.9509 184.734 98.1415 184.734 98.7132C184.734 98.9037 184.543 99.2849 184.352 99.4755C184.162 99.666 183.971 99.8566 183.59 99.8566H182.255C181.302 99.8566 180.73 99.8566 180.349 99.8566C180.158 99.8566 179.968 99.8566 179.968 99.8566C179.205 99.8566 178.824 99.666 178.824 99.0943C178.824 98.9037 178.824 98.7132 179.014 98.5226C179.205 98.3321 179.205 98.332 179.396 98.332H180.349V97.9509L180.158 91.0905L180.349 83.849C180.349 82.7056 180.349 81.3717 180.158 80.4188H179.586H178.824C178.442 80.4188 178.252 80.4188 178.061 80.2283C177.871 80.0377 177.871 79.8471 177.871 79.466C177.871 78.8943 178.442 78.7037 179.396 78.7037H183.209C184.162 78.7037 184.543 78.8943 184.543 79.466C184.543 79.6566 184.543 79.8471 184.352 80.0377C184.162 80.2283 183.971 80.2283 183.78 80.2283H182.065C182.065 81.1811 182.255 82.1339 182.255 83.2773L181.874 89.1849ZM186.449 83.6585L186.259 80.9905C186.259 79.466 186.64 78.7037 187.593 78.7037C188.165 78.7037 188.928 78.8943 189.881 79.0849C190.834 79.2754 191.406 79.6566 191.406 80.0377C191.406 80.4188 191.025 80.8 190.453 80.9905C189.5 80.6094 188.547 80.4188 187.975 80.4188C187.975 80.8 187.975 81.3717 187.975 81.7528L187.784 86.3264C187.784 86.3264 187.784 86.517 187.784 86.8981H188.928C189.881 86.8981 190.453 87.2792 190.453 87.8509C190.453 88.0415 190.453 88.2321 190.262 88.4226C190.072 88.6132 189.881 88.6132 189.5 88.6132C189.118 88.6132 188.928 88.6132 188.547 88.6132H187.784C187.784 89.3754 187.784 90.3283 187.784 91.0905L187.593 96.9981C187.593 98.1415 187.593 98.9038 187.593 98.9038H190.072C190.834 98.9038 191.216 99.0943 191.216 99.666C191.216 100.047 191.025 100.238 190.834 100.428C190.644 100.619 190.262 100.619 189.881 100.619H187.212C187.021 100.619 186.64 100.428 186.449 100.238C186.259 100.047 186.068 99.8566 186.068 99.4755V98.7132L185.878 93.1868L186.449 83.6585ZM194.075 100.047C193.503 100.047 193.313 98.7132 193.313 95.8547V85.5641C193.313 84.8019 193.313 83.849 193.122 82.3245C192.931 80.9905 192.931 80.0377 192.931 79.6566C192.931 79.2754 193.122 78.8943 193.313 78.7037C193.503 78.5132 193.885 78.3226 194.075 78.3226C196.363 78.3226 198.079 79.6566 199.413 82.3245C200.176 83.849 200.557 85.3736 200.557 87.0887V88.8037V90.5188C200.557 92.6151 200.366 94.1396 200.176 94.9019C199.985 95.6641 199.794 96.2358 199.604 96.8075C199.413 97.3792 199.223 97.7604 198.841 98.1415C198.079 99.0943 197.316 99.666 196.172 100.238H194.075V100.047ZM195.41 97.7604V98.5226C197.316 98.5226 198.46 96.617 198.841 92.8056C198.841 91.8528 199.032 91.0905 199.032 90.3283C199.032 83.849 197.697 80.4188 195.219 80.0377C195.028 80.8 195.028 82.1339 195.028 83.4679C195.028 84.9924 195.028 87.2792 195.219 90.5188C195.41 93.7585 195.41 96.0453 195.41 97.7604ZM206.086 99.666H204.179C203.989 99.666 203.798 99.666 203.607 99.8566C203.417 100.047 203.226 100.047 203.035 100.047C202.845 100.047 202.654 100.047 202.463 99.8566C202.273 99.666 202.273 99.4754 202.273 99.0943C202.273 97.1887 203.035 93.7585 204.37 88.9943C205.895 84.2302 206.658 81.1811 207.039 80.0377L204.37 80.2283C204.179 80.2283 203.989 80.2283 203.798 80.0377C203.607 79.8471 203.607 79.6566 203.607 79.466C203.607 78.8943 204.751 78.5132 207.229 78.5132C208.373 78.5132 208.755 78.8943 208.755 79.466C208.755 80.2283 208.564 81.1811 207.992 82.5151C207.611 83.849 207.229 84.8019 207.229 85.183C207.039 86.8981 206.467 89.3754 205.514 92.6151C204.561 95.8547 204.179 97.7604 204.179 98.1415H204.751H206.086C207.039 98.1415 207.42 98.3321 207.42 98.9038C207.42 99.0943 207.23 99.2849 207.039 99.4755C206.658 99.666 206.467 99.666 206.086 99.666ZM213.711 89.1849L213.902 96.0453V96.9981V97.9509H214.283H215.236C216.19 97.9509 216.571 98.1415 216.571 98.7132C216.571 98.9037 216.38 99.2849 216.19 99.4755C215.999 99.666 215.808 99.8566 215.427 99.8566H214.093C213.139 99.8566 212.567 99.8566 212.186 99.8566C211.996 99.8566 211.805 99.8566 211.805 99.8566C211.042 99.8566 210.661 99.666 210.661 99.0943C210.661 98.9037 210.661 98.7132 210.852 98.5226C211.042 98.3321 211.042 98.332 211.233 98.332H212.186V97.9509L211.996 91.0905L212.186 83.849C212.186 82.7056 212.186 81.3717 211.996 80.4188H211.424H210.661C210.28 80.4188 210.089 80.4188 209.898 80.2283C209.708 80.0377 209.708 79.8471 209.708 79.466C209.708 78.8943 210.28 78.7037 211.233 78.7037H215.046C215.999 78.7037 216.38 78.8943 216.38 79.466C216.38 79.6566 216.38 79.8471 216.19 80.0377C215.999 80.2283 215.808 80.2283 215.618 80.2283H213.902C213.902 81.1811 214.093 82.1339 214.093 83.2773L213.711 89.1849ZM220.384 100.428C220.003 100.428 219.812 100.238 219.621 100.047C219.431 99.8566 219.24 99.4754 219.24 99.2849C219.24 98.9037 219.431 98.7132 219.621 98.5226C219.812 98.3321 220.193 98.1415 220.384 98.1415C220.574 98.1415 220.956 98.3321 221.146 98.5226C221.337 98.7132 221.528 99.0943 221.528 99.4755C221.528 99.8566 221.337 100.047 221.146 100.238C220.956 100.428 220.765 100.428 220.384 100.428Z" fill="black"/>
<path d="M12.3881 40.4C14.6758 39.4471 17.3448 39.2566 19.8231 39.8283C22.1108 40.9717 24.0172 42.8773 25.1611 44.9735C26.305 47.0698 27.2582 49.166 27.8301 51.4528C27.0675 49.7377 26.1143 48.2132 24.9705 46.8792C21.9202 43.0679 17.3448 40.4 12.3881 40.4ZM5.52492 42.6868C4.76235 43.0679 5.33428 43.0679 4.19043 42.6868C3.23721 42.3056 3.23721 42.1151 3.04657 41.1622C2.47464 37.732 2.47464 34.1113 2.284 30.4905C2.284 26.1075 1.90272 21.7245 1.90272 17.3415C1.90272 15.2452 1.71207 13.149 1.71207 11.2434C1.71207 11.0528 1.71207 10.8622 1.71207 10.4811C1.90272 11.6245 2.284 12.5773 2.47464 13.5302C3.23721 16.1981 3.80914 18.866 4.38107 21.7245C5.33428 27.2509 5.52492 32.7773 5.14364 38.3037C5.14364 39.6377 5.90621 40.9717 7.24071 41.7339C6.66878 41.9245 6.09685 42.3056 5.52492 42.6868ZM20.967 16.0075C18.1073 16.3886 15.2477 16.3886 12.3881 16.3886C12.3881 15.2452 12.1974 13.9113 12.1974 12.7679C14.2945 12.9585 16.3915 13.149 18.6793 13.3396C22.3015 13.5302 25.9237 14.2924 29.5459 13.5302C29.7365 13.5302 29.9272 13.5302 29.9272 13.3396C29.9272 13.7207 29.9272 13.9113 29.9272 14.2924C26.8769 14.8641 24.0172 15.6264 20.967 16.0075ZM10.6723 91.4717C14.6758 93.7585 19.0605 93.7585 22.8734 92.2339C28.402 90.7094 33.5494 86.1358 36.5996 81.7528C41.5563 74.7019 40.9844 66.1264 39.4593 57.932C38.1248 50.3094 34.8839 42.4962 28.5927 37.732C27.4488 36.9698 26.305 36.2075 25.1611 35.6358C24.2079 34.8736 23.064 34.3018 21.9202 33.7302C19.4418 32.5868 16.7728 32.2056 14.1038 32.5868C13.7225 27.8226 13.1506 23.0585 12.7693 18.4849C15.8196 18.4849 18.8699 18.2943 21.7295 17.9132C24.7798 17.532 28.0207 16.7698 30.8804 15.6264C31.071 15.6264 31.2617 15.2452 31.2617 15.0547C31.2617 13.149 31.2617 11.4339 31.2617 9.52826C31.2617 9.14713 31.2617 8.766 31.2617 8.1943C33.1681 7.24147 33.1681 3.81128 30.6897 2.85845C25.733 0.571659 20.2044 -0.190605 14.6758 -3.86778e-05C12.0068 0.190527 9.14713 0.762225 6.47814 1.33392C3.99978 1.90562 1.90272 3.23958 1.33079 5.71694C1.33079 5.52638 1.33079 5.33581 1.33079 5.14524C1.14015 4.76411 0.56822 4.57355 0.377578 5.14524C-0.384992 8.57543 0.186935 12.5773 0.377578 16.0075C0.56822 19.6283 0.56822 23.249 0.758863 26.8698C0.949505 30.3 1.14015 33.7302 1.33079 37.1603C1.52143 39.2566 1.14015 42.6868 2.85593 44.2113C4.76235 45.9264 6.85942 43.6396 8.76585 42.8773C11.6255 41.7339 15.057 42.1151 17.9167 43.2585C23.636 45.9264 26.6862 52.2151 28.402 57.7415C28.9739 59.6471 29.3552 61.7434 29.7365 63.8396C29.7365 69.1754 28.9739 74.8924 26.305 79.6566C25.9237 80.2283 25.5424 80.8 25.1611 81.3717C24.5892 81.7528 24.2079 82.1339 23.4453 82.3245C23.064 82.5151 22.4921 82.7056 22.1108 82.7056C21.7295 82.8962 21.9202 82.7056 21.3482 82.8962C20.2044 82.8962 20.2044 82.8962 19.0605 82.7056C17.9167 82.5151 16.9635 81.9434 16.2009 80.9905C16.2009 80.9905 15.8196 80.4188 15.8196 80.2283C15.8196 80.2283 15.8196 80.2283 15.8196 80.0377C15.8196 79.6566 15.629 79.466 15.629 79.0849C15.4383 77.7509 15.2477 76.4169 14.8664 75.083C13.9132 72.6056 11.6255 70.8905 8.95649 70.8905C7.62199 70.8905 6.28749 71.6528 5.33428 72.7962C2.66529 74.1301 2.85593 79.2754 3.42786 81.7528C4.57171 86.1358 7.05006 89.3754 10.6723 91.4717Z" fill="black"/>
</g>
<defs>
<clipPath id="clip0_156_5051">
<rect width="273" height="101" fill="white"/>
</clipPath>
</defs>
</svg>
