<svg width="416" height="91" viewBox="0 0 416 91" fill="none" xmlns="http://www.w3.org/2000/svg">
<g clip-path="url(#clip0_0_4360)">
<path d="M39.5692 58.6056C39.4355 59.2777 38.9008 61.966 37.8314 61.966C37.163 61.966 36.6283 58.74 36.6283 58.0679C36.361 54.8419 37.4304 51.7504 38.4998 48.7932C38.7671 48.1211 39.0345 47.3146 39.3018 46.6425C39.9702 50.675 40.3712 54.7075 39.5692 58.6056ZM43.7131 27.2865C42.7774 29.3028 41.708 31.319 40.7723 33.3353C40.6386 32.1255 40.5049 30.9158 40.5049 29.5716C41.307 27.1521 41.5743 24.4638 41.4406 21.9099C41.307 19.8936 38.2324 19.8936 37.6977 21.641C37.0293 24.0605 36.762 26.3456 36.762 28.7651C36.6283 29.5716 36.4946 30.2437 36.0936 30.9158C35.8263 31.4535 35.6926 31.8567 35.4252 32.3944C35.2915 32.5288 35.1579 32.7976 35.1579 32.932L35.0242 33.0665C34.8905 32.932 34.8905 32.6632 34.7568 32.5288C34.6232 32.1255 34.3558 31.8567 34.2221 31.4535C33.8211 30.5125 33.5538 29.5716 33.2864 28.6307C33.0191 27.421 32.8854 26.3456 32.8854 25.1359C32.8854 24.195 33.0191 23.254 33.0191 22.4475C33.0191 20.2969 29.4098 20.5657 29.2761 22.582C29.2761 22.8508 29.2761 23.1196 29.2761 23.3885C29.0088 27.1521 27.8057 37.3678 23.2607 35.2171C22.1913 34.6795 21.1219 33.873 20.0525 33.3353C22.0576 30.3781 23.6617 27.1521 25.1322 23.9261C25.8005 22.3131 23.5281 21.641 22.4586 21.9099C19.3841 22.582 16.3095 22.3131 13.3687 21.3722C12.5666 21.1034 11.2299 21.641 11.0962 22.582C10.6952 24.7326 10.1604 26.8833 9.49207 29.034C8.95736 30.7814 8.42266 33.0665 7.35325 34.6795C6.28384 36.158 5.48178 33.873 5.21443 32.7976C4.54605 30.647 4.2787 28.4963 4.14502 26.2112C3.61032 21.7755 4.01135 17.4741 5.21443 13.1728C6.15016 10.2156 8.42266 4.70456 12.2993 6.98964C13.1013 7.39289 14.7054 6.58639 13.9034 5.64547C12.5666 3.89806 10.2941 3.36039 8.1553 4.03248C5.74913 4.70456 4.01135 6.85522 2.94194 9.14031C0.268415 14.7858 -0.399965 21.641 0.268415 27.6898C0.669443 31.7223 2.0062 40.1905 7.88795 38.4431C10.2941 37.6366 11.2299 35.0827 12.0319 32.7976C12.9676 30.2437 13.636 27.6898 14.1707 25.0015C16.0422 25.4047 17.78 25.5391 19.6514 25.5391C18.4484 28.093 16.9779 30.3781 15.5075 32.6632C13.9034 33.2009 12.9676 34.8139 12.9676 36.8301C12.834 38.9808 15.9085 38.7119 16.7106 37.5022C17.1116 37.0989 17.379 36.5613 17.78 36.158C18.0473 36.2924 18.4484 36.5613 18.7157 36.6957C19.6514 37.2334 20.5872 38.0399 21.6566 38.4431C23.7954 39.2496 25.9342 39.1152 27.8057 37.6366C29.1424 36.5613 30.2119 35.2171 30.8802 33.6041C31.6823 35.486 33.0191 37.0989 35.0242 36.8301C35.9599 36.6957 36.6283 36.2925 37.2967 35.7548C37.4304 37.099 37.6977 38.3087 37.9651 39.6529C37.163 41.5347 36.361 43.4165 35.5589 45.4328C33.4201 50.675 30.8802 57.2614 33.6874 62.7725C34.7568 64.9232 37.163 66.1329 39.4355 65.0576C41.5743 64.1167 42.7774 61.6972 43.1784 59.4121C44.2478 53.6322 43.1784 47.8523 42.109 42.2068C41.9754 41.6691 41.8417 40.997 41.708 40.4594C43.4458 36.5613 45.1836 32.7976 47.055 29.034C48.5255 26.6145 44.7826 25.2703 43.7131 27.2865Z" fill="black"/>
<path d="M83.9469 18.0119C83.9469 15.8612 80.8724 16.13 80.204 17.743C80.0703 17.8774 80.0703 18.0119 79.9366 18.2807C79.8029 18.8184 79.803 19.0872 80.0703 19.356C79.803 23.7918 79.2682 27.9587 78.3325 32.1256C78.0652 30.7814 77.7978 29.5717 77.5305 28.2275C77.1294 25.6736 76.9957 22.9853 76.9957 20.4314C76.9957 18.2807 73.2528 18.4151 73.2528 20.5658C73.1191 23.2541 72.8518 25.808 72.3171 28.4963C72.0497 29.5717 71.7824 30.7814 71.515 31.8568C71.2477 30.2438 70.9803 28.7652 70.713 27.1522C70.5793 25.808 70.4456 24.4639 70.3119 23.1197C70.1783 21.7755 70.3119 20.0281 69.6436 18.8184C69.3762 18.1463 68.0395 17.743 67.6384 18.5495C66.3017 20.969 66.8364 24.8671 67.1037 27.5554C67.5048 30.7814 68.0395 33.873 68.9752 36.9646C69.2425 37.9055 70.4456 38.1743 71.2477 38.0399C73.1191 37.5023 74.0549 35.8893 74.5896 34.1418C75.1243 36.1581 76.06 38.1743 78.1988 38.4432C79.1346 38.5776 80.204 38.1743 80.4713 37.2334C82.7438 31.1847 84.2143 24.4638 83.9469 18.0119Z" fill="black"/>
<path d="M108.813 18.9527C111.086 19.356 111.086 21.9099 109.749 23.2541C108.145 24.8671 105.872 24.195 104.001 23.2541C104.669 21.2378 106.541 18.6839 108.813 18.9527ZM127.662 23.5229C126.057 21.7755 124.052 20.4313 123.384 18.0118C122.983 16.2644 119.775 16.5332 119.374 18.1462C118.438 23.2541 116.433 27.9586 113.358 31.9911C112.021 33.7386 110.417 36.4269 107.877 35.6204C105.605 34.9483 104.268 32.26 103.733 29.9749C103.466 28.8996 103.332 27.6898 103.332 26.4801C104.803 27.1522 106.407 27.5554 108.145 27.421C110.818 27.1522 113.225 25.5392 114.294 23.1197C115.363 20.7002 114.561 18.0118 112.422 16.5332C110.016 14.9202 106.942 15.0547 104.536 16.5332C102.397 17.8774 101.06 19.7592 100.258 21.9099C99.8569 22.0443 99.4559 22.4476 99.3222 22.9852C98.1191 25.808 97.0497 28.6307 95.8466 31.4535C95.4456 32.5288 94.1088 36.1581 92.9057 33.873C91.97 31.8567 92.371 29.1684 92.5047 27.1522C92.6384 23.9262 93.0394 20.8346 93.5741 17.743C93.8415 15.7267 90.4996 15.1891 90.0985 17.0709C88.8955 22.7164 86.3556 27.2866 83.4147 32.1256C82.6127 33.4697 84.7515 34.4106 85.6872 33.4697C86.8903 32.26 87.9597 30.9158 88.8955 29.5716V29.7061C88.7618 32.3944 89.0291 35.7548 91.4353 37.2334C93.9751 38.8464 96.7823 37.2334 98.2528 34.9483C98.9212 33.7386 99.4559 32.3944 99.9906 31.1846C100.124 31.4535 100.124 31.8567 100.258 32.1256C101.996 37.6366 108.278 42.0724 113.492 37.9055C116.165 35.7548 118.171 32.3944 119.775 29.4372C120.71 27.5554 121.646 25.5392 122.314 23.5229C123.25 24.4638 124.186 25.4047 124.988 26.3457C126.191 27.9587 126.325 29.8405 125.79 31.7223C125.523 32.7976 125.255 33.7386 124.854 34.6795C124.721 34.9483 124.453 35.7548 124.186 35.8892C124.052 35.8892 124.052 35.8892 124.052 36.0236C122.716 33.873 118.839 35.8892 120.309 38.1743C121.78 40.4594 125.122 40.4594 127.127 38.8464C129.266 37.099 130.335 33.3353 130.602 30.647C130.469 27.9586 129.533 25.5392 127.662 23.5229Z" fill="black"/>
<path d="M145.976 28.7651C145.04 29.9749 144.506 31.4534 144.105 32.932C143.971 33.6041 143.704 35.2171 142.901 35.4859C142.901 35.4859 142.768 35.4859 142.634 35.3515C142.233 35.2171 141.966 34.8139 141.698 34.545C141.03 33.8729 140.495 33.2009 139.693 32.6632C138.891 31.9911 138.089 31.4534 137.153 31.0502C139.426 27.6898 141.698 24.3294 143.971 20.969C144.773 19.8936 143.704 18.5495 142.634 18.415C140.495 18.0118 138.356 17.6085 136.084 17.2053C134.346 16.9365 132.475 16.3988 130.871 17.0709C128.197 18.1462 128.598 22.1787 131.673 22.0443C133.009 22.0443 133.277 20.8345 132.742 20.1625C133.811 20.5657 135.416 20.7001 136.485 20.969C137.287 21.1034 138.089 21.2378 138.891 21.3722C136.218 25.1359 133.678 29.034 131.138 32.932C130.336 33.7385 129.801 34.8139 129.266 35.8892C128.063 38.3087 131.806 39.5184 133.009 37.6366C133.544 36.6957 134.213 35.7548 134.747 34.8139C134.881 34.6794 135.015 34.6794 135.148 34.6794C135.817 34.545 136.351 35.2171 136.752 35.6204C138.223 36.9645 139.426 38.7119 141.431 39.2496C146.912 40.8626 149.719 33.6041 148.65 29.1684C148.382 27.8242 146.644 28.093 145.976 28.7651Z" fill="black"/>
<path d="M90.498 4.83903C91.8348 5.91436 93.8399 5.77995 94.9093 4.5702C95.9787 3.49486 96.1124 1.61303 94.9093 0.672117C94.1073 3.43015e-05 92.9042 -0.134382 91.9684 0.134451C91.3001 3.42815e-05 90.498 0.268867 90.097 0.672117C89.5623 1.3442 89.2949 2.1507 89.4286 3.09161C89.5623 3.89811 89.9633 4.43578 90.498 4.83903Z" fill="black"/>
<path d="M155.734 35.2172C155.601 33.3353 152.392 33.4698 152.392 35.3516C152.392 36.9646 152.125 38.4432 151.724 39.9218C151.323 41.2659 150.521 42.6101 150.253 44.0887C149.852 45.8361 152.392 46.777 153.462 45.5673C155.601 42.7445 156.002 38.5776 155.734 35.2172Z" fill="black"/>
<path d="M189.421 31.5879C190.223 31.0502 193.164 30.1093 192.495 32.1255C192.094 33.2009 190.223 33.3353 189.287 33.3353C188.752 33.3353 188.218 33.2009 187.683 33.0665C188.084 32.5288 188.752 31.9911 189.421 31.5879ZM188.351 34.8139C188.886 34.8139 189.421 34.9483 189.956 34.8139C191.025 34.8139 191.961 34.545 192.896 34.0074C194.367 33.2009 195.035 31.319 193.698 30.1093C192.228 28.6307 189.956 29.1684 188.218 30.1093C185.812 31.4535 183.94 33.873 183.673 36.5613C183.539 36.9645 183.405 37.3678 183.138 37.9055C182.737 38.8464 182.202 39.7873 181.4 40.4594C180.331 41.5347 179.395 41.6691 178.058 40.997C177.123 40.4594 176.053 39.9217 175.118 39.5184C176.855 37.2334 178.727 34.9483 180.465 32.7976C181.133 31.8567 179.662 31.4535 178.994 31.7223C177.791 32.26 176.855 31.0502 175.786 30.7814C174.984 30.5125 174.182 30.5125 173.38 31.0502C172.31 31.8567 172.444 33.2009 173.647 33.6041C174.048 33.7385 174.449 33.3353 174.182 33.0665C173.781 32.26 174.85 32.3944 175.251 32.5288C175.786 32.7976 176.321 33.2009 176.855 33.3353C176.989 33.3353 177.123 33.4697 177.256 33.4697C175.652 35.3515 174.048 37.3678 172.444 39.2496C172.31 39.2496 172.043 39.384 171.909 39.384C170.305 39.9217 169.102 41.5347 169.77 43.1477C170.171 44.0886 171.375 43.9542 171.909 43.2821C172.444 42.61 172.979 41.9379 173.513 41.2659C174.182 41.4003 174.716 41.8035 175.251 42.0724C176.321 42.7444 177.256 43.4165 178.459 43.5509C180.598 43.9542 182.47 42.7444 183.673 40.997C183.806 40.7282 184.074 40.4594 184.207 40.0561C184.207 40.0561 184.207 40.1905 184.341 40.1905C185.544 41.9379 187.549 42.8789 189.688 42.4756C191.693 41.9379 193.698 40.1905 193.297 38.0399C193.03 36.8301 191.159 36.8301 191.025 38.1743C190.891 40.3249 188.351 41.5347 186.747 39.7873C185.411 38.3087 185.411 36.2925 186.346 34.545C187.148 34.4106 187.95 34.8139 188.351 34.8139Z" fill="black"/>
<path d="M176.184 24.4638C176.318 25.0015 176.853 25.5392 177.388 25.5392C177.789 25.5392 178.323 25.5392 178.591 25.1359C178.858 24.8671 178.858 24.3294 178.591 24.0606C178.457 23.9262 178.323 23.7918 178.056 23.6573C178.056 23.6573 177.922 23.6573 177.922 23.5229V23.3885C177.922 22.9853 177.521 22.7164 177.12 22.7164C176.719 22.7164 176.318 22.8508 176.184 23.2541C176.051 23.3885 176.051 23.6573 176.051 23.7918C176.051 23.9262 176.051 23.9262 176.051 23.7918V23.9262C176.051 24.195 176.051 24.3294 176.184 24.4638Z" fill="black"/>
<path d="M225.779 37.5022C225.244 38.1743 224.308 38.8464 223.506 38.5776C222.303 38.1743 222.437 36.5613 222.303 35.6204C222.303 34.5451 222.303 33.6042 222.437 32.5288C222.57 31.5879 222.704 30.5126 222.704 29.5717C222.972 29.8405 223.373 29.8405 223.774 29.8405C224.576 29.5717 224.977 29.1684 225.912 29.4372C226.848 29.8405 227.115 30.7814 227.249 31.7223C227.383 33.4697 226.848 36.0236 225.779 37.5022ZM222.57 28.6307C222.303 28.3619 221.635 28.2275 221.367 28.6307C220.432 30.2437 220.298 32.26 220.298 34.0074C220.298 34.6795 220.164 35.486 220.298 36.1581C220.031 36.1581 219.897 36.2925 219.763 36.5613C219.496 36.9646 219.362 37.3678 219.095 37.7711C218.694 38.1743 218.828 38.3087 218.56 37.9055C218.427 37.6366 218.427 36.9646 218.427 36.5613C218.427 36.0237 218.293 35.486 218.293 34.9483C218.159 32.9321 218.025 30.9158 217.892 28.8996C217.892 28.3619 217.223 27.9587 216.689 27.9587C214.55 28.0931 213.213 29.4372 212.411 31.1847C212.411 29.8405 212.144 28.3619 210.673 28.2275C209.069 28.0931 208.267 29.5717 207.732 30.9158C207.599 30.1093 207.465 29.4372 207.331 28.6307C207.198 28.0931 206.396 28.0931 205.995 28.3619C203.722 30.3782 202.118 33.0665 201.984 36.1581C201.984 36.6957 203.054 36.8301 203.187 36.2925C203.722 34.0074 204.524 31.9912 205.995 30.3782C206.262 32.1256 206.396 34.0074 206.262 35.7548C205.995 36.8301 205.861 37.9055 205.727 38.9808C205.594 39.9217 207.465 40.0561 207.599 39.1152C207.732 38.5776 207.732 38.0399 207.866 37.6366C208 36.5613 208.267 35.3516 208.668 34.2762C208.802 33.7386 210.272 29.8405 210.54 30.1093C210.807 30.2437 210.54 31.9912 210.54 32.26C210.54 33.0665 210.54 33.873 210.406 34.6795C210.272 36.4269 210.139 38.1743 209.871 39.9217C209.738 41.1315 211.609 41.4003 212.01 40.325C212.678 38.3087 213.213 36.2925 213.882 34.1418C214.283 32.7977 214.684 30.647 216.02 29.8405C216.154 31.3191 216.288 32.7977 216.288 34.4107C216.421 35.7548 216.154 37.7711 216.822 38.9808C217.357 39.7873 218.56 40.0561 219.63 39.7873C220.432 39.5185 220.966 39.1152 221.367 38.4431C223.105 40.9971 226.848 39.9217 228.452 37.7711C230.056 35.3516 230.858 30.7814 229.121 28.3619C227.383 27.1522 223.105 25.9424 222.57 28.6307Z" fill="black"/>
<path d="M251.044 27.5554C251.578 27.421 252.247 27.2866 252.648 27.6898C253.583 28.6307 252.113 29.1684 251.311 29.1684C250.643 29.1684 249.841 29.034 249.038 28.8996C249.573 28.3619 250.242 27.8242 251.044 27.5554ZM253.984 42.2068C253.316 42.7445 252.514 43.551 251.712 43.8198C250.242 44.2231 249.974 42.7445 250.509 41.6692C250.91 40.7282 251.846 40.1906 252.648 39.5185C252.781 39.3841 252.915 39.3841 252.915 39.2497C253.851 38.9808 254.653 38.3087 255.188 37.2334C255.589 36.4269 254.118 36.1581 253.717 36.5613C253.316 36.8302 252.915 37.2334 252.38 37.5022C251.311 37.6367 250.108 36.5613 249.573 35.7548C248.771 34.4107 248.37 32.5288 248.637 30.9158C249.172 31.0502 249.707 31.1847 250.375 31.1847C252.113 31.4535 254.386 31.1847 255.188 29.4372C255.99 27.8242 254.787 26.3457 253.316 25.9424C251.712 25.4047 249.974 25.9424 248.637 26.8833C247.969 27.421 247.568 27.9587 247.167 28.6307C246.365 28.3619 245.697 28.0931 245.028 27.8242C244.493 27.5554 243.558 27.6898 243.424 28.4963C242.889 31.3191 242.355 34.2762 241.152 36.8302C240.35 33.7386 239.547 30.7814 238.879 27.6898C238.612 26.8833 237.008 26.8833 236.874 27.8242C236.339 30.647 235.938 33.7386 234.468 36.2925C234.2 35.2172 234.067 34.2762 233.799 33.2009C233.398 31.4535 233.131 29.5717 232.463 27.9587C232.195 27.421 230.992 27.421 230.992 28.0931C230.992 29.8405 231.393 31.7223 231.794 33.4697C232.062 35.2172 232.463 36.9646 232.73 38.8464C232.864 39.6529 233.933 40.0562 234.601 39.3841C236.339 37.5022 237.409 35.2172 237.943 32.7977C238.478 35.2172 239.146 37.5022 239.681 39.9217C239.948 40.8627 241.285 40.7282 241.686 40.0562C243.825 37.099 244.627 33.4697 245.296 29.9749C245.697 30.1093 246.098 30.2437 246.499 30.3782C245.964 32.6632 246.632 35.3516 247.969 37.2334C248.637 38.0399 249.439 38.712 250.375 39.1152C248.637 40.4594 247.301 42.2068 248.504 44.3575C250.242 47.5835 254.386 45.4328 255.856 43.2822C256.391 42.2068 254.653 41.8036 253.984 42.2068Z" fill="black"/>
<path d="M283.525 18.0118C283.926 18.0118 284.327 18.0118 284.595 17.8774C284.862 17.743 284.996 17.6086 285.129 17.3397C285.263 17.0709 285.263 16.8021 285.263 16.5332C285.129 16.2644 284.996 15.9956 284.728 15.9956C284.595 15.9956 284.461 15.8612 284.327 15.8612C284.06 15.5923 283.525 15.4579 283.124 15.7267C282.59 15.9956 282.322 16.5332 282.456 17.0709C282.456 17.6086 282.991 18.0118 283.525 18.0118Z" fill="black"/>
<path d="M348.092 18.4151C348.76 18.4151 349.429 17.743 349.161 17.0709C349.161 16.9365 349.028 16.8021 349.028 16.6677C349.028 16.6677 349.028 16.6677 349.028 16.5332C349.028 16.2644 348.894 16.13 348.76 15.9956C348.626 15.8612 348.225 15.7267 347.958 15.7267C347.691 15.7267 347.423 15.8612 347.29 15.9956C347.156 16.13 347.022 16.3988 347.022 16.6677C347.022 16.6677 347.022 16.6677 347.022 16.8021C347.022 16.9365 346.889 17.0709 346.889 17.2053C346.621 17.8774 347.423 18.4151 348.092 18.4151Z" fill="black"/>
<path d="M319.218 33.4697C318.683 34.6795 317.748 37.5022 316.277 38.0399C316.277 38.1743 316.277 38.1743 316.277 38.3087C316.143 38.0399 316.143 37.771 316.143 37.5022C316.143 37.099 316.143 36.6957 316.143 36.4269C316.143 35.486 316.277 34.6795 316.544 33.7385C316.812 32.932 318.282 28.8995 319.619 29.5716C319.886 29.706 320.287 29.706 320.555 29.5716C320.154 30.7814 319.753 32.1255 319.218 33.4697ZM300.37 34.545C300.503 34.4106 300.637 34.1418 300.637 34.0074C300.637 34.2762 300.637 34.545 300.503 34.8139C300.503 34.6795 300.37 34.545 300.37 34.545ZM293.552 28.8995C293.953 28.4963 294.354 27.8242 294.889 27.6898C295.958 27.2865 296.359 27.6898 296.226 28.7651C295.825 31.0502 293.552 31.319 291.814 31.9911C292.215 30.7814 292.75 29.8405 293.552 28.8995ZM359.321 30.647C358.385 30.1093 357.316 29.9749 356.246 29.5716C355.712 29.3028 355.177 29.034 355.177 28.4963C355.177 27.8242 356.915 26.2112 357.182 27.421C357.449 28.3619 359.187 28.093 359.187 27.1521C359.187 24.5982 356.113 24.4638 354.509 25.5391C352.637 26.7489 351.969 29.3028 353.974 30.7814C354.776 31.4535 355.845 31.7223 356.781 31.9911C357.717 32.26 359.455 33.0665 358.251 34.1418C357.449 34.8139 356.246 35.2171 355.177 35.3515C354.509 35.486 353.974 35.486 353.439 35.3515C352.904 35.2171 352.503 34.9483 351.835 34.9483C351.701 34.9483 351.568 34.9483 351.434 35.0827C351.033 34.8139 350.365 34.8139 349.964 35.0827C349.83 35.2171 349.696 35.3515 349.562 35.486C349.562 35.3515 349.562 35.2171 349.562 35.0827C349.562 34.2762 349.295 33.2009 349.295 32.3944C349.161 30.5125 349.295 28.7651 349.161 26.8833C349.161 26.3456 348.493 26.0768 347.958 26.0768C347.691 25.808 347.424 25.808 347.023 25.808C344.884 26.0768 342.879 25.9424 341.007 24.867C339.804 24.195 337.799 25.5391 339.269 26.6145C341.676 28.4963 341.943 32.5288 340.874 35.2171C340.874 35.3515 340.606 36.0236 340.339 36.158C339.938 36.2925 339.67 35.6204 339.403 35.3515C339.002 34.545 338.601 33.6041 338.334 32.7976C337.665 30.9158 337.398 29.034 336.863 27.2865C336.863 27.1521 336.73 27.0177 336.596 27.0177C336.329 26.3456 334.992 26.0768 334.591 26.8833C333.12 29.706 331.917 32.932 330.848 36.0236C330.58 34.9483 330.714 33.6041 330.714 32.7976C330.714 31.319 331.115 29.706 331.516 28.3619C331.65 28.093 331.65 27.8242 331.784 27.5554C332.185 26.2112 329.912 25.9424 329.511 27.1521C328.976 28.7651 328.442 30.3781 327.773 31.8567C327.239 33.3353 326.57 35.2171 325.634 36.5613C324.431 38.1743 323.496 34.8139 323.362 33.873C322.961 32.1255 322.961 30.2437 323.362 28.4963C323.629 27.1521 321.223 26.7489 320.956 28.093C320.956 28.2275 320.956 28.2275 320.956 28.3619C318.951 26.0768 316.277 29.3028 315.341 31.0502C314.406 32.7976 313.604 35.486 313.871 37.771C313.203 37.771 312.668 38.0399 312.668 38.8464C312.668 39.1152 312.401 39.2496 312.267 39.1152C312 38.9808 311.732 38.1743 311.598 37.9055C311.331 36.9645 311.331 35.8892 311.331 34.9483C311.197 32.7976 310.93 30.647 310.796 28.3619C310.796 28.093 310.529 27.6898 310.262 27.5554C307.588 26.7489 305.316 28.093 303.979 30.3781C303.845 30.647 303.578 31.0502 303.444 31.319C303.578 30.1093 303.845 29.034 304.113 27.8242C304.38 26.7489 302.642 26.48 302.241 27.421C301.439 29.3028 300.503 31.1846 299.568 32.932C299.033 33.873 298.365 34.8139 297.964 35.8892C296.76 37.099 295.424 38.4431 293.552 38.3087C291.146 38.0399 291.146 35.486 291.547 33.6041C294.889 34.0074 299.701 31.1846 298.766 27.421C298.365 25.6735 296.627 25.0015 294.889 25.5391C293.018 26.0768 291.547 27.9586 290.611 29.5716C289.676 31.319 288.74 33.873 288.874 36.0236C288.339 35.3515 286.735 35.7548 286.868 36.6957C286.868 36.9645 287.002 37.5022 286.735 37.771C286.066 38.4431 285.665 37.2334 285.398 36.8301C284.997 36.0236 284.73 35.0827 284.596 34.1418C284.462 33.4697 284.462 32.7976 284.462 32.26C284.462 32.1255 284.462 31.9911 284.462 31.9911C284.462 31.5879 284.462 31.1846 284.462 30.647C284.462 29.9749 284.596 29.3028 284.596 28.6307C284.73 27.6898 283.125 27.5554 282.724 28.3619C282.323 29.5716 282.19 30.9158 282.19 32.26C281.388 35.2171 279.65 38.5775 278.313 37.771C276.843 36.9645 277.11 34.6795 277.244 33.3353C277.377 31.8567 277.645 30.1093 276.709 28.7651C276.041 27.8242 275.105 27.2865 274.035 27.5554C272.832 27.8242 272.03 28.7651 271.362 29.706C271.095 30.1093 270.827 30.5125 270.56 30.9158C270.426 29.9749 270.426 29.034 270.293 28.2275C270.159 27.5554 269.089 27.5554 269.089 28.2275C268.688 31.5879 268.688 34.9483 268.822 38.3087C268.822 38.5775 268.822 38.8464 268.822 38.9808C268.822 40.0561 270.961 40.0561 270.961 38.9808C270.961 38.5775 270.961 38.3087 270.961 37.9055C270.961 36.4269 271.228 35.0827 271.629 33.7385C271.897 32.7976 272.431 31.8567 272.832 30.9158C272.966 30.5125 273.233 30.2437 273.367 29.9749C273.634 29.5716 274.437 29.034 274.971 29.4372C275.64 29.8405 275.506 31.5879 275.506 32.26C275.372 33.2009 275.239 34.1418 275.239 35.0827C275.239 36.2925 275.506 37.6366 276.308 38.5775C277.912 40.7282 280.586 40.325 282.19 38.3087C282.591 37.771 282.858 37.2334 283.125 36.6957C283.393 37.6366 283.794 38.5775 284.329 39.1152C286.066 40.997 289.007 39.7873 289.275 37.771C289.676 38.5775 290.21 39.384 291.28 39.7873C294.889 41.6691 299.033 38.8464 300.771 35.6204C300.637 37.099 300.503 38.712 300.503 40.1905C300.503 41.4003 302.509 41.4003 302.776 40.325C303.311 38.0399 304.113 35.6204 304.915 33.4697C305.449 31.9911 306.652 28.7651 308.658 28.8995C308.791 30.9158 308.925 32.7976 309.059 34.8139C309.192 36.2925 309.059 38.1743 309.994 39.5185C310.663 40.5938 312 40.997 313.203 40.7282C313.871 40.5938 314.406 40.1905 314.807 39.6529C316.277 41.2659 319.084 39.1152 320.154 37.6366C320.688 36.9645 321.089 36.158 321.357 35.486C321.892 37.5022 323.095 39.1152 325.233 39.2496C327.239 39.2496 328.174 37.3678 328.843 35.7548C329.11 37.099 329.511 38.4431 330.982 38.9808C331.65 39.2496 332.318 38.9808 332.586 38.3087C333.521 35.8892 334.591 33.6041 335.527 31.1846C335.928 32.932 336.596 34.8139 337.398 36.2925C338.334 38.1743 340.473 39.5185 342.344 37.771C343.948 36.2925 344.082 33.4697 343.948 31.4535C343.948 30.3781 343.681 29.3028 343.28 28.3619C344.483 28.6307 345.686 28.6307 346.889 28.3619C346.755 29.5716 346.755 30.9158 346.755 32.1255C346.755 33.7385 346.755 35.8892 347.424 37.3678C348.226 39.2496 350.632 38.5775 351.434 37.2334C352.503 38.0399 354.509 37.9055 355.578 37.6366C357.316 37.2334 359.722 36.5613 360.791 34.9483C361.727 33.3353 360.925 31.5879 359.321 30.647Z" fill="black"/>
<path d="M361.459 18.1463C360.523 17.6086 359.453 18.2807 358.651 18.8184C357.582 19.356 356.513 20.0281 355.443 20.5658C354.24 21.2379 355.443 22.582 356.513 22.0444C357.582 21.5067 358.785 20.969 359.854 20.4314C360.657 20.0281 361.726 19.6249 361.86 18.6839C361.726 18.4151 361.592 18.2807 361.459 18.1463Z" fill="black"/>
<path d="M378.705 33.7385C378.438 33.2009 377.769 33.0665 377.235 33.4697C376.834 33.7385 376.566 34.0074 376.433 34.4106C375.63 32.1255 375.363 29.5716 376.031 27.2865C376.299 26.0768 374.294 25.5391 373.893 26.6145C372.957 28.4963 372.155 30.3781 370.818 31.9911C369.749 33.2009 367.744 34.8139 366.006 34.2762C362.664 33.3353 364.936 25.4047 368.546 27.2865C369.214 27.5554 370.417 27.0177 369.749 26.2112C367.877 23.9261 364.669 25.1359 363.199 27.2865C361.728 29.4372 361.327 32.6632 362.931 34.8139C364.669 37.2334 368.145 36.6957 370.417 35.3515C371.754 34.545 372.69 33.4697 373.625 32.3944C373.893 34.1418 374.427 36.0236 375.497 37.6366C375.898 38.3087 377.101 38.3087 377.502 37.771C378.037 36.6957 379.373 35.0827 378.705 33.7385Z" fill="black"/>
<path d="M374.961 17.8774V18.0118V18.1462C375.095 18.2807 375.228 18.5495 375.362 18.6839C375.496 18.9527 375.763 19.2216 375.897 19.4904C376.298 20.0281 377.233 20.1625 377.902 19.7592C378.437 19.356 378.704 18.6839 378.303 18.0118C377.902 17.6086 377.634 17.0709 377.233 16.6677C376.832 16.2644 376.03 16.2644 375.629 16.5332C375.362 16.6677 375.095 16.9365 375.095 17.2053C374.961 17.6086 374.961 17.743 374.961 17.8774Z" fill="black"/>
<path d="M80.3411 70.4343C80.2074 71.5096 80.0737 73.3914 79.539 74.3324C79.539 74.87 79.2717 75.0044 78.7369 74.87C78.3359 74.6012 77.9349 74.1979 77.8012 73.7947C77.5339 73.257 77.2665 72.7194 76.9992 72.1817C76.4645 70.9719 76.1971 69.6278 75.9297 68.2836C75.9297 68.1492 75.9297 68.1492 75.9297 68.0148C75.9297 67.8804 75.9297 67.8804 75.9297 67.7459C76.5981 67.6115 77.1328 67.2083 77.1328 66.4018C76.9992 65.3265 76.8655 63.9823 77.4002 62.907C77.6675 62.5037 77.8012 62.2349 78.3359 61.966C79.0043 61.6972 79.2717 62.1005 79.539 62.7725C80.4747 65.0576 80.6084 68.0148 80.3411 70.4343ZM79.138 59.8154C77.6675 59.5465 76.0634 60.2186 75.1277 61.4284C74.0583 62.907 74.0583 64.7888 74.192 66.5362C73.9246 67.6115 73.6573 68.6869 73.3899 69.7622C72.9889 70.9719 72.5878 72.7194 71.7858 73.9291C71.3848 72.9882 71.2511 71.5096 71.2511 70.7031C71.1174 69.2245 71.1174 67.8804 71.1174 66.4018C70.9837 64.1167 70.7164 60.7563 67.7755 61.0251C65.503 61.1595 64.4336 63.1758 63.7652 65.0576C63.4979 63.0414 62.9632 59.9498 60.557 60.2186C58.4182 60.4875 57.8835 63.0414 57.3488 65.0576C57.3488 64.6544 57.3488 64.3855 57.2151 63.9823C57.0814 63.0414 57.0814 62.1004 56.5467 61.294C55.7447 60.0842 54.2742 60.353 53.6058 61.5628C52.4028 63.579 51.7344 66.4018 51.7344 68.6869C51.7344 69.2245 52.6701 69.2245 52.8038 68.8213C53.3385 67.0739 53.7395 65.3265 54.4079 63.7135C54.5416 63.4446 54.6752 63.0414 54.8089 62.7725C55.21 61.8316 55.0763 62.1005 55.21 62.7725C55.3436 63.7135 55.3436 64.6544 55.4773 65.5953C55.611 69.2245 55.7447 72.9882 55.4773 76.6174C55.3436 77.5584 57.3488 77.6928 57.4824 76.7519C58.1508 72.0473 59.0866 67.4771 60.557 63.0414C60.557 63.0414 60.557 63.0414 60.557 63.1758C60.557 63.7135 60.8243 64.3855 60.958 64.9232C61.2254 66.1329 61.2254 67.3427 61.3591 68.5524C61.6264 71.1064 61.7601 73.6603 62.0274 76.0798C62.1611 77.5583 64.701 77.4239 64.701 75.9454C64.701 74.6012 65.3693 63.7134 67.7755 63.579C68.5776 65.8641 68.3102 68.418 68.5776 70.8375C68.7112 72.5849 68.9786 76.0798 70.9837 76.8863C73.3899 77.8272 74.3256 74.1979 74.8603 72.5849C74.994 72.1817 75.1277 71.9129 75.2614 71.5096C75.6624 73.1226 76.1971 74.87 77.4002 75.9454C78.3359 76.7519 80.0737 77.1551 81.0094 76.2142C81.5441 75.5421 81.8115 74.0635 81.9452 73.257C82.2125 72.1817 82.3462 71.2408 82.3462 70.1654C82.4799 68.0148 82.2125 65.7297 81.8115 63.579C81.4105 61.6972 80.8758 60.2186 79.138 59.8154Z" fill="black"/>
<path d="M117.902 66.4017C117.635 67.4771 116.298 71.9128 114.56 71.5096C113.09 71.1063 113.892 67.4771 114.159 66.5362C114.427 65.5952 114.694 64.6543 115.229 63.7134C115.362 63.579 116.966 60.7562 117.234 61.5627C117.367 61.966 118.169 62.2348 118.704 61.966C118.571 63.579 118.303 65.0576 117.902 66.4017ZM126.19 68.418C125.522 68.8212 125.254 68.9557 124.72 69.6277C124.452 69.8966 124.185 70.7031 123.784 70.8375C122.982 71.2407 122.848 70.5687 122.581 69.8966C122.313 69.3589 122.18 68.8212 122.046 68.2836C121.378 65.5952 121.244 62.9069 121.378 60.2186C121.511 58.74 118.972 58.8744 118.838 60.353C118.838 60.4874 118.838 60.4874 118.838 60.6218C118.437 59.8153 117.501 59.4121 116.565 59.5465C114.961 59.8153 114.026 61.1595 113.223 62.5037C111.887 64.9232 110.416 68.6868 111.619 71.5096C110.817 71.3752 109.614 71.9128 110.149 72.8537C109.882 72.9882 109.748 72.8537 109.748 72.5849C109.614 72.3161 109.481 72.0472 109.481 71.644C109.347 71.1063 109.347 70.7031 109.347 70.1654C109.213 69.0901 109.213 68.1492 109.08 67.0738C108.946 64.9232 108.678 62.7725 108.545 60.4874C108.545 60.0842 108.144 59.6809 107.743 59.6809C104.936 59.4121 103.866 61.966 102.797 64.2511C102.396 65.3264 101.995 66.4017 101.594 67.4771C101.326 65.192 100.792 63.0413 99.8559 61.0251C99.7222 60.7562 99.1875 60.6218 99.0538 61.0251C98.5191 62.3692 97.7171 63.4446 97.1823 64.7887C96.6476 66.1329 96.1129 67.4771 95.8456 68.9557C95.5782 70.1654 95.4446 71.5096 95.0435 72.5849C94.6425 73.3914 94.1078 74.1979 93.1721 73.7947C92.37 73.3914 91.969 72.3161 91.7016 71.644C91.4343 70.7031 91.3006 69.3589 90.3649 68.6868C90.2312 68.5524 90.0975 68.5524 89.9638 68.418C91.0333 66.4017 92.2363 64.3855 93.4394 62.3692C93.9741 61.4283 92.771 60.7562 91.969 60.8907C89.5628 61.2939 86.8893 59.1432 84.7505 61.1595C83.8147 62.1004 83.5474 63.7134 84.7505 64.6543C85.1515 64.9232 86.4883 64.6543 85.8199 63.9822C85.2852 63.3102 85.5525 62.5037 86.3546 62.2348C87.023 61.966 87.825 62.3692 88.4934 62.5037C89.0281 62.6381 89.4291 62.7725 89.9638 62.7725C88.6271 64.9232 87.5577 67.0738 86.4883 69.3589C84.8841 70.8375 83.8147 73.1226 84.0821 75.1388C84.2158 76.3486 85.9536 76.3486 86.4883 75.2732C87.1566 73.3914 87.9587 71.644 88.8944 69.7622C89.0281 69.7622 89.1618 70.031 89.2955 70.4342C89.5628 71.1063 89.6965 71.7784 89.9638 72.4505C90.7659 74.3323 92.6374 75.9453 94.7762 75.0044C96.7813 74.0635 97.1824 71.644 97.4497 69.7622C97.8507 67.3427 97.5834 64.2511 98.7865 62.1004C98.9201 65.9985 99.7222 69.8966 99.7222 73.7947C99.7222 74.7356 101.594 75.0044 101.727 73.9291C102.128 71.5096 102.797 69.2245 103.599 66.9394C104 65.7297 104.535 64.6543 105.069 63.4446C105.337 62.9069 105.604 62.2348 106.139 61.6972C106.272 63.579 106.406 65.3264 106.54 67.2082C106.673 69.0901 106.406 71.5096 107.342 73.257C108.01 74.4667 109.347 75.2732 110.817 74.87C111.753 74.6011 112.555 73.7946 112.555 72.8537C114.427 74.6011 117.234 73.1226 118.571 71.1063C118.972 70.4342 119.373 69.7622 119.64 69.0901C119.907 70.1654 120.308 71.1063 120.977 71.9128C121.779 72.9881 123.249 73.6602 124.586 72.9881C126.19 72.3161 127.126 70.2998 127.66 68.8212C127.928 68.1492 126.725 68.0147 126.19 68.418Z" fill="black"/>
<path d="M88.4926 52.288C88.6262 52.288 88.6262 52.288 88.4926 52.288V52.288ZM87.0221 52.5569C87.0221 52.6913 87.0221 52.6913 87.0221 52.5569C87.0221 52.6913 87.1558 52.9601 87.2895 53.0945C87.4232 53.2289 87.5568 53.3634 87.6905 53.4978C88.4926 54.0354 89.6957 54.0354 90.364 53.3634C90.8987 52.8257 91.0324 51.8848 90.6314 51.2127C90.0967 50.1374 88.8936 49.7341 87.8242 50.2718C87.4232 50.4062 87.1558 50.9439 87.2895 51.3471C87.1558 51.4815 87.1558 51.4815 87.1558 51.616V51.7504C87.1558 51.8848 87.0221 51.8848 87.0221 52.1536C86.8885 52.288 86.8885 52.4224 87.0221 52.5569Z" fill="black"/>
<path d="M185.675 69.8966C185.675 70.031 185.274 70.9719 185.14 70.9719C184.605 71.1063 184.605 70.4342 184.472 70.1654C184.204 69.0901 184.071 68.0147 183.937 66.9394C183.536 64.7887 183.402 62.6381 183.135 60.353C183.001 59.2777 181.13 59.2777 181.13 60.353C181.13 62.3692 180.595 64.3855 179.927 66.4017C179.659 67.3427 179.125 68.2836 178.724 69.2245C178.456 69.6277 178.323 70.1654 178.055 70.5687C178.055 70.7031 177.922 70.8375 177.922 70.9719C177.922 70.7031 177.788 70.5687 177.788 70.2998C177.654 69.7622 177.654 69.2245 177.654 68.5524C177.521 67.4771 177.521 66.5362 177.521 65.4608C177.521 63.9822 177.521 62.5037 176.852 61.1595C175.382 58.3367 171.906 59.1432 170.302 61.4283C169.901 61.966 169.634 62.5037 169.366 63.1757C169.233 61.1595 168.698 58.74 166.292 58.6056C164.153 58.6056 163.217 60.2186 162.683 62.1004C162.683 61.6972 162.549 61.1595 162.549 60.7562C162.415 59.9497 162.415 58.8744 162.014 58.0679C161.346 56.8582 159.875 57.127 159.073 57.9335C157.737 59.4121 157.068 61.6972 156.801 63.579C156.801 64.1167 157.737 64.2511 157.87 63.7134C158.271 62.3692 158.806 60.8907 159.608 59.6809C159.742 59.5465 159.875 59.0088 160.143 59.0088C160.41 59.0088 160.276 59.5465 160.276 59.8153C160.276 60.7562 160.41 61.5627 160.41 62.5037C160.544 65.8641 160.677 69.0901 160.677 72.4505C160.677 73.5258 162.683 73.6602 162.95 72.5849C163.351 70.4342 163.752 68.2836 164.153 66.2673C164.287 65.3264 164.688 60.4874 166.024 60.4874C167.495 60.4874 167.094 71.3752 166.96 72.7193C166.96 74.1979 169.366 74.0635 169.5 72.5849C169.634 70.4342 170.035 68.418 170.569 66.4017C170.97 65.192 171.906 60.8907 173.778 61.2939C175.248 61.5627 174.847 64.5199 174.847 65.4608C174.847 67.3427 174.713 69.3589 175.248 71.2407C175.515 72.4505 176.317 73.5258 177.521 73.5258C179.125 73.6602 179.927 72.3161 180.595 70.9719C181.13 69.8966 181.531 68.9557 181.798 67.8803C181.932 69.2245 182.066 70.5687 182.734 71.644C183.269 72.7193 184.472 73.257 185.541 72.8537C186.878 72.4505 187.413 71.2407 187.814 70.031C188.215 69.0901 186.076 68.8212 185.675 69.8966Z" fill="black"/>
<path d="M181.934 50.4063C181.934 50.6751 182.067 51.0783 182.335 51.2127C182.736 51.4816 183.27 51.616 183.671 51.3472C184.072 51.2127 184.34 50.9439 184.34 50.4063C184.34 50.003 184.206 49.7342 183.939 49.4653C183.805 49.3309 183.805 49.3309 183.671 49.3309C183.671 49.3309 183.671 49.3309 183.538 49.3309C183.404 49.1965 183.27 49.1965 183.27 49.1965C183.137 49.1965 183.137 49.1965 183.27 49.1965C182.869 49.0621 182.201 49.0621 182.067 49.5998C181.934 49.7342 181.934 49.8686 181.934 50.003V50.1374C181.934 50.2718 181.934 50.4063 181.934 50.4063Z" fill="black"/>
<path d="M226.579 80.5155C226.446 81.8597 226.312 83.2039 226.178 84.548C226.045 85.4889 226.178 87.2364 225.644 88.1773C224.574 89.9247 223.906 86.6987 223.906 86.0266C223.772 84.8169 223.906 83.7415 224.173 82.5318C224.708 80.1123 225.644 77.9616 226.847 75.9454C226.847 75.8109 226.98 75.8109 226.98 75.6765C226.847 77.2895 226.713 78.9025 226.579 80.5155ZM194.096 59.4121C195.433 59.2777 195.834 60.7563 195.566 61.8316C195.032 63.9823 192.893 64.2511 191.021 64.7888C191.155 63.579 191.422 62.3693 191.823 61.5628C192.091 60.6219 192.893 59.5465 194.096 59.4121ZM240.482 64.2511C239.412 65.3265 239.412 67.2083 238.075 68.0148C236.605 68.8213 236.07 66.805 236.07 65.7297C235.937 63.0414 237.407 58.3368 240.482 57.9335C240.883 57.9335 241.284 57.2615 241.016 56.8582C239.145 54.5731 236.338 57.3959 235.268 59.1433C234.466 60.353 233.931 61.6972 233.53 63.0414L233.397 63.1758C232.327 64.6544 231.124 66.133 229.787 67.6115C229.787 66.9395 229.921 66.4018 229.921 65.7297C230.055 64.2511 230.055 62.7725 230.055 61.4284C230.055 60.0842 230.189 58.6056 229.921 57.2615C229.788 56.7238 228.852 56.7238 228.718 57.2615C228.451 58.068 228.183 58.8745 228.05 59.8154C227.782 59.9498 227.649 60.2186 227.649 60.4875C227.916 62.2349 227.782 63.8479 227.248 65.4609C226.713 66.805 225.109 69.8966 223.371 69.7622C222.703 69.6278 222.569 69.6278 222.435 68.9557C222.302 68.5525 222.168 68.0148 222.168 67.4771C222.034 66.6706 221.901 65.7297 221.901 64.9232C222.569 62.5037 222.703 59.9498 222.168 57.5303C222.034 56.8582 220.564 56.8582 220.43 57.5303C219.895 59.9498 219.628 62.2349 219.762 64.52C219.628 64.7888 219.628 65.0576 219.494 65.3265C218.96 66.5362 218.425 67.746 217.623 68.8213C217.222 69.359 216.821 69.8966 216.286 70.2999C215.752 70.8375 215.35 71.2408 214.682 70.7031C213.479 69.4934 213.345 67.6115 211.34 67.3427C211.34 67.3427 211.34 67.3427 211.207 67.3427C211.608 66.6706 212.009 65.8641 212.543 65.192C213.212 64.1167 213.88 63.0414 214.548 61.966C214.682 61.6972 215.083 61.0251 215.35 60.4875C216.019 60.0842 216.687 59.5465 217.222 58.6056C217.757 57.7991 216.687 57.127 215.885 57.2615C214.949 57.3959 214.415 58.068 214.014 58.8745C212.677 59.5465 211.073 59.1433 210.271 57.6647C209.87 56.9926 208.8 56.7238 208.399 57.5303C207.464 59.1433 206.528 60.7563 205.859 62.3693C205.726 62.5037 205.726 62.6381 205.592 62.7725C205.726 61.0251 205.859 58.74 204.122 58.068C202.25 57.2615 200.78 58.74 200.111 60.353C199.176 62.7725 198.374 65.192 196.903 67.3427C195.566 69.2245 192.626 72.1817 191.155 68.8213C190.888 68.1492 190.754 67.3427 190.754 66.4018C194.096 66.5362 198.106 64.2511 197.705 60.4875C197.304 56.3205 191.823 56.8582 189.952 59.5465C188.749 61.294 188.482 63.7135 188.348 65.7297C188.214 67.746 188.615 69.8966 190.353 71.2408C194.363 74.4668 198.374 69.2245 200.111 65.9985C200.78 64.7888 201.314 63.4446 201.716 62.2349C201.983 61.5628 201.983 60.8907 202.384 60.2186C203.32 58.6056 203.453 60.353 203.587 61.1595C203.587 64.52 203.32 67.8804 202.651 71.2408C202.384 72.3161 204.389 72.7194 204.523 71.644C204.924 69.8966 205.191 68.0148 205.325 66.2674C205.458 66.2674 205.458 66.2674 205.592 66.2674C205.993 66.133 206.127 66.133 206.261 65.7297C206.261 65.5953 206.261 65.5953 206.261 65.5953C206.795 65.4609 206.929 64.9232 206.528 64.52C206.795 64.1167 207.063 63.8479 207.063 63.7135C207.464 63.0414 207.731 62.5037 208.132 61.8316C208.533 61.0251 209.068 60.2186 209.469 59.4121C210.404 60.2186 211.474 60.7563 212.677 60.7563C212.276 61.4284 211.741 62.1005 211.34 62.907C210.271 64.6544 209.201 66.5362 208.132 68.2836C207.464 68.9557 207.063 69.8966 206.795 70.8375C206.394 71.9129 208.266 72.3161 208.8 71.5096C209.201 70.8375 209.602 70.031 210.003 69.3589C210.404 68.8213 211.073 68.6869 211.608 69.4934C212.142 70.1655 212.543 71.1064 213.212 71.7785C214.816 73.3915 216.687 72.5849 218.158 71.2408C218.96 70.4343 219.762 69.4934 220.297 68.5525C220.698 70.1655 221.5 71.644 223.237 71.644C224.975 71.7784 226.446 70.5687 227.515 69.2245C227.515 69.6278 227.381 70.031 227.381 70.4343C223.638 75.4077 220.43 80.7844 221.366 86.9675C221.633 88.5805 222.435 90.1935 224.173 90.7312C225.911 91.1344 227.381 90.3279 228.05 88.7149C228.852 86.6987 228.718 84.1448 228.852 82.1285C229.119 79.5746 229.253 76.8863 229.52 74.3324C229.52 73.5259 229.654 72.7194 229.654 71.9129C230.991 70.2999 232.327 68.6869 233.53 66.9395C234.065 69.0901 235.803 70.8375 238.075 70.4343C240.482 70.031 242.888 66.9395 241.952 64.52C241.818 63.9823 240.883 63.8479 240.482 64.2511Z" fill="black"/>
<path d="M242.889 48.2556C241.953 48.2556 241.151 48.9276 240.215 49.4653C239.413 50.003 238.478 50.4062 237.676 50.8095C236.606 51.3471 237.542 52.4225 238.478 52.2881C239.547 52.0192 240.616 51.7504 241.552 51.2127C242.354 50.8095 243.557 50.2718 243.825 49.3309C244.092 48.6588 243.424 48.2556 242.889 48.2556Z" fill="black"/>
<path d="M265.347 63.0414C263.876 63.8479 263.609 65.5953 262.807 66.9394C262.54 67.4771 262.005 68.6869 261.47 68.1492C261.069 67.8804 261.203 66.6706 261.203 66.1329C261.069 64.2511 261.069 62.2349 261.738 60.4874C262.406 59.5465 263.074 58.6056 263.609 57.7991C264.411 56.5894 262.406 55.9173 261.604 56.5894C260.668 57.3959 259.866 58.3368 259.465 59.5465C258.262 61.1595 256.925 62.6381 255.722 64.3855C255.054 65.3264 256.658 65.8641 257.326 65.3264C257.727 65.0576 258.128 64.6544 258.529 64.3855C258.396 65.8641 258.396 67.6115 258.93 68.8213C259.732 70.7031 262.005 71.2408 263.609 70.031C264.545 69.3589 265.213 68.2836 265.614 67.3427C266.149 66.1329 267.085 64.7888 266.817 63.4446C266.684 62.9069 265.748 62.9069 265.347 63.0414Z" fill="black"/>
<path d="M263.477 47.8523C263.477 47.7179 263.477 47.8523 263.477 47.8523V47.8523ZM265.215 48.2555C265.215 48.1211 265.349 48.1211 265.215 48.2555V48.2555ZM264.279 50.1374C264.814 50.003 265.215 49.8685 265.616 49.5997C265.883 49.3309 266.151 48.9276 266.284 48.6588C266.418 48.1211 266.284 47.449 265.75 47.1802C265.349 46.9114 264.814 46.777 264.413 46.9114C264.279 46.9114 264.279 46.9114 264.145 47.0458C263.878 47.0458 263.611 47.1802 263.343 47.3146C262.675 47.9867 262.541 48.9276 263.076 49.8685C263.343 50.0029 263.878 50.1374 264.279 50.1374Z" fill="black"/>
<path d="M297.03 65.9985C296.763 67.4771 296.228 68.8212 295.426 70.031C295.025 70.7031 294.223 71.9128 293.287 71.3751C292.619 70.9719 292.485 69.6277 292.485 68.8212C292.485 68.2836 292.485 67.8803 292.485 67.3427C293.02 67.4771 293.555 67.3427 293.822 66.805C294.223 65.7297 294.624 63.9822 295.56 63.3102C297.03 61.966 297.164 64.9232 297.03 65.9985ZM294.49 61.0251C293.688 61.4283 293.02 61.966 292.619 62.6381C293.02 58.0679 293.822 53.4978 294.624 48.9276C294.758 47.8523 293.02 47.5834 292.753 48.5243C292.218 50.1373 291.817 51.7503 291.549 53.3633C291.148 54.7075 290.747 56.1861 290.213 57.5302C289.143 60.4874 287.673 63.0413 286.603 65.9985C286.47 66.4017 287.138 66.6706 287.405 66.4017C288.609 65.192 289.544 63.8478 290.346 62.2348C290.346 63.0413 290.213 63.7134 290.213 64.5199C290.079 66.6706 289.544 69.8966 290.747 71.7784C291.817 73.257 293.822 73.9291 295.426 72.9881C297.164 72.0472 298.367 69.8966 299.035 68.1492C299.704 66.4017 300.238 63.7134 299.035 61.966C297.966 60.6218 296.094 60.353 294.49 61.0251Z" fill="black"/>
<path d="M332.719 69.6278C330.847 68.9557 332.184 65.5953 332.585 64.3855C333.254 62.5037 334.189 61.2939 336.061 60.8907C335.526 64.2511 334.457 70.2999 332.719 69.6278ZM320.554 64.5199C320.153 65.7297 319.752 67.0739 318.95 68.1492C318.549 68.6869 317.881 69.6278 317.48 68.5524C317.213 68.0148 317.213 67.0739 317.346 66.5362C317.48 65.192 318.015 63.8479 318.683 62.6381C319.084 61.966 320.955 59.4121 321.624 61.1595C321.223 62.3693 320.822 63.4446 320.554 64.5199ZM305.984 65.3264C305.583 66.1329 304.38 70.031 303.31 69.8966C301.038 69.4934 303.578 61.0251 307.454 61.966C307.053 63.0414 306.518 64.2511 305.984 65.3264ZM352.904 66.9394C351.835 66.6706 350.765 67.3427 349.696 67.8804C349.295 68.1492 348.493 68.6869 347.958 68.5524C347.156 68.418 347.29 67.4771 347.156 66.805C347.156 65.3264 347.29 63.7134 347.824 62.3693C348.092 61.6972 348.359 60.8907 348.626 60.353C348.76 60.0842 349.027 59.6809 349.161 59.4121C349.295 59.2777 350.899 57.9335 350.632 59.2777C350.498 60.353 352.236 60.6219 352.503 59.6809C353.305 57.3959 350.498 56.0517 348.626 56.8582C346.22 57.9335 345.017 61.4284 344.616 63.8479C344.482 64.3855 344.482 65.0576 344.349 65.7297C343.814 65.5953 343.146 65.7297 342.878 66.2674C342.611 66.9394 341.943 68.6869 341.141 68.8213C340.205 68.9557 339.804 66.9394 339.67 66.2674C339.002 63.8479 338.734 61.2939 338.734 58.74C338.734 57.2614 336.195 57.3959 336.061 58.8744C336.061 58.8744 336.061 59.0089 336.061 59.1433C333.387 58.3368 331.115 60.8907 330.179 63.1758C329.778 64.2511 329.243 65.4609 328.976 66.805C328.575 66.805 328.174 66.9394 328.04 67.2083C327.372 68.1492 326.837 69.2245 326.035 70.031C325.768 70.2999 325.099 70.9719 324.698 70.7031C324.431 70.5687 324.431 69.7622 324.431 69.4934C324.164 67.0739 324.431 64.6544 324.431 62.2349C324.565 60.7563 324.565 59.2777 324.832 57.7991C325.768 54.3043 326.436 50.675 326.57 47.0458C326.704 45.7016 324.297 45.7016 324.03 46.9114C323.362 50.2718 322.693 53.6322 322.292 56.9926C322.159 57.6647 322.025 58.3368 321.757 59.0089C321.223 58.74 320.554 58.6056 319.886 58.6056C318.015 58.8744 316.544 60.6219 315.742 62.1004C315.207 63.0414 314.673 64.5199 314.405 66.1329C314.138 66.1329 313.737 66.2674 313.603 66.5362C313.202 67.3427 312.668 68.5524 311.865 69.0901C310.662 69.7622 310.529 68.1492 310.395 67.3427C310.128 65.0576 310.261 62.7725 310.529 60.353C310.662 59.1433 308.524 59.0089 308.123 59.9498C307.989 60.0842 307.989 60.2186 307.855 60.4874C305.716 59.5465 303.31 60.353 301.84 62.1004C300.236 64.1167 298.765 67.7459 299.968 70.1654C301.171 72.3161 304.246 72.8538 305.716 70.8375C306.652 69.6278 307.187 68.1492 307.722 66.6706V66.805C307.855 68.2836 307.855 70.031 309.326 70.9719C311.331 72.3161 313.202 71.2408 314.405 69.6278C314.806 70.8375 315.608 71.644 317.079 71.644C319.218 71.644 320.554 70.1654 321.624 68.1492C321.624 70.4343 322.025 73.257 324.966 72.9882C326.704 72.8538 328.308 71.3752 329.11 69.7622C329.377 70.2999 329.778 70.8375 330.313 71.2408C332.585 72.9882 335.125 71.644 336.195 69.3589C336.462 68.6869 336.729 68.0148 336.997 67.3427C337.264 68.418 337.665 69.4934 338.467 70.2999C339.536 71.3752 341.007 71.5096 342.344 70.9719C343.279 70.5687 343.948 69.7622 344.349 68.9557C344.616 69.8966 345.285 70.7031 346.488 71.1064C347.691 71.5096 349.027 71.2408 350.097 70.7031C351.166 70.1654 352.503 69.0901 353.038 68.0148C353.706 67.3427 353.305 67.0739 352.904 66.9394Z" fill="black"/>
<path d="M358.118 46.6425C356.247 47.1802 354.643 48.6588 353.172 49.7341C351.568 50.8095 349.831 51.8848 348.494 53.3634C347.558 54.3043 348.895 55.1108 349.831 54.7075C351.702 53.901 353.306 52.4225 355.044 51.3471C356.514 50.2718 358.252 49.3309 359.321 47.8523C359.856 47.0458 358.787 46.3737 358.118 46.6425Z" fill="black"/>
<path d="M385.387 17.0709C385.253 18.8183 388.595 19.8936 389.13 17.8774C390.466 11.6942 402.497 10.6189 408.112 13.7105C415.865 17.8774 404.903 25.2703 401.027 28.093C396.348 31.4535 392.873 35.486 391.268 40.4594C390.065 44.223 388.729 51.6159 393.006 54.4387C394.744 55.514 396.749 54.9764 397.418 53.3634C398.086 51.7504 397.15 50.5406 396.883 48.9276C396.482 47.0458 396.616 45.0295 397.017 43.1477C397.819 39.384 399.824 36.0236 403.166 33.2009C408.646 28.4963 416.266 24.7326 416.132 17.6086C415.597 4.9734 386.055 4.57015 385.387 17.0709Z" fill="black"/>
<path d="M399.156 68.0148C398.889 67.8803 398.488 67.6115 398.22 67.4771C397.552 67.2083 396.884 67.0739 396.082 67.0739C395.547 67.0739 395.012 67.2083 394.478 67.3427C393.943 67.4771 393.542 67.7459 393.141 68.1492C392.606 68.5524 392.339 69.0901 392.205 69.6278C392.071 70.1654 392.071 70.8375 392.339 71.3752C392.339 71.644 392.472 71.7784 392.472 72.0473C392.606 72.3161 392.74 72.5849 393.007 72.8538C393.274 73.257 393.675 73.5259 394.21 73.7947C394.477 73.9291 394.745 74.0635 395.146 74.1979C395.681 74.3323 396.082 74.4668 396.616 74.4668C397.017 74.4668 397.285 74.3323 397.686 74.3323C397.953 74.1979 398.354 74.0635 398.621 73.9291C399.156 73.6603 399.424 73.3914 399.691 72.9882C399.958 72.7193 400.226 72.3161 400.226 71.9128C400.226 71.644 400.359 71.5096 400.359 71.2408C400.894 70.1654 400.359 68.8213 399.156 68.0148Z" fill="black"/>
</g>
<defs>
<clipPath id="clip0_0_4360">
<rect width="416" height="91" fill="white"/>
</clipPath>
</defs>
</svg>
