<svg width="195" height="33" viewBox="0 0 195 33" fill="none" xmlns="http://www.w3.org/2000/svg">
<g clip-path="url(#clip0_415_912)">
<path d="M45.8008 2.30001C45.9008 2.30001 46.1008 2.40001 46.3008 2.60001C46.5008 2.80001 46.6008 2.90001 46.6008 3.00001C46.6008 3.60001 46.6008 4.30001 46.5008 5.30001C46.5008 5.50001 46.5008 5.80001 46.5008 6.20001C46.5008 6.50001 46.5008 6.90001 46.5008 7.40001C46.5008 8.80001 46.6008 9.80001 46.8008 10.5C46.8008 10.7 46.7008 10.9 46.5008 11C46.3008 11.1 46.2008 11.1 46.0008 11.1C45.6008 11.1 45.4008 11 45.3008 10.7C45.2008 10.4 45.1008 10.1 45.1008 9.60001C45.1008 7.80001 45.1008 6.20001 45.2008 4.70001C44.1008 5.90001 43.3008 6.90001 42.7008 7.70001L42.4008 7.90001C42.2008 8.00001 42.1008 8.00001 42.0008 8.00001C41.8008 8.00001 41.6008 7.90001 41.4008 7.80001C41.2008 7.70001 41.1008 7.50001 40.9008 7.30001L40.2008 6.40001C39.7008 5.80001 39.4008 5.30001 39.2008 4.90001C39.2008 5.80001 39.2008 6.90001 39.3008 8.40001C39.4008 9.20001 39.4008 9.90001 39.4008 10.3C39.4008 10.5 39.3008 10.7 39.2008 10.9C39.1008 11.1 38.9008 11.1 38.7008 11.1C38.5008 11.1 38.3008 11.1 38.1008 11C37.9008 10.9 37.9008 10.8 37.9008 10.6C37.9008 10.4 37.9008 10.2 37.9008 9.80001C37.9008 9.10001 37.9008 8.20001 37.8008 7.20001V6.40001V5.40001C37.8008 5.10001 37.8008 4.80001 37.8008 4.40001C37.8008 4.00001 37.8008 3.60001 37.8008 3.10001C37.8008 2.50001 38.1008 2.30001 38.7008 2.30001C38.9008 2.30001 39.1008 2.30001 39.3008 2.40001C39.5008 2.50001 39.6008 2.60001 39.7008 2.80001C39.8008 3.10001 40.0008 3.70001 40.5008 4.40001C41.0008 5.20001 41.4008 5.90001 41.9008 6.50001C42.3008 6.00001 42.6008 5.60001 42.9008 5.30001C43.3008 4.80001 43.7008 4.40001 44.0008 4.00001C44.3008 3.60001 44.6008 3.10001 45.0008 2.60001C45.1008 2.50001 45.2008 2.40001 45.4008 2.30001C45.5008 2.30001 45.7008 2.30001 45.8008 2.30001ZM48.7008 7.80001C48.6008 7.90001 48.4008 7.90001 48.3008 7.90001C48.1008 7.90001 48.0008 7.80001 47.9008 7.70001C47.8008 7.60001 47.7008 7.50001 47.7008 7.40001C47.7008 7.20001 47.9008 7.00001 48.3008 6.70001L48.8008 6.30001C48.8008 5.10001 48.9008 3.90001 48.9008 2.80001C48.9008 2.50001 48.9008 2.30001 49.0008 2.20001C49.0008 2.00001 49.1008 1.90001 49.2008 1.80001C49.3008 1.70001 49.5008 1.70001 49.6008 1.70001C49.7008 1.70001 49.9008 1.70001 50.0008 1.80001C50.1008 1.80001 50.2008 1.90001 50.2008 2.00001C50.2008 2.10001 50.3008 2.20001 50.3008 2.30001C50.3008 2.40001 50.3008 2.60001 50.3008 2.80001C50.3008 3.00001 50.3008 3.20001 50.3008 3.40001C50.3008 3.60001 50.3008 3.80001 50.3008 3.90001C50.3008 4.20001 50.3008 4.50001 50.3008 4.80001V5.30001C50.4008 5.20001 50.5008 5.20001 50.6008 5.10001C50.7008 5.10001 50.8008 5.00001 50.9008 5.00001C51.0008 5.00001 51.2008 5.10001 51.3008 5.20001C51.4008 5.30001 51.5008 5.40001 51.5008 5.60001C51.5008 5.80001 51.4008 6.00001 51.1008 6.20001C50.7008 6.40001 50.5008 6.60001 50.3008 6.70001C50.3008 7.40001 50.3008 8.20001 50.3008 8.90001C50.3008 9.30001 50.4008 9.50001 50.5008 9.70001C50.6008 9.90001 50.7008 10 50.9008 10C51.0008 10 51.1008 10 51.2008 10C51.3008 10 51.4008 10 51.5008 10C51.6008 10 51.7008 10 51.7008 10.1C51.8008 10.2 51.8008 10.3 51.8008 10.4C51.8008 10.6 51.7008 10.8 51.5008 10.9C51.3008 11 51.0008 11.1 50.7008 11.1C50.4008 11.1 50.2008 11 49.9008 10.9C49.6008 10.7 49.4008 10.5 49.3008 10.2C49.1008 9.90001 49.0008 9.50001 49.0008 9.00001C48.7008 8.40001 48.7008 8.00001 48.7008 7.80001ZM58.0008 6.60001C58.0008 6.80001 58.1008 7.00001 58.2008 7.20001C58.2008 7.40001 58.3008 7.70001 58.3008 7.90001C58.3008 8.30001 58.2008 8.80001 58.1008 9.40001C57.5008 10.6 56.5008 11.2 55.3008 11.2C54.8008 11.2 54.4008 11 53.9008 10.7C53.4008 10.4 53.1008 10 52.9008 9.60001C52.6008 8.80001 52.5008 8.30001 52.5008 8.10001C52.5008 7.70001 52.6008 7.30001 52.7008 6.90001C52.9008 6.50001 53.1008 6.10001 53.3008 5.80001C53.5008 5.60001 53.7008 5.40001 54.1008 5.30001C54.5008 5.10001 54.9008 5.10001 55.2008 5.10001C55.8008 5.10001 56.4008 5.20001 56.9008 5.50001C57.3008 5.70001 57.7008 6.10001 58.0008 6.60001ZM56.8008 8.90001C56.8008 8.80001 56.9008 8.50001 56.9008 8.00001C56.9008 7.70001 56.9008 7.50001 56.8008 7.20001C56.7008 6.90001 56.6008 6.70001 56.4008 6.50001C56.4008 6.50001 56.3008 6.50001 56.2008 6.40001C56.1008 6.40001 56.0008 6.30001 55.9008 6.30001C55.8008 6.30001 55.6008 6.20001 55.4008 6.20001C54.9008 6.20001 54.5008 6.40001 54.3008 6.80001C54.1008 7.20001 53.9008 7.70001 53.9008 8.20001C53.9008 8.30001 53.9008 8.50001 54.0008 8.70001C53.9008 9.00001 53.9008 9.20001 54.0008 9.30001C54.0008 9.40001 54.1008 9.50001 54.2008 9.60001C54.3008 9.70001 54.5008 9.80001 54.6008 9.90001C54.8008 9.90001 55.0008 10 55.2008 10C55.6008 10 56.0008 9.90001 56.2008 9.70001C56.4008 9.50001 56.6008 9.20001 56.8008 8.90001ZM65.1008 2.40001C65.1008 2.50001 65.1008 2.70001 65.0008 3.20001C64.9008 4.20001 64.8008 5.30001 64.8008 6.30001C64.8008 7.20001 64.8008 7.90001 64.8008 8.40001C64.8008 8.90001 64.9008 9.30001 65.0008 9.50001C65.1008 9.80001 65.3008 9.90001 65.5008 9.90001C65.9008 9.90001 66.2008 10 66.2008 10.3C66.2008 10.5 66.1008 10.7 65.9008 10.8C65.7008 10.9 65.5008 11 65.3008 11C65.0008 11 64.8008 10.9 64.5008 10.8C64.3008 10.7 64.1008 10.5 63.9008 10.2C63.7008 10.5 63.4008 10.7 63.1008 10.9C62.7008 11.1 62.4008 11.2 62.0008 11.2C61.5008 11.2 61.0008 11.1 60.6008 10.9C60.2008 10.7 59.9008 10.4 59.7008 10C59.5008 9.60001 59.4008 9.20001 59.4008 8.70001C59.4008 8.30001 59.5008 7.80001 59.6008 7.40001C59.7008 7.00001 59.9008 6.60001 60.0008 6.40001C60.3008 6.00001 60.6008 5.80001 61.0008 5.60001C61.4008 5.40001 61.8008 5.30001 62.2008 5.30001C62.5008 5.30001 62.7008 5.30001 62.9008 5.40001C63.1008 5.50001 63.3008 5.60001 63.5008 5.80001C63.5008 5.20001 63.5008 4.80001 63.5008 4.60001V4.20001C63.5008 3.30001 63.6008 2.70001 63.7008 2.30001C63.8008 1.90001 64.0008 1.70001 64.4008 1.70001C64.6008 1.70001 64.8008 1.70001 64.9008 1.80001C65.1008 2.00001 65.1008 2.10001 65.1008 2.40001ZM60.9008 8.60001C60.9008 9.00001 61.0008 9.40001 61.3008 9.60001C61.5008 9.90001 61.8008 10 62.2008 10C62.7008 10 63.1008 9.80001 63.3008 9.50001C63.5008 9.20001 63.7008 8.80001 63.7008 8.30001V6.90001C63.3008 6.50001 63.0008 6.30001 62.6008 6.30001C62.3008 6.30001 62.1008 6.40001 61.8008 6.50001C61.6008 6.60001 61.4008 6.80001 61.2008 7.10001C60.9008 7.50001 60.9008 8.00001 60.9008 8.60001ZM72.1008 6.30001C71.8008 6.90001 71.3008 7.50001 70.5008 8.20001L70.3008 8.40001C69.7008 9.00001 69.2008 9.50001 68.6008 9.90001C68.7008 9.90001 68.8008 9.90001 69.0008 9.90001H69.8008C70.0008 9.90001 70.3008 9.90001 70.7008 9.80001C71.1008 9.70001 71.3008 9.70001 71.5008 9.70001C71.8008 9.70001 72.1008 9.80001 72.4008 10C72.5008 10 72.6008 10.1 72.6008 10.2C72.7008 10.3 72.7008 10.4 72.7008 10.5C72.7008 10.6 72.7008 10.8 72.6008 10.9C72.5008 11 72.4008 11.1 72.3008 11.1C72.2008 11.1 72.1008 11.1 72.0008 11C72.0008 11 71.9008 11 71.8008 11C71.7008 11 71.6008 11 71.5008 11C71.2008 11 70.7008 11 70.2008 11.1C69.5008 11.2 68.9008 11.2 68.6008 11.2C68.2008 11.2 67.8008 11.1 67.5008 11C67.2008 10.9 67.1008 10.7 67.1008 10.4C67.1008 10.1 67.2008 9.80001 67.4008 9.60001C67.6008 9.40001 67.8008 9.10001 68.2008 8.80001C68.3008 8.70001 68.5008 8.60001 68.6008 8.50001C68.8008 8.30001 69.0008 8.10001 69.3008 7.80001C69.5008 7.50001 69.8008 7.20001 70.0008 7.00001C70.2008 6.80001 70.4008 6.60001 70.5008 6.40001C70.4008 6.40001 70.3008 6.40001 70.2008 6.40001C70.1008 6.40001 70.0008 6.40001 69.9008 6.40001C69.6008 6.40001 69.4008 6.50001 69.3008 6.50001C68.9008 6.50001 68.5008 6.50001 68.1008 6.40001C67.7008 6.40001 67.5008 6.30001 67.3008 6.20001C67.2008 6.10001 67.1008 6.00001 67.1008 5.80001C67.1008 5.70001 67.1008 5.50001 67.2008 5.40001C67.3008 5.30001 67.4008 5.20001 67.6008 5.20001C67.6008 5.20001 67.7008 5.20001 67.8008 5.20001C67.9008 5.20001 68.2008 5.20001 68.6008 5.30001C69.0008 5.30001 69.4008 5.40001 69.6008 5.40001C69.7008 5.40001 70.0008 5.40001 70.3008 5.40001C70.6008 5.40001 70.9008 5.40001 71.1008 5.40001C71.3008 5.40001 71.5008 5.40001 71.7008 5.50001C71.8008 5.50001 71.9008 5.60001 71.9008 5.70001C72.0008 5.80001 72.0008 5.90001 72.0008 6.00001C72.2008 6.00001 72.2008 6.20001 72.1008 6.30001ZM74.3008 2.20001C74.6008 2.20001 74.9008 2.30001 75.1008 2.50001C75.3008 2.60001 75.5008 2.90001 75.5008 3.10001C75.5008 3.30001 75.4008 3.50001 75.2008 3.60001C75.0008 3.70001 74.8008 3.80001 74.5008 3.80001C74.2008 3.80001 74.0008 3.70001 73.9008 3.60001C73.8008 3.50001 73.7008 3.30001 73.7008 3.20001C73.7008 2.90001 73.7008 2.70001 73.8008 2.50001C73.9008 2.20001 74.1008 2.20001 74.3008 2.20001ZM75.4008 8.30001V8.70001C75.4008 9.10001 75.4008 9.40001 75.4008 9.70001C75.4008 10 75.5008 10.3 75.5008 10.7C75.5008 10.8 75.4008 10.9 75.3008 11C75.2008 11.1 75.0008 11.1 74.9008 11.1C74.7008 11.1 74.5008 11.1 74.4008 11C74.2008 10.9 74.1008 10.8 74.1008 10.7C74.1008 10.5 74.0008 10.2 74.0008 10C74.0008 9.20001 74.0008 8.40001 73.9008 7.40001C73.9008 6.60001 73.8008 6.00001 73.8008 5.60001C73.8008 5.40001 73.9008 5.30001 74.1008 5.20001C74.3008 5.10001 74.4008 5.00001 74.6008 5.00001C74.9008 5.00001 75.1008 5.10001 75.2008 5.20001C75.3008 5.30001 75.4008 5.50001 75.4008 5.80001V8.30001ZM77.0008 8.00001C77.0008 7.70001 77.1008 7.40001 77.2008 7.10001C77.3008 6.80001 77.5008 6.50001 77.7008 6.20001C77.9008 5.90001 78.3008 5.60001 78.7008 5.50001C79.1008 5.30001 79.6008 5.20001 80.0008 5.20001C80.4008 5.20001 80.7008 5.30001 81.1008 5.40001C81.4008 5.60001 81.8008 5.70001 82.0008 6.00001C82.0008 6.10001 82.1008 6.20001 82.2008 6.40001C82.3008 6.60001 82.4008 6.70001 82.4008 6.90001C82.4008 7.10001 82.5008 7.20001 82.5008 7.30001C82.5008 7.90001 82.3008 8.30001 81.8008 8.50001C81.3008 8.70001 80.8008 8.80001 80.1008 8.80001C79.4008 8.80001 78.8008 8.80001 78.4008 8.70001C78.4008 8.90001 78.5008 9.10001 78.5008 9.20001C78.6008 9.40001 78.7008 9.50001 78.8008 9.60001C79.0008 9.80001 79.2008 9.90001 79.3008 9.90001C79.5008 10 79.7008 10 80.0008 10C80.5008 10 80.8008 9.90001 81.1008 9.70001C81.3008 9.50001 81.5008 9.50001 81.7008 9.50001C81.9008 9.50001 82.0008 9.60001 82.1008 9.70001C82.2008 9.80001 82.2008 9.90001 82.2008 10.1C82.2008 10.5 82.0008 10.7 81.5008 11C81.0008 11.2 80.5008 11.3 80.0008 11.3C79.6008 11.3 79.1008 11.2 78.7008 11.1C78.3008 10.9 77.9008 10.7 77.7008 10.4C77.5008 10.1 77.4008 9.70001 77.2008 9.30001C77.1008 8.80001 77.0008 8.30001 77.0008 8.00001ZM80.1008 6.20001C79.9008 6.20001 79.7008 6.20001 79.5008 6.30001C79.3008 6.40001 79.1008 6.50001 79.0008 6.60001C78.9008 6.80001 78.7008 6.90001 78.7008 7.00001C78.6008 7.10001 78.6008 7.30001 78.6008 7.50001C78.7008 7.50001 78.8008 7.50001 78.9008 7.50001C79.0008 7.50001 79.1008 7.50001 79.2008 7.50001C79.6008 7.50001 79.9008 7.60001 80.1008 7.60001C80.5008 7.60001 80.8008 7.50001 81.0008 7.40001C81.2008 7.30001 81.3008 7.10001 81.3008 6.90001C81.3008 6.70001 81.2008 6.50001 80.9008 6.40001C80.6008 6.30001 80.4008 6.20001 80.1008 6.20001ZM88.7008 6.30001C88.5008 6.60001 88.2008 7.00001 87.9008 7.30001C87.6008 7.70001 87.1008 8.10001 86.6008 8.60001C86.1008 9.10001 85.8008 9.30001 85.8008 9.40001L85.3008 9.80001C85.5008 9.80001 85.8008 9.90001 86.3008 9.90001C86.5008 9.90001 86.8008 9.90001 87.2008 9.80001C87.6008 9.70001 87.8008 9.70001 88.0008 9.70001C88.1008 9.70001 88.3008 9.70001 88.5008 9.80001C88.7008 9.80001 88.9008 9.90001 89.0008 10C89.1008 10 89.2008 10.1 89.2008 10.2C89.3008 10.3 89.3008 10.4 89.3008 10.5C89.3008 10.6 89.3008 10.8 89.2008 10.9C89.1008 11 89.0008 11.1 88.9008 11.1C88.8008 11.1 88.7008 11.1 88.5008 11C88.2008 11 88.1008 10.9 88.0008 10.9C87.7008 10.9 87.2008 10.9 86.7008 11C86.0008 11.1 85.4008 11.1 85.1008 11.1C84.7008 11.1 84.3008 11 84.0008 10.9C83.7008 10.8 83.6008 10.6 83.6008 10.3C83.6008 10.1 83.7008 9.80001 83.9008 9.50001C84.1008 9.20001 84.4008 8.90001 84.7008 8.50001L84.9008 8.30001C85.0008 8.20001 85.3008 7.90001 85.7008 7.60001C86.1008 7.30001 86.3008 7.10001 86.5008 6.90001C86.7008 6.70001 86.8008 6.50001 87.0008 6.30001H84.8008C84.4008 6.30001 84.2008 6.30001 84.0008 6.20001C83.8008 6.10001 83.7008 6.00001 83.7008 5.70001C83.7008 5.60001 83.7008 5.40001 83.8008 5.30001C83.9008 5.20001 84.0008 5.10001 84.2008 5.10001C84.5008 5.10001 85.2008 5.00001 86.2008 5.00001C87.2008 5.00001 87.9008 5.10001 88.3008 5.20001C88.4008 5.20001 88.5008 5.30001 88.5008 5.40001C88.6008 5.50001 88.6008 5.60001 88.6008 5.70001C88.8008 6.00001 88.8008 6.20001 88.7008 6.30001ZM87.2008 2.50001C87.2008 2.70001 87.1008 2.90001 86.9008 3.10001C86.7008 3.20001 86.5008 3.30001 86.3008 3.30001C86.1008 3.30001 85.9008 3.20001 85.8008 3.10001C85.7008 3.00001 85.6008 2.80001 85.6008 2.60001C85.6008 2.30001 85.7008 2.10001 85.9008 2.00001C86.1008 1.90001 86.3008 1.80001 86.5008 1.80001C87.0008 1.80001 87.2008 2.10001 87.2008 2.50001Z" fill="#231F20"/>
<path d="M28.9999 0.4C19.6999 0.2 10.3999 0 1.19985 0C0.699852 0 0.399852 0.3 0.399852 0.8C0.399852 2.4 0.299852 4.1 0.199851 5.8C0.199851 7.3 -0.200149 9.3 0.0998515 10.8C0.299852 11.9 0.999851 12.1 1.99985 12.1C3.79985 12.2 5.59985 12.1 7.39985 12.1C14.5999 12.1 21.6999 12.1 28.8999 12C29.2999 12 29.5999 11.7 29.6999 11.2C29.9999 8 30.0999 4.8 29.8999 1.5C29.8999 0.5 28.2999 0.5 28.3999 1.5C28.4999 4.8 28.4999 8 28.0999 11.3C28.3999 11 28.5999 10.8 28.8999 10.5C22.5998 10.6 16.2999 10.7 9.99985 10.6C8.49985 10.6 6.99985 10.6 5.49985 10.6C4.69985 10.6 3.99985 10.6 3.19985 10.6C2.19985 10.6 1.69985 10.9 1.59985 9.8C1.49985 6.8 1.79985 3.7 1.89985 0.7C1.69985 1 1.39985 1.3 1.19985 1.5C10.4999 1.5 19.6999 1.7 28.9999 1.9C29.9999 1.9 29.9999 0.4 28.9999 0.4Z" fill="#231F20"/>
</g>
<path d="M155.712 3.4C157.012 3.4 158.012 3.6 158.712 3.9C159.412 4.2 160.012 4.6 160.412 5.1C160.712 5.5 161.012 5.9 161.212 6.3C161.412 6.8 161.512 7.3 161.512 7.9C161.512 8.4 161.412 8.9 161.212 9.4C161.012 9.9 160.712 10.3 160.412 10.6C160.012 10.9 159.712 11.2 159.412 11.4C159.012 11.7 158.512 11.9 158.012 12C157.512 12.1 156.812 12.2 155.912 12.2C155.312 12.2 154.712 12.1 154.212 12C153.712 11.9 153.412 11.6 153.412 11.3C153.412 11.2 153.512 11.1 153.612 11C153.712 10.9 153.912 10.9 154.012 10.9C154.112 10.9 154.112 10.9 154.212 10.9C154.312 10.3 154.312 9.6 154.312 9C154.312 8.2 154.312 7.6 154.212 7.1C154.212 6.6 154.112 6.1 154.012 5.6C154.012 5.5 154.012 5.4 153.912 5.1C153.912 4.8 153.912 4.5 153.912 4.2C153.912 4 154.012 3.8 154.212 3.7C154.412 3.6 154.612 3.5 154.812 3.5C154.912 3.5 155.112 3.5 155.312 3.5C155.512 3.4 155.712 3.4 155.712 3.4ZM155.612 10.9C155.812 10.9 156.112 11 156.512 11C157.112 11 157.712 10.9 158.212 10.6C158.712 10.3 159.212 10 159.512 9.5C159.812 9 160.012 8.5 160.012 7.9C160.012 7.3 159.912 6.7 159.712 6.3C159.512 5.9 159.112 5.5 158.712 5.2C158.412 5 157.912 4.8 157.412 4.7C156.912 4.6 156.312 4.6 155.612 4.6C155.612 4.8 155.612 5.1 155.612 5.4C155.612 5.5 155.612 5.7 155.612 6C155.712 7.1 155.712 7.9 155.712 8.6C155.712 9.6 155.712 10.4 155.612 10.9ZM168.212 7.8C168.312 7.9 168.312 8.1 168.412 8.4C168.412 8.6 168.512 8.9 168.512 9.1C168.512 9.5 168.412 10 168.312 10.6C167.712 11.8 166.712 12.4 165.512 12.4C165.012 12.4 164.612 12.2 164.112 11.9C163.612 11.6 163.312 11.2 163.112 10.8C162.812 10 162.712 9.5 162.712 9.3C162.712 8.9 162.812 8.5 162.912 8.1C163.112 7.7 163.312 7.3 163.512 7C163.712 6.8 163.912 6.6 164.312 6.5C164.712 6.3 165.112 6.3 165.412 6.3C166.012 6.3 166.612 6.4 167.112 6.7C167.512 6.8 167.912 7.2 168.212 7.8ZM167.012 10C167.012 9.9 167.112 9.6 167.112 9.1C167.112 8.8 167.112 8.6 167.012 8.3C166.912 8 166.812 7.8 166.612 7.6C166.612 7.6 166.512 7.6 166.412 7.5C166.312 7.4 166.212 7.4 166.112 7.4C166.012 7.4 165.812 7.3 165.612 7.3C165.112 7.3 164.712 7.5 164.512 7.9C164.312 8.3 164.112 8.8 164.112 9.3C164.112 9.4 164.112 9.6 164.212 9.8C164.312 10.1 164.312 10.2 164.312 10.3C164.312 10.4 164.412 10.5 164.512 10.6C164.612 10.7 164.812 10.8 164.912 10.9C165.112 11 165.312 11 165.412 11C165.812 11 166.212 10.9 166.412 10.7C166.612 10.6 166.812 10.3 167.012 10ZM171.912 11.7C171.912 11.9 171.812 12 171.712 12.1C171.612 12.2 171.412 12.3 171.312 12.3C171.012 12.3 170.812 12.2 170.712 12.1C170.612 12 170.512 11.8 170.512 11.5C170.512 11.2 170.512 10.7 170.512 10.2C170.512 9.7 170.512 9.3 170.512 9C170.512 8.9 170.512 8.7 170.512 8.4C170.512 8.2 170.512 8 170.512 7.9C170.512 7.7 170.412 7.6 170.312 7.5C170.212 7.4 170.012 7.3 169.912 7.3C169.812 7.3 169.712 7.3 169.712 7.2C169.612 7.1 169.612 7 169.612 7C169.612 6.8 169.712 6.6 169.912 6.5C170.112 6.4 170.312 6.3 170.512 6.3C171.012 6.3 171.312 6.6 171.512 7.2C171.712 6.9 172.012 6.7 172.312 6.5C172.612 6.3 172.912 6.2 173.212 6.2C173.512 6.2 173.912 6.3 174.112 6.5C174.412 6.7 174.512 6.9 174.512 7.3C174.512 7.5 174.412 7.7 174.312 7.8C174.112 8 174.012 8.1 173.812 8.1C173.712 8.1 173.612 8.1 173.612 8C173.512 8 173.512 7.9 173.412 7.8C173.312 7.7 173.212 7.6 173.212 7.6C173.112 7.6 173.112 7.5 173.012 7.5C172.912 7.5 172.712 7.5 172.612 7.6C172.512 7.6 172.412 7.7 172.312 7.8C172.212 8 172.012 8.2 172.012 8.4C171.912 8.6 171.912 8.8 171.912 9C171.912 9.2 171.912 9.3 171.912 9.4V10.2C171.912 10.3 171.912 10.5 171.912 10.6C171.912 10.7 171.912 10.9 171.912 10.9C171.912 11.2 171.912 11.4 171.912 11.7ZM180.812 7.8C180.912 7.9 180.912 8.1 181.012 8.4C181.012 8.6 181.112 8.9 181.112 9.1C181.112 9.4 181.112 9.6 181.012 9.9C180.912 10.2 180.912 10.4 180.812 10.6C180.212 11.8 179.212 12.4 178.012 12.4C177.512 12.4 177.112 12.2 176.612 11.9C176.112 11.6 175.812 11.2 175.612 10.8C175.312 10 175.212 9.5 175.212 9.3C175.212 8.9 175.312 8.5 175.412 8.1C175.612 7.7 175.812 7.3 176.012 7C176.212 6.8 176.512 6.6 176.912 6.5C177.312 6.3 177.712 6.3 178.012 6.3C178.612 6.3 179.212 6.4 179.612 6.7C180.112 6.8 180.512 7.2 180.812 7.8ZM179.612 10C179.612 9.9 179.712 9.6 179.712 9.1C179.712 8.8 179.712 8.6 179.612 8.3C179.512 8 179.412 7.8 179.212 7.6C179.212 7.6 179.112 7.6 179.012 7.5C178.912 7.5 178.812 7.4 178.712 7.4C178.612 7.4 178.412 7.3 178.212 7.3C177.712 7.3 177.312 7.5 177.112 7.9C176.912 8.3 176.712 8.8 176.712 9.3C176.712 9.4 176.712 9.6 176.812 9.8C176.912 10.1 176.912 10.2 176.912 10.3C177.012 10.4 177.112 10.6 177.412 10.8C177.612 11 177.912 11.1 178.112 11.1C178.512 11.1 178.812 11 179.112 10.8C179.312 10.6 179.512 10.3 179.612 10ZM186.312 9.1C186.412 9.1 186.512 9.2 186.712 9.4C186.912 9.5 187.112 9.7 187.112 9.8C187.212 10 187.212 10.2 187.212 10.5C187.212 10.8 187.112 11.1 186.912 11.4C186.712 11.7 186.512 11.9 186.112 12C185.912 12.1 185.612 12.2 185.312 12.2C185.012 12.3 184.712 12.3 184.512 12.3C184.312 12.3 184.112 12.3 183.812 12.2C183.512 12.1 183.312 12.1 183.212 12C182.912 11.8 182.712 11.6 182.512 11.4C182.312 11.2 182.212 10.9 182.212 10.7C182.212 10.5 182.312 10.4 182.412 10.3C182.512 10.2 182.712 10.1 182.912 10.1C183.012 10.1 183.112 10.1 183.212 10.2C183.312 10.3 183.412 10.3 183.412 10.4C183.512 10.6 183.712 10.8 183.912 10.9C184.112 11 184.412 11.1 184.612 11.1C184.912 11.1 185.212 11 185.512 10.9C185.812 10.8 185.912 10.6 185.912 10.5C185.912 10.4 185.912 10.3 185.812 10.3C185.812 10.2 185.712 10.2 185.612 10.1C185.512 10 185.312 9.9 185.012 9.9C184.712 9.8 184.612 9.8 184.512 9.8C184.112 9.7 183.712 9.6 183.412 9.4C183.012 9.2 182.812 9 182.512 8.8C182.312 8.6 182.212 8.2 182.212 7.9C182.212 7.6 182.312 7.4 182.512 7.1C182.712 6.8 182.912 6.6 183.112 6.5C183.312 6.4 183.512 6.4 183.912 6.3C184.312 6.2 184.612 6.2 184.712 6.2C184.912 6.2 185.112 6.2 185.412 6.3C185.712 6.4 185.812 6.4 186.012 6.5C186.312 6.6 186.512 6.8 186.612 7C186.812 7.2 186.812 7.3 186.812 7.5C186.812 7.6 186.812 7.7 186.712 7.8C186.712 7.9 186.612 8 186.512 8C186.412 8.1 186.212 8.1 186.012 8.1C185.912 8.1 185.812 8.1 185.812 8C185.712 8 185.712 7.9 185.612 7.8C185.512 7.6 185.412 7.5 185.312 7.5C185.212 7.5 185.012 7.4 184.812 7.4C184.612 7.4 184.412 7.3 184.412 7.3C184.212 7.3 184.012 7.4 183.712 7.5C183.512 7.6 183.412 7.8 183.412 7.9C183.412 8 183.412 8 183.512 8.1C183.612 8.1 183.612 8.2 183.712 8.2C183.812 8.2 183.812 8.3 183.912 8.3C184.112 8.4 184.312 8.5 184.512 8.5C184.712 8.6 184.912 8.6 184.912 8.6C185.812 8.9 186.112 9 186.312 9.1ZM185.612 2.6C185.812 2.6 186.012 2.6 186.112 2.7C186.212 2.8 186.312 2.9 186.312 3C186.312 3.3 186.212 3.5 185.912 3.7C185.612 3.9 185.412 4.1 185.212 4.3C185.112 4.4 184.912 4.5 184.712 4.5C184.512 4.6 184.312 4.6 184.212 4.6C184.012 4.6 183.912 4.5 183.912 4.3C183.912 4.2 183.912 4.2 184.012 4.1C184.012 4.1 184.112 4 184.212 3.9C184.212 3.9 184.312 3.8 184.412 3.7C184.512 3.6 184.612 3.5 184.612 3.4C184.712 3.3 184.712 3.2 184.812 3C184.912 2.8 185.012 2.6 185.212 2.5C185.212 2.6 185.412 2.6 185.612 2.6ZM190.212 10.1C190.212 10.5 190.312 10.7 190.412 10.9C190.512 11.1 190.612 11.2 190.812 11.2C190.912 11.2 191.012 11.2 191.112 11.2C191.212 11.2 191.312 11.2 191.412 11.2C191.512 11.2 191.612 11.2 191.612 11.3C191.712 11.4 191.712 11.5 191.712 11.6C191.712 11.8 191.612 12 191.412 12.1C191.212 12.2 190.912 12.3 190.612 12.3C190.312 12.3 190.112 12.2 189.812 12.1C189.512 11.9 189.312 11.7 189.212 11.4C189.012 11.1 188.912 10.7 188.912 10.2C188.912 9.1 188.912 8.2 189.012 7.5C189.012 6.6 189.112 5.5 189.112 4.2C189.112 3.8 189.112 3.5 189.212 3.3C189.312 3.2 189.312 3.1 189.512 3C189.612 2.9 189.812 2.9 189.912 2.9C190.012 2.9 190.212 2.9 190.312 3C190.412 3 190.512 3.1 190.512 3.2C190.512 3.3 190.612 3.4 190.612 3.5C190.612 3.6 190.612 3.8 190.612 4C190.612 4.4 190.612 4.7 190.612 5.1C190.612 5.5 190.612 5.8 190.612 6C190.212 7.6 190.212 8.9 190.212 10.1ZM193.212 3.3C193.512 3.3 193.812 3.4 194.012 3.6C194.212 3.7 194.412 4 194.412 4.2C194.412 4.4 194.312 4.6 194.112 4.7C193.912 4.8 193.712 4.9 193.412 4.9C193.112 4.9 192.912 4.8 192.812 4.7C192.712 4.6 192.612 4.4 192.612 4.3C192.612 4 192.612 3.8 192.712 3.6C192.912 3.4 193.012 3.3 193.212 3.3ZM192.912 9V8.6C192.912 8.1 192.912 7.7 192.812 7.3C192.812 6.9 192.712 6.7 192.712 6.6C192.712 6.5 192.812 6.4 192.912 6.3C193.012 6.2 193.112 6.2 193.212 6.2C193.412 6.2 193.612 6.2 193.712 6.3C193.912 6.4 194.012 6.5 194.012 6.6C194.012 6.9 194.112 7.2 194.112 7.4C194.112 7.8 194.112 8.5 194.212 9.4V9.9V10.4C194.212 10.5 194.212 10.7 194.212 10.9C194.212 11.1 194.212 11.3 194.212 11.6C194.212 11.8 194.112 11.9 193.912 12C193.712 12.1 193.512 12.2 193.412 12.2C193.112 12.2 192.912 12.1 192.812 12C192.712 11.9 192.612 11.7 192.612 11.4L192.912 9Z" fill="#231F20"/>
<path d="M146.311 2.79999V13C146.311 13 117.711 14.1 117.711 13V2.79999H146.311Z" fill="#BDC0C0"/>
<path d="M146.012 1.3C136.712 1.1 127.412 1 118.212 1C117.812 1 117.512 1.3 117.412 1.8C117.312 3.5 117.312 5.2 117.212 6.9C117.212 8.4 116.812 10.4 117.112 11.9C117.312 13 118.012 13.2 119.012 13.2C120.812 13.3 122.612 13.2 124.412 13.2C131.612 13.2 138.712 13.2 145.912 13.1C146.312 13.1 146.612 12.8 146.712 12.3C147.012 9 147.112 5.8 147.012 2.5C147.012 1.5 145.412 1.5 145.512 2.5C145.612 5.8 145.612 9 145.212 12.3C145.512 12 145.712 11.8 146.012 11.5C139.712 11.6 133.412 11.7 127.112 11.6C125.612 11.6 124.112 11.6 122.612 11.6C121.812 11.6 121.112 11.6 120.312 11.6C119.312 11.6 118.812 11.9 118.712 10.8C118.612 7.8 118.912 4.7 119.012 1.7C118.712 2 118.512 2.2 118.212 2.5C127.512 2.5 136.712 2.7 146.012 2.9C147.012 2.9 147.012 1.4 146.012 1.3Z" fill="#231F20"/>
<defs>
<clipPath id="clip0_415_912">
<rect width="89.4" height="32.5" fill="white"/>
</clipPath>
</defs>
</svg>
