<svg width="147" height="251" viewBox="0 0 147 251" fill="none" xmlns="http://www.w3.org/2000/svg">
<g clip-path="url(#clip0_415_849)">
<path d="M13.88 125.79L0 104.56L28.42 84.71L22.62 76.63L62.15 75.44L53.29 108.37L46.96 103.05L13.88 125.79Z" fill="#BDC0C0"/>
<path d="M76.5798 68.72L57.5898 39.73L96.4298 12.64L88.5098 1.6L142.54 0L130.44 44.95L121.78 37.68L76.5798 68.72Z" fill="#BDC0C0"/>
<path d="M52.7124 201.09V200.104L56.4165 196.049C56.8512 195.574 57.2092 195.161 57.4905 194.811C57.7717 194.456 57.9799 194.124 58.1151 193.813C58.2539 193.499 58.3233 193.17 58.3233 192.827C58.3233 192.433 58.2283 192.091 58.0384 191.802C57.8521 191.514 57.5964 191.291 57.2713 191.134C56.9462 190.977 56.5809 190.898 56.1754 190.898C55.7444 190.898 55.3681 190.988 55.0466 191.167C54.7288 191.342 54.4823 191.589 54.3069 191.906C54.1352 192.224 54.0494 192.597 54.0494 193.024H52.7563C52.7563 192.367 52.9078 191.79 53.211 191.293C53.5142 190.796 53.927 190.409 54.4494 190.131C54.9754 189.854 55.5654 189.715 56.2192 189.715C56.8768 189.715 57.4594 189.854 57.9672 190.131C58.4749 190.409 58.8731 190.783 59.1617 191.254C59.4503 191.726 59.5945 192.25 59.5945 192.827C59.5945 193.24 59.5197 193.643 59.3699 194.038C59.2238 194.429 58.9681 194.865 58.6028 195.348C58.2411 195.826 57.7389 196.411 57.0959 197.101L54.5754 199.797V199.884H59.7918V201.09H52.7124ZM65.715 201.243C64.8895 201.243 64.1863 201.019 63.6055 200.569C63.0247 200.116 62.5808 199.461 62.274 198.602C61.9671 197.74 61.8137 196.699 61.8137 195.479C61.8137 194.266 61.9671 193.231 62.274 192.372C62.5845 191.51 63.0301 190.853 63.6109 190.4C64.1954 189.943 64.8968 189.715 65.715 189.715C66.5333 189.715 67.2328 189.943 67.8137 190.4C68.3981 190.853 68.8438 191.51 69.1506 192.372C69.4611 193.231 69.6164 194.266 69.6164 195.479C69.6164 196.699 69.463 197.74 69.1561 198.602C68.8493 199.461 68.4054 200.116 67.8246 200.569C67.2438 201.019 66.5406 201.243 65.715 201.243ZM65.715 200.038C66.5333 200.038 67.1689 199.643 67.6219 198.854C68.0748 198.065 68.3013 196.94 68.3013 195.479C68.3013 194.507 68.1972 193.68 67.989 192.997C67.7844 192.314 67.4885 191.793 67.1013 191.435C66.7178 191.077 66.2557 190.898 65.715 190.898C64.9041 190.898 64.2703 191.298 63.8137 192.098C63.3571 192.895 63.1288 194.022 63.1288 195.479C63.1288 196.451 63.231 197.276 63.4356 197.956C63.6402 198.635 63.9342 199.152 64.3178 199.506C64.705 199.861 65.1708 200.038 65.715 200.038ZM75.6437 189.868V201.09H74.2848V191.293H74.2191L71.4794 193.112V191.731L74.2848 189.868H75.6437ZM78.6081 198.789V197.671L83.5395 189.868H84.3505V191.6H83.8026L80.0766 197.495V197.583H86.7176V198.789H78.6081ZM83.8902 201.09V198.449V197.928V189.868H85.1834V201.09H83.8902ZM99.6641 194.876V196.082H91.9491V194.876H99.6641ZM105.165 201.09V200.104L108.869 196.049C109.304 195.574 109.662 195.161 109.943 194.811C110.225 194.456 110.433 194.124 110.568 193.813C110.707 193.499 110.776 193.17 110.776 192.827C110.776 192.433 110.681 192.091 110.491 191.802C110.305 191.514 110.049 191.291 109.724 191.134C109.399 190.977 109.034 190.898 108.628 190.898C108.197 190.898 107.821 190.988 107.5 191.167C107.182 191.342 106.935 191.589 106.76 191.906C106.588 192.224 106.502 192.597 106.502 193.024H105.209C105.209 192.367 105.361 191.79 105.664 191.293C105.967 190.796 106.38 190.409 106.902 190.131C107.428 189.854 108.018 189.715 108.672 189.715C109.33 189.715 109.912 189.854 110.42 190.131C110.928 190.409 111.326 190.783 111.615 191.254C111.903 191.726 112.048 192.25 112.048 192.827C112.048 193.24 111.973 193.643 111.823 194.038C111.677 194.429 111.421 194.865 111.056 195.348C110.694 195.826 110.192 196.411 109.549 197.101L107.028 199.797V199.884H112.245V201.09H105.165ZM118.168 201.243C117.342 201.243 116.639 201.019 116.058 200.569C115.478 200.116 115.034 199.461 114.727 198.602C114.42 197.74 114.267 196.699 114.267 195.479C114.267 194.266 114.42 193.231 114.727 192.372C115.037 191.51 115.483 190.853 116.064 190.4C116.648 189.943 117.35 189.715 118.168 189.715C118.986 189.715 119.686 189.943 120.267 190.4C120.851 190.853 121.297 191.51 121.604 192.372C121.914 193.231 122.069 194.266 122.069 195.479C122.069 196.699 121.916 197.74 121.609 198.602C121.302 199.461 120.858 200.116 120.278 200.569C119.697 201.019 118.994 201.243 118.168 201.243ZM118.168 200.038C118.986 200.038 119.622 199.643 120.075 198.854C120.528 198.065 120.754 196.94 120.754 195.479C120.754 194.507 120.65 193.68 120.442 192.997C120.237 192.314 119.941 191.793 119.554 191.435C119.171 191.077 118.709 190.898 118.168 190.898C117.357 190.898 116.723 191.298 116.267 192.098C115.81 192.895 115.582 194.022 115.582 195.479C115.582 196.451 115.684 197.276 115.889 197.956C116.093 198.635 116.387 199.152 116.771 199.506C117.158 199.861 117.624 200.038 118.168 200.038ZM128.097 189.868V201.09H126.738V191.293H126.672L123.932 193.112V191.731L126.738 189.868H128.097ZM135.05 201.243C134.59 201.236 134.13 201.148 133.669 200.98C133.209 200.812 132.789 200.529 132.409 200.131C132.029 199.729 131.724 199.187 131.494 198.504C131.264 197.817 131.149 196.955 131.149 195.917C131.149 194.924 131.242 194.043 131.428 193.276C131.614 192.506 131.885 191.857 132.239 191.331C132.593 190.801 133.021 190.4 133.521 190.126C134.025 189.852 134.593 189.715 135.225 189.715C135.854 189.715 136.413 189.841 136.902 190.093C137.395 190.341 137.797 190.688 138.108 191.134C138.418 191.58 138.619 192.093 138.71 192.674H137.373C137.249 192.169 137.008 191.751 136.65 191.419C136.292 191.086 135.817 190.92 135.225 190.92C134.356 190.92 133.671 191.298 133.171 192.054C132.674 192.811 132.424 193.872 132.42 195.238H132.508C132.712 194.927 132.955 194.663 133.236 194.443C133.521 194.221 133.835 194.049 134.179 193.928C134.522 193.808 134.886 193.748 135.269 193.748C135.912 193.748 136.5 193.908 137.034 194.23C137.567 194.548 137.994 194.988 138.316 195.55C138.637 196.109 138.798 196.75 138.798 197.474C138.798 198.168 138.643 198.803 138.332 199.38C138.022 199.954 137.585 200.411 137.023 200.75C136.464 201.086 135.806 201.251 135.05 201.243ZM135.05 200.038C135.51 200.038 135.923 199.923 136.288 199.693C136.657 199.463 136.948 199.154 137.16 198.767C137.375 198.379 137.483 197.948 137.483 197.474C137.483 197.01 137.379 196.588 137.171 196.208C136.966 195.824 136.683 195.519 136.321 195.293C135.963 195.066 135.554 194.953 135.094 194.953C134.747 194.953 134.424 195.022 134.124 195.161C133.824 195.296 133.561 195.483 133.335 195.72C133.112 195.958 132.937 196.23 132.809 196.537C132.681 196.84 132.617 197.159 132.617 197.495C132.617 197.941 132.721 198.358 132.93 198.745C133.141 199.132 133.43 199.444 133.795 199.682C134.164 199.919 134.582 200.038 135.05 200.038Z" fill="#231F20"/>
<path d="M27.1492 241.38L27.0192 226.85C27.0192 225.22 27.0192 223.6 27.0692 221.99L28.0692 221.4C28.8092 221.447 29.6592 223.447 30.6192 227.4C31.3892 230.61 32.0092 233.5 32.4792 236.05C32.9492 238.6 33.2192 240.05 33.2692 240.22C33.4359 239.42 33.7692 237.98 34.2692 235.9C34.7292 233.82 35.0792 232.21 35.2692 231.06C35.9004 228.093 36.3214 225.086 36.5292 222.06V221.84C36.5763 221.533 36.7413 221.257 36.9892 221.07C37.2207 220.888 37.505 220.786 37.7992 220.78C37.9292 220.777 38.0583 220.802 38.1775 220.854C38.2967 220.905 38.4031 220.983 38.4892 221.08C38.6514 221.258 38.7437 221.489 38.7492 221.73C38.7492 224.723 38.8626 229.207 39.0892 235.18C39.3159 241.153 39.4292 245.637 39.4292 248.63C39.4423 249.188 39.2738 249.736 38.9492 250.19C38.6392 250.63 38.3292 250.85 38.0392 250.85C37.4292 250.85 37.1192 250.35 37.1192 249.36L36.9692 233.57V231.66C36.8026 232.627 36.4192 234.317 35.8192 236.73C35.3401 238.556 34.9562 240.405 34.6692 242.27V242.51C34.6154 242.74 34.5786 242.974 34.5592 243.21C34.5592 243.57 34.4492 243.88 34.3992 244.11C34.3317 244.381 34.2482 244.648 34.1492 244.91C34.0826 245.164 33.9333 245.388 33.7251 245.547C33.5168 245.707 33.2615 245.792 32.9992 245.79C32.1092 245.79 31.6592 244.62 31.6592 242.29C31.5001 239.002 30.9324 235.747 29.9692 232.6C29.4092 230.52 29.0492 229.12 28.8892 228.38C28.8892 230.38 28.8192 231.89 28.8192 232.91L29.1292 248.34C29.1323 248.867 28.9275 249.373 28.5592 249.75C28.3048 249.779 28.0471 249.737 27.8155 249.627C27.584 249.518 27.3878 249.346 27.2492 249.13C27.0022 248.602 26.8856 248.022 26.9092 247.44L27.1492 241.38ZM41.8892 237.33C41.7359 234.663 41.6626 232.037 41.6692 229.45V223.58C41.493 223.347 41.4088 223.057 41.4328 222.765C41.4568 222.474 41.5872 222.201 41.7992 222C41.8931 221.89 42.0097 221.802 42.1409 221.742C42.2721 221.681 42.4148 221.65 42.5592 221.65C43.4592 221.65 43.9092 222.54 43.9092 224.32L44.2592 237.37C44.4706 238.018 44.5983 238.69 44.6392 239.37C44.7392 240.37 44.7892 241.15 44.7892 241.71C44.8101 242.384 44.9006 243.054 45.0592 243.71C45.2453 244.546 45.4892 245.368 45.7892 246.17C46.0748 246.954 46.5057 247.676 47.0592 248.3C47.237 248.542 47.4629 248.746 47.7226 248.897C47.9824 249.049 48.2706 249.145 48.5692 249.18C48.9534 249.209 49.3336 249.087 49.6292 248.84C49.8851 248.562 50.0523 248.214 50.1092 247.84C50.243 247.158 50.31 246.465 50.3092 245.77V238.44C50.3092 237.64 50.2292 236.46 50.0692 234.9C49.9092 233.34 49.8192 232.193 49.7992 231.46V231.21L49.7092 229L49.4392 222.56C49.441 222.408 49.4838 222.259 49.5629 222.128C49.6421 221.998 49.7548 221.892 49.8892 221.82C50.1881 221.631 50.5357 221.534 50.8892 221.54L51.7992 222.42V223.04L51.5292 225.33C51.5292 227.417 51.6426 230.563 51.8692 234.77C52.0892 238.97 52.2092 241.77 52.2092 243.3C52.2092 244.83 52.2092 245.77 52.1392 246.3C52.0884 246.833 51.9947 247.362 51.8592 247.88C51.7408 248.376 51.5341 248.847 51.2492 249.27C50.9387 249.702 50.5231 250.047 50.0418 250.272C49.5605 250.498 49.0295 250.597 48.4992 250.56C47.7655 250.572 47.0412 250.394 46.3965 250.044C45.7517 249.693 45.2084 249.182 44.8192 248.56C43.811 247.018 43.1303 245.286 42.8192 243.47C42.3912 241.446 42.1105 239.394 41.9792 237.33H41.8892ZM54.9892 221.48C55.3399 221.562 55.6991 221.603 56.0592 221.6L59.5892 221.22C59.728 221.219 59.8655 221.247 59.9929 221.302C60.1203 221.357 60.2349 221.438 60.3292 221.54C60.5186 221.748 60.6222 222.019 60.6192 222.3C60.6192 228.847 59.2326 237.513 56.4592 248.3L58.4592 248.15C59.7792 248.15 60.4592 248.54 60.4592 249.31V249.47L59.8692 250.06L55.2392 250.21C54.7592 250.21 54.3992 249.9 54.1692 249.29C54.7492 248.37 55.3892 246 56.1092 242.15C56.8292 238.3 57.3692 234.62 57.7992 231C58.2292 227.38 58.5292 224.84 58.6292 223.25C57.9207 223.358 57.2058 223.418 56.4892 223.43C55.1292 223.43 54.4892 223.04 54.4892 222.24V222.08L54.9992 221.45L54.9892 221.48ZM62.5292 237.33C62.3759 234.663 62.3026 232.037 62.3092 229.45V223.58C62.1187 223.363 62.0136 223.084 62.0136 222.795C62.0136 222.506 62.1187 222.227 62.3092 222.01C62.4031 221.9 62.5197 221.812 62.6509 221.752C62.7821 221.691 62.9248 221.66 63.0692 221.66C63.9692 221.66 64.4292 222.55 64.4292 224.33L64.7692 237.38C64.9861 238.026 65.1139 238.699 65.1492 239.38C65.2492 240.38 65.2992 241.16 65.2992 241.72C65.3201 242.394 65.4106 243.064 65.5692 243.72C65.7552 244.556 65.9992 245.378 66.2992 246.18C66.5886 246.962 67.0191 247.684 67.5692 248.31C67.747 248.553 67.9729 248.756 68.2327 248.907C68.4924 249.059 68.7806 249.155 69.0792 249.19C69.4634 249.219 69.8436 249.097 70.1392 248.85C70.3951 248.572 70.5623 248.224 70.6192 247.85C70.753 247.168 70.82 246.475 70.8192 245.78V238.45C70.8192 237.65 70.7392 236.47 70.5792 234.91C70.4192 233.35 70.3392 232.17 70.3392 231.37V231.12L70.2692 228.94L69.9992 222.5C70.001 222.348 70.0438 222.199 70.1229 222.068C70.2021 221.938 70.3148 221.832 70.4492 221.76C70.7481 221.571 71.0957 221.474 71.4492 221.48L72.3592 222.36V222.98L72.0892 225.27C72.0892 227.357 72.2026 230.503 72.4292 234.71C72.6492 238.91 72.7692 241.71 72.7692 243.24C72.7692 244.77 72.7692 245.71 72.6992 246.24C72.6484 246.773 72.5547 247.302 72.4192 247.82C72.3008 248.316 72.0942 248.787 71.8092 249.21C71.4987 249.642 71.0831 249.987 70.6018 250.212C70.1205 250.438 69.5896 250.537 69.0592 250.5C68.3255 250.512 67.6012 250.334 66.9565 249.984C66.3117 249.633 65.7684 249.122 65.3792 248.5C64.3534 246.962 63.6555 245.23 63.3292 243.41C62.9012 241.386 62.6205 239.334 62.4892 237.27L62.5292 237.33ZM75.7292 249.11L75.9592 247.46C75.9592 244.87 75.8592 240.99 75.6392 235.81C75.3267 235.961 74.9862 236.046 74.6392 236.06C74.35 236.062 74.0672 235.974 73.8292 235.81C73.7162 235.743 73.6221 235.648 73.5556 235.534C73.4892 235.42 73.4526 235.292 73.4492 235.16C73.4492 234.6 74.1492 234.16 75.5392 233.88C75.3192 228.547 75.2092 224.547 75.2092 221.88C75.2085 221.771 75.2334 221.664 75.2821 221.566C75.3307 221.469 75.4017 221.385 75.4892 221.32C75.6887 221.174 75.9321 221.1 76.1792 221.11C76.459 221.117 76.7262 221.227 76.9292 221.42C77.0385 221.516 77.1255 221.635 77.1842 221.768C77.2429 221.9 77.2719 222.045 77.2692 222.19C77.2692 223.61 77.3226 225.61 77.4292 228.19C77.5392 230.79 77.6092 232.5 77.6292 233.31C78.64 232.823 79.7385 232.544 80.8592 232.49C80.9521 232.495 81.0425 232.521 81.1239 232.566C81.2052 232.611 81.2754 232.674 81.3292 232.75C81.4862 232.944 81.5647 233.191 81.5492 233.44C81.5492 234.267 80.2492 234.877 77.6492 235.27L77.7092 236.46C77.7162 236.583 77.7162 236.707 77.7092 236.83V237C77.8092 239.18 77.8492 242.44 77.8492 246.79V247.74H80.7092C81.2492 248.113 81.5192 248.463 81.5192 248.79C81.5327 249.086 81.4326 249.376 81.2392 249.6C81.1761 249.692 81.0929 249.769 80.9959 249.824C80.899 249.88 80.7907 249.912 80.6792 249.92C80.4467 249.917 80.2166 249.873 79.9992 249.79C79.7632 249.845 79.5215 249.871 79.2792 249.87L76.8292 249.76C76.569 249.761 76.3133 249.692 76.0892 249.56C75.9952 249.523 75.9125 249.462 75.8494 249.383C75.7862 249.304 75.7448 249.21 75.7292 249.11ZM83.5492 241.38L83.4192 226.85C83.4192 225.223 83.4392 223.603 83.4792 221.99L84.4792 221.4C85.2326 221.447 86.0826 223.447 87.0292 227.4C87.7992 230.61 88.4192 233.5 88.8992 236.05C89.3792 238.6 89.6392 240.05 89.6892 240.22C89.8592 239.42 90.1792 237.98 90.6392 235.9C91.0992 233.82 91.4492 232.21 91.6892 231.06C92.3155 228.093 92.7365 225.085 92.9492 222.06V221.84C92.9704 221.687 93.0221 221.541 93.1011 221.408C93.1801 221.276 93.2849 221.161 93.4092 221.07C93.6362 220.887 93.9177 220.785 94.2092 220.78C94.3394 220.775 94.4689 220.8 94.5883 220.852C94.7078 220.903 94.814 220.982 94.8992 221.08C95.065 221.257 95.161 221.488 95.1692 221.73C95.1692 224.723 95.2826 229.207 95.5092 235.18C95.7359 241.153 95.8492 245.637 95.8492 248.63C95.8623 249.188 95.6938 249.736 95.3692 250.19C95.0492 250.63 94.7492 250.85 94.4492 250.85C93.8392 250.85 93.5392 250.35 93.5392 249.36L93.3892 233.57V231.66C93.2192 232.66 92.8292 234.32 92.2392 236.73C91.7577 238.556 91.3706 240.405 91.0792 242.27V242.51C91.0792 242.61 91.0192 242.84 90.9692 243.21C90.9192 243.58 90.8692 243.88 90.8192 244.11C90.7517 244.381 90.6682 244.648 90.5692 244.91C90.4991 245.164 90.3475 245.387 90.138 245.546C89.9284 245.705 89.6723 245.791 89.4092 245.79C88.5192 245.79 88.0792 244.62 88.0792 242.29C87.915 239.003 87.3474 235.749 86.3892 232.6C85.8292 230.52 85.4692 229.12 85.3092 228.38C85.3092 230.38 85.2392 231.89 85.2392 232.91L85.5492 248.34C85.5523 248.867 85.3475 249.373 84.9792 249.75C84.7245 249.782 84.466 249.741 84.234 249.631C84.002 249.521 83.8061 249.347 83.6692 249.13C83.4176 248.604 83.3007 248.023 83.3292 247.44L83.5492 241.38ZM108.019 248.6C108.046 248.77 108.032 248.943 107.98 249.107C107.927 249.271 107.837 249.42 107.717 249.542C107.596 249.665 107.448 249.757 107.286 249.813C107.123 249.868 106.949 249.884 106.779 249.86C106.009 249.86 105.619 249.54 105.619 248.86V244C105.028 243.671 104.38 243.457 103.709 243.37C102.893 243.215 102.068 243.105 101.239 243.04C100.926 243.638 100.713 244.283 100.609 244.95L100.099 247.46C99.9692 248.16 99.7296 248.835 99.3892 249.46C98.4092 249.46 97.8592 249.21 97.7392 248.71C98.0792 248.223 98.6359 245.723 99.4092 241.21C100.183 236.697 100.816 233.17 101.309 230.63C101.702 228.458 102.237 226.313 102.909 224.21C103.476 222.47 104.026 221.6 104.559 221.6C104.988 221.573 105.414 221.689 105.769 221.93C105.769 222.83 106.013 225.243 106.499 229.17C106.986 233.097 107.229 235.64 107.229 236.8C107.229 237.96 107.363 239.88 107.629 242.56C107.896 245.24 108.026 247.24 108.019 248.56V248.6ZM105.579 241.69C105.579 241.19 105.419 239.83 105.199 237.61C104.979 235.39 104.779 233.28 104.599 231.27C104.419 229.26 104.339 228.05 104.339 227.62C104.322 227.38 104.322 227.14 104.339 226.9C103.949 227.3 103.339 229.55 102.639 233.63C101.939 237.71 101.509 240.29 101.459 241.38C102.308 241.631 103.185 241.772 104.069 241.8C104.568 241.815 105.068 241.779 105.559 241.69H105.579ZM110.359 230.22L110.609 223.33V223.09C110.609 221.84 110.889 221.22 111.439 221.22C111.989 221.22 112.609 222.38 113.439 224.7C115.694 231.542 117.543 238.511 118.979 245.57V245.76L119.129 232.67V221.57C119.176 221.286 119.329 221.031 119.558 220.856C119.787 220.682 120.073 220.601 120.359 220.63C121.029 220.63 121.359 221.12 121.359 222.1V222.32C121.202 222.665 121.127 223.041 121.139 223.42L120.899 237.29V248.76C120.892 249.153 120.785 249.539 120.589 249.88C120.525 250.034 120.418 250.167 120.282 250.264C120.146 250.362 119.986 250.419 119.819 250.43C119.286 250.43 118.259 247.853 116.739 242.7C115.219 237.547 113.709 232.01 112.209 226.09V238.41C112.209 239.61 112.299 241.41 112.479 243.76C112.659 246.11 112.739 247.91 112.739 249.11C112.73 249.236 112.686 249.357 112.612 249.46C112.538 249.562 112.436 249.642 112.319 249.69C111.987 249.853 111.619 249.932 111.249 249.92C110.819 249.92 110.599 249.72 110.599 249.33L110.779 246.64C110.779 245.307 110.699 243.203 110.539 240.33C110.379 237.42 110.309 235.65 110.309 235L110.359 230.22ZM128.149 223.46H127.489C127.297 223.446 127.106 223.499 126.949 223.61C126.815 223.787 126.755 224.009 126.779 224.23C126.779 226.67 126.933 230.337 127.239 235.23C127.539 240.11 127.699 243.77 127.699 246.23V247.68C127.954 247.64 128.211 247.62 128.469 247.62C129.469 247.62 130.019 248.06 130.019 248.94V249.16L129.089 249.8L126.539 249.89C124.379 249.89 123.299 249.52 123.299 248.78C123.299 248.18 123.679 247.88 124.429 247.88L125.219 247.93C125.589 247.93 125.769 247.64 125.769 247.05C125.769 245.12 125.659 242.23 125.419 238.38C125.179 234.53 125.079 231.63 125.079 229.7L125.149 225.87C125.154 225.172 125.124 224.475 125.059 223.78C124.777 223.882 124.48 223.94 124.179 223.95C124.058 223.965 123.935 223.952 123.82 223.912C123.705 223.872 123.601 223.806 123.516 223.718C123.431 223.631 123.367 223.526 123.329 223.41C123.292 223.294 123.281 223.171 123.299 223.05C123.317 222.879 123.379 222.715 123.479 222.575C123.579 222.435 123.713 222.323 123.869 222.25C124.305 222.003 124.783 221.84 125.279 221.77C126.047 221.614 126.826 221.52 127.609 221.49C127.997 221.454 128.385 221.561 128.699 221.79C128.803 221.879 128.887 221.989 128.944 222.114C129.001 222.238 129.03 222.373 129.029 222.51C129.034 222.767 128.949 223.018 128.789 223.22C128.707 223.304 128.606 223.369 128.496 223.411C128.385 223.452 128.267 223.469 128.149 223.46ZM135.929 236.14H134.989C134.849 236.124 134.707 236.14 134.573 236.187C134.44 236.234 134.319 236.31 134.219 236.41V248L136.309 247.9C137.739 247.9 138.449 248.22 138.449 248.9V249C138.263 249.359 137.954 249.639 137.579 249.79C137.232 249.953 136.86 250.058 136.479 250.1C136.159 250.1 135.749 250.1 135.249 250.1H134.079C133.149 250.1 132.569 249.92 132.349 249.55C132.244 249.339 132.196 249.105 132.209 248.87V227.06C132.18 226.42 132.093 225.784 131.949 225.16C131.805 224.529 131.718 223.887 131.689 223.24V223.11C131.95 222.635 132.265 222.192 132.629 221.79L135.409 221.46C135.816 221.467 136.214 221.584 136.559 221.8C136.73 221.879 136.875 222.004 136.977 222.162C137.08 222.319 137.136 222.502 137.139 222.69C137.139 223.43 136.569 223.8 135.429 223.8H134.349H133.949L134.239 230C134.239 230.5 134.209 231.23 134.149 232.19C134.089 233.15 134.059 233.85 134.059 234.29L134.609 234.16C134.999 234.042 135.402 233.975 135.809 233.96C136.096 233.961 136.372 234.072 136.579 234.27C136.686 234.364 136.771 234.479 136.83 234.608C136.889 234.738 136.919 234.878 136.919 235.02C136.918 235.307 136.819 235.586 136.639 235.81C136.555 235.917 136.447 236.002 136.323 236.059C136.2 236.117 136.065 236.144 135.929 236.14Z" fill="#231F20"/>
<path d="M11.1699 136.8H29.0899C29.0899 136.8 31.0099 181.94 29.0899 181.94H11.1699V136.8Z" fill="#BDC0C0"/>
<path d="M9.57984 138.44L9.18984 172.35C9.18984 175.06 9.08984 177.78 9.08984 180.49C9.08984 181.9 9.27984 183.26 11.0898 183.81C13.3298 184.51 16.6398 183.87 18.9798 183.81C22.4198 183.67 25.8532 183.483 29.2798 183.25C29.6045 183.265 29.9228 183.157 30.1712 182.948C30.4197 182.738 30.5799 182.443 30.6198 182.12C31.9305 171.07 32.2384 159.925 31.5398 148.82C31.3665 146.153 31.1365 143.487 30.8498 140.82C30.6998 139.46 30.9498 137.41 29.2098 136.7C27.2098 135.88 23.9598 136.21 21.7398 136.06L11.3198 135.37C9.60984 135.25 9.61984 137.52 11.3198 137.63L19.6598 138.19C21.6598 138.32 26.9498 137.88 28.0198 139.49C28.5298 140.26 28.3198 142.15 28.3998 143.04C28.5198 144.22 28.6198 145.4 28.7098 146.58C28.8898 148.95 29.0298 151.32 29.1098 153.68C29.4586 163.169 29.0707 172.671 27.9498 182.1L29.2398 181C26.4998 181.187 23.7532 181.343 20.9998 181.47C19.6298 181.54 18.2498 181.59 16.8698 181.64C15.8698 181.64 13.6598 182.09 12.7498 181.75C10.7998 181 11.7998 176.16 11.7998 174.61L11.8898 167.38L12.2198 138.44C12.2198 136.98 9.56984 136.98 9.54984 138.44" fill="#231F20"/>
<path d="M43.9297 116H61.7997C61.7997 116 63.7097 182 61.7997 182H43.9297V116Z" fill="#BDC0C0"/>
<path d="M44.5302 115.24C41.5903 137.424 41.1509 159.868 43.2202 182.15C43.2554 182.473 43.4126 182.771 43.6596 182.983C43.9067 183.195 44.2251 183.305 44.5502 183.29C50.8757 183.86 57.2434 183.77 63.5502 183.02C63.8162 182.98 64.0603 182.849 64.2422 182.651C64.4241 182.453 64.5327 182.198 64.5502 181.93L63.9802 136.7C63.9802 133.08 63.8902 129.46 63.8502 125.85C63.8502 123.12 64.3302 119.85 63.0402 117.21C62.0402 115.21 59.9302 114.29 57.4102 114.21C53.1702 114.07 48.7902 114.55 44.5502 114.73C44.3922 114.715 44.2328 114.733 44.0823 114.784C43.9318 114.834 43.7934 114.915 43.6761 115.022C43.5587 115.129 43.465 115.259 43.4008 115.404C43.3367 115.549 43.3035 115.706 43.3035 115.865C43.3035 116.024 43.3367 116.181 43.4008 116.326C43.465 116.471 43.5587 116.601 43.6761 116.708C43.7934 116.815 43.9318 116.896 44.0823 116.946C44.2328 116.997 44.3922 117.015 44.5502 117C48.3202 116.84 52.0902 116.63 55.8602 116.51C57.8602 116.45 59.7902 116.51 60.6402 118.24C61.0851 119.524 61.2555 120.886 61.1402 122.24C61.2302 128.87 61.3002 135.5 61.3902 142.14C61.5502 155.4 61.7135 168.667 61.8802 181.94L62.8802 180.85C56.806 181.54 50.6768 181.6 44.5902 181.03L45.9202 182.16C43.8592 159.877 44.3019 137.434 47.2402 115.25C47.4302 113.81 44.7602 113.82 44.5702 115.25" fill="#231F20"/>
<path d="M89.9509 92.91C89.7043 122.57 89.4576 152.237 89.2109 181.91C89.2109 183.37 91.7609 183.37 91.7809 181.91C92.0209 152.25 92.2643 122.583 92.5109 92.91C92.5109 91.44 89.9609 91.44 89.9509 92.91Z" fill="#231F20"/>
<path d="M91.9009 93.09L109.581 93.68C109.739 93.6948 109.898 93.6765 110.049 93.6263C110.199 93.576 110.338 93.4948 110.455 93.388C110.572 93.2811 110.666 93.151 110.73 93.0058C110.794 92.8607 110.828 92.7037 110.828 92.545C110.828 92.3863 110.794 92.2293 110.73 92.0842C110.666 91.939 110.572 91.8089 110.455 91.702C110.338 91.5952 110.199 91.514 110.049 91.4637C109.898 91.4135 109.739 91.3952 109.581 91.41L91.9009 90.82C91.7429 90.8052 91.5836 90.8235 91.4331 90.8738C91.2825 90.924 91.1442 91.0052 91.0268 91.112C90.9095 91.2189 90.8157 91.349 90.7516 91.4942C90.6874 91.6394 90.6543 91.7963 90.6543 91.955C90.6543 92.1137 90.6874 92.2707 90.7516 92.4158C90.8157 92.561 90.9095 92.6911 91.0268 92.798C91.1442 92.9048 91.2825 92.986 91.4331 93.0363C91.5836 93.0865 91.7429 93.1048 91.9009 93.09Z" fill="#231F20"/>
<path d="M108.86 92.22C109.6 121.993 109.6 151.767 108.86 181.54C108.86 183.01 111.39 183.01 111.42 181.54C112.146 151.78 112.146 122.007 111.42 92.22C111.42 90.77 108.82 90.76 108.86 92.22Z" fill="#231F20"/>
<path d="M91.5103 182.87L100.59 183.28C103.42 183.41 106.33 183.64 109.06 182.82C109.349 182.73 109.591 182.529 109.731 182.26C109.872 181.992 109.9 181.679 109.81 181.39C109.72 181.101 109.519 180.859 109.251 180.719C108.982 180.578 108.669 180.55 108.38 180.64C105.77 181.42 102.96 181.12 100.25 181L91.5103 180.6C91.3523 180.585 91.193 180.603 91.0424 180.654C90.8919 180.704 90.7535 180.785 90.6362 180.892C90.5189 180.999 90.4251 181.129 90.361 181.274C90.2968 181.419 90.2637 181.576 90.2637 181.735C90.2637 181.894 90.2968 182.051 90.361 182.196C90.4251 182.341 90.5189 182.471 90.6362 182.578C90.7535 182.685 90.8919 182.766 91.0424 182.816C91.193 182.867 91.3523 182.885 91.5103 182.87Z" fill="#231F20"/>
<path d="M144.181 52.86C142.471 60.76 142.481 68.75 142.511 76.74C142.551 85.0533 142.588 93.3666 142.621 101.68L142.831 152.46L142.951 181.03C142.951 182.49 145.681 182.49 145.671 181.03L145.251 81.28C145.251 72 144.821 62.63 146.791 53.47C147.101 52.04 144.491 51.47 144.181 52.86Z" fill="#231F20"/>
<path d="M124.73 183.41H145.54C145.704 183.437 145.873 183.428 146.033 183.383C146.194 183.338 146.343 183.259 146.47 183.151C146.597 183.043 146.699 182.909 146.769 182.758C146.839 182.606 146.875 182.442 146.875 182.275C146.875 182.108 146.839 181.944 146.769 181.792C146.699 181.641 146.597 181.507 146.47 181.399C146.343 181.291 146.194 181.212 146.033 181.167C145.873 181.122 145.704 181.113 145.54 181.14H124.73C124.565 181.113 124.397 181.122 124.236 181.167C124.076 181.212 123.927 181.291 123.8 181.399C123.673 181.507 123.571 181.641 123.501 181.792C123.431 181.944 123.395 182.108 123.395 182.275C123.395 182.442 123.431 182.606 123.501 182.758C123.571 182.909 123.673 183.043 123.8 183.151C123.927 183.259 124.076 183.338 124.236 183.383C124.397 183.428 124.565 183.437 124.73 183.41Z" fill="#231F20"/>
<path d="M126.14 180.3C125.08 147.18 124.54 114.14 125.96 81.02C126.354 71.6867 126.75 62.3867 127.15 53.12C127.21 51.66 124.49 51.66 124.43 53.12C123.73 69.51 122.88 85.9 122.43 102.3C121.98 118.7 122.17 135.37 122.57 151.9C122.8 161.37 123.11 170.83 123.41 180.3C123.41 181.76 126.18 181.76 126.13 180.3" fill="#231F20"/>
<path d="M126.999 54.36C127.976 53.8079 129.077 53.5121 130.199 53.5C131.649 53.39 133.109 53.33 134.569 53.32C137.532 53.2963 140.493 53.4834 143.429 53.88L142.609 53.36C142.789 53.58 142.969 53.8 143.139 54.03C144.139 55.24 146.449 54.11 145.489 52.88C145.283 52.5221 144.993 52.219 144.645 51.9962C144.297 51.7735 143.901 51.6376 143.489 51.6C142.556 51.48 141.626 51.38 140.699 51.3C138.909 51.14 137.099 51.06 135.289 51.05C133.479 51.04 131.729 51.05 129.959 51.25C128.451 51.28 126.972 51.6746 125.649 52.4C125.069 52.78 124.769 53.4 125.169 53.95C125.387 54.2185 125.69 54.4053 126.028 54.4797C126.365 54.5542 126.718 54.512 127.029 54.36" fill="#231F20"/>
<path d="M22.7997 178.19C22.7997 177.84 22.7997 177.61 22.7997 177.5V176.56C22.7997 176.29 22.7997 176.06 22.7997 175.86C22.7997 175.36 22.7997 174.86 22.7997 174.5C22.7873 174.342 22.8095 174.183 22.8648 174.035C22.9201 173.886 23.0071 173.751 23.1197 173.64C23.3496 173.451 23.6432 173.358 23.9397 173.38C24.113 173.38 24.243 173.49 24.3297 173.71C24.4216 173.921 24.466 174.15 24.4597 174.38C24.4597 174.57 24.4597 174.98 24.3797 175.59C24.2997 176.2 24.2697 176.91 24.2597 177.34C24.2464 177.606 24.2464 177.874 24.2597 178.14C24.2597 178.26 24.2597 178.41 24.2597 178.59C24.2597 178.77 24.2597 178.96 24.2597 179.17C24.2708 179.494 24.2058 179.816 24.0697 180.11C24.009 180.218 23.9175 180.305 23.8071 180.36C23.6966 180.415 23.5722 180.436 23.4497 180.42C23.1605 180.407 22.8848 180.294 22.6697 180.1C22.3374 179.828 22.0234 179.534 21.7297 179.22L21.3597 178.84C21.1897 178.68 20.8997 178.37 20.4897 177.92C19.9692 177.3 19.4044 176.718 18.7997 176.18C18.3935 175.806 17.8708 175.584 17.3197 175.55C17.1609 175.547 17.0042 175.586 16.8654 175.664C16.7267 175.741 16.6109 175.853 16.5297 175.99C16.3287 176.285 16.2176 176.633 16.2097 176.99C16.1578 177.452 16.2908 177.916 16.5797 178.28C16.7296 178.423 16.9074 178.533 17.1018 178.603C17.2963 178.674 17.5033 178.703 17.7097 178.69C17.7776 178.7 17.8425 178.725 17.8996 178.763C17.9567 178.801 18.0046 178.851 18.0397 178.91C18.1373 179.065 18.1829 179.247 18.1697 179.43C18.1796 179.548 18.1557 179.666 18.1007 179.77C18.0458 179.875 17.9622 179.961 17.8597 180.02C17.6232 180.135 17.3623 180.189 17.0997 180.18C16.6439 180.177 16.2029 180.018 15.8497 179.73C15.4749 179.406 15.1863 178.993 15.0097 178.53C14.8116 178 14.7166 177.436 14.7297 176.87C14.7536 176.393 14.873 175.927 15.0809 175.497C15.2887 175.068 15.5808 174.684 15.9397 174.37C16.2576 174.076 16.6764 173.914 17.1097 173.92C17.7503 173.93 18.3774 174.105 18.9297 174.43C19.4809 174.742 19.9886 175.125 20.4397 175.57C20.8797 176.01 21.4397 176.57 21.9897 177.26C22.2597 177.59 22.5197 177.89 22.7597 178.15L22.7997 178.19ZM15.6097 165.6C16.2385 165.744 16.8594 165.921 17.4697 166.13C18.0797 166.34 18.7797 166.61 19.5797 166.93C20.6879 167.38 21.8196 167.771 22.9697 168.1C23.407 168.228 23.8294 168.402 24.2297 168.62C24.4797 168.78 24.6097 168.96 24.5997 169.16C24.5683 169.405 24.4637 169.635 24.2997 169.82C24.1851 169.897 24.0473 169.933 23.9097 169.92C23.7095 169.906 23.5115 169.869 23.3197 169.81L22.4497 169.53L21.8997 169.33C21.2934 169.127 20.6992 168.89 20.1197 168.62C19.5497 168.38 18.9997 168.15 18.4697 167.95C17.9397 167.75 17.2997 167.56 16.5597 167.36C16.7267 167.89 16.8077 168.444 16.7997 169C16.7869 169.392 16.7468 169.783 16.6797 170.17C16.6218 170.477 16.585 170.788 16.5697 171.1C16.8698 171.057 17.1647 170.983 17.4497 170.88C17.7666 170.741 18.1047 170.656 18.4497 170.63C18.5744 170.638 18.6918 170.691 18.7797 170.78C18.8315 170.842 18.8698 170.914 18.8922 170.991C18.9145 171.069 18.9205 171.15 18.9097 171.23C18.9176 171.344 18.8981 171.457 18.8529 171.562C18.8076 171.666 18.738 171.758 18.6497 171.83C18.4732 171.973 18.2737 172.084 18.0597 172.16L17.5997 172.35C17.2761 172.485 16.9416 172.592 16.5997 172.67C16.288 172.741 15.9694 172.778 15.6497 172.78C15.4955 172.778 15.3455 172.729 15.2197 172.64C15.1665 172.607 15.1223 172.562 15.0909 172.508C15.0595 172.453 15.0419 172.392 15.0397 172.33C15.0397 172.18 15.1097 171.95 15.1697 171.64C15.2597 171.15 15.3397 170.74 15.3897 170.4C15.4417 170.046 15.4717 169.688 15.4797 169.33C15.534 168.578 15.3746 167.826 15.0197 167.16C14.9737 167.06 14.9531 166.95 14.9597 166.84C14.9732 166.562 15.0447 166.289 15.1697 166.04C15.303 165.78 15.463 165.65 15.6497 165.65L15.6097 165.6ZM15.4897 157.94C16.0835 157.964 16.6717 158.065 17.2397 158.24C17.8997 158.44 18.7097 158.71 19.6697 159.07L20.7297 159.44C20.7607 159.261 20.7807 159.081 20.7897 158.9C20.7897 158.58 20.7897 158.1 20.7197 157.46C20.6497 156.82 20.6397 156.37 20.6497 156.09H18.9497H16.3597C15.6297 156.09 15.2697 155.83 15.2797 155.35C15.2897 154.87 15.3897 154.72 15.5797 154.62C15.8617 154.505 16.1656 154.454 16.4697 154.47C16.8697 154.47 17.4697 154.52 18.3297 154.6L19.1497 154.66C19.5297 154.66 19.8597 154.66 20.1497 154.71H20.6497V154.4C20.6365 154.21 20.6365 154.02 20.6497 153.83C20.6501 153.575 20.7384 153.328 20.8997 153.13C20.9567 153.029 21.0396 152.945 21.1398 152.887C21.24 152.829 21.3539 152.799 21.4697 152.8C21.6765 152.791 21.8824 152.832 22.0697 152.92C22.2097 153 22.2797 153.09 22.2797 153.2C22.267 153.421 22.2403 153.642 22.1997 153.86C22.1997 153.92 22.1997 154.01 22.1997 154.13C22.1906 154.25 22.1906 154.37 22.1997 154.49V154.75H24.2797C24.3738 154.746 24.4674 154.765 24.5526 154.805C24.6379 154.846 24.7123 154.905 24.7697 154.98C24.877 155.12 24.9334 155.293 24.9297 155.47C24.9314 155.692 24.8493 155.906 24.6997 156.07C24.6367 156.152 24.5546 156.218 24.4605 156.262C24.3665 156.305 24.2632 156.325 24.1597 156.32C23.4697 156.32 22.9297 156.32 22.5397 156.27C22.4265 156.263 22.3129 156.263 22.1997 156.27C22.1963 156.808 22.223 157.345 22.2797 157.88C22.3497 158.6 22.3797 159.15 22.3797 159.52C22.3837 159.927 22.309 160.331 22.1597 160.71C22.1166 160.848 22.03 160.968 21.9128 161.053C21.7957 161.138 21.6543 161.182 21.5097 161.18C21.1696 161.167 20.833 161.106 20.5097 161C20.1097 160.88 19.5697 160.7 18.8997 160.46C18.6264 160.353 18.4064 160.273 18.2397 160.22C17.8059 160.046 17.3617 159.899 16.9097 159.78L15.5797 159.44C15.5054 159.423 15.4352 159.391 15.3734 159.347C15.3115 159.302 15.2593 159.245 15.2197 159.18C15.1379 159.037 15.0965 158.875 15.0997 158.71C15.1046 158.534 15.1527 158.363 15.2397 158.21C15.2725 158.145 15.3224 158.09 15.3841 158.051C15.4458 158.013 15.5169 157.991 15.5897 157.99L15.4897 157.94ZM15.0997 143.36C15.0959 143.295 15.1109 143.23 15.1428 143.174C15.1747 143.117 15.2222 143.071 15.2797 143.04C15.3922 142.966 15.5256 142.931 15.6597 142.94C15.8785 142.956 16.0858 143.044 16.2497 143.19L17.0097 143.81C18.5164 145.01 19.7697 145.973 20.7697 146.7C21.8238 147.463 22.9188 148.167 24.0497 148.81C24.6564 149.137 24.9564 149.507 24.9497 149.92C24.952 150.095 24.8995 150.266 24.7997 150.41C24.7388 150.485 24.6603 150.543 24.5713 150.58C24.4822 150.616 24.3855 150.63 24.2897 150.62C24.1497 150.614 24.0158 150.561 23.9097 150.47C23.4297 150.12 22.5397 149.47 21.2397 148.6C19.9397 147.73 19.0497 147.06 18.2397 146.51C17.4297 145.96 16.7697 145.41 16.1497 144.89L15.7597 144.58C15.5623 144.423 15.3932 144.234 15.2597 144.02C15.1265 143.826 15.0566 143.595 15.0597 143.36H15.0997ZM15.1597 149.47C15.1755 149.14 15.2571 148.817 15.3997 148.52C15.542 148.209 15.7542 147.935 16.0197 147.72C16.2674 147.517 16.5798 147.411 16.8997 147.42C17.3293 147.418 17.7524 147.525 18.1297 147.73C18.4837 147.919 18.7781 148.203 18.9797 148.55C19.19 148.888 19.2945 149.282 19.2797 149.68C19.2891 149.966 19.2399 150.252 19.135 150.518C19.0301 150.785 18.8717 151.027 18.6697 151.23C18.4665 151.423 18.2259 151.572 17.9627 151.669C17.6996 151.765 17.4195 151.806 17.1397 151.79C16.8596 151.799 16.5809 151.747 16.3234 151.636C16.0659 151.525 15.8359 151.359 15.6497 151.15C15.2885 150.668 15.1144 150.071 15.1597 149.47ZM18.0997 149.86C18.0997 149.12 17.7297 148.74 16.9397 148.73C16.8551 148.72 16.7695 148.734 16.692 148.769C16.6145 148.804 16.5481 148.86 16.4997 148.93C16.3936 149.13 16.3419 149.354 16.3497 149.58C16.3369 149.715 16.3515 149.851 16.3928 149.98C16.434 150.109 16.501 150.228 16.5897 150.33C16.6614 150.414 16.7503 150.482 16.8503 150.528C16.9504 150.575 17.0593 150.599 17.1697 150.6C17.4001 150.601 17.6245 150.527 17.8097 150.39C17.8986 150.333 17.9717 150.255 18.0224 150.162C18.0731 150.069 18.0996 149.966 18.0997 149.86ZM22.8697 142.11C23.252 142.106 23.6248 142.229 23.9297 142.46C24.2444 142.688 24.4929 142.995 24.6497 143.35C24.8178 143.71 24.8999 144.103 24.8897 144.5C24.8911 144.836 24.7975 145.165 24.6197 145.45C24.4526 145.759 24.2036 146.015 23.9002 146.192C23.5968 146.368 23.2506 146.457 22.8997 146.45C22.5235 146.441 22.1555 146.338 21.8297 146.15C21.4884 145.949 21.2084 145.658 21.0197 145.31C20.8048 144.922 20.701 144.483 20.7197 144.04C20.7051 143.775 20.7486 143.509 20.847 143.262C20.9455 143.015 21.0965 142.793 21.2897 142.61C21.7394 142.263 22.3039 142.098 22.8697 142.15V142.11ZM21.8697 144.11C21.8552 144.369 21.9332 144.624 22.0897 144.83C22.181 144.928 22.2931 145.004 22.4177 145.052C22.5424 145.101 22.6764 145.12 22.8097 145.11C23.0506 145.133 23.2909 145.061 23.4797 144.91C23.5483 144.853 23.6048 144.783 23.646 144.704C23.6873 144.625 23.7123 144.539 23.7197 144.45C23.7197 143.66 23.3797 143.26 22.7197 143.24C22.6138 143.235 22.508 143.253 22.4097 143.293C22.3114 143.333 22.2227 143.393 22.1497 143.47C21.9923 143.645 21.9097 143.875 21.9197 144.11H21.8697ZM24.6697 164.11C24.6783 164.199 24.6533 164.288 24.5997 164.36C24.5251 164.485 24.4266 164.594 24.3097 164.68C24.1614 164.776 23.986 164.822 23.8097 164.81C23.6671 164.794 23.5283 164.754 23.3997 164.69C23.2878 164.631 23.1996 164.536 23.1497 164.42C23.0304 164.16 22.9788 163.875 22.9997 163.59C22.9974 163.475 23.0214 163.361 23.0699 163.257C23.1185 163.153 23.1902 163.062 23.2797 162.99C23.4663 162.84 23.7005 162.762 23.9397 162.77C24.3092 162.793 24.6701 162.891 24.9997 163.06C25.3342 163.204 25.6499 163.389 25.9397 163.61C26.094 163.744 26.2287 163.899 26.3397 164.07C26.4332 164.199 26.4886 164.351 26.4997 164.51C26.4997 164.76 26.4997 164.92 26.3697 164.98C26.2497 165.062 26.104 165.097 25.9597 165.08C25.8797 165.08 25.7597 164.96 25.5797 164.74C25.4829 164.624 25.3794 164.514 25.2697 164.41C25.0854 164.271 24.8837 164.157 24.6697 164.07V164.11Z" fill="#231F20"/>
<path d="M97.0207 175.5C97.3942 175.592 97.7762 175.646 98.1607 175.66C98.4691 175.68 98.7763 175.716 99.0807 175.77C98.9691 175.498 98.8951 175.212 98.8607 174.92C98.8338 174.587 98.8338 174.253 98.8607 173.92C98.8576 173.333 99.0206 172.758 99.3307 172.26C99.6206 171.802 100.033 171.435 100.521 171.2C101.011 170.968 101.548 170.851 102.091 170.86C102.392 170.882 102.687 170.96 102.961 171.09C103.256 171.206 103.535 171.361 103.791 171.55C104.211 171.892 104.555 172.318 104.801 172.8C105.042 173.28 105.162 173.813 105.151 174.35C105.144 174.741 105.076 175.129 104.951 175.5C104.812 175.877 104.642 176.242 104.441 176.59C104.274 176.919 104.042 177.212 103.761 177.45C103.505 177.632 103.195 177.724 102.881 177.71C102.791 177.706 102.704 177.681 102.626 177.638C102.548 177.594 102.481 177.534 102.431 177.46C102.33 177.327 102.27 177.167 102.261 177C102.262 176.911 102.29 176.824 102.341 176.75L102.661 176.41L103.041 176.03C103.23 175.809 103.388 175.564 103.511 175.3C103.626 175.021 103.683 174.722 103.681 174.42C103.696 174.155 103.659 173.89 103.571 173.64C103.451 173.293 103.252 172.978 102.991 172.72C102.651 172.459 102.228 172.331 101.801 172.36C101.57 172.344 101.339 172.381 101.126 172.47C100.912 172.558 100.722 172.695 100.571 172.87C100.217 173.386 100.051 174.007 100.101 174.63C100.105 174.799 100.132 174.968 100.181 175.13C100.241 175.35 100.301 175.56 100.371 175.76C100.48 176.058 100.557 176.366 100.601 176.68C100.594 176.842 100.526 176.996 100.411 177.11C100.349 177.18 100.271 177.235 100.184 177.269C100.098 177.304 100.004 177.318 99.9107 177.31C98.8819 177.138 97.843 177.035 96.8007 177H96.4107C96.2576 177.014 96.1037 177.014 95.9507 177C95.858 177.001 95.7675 176.972 95.6921 176.918C95.6166 176.864 95.5602 176.788 95.5307 176.7C95.4369 176.503 95.3891 176.288 95.3907 176.07C95.3907 175.88 95.3907 175.48 95.5107 174.87L95.5807 174.13C95.5883 173.99 95.5883 173.85 95.5807 173.71V173.14C95.5807 173.03 95.5807 172.86 95.5807 172.65C95.5809 172.386 95.6318 172.125 95.7307 171.88C95.7649 171.787 95.8281 171.708 95.911 171.654C95.9939 171.6 96.0919 171.574 96.1907 171.58C96.4315 171.563 96.6718 171.619 96.8807 171.74C96.9415 171.779 96.9923 171.832 97.0288 171.895C97.0653 171.957 97.0865 172.028 97.0907 172.1C97.0786 172.308 97.0552 172.515 97.0207 172.72C96.966 173.165 96.9359 173.612 96.9307 174.06C96.9307 174.42 96.9307 174.9 96.9307 175.49L97.0207 175.5ZM97.1607 167.41C97.5351 167.497 97.9167 167.551 98.3007 167.57C98.6093 167.582 98.9167 167.615 99.2207 167.67C99.1091 167.398 99.0351 167.112 99.0007 166.82C98.9786 166.487 98.9786 166.153 99.0007 165.82C98.9973 165.237 99.1604 164.664 99.4707 164.17C99.7576 163.71 100.171 163.342 100.661 163.11C101.148 162.869 101.687 162.749 102.231 162.76C102.532 162.787 102.826 162.865 103.101 162.99C103.397 163.109 103.676 163.267 103.931 163.46C104.374 163.798 104.739 164.227 105.001 164.72C105.242 165.2 105.362 165.733 105.351 166.27C105.35 166.662 105.283 167.051 105.151 167.42C105.014 167.796 104.847 168.161 104.651 168.51C104.48 168.84 104.245 169.132 103.961 169.37C103.705 169.554 103.395 169.645 103.081 169.63C102.991 169.628 102.903 169.604 102.825 169.561C102.746 169.517 102.68 169.455 102.631 169.38C102.528 169.248 102.469 169.087 102.461 168.92C102.465 168.833 102.496 168.749 102.551 168.68C102.645 168.556 102.749 168.439 102.861 168.33L103.241 167.95C103.435 167.733 103.594 167.487 103.711 167.22C103.831 166.943 103.889 166.642 103.881 166.34C103.898 166.078 103.861 165.816 103.771 165.57C103.653 165.219 103.455 164.9 103.191 164.64C102.85 164.383 102.427 164.258 102.001 164.29C101.771 164.275 101.541 164.312 101.328 164.399C101.115 164.485 100.925 164.619 100.771 164.79C100.416 165.309 100.25 165.934 100.301 166.56C100.311 166.726 100.338 166.89 100.381 167.05C100.441 167.27 100.501 167.48 100.571 167.69C100.686 167.982 100.763 168.288 100.801 168.6C100.796 168.763 100.728 168.917 100.611 169.03C100.548 169.099 100.47 169.154 100.384 169.191C100.298 169.227 100.204 169.244 100.111 169.24C99.0904 169.053 98.0575 168.942 97.0207 168.91H96.6307H96.1707C96.0779 168.906 95.9884 168.874 95.9137 168.819C95.8389 168.764 95.7822 168.687 95.7507 168.6C95.6594 168.402 95.6117 168.188 95.6107 167.97C95.6107 167.79 95.6507 167.39 95.7307 166.77L95.8007 166C95.8007 165.907 95.8007 165.767 95.8007 165.58V165.01C95.8007 164.9 95.8007 164.74 95.8007 164.52C95.8 164.255 95.8545 163.993 95.9607 163.75C95.9944 163.659 96.0561 163.581 96.1369 163.527C96.2178 163.473 96.3136 163.446 96.4107 163.45C96.6526 163.436 96.8931 163.495 97.1007 163.62C97.1627 163.658 97.2143 163.711 97.251 163.774C97.2876 163.836 97.3081 163.907 97.3107 163.98C97.2979 164.184 97.2746 164.388 97.2407 164.59C97.1863 165.035 97.1563 165.482 97.1507 165.93C97.1507 166.29 97.1507 166.77 97.1507 167.37L97.1607 167.41ZM95.8007 141.2C95.7982 141.136 95.8126 141.073 95.8425 141.017C95.8723 140.961 95.9166 140.914 95.9707 140.88C96.0883 140.81 96.2237 140.775 96.3607 140.78C96.5794 140.792 96.7859 140.885 96.9407 141.04L97.7007 141.65C99.2107 142.85 100.471 143.81 101.461 144.54C102.514 145.304 103.609 146.008 104.741 146.65C105.351 146.98 105.651 147.35 105.651 147.76C105.647 147.936 105.591 148.106 105.491 148.25C105.433 148.325 105.356 148.384 105.268 148.421C105.181 148.458 105.085 148.471 104.991 148.46C104.919 148.463 104.847 148.451 104.78 148.425C104.713 148.399 104.652 148.36 104.601 148.31C104.131 147.97 103.241 147.31 101.941 146.45L98.9407 144.35C98.1807 143.8 97.4807 143.26 96.8507 142.73L96.4707 142.43C96.2752 142.268 96.1035 142.08 95.9607 141.87C95.8302 141.671 95.7639 141.438 95.7707 141.2H95.8007ZM95.8607 147.31C95.8666 146.983 95.9452 146.662 96.0907 146.37C96.2336 146.06 96.4457 145.786 96.7107 145.57C96.9595 145.368 97.2704 145.259 97.5907 145.26C98.021 145.262 98.4441 145.372 98.8207 145.58C99.1747 145.768 99.4717 146.048 99.6807 146.39C99.9148 146.813 100.011 147.299 99.9553 147.78C99.8997 148.26 99.6953 148.711 99.3707 149.07C99.1692 149.266 98.9289 149.416 98.6653 149.513C98.4017 149.609 98.1207 149.649 97.8407 149.63C97.5607 149.645 97.281 149.597 97.0227 149.488C96.7645 149.378 96.5346 149.212 96.3507 149C95.9912 148.513 95.8174 147.914 95.8607 147.31ZM99.3107 153.76C99.4838 152.974 99.8755 152.253 100.441 151.68C100.688 151.424 100.985 151.221 101.313 151.083C101.642 150.946 101.995 150.877 102.351 150.88C102.79 150.892 103.221 151.005 103.611 151.21C104.249 151.536 104.762 152.063 105.071 152.71C105.396 153.421 105.55 154.199 105.521 154.98C105.518 155.474 105.408 155.962 105.201 156.41C104.974 156.854 104.692 157.267 104.361 157.64C104.188 157.819 103.975 157.956 103.741 158.04C103.532 158.143 103.303 158.2 103.071 158.21C102.872 158.212 102.68 158.141 102.531 158.01C102.463 157.942 102.41 157.861 102.376 157.771C102.341 157.682 102.326 157.586 102.331 157.49C102.322 157.306 102.379 157.126 102.491 156.98C102.645 156.82 102.812 156.673 102.991 156.54C103.178 156.407 103.355 156.26 103.521 156.1C103.664 155.945 103.78 155.765 103.861 155.57C103.968 155.3 104.019 155.011 104.011 154.72C104.063 154.136 103.891 153.553 103.531 153.09C103.354 152.889 103.135 152.73 102.889 152.625C102.644 152.519 102.378 152.47 102.111 152.48C101.969 152.488 101.831 152.526 101.705 152.591C101.579 152.657 101.468 152.749 101.381 152.86C101.17 153.067 100.994 153.307 100.861 153.57C100.746 153.803 100.668 154.053 100.631 154.31C100.534 154.68 100.407 155.041 100.251 155.39C100.202 155.499 100.122 155.591 100.02 155.654C99.9183 155.716 99.7999 155.746 99.6807 155.74C99.4827 155.731 99.2961 155.645 99.1607 155.5C98.9419 155.278 98.735 155.044 98.5407 154.8C98.3428 154.553 98.1325 154.316 97.9107 154.09C97.7753 153.945 97.5887 153.859 97.3907 153.85C97.3306 154.139 97.3004 154.434 97.3007 154.73C97.3007 154.9 97.3007 155.17 97.3007 155.52C97.3007 155.87 97.3007 156.06 97.3007 156.23C97.2989 156.554 97.2308 156.874 97.1007 157.17C96.9707 157.43 96.8107 157.56 96.6107 157.56C96.4384 157.558 96.2671 157.534 96.1007 157.49C96.044 157.473 95.9925 157.442 95.9506 157.4C95.9087 157.358 95.8779 157.307 95.8607 157.25C95.8388 157.121 95.8388 156.989 95.8607 156.86C95.8607 156.36 95.8607 155.92 95.9307 155.55C96.0007 155.18 95.9307 154.83 95.9807 154.61V153.33C95.9807 152.28 96.2607 151.76 96.7707 151.77C97.2511 151.826 97.7004 152.036 98.0507 152.37C98.5287 152.777 98.9522 153.244 99.3107 153.76ZM98.8007 147.7C98.8007 146.96 98.4207 146.59 97.6307 146.57C97.5466 146.565 97.4627 146.581 97.386 146.616C97.3094 146.651 97.2423 146.704 97.1907 146.77C97.085 146.974 97.0334 147.201 97.0407 147.43C97.0292 147.565 97.0454 147.702 97.0884 147.831C97.1314 147.96 97.2002 148.079 97.2907 148.18C97.3617 148.261 97.4493 148.327 97.5476 148.371C97.6459 148.416 97.7526 148.44 97.8607 148.44C98.0907 148.449 98.3167 148.378 98.5007 148.24C98.5909 148.181 98.6655 148.101 98.7178 148.007C98.77 147.913 98.7985 147.808 98.8007 147.7ZM103.561 139.95C103.945 139.951 104.32 140.074 104.631 140.3C104.943 140.53 105.191 140.836 105.351 141.19C105.51 141.556 105.592 141.951 105.591 142.35C105.59 142.701 105.497 143.046 105.321 143.35C105.144 143.641 104.896 143.882 104.601 144.05C104.298 144.227 103.951 144.314 103.601 144.3C103.223 144.3 102.853 144.196 102.531 144C102.189 143.799 101.909 143.508 101.721 143.16C101.508 142.772 101.408 142.332 101.431 141.89C101.416 141.626 101.46 141.362 101.558 141.117C101.657 140.871 101.808 140.651 102.001 140.47C102.445 140.119 103.007 139.951 103.571 140L103.561 139.95ZM102.561 141.95C102.54 142.211 102.615 142.47 102.771 142.68C102.866 142.772 102.979 142.844 103.103 142.892C103.226 142.94 103.358 142.963 103.491 142.96C103.733 142.98 103.973 142.905 104.161 142.75C104.231 142.697 104.289 142.63 104.331 142.552C104.372 142.474 104.396 142.388 104.401 142.3C104.401 141.5 104.071 141.1 103.401 141.09C103.294 141.085 103.188 141.102 103.088 141.14C102.988 141.178 102.897 141.236 102.821 141.31C102.669 141.488 102.59 141.716 102.601 141.95H102.561ZM105.371 161.07C105.377 161.159 105.352 161.247 105.301 161.32C105.226 161.445 105.128 161.554 105.011 161.64C104.862 161.736 104.687 161.782 104.511 161.77C104.367 161.76 104.227 161.719 104.101 161.65C103.99 161.595 103.901 161.503 103.851 161.39C103.733 161.127 103.681 160.838 103.701 160.55C103.696 160.435 103.719 160.32 103.768 160.216C103.816 160.112 103.889 160.02 103.981 159.95C104.167 159.8 104.401 159.722 104.641 159.73C105.01 159.754 105.371 159.853 105.701 160.02C106.035 160.164 106.351 160.349 106.641 160.57C106.792 160.706 106.927 160.861 107.041 161.03C107.134 161.159 107.19 161.311 107.201 161.47C107.201 161.72 107.151 161.88 107.071 161.94C106.951 162.022 106.805 162.057 106.661 162.04C106.581 162.04 106.451 161.92 106.281 161.71C106.19 161.589 106.086 161.479 105.971 161.38C105.789 161.235 105.587 161.117 105.371 161.03V161.07Z" fill="#231F20"/>
<path d="M129.801 168.45C130.421 168.603 131.041 168.783 131.661 168.99C132.271 169.2 132.981 169.47 133.771 169.79C134.879 170.24 136.011 170.631 137.161 170.96C137.597 171.085 138.02 171.256 138.421 171.47C138.526 171.52 138.616 171.598 138.681 171.694C138.746 171.791 138.784 171.904 138.791 172.02C138.759 172.265 138.655 172.495 138.491 172.68C138.375 172.755 138.238 172.79 138.101 172.78C137.9 172.767 137.701 172.726 137.511 172.66C137.251 172.59 136.961 172.49 136.641 172.38L136.091 172.19C135.651 172.05 135.091 171.81 134.311 171.48C133.741 171.23 133.191 171.01 132.661 170.81C132.131 170.61 131.491 170.41 130.761 170.21C130.907 170.731 130.981 171.269 130.981 171.81C130.941 172.21 130.881 172.607 130.801 173C130.743 173.304 130.707 173.611 130.691 173.92C130.99 173.877 131.284 173.806 131.571 173.71C131.888 173.572 132.226 173.487 132.571 173.46C132.635 173.46 132.698 173.473 132.757 173.499C132.815 173.525 132.868 173.563 132.911 173.61C133.011 173.737 133.058 173.899 133.041 174.06C133.043 174.174 133.02 174.287 132.973 174.39C132.926 174.494 132.857 174.586 132.771 174.66C132.594 174.803 132.395 174.914 132.181 174.99L131.721 175.17C131.398 175.31 131.063 175.42 130.721 175.5C130.409 175.569 130.09 175.602 129.771 175.6C129.616 175.603 129.464 175.554 129.341 175.46C129.289 175.428 129.245 175.384 129.214 175.332C129.183 175.28 129.164 175.221 129.161 175.16C129.161 175.01 129.231 174.78 129.291 174.47C129.391 173.98 129.461 173.56 129.511 173.23C129.563 172.876 129.593 172.518 129.601 172.16C129.655 171.408 129.496 170.655 129.141 169.99C129.094 169.89 129.077 169.779 129.091 169.67C129.094 169.391 129.163 169.117 129.291 168.87C129.431 168.6 129.581 168.47 129.771 168.47L129.801 168.45ZM137.361 164.99C137.232 164.619 137.027 164.278 136.761 163.99C136.473 163.663 136.135 163.383 135.761 163.16C135.434 162.946 135.066 162.803 134.681 162.74C134.869 163.012 135.011 163.312 135.101 163.63C135.179 163.957 135.213 164.294 135.201 164.63C135.211 165.077 135.112 165.52 134.911 165.92C134.69 166.306 134.421 166.662 134.111 166.98C133.987 167.078 133.849 167.156 133.701 167.21C133.445 167.311 133.181 167.388 132.911 167.44C132.583 167.513 132.247 167.543 131.911 167.53C131.58 167.518 131.259 167.418 130.981 167.24C130.651 167.049 130.354 166.806 130.101 166.52C129.877 166.278 129.694 166.001 129.561 165.7C129.449 165.432 129.362 165.154 129.301 164.87C129.189 164.425 129.17 163.962 129.246 163.509C129.322 163.056 129.49 162.624 129.741 162.24C130.086 161.754 130.566 161.378 131.121 161.16C131.719 160.928 132.359 160.819 133.001 160.84C134.128 160.844 135.235 161.133 136.221 161.68C137.114 162.157 137.88 162.843 138.451 163.68C138.572 163.898 138.666 164.13 138.731 164.37C138.834 164.655 138.885 164.957 138.881 165.26C138.878 165.366 138.85 165.471 138.8 165.565C138.75 165.658 138.678 165.739 138.591 165.8C138.412 165.943 138.19 166.021 137.961 166.02C137.891 166.025 137.822 166.011 137.761 165.979C137.699 165.947 137.647 165.899 137.611 165.84C137.524 165.661 137.457 165.473 137.411 165.28L137.331 164.94L137.361 164.99ZM129.421 138.99C129.417 138.925 129.431 138.86 129.461 138.802C129.491 138.744 129.536 138.695 129.591 138.66C129.709 138.592 129.844 138.558 129.981 138.56C130.199 138.575 130.404 138.667 130.561 138.82L131.321 139.44C132.841 140.63 134.091 141.6 135.081 142.32C136.136 143.086 137.234 143.79 138.371 144.43C138.984 144.763 139.284 145.133 139.271 145.54C139.273 145.718 139.221 145.893 139.121 146.04C139.006 146.157 138.851 146.229 138.687 146.24C138.523 146.251 138.361 146.201 138.231 146.1C137.751 145.75 136.861 145.1 135.561 144.23C134.261 143.36 133.361 142.69 132.561 142.13C131.761 141.57 131.091 141.04 130.461 140.52C130.34 140.41 130.213 140.306 130.081 140.21C129.883 140.053 129.714 139.864 129.581 139.65C129.449 139.455 129.379 139.225 129.381 138.99H129.421ZM134.021 150.57C134.233 150.002 134.576 149.492 135.021 149.08C135.411 148.722 135.922 148.526 136.451 148.53C136.645 148.544 136.837 148.584 137.021 148.65C137.232 148.709 137.432 148.803 137.611 148.93C138.157 149.348 138.585 149.903 138.85 150.538C139.115 151.173 139.208 151.867 139.121 152.55C139.127 153.36 138.928 154.158 138.541 154.87C138.392 155.181 138.156 155.441 137.861 155.619C137.566 155.797 137.225 155.884 136.881 155.87C135.881 155.87 134.961 155.13 134.251 153.68C133.731 155.01 132.991 155.68 132.021 155.68C131.484 155.691 130.961 155.506 130.551 155.16C130.139 154.813 129.837 154.355 129.681 153.84C129.486 153.271 129.395 152.671 129.411 152.07C129.428 151.57 129.551 151.079 129.771 150.63C129.943 150.21 130.248 149.858 130.641 149.63C130.985 149.469 131.36 149.384 131.741 149.38C132.165 149.376 132.584 149.476 132.961 149.67C133.387 149.912 133.748 150.256 134.011 150.67L134.021 150.57ZM129.481 145.1C129.488 144.753 129.57 144.412 129.721 144.1C129.855 143.785 130.069 143.509 130.341 143.3C130.589 143.097 130.9 142.987 131.221 142.99C131.647 142.995 132.066 143.105 132.441 143.31C132.799 143.496 133.098 143.781 133.301 144.13C133.511 144.468 133.615 144.862 133.601 145.26C133.608 145.544 133.557 145.827 133.452 146.092C133.348 146.357 133.191 146.597 132.991 146.8C132.789 146.995 132.549 147.146 132.285 147.243C132.022 147.339 131.741 147.379 131.461 147.36C131.181 147.373 130.902 147.323 130.644 147.214C130.386 147.105 130.156 146.94 129.971 146.73C129.609 146.248 129.435 145.651 129.481 145.05V145.1ZM130.541 164.1C130.546 164.296 130.577 164.491 130.631 164.68C130.682 164.876 130.759 165.065 130.861 165.24C130.977 165.44 131.133 165.614 131.321 165.75C131.452 165.88 131.619 165.967 131.801 166C133.151 166 133.801 165.49 133.851 164.4C133.849 164.117 133.798 163.836 133.701 163.57C133.609 163.286 133.459 163.023 133.261 162.8C133.179 162.704 133.078 162.626 132.964 162.571C132.851 162.515 132.727 162.485 132.601 162.48C132.06 162.429 131.518 162.571 131.071 162.88C130.894 163.028 130.754 163.216 130.662 163.428C130.57 163.639 130.528 163.869 130.541 164.1ZM132.421 145.45C132.421 144.71 132.051 144.33 131.251 144.32C131.167 144.31 131.083 144.323 131.007 144.359C130.931 144.394 130.867 144.45 130.821 144.52C130.704 144.716 130.652 144.943 130.671 145.17C130.658 145.305 130.673 145.441 130.714 145.57C130.755 145.699 130.822 145.818 130.911 145.92C131.059 146.08 131.263 146.176 131.481 146.19C131.714 146.193 131.943 146.119 132.131 145.98C132.219 145.922 132.292 145.844 132.342 145.751C132.393 145.659 132.42 145.555 132.421 145.45ZM133.521 152.13C133.311 151.8 133.141 151.54 133.011 151.36C132.868 151.176 132.696 151.017 132.501 150.89C132.297 150.752 132.057 150.679 131.811 150.68C131.662 150.678 131.515 150.71 131.38 150.772C131.245 150.834 131.126 150.926 131.031 151.04C130.818 151.288 130.701 151.603 130.701 151.93C130.64 152.479 130.766 153.032 131.061 153.5C131.17 153.638 131.308 153.751 131.465 153.831C131.622 153.91 131.795 153.954 131.971 153.96C132.23 153.964 132.481 153.867 132.671 153.69C132.863 153.515 133.019 153.305 133.131 153.07C133.241 152.84 133.371 152.53 133.521 152.13ZM136.321 150.13C136.21 150.14 136.102 150.173 136.006 150.229C135.909 150.284 135.825 150.359 135.761 150.45C135.549 150.681 135.371 150.94 135.231 151.22C135.102 151.459 134.998 151.71 134.921 151.97C135.092 152.385 135.314 152.778 135.581 153.14C135.765 153.431 135.991 153.694 136.251 153.92C136.363 154.006 136.483 154.08 136.611 154.14C136.725 154.172 136.842 154.192 136.961 154.2C137.05 154.192 137.136 154.163 137.212 154.117C137.289 154.07 137.353 154.006 137.401 153.93C137.552 153.73 137.671 153.508 137.751 153.27C137.825 153.057 137.869 152.835 137.881 152.61C137.926 151.989 137.783 151.369 137.471 150.83C137.359 150.622 137.193 150.447 136.991 150.324C136.789 150.201 136.557 150.134 136.321 150.13ZM137.191 137.69C137.571 137.696 137.941 137.818 138.251 138.04C138.561 138.272 138.808 138.578 138.971 138.93C139.139 139.293 139.221 139.69 139.211 140.09C139.212 140.426 139.118 140.755 138.941 141.04C138.771 141.335 138.526 141.58 138.231 141.75C137.925 141.919 137.58 142.005 137.231 142C136.85 141.991 136.478 141.885 136.151 141.69C135.81 141.488 135.53 141.198 135.341 140.85C135.132 140.46 135.031 140.022 135.051 139.58C135.038 139.316 135.082 139.053 135.18 138.808C135.279 138.562 135.429 138.342 135.621 138.16C136.071 137.813 136.634 137.646 137.201 137.69H137.191ZM136.191 139.69C136.167 139.949 136.246 140.208 136.411 140.41C136.502 140.508 136.614 140.584 136.739 140.632C136.863 140.681 136.997 140.7 137.131 140.69C137.372 140.713 137.612 140.641 137.801 140.49C137.869 140.433 137.924 140.363 137.964 140.284C138.004 140.205 138.026 140.118 138.031 140.03C138.031 139.24 137.701 138.83 137.031 138.82C136.926 138.815 136.82 138.831 136.722 138.869C136.624 138.907 136.535 138.965 136.461 139.04C136.382 139.128 136.32 139.231 136.281 139.342C136.242 139.454 136.224 139.572 136.231 139.69H136.191ZM139.001 158.85C139.007 158.938 138.986 159.025 138.941 159.1C138.863 159.223 138.765 159.331 138.651 159.42C138.499 159.517 138.32 159.562 138.141 159.55C137.998 159.533 137.86 159.492 137.731 159.43C137.619 159.371 137.531 159.276 137.481 159.16C137.366 158.899 137.315 158.615 137.331 158.33C137.328 158.215 137.352 158.101 137.401 157.997C137.449 157.893 137.521 157.802 137.611 157.73C137.797 157.58 138.031 157.502 138.271 157.51C138.643 157.534 139.007 157.632 139.341 157.8C139.673 157.949 139.988 158.134 140.281 158.35C140.429 158.487 140.56 158.641 140.671 158.81C140.764 158.939 140.82 159.091 140.831 159.25C140.831 159.5 140.831 159.66 140.711 159.72C140.59 159.799 140.445 159.835 140.301 159.82C140.211 159.82 140.091 159.7 139.921 159.48C139.825 159.363 139.718 159.256 139.601 159.16C139.422 159.011 139.219 158.892 139.001 158.81V158.85Z" fill="#231F20"/>
<path d="M49.0406 176C49.6344 176.024 50.2226 176.125 50.7906 176.3C51.4506 176.5 52.2606 176.77 53.2206 177.13L54.2806 177.5C54.2963 177.32 54.2963 177.14 54.2806 176.96C54.2806 176.64 54.2606 176.16 54.2206 175.52C54.2206 174.89 54.1406 174.43 54.1506 174.15H52.5006H49.9106C49.1806 174.15 48.8206 173.89 48.8306 173.41C48.8406 172.93 48.9406 172.78 49.1306 172.68C49.4089 172.564 49.7097 172.513 50.0106 172.53C50.4206 172.53 51.0106 172.53 51.8806 172.66L52.7006 172.72C53.0806 172.72 53.4006 172.72 53.7006 172.72H54.2006V172.41C54.1874 172.22 54.1874 172.03 54.2006 171.84C54.201 171.585 54.2893 171.338 54.4506 171.14C54.5076 171.039 54.5905 170.956 54.6907 170.897C54.7909 170.839 54.9048 170.809 55.0206 170.81C55.2273 170.801 55.4332 170.842 55.6206 170.93C55.7606 171.01 55.8306 171.1 55.8306 171.21C55.8178 171.432 55.7911 171.652 55.7506 171.87C55.7506 171.93 55.7506 172.02 55.7506 172.14C55.7415 172.26 55.7415 172.38 55.7506 172.5V172.76H57.8306C57.9244 172.758 58.0175 172.778 58.1025 172.818C58.1875 172.858 58.2621 172.917 58.3206 172.99C58.4279 173.131 58.4843 173.303 58.4806 173.48C58.4823 173.702 58.4001 173.916 58.2506 174.08C58.187 174.162 58.1048 174.227 58.0109 174.27C57.9169 174.314 57.814 174.334 57.7106 174.33C57.0439 174.33 56.5039 174.31 56.0906 174.27H55.7506C55.7471 174.808 55.7738 175.345 55.8306 175.88C55.9006 176.6 55.9306 177.15 55.9306 177.52C55.9317 177.928 55.8535 178.332 55.7006 178.71C55.6608 178.848 55.5765 178.969 55.4607 179.054C55.3449 179.139 55.2042 179.183 55.0606 179.18C54.7205 179.167 54.3839 179.106 54.0606 179C53.6606 178.88 53.1206 178.7 52.4506 178.46C52.1839 178.347 51.9639 178.267 51.7906 178.22C51.3567 178.046 50.9126 177.899 50.4606 177.78L49.1306 177.44C49.0562 177.423 48.9861 177.391 48.9242 177.347C48.8624 177.302 48.8101 177.245 48.7706 177.18C48.6888 177.037 48.6473 176.875 48.6506 176.71C48.6555 176.534 48.7036 176.363 48.7906 176.21C48.8233 176.145 48.8733 176.09 48.9349 176.051C48.9966 176.013 49.0677 175.991 49.1406 175.99L49.0406 176ZM50.3706 165.57C52.3706 165.71 53.9806 165.78 55.1806 165.81C55.7906 165.81 56.3806 165.81 56.9406 165.81C57.0132 165.661 57.0476 165.496 57.0406 165.33V165C57.0317 164.867 57.0317 164.733 57.0406 164.6C57.0379 164.381 57.0894 164.164 57.1906 163.97C57.2582 163.893 57.3437 163.833 57.4395 163.797C57.5354 163.76 57.6387 163.748 57.7406 163.76C57.8495 163.755 57.9583 163.773 58.06 163.812C58.1616 163.852 58.2538 163.913 58.3306 163.99C58.5079 164.266 58.579 164.596 58.5306 164.92C58.5227 165.392 58.486 165.863 58.4206 166.33C58.4206 166.47 58.4206 166.59 58.4206 166.72C58.4206 166.85 58.4206 166.95 58.4206 167.06C58.4206 167.62 58.4206 168.06 58.4206 168.32C58.4206 168.58 58.4206 168.92 58.4206 169.26C58.4206 169.6 58.1706 169.74 57.6806 169.73C57.1906 169.72 57.0006 169.42 57.0106 168.82C57.0106 168.73 57.0106 168.58 57.0106 168.38C57.0513 168.196 57.0715 168.008 57.0706 167.82C57.0761 167.727 57.0761 167.633 57.0706 167.54C56.3806 167.54 55.3806 167.47 54.0706 167.38C52.5306 167.3 51.3906 167.24 50.6506 167.23C50.6506 167.23 50.7306 167.46 50.8606 167.78C51.0472 168.101 51.1599 168.46 51.1906 168.83C51.1879 168.898 51.1693 168.964 51.1363 169.023C51.1033 169.082 51.0568 169.132 51.0006 169.17C50.8694 169.271 50.7058 169.321 50.5406 169.31C50.4366 169.3 50.3367 169.265 50.2496 169.207C50.1624 169.15 50.0907 169.072 50.0406 168.98C49.8004 168.646 49.5896 168.291 49.4106 167.92C49.2797 167.651 49.1328 167.391 48.9706 167.14C48.9194 167.055 48.8791 166.965 48.8506 166.87C48.8364 166.781 48.8364 166.689 48.8506 166.6C48.8486 166.347 48.9069 166.096 49.0206 165.87C49.0529 165.78 49.1107 165.7 49.187 165.642C49.2632 165.583 49.3548 165.548 49.4506 165.54L50.3706 165.57ZM48.9606 143.45C48.9601 143.386 48.9765 143.322 49.0081 143.266C49.0397 143.21 49.0853 143.163 49.1406 143.13C49.2582 143.06 49.3936 143.025 49.5306 143.03C49.7472 143.043 49.9523 143.132 50.1106 143.28L50.8706 143.9C52.3839 145.1 53.6372 146.063 54.6306 146.79C55.6823 147.556 56.7775 148.261 57.9106 148.9C58.5206 149.23 58.8206 149.6 58.8206 150.01C58.815 150.185 58.7595 150.355 58.6606 150.5C58.6006 150.573 58.5238 150.63 58.4366 150.667C58.3495 150.704 58.2547 150.718 58.1606 150.71C58.0163 150.711 57.8769 150.658 57.7706 150.56C57.2906 150.21 56.4106 149.56 55.1006 148.69L52.1006 146.6C51.3306 146.05 50.6406 145.51 50.0106 144.98L49.6306 144.67C49.4328 144.515 49.2607 144.329 49.1206 144.12C48.9915 143.92 48.9221 143.688 48.9206 143.45H48.9606ZM50.5606 154.76C52.5606 154.89 54.1706 154.97 55.3706 154.99C55.9806 154.99 56.5706 154.99 57.1206 154.99C57.2044 154.845 57.2427 154.677 57.2306 154.51V154.16C57.2217 154.027 57.2217 153.893 57.2306 153.76C57.2279 153.541 57.2794 153.324 57.3806 153.13C57.4465 153.051 57.5317 152.99 57.628 152.953C57.7244 152.916 57.8286 152.905 57.9306 152.92C58.0395 152.915 58.1483 152.933 58.25 152.972C58.3516 153.012 58.4438 153.073 58.5206 153.15C58.6938 153.423 58.7647 153.749 58.7206 154.07C58.7131 154.545 58.6764 155.019 58.6106 155.49C58.6106 155.63 58.6106 155.75 58.6106 155.88C58.6106 156.01 58.6106 156.11 58.6106 156.22C58.6106 156.78 58.6106 157.22 58.6106 157.48C58.6106 157.74 58.6106 158.07 58.6106 158.42C58.6106 158.77 58.3606 158.9 57.8706 158.89C57.3806 158.88 57.1806 158.58 57.1906 157.98C57.1906 157.89 57.1906 157.74 57.1906 157.53C57.2319 157.35 57.252 157.165 57.2506 156.98C57.2563 156.887 57.2563 156.793 57.2506 156.7C56.5606 156.7 55.5606 156.63 54.2506 156.54C52.7106 156.447 51.5706 156.397 50.8306 156.39C50.891 156.574 50.9611 156.754 51.0406 156.93C51.2265 157.255 51.3391 157.617 51.3706 157.99C51.3678 158.057 51.348 158.123 51.313 158.181C51.278 158.238 51.229 158.286 51.1706 158.32C51.0988 158.388 51.0121 158.439 50.9173 158.467C50.8225 158.495 50.7223 158.501 50.625 158.483C50.5276 158.466 50.4357 158.426 50.3568 158.366C50.2778 158.306 50.214 158.229 50.1706 158.14C49.9378 157.801 49.7273 157.447 49.5406 157.08C49.417 156.81 49.2733 156.549 49.1106 156.3C49.0594 156.215 49.0191 156.125 48.9906 156.03C48.9714 155.941 48.9714 155.849 48.9906 155.76C48.9886 155.507 49.0469 155.256 49.1606 155.03C49.1918 154.939 49.2493 154.859 49.3258 154.8C49.4023 154.741 49.4944 154.707 49.5906 154.7L50.5606 154.76ZM49.0306 149.56C49.0365 149.234 49.1151 148.912 49.2606 148.62C49.401 148.308 49.6135 148.034 49.8806 147.82C50.1273 147.615 50.4396 147.505 50.7606 147.51C51.1895 147.513 51.6114 147.619 51.9906 147.82C52.3453 148.012 52.6422 148.295 52.8506 148.64C53.052 148.982 53.1526 149.374 53.1406 149.77C53.1496 150.055 53.1011 150.34 52.998 150.606C52.8949 150.872 52.7394 151.115 52.5406 151.32C52.3364 151.512 52.0956 151.66 51.8327 151.756C51.5698 151.852 51.2902 151.894 51.0106 151.88C50.7283 151.895 50.4463 151.845 50.1862 151.734C49.9262 151.623 49.6951 151.454 49.5106 151.24C49.1529 150.756 48.9824 150.16 49.0306 149.56ZM51.9706 149.95C51.9706 149.21 51.5906 148.83 50.8006 148.82C50.7162 148.813 50.6313 148.827 50.5542 148.862C50.4771 148.897 50.4104 148.952 50.3606 149.02C50.2557 149.22 50.2041 149.444 50.2106 149.67C50.1928 149.944 50.2784 150.216 50.4506 150.43C50.5244 150.511 50.6139 150.575 50.7136 150.62C50.8134 150.665 50.9213 150.689 51.0306 150.69C51.2599 150.694 51.4845 150.624 51.6706 150.49C51.7597 150.43 51.8333 150.35 51.8854 150.256C51.9376 150.162 51.9667 150.057 51.9706 149.95ZM56.7306 142.2C57.1159 142.196 57.4918 142.319 57.8006 142.55C58.115 142.775 58.3608 143.083 58.5106 143.44C58.6771 143.8 58.7625 144.193 58.7606 144.59C58.7538 144.926 58.6571 145.254 58.4806 145.54C58.3134 145.849 58.0645 146.105 57.7611 146.282C57.4576 146.458 57.1115 146.547 56.7606 146.54C56.3836 146.536 56.0144 146.433 55.6906 146.24C55.3493 146.039 55.0692 145.748 54.8806 145.4C54.6704 145.011 54.5668 144.572 54.5806 144.13C54.5686 143.864 54.6143 143.598 54.7144 143.352C54.8145 143.105 54.9667 142.883 55.1606 142.7C55.6085 142.357 56.1683 142.193 56.7306 142.24V142.2ZM55.7306 144.2C55.7161 144.459 55.7941 144.714 55.9506 144.92C56.0409 145.02 56.1526 145.097 56.2773 145.148C56.402 145.198 56.5365 145.219 56.6706 145.21C56.9119 145.223 57.15 145.149 57.3406 145C57.4124 144.946 57.4713 144.877 57.5129 144.797C57.5544 144.718 57.5775 144.63 57.5806 144.54C57.5806 143.75 57.2506 143.35 56.5806 143.34C56.4737 143.333 56.3665 143.348 56.2664 143.386C56.1663 143.424 56.0756 143.484 56.0006 143.56C55.8431 143.735 55.7606 143.965 55.7706 144.2H55.7306ZM58.5706 162.07C58.5749 162.159 58.5504 162.246 58.5006 162.32C58.4258 162.442 58.3272 162.547 58.2106 162.63C58.0655 162.734 57.8885 162.784 57.7106 162.77C57.568 162.754 57.4292 162.714 57.3006 162.65C57.1865 162.594 57.0974 162.498 57.0506 162.38C56.9312 162.12 56.8796 161.835 56.9006 161.55C56.8958 161.435 56.9188 161.32 56.9675 161.216C57.0162 161.112 57.0893 161.02 57.1806 160.95C57.3671 160.8 57.6013 160.722 57.8406 160.73C58.2099 160.754 58.5704 160.853 58.9006 161.02C59.2351 161.164 59.5508 161.349 59.8406 161.57C59.9945 161.704 60.1291 161.859 60.2406 162.03C60.334 162.159 60.3895 162.311 60.4006 162.47C60.4006 162.72 60.3506 162.88 60.2706 162.94C60.1512 163.023 60.0038 163.055 59.8606 163.03C59.7806 163.03 59.6506 162.92 59.4806 162.7C59.3837 162.584 59.2802 162.474 59.1706 162.37C58.9839 162.232 58.7827 162.115 58.5706 162.02V162.07Z" fill="#231F20"/>
<path d="M13.9505 101.71C15.4505 104.3 16.6805 106.32 17.6405 107.8C18.1305 108.57 18.6405 109.28 19.1105 109.94C19.3572 109.925 19.5923 109.83 19.7805 109.67L20.2005 109.37C20.3525 109.24 20.5128 109.119 20.6805 109.01C20.9353 108.817 21.2412 108.702 21.5605 108.68C21.7118 108.691 21.8574 108.742 21.9823 108.828C22.1071 108.914 22.2066 109.032 22.2705 109.17C22.3686 109.3 22.438 109.449 22.4742 109.607C22.5104 109.766 22.5125 109.931 22.4805 110.09C22.4105 110.39 22.0905 110.73 21.4805 111.09C20.8705 111.45 20.3805 111.75 19.6405 112.09L19.1405 112.36L18.7105 112.61C18.0205 113.08 17.5105 113.45 17.1905 113.71C16.828 113.999 16.4509 114.27 16.0605 114.52C15.6705 114.78 15.2705 114.61 14.8905 114.01C14.5105 113.41 14.7005 112.91 15.4405 112.43C15.6237 112.312 15.8141 112.205 16.0105 112.11C16.2629 111.998 16.5069 111.867 16.7405 111.72C16.8565 111.645 16.9668 111.561 17.0705 111.47C16.5305 110.61 15.7671 109.34 14.7805 107.66C13.6205 105.7 12.7405 104.26 12.1405 103.34C12.0905 103.4 11.9205 103.63 11.6505 104.04C11.4094 104.534 11.0689 104.973 10.6505 105.33C10.5624 105.376 10.4647 105.399 10.3655 105.399C10.2663 105.399 10.1686 105.376 10.0805 105.33C9.84826 105.253 9.65019 105.097 9.52048 104.89C9.45177 104.752 9.41602 104.599 9.41602 104.445C9.41602 104.291 9.45177 104.138 9.52048 104C9.74691 103.435 10.0074 102.884 10.3005 102.35C10.5202 101.97 10.7205 101.58 10.9005 101.18C10.9602 101.047 11.0376 100.922 11.1305 100.81C11.2115 100.696 11.3093 100.595 11.4205 100.51C11.7222 100.31 12.0632 100.177 12.4205 100.12C12.5573 100.086 12.7008 100.093 12.8339 100.139C12.967 100.185 13.0839 100.269 13.1705 100.38L13.9505 101.71ZM24.4305 98.34C25.5347 97.898 26.7429 97.7834 27.9105 98.01C28.43 98.0983 28.9256 98.2932 29.3662 98.5823C29.8067 98.8714 30.1827 99.2486 30.4705 99.69C30.8198 100.235 31.0357 100.856 31.1005 101.5C31.2233 102.542 31.002 103.595 30.4705 104.5C29.8736 105.488 29.0511 106.321 28.0705 106.93C27.472 107.341 26.7882 107.611 26.0705 107.72C25.3399 107.81 24.6011 107.81 23.8705 107.72C23.5115 107.64 23.1717 107.491 22.8705 107.28C22.5753 107.109 22.3197 106.877 22.1205 106.6C21.9478 106.36 21.876 106.062 21.9205 105.77C21.9425 105.63 21.9964 105.497 22.0778 105.381C22.1593 105.264 22.2662 105.168 22.3905 105.1C22.6082 104.936 22.8787 104.858 23.1505 104.88C23.4915 104.929 23.8267 105.012 24.1505 105.13C24.4763 105.248 24.8106 105.342 25.1505 105.41C25.4581 105.464 25.7729 105.464 26.0805 105.41C26.499 105.315 26.8959 105.142 27.2505 104.9C27.9507 104.459 28.4744 103.787 28.7305 103C28.8302 102.617 28.8443 102.217 28.7717 101.828C28.6991 101.439 28.5416 101.071 28.3105 100.75C28.1812 100.588 28.0209 100.453 27.8389 100.353C27.6569 100.254 27.4569 100.191 27.2505 100.17C26.8168 100.098 26.3742 100.098 25.9405 100.17C25.5604 100.223 25.1899 100.331 24.8405 100.49C24.3124 100.686 23.7665 100.83 23.2105 100.92C23.0351 100.952 22.8542 100.93 22.6917 100.857C22.5292 100.783 22.3928 100.662 22.3005 100.51C22.1556 100.263 22.1092 99.97 22.1705 99.69C22.257 99.2327 22.3739 98.7817 22.5205 98.34C22.6636 97.8947 22.7772 97.4403 22.8605 96.98C22.8957 96.8417 22.9023 96.6976 22.88 96.5566C22.8576 96.4156 22.8068 96.2807 22.7305 96.16C22.3234 96.3149 21.9371 96.5199 21.5805 96.77C21.3705 96.91 21.0505 97.13 20.5805 97.44C20.1105 97.75 19.9305 97.92 19.7305 98.05C19.3342 98.3274 18.8789 98.5088 18.4005 98.58C18.245 98.6261 18.0794 98.625 17.9245 98.5769C17.7697 98.5289 17.6326 98.436 17.5305 98.31C17.3848 98.0974 17.2703 97.8651 17.1905 97.62C17.1625 97.5384 17.157 97.4508 17.1746 97.3663C17.1922 97.2818 17.2322 97.2036 17.2905 97.14C17.4117 96.9893 17.5612 96.8636 17.7305 96.77C18.3505 96.36 18.9105 96.03 19.3905 95.77C19.8705 95.51 20.3105 95.22 20.5805 95.05L22.1505 94.05C23.4505 93.21 24.3105 93.05 24.7105 93.72C25.051 94.3494 25.164 95.077 25.0305 95.78C24.9341 96.7048 24.7155 97.6127 24.3805 98.48L24.4305 98.34ZM40.1105 83.15C40.4502 84.041 40.7439 84.9489 40.9905 85.87C41.2405 86.79 41.5005 87.87 41.7605 89.12C42.1238 90.8503 42.5811 92.5595 43.1305 94.24C43.3419 94.8887 43.4761 95.56 43.5305 96.24C43.5553 96.4114 43.5351 96.5863 43.472 96.7476C43.4089 96.9088 43.305 97.051 43.1705 97.16C42.844 97.316 42.4795 97.375 42.1205 97.33C41.9314 97.2535 41.7731 97.1163 41.6705 96.94C41.5222 96.679 41.408 96.4 41.3305 96.11C41.2105 95.73 41.0805 95.3 40.9505 94.82L40.7305 93.98C40.4825 93.0717 40.2856 92.1503 40.1405 91.22C39.9605 90.32 39.7805 89.46 39.5905 88.64C39.4005 87.82 39.1105 86.88 38.7505 85.82C38.2423 86.4317 37.6457 86.9643 36.9805 87.4C36.4846 87.702 35.9703 87.9725 35.4405 88.21C35.0173 88.3932 34.6064 88.6036 34.2105 88.84C34.5098 89.1788 34.8451 89.4839 35.2105 89.75C35.6423 90.0153 36.0247 90.3537 36.3405 90.75C36.3935 90.8263 36.4299 90.913 36.4471 91.0043C36.4643 91.0957 36.4621 91.1896 36.4405 91.28C36.4055 91.3929 36.3487 91.4978 36.2732 91.5888C36.1977 91.6797 36.105 91.7549 36.0005 91.81C35.8602 91.9175 35.6962 91.9898 35.5223 92.0212C35.3484 92.0525 35.1695 92.0418 35.0005 91.99C34.6801 91.8876 34.3793 91.7321 34.1105 91.53C33.8205 91.33 33.6205 91.19 33.5005 91.12C33.0564 90.8267 32.6412 90.4918 32.2605 90.12C31.9152 89.7948 31.6066 89.4327 31.3405 89.04C31.2158 88.8499 31.1497 88.6274 31.1505 88.4C31.1468 88.3087 31.1659 88.218 31.206 88.1359C31.2462 88.0539 31.3061 87.9831 31.3805 87.93C31.5905 87.83 31.9105 87.69 32.3805 87.52C33.0605 87.23 33.6205 86.97 34.0705 86.76C34.551 86.532 35.0155 86.2714 35.4605 85.98C36.4283 85.4337 37.2195 84.6217 37.7405 83.64C37.8228 83.496 37.9441 83.3781 38.0905 83.3C38.4372 83.0767 38.8307 82.9364 39.2405 82.89C39.6705 82.89 39.9605 82.89 40.1105 83.15ZM35.4105 102.15C35.31 102.227 35.1871 102.269 35.0605 102.27C34.8467 102.279 34.6331 102.249 34.4305 102.18C34.1882 102.075 33.9851 101.897 33.8505 101.67C33.7424 101.487 33.6775 101.282 33.6605 101.07C33.6381 100.888 33.6806 100.704 33.7805 100.55C33.9974 100.186 34.3037 99.8828 34.6705 99.67C34.8134 99.5676 34.9786 99.5006 35.1524 99.4745C35.3263 99.4485 35.5038 99.464 35.6705 99.52C36.013 99.6143 36.3064 99.8362 36.4905 100.14C36.7704 100.615 36.9507 101.143 37.0205 101.69C37.1171 102.218 37.1506 102.755 37.1205 103.29C37.0819 103.587 37.001 103.876 36.8805 104.15C36.8001 104.375 36.658 104.572 36.4705 104.72C36.1705 104.92 35.9405 105 35.8005 104.95C35.603 104.868 35.4403 104.719 35.3405 104.53C35.2805 104.43 35.3405 104.18 35.4305 103.79C35.5044 103.577 35.5514 103.355 35.5705 103.13C35.6009 102.796 35.5806 102.458 35.5105 102.13L35.4105 102.15Z" fill="#231F20"/>
<path d="M44.921 84.47C45.1932 84.2954 45.5004 84.1828 45.8209 84.14C46.1542 84.079 46.4973 84.0996 46.8209 84.2C47.122 84.2905 47.3809 84.4856 47.551 84.75C47.7925 85.0994 47.9374 85.5065 47.971 85.93C48.0152 86.3235 47.9495 86.7216 47.781 87.08C47.5656 87.5054 47.2217 87.8523 46.7981 88.0713C46.3744 88.2903 45.8926 88.3703 45.421 88.3C45.1511 88.2415 44.8963 88.1278 44.6726 87.966C44.4488 87.8042 44.261 87.5979 44.121 87.36C43.9568 87.1374 43.8446 86.8807 43.7926 86.609C43.7407 86.3373 43.7504 86.0574 43.8209 85.79C44.0186 85.2329 44.4087 84.7648 44.921 84.47ZM46.221 87.08C46.3603 87.0102 46.4815 86.9087 46.5747 86.7838C46.6679 86.6588 46.7307 86.5138 46.7579 86.3603C46.7851 86.2068 46.776 86.0491 46.7314 85.8997C46.6868 85.7503 46.6079 85.6134 46.5009 85.5C46.4617 85.4279 46.404 85.3677 46.3336 85.3255C46.2633 85.2833 46.183 85.2607 46.101 85.26C45.8764 85.2825 45.6622 85.3655 45.481 85.5C45.3643 85.5645 45.2618 85.6517 45.1794 85.7565C45.0969 85.8613 45.0363 85.9814 45.0009 86.11C44.9763 86.2132 44.9725 86.3203 44.9897 86.425C45.0068 86.5297 45.0447 86.63 45.101 86.72C45.221 86.9155 45.4046 87.0638 45.621 87.14C45.718 87.1809 45.8238 87.1969 45.9286 87.1864C46.0334 87.1759 46.1339 87.1393 46.221 87.08ZM49.881 81.08C49.9357 81.0484 49.9978 81.0317 50.061 81.0317C50.1241 81.0317 50.1862 81.0484 50.241 81.08C50.3619 81.1397 50.4628 81.2336 50.531 81.35C50.647 81.5307 50.6866 81.7501 50.6409 81.96L50.561 82.96C50.411 84.86 50.321 86.41 50.271 87.62C50.2323 88.9007 50.2624 90.1825 50.3609 91.46C50.4309 92.15 50.291 92.6 49.951 92.82C49.8053 92.9145 49.6346 92.9633 49.461 92.96C49.3674 92.9543 49.2771 92.9234 49.1996 92.8706C49.1222 92.8178 49.0604 92.745 49.021 92.66C48.9792 92.6049 48.9488 92.542 48.9317 92.475C48.9145 92.4081 48.9109 92.3384 48.921 92.27C48.921 91.69 48.941 90.62 48.981 89.06C48.981 87.61 48.981 86.42 49.061 85.49C49.141 84.56 49.141 83.69 49.231 82.89C49.231 82.82 49.231 82.66 49.231 82.41C49.2496 82.1626 49.3069 81.9196 49.401 81.69C49.49 81.4725 49.6436 81.2875 49.841 81.16L49.881 81.08ZM55.1809 86.73C55.3945 87.0409 55.4999 87.4133 55.481 87.79C55.4701 88.1731 55.3561 88.5462 55.151 88.87C54.9477 89.2047 54.6707 89.4886 54.341 89.7C54.0654 89.8869 53.7436 89.9942 53.411 90.01C53.0659 90.0308 52.7214 89.9619 52.411 89.81C52.1031 89.6528 51.8413 89.4185 51.651 89.13C51.4558 88.8303 51.339 88.4865 51.311 88.13C51.2829 87.7414 51.3662 87.3529 51.551 87.01C51.7488 86.6224 52.0498 86.2971 52.421 86.07C52.6299 85.9129 52.8704 85.803 53.1259 85.7478C53.3814 85.6925 53.6458 85.6933 53.901 85.75C54.4266 85.918 54.8717 86.2741 55.151 86.75L55.1809 86.73ZM52.981 87.05C52.7597 87.1806 52.5929 87.3865 52.511 87.63C52.4837 87.7582 52.4847 87.891 52.5141 88.0188C52.5435 88.1466 52.6004 88.2665 52.6809 88.37C52.7931 88.5804 52.9835 88.7384 53.211 88.81C53.2954 88.8363 53.3845 88.8446 53.4723 88.8343C53.5602 88.824 53.6449 88.7952 53.721 88.75C54.3709 88.32 54.511 87.82 54.131 87.23C54.0772 87.1404 54.0047 87.0636 53.9184 87.0049C53.832 86.9462 53.734 86.907 53.631 86.89C53.4019 86.8598 53.1698 86.9169 52.981 87.05Z" fill="#231F20"/>
<path d="M131.461 16.4C131.725 16.2039 132.055 16.1179 132.381 16.16C132.527 16.1849 132.665 16.2418 132.786 16.3265C132.907 16.4112 133.008 16.5217 133.081 16.65C133.621 17.48 133.421 18.19 132.501 18.79C132.394 18.8543 132.274 18.8947 132.15 18.9085C132.025 18.9223 131.9 18.9092 131.781 18.87C131.462 18.7706 131.193 18.5522 131.031 18.26C130.922 18.12 130.845 17.9581 130.806 17.7854C130.766 17.6127 130.764 17.4334 130.801 17.26C130.915 16.9187 131.15 16.6308 131.461 16.45V16.4ZM134.561 15.99C134.186 15.2843 133.557 14.7479 132.801 14.49C132.441 14.4079 132.067 14.4057 131.706 14.4834C131.345 14.5611 131.005 14.717 130.711 14.94C130.19 15.2659 129.765 15.725 129.481 16.27C129.223 16.7586 129.106 17.3088 129.141 17.86C129.172 18.3831 129.337 18.8894 129.621 19.33C129.814 19.6297 130.064 19.8884 130.357 20.0914C130.649 20.2944 130.98 20.4376 131.328 20.5128C131.676 20.588 132.036 20.5938 132.387 20.5299C132.737 20.4659 133.072 20.3334 133.371 20.14C133.834 19.8496 134.226 19.4603 134.521 19C134.807 18.5427 134.969 18.0189 134.991 17.48C135.012 16.9469 134.861 16.421 134.561 15.98V15.99ZM121.921 16.53C121.796 16.6102 121.653 16.6586 121.505 16.6708C121.356 16.683 121.208 16.6587 121.071 16.6C120.766 16.4963 120.505 16.2918 120.331 16.02C120.25 15.892 120.196 15.7489 120.172 15.5994C120.148 15.4498 120.154 15.297 120.191 15.15C120.295 14.7849 120.54 14.4758 120.871 14.29C121.121 14.0952 121.424 13.9802 121.741 13.96C121.858 13.9592 121.973 13.9904 122.073 14.0504C122.174 14.1103 122.256 14.1966 122.311 14.3C122.46 14.4606 122.57 14.6535 122.633 14.8638C122.695 15.0741 122.708 15.2959 122.67 15.5119C122.632 15.728 122.545 15.9323 122.415 16.1089C122.285 16.2856 122.116 16.4297 121.921 16.53ZM120.081 12.84C119.35 13.2516 118.795 13.9168 118.521 14.71C118.421 15.0869 118.408 15.4816 118.482 15.8644C118.557 16.2472 118.717 16.6081 118.951 16.92C119.153 17.2511 119.422 17.5367 119.741 17.7588C120.059 17.9808 120.42 18.1344 120.801 18.21C121.193 18.2791 121.594 18.2695 121.982 18.182C122.37 18.0944 122.737 17.9306 123.061 17.7C123.528 17.4052 123.899 16.9815 124.131 16.48C124.369 15.9754 124.466 15.4154 124.411 14.86C124.35 14.2644 124.14 13.6936 123.801 13.2C123.57 12.8323 123.215 12.5592 122.801 12.43C122.346 12.2813 121.862 12.247 121.391 12.33C120.939 12.3949 120.506 12.5551 120.121 12.8L120.081 12.84ZM127.121 7.97001C126.848 8.15039 126.636 8.40807 126.511 8.71001C126.374 9.02753 126.289 9.3653 126.261 9.71001C126.261 10.07 126.261 10.3 126.201 10.39C126.081 11.52 126.001 12.74 125.961 14.06C125.921 15.38 125.881 17.06 125.841 19.06C125.841 21.26 125.791 22.77 125.761 23.59C125.735 23.7863 125.781 23.9852 125.891 24.15C125.954 24.266 126.044 24.365 126.154 24.4382C126.264 24.5114 126.39 24.5566 126.521 24.57C126.767 24.5712 127.007 24.498 127.211 24.36C127.691 24.05 127.881 23.36 127.791 22.45C127.653 20.6468 127.613 18.8375 127.671 17.03C127.738 15.3233 127.874 13.13 128.081 10.45L128.201 9.10001C128.26 8.80144 128.207 8.49146 128.051 8.23001C127.949 8.06921 127.803 7.94085 127.631 7.86001C127.554 7.81425 127.466 7.7901 127.376 7.7901C127.286 7.7901 127.198 7.81425 127.121 7.86001V7.97001ZM105.911 18C106.911 17.25 107.721 16.67 108.351 16.26C109.142 15.7554 109.959 15.2947 110.801 14.88C111.195 14.7061 111.579 14.509 111.951 14.29C112.073 14.2007 112.171 14.083 112.237 13.947C112.304 13.8111 112.336 13.6611 112.331 13.51C112.302 13.0049 112.12 12.5203 111.811 12.12C111.705 11.9576 111.554 11.8295 111.376 11.7514C111.199 11.6733 111.002 11.6485 110.811 11.68C110.273 11.7907 109.763 12.0084 109.311 12.32C109.018 12.5021 108.734 12.699 108.461 12.91L107.461 13.58C107.131 13.79 106.891 13.94 106.711 14.03L105.351 14.76C104.191 15.36 103.461 15.76 103.131 15.97C102.753 16.2299 102.438 16.5717 102.211 16.97C102.108 17.1311 102.053 17.3186 102.053 17.51C102.053 17.7015 102.108 17.8889 102.211 18.05C102.39 18.3168 102.584 18.5738 102.791 18.82L103.251 19.48C104.389 21.3182 105.391 23.2365 106.251 25.22C106.349 25.3878 106.486 25.5303 106.649 25.6362C106.812 25.7421 106.998 25.8085 107.191 25.83C107.533 25.9024 107.889 25.8453 108.191 25.67C108.681 25.2276 109.124 24.7349 109.511 24.2C109.791 23.84 110.081 23.48 110.391 23.13C110.611 22.8572 110.867 22.615 111.151 22.41C112.174 21.5962 113.444 21.1554 114.751 21.16C115.229 21.2228 115.687 21.3954 116.088 21.6643C116.488 21.9332 116.821 22.2911 117.061 22.71C117.603 23.4077 117.877 24.2774 117.831 25.16C117.687 25.9192 117.368 26.6346 116.901 27.25C116.579 27.6937 116.171 28.0679 115.701 28.35C115.178 28.7072 114.59 28.9586 113.971 29.09C113.371 29.1759 112.761 29.1759 112.161 29.09L111.061 28.88C110.731 28.8127 110.397 28.7692 110.061 28.75C109.877 28.7419 109.696 28.7908 109.541 28.89C109.258 29.094 109.051 29.3858 108.951 29.72C108.875 29.8916 108.844 30.0795 108.859 30.2665C108.875 30.4535 108.937 30.6335 109.041 30.79C109.359 31.3347 109.848 31.7598 110.431 32C111.171 32.2136 111.946 32.2782 112.711 32.19C113.55 32.1168 114.382 31.9797 115.201 31.78C115.989 31.5737 116.736 31.2356 117.411 30.78C118.357 30.1789 119.137 29.3503 119.681 28.37C120.248 27.3475 120.589 26.2154 120.681 25.05C120.716 24.3782 120.655 23.7048 120.501 23.05C120.407 22.4279 120.2 21.8282 119.891 21.28C119.26 20.3382 118.418 19.5573 117.431 19C116.451 18.4332 115.333 18.1493 114.201 18.18C112.987 18.2202 111.808 18.6014 110.801 19.28C110.202 19.6596 109.627 20.0771 109.081 20.53C108.62 20.9388 108.21 21.4022 107.861 21.91C107.607 21.3173 107.313 20.7427 106.981 20.19C106.55 19.4985 106.192 18.7646 105.911 18ZM105.911 38.19C106.014 38.6592 106.044 39.1416 106.001 39.62C105.967 39.9395 105.9 40.2545 105.801 40.56C105.621 41.11 105.581 41.46 105.671 41.56C105.814 41.8239 106.038 42.0343 106.311 42.16C106.524 42.22 106.858 42.11 107.311 41.83C107.576 41.6261 107.775 41.3475 107.881 41.03C108.053 40.6414 108.171 40.2308 108.231 39.81C108.271 39.0534 108.221 38.2947 108.081 37.55C107.989 36.7797 107.737 36.0372 107.341 35.37C107.081 34.9433 106.671 34.6294 106.191 34.49C105.963 34.4194 105.722 34.4017 105.487 34.4381C105.251 34.4745 105.027 34.564 104.831 34.7C104.301 35.0207 103.857 35.4672 103.541 36C103.403 36.2246 103.344 36.4881 103.371 36.75C103.406 37.043 103.502 37.3255 103.651 37.58C103.829 37.9069 104.115 38.1615 104.461 38.3C104.746 38.4018 105.049 38.4459 105.351 38.43C105.533 38.4349 105.71 38.3746 105.851 38.26L105.911 38.19ZM83.1709 29.84C83.0877 29.7129 82.9705 29.6117 82.8325 29.5481C82.6946 29.4844 82.5416 29.4608 82.3909 29.48C82.0338 29.505 81.6892 29.6221 81.3909 29.82C81.1026 30.0033 80.8707 30.2629 80.7209 30.57C80.6587 30.7189 80.6267 30.8787 80.6267 31.04C80.6267 31.2014 80.6587 31.3611 80.7209 31.51C81.1209 32.51 81.4409 33.45 81.7209 34.2C82.0009 34.95 82.2309 35.87 82.5009 37C82.6109 37.37 82.7309 37.84 82.8509 38.42C83.2209 39.87 83.5409 41 83.8509 41.83C84.0464 42.5323 84.3356 43.205 84.7109 43.83C84.8794 44.0775 85.1228 44.2645 85.4053 44.3635C85.6879 44.4625 85.9948 44.4683 86.2809 44.38C87.1126 44.2029 87.901 43.863 88.6009 43.38C89.2409 42.96 90.1509 42.27 91.3209 41.31C92.1763 40.594 93.0711 39.9263 94.0009 39.31C94.1351 39.5046 94.2554 39.7084 94.3609 39.92C94.7709 40.63 95.3609 41.59 96.1509 42.79C96.2666 42.974 96.4235 43.1285 96.6092 43.2413C96.7949 43.3541 97.0043 43.4221 97.2209 43.44C97.6773 43.4948 98.1383 43.3849 98.5209 43.13C98.8386 42.9313 99.0759 42.6267 99.1909 42.27C99.2488 42.0853 99.2627 41.8897 99.2314 41.6987C99.2002 41.5076 99.1247 41.3266 99.0109 41.17L96.6209 37.54L97.0609 37.22C97.2703 37.0844 97.4873 36.9609 97.7109 36.85C97.8857 36.7695 98.056 36.6794 98.2209 36.58C98.6461 36.3935 99.0572 36.1763 99.4509 35.93C99.6309 35.82 99.7109 35.59 99.6809 35.25C99.617 34.821 99.4525 34.4133 99.2009 34.06C99.059 33.8669 98.8715 33.7119 98.6552 33.6089C98.4388 33.506 98.2002 33.4582 97.9609 33.47C97.4297 33.4306 96.9001 33.5639 96.4509 33.85C96.2209 34.01 95.8909 34.24 95.4509 34.56L94.9209 34.93L94.3309 34.09C94.0209 33.6 93.6609 33.02 93.2709 32.33L92.4209 30.85C91.5709 29.3 90.9209 28.18 90.4209 27.48C90.1154 26.9289 89.675 26.4643 89.1409 26.13C88.7309 25.91 88.1409 26.01 87.5309 26.45C86.6809 27 86.6709 27.91 87.5309 29.19C88.1642 30.1567 89.1642 31.6533 90.5309 33.68L92.5309 36.68C92.0409 36.99 91.2809 37.57 90.2309 38.4C89.1809 39.23 88.3809 39.83 87.8309 40.2C87.5115 40.4019 87.1772 40.5791 86.8309 40.73L86.2409 38.46C85.7409 36.3867 85.2709 34.6667 84.8309 33.3C84.4756 32.1175 83.9644 30.9876 83.3109 29.94L83.1709 29.84ZM76.5809 53.33C76.7509 52.6 76.9709 51.81 77.2309 50.95C77.7309 49.12 78.1009 47.57 78.3309 46.3C78.5762 44.9986 78.6502 43.6706 78.5509 42.35C78.4644 41.0224 78.0411 39.7387 77.3209 38.62C76.8235 37.8668 76.0586 37.3306 75.1809 37.12C74.2023 36.8614 73.1804 36.8103 72.1809 36.97C71.2127 37.1031 70.2847 37.4443 69.4609 37.97C68.4256 38.567 67.521 39.3662 66.8009 40.32C66.1972 41.1523 65.8214 42.1278 65.7109 43.15C65.6134 44.0974 65.8504 45.049 66.3809 45.84C66.6487 46.3162 67.0344 46.7156 67.5009 47C67.7237 47.1111 67.9734 47.1569 68.2211 47.1321C68.4688 47.1073 68.7045 47.013 68.9009 46.86C69.2295 46.66 69.488 46.3631 69.6409 46.01C69.7083 45.8857 69.7436 45.7465 69.7436 45.605C69.7436 45.4636 69.7083 45.3244 69.6409 45.2C69.3837 44.8555 69.1982 44.463 69.0951 44.0457C68.9921 43.6283 68.9736 43.1946 69.0409 42.77C69.3148 41.836 69.9477 41.0485 70.8009 40.58C71.439 40.1509 72.1919 39.9243 72.9609 39.93C73.2904 39.9073 73.62 39.9732 73.9154 40.1209C74.2108 40.2687 74.4613 40.4928 74.6409 40.77C75.2275 41.7672 75.4502 42.937 75.2709 44.08C75.0648 45.7696 74.7305 47.4411 74.2709 49.08C73.9709 50.32 73.7809 51.18 73.6909 51.67L73.4609 52.74C73.2603 53.616 73.1199 54.5048 73.0409 55.4C72.9604 55.9964 73.0837 56.6025 73.3909 57.12C73.5097 57.3498 73.6934 57.5396 73.9192 57.6658C74.145 57.792 74.4029 57.8491 74.6609 57.83C75.3268 57.7237 75.9577 57.4597 76.5009 57.06L77.5009 56.37L78.2409 55.8C78.7509 55.4 79.2409 55.07 79.6009 54.8C80.3309 54.32 81.3909 53.71 82.7509 52.98C83.8809 52.35 84.6109 51.98 84.9609 51.7C85.3628 51.4431 85.704 51.1019 85.9609 50.7C86.0771 50.5637 86.1505 50.396 86.1718 50.2181C86.1932 50.0402 86.1615 49.86 86.0809 49.7C85.7732 49.1585 85.2679 48.7571 84.6709 48.58C84.3473 48.5121 84.0129 48.5145 83.6903 48.5869C83.3677 48.6594 83.0644 48.8003 82.8009 49C82.1009 49.45 81.3309 50 80.4809 50.62L79.2909 51.47C78.8209 51.8 78.2909 52.16 77.6709 52.56C77.4709 52.69 77.0609 52.93 76.4209 53.3" fill="#231F20"/>
</g>
<defs>
<clipPath id="clip0_415_849">
<rect width="146.84" height="250.87" fill="white"/>
</clipPath>
</defs>
</svg>
