<svg width="154" height="273" viewBox="0 0 154 273" fill="none" xmlns="http://www.w3.org/2000/svg">
<g clip-path="url(#clip0_415_873)">
<path d="M21.8994 96.82C21.2994 95.92 17.4494 90.91 17.4494 90.91L50.9194 93.82L38.0094 114.93L33.8094 112.33L12.3994 124.26L2.60938 104.9L21.8994 96.82Z" fill="#BDC0C0"/>
<path d="M88.3501 49.91L74.5801 28.87L102.75 9.19L97.0101 1.17L136.19 0L127.41 32.64L121.13 27.36L88.3501 49.91Z" fill="#BDC0C0"/>
<path d="M45.317 217.42V216.37L49.2611 212.052C49.724 211.547 50.1052 211.107 50.4047 210.734C50.7042 210.356 50.9259 210.002 51.0698 209.672C51.2176 209.337 51.2915 208.987 51.2915 208.622C51.2915 208.201 51.1904 207.838 50.9881 207.53C50.7898 207.223 50.5175 206.986 50.1713 206.819C49.8251 206.651 49.4362 206.568 49.0044 206.568C48.5454 206.568 48.1448 206.663 47.8025 206.854C47.4641 207.04 47.2015 207.303 47.0148 207.641C46.832 207.98 46.7406 208.376 46.7406 208.832H45.3637C45.3637 208.131 45.5251 207.517 45.8479 206.988C46.1708 206.459 46.6103 206.047 47.1665 205.751C47.7267 205.455 48.3548 205.308 49.0511 205.308C49.7512 205.308 50.3716 205.455 50.9123 205.751C51.453 206.047 51.8769 206.445 52.1842 206.947C52.4915 207.449 52.6451 208.007 52.6451 208.622C52.6451 209.061 52.5654 209.491 52.4059 209.911C52.2503 210.327 51.9781 210.792 51.5891 211.305C51.204 211.815 50.6692 212.437 49.9846 213.172L47.3007 216.043V216.136H52.8552V217.42H45.317ZM59.1623 217.583C58.2832 217.583 57.5345 217.344 56.916 216.866C56.2976 216.383 55.825 215.685 55.4982 214.771C55.1715 213.853 55.0081 212.745 55.0081 211.445C55.0081 210.154 55.1715 209.051 55.4982 208.137C55.8289 207.219 56.3034 206.519 56.9219 206.037C57.5442 205.551 58.291 205.308 59.1623 205.308C60.0336 205.308 60.7785 205.551 61.3969 206.037C62.0193 206.519 62.4938 207.219 62.8205 208.137C63.1512 209.051 63.3165 210.154 63.3165 211.445C63.3165 212.745 63.1531 213.853 62.8264 214.771C62.4996 215.685 62.0271 216.383 61.4086 216.866C60.7901 217.344 60.0414 217.583 59.1623 217.583ZM59.1623 216.3C60.0336 216.3 60.7104 215.88 61.1927 215.039C61.675 214.199 61.9162 213.001 61.9162 211.445C61.9162 210.411 61.8053 209.53 61.5836 208.802C61.3658 208.075 61.0507 207.521 60.6384 207.14C60.23 206.758 59.738 206.568 59.1623 206.568C58.2988 206.568 57.6239 206.994 57.1377 207.846C56.6515 208.693 56.4084 209.893 56.4084 211.445C56.4084 212.48 56.5173 213.359 56.7351 214.083C56.953 214.806 57.2661 215.357 57.6745 215.734C58.0868 216.111 58.5827 216.3 59.1623 216.3ZM69.7345 205.471V217.42H68.2875V206.988H68.2175L65.3002 208.925V207.455L68.2875 205.471H69.7345ZM72.8909 214.969V213.779L78.142 205.471H79.0055V207.315H78.422L74.4546 213.593V213.686H81.526V214.969H72.8909ZM78.5154 217.42V214.608V214.053V205.471H79.8923V217.42H78.5154ZM95.3115 210.804V212.087H87.0965V210.804H95.3115ZM101.169 217.42V216.37L105.114 212.052C105.576 211.547 105.958 211.107 106.257 210.734C106.557 210.356 106.778 210.002 106.922 209.672C107.07 209.337 107.144 208.987 107.144 208.622C107.144 208.201 107.043 207.838 106.841 207.53C106.642 207.223 106.37 206.986 106.024 206.819C105.678 206.651 105.289 206.568 104.857 206.568C104.398 206.568 103.997 206.663 103.655 206.854C103.316 207.04 103.054 207.303 102.867 207.641C102.684 207.98 102.593 208.376 102.593 208.832H101.216C101.216 208.131 101.377 207.517 101.7 206.988C102.023 206.459 102.463 206.047 103.019 205.751C103.579 205.455 104.207 205.308 104.903 205.308C105.604 205.308 106.224 205.455 106.765 205.751C107.305 206.047 107.729 206.445 108.037 206.947C108.344 207.449 108.498 208.007 108.498 208.622C108.498 209.061 108.418 209.491 108.258 209.911C108.103 210.327 107.83 210.792 107.441 211.305C107.056 211.815 106.522 212.437 105.837 213.172L103.153 216.043V216.136H108.708V217.42H101.169ZM115.015 217.583C114.136 217.583 113.387 217.344 112.768 216.866C112.15 216.383 111.677 215.685 111.351 214.771C111.024 213.853 110.861 212.745 110.861 211.445C110.861 210.154 111.024 209.051 111.351 208.137C111.681 207.219 112.156 206.519 112.774 206.037C113.397 205.551 114.143 205.308 115.015 205.308C115.886 205.308 116.631 205.551 117.249 206.037C117.872 206.519 118.346 207.219 118.673 208.137C119.004 209.051 119.169 210.154 119.169 211.445C119.169 212.745 119.005 213.853 118.679 214.771C118.352 215.685 117.879 216.383 117.261 216.866C116.643 217.344 115.894 217.583 115.015 217.583ZM115.015 216.3C115.886 216.3 116.563 215.88 117.045 215.039C117.527 214.199 117.769 213.001 117.769 211.445C117.769 210.411 117.658 209.53 117.436 208.802C117.218 208.075 116.903 207.521 116.491 207.14C116.082 206.758 115.59 206.568 115.015 206.568C114.151 206.568 113.476 206.994 112.99 207.846C112.504 208.693 112.261 209.893 112.261 211.445C112.261 212.48 112.37 213.359 112.588 214.083C112.805 214.806 113.118 215.357 113.527 215.734C113.939 216.111 114.435 216.3 115.015 216.3ZM125.587 205.471V217.42H124.14V206.988H124.07L121.153 208.925V207.455L124.14 205.471H125.587ZM132.991 217.583C132.501 217.576 132.011 217.482 131.521 217.303C131.03 217.124 130.583 216.823 130.179 216.399C129.774 215.971 129.449 215.393 129.204 214.666C128.959 213.935 128.837 213.017 128.837 211.912C128.837 210.854 128.936 209.917 129.134 209.1C129.333 208.279 129.62 207.589 129.998 207.029C130.375 206.465 130.83 206.037 131.363 205.745C131.9 205.453 132.505 205.308 133.178 205.308C133.847 205.308 134.442 205.442 134.963 205.71C135.488 205.975 135.916 206.344 136.246 206.819C136.577 207.293 136.791 207.84 136.888 208.458H135.465C135.332 207.921 135.076 207.476 134.695 207.122C134.313 206.768 133.808 206.591 133.178 206.591C132.252 206.591 131.522 206.994 130.99 207.799C130.461 208.604 130.194 209.734 130.19 211.189H130.284C130.501 210.858 130.76 210.576 131.06 210.343C131.363 210.105 131.698 209.923 132.063 209.794C132.429 209.666 132.816 209.602 133.224 209.602C133.909 209.602 134.535 209.773 135.103 210.115C135.671 210.454 136.126 210.922 136.468 211.521C136.81 212.116 136.982 212.799 136.982 213.569C136.982 214.308 136.816 214.985 136.486 215.6C136.155 216.21 135.69 216.697 135.091 217.058C134.496 217.416 133.796 217.591 132.991 217.583ZM132.991 216.3C133.481 216.3 133.92 216.177 134.309 215.932C134.702 215.687 135.012 215.358 135.237 214.946C135.467 214.534 135.581 214.075 135.581 213.569C135.581 213.075 135.47 212.626 135.249 212.221C135.031 211.813 134.73 211.488 134.344 211.247C133.963 211.006 133.528 210.885 133.038 210.885C132.668 210.885 132.324 210.959 132.005 211.107C131.686 211.251 131.406 211.449 131.165 211.702C130.927 211.955 130.741 212.245 130.605 212.571C130.468 212.894 130.4 213.235 130.4 213.593C130.4 214.067 130.511 214.511 130.733 214.923C130.958 215.335 131.266 215.668 131.655 215.921C132.048 216.173 132.493 216.3 132.991 216.3Z" fill="#231F20"/>
<path d="M33.5 270L33.66 245V239.74C33.62 239.479 33.6847 239.213 33.84 239C34.1748 238.814 34.5603 238.741 34.94 238.79C35.561 238.8 36.1721 238.947 36.73 239.22C37.3147 239.493 37.8385 239.88 38.27 240.36C38.6659 240.877 39.0014 241.437 39.27 242.03C39.829 243.239 40.1124 244.558 40.1 245.89C40.0635 247.528 39.7245 249.145 39.1 250.66L38.6 251.89L38.19 253C38.3422 255.818 38.8979 258.6 39.84 261.26C40.2 262.4 40.7133 263.96 41.38 265.94C42.05 267.94 42.47 269.18 42.63 269.71V269.81C42.63 270.77 42.52 271.33 42.3 271.49C42.0954 271.644 41.8463 271.729 41.59 271.73C41.06 271.73 40.59 271.35 40.05 270.58V270.44C39.91 267.853 39.02 263.937 37.38 258.69C36.63 256.3 36.1 254.53 35.81 253.37V270.21C35.8332 270.559 35.7532 270.906 35.58 271.21C35.4846 271.336 35.3576 271.435 35.2119 271.496C35.0662 271.558 34.9069 271.58 34.75 271.56C34.5826 271.575 34.414 271.552 34.2566 271.493C34.0992 271.434 33.9569 271.341 33.84 271.22C33.6369 270.984 33.5298 270.681 33.54 270.37L33.5 270ZM37.42 243C37.0333 241.667 36.5067 240.927 35.84 240.78L35.61 249.49C35.61 250.37 35.61 251.02 35.61 251.49C36.1339 250.98 36.6155 250.428 37.05 249.84L37.71 246.15C37.7606 245.93 37.7841 245.705 37.78 245.48C37.7539 244.638 37.6126 243.804 37.36 243H37.42ZM54.29 258.4L53.92 263.8V264C53.7344 264.844 53.6438 265.706 53.65 266.57C53.6515 267.478 53.4889 268.38 53.17 269.23C52.8486 270.081 52.3511 270.855 51.71 271.5C51.4384 271.804 51.1076 272.05 50.738 272.221C50.3683 272.393 49.9675 272.488 49.56 272.5C48.7781 272.501 48.0218 272.221 47.43 271.71C46.7692 271.161 46.231 270.48 45.85 269.71C45.3799 268.75 45.008 267.745 44.74 266.71C44.4262 265.606 44.1791 264.484 44 263.35C43.83 262.26 43.68 261.11 43.57 259.9C43.41 258.05 43.33 256.62 43.33 255.6C43.33 254.58 43.33 253.7 43.33 252.97C43.33 252.24 43.33 251.58 43.33 250.97V248.86C43.33 248.04 43.33 247.3 43.4 246.65C43.47 246 43.5 245.29 43.59 244.53C43.6669 243.857 43.7838 243.189 43.94 242.53C44.0722 241.947 44.2597 241.378 44.5 240.83C44.7104 240.327 44.9898 239.856 45.33 239.43C45.6141 239.062 45.9772 238.762 46.3925 238.552C46.8079 238.343 47.2649 238.229 47.73 238.22C48.5314 238.195 49.3271 238.363 50.05 238.71C50.7271 239.071 51.286 239.62 51.66 240.29C52.1 241.01 52.48 241.71 52.81 242.39C53.2006 243.299 53.4599 244.258 53.58 245.24C53.77 246.46 53.92 247.44 54.03 248.19C54.1654 249.278 54.2422 250.373 54.26 251.47C54.32 253.37 54.34 254.86 54.34 255.93L54.29 258.4ZM50.51 242.77C50.2856 242.133 49.9197 241.555 49.44 241.08C49.1144 240.723 48.6622 240.508 48.18 240.48C47.9918 240.479 47.8054 240.518 47.6331 240.593C47.4608 240.669 47.3064 240.781 47.18 240.92C46.87 241.283 46.6355 241.705 46.49 242.16C46.3 242.7 46.14 243.27 45.99 243.88C45.8273 244.577 45.7169 245.286 45.66 246C45.58 246.8 45.51 247.53 45.46 248.18C45.41 248.83 45.38 249.53 45.35 250.31C45.35 251.6 45.35 252.61 45.29 253.31V253.5C45.3023 255.561 45.4493 257.618 45.73 259.66C46.02 261.87 46.32 263.66 46.64 265.08C46.8728 266.326 47.2766 267.534 47.84 268.67C48.3733 269.65 48.9633 270.14 49.61 270.14C50.18 270.14 50.61 269.61 51.05 268.54C51.4848 267.244 51.7668 265.902 51.89 264.54C52.16 261.71 52.31 259.72 52.31 258.54C52.31 257.36 52.31 256.54 52.31 256.02C52.31 255.5 52.31 254.73 52.25 253.72C52.19 252.71 52.16 251.77 52.07 250.88C51.98 249.99 51.88 249.02 51.75 247.95C51.636 246.987 51.4623 246.032 51.23 245.09C51.031 244.305 50.7907 243.53 50.51 242.77ZM57.43 261.61L57.28 245.07C57.28 243.223 57.3 241.383 57.34 239.55L58.53 238.88C59.3833 238.933 60.35 241.2 61.43 245.68C62.31 249.33 63.02 252.62 63.56 255.53C64.1 258.44 64.4 260.03 64.46 260.28C64.6467 259.36 65.0067 257.72 65.54 255.36C66.07 252.99 66.47 251.16 66.73 249.85C67.4464 246.488 67.9275 243.079 68.17 239.65V239.4C68.1944 239.226 68.2528 239.059 68.3421 238.908C68.4313 238.757 68.5496 238.625 68.69 238.52C68.9516 238.311 69.2752 238.195 69.61 238.19C69.757 238.186 69.9031 238.214 70.038 238.273C70.1728 238.332 70.293 238.419 70.39 238.53C70.5775 238.731 70.6843 238.995 70.69 239.27C70.69 242.677 70.82 247.78 71.08 254.58C71.34 261.38 71.47 266.483 71.47 269.89C71.4802 270.527 71.2876 271.15 70.92 271.67C70.56 272.17 70.21 272.42 69.92 272.42C69.22 272.42 68.92 271.86 68.92 270.73L68.75 252.73V250.56C68.5633 251.66 68.1267 253.583 67.44 256.33C66.8911 258.409 66.4505 260.515 66.12 262.64V262.91C66.0656 263.171 66.0255 263.435 66 263.7C65.94 264.12 65.88 264.46 65.82 264.7C65.7458 265.009 65.6523 265.313 65.54 265.61C65.4607 265.899 65.2884 266.153 65.0498 266.334C64.8111 266.515 64.5194 266.612 64.22 266.61C63.22 266.61 62.7 265.28 62.7 262.61C62.5138 258.878 61.8689 255.184 60.78 251.61C60.1133 249.25 59.7033 247.653 59.55 246.82C59.55 249.1 59.47 250.82 59.47 251.97L59.82 269.53C59.8268 270.13 59.5969 270.708 59.18 271.14C58.8885 271.175 58.5931 271.127 58.3278 271.001C58.0624 270.875 57.8379 270.678 57.68 270.43C57.4006 269.83 57.2702 269.171 57.3 268.51L57.43 261.61ZM85.01 258.4L84.63 263.8V264C84.4444 264.844 84.3538 265.706 84.36 266.57C84.3615 267.478 84.1989 268.38 83.88 269.23C83.5625 270.083 83.0644 270.857 82.42 271.5C82.1484 271.804 81.8176 272.05 81.448 272.221C81.0783 272.393 80.6775 272.488 80.27 272.5C79.4912 272.501 78.7383 272.22 78.15 271.71C77.4888 271.159 76.9476 270.478 76.56 269.71C76.0891 268.751 75.7204 267.746 75.46 266.71C75.143 265.606 74.8926 264.484 74.71 263.35C74.5433 262.263 74.4033 261.113 74.29 259.9C74.12 258.05 74.04 256.62 74.05 255.6C74.06 254.58 74.05 253.7 74.05 252.97C74.05 252.24 74.05 251.58 74.05 250.97V248.86C74.05 248.04 74.05 247.3 74.13 246.65C74.21 246 74.23 245.29 74.32 244.53C74.3939 243.857 74.5074 243.189 74.66 242.53C74.8013 241.949 74.9886 241.381 75.22 240.83C75.4297 240.325 75.7128 239.853 76.06 239.43C76.3426 239.06 76.7054 238.759 77.1211 238.549C77.5367 238.34 77.9945 238.227 78.46 238.22C79.2581 238.197 80.0502 238.365 80.77 238.71C81.4482 239.073 82.0098 239.621 82.39 240.29C82.83 241.01 83.21 241.71 83.54 242.39C83.926 243.3 84.1851 244.259 84.31 245.24C84.49 246.46 84.64 247.44 84.76 248.19C84.8911 249.279 84.9645 250.374 84.98 251.47C85.04 253.37 85.07 254.86 85.07 255.93L85.01 258.4ZM81.22 242.77C80.9988 242.134 80.6364 241.556 80.16 241.08C79.8319 240.727 79.3812 240.512 78.9 240.48C78.7121 240.481 78.5266 240.521 78.3546 240.597C78.1827 240.673 78.028 240.782 77.9 240.92C77.5899 241.282 77.3583 241.704 77.22 242.16C76.7687 243.399 76.4731 244.689 76.34 246C76.26 246.8 76.2 247.53 76.14 248.18C76.08 248.83 76.07 249.53 76.04 250.31C76.04 251.6 76.04 252.61 75.98 253.31V253.5C75.9888 255.561 76.1324 257.618 76.41 259.66C76.71 261.87 77.01 263.66 77.32 265.08C77.5782 266.321 78.002 267.522 78.58 268.65C79.11 269.65 79.7 270.12 80.36 270.12C81.02 270.12 81.36 269.59 81.8 268.52C82.2311 267.223 82.5096 265.881 82.63 264.52C82.91 261.687 83.0533 259.687 83.06 258.52V256C83.06 255.48 83.06 254.71 83 253.7C82.94 252.69 82.9 251.75 82.82 250.86C82.74 249.97 82.63 249 82.49 247.93C82.3808 246.966 82.2071 246.011 81.97 245.07C81.7695 244.288 81.5189 243.52 81.22 242.77ZM100.75 270.4C100.769 270.78 100.656 271.154 100.43 271.46C100.312 271.608 100.158 271.724 99.9837 271.798C99.8089 271.871 99.6185 271.899 99.43 271.88C98.3967 271.88 97.1033 266.407 95.55 255.46C95.33 253.853 95.19 252.923 95.13 252.67C94.5967 256.457 94.1933 259.733 93.92 262.5C93.6467 265.267 93.51 268.003 93.51 270.71C93.5071 270.867 93.4708 271.021 93.4036 271.162C93.3363 271.304 93.2396 271.429 93.12 271.53C93.0115 271.644 92.8813 271.736 92.7371 271.799C92.5929 271.863 92.4375 271.897 92.28 271.9C91.28 271.9 90.71 270.81 90.71 268.64C90.71 267.307 90.1233 262.43 88.95 254.01C87.7767 245.59 87.03 240.983 86.71 240.19C86.8396 239.894 87.0521 239.642 87.3219 239.465C87.5916 239.287 87.9071 239.192 88.23 239.19C88.88 239.19 89.48 240.67 90.01 243.63C90.54 246.59 91.01 250.19 91.39 254.41C91.77 258.63 91.97 260.76 91.98 260.82C91.98 260.43 92.17 259.23 92.41 257.22C92.65 255.21 92.85 253.6 92.99 252.37C93.4 248.67 93.61 246.05 93.61 244.49V243.67C93.6201 243.345 93.7439 243.033 93.96 242.79C94.048 242.663 94.1641 242.558 94.2995 242.483C94.4348 242.409 94.5856 242.367 94.74 242.36C95.74 242.36 96.26 242.78 96.26 243.61V244.26C96.455 248.302 97.0989 252.31 98.18 256.21C98.74 258.49 99.18 260.32 99.37 261.7C99.52 260.13 99.8 257.85 100.2 254.88C100.954 249.913 101.395 244.903 101.52 239.88C101.481 239.402 101.589 238.924 101.83 238.51C101.951 238.365 102.105 238.25 102.278 238.175C102.452 238.1 102.641 238.068 102.83 238.08C103.231 238.061 103.627 238.181 103.95 238.42C104.078 238.521 104.181 238.65 104.25 238.798C104.32 238.945 104.354 239.107 104.35 239.27C104.353 239.458 104.316 239.644 104.242 239.816C104.168 239.988 104.058 240.143 103.92 240.27C103.826 245.331 103.284 250.374 102.3 255.34C101.342 260.305 100.823 265.344 100.75 270.4ZM111.29 241.21H110.54C110.318 241.193 110.098 241.257 109.92 241.39C109.842 241.488 109.784 241.6 109.749 241.72C109.715 241.84 109.705 241.966 109.72 242.09C109.72 244.87 109.897 249.033 110.25 254.58C110.603 260.127 110.777 264.293 110.77 267.08V268.73C111.057 268.682 111.349 268.658 111.64 268.66C112.83 268.66 113.42 269.16 113.42 270.16V270.42L112.35 271.15L109.45 271.25C106.99 271.25 105.76 270.83 105.76 269.98C105.76 269.313 106.19 268.98 107.05 268.98L107.95 269.04C108.37 269.04 108.58 268.7 108.58 268.04C108.58 265.84 108.447 262.547 108.18 258.16C107.92 253.77 107.78 250.48 107.78 248.28L107.87 243.92C107.874 243.129 107.838 242.338 107.76 241.55C107.438 241.661 107.101 241.722 106.76 241.73C106.625 241.746 106.488 241.731 106.359 241.687C106.23 241.642 106.114 241.569 106.017 241.473C105.921 241.376 105.848 241.26 105.803 241.131C105.759 241.002 105.744 240.865 105.76 240.73C105.777 240.534 105.846 240.346 105.961 240.186C106.075 240.026 106.23 239.9 106.41 239.82C106.906 239.543 107.448 239.357 108.01 239.27C108.887 239.097 109.777 238.994 110.67 238.96C111.111 238.917 111.553 239.038 111.91 239.3C112.033 239.397 112.132 239.522 112.198 239.665C112.264 239.807 112.295 239.963 112.29 240.12C112.297 240.415 112.197 240.702 112.01 240.93C111.919 241.028 111.807 241.104 111.682 241.152C111.557 241.201 111.423 241.22 111.29 241.21ZM120.14 255.65H119.07C118.911 255.628 118.749 255.645 118.597 255.699C118.446 255.753 118.309 255.842 118.2 255.96V269.1L120.57 268.98C122.2 268.98 123.01 269.35 123.01 270.1V270.25C122.798 270.662 122.442 270.982 122.01 271.15C121.614 271.331 121.192 271.449 120.76 271.5C120.4 271.5 119.93 271.5 119.36 271.5H118.03C116.97 271.5 116.32 271.29 116.03 270.88C115.908 270.639 115.849 270.37 115.86 270.1V245.32C115.827 244.59 115.73 243.863 115.57 243.15C115.403 242.431 115.306 241.698 115.28 240.96V240.82C115.573 240.28 115.929 239.777 116.34 239.32L119.51 238.94C119.974 238.949 120.427 239.084 120.82 239.33C121.01 239.42 121.171 239.562 121.286 239.738C121.401 239.915 121.465 240.12 121.47 240.33C121.47 241.18 120.83 241.6 119.53 241.6H118.3H117.84L118.18 248.65C118.18 249.22 118.18 250.05 118.07 251.14C117.96 252.23 117.97 253.03 117.97 253.53L118.59 253.38C119.036 253.251 119.496 253.173 119.96 253.15C120.289 253.15 120.605 253.28 120.84 253.51C120.96 253.617 121.055 253.748 121.121 253.894C121.186 254.041 121.22 254.2 121.22 254.36C121.226 254.687 121.116 255.006 120.91 255.26C120.819 255.378 120.702 255.475 120.569 255.542C120.436 255.61 120.289 255.647 120.14 255.65Z" fill="#231F20"/>
<path d="M0.589653 139.34C0.642987 148.42 0.689653 157.507 0.729653 166.6C0.729653 170.98 0.756319 175.357 0.809653 179.73C0.809653 182.08 0.899653 184.45 0.809653 186.8C0.84265 187.544 0.720036 188.286 0.449654 188.98C0.189654 189.64 -0.0903472 189.76 -0.0203472 190.51C0.00321925 190.805 0.11943 191.084 0.311636 191.309C0.503843 191.533 0.762184 191.691 1.04965 191.76C1.33159 191.856 1.63143 191.888 1.92728 191.853C2.22312 191.819 2.50751 191.719 2.75965 191.56C3.01998 191.428 3.22796 191.212 3.34964 190.947C3.47133 190.682 3.49953 190.383 3.42965 190.1C3.42965 190.03 3.42965 189.95 3.37965 189.88C3.05965 188.25 0.239653 188.94 0.569653 190.57C0.569653 190.64 0.569653 190.71 0.569653 190.79C0.799653 190.3 1.01965 189.79 1.23965 189.33L1.78965 189.27L2.85965 190.51C2.85965 190.26 3.55965 189.51 3.64965 189.16C3.77639 188.38 3.79323 187.585 3.69965 186.8C3.69965 184.44 3.69965 182.09 3.69965 179.73C3.69965 175.35 3.67632 170.973 3.62965 166.6L3.47965 139.34C3.47965 137.67 0.549653 137.67 0.559653 139.34" fill="#231F20"/>
<path d="M3 140.32H22.73C22.73 140.32 24.85 189.23 22.73 189.23H3V140.32Z" fill="#BDC0C0"/>
<path d="M3.20984 192.39C9.61364 191.644 16.0765 191.546 22.4998 192.1C22.864 192.114 23.2195 191.986 23.4917 191.744C23.7639 191.502 23.9317 191.163 23.9598 190.8C23.9858 190.395 23.9161 189.989 23.7563 189.615C23.5965 189.242 23.3511 188.911 23.0398 188.65C21.7398 187.44 19.6798 189.27 20.9698 190.48C21.1198 190.61 21.0598 190.57 21.0398 190.8L22.4998 189.51C15.8171 188.965 9.09633 189.095 2.43984 189.9C2.2672 189.934 2.10333 190.003 1.95829 190.102C1.81325 190.202 1.69012 190.33 1.59645 190.479C1.50279 190.628 1.44058 190.794 1.41364 190.968C1.38671 191.142 1.39562 191.32 1.43984 191.49C1.5801 191.83 1.83827 192.108 2.16703 192.274C2.49579 192.439 2.87311 192.48 3.22983 192.39" fill="#231F20"/>
<path d="M22.7409 140.91L21.6309 190.75C21.6309 192.41 24.5109 192.41 24.5509 190.75L25.6609 140.91C25.6609 139.25 22.7809 139.25 22.7409 140.91Z" fill="#231F20"/>
<path d="M2.52003 141.16C3.76003 140.47 5.37003 140.93 6.71003 141.16C8.3967 141.413 10.0967 141.603 11.81 141.73C15.3601 141.985 18.9248 141.955 22.47 141.64C24.32 141.48 24.34 138.89 22.47 139.06C18.6605 139.39 14.8296 139.39 11.02 139.06C9.26003 138.91 7.52003 138.62 5.77003 138.39C4.17902 138.049 2.52011 138.243 1.05003 138.94C-0.54997 139.81 0.920031 142.05 2.52003 141.17" fill="#231F20"/>
<path d="M36.4902 138.21H56.4902C56.4902 138.21 61.9502 136.04 61.3702 141.55C59.3702 161.07 58.0502 190.21 56.4902 190.21H36.4902V138.21Z" fill="#BDC0C0"/>
<path d="M37.4297 139.32C45.5897 139.2 53.7597 139.43 61.8897 140.03C63.7897 140.17 63.7797 137.58 61.8897 137.45C53.7597 136.85 45.5897 136.62 37.4297 136.74C37.2468 136.717 37.0611 136.734 36.8851 136.788C36.709 136.842 36.5464 136.934 36.4083 137.056C36.2701 137.177 36.1595 137.327 36.0837 137.495C36.0079 137.663 35.9688 137.846 35.9688 138.03C35.9688 138.214 36.0079 138.396 36.0837 138.564C36.1595 138.733 36.2701 138.882 36.4083 139.004C36.5464 139.126 36.709 139.218 36.8851 139.272C37.0611 139.326 37.2468 139.343 37.4297 139.32Z" fill="#231F20"/>
<path d="M60.3498 138.16C58.7898 154.9 57.2265 171.633 55.6598 188.36C55.5098 190.02 58.4698 190.01 58.6598 188.36C60.2198 171.627 61.7831 154.893 63.3498 138.16C63.5098 136.51 60.5498 136.51 60.3498 138.16Z" fill="#231F20"/>
<path d="M35.2109 137.72C35.5309 155.007 35.6943 172.293 35.7009 189.58C35.7009 191.24 38.7009 191.24 38.7009 189.58C38.7009 172.287 38.5376 155 38.2109 137.72C38.2109 136.06 35.2109 136.06 35.2109 137.72Z" fill="#231F20"/>
<path d="M36.6891 188.75C34.6891 189.48 36.2491 191.61 37.7691 191.83C40.0028 192.093 42.2499 192.227 44.4991 192.23C48.9304 192.347 53.3647 192.203 57.7791 191.8C58.5791 191.72 59.2491 191.25 59.2591 190.5C59.2284 190.135 59.0568 189.796 58.7805 189.555C58.5042 189.314 58.1451 189.191 57.7791 189.21C54.4891 189.51 51.1791 189.68 47.8791 189.69C46.2891 189.69 44.6991 189.69 43.1191 189.6C42.3191 189.6 41.5291 189.53 40.7391 189.48L39.3491 189.38H38.7591C38.2391 189.25 38.2191 189.38 38.6791 189.71V190.4C38.6831 190.367 38.6831 190.333 38.6791 190.3L37.9991 191.07L38.1491 191.02C38.3091 190.948 38.4519 190.843 38.5676 190.711C38.6832 190.58 38.7692 190.424 38.8195 190.256C38.8698 190.088 38.8833 189.912 38.859 189.738C38.8348 189.564 38.7734 189.398 38.6791 189.25C38.4478 188.957 38.1235 188.752 37.7599 188.669C37.3963 188.585 37.0151 188.628 36.6791 188.79" fill="#231F20"/>
<path d="M90.4004 66.52C88.4004 107.653 87.7337 148.8 88.4004 189.96C88.4004 191.62 91.6604 191.62 91.6304 189.96C91.0104 148.813 91.6771 107.667 93.6304 66.52C93.7104 64.86 90.4704 64.86 90.3904 66.52" fill="#231F20"/>
<path d="M114.62 66.53L113.18 189.17C113.18 190.84 116.4 190.84 116.42 189.17L117.84 66.53C117.84 64.86 114.62 64.86 114.6 66.53" fill="#231F20"/>
<path d="M90.7609 190.19C93.2709 192.19 96.9009 191.73 100.071 191.4L112.211 190.15C113.071 190.06 113.821 189.62 113.821 188.86C113.773 188.478 113.578 188.129 113.278 187.888C112.977 187.647 112.594 187.533 112.211 187.57L101.211 188.7C99.6109 188.86 98.0009 189.09 96.3809 189.12C95.2034 189.265 94.0122 188.996 93.0109 188.36C91.5309 187.19 89.2409 189.01 90.7209 190.19" fill="#231F20"/>
<path d="M94.3491 68.15C97.6806 67.2357 101.144 66.8975 104.589 67.15C106.319 67.23 108.039 67.39 109.759 67.58C110.484 67.6277 111.206 67.7212 111.919 67.86C112.16 67.9246 112.397 68.0014 112.629 68.09C112.949 68.2 112.769 68.28 112.769 68.17C112.769 69.83 116.039 69.84 116.009 68.17C116.009 66.65 114.479 65.76 112.779 65.37C110.688 64.9937 108.573 64.7632 106.449 64.68C102.091 64.2172 97.6851 64.5562 93.4491 65.68C91.5191 66.25 92.3491 68.75 94.3091 68.17" fill="#231F20"/>
<path d="M127.31 56.42C126.644 100.207 126.47 143.993 126.79 187.78C126.819 188.099 126.965 188.395 127.201 188.611C127.437 188.827 127.746 188.947 128.065 188.947C128.385 188.947 128.694 188.827 128.93 188.611C129.166 188.395 129.312 188.099 129.34 187.78C129.007 144 129.174 100.213 129.84 56.42C129.812 56.1014 129.666 55.8048 129.43 55.5888C129.194 55.3728 128.885 55.2531 128.565 55.2531C128.246 55.2531 127.937 55.3728 127.701 55.5888C127.465 55.8048 127.319 56.1014 127.29 56.42" fill="#231F20"/>
<path d="M128.619 58.41C132.359 58.21 136.099 57.99 139.849 57.83C141.679 57.76 143.509 57.71 145.339 57.76C146.219 57.76 147.099 57.82 147.969 57.89C148.354 57.9102 148.738 57.9502 149.119 58.01C149.719 58.11 149.409 58.19 149.429 57.87C149.299 59.53 152.429 59.52 152.589 57.87C152.749 56.22 150.879 55.61 149.279 55.43C147.024 55.1984 144.756 55.1116 142.489 55.17C137.859 55.25 133.229 55.58 128.619 55.83C126.619 55.93 126.619 58.52 128.619 58.41Z" fill="#231F20"/>
<path d="M150.68 58.61C149.087 102.25 148.64 145.917 149.34 189.61C149.34 191.27 152.53 191.28 152.5 189.61C151.833 145.957 152.28 102.307 153.84 58.66C153.9 56.99 150.73 56.99 150.68 58.66" fill="#231F20"/>
<path d="M128.18 189.7L139.03 189.87C140.75 189.87 142.47 189.87 144.19 189.95C145.386 189.853 146.582 190.144 147.6 190.78C149.03 191.96 151.27 190.13 149.84 188.95C147.41 186.95 143.4 187.36 140.26 187.31L128.18 187.12C126.18 187.12 126.18 189.67 128.18 189.7Z" fill="#231F20"/>
<path d="M16.2496 184.49C16.2496 184.09 16.2996 183.83 16.2996 183.7C16.2996 183.3 16.2996 182.95 16.2996 182.64C16.2996 182.33 16.2996 182.06 16.2996 181.84C16.2996 181.26 16.2996 180.75 16.2996 180.29C16.2858 180.106 16.3117 179.922 16.3756 179.75C16.4394 179.577 16.5397 179.42 16.6697 179.29C16.9366 179.08 17.2704 178.973 17.6096 178.99C17.7896 178.99 17.9396 179.12 18.0496 179.37C18.153 179.61 18.2041 179.869 18.1996 180.13C18.1996 180.35 18.1696 180.81 18.1096 181.51C18.0196 182.35 17.9796 183.02 17.9696 183.51C17.9512 183.813 17.9512 184.117 17.9696 184.42C17.9696 184.56 17.9696 184.73 17.9696 184.93C17.9696 185.13 17.9696 185.35 17.9696 185.6C17.9829 185.966 17.9074 186.33 17.7496 186.66C17.6825 186.783 17.5799 186.883 17.455 186.948C17.3302 187.012 17.189 187.037 17.0496 187.02C16.7191 187.003 16.4046 186.873 16.1596 186.65C15.7801 186.338 15.4194 186.005 15.0796 185.65L14.6697 185.22C14.4697 185.03 14.1396 184.68 13.6697 184.22C13.0553 183.503 12.3866 182.834 11.6697 182.22C11.2069 181.791 10.6094 181.537 9.97965 181.5C9.79951 181.5 9.62234 181.546 9.46487 181.633C9.3074 181.721 9.17482 181.847 9.07965 182C8.84905 182.351 8.72409 182.76 8.71965 183.18C8.66327 183.709 8.81377 184.239 9.13965 184.66C9.31285 184.82 9.51606 184.944 9.73751 185.024C9.95895 185.105 10.1942 185.141 10.4296 185.13C10.5067 185.135 10.5813 185.16 10.6461 185.202C10.7109 185.244 10.7638 185.302 10.7996 185.37C10.9133 185.545 10.9692 185.751 10.9596 185.96C10.9704 186.097 10.9412 186.234 10.8755 186.355C10.8098 186.476 10.7105 186.575 10.5896 186.64C10.3231 186.773 10.027 186.835 9.72965 186.82C9.21005 186.818 8.70754 186.634 8.30965 186.3C7.87823 185.939 7.55041 185.469 7.35965 184.94C7.12752 184.338 7.0187 183.695 7.03965 183.05C7.05617 182.519 7.18571 181.997 7.41965 181.52C7.65438 181.013 7.99544 180.563 8.41965 180.2C8.78794 179.87 9.2653 179.689 9.75965 179.69C10.4845 179.704 11.1937 179.904 11.8196 180.27C12.4467 180.627 13.0248 181.064 13.5396 181.57C14.0496 182.07 14.6296 182.71 15.3096 183.49C15.6196 183.87 15.9096 184.21 16.1896 184.49H16.2496ZM8.06965 170.16C8.78369 170.32 9.48814 170.52 10.1796 170.76C10.8796 171 11.6796 171.31 12.5896 171.67C13.8523 172.18 15.1407 172.624 16.4496 173C16.9464 173.14 17.426 173.334 17.8796 173.58C17.9997 173.636 18.1028 173.723 18.1783 173.832C18.2538 173.941 18.2992 174.068 18.3096 174.2C18.2651 174.478 18.1439 174.737 17.9596 174.95C17.8299 175.037 17.6754 175.079 17.5196 175.07C17.2911 175.054 17.0657 175.006 16.8496 174.93C16.5496 174.85 16.2196 174.74 15.8496 174.62L15.2196 174.4C14.5395 174.164 13.872 173.894 13.2196 173.59C12.5696 173.31 11.9397 173.05 11.3296 172.83C10.6225 172.564 9.90144 172.337 9.16965 172.15C9.3449 172.737 9.42921 173.347 9.41965 173.96C9.39317 174.406 9.3431 174.85 9.26965 175.29C9.20434 175.64 9.16423 175.994 9.14965 176.35C9.48984 176.297 9.82453 176.213 10.1496 176.1C10.515 175.944 10.9035 175.85 11.2996 175.82C11.3715 175.819 11.4426 175.834 11.5082 175.864C11.5738 175.893 11.6322 175.936 11.6796 175.99C11.7403 176.059 11.7852 176.14 11.8111 176.228C11.837 176.316 11.8433 176.409 11.8296 176.5C11.8375 176.63 11.8145 176.761 11.7623 176.881C11.7102 177.001 11.6305 177.107 11.5296 177.19C11.3261 177.346 11.1003 177.471 10.8596 177.56L10.3296 177.77C9.95244 177.931 9.56063 178.055 9.15965 178.14C8.80435 178.215 8.44267 178.255 8.07965 178.26C7.90336 178.261 7.73154 178.205 7.58965 178.1C7.52839 178.064 7.47713 178.013 7.44047 177.951C7.40382 177.89 7.38292 177.821 7.37965 177.75C7.37965 177.58 7.45965 177.32 7.53965 176.97C7.63965 176.41 7.71965 175.94 7.77965 175.56C7.84481 175.157 7.87824 174.749 7.87965 174.34C7.94951 173.484 7.76884 172.625 7.35965 171.87C7.31269 171.753 7.2922 171.626 7.29965 171.5C7.30836 171.182 7.3905 170.871 7.53965 170.59C7.68965 170.29 7.86965 170.14 8.07965 170.15L8.06965 170.16ZM7.46965 146.16C7.46534 146.086 7.48177 146.012 7.51709 145.947C7.55242 145.881 7.60524 145.827 7.66965 145.79C7.80119 145.708 7.95508 145.67 8.10965 145.68C8.35805 145.691 8.59336 145.795 8.76965 145.97L9.63965 146.67C11.3596 148.003 12.7863 149.1 13.9197 149.96C15.1209 150.824 16.3659 151.625 17.6496 152.36C18.3496 152.73 18.6496 153.15 18.6496 153.62C18.6501 153.819 18.5909 154.014 18.4796 154.18C18.4099 154.264 18.3206 154.33 18.2195 154.372C18.1184 154.414 18.0086 154.43 17.8996 154.42C17.7401 154.419 17.5868 154.358 17.4696 154.25C16.9196 153.85 15.9096 153.15 14.4696 152.13C13.0296 151.11 11.9696 150.37 11.0996 149.74C10.2296 149.11 9.42965 148.5 8.70965 147.9L8.27965 147.55C8.05576 147.366 7.8603 147.151 7.69965 146.91C7.55451 146.687 7.47802 146.426 7.47965 146.16H7.46965ZM16.6296 162.38C16.6296 161.99 16.6796 161.72 16.6796 161.59C16.6796 161.2 16.6796 160.84 16.6796 160.53C16.6796 160.22 16.6796 159.96 16.6796 159.73C16.6796 159.16 16.6796 158.64 16.6796 158.19C16.6645 158.006 16.6897 157.822 16.7537 157.649C16.8176 157.476 16.9186 157.319 17.0496 157.19C17.3083 156.972 17.6423 156.864 17.9796 156.89C18.1696 156.89 18.3196 157.02 18.4197 157.27C18.5259 157.506 18.5805 157.761 18.5796 158.02C18.5796 158.25 18.5796 158.71 18.4796 159.41C18.3796 160.11 18.3496 160.91 18.3396 161.41C18.3396 161.67 18.3396 161.97 18.3396 162.33C18.3396 162.47 18.3396 162.64 18.3396 162.84C18.3396 163.04 18.3396 163.26 18.3396 163.5C18.3516 163.868 18.2798 164.234 18.1296 164.57C18.0579 164.691 17.953 164.79 17.8272 164.854C17.7014 164.917 17.56 164.944 17.4197 164.93C17.0907 164.906 16.7783 164.777 16.5296 164.56C16.1514 164.251 15.7939 163.916 15.4596 163.56L15.0496 163.13C14.8496 162.94 14.5196 162.59 14.0496 162.13C13.4353 161.413 12.7666 160.744 12.0496 160.13C11.5855 159.703 10.9889 159.449 10.3596 159.41C10.1784 159.404 9.99889 159.447 9.84036 159.535C9.68182 159.623 9.55022 159.753 9.45965 159.91C9.22308 160.258 9.09756 160.669 9.09965 161.09C9.03945 161.616 9.1905 162.145 9.51965 162.56C9.69654 162.722 9.90547 162.844 10.1329 162.92C10.3603 162.996 10.6011 163.023 10.8396 163C10.917 163.009 10.991 163.036 11.0555 163.079C11.1199 163.123 11.1728 163.181 11.2096 163.25C11.3279 163.423 11.3843 163.631 11.3696 163.84C11.3801 163.976 11.3518 164.112 11.2881 164.232C11.2244 164.352 11.1278 164.452 11.0096 164.52C10.7376 164.647 10.4397 164.708 10.1396 164.7C9.62109 164.692 9.12044 164.509 8.71965 164.18C8.27504 163.82 7.93064 163.352 7.71965 162.82C7.49208 162.217 7.38342 161.575 7.39965 160.93C7.43324 160.394 7.5834 159.872 7.83965 159.4C8.07438 158.893 8.41544 158.443 8.83965 158.08C9.20227 157.747 9.67769 157.565 10.1696 157.57C10.8986 157.578 11.6126 157.778 12.2396 158.15C12.8673 158.506 13.4455 158.943 13.9596 159.45C14.4596 159.943 15.0496 160.583 15.7296 161.37C16.0396 161.75 16.3296 162.09 16.5996 162.37L16.6296 162.38ZM7.53965 153.11C7.55816 152.723 7.66052 152.344 7.83965 152C7.99771 151.643 8.24161 151.33 8.54965 151.09C8.83014 150.856 9.1843 150.728 9.54965 150.73C10.039 150.732 10.5202 150.855 10.9496 151.09C11.3538 151.301 11.6913 151.621 11.9244 152.013C12.1575 152.405 12.2771 152.854 12.2696 153.31C12.2769 153.634 12.2197 153.957 12.1012 154.259C11.9828 154.561 11.8055 154.837 11.5796 155.07C11.3489 155.29 11.0753 155.46 10.776 155.57C10.4767 155.681 10.158 155.728 9.83965 155.71C9.52016 155.727 9.20091 155.672 8.90628 155.547C8.61165 155.422 8.34943 155.232 8.13965 154.99C7.728 154.438 7.52916 153.757 7.57965 153.07L7.53965 153.11ZM10.8896 153.56C10.8896 152.71 10.4596 152.28 9.55965 152.27C9.46334 152.26 9.36611 152.276 9.27815 152.316C9.19018 152.357 9.11471 152.42 9.05965 152.5C8.93388 152.725 8.87491 152.982 8.88965 153.24C8.86724 153.552 8.96772 153.861 9.16965 154.1C9.33826 154.282 9.57189 154.39 9.81965 154.4C10.0826 154.401 10.3389 154.317 10.5496 154.16C10.6502 154.094 10.7335 154.006 10.7927 153.901C10.8519 153.797 10.8851 153.68 10.8896 153.56ZM16.3096 144.73C16.7458 144.728 17.1707 144.868 17.5196 145.13C17.8769 145.385 18.16 145.73 18.3396 146.13C18.5269 146.545 18.6224 146.995 18.6196 147.45C18.6111 147.831 18.5043 148.203 18.3096 148.53C18.1129 148.865 17.8297 149.142 17.4896 149.33C17.1448 149.533 16.7495 149.633 16.3496 149.62C15.9087 149.611 15.4777 149.487 15.1003 149.258C14.7228 149.03 14.4122 148.706 14.1996 148.32C13.9633 147.874 13.8494 147.374 13.8696 146.87C13.8548 146.569 13.9052 146.268 14.0174 145.989C14.1296 145.709 14.3009 145.457 14.5196 145.25C15.0288 144.855 15.6676 144.666 16.3096 144.72V144.73ZM15.1996 147.05C15.1792 147.345 15.2682 147.637 15.4496 147.87C15.5554 147.979 15.6834 148.064 15.8249 148.119C15.9663 148.174 16.118 148.198 16.2696 148.19C16.5428 148.211 16.8138 148.129 17.0296 147.96C17.1098 147.896 17.1754 147.816 17.2219 147.724C17.2685 147.633 17.295 147.532 17.2996 147.43C17.2996 146.53 16.9196 146.07 16.1096 146.06C15.9898 146.053 15.8699 146.072 15.7579 146.115C15.6458 146.158 15.5442 146.225 15.4596 146.31C15.3687 146.409 15.2987 146.526 15.2541 146.653C15.2094 146.781 15.1909 146.915 15.1996 147.05ZM18.4096 168.47C18.4181 168.57 18.3897 168.67 18.3296 168.75C18.2448 168.894 18.1327 169.019 17.9996 169.12C17.8306 169.229 17.63 169.278 17.4296 169.26C17.2647 169.256 17.1032 169.211 16.9596 169.13C16.8354 169.064 16.7369 168.958 16.6796 168.83C16.5428 168.515 16.4812 168.173 16.4996 167.83C16.5008 167.7 16.53 167.572 16.5853 167.455C16.6405 167.338 16.7205 167.234 16.8196 167.15C17.03 166.977 17.2973 166.887 17.5696 166.9C17.9948 166.924 18.4103 167.037 18.7896 167.23C19.1684 167.396 19.5273 167.604 19.8596 167.85C20.0303 168.005 20.1783 168.184 20.2996 168.38C20.4111 168.524 20.4772 168.698 20.4896 168.88C20.4896 169.16 20.4896 169.34 20.3496 169.41C20.2103 169.5 20.0443 169.538 19.8796 169.52C19.7896 169.52 19.6396 169.39 19.4496 169.14C19.3426 169.005 19.222 168.881 19.0896 168.77C18.8825 168.606 18.6536 168.471 18.4096 168.37V168.47Z" fill="#231F20"/>
<path d="M97.7102 179.06C97.8404 179.424 98.0333 179.762 98.2802 180.06C98.5272 180.354 98.8132 180.613 99.1302 180.83L99.5702 181.12C99.8141 181.295 100.068 181.455 100.33 181.6C100.526 181.71 100.739 181.788 100.96 181.83C100.497 181.298 100.208 180.637 100.133 179.936C100.058 179.235 100.2 178.528 100.54 177.91C100.77 177.453 101.078 177.04 101.45 176.69C101.744 176.458 102.086 176.294 102.45 176.21C102.925 176.078 103.417 176.018 103.91 176.03C104.354 176.049 104.784 176.184 105.16 176.42C105.574 176.665 105.946 176.976 106.26 177.34C106.524 177.627 106.722 177.968 106.84 178.34C106.942 178.735 106.992 179.142 106.99 179.55C106.98 180.31 106.747 181.051 106.32 181.68C105.888 182.332 105.296 182.862 104.6 183.22C103.885 183.592 103.086 183.775 102.28 183.75C101.13 183.731 100.002 183.425 99.0002 182.86C98.0014 182.318 97.1422 181.551 96.4902 180.62C96.3469 180.358 96.236 180.079 96.1602 179.79C96.0515 179.45 95.9941 179.097 95.9902 178.74C95.9902 178.17 96.2402 177.89 96.6902 177.9C96.8118 177.894 96.9329 177.919 97.0428 177.971C97.1527 178.023 97.248 178.102 97.3202 178.2C97.4942 178.446 97.6166 178.725 97.6802 179.02L97.7102 179.06ZM97.8702 169.77C97.9982 170.135 98.1914 170.474 98.4402 170.77C98.6851 171.066 98.9714 171.325 99.2902 171.54L99.7302 171.83C100.04 172.05 100.3 172.21 100.49 172.32C100.687 172.427 100.9 172.501 101.12 172.54C100.821 172.206 100.593 171.815 100.45 171.391C100.308 170.966 100.253 170.517 100.29 170.07C100.306 169.56 100.447 169.062 100.7 168.62C100.93 168.163 101.238 167.75 101.61 167.4C101.909 167.176 102.248 167.012 102.61 166.92C103.085 166.788 103.577 166.728 104.07 166.74C104.514 166.759 104.944 166.894 105.32 167.13C105.732 167.382 106.103 167.696 106.42 168.06C106.687 168.345 106.885 168.687 107 169.06C107.102 169.455 107.152 169.862 107.15 170.27C107.148 171.031 106.914 171.774 106.48 172.4C106.078 173.064 105.514 173.614 104.84 174C104.124 174.372 103.327 174.557 102.52 174.54C101.374 174.516 100.251 174.21 99.2502 173.65C98.2482 173.104 97.3858 172.334 96.7302 171.4C96.5883 171.141 96.4775 170.865 96.4002 170.58C96.2957 170.24 96.2418 169.886 96.2402 169.53C96.2402 168.95 96.4802 168.67 96.9402 168.68C97.0604 168.674 97.1801 168.699 97.2884 168.751C97.3967 168.803 97.4902 168.882 97.5602 168.98C97.7324 169.227 97.8546 169.506 97.9202 169.8L97.8702 169.77ZM96.3802 142.39C96.3759 142.316 96.3923 142.242 96.4277 142.177C96.463 142.111 96.5158 142.057 96.5802 142.02C96.7118 141.938 96.8657 141.9 97.0202 141.91C97.2686 141.921 97.5039 142.025 97.6802 142.2L98.5502 142.9C100.27 144.233 101.697 145.33 102.83 146.19C104.031 147.054 105.276 147.855 106.56 148.59C107.26 148.96 107.56 149.38 107.56 149.85C107.561 150.049 107.501 150.244 107.39 150.41C107.321 150.494 107.231 150.56 107.13 150.602C107.029 150.644 106.919 150.66 106.81 150.65C106.651 150.649 106.497 150.588 106.38 150.48C105.83 150.09 104.82 149.38 103.38 148.36C101.94 147.34 100.88 146.6 100.01 145.97C99.1402 145.34 98.3402 144.73 97.6202 144.13L97.1902 143.78C96.9689 143.598 96.7737 143.386 96.6102 143.15C96.4609 142.925 96.3841 142.66 96.3902 142.39H96.3802ZM105.54 158.61C105.54 158.22 105.54 157.95 105.54 157.83C105.54 157.43 105.54 157.07 105.54 156.76C105.54 156.45 105.54 156.19 105.54 155.96C105.54 155.39 105.54 154.87 105.54 154.42C105.524 154.237 105.547 154.053 105.61 153.88C105.672 153.707 105.771 153.55 105.9 153.42C106.163 153.202 106.5 153.095 106.84 153.12C107.03 153.12 107.18 153.25 107.28 153.5C107.388 153.739 107.442 153.998 107.44 154.26C107.44 154.48 107.44 154.94 107.34 155.64C107.24 156.34 107.21 157.14 107.2 157.64C107.2 157.9 107.2 158.2 107.2 158.56C107.2 158.7 107.2 158.87 107.2 159.07C107.2 159.27 107.2 159.49 107.2 159.73C107.212 160.098 107.14 160.464 106.99 160.8C106.918 160.921 106.814 161.02 106.688 161.084C106.562 161.147 106.421 161.174 106.28 161.16C105.951 161.136 105.639 161.007 105.39 160.79C105.012 160.481 104.655 160.146 104.32 159.79L103.91 159.36C103.71 159.17 103.38 158.82 102.91 158.31C102.296 157.593 101.627 156.924 100.91 156.31C100.443 155.881 99.8429 155.627 99.2102 155.59C99.0307 155.586 98.8532 155.63 98.6966 155.718C98.54 155.806 98.41 155.934 98.3202 156.09C98.0789 156.436 97.9529 156.849 97.9602 157.27C97.927 157.531 97.9471 157.795 98.0193 158.048C98.0915 158.301 98.2143 158.536 98.3802 158.74C98.5499 158.902 98.7512 159.027 98.9714 159.108C99.1916 159.189 99.426 159.224 99.6602 159.21C99.7375 159.219 99.8116 159.246 99.8761 159.289C99.9405 159.333 99.9934 159.391 100.03 159.46C100.144 159.635 100.2 159.841 100.19 160.05C100.198 160.185 100.169 160.321 100.106 160.44C100.042 160.56 99.9468 160.661 99.8302 160.73C99.5582 160.857 99.2603 160.918 98.9602 160.91C98.4417 160.902 97.941 160.719 97.5402 160.39C97.0926 160.033 96.7475 159.564 96.5402 159.03C96.3127 158.427 96.204 157.785 96.2202 157.14C96.2383 156.608 96.3714 156.086 96.6102 155.61C96.845 155.103 97.186 154.653 97.6102 154.29C97.9729 153.957 98.4483 153.775 98.9402 153.78C99.6663 153.787 100.377 153.987 101 154.36C101.63 154.717 102.212 155.154 102.73 155.66C103.23 156.147 103.82 156.787 104.5 157.58C104.81 157.96 105.1 158.3 105.37 158.58L105.54 158.61ZM96.4502 149.34C96.465 148.968 96.557 148.604 96.7202 148.27C96.8779 147.915 97.1178 147.603 97.4202 147.36C97.7012 147.128 98.0559 147.004 98.4202 147.01C98.9092 147.005 99.3913 147.125 99.8202 147.36C100.231 147.575 100.576 147.896 100.82 148.29C101.049 148.681 101.166 149.127 101.16 149.58C101.168 149.904 101.11 150.227 100.992 150.529C100.873 150.831 100.696 151.107 100.47 151.34C100.239 151.56 99.9659 151.73 99.6666 151.84C99.3673 151.951 99.0486 151.998 98.7302 151.98C98.4107 151.997 98.0915 151.942 97.7969 151.817C97.5022 151.692 97.24 151.502 97.0302 151.26C96.6186 150.708 96.4197 150.027 96.4702 149.34H96.4502ZM99.8002 149.79C99.8002 148.94 99.3702 148.51 98.4702 148.5C98.3739 148.49 98.2767 148.506 98.1887 148.547C98.1008 148.587 98.0253 148.65 97.9702 148.73C97.8445 148.956 97.7855 149.212 97.8002 149.47C97.7864 149.625 97.804 149.781 97.8521 149.929C97.9003 150.076 97.9779 150.213 98.0802 150.33C98.2488 150.512 98.4825 150.62 98.7302 150.63C98.9921 150.635 99.2485 150.554 99.4602 150.4C99.561 150.332 99.6443 150.242 99.7034 150.136C99.7624 150.03 99.7956 149.911 99.8002 149.79ZM105.4 179.9C105.417 179.67 105.417 179.44 105.4 179.21C105.374 179.03 105.313 178.857 105.22 178.7C105.063 178.463 104.871 178.25 104.65 178.07C104.468 177.904 104.236 177.802 103.99 177.78C103.682 177.741 103.368 177.771 103.072 177.868C102.776 177.964 102.506 178.126 102.28 178.34C101.947 178.719 101.759 179.205 101.75 179.71C101.752 180.03 101.82 180.347 101.95 180.64C102.077 180.965 102.264 181.263 102.5 181.52C102.583 181.624 102.686 181.71 102.803 181.773C102.92 181.837 103.048 181.877 103.18 181.89C103.621 181.917 104.059 181.813 104.44 181.59C104.757 181.404 105.017 181.134 105.19 180.81C105.336 180.528 105.418 180.217 105.43 179.9H105.4ZM105.56 170.61C105.582 170.381 105.582 170.149 105.56 169.92C105.534 169.741 105.476 169.569 105.39 169.41C105.229 169.172 105.034 168.96 104.81 168.78C104.629 168.612 104.397 168.51 104.15 168.49C103.842 168.455 103.529 168.487 103.234 168.583C102.939 168.68 102.668 168.839 102.44 169.05C102.112 169.432 101.925 169.916 101.91 170.42C101.912 170.74 101.98 171.057 102.11 171.35C102.24 171.679 102.43 171.98 102.67 172.24C102.753 172.344 102.856 172.43 102.973 172.493C103.09 172.557 103.218 172.597 103.35 172.61C103.792 172.636 104.231 172.528 104.61 172.3C104.923 172.112 105.179 171.843 105.35 171.52C105.501 171.24 105.584 170.928 105.59 170.61H105.56ZM105.22 141C105.656 140.998 106.081 141.138 106.43 141.4C106.788 141.655 107.071 142 107.25 142.4C107.438 142.815 107.533 143.265 107.53 143.72C107.522 144.101 107.415 144.473 107.22 144.8C107.024 145.135 106.74 145.412 106.4 145.6C106.055 145.803 105.66 145.903 105.26 145.89C104.819 145.881 104.388 145.757 104.011 145.528C103.633 145.3 103.323 144.976 103.11 144.59C102.874 144.144 102.76 143.644 102.78 143.14C102.765 142.839 102.816 142.538 102.928 142.259C103.04 141.979 103.212 141.727 103.43 141.52C103.939 141.125 104.578 140.936 105.22 140.99V141ZM104.11 143.32C104.09 143.615 104.179 143.907 104.36 144.14C104.466 144.249 104.594 144.334 104.735 144.389C104.877 144.444 105.029 144.469 105.18 144.46C105.453 144.48 105.724 144.398 105.94 144.23C106.019 144.165 106.084 144.085 106.131 143.993C106.177 143.902 106.204 143.802 106.21 143.7C106.21 142.8 105.83 142.35 105.02 142.33C104.9 142.323 104.78 142.342 104.668 142.385C104.556 142.428 104.455 142.495 104.37 142.58C104.279 142.679 104.209 142.796 104.165 142.923C104.12 143.051 104.101 143.185 104.11 143.32ZM107.32 164.74C107.324 164.839 107.296 164.937 107.24 165.02C107.155 165.164 107.043 165.289 106.91 165.39C106.74 165.496 106.541 165.548 106.34 165.54C106.175 165.527 106.015 165.479 105.87 165.4C105.746 165.334 105.647 165.228 105.59 165.1C105.453 164.803 105.392 164.477 105.41 164.15C105.409 164.02 105.438 163.891 105.493 163.774C105.548 163.656 105.629 163.552 105.73 163.47C105.941 163.297 106.208 163.207 106.48 163.22C106.905 163.249 107.319 163.361 107.7 163.55C108.079 163.716 108.438 163.924 108.77 164.17C108.941 164.325 109.089 164.504 109.21 164.7C109.322 164.844 109.388 165.018 109.4 165.2C109.42 165.391 109.37 165.583 109.26 165.74C109.119 165.825 108.954 165.861 108.79 165.84C108.7 165.84 108.55 165.71 108.36 165.46C108.25 165.327 108.13 165.203 108 165.09C107.792 164.928 107.563 164.794 107.32 164.69V164.74Z" fill="#231F20"/>
<path d="M132.591 143C132.588 142.928 132.606 142.856 132.641 142.792C132.676 142.729 132.728 142.676 132.791 142.64C132.916 142.551 133.067 142.506 133.221 142.51C133.47 142.522 133.707 142.621 133.891 142.79L134.771 143.48C136.511 144.813 137.957 145.883 139.111 146.69C140.309 147.531 141.554 148.302 142.841 149C143.541 149.36 143.901 149.78 143.901 150.24C143.903 150.443 143.844 150.642 143.731 150.81C143.664 150.895 143.576 150.961 143.477 151.003C143.377 151.045 143.268 151.061 143.161 151.05C143.081 151.054 143 151.041 142.925 151.014C142.849 150.986 142.78 150.944 142.721 150.89L139.651 148.82C138.251 147.88 137.111 147.11 136.231 146.49C135.351 145.87 134.541 145.28 133.821 144.7L133.381 144.35C133.152 144.177 132.953 143.967 132.791 143.73C132.634 143.507 132.551 143.242 132.551 142.97L132.591 143ZM132.791 150C132.796 149.627 132.877 149.26 133.031 148.92C133.188 148.565 133.424 148.251 133.721 148C133.998 147.759 134.354 147.628 134.721 147.63C135.207 147.625 135.688 147.738 136.121 147.96C136.53 148.168 136.875 148.483 137.121 148.87C137.36 149.257 137.485 149.705 137.481 150.16C137.494 150.483 137.444 150.806 137.332 151.11C137.221 151.414 137.05 151.692 136.831 151.93C136.603 152.153 136.332 152.328 136.035 152.443C135.737 152.558 135.42 152.612 135.101 152.6C134.78 152.621 134.458 152.569 134.16 152.447C133.863 152.326 133.596 152.139 133.381 151.9C132.965 151.357 132.759 150.683 132.801 150H132.791ZM133.331 159.64C134.008 159.654 134.68 159.755 135.331 159.94C136.091 160.15 137.021 160.44 138.121 160.83L139.331 161.24C139.363 161.035 139.379 160.828 139.381 160.62C139.381 160.26 139.381 159.71 139.271 158.99C139.161 158.27 139.171 157.74 139.171 157.42H137.241C135.901 157.42 134.921 157.42 134.291 157.42C133.461 157.42 133.041 157.14 133.041 156.59C133.041 156.04 133.151 155.88 133.371 155.76C133.685 155.62 134.027 155.555 134.371 155.57C134.821 155.57 135.531 155.57 136.491 155.68L137.421 155.73C137.851 155.73 138.231 155.73 138.541 155.73H139.111V155.38C139.111 155.1 139.111 154.88 139.111 154.73C139.114 154.437 139.212 154.152 139.391 153.92C139.455 153.806 139.548 153.71 139.66 153.642C139.772 153.574 139.9 153.535 140.031 153.53C140.266 153.519 140.499 153.567 140.711 153.67C140.881 153.75 140.961 153.86 140.961 153.97C140.952 154.225 140.929 154.478 140.891 154.73C140.897 154.833 140.897 154.937 140.891 155.04C140.881 155.177 140.881 155.314 140.891 155.45V155.75H143.261C143.368 155.741 143.475 155.76 143.573 155.804C143.671 155.847 143.756 155.915 143.821 156C143.951 156.157 144.022 156.356 144.021 156.56C144.025 156.81 143.936 157.053 143.771 157.24C143.699 157.334 143.607 157.41 143.501 157.462C143.395 157.514 143.279 157.541 143.161 157.54C142.371 157.54 141.761 157.54 141.311 157.54C141.184 157.529 141.057 157.529 140.931 157.54C140.936 158.148 140.976 158.756 141.051 159.36C141.141 160.18 141.191 160.8 141.191 161.23C141.201 161.694 141.123 162.155 140.961 162.59C140.916 162.747 140.821 162.885 140.692 162.984C140.562 163.083 140.404 163.138 140.241 163.14C139.848 163.124 139.458 163.06 139.081 162.95C138.631 162.82 138.011 162.62 137.241 162.37C136.941 162.25 136.681 162.16 136.481 162.1C135.891 161.89 135.381 161.73 134.971 161.63C134.561 161.53 134.041 161.41 133.451 161.28C133.364 161.261 133.282 161.224 133.21 161.173C133.138 161.121 133.077 161.056 133.031 160.98C132.932 160.821 132.883 160.637 132.891 160.45C132.89 160.251 132.938 160.056 133.031 159.88C133.068 159.805 133.125 159.743 133.195 159.698C133.266 159.654 133.347 159.631 133.431 159.63L133.331 159.64ZM134.631 170.59C136.921 170.71 138.751 170.77 140.111 170.77C140.811 170.77 141.481 170.77 142.111 170.72C142.196 170.55 142.23 170.359 142.211 170.17V169.77C142.197 169.617 142.197 169.463 142.211 169.31C142.196 169.063 142.251 168.817 142.371 168.6C142.442 168.509 142.536 168.439 142.643 168.395C142.75 168.351 142.866 168.336 142.981 168.35C143.107 168.341 143.234 168.358 143.352 168.402C143.471 168.445 143.58 168.512 143.671 168.6C143.858 168.898 143.942 169.249 143.911 169.6C143.907 170.138 143.873 170.676 143.811 171.21C143.811 171.36 143.811 171.51 143.811 171.65C143.811 171.79 143.811 171.92 143.811 172.04C143.811 172.68 143.811 173.16 143.881 173.48C143.951 173.8 143.931 174.15 143.931 174.55C143.931 174.95 143.651 175.09 143.101 175.09C142.551 175.09 142.311 174.75 142.311 174.09C142.311 173.99 142.311 173.82 142.311 173.58C142.344 173.372 142.36 173.161 142.361 172.95C142.373 172.847 142.373 172.743 142.361 172.64C141.581 172.64 140.441 172.58 138.941 172.51C137.181 172.44 135.891 172.41 135.041 172.41C135.114 172.618 135.197 172.821 135.291 173.02C135.506 173.388 135.642 173.797 135.691 174.22C135.688 174.297 135.666 174.371 135.628 174.437C135.59 174.504 135.536 174.559 135.471 174.6C135.325 174.721 135.14 174.785 134.951 174.78C134.833 174.768 134.72 174.729 134.621 174.664C134.522 174.6 134.439 174.513 134.381 174.41C134.106 174.032 133.859 173.634 133.641 173.22C133.492 172.915 133.322 172.621 133.131 172.34C133.073 172.242 133.026 172.138 132.991 172.03C132.95 171.931 132.926 171.827 132.921 171.72C132.917 171.433 132.979 171.15 133.101 170.89C133.231 170.64 133.391 170.51 133.591 170.51L134.631 170.59ZM133.631 176.49C134.337 176.65 135.047 176.84 135.761 177.06C136.461 177.29 137.271 177.58 138.181 177.93C139.451 178.421 140.746 178.845 142.061 179.2C142.561 179.329 143.045 179.517 143.501 179.76C143.621 179.814 143.726 179.899 143.803 180.006C143.88 180.113 143.928 180.239 143.941 180.37C143.904 180.651 143.786 180.915 143.601 181.13C143.475 181.217 143.323 181.259 143.171 181.25C142.94 181.238 142.712 181.197 142.491 181.13C142.191 181.05 141.857 180.95 141.491 180.83L140.851 180.62C140.172 180.397 139.504 180.14 138.851 179.85C138.191 179.58 137.561 179.34 136.951 179.12C136.236 178.87 135.508 178.656 134.771 178.48C134.959 179.065 135.057 179.675 135.061 180.29C135.043 180.735 134.999 181.18 134.931 181.62C134.875 181.968 134.842 182.318 134.831 182.67C135.173 182.622 135.509 182.535 135.831 182.41C136.19 182.245 136.576 182.143 136.971 182.11C137.116 182.112 137.256 182.169 137.361 182.27C137.472 182.416 137.526 182.597 137.511 182.78C137.521 182.91 137.501 183.04 137.45 183.161C137.4 183.281 137.321 183.387 137.221 183.47C137.023 183.635 136.8 183.766 136.561 183.86C136.311 183.96 136.131 184.03 136.041 184.08C135.661 184.24 135.27 184.37 134.871 184.47C134.517 184.556 134.155 184.603 133.791 184.61C133.616 184.614 133.444 184.562 133.301 184.46C133.24 184.424 133.188 184.373 133.152 184.312C133.115 184.25 133.094 184.181 133.091 184.11C133.091 183.94 133.161 183.68 133.231 183.32C133.321 182.76 133.401 182.32 133.451 181.91C133.504 181.506 133.531 181.098 133.531 180.69C133.579 179.834 133.385 178.981 132.971 178.23C132.915 178.115 132.89 177.987 132.901 177.86C132.901 177.544 132.976 177.232 133.121 176.95C133.261 176.65 133.441 176.49 133.651 176.49H133.631ZM136.161 150.38C136.161 149.54 135.711 149.12 134.811 149.12C134.715 149.112 134.619 149.13 134.533 149.172C134.446 149.214 134.373 149.279 134.321 149.36C134.195 149.585 134.139 149.843 134.161 150.1C134.147 150.254 134.166 150.409 134.216 150.556C134.266 150.702 134.346 150.836 134.451 150.95C134.534 151.043 134.635 151.117 134.749 151.167C134.863 151.217 134.986 151.242 135.111 151.24C135.371 151.243 135.624 151.159 135.831 151C135.932 150.931 136.015 150.839 136.073 150.731C136.13 150.623 136.161 150.502 136.161 150.38ZM141.431 141.46C141.867 141.457 142.293 141.59 142.651 141.84C143.007 142.099 143.292 142.443 143.481 142.84C143.679 143.248 143.781 143.696 143.781 144.15C143.78 144.532 143.681 144.908 143.491 145.24C143.3 145.578 143.024 145.861 142.691 146.06C142.345 146.261 141.951 146.365 141.551 146.36C141.12 146.358 140.697 146.248 140.321 146.04C139.928 145.818 139.603 145.493 139.381 145.1C139.133 144.661 139.009 144.164 139.021 143.66C139 143.36 139.045 143.058 139.152 142.777C139.259 142.495 139.426 142.241 139.641 142.03C140.144 141.621 140.784 141.417 141.431 141.46ZM140.361 143.8C140.344 144.096 140.437 144.388 140.621 144.62C140.726 144.729 140.854 144.812 140.996 144.864C141.138 144.916 141.29 144.935 141.441 144.92C141.715 144.938 141.986 144.852 142.201 144.68C142.278 144.614 142.34 144.533 142.385 144.442C142.43 144.351 142.456 144.251 142.461 144.15C142.461 143.25 142.061 142.8 141.251 142.8C141.13 142.796 141.01 142.817 140.898 142.862C140.787 142.907 140.685 142.974 140.601 143.06C140.43 143.267 140.344 143.532 140.361 143.8ZM143.941 166.49C143.944 166.588 143.92 166.685 143.871 166.77C143.788 166.913 143.676 167.036 143.541 167.13C143.376 167.249 143.174 167.306 142.971 167.29C142.811 167.283 142.654 167.242 142.511 167.17C142.381 167.108 142.278 167.002 142.221 166.87C142.077 166.575 142.008 166.248 142.021 165.92C142.018 165.791 142.044 165.662 142.098 165.545C142.152 165.427 142.231 165.323 142.331 165.24C142.539 165.062 142.807 164.969 143.081 164.98C143.504 164.997 143.918 165.099 144.301 165.28C144.682 165.443 145.044 165.648 145.381 165.89C145.557 166.039 145.708 166.215 145.831 166.41C145.942 166.555 146.011 166.728 146.031 166.91C146.056 167.097 146.009 167.286 145.901 167.44C145.763 167.533 145.597 167.576 145.431 167.56C145.341 167.56 145.191 167.43 144.991 167.19C144.881 167.054 144.757 166.93 144.621 166.82C144.416 166.655 144.186 166.524 143.941 166.43V166.49Z" fill="#231F20"/>
<path d="M41.5996 144.33C41.6063 144.259 41.6321 144.19 41.6744 144.132C41.7166 144.074 41.7737 144.028 41.8396 144C41.9688 143.911 42.1229 143.866 42.2796 143.87C42.5255 143.884 42.7588 143.983 42.9396 144.15L43.8196 144.84C45.5596 146.173 47.0063 147.243 48.1596 148.05C49.3698 148.903 50.6285 149.684 51.9296 150.39C52.6296 150.75 52.9896 151.17 52.9896 151.63C52.9921 151.833 52.9328 152.032 52.8196 152.2C52.7526 152.285 52.6652 152.351 52.5655 152.393C52.4658 152.435 52.3572 152.451 52.2496 152.44C52.1694 152.444 52.0892 152.431 52.0137 152.404C51.9381 152.376 51.8688 152.334 51.8096 152.28C51.2596 151.9 50.2396 151.21 48.7396 150.21C47.2396 149.21 46.2096 148.5 45.3196 147.88C44.4296 147.26 43.6296 146.67 42.9096 146.08L42.4696 145.74C42.2408 145.567 42.0415 145.357 41.8796 145.12C41.7244 144.897 41.6407 144.632 41.6396 144.36L41.5996 144.33ZM41.7996 151.33C41.8045 150.957 41.8862 150.59 42.0396 150.25C42.1972 149.892 42.4371 149.577 42.7396 149.33C43.0149 149.086 43.3717 148.954 43.7396 148.96C44.2261 148.955 44.7066 149.068 45.1396 149.29C45.5485 149.498 45.8939 149.813 46.1396 150.2C46.3791 150.587 46.5039 151.035 46.4996 151.49C46.513 151.813 46.4625 152.136 46.3509 152.44C46.2394 152.743 46.069 153.022 45.8496 153.26C45.6218 153.483 45.3509 153.658 45.0535 153.773C44.7561 153.888 44.4383 153.942 44.1196 153.93C43.7989 153.949 43.4781 153.895 43.1805 153.774C42.883 153.653 42.6162 153.467 42.3996 153.23C41.9855 152.686 41.7797 152.012 41.8196 151.33H41.7996ZM42.3396 160.97C43.0164 160.984 43.6886 161.084 44.3396 161.27C45.0996 161.48 46.0296 161.77 47.1296 162.16L48.3396 162.56C48.3718 162.358 48.3886 162.154 48.3896 161.95C48.3896 161.59 48.3896 161.04 48.2896 160.32C48.1896 159.6 48.1796 159.07 48.1796 158.75H46.2496C44.9096 158.75 43.9296 158.75 43.2496 158.75C42.4196 158.75 41.9996 158.47 41.9996 157.92C41.9996 157.37 42.1096 157.21 42.3396 157.09C42.651 156.941 42.9955 156.876 43.3396 156.9C43.7896 156.9 44.4996 156.9 45.4596 157.01L46.3896 157.06C46.8196 157.06 47.1996 157.06 47.5196 157.06H48.0796V156.71C48.0796 156.43 48.0796 156.21 48.0796 156.06C48.0873 155.768 48.1851 155.485 48.3596 155.25C48.4242 155.136 48.517 155.04 48.629 154.972C48.741 154.904 48.8686 154.865 48.9996 154.86C49.2344 154.849 49.4682 154.897 49.6796 155C49.8496 155.08 49.9296 155.19 49.9296 155.3C49.9213 155.554 49.8979 155.808 49.8596 156.06C49.8663 156.163 49.8663 156.267 49.8596 156.37C49.8499 156.506 49.8499 156.643 49.8596 156.78V157.08H52.2296C52.3367 157.073 52.444 157.091 52.543 157.133C52.642 157.174 52.7298 157.238 52.7996 157.32C52.9199 157.486 52.9862 157.685 52.9896 157.89C52.9942 158.14 52.905 158.383 52.7396 158.57C52.6682 158.664 52.5759 158.74 52.47 158.792C52.3641 158.844 52.2476 158.871 52.1296 158.87C51.3396 158.87 50.7296 158.87 50.2796 158.87H49.8396C49.845 159.478 49.885 160.086 49.9596 160.69C50.0496 161.51 50.0996 162.13 50.0996 162.55C50.1161 163.017 50.0378 163.483 49.8696 163.92C49.8245 164.077 49.7302 164.215 49.6005 164.314C49.4709 164.413 49.3128 164.468 49.1496 164.47C48.7567 164.454 48.3671 164.39 47.9896 164.28C47.5396 164.15 46.9196 163.95 46.1496 163.7C45.8496 163.58 45.5896 163.49 45.3996 163.43C44.7996 163.22 44.2896 163.06 43.8796 162.96C43.4696 162.86 42.9596 162.74 42.3596 162.61C42.273 162.591 42.1912 162.554 42.1191 162.503C42.0469 162.451 41.9859 162.386 41.9396 162.31C41.8408 162.151 41.792 161.967 41.7996 161.78C41.7968 161.58 41.8487 161.383 41.9496 161.21C41.984 161.135 42.039 161.072 42.1081 161.028C42.1772 160.984 42.2575 160.96 42.3396 160.96V160.97ZM47.0596 172.19C47.298 171.537 47.6849 170.948 48.1896 170.47C48.4818 170.18 48.8483 169.976 49.2487 169.881C49.6492 169.786 50.0682 169.803 50.4596 169.93C50.7005 169.999 50.9297 170.103 51.1396 170.24C52.3296 171.01 52.9296 172.37 52.9296 174.33C52.9512 175.252 52.7379 176.164 52.3096 176.98C52.1389 177.329 51.8703 177.621 51.5364 177.82C51.2025 178.019 50.8179 178.116 50.4296 178.1C49.2496 178.1 48.2396 177.29 47.4296 175.66C46.8696 177.19 46.0296 177.95 44.9296 177.95C44.3192 177.969 43.7225 177.767 43.2496 177.38C42.7838 176.99 42.4372 176.477 42.2496 175.9C42.0249 175.257 41.9132 174.581 41.9196 173.9C41.924 173.33 42.0501 172.767 42.2896 172.25C42.4847 171.763 42.8366 171.355 43.2896 171.09C43.6773 170.892 44.1043 170.782 44.5396 170.77C44.9843 170.755 45.4272 170.833 45.8396 171C46.329 171.268 46.7446 171.653 47.0496 172.12L47.0596 172.19ZM51.0596 184.78C51.0596 184.38 51.0596 184.12 51.0596 183.99C51.0596 183.59 51.0596 183.23 51.0596 182.92C51.0596 182.61 51.0596 182.35 51.0596 182.13C51.0596 181.55 51.0596 181.04 51.0596 180.58C51.0425 180.398 51.0649 180.214 51.1254 180.042C51.1858 179.869 51.2827 179.712 51.4096 179.58C51.6673 179.358 52.0001 179.244 52.3396 179.26C52.5296 179.26 52.6796 179.38 52.7896 179.63C52.8979 179.865 52.9558 180.121 52.9596 180.38C52.9596 180.61 52.9596 181.07 52.8896 181.77C52.8196 182.47 52.7796 183.28 52.7796 183.77C52.7796 184.02 52.7796 184.33 52.7796 184.68C52.7796 184.82 52.7796 184.99 52.7796 185.19C52.7796 185.39 52.7796 185.61 52.7796 185.86C52.7969 186.227 52.7284 186.594 52.5796 186.93C52.5105 187.051 52.4075 187.15 52.2832 187.214C52.1589 187.278 52.0186 187.304 51.8796 187.29C51.5488 187.278 51.2316 187.155 50.9796 186.94C50.5989 186.63 50.2382 186.296 49.8996 185.94L49.4696 185.52C49.2796 185.33 48.9396 184.99 48.4696 184.52C47.8531 183.824 47.1845 183.175 46.4696 182.58C46 182.16 45.3991 181.916 44.7696 181.89C44.588 181.888 44.4092 181.935 44.2525 182.026C44.0957 182.118 43.9668 182.251 43.8796 182.41C43.6495 182.76 43.531 183.171 43.5396 183.59C43.5139 183.853 43.5405 184.118 43.6177 184.37C43.695 184.622 43.8213 184.857 43.9896 185.06C44.1635 185.218 44.3673 185.339 44.5889 185.416C44.8105 185.493 45.0454 185.525 45.2796 185.51C45.3564 185.516 45.4306 185.541 45.4966 185.58C45.5625 185.62 45.6183 185.675 45.6596 185.74C45.7732 185.915 45.8292 186.121 45.8196 186.33C45.8343 186.467 45.809 186.604 45.7469 186.727C45.6847 186.849 45.5884 186.951 45.4696 187.02C45.204 187.156 44.9078 187.221 44.6096 187.21C44.0906 187.217 43.5851 187.044 43.1796 186.72C42.7313 186.368 42.3859 185.901 42.1796 185.37C41.933 184.774 41.8105 184.135 41.8196 183.49C41.8288 182.957 41.9515 182.432 42.1796 181.95C42.4128 181.44 42.754 180.986 43.1796 180.62C43.5358 180.245 44.0232 180.023 44.5396 180C45.2657 180 45.9793 180.19 46.6096 180.55C47.2442 180.893 47.8295 181.32 48.3496 181.82C48.8563 182.3 49.4563 182.93 50.1496 183.71C50.4696 184.08 50.7696 184.41 51.0496 184.71L51.0596 184.78ZM45.1596 151.71C45.1596 150.87 44.7096 150.45 43.8096 150.45C43.714 150.443 43.6182 150.461 43.5321 150.504C43.446 150.546 43.3726 150.61 43.3196 150.69C43.1935 150.915 43.1377 151.173 43.1596 151.43C43.1461 151.584 43.1649 151.739 43.2148 151.886C43.2647 152.032 43.3447 152.166 43.4496 152.28C43.5325 152.373 43.6343 152.447 43.7482 152.497C43.862 152.547 43.9853 152.572 44.1096 152.57C44.3726 152.571 44.6288 152.487 44.8396 152.33C44.938 152.259 45.0183 152.166 45.0739 152.058C45.1295 151.951 45.1589 151.831 45.1596 151.71ZM46.5396 174C46.2896 173.63 46.0896 173.34 45.9296 173.13C45.7683 172.924 45.572 172.748 45.3496 172.61C45.111 172.458 44.8323 172.381 44.5496 172.39C44.3806 172.388 44.2135 172.425 44.061 172.498C43.9085 172.571 43.7746 172.678 43.6696 172.81C43.4399 173.092 43.3161 173.446 43.3196 173.81C43.2583 174.436 43.4136 175.064 43.7596 175.59C43.8818 175.739 44.034 175.86 44.2063 175.947C44.3786 176.033 44.5671 176.082 44.7596 176.09C45.0581 176.093 45.3457 175.978 45.5596 175.77C45.7689 175.564 45.9414 175.324 46.0696 175.06C46.1896 174.8 46.3296 174.44 46.4996 173.98L46.5396 174ZM50.4196 142.78C50.8559 142.777 51.2823 142.91 51.6396 143.16C51.9983 143.416 52.2843 143.76 52.4696 144.16C52.6674 144.568 52.77 145.016 52.7696 145.47C52.7693 145.852 52.6694 146.228 52.4796 146.56C52.2885 146.898 52.0128 147.181 51.6796 147.38C51.3338 147.581 50.9398 147.685 50.5396 147.68C50.1092 147.678 49.6862 147.568 49.3096 147.36C48.9169 147.138 48.592 146.813 48.3696 146.42C48.1223 145.981 47.9979 145.484 48.0096 144.98C47.988 144.679 48.0333 144.376 48.1422 144.094C48.2511 143.813 48.421 143.558 48.6396 143.35C49.1379 142.939 49.7752 142.735 50.4196 142.78ZM49.6796 171.67C49.5532 171.683 49.4313 171.724 49.3225 171.79C49.2136 171.856 49.1205 171.944 49.0496 172.05C48.8157 172.317 48.6174 172.612 48.4596 172.93C48.3174 173.204 48.2035 173.493 48.1196 173.79C48.3215 174.262 48.5837 174.706 48.8996 175.11C49.1201 175.436 49.3823 175.732 49.6796 175.99C49.8068 176.083 49.9444 176.16 50.0896 176.22C50.2168 176.27 50.3529 176.294 50.4896 176.29C50.5919 176.279 50.6903 176.244 50.777 176.188C50.8637 176.133 50.9365 176.058 50.9896 175.97C51.1576 175.739 51.286 175.483 51.3696 175.21C51.4526 174.968 51.4998 174.715 51.5096 174.46C51.5352 173.759 51.3619 173.066 51.0096 172.46C50.8748 172.226 50.6809 172.032 50.4475 171.897C50.2141 171.762 49.9493 171.691 49.6796 171.69V171.67ZM49.3496 145.12C49.3329 145.416 49.4254 145.708 49.6096 145.94C49.7147 146.049 49.8431 146.132 49.9851 146.184C50.1272 146.236 50.2791 146.255 50.4296 146.24C50.704 146.258 50.9752 146.172 51.1896 146C51.2684 145.935 51.3324 145.855 51.3773 145.763C51.4222 145.672 51.4468 145.572 51.4496 145.47C51.4496 144.57 51.0496 144.12 50.2396 144.12C50.1192 144.116 49.9992 144.137 49.8873 144.182C49.7754 144.226 49.674 144.294 49.5896 144.38C49.4187 144.587 49.3329 144.852 49.3496 145.12ZM52.9296 167.8C52.934 167.901 52.9097 168.002 52.8596 168.09C52.7772 168.233 52.6645 168.355 52.5296 168.45C52.3645 168.569 52.1626 168.626 51.9596 168.61C51.7995 168.603 51.6426 168.562 51.4996 168.49C51.3702 168.428 51.2673 168.321 51.2096 168.19C51.0659 167.895 50.9972 167.568 51.0096 167.24C51.0068 167.111 51.0332 166.982 51.0869 166.865C51.1406 166.747 51.2201 166.643 51.3196 166.56C51.5276 166.38 51.7948 166.284 52.0696 166.29C52.4929 166.311 52.9078 166.416 53.2896 166.6C53.6708 166.763 54.033 166.968 54.3696 167.21C54.5454 167.359 54.6971 167.535 54.8196 167.73C54.9307 167.875 54.9999 168.048 55.0196 168.23C55.0444 168.417 54.998 168.606 54.8896 168.76C54.7515 168.853 54.5854 168.896 54.4196 168.88C54.3296 168.88 54.1796 168.75 53.9796 168.51C53.87 168.374 53.746 168.25 53.6096 168.14C53.4048 167.975 53.1753 167.844 52.9296 167.75V167.8Z" fill="#231F20"/>
<path d="M15.7001 106.66C17.1001 109.08 18.2501 110.983 19.1501 112.37C19.6168 113.09 20.0768 113.757 20.5301 114.37C20.7604 114.344 20.9788 114.254 21.1601 114.11L21.5601 113.83C21.6987 113.707 21.8457 113.593 22.0001 113.49C22.2426 113.312 22.53 113.204 22.8301 113.18C23.0801 113.18 23.3001 113.33 23.5001 113.64C23.5907 113.764 23.6543 113.905 23.6871 114.055C23.7198 114.205 23.7208 114.36 23.6901 114.51C23.6301 114.79 23.3301 115.1 22.7901 115.45C22.2385 115.819 21.664 116.153 21.0701 116.45L20.6001 116.71L20.1901 116.95C19.5401 117.39 19.0701 117.73 18.7701 117.95C18.431 118.223 18.0771 118.476 17.7101 118.71C17.3401 118.95 16.9701 118.79 16.6101 118.23C16.2501 117.67 16.4301 117.23 17.1201 116.74C17.2301 116.68 17.4101 116.57 17.6701 116.44C17.9076 116.342 18.1352 116.221 18.3501 116.08C18.4575 116.009 18.561 115.932 18.6601 115.85C18.1501 115.04 17.4301 113.85 16.5101 112.27C15.4168 110.43 14.5901 109.097 14.0301 108.27C14.0301 108.27 13.8301 108.54 13.5701 108.93C13.3383 109.39 13.0151 109.799 12.6201 110.13C12.5366 110.173 12.444 110.195 12.3501 110.195C12.2562 110.195 12.1636 110.173 12.0801 110.13C11.86 110.056 11.6726 109.907 11.5501 109.71C11.4851 109.581 11.4512 109.439 11.4512 109.295C11.4512 109.151 11.4851 109.009 11.5501 108.88C11.7554 108.346 11.9994 107.828 12.2801 107.33C12.4866 106.974 12.6735 106.607 12.8401 106.23C12.8967 106.104 12.9707 105.986 13.0601 105.88C13.129 105.774 13.2172 105.683 13.3201 105.61C13.6179 105.406 13.9614 105.279 14.3201 105.24C14.4474 105.207 14.5817 105.212 14.7062 105.255C14.8307 105.297 14.9399 105.376 15.0201 105.48L15.7001 106.66ZM30.9901 107.48C31.4201 107.24 31.6901 107.08 31.8201 106.99C32.2334 106.73 32.5934 106.49 32.9001 106.27L33.6901 105.7C34.2501 105.29 34.7701 104.93 35.2301 104.63C35.403 104.494 35.6033 104.396 35.8173 104.345C36.0313 104.293 36.254 104.288 36.4701 104.33C36.8645 104.451 37.1996 104.715 37.4101 105.07C37.4716 105.182 37.497 105.311 37.4827 105.438C37.4683 105.565 37.415 105.684 37.3301 105.78C37.1577 106.046 36.9332 106.274 36.6701 106.45C36.4401 106.59 35.9601 106.88 35.2101 107.29C34.3001 107.78 33.6001 108.18 33.1101 108.5C32.8501 108.667 32.5501 108.887 32.2101 109.16L31.7201 109.54L31.0501 110C30.6857 110.264 30.2644 110.439 29.8201 110.51C29.6499 110.519 29.4807 110.48 29.332 110.397C29.1833 110.313 29.0613 110.19 28.9801 110.04C28.7779 109.693 28.697 109.288 28.7501 108.89C28.8031 108.298 28.8966 107.71 29.0301 107.13L29.1801 106.42C29.2401 106.09 29.3701 105.51 29.5601 104.69C29.8682 103.602 30.0922 102.492 30.2301 101.37C30.3468 100.613 30.1984 99.8397 29.8101 99.18C29.6896 98.9953 29.5228 98.8454 29.3262 98.7454C29.1297 98.6453 28.9103 98.5987 28.6901 98.61C28.1771 98.6108 27.6759 98.7639 27.2501 99.05C26.6798 99.353 26.2495 99.8657 26.0501 100.48C26.0045 100.761 26.0165 101.049 26.0852 101.326C26.154 101.603 26.2781 101.863 26.4501 102.09C26.4948 102.175 26.5181 102.269 26.5181 102.365C26.5181 102.461 26.4948 102.555 26.4501 102.64C26.3479 102.872 26.1769 103.068 25.9601 103.2C25.8308 103.304 25.6738 103.368 25.5086 103.384C25.3433 103.4 25.177 103.367 25.0301 103.29C24.7098 103.115 24.4435 102.856 24.2601 102.54C23.9053 102.014 23.746 101.381 23.8101 100.75C23.883 100.07 24.1349 99.4211 24.5401 98.87C24.9912 98.2266 25.5657 97.6794 26.2301 97.26C26.778 96.9122 27.3961 96.6902 28.0401 96.61C28.706 96.4964 29.3888 96.5305 30.0401 96.71C30.627 96.8484 31.1387 97.2062 31.4701 97.71C31.9492 98.4501 32.2314 99.3003 32.2901 100.18C32.3502 101.059 32.3032 101.942 32.1501 102.81C31.9901 103.65 31.7401 104.69 31.4101 105.9C31.2401 106.47 31.1001 107 30.9801 107.48H30.9901ZM26.0501 113.42C25.9546 113.491 25.839 113.529 25.7201 113.53C25.5202 113.539 25.3204 113.512 25.1301 113.45C24.9012 113.355 24.7109 113.186 24.5901 112.97C24.487 112.799 24.4222 112.608 24.4001 112.41C24.3823 112.238 24.4247 112.065 24.5201 111.92C24.7259 111.577 25.0148 111.292 25.3601 111.09C25.4883 110.997 25.6368 110.936 25.7932 110.912C25.9497 110.887 26.1097 110.9 26.2601 110.95C26.5796 111.042 26.8515 111.253 27.0201 111.54C27.2868 111.983 27.4571 112.477 27.5201 112.99C27.6115 113.484 27.6451 113.988 27.6201 114.49C27.5788 114.769 27.5015 115.041 27.3901 115.3C27.3172 115.51 27.1852 115.694 27.0101 115.83C26.7201 116.02 26.5101 116.09 26.3701 116.05C26.1898 115.967 26.0421 115.826 25.9501 115.65C25.8901 115.56 25.9501 115.33 26.0301 114.96C26.0986 114.759 26.1455 114.551 26.1701 114.34C26.1963 114.005 26.1761 113.669 26.1101 113.34L26.0501 113.42Z" fill="#231F20"/>
<path d="M35.5094 96.47C35.7683 96.3092 36.0577 96.2036 36.3594 96.16C36.6706 96.1097 36.9892 96.1337 37.2894 96.23C37.5744 96.3092 37.8201 96.4908 37.9794 96.74C38.1996 97.069 38.3369 97.4464 38.3794 97.84C38.4143 98.2105 38.3487 98.5836 38.1894 98.92C38.0409 99.2561 37.7932 99.5388 37.4794 99.73C37.2642 99.8829 37.0208 99.9916 36.7634 100.05C36.5059 100.108 36.2395 100.115 35.9794 100.07C35.7268 100.014 35.4884 99.9072 35.2786 99.7559C35.0688 99.6046 34.8921 99.412 34.7594 99.19C34.603 98.9829 34.4964 98.7426 34.4478 98.4877C34.3993 98.2328 34.4101 97.9701 34.4794 97.72C34.6515 97.1966 35.0065 96.7528 35.4794 96.47H35.5094ZM36.7294 98.93C36.86 98.8648 36.9737 98.7701 37.0614 98.6534C37.1491 98.5367 37.2084 98.4012 37.2346 98.2575C37.2608 98.1139 37.2531 97.9662 37.2123 97.826C37.1715 97.6858 37.0986 97.5571 36.9994 97.45C36.9614 97.3821 36.9063 97.3252 36.8397 97.2848C36.7731 97.2445 36.6972 97.2222 36.6194 97.22C36.4091 97.2367 36.2079 97.313 36.0394 97.44C35.9296 97.4995 35.8331 97.5807 35.7558 97.6787C35.6784 97.7767 35.6218 97.8894 35.5894 98.01C35.5628 98.1076 35.5571 98.2097 35.5726 98.3096C35.5881 98.4095 35.6245 98.5051 35.6794 98.59C35.7967 98.7691 35.9685 98.9058 36.1694 98.98C36.2559 99.0247 36.352 99.0481 36.4494 99.0481C36.5468 99.0481 36.6428 99.0247 36.7294 98.98V98.93ZM40.1594 93.27C40.2107 93.2391 40.2695 93.2228 40.3294 93.2228C40.3893 93.2228 40.448 93.2391 40.4994 93.27C40.6476 93.3446 40.766 93.4674 40.8351 93.6183C40.9042 93.7692 40.9198 93.9391 40.8794 94.1L40.8394 95C40.7094 96.78 40.6194 98.23 40.5694 99.37C40.5325 100.574 40.5592 101.779 40.6494 102.98C40.7094 103.61 40.5894 104.04 40.2694 104.24C40.1346 104.334 39.9736 104.383 39.8094 104.38C39.7214 104.373 39.6366 104.343 39.5631 104.294C39.4896 104.245 39.4299 104.178 39.3894 104.1C39.3153 103.992 39.2865 103.859 39.3094 103.73C39.3094 103.18 39.3094 102.18 39.3094 100.73C39.3094 99.28 39.3094 98.25 39.3794 97.38C39.4494 96.51 39.4594 95.69 39.5394 94.94C39.5394 94.88 39.5394 94.73 39.5394 94.49C39.5558 94.2562 39.6098 94.0266 39.6994 93.81C39.7846 93.6097 39.9272 93.4392 40.1094 93.32L40.1594 93.27ZM45.1594 98.57C45.3541 98.8662 45.452 99.2157 45.4394 99.57C45.4226 99.9242 45.3159 100.268 45.1294 100.57C44.9375 100.884 44.6778 101.15 44.3694 101.35C44.1079 101.516 43.8085 101.612 43.4994 101.63C43.1855 101.651 42.8716 101.589 42.5894 101.45C42.2948 101.307 42.0456 101.086 41.8694 100.81C41.6802 100.509 41.5701 100.165 41.5494 99.81C41.5269 99.4422 41.6065 99.0754 41.7794 98.75C41.969 98.3886 42.2522 98.0846 42.5994 97.87C42.7969 97.7249 43.0228 97.6232 43.2623 97.5715C43.5019 97.5198 43.7496 97.5193 43.9894 97.57C44.4894 97.7475 44.9061 98.1037 45.1594 98.57ZM43.0894 98.87C42.8827 98.9915 42.7266 99.1831 42.6494 99.41C42.6219 99.5312 42.6221 99.657 42.6498 99.7782C42.6775 99.8994 42.732 100.013 42.8094 100.11C42.918 100.305 43.0967 100.452 43.3094 100.52C43.3891 100.544 43.4731 100.552 43.5558 100.541C43.6386 100.531 43.7182 100.503 43.7894 100.46C44.3994 100.06 44.5294 99.59 44.1694 99.04C44.1183 98.9553 44.0502 98.8822 43.9692 98.8254C43.8883 98.7685 43.7964 98.7292 43.6994 98.71C43.4832 98.6852 43.2656 98.7423 43.0894 98.87Z" fill="#231F20"/>
<path d="M85.2905 27.34C85.4654 27.7993 85.683 28.2413 85.9405 28.66C86.146 28.9997 86.3264 29.354 86.4805 29.72C86.6967 29.4085 86.9484 29.1233 87.2305 28.87C87.5471 28.5954 87.8811 28.3415 88.2305 28.11C88.8452 27.6815 89.5715 27.4417 90.3205 27.42C91.0211 27.3938 91.7146 27.5672 92.3205 27.92C92.9341 28.2641 93.4555 28.7512 93.8405 29.34C94.0302 29.6782 94.1588 30.0471 94.2205 30.43C94.312 30.8264 94.3456 31.2339 94.3205 31.64C94.2746 32.3408 94.0766 33.0233 93.7405 33.64C93.4108 34.241 92.9321 34.7472 92.3505 35.11C91.9397 35.3908 91.4827 35.5972 91.0005 35.72C90.5016 35.8453 89.9932 35.929 89.4805 35.97C89.0078 36.0277 88.5284 35.9903 88.0705 35.86C87.6957 35.721 87.381 35.4558 87.1805 35.11C87.1168 35.0154 87.0779 34.9062 87.0674 34.7926C87.0569 34.6791 87.0752 34.5647 87.1205 34.46C87.183 34.2559 87.3091 34.0772 87.4805 33.95C87.577 33.8914 87.6876 33.8603 87.8005 33.86L88.4005 33.95L89.0705 34.07C89.4351 34.1254 89.8059 34.1254 90.1705 34.07C90.5496 33.9898 90.9095 33.837 91.2305 33.62C91.5181 33.4465 91.7694 33.219 91.9705 32.95C92.253 32.5708 92.4477 32.1336 92.5405 31.67C92.569 31.1267 92.4023 30.5911 92.0705 30.16C91.9186 29.9066 91.7125 29.69 91.467 29.5257C91.2215 29.3615 90.9426 29.2536 90.6505 29.21C89.8485 29.2126 89.0705 29.4837 88.4405 29.98C88.2665 30.1035 88.1116 30.2517 87.9805 30.42C87.7905 30.63 87.6105 30.85 87.4405 31.07C87.2061 31.3972 86.938 31.6988 86.6405 31.97C86.46 32.0771 86.2459 32.1128 86.0405 32.07C85.9221 32.0565 85.8087 32.0149 85.7096 31.9489C85.6104 31.8828 85.5285 31.794 85.4705 31.69C84.9331 30.478 84.3116 29.3052 83.6105 28.18L83.3205 27.78C83.1952 27.6264 83.0784 27.4662 82.9705 27.3C82.902 27.2035 82.8652 27.0882 82.8652 26.97C82.8652 26.8517 82.902 26.7364 82.9705 26.64C83.1053 26.3972 83.2976 26.1912 83.5305 26.04C83.7305 25.92 84.1805 25.67 84.8905 25.31L85.7205 24.86L86.1805 24.58L86.7805 24.17L87.3005 23.81C87.577 23.6179 87.8902 23.4851 88.2205 23.42C88.3434 23.3938 88.4714 23.4056 88.5875 23.4538C88.7036 23.502 88.8023 23.5844 88.8705 23.69C89.0571 23.9356 89.1652 24.2319 89.1805 24.54C89.185 24.6328 89.1663 24.7252 89.1262 24.809C89.086 24.8928 89.0256 24.9653 88.9505 25.02C88.8205 25.1 88.5905 25.22 88.2505 25.38C87.741 25.6416 87.2469 25.9321 86.7705 26.25C86.3805 26.5 85.8805 26.85 85.2705 27.31L85.2905 27.34ZM102.42 26.09L103.19 25.64L104.19 24.98L104.92 24.46C105.43 24.07 105.92 23.74 106.34 23.46C106.501 23.337 106.685 23.2494 106.882 23.2029C107.078 23.1563 107.282 23.1519 107.48 23.19C107.845 23.3004 108.155 23.5429 108.35 23.87C108.404 23.9738 108.425 24.0914 108.411 24.2073C108.397 24.3233 108.348 24.4323 108.27 24.52C108.118 24.771 107.909 24.9832 107.66 25.14C107.45 25.28 107.01 25.54 106.32 25.92C105.48 26.37 104.83 26.74 104.38 27.04C104.14 27.19 103.86 27.4 103.55 27.64C103.43 27.74 103.28 27.86 103.1 27.99L102.48 28.41C102.147 28.6562 101.76 28.8206 101.35 28.89C101.193 28.9007 101.036 28.8647 100.899 28.7864C100.762 28.7081 100.651 28.5911 100.58 28.45C100.387 28.1326 100.309 27.7581 100.36 27.39C100.41 26.8447 100.497 26.3034 100.62 25.77L100.76 25.11C100.76 24.81 100.93 24.28 101.11 23.52C101.393 22.5174 101.597 21.4943 101.72 20.46C101.831 19.7694 101.696 19.062 101.34 18.46C101.233 18.2941 101.085 18.1589 100.909 18.0677C100.734 17.9766 100.538 17.9325 100.34 17.94C99.8668 17.935 99.4028 18.0745 99.0105 18.34C98.7382 18.4671 98.4944 18.6477 98.2934 18.8711C98.0924 19.0944 97.9383 19.3559 97.8405 19.64C97.801 19.9005 97.8133 20.1662 97.8768 20.4219C97.9403 20.6776 98.0537 20.9182 98.2105 21.13C98.2534 21.2063 98.276 21.2924 98.276 21.38C98.276 21.4675 98.2534 21.5536 98.2105 21.63C98.1187 21.8436 97.961 22.0223 97.7605 22.14C97.6403 22.2347 97.4957 22.2934 97.3435 22.3093C97.1913 22.3253 97.0377 22.2977 96.9005 22.23C96.6081 22.0652 96.3635 21.8275 96.1905 21.54C95.8652 21.0548 95.7202 20.471 95.7805 19.89C95.8438 19.2604 96.0752 18.6594 96.4505 18.15C96.8688 17.5595 97.3988 17.0567 98.0105 16.67C98.5181 16.3533 99.0874 16.1487 99.6805 16.07C100.293 15.9686 100.921 15.9993 101.52 16.16C102.06 16.2899 102.532 16.6183 102.84 17.08C103.28 17.7675 103.538 18.5554 103.59 19.37C103.653 20.1788 103.61 20.9925 103.46 21.79C103.32 22.57 103.09 23.52 102.79 24.64C102.63 25.17 102.49 25.64 102.39 26.09H102.42ZM97.8405 31.57C97.7554 31.6377 97.6491 31.6731 97.5405 31.67C97.3535 31.6836 97.1658 31.6563 96.9905 31.59C96.7784 31.5047 96.602 31.3495 96.4905 31.15C96.4027 30.992 96.3451 30.819 96.3205 30.64C96.3051 30.4787 96.3438 30.3168 96.4305 30.18C96.6237 29.8695 96.8875 29.6091 97.2005 29.42C97.3223 29.3379 97.4608 29.2837 97.606 29.2613C97.7512 29.2388 97.8995 29.2486 98.0405 29.29C98.3305 29.3811 98.5787 29.5725 98.7405 29.83C98.9849 30.24 99.1415 30.6963 99.2005 31.17C99.2843 31.6282 99.3145 32.0947 99.2905 32.56C99.2512 32.8176 99.1807 33.0694 99.0805 33.31C99.0151 33.5017 98.8931 33.6691 98.7305 33.79C98.5677 33.9325 98.3567 34.0076 98.1405 34C97.973 33.9233 97.8358 33.7932 97.7505 33.63C97.6905 33.54 97.7505 33.33 97.8305 32.99C97.89 32.8046 97.9302 32.6136 97.9505 32.42C97.9729 32.1253 97.9527 31.8289 97.8905 31.54L97.8405 31.57Z" fill="#231F20"/>
<path d="M106.59 15.94C106.827 15.7907 107.093 15.6951 107.37 15.66C107.658 15.6096 107.953 15.6302 108.23 15.72C108.492 15.792 108.717 15.9597 108.86 16.19C109.061 16.4896 109.188 16.8322 109.23 17.19C109.261 17.5324 109.202 17.8768 109.06 18.19C108.914 18.4961 108.685 18.7556 108.4 18.94C108.203 19.0811 107.979 19.1813 107.742 19.2345C107.505 19.2878 107.259 19.293 107.02 19.25C106.786 19.201 106.565 19.1037 106.37 18.9642C106.175 18.8248 106.012 18.6462 105.89 18.44C105.749 18.2469 105.652 18.0246 105.607 17.7894C105.562 17.5541 105.57 17.3117 105.63 17.08C105.81 16.5859 106.166 16.1761 106.63 15.93L106.59 15.94ZM107.71 18.21C107.831 18.1487 107.935 18.0604 108.015 17.9519C108.095 17.8434 108.149 17.7178 108.172 17.5849C108.196 17.452 108.188 17.3155 108.149 17.1863C108.111 17.057 108.043 16.9384 107.95 16.84C107.918 16.7776 107.869 16.7251 107.809 16.6881C107.75 16.6511 107.681 16.6311 107.61 16.63C107.414 16.6485 107.227 16.7212 107.07 16.84C106.97 16.8943 106.883 16.9685 106.812 17.0579C106.742 17.1473 106.69 17.25 106.66 17.36C106.635 17.4506 106.629 17.5455 106.643 17.6385C106.657 17.7315 106.69 17.8206 106.74 17.9C106.85 18.0613 107.007 18.1839 107.19 18.25C107.27 18.2929 107.36 18.3153 107.45 18.3153C107.541 18.3153 107.63 18.2929 107.71 18.25V18.21ZM110.84 13C110.887 12.9706 110.941 12.9551 110.995 12.9551C111.05 12.9551 111.104 12.9706 111.15 13C111.256 13.0476 111.346 13.1238 111.41 13.22C111.503 13.3837 111.539 13.5739 111.51 13.76L111.43 14.59C111.31 16.23 111.22 17.59 111.18 18.59C111.148 19.6973 111.175 20.8055 111.26 21.91C111.32 22.5033 111.2 22.8933 110.9 23.08C110.777 23.166 110.631 23.2115 110.48 23.21C110.401 23.2003 110.325 23.1716 110.259 23.1263C110.193 23.0811 110.138 23.0206 110.1 22.95C110.032 22.8507 110.003 22.7293 110.02 22.61C110.02 22.11 110.02 21.18 110.02 19.83C110.02 18.48 110.02 17.55 110.08 16.74C110.14 15.93 110.16 15.19 110.23 14.49C110.23 14.44 110.23 14.3 110.23 14.08C110.24 13.8623 110.291 13.6485 110.38 13.45C110.48 13.2534 110.642 13.0952 110.84 13ZM115.43 17.89C115.614 18.1607 115.705 18.4833 115.69 18.81C115.676 19.1398 115.576 19.4603 115.4 19.74C115.223 20.0288 114.984 20.2747 114.7 20.46C114.461 20.6156 114.185 20.7053 113.9 20.72C113.61 20.7383 113.321 20.6796 113.06 20.55C112.792 20.4159 112.564 20.2121 112.4 19.96C112.229 19.6896 112.129 19.3798 112.11 19.06C112.085 18.7146 112.154 18.3689 112.31 18.06C112.492 17.7305 112.753 17.4519 113.07 17.25C113.252 17.115 113.46 17.0209 113.681 16.9743C113.902 16.9277 114.13 16.9296 114.35 16.98C114.81 17.1293 115.196 17.4474 115.43 17.87V17.89ZM113.53 18.17C113.337 18.2754 113.19 18.4506 113.12 18.66C113.094 18.7725 113.093 18.8898 113.119 19.0026C113.145 19.1153 113.197 19.2205 113.27 19.31C113.319 19.3989 113.385 19.4773 113.464 19.5408C113.543 19.6043 113.633 19.6516 113.73 19.68C113.803 19.7052 113.88 19.7139 113.956 19.7052C114.032 19.6966 114.106 19.6708 114.17 19.63C114.292 19.5805 114.401 19.5034 114.488 19.4049C114.575 19.3063 114.637 19.189 114.671 19.062C114.705 18.9351 114.709 18.802 114.683 18.6733C114.657 18.5445 114.601 18.4236 114.52 18.32C114.475 18.2416 114.413 18.1741 114.339 18.1223C114.264 18.0705 114.18 18.0355 114.09 18.02C113.891 17.9951 113.69 18.0489 113.53 18.17Z" fill="#231F20"/>
</g>
<defs>
<clipPath id="clip0_415_873">
<rect width="153.84" height="272.48" fill="white"/>
</clipPath>
</defs>
</svg>
