<svg width="134" height="241" viewBox="0 0 134 241" fill="none" xmlns="http://www.w3.org/2000/svg">
<g clip-path="url(#clip0_415_830)">
<path d="M85.1708 9.52C84.1708 8.09 77.9908 0 77.9908 0L131.991 4.69L111.161 38.75L104.371 34.56L69.8508 53.79L54.0508 22.57L85.1708 9.52Z" fill="#BDC0C0"/>
<path d="M10.89 102.48L0 85.83L22.3 70.25L17.75 63.91L48.76 62.98L41.81 88.82L36.84 84.64L10.89 102.48Z" fill="#BDC0C0"/>
<path d="M53.5093 210.51C53.865 210.604 54.2314 210.651 54.5993 210.65L58.2493 210.25C58.3922 210.247 58.534 210.276 58.6651 210.333C58.7962 210.389 58.9136 210.474 59.0093 210.58C59.2077 210.795 59.3152 211.078 59.3093 211.37C59.3093 218.13 57.8793 227.083 55.0193 238.23L57.0193 238.08C58.3793 238.08 59.0193 238.47 59.0193 239.27V239.44L58.4093 240.05L53.6193 240.2C53.1293 240.2 52.7693 239.88 52.5293 239.25C53.1193 238.3 53.7793 235.85 54.5293 231.88C55.2793 227.91 55.8793 224.08 56.3493 220.39C56.8193 216.7 57.1093 214.03 57.2093 212.39C56.4775 212.501 55.7393 212.564 54.9993 212.58C53.5993 212.58 52.8993 212.17 52.8993 211.35V211.18L53.4293 210.53L53.5093 210.51ZM56.5093 207.92C56.3221 207.927 56.1357 207.893 55.963 207.82C55.7903 207.748 55.6355 207.638 55.5093 207.5C55.3807 207.366 55.2799 207.207 55.2128 207.034C55.1457 206.86 55.1135 206.675 55.1181 206.49C55.1228 206.304 55.1642 206.121 55.2399 205.951C55.3156 205.781 55.4241 205.628 55.5593 205.5C55.6852 205.359 55.8393 205.246 56.0115 205.169C56.1838 205.091 56.3704 205.051 56.5593 205.05C56.7489 205.046 56.937 205.085 57.1099 205.162C57.2829 205.24 57.4364 205.356 57.5593 205.5C57.8318 205.781 57.9827 206.158 57.9793 206.55C57.9892 206.738 57.9555 206.927 57.8809 207.1C57.8064 207.274 57.6929 207.427 57.5493 207.55C57.2572 207.806 56.8772 207.939 56.4893 207.92H56.5093ZM64.0993 239.36L64.2893 231.87C64.2518 230.742 64.1282 229.619 63.9193 228.51C63.7057 227.331 63.582 226.138 63.5493 224.94C63.5229 223.829 63.3686 222.725 63.0893 221.65C62.8251 220.468 62.4912 219.303 62.0893 218.16C61.1867 215.931 60.6792 213.563 60.5893 211.16C60.595 211.057 60.6288 210.958 60.687 210.874C60.7452 210.789 60.8256 210.722 60.9193 210.68C61.1311 210.553 61.3725 210.484 61.6193 210.48C61.8493 210.48 62.1093 210.78 62.3793 211.37C62.6966 212.103 62.9476 212.862 63.1293 213.64C63.3626 214.56 63.5726 215.48 63.7593 216.4C63.9593 217.33 64.1393 218.22 64.2993 219.08C64.4593 219.94 64.5893 220.5 64.6593 220.76C64.7126 220.527 64.7726 219.987 64.8393 219.14C64.9093 218.29 64.9893 217.41 65.0793 216.52C65.1693 215.63 65.2993 214.7 65.4593 213.79C65.7993 211.71 66.3093 210.67 66.9993 210.67C67.6893 210.67 67.9993 210.81 67.9993 211.09C67.8996 213.278 67.5881 215.452 67.0693 217.58C66.5466 219.724 66.2351 221.915 66.1393 224.12L66.0293 225.47V226.05L66.2393 236.33L66.3693 238.31V239.18C66.3752 239.339 66.3429 239.498 66.275 239.642C66.2072 239.787 66.1058 239.913 65.9793 240.01C65.7444 240.209 65.447 240.319 65.1393 240.32C64.864 240.329 64.5957 240.232 64.3893 240.05C64.2917 239.964 64.2135 239.857 64.1601 239.738C64.1067 239.619 64.0791 239.49 64.0793 239.36H64.0993ZM79.8693 225.21C79.8115 225.321 79.7807 225.445 79.7793 225.57L79.8693 226.39C79.7959 228.62 79.3005 230.815 78.4093 232.86C77.6425 235.167 76.2881 237.235 74.4793 238.86C73.7334 239.482 72.7999 239.834 71.8293 239.86C71.3745 239.866 70.9261 239.752 70.5293 239.53C70.3443 239.439 70.19 239.296 70.0852 239.118C69.9804 238.94 69.9297 238.736 69.9393 238.53C70.5093 237.93 70.7893 236.42 70.7893 233.97C70.7893 232.53 70.6693 230.39 70.4293 227.55C70.1893 224.72 70.0693 222.55 70.0693 221.18L70.1893 216.94C70.1491 216.01 70.0049 215.088 69.7593 214.19C69.5338 213.39 69.3897 212.569 69.3293 211.74C69.3293 210.84 70.3293 210.4 72.3293 210.4H72.9193C75.586 210.4 77.496 211.873 78.6493 214.82C79.5935 217.557 80.0175 220.447 79.8993 223.34V225.13L79.8693 225.21ZM72.6393 233.97V237.68C73.6684 236.996 74.5354 236.095 75.1793 235.04C75.9072 233.894 76.4631 232.647 76.8293 231.34C77.5037 228.843 77.84 226.267 77.8293 223.68C77.9266 221.324 77.5561 218.972 76.7393 216.76C76.2437 215.327 75.2689 214.108 73.9793 213.31C73.2629 212.953 72.4695 212.778 71.6693 212.8C71.6693 215.13 71.8193 218.65 72.1293 223.34C72.4393 228.03 72.6193 231.6 72.6193 233.97H72.6393ZM82.5393 210.51C82.8985 210.603 83.2682 210.65 83.6393 210.65L87.2893 210.25C87.4322 210.247 87.574 210.276 87.7051 210.333C87.8362 210.389 87.9536 210.474 88.0493 210.58C88.2477 210.795 88.3552 211.078 88.3493 211.37C88.3493 218.13 86.9193 227.083 84.0593 238.23L86.0593 238.08C87.4193 238.08 88.0593 238.47 88.0593 239.27V239.44L87.4593 240.05L82.6693 240.2C82.1793 240.2 81.8093 239.88 81.5793 239.25C82.1693 238.3 82.8293 235.85 83.5793 231.88C84.3293 227.91 84.9193 224.08 85.3993 220.39C85.8793 216.7 86.1593 214.03 86.2593 212.39C85.5242 212.501 84.7826 212.565 84.0393 212.58C82.6393 212.58 81.9393 212.17 81.9393 211.35V211.18L82.4693 210.53L82.5393 210.51ZM94.7993 212.56H94.1193C93.9222 212.541 93.7252 212.598 93.5693 212.72C93.4991 212.808 93.4471 212.909 93.4162 213.017C93.3853 213.125 93.3761 213.238 93.3893 213.35C93.3893 215.88 93.5393 219.65 93.8593 224.68C94.1793 229.71 94.3293 233.49 94.3293 236.02V237.51C94.5941 237.47 94.8615 237.45 95.1293 237.45C96.1993 237.45 96.7293 237.91 96.7293 238.82V239.04L95.7293 239.71L93.0993 239.8C90.8693 239.8 89.7493 239.42 89.7493 238.65C89.7493 237.88 90.1393 237.72 90.9193 237.72L91.7393 237.78C92.1193 237.78 92.2993 237.47 92.2993 236.87C92.2993 234.87 92.1826 231.87 91.9493 227.87C91.7093 223.87 91.5893 220.87 91.5893 218.87L91.6593 214.87C91.6593 214.043 91.6293 213.323 91.5693 212.71C91.2776 212.817 90.97 212.875 90.6593 212.88C90.535 212.897 90.4084 212.884 90.2896 212.844C90.1709 212.804 90.0631 212.736 89.9749 212.647C89.8866 212.558 89.8203 212.449 89.7812 212.33C89.742 212.211 89.7311 212.084 89.7493 211.96C89.7643 211.781 89.8269 211.61 89.9307 211.464C90.0345 211.318 90.1756 211.203 90.3393 211.13C90.7884 210.877 91.2797 210.708 91.7893 210.63C92.5873 210.473 93.3965 210.379 94.2093 210.35C94.608 210.312 95.0067 210.423 95.3293 210.66C95.4347 210.753 95.5195 210.866 95.578 210.994C95.6366 211.121 95.6677 211.26 95.6693 211.4C95.6768 211.666 95.588 211.925 95.4193 212.13C95.3568 212.249 95.2655 212.351 95.1537 212.426C95.042 212.501 94.9133 212.547 94.7793 212.56H94.7993Z" fill="#231F20"/>
<path d="M8.44922 122.94H29.3692C29.3692 122.94 31.5992 169.55 29.3692 169.55H8.44922V122.94Z" fill="#BDC0C0"/>
<path d="M9.51079 169.86C9.35079 153.927 9.18412 138 9.01079 122.08L7.24079 123.21C14.7 124.549 22.3241 124.701 29.8308 123.66L28.0608 122.53C28.0608 132.75 27.9341 142.973 27.6808 153.2C27.6308 155.68 27.5608 158.2 27.5008 160.64C27.5008 161.87 27.4308 163.11 27.3908 164.35C27.3908 165.04 27.7808 167.57 27.2808 168.07C26.6308 168.72 23.8608 168.58 22.9208 168.65C21.3408 168.76 19.7708 168.84 18.1908 168.89C15.1908 169 12.1908 169 9.25079 168.89C7.44079 168.84 7.45079 171.18 9.25079 171.23C12.5808 171.32 15.9108 171.31 19.2508 171.17C21.9608 171.05 25.6308 171.26 28.1908 170.45C30.1908 169.8 30.0908 168.22 30.1408 166.65C30.2341 163.697 30.3175 160.753 30.3908 157.82C30.6775 146.053 30.8375 134.28 30.8708 122.5C30.8708 121.67 29.9808 121.25 29.1008 121.37C22.084 122.326 14.9605 122.174 7.99079 120.92C7.12079 120.76 6.21078 121.25 6.22078 122.05C6.38078 137.97 6.54745 153.897 6.72078 169.83C6.72078 171.33 9.54079 171.34 9.52079 169.83" fill="#231F20"/>
<path d="M44.3691 108.18H64.6791C64.6791 108.18 66.8591 168.87 64.6791 168.87H44.3691V108.18Z" fill="#BDC0C0"/>
<path d="M43.3101 107.45C42.8234 128.29 42.3301 149.133 41.8301 169.98C41.8582 170.311 42.0136 170.618 42.2636 170.836C42.5136 171.054 42.8386 171.167 43.1701 171.15H55.4101C57.6401 171.15 62.0701 171.96 63.8301 170.41C64.7601 169.59 64.6901 168.14 64.8301 167.1C65.0301 165.4 65.2201 163.71 65.3901 162.01C65.7701 158.31 66.1034 154.603 66.3901 150.89C67.4282 136.363 67.6119 121.788 66.9401 107.24C66.912 106.909 66.7565 106.602 66.5065 106.384C66.2565 106.166 65.9315 106.053 65.6001 106.07C58.5455 106.655 51.4546 106.655 44.4001 106.07C42.6901 105.93 42.7001 108.28 44.4001 108.42C51.4546 109.005 58.5455 109.005 65.6001 108.42L64.2701 107.25C64.8714 120.245 64.788 133.263 64.0201 146.25C63.6467 152.603 63.1034 158.937 62.3901 165.25C62.3683 166.026 62.2813 166.799 62.1301 167.56C61.6401 169.18 61.1301 168.78 59.5201 168.79H54.4301H43.2101L44.5401 169.96C45.0401 149.12 45.5334 128.277 46.0201 107.43C46.0201 105.92 43.3801 105.92 43.3501 107.43" fill="#231F20"/>
<path d="M79.2095 71.2C76.7561 104.053 75.7328 136.95 76.1395 169.89C76.1395 170.71 77.0195 171.14 77.8995 171.02C84.7702 170.023 91.7519 170.067 98.6095 171.15C98.7998 171.205 98.9996 171.218 99.1955 171.19C99.3915 171.161 99.5791 171.091 99.7457 170.984C99.9124 170.877 100.054 170.736 100.162 170.569C100.269 170.403 100.34 170.216 100.369 170.02C102.056 137.287 102.893 104.537 102.879 71.77C102.879 71.1 102.239 70.65 101.489 70.6L81.3695 69.31C79.5795 69.2 79.5895 71.54 81.3695 71.66L101.459 72.96L100.069 71.79C100.069 104.55 99.2361 137.3 97.5695 170.04L99.3195 168.91C91.9714 167.752 84.4906 167.708 77.1295 168.78L78.8895 169.91C78.4828 136.99 79.5061 104.093 81.9595 71.22C82.0695 69.72 79.2895 69.72 79.1795 71.22" fill="#231F20"/>
<path d="M110.181 44.6C109.011 61.19 109.071 77.8 109.071 94.41C109.071 110.62 108.991 126.82 109.071 143.02C109.071 152.37 109.261 161.72 109.671 171.02C109.706 171.351 109.866 171.657 110.119 171.874C110.372 172.092 110.698 172.205 111.031 172.19C117.917 172.739 124.838 172.662 131.711 171.96C132.451 171.88 133.071 171.48 133.081 170.78C133.227 137.84 133.384 104.897 133.551 71.95L133.681 43.95C133.665 43.6768 133.558 43.4168 133.376 43.2119C133.195 43.0069 132.95 42.8689 132.681 42.82C125.456 41.8609 118.121 42.1178 110.981 43.58C109.271 43.94 109.981 46.2 111.701 45.84C118.364 44.4583 125.212 44.2014 131.961 45.08L130.961 43.95C130.814 76.89 130.657 109.833 130.491 142.78C130.451 152.113 130.404 161.447 130.351 170.78L131.721 169.61C124.849 170.315 117.927 170.395 111.041 169.85L112.411 171.02C111.701 154.63 111.781 138.24 111.791 121.84C111.801 105.44 111.701 89.27 111.881 72.98C111.981 63.5 112.251 53.98 112.881 44.55C112.991 43.04 110.261 43.05 110.151 44.55" fill="#231F20"/>
<path d="M32.6129 193.983C32.974 194.005 33.213 194.015 33.3298 194.015C33.6909 194.015 34.0095 194.01 34.2856 193.999C34.5723 193.989 34.8166 193.978 35.0184 193.967C35.5388 193.936 36.006 193.92 36.4202 193.92C36.8238 193.92 37.1211 194.026 37.3123 194.238C37.5035 194.451 37.599 194.732 37.599 195.082C37.599 195.252 37.4875 195.39 37.2645 195.497C37.0415 195.592 36.8132 195.64 36.5795 195.64C36.3777 195.64 35.9582 195.619 35.321 195.576C34.5564 195.513 33.9564 195.481 33.521 195.481C33.2873 195.481 33.0112 195.497 32.6926 195.529C32.5652 195.539 32.4112 195.55 32.2306 195.56C32.0501 195.571 31.8483 195.576 31.6253 195.576C31.2005 195.576 30.8766 195.518 30.6536 195.401C30.4305 195.284 30.319 195.072 30.319 194.764C30.319 194.498 30.4252 194.228 30.6376 193.951C30.85 193.675 31.1474 193.346 31.5297 192.964L31.912 192.581C32.0819 192.401 32.3952 192.093 32.8519 191.658C33.6059 190.978 34.19 190.378 34.6042 189.857C35.029 189.337 35.2414 188.822 35.2414 188.312C35.2414 187.983 35.0821 187.717 34.7635 187.516C34.4555 187.303 34.0997 187.197 33.6962 187.197C33.0802 187.197 32.6342 187.335 32.3581 187.611C32.0926 187.877 31.9598 188.264 31.9598 188.774C31.9598 188.902 31.8855 189.018 31.7368 189.125C31.5987 189.22 31.4235 189.268 31.2111 189.268C30.9137 189.268 30.7067 189.162 30.5898 188.949C30.473 188.737 30.4146 188.477 30.4146 188.169C30.4146 187.68 30.5633 187.25 30.8606 186.879C31.158 186.496 31.5616 186.199 32.0713 185.986C32.5917 185.774 33.1652 185.668 33.7918 185.668C34.2378 185.668 34.6998 185.779 35.1777 186.002C35.6662 186.215 36.0698 186.507 36.3884 186.879C36.7176 187.24 36.8822 187.638 36.8822 188.073C36.8822 188.732 36.7176 189.358 36.3884 189.953C36.0591 190.548 35.6715 191.079 35.2255 191.546C34.79 192.003 34.2219 192.544 33.521 193.171C33.1811 193.458 32.8784 193.728 32.6129 193.983ZM45.7451 186.655C46.0956 187.197 46.377 187.818 46.5894 188.519C46.8018 189.21 46.908 189.916 46.908 190.638C46.908 191.498 46.7593 192.316 46.462 193.091C46.1752 193.866 45.7398 194.498 45.1557 194.987C44.5822 195.475 43.8813 195.72 43.0529 195.72C42.2777 195.72 41.5661 195.523 40.9183 195.13C40.2705 194.727 39.782 194.259 39.4528 193.728C39.2085 193.335 39.0227 192.895 38.8952 192.406C38.7678 191.907 38.7041 191.408 38.7041 190.909C38.7041 190.038 38.8846 189.188 39.2457 188.36C39.6174 187.532 40.1271 186.868 40.775 186.369C41.3909 185.912 42.0971 185.684 42.8936 185.684C43.7751 185.684 44.7256 186.008 45.7451 186.655ZM41.4759 187.755C41.3803 187.914 41.2847 188.057 41.1891 188.185C40.9555 188.535 40.7856 188.833 40.6794 189.077C40.5732 189.31 40.4776 189.672 40.3926 190.16C40.3502 190.383 40.3289 190.643 40.3289 190.941C40.3289 191.695 40.4776 192.348 40.775 192.9C41.0829 193.442 41.5024 193.808 42.0334 193.999C42.2883 194.095 42.575 194.143 42.8936 194.143C43.6901 194.143 44.2902 193.792 44.6937 193.091C45.1079 192.38 45.315 191.504 45.315 190.463C45.315 189.496 45.1345 188.705 44.7734 188.089C44.4123 187.463 43.8548 187.149 43.1007 187.149C42.7928 187.149 42.5273 187.197 42.3042 187.293C42.0918 187.388 41.8157 187.542 41.4759 187.755ZM52.7577 187.261C52.6515 189.342 52.5984 190.999 52.5984 192.231C52.5984 192.868 52.6143 193.474 52.6462 194.047C52.7311 194.111 52.8957 194.143 53.14 194.143L53.5064 194.127C53.6551 194.105 53.7931 194.095 53.9206 194.095C54.1967 194.095 54.4091 194.143 54.5578 194.238C54.7171 194.334 54.7967 194.52 54.7967 194.796C54.7967 195.061 54.7171 195.268 54.5578 195.417C54.4091 195.566 54.0958 195.64 53.6179 195.64C53.2143 195.64 52.7258 195.608 52.1523 195.544C52.0143 195.534 51.8815 195.523 51.7541 195.513C51.6266 195.502 51.5098 195.497 51.4036 195.497C50.8195 195.507 50.3841 195.529 50.0974 195.56C49.8106 195.592 49.4867 195.608 49.1256 195.608C48.7964 195.608 48.6318 195.359 48.6318 194.859C48.6318 194.382 48.9398 194.143 49.5557 194.143C49.6513 194.143 49.8053 194.153 50.0177 194.174C50.1983 194.206 50.3894 194.222 50.5912 194.222C50.708 194.222 50.8036 194.217 50.8779 194.206C50.8886 193.495 50.9257 192.459 50.9894 191.1C51.0532 189.507 51.085 188.328 51.085 187.564C51.0319 187.574 50.8461 187.648 50.5275 187.787C50.039 188.031 49.6779 188.153 49.4442 188.153C49.3168 188.153 49.2 188.089 49.0938 187.962C48.9876 187.824 48.9345 187.664 48.9345 187.484C48.9345 187.303 49.046 187.128 49.269 186.958C49.492 186.788 49.8531 186.565 50.3522 186.289C50.6284 186.151 50.8939 185.997 51.1487 185.827C51.2125 185.785 51.3027 185.742 51.4196 185.7C51.547 185.657 51.6426 185.636 51.7063 185.636C51.9824 185.636 52.232 185.694 52.455 185.811C52.6886 185.917 52.8055 186.061 52.8055 186.241L52.7577 187.261ZM58.9205 186.082C58.9205 186.602 58.8249 187.208 58.6337 187.898C58.4532 188.578 58.1877 189.417 57.8372 190.415L57.4708 191.514C57.6514 191.546 57.8372 191.562 58.0284 191.562C58.3576 191.562 58.8514 191.53 59.5099 191.466C60.1683 191.403 60.6409 191.371 60.9276 191.371L60.9117 189.618C60.8905 188.408 60.8799 187.516 60.8799 186.942C60.8799 186.188 61.1294 185.811 61.6286 185.811C62.0215 185.811 62.2711 185.912 62.3773 186.114C62.4941 186.316 62.5525 186.618 62.5525 187.022C62.5525 187.436 62.5206 188.079 62.4569 188.949C62.4463 189.119 62.4304 189.401 62.4091 189.794C62.3879 190.187 62.3773 190.526 62.3773 190.813L62.3932 191.323L62.7118 191.307C62.9667 191.286 63.1632 191.275 63.3012 191.275C63.5561 191.275 63.8004 191.36 64.034 191.53C64.2676 191.689 64.3845 191.881 64.3845 192.104C64.3845 192.369 64.342 192.576 64.257 192.725C64.1827 192.874 64.0924 192.948 63.9862 192.948C63.8057 192.948 63.5773 192.927 63.3012 192.884C63.2375 192.884 63.1419 192.879 63.0145 192.868C62.887 192.847 62.7649 192.836 62.6481 192.836L62.3773 192.852L62.3932 195.003C62.3932 195.226 62.3189 195.396 62.1702 195.513C62.0215 195.629 61.8516 195.688 61.6604 195.688C61.4268 195.688 61.2197 195.613 61.0392 195.465C60.8586 195.316 60.7683 195.13 60.7683 194.907C60.7683 194.196 60.779 193.638 60.8002 193.235C60.8108 193.139 60.8161 193.022 60.8161 192.884C60.4975 192.874 59.9453 192.911 59.1594 192.996C58.416 193.081 57.8532 193.123 57.4708 193.123C56.9823 193.123 56.5681 193.054 56.2283 192.916C55.8991 192.778 55.7345 192.56 55.7345 192.263C55.7345 191.976 55.7929 191.626 55.9097 191.211C56.0265 190.797 56.2017 190.24 56.4354 189.539C56.5416 189.263 56.6212 189.034 56.6743 188.854C56.8655 188.312 57.0089 187.856 57.1044 187.484C57.2 187.102 57.3062 186.64 57.423 186.098C57.4655 185.928 57.5558 185.801 57.6939 185.716C57.8319 185.631 57.9912 185.588 58.1718 185.588C58.3629 185.588 58.5328 185.636 58.6815 185.732C58.8408 185.817 58.9205 185.933 58.9205 186.082ZM75.8731 191.419C76.3722 191.419 76.6218 191.695 76.6218 192.247C76.6218 192.544 76.5209 192.757 76.3191 192.884C76.128 193.001 75.8837 193.059 75.5864 193.059C75.5014 193.059 75.4111 193.054 75.3155 193.043C75.22 193.033 75.1244 193.022 75.0288 193.012C74.7102 192.958 74.4235 192.932 74.1686 192.932C73.7756 192.932 73.1013 192.953 72.1455 192.996C71.1472 193.038 70.425 193.059 69.979 193.059C69.4692 193.059 69.1347 192.943 68.9754 192.709C68.9117 192.592 68.8798 192.47 68.8798 192.343C68.8798 192.077 68.9701 191.854 69.1506 191.673C69.2568 191.567 69.6232 191.504 70.2498 191.482C70.887 191.45 71.5932 191.434 72.3685 191.434C72.5066 191.434 72.9738 191.45 73.7703 191.482C74.0465 191.504 74.5934 191.488 75.4111 191.434L75.8731 191.419ZM83.8098 193.983C84.1709 194.005 84.4099 194.015 84.5267 194.015C84.8878 194.015 85.2064 194.01 85.4825 193.999C85.7692 193.989 86.0135 193.978 86.2153 193.967C86.7357 193.936 87.2029 193.92 87.6171 193.92C88.0207 193.92 88.318 194.026 88.5092 194.238C88.7004 194.451 88.7959 194.732 88.7959 195.082C88.7959 195.252 88.6844 195.39 88.4614 195.497C88.2384 195.592 88.0101 195.64 87.7764 195.64C87.5746 195.64 87.1552 195.619 86.518 195.576C85.7533 195.513 85.1533 195.481 84.7179 195.481C84.4842 195.481 84.2081 195.497 83.8895 195.529C83.7621 195.539 83.6081 195.55 83.4275 195.56C83.247 195.571 83.0452 195.576 82.8222 195.576C82.3974 195.576 82.0735 195.518 81.8505 195.401C81.6274 195.284 81.5159 195.072 81.5159 194.764C81.5159 194.498 81.6221 194.228 81.8345 193.951C82.0469 193.675 82.3443 193.346 82.7266 192.964L83.1089 192.581C83.2788 192.401 83.5921 192.093 84.0488 191.658C84.8028 190.978 85.3869 190.378 85.8011 189.857C86.2259 189.337 86.4383 188.822 86.4383 188.312C86.4383 187.983 86.279 187.717 85.9604 187.516C85.6524 187.303 85.2966 187.197 84.8931 187.197C84.2771 187.197 83.8311 187.335 83.555 187.611C83.2895 187.877 83.1567 188.264 83.1567 188.774C83.1567 188.902 83.0824 189.018 82.9337 189.125C82.7956 189.22 82.6204 189.268 82.408 189.268C82.1106 189.268 81.9036 189.162 81.7867 188.949C81.6699 188.737 81.6115 188.477 81.6115 188.169C81.6115 187.68 81.7602 187.25 82.0575 186.879C82.3549 186.496 82.7585 186.199 83.2682 185.986C83.7886 185.774 84.3621 185.668 84.9887 185.668C85.4347 185.668 85.8967 185.779 86.3746 186.002C86.8631 186.215 87.2667 186.507 87.5853 186.879C87.9145 187.24 88.0791 187.638 88.0791 188.073C88.0791 188.732 87.9145 189.358 87.5853 189.953C87.256 190.548 86.8684 191.079 86.4224 191.546C85.9869 192.003 85.4188 192.544 84.7179 193.171C84.378 193.458 84.0753 193.728 83.8098 193.983ZM96.942 186.655C97.2925 187.197 97.5739 187.818 97.7863 188.519C97.9987 189.21 98.1049 189.916 98.1049 190.638C98.1049 191.498 97.9562 192.316 97.6589 193.091C97.3721 193.866 96.9367 194.498 96.3526 194.987C95.7791 195.475 95.0782 195.72 94.2498 195.72C93.4746 195.72 92.763 195.523 92.1152 195.13C91.4674 194.727 90.9789 194.259 90.6497 193.728C90.4054 193.335 90.2196 192.895 90.0921 192.406C89.9647 191.907 89.901 191.408 89.901 190.909C89.901 190.038 90.0815 189.188 90.4426 188.36C90.8143 187.532 91.324 186.868 91.9719 186.369C92.5878 185.912 93.294 185.684 94.0905 185.684C94.972 185.684 95.9225 186.008 96.942 186.655ZM92.6728 187.755C92.5772 187.914 92.4816 188.057 92.386 188.185C92.1524 188.535 91.9825 188.833 91.8763 189.077C91.7701 189.31 91.6745 189.672 91.5895 190.16C91.5471 190.383 91.5258 190.643 91.5258 190.941C91.5258 191.695 91.6745 192.348 91.9719 192.9C92.2798 193.442 92.6993 193.808 93.2303 193.999C93.4852 194.095 93.7719 194.143 94.0905 194.143C94.887 194.143 95.4871 193.792 95.8906 193.091C96.3048 192.38 96.5119 191.504 96.5119 190.463C96.5119 189.496 96.3314 188.705 95.9703 188.089C95.6092 187.463 95.0517 187.149 94.2976 187.149C93.9897 187.149 93.7242 187.197 93.5011 187.293C93.2887 187.388 93.0126 187.542 92.6728 187.755ZM103.955 187.261C103.848 189.342 103.795 190.999 103.795 192.231C103.795 192.868 103.811 193.474 103.843 194.047C103.928 194.111 104.093 194.143 104.337 194.143L104.703 194.127C104.852 194.105 104.99 194.095 105.117 194.095C105.394 194.095 105.606 194.143 105.755 194.238C105.914 194.334 105.994 194.52 105.994 194.796C105.994 195.061 105.914 195.268 105.755 195.417C105.606 195.566 105.293 195.64 104.815 195.64C104.411 195.64 103.923 195.608 103.349 195.544C103.211 195.534 103.078 195.523 102.951 195.513C102.824 195.502 102.707 195.497 102.601 195.497C102.016 195.507 101.581 195.529 101.294 195.56C101.008 195.592 100.684 195.608 100.323 195.608C99.9933 195.608 99.8287 195.359 99.8287 194.859C99.8287 194.382 100.137 194.143 100.753 194.143C100.848 194.143 101.002 194.153 101.215 194.174C101.395 194.206 101.586 194.222 101.788 194.222C101.905 194.222 102.001 194.217 102.075 194.206C102.085 193.495 102.123 192.459 102.186 191.1C102.25 189.507 102.282 188.328 102.282 187.564C102.229 187.574 102.043 187.648 101.724 187.787C101.236 188.031 100.875 188.153 100.641 188.153C100.514 188.153 100.397 188.089 100.291 187.962C100.184 187.824 100.131 187.664 100.131 187.484C100.131 187.303 100.243 187.128 100.466 186.958C100.689 186.788 101.05 186.565 101.549 186.289C101.825 186.151 102.091 185.997 102.346 185.827C102.409 185.785 102.5 185.742 102.616 185.7C102.744 185.657 102.839 185.636 102.903 185.636C103.179 185.636 103.429 185.694 103.652 185.811C103.886 185.917 104.002 186.061 104.002 186.241L103.955 187.261ZM111.36 187.197C110.999 187.335 110.691 187.516 110.436 187.739C110.181 187.951 109.953 188.211 109.751 188.519L109.496 188.918C109.305 189.204 109.162 189.438 109.066 189.618C108.97 189.799 108.907 189.99 108.875 190.192C109.395 189.661 110.139 189.395 111.105 189.395C111.519 189.395 111.955 189.512 112.411 189.746C112.879 189.98 113.256 190.25 113.542 190.558C113.723 190.76 113.872 191.068 113.988 191.482C114.116 191.896 114.18 192.337 114.18 192.804C114.18 193.176 114.068 193.558 113.845 193.951C113.622 194.334 113.346 194.668 113.017 194.955C112.698 195.242 112.401 195.422 112.125 195.497C111.7 195.603 111.333 195.656 111.025 195.656C110.324 195.656 109.677 195.465 109.082 195.082C108.487 194.7 108.015 194.19 107.664 193.553C107.314 192.905 107.138 192.204 107.138 191.45C107.138 190.41 107.388 189.417 107.887 188.472C108.397 187.516 109.066 186.74 109.894 186.146C110.032 186.05 110.277 185.949 110.627 185.843C110.988 185.726 111.307 185.668 111.583 185.668C112.103 185.668 112.364 185.875 112.364 186.289C112.364 186.533 112.273 186.725 112.093 186.863C111.923 187.001 111.679 187.112 111.36 187.197ZM110.723 194.19C110.967 194.19 111.174 194.18 111.344 194.159C111.514 194.127 111.668 194.068 111.806 193.983C112.018 193.835 112.204 193.659 112.364 193.458C112.533 193.245 112.618 193.043 112.618 192.852C112.618 192.119 112.438 191.604 112.077 191.307C111.726 191.01 111.312 190.856 110.834 190.845C110.59 190.845 110.309 190.914 109.99 191.052C109.682 191.18 109.416 191.35 109.193 191.562C108.981 191.774 108.875 191.981 108.875 192.183C108.875 192.64 108.97 193.022 109.162 193.33C109.363 193.628 109.608 193.845 109.894 193.983C110.181 194.121 110.457 194.19 110.723 194.19Z" fill="#231F20"/>
<path d="M22.0691 165.16C22.0691 164.8 22.0691 164.56 22.0691 164.45V163.45C22.0691 163.17 22.0691 162.93 22.0691 162.73C22.0691 162.21 22.0691 161.73 22.0691 161.33C22.0548 161.166 22.0771 161.002 22.1341 160.848C22.1912 160.694 22.2817 160.555 22.3991 160.44C22.6367 160.243 22.9414 160.146 23.2491 160.17C23.4191 160.17 23.5491 160.28 23.6491 160.51C23.7451 160.727 23.7929 160.963 23.7891 161.2C23.7891 161.4 23.7891 161.82 23.6991 162.45C23.6091 163.08 23.5791 163.82 23.5791 164.25C23.5606 164.526 23.5606 164.804 23.5791 165.08C23.5791 165.21 23.5791 165.36 23.5791 165.54C23.5791 165.72 23.5791 165.92 23.5791 166.15C23.593 166.493 23.528 166.836 23.3891 167.15C23.3228 167.26 23.2263 167.349 23.111 167.405C22.9958 167.462 22.8667 167.485 22.7391 167.47C22.4444 167.447 22.1645 167.331 21.9391 167.14C21.5864 166.859 21.2524 166.555 20.9391 166.23L20.5691 165.84C20.3891 165.67 20.0891 165.35 19.6591 164.84C19.1176 164.197 18.5257 163.599 17.8891 163.05C17.4709 162.661 16.9294 162.431 16.3591 162.4C16.1961 162.396 16.035 162.435 15.8925 162.514C15.75 162.593 15.6314 162.709 15.5491 162.85C15.3394 163.168 15.2249 163.539 15.2191 163.92C15.1685 164.399 15.3046 164.879 15.5991 165.26C15.7544 165.404 15.9371 165.516 16.1364 165.588C16.3357 165.66 16.5474 165.691 16.7591 165.68C16.8302 165.688 16.8983 165.713 16.9575 165.753C17.0168 165.793 17.0654 165.847 17.0991 165.91C17.2032 166.067 17.2557 166.252 17.2491 166.44C17.2557 166.564 17.2285 166.687 17.1703 166.796C17.1122 166.905 17.0253 166.996 16.9191 167.06C16.6719 167.174 16.4013 167.229 16.1291 167.22C15.658 167.215 15.2027 167.05 14.8391 166.75C14.4508 166.421 14.1545 165.998 13.9791 165.52C13.7721 164.971 13.6737 164.387 13.6891 163.8C13.7367 163.317 13.8796 162.848 14.1096 162.421C14.3396 161.993 14.6522 161.616 15.0291 161.31C15.3572 161.004 15.7904 160.836 16.2391 160.84C16.8978 160.852 17.5422 161.034 18.1091 161.37C18.6787 161.693 19.2033 162.09 19.6691 162.55C20.1291 163 20.6691 163.55 21.2791 164.29C21.5591 164.64 21.8191 164.94 22.0691 165.21V165.16ZM18.6591 153.68C18.8729 153.098 19.2147 152.572 19.6591 152.14C20.0605 151.768 20.5916 151.567 21.1391 151.58C21.3399 151.589 21.5386 151.626 21.7291 151.69C21.9474 151.751 22.1536 151.849 22.3391 151.98C22.9016 152.414 23.3413 152.987 23.6148 153.643C23.8884 154.299 23.9863 155.015 23.8991 155.72C23.9324 156.549 23.7498 157.373 23.3691 158.11C23.2141 158.427 22.9692 158.69 22.665 158.868C22.3608 159.046 22.0109 159.13 21.6591 159.11C20.5891 159.11 19.6591 158.34 18.9391 156.85C18.4091 158.22 17.6491 158.9 16.6491 158.85C16.0959 158.857 15.558 158.669 15.1291 158.32C14.7077 157.956 14.3961 157.481 14.2291 156.95C14.0345 156.36 13.9431 155.741 13.9591 155.12C13.976 154.603 14.1021 154.095 14.3291 153.63C14.5046 153.203 14.8226 152.849 15.2291 152.63C15.5797 152.438 15.9696 152.328 16.3691 152.31C16.8062 152.314 17.2368 152.417 17.6291 152.61C18.0651 152.851 18.4358 153.194 18.7091 153.61L18.6591 153.68ZM14.1291 129.31C14.1246 129.244 14.1391 129.177 14.171 129.119C14.2029 129.06 14.2508 129.012 14.3091 128.98C14.428 128.903 14.5676 128.865 14.7091 128.87C14.936 128.881 15.1503 128.978 15.3091 129.14L16.0991 129.77C17.6591 131.01 18.9524 132.01 19.9791 132.77C21.0689 133.539 22.2007 134.247 23.3691 134.89C23.9991 135.23 24.3091 135.61 24.2991 136.04C24.2998 136.219 24.2438 136.394 24.1391 136.54C24.0783 136.618 23.9986 136.679 23.9076 136.718C23.8166 136.756 23.7173 136.771 23.6191 136.76C23.4713 136.764 23.3279 136.71 23.2191 136.61C22.7291 136.25 21.8091 135.61 20.4691 134.68C19.1291 133.75 18.1991 133.09 17.4091 132.52C16.6191 131.95 15.8991 131.39 15.2491 130.85L14.8591 130.53C14.6521 130.367 14.4731 130.171 14.3291 129.95C14.1955 129.749 14.1257 129.512 14.1291 129.27V129.31ZM14.1991 135.61C14.2004 135.263 14.2826 134.92 14.4391 134.61C14.5817 134.285 14.8014 134.001 15.0791 133.78C15.3332 133.574 15.6519 133.464 15.9791 133.47C16.4229 133.466 16.8603 133.576 17.2491 133.79C17.6153 133.986 17.9225 134.276 18.1391 134.63C18.3473 134.984 18.4513 135.39 18.4391 135.8C18.4476 136.095 18.3972 136.388 18.2907 136.663C18.1842 136.937 18.0239 137.188 17.8191 137.4C17.6099 137.6 17.3616 137.755 17.0897 137.855C16.8178 137.955 16.5282 137.998 16.2391 137.98C15.949 137.995 15.6594 137.943 15.3924 137.829C15.1254 137.715 14.8882 137.54 14.6991 137.32C14.3235 136.822 14.1454 136.202 14.1991 135.58V135.61ZM17.7591 142.27C17.9288 141.457 18.336 140.712 18.9291 140.13C19.1852 139.859 19.4958 139.644 19.8404 139.501C20.1851 139.358 20.5561 139.29 20.9291 139.3C21.3831 139.31 21.8285 139.426 22.2291 139.64C22.8858 139.978 23.413 140.523 23.7291 141.19C24.0723 141.921 24.2336 142.724 24.1991 143.53C24.1991 144.043 24.0829 144.549 23.8591 145.01C23.6275 145.466 23.3421 145.892 23.0091 146.28C22.8209 146.457 22.6002 146.597 22.3591 146.69C22.1443 146.796 21.9087 146.854 21.6691 146.86C21.5664 146.865 21.4638 146.849 21.3675 146.812C21.2713 146.776 21.1834 146.721 21.1091 146.65C21.0379 146.582 20.9829 146.5 20.9483 146.408C20.9137 146.316 20.9002 146.218 20.9091 146.12C20.8986 145.928 20.9591 145.74 21.0791 145.59C21.2348 145.425 21.4055 145.274 21.5891 145.14C21.7796 145.003 21.9601 144.853 22.1291 144.69C22.2827 144.531 22.4049 144.344 22.4891 144.14C22.5976 143.86 22.6486 143.56 22.6391 143.26C22.6891 142.659 22.5145 142.06 22.1491 141.58C21.9672 141.371 21.7406 141.206 21.4861 141.097C21.2316 140.988 20.9557 140.938 20.6791 140.95C20.5343 140.961 20.3932 141.002 20.2643 141.069C20.1355 141.136 20.0214 141.228 19.9291 141.34C19.7064 141.555 19.5206 141.805 19.3791 142.08C19.2725 142.323 19.1953 142.578 19.1491 142.84C19.0525 143.222 18.9185 143.594 18.7491 143.95C18.7008 144.063 18.6197 144.159 18.5162 144.225C18.4127 144.291 18.2917 144.324 18.1691 144.32C17.9681 144.303 17.78 144.214 17.6391 144.07C17.4077 143.84 17.1907 143.596 16.9891 143.34C16.7875 143.084 16.5704 142.84 16.3391 142.61C16.1981 142.466 16.01 142.377 15.8091 142.36C15.7438 142.659 15.7136 142.964 15.7191 143.27C15.7191 143.45 15.7191 143.72 15.7191 144.08C15.7323 144.327 15.7323 144.574 15.7191 144.82C15.7337 145.166 15.6615 145.509 15.5091 145.82C15.3791 146.09 15.2191 146.22 15.0091 146.22C14.8299 146.223 14.6514 146.199 14.4791 146.15C14.4208 146.133 14.368 146.101 14.326 146.057C14.2839 146.013 14.2539 145.959 14.2391 145.9C14.2167 145.768 14.2167 145.632 14.2391 145.5C14.2391 144.98 14.2391 144.5 14.3091 144.15C14.3791 143.8 14.3091 143.4 14.3591 143.15V141.83C14.3591 140.75 14.6391 140.21 15.1591 140.22C15.657 140.27 16.1228 140.489 16.4791 140.84C16.9785 141.255 17.4192 141.736 17.7891 142.27H17.7591ZM18.1491 155.37C17.9291 155.03 17.7591 154.76 17.6191 154.57C17.4756 154.38 17.2996 154.218 17.0991 154.09C16.8846 153.95 16.635 153.874 16.3791 153.87C16.2246 153.865 16.0711 153.896 15.9306 153.96C15.7901 154.024 15.6663 154.12 15.5691 154.24C15.3559 154.499 15.2393 154.824 15.2391 155.16C15.1724 155.726 15.3031 156.299 15.6091 156.78C15.7178 156.924 15.8581 157.042 16.0194 157.123C16.1806 157.205 16.3584 157.248 16.5391 157.25C16.6726 157.256 16.806 157.235 16.9314 157.189C17.0568 157.143 17.1716 157.072 17.2691 156.98C17.4654 156.799 17.625 156.582 17.7391 156.34C17.8966 156.016 18.0335 155.682 18.1491 155.34V155.37ZM17.2291 136.02C17.2291 135.25 16.8391 134.86 16.0191 134.85C15.9325 134.845 15.846 134.861 15.7674 134.898C15.6888 134.935 15.6206 134.99 15.5691 135.06C15.4622 135.267 15.4105 135.497 15.4191 135.73C15.4033 135.87 15.4175 136.012 15.4605 136.147C15.5036 136.281 15.5747 136.405 15.6691 136.51C15.7427 136.594 15.8334 136.662 15.9351 136.708C16.0368 136.755 16.1472 136.779 16.2591 136.78C16.5004 136.793 16.7385 136.719 16.9291 136.57C17.0214 136.511 17.0973 136.43 17.1497 136.334C17.2022 136.237 17.2295 136.13 17.2291 136.02ZM21.0391 153.31C20.925 153.322 20.8146 153.358 20.7149 153.415C20.6151 153.472 20.5281 153.548 20.4591 153.64C20.2408 153.881 20.0559 154.15 19.9091 154.44C19.7715 154.683 19.664 154.941 19.5891 155.21C19.765 155.64 19.9934 156.046 20.2691 156.42C20.4633 156.721 20.699 156.994 20.9691 157.23C21.0829 157.318 21.2072 157.392 21.3391 157.45C21.4544 157.492 21.5764 157.512 21.6991 157.51C21.7929 157.505 21.884 157.477 21.9642 157.428C22.0445 157.379 22.1114 157.311 22.1591 157.23C22.3111 157.027 22.4293 156.801 22.5091 156.56C22.5912 156.339 22.6384 156.106 22.6491 155.87C22.685 155.229 22.5394 154.592 22.2291 154.03C22.1114 153.816 21.9395 153.637 21.7306 153.51C21.5217 153.384 21.2832 153.315 21.0391 153.31ZM22.1491 128.02C22.5439 128.025 22.9279 128.15 23.2491 128.38C23.5717 128.621 23.8265 128.941 23.9891 129.31C24.1615 129.683 24.2469 130.09 24.2391 130.5C24.2354 130.852 24.1388 131.197 23.9591 131.5C23.7785 131.802 23.5238 132.054 23.2191 132.23C22.9143 132.403 22.5694 132.492 22.2191 132.49C21.8274 132.483 21.4445 132.372 21.1091 132.17C20.7612 131.962 20.4747 131.665 20.2791 131.31C20.0564 130.91 19.9491 130.457 19.9691 130C19.9557 129.725 20.0015 129.451 20.1033 129.196C20.2051 128.941 20.3605 128.71 20.5591 128.52C21.0253 128.166 21.6053 127.995 22.1891 128.04L22.1491 128.02ZM21.1491 130.12C21.128 130.39 21.2102 130.658 21.3791 130.87C21.5732 131.043 21.8204 131.145 22.0801 131.16C22.3398 131.174 22.5968 131.1 22.8091 130.95C22.8798 130.892 22.9383 130.821 22.9812 130.74C23.0241 130.659 23.0506 130.571 23.0591 130.48C23.0591 129.66 22.7091 129.24 21.9791 129.23C21.8685 129.224 21.758 129.242 21.6546 129.281C21.5513 129.321 21.4574 129.382 21.3791 129.46C21.2255 129.645 21.1439 129.88 21.1491 130.12ZM24.0491 149.86C24.0571 149.948 24.036 150.036 23.9891 150.11C23.911 150.238 23.8091 150.35 23.6891 150.44C23.5364 150.544 23.3532 150.593 23.1691 150.58C23.0233 150.564 22.8812 150.524 22.7491 150.46C22.6337 150.398 22.5423 150.3 22.4891 150.18C22.3782 149.904 22.337 149.605 22.3691 149.31C22.3671 149.191 22.3922 149.074 22.4424 148.967C22.4927 148.859 22.5668 148.765 22.6591 148.69C22.8509 148.535 23.093 148.457 23.3391 148.47C23.7234 148.488 24.099 148.59 24.4391 148.77C24.7936 148.916 25.1293 149.104 25.4391 149.33C25.5965 149.471 25.7344 149.632 25.8491 149.81C25.9478 149.944 26.0035 150.104 26.0091 150.27C26.0328 150.44 25.9898 150.612 25.8891 150.75C25.7603 150.829 25.6094 150.864 25.4591 150.85C25.3791 150.85 25.2491 150.73 25.0691 150.5C24.9664 150.38 24.8562 150.266 24.7391 150.16C24.5529 150.013 24.3477 149.892 24.1291 149.8L24.0491 149.86Z" fill="#231F20"/>
<path d="M85.4703 161.41C85.8531 161.507 86.2456 161.56 86.6403 161.57C86.9762 161.585 87.3105 161.625 87.6403 161.69C87.5237 161.408 87.4431 161.112 87.4003 160.81C87.3781 160.46 87.3781 160.11 87.4003 159.76C87.396 159.153 87.5624 158.557 87.8803 158.04C88.1809 157.569 88.6068 157.192 89.1103 156.95C89.6142 156.705 90.17 156.585 90.7303 156.6C91.0416 156.622 91.3464 156.7 91.6303 156.83C91.9362 156.953 92.2253 157.114 92.4903 157.31C92.9471 157.662 93.3224 158.109 93.5903 158.62C93.8406 159.115 93.9643 159.665 93.9503 160.22C93.9499 160.622 93.8823 161.021 93.7503 161.4C93.6026 161.788 93.4289 162.166 93.2303 162.53C93.0559 162.871 92.8144 163.174 92.5203 163.42C92.2549 163.607 91.9343 163.698 91.6103 163.68C91.5191 163.679 91.4295 163.656 91.3493 163.612C91.2691 163.569 91.2008 163.506 91.1503 163.43C91.0437 163.295 90.9809 163.131 90.9703 162.96C90.9695 162.866 91.0013 162.774 91.0603 162.7C91.1607 162.575 91.2675 162.454 91.3803 162.34L91.7703 161.95C91.9712 161.727 92.1365 161.474 92.2603 161.2C92.3523 160.913 92.3896 160.611 92.3703 160.31C92.3799 160.038 92.3392 159.767 92.2503 159.51C92.133 159.134 91.9273 158.791 91.6503 158.51C91.2998 158.248 90.8669 158.12 90.4303 158.15C90.1913 158.133 89.9516 158.17 89.7296 158.261C89.5076 158.351 89.3094 158.491 89.1503 158.67C88.7866 159.204 88.6171 159.846 88.6703 160.49C88.6748 160.663 88.7017 160.834 88.7503 161C88.8103 161.23 88.8803 161.45 88.9503 161.66C89.0606 161.965 89.141 162.28 89.1903 162.6C89.1803 162.769 89.1093 162.929 88.9903 163.05C88.9255 163.12 88.8463 163.175 88.7583 163.211C88.6703 163.247 88.5754 163.264 88.4803 163.26C87.4232 163.07 86.3537 162.957 85.2803 162.92H84.8803H84.4003C84.3046 162.917 84.2121 162.885 84.1352 162.827C84.0584 162.77 84.0008 162.691 83.9703 162.6C83.8743 162.397 83.8264 162.175 83.8303 161.95C83.8303 161.76 83.8303 161.35 83.9503 160.71L84.0303 159.95C84.0375 159.807 84.0375 159.663 84.0303 159.52V158.93C84.0201 158.76 84.0201 158.59 84.0303 158.42C84.0208 158.149 84.072 157.879 84.1803 157.63C84.216 157.535 84.2807 157.455 84.3651 157.399C84.4495 157.343 84.5493 157.316 84.6503 157.32C84.899 157.3 85.1478 157.359 85.3603 157.49C85.425 157.528 85.479 157.582 85.5174 157.647C85.5558 157.712 85.5775 157.785 85.5803 157.86C85.5684 158.071 85.545 158.281 85.5103 158.49C85.4561 158.951 85.4261 159.415 85.4203 159.88C85.4203 160.25 85.4203 160.74 85.4203 161.36L85.4703 161.41ZM88.7403 150.05C88.9517 149.467 89.2937 148.94 89.7403 148.51C90.1407 148.135 90.6716 147.93 91.2203 147.94C91.4222 147.948 91.6214 147.988 91.8103 148.06C92.0292 148.12 92.2357 148.218 92.4203 148.35C92.9835 148.781 93.4239 149.353 93.6976 150.007C93.9713 150.661 94.0688 151.376 93.9803 152.08C93.9889 152.918 93.7823 153.745 93.3803 154.48C93.2196 154.794 92.9721 155.055 92.6671 155.233C92.3622 155.41 92.0127 155.496 91.6603 155.48C90.5903 155.48 89.6603 154.7 88.9503 153.22C88.4103 154.59 87.6503 155.22 86.6503 155.22C86.0952 155.229 85.5556 155.037 85.1303 154.68C84.7105 154.318 84.399 153.848 84.2303 153.32C84.0357 152.73 83.9444 152.111 83.9603 151.49C83.976 150.973 84.1022 150.465 84.3303 150C84.5058 149.573 84.8238 149.219 85.2303 149C85.5829 148.83 85.969 148.742 86.3603 148.74C86.7975 148.744 87.2281 148.847 87.6203 149.04C88.0578 149.279 88.4289 149.622 88.7003 150.04L88.7403 150.05ZM84.2003 126.41C84.1958 126.344 84.2104 126.277 84.2422 126.219C84.2741 126.16 84.322 126.112 84.3803 126.08C84.5001 126.006 84.6398 125.971 84.7803 125.98C85.005 125.992 85.2179 126.084 85.3803 126.24L86.1603 126.88C87.7203 128.11 89.0203 129.11 90.0503 129.88C91.1337 130.672 92.2623 131.4 93.4303 132.06C94.0603 132.4 94.4303 132.78 94.3703 133.2C94.3642 133.381 94.3089 133.558 94.2103 133.71C94.0925 133.834 93.9325 133.909 93.762 133.92C93.5916 133.931 93.4232 133.877 93.2903 133.77C92.8003 133.41 91.8803 132.77 90.5403 131.85C89.2003 130.93 88.2703 130.25 87.4803 129.68C86.6903 129.11 85.9703 128.55 85.3203 128.01L84.9203 127.69C84.7143 127.533 84.5382 127.34 84.4003 127.12C84.261 126.918 84.1909 126.676 84.2003 126.43V126.41ZM84.9503 136.03C85.5999 136.178 86.2408 136.362 86.8703 136.58C87.5003 136.8 88.2303 137.07 89.0503 137.41C90.1952 137.871 91.3634 138.272 92.5503 138.61C93.0033 138.738 93.4397 138.92 93.8503 139.15C93.9589 139.201 94.0522 139.279 94.1206 139.378C94.1891 139.476 94.2304 139.591 94.2403 139.71C94.2029 139.963 94.0916 140.2 93.9203 140.39C93.8023 140.469 93.662 140.507 93.5203 140.5C93.3132 140.477 93.1089 140.433 92.9103 140.37L92.0203 140.09L91.4503 139.89C90.8241 139.677 90.2099 139.43 89.6103 139.15C89.0203 138.9 88.4503 138.67 87.9103 138.46C87.3703 138.25 86.7003 138.05 85.9103 137.85C86.0692 138.382 86.1467 138.935 86.1403 139.49C86.1185 139.896 86.0717 140.3 86.0003 140.7C85.946 141.031 85.9093 141.365 85.8903 141.7C86.2013 141.663 86.5068 141.589 86.8003 141.48C87.1171 141.341 87.4552 141.256 87.8003 141.23C87.8661 141.228 87.9315 141.24 87.992 141.266C88.0524 141.292 88.1065 141.331 88.1503 141.38C88.2041 141.443 88.2443 141.516 88.2684 141.595C88.2925 141.675 88.2999 141.758 88.2903 141.84C88.295 141.959 88.2722 142.078 88.2237 142.188C88.1751 142.297 88.1021 142.394 88.0103 142.47C87.826 142.615 87.6202 142.729 87.4003 142.81C87.24 142.864 87.083 142.927 86.9303 143C86.5841 143.141 86.226 143.252 85.8603 143.33C85.5321 143.404 85.1967 143.441 84.8603 143.44C84.7012 143.439 84.5467 143.387 84.4203 143.29C84.3646 143.259 84.3179 143.214 84.2846 143.16C84.2513 143.106 84.2326 143.044 84.2303 142.98C84.2303 142.82 84.3003 142.58 84.3703 142.27C84.4703 141.76 84.5403 141.33 84.5903 140.99C84.6507 140.623 84.6841 140.252 84.6903 139.88C84.7475 139.103 84.5809 138.326 84.2103 137.64C84.1628 137.537 84.1454 137.423 84.1603 137.31C84.1633 137.021 84.2353 136.736 84.3703 136.48C84.5103 136.21 84.6703 136.08 84.8603 136.08L84.9503 136.03ZM84.2603 132.72C84.2707 132.374 84.3524 132.033 84.5003 131.72C84.6475 131.395 84.8704 131.111 85.1503 130.89C85.4026 130.68 85.7218 130.566 86.0503 130.57C86.4944 130.574 86.9307 130.687 87.3203 130.9C87.6868 131.095 87.9942 131.385 88.2103 131.74C88.4211 132.093 88.5253 132.499 88.5103 132.91C88.5189 133.205 88.4684 133.498 88.3619 133.773C88.2555 134.047 88.0951 134.298 87.8903 134.51C87.6787 134.706 87.4297 134.858 87.1583 134.956C86.8868 135.054 86.5984 135.096 86.3103 135.08C86.0211 135.096 85.7322 135.045 85.4654 134.932C85.1986 134.82 84.9609 134.648 84.7703 134.43C84.3986 133.929 84.2178 133.312 84.2603 132.69V132.72ZM88.2603 151.72C88.0403 151.37 87.8703 151.11 87.7303 150.92C87.5847 150.73 87.4091 150.564 87.2103 150.43C86.9969 150.289 86.746 150.216 86.4903 150.22C86.3376 150.216 86.186 150.248 86.0473 150.312C85.9087 150.376 85.7865 150.471 85.6903 150.59C85.4689 150.845 85.3481 151.172 85.3503 151.51C85.2861 152.076 85.4166 152.648 85.7203 153.13C85.8305 153.273 85.9712 153.389 86.1321 153.47C86.293 153.552 86.4701 153.596 86.6503 153.6C86.7836 153.602 86.9159 153.578 87.0396 153.528C87.1632 153.478 87.2757 153.404 87.3703 153.31C87.5685 153.134 87.7285 152.92 87.8403 152.68C87.9959 152.355 88.1328 152.021 88.2503 151.68L88.2603 151.72ZM87.3303 133.14C87.3303 132.38 86.9403 131.99 86.1203 131.98C86.0343 131.971 85.9474 131.984 85.8684 132.019C85.7893 132.055 85.721 132.11 85.6703 132.18C85.5542 132.387 85.502 132.624 85.5203 132.86C85.506 132.999 85.5208 133.139 85.5639 133.271C85.607 133.404 85.6773 133.526 85.7703 133.63C85.845 133.714 85.9356 133.782 86.037 133.83C86.1383 133.878 86.2482 133.905 86.3603 133.91C86.5969 133.911 86.8277 133.837 87.0203 133.7C87.1128 133.638 87.1891 133.555 87.2431 133.458C87.297 133.36 87.3269 133.251 87.3303 133.14ZM91.1503 149.65C91.0359 149.661 90.9251 149.697 90.8252 149.753C90.7253 149.81 90.6384 149.887 90.5703 149.98C90.3521 150.217 90.1671 150.483 90.0203 150.77C89.884 151.017 89.7767 151.279 89.7003 151.55C89.8783 151.981 90.1101 152.387 90.3903 152.76C90.5751 153.063 90.8082 153.333 91.0803 153.56C91.1943 153.651 91.3185 153.728 91.4503 153.79C91.5656 153.832 91.6876 153.852 91.8103 153.85C91.9035 153.842 91.9936 153.813 92.0735 153.765C92.1533 153.716 92.2208 153.649 92.2703 153.57C92.4204 153.362 92.5383 153.133 92.6203 152.89C92.7032 152.672 92.7504 152.443 92.7603 152.21C92.7984 151.569 92.6527 150.931 92.3403 150.37C92.2227 150.156 92.0507 149.977 91.8418 149.85C91.6329 149.724 91.3944 149.655 91.1503 149.65ZM92.2503 125.14C92.6452 125.145 93.0291 125.27 93.3503 125.5C93.6719 125.738 93.9267 126.055 94.0903 126.42C94.2571 126.794 94.3423 127.2 94.3403 127.61C94.3365 127.957 94.2422 128.298 94.0669 128.598C93.8915 128.897 93.6411 129.146 93.3403 129.32C93.0366 129.495 92.691 129.585 92.3403 129.58C91.9396 129.575 91.5477 129.463 91.2048 129.255C90.862 129.048 90.5808 128.753 90.3903 128.4C90.1731 127.999 90.0694 127.546 90.0903 127.09C90.0764 126.817 90.122 126.544 90.2239 126.29C90.3257 126.036 90.4815 125.808 90.6803 125.62C91.1447 125.262 91.7261 125.091 92.3103 125.14H92.2503ZM91.2503 127.24C91.229 127.505 91.3074 127.769 91.4703 127.98C91.5676 128.079 91.6845 128.157 91.8137 128.209C91.9428 128.261 92.0813 128.285 92.2203 128.28C92.4697 128.295 92.7159 128.217 92.9103 128.06C92.9824 128.004 93.0413 127.933 93.0828 127.852C93.1243 127.771 93.1473 127.681 93.1503 127.59C93.1503 126.77 92.8103 126.36 92.0803 126.35C91.9704 126.342 91.8599 126.357 91.7564 126.395C91.6529 126.433 91.5587 126.493 91.4803 126.57C91.3192 126.755 91.2367 126.995 91.2503 127.24ZM94.1703 146.24C94.1694 146.328 94.1452 146.414 94.1003 146.49C94.0222 146.618 93.9204 146.73 93.8003 146.82C93.6464 146.92 93.4633 146.966 93.2803 146.95C93.1328 146.944 92.9889 146.902 92.8603 146.83C92.7436 146.775 92.6512 146.679 92.6003 146.56C92.4786 146.29 92.4237 145.995 92.4403 145.7C92.4376 145.581 92.4623 145.464 92.5126 145.356C92.5629 145.248 92.6374 145.154 92.7303 145.08C92.9207 144.922 93.163 144.84 93.4103 144.85C93.7932 144.876 94.1671 144.978 94.5103 145.15C94.8674 145.295 95.2037 145.487 95.5103 145.72C95.6653 145.86 95.8029 146.018 95.9203 146.19C96.019 146.324 96.0748 146.484 96.0803 146.65C96.0803 146.91 96.0403 147.07 95.9603 147.13C95.8315 147.209 95.6807 147.244 95.5303 147.23C95.4503 147.23 95.3203 147.12 95.1403 146.89C95.0405 146.767 94.9301 146.653 94.8103 146.55C94.6241 146.403 94.4189 146.282 94.2003 146.19L94.1703 146.24Z" fill="#231F20"/>
<path d="M117.809 156.24C118.458 156.391 119.099 156.574 119.729 156.79C120.359 157.01 121.089 157.29 121.909 157.62C123.053 158.085 124.222 158.489 125.409 158.83C125.86 158.96 126.296 159.138 126.709 159.36C126.818 159.409 126.911 159.488 126.978 159.587C127.045 159.685 127.083 159.801 127.089 159.92C127.057 160.173 126.949 160.41 126.779 160.6C126.663 160.682 126.521 160.721 126.379 160.71C126.173 160.687 125.969 160.647 125.769 160.59L124.869 160.3L124.299 160.1C123.677 159.884 123.066 159.637 122.469 159.36C121.876 159.113 121.306 158.883 120.759 158.67C120.209 158.47 119.559 158.26 118.759 158.06C118.915 158.592 118.989 159.145 118.979 159.7C118.962 160.106 118.918 160.51 118.849 160.91C118.79 161.24 118.753 161.575 118.739 161.91C119.05 161.873 119.355 161.799 119.649 161.69C119.967 161.555 120.305 161.471 120.649 161.44C120.715 161.439 120.78 161.452 120.84 161.478C120.9 161.504 120.954 161.542 120.999 161.59C121.05 161.654 121.088 161.728 121.11 161.807C121.132 161.886 121.139 161.969 121.129 162.05C121.137 162.169 121.117 162.288 121.07 162.398C121.023 162.507 120.951 162.604 120.859 162.68C120.673 162.822 120.468 162.937 120.249 163.02C120.019 163.1 119.859 163.17 119.769 163.21C119.426 163.351 119.072 163.462 118.709 163.54C118.381 163.613 118.045 163.65 117.709 163.65C117.548 163.652 117.391 163.603 117.259 163.51C117.206 163.474 117.162 163.427 117.131 163.371C117.1 163.316 117.082 163.254 117.079 163.19C117.079 163.03 117.149 162.8 117.219 162.48C117.309 161.97 117.389 161.54 117.439 161.2C117.491 160.835 117.521 160.468 117.529 160.1C117.594 159.323 117.431 158.545 117.059 157.86C117.014 157.753 116.993 157.636 116.999 157.52C117.011 157.234 117.086 156.954 117.219 156.7C117.349 156.42 117.519 156.29 117.709 156.29L117.809 156.24ZM117.629 152.11C118.24 152.139 118.844 152.243 119.429 152.42C120.109 152.62 120.949 152.9 121.939 153.27L123.029 153.66C123.064 153.475 123.084 153.288 123.089 153.1C123.089 152.77 123.089 152.28 123.019 151.62C122.949 150.96 122.939 150.49 122.949 150.2H121.199H118.519C117.769 150.2 117.389 149.93 117.399 149.43C117.409 148.93 117.519 148.79 117.719 148.68C118.005 148.555 118.318 148.503 118.629 148.53C119.039 148.53 119.689 148.58 120.549 148.66L121.399 148.72C121.789 148.72 122.129 148.77 122.399 148.77H122.909V148.45C122.909 148.2 122.909 148 122.909 147.86C122.92 147.599 123.01 147.348 123.169 147.14C123.23 147.038 123.317 146.953 123.42 146.893C123.523 146.834 123.64 146.802 123.759 146.8C123.974 146.787 124.188 146.831 124.379 146.93C124.529 147.01 124.599 147.1 124.599 147.21C124.587 147.438 124.56 147.665 124.519 147.89C124.526 147.987 124.526 148.083 124.519 148.18C124.51 148.3 124.51 148.42 124.519 148.54V148.82H126.669C126.766 148.813 126.864 148.831 126.953 148.871C127.042 148.911 127.12 148.972 127.179 149.05C127.289 149.197 127.349 149.376 127.349 149.56C127.342 149.788 127.257 150.007 127.109 150.18C127.042 150.263 126.956 150.33 126.859 150.375C126.762 150.42 126.656 150.442 126.549 150.44C125.839 150.44 125.279 150.44 124.879 150.38H124.529C124.52 150.931 124.547 151.482 124.609 152.03C124.672 152.591 124.706 153.155 124.709 153.72C124.71 154.144 124.632 154.564 124.479 154.96C124.436 155.102 124.349 155.226 124.23 155.314C124.111 155.402 123.967 155.45 123.819 155.45C123.479 155.426 123.142 155.359 122.819 155.25C122.409 155.13 121.819 154.94 121.159 154.7C120.879 154.59 120.659 154.5 120.479 154.45C119.939 154.25 119.479 154.09 119.109 153.99L117.739 153.65C117.66 153.631 117.586 153.596 117.521 153.548C117.456 153.5 117.401 153.44 117.359 153.37C117.279 153.223 117.238 153.058 117.239 152.89C117.239 152.711 117.287 152.534 117.379 152.38C117.415 152.313 117.469 152.256 117.534 152.216C117.598 152.176 117.673 152.153 117.749 152.15L117.629 152.11ZM117.429 124.91C117.428 124.843 117.444 124.776 117.476 124.717C117.507 124.658 117.553 124.607 117.609 124.57C117.731 124.501 117.869 124.466 118.009 124.47C118.235 124.478 118.449 124.571 118.609 124.73L119.399 125.37C120.959 126.61 122.252 127.61 123.279 128.37C124.367 129.159 125.499 129.887 126.669 130.55C127.299 130.89 127.609 131.27 127.599 131.7C127.604 131.88 127.548 132.056 127.439 132.2C127.379 132.279 127.299 132.34 127.208 132.379C127.117 132.417 127.017 132.432 126.919 132.42C126.776 132.417 126.638 132.364 126.529 132.27C126.029 131.91 125.119 131.27 123.769 130.34C122.419 129.41 121.499 128.75 120.709 128.18C119.919 127.61 119.199 127.05 118.549 126.51L118.159 126.19C117.952 126.029 117.776 125.833 117.639 125.61C117.502 125.41 117.429 125.173 117.429 124.93V124.91ZM125.739 139.62C125.739 139.26 125.739 139.03 125.739 138.91C125.739 138.55 125.739 138.23 125.739 137.91C125.739 137.59 125.739 137.39 125.739 137.19C125.739 136.67 125.739 136.19 125.739 135.79C125.727 135.627 125.75 135.463 125.807 135.309C125.864 135.155 125.953 135.016 126.069 134.9C126.307 134.703 126.611 134.606 126.919 134.63C127.089 134.63 127.219 134.75 127.319 134.97C127.413 135.188 127.461 135.423 127.459 135.66C127.459 135.86 127.429 136.28 127.369 136.92C127.299 137.68 127.249 138.28 127.249 138.71C127.23 138.986 127.23 139.264 127.249 139.54C127.249 139.67 127.249 139.82 127.249 140C127.249 140.18 127.249 140.39 127.249 140.61C127.264 140.954 127.199 141.296 127.059 141.61C126.995 141.722 126.899 141.812 126.783 141.869C126.667 141.926 126.537 141.947 126.409 141.93C126.112 141.916 125.829 141.8 125.609 141.6C125.257 141.318 124.923 141.015 124.609 140.69L124.369 140.31C124.189 140.14 123.889 139.82 123.459 139.31C122.918 138.67 122.33 138.072 121.699 137.52C121.273 137.136 120.731 136.907 120.159 136.87C119.996 136.866 119.835 136.905 119.693 136.984C119.55 137.063 119.431 137.179 119.349 137.32C119.139 137.638 119.025 138.009 119.019 138.39C118.968 138.869 119.105 139.349 119.399 139.73C119.555 139.877 119.739 139.991 119.94 140.064C120.141 140.138 120.355 140.171 120.569 140.16C120.639 140.164 120.706 140.186 120.764 140.225C120.822 140.264 120.869 140.317 120.899 140.38C121.003 140.537 121.056 140.722 121.049 140.91C121.057 141.034 121.03 141.157 120.972 141.267C120.914 141.376 120.826 141.467 120.719 141.53C120.473 141.649 120.202 141.704 119.929 141.69C119.457 141.69 119 141.524 118.639 141.22C118.253 140.889 117.957 140.466 117.779 139.99C117.572 139.441 117.474 138.857 117.489 138.27C117.51 137.788 117.629 137.315 117.839 136.88C118.053 136.425 118.359 136.019 118.739 135.69C119.07 135.389 119.501 135.222 119.949 135.22C120.607 135.236 121.25 135.419 121.819 135.75C122.39 136.075 122.918 136.472 123.389 136.93C123.839 137.38 124.389 137.93 124.989 138.67C125.269 139.02 125.529 139.32 125.779 139.59L125.739 139.62ZM117.499 131.21C117.5 130.863 117.583 130.52 117.739 130.21C117.885 129.888 118.104 129.603 118.379 129.38C118.638 129.175 118.959 129.062 119.289 129.06C119.733 129.065 120.169 129.178 120.559 129.39C120.92 129.589 121.224 129.878 121.439 130.23C121.646 130.585 121.753 130.989 121.749 131.4C121.756 131.695 121.703 131.989 121.595 132.263C121.487 132.538 121.325 132.789 121.119 133C120.91 133.201 120.662 133.356 120.39 133.456C120.118 133.556 119.828 133.598 119.539 133.58C119.249 133.595 118.959 133.543 118.692 133.429C118.425 133.314 118.188 133.14 117.999 132.92C117.623 132.422 117.445 131.802 117.499 131.18V131.21ZM120.499 131.62C120.499 130.85 120.109 130.46 119.299 130.45C119.212 130.442 119.125 130.457 119.045 130.494C118.966 130.531 118.899 130.588 118.849 130.66C118.734 130.864 118.678 131.096 118.689 131.33C118.668 131.613 118.757 131.892 118.939 132.11C119.013 132.194 119.103 132.262 119.205 132.308C119.307 132.355 119.417 132.379 119.529 132.38C119.77 132.387 120.006 132.313 120.199 132.17C120.291 132.11 120.366 132.029 120.418 131.933C120.471 131.837 120.499 131.729 120.499 131.62ZM125.419 123.62C125.814 123.625 126.198 123.75 126.519 123.98C126.841 124.217 127.096 124.534 127.259 124.9C127.436 125.275 127.522 125.686 127.509 126.1C127.509 126.453 127.412 126.799 127.229 127.1C127.05 127.411 126.789 127.668 126.476 127.844C126.163 128.02 125.808 128.109 125.449 128.1C125.061 128.09 124.682 127.979 124.349 127.78C123.996 127.575 123.705 127.278 123.509 126.92C123.294 126.514 123.188 126.059 123.199 125.6C123.188 125.326 123.237 125.054 123.34 124.8C123.443 124.547 123.6 124.318 123.799 124.13C124.26 123.774 124.838 123.603 125.419 123.65V123.62ZM124.419 125.72C124.403 125.99 124.484 126.256 124.649 126.47C124.743 126.571 124.858 126.649 124.986 126.699C125.114 126.749 125.252 126.77 125.389 126.76C125.637 126.778 125.883 126.703 126.079 126.55C126.223 126.429 126.312 126.257 126.329 126.07C126.329 125.26 125.979 124.84 125.249 124.83C125.14 124.824 125.031 124.842 124.929 124.882C124.828 124.921 124.735 124.982 124.659 125.06C124.502 125.244 124.417 125.478 124.419 125.72ZM127.369 145.15C127.378 145.239 127.353 145.328 127.299 145.4C127.227 145.532 127.124 145.646 126.999 145.73C126.846 145.833 126.662 145.879 126.479 145.86C126.333 145.852 126.19 145.815 126.059 145.75C125.947 145.688 125.858 145.589 125.809 145.47C125.682 145.202 125.626 144.906 125.649 144.61C125.646 144.491 125.671 144.374 125.721 144.266C125.772 144.158 125.846 144.064 125.939 143.99C126.129 143.832 126.372 143.75 126.619 143.76C127.002 143.789 127.375 143.891 127.719 144.06C128.073 144.211 128.408 144.403 128.719 144.63C128.873 144.771 129.008 144.933 129.119 145.11C129.219 145.24 129.279 145.396 129.289 145.56C129.312 145.734 129.265 145.91 129.159 146.05C129.033 146.127 128.885 146.158 128.739 146.14C128.649 146.14 128.519 146.03 128.349 145.8C128.089 145.476 127.742 145.233 127.349 145.1L127.369 145.15Z" fill="#231F20"/>
<path d="M52.6395 159.52C52.8172 158.707 53.2231 157.961 53.8095 157.37C54.0671 157.101 54.378 156.888 54.7223 156.745C55.0666 156.602 55.4368 156.532 55.8095 156.54C56.2642 156.553 56.7095 156.673 57.1095 156.89C57.7697 157.218 58.2986 157.761 58.6095 158.43C58.9527 159.161 59.114 159.963 59.0795 160.77C59.0799 161.282 58.9672 161.787 58.7495 162.25C58.5144 162.709 58.2258 163.139 57.8895 163.53C57.7002 163.706 57.4797 163.845 57.2395 163.94C57.0252 164.038 56.7947 164.096 56.5595 164.11C56.3506 164.11 56.1485 164.035 55.9895 163.9C55.9208 163.829 55.8675 163.744 55.8331 163.651C55.7987 163.558 55.7839 163.459 55.7895 163.36C55.7796 163.172 55.8402 162.986 55.9595 162.84C56.1123 162.672 56.2834 162.521 56.4695 162.39C56.6638 162.25 56.8476 162.097 57.0195 161.93C57.1686 161.769 57.2873 161.583 57.3695 161.38C57.4769 161.103 57.5312 160.807 57.5295 160.51C57.571 159.908 57.3934 159.311 57.0295 158.83C56.8477 158.621 56.621 158.456 56.3665 158.347C56.112 158.238 55.8361 158.188 55.5595 158.2C55.4144 158.205 55.2721 158.242 55.1426 158.307C55.0131 158.373 54.8994 158.466 54.8095 158.58C54.3927 158.981 54.1187 159.508 54.0295 160.08C53.9303 160.463 53.7999 160.838 53.6395 161.2C53.588 161.312 53.5044 161.406 53.3993 161.47C53.2942 161.534 53.1724 161.565 53.0495 161.56C52.9489 161.556 52.8501 161.532 52.759 161.489C52.668 161.446 52.5865 161.385 52.5195 161.31C52.2877 161.084 52.0706 160.844 51.8695 160.59C51.6735 160.329 51.4561 160.085 51.2195 159.86C51.1524 159.785 51.071 159.724 50.9799 159.681C50.8888 159.638 50.7901 159.614 50.6895 159.61C50.6286 159.909 50.5984 160.214 50.5995 160.52C50.5995 160.7 50.5995 160.97 50.5995 161.33C50.5995 161.69 50.5995 161.89 50.5995 162.06C50.6021 162.405 50.5304 162.746 50.3895 163.06C50.2495 163.33 50.0895 163.46 49.8895 163.45C49.7068 163.457 49.5242 163.434 49.3495 163.38C49.2915 163.365 49.2385 163.335 49.1963 163.293C49.154 163.251 49.124 163.198 49.1095 163.14C49.0885 163.007 49.0885 162.872 49.1095 162.74C49.1095 162.22 49.1095 161.74 49.1795 161.39C49.2495 161.04 49.1795 160.64 49.1795 160.39V159.06C49.1795 157.98 49.4695 157.44 49.9895 157.45C50.4851 157.508 50.9484 157.726 51.3095 158.07C51.8033 158.492 52.2403 158.976 52.6095 159.51L52.6395 159.52ZM50.7195 150.82C50.8398 151.157 51.0155 151.471 51.2395 151.75C51.4633 152.021 51.7262 152.257 52.0195 152.45L52.4095 152.71C52.6309 152.87 52.8613 153.017 53.0995 153.15C53.2759 153.25 53.469 153.318 53.6695 153.35C53.2505 152.868 52.9895 152.27 52.9215 151.635C52.8536 151 52.982 150.36 53.2895 149.8C53.5004 149.388 53.7813 149.016 54.1195 148.7C54.3911 148.483 54.7095 148.333 55.0495 148.26C55.4822 148.14 55.9306 148.086 56.3795 148.1C56.7809 148.112 57.1714 148.233 57.5095 148.45C57.8841 148.677 58.2214 148.96 58.5095 149.29C58.7497 149.55 58.9275 149.861 59.0295 150.2C59.123 150.559 59.17 150.929 59.1695 151.3C59.1637 151.99 58.9512 152.662 58.5595 153.23C58.1679 153.82 57.6305 154.299 56.9995 154.62C56.352 154.958 55.6296 155.126 54.8995 155.11C53.8475 155.095 52.8162 154.816 51.8995 154.3C50.9947 153.819 50.2142 153.134 49.6195 152.3C49.4785 152.072 49.3771 151.822 49.3195 151.56C49.2132 151.238 49.1625 150.899 49.1695 150.56C49.1695 150.04 49.3895 149.78 49.7995 149.79C49.9095 149.784 50.0192 149.805 50.1188 149.852C50.2184 149.9 50.3045 149.971 50.3695 150.06C50.5265 150.285 50.6354 150.541 50.6895 150.81L50.7195 150.82ZM49.3695 126.03C49.365 125.964 49.3795 125.897 49.4114 125.839C49.4433 125.78 49.4912 125.732 49.5495 125.7C49.6684 125.623 49.808 125.585 49.9495 125.59C50.1764 125.601 50.3907 125.697 50.5495 125.86L51.3395 126.49C52.8995 127.73 54.1928 128.73 55.2195 129.49C56.3079 130.279 57.4396 131.007 58.6095 131.67C59.2395 132.01 59.5495 132.39 59.5395 132.82C59.5315 132.996 59.4725 133.167 59.3695 133.31C59.3065 133.385 59.2261 133.443 59.1355 133.479C59.0449 133.516 58.9467 133.53 58.8495 133.52C58.7017 133.524 58.5583 133.47 58.4495 133.37C57.9595 133.01 57.0395 132.37 55.6995 131.44C54.3595 130.51 53.4295 129.85 52.6395 129.28C51.8495 128.71 51.1295 128.15 50.4795 127.61L50.0895 127.29C49.8851 127.128 49.7064 126.936 49.5595 126.72C49.4267 126.515 49.3572 126.275 49.3595 126.03H49.3695ZM57.7795 140.4C57.6608 139.995 57.4523 139.623 57.1695 139.31C56.8756 138.98 56.5393 138.691 56.1695 138.45C55.8298 138.233 55.4482 138.09 55.0495 138.03C55.2468 138.305 55.3925 138.613 55.4795 138.94C55.5653 139.29 55.6023 139.65 55.5895 140.01C55.599 140.471 55.496 140.928 55.2895 141.34C55.0616 141.738 54.7862 142.108 54.4695 142.44C54.3404 142.541 54.1949 142.619 54.0395 142.67C53.7759 142.782 53.501 142.866 53.2195 142.92C52.8904 142.986 52.5551 143.016 52.2195 143.01C51.8664 142.994 51.5228 142.891 51.2195 142.71C50.883 142.511 50.5794 142.262 50.3195 141.97C50.0822 141.721 49.8894 141.434 49.7495 141.12C49.6381 140.841 49.5511 140.554 49.4895 140.26C49.42 139.992 49.383 139.717 49.3795 139.44C49.3679 138.767 49.5634 138.108 49.9395 137.55C50.2997 137.055 50.7967 136.676 51.3695 136.46C52.0075 136.218 52.6875 136.106 53.3695 136.13C54.5319 136.134 55.6742 136.434 56.6895 137C57.6166 137.501 58.4065 138.222 58.9895 139.1C59.2675 139.6 59.4218 140.159 59.4395 140.73C59.4321 140.838 59.4014 140.943 59.3497 141.038C59.2979 141.133 59.2262 141.215 59.1395 141.28C58.9543 141.434 58.72 141.515 58.4795 141.51C58.4107 141.512 58.3426 141.496 58.2815 141.465C58.2203 141.433 58.168 141.387 58.1295 141.33C58.035 141.146 57.9644 140.951 57.9195 140.75L57.8295 140.4H57.7795ZM49.4395 132.31C49.4408 131.963 49.523 131.62 49.6795 131.31C49.8199 130.987 50.0401 130.705 50.3195 130.49C50.5704 130.277 50.8905 130.163 51.2195 130.17C51.6633 130.166 52.1007 130.276 52.4895 130.49C52.8557 130.686 53.163 130.976 53.3795 131.33C53.5877 131.684 53.6917 132.09 53.6795 132.5C53.688 132.795 53.6376 133.088 53.5311 133.363C53.4246 133.637 53.2643 133.888 53.0595 134.1C52.8504 134.3 52.602 134.455 52.3301 134.555C52.0582 134.655 51.7686 134.697 51.4795 134.68C51.1894 134.695 50.8998 134.643 50.6328 134.529C50.3658 134.414 50.1286 134.24 49.9395 134.02C49.5654 133.525 49.3874 132.909 49.4395 132.29V132.31ZM52.4395 132.71C52.4395 131.94 52.0495 131.56 51.2295 131.54C51.1442 131.534 51.0587 131.55 50.9815 131.586C50.9043 131.623 50.8381 131.68 50.7895 131.75C50.6739 131.954 50.6185 132.186 50.6295 132.42C50.6137 132.56 50.6279 132.702 50.6709 132.837C50.714 132.971 50.7851 133.095 50.8795 133.2C50.9531 133.284 51.0438 133.352 51.1455 133.398C51.2472 133.445 51.3576 133.469 51.4695 133.47C51.7108 133.483 51.9489 133.409 52.1395 133.26C52.2318 133.201 52.3077 133.12 52.3601 133.024C52.4126 132.927 52.4399 132.82 52.4395 132.71ZM50.7095 139.46C50.7132 139.664 50.7469 139.866 50.8095 140.06C50.8608 140.266 50.9381 140.464 51.0395 140.65C51.1661 140.851 51.3288 141.028 51.5195 141.17C51.6578 141.303 51.8313 141.393 52.0195 141.43C53.4095 141.43 54.1095 140.9 54.1295 139.78C54.1334 139.486 54.0825 139.195 53.9795 138.92C53.8831 138.627 53.7264 138.358 53.5195 138.13C53.4393 138.029 53.3376 137.947 53.2217 137.889C53.1058 137.832 52.9787 137.802 52.8495 137.8C52.2876 137.744 51.7241 137.889 51.2595 138.21C51.0784 138.362 50.9347 138.554 50.8394 138.771C50.7441 138.988 50.6996 139.223 50.7095 139.46ZM57.7095 151.55C57.7265 151.344 57.7265 151.136 57.7095 150.93C57.6927 150.763 57.6379 150.602 57.5495 150.46C57.4059 150.245 57.2306 150.053 57.0295 149.89C56.8669 149.741 56.6595 149.649 56.4395 149.63C56.1579 149.594 55.8718 149.621 55.6019 149.709C55.332 149.797 55.0853 149.944 54.8795 150.14C54.5654 150.49 54.3848 150.94 54.3695 151.41C54.3745 151.699 54.4356 151.984 54.5495 152.25C54.6692 152.546 54.842 152.817 55.0595 153.05C55.133 153.145 55.2249 153.224 55.3297 153.282C55.4346 153.341 55.5501 153.377 55.6695 153.39C56.0723 153.415 56.4732 153.317 56.8195 153.11C57.1056 152.942 57.338 152.695 57.4895 152.4C57.6247 152.147 57.7 151.867 57.7095 151.58V151.55ZM57.3695 124.73C57.7661 124.734 58.1513 124.863 58.4695 125.1C58.794 125.335 59.0495 125.653 59.2095 126.02C59.3819 126.393 59.4674 126.799 59.4595 127.21C59.4558 127.562 59.3592 127.907 59.1795 128.21C58.9989 128.512 58.7442 128.764 58.4395 128.94C58.1347 129.113 57.7898 129.202 57.4395 129.2C57.0478 129.193 56.6649 129.082 56.3295 128.88C55.9816 128.672 55.6951 128.375 55.4995 128.02C55.2816 127.619 55.1746 127.166 55.1895 126.71C55.1761 126.435 55.2219 126.161 55.3237 125.906C55.4255 125.651 55.5809 125.42 55.7795 125.23C56.2457 124.876 56.8257 124.705 57.4095 124.75L57.3695 124.73ZM56.3695 126.83C56.3532 127.1 56.4349 127.366 56.5995 127.58C56.7937 127.753 57.0408 127.855 57.3005 127.87C57.5602 127.884 57.8172 127.81 58.0295 127.66C58.1002 127.602 58.1587 127.531 58.2016 127.45C58.2445 127.369 58.271 127.281 58.2795 127.19C58.2795 126.37 57.9295 125.95 57.1995 125.94C57.0903 125.933 56.9809 125.95 56.879 125.99C56.7771 126.029 56.6851 126.091 56.6095 126.17C56.4463 126.35 56.3601 126.587 56.3695 126.83ZM59.2795 146.22C59.2901 146.309 59.265 146.399 59.2095 146.47C59.1374 146.602 59.0345 146.716 58.9095 146.8C58.7579 146.906 58.5739 146.956 58.3895 146.94C58.2428 146.929 58.0999 146.888 57.9695 146.82C57.8563 146.755 57.7656 146.658 57.7095 146.54C57.5914 146.269 57.5366 145.975 57.5495 145.68C57.5511 145.563 57.5778 145.449 57.6279 145.343C57.6779 145.238 57.7501 145.145 57.8395 145.07C58.0325 144.909 58.2788 144.827 58.5295 144.84C58.9136 144.859 59.289 144.961 59.6295 145.14C59.9828 145.288 60.3182 145.476 60.6295 145.7C60.7838 145.841 60.9184 146.003 61.0295 146.18C61.1306 146.313 61.1898 146.473 61.1995 146.64C61.2215 146.811 61.1747 146.984 61.0695 147.12C60.945 147.2 60.7968 147.235 60.6495 147.22C60.5595 147.22 60.4295 147.1 60.2595 146.87C60.1568 146.75 60.0466 146.636 59.9295 146.53C59.7399 146.383 59.5313 146.262 59.3095 146.17L59.2795 146.22Z" fill="#231F20"/>
<path d="M13.8807 85.84C14.5682 85.6797 15.2833 85.6797 15.9707 85.84C16.5663 85.9708 17.0868 86.3298 17.4207 86.84C17.5408 87.0358 17.6317 87.2481 17.6907 87.47C17.7684 87.7123 17.8056 87.9657 17.8007 88.22C17.8007 89.66 16.9707 90.93 15.3007 92.02C14.5241 92.5473 13.6257 92.8674 12.6907 92.95C12.2965 92.9936 11.898 92.9224 11.5432 92.745C11.1884 92.5676 10.8924 92.2916 10.6907 91.95C10.024 90.9434 10.1574 89.6267 11.0907 88C9.48072 88.37 8.37071 88.08 7.76071 87.14C7.40632 86.6292 7.24667 86.0084 7.31071 85.39C7.38198 84.7694 7.62433 84.1809 8.01071 83.69C8.43692 83.1393 8.95442 82.6658 9.54071 82.29C10.0352 81.9858 10.5864 81.785 11.1607 81.7C11.6776 81.5895 12.2166 81.6564 12.6907 81.89C13.0895 82.1037 13.4322 82.4087 13.6907 82.78C13.963 83.1881 14.1376 83.6535 14.2007 84.14C14.2426 84.7046 14.1465 85.2709 13.9207 85.79L13.8807 85.84ZM12.0307 86.4C12.2107 85.98 12.3507 85.65 12.4307 85.4C12.5199 85.1463 12.5639 84.8789 12.5607 84.61C12.5579 84.3246 12.471 84.0463 12.3107 83.81C12.2171 83.6652 12.0921 83.5432 11.945 83.4532C11.7978 83.3632 11.6323 83.3074 11.4607 83.29C11.0834 83.2512 10.7044 83.3468 10.3907 83.56C9.82221 83.852 9.37315 84.3329 9.12071 84.92C9.05409 85.1129 9.03207 85.3185 9.05632 85.5211C9.08057 85.7238 9.15045 85.9183 9.26071 86.09C9.3418 86.2168 9.44716 86.3262 9.57073 86.412C9.69431 86.4978 9.83365 86.5583 9.98071 86.59C10.2749 86.6448 10.5766 86.6448 10.8707 86.59C11.1607 86.59 11.5507 86.47 12.0307 86.36V86.4ZM15.7707 87.79C15.596 87.5953 15.3518 87.4768 15.0907 87.46C14.7321 87.4148 14.3693 87.4148 14.0107 87.46C13.6951 87.4861 13.3833 87.5465 13.0807 87.64C12.7955 88.0774 12.5638 88.5474 12.3907 89.04C12.2275 89.4081 12.1229 89.7996 12.0807 90.2C12.0638 90.3596 12.0638 90.5205 12.0807 90.68C12.1139 90.8129 12.1715 90.9383 12.2507 91.05C12.3147 91.1338 12.3984 91.2004 12.4944 91.244C12.5903 91.2876 12.6955 91.3069 12.8007 91.3C13.0871 91.3177 13.3744 91.2873 13.6507 91.21C13.9052 91.1493 14.1484 91.048 14.3707 90.91C15.0094 90.5353 15.5214 89.9781 15.8407 89.31C15.9682 89.0671 16.0288 88.7946 16.0165 88.5206C16.0042 88.2465 15.9194 87.9806 15.7707 87.75V87.79ZM20.8707 88.42C20.7903 88.4822 20.6923 88.5172 20.5907 88.52C20.4212 88.5263 20.252 88.5026 20.0907 88.45C19.9032 88.3661 19.7461 88.2264 19.6407 88.05C19.5564 87.9065 19.5052 87.7459 19.4907 87.58C19.4685 87.4369 19.5006 87.2907 19.5807 87.17C19.753 86.8854 19.9936 86.6482 20.2807 86.48C20.3897 86.4031 20.5149 86.3522 20.6467 86.3314C20.7785 86.3106 20.9133 86.3204 21.0407 86.36C21.3066 86.44 21.5342 86.6142 21.6807 86.85C21.8981 87.2214 22.0376 87.633 22.0907 88.06C22.1662 88.4721 22.1931 88.8917 22.1707 89.31C22.1416 89.5437 22.081 89.7725 21.9907 89.99C21.9268 90.1634 21.816 90.3157 21.6707 90.43C21.5218 90.5604 21.3284 90.6284 21.1307 90.62C20.9811 90.5465 20.8586 90.4275 20.7807 90.28C20.7807 90.2 20.7807 90.01 20.8507 89.7C20.9047 89.5308 20.9416 89.3566 20.9607 89.18C20.9809 88.9123 20.9641 88.6431 20.9107 88.38L20.8707 88.42ZM22.6907 75.87C22.4541 76.1952 22.2717 76.5565 22.1507 76.94C22.0408 77.3167 21.9869 77.7076 21.9907 78.1V78.63C21.9907 79.02 21.9907 79.32 21.9907 79.55C22.0153 79.7782 22.076 80.001 22.1707 80.21C22.279 79.7663 22.4779 79.3497 22.755 78.9866C23.032 78.6235 23.3813 78.3216 23.7807 78.1C24.2194 77.8278 24.7163 77.6633 25.2307 77.62C25.7482 77.5581 26.2724 77.5852 26.7807 77.7C27.1521 77.8236 27.493 78.0247 27.7807 78.29C28.1628 78.6243 28.4991 79.0076 28.7807 79.43C29.0133 79.8141 29.1441 80.2513 29.1607 80.7C29.1884 81.1922 29.1344 81.6855 29.0007 82.16C28.9089 82.5459 28.7349 82.9074 28.4907 83.22C28.21 83.5286 27.8946 83.8038 27.5507 84.04C26.9023 84.4631 26.145 84.6889 25.3707 84.69C24.5772 84.6914 23.7963 84.4919 23.1007 84.11C22.3933 83.7158 21.798 83.148 21.3707 82.46C20.7319 81.4769 20.3502 80.3491 20.2607 79.18C20.1474 78.0263 20.3049 76.8621 20.7207 75.78C20.8526 75.5062 21.0245 75.2534 21.2307 75.03C21.4574 74.7469 21.7234 74.4977 22.0207 74.29C22.5107 73.98 22.8807 74.01 23.1307 74.4C23.203 74.4997 23.2507 74.6151 23.2698 74.7368C23.2889 74.8585 23.2789 74.9829 23.2407 75.1C23.1293 75.3886 22.959 75.6508 22.7407 75.87H22.6907ZM26.3707 82.87C26.5681 82.7486 26.7554 82.6115 26.9307 82.46C27.0662 82.3343 27.178 82.1853 27.2607 82.02C27.3704 81.748 27.4411 81.4618 27.4707 81.17C27.5077 80.9255 27.4619 80.6756 27.3407 80.46C27.1999 80.1725 26.9966 79.92 26.7458 79.721C26.4949 79.5221 26.2028 79.3816 25.8907 79.31C25.3801 79.2388 24.8611 79.3562 24.4307 79.64C24.164 79.8276 23.9365 80.0654 23.7607 80.34C23.5576 80.6443 23.4119 80.9833 23.3307 81.34C23.2893 81.4681 23.2742 81.6031 23.2862 81.7372C23.2982 81.8712 23.3372 82.0014 23.4007 82.12C23.6406 82.51 23.9878 82.8224 24.4007 83.02C24.7186 83.168 25.069 83.2328 25.4188 83.2083C25.7686 83.1838 26.1065 83.0709 26.4007 82.88L26.3707 82.87Z" fill="#231F20"/>
<path d="M28.8198 74.22C29.0371 74.0876 29.2784 73.9993 29.5298 73.96C29.7909 73.9195 30.0579 73.94 30.3098 74.02C30.5479 74.0903 30.7534 74.2426 30.8898 74.45C31.0742 74.7247 31.1876 75.0408 31.2198 75.37C31.2434 75.6787 31.1884 75.9884 31.0598 76.27C30.9313 76.5479 30.7267 76.7837 30.4698 76.95C30.2896 77.0795 30.0851 77.1711 29.8685 77.2192C29.6519 77.2673 29.4278 77.271 29.2098 77.23C29.0017 77.1808 28.8058 77.0898 28.6339 76.9626C28.462 76.8354 28.3177 76.6746 28.2098 76.49C28.0822 76.315 27.9946 76.1142 27.9532 75.9017C27.9117 75.6892 27.9174 75.4701 27.9698 75.26C28.1377 74.8375 28.4446 74.4848 28.8398 74.26L28.8198 74.22ZM29.8198 76.22C29.9282 76.1656 30.0225 76.0867 30.0951 75.9895C30.1676 75.8923 30.2166 75.7796 30.2379 75.6601C30.2593 75.5407 30.2525 75.418 30.2181 75.3017C30.1837 75.1853 30.1226 75.0786 30.0398 74.99C30.0096 74.9337 29.965 74.8864 29.9105 74.853C29.8561 74.8196 29.7937 74.8013 29.7298 74.8C29.5525 74.8115 29.3823 74.874 29.2398 74.98C29.0552 75.0842 28.9188 75.2565 28.8598 75.46C28.8233 75.6244 28.852 75.7964 28.9398 75.94C29.0352 76.11 29.1874 76.241 29.3698 76.31C29.446 76.342 29.529 76.3542 29.6112 76.3454C29.6934 76.3367 29.772 76.3073 29.8398 76.26L29.8198 76.22ZM32.6898 71.49C32.7324 71.4655 32.7806 71.4525 32.8298 71.4525C32.8789 71.4525 32.9272 71.4655 32.9698 71.49C33.0642 71.5378 33.1437 71.6104 33.1998 71.7C33.2873 71.8437 33.3193 72.0144 33.2898 72.18L33.2298 72.94C33.1098 74.42 33.0398 75.64 32.9998 76.59C32.965 77.5905 32.9884 78.5922 33.0698 79.59C33.1171 79.7791 33.1123 79.9775 33.056 80.1642C32.9996 80.3508 32.8938 80.5187 32.7498 80.65C32.634 80.7255 32.4979 80.7638 32.3598 80.76C32.2869 80.7538 32.2168 80.7295 32.1557 80.6893C32.0946 80.6492 32.0444 80.5944 32.0098 80.53C31.9495 80.4386 31.9246 80.3284 31.9398 80.22C31.9398 79.76 31.9398 78.92 31.9398 77.7C31.9398 76.48 31.9398 75.63 32.0098 74.9C32.0798 74.17 32.0698 73.49 32.1398 72.9C32.1398 72.9 32.1398 72.72 32.1398 72.52C32.1544 72.3268 32.2017 72.1374 32.2798 71.96C32.3469 71.7882 32.4657 71.6414 32.6198 71.54L32.6898 71.49ZM36.8498 75.93C37.0159 76.1742 37.1 76.4649 37.0898 76.76C37.0738 77.0618 36.9809 77.3544 36.8198 77.61C36.6606 77.8707 36.4454 78.0927 36.1898 78.26C35.9704 78.4032 35.7171 78.4859 35.4555 78.5C35.1939 78.514 34.9333 78.4589 34.6998 78.34C34.4552 78.2254 34.2499 78.041 34.1098 77.81C33.9476 77.5592 33.854 77.2703 33.8382 76.972C33.8224 76.6738 33.885 76.3766 34.0198 76.11C34.1803 75.8067 34.4184 75.5513 34.7098 75.37C34.8727 75.2453 35.0612 75.1582 35.2618 75.115C35.4623 75.0718 35.67 75.0735 35.8698 75.12C36.2929 75.255 36.6499 75.5441 36.8698 75.93H36.8498ZM35.1198 76.18C34.951 76.2835 34.8237 76.4427 34.7598 76.63C34.7346 76.7301 34.7332 76.8348 34.7558 76.9355C34.7784 77.0362 34.8243 77.1303 34.8898 77.21C34.9795 77.3743 35.1304 77.4965 35.3098 77.55C35.371 77.5779 35.4375 77.5924 35.5048 77.5924C35.5721 77.5924 35.6386 77.5779 35.6998 77.55C36.2198 77.22 36.3198 76.82 36.0198 76.36C35.977 76.2905 35.9202 76.2306 35.8531 76.1841C35.786 76.1376 35.7099 76.1056 35.6298 76.09C35.5404 76.0767 35.4493 76.0814 35.3617 76.1037C35.2741 76.126 35.1919 76.1656 35.1198 76.22V76.18Z" fill="#231F20"/>
<path d="M69.6698 29.53C71.5431 32.77 73.0831 35.3167 74.2897 37.17C74.9097 38.17 75.5298 39.03 76.1298 39.86C76.4368 39.8306 76.7287 39.7124 76.9697 39.52L77.5098 39.14C77.6934 38.9737 77.8908 38.8232 78.0998 38.69C78.426 38.4541 78.809 38.3091 79.2097 38.27C79.4008 38.286 79.5843 38.3516 79.7422 38.4603C79.9001 38.5691 80.0268 38.7172 80.1097 38.89C80.2298 39.0554 80.3149 39.2437 80.3596 39.4432C80.4043 39.6426 80.4077 39.8491 80.3698 40.05C80.2798 40.42 79.8798 40.84 79.1598 41.31C78.4159 41.7795 77.6482 42.2101 76.8597 42.6L76.2197 42.94L75.6797 43.26C74.8097 43.85 74.1798 44.26 73.7798 44.63C73.3798 45 72.8997 45.3 72.3597 45.63C71.8197 45.96 71.3598 45.73 70.8798 44.98C70.3998 44.23 70.6497 43.6 71.5697 42.98C71.7197 42.88 71.9598 42.75 72.2998 42.57C72.6169 42.4377 72.9215 42.2771 73.2097 42.09C73.3566 41.9963 73.4969 41.8928 73.6298 41.78C72.9631 40.7 72.0064 39.1033 70.7598 36.99C69.2998 34.53 68.1898 32.73 67.4398 31.57C67.3698 31.64 67.1697 31.94 66.8197 32.45C66.5095 33.0698 66.0776 33.6208 65.5498 34.07C65.4379 34.1255 65.3147 34.1544 65.1898 34.1544C65.0648 34.1544 64.9416 34.1255 64.8298 34.07C64.5394 33.974 64.2917 33.7794 64.1298 33.52C64.0419 33.3464 63.9961 33.1546 63.9961 32.96C63.9961 32.7654 64.0419 32.5736 64.1298 32.4C64.4166 31.6885 64.7507 30.997 65.1298 30.33C65.4074 29.8546 65.6578 29.3638 65.8798 28.86C65.9573 28.6901 66.0583 28.5319 66.1797 28.39C66.2813 28.2533 66.3988 28.129 66.5298 28.02C66.9239 27.76 67.3717 27.5924 67.8398 27.53C68.0116 27.4877 68.192 27.4963 68.3589 27.555C68.5259 27.6136 68.6721 27.7196 68.7798 27.86L69.6698 29.53ZM77.8798 24.31C78.1283 24.9766 78.4432 25.6164 78.8197 26.22C79.1158 26.7159 79.3797 27.2303 79.6097 27.76C79.9088 27.3032 80.2688 26.8894 80.6797 26.53C81.165 26.1241 81.6761 25.7499 82.2097 25.41C83.0971 24.8038 84.1361 24.4575 85.2097 24.41C86.213 24.3771 87.205 24.6303 88.0697 25.14C88.9432 25.6453 89.6837 26.3515 90.2298 27.2C90.5029 27.6865 90.6858 28.2184 90.7698 28.77C90.9064 29.3461 90.9603 29.9387 90.9297 30.53C90.8661 31.5796 90.5761 32.603 90.0798 33.53C89.6032 34.3999 88.9154 35.1358 88.0798 35.67C87.4676 36.0766 86.7916 36.3775 86.0798 36.56C85.3531 36.7329 84.6143 36.8499 83.8698 36.91C83.1991 36.9924 82.5188 36.9379 81.8698 36.75C81.3258 36.549 80.8671 36.1679 80.5697 35.67C80.4679 35.5261 80.406 35.3577 80.3902 35.1821C80.3743 35.0065 80.4053 34.8298 80.4798 34.67C80.5704 34.3719 80.7567 34.1118 81.0098 33.93C81.1473 33.8431 81.3071 33.7979 81.4697 33.8C81.7587 33.8267 82.0458 33.8701 82.3298 33.93L83.3298 34.11C83.8634 34.1909 84.4061 34.1909 84.9398 34.11C85.4881 33.998 86.0084 33.7769 86.4697 33.46C86.8885 33.1964 87.2547 32.8573 87.5498 32.46C87.9612 31.9069 88.2416 31.2674 88.3698 30.59C88.4069 29.8043 88.1622 29.0312 87.6797 28.41C87.4709 28.045 87.1828 27.7315 86.8366 27.4927C86.4905 27.2538 86.0951 27.0957 85.6797 27.03C84.5159 27.0318 83.3861 27.4225 82.4697 28.14C82.2204 28.3244 81.9953 28.5394 81.7998 28.78C81.5298 29.1 81.2698 29.41 81.0198 29.78C80.678 30.2575 80.2857 30.6967 79.8498 31.09C79.5892 31.2383 79.2839 31.288 78.9898 31.23C78.819 31.2104 78.6552 31.1514 78.5112 31.0577C78.3672 30.964 78.2469 30.8381 78.1598 30.69C77.3831 28.9243 76.4808 27.2166 75.4597 25.58L75.0498 25C74.8637 24.7799 74.6901 24.5495 74.5298 24.31C74.4241 24.1647 74.3671 23.9897 74.3671 23.81C74.3671 23.6304 74.4241 23.4553 74.5298 23.31C74.733 22.9639 75.0137 22.6695 75.3498 22.45C75.6398 22.26 76.3498 21.9 77.3498 21.38L78.5598 20.72C78.7906 20.6033 79.0143 20.4731 79.2298 20.33L80.0998 19.73C80.3406 19.5407 80.5909 19.3638 80.8498 19.2C81.2519 18.9209 81.7086 18.7301 82.1898 18.64C82.3661 18.6004 82.5504 18.6166 82.717 18.6865C82.8837 18.7564 83.0244 18.8765 83.1198 19.03C83.3953 19.3833 83.5558 19.8126 83.5798 20.26C83.5886 20.3937 83.5629 20.5274 83.5051 20.6482C83.4473 20.7691 83.3594 20.873 83.2497 20.95C82.9308 21.1525 82.5964 21.3297 82.2497 21.48C81.5103 21.86 80.7926 22.2806 80.0998 22.74C79.5398 23.11 78.8097 23.62 77.9297 24.29L77.8798 24.31ZM96.1598 12.43C96.41 13.099 96.7248 13.7421 97.0998 14.35C97.3933 14.8438 97.6571 15.3548 97.8898 15.88C98.1973 15.4268 98.5601 15.0136 98.9698 14.65C99.458 14.251 99.9689 13.8803 100.5 13.54C101.387 12.9328 102.426 12.5864 103.5 12.54C104.504 12.5139 105.495 12.7703 106.36 13.28C107.243 13.7701 107.994 14.4666 108.55 15.31C108.824 15.7968 109.01 16.3283 109.1 16.88C109.229 17.4572 109.28 18.0493 109.25 18.64C109.196 19.6912 108.905 20.7166 108.4 21.64C107.921 22.5113 107.234 23.2501 106.4 23.79C105.789 24.1971 105.112 24.4948 104.4 24.67C103.674 24.8514 102.935 24.9718 102.19 25.03C101.519 25.1124 100.839 25.0579 100.19 24.87C99.6475 24.6662 99.1895 24.2858 98.8898 23.79C98.7879 23.6461 98.7259 23.4777 98.7101 23.3021C98.6943 23.1265 98.7253 22.9498 98.7997 22.79C98.8943 22.4938 99.0797 22.2349 99.3298 22.05C99.4673 21.963 99.6271 21.9179 99.7897 21.92C99.9597 21.92 100.24 21.92 100.66 22.04L101.66 22.23C102.194 22.3059 102.736 22.3059 103.27 22.23C103.82 22.1199 104.342 21.895 104.8 21.57C105.225 21.3144 105.592 20.974 105.88 20.57C106.293 20.0214 106.573 19.3849 106.7 18.71C106.739 17.9241 106.494 17.1504 106.01 16.53C105.803 16.1636 105.515 15.849 105.169 15.6099C104.822 15.3709 104.426 15.2136 104.01 15.15C102.849 15.1502 101.722 15.5412 100.81 16.26C100.557 16.4436 100.328 16.6587 100.13 16.9C99.8597 17.21 99.5997 17.53 99.3497 17.85C99.0121 18.3278 98.6194 18.7641 98.1797 19.15C97.9255 19.3056 97.6219 19.3592 97.3298 19.3C97.157 19.2785 96.9915 19.2178 96.8459 19.1225C96.7003 19.0271 96.5785 18.8997 96.4898 18.75C95.7112 16.9884 94.8089 15.2842 93.7897 13.65L93.3798 13.07C93.1598 12.8 92.9897 12.57 92.8597 12.38C92.7583 12.233 92.7039 12.0586 92.7039 11.88C92.7039 11.7014 92.7583 11.527 92.8597 11.38C93.0665 11.0332 93.3505 10.7389 93.6898 10.52C93.9698 10.34 94.6298 9.98001 95.6898 9.45001L96.8997 8.80002C97.1302 8.67905 97.3539 8.54551 97.5697 8.40001L98.4398 7.80002C98.6098 7.67002 98.8598 7.50002 99.1898 7.28002C99.5919 7.00092 100.049 6.81007 100.53 6.72001C100.705 6.67631 100.89 6.68958 101.057 6.75791C101.224 6.82624 101.365 6.94607 101.46 7.10002C101.738 7.45541 101.899 7.88888 101.92 8.34001C101.929 8.47368 101.903 8.60739 101.845 8.72824C101.787 8.84909 101.699 8.95302 101.59 9.03002C101.269 9.22865 100.934 9.40571 100.59 9.56001C99.8271 9.94974 99.086 10.3804 98.3698 10.85C97.8097 11.21 97.0898 11.73 96.1998 12.39L96.1598 12.43ZM96.1598 30.43C96.0287 30.5249 95.8716 30.5773 95.7097 30.58C95.441 30.5936 95.1723 30.5527 94.9198 30.46C94.6174 30.3342 94.3646 30.113 94.1998 29.83C94.069 29.5984 93.9841 29.3438 93.9498 29.08C93.9215 28.8493 93.9746 28.6159 94.0998 28.42C94.373 27.9712 94.746 27.5914 95.1898 27.31C95.3637 27.1883 95.5636 27.1087 95.7735 27.0775C95.9835 27.0462 96.1979 27.0642 96.3997 27.13C96.8175 27.2584 97.1735 27.5361 97.3997 27.91C97.7495 28.505 97.9741 29.1652 98.0598 29.85C98.1774 30.5098 98.221 31.1806 98.1898 31.85C98.1392 32.222 98.0383 32.5853 97.8898 32.93C97.7894 33.2097 97.6127 33.4557 97.3797 33.64C96.9897 33.89 96.7098 33.98 96.5298 33.93C96.2857 33.8222 96.085 33.6356 95.9597 33.4C95.8797 33.27 95.9597 32.96 96.0697 32.47C96.16 32.2008 96.2204 31.9224 96.2497 31.64C96.2813 31.2117 96.2544 30.7811 96.1698 30.36L96.1598 30.43Z" fill="#231F20"/>
<path d="M108.749 7.74002C109.094 7.52851 109.479 7.38905 109.879 7.33002C110.296 7.26089 110.724 7.28826 111.129 7.41002C111.508 7.52305 111.834 7.76775 112.049 8.10002C112.346 8.54161 112.528 9.05029 112.579 9.58002C112.629 10.0738 112.542 10.5718 112.329 11.02C112.11 11.4738 111.762 11.853 111.329 12.11C110.748 12.5181 110.029 12.6799 109.329 12.56C108.992 12.4836 108.673 12.3397 108.393 12.1369C108.113 11.9341 107.877 11.6766 107.699 11.38C107.487 11.0978 107.343 10.7708 107.277 10.4241C107.211 10.0774 107.225 9.72026 107.319 9.38002C107.567 8.67434 108.06 8.08146 108.709 7.71002L108.749 7.74002ZM110.369 11.03C110.548 10.9438 110.703 10.8162 110.823 10.658C110.943 10.4997 111.023 10.3152 111.057 10.1198C111.091 9.92435 111.078 9.72359 111.02 9.5341C110.961 9.3446 110.858 9.17181 110.719 9.03002C110.672 8.93776 110.6 8.86015 110.512 8.80553C110.424 8.7509 110.323 8.72134 110.219 8.72002C109.936 8.74621 109.667 8.85003 109.439 9.02002C109.293 9.09951 109.164 9.20785 109.061 9.33849C108.958 9.46912 108.883 9.61933 108.839 9.78002C108.807 9.91204 108.801 10.0493 108.824 10.1834C108.846 10.3175 108.896 10.4457 108.969 10.56C109.121 10.7999 109.35 10.98 109.619 11.07C109.74 11.1206 109.871 11.1416 110.001 11.1311C110.132 11.1207 110.258 11.0792 110.369 11.01V11.03ZM114.959 3.45002C115.028 3.41147 115.105 3.39124 115.184 3.39124C115.263 3.39124 115.34 3.41147 115.409 3.45002C115.561 3.52321 115.689 3.63755 115.779 3.78002C115.917 4.0115 115.967 4.28487 115.919 4.55002L115.819 5.76002C115.632 8.14002 115.509 10.09 115.449 11.61C115.398 13.2175 115.434 14.8266 115.559 16.43C115.649 17.28 115.469 17.85 115.049 18.13C114.867 18.2467 114.655 18.3091 114.439 18.31C114.321 18.2992 114.208 18.2586 114.11 18.1922C114.012 18.1257 113.933 18.0355 113.879 17.93C113.827 17.8607 113.789 17.7816 113.769 17.6973C113.748 17.6131 113.745 17.5256 113.759 17.44C113.759 16.71 113.759 15.37 113.829 13.44C113.899 11.51 113.889 10.13 113.929 8.96002C113.969 7.79002 114.039 6.70002 114.139 5.69002C114.139 5.61002 114.139 5.41002 114.189 5.09002C114.215 4.78043 114.29 4.47682 114.409 4.19002C114.517 3.91412 114.71 3.67954 114.959 3.52002V3.45002ZM121.609 10.55C121.875 10.9413 122.008 11.4074 121.989 11.88C121.968 12.3619 121.824 12.8302 121.569 13.24C121.311 13.6409 120.97 13.9819 120.569 14.24C120.224 14.4693 119.823 14.6006 119.409 14.62C118.989 14.6463 118.568 14.5636 118.189 14.38C117.782 14.1924 117.436 13.8944 117.189 13.52C116.929 13.1184 116.781 12.6553 116.758 12.1775C116.735 11.6998 116.839 11.2245 117.059 10.8C117.311 10.3136 117.692 9.90554 118.159 9.62002C118.42 9.4203 118.723 9.28086 119.044 9.21171C119.366 9.14255 119.699 9.14539 120.019 9.22002C120.685 9.43422 121.244 9.89599 121.579 10.51L121.609 10.55ZM118.849 10.95C118.574 11.1182 118.366 11.376 118.259 11.68C118.224 11.841 118.225 12.0076 118.261 12.1682C118.298 12.3289 118.368 12.4797 118.469 12.61C118.615 12.8693 118.855 13.0626 119.139 13.15C119.244 13.1859 119.356 13.1982 119.467 13.1861C119.577 13.174 119.684 13.1378 119.779 13.08C120.599 12.55 120.779 11.91 120.289 11.18C120.224 11.0663 120.134 10.9681 120.027 10.8922C119.92 10.8162 119.798 10.7643 119.669 10.74C119.379 10.7072 119.087 10.7819 118.849 10.95Z" fill="#231F20"/>
</g>
<defs>
<clipPath id="clip0_415_830">
<rect width="133.68" height="240.31" fill="white"/>
</clipPath>
</defs>
</svg>
