<svg width="694" height="64" viewBox="0 0 694 64" fill="none" xmlns="http://www.w3.org/2000/svg">
<g clip-path="url(#clip0_39_5232)">
<path d="M64.1797 33.6143C64.3696 32.2849 64.5595 30.7656 64.9392 29.4362C65.319 28.2968 65.6987 27.1573 66.6481 26.3976C67.2177 26.0178 67.7874 25.8279 68.357 25.638V25.8279C68.5469 28.2968 68.7367 30.7656 68.357 33.0445C68.1671 34.184 67.9772 35.3235 67.4076 36.273C67.2177 36.8427 66.838 37.2226 66.6481 37.7923C66.4582 38.1721 66.0785 38.7419 65.5088 38.9318C64.7493 39.1217 64.3696 37.9822 64.1797 37.4125C63.9898 36.273 63.9898 34.9436 64.1797 33.6143ZM64.1797 41.5905C67.0279 42.9199 69.1165 40.0712 70.0659 37.6024C70.2558 38.362 70.4456 39.1217 70.8254 39.6914C71.7748 41.9703 73.6735 43.2997 76.1419 42.73C77.0913 42.5401 78.0407 41.7804 78.8002 41.0208C79.5597 40.0712 79.9395 39.1217 80.1294 37.9822C80.3192 37.0327 79.18 36.273 78.6103 37.0327C78.0407 37.6024 77.2812 38.1721 76.7116 38.9318C76.3318 39.5015 75.5723 39.8813 75.0027 40.0712C74.4331 40.0712 74.0533 40.0712 73.8634 39.6914C73.4837 38.9318 73.1039 38.1721 72.914 37.4125C71.7748 33.8042 71.395 29.816 71.0153 26.0178C71.9647 26.2077 72.7242 26.3976 73.4837 26.7775C74.0533 26.9674 74.8128 26.9674 75.0027 26.2077C75.1926 25.638 74.8128 24.8784 74.2432 24.6884C71.5849 23.549 68.357 22.4095 65.5088 23.9288C64.1797 24.6884 63.2303 26.0178 62.6607 27.3472C62.0911 29.0564 61.7113 30.7656 61.5214 32.4748C61.1417 35.5134 60.7619 40.0712 64.1797 41.5905Z" fill="black"/>
<path d="M118.674 11.2048C118.674 11.2048 118.674 11.3947 118.674 11.2048C118.674 11.3947 118.864 11.5846 118.864 11.7745L119.054 11.9644L119.244 12.1543C119.434 12.3442 119.814 12.5342 120.193 12.5342C120.383 12.5342 120.573 12.5342 120.573 12.3442C120.763 12.3442 120.763 12.1543 120.953 12.1543C121.333 11.7745 121.522 11.5846 121.522 11.2048C121.522 10.825 121.333 10.635 120.953 10.4451C120.953 10.2552 120.953 10.2552 120.953 10.0653C120.953 9.8754 120.953 9.8754 120.953 9.68549L120.763 9.49558C120.763 9.30566 120.573 9.30566 120.383 9.11575C120.193 8.92584 120.003 8.92584 119.624 8.92584C119.434 8.92584 119.054 9.11575 118.864 9.30566C118.674 9.68549 118.484 10.0653 118.484 10.4451C118.484 10.635 118.484 10.825 118.484 11.0149C118.674 11.0149 118.674 11.2048 118.674 11.2048Z" fill="black"/>
<path d="M132.913 23.359C133.293 22.9792 133.673 22.7893 134.053 22.4095C134.242 22.2196 134.812 21.8397 135.002 22.0296C135.382 22.0296 135.761 22.5994 135.761 22.9792C135.951 23.359 136.141 23.7388 136.331 24.1187C136.521 25.0682 136.711 26.0178 136.711 26.9673C136.711 27.5371 136.711 28.1068 136.711 28.4866C136.711 28.6765 136.711 28.8664 136.711 29.2463C134.622 29.0564 132.534 29.2463 130.445 29.2463H130.255C130.065 29.2463 130.065 29.2463 129.875 29.2463C129.875 28.6765 129.875 28.1068 130.065 27.5371C130.635 26.0178 131.584 24.4985 132.913 23.359ZM108.989 26.7774C108.799 26.2077 108.799 25.2581 108.419 24.6884C108.419 24.6884 108.419 24.6884 108.609 24.4985C109.179 25.638 109.369 26.9673 109.558 28.2967C109.179 27.727 109.179 27.3472 108.989 26.7774ZM165.002 26.3976C164.433 27.1572 164.053 27.9169 163.673 28.8664C163.294 29.816 162.914 30.9555 162.534 31.905C162.724 29.816 163.673 27.9169 165.002 26.3976ZM165.002 33.8041C165.192 32.6647 165.572 31.5252 165.952 30.3857C166.711 28.2967 167.851 26.2077 169.56 24.8783C170.699 24.1187 172.028 23.5489 173.547 23.5489C173.167 24.1187 172.787 24.8783 172.598 25.638C171.838 26.9673 170.889 28.4866 169.939 29.816C169.18 30.9555 168.42 31.905 167.661 33.0445C167.281 33.6142 166.901 33.994 166.521 34.5638C166.332 34.9436 165.952 35.3234 165.572 35.3234C165.382 35.3234 165.192 35.1335 165.192 34.9436C165.002 34.7537 165.002 34.3739 165.002 33.8041ZM202.408 21.27C202.408 21.0801 202.408 21.0801 202.408 21.27C202.408 21.0801 202.408 21.0801 202.408 21.27C202.408 21.0801 202.408 21.0801 202.408 21.27ZM185.319 39.6914C184.94 39.5015 184.75 38.7418 184.56 38.362C184.18 37.4124 184.18 36.273 184.18 35.3234C184.18 35.1335 184.18 34.9436 184.18 34.7537C184.18 34.7537 184.18 34.5638 184.37 34.5638C184.56 36.273 185.129 37.7923 185.889 39.3116C185.889 39.3116 185.889 39.5015 186.079 39.5015C185.699 39.6914 185.509 39.8813 185.319 39.6914ZM140.318 39.5015C142.787 37.7923 144.116 35.1335 145.255 32.6647C145.635 31.7151 146.205 30.7656 146.584 29.816C146.584 30.5756 146.584 31.5252 146.584 32.2848C146.584 33.0445 146.584 33.8041 146.584 34.5638C146.584 35.3234 146.584 36.0831 146.584 36.8427C146.774 38.362 148.103 39.6914 149.622 39.3116C150.002 39.1216 150.382 38.7418 150.382 38.1721C150.572 34.9436 151.331 31.5252 152.281 28.4866C152.66 27.3472 153.04 26.3976 153.8 25.448C153.99 25.2581 154.369 24.8783 154.559 24.6884C154.559 28.1068 154.939 31.7151 155.888 35.1335C156.078 36.0831 156.458 37.0326 157.407 37.6023C158.167 38.1721 159.116 38.5519 160.066 38.362C161.015 38.1721 161.964 37.7923 162.534 37.0326L162.724 37.2225C163.483 38.1721 164.813 39.1216 165.952 38.9317C166.711 38.7418 167.281 38.1721 167.851 37.7923C168.42 37.2225 168.99 36.6528 169.56 36.0831C170.509 34.9436 171.458 33.8041 172.218 32.6647C172.218 33.2344 172.408 33.8041 172.598 34.184C173.357 36.0831 174.876 37.6024 176.775 38.1721C178.674 38.7418 180.762 37.9822 182.281 36.6528L182.471 36.4629C182.471 37.4124 182.661 38.362 183.041 39.3116C183.421 40.2611 183.99 41.2107 185.129 41.4006C185.889 41.4006 186.459 41.0207 187.028 40.451C187.408 40.451 187.788 40.2611 187.978 40.0712C188.927 38.9317 189.686 37.6024 190.446 36.4629C191.205 35.5133 191.965 34.5638 192.535 33.6142C193.104 32.8546 193.674 32.0949 194.054 31.1454C195.193 33.2344 196.332 35.3234 197.851 37.2225C198.231 37.7923 198.421 38.362 198.801 38.9317C199.37 39.6914 199.75 41.0208 200.889 41.2107C201.459 41.4006 201.649 41.2107 201.839 40.8308C202.408 40.8308 202.788 40.451 202.788 39.6914C203.168 36.4629 202.978 33.2344 202.408 30.1958C202.028 28.6765 201.649 27.1572 201.269 25.638C201.079 25.2581 201.079 24.6884 200.889 24.3086C201.079 23.9288 201.459 23.5489 201.839 23.359C202.408 23.9288 203.358 23.7388 203.927 23.359C204.307 23.1691 204.497 22.7893 204.497 22.4095C204.497 22.0296 204.497 21.4599 204.117 21.0801C203.737 20.3205 202.788 19.9406 201.839 20.1305C201.269 20.1305 200.699 20.5104 200.13 20.8902C199.37 20.8902 198.801 21.27 198.421 21.8397C197.851 22.4095 197.661 23.1691 197.661 24.1187C197.661 25.0682 198.041 25.8279 198.231 26.5875C198.421 27.3472 198.801 28.2967 198.99 29.0564C199.56 31.1454 199.75 33.4243 199.75 35.7032C197.471 32.6647 195.763 29.2463 194.433 25.638C194.054 24.6884 191.965 24.1187 191.585 25.448C190.446 29.2463 188.737 33.0445 186.648 36.273C186.838 34.184 186.648 32.2848 186.838 30.3857C186.838 28.8664 187.028 27.5371 187.218 26.0178C187.408 24.6884 187.788 23.1691 187.788 21.6498C187.788 21.0801 186.838 20.3204 186.459 20.8902C186.459 20.7003 186.459 20.7003 186.648 20.5104C186.838 19.9406 185.889 19.7507 185.699 20.1305C184.56 22.5994 183.99 25.2581 183.61 27.9169C183.421 28.8664 183.421 29.816 183.231 30.5756C183.231 30.5756 183.231 30.7656 183.041 30.7656C182.851 31.1454 182.661 31.5252 182.471 31.905C182.091 32.6647 181.522 33.6142 180.762 34.184C179.623 35.1335 177.914 35.7032 176.775 34.7537C175.446 33.6142 175.446 31.3353 175.446 29.6261C175.446 28.8664 175.446 27.9169 175.636 26.9673C176.205 26.2077 176.585 25.2581 177.155 24.4985C177.155 24.4985 177.155 24.3086 177.344 24.3086C177.914 23.9288 177.914 23.1691 177.344 22.5994C176.585 22.0296 175.636 21.6498 174.876 21.4599C174.496 20.8902 173.927 20.7003 173.167 20.5104C171.838 20.3205 170.509 20.8902 169.37 21.4599C167.091 22.4095 165.192 24.1187 163.673 26.2077C162.154 28.4866 161.205 31.1454 161.585 33.8041V33.994C161.205 34.7537 160.635 35.3234 159.686 35.5133H159.496C159.306 35.3234 159.306 35.1335 159.116 34.9436C158.926 34.184 158.737 33.6142 158.547 32.8546C157.787 29.6261 157.597 26.3976 157.977 22.9792C157.977 22.2196 157.407 21.4599 156.648 21.27C153.42 20.8902 151.331 23.5489 150.192 26.3976C150.002 26.9673 149.812 27.5371 149.622 28.1068C149.622 26.3976 149.622 24.6884 149.622 22.9792C149.622 22.2196 149.243 21.6498 148.483 21.4599C148.103 21.27 147.724 21.4599 147.344 21.4599C146.964 21.4599 146.584 21.4599 146.205 21.8397C145.825 22.2196 145.825 22.7893 145.445 23.1691C145.255 23.7388 144.876 24.1187 144.686 24.6884C143.736 26.5875 142.787 28.6765 141.648 30.5756C141.078 31.7151 140.508 32.6647 140.129 33.8041C139.749 34.3739 139.559 34.9436 139.369 35.5133C139.369 35.5133 139.369 35.5133 139.369 35.7032L139.179 35.8932C138.799 36.273 138.42 36.8427 138.04 37.4124C137.091 37.9822 135.951 38.1721 135.002 37.9822C134.432 37.7923 133.863 37.6024 133.483 37.2225C132.913 36.4629 132.534 35.7032 131.964 34.9436C131.584 34.184 131.204 33.6142 131.015 32.8546H131.204C133.673 32.6647 135.951 32.0949 138.23 32.2848C139.369 32.2848 139.749 31.7151 139.939 30.7656C140.129 29.6261 140.129 28.4866 140.129 27.3472C140.129 25.2581 139.749 22.9792 138.61 21.0801C138.23 20.3205 137.47 19.7507 136.521 19.5608C136.331 19.5608 136.331 19.5608 136.141 19.5608C135.382 19.181 134.432 19.181 133.483 19.5608C132.344 20.1305 131.394 20.8902 130.445 21.6498C128.356 23.5489 127.217 26.2077 127.027 28.8664C127.027 28.8664 127.027 28.8664 126.837 28.8664C126.268 28.8664 125.698 28.8664 125.128 28.8664C124.938 28.8664 124.749 28.8664 124.559 28.8664C124.369 28.6765 124.179 28.6765 123.989 28.8664C123.799 28.8664 123.609 28.8664 123.419 29.0564C123.04 29.2463 123.04 29.816 123.419 30.0059C123.23 30.1958 123.23 30.5756 123.23 30.7656C123.04 31.3353 123.23 31.905 123.609 32.4748L123.799 32.6647C123.609 33.2344 123.23 33.994 123.04 34.5638C122.66 35.5133 122.28 36.273 121.9 37.2225C121.9 37.4124 121.711 37.6023 121.711 37.6023C120.761 33.4243 120.192 29.2463 120.192 25.0682C120.192 24.3086 119.622 23.5489 118.862 23.359C118.103 23.1691 117.343 23.7388 117.343 24.4985C117.153 26.9673 116.774 29.6261 116.204 32.0949C115.824 33.2344 115.445 34.5638 115.065 35.7032C114.875 36.273 114.495 36.8427 114.305 37.2225C114.305 37.4124 114.115 37.4124 114.115 37.6023C114.115 37.4124 113.926 37.2225 113.926 37.0326C113.736 36.273 113.546 35.7032 113.356 34.9436C112.976 33.4243 112.976 31.905 112.786 30.3857C112.407 27.1572 112.027 24.1187 110.128 21.27C109.748 20.7003 108.799 20.5104 108.229 20.8902C105.571 22.7893 104.622 26.0178 103.672 29.0564C103.292 30.1958 103.103 31.3353 102.723 32.4748C102.723 31.905 102.533 31.1454 102.533 30.5756C102.343 27.3472 102.343 24.1187 101.963 20.8902C101.773 20.1305 100.824 19.9406 100.444 20.5104C100.065 20.5104 99.8747 20.8902 99.6848 21.0801C99.495 21.27 99.3051 21.6498 99.1152 21.8397C98.7354 22.4095 98.3557 22.9792 97.9759 23.359C97.5962 23.9288 97.2164 24.3086 96.8367 24.8783C96.6468 25.0682 96.4569 25.2581 96.267 25.638C96.0772 25.8279 96.0772 25.8279 95.8873 26.0178C95.6974 26.0178 95.5075 26.2077 95.5075 26.3976C95.5075 26.5875 95.5075 26.5875 95.5075 26.7774C95.3177 27.1572 95.6974 27.727 96.0772 27.5371C97.4063 27.3472 98.5456 26.5875 99.495 25.448C99.6848 26.9673 99.6848 28.4866 99.8747 30.0059C99.8747 31.5252 100.065 32.8546 100.254 34.3739C100.254 35.1335 100.444 35.8932 100.444 36.6528C100.444 37.4124 100.444 38.1721 100.824 38.9317C100.824 39.1216 101.014 39.3116 101.204 39.3116C101.204 39.6914 101.394 40.0712 101.394 40.451C101.584 41.9703 103.862 42.1602 104.052 40.6409C104.812 37.2225 105.571 33.994 106.52 30.5756C107.09 29.0564 107.47 27.3472 108.229 25.8279C108.799 28.2967 109.369 30.5756 109.938 33.0445C110.508 35.5133 111.077 37.7923 112.407 40.0712C112.596 40.2611 112.786 40.2611 112.976 40.451C113.166 40.6409 113.356 40.8308 113.546 41.0207C114.305 41.5905 115.445 41.4006 116.014 40.8308C116.774 39.8813 117.533 38.7418 118.103 37.6023C118.483 37.0326 118.673 36.273 118.862 35.7032C119.242 37.2225 119.622 38.7418 120.002 40.2611C120.381 41.2107 121.711 41.4006 122.47 40.8308C123.04 40.8308 123.609 40.451 123.989 39.8813C124.559 39.1216 124.938 38.1721 125.508 37.2225C126.078 36.0831 126.837 34.9436 127.407 33.994C127.597 33.6142 127.787 33.4243 127.976 33.0445H128.166C128.356 33.6142 128.546 34.3739 128.736 34.9436C129.685 37.2225 131.584 39.5015 133.863 40.451C135.382 41.4006 138.23 40.8308 140.318 39.5015Z" fill="black"/>
<path d="M216.269 36.4629C216.459 35.5134 216.649 34.7537 217.028 33.9941C216.839 34.5638 216.839 34.9436 216.839 35.5134C216.649 37.4125 217.218 39.3116 218.358 40.641C218.547 40.8309 218.737 41.0208 218.927 41.2107C218.737 41.2107 218.737 41.2107 218.547 41.0208C216.649 40.2611 216.079 38.1721 216.269 36.4629ZM227.092 20.5104C227.282 20.5104 227.092 20.5104 227.092 20.5104V20.5104ZM211.142 39.5015C212.092 39.5015 213.231 38.9318 213.99 38.362C214.18 38.1721 214.56 37.9822 214.75 37.7923C214.94 39.1217 215.509 40.4511 216.649 41.4006C217.978 42.5401 220.067 42.9199 221.965 42.5401C223.674 42.73 225.573 42.3502 227.092 41.4006C230.13 39.5015 231.649 35.7033 231.079 32.2849C230.51 28.8665 227.662 25.8279 224.054 25.2582C223.484 25.2582 223.105 25.0683 222.535 25.0683H222.345C222.345 25.0683 222.345 25.0683 222.345 24.8784C222.725 24.4985 222.915 23.9288 223.294 23.549C223.864 22.5994 224.624 21.8398 225.383 21.0801C225.573 20.7003 225.953 20.5104 226.332 20.3205C226.522 20.3205 226.522 20.3205 226.712 20.3205C226.712 20.8902 227.092 21.27 227.662 21.27C228.231 21.27 228.611 21.0801 228.801 20.5104C228.991 18.6113 226.712 17.4718 225.193 18.2315C224.244 18.6113 223.674 19.181 223.105 19.9407C222.345 20.7003 221.775 21.46 221.206 22.2196C220.636 22.9792 220.066 23.7389 219.687 24.6884C219.307 25.8279 219.497 26.9674 220.636 27.5371C221.396 27.9169 222.155 27.727 223.105 27.727C223.864 27.727 224.624 27.727 225.193 28.1068C226.143 28.4867 226.902 29.0564 227.472 29.816C227.472 33.0445 227.662 36.6528 225.383 38.9318C224.434 39.5015 223.294 39.6914 222.155 39.5015C221.586 39.3116 221.016 39.1217 220.636 38.7419C220.066 38.1721 219.877 37.4125 219.687 36.6528C219.497 35.7033 219.687 34.7537 219.877 33.9941C220.256 33.0445 220.636 31.9051 220.826 30.9555C221.016 30.1959 220.067 29.6261 219.307 30.006C219.307 29.816 219.117 29.6261 218.927 29.816C217.788 30.006 216.839 31.3353 216.269 32.095C215.699 32.8546 215.32 33.6143 215.13 34.3739C215.13 34.184 215.13 33.9941 215.13 33.8042C215.13 33.4244 214.56 33.2344 214.18 33.4244C213.611 33.8042 213.231 34.5638 212.851 35.1336C212.661 35.3235 212.471 35.5134 212.282 35.7033C211.712 36.0831 211.142 36.4629 210.573 36.4629C209.623 36.273 209.813 33.6143 209.813 32.8546C209.623 28.8665 209.433 25.0683 209.054 21.0801C209.054 20.7003 208.484 20.7003 208.294 20.8902H208.104C207.535 20.7003 206.965 21.0801 206.965 21.6499C206.775 24.1187 206.585 26.5876 206.395 29.0564C206.395 30.1959 206.205 31.5252 206.205 32.6647C206.205 33.6143 206.016 34.7537 206.205 35.7033C206.965 38.1721 208.864 39.6914 211.142 39.5015Z" fill="black"/>
<path d="M209.435 13.8635C209.815 14.0534 210.195 14.0534 210.575 14.0534C211.144 13.8635 211.524 13.6736 211.904 13.2938C212.094 13.1039 212.284 12.724 212.284 12.3442C212.284 11.9644 212.284 11.5846 212.094 11.2048C211.904 11.0148 211.714 10.8249 211.334 10.8249C211.334 10.8249 211.334 10.8249 211.334 10.635C211.334 10.635 211.334 10.4451 211.524 10.4451C211.904 10.0653 211.714 9.30565 211.334 9.11574C210.954 8.73592 210.385 8.73592 210.005 9.11574C209.056 10.0653 208.676 11.5846 209.056 12.914C208.866 13.2938 209.056 13.6736 209.435 13.8635Z" fill="black"/>
<path d="M223.486 14.0534C224.245 12.5342 225.764 11.5846 227.473 11.3947C229.562 11.0149 231.84 11.5846 233.929 11.3947C234.878 11.3947 234.878 9.8754 234.119 9.68549C233.549 9.49558 232.79 9.11575 232.03 9.11575C231.461 9.11575 230.701 8.92584 230.131 8.92584C228.802 8.92584 227.473 8.92584 226.334 9.30566C224.435 9.8754 222.536 11.3947 221.967 13.4837C221.587 14.2433 223.106 15.003 223.486 14.0534Z" fill="black"/>
<path d="M249.687 15.9525C249.877 15.9525 249.877 15.9525 250.067 15.9525C250.446 15.9525 250.636 15.9525 250.826 15.9525C251.206 15.9525 251.396 15.7626 251.586 15.3828C251.776 15.1929 251.965 14.8131 251.965 14.4333C251.965 14.0534 251.966 13.8635 251.776 13.4837C251.586 13.1039 251.206 12.7241 250.826 12.5341C250.636 12.5341 250.636 12.3442 250.446 12.3442C250.446 12.1543 250.257 11.9644 250.067 11.7745C249.877 11.5846 249.687 11.5846 249.497 11.5846C249.307 11.5846 248.927 11.7745 248.927 11.9644C248.738 12.1543 248.738 12.3442 248.548 12.5341C248.548 12.7241 248.358 12.7241 248.358 12.914C248.358 13.1039 248.168 13.2938 248.168 13.4837C248.168 13.8635 248.168 14.2433 248.358 14.6232C248.548 15.1929 249.117 15.7626 249.687 15.9525Z" fill="black"/>
<path d="M298.295 32.2849C297.535 32.4748 297.345 32.2849 297.156 31.905C296.396 30.5757 296.396 28.8665 296.586 27.3472C296.586 26.9674 296.776 26.3976 296.776 26.0178C296.776 27.3472 296.206 28.8665 296.586 30.1958C296.966 31.1454 297.725 31.905 298.675 32.2849C298.675 32.2849 298.485 32.2849 298.295 32.2849ZM298.485 22.7893C299.244 21.4599 300.383 20.1306 302.092 19.5608C302.282 19.3709 302.662 19.3709 303.042 19.3709C303.232 19.3709 303.421 19.3709 303.611 19.3709C303.421 19.3709 303.801 19.3709 303.801 19.3709C303.801 19.3709 303.991 19.3709 303.801 19.3709H303.991C303.991 19.3709 303.991 19.5608 304.181 19.5608C304.371 19.9407 304.371 20.3205 304.371 20.7003C304.181 22.2196 302.662 23.3591 300.953 23.7389C300.004 23.9288 299.244 23.7389 298.295 23.3591C298.105 23.1691 298.295 22.9792 298.485 22.7893ZM281.965 27.727C282.725 26.5875 283.484 25.2582 284.244 24.1187C284.244 24.4985 284.244 24.8783 284.244 25.2582C283.484 26.0178 282.725 26.9674 281.965 27.727ZM282.345 54.8843C280.826 51.276 281.206 47.0979 282.535 43.4896C283.105 41.9703 283.674 40.6409 284.434 39.3116C284.244 42.9199 283.864 46.7181 283.295 50.3264C283.105 51.6558 283.105 53.5549 282.345 54.8843ZM317.852 22.5994C317.472 22.2196 317.283 22.0297 317.093 21.4599C316.903 21.0801 316.713 20.7003 316.523 20.1306C316.523 19.7507 316.523 19.181 316.523 18.8012C316.333 17.6617 314.624 17.2819 313.865 18.0415C313.675 18.0415 313.485 18.0415 313.295 18.2315C312.725 18.8012 312.346 19.7507 311.776 20.3205C311.206 21.0801 310.637 21.8398 310.067 22.5994C308.928 23.9288 307.789 25.2582 306.46 26.5875C306.27 26.7774 305.89 27.1573 305.7 27.3472C304.181 28.4866 302.472 29.6261 300.953 30.9555C300.953 30.9555 300.763 30.9555 300.763 31.1454C300.383 31.3353 300.004 31.3353 299.624 31.1454C298.864 30.9555 298.485 30.3858 298.295 29.816C297.725 28.4866 298.295 26.9674 298.105 25.4481C298.675 25.638 299.434 25.8279 300.194 25.8279C302.662 26.0178 304.941 24.6884 306.27 22.9792C307.599 21.0801 307.599 18.2315 304.941 17.092C302.662 16.1424 300.004 17.2819 298.295 18.6113C297.345 19.3709 296.396 20.3205 295.826 21.4599C295.257 21.0801 294.307 21.27 293.928 21.8398C292.029 24.6884 289.56 27.5371 287.282 30.3858C287.282 30.1958 287.282 30.0059 287.282 29.6261C287.282 28.8665 287.472 28.1068 287.472 27.3472C287.662 24.8783 287.472 22.4095 286.712 19.9407C286.522 19.5608 285.953 19.181 285.383 19.5608C285.003 19.5608 284.624 19.5608 284.244 19.9407C283.484 20.8902 282.915 21.6499 282.345 22.5994C279.307 26.0178 276.839 29.6261 275.51 33.6142C275.51 33.8042 275.51 33.8042 275.51 33.9941C275.32 34.5638 275.32 35.1335 275.51 35.5134C275.699 36.273 276.649 36.4629 277.408 36.0831C278.168 35.7033 278.737 34.7537 279.117 34.184C280.257 32.6647 281.016 30.9555 282.345 29.4362C282.915 28.6766 283.674 27.727 284.434 26.9674C284.624 29.2463 284.624 31.5252 284.624 33.8042C281.206 38.5519 278.548 43.4896 278.548 49.1869C278.548 52.0356 279.307 54.6944 280.826 57.1632C281.206 57.7329 282.345 58.3027 282.915 57.7329C285.003 56.4036 285.573 54.3145 285.953 52.2255C286.333 49.7567 286.712 47.0979 286.902 44.6291C287.282 41.2107 287.282 37.9822 287.472 34.5638C288.611 33.0445 289.75 31.5252 291.079 30.0059C292.029 28.8665 292.978 27.5371 293.928 26.3976C293.738 27.5371 293.738 28.6766 293.928 29.816C294.118 30.9555 294.307 31.905 295.067 32.8546C295.826 33.8042 297.156 34.3739 298.675 34.3739C300.004 34.3739 301.333 33.6142 302.472 33.0445C303.611 32.2849 304.751 31.3353 305.89 30.5757C308.358 28.6766 311.017 26.9674 313.485 24.8783C314.244 24.3086 314.814 23.549 315.384 22.9792C316.333 24.1187 317.282 25.0682 317.852 26.2077C318.612 27.3472 318.612 28.6766 317.852 29.816C317.662 30.1958 317.283 30.5757 316.713 30.9555C316.523 30.9555 316.333 31.1454 316.333 31.1454C316.143 31.1454 315.953 31.3353 315.574 31.3353C315.004 31.3353 314.434 31.3353 313.865 31.1454C312.536 30.5757 311.966 29.4362 311.586 28.4866C311.586 28.1068 311.017 27.9169 310.637 28.1068C310.447 28.2967 310.257 28.4866 310.067 28.6766C309.687 28.6766 309.308 28.8665 309.118 29.2463C308.358 31.1454 309.877 32.8546 311.966 33.6142C314.055 34.3739 316.523 34.184 318.422 32.8546C320.131 31.7151 321.46 30.0059 321.46 28.1068C321.46 26.2077 320.321 24.6884 318.991 23.1691C318.422 23.359 318.042 22.9792 317.852 22.5994Z" fill="black"/>
<path d="M286.145 13.2938C286.335 13.4837 286.525 13.8635 286.715 14.0534C286.715 14.2433 286.905 14.2433 286.905 14.4333C287.095 14.8131 287.284 15.003 287.664 15.1929C287.854 15.3828 288.044 15.3828 288.234 15.3828C288.424 15.3828 288.614 15.3828 288.614 15.1929C288.803 15.1929 288.803 15.003 288.993 14.8131C289.183 14.6232 289.183 14.6232 289.183 14.4333C289.183 14.2433 289.183 14.0534 289.183 14.0534C289.183 13.8635 288.993 13.6736 288.993 13.4837C288.993 13.2938 288.803 13.2938 288.803 13.1039C288.803 12.914 288.614 12.914 288.614 12.7241C288.424 12.5341 288.234 12.3442 288.234 12.1543C288.044 11.9644 288.044 11.9644 287.854 11.7745C287.664 11.5846 287.664 11.5846 287.474 11.5846C287.284 11.5846 287.095 11.5846 287.095 11.5846C286.905 11.5846 286.715 11.5846 286.715 11.7745C286.525 11.9644 286.335 12.1543 286.335 12.5341C286.335 12.7241 286.335 12.7241 286.335 12.914C285.955 12.914 286.145 13.1039 286.145 13.2938Z" fill="black"/>
<path d="M234.119 32.095C234.309 31.3353 234.499 30.7656 234.689 30.0059C234.499 30.7656 234.309 31.5252 234.309 32.4748C234.119 34.5638 233.929 37.4125 235.828 38.7418C236.018 38.9317 236.398 39.1217 236.587 39.1217C236.018 39.6914 235.258 39.8813 234.689 39.3116C233.929 38.5519 233.739 37.0326 233.739 36.0831C233.739 34.5638 233.739 33.2344 234.119 32.095ZM232.79 38.5519C233.17 39.6914 234.119 41.0208 235.448 41.0208C236.208 41.0208 236.967 40.6409 237.537 40.2611C238.296 39.6914 238.866 39.1217 239.625 38.5519C241.144 37.2225 242.474 35.8932 243.993 34.5638C244.752 33.8042 245.322 33.2344 245.891 32.4748C245.701 34.5638 246.081 36.6528 247.79 37.9822C249.309 39.1217 251.588 39.1217 252.917 37.6024C254.056 36.4629 254.436 34.7537 254.436 33.2344C254.436 32.6647 254.056 32.095 253.486 31.7151C252.917 31.5252 252.157 31.7151 251.967 32.2849C251.778 33.2344 251.398 34.5638 250.828 35.3234C250.638 35.5134 250.638 35.5133 250.448 35.7033H250.259C249.879 35.7033 249.689 35.5134 249.499 35.1335C248.74 33.9941 249.309 32.095 249.309 30.7656C249.309 29.0564 249.119 27.1573 248.55 25.4481C248.17 24.4985 246.651 24.1187 246.081 24.8783C244.562 26.7774 243.233 28.8665 241.714 30.7656C240.955 31.7151 240.195 32.6647 239.625 33.6142C239.056 34.3739 238.676 35.3234 237.917 35.7033C237.917 35.7033 237.727 35.7033 237.727 35.8932L237.537 35.5134C237.347 34.7537 237.347 33.9941 237.537 33.0445C237.727 30.9555 238.106 29.0564 238.866 27.1573C239.246 26.2077 239.815 25.0682 240.385 24.1187C240.765 23.7389 240.955 23.1691 241.334 22.7893C241.524 22.5994 241.904 21.8398 242.284 22.0297C242.474 22.0297 242.663 22.0297 242.853 22.0297C243.043 22.2196 243.043 22.4095 243.043 22.7893C243.043 23.1691 243.803 23.359 243.993 22.9792C244.182 22.2196 243.993 21.4599 243.423 20.8902C243.233 20.5104 242.853 20.1306 242.474 19.9407C241.904 19.7507 241.334 19.7507 240.955 19.9407C240.195 19.9407 239.436 20.3205 238.866 20.8902C237.727 21.8398 236.777 23.1691 236.018 24.4985C235.258 25.8279 234.499 27.3472 233.929 28.8665C232.22 32.095 231.84 35.5133 232.79 38.5519Z" fill="black"/>
<path d="M17.2788 9.68549C17.4687 9.8754 17.4687 10.0653 17.6586 10.0653C17.8484 10.4451 18.0383 11.0149 18.2282 11.5846C17.8484 11.0149 17.2788 10.635 16.7092 10.4451C16.899 10.2552 17.0889 9.8754 17.2788 9.68549ZM2.65828 23.549C2.84815 28.4867 3.03803 33.2344 3.60766 38.1721C3.79754 41.0208 4.17729 43.6796 4.55705 46.3383C4.55705 46.1484 4.36717 45.9585 4.36717 45.7686C4.17729 43.4896 3.79754 41.2107 3.41778 38.7419C3.03803 36.0831 2.84815 33.6143 2.4684 30.9555C2.08865 27.3472 1.70889 23.549 1.70889 19.9407C1.89877 16.7122 2.08865 13.6736 2.27852 10.4451C2.4684 10.0653 2.65828 9.49558 2.84815 9.11575C2.84815 9.30567 2.84815 9.49558 3.03803 9.49558C3.03803 10.0653 3.03803 10.4451 3.22791 11.0149C2.27852 15.1929 2.4684 19.3709 2.65828 23.549ZM0 24.1187C0 26.9674 0.189877 29.6261 0.189877 32.4748C0.379754 35.1336 0.569631 37.7923 0.949384 40.4511C1.13926 41.7804 1.51902 42.9199 1.89877 44.2493C2.27852 45.3887 2.65828 46.7181 3.41778 47.6677C3.98741 48.4273 4.9368 48.8071 5.69631 48.2374C6.64569 47.4778 6.64569 46.3383 6.64569 45.5787C6.45581 39.8813 6.07606 34.184 5.69631 28.6766C5.50643 24.8784 5.12668 21.0801 4.9368 17.2819C4.9368 17.092 4.9368 16.9021 4.9368 16.9021C5.12668 17.2819 5.12668 17.8517 5.31655 18.2315C6.83557 24.4985 8.16471 30.7656 9.68372 37.2226C10.2534 39.8813 11.0129 42.3502 11.5825 45.0089C11.9622 45.5787 12.5319 46.1484 13.2914 46.1484C13.6711 46.1484 14.0509 45.9585 14.2408 45.7686C14.4306 45.7686 14.8104 45.5787 14.8104 45.3887C15.7598 44.4392 15.9497 42.9199 15.7598 41.5905C15.5699 39.5015 15.38 37.4125 15.38 35.3235C15.38 32.6647 15.1902 30.006 15.0003 27.3472C15.0003 24.1187 15.0003 21.0801 15.1902 17.8517C15.38 15.7626 15.7598 13.6736 16.3294 11.7745C16.7092 11.9644 16.899 12.1543 17.0889 12.5342C17.4687 13.4837 17.4687 14.8131 17.4687 15.7626C17.4687 17.092 17.6586 18.4214 17.6586 19.5609C17.8484 24.6885 18.0383 29.6261 18.4181 34.7537C18.6079 39.1217 19.1776 44.0594 22.4055 47.4778C22.7852 47.8576 23.5447 48.0475 23.7346 47.4778C23.9245 47.0979 23.9245 46.908 23.9245 46.5282C24.3042 46.1484 24.4941 45.7686 24.4941 45.0089C24.4941 44.6291 24.3042 44.2493 23.9245 44.0594C23.3549 41.7804 22.7852 39.6914 22.4055 37.4125C22.0257 34.7537 21.646 31.9051 21.4561 29.2463C21.2662 26.5876 21.2662 23.9288 21.4561 21.2701C21.4561 18.8012 21.646 16.3324 21.2662 13.8635C20.8865 11.5846 20.1269 8.35611 17.8484 7.40656C15.0003 6.07718 14.0509 9.8754 13.4813 11.7745C12.1521 17.092 12.342 22.5994 12.5319 27.9169C12.5319 31.1454 12.7218 34.3739 13.1015 37.6024C13.1015 38.362 13.2914 39.3116 13.2914 40.2612C11.2027 32.4748 9.49384 24.8784 7.59508 17.092C7.21532 15.1929 6.83557 13.4837 6.26594 11.5846C6.26594 11.0149 6.26594 10.2552 5.88618 9.68549C5.69631 8.73593 5.12668 7.78638 4.17729 7.02673C3.79754 6.83682 3.03803 6.64691 2.27852 6.83682C2.08865 6.64691 1.89877 6.64691 1.70889 6.64691C1.32914 6.64691 0.949384 6.83682 0.949384 7.21664C0.949384 7.97629 0.759508 8.54602 0.759508 9.30567C0.759508 9.49558 0.569631 9.68549 0.569631 9.8754C0.569631 10.0653 0.569631 10.0653 0.569631 10.2552C0.569631 10.4451 0.569631 10.4451 0.569631 10.635C0.379754 11.5846 0.189877 12.7241 0 13.8635C0 15.3828 0 16.9021 0 18.4214C0 20.3205 0 22.2196 0 24.1187Z" fill="black"/>
<path d="M44.4328 41.9703C44.6227 42.3502 44.8126 42.5401 45.1924 42.73C45.0025 43.1098 44.8126 43.6795 44.6227 43.8695L44.4328 43.6795C44.243 43.4896 44.0531 43.2997 44.0531 43.1098C43.4835 42.3502 43.1037 41.4006 42.9138 40.4511C42.3442 38.7419 42.1543 36.8427 42.1543 34.9436C42.5341 37.6024 43.2936 39.8813 44.4328 41.9703ZM29.2427 41.5905C28.4832 41.0208 28.1034 40.0712 27.9136 39.1217C27.3439 37.0327 27.3439 34.9436 27.5338 33.0445C28.2933 33.8042 29.2427 34.3739 30.382 34.184C31.1415 34.184 31.901 33.8042 32.6605 33.6143C32.8504 34.5638 32.8504 35.5134 33.0402 36.4629C33.0402 37.2226 33.0402 37.7923 32.8504 38.5519C32.6605 39.6914 32.4706 40.8309 31.5212 41.5905C30.9516 41.9703 30.0022 42.3502 29.2427 41.5905ZM32.4706 31.9051C32.2807 31.9051 32.2807 31.9051 32.4706 31.9051C32.2807 31.9051 32.2807 31.9051 32.2807 31.9051C32.2807 31.9051 32.2807 31.7151 32.4706 31.9051C32.4706 31.7151 32.4706 31.7151 32.4706 31.9051ZM30.382 28.1068C30.7617 28.2968 31.1415 28.6766 31.3313 29.2463C31.3313 29.6261 31.3313 29.816 31.3313 30.1959C30.1921 30.3858 28.8629 30.7656 27.9136 30.006V29.816C27.9136 29.6261 27.9136 29.6261 27.9136 29.4362C27.9136 29.2463 28.1034 29.0564 28.1034 29.0564C28.6731 28.1068 29.6224 27.5371 30.382 28.1068ZM25.0654 29.816C25.0654 30.3858 25.2553 31.1454 25.4452 31.7152C24.8755 34.3739 24.8755 37.4125 25.635 40.0712C26.0148 41.5905 26.7743 42.9199 27.9136 43.8695C29.2427 44.819 31.1415 45.0089 32.6605 44.0594C35.8884 42.1603 35.6985 37.7923 35.5086 34.5638C35.5086 33.8042 35.3188 32.8546 35.1289 32.095C35.3188 31.9051 35.3188 31.9051 35.5086 31.7152L35.6985 31.5252C37.7872 31.1454 39.6859 30.5757 41.3948 29.4362C41.0151 33.4243 40.4454 37.4125 41.7746 41.4006C42.1543 42.5401 43.4835 46.1484 45.3822 45.3887C45.762 45.1988 45.9519 44.6291 46.3316 44.2493C46.5215 43.6795 46.9012 43.1098 47.0911 42.5401C47.6607 41.4006 48.0405 40.2611 48.4203 39.1217C48.8 37.7923 49.3696 36.4629 49.7494 35.1335C49.7494 34.7537 49.9393 34.5638 50.1292 34.184C50.319 34.9436 50.6988 35.7033 51.0785 36.273C52.2178 38.7419 54.1166 43.1098 57.5343 42.5401C58.2939 42.5401 58.6736 42.1603 58.6736 41.4006C59.8129 35.1335 57.7242 29.0564 55.4457 23.1692C55.2558 22.4095 54.1166 22.0297 53.5469 22.2196C52.7874 22.4095 52.5975 23.3591 52.7874 24.1187C54.6862 29.0564 56.585 34.184 56.0153 39.3116C55.6356 38.9318 55.4457 38.5519 55.066 38.1721C54.3064 37.0327 53.7368 35.7033 53.1672 34.3739C52.0279 31.7151 51.2684 29.0564 51.0785 26.2077C50.8887 25.0683 48.9899 24.3086 48.4203 25.638C47.0911 29.0564 45.9519 32.6647 45.3822 36.273C44.6227 33.0445 44.4328 29.816 44.8126 26.5876C45.0025 25.638 43.4835 24.6884 42.724 25.2582C41.0151 26.5876 39.1163 27.727 37.2175 28.4867C36.458 28.6766 35.5086 28.8665 34.7491 29.0564C33.9896 27.5371 33.0402 26.0178 31.3313 25.4481C30.7617 25.2582 30.0022 25.0683 29.2427 25.2582C29.2427 25.2582 29.2427 25.2582 29.0528 25.2582C27.9136 25.0683 26.7743 25.2582 26.0148 26.0178C25.2553 26.5876 24.6856 27.5371 24.8755 28.6766C24.6856 29.0564 24.8755 29.4362 25.0654 29.816Z" fill="black"/>
<path d="M326.59 29.0564C326.59 31.1454 326.4 33.4243 326.4 35.7032C326.21 35.8931 326.21 35.8932 326.02 36.0831C326.02 34.9436 326.21 33.6142 326.21 32.4748C326.4 30.0059 326.59 27.5371 326.78 25.0682C326.78 24.1187 326.97 23.1691 326.97 22.2196C326.78 24.4985 326.78 26.7774 326.59 29.0564ZM328.109 10.4451C328.299 8.16615 328.678 5.88722 328.868 3.60828C328.868 4.36793 328.868 5.31748 328.868 6.07713C328.678 8.54597 328.109 11.0148 327.919 13.4837C327.729 14.4332 327.729 15.5727 327.539 16.5222C327.729 14.4332 327.919 12.5341 328.109 10.4451ZM338.362 19.3709C338.172 19.3709 338.172 19.3709 337.982 19.3709C337.793 19.181 337.603 19.181 337.413 18.9911C337.603 18.9911 337.982 18.9911 338.172 19.181C338.172 19.3709 338.362 19.3709 338.362 19.3709ZM339.691 18.6113C338.932 18.0415 338.172 17.8516 337.223 17.8516C336.274 17.8516 335.324 18.0415 334.375 18.0415C333.236 18.2314 332.096 18.4213 330.957 18.4213C330.198 18.6113 329.438 18.6113 328.678 18.8012C328.868 17.092 329.058 15.3828 329.248 13.6736C329.438 11.2047 330.008 8.73588 330.197 6.07713C330.387 3.98811 330.197 1.51926 328.299 -2.33874e-05C327.919 -0.189934 327.349 0.189888 327.729 0.56971L327.919 0.75962C327.349 0.75962 326.97 0.949531 326.78 1.51926C325.83 7.4065 325.071 13.2937 324.311 19.181C322.982 19.3709 321.843 19.5608 320.514 19.7507C319.944 19.7507 319.564 19.7507 319.185 20.3205C318.995 20.5104 318.995 20.8902 318.995 21.0801C318.995 21.0801 318.995 21.0801 318.805 21.0801C318.235 21.27 318.045 22.0296 318.235 22.5994C318.425 23.1691 319.185 23.5489 319.754 23.359C321.083 22.9792 322.413 22.7893 323.932 22.5994C323.552 25.8279 323.362 29.2463 323.172 32.4748C323.172 33.8041 322.982 35.1335 322.982 36.4629C322.982 37.7923 323.362 38.9317 324.501 39.6914C325.071 40.0712 325.83 40.2611 326.4 39.8813C327.729 38.9317 328.868 37.7923 329.818 36.6528C330.767 35.5133 331.906 34.184 332.286 32.4748C332.476 31.5252 331.147 30.7656 330.387 31.3353C329.438 32.0949 328.868 33.0445 328.109 33.8041C328.109 32.4748 328.109 31.1454 328.109 29.816C328.109 27.1572 328.299 24.4985 328.489 22.0296C328.678 22.0296 328.868 22.0296 329.248 22.0296C330.767 21.8397 332.286 21.8397 333.805 21.8397C334.565 21.8397 335.324 21.8397 336.274 21.8397C337.033 21.8397 337.982 21.8397 338.362 21.27C338.932 21.27 339.501 21.0801 339.881 20.7003C340.451 19.9406 340.261 18.9911 339.691 18.6113Z" fill="black"/>
<path d="M387.918 9.49552C387.728 9.30561 387.539 9.30561 387.159 9.1157V8.92579C386.969 8.73588 386.779 8.35606 386.589 8.35606C386.399 8.16615 386.02 8.16615 385.83 8.35606C385.64 8.54597 385.26 8.54597 385.26 8.92579C384.88 9.87534 385.07 10.8249 385.64 11.5845C385.64 11.5845 385.64 11.7745 385.83 11.7745C386.02 11.9644 386.02 11.9644 386.209 12.1543C386.399 12.3442 386.589 12.3442 386.779 12.5341C386.969 12.5341 387.349 12.5341 387.728 12.5341C387.918 12.5341 387.918 12.3442 388.108 12.3442C388.298 12.3442 388.298 12.1543 388.488 11.9644C388.488 11.7745 388.678 11.7745 388.678 11.5845V11.3946C388.678 11.2047 388.678 11.0148 388.678 11.0148C388.678 10.635 388.678 10.4451 388.488 10.2552C388.298 9.87534 388.108 9.68543 387.918 9.49552Z" fill="black"/>
<path d="M425.136 34.9436L424.946 35.1335H424.756C424.566 34.9436 424.376 34.3739 424.376 33.994C424.376 33.6142 424.376 33.2344 424.186 32.6647C424.376 33.2344 424.756 33.994 425.136 34.5638C425.326 34.7537 425.136 34.9436 425.136 34.9436ZM417.92 19.5608C417.92 19.3709 418.11 19.181 418.11 19.181C418.49 18.6113 419.25 18.6113 419.819 18.6113C420.389 18.6113 420.958 18.6113 421.528 18.6113C421.528 18.6113 421.528 18.6113 421.528 18.8012C420.389 18.9911 419.06 19.181 417.92 19.5608ZM428.364 30.5756C427.984 30.9555 427.414 31.3353 427.034 31.905C426.655 32.4748 426.465 33.0445 426.085 33.4243C425.895 33.2344 425.895 33.0445 425.895 32.8546C425.515 31.905 425.326 30.9555 425.326 29.816C425.136 27.5371 425.326 25.2581 425.326 22.9792C425.326 22.2196 425.326 21.4599 425.326 20.7003C425.515 20.7003 425.705 20.7003 426.085 20.7003C427.414 20.5104 428.553 20.5104 429.883 20.5104C431.022 20.5104 432.541 20.5104 433.49 19.9406C434.06 19.5608 433.87 18.8012 433.49 18.6113C433.49 18.6113 433.3 18.6113 433.3 18.4213C433.49 18.4213 433.49 18.2314 433.68 18.2314C433.87 18.0415 433.87 17.6617 433.68 17.4718C432.921 17.092 431.971 17.2819 431.022 17.2819C430.072 17.2819 428.933 17.2819 427.984 17.2819C427.034 17.2819 426.275 17.2819 425.326 17.2819C425.326 14.4332 425.515 11.5845 425.705 8.73588C425.895 6.07713 425.895 3.41838 425.895 0.759622C425.895 0.189889 425.136 -2.23964e-05 425.136 0.569711C425.136 0.759622 425.136 0.949533 425.136 1.13944C424.566 0.949533 423.996 1.13944 423.807 1.70918C422.667 6.83677 422.098 11.9644 421.718 17.2819C420.199 17.2819 418.49 17.092 417.351 18.2314C416.781 18.8012 416.591 19.9406 416.971 20.5104C416.971 20.7003 416.971 20.8902 416.971 21.0801C417.161 21.6498 417.92 22.0296 418.49 21.8397C419.439 21.6498 420.389 21.4599 421.338 21.27C421.148 24.1187 421.148 26.7774 421.338 29.6261C421.338 31.1454 421.338 32.6647 421.528 34.184C421.718 35.7032 422.477 37.2225 423.996 37.7923C425.705 38.5519 427.034 37.6024 427.984 36.273C428.933 34.7537 429.883 33.2344 429.883 31.5252C429.883 30.7656 428.933 30.0059 428.364 30.5756Z" fill="black"/>
<path d="M473.172 61.5312C473.362 61.5312 472.793 61.1513 472.793 61.1513C472.033 60.3917 471.463 59.4421 471.084 58.3027C469.755 54.3145 471.463 50.1365 473.362 46.5282C472.793 48.0475 472.223 49.5668 472.033 51.0861C471.843 53.1751 471.843 55.0742 472.413 57.1632C472.603 58.1128 472.982 59.0623 473.362 60.0119C473.552 60.2018 473.552 60.5816 473.742 60.7715C473.552 60.9614 473.362 61.3413 473.172 61.5312ZM475.071 52.4154C474.881 53.9347 474.691 55.2641 474.501 56.7834C474.312 57.3531 474.312 57.9228 474.122 58.4926C474.122 58.3027 473.932 58.1128 473.932 57.9228C473.552 57.1632 473.362 56.2137 473.362 55.454C472.982 53.7448 473.172 51.8457 473.362 50.1365C473.742 48.4273 474.312 46.7181 475.071 45.1988C475.261 44.6291 475.641 44.2493 475.831 43.6795C475.831 46.7181 475.451 49.5668 475.071 52.4154ZM468.805 32.4748C468.236 31.905 468.236 31.1454 468.236 30.3858V30.1958C468.425 30.5757 468.615 30.9555 468.805 31.3353C469.375 32.2849 470.514 32.8546 471.653 32.8546C472.033 32.8546 472.413 32.8546 472.603 32.6647C472.603 32.6647 472.413 32.6647 472.413 32.8546C471.463 33.4243 469.755 33.4243 468.805 32.4748ZM459.881 31.1454C459.691 31.3353 459.311 31.905 458.932 32.095V31.905C459.881 30.9555 460.83 30.0059 461.59 29.0564C461.21 29.816 460.451 30.5757 459.881 31.1454ZM439.944 31.5252C438.805 30.5757 438.235 28.8665 438.045 27.3472C438.045 27.1573 438.045 26.9674 438.045 26.7775C438.045 28.1068 438.615 29.4362 439.564 30.3858C440.324 31.1454 441.273 31.7151 442.222 32.095C442.033 32.095 442.033 32.095 441.843 32.095C441.273 32.2849 440.514 32.095 439.944 31.5252ZM439.754 21.0801C440.134 20.1306 440.703 18.9911 441.463 18.2315C441.843 18.0415 442.033 17.6617 442.602 17.6617C442.792 17.6617 442.982 17.6617 443.172 17.6617C443.172 17.6617 443.362 17.8516 443.362 17.6617C443.552 17.8516 443.741 18.4214 443.741 18.6113C443.931 19.181 443.931 19.9407 444.121 20.5104C444.311 21.4599 444.501 22.2196 444.691 23.1691C442.792 22.9792 441.083 22.7893 439.184 22.5994C439.374 22.0297 439.564 21.6499 439.754 21.0801ZM481.527 25.4481C480.767 26.3976 480.198 27.3472 479.438 28.2967C479.628 24.8783 479.818 21.6499 479.818 18.2315C479.818 16.7122 477.35 15.9525 476.97 17.6617C476.59 19.5608 476.21 21.4599 475.451 23.3591C475.071 24.3086 474.691 25.2582 474.312 26.2077C473.932 26.9674 473.552 27.9169 472.982 28.6766C472.603 29.2463 472.033 29.816 471.463 30.1958C471.274 30.1958 471.274 30.1958 471.084 30.3858H470.894L470.704 30.1958C470.324 29.6261 470.514 28.8665 470.514 28.1068C470.514 27.1573 470.514 26.0178 470.514 25.0683C470.514 22.5994 470.514 20.1306 470.324 17.6617C470.324 17.4718 470.134 17.092 469.944 17.092C469.944 16.7122 469.185 16.3323 468.805 16.7122C468.805 16.7122 468.805 16.9021 468.615 16.9021C468.425 17.092 468.236 17.2819 468.046 17.4718C467.286 18.4214 466.717 19.3709 466.147 20.3205C465.198 21.6499 464.438 22.7893 463.489 23.9288C461.97 25.8279 460.261 27.727 458.742 29.6261C458.742 29.6261 458.742 29.4362 458.552 29.4362C458.172 25.8279 457.982 22.0297 458.172 18.4214C459.311 18.4214 460.261 18.4214 461.4 18.2315C462.729 18.2315 464.058 18.0415 465.387 17.6617C465.957 17.4718 466.337 16.9021 466.147 16.3323C465.957 15.7626 465.387 15.3828 464.628 15.3828C463.299 15.3828 462.159 15.5727 460.83 15.7626C460.071 15.7626 459.121 15.9525 458.362 15.9525C458.552 13.6736 458.742 11.3947 459.121 9.30564C459.311 7.97626 459.691 6.64689 459.881 5.1276C460.071 3.60831 457.413 2.84867 457.033 4.55787C456.843 5.88724 456.463 7.21662 456.273 8.546C455.704 11.0148 455.134 13.4837 454.375 15.9525C452.856 15.9525 451.147 15.9525 449.628 15.9525C448.298 15.9525 448.678 17.6617 449.628 17.8516C450.957 18.0415 452.286 18.2315 453.615 18.2315C452.856 20.7003 451.716 23.3591 450.387 25.638C449.438 26.7775 448.678 27.9169 447.539 28.8665C446.02 30.3858 443.931 31.5252 441.843 30.3858C439.944 29.4362 439.374 27.3472 439.374 25.4481C441.843 25.4481 444.121 25.638 446.59 25.638C447.349 25.638 447.919 24.8783 447.729 24.3086C447.539 22.9792 447.159 21.6499 446.969 20.1306C446.779 18.9911 446.59 17.6617 446.02 16.5223C444.501 14.0534 441.083 14.2433 439.184 16.1424C438.425 17.092 437.855 18.2315 437.286 19.181C436.906 20.1306 436.526 21.0801 436.146 22.0297C434.248 21.8398 431.589 21.4599 430.45 23.1691C430.45 23.3591 430.26 23.3591 430.26 23.549C430.07 23.7389 430.07 23.9288 430.07 24.1187C430.26 24.6884 430.83 25.0683 431.399 25.0683C432.729 25.0683 434.058 25.2582 435.197 25.2582C435.007 26.9674 435.197 28.6766 435.767 30.1958C436.526 32.095 438.425 33.9941 440.893 34.3739C443.362 34.7537 446.02 33.4243 447.919 32.095C451.337 29.6261 453.615 26.0178 455.134 22.2196C455.134 25.4481 455.514 28.4866 455.894 31.5252C456.083 32.2849 456.843 32.8546 457.602 32.6647C457.982 33.0445 458.552 33.0445 459.121 33.0445C460.261 32.8546 461.02 31.7151 461.59 30.9555C463.109 29.2463 464.628 27.3472 465.767 25.2582C466.147 24.6884 466.527 24.1187 466.717 23.549C466.717 24.4985 466.527 25.638 466.527 26.5875C466.527 27.727 466.527 28.8665 466.527 30.0059C466.527 30.9555 466.717 31.7151 467.286 32.4748C468.236 33.6142 470.134 34.184 471.843 33.8042C473.742 33.4243 475.071 32.095 475.831 30.5757C476.021 30.1958 476.21 29.6261 476.4 29.2463C476.4 30.5757 476.21 31.905 476.21 33.2344C474.691 35.8932 473.362 38.7418 471.843 41.4006C469.185 46.3383 466.147 51.6558 467.666 57.1632C468.046 58.4926 468.615 59.632 469.375 60.5816C470.134 61.7211 471.274 62.8605 472.793 63.0504C476.21 63.4303 476.59 58.8724 476.97 56.7834C478.109 50.7062 478.489 44.6291 478.679 38.362C478.679 36.8427 478.869 35.5134 478.869 33.9941C479.628 32.6647 480.198 31.3353 480.957 30.0059C481.717 28.4866 482.286 26.9674 482.856 25.2582C483.616 25.4481 482.286 24.4985 481.527 25.4481Z" fill="black"/>
<path d="M555.769 20.3205V20.1306C555.959 20.1306 556.149 20.3205 556.529 20.3205C556.719 20.3205 556.909 20.3205 556.909 20.3205C556.529 20.3205 556.149 20.3205 555.769 20.3205ZM552.731 35.7033C552.541 35.7033 552.352 35.7033 552.352 35.5133C550.833 34.184 549.693 32.6647 548.744 31.1454C548.744 30.9555 548.934 30.7656 548.934 30.5757V30.3857V30.1958C549.693 31.905 550.833 33.4243 552.162 34.7537C552.352 34.9436 552.731 35.3234 552.921 35.5133C552.731 35.5133 552.731 35.7033 552.731 35.7033ZM534.503 32.8546C533.364 33.6142 532.225 34.5638 530.895 34.7537C529.756 34.9436 528.997 34.5638 528.237 33.8041C527.098 32.2849 527.288 30.3857 527.668 28.4866C527.668 28.6765 527.668 28.8665 527.857 29.0564C528.237 30.0059 529.376 30.0059 530.136 29.816C531.275 29.4362 532.225 29.2463 533.364 28.8665C534.883 28.2967 536.212 27.727 537.731 27.1573C537.921 29.2463 536.402 31.5252 534.503 32.8546ZM517.414 39.1217C517.224 39.1217 517.034 38.9317 517.034 38.7418C517.224 38.9317 517.604 38.9317 517.794 39.1217C517.984 39.1217 518.174 39.1217 518.174 39.1217C517.984 39.1217 517.794 39.1217 517.414 39.1217ZM518.174 36.4629C518.174 36.6528 517.984 36.4629 518.174 36.4629V36.4629ZM518.553 23.7389C518.933 23.9288 519.123 24.6884 519.123 25.0682C519.123 26.7774 518.553 28.2967 517.984 29.6261C517.794 30.0059 517.794 30.1958 517.604 30.5757C518.174 28.6765 518.933 26.7774 518.743 24.8783C518.743 24.3086 518.553 23.9288 518.174 23.549C518.174 23.7389 518.364 23.7389 518.553 23.7389ZM509.439 24.1187C509.439 24.3086 509.439 24.3086 509.439 24.4985C509.249 25.0682 508.87 25.638 508.68 26.0178C508.87 25.4481 509.249 24.8783 509.439 24.1187ZM534.313 22.7893C535.263 22.7893 536.022 23.359 536.592 24.1187C535.832 24.4985 534.883 24.8783 534.123 25.2582C532.984 25.638 531.845 26.3976 530.706 26.3976C530.706 26.3976 530.706 26.3976 530.516 26.3976V26.2077C530.706 24.3086 532.414 22.5994 534.313 22.7893ZM529.187 28.2967V28.1068C529.376 28.2967 529.566 28.4866 529.756 28.4866H529.566C529.187 28.4866 529.187 28.4866 529.187 28.2967ZM568.111 27.1573C567.162 26.3976 566.213 26.0178 565.073 25.4481C564.883 25.4481 564.694 25.2582 564.504 25.2582C564.314 25.0682 563.934 24.8783 563.744 24.4985C563.175 24.1187 562.795 23.549 562.225 23.1691C561.466 21.27 562.795 19.181 564.883 18.6113C565.073 18.6113 565.073 18.8012 565.073 18.9911C565.073 19.3709 565.073 19.5608 565.073 19.7507C565.073 20.3205 565.833 20.5104 566.023 20.1306C566.592 20.3205 567.352 19.9406 567.352 19.181C567.162 18.0415 566.213 16.3323 564.694 16.3323C564.504 16.3323 564.314 16.3323 563.934 16.3323C563.744 16.3323 563.364 16.3323 563.175 16.3323C562.795 16.5222 562.415 16.7122 562.035 16.9021C561.656 17.092 561.466 17.2819 561.086 17.6617C560.706 18.0415 560.326 18.4214 560.136 18.8012C559.567 18.8012 558.997 18.8012 558.618 18.8012C558.048 18.8012 557.288 18.8012 556.719 18.6113C556.529 18.6113 556.149 18.4214 555.959 18.4214C555.959 18.4214 555.959 18.4214 555.959 18.2314C555.579 17.6617 555.01 17.4718 554.44 17.092C553.491 16.7122 552.731 17.092 552.541 17.8516C552.162 18.0415 552.162 18.6113 552.162 18.9911C552.162 19.5608 552.352 19.9406 552.541 20.5104C552.731 21.0801 552.921 21.8398 552.921 22.4095C553.491 24.8783 553.681 27.3472 553.681 29.6261C553.681 30.1958 553.681 30.9555 553.681 31.5252L553.491 31.3353C552.921 30.5757 552.352 29.6261 551.782 28.6765C550.833 26.5875 550.263 24.4985 550.073 22.2196C550.073 21.4599 549.313 21.0801 548.554 20.8902C547.984 20.8902 547.225 21.27 547.225 22.0297C547.225 24.3086 547.035 26.7774 546.276 29.0564C545.896 30.1958 545.516 31.3353 544.946 32.4748C544.756 32.8546 544.377 33.4243 544.187 33.8041C544.187 33.2344 543.997 32.6647 543.997 31.905C543.807 30.5757 543.617 29.2463 543.427 27.9169C543.048 25.2582 543.048 22.4095 542.668 19.7507C542.478 18.8012 540.959 18.6113 540.959 19.5608C540.769 20.3205 540.769 21.0801 540.769 21.8398C540.389 22.0297 539.82 22.2196 539.44 22.4095C538.491 21.0801 537.161 19.9406 535.452 19.5608C533.744 19.181 531.845 19.5608 530.516 20.7003C529.756 21.27 529.187 22.0297 528.807 22.7893C528.237 22.2196 527.288 22.2196 526.718 23.1691C525.009 26.5875 523.11 30.0059 520.832 33.0445C520.262 33.8041 519.693 34.5638 519.123 35.1335C518.933 35.3234 518.933 35.5133 518.743 35.5133C518.743 34.9436 518.933 34.184 519.123 33.6142C519.313 32.6647 519.693 31.905 520.072 31.1454C521.212 28.4866 523.111 24.3086 520.642 21.8398C517.794 18.6113 513.807 23.359 512.098 25.638C512.098 25.8279 511.908 25.8279 511.908 26.0178C511.908 25.8279 511.908 25.8279 511.908 25.638C511.908 25.2582 512.098 24.8783 512.098 24.4985C512.098 24.1187 511.908 23.7389 511.718 23.359C511.718 23.1691 511.718 23.1691 511.718 22.9792C511.528 22.4095 511.338 22.0297 511.148 21.4599V21.27C510.958 20.8902 510.958 20.5104 510.768 20.3205C510.768 20.1306 510.389 20.1306 510.199 20.1306C510.009 19.9406 509.629 19.9406 509.629 20.1306C509.439 20.1306 509.439 20.3205 509.249 20.5104C507.92 24.4985 506.022 28.1068 503.743 31.5252C502.604 33.2344 501.275 34.9436 499.945 36.4629C499.376 37.0326 498.996 37.6024 498.996 38.362C498.996 38.9317 499.566 39.3116 500.135 39.1217C500.515 39.1217 500.325 38.5519 500.135 38.5519C500.135 38.362 500.135 38.362 500.325 38.1721C500.515 37.7923 500.895 37.6024 501.085 37.2225C501.654 36.6528 502.224 35.8932 502.794 35.3234C503.933 33.9941 504.882 32.6647 505.642 31.3353C505.452 31.5252 505.452 31.7151 505.262 31.905C503.553 34.5638 501.654 37.0326 499.945 39.6914C499.186 40.6409 500.705 41.9703 501.654 41.0208C503.933 38.7418 505.642 36.0831 507.351 33.2344C507.73 32.6647 508.11 32.0949 508.49 31.5252C507.541 37.6024 506.971 43.8694 506.591 50.1365C506.591 51.086 506.401 51.8457 506.401 52.7952C506.211 54.1246 506.211 55.2641 506.022 56.5935C506.022 56.7834 506.022 56.9733 506.211 57.1632C506.211 57.3531 506.211 57.543 506.211 57.7329C506.211 57.9228 506.211 57.9228 506.211 58.1128C506.401 59.632 508.87 60.0119 509.06 58.3027C509.06 57.9228 509.06 57.3531 509.06 56.7834V56.5935C509.249 56.4035 509.06 56.0237 509.06 55.8338C509.06 54.5044 509.06 53.1751 509.249 51.6558C509.439 49.3768 509.439 47.2878 509.629 45.0089C510.009 40.8309 510.389 36.8427 510.768 32.8546C511.528 30.9555 512.287 29.2463 513.427 27.727C514.376 26.3976 515.515 25.0682 516.845 23.9288C517.224 24.3086 517.034 25.2582 517.034 25.8279C516.845 26.5875 516.655 27.3472 516.465 28.1068C515.895 29.4362 515.515 30.9555 515.136 32.4748C514.946 33.8041 514.756 35.3234 514.946 36.8427C515.136 37.9822 515.326 39.1217 516.275 39.6914C517.224 40.451 518.553 40.451 519.503 39.8813C520.832 39.1217 521.781 37.6024 522.541 36.273C523.111 35.5133 523.49 34.7537 523.87 33.9941C524.25 33.4243 524.629 32.8546 524.819 32.2849C525.009 32.8546 525.199 33.6142 525.579 34.184C526.338 35.5133 527.857 36.8427 529.566 37.0326C531.655 37.2225 533.554 36.4629 535.073 35.3234C537.921 33.6142 540.199 30.5757 540.199 27.1573C540.199 26.5875 540.01 25.8279 540.01 25.2582C540.01 25.2582 540.199 25.2582 540.199 25.0682C540.199 25.0682 540.199 25.0682 540.389 25.0682C540.389 25.8279 540.389 26.3976 540.579 27.1573C540.769 29.6261 540.959 32.0949 541.339 34.7537C541.529 35.7033 541.908 36.8427 543.048 37.4125C544.187 37.9822 545.136 37.4125 545.896 36.4629C546.655 35.1335 547.415 33.8041 547.984 32.4748C548.744 33.6142 549.503 34.5638 550.453 35.5133C551.212 36.273 551.972 37.2225 553.111 37.0326C553.871 36.8427 554.25 36.273 554.44 35.7033C554.82 35.7033 555.2 35.7033 555.39 35.5133C556.339 34.9436 556.719 33.9941 557.098 33.0445C557.858 30.7656 557.858 28.2967 557.478 26.0178C557.288 24.4985 556.909 22.9792 556.339 21.6498C556.719 21.6498 556.909 21.6498 557.288 21.6498C557.858 21.6498 558.428 21.6498 558.997 21.4599C559.187 21.4599 559.377 21.4599 559.567 21.4599C559.567 22.7893 559.947 23.9288 560.706 25.0682C561.466 26.0178 562.415 26.7774 563.554 27.3472C563.934 27.5371 564.504 27.727 565.073 28.1068C565.263 28.2967 565.453 28.2967 565.643 28.4866C565.833 28.4866 565.833 28.6765 566.023 28.6765L566.402 28.8665C567.162 30.0059 567.542 31.3353 566.592 32.4748C566.402 32.6647 566.213 32.6647 566.023 32.8546C565.833 32.8546 565.833 33.0445 565.643 33.0445C564.883 33.2344 563.934 32.8546 563.175 32.4748C562.985 32.4748 562.985 32.2849 562.795 32.2849C562.795 32.0949 562.605 31.905 562.605 31.7151C562.605 31.1454 562.985 30.7656 563.175 30.1958C563.364 29.6261 562.795 28.6765 562.035 28.8665C561.656 28.8665 561.276 29.0564 560.896 29.2463C559.947 29.4362 559.567 30.1958 559.757 31.1454C559.757 31.3353 559.947 31.5252 559.947 31.7151C559.947 33.2344 560.706 34.3739 562.035 35.1335C564.314 36.6528 567.542 35.8932 569.061 33.8041C570.58 31.5252 570.2 28.8665 568.111 27.1573Z" fill="black"/>
<path d="M396.084 21.6499C396.464 20.8902 396.844 20.3205 397.224 19.7508C397.603 19.3709 398.173 18.6113 398.743 18.6113H398.932C399.122 18.6113 399.312 18.8012 399.122 18.6113C399.122 18.6113 399.122 18.6113 399.312 18.6113C399.502 18.8012 399.502 18.8012 399.502 18.9911C399.692 19.5609 399.882 20.1306 399.692 20.7003C399.692 21.6499 399.502 22.4095 399.502 23.3591C399.502 23.7389 399.502 23.9288 399.502 24.3086C398.932 24.3086 398.363 24.3086 397.793 24.3086C397.224 24.3086 396.654 24.3086 396.084 24.1187C395.705 24.1187 395.325 24.1187 394.945 24.1187C395.325 23.1692 395.705 22.4095 396.084 21.6499ZM371.59 26.3976C371.021 26.7775 370.831 27.3472 370.451 27.727C370.071 28.1068 369.881 28.6766 369.502 29.0564C369.691 28.4867 370.071 27.727 370.451 27.1573C370.831 26.3976 371.21 25.8279 371.59 25.0683C371.78 24.6884 371.97 24.3086 372.16 23.9288L372.35 23.7389C372.54 24.4985 372.54 25.0683 372.729 25.8279C372.16 26.0178 371.97 26.2077 371.59 26.3976ZM416.971 26.2077C416.591 25.2582 416.021 24.1187 415.452 23.3591C414.123 21.27 412.604 19.3709 411.085 17.4718C410.325 16.5223 408.616 16.7122 408.426 18.0416C407.857 21.27 406.907 24.4985 405.198 27.3472C404.249 28.8665 403.11 30.1959 401.97 31.5252C400.831 32.4748 399.502 33.2344 397.793 33.0445C394.945 32.6647 394.186 29.4362 394.186 27.1573C396.654 27.1573 398.932 26.9674 401.401 27.1573C402.35 27.1573 402.92 26.0178 402.54 25.4481C401.591 23.9288 402.35 21.8398 402.16 20.1306C401.97 18.2315 401.021 16.5223 399.122 15.9525C397.034 15.3828 395.135 16.9021 393.996 18.4214C392.856 20.1306 392.097 22.0297 391.717 23.9288C391.527 23.9288 391.337 23.9288 391.337 23.9288C390.958 23.9288 390.388 23.7389 390.008 23.9288C389.249 24.1187 389.059 25.0683 388.679 25.8279C388.109 27.5371 387.92 29.4362 386.97 30.9555C386.78 31.3353 386.211 31.7152 385.641 32.095C385.641 32.095 385.451 32.095 385.261 32.095C385.071 32.095 384.882 32.095 384.882 32.095C382.793 29.2463 382.983 25.2582 383.363 21.8398C383.552 20.1306 380.894 19.5609 380.514 21.27L378.806 29.6261C378.616 30.7656 378.426 32.095 378.046 33.2344C377.856 33.8042 377.666 34.3739 377.476 34.9436C376.337 33.9941 375.767 32.4748 375.578 31.1454C375.008 28.6766 375.198 26.2077 374.628 23.9288C374.438 22.7893 374.059 21.46 372.919 20.7003C372.35 20.3205 371.78 20.3205 371.021 20.5104C370.451 20.7003 370.071 21.46 369.691 21.8398C368.362 23.9288 367.223 26.2077 366.274 28.4867C366.084 28.8665 365.894 29.4362 365.704 29.816C365.324 26.2077 364.565 22.7893 363.805 19.3709C363.615 18.8012 363.046 18.6113 362.666 18.6113C362.476 18.4214 362.096 18.4214 361.906 18.6113C361.337 18.9911 361.147 19.5609 360.767 19.9407C360.387 20.3205 360.008 20.8902 359.628 21.27C359.248 21.6499 358.868 22.2196 358.489 22.5994C358.299 22.7893 358.109 22.9792 357.919 23.1692C357.729 23.3591 357.349 23.549 357.349 23.9288C357.349 24.1187 357.349 24.1187 357.349 24.3086C357.16 24.4985 357.16 24.6884 357.349 24.8784C357.539 25.0683 357.729 25.0683 357.919 25.0683C358.109 25.0683 358.299 24.8784 358.679 24.8784C358.679 24.8784 358.868 25.0683 359.058 25.0683C360.008 25.0683 360.957 23.9288 361.527 23.3591C361.906 22.9792 362.286 22.5994 362.666 22.0297C362.856 23.7389 363.046 25.638 363.236 27.3472C363.236 28.2968 363.236 29.4362 363.236 30.3858C363.236 31.9051 363.046 33.4244 363.046 35.1336C363.046 36.0831 363.236 38.362 364.565 38.362C364.755 38.362 364.945 38.362 364.945 38.1721H365.134C365.894 38.1721 366.274 37.7923 366.464 37.2226C366.653 36.6528 366.653 36.0831 366.843 35.5134C367.033 35.3235 367.223 34.9436 367.223 34.7537C367.793 33.8042 368.362 32.8546 369.122 31.7152C369.691 30.7656 370.451 29.816 371.021 28.8665C371.21 28.4867 371.59 27.9169 372.16 27.727C372.35 30.5757 372.729 33.4244 374.438 35.8932C374.818 36.4629 375.388 37.0327 375.957 37.4125C376.907 37.9822 377.666 38.362 378.616 37.7923C379.945 37.0327 380.514 35.5134 380.704 34.184C380.894 33.4244 381.084 32.4748 381.274 31.7152C381.654 32.6647 382.223 33.6143 382.793 34.3739C383.173 35.1336 383.742 35.7033 384.502 36.0831C385.071 36.4629 386.021 36.6528 386.59 35.8932C387.73 35.1335 388.299 33.4244 388.869 32.2849C389.439 31.1454 390.008 30.006 390.578 28.8665C390.768 28.4867 391.148 27.9169 391.337 27.5371H391.527C391.527 30.5757 392.667 33.6143 395.135 35.3235C396.844 36.4629 399.122 36.4629 401.211 35.8932C403.11 35.1335 404.629 33.8042 405.958 32.2849C408.236 29.2463 409.755 25.8279 410.705 22.2196C410.705 22.2196 410.705 22.2196 410.895 22.4095C412.034 24.6884 413.553 26.7775 414.312 29.2463V29.4362C413.933 30.9555 412.604 32.2849 411.464 33.4244C411.085 33.8042 410.515 34.3739 409.755 34.3739C409.566 34.3739 409.566 34.3739 409.376 34.184C409.376 34.184 409.376 34.184 409.376 33.9941C409.566 32.6647 407.477 31.9051 406.907 33.2344C405.958 35.1336 407.857 37.0327 409.755 37.2226C411.274 37.7923 413.173 37.6024 414.692 36.8427C417.73 34.9436 418.49 30.5757 417.351 27.3472C417.351 26.3976 417.161 26.2077 416.971 26.2077Z" fill="black"/>
<path d="M677.859 33.0445C677.669 32.8546 677.669 32.8546 677.479 32.6647C677.859 32.8546 678.238 32.8546 678.808 32.8546C679.947 33.4243 681.087 33.4243 682.226 33.0445C680.897 34.184 679.188 34.184 677.859 33.0445ZM674.441 28.4866C674.821 27.9169 675.2 27.1573 675.39 26.3976C675.39 26.5875 675.39 26.9673 675.39 27.1573C675.39 27.1573 675.39 27.1573 675.39 27.3472C675.011 27.727 674.631 28.1068 674.441 28.4866ZM675.39 25.0682C675.39 25.2581 675.39 25.4481 675.39 25.4481C675.39 25.4481 675.39 25.2581 675.2 25.2581C675.39 25.2581 675.39 25.2581 675.39 25.0682ZM664.757 29.6261C664.947 29.2463 664.947 29.0564 665.137 28.6765C666.086 26.3976 667.415 24.3086 669.504 22.7893C670.833 21.6498 672.732 21.0801 674.441 20.8902C673.302 22.9792 672.162 25.0682 671.023 27.1573C670.074 28.8665 668.745 31.7151 666.656 32.0949C666.276 32.0949 665.896 32.0949 665.707 32.0949C665.517 32.0949 665.517 32.0949 665.327 31.905C664.757 31.3353 664.757 30.3857 664.757 29.6261ZM652.795 21.0801C651.086 23.1691 649.947 25.4481 648.997 27.727V27.5371C649.377 26.2077 649.947 24.8783 650.516 23.7389C651.086 22.7893 651.656 21.4599 652.795 21.0801C652.795 20.8902 652.985 20.8902 652.985 20.8902C652.795 20.8902 652.795 21.0801 652.795 21.0801ZM643.681 21.27C643.681 21.27 643.871 21.27 643.681 21.27C643.871 21.27 643.871 21.27 643.681 21.27ZM642.731 19.7507C642.731 19.5608 642.921 19.181 643.301 18.9911C642.921 19.181 642.921 19.5608 642.731 19.7507C642.542 20.5104 642.162 21.27 641.972 21.8397C641.402 23.1691 640.643 24.6884 640.073 26.0178C639.693 26.7774 639.314 27.727 638.744 28.4866C639.124 27.5371 639.504 26.5875 639.883 25.8279C640.643 23.7389 641.592 21.6498 642.731 19.7507ZM602.857 31.5252C602.667 29.816 603.427 28.1068 603.997 26.5875C604.376 25.2581 604.946 23.9288 605.895 22.9792C604.946 24.6884 604.186 26.7774 603.807 28.6765C603.427 30.3857 603.427 32.4748 604.756 33.994L604.946 34.184C603.807 33.8041 603.047 32.8546 602.857 31.5252ZM594.503 19.5608C594.693 19.3709 594.883 19.3709 595.072 19.3709C595.262 19.9406 595.452 20.7003 595.642 21.27C595.832 22.0297 596.022 22.7893 596.022 23.7389C596.022 24.1187 596.212 24.4985 596.212 24.8783V25.0682H596.022C594.123 25.2581 592.224 25.2581 590.515 24.6884C590.325 24.6884 590.325 24.6884 590.136 24.4985C590.895 22.5994 592.604 20.7003 594.503 19.5608ZM684.314 30.1958C683.745 29.816 682.985 30.0059 682.226 30.1958C681.846 30.1958 681.656 30.1958 681.276 30.3857C680.707 30.7656 679.947 30.5757 679.378 30.1958C678.618 29.6261 678.238 28.6765 678.238 27.727C677.859 25.0682 678.998 22.2196 678.238 19.5608C677.859 18.4214 676.34 17.8516 675.58 18.8012C673.302 18.2314 670.643 18.6113 668.555 19.9406C665.707 21.4599 663.998 24.3086 662.669 27.1573C662.289 28.1068 661.909 29.0564 661.719 30.0059C661.339 30.1958 660.96 30.3857 660.77 30.7656C660.2 31.1454 659.631 31.7151 658.871 32.2849C658.491 32.6647 657.922 33.0445 657.352 33.2344C657.352 33.2344 657.352 33.0445 657.352 33.2344V33.0445C656.972 31.905 656.972 30.3857 656.782 29.2463C656.592 27.5371 656.403 25.8279 656.213 24.1187C656.213 23.359 656.023 22.5994 656.023 21.8397C656.023 21.0801 655.833 20.1305 655.263 19.5608C654.314 18.2314 652.605 18.0415 651.086 18.8012C649.757 19.5608 648.997 20.8902 648.238 22.0297C647.478 23.1691 646.909 24.4985 646.529 25.8279C646.529 26.0178 646.339 26.2077 646.339 26.3976C646.339 25.4481 646.339 24.6884 646.339 23.7389C646.339 22.4095 646.719 21.27 646.529 19.9406C646.529 18.8012 645.959 17.4718 644.82 16.9021C643.871 16.1424 642.542 16.1424 641.592 16.9021C640.643 17.4718 640.263 18.6113 639.693 19.5608C639.124 20.7003 638.554 22.0297 637.985 23.1691C637.415 24.4985 636.845 25.8279 636.276 27.3472C635.896 28.2967 635.516 29.2463 635.136 30.1958C634.757 30.7656 633.997 31.3353 633.238 31.5252C633.048 31.5252 632.668 31.5252 632.288 31.5252C632.288 31.5252 631.908 31.3353 632.098 31.5252C631.719 31.3353 631.719 31.1454 631.529 30.9555C630.959 30.1958 630.769 29.2463 630.579 28.2967C630.389 26.9673 630.389 25.4481 630.579 24.1187C630.769 22.9792 630.959 21.6498 630.769 20.5104C630.39 18.9911 629.25 17.8516 627.731 17.8516C624.883 17.8516 623.364 21.27 622.225 23.359C622.035 23.7389 621.845 24.1187 621.655 24.4985C621.845 18.9911 622.035 13.4837 622.605 7.97625C622.794 6.45696 620.516 5.5074 619.756 7.02669C618.237 10.2552 618.237 14.0534 617.668 17.4718C617.098 20.7003 615.959 23.9288 614.25 26.9673C613.49 28.2967 612.541 29.6261 611.592 30.9555C610.642 31.905 609.693 33.0445 608.174 33.2344C607.035 33.2344 606.465 32.6647 606.275 31.5252C606.085 30.0059 606.655 28.2967 607.224 26.9673C607.794 25.2581 608.744 23.5489 609.883 22.2196C610.832 21.0801 612.541 20.1305 613.87 20.8902C615.009 21.6498 616.149 19.7507 615.009 18.9911C614.06 18.4214 613.111 18.2314 611.971 18.2314C611.782 18.2314 611.402 18.2314 611.212 18.2314C609.503 18.2314 607.984 19.181 606.845 20.1305C603.807 22.4095 602.288 26.2077 601.528 29.816C601.528 30.0059 601.528 30.1958 601.338 30.3857C601.148 30.3857 601.148 30.3857 600.959 30.3857C600.199 30.7656 599.629 30.9555 598.87 31.1454C598.11 31.5252 597.541 31.905 596.971 32.2849C595.832 32.8546 594.503 33.6142 593.174 33.8041C592.604 33.994 592.034 33.994 591.465 33.8041C591.085 33.6142 590.895 33.6142 590.515 33.2344C590.515 33.2344 590.325 33.0445 590.136 32.8546C590.136 32.8546 589.756 32.4748 589.946 32.4748C589.756 32.0949 589.376 31.5252 589.376 31.1454C588.996 30.0059 588.996 28.8665 589.186 27.727C590.515 28.1068 591.844 28.2967 593.174 28.2967C594.313 28.2967 595.452 28.4866 596.591 28.2967C597.161 28.2967 597.731 28.2967 598.3 27.9169C598.87 27.5371 599.06 26.9673 599.06 26.3976V26.2077H599.25C600.009 25.638 599.819 24.1187 599.629 23.359C599.44 22.2196 599.25 21.0801 598.87 19.7507C598.49 18.2314 597.161 15.5727 595.072 16.3323C594.883 16.3323 594.883 16.5222 594.693 16.5222C594.123 16.7122 593.553 16.9021 592.984 17.2819C590.325 18.8012 588.427 21.0801 587.287 23.9288C586.528 23.7389 585.958 23.5489 585.199 23.7389H585.009C584.819 23.7389 584.439 23.7389 584.249 23.7389C583.87 23.5489 583.49 23.9288 583.49 24.3086C582.92 25.0682 583.11 26.2077 583.11 26.9673C583.11 27.5371 583.11 27.9169 583.11 28.4866C582.541 29.6261 582.351 30.9555 581.591 31.905C581.211 32.2848 580.642 32.8546 580.072 32.8546C579.882 32.8546 579.692 32.8546 579.503 32.8546C579.503 32.8546 579.313 32.8546 579.313 32.6647L579.123 32.4748C579.123 32.4748 579.123 32.4748 578.933 32.2849C578.743 32.0949 578.553 31.905 578.363 31.7151C577.983 31.3353 577.794 30.7656 577.414 30.1958C577.034 29.6261 576.654 29.2463 576.275 28.6765C577.983 25.8279 579.503 22.9792 581.022 19.9406C581.211 19.3709 581.022 18.8012 580.452 18.4214C580.072 18.0415 579.313 18.0415 578.743 18.2314C577.604 18.9911 576.085 18.9911 574.945 18.2314C573.616 17.2819 572.287 15.7626 570.388 16.5222C570.009 16.7122 569.629 16.9021 569.629 17.4718C569.629 19.181 570.388 20.7003 571.907 21.6498C572.477 22.0297 573.047 22.0297 573.426 21.6498C573.806 21.27 573.616 20.5104 573.237 20.1305C572.857 19.9406 572.667 19.5608 572.477 19.3709C572.667 19.5608 572.857 19.7507 573.047 19.7507C573.806 20.3205 574.376 20.8902 575.325 21.0801C575.895 21.27 576.464 21.4599 577.034 21.4599C575.895 23.359 574.756 25.4481 573.616 27.3472C573.426 27.3472 573.237 27.3472 573.237 27.5371C571.338 29.2463 569.249 31.5252 570.388 34.184C570.958 35.3234 572.287 35.3234 572.857 34.3739C573.426 33.2344 573.996 32.0949 574.756 31.1454C575.135 31.7151 575.325 32.0949 575.705 32.6647C576.464 33.9941 577.414 35.1335 578.933 35.5133C582.73 36.6528 585.958 32.0949 585.199 28.6765C585.389 27.727 585.579 26.7774 585.768 25.8279C585.768 26.0178 585.958 26.3976 586.338 26.3976C585.768 29.6261 586.528 33.2344 589.186 35.3234C591.275 36.8427 593.743 36.6528 596.022 35.7032C597.161 35.3234 598.3 34.7537 599.44 33.994C600.009 33.6142 600.579 33.4243 600.959 32.8546C601.148 32.6647 601.338 32.4748 601.528 32.2849C601.718 33.0445 602.098 33.6142 602.667 34.184C603.807 35.3234 605.326 35.8932 606.845 36.0831C610.452 36.273 613.68 33.2344 615.769 30.5757C617.098 28.8665 618.047 27.1573 618.807 25.2581V25.0682C618.807 27.5371 618.807 29.816 618.807 32.2849C618.807 33.0445 619.187 33.6142 619.946 33.994C620.516 34.184 621.465 33.9941 621.655 33.2344C622.415 30.3857 623.364 27.727 624.693 25.2581C625.263 24.1187 626.022 22.7893 626.782 21.6498C626.972 21.27 627.351 20.8902 627.731 20.5104C627.731 20.5104 627.921 20.3205 628.111 20.3205C628.111 20.3205 628.111 20.3205 628.111 20.5104C628.111 20.7003 628.111 20.8902 628.111 21.0801C628.111 21.8397 627.921 22.4095 627.921 23.1691C627.731 24.6884 627.731 26.2077 627.921 27.727C628.111 30.1958 629.06 32.8546 631.529 33.994C632.858 34.5638 634.377 34.5638 635.706 33.994C636.466 33.8041 637.035 33.6142 637.605 33.2344C638.744 32.2849 639.504 31.1454 640.263 29.816C641.212 28.2967 641.972 26.7774 642.542 25.2581C642.731 24.8783 642.921 24.4985 643.111 24.1187C643.111 23.9288 643.301 23.7389 643.301 23.5489C643.301 23.7389 643.301 23.7389 643.301 23.9288C643.301 24.3086 643.491 24.8783 643.491 25.2581C643.491 26.2077 643.491 27.1573 643.491 28.1068C643.491 30.3857 643.871 32.8546 644.25 35.1335C644.25 35.5133 644.25 35.7032 644.44 35.8932C644.44 35.8932 644.44 36.0831 644.63 36.0831C645.01 37.4124 647.289 37.7923 647.478 36.0831C647.478 35.8932 647.478 35.7032 647.478 35.7032C648.238 34.3739 648.618 33.0445 649.187 31.7151C650.327 28.8665 651.276 26.0178 653.175 23.5489C653.365 25.0682 653.554 26.7774 653.554 28.2967C653.744 29.816 653.744 31.3353 653.934 32.6647C654.124 33.9941 654.694 35.1335 656.023 35.8932C657.732 36.8427 659.251 35.8932 660.58 34.9436C661.15 34.5638 661.719 33.9941 662.289 33.4243C662.858 34.3739 663.808 34.9436 664.947 35.1335H665.137C665.896 35.7032 666.656 36.0831 667.605 36.0831C668.934 35.8932 670.074 35.1335 671.023 34.3739C672.162 33.4243 673.302 32.2848 674.441 30.9555C674.821 30.5757 675.011 30.1958 675.39 30.0059C675.2 31.7151 675.58 33.4243 677.289 34.7537C678.808 35.8932 680.897 36.0831 682.606 35.1335C683.365 34.5638 684.125 33.994 684.504 33.0445C684.884 31.905 685.264 30.7656 684.314 30.1958Z" fill="black"/>
<path d="M691.154 26.2077C691.913 29.4362 692.103 32.8546 691.533 36.0831C691.344 37.6023 690.774 39.3115 690.204 40.8308C689.635 42.3501 688.495 43.8694 688.116 45.5786C687.926 46.1483 688.685 46.908 689.255 46.5282C690.774 45.5786 691.533 43.6795 692.103 42.1602C692.863 40.451 693.242 38.5519 693.622 36.8427C694.192 33.2344 693.812 29.4362 692.673 26.0178C692.483 25.0682 690.774 25.2581 691.154 26.2077Z" fill="black"/>
<path d="M537.543 23.7388C537.354 23.359 536.024 21.6498 535.455 21.6498C534.885 21.6498 531.847 21.27 531.277 21.6498C530.708 22.0296 528.619 23.7388 528.999 24.8783C529.379 25.8279 529.758 27.1572 531.467 26.7774C533.176 26.5875 537.543 23.7388 537.543 23.7388Z" fill="black"/>
</g>
<defs>
<clipPath id="clip0_39_5232">
<rect width="694" height="64" fill="white"/>
</clipPath>
</defs>
</svg>
