<svg width="701" height="82" viewBox="0 0 701 82" fill="none" xmlns="http://www.w3.org/2000/svg">
<g clip-path="url(#clip0_39_5291)">
<path d="M0 20.9578C0.203651 20.3474 0.407301 19.33 0.407301 17.4988V13.6328C0.407301 12.005 0.203651 10.7841 0 9.76675C0.203651 8.74938 0.610952 8.34243 1.01825 8.34243H2.85111C4.48031 8.34243 5.49856 8.95285 6.10952 10.3772C6.72047 11.598 6.92412 12.8189 6.92412 14.4467C6.92412 16.2779 6.92412 17.4988 6.72047 17.9057C6.72047 18.3127 6.51682 18.7196 6.51682 19.1266C6.51682 19.5335 6.51682 19.737 6.31317 19.9404C6.10952 20.1439 5.90587 20.5509 5.70221 20.7543C5.49856 20.9578 5.09126 21.3648 4.88761 21.5682C4.27666 21.9752 3.46206 22.3821 2.44381 22.5856V26.8586L2.85111 34.5906C2.85111 34.9975 2.64746 35.201 2.44381 35.4045C2.24016 35.6079 1.83285 35.8114 1.42555 35.8114L0.610952 35.4045C0.203651 33.7767 0 31.9454 0 29.3002L0.203651 21.9752C0 21.7717 0 21.3648 0 20.9578ZM2.44381 13.0223V20.9578C4.07301 20.7543 4.88761 18.5161 4.88761 14.0397C4.88761 12.8189 4.68396 11.8015 4.48031 11.3945C4.07301 10.9876 3.66571 10.7841 2.85111 10.7841C2.85111 10.7841 2.64746 10.7841 2.44381 10.7841V13.0223ZM8.96062 28.6898C8.75697 26.4516 8.55332 24.4169 8.55332 22.5856V20.9578C8.55332 20.7543 8.55332 20.7543 8.55332 20.7543V20.1439C8.55332 15.871 8.75697 12.8189 9.36792 10.9876C9.77522 9.56328 10.1825 8.54591 10.5898 8.13896C10.9971 7.73201 11.4044 7.52854 11.8117 7.52854C14.8665 7.52854 17.1066 9.15633 18.3285 12.2084C18.9395 14.0397 19.3468 16.2779 19.3468 18.9231V19.1266V23.8065C19.3468 31.5385 17.5139 35.6079 13.8482 35.6079C12.4227 35.6079 11.2008 34.794 10.3862 33.1663C9.57157 31.7419 9.16427 30.1141 8.96062 28.6898ZM10.9971 17.0918L10.7935 20.7543C10.7935 24.6203 11.2008 28.0794 11.8117 31.1315C12.4227 32.7593 13.0336 33.7767 13.6446 34.1836C14.0519 34.1836 14.6628 33.9801 15.0701 33.5732C15.4774 33.1663 15.6811 32.5558 16.0884 31.9454C16.292 31.335 16.4957 30.5211 16.6993 29.9107C16.903 29.0968 16.903 28.4864 17.1066 27.469C17.3103 26.0447 17.3103 24.8238 17.3103 23.8065C17.3103 22.7891 17.3103 21.1613 17.1066 19.1266C16.903 17.0918 16.4957 15.464 16.4957 14.4467V13.6328C16.4957 12.6154 16.0884 11.8015 15.4774 10.9876C14.8665 10.1737 14.0519 9.97022 13.0336 9.97022C12.219 9.97022 11.6081 10.3772 11.2008 11.3945C10.9971 12.2084 10.7935 13.4293 10.7935 14.6501L10.9971 17.0918ZM30.1403 11.1911C28.1038 14.4467 27.0855 16.2779 26.6782 16.8883V19.33C26.6782 20.5509 27.0855 22.5856 28.1038 25.8412C29.122 29.0968 29.733 31.1315 30.3439 32.1489C30.3439 32.3524 30.5476 32.5558 30.9549 32.9628C31.1585 33.3697 31.3622 33.5732 31.5658 33.9802C31.7695 34.1836 31.7695 34.5906 31.7695 34.794C31.7695 34.9975 31.5658 35.4045 31.3622 35.6079C31.1585 35.8114 30.9549 36.0149 30.5476 36.0149C29.9366 36.0149 29.3257 35.4045 28.5111 33.9802C27.9001 32.5558 27.2892 30.928 26.6782 29.0968C25.8636 25.8412 25.049 22.7891 24.6417 20.3474C23.6235 22.3821 23.2162 24.6203 23.2162 27.469V34.9975C23.2162 35.6079 23.0125 36.0149 22.4016 36.0149C21.9943 36.0149 21.587 35.8114 21.3833 35.6079C21.1797 35.4045 20.976 34.9975 20.976 34.5906V22.1787C20.976 20.7543 21.1797 18.5161 21.3833 15.6675C21.587 12.8189 21.7906 10.5806 21.7906 9.15633C21.9943 8.34243 22.4016 8.13896 22.8089 8.13896C23.2162 8.13896 23.6235 8.34243 23.8271 8.54591C24.0308 8.74938 24.2344 9.15633 24.2344 9.3598V9.56328C23.8271 10.1737 23.6235 12.6154 23.6235 16.8883V18.3127C23.6235 18.3127 24.2344 17.2953 25.049 15.2605C27.2892 10.5806 28.7147 8.34243 29.3257 8.34243C29.733 8.34243 30.1403 8.34243 30.3439 8.54591C30.7512 8.74938 30.7512 8.95285 30.7512 9.3598C30.9549 9.56328 30.7512 9.97022 30.1403 11.1911ZM41.7484 26.8586L42.1557 29.3002C42.1557 29.7072 42.3593 30.5211 42.563 31.7419C42.7666 32.9628 42.9703 33.7767 42.9703 34.1836C42.9703 34.794 42.7666 35.201 42.3593 35.4045C41.7484 35.4045 41.3411 35.4045 40.9338 35.201C40.5265 34.9975 40.5265 34.5906 40.5265 34.1836C40.5265 32.9628 40.3228 31.335 39.9155 29.0968L35.8425 28.4864C35.6388 29.3002 35.4352 30.3176 35.2315 31.5385C35.0279 32.5558 35.0279 33.3697 34.8242 33.9802C34.6206 34.9975 34.2133 35.4045 33.3987 35.4045C32.9914 35.4045 32.7877 35.201 32.5841 34.9975C32.3804 34.794 32.1768 34.5906 32.1768 34.1836V33.7767C34.0096 26.6551 35.4352 19.9404 36.2498 13.2258C36.2498 13.0223 36.2498 12.4119 36.4534 11.598C36.6571 9.56328 36.8607 8.34243 37.268 7.73201H38.6936C39.1009 7.73201 39.3046 7.73201 39.7119 7.93548C39.9155 8.13896 40.1192 8.34243 40.1192 8.74938C40.1192 10.7841 40.3228 13.8362 40.9338 17.9057C41.5447 22.1787 41.7484 25.0273 41.7484 26.8586ZM36.0461 27.062C36.4534 27.2655 37.6753 27.6725 39.7119 27.6725C39.7119 27.2655 39.5082 26.6551 39.5082 25.6377C39.5082 24.6203 39.5082 23.3995 39.3046 21.9752C39.1009 20.5509 39.1009 18.7196 38.8973 16.8883C38.6936 14.8536 38.4899 13.6328 38.4899 12.6154C37.268 19.33 36.4534 24.2134 36.0461 27.062ZM48.8761 34.794L46.4323 34.5906C46.2287 34.5906 46.025 34.5906 45.6177 34.794C45.4141 34.9975 45.0068 34.9975 44.8031 34.9975C44.5995 34.9975 44.3958 34.9975 44.1922 34.794C43.9885 34.5906 43.7849 34.3871 43.7849 33.7767C43.7849 31.335 44.5995 27.062 46.4323 21.1613C48.2652 15.0571 49.2834 11.3945 49.6907 9.97022L46.4323 10.1737C46.2287 10.1737 45.8214 9.97022 45.6177 9.76675C45.4141 9.56328 45.2104 9.3598 45.2104 8.95285C45.2104 8.13896 46.636 7.73201 49.6907 7.73201C51.1163 7.73201 51.7272 8.13896 51.7272 8.95285C51.7272 9.97022 51.5236 11.1911 50.9126 12.8189C50.3017 14.4467 49.8944 15.6675 49.8944 16.2779C49.4871 18.5161 48.8761 21.5682 47.8579 25.6377C46.8396 29.7072 46.2287 32.1489 46.025 32.5558H46.8396L48.4688 32.3524C49.4871 32.3524 50.098 32.7593 50.098 33.3697C50.098 33.7767 49.8944 33.9801 49.6907 34.1836C49.4871 34.794 49.0798 34.794 48.8761 34.794ZM48.8761 5.69727C48.4688 5.69727 48.0615 5.4938 47.8579 5.29032C47.6542 5.08685 47.4506 4.6799 47.4506 4.27295C47.4506 3.866 47.6542 3.45906 47.8579 3.25558C48.0615 2.84864 48.4688 2.84864 48.8761 2.84864C49.2834 2.84864 49.6907 3.05211 49.8944 3.25558C50.098 3.66253 50.3017 3.866 50.3017 4.27295C50.3017 4.6799 50.098 5.08685 49.8944 5.29032C49.4871 5.4938 49.2834 5.69727 48.8761 5.69727ZM53.7637 14.4467L53.5601 10.9876C53.5601 9.15633 54.171 8.13896 55.1893 8.13896C56.0039 8.13896 56.8185 8.34243 58.244 8.54591C59.466 8.95285 60.0769 9.3598 60.0769 9.76675C60.0769 10.3772 59.6696 10.7841 58.855 10.9876C57.6331 10.5806 56.6148 10.3772 55.8002 10.1737C55.8002 10.7841 55.8002 11.3945 55.8002 12.005L55.5966 17.9057C55.5966 17.9057 55.5966 18.1092 55.8002 18.5161H57.2258C58.4477 18.5161 59.2623 18.9231 59.2623 19.5335C59.2623 19.737 59.0587 20.1439 58.855 20.3474C58.6513 20.5509 58.244 20.7543 58.0404 20.7543C57.6331 20.7543 57.2258 20.7543 56.8185 20.7543H55.8002C55.8002 21.7717 56.0039 22.7891 56.0039 23.8065L55.8002 31.1315C55.8002 32.5558 55.8002 33.3697 55.8002 33.3697H58.855C59.8733 33.3697 60.4842 33.7767 60.4842 34.3871C60.4842 34.794 60.2806 34.9975 59.8733 35.201C59.466 35.4045 59.0587 35.4045 58.6513 35.4045H55.1893C54.782 35.4045 54.5783 35.201 54.171 34.9975C53.9674 34.794 53.7637 34.3871 53.7637 34.1836V33.1663L53.5601 26.4516L53.7637 14.4467ZM61.7061 33.3697L63.3353 33.5732C63.9463 33.5732 64.3536 33.3697 64.7609 32.9628C65.1682 32.5558 65.3718 31.9454 65.5755 31.335C65.9828 30.1141 66.1864 28.8933 66.1864 27.8759C66.1864 26.8586 65.9828 25.8412 65.7791 24.8238C65.3718 23.8065 64.9645 22.9926 64.5572 22.1787C64.1499 21.3648 63.539 20.5509 63.1317 19.5335C61.9098 17.4988 61.5025 15.464 61.5025 13.4293C61.5025 12.2084 61.7061 11.1911 62.1134 10.1737C62.928 8.34243 63.9463 7.52854 65.1682 7.52854C65.5755 7.52854 66.1864 7.73201 66.5937 7.93548C67.001 8.13896 67.2047 8.54591 67.2047 8.95285C67.2047 9.56328 66.7974 9.97022 66.1864 9.97022C65.9828 9.97022 65.5755 9.97022 65.3718 9.76675C64.5572 9.76675 63.9463 10.7841 63.539 12.6154C63.539 13.0223 63.539 13.4293 63.539 14.0397C63.539 14.6501 63.7426 15.2605 63.9463 16.0744C64.1499 16.8883 64.5572 17.7022 64.7609 18.3127C65.1682 18.9231 65.5755 19.737 65.9828 20.3474C66.3901 21.1613 66.7974 21.7717 67.2047 22.5856C68.0193 24.2134 68.4266 26.0447 68.4266 28.2829C68.4266 29.9107 68.0193 31.5385 67.2047 32.9628C66.7974 33.7767 66.3901 34.3871 65.5755 34.794C64.9645 35.201 64.1499 35.4045 63.3353 35.6079C62.3171 35.4045 61.7061 34.9975 61.5025 33.9802L61.7061 33.3697ZM74.1288 34.794L71.685 34.5906C71.4813 34.5906 71.2777 34.5906 70.8704 34.794C70.6667 34.9975 70.2594 34.9975 70.0558 34.9975C69.8521 34.9975 69.6485 34.9975 69.4448 34.794C69.2412 34.5906 69.0375 34.3871 69.0375 33.7767C69.0375 31.335 69.8521 27.062 71.685 21.1613C73.5178 15.0571 74.5361 11.3945 74.9434 9.97022L71.685 10.1737C71.4813 10.1737 71.074 9.97022 70.8704 9.76675C70.6667 9.56328 70.4631 9.3598 70.4631 8.95285C70.4631 8.13896 71.8886 7.73201 74.9434 7.73201C76.3689 7.73201 76.9799 8.13896 76.9799 8.95285C76.9799 9.97022 76.7763 11.1911 76.1653 12.8189C75.758 14.6501 75.3507 15.871 75.3507 16.4814C74.9434 18.7196 74.3324 21.7717 73.3142 25.8412C72.2959 29.9107 71.685 32.3524 71.4813 32.7593H72.0923L73.7215 32.5558C74.7397 32.5558 75.3507 32.9628 75.3507 33.5732C75.3507 33.9801 75.147 34.1836 74.9434 34.3871C74.7397 34.794 74.3324 34.794 74.1288 34.794ZM87.7734 10.3772L88.1807 27.469V31.7419C88.1807 33.1663 87.977 33.9801 87.7734 34.5906C87.5697 35.201 87.3661 35.6079 87.1624 36.0149C86.9588 36.4218 86.7551 36.8288 86.3478 37.0323C85.9405 37.2357 85.7369 37.6427 85.3296 37.8462C84.515 38.4566 83.2931 38.66 81.8675 38.66C81.4602 38.66 81.4602 38.4566 81.4602 38.2531V37.6427C81.4602 37.4392 81.6639 37.4392 82.0712 37.2357C83.4967 36.8288 84.3113 36.2184 84.7186 36.0149C85.5332 35.201 85.9405 33.5732 85.9405 31.335L85.5332 10.5806V10.3772C84.515 10.3772 83.7004 10.3772 83.2931 10.1737C82.8858 9.97022 82.6821 9.76675 82.4785 9.76675C82.4785 9.76675 82.2748 9.56328 82.2748 9.3598C82.2748 9.15633 82.4785 8.95285 82.6821 8.74938C82.8858 8.54591 83.4967 8.54591 84.1077 8.54591C84.7186 8.54591 86.1442 8.54591 87.977 8.74938C89.8099 8.95285 90.8281 9.15633 90.8281 9.3598C90.8281 9.56328 90.6245 9.97022 90.4208 9.97022C90.2172 10.1737 90.0135 10.1737 89.6062 10.1737H87.7734V10.3772ZM101.011 26.8586L101.418 29.3002C101.418 29.7072 101.622 30.5211 101.825 31.7419C102.029 32.9628 102.233 33.7767 102.233 34.1836C102.233 34.794 102.029 35.201 101.622 35.4045C101.011 35.4045 100.603 35.4045 100.196 35.201C99.7888 34.9975 99.7888 34.5906 99.7888 34.1836C99.7888 32.9628 99.5851 31.335 99.1778 29.0968L95.1048 28.4864C94.9011 29.3002 94.6975 30.3176 94.4938 31.5385C94.2902 32.5558 94.2902 33.3697 94.0865 33.9802C93.8829 34.9975 93.4756 35.4045 92.661 35.4045C92.2537 35.4045 92.05 35.201 91.8464 34.9975C91.6427 34.794 91.4391 34.5906 91.4391 34.1836V33.7767C93.2719 26.6551 94.6975 19.9404 95.5121 13.2258C95.5121 13.0223 95.5121 12.4119 95.7157 11.598C95.9194 9.56328 96.123 8.34243 96.5303 7.73201H97.9559C98.3632 7.73201 98.5668 7.73201 98.9742 7.93548C99.1778 8.13896 99.3815 8.34243 99.3815 8.74938C99.3815 10.7841 99.5851 13.8362 100.196 17.9057C100.603 22.1787 101.011 25.0273 101.011 26.8586ZM95.3084 27.062C95.7157 27.2655 96.9376 27.6725 98.9742 27.6725C98.9742 27.2655 98.7705 26.6551 98.7705 25.6377C98.7705 24.6203 98.7705 23.3995 98.5669 21.9752C98.3632 20.5509 98.3632 18.7196 98.1596 16.8883C97.9559 14.8536 97.7523 13.6328 97.7523 12.6154C96.3267 19.33 95.5121 24.2134 95.3084 27.062ZM103.658 33.3697L105.287 33.5732C105.898 33.5732 106.306 33.3697 106.713 32.9628C107.12 32.5558 107.324 31.9454 107.527 31.335C107.935 30.1141 108.138 28.8933 108.138 27.8759C108.138 26.8586 107.935 25.8412 107.731 24.8238C107.324 23.8065 106.917 22.9926 106.509 22.1787C106.102 21.3648 105.491 20.5509 105.084 19.5335C103.862 17.4988 103.454 15.464 103.454 13.4293C103.251 12.2084 103.454 11.1911 103.862 10.1737C104.676 8.34243 105.695 7.52854 106.917 7.52854C107.324 7.52854 107.935 7.73201 108.342 7.93548C108.749 8.13896 108.953 8.54591 108.953 8.95285C108.953 9.56328 108.546 9.97022 107.935 9.97022C107.731 9.97022 107.324 9.97022 107.12 9.76675C106.306 9.76675 105.695 10.7841 105.287 12.6154C105.287 13.0223 105.287 13.4293 105.287 14.0397C105.287 14.6501 105.491 15.2605 105.695 16.0744C105.898 16.8883 106.306 17.7022 106.509 18.3127C106.917 18.9231 107.324 19.737 107.731 20.3474C108.138 21.1613 108.546 21.7717 108.953 22.5856C109.768 24.2134 110.175 26.0447 110.175 28.2829C110.175 29.9107 109.768 31.5385 108.953 32.9628C108.546 33.7767 108.138 34.3871 107.324 34.794C106.713 35.201 105.898 35.4045 105.084 35.6079C104.065 35.4045 103.454 34.9975 103.251 33.9802L103.658 33.3697ZM111.397 18.7196L111.6 11.1911C111.6 9.97022 112.008 8.95285 113.026 8.13896V8.34243C113.23 8.34243 113.23 8.34243 113.23 8.34243C113.841 8.34243 114.655 9.3598 115.673 11.598C116.692 13.8362 117.506 16.2779 118.321 18.7196C119.136 21.3648 119.95 24.0099 120.561 26.6551C121.376 29.3002 121.783 30.928 121.987 31.335C122.598 25.6377 122.801 18.7196 122.801 10.7841V9.76675C122.801 8.95285 123.209 8.54591 123.82 8.54591C124.227 8.54591 124.43 8.74938 124.634 8.95285C124.838 9.3598 124.838 9.56328 124.838 9.97022V13.0223C124.838 16.2779 124.634 20.5509 124.43 25.8412C124.227 31.1315 123.82 34.1836 123.412 34.794C122.598 34.9975 122.19 35.201 121.783 35.201C121.579 35.201 121.376 35.201 121.172 34.9975C120.968 34.794 120.968 34.5906 120.765 34.1836C120.765 33.7767 120.561 33.5732 120.561 33.3697V33.1663C120.561 32.1489 119.543 28.8933 117.71 23.603C115.673 18.3127 114.248 14.4467 113.433 12.4119V32.9628C113.433 32.9628 113.433 33.1663 113.637 33.1663C113.841 33.3697 113.841 33.7767 113.841 33.9802C113.841 34.1836 113.637 34.3871 113.433 34.794C113.23 34.9975 112.822 35.201 112.619 35.201C111.804 35.201 111.193 34.3871 111.193 32.7593L111.397 18.7196ZM127.282 28.6898C127.078 26.4516 126.874 24.4169 126.874 22.5856V20.9578C126.874 20.7543 126.874 20.7543 126.874 20.7543V20.1439C126.874 15.871 127.078 12.8189 127.689 10.9876C128.096 9.56328 128.503 8.54591 128.911 8.13896C129.318 7.73201 129.725 7.52854 130.133 7.52854C133.187 7.52854 135.428 9.15633 136.649 12.2084C137.26 14.0397 137.668 16.2779 137.668 18.9231V19.1266V23.8065C137.668 31.5385 135.835 35.6079 132.169 35.6079C130.744 35.6079 129.522 34.794 128.707 33.1663C127.893 31.7419 127.485 30.1141 127.282 28.6898ZM129.318 17.0918L129.114 20.7543C129.114 24.6203 129.522 28.0794 130.133 31.1315C130.744 32.7593 131.355 33.7767 131.966 34.1836C132.373 34.1836 132.984 33.9801 133.391 33.5732C133.798 33.1663 134.002 32.5558 134.409 31.9454C134.613 31.335 134.817 30.5211 135.02 29.9107C135.224 29.0968 135.224 28.4864 135.428 27.469C135.631 26.0447 135.631 24.8238 135.631 23.8065C135.631 22.7891 135.631 21.1613 135.428 19.1266C135.224 17.0918 135.224 15.464 135.224 14.4467V13.6328C135.224 12.6154 134.817 11.8015 134.206 10.9876C133.187 10.1737 132.373 9.97022 131.355 9.97022C130.336 9.97022 129.725 10.5806 129.522 11.598C129.318 12.4119 129.114 13.6328 129.114 14.8536L129.318 17.0918ZM143.166 33.3697L144.796 33.5732C145.406 33.5732 145.814 33.3697 146.221 32.9628C146.628 32.5558 146.832 31.9454 147.036 31.335C147.443 30.1141 147.647 28.8933 147.647 27.8759C147.647 26.8586 147.443 25.8412 147.239 24.8238C146.832 23.8065 146.425 22.9926 146.017 22.1787C145.61 21.3648 144.999 20.5509 144.592 19.5335C143.37 17.4988 142.963 15.464 142.963 13.4293C142.963 12.2084 143.166 11.1911 143.574 10.1737C144.388 8.34243 145.406 7.52854 146.628 7.52854C147.036 7.52854 147.647 7.73201 148.054 7.93548C148.461 8.13896 148.665 8.54591 148.665 8.95285C148.665 9.56328 148.258 9.97022 147.647 9.97022C147.443 9.97022 147.036 9.97022 146.832 9.76675C146.017 9.76675 145.406 10.7841 144.999 12.6154C144.999 13.0223 144.999 13.4293 144.999 14.0397C144.999 14.6501 145.203 15.2605 145.406 16.0744C145.61 16.8883 146.017 17.7022 146.221 18.3127C146.628 18.9231 147.036 19.737 147.443 20.3474C147.85 21.1613 148.258 21.7717 148.665 22.5856C149.479 24.2134 149.887 26.0447 149.887 28.2829C149.887 29.9107 149.479 31.5385 148.665 32.9628C148.258 33.7767 147.85 34.3871 147.036 34.794C146.425 35.201 145.61 35.4045 144.796 35.6079C143.777 35.4045 143.166 34.9975 142.963 33.9802L143.166 33.3697ZM162.513 9.3598C162.513 9.15633 162.309 8.95285 162.309 8.74938C162.309 8.13896 162.717 7.73201 163.531 7.73201C164.346 7.73201 164.753 8.13896 164.753 8.74938C164.753 9.56328 164.753 10.1737 164.753 10.3772V10.5806C164.346 11.8015 164.142 13.0223 164.142 14.2432V17.2953C164.142 18.9231 163.939 21.5682 163.531 25.0273C163.124 28.4864 162.92 30.928 162.92 32.3524C162.92 35.201 162.309 36.4218 161.291 36.4218C160.477 36.4218 160.069 35.8114 160.069 34.5906C160.069 33.3697 160.069 32.3524 159.866 31.1315C159.866 29.9107 159.662 28.6898 159.458 27.2655C159.255 25.8412 159.051 24.6203 159.051 23.8065C158.847 22.7891 158.644 21.5682 158.44 19.9404C158.236 18.3127 158.033 17.0918 157.829 16.4814C157.829 17.2953 157.626 18.3127 157.626 19.1266C157.626 19.9404 157.422 21.7717 157.218 24.2134C157.015 26.6551 156.607 29.3002 156.2 31.9454C155.589 34.5906 155.182 35.8114 154.367 35.8114C153.349 35.8114 152.534 32.9628 151.923 27.2655C151.72 24.8238 151.516 22.3821 151.312 19.9404C151.109 13.8362 150.701 10.1737 150.294 9.3598C150.498 8.95285 150.905 8.54591 151.516 8.54591C152.331 8.54591 152.738 9.56328 152.738 11.598C152.738 13.6328 152.942 16.4814 153.552 20.5509C154.163 24.6203 154.367 27.469 154.571 29.3002C155.793 21.3648 156.2 15.464 156.2 11.3945L157.218 10.9876C157.626 10.9876 157.829 10.9876 158.033 11.1911C158.236 11.3945 158.44 11.598 158.44 12.005V12.4119C159.255 15.0571 159.866 18.7196 160.273 23.8065C160.477 26.0447 160.68 27.8759 160.884 29.0968C161.291 25.4342 161.699 20.7543 161.699 15.6675C161.699 15.0571 161.902 14.0397 162.106 12.6154C162.309 11.1911 162.513 10.1737 162.513 9.3598ZM166.382 28.6898C166.179 26.4516 165.975 24.4169 165.975 22.5856V20.9578C165.975 20.7543 165.975 20.7543 165.975 20.7543V20.1439C165.975 15.871 166.179 12.8189 166.79 10.9876C167.197 9.56328 167.604 8.54591 168.012 8.13896C168.419 7.73201 168.826 7.52854 169.234 7.52854C172.288 7.52854 174.529 9.15633 175.75 12.2084C176.361 14.0397 176.769 16.2779 176.769 18.9231V19.1266V23.8065C176.769 31.5385 174.936 35.6079 171.27 35.6079C169.845 35.6079 168.623 34.794 167.808 33.1663C166.993 31.7419 166.586 30.1141 166.382 28.6898ZM168.419 17.0918L168.215 20.7543C168.215 24.6203 168.623 28.0794 169.234 31.1315C169.845 32.7593 170.455 33.7767 171.066 34.1836C171.474 34.1836 172.085 33.9801 172.492 33.5732C172.899 33.1663 173.103 32.5558 173.51 31.9454C173.714 31.335 173.918 30.5211 174.121 29.9107C174.325 29.0968 174.325 28.4864 174.528 27.469C174.732 26.0447 174.732 24.8238 174.732 23.8065C174.732 22.7891 174.732 21.1613 174.528 19.1266C174.325 17.0918 174.325 15.464 174.325 14.4467V13.6328C174.325 12.6154 173.918 11.8015 173.307 10.9876C172.696 10.1737 171.881 9.76675 170.863 9.76675C169.845 9.76675 169.234 10.3772 169.03 11.3945C168.826 12.2084 168.623 13.4293 168.623 14.6501L168.419 17.0918ZM169.845 5.4938C169.641 5.29032 169.641 5.29032 169.641 5.08685C169.641 4.88337 169.845 4.6799 170.252 4.27295C170.659 3.866 171.474 3.25558 172.899 2.03474C174.325 0.813896 174.936 0.203474 175.343 0C175.547 0 175.75 0 175.954 0C176.158 0 176.361 0.203474 176.769 0.406948C177.176 0.610422 177.176 1.01737 177.176 1.42432C177.176 1.83127 177.176 2.03474 176.972 2.03474C175.954 2.84864 173.918 3.86601 171.066 5.4938C170.863 5.4938 170.863 5.4938 170.659 5.4938C170.048 5.69727 170.048 5.69727 169.845 5.4938ZM183.693 10.3772L184.1 27.469V31.7419C184.1 33.1663 183.896 33.9801 183.693 34.5906C183.489 35.201 183.285 35.6079 183.082 36.0149C182.878 36.4218 182.675 36.8288 182.267 37.0323C181.86 37.2357 181.656 37.6427 181.249 37.8462C180.434 38.4566 179.212 38.66 177.787 38.66C177.38 38.66 177.38 38.4566 177.38 38.2531V37.6427C177.38 37.4392 177.583 37.4392 177.991 37.2357C179.416 36.8288 180.231 36.2184 180.638 36.0149C181.453 35.201 181.86 33.5732 181.86 31.335L181.453 10.5806V10.3772C180.434 10.3772 179.62 10.3772 179.212 10.1737C178.805 9.97022 178.602 9.76675 178.398 9.76675C178.398 9.76675 178.194 9.56328 178.194 9.3598C178.194 9.15633 178.398 8.95285 178.602 8.74938C178.805 8.54591 179.416 8.54591 180.027 8.54591C180.638 8.54591 182.064 8.54591 183.896 8.74938C185.729 8.95285 186.748 9.15633 186.748 9.3598C186.748 9.56328 186.544 9.97022 186.34 9.97022C186.137 10.1737 185.933 10.1737 185.526 10.1737H183.693V10.3772ZM191.839 33.3697L193.468 33.5732C194.079 33.5732 194.486 33.3697 194.894 32.9628C195.301 32.5558 195.505 31.9454 195.708 31.335C196.115 30.1141 196.319 28.8933 196.319 27.8759C196.319 26.8586 196.115 25.8412 195.912 24.8238C195.505 23.8065 195.097 22.9926 194.69 22.1787C194.283 21.3648 193.672 20.5509 193.264 19.5335C192.042 17.4988 191.635 15.464 191.635 13.4293C191.431 12.2084 191.635 11.1911 192.042 10.1737C192.857 8.34243 193.875 7.52854 195.097 7.52854C195.505 7.52854 196.115 7.73201 196.523 7.93548C196.93 8.13896 197.134 8.54591 197.134 8.95285C197.134 9.56328 196.726 9.97022 196.115 9.97022C195.912 9.97022 195.505 9.97022 195.301 9.76675C194.486 9.76675 193.875 10.7841 193.468 12.6154C193.468 13.0223 193.468 13.4293 193.468 14.0397C193.468 14.6501 193.672 15.2605 193.875 16.0744C194.079 16.8883 194.486 17.7022 194.69 18.3127C195.097 18.9231 195.505 19.737 195.912 20.3474C196.319 21.1613 196.726 21.7717 197.134 22.5856C197.948 24.2134 198.356 26.0447 198.356 28.2829C198.356 29.9107 197.948 31.5385 197.134 32.9628C196.726 33.7767 196.319 34.3871 195.505 34.794C194.894 35.201 194.079 35.4045 193.264 35.6079C192.246 35.4045 191.635 34.9975 191.431 33.9802L191.839 33.3697ZM199.781 20.9578C199.985 20.3474 200.188 19.33 200.188 17.4988V13.6328C200.188 12.005 199.985 10.7841 199.781 9.76675C199.985 8.74938 200.392 8.34243 200.799 8.34243H202.632C204.261 8.34243 205.28 8.95285 205.891 10.3772C206.502 11.598 206.705 12.8189 206.705 14.4467C206.705 16.2779 206.705 17.4988 206.502 17.9057C206.502 18.3127 206.298 18.7196 206.298 19.1266C206.094 19.5335 206.094 19.737 205.891 20.1439C205.687 20.3474 205.483 20.5509 205.28 20.9578C205.076 21.1613 204.669 21.5682 204.465 21.7717C203.854 22.1787 203.04 22.5856 202.021 22.7891V27.062L202.429 34.794C202.429 35.201 202.225 35.4045 202.021 35.6079C201.818 35.8114 201.41 36.0149 201.003 36.0149L200.188 35.6079C199.781 34.1836 199.781 32.1489 199.781 29.7072L199.985 22.3821C199.781 21.7717 199.781 21.3648 199.781 20.9578ZM202.225 13.0223V20.9578C203.854 20.7543 204.669 18.5161 204.669 14.0397C204.669 12.8189 204.465 11.8015 204.261 11.3945C203.854 10.9876 203.447 10.5806 202.632 10.5806C202.632 10.5806 202.429 10.5806 202.225 10.5806V13.0223ZM210.575 21.3648V25.8412C210.575 29.5037 210.778 32.3524 211.389 34.3871L210.982 35.4045H209.76L209.149 34.794C209.149 33.5732 209.149 32.1489 209.149 30.7246C209.149 29.3002 208.945 26.0447 208.742 20.9578C208.538 16.0744 208.334 12.2084 208.334 9.76675C208.334 8.54591 208.742 7.93548 209.76 7.93548C211.186 7.93548 212.408 8.34243 213.426 8.95285C214.444 9.76675 214.851 10.7841 214.851 12.2084V15.0571C214.851 15.871 214.648 16.4814 214.444 17.0918C214.24 17.7022 213.833 18.3127 213.426 19.1266C213.018 19.737 212.815 20.1439 212.815 20.3474C213.018 20.9578 213.222 22.3821 213.629 24.2134C214.444 28.4864 215.259 31.5385 216.277 33.3697C216.48 33.9801 216.684 34.3871 216.684 34.5906C216.684 34.794 216.684 35.201 216.481 35.4045C216.277 35.6079 216.073 35.8114 215.87 35.8114C215.259 35.8114 214.851 35.201 214.24 33.7767C213.629 32.5558 213.222 30.928 213.018 29.5037C212 24.6203 211.389 21.9752 211.186 21.5682H210.575V21.3648ZM212.611 10.7841C212.408 9.97022 211.797 9.3598 210.778 9.3598L210.575 9.97022C210.575 10.9876 210.575 12.6154 210.575 14.8536C210.575 16.8883 210.575 18.5161 210.575 19.5335C211.186 19.1266 211.797 18.3127 212.204 16.8883C212.611 15.464 212.815 14.4467 212.815 13.6328C212.815 12.8189 212.815 12.4119 212.815 12.005C212.815 11.598 212.611 11.1911 212.611 10.7841ZM222.183 34.794L219.739 34.5906C219.535 34.5906 219.332 34.5906 218.924 34.794C218.721 34.9975 218.313 34.9975 218.11 34.9975C217.906 34.9975 217.702 34.9975 217.499 34.794C217.295 34.5906 217.091 34.3871 217.091 33.7767C217.091 31.335 217.906 27.062 219.739 21.1613C221.572 15.0571 222.59 11.3945 222.997 9.97022L219.943 10.3772C219.739 10.3772 219.332 10.1737 219.128 9.97022C218.924 9.76675 218.721 9.56328 218.721 9.15633C218.721 8.34243 220.146 7.93548 223.201 7.93548C224.627 7.93548 225.237 8.34243 225.237 9.15633C225.237 10.1737 225.034 11.3945 224.423 13.0223C223.812 14.6501 223.405 15.871 223.405 16.4814C222.997 18.7196 222.386 21.7717 221.368 25.8412C220.35 29.9107 219.739 32.3524 219.535 32.7593H220.146L221.775 32.5558C222.794 32.5558 223.405 32.9628 223.405 33.5732C223.405 33.9801 223.201 34.1836 222.997 34.3871C222.794 34.794 222.59 34.794 222.183 34.794ZM227.07 14.4467L226.867 10.9876C226.867 9.15633 227.478 8.13896 228.496 8.13896C229.31 8.13896 230.125 8.34243 231.551 8.54591C232.773 8.95285 233.383 9.3598 233.383 9.76675C233.383 10.3772 232.976 10.7841 232.162 10.9876C230.94 10.5806 229.921 10.3772 229.107 10.1737C229.107 10.7841 229.107 11.3945 229.107 12.005L228.903 17.9057C228.903 17.9057 228.903 18.1092 229.107 18.5161H230.532C231.754 18.5161 232.569 18.9231 232.569 19.5335C232.569 19.737 232.365 20.1439 232.162 20.3474C231.958 20.5509 231.551 20.7543 231.347 20.7543C230.94 20.7543 230.532 20.7543 230.125 20.7543H229.107C229.107 21.7717 229.31 22.7891 229.31 23.8065L229.107 31.1315C229.107 32.5558 229.107 33.3697 229.107 33.3697H232.162C233.18 33.3697 233.791 33.7767 233.791 34.3871C233.791 34.794 233.587 34.9975 233.18 35.201C232.773 35.4045 232.365 35.4045 231.958 35.4045H228.496C228.089 35.4045 227.885 35.201 227.478 34.9975C227.274 34.794 227.07 34.3871 227.07 34.1836V33.1663L226.867 26.2481L227.07 14.4467ZM237.253 34.794C235.42 33.5732 234.605 30.5211 234.605 25.2308V22.7891V21.7717C234.605 17.7022 234.809 15.0571 235.216 13.4293C235.624 11.3945 236.438 10.1737 237.253 9.3598C238.475 8.34243 239.9 7.73201 241.53 7.73201C241.937 7.73201 242.344 7.73201 242.548 7.93548C242.751 8.13896 242.955 8.34243 242.955 8.74938C242.955 9.15633 242.955 9.3598 242.751 9.56328C242.344 9.97022 242.14 10.1737 241.937 10.1737H240.104C239.493 10.1737 239.086 10.5806 238.678 11.1911C238.271 12.005 238.067 12.8189 237.864 13.8362C237.457 15.871 237.253 17.4988 237.457 18.7196V18.9231L237.253 26.8586C237.253 28.4864 237.253 29.7072 237.457 30.3176C237.66 30.928 237.864 31.5385 238.067 31.9454C238.271 32.3524 238.475 32.7593 238.678 32.9628C239.289 33.5732 240.104 33.7767 241.122 33.7767C241.53 33.7767 241.733 33.5732 241.937 33.3697C242.344 33.3697 242.548 33.3697 242.751 33.5732C242.955 33.7767 243.159 33.9801 243.159 34.1836C243.159 35.201 242.344 35.8114 240.919 35.8114C240.308 35.8114 239.697 35.8114 239.086 35.6079C238.067 35.201 237.66 34.9975 237.253 34.794ZM248.657 21.5682L248.861 30.1141V31.335V32.5558H249.472H250.694C251.712 32.5558 252.323 32.9628 252.323 33.5732C252.323 33.9801 252.119 34.1836 251.916 34.3871C251.712 34.5906 251.305 34.794 250.897 34.794H249.065C247.843 34.794 247.028 34.794 246.621 34.794C246.417 34.794 246.213 34.794 246.213 34.794C245.195 34.794 244.788 34.5906 244.788 33.9802C244.788 33.7767 244.788 33.5732 244.992 33.1663C245.195 32.9628 245.399 32.7593 245.399 32.7593H246.621V32.1489L246.417 23.603L246.621 14.4467C246.621 12.8189 246.621 11.3945 246.417 10.1737H245.603H244.584C244.177 10.1737 243.973 10.1737 243.566 9.97022C243.362 9.76675 243.159 9.56328 243.159 9.15633C243.159 8.54591 243.77 8.13896 245.195 8.13896H250.083C251.101 8.13896 251.712 8.34243 251.712 8.95285C251.712 9.15633 251.508 9.3598 251.305 9.56328C251.101 9.76675 250.694 9.97022 250.49 9.97022H248.454C248.657 10.9876 248.657 12.4119 248.657 13.8362V21.5682ZM264.746 9.3598C264.746 9.15633 264.542 8.95285 264.542 8.74938C264.542 8.13896 264.949 7.73201 265.764 7.73201C266.579 7.73201 266.986 8.13896 266.986 8.74938C266.986 9.56328 266.986 10.1737 266.986 10.3772V10.5806C266.579 11.8015 266.375 13.0223 266.375 14.2432V17.2953C266.375 18.9231 266.171 21.5682 265.764 25.0273C265.357 28.4864 265.153 30.928 265.153 32.3524C265.153 35.201 264.542 36.4218 263.524 36.4218C262.709 36.4218 262.302 35.8114 262.302 34.5906C262.302 33.3697 262.302 32.3524 262.098 31.1315C262.098 29.9107 261.895 28.6898 261.691 27.2655C261.487 25.8412 261.284 24.6203 261.284 23.8065C261.08 22.7891 260.876 21.5682 260.673 19.9404C260.469 18.3127 260.265 17.0918 260.062 16.4814C260.062 17.2953 259.858 18.3127 259.858 19.1266C259.858 19.9404 259.654 21.7717 259.451 24.2134C259.247 26.6551 258.84 29.3002 258.433 31.9454C257.822 34.5906 257.414 35.8114 256.6 35.8114C255.581 35.8114 254.767 32.9628 254.156 27.2655C253.952 24.8238 253.749 22.3821 253.545 19.9404C253.138 13.6328 252.73 10.1737 252.323 9.3598C252.527 8.95285 252.934 8.54591 253.545 8.54591C254.359 8.54591 254.767 9.56328 254.767 11.598C254.767 13.6328 254.97 16.4814 255.581 20.5509C256.192 24.6203 256.396 27.469 256.6 29.3002C257.822 21.3648 258.229 15.464 258.229 11.3945L259.247 10.9876C259.654 10.9876 259.858 10.9876 260.062 11.1911C260.265 11.3945 260.469 11.598 260.469 12.005V12.4119C261.284 15.0571 261.895 18.7196 262.302 23.8065C262.506 26.0447 262.709 27.8759 262.913 29.0968C263.32 25.4342 263.727 20.7543 263.727 15.6675C263.727 15.0571 263.931 14.0397 264.135 12.6154C264.746 11.1911 264.746 10.1737 264.746 9.3598ZM276.761 21.5682L276.965 30.1141V31.335V32.5558H277.576H278.798C279.816 32.5558 280.427 32.9628 280.427 33.5732C280.427 33.9801 280.223 34.1836 280.019 34.3871C279.816 34.5906 279.409 34.794 279.001 34.794H277.168C275.946 34.794 275.132 34.794 274.725 34.794C274.521 34.794 274.317 34.794 274.317 34.794C273.299 34.794 272.892 34.5906 272.892 33.9802C272.892 33.7767 272.892 33.5732 273.095 33.1663C273.299 32.9628 273.503 32.7593 273.503 32.7593H274.725V32.1489L274.521 23.603L274.725 14.4467C274.725 12.8189 274.725 11.3945 274.521 10.1737H273.706H272.688C272.281 10.1737 272.077 10.1737 271.67 9.97022C271.466 9.76675 271.262 9.56328 271.262 9.15633C271.262 8.54591 271.873 8.13896 273.299 8.13896H278.187C279.205 8.13896 279.816 8.34243 279.816 8.95285C279.816 9.15633 279.612 9.3598 279.409 9.56328C279.205 9.76675 278.798 9.97022 278.594 9.97022H276.557C276.761 10.9876 276.761 12.4119 276.761 13.8362V21.5682ZM285.314 18.7196L285.518 11.1911C285.518 9.97022 285.925 8.95285 286.944 8.13896V8.34243C287.147 8.34243 287.147 8.34243 287.147 8.34243C287.758 8.34243 288.573 9.3598 289.591 11.598C290.609 13.8362 291.424 16.2779 292.238 18.7196C293.053 21.3648 293.868 24.0099 294.479 26.6551C295.293 29.3002 295.701 30.928 295.904 31.335C296.515 25.6377 296.719 18.7196 296.719 10.7841V9.76675C296.719 8.95285 297.126 8.54591 297.737 8.54591C298.144 8.54591 298.348 8.74938 298.552 8.95285C298.755 9.3598 298.755 9.56328 298.755 9.97022V13.0223C298.755 16.2779 298.552 20.5509 298.348 25.8412C298.144 31.1315 297.737 34.1836 297.33 34.794C296.515 34.9975 296.108 35.201 295.701 35.201C295.497 35.201 295.293 35.201 295.09 34.9975C294.886 34.794 294.886 34.5906 294.682 34.1836C294.682 33.7767 294.479 33.5732 294.479 33.3697V33.1663C294.479 32.1489 293.46 28.8933 291.628 23.603C289.591 18.3127 288.165 14.4467 287.351 12.4119V32.9628C287.351 32.9628 287.351 33.1663 287.555 33.1663C287.758 33.3697 287.758 33.7767 287.758 33.9802C287.758 34.1836 287.555 34.3871 287.351 34.794C287.147 34.9975 286.74 35.201 286.536 35.201C285.722 35.201 285.111 34.3871 285.111 32.7593L285.314 18.7196ZM309.956 26.8586L310.363 29.3002C310.363 29.7072 310.567 30.5211 310.771 31.7419C310.974 32.9628 311.178 33.7767 311.178 34.1836C311.178 34.794 310.974 35.201 310.567 35.4045C309.956 35.4045 309.549 35.4045 309.142 35.201C308.734 34.9975 308.734 34.5906 308.734 34.1836C308.734 32.9628 308.531 31.335 308.123 29.0968L304.05 28.4864C303.847 29.3002 303.643 30.3176 303.439 31.5385C303.236 32.5558 303.236 33.3697 303.032 33.9802C302.828 34.9975 302.421 35.4045 301.606 35.4045C301.199 35.4045 300.995 35.201 300.792 34.9975C300.588 34.794 300.385 34.5906 300.385 34.1836V33.7767C302.217 26.6551 303.643 19.9404 304.458 13.2258C304.458 13.0223 304.458 12.4119 304.661 11.598C304.865 9.56328 305.068 8.34243 305.476 7.73201H306.901C307.309 7.73201 307.512 7.73201 307.92 7.93548C308.123 8.13896 308.327 8.34243 308.327 8.74938C308.327 10.7841 308.531 13.8362 309.142 17.9057C309.549 22.1787 309.956 25.0273 309.956 26.8586ZM304.254 27.062C304.661 27.2655 305.883 27.6725 307.92 27.6725C307.92 27.2655 307.716 26.6551 307.716 25.6377C307.716 24.6203 307.716 23.3995 307.512 21.9752C307.309 20.5509 307.309 18.7196 307.105 16.8883C306.901 14.8536 306.698 13.6328 306.698 12.6154C305.272 19.33 304.458 24.2134 304.254 27.062ZM316.88 34.794L314.436 34.5906C314.233 34.5906 314.029 34.5906 313.622 34.794C313.418 34.9975 313.011 34.9975 312.807 34.9975C312.604 34.9975 312.4 34.9975 312.196 34.794C311.993 34.5906 311.789 34.3871 311.789 33.7767C311.789 31.335 312.604 27.062 314.436 21.1613C316.269 15.0571 317.288 11.3945 317.695 9.97022L314.436 10.1737C314.233 10.1737 313.825 9.97022 313.622 9.76675C313.622 9.76675 313.622 9.56328 313.622 9.15633C313.622 8.34243 315.047 7.93548 318.102 7.93548C319.528 7.93548 320.139 8.34243 320.139 9.15633C320.139 10.1737 319.935 11.3945 319.324 13.0223C318.713 14.6501 318.306 15.871 318.306 16.4814C317.898 18.7196 317.288 21.7717 316.269 25.8412C315.251 29.9107 314.64 32.3524 314.436 32.7593H315.047L316.677 32.5558C317.695 32.5558 318.306 32.9628 318.306 33.5732C318.306 33.9801 318.102 34.1836 317.898 34.3871C317.491 34.794 317.288 34.794 316.88 34.794ZM332.969 9.3598C332.969 9.15633 332.765 8.95285 332.765 8.74938C332.765 8.13896 333.172 7.73201 333.987 7.73201C334.801 7.73201 335.209 8.13896 335.209 8.74938C335.209 9.56328 335.209 10.1737 335.209 10.3772V10.5806C334.801 11.8015 334.598 13.0223 334.598 14.2432V17.2953C334.598 18.9231 334.394 21.5682 333.987 25.0273C333.58 28.4864 333.376 30.928 333.376 32.3524C333.376 35.201 332.765 36.4218 331.747 36.4218C330.932 36.4218 330.525 35.8114 330.525 34.5906C330.525 33.3697 330.525 32.3524 330.321 31.1315C330.321 29.9107 330.117 28.6898 329.914 27.2655C329.71 25.8412 329.507 24.6203 329.507 23.8065C329.303 22.7891 329.099 21.5682 328.896 19.9404C328.692 18.3127 328.488 17.0918 328.285 16.4814C328.285 17.2953 328.081 18.3127 328.081 19.1266C328.081 19.9404 327.877 21.7717 327.674 24.2134C327.47 26.6551 327.063 29.3002 326.655 31.9454C326.044 34.5906 325.637 35.8114 324.823 35.8114C323.804 35.8114 322.99 32.9628 322.379 27.2655C322.175 24.8238 321.971 22.3821 321.768 19.9404C321.361 13.6328 320.953 10.1737 320.546 9.3598C320.75 8.95285 321.157 8.54591 321.768 8.54591C322.582 8.54591 322.99 9.56328 322.99 11.598C322.99 13.6328 323.193 16.4814 323.804 20.5509C324.415 24.6203 324.619 27.469 324.823 29.3002C326.044 21.3648 326.452 15.464 326.452 11.3945L327.47 10.9876C327.877 10.9876 328.081 10.9876 328.285 11.1911C328.488 11.3945 328.692 11.598 328.692 12.005V12.4119C329.507 15.0571 330.117 18.7196 330.525 23.8065C330.728 26.0447 330.932 27.8759 331.136 29.0968C331.543 25.4342 331.95 20.7543 331.95 15.6675C331.95 15.0571 332.154 14.0397 332.358 12.6154C332.765 11.1911 332.969 10.1737 332.969 9.3598ZM340.911 21.5682L341.115 30.1141V31.335V32.5558H341.726H342.947C343.966 32.5558 344.577 32.9628 344.577 33.5732C344.577 33.9801 344.373 34.1836 344.169 34.3871C343.966 34.5906 343.558 34.794 343.151 34.794H341.318C340.096 34.794 339.282 34.794 338.874 34.794C338.671 34.794 338.467 34.794 338.467 34.794C337.449 34.794 337.042 34.5906 337.042 33.9802C337.042 33.7767 337.042 33.5732 337.245 33.1663C337.449 32.9628 337.653 32.7593 337.653 32.7593H338.874V32.1489L338.671 23.603L338.874 14.4467C338.874 12.8189 338.874 11.3945 338.671 10.1737H338.06H337.042C336.634 10.1737 336.431 10.1737 336.023 9.97022C335.82 9.76675 335.616 9.56328 335.616 9.15633C335.616 8.54591 336.227 8.13896 337.653 8.13896H342.54C343.558 8.13896 344.169 8.34243 344.169 8.95285C344.169 9.15633 343.966 9.3598 343.762 9.56328C343.558 9.76675 343.151 9.97022 342.947 9.97022H340.911C341.115 10.9876 341.115 12.4119 341.115 13.8362L340.911 21.5682ZM346.206 14.4467L346.002 10.9876C346.002 9.15633 346.613 8.13896 347.631 8.13896C348.446 8.13896 349.261 8.34243 350.686 8.54591C351.908 8.95285 352.519 9.3598 352.519 9.76675C352.519 10.3772 352.112 10.7841 351.297 10.9876C350.075 10.5806 349.057 10.3772 348.242 10.1737C348.242 10.7841 348.242 11.3945 348.242 12.005L348.039 17.9057C348.039 17.9057 348.039 18.1092 348.242 18.5161H349.668C350.89 18.5161 351.704 18.9231 351.704 19.5335C351.704 19.737 351.501 20.1439 351.297 20.3474C351.094 20.5509 350.686 20.7543 350.483 20.7543C350.075 20.7543 349.668 20.7543 349.261 20.7543H348.242C348.242 21.7717 348.446 22.7891 348.446 23.8065L348.242 31.1315C348.242 32.5558 348.242 33.3697 348.242 33.3697H351.297C352.315 33.3697 352.926 33.7767 352.926 34.3871C352.926 34.794 352.723 34.9975 352.315 35.201C351.908 35.4045 351.501 35.4045 351.093 35.4045H347.631C347.224 35.4045 347.02 35.201 346.613 34.9975C346.41 34.794 346.206 34.3871 346.206 34.1836V33.1663L346.002 26.2481L346.206 14.4467ZM354.148 33.3697L355.777 33.5732C356.388 33.5732 356.796 33.3697 357.203 32.9628C357.61 32.5558 357.814 31.9454 358.018 31.335C358.425 30.1141 358.629 28.8933 358.629 27.8759C358.629 26.8586 358.425 25.8412 358.221 24.8238C357.814 23.8065 357.407 22.9926 356.999 22.1787C356.592 21.3648 355.981 20.5509 355.574 19.5335C354.352 17.4988 353.945 15.464 353.945 13.4293C353.945 12.2084 354.148 11.1911 354.556 10.1737C355.37 8.34243 356.388 7.52854 357.61 7.52854C358.018 7.52854 358.629 7.73201 359.036 7.93548C359.443 8.13896 359.647 8.54591 359.647 8.95285C359.647 9.56328 359.24 9.97022 358.629 9.97022C358.425 9.97022 358.018 9.97022 357.814 9.76675C356.999 9.76675 356.388 10.7841 355.981 12.6154C355.981 13.0223 355.981 13.4293 355.981 14.0397C355.981 14.6501 356.185 15.2605 356.388 16.0744C356.592 16.8883 356.999 17.7022 357.203 18.3127C357.61 18.9231 358.018 19.737 358.425 20.3474C358.832 21.1613 359.24 21.7717 359.647 22.5856C360.461 24.2134 360.869 26.0447 360.869 28.2829C360.869 29.9107 360.461 31.5385 359.647 32.9628C359.24 33.7767 358.832 34.3871 358.018 34.794C357.407 35.201 356.592 35.4045 355.777 35.6079C354.759 35.4045 354.148 34.9975 353.945 33.9802L354.148 33.3697ZM366.367 34.794L363.923 34.5906C363.72 34.5906 363.516 34.5906 363.109 34.794C362.905 34.9975 362.498 34.9975 362.294 34.9975C362.091 34.9975 361.887 34.9975 361.683 34.794C361.48 34.5906 361.276 34.3871 361.276 33.7767C361.276 31.335 362.091 27.062 363.923 21.1613C365.756 15.0571 366.775 11.3945 367.182 9.97022L363.923 10.1737C363.72 10.1737 363.313 9.97022 363.109 9.76675C362.905 9.56328 362.702 9.3598 362.702 8.95285C362.702 8.13896 364.127 7.73201 367.182 7.73201C368.607 7.73201 369.218 8.13896 369.218 8.95285C369.218 9.97022 369.015 11.1911 368.404 12.8189C367.793 14.4467 367.386 15.6675 367.386 16.2779C366.978 18.5161 366.367 21.5682 365.349 25.6377C364.331 29.7072 363.72 32.1489 363.516 32.5558H364.127L365.756 32.3524C366.775 32.3524 367.386 32.7593 367.386 33.3697C367.386 33.7767 367.182 33.9801 366.978 34.1836C367.182 34.794 366.775 34.794 366.367 34.794ZM374.717 20.9578C374.921 20.3474 375.124 19.33 375.124 17.4988V13.6328C375.124 12.005 374.921 10.7841 374.717 9.76675C374.921 8.74938 375.328 8.34243 375.735 8.34243H377.568C379.197 8.34243 380.216 8.95285 380.826 10.3772C381.437 11.598 381.641 12.8189 381.641 14.4467C381.641 16.2779 381.641 17.4988 381.437 17.9057C381.437 18.3127 381.234 18.7196 381.234 19.1266C381.03 19.5335 381.03 19.737 380.826 20.1439C380.623 20.3474 380.419 20.5509 380.216 20.9578C380.012 21.1613 379.605 21.5682 379.401 21.7717C378.79 22.1787 377.975 22.5856 376.957 22.7891V27.062L377.364 34.794C377.364 35.201 377.161 35.4045 376.957 35.6079C376.753 35.8114 376.346 36.0149 375.939 36.0149L375.124 35.6079C374.717 34.1836 374.717 32.1489 374.717 29.7072L374.921 22.3821C374.921 21.7717 374.717 21.3648 374.717 20.9578ZM377.161 13.0223V20.9578C378.79 20.7543 379.605 18.5161 379.605 14.0397C379.605 12.8189 379.401 11.8015 379.197 11.3945C378.79 10.9876 378.383 10.5806 377.568 10.5806C377.568 10.5806 377.364 10.5806 377.161 10.5806V13.0223ZM385.51 21.3648V25.8412C385.51 29.5037 385.714 32.3524 386.325 34.3871L385.918 35.4045H384.696L384.085 34.794C384.085 33.5732 384.085 32.1489 384.085 30.7246C384.085 29.3002 383.881 26.0447 383.678 20.9578C383.474 16.0744 383.27 12.2084 383.27 9.76675C383.27 8.54591 383.678 7.93548 384.696 7.93548C386.121 7.93548 387.343 8.34243 388.362 8.95285C389.38 9.76675 389.787 10.7841 389.787 12.2084V15.0571C389.787 15.871 389.583 16.4814 389.38 17.0918C389.176 17.7022 388.769 18.3127 388.362 19.1266C387.954 19.737 387.751 20.1439 387.751 20.3474C387.954 20.9578 388.158 22.3821 388.565 24.2134C389.38 28.4864 390.194 31.5385 391.213 33.3697C391.416 33.9801 391.62 34.3871 391.62 34.5906C391.62 34.794 391.62 35.201 391.416 35.4045C391.213 35.6079 391.009 35.8114 390.805 35.8114C390.194 35.8114 389.787 35.201 389.176 33.7767C388.565 32.5558 388.158 30.928 387.954 29.5037C386.936 24.6203 386.325 21.9752 386.121 21.5682H385.51V21.3648ZM387.547 10.7841C387.343 9.97022 386.732 9.3598 385.714 9.3598L385.51 9.97022C385.51 10.9876 385.51 12.6154 385.51 14.8536C385.51 16.8883 385.51 18.5161 385.51 19.5335C386.121 19.1266 386.732 18.3127 387.14 16.8883C387.547 15.464 387.751 14.4467 387.751 13.6328C387.751 12.8189 387.751 12.4119 387.751 12.005C387.751 11.598 387.751 11.1911 387.547 10.7841ZM397.322 34.794L394.878 34.5906C394.675 34.5906 394.471 34.5906 394.064 34.794C393.86 34.9975 393.453 34.9975 393.249 34.9975C393.046 34.9975 392.842 34.9975 392.638 34.794C392.435 34.5906 392.231 34.3871 392.231 33.7767C392.231 31.335 393.046 27.062 394.878 21.1613C396.711 15.0571 397.729 11.3945 398.137 9.97022L395.082 10.3772C394.878 10.3772 394.471 10.1737 394.267 9.97022C394.064 9.76675 393.86 9.56328 393.86 9.15633C393.86 8.34243 395.286 7.93548 398.34 7.93548C399.766 7.93548 400.377 8.34243 400.377 9.15633C400.377 10.1737 400.173 11.3945 399.562 13.0223C398.951 14.6501 398.544 15.871 398.544 16.4814C398.137 18.7196 397.526 21.7717 396.508 25.8412C395.489 29.9107 394.878 32.3524 394.675 32.7593H395.286L396.915 32.5558C397.933 32.5558 398.544 32.9628 398.544 33.5732C398.544 33.9801 398.34 34.1836 398.137 34.3871C397.933 34.794 397.526 34.794 397.322 34.794ZM402.21 14.4467L402.006 10.9876C402.006 9.15633 402.617 8.13896 403.635 8.13896C404.45 8.13896 405.265 8.34243 406.69 8.54591C407.912 8.95285 408.523 9.3598 408.523 9.76675C408.523 10.3772 408.116 10.7841 407.301 10.9876C406.079 10.5806 405.061 10.3772 404.246 10.1737C404.246 10.7841 404.246 11.3945 404.246 12.005L404.043 17.9057C404.043 17.9057 404.043 18.1092 404.246 18.5161H405.672C406.894 18.5161 407.708 18.9231 407.708 19.5335C407.708 19.737 407.505 20.1439 407.301 20.3474C407.097 20.5509 406.69 20.7543 406.486 20.7543C406.079 20.7543 405.672 20.7543 405.265 20.7543H404.246C404.246 21.7717 404.45 22.7891 404.45 23.8065L404.246 31.1315C404.246 32.5558 404.246 33.3697 404.246 33.3697H407.301C408.319 33.3697 408.93 33.7767 408.93 34.3871C408.93 34.794 408.727 34.9975 408.319 35.201C407.912 35.4045 407.505 35.4045 407.097 35.4045H403.635C403.228 35.4045 403.024 35.201 402.617 34.9975C402.413 34.794 402.21 34.3871 402.21 34.1836V33.1663L402.006 26.2481L402.21 14.4467ZM415.243 10.3772L415.651 27.469V31.7419C415.651 33.1663 415.447 33.9801 415.243 34.5906C415.04 35.201 414.836 35.6079 414.632 36.0149C414.429 36.4218 414.225 36.8288 413.818 37.0323C413.411 37.2357 413.207 37.6427 412.8 37.8462C411.985 38.4566 410.763 38.66 409.338 38.66C408.93 38.66 408.93 38.4566 408.93 38.2531V37.6427C408.93 37.4392 409.134 37.4392 409.541 37.2357C410.967 36.8288 411.781 36.2184 412.189 36.0149C413.003 35.201 413.411 33.5732 413.411 31.335L413.003 10.5806V10.3772C411.985 10.3772 411.17 10.3772 410.763 10.1737C410.356 9.97022 410.152 9.76675 409.949 9.76675C409.949 9.76675 409.745 9.56328 409.745 9.3598C409.745 9.15633 409.948 8.95285 410.152 8.74938C410.356 8.54591 410.967 8.54591 411.578 8.54591C412.189 8.54591 413.614 8.54591 415.447 8.74938C417.28 8.95285 418.298 9.15633 418.298 9.3598C418.298 9.56328 418.095 9.97022 417.891 9.97022C417.687 10.1737 417.484 10.1737 417.076 10.1737H415.243V10.3772ZM428.481 26.8586L428.888 29.3002C428.888 29.7072 429.092 30.5211 429.295 31.7419C429.499 32.9628 429.703 33.7767 429.703 34.1836C429.703 34.794 429.499 35.201 429.092 35.4045C428.481 35.4045 428.073 35.4045 427.666 35.201C427.259 34.9975 427.259 34.5906 427.259 34.1836C427.259 32.9628 427.055 31.335 426.648 29.0968L422.575 28.4864C422.371 29.3002 422.168 30.3176 421.964 31.5385C421.76 32.5558 421.76 33.3697 421.557 33.9802C421.353 34.9975 420.946 35.4045 420.131 35.4045C419.724 35.4045 419.52 35.201 419.316 34.9975C419.113 34.794 418.909 34.5906 418.909 34.1836V33.7767C420.742 26.6551 422.168 19.9404 422.982 13.2258C422.982 13.0223 422.982 12.4119 423.186 11.598C423.389 9.56328 423.593 8.34243 424 7.73201H425.426C425.833 7.73201 426.037 7.73201 426.444 7.93548C426.648 8.13896 426.852 8.34243 426.852 8.74938C426.852 10.7841 427.055 13.8362 427.666 17.9057C428.277 22.1787 428.481 25.0273 428.481 26.8586ZM422.779 27.062C423.186 27.2655 424.408 27.6725 426.444 27.6725C426.444 27.2655 426.241 26.6551 426.241 25.6377C426.241 24.6203 426.241 23.3995 426.037 21.9752C425.833 20.5509 425.833 18.7196 425.63 16.8883C425.426 14.8536 425.222 13.6328 425.222 12.6154C424 19.33 423.186 24.2134 422.779 27.062ZM441.922 9.3598C441.922 9.15633 441.718 8.95285 441.718 8.74938C441.718 8.13896 442.125 7.73201 442.94 7.73201C443.754 7.73201 444.162 8.13896 444.162 8.74938C444.162 9.56328 444.162 10.1737 444.162 10.3772V10.5806C443.754 11.8015 443.551 13.0223 443.551 14.2432V17.2953C443.551 18.9231 443.347 21.5682 442.94 25.0273C442.533 28.4864 442.329 30.928 442.329 32.3524C442.329 35.201 441.718 36.4218 440.7 36.4218C439.885 36.4218 439.478 35.8114 439.478 34.5906C439.478 33.3697 439.478 32.3524 439.274 31.1315C439.274 29.9107 439.071 28.6898 438.867 27.2655C438.663 25.8412 438.46 24.6203 438.46 23.8065C438.256 22.7891 438.052 21.5682 437.849 19.9404C437.645 18.3127 437.441 17.0918 437.238 16.4814C437.238 17.2953 437.034 18.3127 437.034 19.1266C437.034 19.9404 436.83 21.7717 436.627 24.2134C436.423 26.6551 436.016 29.3002 435.608 31.9454C434.997 34.5906 434.59 35.8114 433.776 35.8114C432.757 35.8114 431.943 32.9628 431.332 27.2655C431.128 24.8238 430.924 22.3821 430.721 19.9404C430.314 13.6328 429.906 10.1737 429.499 9.3598C429.703 8.95285 430.11 8.54591 430.721 8.54591C431.535 8.54591 431.943 9.56328 431.943 11.598C431.943 13.6328 432.146 16.4814 432.757 20.5509C433.368 24.6203 433.572 27.469 433.776 29.3002C434.998 21.3648 435.405 15.464 435.405 11.3945L436.423 10.9876C436.83 10.9876 437.034 10.9876 437.238 11.1911C437.441 11.3945 437.645 11.598 437.645 12.005V12.4119C438.46 15.0571 439.071 18.7196 439.478 23.8065C439.681 26.0447 439.885 27.8759 440.089 29.0968C440.496 25.4342 440.903 20.7543 440.903 15.6675C440.903 15.0571 441.107 14.0397 441.311 12.6154C441.922 11.1911 441.922 10.1737 441.922 9.3598ZM451.493 32.9628C451.493 34.794 451.086 35.6079 450.068 35.6079C449.66 35.6079 449.253 35.4045 448.846 34.794C449.049 34.1836 449.253 31.9454 449.253 27.8759C449.253 27.062 449.253 26.0447 449.049 24.8238C448.846 23.3995 448.846 22.5856 448.846 21.9752V20.9578C448.846 20.7543 448.438 19.737 447.624 17.7022C445.791 13.2258 444.976 10.3772 444.976 9.56328V9.3598L445.791 8.74938C446.606 8.74938 447.624 10.7841 448.846 15.0571C449.253 16.8883 449.66 17.9057 449.66 17.9057C449.864 17.7022 450.068 16.6849 450.271 14.8536C451.086 10.3772 451.9 8.34243 452.919 8.34243C453.122 8.34243 453.326 8.34243 453.53 8.54591C453.733 8.74938 453.937 8.95285 453.937 9.15633C453.937 10.5806 453.53 12.4119 452.715 15.0571C451.901 17.7022 451.493 19.5335 451.493 20.9578V32.9628Z" fill="black"/>
</g>
<path d="M476.992 37.2357C476.178 37.2357 475.77 36.4218 475.77 34.5906V29.3003C475.77 28.0794 475.77 26.2481 475.567 24.0099C475.159 21.7717 475.159 20.3474 475.159 19.5335C475.159 18.7196 475.159 17.7022 475.159 16.6849C475.159 15.464 475.159 14.6501 475.159 14.2432C474.956 14.6501 474.549 16.4814 473.734 19.9404C471.697 28.6898 470.272 33.1663 469.254 33.1663C468.643 33.1663 468.235 32.9628 468.032 32.7593C467.828 32.5558 467.624 31.9454 467.624 31.5385C467.624 30.3176 467.217 27.6725 466.199 23.603C465.181 19.5335 464.366 16.4814 463.551 14.4467C462.94 24.0099 462.737 30.5211 462.737 33.7767V34.9975C462.737 35.4045 462.737 35.8114 462.533 36.0149C462.329 36.2184 462.126 36.4218 461.719 36.4218C461.311 36.4218 460.904 36.4218 460.7 36.2184C460.497 36.0149 460.293 35.8114 460.293 35.6079C460.293 32.7593 460.497 28.6898 460.904 23.196C461.311 17.7022 461.515 13.4293 461.515 10.7841C461.311 10.5806 461.311 10.1737 461.311 9.97022C461.311 9.56328 461.515 9.3598 461.719 9.3598C462.126 9.15633 462.329 9.15633 462.737 9.15633C463.348 9.15633 464.57 11.8015 466.199 17.2953C467.828 22.7891 469.05 26.4516 469.457 28.6898C469.661 28.2829 469.865 27.2655 470.272 25.6377C470.679 24.0099 471.086 22.3821 471.494 20.5509C471.901 18.7196 472.308 17.0918 472.919 15.2605C474.141 11.1911 474.956 9.15633 475.77 9.15633C476.178 9.15633 476.381 9.15633 476.789 9.3598C477.196 9.56328 477.196 9.76675 477.196 10.1737C477.196 12.2084 477.196 15.0571 477.4 18.9231C477.603 22.7891 477.603 25.6377 477.603 27.469V31.7419C477.603 31.9454 477.603 32.9628 477.807 34.5906V35.4045C478.011 35.6079 478.011 36.0149 478.011 36.4218C478.011 36.8288 477.807 37.0323 477.603 37.4392C477.807 37.0323 477.4 37.2357 476.992 37.2357ZM480.047 28.6898C479.843 26.4516 479.64 24.4169 479.64 22.5856V20.9578C479.64 20.7543 479.64 20.7543 479.64 20.7543V19.9404C479.64 15.6675 479.843 12.6154 480.454 10.7841C480.862 9.3598 481.269 8.34243 481.676 7.93548C482.084 7.52854 482.491 7.32506 482.898 7.32506C485.953 7.32506 488.193 8.95285 489.415 12.005C490.026 13.8362 490.433 16.0744 490.433 18.7196V18.9231V23.603C490.433 31.335 488.6 35.4045 484.935 35.4045C483.509 35.4045 482.287 34.5906 481.473 32.9628C480.862 31.7419 480.251 30.1141 480.047 28.6898ZM482.084 17.0918L481.88 20.7543C481.88 24.6204 482.287 28.0794 482.898 31.1315C483.509 32.7593 484.12 33.7767 484.731 34.1836C485.138 34.1836 485.749 33.9802 486.157 33.5732C486.564 33.1663 486.768 32.5558 487.175 31.9454C487.378 31.335 487.582 30.5211 487.786 29.9107C487.989 29.0968 487.989 28.4864 488.193 27.469C488.397 26.0447 488.397 24.8238 488.397 23.8065C488.397 22.7891 488.397 21.1613 488.193 19.1266C487.989 17.0918 487.989 15.464 487.989 14.4467V13.6328C487.989 12.6154 487.582 11.8015 486.971 10.9876C486.36 10.1737 485.546 9.76675 484.527 9.76675C483.509 9.76675 482.898 10.3772 482.695 11.3945C482.491 12.2084 482.287 13.4293 482.287 14.6501L482.084 17.0918ZM503.06 9.3598C503.06 9.15633 502.856 8.95285 502.856 8.74938C502.856 8.13896 503.263 7.73201 504.078 7.73201C504.892 7.73201 505.3 8.13896 505.3 8.74938C505.3 9.56328 505.3 10.1737 505.3 10.3772V10.5806C504.892 11.8015 504.689 13.0223 504.689 14.2432V17.2953C504.689 18.9231 504.485 21.5682 504.078 25.0273C503.671 28.4864 503.467 30.928 503.467 32.3524C503.467 35.201 502.856 36.4218 501.838 36.4218C501.023 36.4218 500.616 35.8114 500.616 34.5906C500.616 33.3697 500.616 32.3524 500.412 31.1315C500.412 29.9107 500.208 28.6898 500.005 27.2655C499.801 25.8412 499.598 24.6204 499.598 23.8065C499.394 22.7891 499.19 21.5682 498.987 19.9404C498.783 18.3127 498.579 17.0918 498.376 16.4814C498.376 17.2953 498.172 18.3127 498.172 19.1266C498.172 19.9404 497.968 21.7717 497.765 24.2134C497.561 26.6551 497.154 29.3003 496.746 31.9454C496.135 34.5906 495.728 35.8114 494.914 35.8114C493.895 35.8114 493.081 32.9628 492.47 27.2655C492.266 24.8238 492.062 22.3821 491.859 19.9404C491.451 13.6328 491.044 10.1737 490.637 9.3598C490.841 8.95286 491.248 8.54591 491.859 8.54591C492.673 8.54591 493.081 9.56328 493.081 11.598C493.081 13.6328 493.284 16.4814 493.895 20.5509C494.506 24.6203 494.71 27.469 494.914 29.3003C496.135 21.3648 496.543 15.464 496.543 11.3945L497.561 10.9876C497.968 10.9876 498.172 10.9876 498.376 11.1911C498.579 11.3945 498.783 11.598 498.783 12.005V12.4119C499.598 15.0571 500.208 18.7196 500.616 23.8065C500.819 26.0447 501.023 27.8759 501.227 29.0968C501.634 25.4342 502.041 20.7543 502.041 15.6675C502.041 15.0571 502.245 14.0397 502.449 12.6154C502.856 11.1911 503.06 10.1737 503.06 9.3598ZM512.428 32.9628C512.428 34.7941 512.02 35.6079 511.002 35.6079C510.595 35.6079 510.187 35.4045 509.78 34.794C509.984 34.1836 510.187 31.9454 510.187 27.8759C510.187 27.062 510.187 26.0447 509.984 24.8238C509.78 23.3995 509.78 22.5856 509.78 21.9752V20.9578C509.78 20.7543 509.373 19.737 508.558 17.7022C506.725 13.2258 505.911 10.3772 505.911 9.56328V9.3598L506.725 8.74938C507.54 8.74938 508.558 10.7841 509.78 15.0571C510.187 16.8883 510.595 17.9057 510.595 17.9057C510.798 17.7022 511.002 16.6849 511.206 14.8536C512.02 10.3772 512.835 8.34243 513.853 8.34243C514.057 8.34243 514.26 8.34243 514.464 8.54591C514.668 8.74938 514.871 8.95286 514.871 9.15633C514.871 10.5806 514.464 12.4119 513.649 15.0571C512.835 17.7022 512.428 19.5335 512.428 20.9578V32.9628ZM519.963 18.7196L520.166 11.1911C520.166 9.97022 520.574 8.95286 521.592 8.13896V8.34243C521.795 8.34243 521.795 8.34243 521.795 8.34243C522.406 8.34243 523.221 9.3598 524.239 11.598C525.257 13.8362 526.072 16.2779 526.887 18.7196C527.701 21.3648 528.516 24.0099 529.127 26.6551C529.941 29.3002 530.349 30.928 530.552 31.335C531.163 25.6377 531.367 18.7196 531.367 10.7841V9.76675C531.367 8.95285 531.774 8.54591 532.385 8.54591C532.793 8.54591 532.996 8.74938 533.2 8.95285C533.403 9.3598 533.403 9.56328 533.403 9.97022V13.0223C533.403 16.2779 533.2 20.5509 532.996 25.8412C532.793 31.1315 532.385 34.1836 531.978 34.794C531.163 34.9975 530.756 35.201 530.349 35.201C530.145 35.201 529.941 35.201 529.738 34.9975C529.534 34.7941 529.534 34.5906 529.33 34.1836C529.33 33.7767 529.127 33.5732 529.127 33.3697V33.1663C529.127 32.1489 528.109 28.8933 526.276 23.603C524.239 18.3127 522.814 14.4467 521.999 12.4119V32.9628C521.999 32.9628 521.999 33.1663 522.203 33.1663C522.406 33.3697 522.406 33.7767 522.406 33.9802C522.406 34.1836 522.203 34.3871 521.999 34.794C521.795 34.9975 521.388 35.201 521.184 35.201C520.37 35.201 519.759 34.3871 519.759 32.7593L519.963 18.7196ZM539.92 21.5682L540.124 30.1141V31.335V32.5558H540.735H541.957C542.975 32.5558 543.586 32.9628 543.586 33.5732C543.586 33.9802 543.382 34.1836 543.179 34.3871C542.975 34.5906 542.568 34.794 542.16 34.794H540.328C539.106 34.794 538.291 34.794 537.884 34.794C537.68 34.794 537.477 34.794 537.477 34.794C536.458 34.794 536.051 34.5906 536.051 33.9802C536.051 33.7767 536.051 33.5732 536.255 33.1663C536.458 32.9628 536.662 32.7593 536.662 32.7593H537.884V32.1489L537.68 23.603L537.884 14.4467C537.884 12.8189 537.884 11.3945 537.68 10.1737H536.866H535.847C535.44 10.1737 535.236 10.1737 534.829 9.97022C534.625 9.76675 534.422 9.56328 534.422 9.15633C534.422 8.54591 535.033 8.13896 536.458 8.13896H541.346C542.364 8.13896 542.975 8.34243 542.975 8.95285C542.975 9.15633 542.771 9.3598 542.568 9.56328C542.364 9.76675 541.957 9.97022 541.753 9.97022H539.717C539.92 10.9876 539.92 12.4119 539.92 13.8362V21.5682ZM545.012 14.4467L544.808 10.9876C544.808 9.15633 545.419 8.13896 546.437 8.13896C547.252 8.13896 548.066 8.34243 549.492 8.54591C550.714 8.95286 551.325 9.3598 551.325 9.76675C551.325 10.3772 550.917 10.7841 550.103 10.9876C548.881 10.5806 547.863 10.3772 547.048 10.1737C547.048 10.7841 547.048 11.3945 547.048 12.005L546.844 17.9057C546.844 17.9057 546.844 18.1092 547.048 18.5161H548.474C549.696 18.5161 550.51 18.9231 550.51 19.5335C550.51 19.737 550.306 20.1439 550.103 20.3474C549.899 20.5509 549.492 20.7543 549.288 20.7543C548.881 20.7543 548.474 20.7543 548.066 20.7543H547.048C547.048 21.7717 547.252 22.7891 547.252 23.8065L547.048 31.1315C547.048 32.5558 547.048 33.3697 547.048 33.3697H550.103C551.121 33.3697 551.732 33.7767 551.732 34.3871C551.732 34.7941 551.528 34.9975 551.121 35.201C550.714 35.4045 550.306 35.4045 549.899 35.4045H546.437C546.03 35.4045 545.826 35.201 545.419 34.9975C545.215 34.7941 545.012 34.3871 545.012 34.1836V33.1663L544.808 26.4516L545.012 14.4467ZM552.954 18.7196L553.158 11.1911C553.158 9.97022 553.565 8.95286 554.583 8.13896V8.34243C554.787 8.34243 554.787 8.34243 554.787 8.34243C555.398 8.34243 556.212 9.3598 557.231 11.598C558.249 13.8362 559.063 16.2779 559.878 18.7196C560.693 21.3648 561.507 24.0099 562.118 26.6551C562.933 29.3002 563.34 30.928 563.544 31.335C564.155 25.6377 564.358 18.7196 564.358 10.7841V9.76675C564.358 8.95285 564.766 8.54591 565.377 8.54591C565.784 8.54591 565.988 8.74938 566.191 8.95285C566.395 9.3598 566.395 9.56328 566.395 9.97022V13.0223C566.395 16.2779 566.191 20.5509 565.988 25.8412C565.784 31.1315 565.377 34.1836 564.969 34.794C564.155 34.9975 563.747 35.201 563.34 35.201C563.136 35.201 562.933 35.201 562.729 34.9975C562.526 34.7941 562.526 34.5906 562.322 34.1836C562.322 33.7767 562.118 33.5732 562.118 33.3697V33.1663C562.118 32.1489 561.1 28.8933 559.267 23.603C557.231 18.3127 555.805 14.4467 554.99 12.4119V32.9628C554.99 32.9628 554.99 33.1663 555.194 33.1663C555.398 33.3697 555.398 33.7767 555.398 33.9802C555.398 34.1836 555.194 34.3871 554.99 34.794C554.787 34.9975 554.38 35.201 554.176 35.201C553.361 35.201 552.75 34.3871 552.75 32.7593L552.954 18.7196ZM577.596 26.8586L578.003 29.3003C578.003 29.7072 578.207 30.5211 578.41 31.7419C578.614 32.9628 578.818 33.7767 578.818 34.1836C578.818 34.794 578.614 35.201 578.207 35.4045C577.596 35.4045 577.188 35.4045 576.781 35.201C576.374 34.9975 576.374 34.5906 576.374 34.1836C576.374 32.9628 576.17 31.335 575.763 29.0968L571.69 28.4864C571.486 29.3003 571.282 30.3176 571.079 31.5385C570.875 32.5558 570.875 33.3697 570.672 33.9802C570.468 34.9975 570.061 35.4045 569.246 35.4045C568.839 35.4045 568.635 35.201 568.431 34.9975C568.228 34.7941 568.024 34.5906 568.024 34.1836V33.7767C569.857 26.6551 571.282 19.9404 572.097 13.2258C572.097 13.0223 572.097 12.4119 572.301 11.598C572.504 9.56328 572.708 8.34243 573.115 7.73201H574.541C574.948 7.73201 575.152 7.73201 575.559 7.93548C575.763 8.13896 575.966 8.34243 575.966 8.74938C575.966 10.7841 576.17 13.8362 576.781 17.9057C577.188 22.1787 577.596 25.0273 577.596 26.8586ZM571.893 27.062C572.301 27.2655 573.523 27.6725 575.559 27.6725C575.559 27.2655 575.355 26.6551 575.355 25.6377C575.355 24.6203 575.355 23.3995 575.152 21.9752C574.948 20.5509 574.948 18.7196 574.745 16.8883C574.541 14.8536 574.337 13.6328 574.337 12.6154C572.912 19.33 572.097 24.2134 571.893 27.062ZM590.833 9.3598C590.833 9.15633 590.629 8.95285 590.629 8.74938C590.629 8.13896 591.037 7.73201 591.851 7.73201C592.666 7.73201 593.073 8.13896 593.073 8.74938C593.073 9.56328 593.073 10.1737 593.073 10.3772V10.5806C592.666 11.8015 592.462 13.0223 592.462 14.2432V17.2953C592.462 18.9231 592.258 21.5682 591.851 25.0273C591.444 28.4864 591.24 30.928 591.24 32.3524C591.24 35.201 590.629 36.4218 589.611 36.4218C588.796 36.4218 588.389 35.8114 588.389 34.5906C588.389 33.3697 588.389 32.3524 588.185 31.1315C588.185 29.9107 587.982 28.6898 587.778 27.2655C587.575 25.8412 587.371 24.6204 587.371 23.8065C587.167 22.7891 586.964 21.5682 586.76 19.9404C586.556 18.3127 586.353 17.0918 586.149 16.4814C586.149 17.2953 585.945 18.3127 585.945 19.1266C585.945 19.9404 585.742 21.7717 585.538 24.2134C585.334 26.6551 584.927 29.3003 584.52 31.9454C583.909 34.5906 583.502 35.8114 582.687 35.8114C581.669 35.8114 580.854 32.9628 580.243 27.2655C580.039 24.8238 579.836 22.3821 579.632 19.9404C579.225 13.6328 578.818 10.1737 578.41 9.3598C578.614 8.95286 579.021 8.54591 579.632 8.54591C580.447 8.54591 580.854 9.56328 580.854 11.598C580.854 13.6328 581.058 16.4814 581.669 20.5509C582.28 24.6203 582.483 27.469 582.687 29.3003C583.909 21.3648 584.316 15.464 584.316 11.3945L585.334 10.9876C585.742 10.9876 585.945 10.9876 586.149 11.1911C586.353 11.3945 586.556 11.598 586.556 12.005V12.4119C587.371 15.0571 587.982 18.7196 588.389 23.8065C588.593 26.0447 588.796 27.8759 589 29.0968C589.407 25.4342 589.815 20.7543 589.815 15.6675C589.815 15.0571 590.018 14.0397 590.222 12.6154C590.833 11.1911 590.833 10.1737 590.833 9.3598ZM598.979 21.5682L599.183 30.1141V31.335V32.5558H599.794H601.015C602.034 32.5558 602.645 32.9628 602.645 33.5732C602.645 33.9802 602.441 34.1836 602.237 34.3871C602.034 34.5906 601.626 34.794 601.219 34.794H599.386C598.164 34.794 597.35 34.794 596.942 34.794C596.739 34.794 596.535 34.794 596.535 34.794C595.517 34.794 595.11 34.5906 595.11 33.9802C595.11 33.7767 595.11 33.5732 595.313 33.1663C595.517 32.9628 595.721 32.7593 595.721 32.7593H596.942V32.1489L596.739 23.603L596.942 14.4467C596.942 12.8189 596.942 11.3945 596.739 10.1737H595.924H594.906C594.499 10.1737 594.295 10.1737 593.888 9.97022C593.684 9.76675 593.48 9.56328 593.48 9.15633C593.48 8.54591 594.091 8.13896 595.517 8.13896H600.405C601.423 8.13896 602.034 8.34243 602.034 8.95285C602.034 9.15633 601.83 9.3598 601.626 9.56328C601.423 9.76675 601.015 9.97022 600.812 9.97022H598.775C598.979 10.9876 598.979 12.4119 598.979 13.8362V21.5682ZM603.867 33.3697L605.496 33.5732C606.107 33.5732 606.514 33.3697 606.921 32.9628C607.329 32.5558 607.532 31.9454 607.736 31.335C608.143 30.1142 608.347 28.8933 608.347 27.8759C608.347 26.8586 608.143 25.8412 607.94 24.8238C607.532 23.8065 607.125 22.9926 606.718 22.1787C606.31 21.3648 605.699 20.5509 605.292 19.5335C604.07 17.4988 603.663 15.464 603.663 13.4293C603.663 12.2084 603.867 11.1911 604.274 10.1737C605.088 8.34243 606.107 7.52854 607.329 7.52854C607.736 7.52854 608.347 7.73201 608.754 7.93548C609.161 8.13896 609.365 8.54591 609.365 8.95285C609.365 9.56328 608.958 9.97022 608.347 9.97022C608.143 9.97022 607.736 9.97022 607.532 9.76675C606.718 9.76675 606.107 10.7841 605.699 12.6154C605.699 13.0223 605.699 13.4293 605.699 14.0397C605.699 14.6501 605.903 15.2605 606.107 16.0744C606.31 16.8883 606.718 17.7022 606.921 18.3127C607.329 18.9231 607.736 19.737 608.143 20.3474C608.551 21.1613 608.958 21.7717 609.365 22.5856C610.18 24.2134 610.587 26.0447 610.587 28.2829C610.587 29.9107 610.18 31.5385 609.365 32.9628C608.958 33.7767 608.551 34.3871 607.736 34.794C607.125 35.201 606.31 35.4045 605.496 35.6079C604.478 35.4045 603.867 34.9975 603.663 33.9802L603.867 33.3697ZM605.088 5.4938C604.885 5.29032 604.885 5.29032 604.885 5.08685C604.885 4.88338 605.088 4.6799 605.496 4.27295C605.903 3.86601 606.718 3.25558 608.143 2.03474C609.569 0.813896 610.18 0.203474 610.587 0C610.791 0 610.994 0 611.198 0C611.402 0 611.605 0.203476 612.013 0.406949C612.42 0.610423 612.42 1.01737 612.42 1.42432C612.42 1.83127 612.42 2.03474 612.216 2.03474C611.198 2.84864 609.161 3.86601 606.31 5.4938C606.107 5.4938 606.107 5.4938 605.903 5.4938C605.292 5.69727 605.088 5.4938 605.088 5.4938ZM614.049 34.794C612.216 33.5732 611.402 30.5211 611.402 25.2308V22.7891V21.7717C611.402 17.7022 611.605 15.0571 612.013 13.4293C612.42 11.3945 613.234 10.1737 614.049 9.3598C615.271 8.34243 616.697 7.73201 618.326 7.73201C618.733 7.73201 619.14 7.73201 619.344 7.93548C619.548 8.13896 619.751 8.34243 619.751 8.74938C619.751 9.15633 619.751 9.3598 619.548 9.56328C619.344 9.76675 619.14 9.97022 618.937 9.97022H617.104C616.493 9.97022 616.086 10.3772 615.678 10.9876C615.271 11.8015 615.067 12.6154 614.864 13.6328C614.456 15.6675 614.253 17.2953 614.456 18.5161V18.7196L614.253 26.6551C614.253 28.2829 614.253 29.5037 614.456 30.1141C614.66 30.7246 614.864 31.335 615.067 31.7419C615.271 32.1489 615.475 32.5558 615.678 32.7593C616.289 33.3697 617.104 33.5732 618.122 33.5732C618.529 33.5732 618.733 33.3697 618.937 33.1663C619.344 33.1663 619.548 33.1663 619.751 33.3697C619.955 33.5732 620.159 33.7767 620.159 33.9802C620.159 34.9975 619.344 35.6079 617.918 35.6079C617.308 35.6079 616.697 35.6079 616.086 35.4045C614.864 35.201 614.456 34.9975 614.049 34.794ZM625.454 21.5682L625.657 30.1141V31.335V32.5558H626.268H627.49C628.508 32.5558 629.119 32.9628 629.119 33.5732C629.119 33.9802 628.916 34.1836 628.712 34.3871C628.508 34.5906 628.101 34.794 627.694 34.794H625.861C624.639 34.794 623.824 34.794 623.417 34.794C623.213 34.794 623.01 34.794 623.01 34.794C621.991 34.794 621.584 34.5906 621.584 33.9802C621.584 33.7767 621.584 33.5732 621.788 33.1663C621.991 32.9628 622.195 32.7593 622.195 32.7593H623.417V32.1489L623.213 23.603L623.417 14.4467C623.417 12.8189 623.417 11.3945 623.213 10.1737H622.399H621.381C620.973 10.1737 620.77 10.1737 620.362 9.97022C620.159 9.76675 619.955 9.56328 619.955 9.15633C619.955 8.54591 620.566 8.13896 621.991 8.13896H626.879C627.897 8.13896 628.508 8.34243 628.508 8.95285C628.508 9.15633 628.305 9.3598 628.101 9.56328C627.897 9.76675 627.49 9.97022 627.286 9.97022H625.25C625.454 10.9876 625.454 12.4119 625.454 13.8362V21.5682ZM645.411 9.3598C645.411 9.15633 645.208 8.95285 645.208 8.74938C645.208 8.13896 645.615 7.73201 646.43 7.73201C647.244 7.73201 647.651 8.13896 647.651 8.74938C647.651 9.56328 647.651 10.1737 647.651 10.3772V10.5806C647.244 11.8015 647.04 13.0223 647.04 14.2432V17.2953C647.04 18.9231 646.837 21.5682 646.43 25.0273C646.022 28.4864 645.819 30.928 645.819 32.3524C645.819 35.201 645.208 36.4218 644.189 36.4218C643.375 36.4218 642.967 35.8114 642.967 34.5906C642.967 33.3697 642.967 32.3524 642.764 31.1315C642.764 29.9107 642.56 28.6898 642.357 27.2655C642.153 25.8412 641.949 24.6204 641.949 23.8065C641.746 22.7891 641.542 21.5682 641.338 19.9404C641.135 18.3127 640.931 17.0918 640.727 16.4814C640.727 17.2953 640.524 18.3127 640.524 19.1266C640.524 19.9404 640.32 21.7717 640.116 24.2134C639.913 26.6551 639.505 29.3003 639.098 31.9454C638.487 34.5906 638.08 35.8114 637.265 35.8114C636.247 35.8114 635.432 32.9628 634.821 27.2655C634.618 24.8238 634.414 22.3821 634.211 19.9404C633.803 13.6328 633.396 10.1737 632.989 9.3598C633.192 8.95286 633.6 8.54591 634.211 8.54591C635.025 8.54591 635.432 9.56328 635.432 11.598C635.432 13.6328 635.636 16.4814 636.247 20.5509C636.858 24.6203 637.062 27.469 637.265 29.3003C638.487 21.3648 638.894 15.464 638.894 11.3945L639.913 10.9876C640.32 10.9876 640.524 10.9876 640.727 11.1911C640.931 11.3945 641.135 11.598 641.135 12.005V12.4119C641.949 15.0571 642.56 18.7196 642.967 23.8065C643.171 26.0447 643.375 27.8759 643.578 29.0968C643.986 25.4342 644.393 20.7543 644.393 15.6675C644.393 15.0571 644.597 14.0397 644.8 12.6154C645.208 11.1911 645.411 10.1737 645.411 9.3598ZM649.077 20.9578C649.281 20.3474 649.484 19.33 649.484 17.4988V13.6328C649.484 12.005 649.281 10.7841 649.077 9.76675C649.281 8.74938 649.688 8.34243 650.095 8.34243H651.928C653.557 8.34243 654.576 8.95286 655.186 10.3772C655.797 11.598 656.001 12.8189 656.001 14.4467C656.001 16.2779 656.001 17.4988 655.797 17.9057C655.797 18.3127 655.594 18.7196 655.594 19.1266C655.39 19.5335 655.39 19.737 655.186 20.1439C654.983 20.3474 654.779 20.5509 654.576 20.9578C654.372 21.1613 653.965 21.5682 653.761 21.7717C653.15 22.1787 652.335 22.5856 651.317 22.7891V27.062L651.724 34.794C651.724 35.201 651.521 35.4045 651.317 35.6079C651.113 35.8114 650.706 36.0149 650.299 36.0149L649.484 35.6079C649.077 34.1836 649.077 32.1489 649.077 29.7072L649.281 22.3821C649.077 21.7717 649.077 21.3648 649.077 20.9578ZM651.521 13.0223V20.9578C653.15 20.7543 653.965 18.5161 653.965 14.0397C653.965 12.8189 653.761 11.8015 653.557 11.3945C653.15 10.9876 652.743 10.5806 651.928 10.5806C651.928 10.5806 651.724 10.5806 651.521 10.5806V13.0223ZM659.87 21.3648V25.8412C659.87 29.5037 660.074 32.3524 660.685 34.3871L660.278 35.4045H659.056L658.445 34.794C658.445 33.5732 658.445 32.1489 658.445 30.7246C658.445 29.3002 658.241 26.0447 658.038 20.9578C657.834 16.0744 657.63 12.2084 657.63 9.76675C657.63 8.54591 658.038 7.93548 659.056 7.93548C660.481 7.93548 661.703 8.34243 662.722 8.95285C663.74 9.76675 664.147 10.7841 664.147 12.2084V15.0571C664.147 15.871 663.943 16.4814 663.74 17.0918C663.536 17.7022 663.129 18.3127 662.722 19.1266C662.314 19.737 662.111 20.1439 662.111 20.3474C662.314 20.9578 662.518 22.3821 662.925 24.2134C663.74 28.4864 664.554 31.5385 665.573 33.3697C665.776 33.9802 665.98 34.3871 665.98 34.5906C665.98 34.794 665.98 35.201 665.776 35.4045C665.573 35.6079 665.369 35.8114 665.165 35.8114C664.554 35.8114 664.147 35.201 663.536 33.7767C662.925 32.5558 662.518 30.928 662.314 29.5037C661.296 24.6203 660.685 21.9752 660.481 21.5682H659.87V21.3648ZM661.907 10.7841C661.703 9.97022 661.092 9.3598 660.074 9.3598L659.87 9.97022C659.87 10.9876 659.87 12.6154 659.87 14.8536C659.87 16.8883 659.87 18.5161 659.87 19.5335C660.481 19.1266 661.092 18.3127 661.5 16.8883C661.907 15.464 662.111 14.4467 662.111 13.6328C662.111 12.8189 662.111 12.4119 662.111 12.005C662.111 11.598 662.111 11.1911 661.907 10.7841ZM666.998 28.6898C666.795 26.4516 666.591 24.4169 666.591 22.5856V20.9578C666.591 20.7543 666.591 20.7543 666.591 20.7543V19.9404C666.591 15.6675 666.795 12.6154 667.406 10.7841C667.813 9.3598 668.22 8.34243 668.627 7.93548C669.035 7.52854 669.442 7.32506 669.849 7.32506C672.904 7.32506 675.144 8.95285 676.366 12.005C676.977 13.8362 677.384 16.0744 677.384 18.7196V18.9231V23.603C677.384 31.335 675.552 35.4045 671.886 35.4045C670.46 35.4045 669.238 34.5906 668.424 32.9628C667.609 31.7419 667.202 30.1141 666.998 28.6898ZM669.035 17.0918L668.831 20.7543C668.831 24.6204 669.238 28.0794 669.849 31.1315C670.46 32.7593 671.071 33.7767 671.682 34.1836C672.089 34.1836 672.7 33.9802 673.108 33.5732C673.515 33.1663 673.719 32.5558 674.126 31.9454C674.33 31.335 674.533 30.5211 674.737 29.9107C674.941 29.0968 674.941 28.4864 675.144 27.469C675.348 26.0447 675.348 24.8238 675.348 23.8065C675.348 22.7891 675.348 21.1613 675.144 19.1266C674.941 17.0918 674.941 15.464 674.941 14.4467V13.6328C674.941 12.6154 674.533 11.8015 673.922 10.9876C673.311 10.1737 672.497 9.76675 671.479 9.76675C670.46 9.76675 669.849 10.3772 669.646 11.3945C669.442 12.2084 669.238 13.4293 669.238 14.6501L669.035 17.0918ZM679.217 33.3697L680.846 33.5732C681.457 33.5732 681.865 33.3697 682.272 32.9628C682.679 32.5558 682.883 31.9454 683.087 31.335C683.494 30.1142 683.698 28.8933 683.698 27.8759C683.698 26.8586 683.494 25.8412 683.29 24.8238C682.883 23.8065 682.476 22.9926 682.068 22.1787C681.661 21.3648 681.05 20.5509 680.643 19.5335C679.421 17.4988 679.014 15.464 679.014 13.4293C679.014 12.2084 679.217 11.1911 679.625 10.1737C680.439 8.34243 681.457 7.52854 682.679 7.52854C683.087 7.52854 683.698 7.73201 684.105 7.93548C684.512 8.13896 684.716 8.54591 684.716 8.95285C684.716 9.56328 684.309 9.97022 683.698 9.97022C683.494 9.97022 683.087 9.97022 682.883 9.76675C682.068 9.76675 681.457 10.7841 681.05 12.6154C681.05 13.0223 681.05 13.4293 681.05 14.0397C681.05 14.6501 681.254 15.2605 681.457 16.0744C681.661 16.8883 682.068 17.7022 682.272 18.3127C682.679 18.9231 683.087 19.737 683.494 20.3474C683.901 21.1613 684.309 21.7717 684.716 22.5856C685.53 24.2134 685.938 26.0447 685.938 28.2829C685.938 29.9107 685.53 31.5385 684.716 32.9628C684.309 33.7767 683.901 34.3871 683.087 34.794C682.476 35.201 681.661 35.4045 680.846 35.6079C679.828 35.4045 679.217 34.9975 679.014 33.9802L679.217 33.3697ZM690.825 34.3871V31.335C690.825 31.335 690.825 30.928 690.825 29.9107C690.622 29.5037 690.418 26.4516 690.214 20.7543C689.807 15.0571 689.807 11.3945 689.603 10.1737H689.4C687.16 10.1737 686.141 9.76675 686.141 8.95285C686.141 8.74938 686.345 8.54591 686.549 8.34243C686.752 8.13896 687.16 8.13896 687.363 8.13896L692.862 8.54591H693.473C694.287 8.54591 694.695 8.95286 694.695 9.56328C694.695 9.97023 694.491 10.1737 694.287 10.3772C694.084 10.5806 693.676 10.7841 693.269 10.7841L691.436 10.5806V10.9876C691.436 13.6328 691.64 17.4988 692.047 22.5856C692.455 27.6725 692.658 31.5385 692.658 34.1836C692.658 34.5906 692.455 34.7941 692.251 34.9975C692.047 35.201 691.64 35.4045 691.233 35.4045L690.825 34.3871ZM699.175 35.8114C698.768 35.8114 698.36 35.6079 698.157 35.4045C697.953 35.201 697.749 34.7941 697.749 34.3871C697.749 33.9802 697.953 33.5732 698.157 33.3697C698.36 32.9628 698.768 32.9628 699.175 32.9628C699.582 32.9628 699.99 33.1663 700.193 33.3697C700.397 33.7767 700.601 33.9802 700.601 34.3871C700.601 34.7941 700.397 35.201 700.193 35.4045C699.99 35.6079 699.582 35.8114 699.175 35.8114Z" fill="black"/>
<defs>
<clipPath id="clip0_39_5291">
<rect width="453.733" height="82" fill="white"/>
</clipPath>
</defs>
</svg>
