<svg width="484" height="122" viewBox="0 0 484 122" fill="none" xmlns="http://www.w3.org/2000/svg">
<g clip-path="url(#clip0_39_5257)">
<path d="M103.177 48.4615C103.485 48.6154 103.639 48.4615 103.947 48.4615C104.101 48.4615 104.101 48.4615 104.255 48.4615C104.409 48.4615 104.563 48.3077 104.563 48.3077C104.717 48.1538 104.871 48 104.871 47.8461C104.871 47.6923 104.871 47.5384 104.871 47.3846C104.717 46.923 104.409 46.7692 103.947 46.6154C103.793 46.6154 103.639 46.6154 103.485 46.6154C103.331 46.6154 103.177 46.7692 103.023 46.9231C103.023 46.9231 103.023 46.9231 102.869 47.0769C102.715 47.2307 102.715 47.3846 102.715 47.5384C102.715 47.6923 102.715 48 102.869 48.1538C102.869 48.3077 103.023 48.4615 103.177 48.4615Z" fill="white"/>
<path d="M169.856 53.077C170.472 53.2308 171.088 53.077 171.396 52.4616C171.704 51.8462 171.704 51.077 171.242 50.6154C170.934 50.3077 170.318 50.3077 170.01 50.6154L169.856 50.7693C169.548 50.9231 169.394 51.077 169.24 51.3846C169.086 51.6923 169.086 51.8462 169.086 52.1539C169.24 52.6154 169.548 52.9231 169.856 53.077Z" fill="white"/>
<path d="M169.085 70.3076C169.085 70.1538 169.239 70.1538 169.239 69.9999C169.085 70.1538 169.085 70.3076 169.085 70.3076ZM157.997 67.2307C158.151 67.2307 158.151 67.2307 158.305 67.0769C158.151 67.2307 158.151 67.2307 157.997 67.2307C158.151 67.3846 157.997 67.2307 157.997 67.2307ZM133.358 68.1538C130.432 68.4615 133.358 63.3846 133.666 62.7692C134.128 62.1538 134.744 61.3846 135.36 60.923C135.822 60.4615 138.132 58.6153 139.056 59.5384C138.44 61.0769 137.824 62.6153 136.9 63.9999C136.284 64.7692 134.436 67.9999 133.358 68.1538ZM115.187 59.2307C113.339 59.6922 111.337 59.8461 109.489 59.9999C109.643 59.6922 109.797 59.5384 109.951 59.3846C111.337 57.6922 114.263 57.2307 115.187 59.2307ZM93.474 57.9999C93.474 57.9999 93.474 57.8461 93.628 57.8461C93.628 57.8461 93.628 57.8461 93.474 57.9999C93.628 57.9999 93.628 57.9999 93.474 57.9999ZM90.7022 64.4615C90.8561 63.8461 91.1641 63.2307 91.3181 62.7692C91.1641 63.2307 91.0101 63.8461 90.7022 64.4615ZM180.48 65.6922C179.402 63.8461 178.17 62.3076 177.246 60.3076C177.092 59.9999 176.63 59.8461 176.322 60.1538C173.704 61.9999 171.702 64.3076 169.855 66.923C169.239 67.8461 168.161 70.3076 167.237 70.923C166.621 71.2307 166.313 70.923 166.313 70.3076C166.313 69.0769 166.775 67.5384 167.083 66.4615C167.545 64.6153 168.161 62.7692 168.777 61.0769C169.085 60.3076 168.623 59.2307 167.545 59.5384C163.387 60.923 159.229 59.5384 156.457 56.3076C155.687 55.3846 154.147 56.6153 154.763 57.6922C155.687 58.923 156.457 60.3076 157.227 61.6922C157.535 62.1538 157.997 62.923 158.459 63.8461C158.459 63.9999 158.459 64.1538 158.459 64.4615C158.459 65.9999 157.073 66.6153 155.995 66.1538C154.301 65.3846 152.915 64.3076 151.529 63.2307C151.221 62.923 150.913 62.6153 150.605 62.3076C149.681 61.3846 148.45 62.6153 148.911 63.5384C149.527 64.923 149.989 66.4615 149.989 67.9999C149.989 68.3076 150.143 69.5384 149.989 69.6922C148.911 70.6153 148.296 68.3076 148.142 67.8461C147.218 65.2307 146.91 62.4615 147.218 59.6922C147.372 58.4615 145.678 57.9999 145.37 59.3846C144.908 61.2307 144.446 62.923 143.83 64.6153C143.522 65.0769 143.368 65.5384 143.214 65.9999C142.906 66.7692 142.444 67.5384 141.828 68.1538C141.52 68.6153 140.75 69.6922 140.134 68.923C139.98 68.7692 139.98 68.6153 139.826 68.3076C139.826 68.1538 139.826 67.9999 139.826 67.8461C139.98 66.923 139.98 65.8461 140.134 64.923C140.288 63.0769 140.596 61.2307 140.75 59.5384C140.75 58.923 140.442 58.6153 139.98 58.6153C139.056 57.5384 136.9 57.8461 135.514 58.7692C132.588 60.4615 130.124 63.9999 129.816 67.3846C129.816 67.5384 129.816 67.6922 129.816 67.8461C127.66 70.6153 127.814 64.923 127.968 63.8461C128.122 62.7692 128.43 61.5384 128.276 60.4615C128.122 59.2307 127.352 58.4615 126.121 58.7692C124.427 59.0769 123.349 60.4615 122.425 62.1538C122.425 60.7692 122.425 59.2307 122.271 57.8461C122.271 57.2307 121.347 57.0769 120.885 57.3846C117.651 59.9999 116.881 63.9999 114.263 67.0769C113.185 68.3076 111.645 69.3846 109.797 68.4615C108.411 67.6922 107.949 65.5384 107.949 64.1538C107.949 63.6922 107.949 63.3846 107.949 62.923C109.797 63.3846 111.799 62.923 113.647 62.6153C114.571 62.4615 117.035 62.4615 116.727 60.923C116.727 60.923 116.727 60.7692 116.573 60.7692C116.727 60.6153 116.727 60.4615 116.727 60.3076C116.265 57.0769 112.877 55.5384 110.105 56.923C109.027 57.5384 108.103 58.3076 107.487 59.2307C107.025 59.3846 106.717 59.9999 106.563 60.6153C106.101 61.8461 105.639 63.0769 105.331 64.3076C105.024 65.0769 104.716 65.9999 104.254 66.6153C103.022 68.1538 102.868 67.3846 102.714 65.5384C102.56 63.0769 103.022 60.6153 103.484 58.1538C103.638 57.2307 102.252 56.4615 101.79 57.3846C100.866 59.3846 99.9417 61.5384 98.8638 63.5384C98.2478 64.7692 98.0938 65.9999 96.7079 66.1538C95.7839 66.6153 95.3219 66.1538 95.3219 64.923C95.3219 64.4615 95.1679 63.8461 95.1679 63.3846C95.014 61.3846 95.6299 56.6153 93.32 55.8461C92.8581 55.6922 92.3961 55.8461 92.0881 56.3076C91.0101 58.1538 90.0862 59.9999 89.3162 61.8461C89.3162 61.2307 89.3162 60.7692 89.3162 60.1538C89.3162 59.0769 89.6242 57.2307 88.7002 56.3076C86.8523 54.6153 84.3884 57.2307 83.6185 58.923C83.4645 59.2307 83.6185 59.3846 83.7725 59.5384C83.7725 59.6922 83.9265 59.6923 84.0805 59.8461C84.0805 59.8461 84.0805 59.8461 84.2344 59.8461C84.3884 59.9999 84.6964 59.8461 84.6964 59.5384C85.1584 58.4615 86.0824 58.4615 87.4683 59.5384C87.4683 59.8461 87.4683 60.3076 87.4683 60.6153C87.4683 61.5384 87.3143 62.4615 87.3143 63.3846C87.1603 65.0769 87.1603 66.923 87.0063 68.6153C87.0063 68.923 87.3143 69.2307 87.6223 69.2307C89.3162 69.2307 89.9322 67.6922 90.5482 66.3076C91.0101 65.3846 91.3181 64.6153 91.6261 63.6923C92.0881 62.6153 92.3961 60.7692 93.166 59.6922C93.166 60.6153 93.166 61.5384 93.166 61.8461C93.32 63.2307 93.166 64.6153 93.628 65.9999C93.936 67.2307 94.86 68.4615 96.2459 68.6153C97.6318 68.7692 98.5558 67.6922 99.3258 66.6153C99.7877 65.8461 100.25 64.923 100.712 64.1538C100.712 64.3076 100.712 64.6153 100.712 64.7692C100.712 66.1538 100.712 68.4615 101.79 69.6922C103.792 71.6922 105.485 68.6153 106.409 66.4615C106.563 67.0769 106.871 67.5384 107.179 67.9999C109.027 71.0769 112.261 71.0769 114.725 68.7692C117.343 66.3076 118.267 62.4615 120.577 59.8461C120.577 62.923 120.423 65.9999 120.115 69.0769C119.961 70.3076 121.655 70.3076 121.809 69.2307C122.425 66.7692 123.041 63.9999 124.735 61.8461C125.197 61.2307 125.813 60.1538 126.275 61.3846C126.429 61.6922 126.121 62.6153 126.121 63.0769C125.967 64.4615 125.813 65.8461 125.967 67.0769C126.121 68.3076 126.429 70.1538 127.66 70.7692C128.738 71.3846 129.816 70.7692 130.586 69.9999C131.356 70.923 132.434 71.0769 133.82 70.3076C135.514 69.0769 137.054 67.3846 138.286 65.3846C138.132 66.6153 137.978 67.8461 137.978 68.923C137.824 70.4615 138.286 72.6153 140.288 72.6153C142.444 72.6153 143.522 69.9999 144.292 68.4615C144.754 67.5384 145.062 66.6153 145.524 65.6922C145.524 65.9999 145.678 66.1538 145.678 66.4615C146.14 68.4615 146.756 71.5384 148.758 72.6153C150.297 73.3846 151.529 72.4615 151.991 70.923C152.299 69.5384 152.299 67.9999 152.145 66.6153C154.917 68.923 158.459 71.3846 160.769 69.3846C162.155 68.1538 161.693 66.4615 161.077 64.923C160.615 63.6922 160.153 62.6153 159.537 61.3846C161.693 62.3076 164.003 62.6153 166.313 62.3076C165.543 64.6153 164.927 66.923 164.465 69.2307C164.157 70.923 163.849 73.2307 165.389 74.4615C168.931 77.5384 171.702 70.3076 172.472 67.5384C173.704 65.9999 174.936 64.4615 176.476 63.2307C177.554 65.3846 178.94 67.0769 180.326 69.0769C180.634 69.5384 180.942 70.1538 181.25 70.7692C181.712 71.9999 181.404 73.0769 180.326 73.9999C178.786 74.3076 177.4 73.6922 176.322 72.3076C176.476 71.6922 176.784 71.2307 177.554 70.6153C178.478 69.9999 177.708 68.7692 176.784 69.0769C174.782 69.6923 173.858 71.8461 174.474 73.8461C175.244 75.9999 177.4 77.2307 179.71 76.923C182.02 76.6153 184.176 75.2307 184.022 72.6153C183.868 71.3846 183.406 70.3076 182.79 69.3846C182.02 67.6922 181.25 66.6153 180.48 65.6922Z" fill="white"/>
<path d="M184.485 53.0769C181.559 51.8461 177.247 54.4615 174.937 56.1538C174.013 56.7692 174.937 58.3077 175.861 57.5384C177.247 56.6153 178.633 55.8461 180.173 55.3846C181.713 54.923 183.253 54.923 184.639 54.1538C185.101 53.8461 184.947 53.2307 184.485 53.0769Z" fill="white"/>
<path d="M207.428 65.3846C206.658 64.6154 205.735 65.8462 206.197 66.6154C206.966 68 204.657 69.8462 203.887 70.6154C203.425 71.077 202.963 71.5385 202.347 71.3847C201.577 71.077 201.731 69.6923 201.731 68.9231C201.731 66.1539 202.655 63.5385 203.117 60.9231C203.271 60.3077 202.963 59.8462 202.501 59.6923C202.501 58.9231 201.423 58.7693 201.269 59.5385C200.191 63.3847 197.881 67.3846 194.647 70.1539C193.877 70.6154 193.107 71.077 192.337 71.3847C190.181 72.1539 189.411 71.2308 189.257 69.077C189.257 67.5385 189.257 66 189.873 64.4616C190.181 63.3847 190.797 62.4616 191.567 61.6923C191.875 61.3846 193.107 60.3077 193.723 60.3077H193.877C193.877 60.4616 194.031 60.6154 194.031 60.7693C194.801 61.3846 194.955 61.8462 194.339 62.1539C194.031 62.4616 194.339 62.7693 194.647 62.9231C194.801 63.2308 195.263 63.3846 195.725 63.077C199.113 60.1539 196.495 56.9231 192.645 58.6154C192.337 58.7693 191.875 58.9231 191.567 59.2308C188.025 61.2308 186.023 65.6923 186.023 69.5385C186.023 71.2308 186.485 73.2308 188.179 74C189.103 74.3077 190.027 74.3077 190.951 74C192.491 73.8462 194.031 73.077 195.109 72.3077C196.803 71.2308 198.189 70 199.267 68.4616C198.959 71.3846 199.421 73.8462 201.577 74.1539C203.425 74.4616 205.581 72.1539 206.658 70.7693C208.198 68.9231 209.122 66.9231 207.428 65.3846Z" fill="white"/>
<path d="M203.271 52C203.271 52.1539 203.425 52.1539 203.425 52.3077C203.425 52.4616 203.579 52.4615 203.579 52.4615C203.579 52.4615 203.579 52.4615 203.733 52.4615C203.887 52.6154 203.887 52.6154 204.041 52.6154C204.195 52.6154 204.195 52.6154 204.349 52.6154C204.503 52.6154 204.657 52.6154 204.965 52.4615C204.965 52.4615 204.965 52.4615 205.119 52.4615C205.273 52.3077 205.427 52.1539 205.427 52V51.8462C205.427 51.6923 205.427 51.6923 205.427 51.3846C205.427 51.0769 205.427 51.0769 205.273 50.9231C205.273 50.7692 205.119 50.7692 204.965 50.6154C204.811 50.4616 204.811 50.4615 204.657 50.4615C204.503 50.4615 204.503 50.4615 204.349 50.4615C204.195 50.4615 204.041 50.4616 204.041 50.6154C204.041 50.6154 204.041 50.6154 203.887 50.6154C203.887 50.6154 203.887 50.6154 203.733 50.6154C203.733 50.6154 203.733 50.6154 203.579 50.7692C203.579 50.7692 203.425 50.7692 203.425 50.9231C203.425 50.9231 203.425 50.9231 203.271 51.0769L203.117 51.2308V51.3846C203.117 51.5385 203.117 51.6923 203.271 52C203.271 51.8462 203.271 51.8462 203.271 52Z" fill="white"/>
<path d="M39.1143 23.5385C39.1143 23.5385 38.9603 23.5385 38.8063 23.3846V23.2308C38.9603 23.2308 38.9603 23.0769 39.1143 23.0769C39.1143 23.3846 39.1143 23.5385 39.1143 23.5385ZM50.0478 24.6154C52.8197 25.5385 56.5155 26.1539 57.2855 23.2308C57.5935 22.1539 55.7456 21.6923 55.4376 22.7693C54.8216 24.4616 49.8938 22.4616 48.9699 22C48.1999 21.6923 47.2759 22.4616 47.5839 23.2308C48.9699 27.0769 50.3558 31.6923 49.8938 35.6923C49.8938 36 49.8938 36.3077 50.0478 36.6154C49.5858 36.1539 49.2778 35.6923 48.8159 35.2308C48.3539 34.6154 47.8919 34 47.4299 33.2308C46.198 31.2308 45.582 29.2308 45.12 26.9231C44.966 26 43.4261 26 43.2721 26.9231C42.9641 28.9231 42.3482 30.9231 41.4242 32.7692C40.9622 33.6923 40.5002 34.6154 39.8843 35.3846C39.7303 35.6923 39.5763 35.8462 39.4223 36.1539C38.3443 36.9231 38.1904 36.7692 38.4983 35.5385C38.1904 33.6923 38.9603 31.3846 39.2683 29.6923C39.7303 27.0769 40.1923 24.4616 40.9622 21.8462C41.1162 21.2308 40.3463 20.7692 39.8843 21.0769C38.1904 21.8462 36.4964 22.6154 34.9565 23.5385C34.8025 23.6923 34.6485 23.6923 34.6485 23.8462C34.1865 24 33.7246 24.1539 33.4166 24.4616C32.9546 24.6154 33.1086 25.2308 33.4166 25.3846C33.2626 25.8462 33.7246 26.3077 34.1865 26.3077C35.4185 26 36.4964 25.6923 37.7284 25.3846C37.1124 28.6154 36.8044 31.8462 36.6504 35.0769C36.4964 35.8462 36.4964 36.7692 36.6504 37.5385C36.6504 38.1539 36.6504 38.9231 36.6504 39.5385C36.6504 40 37.1124 40.3077 37.5744 40.1539C41.1162 39.2308 43.8881 37.2308 45.736 34.1539C46.044 34.6154 46.352 35.0769 46.66 35.5385C47.4299 36.6154 49.2778 39.6923 51.1258 38.7693C52.8197 37.8462 51.8957 34 51.7417 32.6154C51.4337 29.8462 50.9718 27.2308 50.0478 24.6154Z" fill="white"/>
<path d="M192.336 32.6154C191.874 33.3846 191.412 34.3077 190.796 35.2307C190.642 35.3846 190.488 35.6923 190.334 35.8461C189.102 35.2307 189.718 31.6923 189.872 31.0769C190.642 28.923 192.028 26.923 194.645 27.0769H194.799C194.337 28.923 193.413 30.7692 192.336 32.6154ZM188.332 35.6923C188.178 34.923 188.332 34 188.486 33.0769C188.486 34.4615 188.794 35.6923 189.718 36.7692C188.948 37.2307 188.486 37.2307 188.332 35.6923ZM167.697 35.6923C167.081 36.7692 166.311 37.0769 164.925 36.7692C164.925 36.4615 164.771 36.1538 164.771 35.8461C164.309 34.7692 164.309 33.3846 164.463 32C164.617 32.1538 164.925 32.1538 165.233 32.3077C166.311 32.4615 167.235 31.3846 168.005 30.7692C168.467 30.3077 169.083 30 169.545 29.5384C169.545 30.923 169.237 32.3077 168.775 33.2307C168.775 34.1538 168.313 35.0769 167.697 35.6923ZM167.543 26.923C168.467 26.1538 169.083 26.1538 169.237 27.0769C169.391 27.2307 169.545 27.5384 169.545 27.6923C169.237 27.8461 169.083 28 168.775 28.1538C168.313 28.4615 167.851 28.7692 167.389 29.0769C166.927 28.923 166.619 28.7692 166.465 28.6154C166.619 28.3077 166.773 28.1538 166.927 27.8461C166.927 27.6923 167.235 27.2307 167.543 26.923ZM145.06 29.8461C145.06 29.8461 145.06 29.6923 144.906 29.6923V29.5384H145.06C145.06 29.5384 145.06 29.6923 145.06 29.8461ZM199.727 34.1538C199.573 34.3077 197.263 37.0769 196.955 36.923C196.339 36.6154 196.801 34.923 196.801 34.4615C196.955 32.6154 197.109 30.6154 197.109 28.7692C197.263 28.7692 197.417 28.6154 197.417 28.4615C198.495 25.2307 194.799 24 192.182 24.7692C190.796 25.2307 189.718 26 188.794 27.0769C188.64 26.6154 188.178 26.4615 187.562 26.6154C185.714 27.2307 184.482 25.5384 183.25 24.6154C182.48 24 181.094 24.7692 181.556 25.8461C182.48 28.7692 183.404 32.4615 182.788 35.6923C181.248 35.2307 180.478 29.3846 180.478 28.1538C180.324 27.0769 178.938 27.0769 178.63 28C177.86 30 177.09 32 176.012 33.8461C176.012 31.5384 176.782 29.3846 177.244 27.0769C177.398 26 177.706 25.2307 177.09 24.4615C176.936 24.3077 176.628 24.1538 176.474 24.3077C175.088 24.4615 173.856 25.3846 172.47 26.1538C172.008 26.3077 171.7 26.4615 171.238 26.7692C170.93 26 170.469 25.2307 169.699 24.7692C167.543 23.2307 165.849 25.2307 164.617 27.3846C164.155 27.0769 163.385 27.3846 163.077 28.1538C162.769 29.5384 162.307 30.923 161.845 32.4615C161.537 33.2307 161.383 34.1538 161.075 34.923C160.767 35.8461 160.921 37.0769 159.689 36.6154C158.303 36.1538 159.073 33.2307 159.073 31.8461C159.073 30.1538 159.073 28.4615 159.073 26.7692C159.073 26 158.149 25.5384 157.533 26C156.147 27.2307 155.069 28.7692 154.299 30.4615C154.299 28.7692 154.145 27.2307 153.837 25.6923C153.683 25.2307 152.913 24.7692 152.451 25.2307C151.065 26.7692 150.141 28.4615 149.371 30.3077C149.371 30.1538 149.371 30 149.371 29.8461C149.371 28.6154 149.833 26.4615 148.909 25.3846C147.832 24.1538 146.446 25.2307 145.522 26.6154C144.752 27.3846 144.29 28.4615 143.982 29.3846C143.674 29.8461 143.674 30.3077 143.828 30.7692C144.136 31.2307 144.598 31.3846 145.06 31.2307C145.676 30.923 145.83 30.3077 145.984 29.6923C146.138 29.3846 146.292 29.0769 146.6 28.7692C147.216 29.0769 147.678 29.5384 147.678 30.1538C147.678 30.4615 147.678 30.6154 147.678 30.923C147.678 31.0769 147.678 31.0769 147.678 31.0769C147.678 31.5384 147.524 32 147.524 32.4615C147.216 34.4615 146.908 36.6154 146.754 38.6154C146.754 39.3846 147.832 39.3846 147.986 38.7692C148.448 38.923 149.063 38.7692 149.063 38.1538C149.679 34.4615 150.449 30.7692 152.451 27.6923C152.913 31.2307 152.143 35.2307 151.989 38.7692C151.989 39.8461 153.683 40 153.837 38.923C154.453 35.5384 155.069 32 157.225 29.0769C157.071 31.3846 156.917 33.6923 157.071 35.8461C157.225 37.2307 157.533 39.0769 159.227 39.5384C160.613 40 161.537 38.923 162.153 37.8461C162.307 37.5384 162.461 37.2307 162.615 36.923C162.923 38 163.385 38.923 164.155 39.3846C167.235 40.923 170.007 36.1538 170.776 34C171.392 32.6154 171.7 30.3077 171.546 28.4615C172.47 28.1538 173.548 27.6923 174.472 27.2307C173.548 30.4615 172.316 35.2307 174.78 37.0769C175.242 37.3846 175.858 37.3846 176.166 36.923C177.244 35.3846 178.168 33.8461 178.784 32.1538C179.4 35.0769 180.632 38.4615 183.25 37.8461C184.944 37.5384 184.944 35.2307 184.944 33.8461C184.944 32 184.79 30.1538 184.482 28.3077C185.406 28.923 186.484 29.2307 187.562 28.923C186.792 30.3077 186.33 31.8461 186.176 33.2307C185.868 35.2307 185.868 40.1538 189.256 39.5384C191.104 39.2307 192.028 36.923 192.951 35.5384C193.567 34.6154 194.029 33.5384 194.645 32.6154C194.645 33.5384 194.491 34.3077 194.491 35.2307C194.491 36 194.337 36.923 194.491 37.8461C194.491 38.4615 194.645 39.0769 194.799 39.6923C195.261 40.923 195.723 41.3846 196.493 41.3846C196.339 41.6923 196.339 41.8461 196.185 42.1538C195.415 44.3077 194.337 47.0769 194.645 49.3846C194.799 50.7692 195.723 51.8461 197.263 51.8461C199.111 51.8461 200.035 50.4615 200.651 48.923C200.959 48.1538 199.881 47.5384 199.265 48.1538C198.803 48.6154 197.571 49.6923 196.955 48.7692C196.801 48.4615 197.263 46.923 197.417 46.6154C197.725 45.2307 198.187 43.8461 198.649 42.6154C199.573 40.1538 200.651 37.6923 201.729 35.2307C202.191 33.8461 200.497 33.2307 199.727 34.1538Z" fill="white"/>
<path d="M7.39223 41.3846C7.39223 41.3846 7.54622 41.3846 7.54622 41.2307C7.54622 41.3846 7.39223 41.5384 7.39223 41.6923C7.39223 41.5384 7.39223 41.5384 7.39223 41.3846ZM12.628 25.2307C12.936 26 13.244 26.7692 13.5519 27.5384C12.32 30.3077 11.0881 33.0769 9.85612 35.8461C11.2421 32.3077 12.166 28.7692 12.628 25.2307ZM17.7098 6.92306C17.8638 7.53844 18.0177 8.15383 18.1717 8.61537C17.8638 8.15383 17.8638 7.53844 17.7098 6.92306ZM18.9417 5.84614C18.9417 5.3846 18.4797 5.23075 18.0177 5.3846C17.7098 5.3846 17.4018 5.53844 16.9398 5.53844C16.4778 5.23075 15.8618 5.3846 15.5539 5.84614C15.5539 6.15383 15.3999 6.46152 15.3999 6.61537C15.5539 6.92306 15.5539 7.0769 15.7079 7.3846C18.1717 16.9231 20.0197 26.4615 21.2516 36.1538C17.2478 31.3846 14.4759 25.6923 13.244 19.5384C12.936 18.3077 11.2421 18.6154 11.2421 19.6923C10.7801 25.2307 9.54813 30.4615 7.85421 35.5384C7.70021 26.1538 7.23824 16.7692 6.62226 7.53844C6.62226 6.92306 5.8523 6.76921 5.54431 7.23075C3.6964 8.92306 1.84848 10.6154 0.154557 12.4615C0.000564251 12.6154 0.000564251 12.9231 0.154557 13.0769C0.000564251 13.2307 0.30855 13.6923 0.616536 13.5384C1.69449 13.2308 2.77244 12.4615 3.6964 11.8461C3.85039 11.6923 4.31237 11.3846 4.62035 11.0769C4.31237 16.3077 4.62035 21.5384 4.77435 26.6154C4.92834 30.9231 5.23633 35.2308 5.39032 39.5384C5.39032 39.8461 5.39032 40.3077 5.39032 40.6154C5.54431 42.1538 5.54431 43.6923 5.69831 45.2307C5.69831 45.8461 6.62226 46.3077 6.93025 45.5384C9.24014 40.3077 11.55 35.0769 13.8599 29.8461C16.6318 35.0769 20.0197 40 23.8695 44.6154C24.3315 45.0769 25.1014 44.6154 25.1014 44.1538C24.9474 39.0769 24.3315 34.1538 23.2535 29.2307C21.8676 21.5384 20.4816 13.6923 18.9417 5.84614Z" fill="white"/>
<path d="M104.714 28.1539C103.79 30.7693 100.864 32 98.0923 31.6923C99.7862 31.5385 101.48 30.6154 102.712 29.3846C104.252 27.6923 105.022 25.2308 103.174 23.3846L103.02 23.2308C104.56 24 105.484 26.1539 104.714 28.1539ZM94.8584 28.6154C95.7824 26.9231 97.1683 25.3846 99.0162 24.7693C100.71 23.8462 101.48 24.7693 101.48 27.5385C101.172 27.8462 100.864 28.1539 100.556 28.4616C99.9402 29.077 99.0162 29.5385 98.2463 29.6923C97.0143 30 95.7824 29.3846 94.8584 28.6154ZM82.077 28C81.923 28.3077 81.769 28.4616 81.615 28.7693C81.769 28.1539 81.923 27.5385 82.077 27.077C82.385 25.5385 82.693 24 84.2329 23.3846C85.4648 22.9231 86.6968 23.3846 87.3128 24.4616C85.3109 24 83.001 26.4616 82.077 28ZM72.0675 32.9231C72.5294 33.6923 72.9914 34.4616 73.7614 35.2308C72.8374 35.077 72.3754 34 72.0675 32.9231ZM59.748 34.6154C59.594 35.077 59.44 35.5385 59.132 36C57.4381 36 56.5142 35.6923 56.3602 33.5385C56.3602 32.7693 56.3602 31.8462 56.3602 30.9231C56.3602 30.7693 56.3602 30.6154 56.5142 30.4616C56.8221 29.2308 58.6701 21.077 61.7499 23.2308C61.9039 23.2308 61.9039 23.3846 62.0579 23.3846C61.7499 23.5385 61.5959 23.8462 61.5959 24.1539C61.4419 25.5385 61.2879 27.2308 61.2879 29.077C61.1339 30 60.98 30.9231 60.672 31.6923C60.364 32.7693 60.056 33.6923 59.748 34.6154ZM55.7442 35.8462C55.8982 36 55.8982 36.1539 56.0522 36.3077C56.2062 36.4616 56.2062 36.6154 56.3602 36.6154C55.8982 36.6154 55.7442 36.3077 55.7442 35.8462ZM62.6739 21.8462C62.8279 22 62.8279 22.1539 62.8279 22.3077C62.8279 22.3077 62.8279 22.3077 62.8279 22.1539C62.8279 22 62.6739 22 62.6739 21.8462ZM62.6739 23.3846C62.6739 23.3846 62.6739 23.2308 62.6739 23.3846C62.8279 23.2308 62.8279 23.3846 62.6739 23.3846ZM107.486 32.7693C107.332 32 106.1 31.8462 105.792 32.6154C105.638 32.9231 105.484 33.2308 105.33 33.5385C104.098 35.077 102.404 36.7693 100.556 37.5385C100.248 37.5385 99.9402 37.6923 99.6322 37.6923C98.4003 37.8462 97.0143 37.6923 95.7824 37.077C93.7805 35.8462 93.3185 33.6923 93.6265 31.6923V31.5385V31.3846C96.8603 34.6154 103.944 33.077 105.792 28.7693C106.716 26.6154 106.254 24 104.406 22.4616C102.25 20.7693 100.094 21.2308 98.0923 22.6154C97.4763 22.9231 96.8603 23.2308 96.3983 23.6923C95.6284 24.3077 95.0124 24.9231 94.3964 25.8462C94.5504 24.6154 92.7025 24.4616 92.3945 25.6923C91.7786 28.3077 90.7006 30.9231 89.0067 33.077C87.9287 34.4616 84.0789 38.9231 81.923 36.6154C81.615 34.9231 81.461 33.077 82.077 31.2308C82.847 28.7693 84.8489 25.2308 87.9287 25.5385C88.3907 25.8462 89.1607 25.6923 89.1607 25.077C89.1607 24.7693 89.0067 24.3077 89.0067 24C89.1607 23.8462 89.1607 23.5385 89.1607 23.3846C88.2367 20.9231 84.2329 20.3077 82.077 21.5385C79.9211 22.6154 78.9971 25.2308 78.9971 27.5385C78.6892 28.6154 78.2272 29.6923 77.7652 30.7693C77.3032 31.6923 76.3793 34.1539 75.4553 34.7693C73.4534 32.9231 72.3754 30.6154 72.0675 28.1539C72.5294 26 72.8374 23.6923 73.1454 21.5385C74.2234 14.6154 75.7633 7.84618 77.4572 1.07695C77.4572 2.91425e-05 76.0713 -0.307663 75.4553 0.307721C72.5294 3.84618 71.4515 8.92311 70.5275 13.3846C69.4496 18.4616 69.1416 23.8462 69.4496 29.077C69.4496 29.3846 69.2956 29.6923 69.2956 30C68.8336 31.6923 68.3716 34.3077 67.1397 35.5385C66.8317 36.6154 66.0617 36.9231 64.8298 36.4616C64.6758 36.1539 64.3678 35.6923 64.2138 35.3847C63.7518 34.3077 63.5978 33.2308 63.4438 32.1539C63.2899 31.2308 63.2899 30.3077 63.1359 29.3846C63.1359 28.7693 63.2899 28.3077 63.2899 27.8462C63.4438 26.9231 63.5978 25.8462 63.7518 24.7693C63.9058 23.8462 64.2138 22.6154 64.0598 21.6923C63.7518 20.6154 62.2119 20.4616 61.9039 21.5385C56.6682 18.1539 52.6643 35.077 53.8963 38.3077C54.9742 41.2308 58.5161 40.4616 60.056 38.4616C60.826 37.5385 61.2879 36.4616 61.7499 35.2308C62.0579 36.1539 62.5199 36.9231 62.9819 37.6923C65.4458 41.077 68.0636 38.1539 69.4496 35.5385C69.6036 35.077 69.9116 34.6154 70.0655 34.1539C70.6815 36.6154 71.7595 38.9231 74.5313 38.1539C76.5333 37.5385 77.6112 35.077 78.5352 33.3847C78.6892 33.077 78.8431 32.7693 78.9971 32.6154C78.9971 33.5385 78.8431 34.3077 78.9971 35.077C79.1511 37.077 79.9211 39.077 81.923 39.8462C83.7709 40.4616 85.4648 39.3847 86.8508 38.4616C88.6987 37.077 90.0846 35.5385 91.3166 33.6923C91.1626 35.8462 91.9325 37.8462 94.0885 39.077C98.8622 42 107.024 39.6923 107.332 33.3847C107.486 32.9231 107.486 32.9231 107.486 32.7693Z" fill="white"/>
<path d="M124.887 35.8461L124.733 35.9999C124.733 35.8461 124.733 35.8461 124.887 35.8461ZM133.973 24.7692C131.971 25.0769 130.123 24.6153 128.121 23.9999C127.043 23.6923 125.965 23.2307 124.887 23.9999C123.347 25.0769 123.963 26.7692 124.887 27.9999C124.887 28.6153 125.195 29.2307 125.657 29.3846C126.581 29.6923 127.505 29.2307 127.967 28.4615C128.121 28.1538 127.813 27.8461 127.505 27.8461V27.6923C127.505 27.3846 127.505 27.0769 127.351 26.7692C128.275 27.3846 129.353 27.6923 130.277 27.5384C128.737 29.6923 127.505 32.3076 125.965 34.4615C125.657 34.3076 125.349 33.9999 124.887 34.1538C123.193 34.3076 121.807 37.5384 121.191 38.7692C120.883 39.3846 121.653 40.1538 122.269 39.8461C123.809 39.0769 124.887 37.9999 125.965 36.923C125.965 36.923 125.965 36.923 126.119 36.923C126.581 37.5384 127.197 38.1538 127.351 38.4615C128.275 39.2307 129.353 39.6923 130.585 39.5384C132.741 39.2307 135.051 36.4615 133.203 34.4615C132.895 34.1538 132.125 34.1538 131.971 34.7692C131.663 36.1538 131.663 38.4615 128.121 36.6153C127.813 36.4615 127.505 36.1538 127.351 35.8461C128.583 33.8461 129.969 31.9999 131.663 30.3076C132.895 28.923 134.127 27.6923 134.435 25.8461C134.589 25.2307 134.435 24.6153 133.973 24.7692Z" fill="white"/>
<path d="M155.997 99.3846C156.151 99.2308 156.305 98.9231 156.305 98.7692C156.305 98.9231 156.305 98.9231 156.305 99.0769C156.151 99.2308 156.151 99.3846 155.997 99.3846ZM154.765 98.6154C154.303 99.2308 152.609 101.846 151.685 101.692C149.991 101.385 152.763 97.3846 152.917 97.0769C153.225 96.7692 155.227 95.2308 156.305 95.2308C155.843 96.4615 155.381 97.5385 154.765 98.6154ZM121.964 112.308C121.964 112.308 121.964 112.462 121.964 112.615C121.964 112.462 121.964 112.154 121.964 112C121.964 110.308 122.118 108.615 122.272 106.923C122.272 108.769 122.272 110.615 121.964 112.308ZM120.27 113.692C119.5 113.846 119.346 113.692 119.038 112.923C118.576 111.846 118.884 110.615 119.346 109.692C119.654 109.077 120.116 108.462 120.578 107.846C120.732 107.692 121.04 107.385 121.194 107.231C121.04 109.077 121.04 110.769 121.04 112.615C121.04 113.231 121.194 113.385 120.27 113.692ZM137.518 99.5385C137.826 100.154 137.518 100.615 137.21 101.231C137.364 100.462 137.364 99.6923 137.21 98.9231C137.364 99.0769 137.364 99.3846 137.518 99.5385ZM145.371 94.3077C145.679 94.3077 146.295 94.3077 146.757 94.4615C144.755 94.6154 142.753 94.4615 140.905 93.8461C140.905 93.8461 140.905 93.8461 141.059 93.8461C142.445 94 143.831 94.3077 145.371 94.3077ZM114.111 99.6923C114.265 100.154 114.419 100.615 114.573 101.077C114.111 100.923 113.957 100.462 114.111 99.6923ZM116.574 93.8461C117.344 94.6154 116.266 94.6154 115.497 94.7692C115.343 94.7692 115.343 94.7692 115.189 94.7692V94.6154C115.651 93.8461 115.958 93.0769 116.574 93.8461ZM98.5573 102C98.5573 102 98.7113 102 98.5573 102C98.5573 102.308 98.5573 102.462 98.5573 102.615C98.5573 102.462 98.5573 102.308 98.5573 102ZM78.8462 98.3077C77.4602 97.2308 77.9222 94.7692 78.5382 92.9231C79.3082 92.3077 80.6941 91.3846 81.3101 92C81.3101 92 81.4641 92.1538 81.4641 92.3077C81.4641 92.4615 81.3101 92.4615 81.3101 92.6154C81.0021 94.1538 80.3861 95.6923 79.7701 97.0769C79.4621 97.2308 79.1542 97.8462 78.8462 98.3077ZM76.3823 99.2308C75.9203 98.1538 76.3823 96.3077 76.9983 95.2308C77.1522 94.9231 77.3062 94.7692 77.4602 94.4615C77.3062 95.2308 77.3062 96 77.3062 96.7692C77.3062 97.5385 77.6142 98.9231 78.3842 99.2308C77.4602 100 76.8443 100.308 76.3823 99.2308ZM79.3082 90.7692C79.3082 90.7692 79.1542 90.7692 79.3082 90.7692C79.1542 90.9231 79.1542 90.9231 79.3082 90.7692C79.1542 90.7692 79.1542 90.7692 79.3082 90.7692ZM58.8271 104.462C58.6731 106.462 58.5191 108.462 58.2111 110.462C58.0571 111.538 57.7491 112.769 57.4411 113.846C57.2871 114.308 56.9792 115.692 56.6712 116.462C55.4392 114.769 56.0552 112.462 56.5172 110.462C56.8252 109.231 57.1332 108 57.4411 106.769C57.7491 106 58.2111 105.231 58.8271 104.462C58.8271 104.308 58.8271 104.308 58.8271 104.308V104.462ZM54.6693 116.308C54.6693 116 54.6693 115.692 54.6693 115.385C54.6693 114.769 54.6693 114.154 54.8233 113.385C54.9773 112.308 55.2852 111.385 55.5932 110.308C55.4392 111.231 55.2852 112.154 55.1312 112.923C54.9773 114.308 55.1313 115.692 55.7472 116.769C55.2852 116.769 54.9773 116.462 54.6693 116.308ZM49.7415 98.7692C47.8936 98.7692 49.2795 95.6923 49.5875 94.9231C50.2035 93.6923 51.8974 90.4615 53.5913 92.1538C53.2833 93.3846 52.8214 94.4615 52.2054 95.5385C51.8974 96.1538 50.5115 98.6154 49.7415 98.7692ZM44.6597 92.4615C44.8137 92.9231 44.6597 93.5385 44.5057 94C44.5057 93.2308 44.5057 92.6154 44.5057 91.8462C44.6597 92 44.8137 92.1538 44.6597 92.4615ZM39.578 91.3846C40.6559 91.3846 40.5019 93.8462 40.5019 94.4615C40.5019 94.6154 40.5019 94.6154 40.5019 94.7692C40.5019 93.8461 40.1939 92.1538 39.578 91.3846ZM162.002 98.4615C161.54 99.2308 160.924 100 160.308 100.769C160 101.077 159.693 101.385 159.539 101.692C158.769 101.385 158.307 100.923 158.153 100.154C157.845 99.0769 157.845 97.8462 157.999 96.7692C157.999 96.7692 158.153 96.6154 158.153 96.4615C158.307 95.8462 158.307 95.2308 158.153 94.9231C158.153 94.7692 157.999 94.6154 157.845 94.6154V94.4615C156.151 92.3077 153.225 93.3846 151.685 95.0769C150.915 96 149.683 97.6923 149.529 99.2308C149.375 99.3846 149.221 99.3846 149.221 99.6923C149.067 100.462 148.913 101.231 148.451 101.846C147.835 102.769 146.911 102.154 146.141 101.538C145.833 101.231 145.525 100.923 145.217 100.615C145.833 99.8462 146.295 98.9231 146.757 98C147.373 96.9231 148.451 95.5385 148.759 94.3077C148.759 94.1538 148.759 93.8461 148.605 93.8461C147.681 93.0769 145.987 93.3846 144.755 93.3846C143.215 93.2308 141.521 92.7692 139.981 93.0769C138.287 93.3846 137.979 94.9231 137.979 96.6154C137.364 96.1538 136.902 95.6923 136.286 95.2308C135.054 94.3077 133.514 92.6154 132.128 92.1538H131.974H131.82C131.82 92.1538 131.666 92.1538 131.666 92C131.512 91.8461 131.204 92 131.05 92.1538C129.202 95.3846 127.2 98.4615 125.044 101.385C124.736 101.692 124.582 101.846 124.274 102.154C124.274 99.2308 124.428 96.4615 125.352 93.5385C125.66 92.6154 124.274 92.1538 123.966 93.0769C123.658 93.8461 123.196 94.6154 122.734 95.3846C122.58 95.3846 122.426 95.5385 122.426 95.6923V95.8461C121.964 96.4615 121.502 97.0769 121.04 97.6923C119.962 98.9231 118.422 100.462 116.882 100.923C114.881 100.462 115.497 97.8462 115.65 96C116.266 96 117.036 95.8462 117.652 95.6923C118.73 95.2308 119.962 94.1538 119.654 92.7692C119.346 91.5385 117.96 91.0769 116.882 91.3846C115.651 91.8462 114.881 93.0769 114.419 94.3077C113.957 94.1538 113.341 94 112.879 93.6923C112.417 93.3846 111.801 93.8462 111.801 94.4615C111.801 95.2308 110.415 101.538 108.721 99.6923C108.413 99.3846 108.567 97.6923 108.413 97.0769C108.413 95.6923 108.413 94.1538 108.721 92.7692C108.875 91.8461 107.489 91.5385 107.335 92.4615C107.027 94.1538 106.565 95.6923 106.257 97.3846C106.103 98 106.103 99.0769 105.641 99.5385C104.563 100.769 104.101 99.5385 103.947 98.6154C103.331 96.4615 104.255 94 102.561 92.1538C102.253 91.6923 101.637 91.8462 101.329 92.3077C100.559 93.5385 99.9432 94.9231 99.6352 96.3077C99.6352 96 99.6352 95.6923 99.4812 95.3846C99.4812 94.9231 99.3272 94.6154 99.3272 94.3077C99.3272 93.0769 99.1733 91.8461 98.4033 91.2308C98.2493 91.0769 97.9413 91.2308 97.7873 91.2308C96.5554 92.6154 95.4774 94 94.7075 95.6923C94.3995 96.3077 93.9375 98.7692 93.1675 99.8462C92.8595 99.6923 92.7055 99.3846 92.5515 98.9231C92.0896 98 92.2436 97.0769 91.1656 96.6154C92.0896 95.0769 93.0135 93.3846 94.0915 91.8462C94.5535 91.0769 93.4755 90.3077 92.8595 90.9231C91.0116 92.7692 88.2397 94.4615 87.3158 90.7692C87.1618 90 85.7759 90 85.7759 90.9231C85.6219 93.5385 85.3139 96.9231 83.774 99.2308C83.312 100 83.312 100 83.004 99.2308C82.85 98.6154 82.85 97.8462 82.696 97.2308C82.542 95.5385 82.696 93.8462 83.158 92.1538C83.158 91.8462 83.158 91.6923 83.004 91.5385C83.004 91.0769 82.696 90.7692 82.388 90.4615C81.926 89.8461 81.3101 89.3846 80.5401 89.2308C79.4621 89.0769 78.3842 90 77.6142 90.9231C77.3062 90.9231 76.9983 90.9231 76.6903 91.2308C75.6123 92.7692 73.4564 92.6154 72.5325 90.9231C72.0705 90 70.8385 90.7692 71.1465 91.6923C71.9165 94.1538 72.6865 96.6154 72.2245 99.0769C71.6085 98.3077 71.4545 97.2308 71.1465 96.6154C70.8385 95.5385 70.3766 94.6154 70.0686 93.5385C69.7606 92.7692 68.8366 93.0769 68.6826 93.8461C68.2207 95.5385 67.7587 97.0769 67.1427 98.6154C66.9887 96.1538 67.1427 93.6923 67.7587 91.2308C67.9127 90.4615 66.8347 90 66.5267 90.6154C64.6788 93.2308 62.8309 95.8461 60.983 98.4615C61.137 96 61.291 93.3846 61.599 90.9231C61.7529 90.1538 60.521 90 60.213 90.7692C59.2891 93.5385 58.0571 96 56.3632 98.3077C56.2092 98.6154 56.0552 98.7692 55.9012 99.0769C55.2852 99.8462 54.9773 99.6923 54.9773 98.9231C54.6693 98.3077 54.8233 97.0769 54.8233 96.4615C54.8233 94.7692 55.1312 93.0769 55.5932 91.5385C55.7472 90.9231 54.9773 90.4615 54.5153 90.7692C53.2833 89.3846 51.1274 90.3077 50.0495 91.8462C49.5875 92.4615 48.9715 93.5385 48.5096 94.4615C48.3556 94.4615 48.3556 94.4615 48.2016 94.6154C47.7396 95.2308 47.5856 96 47.2776 96.7692C47.2776 96.9231 47.2776 96.9231 47.1236 97.0769C46.8156 97.6923 46.5076 98.3077 45.8917 98.6154C45.7377 98.7692 45.5837 98.9231 45.5837 99.0769C45.5837 98.7692 45.5837 98.4615 45.5837 98.1538C45.5837 96.7692 45.7377 95.3846 45.8917 93.8461C46.0457 92.7692 46.5076 90.1538 44.9677 89.8462C43.7358 89.5385 42.3498 91.3846 41.7339 92.4615C41.5799 91.5385 41.4259 90.6154 40.9639 90.1538C39.8859 89.0769 38.808 90 38.038 91.2308C37.4221 92 36.8061 93.5385 36.6521 94C36.4981 94.3077 36.9601 94.4615 37.1141 94.3077C37.4221 94.3077 37.576 94.3077 37.73 94C37.884 93.5385 38.346 92.3077 38.808 91.5385C39.27 91.8462 39.578 93.6923 39.578 94.1538C39.8859 95.5385 40.0399 96.9231 40.0399 98.3077C40.0399 98.4615 40.0399 98.4615 40.1939 98.6154C40.1939 98.9231 40.1939 99.2308 40.1939 99.6923C40.1939 100.462 41.2719 100.615 41.4259 99.8462C41.5799 98.4615 41.7339 97.2308 41.8879 95.8461C42.1958 94.6154 42.5038 93.5385 43.2738 92.6154C43.4278 92.3077 43.7358 92.1538 43.8898 91.8462C43.7358 93.6923 43.7358 95.5385 43.5818 97.3846C43.4278 98.4615 43.2738 99.8461 44.0438 100.769C45.2757 102.308 46.8156 100.769 47.7396 99.5385C48.3556 100.769 49.8955 100.308 50.9734 99.3846C51.7434 98.7692 52.3594 98 52.8214 97.0769C52.6674 99.5385 52.9753 101.692 54.8233 101.692C56.3632 101.538 57.5951 98.9231 58.2111 97.8461C58.5191 97.2308 58.8271 96.6154 59.1351 96.1538C58.9811 97.8461 58.9811 99.6923 58.8271 101.385C57.7491 102.923 56.8252 104.462 55.9012 106C54.5153 108.308 53.4373 110.769 53.1293 113.538C52.9753 115.077 52.6674 118.154 54.3613 118.923C58.3651 120.615 59.4431 110.769 59.751 108.615C60.059 106.462 60.059 104.308 60.213 102C61.7529 99.5385 63.4469 97.2308 65.1408 94.7692C64.8328 97.2308 64.9868 99.5385 65.4488 102C65.6028 102.769 66.5267 102.923 66.8347 102.154C67.6047 100.462 68.2207 98.7692 68.8366 97.0769C69.4526 98.9231 70.0686 100.923 71.7625 101.692C72.0705 101.846 72.5325 101.538 72.6865 101.231C73.6104 98.9231 73.3024 96.6154 72.6865 94.3077C73.6104 94.6154 74.6884 94.6154 75.7663 94.1538C75.1503 95.3846 74.6884 96.7692 74.6884 98.1538C74.6884 100.154 75.6123 102.923 78.0762 101.231C79.1542 100.462 79.9241 99.3846 80.5401 98.1538C80.5401 100.769 81.0021 103.077 82.696 102.615C84.0819 102.308 84.8519 99.6923 85.1599 98.6154C85.6219 97.2308 86.0838 95.8461 86.2378 94.3077C86.6998 94.7692 87.3158 95.0769 88.0858 95.2308C88.7017 95.3846 89.3177 95.2308 89.9337 95.0769C89.3177 96 88.8557 97.0769 88.2397 98C88.0858 98.3077 87.7778 98.6154 87.6238 98.9231C87.1618 99.6923 86.5458 100.462 86.2378 101.385C86.0838 101.692 86.2378 102 86.5458 102C87.1618 102 87.6238 101.846 88.0858 101.385C88.5477 100.923 88.8557 99.6923 89.9337 100.154C90.3957 100.308 90.5496 101.538 90.8576 101.846C91.3196 102.615 91.9356 102.615 92.3976 102.154H92.5515C94.2455 102.308 94.8614 99.6923 95.1694 98.3077C95.7854 96.9231 96.5554 95.5385 97.3253 94.3077C97.4793 95.2308 97.4793 96.3077 97.6333 97.0769C97.6333 97.2308 97.6333 97.5385 97.6333 97.6923C97.4793 99.3846 96.8634 104.308 98.5573 103.231C99.6352 102.615 99.6352 100.615 99.9432 99.5385C100.251 98 100.867 96.6154 101.637 95.2308C101.791 96.6154 101.483 98.1538 101.945 99.3846C102.253 100.462 102.869 102.308 104.255 102.308C105.487 102.308 106.257 100.923 106.565 99.8462C106.719 100.923 107.027 102 108.105 102.154C110.877 102.462 111.955 98.3077 112.263 95.6923C112.571 95.8462 112.879 95.8462 113.033 96V96.1538C112.571 97.8461 111.955 100.308 113.033 102C113.803 103.385 115.497 103.231 116.728 102.615C118.576 101.692 120.116 100.462 121.502 98.9231C121.348 100.769 121.348 102.769 121.194 104.769C118.73 107.385 114.419 111.538 117.652 114.923C118.576 115.846 120.732 117.231 121.964 116.615C123.504 115.692 123.35 112.308 123.504 110.769C123.658 108.769 123.658 106.615 123.504 104.615C124.274 103.846 124.89 103.077 125.66 102.308C127.97 100 129.972 97.3846 131.512 94.6154C131.974 95.0769 132.59 95.3846 133.206 95.5385C133.668 96 134.13 96.4615 134.592 96.7692C136.132 98.7692 136.748 100.923 135.054 103.077C134.592 103.385 134.13 103.538 133.514 103.538C131.512 103.538 131.512 101.692 132.59 100.462C133.052 99.8462 132.436 99.2308 131.82 99.5385C130.126 100.462 129.818 102.923 131.204 104.308C132.744 105.846 135.208 105.231 136.748 103.846C137.826 102.769 138.595 101.846 138.749 100.615C138.903 99.8462 138.903 99.0769 138.595 98.4615C138.749 98.4615 138.749 98.3077 138.749 98.1538C138.749 97.0769 138.749 96 139.211 95.0769C141.059 95.8461 143.061 96.1538 145.063 96.1538C144.601 96.7692 144.293 97.3846 143.985 98C143.831 98.1538 143.215 99.2308 142.599 100.154C141.367 100.462 139.673 102.308 139.827 103.231C140.135 105.077 141.983 103.692 142.445 102.923C142.753 102.615 142.907 102.154 143.215 101.846C143.677 102 143.985 102.308 144.293 102.615C145.063 103.231 146.141 104.308 147.219 104.308C147.989 104.154 148.451 103.692 148.913 102.923C149.221 103.692 149.991 104.308 150.915 104.308C152.609 104.154 155.073 102.308 155.997 100.615C156.151 101.538 156.613 102.462 157.383 103.077C159.539 105.077 161.848 100.769 162.464 99.2308C163.234 98.4615 162.31 97.8461 162.002 98.4615Z" fill="white"/>
<path d="M203.734 95.2308C203.734 95.6923 203.58 96.1538 203.58 96.6154C203.58 96.3077 203.58 96.1538 203.58 95.8461C203.58 95.6923 203.58 95.5384 203.734 95.2308ZM204.966 86C204.658 88.1538 204.042 90.3077 203.426 92.4615C203.426 90.1538 203.734 88 204.966 86ZM177.709 119.538C177.863 119.692 177.863 119.846 178.017 120C177.863 119.846 177.709 119.692 177.709 119.538ZM176.631 100.769C175.707 100.462 178.017 97.5384 178.325 97.3846C178.633 96.7692 179.095 96.3077 179.403 95.6923C178.479 97.3846 177.555 99.0769 176.631 100.769ZM190.952 96.1538C190.952 96.3077 190.798 96.3077 190.644 96.4615C190.49 96.7692 190.336 97.0769 189.874 97.0769C189.412 97.3846 188.488 97.6923 187.564 97.6923H187.41C187.564 97.3846 187.872 97.0769 188.026 96.7692C188.334 96.4615 188.796 95.6923 189.258 95.3846C189.874 95.3846 190.182 95.3846 190.49 95.3846C190.644 95.6923 190.798 96 190.952 96.1538ZM179.711 108.769C179.711 110.308 179.865 111.692 179.865 113.231C179.865 114.308 179.865 115.538 179.711 116.615C179.711 117.077 179.711 118 179.557 118.462C179.557 118.615 179.557 118.923 179.403 119.077C179.249 118.769 179.095 118.462 178.941 118.154C177.247 115.077 178.017 111.846 179.711 108.769ZM188.796 103.385C188.488 103.385 188.18 103.231 187.872 103.077C188.026 103.231 188.334 103.385 188.796 103.385ZM207.122 100.154C206.66 100.923 206.352 101.538 205.736 102.154C205.274 102.769 205.274 102.923 204.504 102.615C204.196 100.154 204.196 97.8461 204.658 95.2308C205.736 95.2308 206.66 95.2307 207.584 95.0769C208.354 94.9231 208.354 93.5384 207.43 93.5384C206.66 93.5384 205.736 93.5384 204.966 93.5384C205.582 91.0769 206.352 88.6154 206.66 86.1538C206.66 85.5384 206.814 84.3077 206.352 83.5384C206.198 83.2307 205.89 83.0769 205.582 83.0769C204.658 83.0769 204.042 84 203.888 84.9231C202.348 87.3846 201.886 90.3077 201.886 93.2307C200.962 93.0769 200.038 93.0769 199.114 92.9231C198.652 92.9231 198.344 93.6923 198.806 94C199.73 94.4615 200.808 94.7692 201.886 94.9231C201.886 95.2308 201.886 95.6923 201.886 96C201.424 97.0769 200.962 98 200.5 99.0769C200.192 98 199.576 96.7692 198.806 95.8461C198.498 94.9231 198.19 93.8461 197.112 93.5384C196.804 93.5384 196.65 93.6923 196.496 93.8461C196.342 94 196.188 94.1538 196.034 94.3077C195.418 96.3077 194.34 98.3077 192.954 99.8461C192.8 100 192.646 100.308 192.338 100.462C191.876 100.923 191.414 101.231 190.798 101.538C190.336 101.846 189.566 102.154 188.95 102.154C188.026 102.154 186.949 101.231 186.641 100.462C186.487 100 186.487 99.3846 186.487 98.9231C188.642 99.3846 191.568 98 191.876 95.8461C191.876 95.3846 191.876 94.9231 191.722 94.4615C191.722 93.6923 191.26 93.0769 190.49 93.0769C190.028 93.0769 189.566 93.2308 189.104 93.3846C187.718 93.8461 186.487 95.3846 185.717 96.6154L185.563 96.4615C185.409 96.3077 185.255 96.1538 185.255 95.8461C185.101 95.5384 184.793 95.5384 184.639 95.8461C183.561 97.3846 182.637 98.9231 181.867 100.769L181.713 100.923C181.251 101.538 180.789 102.154 180.481 102.923C180.481 101.538 180.481 100.308 180.481 98.9231C180.481 97.3846 181.097 94.7692 179.865 93.5384C179.711 93.3846 179.403 93.5384 179.249 93.6923C178.633 94.4615 173.089 100.923 176.015 101.231C176.015 101.692 176.785 102 177.093 101.538C177.709 100.308 178.479 99.2308 179.095 98C179.095 100.462 179.095 102.769 179.249 105.231C177.555 108.154 176.323 111.231 176.015 114.462C175.861 116.462 175.861 118.615 176.785 120.462C177.247 121.385 178.479 122.615 179.403 121.692C180.019 121.231 180.327 120 180.327 118.769C180.943 116.462 180.789 113.077 180.789 112.462C180.789 110.462 180.635 108.462 180.635 106.462C182.021 104.308 183.561 102.308 184.639 100.308C184.639 101.077 184.793 102 185.101 102.769C185.871 104.154 187.103 105.077 188.796 104.923C190.798 104.615 192.492 102.923 193.724 101.538C195.11 100 196.188 98.1538 196.958 96.1538C197.574 96.9231 198.036 97.8461 198.498 98.7692V98.9231C198.652 99.6923 198.96 100.462 198.806 101.231C198.806 101.385 198.806 101.692 198.806 101.846V102C198.344 102.615 197.882 102.615 197.574 102.308C197.42 102.154 197.42 102 197.266 101.692C197.266 101.538 197.112 101.385 196.958 101.385C196.804 100.769 195.88 101.077 196.034 101.538C195.88 101.692 195.726 102 195.88 102.308C196.496 104.615 199.73 104.615 200.346 102.308C200.5 101.692 200.5 101.231 200.5 100.615C200.962 99.8461 201.27 99.2307 201.732 98.4615C201.732 98.7692 201.732 98.9231 201.732 99.2307C201.732 100.923 201.424 104.462 204.042 104.615C205.89 104.615 207.43 102 207.738 100.462C208.508 99.6923 207.43 99.5384 207.122 100.154Z" fill="white"/>
<path d="M179.554 87.077C179.554 86.9231 179.554 86.9231 179.554 87.077C179.554 86.9231 179.554 86.9231 179.554 87.077ZM178.322 87.5385C178.322 87.6924 178.322 88.0001 178.322 88.1539C178.322 88.3077 178.476 88.6154 178.63 88.6154C179.708 88.9231 180.632 87.5385 180.016 86.7693C179.708 86.3077 179.092 86.1539 178.63 86.4616C178.476 86.6154 178.322 86.7693 178.168 87.077V87.2308C178.168 87.2308 178.168 87.3847 178.322 87.5385Z" fill="white"/>
<path d="M59.9043 85.0769C60.2123 85.3846 60.5203 85.6923 60.9823 85.5384C61.7522 85.3846 62.8302 83.8461 62.2142 83.2307V83.0769C61.9062 82.7692 61.4442 82.6154 61.1363 82.6154C60.9823 82.6154 60.9823 82.6154 60.8283 82.7692C60.8283 82.6154 60.6743 82.6154 60.5203 82.6154C60.0583 82.6154 59.7503 83.2307 59.5963 83.6923C59.2883 84 59.5963 84.6154 59.9043 85.0769Z" fill="white"/>
<path d="M89.6257 88.6154C90.2416 88.6154 90.7036 88.1538 90.8576 87.5385C90.8576 87.3846 90.8576 87.3846 90.8576 87.2308C90.8576 87.0769 91.0116 86.9231 91.0116 86.6154C91.0116 86.4615 91.0116 86.4615 91.0116 86.3077C91.0116 85.8461 90.7036 85.5385 90.3956 85.5385C89.9337 85.2308 89.4717 85.0769 89.0097 85.2308C87.9317 85.6923 87.6237 86.9231 88.2397 87.8461C88.5477 88.1538 89.0097 88.6154 89.6257 88.6154Z" fill="white"/>
<path d="M107.332 88.3077C107.178 88.3077 107.178 88.3077 107.332 88.3077C107.178 88.3077 107.178 88.3077 107.332 88.3077ZM108.102 89.3846C108.256 89.2308 108.256 89.0769 108.256 88.9231C108.564 88.3077 108.41 87.3846 107.64 87.2308C106.254 86.9231 105.792 88.9231 106.562 89.6923C107.024 90.1538 107.794 90 108.102 89.3846Z" fill="white"/>
<path d="M124.425 86.7692C125.195 87.2308 126.119 86.7692 126.273 86C126.427 85.3846 125.965 84.7692 125.503 84.6154C125.349 84.4615 125.195 84.4615 125.041 84.4615C125.041 84.4615 125.041 84.4615 125.195 84.4615C125.041 84.4615 124.733 84.4615 124.579 84.6154C124.425 84.7692 124.271 84.7692 124.271 84.9231C123.809 85.3846 123.809 86.3077 124.425 86.7692Z" fill="white"/>
<path d="M356.803 50.6154C356.187 50.6154 355.571 50.7693 354.955 50.7693C354.031 50.7693 353.261 50.7693 352.337 50.7693C353.107 48.4616 353.877 46.1539 354.955 43.8462C355.725 42.3077 356.495 40.9231 357.419 39.5385C357.573 39.2308 357.727 39.077 357.881 38.7693C357.881 39.077 357.881 39.3847 357.727 39.6924C357.573 41.5385 357.419 43.3847 357.265 45.2308C357.111 47.077 356.957 48.9231 356.803 50.6154ZM368.044 50.1539C366.35 50.4616 364.503 50.6154 362.809 50.6154C362.655 50.6154 362.501 50.6154 362.347 50.6154C362.655 47.2308 363.117 43.6924 362.963 40.3077C363.271 34.6154 362.655 29.077 358.189 30.9231C355.263 32.1539 352.953 36.6154 351.567 39.2308C349.719 42.6154 348.179 46.3077 347.101 50.1539C346.947 50.4616 346.947 50.7693 346.793 51.077C345.407 51.077 343.867 51.077 342.482 51.2308C336.938 51.3847 331.394 51.6924 326.004 51.6924C327.39 46.6154 328.776 41.5385 328.93 36.1539C333.55 36.4616 338.324 36.9231 343.098 36.7693C345.099 36.6154 346.485 33.5385 344.021 32.7693C338.324 31.2308 332.318 31.077 326.466 30.6154C325.08 30.4616 323.848 32 323.848 33.3847C324.002 39.5385 322.462 45.5385 320.923 51.5385C320.307 51.5385 319.845 51.5385 319.229 51.5385C318.151 51.5385 317.227 52.1539 316.919 53.2308C316.611 54 316.303 54.7693 316.149 55.5385C313.377 59.5385 311.991 65.2308 310.605 69.8462C310.297 70.9231 309.989 72.1539 309.681 73.2308C309.373 73.5385 308.911 73.6923 308.449 73.2308C309.373 68 310.143 62.7693 310.143 57.5385C310.143 54.6154 310.297 50.6154 309.065 47.5385C309.527 47.077 310.143 46.7693 310.451 46.3077C311.683 45.2308 312.761 44 313.531 42.6154C315.841 38.1539 313.531 33.077 309.065 31.077C304.599 28.9231 298.748 29.3847 294.282 31.5385C290.124 33.5385 285.812 38.3077 286.582 43.2308C286.736 44.6154 288.892 44.7693 289.508 43.5385C290.74 41.077 291.664 38.4616 294.128 36.7693C296.746 34.9231 299.979 34.3077 303.213 34.7693C305.985 35.077 310.913 37.077 308.911 40.6154C307.525 43.2308 304.445 44.1539 301.519 44.6154C301.519 42.7693 301.519 41.077 301.211 39.3847C301.057 37.5385 298.132 37.5385 297.824 39.2308C296.438 45.8462 296.438 52.6154 295.668 59.2308C294.898 65.3847 293.666 71.5385 293.204 77.6923C293.05 80.6154 297.516 80.4616 298.132 77.8462C299.518 72.1539 299.979 66 300.441 60.1539C300.749 57.077 301.057 54 301.211 50.9231C302.443 50.7693 303.675 50.4616 304.753 50C305.061 52.1539 305.369 54.1539 305.369 56.4616C305.369 60 305.061 63.3847 304.599 66.9231C303.983 70.7693 300.287 80.1539 304.753 82.9231C309.373 85.6924 313.223 78.3077 314.301 75.077C315.225 72.4616 315.687 69.8462 316.611 67.2308C317.227 65.5385 317.997 63.8462 318.613 62.1539C318.305 64 318.151 66 318.305 67.8462C318.305 71.5385 317.227 78.4616 322 79.6924C324.772 80.3077 328.006 80.3077 330.778 80.1539C332.164 80 333.704 80 334.936 79.6924C338.17 79.8462 341.558 79.2308 342.02 76.1539C342.02 75.8462 342.02 75.3847 342.02 75.077C342.636 74 341.558 72.3077 340.326 73.2308C340.172 73.2308 340.172 73.3847 340.018 73.3847C339.556 73.3847 339.248 73.3847 338.786 73.5385C338.478 73.6923 338.324 73.8462 338.17 74C335.706 74.3077 332.78 73.6924 330.624 73.6924C328.314 73.6924 325.85 74 323.54 74.4616C323.54 74.1539 323.54 74 323.54 73.6924C324.002 68.1539 324.618 62.6154 325.08 57.2308C326.62 57.2308 328.314 57.2308 329.854 57.2308C334.012 57.077 338.17 57.077 342.174 56.9231C343.252 56.9231 344.329 56.9231 345.253 56.9231C343.867 63.8462 343.559 71.077 343.098 78.1539C342.944 81.6923 348.179 81.3847 348.333 78C348.795 70.9231 349.103 63.8462 350.489 56.7693C351.567 56.7693 352.645 56.7693 353.723 56.6154C354.339 56.6154 355.109 56.6154 355.879 56.6154C355.879 56.7693 355.879 56.7693 355.879 56.9231C355.879 64.6154 357.265 72.3077 359.575 79.5385C360.191 81.5385 363.579 81.077 363.271 78.9231C362.963 75.5385 362.501 72.1539 362.039 68.7693C361.731 64.7693 361.577 60.6154 361.577 56.6154C364.195 56.9231 366.658 56.9231 369.122 56.1539C369.738 56 369.892 55.3847 369.892 54.9231C371.586 52.9231 370.662 49.6924 368.044 50.1539Z" fill="white"/>
<path d="M391.296 66.6154C390.372 65.0769 389.294 63.6923 388.062 62.3077C386.214 59.6923 384.058 56.3077 381.44 54.6154C382.518 53.5384 383.596 52.3077 384.674 51.2307C388.062 47.6923 391.142 44 393.914 40C395.608 37.8461 397.302 35.5384 398.534 33.0769C400.074 30.1538 395.3 28.4615 393.76 31.3846C392.836 33.2307 390.988 35.2307 389.756 36.9231C388.37 38.9231 386.83 40.7692 385.444 42.6154C383.596 45.0769 381.594 47.5384 379.746 49.8461C379.9 47.6923 380.054 45.5384 380.208 43.3846C380.516 39.3846 381.44 34.7692 380.516 30.9231C380.208 29.5384 377.899 29.5384 377.437 30.7692C375.897 34.4615 375.897 38.7692 375.435 42.6154C374.973 46.3077 374.665 50.1538 374.203 53.8461C373.895 57.5384 373.587 61.0769 373.125 64.7692C372.663 68.7692 371.739 72.4615 371.123 76.4615C370.661 79.2308 374.665 80.4615 375.743 77.8461C378.207 72.1538 378.515 65.2308 378.977 58.7692C380.516 61.3846 382.826 63.8461 384.52 66.1538C387.138 70 389.448 74 391.45 78C392.682 80.4615 396.224 79.0769 396.378 76.6154C396.532 73.5384 396.686 70.4615 396.378 67.3846C396.224 64.3077 391.912 64 391.296 66.6154Z" fill="white"/>
<path d="M418.246 68.9231C419.016 66.6154 415.783 65.0769 414.089 66.7692C412.703 68.1538 411.933 70.1538 410.393 71.3846C408.237 72.9231 406.235 70.9231 405.311 69.0769C403.771 65.8461 404.387 62 405.157 58.7692C405.927 55.0769 412.703 34.9231 418.246 39.6923C418.862 40.1538 419.94 40 420.402 39.3846C422.25 36.7692 419.786 33.8461 416.86 33.6923C413.627 33.5385 411.009 36.3077 409.007 38.4615C404.233 43.8461 401.461 50.9231 399.921 57.8461C399.459 60.3077 398.997 62.9231 399.151 65.3846C399.151 69.3846 399.921 73.2308 403.309 75.2308C403.309 75.2308 403.309 75.2308 403.463 75.2308C409.469 80.1538 416.399 74.9231 418.246 68.9231Z" fill="white"/>
<path d="M412.086 94.1538C411.932 94 411.778 94 411.624 93.8461C410.7 89.0769 417.476 84.7692 422.558 81.5384C422.404 82.3077 422.096 82.923 421.942 83.6923C421.018 86.4615 419.786 89.2307 418.246 91.8461C417.63 92.923 416.86 94.4615 415.782 95.3846C414.396 95.2307 413.01 94.7692 412.086 94.1538ZM428.871 77.2307C434.261 73.2307 439.035 68.7692 443.193 64C443.501 63.6923 443.655 63.2307 443.501 62.923C443.655 62.7692 443.655 62.7692 443.809 62.6154C444.425 61.8461 443.039 61.0769 442.115 61.5384C441.037 61.0769 439.651 61.2307 438.727 62.1538C436.263 64.923 433.645 67.6923 430.565 70.3077C431.489 66.6154 432.567 63.0769 433.491 59.3846C433.953 57.8461 434.107 56.1538 434.415 54.4615C435.185 52.6154 435.955 50.6154 436.417 48.7692C436.417 48.4615 436.571 48.3077 436.571 48C436.879 47.5384 437.033 47.2307 437.341 46.7692C437.803 46 436.725 45.3846 435.647 45.6923C435.493 45.6923 435.185 45.8461 435.031 45.8461C434.415 45.5384 433.645 45.2307 432.567 45.2307C426.099 44.3077 420.71 47.8461 421.018 52.1538C421.172 53.6923 424.867 53.5384 425.021 52.1538C425.329 50.1538 428.255 47.8461 431.489 48.6154C431.335 49.6923 430.411 51.2307 430.103 52C429.487 53.6923 428.871 55.2307 428.255 56.923C427.331 59.8461 426.561 62.6154 425.945 65.5384C425.175 68.7692 424.713 72.1538 423.943 75.3846C423.943 75.3846 423.944 75.3846 423.79 75.3846C422.404 76.3077 421.018 77.2307 419.632 78C414.55 81.0769 407.466 84.923 407.158 89.6923C406.85 90.3077 406.696 90.923 406.542 91.6923C405.926 94.6153 407.466 98.7692 412.548 99.6923C416.706 100.462 419.17 98.1538 420.864 95.8461C421.788 95.3846 422.558 94.7692 423.173 94C424.867 91.8461 425.483 89.2307 425.945 86.6153C426.715 84.7692 427.331 82.923 427.793 80.923C428.255 79.8461 428.563 78.4615 428.871 77.2307Z" fill="white"/>
<path d="M464.443 38.3077L464.597 38.1539C464.597 39.5385 464.597 40.9231 464.443 42.3077C464.443 42.9231 464.289 43.6923 464.289 44.3077C464.135 45.5385 463.981 46.6154 463.827 47.8462C462.442 48 461.056 48 459.67 48.1539C461.056 44.7693 462.596 41.5385 464.443 38.3077ZM477.379 50.9231C476.301 47.2308 472.143 47.077 468.447 47.3847C469.525 42.1539 471.527 31.8462 465.829 31.077C462.596 30.7693 460.748 34.6154 459.67 36.9231C457.668 40.6154 456.128 44.4616 454.588 48.3077C454.434 48.3077 454.126 48.3077 453.972 48.3077C451.046 48.4616 448.12 48.3077 445.194 48.6154C445.04 48.6154 445.04 48.6154 444.886 48.6154C444.732 48.6154 444.732 48.6154 444.578 48.6154C444.424 48.6154 444.27 48.6154 444.116 48.6154C443.808 48.6154 443.654 48.6154 443.346 48.7693C443.192 48.7693 443.038 48.9231 442.884 48.9231C441.96 49.2308 441.036 49.6924 440.267 50.3077C439.343 51.077 439.805 52.1539 440.575 52.6154C440.729 52.9231 440.882 53.2308 441.344 53.2308C442.73 53.2308 444.116 53.2308 445.502 53.077C447.812 53.2308 449.968 53.2308 452.278 53.3847C449.66 59.5385 447.042 65.5385 444.886 71.8462C444.424 73.077 443.962 74.3077 443.5 75.5385C443.5 75.6923 443.5 75.8462 443.5 76C443.5 76.1539 443.346 76.4616 443.346 76.6154C443.038 77.6923 444.732 78.4616 445.194 77.3847C449.044 70.7693 452.124 63.8462 455.358 56.7693C455.82 55.6924 456.436 54.4616 456.898 53.3847C458.9 53.3847 460.748 53.3847 462.75 53.3847C461.672 60.6154 460.44 67.6924 459.362 74.9231C459.208 75.5385 459.362 76 459.67 76.4616C459.824 76.9231 460.132 77.3847 460.594 77.5385C460.748 77.5385 460.902 77.5385 461.056 77.5385C461.518 77.5385 461.826 77.3847 462.134 77.077C463.057 76.7693 463.827 76.1539 463.981 74.9231C465.059 67.6924 465.983 60.6154 467.061 53.3847C468.139 53.3847 469.217 53.5385 470.141 53.6924C470.295 53.6924 470.603 53.6924 470.757 53.6924C471.989 53.8462 473.067 53.8462 474.299 53.8462C476.147 54.7693 477.995 53.2308 477.379 50.9231Z" fill="white"/>
<path d="M290.121 99.5385L392.526 94.7693" stroke="white" stroke-width="3" stroke-miterlimit="10"/>
<path d="M432.719 91.6923L483.998 89.6923" stroke="white" stroke-width="3" stroke-miterlimit="10"/>
</g>
<defs>
<clipPath id="clip0_39_5257">
<rect width="484" height="122" fill="white"/>
</clipPath>
</defs>
</svg>
