<svg width="346" height="80" viewBox="0 0 346 80" fill="none" xmlns="http://www.w3.org/2000/svg">
<path d="M119.414 26.0067C119.357 29.2856 118.85 32.5327 117.913 35.6251C117.204 38.0815 116.025 40.3179 114.466 42.1656C113.066 43.8111 111.189 44.7857 109.204 44.8972C108.401 44.9319 107.603 44.7381 106.879 44.3326C106.155 43.927 105.526 43.322 105.047 42.5696C105.047 42.5696 104.882 42.281 104.8 42.1271C104.717 41.9732 104.602 41.6847 104.585 41.627C104.399 41.1785 104.239 40.7157 104.107 40.2419C104.107 40.1265 104.107 39.9149 104.008 39.8764C104.008 39.5494 103.893 39.2416 103.843 38.9146C103.729 38.1901 103.657 37.4574 103.629 36.7216C103.629 36.7216 103.629 36.6254 103.629 36.5869V36.3945C103.629 35.9906 103.629 35.5674 103.629 35.1634C103.629 34.4132 103.711 33.6822 103.777 32.9319C103.946 31.376 104.221 29.8385 104.602 28.3343C105.468 25.3313 106.47 22.3839 107.604 19.5046L107.736 19.37C108.497 18.3499 109.307 17.3801 110.161 16.4652C110.334 16.2746 110.516 16.0948 110.705 15.9266L110.887 15.8112C111.281 15.5651 111.695 15.3653 112.124 15.2148L112.701 15.0802H112.816H113.064C114.015 15.1951 114.929 15.5681 115.734 16.1694C116.539 16.7707 117.212 17.5835 117.699 18.5428C118.194 19.4258 118.582 20.3838 118.854 21.3898C119.234 22.894 119.413 24.458 119.381 26.0259L119.414 26.0067ZM111.167 6.00038C109.109 6.34075 107.167 7.31714 105.542 8.82819C104.743 9.51969 104.051 10.3655 103.497 11.329C103.16 11.9316 102.883 12.577 102.672 13.2526C100.327 16.9842 98.5829 21.182 97.5255 25.6412C96.3871 29.6309 95.8785 33.8283 96.0244 38.0297C96.4368 46.2246 101.154 53.8039 108.561 53.9963C116.709 54.1887 122.631 46.8787 125.171 38.299C127.712 29.7194 128.157 19.0622 122.895 11.8484C121.51 9.81931 119.711 8.22781 117.662 7.21959C115.613 6.21137 113.38 5.81863 111.167 6.07734" fill="black"/>
<path d="M166.392 15.4114C165.729 15.0409 164.946 14.9472 164.214 15.1509C163.481 15.3546 162.86 15.8391 162.484 16.4987C159.006 22.5004 156.066 28.7965 153.696 35.3139C153.696 34.7112 153.602 34.1321 153.566 33.5293C153.317 30.0547 153.045 26.5682 152.749 23.0935C152.674 20.1911 151.752 17.3735 150.096 14.986C149.818 14.6138 149.448 14.3207 149.021 14.1358C148.594 13.9509 148.127 13.8806 147.664 13.932C147.202 13.9834 146.761 14.1546 146.386 14.4287C146.011 14.7027 145.714 15.0701 145.525 15.4941C140.167 26.8112 137.338 39.155 137.234 51.6708C137.234 54.8146 141.972 55.0864 142.09 51.9072C142.437 42.6694 144.211 33.5404 147.349 24.8427V24.9963C147.514 28.0691 147.656 31.142 147.846 34.2148L148.947 52.4509C149.007 53.157 149.318 53.8185 149.824 54.3157C150.33 54.8129 150.997 55.1129 151.706 55.1614C152.414 55.21 153.117 55.0038 153.686 54.5804C154.255 54.1569 154.654 53.5441 154.81 52.8527C156.841 43.1825 160.088 33.8071 164.474 24.949C164.474 25.2918 164.474 25.599 164.474 25.8354C164.553 28.9004 164.632 31.9614 164.711 35.0185C164.876 41.105 164.995 47.2034 165.232 53.29C165.374 57.1547 171.213 56.8356 171.153 52.9472C170.988 45.9506 170.703 38.9541 170.455 31.9575C170.348 28.8255 170.384 25.6582 170.087 22.5026C169.803 19.5834 168.903 17.0306 166.381 15.4114" fill="black"/>
<path d="M200.311 53.2663C200.394 53.4673 200.37 53.4554 200.311 53.2663V53.2663ZM215.257 51.2808C215.163 51.9072 214.322 51.3872 213.99 50.9617C212.948 49.638 212.735 47.3334 212.522 45.7261C211.97 41.5353 212.207 37.2788 213.22 33.1748C213.414 32.4557 213.328 31.6899 212.978 31.032C212.629 30.374 212.042 29.8728 211.337 29.6292C210.98 29.5164 210.605 29.4756 210.232 29.5093C209.859 29.5429 209.497 29.6503 209.166 29.8253C208.835 30.0002 208.543 30.2391 208.305 30.5281C208.068 30.8171 207.891 31.1503 207.784 31.5083C207.055 35.4243 205.887 39.246 204.302 42.9014C203.538 44.642 202.684 46.3422 201.744 47.9952C201.223 48.9053 200.69 49.8035 200.122 50.6781C199.92 50.9972 199.719 51.3163 199.506 51.6354C199.352 51.2926 199.198 50.9617 199.068 50.6072C198.613 49.4461 198.218 48.2627 197.883 47.0616C197.159 44.3892 196.761 41.6391 196.699 38.8713C196.628 36.3421 196.699 33.6829 195.373 31.4256C194.838 30.4408 194.073 29.5991 193.143 28.9717C192.214 28.3442 191.146 27.9495 190.031 27.8209C184.737 27.4664 183.02 33.3757 181.563 37.3703L181.457 37.6894C181.232 35.5148 180.947 33.3638 180.545 31.2483C180.059 28.7191 175.926 28.5655 175.89 31.3665C175.784 38.694 176.601 46.057 176.767 53.3845C176.826 56.4456 181.362 57.6392 182.238 54.3655C183.754 48.6807 185.531 43.0433 187.603 37.5358C187.923 36.6967 188.859 33.0684 190.031 33.8484C191.642 34.9239 190.908 39.2849 191.026 40.9395C191.222 43.7731 191.718 46.578 192.506 49.3071C193.253 51.8599 194.176 55.0982 195.906 57.1546C200.465 62.5794 205.191 53.8573 207.074 50.4062C207.18 50.2171 207.263 50.0281 207.37 49.839C207.619 50.8939 207.968 51.9228 208.412 52.9118C208.942 54.2625 209.875 55.4184 211.084 56.2236C212.293 57.0288 213.721 57.4445 215.174 57.4146C215.952 57.4087 216.719 57.2371 217.425 56.9114C218.13 56.5856 218.758 56.1132 219.266 55.5258C219.774 54.9383 220.15 54.2494 220.37 53.5051C220.59 52.7608 220.647 51.9783 220.539 51.2099C220.444 50.5713 220.122 49.9881 219.632 49.5666C219.141 49.1451 218.516 48.9132 217.869 48.9132C217.222 48.9132 216.596 49.1451 216.106 49.5666C215.616 49.9881 215.294 50.5713 215.198 51.2099" fill="black"/>
<path d="M236.078 37.7131C233.497 37.7131 230.903 37.7131 228.309 37.8667C228.451 37.6658 228.582 37.4413 228.724 37.2403C230.974 34.1912 234.112 31.5556 238.08 32.0638C239.557 32.2765 240.946 32.8972 242.088 33.8558C243.231 34.8144 244.082 36.0726 244.546 37.4885C241.728 37.5713 238.897 37.654 236.078 37.7131ZM242.296 26.8163C239.576 25.7382 236.588 25.5317 233.745 26.2254C230.748 27.0751 228.051 28.7504 225.964 31.0592C222.08 35.0303 219.202 40.9041 220.291 46.6243C220.844 49.3785 222.096 51.945 223.927 54.0784C225.758 56.2118 228.107 57.8407 230.749 58.8093C237.132 61.0902 246.216 59.4593 250.314 53.6563C250.647 53.0358 250.744 52.3162 250.587 51.6299C250.431 50.9437 250.031 50.337 249.461 49.9217C248.96 49.5335 248.343 49.3253 247.708 49.3307L246.974 49.4371C246.482 49.5833 246.036 49.8564 245.683 50.229C244.65 50.676 243.669 51.2348 242.758 51.8954C241.907 52.3768 241.011 52.7727 240.081 53.0772C238.165 53.6684 236.135 53.794 234.16 53.4436C232.545 53.125 231.032 52.4211 229.749 51.3921C228.466 50.3631 227.452 49.0394 226.793 47.5343C226.271 46.2671 226.068 44.8915 226.201 43.5278C229.647 43.8469 233.177 43.7169 236.611 43.7169C240.508 43.7169 244.416 43.7169 248.312 43.5869C248.984 43.5014 249.609 43.1965 250.088 42.7198C250.568 42.243 250.877 41.6213 250.965 40.9514C251.149 37.9982 250.413 35.0607 248.856 32.5423C247.299 30.024 245 28.0485 242.272 26.8873" fill="black"/>
<path d="M209.891 13.8632C209.96 14.1275 210.043 14.3879 210.14 14.6432C210.133 14.6863 210.133 14.7301 210.14 14.7732C210.284 15.0638 210.455 15.3407 210.649 15.6005L210.791 15.7778C211.014 16.006 211.251 16.2192 211.502 16.416C211.813 16.6368 212.151 16.8157 212.509 16.9478C212.873 17.0786 213.25 17.1697 213.634 17.2197C213.791 17.2373 213.95 17.2373 214.108 17.2197C214.506 17.2318 214.904 17.1921 215.292 17.1015C215.59 17.0168 215.883 16.9142 216.168 16.7942L216.381 16.6878C216.647 16.5202 216.904 16.3387 217.151 16.1442C217.219 16.0985 217.279 16.0426 217.329 15.9787C217.62 15.6902 217.871 15.3644 218.075 15.0096C218.209 14.7584 218.323 14.4977 218.418 14.2296C218.418 14.2296 218.418 14.1468 218.418 14.0996C218.506 13.7715 218.553 13.4343 218.561 13.095C218.572 13.0047 218.572 12.9134 218.561 12.8232C218.561 12.5395 218.478 12.2559 218.43 11.984C218.435 11.9329 218.435 11.8815 218.43 11.8304C218.322 11.5032 218.183 11.1866 218.016 10.8849C217.97 10.7854 217.914 10.6905 217.85 10.6013C217.64 10.3108 217.406 10.038 217.151 9.78578C217.074 9.70486 216.991 9.6298 216.903 9.56123C216.613 9.34099 216.303 9.14719 215.979 8.98213C215.658 8.83136 215.32 8.72024 214.972 8.65121C214.882 8.63971 214.79 8.63971 214.7 8.65121C214.365 8.61553 214.028 8.61553 213.693 8.65121C213.3 8.68382 212.921 8.81379 212.592 9.02938C212.419 9.11353 212.256 9.2166 212.106 9.33667H212.035C211.645 9.56948 211.29 9.85594 210.981 10.1876C210.678 10.5184 210.426 10.8929 210.235 11.2986C210.038 11.704 209.91 12.1393 209.856 12.5868C209.85 12.6812 209.85 12.776 209.856 12.8704V12.965C209.856 13.1304 209.856 13.5323 209.856 13.6977C209.85 13.7448 209.85 13.7924 209.856 13.8395" fill="black"/>
</svg>
