<svg width="323" height="59" viewBox="0 0 323 59" fill="none" xmlns="http://www.w3.org/2000/svg">
<path d="M199.927 4.61346L193.975 16.7766L180.495 18.6879L190.298 28.2447L188.023 41.6241L199.927 35.3688L212.007 41.6241L209.731 28.2447L219.36 18.6879L205.879 16.7766L199.927 4.61346Z" fill="#BDC0C0"/>
<path d="M318.623 10.3475C318.623 13.4752 318.448 16.7766 318.273 19.9042C318.098 25.6383 317.923 31.3723 317.748 37.1064C317.573 25.4645 317.223 11.0425 316.522 9.13118C316.697 9.13118 316.873 9.13118 317.048 9.13118C317.223 9.13118 317.573 9.13118 317.748 9.13118C317.923 9.13118 318.273 9.13118 318.448 9.13118C318.798 9.4787 318.623 9.99997 318.623 10.3475ZM56.5468 52.5709C47.2682 52.3971 37.9896 52.0496 28.8861 51.8759L167.89 53.961C153.534 53.961 139.354 53.7872 124.998 53.6135C102.064 53.2659 79.3056 53.0922 56.5468 52.5709ZM3.15113 47.8794C3.15113 47.7057 3.15113 47.5319 3.15113 47.3581C3.67633 47.1844 4.02647 46.8369 4.20154 46.1418C4.37661 44.4042 4.37661 42.4929 4.37661 40.7553C4.37661 38.6702 4.37661 36.7588 4.55167 34.6737C4.72674 31.1986 4.72674 27.7234 4.90181 24.2482C5.07688 20.773 5.07688 17.4716 5.25195 13.9964C5.25195 11.0425 5.42701 7.74111 5.25195 4.61345C5.95222 4.61345 6.47742 4.61345 7.17769 4.61345L4.37661 50.8333C4.20154 50.8333 3.8514 50.8333 3.67634 50.6595C2.97606 50.312 3.15113 48.5744 3.15113 47.8794ZM152.484 5.656C167.19 5.656 182.07 5.82976 196.776 6.00352C210.957 6.17728 225.137 6.35104 239.318 6.5248C251.922 6.69856 264.527 7.04607 277.132 7.39359C287.461 7.74111 297.615 8.08863 307.944 8.6099C309.17 8.6099 310.395 8.78366 311.621 8.78366C288.337 8.43614 186.797 6.87232 107.316 5.48224C107.667 5.48224 108.192 5.48224 108.542 5.48224C123.073 5.48224 137.778 5.656 152.484 5.656ZM320.199 5.48224C318.973 4.96097 317.573 5.13472 316.347 4.96097C306.894 4.26593 297.265 3.91841 287.636 3.5709C275.557 3.04962 263.302 2.87586 251.222 2.52834C237.392 2.18082 223.386 2.00707 209.556 1.83331C194.675 1.65955 179.97 1.48579 165.089 1.48579C150.208 1.31203 135.327 1.31203 120.447 1.31203C106.266 1.31203 92.0856 1.13827 77.9051 1.13827C65.4753 1.13827 53.0454 0.964513 40.6156 0.964513C30.6368 0.964513 20.6579 0.790752 10.679 0.616994C8.7533 0.616994 6.82756 0.616996 4.72674 0.443237C3.3262 0.443237 2.45086 1.48579 2.45086 2.52834C2.45086 2.52834 2.45086 2.52834 2.45086 2.7021C1.40045 6.5248 1.57552 10.3475 1.40045 14.3439C1.22539 17.8191 1.05032 21.4681 1.05032 24.9432C0.875251 28.4184 0.875251 32.0674 0.700183 35.5425C0.700183 37.8014 0.525115 40.0603 0.350048 42.3191C0.17498 44.0567 0.17498 45.7943 -8.78139e-05 47.5319C-8.78139e-05 49.2695 -0.350223 51.5283 0.875251 52.9184C2.27579 54.4822 5.25194 54.3085 7.35276 54.4822C11.2042 54.8298 15.2308 55.1773 19.0823 55.351C28.1858 55.8723 37.4644 56.2198 46.5679 56.5674C68.9766 57.2624 91.3853 57.6099 113.969 57.7837C138.829 58.1312 163.688 58.1312 188.548 58.3049C212.007 58.4787 235.291 58.4787 258.75 58.6525C276.607 58.8262 294.639 58.8262 312.496 59.1737C314.071 59.1737 315.822 59.1737 317.398 59.3475C320.374 59.3475 320.549 55.1773 317.573 55.1773C300.766 54.8298 283.785 54.656 266.978 54.656C252.798 54.656 238.617 54.4822 224.612 54.4822L317.573 52.3971C317.573 52.9184 317.573 53.6134 317.748 54.1347C317.748 55.351 319.849 55.351 320.024 54.1347C320.899 45.0993 321.599 36.2376 322.125 27.2021C322.475 22.5106 322.65 17.9929 322.825 13.3014C322.825 12.2588 323 11.2163 322.825 10.1737C322.825 7.91487 322.125 6.17728 320.199 5.48224Z" fill="white"/>
<path d="M24.3344 34.6737C23.9843 35.195 23.8092 35.7163 23.284 36.2376C23.284 36.2376 22.4086 36.7588 22.7588 36.5851C22.5837 36.5851 22.4086 36.7588 22.2336 36.7588H21.8834C21.5333 36.7588 21.3582 36.7588 21.0081 36.7588H20.833C20.833 36.7588 20.658 36.7588 20.658 36.5851C20.3078 36.4113 20.1328 36.0638 19.9577 35.7163C19.6076 35.0213 19.4325 34.1525 19.2574 33.2837C19.0824 31.1986 19.4325 28.9397 20.3078 27.0284C20.833 25.9858 21.3582 24.9432 22.0585 23.9007C22.2336 23.5532 22.7588 23.0319 23.1089 22.6844V22.8581C23.284 24.2482 25.7349 24.422 25.91 22.8581C25.91 22.1631 26.0851 21.4681 25.91 20.773C25.7349 19.9042 25.3848 19.383 24.5095 19.2092C21.1832 18.1667 18.7322 21.2943 17.3317 23.5532C15.9311 25.812 15.2309 28.4184 14.8807 31.0248C14.7057 33.4574 14.8807 36.0638 16.2813 38.1489C17.6818 40.0603 19.9577 41.1028 22.5837 40.7553C25.3848 40.234 28.1859 38.1489 27.8357 35.195C27.6607 33.2837 25.0347 33.1099 24.3344 34.6737Z" fill="#013193"/>
<path d="M39.3903 36.5851C39.2152 37.2802 38.8651 38.4965 38.1648 38.844C37.6396 39.0177 36.9393 38.844 36.4141 38.6702C34.6635 37.8014 34.3133 35.5426 34.1383 33.9787C33.6131 30.5036 33.9632 27.0284 34.6635 23.5532C34.8385 23.3795 35.0136 23.2057 35.1887 23.0319C35.5388 22.3369 35.3637 21.6419 36.064 21.1206C36.5892 20.5993 37.2895 20.4256 38.1648 20.7731C39.7404 21.2943 40.4407 22.8582 40.7908 24.2482C41.316 28.4185 40.6158 32.7624 39.3903 36.5851ZM36.4141 16.9504C34.4884 17.1241 32.5627 18.1667 31.8624 19.9043C31.6873 20.4256 31.5122 20.9468 31.5122 21.6419C30.2868 25.117 29.7616 28.766 29.9366 32.2412C30.1117 35.8901 30.812 40.4078 34.8385 42.1454C36.5892 42.8404 38.515 43.0142 40.2656 42.1454C42.1914 41.1029 43.0667 38.844 43.5919 36.9326C44.8174 32.9362 45.3426 28.4185 44.6423 24.2482C43.767 20.4256 40.9659 16.6029 36.4141 16.9504Z" fill="#013193"/>
<path d="M69.1519 26.3334C68.4517 25.9858 67.7514 25.2908 67.9265 24.422C68.2766 23.5532 69.1519 23.3795 70.0273 23.5532C71.953 23.9007 72.6533 20.7731 70.7275 20.4256C67.4013 19.7305 64.25 21.8156 64.25 24.9433C64.25 26.3334 64.9503 27.7234 66.1758 28.5922C67.2262 29.2873 68.4517 29.8085 69.327 30.6773C70.7275 32.2412 70.9026 34.6738 68.9769 35.8901C68.2766 36.4114 67.4013 36.4114 66.701 36.0639C66.1758 35.8901 66.0007 35.5426 65.6506 35.1951C65.3004 34.6738 65.1254 33.6312 64.7752 32.9362C64.25 32.0674 62.8495 32.0674 62.3243 32.7624C62.1492 32.9362 61.624 33.9788 61.624 34.3263C61.624 34.5 61.624 34.6738 61.624 35.0213C61.624 35.1951 61.624 35.5426 61.7991 35.7163C61.9742 36.2376 62.3243 36.9327 62.6744 37.4539C63.3747 38.4965 64.4251 39.1915 65.6506 39.7128C68.2766 40.7553 71.0777 39.7128 72.8284 37.8014C74.404 36.0639 74.9292 33.6312 74.2289 31.5461C73.1785 29.1135 71.4278 27.5497 69.1519 26.3334Z" fill="#013193"/>
<path d="M77.2048 22.1631C76.8546 24.9433 76.5045 27.5496 76.1544 30.3298C75.9793 31.7199 75.8042 33.1099 75.8042 34.5C75.6292 35.7163 75.4541 37.1064 75.4541 38.3227C75.4541 39.1915 76.5045 39.8865 77.3798 39.8865C78.4303 39.8865 79.1305 39.1915 79.3056 38.3227C79.4807 37.1064 79.4807 35.8901 79.4807 34.6738C79.4807 33.1099 79.6557 31.5461 79.6557 29.9823C79.8308 27.3759 79.8308 24.9432 79.8308 22.3369C80.1809 20.5993 77.3798 20.4255 77.2048 22.1631Z" fill="#013193"/>
<path d="M83.3324 14.344C83.6826 14.5178 84.2078 14.344 84.5579 14.1702C84.9081 13.9965 85.0831 13.8227 85.2582 13.4752C85.4333 13.1277 85.4333 12.9539 85.4333 12.6064C85.2582 12.2589 85.0831 11.9114 84.733 11.7376C83.8577 11.3901 83.1574 11.0426 82.282 10.6951C82.4571 10.6951 82.4571 10.8688 82.6322 10.8688C82.4571 10.8688 82.282 10.6951 82.282 10.6951C82.107 10.5213 81.7568 10.5213 81.4067 10.5213C81.2316 10.5213 81.0566 10.5213 80.8815 10.5213C80.5314 10.5213 80.3563 10.6951 80.0062 10.8688C79.8311 11.0426 79.656 11.2163 79.656 11.3901C79.481 11.5639 79.481 11.7376 79.481 11.9114C79.481 12.0851 79.481 12.2589 79.656 12.6064C79.656 12.7802 79.8311 12.9539 80.0062 13.1277C80.1812 13.3014 80.5314 13.4752 80.7064 13.649C81.0566 13.8227 81.5818 13.8227 81.9319 13.9965L81.5818 13.8227C82.107 13.9965 82.8072 14.1702 83.3324 14.344Z" fill="#013193"/>
<path d="M95.7618 36.2376C94.8865 35.7163 94.0111 36.0639 93.3109 36.5851C93.3109 36.5851 93.3109 36.5851 93.1358 36.5851C92.7857 36.5851 92.4355 36.5851 92.0854 36.5851C91.21 36.5851 90.3347 36.4114 89.4594 36.4114C88.409 36.4114 87.3586 36.2376 86.1331 36.2376C85.958 34.3263 86.1331 32.2412 86.1331 30.3298C86.4832 30.3298 86.8334 30.3298 87.1835 30.1561C88.0588 30.1561 89.1092 30.1561 89.9846 30.1561C90.8599 30.1561 91.7353 29.461 91.7353 28.5922C91.7353 27.5497 91.035 27.0284 89.9846 26.8546C88.7591 26.6809 87.7087 26.6809 86.4832 26.8546C86.6583 26.1596 86.6583 25.2908 86.8334 24.5958C87.0084 24.0745 87.0084 23.727 87.1835 23.2057C87.1835 23.0319 87.3586 22.6844 87.3586 22.5107C87.5336 22.5107 87.7087 22.5107 87.7087 22.5107C88.0588 22.5107 88.584 22.5107 88.9342 22.5107C90.3347 22.5107 91.7353 22.6844 93.1358 23.0319C95.0615 23.5532 96.4621 21.1206 94.5363 20.2518C92.0854 19.2092 89.4594 18.688 86.8334 18.8617C85.6079 19.0355 84.5575 19.5568 83.8572 20.4256C83.1569 21.4681 83.1569 22.6844 82.8068 23.9007C81.7564 28.5922 81.5813 33.2837 81.9315 37.9752C82.1065 39.0178 82.8068 39.8866 84.0323 39.8866C86.3082 40.0603 88.584 40.0603 90.6848 40.2341C91.035 40.2341 91.2101 40.2341 91.5602 40.2341C91.3851 40.7553 91.2101 41.2766 91.035 41.6241C90.8599 42.4929 90.8599 43.3617 91.035 44.0568C91.2101 44.578 91.2101 44.9256 91.3851 45.4468C91.7353 46.1419 92.0854 46.4894 92.6106 47.0107C92.9607 47.3582 93.4859 47.5319 94.0111 47.3582C94.3613 47.3582 94.8865 47.1844 95.0615 46.8369C95.7618 46.3156 95.9369 45.2731 95.4117 44.578C95.2366 44.4043 95.2366 44.4043 95.0615 44.2305C94.8865 44.0568 94.8865 43.7092 94.7114 43.5355C94.7114 43.3617 94.7114 43.3617 94.5363 43.188V43.0142C94.5363 42.8405 94.5363 42.4929 94.5363 42.3192C94.5363 41.7979 94.7114 41.2766 94.8865 40.9291V40.7553C94.8865 40.5816 95.0615 40.5816 95.0615 40.4078C95.0615 40.2341 95.2366 40.2341 95.2366 40.0603C95.2366 40.0603 95.2366 40.0603 95.4117 40.0603L95.5867 39.8866C96.1119 39.539 96.4621 38.6702 96.112 38.149C96.9873 37.4539 96.4621 36.5851 95.7618 36.2376Z" fill="#013193"/>
<path d="M122.197 28.2447C123.073 27.3759 123.773 26.5071 124.298 25.4645C124.648 24.422 124.823 23.3794 124.473 22.3369C123.773 20.9468 122.373 20.4255 120.797 20.4255C119.221 20.4255 117.471 20.4255 115.895 20.7731C115.02 20.9468 114.319 21.2943 114.144 22.1631C113.969 23.2057 115.02 23.9007 116.07 23.9007C117.296 23.727 118.346 23.9007 119.571 23.9007C120.097 23.9007 120.622 23.9007 120.972 23.9007C120.972 24.0745 120.797 24.422 120.622 24.5957C120.272 25.2908 119.571 25.8121 119.046 26.3333C116.07 29.461 113.094 32.4149 110.118 35.5426C109.242 36.5851 109.242 38.3227 110.818 38.6702C112.744 39.1915 114.67 39.539 116.77 39.8865C117.821 40.0603 118.696 40.2341 119.747 40.2341C120.272 40.2341 120.622 40.2341 121.147 40.4078C122.197 40.4078 122.723 40.4078 123.773 40.0603C124.999 39.539 124.823 37.8014 123.773 37.1064C122.197 36.2376 120.272 36.4114 118.521 36.2376C117.821 36.2376 117.12 36.0638 116.42 35.8901C116.07 35.8901 115.72 35.7163 115.37 35.7163C116.77 34.3262 118.171 32.7624 119.396 31.3723C120.272 30.3298 121.322 29.2872 122.197 28.2447Z" fill="#013193"/>
<path d="M132.701 31.0248C132.526 31.0248 132.176 31.0248 132.001 31.0248C132.526 29.461 133.402 28.0709 134.277 26.6808C134.452 27.3759 134.452 27.8972 134.452 28.5922C134.627 29.461 134.627 30.156 134.802 31.0248C134.102 31.0248 133.402 31.0248 132.701 31.0248ZM138.829 31.7199C138.829 31.0248 138.654 30.5035 138.654 29.8085C138.478 28.2447 138.303 26.5071 137.778 24.9433C137.253 23.7269 136.378 22.3369 134.802 22.1631C133.927 21.9894 133.226 22.3369 132.701 23.0319C130.951 25.2908 129.55 27.7234 128.675 30.3298C128.5 30.8511 128.325 31.3723 128.149 32.0674C127.274 32.4149 126.574 32.5886 125.874 33.1099C124.298 33.9787 125.173 36.0638 126.924 35.5425C127.099 35.5425 127.274 35.5425 127.449 35.3688C127.274 36.9326 127.274 38.3227 127.274 39.8865C127.449 41.2766 129.9 41.4503 130.075 39.8865C130.25 38.1489 130.6 36.4113 130.951 34.6738C131.651 34.6738 132.526 34.6738 133.226 34.6738C133.927 34.6738 134.627 34.6737 135.327 34.8475C135.502 36.2376 135.502 37.4539 135.502 38.844C135.502 39.8865 135.502 41.1028 136.728 41.6241C138.128 42.1454 139.354 41.1028 139.354 39.7128C139.354 40.0603 139.354 39.8865 139.354 39.3652C139.354 39.1915 139.354 39.0177 139.354 38.6702C139.354 38.3227 139.354 37.8014 139.354 37.4539C139.354 36.7589 139.354 36.0638 139.179 35.5425C139.354 35.5425 139.704 35.5425 140.054 35.3688C141.105 35.0213 141.455 33.805 140.754 33.1099C140.229 32.2411 139.529 31.8936 138.829 31.7199Z" fill="#013193"/>
<path d="M158.611 21.1206C157.036 20.7731 155.285 20.5993 153.709 20.4256C152.309 20.2518 150.733 20.078 149.333 20.078C148.282 20.078 146.532 19.9043 146.181 21.1206C146.006 21.6419 146.006 21.9894 146.356 22.5107C146.532 22.6844 147.582 23.5532 147.757 23.2057C147.757 23.3795 148.282 23.3795 148.457 23.3795C149.158 23.3795 149.683 23.5532 150.383 23.5532C151.083 23.5532 151.609 23.727 152.309 23.727C153.009 23.727 153.534 23.9007 154.235 24.0745C153.359 26.3334 153.009 28.9397 152.834 31.3724C152.659 34.1525 152.659 36.9326 153.359 39.539C153.884 41.9716 157.561 41.1029 157.211 38.844C156.861 36.2376 156.685 33.805 156.861 31.1986C157.036 28.9397 157.386 26.8546 157.911 24.5958C158.436 24.7695 159.136 24.9433 159.662 25.117C160.187 25.2908 160.712 25.4646 161.237 25.4646C161.587 25.6383 161.938 25.6383 162.463 25.6383C163.338 25.8121 163.688 25.6383 164.388 25.2908C165.089 24.9433 165.264 23.9007 164.914 23.3795C163.513 21.8156 160.537 21.4681 158.611 21.1206Z" fill="#013193"/>
<path d="M175.768 20.4255C175.068 22.3369 174.368 24.2482 173.842 26.3333C173.317 25.6383 172.967 25.117 172.442 24.422C171.216 22.8582 169.991 21.4681 168.765 19.9043C168.24 19.2092 167.19 19.0355 166.489 19.5568C165.789 20.078 165.614 20.9468 166.139 21.6419C167.19 23.2057 168.24 24.7695 169.291 26.5071C169.816 27.3759 170.516 28.2447 171.041 29.1135C171.391 29.6348 171.742 30.3298 172.267 30.8511C171.917 32.4149 171.391 33.805 171.041 35.3688C170.866 36.0638 170.516 36.9326 170.341 37.6277C170.166 38.149 169.991 38.4965 169.991 39.0177C169.816 39.7128 169.991 40.2341 170.166 41.1029C170.516 42.3192 172.267 42.1454 172.967 41.4504C174.192 40.2341 174.368 38.3227 174.718 36.9326C175.068 35.3688 175.593 33.805 175.943 32.2412C176.818 28.4185 177.694 24.7695 178.394 20.9468C178.919 19.383 176.293 18.8617 175.768 20.4255Z" fill="#013193"/>
<path d="M198.002 31.3723C197.827 28.2447 197.477 25.2908 197.126 22.1631C196.776 19.9042 193.625 19.7305 192.925 21.9893C192.4 23.7269 191.874 25.2908 191.174 27.0283C190.824 27.7234 190.299 28.5922 190.124 29.2872C190.124 29.2872 189.949 29.2872 189.949 29.1135C187.848 26.8546 186.447 23.7269 185.922 20.5993C185.572 19.0354 182.771 18.3404 182.246 20.2517C180.495 26.5071 179.094 32.5886 178.219 39.0177C177.869 40.9291 181.195 41.4503 181.545 39.539C182.246 35.5425 183.121 31.5461 184.171 27.7234C184.171 27.8971 184.347 28.0709 184.347 28.0709C185.397 29.8085 186.622 32.2411 188.723 33.2837C189.949 33.9787 191.524 33.8049 192.575 32.9361C193.1 32.5886 193.45 32.0674 193.625 31.7198V31.8936C193.625 33.2837 193.8 34.8475 193.8 36.2376C193.8 37.9752 193.625 39.8865 193.975 41.6241C194.15 42.3191 195.026 42.8404 195.901 43.0142C196.601 43.0142 197.652 42.6666 198.002 41.9716C198.527 40.234 198.352 38.3227 198.177 36.4113C198.177 34.5 198.177 32.9361 198.002 31.3723Z" fill="#013193"/>
<path d="M229.339 34.1525C228.638 33.2837 228.113 32.4149 227.413 31.5461C226.713 30.5035 226.012 29.461 225.312 28.4184C224.962 28.0709 224.787 27.5496 224.437 27.2021C224.262 27.0284 224.087 26.8546 224.087 26.5071C224.262 26.3333 224.437 25.9858 224.612 25.812C225.837 24.422 226.713 22.8581 227.938 21.4681C228.288 20.9468 228.113 20.078 227.588 19.7305C227.063 19.383 226.187 19.2092 225.662 19.7305C224.262 20.9468 223.036 21.9894 221.811 23.3794C221.461 23.7269 221.285 23.9007 220.935 24.2482C221.11 23.3794 221.285 22.5106 221.461 21.6418C221.636 20.773 220.935 20.078 220.06 19.9042C219.185 19.7305 218.484 20.4255 218.134 21.1206C216.559 26.6808 215.858 32.2411 216.208 37.9752C216.208 38.6702 216.559 39.3652 217.084 39.7127C217.609 39.8865 218.134 40.234 218.659 39.8865C220.41 39.3652 220.06 38.3227 220.06 37.4539C220.06 36.7588 220.06 35.8901 219.885 35.195C219.885 33.805 219.885 32.2411 219.885 30.8511C219.885 30.6773 219.885 30.3298 219.885 30.156C220.41 30.156 220.76 29.9823 221.11 29.6347C221.461 30.3298 221.811 30.851 221.986 31.3723C222.511 32.2411 223.036 33.1099 223.561 34.1525C224.612 35.8901 225.837 37.8014 227.238 39.3652C227.938 40.0603 229.163 40.0603 229.864 39.539C230.739 39.0177 230.914 37.9752 230.389 37.1064C230.739 35.8901 230.039 35.0213 229.339 34.1525Z" fill="#013193"/>
<path d="M238.442 25.4645C238.967 25.6383 239.317 25.812 239.493 25.9858C239.668 26.1596 239.668 26.3333 239.843 26.6808C239.843 26.5071 239.843 27.0283 239.843 27.2021C239.843 27.3759 239.843 27.3759 239.843 27.2021C239.843 27.3759 239.843 27.5496 239.668 27.5496C239.493 27.7234 239.317 28.0709 239.142 28.4184C238.442 29.1135 237.567 29.461 236.516 29.8085C236.516 28.2447 236.516 26.6808 236.516 24.9432C237.042 25.117 237.742 25.2908 238.442 25.4645ZM243.169 32.9362C242.469 32.5886 241.943 32.2411 241.243 31.8936C243.169 30.5035 244.219 28.5922 243.869 26.1596C243.519 24.2482 241.943 22.8581 240.018 22.3369C238.967 21.9893 237.742 21.8156 236.691 21.6418C235.466 21.4681 234.24 21.1205 233.015 21.2943C232.665 21.2943 232.315 21.6418 232.14 21.9893C231.965 22.1631 231.79 22.8581 231.965 23.0319C232.315 23.3794 232.665 23.5532 232.84 23.7269C232.84 23.9007 232.84 23.9007 232.84 24.0744C232.315 30.156 231.965 36.4113 231.965 42.4929C231.965 44.4042 235.116 45.0993 235.991 43.1879C236.341 42.3191 236.691 41.6241 236.341 40.7553C236.341 40.7553 236.341 40.7553 236.341 40.5815C236.341 38.3227 236.516 36.0638 236.516 33.8049C237.917 34.5 239.142 35.195 240.368 36.0638C241.068 36.5851 241.768 36.9326 242.294 37.4539C242.994 37.9752 243.694 38.6702 244.394 39.0177C245.27 39.539 246.495 39.539 247.195 38.8439C247.896 38.1489 248.071 36.9326 247.371 36.2376C246.32 34.8475 244.569 33.8049 243.169 32.9362Z" fill="#013193"/>
<path d="M259.976 28.0709C260.851 24.7695 261.551 21.6418 262.077 18.3404C262.252 16.7766 259.451 16.4291 259.1 17.9929C258.225 21.1206 257.35 24.2482 256.299 27.3759C255.074 25.9858 253.848 24.7695 252.623 23.3794C251.047 21.4681 249.472 19.5567 248.246 17.4716C247.371 15.9078 244.92 17.1241 245.62 18.6879C246.671 20.9468 247.896 23.2057 249.472 25.2908C250.172 26.3333 250.872 27.2021 251.573 28.0709C252.273 28.9397 252.973 29.8085 253.848 30.5035C254.199 30.8511 254.549 31.0248 255.074 31.0248C254.899 31.5461 254.724 32.0674 254.549 32.5886C254.024 33.9787 253.323 35.5425 253.148 37.1064C252.798 38.844 255.599 40.0603 256.65 38.4964C257.7 36.9326 258.05 35.195 258.575 33.4574C259.1 31.5461 259.451 29.8085 259.976 28.0709Z" fill="#013193"/>
<path d="M271.005 18.5142C269.429 18.5142 267.854 18.1666 266.278 17.6454C264.352 16.9503 262.952 19.7305 264.878 20.5993C266.103 21.1205 267.329 21.4681 268.554 21.8156C268.029 23.9007 267.854 26.1595 267.854 28.4184C267.854 31.0248 268.029 33.6312 268.029 36.2376C268.029 38.3227 267.679 41.1028 265.578 42.3191C263.827 43.1879 262.252 42.6666 262.602 40.7553C262.777 39.7127 261.726 38.6702 260.501 39.0177C257.7 40.0603 257.875 43.0142 259.451 44.9255C260.501 46.1418 261.902 46.8369 263.652 46.8369C267.154 47.0106 270.305 44.578 271.355 41.4503C272.581 38.3227 272.23 34.8475 272.055 31.5461C271.88 27.8971 271.705 24.0744 272.756 20.5993C272.931 19.7305 272.055 18.5142 271.005 18.5142Z" fill="#013193"/>
<path d="M285.885 33.805C284.66 33.9787 283.61 34.1525 282.384 34.1525C281.859 34.1525 281.334 34.1525 280.808 34.1525C280.633 34.1525 280.458 34.1525 280.458 34.1525C280.458 33.4574 280.458 32.2411 280.458 32.0674C280.458 31.3723 280.458 30.6773 280.458 30.156C280.984 30.156 281.509 30.156 282.034 30.3298C282.209 30.3298 282.209 30.3298 282.384 30.3298C282.559 30.3298 282.384 30.3298 282.384 30.3298H282.559C282.734 30.3298 283.084 30.5035 283.259 30.5035C283.785 30.6773 284.135 30.6773 284.66 30.8511C285.185 31.0248 285.71 31.0248 286.236 30.6773C286.761 30.5035 287.111 29.9823 287.286 29.461C287.636 28.4184 286.936 27.5496 285.885 27.2021C286.936 27.5496 286.061 27.2021 285.71 27.2021C285.535 27.2021 285.36 27.0284 285.185 27.0284C285.01 27.0284 284.66 26.8546 284.485 26.8546C283.785 26.6808 283.084 26.6808 282.384 26.6808C281.684 26.6808 281.159 26.6808 280.458 26.6808C280.458 25.2908 280.458 23.7269 280.633 22.3369C280.633 21.6418 280.808 21.1206 281.159 20.9468C281.334 20.9468 281.159 20.9468 281.509 20.9468C281.334 20.9468 281.859 20.9468 281.859 20.9468C282.734 20.9468 283.61 21.1206 284.485 21.4681C286.411 22.1631 287.636 19.2092 285.885 18.3404C284.485 17.6454 282.909 16.9504 281.334 17.1241C279.583 17.2979 278.007 18.1667 277.307 19.7305C276.782 20.9468 276.607 22.1631 276.607 23.3794C276.607 25.117 276.432 26.8546 276.432 28.5922C276.432 30.156 276.432 31.5461 276.257 33.1099C276.257 34.5 275.907 36.0638 276.957 37.4539C278.007 38.844 279.933 38.844 281.684 38.844C283.435 38.844 285.185 38.6702 286.761 38.4964C287.986 38.3227 288.862 37.2801 288.687 36.2376C288.161 34.5 287.111 33.6312 285.885 33.805Z" fill="#013193"/>
<path d="M297.615 17.4716C297.615 17.2979 297.615 17.1241 297.615 16.9503C297.79 17.8191 297.79 17.6454 297.615 17.4716ZM304.793 30.8511C304.618 29.9823 303.743 29.1135 302.692 29.1135C301.467 29.1135 299.891 29.461 299.016 29.1135C298.141 28.7659 297.79 28.2447 298.316 27.3759C298.841 26.3333 299.716 25.4645 300.416 24.422C301.117 23.2057 301.642 21.8156 301.817 20.4255C301.992 19.2092 301.817 17.8191 301.117 16.6028C300.241 15.039 298.666 13.8227 296.74 14.344C295.34 14.6915 294.289 15.9078 294.289 17.2979C294.289 18.1667 294.814 19.0354 295.865 19.2092C296.74 19.383 297.44 18.8617 297.615 18.1667C297.79 18.3404 297.79 18.5142 297.79 18.6879C297.966 19.5567 297.79 20.5993 297.44 21.4681C296.565 23.3794 294.814 24.7695 294.114 26.8546C293.414 28.9397 294.289 31.0248 296.215 32.2411C298.141 33.6312 301.117 33.9787 303.393 33.1099C304.268 32.5886 304.968 31.8936 304.793 30.8511Z" fill="#013193"/>
<path d="M300.592 40.0603C297.966 40.0603 297.966 43.883 300.592 43.883C303.218 43.883 303.218 40.0603 300.592 40.0603Z" fill="#013193"/>
</svg>
