<svg width="311" height="58" viewBox="0 0 311 58" fill="none" xmlns="http://www.w3.org/2000/svg">
<path d="M306.964 10.4874C306.964 13.568 306.762 16.6655 306.662 19.7461C306.46 25.2844 306.275 30.8396 306.141 36.3948C305.956 25.1834 305.586 11.1439 304.981 9.27538H305.552H306.292C306.488 9.26074 306.684 9.26074 306.88 9.27538C306.977 9.62009 307.005 9.98029 306.964 10.3359V10.4874ZM55.1896 51.3601C46.3321 51.1581 37.441 50.9393 28.5667 50.6531L162.101 52.6395C148.364 52.5609 134.632 52.4599 120.906 52.3365C99.0569 52.1345 77.0896 51.882 55.1896 51.3601V51.3601ZM3.92709 46.9496V46.4614C4.19842 46.3835 4.4406 46.2267 4.62307 46.011C4.80554 45.7953 4.92012 45.5303 4.95234 45.2494C5.10654 43.4919 5.16825 41.7275 5.13722 39.9636C5.13722 38.0277 5.13723 36.0749 5.27169 34.139C5.36132 30.7723 5.45656 27.4055 5.55741 24.0387C5.65825 20.6719 5.7703 17.3781 5.89355 14.1572C6.10082 11.1204 6.14011 8.07441 6.01121 5.03324H7.79279L5.1036 49.7609C4.89575 49.7662 4.68926 49.726 4.49853 49.6431C3.75901 49.2054 3.9607 47.6062 3.92709 46.9496V46.9496ZM147.378 5.99277C161.564 6.08255 175.755 6.18356 189.951 6.29578C203.565 6.43045 217.174 6.59879 230.776 6.8008C242.861 7.0028 254.945 7.23848 267.03 7.59199C276.896 7.87817 286.745 8.24852 296.577 8.77037L300.056 8.97237L103.897 5.8076H105.057L147.378 5.99277V5.99277ZM308.393 5.82444C307.185 5.47784 305.934 5.30775 304.678 5.31942C295.535 4.62923 286.358 4.22521 277.181 3.88854C265.534 3.46769 253.886 3.18151 242.239 2.929C228.894 2.65966 215.549 2.46327 202.204 2.33982C187.985 2.17148 173.766 2.05365 159.547 1.98631L116.671 1.76747L75.8795 1.61596C63.9126 1.61596 51.9514 1.54863 39.9957 1.41396C30.4323 1.41396 20.8689 1.22878 11.3055 1.04361L5.67507 0.925773C5.39722 0.907578 5.11854 0.945332 4.8555 1.0368C4.59246 1.12827 4.3504 1.27161 4.14359 1.45834C3.93679 1.64508 3.76943 1.87142 3.65142 2.12402C3.53341 2.37661 3.46712 2.65033 3.45648 2.929C3.45648 2.929 3.45648 2.929 3.45648 3.01317C2.71737 6.69788 2.3625 10.4495 2.39761 14.2077C2.24635 17.5745 2.11189 20.9413 1.97743 24.4427C1.84297 27.9442 1.74214 31.2773 1.62449 34.6946C1.62449 36.8661 1.37236 39.0882 1.32194 41.2934C1.17067 42.9768 1.06985 44.6602 1.05304 46.3436C1.03623 48.027 0.700068 50.1649 1.92701 51.5453C3.15395 52.9257 6.14567 52.892 8.11214 53.094C11.877 53.4643 15.6586 53.7842 19.4235 54.003C28.2138 54.5249 37.0208 54.8784 45.8111 55.1477C67.3581 55.7874 88.9052 56.1241 110.452 56.3598C134.319 56.6179 158.185 56.7806 182.052 56.848C204.518 56.949 226.978 57.0444 249.432 57.1341C266.643 57.1341 283.871 57.3025 301.082 57.6392L305.804 57.7402C306.081 57.7759 306.362 57.7541 306.63 57.6763C306.898 57.5985 307.148 57.4663 307.362 57.2879C307.577 57.1094 307.753 56.8887 307.879 56.6392C308.005 56.3898 308.078 56.1171 308.094 55.8381C308.111 55.559 308.069 55.2797 307.973 55.0173C307.877 54.755 307.728 54.5153 307.535 54.3131C307.342 54.111 307.11 53.9508 306.853 53.8424C306.596 53.734 306.319 53.6798 306.04 53.6832C289.854 53.296 273.652 53.195 257.45 53.094C243.88 53.0154 230.306 52.9537 216.725 52.9088L306.006 50.8046L306.107 52.488C306.107 53.6159 308.107 53.6495 308.225 52.488C309.149 43.8185 309.67 35.0986 310.292 26.3955C310.595 21.9176 310.779 17.423 310.948 12.9283C310.948 11.9183 311.048 10.8914 310.948 9.8814C311.008 9.00576 310.788 8.13364 310.319 7.39189C309.851 6.65014 309.158 6.07744 308.342 5.7571" fill="white"/>
<path d="M24.247 34.1391C24.0196 34.6767 23.6948 35.1676 23.289 35.5868C23.289 35.5868 22.4991 36.0581 22.8184 35.9066L22.2637 36.1086L21.9108 36.1928C21.6373 36.2266 21.3607 36.2266 21.0872 36.1928H20.9191L20.7343 36.1086C20.4549 35.8907 20.2257 35.6151 20.062 35.3006C19.7006 34.5591 19.4947 33.7513 19.4569 32.927C19.2455 29.6496 20.2178 26.4052 22.1965 23.7862C22.496 23.3627 22.8588 22.988 23.2722 22.6752C23.2643 22.7254 23.2643 22.7765 23.2722 22.8267C23.5075 24.2071 25.8437 24.2913 25.9614 22.8267C26.0539 22.1396 26.0539 21.4432 25.9614 20.7561C25.927 20.3878 25.7791 20.0392 25.5382 19.7587C25.2973 19.4783 24.9753 19.2797 24.6168 19.1906C21.4402 18.1974 19.0367 21.1938 17.7258 23.4664C16.4398 25.6954 15.6487 28.1758 15.4063 30.7386C15.0487 33.1108 15.5113 35.5341 16.7173 37.6069C17.3962 38.5112 18.3169 39.2045 19.3728 39.6067C20.4287 40.0088 21.5766 40.1034 22.6839 39.8794C25.4067 39.4249 28.1127 37.3375 27.7262 34.5263C27.5245 32.6914 24.9697 32.624 24.1798 34.0886" fill="#013193"/>
<path d="M38.7522 36.0076C38.5169 36.7147 38.2816 37.8257 37.4916 38.1624C37.2143 38.2474 36.9229 38.2764 36.6344 38.2474C36.3458 38.2185 36.0659 38.1324 35.8109 37.994C34.1302 37.186 33.794 35.0313 33.5587 33.4994C33.1198 30.1272 33.3078 26.7027 34.1134 23.399C34.309 23.2676 34.4798 23.1023 34.6176 22.9109C35.0042 22.288 34.7856 21.5978 35.3907 21.076C35.6515 20.8424 35.9726 20.687 36.3173 20.6275C36.662 20.5679 37.0166 20.6067 37.3404 20.7393C37.9944 21.057 38.5613 21.5297 38.9918 22.1164C39.4223 22.703 39.7036 23.386 39.8111 24.1061C40.5352 28.0548 40.1809 32.1261 38.7858 35.8898L38.7522 36.0076ZM35.979 16.7833C35.0549 16.8415 34.1613 17.1368 33.3842 17.641C32.6071 18.1451 31.9727 18.8411 31.5418 19.6619C31.2806 20.1848 31.1426 20.7607 31.1384 21.3453C29.9485 24.6542 29.4397 28.1702 29.6426 31.6813C29.8107 35.2333 30.5502 39.5427 34.3655 41.2261C35.1726 41.6167 36.0574 41.8196 36.9538 41.8196C37.8502 41.8196 38.735 41.6167 39.5421 41.2261C40.3839 40.6404 41.1001 39.8918 41.6486 39.0244C42.197 38.1571 42.5666 37.1886 42.7355 36.176C44.0219 32.1905 44.3558 27.9582 43.7104 23.8199C43.0885 20.3184 40.2481 16.4972 35.979 16.8675" fill="#013193"/>
<path d="M67.4255 26.0924C66.686 25.6884 66.0137 25.1666 66.249 24.2575C66.4066 23.8749 66.6993 23.5639 67.0714 23.3838C67.4434 23.2037 67.8687 23.1671 68.2659 23.2812C70.1147 23.601 70.7702 20.6383 68.9214 20.2511C68.2154 20.0438 67.4716 19.9998 66.7461 20.1225C66.0207 20.2452 65.3325 20.5313 64.7336 20.9593C64.1347 21.3873 63.6407 21.946 63.2889 22.5932C62.937 23.2403 62.7366 23.9591 62.7027 24.6952C62.7231 25.391 62.8999 26.0733 63.22 26.6911C63.5401 27.309 63.9952 27.8466 64.5515 28.264C65.6019 28.8356 66.6027 29.4944 67.5432 30.2336C67.916 30.5496 68.211 30.9474 68.4054 31.3962C68.5997 31.8449 68.6881 32.3325 68.6637 32.8211C68.6393 33.3096 68.5028 33.786 68.2647 34.2131C68.0267 34.6402 67.6935 35.0066 67.2911 35.2837C66.9724 35.5024 66.6052 35.6396 66.2215 35.6837C65.8377 35.7277 65.4491 35.6771 65.0893 35.5362C64.6699 35.3669 64.3122 35.0732 64.0641 34.6945C63.7615 34.2737 63.5934 33.2132 63.1733 32.523C63.0281 32.3487 62.8492 32.2055 62.6474 32.1022C62.4456 31.9989 62.2251 31.9376 61.999 31.9219C61.7729 31.9061 61.546 31.9364 61.3319 32.0107C61.1177 32.0851 60.9208 32.2021 60.753 32.3546C60.4175 32.8048 60.1669 33.3125 60.0135 33.8529C59.9883 34.0484 59.9883 34.2465 60.0135 34.442C60.0223 34.6972 60.0561 34.951 60.1143 35.1996C60.2727 35.8106 60.5528 36.3832 60.9379 36.883C61.6624 37.8517 62.6478 38.5933 63.7783 39.0209C64.976 39.4144 66.2626 39.4471 67.4786 39.1149C68.6947 38.7827 69.7866 38.1003 70.619 37.1523C71.3572 36.3338 71.8658 35.3341 72.0931 34.2549C72.3205 33.1756 72.2583 32.0553 71.9131 31.0079C71.516 29.9566 70.915 28.9943 70.1448 28.1767C69.3746 27.359 68.4504 26.7022 67.4255 26.2439" fill="#013193"/>
<path d="M75.0222 21.9177C74.7365 24.5269 74.3331 27.1362 74.0978 29.7623C73.9802 31.1258 73.8289 32.5062 73.6945 33.8697C73.5107 35.1236 73.4264 36.3901 73.4423 37.6574C73.5119 38.0883 73.7367 38.4788 74.0743 38.7549C74.4119 39.031 74.8389 39.1735 75.2743 39.1556C75.7092 39.1636 76.133 39.0177 76.4712 38.7437C76.8093 38.4697 77.0402 38.085 77.1232 37.6574C77.2946 36.4645 77.3733 35.26 77.3585 34.0549L77.6106 29.5434C77.745 27.0857 77.745 24.5943 77.8291 22.1197C77.8253 21.7648 77.6884 21.4243 77.4457 21.1658C77.2029 20.9073 76.872 20.7497 76.5185 20.7243C76.1651 20.6988 75.815 20.8074 75.5378 21.0285C75.2607 21.2496 75.0766 21.567 75.0222 21.9177" fill="#013193"/>
<path d="M81.0057 14.4265C81.328 14.5241 81.6745 14.5031 81.9827 14.3672C82.2909 14.2314 82.5405 13.9898 82.6864 13.6858C82.8331 13.425 82.8752 13.1181 82.8041 12.8273C82.757 12.6501 82.6746 12.4842 82.562 12.3396C82.4494 12.1949 82.3088 12.0746 82.1486 11.9856C81.3755 11.6153 80.6191 11.2449 79.8292 10.8914L80.1989 11.0766L79.8124 10.8746C79.5638 10.7382 79.2884 10.6578 79.0056 10.6389H78.5686C78.2757 10.6955 78.003 10.8291 77.7787 11.0261C77.4637 11.2943 77.2648 11.6745 77.224 12.0866C77.208 12.2938 77.2426 12.5018 77.3249 12.6926C77.3871 12.8989 77.5032 13.0849 77.661 13.2313C77.8561 13.434 78.0988 13.5845 78.3669 13.669L79.5771 13.9889L79.1905 13.8879L80.9721 14.4097" fill="#013193"/>
<path d="M90.6534 35.8898C90.771 35.8898 90.7542 35.8898 90.6534 35.8898V35.8898ZM92.9392 35.6205C92.5752 35.4263 92.1602 35.3496 91.751 35.4009C91.3418 35.4521 90.9584 35.6287 90.6534 35.9066H90.5021C90.1942 35.8894 89.8856 35.8894 89.5777 35.9066L87.0734 35.772L83.9304 35.6036C83.8043 33.6754 83.8043 31.741 83.9304 29.8128L84.8549 29.7286C85.7456 29.7286 86.6532 29.7286 87.544 29.7286C87.9621 29.7307 88.366 29.5766 88.6768 29.2965C88.9876 29.0163 89.1829 28.6302 89.2248 28.2135C89.2248 27.7671 89.0477 27.3389 88.7325 27.0232C88.4173 26.7075 87.9898 26.5302 87.544 26.5302C86.4273 26.3994 85.2992 26.3994 84.1825 26.5302C84.2834 25.7726 84.4178 25.0319 84.5691 24.2744C84.6531 23.8536 84.754 23.4327 84.8549 23.0119C84.8549 22.894 85.0061 22.5574 85.0229 22.389H85.3423C85.7624 22.389 86.1826 22.389 86.586 22.389C87.953 22.3478 89.3184 22.5124 90.6366 22.8772C92.5358 23.4664 93.7963 20.9918 91.9139 20.1669C89.6029 19.0798 87.0451 18.6267 84.5019 18.8539C83.9492 18.8815 83.4097 19.0335 82.9238 19.2987C82.4378 19.564 82.0178 19.9355 81.6951 20.3858C81.1657 21.4383 80.8352 22.5797 80.7202 23.7526C79.792 28.2571 79.5147 32.8718 79.8967 37.4554C79.9308 37.9585 80.1547 38.4298 80.523 38.7737C80.8913 39.1175 81.3764 39.3082 81.8799 39.3071L88.334 39.6606H89.1071C88.8899 40.117 88.7263 40.5972 88.6197 41.0915C88.4516 41.8737 88.4516 42.6828 88.6197 43.4651C88.6953 43.9133 88.831 44.3493 89.0231 44.7613C89.3426 45.3481 89.7507 45.8818 90.2332 46.3436C90.592 46.6365 91.0489 46.781 91.5106 46.7477C91.9049 46.7135 92.2798 46.561 92.5863 46.31C92.8917 46.0431 93.0905 45.6746 93.1461 45.2724C93.2016 44.8703 93.1103 44.4616 92.8888 44.1216C92.786 44.0144 92.6958 43.8958 92.6198 43.7681V43.7681L92.3005 43.061L92.1997 42.7412C92.1997 42.7412 92.1997 42.6065 92.1997 42.5392C92.1745 42.2873 92.1745 42.0335 92.1997 41.7817C92.2071 41.3041 92.316 40.8335 92.519 40.4013C92.522 40.3564 92.522 40.3114 92.519 40.2666V40.2666C92.5823 40.1643 92.6555 40.0684 92.7375 39.9804L92.9896 39.6943L93.0736 39.6101L93.2081 39.5091C93.4874 39.3215 93.6945 39.0442 93.7954 38.7229C93.8962 38.4016 93.8847 38.0554 93.7627 37.7415C93.7884 37.3664 93.7074 36.9917 93.5288 36.6609C93.3503 36.3301 93.0817 36.0569 92.7543 35.873" fill="#013193"/>
<path d="M128.403 30.5029H127.713C128.28 29.025 129.007 27.6137 129.882 26.2945C129.966 26.9005 130.016 27.5233 130.1 28.1294C130.184 28.7354 130.285 29.6949 130.369 30.4693C129.713 30.4693 129.058 30.4693 128.403 30.4693V30.5029ZM134.201 31.1426C134.201 30.5198 134.067 29.8801 133.966 29.2572C133.833 27.6564 133.546 26.0723 133.109 24.5269C132.931 23.8705 132.577 23.2754 132.085 22.8065C131.593 22.3376 130.982 22.0127 130.319 21.8671C129.954 21.7879 129.573 21.8193 129.226 21.9572C128.879 22.0951 128.58 22.3333 128.369 22.6415C126.7 24.8016 125.379 27.2099 124.453 29.7791C124.251 30.3346 124.066 30.8733 123.915 31.4625C123.155 31.7335 122.414 32.054 121.696 32.422C121.528 32.484 121.375 32.5803 121.246 32.7048C121.117 32.8293 121.015 32.9792 120.947 33.1452C120.878 33.3112 120.845 33.4895 120.849 33.6689C120.854 33.8484 120.895 34.0249 120.971 34.1875C121.047 34.3501 121.156 34.4951 121.29 34.6134C121.425 34.7316 121.583 34.8206 121.754 34.8746C121.925 34.9286 122.105 34.9465 122.283 34.9271C122.461 34.9077 122.634 34.8514 122.789 34.7619L123.243 34.6441C123.04 36.1107 122.99 37.5943 123.091 39.0714C123.192 40.4518 125.579 40.5528 125.713 39.0714C125.879 37.3686 126.171 35.6805 126.587 34.0212C127.293 33.9797 128 33.9797 128.705 34.0212C129.368 34.0382 130.03 34.0888 130.688 34.1727C130.772 35.4689 130.84 36.7483 130.89 38.0445C130.89 39.0377 130.89 40.1993 132.117 40.6706C132.403 40.7858 132.713 40.8277 133.019 40.7923C133.325 40.757 133.617 40.6457 133.869 40.4684C134.122 40.2911 134.326 40.0535 134.463 39.7772C134.6 39.5009 134.666 39.1946 134.655 38.8862V38.6C134.655 38.3812 134.655 38.1792 134.655 37.9772C134.655 37.7752 134.655 37.1523 134.655 36.7483C134.655 36.3443 134.655 35.4858 134.537 34.8461C134.81 34.8313 135.081 34.7862 135.344 34.7114C135.562 34.6467 135.762 34.5306 135.927 34.3727C136.091 34.2149 136.216 34.02 136.29 33.8041C136.364 33.5883 136.385 33.3579 136.352 33.1321C136.319 32.9063 136.233 32.6917 136.1 32.5062C135.63 31.8877 134.968 31.4435 134.218 31.2436" fill="#013193"/>
<path d="M153.261 20.9918C151.681 20.6888 150.101 20.4194 148.504 20.2511C147.083 20.072 145.652 19.9764 144.219 19.9649C143.143 19.9649 141.563 19.8302 141.143 21.0423C141.064 21.2539 141.04 21.4821 141.072 21.7056C141.104 21.9292 141.192 22.141 141.328 22.3216C141.462 22.49 142.471 23.2643 142.723 22.9445C142.723 23.0455 143.193 23.0455 143.328 23.0623L145.177 23.3148L146.958 23.5337L148.757 23.803C147.946 26.0961 147.47 28.4945 147.345 30.9238C147.114 33.5923 147.273 36.2803 147.815 38.903C147.931 39.377 148.223 39.789 148.631 40.0552C149.039 40.3214 149.534 40.4218 150.013 40.336C150.493 40.2503 150.922 39.9847 151.213 39.5934C151.504 39.2021 151.635 38.7145 151.58 38.2297C151.203 35.7687 151.068 33.2765 151.177 30.7891C151.359 28.6627 151.668 26.5491 152.101 24.4596L153.866 24.8972L155.429 25.3181C155.793 25.428 156.163 25.5123 156.538 25.5706C157.202 25.6631 157.878 25.5454 158.471 25.2339C158.634 25.1499 158.779 25.033 158.894 24.8904C159.01 24.7479 159.095 24.5828 159.144 24.4056C159.193 24.2285 159.205 24.043 159.179 23.8611C159.153 23.6791 159.089 23.5046 158.992 23.3485C157.933 21.6651 155.11 21.3453 153.261 20.9918" fill="#013193"/>
<path d="M169.681 20.2174C169.026 22.1197 168.404 24.0051 167.799 25.9073C167.345 25.3013 166.891 24.6953 166.404 24.1061C165.244 22.6752 164.101 21.2106 162.958 19.7461C162.685 19.4322 162.305 19.2309 161.892 19.1811C161.48 19.1314 161.063 19.2367 160.723 19.4767C160.564 19.5944 160.43 19.7428 160.33 19.9131C160.229 20.0835 160.163 20.2723 160.137 20.4684C160.11 20.6646 160.123 20.8641 160.174 21.0552C160.226 21.2463 160.315 21.4251 160.437 21.581C161.479 23.1129 162.488 24.6784 163.513 26.2271L165.194 28.7859C165.58 29.3414 165.95 29.9474 166.387 30.4693C165.967 31.9338 165.547 33.3984 165.143 34.8629C164.925 35.6036 164.723 36.3611 164.505 37.1187C164.387 37.5395 164.236 37.9772 164.152 38.4317C164.027 39.0828 164.097 39.7563 164.353 40.3676C164.723 41.5965 166.387 41.4113 167.11 40.6874C168.062 39.3863 168.643 37.85 168.791 36.2433C169.177 34.7451 169.547 33.23 169.933 31.7318C170.841 28.0957 171.614 24.4427 172.337 20.7561C172.639 19.2916 170.102 18.8202 169.631 20.2006" fill="#013193"/>
<path d="M190.993 30.9742C190.825 27.9778 190.556 24.9982 190.203 22.0186C190.122 21.5552 189.887 21.1327 189.537 20.8197C189.186 20.5067 188.74 20.3215 188.271 20.2942C187.802 20.2669 187.338 20.3991 186.953 20.6694C186.569 20.9396 186.287 21.332 186.153 21.7829C185.675 23.4155 185.114 25.0225 184.472 26.5974C184.084 27.2877 183.752 28.0083 183.48 28.7522C183.431 28.7116 183.386 28.6665 183.346 28.6175C181.298 26.3158 179.946 23.4784 179.446 20.4362C179.178 18.8707 176.371 18.231 175.866 20.0322C174.161 25.9912 172.864 32.0599 171.984 38.196C171.732 40.1151 174.791 40.5022 175.144 38.6168C175.85 34.7619 176.69 30.9069 177.698 27.1025L177.883 27.5065C178.76 29.5556 180.207 31.3088 182.052 32.5566C182.645 32.8626 183.312 32.9964 183.977 32.9429C184.642 32.8893 185.28 32.6506 185.816 32.2536C186.249 31.915 186.613 31.4981 186.892 31.0248V31.1426C186.976 32.5735 187.027 34.0043 187.06 35.4352C186.967 37.1604 187.035 38.8906 187.262 40.6032C187.406 40.9691 187.652 41.2858 187.971 41.5156C188.29 41.7454 188.668 41.8786 189.06 41.8994C189.749 41.8994 190.741 41.5628 191.027 40.8389C191.374 39.0766 191.454 37.2718 191.262 35.4857C191.262 34.038 191.144 32.5735 191.06 31.1089" fill="#013193"/>
<path d="M221.112 33.6004C220.507 32.7587 219.902 31.917 219.33 31.0416C218.759 30.1663 217.986 28.9879 217.33 27.961C217.061 27.5738 216.809 27.1698 216.557 26.7827L216.154 26.1766L216.675 25.5369C217.801 24.1734 218.759 22.7088 219.801 21.2948C219.971 21.0301 220.037 20.7122 219.987 20.4017C219.938 20.0912 219.776 19.8099 219.532 19.6114C219.267 19.3997 218.938 19.2844 218.599 19.2844C218.26 19.2844 217.931 19.3997 217.666 19.6114C216.389 20.8066 215.196 21.8335 213.986 23.1129L213.229 23.9209C213.375 23.0568 213.543 22.1982 213.733 21.3453C213.776 20.9439 213.659 20.5418 213.407 20.2266C213.155 19.9114 212.789 19.7085 212.389 19.6619C211.988 19.6214 211.586 19.7265 211.255 19.9583C210.925 20.1901 210.689 20.533 210.591 20.9245C209.076 26.2328 208.462 31.7582 208.775 37.2702C208.753 37.6099 208.828 37.9488 208.992 38.2471C209.156 38.5454 209.401 38.7905 209.7 38.9536C209.931 39.0973 210.188 39.1937 210.456 39.237C210.724 39.2804 210.999 39.2698 211.263 39.2061C212.944 38.7347 212.675 37.7752 212.607 36.8325C212.54 35.8898 212.523 35.3679 212.507 34.6272C212.507 33.2469 212.507 31.8328 212.507 30.4356V29.7623C212.732 29.7483 212.953 29.689 213.155 29.5877C213.357 29.4865 213.537 29.3455 213.683 29.1731V29.1731C213.969 29.7623 214.271 30.3514 214.607 30.8565C215.112 31.7487 215.633 32.5398 216.154 33.4825C217.176 35.2729 218.363 36.9637 219.7 38.5327C220.052 38.8474 220.5 39.0323 220.971 39.0568C221.441 39.0812 221.906 38.9439 222.288 38.6674C222.665 38.4161 222.93 38.0297 223.03 37.5881C223.13 37.1464 223.057 36.6831 222.826 36.2938C222.262 35.3816 221.65 34.4994 220.994 33.6509" fill="#013193"/>
<path d="M229.869 25.2171C230.253 25.3094 230.614 25.4814 230.928 25.7221C231.019 25.8181 231.09 25.9318 231.137 26.0563C231.183 26.1807 231.203 26.3133 231.196 26.446C231.196 26.2608 231.196 26.7826 231.196 26.8668C231.196 26.951 231.196 27.0015 231.196 26.8668C231.196 26.7321 231.196 27.1193 231.079 27.254C230.949 27.5477 230.76 27.8114 230.524 28.0284C229.814 28.6395 228.975 29.0825 228.07 29.3246C228.07 27.7927 228.07 26.244 228.07 24.6952C228.709 24.8636 229.364 24.9983 229.986 25.1834L229.869 25.2171ZM234.474 32.321C233.869 31.9506 233.23 31.5971 232.608 31.2436C233.522 30.6473 234.244 29.7996 234.688 28.8022C235.132 27.8049 235.28 26.7003 235.113 25.6211C234.896 24.7106 234.426 23.8804 233.756 23.2276C233.087 22.5748 232.246 22.1263 231.331 21.9345C230.289 21.6315 229.196 21.4631 228.138 21.2443C227.016 20.94 225.848 20.8431 224.692 20.9581C224.505 21.0067 224.329 21.0929 224.176 21.2116C224.023 21.3302 223.895 21.4788 223.801 21.6483C223.667 21.9008 223.465 22.5068 223.684 22.7257C223.964 23.0057 224.274 23.2541 224.608 23.4664C224.598 23.5728 224.598 23.6798 224.608 23.7862C224.171 29.7286 223.818 35.6709 223.751 41.6133C223.818 42.037 224.014 42.4296 224.312 42.7378C224.61 43.046 224.995 43.2548 225.416 43.3357C225.836 43.4167 226.272 43.3659 226.663 43.1902C227.053 43.0145 227.38 42.7226 227.6 42.354C227.811 42.0038 227.948 41.614 228.003 41.2087C228.058 40.8034 228.029 40.3911 227.919 39.9973V39.9973C228.003 37.8088 228.053 35.6036 228.07 33.3984C229.36 34.0379 230.611 34.7517 231.818 35.5363C232.474 35.9571 233.129 36.4116 233.751 36.883C234.373 37.3543 235.045 37.9772 235.751 38.4317C236.166 38.7118 236.662 38.8456 237.161 38.8121C237.66 38.7786 238.134 38.5796 238.508 38.2465C238.867 37.923 239.089 37.4733 239.126 36.9907C239.164 36.5081 239.014 36.0295 238.709 35.6541C237.421 34.4061 235.981 33.3259 234.423 32.4388" fill="#013193"/>
<path d="M250.559 27.759C251.384 24.6443 252.035 21.4858 252.508 18.2983C252.76 16.7665 250.037 16.3961 249.651 17.8775C248.878 20.9076 247.97 23.9209 247.029 26.9005C245.869 25.6043 244.626 24.3754 243.516 23.0287C241.999 21.1922 240.595 19.2639 239.314 17.2546C238.39 15.7901 236.054 16.8675 236.793 18.4498C237.831 20.6952 239.051 22.8516 240.441 24.8972C241.096 25.8399 241.785 26.749 242.525 27.6412C243.176 28.51 243.908 29.3159 244.71 30.0484C245.031 30.3069 245.413 30.4805 245.819 30.5534C245.651 31.0248 245.499 31.5129 245.331 32.0011C244.75 33.4004 244.272 34.8408 243.903 36.3106C243.865 36.7175 243.961 37.1257 244.177 37.4725C244.393 37.8194 244.716 38.0858 245.098 38.231C245.479 38.3762 245.898 38.3921 246.289 38.2763C246.68 38.1605 247.023 37.9194 247.264 37.59C248.115 36.0801 248.754 34.46 249.164 32.7755C249.718 31.0921 250.172 29.4087 250.626 27.7253" fill="#013193"/>
<path d="M261.164 18.4836C259.606 18.4696 258.061 18.1966 256.592 17.6755C254.912 17.0527 253.466 19.7798 255.214 20.5541C256.323 21.0498 257.485 21.4169 258.676 21.6483C258.243 23.7694 258.034 25.9306 258.055 28.0957C258.055 30.6208 258.256 33.1459 258.206 35.6541C258.206 37.7247 257.887 40.3676 255.786 41.5291C254.105 42.455 252.659 41.8153 252.945 39.9636C252.987 39.7066 252.962 39.4431 252.873 39.1985C252.784 38.954 252.633 38.7366 252.435 38.5674C252.238 38.3982 252 38.2829 251.745 38.2326C251.489 38.1823 251.226 38.1987 250.979 38.2802C248.273 39.2397 248.424 42.2362 249.92 44.0206C250.418 44.5901 251.03 45.049 251.716 45.3678C252.402 45.6867 253.147 45.8585 253.903 45.8723C255.518 45.8668 257.094 45.3718 258.423 44.4524C259.752 43.533 260.772 42.2322 261.349 40.7211C262.559 37.6742 262.189 34.3074 262.055 31.1258C261.717 27.5645 261.956 23.972 262.761 20.4868C262.796 20.2525 262.782 20.0132 262.719 19.7847C262.656 19.5562 262.546 19.3437 262.395 19.1609C262.244 18.9782 262.057 18.8293 261.845 18.7242C261.632 18.6191 261.4 18.56 261.164 18.5509" fill="#013193"/>
<path d="M275.451 33.2637C274.34 33.4635 273.217 33.5873 272.089 33.6341C271.596 33.6593 271.103 33.6593 270.61 33.6341H270.19C270.19 32.927 270.19 31.8328 270.19 31.5298V29.6276C270.694 29.6276 271.198 29.6613 271.702 29.7286H272.089H272.274L272.997 29.8633L274.358 30.1326C274.847 30.2487 275.361 30.2015 275.82 29.9979C276.272 29.7665 276.615 29.3679 276.778 28.8869C276.901 28.4093 276.831 27.9023 276.582 27.4766C276.333 27.0508 275.927 26.7409 275.451 26.6143C276.476 27.0015 275.635 26.6143 275.333 26.6143L274.862 26.4628L274.156 26.2945C273.49 26.169 272.816 26.0846 272.139 26.042C271.524 26.0083 270.906 26.0083 270.291 26.042C270.291 24.6616 270.291 23.2644 270.425 21.9008C270.425 21.2611 270.593 20.7561 270.913 20.5878C271.232 20.4194 270.913 20.5878 271.165 20.5036C270.98 20.5036 271.417 20.5036 271.467 20.5036C272.314 20.5423 273.148 20.7185 273.938 21.0255C274.31 21.0878 274.693 21.0229 275.024 20.841C275.354 20.6592 275.615 20.371 275.762 20.023C275.91 19.675 275.936 19.2874 275.837 18.9226C275.738 18.5579 275.519 18.2372 275.215 18.0122C273.884 17.2148 272.363 16.7903 270.812 16.7833C270.01 16.8214 269.231 17.0681 268.554 17.4991C267.876 17.93 267.322 18.5304 266.946 19.2411C266.47 20.3565 266.246 21.5638 266.29 22.7762C266.29 24.4596 266.291 26.143 266.156 27.8264C266.022 29.5097 266.156 30.7218 266.038 32.1527C265.768 33.5619 265.981 35.0212 266.643 36.2938C267.669 37.6573 269.534 37.6574 271.131 37.6574C272.787 37.6809 274.441 37.5513 276.072 37.2702C276.607 37.2109 277.096 36.942 277.433 36.5225C277.77 36.1029 277.927 35.5668 277.871 35.0313C277.765 34.4976 277.457 34.0253 277.013 33.7119C276.569 33.3986 276.022 33.2683 275.484 33.3479" fill="#013193"/>
<path d="M286.694 17.423C286.683 17.2412 286.655 17.0609 286.61 16.8843C286.913 17.8102 286.846 17.6418 286.694 17.423ZM293.518 30.4524C293.449 29.9811 293.212 29.5508 292.85 29.2413C292.489 28.9317 292.027 28.764 291.552 28.769C290.358 28.9982 289.132 28.9982 287.938 28.769C287.098 28.3818 286.812 27.9273 287.283 27.0856C287.753 26.2439 288.694 25.2002 289.266 24.1734C289.975 22.9951 290.433 21.6826 290.61 20.3184C290.784 19.0456 290.555 17.7505 289.955 16.615C289.59 15.828 288.974 15.1846 288.205 14.7855C287.435 14.3865 286.555 14.2543 285.703 14.4097C285.066 14.5652 284.499 14.9267 284.089 15.438C283.679 15.9493 283.448 16.582 283.434 17.2378C283.401 17.6791 283.543 18.1156 283.83 18.4527C284.116 18.7898 284.523 19.0004 284.963 19.039C285.32 19.0969 285.685 19.0253 285.993 18.8369C286.301 18.6486 286.532 18.3561 286.644 18.0122C286.752 18.1892 286.832 18.3824 286.879 18.5845C287.06 19.4825 286.948 20.4148 286.56 21.2443C285.787 23.1633 283.955 24.4932 283.299 26.4628C282.996 27.4283 283.023 28.4676 283.376 29.416C283.729 30.3643 284.388 31.1675 285.249 31.6981C286.267 32.3403 287.416 32.7462 288.611 32.886C289.807 33.0258 291.018 32.896 292.157 32.5061C292.588 32.3785 292.961 32.1027 293.21 31.7272C293.459 31.3517 293.568 30.9004 293.518 30.4524" fill="#013193"/>
<path d="M289.518 39.3239C289.259 39.2992 288.998 39.329 288.752 39.4112C288.505 39.4935 288.278 39.6264 288.086 39.8016C287.894 39.9767 287.74 40.1901 287.635 40.4282C287.53 40.6663 287.476 40.9237 287.476 41.1841C287.476 41.4444 287.53 41.7018 287.635 41.9399C287.74 42.178 287.894 42.3914 288.086 42.5665C288.278 42.7417 288.505 42.8746 288.752 42.9569C288.998 43.0391 289.259 43.0689 289.518 43.0442C289.777 43.0689 290.038 43.0391 290.284 42.9569C290.531 42.8746 290.758 42.7417 290.95 42.5665C291.142 42.3914 291.296 42.178 291.401 41.9399C291.506 41.7018 291.561 41.4444 291.561 41.1841C291.561 40.9237 291.506 40.6663 291.401 40.4282C291.296 40.1901 291.142 39.9767 290.95 39.8016C290.758 39.6264 290.531 39.4935 290.284 39.4112C290.038 39.329 289.777 39.2992 289.518 39.3239" fill="#013193"/>
</svg>
