<svg width="429" height="793" viewBox="0 0 429 793" fill="none" xmlns="http://www.w3.org/2000/svg">
<g clip-path="url(#clip0_0_2036)">
<path d="M389.66 0L404.97 47.34H454.62L414.39 76.51L429.72 123.73L389.66 94.65L349.33 123.73L364.78 76.51L324.58 47.34H374.22L389.66 0Z" fill="#FCD13B"/>
<path d="M389.66 668.75L404.97 716.02H454.62L414.39 745.16L429.72 792.47L389.66 763.25L349.33 792.47L364.78 745.16L324.58 716.02H374.22L389.66 668.75Z" fill="#FCD13B"/>
<path d="M229.28 629.54L244.6 676.85H294.38L254.02 706.08L269.48 753.3L229.28 724.13L189.08 753.3L204.53 706.08L164.2 676.85H213.96L229.28 629.54Z" fill="#FCD13B"/>
<path d="M108.01 512.32L123.46 559.49H173.08L132.88 588.83L148.21 636.05L108.01 606.82L67.81 636.05L83.26 588.83L43.21 559.49H92.83L108.01 512.32Z" fill="#FCD13B"/>
<path d="M65.08 340.21L80.39 387.52H130.15L89.96 416.68L105.26 463.99L65.08 434.8L24.88 463.99L40.19 416.68L0 387.52H49.62L65.08 340.21Z" fill="#FCD13B"/>
<path d="M104.18 168.18L119.64 215.49H169.25L129.06 244.68L144.38 291.94L104.18 262.8L63.9802 291.94L79.3002 244.68L39.2402 215.49H88.7202L104.18 168.18Z" fill="#FCD13B"/>
<path d="M221.49 50.87L236.81 98.18H286.57L246.22 127.31L261.54 174.68L221.49 145.49L181.29 174.68L196.6 127.31L156.41 98.18H206.18L221.49 50.87Z" fill="#FCD13B"/>
</g>
<defs>
<clipPath id="clip0_0_2036">
<rect width="783.15" height="792.47" fill="white"/>
</clipPath>
</defs>
</svg>
