<svg width="278" height="56" viewBox="0 0 278 56" fill="none" xmlns="http://www.w3.org/2000/svg">
<g clip-path="url(#clip0_0_3841)">
<path d="M8.93394 23.2525C8.93394 20.6784 8.93394 17.9528 8.93394 15.3786C8.93394 14.6215 7.41972 14.6215 7.41972 15.3786C7.11687 17.9528 6.81402 20.5269 6.6626 23.1011C6.51118 25.6753 6.35976 28.4009 6.35976 30.9751C6.35976 32.0351 6.35976 33.095 6.35976 34.155C4.99695 34.3064 3.78557 34.3064 2.57419 34.3064L3.3313 19.6184C3.48272 17.0442 3.63415 14.47 3.78557 11.8958C3.93699 9.32165 3.78557 6.59604 3.93699 4.02186C3.93699 3.11332 2.27134 3.11332 2.27134 4.02186C1.81707 6.59604 1.51423 9.17023 1.3628 11.7444C1.21138 14.3186 1.05996 17.0442 0.908537 19.6184C0.605691 24.7668 0.302846 30.0666 0 35.215C0 35.6692 0.454268 36.1235 0.908537 36.1235C2.72561 36.4263 4.39126 36.5778 6.20833 36.5778C6.20833 37.3349 6.20833 38.092 6.20833 38.6977C6.20833 39.9091 6.20833 41.1204 6.20833 42.4832C6.20833 43.6946 5.90549 45.0574 6.81402 46.1174C7.26829 46.5717 8.02541 46.5717 8.47968 46.1174C9.23679 45.0574 8.93394 43.846 8.93394 42.6347C8.93394 41.4233 8.93394 40.2119 8.93394 38.8491C8.93394 36.2749 8.93394 33.5493 8.93394 30.9751C8.78252 28.4009 8.93394 25.8267 8.93394 23.2525Z" fill="white"/>
<path d="M68.5953 28.5524C69.0496 26.7353 69.8067 25.0697 71.3209 24.0097C72.8352 22.9497 74.8037 22.6469 76.6207 22.7983C76.6207 22.7983 76.7722 22.7983 76.9236 22.7983V22.9497C76.9236 23.2526 76.6207 23.5554 76.4693 23.8583C75.8636 24.6154 75.1065 25.2211 74.5008 25.8268C72.9866 27.0382 71.4724 28.2495 69.8067 29.1581C69.3525 29.3095 69.0496 29.6123 68.5953 29.7638C68.4439 29.3095 68.4439 29.0067 68.5953 28.5524ZM76.7722 22.7983C76.9236 22.6469 76.9236 22.7983 76.7722 22.7983V22.7983ZM58.1472 33.2465C57.6929 36.5778 55.573 39.9091 52.2417 41.1205C48.6075 42.3319 45.1248 39.9091 42.702 37.3349C41.9449 36.5778 41.1878 35.6693 40.2793 34.7607C40.4307 33.8522 40.4307 32.9436 40.4307 31.8837C40.4307 27.4924 39.825 23.1012 39.0679 18.8613C38.9165 17.8014 38.6136 16.8928 38.4622 15.8329C40.885 15.0758 43.6106 15.3786 45.8819 16.1357C53.1502 18.4071 59.2071 25.5239 58.1472 33.2465ZM38.7651 35.3664C38.6136 36.4264 38.4622 37.4863 38.1594 38.5463C38.0079 39.3034 37.7051 40.3634 37.0994 40.969C36.948 41.1205 36.7966 41.2719 36.6451 41.2719C36.3423 41.1205 36.0394 40.5148 36.0394 40.2119C35.5852 39.3034 35.4338 38.5463 35.2823 37.4863C35.1309 36.5778 35.2823 35.5178 35.4338 34.6093C35.5852 34.155 35.5852 33.7008 35.888 33.3979C35.888 33.2465 36.0394 33.0951 36.1909 33.0951C36.3423 32.9436 36.3423 32.9436 36.4937 33.0951C37.0994 33.8522 38.0079 34.6093 38.7651 35.3664ZM79.8006 34.3064C77.075 36.2749 73.7437 39.6062 69.9581 37.9406C67.6868 36.8806 67.5354 34.3064 67.8382 31.8837C68.8982 31.4294 70.1096 30.9751 71.1695 30.3695C73.138 29.3095 74.9551 27.9467 76.4693 26.4325C77.2264 25.6753 78.135 24.9182 78.4378 23.8583C78.7407 22.7983 78.5892 21.7384 77.5293 21.1327C76.6207 20.6784 75.1065 20.8298 74.0466 20.9812C72.9866 21.1327 71.9266 21.4355 71.0181 21.8898C69.0496 22.7983 67.6868 24.6154 67.0811 26.7353C66.6268 27.9467 66.324 29.3095 66.1726 30.5209C65.264 30.8237 64.3555 31.1266 63.2955 31.4294C62.387 31.7323 61.327 31.8837 60.2671 32.0351C60.1157 32.0351 60.1157 32.0351 59.9642 32.1865V32.0351C60.1157 24.1611 54.0588 17.0443 46.7905 14.4701C43.3077 13.2587 39.3707 12.9558 36.0394 14.4701C32.5567 16.1357 30.4368 19.467 29.8311 23.1012C29.6797 24.0097 29.6797 24.9182 29.6797 25.6753C29.6797 26.1296 29.9825 26.5839 30.4368 26.7353C30.8911 26.8867 31.3453 26.5839 31.3453 25.9782C31.4968 22.6469 32.8596 19.0127 35.7366 17.0443C36.1909 16.7414 36.7966 16.4386 37.2508 16.2871C37.8565 20.527 38.4622 24.6154 38.6136 28.8552C38.6136 30.3695 38.6136 31.8837 38.4622 33.2465C38.3108 33.0951 38.1594 32.9436 38.0079 32.7922C37.2508 32.1865 36.3423 31.278 35.4338 31.278C34.5252 31.278 33.9195 32.0351 33.6167 32.9436C32.8596 34.7607 32.8596 36.8806 33.3138 38.6977C33.7681 40.2119 34.6766 42.9375 36.6451 42.7861C38.6136 42.6347 39.0679 39.9091 39.3707 38.3949C39.5222 37.7892 39.5222 37.3349 39.6736 36.7292C39.825 36.8806 39.9764 37.0321 40.1279 37.1835C41.4907 38.6977 42.8535 40.0605 44.5191 41.1205C46.1848 42.1804 48.0018 42.9375 49.9703 42.9375C51.636 42.9375 53.4531 42.3319 54.8159 41.4233C57.5415 39.6062 59.0557 36.7292 59.6614 33.7008C60.2671 33.3979 60.8728 33.3979 61.4785 33.2465C62.5384 33.0951 63.5984 32.9436 64.6583 32.6408C64.9612 32.4894 65.4155 32.4894 65.7183 32.338C65.7183 32.4894 65.7183 32.6408 65.7183 32.7922C65.7183 34.9121 66.1726 37.0321 67.8382 38.3949C69.6553 39.9091 72.2295 40.2119 74.3494 39.6062C76.9236 38.8491 78.8921 37.1835 80.5577 35.215C81.4663 34.7607 80.4063 33.8522 79.8006 34.3064Z" fill="white"/>
<path d="M118.26 35.3664C118.26 35.8207 118.109 36.1235 117.806 36.2749C117.352 36.5778 116.897 36.7292 116.443 36.7292C115.989 36.7292 115.535 36.5778 115.232 36.4264C114.626 36.1235 114.323 35.5178 114.02 34.9121C113.263 33.5493 113.112 31.8837 112.96 30.3694C112.657 28.4009 112.355 26.281 112.052 24.3125C111.9 23.404 110.538 23.2526 110.386 24.1611C109.78 27.9467 108.266 31.7322 106.298 34.9121C105.995 35.5178 105.389 36.5778 104.784 36.7292C104.329 36.8806 104.178 36.5778 103.875 36.2749C103.572 35.6692 103.269 35.0635 103.269 34.3064C103.118 33.2465 103.118 32.1865 102.966 31.1266C102.815 28.7038 102.966 26.1296 103.118 23.7068C103.269 22.6469 101.604 22.344 101.452 23.404C100.695 28.4009 99.6351 34.3064 95.8496 38.092C94.941 36.7292 94.6382 34.9121 94.4868 33.3979C94.1839 31.278 94.1839 29.0066 93.5782 27.0381C93.2754 26.1296 92.8211 25.2211 92.064 24.464C91.3069 23.5554 90.0955 22.6469 88.8841 23.1012C87.5213 23.404 86.9156 24.7668 86.4614 25.9782C85.8557 27.341 85.25 28.8552 84.7957 30.3694C84.9471 23.5554 85.0986 16.8928 85.4014 10.0788C85.5528 7.20176 85.7042 4.32473 85.4014 1.4477C85.4014 0.993428 84.6443 0.993428 84.6443 1.4477C84.0386 4.02188 84.0386 6.59607 83.8872 9.17026C83.4329 11.593 83.2815 14.1672 83.2815 16.59C82.9786 21.7383 82.9786 26.8867 82.8272 32.0351C82.8272 34.9121 82.6758 37.7892 82.6758 40.6662C82.6758 41.1205 82.9786 41.5747 83.5843 41.7262C84.0386 41.8776 84.4929 41.5747 84.6443 40.969C84.7957 37.9406 85.0985 35.0636 85.8557 32.1865C86.1585 30.8237 86.6128 29.3095 87.2185 27.9467C87.5213 27.341 87.6727 26.5839 87.9756 25.9782C88.2784 25.5239 88.4298 24.9182 88.8841 24.464C89.7927 23.7068 90.7012 24.6154 91.3069 25.3725C91.7611 26.1296 92.064 26.8867 92.3668 27.6438C92.8211 29.6123 92.6697 31.7323 92.9725 33.7007C93.124 35.9721 93.7296 38.2434 95.2439 39.7577C95.5467 40.0605 96.1524 40.3633 96.6067 40.0605C98.878 38.092 100.392 35.5178 101.301 32.7922C101.452 34.155 101.604 35.6692 102.361 36.8806C102.815 37.6377 103.572 38.2434 104.329 38.3949C105.389 38.5463 106.146 38.092 106.903 37.3349C107.661 36.5778 108.115 35.6692 108.569 34.7607C109.175 33.7007 109.629 32.7922 110.083 31.7322C110.538 30.8237 110.84 29.9152 111.143 28.8552C111.143 29.1581 111.295 29.4609 111.295 29.7638C111.446 31.278 111.598 32.7922 112.203 34.3064C112.657 35.6692 113.415 36.8806 114.626 37.6377C115.686 38.2434 116.897 38.3949 118.109 38.092C119.32 37.7892 120.38 36.7292 120.531 35.3664C120.38 34.6093 118.26 34.155 118.26 35.3664Z" fill="white"/>
<path d="M192.912 14.1672C193.517 14.1672 193.972 13.5615 193.82 12.9558C193.669 12.3501 193.063 11.8959 192.457 11.8959C191.852 11.8959 191.397 12.5016 191.549 13.1073C191.7 13.7129 192.306 14.1672 192.912 14.1672Z" fill="white"/>
<path d="M266.503 29.0066C265.897 29.9152 265.14 30.9751 264.383 31.8837C263.929 32.4894 263.323 32.6408 262.566 32.4894C262.263 32.3379 261.96 32.1865 261.809 32.0351C261.506 31.7322 261.355 31.278 261.203 30.9751C261.052 30.0666 261.203 29.0066 261.506 28.2495C262.112 26.7353 263.323 25.5239 264.686 24.7668C266.2 24.0097 268.017 23.7068 269.683 23.8583C268.774 25.5239 267.563 27.341 266.503 29.0066ZM250.604 50.2058C250.452 51.1144 250.301 52.1743 249.847 52.9314C249.847 53.0829 249.695 53.2343 249.544 53.2343C249.241 53.2343 248.938 52.6286 248.787 52.4772C247.727 51.1144 247.727 49.1459 248.03 47.4802C248.332 45.5117 249.392 43.5432 250.301 41.8776C250.604 41.2719 250.907 40.6662 251.361 40.0605C251.209 43.3918 251.209 46.8745 250.604 50.2058ZM223.196 29.7637C222.439 31.278 221.985 33.8522 220.016 34.155C218.199 34.6093 218.351 31.4294 218.502 30.3694C218.805 28.5524 219.865 26.7353 221.531 25.8268C223.045 24.9182 224.862 24.6154 226.528 24.9182C225.316 26.4324 224.105 27.9467 223.196 29.7637ZM153.845 30.0666C153.087 31.278 152.179 32.3379 151.422 33.5493C151.27 33.8522 150.968 34.3064 150.665 34.4579C150.362 34.6093 150.362 34.4579 150.21 34.3064C149.756 33.7007 149.605 32.7922 149.605 32.0351C149.605 30.9751 149.756 29.9152 149.908 28.8552C150.362 27.0381 151.422 25.2211 153.239 24.4639C154.602 23.8583 156.419 23.8583 157.63 24.7668L157.479 24.9182C157.024 25.5239 156.722 26.1296 156.267 26.7353C155.359 27.7953 154.602 29.0066 153.845 30.0666ZM277.557 31.1266C277.406 30.218 275.891 29.7637 275.588 30.8237C275.437 31.1266 275.437 31.278 275.134 31.278C274.983 31.4294 274.831 31.4294 274.529 31.4294H274.377H274.226L273.923 31.278C273.62 30.9751 273.469 30.5209 273.317 30.218C272.409 28.2495 272.257 25.8268 272.409 23.7068C272.409 22.6469 271.197 22.0412 270.592 22.6469C270.592 22.4955 270.44 22.4955 270.289 22.4955C266.957 21.1326 262.869 22.4955 260.749 25.2211C260.598 25.2211 260.446 25.2211 260.295 25.3725C258.478 26.5839 257.115 28.4009 255.601 30.0666C254.692 31.1266 253.784 32.3379 253.027 33.3979C252.875 30.218 252.724 27.0381 252.572 23.8583C252.572 22.9497 251.209 22.1926 250.755 23.2526C249.544 25.8268 247.878 28.0981 246.061 30.218C244.395 32.0351 242.427 34.3064 239.853 34.9121C238.793 35.0635 237.733 35.0635 236.824 34.4579C235.916 33.8522 235.613 32.7922 235.613 31.7322C235.613 30.3694 236.067 29.1581 236.521 27.9467C236.976 26.8867 237.581 25.8268 238.49 25.0696C239.398 24.3125 240.458 23.8583 241.518 24.0097C242.578 24.1611 243.638 24.6154 244.093 25.5239C244.547 26.281 245.758 25.9782 245.455 25.0696C244.547 22.4955 241.216 21.7383 238.944 22.6469C236.067 23.8583 234.553 27.0381 233.947 29.7637C233.796 30.3694 233.796 30.9751 233.796 31.7322C233.493 31.7322 233.342 31.8837 233.039 32.3379C232.584 33.095 232.13 34.155 231.222 34.6093C230.919 34.7607 230.616 34.7607 230.465 34.6093L230.313 34.4579C230.313 34.4579 230.162 34.3064 230.162 34.155C230.01 34.0036 230.01 33.7007 230.01 33.5493C229.405 30.9751 229.253 28.2495 229.405 25.6753C229.405 25.3725 229.405 25.2211 229.253 24.9182C229.253 24.6154 229.102 24.3125 228.799 24.1611C226.679 23.1011 223.953 22.9497 221.682 24.0097C219.411 25.0696 217.745 26.8867 217.139 29.3095C217.139 29.4609 216.988 29.6123 216.988 29.7637C216.534 29.9152 216.231 30.3694 216.382 30.8237C216.534 31.4294 216.382 31.7322 215.928 32.1865C215.322 32.6408 214.414 32.6408 213.808 32.4894C211.84 32.1865 209.871 31.5808 208.054 31.1266C206.085 30.6723 204.117 30.0666 202.148 30.0666C201.997 30.0666 201.997 30.0666 201.846 30.0666C203.966 27.9467 206.388 26.1296 208.962 24.4639C209.72 24.0097 209.114 22.7983 208.357 22.6469C205.631 22.0412 202.906 21.8898 200.18 22.6469C199.423 22.7983 199.877 24.0097 200.634 24.0097C202.3 23.8583 203.966 24.0097 205.631 24.1611C202.3 26.4324 199.423 29.1581 196.849 32.3379C196.849 32.4894 196.697 32.4894 196.697 32.6408C196.394 33.095 196.092 33.3979 195.789 33.8522C195.789 33.8522 195.486 34.3064 195.334 34.4579H195.183C194.274 33.7007 193.669 32.7922 193.215 31.7322C192.155 29.1581 192.306 26.281 192.457 23.5554C192.457 22.7983 191.397 21.8898 190.792 22.4955C188.823 24.3125 187.612 26.5839 186.552 28.8552C185.946 29.9152 185.492 30.9751 184.886 31.8837C184.583 32.3379 184.129 32.9436 183.675 33.3979C183.372 33.7007 183.069 34.155 182.615 34.0036C182.312 33.8522 182.161 33.2465 182.161 32.7922C182.161 32.0351 182.161 31.1266 182.312 30.3694C182.312 28.8552 182.161 27.341 182.009 25.6753C181.706 23.2526 180.949 19.1642 177.467 19.9213C176.104 20.2241 174.892 21.4355 173.984 22.4955C173.53 23.1011 173.075 23.8583 172.772 24.6154C172.772 24.1611 172.621 23.5554 172.621 23.1011C172.47 22.344 172.47 21.7383 171.864 21.1326C170.804 19.9213 169.138 20.527 168.23 21.7383C167.321 22.7983 166.716 24.1611 166.261 25.5239C165.807 26.8867 165.353 28.2495 164.747 29.4609C164.293 30.6723 163.687 32.0351 162.93 33.095C162.324 33.8522 161.416 34.9121 160.204 34.6093C159.75 34.4579 159.599 33.8522 159.599 33.2465C159.599 32.3379 159.599 31.278 159.599 30.3694C159.599 28.8552 159.75 27.4924 159.901 25.9782C160.053 25.8268 160.053 25.6753 160.053 25.5239C160.204 24.9182 160.81 24.0097 160.053 23.404C159.75 23.2526 159.447 23.2526 159.296 23.404C159.144 23.5554 158.993 23.7068 158.993 23.8583C158.842 23.8583 158.842 23.8583 158.842 23.8583C157.479 22.6469 155.51 22.4955 153.693 22.9497C151.119 23.5554 149.453 25.8268 148.696 28.2495C148.393 29.3095 148.242 30.5209 148.242 31.7322C148.091 31.8837 147.939 32.0351 147.788 32.1865C147.333 33.3979 147.031 34.6093 146.425 35.8207C146.122 36.4263 145.819 37.032 145.213 36.7292C145.062 36.5778 144.759 36.2749 144.608 35.9721C144.456 35.5178 144.305 34.9121 144.154 34.3064C144.002 33.095 143.699 32.0351 143.396 30.8237C143.094 29.6123 142.639 28.4009 142.034 27.341C141.579 26.281 140.974 25.0696 139.914 24.4639C138.854 23.8583 137.491 24.0097 136.582 24.7668C135.674 25.5239 135.22 26.5839 134.917 27.6438C134.614 29.0066 134.311 30.5209 134.16 32.0351C133.705 30.5209 133.403 29.0066 132.645 27.6438C131.888 26.1296 130.525 24.4639 128.708 24.3125C126.286 24.0097 125.983 26.7353 125.68 28.5524C125.529 29.7637 125.377 30.9751 125.226 32.1865C124.771 30.8237 124.317 29.6123 123.711 28.2495C122.954 26.281 121.592 23.8583 119.169 23.404C118.412 23.2526 118.26 24.3125 118.866 24.6154C120.683 25.5239 121.289 27.341 122.046 29.1581C122.954 31.7322 123.863 34.3064 124.469 36.8806C124.62 37.3349 124.923 37.7892 125.529 37.7892C125.983 37.7892 126.437 37.4863 126.588 37.032C126.891 34.9121 127.194 32.7922 127.497 30.6723C127.648 29.6123 127.8 28.5524 127.951 27.6438C127.951 27.341 128.103 27.0381 128.254 26.8867C128.406 26.7353 128.557 26.5839 128.557 26.5839C128.86 26.5839 129.163 26.8867 129.314 27.0381C129.617 27.341 129.617 27.341 129.92 27.6438C130.374 28.0981 130.525 28.5524 130.828 29.1581C131.434 30.3694 131.585 31.7322 132.04 32.9436C132.494 34.6093 133.1 36.1235 134.16 37.4863C134.462 37.7892 134.917 38.092 135.371 37.9406C135.825 37.7892 136.128 37.4863 136.128 37.032C135.977 34.4579 136.28 31.8837 136.885 29.3095C137.037 28.4009 137.34 27.1896 138.097 26.7353C138.854 26.1296 139.005 26.5839 139.459 27.341C140.519 29.4609 141.276 31.7322 141.731 34.155C141.882 35.215 142.034 36.4263 142.639 37.4863C143.245 38.5463 144.305 39.3034 145.365 39.3034C146.728 39.4548 147.788 38.5463 148.393 37.3349C148.545 36.8806 148.696 36.4263 148.848 35.9721C149.605 37.032 150.968 37.4863 152.179 36.7292C152.785 36.4263 153.087 35.8207 153.542 35.215C153.996 34.4579 154.602 33.7007 155.056 33.095C155.813 31.8837 156.722 30.8237 157.479 29.6123C157.479 30.5209 157.479 31.278 157.479 32.1865C157.479 32.9436 157.479 33.8522 157.63 34.6093C157.933 36.1235 159.296 37.032 160.81 37.1835C162.324 37.1835 163.536 36.2749 164.293 35.215C166.11 32.9436 166.716 30.0666 167.624 27.341C168.078 25.9782 168.533 24.7668 169.441 23.5554C169.593 23.2526 169.744 23.1011 170.047 22.9497C170.198 22.9497 170.198 22.7983 170.35 22.7983C170.501 22.7983 170.501 22.7983 170.501 22.7983C170.653 22.9497 170.653 23.2526 170.653 23.404C170.653 23.8583 170.804 24.1611 170.804 24.6154C171.258 28.4009 171.561 32.3379 171.561 36.2749C171.561 36.8806 171.864 37.3349 172.47 37.4863C172.924 37.6377 173.53 37.3349 173.53 36.7292C173.378 33.8522 173.227 30.9751 172.924 28.0981C173.075 28.0981 173.227 27.9467 173.227 27.7953C173.681 26.5839 174.287 25.3725 175.195 24.3125C175.952 23.404 177.012 22.344 178.224 22.1926C179.435 22.1926 179.586 23.7068 179.889 24.6154C180.192 26.1296 180.495 27.6438 180.495 29.1581C180.495 29.9152 180.495 30.6723 180.495 31.4294C180.495 32.1865 180.344 32.9436 180.344 33.8522C180.495 35.215 181.252 36.5778 182.766 36.8806C184.129 37.1835 185.341 35.9721 186.098 35.0635C186.855 34.0036 187.46 32.9436 188.066 31.8837C188.823 30.3694 189.58 28.8552 190.489 27.341C190.489 29.7637 190.792 32.0351 191.852 34.155C192.155 34.9121 192.609 35.5178 193.215 36.1235C193.82 36.7292 194.426 37.3349 195.183 37.6377C196.092 37.9406 196.849 37.4863 197.454 36.7292C198.06 35.9721 198.666 35.215 199.12 34.4579C199.574 34.155 200.18 33.7007 200.786 33.5493C201.694 33.2465 202.603 33.2465 203.663 33.3979C205.783 33.8522 207.903 34.4579 210.022 34.9121C211.991 35.3664 214.262 36.2749 216.231 35.6692C216.534 35.5178 216.836 35.3664 217.139 35.215C217.442 35.9721 217.896 36.5778 218.502 37.032C219.562 37.7892 220.925 37.6377 221.985 37.1835C223.196 36.5778 223.953 35.6692 224.408 34.4579C225.013 33.2465 225.468 31.8837 226.225 30.6723C226.528 30.218 226.83 29.7637 227.133 29.4609C227.133 30.218 227.133 30.8237 227.285 31.5808C227.436 33.095 227.587 34.7607 228.345 36.1235C229.102 37.4863 230.767 38.2434 232.282 37.6377C233.342 37.1835 234.099 36.4263 234.553 35.5178C235.31 36.7292 236.521 37.6377 238.036 37.9406C241.367 38.6977 244.093 36.7292 246.364 34.4579C248.181 32.6408 249.847 30.5209 251.209 28.2495C251.361 31.278 251.361 34.3064 251.512 37.3349C250.604 38.8491 249.544 40.3633 248.787 42.029C247.727 43.9975 246.818 46.1174 246.364 48.2373C246.061 50.2058 246.212 52.3257 247.121 54.1428C247.727 55.0513 248.484 56.1113 249.544 56.4142C250.604 56.717 251.664 56.2627 252.118 55.3542C252.572 54.4457 252.875 53.3857 253.027 52.3257C253.329 51.1144 253.329 50.0544 253.481 48.843C253.632 46.4203 253.632 44.1489 253.632 41.7261C253.632 40.5148 253.632 39.3034 253.481 38.092C254.692 36.2749 256.055 34.4579 257.418 32.7922C258.023 32.0351 258.781 31.278 259.386 30.6723C259.235 32.3379 259.841 34.0036 261.203 35.0635C262.112 35.8207 263.475 36.1235 264.686 35.8207C266.049 35.5178 266.806 34.4579 267.563 33.3979C268.774 31.8837 269.834 30.218 270.894 28.5524C270.894 28.7038 270.894 29.0066 271.046 29.1581C271.349 30.6723 271.651 32.0351 272.56 33.3979C273.317 34.4579 274.68 35.215 276.043 35.0635C276.648 33.5493 277.708 32.6408 277.557 31.1266Z" fill="white"/>
<path d="M251.663 13.8644C251.663 14.0158 251.815 14.0158 251.815 14.1672L251.966 14.3186C252.117 14.3186 252.117 14.47 252.269 14.47C252.42 14.47 252.572 14.47 252.875 14.47H253.026C253.177 14.47 253.329 14.4701 253.48 14.3186C253.632 14.3186 253.783 14.1672 253.783 14.1672C253.934 14.1672 253.934 14.0158 254.086 13.8644C254.237 13.7129 254.237 13.4101 254.389 13.2587C254.389 13.1072 254.389 12.8044 254.237 12.5016C254.086 12.1987 253.783 11.8959 253.48 11.7444C253.329 11.7444 253.329 11.7444 253.177 11.593C253.177 11.593 253.026 11.593 252.875 11.593C252.723 11.593 252.723 11.593 252.572 11.593C252.42 11.593 252.269 11.593 252.269 11.7444C252.117 11.8959 251.966 11.8959 251.966 12.0473C251.815 12.1987 251.815 12.3501 251.663 12.5016C251.663 12.653 251.512 12.8044 251.512 12.9558V13.1072C251.512 13.2587 251.512 13.4101 251.512 13.4101C251.512 13.7129 251.663 13.8644 251.663 13.8644Z" fill="white"/>
</g>
<defs>
<clipPath id="clip0_0_3841">
<rect width="277.558" height="54.3608" fill="white" transform="translate(0 0.993408)"/>
</clipPath>
</defs>
</svg>
