<svg width="297" height="77" viewBox="0 0 297 77" fill="none" xmlns="http://www.w3.org/2000/svg">
<g clip-path="url(#clip0_0_3808)">
<path d="M78.4867 33.8804C78.1477 35.9147 77.4696 38.1185 76.622 39.9832C75.7744 41.6784 74.5878 43.2041 72.8926 44.0517C70.5193 45.2383 67.9765 44.5602 65.6032 43.7126C63.0604 42.6955 60.5175 41.6784 57.9747 40.4918C56.7881 39.8137 55.6014 39.3051 54.4148 38.627C53.9062 38.288 53.2282 37.9489 52.7196 37.6099C52.8891 35.9147 53.0586 34.2195 53.2282 32.5243C53.7367 26.7606 54.2453 20.8274 54.4148 15.0637C54.4148 14.5551 54.4148 13.877 54.4148 13.3685C54.7538 13.1989 55.0929 13.0294 55.4319 13.0294C57.6357 12.3513 60.009 12.3513 62.3823 13.0294C64.7556 13.7075 66.9593 15.0637 69.1631 16.5894C71.1973 17.9455 73.2316 19.3017 74.9268 20.9969C76.622 22.5226 77.9782 24.5568 78.6562 26.7606C78.9953 28.7948 78.9953 31.3376 78.4867 33.8804ZM50.3463 40.6613C50.1768 42.0174 50.1768 43.5431 50.0073 44.8993C49.8378 45.5774 49.4987 46.5945 48.8206 46.9335C48.6511 46.9335 48.4816 46.764 48.3121 46.5945C47.973 46.0859 47.8035 45.5774 47.634 45.0688C47.1254 43.8822 46.7864 42.526 46.7864 41.1698C46.7864 40.3222 46.7864 39.3051 47.2949 38.4575C47.8035 37.6099 48.6511 37.4404 49.4987 37.7794C49.8378 37.9489 50.1768 38.1185 50.5158 38.288C50.5158 38.9661 50.5158 39.8137 50.3463 40.6613ZM76.7915 19.8102C75.0963 18.115 73.0621 16.5894 71.0278 15.2332C68.8241 13.7075 66.6203 12.3513 64.247 11.3342C61.8737 10.3171 59.3309 9.80853 56.7881 10.3171C55.9405 10.4866 55.0929 10.6561 54.4148 10.8257V10.6561C54.4148 10.3171 53.7367 10.1476 53.7367 10.4866C53.7367 10.6561 53.7367 10.9952 53.5672 11.1647C52.3806 11.6733 51.1939 12.3513 50.0073 13.0294C47.973 14.3856 46.2778 16.2503 45.0912 18.2846C43.5655 20.4883 42.3788 22.8616 41.5312 25.2349C41.1922 26.4215 40.6836 27.6082 40.3446 28.7948C40.1751 29.6424 41.3617 30.3205 41.7008 29.4729C44.0741 24.8959 45.7693 19.9798 49.4987 16.2503C50.5158 15.2332 51.872 14.2161 53.2282 13.538C52.5501 18.2846 52.0415 23.0311 51.533 27.6082C51.1939 30.49 51.0244 33.3719 50.6854 36.2537C49.4987 35.7452 48.3121 35.4061 47.1254 35.9147C46.1083 36.4233 45.5997 37.2709 45.2607 38.1185C44.4131 40.3222 44.9217 43.0346 45.7693 45.2383C46.2778 46.425 46.7864 47.7811 47.973 48.2897C48.9901 48.7983 50.0073 48.4592 50.6854 47.7811C51.3634 47.1031 51.7025 46.0859 51.872 45.0688C52.0415 43.7126 52.211 42.187 52.211 40.8308C52.211 40.3222 52.3806 39.6441 52.3806 39.1356C52.5501 39.3051 52.7196 39.3051 52.8891 39.4746C55.2624 40.8308 57.8052 42.187 60.348 43.3736C64.7556 45.4078 70.5193 48.2897 75.0963 44.8993C78.6562 42.3565 80.1819 37.6099 80.6905 33.5414C81.0295 30.9986 81.0295 28.2863 80.3515 25.7435C79.8429 23.7092 78.4867 21.5055 76.7915 19.8102Z" fill="white"/>
<path d="M130.024 29.4729C130.532 28.1168 131.041 26.7606 131.719 25.574C132.227 24.5568 132.906 23.2007 134.092 22.6921C134.431 22.5226 134.601 22.5226 134.94 22.6921L135.109 22.8616C135.109 22.8616 135.109 22.8616 135.109 23.0311C135.109 23.2007 135.279 23.3702 135.109 23.7092C135.109 24.7264 134.431 25.7435 133.923 26.7606C132.736 28.7948 131.041 30.6596 129.007 32.1853C129.515 31.1681 129.685 30.3205 130.024 29.4729ZM114.089 44.7298C113.75 45.2383 112.902 45.5774 112.394 45.4079C112.224 45.4079 112.224 45.4079 112.224 45.4079C112.224 45.4079 112.055 45.2383 112.055 45.0688C111.885 44.7298 111.885 44.2212 111.885 43.7127C112.055 41.6784 112.902 39.4746 113.75 37.6099C113.75 37.949 113.919 38.1185 113.919 38.4575C114.258 39.6442 114.428 40.8308 114.597 42.0175C114.767 42.8651 114.597 44.0517 114.089 44.7298ZM97.9843 54.2229C98.1538 57.1048 98.4929 60.1561 98.4929 63.038C98.4929 65.9198 98.1538 68.8017 96.9672 71.3445C96.4586 70.8359 96.1196 70.1579 95.9501 69.3103C95.4415 67.7846 95.4415 66.0894 95.272 64.5637C95.1025 61.0038 95.4415 57.4438 96.2891 54.0534C96.6282 52.3582 97.1367 50.4935 97.8148 48.7983C97.8148 50.663 97.8148 52.3582 97.9843 54.2229ZM130.193 34.2195C132.397 32.5243 134.262 30.4901 135.618 28.2863C136.296 27.0996 137.144 25.7435 137.313 24.3873C137.483 23.0311 136.974 21.5055 135.787 20.8274C134.262 19.9798 132.736 20.8274 131.719 21.8445C130.532 22.8616 129.854 24.3873 129.176 25.913C128.328 27.6082 127.65 29.3034 127.142 30.9986C127.481 24.7264 127.65 18.2846 127.65 12.0123C127.65 8.79142 127.65 5.57053 127.65 2.34964C127.65 1.84108 127.311 1.33252 126.803 1.163C126.294 0.993476 125.616 1.163 125.616 1.67156C124.26 6.75717 123.073 12.0123 121.378 16.9284C120.531 19.4712 119.513 21.8445 118.496 24.2178C117.479 26.5911 116.123 28.7948 114.936 30.9986C114.767 31.3377 114.428 31.6767 114.258 32.1853C113.411 29.3034 112.394 26.5911 111.207 23.8788C110.868 23.2007 109.851 22.8616 109.342 23.5397C105.782 28.7948 102.222 34.2195 99.3405 39.8137C99.3405 38.627 99.3405 37.4404 99.3405 36.2537C99.3405 32.5243 99.3405 28.6253 99.51 24.8959C99.51 24.0483 97.9843 23.3702 97.6453 24.3873C96.6282 27.0996 95.4415 29.9815 94.4244 32.6938C93.9158 34.05 93.4073 35.4062 92.7292 36.7623C92.2206 37.7794 92.0511 38.9661 91.373 39.9832C91.034 40.6613 90.1864 41.3394 89.3388 41.1698C88.4912 41.0003 88.1521 39.9832 87.8131 39.1356C87.474 37.949 87.135 36.4233 86.9655 35.2366C86.796 33.8805 86.6264 32.3548 86.4569 30.9986C86.2874 27.7777 86.4569 24.3873 86.796 21.1664C86.796 20.4883 85.7788 20.3188 85.6093 20.9969C84.9312 24.2178 84.7617 27.2692 84.7617 30.4901C84.7617 32.0157 84.9312 33.5414 85.1008 35.2366C85.2703 36.5928 85.4398 38.1185 85.9484 39.4746C86.2874 40.4918 86.796 41.6784 87.8131 42.3565C88.8302 43.0346 90.1864 43.0346 91.2035 42.526C92.2206 42.0175 92.8987 40.8308 93.4073 39.8137C94.0853 38.4575 94.5939 36.9318 95.1025 35.4061C95.7806 33.7109 96.4586 32.0157 97.1367 30.3205C96.9672 34.8976 96.9672 39.3051 97.1367 43.8822C94.2549 50.4935 92.3901 57.4438 92.7292 64.7332C92.8987 67.9541 93.0682 72.8702 96.7977 74.2264C97.3062 74.3959 97.8148 74.2264 98.1538 73.7178C100.866 68.2931 100.188 62.1904 99.849 56.2572C99.51 52.3582 99.3405 48.6287 99.171 44.7298C100.697 41.5089 102.392 38.288 104.257 35.2366C105.952 32.3548 107.986 29.4729 109.851 26.5911C110.868 29.3034 111.885 32.1853 112.563 34.8976C112.055 35.9147 111.546 36.9318 111.037 37.949C110.529 39.1356 110.19 40.3222 109.851 41.5089C109.512 42.6955 109.173 43.8822 109.342 45.0688C109.512 46.2555 110.19 47.2726 111.207 47.7812C112.224 48.1202 113.241 48.1202 114.258 47.6116C116.462 46.425 116.632 43.8822 116.293 41.6784C115.953 39.6442 115.445 37.6099 114.936 35.5757C115.614 34.389 116.293 33.2024 116.971 32.0157C119.344 27.7777 121.378 23.5397 123.073 18.9627C123.921 16.4198 124.769 14.0466 125.447 11.5037C125.277 19.9798 125.108 28.4558 124.599 36.9318C124.43 40.1527 124.26 43.3736 124.09 46.5945C124.09 47.7812 126.125 48.4592 126.294 46.9335C126.803 43.2041 127.311 39.4746 128.328 35.7452C131.041 39.3051 133.753 42.8651 136.296 46.425C136.635 46.9335 137.483 47.1031 137.991 46.764C138.5 46.425 138.5 45.7469 138.161 45.2383C135.448 41.1698 132.736 37.6099 130.193 34.2195Z" fill="white"/>
<path d="M202.745 16.5894C203.084 16.5894 203.423 16.4198 203.593 16.2503C203.932 16.0808 204.101 15.7418 204.101 15.5722C204.44 14.8942 204.101 13.877 203.254 13.538C203.254 13.3685 203.254 13.199 203.254 13.0294C203.254 12.8599 203.084 12.5209 202.915 12.5209C202.745 12.3513 202.576 12.3513 202.406 12.3513C202.067 12.3513 201.559 12.5209 201.559 13.0294C201.559 13.877 201.559 14.7246 201.559 15.5722C201.559 15.9113 201.728 16.0808 201.898 16.4198C202.067 16.4198 202.406 16.5894 202.745 16.5894Z" fill="white"/>
<path d="M237.329 35.4061C236.651 36.4233 235.803 37.2709 235.125 38.288C234.616 38.7966 233.769 39.9832 232.921 39.8137C232.074 39.6442 232.074 38.4575 232.074 37.7794C232.243 36.7623 232.413 35.5757 232.752 34.5585C233.26 32.6938 234.108 30.6596 235.973 29.4729C237.498 28.4558 239.702 27.9472 241.397 28.9644L241.228 29.1339C240.041 31.5072 238.854 33.5414 237.329 35.4061ZM192.236 27.4387C192.236 27.2692 192.236 27.4387 192.236 27.4387V27.4387ZM192.236 27.4387C192.236 27.4387 192.236 27.0996 192.236 27.4387V27.4387ZM163.587 67.9541C163.418 69.9883 163.079 72.1921 161.553 73.5483C160.536 71.0055 160.027 68.2931 160.027 65.7503C160.027 62.3599 160.705 59.3085 161.723 56.0877C162.401 54.3925 163.079 52.6972 163.757 51.002C163.757 53.3753 163.757 55.9181 163.757 58.2914C163.757 61.5123 163.757 64.7332 163.587 67.9541ZM246.313 40.4918C245.635 40.8308 244.957 41.3394 244.279 41.8479C243.94 42.0174 243.601 42.187 243.262 42.3565C243.262 42.3565 242.753 42.526 242.584 42.6955C242.584 42.6955 242.584 42.6955 242.584 42.526C242.584 42.3565 242.584 42.3565 242.584 42.187C242.584 41.6784 242.584 41.0003 242.753 40.3222C243.092 36.7623 243.262 33.3719 243.601 29.812C243.601 29.3034 243.262 28.9644 242.923 28.6253C243.092 28.2863 242.923 27.9472 242.584 27.7777C240.719 26.0825 238.007 26.0825 235.803 27.0996C233.43 28.2863 231.904 30.49 231.226 32.8633C230.717 34.2195 230.548 35.5757 230.378 36.7623C230.378 37.2709 230.378 37.949 230.378 38.4575C230.209 38.4575 230.209 38.627 230.039 38.627C229.531 39.1356 229.192 39.8137 228.683 40.4918C228.344 41.0003 228.005 41.6784 227.327 42.0175C227.158 42.187 226.988 42.187 226.819 42.0175C226.819 42.0175 226.819 42.0175 226.649 42.0175C226.649 41.8479 226.479 41.6784 226.479 41.5089C226.479 41.3394 226.31 41.0003 226.31 40.6613C226.31 39.9832 226.31 39.3051 226.31 38.627C226.31 37.7794 226.31 36.7623 226.31 35.9147C226.31 34.05 226.479 32.3548 226.479 30.4901C226.479 29.1339 226.649 27.7777 225.971 26.5911C225.293 25.2349 223.767 24.7264 222.241 25.0654C220.716 25.4044 219.699 26.7606 219.021 28.1168C218.173 29.6424 217.664 31.1681 217.156 32.6938C216.986 33.3719 216.817 34.05 216.478 34.7281C216.308 31.6767 216.139 28.7948 215.8 25.7435C215.8 25.0654 214.952 24.5568 214.274 24.8959C209.527 26.5911 209.019 31.8462 207.493 35.9147C207.154 36.7623 206.815 37.4404 206.476 38.1185C206.137 38.1185 205.967 38.288 205.798 38.627C205.459 39.4746 204.95 40.3222 204.611 41.0003C204.611 41.1698 204.442 41.1698 204.442 41.3394C204.272 41.0003 204.272 40.6613 204.103 40.1527C204.103 39.8137 204.103 39.4746 203.933 39.1356C203.764 37.949 203.764 36.5928 203.594 35.4061C203.425 33.5414 203.425 31.8462 203.255 29.9815C203.425 28.7948 203.425 27.6082 203.764 26.4216C203.933 25.4044 202.069 24.7264 201.56 25.7435C199.526 31.1681 197.322 36.4233 195.288 41.8479C195.288 41.3394 195.118 41.0003 195.118 40.4918C194.949 38.9661 194.949 37.6099 194.779 36.0842C194.779 34.5585 194.779 33.0329 194.779 31.6767C194.779 30.3205 195.118 28.9644 194.779 27.6082C194.61 26.5911 193.932 25.4044 192.745 25.2349C191.219 24.8959 190.372 26.0825 189.694 27.2692C188.337 29.6424 187.151 32.0157 186.303 34.5585C186.134 35.0671 185.964 35.7452 185.795 36.2537C185.964 33.7109 186.303 31.1681 185.964 28.6253C185.964 28.1168 185.795 27.4387 185.625 26.9301C185.456 26.252 185.286 25.2349 184.269 25.0654C182.913 24.7264 182.065 25.7435 181.387 26.7606C180.031 28.9644 179.014 31.3377 178.166 33.8805C178.166 34.05 177.997 34.2195 177.997 34.2195C177.997 33.5414 177.997 33.0329 177.997 32.3548C177.997 30.6596 177.997 28.9644 177.658 27.2692C177.488 25.913 176.979 23.8788 175.454 23.5397C174.945 23.3702 174.437 23.5397 174.098 23.8788C173.589 23.8788 173.25 23.8788 172.911 24.3873C170.538 29.6424 168.334 34.8976 166.13 40.1527C166.13 39.8137 166.13 39.4746 166.13 39.1356C166.13 35.0671 166.13 30.9986 166.3 26.9301C166.3 25.7435 164.435 25.2349 164.096 26.5911C162.909 33.0329 160.536 39.1356 157.315 44.7298C156.128 42.3565 155.789 39.4746 156.128 36.7623C156.467 32.8633 157.824 29.3034 159.18 25.7435C159.519 24.8959 158.332 23.7092 157.485 24.3873C156.128 25.574 154.264 24.8959 152.569 24.8959C150.704 24.8959 149.178 25.4044 147.991 26.7606C146.974 27.9472 146.466 29.6424 145.957 31.1681C145.788 31.6767 145.788 32.3548 145.618 32.8633C145.618 32.5243 145.618 32.3548 145.618 32.0157C145.618 30.8291 145.618 29.6424 145.618 28.4558C145.618 27.6082 145.618 26.7606 145.449 25.913C145.279 25.0654 144.771 24.3873 144.092 24.0483C143.245 23.7092 142.228 23.8787 141.55 24.5568C140.024 25.913 139.346 27.9472 139.854 29.9815C140.024 30.6596 141.041 30.6596 141.041 29.9815C140.872 28.6253 141.38 27.0996 142.567 26.0825C142.906 25.7435 143.414 25.4044 143.753 25.7435C144.092 26.252 144.092 26.7606 144.092 27.4387C143.923 31.3377 143.923 35.2366 143.753 38.9661C143.753 41.1698 143.584 43.3736 143.584 45.5774C143.584 46.764 145.449 47.2726 145.618 45.9164C146.466 41.5089 147.144 37.1014 147.991 32.6938C148.33 31.3377 148.67 29.6424 149.517 28.4558C149.856 27.9472 150.365 27.4387 151.043 27.0996C151.721 26.7606 152.569 26.7606 153.416 26.7606C154.433 26.7606 155.45 26.9301 156.637 26.9301C155.45 30.151 154.433 33.3719 154.264 36.5928C153.925 40.3222 154.772 44.0517 156.976 47.2726C157.315 47.7811 158.332 47.9507 158.671 47.4421C161.045 43.7127 163.079 39.6442 164.435 35.4061C164.435 38.627 164.435 41.8479 164.265 45.0688C161.553 51.3411 158.332 57.6133 158.163 64.5637C158.163 68.2931 158.841 72.0226 160.536 75.5825C160.875 76.2606 161.553 76.4301 162.231 76.0911C164.604 74.9044 165.622 72.3616 165.961 69.8188C166.13 68.6322 166.13 67.276 166.13 66.0894C166.13 64.2246 166.13 62.5294 166.13 60.6647L166.3 45.9164C167.656 42.6955 169.012 39.4746 170.368 36.4233C172.063 32.6938 173.589 28.9644 175.115 25.2349C175.115 25.0654 175.115 25.0654 175.115 24.8959C175.454 25.0654 175.623 26.0825 175.793 26.4216C175.962 27.2692 175.962 27.9472 175.962 28.7948C175.962 29.6424 175.962 30.6596 175.962 31.5072C175.962 35.0671 176.132 38.7966 176.301 42.3565C176.301 42.865 176.64 43.3736 177.319 43.5431C177.827 43.7127 178.336 43.3736 178.505 42.6955C178.844 39.6442 179.522 36.7623 180.539 33.8805C181.048 32.5243 181.726 30.9986 182.404 29.6424C182.743 28.9644 183.082 28.4558 183.421 27.7777C183.591 27.6082 183.76 27.4387 183.76 27.2692C184.438 29.6424 184.099 32.3548 183.93 34.7281C183.76 37.6099 183.421 40.6613 184.099 43.5431C184.438 44.5603 185.964 44.8993 186.134 43.7127C187.32 38.7966 188.337 33.7109 191.05 29.1339C191.389 28.6253 191.558 28.1168 191.897 27.6082C192.067 27.4387 192.236 27.2692 192.406 27.0996C192.406 27.0996 192.406 27.0996 192.575 27.0996C192.575 27.2692 192.745 27.4387 192.745 27.6082C192.745 28.1168 192.745 28.6253 192.745 29.3034C192.575 32.1853 192.575 35.0671 192.745 37.949C192.914 39.4746 192.914 41.1698 193.253 42.6955C193.423 44.0517 194.101 45.4079 195.627 45.4079C195.966 45.4079 196.305 45.2383 196.474 44.8993C198 41.1698 199.526 37.2709 200.882 33.5414C200.882 35.4061 201.051 37.1014 201.39 38.9661C201.56 39.9832 201.729 41.0003 202.069 42.0175C202.408 43.0346 202.916 43.8822 204.103 44.2212C204.95 44.3907 205.628 43.8822 205.967 43.3736L206.137 43.2041C206.985 42.3565 207.493 41.0003 208.171 39.9832C209.358 37.6099 210.036 35.2366 210.884 32.6938C211.392 30.9986 212.24 28.9644 213.765 27.7777C214.444 33.0329 214.613 38.4575 214.444 43.8822C214.444 45.0688 216.308 45.5774 216.478 44.2212C216.986 41.0003 217.495 37.7794 218.342 34.5585C218.851 33.0329 219.36 31.5072 220.038 29.9815C220.546 28.7948 221.224 27.2692 222.75 26.9301C224.106 26.5911 224.445 27.7777 224.615 28.7948C224.784 30.3205 224.445 32.0157 224.445 33.5414L224.106 38.9661C224.106 40.1527 223.937 41.5089 224.615 42.6955C225.293 44.2212 227.158 44.8993 228.683 44.0517C229.531 43.7127 230.039 43.0346 230.378 42.187C230.717 41.6784 230.887 41.0003 231.226 40.4918C232.243 41.6784 233.769 41.8479 235.125 41.0003C236.312 40.3222 237.329 39.1356 238.176 37.949C239.194 36.7623 240.041 35.5757 240.889 34.2195C240.889 34.5585 240.889 34.8976 240.719 35.2366C240.55 36.2538 240.55 37.2709 240.38 38.288C240.38 39.3051 240.211 40.1527 240.211 41.1698C240.211 42.8651 241.058 44.7298 243.092 44.5603C244.11 44.5603 245.127 43.8822 245.805 43.3736C246.652 42.8651 247.5 42.187 247.839 41.1698C248.178 40.8308 246.991 40.1527 246.313 40.4918Z" fill="white"/>
<path d="M278.013 39.6441C277.674 39.9832 277.335 40.3222 276.996 40.3222C276.827 40.3222 276.827 40.3222 276.657 40.1527C276.488 39.9832 276.488 39.9832 276.318 39.6441C275.81 38.7965 275.81 37.6099 275.81 36.5928C275.81 35.5757 276.149 34.5585 276.488 33.7109C277.166 32.8633 277.844 31.8462 278.522 30.9986V30.8291C279.37 30.151 280.217 29.812 281.234 29.6424C282.76 29.3034 284.625 29.6424 285.811 30.6596C284.116 32.5243 282.59 34.389 280.895 36.0842C280.217 37.4404 279.2 38.627 278.013 39.6441ZM262.078 61.8513C261.909 62.5294 261.909 63.2075 261.739 63.8856C261.739 64.3941 261.57 64.7332 261.4 65.2418C261.231 64.9027 261.061 64.3942 261.061 64.0551C260.553 61.8513 260.553 59.4781 261.061 57.1048C261.4 55.24 262.078 53.3753 262.926 51.5106C262.756 55.0705 262.417 58.4609 262.078 61.8513ZM261.57 65.5808C261.739 65.5808 261.739 65.5808 261.57 65.5808C261.739 65.5808 261.739 65.5808 261.57 65.5808ZM261.4 65.5808C261.231 65.5808 261.231 65.5808 261.4 65.5808V65.5808ZM296.491 35.5757C295.983 35.2366 295.304 35.2366 294.796 35.7452C293.948 36.5928 292.931 37.6099 291.745 38.1185C291.236 38.288 290.727 38.4575 290.219 38.4575C289.88 38.4575 289.371 38.288 289.202 38.1185C288.863 37.9489 288.693 37.4404 288.693 36.9318C288.693 36.2537 288.693 35.5757 288.863 34.8976C289.032 33.3719 289.371 31.6767 289.71 30.151C289.88 29.6424 289.71 29.1339 289.202 28.7948C288.693 28.4558 288.185 28.6253 287.676 28.9644C287.506 29.1339 287.337 29.4729 287.167 29.6424C285.811 28.4558 284.116 27.7777 282.251 27.7777C280.556 27.7777 279.03 28.2863 277.674 29.3034C277.335 29.3034 276.996 29.4729 276.827 29.6424C273.775 34.2195 269.707 37.9489 266.316 42.187C266.147 42.3565 265.977 42.526 265.808 42.865C266.147 38.4575 266.486 34.05 267.334 29.6424C267.503 28.6253 265.977 27.9472 265.299 28.7948C262.417 33.0328 258.688 36.9318 254.45 39.8137C253.941 40.1527 253.433 40.4918 252.924 40.8308C252.416 41.1698 251.907 41.5089 251.229 41.5089C250.212 41.3394 249.703 40.3222 249.703 39.6441C249.534 38.288 250.042 36.9318 250.551 35.7452C251.06 34.5585 251.738 33.5414 252.585 32.5243C253.433 31.6767 254.45 30.49 255.806 30.49C256.654 30.49 257.671 31.3376 257.332 32.3548C257.162 32.8633 258.01 33.5414 258.518 33.0328C259.366 32.0157 258.858 30.49 258.01 29.6424C256.823 28.6253 255.298 28.4558 253.772 29.1339C252.416 29.812 251.229 30.9986 250.381 32.1852C249.364 33.5414 248.686 34.8976 248.178 36.5928C247.669 38.288 247.5 39.9832 248.347 41.3394C249.195 42.6955 250.551 43.7126 252.246 43.3736C253.772 43.2041 255.298 42.0174 256.484 41.1698C257.84 40.3222 259.027 39.3051 260.214 38.1185C261.739 36.7623 263.096 35.2366 264.452 33.7109C263.943 37.7794 263.604 42.0174 263.435 46.0859C261.4 49.1373 259.705 52.3582 259.027 56.0876C258.518 58.6305 258.349 61.1733 258.858 63.7161C259.197 64.9027 259.366 66.4284 260.553 67.276C261.739 68.1236 263.265 67.7846 263.774 66.4284C264.113 65.9198 264.113 65.2418 264.282 64.5637C264.452 63.8856 264.452 63.038 264.621 62.3599C264.791 61.0037 264.96 59.4781 265.13 58.1219C265.469 55.24 265.469 52.3582 265.638 49.3068C265.638 48.6287 265.638 47.9507 265.808 47.2726C266.486 46.2555 267.164 45.4079 267.842 44.3907C269.876 42.0174 271.911 39.6441 273.945 37.2709C273.945 37.9489 274.114 38.7965 274.284 39.4746C274.623 40.8308 275.64 42.3565 277.335 42.3565C279.2 42.526 280.217 40.8308 281.404 39.6441C283.268 37.6099 285.133 35.5757 286.998 33.5414C286.998 34.05 286.828 34.389 286.828 34.8976C286.489 36.5928 286.828 38.627 288.354 39.6441C289.71 40.4918 291.575 40.6613 293.101 40.1527C294.796 39.4746 296.152 38.288 297.339 36.9318C297.169 36.7623 297 35.9147 296.491 35.5757Z" fill="white"/>
<path d="M266.317 21.1664V21.3359C266.317 21.5055 266.487 21.5055 266.487 21.675C266.656 21.8445 266.656 21.8445 266.826 21.8445C266.826 21.8445 266.995 21.8445 267.165 21.8445C267.334 21.8445 267.504 21.8445 267.673 21.8445C267.843 21.8445 268.012 21.8445 268.182 21.8445C268.351 21.8445 268.521 21.675 268.521 21.675C268.69 21.675 268.69 21.5055 268.86 21.3359C268.86 21.3359 268.86 21.3359 268.86 21.1664L269.029 20.9969C269.029 20.8274 269.029 20.8274 269.029 20.6579V20.4883C269.029 20.3188 269.029 20.3188 268.86 20.1493C268.86 19.9798 268.69 19.9798 268.69 19.8103C268.69 19.6407 268.521 19.6407 268.351 19.6407C268.182 19.6407 268.182 19.4712 268.012 19.4712H267.843C267.843 19.4712 267.673 19.3017 267.504 19.3017C267.334 19.3017 266.995 19.1322 266.826 19.3017C266.656 19.3017 266.656 19.4712 266.487 19.4712C266.487 19.4712 266.487 19.4712 266.317 19.6407L266.148 19.8103C266.148 19.9798 265.978 19.9798 265.978 20.1493C265.978 20.3188 265.809 20.4883 265.809 20.4883C265.809 20.4883 265.809 20.4883 265.809 20.6579C266.148 20.8274 266.148 20.9969 266.317 21.1664Z" fill="white"/>
<path d="M2.37269 16.5894C4.74598 15.9113 7.28879 16.5894 8.47543 17.9455C9.8316 19.3017 10.0011 21.3359 9.8316 23.0311C9.32303 26.9301 7.28879 30.6596 3.89838 34.05C3.22029 34.7281 4.23742 35.5757 5.08502 35.7452C10.1706 36.9318 13.0525 41.0003 14.4087 44.0517C15.7648 47.6116 12.7134 51.1716 6.94975 52.1887C3.89838 52.6972 4.40694 55.0705 7.45831 54.901C14.9172 54.2229 20.6809 48.7983 19.4943 44.2212C18.8162 41.8479 17.121 39.4746 15.0867 37.4404C13.0525 35.4061 10.5097 33.8805 6.94975 33.2024C7.28879 33.7109 7.79735 34.389 8.13639 34.8976C12.3744 30.6596 15.0867 25.2349 14.4087 20.3188C14.0696 18.115 12.7134 15.9113 9.66208 14.8942C6.94975 13.538 3.22029 13.7075 0.507965 15.2332C-1.01772 16.0808 1.18605 16.9284 2.37269 16.5894Z" fill="white"/>
<path d="M28.7581 50.8C28.7581 51.4667 28.4915 52.0933 27.9581 52.68C27.4248 53.24 26.8381 53.52 26.1981 53.52C25.4515 53.52 24.7715 53.32 24.1581 52.92C23.5448 52.4933 23.2381 51.96 23.2381 51.32C23.2381 50.3067 23.4248 49.56 23.7981 49.08C24.1981 48.6 24.7848 48.36 25.5581 48.36C26.4648 48.36 27.2248 48.5867 27.8381 49.04C28.4515 49.4667 28.7581 50.0533 28.7581 50.8Z" fill="white"/>
</g>
<defs>
<clipPath id="clip0_0_3808">
<rect width="297" height="75.2671" fill="white" transform="translate(0 0.993469)"/>
</clipPath>
</defs>
</svg>
