<svg width="286" height="66" viewBox="0 0 286 66" fill="none" xmlns="http://www.w3.org/2000/svg">
<g clip-path="url(#clip0_0_3928)">
<path d="M4.51591 25.7053C4.34223 26.0526 3.99486 26.4 3.64749 26.5737C3.64749 26.4 3.47381 26.2263 3.47381 26.0526C3.12644 25.1842 3.12644 24.1421 2.95276 23.2737C2.60539 21.3632 2.60539 19.279 2.77907 17.3684C2.95276 15.2842 3.47381 13.3737 3.99486 11.4632C4.34223 10.5947 4.6896 9.72633 5.03697 8.8579C5.21065 8.33685 5.55802 7.8158 5.7317 7.29475C5.7317 7.29475 5.7317 7.29475 5.7317 7.12106C6.07907 7.12106 6.42644 6.94738 6.60012 6.77369C6.94749 6.77369 7.46855 6.42632 7.46855 6.07896C7.46855 5.90527 7.46855 5.90527 7.46855 5.90527C7.64223 6.07896 7.9896 6.42632 8.16328 6.60001C8.68433 7.46843 9.0317 8.51054 9.20539 9.37896C9.20539 10.2474 9.0317 11.2895 9.0317 12.1579C9.0317 13.2 9.0317 14.2421 9.0317 15.2842C8.33697 19.1053 6.77381 22.7526 4.51591 25.7053ZM11.9843 9.37896C11.637 6.94738 10.5949 3.99475 7.9896 3.30001C6.42644 2.95264 3.99486 4.16843 3.99486 5.5579L3.82118 5.73159C2.60539 7.8158 1.73697 10.2474 1.04223 12.5053C-0.17356 17.0211 -0.520928 22.2316 0.868545 26.7474C1.56328 28.4842 3.47381 30.0474 5.21065 28.4842C6.77381 27.2684 7.9896 25.1842 9.0317 23.4474C9.0317 25.0105 9.0317 26.5737 9.0317 28.3105C9.0317 31.7842 8.85802 35.4316 8.68433 38.9053C8.68433 40.4684 8.51065 42.2053 7.46855 43.4211C6.60012 44.4632 5.21065 44.2895 4.51591 42.9C4.16855 42.2053 2.77907 42.5526 2.60539 43.2474C2.4317 44.9842 3.64749 46.0263 5.21065 46.2C6.77381 46.5474 8.33697 45.8526 9.20539 44.6369C10.4212 43.4211 10.7685 41.6842 10.9422 39.9474C11.1159 37.8632 11.1159 35.6053 11.2896 33.5211C11.4633 29.0053 11.4633 24.6632 11.4633 20.1474C11.4633 19.1053 11.4633 18.0632 11.4633 17.1947C12.158 14.5895 12.3317 11.8105 11.9843 9.37896Z" fill="white"/>
<path d="M46.0268 42.0316C42.0321 42.0316 37.8637 42.379 33.8689 43.2474C33.5216 38.2105 33.3479 33.3474 33.3479 28.3105C34.5637 28.4842 35.7795 28.4842 36.9953 28.4842C37.8637 28.4842 38.9058 28.4842 39.7742 28.3105C40.8163 28.3105 42.0321 28.3105 42.9005 27.7895C43.4216 27.6158 43.4216 26.9211 43.2479 26.4C43.0742 25.879 42.7268 25.5316 42.0321 25.3579C41.1637 25.0105 39.9479 25.3579 39.0795 25.3579C38.211 25.3579 37.3426 25.5316 36.4742 25.5316C35.4321 25.5316 34.39 25.7053 33.3479 25.7053C33.3479 21.0158 33.6953 16.1526 34.0426 11.4632C36.1268 11.6369 38.0374 11.8105 40.1216 11.9842C41.3374 11.9842 42.5532 12.1579 43.5953 12.1579C44.811 12.1579 45.8532 12.3316 47.0689 11.9842C47.7637 11.8105 47.59 10.7684 47.0689 10.5948C45.8532 10.0737 44.6374 9.90002 43.4216 9.72633C42.2058 9.55265 41.1637 9.37896 39.9479 9.37896C37.5163 9.20528 35.0847 9.03159 32.4795 8.85791C31.9584 8.85791 31.4374 9.37896 31.2637 9.90002C30.7426 15.2842 30.5689 20.8421 30.3953 26.2263C29.8742 26.5737 30.0479 27.2684 30.3953 27.7895C30.3953 30.9158 30.3953 34.0421 30.5689 37.1684C30.7426 39.7737 30.7426 42.379 31.09 44.9842C31.09 45.8526 32.3058 46.3737 33.0005 46.2C37.3426 45.1579 41.8584 44.8105 46.3742 44.8105C47.2426 44.8105 47.7637 43.9421 47.59 43.2474C47.59 42.5526 46.7216 42.0316 46.0268 42.0316Z" fill="white"/>
<path d="M179.765 5.90528V6.07896C179.765 6.07896 179.765 6.07896 179.765 5.90528ZM177.16 5.90528C177.16 6.25265 177.334 6.60002 177.681 6.94739C178.028 7.29475 178.549 7.29475 178.897 7.29475C179.418 7.12107 179.765 6.7737 180.112 6.42633C180.286 6.25265 180.286 6.07896 180.286 5.90528C180.286 5.7316 180.46 5.55791 180.46 5.38423C180.46 5.03686 180.46 4.86317 180.46 4.51581C180.46 4.16844 180.112 3.82107 179.939 3.64739C179.939 3.4737 179.939 3.4737 179.939 3.30002C179.765 2.95265 179.591 2.77896 179.244 2.60528C178.723 2.4316 178.028 2.4316 177.855 3.12633C177.681 3.4737 177.681 3.64739 177.507 3.99475L177.334 4.16844C177.334 4.16844 177.334 4.34212 177.16 4.34212C176.986 4.68949 176.812 4.86317 176.812 5.38423C176.986 5.55791 177.16 5.7316 177.16 5.90528Z" fill="white"/>
<path d="M268.514 28.6579C267.299 30.0474 265.041 30.7421 263.651 29.5263L263.478 29.3526L263.304 29.0053C263.13 28.8316 263.13 28.4842 262.957 28.3105C262.783 27.7895 262.783 27.2684 262.783 26.7474C262.783 25.8789 262.957 25.1842 263.13 24.3158C263.478 24.3158 263.825 23.9684 263.999 23.621C264.52 22.0579 265.041 19.4526 266.951 19.1053C267.82 18.9316 268.514 19.2789 269.209 19.8C269.383 19.9737 269.73 20.321 269.904 20.6684C270.078 21.1895 270.251 21.7105 270.425 22.2316C270.772 24.4895 269.904 27.0947 268.514 28.6579ZM246.109 59.921C245.762 61.1368 245.414 62.1789 244.72 63.0474C244.72 63.0474 244.72 63.0474 244.546 62.8737C244.199 62.3526 243.851 61.6579 243.678 60.9631C242.809 58.5316 242.983 55.7526 243.504 53.321C244.199 50.3684 245.762 47.7631 247.499 45.1579C247.672 50.1947 247.325 55.2316 246.109 59.921ZM217.451 23.9684C216.757 26.4 215.541 28.4842 213.978 30.5684C213.283 31.4368 212.414 32.4789 211.546 33.1737C210.851 33.6947 209.809 34.3895 209.114 34.2158C208.42 34.0421 207.725 33.3474 207.378 32.4789C207.204 31.9579 207.204 31.6105 207.204 31.0895C207.204 30.9158 207.204 30.9158 207.204 30.7421C207.204 30.3947 207.378 29.8737 207.551 29.5263C208.42 27.2684 210.504 25.5316 212.588 24.3158C213.63 23.7947 214.846 23.4474 215.888 23.621C216.409 23.4474 216.93 23.621 217.451 23.9684ZM162.741 24.1421C162.914 23.9684 162.914 24.1421 162.741 24.1421V24.1421ZM162.741 24.1421C162.741 23.9684 162.741 23.9684 162.741 24.1421V24.1421ZM100.388 12.8526C100.041 13.721 99.8671 14.5895 99.3461 15.4579C98.825 16.6737 98.1303 17.8895 97.4355 19.1053C97.7829 17.021 98.1303 14.9368 98.6513 12.8526C99.3461 13.0263 99.8671 13.0263 100.388 12.8526ZM101.257 5.21052C101.43 6.94736 101.257 8.51052 100.909 10.2474C100.388 10.2474 99.8671 10.2474 99.3461 10.421C100.041 8.6842 100.562 6.94736 101.257 5.21052ZM113.241 28.1368C113.936 26.5737 115.151 24.3158 116.888 23.621C117.236 23.4474 117.409 23.4474 117.757 23.4474C117.93 23.4474 118.104 23.4474 118.278 23.621L118.451 23.7947C118.625 23.9684 118.799 23.9684 118.799 24.3158C118.799 24.8368 118.625 25.3579 118.451 25.7053C117.583 27.4421 115.672 28.6579 113.762 28.4842C113.588 28.4842 113.414 28.4842 113.241 28.4842C113.241 28.3105 113.241 28.1368 113.241 28.1368ZM283.104 25.7053C282.236 26.4 281.888 27.4421 281.367 28.3105C280.846 29.0053 280.325 29.8737 279.63 30.3947C278.588 31.2631 276.851 31.4368 275.983 30.221C275.462 29.5263 275.288 28.4842 275.114 27.6158C274.941 26.4 274.767 25.3579 274.593 24.1421C274.42 21.8842 274.767 19.6263 275.288 17.3684C275.636 16.3263 274.072 15.4579 273.551 16.5C273.204 17.5421 272.857 18.5842 272.509 19.6263C271.641 17.8895 269.904 16.5 267.82 16.1526C266.083 15.9789 264.346 16.5 263.13 17.8895C262.436 18.7579 261.914 19.9737 261.567 21.0158C261.22 21.0158 260.699 21.3631 260.525 21.7105C258.788 27.6158 254.446 32.1316 250.278 36.6474C250.278 33.3474 250.451 30.221 250.972 26.921C251.32 25.8789 251.493 25.0105 251.493 23.9684C251.493 22.2316 249.062 21.5368 248.541 23.4474C248.367 24.3158 248.193 25.1842 248.02 26.2263C246.457 30.3947 241.246 32.6526 237.251 34.2158C236.557 34.3895 235.862 34.7368 235.167 34.7368C234.646 34.7368 234.125 34.5631 233.951 34.3895C233.257 33.8684 232.736 33 232.736 31.9579C232.562 29.3526 234.646 27.0947 236.209 25.3579C237.078 24.4895 238.293 23.4474 239.509 23.4474C240.378 23.4474 241.767 24.1421 241.767 25.1842C241.767 25.8789 242.809 26.4 243.157 25.7053C243.851 24.1421 242.983 22.7526 241.767 21.8842C240.204 20.8421 238.467 20.8421 236.904 21.5368C235.341 22.2316 234.125 23.621 232.909 24.8368C231.693 26.2263 230.651 27.7895 230.13 29.5263C229.783 30.3947 229.783 31.4368 229.957 32.4789C229.609 32.4789 229.262 32.4789 228.914 32.6526C227.525 33.3474 226.309 34.5631 224.746 34.7368C224.225 34.9105 223.53 34.7368 223.009 34.5631H222.836C222.836 34.5631 222.836 34.5631 222.662 34.3895C222.488 34.2158 222.488 34.2158 222.314 34.0421C222.314 34.0421 222.314 33.8684 222.141 33.8684C221.967 33.6947 221.967 33.521 221.793 33.521C221.62 33.1737 221.272 32.4789 221.099 31.9579C220.925 31.4368 220.751 30.7421 220.751 30.221C220.404 28.3105 220.23 26.5737 219.883 24.6631C219.883 24.4895 219.709 24.1421 219.536 23.9684C218.146 21.3631 215.193 20.4947 212.414 21.0158C210.851 21.3631 209.462 22.2316 208.246 23.2737C207.03 24.3158 205.988 25.5316 205.12 26.7474C204.599 27.6158 204.251 28.6579 204.078 29.7C203.383 30.3947 202.862 31.2631 202.514 32.1316C202.341 32.6526 202.167 33.1737 201.82 33.6947C201.646 34.0421 201.299 34.3895 200.951 34.3895C199.909 34.5631 199.041 33.6947 198.52 33C197.825 31.7842 197.304 30.221 196.783 28.8316C196.262 27.2684 196.262 25.7053 195.741 24.3158C195.22 22.5789 193.483 21.5368 191.746 22.2316C190.357 22.7526 189.314 24.1421 188.446 25.1842C187.578 26.2263 186.709 27.4421 185.841 28.6579C185.493 29.1789 185.146 29.8737 184.799 30.3947C184.972 27.9631 185.146 25.3579 185.493 22.9263C185.667 21.8842 183.757 21.0158 183.409 22.2316C182.541 25.3579 182.02 28.6579 182.02 31.9579C181.846 31.9579 181.672 32.1316 181.672 32.3053C181.499 32.8263 181.499 33.3474 181.151 33.8684C180.978 34.3895 180.63 34.7368 180.457 35.2579C180.109 36.1263 179.762 36.821 179.241 37.3421C178.72 37.8631 177.851 38.2105 177.157 38.0368C176.636 37.8631 176.288 37.1684 175.941 36.6474C175.593 35.6053 175.767 34.5631 175.767 33.521C175.941 32.3053 176.114 31.0895 176.288 29.8737C176.636 27.4421 176.983 25.0105 177.33 22.5789C177.504 21.0158 175.246 20.321 174.551 21.7105C172.641 25.3579 170.557 29.1789 168.646 32.8263C168.125 33.6947 167.604 34.5631 167.257 35.4316C167.083 35.7789 166.562 36.6474 166.214 36.821C166.214 36.821 166.214 36.821 166.041 36.821L165.867 36.6474C165.52 36.1263 165.52 35.4316 165.346 34.9105C165.172 33 165.172 30.9158 165.172 29.0053C165.172 27.2684 165.346 25.1842 164.825 23.4474C164.304 21.7105 162.22 20.6684 160.483 21.5368C158.92 22.4053 157.878 24.3158 157.009 25.8789C156.314 27.0947 155.793 28.1368 155.272 29.3526C155.272 29.0053 155.272 28.6579 155.272 28.4842C155.272 26.921 155.099 25.3579 155.099 23.9684C155.099 22.7526 154.925 21.3631 154.057 20.321C153.014 19.2789 151.451 19.2789 150.583 20.4947C149.714 21.5368 149.02 22.9263 148.325 23.9684C146.936 26.4 145.546 29.0053 144.504 31.6105C144.33 31.7842 144.33 32.1316 144.33 32.3053C144.157 28.8316 144.157 25.5316 143.809 22.0579C143.809 21.3631 142.767 20.8421 142.072 21.1895C141.551 21.0158 140.683 21.1895 140.509 21.8842C140.162 22.9263 139.293 23.621 138.078 23.9684C137.557 24.1421 137.036 24.1421 136.514 23.9684C136.167 23.9684 136.167 23.9684 135.82 23.7947L135.646 23.621C135.472 23.4474 135.299 23.2737 135.472 23.4474C134.604 22.5789 133.214 22.5789 133.041 23.9684C132.346 27.0947 131.651 30.221 130.783 33.1737C130.436 30.0474 130.088 26.7474 129.741 23.621C129.567 22.4053 128.004 21.8842 127.309 22.7526C124.357 25.8789 123.314 30.221 121.057 33.6947C120.014 35.2579 118.799 36.821 117.062 37.6895C115.672 38.3842 113.936 38.3842 112.72 37.8631C112.025 37.5158 111.678 37.3421 111.33 36.821C110.809 36.1263 110.809 35.0842 110.809 34.2158C110.809 33 111.157 31.7842 111.678 30.7421C111.851 30.7421 112.025 30.9158 112.025 30.9158C114.63 31.6105 117.236 30.7421 118.972 29.0053C120.883 27.2684 121.925 23.9684 120.014 22.0579C118.104 20.1474 115.151 20.4947 113.241 22.2316C112.199 23.1 111.504 24.3158 110.809 25.5316C110.462 26.0526 110.288 26.5737 109.941 27.0947C109.42 26.5737 109.072 26.0526 108.899 25.3579C108.551 24.3158 106.814 23.9684 106.293 25.1842C104.036 30.3947 101.43 35.4316 98.4776 40.2947C97.0882 35.2579 96.3934 30.0474 96.5671 24.8368C96.7408 24.4895 96.9145 24.1421 97.2618 23.9684C99.5197 20.4947 101.43 17.021 102.646 13.0263C104.557 13.0263 106.641 13.0263 108.551 13.3737C110.288 13.721 113.936 14.7631 114.457 12.1579C114.804 11.1158 113.588 9.89999 112.546 10.5947C112.025 10.9421 111.504 10.9421 110.983 10.9421C109.941 10.7684 109.072 10.5947 108.03 10.421C106.467 10.2474 104.73 10.2474 103.167 10.2474C103.167 10.0737 103.167 9.89999 103.167 9.72631C103.514 6.77368 103.341 3.82104 102.299 1.0421C101.951 -7.49528e-06 100.388 -0.173692 99.8671 0.868413C98.3039 3.99473 96.9145 7.46841 95.8724 10.9421C93.2671 11.2895 90.6618 11.6368 88.0566 11.8105C85.625 11.9842 83.1934 12.1579 80.7618 11.9842C79.7197 11.9842 79.8934 13.5474 80.7618 13.721C85.625 14.5895 90.3145 14.0684 95.1776 13.5474C94.3092 17.1947 93.7882 20.8421 93.7882 24.4895C92.9197 25.8789 91.8776 27.2684 91.0092 28.6579C89.4461 31.0895 87.7092 33.521 86.146 35.9526C85.9724 35.6053 85.7987 35.2579 85.625 34.9105C84.7566 33.1737 83.1934 31.7842 81.8039 30.5684C80.5882 29.3526 79.1987 28.1368 78.504 26.5737C77.9829 25.1842 77.8092 23.2737 79.1987 22.4053C80.0671 21.8842 81.6303 21.5368 82.325 22.4053C82.8461 22.9263 83.5408 22.4053 83.1934 21.7105C82.1513 18.7579 78.1566 19.2789 76.4197 21.1895C73.9882 24.1421 75.8987 28.1368 78.1566 30.5684C79.3724 31.9579 80.7618 33 81.9776 34.3895C83.0197 35.6053 83.8882 37.1684 83.7145 38.7316C83.1934 41.5105 79.8934 42.5526 77.6355 41.5105C76.0724 40.8158 74.8566 39.6 74.1618 38.2105C73.6408 37.3421 73.2934 36.4737 73.1197 35.6053C72.9461 34.7368 73.1197 33.6947 73.1197 32.8263C73.1197 32.3053 72.7724 31.9579 72.425 31.7842C72.2513 31.0895 71.2092 30.5684 70.6882 31.2631C70.3408 31.7842 69.9934 32.1316 69.6461 32.6526C69.2987 33.1737 69.125 33.6947 68.9513 34.3895C68.4303 35.4316 68.0829 36.4737 67.5618 37.5158C67.3882 37.8631 67.2145 38.3842 67.0408 38.7316C66.5197 38.0368 65.825 37.1684 65.3039 36.4737C63.9145 34.7368 62.6987 32.8263 61.6566 30.9158C61.1355 30.0474 60.6145 29.0053 59.9197 27.9631C59.3987 27.0947 58.7039 26.4 57.6618 26.0526C60.0934 23.621 62.525 21.3631 65.1303 19.1053C65.9987 18.4105 64.4355 16.8474 63.5671 17.5421C59.7461 20.4947 56.2724 23.621 52.9724 26.921C52.9724 26.7474 52.9724 26.4 52.9724 26.2263C52.9724 23.4474 53.1461 20.6684 52.9724 17.7158C52.9724 16.3263 52.9724 14.9368 52.9724 13.5474C52.9724 12.1579 52.7987 10.5947 52.625 9.20525C52.625 8.51052 51.2355 8.33683 51.2355 9.03157C51.0618 10.421 51.0618 11.8105 50.8882 13.3737C50.8882 14.7631 50.7145 16.1526 50.7145 17.3684C50.5408 20.1474 50.5408 22.9263 50.3671 25.8789C50.1934 28.8316 50.1934 31.4368 50.0197 34.3895C49.8461 37.1684 49.6724 39.9474 49.6724 42.7263C49.4987 44.2895 52.1039 44.9842 52.2776 43.2474C52.625 40.4684 52.4513 37.5158 52.625 34.7368C52.625 33.3474 52.625 32.1316 52.7987 30.7421C53.4934 30.0474 54.3618 29.5263 55.2303 29.1789C55.5776 29.0053 56.0987 28.6579 56.6197 28.4842C56.9671 28.3105 57.1408 28.1368 57.3145 28.4842C57.4882 28.8316 57.6618 29.1789 57.8355 29.5263C58.1829 30.0474 58.3566 30.5684 58.7039 31.2631C59.225 32.3053 59.9197 33.3474 60.4408 34.3895C61.6566 36.4737 63.0461 38.3842 64.4355 40.2947C65.1303 41.3368 66.1724 42.3789 67.3882 42.0316C68.6039 41.8579 69.125 40.6421 69.6461 39.6C69.9934 38.9053 70.3408 38.2105 70.5145 37.5158C71.0355 39.0789 72.0776 40.6421 73.4671 41.8579C76.0724 44.2895 79.7197 45.1579 83.0197 43.5947C84.4092 42.9 85.625 41.5105 85.9724 40.121C86.1461 39.4263 86.146 38.7316 86.146 37.8631C86.4934 38.0368 86.8408 37.8631 87.0145 37.5158C89.2724 34.7368 91.3566 31.7842 93.2671 29.0053C93.4408 30.9158 93.6145 32.8263 93.7882 34.7368C94.3092 38.0368 95.1776 41.3368 96.2197 44.4631C96.5671 45.3316 98.1303 45.8526 98.6513 44.9842C101.951 39.9474 104.73 34.5631 107.336 29.1789C107.683 29.5263 108.03 29.8737 108.378 30.0474C107.509 32.4789 106.814 35.4316 107.857 37.8631C109.941 42.3789 116.193 42.5526 119.667 39.7737C121.925 38.0368 123.314 35.4316 124.53 32.8263C125.225 31.2631 125.92 29.7 126.788 28.1368C127.309 32.8263 127.83 37.5158 128.178 42.2052C128.178 42.9 129.046 43.421 129.567 43.5947C130.262 43.5947 130.783 43.2474 130.957 42.5526C132.172 37.3421 133.388 32.3053 134.604 27.0947C135.646 27.6158 137.036 27.6158 138.251 27.4421C139.293 27.2684 140.162 26.7474 140.857 26.2263C140.683 31.2631 140.857 36.4737 141.03 41.5105C141.03 43.0737 143.288 43.7684 143.809 42.0316C144.851 37.1684 146.588 32.6526 149.02 28.3105C149.541 27.2684 150.236 26.2263 150.757 25.1842C151.104 24.6631 151.278 24.1421 151.625 23.7947L151.799 23.621C151.799 24.1421 151.799 24.8368 151.972 25.5316C151.972 26.921 152.146 28.1368 152.146 29.5263C152.32 32.6526 152.32 35.7789 152.493 38.7316C152.493 40.2947 155.099 40.4684 155.272 38.9053C155.967 35.2579 157.183 31.7842 158.746 28.6579C159.093 27.9631 159.614 27.2684 159.962 26.4C160.309 25.8789 160.657 25.0105 161.351 24.6631V24.8368V24.6631C161.351 24.6631 161.351 24.8368 161.351 25.0105C161.525 25.8789 161.525 26.7474 161.525 27.4421C161.525 29.5263 161.699 31.6105 161.699 33.6947C161.699 35.2579 161.699 36.821 162.567 38.2105C163.436 39.6 164.825 40.6421 166.562 40.121C168.299 39.6 169.167 37.5158 170.036 35.9526C170.904 34.3895 171.772 32.8263 172.641 31.2631C172.293 33 172.12 34.7368 172.293 36.4737C172.467 38.3842 173.683 40.4684 175.42 41.1631C177.33 42.0316 179.414 41.3368 180.804 39.9474C180.978 39.7737 181.151 39.6 181.325 39.4263C181.672 40.6421 183.757 40.8158 184.104 39.4263C184.625 36.6474 185.667 33.8684 187.23 31.4368C187.925 30.221 188.793 29.0053 189.662 27.9631C190.009 27.4421 190.53 26.921 191.051 26.4C191.225 26.2263 191.572 25.8789 191.746 25.7053C191.92 25.5316 192.093 25.5316 192.267 25.3579C191.92 25.7053 192.093 25.5316 192.267 25.3579V25.5316C192.441 26.4 192.614 27.2684 192.788 27.9631C193.136 29.5263 193.657 31.0895 194.178 32.6526C195.22 35.4316 197.651 38.2105 200.951 37.6895C202.514 37.3421 203.557 36.3 204.078 34.9105C204.251 35.2579 204.599 35.6053 204.946 35.9526C205.988 36.9947 207.551 37.5158 209.114 37.3421C210.851 37.1684 212.067 35.9526 213.283 34.9105C214.672 33.521 215.888 32.1316 216.93 30.3947C216.93 30.7421 217.104 31.0895 217.104 31.4368C217.451 33 217.972 34.7368 219.188 36.1263C220.578 37.6895 222.488 38.3842 224.572 38.0368C226.657 37.6895 228.393 36.6474 229.957 35.2579C230.651 36.4737 231.867 37.5158 233.257 37.8631C235.167 38.3842 237.251 37.5158 239.162 36.821C240.899 36.1263 242.809 35.4316 244.372 34.3895C245.241 33.8684 245.936 33.3474 246.63 32.6526C246.457 35.2579 246.457 38.0368 246.457 40.6421C243.33 44.2895 240.725 48.2842 239.509 52.9737C238.814 55.9263 238.814 58.8789 239.683 61.8316C240.03 63.221 240.725 64.7842 241.767 65.8263C243.157 67.0421 244.893 66.6947 246.109 65.3052C247.151 64.2631 247.499 62.7 247.846 61.3105C248.367 59.7474 248.541 58.0105 248.888 56.2737C249.409 52.9737 249.409 49.8474 249.409 46.5474C249.409 44.9842 249.409 43.421 249.409 41.8579C250.104 40.9895 250.799 40.2947 251.493 39.4263C254.272 36.4737 257.051 33.521 259.309 30.0474C259.483 30.3947 259.657 30.7421 259.83 30.9158C261.741 33.6947 265.909 33.8684 268.514 31.9579C269.73 31.0895 270.599 29.8737 271.293 28.4842C271.293 28.6579 271.467 29.0053 271.467 29.1789C271.988 31.0895 272.857 33 274.941 33.6947C276.851 34.3895 278.936 34.0421 280.499 32.8263C281.367 32.1316 282.062 31.4368 282.757 30.3947C283.451 29.3526 284.146 28.3105 284.146 27.0947C285.188 26.0526 284.146 25.0105 283.104 25.7053Z" fill="white"/>
<path d="M250.454 11.9842C250.454 11.9842 250.454 12.1579 250.627 12.1579L250.801 12.3316C250.801 12.3316 250.975 12.3316 250.975 12.5053C251.148 12.5053 251.148 12.6789 251.322 12.6789C251.496 12.6789 251.496 12.6789 251.669 12.6789H251.843H252.017C252.19 12.6789 252.19 12.6789 252.364 12.5053C252.538 12.5053 252.538 12.3316 252.711 12.1579L252.885 11.9842C252.885 11.8105 253.059 11.8105 253.059 11.6368V11.4632C253.233 11.4632 253.233 11.2895 253.406 11.2895C253.58 11.1158 253.58 11.1158 253.58 10.9421C253.58 10.7684 253.58 10.5947 253.58 10.4211C253.58 10.2474 253.58 10.2474 253.406 10.0737C253.233 9.9 253.233 9.72631 253.059 9.55263C252.885 9.55263 252.885 9.37895 252.711 9.37895C252.538 9.20526 252.364 9.20526 252.017 9.20526C251.843 9.20526 251.843 9.20526 251.669 9.20526C251.496 9.20526 251.496 9.37895 251.322 9.37895C251.322 9.37895 251.148 9.37895 251.148 9.55263C250.975 9.72631 250.975 9.72631 250.801 9.9C250.801 10.0737 250.627 10.0737 250.627 10.2474C250.627 10.4211 250.454 10.5947 250.454 10.7684V10.9421C250.454 11.2895 250.454 11.4632 250.627 11.8105C250.28 11.8105 250.454 11.8105 250.454 11.9842Z" fill="white"/>
<path d="M19.7581 43.8C19.7581 44.4667 19.4915 45.0933 18.9581 45.68C18.4248 46.24 17.8381 46.52 17.1981 46.52C16.4515 46.52 15.7715 46.32 15.1581 45.92C14.5448 45.4933 14.2381 44.96 14.2381 44.32C14.2381 43.3067 14.4248 42.56 14.7981 42.08C15.1981 41.6 15.7848 41.36 16.5581 41.36C17.4648 41.36 18.2248 41.5867 18.8381 42.04C19.4515 42.4667 19.7581 43.0533 19.7581 43.8Z" fill="white"/>
</g>
<defs>
<clipPath id="clip0_0_3928">
<rect width="285.189" height="66" fill="white"/>
</clipPath>
</defs>
</svg>
