<svg width="218" height="73" viewBox="0 0 218 73" fill="none" xmlns="http://www.w3.org/2000/svg">
<g clip-path="url(#clip0_0_3941)">
<path d="M6.4801 7.28987C3.64515 12.656 1.21519 18.3259 0.000208837 24.1983C-0.202288 25.0083 1.21519 25.1096 1.41768 24.5021C2.93641 20.6546 4.45513 16.706 6.2776 12.9598C6.17635 17.0097 6.17635 21.0596 6.0751 25.1096C6.0751 27.9445 5.97386 30.6782 5.97386 33.5132C5.97386 36.4494 5.77136 39.3856 5.87261 42.3218C5.97386 43.638 8.30257 43.4355 8.30257 42.1193C8.50506 39.2843 8.40382 36.3481 8.40382 33.5132C8.40382 30.6782 8.50506 27.742 8.50506 24.9071C8.60631 19.1359 8.60631 13.466 8.60631 7.69486C8.70756 6.58113 6.88509 6.47988 6.4801 7.28987Z" fill="white"/>
<path d="M19.5403 32.6019C19.2366 34.8294 18.8316 37.1581 18.0216 39.3856C17.8191 40.0943 17.4141 41.1068 16.4016 40.9043C15.2879 40.8031 14.6804 39.7906 14.3767 38.8793C13.5667 36.7531 13.6679 34.1207 13.5667 31.8932C13.4654 29.4633 13.3642 26.932 13.3642 24.5021C13.3642 19.1359 13.8704 13.7698 13.9717 8.30236C15.9966 7.99862 17.1104 10.1248 17.6166 11.7448C18.3253 13.9723 18.9328 16.301 19.2366 18.5284C20.1478 23.1859 20.2491 27.9445 19.5403 32.6019ZM21.869 18.0222C21.3628 15.1872 20.8566 11.9473 19.5403 9.41609C18.3253 7.08738 15.2879 4.96117 12.5542 6.58114C11.643 7.08738 11.9467 7.89737 12.5542 8.30236C11.3392 13.871 11.1367 19.8447 11.1367 25.7171C11.1367 28.6533 11.238 31.6907 11.4405 34.6269C11.643 36.9556 11.5417 39.8918 13.3642 41.613C14.8829 43.1318 17.6166 43.5368 19.2366 41.9168C20.0466 41.1068 20.3503 40.0943 20.6541 39.0818C21.059 37.6644 21.3628 36.1456 21.6665 34.7282C22.679 29.1595 22.7803 23.4896 21.869 18.0222Z" fill="white"/>
<path d="M203.307 29.5645C202.497 30.6782 201.485 31.6907 200.27 32.0957C199.156 32.5007 197.941 32.5007 196.929 32.0957C196.422 31.8932 196.017 31.6907 195.714 31.2857C195.309 30.8807 195.106 30.2732 195.106 29.767C196.726 31.4882 199.561 31.2857 201.485 29.9695C202.7 29.1595 203.611 27.9445 204.421 26.8308C204.623 26.6283 204.826 26.3245 204.927 26.122C204.522 27.4383 204.016 28.552 203.307 29.5645ZM97.9077 39.6893C97.4015 39.1831 97.0977 38.5756 96.794 37.9681C97.4015 38.7781 98.2115 39.4868 99.1227 40.0943C99.5277 40.3981 100.034 40.6005 100.54 40.9043C99.5277 40.7018 98.6165 40.3981 97.9077 39.6893ZM122.41 69.2538C120.79 66.9251 120.689 63.6852 121.094 61.0527C121.6 58.0152 123.017 55.1803 124.536 52.5478C125.549 50.8266 126.662 49.2067 127.877 47.4854C127.877 50.7254 127.776 53.8641 127.573 57.104C127.472 58.8252 127.371 60.5465 127.27 62.1664C127.168 63.4827 127.067 64.7989 126.662 66.1151C126.257 67.4313 125.751 68.5451 124.84 69.5575C124.536 69.9625 123.929 70.3675 123.422 70.165C123.017 70.0638 122.714 69.6588 122.41 69.2538ZM119.879 36.7531C119.372 37.1581 118.562 37.8668 117.752 37.7656C117.651 37.7656 117.55 37.7656 117.449 37.6643C117.449 37.6643 117.246 37.4619 117.347 37.5631C117.044 37.2594 116.942 37.0569 116.841 36.7531C116.537 36.0444 116.335 35.3356 116.234 34.5257C116.031 32.9057 116.132 31.2857 116.537 29.767C117.347 26.527 119.17 23.4896 121.499 21.1609C122.612 20.0472 124.334 18.9334 125.954 19.6422C127.168 20.1484 127.27 21.5659 127.472 22.7809C127.168 23.1858 126.966 23.9958 126.865 24.4008C126.662 25.2108 126.358 26.0208 126.156 26.7295C125.65 28.2483 125.042 29.767 124.232 31.1845C123.524 32.6019 122.612 33.9182 121.6 35.0319C121.094 35.7406 120.486 36.2469 119.879 36.7531ZM106.615 28.3495C105.906 28.552 105.198 28.7545 104.59 28.957C103.375 29.2607 102.261 29.5645 101.046 29.767C100.135 29.8682 99.3252 29.8682 98.414 29.8682C97.8065 29.8682 97.199 29.8682 96.5915 29.8682C96.5915 29.362 96.6928 28.8557 96.794 28.2483C96.8953 27.337 97.199 26.4258 97.4015 25.6158C97.9077 24.8058 98.5152 23.9958 99.1227 23.2871C100.135 22.0721 101.451 20.8571 102.97 20.1484C103.375 20.0472 103.679 20.0472 104.084 20.1484C104.59 20.1484 104.995 20.2496 105.4 20.4521C105.805 20.6546 106.109 20.8571 106.413 21.0596C107.02 21.6671 107.324 22.4771 107.526 23.3883C107.729 24.2996 107.729 25.2108 107.628 26.122C107.628 26.6283 107.526 27.1345 107.425 27.6408C107.425 27.8433 107.425 27.9445 107.324 28.147C107.121 28.2483 106.818 28.2483 106.615 28.3495ZM144.279 25.3121C145.899 26.932 148.431 27.5395 150.658 27.1345C152.278 26.8308 153.696 26.122 154.911 25.2108C154.911 25.6158 154.911 25.9196 154.809 26.3245C154.506 28.6533 153.392 30.8807 152.177 32.8044C151.164 34.4244 149.646 36.3481 147.519 36.3481C145.494 36.4494 143.874 34.5257 143.267 32.8044C142.558 30.2732 143.469 27.6408 144.279 25.3121ZM145.089 21.2621C145.697 19.7434 147.216 18.4272 149.038 18.2247C150.861 18.0222 152.481 19.1359 153.493 20.4521C153.898 20.9584 154.202 21.5659 154.506 22.1734C153.898 22.4771 153.189 22.7809 152.481 22.9834C151.063 23.4896 149.544 23.6921 148.127 23.6921C147.114 23.6921 146.001 23.5908 145.089 23.0846C144.786 22.5784 144.887 21.8696 145.089 21.2621ZM181.843 64.9001C179.919 63.7864 178.704 61.7614 178.299 59.6352C177.084 54.4716 179.615 49.5104 182.45 45.258C183.058 44.448 183.564 43.5367 184.171 42.7268C184.171 49.1054 184.171 55.484 184.171 61.9639C184.171 62.9764 184.273 64.4951 183.159 65.0014C182.855 65.1026 182.551 65.2039 182.248 65.1026C182.045 65.0014 181.944 65.0014 181.843 64.9001ZM196.422 24.2996C197.131 22.7809 198.447 21.4646 200.067 20.8571C201.991 20.0472 204.218 20.2496 205.94 21.4646C205.838 21.4646 205.838 21.5659 205.737 21.6671C204.927 22.6796 204.218 23.6921 203.408 24.7046C202.7 25.6158 201.991 26.527 201.282 27.4383C200.675 28.147 199.865 28.7545 198.954 29.0582C198.144 29.2607 197.334 29.2607 196.726 28.8557C196.422 28.6533 196.321 28.4508 196.22 28.147C196.017 27.742 196.017 27.337 195.916 26.932C195.815 25.9196 196.017 25.1096 196.422 24.2996ZM216.874 28.0458C216.672 28.0458 216.469 28.0458 216.267 28.147C216.166 28.0458 215.963 28.0458 215.862 28.0458C215.457 28.0458 214.849 28.3495 214.951 28.7545C214.951 29.767 214.444 30.7795 213.432 30.982C212.42 31.1845 211.711 30.6782 211.205 29.8682C210.496 28.7545 209.99 27.4383 209.382 26.2233C209.382 26.122 209.382 26.0208 209.382 25.9196C209.18 24.1983 208.977 22.5784 208.673 20.8571C208.572 20.2496 207.762 19.8447 207.155 20.0471C205.94 18.3259 203.51 17.5159 201.383 17.6172C198.042 17.9209 195.714 20.4521 194.397 23.2871C194.397 23.3883 194.296 23.4896 194.296 23.5908C194.296 23.5908 194.195 23.6921 194.195 23.7933C191.461 27.4383 188.829 31.1845 186.196 35.0319C186.196 31.5895 186.196 28.2483 186.196 24.8058V23.6921C186.297 23.4896 186.297 23.2871 186.399 22.9834C186.5 22.6796 186.399 22.2746 186.196 22.0721C186.095 21.0596 184.475 20.6546 184.273 21.8696C184.171 22.1734 184.171 22.3759 184.07 22.6796C183.868 22.6796 183.766 22.8821 183.766 23.0846C183.766 23.3883 183.766 23.5908 183.766 23.8946C182.956 26.4258 181.64 28.7545 179.919 30.7795C178.805 32.0957 177.59 33.2094 176.173 34.2219C174.755 35.1331 173.135 35.9431 171.313 36.0444C167.87 36.2469 165.744 33.3107 165.44 30.2732C165.238 28.3495 165.643 26.3245 166.25 24.4008C166.352 24.0971 166.453 23.8946 166.554 23.5908C167.465 22.2746 168.579 21.1609 170.098 20.6546C170.908 20.3509 171.819 20.1484 172.629 20.2496C173.338 20.3509 174.046 20.5534 174.755 20.7559C175.261 21.0596 175.666 21.4646 175.97 21.8696C176.375 22.4771 177.489 22.0721 177.084 21.3634C176.881 20.9584 176.679 20.6546 176.375 20.3509C176.375 20.1484 176.274 20.0472 176.071 19.8447C175.869 19.7434 175.768 19.6422 175.565 19.5409C173.743 18.1234 171.11 17.7184 168.883 18.5284C167.162 19.1359 165.947 20.2496 165.137 21.8696C165.035 22.0721 164.934 22.2746 164.934 22.4771C164.023 23.6921 163.415 25.2108 162.909 26.6283C162.302 28.552 161.998 30.6782 162.403 32.7032C162.403 32.8044 162.504 32.9057 162.504 33.0069C161.694 34.6269 160.479 36.0444 158.859 37.0569C157.745 31.9944 157.745 26.7295 159.062 21.6671C159.264 20.7559 158.049 19.8447 157.34 20.6546C157.138 20.8571 156.935 21.0596 156.733 21.2621C155.619 18.9334 153.696 16.9085 151.063 16.1997C149.342 15.6935 147.519 16.0985 145.798 16.5035C144.381 16.9085 142.862 17.5159 142.052 18.7309C141.242 20.0472 141.444 21.6671 142.254 22.9834C142.153 23.0846 142.052 23.0846 141.951 23.1858C139.521 26.7295 137.192 30.2732 134.762 33.8169C133.648 35.2344 132.535 36.6519 131.32 38.0693C131.117 34.0194 130.813 29.8682 130.206 25.8183C130.105 24.9071 129.902 23.8946 129.801 22.9834C129.801 22.8821 129.801 22.8821 129.801 22.8821C129.902 22.8821 129.902 22.7809 130.003 22.6796C130.915 21.0596 129.801 19.1359 128.383 18.2247C127.067 17.3134 125.549 17.3134 124.131 17.7184C123.524 17.8197 123.017 17.9209 122.511 18.2247C120.689 19.0347 119.372 20.6546 118.259 22.1734C117.044 23.6921 116.132 25.4133 115.424 27.2358C115.019 28.3495 114.614 29.5645 114.512 30.7795C114.411 30.982 114.411 31.0832 114.31 31.2857C114.107 31.7919 113.804 32.2982 113.601 32.9057C113.399 33.4119 113.095 33.9182 112.892 34.5257C112.791 34.8294 112.69 35.0319 112.589 35.3356C112.487 35.5381 112.386 35.7406 112.386 35.9431C111.576 37.0569 110.361 37.8668 109.045 38.3731C108.944 38.3731 108.944 38.4743 108.843 38.4743C106.716 39.1831 104.489 39.3856 102.363 38.7781C100.641 38.2718 99.1227 37.2594 98.009 36.0444C97.9077 35.8419 97.7052 35.5381 97.604 35.3356C97.199 34.4244 96.9965 33.4119 96.8953 32.3994C98.2115 32.2982 99.5277 32.0957 100.844 31.8932C103.173 31.7919 105.4 31.5895 107.628 30.8807C108.336 30.6782 109.045 30.4757 109.45 29.8682C109.45 29.8682 109.551 29.8682 109.551 29.767C111.07 29.0582 111.171 27.6408 111.273 26.2233C111.374 23.8946 111.171 21.2621 109.45 19.4397C108.64 18.6297 107.628 18.1234 106.514 17.9209C105.704 17.6172 104.894 17.5159 104.084 17.4147C102.363 17.3134 100.641 17.8197 99.224 18.7309C96.0853 20.6546 94.769 24.2996 94.2628 27.742C94.1615 28.552 94.0603 29.362 94.0603 30.172C92.5416 30.172 90.9216 30.172 89.4029 30.3745C88.7954 30.4757 88.6941 31.0832 88.9979 31.4882C88.8966 31.8932 89.2004 32.5007 89.7066 32.7032C90.4154 33.0069 91.3266 32.9057 92.1366 32.8044C92.8453 32.8044 93.4528 32.8044 94.1616 32.7032C94.1616 33.1082 94.2628 33.5132 94.2628 33.9182C94.4653 35.8419 94.8703 37.9681 95.8828 39.6893C96.794 41.3093 98.3127 42.423 100.236 42.828C101.958 43.233 103.78 42.9293 105.4 42.6255C107.324 42.2205 109.349 41.5118 111.07 40.6005C112.386 39.8918 113.804 39.0818 114.917 37.9681C115.12 38.3731 115.322 38.7781 115.525 39.0818C116.436 40.4993 118.157 41.3093 119.879 40.803C120.891 40.4993 121.701 39.7906 122.309 39.0818C123.017 38.2718 123.726 37.4619 124.334 36.5506C125.751 34.6269 126.966 32.5007 127.877 30.3745C127.877 32.5007 127.978 34.5257 128.08 36.6519C128.08 38.5756 128.181 40.6005 128.181 42.5243C123.827 47.9917 119.676 53.8641 118.765 60.749C118.259 64.0901 118.664 67.7351 120.182 70.7725C120.891 72.19 122.207 73.5062 124.03 73.3037C125.65 73.1012 126.966 71.8863 127.776 70.6713C129.7 67.6338 130.307 63.9889 130.712 60.5465C131.218 56.8003 131.421 52.9528 131.623 49.2066C131.725 47.0804 131.725 44.9542 131.725 42.828C133.75 39.8918 135.673 36.9556 137.698 33.9182C138.61 32.8044 139.42 31.7919 140.331 30.6782C140.128 33.0069 140.533 35.2344 142.153 37.1581C143.469 38.6768 145.393 39.6893 147.519 39.4868C149.848 39.2843 151.772 37.7656 153.189 36.0444C153.999 35.1331 154.607 34.1207 155.315 33.0069C155.315 33.8169 155.417 34.5257 155.417 35.3356C155.518 36.9556 155.72 39.0818 157.644 39.6893C159.365 40.2968 161.087 39.2843 162.2 38.1706C162.909 37.5631 163.517 36.7531 164.023 35.9431C164.327 36.3481 164.63 36.7531 165.035 37.0569C166.453 38.3731 168.478 38.9806 170.402 38.7781C174.148 38.4743 177.793 36.5506 180.425 34.0194C181.843 32.7032 183.058 31.0832 184.07 29.362C184.171 30.4757 184.171 31.4882 184.273 32.6019C184.374 34.3232 184.475 36.0444 184.475 37.7656C184.475 37.8668 184.475 37.8668 184.475 37.9681C183.665 39.0818 182.855 40.2968 182.045 41.4105C178.603 46.2705 174.958 51.6366 175.363 57.8128C175.565 60.4452 176.476 63.0777 178.4 65.0014C179.413 66.0139 180.628 66.8239 182.045 67.1276C182.146 67.1276 182.146 67.1276 182.248 67.1276C182.754 67.3301 183.361 67.4313 183.868 67.3301C185.285 67.2288 186.196 66.2164 186.601 65.0014C187.006 63.6851 186.905 62.2677 186.905 60.9515C186.905 59.2302 186.905 57.6103 186.905 55.889C186.905 52.5478 186.804 49.2067 186.702 45.8655C186.702 44.3467 186.601 42.828 186.5 41.3093C186.5 40.9043 186.5 40.4993 186.5 40.0943C188.829 36.6519 191.157 33.3107 193.486 29.9695C193.689 31.1845 194.195 32.3994 195.207 33.2094C196.321 34.2219 197.941 34.6269 199.46 34.6269C201.08 34.5257 202.598 33.8169 203.813 32.8044C205.737 31.0832 206.75 28.7545 207.458 26.4258C207.56 26.6283 207.661 26.7295 207.661 26.932C207.863 28.3495 207.965 29.8682 208.572 31.1845C209.787 33.8169 213.432 34.9306 215.963 33.3107C217.279 32.5007 218.191 30.982 218.191 29.4632C217.786 28.6533 217.381 28.147 216.874 28.0458Z" fill="white"/>
<path d="M184.575 9.71984C184.575 9.82108 184.575 9.82108 184.575 9.71984C184.575 9.82108 184.575 9.82108 184.575 9.71984C184.575 9.82108 184.575 9.82108 184.575 9.71984ZM184.271 11.2386C184.575 11.4411 184.98 11.6436 185.486 11.7448C185.891 11.846 186.296 11.7448 186.701 11.6436C186.903 11.5423 187.106 11.4411 187.308 11.2386C187.41 11.1373 187.511 10.9348 187.612 10.8336C187.713 10.6311 187.713 10.5298 187.713 10.3273C187.713 10.0236 187.713 9.82108 187.612 9.61859C187.511 9.41609 187.41 9.31484 187.308 9.21359C187.207 9.11235 187.106 9.0111 187.005 8.90985C186.802 8.8086 186.701 8.70735 186.397 8.70735C186.093 8.6061 185.891 8.70735 185.587 8.70735C185.385 8.70735 185.182 8.8086 185.081 9.0111L184.98 9.11235C184.878 9.11235 184.878 9.11235 184.777 9.11235C184.575 9.11235 184.372 9.11235 184.17 9.21359C183.765 9.41609 183.461 9.71984 183.461 10.2261C183.562 10.4286 183.765 10.9348 184.271 11.2386Z" fill="white"/>
<path d="M85.86 2.02498C85.86 1.82249 85.86 1.72124 85.86 1.51874H85.9612C85.9612 1.51874 85.9612 1.61999 85.86 1.61999C85.9612 1.72124 85.9612 1.82249 85.86 2.02498ZM66.6228 24.9071C66.8253 25.3121 67.0278 25.6158 67.2303 26.0208C68.6477 28.552 70.2677 31.0832 71.8877 33.5132C69.964 30.6782 68.2428 27.8433 66.6228 24.9071ZM87.8849 0.911251C87.4799 0.405009 86.8724 0.101265 86.2649 1.63248e-05C85.9612 -0.101232 85.6575 1.63248e-05 85.3537 1.63248e-05C85.455 1.63248e-05 85.455 1.63248e-05 85.3537 1.63248e-05C85.2525 1.63248e-05 85.2525 1.63248e-05 85.1512 1.63248e-05C85.05 1.63248e-05 85.05 1.63248e-05 84.9487 1.63248e-05C84.9487 1.63248e-05 84.8475 1.63286e-05 84.8475 0.101265C84.7462 0.101265 84.645 0.202513 84.5437 0.303761L84.4425 0.405009C84.3412 0.506258 84.24 0.607506 84.1387 0.810003C83.835 1.51874 83.7337 2.22748 83.5312 2.93622C83.43 3.64495 83.2275 4.35369 83.1262 5.06243C82.9237 6.47991 82.8225 7.89738 82.7212 9.31486C82.5188 12.1498 82.62 15.086 82.7212 17.921C82.9237 23.6921 83.43 29.5645 82.8225 35.3357C82.8225 35.4369 82.8225 35.5382 82.8225 35.6394C82.62 36.7531 82.5188 37.9681 82.3163 39.0819C82.215 39.3856 82.215 39.7906 82.1138 40.0943C81.9113 40.9043 81.7088 41.6131 81.5063 42.423C81.405 42.7268 81.3038 43.0305 81.3038 43.3343C78.4688 39.9931 75.7351 36.4494 73.3052 32.8045C70.369 28.4508 67.7365 23.8946 65.3065 19.2372C63.9903 16.6047 62.7753 13.871 61.5604 11.1373C61.3579 10.6311 60.4466 10.4286 60.2441 11.0361C57.0042 21.0597 54.1692 31.1845 52.3468 41.5118C51.8405 44.448 51.3343 47.3842 51.0305 50.3204C50.9293 50.9279 51.9418 51.1304 52.043 50.5229C52.043 50.3204 52.1443 50.2192 52.1443 50.0167C52.9543 47.8905 53.3593 45.5617 53.8655 43.4355C54.473 41.0056 54.9792 38.5756 55.5867 36.1457C56.8017 31.387 58.1179 26.6283 59.6366 21.8696C60.1429 20.2497 60.6491 18.5285 61.2566 16.9085C61.3579 17.2122 61.4591 17.6172 61.6616 17.921C62.1679 19.2372 62.6741 20.5534 63.2816 21.8696C64.3953 24.4009 65.7115 26.9321 67.129 29.2608C69.964 34.1207 73.4064 38.6769 77.2538 42.9293C77.7601 43.5368 78.3676 44.1443 78.8738 44.6505C79.4813 45.258 80.19 45.8655 81.1013 46.068C81.3038 46.068 81.405 46.068 81.5063 46.068L81.6075 46.1692C82.1138 46.7767 83.1262 46.6755 83.2275 45.8655C83.5312 43.7393 83.835 41.6131 84.1387 39.4868C84.3412 38.5756 84.4425 37.7656 84.5437 36.8544C84.645 36.1457 84.7462 35.3357 84.7462 34.6269C85.05 32.5007 85.3537 30.2733 85.6575 28.147C86.0624 25.2108 86.5687 22.2746 86.4674 19.3384C86.2649 16.5035 85.5562 13.7698 85.6575 10.8336C85.7587 7.79613 86.4674 4.96118 87.6824 2.12623C87.7837 2.02498 87.7837 1.82249 87.7837 1.72124C88.0874 1.92373 88.0874 1.72124 88.0874 1.61999C88.0874 1.41749 88.0874 1.11375 87.8849 0.911251Z" fill="white"/>
<path d="M32.7581 40.8C32.7581 41.4667 32.4915 42.0933 31.9581 42.68C31.4248 43.24 30.8381 43.52 30.1981 43.52C29.4515 43.52 28.7715 43.32 28.1581 42.92C27.5448 42.4933 27.2381 41.96 27.2381 41.32C27.2381 40.3067 27.4248 39.56 27.7981 39.08C28.1981 38.6 28.7848 38.36 29.5581 38.36C30.4648 38.36 31.2248 38.5867 31.8381 39.04C32.4515 39.4667 32.7581 40.0533 32.7581 40.8Z" fill="white"/>
</g>
<defs>
<clipPath id="clip0_0_3941">
<rect width="217.785" height="73" fill="white"/>
</clipPath>
</defs>
</svg>
