<svg width="366" height="74" viewBox="0 0 366 74" fill="none" xmlns="http://www.w3.org/2000/svg">
<g clip-path="url(#clip0_0_3893)">
<path d="M15.3509 68.9623C12.9754 72.706 10.4173 66.0068 9.8691 64.2335C8.40729 59.7017 8.04184 54.7758 8.40729 50.047C10.6 53.1995 12.9754 56.155 14.62 59.7017C15.8991 62.2631 16.9954 66.2038 15.3509 68.9623ZM4.75278 24.0383C6.39731 25.6146 6.39731 28.5701 6.39731 30.9346C6.39731 34.0871 6.03186 37.2397 5.6664 40.3922C3.10824 35.0723 1.64643 29.1612 4.75278 24.0383ZM8.59002 45.1211C8.77274 43.7418 8.95547 42.3626 8.95547 40.7863C9.32092 36.6486 10.0518 32.5108 9.68637 28.3731C9.50365 25.2205 8.40729 21.8709 5.48368 20.6887C4.75278 20.2947 3.83915 20.4917 3.29097 21.2798C3.10824 21.6739 2.92552 22.068 3.10824 22.462C-1.64263 27.1909 0.00190193 35.6634 2.56006 41.1804C3.29097 42.7567 4.2046 44.3329 5.30095 45.9092C4.75278 53.1995 4.57005 60.6868 7.49366 67.5831C8.59002 70.1445 10.6 73.1001 13.5236 73.2971C16.9954 73.2971 19.1881 69.9475 19.3708 66.5979C20.1018 59.3076 14.0718 52.8054 10.0518 47.4855C9.68637 46.5003 9.1382 45.9092 8.59002 45.1211Z" fill="white"/>
<path d="M15.3509 68.9623C12.9754 72.706 10.4173 66.0068 9.8691 64.2335C8.40729 59.7017 8.04184 54.7758 8.40729 50.047C10.6 53.1995 12.9754 56.155 14.62 59.7017C15.8991 62.2631 16.9954 66.2038 15.3509 68.9623ZM4.75278 24.0383C6.39731 25.6146 6.39731 28.5701 6.39731 30.9346C6.39731 34.0871 6.03186 37.2397 5.6664 40.3922C3.10824 35.0723 1.64643 29.1612 4.75278 24.0383ZM8.59002 45.1211C8.77274 43.7418 8.95547 42.3626 8.95547 40.7863C9.32092 36.6486 10.0518 32.5108 9.68637 28.3731C9.50365 25.2205 8.40729 21.8709 5.48368 20.6887C4.75278 20.2947 3.83915 20.4917 3.29097 21.2798C3.10824 21.6739 2.92552 22.068 3.10824 22.462C-1.64263 27.1909 0.00190193 35.6634 2.56006 41.1804C3.29097 42.7567 4.2046 44.3329 5.30095 45.9092C4.75278 53.1995 4.57005 60.6868 7.49366 67.5831C8.59002 70.1445 10.6 73.1001 13.5236 73.2971C16.9954 73.2971 19.1881 69.9475 19.3708 66.5979C20.1018 59.3076 14.0718 52.8054 10.0518 47.4855C9.68637 46.5003 9.1382 45.9092 8.59002 45.1211Z" fill="white"/>
<path d="M70.351 12.6102C70.351 12.6102 70.5337 12.6102 70.351 12.6102C73.6401 12.8073 75.8328 16.1568 76.7464 19.3094C77.4773 21.6738 77.8428 24.0382 78.0255 26.4027C78.391 28.7671 78.3909 30.9345 78.2082 33.2989C77.66 37.2396 75.4673 40.5892 71.9955 41.9684C71.6301 42.1655 71.2646 42.1655 70.8992 42.3625C70.7165 34.4811 70.7165 26.5997 70.5337 18.7183C70.5337 16.945 70.5337 14.7776 70.351 12.6102ZM71.2646 65.0215C71.2646 63.6423 71.2646 62.066 71.2646 60.6868C71.2646 56.155 71.0819 51.8202 71.0819 47.2884C76.0155 46.8943 79.3046 42.3625 80.9491 37.6337C82.9591 31.9197 82.9591 25.6145 81.1318 19.9005C79.67 15.3687 76.5637 10.2458 71.8128 10.2458C71.4474 10.0488 70.8992 10.0488 70.5337 10.0488C70.5337 8.27544 70.351 6.30509 69.9856 4.53178C69.8028 3.74364 68.7065 3.5466 68.5238 4.53178C68.1583 6.50213 68.1583 8.47248 68.1583 10.2458C63.4074 11.428 60.1184 17.142 61.2147 22.2649C61.3974 22.659 61.7629 23.0531 62.1283 23.2501C62.4938 23.2501 63.042 23.0531 63.042 22.462V22.2649C63.042 22.462 63.2247 22.659 63.4074 22.856C63.7729 23.4471 64.5038 23.0531 64.3211 22.462C63.5902 20.2946 64.6865 17.7331 65.9656 16.1568C66.5138 15.3687 67.4274 14.5806 68.1583 13.9895C68.1583 15.1717 68.1583 16.1568 68.1583 17.3391C68.1583 21.4768 68.1583 25.8116 68.1583 29.9493C68.1583 34.2841 68.1583 38.8159 68.341 43.1507C67.7929 43.1507 67.2447 43.1507 66.6965 42.9536C65.7829 42.7566 65.052 42.3625 64.3211 41.7714C63.5902 41.1803 63.5902 40.3922 63.4074 39.407C63.2247 38.4218 62.1283 38.0277 61.3974 38.8159C60.4838 39.9981 60.8493 41.5744 61.5802 42.7566C62.1283 43.7418 63.042 44.5299 63.9556 45.121C64.3211 45.318 64.5038 45.5151 64.8692 45.7121C65.9656 46.5002 67.2447 47.0914 68.5238 47.2884C68.5238 49.8498 68.5238 52.4113 68.5238 54.9728C68.5238 59.7016 68.7065 64.4304 68.7065 69.3563C68.7065 69.9474 69.0719 70.5385 69.4374 70.9326C69.4374 71.1296 69.6201 71.3267 69.6201 71.5237C69.8028 72.1148 70.8992 72.7059 71.0819 71.7207C71.2646 71.1296 71.4474 70.7356 71.4474 70.1444C71.4474 69.7504 71.4474 69.1593 71.4474 68.7652C71.2646 67.1889 71.2646 66.2038 71.2646 65.0215Z" fill="white"/>
<path d="M214.156 62.8541C214.339 62.6571 214.339 62.4601 214.522 62.263C214.704 62.8542 214.887 63.4453 215.07 64.0364H214.887C214.522 63.6423 214.339 63.2482 214.156 62.8541ZM209.953 63.4453C207.212 65.6126 203.193 65.8097 201.365 62.4601C200.452 60.4897 200.269 58.1253 200.269 55.9579C200.452 53.0024 201 50.0469 201.548 47.2884C201.548 46.8943 201.548 46.6973 201.548 46.5002C202.096 45.5151 202.462 44.7269 203.193 43.9388C204.472 42.3625 206.299 40.9833 208.309 41.3773C209.588 41.5744 210.502 42.1655 211.415 43.1506C211.415 46.5002 211.232 49.6528 211.415 53.0024C211.415 54.5787 211.415 56.352 211.415 57.9283C211.415 59.1105 211.415 60.4897 211.598 61.869C211.05 62.263 210.502 62.8541 209.953 63.4453ZM173.408 67.386C173.225 67.1889 172.86 66.9919 172.86 66.9919C171.946 65.8097 171.581 64.0364 171.581 62.4601C171.581 57.9283 172.86 53.5935 175.235 49.8498C176.515 48.0765 178.159 46.3032 180.169 45.7121C180.535 45.7121 180.717 45.5151 181.083 45.5151C182.544 45.5151 183.824 46.1062 184.737 47.4854C184.737 47.4854 184.737 47.4854 184.737 47.6825C184.189 50.2439 183.458 52.8054 182.544 55.1698C181.814 57.3372 180.9 59.5046 179.804 61.4749C178.89 63.2482 177.794 65.2186 176.332 66.5978C175.784 67.1889 175.053 67.583 174.139 67.78C173.956 67.583 173.774 67.583 173.408 67.386ZM213.791 52.4113C213.791 51.4261 213.791 50.638 213.791 49.6528C213.791 50.2439 213.791 50.835 213.973 51.4261C213.791 51.8202 213.791 52.2143 213.791 52.4113C213.791 53.0024 213.791 53.5935 213.791 54.1846C213.791 54.3816 213.791 54.3816 213.791 54.5787C213.791 53.7905 213.791 53.1994 213.791 52.4113ZM231.332 62.6571C230.419 62.066 229.87 60.8838 229.505 59.7016C229.14 58.3223 228.957 56.7461 228.774 55.3668C228.591 53.7905 228.409 52.2143 228.409 50.638V50.2439C229.505 51.2291 230.967 51.2291 232.429 51.032C232.611 51.032 232.794 51.032 232.977 51.032C233.89 50.835 234.804 50.638 235.718 50.0469C236.631 49.6528 237.362 49.4558 238.276 49.0617C238.641 48.8647 239.19 48.6676 239.555 48.4706V48.6676C240.286 52.4113 239.555 56.549 237.545 59.7016C236.631 61.0808 235.352 62.4601 234.073 63.2482C233.16 63.2482 232.246 63.2482 231.332 62.6571ZM232.246 41.7714C234.073 41.1803 235.9 42.1655 237.18 43.5447C237.728 44.1358 238.093 44.7269 238.459 45.318C238.093 45.5151 237.91 45.7121 237.545 45.9091C236.814 46.3032 236.083 46.6973 235.17 46.8943C233.89 47.2884 232.794 47.8795 231.515 48.0765C231.332 48.0765 231.15 48.0765 230.967 48.0765C230.236 47.4854 230.053 46.5002 229.871 45.5151C230.053 44.924 230.236 44.3329 230.419 43.9388C230.601 43.3477 230.967 42.7566 231.515 42.3625C231.515 41.9684 231.88 41.9684 232.246 41.7714ZM160.983 24.2353C161.714 19.7035 162.445 15.3687 163.176 11.0339C163.176 14.9746 162.81 19.1124 162.079 23.0531C161.531 26.0086 160.8 29.1612 159.886 31.9196C160.252 29.1612 160.617 26.5997 160.983 24.2353ZM143.989 68.7652C143.441 68.7652 143.076 68.5682 142.893 67.9771C142.345 67.386 142.162 66.4008 142.162 65.4156C142.162 63.6423 143.441 62.066 144.72 60.6868C145.451 63.6423 145.451 66.4008 143.989 68.7652ZM101.78 65.2186C102.145 65.8097 102.693 66.4008 103.241 66.7949C103.059 66.7949 102.693 66.5978 102.511 66.4008C102.145 66.2037 101.962 65.8097 101.78 65.2186ZM119.504 44.1358C121.149 43.1506 123.341 43.9388 124.072 45.5151C125.169 48.0765 121.149 49.8498 119.504 50.4409C119.321 50.2439 118.956 50.0469 118.773 49.8498C117.859 49.6528 116.763 49.6528 115.85 49.6528C116.398 47.4854 117.677 45.318 119.504 44.1358ZM275.004 44.1358C275.552 43.9388 275.735 43.1506 275.552 42.7566C275.369 42.1655 274.821 41.7714 274.273 41.7714C271.897 41.7714 269.705 40.9833 268.243 39.0129C267.512 38.0277 265.868 38.2248 265.868 39.604C265.685 43.9388 265.319 48.2736 264.954 52.6083C264.771 54.5787 264.588 56.549 264.406 58.5194C264.223 59.5046 264.04 60.2927 263.675 61.0808C261.299 55.7609 259.838 50.0469 259.472 44.1358C259.472 42.7566 257.279 42.1655 256.914 43.5447C255.269 48.4706 253.625 53.5935 251.615 58.3223C250.336 52.0172 249.422 45.5151 248.874 38.8159C248.874 37.4366 246.499 37.0426 246.316 38.6188C246.133 40.5892 244.123 41.5744 242.844 42.5595C242.296 42.9536 241.748 43.3477 241.2 43.5447C240.469 41.9684 239.372 40.7862 237.91 39.604C236.449 38.4218 234.621 37.6337 232.794 38.0277C231.15 38.2248 229.87 39.2099 228.774 40.5892C228.591 40.7862 228.409 41.1803 228.226 41.3773L228.043 41.5744C227.312 41.1803 226.399 41.3773 226.216 42.3625C226.216 42.9536 226.033 43.5447 226.033 44.3329C224.754 48.8647 223.11 53.1994 221.282 57.3372C220.734 58.5194 220.186 59.5046 219.638 60.6868C219.272 61.2779 219.09 61.6719 218.724 62.263C218.359 62.263 218.176 62.4601 217.993 62.8541C217.811 62.263 217.628 61.869 217.445 61.2779V61.0808C217.262 59.1105 217.262 57.1401 217.08 55.1698C216.897 51.032 216.714 46.6973 216.532 42.5595C216.349 34.087 216.349 25.6145 216.532 17.142C216.714 12.4132 216.897 7.4873 216.897 2.75846C216.897 1.97032 216.166 1.57625 215.618 1.97032C215.252 1.97032 214.887 1.97032 214.887 2.56142C213.06 14.7776 212.146 27.3878 211.781 39.8011C211.415 39.604 211.05 39.407 210.684 39.2099C207.943 38.0277 204.837 38.8159 202.644 40.7862C200.634 42.7566 199.173 45.318 198.259 48.0765C197.893 48.0765 197.528 48.2736 197.163 48.8647C196.066 51.6232 195.153 54.3816 194.056 56.9431C192.96 59.5046 191.681 62.066 190.219 64.6275C190.036 65.0215 189.854 65.2186 189.488 65.4156C189.305 64.4304 189.123 63.0512 189.123 62.066C188.94 59.5046 188.757 56.9431 188.574 54.3816C188.94 52.6083 188.94 50.835 188.574 49.0617C188.574 46.6973 188.757 44.3329 188.94 41.9684C189.123 40.1951 186.199 39.407 186.016 41.3773C186.016 41.7714 186.016 42.1655 185.834 42.5595C185.651 43.1506 185.651 43.5447 185.468 44.1358C184.554 43.3477 183.458 42.7566 182.179 42.5595C179.438 42.1655 176.697 43.3477 174.687 45.318C173.591 46.3032 172.495 47.6825 171.764 49.0617C171.764 49.2587 171.581 49.2587 171.581 49.4558C171.398 49.6528 171.215 49.6528 171.033 50.0469C170.485 51.032 170.119 52.0172 169.754 53.1994C169.754 53.1994 169.754 53.3965 169.571 53.3965C169.571 53.5935 169.571 53.5935 169.571 53.7905C169.388 54.3816 169.205 54.9728 169.023 55.3668C167.378 59.1105 165.551 62.4601 163.176 65.8097C162.079 67.1889 159.704 70.9326 157.694 69.7504L157.511 69.5533C157.328 69.3563 157.328 69.3563 157.146 69.1593C156.963 68.9622 156.78 68.3711 156.78 67.9771C156.597 66.9919 156.415 65.8097 156.597 64.8245C156.78 61.4749 157.146 58.1253 157.328 54.7757C157.694 51.4261 157.876 48.0765 158.242 44.7269C158.242 43.9388 158.425 43.1506 158.425 42.3625C161.896 35.0722 164.272 27.1908 165.186 19.1124C165.734 13.2013 165.734 7.29027 164.82 1.37921C164.637 -0.197066 162.627 -0.197066 162.262 1.18218C159.521 14.3835 157.511 27.5849 155.867 40.9833C155.501 41.5744 155.136 42.3625 154.953 42.9536C153.308 46.1062 151.298 49.0617 149.106 51.8202C148.009 53.1994 146.913 54.5787 145.634 55.9579C145.451 56.155 145.086 56.352 144.903 56.7461C142.893 52.8054 140.335 49.2587 137.959 45.5151C137.411 44.5299 136.863 43.5447 136.132 42.5595C135.584 41.7714 134.122 41.9684 134.122 42.9536C133.757 46.3032 133.208 49.6528 132.112 53.0024C131.198 55.9579 130.102 58.9135 128.64 61.4749C126.265 65.4156 121.331 70.1444 116.946 66.7949C112.926 63.6423 113.109 57.9283 114.388 53.1994C115.85 53.5935 117.311 53.7905 118.773 53.5935C120.235 53.3965 121.697 52.8054 123.159 52.0172C124.438 51.2291 125.899 50.0469 126.265 48.4706C127.179 45.5151 124.803 42.7566 122.245 41.9684C119.321 40.9833 116.58 42.7566 114.936 45.318C114.022 46.6973 113.291 48.2736 112.743 49.8498C112.56 49.8498 112.378 49.8498 112.195 49.6528C112.012 49.4558 111.83 49.4558 111.464 49.2587C111.099 48.8647 110.368 48.8647 110.002 49.2587C109.637 49.2587 109.454 49.0617 109.089 49.0617C108.358 48.8647 107.261 49.0617 107.261 50.0469C107.261 52.8054 106.896 55.7609 106.53 58.5194C106.348 59.8986 105.982 61.2779 105.8 62.6571C105.617 63.4453 105.434 64.8245 104.886 65.2186C104.338 65.6126 103.79 64.6275 103.424 64.2334C102.693 63.0512 101.962 62.066 101.231 60.8838C100.501 59.8986 99.7696 58.7164 98.6733 58.1253C99.5869 55.1698 100.501 52.2143 101.049 49.2587C101.231 48.6676 101.414 48.0765 101.414 47.4854C101.414 46.8943 101.049 46.3032 100.501 46.1062C100.135 45.9091 99.4042 46.1062 99.2214 46.6973C99.0387 47.0914 99.0387 47.6825 98.856 48.0765C98.4905 48.6676 97.9424 49.0617 97.2115 49.4558C96.6633 49.4558 96.1151 49.6528 95.5669 49.6528C93.5569 49.2587 92.0951 47.2884 90.8161 45.9091C90.4506 45.318 89.3542 45.121 89.1715 46.1062C88.0752 49.4558 87.1615 53.0024 86.4306 56.549C86.2479 57.3372 85.8825 58.1253 85.6997 59.1105C85.6997 59.3075 85.6997 59.3075 85.517 59.5046C85.3343 57.5342 85.1515 55.5639 84.9688 53.3965C84.7861 52.0172 84.7861 50.835 84.6034 49.4558C84.4206 48.4706 84.2379 47.2884 83.507 46.5002C83.1416 46.1062 82.5934 45.9091 82.2279 45.7121C81.8625 45.5151 81.3143 45.318 80.7661 45.318C79.6698 45.318 78.9389 46.1062 78.208 47.0913C77.4771 48.2736 77.1116 49.6528 76.7462 51.032C76.3807 52.2143 76.0152 54.1846 76.9289 55.1698C77.1116 55.3668 77.4771 55.5639 77.8425 55.3668C78.208 54.9728 78.3907 54.5787 78.5734 53.9876C78.9389 53.9876 79.3043 53.7905 79.3043 53.1994C79.3043 52.6083 79.1216 51.8202 79.1216 51.032C79.3043 50.4409 79.487 50.0469 79.6698 49.4558C79.8525 48.8647 80.4007 47.8795 81.1316 47.8795C81.3143 47.8795 81.3143 47.8795 81.3143 47.8795C81.497 48.0765 81.6798 48.4706 81.6798 48.6676C81.8625 49.6528 82.0452 50.638 82.0452 51.6232C82.2279 52.8054 82.2279 53.9876 82.4107 55.1698C82.5934 57.5342 82.5934 59.8986 82.7761 62.263C82.7761 63.6423 82.7761 65.0215 82.7761 66.2037C82.7761 66.7948 82.7761 67.583 82.7761 68.1741C82.7761 68.9622 82.5934 69.7504 83.1416 70.3415C83.507 70.7355 84.0552 70.9326 84.6034 70.7355C84.9688 70.5385 85.1515 69.9474 85.1515 69.5533C85.517 69.5533 86.0652 69.3563 86.0652 68.7652C86.4306 66.5978 86.7961 64.4304 87.1615 62.263C87.3443 61.4749 87.527 60.6868 87.8924 59.7016C88.8061 56.7461 89.7197 53.9876 90.6333 51.032C92.826 52.2143 95.3842 52.8054 97.7596 52.4113C97.2115 54.3816 96.4806 56.549 95.9324 58.5194C95.7497 58.7164 95.5669 58.9135 95.5669 59.1105C95.2015 59.7016 94.836 60.4897 94.4706 61.2779C93.9224 62.066 93.5569 62.8541 93.1915 63.6423C92.4606 65.2186 92.0951 66.9919 92.0951 68.5682C92.0951 69.7504 93.7397 70.5385 94.2878 69.3563C95.3842 66.9919 96.2978 64.6275 97.2115 62.263H97.3942C98.1251 62.4601 98.6733 63.6423 98.856 64.4304C99.2214 65.6126 99.4042 66.7949 99.9524 67.78C101.231 70.1444 103.972 70.5385 106.165 69.1593C108.358 67.583 108.906 64.6275 109.454 62.066C110.185 59.1105 110.733 55.9579 111.464 53.0024C111.647 53.0024 111.83 53.0024 112.012 53.1994C111.83 53.9876 111.647 54.7757 111.464 55.7609C110.916 59.3075 111.281 63.0512 113.109 66.2037C114.753 68.9622 117.494 70.9326 120.6 71.1296C123.524 71.1296 126.265 69.3563 128.275 67.1889C130.833 64.4304 132.478 60.8838 133.757 57.1401C134.853 53.9876 135.767 50.638 136.132 47.2884C137.046 48.6676 137.777 50.0469 138.69 51.4261C139.969 53.5935 141.431 55.5639 142.528 57.9283C142.71 58.3223 142.893 58.7164 143.076 59.1105C142.71 59.5046 142.162 59.8986 141.797 60.4897C140.7 61.869 139.604 63.4453 139.238 65.2186C138.873 66.7948 139.238 68.5682 139.969 69.9474C140.7 71.3267 141.979 72.5089 143.624 72.5089C143.989 72.5089 144.355 72.5089 144.72 72.3118C145.268 72.1148 145.451 71.7207 145.817 71.1296C146.365 70.3415 146.547 69.5533 146.913 68.5682C147.644 65.6126 147.096 62.6571 145.999 59.8986C149.288 56.549 152.212 53.0024 154.77 48.8647L154.953 48.6676C154.77 51.0321 154.587 53.1994 154.222 55.5639C154.039 57.3372 153.857 59.1105 153.857 60.8838C153.674 62.4601 153.491 64.0364 153.491 65.6126C153.491 67.9771 153.857 70.9326 155.867 72.5089C158.425 74.4792 161.166 72.7059 163.176 70.5385C165.003 68.3711 166.465 66.2037 167.926 63.6423C167.926 64.6275 168.109 65.8097 168.475 66.7949C169.023 68.9622 170.302 71.1296 172.312 72.1148C174.687 73.297 177.245 72.3118 179.073 70.5385C181.083 68.7652 182.91 66.4008 184.372 64.0364C184.372 64.6275 184.372 65.2186 184.554 65.8097C184.737 67.386 185.285 69.1593 186.747 69.9474C187.478 70.3415 188.209 70.3415 188.757 70.1444C189.305 70.3415 190.036 70.1444 190.767 69.7504C191.864 68.9622 192.594 67.386 193.325 66.0067C193.873 65.0215 194.422 64.0364 194.97 63.0512C195.518 62.066 196.249 60.8838 196.797 59.8986C197.163 59.3075 197.528 58.5194 197.711 57.9283C197.711 59.8986 197.893 62.066 198.624 63.8393C199.538 66.2037 201.183 67.9771 203.375 68.7652C205.568 69.5533 207.761 69.1593 209.771 68.1741C210.867 67.583 211.781 66.9919 212.512 66.0067C213.425 67.386 214.887 68.1741 216.714 67.9771C219.455 67.78 221.1 65.4156 222.561 63.0512C223.658 61.2779 224.571 59.3075 225.485 57.3372C225.485 59.3075 225.668 61.0808 226.399 62.8541C227.312 65.2186 229.505 67.386 232.063 67.78C232.794 67.78 233.525 67.78 234.256 67.583C235.352 67.583 236.631 67.1889 237.545 66.5978C240.469 65.0215 241.93 61.6719 242.661 58.3223C243.21 55.1698 243.21 51.6232 242.296 48.2736C243.758 47.2884 245.219 46.3032 246.499 45.318C247.047 51.6232 248.143 57.9283 249.605 64.0364C249.97 65.4156 251.615 66.0067 252.163 64.6275C254.173 60.4897 255.818 56.155 257.279 51.8202C258.193 56.7461 259.838 61.2779 262.213 65.6126C262.761 66.5978 263.858 66.9919 264.588 66.2037C267.147 63.2482 267.147 58.9135 267.512 55.1698C267.878 51.6232 268.06 48.0765 268.426 44.3329C270.253 44.1358 272.628 44.7269 275.004 44.1358Z" fill="white"/>
<path d="M333.476 12.8073C333.659 13.0043 333.842 13.2013 334.207 13.2013C334.39 13.3984 334.756 13.3984 334.938 13.3984C335.486 13.3984 336.217 13.3984 336.766 13.0043C337.131 12.6102 337.496 12.2161 337.679 11.625C337.862 11.231 337.862 10.8369 337.679 10.4428C337.679 10.2458 337.496 9.85173 337.496 9.65469C337.131 8.86655 336.583 8.27545 335.852 8.07841C335.669 8.07841 335.304 8.07841 335.121 8.07841C334.756 7.68434 334.39 7.68434 333.842 7.88138C333.294 8.07841 333.111 8.66952 332.746 9.06359C332.746 9.26062 332.563 9.45766 332.563 9.65469C332.38 10.0488 332.38 10.4428 332.563 10.8369C332.563 11.625 332.928 12.2161 333.476 12.8073Z" fill="white"/>
<path d="M353.208 40.1952H353.39C352.111 42.5596 349.919 44.3329 347.909 45.9092C346.812 46.6973 345.716 47.2884 344.619 47.8795C344.985 47.2884 345.35 46.5003 345.899 45.9092C347.178 44.1359 348.639 42.5596 350.284 41.1803C351.198 40.7863 352.294 40.3922 353.208 40.1952ZM283.406 50.638C282.675 52.6084 281.944 54.3817 281.214 56.352C280.665 57.7313 279.752 59.3076 278.473 59.5046C277.194 59.8987 276.828 58.9135 276.463 57.7313C276.28 56.155 276.28 54.3817 276.645 52.8054C277.194 49.2588 278.655 45.9092 280.665 43.1507C281.579 41.7714 283.041 40.1952 284.868 40.1952C285.964 40.1952 286.878 41.5744 286.513 42.5596C286.33 42.7566 286.513 43.1507 286.513 43.3477C285.416 45.9092 284.503 48.2736 283.406 50.638ZM364.171 45.9092C363.075 46.6973 362.527 47.6825 361.613 48.8647C360.882 49.8499 359.968 50.8351 359.055 51.8202C357.41 53.5936 355.583 55.1698 353.573 56.5491C351.563 58.1254 349.37 59.5046 346.995 60.2927C345.168 60.8839 342.609 60.6868 341.696 58.9135C340.965 57.5343 341.33 55.958 341.696 54.3817C346.629 53.0024 351.38 49.6529 354.852 45.7122C355.766 44.727 357.045 43.3477 357.41 41.9685C357.776 40.5892 357.228 39.21 356.314 38.4219C356.314 38.2248 356.131 38.2248 356.131 38.0278C355.218 36.8456 353.756 36.6485 352.477 36.8456C350.832 37.2396 349.37 38.0278 347.909 39.21C342.792 42.1655 339.686 48.0766 338.407 53.9876C338.041 54.5787 337.859 55.1698 337.493 55.958C336.945 57.1402 336.397 58.5194 335.666 59.7016C335.483 60.0957 335.3 60.4898 335.118 61.0809C334.935 60.6868 334.57 60.0957 334.57 59.7016C334.021 58.1254 334.021 56.352 333.839 54.5787C333.473 50.244 333.473 45.9092 333.656 41.5744C333.656 40.7863 333.108 39.9981 332.377 39.9981C331.646 39.8011 330.915 40.3922 330.915 41.1803C330.732 45.121 330.367 49.0617 329.636 52.8054C329.088 55.5639 328.722 59.3076 326.164 60.6868C325.616 60.8838 325.068 61.2779 324.337 61.0809C323.971 61.0809 323.423 60.8839 323.241 60.4898C322.327 59.5046 322.144 58.1254 322.144 56.9431C321.779 53.7906 322.144 50.8351 322.144 47.6825C322.144 44.1359 321.596 40.5892 319.403 37.8308C318.855 37.2396 317.759 36.8456 317.211 37.6337C314.652 41.9685 312.825 46.8944 311.546 51.8202C311.546 50.8351 311.546 49.8499 311.546 48.8647C311.546 46.5003 311.546 44.1359 311.363 41.7715C311.363 39.6041 311.181 37.4367 309.902 35.6634C309.353 34.8752 308.257 34.6782 307.709 35.4663C303.872 40.7863 302.592 47.4855 300.034 53.3965C299.486 54.7758 298.755 56.155 298.024 57.3372C297.293 58.5194 296.197 59.8987 294.918 60.2927C293.822 60.6868 293.273 59.8987 292.908 58.7165C292.36 56.9431 292.177 55.1698 291.812 53.3965C291.081 48.8647 290.715 44.3329 290.715 39.6041C290.715 38.2248 288.705 37.0426 287.974 38.6189C287.792 39.013 287.609 39.407 287.609 39.8011C287.426 39.407 287.061 39.21 286.878 38.8159C285.416 37.2396 283.224 37.4367 281.396 38.4219C279.569 39.407 278.29 41.1803 277.194 42.9537C276.097 44.727 275.184 46.6973 274.453 48.8647C273.905 51.0321 273.539 53.1995 273.539 55.3669C273.539 57.5343 273.722 59.7016 275.366 61.2779C277.011 62.8542 279.204 62.6572 281.031 61.475C282.675 60.2927 283.589 57.9283 284.32 55.958C285.599 52.6084 286.878 49.2588 288.34 45.9092C288.523 48.0766 288.705 50.244 289.071 52.2143C289.436 54.1847 289.619 56.352 290.167 58.3224C290.715 60.2927 291.446 62.0661 293.273 62.6572C296.745 64.0364 299.486 60.2927 301.131 57.5343C302.775 54.3817 304.054 51.0321 305.151 47.4855C306.064 44.727 307.161 41.7714 308.622 39.21C308.805 40.1952 308.622 41.1803 308.622 41.9685C308.622 44.3329 308.622 46.5003 308.805 48.8647C308.805 53.3965 308.988 57.9283 308.988 62.6572C308.988 63.4453 309.353 64.0364 310.084 64.2334C310.632 64.4305 311.546 64.2334 311.729 63.4453C313.373 55.7609 315.018 47.8795 318.49 40.9833C319.403 42.9537 319.403 45.3181 319.403 47.6825C319.403 51.0321 319.038 54.3817 319.586 57.7313C319.951 59.5046 320.5 61.2779 321.779 62.4601C323.058 63.6423 324.702 63.8394 326.347 63.4453C328.357 62.8542 329.636 61.475 330.55 59.5046C330.732 60.2927 330.915 61.2779 331.28 62.0661C331.829 63.2483 332.377 64.6275 333.656 65.4157C334.204 65.8097 334.935 65.8097 335.666 65.4157C336.031 65.2186 336.214 65.0216 336.397 64.6275C336.762 64.6275 337.128 64.2334 337.31 63.8394C337.493 63.4453 337.493 63.2483 337.31 62.8542C337.676 62.0661 338.041 61.2779 338.59 60.4898C339.138 61.475 339.686 62.0661 340.599 62.6572C342.975 64.2334 346.081 64.0364 348.639 63.4453C351.929 62.6572 355.218 60.6868 357.776 58.3224C360.517 55.7609 363.075 52.8054 365.267 49.8499C365.633 49.4558 365.633 49.0617 365.45 48.6677C365.633 48.2736 365.816 47.6825 365.998 47.2884C366.181 46.3033 365.085 45.121 364.171 45.9092Z" fill="white"/>
<path d="M135.218 38.0278C136.314 37.4367 137.41 36.8456 138.507 36.4515C139.603 36.0574 140.699 35.6634 141.43 34.6782C141.796 34.0871 141.796 33.496 141.248 33.2989C140.151 32.5108 138.324 33.1019 137.045 33.89C135.583 34.4811 134.487 35.4663 133.208 36.4515C131.746 37.8307 133.756 39.013 135.218 38.0278Z" fill="white"/>
</g>
<defs>
<clipPath id="clip0_0_3893">
<rect width="366" height="73.1" fill="white"/>
</clipPath>
</defs>
</svg>
