<svg width="490" height="103" viewBox="0 0 490 103" fill="none" xmlns="http://www.w3.org/2000/svg">
<g clip-path="url(#clip0_7_910)">
<path d="M44.2877 7.52437C45.9589 6.85554 47.463 6.18671 49.1342 5.68508C49.9698 5.35067 50.8054 5.18346 51.641 5.01625C51.9752 4.84905 52.4766 4.84905 52.8108 4.68184C53.3122 4.51463 53.8136 4.51463 54.1478 4.18021C54.6492 3.8458 54.4821 3.00976 53.8136 2.84255C52.8108 2.50814 51.8081 2.84255 50.8054 3.00976C49.9698 3.17697 49.1342 3.51138 48.2986 3.67859C46.4602 4.34742 44.789 5.01625 43.2849 5.85229C42.2822 6.52112 43.452 7.85879 44.2877 7.52437Z" fill="white"/>
<path d="M58.3251 14.7143C58.6594 12.3734 59.1607 10.0325 59.9964 7.69155C60.4977 6.52109 60.9991 5.51785 61.8347 4.5146C62.1689 4.01298 62.5032 3.67856 63.0045 3.17694C63.3388 2.84252 64.0073 2.00648 64.6758 2.00648C66.1799 1.83928 64.1744 7.35713 63.8401 8.02596C62.8374 10.3669 61.6676 12.875 60.1635 15.0487C59.495 16.2191 58.6594 17.3896 57.8238 18.5601C57.9909 17.3896 58.158 16.0519 58.3251 14.7143ZM29.4131 22.4058C30.7501 20.2321 33.2569 18.7273 36.098 18.3928C36.5994 19.7305 35.4295 21.0682 34.5939 22.0714C33.424 23.4091 32.2542 24.7467 31.0843 25.9172C30.2487 26.7532 29.5803 27.4221 28.7446 28.0909C28.0762 26.2516 28.2433 24.2451 29.4131 22.4058ZM19.0516 46.3165C19.0516 48.4902 19.0516 50.8312 18.7174 53.0049C18.3831 54.6769 17.5475 56.6834 15.3749 57.0178C12.8681 57.3523 11.1969 55.1786 10.6955 53.1721C10.027 50.8312 11.0298 48.323 12.1996 46.3165C14.038 43.474 16.5448 40.9659 19.2187 38.625C19.2187 41.3003 19.2187 43.8084 19.0516 46.3165ZM70.6921 33.4415C71.6949 34.4448 73.5332 35.2808 75.0373 34.2776C76.3743 33.4415 76.5414 31.9367 75.3715 30.9334C74.5359 30.2646 73.3661 31.1006 73.8674 31.9367C73.8674 32.1039 73.7003 32.2711 73.5332 32.2711C73.1989 32.4383 73.0318 32.2711 72.8647 32.1039C72.1962 31.6023 71.862 30.599 71.5277 29.9302C70.6921 28.0909 70.3579 25.9172 70.525 23.9107C70.525 23.0747 69.0209 22.0714 68.3524 23.0747C67.0155 25.0812 65.6785 27.0877 63.8401 28.7597C63.0045 29.5958 62.0018 30.4318 60.832 30.9334C60.1635 31.2678 58.3251 32.2711 57.8238 31.6023C57.4895 31.2678 57.4895 30.7662 57.4895 30.2646C57.4895 29.4286 57.4895 28.7597 57.4895 27.9237C57.4895 26.4188 57.6567 24.914 57.6567 23.5763C57.6567 23.2419 57.6567 22.9075 57.6567 22.573C59.495 20.2321 61.1662 17.8912 62.6703 15.5503C64.3415 12.875 65.6785 10.0325 66.6812 7.02272C67.3497 5.18343 68.6867 1.50486 66.0127 0.167197C63.1717 -1.17046 60.6648 2.50811 59.495 4.34739C57.9909 6.85551 57.1553 9.53083 56.6539 12.3734C55.9854 15.5503 55.6512 18.8945 55.4841 22.0714C53.8129 24.0779 52.1416 26.2516 50.6376 28.2581C50.4704 27.5893 50.3033 26.9204 49.9691 26.2516C48.7992 23.2419 47.6294 20.3993 46.4595 17.5568C46.1253 16.888 44.9554 16.888 44.7883 17.724C43.7856 22.4058 40.6103 26.586 36.4322 29.4286C35.4295 30.0974 34.2597 30.9334 32.9227 31.4351C31.2515 32.1039 30.2487 31.1006 29.5803 29.9302C31.4186 28.4253 33.0898 26.7532 34.5939 24.9139C36.098 23.4091 38.1034 21.4026 38.1034 19.2289C38.1034 18.3928 37.6021 17.2224 36.7665 16.888C35.9309 16.5536 34.2597 17.2224 33.5912 17.3896C29.0789 18.8945 26.5721 23.0747 27.0734 27.2549C27.0734 27.7565 27.2406 28.4253 27.5748 29.0941C26.0707 30.4318 24.3995 31.7695 22.8954 33.1071C22.394 33.4415 22.0598 33.9432 21.5584 34.2776C21.7255 26.7532 21.8927 19.2289 22.0598 11.8717C22.0598 11.2029 21.2242 10.5341 20.5557 10.8685C17.7146 12.2062 14.7064 12.3734 11.6983 11.3701C11.1969 11.2029 10.6955 11.3701 10.5284 11.7045C9.52569 14.2127 9.35856 16.888 10.027 19.3961C10.1942 19.8977 11.0298 19.8977 11.0298 19.3961C10.6955 17.2224 11.1969 15.0487 12.0325 13.0422C14.5393 13.8782 17.3804 13.8782 19.8872 13.0422C19.7201 20.7338 19.3858 28.4253 19.3858 36.1169C17.8818 37.4545 16.3777 38.7922 15.0407 40.2971C12.701 42.638 10.3613 45.4805 9.69281 48.6575C9.02432 51.3328 9.19144 54.3425 11.5311 56.5162C13.3695 58.1883 16.2105 58.3555 18.216 56.8506C20.3886 55.1786 20.8899 52.6704 21.0571 50.3295C21.3913 46.4838 21.3913 42.638 21.3913 38.625C21.3913 37.9562 21.3913 37.2873 21.3913 36.6185C21.8927 36.1169 22.5612 35.7825 23.0625 35.2808C24.9009 33.776 26.5721 32.2711 28.4104 30.7662C29.0789 31.7695 29.9145 32.6055 30.9172 32.9399C32.2542 33.2743 33.424 32.7727 34.5939 32.2711C35.7638 31.6023 36.9336 30.9334 38.1034 30.0974C41.613 27.4221 44.1198 24.0779 45.6239 20.2321C46.1253 21.4026 46.4595 22.7402 46.9609 23.9107C47.6294 25.75 48.7992 27.7565 48.6321 29.5958C48.6321 31.2678 47.2951 32.6055 45.2897 32.2711C43.6185 31.9367 43.1171 30.0974 43.6185 28.7597C43.9527 27.9237 42.4486 27.0877 41.9472 27.9237C40.7774 29.763 41.2788 32.1039 43.2842 33.2743C45.1225 34.4448 47.9636 34.1104 49.4677 32.6055C50.1362 31.9367 50.4704 31.1006 50.4704 30.0974C51.9745 28.4253 53.4786 26.9204 54.9827 25.0812C54.9827 25.9172 54.9827 26.7532 54.9827 27.5893C54.9827 28.9269 54.8156 30.4318 55.317 31.6023C56.821 34.7792 61.3333 32.7727 63.5059 31.1006C65.1771 29.763 66.6812 28.2581 67.8511 26.586C68.0182 27.0877 68.0182 27.5893 68.1853 28.0909C68.8538 30.2646 69.5223 32.1039 70.6921 33.4415Z" fill="white"/>
<path d="M71.3615 20.2321C71.8629 20.2321 72.1971 20.2321 72.5314 19.8977C72.6985 19.7305 72.6985 19.5633 72.6985 19.3961C72.6985 19.2289 72.6985 19.0617 72.5314 18.8945C72.5314 18.8945 72.5314 18.7273 72.3643 18.7273C72.3643 18.5601 72.1971 18.3929 72.03 18.3929C72.03 18.3929 72.03 18.3929 71.8629 18.2257C71.6958 18.0584 71.5286 18.0584 71.3615 17.8912H71.1944C71.0273 17.8912 71.0273 17.8912 71.0273 17.8912C70.8602 17.8912 70.693 17.8912 70.5259 18.0584C70.5259 18.0584 70.5259 18.0584 70.3588 18.0584L70.1917 18.2257C70.1917 18.2257 70.1917 18.3929 70.0245 18.3929C70.0245 18.3929 70.0245 18.5601 69.8574 18.5601C70.1917 18.5601 70.1917 18.7273 70.1917 18.8945C70.1917 19.0617 70.1917 19.2289 70.3588 19.3961C70.5259 19.8977 70.8602 20.2321 71.3615 20.2321Z" fill="white"/>
<path d="M122.835 23.9107C125.676 23.7435 127.347 26.0844 127.347 28.4253C127.347 29.5958 127.013 30.7662 126.344 31.9367C125.843 32.9399 124.506 34.7792 123.002 34.2776C121.832 33.9432 120.662 32.4383 120.161 31.6022C119.492 30.4318 118.991 29.0941 118.991 27.7565C119.158 26.9204 119.325 26.2516 119.659 25.5828C120.495 24.5795 121.665 23.9107 122.835 23.9107ZM99.4378 32.6055C100.44 31.2678 101.443 29.763 102.446 28.2581C103.114 27.2548 103.616 26.2516 104.117 25.4156C104.284 29.9302 103.783 34.4448 103.282 38.9594C102.947 41.4675 102.78 43.9756 102.446 46.4837C102.279 48.9919 101.777 51.6672 102.112 54.1753C102.112 54.8441 103.449 55.0113 103.449 54.1753C103.616 52.8376 103.616 51.5 103.616 50.1623C103.616 48.8246 103.783 47.6542 103.95 46.3165C104.117 43.8084 104.451 41.1331 104.786 38.625C104.953 37.1201 105.12 35.448 105.287 33.9432C105.287 33.9432 105.287 33.9432 105.287 33.7759C105.621 32.1039 106.29 30.2646 106.791 28.5925C107.46 27.0876 107.961 25.4156 109.131 24.0779C109.632 23.5763 110.301 22.9074 111.136 23.0746C111.972 23.2419 112.139 24.2451 111.972 24.9139C111.805 25.75 111.303 26.586 110.969 27.422C110.635 28.2581 110.301 29.0941 109.966 29.9302C109.465 31.2678 108.629 33.1071 108.797 34.612C108.964 35.9496 110.134 36.7857 111.638 36.1169C112.306 35.7824 112.807 35.1136 113.309 34.612C113.977 33.9432 114.646 33.1071 115.314 32.4383C116.15 31.435 116.986 30.599 117.821 29.5958C118.322 31.6022 119.492 33.2743 121.164 34.612C122.166 35.448 123.67 36.1169 125.007 35.6152C126.344 35.1136 127.347 33.7759 128.016 32.6055C129.352 30.2646 129.687 27.2548 128.35 24.7467C127.013 22.4058 124.005 21.2354 121.331 21.9042C118.657 22.573 116.484 25.2483 116.986 27.5893C115.147 29.763 113.309 31.9367 111.303 33.9432C111.303 33.9432 110.635 34.612 110.468 34.4448C110.468 34.4448 110.468 33.9432 110.468 33.7759C110.635 32.9399 110.802 32.2711 111.136 31.435C111.638 30.0974 112.139 28.7597 112.807 27.422C113.643 25.5828 114.646 22.7402 112.139 21.5698C109.799 20.3993 107.794 22.573 106.958 24.4123C106.457 25.5828 105.955 26.586 105.454 27.7565C105.454 26.2516 105.454 24.5795 105.287 23.0746C105.287 22.573 104.284 22.4058 104.117 22.9074C103.616 24.4123 102.613 25.9172 101.777 27.422C100.942 28.9269 99.9391 30.4318 98.9364 31.9367C98.6022 32.6055 99.1035 32.9399 99.4378 32.6055Z" fill="white"/>
<path d="M232.633 21.9042C233.135 21.2354 233.803 20.5665 234.639 20.2321C235.641 19.7305 236.31 20.5665 236.31 21.4026C236.31 22.2386 235.809 23.0746 235.14 23.7435C234.472 24.5795 233.636 25.4156 232.967 26.2516C231.965 27.4221 230.962 28.5925 229.959 29.763C229.959 26.7532 230.962 23.9107 232.633 21.9042ZM221.603 50.3295C221.603 50.9983 221.102 55.8474 219.431 54.6769C218.762 54.1753 218.428 53.0048 218.261 52.1688C218.094 51.1656 218.094 50.1623 218.261 49.3263C218.595 47.3198 219.765 45.4805 220.935 43.9756C221.269 43.474 221.603 43.1396 221.937 42.638C222.105 45.1461 221.937 47.6542 221.603 50.3295ZM177.817 20.9009C178.82 20.7337 179.823 21.2354 180.324 21.9042C180.826 22.9074 179.656 23.4091 178.82 23.5763C177.483 23.9107 175.979 24.0779 174.475 24.2451C174.308 24.2451 174.141 24.2451 173.974 24.4123C174.809 23.0746 175.979 21.2354 177.817 20.9009ZM270.57 35.448C270.403 34.612 268.397 34.1104 268.397 35.448C268.397 36.7857 266.893 38.4578 265.389 37.4545C264.721 36.9529 264.386 36.1169 264.052 35.448C263.551 34.612 263.049 33.9432 262.214 33.4415C261.378 32.7727 260.208 32.2711 258.871 32.1039C260.375 29.2613 261.712 26.4188 263.216 23.7435C263.551 23.0746 262.715 22.2386 261.879 22.4058C260.208 22.573 258.37 22.573 256.699 22.7402C255.362 22.9074 254.025 22.9074 252.855 23.5763C251.017 24.7467 250.348 26.7532 250.181 28.5925C249.345 25.75 247.507 23.0746 245.334 20.9009C244.833 20.3993 243.998 20.3993 243.663 21.0682C243.162 22.0714 242.995 23.0746 242.493 24.0779C241.992 25.0811 241.491 25.9172 240.989 26.9204C240.154 28.5925 239.318 30.4318 238.315 32.1039C237.48 33.4415 236.143 34.9464 234.304 34.7792C232.466 34.7792 230.962 33.4415 230.294 31.9367C231.296 30.7662 232.299 29.5958 233.302 28.2581C234.639 26.7532 236.31 25.0811 237.313 23.4091C238.148 22.0714 238.148 20.3993 236.978 19.2289C233.97 16.3863 230.461 21.2354 229.291 23.4091C228.121 25.75 227.452 28.7597 228.288 31.435C227.118 32.9399 225.948 34.2776 224.779 35.7824C224.444 36.2841 224.11 36.7857 223.609 37.1201C223.442 35.1136 223.274 33.2743 223.107 31.2678C222.94 30.0974 222.773 28.9269 222.606 27.9237C222.439 26.7532 222.272 25.5828 222.105 24.4123C221.937 23.5763 220.433 23.2419 220.099 24.0779C218.762 27.422 216.757 30.4318 214.25 33.1071C214.083 33.2743 214.083 33.4415 214.083 33.6087C213.749 33.9432 213.581 34.1104 213.08 34.1104C211.91 34.2776 211.91 33.2743 211.743 32.4383C211.242 29.9302 210.907 27.2548 210.406 24.7467C210.239 23.5763 208.233 23.7435 208.401 24.9139C208.735 28.2581 206.897 31.6022 203.888 33.6087C203.554 33.7759 203.22 34.1104 202.719 34.2776C202.719 34.2776 202.384 34.4448 202.217 34.4448L202.05 34.2776C201.716 33.4415 201.883 32.2711 201.883 31.435C201.883 30.2646 201.883 29.0941 201.716 28.0909C201.716 26.9204 201.716 25.9172 201.382 24.7467C201.214 24.0779 200.379 24.0779 200.045 24.5795C199.877 24.5795 199.877 24.5795 199.71 24.5795C197.371 25.2483 194.697 25.2484 192.357 24.4123C191.521 24.0779 190.853 24.9139 191.354 25.5828C193.36 27.5893 195.532 30.4318 194.195 33.2743C193.193 35.448 190.017 37.2873 187.845 35.1136C186.341 33.6087 186.341 31.2678 186.508 29.4285C187.009 28.4253 187.343 27.5893 187.678 26.586C188.68 23.7435 189.349 20.7337 189.85 17.724C190.519 14.2126 191.02 10.5341 190.519 7.0227C190.519 6.35387 189.182 6.01945 189.015 6.85549C188.012 10.8685 187.176 14.7143 186.508 18.7272C186.006 22.0714 185.338 25.4156 185.171 28.7597C184.502 30.2646 183.5 31.7695 182.163 32.9399C180.491 34.4448 177.985 35.6152 175.645 34.9464C173.639 34.4448 172.804 32.6055 172.637 30.9334C172.47 29.763 172.804 28.4253 173.138 27.2548C173.974 27.0876 174.809 27.0876 175.645 26.9204C177.149 26.7532 178.653 26.586 180.157 26.0844C182.497 25.2484 182.664 22.9074 180.993 21.4026C179.322 19.8977 176.815 19.8977 174.976 21.2354C173.639 22.4058 172.637 23.9107 172.135 25.5828C171.3 25.75 170.464 25.9172 169.628 26.0844C169.294 26.0844 169.127 26.4188 169.127 26.7532C168.96 29.4285 168.291 32.2711 167.122 34.7792C166.453 36.4513 164.782 35.9496 163.612 34.7792C162.776 33.9432 162.275 33.1071 161.272 32.4383C160.437 31.9367 159.601 31.7695 158.598 31.7695C160.437 29.5958 162.108 27.2548 163.612 24.7467C164.113 24.0779 163.278 23.4091 162.609 23.5763C159.434 24.2451 156.259 24.0779 153.251 22.9074C152.916 22.7402 152.415 22.7402 152.248 23.0746C150.744 25.4156 149.741 27.7565 149.073 30.2646C148.738 28.0909 148.571 25.9172 148.237 23.7435C148.07 23.0746 147.234 22.9074 146.733 23.4091C143.558 26.2516 140.716 29.763 139.379 33.7759L139.212 33.9432C138.544 34.7792 137.374 35.9496 136.037 35.7824C134.867 35.6152 134.7 34.2776 134.533 33.6087C134.366 32.2711 134.366 30.9334 134.366 29.4285C134.366 27.9237 134.366 26.4188 134.366 24.9139C134.366 23.7435 134.366 22.573 134.533 21.2354C134.867 21.2354 135.201 21.2354 135.369 21.4026C136.538 21.5698 137.541 21.737 138.711 21.9042C139.881 22.2386 140.884 22.573 142.053 22.7402C142.555 22.9074 143.056 22.573 143.056 22.0714C143.223 21.5698 142.889 21.2354 142.388 21.0682C141.218 20.5665 140.048 20.2321 138.711 20.0649C137.541 19.8977 136.371 19.5633 135.201 19.5633C134.867 19.5633 134.7 19.5633 134.366 19.5633C134.533 15.2159 134.7 10.8685 134.7 6.52108C134.7 5.68504 133.363 5.35062 133.196 6.35387C132.695 10.7013 132.36 15.2159 132.193 19.7305C130.856 19.7305 129.519 19.8977 128.015 20.2321C127.18 20.3993 127.514 21.4026 128.182 21.2354C129.519 21.2354 130.689 21.2354 132.026 21.2354C132.026 23.5763 131.859 26.0844 132.026 28.4253C132.026 30.0974 132.026 31.7695 132.193 33.4415C132.36 34.612 132.695 35.9496 133.53 36.7857C134.533 37.7889 136.037 38.1233 137.374 37.7889C138.878 37.4545 140.048 36.2841 140.716 34.9464C140.884 34.612 140.716 34.1104 140.382 33.9432C142.221 30.9334 144.226 28.0909 146.733 25.5828C147.234 29.0941 147.568 32.7727 148.07 36.2841C148.237 37.1201 149.741 37.2873 149.741 36.2841C149.908 32.1039 151.078 28.0909 153.251 24.4123C155.757 25.2484 158.431 25.4156 161.105 25.2484C159.601 27.5893 157.93 29.9302 156.259 32.2711C155.089 32.2711 153.919 33.4415 153.752 35.1136C153.752 35.6152 154.588 35.9496 154.922 35.6152C155.924 34.612 156.76 33.4415 157.763 32.4383C158.097 32.2711 158.598 32.2711 158.933 32.2711C161.607 32.2711 162.108 34.7792 164.113 35.9496C164.949 36.4513 165.952 36.7857 166.955 36.4513C167.957 36.1169 168.459 35.2808 168.793 34.4448C169.796 32.1039 170.464 29.5958 170.965 27.0876C171.133 27.0876 171.467 27.0876 171.634 26.9204C171.133 28.7597 171.133 30.9334 171.968 32.6055C172.971 34.612 175.143 35.7824 177.483 35.7824C180.993 35.7824 183.5 33.7759 185.338 31.435C185.505 33.4415 186.173 35.448 188.179 36.6185C190.853 38.1233 194.195 36.7857 195.699 34.4448C197.371 31.9367 196.201 28.9269 194.53 26.586C196.201 26.9204 198.039 27.0876 199.877 26.7532C199.877 27.0876 199.877 27.5893 199.877 27.9237C199.877 29.0941 199.877 30.0974 199.877 31.2678C199.877 32.7727 199.543 35.1136 201.047 36.1169C202.719 37.1201 204.891 35.6152 206.228 34.612C207.398 33.6087 208.401 32.2711 209.236 30.9334C209.403 31.6022 209.403 32.2711 209.57 32.9399C209.738 33.6087 209.738 34.2776 210.239 34.9464C211.075 36.1169 212.579 36.6185 214.083 36.1169C214.751 35.9496 215.42 35.448 215.921 34.9464C216.088 34.7792 216.255 34.4448 216.422 34.1104C216.422 33.9432 216.422 33.7759 216.422 33.6087C218.261 31.7695 219.598 29.763 220.768 27.5893V27.7565C220.935 28.9269 221.102 29.9302 221.269 31.1006C221.603 33.2743 221.77 35.448 221.937 37.7889C221.937 38.2906 221.937 38.9594 221.937 39.461C220.266 41.4675 218.762 43.6412 217.592 45.9821C216.088 48.8246 215.587 52.5032 217.759 55.3457C218.595 56.5162 220.099 56.8506 221.102 55.8474C222.272 54.8441 222.439 53.3393 222.773 51.8344C223.442 48.1558 223.776 44.31 223.609 40.6315C223.943 40.1298 224.444 39.6282 224.779 39.1266C226.116 37.2873 227.62 35.448 229.124 33.7759C229.124 33.9432 229.291 33.9432 229.291 34.1104C230.294 35.6152 232.132 36.6185 234.137 36.6185C236.143 36.6185 237.647 35.6152 238.817 34.2776C240.154 32.6055 240.989 30.599 241.992 28.7597C242.493 27.5893 243.162 26.586 243.663 25.4156C243.998 24.5795 244.499 23.9107 244.833 23.2419C246.504 25.4156 247.674 27.7565 248.176 30.2646C248.343 31.6022 248.51 33.2743 247.507 34.4448C246.671 35.2808 245.334 35.9496 244.165 35.2808C242.995 34.612 241.992 36.4513 243.162 36.9529C244.833 37.7889 246.839 37.7889 248.343 36.7857C250.014 35.6152 250.682 33.7759 250.682 31.9367C250.682 31.2678 250.515 30.4318 250.515 29.763C250.849 30.0974 251.518 30.0974 251.518 29.5958C251.685 27.9237 252.521 25.75 254.359 25.0811C255.529 24.5795 257.033 24.7467 258.203 24.7467C258.871 24.7467 259.54 24.7467 260.208 24.7467C258.704 27.5893 257.033 30.599 255.529 33.4415C254.693 34.1104 254.192 34.9464 254.192 35.9496C254.192 36.9529 255.863 37.7889 256.532 36.6185C256.866 36.1169 257.033 35.448 257.367 34.9464C258.036 34.612 259.038 34.4448 259.874 34.9464C261.545 35.7824 261.879 37.6217 263.049 38.9594C264.219 40.1298 266.392 40.6315 268.063 39.9626C270.068 38.7922 271.071 37.1201 270.57 35.448Z" fill="white"/>
<path d="M220.601 14.3799C220.768 14.5471 220.935 14.7143 221.102 14.8815C221.269 14.8815 221.269 15.0487 221.436 15.0487C221.603 15.2159 221.938 15.2159 222.105 15.2159C222.272 15.2159 222.439 15.2159 222.606 15.0487C222.773 15.0487 222.94 14.8815 222.94 14.7143C223.108 14.5471 223.108 14.3799 223.108 14.2127C223.108 14.0455 223.108 13.8783 223.108 13.711C223.108 13.5438 223.108 13.5438 222.94 13.3766C222.773 13.2094 222.606 13.0422 222.439 12.875C222.272 12.875 222.272 12.7078 222.105 12.7078C221.938 12.5406 221.603 12.5406 221.436 12.5406C221.269 12.5406 221.102 12.5406 220.935 12.7078C220.768 12.7078 220.601 12.875 220.601 13.0422C220.434 13.2094 220.434 13.3766 220.434 13.5438C220.434 13.711 220.434 13.8782 220.434 14.0455C220.434 14.2127 220.601 14.2127 220.601 14.3799Z" fill="white"/>
<path d="M328.394 38.7922C328.059 41.4676 327.892 43.9757 327.558 46.651C327.391 47.8214 327.224 49.1591 327.224 50.3296C327.057 51.6672 326.89 53.0049 326.89 54.1753C326.89 54.8442 328.394 55.1786 328.561 54.5098C328.895 53.3393 328.895 52.0016 329.062 50.8312C329.229 49.4935 329.396 48.1559 329.396 46.9854C329.731 44.3101 329.898 41.802 330.232 39.1266C330.399 38.1234 330.399 37.1201 330.566 35.9497C330.9 36.1169 331.402 35.9497 331.402 35.6153C331.903 33.1072 332.739 30.599 334.076 28.2581C334.577 27.4221 337.92 21.9042 339.256 22.9075C340.426 23.7435 339.089 25.75 338.588 26.7533C337.92 28.0909 337.251 29.5958 336.583 30.9335C335.58 32.94 333.407 36.4513 336.917 37.6218C338.421 38.1234 340.092 37.1201 341.095 36.2841C342.098 35.4481 343.602 34.1104 343.769 32.7727C343.769 32.1039 342.766 31.4351 342.098 31.9367C341.596 32.2711 341.262 32.7727 340.761 33.2744C340.259 33.776 339.925 34.2776 339.424 34.612C338.922 34.9464 338.421 35.2809 337.752 35.6153C337.084 35.9497 337.084 35.1137 337.251 34.612C337.418 33.9432 337.752 33.2744 338.087 32.6055C338.421 31.7695 338.755 31.1007 339.089 30.2646C339.758 28.927 340.426 27.4221 341.095 26.0844C341.596 24.914 341.93 23.4091 341.262 22.2387C340.593 21.2354 339.424 20.5666 338.087 20.901C336.75 21.2354 335.914 22.4059 335.078 23.4091C334.243 24.4124 333.407 25.5828 332.739 26.7533C332.07 27.9237 331.569 29.0942 331.068 30.2646C331.235 27.9237 331.569 25.5828 331.736 23.2419C331.903 22.4059 330.566 21.9042 329.898 22.5731C327.224 25.75 325.051 28.927 323.046 32.4383C323.046 31.1007 322.711 29.763 322.21 28.5926C321.207 26.2516 319.536 24.0779 319.369 21.5698C319.369 20.901 318.199 20.065 317.531 20.901C316.027 23.0747 314.69 25.0812 313.186 27.2549C312.183 28.5925 311.18 29.9302 310.01 31.1007C309.843 27.9237 308.84 24.7468 306.835 22.0714C305.999 20.901 304.161 22.0714 304.997 23.2419C307.671 26.7533 308.339 31.2679 307.002 35.4481C305.331 34.7792 304.161 33.2744 303.325 31.9367C301.988 29.763 301.153 27.2549 300.317 24.914C299.983 24.0779 298.479 24.2451 298.312 25.0812C297.643 28.4253 296.808 31.6023 295.972 34.7792C293.967 31.4351 293.632 27.2549 293.465 23.5763C293.465 22.7403 291.794 22.0714 291.627 23.0747C290.29 27.5893 288.619 31.9367 286.948 36.2841C286.613 37.1201 287.95 37.6218 288.452 36.7857C289.956 34.1104 291.126 31.2679 292.128 28.4253C292.63 31.6023 293.465 34.7792 295.805 37.4546C296.139 37.9562 297.309 37.9562 297.643 37.2874C298.479 34.4448 299.314 31.6023 299.983 28.5926C301.487 32.4383 303.493 36.7857 308.172 37.6218C308.673 37.789 309.175 37.4546 309.342 36.9529C310.01 35.4481 310.344 33.9432 310.344 32.4383C312.35 31.6023 313.687 29.9302 314.857 28.2581C316.027 26.7533 317.196 25.0812 318.199 23.5763C318.533 24.5796 319.035 25.5828 319.536 26.5861C320.372 28.2581 321.375 30.0974 321.207 32.1039C321.207 33.4416 320.372 35.1137 318.868 35.4481C317.865 35.7825 316.361 35.4481 316.194 34.2776C315.86 32.94 313.52 32.94 313.854 34.4448C314.188 36.2841 316.194 37.4546 318.032 37.4546C320.205 37.6218 322.043 36.2841 322.879 34.4448C323.046 34.1104 323.213 33.776 323.213 33.2744C323.547 33.4416 323.881 33.4416 324.048 33.2744C325.887 30.7663 327.725 28.2581 329.731 25.75C329.396 30.599 328.895 34.7792 328.394 38.7922Z" fill="white"/>
<path d="M350.788 29.9302C350.12 30.9334 349.284 31.9367 348.449 32.9399C348.114 33.4416 347.613 33.776 347.112 34.2776C347.112 34.2776 346.777 34.4448 346.61 34.612V34.4448C346.109 32.2711 346.61 30.0974 347.78 28.0909C348.783 26.4188 350.955 24.2451 353.462 24.7468C352.627 26.4188 351.791 28.2581 350.788 29.9302ZM360.314 33.1072C360.314 32.9399 360.147 32.9399 360.147 32.7727C359.98 32.4383 359.646 32.1039 359.479 31.6023C358.977 30.7662 358.476 29.9302 358.142 28.927C357.306 27.2549 356.638 25.4156 356.136 23.5763C355.969 23.0747 355.635 22.7403 354.966 22.5731C354.632 22.5731 354.131 22.5731 353.964 22.9075C351.457 22.0714 348.95 23.0747 347.279 24.914C345.608 26.586 344.605 28.927 344.271 31.1007C344.103 32.9399 344.103 36.7857 347.112 36.4513C348.449 36.2841 349.284 35.2809 350.12 34.4448C350.955 33.6088 351.791 32.6055 352.46 31.6023C353.462 30.2646 354.298 28.7597 354.966 27.4221C355.635 29.0942 356.303 30.599 357.139 32.1039C357.807 33.2744 358.309 34.7792 359.646 35.4481C361.15 36.1169 362.821 34.612 361.651 33.2744C361.15 33.1072 360.648 32.9399 360.314 33.1072Z" fill="white"/>
<path d="M398.418 30.7662C398.585 30.2646 398.752 29.763 398.92 29.4286C399.254 28.5925 399.588 27.5893 400.257 26.9205C401.259 25.75 403.098 24.4123 404.769 24.914C404.1 26.4188 403.265 27.7565 402.262 29.0942C401.594 29.9302 400.925 30.599 400.257 31.2679C399.922 31.6023 399.588 31.9367 399.254 32.1039C398.92 32.2711 398.585 32.7727 398.251 32.2711C397.917 31.7695 398.251 31.1006 398.418 30.7662ZM396.246 33.776C396.413 33.6088 396.58 33.4416 396.58 33.2744C397.081 33.776 397.583 34.2776 398.418 34.2776C399.588 34.4448 400.424 33.6088 401.259 32.9399C402.095 32.2711 402.763 31.6023 403.599 30.7662C404.267 29.9302 404.936 29.0942 405.604 28.0909C406.106 29.5958 406.774 30.9334 407.944 32.1039C408.947 33.1071 410.117 33.9432 411.788 34.1104C413.292 34.1104 414.629 33.6088 415.297 32.2711C415.966 30.9334 413.626 30.0974 412.791 31.2679C412.456 31.7695 411.621 31.7695 411.119 31.6023C410.284 31.2679 409.615 30.599 409.114 29.9302C407.944 28.4253 407.276 26.4188 407.443 24.5795C407.443 23.9107 406.44 23.2419 405.939 23.5763C404.1 22.7403 401.928 23.0747 400.424 24.2451C398.752 25.5828 397.75 27.4221 397.081 29.2614C396.747 30.2646 396.246 31.2679 396.58 32.2711C396.246 32.1039 395.911 31.9367 395.577 32.1039C394.073 32.4383 392.736 31.6023 392.235 30.2646C391.566 28.4253 392.235 26.2516 392.235 24.4123C392.235 23.5763 390.731 22.5731 390.062 23.5763C388.391 26.0844 386.887 28.7597 385.049 31.2679C383.712 33.1071 381.372 34.4448 379.199 32.9399C377.027 31.4351 377.194 28.9269 378.364 26.9205C379.032 25.75 380.035 24.7468 381.205 24.0779C382.04 23.5763 383.879 22.7403 384.547 23.9107C385.049 24.7468 386.72 24.5795 386.385 23.5763C386.051 22.4058 384.881 21.5698 383.544 21.2354C382.04 20.901 380.703 21.5698 379.534 22.2386C379.366 22.4058 379.199 22.4058 379.199 22.5731C378.865 22.0714 377.862 21.737 377.194 22.2386C376.358 23.0747 374.687 22.9075 373.517 22.9075C372.18 22.9075 370.509 23.0747 369.506 23.9107C368.838 24.4123 368.503 25.2484 368.336 26.0844C368.169 25.2484 368.002 24.4123 367.835 23.5763C367.334 22.0714 365.997 20.5666 363.991 21.0682C362.153 21.5698 362.487 23.4091 362.988 24.7468C363.156 25.2484 364.325 25.0812 364.158 24.5795C363.991 24.0779 363.824 23.4091 364.158 22.9075C364.325 22.4058 364.994 22.2386 365.495 22.5731C365.997 22.9075 366.164 23.5763 366.331 24.0779C366.498 24.914 366.665 25.5828 366.665 26.4188C366.999 29.5958 366.999 32.7727 366.331 35.7825C366.164 36.7857 367.835 37.1201 368.169 36.1169C368.671 34.1104 369.005 31.9367 369.506 29.9302C369.673 28.9269 370.008 27.9237 370.175 26.7532C370.342 26.0844 370.509 25.2484 371.345 24.914C372.514 24.4123 374.186 24.7468 375.355 24.914C375.857 24.914 376.525 24.914 377.027 24.914C376.024 26.0844 375.355 27.5893 375.188 29.0942C375.021 31.6023 376.525 33.9432 378.865 35.2808C381.539 36.6185 384.213 35.9497 386.218 33.9432C387.388 32.7727 388.224 31.4351 389.059 30.0974C389.227 29.763 389.561 29.4286 389.728 28.9269C389.728 29.9302 389.895 31.1006 390.564 31.9367C391.232 33.6088 394.073 35.2808 396.246 33.776Z" fill="white"/>
<path d="M392.568 17.8912C392.735 18.0584 392.902 18.0584 392.902 18.2256C393.069 18.3928 393.236 18.3928 393.403 18.3928H393.738C393.905 18.3928 394.072 18.3928 394.406 18.2256L394.573 18.0584C394.74 17.8912 394.74 17.724 394.74 17.5568C394.74 17.3896 394.74 17.0552 394.74 16.888C394.74 16.7208 394.74 16.7208 394.74 16.5535C394.74 16.5535 394.74 16.3863 394.74 16.2191C394.74 16.0519 394.74 16.0519 394.573 15.8847C394.573 15.7175 394.406 15.7175 394.239 15.5503C394.239 15.5503 394.072 15.3831 393.905 15.3831C393.738 15.2159 393.57 15.2159 393.403 15.2159C393.236 15.2159 393.236 15.2159 393.069 15.2159C392.902 15.2159 392.902 15.2159 392.735 15.2159C392.568 15.2159 392.401 15.3831 392.401 15.3831C392.234 15.5503 392.234 15.5503 392.234 15.7175C392.234 15.8847 392.234 16.0519 392.066 16.2191V16.3863C392.066 16.5535 392.066 16.7208 392.066 16.888C392.066 17.0552 392.066 17.2224 392.066 17.3896C392.401 17.5568 392.401 17.724 392.568 17.8912Z" fill="white"/>
<path d="M422.483 40.4643C422.818 40.6315 423.319 40.4643 423.653 40.2971C423.987 40.1299 424.322 39.7955 424.656 39.461C425.659 38.4578 426.16 36.9529 426.494 35.4481C426.661 33.9432 426.327 32.2711 425.492 30.9334C424.99 30.0974 423.653 30.4318 423.987 31.4351C424.489 32.6055 424.322 33.9432 424.155 35.1136C423.82 36.2841 423.152 37.4545 422.483 38.4578C422.316 38.7922 422.149 39.1266 421.982 39.461C421.815 39.9627 422.149 40.2971 422.483 40.4643Z" fill="white"/>
<path d="M25.2359 76.0796C24.7345 76.7484 24.2331 77.5844 23.5646 78.2533C23.0633 78.7549 22.5619 79.5909 21.7263 79.7581C20.3893 80.0925 19.888 78.2533 20.0551 77.4172C20.3893 75.9124 21.7263 74.4075 23.0633 73.4042C24.066 72.5682 25.5701 71.5649 27.0742 71.5649C26.74 73.237 26.0715 74.7419 25.2359 76.0796ZM31.9207 79.0893C31.9207 78.9221 31.7536 78.9221 31.7536 78.7549C31.5865 78.4205 31.4193 78.0861 31.2522 77.7516C30.918 77.0828 30.5837 76.414 30.4166 75.7451C29.9153 74.4075 29.581 73.0698 29.4139 71.5649C29.7481 71.2305 29.7481 70.7289 29.2468 70.3945C27.0742 69.224 24.4002 69.5585 22.3948 71.0633C21.3921 71.7322 20.5565 72.5682 19.888 73.4042C19.2195 74.2403 18.3839 75.2435 18.0496 76.2468C17.5483 77.4172 17.7154 78.7549 18.3839 79.9253C18.0496 79.5909 17.3811 79.5909 17.0469 79.9253C16.3784 80.5942 16.2113 81.5974 15.0415 81.7646C14.2058 81.9318 13.2031 81.4302 13.036 80.5942C12.7018 79.4237 13.5374 78.0861 14.2058 77.0828C14.8743 75.9124 15.5428 74.7419 16.2113 73.5714C16.7127 72.5682 16.7127 71.3977 16.2113 70.3945C15.7099 69.3912 14.5401 68.8896 13.3702 69.0568C11.0305 69.3912 9.52644 72.0666 8.69084 73.9059C8.18947 74.9091 7.85523 76.0796 7.68811 77.25C7.52099 75.7451 7.18674 74.0731 6.8525 72.5682C6.68538 71.8994 5.51553 71.5649 5.18129 72.401C4.5128 73.9059 3.67719 75.5779 2.84159 77.0828C1.67174 78.5877 0.669009 80.0925 0.000523556 81.5974C-0.333719 82.2662 0.836131 82.9351 1.33749 82.2663C2.67447 81.0958 3.34295 79.2565 4.17856 77.9188C4.5128 77.0828 5.01417 76.414 5.34841 75.5779C6.51826 81.5974 6.68538 87.6169 6.35114 93.6364C6.35114 94.6396 8.18947 94.974 8.18947 93.9708C8.35659 89.4562 8.18947 85.1088 7.68811 80.7614C8.35659 78.9221 8.85796 76.9156 9.69357 75.2435C10.1949 74.2403 10.8634 73.237 11.5319 72.401C12.0333 71.8994 13.2031 70.3945 14.0387 71.0633C15.0414 71.8994 13.8716 73.4042 13.5374 74.0731C12.8689 75.2435 12.2004 76.414 11.5319 77.4172C11.0305 78.4205 10.5292 79.7581 10.8634 80.9286C11.1977 81.9318 12.0333 82.7679 13.036 83.2695C14.2058 83.7711 15.7099 83.7711 16.8798 83.2695C17.3812 82.9351 17.8825 82.6007 18.2168 82.099C18.551 81.4302 18.7181 80.9286 18.551 80.2598C19.0524 80.7614 19.5537 81.263 20.3893 81.5974C22.8962 82.6007 24.9016 80.427 26.0715 78.7549C26.74 77.7516 27.4084 76.7484 27.9098 75.7451C28.244 76.9156 28.5783 77.9188 29.0796 79.0893C29.581 80.0925 30.4166 82.099 32.0878 81.4302C33.4248 80.9286 32.9234 79.4237 31.9207 79.0893Z" fill="white"/>
<path d="M66.8478 79.2565C66.8478 79.0893 66.6807 79.2565 66.8478 79.2565C66.5135 79.0893 66.5136 78.7549 66.3464 78.5877C66.0122 77.5844 65.8451 76.7484 65.5108 75.7451C65.0095 73.9059 64.6752 72.0666 64.1739 70.2273C64.0067 69.224 62.5026 69.224 62.1684 70.2273C61.667 72.2338 60.8314 74.2403 59.9958 76.0796C59.4945 76.9156 59.1602 77.9188 58.6588 78.7549C58.1575 79.5909 57.489 79.5909 56.8205 78.7549C55.9849 77.5844 55.8178 76.0796 55.4835 74.7419C54.9822 73.237 54.3137 71.8994 52.9767 70.8961C52.4754 70.5617 51.6397 70.5617 51.3055 71.0633C50.3028 72.401 49.4672 73.7387 48.7987 75.2435C48.6316 74.9091 48.6316 74.4075 48.4644 74.0731C47.9631 72.401 46.9603 70.2273 44.7878 69.8929C42.4481 69.3912 41.6125 72.0666 40.944 73.5714C40.6097 74.2403 40.4426 74.9091 40.1084 75.7451C39.7741 74.7419 39.4399 73.9059 39.1056 72.9026C38.6043 71.3977 37.1002 69.7257 35.0947 70.2273C33.7578 70.5617 34.7605 72.2338 35.9303 71.8994C36.7659 71.7322 37.4344 74.7419 37.6015 75.2435C38.1029 76.9156 38.6043 78.5877 39.1056 80.2598C39.4399 81.0958 41.1111 81.5974 41.2782 80.2598C41.2782 78.5877 41.6125 76.9156 42.2809 75.4107C42.6152 74.5747 42.9494 73.9059 43.4508 73.0698C43.6179 72.9026 43.9522 72.2338 44.1193 72.0666C44.4535 71.8994 44.4535 72.0666 44.6206 72.2338C45.6234 73.237 45.7905 74.7419 46.1247 76.0796C46.459 77.4172 46.7932 78.9221 47.4617 80.0925C47.9631 81.0958 49.8014 81.0958 49.9685 79.9253C50.3028 77.5844 51.1384 75.4107 52.4754 73.4042C53.1438 74.4075 53.311 75.9124 53.6452 77.0828C54.1466 78.9221 55.1493 80.9286 57.3219 81.4302C59.9958 82.099 61.1657 79.5909 62.0013 77.7516C62.5026 76.7484 62.8369 75.5779 63.1711 74.5747C63.1711 74.7419 63.1711 74.9091 63.3382 75.0763C63.6725 76.5812 64.0067 78.0861 64.5081 79.5909C65.0095 80.5942 66.0122 81.5974 67.5163 81.263C68.8533 80.9286 69.3546 79.7581 68.519 78.9221C68.0176 78.4205 66.8478 78.4205 66.8478 79.2565Z" fill="white"/>
<path d="M62.0011 61.0308L62.1682 61.3653C62.1682 61.5325 62.3354 61.6997 62.5025 61.6997C62.6696 61.8669 62.8367 61.8669 62.8367 62.0341C63.0038 62.0341 63.171 62.2013 63.3381 62.2013C63.5052 62.2013 63.6723 62.2013 63.8394 62.2013C64.0066 62.2013 64.0066 62.2013 64.1737 62.0341C64.3408 61.8669 64.5079 61.6997 64.5079 61.5325C64.5079 61.3652 64.5079 61.3652 64.5079 61.198C64.5079 61.0308 64.5079 60.8636 64.3408 60.6964C64.3408 60.5292 64.1737 60.5292 64.1737 60.362C64.1737 60.362 64.1737 60.1948 64.0066 60.1948L63.8394 60.0276L63.6723 59.8604C63.5052 59.8604 63.5052 59.6932 63.3381 59.6932C63.171 59.6932 63.171 59.6932 63.0038 59.6932C62.8367 59.6932 62.8367 59.6932 62.6696 59.6932C62.5025 59.6932 62.3353 59.6932 62.3353 59.8604C62.1682 59.8604 62.1682 59.8604 62.1682 60.0276L62.0011 60.1948L61.834 60.362C61.834 60.5292 61.834 60.6964 61.834 60.6964C61.834 60.6964 61.834 60.6964 62.0011 61.0308C62.0011 60.8636 62.0011 61.0308 62.0011 61.0308Z" fill="white"/>
<path d="M81.388 71.5649C80.051 72.2338 78.3798 72.5682 76.8757 72.9026C75.5387 73.0698 74.2017 73.237 72.8648 73.237C73.5332 72.0666 74.7031 71.0633 75.873 70.5617C77.2099 69.8929 78.714 69.7256 80.2181 69.8929C80.7195 69.8929 81.7222 70.0601 81.8893 70.5617C82.2236 70.8961 81.7222 71.2305 81.388 71.5649ZM80.8866 68.0536C77.7113 67.3847 74.0346 68.388 71.862 70.7289C69.8566 72.7354 69.1881 76.0795 70.8593 78.4205C71.862 79.9253 73.7004 81.0958 75.7058 81.263C74.0346 83.6039 73.0319 86.2792 72.8648 88.9545C72.8648 90.4594 73.0319 92.2987 74.536 93.3019C76.5414 94.4724 78.5469 93.3019 79.7167 91.7971C80.5523 90.6266 78.714 89.6234 77.7113 90.4594C77.377 90.6266 76.3743 91.6299 75.873 91.4627C75.5387 91.4627 75.5387 90.961 75.5387 90.6266C75.2045 89.4562 75.3716 88.1185 75.7058 86.948C76.2072 84.4399 77.5442 82.2662 79.5496 80.4269C80.5523 79.5909 78.714 78.4205 77.8784 78.9221C75.7058 79.9253 73.0319 78.5877 72.3634 76.5812C72.1963 75.9123 72.1963 75.2435 72.3634 74.5747C75.7058 75.0763 79.5496 74.7419 82.5578 73.4042C83.8948 72.7354 84.8975 71.5649 84.3961 70.2273C83.7277 69.0568 82.2236 68.2208 80.8866 68.0536Z" fill="white"/>
<path d="M99.6051 71.8994C98.6024 71.5649 97.2654 71.7322 96.0956 71.7322C94.9257 71.7322 93.923 71.7322 92.7531 71.8994C92.586 71.8994 92.2518 71.8994 92.0846 71.8994C92.7531 66.8831 93.923 61.8669 92.0846 57.0179C91.7504 56.349 90.2463 56.5162 90.5806 57.3523C91.7504 62.2013 90.4134 67.2175 89.7449 72.0666C88.5751 72.0666 87.4052 72.2338 86.2354 72.2338C85.734 72.2338 85.3998 72.7354 85.5669 73.0698C85.734 73.5714 86.2354 73.7386 86.7368 73.7386C87.7395 73.7386 88.5751 73.7386 89.5778 73.9059C89.5778 74.5747 89.4107 75.2435 89.4107 75.7451C89.2436 78.2533 89.4107 81.4302 92.586 82.2662C95.5942 83.1023 98.6024 80.5942 100.106 78.4205C100.608 77.7516 99.7722 76.7484 98.7695 77.0828C97.4325 77.5844 96.5969 78.5877 95.4271 79.4237C94.7586 79.9253 93.2545 80.7614 92.4189 79.9253C91.7504 79.2565 91.7504 77.7516 91.7504 76.9156C91.7504 75.9123 91.9175 75.0763 91.9175 74.0731C92.4189 74.0731 92.7531 74.0731 93.2545 74.0731C94.2572 74.0731 95.4271 74.0731 96.4298 74.0731C96.9312 74.0731 97.4325 74.0731 97.9339 74.0731C98.6024 74.0731 99.2709 74.0731 99.7722 73.9059C100.608 73.4042 100.441 72.2338 99.6051 71.8994Z" fill="white"/>
<path d="M122.835 92.2987C122.835 93.4692 122.667 94.6396 122.667 95.8101C122.667 96.8133 122.667 97.9838 122.333 98.987C122.166 99.6559 121.832 100.492 120.996 100.826C120.161 101.161 119.826 100.492 119.492 99.8231C118.824 97.9838 118.824 95.8101 119.158 93.9708C119.659 90.9611 121.163 88.4529 123.169 86.112C123.002 88.1185 123.002 90.125 122.835 92.2987ZM108.629 76.414C107.627 77.0828 106.624 77.7516 105.454 78.0861C105.12 78.2533 104.451 78.4205 103.95 78.4205C103.616 78.4205 103.783 78.4205 103.616 78.0861C103.616 77.9189 103.783 77.5844 103.783 77.25C104.953 73.9059 108.462 71.8994 112.306 71.7322C111.47 73.5715 110.3 75.2435 108.629 76.414ZM129.687 71.7322C129.352 74.5747 127.681 77.0828 125.843 79.2565C125.843 76.9156 126.01 74.4075 126.177 72.0666C126.177 70.8961 124.673 70.3945 123.837 71.2305C122.5 72.401 121.33 73.5715 119.994 74.7419C119.158 75.5779 117.821 77.4172 116.317 77.5844C115.314 77.7516 115.147 76.2468 115.147 75.5779C115.147 74.0731 115.314 72.7354 114.646 71.2305C114.646 70.8961 114.479 70.7289 114.144 70.5617C109.799 68.8896 104.618 71.2305 102.446 74.7419C101.443 76.414 100.44 79.4237 103.114 80.0926C105.287 80.7614 108.128 79.2565 109.799 78.0861C110.802 77.4172 111.805 76.5812 112.473 75.5779C112.473 75.9124 112.473 76.414 112.64 76.7484C113.142 78.2533 114.311 79.5909 116.15 79.7581C118.155 79.9253 119.659 78.4205 120.829 77.25C121.665 76.414 122.5 75.5779 123.336 74.7419C123.336 77.0828 123.169 79.4237 123.169 81.9318C122.835 82.2663 122.5 82.6007 122.333 82.9351C119.158 86.4464 116.651 90.2922 116.317 94.8068C116.15 96.8133 116.317 99.3214 117.32 101.161C118.322 102.833 120.495 103.502 122.5 102.498C124.506 101.328 124.84 99.1542 124.84 97.1477C125.007 94.4724 125.174 91.9643 125.341 89.289C125.509 87.2825 125.509 85.1088 125.676 83.1023C128.684 79.9253 132.026 76.414 132.193 72.0666C132.36 70.7289 130.021 70.2273 129.687 71.7322Z" fill="white"/>
<path d="M128.183 59.8604L128.016 59.6932L127.849 59.526C127.681 59.3588 127.514 59.3588 127.347 59.1916C127.18 59.0244 127.013 59.0244 126.846 59.0244C126.679 59.0244 126.679 59.0244 126.512 59.0244C126.345 59.0244 126.177 59.0244 126.01 59.1916C125.843 59.1916 125.843 59.3588 125.676 59.3588C125.509 59.526 125.509 59.526 125.342 59.6932C125.342 59.8604 125.342 59.8604 125.342 60.0276C125.342 60.1948 125.342 60.5292 125.509 60.6964C125.676 60.8636 125.676 61.0308 125.843 61.1981L126.01 61.3653C126.177 61.5325 126.345 61.6997 126.345 61.8669C126.512 62.0341 126.679 62.2013 126.846 62.2013C127.013 62.3685 127.18 62.3685 127.347 62.3685C127.514 62.3685 127.681 62.3685 127.849 62.3685C128.016 62.3685 128.183 62.3685 128.35 62.2013L128.517 62.0341C128.684 61.8669 128.684 61.6997 128.684 61.5325C128.684 61.3653 128.684 61.3653 128.684 61.1981C128.684 61.0308 128.517 60.8636 128.35 60.5292C128.517 60.1948 128.35 60.0276 128.183 59.8604Z" fill="white"/>
<path d="M143.39 83.7711C143.891 83.6039 144.226 83.4367 144.393 82.9351C144.56 82.6006 144.894 82.099 145.061 81.7646C145.395 80.9286 145.562 80.0925 145.73 79.2565C146.064 77.7516 146.231 75.7451 145.562 74.2403C145.395 73.7386 144.393 73.5714 144.226 74.2403C143.891 74.9091 143.891 75.7451 143.891 76.414C143.724 77.0828 143.724 77.9188 143.557 78.5877C143.39 79.2565 143.056 80.0925 142.889 80.7614C142.721 81.0958 142.721 81.4302 142.554 81.7646C142.387 82.2662 142.22 82.6007 142.554 83.1023C142.721 83.6039 143.056 83.9383 143.39 83.7711Z" fill="white"/>
<path d="M187.342 70.06C187.342 71.0633 185.671 71.3977 184.835 71.3977C183.833 71.3977 182.663 71.3977 181.66 71.2305C181.994 70.8961 182.496 70.7289 182.997 70.5617C183.498 70.3945 187.509 68.5552 187.342 70.06ZM164.948 71.0633C164.28 71.5649 163.778 72.2337 163.11 72.7354C161.94 73.7386 160.603 74.7419 159.099 75.5779C156.926 75.5779 154.921 76.5811 154.586 78.5876C154.419 79.2565 155.589 80.0925 156.258 79.7581C157.595 79.0893 158.932 78.4204 160.269 77.5844C160.937 77.7516 161.606 77.9188 162.274 78.2532C164.614 79.4237 166.786 80.5941 169.627 80.2597C171.967 79.9253 174.14 78.7548 175.31 76.9156C175.644 76.4139 175.811 76.0795 175.978 75.5779C176.145 75.0763 176.145 74.4074 176.479 73.7386C176.646 73.5714 176.814 73.4042 176.981 73.237C176.646 73.9058 176.479 74.5746 176.479 75.2435C176.479 78.086 178.819 79.9253 181.827 80.2597C183.498 80.4269 185.17 80.4269 186.841 80.4269C188.679 80.4269 190.35 80.2597 192.022 79.4237C193.024 78.9221 192.022 77.5844 191.019 77.5844C188.345 77.9188 185.504 78.2532 182.83 78.086C180.657 78.086 178.652 77.25 178.986 75.0763C178.986 74.4074 179.32 73.7386 179.822 73.237C179.989 73.237 180.156 73.237 180.323 73.237C181.827 73.4042 183.498 73.4042 185.003 73.4042C186.34 73.4042 187.844 73.237 188.679 72.2337C190.518 70.5617 189.515 67.8863 187.008 67.5519C184.668 67.2175 182.162 68.388 180.323 69.3912C179.488 69.8928 178.819 70.3945 178.151 71.0633C176.646 71.0633 174.975 71.2305 174.307 72.5682C173.973 73.4042 173.805 74.4074 173.304 75.2435C172.803 76.0795 172.134 76.5811 171.466 77.0828C169.795 78.2532 167.622 78.4204 165.616 77.7516C164.447 77.25 163.277 76.5811 162.107 76.0795C163.611 75.0763 164.948 74.073 166.285 72.9026C167.455 71.8993 169.627 70.06 167.789 68.7224C167.121 68.2208 165.951 68.2208 164.948 68.0535C163.778 67.8863 162.441 67.8863 161.271 67.7191C160.603 67.7191 160.101 68.2208 160.436 68.7224C160.603 69.0568 160.937 69.3912 161.104 69.7256C161.438 70.2272 162.107 69.8928 162.107 69.3912C162.608 69.5584 163.11 69.5584 163.611 69.7256C163.778 69.7256 164.948 70.06 165.616 70.06L165.449 70.2272C165.449 70.7289 165.115 70.8961 164.948 71.0633Z" fill="white"/>
<path d="M164.948 62.7029C165.784 62.7029 166.285 61.8669 166.118 61.198C165.951 60.362 165.116 60.0276 164.28 60.0276C163.444 60.0276 162.943 60.8636 163.11 61.5325C163.444 62.3685 164.28 62.7029 164.948 62.7029Z" fill="white"/>
<path d="M227.285 77.5844C227.786 76.9156 228.12 76.414 228.454 75.7451C228.622 76.2468 228.622 76.9156 228.789 77.4172C229.123 78.5877 229.958 79.5909 231.128 80.2598C232.298 80.7614 233.635 80.5942 234.638 79.7581C235.473 78.9221 233.969 77.9188 233.134 78.4205C232.465 78.7549 231.797 78.2533 231.463 77.7516C230.961 77.0828 230.961 76.0796 230.794 75.2435C230.46 73.4042 230.627 71.3977 230.794 69.5585C230.961 68.5552 229.29 68.2208 228.956 69.0568C228.789 69.3912 228.789 69.7257 228.622 70.2273C227.953 72.5682 226.783 74.9091 225.279 76.9156C224.945 77.4172 223.608 79.2565 222.939 78.2533C222.271 77.25 222.605 75.9124 222.605 74.7419C222.605 72.7354 222.939 69.8929 221.268 68.388C220.6 67.7192 219.43 67.552 218.594 67.7192C217.424 68.0536 216.756 69.0568 216.087 70.0601C215.753 70.7289 215.252 71.2305 214.918 71.8994C214.75 70.3945 214.583 69.0568 214.583 67.552C214.583 66.7159 212.912 66.3815 212.912 67.3848C213.079 70.5617 213.246 73.5714 213.413 76.7484C213.413 77.4172 213.413 78.0861 213.581 78.7549C213.748 79.5909 215.753 79.9253 215.586 78.7549C215.586 77.9188 215.419 77.0828 215.419 76.414C215.586 74.4075 216.589 72.401 217.926 70.7289C218.427 70.0601 219.597 68.7224 220.433 69.8929C221.101 70.8961 220.934 72.0666 220.767 73.0698C220.767 75.0763 220.098 77.9188 221.602 79.7581C222.271 80.5942 223.441 80.9286 224.611 80.5942C225.78 79.5909 226.616 78.5877 227.285 77.5844Z" fill="white"/>
<path d="M230.125 62.5357C230.292 62.7029 230.46 62.7029 230.627 62.7029C230.794 62.7029 230.961 62.7029 231.128 62.7029C231.295 62.7029 231.462 62.7029 231.629 62.5357C231.797 62.3685 231.964 62.2013 231.964 62.0341C231.964 62.0341 231.964 61.8669 232.131 61.8669C232.131 61.8669 232.131 61.8669 232.131 61.6997V61.5325V61.3653C232.131 61.3653 232.131 61.3652 232.131 61.198V61.0308C232.131 60.8636 231.964 60.8636 231.964 60.6964L231.797 60.5292C231.629 60.5292 231.629 60.362 231.462 60.362C231.462 60.362 231.462 60.362 231.295 60.362H231.128C230.961 60.362 230.961 60.362 230.794 60.362H230.627C230.46 60.362 230.46 60.362 230.46 60.5292C230.292 60.5292 230.292 60.6964 230.125 60.6964C229.958 60.8636 229.791 61.0308 229.791 61.198C229.791 61.3652 229.624 61.5325 229.791 61.6997C229.791 61.8669 229.791 61.8669 229.958 62.0341C229.791 62.3685 229.958 62.5357 230.125 62.5357Z" fill="white"/>
<path d="M244.332 67.2176C245.334 67.2176 246.003 68.0536 246.337 68.8896C246.671 69.7257 246.671 70.5617 246.671 71.3977C245.167 71.3977 243.663 71.3977 242.326 71.2305C241.825 71.2305 241.156 71.2305 240.488 71.2305V71.0633C241.156 69.7257 242.326 67.0503 244.332 67.2176ZM250.181 75.5779C249.512 76.0796 248.677 76.5812 247.841 77.0828C247.005 77.5844 246.17 77.9189 245.334 78.0861C243.663 78.4205 241.992 77.7516 240.989 76.414C240.321 75.4107 239.986 74.4075 240.153 73.237C240.989 73.237 241.825 73.237 242.66 73.237C244.499 73.237 246.337 73.4042 248.175 73.4042C248.677 73.4042 249.178 72.9026 249.178 72.5682C249.178 69.8929 248.844 67.0503 246.003 65.7127C244.833 65.0439 243.329 65.0439 242.159 65.7127C240.822 66.3815 240.153 67.3848 239.485 68.5552C238.984 69.3913 238.649 70.3945 238.315 71.2305C237.814 71.2305 237.48 71.2305 236.978 71.3977C235.808 71.565 236.143 72.9026 237.145 73.0698C237.48 73.0698 237.647 73.0698 237.981 73.237C237.981 74.2403 238.148 75.2435 238.482 76.2468C239.485 78.5877 241.825 80.2598 244.499 80.427C246.003 80.427 247.34 80.2598 248.677 79.5909C250.181 78.9221 251.016 78.0861 251.685 76.7484C252.019 75.9124 250.849 75.0763 250.181 75.5779Z" fill="white"/>
<path d="M288.786 67.2175C289.454 66.0471 290.457 65.0438 291.794 64.375C292.128 64.2078 292.462 64.0406 292.796 64.0406C292.796 64.2078 292.796 64.2078 292.796 64.375C292.796 65.211 292.462 66.0471 292.128 66.8831C291.125 68.7224 289.287 70.0601 287.449 71.2305C287.449 69.7256 287.95 68.388 288.786 67.2175ZM278.591 90.125C278.591 91.9643 278.424 93.9708 278.09 95.8101C277.923 96.6461 277.588 97.6494 277.254 98.4854L277.087 98.987C276.92 99.1542 276.92 99.1542 276.753 98.8198C276.419 98.4854 276.419 97.8166 276.251 97.3149C275.416 93.3019 276.251 89.289 277.756 85.6104C277.923 85.1088 278.09 84.7744 278.257 84.2727C278.424 86.2792 278.591 88.2857 278.591 90.125ZM303.994 65.7127C303.659 65.0438 302.322 64.8766 301.988 65.7127C300.15 70.0601 297.476 74.2403 294.133 77.9188C293.799 77.9188 293.465 78.086 293.298 78.4205C292.629 80.0925 290.457 79.2565 289.621 78.4205C288.618 77.4172 287.95 76.2468 287.616 75.0763C287.449 74.7419 287.449 74.2403 287.449 73.9058C289.788 72.5682 292.128 71.2305 293.799 69.0568C294.802 67.7192 295.47 66.0471 295.303 64.375C294.969 62.5357 293.131 61.8669 291.46 62.5357C288.451 63.3718 286.279 66.5487 285.443 69.0568C284.942 70.3945 284.775 71.7321 284.942 73.0698C284.44 73.4042 284.106 73.5714 283.772 73.9058C281.934 75.2435 280.429 76.7484 279.427 78.5877C279.093 75.2435 278.925 71.8993 279.761 68.5552C279.928 67.8864 278.758 66.8831 278.257 67.7192C276.084 71.0633 273.578 74.0731 271.071 77.25C270.569 77.9188 271.739 78.7549 272.408 78.086C274.413 76.2468 276.084 74.073 277.588 71.8993C277.421 74.9091 277.756 77.9188 278.09 80.9286C277.756 81.4302 277.588 81.9318 277.421 82.4334C275.917 85.7776 274.747 89.4562 274.413 93.1347C274.246 94.974 274.413 96.8133 274.914 98.6526C275.249 99.8231 276.084 101.495 277.756 101.328C279.427 101.161 279.928 98.8198 280.262 97.6494C280.764 95.9773 280.931 94.138 280.931 92.4659C281.098 88.9545 280.43 85.4432 279.928 81.9318C281.098 79.7581 282.602 77.5844 284.608 76.0795C284.942 75.9123 285.109 75.7451 285.443 75.4107C285.777 76.414 286.112 77.4172 286.78 78.4205C287.783 80.0925 289.454 81.5974 291.627 81.9318C293.465 82.2662 295.805 81.0958 295.638 79.2565V79.0893C298.98 76.0795 301.654 72.5682 303.659 68.7224C305.331 71.3977 307.503 73.9058 307.169 76.9156C307.002 78.4205 306.333 79.7581 304.829 80.4269C304.328 80.5942 303.659 80.7614 302.991 80.7614C302.657 80.7614 302.49 80.7614 302.155 80.5942C302.155 80.5942 301.988 80.5942 301.988 80.4269C302.322 79.7581 301.487 78.9221 300.651 78.9221C299.147 79.0893 298.98 80.5942 299.816 81.5974C300.484 82.2662 301.654 82.7679 302.824 82.9351C304.996 83.1023 307.336 82.099 308.506 80.4269C310.01 78.2532 309.676 75.5779 308.673 73.237C307.169 70.2273 305.163 68.0536 303.994 65.7127Z" fill="white"/>
<path d="M322.879 67.0503C322.211 66.8831 321.542 67.2175 320.874 67.2175C319.704 67.3847 318.367 67.5519 317.197 67.5519C317.03 67.5519 316.863 67.5519 316.529 67.5519C316.529 66.5487 316.529 65.5454 316.696 64.5422C316.863 61.8669 316.696 59.3587 316.863 56.6834C316.863 55.8474 315.526 55.6802 315.359 56.5162C315.025 58.8571 314.523 61.0308 314.356 63.3717C314.189 64.7094 314.189 66.047 314.189 67.3847C312.685 67.2175 311.348 67.0503 310.011 66.7159C309.677 66.5487 309.175 66.8831 309.175 67.2175C309.008 67.5519 309.342 67.8863 309.677 68.0535C311.181 68.7224 312.685 69.224 314.189 69.3912C314.189 69.7256 314.189 69.8928 314.189 70.2272C314.189 72.4009 314.189 74.7418 314.189 76.9155C314.189 78.5876 314.523 80.7613 316.863 80.9285C318.868 81.0957 320.707 79.5909 322.211 78.5876C322.879 78.086 323.882 77.25 323.548 76.4139C323.214 75.5779 322.211 75.7451 321.542 76.0795C320.707 76.5811 320.038 77.4172 319.203 77.9188C318.701 78.2532 317.364 79.2565 316.863 78.7548C316.529 78.5876 316.696 77.5844 316.696 77.25C316.696 76.7483 316.696 76.2467 316.696 75.9123C316.696 74.7418 316.696 73.5714 316.696 72.4009C316.696 71.5649 316.696 70.5617 316.696 69.7256C316.863 69.7256 316.863 69.7256 317.03 69.7256C318.367 69.7256 319.537 69.7256 320.874 69.5584C321.877 69.3912 324.049 69.3912 324.216 68.2207C324.216 67.7191 323.548 67.2175 322.879 67.0503Z" fill="white"/>
<path d="M334.409 67.2176C335.579 66.2143 336.749 67.2176 337.418 68.2208C337.585 68.5552 337.752 68.8896 337.919 69.2241C337.585 69.2241 337.418 69.2241 337.083 69.3913C335.913 69.5585 334.744 69.5585 333.574 69.7257C333.24 69.7257 332.738 69.8929 332.404 69.8929C333.072 68.7224 333.574 67.7192 334.409 67.2176ZM350.119 67.552C349.617 66.8831 348.448 67.0504 347.946 67.7192C345.607 72.401 341.596 78.7549 334.576 77.7517C333.24 77.5844 331.903 77.0828 331.067 76.0796C330.064 74.9091 330.9 73.237 331.568 71.8994C332.905 71.8994 334.242 71.7322 335.412 71.565C337.083 71.3978 341.094 71.565 340.259 69.0568C339.757 67.552 338.253 65.7127 336.582 65.0439C334.576 64.375 332.738 65.3783 331.735 66.8831C330.9 67.8864 330.231 69.0568 329.73 70.3945C328.727 70.5617 327.725 70.7289 326.555 70.8961C325.552 71.0633 325.886 72.2338 326.889 72.2338C327.557 72.2338 328.226 72.2338 329.061 72.0666C328.894 72.2338 328.894 72.5682 328.727 72.7354C328.393 73.7387 328.059 74.7419 328.393 75.7452C328.727 76.7484 329.563 77.5844 330.398 78.2533C333.407 80.5942 337.919 80.427 341.261 78.9221C345.105 77.25 347.445 74.0731 349.283 70.5617C350.62 72.9026 351.456 75.7452 351.289 78.2533C351.289 79.4237 350.787 81.0958 349.45 81.5974C348.615 81.9318 347.278 81.7646 347.111 80.9286C346.776 79.9254 344.771 79.5909 344.771 80.7614C344.771 82.7679 346.609 83.9383 348.782 83.9383C350.954 83.9383 352.626 82.6007 353.294 80.7614C354.13 78.7549 353.795 76.2468 353.294 74.2403C352.626 71.8994 351.623 69.5585 350.119 67.552Z" fill="white"/>
<path d="M358.308 51.8344C356.47 52.5033 354.798 53.8409 353.294 55.0114C351.79 56.1818 350.286 57.3523 348.615 58.5228C347.612 59.3588 348.949 60.6965 349.952 60.0276C351.623 58.8572 353.127 57.8539 354.798 56.6835C355.634 56.1818 356.302 55.513 357.138 55.0114C357.472 54.677 357.974 54.5098 358.308 54.0081C358.642 53.6737 358.976 53.3393 359.311 53.0049C359.979 52.5033 359.144 51.5 358.308 51.8344Z" fill="white"/>
<path d="M277.088 58.8571C277.088 59.0244 277.255 59.1916 277.422 59.3588C277.59 59.526 277.59 59.526 277.757 59.526C277.924 59.526 277.924 59.6932 278.091 59.6932C278.258 59.6932 278.258 59.6932 278.425 59.6932C278.592 59.6932 278.759 59.6932 278.926 59.6932C278.926 59.6932 279.094 59.6932 279.094 59.526C279.094 59.526 279.261 59.526 279.261 59.3588H279.428L279.595 59.1916L279.762 59.0243C279.929 58.8571 279.929 58.6899 279.929 58.5227C279.929 58.3555 279.929 58.1883 279.929 58.0211C279.929 57.8539 279.762 57.8539 279.762 57.6867C279.595 57.5195 279.595 57.3523 279.428 57.1851C279.261 57.0179 279.261 57.0179 279.094 57.0179C278.926 56.8506 278.759 56.8506 278.425 56.8506C278.258 56.8506 278.091 56.8506 278.091 56.8506C277.757 56.8506 277.59 57.0179 277.422 57.0179L277.255 57.1851L277.088 57.3523C277.088 57.5195 276.921 57.5195 276.921 57.6867C276.921 57.6867 276.921 57.8539 276.754 57.8539C276.754 58.0211 276.754 58.0211 276.754 58.1883C276.754 58.3555 276.754 58.3555 276.754 58.5227C277.088 58.5227 277.088 58.6899 277.088 58.8571Z" fill="white"/>
<path d="M382.709 68.0536C382.374 67.7192 381.706 67.552 381.204 68.0536C378.363 70.8961 375.522 73.9059 372.848 76.9156C372.347 77.4172 373.35 78.2533 374.018 77.7516C376.692 75.2435 379.366 72.5682 382.04 70.0601C383.043 71.3977 384.045 72.5682 385.048 73.9059C386.051 75.0763 387.388 76.414 387.054 77.9188C386.719 79.0893 385.717 80.2598 384.38 80.7614C383.711 80.9286 382.876 81.263 382.207 80.9286C381.539 80.5942 381.539 79.9253 381.204 79.4237C380.87 79.0893 380.202 78.5877 379.867 79.0893C378.865 79.9253 379.366 81.0958 380.035 81.9318C380.87 82.7679 382.207 83.2695 383.377 83.2695C385.55 83.2695 387.889 82.099 388.892 80.2598C390.229 78.2533 389.56 76.2468 388.224 74.4075C386.385 71.8994 384.547 69.8929 382.709 68.0536Z" fill="white"/>
<path d="M399.087 75.5779C398.251 76.414 397.582 77.25 396.58 77.7516C395.911 78.0861 394.741 78.4205 394.24 77.7516C393.739 77.0828 394.908 75.9124 395.243 75.2435C395.911 74.4075 396.58 73.4042 397.248 72.7354C398.585 71.3977 400.591 70.3945 402.596 70.8961C401.76 72.5682 400.591 74.0731 399.087 75.5779ZM442.371 78.2533C442.872 77.25 441.201 76.5812 440.533 77.25C439.53 78.2533 438.36 79.4237 437.023 80.0926C436.187 80.427 434.851 80.7614 434.015 80.0926C433.179 79.4237 433.514 78.0861 433.681 77.25C433.848 76.0796 434.182 74.7419 433.848 73.5714C433.514 72.2338 432.344 70.8961 430.84 71.2305C429.335 71.3977 428.333 72.5682 427.497 73.5714C426.829 74.2403 426.327 74.9091 425.826 75.5779C425.826 75.0763 425.826 74.5747 425.659 74.2403C425.492 73.237 425.492 71.8994 424.823 71.0633C424.155 70.2273 422.985 70.0601 421.982 70.5617C420.311 71.2305 419.308 73.0698 418.64 74.5747C418.64 72.9026 418.473 71.2305 418.473 69.5585C418.473 68.8896 417.804 68.388 417.136 68.388C414.963 68.5552 413.292 69.8929 412.289 71.5649C411.286 73.4042 411.119 75.5779 409.782 77.25C409.114 78.0861 406.941 79.4237 406.106 78.2533C405.771 77.9188 405.938 77.25 405.938 76.9156C405.938 76.2468 405.938 75.5779 405.938 74.9091C405.938 73.5714 405.938 72.2338 405.938 70.8961C405.938 70.0601 405.103 69.7257 404.434 69.7257C401.76 68.2208 398.585 69.0568 396.413 71.0633C395.243 72.0666 394.24 73.4042 393.404 74.5747C392.569 75.7451 391.733 77.0828 392.569 78.5877C393.237 79.5909 394.407 80.2598 395.744 80.427C397.248 80.5942 398.752 79.7581 399.755 78.7549C401.092 77.5844 402.262 76.2468 403.432 74.9091C403.432 75.0763 403.432 75.0763 403.432 75.2435C403.432 76.414 403.265 77.9188 403.766 79.0893C404.769 80.9286 407.275 81.4302 409.281 80.7614C411.788 79.9253 412.79 77.7516 413.459 75.7451C413.96 74.2403 414.629 71.8994 416.3 71.0633C416.3 74.7419 416.3 78.4205 416.467 81.9318C416.467 83.2695 418.64 83.7711 418.974 82.2663C419.642 79.2565 420.311 76.0796 422.484 73.5714C422.651 73.237 423.152 73.0698 423.319 72.7354V72.9026C423.486 73.9059 423.653 74.7419 423.653 75.7451C423.821 77.5844 423.653 79.4237 423.319 81.263C423.152 82.4335 425.492 83.2695 425.826 81.9318C426.662 79.2565 428.166 76.7484 430.171 74.5747C430.505 74.4075 430.672 74.0731 431.007 73.9059C431.174 73.7387 431.174 73.7386 431.341 73.5714C431.508 73.5714 431.508 73.5714 431.508 73.5714C431.675 73.9059 431.675 74.5747 431.675 74.9091C431.508 76.0796 431.174 77.25 431.174 78.5877C431.174 81.263 433.346 83.1023 436.355 83.1023C437.692 83.1023 439.029 82.6007 440.031 81.7646C440.867 80.5942 441.535 79.4237 442.371 78.2533Z" fill="white"/>
<path d="M457.745 64.8766C456.074 66.8831 454.402 68.8896 452.898 71.0633C451.394 73.237 449.89 75.4107 448.386 77.4172C446.882 79.4237 445.378 81.5974 443.874 83.6039C442.37 85.7776 440.531 87.9513 439.194 90.125C438.526 91.2955 440.364 92.6331 441.2 91.4627C442.871 89.4562 444.375 87.1153 445.879 84.9416C447.383 82.7679 448.887 80.5942 450.391 78.4205C451.895 76.2468 453.4 74.0731 454.904 71.8994C456.408 69.7257 457.578 67.3848 458.915 65.2111C458.915 64.8766 458.079 64.375 457.745 64.8766Z" fill="white"/>
<path d="M467.105 74.7419C466.938 75.7451 466.938 76.7484 466.771 77.5844C466.436 79.2565 464.932 80.427 463.261 80.9286C462.426 81.0958 461.59 81.263 460.754 81.263C460.086 81.263 458.749 80.9286 458.749 80.0925C458.749 79.2565 459.919 78.086 460.42 77.4172C461.089 76.5812 461.924 75.9123 462.76 75.2435C463.762 74.5747 464.765 73.7386 465.935 73.237C466.436 73.0698 467.105 72.7354 467.773 72.7354C467.439 73.5714 467.272 74.0731 467.105 74.7419ZM473.957 80.427C473.456 80.9286 472.954 82.4334 471.951 82.4334C471.617 82.4334 471.784 82.2662 471.617 81.9318C471.45 81.263 471.45 80.7614 471.283 80.0925C470.782 77.5844 470.447 75.0763 470.113 72.5682C470.113 72.401 469.946 72.2338 469.779 72.0666C469.278 71.0633 467.941 70.8961 466.771 70.8961C465.434 71.0633 464.264 71.7322 463.094 72.401C460.587 73.7386 458.415 75.9123 456.911 78.086C456.075 79.4237 455.908 80.7614 457.245 81.9318C458.248 82.7679 459.584 83.2695 460.921 83.2695C463.428 83.4367 465.935 82.4334 467.439 80.7614C467.941 80.0925 468.275 79.5909 468.609 78.7549C468.776 80.0925 468.943 81.4302 469.277 82.6007C469.779 84.1055 471.45 84.7744 472.954 84.4399C474.625 83.9383 475.461 82.4335 475.461 80.9286C475.628 80.427 474.458 79.7581 473.957 80.427Z" fill="white"/>
<path d="M487.827 49.1591C486.824 52.5032 485.988 55.8474 485.487 59.3588C485.153 61.198 484.986 62.8701 484.819 64.7094C484.651 66.3815 484.651 68.0536 484.484 69.7256C484.484 70.3945 484.317 71.2305 484.15 71.8993C483.983 72.7354 483.816 73.5714 484.651 74.2403C485.32 74.7419 486.323 74.7419 486.824 74.073C487.493 73.4042 487.493 72.401 487.66 71.7321C487.994 70.0601 487.994 68.388 487.994 66.8831C487.994 65.0438 488.161 63.3717 488.328 61.5325C488.83 57.6867 489.665 53.6737 489.999 49.8279C490.166 48.6575 488.161 47.9886 487.827 49.1591Z" fill="white"/>
<path d="M487.994 82.4335C487.994 82.6007 487.994 82.6007 488.161 82.7679C488.161 82.7679 488.161 82.6007 487.994 82.4335ZM487.994 81.263C487.827 81.0958 487.66 80.9286 487.325 80.7614C487.158 80.7614 486.824 80.5942 486.657 80.5942C486.323 80.5942 485.989 80.7614 485.821 80.9286C485.654 81.0958 485.487 81.4302 485.487 81.5974C485.487 81.7646 485.32 81.7646 485.32 81.9318C485.153 82.099 485.153 82.099 484.986 82.2663C484.986 82.4335 484.986 82.4335 484.986 82.6007C484.986 82.7679 484.819 82.9351 484.819 83.2695C484.652 83.6039 484.652 84.1055 484.484 84.44C484.484 84.6072 484.317 84.7744 484.484 84.9416C484.484 85.1088 484.484 85.276 484.652 85.4432C484.819 85.7776 485.153 86.112 485.654 86.2792C485.989 86.4464 486.49 86.4464 486.824 86.2792C487.158 86.112 487.493 85.9448 487.66 85.6104C487.827 85.276 487.827 84.7744 487.994 84.44C487.994 84.2727 488.161 84.1055 488.161 83.9383C488.161 83.7711 488.328 83.6039 488.328 83.2695C488.328 83.1023 488.328 82.9351 488.328 82.7679C488.328 82.4335 488.328 82.2663 488.328 81.9318C488.161 81.7646 488.161 81.5974 487.994 81.263Z" fill="white"/>
</g>
<defs>
<clipPath id="clip0_7_910">
<rect width="490" height="103" fill="white"/>
</clipPath>
</defs>
</svg>
