<svg width="201" height="29" viewBox="0 0 201 29" fill="none" xmlns="http://www.w3.org/2000/svg">
<g clip-path="url(#clip0_7_946)">
<path d="M3.28785 23.4859C2.87681 23.8944 2.26024 24.3028 1.8492 24.5071C1.8492 24.3028 2.05472 24.0986 2.05472 24.0986C2.26024 23.6902 2.67129 23.4859 3.28785 23.4859ZM24.6621 6.331C22.4014 6.331 20.1406 6.12677 17.8799 5.92255C15.6191 5.92255 13.3584 5.71832 11.0977 5.71832C10.0701 5.71832 9.86454 6.73945 10.2756 7.35213C10.8921 8.16903 11.5087 8.57748 12.5363 8.7817C13.1529 8.98593 13.5639 8.57748 13.5639 8.16903C15.0026 8.16903 16.4412 8.37325 17.8799 8.37325C18.702 8.37325 19.7296 8.57748 20.5517 8.57748C17.2633 10.824 14.386 13.0704 11.5087 15.5211C9.65902 17.1549 8.01485 18.7887 6.37067 20.4225C6.16515 20.6268 5.95963 20.831 5.54859 21.2394C4.52098 21.2394 3.28785 21.2395 2.26024 21.6479C0.616072 22.4648 -0.617057 24.3028 0.205029 25.9366C0.410551 26.5493 1.02712 26.7535 1.64368 26.5493C3.28785 25.7324 4.7265 24.7113 6.16515 23.4859C6.5762 23.4859 6.98724 23.6902 7.39828 23.6902C9.86454 24.3028 12.1253 25.324 14.5915 26.1409C18.2909 27.162 23.2234 26.9578 25.6897 23.8944C26.7173 22.4648 24.4566 21.0352 23.2234 22.2606C19.9351 25.7324 13.975 23.2817 10.0701 22.2606C9.4535 22.0564 9.04245 22.0564 8.42589 21.8521C10.0701 20.4225 11.5087 18.993 13.1529 17.5634C17.0578 14.2958 21.3737 11.4366 25.6897 8.7817C26.5118 7.9648 25.8952 6.53522 24.6621 6.331Z" fill="white"/>
<path d="M40.8995 14.7042C40.2829 14.7042 39.4608 14.9084 38.8442 14.9084C39.0498 14.2957 39.4608 13.6831 39.8718 13.0704C40.6939 11.6408 41.3105 10.007 42.5436 8.78166C42.5436 8.98589 42.7491 8.98589 42.7491 9.19011C42.9547 9.59857 43.1602 9.80279 43.1602 10.2112C43.3657 10.8239 43.5712 11.6408 43.5712 12.2535C43.7768 12.8662 43.7768 13.6831 43.7768 14.2957C42.9547 14.5 41.9271 14.7042 40.8995 14.7042ZM50.1479 14.5C49.3258 13.8873 48.0927 13.8873 46.8596 14.0915C46.6541 12.6619 46.243 11.0281 45.832 9.59856C45.2154 8.37321 44.3933 6.12673 42.3381 6.33096C40.4884 6.53518 39.6663 8.57744 38.8442 9.80279C37.8166 11.4366 36.9945 13.0704 36.378 14.7042C36.378 14.9084 36.1725 14.9084 36.1725 15.1126C34.7338 15.3169 33.2952 15.3169 32.062 15.7253C31.0344 16.1338 31.4455 17.3591 32.4731 17.5634C33.2952 17.7676 34.3228 17.5634 35.1449 17.5634C34.7338 18.3803 34.5283 19.1972 34.3228 20.2183C34.1172 21.0352 33.9117 22.0563 33.7062 22.8732C33.5007 23.6901 33.2952 24.7112 33.5007 25.5281C33.7062 25.9366 34.3228 26.345 34.7338 25.9366C35.7614 24.9155 35.7614 23.0774 36.1725 21.6479C36.5835 20.2183 37.2001 18.7887 37.6111 17.3591C38.8442 17.3591 40.0774 17.1549 41.3105 17.1549C42.3381 17.1549 43.1602 16.9507 44.1878 16.9507C44.5988 20.4225 45.2154 23.8943 45.6265 27.3662C45.832 28.1831 47.2706 29 48.2982 28.3873C49.1203 27.5704 49.5314 26.5493 49.1203 25.5281C49.1203 25.1197 48.7093 24.9155 48.2982 24.7112C47.8872 22.0563 47.4761 19.4014 47.0651 16.7465C48.2982 16.7465 49.5314 16.5422 50.1479 15.9296C50.7645 15.5211 50.559 14.9084 50.1479 14.5Z" fill="white"/>
<path d="M61.6569 21.4437C61.6569 20.2183 61.8624 18.7887 62.0679 17.5634C62.2734 15.1127 62.2734 12.662 62.479 10.2113C64.1231 10.2113 65.7673 10.4155 67.4115 10.8239C69.6722 11.2324 73.7826 12.662 72.9606 15.3169C72.5495 16.5422 71.3164 17.3592 70.2888 17.9718C68.6446 18.7887 67.0004 19.4014 65.1507 20.0141C63.9176 20.4225 62.6845 21.0352 61.6569 21.4437ZM74.1937 18.7887C76.2489 16.9507 76.6599 14.0915 74.8103 12.0493C72.9606 9.80281 69.8777 8.78169 66.7949 8.16901C65.3563 7.96478 63.9176 7.76056 62.479 7.76056C62.479 7.55633 62.479 7.55633 62.479 7.35211C62.479 6.73943 61.2458 6.12676 61.0403 6.94366C61.0403 7.14788 60.8348 7.55633 60.8348 7.76056C58.7796 7.76056 56.7244 8.16901 54.8747 8.98591C54.0526 9.39436 54.4636 10.4155 55.4912 10.4155C57.1354 10.4155 58.7796 10.2113 60.2182 10.007C59.6017 12.2535 59.1906 14.5 58.7796 16.7465C58.5741 18.3803 58.3685 20.0141 58.3685 21.6479C58.3685 21.8521 58.3685 22.0563 58.3685 22.2606C56.7244 22.8732 55.0802 23.2817 53.436 23.6901C51.3808 24.3028 53.025 26.7535 54.8747 26.3451C55.9023 25.9366 57.1354 25.7324 58.163 25.3239C58.163 25.7324 58.163 26.1408 58.163 26.5493C57.9575 27.7746 60.4237 28.7958 61.0403 27.3662C61.4514 26.5493 61.4514 25.3239 61.4514 24.3028C62.89 23.8944 64.1231 23.2817 65.5618 22.8732C68.4391 21.8521 71.9329 20.831 74.1937 18.7887Z" fill="white"/>
<path d="M95.1563 21.6479C93.5122 23.0775 91.868 25.1197 89.6073 25.7324C88.5796 25.9367 87.552 26.1409 86.73 25.5282C85.7023 24.9155 85.0858 24.0986 84.2637 23.4859C82.825 22.4648 81.3864 22.0564 79.9477 22.0564C84.0582 17.9719 87.9631 13.8874 92.0735 9.80285C92.8956 8.98594 91.868 7.96482 91.0459 7.96482C89.4017 7.55637 87.7576 7.35214 86.1134 6.94369C84.8803 6.73946 83.2361 6.33101 82.003 6.73946C79.9477 7.55637 80.1533 10.2113 82.2085 10.824C83.4416 11.0282 83.6471 9.39439 82.6195 9.19017C82.6195 9.19017 82.6195 9.19017 82.825 8.98594C83.2361 8.78172 83.4416 8.78172 83.8527 8.78172C84.4692 8.78172 85.2913 8.98594 85.9079 9.19017C86.73 9.39439 87.552 9.59862 88.3741 9.59862C83.0306 14.9085 77.8925 20.2183 72.549 25.5282C71.3158 26.7536 73.7821 28.3874 75.0152 27.162C76.2484 25.9367 78.5091 24.3028 80.5643 24.5071C81.5919 24.7113 82.2085 25.324 82.825 25.9366C83.6471 26.7536 84.4692 27.5705 85.7023 28.1831C87.9631 29.2043 90.6349 29 92.6901 27.7747C94.9508 26.5493 96.3895 24.7113 97.6226 22.669C98.4447 21.6479 95.9784 20.6268 95.1563 21.6479Z" fill="white"/>
<path d="M127.218 7.14787C125.78 10.007 126.191 13.4789 126.602 16.5422C126.807 18.9929 127.218 21.4436 126.807 23.6901C122.08 20.4225 118.381 16.1338 115.915 11.4366C115.298 10.2112 113.448 10.2112 112.832 11.2324C110.982 14.9084 109.132 18.3803 107.488 22.0563C106.461 17.1549 106.05 12.4577 105.639 7.55632C105.639 6.53519 103.789 6.12674 103.583 7.35209C102.556 13.8873 103.583 20.6267 105.227 26.9577C105.639 28.1831 107.694 28.7958 108.31 27.3662C110.366 23.2817 112.421 19.4014 114.476 15.3169C117.559 20.2183 121.669 24.3028 126.807 27.5704C127.835 28.1831 129.068 27.9789 129.479 26.9577C130.918 23.8943 130.712 20.831 130.301 17.5634C129.89 14.2958 129.479 11.4366 130.507 8.37322C130.918 6.73942 128.246 5.30984 127.218 7.14787Z" fill="white"/>
<path d="M150.031 16.1338C149.62 17.7676 148.593 19.1972 147.565 20.4225C147.154 21.0352 146.538 21.6479 145.921 22.2605C145.51 22.669 144.893 23.2817 144.277 23.4859C143.044 23.6901 141.399 22.4648 140.577 21.6479C139.55 20.6267 138.728 19.6056 138.317 18.176C137.7 15.9296 138.317 13.4789 139.755 11.4366C139.755 11.6408 139.961 11.8451 139.961 12.0493C140.166 12.8662 141.605 12.8662 142.016 12.0493C142.838 10.007 145.304 8.16899 147.771 9.39435C150.237 10.6197 150.853 13.6831 150.031 16.1338ZM149.004 6.73942C146.949 5.71829 144.482 5.71829 142.427 6.73942C141.811 6.94364 141.399 7.35209 140.988 7.76054C140.577 7.55632 140.166 7.55632 139.755 7.76054C136.261 10.007 134.206 14.2958 135.234 18.176C135.645 20.0141 136.672 21.8521 138.111 23.0774C139.55 24.507 141.605 25.9366 143.866 26.1408C146.332 26.3451 148.182 24.3028 149.826 22.669C151.265 21.0352 152.498 18.9929 153.32 16.9507C154.347 13.2746 153.114 8.78167 149.004 6.73942Z" fill="white"/>
<path d="M182.092 6.12676C180.859 7.76056 179.832 9.39437 179.009 11.2324C177.982 12.8662 177.16 14.5 176.338 16.338C175.105 18.7887 174.282 21.4437 173.871 24.3028C169.555 18.993 167.911 12.4577 166.267 6.33099C166.062 5.30986 164.417 4.90141 163.801 5.92254C162.157 8.78169 160.924 11.6408 159.69 14.7042C158.663 17.5634 157.43 20.831 157.43 23.8944C157.43 24.507 158.663 25.1197 159.074 24.3028C160.513 21.4437 160.924 18.3803 162.157 15.5211C162.979 13.6831 163.801 11.8451 164.623 10.007C166.267 16.5423 168.733 23.2817 173.871 28.3873C174.693 29.2042 176.338 29.2042 176.338 27.9789C176.749 24.3028 177.571 21.0352 179.215 17.5634C180.037 15.9296 180.859 14.2958 181.681 12.662C182.503 11.0282 183.736 9.59859 184.353 7.76056C185.381 6.33099 183.12 5.10564 182.092 6.12676Z" fill="white"/>
<path d="M185.38 0C184.146 0 183.119 0 181.886 0.204225C180.653 0.408451 179.419 0.612676 178.186 0.816901C175.926 1.22535 173.87 2.04225 171.815 3.06338C171.404 3.26761 171.404 3.67606 171.61 4.08451C171.815 4.49296 172.226 4.49296 172.843 4.49296C174.898 4.08451 177.159 3.67606 179.214 3.26761C181.269 2.85915 183.53 2.4507 185.791 2.24648C186.613 2.24648 187.024 1.6338 186.818 1.02113C186.818 0.408451 185.996 0 185.38 0Z" fill="white"/>
<path d="M200.383 12.4578C200.177 12.2535 199.972 12.0493 199.766 12.0493C199.561 11.8451 199.355 11.8451 198.944 11.8451C198.739 11.8451 198.533 11.8451 198.328 11.8451C197.917 11.8451 197.711 12.0493 197.3 12.0493L197.095 12.2535C196.889 12.4578 196.684 12.8662 196.684 13.0704V13.2747V13.4789V13.6831C196.684 13.8873 196.889 14.0916 196.889 14.2958C197.095 14.5 197.3 14.7042 197.506 14.9085C197.711 14.9085 197.917 15.1127 197.917 15.1127C198.122 15.3169 198.328 15.3169 198.739 15.3169C198.944 15.3169 199.15 15.3169 199.15 15.3169C199.355 15.3169 199.561 15.1127 199.766 15.1127C199.972 14.9085 199.972 14.9085 200.177 14.7042C200.383 14.5 200.589 14.0916 200.589 13.8873V13.6831C200.589 13.4789 200.589 13.2747 200.383 13.0704C200.794 12.8662 200.589 12.662 200.383 12.4578Z" fill="white"/>
<path d="M199.561 21.8521C199.561 21.6479 199.355 21.4437 199.15 21.4437C198.944 21.2394 198.739 21.2394 198.533 21.0352C198.328 21.0352 198.328 21.0352 198.122 20.831C197.917 20.831 197.711 20.831 197.506 20.831C197.3 20.831 197.3 20.831 197.095 21.0352C196.889 21.0352 196.684 21.2394 196.684 21.4437C196.684 21.6479 196.478 21.6479 196.478 21.8521C196.478 22.0563 196.273 22.2606 196.478 22.4648C196.478 23.0775 196.684 23.6901 196.684 24.3028C196.684 24.5071 196.889 24.9155 197.095 25.1197C197.3 25.324 197.3 25.324 197.506 25.5282C197.711 25.7324 198.122 25.9366 198.533 25.9366C198.739 25.9366 198.944 25.9366 199.355 25.9366C199.561 25.9366 199.766 25.7324 199.972 25.7324C200.177 25.5282 200.383 25.5282 200.383 25.324C200.589 25.1197 200.589 24.9155 200.589 24.7113C200.589 24.5071 200.589 24.0986 200.383 23.8944C199.972 22.8732 199.766 22.4648 199.561 21.8521Z" fill="white"/>
</g>
<defs>
<clipPath id="clip0_7_946">
<rect width="201" height="29" fill="white"/>
</clipPath>
</defs>
</svg>
