<svg width="331" height="84" viewBox="0 0 331 84" fill="none" xmlns="http://www.w3.org/2000/svg">
<g clip-path="url(#clip0_0_1384)">
<path d="M315.5 56.75C315.24 57.0596 315.012 57.3946 314.82 57.75C311.45 57.12 308.09 56.42 304.72 55.75L306.59 55.9C309.59 56.15 312.53 56.56 315.5 56.77V56.75ZM318.44 56.49C318.63 56.18 318.55 55.78 318.01 55.62C312.08 54.1459 305.979 53.4733 299.87 53.62C302.66 52.11 305.54 50.8 308.36 49.37C309.36 48.85 308.42 47.96 307.62 48.21C302.87 49.65 298.53 52.04 294.06 54.21C293.911 54.2813 293.779 54.3828 293.671 54.5081C293.563 54.6334 293.483 54.7797 293.435 54.9377C293.387 55.0957 293.373 55.262 293.392 55.4259C293.412 55.5899 293.466 55.7479 293.55 55.89C295.2 58.09 297.04 60.13 298.73 62.29C299.5 63.29 300.26 64.29 301 65.29C301.44 65.89 301.88 66.5 302.32 67.12C302.49 67.36 302.93 67.8 303.22 68.19C303.12 68.4712 303.109 68.7762 303.187 69.0641C303.266 69.3519 303.431 69.6088 303.66 69.8L303.82 69.95C304.112 70.1806 304.469 70.3134 304.84 70.3295C305.212 70.3457 305.579 70.2444 305.89 70.04L306.11 69.91C306.359 69.7504 306.562 69.5294 306.7 69.2685C306.839 69.0075 306.907 68.7153 306.9 68.42C306.82 67.19 305.81 66.23 305.12 65.32C304.12 64.03 303.12 62.77 302.12 61.52C300.85 59.96 299.57 58.38 298.21 56.88C303.84 58.28 309.6 59.31 315.26 60.59C315.571 60.6533 315.895 60.6225 316.189 60.5014C316.482 60.3803 316.734 60.1744 316.91 59.91C317.34 59.04 317.91 58.28 318.35 57.43C318.428 57.2894 318.476 57.1338 318.49 56.9736C318.503 56.8133 318.483 56.6519 318.43 56.5" fill="black"/>
<path d="M33.1005 53.27L32.7905 53.45C32.8298 53.3865 32.8632 53.3195 32.8905 53.25H33.1005V53.27ZM38.7005 52.54C38.622 52.4047 38.5351 52.2745 38.4405 52.15C38.4074 51.8804 38.3091 51.6228 38.154 51.3998C37.9989 51.1767 37.7917 50.9949 37.5505 50.87L24.7905 43.62L24.7305 43.56C24.6076 43.439 24.4505 43.3587 24.2805 43.33L23.9505 43.14C22.3005 42.2 20.3605 44.72 21.9505 46.04C22.3148 46.3536 22.7357 46.5945 23.1905 46.75H23.3305L30.4405 50.54L28.5805 50.75C25.0942 50.4855 21.5917 50.5156 18.1105 50.84C12.6405 51.31 7.18047 51.98 1.71047 52.43C1.26841 52.4631 0.855649 52.6636 0.556441 52.9907C0.257232 53.3178 0.0941465 53.7468 0.100477 54.19C0.100477 55.06 0.0104742 55.93 -0.0395258 56.81C-0.0895258 57.69 1.13047 58.44 1.89047 58.3C11.1705 56.56 20.4905 55.13 29.8905 54.09C30.1871 54.2961 30.5312 54.4234 30.8905 54.46C29.5005 55.15 28.0805 55.76 26.7805 56.46C23.6205 58.06 20.4505 59.64 17.3105 61.28C15.4905 62.28 17.4405 64.28 19.0105 63.54C22.4805 61.87 25.9305 60.13 29.3805 58.41C31.0605 57.58 32.8305 56.82 34.4805 55.87L38.2805 54C38.4075 53.9395 38.5203 53.853 38.6116 53.746C38.7028 53.6389 38.7705 53.5138 38.8101 53.3789C38.8498 53.2439 38.8605 53.1021 38.8416 52.9628C38.8227 52.8234 38.7746 52.6895 38.7005 52.57" fill="black"/>
<path d="M309.64 19.54C311.108 18.5193 312.738 17.752 314.46 17.27C315.189 16.9925 315.976 16.8997 316.75 17C316.969 17.1471 317.134 17.3607 317.223 17.6091C317.311 17.8576 317.317 18.1278 317.24 18.38C317.208 18.5343 317.162 18.6851 317.1 18.83C316.772 19.172 316.41 19.4802 316.02 19.75C313.999 21.0838 311.827 22.1747 309.55 23L306.35 24.37L305.07 24.75C305.58 23.98 306.19 23.27 306.55 22.75C307.227 21.8195 307.973 20.9404 308.78 20.12C309.06 19.9 309.35 19.68 309.64 19.48V19.54ZM324.59 23.41L324.28 23.64C324.157 23.6649 324.041 23.7161 323.94 23.79C323.23 24.33 322.51 24.79 321.77 25.32C319.372 26.7667 316.779 27.8612 314.07 28.57C312.39 28.9176 310.674 29.062 308.96 29C308.045 28.9734 307.133 28.8865 306.23 28.74C305.54 28.62 304.58 28.49 304.23 27.74C304.098 27.4239 304.064 27.0759 304.13 26.74L304.71 26.54C306.751 26.138 308.757 25.5763 310.71 24.86C313.049 24.0972 315.235 22.9295 317.17 21.41C317.651 21.0072 318.066 20.5314 318.4 20C318.686 19.727 318.916 19.4 319.076 19.0379C319.235 18.6758 319.322 18.2856 319.33 17.89C319.295 17.3943 319.128 16.917 318.847 16.5074C318.566 16.0978 318.18 15.7707 317.73 15.56L317.35 15.4C315.837 14.8204 314.163 14.8204 312.65 15.4C310.394 16.1801 308.376 17.5264 306.79 19.31L306.73 19.38C304.716 21.1095 303.117 23.2694 302.05 25.7C301.22 27.6 301.11 29.95 303.32 30.93C304.317 31.2876 305.372 31.4539 306.43 31.42C307.747 31.4768 309.067 31.4434 310.38 31.32L311.57 31.18C316.712 30.8982 321.603 28.8656 325.43 25.42L325.89 25.07C326.89 24.27 325.55 22.69 324.59 23.42" fill="black"/>
<path d="M260.58 30.71C260.844 31.1077 261.145 31.4794 261.48 31.82C261.086 31.5368 260.776 31.1536 260.58 30.71ZM192.81 16.06C192.865 16.2083 192.865 16.3716 192.81 16.52C192.757 16.2955 192.68 16.0776 192.58 15.87C192.66 15.9172 192.729 15.9822 192.78 16.06H192.81ZM189.27 16.23C189.89 15.99 190.99 15.68 191.27 16.51C191.355 16.8442 191.344 17.1954 191.24 17.5241C191.136 17.8527 190.942 18.1457 190.68 18.37L190.56 18.47L190.02 18.66C189.37 18.88 188.69 19.04 188.02 19.22C187.35 19.4 186.67 19.22 186.07 19.22H185.81C186.01 18.95 186.22 18.68 186.43 18.43C187.201 17.4973 188.153 16.7316 189.23 16.18L189.27 16.23ZM222.59 17.46C223.12 18.94 220.75 19.46 219.77 19.55C218.505 19.656 217.232 19.5546 216 19.25C216.703 18.5819 217.474 17.9887 218.3 17.48C219.35 16.81 221.92 15.62 222.59 17.48V17.46ZM261 25.1C261.22 24.27 261.39 23.42 261.53 22.58C262.288 23.2772 263.21 23.7724 264.21 24.02C266.951 24.6883 269.826 24.5494 272.49 23.62C272.41 26.37 270.22 28.91 268.01 30.34C266.63 31.24 264.73 31.91 263.27 30.79C262.109 29.7509 261.354 28.3335 261.14 26.79C261.04 26.2189 260.993 25.6397 261 25.06V25.1ZM266.11 18.21C268.39 18.5 271.11 19.34 272.11 21.54C271.28 21.8058 270.435 22.0228 269.58 22.19C268.468 22.4101 267.331 22.4807 266.2 22.4C265.2 22.31 263.67 22.11 262.94 21.32C262.21 20.53 263.07 19.41 263.85 18.96C264.479 18.6113 265.151 18.3489 265.85 18.18H266.06L266.11 18.21ZM301.77 16.55C301.77 15.55 300.23 14.73 299.77 15.92L299.65 16.27C299.544 16.3438 299.455 16.4388 299.388 16.5489C299.321 16.6591 299.277 16.7821 299.26 16.91C298.445 21.4133 297.377 25.8671 296.06 30.25L295.95 31C295.87 31.23 296.06 31.29 295.88 31.19C295.7 31.09 295.36 30.19 295.24 29.89C294.842 28.8106 294.508 27.7087 294.24 26.59C293.697 24.3863 293.402 22.1291 293.36 19.86C293.36 19 292 17.95 291.36 18.95C289.09 22.6288 287.033 26.4351 285.2 30.35C285.13 29.8 285.1 29.23 285.06 29C284.88 27.7666 284.76 26.5266 284.7 25.28C284.613 22.8661 284.747 20.4494 285.1 18.06C285.107 17.8753 285.07 17.6915 284.993 17.5238C284.915 17.356 284.799 17.2091 284.653 17.0949C284.508 16.9808 284.338 16.9027 284.156 16.867C283.975 16.8314 283.788 16.8393 283.61 16.89L281.71 17.74C281.084 17.6442 280.443 17.7492 279.88 18.04C278.33 18.78 276.69 19.5 275.14 20.33C275.002 19.9061 274.821 19.4973 274.6 19.11C273.932 18.0651 272.999 17.2164 271.896 16.6506C270.792 16.0849 269.558 15.8224 268.32 15.89C267.617 15.8909 266.914 15.9477 266.22 16.06L265.13 16C264.311 15.9219 263.484 16.0277 262.711 16.3097C261.937 16.5917 261.237 17.0427 260.66 17.63C259.54 18.86 259.21 20.58 258.79 22.14C258.269 24.0554 257.6 25.9277 256.79 27.74C256.17 29.13 255.39 30.88 253.95 31.6C252.51 32.32 251.35 31.6 250.53 30.24C250.292 29.4911 250.151 28.7148 250.11 27.93C250.003 25.8639 249.726 23.8102 249.28 21.79C248.91 20.29 248.51 17.99 246.58 17.86C245.07 17.76 243.82 19.17 242.95 20.24C242.021 21.4287 241.226 22.7165 240.58 24.08C240.51 24.23 240.43 24.39 240.35 24.54C240.12 24.89 239.89 25.24 239.67 25.59C238.67 27.14 237.67 28.68 236.74 30.25C236.74 29.25 236.69 28.34 236.74 27.38C236.94 26.21 237.18 25.05 237.33 23.89C237.54 22.4 237.92 19.27 236.61 18.02C236.457 17.777 236.228 17.592 235.958 17.4942C235.688 17.3964 235.393 17.3914 235.12 17.48C234.55 17.557 234.002 17.7492 233.508 18.0449C233.015 18.3406 232.587 18.7336 232.25 19.2C231.11 20.5 230.04 21.86 228.95 23.2C227.09 25.45 225.24 27.7 223.45 30C222.831 30.5725 222.162 31.0879 221.45 31.54C220.15 32.1257 218.706 32.3136 217.3 32.08C216.727 31.9712 216.191 31.7202 215.74 31.35C215.66 31.2 215.58 31.04 215.5 30.86C214.873 29.3479 214.426 27.7669 214.17 26.15C214.17 25 214.17 23.85 214.17 22.7C214.174 22.6434 214.174 22.5866 214.17 22.53C217 21.97 219.91 22.79 222.67 21.53C223.251 21.3191 223.783 20.991 224.232 20.5661C224.681 20.1412 225.037 19.6286 225.28 19.06C225.428 18.474 225.412 17.8589 225.236 17.2809C225.06 16.7029 224.729 16.1839 224.28 15.78C221.35 12.9 215.89 15.36 213.56 18.71C213.427 18.757 213.311 18.8444 213.23 18.96C211.59 21.8266 210.083 24.76 208.71 27.76C208.57 25.14 208.35 22.52 208.1 19.9C208.03 19.15 208.1 18.14 207.5 17.57C207.227 17.328 206.88 17.1871 206.516 17.1707C206.152 17.1543 205.793 17.2635 205.5 17.48C205.177 17.6999 204.813 17.853 204.43 17.9302C204.048 18.0075 203.653 18.0074 203.27 17.93C202.855 17.8732 202.462 17.711 202.127 17.4589C201.793 17.2068 201.529 16.8732 201.36 16.49C201.324 16.4079 201.272 16.3345 201.205 16.2744C201.139 16.2143 201.061 16.1691 200.976 16.1416C200.89 16.1142 200.8 16.1052 200.711 16.1153C200.623 16.1253 200.537 16.1542 200.46 16.2C197.46 18.73 196.13 22.55 193.67 25.52C192.39 27.0557 190.898 28.4024 189.24 29.52C188.441 30.1019 187.583 30.5979 186.68 31C186.452 31.1277 186.199 31.2048 185.938 31.226C185.678 31.2472 185.416 31.212 185.17 31.1228C184.924 31.0336 184.7 30.8925 184.514 30.7091C184.328 30.5257 184.183 30.3043 184.09 30.06C183.179 28.2141 183.001 26.0921 183.59 24.12C184.34 23.074 185.327 22.2206 186.47 21.63C188.56 20.72 191.07 20.77 192.95 19.37C194.32 18.37 195.26 16.08 193.68 14.81C192.1 13.54 189.38 14.29 187.81 15.22L187.53 15.39C187.2 15.58 186.88 15.79 186.59 15.99C184.652 17.2879 183.06 19.0384 181.95 21.09C180.929 22.2812 179.99 23.5408 179.14 24.86C178.02 26.4 176.87 27.92 175.74 29.45C175.24 30.13 174.74 30.84 174.23 31.45C174.094 31.6226 173.947 31.7862 173.79 31.94C173.629 31.8993 173.461 31.8993 173.3 31.94H173.19C173.01 29.7336 173.01 27.5163 173.19 25.31C173.71 20.31 174.27 15.31 174.8 10.38L178.41 10.25L185.3 9.98997L188.84 9.84997C190.03 9.896 191.221 9.80541 192.39 9.57997C193.39 9.31997 192.86 7.97997 192.08 7.84997C190.948 7.75004 189.808 7.77015 188.68 7.90997L185.15 8.09997L178.08 8.46997L174.98 8.64997C175.26 5.93997 175.54 3.22997 175.79 0.519971C175.85 -0.150029 174.79 -0.410028 174.66 0.309972C174.24 3.10997 173.86 5.92997 173.5 8.73997C170.32 8.92997 167.16 9.15997 163.99 9.47997C163.26 9.55997 163.55 10.48 164.18 10.54C167.18 10.54 170.25 10.54 173.28 10.42L173.19 11.13C172.87 13.01 172.6 14.91 172.32 16.79C171.65 21.37 170.85 25.99 171.02 30.63C170.97 31.09 170.93 31.55 170.91 32.01C170.851 32.4961 170.972 32.9871 171.25 33.39C171.25 33.39 171.25 33.45 171.25 33.48C171.282 33.6394 171.347 33.7904 171.441 33.9235C171.534 34.0566 171.654 34.1689 171.793 34.2534C171.932 34.3379 172.087 34.3928 172.248 34.4146C172.41 34.4364 172.574 34.4246 172.73 34.38C173.2 34.19 173.68 34.01 174.14 33.78C174.215 33.7415 174.286 33.6945 174.35 33.64C175.664 33.0522 176.826 32.1733 177.75 31.07C178.73 30.0233 179.657 28.93 180.53 27.79C180.568 28.8304 180.848 29.8476 181.348 30.7607C181.848 31.6739 182.554 32.4578 183.41 33.05C187.27 35.42 191.62 31.24 194.08 28.61C196.811 25.6045 199.119 22.2401 200.94 18.61C201.567 19.221 202.356 19.6398 203.214 19.817C204.072 19.9942 204.962 19.9224 205.78 19.61C205.85 24.39 205.97 29.16 206.1 33.93C206.113 34.1058 206.165 34.2764 206.253 34.4288C206.342 34.5813 206.464 34.7117 206.61 34.81C206.71 34.9094 206.831 34.9845 206.965 35.0296C207.098 35.0747 207.24 35.0885 207.38 35.07C208.95 34.76 209.65 32.4 210.28 31.16C210.98 29.76 211.74 28.36 212.43 26.93C212.51 27.33 212.61 27.73 212.71 28.12C213.025 29.7688 213.642 31.3452 214.53 32.77C216.6 35.62 220.06 34.7 222.66 32.93C226.01 31.68 228.74 28.75 230.6 25.75C231.35 24.55 232.05 23.3 232.87 22.15C233.257 21.6015 233.681 21.0803 234.14 20.59C234.437 20.2605 234.754 19.9499 235.09 19.66C235.105 19.9431 235.105 20.2268 235.09 20.51C235.09 21.07 235.01 21.64 234.94 22.2C234.81 23.39 234.7 24.58 234.64 25.78C234.64 26.61 234.58 27.43 234.58 28.26C234.315 29.896 234.315 31.564 234.58 33.2C234.612 33.366 234.683 33.5221 234.787 33.6551C234.891 33.7882 235.026 33.8943 235.179 33.9648C235.333 34.0353 235.501 34.068 235.67 34.0602C235.839 34.0524 236.004 34.0043 236.15 33.92C238.76 32.16 240.15 29.36 241.51 26.61C242.166 25.1216 242.939 23.6872 243.82 22.32C244.206 21.7345 244.644 21.1855 245.13 20.68L245.54 20.26C245.661 20.206 245.795 20.1896 245.925 20.2128C246.055 20.2359 246.175 20.2977 246.27 20.39C246.65 20.76 246.6 21.59 246.6 22.07C246.6 22.86 246.6 23.66 246.66 24.46C246.766 26.9918 247.576 29.4438 249 31.54C249.162 31.8178 249.345 32.0821 249.55 32.33C249.938 32.8644 250.45 33.2959 251.043 33.587C251.635 33.878 252.29 34.0198 252.95 34C254.188 34.0297 255.392 33.5904 256.32 32.77C257.093 32.2412 257.787 31.6048 258.38 30.88L258.49 30.73C258.697 31.4511 259.066 32.115 259.571 32.67C260.076 33.225 260.702 33.6561 261.4 33.93C263.89 34.87 266.69 33.8 268.86 32.54C271.213 31.1641 273.144 29.1681 274.44 26.77C275.127 25.4996 275.5 24.0837 275.53 22.64C277.75 21.81 279.93 20.88 282.1 19.92C282.322 20.9041 282.369 21.9195 282.24 22.92C282.183 26.9332 282.794 30.9279 284.05 34.74C284.124 34.9298 284.245 35.0977 284.401 35.228C284.558 35.3582 284.745 35.4465 284.945 35.4845C285.145 35.5225 285.351 35.509 285.545 35.4452C285.738 35.3815 285.912 35.2695 286.05 35.12C288.203 32.5693 290.115 29.8242 291.76 26.92C292.175 28.0912 292.659 29.2366 293.21 30.35C293.475 31.1643 293.882 31.9258 294.41 32.6C295.07 33.74 295.78 34.85 296.53 35.92C296.626 36.0714 296.761 36.1943 296.92 36.2757C297.08 36.3572 297.259 36.3942 297.438 36.383C297.616 36.3717 297.789 36.3126 297.937 36.2118C298.085 36.111 298.204 35.9722 298.28 35.81C299.7 33.11 299.85 29.73 300.34 26.81L301.18 21.75C301.604 20.0896 301.862 18.3913 301.95 16.68" fill="black"/>
<path d="M45.0096 17.26C44.5154 17.0009 43.9503 16.9096 43.3996 17C43.319 17.0144 43.2425 17.0459 43.1752 17.0925C43.1079 17.1391 43.0514 17.1997 43.0096 17.27C42.8883 17.361 42.8032 17.4922 42.7696 17.64C42.2871 20.4549 41.9798 23.2971 41.8496 26.15L41.5396 29.31C41.4396 29.69 41.3396 30.07 41.2496 30.44C40.9996 30.15 40.7496 29.87 40.5296 29.58C39.8996 28.75 39.2996 27.91 38.7396 27.05C37.6196 25.33 36.7396 23.48 35.6596 21.73C34.8296 20.39 33.6596 18.34 31.8896 18.14C31.5029 18.1057 31.1138 18.1711 30.7596 18.33C30.5902 18.3649 30.4362 18.4524 30.3196 18.58C30.0779 18.7197 29.8868 18.9324 29.7736 19.1875C29.6604 19.4427 29.631 19.7271 29.6896 20C29.0661 22.0674 28.6704 24.1967 28.5096 26.35C28.1696 29.35 27.8296 32.35 27.6096 35.35C27.5496 36.11 28.7496 36.41 28.8796 35.59C28.8796 35.43 28.8796 35.26 28.9496 35.1C28.9935 35.1474 29.0496 35.1816 29.1117 35.1991C29.1738 35.2165 29.2396 35.2164 29.3017 35.1988C29.3638 35.1812 29.4198 35.1468 29.4635 35.0994C29.5073 35.0519 29.5371 34.9933 29.5496 34.93C29.9996 32.22 30.3596 29.52 30.6596 26.79C30.789 24.8665 31.1654 22.9675 31.7796 21.14C33.3069 22.7737 34.63 24.587 35.7196 26.54C36.9496 28.77 38.1196 31.18 40.2096 32.74C40.4657 32.9334 40.7404 33.1009 41.0296 33.24C41.1568 33.3703 41.3172 33.4634 41.4934 33.5092C41.6696 33.555 41.855 33.5518 42.0296 33.5C42.2907 33.5146 42.5507 33.4547 42.7791 33.3272C43.0074 33.1997 43.1949 33.01 43.3196 32.78C43.6043 32.1876 43.7481 31.5373 43.7396 30.88C43.8196 30.09 43.8896 29.31 43.9696 28.52C43.9696 28.04 44.0596 27.52 44.1096 27.09C44.1596 26.66 44.2796 26.41 44.3596 26.09C44.9496 23.82 45.6796 21.52 46.0796 19.2C46.1898 19.1223 46.273 19.0121 46.3178 18.8849C46.3626 18.7577 46.3667 18.6197 46.3296 18.49C46.2279 18.1966 46.0593 17.9309 45.8372 17.7139C45.615 17.497 45.3453 17.3347 45.0496 17.24" fill="black"/>
<path d="M50.7701 30.8C49.5501 29.8 49.1301 27.99 49.1301 26.25C49.3168 24.6554 49.9128 23.1362 50.8601 21.84C51.9563 22.5308 53.1695 23.0155 54.4401 23.27C56.2806 23.6584 58.1593 23.8363 60.0401 23.8C59.6082 25.6757 58.683 27.4019 57.3601 28.8C56.6257 29.7409 55.7484 30.5608 54.7601 31.23C54.1083 31.4977 53.399 31.595 52.6992 31.5127C51.9994 31.4305 51.3321 31.1714 50.7601 30.76L50.7701 30.8ZM54.0501 20.12C53.8948 20.0888 53.746 20.0313 53.6101 19.95L53.5001 19.88C53.5534 19.8671 53.6019 19.8393 53.6401 19.8C53.9284 19.5377 54.2693 19.34 54.6401 19.22C55.5264 18.8766 56.4968 18.8138 57.4201 19.04C57.9364 19.1655 58.4154 19.4125 58.8172 19.7603C59.2189 20.1082 59.5319 20.5469 59.7301 21.04C57.79 20.9385 55.8694 20.6027 54.0101 20.04L54.0501 20.12ZM76.7601 20.53C74.8201 20.69 72.8701 20.85 70.9101 20.97C71.0001 19.06 71.1001 17.15 71.2401 15.25C71.3201 14.25 69.7901 13.9 69.6101 14.95C69.6101 15.1 69.6101 15.25 69.5401 15.4C69.4812 15.4745 69.4464 15.5652 69.4401 15.66C69.4401 15.88 69.4401 16.09 69.3901 16.3C69.1401 17.9 68.9401 19.48 68.7801 21.08C66.5701 21.18 64.3501 21.21 62.1401 21.08C62.0672 19.9436 61.5755 18.8747 60.7601 18.08C59.965 17.5126 59.0464 17.1424 58.0801 17C56.391 16.4998 54.5749 16.6607 53.0001 17.45C52.0594 17.8048 51.2139 18.3731 50.5301 19.11C50.3579 19.2987 50.2131 19.5108 50.1001 19.74C49.9701 19.92 49.8501 20.09 49.7401 20.26C48.1009 22.1789 47.1474 24.589 47.0301 27.11C46.9701 29.54 47.9001 32.17 50.0301 33.45C52.6101 34.96 55.6301 33.81 57.6501 31.92C59.8434 30.0205 61.4206 27.5103 62.1801 24.71C62.2517 24.3806 62.2985 24.0463 62.3201 23.71L65.0601 23.62C66.2301 23.62 67.4101 23.56 68.5901 23.52C68.5901 23.73 68.5901 23.94 68.5901 24.15C68.5101 25.65 68.4601 27.15 68.4501 28.66V28.82C68.4001 29.82 68.3601 30.82 68.3601 31.75C68.3449 31.8427 68.3449 31.9372 68.3601 32.03C68.3844 32.4392 68.4514 32.8447 68.5601 33.24C68.7801 33.98 70.2601 34.76 70.5601 33.62C70.7719 32.116 70.8088 30.5925 70.6701 29.08C70.6701 27.57 70.6701 26.08 70.7701 24.56C70.7701 24.18 70.7701 23.79 70.7701 23.41C72.3601 23.31 73.9501 23.17 75.5301 22.96L77.1201 22.83C78.6301 22.71 78.1201 20.5 76.7101 20.61" fill="black"/>
<path d="M82.4002 29.68C82.2635 28.1129 82.6127 26.5417 83.4002 25.18C84.1428 23.7485 85.0745 22.4233 86.1702 21.24C87.1944 19.9588 88.3965 18.8307 89.7402 17.89C90.3749 17.4828 91.0989 17.2357 91.8502 17.17C92.3326 17.1364 92.8171 17.1907 93.2802 17.33C93.4595 17.434 93.633 17.5475 93.8002 17.67C92.8154 20.469 91.2202 23.0138 89.1302 25.12C88.0762 26.3173 86.9437 27.4431 85.7402 28.49C85.0318 29.115 84.2411 29.6399 83.3902 30.05H83.2802C82.8802 30.16 82.5102 30.14 82.4002 29.63V29.68ZM135.23 19.63L134.45 20.01L133.15 20.61C133.676 20.3188 134.217 20.0551 134.77 19.82L135.23 19.63ZM150.85 30.06C150.73 29.86 150.62 29.67 150.52 29.47C150.302 29.0344 150.109 28.587 149.94 28.13C149.56 27.13 149.28 26.13 148.99 25.13C148.52 23.43 148.12 21.13 146.66 20.03C146.573 19.9709 146.474 19.9322 146.37 19.9166C146.267 19.901 146.161 19.909 146.06 19.94C145.878 19.8416 145.664 19.8179 145.465 19.8739C145.265 19.9299 145.095 20.0611 144.99 20.24C143.82 22.17 142.67 24.1 141.51 26.04C141.4 26.22 141.29 26.42 141.17 26.63C140.65 27.2987 139.903 27.754 139.07 27.91C138.585 27.9533 138.097 27.9264 137.62 27.83L137.16 27.65C135.41 26.96 133.71 26.15 131.97 25.43C131.178 25.0325 130.355 24.6982 129.51 24.43C131.898 23.5618 134.235 22.5602 136.51 21.43C137.51 20.91 139.77 20.06 138.94 18.43C138.22 17.07 136.16 17.34 134.94 17.72C131.739 18.7692 128.872 20.6459 126.63 23.16C126.82 21.75 126.99 20.34 127.14 18.92C127.61 14.43 127.89 9.92 128.05 5.42C128.1 4.24 126.45 3.6 125.88 4.73C125.71 5.07 125.55 5.42 125.4 5.73C125.376 5.76447 125.356 5.80134 125.34 5.84C124.04 8.36 122.74 10.84 121.45 13.39C120.54 15.17 119.68 16.84 118.01 17.73C116.034 18.3577 113.96 18.6187 111.89 18.5C111.89 18.29 111.89 18.09 111.94 17.88V17.45C112.2 16.98 112.44 16.45 112.67 16.01C113.862 14.1561 114.681 12.0874 115.08 9.92C115.22 9.03 115.6 5.4 114.19 4.99C114.113 4.81172 114.019 4.64099 113.91 4.48C113.737 4.25085 113.485 4.09291 113.204 4.03583C112.922 3.97875 112.629 4.02646 112.38 4.17C110.75 5.01 110.52 7 110.38 8.64L110 14C109.86 14.93 109.77 15.87 109.72 16.81C109.39 17.38 109.03 17.93 108.65 18.46C105.735 18.2948 102.812 18.3248 99.9002 18.55C98.9902 18.64 99.1602 19.9 99.9802 20.03C102.28 20.3546 104.598 20.5382 106.92 20.58C106.225 21.3257 105.483 22.0271 104.7 22.68C103.487 23.6917 102.193 24.6014 100.83 25.4C100.16 25.8 99.4702 26.18 98.7702 26.52C98.3002 26.75 97.0402 27.52 96.5202 27.27C95.5702 26.77 96.7702 23.55 96.9402 22.79C97.2459 21.6499 97.2734 20.4529 97.0202 19.3C97.0588 19.0382 97.0822 18.7745 97.0902 18.51C97.0678 18.1829 96.9297 17.8745 96.7007 17.64C96.4716 17.4055 96.1666 17.2601 95.8402 17.23C95.6538 17.0317 95.4496 16.851 95.2302 16.69C95.168 16.6313 95.1011 16.5778 95.0302 16.53C94.7719 16.351 94.5012 16.1906 94.2202 16.05C94.0251 15.8867 93.81 15.749 93.5802 15.64C91.9802 14.32 88.8902 15.57 87.4302 16.64C85.5964 17.97 84.066 19.6743 82.9402 21.64C82.0561 22.8118 81.3393 24.1008 80.8102 25.47C79.9202 27.84 79.4402 32.59 83.2602 32.4C84.7868 32.1585 86.2355 31.5626 87.4902 30.66C88.8548 29.8474 90.1316 28.8957 91.3002 27.82C92.056 27.1292 92.7706 26.3946 93.4402 25.62C93.5202 27.52 93.9402 30.62 96.2902 30.86C98.6402 31.1 100.95 29.33 102.62 28C104.345 26.6221 105.923 25.0706 107.33 23.37C108.09 22.6441 108.804 21.8727 109.47 21.06C109.41 21.96 109.34 22.86 109.27 23.76C109.07 26.21 108.57 28.85 108.84 31.3C108.914 31.5744 109.081 31.8145 109.313 31.9788C109.545 32.1432 109.827 32.2214 110.11 32.2C110.523 32.3695 110.987 32.3695 111.4 32.2C111.77 32.017 112.08 31.7308 112.291 31.3759C112.502 31.021 112.606 30.6126 112.59 30.2C112.579 29.8064 112.502 29.4175 112.36 29.05C112.13 26.62 111.81 24.17 111.63 21.72C111.63 21.38 111.63 21.04 111.71 20.72C114.56 20.8 117.51 20.72 120.1 19.36C122.94 17.89 124.35 15.3 125.42 12.48C125.28 14.43 125.1 16.39 124.9 18.33C124.66 20.51 124.39 22.69 124.07 24.86C123.93 25.84 123.78 26.82 123.62 27.8C123.49 28.37 123.35 28.94 123.21 29.5L123.15 29.73C123.115 29.861 123.115 29.999 123.15 30.13C123.068 30.5929 123.014 31.0605 122.99 31.53C122.77 32.63 124.7 33.34 125.09 32.19C125.538 30.7239 125.836 29.2162 125.98 27.69C126.289 27.0491 126.654 26.4368 127.07 25.86C128.791 26.2833 130.466 26.8762 132.07 27.63C134.03 28.6529 136.078 29.4963 138.19 30.15C139.076 30.4014 140.021 30.3397 140.866 29.9754C141.711 29.611 142.405 28.9663 142.83 28.15C143.06 27.78 143.28 27.41 143.5 27.04L144.19 26.18C144.617 25.66 145.037 25.13 145.45 24.59C145.615 26.0831 145.865 27.5656 146.2 29.03C146.424 30.2757 146.919 31.4569 147.65 32.49C147.871 32.7563 148.164 32.9521 148.495 33.0534C148.825 33.1547 149.178 33.157 149.51 33.06H149.61C150.089 33.1918 150.598 33.1657 151.061 32.9856C151.524 32.8054 151.916 32.4809 152.18 32.06L152.31 31.94C152.418 31.8299 152.49 31.6905 152.519 31.5392C152.547 31.388 152.53 31.2317 152.47 31.09C152.444 30.9075 152.377 30.7331 152.275 30.5794C152.173 30.4257 152.039 30.2964 151.881 30.2008C151.723 30.1052 151.546 30.0457 151.363 30.0266C151.18 30.0074 150.994 30.0291 150.82 30.09" fill="black"/>
<path d="M150.3 15.72C150.469 15.4663 150.579 15.1772 150.62 14.8747C150.661 14.5722 150.632 14.2644 150.535 13.9748C150.439 13.6852 150.277 13.4216 150.063 13.2041C149.849 12.9866 149.588 12.821 149.3 12.72C149.048 12.6206 148.777 12.583 148.508 12.6103C148.239 12.6377 147.98 12.7292 147.754 12.8771C147.527 13.025 147.34 13.2251 147.207 13.4605C147.074 13.6959 146.999 13.9598 146.99 14.23C146.924 14.3718 146.883 14.5241 146.87 14.68C146.859 14.9312 146.903 15.1817 146.998 15.4146C147.093 15.6475 147.237 15.8573 147.42 16.03C147.618 16.2188 147.855 16.3614 148.115 16.4474C148.375 16.5333 148.651 16.5606 148.922 16.5271C149.194 16.4936 149.455 16.4002 149.686 16.2538C149.917 16.1073 150.113 15.9113 150.26 15.68" fill="black"/>
<path d="M330.59 82.82C330.76 82.73 330.66 82.54 330.19 82.58L329.85 82.91L330.59 82.82Z" fill="black"/>
<path d="M327.4 82.21C326.84 82.37 326.2 82.65 326.56 82.95C327.11 82.63 327.25 82.77 327.84 82.39C328.31 82.39 328.67 82.49 328.59 82.62C328.76 82.53 329.32 82.69 329.59 82.48C328.87 82.2369 328.09 82.2369 327.37 82.48C327.2 82.4 327.37 82.32 327.37 82.26" fill="black"/>
<path d="M252.37 81.51C252.59 81.51 252.68 81.51 252.69 81.44C252.49 81.44 252.32 81.44 252.37 81.51Z" fill="black"/>
<path d="M247.47 81.14H247.76C247.665 81.1119 247.564 81.1119 247.47 81.14Z" fill="black"/>
<path d="M281.07 81.69L280.31 81.59C280.25 81.69 280.7 81.67 281.07 81.69Z" fill="black"/>
<path d="M321.01 83C321.153 82.9916 321.294 82.9648 321.43 82.92H321.04" fill="black"/>
<path d="M293.73 81.42H293.95L294.14 81.29L293.73 81.42Z" fill="black"/>
<path d="M303.44 81.37C303.22 81.37 303.14 81.64 303.06 81.76C303.194 81.6454 303.363 81.5785 303.54 81.57C303.53 81.494 303.495 81.4235 303.44 81.37Z" fill="black"/>
<path d="M286.78 81.36C286.759 81.3201 286.728 81.2858 286.69 81.26C286.69 81.26 286.69 81.33 286.78 81.36Z" fill="black"/>
<path d="M156.16 81C157.1 81.25 154.64 81.32 156.05 81.6C155.92 81.49 157.33 81.16 156.16 81Z" fill="black"/>
<path d="M320.76 83H320.36C320.493 83.0103 320.627 83.0103 320.76 83Z" fill="black"/>
<path d="M217.83 81C217.891 81.0536 217.963 81.0944 218.04 81.12C218.04 81.12 218.04 81.06 217.83 81Z" fill="black"/>
<path d="M233.23 81.35H232.85C232.976 81.3627 233.103 81.3627 233.23 81.35Z" fill="black"/>
<path d="M209.84 81.35C209.655 81.3184 209.466 81.3184 209.28 81.35H209.37C209.523 81.301 209.687 81.301 209.84 81.35Z" fill="black"/>
<path d="M201.52 81.35L201.67 81.41H201.94L201.52 81.35Z" fill="black"/>
<path d="M40.4503 83.34C40.3065 83.2814 40.177 83.1928 40.0703 83.08C40.1903 83.28 38.9703 83.36 40.4503 83.34Z" fill="black"/>
<path d="M321.01 82.85C320.979 82.8869 320.941 82.9168 320.898 82.9375C320.855 82.9582 320.808 82.9693 320.76 82.97H321.04C321.04 82.97 321.04 82.89 321.04 82.87" fill="black"/>
<path d="M58.0197 81C58.4097 81 58.5397 81 58.5897 81.07H57.9097C57.9511 81.0112 58.006 80.9632 58.0697 80.93L58.0197 81ZM63.2997 82.93C62.9997 82.93 62.6197 82.93 62.2297 82.93C62.1397 82.83 62.2297 82.73 62.4797 82.73C62.3497 82.8 62.9297 82.86 63.2997 82.94V82.93ZM60.8297 82.94H60.2197H60.8297ZM31.4097 83.79C32.6697 83.79 31.9997 83.43 32.2697 83.22C33.7697 83.11 32.9597 83.49 33.4697 83.68C34.4097 83.58 35.1297 83.24 35.8297 83.25C35.8297 83.32 36.0197 83.34 35.8297 83.41C36.8297 83.12 38.8297 83.41 39.9297 83.03C39.9883 83.0425 40.0411 83.0742 40.0797 83.12C40.0076 83.0586 39.9537 82.9786 39.9237 82.8887C39.8937 82.7988 39.8889 82.7024 39.9097 82.61C40.4697 82.61 40.9097 82.38 41.1697 82.61C40.9749 82.598 40.7825 82.6586 40.6297 82.78L41.2197 82.67C41.7497 83.02 40.4097 82.79 40.4097 83.05C41.5296 82.8575 42.6634 82.7572 43.7997 82.75C43.9797 83.09 41.7297 82.86 42.9097 83.16L41.5197 83C42.5697 83.53 40.6897 83 41.6497 83.53C43.4497 83.63 43.6497 83.36 45.4597 83.46C45.8597 83.27 45.3197 83.18 45.7297 82.99C48.2797 82.65 47.7297 83.84 49.6097 83.39C49.8846 83.164 50.2096 83.007 50.5575 82.9322C50.9054 82.8573 51.2662 82.8669 51.6097 82.96L51.1597 83.35C52.8997 83.35 52.1597 82.79 53.9797 83.05C53.6597 83.2 52.6097 83.18 52.8697 83.23C54.0597 83.53 53.7097 83.01 54.6197 83.01L54.8097 83.35C56.6597 83.29 58.7097 83.05 60.7597 82.99C60.6497 83.09 60.2997 83.19 60.7597 83.3C63.4287 83.1951 66.1018 83.2753 68.7597 83.54L69.7097 83.25C69.9397 83.25 70.1297 83.38 69.8897 83.44C70.8897 83.55 69.8897 83.25 70.4097 83.14C70.9297 83.03 71.1397 83.3 70.7897 83.39C73.0083 83.0356 75.2627 82.9617 77.4997 83.17L77.1397 83.26C78.5497 83.38 78.7297 82.66 80.0397 82.93H79.7897C82.8497 83.06 86.2397 82.79 88.5697 83.23C89.0197 82.81 91.5697 83.42 91.7997 82.83C93.0179 83.1314 94.2587 83.332 95.5097 83.43C96.1697 83.43 96.5097 83.06 97.2997 83V83.3L98.4097 82.98L98.9897 83.35L99.7597 83.27C99.4497 83.27 99.1097 83.13 99.1597 83.04C100.153 82.9243 101.159 83.0548 102.09 83.42L104.91 83.16C104.84 83.28 104.37 83.32 104 83.4C105.5 83.09 104.27 83.73 105.65 83.4C105.47 83.33 105.75 83.21 105.78 83.15C106.907 83.3304 108.053 83.3674 109.19 83.26L108.97 83.47C111.06 83.53 113.37 83.37 115.72 83.38C114.88 83.28 115.07 82.91 115.72 82.87L115.99 83.2C116.44 83 115.28 83.08 116.19 82.83C117.06 82.83 116.78 83.2 116.27 83.31L117.34 83.19C117.4 83.29 117.15 83.34 117.09 83.47C117.52 83.26 118.93 83.79 119.56 83.47L119.62 83.57C121.96 83.57 123.03 83.46 124.94 83.44C124.94 83.16 125.72 83.22 126.29 83C127.69 83.09 129.29 83.31 130.94 83.28C132.13 83.14 131.29 83.04 131.82 82.88C131.91 83.13 133.6 83.11 132.72 83.29C134.72 83.29 135.32 83.29 137.88 83.03C137.61 82.93 137.29 82.88 137.45 82.8C137.92 82.75 138.51 82.9 138.45 83.03H138.32C141.21 82.65 144.98 83.78 147.27 83.25H147.14L149.52 82.97C150.62 82.97 148.86 83.17 149.67 83.33C152.24 82.9 153.73 83.39 155.84 83.1C157.48 83.86 161.65 83.1 163.84 83.53L163.71 83.35C164.28 83.18 164.4 83.46 164.82 83.5C164.76 83.36 164.2 83.34 164.56 83.24C169.39 83.03 174.56 83.5 179.5 83.66C181.31 83.66 180.5 82.74 182.81 83.17L182.16 83.5C185.82 83.1 189.64 83.5 193.23 83.17C193.01 83.25 193.01 83.35 192.66 83.35C193.596 83.5408 194.567 83.4751 195.47 83.16C196.03 83.16 195.6 83.34 195.94 83.44C196.7 83.58 197.85 83.13 198.25 83.37C198.32 83.37 198.04 83.45 197.9 83.47C198.39 83.35 200.2 83.47 199.73 83.22C201.07 83.35 202.3 83.1 203.37 83.22C204.07 82.91 205.67 83.37 205.9 82.93C205.8 83.39 208.25 83.3 209.1 83.09C208.82 83.22 209.84 83.23 209.51 83.42C210.51 83.42 211.37 83.33 211.2 83.09C212.99 83.63 214.79 82.66 215.8 83.35C218.68 83.11 221.35 82.94 223.94 82.84C223.84 83.29 221.07 82.84 221.18 83.36C223.273 83.055 225.385 82.898 227.5 82.89C228.13 82.95 227.14 83.09 226.93 83.16C229.39 82.98 231.68 83.16 233.86 82.96C233.86 82.96 233.62 83.05 233.4 83.08C233.83 83.08 234.4 83.15 234.4 82.94L233.98 83C233.3 82.7 235.69 82.38 235.77 82.22C235.04 82.81 237.93 82.37 236.77 83.11C237.05 83.11 237.41 82.98 237.34 82.84C237.76 82.84 237.9 82.96 237.47 83.11C239.01 83 238.47 82.78 239.86 82.79C239.86 82.89 239.58 82.93 239.43 83.04C240.27 82.7774 241.152 82.6757 242.03 82.74C241.96 82.8 242.1 82.88 241.75 82.88C243.75 82.88 245.21 82.36 247.43 82.55C246.77 82.98 248.19 82.69 248.31 83.06L249.5 82.95L249.02 82.77C249.977 82.6721 250.938 82.6253 251.9 82.63L251.12 82.78L253.12 82.71L252 82.57C253.06 82.38 251.89 82.1 253.29 82.2C253.824 82.236 254.356 82.3095 254.88 82.42C255.474 82.2506 256.095 82.1963 256.71 82.26C256.91 82.38 256.54 82.68 256.71 82.76C257.23 82.44 259.17 82.67 259.82 82.34C259.6 82.42 259.59 82.61 259.66 82.65L260.09 82.4C260.58 82.48 260.65 82.52 260.57 82.67C262.03 82.67 260.11 82.2 261.84 82.41C261.722 82.449 261.602 82.4791 261.48 82.5C263.23 82.61 264.85 82.34 266.48 82.5C266.95 82.87 265.08 82.59 265.62 82.91C267.93 82.84 270.4 82.45 272.62 82.54H272.21C272.52 82.01 273.87 82.8 275 82.54C274.72 82.54 274.64 82.84 274.71 82.78C276.531 82.7843 278.35 82.6842 280.16 82.48L279.87 82.62C280.77 82.74 282.24 82.69 283.22 82.75C283.5 82.61 284.06 82.64 283.72 82.44C286.72 83.21 289.45 82.02 292.11 82.67C291.79 82.67 291.35 82.79 291.61 82.79L293.87 82.66C293.69 82.43 293.58 82.52 293.1 82.34C293.579 82.1748 294.083 82.0936 294.59 82.1C293.59 82.25 294.59 82.47 295.04 82.6C294.96 82.53 295.12 82.45 295.04 82.38C296.22 82.79 295.24 81.91 296.86 82.19L296.77 82.31C297.371 82.1997 297.979 82.1361 298.59 82.12C298.86 82.39 297.94 82.25 297.9 82.47C298.82 82.47 299.71 81.96 300.54 82.23C300.15 82.3 299.59 82.31 299.2 82.38C299.736 82.5819 300.307 82.677 300.88 82.66H300.81L302.37 82.8L301.97 82.71C303.12 82.02 304.31 82.59 305.85 82.13C304.35 82.56 305.61 82.38 305.49 82.68C305.89 82.77 306.49 82.86 306.32 82.95C307.05 82.7 307.54 83.14 308.57 82.78C308.57 82.88 309.35 82.78 309.18 83.03C310.18 82.96 308.96 82.87 309.04 82.74C310.5 82.41 312.48 83.15 314.59 82.74C316.4 82.55 316.74 82.22 318.43 82.06C318.99 82.22 317.96 82.41 317.96 82.41C318.778 82.5399 319.612 82.5399 320.43 82.41C320.26 82.49 320.43 82.57 320.7 82.68C321.4 82.68 321.17 82.32 322.08 82.47C321.87 82.6327 321.637 82.764 321.39 82.86C322.21 82.77 323.01 82.59 323.86 82.5C324.08 82.67 323.35 82.75 323.05 82.87C323.987 82.8747 324.918 82.7295 325.81 82.44L325.2 82.35C325.55 82.35 325.38 82.58 325.12 82.63C324.31 82.84 323.95 82.53 323.9 82.44L324.5 82.37C323.88 81.8 322.08 82.47 320.87 82.43L321.37 82.02L320.13 82.36C319.86 82.25 319.68 82.02 320.28 81.96C319.41 81.75 319.51 82.11 318.76 81.88C318.68 81.88 318.76 81.82 318.76 81.8L317.95 82C318.12 81.91 317.81 81.7 318.34 81.77C316.81 81.53 315.87 82.08 315.34 81.77H315.47C313.35 81.91 315.26 82.07 313.67 82.43L312.61 81.68L312.4 81.98C312.18 81.98 311.75 81.98 311.83 81.83C311.01 82.04 311.97 81.96 311.49 82.16C310.49 81.88 308.59 82.29 308.36 81.8C307.98 82.03 309.36 81.98 308.24 82.14C307.92 81.62 306.94 82.23 305.98 81.99C306.28 81.72 307.19 81.86 306.23 81.62C305.65 82.08 304.36 81.52 303.55 81.62C303.55 81.98 301.78 81.77 300.42 81.89C300.51 81.77 297.87 81.69 296.6 81.56V81.5C296.35 81.87 295.05 81.8 294.1 81.87C294.1 81.65 294.31 81.57 294.82 81.47H293.95C293.614 81.6216 293.248 81.6968 292.88 81.69L293.1 81.42C291.799 81.5682 290.488 81.615 289.18 81.56C289.1 81.81 290.4 82.27 288.78 82.44C288.72 82.3 288.66 82.07 289.08 82.01C288.828 82.0713 288.568 82.0915 288.31 82.07L288.96 81.83C288.26 81.73 288.59 82.03 288.04 82.01C288.04 81.81 287.62 81.86 287.7 81.71C287.78 81.56 288.19 81.79 288.4 81.71C287.843 81.7051 287.292 81.6036 286.77 81.41C286.82 81.52 286.77 81.68 286.31 81.7C285.12 81.7 285.9 81.46 285.21 81.36C284.92 81.5 284.21 81.36 284.14 81.65C284.038 81.6515 283.937 81.6328 283.843 81.595C283.748 81.5573 283.662 81.5012 283.59 81.43C282.98 81.56 280.72 81.43 281.41 81.79H281.57H281.47C279.47 82.08 277.28 81.62 275.28 81.79V81.69C274.105 81.7202 272.934 81.8137 271.77 81.97C271.42 81.97 270.94 81.79 271.09 81.67C270.318 81.7939 269.531 81.7939 268.76 81.67C269.68 81.5 268.44 81.52 269.7 81.55C268.799 81.3708 267.871 81.3708 266.97 81.55C267.4 81.3 266.08 81.23 265.51 81.31L266.34 81.49C265.757 81.5252 265.173 81.5252 264.59 81.49L264.9 81.16C262.47 80.76 260.52 81.85 258.67 81.16C258.03 81.4 259.99 81.33 259.42 81.6C258.532 81.4815 257.654 81.3045 256.79 81.07C255.26 80.89 255.36 81.56 253.79 81.44C253.99 81.55 254.19 81.87 252.99 81.98C251.79 82.09 251.62 81.48 252.32 81.39C252.59 81.39 252.72 81.39 252.71 81.46C253.07 81.46 253.54 81.36 253.1 81.23L252.96 81.35C252.4 81.23 250.86 81.24 251.23 81.05C250.38 81.16 250.86 81.24 251.49 81.31C250.06 81.13 249.25 81.31 247.78 81.19C248.01 81.25 248.23 81.39 247.99 81.39C245.83 81.24 247.04 81.61 245.57 81.67C244.74 81.49 245.87 81.23 244.4 81.39C243.5 81.26 244.21 81.07 244.56 80.97C243.463 81.0605 242.359 80.9965 241.28 80.78L241.99 80.69C241.617 80.7135 241.243 80.7135 240.87 80.69L241.27 80.93C240.86 80.93 240.51 80.93 240.51 80.79C240.09 80.94 240.84 81.18 239.99 81.39C239.44 81.27 238.3 81.52 238.11 81.21C239.86 81.32 237.92 80.89 239.39 80.84C239.057 80.8773 238.722 80.8773 238.39 80.84C238.32 80.84 238.44 80.77 238.56 80.75C236.89 80.47 237.79 81.11 236.06 81.1C236.28 80.92 235.66 80.77 235.38 80.8C236.08 80.8 235.71 81.1 235.07 81.24C234.475 81.1915 233.877 81.2184 233.29 81.32L233.95 81.39C233.451 81.5562 232.925 81.6275 232.4 81.6C232.33 81.46 233.1 81.5 232.83 81.44C231.97 81.75 230.89 81.12 229.69 81.33C229.14 81.21 229.64 80.99 229.15 80.91C227.81 81.14 227.7 80.67 226.29 80.91C226.69 81.15 226.76 81.09 225.77 81.32L228.09 81.15L226.6 81.5C227.3 81.5 228.08 81.35 228.5 81.39C227.79 81.59 227.86 81.53 228.2 81.73C227.2 81.37 226.3 81.93 225.2 81.73V81.14C223.53 80.88 222.2 81.44 220.08 81.3L220.78 81.4C220.49 81.63 219.44 81.4 218.78 81.53C218.85 81.33 218.41 81.26 218.11 81.13C218.11 81.28 216.53 81.13 216.34 81.52L215.34 81.26C213.6 81.15 213.34 81.82 211.68 81.75C212.18 81.54 211.42 81.4 212.54 81.24C211.98 81.24 211.48 81.24 211.47 81.34C211.14 81.22 209.92 81.61 209.41 81.42C209.133 81.6168 208.799 81.7154 208.46 81.7C208.4 81.7 208.46 81.6 208.46 81.6C208.46 81.6 207.46 81.73 208.02 81.95C206.3 81.34 203.2 81.95 201.7 81.47C200.48 81.53 199.01 81.6 197.9 81.61C197.97 81.55 197.9 81.51 198.11 81.53C196.59 81.35 197.17 82.1 195.43 81.89C194.55 81.58 196.36 81.72 195.8 81.6C195.56 80.95 193.7 81.69 192.53 81.31H192.82C191.92 81.09 190.63 81.56 189.17 81.51C189.17 81.51 189.24 81.45 189.17 81.41C187.759 81.7378 186.318 81.9188 184.87 81.95C185.3 81.69 185.51 81.81 185.24 81.55C184.61 81.55 185.42 81.97 184.17 82.04C183.76 81.9 182.85 81.78 182.73 81.51H183.91C183.31 81.15 182.38 81.51 181.75 81.51L181.83 81.35C180.01 81.41 179.99 81.8 178.03 81.77L178.23 81.89C177.16 82.28 177.34 81.67 176.23 81.96L175.91 81.56C175.2 81.66 173.44 81.95 172.17 82.02C173.191 81.7424 174.23 81.5352 175.28 81.4C174.36 81.363 173.44 81.4403 172.54 81.63C172.84 81.5544 173.151 81.5274 173.46 81.55C172.368 81.897 171.224 82.0526 170.08 82.01C170.33 81.24 166.45 81.82 165.44 81.22C162.97 81.5 160.55 81.1 157.68 81.15C158.68 81.74 156.84 81.15 157.01 81.77C156.679 81.826 156.341 81.826 156.01 81.77L154.01 81.41C153.53 81.23 154.65 81.27 154.59 81.14C153.12 81.14 153.97 80.88 153.01 80.72C153.2 80.93 152.5 81.03 151.66 80.95L152.84 81.23C150.79 81.55 151.07 80.71 149.01 81.04L149.66 80.84C148.6 80.96 145.75 80.84 144.72 81.33C144.53 81.26 144.28 81.09 144.72 81.05C142.19 80.98 139.09 81.57 137.12 81.27L137.31 81.12C136.84 81.12 136.49 81.4 135.9 81.25C135.9 81.19 136.09 81.1 135.9 81.09C135.284 81.2339 134.652 81.2945 134.02 81.27L134.56 81.1C132.09 80.9 130.77 81.51 128.7 81.61C128.7 81.17 126.76 81.03 125.8 80.96V80.89C122.93 80.89 120.92 81.26 118.26 81.43C116.61 80.95 112.66 81.23 110.01 80.96C110.42 81.04 109.94 81.31 109.47 81.35C108.85 81.26 107.75 81.66 107.85 81.25H108.07C107.6 80.85 106.32 80.96 105.32 80.95L105.16 81.48C102.54 80.71 98.3097 81.76 96.8797 81.07C96.2497 81.2 95.4697 81.2 94.8797 81.33V81.05C93.1397 80.98 92.2597 80.94 90.0997 81.05L90.5397 80.85C89.3297 80.85 88.9997 81.66 87.8797 81.68L87.5397 81.26C85.4197 81.26 83.2597 80.89 81.1597 81.26C81.1597 81.2 81.2597 81.07 81.5997 81.06C80.5997 81.06 77.7297 80.77 78.0997 81.35C78.0997 80.97 75.8997 81.35 74.7497 81.48L74.9497 81C74.2143 81.3481 73.4132 81.5356 72.5997 81.55C72.2797 81.55 72.3197 81.33 72.7397 81.4C71.6697 81.26 71.9097 81.67 70.6097 81.52L71.0997 81.34C70.5439 81.2722 69.9805 81.3696 69.4797 81.62C68.7145 81.7331 67.933 81.622 67.2297 81.3C66.8117 81.5581 66.3149 81.6575 65.8297 81.58C65.7497 81.49 65.9797 81.43 66.0997 81.4C64.2597 81.21 63.3697 81.73 62.0997 81.4C62.0831 81.3564 62.0547 81.3183 62.0176 81.29C61.9804 81.2618 61.9362 81.2444 61.8897 81.24C63.3497 81.24 64.5197 81.24 64.4097 81.24C64.4097 80.98 63.2297 80.94 64.1697 80.58C62.9616 80.9137 61.7131 81.0785 60.4597 81.07C60.4018 81.0536 60.3476 81.0265 60.2997 80.99H60.4197C60.1815 80.949 59.938 80.949 59.6997 80.99C59.3684 80.9423 59.0344 80.9156 58.6997 80.91C58.5697 80.7 57.3497 80.8 56.7597 80.79C56.7597 81.07 56.0397 81.02 56.7597 81.25C56.6697 81.25 56.8697 81.25 57.2597 81.25C57.3463 81.2567 57.4332 81.2567 57.5197 81.25H58.9497C58.4375 81.4386 57.8814 81.4733 57.3497 81.35C57.0397 81.53 56.7097 81.72 56.5297 81.81C55.7197 81.41 54.1697 81.2 53.9497 80.96C52.1597 81.12 49.7197 81.06 48.5897 81.59C48.0797 81.66 47.9997 81.44 47.8097 81.36C48.0818 81.3353 48.3522 81.2953 48.6197 81.24C47.6197 81.37 45.6197 81.24 45.3497 81.66C44.0597 81.49 46.0697 81.32 44.3497 81.38L44.5897 81.27C41.1097 80.68 38.9297 82.21 35.0797 81.45C35.3397 81.45 35.4797 81.52 35.5297 81.58C31.1297 81.25 26.4697 81.89 22.1297 81.37C21.409 81.2879 20.6793 81.3912 20.0097 81.67L19.7397 81.37L18.4497 81.72C16.6297 81.97 15.2897 80.98 12.9797 81.46L13.2797 81.66C12.4497 81.66 10.6497 81.78 10.7897 81.55C10.7052 81.6138 10.6069 81.657 10.5027 81.6761C10.3986 81.6952 10.2914 81.6897 10.1897 81.66V81.5L8.18972 81.77C6.60972 81.65 8.42971 81.14 6.12971 81.11C5.26971 81.17 3.68972 81.57 4.00972 81.68C4.32972 81.79 4.88972 81.77 4.91972 81.93L4.12971 82.02C3.98971 82.48 3.38971 82.96 5.30971 83.28L6.65971 83L7.08971 83.22H5.95971C6.45702 83.3616 6.98838 83.3226 7.45971 83.11C7.61318 83.2536 7.81035 83.3416 8.01971 83.36L9.33971 82.92C9.49971 83.1 8.74971 83.28 9.62971 83.38C10.2497 83.17 9.03971 82.97 10.0597 82.84C10.6997 83.05 10.5197 83.22 11.2697 83.04C11.3697 83.16 11.2697 83.24 10.9197 83.29C11.5897 83.14 12.6897 83.23 13.0397 82.98C13.7097 83.24 15.2997 82.91 15.2297 83.35C15.8117 83.1528 16.4167 83.0318 17.0297 82.99C15.9097 83.52 19.3397 82.99 19.0297 83.59C19.8597 83.11 22.0297 83.37 23.5097 83.11C23.3989 83.1781 23.2694 83.2096 23.1397 83.2C23.6803 83.24 24.2159 83.3304 24.7397 83.47C24.8497 83.08 26.1397 82.99 26.8397 82.75C27.8397 83.13 26.2197 83.21 26.5397 83.57C26.5397 83.26 28.3097 83.26 27.9597 82.99C28.7397 83.23 28.6297 83.11 29.0297 83.43C29.1697 82.94 29.7597 83.35 30.3997 83.05C31.5297 83.29 30.6897 83.5 31.9297 83.36C32.5197 83.51 31.4197 83.68 31.4197 83.68" fill="black"/>
<path d="M57.3104 81.32C57.3104 81.32 57.2304 81.32 57.1504 81.32L57.3904 81.38L57.5304 81.29H57.3104" fill="black"/>
<path d="M281.42 81.74H281.37H281.48C281.46 81.7438 281.44 81.7438 281.42 81.74Z" fill="black"/>
<path d="M295.04 82.7C295.094 82.7358 295.156 82.7597 295.22 82.77C295.164 82.7368 295.104 82.7131 295.04 82.7Z" fill="black"/>
<path d="M300.95 82.76L301.78 82.86L300.95 82.76Z" fill="black"/>
<path d="M305.44 82.9C305.484 82.8718 305.515 82.8293 305.53 82.78L305.44 82.9Z" fill="black"/>
<path d="M254.95 82.58C254.72 82.58 254.5 82.68 254.26 82.71C254.64 82.71 254.94 82.71 254.95 82.58Z" fill="black"/>
<path d="M253.25 82.7C253.581 82.7497 253.919 82.7497 254.25 82.7C253.917 82.67 253.583 82.67 253.25 82.7Z" fill="black"/>
<path d="M325.29 83H325.53C325.452 82.9783 325.369 82.9783 325.29 83Z" fill="black"/>
<path d="M326.04 82.89L325.53 82.96C325.703 82.9816 325.879 82.9575 326.04 82.89Z" fill="black"/>
<path d="M319.06 82.9L318.99 83C319.009 82.9904 319.025 82.9762 319.038 82.9587C319.05 82.9413 319.058 82.9211 319.06 82.9Z" fill="black"/>
<path d="M317.24 82.93C317.798 83.0323 318.363 83.0825 318.93 83.08L318.95 83C318.66 83.15 317.61 82.76 317.2 82.93" fill="black"/>
<path d="M309.64 81.67L311.17 81.75C310.9 81.64 310.55 81.5 311.25 81.47C309.32 81.15 311.64 81.71 309.64 81.67Z" fill="black"/>
<path d="M304.95 81.51C305.77 81.46 304.95 81.35 304.95 81.29C304.43 81.39 304.31 81.42 304.95 81.51Z" fill="black"/>
<path d="M270.76 81.51L270.84 81.25C270.21 81.25 270.84 81.35 270.76 81.51Z" fill="black"/>
<path d="M73.2901 55.938C73.4074 56.1433 73.5028 56.444 73.5761 56.84C73.6494 57.2213 73.6861 57.566 73.6861 57.874C73.6861 58.446 73.5614 59.26 73.3121 60.316C72.3001 62.164 70.8041 63.088 68.8241 63.088C68.0908 63.088 67.3428 62.846 66.5801 62.362C65.8174 61.878 65.2894 61.3207 64.9961 60.69C64.6001 59.4287 64.4021 58.6293 64.4021 58.292C64.4021 57.7053 64.5268 57.082 64.7761 56.422C65.0401 55.762 65.3701 55.19 65.7661 54.706C66.0154 54.3687 66.4628 54.0827 67.1081 53.848C67.7534 53.5987 68.3401 53.474 68.8681 53.474C69.8948 53.474 70.7674 53.672 71.4861 54.068C72.2048 54.4493 72.8061 55.0727 73.2901 55.938ZM71.3761 59.48C71.4494 59.2893 71.4861 58.798 71.4861 58.006C71.4861 57.5807 71.4054 57.1627 71.2441 56.752C71.0974 56.3413 70.8774 55.9893 70.5841 55.696C70.5548 55.6667 70.4741 55.6227 70.3421 55.564C70.2101 55.4907 70.0268 55.4247 69.7921 55.366C69.5721 55.2927 69.3154 55.256 69.0221 55.256C68.2008 55.256 67.5994 55.586 67.2181 56.246C66.8368 56.906 66.6461 57.654 66.6461 58.49C66.6461 58.6367 66.6828 58.9153 66.7561 59.326C66.8441 59.7367 66.9174 59.9933 66.9761 60.096C67.0201 60.1987 67.1301 60.3453 67.3061 60.536C67.4968 60.712 67.7241 60.8733 67.9881 61.02C68.2668 61.152 68.5528 61.218 68.8461 61.218C69.5061 61.218 70.0341 61.064 70.4301 60.756C70.8261 60.4333 71.1414 60.008 71.3761 59.48ZM84.6139 49.228C84.6139 49.3747 84.5773 49.778 84.5039 50.438C84.3426 52.0513 84.2619 53.6867 84.2619 55.344C84.2619 56.796 84.2839 57.9033 84.3279 58.666C84.3719 59.4287 84.4819 60.0153 84.6579 60.426C84.8339 60.822 85.1053 61.02 85.4719 61.02C86.1759 61.02 86.5279 61.2547 86.5279 61.724C86.5279 62.032 86.3739 62.296 86.0659 62.516C85.7579 62.7213 85.4206 62.824 85.0539 62.824C84.6139 62.824 84.2033 62.7213 83.8219 62.516C83.4406 62.3107 83.1399 61.9953 82.9199 61.57C82.6119 62.0247 82.1646 62.3913 81.5779 62.67C81.0059 62.934 80.4486 63.066 79.9059 63.066C79.0699 63.066 78.3293 62.89 77.6839 62.538C77.0386 62.186 76.5399 61.7093 76.1879 61.108C75.8359 60.492 75.6599 59.8173 75.6599 59.084C75.6599 58.38 75.7406 57.7053 75.9019 57.06C76.0779 56.4 76.3126 55.8573 76.6059 55.432C77.0019 54.8747 77.5299 54.4347 78.1899 54.112C78.8646 53.7747 79.5246 53.606 80.1699 53.606C80.5659 53.606 80.9399 53.6867 81.2919 53.848C81.6439 53.9947 81.9519 54.178 82.2159 54.398C82.2159 53.4153 82.2086 52.7993 82.1939 52.55V52.088C82.1939 50.724 82.2819 49.7267 82.4579 49.096C82.6193 48.48 83.0079 48.172 83.6239 48.172C83.9613 48.172 84.2106 48.2453 84.3719 48.392C84.5333 48.5387 84.6139 48.8173 84.6139 49.228ZM77.8379 59.04C77.8379 59.7147 78.0286 60.2573 78.4099 60.668C78.8059 61.0787 79.2753 61.284 79.8179 61.284C80.5953 61.284 81.1673 61.042 81.5339 60.558C81.9153 60.074 82.1059 59.4507 82.1059 58.688L82.0839 56.51C81.5119 55.8793 80.9179 55.564 80.3019 55.564C79.8766 55.564 79.4733 55.674 79.0919 55.894C78.7253 56.0993 78.4319 56.4147 78.2119 56.84C77.9626 57.324 77.8379 58.0573 77.8379 59.04ZM99.076 58.248C99.1933 58.3213 99.4207 58.4607 99.758 58.666C100.11 58.8567 100.345 59.084 100.462 59.348C100.579 59.612 100.638 59.9787 100.638 60.448C100.638 60.976 100.484 61.4453 100.176 61.856C99.868 62.252 99.472 62.56 98.988 62.78C98.6507 62.9267 98.284 63.0147 97.888 63.044C97.5067 63.0733 97.0447 63.088 96.502 63.088C96.2087 63.088 95.8273 63.044 95.358 62.956C94.9033 62.868 94.588 62.7873 94.412 62.714C93.9427 62.45 93.5467 62.142 93.224 61.79C92.9013 61.438 92.74 61.0787 92.74 60.712C92.74 60.4187 92.8353 60.184 93.026 60.008C93.2167 59.832 93.466 59.744 93.774 59.744C93.9353 59.744 94.0893 59.788 94.236 59.876C94.3973 59.9493 94.5073 60.0373 94.566 60.14C94.7273 60.5213 94.9987 60.8073 95.38 60.998C95.7613 61.1887 96.15 61.284 96.546 61.284C97.9393 61.284 98.636 61.0347 98.636 60.536C98.636 60.404 98.5993 60.3013 98.526 60.228C98.4673 60.14 98.3793 60.052 98.262 59.964C98.0713 59.832 97.8 59.6927 97.448 59.546C97.1107 59.3993 96.81 59.2893 96.546 59.216C95.9447 59.084 95.358 58.886 94.786 58.622C94.258 58.358 93.8253 58.0133 93.488 57.588C93.1507 57.148 92.982 56.6127 92.982 55.982C92.982 55.6007 93.1213 55.2267 93.4 54.86C93.6933 54.4787 94.0307 54.1927 94.412 54.002C94.676 53.8993 95.1087 53.7893 95.71 53.672C96.3113 53.5547 96.722 53.496 96.942 53.496C97.2793 53.496 97.646 53.5327 98.042 53.606C98.438 53.6647 98.7387 53.7673 98.944 53.914C99.34 54.1487 99.6627 54.398 99.912 54.662C100.161 54.9113 100.286 55.1973 100.286 55.52C100.286 55.6813 100.249 55.8573 100.176 56.048C100.103 56.224 100.015 56.334 99.912 56.378C99.692 56.4807 99.4353 56.532 99.142 56.532C99.01 56.532 98.9 56.4953 98.812 56.422C98.7387 56.3487 98.636 56.2313 98.504 56.07C98.3427 55.8207 98.1887 55.674 98.042 55.63C97.866 55.586 97.6093 55.5347 97.272 55.476C96.9347 55.4027 96.7073 55.366 96.59 55.366C96.2233 55.366 95.8713 55.4393 95.534 55.586C95.2113 55.7327 95.05 55.9307 95.05 56.18C95.05 56.4733 95.292 56.7227 95.776 56.928C96.084 57.0747 96.4213 57.1993 96.788 57.302C97.1693 57.4047 97.404 57.4707 97.492 57.5C97.6973 57.544 97.9613 57.6467 98.284 57.808C98.6213 57.9693 98.8853 58.116 99.076 58.248ZM110.325 55.476C110.017 56.004 109.599 56.5467 109.071 57.104C108.543 57.6613 107.868 58.3213 107.047 59.084C106.27 59.8173 105.837 60.2353 105.749 60.338L105.001 61.02C105.294 61.0787 105.844 61.108 106.651 61.108C106.974 61.108 107.443 61.0493 108.059 60.932C108.646 60.8147 109.078 60.756 109.357 60.756C109.592 60.756 109.856 60.7927 110.149 60.866C110.457 60.9393 110.743 61.0493 111.007 61.196C111.139 61.2547 111.249 61.372 111.337 61.548C111.425 61.7093 111.469 61.8633 111.469 62.01C111.469 62.2007 111.403 62.4133 111.271 62.648C111.139 62.8827 110.985 63 110.809 63C110.648 63 110.435 62.9707 110.171 62.912C109.775 62.8387 109.496 62.802 109.335 62.802C108.822 62.802 108.14 62.8387 107.289 62.912C106.116 63 105.25 63.044 104.693 63.044C103.989 63.044 103.432 62.956 103.021 62.78C102.625 62.604 102.427 62.274 102.427 61.79C102.427 61.4233 102.61 61.0053 102.977 60.536C103.344 60.052 103.791 59.546 104.319 59.018L104.627 58.688C104.862 58.4533 105.258 58.1013 105.815 57.632C106.372 57.148 106.798 56.7667 107.091 56.488C107.384 56.1947 107.626 55.8867 107.817 55.564L104.297 55.586C103.725 55.586 103.3 55.52 103.021 55.388C102.757 55.256 102.625 55.0067 102.625 54.64C102.625 54.4347 102.698 54.244 102.845 54.068C102.992 53.8773 103.182 53.76 103.417 53.716C103.945 53.6427 105.023 53.606 106.651 53.606C108.279 53.606 109.401 53.6867 110.017 53.848C110.178 53.9067 110.303 54.0167 110.391 54.178C110.494 54.3247 110.545 54.4787 110.545 54.64C110.545 54.904 110.472 55.1827 110.325 55.476ZM120.728 55.652C120.728 56.2973 120.398 56.62 119.738 56.62C119.518 56.62 119.335 56.5687 119.188 56.466C119.041 56.3633 118.88 56.2093 118.704 56.004C118.264 55.52 117.883 55.278 117.56 55.278C117.135 55.278 116.717 55.4027 116.306 55.652C115.91 55.9013 115.587 56.2533 115.338 56.708C115.089 57.1627 114.964 57.6687 114.964 58.226C114.964 58.842 115.081 59.3553 115.316 59.766C115.565 60.1767 115.947 60.5287 116.46 60.822C116.651 60.9247 116.871 61.0053 117.12 61.064C117.384 61.1227 117.611 61.152 117.802 61.152C118.227 61.152 118.763 60.9833 119.408 60.646C119.643 60.5287 119.841 60.4407 120.002 60.382C120.163 60.3233 120.332 60.294 120.508 60.294C120.669 60.294 120.853 60.3673 121.058 60.514C121.263 60.6607 121.366 60.844 121.366 61.064C121.366 61.504 121.161 61.878 120.75 62.186C120.339 62.4793 119.833 62.7067 119.232 62.868C118.645 63.0147 118.081 63.088 117.538 63.088C116.673 63.088 115.866 62.89 115.118 62.494C114.385 62.098 113.798 61.5553 113.358 60.866C112.918 60.162 112.698 59.37 112.698 58.49C112.698 57.5513 112.911 56.6933 113.336 55.916C113.761 55.1387 114.333 54.53 115.052 54.09C115.771 53.65 116.555 53.43 117.406 53.43C117.89 53.43 118.389 53.518 118.902 53.694C119.415 53.87 119.848 54.1267 120.2 54.464C120.552 54.8013 120.728 55.1973 120.728 55.652ZM130.842 55.476C130.329 56.3707 129.5 57.3607 128.356 58.446L127.982 58.798C127.058 59.6927 126.171 60.4627 125.32 61.108C125.423 61.1227 125.628 61.13 125.936 61.13L127.168 61.108C127.491 61.108 127.96 61.0493 128.576 60.932C129.163 60.8147 129.596 60.756 129.874 60.756C130.3 60.756 130.784 60.9027 131.326 61.196C131.458 61.2547 131.568 61.372 131.656 61.548C131.744 61.7093 131.788 61.8633 131.788 62.01C131.788 62.2007 131.722 62.4133 131.59 62.648C131.458 62.8827 131.304 63 131.128 63C130.967 63 130.784 62.9707 130.578 62.912C130.549 62.8973 130.461 62.8753 130.314 62.846C130.182 62.8167 130.028 62.802 129.852 62.802C129.339 62.802 128.657 62.8387 127.806 62.912C126.633 63 125.768 63.044 125.21 63.044C124.506 63.044 123.949 62.956 123.538 62.78C123.142 62.604 122.944 62.274 122.944 61.79C122.944 61.3207 123.084 60.9027 123.362 60.536C123.656 60.1693 124.059 59.7587 124.572 59.304C124.792 59.128 124.983 58.9593 125.144 58.798C125.452 58.49 125.841 58.138 126.31 57.742C126.824 57.302 127.249 56.9133 127.586 56.576C127.938 56.224 128.21 55.8867 128.4 55.564C128.283 55.564 128.144 55.5713 127.982 55.586C127.836 55.6007 127.682 55.6153 127.52 55.63C127.022 55.6887 126.721 55.718 126.618 55.718C126.017 55.718 125.364 55.674 124.66 55.586C124.059 55.5273 123.656 55.4467 123.45 55.344C123.245 55.2267 123.142 54.992 123.142 54.64C123.142 54.4347 123.216 54.244 123.362 54.068C123.509 53.8773 123.7 53.76 123.934 53.716C123.993 53.7013 124.11 53.694 124.286 53.694C124.492 53.694 124.932 53.7233 125.606 53.782C126.31 53.8407 126.831 53.87 127.168 53.87C127.374 53.87 127.755 53.8553 128.312 53.826C128.752 53.782 129.192 53.76 129.632 53.76C130.014 53.76 130.314 53.7893 130.534 53.848C130.696 53.9067 130.82 54.0167 130.908 54.178C131.011 54.3247 131.062 54.4787 131.062 54.64C131.062 54.904 130.989 55.1827 130.842 55.476ZM133.066 58.336C133.066 57.7787 133.169 57.2213 133.374 56.664C133.58 56.092 133.851 55.5713 134.188 55.102C134.526 54.6327 135.061 54.2513 135.794 53.958C136.528 53.65 137.18 53.496 137.752 53.496C138.339 53.496 138.933 53.5767 139.534 53.738C140.15 53.8993 140.576 54.1487 140.81 54.486C141.353 55.2487 141.624 55.9967 141.624 56.73C141.624 57.126 141.536 57.4633 141.36 57.742C141.199 58.0207 140.964 58.3213 140.656 58.644C140.407 58.908 140.011 59.084 139.468 59.172C138.94 59.26 138.412 59.304 137.884 59.304C137.547 59.304 137.136 59.2747 136.652 59.216C136.168 59.1427 135.699 59.0547 135.244 58.952C135.274 59.2453 135.347 59.5313 135.464 59.81C135.582 60.0887 135.721 60.3013 135.882 60.448C136.176 60.7267 136.476 60.9027 136.784 60.976C137.107 61.0493 137.518 61.086 138.016 61.086C138.544 61.086 139.036 60.998 139.49 60.822C139.857 60.69 140.158 60.624 140.392 60.624C140.671 60.624 140.884 60.712 141.03 60.888C141.177 61.0493 141.25 61.262 141.25 61.526C141.25 61.8927 141.038 62.1933 140.612 62.428C140.187 62.6627 139.696 62.8387 139.138 62.956C138.596 63.0587 138.156 63.11 137.818 63.11C137.129 63.11 136.462 62.9853 135.816 62.736C135.171 62.4867 134.636 62.1347 134.21 61.68C133.858 61.2693 133.58 60.778 133.374 60.206C133.169 59.6193 133.066 58.996 133.066 58.336ZM137.862 55.366C137.54 55.366 137.217 55.432 136.894 55.564C136.572 55.6813 136.308 55.85 136.102 56.07C135.838 56.3487 135.655 56.576 135.552 56.752C135.464 56.9133 135.406 57.1407 135.376 57.434C135.743 57.5513 136.506 57.61 137.664 57.61C138.295 57.61 138.779 57.5147 139.116 57.324C139.468 57.1333 139.644 56.884 139.644 56.576C139.644 56.268 139.454 55.9893 139.072 55.74C138.691 55.4907 138.288 55.366 137.862 55.366ZM145.377 62.67C145.274 62.45 145.223 62.1933 145.223 61.9C145.223 61.6213 145.428 61.2033 145.839 60.646C145.135 60.4113 144.577 59.9933 144.167 59.392C143.771 58.7907 143.573 58.0867 143.573 57.28C143.573 56.752 143.697 56.2753 143.947 55.85C144.196 55.41 144.541 54.992 144.981 54.596C145.729 53.9213 146.763 53.584 148.083 53.584C148.611 53.584 149.263 53.7013 150.041 53.936C150.965 53.144 151.779 52.748 152.483 52.748C152.923 52.748 153.238 52.836 153.429 53.012C153.634 53.1733 153.737 53.4593 153.737 53.87C153.737 54.0313 153.671 54.1853 153.539 54.332C153.421 54.464 153.267 54.53 153.077 54.53L152.285 54.508C151.786 54.508 151.427 54.6033 151.207 54.794C151.485 55.1313 151.713 55.564 151.889 56.092C152.079 56.62 152.175 57.2213 152.175 57.896C152.175 58.7907 151.559 59.6267 150.327 60.404C149.564 60.8147 148.677 61.0273 147.665 61.042C147.547 61.1593 147.445 61.2693 147.357 61.372C147.283 61.46 147.247 61.5333 147.247 61.592C147.247 61.7533 147.386 61.878 147.665 61.966C147.943 62.054 148.369 62.12 148.941 62.164C149.366 62.1933 149.843 62.2887 150.371 62.45C150.913 62.5967 151.339 62.7653 151.647 62.956C152.028 63.2347 152.292 63.5353 152.439 63.858C152.6 64.1807 152.681 64.584 152.681 65.068C152.681 65.6987 152.387 66.2267 151.801 66.652C151.229 67.092 150.554 67.4147 149.777 67.62C148.999 67.8253 148.317 67.928 147.731 67.928C147.027 67.928 146.425 67.84 145.927 67.664C145.443 67.5027 144.981 67.2753 144.541 66.982C144.233 66.762 143.991 66.4833 143.815 66.146C143.639 65.8087 143.551 65.4567 143.551 65.09C143.551 64.7967 143.771 64.4007 144.211 63.902C144.665 63.4033 145.105 63.0587 145.531 62.868C145.487 62.824 145.435 62.758 145.377 62.67ZM147.599 59.238C148.288 59.238 148.867 59.0547 149.337 58.688C149.806 58.3067 150.041 57.786 150.041 57.126C150.041 56.598 149.887 56.18 149.579 55.872C149.271 55.5493 148.838 55.388 148.281 55.388C147.122 55.388 146.367 55.6447 146.015 56.158C145.927 56.2753 145.839 56.5027 145.751 56.84C145.663 57.1627 145.619 57.412 145.619 57.588C145.619 57.8373 145.707 58.094 145.883 58.358C146.073 58.6073 146.323 58.82 146.631 58.996C146.939 59.1573 147.261 59.238 147.599 59.238ZM145.619 65.244C145.619 65.4933 145.846 65.706 146.301 65.882C146.77 66.0727 147.269 66.168 147.797 66.168C148.383 66.168 148.985 66.058 149.601 65.838C150.231 65.6327 150.547 65.354 150.547 65.002C150.547 64.4887 150.092 64.1587 149.183 64.012C148.185 63.836 147.401 63.6747 146.829 63.528C146.77 63.7333 146.572 63.9973 146.235 64.32C146.015 64.54 145.853 64.7087 145.751 64.826C145.663 64.958 145.619 65.0973 145.619 65.244ZM160.528 47.754C160.836 47.754 161.078 47.82 161.254 47.952C161.445 48.084 161.54 48.2527 161.54 48.458C161.54 48.854 161.349 49.2427 160.968 49.624C160.601 49.9907 160.213 50.2913 159.802 50.526C159.582 50.658 159.296 50.768 158.944 50.856C158.607 50.944 158.35 50.988 158.174 50.988C157.866 50.988 157.712 50.8413 157.712 50.548C157.712 50.46 157.741 50.3793 157.8 50.306C157.859 50.2327 157.983 50.1227 158.174 49.976C158.233 49.9173 158.321 49.8367 158.438 49.734C158.57 49.6167 158.695 49.4847 158.812 49.338C158.929 49.1767 159.047 48.964 159.164 48.7C159.34 48.348 159.531 48.106 159.736 47.974C159.956 47.8273 160.22 47.754 160.528 47.754ZM163.718 55.938C163.835 56.1433 163.931 56.444 164.004 56.84C164.077 57.2213 164.114 57.566 164.114 57.874C164.114 58.446 163.989 59.26 163.74 60.316C162.728 62.164 161.232 63.088 159.252 63.088C158.519 63.088 157.771 62.846 157.008 62.362C156.245 61.878 155.717 61.3207 155.424 60.69C155.028 59.4287 154.83 58.6293 154.83 58.292C154.83 57.7053 154.955 57.082 155.204 56.422C155.468 55.762 155.798 55.19 156.194 54.706C156.443 54.3687 156.891 54.0827 157.536 53.848C158.181 53.5987 158.768 53.474 159.296 53.474C160.323 53.474 161.195 53.672 161.914 54.068C162.633 54.4493 163.234 55.0727 163.718 55.938ZM161.804 59.48C161.877 59.2893 161.914 58.798 161.914 58.006C161.914 57.5807 161.833 57.1627 161.672 56.752C161.525 56.3413 161.305 55.9893 161.012 55.696C160.983 55.6667 160.902 55.6227 160.77 55.564C160.638 55.4907 160.455 55.4247 160.22 55.366C160 55.2927 159.743 55.256 159.45 55.256C158.629 55.256 158.027 55.586 157.646 56.246C157.265 56.906 157.074 57.654 157.074 58.49C157.074 58.6367 157.111 58.9153 157.184 59.326C157.272 59.7367 157.345 59.9933 157.404 60.096C157.448 60.1987 157.558 60.3453 157.734 60.536C157.925 60.712 158.152 60.8733 158.416 61.02C158.695 61.152 158.981 61.218 159.274 61.218C159.934 61.218 160.462 61.064 160.858 60.756C161.254 60.4333 161.569 60.008 161.804 59.48ZM166.594 57.764C166.388 57.896 166.176 57.962 165.956 57.962C165.706 57.962 165.472 57.8813 165.252 57.72C165.046 57.5587 164.944 57.3753 164.944 57.17C164.944 56.8767 165.259 56.51 165.89 56.07L166.726 55.454V55.388C166.799 53.4373 166.836 51.5747 166.836 49.8C166.836 49.36 166.872 49.0227 166.946 48.788C167.034 48.5827 167.173 48.4287 167.364 48.326C167.554 48.2087 167.76 48.15 167.98 48.15C168.2 48.15 168.398 48.1867 168.574 48.26C168.75 48.3333 168.867 48.4507 168.926 48.612C168.984 48.788 169.021 48.964 169.036 49.14C169.065 49.3013 169.08 49.536 169.08 49.844C169.08 50.1227 169.065 50.438 169.036 50.79C169.021 51.142 169.014 51.406 169.014 51.582C168.97 52.0807 168.948 52.572 168.948 53.056L168.926 53.914C169.087 53.826 169.248 53.7453 169.41 53.672C169.586 53.5987 169.747 53.562 169.894 53.562C170.128 53.562 170.334 53.65 170.51 53.826C170.7 53.9873 170.796 54.178 170.796 54.398C170.796 54.706 170.561 55.0067 170.092 55.3C169.534 55.6227 169.116 55.9013 168.838 56.136C168.794 57.28 168.772 58.4313 168.772 59.59C168.772 60.1473 168.852 60.58 169.014 60.888C169.19 61.1813 169.417 61.328 169.696 61.328C169.842 61.328 169.982 61.3207 170.114 61.306C170.246 61.2767 170.378 61.262 170.51 61.262C170.656 61.262 170.781 61.3353 170.884 61.482C171.001 61.6287 171.06 61.79 171.06 61.966C171.06 62.318 170.891 62.5967 170.554 62.802C170.231 62.9927 169.791 63.088 169.234 63.088C168.838 63.088 168.434 62.9707 168.024 62.736C167.628 62.4867 167.29 62.1053 167.012 61.592C166.748 61.064 166.616 60.4113 166.616 59.634C166.616 58.7833 166.623 58.16 166.638 57.764H166.594ZM173.505 53.452C174.473 53.452 174.957 54.09 174.957 55.366C174.957 55.5273 174.942 55.8867 174.913 56.444C174.883 57.0893 174.869 57.5953 174.869 57.962C174.869 58.9887 175.008 59.8173 175.287 60.448C175.389 60.6533 175.573 60.8147 175.837 60.932C176.115 61.0493 176.35 61.108 176.541 61.108C176.834 61.108 177.076 61.0713 177.267 60.998C177.457 60.9247 177.633 60.8147 177.795 60.668C177.971 60.5213 178.139 60.36 178.301 60.184C178.579 59.876 178.755 59.524 178.829 59.128C178.917 58.7173 178.968 58.1747 178.983 57.5C178.983 57.0747 179.005 56.664 179.049 56.268C179.137 55.6227 179.181 55.0213 179.181 54.464C179.181 54.156 179.261 53.8993 179.423 53.694C179.599 53.474 179.848 53.364 180.171 53.364C180.332 53.364 180.523 53.4227 180.743 53.54C180.977 53.6427 181.131 53.76 181.205 53.892C181.307 54.068 181.359 54.31 181.359 54.618C181.359 54.8087 181.337 54.9847 181.293 55.146C181.219 55.366 181.183 55.6447 181.183 55.982C181.183 56.158 181.197 56.4513 181.227 56.862C181.271 57.17 181.293 57.4853 181.293 57.808C181.293 58.7907 181.366 59.5167 181.513 59.986C181.674 60.4847 181.894 60.9247 182.173 61.306C182.466 61.614 182.664 61.8413 182.767 61.988C182.869 62.12 182.921 62.2373 182.921 62.34C182.921 62.516 182.833 62.6847 182.657 62.846C182.481 63.0073 182.297 63.088 182.107 63.088C181.564 63.088 181.087 62.9047 180.677 62.538C180.281 62.1567 179.987 61.6727 179.797 61.086C179.635 61.2767 179.423 61.5113 179.159 61.79C178.895 62.0687 178.645 62.296 178.411 62.472C177.839 62.8827 177.105 63.088 176.211 63.088C175.844 63.088 175.441 62.978 175.001 62.758C174.575 62.538 174.187 62.252 173.835 61.9C173.483 61.5333 173.241 61.1447 173.109 60.734C173.094 60.7047 173.05 60.5873 172.977 60.382C172.918 60.1767 172.889 59.8687 172.889 59.458L172.867 55.938C172.867 55.7327 172.815 55.41 172.713 54.97C172.625 54.6767 172.581 54.4567 172.581 54.31C172.581 54.0607 172.661 53.8553 172.823 53.694C172.999 53.5327 173.226 53.452 173.505 53.452ZM198.288 49.228C198.288 49.3747 198.251 49.778 198.178 50.438C198.016 52.0513 197.936 53.6867 197.936 55.344C197.936 56.796 197.958 57.9033 198.002 58.666C198.046 59.4287 198.156 60.0153 198.332 60.426C198.508 60.822 198.779 61.02 199.146 61.02C199.85 61.02 200.202 61.2547 200.202 61.724C200.202 62.032 200.048 62.296 199.74 62.516C199.432 62.7213 199.094 62.824 198.728 62.824C198.288 62.824 197.877 62.7213 197.496 62.516C197.114 62.3107 196.814 61.9953 196.594 61.57C196.286 62.0247 195.838 62.3913 195.252 62.67C194.68 62.934 194.122 63.066 193.58 63.066C192.744 63.066 192.003 62.89 191.358 62.538C190.712 62.186 190.214 61.7093 189.862 61.108C189.51 60.492 189.334 59.8173 189.334 59.084C189.334 58.38 189.414 57.7053 189.576 57.06C189.752 56.4 189.986 55.8573 190.28 55.432C190.676 54.8747 191.204 54.4347 191.864 54.112C192.538 53.7747 193.198 53.606 193.844 53.606C194.24 53.606 194.614 53.6867 194.966 53.848C195.318 53.9947 195.626 54.178 195.89 54.398C195.89 53.4153 195.882 52.7993 195.868 52.55V52.088C195.868 50.724 195.956 49.7267 196.132 49.096C196.293 48.48 196.682 48.172 197.298 48.172C197.635 48.172 197.884 48.2453 198.046 48.392C198.207 48.5387 198.288 48.8173 198.288 49.228ZM191.512 59.04C191.512 59.7147 191.702 60.2573 192.084 60.668C192.48 61.0787 192.949 61.284 193.492 61.284C194.269 61.284 194.841 61.042 195.208 60.558C195.589 60.074 195.78 59.4507 195.78 58.688L195.758 56.51C195.186 55.8793 194.592 55.564 193.976 55.564C193.55 55.564 193.147 55.674 192.766 55.894C192.399 56.0993 192.106 56.4147 191.886 56.84C191.636 57.324 191.512 58.0573 191.512 59.04ZM210.316 55.938C210.434 56.1433 210.529 56.444 210.602 56.84C210.676 57.2213 210.712 57.566 210.712 57.874C210.712 58.2847 210.646 58.798 210.514 59.414C210.382 60.0153 210.272 60.4187 210.184 60.624C209.392 62.2667 207.867 63.088 205.608 63.088C204.89 63.088 204.186 62.8533 203.496 62.384C202.807 61.9 202.316 61.3353 202.022 60.69L201.868 60.25C201.854 60.1913 201.773 59.9713 201.626 59.59C201.494 59.194 201.428 58.8933 201.428 58.688C201.428 58.0867 201.575 57.39 201.868 56.598C202.162 55.806 202.499 55.1753 202.88 54.706C203.13 54.3687 203.606 54.0827 204.31 53.848C205.014 53.5987 205.638 53.474 206.18 53.474C207.192 53.474 208.006 53.6647 208.622 54.046C209.253 54.4273 209.818 55.058 210.316 55.938ZM208.292 59.48C208.351 59.3773 208.402 59.194 208.446 58.93C208.49 58.666 208.512 58.358 208.512 58.006C208.512 57.5807 208.432 57.1627 208.27 56.752C208.124 56.3413 207.904 55.9893 207.61 55.696C207.596 55.6667 207.544 55.6227 207.456 55.564C207.368 55.4907 207.229 55.4247 207.038 55.366C206.848 55.2927 206.606 55.256 206.312 55.256C205.74 55.256 205.256 55.4247 204.86 55.762C204.464 56.0993 204.164 56.5173 203.958 57.016C203.768 57.5147 203.672 58.006 203.672 58.49C203.672 58.622 203.716 58.8933 203.804 59.304C203.892 59.7147 203.958 59.9787 204.002 60.096C204.12 60.3013 204.347 60.5433 204.684 60.822C205.022 61.086 205.403 61.218 205.828 61.218C206.488 61.218 207.002 61.064 207.368 60.756C207.75 60.448 208.058 60.0227 208.292 59.48ZM226.474 55.938C226.591 56.1433 226.686 56.444 226.76 56.84C226.833 57.2213 226.87 57.566 226.87 57.874C226.87 58.446 226.745 59.26 226.496 60.316C225.484 62.164 223.988 63.088 222.008 63.088C221.274 63.088 220.526 62.846 219.764 62.362C219.001 61.878 218.473 61.3207 218.18 60.69C217.784 59.4287 217.586 58.6293 217.586 58.292C217.586 57.7053 217.71 57.082 217.96 56.422C218.224 55.762 218.554 55.19 218.95 54.706C219.199 54.3687 219.646 54.0827 220.292 53.848C220.937 53.5987 221.524 53.474 222.052 53.474C223.078 53.474 223.951 53.672 224.67 54.068C225.388 54.4493 225.99 55.0727 226.474 55.938ZM224.56 59.48C224.633 59.2893 224.67 58.798 224.67 58.006C224.67 57.5807 224.589 57.1627 224.428 56.752C224.281 56.3413 224.061 55.9893 223.768 55.696C223.738 55.6667 223.658 55.6227 223.526 55.564C223.394 55.4907 223.21 55.4247 222.976 55.366C222.756 55.2927 222.499 55.256 222.206 55.256C221.384 55.256 220.783 55.586 220.402 56.246C220.02 56.906 219.83 57.654 219.83 58.49C219.83 58.6367 219.866 58.9153 219.94 59.326C220.028 59.7367 220.101 59.9933 220.16 60.096C220.204 60.1987 220.314 60.3453 220.49 60.536C220.68 60.712 220.908 60.8733 221.172 61.02C221.45 61.152 221.736 61.218 222.03 61.218C222.69 61.218 223.218 61.064 223.614 60.756C224.01 60.4333 224.325 60.008 224.56 59.48ZM237.468 57.478C237.468 58.1527 237.299 58.7247 236.962 59.194C236.624 59.6487 236.177 60.052 235.62 60.404C234.857 60.8147 233.97 61.0273 232.958 61.042C232.899 61.218 232.87 61.4013 232.87 61.592C232.87 61.768 232.965 61.9 233.156 61.988C233.361 62.0613 233.72 62.12 234.234 62.164C234.659 62.1933 235.136 62.2887 235.664 62.45C236.206 62.5967 236.632 62.7653 236.94 62.956C237.321 63.2347 237.585 63.5353 237.732 63.858C237.893 64.1807 237.974 64.584 237.974 65.068C237.974 65.6987 237.68 66.2267 237.094 66.652C236.522 67.092 235.847 67.4147 235.07 67.62C234.292 67.8253 233.61 67.928 233.024 67.928C232.32 67.928 231.718 67.84 231.22 67.664C230.736 67.5027 230.274 67.2753 229.834 66.982C229.526 66.762 229.284 66.4833 229.108 66.146C228.932 65.8087 228.844 65.4567 228.844 65.09C228.844 64.7233 228.961 64.3713 229.196 64.034C229.445 63.6967 229.746 63.4033 230.098 63.154C230.45 62.9193 230.78 62.758 231.088 62.67C230.97 62.5233 230.882 62.3987 230.824 62.296C230.78 62.1787 230.758 62.0467 230.758 61.9C230.758 61.4013 230.882 60.9833 231.132 60.646C230.428 60.4113 229.87 59.9933 229.46 59.392C229.064 58.7907 228.866 58.0867 228.866 57.28C228.866 56.752 228.99 56.2753 229.24 55.85C229.489 55.41 229.834 54.992 230.274 54.596C231.022 53.9213 232.056 53.584 233.376 53.584C233.552 53.584 233.794 53.6133 234.102 53.672C234.41 53.7307 234.71 53.8113 235.004 53.914C235.473 53.7087 236.023 53.496 236.654 53.276C237.284 53.056 237.71 52.946 237.93 52.946C238.267 52.946 238.516 53.0047 238.678 53.122C238.854 53.2247 238.942 53.4593 238.942 53.826C238.942 54.1633 238.744 54.4053 238.348 54.552C237.966 54.6987 237.387 54.838 236.61 54.97C237.182 55.6593 237.468 56.4953 237.468 57.478ZM232.892 59.238C233.742 59.238 234.358 59.062 234.74 58.71C235.136 58.358 235.334 57.83 235.334 57.126C235.334 55.9673 234.652 55.388 233.288 55.388C232.76 55.388 232.342 55.4467 232.034 55.564C231.74 55.6813 231.498 55.8793 231.308 56.158C231.044 56.51 230.912 56.9867 230.912 57.588C230.912 58.0573 231.102 58.4533 231.484 58.776C231.88 59.084 232.349 59.238 232.892 59.238ZM230.912 65.244C230.912 65.4933 231.139 65.706 231.594 65.882C232.063 66.0727 232.562 66.168 233.09 66.168C233.676 66.168 234.278 66.058 234.894 65.838C235.524 65.6327 235.84 65.354 235.84 65.002C235.84 64.4887 235.385 64.1587 234.476 64.012C234.153 63.9533 233.684 63.8433 233.068 63.682C232.994 63.6673 232.906 63.6453 232.804 63.616C232.716 63.5867 232.62 63.5573 232.518 63.528C232.195 63.6453 231.843 63.8873 231.462 64.254C231.095 64.6353 230.912 64.9653 230.912 65.244ZM245.713 47.754C246.021 47.754 246.263 47.82 246.439 47.952C246.63 48.084 246.725 48.2527 246.725 48.458C246.725 48.854 246.535 49.2427 246.153 49.624C245.787 49.9907 245.398 50.2913 244.987 50.526C244.767 50.658 244.481 50.768 244.129 50.856C243.792 50.944 243.535 50.988 243.359 50.988C243.051 50.988 242.897 50.8413 242.897 50.548C242.897 50.46 242.927 50.3793 242.985 50.306C243.044 50.2327 243.169 50.1227 243.359 49.976C243.418 49.9173 243.506 49.8367 243.623 49.734C243.755 49.6167 243.88 49.4847 243.997 49.338C244.115 49.1767 244.232 48.964 244.349 48.7C244.525 48.348 244.716 48.106 244.921 47.974C245.141 47.8273 245.405 47.754 245.713 47.754ZM248.903 55.938C249.021 56.1433 249.116 56.444 249.189 56.84C249.263 57.2213 249.299 57.566 249.299 57.874C249.299 58.446 249.175 59.26 248.925 60.316C247.913 62.164 246.417 63.088 244.437 63.088C243.704 63.088 242.956 62.846 242.193 62.362C241.431 61.878 240.903 61.3207 240.609 60.69C240.213 59.4287 240.015 58.6293 240.015 58.292C240.015 57.7053 240.14 57.082 240.389 56.422C240.653 55.762 240.983 55.19 241.379 54.706C241.629 54.3687 242.076 54.0827 242.721 53.848C243.367 53.5987 243.953 53.474 244.481 53.474C245.508 53.474 246.381 53.672 247.099 54.068C247.818 54.4493 248.419 55.0727 248.903 55.938ZM246.989 59.48C247.063 59.2893 247.099 58.798 247.099 58.006C247.099 57.5807 247.019 57.1627 246.857 56.752C246.711 56.3413 246.491 55.9893 246.197 55.696C246.168 55.6667 246.087 55.6227 245.955 55.564C245.823 55.4907 245.64 55.4247 245.405 55.366C245.185 55.2927 244.929 55.256 244.635 55.256C243.814 55.256 243.213 55.586 242.831 56.246C242.45 56.906 242.259 57.654 242.259 58.49C242.259 58.6367 242.296 58.9153 242.369 59.326C242.457 59.7367 242.531 59.9933 242.589 60.096C242.633 60.1987 242.743 60.3453 242.919 60.536C243.11 60.712 243.337 60.8733 243.601 61.02C243.88 61.152 244.166 61.218 244.459 61.218C245.119 61.218 245.647 61.064 246.043 60.756C246.439 60.4333 246.755 60.008 246.989 59.48ZM251.779 57.764C251.574 57.896 251.361 57.962 251.141 57.962C250.892 57.962 250.657 57.8813 250.437 57.72C250.232 57.5587 250.129 57.3753 250.129 57.17C250.129 56.8767 250.445 56.51 251.075 56.07L251.911 55.454V55.388C251.985 53.4373 252.021 51.5747 252.021 49.8C252.021 49.36 252.058 49.0227 252.131 48.788C252.219 48.5827 252.359 48.4287 252.549 48.326C252.74 48.2087 252.945 48.15 253.165 48.15C253.385 48.15 253.583 48.1867 253.759 48.26C253.935 48.3333 254.053 48.4507 254.111 48.612C254.17 48.788 254.207 48.964 254.221 49.14C254.251 49.3013 254.265 49.536 254.265 49.844C254.265 50.1227 254.251 50.438 254.221 50.79C254.207 51.142 254.199 51.406 254.199 51.582C254.155 52.0807 254.133 52.572 254.133 53.056L254.111 53.914C254.273 53.826 254.434 53.7453 254.595 53.672C254.771 53.5987 254.933 53.562 255.079 53.562C255.314 53.562 255.519 53.65 255.695 53.826C255.886 53.9873 255.981 54.178 255.981 54.398C255.981 54.706 255.747 55.0067 255.277 55.3C254.72 55.6227 254.302 55.9013 254.023 56.136C253.979 57.28 253.957 58.4313 253.957 59.59C253.957 60.1473 254.038 60.58 254.199 60.888C254.375 61.1813 254.603 61.328 254.881 61.328C255.028 61.328 255.167 61.3207 255.299 61.306C255.431 61.2767 255.563 61.262 255.695 61.262C255.842 61.262 255.967 61.3353 256.069 61.482C256.187 61.6287 256.245 61.79 256.245 61.966C256.245 62.318 256.077 62.5967 255.739 62.802C255.417 62.9927 254.977 63.088 254.419 63.088C254.023 63.088 253.62 62.9707 253.209 62.736C252.813 62.4867 252.476 62.1053 252.197 61.592C251.933 61.064 251.801 60.4113 251.801 59.634C251.801 58.7833 251.809 58.16 251.823 57.764H251.779ZM258.69 53.452C259.658 53.452 260.142 54.09 260.142 55.366C260.142 55.5273 260.127 55.8867 260.098 56.444C260.069 57.0893 260.054 57.5953 260.054 57.962C260.054 58.9887 260.193 59.8173 260.472 60.448C260.575 60.6533 260.758 60.8147 261.022 60.932C261.301 61.0493 261.535 61.108 261.726 61.108C262.019 61.108 262.261 61.0713 262.452 60.998C262.643 60.9247 262.819 60.8147 262.98 60.668C263.156 60.5213 263.325 60.36 263.486 60.184C263.765 59.876 263.941 59.524 264.014 59.128C264.102 58.7173 264.153 58.1747 264.168 57.5C264.168 57.0747 264.19 56.664 264.234 56.268C264.322 55.6227 264.366 55.0213 264.366 54.464C264.366 54.156 264.447 53.8993 264.608 53.694C264.784 53.474 265.033 53.364 265.356 53.364C265.517 53.364 265.708 53.4227 265.928 53.54C266.163 53.6427 266.317 53.76 266.39 53.892C266.493 54.068 266.544 54.31 266.544 54.618C266.544 54.8087 266.522 54.9847 266.478 55.146C266.405 55.366 266.368 55.6447 266.368 55.982C266.368 56.158 266.383 56.4513 266.412 56.862C266.456 57.17 266.478 57.4853 266.478 57.808C266.478 58.7907 266.551 59.5167 266.698 59.986C266.859 60.4847 267.079 60.9247 267.358 61.306C267.651 61.614 267.849 61.8413 267.952 61.988C268.055 62.12 268.106 62.2373 268.106 62.34C268.106 62.516 268.018 62.6847 267.842 62.846C267.666 63.0073 267.483 63.088 267.292 63.088C266.749 63.088 266.273 62.9047 265.862 62.538C265.466 62.1567 265.173 61.6727 264.982 61.086C264.821 61.2767 264.608 61.5113 264.344 61.79C264.08 62.0687 263.831 62.296 263.596 62.472C263.024 62.8827 262.291 63.088 261.396 63.088C261.029 63.088 260.626 62.978 260.186 62.758C259.761 62.538 259.372 62.252 259.02 61.9C258.668 61.5333 258.426 61.1447 258.294 60.734C258.279 60.7047 258.235 60.5873 258.162 60.382C258.103 60.1767 258.074 59.8687 258.074 59.458L258.052 55.938C258.052 55.7327 258.001 55.41 257.898 54.97C257.81 54.6767 257.766 54.4567 257.766 54.31C257.766 54.0607 257.847 53.8553 258.008 53.694C258.184 53.5327 258.411 53.452 258.69 53.452Z" fill="black"/>
</g>
<defs>
<clipPath id="clip0_0_1384">
<rect width="330.67" height="83.77" fill="white"/>
</clipPath>
</defs>
</svg>
