<svg width="197" height="60" viewBox="0 0 197 60" fill="none" xmlns="http://www.w3.org/2000/svg">
<g clip-path="url(#clip0_38_4798)">
<path d="M37.5189 46.1098C38.2349 43.6755 39.3805 41.3843 40.6693 39.0931C40.5261 42.1003 40.2397 45.2506 40.0965 48.2578C39.9533 50.6922 39.5237 53.2697 38.0917 55.4177C36.6598 52.5537 36.6598 49.117 37.5189 46.1098ZM32.2206 15.4654C32.3638 15.6086 32.3638 16.0382 32.507 16.3246L32.3638 16.4678C32.3638 16.611 32.2206 16.8974 32.2206 17.0406C32.0774 17.0406 31.9342 16.8974 31.6478 16.8974C31.791 16.611 31.9342 16.0382 32.2206 15.4654ZM34.2254 28.3533C34.2254 28.2101 34.2254 28.2101 34.2254 28.3533C34.2254 28.2101 34.3686 28.2101 34.2254 28.3533C34.3686 28.3533 34.2254 28.3533 34.2254 28.3533ZM38.8077 18.759C38.9509 17.0406 39.0941 15.3222 39.8101 13.6039C39.9533 13.3175 40.0965 13.1743 40.2397 13.0311C40.0965 13.1743 39.9533 13.4607 39.9533 13.8903C39.9533 16.1814 39.5237 18.6158 38.8077 20.7638C38.6645 20.191 38.8077 19.475 38.8077 18.759ZM38.5213 56.2769C38.8077 55.9905 38.9509 55.5609 39.2373 55.2745C39.0941 55.5609 38.8077 55.9905 38.5213 56.2769ZM7.87693 30.6444C6.73135 31.2172 5.44257 30.5012 4.72658 29.642C3.72419 28.3533 3.43779 26.7781 3.1514 25.2029C2.865 23.3413 2.865 21.4798 2.865 19.6182C2.865 17.7566 3.1514 15.895 3.58099 14.1767C3.72419 13.7471 3.72419 13.4607 3.86739 13.0311C3.72419 14.0335 3.58099 15.0358 3.58099 16.0382C3.43779 19.6182 3.58099 23.3413 4.72658 26.7781C5.15617 28.2101 5.72896 29.9284 7.16094 30.358C7.59054 30.5012 8.02013 30.5012 8.30653 30.358C8.16333 30.5012 8.02013 30.5012 7.87693 30.6444ZM47.1132 23.3413C46.1108 24.4869 45.3948 25.7757 44.5356 26.9213C44.5356 25.7757 44.3924 24.6301 44.2492 23.4845C44.106 21.4798 44.1061 19.475 43.8197 17.4702C43.6765 15.895 43.2469 14.3199 42.1013 13.1743C41.2421 12.3151 39.9533 11.5991 39.2373 12.8879C37.5189 15.895 38.2349 19.7614 37.6621 23.0549C37.5189 23.6277 37.3757 24.0573 37.2325 24.6301C36.8029 25.6325 36.2302 26.4917 35.6574 27.4941C35.6574 27.4941 35.6574 27.4941 35.6574 27.6373C35.5142 27.7805 35.5142 27.7805 35.371 27.9237C35.0846 27.9237 34.655 27.7805 34.3686 27.4941C33.6526 26.6349 33.6526 25.2029 33.5094 24.2005C33.3662 22.6253 33.223 21.0502 33.0798 19.6182C33.0798 19.3318 33.223 19.1886 33.223 18.9022C33.223 18.6158 33.223 18.3294 33.0798 18.1862C33.0798 17.0406 33.3662 15.0358 31.9342 14.8926C31.791 14.8926 31.6478 15.0358 31.6478 15.0358C31.3614 15.895 31.075 16.611 30.7886 17.4702C30.5022 17.6134 30.359 17.8998 30.2158 18.3294C30.0726 18.6158 30.0726 19.0454 30.0726 19.3318C29.643 21.9094 28.9271 24.4869 27.7815 27.0645C27.3519 28.2101 26.7791 29.3557 25.7767 30.0716C25.4903 30.2148 25.0607 30.6444 24.9175 30.5012C25.0607 30.5012 24.9175 30.6444 24.7743 30.358C24.6311 30.2148 24.6311 30.0716 24.6311 29.9284C24.2015 28.6397 23.7719 27.4941 22.6263 26.7781C22.1967 26.4917 21.9103 26.3485 21.4808 26.2053C22.4831 24.0573 23.4855 22.0525 24.4879 19.9046C25.0607 19.3318 25.4903 18.4726 25.4903 17.6134C25.6335 16.0382 23.3423 15.179 22.6263 16.7542C22.3399 17.1838 22.1967 17.7566 21.9103 18.1862C21.3376 18.6158 20.6216 18.759 20.0488 18.6158C18.4736 18.3294 17.1848 16.7542 16.1824 15.6086C15.6096 14.8926 14.1776 14.6062 13.7481 15.7518C13.6049 16.0382 13.6049 16.1814 13.4617 16.4678C13.3185 16.4678 13.1753 16.611 13.1753 16.7542C13.0321 17.1838 13.0321 17.6134 12.8889 18.043C11.8865 21.0502 10.7409 24.0573 9.73851 26.9213C9.59531 27.4941 9.45211 28.0669 9.16572 28.6397C9.02252 28.7829 9.02252 28.7829 8.87932 28.9261C8.44973 29.3557 7.73374 29.7852 7.01775 29.642C6.30175 29.3557 6.01536 28.6397 5.72896 28.0669C4.58338 25.2029 4.29698 22.0525 4.29698 19.1886C4.29698 16.7542 4.15378 14.1767 5.01297 11.8855C5.44257 10.5967 6.30175 9.02153 7.59054 8.44873C8.59292 7.73274 9.59531 8.44873 9.88171 9.30792C9.88171 9.45112 9.88171 9.59432 9.73851 9.88071C9.59531 10.1671 9.73851 10.3103 9.73851 10.5967C9.73851 10.7399 10.0249 11.0263 10.1681 11.0263C10.5977 11.4559 11.3137 11.5991 11.7433 11.0263C14.0345 7.58954 9.02252 4.15279 5.87216 5.44157C2.14901 7.01675 1.00343 11.7423 0.430633 15.3222C0.00103905 17.6134 0.00103903 20.0478 0.144237 22.4821C0.287435 24.6301 0.573831 27.0645 1.43302 29.0693C2.14901 31.074 3.58099 32.6492 5.72896 33.3652C7.59054 33.938 9.73851 33.6516 11.0273 31.9332C11.7433 30.9308 12.1729 29.7852 12.6025 28.6397C13.0321 27.3509 13.4617 26.0621 13.8913 24.7733C14.6072 22.7685 15.18 20.907 15.896 18.9022C16.0392 18.9022 16.0392 19.0454 16.1824 19.0454C17.4712 20.191 18.76 21.0502 20.4784 21.1934C19.7624 22.7685 18.9032 24.3437 18.1872 25.9189C16.0392 26.9213 15.18 29.4989 15.896 31.6468C16.3256 32.7924 18.044 32.9356 18.6168 31.79C19.1896 30.6444 19.7624 29.4988 20.3352 28.3533C20.7648 28.3533 21.0512 28.4965 21.3376 28.7829C21.6239 29.2125 21.7671 29.642 21.9103 30.0716C22.0535 30.6444 22.3399 31.2172 22.7695 31.79C23.6287 32.7924 24.9175 33.222 26.2063 32.7924C28.7839 32.0764 29.9294 29.3557 30.7886 27.2077C31.3614 28.9261 32.2206 30.5012 33.3662 32.0764C33.939 32.7924 35.0846 32.9356 35.6574 32.2196C37.9485 29.4989 39.6669 26.3485 40.9557 23.0549C41.0989 24.4869 41.2421 26.0621 41.2421 27.4941L41.0989 30.0716C41.0989 30.7876 40.9557 31.5036 40.9557 32.2196C39.8101 33.938 38.8077 35.6564 37.8053 37.5179C35.371 41.9571 33.3662 46.8258 34.0822 51.981C34.3686 54.5585 35.5142 57.1361 37.2325 59.1409C37.8053 59.7136 38.5213 60 39.3805 59.5704C41.5285 58.1385 42.2445 55.5609 42.6741 53.1265C43.2469 49.9762 43.6765 46.8258 43.9629 43.6755C44.2492 40.0955 44.3924 36.6588 44.3924 33.0788C44.5356 32.9356 44.5356 32.7924 44.6788 32.6492C46.3972 29.9284 48.1156 27.3509 49.4044 24.6301C49.9772 23.4845 47.9724 22.1957 47.1132 23.3413Z" fill="black"/>
<path d="M118.712 16.611C118.283 16.4678 117.71 16.3246 117.28 16.4678C116.851 16.611 116.564 17.1838 116.421 17.6134C115.848 18.759 115.132 19.9046 114.559 21.0502C114.416 21.1934 114.416 21.4798 114.273 21.6229C114.559 20.191 114.989 18.759 115.705 17.4702C115.848 17.0406 116.135 16.7542 116.421 16.3246C116.564 16.0382 116.851 15.6086 117.137 15.6086C117.71 15.4654 118.712 16.1814 119.285 16.4678C119.715 16.7542 120.287 17.0406 120.717 17.327C119.858 16.8974 119.285 16.7542 118.712 16.611ZM103.533 26.4917C103.533 26.6349 103.676 26.9213 103.82 27.0645H103.676C103.533 27.0645 103.39 27.0645 103.247 27.0645C103.39 26.7781 103.533 26.6349 103.533 26.4917ZM87.2086 27.3509C87.3518 27.2077 87.4949 26.9213 87.7813 26.7781C87.9245 26.6349 88.0677 26.3485 88.3541 26.2053C88.3541 26.2053 88.3541 26.3485 88.4973 26.3485C87.9245 26.6349 87.4949 27.0645 87.2086 27.3509ZM82.6262 30.7876C82.483 30.9308 82.0534 31.2172 81.9102 31.2172C81.4806 31.2172 81.1942 30.7876 81.1942 30.358C80.9078 29.3556 80.7646 28.3533 80.6214 27.3509C80.1918 23.7709 80.7646 20.191 81.1942 16.611C81.3374 16.611 81.4806 16.611 81.6238 16.4678C81.1942 19.9046 80.9078 23.1981 81.051 26.6349C81.051 27.6373 81.3374 28.6397 82.1966 29.3556C82.7694 29.7852 83.6286 29.9284 84.3446 29.7852C84.2014 29.9284 84.2014 29.9284 84.0582 30.0716C83.4854 30.2148 83.0558 30.5012 82.6262 30.7876ZM97.2324 14.6062C97.8052 14.6062 99.2372 14.7494 99.6668 15.4654C99.2372 15.895 98.5212 16.1814 98.2348 16.4678C97.5188 16.8974 96.6596 17.1838 95.9436 17.327C94.9412 17.6134 93.7957 17.6134 92.7933 17.6134C93.0797 17.1838 93.5093 16.7542 93.7957 16.4678C94.6549 15.3222 95.8004 14.6062 97.2324 14.6062ZM97.5188 20.0478C96.5164 20.6206 95.2276 20.907 94.0821 20.907C93.0797 20.907 92.0773 20.7638 91.0749 20.4774C91.2181 20.191 91.2181 20.0478 91.3613 19.7614C93.3661 20.4774 95.6572 20.3342 97.662 19.7614C97.9484 19.6182 98.0916 19.6182 98.378 19.475C98.0916 19.6182 97.8052 19.7614 97.5188 20.0478ZM76.7551 16.611C76.6119 17.0406 76.4687 17.4702 76.4687 17.8998C76.4687 17.1838 76.4687 16.611 76.4687 15.895C76.6119 16.0382 76.8983 16.0382 77.0415 16.1814C76.8983 16.1814 76.8983 16.4678 76.7551 16.611ZM66.4448 26.2053C66.3016 26.4917 66.1584 26.6349 66.0152 26.9213C66.7312 25.2029 67.4472 23.4845 68.1632 21.7661C68.1632 22.0525 68.3064 22.3389 68.3064 22.6253C67.8768 23.7709 67.304 25.0597 66.4448 26.2053ZM63.1513 11.4559C63.7241 11.4559 63.7241 12.3151 63.7241 12.7447C63.5809 12.6015 63.5809 12.6015 63.4377 12.4583C63.4377 12.1719 63.4377 12.0287 63.2945 11.7423C63.2945 11.7423 63.2945 11.5991 63.1513 11.5991L63.0081 11.4559C63.0081 11.4559 63.0081 11.4559 63.1513 11.4559ZM129.452 25.6325C129.166 24.0573 126.874 23.7709 126.588 25.4893C126.445 26.3485 126.588 27.3509 126.158 28.2101C126.015 28.6397 125.586 29.2124 125.156 29.0692C124.87 29.0692 124.583 28.4965 124.44 28.3533C124.154 28.0669 123.867 27.6373 123.581 27.3509C122.865 26.4917 122.149 25.7757 121.146 25.3461C122.865 22.4821 124.583 19.7614 126.302 16.8974C126.731 16.4678 127.018 16.0382 127.161 15.6086C127.304 14.8926 127.018 14.0335 126.445 13.7471C125.872 13.4607 124.87 13.3175 124.44 14.0334C124.297 14.3198 124.01 14.6062 123.867 14.8926C123.724 14.8926 123.581 15.0358 123.438 15.0358C122.865 15.179 122.292 15.0358 121.862 14.8926C120.144 14.1766 118.569 12.8879 116.707 12.8879C114.703 13.0311 113.7 15.179 113.127 16.8974C112.698 17.8998 112.411 19.0454 112.268 20.191C112.125 19.9046 111.982 19.7614 111.839 19.475C110.979 17.8998 109.691 16.1814 109.834 14.3198C109.977 12.7447 107.543 11.7423 106.827 13.4607C105.681 16.3246 103.82 18.9022 101.815 21.1934C99.9532 23.3413 97.8052 25.9189 94.9413 26.6349C92.7933 27.2077 90.5021 26.3485 90.3589 23.9141C90.3589 23.0549 90.5021 22.1957 90.7885 21.3366C92.9365 22.4821 95.6572 22.1957 97.662 21.1934C98.9508 20.6206 100.096 19.6182 100.956 18.4726C101.815 17.8998 102.817 17.0406 102.674 15.895C102.388 13.7471 99.81 12.4583 97.9484 12.1719C95.6572 11.8855 93.6525 12.7447 91.9341 14.3198C89.7861 16.3246 87.6381 19.7614 87.4949 23.0549C86.3494 23.9141 85.347 24.9165 84.3446 26.0621C84.3446 25.6325 84.3446 25.3461 84.3446 24.9165C84.4878 21.3366 84.7742 17.7566 85.347 14.1766C85.4902 12.7447 83.3422 11.5991 82.483 12.8879C80.7646 15.3222 77.4711 13.6039 75.4663 12.6015C74.7503 12.1719 73.3183 12.6015 73.3183 13.7471C73.4615 16.1814 73.4615 18.759 73.3183 21.1934C73.3183 22.4821 73.1751 23.7709 73.0319 25.0597C73.0319 25.4893 73.0319 25.9189 72.8887 26.2053C72.6023 25.7757 72.4591 25.4893 72.316 25.0597C71.8864 24.2005 71.6 23.1981 71.3136 22.3389C70.7408 20.191 70.5976 18.043 70.4544 15.895C70.3112 14.6062 68.02 13.8903 67.5904 15.3222C66.3016 18.759 65.0128 22.0525 63.7241 25.4893C63.7241 24.3437 63.7241 23.3413 63.7241 22.1957C63.7241 20.0478 63.8673 18.043 64.1537 15.895C64.2969 15.6086 64.2969 15.4654 64.4401 15.179C64.2969 14.3198 64.4401 13.7471 64.4401 13.3175C64.5833 12.4583 64.5833 11.4559 63.8673 11.0263C63.5809 10.7399 63.1513 10.5967 62.7217 10.7399C62.2921 10.8831 62.1489 11.1695 62.0057 11.5991C61.8625 12.0287 61.5761 12.6015 61.4329 13.0311C60.7169 13.7471 59.8577 14.1766 58.8553 14.463C58.5689 14.6062 58.7121 15.0358 58.9985 15.0358C59.1417 15.0358 59.2849 15.0358 59.4281 14.8926H59.5713H59.7145C59.5713 14.8926 59.5713 15.0358 59.4281 15.0358C59.1417 15.179 59.4281 15.6086 59.5713 15.4654C60.1441 15.3222 60.7169 15.0358 61.0033 14.6062C61.0033 14.6062 61.0033 14.6062 61.0033 14.463C60.5737 17.4702 60.2873 20.3342 60.2873 23.3413C60.2873 25.6325 59.8577 30.7876 63.4377 30.5012C64.0105 30.5012 64.2969 30.2148 64.5833 29.642C64.5833 29.4988 64.7265 29.3556 64.7265 29.2124C65.2992 28.6397 65.872 27.9237 66.3016 27.2077C67.0176 26.0621 67.7336 24.9165 68.3064 23.7709C68.5928 24.7733 69.0224 25.9189 69.5952 26.7781C70.3112 27.9237 71.1704 29.3556 72.6023 29.4988C75.7527 29.9284 75.6095 24.9165 75.7527 22.9117C75.7527 22.4821 75.7527 22.0525 75.8959 21.6229C75.8959 21.4798 76.0391 21.3366 76.0391 21.1934C76.3255 20.3342 76.4687 19.3318 76.7551 18.4726C76.8983 18.043 77.0415 16.611 77.6143 16.3246C78.3303 16.4678 79.1895 16.611 80.0486 16.611C80.1918 16.611 80.1918 16.611 80.335 16.611C79.4759 20.907 79.0463 25.3461 80.0486 29.4988C80.1918 30.2148 80.335 31.3604 81.051 31.79C81.767 32.2196 82.6262 31.6468 83.3422 31.2172C85.2038 30.0716 87.2086 28.6397 88.6405 27.0645C89.7861 28.3533 91.3613 29.2124 93.0797 29.3556C95.3708 29.4988 97.662 28.7829 99.5236 27.3509C101.672 25.7757 103.533 23.6277 105.252 21.4798C106.111 20.3342 106.97 19.1886 107.686 18.043C107.829 18.1862 107.829 18.3294 107.972 18.4726C108.115 18.759 108.259 19.0454 108.545 19.475C109.261 21.0502 109.834 22.9117 109.261 24.6301C108.831 25.7757 107.972 26.7781 106.827 27.2077C106.254 27.3509 105.538 27.4941 104.965 27.0645C104.392 26.7781 104.249 26.2053 104.392 25.6325C104.392 25.4893 104.392 25.3461 104.249 25.2029C104.392 25.0597 104.106 24.6301 103.82 24.7733C102.96 25.3461 102.244 26.3485 102.101 27.3509C101.815 27.7805 101.815 28.3533 102.244 28.7829C103.104 29.7852 104.249 30.2148 105.538 30.358C106.683 30.5012 107.972 30.358 108.975 29.7852C110.979 28.9261 112.411 26.9213 112.841 24.7733C112.841 24.4869 112.841 24.2005 112.984 23.9141C113.127 23.7709 113.127 23.7709 113.271 23.6277C113.414 23.3413 113.557 23.1981 113.7 22.9117C113.987 22.4821 114.273 21.9093 114.559 21.4798C115.132 20.4774 115.705 19.475 116.278 18.4726C116.564 18.043 116.707 17.4702 117.137 17.0406C117.28 16.7542 117.567 16.7542 117.853 16.8974C118.139 16.8974 118.426 17.0406 118.712 17.1838C119.285 17.327 119.858 17.4702 120.287 17.6134C120.717 17.7566 121.147 17.8998 121.433 17.8998C120.144 20.0478 118.712 22.1957 117.423 24.4869C116.707 24.6301 116.135 25.0597 115.705 25.6325C115.132 26.3485 114.846 27.2077 114.703 28.0669C114.559 28.7829 114.416 29.4988 113.987 30.0716C112.984 31.6468 115.419 33.6516 116.564 32.0764C117.567 30.5012 118.569 28.9261 119.428 27.3509C120.431 27.7805 121.29 29.2124 121.719 29.7852C123.008 31.5036 125.013 32.6492 127.161 31.3604C129.452 30.2148 129.882 27.6373 129.452 25.6325Z" fill="black"/>
<path d="M82.625 2.00477C82.625 2.14797 82.7682 2.29117 82.7682 2.43437C82.7682 2.43437 82.7682 2.57757 82.9114 2.57757C83.0546 2.72076 83.0546 2.86396 83.1978 3.00716C83.341 3.15036 83.4842 3.29356 83.6274 3.43675C83.7706 3.57995 83.9138 3.57995 84.057 3.72315C84.2002 3.86635 84.4866 3.86635 84.773 4.00955C84.773 4.00955 84.773 4.00955 84.9162 4.00955H85.0594C85.2026 4.00955 85.3458 4.00955 85.6322 4.00955C85.7754 4.00955 85.9186 3.86635 86.0618 3.86635C86.205 3.72315 86.3482 3.72315 86.4914 3.57995C86.4914 3.57995 86.4913 3.57995 86.6345 3.43675C86.7777 3.29356 86.7777 3.15036 86.9209 3.00716V2.86396C86.9209 2.86396 86.9209 2.86396 86.9209 2.72076C86.9209 2.57757 86.9209 2.43437 87.0641 2.29117C87.0641 2.14797 87.0641 2.14797 87.0641 2.00477C87.0641 1.86158 87.0641 1.86158 87.0641 1.71838C87.0641 1.71838 87.0641 1.71838 87.0641 1.57518C87.0641 1.43198 86.9209 1.28878 86.9209 1.14558C86.7777 1.00239 86.7777 0.859188 86.6345 0.71599C86.4913 0.429594 86.205 0.286396 85.9186 0.143198C85.3458 0 85.0594 0 84.773 0C84.6298 0 84.4866 0 84.3434 0C84.2002 0 84.057 0.143198 83.9138 0.286396C83.7706 0.286396 83.6274 0.286396 83.6274 0.286396C83.4842 0.286396 83.341 0.429594 83.1978 0.429594C83.0546 0.71599 83.0546 0.859189 82.9114 0.859189L82.7682 1.14558C82.625 1.28878 82.625 1.43198 82.7682 1.57518C82.625 1.86158 82.625 1.86158 82.625 2.00477Z" fill="black"/>
<path d="M168.259 27.7804C168.259 26.7781 168.403 25.9189 168.689 24.9165C168.975 25.0597 169.262 25.3461 169.691 25.4893C169.262 26.3485 169.119 27.2077 169.119 28.0668C169.119 29.3556 169.405 30.6444 169.978 31.79C170.694 32.9356 171.696 33.938 172.985 34.654C173.128 34.7972 173.414 34.9403 173.558 34.9403C173.128 34.9403 172.555 34.7972 172.126 34.654C169.405 33.6516 168.116 30.6444 168.259 27.7804ZM172.412 19.475C173.271 18.9022 174.703 18.759 175.562 19.475C175.992 19.9045 176.135 20.4773 175.992 21.0501C175.419 21.3365 174.99 21.6229 174.56 21.9093C173.987 22.1957 173.414 22.4821 172.698 22.4821C172.126 22.4821 171.696 22.3389 171.267 22.0525C170.98 21.9093 170.837 21.7661 170.694 21.6229L170.551 21.4797C170.98 20.6205 171.553 19.9045 172.412 19.475ZM172.842 23.7709C171.696 23.7709 170.694 23.1981 169.835 22.4821C169.978 22.3389 169.978 22.1957 170.121 21.9093C170.264 22.1957 170.407 22.3389 170.694 22.4821C171.267 22.9117 171.839 23.0549 172.555 23.1981C173.271 23.1981 173.987 23.0549 174.703 22.7685C174.99 22.6253 175.276 22.4821 175.562 22.3389C174.99 23.1981 173.987 23.7709 172.842 23.7709ZM152.937 35.2267C152.364 35.7995 151.648 36.3723 151.076 36.9451C150.646 37.3747 150.216 37.8043 149.787 38.2339C150.789 36.5155 151.792 34.7972 152.651 33.0788C152.651 33.0788 152.651 33.222 152.794 33.222C153.08 33.6516 153.51 34.0812 153.796 34.654C153.51 34.7972 153.224 35.0835 152.937 35.2267ZM149.357 22.7685C149.214 22.0525 148.641 20.9069 148.928 20.1909C149.071 19.7614 149.5 19.475 149.93 19.3318C149.644 20.6205 149.5 22.0525 149.5 23.3413C149.357 23.0549 149.357 22.9117 149.357 22.7685ZM178.14 32.6492C178.14 32.7924 177.997 32.9356 177.997 33.0788C177.138 33.6516 176.708 34.7971 175.419 34.7971C173.987 34.7971 172.698 33.7948 171.696 32.9356C170.694 31.9332 170.121 30.7876 169.835 29.3556C169.691 28.6396 169.835 27.7804 169.978 27.0645C170.121 26.6349 170.264 26.3485 170.407 25.9189C172.842 26.9213 175.706 26.9213 177.71 24.6301C178.856 23.3413 179.429 21.3365 178.999 19.6182C178.426 17.4702 176.422 16.1814 174.274 16.0382C170.694 15.7518 168.116 18.4726 166.684 21.6229C166.684 21.7661 166.541 21.9093 166.541 21.9093C166.111 22.7685 165.825 23.7709 165.682 24.6301C165.539 25.0597 165.539 25.6325 165.395 26.0621C164.966 27.494 164.393 28.926 163.82 30.2148C163.247 31.5036 162.675 32.7924 161.959 33.938C161.529 34.7972 160.813 36.0859 159.811 36.3723C158.951 36.5155 158.379 35.6563 157.806 35.2267C156.947 34.2244 156.231 32.9356 155.372 31.9332C155.085 31.5036 154.656 30.9308 154.226 30.358C155.658 27.7804 156.947 25.2029 158.235 22.6253C159.238 21.7661 159.954 20.3341 159.954 18.9022C159.954 17.327 157.806 16.4678 157.09 18.043C156.66 18.9022 156.231 19.9045 155.658 20.7637C155.515 20.9069 155.228 20.9069 154.942 20.9069C154.226 20.7637 153.653 19.9045 153.224 19.475C153.08 19.3318 152.937 19.1886 152.651 19.0454V18.9022C152.651 18.1862 152.221 17.6134 151.505 17.327C150.932 17.1838 150.073 17.327 149.93 18.043C149.071 18.1862 148.212 18.6158 147.925 19.6182C147.639 20.4773 148.068 21.4797 148.355 22.1957C148.641 23.1981 148.784 24.2005 149.214 25.0597C149.214 25.2029 149.357 25.2029 149.357 25.2029C149.357 25.3461 149.357 25.4893 149.357 25.7757C149.5 27.0645 151.505 27.0645 151.505 25.6325C151.505 24.4869 151.505 23.4845 151.648 22.4821C152.221 23.0549 153.08 23.4845 153.94 23.6277C153.08 25.3461 152.078 27.0645 151.219 28.7828C150.073 28.926 149.214 29.9284 148.498 30.7876C146.636 33.222 145.491 36.2291 145.348 39.3795C145.348 40.0955 145.777 40.6683 146.35 40.9547C146.923 41.2411 147.782 41.0979 148.068 40.6683C148.212 40.3819 148.355 40.2387 148.498 39.9523C148.928 39.6659 149.214 39.2363 149.644 38.9499C150.216 38.3771 150.932 37.8043 151.505 37.3747C152.078 36.8019 152.794 36.3723 153.367 35.7995C153.653 35.6563 153.796 35.3699 154.083 35.2267C154.369 35.6563 154.656 36.2291 155.085 36.6587C156.66 38.6635 159.095 40.3819 161.672 38.9499C162.818 38.3771 163.534 37.2315 164.107 36.0859C164.823 34.9403 165.395 33.6516 165.968 32.506C166.684 34.2244 167.83 35.6563 169.405 36.8019C171.41 38.2339 173.844 38.6635 176.135 38.0907C178.283 37.5179 180.145 36.0859 180.861 33.938C181.577 32.2196 178.999 30.9308 178.14 32.6492Z" fill="black"/>
<path d="M155.656 13.031C156.229 13.031 156.658 12.7446 157.088 12.4582C157.231 12.315 157.374 12.1718 157.517 12.0286C157.661 11.8854 157.661 11.7422 157.804 11.599C157.804 11.599 157.804 11.4558 157.947 11.4558C157.947 11.3126 158.09 11.1694 158.09 10.8831C158.09 10.4535 158.09 10.1671 157.947 9.73747C157.804 9.45107 157.661 9.16468 157.374 9.02148C157.088 8.73508 156.945 8.59188 156.658 8.44869C156.515 8.30549 156.372 8.30549 156.085 8.30549H155.942C155.656 8.30549 155.513 8.30549 155.226 8.30549C154.94 8.16229 154.51 8.01909 154.081 8.30549C153.365 8.87828 152.935 9.88067 153.078 10.8831C153.078 12.1718 154.224 13.1742 155.656 13.031Z" fill="black"/>
<path d="M194.175 37.3747C193.316 37.5179 192.6 36.9451 192.17 36.0859C192.313 36.2291 192.457 36.2291 192.6 36.3723H192.743C192.886 36.5155 193.173 36.5155 193.316 36.5155C193.745 36.5155 194.175 36.5155 194.605 36.3723C195.321 36.0859 195.75 35.6563 196.037 34.9403V35.0835C195.893 36.2291 195.177 37.2315 194.175 37.3747ZM196.037 32.2196C195.893 31.9332 195.893 31.79 195.75 31.5036C195.464 31.074 194.891 30.7876 194.461 30.7876C194.175 30.7876 193.889 30.7876 193.602 30.7876C193.459 30.7876 193.459 30.7876 193.316 30.9308C192.886 31.074 192.457 31.2172 192.17 31.5036C191.884 31.6468 191.741 31.9332 191.597 32.0764L191.454 32.2196C191.311 32.3628 191.311 32.506 191.168 32.6492C191.168 32.7924 191.168 32.9356 191.025 32.9356C191.025 33.222 190.881 33.3652 191.025 33.6516C191.025 33.938 191.168 34.2244 191.311 34.3675V34.5107C191.311 34.9403 191.311 35.3699 191.454 35.7995C191.884 37.0883 192.886 38.0907 194.318 37.9475C195.607 37.8043 196.609 36.6587 196.896 35.3699C197.039 34.3676 196.753 33.222 196.323 32.2196C196.18 32.3628 196.037 32.3628 196.037 32.2196Z" fill="black"/>
<path d="M193.89 23.9141C193.031 24.2005 192.172 23.4845 191.742 22.7686L191.885 22.9118C192.458 23.3413 193.031 23.4845 193.747 23.4845C193.89 23.4845 194.033 23.4845 194.32 23.3413C194.463 23.3413 194.463 23.3413 194.606 23.1981C194.749 23.055 194.892 23.0549 195.036 22.9118C195.036 22.9118 195.036 22.9118 195.179 22.7686C194.892 23.4845 194.463 23.7709 193.89 23.9141ZM195.322 18.6158C196.038 18.9022 196.181 19.475 196.038 20.191C195.895 19.7614 195.608 19.3318 195.322 19.0454C195.179 18.9022 195.036 18.759 194.749 18.759C194.606 18.6158 194.32 18.6158 194.176 18.6158C194.606 18.6158 195.036 18.4726 195.322 18.6158ZM195.895 18.043C195.036 17.4702 193.604 17.6134 193.031 18.4726C192.601 18.759 192.028 19.1886 191.742 19.6182C191.456 19.7614 191.312 20.0478 191.169 20.3342C191.169 20.4774 191.026 20.6206 191.026 20.7638C190.883 21.1934 190.883 21.623 190.883 21.9094C191.026 23.3413 192.172 24.6301 193.604 24.6301C195.036 24.6301 196.038 23.1981 196.468 21.9094C197.04 20.7638 197.327 18.9022 195.895 18.043Z" fill="black"/>
<path d="M134.32 33.12C134.027 33.12 133.813 33.0667 133.68 32.96C133.36 32.7733 133.08 32.5333 132.84 32.24C132.6 31.92 132.48 31.48 132.48 30.92C132.507 30.52 132.6 30.1733 132.76 29.88C132.92 29.56 133.147 29.3333 133.44 29.2C134 28.9067 134.72 28.76 135.6 28.76C136.24 28.76 136.76 29 137.16 29.48C137.56 29.9333 137.76 30.4933 137.76 31.16C137.76 31.96 137.52 32.88 137.04 33.92C136.587 34.9867 136.133 35.8133 135.68 36.4C135.333 36.8 134.933 37.1467 134.48 37.44C134.053 37.7333 133.68 37.88 133.36 37.88C132.72 37.88 132.307 37.7733 132.12 37.56C131.96 37.3733 131.88 37.0267 131.88 36.52C131.88 36.3067 132.16 35.9733 132.72 35.52C133.173 35.12 133.453 34.84 133.56 34.68C133.96 34.1467 134.253 33.6267 134.44 33.12H134.32Z" fill="black"/>
</g>
<defs>
<clipPath id="clip0_38_4798">
<rect width="196.897" height="60" fill="white"/>
</clipPath>
</defs>
</svg>
