<svg width="159" height="31" viewBox="0 0 159 31" fill="none" xmlns="http://www.w3.org/2000/svg">
<g clip-path="url(#clip0_38_4833)">
<path d="M81.5157 25.4794C82.7894 25.6918 84.0631 25.6918 85.3368 25.4794C86.6105 25.2671 87.4596 24.6301 87.4596 23.1438C87.4596 21.2329 87.6719 19.1096 87.4596 17.1986C87.4596 15.9246 86.8228 15.2876 85.3368 15.0753C84.0631 14.863 82.7894 15.2876 81.728 15.7123C81.5157 15.7123 81.5157 15.9246 81.5157 16.137C81.5157 17.8356 81.5157 19.7466 81.5157 21.4452V25.4794ZM74.7227 1.69861C77.0578 1.27395 79.1806 1.06162 81.5157 0.636963V10.4041C82.3648 10.1918 83.214 9.97943 84.2754 9.97943C86.3982 9.7671 88.5211 9.7671 90.6439 10.4041C92.5544 11.0411 93.8281 12.315 94.0404 14.226C94.2527 15.2876 94.2527 16.3493 94.2527 17.4109C94.2527 19.5342 94.2527 21.6575 94.2527 23.7808C94.2527 25.9041 93.6159 27.6027 91.7053 29.089C90.4316 29.9383 89.1579 30.363 87.6719 30.5753C84.7 31 81.728 31 78.756 30.5753C77.4823 30.363 76.4209 30.1507 75.1472 30.1507C74.7227 30.1507 74.7227 29.9383 74.7227 29.726C74.7227 29.5137 74.7227 29.3013 74.7227 29.089C74.7227 20.1712 74.7227 11.2534 74.7227 2.12326C74.7227 2.12326 74.7227 1.91094 74.7227 1.69861Z" fill="black"/>
<path d="M159 30.5754H157.727C155.816 30.5754 154.118 30.5754 152.207 30.5754C151.783 30.5754 151.57 30.3631 151.358 30.1507C149.448 27.1781 147.749 24.4179 145.839 21.4453C145.839 21.4453 145.839 21.2329 145.626 21.0206V30.3631C145.414 30.3631 145.202 30.3631 144.99 30.3631C143.079 30.3631 141.168 30.3631 139.258 30.3631C138.833 30.3631 138.621 30.1507 138.621 29.7261C138.621 27.6028 138.621 25.6918 138.621 23.5685V2.33567C138.621 1.69868 138.621 1.69868 139.258 1.69868C141.168 1.48635 142.867 1.06169 144.777 0.849365C144.99 0.849365 144.99 0.849365 145.414 0.849365V19.1096C145.414 19.1096 145.414 19.1096 145.626 19.1096C145.839 18.8973 146.051 18.685 146.051 18.4727C147.749 15.9247 149.448 13.3768 151.146 10.8288C151.358 10.4042 151.57 10.4042 151.995 10.4042C153.905 10.4042 156.028 10.4042 157.939 10.4042H158.788C158.576 10.6165 158.576 10.8288 158.576 10.8288C156.453 13.8014 154.542 16.9864 152.419 19.959C152.207 20.3836 152.207 20.5959 152.419 20.8083C154.542 23.9932 156.453 27.3905 158.576 30.5754C158.788 30.3631 158.788 30.3631 159 30.5754Z" fill="black"/>
<path d="M63.2611 17.8357H64.5348C66.0208 17.8357 66.0208 17.8357 65.8085 16.3494C65.8085 15.5 65.1717 14.8631 64.1102 14.6507C63.4734 14.4384 62.8365 14.4384 61.9874 14.6507C61.1383 14.8631 60.5014 15.2877 60.5014 16.137C60.5014 16.5617 60.5014 16.9863 60.2891 17.6233C60.2891 17.8357 60.5014 18.048 60.7137 18.048C61.5628 17.8357 62.412 17.8357 63.2611 17.8357ZM71.9647 24.8425C71.9647 25.0548 71.9647 25.0548 71.9647 25.2672C71.9647 26.7535 71.9647 28.2398 71.9647 29.5137C71.9647 29.7261 71.9647 29.9384 71.5401 29.9384C68.5682 30.5754 65.3839 30.7877 62.1997 30.5754C60.7137 30.5754 59.2277 30.1507 57.954 29.7261C55.4066 28.6644 54.1329 26.7535 53.7084 24.2055C53.4961 23.3562 53.4961 22.2946 53.4961 21.4452C53.4961 19.9589 53.4961 18.2603 53.4961 16.774C53.4961 15.0754 54.1329 13.3768 55.4066 11.8905C56.4681 10.6165 57.954 9.97949 59.44 9.76716C62.1997 9.13018 64.9594 9.13018 67.5068 9.97949C70.2664 10.8288 71.9647 12.7398 72.177 15.5C72.3893 17.6233 72.3893 19.7466 72.3893 21.8699H71.7524C68.1436 21.8699 64.3225 21.8699 60.7137 21.8699C60.2891 21.8699 60.0769 22.0822 60.0769 22.2946C60.0769 22.5069 60.0769 22.9315 60.0769 23.1439C60.2891 24.2055 60.926 24.8425 62.1997 24.8425C63.6857 24.8425 64.9594 25.0548 66.4454 24.8425C68.1436 24.8425 69.8419 24.4178 71.5401 24.2055C71.7524 24.8425 71.9647 24.8425 71.9647 24.8425Z" fill="black"/>
<path d="M130.13 20.3836C130.13 19.3219 130.13 18.4726 130.13 17.411C130.13 16.3493 129.493 15.7123 128.432 15.2877C127.583 15.0753 126.734 15.0753 126.097 15.2877C125.035 15.5 124.186 16.3493 124.186 17.1986C124.186 19.3219 124.186 21.2329 124.186 23.3562C124.186 24.4178 124.823 25.0548 125.885 25.2671C126.521 25.4795 127.158 25.4795 127.795 25.4795C129.281 25.4795 130.13 24.4178 130.13 22.9315C130.13 22.0822 130.13 21.2329 130.13 20.3836ZM137.136 20.3836C137.136 21.8699 137.136 23.1438 136.923 24.6301C136.499 27.8151 134.376 29.9384 131.192 30.5753C128.432 31.2123 125.672 31.2123 122.913 30.363C119.941 29.5137 118.242 27.6027 117.818 24.6301C117.605 23.5685 117.605 22.5069 117.605 21.4452C117.605 19.9589 117.605 18.2603 117.605 16.774C118.03 13.1644 120.153 10.8288 123.974 9.97946C126.521 9.34247 129.281 9.5548 131.828 10.1918C134.8 11.0411 136.286 12.9521 136.923 15.7123C136.923 17.411 136.923 18.8973 137.136 20.3836Z" fill="black"/>
<path d="M102.956 20.3836C102.956 21.2329 102.956 22.2946 102.956 23.1439C102.956 23.3562 102.956 23.3562 102.956 23.5685C103.168 24.4179 103.593 25.2672 104.654 25.4795C105.291 25.6918 105.928 25.6918 106.565 25.6918C108.051 25.4795 108.9 24.6302 108.9 23.3562C108.9 21.4453 108.9 19.5343 108.9 17.411C108.9 16.3494 108.263 15.5 107.202 15.2877C106.352 15.0754 105.503 15.0754 104.654 15.2877C103.593 15.5 102.956 16.3494 102.956 17.1987C102.956 18.2603 102.956 19.322 102.956 20.3836ZM115.693 20.5959C115.481 21.8699 115.481 23.5685 115.268 25.0548C114.631 28.2398 112.509 29.9384 109.324 30.5754C106.777 31.2124 104.23 31.2124 101.47 30.3631C98.498 29.5137 96.5874 27.6028 95.9506 24.6302C95.7383 23.9932 95.7383 23.1439 95.7383 22.5069C95.7383 20.8083 95.7383 19.1096 95.7383 17.411C95.7383 15.2877 96.5874 13.1644 98.2857 11.6781C99.5594 10.6165 101.045 10.1918 102.531 9.9795C105.079 9.55484 107.626 9.55484 110.174 10.4042C112.933 11.2535 114.419 13.3768 115.056 15.9247C115.693 17.411 115.693 18.8973 115.693 20.5959Z" fill="black"/>
<path d="M23.9893 23.3562C23.5647 23.3562 22.9279 23.3562 22.5033 23.3562C21.4419 23.3562 21.0173 23.7808 21.2296 24.6301C21.2296 25.6918 21.8665 26.1164 22.9279 26.3288C23.9893 26.3288 25.0507 26.1164 25.8998 25.6918C26.1121 25.6918 26.1121 25.4794 26.1121 25.2671C26.1121 24.8425 26.1121 24.2055 26.1121 23.7808C26.1121 23.5685 25.8998 23.3562 25.6876 23.3562C25.0507 23.3562 24.6261 23.3562 23.9893 23.3562ZM26.9613 29.5137C25.6876 29.9383 24.4139 30.363 23.1402 30.5753C21.6542 31 20.1682 31 18.6822 30.5753C16.3471 29.9383 15.0734 28.452 14.4366 26.1164C14.2243 25.0548 14.2243 23.9931 14.4366 22.7192C14.8611 20.5959 16.3471 19.5342 18.2577 19.1096C19.5313 19.1096 20.5928 19.1096 21.6542 18.8973C22.9279 18.8973 24.4139 18.8973 25.6876 18.8973C26.1121 18.8973 26.3244 18.6849 26.1121 18.4726C26.1121 18.2603 26.1121 17.8356 26.1121 17.4109C26.1121 15.7123 25.263 15.5 23.9893 15.2877C21.8665 15.2877 19.5313 15.2877 17.4085 15.2877C17.1962 15.2877 16.984 15.2877 16.7717 15.2877C16.7717 14.863 16.7717 14.226 16.984 13.8014C16.984 12.7397 16.984 11.4657 17.1962 10.4041C17.1962 10.1918 17.4085 10.1918 17.6208 10.1918C20.3805 10.1918 23.3524 10.1918 26.1121 10.1918C26.9613 10.1918 28.0227 10.4041 28.8718 10.6164C31.2069 11.2534 32.4806 12.952 32.9052 15.0753C33.1175 15.9246 33.1175 16.9863 33.1175 17.8356C33.1175 21.8699 33.1175 25.9041 33.1175 29.9383C33.1175 30.363 32.9052 30.5753 32.4806 30.5753C30.9946 30.5753 29.5086 30.5753 28.0227 30.5753C27.5981 30.5753 27.3858 30.363 27.3858 29.9383C27.1735 29.9383 26.9613 29.726 26.9613 29.5137Z" fill="black"/>
<path d="M15.0721 0V3.60959C15.0721 4.03425 15.0721 4.67123 15.0721 5.09589C15.0721 5.30822 15.0721 5.52055 14.6475 5.52055C13.7984 5.52055 12.9493 5.52055 11.8878 5.52055C11.6756 5.52055 11.251 5.52055 11.0387 5.73288C10.6142 5.73288 10.1896 5.94521 10.1896 6.58219C10.1896 7.64384 10.1896 8.91781 10.1896 9.97945H15.0721C15.0721 10.8288 14.8598 11.6781 14.8598 12.5274C14.8598 13.3767 14.6475 14.0137 14.6475 14.863C14.6475 15.2877 14.4352 15.2877 14.0107 15.2877C12.737 15.2877 11.4633 15.2877 9.9773 15.2877V30.5753H3.39653C3.39653 30.363 3.39653 30.1507 3.39653 29.9384C3.39653 25.2671 3.39653 20.5959 3.39653 15.9247C3.39653 15.5 3.39653 15.2877 2.75968 15.2877C1.91055 15.2877 1.06142 15.2877 0 15.2877V14.863C0 13.589 0 12.1027 0 10.8288C0 9.97945 0 10.1918 0.636849 10.1918C1.2737 10.1918 2.12283 10.1918 2.75968 10.1918C3.18425 10.1918 3.18425 9.97945 3.18425 9.76712C3.18425 8.49315 3.18425 7.21918 3.18425 5.94521C3.18425 4.4589 3.82109 2.9726 5.09479 1.69863C5.94393 0.849315 7.21762 0.424658 8.49132 0.212329C10.8264 0 12.9493 0 15.0721 0Z" fill="black"/>
<path d="M51.798 15.7123C50.7366 15.5 49.6751 15.5 48.826 15.2876C47.1277 15.0753 45.4295 14.863 43.7312 15.2876C42.6698 15.5 42.033 16.1369 42.033 17.1986C42.033 19.3219 42.033 21.4452 42.033 23.5684C42.033 24.6301 42.6698 25.2671 43.7312 25.4794C45.0049 25.6917 46.2786 25.6917 47.5523 25.6917C49.0383 25.6917 50.312 25.2671 51.798 25.0547C51.798 25.0547 52.0103 25.0547 52.2225 25.0547C52.2225 25.2671 52.2225 25.2671 52.2225 25.4794C52.2225 26.9657 52.2225 28.452 52.2225 29.9383C52.2225 30.1506 52.2225 30.363 51.798 30.363C49.2506 31 46.7032 31.2123 44.1558 31C41.8207 30.7876 39.6978 30.363 37.9996 28.8767C36.5136 27.6027 35.6645 25.9041 35.4522 24.2054C35.2399 21.8698 35.2399 19.7465 35.4522 17.4109C35.6645 14.863 36.7259 12.7397 39.061 11.2534C40.3347 10.4041 41.8207 10.1917 43.5189 9.9794C46.2786 9.76707 49.0383 9.9794 51.798 10.6164C52.0103 10.6164 52.2225 10.8287 52.2225 11.041C51.798 12.5273 51.798 14.0137 51.798 15.7123Z" fill="black"/>
</g>
<defs>
<clipPath id="clip0_38_4833">
<rect width="159" height="31" fill="white"/>
</clipPath>
</defs>
</svg>
