<svg width="154" height="52" viewBox="0 0 154 52" fill="none" xmlns="http://www.w3.org/2000/svg">
<path d="M16.2494 7.37589C16.2494 7.19149 16.4341 6.82269 16.4341 6.6383C16.4341 6.4539 16.6187 6.08511 16.6187 5.90071C16.6187 5.53191 16.4341 5.16312 16.2494 4.79433C15.8801 4.24113 15.5108 4.05674 14.9568 4.05674C14.2182 4.05674 13.6643 4.42553 13.1103 4.97872C12.741 5.53191 12.3717 6.2695 12.187 7.19149C12.0024 7.92908 11.8177 8.85106 11.6331 9.77305C11.6331 10.5106 11.4484 11.2482 11.4484 11.8014C11.4484 12.1702 11.4484 12.9078 11.6331 13.6454C11.6331 14.383 11.8177 15.305 12.187 16.0426C12.3717 16.7801 12.741 17.5177 13.295 18.0709C13.6643 18.6241 14.4029 18.9929 15.1415 18.9929C15.1415 18.9929 15.3261 18.9929 15.6954 18.9929C16.0647 18.9929 16.2494 18.9929 16.4341 18.8085V7.37589H16.2494ZM20.4964 1.29078C20.4964 1.29078 20.4964 1.47518 20.3118 1.47518C20.3118 1.65957 20.3118 1.84397 20.3118 2.21277C20.3118 2.76596 20.3118 3.13475 20.4964 3.50355V19.9149C20.4964 21.5745 20.3118 23.234 19.9424 24.7092C19.5731 26.1844 19.0192 27.6596 18.2806 28.9504C17.542 30.2411 16.4341 31.1631 14.9568 31.9007C13.4796 32.6383 11.8177 33.0071 9.60192 33.0071H9.04796C7.20144 33.0071 5.72422 32.8227 4.43165 32.2695C3.32374 31.7163 2.40048 31.1631 1.66187 30.2411C1.10791 29.5035 0.553957 28.5816 0.369305 27.6596C0.184652 26.7376 0 25.8156 0 25.078C0 24.3404 0 23.6028 0.184652 23.0496C0.369305 22.3121 0.553957 21.7589 0.923261 21.2057C1.29257 20.6525 1.66187 20.2837 2.21583 19.9149C2.76978 19.5461 3.32374 19.3617 3.8777 19.3617C4.43165 19.3617 4.80096 19.5461 4.98561 19.9149C5.17026 20.2837 5.17026 20.4681 5.17026 20.8369C5.17026 21.5745 4.98561 22.1277 4.80096 22.6809C4.43165 23.234 4.247 23.6028 3.8777 23.9716C3.50839 24.3404 3.13909 24.7092 2.95444 25.078C2.58513 25.4468 2.58513 25.8156 2.58513 26.3688C2.58513 28.0284 3.13909 29.1348 4.247 29.8723C5.35492 30.6099 6.64748 30.9787 8.1247 30.9787C9.41727 30.9787 10.7098 30.6099 11.6331 30.0567C12.741 29.5035 13.4796 28.766 14.2182 27.844C14.9568 26.922 15.3261 26 15.6954 25.078C16.0647 23.9716 16.2494 23.0496 16.2494 22.1277H15.5108C14.4029 22.1277 13.295 21.9433 12.3717 21.3901C11.4484 20.8369 10.7098 20.0993 10.1559 19.3617C9.60192 18.4397 9.23261 17.7021 8.86331 16.5957C8.67866 15.6738 8.494 14.7518 8.494 14.0142V12.1702C8.494 11.617 8.494 10.8794 8.67866 9.95745C8.86331 9.21986 9.23261 8.29787 9.41727 7.37589C9.78657 6.4539 10.1559 5.53191 10.5252 4.60993C10.8945 3.68794 11.4484 2.95035 11.8177 2.21277C12.3717 1.65957 12.9257 1.10638 13.4796 0.737589C14.0336 0.184397 14.5875 0 15.1415 0C15.3261 0 15.6954 0 15.8801 0.184397L19.3885 0.368794C19.5731 0.368794 19.7578 0.553191 20.1271 0.553191C20.3117 0.737589 20.4964 0.921986 20.4964 1.29078Z" fill="black"/>
<path d="M31.7593 20.2837C31.2053 21.0212 30.836 21.7588 30.4667 22.6808C30.0974 23.6028 29.9128 24.3404 29.7281 25.2624C29.5435 26.1844 29.3588 27.1064 29.1742 28.0283C28.9895 28.9503 28.8049 29.8723 28.6202 30.6099C28.6202 30.7943 28.2509 30.9787 27.8816 30.9787C27.5123 30.9787 27.143 31.1631 26.9583 31.1631C26.4044 31.1631 25.8504 31.1631 25.4811 30.9787C25.1118 30.9787 24.7425 30.7943 24.5579 30.4255C24.3732 30.2411 24.1886 29.8723 24.1886 29.3191C24.0039 28.7659 24.0039 28.0283 24.0039 27.2908L24.5579 12.539C24.5579 12.1702 24.7425 11.8014 25.2965 11.8014C25.4811 11.8014 25.6658 11.8014 26.0351 11.8014C26.4044 11.8014 26.589 11.9858 26.9583 11.9858C27.3276 12.1702 27.5123 12.1702 27.8816 12.3546C28.2509 12.539 28.2509 12.7234 28.2509 12.9078V23.0496C28.2509 23.0496 28.2509 22.8652 28.4356 22.6808C28.6202 22.1276 28.9895 21.39 29.3588 20.4681C29.7281 19.5461 30.0974 18.8085 30.4667 17.8865C30.4667 17.1489 31.0207 16.5957 31.39 16.0425C31.7593 15.4893 32.3133 15.1205 32.6826 15.1205C33.2365 15.1205 33.7905 15.3049 33.9751 15.4893C34.3444 15.8581 34.5291 16.0425 34.7137 16.5957C34.8984 16.9645 35.083 17.5177 35.083 18.0709C35.083 18.6241 35.083 18.9929 35.083 19.5461C35.083 19.9149 35.083 20.4681 34.8984 21.2056C34.8984 21.9432 34.7137 23.0496 34.7137 24.7092C34.7137 25.6312 34.7137 26.3688 34.8984 27.1064C35.083 27.8439 35.4523 28.2127 35.8217 28.2127C36.191 28.2127 36.5603 28.0283 36.7449 27.6595C37.1142 27.2908 37.2989 26.922 37.4835 26.3688C37.6682 25.8156 37.8528 25.2624 38.0375 24.7092C38.2221 24.156 38.2221 23.6028 38.4068 23.0496C38.4068 22.4964 38.7761 22.1276 39.1454 22.1276C39.5147 22.1276 39.6994 22.312 39.6994 22.4964C39.884 22.6808 39.884 22.8652 39.884 23.234V23.4184C39.884 24.156 39.6994 24.8936 39.5147 25.6312C39.33 26.3688 38.9607 27.2908 38.5914 28.0283C38.2221 28.7659 37.6682 29.3191 36.9296 29.8723C36.191 30.4255 35.4524 30.6099 34.5291 30.6099C33.0519 30.6099 32.1286 30.0567 31.7593 28.9503C31.39 27.8439 31.2053 26.3688 31.2053 24.156L31.7593 20.2837Z" fill="black"/>
<path d="M50.9644 28.0284C50.9644 28.7659 50.7797 29.5035 50.2258 29.8723C49.6718 30.2411 49.1179 30.6099 48.3793 30.7943C47.6407 30.9787 47.0867 31.1631 46.3481 31.1631C45.6095 31.1631 45.2402 31.1631 44.8709 31.1631C44.5016 31.1631 43.763 31.1631 43.209 30.9787C42.4704 30.7943 41.9164 30.7943 41.1778 30.4255C40.4392 30.0567 40.0699 29.8723 39.516 29.5035C39.1466 29.1347 38.7773 28.5815 38.7773 28.0284C38.7773 27.6596 38.962 27.4752 39.1466 27.2908C39.516 27.1064 39.7006 27.1064 39.8853 27.1064C40.2546 27.1064 40.6239 27.2908 40.9932 27.4752C41.3625 27.6596 41.7318 28.0284 42.1011 28.3971C42.4704 28.7659 42.8397 28.9503 43.3937 29.3191C43.763 29.5035 44.3169 29.6879 45.0555 29.6879C45.2402 29.6879 45.6095 29.6879 46.1634 29.5035C46.5327 29.3191 46.902 28.9503 46.902 28.5815C46.902 28.0284 46.7174 27.6596 46.3481 27.2908C45.9788 26.922 45.4248 26.3688 44.8709 26C44.3169 25.4468 43.763 25.078 43.0243 24.5248C42.2857 23.9716 41.7318 23.4184 41.1778 22.8652C40.6239 22.312 40.0699 21.5745 39.7006 21.0213C39.3313 20.2837 39.1466 19.5461 39.1466 18.8085C39.1466 17.7021 39.516 16.5957 40.2546 15.8581C40.9932 15.1206 41.9164 14.383 42.8397 14.0142C43.763 13.461 44.8709 13.2766 45.9788 13.0922C47.0867 12.9078 47.8253 12.7234 48.3793 12.7234C48.9332 12.7234 49.4872 12.9078 50.0411 13.0922C50.5951 13.2766 50.9644 13.8298 50.9644 14.383C50.9644 14.5674 50.9644 14.9362 50.7797 15.3049C50.5951 15.6737 50.5951 16.0425 50.4104 16.4113C50.2258 16.7801 50.0411 17.1489 49.6718 17.3333C49.3025 17.7021 48.9332 17.7021 48.5639 17.7021C48.3793 17.7021 48.3793 17.7021 48.1946 17.5177C48.01 17.3333 47.8253 17.3333 47.8253 17.1489C47.6407 16.9645 47.456 16.7801 47.2713 16.7801C47.0867 16.5957 46.902 16.5957 46.7174 16.5957C45.6095 16.5957 44.6862 16.9645 44.3169 17.7021C43.9476 18.4397 43.5783 19.1773 43.5783 19.9149C43.5783 20.6525 43.9476 21.2057 44.6862 21.9432C45.4248 22.6808 46.3481 23.4184 47.2713 24.156C48.1946 24.8936 49.1179 25.6312 49.8565 26.3688C50.5951 26.5532 50.9644 27.2908 50.9644 28.0284Z" fill="black"/>
<path d="M52.0705 22.1277C52.0705 20.4681 52.0705 18.6241 52.2551 16.9646C52.2551 15.1206 52.4398 13.6454 52.4398 12.1702C52.4398 11.9858 52.2551 11.8014 51.7012 11.6171C51.1472 11.4327 50.5933 11.4327 49.8547 11.2483C49.1161 11.0639 48.5621 11.0639 48.0081 10.6951C47.4542 10.5107 47.2695 10.1419 47.2695 9.58868C47.2695 9.21989 47.6388 8.8511 48.5621 8.8511C49.4854 8.8511 50.5933 8.6667 52.4398 8.6667C52.6244 8.6667 52.6244 8.4823 52.6244 8.11351C52.6244 7.74471 52.6244 7.19152 52.8091 6.63833C52.8091 6.08514 52.8091 5.34755 52.8091 4.60996C52.8091 3.87237 52.8091 3.31918 52.8091 2.58159C52.8091 2.0284 52.8091 1.47521 52.9938 1.10641C52.9938 0.73762 53.1784 0.553223 53.3631 0.553223C53.5477 0.553223 53.7324 0.553223 54.2863 0.73762C54.6556 0.73762 55.2096 0.922017 55.5789 0.922017C55.9482 0.922017 56.5021 1.10641 56.8714 1.29081C57.0561 1.65961 57.2408 1.844 57.2408 2.0284L56.6868 8.4823C56.6868 8.6667 56.8714 8.8511 57.2408 8.8511C57.6101 8.8511 57.9794 9.03549 58.5333 9.03549C59.0873 9.03549 59.6412 9.03549 60.1952 9.03549C60.7491 9.03549 61.3031 9.03549 61.8571 9.21989C62.411 9.40429 62.7803 9.40429 63.1496 9.77308C63.5189 9.95748 63.7036 10.3263 63.7036 10.6951C63.7036 10.6951 63.7036 10.8795 63.5189 11.0639C63.5189 11.2483 63.3343 11.2483 63.3343 11.2483C63.3343 11.2483 63.1496 11.2483 63.1496 11.0639C62.965 10.8795 62.7803 10.8795 62.2264 10.8795C62.0417 10.8795 61.6724 10.8795 61.1184 10.8795C60.5645 10.8795 59.8259 10.8795 59.2719 11.0639C58.5333 11.0639 57.9794 11.2483 57.4254 11.2483C56.8714 11.2483 56.5021 11.4327 56.5021 11.6171C56.5021 11.6171 56.5021 11.9858 56.3175 12.7234C56.3175 13.461 56.1328 14.383 56.1328 15.4894C56.1328 16.5958 56.1328 18.071 55.9482 19.5461C55.9482 21.0213 55.9482 22.6809 55.9482 24.3405C55.9482 24.8936 55.9482 25.6312 56.1328 26.1844C56.1328 26.7376 56.3175 27.2908 56.5021 27.844C56.6868 28.3972 56.8714 28.766 57.0561 28.9504C57.2408 29.3192 57.6101 29.3192 57.7947 29.3192C58.164 29.3192 58.5333 29.1348 58.9026 28.766C59.2719 28.3972 59.6412 27.844 59.8259 27.2908C60.1952 26.7376 60.3798 26 60.5645 25.078C60.7491 24.3405 60.9338 23.4185 61.1184 22.6809C61.3031 22.1277 61.3031 21.7589 61.4878 21.5745C61.6724 21.3901 61.8571 21.2057 62.0417 21.2057C62.2264 21.2057 62.411 21.2057 62.5957 21.3901C62.7803 21.5745 62.7803 21.9433 62.7803 22.4965C62.7803 22.8653 62.7803 23.0497 62.7803 23.2341C62.5957 23.7873 62.411 24.7092 62.2264 25.6312C61.8571 26.7376 61.4878 27.6596 61.1184 28.766C60.5645 29.688 60.0105 30.61 59.4566 31.3475C58.718 32.0851 57.9794 32.4539 57.0561 32.4539C56.1328 32.4539 55.3942 32.2695 54.6556 31.7163C53.917 31.1632 53.3631 30.4256 52.9938 29.5036C52.6244 28.5816 52.2551 27.4752 52.0705 26.1844C51.8858 24.8936 51.7012 23.6029 51.7012 22.1277H52.0705Z" fill="black"/>
<path d="M72.1999 17.5177C72.1999 17.1489 72.1999 16.7801 72.0153 16.2269C72.0153 15.6737 71.8306 15.305 71.6459 14.7518C71.4613 14.383 71.2766 14.0142 70.9073 13.6454C70.538 13.2766 70.1687 13.2766 69.6148 13.2766C68.6915 13.2766 67.9529 13.6454 67.3989 14.5674C66.845 15.4894 66.291 16.4113 66.1064 17.5177C65.7371 18.6241 65.5524 19.9149 65.5524 21.0213C65.3678 22.312 65.3678 23.234 65.3678 23.7872C65.3678 24.3404 65.3678 24.8936 65.3678 25.6312C65.3678 26.3688 65.5524 27.1064 65.5524 27.6596C65.7371 28.3972 65.9217 28.9503 66.1064 29.3191C66.291 29.8723 66.6603 30.0567 67.0296 30.0567C67.9529 30.0567 68.6915 29.6879 69.2455 28.9503C69.7994 28.2128 70.1687 27.2908 70.3534 26.1844C70.538 25.078 70.7227 23.9716 70.9073 22.6808C71.092 21.3901 71.092 20.2837 71.2766 19.1773C71.2766 18.6241 71.4613 18.2553 71.6459 18.0709C71.8306 17.8865 72.0153 17.8865 72.0153 17.7021V17.5177H72.1999ZM81.2479 25.6312C81.2479 26.1844 81.0632 26.5532 80.6939 27.2908C80.5093 27.844 80.14 28.5816 79.7706 29.1347C79.4013 29.6879 78.8474 30.2411 78.2934 30.6099C77.7395 30.9787 77.1855 31.1631 76.4469 31.1631C75.5236 31.1631 74.6004 30.7943 73.8618 30.0567C73.1232 29.3191 72.7539 28.2128 72.5692 26.7376C72.3846 27.2908 72.1999 27.844 71.8306 28.5816C71.6459 29.3191 71.2766 29.8723 70.9073 30.6099C70.538 31.1631 69.9841 31.7163 69.6148 32.0851C69.0608 32.4539 68.5069 32.6383 67.7682 32.6383C67.5836 32.6383 67.3989 32.6383 67.3989 32.6383C67.2143 32.6383 67.2143 32.6383 67.0296 32.4539C66.845 32.4539 66.845 32.4539 66.6603 32.2695C66.4757 32.0851 66.291 32.2695 66.1064 32.2695C65.3678 32.2695 64.6292 32.0851 64.0752 31.5319C63.5212 30.9787 63.1519 30.4255 62.7826 29.5035C62.4133 28.7659 62.2287 27.844 62.044 26.922C61.8594 26 61.8594 25.078 61.8594 24.3404C61.8594 22.312 62.044 20.4681 62.2287 18.6241C62.4133 16.7801 62.7826 15.305 63.3366 13.8298C63.8905 12.3546 64.4445 11.4326 65.1831 10.5106C65.9217 9.77304 66.845 9.21985 67.9529 9.21985C68.6915 9.21985 69.0608 9.21985 69.4301 9.40425C69.7994 9.58864 70.1687 9.58864 70.3534 9.77304C70.7227 9.95744 70.9073 10.1418 71.2766 10.3262C71.6459 10.5106 72.0153 10.695 72.7539 10.695C73.4925 11.0638 73.8618 11.617 74.2311 12.1702C74.6004 12.7234 74.6004 13.2766 74.785 14.0142C74.785 14.5674 74.9697 15.305 74.785 16.0425C74.785 16.7801 74.785 17.3333 74.9697 18.0709C74.9697 18.0709 74.9697 18.0709 75.1543 18.2553C75.339 18.2553 75.5236 18.4397 75.7083 18.4397C75.8929 18.4397 76.0776 18.6241 76.2623 18.8085C76.4469 18.9929 76.4469 19.1773 76.4469 19.3617V19.5461C76.0776 20.4681 75.8929 21.2057 75.8929 21.7589C75.8929 22.4964 75.7083 23.234 75.7083 24.156C75.7083 24.7092 75.7083 25.078 75.7083 25.6312C75.7083 26.1844 75.8929 26.7376 75.8929 27.1064C76.0776 27.6596 76.2623 28.0284 76.4469 28.2128C76.6316 28.5816 77.0009 28.7659 77.3702 28.7659C77.7395 28.7659 78.1088 28.5816 78.4781 28.2128C78.8474 27.844 79.032 27.2908 79.2167 26.922C79.4013 26.3688 79.586 25.8156 79.7706 25.4468C79.9553 24.8936 79.9553 24.5248 79.9553 24.3404C79.9553 23.9716 80.1399 23.7872 80.5093 23.7872C80.6939 23.7872 80.8786 23.7872 81.0632 23.9716C81.2479 24.156 81.2479 24.5248 81.2479 24.8936V25.2624C81.2479 25.2624 81.2479 25.4468 81.2479 25.6312Z" fill="black"/>
<path d="M89.7407 34.2978C89.0021 34.851 88.2635 35.5886 87.5249 36.5106C86.7863 37.4326 86.2324 38.539 85.6784 39.6454C85.1244 40.7517 84.7551 41.8581 84.5705 43.1489C84.2012 44.2553 84.2012 45.3617 84.2012 46.2837C84.2012 46.6525 84.2012 47.0212 84.3858 47.39C84.3858 47.7588 84.5705 48.1276 84.7551 48.4964C84.9398 48.8652 85.1244 49.0496 85.3091 49.4184C85.6784 49.6028 85.863 49.7872 86.417 49.7872C87.1556 49.7872 87.7096 49.4184 88.0789 48.8652C88.4482 48.312 88.8175 47.5744 89.1868 46.8368C89.3714 46.0993 89.5561 45.1773 89.7407 44.4397C89.7407 43.7021 89.9254 42.9645 89.9254 42.4113V42.0425C89.9254 41.8581 89.9254 41.4893 89.9254 40.9361C89.9254 40.3829 89.9254 39.6454 89.9254 38.539V34.2978H89.7407ZM89.9254 16.9645C89.9254 16.5957 89.9254 16.2269 89.7407 15.6737C89.7407 15.1205 89.5561 14.7517 89.3714 14.3829C89.1868 14.0142 89.0021 13.6454 88.6328 13.2766C88.4482 13.0922 87.8942 12.9078 87.5249 12.9078C86.971 12.9078 86.2324 13.0922 85.6784 13.6454C85.1244 14.1986 84.5705 14.9361 84.2012 15.6737C83.8319 16.5957 83.4626 17.7021 83.2779 18.9929C83.0933 20.2837 82.9086 21.7588 82.9086 23.4184C82.9086 24.156 82.9086 24.8936 82.9086 25.6312C82.9086 26.3688 83.0933 27.1064 83.0933 27.6595C83.2779 28.2127 83.4626 28.7659 83.6472 29.1347C83.8319 29.5035 84.2012 29.6879 84.5705 29.6879C85.3091 29.6879 85.863 29.3191 86.417 28.7659C86.971 28.2127 87.3403 27.4751 87.7096 26.5532C88.0789 25.6312 88.2635 24.7092 88.4482 23.7872C88.6328 22.8652 88.8175 21.9432 88.8175 21.39C88.8175 20.4681 88.8175 19.7305 89.0021 19.3617C89.0021 18.9929 89.1868 18.8085 89.1868 18.6241C89.3714 18.4397 89.5561 18.0709 89.5561 17.7021C89.7407 17.7021 89.9254 17.3333 89.9254 16.9645ZM96.0189 32.2695C96.0189 32.6383 95.8343 32.8227 95.6496 33.0071C95.2803 33.1915 95.0957 33.1915 94.911 33.1915H93.8031C93.6184 33.1915 93.6184 33.3759 93.6184 33.5603V34.1134C93.6184 35.0354 93.6184 36.1418 93.6184 37.4326V41.3049C93.6184 42.5957 93.6184 43.8865 93.4338 45.1773C93.4338 46.4681 93.2491 47.5744 92.8798 48.6808C92.5105 49.6028 92.1412 50.5248 91.5873 51.078C91.0333 51.6312 90.2947 52 89.3714 52C88.6328 52 87.7096 52 86.7863 51.8156C85.8631 51.8156 85.1244 51.4468 84.3858 51.2624C83.6472 50.8936 83.0933 50.5248 82.5393 49.7872C81.9854 49.0496 81.8007 48.312 81.8007 47.2056C81.8007 46.0993 81.9854 44.9929 82.17 43.8865C82.3547 42.7801 82.724 41.6737 83.2779 40.5673C83.8319 39.461 84.2012 38.539 84.9398 37.4326C85.4937 36.5106 86.2324 35.5886 86.971 34.851C87.3403 34.4822 87.8942 34.1134 88.2635 33.5603C88.8175 33.1915 89.1868 32.8227 89.5561 32.4539C89.5561 31.7163 89.7407 30.9787 89.7407 30.4255C89.7407 29.6879 89.7407 28.9503 89.7407 28.2127C89.5561 28.5815 89.3714 28.9503 89.1868 29.5035C89.0021 30.0567 88.6328 30.4255 88.4482 30.9787C88.0789 31.5319 87.7096 31.9007 87.3403 32.2695C86.971 32.6383 86.417 32.8227 86.0477 32.8227C85.863 32.8227 85.4937 32.8227 85.3091 32.6383C85.1244 32.4539 84.7551 32.4539 84.3858 32.4539C83.4626 32.4539 82.724 32.0851 82.17 31.7163C81.6161 31.3475 81.0621 30.6099 80.6928 29.8723C80.3235 29.1347 80.1388 28.2127 79.9542 27.1064C79.7695 26 79.7695 24.8936 79.7695 23.6028C79.7695 22.1276 79.7695 20.4681 79.9542 18.8085C80.1388 17.1489 80.5081 15.6737 80.8774 14.1986C81.2467 12.9078 81.9854 11.617 82.724 10.8794C83.4626 9.95742 84.5705 9.58862 85.6784 9.58862C85.8631 9.58862 86.0477 9.58862 86.2324 9.77302C86.417 9.95742 86.6017 9.95742 86.971 10.1418C87.1556 10.3262 87.5249 10.3262 87.7096 10.5106C87.8942 10.695 88.0789 10.695 88.2635 10.695C89.0021 10.8794 89.5561 11.0638 90.1101 11.2482C90.664 11.4326 91.218 11.617 91.5873 11.9858C91.9566 12.3546 92.3259 12.7234 92.5105 13.2766C92.6952 13.8298 92.8798 14.3829 92.8798 15.1205C92.8798 15.6737 92.8798 16.0425 92.6952 16.5957C92.6952 16.9645 92.5105 17.5177 92.5105 18.2553C92.5105 18.4397 92.6952 18.6241 92.8798 18.8085C93.0645 18.9929 93.2491 18.9929 93.4338 18.9929C93.6184 18.9929 93.8031 19.1773 94.1724 19.1773C94.3571 19.1773 94.5417 19.3617 94.5417 19.7305C94.5417 19.7305 94.5417 19.9149 94.357 20.2837C94.1724 20.4681 94.1724 20.6525 94.1724 20.8369C93.9877 21.0212 93.9878 21.5744 93.9878 22.1276C93.9878 22.6808 93.8031 23.4184 93.8031 23.9716C93.8031 24.7092 93.8031 25.2624 93.8031 26C93.8031 26.7376 93.8031 27.2908 93.8031 27.8439V29.5035C93.8031 30.2411 93.8031 30.7943 93.8031 31.3475H93.9878H94.1724H94.357C94.7264 31.3475 95.0957 31.3475 95.6496 31.5319C95.8343 31.7163 96.0189 32.0851 96.0189 32.2695Z" fill="black"/>
<path d="M110.791 23.9717C110.791 24.1561 110.791 24.7093 110.606 25.6312C110.421 26.5532 110.237 27.4752 109.867 28.3972C109.498 29.3192 108.944 30.2412 108.39 30.9788C107.836 31.7163 106.913 32.0851 105.99 32.0851C104.882 32.0851 104.143 31.7163 103.405 30.9788C102.851 30.2412 102.297 29.3192 101.927 28.2128C101.558 27.1064 101.373 26 101.373 24.8937C101.189 23.7873 101.189 22.8653 101.189 21.9433C101.189 21.0213 101.189 20.2837 101.373 19.3617C101.558 18.4397 101.558 17.7022 101.558 16.7802C101.558 16.7802 101.373 16.5958 101.004 16.5958C100.819 16.5958 100.45 16.4114 100.265 16.4114C99.8962 16.4114 99.7115 16.4114 99.5269 16.5958C99.3422 16.7802 99.3422 16.7802 99.3422 16.9646L99.1576 18.6241C98.9729 19.7305 98.9729 20.6525 98.7883 21.7589C98.6036 22.6809 98.419 23.6029 98.2343 24.3405C98.0497 25.078 97.865 25.6312 97.6803 26.1844C97.4957 26.5532 97.1264 26.922 96.7571 26.922C96.5724 26.922 96.5724 26.922 96.3878 26.7376C96.2031 26.7376 96.2031 26.5532 96.2031 26.1844C96.2031 26 96.2031 25.8156 96.3878 25.6312C96.5724 24.5249 96.7571 23.6029 96.9417 22.6809C96.9417 21.9433 97.1264 21.2057 97.1264 20.6525V20.2837C97.1264 20.0993 97.1264 19.9149 97.1264 19.7305C97.1264 19.5461 97.1264 19.1773 97.1264 18.8085V17.5178V16.4114C97.1264 16.0426 97.1264 15.6738 96.9417 15.1206L96.7571 12.1702C96.7571 11.9858 96.7571 11.8015 96.9417 11.6171C97.1264 11.4327 97.311 11.2483 97.4957 11.2483C97.865 11.0639 98.2343 10.8795 98.419 10.8795C98.7883 10.8795 98.9729 10.6951 99.1576 10.6951C99.7115 10.6951 100.081 11.0639 100.081 11.8015V11.9858V13.0922V13.461C100.081 13.6454 100.081 13.8298 100.265 13.8298C100.45 13.8298 100.635 14.0142 100.819 14.0142H101.004C101.189 14.0142 101.743 14.0142 102.297 14.1986C102.851 14.1986 103.405 14.383 104.143 14.383C104.697 14.5674 105.251 14.5674 105.62 14.9362C105.99 15.1206 106.359 15.4894 106.359 15.8582C106.359 16.0426 106.359 16.227 106.174 16.4114C106.174 16.5958 105.99 16.9646 105.99 17.149C105.805 17.3334 105.805 17.7022 105.805 17.8866C105.805 18.071 105.62 18.2554 105.62 18.2554C105.066 20.4681 104.697 22.8653 104.697 25.4468C104.697 25.6312 104.697 26 104.697 26.5532C104.697 27.1064 104.882 27.6596 104.882 28.2128C105.066 28.766 105.066 29.3192 105.251 29.688C105.436 30.0568 105.62 30.4256 105.99 30.4256C106.544 30.4256 106.913 30.0568 107.282 29.5036C107.652 28.9504 108.021 28.2128 108.39 27.2908C108.759 26.5532 108.944 25.6312 109.129 24.8937C109.313 24.1561 109.498 23.4185 109.498 23.0497C109.498 22.6809 109.683 22.4965 109.867 22.3121C110.052 22.3121 110.237 22.1277 110.237 22.1277C110.606 22.1277 110.975 22.4965 110.975 23.0497C110.975 23.0497 110.975 23.2341 110.975 23.6029C110.975 23.7873 110.791 23.9717 110.791 23.9717Z" fill="black"/>
<path d="M119.841 17.5177C119.841 17.1489 119.841 16.7801 119.656 16.2269C119.656 15.6737 119.471 15.305 119.287 14.7518C119.102 14.383 118.917 14.0142 118.548 13.6454C118.179 13.2766 117.809 13.2766 117.255 13.2766C116.332 13.2766 115.594 13.6454 115.04 14.5674C114.486 15.4894 113.932 16.4113 113.747 17.5177C113.378 18.6241 113.193 19.9149 113.193 21.0213C113.008 22.312 113.008 23.234 113.008 23.7872C113.008 24.3404 113.008 24.8936 113.008 25.6312C113.008 26.3688 113.193 27.1064 113.193 27.6596C113.378 28.3972 113.562 28.9503 113.747 29.3191C113.932 29.8723 114.301 30.0567 114.67 30.0567C115.594 30.0567 116.332 29.6879 116.886 28.9503C117.44 28.2128 117.809 27.2908 117.994 26.1844C118.179 25.078 118.363 23.9716 118.548 22.6808C118.733 21.3901 118.733 20.2837 118.917 19.1773C118.917 18.6241 119.102 18.2553 119.287 18.0709C119.471 17.8865 119.656 17.8865 119.656 17.7021V17.5177H119.841ZM128.888 25.6312C128.888 26.1844 128.704 26.5532 128.335 27.2908C128.15 27.844 127.781 28.5816 127.411 29.1347C127.042 29.6879 126.488 30.2411 125.934 30.6099C125.38 30.9787 124.826 31.1631 124.088 31.1631C123.164 31.1631 122.241 30.7943 121.502 30.0567C120.764 29.3191 120.394 28.2128 120.21 26.7376C120.025 27.2908 119.841 27.844 119.471 28.5816C119.287 29.3191 118.917 29.8723 118.548 30.6099C118.179 31.1631 117.625 31.7163 117.255 32.0851C116.701 32.4539 116.147 32.6383 115.409 32.6383C115.224 32.6383 115.04 32.6383 115.04 32.6383C114.855 32.6383 114.855 32.6383 114.67 32.4539C114.486 32.4539 114.486 32.4539 114.301 32.2695C114.116 32.2695 113.932 32.2695 113.747 32.2695C113.008 32.2695 112.27 32.0851 111.716 31.5319C111.162 30.9787 110.793 30.4255 110.423 29.5035C110.054 28.7659 109.869 27.844 109.685 26.922C109.5 26 109.5 25.078 109.5 24.3404C109.5 22.312 109.685 20.4681 109.869 18.6241C110.054 16.7801 110.423 15.305 110.977 13.8298C111.531 12.539 112.085 11.4326 112.824 10.5106C113.562 9.77304 114.486 9.21985 115.594 9.21985C116.332 9.21985 116.701 9.21985 117.071 9.40425C117.44 9.58864 117.809 9.58864 117.994 9.77304C118.363 9.95744 118.548 10.1418 118.917 10.3262C119.287 10.5106 119.656 10.695 120.394 10.695C121.133 11.0638 121.502 11.617 121.872 12.1702C122.241 12.7234 122.241 13.2766 122.426 14.0142C122.426 14.5674 122.61 15.305 122.426 16.0425C122.426 16.7801 122.426 17.3333 122.61 18.0709C122.61 18.0709 122.61 18.0709 122.795 18.2553C122.98 18.2553 123.164 18.4397 123.349 18.4397C123.534 18.4397 123.718 18.6241 123.903 18.8085C124.088 18.9929 124.088 19.1773 124.088 19.3617V19.5461C123.718 20.4681 123.534 21.2057 123.534 21.7589C123.534 22.4964 123.349 23.234 123.349 24.156C123.349 24.7092 123.349 25.078 123.349 25.6312C123.349 26.1844 123.534 26.7376 123.534 27.1064C123.718 27.6596 123.903 28.0284 124.088 28.2128C124.272 28.5816 124.641 28.7659 125.011 28.7659C125.38 28.7659 125.749 28.5816 126.119 28.2128C126.488 27.844 126.673 27.2908 126.857 26.922C127.042 26.3688 127.227 25.8156 127.411 25.4468C127.596 24.8936 127.596 24.5248 127.596 24.3404C127.596 23.9716 127.781 23.7872 128.15 23.7872C128.335 23.7872 128.519 23.7872 128.704 23.9716C128.888 24.156 128.888 24.5248 128.888 24.8936V25.2624C128.888 25.2624 128.888 25.4468 128.888 25.6312Z" fill="black"/>
<path d="M144.029 18.8085C143.659 19.7305 143.105 20.6525 142.736 21.5745C142.367 22.4965 141.997 23.4184 141.813 23.9716C141.813 24.156 141.628 24.5248 141.628 25.078C141.443 25.6312 141.259 26.1844 141.074 26.922C140.889 27.6596 140.705 28.2128 140.52 28.766C140.335 29.3192 140.335 29.8723 140.335 30.2411C140.335 30.4255 140.151 30.6099 139.966 30.6099C139.597 30.7943 139.228 30.7943 138.858 30.7943C138.12 30.7943 137.566 30.6099 137.196 30.4255C136.827 30.2411 136.458 29.8723 136.273 29.5036C136.088 29.1348 135.904 28.3972 135.904 27.6596C135.904 26.922 135.904 26 135.904 25.078V21.3901C135.904 21.2057 135.904 20.8369 135.904 20.6525C135.904 20.4681 135.904 20.2837 135.719 20.0993C135.535 20.0993 135.35 20.6525 135.165 21.3901C134.981 22.1277 134.611 23.234 134.427 24.3404C134.242 25.4468 134.057 26.7376 133.873 28.0284C133.688 29.3192 133.688 30.4255 133.688 31.3475C133.688 31.7163 133.503 31.9007 133.134 32.0851C132.765 32.0851 132.395 32.2695 131.841 32.2695C131.657 32.2695 131.472 32.2695 131.103 32.2695C130.734 32.2695 130.549 32.0851 130.18 32.0851C129.81 32.0851 129.626 31.9007 129.256 31.9007C129.072 31.7163 128.887 31.7163 128.702 31.5319C128.518 31.1631 128.333 30.4255 128.333 29.3192C128.333 28.3972 128.148 26.7376 128.148 24.7092C128.148 23.4184 128.148 22.1277 128.148 20.4681C128.148 18.8085 128.333 16.9645 128.333 14.7518C128.333 14.383 128.333 14.0142 128.333 13.6454C128.333 13.0922 128.333 12.9078 128.333 12.9078C128.333 12.7234 128.518 12.539 128.702 12.3546C128.887 12.3546 129.072 12.3546 129.256 12.3546C129.441 12.3546 129.81 12.3546 129.995 12.3546C130.364 12.3546 130.549 12.539 130.918 12.539C131.288 12.539 131.472 12.7234 131.841 12.7234C132.026 12.7234 132.211 12.9078 132.395 12.9078V24.8936C132.58 24.156 132.765 23.4184 132.949 22.4965C133.134 21.5745 133.319 20.8369 133.688 19.9149C134.057 18.9929 134.242 18.2553 134.611 17.5177C134.796 16.5957 134.981 16.0426 135.35 15.6738C135.535 15.4894 135.719 15.4894 136.088 15.4894C136.458 15.4894 136.827 15.4894 137.012 15.4894C137.196 15.4894 137.381 15.4894 137.566 15.4894C137.75 15.4894 138.12 15.6738 138.304 15.6738C138.489 15.8582 138.674 15.8582 138.858 16.0426C139.043 16.227 139.228 16.4114 139.228 16.5957V24.7092V25.078C139.228 25.2624 139.228 25.4468 139.412 25.4468C139.412 25.4468 139.597 25.078 139.966 24.156C140.335 23.234 140.705 22.1277 141.074 21.0213C141.443 19.7305 141.997 18.6241 142.367 17.3333C142.921 16.0426 143.29 14.9362 143.659 14.1986C143.659 14.0142 144.029 14.0142 144.398 14.0142C144.767 14.0142 145.136 14.0142 145.321 14.0142C145.506 14.0142 145.875 14.0142 146.244 14.1986C146.614 14.383 146.983 14.5674 147.352 14.7518C147.722 14.9362 148.091 15.305 148.276 15.6738C148.645 16.0426 148.645 16.4114 148.645 16.7801C148.645 16.7801 148.46 16.9645 148.276 17.3333C148.091 17.7021 147.906 17.8865 147.906 18.2553C147.722 19.1773 147.537 20.0993 147.352 21.0213C147.352 21.9433 147.168 23.0497 147.168 24.5248C147.168 25.078 147.168 25.6312 147.168 26.3688C147.168 26.922 147.352 27.4752 147.352 28.0284C147.537 28.5816 147.537 28.9504 147.906 29.1348C148.091 29.5036 148.276 29.5036 148.645 29.5036C149.014 29.5036 149.568 29.3192 149.937 28.9504C150.307 28.5816 150.676 28.2128 150.861 27.6596C151.045 27.1064 151.415 26.5532 151.599 25.8156C151.784 25.078 151.969 24.3404 152.153 23.6028C152.338 22.8653 152.523 22.4965 153.076 22.4965C153.261 22.4965 153.446 22.4965 153.63 22.6809C153.63 22.8653 153.815 23.0497 153.815 23.6028C153.815 23.7872 153.815 23.9716 153.815 24.156C153.815 24.5248 153.63 25.2624 153.446 26.1844C153.261 27.1064 152.892 28.0284 152.338 28.9504C151.969 29.8723 151.415 30.6099 150.676 31.3475C149.937 32.0851 149.199 32.4539 148.46 32.4539C147.537 32.4539 146.614 32.2695 145.875 31.7163C145.136 31.1631 144.767 30.6099 144.398 29.688C144.029 28.9504 143.844 28.0284 143.659 26.922C143.475 25.8156 143.475 24.7092 143.475 23.6028V23.234L144.029 18.8085Z" fill="black"/>
</svg>
