<svg width="123" height="38" viewBox="0 0 123 38" fill="none" xmlns="http://www.w3.org/2000/svg">
<g clip-path="url(#clip0_38_4854)">
<path d="M79.1528 34.4257C78.7731 34.99 78.3935 35.3663 78.0139 35.7425C76.4954 37.6237 73.4583 38.5643 71.1806 37.6237C69.0926 36.8712 68.5232 34.99 68.1435 32.9207C67.7639 30.099 67.9537 27.2772 67.9537 24.2673C67.9537 20.3168 67.9537 16.1782 67.9537 12.2277C67.9537 11.099 68.3333 10.9108 69.2824 11.099C70.4213 11.099 71.5602 11.099 72.6991 11.099C73.838 11.099 74.0278 11.2871 74.0278 12.4158C74.0278 18.2475 74.0278 24.2673 74.0278 30.099C74.0278 30.6633 74.0278 31.2277 74.0278 31.792C74.2176 33.1089 74.787 33.8613 75.7361 33.6732C76.875 33.6732 78.0139 32.5445 78.0139 31.4158C78.0139 29.7227 78.0139 28.0296 78.0139 26.3366C78.0139 21.6336 78.0139 16.9306 78.0139 12.4158C78.0139 11.4752 78.2037 11.099 79.1528 11.099C80.4815 11.2871 81.8102 11.099 83.1389 11.099C83.8981 11.099 84.088 11.2871 84.088 12.0395C84.088 20.3168 84.088 28.4059 84.088 36.6831C84.088 37.4356 83.8981 37.6237 83.1389 37.6237C82.1898 37.6237 81.4306 37.4356 80.4815 37.6237C79.3426 37.8118 79.1528 37.2475 78.963 36.3069C79.3426 35.5544 79.1528 34.99 79.1528 34.4257Z" fill="black"/>
<path d="M48.4038 34.6137C48.0242 34.8019 47.8343 35.1781 47.6445 35.5543C46.126 37.6236 43.2788 38.5642 40.6214 37.6236C39.1029 37.0593 38.1538 35.7425 37.7742 34.2375C37.3945 33.1088 37.3945 31.9801 37.3945 31.0395C37.3945 24.8316 37.3945 18.4355 37.3945 12.2276C37.3945 11.287 37.5843 11.0989 38.5334 11.0989C39.8621 11.0989 41.1908 11.0989 42.5195 11.0989C43.2788 11.0989 43.4686 11.287 43.4686 12.0395C43.4686 18.0593 43.4686 24.0791 43.4686 30.0989C43.4686 30.4751 43.4686 31.0395 43.4686 31.4157C43.6584 32.9207 44.2279 33.485 45.1769 33.485C46.5056 33.485 47.6445 32.3563 47.6445 31.0395C47.6445 26.1484 47.6445 21.2573 47.6445 16.3662C47.6445 14.8613 47.6445 13.1682 47.6445 11.6633C47.6445 11.0989 47.8343 10.7227 48.4038 10.7227C49.9223 10.7227 51.4408 10.7227 52.7695 10.7227C53.339 10.7227 53.5288 10.9108 53.5288 11.4751C53.5288 19.7524 53.5288 28.0296 53.5288 36.3068C53.5288 36.8712 53.339 37.0593 52.7695 37.0593C52.7695 37.0593 52.7695 37.0593 52.5797 37.0593C51.4408 37.0593 50.1121 37.2474 49.163 37.0593C48.214 37.0593 48.9732 35.3662 48.4038 34.6137Z" fill="black"/>
<path d="M9.49205 18.6238C10.2513 17.6832 10.0615 16.5545 10.4411 15.6139C11.3902 11.0991 12.3393 6.58423 13.2883 2.06937C13.4782 1.50502 13.668 1.3169 14.2374 1.3169C15.5661 1.3169 16.8948 1.3169 18.2235 1.3169C19.1726 1.3169 19.3624 1.3169 18.9828 2.44561C17.2745 8.2773 15.7559 14.109 14.0476 19.7525C12.9087 23.703 12.1495 27.6535 12.3393 31.9803C12.5291 33.4852 12.3393 35.1783 12.3393 36.6832C12.3393 37.2476 12.1495 37.6238 11.58 37.4357C10.2513 37.4357 8.73279 37.4357 7.40409 37.4357C6.64483 37.4357 6.45501 37.2476 6.45501 36.4951C6.45501 34.2377 6.45501 31.9803 6.45501 29.7228C6.83464 27.0892 6.2652 24.4555 5.69575 22.01C3.79761 15.4258 1.89946 8.84165 0.191125 2.44561C-0.188504 1.50502 0.00131049 1.3169 0.950384 1.3169C2.08927 1.3169 3.41798 1.50502 4.55687 1.3169C5.69575 1.12878 5.88557 1.69314 6.07538 2.82185C7.21427 8.08918 8.35316 13.1684 9.49205 18.6238Z" fill="black"/>
<path d="M58.0847 21.8218C58.0847 17.1188 58.0847 12.2277 58.0847 7.52473C58.0847 6.39602 57.7051 6.01978 56.5662 6.2079C55.4273 6.2079 54.0986 6.2079 52.7699 6.2079C52.0106 6.2079 51.8208 6.01978 52.0106 5.45543C52.2004 4.1386 51.4412 2.44553 52.2004 1.69305C52.7699 1.1287 54.4782 1.50493 55.8069 1.50493C60.1727 1.50493 64.3486 1.50493 68.7143 1.50493C69.6634 1.50493 69.8532 1.69305 69.8532 2.63365C69.6634 3.76236 70.4227 5.45543 69.6634 6.2079C68.9041 6.77226 67.3856 6.39602 66.2467 6.39602C63.969 6.39602 63.969 6.39602 63.969 8.65345C63.969 17.8713 63.969 27.2772 63.969 36.495C63.969 37.4356 63.7791 37.8119 62.6403 37.8119C61.5014 37.8119 60.1727 37.8119 58.844 37.8119C58.0847 37.8119 57.8949 37.6237 57.8949 36.8713C58.0847 31.6039 58.0847 26.7129 58.0847 21.8218Z" fill="black"/>
<path d="M98.514 28.7821C98.514 29.9108 98.3242 31.0395 97.9446 31.9801C97.565 33.1088 96.6159 33.4851 95.477 33.2969C94.3381 33.1088 93.5788 32.3563 93.5788 31.0395C93.5788 28.7821 93.5788 26.5247 93.5788 24.2672C93.5788 22.0098 93.5788 19.9405 93.5788 17.6831C93.5788 16.9306 93.7687 16.3662 94.1483 15.8019C94.7177 15.0494 95.477 14.4851 96.4261 14.6732C97.3751 14.8613 97.7548 15.6138 97.9446 16.5544C98.8937 20.8811 98.7038 24.8316 98.514 28.7821ZM104.588 18.6237C104.588 16.7425 104.208 15.0494 103.639 13.3563C102.88 11.8514 101.741 10.9108 100.033 10.5346C97.3751 10.1583 95.6668 11.287 93.9585 13.7326V12.6039C93.9585 8.8415 93.9585 5.07912 93.9585 1.12862C93.9585 0.18803 93.7687 -8.89227e-05 92.8196 -8.89227e-05C91.6807 -8.89227e-05 90.5418 0.18803 89.4029 -8.89227e-05C88.264 -0.188208 88.0742 0.376149 88.0742 1.31674C88.0742 12.6039 88.0742 23.891 88.0742 35.1781C88.0742 37.2474 88.0742 37.2474 90.352 37.2474C91.1113 37.2474 92.0603 37.4356 92.8196 37.2474C93.7687 36.8712 93.1992 35.7425 93.7687 34.99C93.7687 34.99 93.7687 34.99 93.9585 34.99C94.1483 35.1781 94.1483 35.1781 94.3381 35.3662C95.8566 37.2474 97.7548 37.8118 100.222 37.4356C102.31 37.0593 103.449 35.5544 104.019 33.6732C104.208 33.1088 104.398 32.3563 104.588 31.6039C104.968 27.6534 104.778 23.1385 104.588 18.6237Z" fill="black"/>
<path d="M28.2825 29.9108C28.2825 30.6632 28.0927 31.6038 27.9029 32.3563C27.7131 33.2969 27.1436 33.8613 26.1945 33.8613C25.2455 33.8613 24.676 33.2969 24.4862 32.3563C24.1066 31.2276 24.1066 29.9108 24.1066 28.7821C24.1066 27.2771 24.1066 25.7722 24.1066 24.0791C24.2964 22.0098 23.9168 19.5642 24.2964 17.1187C24.2964 16.7425 24.4862 16.1781 24.676 15.8019C25.0556 15.2375 25.4353 14.8613 26.1945 14.8613C26.9538 14.8613 27.5232 15.2375 27.7131 15.99C28.0927 16.9306 28.2825 17.8712 28.2825 18.9999C28.2825 22.386 28.2825 26.1484 28.2825 29.9108ZM34.1668 18.0593C33.7871 15.4256 33.0279 12.792 30.3705 11.287C25.0556 8.65334 19.3612 11.287 18.4121 17.1187C17.6529 21.6335 17.6529 25.9603 18.2223 30.4751C18.7918 35.3662 20.8797 37.4355 25.2455 37.8118C30.9399 38.188 33.7871 35.7425 34.3566 30.287C34.5464 28.2177 34.5464 26.3365 34.5464 24.2672C34.3566 22.1979 34.5464 20.1286 34.1668 18.0593Z" fill="black"/>
<path d="M113.129 19.9407C113.319 18.812 113.319 17.4951 113.509 16.3664C113.699 15.4258 114.078 14.6733 115.217 14.6733C116.356 14.6733 116.925 15.2377 117.115 16.3664C117.495 18.2476 117.495 20.3169 117.495 22.1981C117.495 22.5743 117.305 22.7625 116.925 22.7625C116.546 22.7625 116.356 22.7625 115.976 22.7625C113.129 22.7625 113.129 22.7625 113.129 19.9407ZM113.888 26.3367C115.217 26.3367 116.546 26.3367 117.874 26.3367C119.393 26.3367 120.722 26.3367 122.24 26.3367C122.81 26.3367 122.999 26.1486 122.999 25.5842C122.999 22.5743 123.189 19.3763 122.62 16.3664C122.24 14.4852 121.671 12.604 119.773 11.4753C115.217 8.65355 108.763 10.911 107.624 16.1783C106.486 21.4456 106.675 26.9011 107.624 32.1684C108.384 35.9308 110.472 37.6238 114.268 37.812C115.027 37.812 115.597 37.812 116.356 37.812C120.152 37.4357 122.24 35.3664 122.62 31.604C122.81 29.7228 122.81 29.7228 120.911 29.5347C120.532 29.5347 120.152 29.5347 119.773 29.5347C117.685 29.3466 117.685 29.3466 117.305 31.4159C117.305 31.604 117.305 31.7922 117.305 31.9803C117.115 33.2971 116.356 33.8615 115.217 33.8615C114.078 33.8615 113.319 33.2971 113.129 31.7922C112.939 30.2872 112.939 28.7823 112.939 27.0892C113.129 26.5248 113.319 26.1486 113.888 26.3367Z" fill="black"/>
</g>
<defs>
<clipPath id="clip0_38_4854">
<rect width="123" height="38" fill="white"/>
</clipPath>
</defs>
</svg>
