<svg width="79" height="73" viewBox="0 0 79 73" fill="none" xmlns="http://www.w3.org/2000/svg">
<path d="M79 56.8401C78.9792 58.355 78.6712 59.8699 78.4498 61.3822C78.2698 62.6429 78.1037 63.9114 77.7888 65.1539C77.4888 66.3478 77.0677 67.5229 76.5292 68.6688C75.934 69.9217 74.4979 70.6091 72.9233 71.0682C71.269 71.5278 69.5391 71.8166 67.781 71.9269C64.6838 72.1577 61.5901 72.4457 58.486 72.6013C55.112 72.7751 51.7276 72.8737 48.3432 72.9256C43.8791 72.9904 39.4081 73.0241 34.9441 72.98C31.8642 72.9489 28.7912 72.7673 25.7148 72.648C23.0433 72.5443 20.3752 72.4457 17.7072 72.3186C14.0921 72.1417 10.4974 71.7794 6.94841 71.2343C4.96228 70.9511 3.19771 70.1059 2.02063 68.8737C1.58625 68.3907 1.31326 67.8364 1.22471 67.2576C0.902877 65.5015 0.657179 63.7324 0.446087 61.9658C0.127719 59.2862 -0.0868342 21.9635 0.0342841 19.2709C0.169245 16.2541 0.245377 13.2347 0.760995 10.2308C0.996101 9.02213 1.68502 7.88853 2.74734 6.96234C3.16374 6.62621 3.70493 6.3913 4.30111 6.28789C5.43194 6.04981 6.59085 5.89432 7.76164 5.82357C12.8671 5.59011 17.976 5.48462 23.0883 5.5071C24.2718 5.5071 25.4588 5.3774 26.6388 5.41112C29.1062 5.48116 15.8316 5.60826 18.2955 5.73278C19.3752 5.78725 20.4479 5.90658 21.5276 5.95327C21.8201 5.95158 22.1028 5.87363 22.327 5.73278C24.2505 4.54746 25.6431 2.94863 26.317 1.15174C26.4127 0.856783 26.5568 0.571862 26.7461 0.303503C27.0644 -0.0985695 27.542 -0.103758 27.8431 0.303503C28.1156 0.682605 28.3226 1.08619 28.459 1.50453C28.9366 2.94161 29.1719 4.39426 28.7255 5.93511C29.9782 5.93511 31.0925 5.93511 32.186 5.93511C36.4182 5.90917 56.3889 5.84173 60.6212 5.86507C63.2581 5.88064 65.8985 5.97402 68.5285 6.12447C70.1417 6.26097 71.7431 6.46709 73.3247 6.74184C74.1448 6.85986 74.9227 7.10554 75.6082 7.463C76.2937 7.82046 76.8715 8.28174 77.3043 8.81706C77.7335 9.36063 78.0223 9.95991 78.1556 10.5836C78.4616 11.7829 78.6604 12.9961 78.7509 14.2152C78.8997 16.8741 79.0069 54.176 78.9723 56.8375" fill="#1A171B"/>
<path d="M41.544 26.16C41.544 27.888 41.448 30.416 41.256 33.744C41.064 36.944 40.968 39.392 40.968 41.088C40.968 41.536 41 42.464 41.064 43.872C41.032 44.416 40.84 44.832 40.488 45.12C40.136 45.376 39.72 45.504 39.24 45.504C38.728 45.504 38.264 45.376 37.848 45.12C37.432 44.864 37.176 44.528 37.08 44.112C36.696 41.488 36.504 38.352 36.504 34.704L36.552 27.216C36.552 26.032 36.696 25.072 36.984 24.336C37.304 23.568 37.976 23.184 39 23.184C39.864 23.184 40.504 23.472 40.92 24.048C41.336 24.592 41.544 25.296 41.544 26.16ZM39 48C41.176 48 42.264 48.816 42.264 50.448C42.264 51.28 41.992 52.048 41.448 52.752C40.936 53.424 40.28 53.76 39.48 53.76C38.52 53.76 37.736 53.472 37.128 52.896C36.52 52.288 36.216 51.584 36.216 50.784C36.216 50.08 36.472 49.44 36.984 48.864C37.528 48.288 38.2 48 39 48Z" fill="white"/>
</svg>
