<svg width="427" height="140" viewBox="0 0 427 140" fill="none" xmlns="http://www.w3.org/2000/svg">
<path d="M12.308 16.3473C13.0073 18.1637 12.7276 20.1198 12.0283 21.7964C11.1891 23.7525 9.6506 25.1497 7.83239 25.988C6.71349 26.5469 5.59459 27.1058 4.47569 27.3852C4.33583 25.01 4.33583 22.6347 4.19596 20.3992C3.91624 17.8842 3.77638 15.3693 3.49665 12.8543C3.49665 12.8543 3.49665 12.8543 3.63651 12.8543C6.85335 11.5968 10.9094 12.8543 12.308 16.3473ZM3.07706 42.475C3.07706 43.8723 3.21693 45.4092 3.21693 46.8064C3.21693 47.505 3.35679 48.2036 3.35679 49.0419C3.35679 49.3214 3.35679 49.7405 3.35679 50.02C3.49665 50.4391 3.77638 50.7186 3.91624 51.1377C4.0561 51.5569 4.89528 51.6966 5.03514 51.2774C5.03514 50.998 5.31486 50.8583 5.45473 50.5788C5.59459 50.2994 5.45473 50.02 5.45473 49.7405C5.45473 49.0419 5.45473 48.3433 5.31486 47.7844C5.31486 46.5269 5.175 45.2695 5.175 43.8723C5.03514 41.3573 4.89528 38.7026 4.75541 36.1876C4.61555 34.3713 4.61555 32.5549 4.47569 30.7385C5.45473 30.5988 6.43376 30.3194 7.27294 29.9002C9.93032 28.7824 12.4478 27.2455 13.9863 24.5908C15.2451 22.3553 15.8045 19.5609 15.1052 17.0459C14.4059 14.5309 12.7276 12.4351 10.3499 11.3174C7.97225 10.0599 5.175 9.92016 2.79734 11.3174C2.37775 11.1776 1.8183 11.3174 1.8183 11.8762C1.8183 17.0459 2.09803 22.3553 2.23789 27.525C2.23789 27.525 2.09803 27.525 2.09803 27.3852C1.39871 26.9661 0.55954 27.525 0.419678 28.2236C0.419678 29.481 1.25885 30.3194 2.37775 30.7385C2.65748 34.3713 2.79734 38.4232 3.07706 42.475Z" fill="#B2B3B5"/>
<path d="M24.3361 20.8183C25.0354 21.2375 25.3151 22.2155 25.3151 23.0539C25.1752 24.7305 24.1962 25.8483 22.9374 26.8263C22.9374 24.7305 22.7976 22.6347 22.7976 20.3992C23.357 20.3992 23.9165 20.5389 24.3361 20.8183ZM29.7907 35.3493C29.2313 34.3712 28.5319 33.3932 27.8326 32.5549C26.8536 31.2974 25.7347 30.1796 24.6158 29.0619C26.7137 27.2455 28.2522 24.8702 27.6928 22.0758C27.413 20.5389 26.434 19.2814 24.8955 18.5828C23.9165 18.1636 22.6577 18.0239 21.6787 18.4431C21.2591 18.4431 20.6996 18.7225 20.6996 19.2814C20.5598 19.5609 20.5598 19.8403 20.6996 20.1197C20.5598 23.0539 20.5598 26.1277 20.4199 29.0619C20.4199 30.7385 20.4199 32.4151 20.4199 33.9521C20.4199 34.7904 20.4199 35.6287 20.4199 36.467C20.4199 37.3054 20.4199 38.1437 20.5598 38.982C20.8395 39.8203 22.378 40.6587 22.7976 39.4012C23.2172 37.8643 23.0773 36.0479 23.0773 34.511C23.0773 33.3932 23.0773 32.1357 23.0773 31.0179C24.0563 31.996 24.8955 32.974 25.7347 34.0918C26.2941 34.7904 26.7137 35.6287 27.2732 36.3273C27.8326 37.1656 28.1124 38.1437 28.8117 38.982C29.511 40.0998 31.7488 39.6806 31.3292 38.1437C30.9096 37.1656 30.3502 36.3273 29.7907 35.3493Z" fill="#B2B3B5"/>
<path d="M34.1264 36.7465C37.0636 37.026 40.1405 37.4451 43.0776 37.5848C44.8959 37.5848 44.4763 34.9302 42.9378 34.6507C40.5601 34.3713 38.3223 34.3713 35.9447 34.2316C36.9237 29.9002 38.4622 25.5689 40.7 21.7964C41.1196 21.0978 40.8398 20.1198 40.0007 19.8403C37.4831 18.8623 34.8258 18.4431 32.1684 18.8623C30.9096 19.1417 31.3292 20.6787 32.4481 20.6787C34.1265 20.6787 35.9447 20.9581 37.623 21.517C35.3852 25.8483 33.7069 30.3194 32.7278 35.2096C32.7278 35.7685 33.4271 36.6068 34.1264 36.7465Z" fill="#B2B3B5"/>
<path d="M46.0147 28.0838C46.0147 30.3193 46.1546 32.6946 46.1546 34.9301C46.1546 35.7684 46.8539 36.7465 47.833 36.6068C49.0917 36.3273 50.4903 36.1876 51.7491 36.1876C53.1477 36.0479 54.4065 36.1876 55.8051 36.1876C57.4835 36.1876 57.0639 33.6726 55.6653 33.5329C53.5673 33.2535 51.1897 33.3932 48.9519 33.6726C48.9519 31.996 48.9519 30.1796 48.812 28.503C48.9519 28.503 49.0917 28.503 49.2316 28.503C50.0708 28.503 50.9099 28.503 51.7491 28.503C52.3086 28.503 52.7281 28.0838 52.7281 27.5249C52.7281 27.3852 52.7281 27.1058 52.5883 26.966C52.4484 26.5469 52.0288 26.1277 51.6092 26.1277C50.6302 25.988 49.791 26.1277 48.812 26.1277C48.812 25.4291 48.812 24.8702 48.812 24.1716L48.6721 21.3772C48.6721 20.8183 48.3924 20.2595 49.0917 20.2595C49.791 20.1197 50.4903 20.2595 51.1897 20.2595C52.1687 20.2595 53.0079 20.3992 53.9869 20.5389C54.5464 20.6786 55.2457 20.2595 55.2457 19.5609C55.3855 18.8622 54.8261 18.4431 54.1268 18.1636C52.3086 17.6048 50.0708 17.1856 48.1127 17.465C47.2735 17.6048 46.4343 18.0239 46.0147 18.8622C45.5952 19.7006 45.735 20.8183 45.735 21.7964C45.735 23.3333 45.735 24.8702 45.8749 26.4072C45.4553 26.5469 45.1756 27.1058 45.3154 27.5249C45.4553 27.5249 45.735 27.8044 46.0147 28.0838Z" fill="#B2B3B5"/>
<path d="M61.5396 31.4371C61.5396 32.2755 61.5395 33.1138 61.6794 33.9521C61.8193 34.511 62.2389 34.9302 62.7983 35.0699C63.2179 35.2096 63.9172 34.9302 64.0571 34.3713C64.3368 32.9741 64.1969 31.2974 64.0571 29.7605C64.0571 28.2236 63.9172 26.8264 63.9172 25.2894C64.1969 25.2894 64.3368 25.1497 64.4767 24.8703C65.176 23.8922 66.0152 22.9142 66.8543 21.9361C66.8543 22.6347 66.8543 23.1936 66.9942 23.8922C67.1341 25.1497 67.2739 26.5469 67.5536 27.8044C67.8334 29.0619 68.1131 30.3194 68.3928 31.5769C68.6725 32.9741 69.0921 34.511 69.7914 35.6288C70.0712 36.0479 70.7705 36.3274 71.3299 36.1876C71.8894 36.0479 72.0292 35.489 72.0292 34.9302C72.0292 34.2316 71.7495 33.6727 71.4698 33.1138C71.3299 32.5549 71.0502 31.8563 70.9103 31.1577C70.6306 29.9002 70.3509 28.6427 70.0712 27.525C69.7914 26.2675 69.6516 25.01 69.5117 23.7525C69.3719 22.6347 69.3719 21.0978 68.8124 20.2595C69.9313 19.2815 71.0502 18.3034 72.309 17.4651C73.1481 16.9062 74.5468 16.2076 73.9873 15.0898C73.7076 14.531 73.0083 14.3912 72.5887 14.3912C72.0292 14.3912 71.4698 14.8104 71.0502 15.0898C69.5117 16.0679 67.9732 17.3254 66.5746 18.7226C65.5956 19.7006 64.7564 20.8184 63.9172 21.9361C63.7774 19.8403 63.6375 17.8842 63.3578 15.7884C63.3578 14.9501 61.8193 14.8104 61.8193 15.6487C61.6794 18.7226 61.5396 21.6567 61.5396 24.7306C61.5396 26.2675 61.5396 27.8044 61.5396 29.3413C61.5396 29.9002 61.5396 30.5988 61.5396 31.4371Z" fill="#B2B3B5"/>
<path d="M73.4278 25.8483C72.8683 25.8483 72.4487 26.4072 72.4487 26.966C72.4487 27.5249 73.0082 27.9441 73.5676 28.2235C74.4068 28.503 75.3858 28.6427 76.3649 28.7824C76.5047 31.2974 76.6446 33.8124 76.9243 36.3273C77.0642 37.0259 77.7635 37.4451 78.4628 37.5848C82.0992 37.7245 85.5958 38.004 89.2322 38.2834C89.9315 38.2834 90.491 37.4451 90.3511 36.7465C90.2113 35.9082 89.5119 35.489 88.6728 35.489C85.5958 35.3493 82.5188 35.2096 79.302 35.0698C79.0223 33.1137 78.8824 31.1577 78.7425 29.0619C79.0223 29.0619 79.302 29.0619 79.4419 29.2016C79.7216 29.2016 80.1412 29.3413 80.4209 29.3413C80.7006 29.3413 80.9803 29.3413 81.2601 29.3413C81.5398 29.3413 81.6797 29.2016 81.8195 29.0619C82.5188 28.6427 82.2391 27.6646 81.6797 27.2455C80.9803 26.6866 80.1412 26.6866 79.302 26.5469C79.0223 26.5469 78.6027 26.4072 78.323 26.4072C78.1831 23.8922 78.1831 21.3772 78.1831 18.7225C78.1831 17.6048 76.3649 17.1856 76.3649 18.3034C76.225 20.8183 76.0852 23.473 76.0852 25.988C75.3858 25.988 74.4068 25.8483 73.4278 25.8483Z" fill="#B2B3B5"/>
<path d="M100.141 20.5389C100.421 22.6347 100.841 24.7305 101.121 26.8264C100.281 26.8264 99.4422 26.6866 98.603 26.6866C98.603 26.5469 98.603 26.4072 98.7428 26.2675C99.0226 24.3114 99.4422 22.3553 100.141 20.5389ZM92.0295 29.481C93.1483 29.3413 94.2672 29.3413 95.3861 29.3413C95.1064 31.7166 94.8267 34.0918 94.8267 36.3273C94.8267 37.5848 96.9246 38.1437 97.0645 36.7465C97.3442 34.2315 97.6239 31.7166 98.0435 29.2016C99.1624 29.2016 100.281 29.2016 101.4 29.2016C101.82 32.2755 102.1 35.3493 102.379 38.5629C102.519 40.2395 105.316 40.2395 105.177 38.4232C104.337 30.7385 103.218 23.0539 101.82 15.3693C101.54 14.2515 99.8617 13.6926 99.3023 14.9501C97.7638 18.7226 96.6449 22.6347 95.8057 26.6866C94.4071 26.8264 93.0085 26.9661 91.6099 27.2455C89.9315 27.525 90.491 29.6208 92.0295 29.481Z" fill="#B2B3B5"/>
<path d="M111.75 21.2375C112.729 21.6567 113.708 22.0758 114.547 22.7744C116.226 24.1716 117.345 26.1277 117.624 28.2235C117.904 30.4591 117.065 32.5549 115.526 34.3712C114.827 35.2095 113.988 36.0479 113.009 36.7465C112.31 37.1656 111.61 37.4451 111.331 36.6068C111.191 36.3273 110.911 36.0479 110.631 35.9082C110.631 35.7684 110.631 35.489 110.491 35.3493C110.352 34.5109 110.212 33.6726 110.072 32.8343C109.792 31.1577 109.652 29.481 109.512 27.6646C109.233 25.2894 109.093 22.7744 108.953 20.3992C110.072 20.6786 110.911 20.958 111.75 21.2375ZM107.694 32.5549C107.834 33.3932 107.974 34.2315 108.114 35.0698C108.254 35.9082 108.393 36.8862 108.953 37.4451C109.093 38.5628 109.932 39.4012 111.051 39.8203C112.31 40.2395 113.708 40.0998 114.827 39.4012C115.946 38.8423 116.785 37.8642 117.624 36.8862C118.464 35.9082 119.163 34.9301 119.722 33.6726C121.96 29.0618 119.862 23.473 115.946 20.5389C113.988 19.1417 111.47 18.0239 109.093 18.1636C109.093 17.8842 109.093 17.7445 109.093 17.465C109.093 16.6267 107.694 16.487 107.554 17.3253C107.275 20.6786 107.135 24.0319 107.414 27.5249C107.414 29.3413 107.554 30.8782 107.694 32.5549Z" fill="#B2B3B5"/>
<path d="M127.275 21.7964C127.555 23.1936 127.694 24.5908 127.834 25.988V26.1278C127.135 26.1278 126.575 26.1278 125.876 26.1278C126.436 24.8703 126.855 23.3333 127.275 21.7964ZM122.519 28.6427C122.659 28.6427 122.659 28.6427 122.799 28.6427C122.38 30.5988 121.96 32.5549 121.54 34.511C121.401 35.6288 123.359 36.4671 123.778 35.2096C124.338 33.1138 124.897 30.8783 125.457 28.7824C125.736 28.7824 126.016 28.7824 126.296 28.7824C126.995 28.7824 127.694 28.7824 128.254 28.7824C128.254 29.3413 128.394 30.0399 128.394 30.7385C128.534 31.5769 128.534 32.2755 128.534 33.1138C128.534 33.9521 128.673 34.6507 129.093 35.489C129.373 36.1876 130.771 36.6068 131.051 35.6288C131.331 34.7904 131.331 34.0918 131.331 33.2535C131.331 32.4152 131.191 31.5769 131.051 30.8783C130.911 30.0399 130.911 29.0619 130.771 28.2236C130.911 28.0838 130.911 27.9441 130.911 27.6647C130.911 27.3852 130.771 27.2455 130.631 26.9661C130.631 26.6866 130.492 26.4072 130.492 26.1278C130.072 22.9142 129.513 19.7006 128.813 16.6268C128.534 15.509 126.715 14.8104 126.296 16.2076C125.177 19.7006 124.058 23.0539 123.079 26.6866C122.659 26.6866 122.24 26.6866 121.96 26.6866C121.401 26.6866 120.981 27.2455 121.121 27.8044C121.401 28.2236 121.96 28.6427 122.519 28.6427Z" fill="#B2B3B5"/>
<path d="M140.981 55.0499C140.841 55.6088 140.562 56.0279 140.002 56.3074C139.443 56.5868 139.303 56.4471 139.023 56.0279C138.044 54.9102 137.205 53.6527 136.506 52.2555C135.247 49.6008 134.688 46.6667 136.086 44.012C136.925 42.1956 138.464 40.6587 139.862 39.1217C140.142 41.0778 140.562 43.0339 140.702 44.99C140.981 46.6667 141.121 48.483 141.121 50.1597C141.261 51.8363 141.401 53.6527 140.981 55.0499ZM151.471 17.8842C151.611 19.4211 151.751 20.8184 152.03 22.3553C151.611 22.3553 151.191 22.3553 150.912 22.2156C150.212 22.2156 149.653 22.2156 148.953 22.2156C149.513 20.6786 150.352 19.1417 151.471 17.8842ZM156.366 42.1956C156.366 42.0559 156.226 42.0559 156.366 42.1956C156.366 42.0559 156.366 42.1956 156.366 42.1956ZM133.429 15.2295C135.107 14.9501 136.785 14.9501 138.324 15.2295C137.205 18.1637 137.065 21.0978 137.345 24.1716C137.625 27.6647 138.324 31.1577 138.883 34.511C138.883 34.7904 139.023 34.9301 139.023 35.2096C137.065 37.5848 134.688 39.5409 133.289 42.3353C131.75 45.2694 131.89 48.7625 133.149 51.8363C133.848 53.513 134.688 54.9102 135.667 56.3074C136.646 57.7046 137.904 59.2415 139.723 59.1018C143.779 58.8223 143.779 54.2116 143.779 51.2774C143.639 47.505 143.219 43.7325 142.52 39.9601C142.38 38.8423 142.1 37.7245 141.96 36.4671C143.359 34.6507 144.478 32.6946 145.317 30.5988C146.016 28.7824 146.716 26.9661 147.415 25.1497C148.674 25.01 149.793 25.01 151.051 25.1497C151.471 25.1497 151.891 25.2894 152.31 25.2894C152.59 26.9661 153.01 28.6427 153.289 30.3193C153.429 31.1577 153.709 31.996 153.989 32.974C154.128 33.3932 154.268 33.8124 154.408 34.2315C154.408 34.3712 154.548 34.511 154.548 34.7904C154.408 35.2096 154.408 35.6287 154.548 36.0479C154.268 36.3273 153.989 36.6068 153.709 37.0259C152.87 38.1437 152.59 39.5409 152.59 40.9381C152.73 43.5928 155.107 45.968 157.765 45.5489C159.163 45.4092 161.401 44.1517 160.562 42.3353C160.282 41.9162 159.723 41.497 159.163 41.497C158.604 41.6367 158.324 41.7764 157.905 42.1956C157.765 42.1956 157.765 42.3353 157.625 42.3353H157.485C157.485 42.3353 157.345 42.3353 157.205 42.475C157.205 42.475 157.205 42.475 157.066 42.475H156.786H156.646C156.646 42.475 156.506 42.475 156.366 42.475C156.366 42.475 156.366 42.475 156.226 42.475C156.226 42.475 156.226 42.475 156.086 42.475C156.086 42.475 155.947 42.475 155.947 42.3353L155.807 42.1956C155.807 42.1956 155.807 42.0559 155.667 42.0559C155.667 41.9162 155.527 41.7764 155.527 41.7764V41.6367C155.527 41.497 155.387 41.3573 155.387 41.2176C155.387 41.2176 155.387 41.0778 155.387 40.9381C155.387 40.7984 155.387 40.6587 155.387 40.6587C155.387 40.5189 155.387 40.3792 155.387 40.2395C155.387 40.2395 155.527 39.8203 155.387 39.9601C155.527 39.6806 155.527 39.5409 155.667 39.2615C155.667 39.1217 155.807 38.982 155.947 38.8423C155.947 38.8423 155.947 38.7026 156.086 38.7026C156.226 38.4231 156.366 38.1437 156.646 37.8643C157.066 37.3054 157.345 37.0259 157.765 36.6068C158.604 35.9082 158.045 34.9301 157.205 34.6507C157.205 34.511 157.066 34.3712 157.066 34.2315C156.926 33.6726 156.786 33.1138 156.646 32.5549C156.366 31.4371 156.086 30.1796 155.807 29.0619C155.527 28.0838 155.387 27.1058 155.247 25.988C155.667 25.988 156.086 25.8483 156.366 25.7086C156.646 25.4291 156.786 25.01 156.646 24.7305C156.366 23.8922 155.527 23.473 154.688 23.3333C154.268 20.5389 153.989 17.6048 153.709 14.6706C153.709 13.6926 152.03 12.8543 151.191 13.5529C148.114 16.0679 146.296 19.7006 144.758 23.3333C144.478 23.3333 144.338 23.473 144.058 23.473C143.359 23.6128 143.079 24.4511 143.359 25.1497C143.499 25.2894 143.639 25.5688 143.779 25.7086C143.499 26.5469 143.079 27.5249 142.8 28.3633C142.66 29.3413 142.1 30.7385 141.261 32.1357C140.981 30.5988 140.702 29.0619 140.562 27.5249C140.282 25.4291 140.002 23.3333 140.002 21.0978C140.002 19.002 140.562 16.9062 141.541 15.0898C141.821 14.5309 141.401 13.5529 140.702 13.4132C138.044 12.4351 135.387 12.2954 132.729 12.994C131.331 13.2734 132.17 15.509 133.429 15.2295Z" fill="#B2B3B5"/>
<path d="M167.975 34.2315C169.513 34.5109 171.192 34.3712 172.59 33.8123C173.429 33.5329 174.129 33.1137 174.828 32.5549C175.527 31.996 176.087 31.5768 176.366 30.7385C176.506 30.0399 175.947 29.3413 175.248 29.3413C174.129 29.3413 173.15 30.0399 172.171 30.459C171.192 30.8782 170.213 31.1576 169.094 31.1576C168.674 31.1576 168.254 31.1576 167.975 31.0179C167.835 31.0179 167.555 30.8782 167.415 30.7385C167.275 30.7385 167.275 30.5988 167.136 30.5988C166.576 30.1796 166.157 29.7604 165.737 29.2016C164.059 26.4071 164.758 22.3553 166.996 19.8403C168.394 18.3034 170.912 17.1856 173.01 18.0239C173.569 18.3034 174.269 18.0239 174.548 17.465C174.828 16.9061 174.408 16.2075 173.849 15.9281C171.331 14.5309 168.254 14.6706 165.877 16.3473C163.779 17.8842 162.38 20.3992 161.821 22.9141C160.702 27.8044 163.08 33.2535 167.975 34.2315Z" fill="#B2B3B5"/>
<path d="M212.871 42.3353C212.871 41.2175 213.15 39.9601 213.43 38.8423C213.57 41.3573 213.71 43.7325 213.85 46.2475C213.71 45.968 213.57 45.5489 213.43 45.2694C213.011 44.4311 212.871 43.3134 212.871 42.3353ZM206.017 18.7225C207.696 18.4431 209.374 18.3034 210.913 18.4431C211.612 23.473 212.311 28.3633 212.871 33.3932C210.913 36.6068 209.794 40.3792 210.353 44.1517C210.633 45.5489 211.052 46.9461 211.892 48.0639C212.731 49.1816 214.409 50.1597 215.808 49.4611C216.227 49.3213 216.647 48.9022 216.647 48.483C216.507 43.7325 216.227 38.982 215.808 34.2315C217.766 31.1577 220.563 28.503 222.801 25.5688C222.661 26.966 222.381 28.503 222.381 29.9002C222.381 30.7385 222.241 31.5768 222.661 32.2754C223.081 33.1138 223.92 33.6726 224.899 33.8124C225.878 33.9521 226.717 33.8124 227.696 33.8124C226.997 35.0698 226.577 36.467 226.577 38.004C226.577 39.4012 226.997 40.9381 228.256 41.9161C229.235 42.6147 230.493 42.8942 231.752 42.475C232.172 42.3353 232.451 42.1956 232.731 41.9161L232.871 41.7764C233.011 41.6367 233.151 41.6367 233.151 41.497C233.57 41.0778 233.71 40.3792 233.57 39.8203C233.43 39.2615 232.731 38.8423 232.312 39.2615C232.172 39.4012 231.892 39.5409 231.752 39.5409C231.612 39.5409 231.612 39.6806 231.612 39.6806C231.612 39.6806 231.612 39.6806 231.472 39.6806C231.332 39.6806 231.053 39.6806 230.913 39.8203C230.773 39.8203 230.773 39.8203 230.633 39.8203C230.493 39.8203 230.493 39.8203 230.353 39.8203C230.353 39.8203 230.353 39.8203 230.214 39.8203C230.214 39.8203 230.074 39.8203 230.074 39.6806C230.074 39.6806 230.214 39.6806 230.074 39.6806C230.074 39.6806 229.934 39.2615 229.934 39.4012C229.934 39.1217 229.794 38.8423 229.794 38.5629V38.4231V38.2834C229.794 38.1437 229.794 38.004 229.794 37.8643C229.794 37.5848 229.794 37.1656 229.934 36.8862V36.6068C229.934 36.467 230.074 36.3273 230.074 36.1876C230.214 35.9082 230.214 35.6287 230.353 35.3493C230.353 35.2096 230.493 35.0698 230.493 34.9301C230.493 34.9301 230.633 34.7904 230.633 34.6507C230.773 34.3712 231.053 33.9521 231.332 33.6726C232.591 33.2535 232.312 31.2974 230.913 31.1577C229.235 30.8782 227.556 31.0179 226.018 31.0179C225.878 31.0179 225.738 31.0179 225.598 31.0179C225.598 31.0179 225.598 31.0179 225.598 30.8782C225.598 30.0399 225.738 29.2016 225.738 28.3633C225.878 27.1058 226.018 25.8483 226.158 24.5908C226.297 24.5908 226.577 24.5908 226.717 24.5908C227.137 24.5908 227.556 24.5908 227.976 24.5908C228.535 24.5908 229.235 24.4511 229.654 23.8922C229.934 23.473 229.934 23.0539 229.654 22.6347C229.374 22.2155 228.955 22.0758 228.535 21.9361C228.255 21.9361 227.976 21.7964 227.696 21.7964C227.276 21.7964 226.997 21.7964 226.577 21.7964C226.717 20.8183 226.857 19.8403 227.137 18.8623C227.416 19.002 227.836 19.1417 228.116 19.1417C228.675 19.2814 229.235 19.4211 229.794 19.5609C230.074 19.7006 230.353 19.5609 230.633 19.5609C231.193 19.5609 231.752 19.2814 231.892 18.7225C232.172 17.7445 230.913 17.0459 230.074 16.7664C229.654 16.6267 229.235 16.6267 228.815 16.487C227.836 16.3473 226.857 16.0678 225.878 16.2076C225.598 16.2076 225.318 16.3473 225.179 16.487C224.899 16.6267 224.619 16.7664 224.479 17.1856C222.661 21.9361 218.885 25.5688 215.668 29.481C215.108 25.1497 214.549 20.9581 213.71 16.7664C213.57 16.0678 213.011 15.6487 212.311 15.6487C210.073 15.6487 207.836 15.9281 205.738 16.487C205.178 16.6267 205.038 17.1856 205.318 17.7445C205.038 18.5828 205.598 18.7225 206.017 18.7225Z" fill="#B2B3B5"/>
<path d="M237.347 32.5549C239.165 32.8343 240.983 33.1137 242.801 33.3932C243.64 33.5329 244.48 33.6726 245.459 33.6726C246.438 33.8123 247.277 33.9521 247.976 33.3932C248.675 32.974 248.955 31.996 248.116 31.4371C247.696 31.1576 247.417 30.8782 246.857 30.7385C246.438 30.5988 246.018 30.5988 245.598 30.5988C244.619 30.459 243.78 30.459 242.801 30.3193C241.822 30.1796 240.703 30.0399 239.724 29.9002C241.682 25.988 243.78 22.0758 246.018 18.4431C246.577 17.465 246.018 16.3473 244.899 16.0678C242.801 15.6487 240.563 15.2295 238.326 15.0898C237.766 15.0898 237.207 15.2295 237.067 15.7884C236.927 16.3473 237.347 17.0459 237.766 17.1856C239.305 17.7445 240.843 18.0239 242.242 18.4431C239.864 22.3553 237.626 26.4071 235.668 30.459C235.668 31.2974 236.507 32.4151 237.347 32.5549Z" fill="#B2B3B5"/>
<path d="M259.585 12.2954C258.745 15.509 258.046 18.7225 257.347 21.9361C256.927 21.2375 256.368 20.5389 255.948 19.8403C254.829 18.1637 253.571 16.7665 252.172 15.2295C251.752 14.8104 251.053 14.5309 250.633 14.9501C250.074 15.3693 250.214 15.9281 250.494 16.487C251.612 18.0239 252.591 19.7006 253.71 21.3772C254.13 22.0758 254.689 22.9142 255.249 23.7525C255.529 24.1716 255.668 24.4511 256.088 25.01C256.368 25.2894 256.508 25.7086 256.787 25.988C256.648 26.6866 256.508 27.3852 256.368 28.0838C255.948 30.5988 255.529 33.2535 255.249 35.9082C255.109 36.6068 255.109 37.1657 255.389 37.8643C255.668 38.5629 256.368 38.982 257.207 38.982C258.466 38.982 259.165 37.4451 258.326 36.4671C258.326 35.9082 258.606 35.2096 258.606 34.7904C258.745 33.6726 258.885 32.6946 259.025 31.5768C259.305 29.481 259.585 27.5249 260.004 25.4291C260.704 21.3772 261.403 17.3253 262.102 13.2734C262.102 11.8762 260.004 11.0379 259.585 12.2954Z" fill="#B2B3B5"/>
<path d="M277.627 34.0918C277.487 34.2315 277.487 34.2315 277.627 34.0918C277.487 34.2315 277.487 34.2315 277.627 34.0918ZM269.235 24.1717C269.935 23.1936 270.634 22.3553 271.473 21.517C272.592 24.7305 273.851 27.8044 275.109 31.018C275.389 31.8563 275.809 32.6946 276.089 33.5329C276.368 34.3713 276.648 35.489 277.347 36.1876C278.047 36.8862 279.445 37.1657 280.145 36.3273C280.844 35.489 280.284 34.511 279.585 33.9521C279.585 33.8124 279.445 33.6727 279.445 33.5329C279.305 33.2535 279.166 32.9741 279.026 32.6946C278.746 31.996 278.466 31.2974 278.186 30.7385C277.627 29.481 277.207 28.2236 276.648 26.9661C275.529 24.4511 274.55 21.7964 273.431 19.2814C273.571 19.1417 273.711 18.8623 273.851 18.7226C275.389 16.9062 277.068 15.0898 278.606 13.2735C279.585 12.2954 277.767 10.479 276.788 11.4571C274.97 13.1337 273.012 14.8104 271.333 16.6267C270.214 17.7445 269.235 19.002 268.256 20.1198C268.256 17.8842 268.396 15.7884 268.396 13.5529C268.396 12.1557 266.018 11.4571 265.879 13.1337C265.599 16.7665 265.319 20.3992 265.179 24.0319C265.039 25.8483 265.039 27.6647 264.9 29.3413C264.9 30.3194 264.76 31.1577 264.76 32.1357C264.76 33.1138 264.62 34.0918 265.039 35.0699C265.319 35.7685 266.718 36.3273 267.277 35.489C267.837 34.6507 267.837 33.8124 267.837 32.8343C267.837 31.8563 267.977 31.018 267.977 30.0399C268.116 28.2236 268.116 26.4072 268.256 24.7305C268.536 24.7305 268.956 24.5908 269.235 24.1717Z" fill="#B2B3B5"/>
<path d="M312.173 32.1357C311.334 32.9741 309.655 34.6507 308.257 34.2315C308.257 33.9521 308.257 33.5329 308.257 33.2535C308.257 32.4152 308.257 31.5768 308.257 30.5988C308.257 28.9222 308.117 27.2455 308.117 25.5689C308.117 23.8922 307.977 22.2156 307.837 20.6786C307.837 19.8403 307.697 19.002 307.558 18.024C307.558 17.7445 307.558 17.4651 307.418 17.3253C308.537 17.8842 309.795 18.1637 310.914 18.5828C312.593 19.1417 313.991 19.8403 314.551 21.6567C315.67 25.2894 314.551 29.3413 312.173 32.1357ZM313.991 17.1856C311.893 15.9281 309.236 16.0679 307.278 14.6707C306.718 14.3912 306.019 14.2515 305.599 14.8104C305.18 15.2295 305.32 15.9281 305.739 16.3473C305.599 16.7665 305.46 17.1856 305.46 17.7445C305.32 18.5828 305.32 19.4212 305.18 20.2595C305.04 21.9361 305.04 23.6128 305.04 25.2894C305.04 26.9661 305.04 28.503 305.04 30.1796C305.04 31.018 305.04 31.8563 305.04 32.8343C305.04 33.1138 305.04 33.2535 305.04 33.5329C304.9 33.6727 304.9 33.9521 304.9 34.2315C304.9 34.3713 305.04 34.511 305.04 34.6507C305.04 34.9301 305.04 35.2096 305.18 35.3493C305.32 36.1876 306.299 36.7465 307.138 36.6068C307.278 36.7465 307.558 36.7465 307.697 36.7465C309.096 37.0259 310.495 36.6068 311.614 35.9082C313.711 34.6507 315.39 32.4152 316.369 30.1796C318.327 26.4072 318.467 19.8403 313.991 17.1856Z" fill="#B2B3B5"/>
<path d="M330.355 36.3274C331.194 36.1876 332.033 36.0479 332.733 35.489C333.572 34.7904 333.152 33.1138 331.894 33.1138C330.495 32.9741 328.957 33.6727 327.558 33.9521C326.859 34.0918 326.019 34.2315 325.32 34.3713C325.04 34.3713 324.761 34.3713 324.481 34.3713C324.481 33.2535 324.341 31.018 324.341 30.7385C324.341 29.6208 324.341 28.503 324.201 27.3852C326.299 27.525 328.397 27.6647 330.495 27.6647C331.194 27.6647 331.754 26.9661 331.614 26.2675C331.474 25.4291 330.775 25.01 330.075 25.01C328.117 24.8703 326.159 25.01 324.201 25.1497C324.061 22.3553 323.921 19.5609 323.921 16.9062C323.921 16.487 323.782 16.3473 324.201 16.0679C324.761 15.7884 325.46 15.9282 326.019 15.7884C327.558 15.6487 329.096 15.509 330.635 15.509C332.173 15.509 331.894 13.1337 330.495 13.1337C328.957 12.994 327.558 12.994 326.019 12.994C324.761 12.994 323.362 12.994 322.383 13.5529C321.124 14.2515 320.984 15.3693 320.984 16.6268C320.984 18.024 320.984 19.4212 321.124 20.9581C321.124 23.8922 321.264 26.8264 321.404 29.9002C321.404 31.2974 321.404 32.6946 321.544 34.2315C321.544 35.6287 322.103 37.026 323.642 37.4451C325.04 37.7246 326.719 37.3054 328.117 37.026C328.817 36.6068 329.656 36.4671 330.355 36.3274Z" fill="#B2B3B5"/>
<path d="M339.866 33.1138C339.726 33.1138 339.726 33.1138 339.866 33.1138V33.1138ZM337.768 19.5609C337.768 21.0978 337.768 22.6347 337.768 24.1716C337.628 24.3114 337.628 24.4511 337.628 24.5908C337.628 24.8702 337.628 25.01 337.768 25.2894C337.768 25.8483 337.768 26.4072 337.768 26.966C337.768 28.3633 337.908 29.9002 337.908 31.2974C337.908 32.5549 337.628 34.511 338.887 35.3493C339.446 35.7684 340.006 35.7684 340.565 35.489C341.124 35.2096 341.124 34.6507 341.124 34.2315C340.705 31.7165 340.845 29.2016 340.705 26.6866C340.705 26.5469 340.705 26.4072 340.705 26.4072C342.803 26.6866 345.041 26.5469 346.999 25.988C347.558 25.8483 347.838 25.1497 347.698 24.4511C347.558 23.8922 346.859 23.3333 346.159 23.473C344.901 23.6128 343.782 23.7525 342.523 23.8922C341.964 23.8922 341.404 23.8922 340.705 23.8922C340.565 23.8922 340.565 23.8922 340.425 23.8922C340.285 22.495 340.285 21.2375 340.145 19.8403C341.264 19.8403 342.383 19.8403 343.642 19.8403C345.6 19.8403 347.558 19.98 349.516 19.7006C350.076 19.5609 350.635 19.2814 350.635 18.5828C350.635 18.3034 350.635 18.1637 350.495 17.8842C350.355 17.4651 349.796 17.0459 349.376 17.0459C347.418 16.7664 345.32 17.0459 343.362 17.0459C341.404 17.0459 339.446 17.1856 337.488 17.1856C336.789 17.1856 336.369 17.8842 336.509 18.4431C336.509 19.1417 337.068 19.5609 337.768 19.5609Z" fill="#B2B3B5"/>
<path d="M355.67 36.4671C355.81 34.7904 355.67 33.1138 355.53 31.5769C355.53 29.9002 355.53 28.2236 355.53 26.5469C355.53 23.1936 355.53 19.8403 355.67 16.487C355.67 15.2295 353.572 14.6707 353.432 16.0679C353.013 19.4212 352.873 22.7745 352.733 26.1278C352.733 27.8044 352.733 29.3413 352.733 31.018C352.733 32.6946 352.593 34.511 352.873 36.3274C353.153 37.5848 355.53 38.004 355.67 36.4671Z" fill="#B2B3B5"/>
<path d="M359.586 18.7226C359.586 20.6786 359.447 22.6347 359.447 24.5908C359.447 26.1277 359.447 27.6647 359.447 29.2016C359.447 30.8782 359.307 32.6946 359.726 34.2315C360.006 35.2096 361.824 35.489 362.104 34.3713C362.523 32.8343 362.244 31.018 362.244 29.481C362.244 27.9441 362.104 26.4072 362.104 24.8703C362.104 24.7305 362.104 24.4511 362.104 24.3114C363.922 27.8044 365.88 31.1577 368.118 34.511C368.817 35.6287 370.636 35.3493 370.775 33.9521C371.055 31.018 371.335 28.0838 371.615 25.2894C371.894 22.3553 372.314 19.4212 372.314 16.487C372.314 14.8104 369.796 14.1118 369.517 15.9281C368.957 18.7226 368.817 21.7964 368.538 24.5908C368.398 26.1277 368.258 27.6647 368.118 29.0619C365.88 25.4291 363.782 21.517 361.824 17.7445C361.824 16.9062 361.684 16.0679 361.544 15.0898C361.405 14.1118 359.726 13.8323 359.726 14.9501C359.726 15.3693 359.726 15.6487 359.726 16.0679C359.167 16.2076 358.747 16.7665 359.167 17.4651C359.307 18.024 359.447 18.3034 359.586 18.7226Z" fill="#B2B3B5"/>
<path d="M376.649 34.511C376.649 35.3493 377.209 36.1876 378.188 36.3274C379.447 36.6068 380.705 35.6288 380.426 34.2316C380.286 33.9521 380.146 33.6727 379.866 33.3932C379.726 27.9441 378.747 22.6347 377.489 17.4651C377.209 16.0679 374.831 16.0679 375.111 17.6048C375.95 23.1936 376.37 28.9222 376.649 34.511Z" fill="#B2B3B5"/>
<path d="M385.601 32.8343C387.839 34.3713 390.636 34.7904 393.153 34.2316C394.552 33.9521 395.951 33.3932 397.07 32.5549C397.349 32.2755 397.769 31.996 398.049 31.7166C398.328 31.4371 398.468 31.1577 398.608 30.7385C399.028 30.1797 399.447 29.4811 399.587 28.7824C399.587 28.2236 398.888 27.525 398.328 27.8044C397.909 28.0838 397.629 28.3633 397.209 28.6427C397.07 28.7824 396.79 28.9222 396.65 29.0619C396.37 29.2016 396.091 29.3413 395.811 29.4811C394.972 30.0399 394.272 30.4591 393.433 30.7385C391.755 31.2974 389.937 31.5769 388.398 30.8783C386.86 30.1797 385.881 28.9222 385.881 27.1058C385.881 25.1497 386.58 22.9142 387.839 21.3773C388.958 19.8403 391.195 18.5828 393.014 19.7006C394.412 20.3992 395.531 18.3034 394.272 17.6048C391.895 16.0679 388.678 16.3473 386.58 18.1637C384.482 19.9801 383.223 22.7745 382.804 25.5689C382.244 28.2236 383.083 31.1577 385.601 32.8343Z" fill="#B2B3B5"/>
<path d="M408.398 53.9321C408.398 55.0499 408.398 56.4471 407.979 57.5649C407.839 57.7046 407.839 57.8443 407.699 58.1238C407.559 58.2635 407.419 58.4032 407.419 58.4032C407.419 58.4032 407.28 58.4032 407.28 58.2635C407.14 58.1238 407 57.984 407 57.8443C405.321 55.6088 403.783 53.0938 403.503 50.2994C403.084 45.9681 405.042 42.0559 407.419 38.5629C407.979 43.7325 408.538 48.9022 408.398 53.9321ZM423.364 34.9301C423.364 33.3932 423.224 31.8563 422.944 30.3194C422.804 28.7824 422.664 27.2455 422.525 25.8483C422.245 22.9142 422.245 19.8403 422.245 16.7665C422.245 16.0679 421.825 15.3693 420.986 15.0898C420.287 14.9501 419.448 15.0898 419.308 15.7884C418.329 18.8623 416.371 21.3773 414.412 23.7525C412.734 25.8483 411.056 28.0838 409.377 30.1796C409.098 25.8483 409.238 21.517 410.077 17.1856C410.217 16.3473 409.238 15.6487 408.538 15.6487C406.301 15.7884 404.063 15.7884 401.825 15.509C400.286 15.3693 400.147 17.4651 401.685 17.7445C403.503 18.024 405.321 18.3034 407.28 18.3034C406.44 23.3333 406.58 28.503 407 33.5329C403.503 38.2834 400.147 43.5928 400.566 49.6008C400.706 52.9541 402.244 55.7485 404.203 58.4032C405.182 59.6607 406.161 61.0579 407.979 61.0579C409.377 61.0579 410.356 60.0798 410.916 58.9621C411.475 57.7046 411.615 56.3074 411.615 54.9102C411.615 53.2335 411.615 51.5569 411.615 49.8802C411.475 46.527 411.056 43.0339 410.636 39.6806C410.496 38.1437 410.217 36.4671 410.077 34.9301C410.217 34.7904 410.356 34.511 410.496 34.3713C412.734 31.4371 414.972 28.6427 417.21 25.7086C418.049 24.7305 418.748 23.6128 419.587 22.6347C419.587 23.6128 419.727 24.5908 419.727 25.5689C419.867 28.6427 420.007 31.996 420.986 34.9301C421.126 36.3274 423.364 36.3274 423.364 34.9301Z" fill="#B2B3B5"/>
<path d="M426.441 0.558871C426.021 0.27943 425.881 0.139709 425.322 0.139709C425.042 0.139709 424.762 0.139709 424.622 0.139709C424.063 0.139709 423.643 0.27943 423.084 0.558871C422.944 0.698592 422.804 0.698592 422.664 0.838312C422.524 0.978033 422.245 1.25747 422.105 1.39719C421.825 1.81636 421.685 2.0958 421.685 2.51496C421.545 2.65468 421.545 2.93412 421.545 3.21356C421.545 3.35328 421.545 3.63272 421.545 3.77244C421.685 4.05189 421.685 4.33133 421.965 4.61077C422.105 4.75049 422.245 4.89021 422.385 5.02993C422.524 5.16965 422.804 5.30937 422.944 5.30937C423.364 5.44909 423.783 5.58881 424.203 5.44909C424.622 5.30937 425.042 5.30937 425.462 5.02993C425.741 4.89021 426.021 4.61077 426.161 4.33133C426.301 4.05189 426.441 3.91216 426.58 3.63272C426.72 3.35328 426.72 3.07384 426.72 2.93412C426.86 2.65468 426.86 2.23552 426.86 1.95608C426.86 1.67664 426.86 1.53692 426.72 1.25747C426.72 0.838312 426.58 0.698592 426.441 0.558871Z" fill="#B2B3B5"/>
<path d="M18.0423 128.543C17.2031 125.469 16.3639 122.395 15.3849 119.321C14.9653 117.924 12.8673 117.924 12.3079 119.182C10.21 123.234 9.09106 127.565 8.67147 132.036C6.29381 127.705 4.4756 123.094 3.3567 118.343C3.21684 117.645 2.65739 117.086 1.81821 117.086C1.1189 117.086 0.419587 117.505 0.419587 118.204C0.279725 124.91 0.139862 131.896 0 138.743C0 140 1.95807 140.559 2.09794 139.162C2.37766 134.97 2.65739 130.778 2.93711 126.447C4.4756 130.639 6.57353 134.551 9.09106 138.184C10.0701 139.581 12.0282 138.742 11.8883 137.206C11.6086 132.874 12.168 128.543 13.7065 124.491C14.1261 126.028 14.5457 127.425 14.9653 128.962C15.3849 130.499 15.6646 131.896 15.9443 133.433C16.224 134.97 16.5038 136.647 17.2031 138.044C17.7625 139.162 19.8605 139.441 20.1402 137.904C20.2801 136.228 19.7206 134.691 19.4409 133.014C18.8814 131.617 18.4618 130.08 18.0423 128.543Z" fill="#B2B3B5"/>
<path d="M30.7696 135.808C29.6507 136.507 28.392 136.367 27.4129 135.669C26.1542 134.83 25.4549 133.293 25.0353 131.756C24.4758 129.242 23.9164 124.77 26.7136 123.234C27.5528 122.814 27.2731 121.976 26.7136 121.417C27.6927 120.998 28.8116 120.858 29.7906 121.138C32.448 121.836 34.1263 124.77 34.2662 127.565C34.406 130.359 33.2871 134.132 30.7696 135.808ZM31.4689 118.204C27.1332 116.387 21.5387 118.623 20.9793 123.653C20.8394 124.351 21.259 125.05 21.8184 125.329C21.3988 127.285 21.5387 129.381 21.6786 131.198C22.0982 133.573 22.9373 135.808 24.7555 137.485C26.4339 139.022 28.6717 139.86 30.9095 139.301C35.2452 138.323 37.2033 133.014 37.483 129.102C37.9026 124.631 35.6648 120.02 31.4689 118.204Z" fill="#B2B3B5"/>
<path d="M57.6233 119.601C57.3435 119.042 57.2037 118.902 57.2037 118.204C57.2037 118.343 57.3435 118.064 57.2037 117.924C57.2037 117.924 57.2037 117.924 57.2037 117.784C58.3226 117.086 57.4834 115.13 56.3645 115.13C55.5253 114.99 54.6861 115.269 54.1267 115.968C53.7071 116.667 53.5672 117.505 53.7071 118.343C53.847 119.88 54.6861 121.417 55.2456 122.954C55.9449 125.19 56.3645 127.425 56.3645 129.8C53.1477 126.447 50.3504 122.814 47.9727 119.042C47.4133 118.064 45.5951 118.064 45.1755 119.182C44.1965 121.557 43.4971 123.932 42.9377 126.447C42.3782 123.094 41.9587 119.74 41.5391 116.527C41.3992 115.269 39.1614 114.99 39.1614 116.387C39.0215 122.814 40.0006 129.241 41.6789 135.529C41.8188 136.367 42.5181 136.926 43.3573 136.926C44.0566 136.926 44.8958 136.507 44.8958 135.669C45.1755 131.477 46.0147 127.425 47.2734 123.513C50.0707 127.705 53.4274 131.477 57.0638 134.97C58.0428 135.808 59.7212 135.249 59.8611 133.992C60.1408 130.778 60.0009 127.425 59.3016 124.212C58.882 122.814 58.3226 121.138 57.6233 119.601Z" fill="#B2B3B5"/>
<path d="M72.029 123.373C71.3297 123.373 70.6304 123.234 69.9311 123.234C70.4906 121.836 71.05 120.439 71.7493 119.042C72.1689 120.439 72.5885 121.836 72.7284 123.373C72.4486 123.513 72.3088 123.513 72.029 123.373ZM73.2878 114.711C72.7284 113.593 70.9101 113.174 70.3507 114.571C68.9521 117.505 67.8332 120.579 66.7143 123.653C65.1758 123.792 63.7772 124.212 62.3785 124.631C60.84 125.05 61.8191 127.565 63.2177 127.285C64.0569 127.146 64.8961 127.006 65.7352 126.866C64.7562 129.94 63.917 133.014 63.2177 136.088C62.938 137.345 65.3156 138.323 65.7352 136.926C66.7143 133.433 67.6933 130.08 68.9521 126.727C69.0919 126.727 69.2318 126.727 69.3717 126.727C70.3507 126.727 71.3297 126.727 72.4486 126.866C72.7284 126.866 73.0081 126.866 73.2878 126.866C73.2878 127.705 73.2878 128.683 73.2878 129.521C73.2878 131.198 72.8682 132.874 73.0081 134.551C73.1479 135.948 75.106 136.228 75.8053 135.11C76.6445 133.573 76.6445 131.617 76.6445 130.08C76.6445 128.403 76.6445 126.587 76.3648 124.91C75.8053 121.138 74.8263 117.784 73.2878 114.711Z" fill="#B2B3B5"/>
<path d="M118.883 112.056C117.484 113.034 117.484 115.13 117.205 116.667C116.925 118.343 116.645 119.88 116.226 121.557C115.946 122.675 115.806 123.792 115.666 125.05C114.687 122.395 113.708 119.741 112.449 117.086C111.89 116.108 111.47 114.85 110.351 114.431C109.233 114.012 108.114 114.711 107.694 115.828C107.274 117.086 106.995 118.343 106.715 119.601C106.435 120.858 106.156 122.256 105.736 123.513C105.037 126.447 104.337 129.381 103.498 132.315C103.218 133.573 105.177 134.551 105.456 133.154C106.156 130.359 106.995 127.425 107.694 124.631C108.114 123.234 108.393 121.836 108.813 120.579C108.953 119.88 109.233 119.182 109.372 118.483C109.372 118.343 109.512 118.204 109.512 118.064C109.792 118.762 110.072 119.321 110.351 120.02C110.911 121.277 111.331 122.535 111.75 123.792C112.729 126.447 113.568 129.102 114.268 131.757C114.687 133.293 117.065 133.852 117.345 131.896C117.904 128.683 118.463 125.469 119.163 122.256C119.443 120.719 119.722 119.182 120.142 117.505C120.422 115.968 121.121 114.152 120.422 112.615C120.282 112.056 119.582 111.637 118.883 112.056Z" fill="#B2B3B5"/>
<path d="M126.436 114.152C126.296 112.894 124.058 112.615 124.058 114.012C124.058 116.667 124.058 119.321 124.058 121.976C124.058 124.631 124.058 127.425 124.198 130.08C124.338 131.756 127.415 132.176 127.415 130.22C127.415 127.565 127.135 124.77 126.995 122.116C126.855 119.461 126.715 116.806 126.436 114.152Z" fill="#B2B3B5"/>
<path d="M137.205 116.667C138.744 115.968 140.842 115.828 141.96 117.086C142.38 117.645 143.219 117.924 143.919 117.505C144.478 117.086 144.478 116.248 144.058 115.689C142.38 113.593 139.723 112.894 137.065 113.453C134.408 114.012 132.45 115.968 131.191 118.343C130.632 119.461 130.212 120.719 130.072 121.976C129.792 122.116 129.653 122.395 129.653 122.814C129.653 123.094 129.792 123.373 129.932 123.653C129.932 124.631 129.932 125.749 129.932 126.727C130.072 129.661 131.191 132.735 134.268 133.713C137.765 134.83 141.121 133.014 143.639 130.639C145.037 129.381 143.219 127.006 141.681 128.124C140.002 129.242 138.044 130.918 135.946 130.918C133.848 130.778 133.429 128.962 133.289 127.146C133.289 126.447 133.149 125.609 133.289 124.77C133.988 124.91 134.688 124.91 135.527 125.05C135.946 125.05 136.366 125.05 136.786 125.19C137.205 125.19 137.625 125.19 138.044 125.05C138.744 124.91 139.443 124.77 140.002 124.212C140.282 123.932 140.142 123.234 139.723 123.094C139.023 122.675 138.184 122.535 137.485 122.395C136.786 122.255 135.946 122.256 135.247 122.256C134.688 122.256 134.128 122.256 133.569 122.116C133.988 119.601 135.107 117.505 137.205 116.667Z" fill="#B2B3B5"/>
<path d="M160.842 113.453C160.282 114.99 160.003 116.527 159.583 118.064C159.303 119.601 158.884 120.998 158.744 122.535C158.464 124.212 158.185 125.888 158.045 127.705C155.667 123.932 153.709 119.88 152.45 115.689C152.45 115.549 152.31 115.409 152.17 115.269C152.31 113.872 150.212 113.453 149.933 114.85C149.513 117.365 148.954 120.02 148.674 122.535C148.534 123.792 148.254 125.05 148.114 126.447C147.975 127.705 147.695 129.102 147.695 130.359C147.835 131.757 150.212 132.455 150.632 130.918C151.052 129.661 151.052 128.263 151.191 127.006C151.331 125.749 151.471 124.351 151.611 123.094C151.611 122.814 151.611 122.535 151.751 122.256C153.289 126.168 155.387 129.8 158.045 133.014C158.884 133.992 160.842 133.992 160.982 132.455C161.261 129.381 161.681 126.447 162.101 123.373C162.66 120.439 163.499 117.505 164.059 114.431C164.338 112.755 161.541 111.776 160.842 113.453Z" fill="#B2B3B5"/>
<path d="M171.471 121.417C170.772 121.417 170.073 121.417 169.373 121.417C169.933 120.02 170.492 118.623 171.191 117.365C171.751 116.387 172.45 115.549 173.01 114.571C173.289 115.13 173.429 115.689 173.569 116.248C174.129 118.064 174.548 119.88 174.828 121.697C173.569 121.557 172.45 121.557 171.471 121.417ZM173.15 114.291C173.15 114.291 173.289 114.291 173.15 114.291V114.291ZM178.185 124.351C177.765 121.277 177.066 118.064 176.087 115.13C175.667 113.733 175.108 112.196 173.569 111.776C172.031 111.218 170.912 112.335 170.212 113.453C168.674 115.968 167.275 118.623 166.436 121.417C166.436 121.557 166.296 121.697 166.296 121.836C166.017 121.836 165.737 121.976 165.597 121.976C164.059 122.256 164.338 124.212 165.597 124.491C165.038 126.727 164.898 129.102 164.898 131.337C164.898 132.595 166.996 133.293 167.135 131.757C167.275 129.242 167.695 126.866 168.394 124.491C169.513 124.491 170.632 124.491 171.891 124.631C173.01 124.77 174.129 124.91 175.108 125.05C175.247 126.307 175.248 127.425 175.248 128.683C175.248 130.22 174.828 132.036 175.527 133.433C175.947 134.271 177.206 134.691 177.765 133.852C178.744 132.595 178.464 130.639 178.464 129.102C178.464 127.425 178.464 125.888 178.185 124.351Z" fill="#B2B3B5"/>
<path d="M199.724 130.359C199.864 130.359 199.864 130.359 199.724 130.359C199.864 130.359 199.864 130.359 199.724 130.359ZM200.563 114.99C199.864 116.387 199.864 118.343 199.864 119.88C199.724 121.557 199.724 123.094 199.724 124.77C199.724 126.307 199.864 127.705 199.864 129.241C199.864 129.661 199.864 130.08 199.724 130.359C199.584 130.22 199.304 130.08 199.304 130.08C198.325 129.241 197.626 127.984 196.787 127.006C196.087 126.028 195.388 124.91 194.828 123.792C193.43 121.417 192.311 118.762 191.612 116.108C191.472 115.409 190.912 114.85 190.073 114.711C189.374 114.571 188.675 114.85 188.395 115.549C187.416 118.762 186.437 121.976 185.318 125.05C184.898 120.998 184.619 116.806 184.479 112.615C184.479 111.357 182.381 110.659 182.241 112.196C181.681 118.902 182.101 125.748 183.22 132.315C183.5 133.713 185.877 134.551 186.297 132.874C187.556 128.962 188.814 125.19 189.933 121.277C191.192 124.491 193.01 127.425 195.108 130.22C196.507 132.036 199.164 135.11 201.822 133.154C202.801 132.315 203.08 131.058 203.08 129.94C203.08 128.543 202.941 127.146 202.941 125.748C202.941 124.072 202.94 122.395 203.08 120.719C203.22 119.042 203.64 117.226 203.22 115.549C203.08 114.152 201.122 113.593 200.563 114.99Z" fill="#B2B3B5"/>
<path d="M211.612 126.168C211.332 122.954 211.192 119.88 210.912 116.667C210.773 115.269 208.115 114.85 208.115 116.527C208.115 119.601 208.255 122.814 208.255 125.888C208.255 127.425 208.395 128.962 208.395 130.499C208.395 131.896 208.255 134.691 210.353 134.691C212.451 134.83 211.892 131.896 211.892 130.639C211.752 129.242 211.752 127.705 211.612 126.168Z" fill="#B2B3B5"/>
<path d="M208.675 108.703C208.815 108.842 209.094 108.982 209.234 108.982C209.374 109.122 209.654 109.122 209.794 109.122C210.073 109.122 210.353 108.982 210.493 108.842C210.633 108.703 210.773 108.563 210.913 108.563C211.053 108.283 211.192 108.004 211.192 107.725C211.192 107.585 211.192 107.585 211.192 107.445C211.192 107.305 211.192 107.305 211.192 107.166C211.192 107.026 211.192 106.886 211.192 106.746V106.607C211.192 106.467 211.053 106.327 211.053 106.188C210.913 106.048 210.913 105.768 210.633 105.629C210.493 105.489 210.493 105.489 210.353 105.349C210.213 105.21 209.934 105.21 209.794 105.07C209.654 105.07 209.514 105.07 209.374 105.07C209.234 105.07 209.094 105.07 208.955 105.21C208.815 105.21 208.535 105.349 208.535 105.489C208.395 105.629 208.255 105.768 208.255 105.908L208.115 106.048C208.115 106.188 208.115 106.188 207.976 106.327C207.976 106.467 207.836 106.746 207.836 106.886C207.836 107.166 207.836 107.445 207.976 107.725V107.864C208.255 108.283 208.395 108.563 208.675 108.703Z" fill="#B2B3B5"/>
<path d="M233.291 125.609C231.892 124.491 230.214 123.792 228.535 123.094C226.577 122.255 224.619 121.417 222.661 120.579C222.801 120.299 222.941 119.88 223.22 119.461C223.64 118.623 224.339 117.924 224.899 117.226C225.878 116.108 227.137 115.269 228.535 114.711C229.095 115.409 229.794 115.968 230.773 116.247C232.311 116.806 233.151 114.711 231.612 114.012C230.913 113.733 230.493 113.313 230.214 112.615C229.934 111.916 229.095 111.637 228.395 111.776C225.318 112.615 222.521 114.571 220.703 117.226C219.724 118.623 218.745 120.579 219.864 122.116C220.423 122.814 221.262 123.234 222.102 123.513C223.081 123.932 223.92 124.351 224.899 124.77C226.577 125.469 228.255 126.168 229.934 127.006C230.913 127.565 232.032 128.263 232.451 129.102C232.871 130.22 232.032 131.198 231.193 131.756C230.074 132.595 228.675 133.014 227.276 133.154C226.437 133.293 225.598 133.293 224.759 133.014C224.199 132.874 223.5 132.455 223.22 132.176C222.801 131.756 222.521 131.058 222.381 130.499C222.241 129.8 222.521 129.102 222.521 128.403C222.521 127.285 221.262 126.587 220.283 127.006C218.605 127.984 218.745 130.359 219.304 131.896C219.864 133.573 221.262 134.97 222.941 135.669C226.158 137.066 230.773 136.367 233.57 134.132C234.829 133.154 235.808 131.617 235.808 129.94C235.668 128.263 234.689 126.727 233.291 125.609Z" fill="#B2B3B5"/>
<path d="M222.661 110.519C224.619 110.1 226.577 110.1 228.535 110.24C229.514 110.379 230.493 110.519 231.472 110.659C232.451 110.798 233.57 111.357 234.41 111.218C235.109 111.078 235.528 110.379 234.969 109.82C234.27 108.842 232.871 108.563 231.752 108.144C230.773 107.864 229.654 107.725 228.675 107.585C226.437 107.445 224.2 107.585 221.962 108.144C220.703 108.563 221.402 110.659 222.661 110.519Z" fill="#B2B3B5"/>
<path d="M251.892 130.08C250.494 130.08 249.235 131.058 247.976 131.617C246.857 132.176 245.878 132.455 244.619 132.455C242.661 132.455 241.263 131.337 241.263 129.242C241.123 126.866 242.661 124.77 244.06 123.094C244.759 122.116 245.598 121.138 246.438 120.439C246.997 120.02 248.116 119.461 248.675 120.16C249.095 120.719 250.074 120.998 250.634 120.579C251.193 120.16 251.333 119.182 250.773 118.623C248.955 116.387 245.878 116.806 243.92 118.483C242.941 119.321 241.962 120.439 241.123 121.417C240.284 122.395 239.445 123.513 238.885 124.77C237.766 127.006 237.486 129.8 238.605 132.036C239.864 134.551 242.382 135.808 245.179 135.808C246.578 135.808 247.976 135.389 249.375 134.691C250.214 134.271 250.773 133.852 251.473 133.293C252.172 132.735 252.731 132.315 253.011 131.477C253.291 130.639 252.592 130.08 251.892 130.08Z" fill="#B2B3B5"/>
<path d="M261.123 115.269C260.564 115.13 259.864 115.269 259.725 115.828C259.025 118.343 258.606 120.998 258.326 123.513C258.186 124.77 258.046 126.028 258.046 127.285C258.046 128.683 257.767 130.22 258.326 131.477C258.885 132.735 260.843 133.014 261.403 131.617C261.823 130.499 261.543 128.962 261.543 127.844C261.543 126.587 261.543 125.329 261.683 123.932C261.823 121.417 262.102 118.902 262.242 116.387C262.242 116.108 261.823 115.549 261.123 115.269Z" fill="#B2B3B5"/>
<path d="M310.634 120.16C307.977 119.741 305.32 119.601 302.662 119.461C299.585 119.321 296.368 119.042 293.291 119.182C291.753 119.321 292.033 121.557 293.431 121.697C296.089 121.976 298.746 122.116 301.403 122.255C301.543 122.255 301.683 122.255 301.823 122.255C301.963 124.212 301.963 126.168 301.963 128.124C301.963 129.102 301.963 130.08 301.823 131.058C301.823 132.176 301.543 133.293 301.683 134.411C301.823 135.11 302.522 135.808 303.222 135.808C303.921 135.948 304.76 135.669 304.9 134.97C305.18 133.992 305.18 132.735 305.18 131.756C305.18 130.639 305.18 129.521 305.18 128.543C305.04 126.587 304.9 124.491 304.62 122.535C306.299 122.675 307.977 122.814 309.655 123.094C310.634 123.234 312.732 123.653 313.152 122.395C313.711 120.998 311.613 120.299 310.634 120.16Z" fill="#B2B3B5"/>
<path d="M332.173 124.91C332.173 125.749 332.033 126.028 331.893 126.727C331.893 126.866 331.754 127.006 331.754 127.146L331.614 127.425C331.474 127.705 331.334 127.844 331.194 128.124C331.054 128.263 331.054 128.403 330.914 128.403C330.914 128.403 330.775 128.543 330.775 128.683C330.495 128.822 330.355 129.102 330.075 129.242C329.796 129.381 329.516 129.521 329.236 129.8C329.236 129.8 329.236 129.8 329.096 129.8C329.096 129.8 329.096 129.8 328.956 129.8C328.817 129.8 328.677 129.94 328.537 129.94C328.257 130.08 327.977 130.22 327.698 130.22C327.698 130.22 327.558 130.22 327.418 130.22C327.278 130.22 327.138 130.22 326.998 130.22C326.719 130.22 326.439 130.22 326.159 130.22C326.159 130.22 326.159 130.22 326.019 130.22C325.879 130.22 325.6 130.22 325.46 130.08C325.32 130.08 325.18 130.08 325.04 129.94C324.76 129.8 324.481 129.661 324.201 129.521C324.201 129.521 324.061 129.521 324.061 129.381C323.921 129.242 323.781 129.242 323.781 129.102C323.781 129.102 323.642 128.962 323.502 128.822C323.502 128.683 323.362 128.683 323.362 128.543C323.222 128.263 323.082 128.124 322.942 127.844C322.942 127.844 322.802 127.705 322.942 127.705C322.802 127.565 322.802 127.425 322.663 127.285C322.663 127.146 322.523 127.006 322.523 126.866V126.727V126.587C322.383 126.307 322.383 125.888 322.383 125.609V125.469C322.383 125.469 322.383 125.329 322.383 125.19C322.383 125.05 322.383 125.05 322.383 124.91C322.383 124.631 322.383 124.212 322.383 123.932C322.383 123.792 322.383 123.653 322.523 123.513C322.523 123.513 322.523 123.234 322.663 123.234C322.802 122.954 322.802 122.675 322.942 122.535C323.082 123.373 323.502 124.212 324.341 124.77C325.04 125.329 326.159 125.05 326.159 124.072C326.159 124.072 326.159 123.932 326.159 123.792C326.159 123.653 326.299 123.513 326.299 123.373C326.439 123.094 326.439 122.954 326.439 122.675V122.535C326.439 122.395 326.579 122.255 326.579 122.116C326.579 121.976 326.719 121.976 326.719 121.836C326.719 121.836 326.719 121.836 326.719 121.697L326.858 121.417C326.998 121.277 326.998 121.138 327.138 120.998C327.138 120.998 327.418 120.858 327.418 120.719L327.698 120.579L327.977 120.439C328.117 120.439 328.257 120.299 328.397 120.299C328.397 120.299 328.677 120.299 328.817 120.299C328.956 120.299 329.096 120.299 329.236 120.299C329.376 120.299 329.376 120.299 329.516 120.299C329.796 120.299 329.935 120.439 330.075 120.439C330.215 120.439 330.215 120.439 330.355 120.579C330.495 120.579 330.635 120.719 330.775 120.858C330.775 120.858 330.914 120.858 330.914 120.998C331.054 121.138 331.334 121.277 331.474 121.417L331.614 121.557C331.754 121.697 331.893 121.836 331.893 121.976C331.893 121.976 331.893 122.116 332.033 122.116C332.173 122.395 332.173 122.535 332.313 122.814C332.453 123.094 332.453 123.094 332.593 123.513C332.593 123.653 332.593 123.932 332.733 124.072C332.173 124.631 332.173 124.491 332.173 124.91ZM328.817 120.719C328.956 120.719 328.817 120.719 328.817 120.719V120.719ZM329.656 120.858C329.796 120.858 329.656 120.858 329.656 120.858V120.858ZM330.775 117.784C328.677 116.946 325.879 117.086 324.201 118.623C323.921 118.902 323.781 119.042 323.502 119.321C323.082 118.762 322.243 118.483 321.684 118.902C318.886 120.998 318.187 124.77 319.166 127.984C320.285 131.477 323.502 133.573 326.998 133.573C330.355 133.573 333.852 131.337 335.11 128.124C336.649 124.351 334.831 119.182 330.775 117.784Z" fill="#B2B3B5"/>
<path d="M343.922 118.699C343.782 118.699 343.782 118.699 343.782 118.838C343.782 118.838 343.782 118.838 343.922 118.699ZM346.02 119.677C346.02 119.537 345.88 119.397 345.88 119.397C345.88 119.257 345.88 119.118 345.74 118.838L345.6 118.559C345.46 118.419 345.18 118.14 345.041 118.14C344.901 118 344.761 118 344.621 118C344.481 118 344.341 118 344.201 118C344.201 118 344.201 118 344.062 118C343.922 118 343.782 118 343.642 118.14C343.642 118.14 343.642 118.14 343.502 118.14C343.362 118.14 343.222 118.279 343.083 118.279C342.943 118.419 342.943 118.419 342.803 118.559C342.663 118.699 342.663 118.699 342.663 118.838C342.523 118.838 342.523 118.838 342.383 118.978C342.103 119.118 341.964 119.397 341.964 119.816C341.964 119.956 341.964 120.236 341.964 120.375C341.964 120.515 341.964 120.515 341.964 120.655C341.964 120.794 342.103 121.074 342.103 121.214C342.103 121.353 342.243 121.353 342.243 121.493C342.243 121.633 342.383 121.772 342.523 121.912C342.663 122.052 342.803 122.192 342.943 122.331C343.083 122.471 343.083 122.471 343.222 122.611L343.502 122.751C343.642 122.89 343.922 122.89 344.062 122.89C344.201 122.89 344.341 122.89 344.481 122.89C344.621 122.89 344.761 122.751 344.901 122.751C345.041 122.611 345.041 122.611 345.18 122.471C345.18 122.471 345.18 122.471 345.32 122.331C345.32 122.192 345.46 122.052 345.46 122.052C345.46 121.912 345.46 121.912 345.46 121.772C345.6 121.633 345.6 121.633 345.74 121.493C345.88 121.353 345.88 121.214 346.02 120.934C346.02 120.794 346.02 120.515 346.02 120.375C346.02 119.956 346.02 119.816 346.02 119.677Z" fill="#B2B3B5"/>
<path d="M343.922 129.699C343.782 129.699 343.782 129.699 343.782 129.838C343.782 129.838 343.782 129.838 343.922 129.699ZM346.02 130.677C346.02 130.537 345.88 130.397 345.88 130.397C345.88 130.257 345.88 130.118 345.74 129.838L345.6 129.559C345.46 129.419 345.18 129.14 345.041 129.14C344.901 129 344.761 129 344.621 129C344.481 129 344.341 129 344.201 129C344.201 129 344.201 129 344.062 129C343.922 129 343.782 129 343.642 129.14C343.642 129.14 343.642 129.14 343.502 129.14C343.362 129.14 343.222 129.279 343.083 129.279C342.943 129.419 342.943 129.419 342.803 129.559C342.663 129.699 342.663 129.699 342.663 129.838C342.523 129.838 342.523 129.838 342.383 129.978C342.103 130.118 341.964 130.397 341.964 130.816C341.964 130.956 341.964 131.236 341.964 131.375C341.964 131.515 341.964 131.515 341.964 131.655C341.964 131.794 342.103 132.074 342.103 132.214C342.103 132.353 342.243 132.353 342.243 132.493C342.243 132.633 342.383 132.772 342.523 132.912C342.663 133.052 342.803 133.192 342.943 133.331C343.083 133.471 343.083 133.471 343.222 133.611L343.502 133.751C343.642 133.89 343.922 133.89 344.062 133.89C344.201 133.89 344.341 133.89 344.481 133.89C344.621 133.89 344.761 133.751 344.901 133.751C345.041 133.611 345.041 133.611 345.18 133.471C345.18 133.471 345.18 133.471 345.32 133.331C345.32 133.192 345.46 133.052 345.46 133.052C345.46 132.912 345.46 132.912 345.46 132.772C345.6 132.633 345.6 132.633 345.74 132.493C345.88 132.353 345.88 132.214 346.02 131.934C346.02 131.794 346.02 131.515 346.02 131.375C346.02 130.956 346.02 130.816 346.02 130.677Z" fill="#B2B3B5"/>
<path d="M120.981 78.9421C120.981 79.0818 120.981 79.0818 120.981 79.2215C118.603 76.7066 117.624 73.3533 116.785 70.1397C116.645 69.5808 115.666 69.1616 115.526 69.8603C115.107 71.2575 114.687 72.7944 114.268 74.1916C113.848 75.4491 113.568 76.8463 113.149 78.1038C113.009 78.5229 112.729 78.9421 112.449 79.3613C112.449 79.3613 112.449 79.3613 112.31 79.3613C111.47 79.9201 110.771 79.2215 110.212 78.5229C109.932 77.964 109.932 77.4052 109.792 76.986C109.372 75.5888 108.953 74.1916 108.533 72.7944C108.254 72.0958 108.114 71.2575 107.834 70.5589C107.694 70.1397 107.554 69.7205 107.135 69.4411C106.575 68.7425 106.016 68.3233 105.037 68.1836C103.918 68.0439 103.079 68.7425 102.379 69.5808C101.68 70.4191 101.26 71.2575 100.841 72.2355C100.841 72.0958 100.701 71.8163 100.561 71.6766C100.421 71.3972 100.281 71.1177 100.142 70.8383C100.002 70.1397 99.7219 69.5808 99.3023 69.0219C98.7429 68.3233 97.9037 68.0439 97.2044 68.3233C97.0645 68.3233 96.9247 68.3233 96.7848 68.3233C95.3862 68.6028 94.9666 70 95.3862 71.2575C95.3862 71.2575 95.3862 71.2575 95.3862 71.3972C95.3862 71.5369 95.6659 71.8163 95.8058 71.8163C96.0855 71.8163 96.5051 71.8163 96.7848 71.8163C97.0645 71.8163 97.2044 71.5369 97.2044 71.3972C97.2044 71.1177 97.3443 70.1397 97.7638 70C97.9037 70 97.9037 70 98.0436 70C98.603 70.8383 98.8828 72.0958 99.0226 73.0738C99.4422 75.4491 99.3023 77.964 99.0226 80.3393C99.0226 80.479 99.0226 80.7585 99.1625 80.8982C99.3023 81.3173 99.5821 81.7365 100.142 81.7365C100.701 81.5968 100.841 81.0379 100.561 80.6187C100.561 80.3393 100.701 80.0599 100.701 79.9201C100.841 79.501 100.841 79.0818 100.841 78.6626C100.841 78.3832 100.841 78.1038 100.981 77.964C100.981 77.5449 101.121 76.986 101.121 76.5668C101.26 75.7285 101.54 74.8902 101.96 74.1916C102.379 73.2135 102.939 72.2355 103.778 71.3972C104.337 70.8383 105.876 69.7205 106.156 71.1177C106.295 72.3752 106.295 73.493 106.575 74.7505C106.855 75.8682 107.274 77.1257 107.974 78.1038C108.254 78.6627 108.673 79.3613 109.233 79.9201C109.233 80.0599 109.372 80.0599 109.372 80.1996C109.932 80.8982 110.771 81.4571 111.75 81.3173C112.17 81.3173 112.589 81.1776 113.009 80.8982C113.988 80.1996 114.547 79.0818 114.967 77.964C115.387 76.8463 115.946 75.7285 116.366 74.6108C117.205 76.986 118.463 79.2215 120.422 81.0379C120.701 81.1776 120.981 81.3173 121.261 81.0379C121.82 80.6187 122.1 80.0599 121.96 79.3613C121.96 78.5229 121.121 78.2435 120.981 78.9421Z" fill="black"/>
<path d="M123.778 74.6108C123.778 74.0519 123.918 73.493 124.198 72.9341C124.198 73.6327 124.198 74.471 124.338 75.1696C124.338 75.7285 124.338 76.1477 124.478 76.7066C124.618 77.1257 124.757 77.4052 124.897 77.6846C124.058 76.986 123.778 75.8682 123.778 74.6108ZM132.59 77.2654C132.59 77.1257 132.59 77.1257 132.59 77.1257C132.73 76.7066 132.31 76.2874 131.89 76.4271C131.191 76.7066 130.632 77.4052 130.072 77.8243C129.373 78.2435 128.674 78.5229 127.974 78.5229C127.834 78.5229 127.695 78.3832 127.415 78.3832C126.855 77.964 126.436 77.5449 126.156 76.8463C126.016 76.5668 125.876 76.2874 125.876 76.008C125.876 75.5888 125.736 75.3094 125.876 74.8902C125.876 73.9121 126.156 73.0738 126.436 72.0958C126.715 71.2575 126.995 70.2794 127.555 69.5808C127.974 69.0219 128.674 68.463 129.513 68.463C130.212 68.463 131.051 69.0219 131.051 69.7205C131.051 70.1397 131.751 70.5589 131.89 70C131.89 69.8603 131.89 69.7205 131.89 69.7205C132.03 69.7205 132.17 69.4411 132.17 69.1617C132.03 68.3233 131.471 67.6247 130.771 67.0658C130.352 66.6467 129.792 66.507 129.233 66.507C128.953 66.507 128.674 66.507 128.394 66.507C127.555 66.6467 126.855 66.9261 126.296 67.485C125.597 67.9042 125.037 68.3233 124.478 68.8822C123.918 69.5808 123.499 70.4191 123.219 71.2575C122.659 72.9341 122.1 74.8902 122.659 76.5668C123.219 78.2435 124.618 79.3612 126.296 79.7804C126.715 79.9201 127.135 79.9201 127.555 79.9201C127.974 80.0599 128.254 80.0599 128.674 80.1996C129.653 80.1996 130.632 80.0599 131.331 79.501C132.17 79.0818 132.869 78.1038 132.59 77.2654Z" fill="black"/>
<path d="M223.64 88.5829C223.64 88.5829 223.64 88.4431 223.64 88.5829C223.78 88.4431 223.78 88.4431 223.64 88.5829C223.78 88.5829 223.78 88.5829 223.64 88.5829C223.92 89.002 224.2 89.2815 224.619 89.2815C225.039 89.2815 225.318 88.8623 225.179 88.5829C224.759 86.6268 224.479 84.8104 224.479 82.8543C224.619 80.8982 224.899 78.9421 225.458 77.1258C225.598 76.5669 224.759 76.1477 224.479 76.7066C224.2 76.5669 223.92 76.5669 223.92 76.8463C223.92 76.986 223.92 77.1258 223.78 77.2655C223.64 77.2655 223.5 77.4052 223.36 77.6846C222.941 79.501 222.661 81.3174 222.521 83.1337C222.521 83.4132 222.521 83.8324 222.521 84.1118C222.381 84.8104 222.381 85.6487 222.381 86.3473C222.381 86.7665 222.381 87.0459 222.521 87.3254C222.521 87.7445 222.661 88.024 222.801 88.3034C222.941 88.8623 223.5 88.8623 223.64 88.5829Z" fill="black"/>
<path d="M367.279 53.6527C367.139 54.2116 367.139 54.7705 366.999 55.3293C366.999 55.1896 366.999 55.1896 366.999 55.0499C366.999 54.6307 367.139 54.0719 367.279 53.6527ZM368.957 49.4611C368.957 49.3214 368.817 49.3214 368.677 49.1816C368.258 49.0419 367.838 49.4611 367.558 49.8802C367.279 50.1597 366.999 50.5788 366.859 50.998C366.44 51.6966 366.02 52.5349 365.74 53.3733C365.6 54.0719 365.321 54.7705 365.46 55.6088C365.6 56.3074 366.02 56.8663 366.719 57.006C366.719 57.1457 366.859 57.2854 366.859 57.4252C366.999 57.5649 367.419 57.7046 367.558 57.5649C367.838 57.2854 367.838 57.006 367.838 56.7266C367.838 56.4471 367.838 56.028 367.978 55.7485C367.978 55.1896 368.118 54.491 368.258 53.9321C368.398 52.6747 368.677 51.4172 369.097 50.1597C369.377 49.8802 369.237 49.6008 368.957 49.4611Z" fill="black"/>
<path d="M3.35662 80.479C2.93704 80.8982 2.37759 81.3174 1.958 81.5968C2.23773 81.1776 2.79717 80.7585 3.35662 80.479ZM9.23085 80.8982H9.37071C9.51057 81.0379 9.7903 81.0379 9.93016 81.1776C9.7903 81.1776 9.65043 81.1776 9.51057 81.0379C9.37071 81.0379 9.23085 80.8982 9.23085 80.8982ZM15.8044 77.8244C15.2449 77.6846 14.8253 77.8244 14.4058 78.1038C14.2659 78.1038 13.9862 78.2435 13.9862 78.3832C13.8463 78.523 13.8463 78.523 13.7064 78.6627C13.4267 78.9421 13.2869 79.3613 13.0071 79.6407C12.8673 79.9202 12.5875 79.9202 12.4477 80.0599C12.168 80.0599 11.7484 80.0599 11.4686 79.9202C11.1889 79.7804 10.7693 79.7804 10.4896 79.6407C9.7903 79.3613 9.23085 78.9421 8.81126 78.3832C11.0491 76.008 13.147 73.6327 15.2449 71.2575C15.6645 70.6986 16.3638 69.8603 15.6645 69.3014C15.3848 69.022 14.8253 69.022 14.5456 69.022C13.9862 69.022 13.4267 68.8822 12.8673 68.8822C11.8882 68.7425 10.9092 68.6028 9.93016 68.6028C9.09098 68.4631 7.97208 68.1836 7.27277 68.4631C5.45456 69.1617 6.15387 71.5369 7.41263 72.3752C7.5525 72.515 7.97208 72.3752 7.97208 72.0958C7.97208 71.9561 7.83222 71.8164 7.83222 71.5369C8.11195 71.8164 8.39167 72.0958 8.81126 72.2355C9.51057 72.515 9.7903 71.6766 9.23085 71.2575C8.11195 71.2575 7.83222 70.5589 7.97208 69.8603C9.65043 70.1397 11.3288 70.4192 13.0071 70.6986C10.6295 73.7725 7.97208 76.5669 5.17484 79.0818C5.03497 79.0818 4.89511 79.0818 4.75525 79.2216C3.77621 79.0818 2.79717 79.2216 1.81814 79.9202C0.839101 80.6188 0.279651 81.8762 0.978963 83.1337C1.11883 83.4132 1.67828 83.6926 1.958 83.4132C3.21676 82.4351 4.33566 81.5968 5.45456 80.479C6.4336 80.7585 7.41263 81.4571 8.25181 81.7365C8.25181 81.7365 8.25181 81.7365 8.39167 81.7365C8.39167 82.1557 8.39167 82.2954 8.53153 82.4351C9.51057 82.994 10.4896 83.2735 11.6085 83.1337C12.8673 83.2735 14.2659 82.8543 15.3848 82.1557C16.0841 81.5968 16.6436 80.8982 16.7834 80.0599C16.9233 79.0818 16.7834 78.1038 15.8044 77.8244Z" fill="black"/>
<path d="M61.3997 79.9202C60.2808 79.0819 60.5605 77.1258 60.8402 76.008C61.3996 74.1916 62.5185 72.515 64.057 71.2575C65.5955 70.1397 67.5536 69.5809 69.5117 70C69.5117 70.2795 69.5117 70.5589 69.5117 70.8383C68.6725 72.515 67.6935 74.1916 66.8543 76.008C66.2948 76.5669 65.8752 77.1258 65.3158 77.5449C64.4766 78.3833 63.2179 79.6407 61.9591 80.0599C61.6794 80.0599 61.5395 79.9202 61.3997 79.9202ZM41.2595 82.016C40.8399 82.016 40.8399 81.8763 40.9797 81.5968C40.9797 81.5968 40.9797 81.5968 40.9797 81.4571C41.1196 81.5968 41.2595 81.7365 41.5392 81.8763C41.3993 82.016 41.2595 82.016 41.2595 82.016ZM33.9866 87.1857C33.8467 87.1857 33.8467 87.1857 33.9866 87.1857C33.9866 85.0898 33.9866 83.1338 34.1265 81.0379C34.1265 82.1557 34.1265 83.1338 33.9866 84.2515C33.9866 85.0898 33.9866 86.0679 33.9866 87.1857ZM41.8189 69.1617C41.9588 69.1617 41.9588 69.3014 41.9588 69.4411C41.8189 69.3014 41.5392 69.1617 41.3993 69.022C41.5392 69.1617 41.679 69.1617 41.8189 69.1617ZM93.0086 75.1697C92.4491 74.4711 92.0295 73.493 91.8897 72.6547C91.7498 72.3753 91.7498 72.0958 91.7498 71.8164C91.7498 71.2575 91.8897 70.8383 92.0295 70.2795C92.1694 69.8603 91.7498 69.4411 91.3302 69.4411C90.9106 69.022 90.2113 69.1617 90.0714 69.7206C89.9316 70.5589 90.0714 71.5369 90.2113 72.515C90.2113 72.6547 90.2113 72.6547 90.2113 72.7944C90.3512 73.6328 90.491 74.4711 90.9106 75.3094C91.3302 76.2874 91.7498 77.1258 92.1694 77.9641C92.4491 78.3833 92.589 78.9421 92.8687 79.3613C92.8687 79.3613 93.0086 79.501 93.0086 79.6407C92.8687 79.6407 92.8687 79.6407 92.7288 79.6407C89.2323 79.2216 86.1553 76.8463 85.1763 73.493C85.0364 72.9342 84.0574 72.515 83.9175 73.2136C82.9385 75.8683 81.4 78.2435 79.4419 80.1996C79.302 79.0819 79.302 77.9641 79.4419 76.7066C79.4419 76.4272 79.5818 76.008 79.5818 75.7286C79.7216 74.7505 79.8615 73.7725 79.8615 72.7944C79.8615 72.515 80.0014 72.2356 80.0014 71.9561C80.2811 71.1178 80.5608 70.2795 80.7007 69.4411C80.8405 68.7425 79.4419 68.1837 79.302 69.022C79.0223 69.8603 78.8825 70.6986 78.7426 71.5369C78.1831 73.0739 77.4838 74.4711 76.6447 75.7286C76.0852 76.7066 75.5258 77.8244 74.8264 78.6627C74.5467 78.9421 74.267 79.3613 73.7075 79.3613C73.288 79.3613 72.8684 79.2216 72.8684 78.8024C72.8684 78.6627 72.7285 78.523 72.5886 78.3833C72.1691 77.4052 71.7495 76.4272 71.6096 76.1477C71.19 74.6108 71.0502 72.9342 71.0502 71.3972C71.0502 70.9781 71.0502 70.5589 71.19 70C71.3299 69.8603 71.3299 69.5809 71.19 69.4411C71.19 68.6028 70.9103 67.7645 69.7914 67.7645C68.2529 67.6248 66.5746 67.7645 65.0361 68.1837C63.7773 68.6028 62.6584 69.3014 61.9591 70.2795C61.6794 70.4192 61.5395 70.5589 61.2598 70.6986C60.9801 70.5589 60.7003 70.4192 60.4206 70.6986C59.8612 71.5369 59.022 72.0958 58.0429 72.0958C57.9031 72.0958 57.7632 72.0958 57.6234 71.9561C56.9241 71.8164 56.2247 71.5369 55.5254 71.1178C54.8261 70.5589 54.2667 69.7206 53.8471 69.022C53.7072 68.6028 52.868 68.3234 52.7282 68.8823C52.1687 70.6986 51.7491 72.515 51.3296 74.1916C51.0498 72.6547 50.7701 71.1178 50.3505 69.5809C50.2107 69.1617 49.5113 68.8823 49.2316 69.4411C49.0918 69.7206 48.9519 69.8603 48.812 70.1397C48.6722 70.1397 48.5323 70.2795 48.5323 70.4192C46.854 73.0739 45.4553 76.008 44.0567 78.8024C43.6371 79.501 43.2175 80.4791 42.5182 81.0379C41.9588 81.0379 41.5392 80.6188 41.3993 80.0599C41.1196 79.2216 41.3993 78.523 41.679 77.6846C42.0986 76.2874 42.5182 74.8902 42.6581 73.493C42.7979 72.7944 42.7979 72.0958 42.7979 71.2575C42.7979 70.5589 42.9378 69.8603 42.6581 69.1617C42.3784 68.1837 41.5392 67.6248 40.5601 67.7645C39.5811 67.9042 38.8818 68.4631 38.1825 69.1617C37.9028 69.4411 37.623 69.7206 37.3433 70C37.3433 70.1397 37.2034 70.1397 37.2034 70.2795C36.5041 71.3972 35.8048 72.515 35.3852 73.7725C35.2454 73.9122 35.2454 74.1916 35.1055 74.3314C35.1055 74.4711 34.9656 74.6108 34.9656 74.7505C34.9656 72.7944 34.9656 70.9781 34.9656 69.022C34.9656 68.6028 34.2663 68.0439 33.9866 68.6028C32.4481 70.9781 31.0495 73.493 29.6509 76.008C28.9516 76.8463 28.2523 77.5449 27.5529 78.2435C27.2732 78.523 27.6928 79.0819 27.9725 79.0819C27.9725 79.501 28.532 79.6407 28.8117 79.2216C29.0914 78.6627 29.3712 78.1038 29.7907 77.5449C31.0495 76.4272 32.0285 75.03 32.8677 73.6328C31.7488 82.5749 31.7488 91.517 32.588 100.459C32.588 101.158 33.8467 101.297 33.9866 100.599C33.9866 100.319 34.1265 100.04 34.1265 99.7605C34.2663 99.7605 34.2663 99.6208 34.4062 99.6208C34.8258 99.2016 34.6859 98.7825 34.2663 98.503C34.5461 96.4072 34.5461 94.1717 34.4062 92.0759C34.4062 91.9362 34.4062 91.9361 34.4062 91.7964C34.5461 89.2815 34.5461 86.7665 34.6859 84.2515C34.6859 82.016 34.8258 79.9202 34.8258 77.6846C34.9656 77.6846 35.1055 77.6847 35.1055 77.5449C35.2454 76.986 35.3852 76.5669 35.5251 76.008C36.3643 74.6108 37.0636 73.0739 37.9028 71.6767C38.1825 71.1178 38.6021 70.4192 39.1615 70.1397C39.4412 70 40.2804 69.7206 40.4203 70C40.5601 70.1397 40.4203 70.8383 40.4203 71.1178C40.4203 71.3972 40.4203 71.8164 40.4203 72.0958C40.4203 72.7944 40.2804 73.493 40.1406 74.1916C39.8608 75.5888 39.4412 76.986 39.3014 78.3833C39.1615 79.0819 39.0217 79.7805 39.0217 80.4791C39.0217 81.0379 38.8818 81.7366 39.1615 82.2954C39.721 83.4132 41.1196 83.4132 42.0986 82.994C42.7979 82.7146 43.3574 82.1557 43.777 81.5968C44.3364 81.0379 44.756 80.3393 45.0357 79.7805C45.5952 78.523 46.2945 77.2655 46.854 76.1477C47.6931 74.7505 48.5323 73.2136 49.2316 71.8164C49.9309 75.1697 50.0708 78.6627 49.9309 82.1557C49.9309 82.8543 51.0498 83.1338 51.1897 82.4352C51.3296 78.6627 51.889 74.8902 52.868 71.1178C53.1478 71.3972 53.2876 71.5369 53.5674 71.8164C53.9869 72.0958 54.4065 72.515 54.8261 72.6547C55.3856 73.0739 55.945 73.3533 56.5045 73.493C56.6443 73.493 56.6443 73.493 56.7842 73.493C57.3436 73.6328 57.9031 73.7725 58.4625 73.7725C58.3227 74.1916 58.1828 74.4711 58.1828 74.8902C57.9031 76.008 57.9031 77.2655 58.0429 78.3833C58.1828 79.501 58.3227 80.4791 59.3017 81.0379C60.001 81.4571 60.7003 81.5968 61.3997 81.4571C61.6794 81.5968 62.099 81.5968 62.5185 81.5968C66.2948 81.7366 67.6935 77.9641 69.2319 75.1697C69.5117 77.2655 70.211 79.3613 71.4697 81.1777C71.6096 81.4571 71.8893 81.7366 72.3089 81.5968C72.5886 81.5968 73.0082 81.4571 73.288 81.4571C73.8474 81.5968 74.5467 81.4571 74.9663 80.8982C75.1062 80.7585 75.1062 80.6188 75.1062 80.6188C76.0852 79.9202 76.7845 78.8024 76.9244 77.4052C77.2041 76.9861 77.4838 76.4272 77.7635 76.008C77.7635 76.8463 77.7635 77.8244 77.7635 78.6627C77.7635 79.6407 77.7635 80.8982 78.0433 81.8763C78.1831 82.7146 79.0223 83.2735 79.8615 82.994C80.7007 82.7146 81.4 81.7365 81.9594 81.0379C83.0783 79.7805 83.9175 78.3833 84.477 76.8463C86.5749 79.0819 89.512 80.4791 92.4491 81.1777C93.1484 81.3174 94.1275 81.5968 94.8268 81.1777C95.5261 80.7585 95.6659 79.7805 95.5261 79.0819C95.5261 77.6847 93.9876 76.5669 93.0086 75.1697Z" fill="black"/>
<path d="M118.044 65.3892C118.184 65.1098 118.324 64.97 118.324 64.6906C118.324 64.4111 118.324 64.2714 118.184 63.992C118.044 63.7125 117.904 63.5728 117.624 63.5728C117.484 63.5728 117.345 63.4331 117.205 63.4331C116.925 63.4331 116.645 63.4331 116.366 63.5728C115.806 63.7125 115.526 64.1317 115.386 64.6906C115.386 65.2495 115.666 65.8084 116.226 66.0878H116.366C116.505 66.2275 116.645 66.3672 116.785 66.3672C116.925 66.3672 117.065 66.3672 117.205 66.2275C117.345 66.0878 117.484 65.9481 117.484 65.8084C117.624 65.8084 117.624 65.6686 117.764 65.6686C117.904 65.5289 118.044 65.3892 118.044 65.3892Z" fill="black"/>
<path d="M175.387 77.5449C174.269 77.4052 173.15 76.4272 173.01 75.4491C174.269 76.986 176.926 77.2655 178.744 76.7066C178.884 76.7066 178.884 76.7066 179.024 76.5669C177.905 77.1258 176.646 77.6846 175.387 77.5449ZM138.044 76.008C138.464 75.5888 138.883 75.4491 139.443 75.4491C138.883 76.2874 138.324 76.986 137.625 77.8244C137.625 77.1258 137.625 76.5669 138.044 76.008ZM167.136 67.485C167.136 67.6248 167.136 67.6248 167.275 67.7645L167.136 67.9042C165.597 69.4411 163.359 70.1397 161.261 70.1397C160.282 70.1397 159.303 70 158.324 69.8603C159.443 68.1836 161.261 66.9262 163.219 66.3673C163.779 66.2276 164.338 66.0878 164.898 66.0878C165.737 66.2275 166.716 66.6467 167.136 67.485ZM173.849 73.6327C173.849 73.493 173.849 73.493 173.849 73.3533C173.849 73.0739 173.989 72.9341 173.989 72.6547C174.129 72.2355 174.408 71.6767 174.548 71.2575C174.968 70.4192 175.667 69.5808 176.506 69.1617C177.346 68.7425 178.325 68.4631 179.304 68.6028C179.723 68.6028 180.143 68.7425 180.423 69.022C180.842 69.3014 180.982 69.8603 181.122 70.4192C181.262 72.3753 180.143 74.3313 178.325 75.0299C177.066 75.5888 174.828 75.7286 173.849 74.6108C174.269 74.3313 174.129 73.9122 173.849 73.6327ZM181.262 89.2814C181.541 91.517 181.821 93.8922 181.821 96.1278C181.821 97.2455 181.681 98.3633 181.402 99.481C181.122 100.319 180.842 101.437 179.863 101.717C179.024 101.996 178.464 101.717 177.905 101.437C177.346 100.739 177.066 99.9002 176.926 99.2016C175.947 95.1497 178.464 91.3773 180.562 88.024C180.702 87.7445 180.842 87.4651 180.982 87.3254C181.122 87.7445 181.262 88.4431 181.262 89.2814ZM195.807 76.5669C194.828 76.986 193.57 77.2655 192.451 77.1258C191.332 76.8463 190.772 75.7285 190.493 74.7505C190.213 73.7725 190.073 72.515 190.353 71.5369C190.493 70.9781 190.772 70.4192 191.052 69.8603C191.192 69.5808 191.332 69.4411 191.472 69.1617C191.612 68.8822 191.751 68.6028 191.891 68.3234V68.1836C192.73 67.6248 193.57 67.2056 194.688 67.0659C195.668 66.9262 196.647 67.0659 197.486 67.6248C198.045 68.0439 198.465 68.6028 198.605 69.1617C198.744 69.4411 198.745 69.8603 198.745 70.1397V70.2794C198.745 70.2794 198.745 70.2794 198.745 70.4192C198.605 72.515 197.486 74.7505 196.087 76.4272C196.087 76.2874 195.947 76.4272 195.807 76.5669C195.807 76.4272 195.807 76.5669 195.807 76.5669ZM194.968 65.3892C193.15 65.2495 191.472 65.2495 190.073 66.507C189.094 67.3453 188.115 68.4631 187.975 69.7206C187.835 69.8603 187.695 70 187.695 70.1397C187.416 70.4192 187.556 70.8383 187.835 70.978C186.716 74.3313 184.758 77.2655 182.66 80.0599C182.52 78.2435 182.52 76.5669 182.66 74.7505C183.639 73.493 184.199 71.8164 183.779 70.2794C183.22 67.7645 180.283 66.3673 177.765 66.7864C175.387 67.2056 173.29 68.8822 172.45 71.1178C172.031 71.2575 171.751 71.6767 171.331 71.9561C170.772 72.3753 170.213 72.7944 169.653 73.2136C168.534 74.0519 167.555 74.8902 166.436 75.7285C165.457 76.5669 164.478 77.2655 163.499 77.9641C162.66 78.3832 161.821 78.8024 160.982 79.0818C159.723 78.9421 158.604 78.3832 157.905 77.4052C156.646 75.7286 156.646 73.493 157.345 71.6767C158.604 72.0958 159.723 72.2355 160.982 72.2355C163.359 72.2355 167.415 71.6767 168.394 69.1617C168.394 69.022 168.394 69.022 168.534 68.8822C169.373 67.9042 169.653 66.7864 168.534 65.8084C167.275 64.6906 165.317 64.6906 163.639 64.9701C163.499 64.9701 163.359 64.9701 163.08 64.9701C160.142 65.2495 157.905 67.2056 156.506 69.5808C156.366 69.5808 156.366 69.5808 156.226 69.4411C155.667 69.1617 155.107 68.8822 154.548 68.7425C153.149 68.4631 152.73 69.5808 152.45 70.6986C152.17 72.0958 152.17 73.493 151.891 74.8902C151.611 75.8683 151.191 76.986 150.352 77.6846C149.373 78.523 147.974 78.523 146.856 77.9641C145.737 77.5449 144.618 76.8463 143.499 76.2874C142.939 75.8683 142.52 75.4491 141.96 75.1697C142.1 75.0299 142.24 74.7505 142.38 74.6108C143.079 73.493 143.779 72.3753 144.478 71.2575L144.618 71.1178C145.037 70.5589 145.597 70 145.737 69.4411C145.876 68.8822 145.597 68.6028 145.177 68.3234C144.897 68.0439 144.618 67.7645 144.198 67.6248C143.639 67.3453 143.219 67.0659 142.66 66.6467C141.82 66.0878 140.841 65.3892 139.862 65.5289C139.023 65.5289 138.324 66.2276 138.044 67.0659C137.764 68.0439 138.184 69.022 138.744 70C138.883 70.2794 139.303 70.2794 139.443 70.1397L139.583 70.2794C140.002 70.6986 140.562 70 140.142 69.5808C139.443 69.022 139.303 68.0439 139.583 67.3453C140.841 67.9042 141.96 68.4631 143.219 69.022C143.219 69.022 143.639 69.1617 143.918 69.3014C144.058 69.4411 144.058 69.3014 143.918 69.5808C143.639 70 143.359 70.4192 143.219 70.8383C143.079 71.1178 142.8 71.3972 142.66 71.6767C142.52 71.8164 142.38 71.9561 142.24 72.2355C141.681 73.0739 140.981 73.9122 140.422 74.7505C140.422 74.7505 140.422 74.7505 140.282 74.7505C139.583 74.4711 138.883 74.4711 138.184 74.7505C137.205 75.0299 136.366 76.008 136.226 76.986C136.086 77.6846 136.086 78.3832 136.226 79.0818C136.226 79.501 136.366 79.9202 136.366 80.3393C136.366 80.6188 136.646 80.7585 136.785 80.8982C136.785 81.0379 136.925 81.0379 136.925 81.1776C137.065 81.5968 137.904 81.8763 138.184 81.4571C139.163 80.0599 140.142 78.523 140.981 77.1258C141.261 77.2655 141.401 77.4052 141.681 77.5449C142.24 77.8244 142.939 78.2435 143.499 78.6627C145.457 80.0599 147.555 81.1777 150.072 80.6188C153.429 79.9202 153.429 76.2874 153.709 73.493C153.709 73.0739 153.849 72.6547 153.849 72.3753C153.849 72.0958 153.849 71.5369 154.128 71.3972C154.408 71.2575 154.968 71.6767 155.107 71.6767C155.247 71.6767 155.387 71.8164 155.527 71.8164C154.688 74.0519 154.408 76.5669 155.667 78.6627C157.205 81.3174 160.422 82.5749 163.359 81.3174C165.038 80.6188 166.436 79.3613 167.975 78.3832C169.094 77.5449 170.352 76.7066 171.471 76.008C171.471 77.2655 172.311 78.523 173.29 79.0818C175.667 80.479 178.744 79.2216 180.702 77.5449C180.702 77.5449 180.702 77.5449 180.842 77.5449C180.702 79.501 180.702 81.4571 180.702 83.4132C178.464 86.487 176.367 89.7006 175.387 93.3333C174.828 95.4292 174.688 97.6647 175.108 99.7605C175.248 100.739 175.667 101.717 176.367 102.415C176.786 103.114 177.346 103.812 178.045 104.371C178.744 104.93 179.863 105.489 180.842 105.21C181.681 105.07 182.241 104.371 182.52 103.673C182.94 102.695 183.08 101.717 183.22 100.599C183.36 99.3413 183.499 98.2236 183.499 96.9661C183.499 94.5908 183.36 92.2156 183.22 89.8403C183.08 88.3034 182.94 86.7665 182.8 85.2295C184.479 82.2954 186.297 79.501 187.975 76.5669C188.255 77.4052 188.674 78.2435 189.374 78.9421C191.332 80.8982 194.129 81.0379 196.227 79.2216L196.367 79.0818C197.486 78.523 198.185 77.8244 198.745 76.7066C199.444 75.3094 200.003 73.6327 200.143 71.9561C200.283 70.5589 199.863 69.1617 198.884 68.0439C197.905 65.6687 196.507 65.5289 194.968 65.3892Z" fill="black"/>
<path d="M219.584 74.1916C218.605 76.1477 218.045 78.2435 217.766 80.479C217.766 81.0379 217.626 81.5968 217.626 82.0159C217.626 82.5748 217.486 82.994 217.626 83.5529C217.906 84.3912 219.025 85.0898 219.724 84.2515C220.004 83.972 219.724 83.4131 219.444 83.2734C219.444 82.994 219.444 82.5748 219.444 82.2954C219.444 81.5968 219.444 80.7585 219.584 80.0599C219.724 78.5229 219.864 76.986 220.283 75.4491V75.3094C220.423 75.0299 220.423 74.8902 220.563 74.6108C220.703 74.0519 219.724 73.6327 219.584 74.1916Z" fill="black"/>
<path d="M242.521 68.0439C242.102 68.0439 241.822 68.1837 241.542 68.3234C241.542 68.3234 241.542 68.3234 241.542 68.1836C241.542 68.0439 241.682 67.9042 241.682 67.9042C241.822 67.6248 242.102 67.2056 242.521 67.3453C242.801 67.485 242.941 67.7645 243.081 67.9042C242.941 68.0439 242.661 68.0439 242.521 68.0439ZM244.06 67.0659C244.06 67.2056 244.06 67.4851 244.2 67.6248C243.92 67.0659 243.5 66.6467 243.081 66.507C243.361 66.2276 243.92 66.3673 244.06 67.0659ZM256.647 71.8164C255.668 73.2136 254.13 74.7505 252.312 75.03C252.172 75.03 252.032 75.03 251.892 75.03C251.752 74.8902 251.752 74.7505 251.612 74.4711C251.473 73.6328 251.612 72.7944 251.752 71.9561C252.032 70.2795 252.871 68.7425 254.13 67.3453C254.689 66.6467 255.529 65.9481 256.508 65.9481C256.927 65.9481 257.487 66.0878 257.766 66.3673V66.507C257.627 68.0439 257.487 69.5809 256.927 71.1178C256.787 71.5369 256.787 71.6767 256.647 71.8164ZM266.997 75.7286C267.417 75.4491 267.557 75.03 267.557 74.6108C267.557 74.3314 267.277 74.0519 266.997 74.3314C266.997 74.3314 266.997 74.3314 266.857 74.3314C266.718 74.0519 266.298 74.0519 266.158 74.3314C266.018 74.4711 266.018 74.6108 265.878 74.7505C265.599 74.7505 265.319 74.7505 265.039 74.7505C264.2 74.4711 263.641 73.3533 263.221 72.6547C262.662 71.5369 262.102 70.4192 261.683 69.3014C261.403 68.7425 261.263 68.0439 260.983 67.485C260.843 67.2056 260.843 66.9262 260.704 66.6467C260.704 66.507 260.704 66.3673 260.564 66.2276C260.564 66.2276 260.424 66.0878 260.284 66.0878C260.284 65.9481 260.144 65.9481 260.004 65.8084C259.864 65.6687 259.724 65.6687 259.724 65.6687C258.186 64.6906 256.228 64.5509 254.55 65.2495C252.312 66.0878 250.913 68.3234 250.074 70.4192C249.654 71.5369 249.095 72.9341 249.235 74.1916C249.095 74.4711 248.955 74.7505 248.675 74.8902C248.396 74.8902 248.116 74.8902 247.976 74.8902C247.836 74.8902 247.696 74.7505 247.556 74.7505C246.438 73.7725 246.018 71.2575 245.878 70.1397C245.598 68.3234 245.878 65.1098 243.081 65.2495C240.703 65.3892 240.144 68.4631 239.444 70.1397C239.165 70.9781 238.885 71.8164 238.605 72.6547C238.046 70.5589 237.207 68.3234 236.228 66.3673C236.088 65.8084 235.808 65.2495 235.388 64.8304C234.829 64.4112 234.269 64.5509 233.85 64.9701C232.871 66.0878 232.591 67.7645 232.871 69.1617C233.011 69.7206 233.85 69.7206 233.71 69.1617C233.71 68.6028 233.71 67.9042 233.85 67.3453C233.99 67.0659 234.13 66.7864 234.269 66.507C234.269 66.3673 234.689 65.8084 234.689 65.8084C234.689 65.8084 235.109 67.3453 235.249 67.485C235.388 68.1836 235.668 68.8823 235.808 69.5809C236.507 71.9561 236.927 74.4711 237.486 76.986C237.486 77.1258 237.486 77.2655 237.486 77.5449C237.486 77.6846 237.626 77.9641 237.766 78.1038C237.766 78.2435 237.906 78.2435 238.046 78.3832C238.046 78.3832 238.186 78.3833 238.186 78.523C238.885 78.9421 239.305 78.6627 239.584 78.1038C239.724 78.1038 240.004 77.9641 240.004 77.6846C240.004 77.1258 240.004 76.7066 240.144 76.1477C240.423 74.6108 240.703 73.2136 241.123 71.8164C241.402 71.1178 241.682 70.4192 242.382 70C242.521 69.8603 242.801 69.7206 242.941 69.7206C243.221 69.7206 243.221 69.8603 243.361 70.1397C243.64 70.5589 243.78 71.1178 243.92 71.6767C244.06 71.9561 244.06 72.2355 244.2 72.515C244.34 73.0739 244.479 73.493 244.619 74.0519C245.179 75.4491 246.298 76.7066 247.836 76.7066C247.976 76.7066 248.116 76.7066 248.396 76.7066C248.955 76.8463 249.515 76.7066 250.214 76.4272C250.214 76.4272 250.354 76.4272 250.354 76.2874C250.354 76.2874 250.354 76.2874 250.494 76.2874C250.633 76.4272 250.773 76.5669 250.913 76.5669C251.193 76.7066 251.333 76.7066 251.612 76.8463L251.752 76.986C253.71 78.1038 256.088 76.4272 257.207 75.03C257.906 74.1916 258.466 73.0739 258.745 72.0958C259.025 71.5369 259.445 70.8383 259.585 70.2795C260.424 72.7944 261.683 75.03 263.221 77.1258C263.501 77.4052 263.92 77.5449 264.2 77.2655C264.34 77.2655 264.48 77.4052 264.62 77.4052C265.319 77.5449 266.158 77.4052 266.718 76.8463C266.718 76.1477 266.857 76.008 266.997 75.7286Z" fill="black"/>
<path d="M310.495 70C309.236 71.3972 307.557 73.0739 305.599 73.0739C303.501 73.0739 302.942 71.1178 303.501 69.4411C303.641 69.1617 303.641 68.8822 303.781 68.7425C304.201 68.0439 304.76 67.3453 305.459 66.7864C305.599 66.6467 305.739 66.6467 305.739 66.507C306.019 66.3673 306.299 66.0878 306.578 65.9481C308.117 65.1098 310.075 64.8303 311.753 65.2495C311.753 66.2276 311.893 67.2056 311.753 68.1836C311.334 68.8822 310.914 69.4411 310.495 70ZM317.907 73.0739C316.509 70.2794 314.83 67.6248 313.292 64.9701V64.8303V64.6906C313.292 64.5509 313.292 64.5509 313.292 64.4112C313.292 64.1317 313.012 63.8523 312.732 63.8523C312.453 63.7126 312.173 63.7126 311.893 63.8523L311.753 63.7126C309.515 62.4551 306.998 63.7126 305.18 65.1098C303.641 66.3673 302.243 68.0439 301.683 70C301.124 70.1397 300.564 70.5589 300.145 70.978C299.725 71.3972 299.166 71.8164 298.746 72.2355C298.187 72.6547 297.487 73.0739 296.928 73.0739C296.648 72.9341 296.229 72.6547 295.949 72.2355C294.97 70.5589 295.529 68.4631 295.389 66.6467C295.249 65.8084 295.11 64.9701 294.41 64.5509C294.41 64.5509 294.27 64.5509 294.27 64.4112C293.851 63.992 293.291 63.8523 292.872 63.992C292.312 63.8523 291.613 63.8523 291.054 64.2715C290.214 64.8303 289.655 65.8084 289.235 66.6467C289.096 66.9262 288.956 67.2056 288.816 67.485C288.676 66.2276 288.676 64.9701 288.676 63.5729C288.676 63.1537 288.256 63.014 287.977 63.014C287.697 62.5948 287.137 62.4551 286.578 62.5948C285.179 63.014 285.179 64.2715 284.48 65.2495C284.2 65.6687 284.76 66.2276 285.179 65.9481C285.459 65.6687 285.739 65.3892 286.019 64.9701C286.298 64.5509 286.438 64.1317 286.858 63.8523C287.417 63.5729 287.277 64.2715 287.417 64.6906C287.417 65.2495 287.557 65.8084 287.557 66.507C287.557 68.1836 287.557 69.8603 287.417 71.3972C287.277 71.8164 287.137 72.3753 287.137 72.7944C286.998 73.493 286.858 74.3313 287.277 75.0299C287.557 75.5888 288.256 76.008 288.956 75.7286C289.096 75.5888 289.235 75.4491 289.375 75.3094C289.655 75.3094 290.075 75.1697 290.075 74.7505C290.075 74.4711 290.075 74.3313 290.075 74.0519C290.075 73.9122 290.214 73.9122 290.214 73.7725C290.774 72.2355 291.193 70.5589 291.753 69.022C292.033 68.1836 292.312 67.485 292.732 66.7864C292.732 66.6467 292.872 66.6467 292.872 66.507C293.152 66.2275 293.431 65.9481 293.851 65.6687C293.851 67.0659 293.851 68.6028 294.27 70C294.131 71.2575 294.27 72.3753 294.97 73.493C295.529 74.3313 296.508 74.7505 297.487 74.7505C298.187 74.7505 298.746 74.4711 299.306 74.1916C300.424 73.9122 301.403 73.2136 302.243 72.515C302.522 72.2355 302.522 71.9561 302.243 71.6767L302.382 71.5369C302.382 72.6547 302.802 73.7725 303.781 74.3313C304.62 74.8902 305.879 75.0299 306.998 74.8902C309.096 74.7505 311.194 73.7725 312.592 72.0958C313.571 70.978 313.991 69.7206 314.271 68.3234C314.551 69.3014 314.83 70.2794 315.25 71.3972C315.53 72.2355 315.949 73.2136 316.788 73.9122C317.627 74.4711 318.746 74.7505 319.586 74.1916C319.446 73.9122 318.607 72.7944 317.907 73.0739Z" fill="black"/>
<path d="M322.243 64.4111C320.844 65.1097 320.425 66.9261 321.124 68.1836C321.544 69.0219 322.383 69.4411 323.222 70C324.061 70.5588 324.9 70.978 325.6 71.5369C326.159 71.9561 326.859 72.6547 326.719 73.493C326.719 73.7724 326.579 73.9121 326.439 74.1916L326.299 74.3313C325.6 74.7505 324.621 74.6107 323.921 74.471C323.782 74.471 323.782 74.471 323.642 74.471C323.502 74.3313 323.222 74.3313 323.082 74.1916C322.802 73.9121 322.383 73.493 322.243 73.0738C322.243 73.0738 322.243 73.0738 322.243 72.9341C322.103 72.5149 322.103 72.0958 322.103 71.8163C322.383 71.2575 321.684 70.6986 321.124 70.978C319.586 71.8163 320.145 73.9121 321.124 74.7505C321.684 75.3093 322.523 75.5888 323.362 75.8682C324.761 76.4271 326.579 76.4271 327.698 75.4491C327.838 75.3093 327.977 75.1696 327.977 75.0299C328.117 74.8902 328.257 74.7505 328.257 74.6107C328.397 74.3313 328.397 74.1916 328.397 73.9121C328.817 72.5149 328.397 70.978 327.418 70C326.859 69.4411 326.019 69.1616 325.18 68.8822C325.04 68.8822 325.04 68.8822 324.9 68.8822C324.761 68.7425 324.481 68.6028 324.201 68.3233C323.502 67.7644 323.222 67.0658 323.782 66.3672C324.061 65.9481 324.621 65.8084 325.04 65.9481L325.18 66.0878C325.46 66.3672 325.74 66.3672 326.019 66.0878C326.299 66.0878 326.579 65.8084 326.439 65.5289C326.159 64.97 325.6 64.6906 324.9 64.5509C324.201 63.992 323.222 63.8523 322.243 64.4111Z" fill="black"/>
<path d="M332.173 75.8682C332.173 75.8682 332.173 76.008 332.173 75.8682C332.173 76.008 332.173 76.008 332.033 76.008C332.173 76.008 332.173 76.008 332.173 75.8682ZM331.474 64.5509C331.474 64.4112 331.474 64.4112 331.474 64.5509C331.474 64.4112 331.614 64.4112 331.614 64.4112C331.474 64.6906 331.474 64.97 331.474 65.2495C331.334 64.97 331.334 64.6906 331.474 64.5509ZM355.25 63.4331C356.23 63.8523 356.23 64.97 355.95 65.8084C355.67 66.9261 354.831 67.6247 353.992 68.1836C353.292 68.4631 352.453 68.4631 351.614 68.4631C351.754 66.507 352.453 64.2714 354.551 63.5728C354.691 63.4331 354.971 63.4331 355.25 63.4331C355.111 63.4331 355.111 63.4331 355.25 63.4331ZM359.167 71.2575C358.327 71.9561 357.628 72.7944 356.649 73.2136C355.67 73.6327 354.551 73.9122 353.572 73.6327C351.754 73.3533 351.474 71.3972 351.474 69.7205C353.153 69.8603 354.831 69.5808 356.23 68.4631C357.209 67.6247 358.048 66.507 358.188 65.2495C358.327 63.7126 357.488 62.3154 355.95 61.8962C355.39 61.7565 354.831 61.7565 354.271 61.8962C353.292 61.8962 352.174 62.3154 351.474 62.8742C350.355 63.992 349.656 65.5289 349.376 67.2056C349.236 67.0659 348.957 66.9261 348.817 66.6467C348.117 66.0878 347.138 65.8084 346.439 66.6467C346.159 67.0659 346.02 67.6247 345.88 68.0439C345.6 68.7425 345.46 69.3014 345.18 70C344.761 71.2575 344.341 72.3752 343.782 73.6327C343.502 74.471 343.082 75.8683 341.824 75.3094C340.845 74.8902 340.425 73.9122 340.005 73.2136C339.586 72.2355 339.026 71.3972 338.047 70.8383C337.768 70.6986 337.348 70.5589 337.068 70.5589C338.047 68.7425 339.026 66.9261 340.005 65.2495C340.285 65.1098 340.425 64.97 340.705 64.8303L340.845 64.6906C341.124 64.5509 341.264 64.2714 341.264 64.1317C341.544 63.4331 341.404 62.7345 340.565 62.7345C340.285 62.7345 340.005 62.8742 339.866 63.014C339.866 63.1537 339.726 63.1537 339.726 63.2934C339.446 63.2934 339.306 63.2934 339.026 63.2934C338.747 63.2934 338.467 63.2934 338.187 63.1537C337.488 63.014 336.789 62.7345 336.089 62.4551C334.831 61.8962 333.432 61.3373 332.033 62.0359C331.334 62.3154 330.775 63.014 330.355 63.7126C329.516 64.5509 329.236 65.8084 329.656 66.7864C329.796 67.3453 330.215 67.7645 330.775 68.1836C331.054 68.3233 331.474 68.6028 331.893 68.6028C331.893 68.7425 331.893 68.7425 332.033 68.8822C332.313 69.4411 333.292 69.1617 333.012 68.6028C332.873 68.3233 332.733 67.9042 332.733 67.485C332.733 67.3453 332.733 67.3453 332.733 67.2056C332.593 66.2275 332.733 65.1098 333.292 64.1317H333.432C334.271 64.97 335.25 65.6686 336.509 65.8084C334.831 68.6028 333.152 71.3972 331.614 74.3313C331.194 74.8902 330.914 75.5888 330.635 76.1477V76.2874L330.495 76.4271C330.215 76.8463 330.495 77.2655 330.775 77.4052C330.775 77.4052 330.775 77.4052 330.775 77.5449C331.054 78.6627 332.173 78.1038 332.733 77.6846C332.872 77.5449 332.873 77.5449 333.012 77.4052C333.292 77.4052 333.432 77.4052 333.572 77.1257C333.852 76.7066 334.131 76.1477 334.411 75.7285C334.97 74.8902 335.53 73.9122 336.229 72.9341C336.369 72.7944 336.509 72.6547 336.509 72.515H336.649L336.789 72.6547C337.208 73.0738 337.628 73.493 338.047 73.9122C338.887 74.7505 339.726 75.4491 340.565 76.1477L340.705 76.2874C341.544 77.2655 343.082 78.2435 344.201 77.1257C344.341 76.986 344.341 76.986 344.341 76.8463C344.901 76.4271 345.18 75.8683 345.6 75.3094C346.299 74.1916 346.719 73.0738 347.138 71.9561C347.558 70.978 347.978 69.8603 348.397 68.8822C348.677 69.0219 348.957 69.1617 349.236 69.1617C349.236 69.3014 349.236 69.4411 349.236 69.4411C349.097 71.9561 349.936 75.0299 352.593 75.8682C355.111 76.7066 357.348 75.0299 359.027 73.3533C359.586 72.9341 360.006 72.3752 360.146 71.8164C360.425 71.3972 359.726 70.8383 359.167 71.2575Z" fill="black"/>
<path d="M374.132 49.1816C373.992 49.0419 373.573 49.0419 373.433 49.1816C372.594 50.4391 371.754 51.8363 371.195 53.2335C370.915 53.9321 370.775 54.7705 371.055 55.4691C371.195 55.7485 371.475 56.1677 371.754 56.3074C371.754 56.7265 371.754 57.2854 371.894 57.5649C372.034 57.8443 372.454 57.8443 372.733 57.5649C373.013 57.2854 373.013 57.006 373.013 56.7265C373.013 56.5868 373.013 56.5868 373.013 56.4471C373.433 56.3074 373.433 55.7485 373.153 55.4691C373.153 54.9102 373.293 54.3513 373.293 53.9321C373.433 52.6746 373.712 51.4172 373.992 50.1597V50.02C373.992 49.8802 374.132 49.8802 374.132 49.7405C374.412 49.7405 374.412 49.4611 374.132 49.1816Z" fill="black"/>
<path d="M363.223 92.9142C363.502 92.9142 363.782 92.9142 363.922 92.7745C364.202 92.6348 364.202 92.3553 364.342 92.0759C364.342 91.9362 364.342 91.9362 364.342 92.0759C364.342 91.9362 364.481 91.7964 364.481 91.6567C364.481 91.517 364.481 91.3773 364.621 91.2376C364.761 90.3992 364.901 89.4212 365.041 88.5829C365.181 87.1857 365.321 85.9282 365.6 84.531C365.6 83.9721 365.181 83.4132 364.621 83.4132C364.062 83.4132 363.642 83.8324 363.502 84.3913C363.223 85.9282 363.083 87.3254 362.803 88.8623C362.663 89.5609 362.663 90.2595 362.523 90.9581C362.523 91.517 362.384 92.7745 363.223 92.9142Z" fill="black"/>
</svg>
