<svg width="433" height="142" viewBox="0 0 433 142" fill="none" xmlns="http://www.w3.org/2000/svg">
<path d="M12.3188 16.4251C13.0267 18.2658 12.7436 20.2482 12.0356 21.9473C11.186 23.9296 9.62847 25.3456 7.78773 26.1952C6.65497 26.7615 5.52221 27.3279 4.38945 27.6111C4.24786 25.204 4.24786 22.7969 4.10627 20.5314C3.96467 17.9826 3.82307 15.5755 3.68148 13.0268C3.68148 13.0268 3.68148 13.0268 3.82308 13.0268C6.93817 11.6109 11.0444 13.0268 12.3188 16.4251ZM2.9735 43.045C2.9735 44.4609 3.1151 46.0184 3.1151 47.4344C3.1151 48.1424 3.25669 48.8503 3.25669 49.6999C3.25669 49.9831 3.25669 50.4079 3.25669 50.6911C3.39829 51.1159 3.68148 51.3991 3.82308 51.8238C3.96467 52.2486 4.81424 52.3902 4.95584 51.9654C4.95584 51.6822 5.23902 51.5407 5.38062 51.2575C5.52221 50.9743 5.38062 50.6911 5.38062 50.4079C5.38062 49.6999 5.38062 48.9919 5.23903 48.4256C5.23903 47.1512 5.09743 45.8769 5.09743 44.4609C4.95583 41.9122 4.81424 39.2219 4.67264 36.6732C4.53105 34.8324 4.53105 32.9917 4.38945 31.151C5.38062 31.0094 6.37178 30.7262 7.22135 30.3014C9.91166 29.1686 12.4604 27.6111 14.0179 24.9208C15.2923 22.6553 15.8586 19.8234 15.1507 17.2747C14.4427 14.726 12.7436 12.602 10.3364 11.4693C7.92933 10.1949 5.09743 10.0533 2.69032 11.4693C2.26553 11.3277 1.69915 11.4693 1.69915 12.0357C1.69915 17.2747 1.98234 22.6553 2.12394 27.8943C2.12394 27.8943 1.98234 27.8943 1.98234 27.7527C1.27437 27.3279 0.424798 27.8943 0.283203 28.6023C0.283203 29.8766 1.13277 30.7262 2.26553 31.151C2.54872 34.8324 2.83191 38.9387 2.9735 43.045Z" fill="#A7A9AC"/>
<path d="M24.6375 21.0977C25.3455 21.5225 25.6287 22.5137 25.6287 23.3633C25.4871 25.0624 24.4959 26.1952 23.2216 27.1863C23.2216 25.0624 23.08 22.9385 23.08 20.673C23.6463 20.673 24.2127 20.8145 24.6375 21.0977ZM30.0181 35.8236C29.4517 34.8324 28.7438 33.8413 28.0358 32.9917C27.0446 31.7174 25.9119 30.5846 24.7791 29.4518C26.903 27.6111 28.4606 25.204 27.8942 22.3721C27.611 20.8145 26.6198 19.5402 25.0623 18.8322C24.0711 18.4074 22.7968 18.2658 21.8056 18.6906C21.3808 18.6906 20.8144 18.9738 20.8144 19.5402C20.6728 19.8234 20.6728 20.1066 20.8144 20.3898C20.6728 23.3633 20.6728 26.4783 20.5312 29.4518C20.5312 31.151 20.5312 32.8501 20.5312 34.4077C20.5312 35.2572 20.5312 36.1068 20.5312 36.9564C20.5312 37.8059 20.5312 38.6555 20.6728 39.5051C20.956 40.3546 22.5136 41.2042 22.9384 39.9299C23.3632 38.3723 23.2216 36.5316 23.2216 34.974C23.2216 33.8413 23.2216 32.5669 23.2216 31.4342C24.2127 32.4253 25.0623 33.4165 25.9119 34.5493C26.4782 35.2572 26.903 36.1068 27.4694 36.8148C28.0358 37.6643 28.319 38.6555 29.0269 39.5051C29.7349 40.6378 32.0004 40.2131 31.5757 38.6555C31.1509 37.6643 30.5845 36.6732 30.0181 35.8236Z" fill="#A7A9AC"/>
<path d="M34.4073 37.0979C37.3808 37.3811 40.4959 37.8059 43.4694 37.9475C45.3101 37.9475 44.8853 35.2572 43.3278 34.974C40.9207 34.6908 38.6552 34.6908 36.2481 34.5492C37.2392 30.1598 38.7968 25.7703 41.0623 21.9473C41.4871 21.2393 41.2039 20.2481 40.3543 19.9649C37.8056 18.9738 35.1153 18.549 32.425 18.9738C31.1506 19.257 31.5754 20.8145 32.7082 20.8145C34.4073 20.8145 36.2481 21.0977 37.9472 21.6641C35.6817 26.0535 33.9825 30.5846 32.9914 35.5404C32.9914 36.2484 33.6993 37.0979 34.4073 37.0979Z" fill="#A7A9AC"/>
<path d="M46.4431 28.3191C46.4431 30.5847 46.5846 32.9918 46.5846 35.2573C46.5846 36.1068 47.2926 37.098 48.2838 36.9564C49.5581 36.6732 50.9741 36.5316 52.2484 36.5316C53.6644 36.39 54.9387 36.5316 56.3547 36.5316C58.0538 36.5316 57.629 33.9829 56.2131 33.8413C54.0892 33.5581 51.6821 33.6997 49.4165 33.9829C49.4165 32.2838 49.4165 30.4431 49.2749 28.7439C49.4165 28.7439 49.5581 28.7439 49.6997 28.7439C50.5493 28.7439 51.3989 28.7439 52.2484 28.7439C52.8148 28.7439 53.2396 28.3191 53.2396 27.7528C53.2396 27.6112 53.2396 27.328 53.098 27.1864C52.9564 26.7616 52.5316 26.3368 52.1068 26.3368C51.1157 26.1952 50.2661 26.3368 49.2749 26.3368C49.2749 25.6288 49.2749 25.0624 49.2749 24.3545L49.1333 21.5226C49.1333 20.9562 48.8502 20.3898 49.5581 20.3898C50.2661 20.2482 50.9741 20.3898 51.6821 20.3898C52.6732 20.3898 53.5228 20.5314 54.514 20.673C55.0803 20.8146 55.7883 20.3898 55.7883 19.6818C55.9299 18.9739 55.3635 18.5491 54.6556 18.2659C52.8148 17.6995 50.5493 17.2747 48.567 17.5579C47.7174 17.6995 46.8678 18.1243 46.4431 18.9739C46.0183 19.8234 46.1599 20.9562 46.1599 21.9474C46.1599 23.5049 46.1599 25.0624 46.3014 26.62C45.8767 26.7616 45.5935 27.328 45.7351 27.7528C46.0183 27.8943 46.1599 28.1775 46.4431 28.3191Z" fill="#A7A9AC"/>
<path d="M62.1602 31.7174C62.1602 32.567 62.1602 33.4165 62.3017 34.2661C62.4433 34.8325 62.8681 35.2573 63.4345 35.3989C63.8593 35.5405 64.5673 35.2573 64.7089 34.6909C64.992 33.2749 64.8505 31.5758 64.7089 30.0183C64.7089 28.4607 64.5673 27.0448 64.5673 25.4872C64.8505 25.4872 64.9921 25.3456 65.1336 25.0624C65.8416 24.0713 66.6912 23.0801 67.5408 22.0889C67.5408 22.7969 67.5408 23.3633 67.6824 24.0713C67.824 25.3456 67.9655 26.7616 68.2487 28.0359C68.5319 29.3103 68.8151 30.5846 69.0983 31.859C69.3815 33.2749 69.8063 34.8325 70.5143 35.9652C70.7975 36.39 71.5054 36.6732 72.0718 36.5316C72.6382 36.39 72.7798 35.8236 72.7798 35.2573C72.7798 34.5493 72.4966 33.9829 72.2134 33.4165C72.0718 32.8502 71.7886 32.1422 71.647 31.4342C71.3638 30.1599 71.0806 28.8855 70.7974 27.7527C70.5143 26.4784 70.3727 25.204 70.2311 23.9297C70.0895 22.7969 70.0895 21.2394 69.5231 20.3898C70.6558 19.3986 71.7886 18.4075 73.063 17.5579C73.9125 16.9915 75.3285 16.2835 74.7621 15.1508C74.4789 14.5844 73.7709 14.4428 73.3462 14.4428C72.7798 14.4428 72.2134 14.8676 71.7886 15.1508C70.2311 16.1419 68.6735 17.4163 67.2576 18.8323C66.2664 19.8234 65.4168 20.9562 64.5673 22.0889C64.4257 19.965 64.2841 17.9827 64.0009 15.8588C64.0009 15.0092 62.4433 14.8676 62.4433 15.7172C62.3017 18.8323 62.1602 21.8057 62.1602 24.9208C62.1602 26.4784 62.1602 28.0359 62.1602 29.5935C62.1602 30.3014 62.1602 31.0094 62.1602 31.7174Z" fill="#A7A9AC"/>
<path d="M74.3374 26.1951C73.771 26.1951 73.3462 26.7615 73.3462 27.3278C73.3462 27.8942 73.9126 28.319 74.4789 28.6022C75.3285 28.8854 76.3197 29.027 77.3108 29.1686C77.4524 31.7173 77.594 34.266 77.8772 36.8147C78.0188 37.5227 78.7268 37.9475 79.4348 38.0891C83.1162 38.2306 86.6561 38.5138 90.3376 38.797C91.0456 38.797 91.6119 37.9475 91.4703 37.2395C91.3287 36.3899 90.6208 35.9651 89.7712 35.9651C86.6561 35.8235 83.541 35.6819 80.2843 35.5403C80.0011 33.558 79.8596 31.5757 79.718 29.4518C80.0012 29.4518 80.2843 29.4518 80.4259 29.5934C80.7091 29.5934 81.1339 29.735 81.4171 29.735C81.7003 29.735 81.9835 29.735 82.2667 29.735C82.5499 29.735 82.6915 29.5934 82.833 29.4518C83.541 29.027 83.2578 28.0358 82.6915 27.611C81.9835 27.0446 81.1339 27.0446 80.2843 26.9031C80.0011 26.9031 79.5764 26.7615 79.2932 26.7615C79.1516 24.2127 79.1516 21.664 79.1516 18.9737C79.1516 17.841 77.3108 17.4162 77.3108 18.5489C77.1692 21.0977 77.0277 23.788 77.0277 26.3367C76.1781 26.1951 75.3285 26.1951 74.3374 26.1951Z" fill="#A7A9AC"/>
<path d="M101.24 20.6729C101.524 22.7968 101.948 24.9207 102.232 27.0446C101.382 27.0446 100.532 26.903 99.6829 26.903C99.6829 26.7614 99.6829 26.6198 99.8244 26.4782C100.108 24.6375 100.674 22.6552 101.24 20.6729ZM93.0279 29.8765C94.1606 29.7349 95.2934 29.7349 96.4262 29.7349C96.143 32.142 95.8598 34.5492 95.8598 36.8147C95.8598 38.089 97.9837 38.6554 98.1253 37.2395C98.4085 34.6908 98.6917 32.142 99.1165 29.5933C100.249 29.5933 101.382 29.5933 102.515 29.5933C102.94 32.7084 103.223 35.8235 103.506 39.0802C103.648 40.7793 106.479 40.7793 106.338 38.9386C105.488 31.1509 104.355 23.3632 102.94 15.5754C102.656 14.4427 100.957 13.8763 100.391 15.1507C98.8333 18.9737 97.7005 22.9384 96.851 27.0446C95.435 27.1862 94.0191 27.3278 92.6031 27.611C91.0456 27.7526 91.6119 30.0181 93.0279 29.8765Z" fill="#A7A9AC"/>
<path d="M113.134 21.5225C114.126 21.9473 115.117 22.3721 115.966 23.08C117.665 24.496 118.798 26.4783 119.081 28.6023C119.365 30.8678 118.515 32.9917 116.957 34.8324C116.249 35.682 115.4 36.5316 114.409 37.2395C113.701 37.6643 112.993 37.9475 112.71 37.0979C112.568 36.8148 112.285 36.5316 112.002 36.39C112.002 36.2484 112.002 35.9652 111.86 35.8236C111.718 34.974 111.577 34.1245 111.435 33.2749C111.152 31.5757 111.01 29.8766 110.869 28.0359C110.586 25.6288 110.444 23.08 110.302 20.6729C111.294 20.9561 112.285 21.0977 113.134 21.5225ZM109.028 32.9917C109.17 33.8413 109.311 34.6908 109.453 35.5404C109.595 36.39 109.736 37.3811 110.302 37.9475C110.444 39.0803 111.294 39.9298 112.426 40.3546C113.701 40.7794 115.117 40.6378 116.249 39.9298C117.382 39.3635 118.232 38.3723 119.081 37.3811C119.931 36.39 120.639 35.3988 121.205 34.1245C123.471 29.4518 121.347 23.788 117.382 20.8145C115.4 19.3986 112.851 18.2658 110.444 18.4074C110.444 18.1242 110.444 17.9826 110.444 17.6994C110.444 16.8499 109.028 16.7083 108.887 17.5578C108.603 20.9561 108.462 24.3544 108.745 27.8943C108.603 29.5934 108.745 31.2926 109.028 32.9917Z" fill="#A7A9AC"/>
<path d="M128.852 22.0889C129.135 23.5049 129.276 24.9208 129.418 26.3368V26.4784C128.71 26.4784 128.144 26.4784 127.436 26.4784C128.002 25.0624 128.427 23.6465 128.852 22.0889ZM123.896 28.8855C124.037 28.8855 124.037 28.8855 124.179 28.8855C123.754 30.8678 123.329 32.8501 122.905 34.8325C122.763 35.9652 124.745 36.8148 125.17 35.5404C125.737 33.4165 126.303 31.151 126.869 29.0271C127.152 29.0271 127.436 29.0271 127.719 29.0271C128.427 29.0271 129.135 29.0271 129.701 29.0271C129.701 29.5934 129.843 30.3014 129.843 31.0094C129.984 31.859 129.984 32.5669 129.984 33.4165C129.984 34.2661 130.126 34.9741 130.551 35.8236C130.834 36.5316 132.25 36.9564 132.533 35.9652C132.816 35.1156 132.816 34.4077 132.816 33.5581C132.816 32.7085 132.675 31.859 132.533 31.151C132.391 30.3014 132.391 29.3103 132.25 28.4607C132.391 28.3191 132.391 28.1775 132.391 27.8943C132.391 27.6111 132.25 27.4695 132.108 27.1863C132.108 26.9031 131.967 26.62 131.967 26.3368C131.542 23.0801 130.976 19.8234 130.268 16.7083C129.984 15.5755 128.144 14.8676 127.719 16.2835C126.586 19.8234 125.453 23.2217 124.462 26.9031C124.037 26.9031 123.613 26.9031 123.329 26.9031C122.763 26.9031 122.338 27.4695 122.48 28.0359C122.763 28.6023 123.329 28.8855 123.896 28.8855Z" fill="#A7A9AC"/>
<path d="M142.586 55.7885C142.444 56.3549 142.161 56.7797 141.595 57.0629C141.029 57.3461 140.887 57.2045 140.604 56.7797C139.613 55.6469 138.763 54.3726 138.055 52.9566C136.781 50.2663 136.214 47.2928 137.63 44.6025C138.48 42.7618 140.037 41.2043 141.453 39.6467C141.736 41.629 142.161 43.6114 142.303 45.5937C142.586 47.2928 142.728 49.1336 142.728 50.8327C142.869 52.3903 143.152 54.231 142.586 55.7885ZM153.206 17.9827C153.347 19.5402 153.489 20.9562 153.772 22.5137C153.347 22.5137 152.922 22.5137 152.639 22.3721C151.931 22.3721 151.365 22.3721 150.657 22.3721C151.365 20.9562 152.215 19.3986 153.206 17.9827ZM134.94 15.434C136.639 15.1508 138.338 15.1508 139.896 15.434C138.763 18.4075 138.621 21.381 138.905 24.4961C139.188 28.0359 139.896 31.5758 140.462 34.9741C140.462 35.2573 140.604 35.3989 140.604 35.6821C138.621 38.0892 136.214 40.0715 134.798 42.9034C133.241 45.8769 133.382 49.4168 134.657 52.5319C135.365 54.231 136.214 55.6469 137.205 57.0629C138.197 58.4788 139.471 60.0364 141.312 59.8948C145.418 59.6116 145.418 54.939 145.418 51.9655C145.276 48.1424 144.852 44.3193 144.144 40.4963C144.002 39.3635 143.719 38.2308 143.577 36.9564C144.993 35.1157 146.126 33.1333 146.975 31.0094C147.683 29.1687 148.391 27.328 149.099 25.4872C150.374 25.3456 151.507 25.3456 152.781 25.4872C153.206 25.4872 153.63 25.6288 154.055 25.6288C154.338 27.328 154.763 29.0271 155.046 30.7262C155.188 31.5758 155.471 32.4254 155.754 33.4165C155.896 33.8413 156.038 34.2661 156.179 34.6909C156.179 34.8325 156.321 34.9741 156.321 35.2573C156.179 35.6821 156.179 36.1068 156.321 36.5316C156.038 36.8148 155.754 37.098 155.471 37.5228C154.622 38.6556 154.338 40.0715 154.338 41.4874C154.48 44.1778 156.887 46.5849 159.577 46.1601C160.993 46.0185 163.259 44.7441 162.409 42.9034C162.126 42.4786 161.56 42.0538 160.993 42.0538C160.427 42.1954 160.144 42.337 159.719 42.7618C159.577 42.7618 159.577 42.9034 159.436 42.9034H159.294C159.294 42.9034 159.153 42.9034 159.011 43.045C159.011 43.045 159.011 43.045 158.869 43.045H158.586H158.445C158.445 43.045 158.303 43.045 158.161 43.045C158.161 43.045 158.162 43.045 158.02 43.045C158.02 43.045 158.02 43.045 157.878 43.045C157.878 43.045 157.737 43.045 157.737 42.9034L157.595 42.7618C157.595 42.7618 157.595 42.6202 157.454 42.6202C157.454 42.4786 157.312 42.337 157.312 42.337V42.1954C157.312 42.0538 157.17 41.9122 157.17 41.7706C157.17 41.7706 157.17 41.629 157.17 41.4874C157.17 41.3459 157.17 41.2043 157.17 41.2043C157.17 41.0627 157.17 40.9211 157.17 40.7795C157.17 40.7795 157.312 40.3547 157.17 40.4963C157.312 40.2131 157.312 40.0715 157.454 39.7883C157.454 39.6467 157.595 39.5051 157.737 39.3635C157.737 39.3635 157.737 39.2219 157.878 39.2219C158.02 38.9387 158.161 38.6556 158.445 38.3724C158.869 37.806 159.153 37.5228 159.577 37.098C160.427 36.39 159.861 35.3989 159.011 35.1157C159.011 34.9741 158.869 34.8325 158.869 34.6909C158.728 34.1245 158.586 33.5581 158.445 32.9918C158.161 31.859 157.878 30.5846 157.595 29.4519C157.312 28.4607 157.17 27.4695 157.029 26.3368C157.454 26.3368 157.878 26.1952 158.161 26.0536C158.445 25.7704 158.586 25.3456 158.445 25.0624C158.161 24.2129 157.312 23.7881 156.462 23.6465C156.038 20.8146 155.754 17.8411 155.471 14.8676C155.471 13.8764 153.772 13.0269 152.922 13.7348C149.807 16.2836 147.967 19.965 146.409 23.6465C146.126 23.6465 145.984 23.7881 145.701 23.7881C144.993 23.9297 144.71 24.7792 144.993 25.4872C145.135 25.6288 145.276 25.912 145.418 26.0536C145.135 26.9032 144.71 27.8943 144.427 28.7439C143.86 30.3014 143.152 31.7174 142.444 33.1333C142.161 31.5758 141.878 30.0183 141.736 28.4607C141.453 26.3368 141.17 24.2129 141.17 21.9473C141.17 19.8234 141.736 17.6995 142.728 15.8588C143.011 15.2924 142.586 14.3012 141.878 14.1596C139.188 13.1685 136.497 13.0269 133.807 13.7348C132.816 13.4517 133.666 15.7172 134.94 15.434Z" fill="#A7A9AC"/>
<path d="M170.056 34.6909C171.613 34.9741 173.312 34.8325 174.728 34.2661C175.578 33.9829 176.286 33.5581 176.994 32.9917C177.702 32.4254 178.268 32.0006 178.551 31.151C178.693 30.443 178.126 29.7351 177.419 29.7351C176.286 29.7351 175.295 30.443 174.303 30.8678C173.312 31.2926 172.321 31.5758 171.188 31.5758C170.764 31.5758 170.339 31.5758 170.056 31.4342C169.914 31.4342 169.631 31.2926 169.489 31.151C169.348 31.151 169.348 31.0094 169.206 31.0094C168.64 30.5846 168.215 30.1598 167.79 29.5935C166.091 26.7616 166.799 22.6553 169.064 20.1066C170.48 18.5491 173.029 17.4163 175.153 18.2659C175.719 18.549 176.427 18.2659 176.711 17.6995C176.994 17.1331 176.569 16.4251 176.003 16.1419C173.454 14.726 170.339 14.8676 167.932 16.5667C165.808 18.1243 164.392 20.673 163.825 23.2217C162.693 28.0359 165.1 33.6997 170.056 34.6909Z" fill="#A7A9AC"/>
<path d="M215.508 42.9034C215.508 41.7706 215.791 40.4963 216.074 39.3635C216.216 41.9122 216.357 44.3193 216.499 46.8681C216.357 46.5849 216.216 46.1601 216.074 45.8769C215.649 44.8857 215.508 43.8946 215.508 42.9034ZM232.357 40.0715C232.499 40.0715 232.499 40.0715 232.357 40.0715C232.499 40.0715 232.499 40.0715 232.357 40.0715ZM208.569 18.8323C210.269 18.5491 211.968 18.4075 213.525 18.5491C214.233 23.6465 214.941 28.6023 215.508 33.6997C213.525 36.9564 212.392 40.7795 212.959 44.6025C213.242 46.0185 213.667 47.4344 214.516 48.5672C215.366 49.7 217.065 50.6911 218.481 49.9831C218.906 49.8415 219.331 49.4168 219.331 48.992C219.189 44.1778 218.906 39.3635 218.481 34.5493C220.463 31.4342 223.295 28.7439 225.561 25.7704C225.419 27.1864 225.136 28.7439 225.136 30.1598C225.136 31.0094 224.994 31.859 225.419 32.567C225.844 33.4165 226.694 33.9829 227.685 34.1245C228.676 34.2661 229.525 34.1245 230.517 34.1245C229.809 35.3989 229.384 36.8148 229.384 38.3724C229.384 39.7883 229.809 41.3458 231.083 42.337C232.074 43.045 233.349 43.3282 234.623 42.9034C235.048 42.7618 235.331 42.6202 235.614 42.337L235.756 42.1954C235.897 42.0538 236.039 42.0538 236.039 41.9122C236.464 41.4874 236.605 40.7795 236.464 40.2131C236.322 39.6467 235.614 39.2219 235.189 39.6467C235.048 39.7883 234.764 39.9299 234.623 39.9299C234.481 39.9299 234.481 40.0715 234.481 40.0715C234.481 40.0715 234.481 40.0715 234.34 40.0715C234.198 40.0715 233.915 40.0715 233.773 40.2131C233.632 40.2131 233.632 40.2131 233.49 40.2131C233.349 40.2131 233.349 40.2131 233.207 40.2131C233.207 40.2131 233.207 40.2131 233.065 40.2131C233.065 40.2131 232.924 40.2131 232.924 40.0715C232.924 40.0715 233.065 40.0715 232.924 40.0715C232.924 40.0715 232.782 39.6467 232.782 39.7883C232.782 39.5051 232.641 39.2219 232.641 38.9387V38.7971V38.6555C232.641 38.514 232.641 38.3724 232.641 38.2308C232.641 37.9476 232.641 37.5228 232.782 37.2396V36.9564C232.782 36.8148 232.924 36.6732 232.924 36.5316C233.065 36.2484 233.065 35.9652 233.207 35.6821C233.207 35.5405 233.349 35.3989 233.349 35.2573C233.349 35.2573 233.49 35.1157 233.49 34.9741C233.632 34.6909 233.915 34.2661 234.198 33.9829C235.472 33.5581 235.189 31.5758 233.773 31.4342C232.074 31.151 230.375 31.2926 228.818 31.2926C228.676 31.2926 228.534 31.2926 228.393 31.2926C228.393 31.2926 228.393 31.2926 228.393 31.151C228.393 30.3014 228.534 29.4519 228.534 28.6023C228.676 27.328 228.817 26.0536 228.959 24.7792C229.101 24.7792 229.384 24.7792 229.525 24.7792C229.95 24.7792 230.375 24.7792 230.8 24.7792C231.366 24.7792 232.074 24.6376 232.499 24.0713C232.782 23.6465 232.782 23.2217 232.499 22.7969C232.216 22.3721 231.791 22.2305 231.366 22.0889C231.083 22.0889 230.8 21.9473 230.517 21.9473C230.092 21.9473 229.809 21.9473 229.384 21.9473C229.525 20.9562 229.667 19.965 229.95 18.9738C230.233 19.1154 230.658 19.257 230.941 19.257C231.508 19.3986 232.074 19.5402 232.641 19.6818C232.924 19.8234 233.207 19.6818 233.49 19.6818C234.056 19.6818 234.623 19.3986 234.764 18.8323C235.048 17.8411 233.773 17.1331 232.924 16.8499C232.499 16.7083 232.074 16.7083 231.649 16.5667C230.658 16.4251 229.667 16.142 228.676 16.2835C228.393 16.2835 228.11 16.4251 227.968 16.5667C227.685 16.7083 227.402 16.8499 227.26 17.2747C225.419 22.0889 221.596 25.7704 218.339 29.7351C217.773 25.3456 217.207 21.0978 216.357 16.8499C216.216 16.1419 215.649 15.7172 214.941 15.7172C212.676 15.7172 210.41 16.0004 208.286 16.5667C207.72 16.7083 207.578 17.2747 207.861 17.8411C207.437 18.8323 208.003 18.9738 208.569 18.8323Z" fill="#A7A9AC"/>
<path d="M240.287 32.9917C242.127 33.2749 243.968 33.558 245.809 33.8412C246.658 33.9828 247.508 34.1244 248.499 34.1244C249.49 34.266 250.34 34.4076 251.048 33.8412C251.756 33.4164 252.039 32.4253 251.19 31.8589C250.765 31.5757 250.482 31.2925 249.915 31.1509C249.49 31.0093 249.066 31.0093 248.641 31.0093C247.65 30.8677 246.8 30.8677 245.809 30.7261C244.818 30.5846 243.685 30.443 242.694 30.3014C244.676 26.3367 246.8 22.372 249.066 18.6906C249.632 17.6994 249.066 16.5667 247.933 16.2835C245.809 15.8587 243.543 15.4339 241.278 15.2923C240.711 15.2923 240.145 15.4339 240.004 16.0003C239.862 16.5667 240.287 17.2746 240.712 17.4162C242.269 17.9826 243.827 18.2658 245.243 18.6906C242.835 22.6552 240.57 26.7615 238.588 30.8677C238.446 31.7173 239.437 32.8501 240.287 32.9917Z" fill="#A7A9AC"/>
<path d="M262.8 12.4605C261.951 15.7172 261.243 18.9739 260.535 22.2306C260.11 21.5226 259.544 20.8146 259.119 20.1066C257.986 18.4075 256.712 16.9915 255.296 15.434C254.871 15.0092 254.163 14.726 253.738 15.1508C253.172 15.5756 253.313 16.142 253.597 16.7084C254.729 18.2659 255.721 19.965 256.853 21.6642C257.278 22.3722 257.845 23.2217 258.411 24.0713C258.694 24.4961 258.836 24.7793 259.26 25.3456C259.544 25.6288 259.685 26.0536 259.968 26.3368C259.827 27.0448 259.685 27.7528 259.544 28.4607C259.119 31.0094 258.694 33.6997 258.411 36.3901C258.269 37.098 258.269 37.6644 258.552 38.3724C258.836 39.0804 259.544 39.5051 260.393 39.5051C261.668 39.5051 262.376 37.9476 261.526 36.9564C261.526 36.39 261.809 35.6821 261.809 35.2573C261.951 34.1245 262.092 33.1334 262.234 32.0006C262.517 29.8767 262.8 27.8944 263.225 25.7704C263.933 21.6642 264.641 17.5579 265.349 13.4517C265.349 11.8941 263.084 11.1861 262.8 12.4605Z" fill="#A7A9AC"/>
<path d="M280.924 34.5492C280.924 34.5492 280.924 34.6908 280.924 34.5492C280.924 34.6908 280.924 34.5492 280.924 34.5492ZM272.429 24.496C273.137 23.5048 273.845 22.6553 274.694 21.8057C275.827 25.0624 277.101 28.1775 278.376 31.4342C278.659 32.2837 279.084 33.1333 279.367 33.9829C279.65 34.8324 279.933 35.9652 280.641 36.6732C281.349 37.3811 282.765 37.6643 283.473 36.8148C284.181 35.9652 283.615 34.974 282.907 34.4077C282.907 34.2661 282.765 34.1245 282.765 33.9829C282.624 33.6997 282.482 33.4165 282.34 33.1333C282.057 32.4253 281.774 31.7174 281.491 31.151C280.924 29.8766 280.5 28.6023 279.933 27.3279C278.8 24.7792 277.809 22.0889 276.677 19.5402C276.818 19.3986 276.96 19.1154 277.101 18.9738C278.659 17.1331 280.358 15.2923 281.916 13.4516C282.907 12.4604 281.066 10.6197 280.075 11.6109C278.234 13.31 276.252 15.0091 274.553 16.8499C273.42 17.9826 272.429 19.257 271.438 20.3898C271.438 18.1242 271.579 16.0003 271.579 13.7348C271.579 12.3188 269.172 11.6109 269.03 13.31C268.747 16.9915 268.464 20.6729 268.322 24.3544C268.181 26.1952 268.181 28.0359 268.039 29.735C268.039 30.7262 267.898 31.5758 267.898 32.5669C267.898 33.5581 267.756 34.5492 268.181 35.5404C268.464 36.2484 269.88 36.8148 270.446 35.9652C271.013 35.1156 271.013 34.2661 271.013 33.2749C271.013 32.2837 271.154 31.4342 271.154 30.443C271.296 28.6023 271.296 26.7615 271.438 25.0624C271.862 25.0624 272.146 24.9208 272.429 24.496Z" fill="#A7A9AC"/>
<path d="M315.898 32.567C315.049 33.4165 313.35 35.1157 311.934 34.6909C311.934 34.4077 311.934 33.9829 311.934 33.6997C311.934 32.8502 311.934 32.0006 311.934 31.0094C311.934 29.3103 311.792 27.6111 311.792 25.912C311.792 24.2129 311.65 22.5137 311.509 20.9562C311.509 20.1066 311.367 19.257 311.226 18.2659C311.226 17.9827 311.226 17.6995 311.084 17.5579C312.217 18.1243 313.491 18.4075 314.624 18.8323C316.323 19.3986 317.739 20.1066 318.305 21.9474C319.58 25.4872 318.447 29.7351 315.898 32.567ZM317.881 17.4163C315.757 16.142 313.066 16.2836 311.084 14.8676C310.518 14.5844 309.81 14.4428 309.385 15.0092C308.96 15.434 309.102 16.142 309.527 16.5667C309.385 16.9915 309.243 17.4163 309.243 17.9827C309.102 18.8323 309.102 19.6818 308.96 20.5314C308.819 22.2305 308.819 23.9297 308.819 25.6288C308.819 27.328 308.819 28.8855 308.819 30.5846C308.819 31.4342 308.819 32.2838 308.819 33.2749C308.819 33.5581 308.819 33.6997 308.819 33.9829C308.677 34.1245 308.677 34.4077 308.677 34.6909C308.677 34.8325 308.819 34.9741 308.819 35.1157C308.819 35.3989 308.819 35.6821 308.96 35.8237C309.102 36.6732 310.093 37.2396 310.943 37.098C311.084 37.2396 311.367 37.2396 311.509 37.2396C312.925 37.5228 314.341 37.098 315.474 36.39C317.597 35.1157 319.297 32.8502 320.288 30.5846C322.27 26.7616 322.412 19.965 317.881 17.4163Z" fill="#A7A9AC"/>
<path d="M334.447 36.6732C335.297 36.5316 336.146 36.39 336.854 35.8236C337.704 35.1157 337.279 33.4165 336.005 33.4165C334.589 33.2749 333.031 33.9829 331.615 34.2661C330.907 34.4077 330.058 34.5493 329.35 34.6909C329.067 34.6909 328.784 34.6909 328.5 34.6909C328.5 33.5581 328.359 31.2926 328.359 31.0094C328.359 29.8766 328.359 28.7439 328.217 27.6111C330.341 27.7527 332.465 27.8943 334.589 27.8943C335.297 27.8943 335.863 27.1863 335.722 26.4784C335.58 25.6288 334.872 25.204 334.164 25.204C332.182 25.0624 330.199 25.204 328.217 25.3456C328.076 22.5137 327.934 19.6818 327.934 16.9915C327.934 16.5667 327.792 16.4251 328.217 16.1419C328.783 15.8588 329.491 16.0003 330.058 15.8588C331.615 15.7172 333.173 15.5756 334.73 15.5756C336.288 15.5756 336.005 13.1684 334.589 13.1684C333.031 13.0269 331.615 13.0269 330.058 13.0269C328.784 13.0269 327.368 13.0269 326.376 13.5932C325.102 14.3012 324.96 15.434 324.96 16.7083C324.96 18.1243 324.96 19.5402 325.102 21.0978C325.102 24.0713 325.244 27.0448 325.385 30.1598C325.385 31.5758 325.385 32.9917 325.527 34.5493C325.527 35.9652 326.093 37.3812 327.651 37.806C329.067 38.0892 330.766 37.6644 332.182 37.3812C332.89 37.098 333.598 36.9564 334.447 36.6732Z" fill="#A7A9AC"/>
<path d="M343.934 33.5581C343.793 33.5581 343.793 33.5581 343.934 33.5581V33.5581ZM341.952 19.8234C341.952 21.381 341.952 22.9385 341.952 24.4961C341.81 24.6377 341.81 24.7793 341.81 24.9209C341.81 25.204 341.81 25.3456 341.952 25.6288C341.952 26.1952 341.952 26.7616 341.952 27.328C341.952 28.7439 342.093 30.3015 342.093 31.7174C342.093 32.9918 341.81 34.9741 343.085 35.8237C343.651 36.2484 344.217 36.2484 344.784 35.9653C345.35 35.6821 345.35 35.1157 345.35 34.6909C344.925 32.1422 345.067 29.5935 344.925 27.0448C344.925 26.9032 344.925 26.7616 344.925 26.7616C347.049 27.0448 349.315 26.9032 351.297 26.3368C351.864 26.1952 352.147 25.4872 352.005 24.7793C351.864 24.2129 351.156 23.6465 350.448 23.7881C349.173 23.9297 348.04 24.0713 346.766 24.2129C346.2 24.2129 345.633 24.2129 344.925 24.2129C344.784 24.2129 344.784 24.2129 344.642 24.2129C344.501 22.7969 344.501 21.5226 344.359 20.1066C345.492 20.1066 346.625 20.1066 347.899 20.1066C349.881 20.1066 351.864 20.2482 353.846 19.965C354.412 19.8234 354.979 19.5402 354.979 18.8323C354.979 18.5491 354.979 18.4075 354.837 18.1243C354.695 17.6995 354.129 17.2747 353.704 17.2747C351.722 16.9915 349.598 17.2747 347.616 17.2747C345.633 17.2747 343.651 17.4163 341.669 17.4163C340.961 17.4163 340.536 18.1243 340.678 18.6907C340.536 19.3987 341.244 19.8234 341.952 19.8234Z" fill="#A7A9AC"/>
<path d="M360.076 36.8148C360.218 35.1157 360.076 33.4165 359.934 31.859C359.934 30.1599 359.934 28.4607 359.934 26.7616C359.934 23.3633 359.934 19.965 360.076 16.5668C360.076 15.2924 357.952 14.726 357.811 16.142C357.386 19.5402 357.244 22.9385 357.103 26.3368C357.103 28.0359 357.103 29.5935 357.103 31.2926C357.103 32.9918 356.961 34.8325 357.244 36.6732C357.386 38.0892 359.934 38.514 360.076 36.8148Z" fill="#A7A9AC"/>
<path d="M363.899 18.8323C363.899 20.8146 363.757 22.7969 363.757 24.7792C363.757 26.3368 363.757 27.8943 363.757 29.4519C363.757 31.151 363.616 32.9917 364.041 34.5493C364.324 35.5405 366.165 35.8236 366.448 34.6909C366.873 33.1333 366.589 31.2926 366.589 29.7351C366.589 28.1775 366.448 26.62 366.448 25.0624C366.448 24.9208 366.448 24.6376 366.448 24.496C368.289 28.0359 370.271 31.4342 372.536 34.8325C373.244 35.9652 375.085 35.6821 375.227 34.2661C375.51 31.2926 375.793 28.3191 376.076 25.4872C376.359 22.5137 376.784 19.5402 376.784 16.5667C376.784 14.8676 374.236 14.1596 373.952 16.0004C373.386 18.8323 373.244 21.9473 372.961 24.7792C372.82 26.3368 372.678 27.8943 372.536 29.3103C370.271 25.6288 368.147 21.6641 366.165 17.8411C366.165 16.9915 366.023 16.1419 365.881 15.1508C365.74 14.1596 364.041 13.8764 364.041 15.0092C364.041 15.434 364.041 15.7172 364.041 16.1419C363.474 16.2835 363.05 16.8499 363.474 17.5579C363.616 18.1243 363.757 18.5491 363.899 18.8323Z" fill="#A7A9AC"/>
<path d="M381.174 34.974C381.174 35.8236 381.74 36.6732 382.731 36.8148C384.006 37.0979 385.28 36.1068 384.997 34.6908C384.855 34.4076 384.714 34.1244 384.43 33.8413C384.289 28.3191 383.298 22.9385 382.023 17.6994C381.74 16.2835 379.333 16.2835 379.616 17.841C380.607 23.5048 380.89 29.1686 381.174 34.974Z" fill="#A7A9AC"/>
<path d="M390.236 33.2748C392.501 34.8324 395.333 35.2571 397.882 34.6908C399.298 34.4076 400.714 33.8412 401.846 32.9916C402.13 32.7084 402.554 32.4252 402.838 32.1421C403.121 31.8589 403.262 31.5757 403.404 31.1509C403.829 30.5845 404.254 29.8765 404.395 29.1686C404.395 28.6022 403.687 27.8942 403.121 28.1774C402.696 28.4606 402.413 28.7438 401.988 29.027C401.846 29.1686 401.563 29.3102 401.422 29.4517C401.138 29.5933 400.855 29.7349 400.572 29.8765C399.722 30.4429 399.015 30.8677 398.165 31.1509C396.466 31.7173 394.625 32.0005 393.068 31.2925C391.51 30.5845 390.519 29.3102 390.519 27.4694C390.519 25.4871 391.227 23.2216 392.501 21.664C393.634 20.1065 395.899 18.8321 397.74 19.9649C399.156 20.6729 400.289 18.5489 399.015 17.841C396.607 16.2834 393.351 16.5666 391.227 18.4073C389.103 20.2481 387.829 23.08 387.404 25.9119C386.979 28.6022 387.829 31.4341 390.236 33.2748Z" fill="#A7A9AC"/>
<path d="M413.457 54.6558C413.457 55.7885 413.457 57.2045 413.033 58.3372C412.891 58.4788 412.891 58.6204 412.749 58.9036C412.608 59.0452 412.466 59.1868 412.466 59.1868C412.466 59.1868 412.325 59.1868 412.325 59.0452C412.183 58.9036 412.041 58.762 412.041 58.6204C410.342 56.3549 408.785 53.8062 408.502 50.9743C408.077 46.5849 410.059 42.6202 412.466 39.0803C413.033 44.1778 413.599 49.4168 413.457 54.6558ZM412.466 59.0452C412.325 59.1868 412.325 59.0452 412.466 59.0452V59.0452ZM428.608 35.3989C428.608 33.8413 428.466 32.2838 428.183 30.7262C428.042 29.1687 427.9 27.6111 427.758 26.1952C427.475 23.2217 427.475 20.1066 427.475 16.9915C427.475 16.2835 427.05 15.5756 426.201 15.2924C425.493 15.1508 424.643 15.2924 424.502 16.0004C423.511 19.1154 421.528 21.6642 419.546 24.0713C417.847 26.1952 416.148 28.4607 414.449 30.5846C414.165 26.1952 414.307 21.8058 415.156 17.4163C415.298 16.5667 414.307 15.8588 413.599 15.8588C411.333 16.0004 409.068 16.0004 406.802 15.7172C405.245 15.5756 405.103 17.6995 406.661 17.9827C408.502 18.2659 410.342 18.5491 412.325 18.5491C411.475 23.6465 411.617 28.8855 412.041 33.9829C408.502 38.7971 405.103 44.1777 405.528 50.2663C405.67 53.6646 407.227 56.4965 409.209 59.1868C410.201 60.4612 411.192 61.8771 413.033 61.8771C414.449 61.8771 415.44 60.886 416.006 59.7532C416.572 58.4788 416.714 57.0629 416.714 55.6469C416.714 53.9478 416.714 52.2487 416.714 50.5495C416.572 47.1512 416.148 43.6114 415.723 40.2131C415.581 38.6555 415.298 36.9564 415.156 35.3989C415.298 35.2573 415.44 34.9741 415.581 34.8325C417.847 31.859 420.112 29.0271 422.378 26.0536C423.227 25.0624 423.935 23.9297 424.785 22.9385C424.785 23.9297 424.927 24.9208 424.927 25.912C425.068 29.0271 425.21 32.4254 426.201 35.3989C426.342 36.6732 428.466 36.8148 428.608 35.3989Z" fill="#A7A9AC"/>
<path d="M431.582 0.424784C431.157 0.141594 431.015 0 430.449 0C430.166 0 429.882 0 429.741 0C429.174 0 428.75 0.141594 428.183 0.424784C428.042 0.566379 427.9 0.56638 427.759 0.707975C427.617 0.84957 427.334 1.13276 427.192 1.27435C426.909 1.69914 426.767 1.98233 426.767 2.40712C426.626 2.54871 426.626 2.8319 426.626 3.11509C426.626 3.25669 426.626 3.53987 426.626 3.68147C426.767 3.96466 426.767 4.24785 427.051 4.53104C427.192 4.67263 427.334 4.81423 427.475 4.95582C427.617 5.09742 427.9 5.23901 428.042 5.23901C428.466 5.38061 428.891 5.5222 429.316 5.38061C429.741 5.23901 430.166 5.23901 430.59 4.95582C430.874 4.81423 431.157 4.53104 431.298 4.24785C431.44 3.96466 431.582 3.82306 431.723 3.53987C431.865 3.25668 431.865 2.97349 431.865 2.8319C432.006 2.54871 432.006 2.12392 432.006 1.84073C432.006 1.55754 432.006 1.41595 431.865 1.13276C432.006 0.849569 431.865 0.707974 431.582 0.424784Z" fill="#A7A9AC"/>
<path d="M18.2658 130.267C17.4162 127.152 16.5666 124.037 15.5754 120.922C15.1507 119.506 13.0267 119.506 12.4604 120.781C10.3364 124.887 9.20367 129.276 8.77889 133.807C6.37177 129.418 4.53104 124.745 3.39828 119.931C3.25669 119.223 2.6903 118.657 1.84073 118.657C1.13276 118.657 0.424784 119.081 0.424784 119.789C0.283189 126.728 0 133.807 0 140.745C0 142.02 1.98233 142.586 2.12392 141.17C2.40711 136.922 2.6903 132.675 2.97349 128.285C4.53104 132.533 6.65496 136.498 9.20367 140.179C10.1948 141.595 12.1772 140.745 12.0356 139.188C11.7524 134.798 12.3188 130.409 13.8763 126.303C14.3011 127.86 14.7259 129.276 15.1507 130.834C15.5754 132.391 15.8586 133.807 16.1418 135.365C16.425 136.922 16.7082 138.622 17.4162 140.037C17.9826 141.17 20.1065 141.453 20.3897 139.896C20.5313 138.197 19.9649 136.639 19.6817 134.94C18.9737 133.241 18.6905 131.825 18.2658 130.267Z" fill="#A7A9AC"/>
<path d="M31.0094 137.489C29.8766 138.197 28.6023 138.055 27.6111 137.347C26.3368 136.498 25.6288 134.94 25.204 133.383C24.6376 130.834 24.0712 126.303 26.9031 124.745C27.7527 124.321 27.4695 123.471 26.9031 122.905C27.8943 122.48 29.0271 122.338 30.0182 122.621C32.7085 123.329 34.4077 126.303 34.5493 129.135C34.6909 131.967 33.6997 135.931 31.0094 137.489ZM31.7174 119.789C27.3279 117.949 21.6641 120.214 21.0978 125.312C20.9562 126.02 21.3809 126.728 21.9473 127.011C21.5225 128.993 21.6641 131.117 21.8057 132.958C22.2305 135.365 23.0801 137.63 24.9208 139.33C26.62 140.887 28.8855 141.737 31.151 141.17C35.5404 140.179 37.5228 134.799 37.806 130.834C38.2307 126.303 36.1068 121.63 31.7174 119.789Z" fill="#A7A9AC"/>
<path d="M58.337 121.205C58.0538 120.639 57.9122 120.497 57.9122 119.789C57.9122 119.931 58.0538 119.648 57.9122 119.506C57.9122 119.506 57.9122 119.506 57.9122 119.365C59.0449 118.657 58.1954 116.674 57.0626 116.674C56.2131 116.533 55.3635 116.816 54.7971 117.524C54.3723 118.232 54.2307 119.081 54.3723 119.931C54.5139 121.488 55.3635 123.046 55.9299 124.604C56.6378 126.869 57.0626 129.135 57.0626 131.542C53.8059 128.143 50.974 124.462 48.5669 120.639C48.0005 119.648 46.1598 119.648 45.735 120.781C44.7439 123.188 44.0359 125.595 43.4695 128.143C42.9031 124.745 42.4783 121.347 42.0535 118.09C41.912 116.816 39.6464 116.533 39.6464 117.949C39.5048 124.462 40.496 130.975 42.1951 137.347C42.3367 138.197 43.0447 138.763 43.8943 138.763C44.6023 138.763 45.4518 138.338 45.4518 137.489C45.735 133.241 46.5846 129.135 47.8589 125.17C50.6908 129.418 54.0891 133.241 57.7706 136.781C58.7618 137.63 60.4609 137.064 60.6025 135.79C60.8857 132.533 60.7441 129.135 60.0361 125.878C59.4697 124.32 58.9033 122.763 58.337 121.205Z" fill="#A7A9AC"/>
<path d="M72.9214 125.028C72.2135 125.028 71.5055 124.887 70.7975 124.887C71.3639 123.471 71.9303 122.055 72.6382 120.639C73.063 122.055 73.4878 123.471 73.6294 125.028C73.3462 125.028 73.063 125.028 72.9214 125.028ZM74.0542 116.108C73.4878 114.975 71.6471 114.55 71.0807 115.966C69.6647 118.94 68.532 122.055 67.3992 125.17C65.8417 125.312 64.4257 125.736 63.0098 126.161C61.4522 126.586 62.4434 129.135 63.8594 128.851C64.7089 128.71 65.5585 128.568 66.4081 128.427C65.4169 131.542 64.5673 134.657 63.8594 137.772C63.5762 139.046 65.9833 140.037 66.4081 138.622C67.3992 135.082 68.3904 131.683 69.6647 128.285C69.8063 128.285 69.9479 128.285 70.0895 128.285C71.0807 128.285 72.0719 128.285 73.2046 128.427C73.4878 128.427 73.771 128.427 74.0542 128.427C74.0542 129.276 74.0542 130.267 74.0542 131.117C74.0542 132.816 73.6294 134.515 73.771 136.214C73.9126 137.63 75.8949 137.914 76.6029 136.781C77.4525 135.223 77.4525 133.241 77.4525 131.683C77.4525 129.984 77.4525 128.144 77.1693 126.444C76.6029 122.763 75.6117 119.365 74.0542 116.108Z" fill="#A7A9AC"/>
<path d="M120.356 113.559C118.94 114.55 118.94 116.674 118.657 118.232C118.373 119.931 118.09 121.488 117.665 123.188C117.382 124.32 117.241 125.453 117.099 126.727C116.108 124.037 115.117 121.347 113.842 118.657C113.276 117.665 112.851 116.391 111.718 115.966C110.586 115.541 109.453 116.249 109.028 117.382C108.603 118.657 108.32 119.931 108.037 121.205C107.754 122.48 107.471 123.896 107.046 125.17C106.338 128.143 105.63 131.117 104.78 134.09C104.497 135.365 106.479 136.356 106.763 134.94C107.471 132.108 108.32 129.135 109.028 126.303C109.453 124.887 109.736 123.471 110.161 122.196C110.302 121.488 110.586 120.781 110.727 120.073C110.727 119.931 110.869 119.789 110.869 119.648C111.152 120.356 111.435 120.922 111.718 121.63C112.285 122.904 112.71 124.179 113.134 125.453C114.126 128.143 114.975 130.834 115.683 133.524C116.108 135.082 118.515 135.648 118.798 133.666C119.365 130.409 119.931 127.152 120.639 123.896C120.922 122.338 121.205 120.781 121.63 119.081C121.913 117.524 122.621 115.683 121.913 114.126C121.772 113.559 120.922 113.134 120.356 113.559Z" fill="#A7A9AC"/>
<path d="M128.002 115.542C127.86 114.267 125.595 113.984 125.595 115.4C125.595 118.09 125.595 120.781 125.595 123.471C125.595 126.161 125.595 128.993 125.736 131.683C125.878 133.382 128.993 133.807 128.993 131.825C128.993 129.135 128.71 126.303 128.568 123.612C128.427 120.922 128.285 118.232 128.002 115.542Z" fill="#A7A9AC"/>
<path d="M138.905 118.09C140.462 117.382 142.586 117.241 143.719 118.515C144.144 119.081 144.993 119.365 145.701 118.94C146.268 118.515 146.268 117.665 145.843 117.099C144.144 114.975 141.453 114.267 138.763 114.834C136.073 115.4 134.09 117.382 132.816 119.789C132.25 120.922 131.825 122.197 131.683 123.471C131.4 123.612 131.259 123.896 131.259 124.32C131.259 124.604 131.4 124.887 131.542 125.17C131.542 126.161 131.542 127.294 131.542 128.285C131.683 131.259 132.816 134.374 135.931 135.365C139.471 136.498 142.869 134.657 145.418 132.25C146.834 130.975 144.993 128.568 143.436 129.701C141.737 130.834 139.754 132.533 137.63 132.533C135.506 132.391 135.082 130.551 134.94 128.71C134.94 128.002 134.798 127.152 134.94 126.303C135.648 126.444 136.356 126.444 137.206 126.586C137.63 126.586 138.055 126.586 138.48 126.728C138.905 126.728 139.329 126.728 139.754 126.586C140.462 126.444 141.17 126.303 141.737 125.736C142.02 125.453 141.878 124.745 141.453 124.604C140.745 124.179 139.896 124.037 139.188 123.896C138.48 123.754 137.63 123.754 136.922 123.754C136.356 123.754 135.79 123.754 135.223 123.612C135.648 121.205 136.639 119.081 138.905 118.09Z" fill="#A7A9AC"/>
<path d="M162.834 114.975C162.268 116.533 161.985 118.09 161.56 119.648C161.277 121.205 160.852 122.621 160.71 124.179C160.427 125.878 160.144 127.577 160.002 129.418C157.595 125.595 155.613 121.489 154.339 117.241C154.339 117.099 154.197 116.958 154.055 116.816C154.197 115.4 152.073 114.975 151.79 116.391C151.365 118.94 150.799 121.63 150.516 124.179C150.374 125.453 150.091 126.728 149.949 128.144C149.808 129.418 149.524 130.834 149.524 132.108C149.666 133.524 152.073 134.232 152.498 132.675C152.923 131.4 152.923 129.984 153.064 128.71C153.206 127.436 153.347 126.02 153.489 124.745C153.489 124.462 153.489 124.179 153.631 123.896C155.188 127.86 157.312 131.542 160.002 134.798C160.852 135.79 162.834 135.79 162.976 134.232C163.259 131.117 163.684 128.144 164.109 125.028C164.675 122.055 165.525 119.081 166.091 115.966C166.374 114.267 163.401 113.134 162.834 114.975Z" fill="#A7A9AC"/>
<path d="M173.454 123.046C172.746 123.046 172.038 123.046 171.33 123.046C171.896 121.63 172.463 120.214 173.171 118.94C173.737 117.949 174.445 117.099 175.012 116.108C175.295 116.674 175.436 117.241 175.578 117.807C176.144 119.648 176.569 121.489 176.852 123.329C175.72 123.188 174.587 123.046 173.454 123.046ZM175.153 115.825C175.295 115.825 175.295 115.825 175.153 115.825V115.825ZM180.392 125.878C179.967 122.763 179.259 119.506 178.268 116.533C177.843 115.117 177.277 113.559 175.72 113.134C174.162 112.568 173.029 113.701 172.321 114.834C170.764 117.382 169.348 120.073 168.498 122.905C168.498 123.046 168.357 123.188 168.357 123.329C168.073 123.329 167.79 123.471 167.649 123.471C166.091 123.754 166.374 125.736 167.649 126.02C167.082 128.285 166.941 130.692 166.941 132.958C166.941 134.232 169.065 134.94 169.206 133.383C169.348 130.834 169.773 128.427 170.48 126.02C171.613 126.02 172.746 126.02 174.02 126.161C175.153 126.303 176.286 126.444 177.277 126.586C177.419 127.86 177.419 128.993 177.419 130.267C177.419 131.825 176.994 133.666 177.702 135.082C178.127 135.931 179.401 136.356 179.967 135.506C180.959 134.232 180.675 132.25 180.675 130.692C180.675 129.135 180.534 127.436 180.392 125.878Z" fill="#A7A9AC"/>
<path d="M202.906 116.533C202.198 117.949 202.198 119.931 202.198 121.489C202.056 123.188 202.056 124.745 202.056 126.444C202.056 128.002 202.198 129.418 202.198 130.975C202.198 131.4 202.198 131.825 202.056 132.108C201.914 131.967 201.631 131.825 201.631 131.825C200.64 130.975 199.932 129.701 199.083 128.71C198.375 127.719 197.667 126.586 197.1 125.453C195.684 123.046 194.552 120.356 193.844 117.665C193.702 116.957 193.136 116.391 192.286 116.25C191.578 116.108 190.87 116.391 190.587 117.099C189.596 120.356 188.605 123.612 187.472 126.728C187.047 122.621 186.764 118.373 186.622 114.126C186.622 112.851 184.498 112.143 184.357 113.701C183.79 120.497 184.215 127.436 185.348 134.09C185.631 135.506 188.038 136.356 188.463 134.657C189.737 130.692 191.012 126.869 192.144 122.904C193.419 126.161 195.26 129.135 197.383 131.967C198.799 133.807 201.49 136.922 204.18 134.94C205.171 134.09 205.454 132.816 205.454 131.683C205.454 130.267 205.313 128.851 205.313 127.435C205.313 125.736 205.313 124.037 205.454 122.338C205.596 120.639 206.021 118.798 205.596 117.099C205.596 115.683 203.614 115.117 202.906 116.533Z" fill="#A7A9AC"/>
<path d="M214.233 127.86C213.95 124.604 213.808 121.489 213.525 118.232C213.384 116.816 210.693 116.391 210.693 118.09C210.693 121.205 210.835 124.462 210.835 127.577C210.835 129.135 210.977 130.692 210.977 132.25C210.977 133.666 210.835 136.498 212.959 136.498C215.083 136.639 214.516 133.666 214.516 132.391C214.375 130.975 214.233 129.418 214.233 127.86Z" fill="#A7A9AC"/>
<path d="M211.26 110.161C211.401 110.303 211.685 110.444 211.826 110.444C211.968 110.586 212.251 110.586 212.392 110.586C212.676 110.586 212.959 110.444 213.1 110.303C213.242 110.161 213.384 110.019 213.525 110.019C213.667 109.736 213.808 109.453 213.808 109.17C213.808 109.028 213.808 109.028 213.808 108.887C213.808 108.745 213.808 108.745 213.808 108.603C213.808 108.462 213.808 108.32 213.808 108.179V108.037C213.808 107.895 213.667 107.754 213.667 107.612C213.525 107.471 213.525 107.187 213.242 107.046C213.1 106.904 213.1 106.904 212.959 106.763C212.817 106.621 212.534 106.621 212.392 106.479C212.251 106.479 212.109 106.479 211.968 106.479C211.826 106.479 211.684 106.479 211.543 106.621C211.401 106.621 211.118 106.763 211.118 106.904C210.977 107.046 210.835 107.187 210.835 107.329L210.693 107.471C210.693 107.612 210.693 107.612 210.552 107.754C210.552 107.895 210.41 108.179 210.41 108.32C210.41 108.603 210.41 108.887 210.552 109.17V109.311C210.835 109.736 210.977 109.878 211.26 110.161Z" fill="#A7A9AC"/>
<path d="M236.039 127.152C234.623 126.019 232.924 125.312 231.225 124.604C229.242 123.754 227.26 122.904 225.278 122.055C225.419 121.772 225.561 121.347 225.844 120.922C226.269 120.072 226.977 119.365 227.543 118.657C228.534 117.524 229.809 116.674 231.225 116.108C231.791 116.816 232.499 117.382 233.49 117.665C235.048 118.232 235.897 116.108 234.34 115.4C233.632 115.117 233.207 114.692 232.924 113.984C232.641 113.276 231.791 112.993 231.083 113.134C227.968 113.984 225.136 115.966 223.295 118.657C222.304 120.072 221.313 122.055 222.446 123.612C223.012 124.32 223.862 124.745 224.711 125.028C225.702 125.453 226.552 125.878 227.543 126.303C229.242 127.011 230.941 127.719 232.641 128.568C233.632 129.135 234.764 129.843 235.189 130.692C235.614 131.825 234.764 132.816 233.915 133.382C232.782 134.232 231.366 134.657 229.95 134.798C229.101 134.94 228.251 134.94 227.401 134.657C226.835 134.515 226.127 134.09 225.844 133.807C225.419 133.382 225.136 132.674 224.994 132.108C224.853 131.4 225.136 130.692 225.136 129.984C225.136 128.851 223.862 128.143 222.87 128.568C221.171 129.559 221.313 131.966 221.879 133.524C222.446 135.223 223.862 136.639 225.561 137.347C228.817 138.763 233.49 138.055 236.322 135.79C237.596 134.798 238.587 133.241 238.587 131.542C238.587 129.984 237.455 128.427 236.039 127.152Z" fill="#A7A9AC"/>
<path d="M225.419 111.86C227.401 111.435 229.384 111.435 231.366 111.577C232.357 111.719 233.348 111.86 234.34 112.002C235.331 112.143 236.463 112.71 237.313 112.568C238.021 112.427 238.446 111.719 237.879 111.152C237.171 110.161 235.755 109.878 234.623 109.453C233.632 109.17 232.499 109.028 231.508 108.887C229.242 108.745 226.977 108.887 224.711 109.453C223.295 110.019 224.145 112.143 225.419 111.86Z" fill="#A7A9AC"/>
<path d="M255.013 131.683C253.597 131.683 252.322 132.675 251.048 133.241C249.915 133.807 248.924 134.091 247.65 134.091C245.667 134.091 244.251 132.958 244.251 130.834C244.11 128.427 245.667 126.303 247.083 124.604C247.791 123.612 248.641 122.621 249.491 121.913C250.057 121.489 251.19 120.922 251.756 121.63C252.181 122.197 253.172 122.48 253.738 122.055C254.305 121.63 254.446 120.639 253.88 120.073C252.039 117.807 248.924 118.232 246.942 119.931C245.951 120.781 244.959 121.913 244.11 122.905C243.26 123.896 242.411 125.028 241.844 126.303C240.712 128.568 240.428 131.4 241.561 133.666C242.836 136.214 245.384 137.489 248.216 137.489C249.632 137.489 251.048 137.064 252.464 136.356C253.314 135.931 253.88 135.506 254.588 134.94C255.296 134.374 255.862 133.949 256.145 133.099C256.429 132.391 255.721 131.683 255.013 131.683Z" fill="#A7A9AC"/>
<path d="M264.358 116.816C263.791 116.674 263.083 116.816 262.942 117.382C262.234 119.931 261.809 122.621 261.526 125.17C261.384 126.444 261.243 127.719 261.243 128.993C261.243 130.409 260.959 131.967 261.526 133.241C262.092 134.515 264.075 134.798 264.641 133.383C265.066 132.25 264.783 130.692 264.783 129.559C264.783 128.285 264.783 127.011 264.924 125.595C265.066 123.046 265.349 120.497 265.491 117.949C265.349 117.524 264.924 116.957 264.358 116.816Z" fill="#A7A9AC"/>
<path d="M314.482 121.772C311.792 121.347 309.102 121.205 306.412 121.064C303.296 120.922 300.04 120.639 296.925 120.781C295.367 120.922 295.65 123.188 297.066 123.329C299.757 123.612 302.447 123.754 305.137 123.896C305.279 123.896 305.42 123.896 305.562 123.896C305.704 125.878 305.704 127.86 305.704 129.843C305.704 130.834 305.704 131.825 305.562 132.816C305.562 133.949 305.279 135.082 305.42 136.214C305.562 136.922 306.27 137.63 306.978 137.63C307.686 137.772 308.535 137.489 308.677 136.781C308.96 135.79 308.96 134.515 308.96 133.524C308.96 132.391 308.96 131.259 308.96 130.267C308.819 128.285 308.677 126.161 308.394 124.179C310.093 124.32 311.792 124.462 313.491 124.745C314.482 124.887 316.606 125.312 317.031 124.037C317.456 122.48 315.474 121.913 314.482 121.772Z" fill="#A7A9AC"/>
<path d="M336.288 126.444C336.288 127.294 336.146 127.577 336.005 128.285C336.005 128.427 335.863 128.568 335.863 128.71L335.722 128.993C335.58 129.276 335.438 129.418 335.297 129.701C335.155 129.843 335.155 129.984 335.014 129.984C335.014 129.984 334.872 130.126 334.872 130.267C334.589 130.409 334.447 130.692 334.164 130.834C333.881 130.975 333.598 131.117 333.314 131.4C333.314 131.4 333.314 131.4 333.173 131.4C333.173 131.4 333.173 131.4 333.031 131.4C332.89 131.4 332.748 131.542 332.607 131.542C332.323 131.683 332.04 131.825 331.757 131.825C331.757 131.825 331.615 131.825 331.474 131.825C331.332 131.825 331.191 131.825 331.049 131.825C330.766 131.825 330.483 131.825 330.199 131.825C330.199 131.825 330.199 131.825 330.058 131.825C329.916 131.825 329.633 131.825 329.491 131.683C329.35 131.683 329.208 131.683 329.067 131.542C328.783 131.4 328.5 131.259 328.217 131.117C328.217 131.117 328.076 131.117 328.076 130.975C327.934 130.834 327.792 130.834 327.792 130.692C327.792 130.692 327.651 130.551 327.509 130.409C327.509 130.267 327.368 130.267 327.368 130.126C327.226 129.843 327.084 129.701 326.943 129.418C326.943 129.418 326.801 129.276 326.943 129.276C326.801 129.135 326.801 128.993 326.66 128.851C326.66 128.71 326.518 128.568 326.518 128.427V128.285V128.144C326.376 127.86 326.376 127.436 326.376 127.152V127.011C326.376 127.011 326.376 126.869 326.376 126.728C326.376 126.586 326.376 126.586 326.376 126.444C326.376 126.161 326.376 125.736 326.376 125.453C326.376 125.312 326.376 125.17 326.518 125.028C326.518 125.028 326.518 124.745 326.66 124.745C326.801 124.462 326.801 124.179 326.943 124.037C327.084 124.887 327.509 125.736 328.359 126.303C329.067 126.869 330.199 126.586 330.199 125.595C330.199 125.595 330.199 125.453 330.199 125.312C330.199 125.17 330.341 125.028 330.341 124.887C330.483 124.604 330.483 124.462 330.483 124.179V124.037C330.483 123.896 330.624 123.754 330.624 123.612C330.624 123.471 330.766 123.471 330.766 123.329C330.766 123.329 330.766 123.329 330.766 123.188L330.907 122.905C331.049 122.763 331.049 122.621 331.191 122.48C331.191 122.48 331.474 122.338 331.474 122.197L331.757 122.055L332.04 121.913C332.182 121.913 332.323 121.772 332.465 121.772C332.465 121.772 332.748 121.772 332.89 121.772C333.031 121.772 333.173 121.772 333.314 121.772C333.456 121.772 333.456 121.772 333.598 121.772C333.881 121.772 334.022 121.913 334.164 121.913C334.306 121.913 334.306 121.913 334.447 122.055C334.589 122.055 334.73 122.197 334.872 122.338C334.872 122.338 335.014 122.338 335.014 122.48C335.155 122.621 335.438 122.763 335.58 122.905L335.722 123.046C335.863 123.188 336.005 123.329 336.005 123.471C336.005 123.471 336.005 123.612 336.146 123.612C336.288 123.896 336.288 124.037 336.43 124.32C336.571 124.604 336.571 124.604 336.713 125.028C336.713 125.17 336.713 125.453 336.854 125.595C336.288 126.303 336.288 126.161 336.288 126.444ZM325.952 128.71C325.952 128.851 325.952 128.851 325.952 128.71V128.71ZM329.633 124.462C329.633 124.604 329.633 124.604 329.633 124.462V124.462ZM332.748 122.197C333.031 122.197 332.748 122.197 332.748 122.197V122.197ZM333.598 122.338C333.598 122.338 333.739 122.338 333.598 122.338C333.881 122.48 333.739 122.48 333.598 122.338ZM334.73 119.223C332.607 118.373 329.775 118.515 328.076 120.073C327.792 120.356 327.651 120.497 327.368 120.781C326.943 120.214 326.093 119.931 325.527 120.356C322.695 122.48 321.987 126.303 322.978 129.559C324.111 133.099 327.368 135.223 330.907 135.223C334.306 135.223 337.846 132.958 339.12 129.701C340.819 125.878 338.837 120.781 334.73 119.223Z" fill="#A7A9AC"/>
<path d="M350.023 131.117C350.023 130.975 350.023 130.834 349.881 130.834C349.74 130.692 349.598 130.409 349.456 130.267C349.173 129.984 348.89 129.701 348.607 129.559C348.465 129.559 348.748 129.559 348.324 129.418H348.182C348.04 129.418 347.757 129.418 347.616 129.418C347.474 129.418 347.474 129.418 347.332 129.418H347.191C346.908 129.559 346.766 129.559 346.483 129.701C346.2 129.843 346.058 129.984 345.916 130.267C345.916 130.267 345.916 130.267 345.916 130.409C345.775 130.551 345.775 130.692 345.633 130.834C345.492 130.975 345.492 131.259 345.492 131.4C345.492 131.542 345.492 131.542 345.492 131.683C345.492 131.825 345.492 131.825 345.492 131.967C345.492 132.108 345.633 132.391 345.633 132.533C345.775 132.675 345.775 132.816 345.916 132.958C345.916 133.099 346.058 133.099 346.2 133.241C346.341 133.383 346.341 133.383 346.341 133.383C346.483 133.524 346.766 133.666 346.908 133.666C346.908 133.666 346.908 133.666 347.049 133.666C347.191 133.666 347.332 133.807 347.474 133.807C347.616 133.807 347.616 133.807 347.757 133.807C347.899 133.807 348.04 133.949 348.182 133.949C348.182 133.949 348.465 133.949 348.607 133.949C348.748 133.949 348.89 133.949 349.032 133.807L349.173 133.666C349.173 133.666 349.315 133.666 349.315 133.524C349.456 133.383 349.598 133.383 349.598 133.241C349.74 133.099 349.74 133.099 349.74 132.958C349.74 132.816 349.881 132.816 349.881 132.675C350.023 132.533 350.023 132.25 350.023 131.967C350.023 131.683 350.023 131.542 350.023 131.259C350.164 131.4 350.023 131.259 350.023 131.117Z" fill="#A7A9AC"/>
<path d="M348.04 117.807C347.899 117.807 347.899 117.807 347.899 117.949C347.899 117.807 348.04 117.807 348.04 117.807ZM350.164 118.798C350.164 118.657 350.023 118.515 350.023 118.515C350.023 118.373 350.023 118.232 349.881 117.949L349.739 117.666C349.598 117.524 349.315 117.241 349.173 117.241C349.031 117.099 348.89 117.099 348.748 117.099C348.607 117.099 348.465 117.099 348.323 117.099C348.323 117.099 348.323 117.099 348.182 117.099C348.04 117.099 347.899 117.099 347.757 117.241C347.757 117.241 347.757 117.241 347.615 117.241C347.474 117.241 347.332 117.382 347.191 117.382C347.049 117.524 347.049 117.524 346.907 117.666C346.766 117.807 346.766 117.807 346.766 117.949C346.624 117.949 346.624 117.949 346.483 118.09C346.199 118.232 346.058 118.515 346.058 118.94C346.058 119.081 346.058 119.365 346.058 119.506C346.058 119.648 346.058 119.648 346.058 119.789C346.058 119.931 346.199 120.214 346.199 120.356C346.199 120.497 346.341 120.497 346.341 120.639C346.341 120.781 346.483 120.922 346.624 121.064C346.766 121.205 346.907 121.347 347.049 121.489C347.191 121.63 347.191 121.63 347.332 121.772L347.615 121.913C347.757 122.055 348.04 122.055 348.182 122.055C348.323 122.055 348.465 122.055 348.607 122.055C348.748 122.055 348.89 121.913 349.031 121.913C349.173 121.772 349.173 121.772 349.315 121.63C349.315 121.63 349.315 121.63 349.456 121.489C349.456 121.347 349.598 121.205 349.598 121.205C349.598 121.064 349.598 121.064 349.598 120.922C349.739 120.781 349.739 120.781 349.881 120.639C350.023 120.497 350.023 120.356 350.164 120.073C350.164 119.931 350.164 119.648 350.164 119.506C350.306 118.94 350.306 118.798 350.164 118.798Z" fill="#A7A9AC"/>
<path d="M11.6107 81.5587C11.1859 81.9835 10.6195 82.4083 10.1947 82.6915C10.4779 82.1251 11.0443 81.7003 11.6107 81.5587ZM17.4161 81.8419H17.5577C17.6992 81.9835 17.9824 81.9835 18.124 82.1251C17.9824 82.1251 17.8408 82.1251 17.6992 81.9835C17.6992 81.9835 17.5576 81.9835 17.4161 81.8419ZM24.071 78.8684C23.5046 78.7268 23.0799 78.8684 22.6551 79.1516C22.5135 79.1516 22.2303 79.2932 22.2303 79.4348C22.2303 79.5764 22.0887 79.718 21.9471 79.718C21.6639 80.0012 21.5223 80.426 21.2391 80.7091C21.0975 80.9923 20.8143 80.9923 20.6727 81.1339C20.3895 81.1339 19.9648 81.1339 19.6816 80.9923C19.3984 80.8507 18.9736 80.8507 18.6904 80.7091C17.9824 80.426 17.4161 80.0012 16.9913 79.4348C19.2568 77.0277 21.3807 74.6206 23.5046 72.2134C23.9294 71.6471 24.6374 70.7975 23.9294 70.2311C23.6462 69.9479 23.0799 69.9479 22.7967 69.9479C22.2303 69.9479 21.6639 69.8063 21.0975 69.8063C20.1064 69.6647 19.1152 69.5231 18.124 69.5231C17.2745 69.3816 16.1417 69.0984 15.4337 69.3815C13.593 70.0895 14.301 72.4966 15.5753 73.3462C15.7169 73.4878 16.1417 73.3462 16.1417 73.063C16.1417 72.9214 16.0001 72.7798 16.0001 72.4966C16.2833 72.7798 16.5665 73.063 16.9913 73.2046C17.6992 73.4878 17.9824 72.6382 17.4161 72.2134C16.8497 71.9303 16.4249 71.2223 16.5665 70.5143C18.2656 70.7975 19.9648 71.0807 21.6639 71.3639C19.2568 74.479 16.5665 77.3109 13.7346 79.8596C13.593 79.8596 13.4514 79.8596 13.3098 80.0012C12.3186 79.8596 11.3275 80.0012 10.3363 80.7091C9.34514 81.4171 8.77877 82.6915 9.48674 83.9658C9.62834 84.249 10.1947 84.5322 10.4779 84.249C11.7523 83.2578 12.885 82.4083 14.0178 81.2755C15.0089 81.5587 16.0001 82.2667 16.8497 82.5499C16.8497 82.5499 16.8497 82.5499 16.9913 82.5499C16.9913 82.6915 17.1329 82.9747 17.2745 82.9747C18.2656 83.541 19.2568 83.8242 20.3896 83.6826C21.6639 83.8242 23.0799 83.3994 24.2126 82.6915C24.9206 82.1251 25.487 81.4171 25.6286 80.5675C25.3454 80.1428 25.0622 79.1516 24.071 78.8684Z" fill="black"/>
<path d="M140.745 79.8597C140.745 80.0013 140.745 80.0013 140.745 80.1429C138.338 77.5941 137.347 74.1959 136.497 70.9392C136.356 70.3728 135.365 69.948 135.223 70.656C134.798 72.0719 134.374 73.6295 133.949 75.0454C133.524 76.3198 133.241 77.7357 132.816 79.0101C132.674 79.4349 132.391 79.8597 132.108 80.2844C132.108 80.2844 132.108 80.2844 131.966 80.2844C131.117 80.8508 130.409 80.1429 129.842 79.4349C129.559 78.8685 129.559 78.3021 129.418 77.8773C128.993 76.4614 128.568 75.0454 128.143 73.6295C127.86 72.9215 127.719 72.0719 127.435 71.364C127.294 70.9392 127.152 70.5144 126.727 70.2312C126.161 69.5232 125.595 69.0984 124.603 68.9569C123.471 68.8153 122.621 69.5232 121.913 70.3728C121.205 71.2224 120.78 72.0719 120.356 73.0631C120.356 72.9215 120.214 72.6383 120.072 72.4967C119.931 72.2135 119.789 71.9303 119.648 71.6472C119.506 70.9392 119.223 70.3728 118.798 69.8064C118.232 69.0984 117.382 68.8153 116.674 69.0984C116.533 69.0984 116.391 69.0984 116.249 69.0984C114.833 69.3816 114.409 70.7976 114.833 72.0719C114.833 72.0719 114.833 72.0719 114.833 72.2135C114.833 72.3551 115.117 72.6383 115.258 72.6383C115.541 72.6383 115.966 72.6383 116.249 72.6383C116.533 72.6383 116.674 72.3551 116.674 72.2135C116.674 71.9303 116.816 70.9392 117.241 70.7976C117.382 70.7976 117.382 70.7976 117.524 70.7976C118.09 71.6472 118.373 72.9215 118.515 73.9127C118.94 76.3198 118.798 78.8685 118.515 81.2756C118.515 81.4172 118.515 81.7004 118.656 81.842C118.798 82.2668 119.081 82.6916 119.648 82.6916C120.214 82.55 120.356 81.9836 120.072 81.5588C120.072 81.2756 120.214 80.9924 120.214 80.8508C120.356 80.426 120.356 80.0013 120.356 79.5765C120.356 79.2933 120.356 79.0101 120.497 78.8685C120.497 78.4437 120.639 77.8773 120.639 77.4525C120.78 76.603 121.064 75.7534 121.488 75.0454C121.913 74.0543 122.48 73.0631 123.329 72.2135C123.895 71.6472 125.453 70.5144 125.736 71.9303C125.878 73.2047 125.878 74.3375 126.161 75.6118C126.444 76.7446 126.869 78.0189 127.577 79.0101C127.86 79.5765 128.285 80.2845 128.851 80.8508C128.851 80.9924 128.993 80.9924 128.993 81.134C129.559 81.842 130.409 82.4084 131.4 82.2668C131.825 82.2668 132.25 82.1252 132.674 81.842C133.666 81.134 134.232 80.0013 134.657 78.8685C135.082 77.7357 135.648 76.603 136.073 75.4702C136.922 77.8773 138.197 80.1428 140.179 81.9836C140.462 82.1252 140.745 82.2668 141.028 81.9836C141.595 81.5588 141.878 80.9924 141.736 80.2844C141.736 79.4349 140.745 79.2933 140.745 79.8597Z" fill="black"/>
<path d="M143.577 75.6119C143.577 75.0455 143.719 74.4791 144.002 73.9127C144.002 74.6207 144.002 75.4703 144.143 76.1782C144.143 76.7446 144.143 77.1694 144.285 77.7358C144.427 78.1606 144.568 78.4438 144.71 78.7269C143.719 78.019 143.435 76.8862 143.577 75.6119ZM152.356 78.3022C152.356 78.3022 152.356 78.1606 152.356 78.3022C152.356 78.1606 152.356 78.1606 152.356 78.1606C152.498 77.7358 152.073 77.311 151.648 77.4526C150.94 77.7358 150.374 78.4438 149.807 78.8685C149.099 79.2933 148.391 79.5765 147.683 79.5765C147.542 79.5765 147.4 79.4349 147.117 79.4349C146.551 79.0101 146.126 78.5853 145.843 77.8774C145.701 77.5942 145.559 77.311 145.559 77.0278C145.559 76.603 145.418 76.3198 145.559 75.8951C145.559 74.9039 145.843 74.0543 146.126 73.0632C146.409 72.2136 146.692 71.2224 147.259 70.5144C147.683 69.9481 148.391 69.3817 149.241 69.3817C149.949 69.3817 150.798 69.9481 150.798 70.656C150.798 71.0808 151.506 71.5056 151.648 70.9392C151.648 70.7976 151.648 70.656 151.648 70.656C151.79 70.656 151.931 70.3728 151.931 70.0896C151.79 69.2401 151.223 68.5321 150.515 67.9657C150.09 67.5409 149.524 67.3994 148.958 67.3994C148.674 67.3994 148.391 67.3994 148.108 67.3994C147.259 67.5409 146.551 67.8241 145.984 68.3905C145.276 68.8153 144.71 69.2401 144.143 69.8065C143.577 70.5144 143.152 71.364 142.869 72.2136C142.303 73.9127 141.736 75.895 142.303 77.5942C142.869 79.2933 144.285 80.4261 145.984 80.8509C146.409 80.9925 146.834 80.9925 147.259 80.9925C147.683 81.1341 147.967 81.1341 148.391 81.2757C149.382 81.2757 150.374 81.1341 151.082 80.5677C151.931 80.1429 152.639 79.1517 152.356 78.3022Z" fill="black"/>
<path d="M80.426 80.9923C79.2933 80.1428 79.5764 78.1604 79.8596 77.0277C80.426 75.187 81.5588 73.4878 83.1163 72.2135C84.6739 71.0807 86.6562 70.5143 88.6385 70.9391C88.6385 71.2223 88.6385 71.5055 88.6385 71.7887C87.7889 73.4878 86.7978 75.187 85.9482 77.0277C85.3818 77.5941 84.9571 78.1604 84.3907 78.5852C83.5411 79.4348 82.2667 80.7092 80.9924 81.1339C80.7092 81.1339 80.5676 80.9923 80.426 80.9923ZM59.8947 83.1163C59.47 83.1163 59.47 82.9747 59.6116 82.6915C59.6116 82.6915 59.6116 82.6915 59.6116 82.5499C59.7531 82.6915 59.8947 82.8331 60.1779 82.9747C60.0363 83.1163 60.0363 83.1163 59.8947 83.1163ZM52.5318 88.2137C52.5318 86.0898 52.5318 84.1074 52.6734 81.9835C52.6734 83.1163 52.6734 84.1074 52.5318 85.2402C52.5318 86.2314 52.5318 87.2225 52.5318 88.2137ZM60.4611 70.0895C60.6027 70.0895 60.6027 70.2311 60.6027 70.3727C60.4611 70.2311 60.1779 70.0895 60.0363 69.9479C60.1779 69.9479 60.3195 69.9479 60.4611 70.0895ZM112.285 76.1781C111.719 75.4701 111.294 74.479 111.152 73.6294C111.011 73.3462 111.011 73.063 111.011 72.7798C111.011 72.2135 111.152 71.7887 111.294 71.2223C111.435 70.7975 111.011 70.3727 110.586 70.3727C110.161 69.9479 109.453 70.0895 109.311 70.6559C109.17 71.5055 109.311 72.4966 109.453 73.4878C109.453 73.6294 109.453 73.6294 109.453 73.771C109.595 74.6206 109.736 75.4701 110.161 76.3197C110.586 77.3109 111.011 78.1604 111.435 79.01C111.718 79.4348 111.86 80.0012 112.143 80.426C112.143 80.426 112.285 80.5676 112.285 80.7092C112.143 80.7092 112.143 80.7092 112.002 80.7092C108.462 80.2844 105.347 77.8773 104.356 74.479C104.214 73.9126 103.223 73.4878 103.081 74.1958C102.09 76.8861 100.532 79.2932 98.5502 81.2755C98.4086 80.1428 98.4086 79.01 98.5502 77.7357C98.5502 77.4525 98.6918 77.0277 98.6918 76.7445C98.8334 75.7533 98.975 74.7622 98.975 73.771C98.975 73.4878 99.1166 73.2046 99.1166 72.9214C99.3997 72.0719 99.6829 71.2223 99.8245 70.3727C99.9661 69.6648 98.5502 69.0984 98.4086 69.9479C98.1254 70.7975 97.9838 71.6471 97.8422 72.4967C97.2758 74.0542 96.5678 75.4701 95.7183 76.7445C95.1519 77.7357 94.5855 78.8684 93.8775 79.718C93.5943 80.0012 93.3112 80.426 92.7448 80.426C92.32 80.426 91.8952 80.2844 91.8952 79.8596C91.8952 79.718 91.7536 79.5764 91.612 79.4348C91.1872 78.4436 90.7624 77.4525 90.6208 77.1693C90.1961 75.6117 90.0545 73.9126 90.0545 72.3551C90.0545 71.9303 90.0545 71.5055 90.1961 70.9391C90.3377 70.7975 90.3377 70.5143 90.1961 70.3727C90.1961 69.5232 89.9129 68.6736 88.7801 68.6736C87.2226 68.532 85.5234 68.6736 83.9659 69.0984C82.6915 69.5232 81.5588 70.2311 80.8508 71.2223C80.5676 71.3639 80.426 71.5055 80.1428 71.6471C79.8596 71.5055 79.5764 71.3639 79.2933 71.6471C78.7269 72.4967 77.8773 73.063 76.8861 73.063C76.7445 73.063 76.603 73.063 76.4614 72.9214C75.7534 72.7798 75.0454 72.4966 74.3374 72.0719C73.6295 71.5055 73.0631 70.6559 72.6383 69.9479C72.4967 69.5232 71.6471 69.24 71.5055 69.8063C70.9392 71.6471 70.5144 73.4878 70.0896 75.187C69.8064 73.6294 69.5232 72.0719 69.0984 70.5143C68.9568 70.0895 68.2488 69.8063 67.9657 70.3727C67.8241 70.6559 67.6825 70.7975 67.5409 71.0807C67.3993 71.0807 67.2577 71.2223 67.2577 71.3639C65.5585 74.0542 64.1426 77.0277 62.7266 79.8596C62.3019 80.5676 61.8771 81.5587 61.1691 82.1251C60.6027 82.1251 60.1779 81.7003 60.0363 81.1339C59.7532 80.2844 60.0363 79.5764 60.3195 78.7268C60.7443 77.3109 61.1691 75.8949 61.3107 74.479C61.4523 73.771 61.4523 73.063 61.4523 72.2135C61.4523 71.5055 61.5939 70.7975 61.3107 70.0895C61.0275 69.0984 60.1779 68.532 59.1868 68.6736C58.1956 68.8152 57.4876 69.3816 56.7797 70.0895C56.4965 70.3727 56.2133 70.6559 55.9301 70.9391C55.9301 71.0807 55.7885 71.0807 55.7885 71.2223C55.0805 72.3551 54.3725 73.4878 53.9478 74.7622C53.8062 74.9038 53.8062 75.187 53.6646 75.3285C53.6646 75.4701 53.523 75.6117 53.523 75.7533C53.523 73.771 53.523 71.9303 53.523 69.9479C53.523 69.5232 52.815 68.9568 52.5318 69.5232C50.9743 71.9303 49.5583 74.479 48.1424 77.0277C47.4344 77.8773 46.7264 78.5852 46.0184 79.2932C45.7352 79.5764 46.16 80.1428 46.4432 80.1428C46.4432 80.5676 47.0096 80.7092 47.2928 80.2844C47.576 79.718 47.8592 79.1516 48.284 78.5852C49.5583 77.4525 50.5495 76.0365 51.3991 74.6206C50.2663 83.6827 50.2663 92.7447 51.1159 101.807C51.2575 102.515 52.3902 102.656 52.5318 101.948C52.5318 101.665 52.6734 101.382 52.6734 101.099C52.815 101.099 52.815 100.957 52.9566 100.957C53.3814 100.532 53.2398 100.108 52.815 99.8245C53.0982 97.7005 53.0982 95.435 52.9566 93.3111C52.9566 93.1695 52.9566 93.1695 52.9566 93.0279C53.0982 90.4792 53.0982 87.9305 53.2398 85.3818C53.2398 83.1163 53.3814 80.9923 53.3814 78.7268C53.523 78.7268 53.6646 78.7268 53.6646 78.5852C53.8062 78.0188 53.9478 77.5941 54.0893 77.0277C54.9389 75.6117 55.6469 74.0542 56.4965 72.6382C56.7797 72.0719 57.2044 71.3639 57.7708 71.0807C58.054 70.9391 58.9036 70.6559 59.0452 70.9391C59.1868 71.0807 59.0452 71.7887 59.0452 72.0719C59.0452 72.3551 59.0452 72.7798 59.0452 73.063C59.0452 73.771 58.9036 74.479 58.762 75.187C58.4788 76.6029 58.054 78.0189 57.9124 79.4348C57.7708 80.1428 57.6292 80.8508 57.6292 81.5587C57.6292 82.1251 57.4876 82.8331 57.7708 83.3995C58.3372 84.5322 59.7532 84.5322 60.7443 84.1074C61.4523 83.8242 62.0187 83.2579 62.4435 82.6915C63.0098 82.1251 63.4346 81.4171 63.7178 80.8508C64.2842 79.5764 64.9922 78.302 65.5585 77.1693C66.4081 75.7533 67.2577 74.1958 67.9657 72.7798C68.6736 76.1781 68.8152 79.718 68.6736 83.2579C68.6736 83.9658 69.8064 84.249 69.948 83.541C70.0896 79.718 70.656 75.8949 71.6471 72.0719C71.9303 72.3551 72.0719 72.4966 72.3551 72.7798C72.7799 73.063 73.2047 73.4878 73.6295 73.6294C74.1958 74.0542 74.7622 74.3374 75.3286 74.479C75.4702 74.479 75.4702 74.479 75.6118 74.479C76.1782 74.6206 76.7445 74.7622 77.3109 74.7622C77.1693 75.187 77.0277 75.4701 77.0277 75.8949C77.1693 77.0277 77.1693 78.302 77.3109 79.4348C77.4525 80.5676 77.5941 81.5587 78.5853 82.1251C79.2933 82.5499 80.0012 82.6915 80.7092 82.5499C80.9924 82.6915 81.4172 82.6915 81.842 82.6915C85.665 82.8331 87.081 79.01 88.6385 76.1781C88.9217 78.302 89.6297 80.426 90.904 82.2667C91.0456 82.5499 91.3288 82.8331 91.7536 82.6915C92.0368 82.6915 92.4616 82.5499 92.7448 82.5499C93.3112 82.6915 94.0191 82.5499 94.4439 81.9835C94.5855 81.8419 94.5855 81.7003 94.5855 81.7003C95.5767 80.9923 96.2846 79.8596 96.4262 78.4436C96.7094 78.0188 96.9926 77.4525 97.2758 77.0277C97.2758 77.8773 97.2758 78.8684 97.2758 79.718C97.2758 80.7092 97.2758 81.9835 97.559 82.9747C97.7006 83.8242 98.5502 84.3906 99.3997 84.1074C100.249 83.8242 100.957 82.8331 101.524 82.1251C102.656 80.8507 103.506 79.4348 104.072 77.8773C106.196 80.1428 109.17 81.5587 112.143 82.2667C112.851 82.4083 113.842 82.6915 114.55 82.2667C115.258 81.8419 115.4 80.8508 115.258 80.1428C114.834 78.7268 113.276 77.5941 112.285 76.1781Z" fill="black"/>
<path d="M137.63 66.1249C137.772 65.8417 137.913 65.7001 137.913 65.4169C137.913 65.1337 137.913 64.9921 137.772 64.709C137.63 64.4258 137.489 64.2842 137.205 64.2842C137.064 64.2842 136.922 64.1426 136.781 64.1426C136.497 64.1426 136.214 64.1426 135.931 64.2842C135.365 64.4258 135.082 64.8506 134.94 65.4169C134.94 65.9833 135.223 66.5497 135.789 66.8329H135.931C136.073 66.9745 136.214 67.1161 136.356 67.1161C136.497 67.1161 136.639 67.1161 136.781 66.9745C136.922 66.8329 137.064 66.6913 137.064 66.5497C137.205 66.5497 137.205 66.4081 137.205 66.4081C137.63 66.2665 137.63 66.2665 137.63 66.1249Z" fill="black"/>
<path d="M195.684 78.4437C194.551 78.3021 193.419 77.3109 193.277 76.3197C194.551 77.8773 197.242 78.1605 199.082 77.5941C199.224 77.5941 199.224 77.5941 199.366 77.4525C198.233 78.1605 196.959 78.5853 195.684 78.4437ZM158.02 76.8861C158.445 76.4613 158.87 76.3197 159.436 76.3197C158.87 77.1693 158.303 77.8773 157.595 78.7269C157.454 78.1605 157.595 77.4525 158.02 76.8861ZM187.33 68.3904C187.33 68.532 187.33 68.532 187.472 68.6736L187.33 68.8152C185.773 70.3728 183.507 71.0807 181.383 71.0807C180.392 71.0807 179.401 70.9391 178.41 70.7975C179.542 69.0984 181.383 67.824 183.365 67.2577C183.932 67.1161 184.498 66.9745 185.065 66.9745C185.914 67.1161 186.905 67.5409 187.33 68.3904ZM194.127 74.6206C194.127 74.479 194.127 74.479 194.127 74.3374C194.127 74.0542 194.268 73.9126 194.268 73.6294C194.41 73.2046 194.693 72.6383 194.835 72.2135C195.259 71.3639 195.967 70.5143 196.817 70.0896C197.667 69.6648 198.658 69.3816 199.649 69.5232C200.074 69.5232 200.498 69.6648 200.782 69.948C201.206 70.2312 201.348 70.7975 201.49 71.3639C201.631 73.3462 200.498 75.3286 198.658 76.0365C197.383 76.6029 195.118 76.7445 194.127 75.6118C194.551 75.3286 194.41 74.9038 194.127 74.6206ZM201.631 90.3376C201.914 92.6032 202.198 95.0103 202.198 97.2758C202.198 98.4086 202.056 99.5413 201.773 100.674C201.49 101.524 201.206 102.656 200.215 102.94C199.366 103.223 198.799 102.94 198.233 102.656C197.667 101.948 197.383 101.099 197.242 100.391C196.251 96.2846 198.799 92.4616 200.923 89.0633C201.065 88.7801 201.206 88.4969 201.348 88.3553C201.631 88.9217 201.631 89.6297 201.631 90.3376ZM216.357 77.4525C215.366 77.8773 214.092 78.1605 212.959 78.0189C211.826 77.7357 211.26 76.6029 210.976 75.6118C210.693 74.6206 210.552 73.3462 210.835 72.3551C210.976 71.7887 211.26 71.2223 211.543 70.6559C211.684 70.3727 211.826 70.2312 211.968 69.948C212.109 69.6648 212.251 69.3816 212.392 69.0984V68.9568C213.242 68.3904 214.092 67.9656 215.224 67.824C216.215 67.6824 217.207 67.824 218.056 68.3904C218.623 68.8152 219.047 69.3816 219.189 69.948C219.331 70.2312 219.331 70.6559 219.331 70.9391V71.0807C219.331 71.0807 219.331 71.0807 219.331 71.2223C219.189 73.3462 218.056 75.6118 216.64 77.3109C216.64 77.3109 216.499 77.3109 216.357 77.4525C216.499 77.4525 216.357 77.4525 216.357 77.4525ZM215.507 66.1249C213.667 65.9833 211.968 65.9833 210.552 67.2577C209.56 68.1072 208.569 69.24 208.428 70.5143C208.286 70.6559 208.145 70.7975 208.145 70.9391C207.861 71.2223 208.003 71.6471 208.286 71.7887C207.153 75.187 205.171 78.1605 203.047 80.9924C202.906 79.1516 202.906 77.4525 203.047 75.6118C204.038 74.3374 204.605 72.6383 204.18 71.0807C203.613 68.532 200.64 67.1161 198.091 67.5409C195.684 67.9656 193.56 69.6648 192.711 71.9303C192.286 72.0719 192.003 72.4967 191.578 72.7799C191.012 73.2046 190.445 73.6294 189.879 74.0542C188.746 74.9038 187.755 75.7534 186.622 76.6029C185.631 77.4525 184.64 78.1605 183.649 78.8684C182.799 79.2932 181.949 79.718 181.1 80.0012C179.826 79.8596 178.693 79.2932 177.985 78.3021C176.71 76.6029 176.71 74.3374 177.418 72.4967C178.693 72.9215 179.826 73.0631 181.1 73.0631C183.507 73.0631 187.613 72.4967 188.604 69.948C188.604 69.8064 188.604 69.8064 188.746 69.6648C189.596 68.6736 189.879 67.5408 188.746 66.5497C187.472 65.4169 185.489 65.4169 183.79 65.7001C183.649 65.7001 183.507 65.7001 183.224 65.7001C180.25 65.9833 177.985 67.9656 176.569 70.3728C176.427 70.3728 176.427 70.3728 176.286 70.2312C175.719 69.948 175.153 69.6648 174.587 69.5232C173.171 69.24 172.746 70.3727 172.463 71.5055C172.179 72.9215 172.179 74.3374 171.896 75.7534C171.613 76.7445 171.188 77.8773 170.339 78.5853C169.348 79.4348 167.932 79.4348 166.799 78.8684C165.666 78.4437 164.533 77.7357 163.401 77.1693C162.834 76.7445 162.409 76.3197 161.843 76.0365C161.985 75.895 162.126 75.6118 162.268 75.4702C162.976 74.3374 163.684 73.2046 164.392 72.0719L164.533 71.9303C164.958 71.3639 165.524 70.7975 165.666 70.2312C165.808 69.6648 165.524 69.3816 165.1 69.0984C164.816 68.8152 164.533 68.532 164.109 68.3904C163.542 68.1072 163.117 67.824 162.551 67.3993C161.701 66.8329 160.71 66.1249 159.719 66.2665C158.87 66.2665 158.162 66.9745 157.878 67.824C157.595 68.8152 158.02 69.8064 158.586 70.7975C158.728 71.0807 159.153 71.0807 159.294 70.9391L159.436 71.0807C159.861 71.5055 160.427 70.7975 160.002 70.3728C159.294 69.8064 159.153 68.8152 159.436 68.1072C160.71 68.6736 161.843 69.24 163.117 69.8064C163.117 69.8064 163.542 69.948 163.825 70.0896C163.967 70.2311 163.967 70.0896 163.825 70.3728C163.542 70.7975 163.259 71.2223 163.117 71.6471C162.976 71.9303 162.693 72.2135 162.551 72.4967C162.409 72.6383 162.268 72.7799 162.126 73.0631C161.56 73.9126 160.852 74.7622 160.285 75.6118C160.285 75.6118 160.285 75.6118 160.144 75.6118C159.436 75.3286 158.728 75.3286 158.02 75.6118C157.029 75.8949 156.179 76.8861 156.038 77.8773C155.896 78.5853 155.896 79.2932 156.038 80.0012C156.038 80.426 156.179 80.8508 156.179 81.2756C156.179 81.5587 156.462 81.7003 156.604 81.8419C156.604 81.9835 156.746 81.9835 156.746 82.1251C156.887 82.5499 157.737 82.8331 158.02 82.4083C159.011 80.9924 160.002 79.4348 160.852 78.0189C161.135 78.1605 161.277 78.3021 161.56 78.4437C162.126 78.7268 162.834 79.1516 163.401 79.5764C165.383 80.9924 167.507 82.1251 170.056 81.5588C173.454 80.8508 173.454 77.1693 173.737 74.3374C173.737 73.9126 173.879 73.4878 173.879 73.2047C173.879 72.9215 173.879 72.3551 174.162 72.2135C174.445 72.0719 175.011 72.4967 175.153 72.4967C175.295 72.4967 175.436 72.6383 175.578 72.6383C174.728 74.9038 174.445 77.4525 175.719 79.5764C177.277 82.2667 180.534 83.5411 183.507 82.2667C185.206 81.5588 186.622 80.2844 188.18 79.2932C189.312 78.4437 190.587 77.5941 191.72 76.8861C191.72 78.1605 192.569 79.4348 193.56 80.0012C195.967 81.4172 199.082 80.1428 201.065 78.4437C201.065 78.4437 201.065 78.4437 201.206 78.4437C201.065 80.426 201.065 82.4083 201.065 84.3907C198.799 87.5057 196.675 90.7624 195.684 94.4439C195.118 96.5678 194.976 98.8333 195.401 100.957C195.543 101.948 195.967 102.94 196.675 103.648C197.1 104.356 197.667 105.064 198.374 105.63C199.082 106.196 200.215 106.763 201.206 106.479C202.056 106.338 202.622 105.63 202.906 104.922C203.33 103.931 203.472 102.94 203.614 101.807C203.755 100.532 203.897 99.3997 203.897 98.1254C203.897 95.7182 203.755 93.3111 203.614 90.904C203.472 89.3465 203.33 87.7889 203.189 86.2314C204.888 83.2579 206.729 80.426 208.428 77.4525C208.711 78.3021 209.136 79.1516 209.844 79.8596C211.826 81.8419 214.658 81.9835 216.782 80.1428L216.923 80.0012C218.056 79.4348 218.764 78.7269 219.331 77.5941C220.039 76.1781 220.605 74.479 220.746 72.7799C220.888 71.3639 220.463 69.948 219.472 68.8152C218.481 66.5497 217.065 66.2665 215.507 66.1249Z" fill="black"/>
<path d="M371.828 54.3725C371.687 54.9389 371.687 55.5053 371.545 56.0717C371.545 55.9301 371.545 55.9301 371.545 55.7885C371.545 55.2221 371.545 54.7973 371.828 54.3725ZM373.527 50.1247C373.527 49.9831 373.386 49.9831 373.244 49.8415C372.819 49.6999 372.395 50.1247 372.111 50.5495C371.828 50.8327 371.545 51.2574 371.404 51.6822C370.979 52.3902 370.554 53.2398 370.271 54.0893C370.129 54.7973 369.846 55.5053 369.988 56.3549C370.129 57.0628 370.554 57.6292 371.262 57.7708C371.262 57.9124 371.404 58.054 371.404 58.1956C371.545 58.3372 371.97 58.4788 372.111 58.3372C372.395 58.054 372.395 57.7708 372.395 57.4876C372.395 57.2044 372.395 56.7796 372.536 56.4965C372.536 55.9301 372.678 55.2221 372.819 54.6557C372.961 53.3814 373.244 52.107 373.669 50.8327C373.811 50.4079 373.669 50.2663 373.527 50.1247Z" fill="black"/>
<path d="M245.525 68.9568C245.101 68.9568 244.818 69.0984 244.534 69.24C244.534 69.24 244.534 69.24 244.534 69.0984C244.534 68.9568 244.676 68.8152 244.676 68.8152C244.818 68.532 245.101 68.1072 245.525 68.2488C245.809 68.3904 245.95 68.6736 246.092 68.8152C245.809 68.9568 245.667 68.9568 245.525 68.9568ZM246.941 67.824C246.941 67.9656 246.941 68.2488 247.083 68.3904C246.8 67.824 246.375 67.3992 245.95 67.2576C246.375 67.116 246.8 67.116 246.941 67.824ZM259.685 72.7798C258.694 74.1958 257.136 75.7533 255.296 76.0365C255.154 76.0365 255.012 76.0365 254.871 76.0365C254.729 75.8949 254.729 75.7533 254.588 75.4701C254.446 74.6206 254.588 73.771 254.729 72.9214C255.012 71.2223 255.862 69.6648 257.136 68.2488C257.703 67.5408 258.552 66.8329 259.543 66.8329C259.968 66.8329 260.535 66.9744 260.818 67.2576V67.3992C260.676 68.9568 260.535 70.5143 259.968 72.0719C259.968 72.3551 259.827 72.6382 259.685 72.7798ZM262.234 67.116C262.092 67.116 262.092 67.116 262.234 67.116C262.092 67.116 262.234 67.116 262.234 67.116ZM270.163 76.7445C270.588 76.4613 270.729 76.0365 270.729 75.6117C270.729 75.3285 270.446 75.0454 270.163 75.3285C270.163 75.3285 270.163 75.3285 270.021 75.3285C269.88 75.0454 269.455 75.0454 269.313 75.3285C269.172 75.4701 269.172 75.6117 269.03 75.7533C268.747 75.7533 268.464 75.7533 268.181 75.7533C267.331 75.4701 266.765 74.3374 266.34 73.6294C265.774 72.4966 265.207 71.3639 264.782 70.2311C264.499 69.6648 264.358 68.9568 264.074 68.3904C263.933 68.1072 263.933 67.824 263.791 67.5408C263.791 67.3992 263.791 67.2576 263.65 67.116C263.65 67.116 263.508 66.9744 263.366 66.9744C263.366 66.8328 263.225 66.8329 263.083 66.6913C262.942 66.5497 262.8 66.5497 262.8 66.5497C261.243 65.5585 259.26 65.4169 257.561 66.1249C255.296 66.9744 253.88 69.24 253.03 71.3639C252.605 72.4966 252.039 73.9126 252.18 75.187C252.039 75.4701 251.897 75.7533 251.614 75.8949C251.331 75.8949 251.048 75.8949 250.906 75.8949C250.765 75.8949 250.623 75.7533 250.481 75.7533C249.349 74.7622 248.924 72.2135 248.782 71.0807C248.499 69.24 248.782 65.9833 245.95 66.1249C243.543 66.2665 242.977 69.3816 242.269 71.0807C241.986 71.9303 241.702 72.7798 241.419 73.6294C240.853 71.5055 240.003 69.24 239.012 67.2576C238.871 66.6913 238.587 66.1249 238.163 65.7001C237.596 65.2753 237.03 65.4169 236.605 65.8417C235.614 66.9744 235.331 68.6736 235.614 70.0895C235.755 70.6559 236.605 70.6559 236.463 70.0895C236.463 69.5231 236.463 68.8152 236.605 68.2488C236.747 67.9656 236.888 67.6824 237.03 67.3992C237.03 67.2576 237.455 66.6913 237.455 66.6913C237.455 66.6913 237.879 68.2488 238.021 68.3904C238.163 69.0984 238.446 69.8063 238.587 70.5143C239.295 72.9214 239.72 75.4701 240.286 78.0189C240.286 78.1604 240.286 78.302 240.286 78.5852C240.286 78.7268 240.428 79.01 240.57 79.1516C240.57 79.2932 240.711 79.2932 240.853 79.4348C240.853 79.4348 240.994 79.4348 240.994 79.5764C241.702 80.0012 242.127 79.718 242.41 79.1516C242.552 79.1516 242.835 79.01 242.835 78.7268C242.835 78.1604 242.835 77.7357 242.977 77.1693C243.26 75.6117 243.543 74.1958 243.968 72.7798C244.251 72.0719 244.534 71.3639 245.242 70.9391C245.384 70.7975 245.667 70.6559 245.809 70.6559C246.092 70.6559 246.092 70.7975 246.233 71.0807C246.517 71.5055 246.658 72.0719 246.8 72.6382C246.941 72.9214 246.941 73.2046 247.083 73.4878C247.225 74.0542 247.366 74.479 247.508 75.0454C248.074 76.4613 249.207 77.7357 250.765 77.7357C250.906 77.7357 251.048 77.7357 251.331 77.7357C251.897 77.8773 252.464 77.7357 253.172 77.4525C253.172 77.4525 253.313 77.4525 253.313 77.3109C253.313 77.3109 253.313 77.3109 253.455 77.3109C253.596 77.4525 253.738 77.5941 253.88 77.5941C254.163 77.7357 254.304 77.7357 254.588 77.8773L254.729 78.0189C256.711 79.1516 259.119 77.4525 260.251 76.0365C260.959 75.187 261.526 74.0542 261.809 73.063C262.092 72.4967 262.517 71.7887 262.658 71.2223C263.508 73.771 264.782 76.0365 266.34 78.1604C266.623 78.4436 267.048 78.5852 267.331 78.302C267.473 78.302 267.614 78.4436 267.756 78.4436C268.464 78.5852 269.313 78.4436 269.88 77.8773C269.88 77.1693 270.021 76.8861 270.163 76.7445Z" fill="black"/>
<path d="M314.199 70.9392C312.925 72.3551 311.226 74.0542 309.243 74.0542C307.119 74.0542 306.553 72.0719 307.119 70.3728C307.261 70.0896 307.261 69.8064 307.402 69.6648C307.827 68.9568 308.394 68.2489 309.102 67.6825C309.243 67.5409 309.385 67.5409 309.385 67.3993C309.668 67.2577 309.951 66.9745 310.234 66.8329C311.792 65.9833 313.774 65.7001 315.473 66.1249C315.473 67.1161 315.615 68.1073 315.473 69.0984C315.19 69.6648 314.765 70.3728 314.199 70.9392ZM321.704 74.0542C320.288 71.2224 318.588 68.532 317.031 65.8417V65.7001V65.5586C317.031 65.417 317.031 65.417 317.031 65.2754C317.031 64.9922 316.748 64.709 316.465 64.709C316.181 64.5674 315.898 64.5674 315.615 64.709L315.473 64.5674C313.208 63.293 310.659 64.5674 308.818 65.9833C307.261 67.2577 305.845 68.9568 305.279 70.9392C304.712 71.0808 304.146 71.5055 303.721 71.9303C303.296 72.3551 302.73 72.7799 302.305 73.2047C301.739 73.6295 301.031 74.0542 300.464 74.0542C300.181 73.9127 299.756 73.6295 299.473 73.2047C298.482 71.5055 299.048 69.3816 298.907 67.5409C298.765 66.6913 298.624 65.8417 297.916 65.417C297.916 65.417 297.774 65.417 297.774 65.2754C297.349 64.8506 296.783 64.709 296.358 64.8506C295.792 64.709 295.084 64.709 294.517 65.1338C293.668 65.7001 293.101 66.6913 292.677 67.5409C292.535 67.8241 292.393 68.1073 292.252 68.3905C292.11 67.1161 292.11 65.8417 292.11 64.4258C292.11 64.001 291.685 63.8594 291.402 63.8594C291.119 63.4346 290.553 63.293 289.986 63.4346C288.57 63.8594 288.57 65.1338 287.862 66.1249C287.579 66.5497 288.146 67.1161 288.57 66.8329C288.854 66.5497 289.137 66.2665 289.42 65.8417C289.703 65.417 289.845 64.9922 290.269 64.709C290.836 64.4258 290.694 65.1338 290.836 65.5586C290.836 66.1249 290.977 66.6913 290.977 67.3993C290.977 69.0984 290.977 70.7976 290.836 72.3551C290.694 72.7799 290.553 73.3463 290.553 73.7711C290.411 74.479 290.269 75.3286 290.694 76.0366C290.977 76.603 291.685 77.0277 292.393 76.7446C292.535 76.603 292.677 76.4614 292.818 76.3198C293.101 76.3198 293.526 76.1782 293.526 75.7534C293.526 75.4702 293.526 75.3286 293.526 75.0454C293.526 74.9038 293.668 74.9038 293.668 74.7622C294.234 73.2047 294.659 71.5055 295.225 69.948C295.508 69.0984 295.792 68.3905 296.216 67.6825C296.216 67.5409 296.358 67.5409 296.358 67.3993C296.641 67.1161 296.924 66.8329 297.349 66.5497C297.349 67.9657 297.349 69.5232 297.774 70.9392C297.632 72.2135 297.774 73.3463 298.482 74.479C299.048 75.3286 300.04 75.7534 301.031 75.7534C301.739 75.7534 302.305 75.4702 302.871 75.187C304.004 74.9038 304.995 74.1958 305.845 73.4879C306.128 73.2047 306.128 72.9215 305.845 72.6383L305.987 72.4967C305.987 73.6295 306.411 74.7622 307.402 75.3286C308.252 75.895 309.526 76.0366 310.659 75.895C312.783 75.7534 314.907 74.7622 316.323 73.0631C317.314 71.9303 317.739 70.656 318.022 69.24C318.305 70.2312 318.588 71.2224 319.013 72.3551C319.296 73.2047 319.721 74.1958 320.571 74.9038C321.42 75.4702 322.553 75.7534 323.403 75.187C323.261 74.9038 322.412 73.7711 321.704 74.0542Z" fill="black"/>
<path d="M326.235 65.1337C324.819 65.8417 324.394 67.6824 325.102 68.9567C325.527 69.8063 326.376 70.2311 327.226 70.7975C328.076 71.3639 328.925 71.7886 329.633 72.355C330.199 72.7798 330.907 73.4878 330.766 74.3373C330.766 74.6205 330.624 74.7621 330.483 75.0453L330.341 75.1869C329.633 75.6117 328.642 75.4701 327.934 75.3285C327.792 75.3285 327.792 75.3285 327.651 75.3285C327.509 75.1869 327.226 75.1869 327.084 75.0453C326.801 74.7621 326.376 74.3374 326.235 73.9126C326.235 73.9126 326.235 73.9126 326.235 73.771C326.093 73.3462 326.093 72.9214 326.093 72.6382C326.376 72.0718 325.668 71.5055 325.102 71.7886C323.545 72.6382 324.111 74.7621 325.102 75.6117C325.668 76.1781 326.518 76.4613 327.368 76.7445C328.784 77.3108 330.624 77.3108 331.757 76.3197C331.899 76.1781 332.04 76.0365 332.04 75.8949C332.182 75.7533 332.323 75.6117 332.323 75.4701C332.465 75.1869 332.465 75.0453 332.465 74.7621C332.89 73.3462 332.465 71.7886 331.474 70.7975C330.907 70.2311 330.058 69.9479 329.208 69.6647C329.067 69.6647 329.067 69.6647 328.925 69.6647C328.783 69.5231 328.5 69.3815 328.217 69.0983C327.509 68.532 327.226 67.824 327.792 67.116C328.076 66.6912 328.642 66.5496 329.067 66.6912L329.208 66.8328C329.491 67.116 329.775 67.116 330.058 66.8328C330.341 66.8328 330.624 66.5496 330.483 66.2664C330.199 65.7001 329.633 65.4169 328.925 65.2753C328.076 64.8505 327.084 64.7089 326.235 65.1337Z" fill="black"/>
<path d="M336.288 76.8862C336.288 77.0278 336.288 77.0278 336.146 77.0278L336.288 76.8862ZM335.438 65.2754C335.438 65.1338 335.58 65.1338 335.58 65.1338C335.438 65.417 335.438 65.7002 335.438 65.9834C335.438 65.8418 335.438 65.5586 335.438 65.2754ZM359.51 64.2842C360.501 64.709 360.501 65.8418 360.218 66.6914C359.934 67.8241 359.085 68.5321 358.235 69.0985C357.527 69.3817 356.678 69.3816 355.828 69.3816C355.97 67.3993 356.678 65.1338 358.802 64.4258C359.085 64.2842 359.226 64.2842 359.51 64.2842ZM363.616 72.072C362.766 72.7799 362.058 73.6295 361.067 74.0543C360.076 74.4791 358.943 74.7623 357.952 74.4791C356.111 74.1959 355.828 72.2135 355.828 70.5144C357.527 70.656 359.226 70.3728 360.642 69.2401C361.634 68.3905 362.483 67.2577 362.625 65.9834C362.766 64.4258 361.917 63.0099 360.359 62.5851C359.793 62.4435 359.226 62.4435 358.66 62.5851C357.669 62.5851 356.536 63.0099 355.828 63.5763C354.695 64.709 353.987 66.2666 353.704 67.9657C353.563 67.8241 353.279 67.6825 353.138 67.3993C352.43 66.8329 351.439 66.5498 350.731 67.3993C350.448 67.8241 350.306 68.3905 350.164 68.8153C349.881 69.5233 349.74 70.0896 349.456 70.7976C349.032 72.072 348.607 73.2047 348.04 74.4791C347.757 75.3286 347.332 76.7446 346.058 76.1782C345.067 75.7534 344.642 74.7623 344.217 74.0543C343.793 73.0631 343.226 72.2136 342.235 71.6472C341.952 71.5056 341.527 71.364 341.244 71.364C342.235 69.5232 343.226 67.6825 344.217 65.9834C344.501 65.8418 344.642 65.7002 344.925 65.5586L345.067 65.417C345.35 65.2754 345.492 64.9922 345.492 64.8506C345.775 64.1426 345.633 63.4347 344.784 63.4347C344.501 63.4347 344.217 63.5763 344.076 63.7178C344.076 63.8594 343.934 63.8595 343.934 64.001C343.651 64.001 343.509 64.001 343.226 64.001C342.943 64.001 342.66 64.001 342.377 63.8595C341.669 63.7179 340.961 63.4347 340.253 63.1515C338.978 62.5851 337.562 62.0187 336.146 62.7267C335.438 63.0099 334.872 63.7178 334.447 64.4258C333.598 65.2754 333.315 66.5498 333.739 67.5409C333.881 68.1073 334.306 68.5321 334.872 68.9569C335.155 69.0985 335.58 69.3816 336.005 69.3816C336.005 69.5232 336.005 69.5232 336.146 69.6648C336.43 70.2312 337.421 69.948 337.138 69.3816C336.996 69.0985 336.854 68.6737 336.854 68.2489C336.854 68.1073 336.854 68.1073 336.854 67.9657C336.713 66.9745 336.854 65.8418 337.421 64.8506H337.562C338.412 65.7002 339.403 66.4082 340.677 66.5497C338.978 69.3816 337.279 72.2136 335.722 75.187C335.297 75.7534 335.014 76.4614 334.73 77.0278V77.1694L334.589 77.311C334.306 77.7358 334.589 78.1605 334.872 78.3021C334.872 78.3021 334.872 78.3021 334.872 78.4437C335.155 79.5765 336.288 79.0101 336.854 78.5853C336.996 78.4437 336.996 78.4437 337.138 78.3021C337.421 78.3021 337.562 78.3021 337.704 78.0189C337.987 77.5942 338.27 77.0278 338.554 76.603C339.12 75.7534 339.686 74.7623 340.394 73.7711C340.536 73.6295 340.677 73.4879 340.677 73.3463H340.819L340.961 73.4879C341.385 73.9127 341.81 74.3375 342.235 74.7623C343.085 75.6118 343.934 76.3198 344.784 77.0278L344.925 77.1694C345.775 78.1605 347.332 79.1517 348.465 78.0189C348.607 77.8774 348.607 77.8773 348.607 77.7358C349.173 77.311 349.456 76.7446 349.881 76.1782C350.589 75.0454 351.014 73.9127 351.439 72.7799C351.864 71.7888 352.288 70.656 352.713 69.6648C352.996 69.8064 353.279 69.948 353.563 69.948C353.563 70.0896 353.563 70.2312 353.563 70.2312C353.421 72.7799 354.271 75.895 356.961 76.7446C359.51 77.5942 361.775 75.895 363.474 74.1959C364.041 73.7711 364.465 73.2047 364.607 72.6383C364.749 72.3551 364.041 71.6472 363.616 72.072Z" fill="black"/>
<path d="M378.767 49.8414C378.625 49.6998 378.2 49.6998 378.059 49.8414C377.209 51.1158 376.359 52.5317 375.793 53.9477C375.51 54.6557 375.368 55.5052 375.651 56.2132C375.793 56.4964 376.076 56.9212 376.359 57.0628C376.359 57.4876 376.359 58.0539 376.501 58.3371C376.643 58.6203 377.067 58.6203 377.351 58.3371C377.634 58.0539 377.634 57.7707 377.634 57.4876C377.634 57.346 377.634 57.346 377.634 57.2044C378.059 57.0628 378.059 56.4964 377.775 56.2132C377.775 55.6468 377.917 55.0804 377.917 54.6557C378.059 53.3813 378.342 52.1069 378.625 50.8326V50.691C378.625 50.5494 378.767 50.5494 378.767 50.4078C379.05 50.2662 379.05 49.983 378.767 49.8414Z" fill="black"/>
<path d="M367.722 94.1607C368.005 94.1607 368.289 94.1607 368.43 94.0191C368.713 93.8776 368.713 93.5944 368.855 93.3112C368.855 93.1696 368.855 93.1696 368.855 93.3112C368.855 93.1696 368.997 93.028 368.997 92.8864C368.997 92.7448 368.997 92.6032 369.138 92.4616C369.28 91.612 369.421 90.6209 369.563 89.7713C369.705 88.3553 369.846 87.081 370.129 85.665C370.129 85.0987 369.705 84.5323 369.138 84.5323C368.572 84.5323 368.147 84.9571 368.005 85.5234C367.722 87.081 367.581 88.4969 367.297 90.0545C367.156 90.7625 367.156 91.4704 367.014 92.1784C367.014 92.7448 366.731 93.8775 367.722 94.1607Z" fill="black"/>
<path d="M40.9211 93.311C41.0627 93.311 41.0627 93.311 40.9211 93.311C41.0627 93.7358 41.3459 93.8774 41.6291 93.8774C41.9123 93.8774 42.1955 93.5942 42.0539 93.311C41.7707 91.7535 41.4875 90.3375 41.4875 88.78C41.4875 87.2224 41.7707 85.6649 42.3371 84.2489C42.4786 83.8241 41.7707 83.3994 41.6291 83.9657C41.4875 83.8241 41.2043 83.8241 41.2043 84.1073C41.2043 84.2489 41.2043 84.2489 41.0627 84.3905C40.9211 84.3905 40.7795 84.5321 40.7795 84.6737C40.4963 86.0897 40.2131 87.5056 40.0715 89.0632C40.0715 89.3463 40.0715 89.6295 40.0715 89.9127C39.9299 90.4791 39.9299 91.1871 39.9299 91.7535C39.9299 92.0366 39.9299 92.3198 40.0715 92.603C40.0715 92.8862 40.2131 93.1694 40.3547 93.4526C40.3547 93.4526 40.7795 93.5942 40.9211 93.311Z" fill="black"/>
<path d="M38.9386 81.9834C38.2307 83.541 37.6643 85.2401 37.5227 87.0809C37.5227 87.5056 37.3811 87.9304 37.3811 88.3552C37.3811 88.78 37.3811 89.2048 37.3811 89.6296C37.5227 90.3376 38.5139 90.7623 39.0802 90.196C39.3634 89.9128 39.0802 89.6296 38.7971 89.488C38.7971 89.2048 38.7971 88.9216 38.7971 88.6384C38.7971 88.072 38.7971 87.5057 38.9386 86.7977C39.0802 85.5233 39.2218 84.249 39.505 83.1162V82.9746C39.505 82.833 39.6466 82.5498 39.6466 82.4082C39.9298 81.9835 39.2218 81.5587 38.9386 81.9834Z" fill="black"/>
</svg>
