<svg width="488" height="453" viewBox="0 0 488 453" fill="none" xmlns="http://www.w3.org/2000/svg">
<path d="M488 352.72C487.872 362.121 485.969 371.521 484.601 380.906C483.49 388.729 482.464 396.601 480.518 404.311C478.665 411.72 476.064 419.012 472.737 426.123C469.061 433.898 460.189 438.163 450.463 441.013C440.244 443.864 429.558 445.657 418.698 446.341C399.566 447.773 380.455 449.56 361.281 450.526C340.439 451.604 319.533 452.216 298.626 452.538C271.051 452.94 243.433 453.15 215.857 452.876C196.832 452.683 177.85 451.556 158.846 450.816C142.344 450.172 125.862 449.56 109.381 448.771C87.05 447.674 64.8449 445.426 42.9218 442.043C30.6531 440.286 19.753 435.04 12.4818 427.394C9.79859 424.397 8.11229 420.957 7.56527 417.366C5.57726 406.468 4.05954 395.49 2.75558 384.528C0.788949 367.899 -0.536394 136.294 0.211781 119.585C1.04546 100.865 1.51575 82.1275 4.70083 63.487C6.15313 55.9866 10.4088 48.9521 16.9709 43.2046C19.5431 41.1188 22.8861 39.6611 26.5689 39.0194C33.5543 37.542 40.7131 36.5771 47.9453 36.138C79.4826 34.6893 111.041 34.0347 142.621 34.1742C149.932 34.1742 157.264 33.3693 164.554 33.5786C179.795 34.0132 97.7951 34.802 113.015 35.5746C119.685 35.9127 126.311 36.6531 132.981 36.9429C134.788 36.9324 136.534 36.4487 137.919 35.5746C149.801 28.2192 158.403 18.2976 162.566 7.14712C163.157 5.31675 164.047 3.54868 165.216 1.88338C167.183 -0.611671 170.133 -0.643865 171.993 1.88338C173.676 4.23589 174.955 6.74035 175.798 9.3363C178.748 18.2541 180.201 27.2685 177.444 36.8302C185.182 36.8302 192.065 36.8302 198.82 36.8302C224.963 36.6692 348.327 36.2507 374.47 36.3956C390.759 36.4922 407.069 37.0717 423.315 38.0053C433.281 38.8523 443.173 40.1314 452.943 41.8364C458.008 42.5687 462.814 44.0933 467.048 46.3115C471.283 48.5297 474.852 51.3922 477.526 54.7141C480.176 58.0872 481.96 61.806 482.784 65.6762C484.674 73.1182 485.902 80.6469 486.461 88.2121C487.38 104.712 488.043 336.188 487.829 352.704" fill="#1A171B"/>
</svg>
