<svg width="297" height="360" viewBox="0 0 297 360" fill="none" xmlns="http://www.w3.org/2000/svg">
<path d="M8.32146 100.11L14.1008 97.3071C20.8736 93.9609 27.3077 90.3757 34.103 87.3554C36.1332 86.5293 37.8549 85.1292 39.0401 83.3405C40.2254 81.5518 40.8182 79.4588 40.7403 77.3386C41.7788 61.9766 42.9978 46.6145 44.1718 31.2525C44.8942 21.4312 45.6166 34.8811 48.5063 25.3423C49.2856 22.7416 50.7255 20.3687 52.6962 18.4377C54.667 16.5068 57.1064 15.0788 59.7942 14.2825C67.3912 11.5476 75.3768 9.94298 83.4762 9.52398C99.8436 8.80694 116.188 7.59013 132.556 7.00346C145.65 6.54717 158.789 6.11259 171.86 6.76445C188.995 7.61186 206.062 9.37187 223.13 11.1101C232.905 12.1097 242.613 13.6306 252.275 15.3472C255.704 15.7871 258.919 17.2018 261.509 19.4104C265.64 23.538 269.021 28.3051 271.51 33.5122C274.284 40.0446 276.24 46.8721 277.334 53.8501C281.089 76.2056 283.561 98.7433 284.739 121.361C285.461 135.245 286.455 149.13 287.426 163.014C288.329 176.051 289.931 188.893 290.27 201.865C291.365 233.052 290.15 264.276 286.635 295.297C285.619 303.576 283.994 311.789 282.527 320.024C282.116 323.089 280.865 325.993 278.9 328.437C276.936 330.882 274.33 332.778 271.352 333.93C267.176 335.805 262.811 337.261 258.325 338.276C243.945 340.927 229.541 343.534 215.025 345.381C193.262 348.141 171.409 350.466 149.555 352.53C128.763 354.486 107.948 353.16 87.2012 351.183C79.706 350.488 72.1657 350.249 64.6254 349.379C54.9855 348.271 49.8157 343.578 47.6033 334.539C46.977 332.203 46.517 329.829 46.2262 327.434C45.2554 317.265 44.2169 307.117 43.5848 297.014C42.3883 277.762 41.1241 258.511 40.5371 239.216C39.7018 212.685 40.5371 162.884 42.2077 136.397C42.4644 134.201 42.13 131.978 41.2365 129.942C40.3429 127.906 38.9204 126.126 37.1055 124.772C27.5786 116.95 18.3451 108.801 8.29893 100.175L8.32146 100.11ZM35.6833 82.7925C26.2466 86.8557 16.9003 90.8103 7.64421 94.8952C-2.17624 99.2409 -2.33428 101.023 6.01875 107.411C15.3651 114.581 24.5309 121.969 33.945 129.139C34.7601 129.765 35.3808 130.595 35.7391 131.538C36.0975 132.481 36.1797 133.5 35.9768 134.485C35.4124 146.348 34.7351 158.212 34.3062 170.076C33.4031 195.129 33.516 243.431 35.0963 268.462C36.0671 283.672 36.7444 298.882 37.986 314.092C38.6755 321.475 39.829 328.811 41.4401 336.06C43.6977 346.685 50.9897 352.899 61.7583 354.746C69.5244 356.072 77.4485 356.398 85.3274 357.158C103.546 358.918 121.832 361.004 140.141 359.461C162.22 357.614 184.254 355.246 206.266 352.682C220.421 351.031 234.508 348.858 248.55 346.446C257.726 345.112 266.602 342.298 274.806 338.124C282.459 334.017 287.787 328.303 289.096 319.677C290.586 309.768 292.279 299.882 293.611 289.952C296.952 264.921 297.133 240.02 296.953 215.119C296.953 197.541 294.695 179.941 293.566 162.362C292.595 148.478 291.444 134.615 290.699 120.73C289.396 97.7507 286.834 74.8532 283.023 52.1336C281.93 45.3432 280.037 38.6948 277.379 32.3171C272.097 19.8015 263.269 10.5887 248.505 8.65482C228.999 6.22123 209.471 4.11356 189.921 2.13627C180.326 1.15849 170.686 0.658745 161.069 0.180718C155.493 -0.101752 149.781 -0.0148385 144.295 0.180718C136.981 0.354546 129.644 0.550101 122.329 1.02813C106.526 2.00591 90.723 2.78813 75.078 4.48295C68.3683 5.2692 61.852 7.17351 55.8209 10.1106C52.2117 11.7292 49.0529 14.1487 46.604 17.1705C44.1551 20.1923 42.4859 23.7301 41.7336 27.4934C40.221 35.6851 38.9116 20.7359 38.3473 29.0362C37.1733 46.6362 36.5186 64.258 35.6155 82.6404" fill="#1A171B"/>
<path d="M264.616 17.82C264.616 17.82 281.644 70.6111 280.563 91.3157C279.482 112.02 287.613 270.481 278.986 300.269C270.36 330.058 272.59 340.703 253.444 341.31C234.299 341.917 87.5551 351.326 81.6988 351.326C75.8426 351.326 39.1735 373.461 39.6916 256.757C40.2096 140.053 42.3494 133.18 42.3494 133.18L3 100.66L35.9752 84.4214L41.2908 45.0069C41.2908 45.0069 35.4346 10.7089 99.245 5.07202C163.055 -0.564819 264.616 17.8633 264.616 17.8633" fill="#1A171B"/>
</svg>
