<svg width="354" height="170" viewBox="0 0 354 170" fill="none" xmlns="http://www.w3.org/2000/svg">
<g clip-path="url(#clip0_156_719)">
<path d="M94.7795 141.477C106.484 140.478 117.333 132.777 121.187 121.51C125.469 109.388 118.617 96.9799 108.911 89.7064C106.627 87.995 104.343 86.5688 101.774 85.2853C100.775 84.4296 99.6327 83.7165 98.4908 83.0034C96.2069 81.5772 93.0666 80.5789 91.0682 78.7249C89.2125 77.0135 87.7851 73.0202 90.2117 71.0235C92.9238 68.7417 96.2069 72.1645 98.0625 74.1611C101.203 77.4413 108.625 73.8759 105.2 70.1678C100.632 65.1762 94.2085 60.7551 87.2141 64.0353C85.9295 64.6058 84.7875 65.4615 83.7883 66.4598C83.6456 66.4598 83.5029 66.6024 83.3601 66.6024C79.2206 68.8843 77.6504 73.5907 80.077 77.7266C80.7908 78.8675 81.6472 79.8658 82.5037 80.7215C84.3593 83.4313 86.9287 85.1427 89.9262 86.5689C93.0666 88.1376 96.0641 89.8491 98.7762 91.9883C102.488 95.6964 105.2 101.116 106.913 105.68C108.911 111.384 109.339 118.23 106.056 123.507C103.059 128.213 94.0658 133.062 88.6416 132.349C83.3601 131.779 77.5077 128.213 75.3666 123.364C72.6545 117.089 77.365 111.099 80.9335 106.393C82.0754 104.824 81.6472 103.398 80.3625 102.542C80.3625 102.114 80.3625 101.829 80.2198 101.401C80.077 100.545 79.7916 99.9749 79.2206 99.547C78.9351 97.9783 76.6512 96.8373 75.0811 97.4078C74.9383 97.4078 74.6529 97.4078 74.5101 97.4078C68.6577 98.834 63.519 104.111 61.5206 109.673C59.3795 115.52 60.8069 121.795 63.9472 126.93C70.3706 137.341 83.2174 142.618 94.7795 141.477Z" fill="black"/>
<path d="M141.456 89.5639C140.028 89.2786 138.458 89.5639 137.602 90.8474C135.461 94.5555 136.46 98.9766 136.46 103.113C136.46 105.68 137.173 114.522 134.604 115.663C130.036 117.802 130.893 92.2736 130.322 89.2786C130.036 87.5672 126.896 87.8524 126.325 89.2786C123.756 96.1243 125.04 105.109 125.611 112.097C126.182 117.374 128.752 122.651 134.747 123.079C139.029 123.364 141.456 121.225 142.883 118.087C144.168 116.376 145.167 114.522 145.738 112.525C146.737 109.102 147.023 105.537 147.023 101.972C147.023 98.2635 147.165 93.8424 145.167 90.7048C144.596 89.4212 142.883 89.136 141.456 89.5639Z" fill="black"/>
<path d="M169.148 118.943C168.862 120.797 168.291 122.651 168.149 124.505C167.149 124.933 166.15 125.361 165.294 125.931C165.151 125.931 165.151 125.931 165.008 126.074C163.295 126.644 164.437 128.783 165.865 128.641C166.15 128.641 166.436 128.641 166.721 128.498C170.575 129.782 175.714 129.497 179.568 129.497C184.849 129.497 190.845 129.782 195.841 128.356C199.695 127.215 199.552 122.08 195.555 121.51C192.415 121.082 189.132 121.225 185.849 121.653C181.852 121.795 177.712 122.08 173.858 122.936C174.429 120.512 174.572 117.945 175 115.663C175 115.377 175.143 115.092 175.143 114.807C179.283 114.379 183.422 115.663 187.562 114.522C188.561 114.237 189.417 113.666 189.845 112.81L189.988 112.668C190.559 112.097 190.702 111.384 190.274 110.814C190.274 110.528 190.131 110.101 189.988 109.815C188.846 107.676 186.134 107.533 184.136 108.389C182.137 109.245 179.853 109.102 177.855 109.388C177.141 109.53 176.428 109.673 175.714 109.815C175.999 106.963 176.142 103.968 175.999 101.116C175.999 100.83 175.857 100.545 175.571 100.26C175.571 100.117 175.571 99.9748 175.571 99.8322C175.714 99.8322 175.999 99.8322 176.142 99.8322C176.285 99.9748 176.57 99.9748 176.713 99.9748C178.426 99.9748 180.424 100.403 182.137 100.545C183.993 100.688 185.706 100.973 187.562 101.258C189.56 101.544 191.844 100.688 192.129 98.406C192.415 96.1241 190.274 94.9832 188.275 94.9832C185.849 94.9832 183.565 95.2684 181.281 95.8389C180.71 95.9815 180.139 96.1241 179.711 96.4093C177.427 96.9798 175.286 97.8355 173.43 98.5486C172.859 98.8338 172.859 99.2617 173.145 99.5469C171.289 103.398 170.861 108.104 170.147 112.24C169.862 114.522 169.576 116.661 169.148 118.943Z" fill="black"/>
<path d="M249.943 90.2768C249.657 88.708 247.373 87.4244 245.517 88.5653C242.092 90.7046 238.951 93.557 235.811 96.1241C234.955 96.8372 233.813 97.6929 232.813 98.5486C232.813 97.6929 232.813 96.6945 232.956 95.8388C233.384 91.8455 234.241 87.9949 235.097 84.0016C235.811 81.0066 232.528 79.2952 229.959 80.0083C228.817 80.2935 227.817 81.0066 226.961 81.7197C224.106 83.5737 221.68 86.9966 219.681 89.7063C217.255 92.8439 213.258 97.1224 213.258 101.401C213.258 101.544 213.401 101.686 213.401 101.829C213.401 101.971 213.401 102.114 213.401 102.114C213.258 103.683 215.542 103.968 216.541 103.54C219.967 101.971 222.251 98.6912 224.677 95.9815C224.392 97.9781 224.249 99.8321 224.392 101.829C223.963 104.111 223.678 106.535 223.392 108.817C223.25 110.956 226.39 111.099 227.675 110.243C231.243 107.676 234.812 105.109 238.38 102.257C236.953 108.674 237.524 115.948 237.524 122.223C237.524 129.639 236.81 137.341 237.238 144.757C237.096 146.183 236.81 147.466 236.667 148.893C236.239 152.458 239.951 154.597 243.234 153.171C244.518 152.601 245.375 151.46 245.66 150.319C245.66 150.319 245.66 150.319 245.803 150.461C245.946 149.748 245.946 149.178 246.088 148.465C246.231 148.179 246.231 147.894 246.231 147.609C246.231 147.324 246.231 147.039 246.374 146.753C247.801 138.196 248.801 129.354 249.657 120.797C250.228 113.951 250.799 106.678 250.228 99.6895C250.371 96.8372 250.513 93.9848 250.513 91.2751C250.228 90.8472 250.085 90.562 249.943 90.2768Z" fill="black"/>
<path d="M182.284 31.2331C184.854 35.0838 184.425 42.4999 180.143 44.4965C175.004 46.921 170.294 45.7801 167.867 40.5032C166.725 37.9361 166.725 35.0838 167.296 32.2314C168.866 33.3724 171.436 33.3724 172.578 32.0888C173.72 30.8053 174.433 28.5234 175.861 28.2381C177.859 27.8103 181.285 29.6643 182.284 31.2331ZM170.865 52.0553C177.146 54.0519 185.282 52.0553 189.279 47.2063C194.417 41.0737 192.562 28.8086 186.138 24.3875C181.285 21.1073 172.578 19.6811 168.296 23.5318C167.582 23.817 167.011 24.2449 166.44 24.5301C162.729 26.9546 161.158 31.3757 160.587 35.5116C159.874 43.0704 163.157 50.9143 170.865 52.0553Z" fill="black"/>
<path d="M314.315 88.1376C314.743 84.1443 313.173 81.1494 311.317 77.8692C310.746 76.7282 308.177 77.2987 308.605 78.7249C309.604 82.5755 310.175 87.5671 307.749 90.99C307.035 92.1309 305.036 93.1292 305.179 94.698C305.465 96.6947 308.605 96.2668 309.747 95.6963C312.459 94.2702 314.029 90.99 314.315 88.1376Z" fill="black"/>
<path d="M319.597 94.27C319.026 95.8388 318.027 97.265 318.17 98.9764C318.17 100.26 319.883 100.545 320.882 100.26C324.879 98.6912 326.164 93.2717 326.449 89.421C326.735 84.9999 325.45 80.7214 323.166 76.8707C322.167 75.3019 318.17 76.3002 319.169 78.2969C321.025 81.7197 321.596 85.4277 321.025 89.2784C320.739 90.8472 320.168 92.7012 319.597 94.27Z" fill="black"/>
<path d="M33.9693 126.359C34.5403 121.367 36.3959 116.091 38.9653 111.67C40.25 109.53 36.8242 108.532 35.3967 110.101C31.4 114.664 29.1161 119.656 28.4024 125.646C27.6887 130.638 27.4032 137.483 31.2572 141.334C31.9709 142.047 33.9693 141.904 34.1121 140.763C34.5403 138.339 34.1121 136.342 33.8266 133.918C33.8266 131.351 33.6838 128.784 33.9693 126.359Z" fill="black"/>
<path d="M44.6765 135.629C42.5353 132.349 42.1071 128.498 43.3918 124.933C44.2482 122.508 39.966 121.938 39.1095 124.077C36.9684 128.641 36.6829 133.775 39.2523 138.196C41.3934 142.047 45.3902 145.042 49.9579 144.329C50.9571 144.186 51.8136 143.045 51.0998 142.047C49.2442 139.622 46.3894 138.339 44.6765 135.629Z" fill="black"/>
<path d="M227.247 38.6494C227.818 37.6511 228.246 36.6528 228.674 35.7971C228.96 35.2266 229.245 34.6561 229.531 34.0856C231.957 34.7987 234.384 35.5118 236.668 36.3675C236.668 36.7954 236.81 37.2232 236.81 37.6511C236.953 38.9346 237.096 40.2182 237.239 41.5018C237.381 44.9246 237.524 48.3474 237.81 51.6276C234.384 47.3491 230.815 42.9279 227.247 38.6494ZM222.822 31.9464C222.822 32.089 222.679 32.2316 222.679 32.3742C222.536 32.5169 222.536 32.6595 222.393 32.9447C221.965 32.5169 221.68 32.089 221.252 31.6612C221.394 31.6612 221.537 31.6612 221.68 31.8038C222.108 31.6612 222.536 31.8038 222.822 31.9464ZM235.383 21.6779C235.526 23.8172 235.668 25.9565 235.954 28.0957C234.955 27.9531 233.956 27.8105 232.814 27.5252C233.385 26.3843 233.813 25.386 234.384 24.245C234.669 23.3893 234.955 22.5336 235.383 21.6779ZM210.546 28.6662C213.543 32.089 216.541 35.5118 219.539 39.0773C216.684 45.495 214.257 52.0554 211.831 58.6158C211.688 58.9011 211.831 59.1863 212.116 59.1863C212.544 59.6142 213.686 59.7568 214.114 59.1863C217.826 54.3373 221.109 49.631 224.106 44.4967C229.102 50.6293 234.098 56.9044 238.952 63.1796C239.094 63.3222 239.237 63.4648 239.38 63.6075C239.38 65.8893 239.38 68.1712 239.665 70.4531C239.808 72.0219 241.235 72.8776 242.663 73.0202C244.376 73.8759 246.374 73.5907 247.802 72.3071C249.8 70.5957 249.8 67.0303 247.944 65.6041C247.802 63.4648 246.945 61.3256 246.802 59.3289C246.089 53.4816 245.375 47.7769 244.661 41.9296C244.518 40.7887 244.376 39.6477 244.376 38.6494C248.087 39.7903 251.941 40.7887 255.652 41.9296C260.506 43.2132 265.93 45.7803 270.926 45.2098C271.354 45.2098 271.782 45.0672 272.21 44.782C272.781 44.782 273.352 44.6393 273.923 44.3541C276.207 43.2132 276.921 40.0756 276.064 37.7937C276.35 36.3675 275.493 34.6561 273.352 34.3709C263.503 32.6595 253.511 30.9481 243.662 29.2367C243.519 27.9531 243.377 26.6695 243.377 25.386C242.948 20.3944 242.806 15.5454 241.521 10.839C243.805 7.13095 236.953 3.70813 234.241 7.70142C230.53 13.2635 228.246 19.8239 225.819 26.0991C222.108 25.5286 218.254 24.8155 214.543 24.245C212.116 23.9598 208.548 26.2417 210.546 28.6662Z" fill="black"/>
<path d="M98.9233 16.2584C101.064 18.5403 103.206 20.6796 105.489 22.8188C107.916 25.1007 110.2 28.0957 113.055 29.6645C113.768 30.0923 114.91 29.3792 114.339 28.6661C112.769 26.2416 110.057 24.245 107.916 22.2484C105.489 19.9665 103.063 17.542 100.779 15.2601C95.6402 10.1259 91.2152 4.42117 85.6483 0.142648C85.3628 -0.142587 84.5063 0.142648 84.7918 0.5705C88.5031 6.2752 94.2128 11.2668 98.9233 16.2584Z" fill="black"/>
<path d="M171.859 14.9749C172.002 14.6897 172.002 14.547 172.145 14.2618C172.288 13.9766 172.145 13.834 171.859 13.834C172.573 9.84067 179.139 8.98497 182.565 8.69973C186.562 8.27188 190.559 7.98665 194.413 7.55879C198.552 7.13094 202.692 6.84571 206.831 6.41785C207.688 6.27524 208.687 5.99 209.115 6.56047C209.543 6.98832 209.401 8.4145 209.543 8.98497C209.829 10.839 210.114 12.693 210.685 14.4044C211.114 15.688 213.683 15.4028 213.54 13.9766C213.255 11.2668 212.826 8.4145 212.255 5.70477C211.827 4.27859 211.256 3.5655 209.686 3.42289C206.974 3.13765 203.834 3.99336 201.122 4.27859C197.981 4.56383 194.698 4.99168 191.558 5.27691C186.419 5.84738 181.138 6.13262 176.142 7.84403C173.43 8.84235 168.148 11.2668 170.004 14.9749C170.432 15.8306 171.717 15.8306 171.859 14.9749Z" fill="black"/>
<path d="M244.092 21.5352C244.092 21.963 244.52 22.3909 244.949 22.5335C248.945 23.104 253.085 22.9614 257.082 23.5318C261.078 23.9597 265.075 24.8154 269.072 25.8137C271.213 26.3842 272.212 23.2466 269.928 22.6761C262.649 20.8221 253.941 19.1107 246.376 20.2516C245.948 16.9714 245.805 13.6912 245.52 10.411C245.234 7.13084 245.52 3.42278 244.235 0.285197C244.092 -0.142655 243.236 -0.285272 243.093 0.285197C242.237 3.42278 242.807 7.13084 243.093 10.411C243.378 14.1191 243.807 17.8271 244.092 21.5352Z" fill="black"/>
<path d="M138.886 133.633C135.746 139.195 129.322 137.768 125.183 134.346C124.326 133.633 122.899 134.06 122.613 135.059C119.188 144.757 112.907 152.886 102.63 155.596C91.924 158.448 81.7893 154.883 71.5119 152.173C71.0836 152.03 70.6554 152.601 71.0836 152.886C80.9328 158.591 93.7796 161.3 104.913 157.878C114.905 154.883 121.329 147.039 124.897 137.626C130.464 140.906 138.458 141.477 141.598 134.488C142.169 133.062 139.6 132.492 138.886 133.633Z" fill="black"/>
<path d="M340.58 107.248C340.437 105.68 337.439 105.394 337.297 106.963C336.297 115.805 330.159 123.649 320.738 124.22C320.025 124.22 318.883 124.933 319.026 125.789C320.596 133.347 321.309 143.188 311.746 145.185C302.896 147.039 294.046 144.044 286.766 139.052C285.767 138.339 284.482 138.624 284.054 139.765C280.628 147.894 268.78 149.748 261.929 145.042C261.072 144.471 259.502 145.327 260.501 146.183C268.495 152.886 280.057 150.176 285.909 142.332C293.475 148.037 304.466 150.461 313.601 148.037C323.736 145.327 324.164 135.629 322.594 127.072C332.158 125.646 341.008 117.232 340.58 107.248Z" fill="black"/>
<path d="M88.0724 9.41281C87.6442 8.98495 86.645 9.41281 87.0732 9.98328C95.495 20.1091 104.63 30.235 114.194 39.3625C114.908 40.0756 116.906 39.0772 116.05 38.2215L115.907 38.0789C118.048 36.938 119.618 34.7987 121.189 32.9447C123.33 30.3776 125.471 27.9531 127.612 25.386C129.61 22.9615 131.609 20.6796 133.607 18.2551C135.605 15.8306 138.175 13.4061 139.745 10.6964C140.316 9.41281 138.46 8.5571 137.604 9.41281C135.463 11.1242 133.75 13.5487 132.037 15.688C129.896 18.2551 127.897 20.6796 125.756 23.2467C123.758 25.6712 121.759 27.9531 119.904 30.3776C118.191 32.3742 115.907 34.5135 115.051 36.938C110.768 32.3742 106.201 28.0957 101.776 23.5319C97.2079 18.8256 92.6401 14.1192 88.0724 9.41281Z" fill="black"/>
<path d="M124.326 150.889C124.326 150.747 124.183 150.747 124.183 150.604C123.897 150.319 123.612 150.176 123.327 150.034C123.041 150.034 122.756 150.034 122.47 150.034C122.327 150.034 122.042 150.176 121.899 150.319C121.756 150.462 121.614 150.462 121.471 150.747C121.328 150.889 121.328 151.032 121.328 151.175C121.328 151.317 121.328 151.46 121.328 151.602C121.471 151.888 121.614 152.03 121.756 152.173C121.899 152.316 122.042 152.316 122.042 152.458C122.185 152.601 122.327 152.601 122.47 152.601C122.613 152.601 122.756 152.601 122.756 152.743C122.898 152.743 123.041 152.743 123.184 152.743C123.327 152.743 123.469 152.743 123.612 152.743C123.755 152.743 123.897 152.601 124.04 152.458C124.183 152.458 124.183 152.316 124.326 152.316C124.468 152.316 124.468 152.173 124.468 152.03C124.468 151.888 124.611 151.888 124.611 151.745C124.611 151.602 124.611 151.46 124.611 151.317C124.468 151.175 124.326 151.032 124.326 150.889Z" fill="black"/>
<path d="M125.045 144.471C123.475 144.471 123.475 146.468 125.045 146.468C126.615 146.468 126.615 144.471 125.045 144.471Z" fill="black"/>
<path d="M135.464 142.903C134.179 142.903 134.179 144.472 135.464 144.472C136.748 144.472 136.748 142.903 135.464 142.903Z" fill="black"/>
<path d="M333.017 141.619C331.59 139.908 330.162 138.196 328.735 136.485C328.021 135.629 326.166 136.342 326.879 137.341C328.164 139.195 329.449 140.906 330.733 142.76C331.875 144.329 333.017 146.325 334.73 147.466C335.444 147.894 337.014 147.609 336.728 146.468C335.872 144.757 334.159 143.188 333.017 141.619Z" fill="black"/>
<path d="M342.293 137.768C340.58 136.913 338.439 136.77 336.726 135.914C334.728 135.059 332.729 134.203 331.016 132.919C330.445 132.491 329.161 133.062 329.874 133.775C332.729 136.627 337.297 140.193 341.722 139.765C342.864 139.765 343.578 138.481 342.293 137.768Z" fill="black"/>
<path d="M352.855 124.79C349.857 124.79 346.86 125.789 343.862 126.359C340.294 126.93 336.725 127.5 333.157 128.07C332.015 128.213 332.3 129.782 333.442 129.782C336.868 129.782 340.294 129.497 343.577 128.926C346.86 128.498 350.428 128.07 353.426 126.644C354.568 126.074 353.854 124.79 352.855 124.79Z" fill="black"/>
<path d="M33.6843 84.8574C28.4029 84.8574 22.6932 86.141 17.4117 86.9967C11.702 87.8524 6.13511 88.8507 0.568174 89.9916C-0.573762 90.1343 -0.00279419 91.4178 0.996399 91.2752C6.56334 90.4195 11.9875 89.7064 17.5545 88.9933C22.9787 88.2802 28.8311 88.1376 33.9698 86.7114C35.2545 86.2836 34.969 84.8574 33.6843 84.8574Z" fill="black"/>
<path d="M2.71594 76.4429C12.8506 79.01 23.8417 80.2936 34.1192 79.5805C35.2611 79.4379 35.2611 78.1543 34.1192 78.1543C23.699 77.4412 13.5643 76.3003 3.2869 74.3036C1.85948 74.0184 1.00303 76.0151 2.71594 76.4429Z" fill="black"/>
<path d="M5.4249 58.9011C9.70716 62.4665 15.2741 64.891 20.2701 67.6008C22.8394 69.0269 25.4088 70.4531 27.8354 71.8793C30.262 73.1628 32.6886 74.8742 35.4007 75.3021C35.6862 75.3021 36.5426 75.0169 36.1144 74.589C34.5443 72.735 32.2604 71.594 30.1193 70.4531C27.5499 69.0269 25.1233 67.4581 22.5539 66.032C17.4152 63.1796 12.2765 59.3289 6.70958 57.4749C5.85312 57.0471 4.28296 58.0454 5.4249 58.9011Z" fill="black"/>
<path d="M37.68 70.881C38.1082 71.7367 40.1066 71.3089 39.6784 70.1679C37.68 65.4615 35.5389 60.6126 33.6832 55.9062C32.8268 53.6243 31.9703 51.1998 31.1139 48.7753C30.2574 46.2082 29.6865 43.4985 28.5445 41.2166C28.1163 40.2183 25.8324 40.0756 25.9752 41.5018C26.4034 46.4934 28.9727 51.9129 30.8284 56.6193C32.684 61.4683 34.9679 66.3173 37.68 70.881Z" fill="black"/>
<path d="M278.773 70.5956C283.341 57.9027 287.052 45.0671 291.335 32.2315C291.477 31.9463 291.477 31.661 291.62 31.2332C292.048 29.5218 289.194 29.0939 288.623 30.6627C284.34 43.6409 279.915 56.7617 276.632 70.0251C276.49 71.3087 278.488 71.7365 278.773 70.5956Z" fill="black"/>
<path d="M278.489 74.0185C278.061 75.0168 280.06 75.4447 280.488 74.7316C284.627 67.0302 288.91 59.3289 293.763 51.9128C296.047 48.3473 298.473 44.9245 300.9 41.5017C303.327 38.2215 306.895 34.9413 308.465 31.0906C309.036 29.8071 307.038 29.6645 306.324 30.0923C303.184 32.2316 300.9 36.2249 298.616 39.3624C296.047 42.9279 293.477 46.4933 291.193 50.2014C286.34 57.7601 281.915 65.6041 278.489 74.0185Z" fill="black"/>
<path d="M283.774 73.8758C282.489 75.0168 284.631 76.3003 285.63 75.4446C291.768 70.1678 298.048 65.0335 304.472 60.1845C311.181 55.1929 318.318 51.057 325.169 46.3506C327.025 45.0671 325.027 43.0704 323.314 43.9262C316.034 47.6342 309.325 52.6258 302.759 57.6174C296.193 62.609 289.769 68.0285 283.774 73.8758Z" fill="black"/>
<path d="M197.128 20.5369C196.557 18.6829 195.273 18.1124 193.702 17.8272C195.415 17.6846 197.128 17.542 198.841 17.3994C198.127 22.391 198.841 27.6678 198.841 32.802C198.698 39.0772 198.413 45.495 196.415 51.4849C194.416 57.047 190.99 62.3239 185.709 65.1762C183.996 66.0319 182.283 66.745 180.427 67.0302C189.991 63.1796 196.272 52.9111 197.985 43.0705C199.127 35.797 199.269 27.3826 197.128 20.5369ZM187.707 58.6158C183.996 62.7517 179.428 64.891 174.004 65.8893C173.861 65.8893 173.719 65.8893 173.719 66.0319C172.862 65.7467 172.148 65.6041 171.292 65.6041C168.58 65.3188 164.44 67.8859 166.867 71.0235C171.006 76.1577 179.856 75.7299 185.566 73.7332C189.42 72.4497 192.989 70.3104 195.844 67.4581C195.986 67.3155 196.129 67.3155 196.272 67.1728C203.552 61.4681 205.978 51.4849 207.12 42.7853C207.834 37.651 207.834 32.5168 207.548 27.24C207.406 24.3876 207.12 21.6779 206.692 18.9681C206.549 18.2551 206.549 17.2567 206.407 16.401C210.546 14.9749 208.119 9.27016 203.98 9.27016C198.984 9.12754 193.845 9.84063 188.849 10.4111C184.567 10.839 179.856 10.9816 176.002 13.1208C174.29 14.1192 174.004 16.5437 176.002 17.2567C176.716 17.542 177.573 17.6846 178.286 17.8272C178.286 18.1124 178.286 18.3977 178.429 18.6829C178.429 19.1108 179 19.2534 179.428 19.2534C182.854 19.2534 186.28 19.1108 189.706 19.5386C190.99 19.6812 193.845 19.5386 194.559 20.6796C195.13 21.5353 195.13 23.9598 195.273 25.1007C196.129 31.5185 196.557 37.9363 195.273 44.354C193.702 49.6309 191.276 54.6225 187.707 58.6158Z" fill="black"/>
<path d="M194.556 157.45C194.556 157.45 194.556 157.307 194.556 157.45C192.7 152.743 193.985 147.181 198.552 144.614C203.834 141.619 210.543 146.325 205.975 151.602C203.12 154.74 198.695 156.451 194.556 157.45ZM232.382 156.451C225.531 163.44 216.395 168.431 206.26 166.435C202.121 165.579 198.41 163.582 195.983 160.159C199.694 159.304 203.406 157.877 206.26 155.596C209.544 153.171 212.398 149.035 210.257 144.899C208.544 141.476 204.119 140.05 200.408 140.763C195.983 141.476 192.272 144.899 190.702 149.035C189.56 152.315 189.845 155.31 190.844 158.163C181.566 159.732 172.002 157.735 163.581 153.599C163.01 153.314 162.01 154.027 162.724 154.455C171.146 160.587 181.709 162.584 191.844 160.872C191.986 160.872 192.129 160.872 192.272 160.872C194.984 165.151 199.98 168.431 204.833 169.43C215.681 171.854 228.528 167.005 234.952 158.02C236.236 156.451 233.524 155.31 232.382 156.451Z" fill="black"/>
<path d="M174.289 34.0855C173.718 34.2281 173.29 34.5134 172.862 34.7986C172.434 35.0838 172.148 35.5117 172.006 35.9396C171.72 36.3674 171.577 36.7953 171.72 37.3657C171.72 37.651 171.863 37.9362 171.863 38.3641C172.148 38.9345 172.434 39.505 173.005 39.9328C173.29 40.0755 173.576 40.2181 173.861 40.5033C174.575 40.7885 175.289 40.9312 176.002 40.9312C176.573 40.9312 177.144 40.7885 177.715 40.6459C178.286 40.5033 178.714 40.2181 179.143 39.9328C179.571 39.6476 179.856 39.2198 179.999 38.7919C180.285 38.3641 180.427 37.9362 180.285 37.3657C180.285 37.0805 180.142 36.7953 180.142 36.3674C179.856 35.7969 179.571 35.2265 179 34.7986C178.714 34.656 178.429 34.5134 178.143 34.2281C177.43 33.9429 176.716 33.8003 176.002 33.8003C175.431 33.8003 174.86 33.8003 174.289 34.0855Z" fill="black"/>
<path d="M159.87 83.1459C162.725 85.713 164.866 89.9916 163.296 93.8422C162.296 96.1241 160.155 97.1224 158.014 97.9781C158.157 96.552 158.157 95.2684 158.3 93.8422C158.442 89.9916 159.013 85.8557 158.728 81.8624C159.013 82.2902 159.442 82.7181 159.87 83.1459ZM171.432 95.2684C173.287 89.5637 171.146 83.7164 167.15 79.4379C163.01 75.302 157.3 72.8775 151.448 72.7349C146.88 72.7349 139.029 74.5889 136.032 78.2969C135.604 78.5822 135.033 79.01 134.604 79.2953C133.891 79.8657 134.747 80.7214 135.461 80.5788C140.314 79.4379 145.596 78.1543 150.592 78.2969C151.305 78.4396 151.876 78.5822 152.59 78.8674C152.447 79.7231 152.304 80.5788 152.304 81.4345C151.448 85 151.305 88.708 151.02 92.2734C150.449 98.1208 150.021 103.968 149.592 109.815C149.164 115.377 148.736 120.94 148.45 126.359C148.165 131.065 146.595 138.054 148.593 142.332C148.593 142.475 148.593 142.617 148.593 142.76C148.593 144.899 151.162 145.327 152.733 144.471C153.589 144.329 154.303 143.901 154.731 143.045C157.3 138.767 156.444 132.634 156.729 127.643C157.015 121.795 157.3 115.948 157.586 110.243C157.729 108.674 157.729 107.106 157.871 105.394C163.296 103.825 169.291 101.686 171.432 95.2684Z" fill="black"/>
<path d="M202.262 91.8456C201.691 91.8456 201.262 91.8456 200.691 91.9883C200.691 90.7047 200.549 89.2785 200.406 87.995C200.406 86.1409 200.406 84.1443 200.263 82.2903C202.404 82.7181 204.545 83.7164 205.259 86.1409C205.687 87.5671 205.116 90.1342 203.689 91.4178C203.404 91.4178 202.833 91.5604 202.262 91.8456ZM213.395 91.1326C214.966 88.4228 215.394 84.8574 213.395 82.1476C211.54 79.4379 208.4 78.8674 205.402 78.1544C203.689 77.7265 201.405 77.2987 199.55 77.7265C198.836 77.2987 197.694 77.4413 197.408 78.1544C197.408 78.4396 197.266 78.5822 197.266 78.8674C196.837 78.8674 196.266 79.1527 196.124 79.5805C194.839 82.8607 195.267 86.2836 195.838 89.7064C195.695 91.703 195.695 93.8423 195.553 95.8389C195.125 102.114 193.269 108.96 194.268 115.092C194.696 117.802 199.835 118.8 200.406 115.663C200.406 115.378 200.549 115.092 200.549 114.95C201.262 112.953 200.977 110.529 200.977 108.389C200.977 105.822 200.977 103.255 200.977 100.545C202.975 104.824 205.116 109.102 207.115 113.238C210.112 119.371 212.825 125.646 215.965 131.493C217.535 134.488 223.816 133.347 222.245 129.782C219.391 123.364 216.108 117.232 213.11 110.956C210.826 106.25 208.685 101.544 206.258 96.9799C209.256 95.8389 211.825 94.1275 213.395 91.1326Z" fill="black"/>
<path d="M264.075 98.6912C264.646 97.4077 265.36 96.552 266.073 95.8389C269.071 98.1208 270.641 100.831 270.927 105.109C271.069 107.819 270.641 113.381 268.215 115.805C266.359 115.235 264.646 111.955 264.075 110.671C263.219 108.817 262.79 106.82 262.79 104.681C262.933 102.542 263.361 100.545 264.075 98.6912ZM262.219 96.552C262.362 96.552 262.362 96.552 262.505 96.4094C262.362 96.6946 262.219 96.9798 262.077 97.2651C260.507 100.403 260.221 104.253 260.935 107.676C261.648 110.814 263.219 114.522 265.931 116.661C265.788 116.661 265.502 116.661 265.217 116.661C259.793 115.948 259.365 107.961 260.078 103.825C260.506 101.544 261.077 98.9765 262.219 96.552ZM265.788 123.792C283.916 124.22 283.773 92.4161 267.644 88.5654C266.359 88.2802 264.931 88.8506 263.932 89.7064C263.504 89.5637 263.219 89.5637 262.79 89.5637C255.653 90.8473 252.941 101.116 252.513 107.248C252.37 109.388 252.656 111.527 253.227 113.666C253.369 114.664 253.655 115.805 254.226 116.804C255.082 118.515 256.367 119.941 258.08 120.94C260.078 122.651 262.648 123.649 265.788 123.792Z" fill="black"/>
<path d="M293.48 100.688C294.194 99.9749 294.907 99.2619 295.764 98.834C297.334 98.834 298.476 96.98 296.763 96.1243C291.339 93.2719 285.629 97.1226 282.631 101.686C279.634 106.25 277.921 111.67 281.204 116.661C284.202 121.082 289.626 123.222 294.907 122.509C296.335 122.223 297.762 121.795 299.047 121.225C304.186 120.369 308.753 117.374 309.039 112.24C309.324 107.962 302.615 108.247 300.902 110.814C300.046 112.097 299.618 112.668 298.19 113.238C297.334 113.524 294.479 113.809 293.623 113.524C291.91 112.668 291.481 108.817 291.481 107.248C291.624 104.539 292.623 102.685 293.48 100.688Z" fill="black"/>
<path d="M85.9291 38.6494C85.2154 38.079 84.0734 38.3642 83.6452 39.2199C80.7904 45.6377 77.7928 51.9128 74.7952 58.0454C75.2235 56.9045 75.5089 55.9061 75.9372 54.7652C76.6509 52.4833 77.3646 50.2014 78.0783 47.9196C78.6493 46.636 79.0775 45.2098 79.6484 43.9263C80.9331 40.5034 81.6468 36.938 82.646 33.5152C83.9307 34.9414 85.3581 36.2249 86.7855 37.5085C87.2138 38.079 87.7847 38.6494 88.213 39.3625C89.4976 40.9313 90.7823 42.5001 92.067 44.0689C90.0686 42.2149 88.0702 40.5035 85.9291 38.6494ZM62.6622 88.1377C63.2331 87.9951 63.6614 87.7098 63.9468 87.4246C65.517 85.4279 66.088 82.8608 66.8017 80.579C67.5154 78.5823 68.2291 76.443 68.9428 74.4464C70.6557 71.3088 72.3686 68.0286 73.9388 64.7484C77.7928 57.0471 81.3614 49.2031 85.3581 41.5018C90.0686 45.9229 94.9218 50.2014 99.6323 54.6226C102.773 57.4749 105.913 60.4699 109.053 63.3222C111.48 66.032 113.907 68.8843 116.333 71.7367C117.761 73.4481 121.044 73.4481 122.186 71.4514C130.607 57.7602 139.6 44.3541 149.307 31.5185C149.164 33.3726 148.878 35.084 148.736 36.7954C147.451 45.3524 145.452 53.9095 144.739 62.4665C144.596 63.7501 145.881 65.1763 147.023 65.6041C148.307 66.032 149.307 66.032 150.591 65.7467C151.448 65.6041 152.019 65.1763 152.447 64.7484C153.018 64.4632 153.446 63.8927 153.589 63.1796C155.587 48.49 157.157 33.6578 158.87 18.8256C159.013 17.2568 158.442 16.2585 157.443 15.688C157.443 15.5454 157.586 15.4028 157.728 15.2602C160.012 10.9816 153.446 7.84405 150.591 11.1243C143.454 19.1108 137.744 29.0941 131.607 37.9363C128.752 42.0722 125.754 46.0655 123.042 50.2014C117.761 45.6377 111.623 41.6444 106.341 37.3659C102.773 34.5135 99.2041 31.5185 95.7783 28.5236C92.638 25.8139 89.6404 22.8189 85.9291 20.9649C86.0718 19.8239 84.5017 19.2534 83.5025 19.6813C81.3614 19.1108 78.6493 19.8239 77.6501 22.1058C72.5114 35.084 67.6581 48.3474 62.9476 61.6108C60.6638 67.886 58.3799 74.1612 56.2388 80.579C54.6686 85.1427 55.0968 89.8491 61.092 88.9934C61.8057 88.8508 62.2339 88.5655 62.6622 88.1377Z" fill="black"/>
</g>
<defs>
<clipPath id="clip0_156_719">
<rect width="354" height="170" fill="white"/>
</clipPath>
</defs>
</svg>
