<svg width="297" height="129" viewBox="0 0 297 129" fill="none" xmlns="http://www.w3.org/2000/svg">
<path d="M0 8.23404C0 4.64485 245.181 0 245.181 0C245.181 0 237.984 42.0147 241.582 42.0147C245.181 42.0147 297 45.1817 297 45.1817L286.924 119.499L14.1543 129L0 8.23404Z" fill="black"/>
<g clip-path="url(#clip0_0_1)">
<path d="M50.704 52.7233C52.3725 51.6067 53.6058 50.0721 54.839 48.5375C55.4585 47.8775 55.8603 47.0084 56.4797 46.3484C56.8927 45.9083 57.3112 45.6828 57.7241 45.2428C57.925 44.8083 58.1259 44.3737 58.5445 44.1482C59.1639 43.4882 58.2879 42.4376 57.4397 42.4596C56.8036 42.4761 55.9554 42.4981 55.3249 42.7292C54.4823 42.9657 53.8629 43.6257 53.2379 44.0713C52.2055 45.1713 51.1731 46.2714 50.3528 47.366C48.7065 49.3406 46.6195 50.6827 44.0472 49.6762C41.4749 48.6697 40.3423 45.9085 40.694 43.1088C41.0402 40.0946 42.8818 37.4709 45.3817 35.6888C47.4632 34.1322 52.4965 31.855 53.8634 35.4687C54.544 37.1683 57.7135 36.6568 57.0273 34.7426C56.3411 32.8285 54.8122 31.1509 52.8816 30.3424C50.7389 29.5394 48.2 29.8199 46.1019 30.733C42.3241 32.3336 38.7917 35.2158 37.1956 39.1211C35.5995 43.0264 36.3636 47.9437 39.4101 50.8698C42.4622 54.0105 47.1549 54.962 50.704 52.7233Z" fill="white"/>
<path d="M66.7784 50.5891C67.6098 49.9235 67.5931 49.28 67.7773 48.2019C67.9727 47.5529 67.9504 46.6948 68.1402 45.8312C68.3133 44.3241 68.2743 42.8226 68.4474 41.3155C68.5759 38.0923 68.0739 35.1001 67.5719 32.1079C67.3209 30.6118 64.7653 30.2488 64.8098 31.9649C64.8822 34.7536 64.7481 37.7623 64.6139 40.771C64.4409 42.2781 64.4743 43.5651 64.3012 45.0722C64.1281 46.5793 63.5421 48.5265 64.2116 49.797C64.4459 50.6496 65.9525 51.4691 66.7784 50.5891Z" fill="white"/>
<path d="M79.6468 47.6793C79.6468 47.6793 79.6412 47.4648 79.6357 47.2503C79.6357 47.2503 79.6412 47.4648 79.6468 47.6793ZM77.1691 50.3195C78.0284 50.7265 78.8766 50.7045 79.9368 50.677C80.997 50.6495 82.0572 50.622 83.1174 50.5944C85.2378 50.5394 87.5703 50.4789 89.6907 50.4239C90.7509 50.3964 91.8111 50.3689 92.8602 49.9123C93.9037 49.2413 94.2999 48.1577 93.8424 46.8816C93.3905 45.8201 91.6775 45.2205 90.634 45.8916C90.4275 46.1116 89.797 46.3426 90.4331 46.3261C90.221 46.3316 90.2266 46.5461 90.221 46.3316C90.009 46.3371 89.797 46.3426 89.5849 46.3481C88.5247 46.3756 87.6766 46.3976 86.6163 46.4252C84.708 46.4747 82.5876 46.5297 80.6792 46.5792C80.2551 46.5902 80.0431 46.5957 79.619 46.6067C79.619 46.6067 79.619 46.6067 79.6134 46.3922C79.6023 45.9632 79.5911 45.5342 79.5744 44.8906C79.5466 43.8181 79.7308 42.74 79.703 41.6674C80.5567 41.8599 81.6225 42.0469 82.4762 42.2394C84.3957 42.6189 86.7338 42.7729 88.631 42.2944C89.4847 42.4869 90.093 41.3978 89.8643 40.7598C89.63 39.9072 88.9771 39.2802 88.1234 39.0877C87.0576 38.9007 86.215 39.1372 85.1548 39.1647C84.7308 39.1757 84.3067 39.1867 83.6705 39.2032L83.4585 39.2087C83.4585 39.2087 83.4585 39.2087 83.2465 39.2142C83.0344 39.2197 82.8224 39.2252 82.6103 39.2307C81.7622 39.2527 80.9084 39.0602 80.0547 38.8677C80.4231 36.7116 80.998 34.3354 82.661 33.0044C85.1498 30.7932 88.5981 32.8503 90.964 34.0768C91.6112 34.4894 92.6603 34.0328 92.8556 33.3838C93.263 32.7292 92.8167 31.8822 92.3815 31.4642C89.5637 29.176 86.1154 27.119 82.3265 28.2906C79.3801 29.2256 77.7562 32.0583 76.7628 34.66C76.3721 35.9581 75.9814 37.2562 75.8028 38.5488C75.8028 38.5488 75.8083 38.7633 75.5963 38.7688C75.6018 38.9833 75.3954 39.2033 75.6185 39.6268C75.4566 41.563 75.2947 43.4991 75.3392 45.2152C75.3948 47.3603 75.2329 49.2964 77.1691 50.3195Z" fill="white"/>
<path d="M118.414 45.3853C118.631 45.5943 118.843 45.5888 118.414 45.3853V45.3853ZM101.785 42.3822C101.83 44.0983 101.869 45.5999 102.55 47.2995C103.007 48.5756 105.351 48.9441 105.736 47.4315C106.121 45.9189 105.864 44.2083 105.613 42.7122C105.591 41.8542 105.357 41.0016 105.334 40.1436C107.728 42.4427 110.122 44.7418 112.928 46.6009C113.793 47.2224 114.441 47.6349 115.305 48.2565C116.17 48.878 117.035 49.4995 118.101 49.6865C120.88 50.4731 122.493 47.2113 120.328 45.5503C119.68 45.1377 118.832 45.1597 118.202 45.3908C117.984 45.1818 117.772 45.1873 117.554 44.9782C116.907 44.5657 116.477 44.3622 115.83 43.9497C114.748 43.1192 113.671 42.5031 112.588 41.6726C111.071 40.424 109.559 39.39 108.247 37.9214C112.008 35.6772 115.323 32.586 117.767 28.6587C118.789 27.1296 116.194 25.265 115.173 26.7941C112.505 30.2979 108.767 33.4001 104.788 35.4353C104.515 33.0811 104.247 30.9415 103.974 28.5873C103.723 27.0913 101.173 26.9428 101.212 28.4444C101.289 31.4475 101.373 34.6652 101.663 37.6629C101.495 39.3845 101.534 40.8861 101.785 42.3822Z" fill="white"/>
<path d="M135.801 36.7771C136.393 35.0444 137.202 33.5208 138.006 31.7827C138.474 33.4878 138.937 34.9784 139.618 36.678C138.558 36.7055 137.285 36.7385 135.801 36.7771ZM123.826 41.381C125.941 41.1114 128.273 41.0509 130.394 40.9959C129.618 43.8066 128.848 46.8318 128.502 49.8459C128.334 51.5676 131.331 52.5631 131.71 50.836C132.475 47.5963 133.446 44.1365 134.423 40.8913C136.755 40.8308 139.093 40.9848 141.214 40.9298C141.437 41.3533 141.66 41.7768 141.883 42.2003C142.329 43.0474 142.558 43.6854 143.005 44.5325C143.228 44.956 143.451 45.3795 143.456 45.594C143.674 45.8031 143.68 46.0176 143.897 46.2266C143.903 46.4411 143.908 46.6556 143.908 46.6556C144.193 49.4388 148.852 49.1032 148.138 46.1165C147.898 45.0495 147.234 43.9934 146.782 42.9318C146.33 41.8703 145.884 41.0232 145.432 39.9617C146.258 39.0816 145.583 37.5965 144.3 37.2005C142.933 33.5868 141.778 29.9676 140.835 26.3429C140.59 25.0613 138.218 23.6202 137.203 25.3638C135.177 29.0656 133.156 32.9818 131.778 37.0961C129.027 37.3822 126.064 37.6737 123.313 37.9597C120.992 38.4493 121.923 41.645 123.826 41.381Z" fill="white"/>
<path d="M172.267 43.5587C172.267 43.5587 172.049 43.3497 172.267 43.5587V43.5587ZM159.248 48.8337C159.884 48.8172 160.939 48.5751 161.129 47.7116C161.888 44.2574 162.653 41.0176 163.2 37.5689C164.522 39.4665 165.632 41.3696 166.955 43.2672C168.723 46.0119 172.205 49.3561 175.531 46.6939C178.02 44.4827 177.479 39.9889 177.189 36.9913C176.932 35.2807 176.67 33.3555 176.202 31.6504C175.967 30.7979 175.733 29.9453 175.281 28.8838C175.058 28.4602 174.829 27.8222 174.6 27.1842C174.584 26.5406 174.355 25.9026 173.92 25.4846C173.479 24.852 172.62 24.445 171.777 24.6815C170.722 24.9236 169.896 25.8036 170.136 26.8707C170.153 27.5142 170.599 28.3613 170.828 28.9993C171.057 29.6374 171.286 30.2754 171.52 31.1279C171.977 32.404 172.228 33.9001 172.479 35.3962C172.73 36.8923 172.981 38.3884 173.02 39.89C173.043 40.748 173.294 42.2441 172.68 43.1187L172.473 43.3387C172.473 43.3387 172.473 43.3387 172.479 43.5532C172.267 43.5587 171.832 43.1407 171.614 42.9317C170.526 41.8866 169.856 40.6161 169.187 39.3455C167.418 36.6008 165.65 33.8562 163.886 31.326C163.222 30.27 160.672 30.1215 160.287 31.6341C159.724 34.4393 159.165 37.459 158.39 40.2696C156.788 35.8034 155.812 30.8916 155.69 26.1723C155.645 24.4562 152.866 23.6696 152.704 25.6058C152.263 33.1302 153.948 40.8142 157.307 47.5961C157.535 48.2341 158.4 48.8557 159.248 48.8337Z" fill="white"/>
<path d="M189.35 47.8378C191.258 47.7883 193.161 47.5243 195.058 47.0457C196.743 46.5727 198.853 46.0886 200.103 45.1976C201.972 43.6465 200.415 40.8963 198.295 40.9513C197.659 40.9678 196.822 41.4189 196.839 42.0624C196.626 42.0679 196.208 42.2934 195.996 42.2989C195.365 42.5299 194.735 42.761 194.104 42.992C192.838 43.2395 191.571 43.487 190.304 43.7346C189.032 43.7676 187.765 44.0151 186.487 43.8336C186.063 43.8446 185.427 43.8611 184.998 43.6576C184.998 43.6576 184.992 43.4431 184.986 43.2286C184.953 41.9415 184.914 40.4399 185.093 39.1473C185.065 38.0748 185.037 37.0022 185.009 35.9296C186.918 35.8801 188.832 36.0451 190.528 36.0011C191.8 35.9681 192.86 35.9406 194.133 35.9075C195.405 35.8745 196.683 36.056 197.933 35.165C199.188 34.4884 198.29 32.5798 197.213 31.9638C195.924 31.3532 194.445 31.6063 193.173 31.6393C191.901 31.6723 190.841 31.6998 189.568 31.7328C188.084 31.7713 186.388 31.8154 184.909 32.0684C184.865 30.3523 184.826 28.8507 184.993 27.1291C186.466 26.6615 187.934 25.9795 189.619 25.5064C190.25 25.2754 190.886 25.2589 191.527 25.4569C191.739 25.4514 191.957 25.6604 192.381 25.6494C192.381 25.6494 192.381 25.6494 192.593 25.6439C192.811 25.8529 192.811 25.8529 192.816 26.0674C193.715 27.9761 196.449 27.0465 195.757 24.9178C194.853 22.7947 192.275 21.5737 189.943 21.6342C187.186 21.7057 184.893 23.2678 182.354 23.5484C181.506 23.5704 180.674 24.2359 180.702 25.3085C180.596 29.3898 180.702 33.4655 180.595 37.5468C180.472 40.9845 179.752 45.9403 183.82 47.3374C185.533 47.9369 187.653 47.8819 189.35 47.8378Z" fill="white"/>
<path d="M56.8179 83.9047C56.6225 84.5538 55.7911 85.2193 55.1661 85.6649C54.117 86.1214 52.8559 86.5834 51.5892 86.831C50.7466 87.0675 49.8984 87.0895 48.8382 87.117C48.5594 84.5483 48.4926 81.9742 48.2082 79.191C48.2026 78.9765 47.985 78.7675 47.9794 78.553C48.4035 78.542 48.6156 78.5365 49.0452 78.74C51.6008 79.103 54.8037 79.8785 56.3381 81.7706C56.9909 82.3976 57.2197 83.0357 56.8179 83.9047ZM55.574 76.8533C52.5664 75.4287 49.1571 74.8732 45.982 75.1703C43.4375 75.2363 39.4532 77.057 40.3849 80.2527C40.8535 81.9578 43.8277 82.0952 43.56 79.9556C43.5544 79.7411 43.5488 79.5266 43.7609 79.5211C44.1794 79.2956 44.5979 79.07 45.0164 78.8445C45.022 79.059 45.022 79.059 45.0276 79.2736C45.1278 83.1348 45.0103 86.787 45.3226 90.6428C45.3727 92.5734 45.4172 94.2895 45.4673 96.2201C45.5174 98.1507 45.3666 100.516 46.2537 101.995C46.7001 102.843 48.4187 103.657 49.027 102.567C50.0426 100.824 49.5629 98.6897 49.5128 96.7591C49.4683 95.043 49.2061 93.1179 49.1616 91.4018C50.2218 91.3743 51.2764 91.1322 52.3311 90.8902C53.8098 90.6372 55.0765 90.3897 56.5441 89.7076C59.0607 88.569 61.3431 86.5779 61.0531 83.5802C60.7576 80.368 58.3639 78.0689 55.574 76.8533Z" fill="white"/>
<path d="M72.3642 77.9203C72.1354 77.2822 73.4021 77.0347 73.8262 77.0237C74.6744 77.0017 75.5392 77.6232 76.1865 78.0357C77.481 78.8608 78.569 79.9058 78.396 81.4129C78.0554 84.6416 74.9137 86.2258 71.9674 87.1608C71.9006 84.5867 71.6218 82.018 71.3485 79.6639C72.1911 79.4274 72.8105 78.7673 72.3642 77.9203ZM84.0477 94.7897C82.742 93.5356 81.4419 92.4961 79.9243 91.2475C79.0594 90.626 78.1945 90.0045 77.1121 89.1739C78.5796 88.4919 79.8241 87.3863 80.8564 86.2862C82.7036 83.877 83.2562 80.6428 81.7051 78.1072C80.154 75.5715 77.1354 73.718 74.1556 73.366C71.8176 73.212 69.5297 74.9886 69.5854 77.1337C68.9492 77.1502 68.1122 77.6013 68.1345 78.4593C68.2291 82.1061 68.3237 85.7528 67.9943 89.4105C67.8323 91.3466 67.6648 93.0683 67.5029 95.0044C67.3409 96.9405 66.9614 98.6676 66.7994 100.604C66.6152 101.682 67.7033 102.727 68.769 102.914L68.9811 102.908C69.6228 103.106 70.4654 102.87 70.8728 102.215C71.2801 101.561 71.4755 100.912 71.2467 100.274C71.8049 97.254 72.1511 94.2398 72.0676 91.0221C72.2796 91.0166 72.4917 91.0111 72.7037 91.0056C73.5575 91.1981 74.6511 92.4577 75.2983 92.8702C76.3808 93.7007 77.6753 94.5258 78.7633 95.5708C79.8458 96.4013 80.7162 97.2374 81.5922 98.288C82.6803 99.333 83.7795 100.807 85.0684 101.418C86.787 102.232 88.0147 100.483 87.5517 98.9919C87.083 97.2868 85.1413 96.0493 84.0477 94.7897Z" fill="white"/>
<path d="M107.46 97.4021C105.976 97.4406 104.491 97.4792 103.007 97.5177C100.887 97.5727 98.7605 97.4132 96.417 97.0447C96.9974 94.8831 98.2196 92.9194 99.6593 91.1648C100.686 89.8502 101.931 88.7446 103.175 87.6391C104.419 86.5335 105.876 85.4224 106.903 84.1078C109.565 80.3895 103.789 78.6075 101.223 77.8155C98.0141 76.8254 94.6048 76.2699 91.0001 76.3635C88.8796 76.4185 89.3872 79.6252 91.3012 79.7902C93.6392 79.9442 95.9828 80.3127 98.1199 80.9012C99.1857 81.0882 100.257 81.4897 101.116 81.8967C101.546 82.1002 102.188 82.2982 102.617 82.5017C102.411 82.7217 102.204 82.9418 101.786 83.1673C101.166 83.8273 100.547 84.4874 99.7099 84.9384C98.2591 86.264 96.8082 87.5896 95.5693 88.9097C93.3037 91.5444 91.6908 94.8061 91.5678 98.2438C91.5957 99.3164 92.4717 100.367 93.5374 100.554C96.5227 101.12 99.2904 101.478 102.265 101.615C103.749 101.577 105.239 101.753 106.717 101.5C107.99 101.467 110.105 101.197 110.06 99.4812C110.869 97.9576 108.732 97.3691 107.46 97.4021Z" fill="white"/>
<path d="M129.052 79.2398C127.875 82.9195 126.691 86.3848 125.726 90.059C125.291 89.641 124.643 89.2285 124.208 88.8104C123.126 87.9799 122.25 86.9293 121.162 85.8843C119.192 83.5742 117.435 81.2585 116.09 78.5029C115.644 77.6558 114.784 77.2488 113.942 77.4853C113.099 77.7218 112.915 78.7999 113.149 79.6525C114.499 82.6226 116.268 85.3673 118.461 88.1009C119.554 89.3605 120.648 90.6201 121.736 91.6651C122.607 92.5012 123.695 93.5462 124.777 94.3768C124.001 97.1875 123.437 99.9926 123.086 102.792C122.712 104.734 125.931 106.153 126.947 104.409C127.354 103.755 127.756 102.886 127.946 102.022C127.94 101.808 127.935 101.593 127.929 101.379C128.487 98.359 129.046 95.3393 129.816 92.3141C130.776 88.4254 131.736 84.5366 132.914 80.8569C133.064 78.4917 129.845 77.0727 129.052 79.2398Z" fill="white"/>
<path d="M156.181 94.206C152.297 91.7309 148.832 89.0302 145.15 86.1206C148.252 83.0348 151.349 79.7346 154.234 76.4399C155.468 74.9053 152.873 73.0407 151.422 74.3663C148.526 77.232 145.63 80.0977 142.728 82.7489C142.661 80.1747 142.388 77.8206 141.897 75.2574C141.646 73.7613 139.09 73.3983 139.135 75.1144C139.246 79.4047 139.358 83.695 139.251 87.7762C139.095 89.9269 138.933 91.863 138.777 94.0136C138.62 96.1642 138.04 98.3259 137.883 100.477C137.71 101.984 139.435 103.012 140.696 102.55C142.169 102.083 142.766 100.564 142.096 99.2939C142.644 95.8452 142.761 92.193 142.884 88.7553C146.795 92.3029 151.332 95.4051 155.862 98.2927C156.939 98.9088 158.424 98.8702 159.026 97.5667C159.428 96.6976 159.4 95.625 158.736 94.569C158.301 94.1509 157.012 93.5404 156.181 94.206Z" fill="white"/>
<path d="M181.853 94.1838C180.168 94.6568 178.695 95.1244 177.01 95.5974C175.537 96.065 174.052 96.1035 172.791 96.5655C172.579 96.571 172.367 96.5765 172.367 96.5765C172.361 96.362 172.149 96.3675 172.144 96.153C171.703 95.5205 171.474 94.8824 171.246 94.2444C170.788 92.9683 170.543 91.6867 170.297 90.4051C170.057 89.3381 170.035 88.48 170.007 87.4075C171.285 87.589 172.557 87.556 173.835 87.7375C175.537 87.9079 177.245 88.293 178.712 87.6109C179.761 87.1544 179.934 85.6473 178.857 85.0312C177.998 84.6242 177.351 84.2117 176.285 84.0247C175.649 84.0412 174.795 83.8487 174.159 83.8652C172.669 83.6892 171.185 83.7277 169.695 83.5517C169.684 83.1227 169.673 82.6937 169.662 82.2646C169.372 79.267 168.875 76.4893 167.96 73.9371C167.285 72.4521 164.534 72.7381 165.008 74.6577C165.722 77.6444 165.8 80.6476 165.878 83.6508C163.964 83.4858 162.056 83.5353 160.142 83.3703C159.294 83.3923 158.457 83.8433 158.267 84.7069C158.289 85.565 158.948 86.4065 159.801 86.599C161.927 86.7585 163.847 87.138 165.973 87.2975C166.034 89.6571 166.302 91.7968 166.994 93.9254C167.92 96.9066 169.51 100.944 173.114 100.85C174.811 100.806 176.708 100.328 178.393 99.8547C180.29 99.3761 182.188 98.8976 184.079 98.2045C186.166 96.8624 184.169 93.4797 181.853 94.1838Z" fill="white"/>
<path d="M197.244 82.4074C197.853 81.3183 198.254 80.4492 198.863 79.3602C198.868 79.5747 198.868 79.5747 198.874 79.7892C198.902 80.8618 199.136 81.7143 199.164 82.7869C198.522 82.5889 197.88 82.3909 197.244 82.4074ZM204.682 91.0153C204.431 89.5193 204.185 88.2377 203.722 86.7471C204.554 86.0815 204.303 84.5854 203.438 83.9639C203.438 83.9639 203.226 83.9694 203.22 83.7549C202.702 80.1192 203.014 75.8179 200.398 73.0953C199.309 72.0502 197.608 71.8797 197.01 73.3978C195.598 76.225 194.399 79.0467 192.981 81.6594C191.067 81.4944 189.365 81.3239 187.457 81.3734C186.609 81.3954 185.772 81.8464 185.582 82.71C185.604 83.568 186.268 84.6241 187.328 84.5966C188.606 84.7781 189.884 84.9596 191.374 85.1356C190.972 86.0047 190.364 87.0937 189.962 87.9628C189.354 89.0519 188.751 90.3554 188.355 91.439C187.958 92.5226 187.35 93.6117 187.378 94.6842C187.428 96.6149 190.023 98.4794 191.457 96.5103C191.864 95.8558 191.635 95.2177 190.988 94.8052C190.983 94.5907 191.195 94.5852 191.189 94.3707C191.39 93.9362 191.591 93.5016 191.792 93.0671C192.194 92.198 192.808 91.3235 193.209 90.4544L195.838 85.4491C197.116 85.6306 198.181 85.8176 199.465 86.2136C199.677 86.2081 199.889 86.2026 200.107 86.4116C200.363 88.1222 200.837 90.0418 201.094 91.7524C201.568 93.672 201.836 95.8117 202.734 97.7203C202.74 97.9348 202.74 97.9348 202.957 98.1438C203.861 100.267 207.243 99.7499 206.964 97.1812C206.071 95.4871 205.162 93.1495 204.682 91.0153Z" fill="white"/>
<path d="M215.993 93.2979C215.77 92.8744 215.34 92.6709 214.916 92.6819C214.905 92.2529 214.888 91.6094 214.877 91.1803C214.833 89.4642 215 87.7426 214.956 86.0265C215.084 82.8033 215.001 79.5856 215.124 76.1479C217.049 76.7419 218.979 77.5504 220.703 78.579C222.863 80.0255 225.033 81.9011 225.106 84.6898C224.81 89.6346 220.424 92.3243 215.993 93.2979ZM211.837 72.1546C209.706 71.7806 209.784 74.7838 211.703 75.1633L211.915 75.1578C211.792 78.5956 211.664 81.8188 211.329 85.262C211.161 86.9836 211.206 88.6997 211.038 90.4213C210.871 92.1429 210.709 94.079 210.753 95.7951C210.586 97.5168 212.734 98.5343 213.984 97.6432C217.589 97.5497 221.383 96.5926 224.29 94.1559C226.991 91.9393 228.811 88.4575 228.716 84.8108C228.504 76.6593 218.65 73.0511 211.837 72.1546Z" fill="white"/>
<path d="M251.395 67.6935C249.006 73.7659 246.618 79.8383 244.441 85.9052C244.224 85.6962 244 85.2727 243.571 85.0692C242.918 84.4421 242.477 83.8096 241.824 83.1826C240.731 81.923 239.849 80.6579 238.755 79.3984C236.992 76.8682 235.43 73.9036 234.086 71.1479C233.639 70.3008 232.562 69.6848 231.725 70.1359C230.676 70.5924 230.486 71.4559 230.938 72.5175C232.082 75.7077 233.644 78.6724 235.631 81.626C236.512 82.8911 237.399 84.3707 238.493 85.6303C238.934 86.2628 239.586 86.8898 240.239 87.5169C240.898 88.3584 241.768 89.1945 242.627 89.6015C242.839 89.596 242.839 89.596 243.057 89.805C241.863 92.8412 240.886 96.0864 239.692 99.1226C239.072 99.7826 238.882 100.646 239.122 101.713C239.591 103.418 242.375 104.419 243.168 102.252C247.13 91.4165 250.875 80.3718 254.408 69.3326C254.777 67.1765 251.987 65.9609 251.395 67.6935Z" fill="white"/>
</g>
<defs>
<clipPath id="clip0_0_1">
<rect width="216.991" height="82.83" fill="white" transform="translate(36 25.6288) rotate(-1.48643)"/>
</clipPath>
</defs>
</svg>
