<svg width="335" height="126" viewBox="0 0 335 126" fill="none" xmlns="http://www.w3.org/2000/svg">
<g clip-path="url(#clip0_50_13188)">
<path d="M86.392 48.3253C87.6514 47.0602 88.6589 45.5422 89.6664 44.2771C88.9108 45.7952 87.9033 47.3132 86.392 48.3253ZM76.8206 49.0843C75.5612 48.3253 75.5612 46.0482 75.3093 44.5301C75.3093 44.2771 75.5612 44.2771 75.5612 44.0241C76.0649 45.7952 77.0724 47.5662 78.3318 49.0843C77.8281 49.3373 77.3243 49.3373 76.8206 49.0843ZM57.1739 30.3614C57.4258 30.1084 57.6777 29.8554 57.9296 29.8554C57.6777 30.3614 57.4258 30.6144 57.1739 31.1205C57.1739 30.8674 57.1739 30.6144 57.1739 30.3614ZM71.783 31.8795C71.2792 34.1566 71.2792 36.4337 71.0273 38.9638C69.7679 41.494 68.2567 44.2771 65.9897 45.7952C64.2266 46.5542 62.2115 46.5542 60.4484 46.0482C59.4409 45.2891 58.6852 44.2771 57.9296 43.265C57.6777 40.7349 57.4258 38.2048 57.9296 35.9277C58.1815 34.9156 58.4333 33.9036 58.9371 33.1446C59.9446 31.1205 61.4559 29.6024 63.4709 28.3373C66.9973 28.0843 70.2717 29.3494 71.783 31.8795ZM108.306 26.5662C109.061 26.0602 109.817 25.8072 110.572 25.5542C110.572 25.5542 110.824 25.5542 111.076 25.5542C110.824 26.0602 110.824 26.3132 110.572 26.8193C109.817 27.5783 109.061 28.5903 108.306 29.3494C106.29 31.3735 104.024 32.8915 101.757 34.4096C103.016 31.1205 105.031 28.5903 108.306 26.5662ZM122.411 48.3253C122.159 49.0843 121.655 49.8434 120.9 50.6024C118.633 52.1205 116.114 50.0964 114.351 48.5783C117.121 49.3373 119.892 49.3373 122.411 48.3253ZM94.4521 51.1084C94.4521 50.6024 94.4521 50.3494 94.4521 49.8434C95.2078 50.3494 95.9634 50.3494 96.7191 50.0964C96.2153 50.8554 95.9634 51.6144 95.7115 52.6265C95.7115 52.8795 95.7115 53.1325 95.9634 53.3855C95.7115 53.8916 95.7115 54.3976 95.4597 54.9036C94.2003 54.3976 94.4521 51.8675 94.4521 51.1084ZM27.2003 67.5542C28.4597 63 28.2078 58.4458 27.9559 53.6385C28.2078 53.3855 28.7115 53.1325 28.9634 52.8795C28.7115 57.9397 28.4597 63 27.2003 67.5542ZM11.5837 73.1205C12.0875 65.0241 20.1476 59.4578 26.1927 54.9036C26.4446 57.9397 26.4446 60.7229 25.9409 63.759C25.689 67.0482 24.6815 70.5903 22.6664 73.3735C20.3995 76.4096 16.8732 78.9398 13.095 77.6747C12.0875 76.4096 11.5837 74.8916 11.5837 73.1205ZM27.704 36.4337C27.9559 33.1446 28.4597 29.8554 28.7115 26.3132C28.7115 32.3855 28.7115 38.4578 28.7115 44.7831C28.7115 45.5422 28.7115 46.3012 28.7115 47.0602C28.2078 47.3132 27.9559 47.5662 27.4521 48.0723C27.4521 44.2771 27.4521 40.2289 27.704 36.4337ZM22.9183 14.1687C24.9333 14.4217 26.9484 14.4217 28.9634 14.6747C28.9634 16.9518 28.9634 18.9759 28.9634 21.253C28.7115 19.9879 28.4597 18.4699 27.704 17.4578C26.4446 15.6867 24.6815 14.6747 22.9183 14.1687ZM13.095 13.6626C11.08 13.6626 8.81304 13.6626 7.04988 12.9036C8.56116 12.9036 10.3243 13.1566 11.8356 13.4096C13.3469 13.4096 14.6063 13.6626 16.1176 13.6626C15.11 13.6626 14.1025 13.6626 13.095 13.6626ZM93.1927 44.7831C93.1927 46.0482 93.1927 47.0602 92.9409 48.3253C92.9409 50.3494 91.9333 56.9277 95.7115 56.6747C95.9634 56.6747 96.2153 56.4217 96.2153 56.1687C96.9709 54.6506 97.4747 52.8795 97.9785 51.3614C98.2303 51.1084 98.2303 50.6024 98.4822 50.3494C98.986 49.0843 99.4897 47.8193 99.7416 46.5542C100.245 45.0361 100.497 43.265 100.497 41.494C103.016 42.253 105.283 44.0241 107.55 45.5422C110.069 47.5662 112.587 50.0964 115.61 51.8675C117.877 53.1325 120.648 53.8915 122.663 51.6144C124.678 49.3373 124.426 46.0482 123.67 43.265C123.418 42.253 121.907 42.253 121.907 43.265C121.907 43.5181 121.907 43.7711 121.907 43.7711C121.403 43.5181 120.648 43.5181 119.892 43.7711C116.114 45.2891 112.587 43.265 109.565 41.2409C107.802 40.2289 106.039 38.9638 104.275 37.9518C106.29 36.6867 108.306 35.1687 110.321 33.3976C112.839 31.1205 116.869 27.3253 115.106 23.5301C113.091 18.9759 107.298 21.253 104.275 23.2771C101.001 25.3012 98.4822 28.5903 96.7191 32.1325C96.7191 23.0241 97.4747 13.6626 98.2303 4.55419C98.4822 2.02407 94.2003 0.75901 93.6965 3.79516C92.4371 14.1687 92.689 25.3012 88.6589 35.1687C87.1476 39.2168 84.6288 43.265 81.6063 46.3012C81.3544 46.5542 80.5988 47.3132 79.8431 47.8193L79.5912 47.5662C79.3394 47.3132 78.8356 47.3132 78.8356 47.5662C77.3243 46.0482 76.8206 43.7711 76.5687 41.494C77.3243 39.4699 77.5762 37.4458 77.3243 35.4217C77.3243 34.9156 77.0724 34.4096 77.0724 33.6506C77.5762 30.3614 78.08 27.0723 77.3243 23.7831C77.0724 23.0241 75.813 22.7711 75.5612 23.5301C74.8055 22.7711 73.5461 22.7711 73.2942 24.0361C73.0424 24.7952 72.7905 25.8072 72.5386 26.5662C71.2792 25.5542 69.516 24.5421 68.0048 24.0361C62.9672 22.265 56.6702 23.2771 52.6401 27.8313C52.1363 28.3373 52.1363 29.0964 52.1363 29.6024C45.8394 34.4096 39.5424 38.9638 33.2454 43.7711C33.2454 33.6506 33.2454 23.2771 33.2454 13.1566C33.2454 12.1446 32.4897 10.6265 31.2303 10.6265C23.1702 10.1205 15.11 9.61443 7.04988 9.10841C4.02733 9.10841 0.75289 9.10841 -0.00274887 12.6506C-0.506508 15.1807 1.00477 17.9638 2.51605 20.2409C3.77545 22.012 6.04236 20.494 5.28672 18.7229C5.5386 18.4699 5.5386 18.2168 5.28672 17.9638C3.77545 16.6988 3.77545 14.4217 4.78297 12.9036C7.55364 15.4337 12.0875 15.4337 15.8657 15.1807C18.1326 15.1807 20.6514 14.9277 22.9183 15.6867C25.689 16.6988 26.9484 18.9759 27.2003 21.759C27.4521 24.7952 26.6965 27.8313 26.4446 30.8674C25.9409 34.4096 25.689 37.9518 25.689 41.747C25.689 44.2771 25.689 46.5542 25.9409 49.0843C25.4371 49.3373 24.9333 49.8434 24.4296 50.3494C17.1251 55.6626 8.30928 61.9879 7.30176 71.6024C6.798 76.1566 8.56116 81.2169 13.3469 82.9879C17.3769 84.506 22.1627 82.9879 25.4371 80.2048C32.9935 73.6265 33.4972 62.494 33.4972 53.3855C33.4972 52.1205 33.4972 50.8554 33.4972 49.8434C39.7942 45.2891 45.8394 40.7349 52.1363 36.1807C51.8845 39.9759 52.6401 43.7711 54.907 46.8072C58.6852 51.8675 65.9897 52.6265 71.2792 49.3373C71.5311 49.0843 72.0348 48.8313 72.2867 48.5783C72.5386 49.3373 72.7905 49.8434 73.0424 50.6024C74.5536 52.8795 77.0724 54.1446 79.8431 53.3855C81.1025 53.1325 82.3619 52.3735 83.3694 51.6144C83.6213 51.6144 84.1251 51.6144 84.3769 51.6144C84.8807 51.6144 84.8807 51.1084 84.8807 50.8554C86.8957 50.6024 88.6589 49.5903 89.9183 47.8193C91.6815 45.7952 92.4371 43.012 93.1927 40.4819C92.9409 41.747 92.9409 43.265 93.1927 44.7831Z" fill="black"/>
<path d="M278.33 113.349C277.574 116.133 279.086 118.916 281.353 120.434C281.353 120.434 281.353 120.434 281.605 120.434C281.101 120.181 280.345 119.928 279.841 119.422C276.819 117.145 277.323 113.096 279.086 110.313C280.597 108.036 282.612 106.771 284.879 105.253C284.627 105.506 284.375 105.759 283.871 106.012C281.856 108.289 279.086 110.313 278.33 113.349ZM277.071 118.663C277.323 118.916 277.323 119.169 277.574 119.422C277.323 119.169 277.071 118.916 277.071 118.663ZM277.574 119.422C277.574 119.422 277.574 119.675 277.574 119.422C277.826 119.675 277.826 119.675 277.574 119.422ZM288.909 101.458C287.65 101.964 286.642 102.47 285.383 102.976C286.39 102.47 287.398 101.964 288.405 101.458C288.657 101.711 288.657 101.711 288.909 101.458ZM252.135 110.819C253.142 109.554 254.15 108.289 255.157 107.024C255.409 106.518 255.913 106.265 256.165 105.759C256.165 106.518 255.913 107.277 255.913 108.036C254.653 109.048 253.394 110.06 252.135 110.819ZM234.251 102.217C236.014 97.9157 240.044 95.6385 244.326 94.1205C246.845 93.1084 249.868 92.3494 252.638 92.3494C254.653 92.3494 256.417 93.1084 257.928 94.3735C250.12 92.6024 241.556 95.3855 236.014 101.458C235.511 102.217 235.007 102.723 234.503 103.482C234.251 103.482 234.251 103.735 233.999 103.988C233.999 103.988 233.999 104.241 233.747 104.241C233.747 103.482 233.999 102.723 234.251 102.217ZM243.319 112.843C242.059 113.855 240.296 114.867 238.785 114.108C237.526 113.349 236.77 111.578 237.022 110.06C237.274 108.036 238.281 106.012 239.793 104.494C242.311 101.458 245.838 99.6867 249.616 98.6747C251.631 98.1687 253.898 97.9156 255.913 98.1687C253.394 101.205 250.875 104.494 248.356 107.53C246.593 109.301 245.082 111.325 243.319 112.843ZM222.161 100.446C222.161 99.9397 222.413 99.6867 222.413 99.1807C223.924 93.3614 224.68 87.2891 225.687 81.4699C226.191 81.4699 226.695 81.4699 227.199 81.4699C226.191 84.759 225.687 88.5542 224.932 91.8434C224.176 96.1446 223.42 100.699 222.917 105C222.665 107.024 222.413 109.048 222.413 111.072C222.161 109.807 222.161 108.542 222.161 107.277C221.909 105 221.909 102.723 222.161 100.446ZM200.499 80.4578C203.522 79.9518 206.544 80.4578 209.567 80.7108C206.796 80.9638 203.018 81.7229 200.499 80.4578ZM223.168 114.867C223.168 114.614 222.917 114.108 222.917 114.108V113.855C223.168 114.108 223.168 114.361 223.42 114.614C223.42 114.867 223.168 114.867 223.168 114.867ZM172.793 110.566C173.296 109.301 173.8 108.289 174.556 107.024C174.052 108.542 173.8 110.06 173.8 111.578C173.8 111.831 173.8 112.337 173.8 112.843C173.296 113.855 172.793 114.867 172.289 115.626C172.037 114.108 172.289 112.084 172.793 110.566ZM176.067 119.675C176.067 119.928 176.067 119.928 176.067 119.675C176.067 119.928 176.067 119.928 176.067 119.675C175.815 119.928 176.067 119.928 176.067 119.675ZM178.838 111.325C179.09 109.554 179.593 108.036 179.593 107.53C180.853 103.988 183.12 100.446 186.646 98.9277C189.417 97.9156 192.691 97.6626 195.21 99.1807C193.699 102.47 191.935 105.506 189.668 108.542C188.157 110.313 186.646 112.084 185.135 113.602C183.875 114.867 182.112 116.639 180.097 116.892C179.09 116.892 178.586 116.133 178.586 114.867C178.838 114.361 178.838 114.108 179.09 113.602C179.341 112.843 179.341 112.084 178.838 111.325ZM165.74 118.41C165.74 118.157 165.488 118.157 165.488 117.904C165.74 117.904 165.74 118.157 165.992 118.157C166.999 118.663 168.259 118.916 169.266 118.663C168.007 119.169 166.244 119.169 165.74 118.41ZM152.894 115.626C151.383 116.639 149.62 118.157 147.856 118.41C147.101 118.41 146.345 118.157 145.59 117.904C152.39 115.12 157.176 109.807 161.206 103.988C159.695 108.289 156.672 112.337 152.894 115.626ZM128.462 93.6144C128.462 93.1084 128.714 92.6024 128.714 92.0964C128.965 91.3373 128.714 90.8313 129.973 90.8313C130.477 90.8313 131.232 91.0843 131.736 91.0843C132.996 91.3373 134.003 91.5903 135.262 91.8434C139.544 92.6024 143.826 93.3614 148.108 94.3735C147.856 94.3735 147.856 94.6265 147.605 94.6265C141.811 98.6747 134.255 96.1446 128.462 93.6144ZM92.9467 116.639C91.4354 113.602 92.9467 109.807 94.2061 107.024C94.4579 106.265 94.9617 105.759 95.2136 105C93.9542 107.783 93.1985 110.819 93.1985 113.855C93.1985 115.373 93.4504 116.892 93.9542 118.157C93.7023 117.904 93.4504 117.398 92.9467 116.639ZM111.334 92.3494C111.334 92.6024 111.082 93.1084 111.082 93.3614C108.059 93.1084 104.785 94.3735 102.518 95.8916C105.037 93.6144 108.059 91.5903 111.334 92.3494ZM117.631 96.1446C117.631 96.3976 117.883 96.9036 117.631 97.1566V97.4096C117.631 97.1566 117.379 96.9036 117.379 96.6506C117.379 96.6506 117.379 96.3976 117.631 96.1446ZM102.518 102.217C104.281 100.193 106.296 98.4217 109.067 97.6626C109.319 97.6626 109.571 97.6626 109.823 97.4096C109.067 100.193 108.059 102.723 107.052 105.506C105.793 108.542 104.785 111.831 102.77 114.361C102.014 115.373 99.4955 118.916 98.2361 116.892C96.9767 114.867 97.9842 111.325 98.488 109.301C99.4955 106.771 100.755 104.494 102.518 102.217ZM289.665 96.3976C284.375 97.4096 279.59 100.193 276.567 104.747C275.811 105.759 275.056 107.024 274.552 108.036C273.796 107.277 272.789 106.771 272.033 107.53C269.766 109.301 268.759 111.578 266.492 113.349C265.484 114.108 264.225 115.12 262.965 115.626C262.462 115.88 262.714 115.88 262.21 115.626C261.706 115.373 261.454 114.614 261.202 114.108C260.195 111.831 260.447 109.048 260.95 106.518C261.202 106.265 261.202 106.265 261.454 106.012C261.958 105.506 261.706 105 261.202 104.747C261.454 102.976 261.706 101.205 262.21 99.6867C264.477 100.193 265.232 97.1566 263.217 96.1446C263.217 96.1446 262.965 96.1446 262.965 95.8916C262.714 94.3735 260.699 93.3614 259.187 93.8675C258.18 92.3494 256.417 91.3373 254.653 90.8313C251.883 90.0723 249.112 90.3253 246.593 91.0843C241.808 92.3494 236.518 94.6265 233.496 98.9277C231.984 101.205 231.48 103.735 231.229 106.265C229.214 108.542 227.199 111.072 224.932 113.096C224.68 113.349 224.68 113.349 224.428 113.602C224.428 113.602 224.428 113.602 224.176 113.349C223.42 112.084 223.672 110.06 223.924 108.795C224.176 105.506 224.68 102.217 225.184 98.9277C225.687 95.6385 226.191 92.6024 226.695 89.3132C227.199 86.5301 227.954 83.747 228.458 80.9638C231.732 80.7108 235.007 80.4578 238.281 79.9518C240.548 79.6988 242.563 79.1928 244.83 78.9397C246.341 78.6867 247.601 78.4337 249.112 77.9277C250.875 77.6747 252.89 77.4217 254.653 77.1687C255.661 76.9156 255.409 75.6506 254.402 75.6506C253.646 75.6506 252.89 75.6506 252.386 75.9036C252.638 74.6385 251.127 73.3735 249.868 73.3735C247.601 73.3735 245.334 73.8795 243.067 74.3855C241.052 74.8916 239.037 75.1446 236.77 75.3976C232.236 75.9036 227.954 76.4096 223.42 76.4096C223.168 76.4096 222.665 76.4096 222.413 76.4096C218.383 76.4096 214.353 76.4096 210.323 76.1566C206.293 75.9036 202.262 75.6506 198.484 76.6626C198.484 76.4096 197.729 75.9036 197.729 76.4096C197.729 76.6626 197.729 76.6626 197.729 76.9156C195.965 77.6747 197.225 80.2048 198.988 80.4578C200.499 81.9759 203.27 82.4819 205.285 82.4819C209.819 82.4819 214.353 81.7229 218.887 81.2169C219.39 81.2169 220.146 81.2169 220.65 81.2169C219.39 87.0361 218.131 92.6024 217.627 98.6747C216.871 101.205 215.864 103.735 214.353 106.012C211.834 109.554 208.811 112.337 205.285 115.12C204.529 115.88 202.011 118.157 200.751 117.904C201.003 117.904 200.499 117.651 200.499 117.398C200.247 116.639 200.247 115.88 200.247 115.12C200.247 112.337 200.751 109.554 201.003 107.024C201.255 103.988 201.507 101.205 201.759 98.1687C202.011 96.1446 198.988 94.6265 197.729 95.8916C194.706 94.1205 191.18 93.6144 187.653 94.1205C183.371 94.8795 179.845 97.6626 177.83 101.458C175.311 103.988 173.296 106.771 172.037 109.807C171.029 112.337 171.029 115.12 171.785 117.398C171.533 117.651 171.029 118.157 170.526 118.41H170.274C170.526 118.157 170.777 118.157 171.029 117.651C171.533 117.145 170.777 116.639 170.274 116.892C168.762 117.651 166.747 116.892 165.992 115.373C165.992 114.867 166.244 114.361 166.244 113.855L166.747 108.289C166.999 106.012 167.251 103.735 167.503 101.711C167.755 100.193 168.007 98.6747 168.007 96.9036C168.007 93.8675 163.221 92.6024 162.969 95.8916C162.969 96.9036 162.717 97.9157 162.717 99.1807C158.183 106.265 152.894 113.602 145.086 116.892C144.582 116.386 144.078 116.133 143.574 115.626C142.315 114.361 140.804 113.096 139.293 112.084C143.323 107.277 147.353 102.47 151.383 97.6626C152.39 96.3976 151.635 94.8795 150.375 94.1205L150.627 93.8675C150.879 93.3614 150.627 92.6024 150.123 92.6024C145.086 91.5903 140.3 90.8313 135.262 89.8193C134.003 89.5663 132.492 89.3132 131.232 89.0602C130.477 89.0602 129.721 88.8072 128.965 89.0602C127.958 89.5663 127.706 91.3373 127.706 92.6024C126.447 92.3494 125.187 92.8554 124.935 94.3735C124.432 101.711 122.165 108.795 118.387 115.12C116.371 110.313 116.371 104.747 116.875 99.4337C117.127 99.4337 117.631 99.1807 117.883 98.9277C118.89 98.6747 119.646 97.9156 119.898 96.9036C120.15 95.8916 119.394 94.6265 118.638 94.1205C118.638 93.1084 118.638 92.0964 118.135 91.3373C119.646 82.9879 121.409 74.8916 119.898 66.5422C119.394 64.265 115.364 63.506 115.364 66.2891C115.364 74.6385 114.356 82.7349 112.341 90.5783C108.815 89.3132 105.037 91.3373 102.518 93.6144C98.2361 97.1566 95.2136 101.205 93.1985 105.253C91.4354 108.542 89.9241 112.843 91.1835 116.386C91.9391 118.663 93.7023 119.928 95.7173 120.434C96.473 121.193 97.2286 121.699 98.488 121.952C102.014 122.711 105.037 120.181 106.548 117.651C108.311 114.867 109.823 111.831 110.83 108.542C111.082 108.289 111.082 108.036 111.334 108.036C111.838 112.843 113.097 117.398 115.868 121.699C116.623 122.964 118.638 123.217 119.646 121.952C124.683 115.12 127.706 107.024 128.714 98.6747C132.744 100.193 137.277 101.458 141.559 101.458C139.041 104.494 136.27 107.783 133.751 110.819C133.499 110.819 133.247 110.819 132.744 110.819C128.714 111.325 125.943 116.133 128.462 119.675C129.469 120.94 131.232 121.193 132.24 119.928C133.499 118.41 134.759 117.145 135.766 115.626C137.277 116.386 138.537 117.904 139.544 118.916C141.308 120.687 143.574 122.458 146.093 122.964C148.864 123.47 151.383 122.711 153.65 121.193C156.168 119.675 158.183 117.904 159.947 115.626C159.947 118.157 160.45 120.687 162.717 122.458C165.488 124.482 169.266 124.482 172.289 122.964C173.044 122.458 173.8 121.952 174.304 121.446C176.319 122.205 178.334 122.458 180.349 121.952C181.356 121.952 182.112 121.699 183.12 121.446C184.631 120.687 185.89 119.928 187.15 118.916C189.165 117.398 190.928 115.88 192.439 114.108C193.195 113.096 193.95 112.084 194.706 111.072C194.454 112.337 194.454 113.855 194.454 115.12C194.454 117.145 194.706 119.422 196.217 121.193C197.729 123.217 200.499 123.976 202.766 123.217C205.033 122.458 207.3 120.434 209.063 118.916C211.078 117.398 213.093 115.626 214.605 113.602C215.36 112.843 216.116 111.831 216.871 110.819C216.871 111.325 217.123 111.831 217.123 112.337C217.375 114.614 217.879 117.398 219.894 119.169C222.161 121.193 224.932 120.687 226.947 118.916C228.962 117.398 230.725 115.626 232.236 113.855C232.488 114.867 232.992 115.626 233.747 116.639C235.511 118.663 238.029 119.928 240.8 119.675C242.563 119.422 244.074 118.663 245.586 117.651C247.853 116.386 249.868 114.614 252.135 113.349C253.142 112.59 254.402 111.831 255.409 111.072C255.409 113.855 256.165 116.639 257.928 118.916C259.187 120.434 260.95 121.446 262.965 121.446C264.98 121.193 266.744 119.928 268.255 118.916C269.262 118.157 270.27 117.398 271.277 116.386C271.026 117.904 271.277 119.675 272.033 120.94C274.3 124.988 279.338 127.012 283.871 126.506C286.894 126 289.413 124.735 291.68 122.711C292.687 121.699 293.947 120.687 294.702 119.675C295.71 118.41 296.969 117.145 296.969 115.626C297.221 114.108 295.458 113.096 294.199 113.602C292.184 114.108 290.924 116.386 289.413 117.651C288.153 118.916 286.642 120.181 284.879 120.94C283.368 120.687 281.605 120.181 280.597 118.916C277.826 116.133 279.59 112.59 281.856 110.313C284.879 107.277 288.909 103.482 293.443 102.217C294.954 101.964 296.214 102.217 297.473 102.723C297.725 102.723 297.977 102.723 297.977 102.723C298.48 103.482 299.488 103.988 300.496 103.482C301.503 103.229 302.007 101.964 301.503 100.952C300.244 95.3855 294.199 95.3855 289.665 96.3976Z" fill="black"/>
<path d="M291.927 86.0241C290.919 86.5301 289.408 87.2891 288.149 86.5301C288.149 86.5301 287.897 86.5301 287.897 86.2771C289.912 85.518 292.179 85.012 294.194 84.506C293.69 85.012 292.934 85.518 291.927 86.0241ZM308.299 79.9518C307.291 79.1927 306.284 79.1927 305.276 79.4458C304.773 79.4458 304.269 79.4458 303.765 79.4458C301.75 79.4458 299.735 79.6988 297.972 79.9518C294.194 80.4578 290.919 81.7229 287.393 83.2409C287.645 82.4819 286.889 81.9759 286.385 82.4819C286.133 82.9879 285.882 83.4939 285.882 84C284.622 84.759 285.378 86.7831 286.637 86.7831C286.889 87.0361 287.141 87.2891 287.393 87.5421C289.408 89.3132 291.675 87.7952 293.69 86.7831C295.705 85.7711 297.468 84.759 299.483 84C300.994 83.747 302.506 83.747 304.017 83.747C305.024 83.747 305.78 83.747 306.788 83.747C307.795 83.747 309.055 84 309.81 83.2409C310.566 82.7349 310.566 81.7229 310.062 80.9638C309.81 80.4578 309.055 80.2048 308.299 79.9518Z" fill="black"/>
<path d="M164.729 83.241H164.981H164.729ZM163.217 77.4217C162.966 77.4217 162.462 77.1687 162.21 77.4217C161.706 77.6747 161.706 77.9277 161.454 78.1807C161.454 78.4338 161.202 78.4338 161.202 78.6868C160.699 79.4458 160.699 80.2048 160.447 80.9639C160.195 81.7229 160.195 82.482 160.447 82.988C160.699 84.506 161.706 86.0241 163.217 86.5301C164.225 86.7832 164.981 87.0362 165.988 86.7832C166.744 86.5301 167.247 86.0241 167.751 85.5181C168.759 84.253 169.011 82.735 168.255 81.2169C167.751 80.2048 166.996 79.4458 165.988 79.1928C165.484 78.9398 164.981 78.9398 164.477 78.9398C164.477 78.1808 163.973 77.6747 163.217 77.4217Z" fill="black"/>
<path d="M335.001 86.5301C335.001 86.0241 334.749 85.5181 334.749 85.2651C334.497 84.506 333.742 83.494 332.986 82.988C331.979 82.4819 330.971 81.9759 329.964 82.2289C329.208 82.2289 328.704 82.4819 328.2 82.7349C327.697 82.988 327.445 83.241 327.193 83.494C326.689 84 326.437 84.506 326.437 85.2651C325.933 85.7711 325.43 86.5301 325.43 87.2892C325.43 88.3012 325.682 89.0602 326.437 89.8193C327.193 90.5783 327.948 90.8313 328.704 91.0843C329.712 91.3374 331.223 91.3374 332.23 90.8313C332.986 90.5783 333.49 90.0723 333.994 89.5663C334.245 89.0603 334.749 88.5542 334.749 88.0482C335.001 87.7952 335.253 87.2892 335.001 86.5301Z" fill="black"/>
<path d="M329.713 114.867C329.209 113.602 327.95 112.843 326.69 112.337C325.431 112.084 324.423 112.337 323.416 112.843C321.653 113.855 320.897 116.133 320.897 118.157C320.897 118.41 320.897 118.916 321.149 119.169C320.897 119.675 320.645 120.434 320.393 120.94C320.142 121.446 320.393 122.205 320.645 122.711C320.897 123.217 321.401 123.723 322.157 123.723C322.912 123.976 323.668 123.976 324.423 123.976C325.179 123.976 325.935 123.723 326.439 123.723C327.95 123.217 329.209 122.205 329.965 120.687C330.217 120.181 330.217 119.422 330.217 118.916C330.217 117.651 330.217 116.133 329.713 114.867Z" fill="black"/>
<path d="M289.157 46.5542C289.157 46.8073 289.157 46.8073 289.157 46.5542V46.5542ZM305.277 27.8313C303.01 31.1205 300.743 34.4097 297.972 37.4458C296.461 39.2169 294.95 40.988 293.187 42.506C292.431 43.2651 291.423 43.7711 290.668 44.2771C290.164 43.7711 289.912 43.2651 289.912 42.506C289.912 39.2169 292.179 35.4217 293.942 32.8916C294.698 31.8795 295.705 30.6145 296.965 29.6024C299.484 28.0844 302.254 27.3253 305.277 27.8313ZM270.769 27.5783C271.021 27.0723 271.273 26.8193 271.525 26.5663C272.533 26.0603 273.288 27.8313 273.792 29.3494C273.036 27.8313 272.281 27.0723 270.769 27.5783ZM253.893 32.6386C253.138 35.1687 252.13 37.9518 251.626 40.735C251.626 40.735 251.626 40.735 251.626 40.482C251.375 40.2289 251.123 39.7229 250.871 39.7229C251.375 37.6988 252.13 35.4217 252.886 33.3976C253.642 31.3735 254.397 29.3494 255.405 27.5783C254.901 29.3494 254.397 31.1205 253.893 32.6386ZM218.882 48.8313C217.875 48.5783 217.875 47.8193 218.126 47.0603C218.882 45.0362 220.393 43.2651 221.653 41.494C222.912 39.4699 224.423 37.4458 225.935 35.4217C227.698 32.8916 229.461 30.6145 231.476 28.0844C231.98 28.0844 232.484 28.0844 232.987 28.3374C230.72 31.8795 228.202 35.1687 225.935 38.7109C224.675 40.482 223.416 42.253 221.905 43.7711C221.149 44.5301 220.393 45.2892 219.89 46.5542C219.638 47.5663 219.89 48.3253 220.645 49.0844H220.393C219.89 48.8313 219.386 49.0844 218.882 48.8313ZM226.187 46.5542C225.935 46.8073 225.683 46.8073 225.179 47.0603C225.683 46.8073 225.935 46.8073 226.187 46.5542ZM245.581 44.2771C245.581 44.5301 245.33 44.7832 245.078 44.7832C245.33 44.5301 245.329 44.5301 245.581 44.2771ZM246.337 43.5181C246.337 43.5181 246.085 43.5181 246.337 43.5181C246.337 43.0121 246.589 42.7591 246.841 42.506C246.841 42.7591 246.841 42.7591 246.841 43.0121C246.589 43.0121 246.337 43.2651 246.337 43.5181ZM202.006 44.0241L201.754 43.7711C202.258 44.2771 203.014 44.7832 203.517 45.2892C203.769 45.5422 204.273 45.5422 204.525 45.7952C203.769 45.5422 203.014 45.0362 202.006 44.0241ZM200.747 33.3976C200.747 32.3856 200.999 31.3735 201.251 30.3615C201.502 30.1085 202.006 29.8554 202.006 29.3494C202.258 28.5904 202.762 27.8313 203.266 27.3253C203.266 27.5783 203.266 27.5783 203.266 27.8313C203.266 28.8434 204.777 29.0964 205.029 28.0844C205.281 26.8193 206.288 26.0603 207.548 26.0603C208.555 26.3133 209.563 26.5663 210.318 27.3253C210.822 27.8313 211.074 28.0844 211.326 28.5904C212.585 31.3735 211.578 35.1687 210.822 37.9518C210.318 39.7229 209.814 41.494 208.555 43.0121C207.296 44.5301 205.281 44.5301 203.769 43.2651C200.747 41.241 200.495 36.4338 200.747 33.3976ZM143.318 33.3976C144.829 31.8795 146.593 30.3615 148.104 28.8434C147.096 30.6145 146.089 32.3856 145.081 34.1566H144.829C144.074 34.1566 143.57 33.9036 143.318 33.3976ZM326.435 42.253C327.19 41.494 327.946 40.735 328.198 39.7229C328.954 38.2048 326.939 36.6868 325.679 37.1928C322.908 38.2048 320.642 40.735 318.375 42.506C317.871 43.0121 317.367 43.5181 316.611 44.0241C316.611 44.0241 316.36 44.2771 316.108 44.2771C315.856 44.0241 315.352 43.5181 315.1 43.2651C314.596 42.7591 314.345 42 313.841 41.494C311.07 37.1928 310.063 32.1326 310.566 27.0723C310.818 25.3012 308.048 23.5301 306.788 24.5422C303.262 23.0241 298.728 23.2771 295.202 24.7952C290.668 26.8193 287.645 30.6145 285.882 34.9157C285.126 36.9398 284.623 39.2169 284.371 41.494C282.608 41.747 281.348 42.7591 279.837 44.0241C279.585 44.2771 279.333 44.5301 278.829 44.5301H278.578C278.578 44.2771 278.578 44.0241 278.578 43.7711C278.578 43.2651 278.326 42.506 278.326 42C278.326 37.6988 279.333 33.3976 278.074 29.0964C277.066 25.5542 274.044 20.747 269.762 21.7591C267.747 22.2651 266.487 24.0362 265.732 25.8073C264.976 27.5783 264.22 29.0964 263.465 30.8675C263.717 28.8434 263.465 26.8193 262.457 25.3012C261.954 24.5422 261.198 23.7832 260.442 23.2771C259.939 22.5181 259.435 22.0121 258.679 21.7591C257.42 21 256.412 21 255.405 21.253C255.153 21 254.649 20.747 254.397 21.253C254.145 21.506 253.893 22.0121 253.642 22.2651C251.878 24.0362 250.619 27.0723 249.863 28.8434C249.863 28.8434 249.863 28.8434 249.863 29.0964C249.108 30.6145 248.352 31.8795 247.596 33.3976C246.589 35.4217 245.581 37.6988 244.826 39.7229C244.574 40.482 244.574 40.988 244.574 41.494C243.566 43.0121 242.559 44.2771 241.551 45.7952C241.299 45.7952 241.048 45.7952 241.048 45.7952C240.04 45.5422 239.033 45.2892 238.277 45.2892C238.025 45.2892 238.025 45.2892 237.773 45.2892C236.766 44.7832 235.506 44.2771 234.499 43.7711C232.736 42.7591 230.972 42 228.957 41.747C232.736 36.9398 236.262 32.1326 239.536 27.0723C240.544 25.5542 239.284 23.2771 237.269 23.5301C236.262 23.5301 235.254 23.5301 233.995 23.5301C234.247 23.0241 233.491 22.2651 232.987 22.7711C232.736 23.0241 232.736 23.2771 232.484 23.5301C231.224 23.5301 229.965 23.2771 228.705 23.2771C226.187 23.0241 223.668 22.0121 220.897 21.506C218.63 21.253 216.363 21.506 214.852 23.2771C214.348 23.7832 214.096 24.5422 214.096 25.3012C212.837 23.7832 211.326 22.2651 209.311 21.506C205.029 19.735 199.487 21.506 197.472 25.5542C196.969 25.5542 196.465 26.0603 196.213 26.8193C194.198 32.6386 192.435 38.7109 190.168 44.5301C189.916 45.5422 189.412 46.8073 188.405 47.3133C187.901 47.5663 187.397 47.8193 187.145 47.3133C186.642 46.3012 186.893 45.0362 187.145 43.7711C187.145 42.253 187.397 40.482 187.397 38.7109C187.649 35.6747 187.901 32.3856 187.901 29.3494C187.901 26.8193 186.893 24.0362 184.123 23.5301C179.337 22.5181 175.811 27.8313 174.299 31.6265C173.796 32.6386 173.544 33.9036 173.04 34.9157C173.04 33.6506 173.04 32.1326 172.788 30.8675C172.536 27.0723 170.521 21.7591 165.736 23.0241C163.72 23.5301 162.209 25.5542 160.95 27.3253C159.439 29.3494 158.431 31.6265 157.423 33.9036C157.423 34.1566 157.172 34.1567 157.172 34.4097C157.172 30.3615 157.423 26.3133 157.675 22.0121C157.675 21.253 157.423 20.494 156.668 19.988C156.668 19.4819 156.668 18.7229 156.668 18.2169C156.668 17.4579 155.912 16.9518 155.157 17.7109C151.126 21.7591 147.096 25.8072 143.066 30.1085C143.57 30.6145 143.318 30.3615 143.318 30.3615C142.059 30.6145 141.555 31.8795 141.807 33.1446C141.555 33.3976 141.303 33.6506 141.303 33.9036C140.799 34.4097 141.807 35.1687 142.059 34.6627L142.311 34.4097C142.814 35.1687 143.57 35.4217 144.578 35.6747C144.578 36.9398 146.593 37.6988 147.348 36.6868C148.86 34.4097 150.371 32.3856 152.134 30.1085C152.638 29.6024 153.142 29.0964 153.393 28.3374C153.142 34.4097 153.142 40.735 153.645 46.8073C153.645 47.3133 153.393 47.8193 153.393 48.5783C153.393 48.8314 153.645 49.0844 153.897 49.3374C154.149 51.1085 157.675 52.3735 158.431 50.0964C160.194 43.0121 161.705 34.6627 166.995 29.0964C167.247 28.5904 167.751 28.0844 168.506 28.0844C168.506 28.3374 168.758 28.3374 168.758 28.5904C169.262 30.1085 169.262 31.8795 169.262 33.6506L169.766 47.3133C169.766 48.3253 170.269 49.3374 171.277 49.5904C172.033 49.8434 173.292 49.8434 173.796 49.0844C176.063 45.0362 176.818 40.735 178.33 36.4338C179.085 34.4097 179.841 32.3856 181.1 30.8675C181.604 30.1085 182.36 29.3494 183.367 28.8434C183.619 28.8434 183.871 28.5904 184.123 28.5904C184.123 28.8434 184.123 29.3494 184.123 29.3494C184.123 32.6386 183.871 35.9277 183.619 38.9639C183.367 41.747 183.115 44.7832 183.367 47.5663C183.871 50.0964 185.634 52.3735 188.153 52.6265C190.923 52.8795 193.19 51.1085 194.198 49.0844C195.205 47.3133 195.961 45.0362 196.465 43.0121C196.717 43.7711 196.969 44.2771 197.472 44.7832C200.243 49.3374 205.784 51.8675 210.57 48.5783C212.837 47.0603 214.348 44.7832 215.356 42.506C216.615 39.9759 217.623 37.1928 217.623 34.4097C217.623 33.3976 217.623 32.3856 217.371 31.3735V31.1205C217.371 30.6145 217.623 30.1085 217.875 29.6024C217.875 29.3494 218.126 29.0964 218.126 28.8434V28.5904C218.378 27.8313 218.63 27.3253 219.134 26.8193C219.386 26.3133 219.89 26.0603 220.393 25.5542H220.645C222.66 25.5542 224.423 26.5663 226.439 27.0723C227.698 27.3253 228.957 27.5783 230.217 27.8313C226.187 32.8916 222.408 37.9518 218.882 43.5181C217.623 45.2892 215.104 49.3374 218.882 50.3494C222.157 51.3615 225.431 48.8313 228.454 47.8193C229.461 47.5663 230.469 47.3133 231.224 47.0603C233.995 48.0723 236.514 49.8434 239.536 50.6024C242.559 51.3615 246.085 50.6024 248.604 48.8313C250.115 47.5663 251.626 46.0482 252.13 44.0241C252.382 44.2771 252.886 44.2771 252.886 43.7711C253.893 40.2289 254.397 36.6868 255.405 33.1446C256.16 30.6145 257.168 28.3374 257.923 25.8073C261.45 32.6386 259.687 40.988 258.427 48.3253C257.923 50.6024 262.205 52.1205 262.961 49.5904C263.969 45.7952 264.976 42.253 266.487 38.4579C267.747 35.9277 268.754 33.3976 270.266 30.8675C270.517 30.3615 271.021 29.0964 271.525 28.8434C272.533 28.3374 273.036 29.6024 273.288 30.3615C273.792 31.8795 274.296 33.6506 274.548 35.1687C274.548 35.4217 274.799 35.9277 274.799 36.1807C274.548 39.4699 274.044 42.7591 275.051 45.7952C276.059 48.3253 278.578 49.5904 281.096 48.8313C282.356 48.5783 283.363 47.8193 284.119 47.0603C284.371 46.8073 284.623 46.5542 284.875 46.3012C285.126 47.3133 285.63 48.3253 286.386 49.0844C288.653 50.6024 291.675 48.8313 293.69 47.5663C295.957 46.3012 297.72 44.5301 299.484 42.506C300.995 40.988 302.506 39.2169 303.766 37.4458C304.773 36.4338 305.781 35.6747 307.04 34.6627C307.544 37.1928 308.551 39.7229 309.811 42C309.811 42 309.811 42.253 310.063 42.253L310.314 42.506C310.566 43.0121 310.818 43.2651 311.07 43.5181C311.322 43.7711 311.574 44.2771 311.826 44.5301C313.841 47.3133 316.863 49.8434 320.138 47.0603C320.39 46.8073 320.39 46.8073 320.642 46.5542C323.16 47.0603 325.679 45.0362 326.435 42.253Z" fill="black"/>
<path d="M231.984 4.3012C231.984 5.31325 231.229 6.3253 230.221 6.57831C229.969 6.57831 229.717 6.83132 229.466 6.83132C229.214 6.83132 228.962 6.83132 228.71 6.83132C229.466 6.83132 229.466 5.56626 228.71 5.31325C228.206 5.06024 227.702 4.55422 227.702 4.04819C227.702 3.54217 227.954 2.78313 228.458 2.53012C228.71 2.27711 228.71 2.27711 228.962 2.27711C229.214 2.27711 229.466 2.27711 229.717 2.27711C230.473 2.53012 231.229 3.03614 231.732 3.54217C231.732 3.54217 231.984 4.04819 231.984 4.3012ZM227.702 10.3735C229.466 10.8795 231.481 10.6265 232.992 9.36144C234.503 8.09638 235.259 6.07229 234.503 4.04819C233.999 3.03614 233.244 2.0241 232.488 1.51807C232.236 1.26506 231.732 1.01205 231.481 0.759035C229.969 -7.30157e-07 228.458 -7.30157e-07 226.947 0.759035C226.695 0.759035 226.695 1.01205 226.695 1.01205C226.443 1.01205 226.443 1.01205 226.191 1.01205C222.917 3.54217 223.924 9.10843 227.702 10.3735Z" fill="black"/>
</g>
<defs>
<clipPath id="clip0_50_13188">
<rect width="335" height="126" fill="white"/>
</clipPath>
</defs>
</svg>
