<svg width="281" height="330" viewBox="0 0 281 330" fill="none" xmlns="http://www.w3.org/2000/svg">
<path d="M6.80403 121.115L16.2693 328.093L278.635 309.739L269.169 105.851L264.437 1.90747L2.36719 19.1707L7.5435 138.742" stroke="black" stroke-width="3" stroke-miterlimit="10"/>
<g clip-path="url(#clip0_0_1)">
<path d="M35.7535 60.337C36.507 57.879 36.1092 55.0383 35.9099 52.6601C35.7506 50.7575 35.5779 48.6963 35.101 46.8203C36.9931 46.5021 38.7264 46.1973 40.2744 45.5886C41.8357 45.1385 41.0545 43.4477 39.6254 43.5674C37.7068 43.5684 35.8279 44.0451 33.9358 44.3633C32.5201 44.6415 30.8 45.1049 29.3577 45.0661C29.3577 45.0661 29.3577 45.0661 29.1989 45.0794L29.0401 45.0927C28.5505 44.974 27.9154 45.0272 27.7964 45.5162C26.9633 47.0229 29.054 47.1671 30.1787 47.2326C31.1314 47.1528 32.2429 47.0597 33.3544 46.9666C33.2095 49.0543 33.3954 51.2741 33.568 53.3352C33.7673 55.7135 33.4901 58.1317 34.1524 60.3115C34.3776 61.0909 35.6346 60.826 35.7535 60.337Z" fill="black"/>
<path d="M54.8153 41.6565C54.709 40.3881 52.4994 40.7328 52.4335 41.856C52.3158 46.1768 52.198 50.4975 52.2523 54.9636C50.9676 51.0796 49.8549 47.3409 48.729 43.4436C48.4905 42.5056 46.7572 42.8104 46.506 43.6298C46.0834 46.2198 45.6608 48.8098 45.2381 51.3998C44.9327 47.7531 44.6405 44.265 44.0175 40.6449C43.9511 39.8522 42.522 39.9719 42.4297 40.7779C42.2201 47.8207 42.831 55.114 43.4286 62.2488C43.5216 63.3587 45.599 63.3444 45.8236 62.2079C46.5765 57.8339 47.1839 53.6318 47.9368 49.2578C49.2879 53.9345 50.6258 58.4527 52.2944 63.1029C52.7182 64.3447 54.7426 63.6961 54.8084 62.573C54.7004 55.5568 54.9233 48.6726 54.8153 41.6565Z" fill="black"/>
<path d="M60.8371 58.2357C59.646 57.3775 59.5518 52.4358 59.4323 51.0088C59.2065 48.3135 59.3116 45.75 59.5755 43.1733C59.893 43.1467 60.2106 43.1201 60.3561 42.9483C63.7691 39.7885 68.103 62.896 60.8371 58.2357ZM58.8866 40.6764C58.4369 41.0334 58.3179 41.5224 58.3578 41.998C58.199 42.0113 58.0535 42.1832 58.0668 42.3417C57.1949 47.2047 56.4299 55.2519 59.6731 59.6105C61.1293 61.7238 63.8684 61.9734 65.7732 59.8979C68.9743 56.1171 66.2819 35.4267 58.8866 40.6764Z" fill="black"/>
<path d="M71.0287 48.122C70.9883 45.7304 70.9346 43.1803 70.2458 40.6834C72.9318 40.2988 74.0849 46.429 71.0287 48.122ZM69.5512 62.9348C69.7764 63.7142 71.2187 63.7531 71.3111 62.947C71.5484 60.0532 71.4549 57.0275 71.2158 54.1735C72.6853 56.4454 74.1415 58.5587 76.3385 59.9713C76.8414 60.2485 78.0984 59.9836 77.8865 59.3627C77.1312 56.073 74.3251 53.1148 72.1807 50.4205C74.9325 48.9127 76.7178 45.4102 75.817 42.2924C74.9429 39.4917 71.6344 38.1721 69.24 40.129C69.0812 40.1423 69.0945 40.3008 69.0945 40.3008L68.949 40.4727C68.3941 43.3931 68.6597 46.5641 68.7533 49.5899C68.621 49.9203 68.6476 50.2374 68.8329 50.5412C68.8462 50.6998 68.8595 50.8583 68.8728 51.0169C69.0327 54.8354 68.9017 58.9976 69.5512 62.9348Z" fill="black"/>
<path d="M80.4371 57.3926C82.9909 57.3383 85.7566 57.905 88.2307 56.8994C89.0114 56.6744 89.1037 55.8683 88.27 55.4592C86.457 54.8127 84.3795 54.827 82.4741 54.9866C83.8356 50.2424 85.0383 45.5114 86.3998 40.7671C86.5054 40.1196 85.8172 39.5386 85.3408 39.5785C83.2501 39.4343 81.3049 39.1182 79.254 39.4497C78.9364 39.4763 78.6587 39.9785 79.0028 40.269C80.4983 40.9421 81.9539 41.1395 83.4228 41.4955C81.9158 46.4116 80.5543 51.1559 79.2061 56.0587C78.9417 56.7195 79.7887 57.2872 80.4371 57.3926Z" fill="black"/>
<path d="M90.3094 51.1373C90.2441 54.1764 89.5969 57.9029 90.3123 60.7169C90.5109 61.1793 90.855 61.4698 91.3447 61.5884C93.462 62.0497 96.2802 61.3347 98.3444 61.1618C100.091 61.0155 99.733 58.6505 97.9997 58.9554C96.4118 59.0884 94.3875 59.7369 92.6276 59.7246C92.0976 57.2144 92.6259 53.9769 92.5589 51.2682L92.7177 51.2549C94.3188 51.2805 96.2242 51.1209 97.2294 49.7594C97.5071 49.2571 97.1364 48.6495 96.6468 48.5309C95.3367 48.1616 94.1196 48.9022 92.8493 49.0086C92.6905 49.0219 92.6905 49.0219 92.5317 49.0352C92.4515 46.168 92.3712 43.3008 92.1322 40.4469L92.1189 40.2883C92.754 40.2351 93.3892 40.1819 94.0243 40.1287C95.2945 40.0223 96.6046 40.3916 97.6763 39.8228C98.2981 39.6111 98.245 38.9769 97.7421 38.6997C96.723 37.9867 95.1352 38.1197 94.0237 38.2128C92.5947 38.3325 91.1789 38.6108 89.7897 39.2061C88.8636 39.603 89.1286 40.8581 90.2401 40.765C90.3988 40.7517 90.3988 40.7517 90.5576 40.7384C90.3203 43.6322 90.2285 46.3542 90.15 49.2347C89.6737 49.2746 89.0252 49.1693 88.5489 49.2092C87.9138 49.2624 87.4905 49.9365 88.0067 50.3722C88.8272 50.6228 89.4889 50.8867 90.3094 51.1373Z" fill="black"/>
<path d="M103.871 58.4632C103.896 54.9485 104.212 51.0901 104.066 47.4301C105.337 51.1555 106.595 54.7224 108.025 58.4345C108.436 59.5178 110.315 59.0411 110.553 58.0632C112.403 51.5217 114.452 43.5266 113.246 36.7621C113.007 35.8241 111.247 35.8118 111.168 36.7764C110.666 40.331 110.8 43.8325 110.298 47.3871C109.994 49.4881 109.532 51.6025 109.056 53.5583C107.215 48.7629 105.533 43.9542 103.23 39.3573C103.23 39.3573 103.216 39.1988 103.057 39.2121C103.031 38.895 102.846 38.5912 102.819 38.2741C102.607 37.6531 101.496 37.7462 101.39 38.3937C100.175 44.8821 101.275 52.2941 101.343 58.8346C101.45 60.103 103.818 59.7449 103.871 58.4632Z" fill="black"/>
<path d="M119.182 56.0634C118.942 49.3776 118.384 42.7185 117.35 36.0992C117.284 35.3065 116 35.2543 116.08 36.2056C116.479 42.8781 117.05 49.6958 117.29 56.3815C117.237 57.6632 119.143 57.5036 119.182 56.0634Z" fill="black"/>
<path d="M123.282 57.3164C125.809 56.945 128.337 56.5737 130.639 55.4229C131.71 54.8541 130.823 53.8107 129.871 53.8905C127.952 53.8916 126.232 54.355 124.353 54.8317C124.141 52.2949 123.928 49.7581 123.702 47.0627C124.033 47.1946 124.351 47.168 124.668 47.1414C125.793 47.2069 126.905 47.1138 128.016 47.0207C128.492 46.9808 129.101 46.6105 129.233 46.2801C129.365 45.9497 129.498 45.6193 129.312 45.3155C128.942 44.7079 128.452 44.5892 127.817 44.6424C126.705 44.7355 125.753 44.8153 124.641 44.9084C124.324 44.935 123.847 44.9749 123.53 45.0015C123.291 42.1476 123.052 39.2937 122.482 36.3078C124.612 36.9277 127.007 36.8867 129.085 36.8724C130.673 36.7394 130.804 34.4931 129.203 34.4675C126.477 34.3765 123.738 34.127 121.026 34.1945C120.073 34.2743 119.835 35.2522 120.669 35.6614C120.669 35.6614 120.669 35.6614 120.827 35.6481C120.922 42.5057 121.97 49.2835 121.747 56.1676C121.813 56.9604 122.806 57.3563 123.282 57.3164Z" fill="black"/>
<path d="M152.784 33.4505C151.542 37.7058 150.154 42.133 148.925 46.5468C148.076 42.1473 147.228 37.7478 146.526 33.1764C146.287 32.2384 144.514 32.0676 144.289 33.204C143.338 39.0316 142.414 45.1762 142.588 51.0692C142.654 51.862 144.083 51.7423 144.189 51.0948C144.73 48.0158 144.954 44.9634 145.337 41.8978C145.934 45.2007 146.676 48.3319 147.431 51.6215C147.696 52.8766 149.601 52.717 149.985 51.5673C151.241 47.4705 152.496 43.3737 153.739 39.1184C154.243 43.2274 154.588 47.3498 155.092 51.4588C155.212 52.8857 157.58 52.5277 157.633 51.246C157.777 45.3264 156.624 39.1961 155.497 33.3829C155.245 32.2864 153.168 32.3007 152.784 33.4505Z" fill="black"/>
<path d="M170.667 48.3981C169.41 48.663 165.679 49.9335 164.501 49.2339C163.164 48.5475 163.243 45.667 163.242 43.7511C164.512 43.6447 165.955 43.6835 167.225 43.5771C168.336 43.484 168.561 42.3476 168.045 41.9118C168.204 41.8985 168.204 41.8985 168.032 41.7533C167.873 41.7666 167.859 41.608 167.701 41.6213L167.542 41.6346C167.052 41.516 166.43 41.7277 165.795 41.7809C165.001 41.8474 164.221 42.0725 163.268 42.1523C163.135 40.5668 162.989 38.8227 162.856 37.2372C162.604 34.2247 163.755 34.6073 166.468 34.5397C167.579 34.4466 167.777 32.9931 166.653 32.9276C165.038 32.7435 161.254 31.4639 160.143 33.4729C159.733 34.3056 159.998 35.5607 160.064 36.3534C160.237 38.4146 160.423 40.6343 160.437 42.7088C160.609 44.7699 159.909 49.7781 161.63 51.2306C163.509 52.6698 168.828 51.2663 170.866 50.7763C172.758 50.4582 172.559 48.0799 170.667 48.3981Z" fill="black"/>
<path d="M188.879 31.0657C188.786 29.9558 186.854 29.7983 186.458 30.7895C184.607 35.4151 183.086 40.1727 182.056 45.0489C180.255 40.7292 178.772 36.3829 177.434 31.8647C177.182 30.7681 175.158 31.4167 175.079 32.3813C174.749 37.9971 174.42 43.6129 174.422 49.3606C174.502 50.3119 176.42 50.3109 176.5 49.3462C176.882 46.2806 176.948 43.2415 177.172 40.1891C178.244 43.4522 179.635 46.6887 181.171 49.7533C181.74 50.8233 183.645 50.6637 183.857 49.3687C184.623 45.1532 185.707 40.9112 186.949 36.6559C187.612 40.7516 188.42 44.6755 189.56 48.7313C190.01 50.2902 192.683 49.747 192.232 48.1881C190.484 42.5867 189.357 36.7735 188.879 31.0657Z" fill="black"/>
<path d="M199.38 45.6736C198.812 46.5196 198.004 46.4275 197.409 45.0405C196.257 44.6579 195.715 43.9051 195.78 42.7819C195.555 42.0025 195.621 40.8793 195.541 39.928C195.554 38.1706 195.58 36.5718 195.751 34.8012C196.056 34.616 196.347 34.2723 196.307 33.7967C196.041 30.6256 200.979 36.1196 200.793 35.8158C201.177 36.582 201.574 37.5067 201.8 38.2861C202.144 40.4926 201.709 44.8399 199.38 45.6736ZM193.793 34.3266C192.696 38.41 191.957 44.8585 195.067 47.6315C198.522 50.6951 202.517 46.8479 204.011 43.6891C205.743 39.5525 204.379 34.7172 200.792 31.984C198.238 30.1223 192.654 30.2707 193.793 34.3266Z" fill="black"/>
<path d="M200.256 25.642C198.854 26.0788 197.478 26.8327 196.419 27.56C195.057 28.4724 196.592 29.6211 197.822 29.0391C198.894 28.4703 200.138 28.0468 201.395 27.7819C202.493 27.5302 203.604 27.4371 204.345 26.7364C204.636 26.3927 204.596 25.9171 204.252 25.6266C203.061 24.7684 201.5 25.2185 200.256 25.642Z" fill="black"/>
<path d="M221.777 26.7137C219.807 31.8283 218.327 37.0615 217.191 42.5853C215.774 39.0317 214.661 35.293 213.853 31.3691C213.601 30.2725 211.523 30.2869 211.299 31.4233C210.612 34.6741 210.07 37.7531 209.37 40.8454C208.628 37.7143 207.899 34.7417 207.012 31.7824C206.787 31.003 205.212 31.2945 205.278 32.0873C206.021 37.1343 207.081 42.1547 208.141 47.1752C208.393 48.2717 210.484 48.4159 210.695 47.1209C211.395 44.0287 211.924 40.7911 212.624 37.6989C213.551 41.1338 214.942 44.3703 216.491 47.5934C217.06 48.6634 218.965 48.5038 219.177 47.2088C220.366 40.4033 222.216 33.8618 224.384 27.2937C224.754 25.9854 222.161 25.564 221.777 26.7137Z" fill="black"/>
<path d="M238.722 24.815C232.849 32.9708 227.069 42.2364 222.864 51.2104C222.176 52.5453 224.28 52.8481 225.008 51.9888C230.894 43.9916 236.157 34.2903 239.873 25.1976C240.283 24.3649 238.999 24.3128 238.722 24.815Z" fill="black"/>
<path d="M67.8986 81.4342C68.5072 81.0639 68.4408 80.2712 67.7791 80.0073C66.6145 79.4662 65.3708 79.8897 64.1005 79.9961C62.6715 80.1158 61.2424 80.2355 59.8267 80.5137C58.3976 80.6334 58.6892 82.2056 59.9728 82.2578C60.7667 82.1913 61.7326 82.27 62.5266 82.2035C62.5006 83.8023 62.4746 85.4011 61.8002 86.8946C60.9936 88.7185 60.7026 89.0622 58.4531 88.9313C56.3623 88.787 56.1903 88.6418 56.1764 86.5673C56.043 83.0659 58.3035 75.6917 62.3787 74.7117C62.392 74.8703 62.5773 75.1741 62.5906 75.3326C62.8025 75.9535 63.9007 75.7019 64.0064 75.0544C64.1253 74.5654 64.0988 74.2483 64.2177 73.7594C64.3367 73.2704 63.8205 72.8347 63.3441 72.8746C59.2949 72.2557 56.8612 75.6529 55.539 78.9569C54.2035 82.1023 52.3789 87.0451 54.722 90.2018C56.3635 92.6189 59.5392 92.3529 61.8014 90.7264C64.5134 88.743 65.809 85.1218 65.3846 81.9641C66.0198 81.9109 66.9857 81.9897 67.8986 81.4342Z" fill="black"/>
<path d="M72.1864 75.3274C72.2921 74.6799 72.3845 73.8738 72.3313 73.2396L72.3181 73.0811C72.9797 73.345 72.8874 74.1511 72.1864 75.3274ZM73.5635 78.4053C75.7732 78.0606 77.9164 76.9231 77.5585 74.5581C77.1606 71.7175 73.4422 71.2306 71.1003 71.9058C70.6373 72.1042 70.5183 72.5932 70.7037 72.897L70.5582 73.0688C69.5674 78.4207 67.8491 84.6319 68.4461 89.8507C68.5258 90.8021 70.1136 90.6691 70.3648 89.8497C71.396 86.8894 71.6067 83.6785 71.9763 80.4542C74.69 84.2185 76.7686 88.036 78.8871 92.3291C79.483 93.7162 82.1291 92.8559 81.6788 91.297C79.5337 86.6867 76.7669 82.2883 73.5635 78.4053Z" fill="black"/>
<path d="M86.0517 80.5523C86.2896 79.5744 86.3687 78.6098 86.4478 77.6452C86.6862 78.5832 86.7659 79.5345 87.0044 80.4725C86.8456 80.4858 86.3693 80.5257 86.0517 80.5523ZM87.8093 72.9009C87.7827 72.5838 87.4386 72.2933 87.121 72.3199C87.0812 71.8442 86.1285 71.924 85.9962 72.2544C86.0095 72.413 85.864 72.5848 85.8773 72.7434C84.9783 75.3733 84.2381 77.9899 83.6567 80.5932C82.704 80.673 81.5792 80.6076 80.6531 81.0045C80.19 81.2029 79.7535 81.7185 80.4152 81.9824C81.249 82.3915 82.2282 82.6288 83.1809 82.549C82.5862 84.9938 81.8327 87.4519 82.0452 89.9887C82.1116 90.7814 83.5539 90.8203 83.8184 90.1595C84.9027 87.8334 85.3121 85.0848 85.748 82.6534C86.3831 82.6002 87.0315 82.7055 87.6534 82.4938C88.1834 85.004 88.5547 87.5275 90.0109 89.6408C90.3816 90.2484 91.6253 89.8249 91.7309 89.1774C91.836 86.614 90.8163 83.9851 90.1275 81.4882C89.2666 78.846 88.5379 75.8735 87.8093 72.9009Z" fill="black"/>
<path d="M102.224 71.2149C100.637 71.3479 98.9166 71.8113 97.3288 71.9443C95.8997 72.064 94.3119 72.197 92.9094 72.6338C92.2876 72.8456 92.0497 73.8235 92.8569 73.9155C93.5186 74.1794 94.3258 74.2715 95.2917 74.3502C95.107 75.9623 95.081 77.5612 95.055 79.16C94.7375 79.1866 94.5787 79.1999 94.2611 79.2265C93.1496 79.3196 92.9383 80.6146 94.0763 80.8386C94.3939 80.812 94.566 80.9572 94.8835 80.9306C94.805 83.8111 95.0574 86.8236 95.1376 89.6908C95.2571 91.1178 97.9564 90.8917 97.8236 89.3062C97.5846 86.4523 97.3588 83.7569 97.2786 80.8897C99.5148 80.862 101.87 80.3454 103.206 79.1159C103.801 78.587 103.245 77.6756 102.597 77.5703C101.3 77.3596 99.9109 77.9549 98.6672 78.3784C98.1908 78.4183 97.7278 78.6168 97.2514 78.6567C97.1319 77.2297 96.9991 75.6442 97.0384 74.2039C99.2746 74.1763 101.471 73.673 103.164 72.8925C104.117 72.8127 103.508 71.2671 102.224 71.2149Z" fill="black"/>
<path d="M106.205 71.0409C106.086 73.4458 105.823 76.0225 105.704 78.4274C105.652 81.625 104.992 85.1929 105.734 88.3241C105.985 89.4206 107.904 89.4196 108.129 88.2831C109.596 82.8913 108.72 76.2588 108.097 70.7228C107.858 69.7848 106.284 70.0763 106.205 71.0409Z" fill="black"/>
<path d="M116.83 77.655C119.012 75.0772 120.877 72.526 122.557 69.6711C123.245 68.3362 120.968 67.8881 120.413 68.8927C118.852 71.2587 116.974 73.6513 115.069 75.7268C114.923 73.9827 114.777 72.2387 114.486 70.6665C114.26 69.887 112.977 69.8348 112.726 70.6542C111.444 76.3498 112.134 82.6785 112.149 88.5848C112.11 90.0251 114.796 89.6404 114.835 88.2002C114.927 85.4782 115.019 82.7562 115.097 79.8757C117.705 82.3716 120.471 84.8542 123.224 87.1782C124.587 88.1816 127.339 86.6738 125.79 85.3666C122.706 82.9106 119.768 80.2828 116.83 77.655Z" fill="black"/>
<path d="M140.487 68.0097C136.215 74.2751 131.017 80.9373 128.254 88.0343C127.725 89.3559 129.71 90.1477 130.583 89.1165C135.517 83.1151 138.875 75.4892 142.631 68.7881C143.16 67.4665 141.043 67.0052 140.487 68.0097Z" fill="black"/>
<path d="M164.651 73.9688C164.651 73.9688 164.638 73.8103 164.651 73.9688C164.73 71.0883 164.649 68.2211 164.265 65.539C164.185 64.5877 162.267 64.5887 162.187 65.5534C161.937 68.2886 161.832 70.852 161.74 73.574C160.298 73.5352 158.869 73.6548 157.585 73.6027C157.717 71.3564 157.848 69.1101 157.662 66.8903C157.596 66.0976 155.995 66.072 155.744 66.8914C155.295 69.1643 155.004 71.4239 154.859 73.5117C153.417 73.4728 151.988 73.5925 150.545 73.5537C149.434 73.6468 149.236 75.1003 150.361 75.1658C151.816 75.3632 153.259 75.4021 154.714 75.5995C154.596 78.0043 154.875 81.3339 153.936 83.4882C153.526 84.3208 154.373 84.8885 155.167 84.822C157.853 84.4374 157.071 80.8306 157.229 78.9014C157.295 77.7782 157.374 76.8136 157.44 75.6905C157.599 75.6772 157.599 75.6772 157.758 75.6639C159.041 75.716 160.497 75.9134 161.78 75.9656C161.728 77.2473 161.662 78.3704 161.609 79.6521C161.53 80.6168 161.451 81.5814 161.372 82.546C160.976 83.5372 161.015 84.0128 161.333 83.9862C161.187 84.1581 161.042 84.3299 161.068 84.647L161.082 84.8056C161.003 85.7702 162.617 85.9543 163.226 85.584C165.21 84.4598 164.494 79.7299 164.507 77.9725C164.612 77.325 164.559 76.6908 164.652 75.8847C165.578 75.4878 165.63 74.2061 164.651 73.9688Z" fill="black"/>
<path d="M174.243 73.9636C173.608 74.0168 173.118 73.8982 172.483 73.9514C172.985 72.3127 173.329 70.6873 173.672 69.0618C173.964 70.6341 174.269 72.3648 174.547 73.7785L174.56 73.937C174.56 73.937 174.402 73.9503 174.243 73.9636ZM174.663 63.71C174.107 62.7986 172.361 62.9449 172.136 64.0813C171.013 69.7636 168.924 75.3671 167.96 81.0361C167.722 82.014 169.508 82.3434 169.918 81.5107C170.738 79.8454 171.386 78.0348 171.888 76.3961C173.026 76.6201 173.992 76.6989 175.104 76.6058C175.435 78.6537 175.939 80.8468 176.588 82.868C177.025 84.2684 179.565 84.0556 179.274 82.4834C178.823 79.0086 177.895 75.5736 177.127 72.1254C176.57 69.2981 176.146 66.1404 174.663 63.71Z" fill="black"/>
<path d="M190.683 73.5451C189.492 72.6869 188.182 72.3176 187.017 71.7765C186.356 71.5126 184.715 71.0114 184.49 70.232C183.92 69.162 185.322 64.8934 187.519 66.306C188.366 66.8737 190.046 65.9347 189.172 65.0498C186.366 62.0916 181.233 65.7148 181.036 69.0843C180.891 71.1721 182.77 72.6113 184.451 73.5881C185.629 74.2878 187.402 74.4586 188.434 75.3301C189.427 75.726 189.824 76.6507 189.613 77.9457C188.515 78.1973 187.416 78.449 186.318 78.7006C185.67 78.5953 184.783 77.5519 184.267 77.1162C183.42 76.5485 181.726 77.329 182.296 78.3989C184.215 82.2297 191.321 83.0715 192.842 78.3139C193.317 76.3581 192.219 74.6938 190.683 73.5451Z" fill="black"/>
<path d="M205.207 79.0338C202.296 78.639 199.438 78.8784 196.606 79.4349C196.46 77.6908 196.486 76.092 196.34 74.3479C196.988 74.4533 197.637 74.5586 198.285 74.664C199.41 74.7294 200.694 74.7816 201.421 73.9223C201.858 73.4068 201.818 72.9311 201.315 72.6539C200.627 72.0729 199.528 72.3246 198.562 72.2458C197.769 72.3123 196.961 72.2203 196.154 72.1282C195.955 69.75 195.742 67.2131 195.543 64.8349C196.986 64.8737 198.428 64.9126 199.87 64.9514C201.313 64.9903 202.927 65.1744 204.329 64.7376C205.269 64.4992 205.48 63.2042 204.501 62.9669C203.032 62.611 201.603 62.7307 200.015 62.8637C198.269 63.01 196.667 62.9844 194.921 63.1307C194.127 63.1972 193.717 64.0299 194.074 64.4789L194.088 64.6375C193.904 70.0814 193.879 75.512 194.013 80.9294C194.08 81.7221 195.218 81.9461 195.839 81.7344C198.817 81.006 201.688 80.9252 204.771 81.4652C206.558 81.7946 207.139 79.1913 205.207 79.0338Z" fill="black"/>
<path d="M215.179 64.4675C213.697 65.8689 212.547 67.4022 211.237 68.9489C211.369 66.7026 211.487 64.2977 211.142 62.0913C211.089 61.4571 209.978 61.5502 209.859 62.0391C208.682 65.1713 208.63 68.3689 208.433 71.7384C207.401 72.7828 206.369 73.8272 205.165 74.7264C204.12 75.6122 205.814 76.7476 206.714 76.0336C207.322 75.6633 207.772 75.3063 208.209 74.7908C208.156 76.0725 208.104 77.3542 207.892 78.6492C207.787 79.2967 208.316 79.891 209.123 79.983C211.518 79.9421 214.085 80.0464 216.441 79.5298C217.856 79.2516 218.187 77.4676 216.572 77.2835C214.64 77.126 212.576 77.2989 210.671 77.4585C210.538 75.873 210.564 74.2742 210.59 72.6754C211.185 72.1465 211.78 71.6176 212.362 70.9302C213.976 69.1984 216.053 67.2682 216.992 65.1139C217.878 64.2414 215.92 63.7667 215.179 64.4675Z" fill="black"/>
<path d="M221.958 76.6728C221.363 79.1175 220.451 81.5889 219.857 84.0337C219.619 85.0116 221.114 85.6846 221.511 84.6934C222.754 82.354 223.507 79.8959 224.102 77.4512C224.327 76.3147 222.183 75.5363 221.958 76.6728Z" fill="black"/>
</g>
<defs>
<clipPath id="clip0_0_1">
<rect width="213.673" height="61.415" fill="white" transform="translate(27 39.835) rotate(-4.78797)"/>
</clipPath>
</defs>
</svg>
