<svg width="166" height="82" viewBox="0 0 166 82" fill="none" xmlns="http://www.w3.org/2000/svg">
<g clip-path="url(#clip0_50_13250)">
<path d="M12.1668 28.2218C9.35852 28.6921 6.55025 29.3193 3.898 30.1032C6.86228 21.9503 10.6066 14.4245 13.883 6.58507C15.5991 6.58507 15.4431 4.07646 13.7269 4.23325C9.51454 4.54683 4.67807 3.76289 0.465666 4.8604C-0.158394 5.01719 -0.314409 5.80113 0.465666 5.95792C3.898 6.89864 7.79837 6.58507 11.5427 6.58507C6.70627 14.4245 3.58597 23.3614 0.153636 31.8279C-0.314409 32.9254 1.24574 33.5526 2.18183 33.3958C5.92619 32.455 9.67055 31.8279 13.2589 31.044C15.2871 30.4168 14.039 27.9082 12.1668 28.2218Z" fill="black"/>
<path d="M17.161 18.501C17.9411 15.6788 18.4092 12.8566 19.0332 10.1912C19.3453 12.8566 19.8133 15.522 20.2813 18.1874C19.1892 18.0306 17.9411 18.3442 17.161 18.501ZM20.5934 4.07652C20.4374 3.13579 18.5652 3.13579 18.4092 4.07652C17.3171 8.93694 15.6009 13.6406 14.6648 18.6578C14.0407 18.8146 13.4167 18.8146 12.7926 18.9714C11.7005 19.2849 11.5445 20.8528 12.7926 20.8528C13.2607 20.8528 13.7287 20.8528 14.1968 20.8528C14.1968 21.48 14.0407 22.1071 14.0407 22.7343C14.0407 23.5182 15.4449 23.5182 15.6009 22.891C15.9129 22.2639 16.0689 21.6367 16.225 20.8528C17.6291 20.8528 19.1892 20.696 20.5934 20.696C21.0614 23.675 21.5295 26.4972 21.9975 29.4761C22.1535 31.044 25.1178 30.8872 24.8058 29.3193C23.8697 21.0096 22.7776 12.3863 20.5934 4.07652Z" fill="black"/>
<path d="M38.0693 4.39005C35.5731 8.78011 34.481 13.6405 33.8569 18.6577C32.6088 13.6405 31.2047 8.78011 29.4885 4.07647C29.1765 2.97896 27.1483 3.13575 27.1483 4.39005C27.1483 12.543 25.5881 21.3231 26.9923 29.1625C27.1483 29.7897 28.5524 29.7897 28.7084 29.1625C29.8006 24.3021 29.8006 18.9713 29.6445 13.7973C30.8927 18.6577 32.1408 23.5182 33.2329 28.3786C33.5449 29.9465 36.0412 29.3193 36.1972 27.9082C36.6652 21.9503 36.5092 14.8948 38.5374 9.09368C39.3175 16.1491 39.7855 23.0478 40.2536 30.1032C40.4096 31.6711 43.2178 31.6711 43.0618 29.9465C42.4378 21.6367 41.6577 13.1702 40.2536 4.70362C40.0975 3.7629 38.6934 3.44932 38.0693 4.39005Z" fill="black"/>
<path d="M47.897 16.9331C48.209 13.4838 48.6771 10.0344 49.6131 6.89866C50.3932 10.1912 50.8613 13.6405 51.3293 16.9331C50.2372 16.7763 48.9891 16.9331 47.897 16.9331ZM55.2297 29.1625C54.6056 20.5392 54.2936 11.4455 50.8613 3.29254C50.5492 2.50861 49.1451 2.50861 48.8331 3.29254C47.1169 7.05545 46.8049 10.9751 46.3368 15.0516C46.1808 15.6788 46.1808 16.4627 46.0248 17.0899C45.0887 17.2467 44.1526 17.2467 43.3725 17.717C42.9045 17.8738 42.7485 18.6577 43.3725 18.9713C44.1526 19.2849 44.9327 19.4417 45.8688 19.4417C45.4007 23.2046 44.9327 26.9675 44.9327 30.7304C44.9327 31.3576 46.0248 31.5143 46.1808 30.8872C47.1169 27.2811 47.2729 23.3614 47.585 19.5985C48.8331 19.5985 50.2372 19.912 51.3293 19.4417C51.6413 22.891 51.9534 26.4971 51.9534 30.1033C51.9534 31.044 53.2015 31.5143 53.9816 31.2008H54.1376C54.7616 31.044 55.3857 30.4168 55.0737 29.6329C55.2297 29.3193 55.2297 29.3193 55.2297 29.1625Z" fill="black"/>
<path d="M64.9026 28.065C63.1864 27.9082 61.6262 27.9082 59.9101 28.065C59.598 20.0689 59.9101 12.0727 59.286 4.0765C59.13 3.13578 57.4138 2.97899 57.4138 4.0765C56.7898 12.543 57.2578 21.0096 57.1018 29.4761C57.1018 30.2601 58.0379 30.5736 58.6619 30.7304C60.8462 30.7304 62.8744 30.8872 65.0586 30.7304C66.9307 30.4168 66.7747 28.065 64.9026 28.065Z" fill="black"/>
<path d="M72.3934 30.4168C80.6622 31.9847 78.166 7.52579 77.6979 3.44931C77.5419 2.03822 74.8897 2.03822 74.8897 3.44931C75.2017 7.21222 75.3577 10.8183 75.2017 14.5812C75.2017 16.4627 75.0457 18.3441 74.8897 20.2256C74.8897 20.0688 74.5776 26.3403 73.9536 26.8107C71.4573 28.8489 70.3652 17.0898 70.2092 15.3652C69.8972 11.6023 70.0532 7.68258 69.5852 3.91967C69.4291 3.29252 68.181 2.97895 68.025 3.76288C66.7769 10.0344 67.713 16.9331 68.8051 23.0478C69.1171 25.5564 69.2731 29.7897 72.3934 30.4168Z" fill="black"/>
<path d="M84.7167 2.3518C83.7806 2.50859 83.0006 2.66537 82.0645 2.66537C80.9724 2.66537 80.5043 4.23325 81.7524 4.39004C82.6885 4.70362 83.1566 4.8604 83.6246 4.70362C83.0006 10.6616 82.6885 16.7763 82.0645 22.7342C81.5964 27.9082 80.1923 32.1415 75.0438 34.1797C71.4554 35.5908 67.8671 35.2772 63.9667 35.1204C62.8746 35.1204 62.0945 36.6883 63.3427 37.1587C69.4272 39.5105 78.7881 37.629 82.8445 31.9847C85.0287 29.0057 84.8727 24.9292 85.1848 21.3231C85.6528 15.2084 86.2769 9.25046 86.2769 3.13574C86.2769 2.66537 85.3408 2.19501 84.7167 2.3518Z" fill="black"/>
<path d="M113.265 1.5679C112.017 7.68263 110.613 13.7973 109.208 19.9121C107.648 14.2677 106.244 8.78014 104.684 3.13578C104.372 1.88148 102.188 2.19505 102.188 3.44936C101.876 11.132 101.096 18.8146 102.032 26.4972C102.032 27.1243 103.28 27.2811 103.28 26.4972C103.748 21.6367 103.904 16.7763 104.06 12.0727C105.152 16.4627 106.556 20.8528 107.96 25.2429C108.272 26.1836 110.145 26.1836 110.301 25.2429C111.237 20.696 112.329 16.1492 113.265 11.6023C113.421 16.7763 113.733 21.9503 114.045 27.1243C114.201 28.849 117.165 28.6922 117.165 26.9675C116.697 18.501 116.073 10.1912 115.605 1.72469C115.761 0.470388 113.577 0.3136 113.265 1.5679Z" fill="black"/>
<path d="M126.682 14.1109C126.526 16.4627 126.058 22.5774 123.874 23.5181C121.222 24.6157 121.69 15.6788 121.69 13.7973C121.69 10.5048 121.846 7.05543 121.69 3.76289C126.526 0.156769 126.682 12.0726 126.682 14.1109ZM120.598 1.41107C120.129 1.41107 119.661 1.56786 119.505 2.19501C119.505 2.3518 119.505 2.3518 119.505 2.50859C119.505 2.50859 119.505 2.50859 119.349 2.66537C119.037 3.13574 119.037 3.44931 119.349 3.76289C118.881 7.52579 119.037 11.2887 119.037 14.8948C119.037 17.8738 118.725 21.3231 120.129 24.1453C121.69 27.2811 124.498 28.5354 126.526 25.3996C129.802 20.5392 130.582 10.5048 128.242 5.01719C126.994 1.41107 123.406 -0.470382 120.598 1.41107Z" fill="black"/>
<path d="M145.719 1.25431C145.251 7.21224 144.471 13.1702 143.223 18.9713C142.131 13.9541 141.195 8.93691 140.259 3.9197C140.103 2.82219 137.918 2.97897 137.762 3.9197C136.67 8.46655 135.734 12.8566 134.642 17.4034C133.862 11.7591 132.926 6.11473 131.522 0.627156C131.366 0.156793 130.43 0.156793 130.43 0.783944C130.742 8.62333 132.146 16.4627 133.238 24.3021C133.394 25.3996 135.422 25.7132 135.734 24.4589C136.826 19.7553 137.918 15.2084 139.011 10.5048C139.947 15.522 140.883 20.696 141.975 25.7132C142.287 26.9675 144.471 26.6539 144.783 25.7132C146.967 17.5602 148.371 9.40727 148.995 1.09752C148.839 -0.470358 145.875 -0.31357 145.719 1.25431Z" fill="black"/>
<path d="M156.948 23.8317C155.543 24.1453 153.983 24.4589 152.423 24.9292C153.047 22.2638 153.047 19.2849 153.047 16.4627C153.671 16.4627 154.139 16.4627 154.763 16.4627C156.011 16.4627 157.104 16.4627 158.04 15.6787C158.664 15.2084 158.352 14.4244 157.728 14.1109C156.635 13.4837 155.387 13.9541 154.139 13.9541C153.827 13.9541 153.515 14.1109 153.047 14.1109C153.203 10.6615 153.359 7.21221 153.203 3.76288C155.387 3.29252 157.884 3.60609 160.068 2.82215C160.848 2.50858 161.16 1.56785 160.38 1.25427C157.884 0.156761 154.763 0.783912 152.111 1.25427C150.707 1.56785 150.863 2.82215 151.643 3.4493C151.643 3.60609 151.487 3.60609 151.487 3.76288C151.019 7.369 150.863 10.9751 150.551 14.5812C150.551 14.5812 150.551 14.5812 150.551 14.738C150.551 14.738 150.551 14.738 150.395 14.738C149.459 15.0516 149.615 15.9923 150.395 16.1491C150.239 19.2849 149.927 22.5774 150.395 25.5564C150.395 25.7132 150.551 25.7132 150.551 25.87C150.395 26.3403 150.863 26.8107 151.487 26.8107C153.047 26.9675 154.607 26.6539 156.167 26.3403C155.075 27.4378 153.827 28.6921 153.983 30.5736C153.983 32.455 156.167 35.1204 158.196 33.3958C158.508 33.0822 158.664 32.6118 158.352 32.2983C158.04 31.8279 157.572 31.5143 157.416 30.8872C157.26 30.26 157.416 29.4761 157.728 28.8489C158.508 27.5946 159.444 26.6539 160.224 25.3996C160.536 25.2428 161.004 24.9292 161.16 24.4589C161.316 23.9885 161.316 23.6749 161.004 23.3613C159.912 22.7342 158.508 23.5181 156.948 23.8317Z" fill="black"/>
<path d="M65.9963 53.151C66.3083 57.8546 66.4643 62.4015 66.4643 67.1051C64.7482 62.5583 63.032 58.0114 60.5358 54.2485C60.2237 53.6214 59.1316 53.9349 59.2877 54.7189V54.8757C59.1316 55.0324 58.9756 55.1892 58.9756 55.5028C58.9756 62.5583 58.3516 69.6137 58.3516 76.6692C58.3516 77.4531 59.7557 77.4531 59.7557 76.6692C60.2237 71.1816 60.2237 65.694 60.5358 60.2064C62.0959 65.3804 64.4361 70.5544 66.3083 75.4149C66.7764 76.8259 69.1166 76.5124 69.2726 74.9445C69.7407 67.5755 69.5846 60.3632 68.8046 52.9942C68.6486 51.5831 65.9963 51.5831 65.9963 53.151Z" fill="black"/>
<path d="M73.7947 52.9942C73.6387 52.5238 72.5466 52.3671 72.3906 52.9942C70.8304 59.8929 71.4545 68.673 72.5466 75.5717C72.7026 76.6692 74.7308 76.3556 74.7308 75.2581C74.8868 71.3384 74.4188 67.2619 74.2628 63.3422C74.2628 59.8929 74.4188 56.2868 73.7947 52.9942Z" fill="black"/>
<path d="M86.4331 74.7878C85.497 74.9445 80.6605 76.0421 80.1925 75.5717C79.4124 74.7878 79.8805 69.9273 80.0365 67.8891C80.6605 68.0459 81.4406 68.2027 82.0647 68.3595C83.1568 68.5162 84.4049 68.673 85.341 68.0459C86.1211 67.5755 86.1211 66.6348 85.341 66.3212C84.4049 65.8509 83.4688 66.0076 82.3767 65.8509C81.5966 65.8509 80.8166 65.8509 80.0365 65.6941C80.1925 61.6176 80.5045 57.3843 79.7245 53.4646C81.7526 54.2486 83.9369 54.2486 85.9651 53.6214C86.5891 53.4646 87.0572 52.9943 87.0572 52.3671C87.0572 52.0535 87.0572 51.8967 86.9011 51.74C86.4331 51.2696 85.809 51.1128 85.185 51.2696C82.8448 51.74 80.6605 51.74 78.3203 51.1128C77.6963 50.956 76.7602 51.74 77.5402 52.2103C77.8523 52.3671 78.0083 52.5239 78.3203 52.6807C78.3203 52.6807 78.3203 52.6807 78.3203 52.8375C77.3842 56.2868 77.5402 59.7361 77.3842 63.3423C77.2282 66.9484 76.2921 71.9656 77.0722 75.4149C78.0083 79.6482 83.4688 77.7667 86.5891 77.6099C88.7733 77.6099 88.6173 74.631 86.4331 74.7878Z" fill="black"/>
<path d="M99.0733 51.7399C98.7613 57.3843 98.7613 63.1854 98.7613 68.8298C96.7331 63.8126 94.7049 58.9521 92.5207 53.9349C92.5207 53.3078 92.5207 52.6806 92.5207 52.0535C92.5207 51.2695 91.2725 51.2695 90.9605 51.8967C90.4925 51.8967 90.0244 52.2103 90.1804 52.6806C90.3365 53.151 90.4925 53.6214 90.6485 54.0917C89.5564 61.7743 88.6203 70.868 90.6485 78.0802C90.9605 79.021 92.3647 78.7074 92.5207 77.9235C93.1447 74.0038 92.5207 69.9273 92.5207 66.0076C92.5207 63.9693 92.5207 62.0879 92.5207 60.0497C94.5489 65.8508 96.7331 71.6519 98.9173 77.2963C99.3853 78.7074 101.882 78.3938 102.038 76.8259C102.038 68.3594 102.506 59.8929 102.038 51.5831C101.882 50.0152 99.2293 50.172 99.0733 51.7399Z" fill="black"/>
<path d="M107.965 66.7915C108.121 65.3804 108.277 63.9694 108.277 62.7151C108.433 64.1261 108.745 65.5372 109.057 66.9483C108.745 66.7915 108.433 66.7915 107.965 66.7915ZM109.37 52.8374C109.37 52.6806 109.214 52.5239 109.057 52.5239C109.057 52.3671 109.057 52.3671 109.057 52.2103C109.057 51.4263 107.653 51.2695 107.497 52.0535C106.093 56.9139 105.313 62.0879 104.845 67.2619C104.689 67.2619 104.689 67.2619 104.533 67.2619C103.753 67.5755 104.065 68.3594 104.689 68.673C104.533 71.8087 104.377 74.9445 104.377 77.9235C104.377 79.4913 107.185 79.3346 107.185 77.9235C107.341 75.1013 107.497 72.2791 107.809 69.4569C108.433 69.6137 109.214 69.6137 109.838 69.6137C110.618 72.5927 111.398 75.5716 112.178 78.3938C112.646 79.9617 115.454 79.3346 114.986 77.6099C112.802 69.4569 111.866 60.8336 109.37 52.8374Z" fill="black"/>
<path d="M129.805 51.2696C129.025 58.3251 128.557 65.3805 127.621 72.2792C126.997 69.9274 126.685 67.262 126.373 65.2237C125.749 61.4608 125.281 57.6979 124.813 53.935C124.657 52.8375 122.629 52.5239 122.473 53.7782C121.381 59.4226 120.444 65.2237 119.508 70.8681C118.416 64.7534 117.48 58.6386 116.388 52.5239C116.232 51.74 114.672 51.8968 114.672 52.6807C114.828 61.6176 116.544 70.3977 118.416 79.1779C118.728 80.2754 120.912 80.2754 121.068 79.1779C121.849 74.631 122.473 70.0842 123.253 65.6941C123.877 70.5545 124.813 75.2582 126.997 78.8643C127.465 79.805 129.493 79.6482 129.649 78.5507C131.209 69.7706 132.614 60.5201 132.458 51.5832C132.302 49.8585 129.805 49.8585 129.805 51.2696Z" fill="black"/>
<path d="M137.758 74.9445C139.006 67.7323 137.758 59.2657 137.134 52.0535C136.977 50.956 134.949 50.956 134.949 52.0535C134.637 59.2657 133.857 67.8891 135.417 74.9445C135.729 76.042 137.602 76.042 137.758 74.9445Z" fill="black"/>
<path d="M145.404 61.4608C144.935 60.3632 144.467 59.1089 143.999 57.8546C142.595 55.6596 143.063 53.7781 145.404 52.6806C146.028 53.4646 148.056 52.9942 147.276 51.7399C145.404 48.6042 141.503 49.8585 140.567 53.151C139.787 56.2868 141.659 60.3632 142.907 63.0286C143.687 64.7533 145.404 66.478 145.872 68.2026C147.276 73.2198 141.659 78.7074 136.667 78.8642C136.355 77.1395 133.546 77.4531 133.39 79.1778C133.39 79.6481 133.39 79.9617 133.234 80.4321C133.234 81.0592 134.014 81.6864 134.639 81.8432C140.723 82.6271 145.56 79.021 147.9 73.5334C149.304 70.3977 149.304 69.1434 147.9 66.1644C147.276 64.5965 146.028 63.1854 145.404 61.4608Z" fill="black"/>
<path d="M147.432 38.5698C145.716 39.9809 144.156 41.392 142.284 42.4895C141.192 43.1166 142.128 44.5277 143.22 44.2142C145.716 43.4302 148.212 42.1759 149.772 39.9809C150.552 38.5698 148.368 37.7858 147.432 38.5698Z" fill="black"/>
<path d="M155.392 51.5831C151.491 53.6214 151.023 60.0497 150.867 63.8126C150.867 67.4187 151.335 74.9445 154.768 77.1395C157.108 78.7074 159.448 76.826 159.604 74.3174C159.604 73.3766 158.2 73.063 157.576 73.6902C156.016 75.2581 155.86 73.063 155.392 71.8087C154.612 69.7705 154.3 67.4187 154.144 65.2237C153.988 63.1854 154.144 61.304 154.456 59.4225C154.612 58.6386 156.796 50.3288 159.448 54.4053C159.916 55.0325 161.476 54.7189 161.164 53.7782C160.384 51.4263 157.732 50.4856 155.392 51.5831Z" fill="black"/>
<path d="M166.004 63.3422C166.004 59.4225 166.004 55.6596 165.848 51.7399C165.848 50.4856 163.663 50.4856 163.507 51.7399C163.195 55.6596 162.883 59.5793 162.727 63.499C162.571 66.9483 162.103 70.3977 162.883 73.6902C163.195 74.6309 164.912 74.6309 165.224 73.6902C166.316 70.3977 166.004 66.7916 166.004 63.3422Z" fill="black"/>
</g>
<defs>
<clipPath id="clip0_50_13250">
<rect width="166" height="82" fill="white"/>
</clipPath>
</defs>
</svg>
