<svg width="434" height="66" viewBox="0 0 434 66" fill="none" xmlns="http://www.w3.org/2000/svg">
<g clip-path="url(#clip0_0_3003)">
<path d="M9.47403 43.4739C8.18193 43.4739 6.88984 43.4739 5.45418 43.6174C6.02844 41.1783 6.60271 38.7391 7.17697 36.3C7.8948 32.8565 8.7562 29.5565 9.47403 26.113C9.76116 24.6783 10.0483 23.2435 10.479 21.9522C10.7661 23.6739 11.1968 25.2522 11.484 26.8304C12.0582 30.2739 12.776 33.7174 13.3503 37.0174L14.4988 43.3304C12.776 43.187 10.9097 43.4739 9.47403 43.4739ZM16.2216 35.8696C15.5038 32.4261 14.786 29.1261 14.2117 25.6826C13.4939 22.3826 13.0632 18.9391 11.9146 15.6391C11.9146 15.4956 11.9146 15.3522 12.0582 15.2087C12.3453 13.9174 10.1919 13.7739 9.90473 14.9217C9.90473 15.0652 9.90473 15.0652 9.90473 15.2087C9.76116 15.3522 9.76116 15.6391 9.76116 15.7826V15.9261C8.89976 19.2261 8.46906 22.5261 7.4641 25.8261C6.60271 29.2696 5.74131 32.5696 5.02348 36.013C4.44922 38.5957 3.87495 41.1783 3.15712 43.6174C2.15216 43.9043 1.72146 45.3391 2.72643 45.7696C1.86503 49.5 1.00363 53.3739 0.285803 57.1043C-0.00132886 58.3957 2.0086 58.3957 2.29573 57.3913C3.30069 53.6609 4.16208 49.787 5.16705 46.0565C6.74627 46.2 8.3255 46.2 9.90473 46.2C11.6275 46.2 13.4939 46.487 15.0731 45.913C15.2167 46.3435 15.2167 46.7739 15.3602 47.2043C16.0781 50.6478 16.5088 54.3783 17.5137 57.6783C18.088 59.2565 20.5286 58.2522 20.5286 56.8174C20.2415 53.087 19.2365 49.3565 18.5187 45.7696C17.5137 42.613 16.9395 39.313 16.2216 35.8696Z" fill="black"/>
<path d="M47.9501 14.2043C45.7966 13.6304 43.4996 13.9174 41.3461 13.9174C39.6233 13.9174 37.4698 13.6304 36.4648 15.2087C36.4648 15.3522 36.4648 15.4956 36.4648 15.6391C37.4698 17.0739 39.4797 16.3565 40.9154 16.3565C41.059 16.3565 41.2025 16.3565 41.3461 16.3565C41.059 23.1 41.4897 29.8435 41.4897 36.5869C41.4897 40.0304 41.4897 43.4739 41.3461 46.9174C41.3461 48.4956 41.2025 50.0739 41.2025 51.6522C41.2025 53.3739 40.6283 55.2391 41.4897 56.8174C41.9204 57.5348 43.0689 57.1043 43.356 56.5304C44.2174 55.2391 43.9303 53.5174 43.9303 52.0826C43.9303 50.5043 43.9303 48.9261 44.0738 47.3478C44.0738 43.7609 44.2174 40.1739 44.2174 36.5869C44.2174 29.8435 44.2174 23.1 43.356 16.3565C44.7917 16.3565 46.0838 16.5 47.3759 16.213C48.2373 16.213 49.2422 14.6348 47.9501 14.2043Z" fill="black"/>
<path d="M61.5917 55.9565C59.7253 55.813 58.0025 55.9565 56.1362 55.9565C55.1312 55.9565 54.2698 55.9565 53.2648 56.1C53.552 49.5 53.9827 42.9 54.1262 36.3C56.2797 36.3 58.4332 36.3 60.5867 36.4435C62.4531 36.587 63.1709 33.7174 61.161 33.5739C58.8639 33.4304 56.4233 33.5739 54.2698 34.0043C54.2698 27.9783 54.2698 22.0956 53.6955 16.0696C55.9926 16.3565 58.4332 16.3565 60.7303 16.787C62.4531 17.0739 63.3145 14.3478 61.3045 14.0609C58.4332 13.6304 55.1312 13.2 52.2599 13.9174C51.542 14.0609 50.9678 15.4956 51.9727 15.7826C51.3985 29.7 51.8292 43.6174 50.8242 57.5348C50.8242 58.5391 51.8292 58.6826 52.547 58.2522C53.552 58.5391 54.5569 58.5391 55.7055 58.6826C57.5718 58.8261 59.2946 58.8261 61.161 58.8261C63.0273 58.8261 63.7452 55.9565 61.5917 55.9565Z" fill="black"/>
<path d="M77.0957 22.6696C77.3828 25.1087 76.0907 27.8348 75.0857 30.1304C74.0808 32.2826 72.7887 34.1478 70.6352 35.1522C70.6352 31.8522 70.6352 28.4087 70.6352 25.1087C70.6352 23.2435 70.4916 21.3783 70.4916 19.513C70.4916 18.5087 70.4916 17.5043 70.3481 16.5C73.0758 18.0783 76.665 18.9391 77.0957 22.6696ZM67.046 58.5391C67.046 60.2609 70.0609 59.9739 70.2045 58.3956C70.9223 51.7956 70.6352 45.0522 70.6352 38.3087C70.9223 38.3087 71.2094 38.3087 71.4966 38.1652C72.358 37.7348 73.2194 37.3043 73.9372 36.7304C74.3679 40.1739 74.9422 43.4739 75.66 46.9174C76.3778 50.5043 76.8085 54.3783 77.9571 57.8217C78.3877 59.2565 80.9719 58.3956 80.8284 57.1043C80.3977 53.3739 79.2491 49.5 78.5313 45.7696C77.8135 42.1826 76.9521 38.5956 75.8036 35.1522C76.5214 34.2913 77.2392 33.2869 77.8135 32.2826C79.2491 29.7 80.5412 26.5435 80.5412 23.5304C80.6848 20.6609 79.3927 18.3652 77.0957 16.7869C74.9422 15.3522 72.0708 13.9174 69.6302 13.2C68.9124 12.913 67.3332 13.7739 68.051 14.7783C68.051 14.7783 68.051 14.7783 68.1946 14.9217C68.1946 14.9217 68.1946 14.9217 68.1946 15.0652C67.1896 18.0783 67.7639 21.9522 67.7639 25.1087C67.7639 28.8391 67.7639 32.5696 67.7639 36.3C67.3332 43.4739 66.7589 51.0783 67.046 58.5391Z" fill="black"/>
<path d="M87.1443 36.587C87.575 32.5696 88.1493 28.5522 88.58 24.3913C88.7235 24.9652 88.7235 25.5392 88.8671 26.1131C89.2978 29.8435 89.8721 33.5739 90.3028 37.3044C90.5899 39.1696 90.7335 41.1783 90.877 43.0435C90.5899 43.0435 90.4463 43.0435 90.1592 43.0435C88.8671 43.187 87.7186 43.3305 86.4265 43.6174C86.7136 41.3218 87.0007 39.0261 87.1443 36.587ZM86.1393 46.0566C87.575 46.0566 88.8671 46.0566 90.3028 46.0566C90.5899 46.0566 90.877 46.0566 91.1642 46.0566C91.3077 46.9174 91.3077 47.6348 91.4513 48.4957C91.5949 50.3609 91.7384 52.2261 91.882 54.0913C92.0255 55.8131 91.882 57.6783 92.5998 59.1131C93.1741 60.2609 94.8969 59.8305 95.184 58.6826C95.6147 57.2479 95.3276 55.8131 95.184 54.2348C95.0404 52.3696 94.7533 50.5044 94.6097 48.6392C94.4662 47.6348 94.4662 46.7739 94.3226 45.7696C94.4662 45.7696 94.4662 45.7696 94.6097 45.7696C95.7583 45.3392 95.9018 43.9044 94.7533 43.4739C94.4662 43.3305 94.3226 43.3305 94.0355 43.187C93.7483 41.1783 93.6048 39.1696 93.3176 37.1609C92.3127 29.5566 91.7384 21.6652 89.7285 14.3479C89.5849 14.0609 89.4414 13.7739 89.0107 13.7739C88.7235 13.0566 87.2879 13.3435 87.0007 14.0609C85.2779 21.2348 84.8472 28.8392 84.1294 36.1566C83.268 43.4739 82.4066 50.9348 81.6888 58.2522C81.5452 60.2609 84.4165 60.2609 84.8472 58.5392C85.2779 54.5218 85.7086 50.3609 86.1393 46.0566Z" fill="black"/>
<path d="M111.122 53.3739C109.112 52.9435 106.958 53.9478 104.948 54.2348C103.656 54.3783 102.221 54.5217 100.929 54.6652C101.79 52.6565 102.077 50.2174 102.651 48.3522C103.656 44.6217 104.661 40.7478 105.666 37.0174C107.676 29.5565 110.117 22.0956 111.265 14.6348C111.409 14.2043 111.122 14.0609 110.691 13.9174C110.691 13.7739 110.548 13.7739 110.404 13.7739C108.681 12.913 106.528 13.0565 104.661 13.0565C102.508 13.0565 100.354 13.0565 98.3444 13.4869C97.3395 13.7739 96.6217 15.2087 98.0573 15.3522C100.211 15.6391 102.364 15.4956 104.518 15.6391C105.953 15.6391 107.389 16.0696 108.825 15.7826C106.384 22.2391 104.805 29.1261 103.082 35.7261C102.221 39.1696 101.216 42.4696 100.354 45.913C99.3494 49.3565 98.6316 52.9435 96.9088 56.1C96.0474 57.6782 98.3444 58.1087 99.2058 57.2478C100.929 57.6783 102.795 57.5348 104.518 57.3913C106.815 57.2478 109.83 57.1043 111.553 55.3826C112.127 54.8087 111.983 53.5174 111.122 53.3739Z" fill="black"/>
<path d="M148.162 13.7739C147.588 25.5391 146.152 37.3043 144.142 48.9261C142.132 37.5913 139.979 26.113 139.835 14.4913C139.835 12.913 137.107 13.2 136.964 14.6348C135.815 25.8261 133.949 36.8739 131.796 47.9217C131.365 43.7608 131.078 39.6 130.647 35.4391C130.073 28.2652 130.073 20.9478 129.068 13.9174C128.924 12.6261 126.914 13.0565 126.914 14.2043C126.484 21.3782 127.345 28.6956 127.776 35.8695C128.35 43.0435 128.924 50.2174 129.642 57.5348C129.786 59.2565 132.226 58.8261 132.657 57.3913C134.81 48.2087 136.677 39.0261 137.969 29.7C139.117 39.0261 140.984 48.3521 142.419 57.5348C142.707 59.113 145.147 58.9695 145.434 57.3913C148.449 42.9 150.316 28.1217 151.033 13.3435C151.177 11.4782 148.306 12.0521 148.162 13.7739Z" fill="black"/>
<path d="M157.348 34.0043C157.348 30.7043 157.348 27.4043 157.204 24.2478C157.204 22.3826 157.061 20.5174 157.061 18.6522C157.061 17.3609 157.061 16.0696 156.774 14.7783C157.922 15.3522 158.927 16.0696 159.789 17.2174C161.224 19.2261 161.368 21.6652 161.081 23.9609C160.794 26.2565 160.076 28.4087 159.214 30.4174C158.784 31.4217 157.922 32.713 157.348 34.0043ZM163.952 46.0565C162.947 42.9 162.086 39.0261 160.219 36.1565C161.655 34.2913 162.516 31.2783 163.091 29.2696C163.952 26.5435 164.67 23.5304 164.383 20.6609C163.952 16.5 160.363 10.7609 155.338 12.1956C154.764 12.3391 154.477 12.7696 154.62 13.2C153.615 16.3565 154.189 20.3739 154.189 23.6739C154.189 27.2609 154.189 30.9913 154.189 34.5783C154.189 38.1652 154.046 41.8956 154.046 45.4826C154.046 47.3478 153.902 49.213 153.902 51.2217C153.902 52.9435 153.615 54.6652 154.046 56.2435C154.333 57.2478 156.056 56.9609 156.343 56.2435C156.917 54.8087 156.917 53.087 156.917 51.5087C156.917 49.6435 157.061 47.7783 157.061 45.913C157.061 43.187 157.204 40.3174 157.204 37.5913C157.492 37.7348 157.779 37.7348 158.066 37.7348C158.496 40.8913 159.932 44.0478 160.794 46.9174C161.368 48.6391 161.798 50.3609 162.373 52.2261C162.803 53.9478 163.091 55.813 164.096 57.2478C164.67 58.1087 166.536 57.6783 166.536 56.5304C166.68 54.6652 165.962 52.9435 165.388 51.2217C164.957 49.5 164.526 47.7783 163.952 46.0565Z" fill="black"/>
<path d="M282.395 34.0043C282.395 30.7043 282.395 27.4043 282.251 24.2478C282.251 22.3826 282.108 20.5174 282.108 18.6522C282.108 17.3609 282.108 16.0696 281.821 14.7783C282.969 15.3522 283.974 16.0696 284.835 17.2174C286.271 19.2261 286.415 21.6652 286.128 23.9609C285.84 26.2565 285.123 28.4087 284.261 30.4174C283.83 31.4217 282.969 32.713 282.395 34.0043ZM288.999 46.0565C287.994 42.9 287.132 39.0261 285.266 36.1565C286.702 34.2913 287.563 31.2783 288.137 29.2696C288.999 26.5435 289.717 23.5304 289.43 20.6609C288.999 16.5 285.41 10.7609 280.385 12.1956C279.811 12.3391 279.523 12.7696 279.667 13.2C278.662 16.3565 279.236 20.3739 279.236 23.6739C279.236 27.2609 279.236 30.9913 279.236 34.5783C279.236 38.1652 279.093 41.8956 279.093 45.4826C279.093 47.3478 278.949 49.213 278.949 51.2217C278.949 52.9435 278.662 54.6652 279.093 56.2435C279.38 57.2478 281.103 56.9609 281.39 56.2435C281.964 54.8087 281.964 53.087 281.964 51.5087C281.964 49.6435 282.108 47.7783 282.108 45.913C282.108 43.187 282.251 40.3174 282.251 37.5913C282.538 37.7348 282.826 37.7348 283.113 37.7348C283.543 40.8913 284.979 44.0478 285.84 46.9174C286.415 48.6391 286.845 50.3609 287.42 52.2261C287.85 53.9478 288.137 55.813 289.142 57.2478C289.717 58.1087 291.583 57.6783 291.583 56.5304C291.727 54.6652 291.009 52.9435 290.435 51.2217C290.004 49.5 289.573 47.7783 288.999 46.0565Z" fill="black"/>
<path d="M173.716 54.0913C173.716 54.2348 173.573 54.3782 173.573 54.5217L173.429 54.3782C173.286 53.5174 172.998 52.513 172.855 51.6521C172.568 49.9304 172.137 48.0652 171.994 46.3434C171.563 42.7565 171.276 39.1695 171.132 35.7261C170.989 28.5521 172.137 21.6652 173.142 14.6348C173.573 14.7782 174.291 14.6348 174.721 14.3478C174.865 14.6348 175.008 15.0652 175.152 15.4956C175.439 16.213 175.726 17.0739 175.87 17.7913C176.3 19.3695 176.444 21.0913 176.588 22.6695C176.875 26.113 177.018 29.5565 177.018 32.8565C176.588 40.0304 176.013 47.3478 173.716 54.0913ZM177.162 12.1956C175.87 10.0434 172.281 10.1869 171.994 12.6261C171.563 12.7695 170.989 13.0565 170.845 13.3434C168.261 20.5174 167.83 28.6956 167.974 36.1565C167.974 40.0304 168.261 43.7608 168.835 47.6348C169.122 49.5 169.409 51.3652 169.84 53.3739C170.127 54.8087 170.414 56.2434 171.419 57.3913C173.573 59.6869 175.87 57.8217 176.731 55.5261C178.023 52.2261 178.741 48.6391 179.315 45.1956C180.464 37.8782 180.32 30.4174 179.89 23.1C179.459 19.513 179.028 15.2087 177.162 12.1956Z" fill="black"/>
<path d="M181.755 1.00435C180.319 0.573911 178.883 1.14782 177.735 2.00869C177.16 2.43913 176.73 3.01304 176.155 3.44348C175.438 3.87391 175.007 3.87391 174.289 3.87391C173.715 3.87391 172.997 4.44782 173.284 5.02174C173.858 6.45652 175.581 6.45652 176.873 6.02609C177.591 5.73913 178.309 5.30869 178.883 4.73478C179.457 4.16087 180.032 3.58695 180.893 3.58695C182.329 3.73043 183.477 1.57826 181.755 1.00435Z" fill="black"/>
<path d="M193.095 46.7739C191.803 48.3521 191.372 50.0739 190.511 51.7956C190.367 52.0826 189.506 54.2347 188.788 54.2347C188.214 54.0913 187.639 52.0826 187.496 51.6521C186.204 47.4913 186.347 43.0434 186.778 38.8826C187.065 34.5782 187.496 30.2739 187.926 25.9695C188.07 23.9608 188.214 21.8087 188.644 19.8C188.788 18.7956 189.075 17.7913 189.362 16.9304C189.506 16.3565 189.793 15.9261 189.936 15.3521C190.08 15.0652 190.798 14.3478 190.798 14.2043C190.511 15.4956 192.521 15.7826 193.095 14.6347C193.956 12.6261 192.233 10.9043 190.08 11.4782C187.496 12.1956 186.491 15.3521 185.916 17.5043C185.055 20.6608 184.768 23.9608 184.481 27.2608C184.194 30.9913 183.763 34.5782 183.476 38.3087C183.189 41.6087 183.045 44.9087 183.332 48.2087C183.619 50.7913 184.194 54.6652 186.06 56.5304C190.798 61.1217 195.248 50.6478 195.392 47.3478C195.535 46.2 193.669 46.2 193.095 46.7739Z" fill="black"/>
<path d="M196.543 6.89179e-08C194.964 -0.143478 193.672 1.14783 192.523 2.15217C191.375 3.15652 190.083 4.16087 188.934 5.45217C187.786 6.74348 189.652 7.74783 190.801 7.03044C192.236 6.16957 193.385 5.3087 194.677 4.30435C195.825 3.44348 197.261 2.58261 197.548 1.14783C197.692 0.573913 197.261 0.143478 196.543 6.89179e-08Z" fill="black"/>
<path d="M220.517 15.3522C220.517 15.9261 220.517 16.5 220.66 17.0739C220.66 17.2174 220.66 17.2174 220.66 17.2174C221.809 27.1174 221.665 37.0174 220.66 46.9174C219.655 43.0435 218.65 39.1695 217.645 35.1522C215.922 28.2652 214.343 21.2348 212.19 14.4913C212.046 14.0608 211.903 13.6304 211.759 13.2C211.472 12.4826 210.323 12.7695 210.18 13.3435C209.031 16.3565 209.462 20.0869 209.462 23.2435C209.318 26.8304 209.318 30.4174 209.318 34.1478C209.175 41.1782 209.031 48.3521 209.031 55.3826C209.318 57.1043 212.333 57.1043 212.333 55.2391C212.333 55.0956 212.333 54.9522 212.333 54.8087C212.477 47.9217 212.333 40.8913 212.477 34.0043C212.477 31.9956 212.477 29.9869 212.477 27.9782C213.051 30.4174 213.625 32.8565 214.2 35.2956C215.922 42.1826 217.645 49.0695 219.512 55.813C220.086 57.6782 222.67 57.5348 222.957 55.6695C225.398 42.1826 225.685 28.2652 223.962 14.6348C223.819 12.4826 220.517 13.3435 220.517 15.3522Z" fill="black"/>
<path d="M235.45 36.4435C234.015 36.3 232.579 36.1565 231.287 36.1565C231.43 35.7261 231.43 35.2957 231.574 35.0087C232.292 31.5652 233.153 28.1218 233.871 24.5348C234.158 23.5305 234.445 22.5261 234.732 21.5218C234.876 22.6696 234.876 23.8174 235.019 24.9652C235.307 28.4087 235.594 31.8522 235.881 35.2957C235.881 35.7261 235.881 36.0131 236.024 36.4435C235.737 36.587 235.594 36.4435 235.45 36.4435ZM239.614 39.887C240.475 39.4565 240.619 38.1652 239.757 37.5913C239.614 37.4479 239.47 37.4478 239.326 37.3044C239.183 36.4435 239.183 35.5826 239.039 34.7218C238.752 31.2783 238.321 27.8348 238.034 24.3913C237.604 20.9478 237.46 17.3609 236.455 14.0609C236.455 13.9174 236.312 13.9174 236.312 13.7739C235.881 12.6261 233.871 12.4826 233.297 13.9174C232.005 17.0739 231.574 20.9478 230.712 24.2478C229.851 27.8348 229.133 31.4218 228.415 35.0087C227.698 38.5957 226.98 42.1826 226.406 45.9131C226.118 47.7783 225.831 49.5 225.544 51.3652C225.401 52.8 224.97 54.2348 225.544 55.5261C225.688 56.1 226.549 55.9565 226.836 55.5261C227.841 54.0913 227.985 52.3696 228.272 50.7913C228.703 48.9261 228.99 47.2044 229.277 45.3392C229.708 43.0435 230.138 40.8913 230.569 38.5957C232.005 38.8826 233.297 39.1696 234.732 39.4565C235.163 39.6 235.594 39.6 236.024 39.7435C236.455 45.1957 236.886 50.5044 237.46 55.9565C237.747 58.1087 241.193 57.3913 240.906 55.3826C240.762 50.2174 240.188 45.0522 239.614 39.887Z" fill="black"/>
<path d="M256.984 24.8218C256.554 22.6696 256.41 20.2305 257.415 18.0783C257.846 17.0739 258.564 16.2131 259.425 15.6391C260.43 15.0652 261.578 15.0652 262.583 14.6348C263.158 14.4913 263.875 13.487 263.301 13.0565C259.856 9.90002 255.118 14.3478 253.826 17.5044C252.103 21.8087 253.108 26.5435 255.118 30.5609C257.415 35.2957 261.148 39.6 262.009 45.0522C262.296 47.3478 262.153 49.787 260.861 51.6522C259.856 53.2305 258.133 54.2348 256.41 54.9522C255.836 53.8044 253.682 54.5218 253.395 55.6696C253.252 56.1 253.108 56.6739 253.252 57.1044C253.252 58.5391 254.4 59.2565 255.692 58.8261C259.856 57.3913 263.732 55.0957 265.168 50.6478C266.46 46.487 265.311 42.0391 263.445 38.3087C261.435 33.8609 257.989 29.8435 256.984 24.8218Z" fill="black"/>
<path d="M275.792 13.0565C273.638 12.913 271.485 13.0565 269.331 12.913C267.896 12.913 266.316 12.4826 265.168 13.6304C265.024 13.7739 264.881 14.0609 265.024 14.2043C265.886 15.4957 267.752 15.2087 269.044 15.3522C269.331 15.3522 269.762 15.3522 270.049 15.4957C269.188 21.9522 269.331 28.6957 269.188 35.1522C269.044 38.7391 268.901 42.3261 268.901 45.913C268.901 47.6348 268.757 49.3565 268.757 51.0783C268.757 52.9435 268.47 54.8087 268.901 56.5304C269.331 57.9652 271.198 57.1043 271.628 56.1C272.059 54.8087 271.915 53.087 272.059 51.6522C272.059 49.787 272.203 47.9217 272.203 46.0565C272.346 42.613 272.346 39.1696 272.49 35.7261C272.633 32.2826 272.633 28.8391 272.777 25.3957C272.777 22.2391 273.064 18.9391 272.777 15.7826C273.638 15.9261 274.356 15.9261 275.217 16.0696C277.227 16.0696 277.945 13.2 275.792 13.0565Z" fill="black"/>
<path d="M304.503 33.287C304.215 37.4478 303.641 41.6087 303.21 45.7696C302.923 47.6348 302.636 57.5348 299.191 54.6652C298.042 53.6609 297.468 51.6522 297.037 50.3609C296.463 48.6391 296.032 47.0609 295.745 45.3391C295.027 41.7522 294.74 38.0218 294.74 34.2913C294.884 26.9739 296.606 20.087 299.047 13.2C303.785 18.9391 304.933 25.9696 304.503 33.287ZM301.201 10.9044C300.196 9.90001 298.473 10.7609 298.329 11.7652C297.755 11.6218 297.181 11.9087 296.894 12.3391C290.433 24.2478 290.146 39.887 294.453 52.5131C295.171 54.8087 296.606 57.3913 299.191 57.9652C301.918 58.5391 304.215 56.5304 305.077 54.0913C306.369 50.7913 306.225 46.7739 306.656 43.187C307.087 39.1696 307.661 35.2957 307.805 31.2783C307.948 24.2478 306.656 16.0696 301.201 10.9044Z" fill="black"/>
<path d="M325.322 11.3348C325.035 10.6174 323.743 10.7609 323.456 11.4783C322.451 14.6348 322.882 18.2218 322.738 21.5218C322.738 25.2522 322.595 28.9826 322.595 32.7131C322.451 36.587 322.308 40.4609 322.164 44.3348C321.159 40.3174 320.01 36.1565 319.006 32.1392C318.144 28.9826 317.426 25.8261 316.565 22.8131C315.704 19.6565 314.124 16.0696 314.268 12.7696C314.268 11.6218 312.402 11.7652 311.971 12.4826C311.827 12.9131 311.684 13.3435 311.54 13.6305C310.679 14.7783 310.966 15.9261 310.822 17.2174C310.822 18.7957 310.679 20.5174 310.679 22.0957C310.535 25.6826 310.535 29.4131 310.535 33C310.535 39.6 310.679 46.2 310.822 52.8C310.392 53.5174 310.535 54.3783 311.253 55.2392C312.258 56.5305 314.268 55.3826 314.268 53.9479C314.124 46.9174 313.981 39.887 313.837 32.8565C313.837 30.4174 313.837 27.8348 313.837 25.3957C314.268 27.4044 314.842 29.4131 315.273 31.4218C316.996 38.1652 318.575 45.0522 320.441 51.7957C320.585 52.5131 321.159 52.9435 321.733 53.087C321.733 53.2305 321.733 53.3739 321.733 53.5174C321.59 54.0913 321.59 54.3783 321.733 54.9522C321.877 56.8174 325.035 56.5305 325.179 54.8087C325.61 47.3479 325.897 39.887 326.04 32.4261C326.04 28.8392 326.184 25.2522 326.04 21.6652C326.184 18.5087 326.471 14.4913 325.322 11.3348Z" fill="black"/>
<path d="M345.131 50.6479C344.126 50.5044 343.265 50.7913 342.26 50.9348C341.111 51.0783 339.819 51.2218 338.527 51.3652C336.948 51.5087 335.225 51.5087 333.646 51.9392C332.928 48.9261 333.933 45.3392 334.076 42.4696C334.364 39.3131 334.507 36.0131 334.507 32.7131C334.651 32.7131 334.651 32.7131 334.794 32.7131C334.938 32.7131 335.081 32.7131 335.225 32.5696C336.373 32.5696 337.522 32.2826 338.671 32.2826C340.25 32.2826 341.685 32.5696 342.978 31.5653C343.695 31.1348 343.839 29.987 343.121 29.5566C341.829 28.6957 340.393 28.9826 338.958 29.1261C337.522 29.2696 335.943 29.4131 334.651 29.8435H334.507C334.507 24.8218 334.507 19.8 333.646 14.7783C336.948 16.0696 340.824 16.3566 344.126 16.0696C345.992 15.9261 346.136 12.6261 344.126 12.7696C341.973 12.9131 339.963 12.7696 337.953 12.4826C336.23 12.1957 334.651 11.7653 332.928 11.3348C332.928 11.1913 332.928 11.1913 332.928 11.0479C332.641 10.187 331.062 10.6174 331.062 11.4783C330.487 11.9087 330.2 12.7696 330.918 13.3435C330.918 20.087 331.636 26.9739 331.349 33.7174C331.205 37.5913 331.062 41.3218 330.631 45.1957C330.344 48.2087 329.626 51.3652 330.918 54.2348C331.492 55.3826 332.928 55.2392 333.646 54.5218C335.512 54.8087 337.809 54.5218 339.532 54.3783C339.819 54.3783 340.25 54.3783 340.68 54.3783C339.819 55.0957 339.101 55.9566 338.383 56.8174C336.948 58.2522 335.081 59.9739 334.794 62.1261C334.364 65.4261 339.245 67.8652 340.393 64.1348C340.537 63.4174 339.963 62.8435 339.245 62.7C338.527 62.5566 338.24 62.8435 338.527 61.8392C338.814 60.9783 340.106 59.687 340.68 59.1131C342.26 57.1044 344.126 55.2392 345.418 53.087C345.418 52.9435 345.562 52.9435 345.562 52.8C345.705 52.6566 345.705 52.6566 345.849 52.5131C346.71 51.7957 346.28 50.9348 345.131 50.6479Z" fill="black"/>
<path d="M377.721 44.6217C377.577 41.1782 377.434 37.5913 377.29 34.1478C377.146 30.7043 377.003 27.1174 376.859 23.6739C376.716 21.8087 376.716 20.0869 376.572 18.2217C376.429 16.5 376.572 14.7782 375.711 13.3434C375.28 12.6261 374.131 13.2 373.844 13.7739C373.844 13.9174 373.701 13.9174 373.701 14.0608C373.27 15.3521 373.414 16.6434 373.414 17.9348C373.414 19.8 373.414 21.6652 373.557 23.3869C373.701 26.9739 373.701 30.4174 373.844 34.0043C373.988 36.5869 373.988 39.1695 374.132 41.7521C373.557 39.7434 372.983 37.7348 372.409 35.7261C370.399 29.1261 368.102 22.5261 365.087 16.213C365.087 15.4956 364.943 14.6348 364.8 13.9174C364.656 12.6261 362.646 13.0565 362.503 14.2043C362.503 14.6348 362.503 14.9217 362.359 15.3521C362.072 15.6391 361.928 16.0695 362.072 16.5C362.072 16.6434 362.216 16.7869 362.216 16.9304C361.785 22.9565 362.216 29.2695 362.216 35.2956C362.216 42.3261 362.216 49.213 362.216 56.2434C362.216 57.9652 365.23 57.6782 365.374 56.1C365.374 55.2391 365.518 54.9521 365.374 54.5217C365.374 47.9217 365.23 41.4652 365.23 34.8652C365.23 31.8521 365.23 28.8391 365.23 25.8261C366.522 29.5565 367.815 33.1434 368.963 36.8739C370.973 43.6174 372.696 50.3608 374.132 57.1043C374.562 59.2565 378.008 58.5391 377.577 56.5304C377.577 56.3869 377.434 56.1 377.434 55.9565C377.577 55.813 377.721 55.5261 377.721 55.3826C378.008 53.6608 377.864 51.9391 377.721 50.2174C377.864 48.3521 377.721 46.4869 377.721 44.6217Z" fill="black"/>
<path d="M387.917 34.0044C387.199 35.0087 386.051 35.8696 385.046 36.8739C385.046 36.3 385.046 35.7261 385.046 35.0087C385.046 31.4217 385.189 27.8348 385.189 24.2478C385.189 21.9522 385.333 19.5131 385.333 17.0739C387.774 20.087 390.501 23.1 390.501 26.9739C390.645 29.4131 389.496 31.8522 387.917 34.0044ZM385.046 11.9087C384.184 11.3348 382.605 12.1957 382.892 13.2C382.749 13.3435 382.749 13.487 382.749 13.487C382.031 16.787 382.318 20.5174 382.175 23.8174C382.031 27.6913 382.031 31.5652 381.887 35.4391C381.887 39.3131 381.744 43.187 381.744 47.0609C381.744 48.9261 381.744 50.6478 381.6 52.5131C381.6 53.5174 381.313 54.6652 381.6 55.6696C381.6 55.813 381.744 56.387 381.887 56.5304C381.887 57.3913 382.462 58.1087 383.467 57.8217C383.61 57.8217 383.754 57.8217 383.897 57.6783C384.902 57.5348 385.477 56.6739 385.189 55.6696C384.328 52.6565 384.902 48.9261 384.902 45.7696C384.902 44.1913 384.902 42.6131 385.046 41.1783C385.62 40.8913 386.194 40.6044 386.769 40.1739C387.199 42.4696 387.774 44.7652 388.491 46.9174C388.922 48.4957 389.353 50.0739 389.784 51.5087C390.214 52.9435 390.501 54.6652 391.506 55.8131C392.368 56.8174 394.09 55.9565 394.09 54.8087C394.09 53.3739 393.373 51.9391 392.942 50.5044C392.511 48.9261 391.937 47.4913 391.506 45.9131C390.645 43.187 390.214 40.3174 389.353 37.5913C390.071 36.8739 390.645 36.0131 391.076 35.2957C392.798 33 393.947 30.1304 394.234 27.2609C394.378 24.1044 393.086 21.3783 391.363 18.7957C389.496 16.6435 387.486 13.7739 385.046 11.9087Z" fill="black"/>
<g clip-path="url(#clip1_0_3003)">
<path d="M427.93 51.6723C426.5 53.2316 423.25 52.1921 421.69 51.4124C418.44 49.983 415.58 46.8644 415.19 43.226C414.8 40.3672 415.84 37.7684 417.27 35.2994C417.66 35.6893 418.05 36.0791 418.57 36.339C421.95 39.1977 426.11 42.7062 428.06 46.8644C428.58 48.2938 429.1 50.3729 427.93 51.6723ZM411.81 26.8531C410.12 25.0339 410.38 22.1751 411.03 19.9661C411.68 17.7571 412.98 15.678 415.19 14.7684C416.75 14.1186 418.83 13.9887 420.39 14.6384C420.39 14.8983 420.52 15.2881 420.78 15.4181C421.69 16.3277 423.64 17.2373 423.64 18.6667C423.64 20.3559 421.95 21.7853 420.78 22.8249C418.7 24.9039 416.62 26.983 414.93 29.1921C413.76 28.4124 412.72 27.7627 411.81 26.8531ZM428.19 40.2373C425.46 37.3785 422.73 34.6497 419.48 32.1808C419.74 31.791 420.13 31.4011 420.52 31.0113C423.77 27.5028 428.84 24.3842 429.49 19.3164C429.75 17.3672 429.23 15.4181 428.06 13.7288C427.41 12.9491 426.76 12.1695 425.85 11.6497C424.16 10.7401 422.99 11.3898 421.43 12.1695C416.75 8.9209 409.99 12.2994 407.91 17.887C406.74 20.8757 406.48 25.0339 408.3 27.8927C409.34 29.5819 411.16 30.6215 412.72 31.791C412.85 31.791 412.85 31.9209 412.98 31.9209C412.72 32.3107 412.46 32.7006 412.2 33.0904C408.17 40.1073 409.08 48.5537 415.58 53.6215C420.78 57.7796 431.7 59.339 432.87 50.6328C433.39 46.4746 430.79 43.096 428.19 40.2373Z" fill="black"/>
</g>
</g>
<defs>
<clipPath id="clip0_0_3003">
<rect width="434" height="66" fill="white"/>
</clipPath>
<clipPath id="clip1_0_3003">
<rect width="26" height="46" fill="white" transform="translate(407 11)"/>
</clipPath>
</defs>
</svg>
