<svg width="455" height="135" viewBox="0 0 455 135" fill="none" xmlns="http://www.w3.org/2000/svg">
<g clip-path="url(#clip0_0_2090)">
<path d="M244.89 98.6944C244.822 99.2194 244.614 99.7163 244.288 100.132C243.961 100.548 243.529 100.868 243.035 101.057C242.492 101.154 241.932 101.034 241.477 100.721C241.021 100.409 240.706 99.9302 240.599 99.3875C240.263 97.727 240.068 96.0409 240.018 94.3472C240.018 93.418 239.876 92.5044 239.813 91.5751C240.489 91.5751 241.165 91.5751 241.841 91.4963C242.517 91.4176 242.894 91.4176 243.412 91.3546C244.163 91.3554 244.904 91.1886 245.581 90.8663C245.741 90.7971 245.875 90.6796 245.964 90.5302C246.054 90.3809 246.094 90.2073 246.081 90.0337C246.067 89.8601 245.999 89.6951 245.887 89.562C245.775 89.4288 245.624 89.3341 245.456 89.2912C244.87 89.1147 244.253 89.0717 243.648 89.1652L241.904 89.244L239.735 89.37C239.735 89.1967 239.735 89.0392 239.735 88.866V88.3934C241.079 83.1045 241.911 77.6979 242.218 72.2488C242.201 72.0272 242.114 71.8168 241.97 71.6484C241.825 71.48 241.63 71.3625 241.414 71.3132C241.198 71.2639 240.971 71.2853 240.768 71.3744C240.565 71.4634 240.396 71.6153 240.285 71.8078C238.192 77.1525 237.245 82.8784 237.503 88.6139C237.425 88.929 237.346 89.2282 237.252 89.5275C235.256 89.6062 233.244 89.685 231.232 89.6693C230.211 89.6693 230.132 91.4176 231.232 91.4806C233.056 91.5751 234.894 91.6223 236.717 91.6223C235.723 94.9202 234.559 98.1639 233.228 101.341C232.804 102.349 234.25 103.199 234.8 102.175C235.997 99.7362 237.046 97.2273 237.943 94.6622C238.1 97.5761 237.943 101.545 240.914 102.963C243.884 104.38 247.656 102.002 246.697 98.6629C246.647 98.4804 246.538 98.3195 246.387 98.2049C246.237 98.0902 246.053 98.0281 245.864 98.0281C245.675 98.0281 245.491 98.0902 245.341 98.2049C245.191 98.3195 245.082 98.4804 245.031 98.6629" fill="white"/>
<path d="M256.567 125.502C256.362 126.924 256.078 128.333 255.719 129.724C255.64 130.054 255.546 131.125 255.184 131.299C254.477 131.614 254.037 130.165 253.927 129.724C253.287 127.209 253.122 124.597 253.44 122.021C253.899 118.15 255.105 114.405 256.992 110.996C257.314 115.808 257.172 120.639 256.567 125.424V125.502ZM300.494 98.8834C300.408 99.1803 300.261 99.4562 300.064 99.6938C299.866 99.9314 299.622 100.126 299.346 100.265C299.07 100.404 298.769 100.484 298.461 100.501C298.153 100.518 297.845 100.472 297.555 100.364C296.78 99.9391 296.154 99.2845 295.764 98.4897C294.919 96.629 293.724 94.9495 292.243 93.5439C291.201 92.8597 289.971 92.5219 288.727 92.5785C287.483 92.635 286.288 93.083 285.312 93.8589C284.56 94.4123 283.907 95.0886 283.379 95.8593C283.631 86.2828 283.872 76.7116 284.102 67.1456C284.092 66.8686 283.98 66.6052 283.787 66.4065C283.594 66.2079 283.334 66.088 283.058 66.0704C282.782 66.0527 282.509 66.1385 282.293 66.311C282.076 66.4834 281.931 66.7304 281.886 67.0039C281.399 70.8943 280.896 74.7848 280.409 78.6752C280.074 81.7292 279.549 84.7593 278.837 87.7477C278.175 90.6756 276.941 93.4431 275.207 95.8908C274.138 97.3084 269.533 101.734 268.402 98.0959C268.253 97.2797 268.267 96.4421 268.442 95.6312C268.617 94.8203 268.951 94.0521 269.423 93.3707C270.272 91.9688 272.189 90.5828 273.604 92.1106C274.295 92.8509 275.521 91.7169 274.924 90.8978C274.421 90.2533 273.728 89.7834 272.944 89.5545C272.16 89.3256 271.325 89.3492 270.555 89.622C269.414 90.0396 268.45 90.834 267.82 91.8744C267.682 91.7985 267.529 91.7529 267.371 91.7407C267.214 91.7285 267.056 91.7499 266.907 91.8035C266.758 91.8571 266.623 91.9416 266.509 92.0516C266.396 92.1616 266.307 92.2944 266.248 92.4414C265.282 95.1582 263.875 97.6967 262.084 99.9545C260.968 101.388 259.821 102.774 258.705 104.191C258.563 102.002 258.422 99.8128 258.343 97.6234C258.453 97.2926 258.563 96.9619 258.642 96.6311C259.295 94.1828 259.152 91.5894 258.233 89.2282C257.84 88.1414 256.174 88.5982 256.127 89.6535C256.002 92.1579 256.017 94.6622 256.127 97.1666C255.816 97.9567 255.404 98.7032 254.901 99.3875C254.571 99.8127 253.754 100.963 253.11 100.963C252.465 100.963 251.868 99.5135 251.648 99.0095C250.673 96.6836 250.523 94.0928 251.224 91.6696C251.491 90.6615 249.888 90.189 249.495 91.1341C248.48 93.7238 248.436 96.5941 249.369 99.2142C250.108 101.356 252.057 104.396 254.666 102.742C255.295 102.302 255.856 101.771 256.332 101.167C256.442 103.057 256.567 104.963 256.693 106.853C253.429 111.628 251.477 117.18 251.035 122.951C250.702 125.813 251.08 128.713 252.135 131.393C253.141 133.409 256.206 134.291 257.306 131.834C257.852 130.403 258.227 128.912 258.422 127.392C258.733 125.73 258.958 124.053 259.098 122.368C259.346 119.013 259.383 115.647 259.208 112.287C259.208 110.712 259.05 109.137 258.94 107.562L259.082 107.357C261.188 104.317 264.174 101.404 266.17 98.0959C266.203 98.2661 266.245 98.4344 266.296 98.5999C266.553 99.4858 267.109 100.255 267.868 100.778C268.627 101.3 269.543 101.543 270.46 101.467C274.201 101.215 277.077 97.4029 278.664 94.3473C279.854 91.9677 280.726 89.4416 281.257 86.8341C281.132 91.6381 280.99 96.4263 280.865 101.23C280.865 102.601 282.735 102.679 283.143 101.498C284.039 98.8677 285.202 95.5286 288.235 94.7883C290.844 94.1425 292.055 96.4579 293.108 98.3795C293.83 100.196 295.219 101.667 296.989 102.49C297.545 102.668 298.131 102.731 298.712 102.676C299.293 102.62 299.857 102.448 300.37 102.168C300.882 101.888 301.333 101.508 301.695 101.049C302.056 100.59 302.322 100.062 302.474 99.4977C302.789 98.1747 300.903 97.3714 300.431 98.7417" fill="white"/>
<path d="M347.768 89.0549C348.522 87.8421 349.905 86.8341 351.178 88.0312C351.684 88.5732 352.003 89.2636 352.088 90.0008C352.173 90.738 352.019 91.4831 351.65 92.1264C351.301 92.89 350.719 93.522 349.986 93.93C349.254 94.3381 348.411 94.5008 347.58 94.3945C347.123 94.3068 346.686 94.136 346.291 93.8904C346.403 92.1857 346.908 90.5303 347.768 89.0549ZM331.47 101.656C329.192 102.821 328.453 99.3087 328.547 97.8281C328.578 95.9383 329.121 94.0925 330.119 92.4886C330.608 91.7288 331.354 91.1716 332.221 90.9198C333.087 90.668 334.015 90.7385 334.834 91.1183C334.964 91.1884 335.111 91.2211 335.258 91.2128C334.927 93.2086 334.471 95.1814 333.891 97.1193C333.451 98.5369 332.932 100.9 331.455 101.656H331.47ZM353.143 101.577C352.279 102.648 350.613 104.727 348.994 104.207C347.375 103.687 346.951 101.23 346.652 99.9073C346.384 98.6801 346.231 97.4302 346.196 96.1743C347.478 96.6862 348.907 96.6862 350.188 96.1743C351.034 95.8604 351.801 95.3639 352.433 94.7198C353.066 94.0757 353.55 93.3 353.85 92.4476C354.15 91.5952 354.259 90.6872 354.169 89.7878C354.08 88.8884 353.794 88.0198 353.332 87.2436C352.863 86.5018 352.167 85.9321 351.348 85.6198C350.53 85.3075 349.632 85.2693 348.79 85.511C347.973 85.8523 347.237 86.3626 346.63 87.0086C346.023 87.6546 345.56 88.4217 345.269 89.2597C344.957 90.0305 344.71 90.826 344.531 91.6381C344.472 91.4318 344.43 91.221 344.405 91.008C344.414 90.7631 344.333 90.5234 344.177 90.335C344.02 90.1466 343.8 90.0229 343.558 89.9877C343.316 89.9525 343.069 90.0083 342.866 90.1443C342.662 90.2804 342.516 90.487 342.456 90.7245C341.23 93.8747 339.973 97.0669 338.684 100.301C338.684 100.112 338.606 99.9545 338.59 99.86C338.48 98.978 338.401 98.0959 338.338 97.2138C338.228 95.4655 338.213 93.7172 338.244 91.9688C338.386 84.881 339.156 77.7931 339.69 70.7368C339.8 69.272 337.568 69.1617 337.443 70.658C337.05 75.0998 336.672 79.5415 336.248 83.9832C336.06 85.8418 335.855 87.7161 335.588 89.559C332.665 87.5271 329.066 89.559 327.636 92.5044C326.205 95.4498 325.341 100.821 328.406 103.199C329.037 103.712 329.816 104.008 330.627 104.045C331.439 104.082 332.241 103.857 332.916 103.404C334.201 102.388 335.126 100.985 335.557 99.4032C335.745 98.8677 335.934 98.3479 336.091 97.8281C336.094 99.1993 336.295 100.563 336.688 101.876C337.144 103.152 338.621 104.128 339.831 102.994C340.345 102.318 340.71 101.539 340.9 100.711L341.953 97.8124C342.44 96.4736 342.943 95.1505 343.446 93.8274C343.639 94.1217 343.855 94.4008 344.091 94.6622C343.916 97.4949 344.333 100.333 345.316 102.994C345.568 103.987 346.135 104.871 346.931 105.513C347.728 106.155 348.711 106.521 349.733 106.554C352.043 106.46 353.772 104.522 355.06 102.821C355.925 101.671 354.133 100.474 353.237 101.577" fill="white"/>
<path d="M402.791 90.3622C402.807 90.1001 402.73 89.8407 402.572 89.6308C402.415 89.4209 402.187 89.2742 401.932 89.2172C401.676 89.1603 401.408 89.1967 401.177 89.32C400.945 89.4433 400.765 89.6453 400.669 89.8897L398.83 96.4893C398.642 97.2138 398.045 100.726 396.63 99.9702C395.216 99.2142 395.609 96.5365 395.577 95.4812C395.577 93.1659 395.42 90.8505 395.357 88.5352C395.357 87.5114 394.006 87.3853 393.44 87.9996C391.775 89.8641 390.431 91.9933 389.464 94.2999C389.212 91.9373 388.898 89.5747 388.521 87.1963C388.483 86.9661 388.371 86.7543 388.204 86.5923C388.036 86.4302 387.821 86.3265 387.59 86.2965C387.36 86.2665 387.125 86.3117 386.922 86.4255C386.719 86.5394 386.557 86.7157 386.462 86.9286L384.167 93.4022L383.083 96.4263C382.91 96.9461 382.376 99.4189 381.511 98.8992C380.647 98.3794 381.071 96.5365 381.087 95.749V92.5988C381.087 90.4987 381.04 88.3567 380.945 86.1725C381.118 85.8418 381.275 85.4952 381.433 85.1487C381.549 84.9607 381.587 84.734 381.537 84.5184C381.487 84.3027 381.353 84.1159 381.165 83.9989C380.978 83.882 380.752 83.8445 380.536 83.8947C380.321 83.9449 380.135 84.0787 380.018 84.2667C378.63 86.2523 377.37 88.3252 376.246 90.4725C375.586 91.701 374.958 92.9296 374.345 94.1739L374.156 94.5677C374.084 94.5524 374.009 94.5524 373.936 94.5677C372.303 94.742 370.682 95.0102 369.08 95.371C367.76 95.5705 366.424 95.728 365.072 95.8435H363.406C363.434 89.4219 363.817 83.0067 364.553 76.6276C364.663 75.8085 364.553 74.0444 365.386 73.4774C366.219 72.9104 366.958 73.5876 367.492 74.0759C369.064 75.651 367.492 78.5334 366.628 80.1085C366.062 81.148 367.54 82.2663 368.2 81.211C369.491 79.4355 370.189 77.2967 370.196 75.0997C370.107 74.318 369.815 73.5733 369.349 72.9402C368.883 72.3072 368.259 71.808 367.54 71.4928C366.906 71.1727 366.189 71.0612 365.489 71.1744C364.789 71.2875 364.142 71.6195 363.642 72.1228C362.29 73.6192 362.337 76.3755 362.07 78.2656C361.379 84.0934 361.222 89.9527 361.096 95.812C359.619 95.812 358.125 95.812 356.632 95.812C355.579 95.812 355.155 97.5131 356.302 97.7336C357.858 98.0195 359.436 98.1723 361.017 98.1904C361.017 101.215 360.907 104.239 360.766 107.247C360.568 112.774 359.943 118.277 358.896 123.707C358.691 124.762 360.137 125.754 360.876 124.778C361.171 124.404 361.385 123.973 361.504 123.512C361.623 123.051 361.645 122.57 361.567 122.1C362.782 114.179 363.371 106.173 363.328 98.1589L365.575 98.0486C367.068 97.9384 368.545 97.7809 370.023 97.5446C371.081 97.4252 372.13 97.2411 373.166 96.9933C373.143 97.1764 373.143 97.3616 373.166 97.5446C373.188 97.6688 373.24 97.786 373.316 97.8866C373.392 97.9872 373.491 98.0684 373.604 98.1236C373.717 98.1789 373.842 98.2066 373.968 98.2045C374.094 98.2024 374.218 98.1706 374.329 98.1116C375.523 97.3398 376.058 95.5127 376.671 94.2527C377.284 92.9926 377.739 92.0791 378.242 91.008L379.028 89.5432C378.949 91.3703 378.887 93.1974 378.855 95.0245C378.855 97.1351 378.478 100.585 381.26 101.136C384.042 101.687 384.529 98.2849 385.173 96.4106L386.823 91.6853C387.201 94.7252 387.468 97.7966 387.625 100.868C387.703 102.16 389.684 101.971 389.809 100.758C390.16 97.4908 391.28 94.3542 393.078 91.6065C393.078 93.6226 393.078 95.6545 393.33 97.6234C393.581 99.5922 394.226 101.561 396.096 102.065C397.966 102.569 399.538 100.852 400.151 99.1354C400.449 98.2691 400.716 97.3713 400.984 96.4735C401.583 98.2876 402.595 99.9374 403.938 101.293C404.96 102.286 406.594 100.868 405.604 99.8127C404.392 98.5496 403.489 97.021 402.968 95.3479C402.447 93.6749 402.322 91.9032 402.602 90.1732" fill="white"/>
<path d="M402.916 82.6286C403.194 82.7053 403.491 82.6773 403.749 82.5498C403.886 82.4796 404.007 82.3818 404.104 82.2625C404.202 82.1433 404.273 82.0052 404.315 81.8568C404.394 81.4473 404.457 81.0378 404.535 80.6283C404.614 80.2187 404.535 80.2188 404.645 80.014V79.7462C404.645 79.6202 404.645 79.4942 404.645 79.3682C404.639 79.1204 404.574 78.8775 404.457 78.6594C404.407 78.5172 404.344 78.3801 404.268 78.2499C404.154 78.0896 403.983 77.979 403.79 77.9409C403.597 77.9029 403.397 77.9402 403.231 78.0451C402.963 78.2125 402.74 78.4441 402.584 78.7191C402.428 78.9941 402.342 79.3038 402.335 79.6202L402.241 80.1557C402.241 80.5338 402.099 80.896 402.021 81.2583C401.949 81.544 401.983 81.8458 402.115 82.1088C402.185 82.2433 402.28 82.3626 402.396 82.46C402.512 82.5573 402.646 82.6307 402.791 82.6759" fill="white"/>
<path d="M417.548 123.628C417.375 125.55 417.187 127.487 416.983 129.424C416.925 130.336 416.713 131.231 416.354 132.07C415.669 128.363 415.405 124.591 415.568 120.824C415.798 116.932 416.831 113.129 418.601 109.657L418.46 112.02C418.208 115.894 417.91 119.753 417.548 123.628ZM430.891 97.1982C430.624 97.7179 429.807 99.7813 428.927 99.5765C428.298 99.4347 428.723 97.6077 428.754 97.1037C428.88 94.7095 429.021 92.3784 429.147 89.937C429.241 88.4722 427.182 88.6455 426.805 89.7953C425.426 93.5919 423.578 97.2006 421.305 100.537C421.462 96.5681 421.561 92.5937 421.603 88.614C421.623 88.3383 421.541 88.0648 421.372 87.8463C421.203 87.6278 420.959 87.4798 420.688 87.4309C420.416 87.3819 420.136 87.4355 419.902 87.5813C419.668 87.727 419.495 87.9547 419.419 88.2202C418.938 90.7841 418.314 93.3187 417.548 95.8121C416.7 97.8754 414.908 99.9703 412.456 99.5923C409.769 99.167 409.973 96.1586 410.586 94.1267C411.199 92.0949 412.739 89.1495 415.442 89.8425C416.448 90.0945 416.935 88.3935 415.945 88.0784C412.456 86.9759 409.816 89.7638 408.732 92.8037C407.741 95.6073 407.317 99.4663 410.303 101.167C411.624 101.795 413.121 101.942 414.538 101.582C415.955 101.223 417.203 100.38 418.067 99.1985C418.468 98.7125 418.816 98.1844 419.104 97.6234C419.026 99.8915 418.947 102.16 418.837 104.428C417.799 106.107 416.855 107.842 416.008 109.626C412.393 117.501 412.865 125.865 414.342 134.149C414.405 134.395 414.546 134.613 414.745 134.77C414.944 134.927 415.189 135.013 415.442 135.016C418.853 134.653 419.073 130.779 419.356 128.085C419.796 123.691 420.173 119.281 420.487 114.886C420.723 111.657 420.896 108.444 421.053 105.215C422.829 102.286 424.746 99.4347 426.381 96.4263C426.255 97.8912 425.831 99.8915 426.868 101.152C427.302 101.598 427.866 101.894 428.479 101.999C429.091 102.104 429.722 102.011 430.278 101.734C430.982 101.335 431.56 100.745 431.943 100.032C432.327 99.3184 432.502 98.5108 432.447 97.7021C432.433 97.5241 432.364 97.3548 432.251 97.2174C432.137 97.08 431.983 96.9813 431.811 96.9347C431.639 96.8881 431.457 96.896 431.289 96.9573C431.122 97.0185 430.977 97.1302 430.876 97.2769" fill="white"/>
<path d="M428.55 84.3139C429.98 84.3139 430.121 82.0931 428.66 82.0774C427.198 82.0616 427.088 84.2982 428.55 84.3139Z" fill="white"/>
<path d="M420.864 80.8803C422.295 80.8803 422.436 78.6594 420.99 78.6594C419.544 78.6594 419.419 80.8803 420.864 80.8803Z" fill="white"/>
<path d="M379.421 77.1946C379.594 77.4438 379.832 77.6413 380.109 77.7661C380.386 77.8909 380.691 77.9383 380.992 77.9034C381.313 77.8659 381.618 77.7405 381.872 77.5411C381.991 77.4516 382.097 77.3455 382.187 77.2261C382.248 77.1649 382.3 77.0961 382.344 77.0214C382.523 76.7349 382.635 76.412 382.674 76.0763C382.698 75.9144 382.698 75.7499 382.674 75.588C382.649 75.4146 382.601 75.2451 382.532 75.084C382.532 75.1785 382.532 75.2573 382.532 75.336C382.455 75.0675 382.327 74.8163 382.155 74.5957C381.97 74.3971 381.729 74.2598 381.464 74.202C381.277 74.1624 381.084 74.1624 380.898 74.202C380.667 74.227 380.443 74.2966 380.238 74.4067C380.145 74.384 380.048 74.384 379.955 74.4067C379.701 74.5246 379.48 74.7031 379.311 74.9265C379.142 75.1762 379.034 75.4621 378.996 75.7613C378.957 76.0012 378.957 76.2459 378.996 76.4858C379.043 76.7391 379.151 76.977 379.311 77.1788" fill="white"/>
<path d="M453.24 95.6231C452.635 96.1804 451.918 96.6022 451.137 96.8602C450.357 97.1182 449.531 97.2066 448.713 97.1194C447 96.8988 444.91 95.6546 445.57 93.6542C447.054 89.7436 449.144 86.0919 451.762 82.8334C453.68 80.2187 455.487 77.2576 454.906 73.8712C454.819 73.1438 454.585 72.442 454.216 71.8094C453.847 71.1768 453.353 70.627 452.763 70.1941C452.174 69.7612 451.501 69.4546 450.789 69.2932C450.076 69.1319 449.337 69.1193 448.619 69.2562C444.454 70.2485 443.291 74.706 442.6 78.3602C442.411 79.3525 443.92 79.5573 444.171 78.5965C444.444 76.6708 445.118 74.8244 446.152 73.1782C447.205 71.7606 449.153 70.4848 450.961 71.2723C454.104 72.6584 453.13 77.0056 451.825 79.258C450.866 80.833 449.609 82.4081 448.525 83.8887C447.423 85.4517 446.421 87.0825 445.523 88.7715C444.482 90.3986 443.747 92.2029 443.354 94.0952C443.309 94.9098 443.483 95.7215 443.859 96.445C444.235 97.1684 444.799 97.7769 445.492 98.2062C446.926 99.2055 448.675 99.6464 450.411 99.4464C452.147 99.2463 453.75 98.419 454.921 97.1194C455.723 96.1901 454.324 94.8355 453.35 95.6231" fill="white"/>
<path d="M449.279 104.853C449.287 104.911 449.287 104.969 449.279 105.026V104.948V104.853Z" fill="white"/>
<path d="M23.8255 93.0872C23.3914 94.2836 22.7235 95.3814 21.861 96.3161C21.3895 96.8201 21.1538 96.7256 20.6823 96.2215C20.371 95.8756 20.126 95.4751 19.9593 95.0402C19.427 93.345 19.3726 91.5353 19.8022 89.811C19.9525 89.8424 20.1076 89.8424 20.258 89.811C20.8395 89.685 20.9652 89.2597 21.1224 88.7715C21.2097 88.3401 21.4634 87.9608 21.8284 87.7159C22.1933 87.4711 22.64 87.3806 23.0712 87.4641C25.3029 87.9839 24.3599 91.6223 23.8255 93.0872ZM22.694 85.2118C22.2007 85.2118 21.7123 85.3091 21.2565 85.4983C20.8008 85.6875 20.3867 85.9648 20.0379 86.3143C19.6693 86.6822 19.371 87.1146 19.1578 87.5901C18.9084 87.561 18.6568 87.6208 18.447 87.7591C18.2372 87.8973 18.0827 88.1051 18.0105 88.3462C17.1274 91.4686 15.8937 94.4805 14.3329 97.3241C14.3329 97.4344 13.8615 98.1746 13.6886 98.0959C13.8457 98.0959 13.6886 97.7651 13.6886 97.6706C13.5996 96.7721 13.6366 95.8655 13.7986 94.9773C14.0489 93.5901 14.1594 92.1811 14.1286 90.7718C13.9086 88.3462 12.4156 85.2118 9.52378 85.5268C8.88936 85.5991 8.2824 85.8265 7.75624 86.1891C7.23007 86.5516 6.80084 87.0381 6.50627 87.6059C6.50627 87.5114 6.50627 87.4326 6.50627 87.3381C6.51812 87.1237 6.45552 86.9118 6.32911 86.7384C6.2027 86.5651 6.02028 86.4409 5.81286 86.3871C5.60544 86.3333 5.38584 86.3531 5.19136 86.4432C4.99687 86.5333 4.83952 86.6881 4.74605 86.8813C2.795 90.4257 1.21497 94.1628 0.0311893 98.0329C-0.251703 98.978 1.14705 99.608 1.46137 98.6157C2.26814 96.2241 3.21808 93.8835 4.306 91.6066C3.99168 95.7648 3.66164 99.923 3.36303 104.081C3.15872 106.885 2.97013 109.688 2.76582 112.492C2.67152 113.894 2.5615 115.296 2.46721 116.698C2.25825 118.11 2.20555 119.542 2.31005 120.966C2.35615 121.165 2.46436 121.344 2.61896 121.477C2.77355 121.611 2.96648 121.691 3.16973 121.707C3.37298 121.722 3.57598 121.673 3.74922 121.565C3.92246 121.458 4.05694 121.297 4.13312 121.108C4.41735 119.825 4.55966 118.515 4.55747 117.202L4.84036 113.012L5.40614 104.648C5.73618 99.5135 6.05051 94.363 6.36483 89.2282C6.40882 89.3752 6.46671 89.5176 6.53771 89.6535C6.61412 89.7873 6.73475 89.8901 6.87877 89.9443C7.02278 89.9984 7.18113 90.0004 7.32648 89.95C7.47183 89.8996 7.59505 89.7998 7.67486 89.6681C7.75466 89.5363 7.78604 89.3807 7.76357 89.2282C7.73737 88.9563 7.77289 88.6818 7.8675 88.4256C7.9621 88.1693 8.11333 87.9378 8.30986 87.7484C8.50639 87.559 8.74314 87.4167 9.00235 87.332C9.26156 87.2473 9.53653 87.2225 9.80667 87.2594C11.0011 87.3539 11.6926 88.6297 11.9598 89.6693C12.667 92.5044 11.174 95.371 11.7241 98.2062C11.749 98.4851 11.8303 98.7561 11.9631 99.0025C12.0959 99.249 12.2774 99.4658 12.4965 99.6397C12.7156 99.8136 12.9677 99.941 13.2375 100.014C13.5073 100.087 13.7891 100.104 14.0658 100.065C15.3702 99.797 16.0303 98.4897 16.5646 97.3556C16.9733 96.5523 17.3505 95.7806 17.7119 94.93C17.8607 95.7277 18.1884 96.4811 18.6703 97.1332C19.1522 97.7853 19.7757 98.3192 20.4937 98.6944C22.5997 99.5607 24.2342 96.9619 25.0671 95.4183C26.1638 93.5451 26.7087 91.3989 26.6387 89.2282C26.6353 88.1857 26.2291 87.185 25.5053 86.4361C24.7815 85.6872 23.7965 85.2484 22.7568 85.2118" fill="white"/>
<path d="M87.6178 84.7865C88.4351 85.6056 87.775 87.3854 87.3192 88.2044C87.0418 88.8051 86.6339 89.3361 86.1255 89.7585C85.617 90.1809 85.0207 90.484 84.3803 90.6458C84.3711 89.3948 84.5621 88.1505 84.9461 86.9601C85.1975 86.2041 86.5177 83.6682 87.6178 84.7865ZM89.8024 97.0879C89.4881 98.0487 88.2308 98.2062 87.3506 98.0487C86.7793 97.9109 86.2545 97.6242 85.8295 97.2176C85.4044 96.8109 85.0942 96.2988 84.9304 95.7333C84.5956 94.7812 84.4152 93.7815 84.396 92.7722C85.057 92.7578 85.7065 92.5963 86.2977 92.2996C89.048 90.8978 91.484 86.5349 89.5666 83.6052C89.0835 82.9286 88.353 82.4709 87.5344 82.3322C86.7158 82.1935 85.8757 82.3851 85.1975 82.8649C84.4399 83.4267 83.8011 84.1337 83.3181 84.9448C82.8352 85.7559 82.5178 86.6551 82.3843 87.5902C82.2368 88.3296 82.1266 89.0761 82.0543 89.8267C81.8377 89.6318 81.6737 89.3853 81.5776 89.11C81.4814 88.8346 81.4562 88.5394 81.5042 88.2517C81.7871 86.9128 79.7597 86.1568 79.4454 87.5429C78.7853 90.4568 78.1409 93.3864 77.4494 96.3003C77.198 97.4029 76.8208 98.8519 75.3749 98.3479C73.929 97.8439 73.489 96.3948 72.9232 95.1978C72.594 94.2161 71.9396 93.3768 71.0687 92.8194C72.1164 90.6458 73.2323 88.5037 74.4162 86.3931C74.5278 86.1353 74.54 85.8453 74.4503 85.5791C74.3607 85.3128 74.1757 85.0894 73.9311 84.9522C73.6865 84.8149 73.3997 84.7735 73.1264 84.836C72.8531 84.8985 72.6126 85.0605 72.4517 85.2906C72.1706 85.8395 71.7438 86.3001 71.2184 86.6218C70.6929 86.9434 70.0892 87.1136 69.4735 87.1136C68.8578 87.1136 68.254 86.9434 67.7286 86.6218C67.2031 86.3001 66.7764 85.8395 66.4952 85.2906C66.3833 85.1005 66.2186 84.9473 66.0211 84.8498C65.8236 84.7522 65.6021 84.7144 65.3835 84.7412C65.165 84.7679 64.959 84.858 64.7908 85.0004C64.6225 85.1427 64.4994 85.3311 64.4364 85.5425L63.3992 89.5118C63.4072 88.4719 63.1984 87.4419 62.7862 86.4876C62.6782 86.1863 62.5002 85.9152 62.2668 85.6966C62.0335 85.478 61.7516 85.3182 61.4444 85.2305C61.1373 85.1427 60.8137 85.1296 60.5004 85.1921C60.1871 85.2545 59.8932 85.3909 59.643 85.5898C59.1302 86.1053 58.785 86.7642 58.6529 87.4799C58.3385 88.4879 57.9928 89.496 57.6313 90.5041C56.9216 92.4339 56.1031 94.3218 55.1796 96.1586C54.9595 96.5996 54.7552 97.0564 54.5038 97.4816L54.4095 97.6076C54.4405 97.1461 54.4405 96.6831 54.4095 96.2216C54.4319 95.694 54.4844 95.1681 54.5666 94.6465C54.8338 92.7091 55.3839 90.8191 55.5253 88.866C55.6834 88.0898 55.6531 87.2869 55.4371 86.5249C55.221 85.7629 54.8255 85.0641 54.2837 84.4872C52.7121 83.2902 50.8733 84.4873 49.8832 85.8261C49.5288 86.3229 49.2185 86.85 48.956 87.4012C48.8766 87.227 48.7472 87.0806 48.5842 86.9807C48.4213 86.8807 48.2323 86.8319 48.0415 86.8403C47.8507 86.8488 47.6667 86.9142 47.5132 87.0281C47.3597 87.1421 47.2437 87.2994 47.18 87.4799C45.9541 90.63 44.744 93.7802 43.5967 96.9304C43.5363 97.087 43.5404 97.2613 43.6082 97.4149C43.676 97.5685 43.8019 97.6888 43.9582 97.7494C44.1145 97.81 44.2884 97.8058 44.4417 97.7379C44.5949 97.67 44.715 97.5438 44.7754 97.3871C45.4355 95.9696 46.0799 94.5363 46.7243 93.1029C46.0956 101.419 45.4827 109.72 44.634 118.005C44.524 119.202 46.4414 119.674 46.74 118.446C46.8657 117.989 46.9757 117.517 47.1014 117.044C47.136 116.922 47.1441 116.795 47.1251 116.67C47.1061 116.545 47.0605 116.425 46.9914 116.32C47.8244 108.239 48.563 100.096 48.8774 91.9531C49.0142 91.9621 49.1492 91.9181 49.2545 91.8301C49.3598 91.7422 49.4273 91.6171 49.4432 91.4806C49.597 90.3045 49.9532 89.164 50.4961 88.1099C50.8733 87.4169 51.8006 85.8418 52.7436 85.9521C54.3152 86.1096 53.1522 90.7718 52.9636 91.6854C52.3895 93.695 52.1871 95.7928 52.3664 97.8754C52.6178 99.167 53.718 100.474 55.1639 99.8443C55.8809 99.4481 56.437 98.8128 56.7355 98.0487C57.207 97.1666 57.647 96.2688 58.0713 95.3553C59.0386 93.3073 59.8835 91.2035 60.6017 89.055C60.6017 88.8187 60.9317 88.2989 61.0417 87.9051C61.2644 89.0087 61.3541 90.1351 61.3089 91.2601C61.4032 93.7021 61.3559 96.1476 61.1674 98.5842C61.1693 98.8476 61.2638 99.1019 61.4344 99.3023C61.6049 99.5026 61.8406 99.6363 62.0998 99.6796C62.3591 99.7229 62.6252 99.6731 62.8514 99.5389C63.0776 99.4048 63.2493 99.195 63.3363 98.9465C64.2793 95.3868 65.2118 91.8271 66.1338 88.2674C66.7321 88.7309 67.4181 89.0676 68.1503 89.2571C68.8825 89.4467 69.6454 89.4851 70.3929 89.37C69.6385 90.8348 68.8212 92.3154 68.2083 93.8117L68.0826 93.9062C67.2071 94.6947 66.5196 95.6702 66.0707 96.7607C65.6219 97.8512 65.4232 99.0287 65.4894 100.207C65.4894 101.262 67.171 101.86 67.6268 100.742C68.3812 98.915 69.1984 97.1194 70.0314 95.3238C70.5343 95.1348 70.6915 95.7648 70.9586 96.2846C71.9645 98.2849 73.1432 100.49 75.6735 100.774C78.2038 101.057 79.2254 99.0882 79.6969 97.0406C80.1055 95.2608 80.4984 93.4809 80.8913 91.7169C81.2519 92.0198 81.6542 92.2691 82.0857 92.4571C82.0182 94.7995 82.7748 97.091 84.2231 98.9307C86.4548 101.388 91.1225 101.152 92.1912 97.6864C92.6156 96.2531 90.3682 95.7963 89.9281 97.2139" fill="white"/>
<path d="M130.099 121.691C129.632 118.5 129.814 115.248 130.633 112.13C130.89 111.135 131.221 110.161 131.623 109.216C131.806 113.433 131.275 117.651 130.051 121.691H130.099ZM152.211 83.8887C151.069 83.7392 149.912 83.7392 148.769 83.8887C147.999 83.8887 147.198 83.8887 146.443 83.8887C146.443 82.8806 146.443 81.8726 146.443 80.8803C146.868 79.447 147.245 77.9979 147.544 76.5331C148.569 71.7057 148.991 66.7694 148.801 61.8376C148.801 60.5933 146.821 60.2625 146.553 61.5856C145.297 67.9006 144.535 74.3045 144.275 80.7385C143.96 81.8096 143.615 82.8806 143.237 83.8887C141.474 83.8002 139.716 83.6161 137.972 83.3374C136.731 83.1326 136.212 85.007 137.469 85.2432C139.111 85.5705 140.769 85.8124 142.436 85.9678C142.153 86.6608 141.886 87.3696 141.571 88.0626C139.651 92.1395 137.334 96.0171 134.656 99.6395C134.185 100.285 133.729 100.931 133.289 101.593C132.629 96.2639 132.34 90.8957 132.425 85.5268C132.425 84.1407 130.334 83.9517 130.256 85.3535C130.234 87.3944 129.79 89.4086 128.951 91.2686C128.113 93.1285 126.898 94.7936 125.384 96.1586C124.351 94.9938 123.727 93.5223 123.608 91.9689C124.026 90.5765 124.31 89.1471 124.456 87.7004C124.455 87.4612 124.377 87.2289 124.234 87.0375C124.09 86.8461 123.89 86.7057 123.661 86.637C123.433 86.5683 123.188 86.5748 122.964 86.6557C122.739 86.7365 122.546 86.8873 122.413 87.0861C121.695 88.4813 121.343 90.0372 121.392 91.6066C120.831 93.3641 120.027 95.0342 119.003 96.5681C118.579 97.1823 117.038 99.7182 116.08 99.4032C115.514 99.1827 115.247 97.9226 115.058 97.4344C114.785 96.5183 114.33 95.6667 113.722 94.93C113.356 94.5054 112.847 94.2307 112.292 94.1582C113.45 92.1542 114.714 90.214 116.08 88.3461C116.749 87.8208 117.287 87.1467 117.651 86.3773C118.139 85.3062 116.708 83.9517 115.86 85.0227C115.42 85.5583 115.011 86.1096 114.587 86.5978C113.727 87.3019 112.629 87.6458 111.522 87.5578C110.415 87.4697 109.384 86.9566 108.646 86.1253C108.049 85.385 107.074 85.9363 106.76 86.6293C105.518 89.7795 105.188 93.4022 103.365 96.3476C102.077 98.4424 99.0433 100.585 96.5445 99.2615C94.0456 97.9384 94.3756 94.8355 94.8943 92.6304C95.2041 91.2606 95.6901 89.937 96.3401 88.6927C96.6697 87.9642 97.2195 87.3581 97.9118 86.9601C98.2388 86.7717 98.6259 86.7173 98.992 86.8083C99.3581 86.8993 99.675 87.1287 99.8763 87.4484C99.9722 87.6719 100.153 87.848 100.378 87.9381C100.604 88.0282 100.856 88.0248 101.079 87.9288C101.302 87.8327 101.477 87.6518 101.567 87.4258C101.657 87.1998 101.654 86.9473 101.558 86.7238C101.32 86.1143 100.899 85.5941 100.352 85.2356C99.8058 84.8772 99.1616 84.6982 98.509 84.7235C97.7787 84.7674 97.0703 84.9899 96.4457 85.3715C95.821 85.7532 95.2992 86.2824 94.9257 86.9129C93.2329 89.475 92.346 92.4873 92.3797 95.56C92.3436 96.918 92.7464 98.2514 93.5281 99.3612C94.3098 100.471 95.4285 101.298 96.7173 101.719C98.1898 101.975 99.7044 101.816 101.092 101.26C102.48 100.704 103.686 99.7718 104.575 98.5684C106.839 95.812 107.404 92.2681 108.442 88.8345C109.637 89.5669 111.039 89.8877 112.434 89.748C111.109 91.7474 109.897 93.8192 108.803 95.9538C107.58 97.2722 106.833 98.9637 106.681 100.758C106.7 101.004 106.795 101.238 106.955 101.426C107.114 101.614 107.329 101.747 107.569 101.804C107.808 101.862 108.06 101.842 108.287 101.748C108.515 101.653 108.706 101.488 108.835 101.278C109.4 99.9388 109.998 98.6157 110.658 97.3241C111.093 96.9188 111.592 96.5888 112.135 96.3476C113.078 97.1194 113.251 98.852 113.817 99.86C113.988 100.239 114.24 100.576 114.555 100.847C114.869 101.119 115.239 101.318 115.638 101.432C116.037 101.546 116.457 101.572 116.867 101.507C117.277 101.442 117.668 101.289 118.013 101.057C119.957 99.5305 121.478 97.5292 122.429 95.245C123.018 96.4596 123.859 97.5338 124.896 98.3951C125.098 98.5226 125.335 98.5823 125.572 98.5653C125.81 98.5483 126.035 98.4555 126.217 98.3007C127.981 96.8855 129.45 95.1352 130.539 93.1502C130.774 96.9461 131.199 100.726 131.466 104.506C130.199 106.612 129.221 108.88 128.558 111.248C127.292 115.982 127.357 120.976 128.747 125.676C128.811 125.887 128.935 126.076 129.104 126.219C129.273 126.362 129.479 126.453 129.698 126.481C129.917 126.509 130.14 126.474 130.339 126.378C130.538 126.283 130.706 126.132 130.822 125.943C134.075 119.312 134.232 112.256 133.745 105.121C134.751 103.451 135.882 101.829 137.029 100.222C139.883 96.2379 142.306 91.9612 144.259 87.4641C144.251 87.59 144.251 87.7163 144.259 87.8422C144.259 90.1103 144.4 92.3783 144.573 94.6465C144.657 95.6965 144.751 96.7466 144.856 97.7966C144.852 98.6433 145.029 99.4812 145.375 100.254C145.563 100.583 145.827 100.863 146.145 101.069C146.463 101.275 146.826 101.402 147.203 101.439C147.58 101.476 147.96 101.422 148.312 101.281C148.664 101.141 148.977 100.918 149.225 100.632C149.756 100.117 150.15 99.4785 150.372 98.7732C150.545 98.2849 150.734 97.1036 151.315 96.9146C152.651 96.4578 152.164 94.2842 150.813 94.741C150.223 94.9641 149.696 95.3272 149.278 95.799C148.859 96.2709 148.56 96.8374 148.408 97.4501C148.288 97.8729 148.108 98.2761 147.874 98.6472C147.785 98.7976 147.654 98.9182 147.496 98.9937C147.324 99.1669 147.276 99.0882 147.339 98.7889C147.115 97.9528 147.024 97.0861 147.072 96.2215C146.758 92.8194 146.585 89.4172 146.553 86.0151C147.402 86.0151 148.251 86.0151 149.099 86.0151C150.333 86.0466 151.56 85.8158 152.698 85.3378C153.421 84.9598 153.013 83.8887 152.337 83.7627" fill="white"/>
<path d="M161.201 93.607C160.683 94.2842 156.487 98.9622 155.968 97.1193C155.895 95.9186 156.077 94.716 156.502 93.5912C156.761 92.3689 157.263 91.2116 157.98 90.189C159.174 88.6139 161.751 87.6216 163.339 89.1495C163.412 89.2212 163.497 89.2798 163.59 89.3227C162.994 90.8541 162.19 92.2957 161.201 93.607ZM192.948 99.1827C192.529 98.6965 192.16 98.1688 191.848 97.6076C191.425 96.8571 191.092 96.0587 190.858 95.2293C190.402 93.5589 190.402 91.7964 190.858 90.126C191.188 88.7872 189.443 88.2989 188.736 89.3227C187.946 90.7419 187.474 92.3168 187.353 93.9377C187.149 95.119 186.583 97.2769 185.074 97.4186C183.566 97.5604 183.408 95.6073 183.235 94.678C182.858 92.6461 182.591 90.567 182.293 88.5194C182.218 88.2358 182.038 87.9913 181.79 87.8362C181.542 87.681 181.244 87.6268 180.957 87.6846C179.754 88.0109 178.636 88.5955 177.68 89.3978C176.725 90.2001 175.955 91.201 175.425 92.3311C175.503 91.1183 175.597 89.9055 175.755 88.7084C175.786 88.4433 175.715 88.176 175.556 87.962C175.396 87.7481 175.161 87.6039 174.898 87.5593C174.635 87.5148 174.365 87.5732 174.144 87.7227C173.923 87.8721 173.768 88.101 173.711 88.3619C173.45 90.1792 173.283 92.0087 173.209 93.8432C172.218 94.8985 171.637 96.4736 170.254 97.1509C168.871 97.8282 168.179 97.0248 167.629 95.938C166.406 93.3084 166.054 90.3559 166.623 87.5114C166.875 86.1095 164.816 85.4638 164.47 86.8971C164.433 87.0521 164.385 87.2047 164.329 87.3539C163.457 86.7036 162.413 86.3266 161.328 86.2705C160.242 86.2145 159.165 86.4818 158.231 87.0389C157.148 87.7937 156.23 88.7633 155.535 89.8876C154.841 91.0119 154.383 92.267 154.192 93.5754C153.705 95.6703 152.966 99.293 155.968 99.8757C156.631 99.9124 157.295 99.8109 157.917 99.5778C158.539 99.3446 159.106 98.9849 159.583 98.5212C161.486 97.0036 163.086 95.1383 164.297 93.0241C164.523 94.9677 165.261 96.8161 166.435 98.3794C167.021 99.0175 167.8 99.4449 168.651 99.5957C169.503 99.7465 170.381 99.6125 171.15 99.2142C171.911 98.8172 172.568 98.2451 173.067 97.5447C173.067 98.0014 173.067 98.4739 173.067 98.9307C173.067 100.049 174.906 100.663 175.205 99.3245C175.927 96.0798 176.87 91.8429 180.092 90.252C180.261 92.2446 180.592 94.22 181.082 96.1586C181.227 97.0208 181.636 97.8163 182.253 98.4345C182.87 99.0528 183.664 99.4629 184.524 99.608C185.435 99.5821 186.317 99.2852 187.059 98.755C187.801 98.2249 188.368 97.4855 188.689 96.6311C188.877 97.1714 189.103 97.6977 189.365 98.2062C189.935 99.5738 190.891 100.745 192.115 101.577C192.402 101.766 192.744 101.856 193.087 101.832C193.43 101.808 193.755 101.672 194.014 101.445C194.272 101.218 194.45 100.913 194.518 100.575C194.587 100.238 194.543 99.8868 194.394 99.5765C194.349 99.4185 194.263 99.2751 194.146 99.1604C194.029 99.0457 193.883 98.9636 193.725 98.9222C193.566 98.8809 193.399 98.8817 193.241 98.9246C193.083 98.9675 192.939 99.0511 192.822 99.167" fill="white"/>
<path d="M190.386 80.3133L190.213 80.4708C190.263 80.4102 190.321 80.3572 190.386 80.3133Z" fill="white"/>
<path d="M189.663 82.6286C189.759 82.7366 189.885 82.8134 190.025 82.8491C190.162 82.8959 190.311 82.8959 190.449 82.8491C190.592 82.863 190.735 82.8298 190.858 82.7546C191.033 82.6736 191.181 82.5421 191.282 82.3766L191.612 81.9829L191.785 81.7939L191.863 81.6993C191.976 81.5696 192.052 81.4118 192.084 81.2426C192.099 81.096 192.099 80.9481 192.084 80.8015C192.083 80.6435 192.033 80.4896 191.942 80.3605C191.88 80.2669 191.8 80.1866 191.706 80.1242C191.612 80.0598 191.505 80.0169 191.392 79.9982C191.244 79.9511 191.085 79.9511 190.936 79.9982C190.716 80.0488 190.511 80.1514 190.339 80.2975L189.569 80.9748C189.431 81.1073 189.324 81.2686 189.255 81.4473V81.7308C189.238 81.9197 189.271 82.1095 189.349 82.2821C189.411 82.4119 189.502 82.5252 189.616 82.6129" fill="white"/>
<path d="M212.247 96.6153C212.079 96.6124 211.911 96.6502 211.76 96.7256C211.588 96.8962 211.431 97.0806 211.289 97.2769C211.147 97.2769 210.943 97.6706 210.786 97.7494C210.667 97.8126 210.54 97.8603 210.409 97.8912C210.228 97.9153 210.045 97.9027 209.869 97.854C209.693 97.8052 209.53 97.7214 209.387 97.6076C208.691 97.0315 208.151 96.2896 207.815 95.4498C207.129 94.0549 206.713 92.5424 206.59 90.9923C206.629 90.2368 206.629 89.4797 206.59 88.7242C206.557 88.4444 206.423 88.1865 206.213 87.9993C206.003 87.8121 205.731 87.7087 205.45 87.7087C205.169 87.7087 204.898 87.8121 204.688 87.9993C204.478 88.1865 204.344 88.4444 204.311 88.7242C204.232 89.5361 204.232 90.3537 204.311 91.1655C204.234 92.389 204.039 93.6022 203.729 94.7883C203.466 95.7391 203.124 96.6663 202.708 97.5604C202.519 97.9699 202.221 98.9149 201.67 98.5684C201.008 98.0753 200.469 97.4334 200.099 96.6941C199.697 96.0184 199.386 95.2929 199.172 94.5362C198.687 92.7794 198.72 90.9195 199.266 89.1809C199.302 88.9614 199.259 88.7361 199.143 88.5459C199.028 88.3557 198.848 88.2134 198.637 88.1447C198.426 88.0761 198.197 88.0856 197.992 88.1717C197.788 88.2578 197.62 88.4148 197.521 88.6139C196.602 90.8307 196.491 93.3008 197.207 95.5915C197.55 96.7228 198.081 97.7879 198.779 98.7417C199.354 99.7132 200.224 100.475 201.262 100.915C203.886 101.703 205.034 98.2534 205.662 96.3948C205.911 96.9409 206.2 97.4674 206.527 97.9699C206.884 98.6156 207.387 99.1684 207.995 99.5842C208.604 100 209.301 100.267 210.031 100.364C211.603 100.459 213.552 99.2772 213.175 97.4501C213.127 97.2438 213.014 97.0585 212.853 96.9222C212.691 96.7858 212.49 96.7058 212.279 96.6941" fill="white"/>
<path d="M142.515 32.2734C142.065 33.0782 141.538 33.8377 140.943 34.5415C140.126 35.4393 139.183 34.951 138.916 33.8012C138.538 32.0529 140.032 29.265 141.132 27.8947C141.855 27.0126 143.835 25.8471 144.825 26.8709C144.312 28.7666 143.546 30.5839 142.546 32.2734H142.515ZM185.954 32.4782C185.305 33.3594 184.568 34.1721 183.754 34.9038C183.147 35.3159 182.462 35.5999 181.742 35.7386C181.012 35.8855 180.256 35.8296 179.555 35.577C178.854 35.3244 178.236 34.8846 177.766 34.3053C177.403 33.8831 177.015 33.4833 176.603 33.1082C178.442 30.1628 180.281 27.2174 182.088 24.272C182.827 23.0749 181.349 21.3739 180.186 22.4607C178.978 23.5885 177.43 24.2812 175.786 24.4295C174.964 24.4933 174.137 24.4295 173.334 24.2405C172.539 23.9666 171.766 23.6295 171.024 23.2325C170.637 22.9961 170.199 22.8559 169.747 22.8236C169.295 22.7912 168.841 22.8676 168.425 23.0463C168.008 23.2251 167.64 23.5011 167.351 23.8513C167.062 24.2014 166.861 24.6157 166.765 25.0595C166.256 26.7199 166.191 28.4851 166.576 30.1785C165.927 29.3805 165.152 28.6942 164.282 28.1467C162.396 26.9339 159.08 26.0046 158.341 23.6262C158.275 23.3061 158.096 23.0205 157.837 22.8223C157.577 22.624 157.255 22.5265 156.93 22.5476C156.604 22.5687 156.297 22.707 156.066 22.9371C155.834 23.1672 155.693 23.4735 155.669 23.7995C155.488 25.7804 155.109 27.738 154.538 29.643C154.098 31.0448 153.532 33.2027 151.944 33.7067C151.201 33.8269 150.44 33.6916 149.783 33.3226C149.127 32.9537 148.615 32.3729 148.33 31.6749C147.649 29.9003 147.438 27.9796 147.717 26.0991C147.746 25.8537 147.705 25.605 147.598 25.3824C147.491 25.1599 147.322 24.9728 147.112 24.8435C146.902 24.7141 146.659 24.6479 146.412 24.6527C146.166 24.6575 145.926 24.7331 145.721 24.8705C144.903 24.3625 143.95 24.1174 142.989 24.1681C142.028 24.2188 141.106 24.5628 140.346 25.1541C139.135 26.206 138.188 27.5277 137.58 29.013C136.971 30.1931 136.557 31.4644 136.354 32.7774C136.227 32.8153 136.109 32.8797 136.008 32.9664C133.824 34.6833 133.462 30.6826 133.164 29.3595C133.047 28.4136 132.665 27.5204 132.061 26.7841C131.457 26.0478 130.657 25.4989 129.753 25.2013C127.616 24.776 126.107 26.4141 125.038 28.0679C124.149 29.54 123.407 31.0964 122.822 32.7144C122.099 31.4543 121.392 30.1943 120.653 28.9342C119.915 27.6742 118.783 25.7841 116.897 26.2566C115.011 26.7291 114.304 29.4068 113.66 30.8401C113.278 31.7035 112.942 32.5868 112.654 33.4862C111.958 31.1172 111.433 28.7011 111.082 26.2566C111.023 26.03 110.883 25.833 110.689 25.7025C110.495 25.5721 110.26 25.5172 110.028 25.5481C109.797 25.5791 109.584 25.6938 109.431 25.8706C109.278 26.0475 109.194 26.2744 109.196 26.5086C109.595 30.369 110.461 34.1665 111.774 37.8177C111.87 38.0416 112.036 38.2284 112.247 38.3503C112.458 38.4722 112.702 38.5228 112.944 38.4945C113.186 38.4662 113.412 38.3606 113.589 38.1933C113.766 38.0259 113.884 37.8058 113.927 37.5657C114.256 36.0078 114.713 34.48 115.294 32.9979C115.561 32.3207 115.844 31.6591 116.159 30.9976C116.363 30.5723 116.882 29.076 117.337 28.8397C117.793 28.6035 119.302 31.5961 119.6 32.1159L122.084 36.6364C122.681 37.6759 124.142 37.1089 124.378 36.1323C124.972 33.7209 125.954 31.4227 127.286 29.328C127.757 28.5877 128.559 27.2961 129.549 28.0364C130.162 28.6576 130.53 29.4799 130.586 30.3518C130.932 32.1631 131.152 34.2107 132.786 35.3606C133.35 35.7895 134.029 36.0385 134.735 36.075C135.442 36.1115 136.143 35.9339 136.747 35.5653C137.235 36.4992 138.062 37.2097 139.057 37.5499C139.751 37.7462 140.489 37.723 141.17 37.4834C141.851 37.2438 142.441 36.7994 142.86 36.2111C143.94 34.9649 144.844 33.5764 145.548 32.0844C145.699 32.5077 145.883 32.9185 146.098 33.3129C146.637 34.2773 147.424 35.0786 148.378 35.6329C149.332 36.1871 150.417 36.4739 151.52 36.4631C152.599 36.3185 153.614 35.8704 154.449 35.1706C155.283 34.4708 155.903 33.5481 156.235 32.5097C156.957 30.8601 157.485 29.1315 157.807 27.3592C159.598 28.824 161.971 29.6115 163.81 31.2496C164.507 31.8438 164.964 32.6714 165.097 33.5783C165.23 34.4852 165.029 35.4097 164.533 36.1796C163.763 37.4554 160.651 38.9675 160.29 36.5734C160.07 34.9983 157.366 35.3606 157.539 36.9356C157.645 37.5817 157.89 38.1967 158.258 38.7373C158.627 39.2779 159.109 39.731 159.671 40.0644C160.233 40.3979 160.861 40.6037 161.511 40.6672C162.161 40.7308 162.817 40.6506 163.433 40.4323C164.687 40.0006 165.783 39.2031 166.581 38.1422C167.38 37.0813 167.843 35.8054 167.912 34.4785C167.958 33.7945 167.889 33.1077 167.708 32.4467C168.258 32.5727 168.902 32.1946 168.682 31.4701C168.159 29.6633 168.231 27.7359 168.886 25.9731C169.107 25.406 169.201 25.1855 169.829 25.4848C170.175 25.6423 170.505 25.8628 170.851 26.0361C171.553 26.3915 172.298 26.6561 173.067 26.8236C174.469 27.1384 175.924 27.1384 177.326 26.8236L174.183 31.9111C173.517 31.8494 172.852 32.0343 172.313 32.4309C170.332 33.817 169.892 36.8884 170.112 39.1093C170.168 39.3692 170.298 39.6071 170.487 39.7942C170.676 39.9812 170.914 40.1093 171.174 40.1627C171.434 40.2161 171.704 40.1926 171.951 40.0951C172.197 39.9975 172.411 39.8301 172.564 39.6133C173.413 38.2272 174.277 36.8411 175.142 35.4708C175.695 36.1361 176.3 36.7574 176.949 37.3294C177.615 37.8524 178.388 38.2233 179.212 38.4162C181.022 38.8435 182.924 38.603 184.571 37.7389C185.428 37.3708 186.163 36.7672 186.691 35.9979C187.22 35.2285 187.52 34.325 187.557 33.3917C187.557 32.7459 186.552 31.8166 185.986 32.5254" fill="white"/>
<path d="M270.617 27.8946C269.506 27.8071 268.43 27.462 267.474 26.8866L267.773 26.3983C268.129 25.7463 268.625 25.1819 269.226 24.746C269.827 24.3101 270.517 24.0136 271.246 23.8782C272.299 23.8782 273.761 24.398 273.776 25.6423C273.776 27.2174 271.859 27.9576 270.633 27.8946H270.617ZM272.66 21.3108C269.313 20.5863 266.798 22.8859 265.179 25.6108C264.847 25.5378 264.499 25.5949 264.206 25.7706C263.914 25.9463 263.7 26.2272 263.608 26.5558C263.042 29.58 262.461 33.1239 260.15 35.3605C258.579 36.9356 255.31 37.7231 253.659 35.8488C252.764 34.825 252.638 33.3602 251.585 32.3994C253.001 29.9879 254.231 27.4708 255.263 24.8705L255.404 24.5397C255.985 23.0749 253.518 22.0511 252.842 23.4844C250.736 27.9891 245.754 23.2797 242.454 25.658C241.348 26.5537 240.564 27.7871 240.222 29.1705C240.154 27.702 239.699 26.2779 238.902 25.0438C238.515 24.4469 237.938 23.999 237.264 23.773C236.591 23.547 235.86 23.5564 235.193 23.7995C233.433 24.4925 232.411 26.8078 231.641 28.3829C230.756 30.2588 230.107 32.2375 229.708 34.2737C229.535 35.1715 229.425 36.7466 228.545 37.2506C227.963 37.5656 227.869 37.2506 227.806 36.8253C227.815 35.7097 227.957 34.5992 228.231 33.5177C228.592 31.1551 229.016 28.7924 229.315 26.3983C229.427 25.9503 229.448 25.4844 229.378 25.028C229.307 24.5716 229.147 24.1339 228.905 23.7406C228.664 23.3473 228.346 23.0064 227.971 22.7379C227.596 22.4694 227.171 22.2788 226.722 22.1771C225.554 21.8989 224.331 21.9617 223.197 22.358C222.064 22.7544 221.067 23.4677 220.325 24.4137L220.42 23.1379C220.436 22.8915 220.375 22.6462 220.243 22.4373C220.112 22.2284 219.917 22.0667 219.688 21.9756C219.459 21.8845 219.207 21.8686 218.969 21.9303C218.73 21.992 218.517 22.1281 218.361 22.3189C215.86 25.44 213.807 28.8967 212.263 32.5884C212.214 32.7032 212.189 32.8264 212.188 32.9511C212.187 33.0757 212.211 33.1994 212.257 33.3149C212.304 33.4305 212.373 33.5357 212.46 33.6245C212.547 33.7134 212.651 33.7841 212.766 33.8327C212.88 33.8813 213.003 33.9068 213.128 33.9078C213.252 33.9088 213.376 33.8852 213.491 33.8384C213.606 33.7916 213.711 33.7225 213.8 33.635C213.888 33.5476 213.959 33.4435 214.007 33.3287C215.103 31.1389 216.359 29.0331 217.764 27.0283C217.339 31.7536 216.946 36.4788 216.491 41.2041C215.909 47.4256 215.029 53.6472 214.573 59.8845C214.479 61.3021 216.836 61.4596 217.056 60.105C217.984 53.9307 218.377 47.6146 218.958 41.4088C219.351 37.0931 219.76 32.7932 220.074 28.4774C220.275 28.4788 220.47 28.4056 220.621 28.2719C220.772 28.1381 220.868 27.9533 220.891 27.7529C221.08 26.6674 221.67 25.6933 222.544 25.0247C223.418 24.3562 224.511 24.0424 225.606 24.146C227.319 24.3665 227.178 25.5793 226.973 26.9338L226.219 31.4858L225.606 35.14C225.292 36.1619 225.254 37.2488 225.496 38.2902C225.851 39.008 226.475 39.5564 227.231 39.816C227.987 40.0755 228.815 40.0253 229.535 39.6762C231.484 38.8729 231.893 36.6521 232.27 34.825C232.745 32.5028 233.583 30.2703 234.753 28.2097C235.193 27.4221 236.073 25.4533 236.969 26.7448C237.449 27.5686 237.714 28.5004 237.739 29.454C238.053 32.2104 238.226 34.9667 238.368 37.7389C238.368 39.314 240.599 39.188 240.914 37.8176C241.448 35.5023 241.935 33.0924 242.485 30.8243C242.972 28.8869 243.743 27.1701 246.053 27.6741C247.569 28.1919 249.168 28.4216 250.768 28.3514C250.202 29.4645 249.605 30.5513 248.976 31.6118C248.716 31.6295 248.458 31.6717 248.206 31.7378C244.937 32.6041 244.277 36.0378 244.088 38.9674C244.098 39.2404 244.186 39.5048 244.342 39.7287C244.498 39.9527 244.715 40.1267 244.968 40.2299C245.22 40.333 245.497 40.3609 245.764 40.3102C246.032 40.2595 246.28 40.1323 246.477 39.944C247.793 38.3537 249.021 36.6921 250.155 34.9668C250.532 35.5023 250.752 36.3213 251.082 36.8726C251.701 37.8504 252.582 38.6345 253.624 39.1357C254.666 39.6369 255.827 39.8351 256.976 39.7077C258.265 39.6334 259.517 39.2498 260.628 38.5892C261.738 37.9286 262.674 37.0104 263.356 35.9118C263.669 37.0168 264.204 38.046 264.928 38.936C267.647 42.1806 273.65 42.1806 274.876 37.5814C274.908 37.3428 274.863 37.1002 274.746 36.8897C274.63 36.6792 274.449 36.512 274.23 36.4129C274.011 36.3138 273.766 36.2882 273.531 36.3398C273.297 36.3914 273.085 36.5175 272.928 36.6993C272.585 37.2295 272.112 37.6629 271.555 37.9584C270.998 38.2538 270.375 38.4015 269.745 38.3873C269.115 38.3731 268.499 38.1975 267.955 37.8772C267.412 37.5569 266.96 37.1026 266.641 36.5576C266.061 35.4543 265.745 34.2303 265.721 32.9832C265.696 31.7361 265.963 30.5006 266.5 29.3752C269.501 30.84 272.975 31.5646 275.505 28.6979C276.037 28.1011 276.397 27.3703 276.547 26.584C276.696 25.7977 276.629 24.9854 276.353 24.2344C276.076 23.4833 275.602 22.8218 274.979 22.3206C274.356 21.8194 273.609 21.4976 272.818 21.3896" fill="white"/>
<path d="M331.816 10.7893C332.088 10.8559 332.374 10.8165 332.618 10.6791C332.948 10.49 332.964 10.238 333.105 9.93877C333.247 9.6395 333.105 9.76551 333.105 9.93877C333.181 9.77903 333.234 9.60933 333.262 9.43473L333.357 8.89921C333.514 7.89116 333.671 6.88311 333.797 5.87506C333.985 4.29998 334.158 2.83516 334.347 1.32309C334.373 1.01624 334.277 0.71149 334.08 0.47539C333.882 0.23929 333.6 0.0910293 333.294 0.063018C332.991 0.0406294 332.691 0.136224 332.457 0.329889C332.223 0.523555 332.072 0.800354 332.036 1.10258C331.801 2.75641 331.549 4.41025 331.329 6.07983C331.219 6.83587 331.141 7.6549 331.062 8.37943C330.983 9.10397 330.748 10.5373 331.769 10.8366" fill="white"/>
<path d="M423.332 34.3525C422.075 36.8883 418.837 39.9125 415.961 37.7861C412.818 35.4235 413.651 30.7455 414.295 27.4379C414.303 27.3751 414.303 27.3116 414.295 27.2488C414.408 27.3641 414.542 27.4557 414.691 27.5182C414.839 27.5807 414.998 27.6129 415.159 27.6129C415.32 27.6129 415.48 27.5807 415.628 27.5182C415.777 27.4557 415.911 27.3641 416.024 27.2488C416.401 26.7511 416.873 26.3333 417.413 26.0197C417.952 25.706 418.549 25.5028 419.167 25.4218C420.312 25.3173 421.458 25.6182 422.405 26.2723C423.141 26.7947 423.692 27.5399 423.976 28.3987C423.913 29.4005 423.913 30.4052 423.976 31.407C423.976 31.7641 424.008 32.1263 424.07 32.4939C423.908 33.1171 423.687 33.7236 423.41 34.3052L423.332 34.3525ZM360.011 26.1935C360.341 25.3182 360.949 24.5758 361.742 24.0806C362.534 23.5854 363.466 23.3649 364.396 23.4529C364.732 23.5284 365.047 23.6786 365.317 23.8925C365.587 24.1065 365.806 24.3786 365.957 24.6887C366.107 24.9988 366.187 25.3389 366.189 25.684C366.191 26.029 366.115 26.37 365.968 26.6818C365.735 27.5253 365.225 28.2656 364.521 28.7829C363.816 29.3002 362.958 29.5644 362.086 29.5327C361.095 29.516 360.119 29.2849 359.225 28.8554C359.379 27.9337 359.659 27.0379 360.058 26.1935H360.011ZM348.303 10.049C348.523 9.30869 349.308 6.09555 350.534 5.78053C349.563 8.67071 348.446 11.5095 347.187 14.2859C347.517 12.8684 347.878 11.4508 348.303 10.049ZM316.367 61.2076C315.884 62.5642 315.296 63.8808 314.607 65.1452C314.433 65.509 314.228 65.8568 313.994 66.1848L313.853 66.3896C313.554 66.8148 313.444 66.8621 313.507 66.547C313.098 66.3108 312.878 64.8302 312.768 64.3734C312.159 61.5043 312.355 58.5222 313.334 55.7578C314.518 52.266 316.276 48.9973 318.536 46.0868C318.57 51.2615 317.78 56.4086 316.194 61.3335L316.367 61.2076ZM436.188 28.2569C435.999 28.6034 435.653 28.8869 435.449 29.2334L434.647 30.4935C434.27 31.0763 433.909 31.6906 433.547 32.2733C432.903 33.3286 432.243 34.3682 431.583 35.4235C431.158 36.0535 430.546 37.4553 429.713 37.6601C428.88 37.8649 428.471 37.1718 428.141 36.7308C427.369 35.6624 426.877 34.4167 426.711 33.1081C427.214 31.2613 427.171 29.3075 426.585 27.4851C426.749 25.9062 427.097 24.352 427.622 22.8544C428.125 21.4053 425.925 20.6965 425.375 22.0983C425.076 22.9016 424.809 23.6734 424.589 24.5555C423.833 23.9072 422.958 23.4148 422.012 23.1064C419.198 22.1771 415.018 22.8071 413.886 25.973C413.879 26.0674 413.879 26.1622 413.886 26.2566C413.716 26.0753 413.5 25.9444 413.261 25.8783C413.021 25.8122 412.769 25.8133 412.53 25.8816C412.291 25.95 412.076 26.0828 411.908 26.2657C411.74 26.4485 411.625 26.6742 411.576 26.9181C411.166 29.1111 410.368 31.2128 409.219 33.1239C408.354 34.5415 406.845 36.9513 405.101 37.4081C403.356 37.8649 402.822 34.1634 402.649 32.8876C402.397 30.5272 402.508 28.142 402.979 25.8155C403.041 25.4981 402.977 25.1689 402.801 24.8978C402.625 24.6267 402.351 24.435 402.036 24.3633C401.721 24.2917 401.391 24.3456 401.115 24.5138C400.84 24.682 400.64 24.9511 400.559 25.2642C399.576 28.3124 398.192 31.2153 396.441 33.8957C396.157 33.9063 395.886 34.0212 395.68 34.2187C395.475 34.4161 395.348 34.6823 395.326 34.9667C395.297 35.2728 395.192 35.5669 395.022 35.8221C394.851 36.0774 394.619 36.2857 394.347 36.4282C394.075 36.5706 393.772 36.6427 393.465 36.6378C393.159 36.6329 392.858 36.5512 392.591 36.4001C392.2 35.9812 391.904 35.4832 391.723 34.9397C391.541 34.3962 391.478 33.8199 391.538 33.2499C391.538 30.1943 392.591 27.5166 391.114 24.6027C390.995 24.4175 390.835 24.2621 390.647 24.1486C390.459 24.0351 390.247 23.9665 390.029 23.9482C389.81 23.93 389.59 23.9625 389.385 24.0432C389.181 24.1239 388.998 24.2507 388.85 24.4137C385.958 28.3196 383.527 32.5479 381.605 37.0143C381.417 35.1132 381.417 33.1979 381.605 31.2968C381.747 28.2411 381.495 25.343 379.468 22.9331C379.337 22.7979 379.181 22.6903 379.008 22.6168C378.836 22.5433 378.65 22.5055 378.462 22.5055C378.274 22.5055 378.089 22.5433 377.916 22.6168C377.743 22.6903 377.587 22.7979 377.456 22.9331L368.026 36.1953L365.889 39.2037C365.362 40.1139 364.617 40.8774 363.72 41.4245C362.149 42.1648 360.734 40.4795 360.027 39.1879C359.137 37.2833 358.712 35.1941 358.785 33.0924C358.785 32.6986 358.785 32.3049 358.785 31.8953C361.85 33.0451 365.198 32.9034 367.414 29.8792C368.081 29.0115 368.514 27.9869 368.674 26.9032C368.834 25.8196 368.713 24.713 368.325 23.6892C367.81 22.6505 366.961 21.8163 365.914 21.3218C364.867 20.8273 363.684 20.7013 362.557 20.9643C359.147 21.5943 357.371 24.3034 356.554 27.4693C356.255 27.2173 355.956 26.9653 355.689 26.6976C355.538 26.5453 355.354 26.4298 355.151 26.3602C354.948 26.2906 354.732 26.2686 354.519 26.296C354.307 26.3234 354.103 26.3994 353.925 26.5182C353.746 26.637 353.597 26.7954 353.489 26.9811C351.352 31.155 349.308 35.3762 347.092 39.4872C346.825 39.9755 346.511 40.8733 345.992 40.4165C345.474 39.9597 345.411 37.7546 345.364 37.2663C345.175 35.0455 345.081 32.8089 345.097 30.588C345.12 27.9028 345.293 25.2209 345.615 22.5551C348.693 17.241 351.221 11.6255 353.159 5.79627C353.284 5.53113 353.316 5.2317 353.25 4.94605C353.185 4.66041 353.025 4.40512 352.797 4.22119C352.167 3.72688 351.39 3.45831 350.589 3.45831C349.789 3.45831 349.012 3.72688 348.381 4.22119C346.991 5.58772 346.063 7.35553 345.725 9.27721C344.394 13.5727 343.453 17.9798 342.912 22.4449C340.726 26.2126 338.273 29.8183 335.572 33.2341C334.457 29.958 333.278 26.7133 332.131 23.4529C332.017 23.1567 331.811 22.9054 331.543 22.7368C331.274 22.5683 330.959 22.4915 330.643 22.5182C330.328 22.5448 330.03 22.6734 329.793 22.8846C329.557 23.0957 329.396 23.3781 329.333 23.6892C328.186 29.2964 324.76 33.8799 321.224 38.2429C321.224 36.1323 321.224 34.0217 321.224 31.9426C321.686 29.7432 321.814 27.4861 321.601 25.2485C321.601 24.8767 321.453 24.5201 321.191 24.2573C320.929 23.9944 320.573 23.8467 320.202 23.8467C319.831 23.8467 319.475 23.9944 319.213 24.2573C318.951 24.5201 318.803 24.8767 318.803 25.2485C318.615 27.1859 318.52 29.1232 318.489 31.092C318.206 32.3993 317.766 34.2422 316.147 34.0847C312.58 33.8484 313.004 28.9184 313.145 26.4771C313.127 26.1713 313.011 25.8797 312.814 25.6448C312.618 25.41 312.352 25.2443 312.055 25.1721C311.758 25.0999 311.446 25.125 311.164 25.2436C310.882 25.3622 310.646 25.5682 310.489 25.8313C309.342 28.3829 308.226 30.9503 307.048 33.4704C306.482 34.7147 304.879 37.5341 303.653 35.2345C302.757 33.5492 303.244 31.6118 303.229 29.8005C303.298 28.8567 303.155 27.9092 302.81 27.0285C302.464 26.1477 301.925 25.3563 301.233 24.713C300.963 24.4639 300.609 24.3257 300.242 24.3257C299.876 24.3257 299.522 24.4639 299.252 24.713C296.9 26.7889 294.974 29.3032 293.579 32.1158C293.422 31.1393 293.249 30.1627 293.029 29.2019C292.62 27.3906 291.457 25.1697 289.335 25.2485C287.214 25.3273 286.192 28.1151 285.328 29.9737C284.762 31.2338 284.18 32.4781 283.615 33.7224C283.332 30.6983 283.017 27.6899 282.656 24.6657C282.53 23.5317 280.613 23.7049 280.66 24.8547C280.849 29.454 281.179 34.0532 281.54 38.6524C281.563 38.9295 281.675 39.1916 281.86 39.3988C282.045 39.6061 282.292 39.7472 282.564 39.8007C282.836 39.8542 283.118 39.8171 283.368 39.6951C283.617 39.5732 283.819 39.3729 283.945 39.1249L286.522 33.5492L287.921 30.5093C288.188 29.9422 288.55 28.5404 289.1 28.1624C290.215 27.4063 290.671 31.5173 290.671 32.0686C290.986 34.1319 291.316 36.1795 291.63 38.2429C291.85 39.6605 294.019 39.5345 294.333 38.2429C295.247 34.312 297.233 30.713 300.07 27.8474C300.808 29.5012 300.07 31.8008 300.29 33.5177C300.29 34.5662 300.564 35.5964 301.085 36.5056C301.607 37.4148 302.356 38.1713 303.26 38.6997C305.523 39.6762 307.598 38.1641 308.761 36.2898C309.484 35.0905 310.124 33.8433 310.678 32.5569C310.822 33.0334 311.017 33.4928 311.26 33.9272C311.761 34.7926 312.468 35.5202 313.318 36.0451C314.168 36.57 315.135 36.8759 316.132 36.9356C316.938 36.9725 317.739 36.7814 318.442 36.3843C318.442 38.1169 318.442 39.8495 318.442 41.5821C314.591 46.3073 310.945 51.5051 309.704 57.6479C309.028 60.6624 309.185 63.8046 310.159 66.736C310.631 68.0591 311.275 69.6184 312.847 69.8862C313.576 69.9002 314.293 69.7004 314.91 69.3115C315.527 68.9225 316.017 68.3613 316.32 67.6969C319.778 62.1526 320.768 55.238 321.035 48.7959C321.129 46.8113 321.145 44.8267 321.145 42.8579L322.717 40.9835C326.029 37.2772 328.758 33.0866 330.81 28.5562C331.923 31.3282 332.873 34.1629 333.655 37.0458C334.079 38.7469 334.237 41.0465 332.382 41.9443C332.241 42.0312 332.084 42.0893 331.92 42.1154C331.756 42.1414 331.589 42.1349 331.428 42.0961C331.266 42.0573 331.114 41.9871 330.98 41.8895C330.846 41.7918 330.732 41.6686 330.645 41.5269C330.559 41.3852 330.501 41.2278 330.475 41.0637C330.449 40.8996 330.455 40.7319 330.494 40.5703C330.533 40.4086 330.603 40.2562 330.7 40.1218C330.798 39.9873 330.921 39.8733 331.062 39.7865C331.341 39.6173 331.542 39.3438 331.62 39.0263C331.698 38.7088 331.647 38.3731 331.478 38.0933C331.31 37.8134 331.037 37.6122 330.72 37.5339C330.403 37.4556 330.068 37.5067 329.789 37.6759C329.232 37.9711 328.752 38.3943 328.39 38.911C328.027 39.4276 327.792 40.023 327.703 40.6483C327.614 41.2736 327.674 41.9112 327.878 42.5088C328.082 43.1063 328.425 43.647 328.877 44.0864C329.871 44.827 331.115 45.1462 332.341 44.9753C333.567 44.8044 334.677 44.157 335.431 43.1729C337.286 41.0465 337.003 38.2114 336.28 35.6755C338.474 33.0913 340.525 30.3887 342.425 27.5796C342.247 30.9764 342.304 34.3816 342.598 37.7704C342.544 39.5357 343.099 41.2655 344.169 42.6689C344.72 43.219 345.466 43.528 346.244 43.528C347.021 43.528 347.767 43.219 348.318 42.6689C349.024 41.8735 349.597 40.9694 350.016 39.9912L351.933 36.2425L355.076 29.9422C355.359 30.1627 355.674 30.3833 355.972 30.588C355.836 32.2881 355.867 33.9974 356.066 35.6913C356.248 38.3514 357.323 40.8717 359.115 42.8421C359.934 43.7315 361.045 44.297 362.244 44.4357C363.444 44.5744 364.654 44.2773 365.653 43.5982C366.901 42.5559 367.964 41.3098 368.797 39.9125L372.254 35.0455L378.305 26.5558C378.824 28.7756 378.915 31.0746 378.572 33.3286C378.415 36.1953 378.478 39.1879 380.238 41.5978C380.804 42.3696 382.312 42.5901 382.721 41.4876C384.327 37.0891 386.436 32.8923 389.008 28.9814C388.929 30.4148 388.552 31.8953 388.52 33.2499C388.423 35.0212 388.982 36.7661 390.092 38.1484C390.679 38.7695 391.428 39.2141 392.254 39.4322C393.079 39.6502 393.949 39.6331 394.766 39.3827C395.582 39.1323 396.313 38.6586 396.875 38.0148C397.438 37.371 397.81 36.5827 397.95 35.7385C397.966 35.6183 397.966 35.4965 397.95 35.3762C398.608 34.4741 399.201 33.5267 399.726 32.5411C399.804 33.398 399.93 34.2499 400.103 35.0927C400.59 37.4711 401.596 40.4322 404.519 40.4165C407.443 40.4007 409.234 37.8964 410.68 35.9118C410.822 35.7228 410.932 35.518 411.057 35.3133C411.346 36.6683 411.949 37.9363 412.818 39.0147C413.901 40.3984 415.482 41.3008 417.222 41.5276C418.962 41.7544 420.722 41.2876 422.122 40.2275C423.27 39.3737 424.242 38.3037 424.982 37.0773C425.331 37.8463 425.81 38.5496 426.396 39.1564C426.804 39.6201 427.312 39.9837 427.882 40.2193C428.452 40.4548 429.068 40.5559 429.684 40.5148C430.299 40.4737 430.896 40.2915 431.43 39.9823C431.963 39.673 432.419 39.2449 432.762 38.7312C433.835 37.2735 434.822 35.7535 435.716 34.1792C436.702 32.6286 437.494 30.9622 438.074 29.2177C438.372 28.1939 436.628 27.3591 436.125 28.3356" fill="white"/>
<path d="M400.92 11.183L401.093 11.372C401.3 11.5482 401.549 11.6676 401.816 11.7185C401.999 11.7421 402.184 11.7421 402.366 11.7185C402.826 11.6145 403.255 11.4034 403.618 11.1024C403.981 10.8014 404.268 10.4189 404.457 9.98597C404.865 9.13461 404.927 8.15744 404.629 7.26109C404.523 6.95708 404.363 6.67444 404.158 6.4263C403.946 6.12445 403.634 5.907 403.278 5.812C402.928 5.74255 402.564 5.78669 402.241 5.93801C401.762 6.16007 401.389 6.56168 401.203 7.05632C401.145 7.1805 401.108 7.3136 401.093 7.45009C401.034 7.48919 400.981 7.53697 400.936 7.59185C400.62 7.99767 400.405 8.47265 400.307 8.97792C400.214 9.5101 400.28 10.0581 400.496 10.553C400.597 10.8064 400.741 11.0408 400.92 11.246" fill="white"/>
<path d="M49.7888 27.9104H49.8831C49.3617 28.4704 48.8053 28.9965 48.2171 29.4855C47.5945 29.9845 46.9438 30.4472 46.2683 30.8715C47.308 29.7349 48.4915 28.7395 49.7888 27.9104ZM24.4857 34.4942C23.9985 35.4078 20.3523 40.6685 19.4722 37.8176C18.8593 35.8173 20.8552 32.9664 21.9868 31.5173C23.0593 30.1119 24.5342 29.0679 26.2144 28.5247C26.0671 30.6088 25.4947 32.6406 24.5328 34.4942H24.4857ZM9.28809 49.5677C9.28809 52.4029 9.28809 55.2538 9.47668 58.0889C9.47668 59.2545 10.4825 64.5625 8.48656 64.5467C6.05055 64.5467 5.67336 59.8215 5.67336 58.1519C5.68091 55.3972 6.48918 52.7043 7.99936 50.4025C8.40799 49.741 8.84804 49.0952 9.28809 48.4494V49.5677ZM60.3972 27.5166C60.6958 25.7841 57.8826 25.343 57.3954 26.9811C56.808 28.9551 56.0994 30.8909 55.2737 32.7774C54.8337 33.7382 54.3622 34.699 53.8593 35.6283C53.6078 36.1166 53.0263 37.6602 52.4134 37.7547C51.8004 37.8492 50.8418 36.6521 50.4331 36.3371C49.59 35.6951 48.6904 35.131 47.7456 34.6517C47.3999 34.4627 47.0384 34.3052 46.6769 34.1477C48.5029 33.1492 50.1756 31.892 51.6433 30.4148C52.8469 29.4583 53.6894 28.1195 54.0321 26.6188C54.0818 26.2829 54.0561 25.9401 53.9569 25.6154C53.8577 25.2907 53.6874 24.9922 53.4586 24.7417C53.2298 24.4913 52.9481 24.2951 52.634 24.1675C52.32 24.0399 51.9815 23.9841 51.6433 24.0042C50.1347 24.3149 48.729 25.0031 47.5571 26.0046C46.1758 26.9806 44.915 28.1173 43.8009 29.391L43.5651 29.706C44.3981 24.3822 45.2311 19.0427 46.0797 13.7189C46.1548 13.3451 46.0785 12.9566 45.8678 12.6391C45.6571 12.3216 45.3291 12.1009 44.956 12.0257C44.583 11.9505 44.1954 12.0269 43.8785 12.2381C43.5617 12.4493 43.3416 12.778 43.2665 13.1519C41.6135 19.8502 39.2587 26.3547 36.2414 32.5569C35.5342 33.9902 34.8269 35.455 34.0097 36.8253C33.1924 38.1957 32.2809 38.873 31.2751 37.4554C30.4546 35.9955 29.9211 34.3914 29.7034 32.7302C29.3442 31.0124 29.1182 29.2694 29.0276 27.5166C29.0898 27.3008 29.0805 27.0706 29.0012 26.8604C28.9219 26.6503 28.7768 26.4716 28.5876 26.3511C28.3389 26.0984 28.0062 25.9459 27.6528 25.9227C27.2994 25.8995 26.9497 26.0071 26.6702 26.2251C25.2365 26.4203 23.8609 26.9204 22.6358 27.6919C21.4106 28.4634 20.3641 29.4884 19.5665 30.6983C18.9708 31.5355 18.4452 32.4205 17.9949 33.3444C17.7588 33.4167 17.5504 33.5596 17.3977 33.7539C15.5589 35.9748 13.8301 38.2744 12.1013 40.5583C12.1013 39.881 12.1013 39.2037 12.1013 38.5264C12.3056 30.8085 12.8242 23.1064 13.5786 15.42C13.6111 15.1995 13.5869 14.9744 13.5082 14.7659C13.4294 14.5575 13.2988 14.3726 13.1287 14.229C12.9587 14.0854 12.7548 13.9878 12.5364 13.9454C12.3181 13.9029 12.0926 13.9172 11.8813 13.9867C9.54993 14.621 7.10636 14.7232 4.73039 14.286C4.43034 14.2013 4.10924 14.2359 3.83403 14.3826C3.55881 14.5293 3.3507 14.7768 3.25306 15.0735C1.87693 18.7973 1.72276 22.8641 2.81301 26.6818C3.14305 27.8789 5.04471 27.5954 4.73039 26.3668C3.96748 23.1859 4.12559 19.8529 5.18616 16.7589C7.07084 17.058 8.99075 17.058 10.8754 16.7589C9.93245 25.8418 9.40858 34.951 9.3038 44.0865C7.88017 45.8361 6.57291 47.6776 5.39047 49.5992C3.90825 52.0796 3.08576 54.8997 3.00161 57.7896C2.79689 60.527 3.51044 63.2545 5.02899 65.539C5.3596 66.0025 5.78074 66.3938 6.26683 66.6892C6.75292 66.9846 7.29382 67.1779 7.85673 67.2575C8.41963 67.337 8.99278 67.3011 9.54142 67.1519C10.0901 67.0027 10.6027 66.7434 11.0483 66.3896C12.9971 64.5625 12.3213 61.2391 12.227 58.8922C12.0384 54.23 11.9546 49.5572 11.9756 44.874C13.5472 42.7319 15.3231 40.6213 16.9576 38.4792C17.0655 38.8959 17.235 39.2941 17.4605 39.6605C19.6294 43.0784 23.6213 40.5268 25.4286 38.2114C26.1891 37.2037 26.8373 36.1157 27.3617 34.9668C27.6472 36.3726 28.1794 37.7165 28.9334 38.936C29.3066 39.6161 29.8547 40.1837 30.5207 40.5797C31.1868 40.9758 31.9465 41.1859 32.721 41.1883C33.5341 41.0317 34.2969 40.6788 34.9432 40.1601C35.5895 39.6413 36.0998 38.9725 36.43 38.2114C38.0183 35.5688 39.4052 32.8098 40.5791 29.958C40.1547 32.6041 39.7304 35.2345 39.3218 37.8334C39.2822 38.1948 39.3796 38.558 39.5947 38.8507C39.8098 39.1435 40.1269 39.3446 40.483 39.414C40.8392 39.4834 41.2083 39.4161 41.5172 39.2254C41.8261 39.0347 42.0523 38.7346 42.1507 38.3847C42.3698 37.5551 42.6536 36.7441 42.9994 35.9591C45.0457 36.4756 46.9621 37.4144 48.6258 38.7155C50.1974 39.9283 51.769 41.4561 53.8435 40.2905C55.9181 39.125 56.6882 36.7151 57.5526 34.888C57.6626 34.6832 57.7412 34.4627 57.8355 34.258C58.5722 36.4511 59.81 38.4413 61.4502 40.07C62.8646 41.4561 65.1749 39.4085 63.7605 38.0224C62.3681 36.6647 61.3291 34.9856 60.7345 33.132C60.1399 31.2785 60.0079 29.3072 60.3501 27.3906" fill="white"/>
<path d="M60.0671 16.0028C60.1021 16.0952 60.1441 16.1847 60.1928 16.2706C60.268 16.3773 60.3521 16.4774 60.4443 16.5698L60.8372 16.9951L61.1201 17.2629C61.2679 17.3943 61.4462 17.4863 61.6387 17.5306C61.819 17.578 62.0085 17.578 62.1888 17.5306C62.3796 17.524 62.5647 17.464 62.7232 17.3574C62.9029 17.2842 63.0601 17.1646 63.1789 17.0109C63.2527 16.9042 63.3209 16.7938 63.3832 16.6801C63.4939 16.4501 63.5375 16.1935 63.509 15.9398C63.509 15.8138 63.509 15.6878 63.509 15.5775C63.4202 15.3324 63.2684 15.115 63.0689 14.9475L62.6917 14.5537L62.346 14.2387C62.206 14.1049 62.032 14.0122 61.843 13.971C61.6717 13.8899 61.4801 13.8625 61.293 13.8922C61.1056 13.8924 60.9215 13.9412 60.7586 14.034C60.5813 14.1113 60.425 14.2301 60.3029 14.3805L60.0985 14.7113C59.9884 14.936 59.9396 15.186 59.9571 15.4358C59.9571 15.5303 59.9571 15.6406 59.9571 15.7508" fill="white"/>
<path d="M76.3493 26.9181C79.1939 26.9181 80.8598 29.5485 82.0542 31.9426C79.8808 32.0208 77.7061 31.8304 75.5792 31.3756C74.5733 31.2496 73.5675 31.1866 72.5774 31.1393C73.0017 29.1075 74.0233 26.8866 76.3493 26.9181ZM86.5176 37.6287C85.4547 37.8459 84.4052 38.1246 83.3744 38.4635C82.5619 38.6545 81.7376 38.7913 80.907 38.873C79.1936 39.0367 77.4648 38.8981 75.7992 38.4635C75.1328 38.3638 74.4999 38.1059 73.9532 37.7114C73.4064 37.3168 72.9616 36.7971 72.6559 36.1954C72.4146 35.481 72.308 34.7279 72.3416 33.9745C73.5788 34.0309 74.8119 34.1572 76.0349 34.3525C78.9047 35.0612 81.9033 35.0612 84.7731 34.3525C85.137 34.2115 85.4305 33.932 85.5895 33.5749C85.7485 33.2179 85.7601 32.8123 85.6218 32.4467C84.2545 29.3753 82.6515 26.1464 79.4453 24.6815C78.1087 24.0024 76.5761 23.8164 75.1163 24.1562C73.6565 24.496 72.3626 25.34 71.4615 26.5401C70.5277 27.9249 69.9155 29.5019 69.6699 31.1551C68.3786 31.2233 67.0927 31.3706 65.8194 31.5961C64.4364 31.8481 64.8136 34.132 66.1966 34.0217C67.281 34.0217 68.3654 33.9115 69.4498 33.8957V34.6833C69.4424 36.3384 70.0471 37.9377 71.1472 39.1722C72.2963 40.2737 73.7361 41.0225 75.2963 41.3301C77.2187 41.828 79.211 41.9984 81.1898 41.8341C83.5161 41.8002 85.7739 41.0404 87.6492 39.6605C87.8276 39.4784 87.9442 39.2446 87.9823 38.9923C88.0204 38.7399 87.9781 38.482 87.8615 38.2551C87.7448 38.0283 87.5597 37.8441 87.3326 37.7288C87.1054 37.6135 86.8477 37.5729 86.5962 37.6129" fill="white"/>
</g>
<defs>
<clipPath id="clip0_0_2090">
<rect width="455" height="135" fill="white"/>
</clipPath>
</defs>
</svg>
