<svg width="374" height="772" viewBox="0 0 374 772" fill="none" xmlns="http://www.w3.org/2000/svg">
<path d="M577.026 754.75C571.773 760.754 564.974 766.365 558.566 771.537C517.158 728.744 468.545 681.317 422.337 681.317C393.689 681.317 373.056 703.124 348.985 718.511C315.578 739.864 269.757 751.889 230.49 736.219C209.369 728.198 188.906 716.386 173.613 697.196C204.519 718.511 250.801 721.378 285.694 706.902C324.261 690.901 363.514 669.655 407.463 669.655C472.254 669.655 533.83 713.482 577.026 754.752V754.75ZM98.1734 620.16C141.07 668.99 211.031 653.28 268.296 665.476C276.267 667.173 283.753 669.819 292.309 668.507C285.503 664.189 276.477 663.703 268.614 660.741C224.183 644.003 217.256 596.449 192.939 563.723C223.998 584.37 249.728 612.638 278.771 639.201C298.982 657.689 324.165 665.601 350.284 670.915C344.008 673.209 335.798 672.668 329.039 674.344C282.125 685.982 230.111 704.353 180.192 687.88C147.975 677.249 114.452 652.072 98.1734 620.16ZM29.4137 507.146C56.1703 567.725 123.395 572.47 168.093 609.632C176.592 616.7 185.019 623.204 194.355 627.557L194.836 627.069C184.522 617.737 173.361 606.615 165.371 595.008C139.824 557.886 148.326 507.148 128.628 467.793C146.524 489.222 163.31 511.286 173.614 535.822C190.197 575.305 195.831 620.347 233.023 650.348C192.771 637.068 146.333 639.712 110.085 615.971C71.9844 591.014 36.6723 551.622 29.4137 507.146ZM0.751788 384.585C4.62096 437.957 61.4416 466.467 88.5375 510.341C94.3237 519.711 100.278 529.384 108.683 536.951C107.372 531.27 102.696 526.235 100.122 520.659C91.4336 501.834 87.5001 480.05 89.6687 457.648C92.3092 430.395 103.671 405.085 99.3104 376.413C122.664 426.822 115.13 489.84 128.628 544.344C131.613 556.402 138.956 566.954 143.48 578.375C120.534 560.919 90.4643 545.424 65.2776 525.572C40.9198 506.372 19.7759 483.869 8.78661 454.587C0.868849 433.488 -1.19255 408.32 0.751788 384.585ZM2.33929 286.245C5.0793 274.333 7.17576 262.004 12.3594 251.077C2.54796 301.425 36.0424 337.794 47.4783 381.353C51.7882 397.768 53.2626 415.209 59.901 430.527C60.5192 430.859 61.0555 430.215 61.4377 429.72C44.9138 383.362 69.1371 340.518 92.7363 303.978C98.9379 294.373 101.926 283.189 104.822 271.881C107.372 292.867 102.907 317.161 99.0237 338.816C94.0254 366.696 84.4968 392.826 76.9242 419.725C71.9376 436.53 73.252 455.495 75.8106 473.102L73.4041 471.183C55.8348 438.747 21.1703 413.408 10.7017 378.007C2.33538 349.713 -3.45277 317.026 2.33929 286.245ZM20.8699 232.086C20.8699 193.985 35.705 162.905 57.9586 134.53C58.6041 134.208 59.0643 133.561 59.8971 133.711C35.4008 170.977 57.6973 218.015 54.5497 260.282L51.3182 303.662C51.798 303.978 51.7979 305.28 52.9369 304.781C54.3839 299.945 54.8227 294.8 55.6652 289.806C61.5626 254.835 92.2702 230.493 118.315 205.803C124.272 200.163 128.907 193.276 131.89 185.634C129.726 203.055 124.866 220.913 117.045 236.745C96.9994 277.328 58.2823 310.088 51.3182 356.208C47.9425 312.007 20.8699 279.148 20.8699 232.086ZM85.4445 103.563C97.7619 89.9036 111.569 79.2634 128.005 75.0568C96.0887 97.0023 97.8224 136.226 88.05 169.023C84.4772 181.014 79.2254 192.249 76.4327 204.643L77.2421 205.286C82.5505 191.276 91.6617 177.808 103.533 166.608C125.981 145.429 159.733 132.609 170.841 101.628C170.334 144.68 133.634 177.408 100.116 202.726C85.0799 214.084 72.3062 229.33 64.5093 245.314C65.812 233.418 66.4029 223.521 65.342 211.909C61.9019 174.3 59.6689 132.139 85.4445 103.563ZM214.992 31.1776C191.305 51.9627 175.5 78.7173 157.301 102.767C142.168 122.77 121.4 135.164 103.54 151.949C113.18 131.948 114.961 109.029 127.204 89.6793C148.139 56.5905 182.741 43.7485 214.992 31.1776Z" fill="white" fill-opacity="0.3"/>
<path d="M743.927 461.539L736.93 457.721C722.163 488.159 702.588 516.02 678.959 540.231L638.085 499.355C658.109 478.722 674.255 455.3 686.149 429.987L679.187 426.178C667.489 451.147 651.721 473.998 632.529 493.795L595.502 456.769C611.172 440.501 623.898 421.636 633.114 401.015L626.204 397.245C617.347 417.21 605.083 435.48 589.962 451.24L549.043 410.321C560.268 398.447 569.139 384.553 575.187 369.373L568.276 365.604C562.605 380.13 554.208 393.437 543.538 404.808L506.398 367.675C516.942 355.954 523.148 340.972 523.981 325.229H576.55C576.118 339.061 573.319 352.716 568.276 365.604L575.187 369.373C580.78 355.304 583.862 340.361 584.291 325.227H642.24C641.744 350.062 636.291 374.547 626.202 397.245L633.112 401.015C643.649 377.418 649.474 351.773 649.987 325.223H702.456C701.944 360.144 694.01 394.556 679.181 426.176L686.147 429.985C701.382 397.565 709.662 362.031 710.208 325.225H768.154C767.575 372.65 756.403 417.555 736.928 457.721L743.927 461.535C764.878 418.383 776 370.731 776 321.35C776 279.357 767.953 238.617 752.668 200.822L745.487 203.91C759.884 239.575 767.688 277.929 768.168 317.477H710.214C709.744 285.927 703.545 255.332 692.202 226.813L685.076 229.867C696.017 257.438 702.004 286.995 702.466 317.477H649.991C649.563 294.587 645.11 271.951 636.835 250.605L629.707 253.667C637.576 274.043 641.822 295.638 642.252 317.477H584.297C583.903 303.503 581.251 289.685 576.443 276.558L569.317 279.616C573.725 291.772 576.169 304.552 576.556 317.477H523.987C523.154 301.733 516.947 286.751 506.402 275.031L543.579 237.86C555.059 250.069 563.743 264.246 569.321 279.618L576.445 276.56C570.478 260.303 561.24 245.304 549.049 232.384L590.028 191.409C607.516 209.61 620.863 230.742 629.709 253.667L636.837 250.605C627.6 226.793 613.698 204.838 595.506 185.933L632.61 148.821C655.59 172.521 673.245 200.021 685.076 229.869L692.202 226.815C679.979 196.076 661.77 167.753 638.087 143.354L679.06 102.373C708.04 132.059 730.391 166.505 745.485 203.912L752.666 200.824C736.717 161.355 712.872 125.103 681.862 94.0946C650.739 62.9696 614.328 39.07 574.686 23.1175L571.831 30.3859C609.319 45.4862 643.842 67.8645 673.582 96.897L632.609 137.876C608.621 114.63 580.831 96.6103 550.662 84.4021L547.834 91.61C577.009 103.446 603.898 120.875 627.134 143.415L590.032 180.519C571.995 163.166 551.196 149.692 528.65 140.468L525.818 147.674C547.391 156.514 567.287 169.409 584.558 185.995L543.585 226.969C532.059 216.106 518.879 207.58 504.639 201.634L501.806 208.846C515.221 214.478 527.517 222.473 538.108 232.449L500.938 269.619C489.123 259.038 474.316 252.904 458.482 252.04V199.473C473.376 199.914 488.062 203.091 501.806 208.847L504.639 201.634C490.161 195.586 474.571 192.199 458.484 191.727V133.773C481.949 134.245 504.684 139.013 525.82 147.676L528.652 140.468C506.626 131.458 482.928 126.505 458.484 126.033V73.5337C489.599 74.0096 519.771 80.2151 547.832 91.5925L550.66 84.3846C521.705 72.6562 490.588 66.2673 458.48 65.7915V7.83193C497.952 8.31168 536.236 16.091 571.835 30.4249L574.69 23.1565C537.024 7.9899 496.437 0 454.613 0C402.943 0 354.122 12.3271 310.828 34.0834L314.359 40.8428C356.253 19.8509 402.605 8.41505 450.742 7.8339V65.7935C412.736 66.3368 375.337 75.4058 341.303 92.3316L344.823 99.0714C377.417 82.9376 413.396 74.0973 450.742 73.5279V126.007C422.455 126.542 394.627 133.252 369.204 145.667L372.744 152.438C396.811 140.757 423.276 134.302 450.742 133.748V191.705C433.059 192.215 415.67 196.357 399.657 203.875L403.216 210.673C417.971 203.816 434.068 199.96 450.742 199.444V252.021C442.792 252.458 434.976 254.264 427.64 257.358L431.193 264.151C438.628 261.113 446.584 259.556 454.615 259.568C471.125 259.568 486.647 265.998 498.325 277.672C510.002 289.347 516.43 304.877 516.43 321.389C516.43 355.474 488.704 383.214 454.613 383.214C438.097 383.214 422.571 376.782 410.896 365.106C399.22 353.425 392.79 337.901 392.79 321.389C392.79 304.875 399.22 289.347 410.896 277.672C416.695 271.861 423.595 267.264 431.191 264.151L427.638 257.356C420.563 260.346 414.032 264.488 408.312 269.613L371.122 232.421C380.588 223.504 391.422 216.161 403.212 210.671L399.653 203.873C387.176 209.73 375.71 217.532 365.681 226.986L324.664 185.968C338.836 172.342 355.059 161.027 372.742 152.436L369.203 145.665C350.839 154.624 333.987 166.396 319.256 180.554L282.086 143.387C300.567 125.444 321.732 110.492 344.819 99.0695L341.299 92.3297C317.533 104.124 295.738 119.529 276.69 137.997L235.63 96.936C258.818 74.2854 285.375 55.3634 314.355 40.8428L310.826 34.0834C248.248 65.5302 197.305 116.777 166.282 179.6L173.016 183.234C187.668 153.439 206.955 126.158 230.156 102.408L271.219 143.471C252.005 163.258 236.108 186.013 224.14 210.862L230.849 214.484C242.296 190.568 257.644 168.418 276.606 148.864L313.778 186.032C298.707 201.716 286.349 219.798 277.212 239.538L283.935 243.165C292.703 224.069 304.622 206.585 319.192 191.444L360.208 232.462C349.642 243.666 341.149 256.656 335.123 270.828L341.9 274.495C347.542 260.963 355.584 248.563 365.64 237.894L402.83 275.084C392.62 286.496 386.138 301.249 385.239 317.51H332.658C333.1 302.728 336.231 288.15 341.9 274.491L335.121 270.824C328.841 285.615 325.38 301.448 324.916 317.51H266.966C267.489 291.43 273.337 266.247 283.933 243.161L277.208 239.534C265.865 263.996 259.743 290.553 259.232 317.512H206.746C207.298 281.27 215.612 246.307 230.847 214.48L224.14 210.858C208.55 243.231 199.585 279.366 199.016 317.512H141.054C141.624 270.179 152.685 224.57 173.012 183.232L166.278 179.599C145.148 222.397 133.218 270.514 133.218 321.385C133.218 352.502 137.663 382.913 146.152 411.967L153.742 410.056C145.662 382.502 141.393 353.971 141.054 325.258H199.006C199.341 349.202 203.032 372.981 209.97 395.9L217.484 394.008C210.764 371.975 207.109 348.887 206.746 325.258H259.222C259.587 344.241 262.709 363.07 268.489 381.154L276.017 379.255C270.38 361.794 267.332 343.602 266.968 325.258H324.918C325.305 338.836 327.822 352.268 332.375 365.065L339.907 363.164C335.496 350.993 333.049 338.199 332.658 325.26H385.233C386.065 341.003 392.27 355.985 402.812 367.706L365.64 404.88C354.173 392.676 345.49 378.516 339.905 363.166L332.373 365.065C338.321 381.747 347.698 397.14 360.163 410.353L319.19 451.33C299.259 430.58 284.672 405.988 276.032 379.27L268.505 381.17C277.476 409.225 292.773 435.034 313.732 456.818L276.621 493.93C248.87 465.313 228.826 431.175 217.501 394.018L209.987 395.911C221.657 434.402 242.394 469.779 271.145 499.402L230.17 540.379C193.904 503.22 168.002 458.622 153.762 410.07L146.169 411.981C161.108 463.095 188.664 509.952 227.371 548.65C253.584 574.87 283.545 595.973 316.027 611.524L319.873 604.702C289.132 590.052 260.696 570.311 235.644 545.852L276.617 504.878C297.578 525.252 321.876 541.88 348.456 554.04L352.279 547.258C326.62 535.615 302.89 519.561 282.099 499.406L319.206 462.298C336.597 479.03 356.565 492.145 378.189 501.333L382.011 494.562C361.008 485.747 341.584 473.071 324.695 456.845L365.673 415.868C378.84 428.29 394.169 437.645 410.786 443.599L414.66 436.74C398.46 431.127 383.632 422.148 371.151 410.393L408.323 373.219C420.13 383.809 434.936 389.938 450.769 390.806V443.381C438.467 443.003 426.292 440.764 414.66 436.742L410.786 443.601C423.635 448.199 437.129 450.737 450.769 451.121V509.067C426.79 508.587 403.555 503.622 382.027 494.591L378.207 501.362C400.909 511.011 425.43 516.324 450.769 516.813V569.291C416.239 568.758 382.891 561.168 352.296 547.287L348.474 554.068C380.233 568.581 414.89 576.497 450.771 577.033V634.977C404.743 634.425 360.321 623.99 319.892 604.73L316.044 611.551C358.773 632.003 405.87 642.815 454.644 642.815C505.803 642.815 555.098 630.86 599.461 608.414L595.799 601.309C554.426 622.264 507.849 634.375 458.509 634.981V577.035C497.628 576.456 535.285 567.079 569.307 549.966L565.69 542.954C532.417 559.73 495.769 568.734 458.509 569.287V516.809C487.86 516.244 516.108 509.204 541.699 496.438L538.102 489.46C513.355 501.82 486.167 508.517 458.509 509.065V451.119C477.202 450.573 495.196 446.074 511.574 438.057L508.005 431.12C492.561 438.666 475.69 442.843 458.509 443.375V390.806C474.256 389.974 489.24 383.767 500.961 373.219L538.095 410.356C529.159 418.743 519.015 425.742 508.003 431.12L511.574 438.057C523.307 432.314 534.107 424.834 543.608 415.87L584.519 456.783C570.788 469.96 555.137 480.978 538.101 489.46L541.697 496.438C559.456 487.587 575.764 476.084 590.061 462.325L627.086 499.347C608.953 516.916 588.25 531.62 565.69 542.956L569.307 549.968C592.592 538.264 613.95 523.068 632.642 504.907L673.516 545.781C650.712 568.039 624.494 586.782 595.799 601.309L599.461 608.414C629.933 592.999 657.758 572.835 681.896 548.679C707.681 522.9 728.487 493.479 743.96 461.613L743.927 461.539Z" fill="white" fill-opacity="0.3"/>
<path d="M471.067 247.05L471.158 249.376L473.114 249.283L473.007 246.972L471.067 247.05ZM468.221 243.879H470.811V245.852H468.221V243.879ZM465.826 243.53L466.099 241.578L463.823 241.252L463.551 243.188L465.826 243.53ZM461.63 242.527L459.367 242.2L459.642 240.242L461.905 240.569L461.63 242.527ZM442.947 239.92H445.537V241.895H442.947V239.92ZM439.561 244.181L439.836 242.227L437.574 241.901L437.301 243.855L439.561 244.181ZM437.533 246.835L434.935 246.176L435.407 244.261L438.005 244.922L437.533 246.835ZM432.892 249.267L432.57 247.292L434.491 246.97L434.813 248.943L432.892 249.267ZM178.406 455.421H180.362L180.024 450.491L177.429 449.497V447.855H175.81V451.143H178.406V455.421ZM198.512 469.888L200.774 471.548L203.05 476.48L201.752 478.773L198.192 475.487L195.595 471.873L194.296 468.913L192.018 462.988L196.878 465.283L198.512 469.888ZM275.669 568.601L273.392 569.919L272.095 567.949L268.856 566.956L268.534 563.996L265.936 560.041L269.833 560.708L274.035 564.322L275.669 568.601ZM444.565 268.217H441L440.351 260.982L442.297 259.66V256.042H430.947L430.626 252.426L432.25 251.438L429.654 250.451L427.708 253.08L427.064 256.042L423.821 256.703V258.345H421.553V262.62L412.473 270.187L394.321 269.533C393.018 272.492 389.777 269.202 389.777 269.202C389.133 267.228 384.595 269.202 384.595 269.202C384.595 272.823 378.436 267.558 378.436 267.558L367.086 259.33C360.604 253.409 350.88 260.978 350.557 262.62C350.88 267.228 343.101 263.609 343.101 263.609C343.101 263.609 336.619 261.637 335.644 264.27C334.674 266.899 330.452 266.245 330.452 266.245L329.803 267.56L326.56 268.217L325.916 270.189L322.023 270.852L331.747 270.52C334.341 270.191 330.772 276.115 329.153 275.786L324.621 276.115L322.995 277.757H318.782L316.838 280.394L310.681 280.062C310.681 280.062 307.112 283.025 307.44 284.01C307.764 284.998 306.791 287.961 305.815 287.961C304.842 287.961 302.898 290.919 303.547 291.906C304.199 292.895 301.603 296.185 301.603 296.185L300.957 299.479L299.013 300.132V309.017L295.121 311.65V315.597L289.282 321.849L289.933 327.111L285.073 332.376L285.717 337.642L282.799 338.629L282.156 340.93L280.859 347.837L284.1 348.169C285.717 347.51 285.395 352.448 284.1 353.103C282.799 353.762 279.232 355.074 281.183 356.389C283.129 357.711 275.995 357.38 275.995 355.404C275.995 353.434 272.103 351.786 271.133 352.446C270.158 353.101 268.536 349.485 268.536 349.485C264.971 345.868 253.948 349.813 253.948 349.813L252.322 355.076C248.761 355.738 246.491 361.658 246.491 361.658C243.573 362.647 241.305 366.261 242.278 367.249C243.25 368.238 240.654 368.566 240.654 368.566V375.807L239.035 378.108L239.355 386.002C241.305 386.002 240.981 389.626 240.981 389.626C237.738 389.954 238.382 394.232 238.382 394.232L231.578 396.533L230.283 398.507L221.854 398.176L219.586 400.481L217.31 398.176H201.102L200.458 396.532L197.215 395.869L196.888 392.255L192.028 392.581L191.057 394.556L185.867 394.882C186.191 398.174 180.68 403.111 180.036 401.799C179.379 400.481 175.816 396.857 177.44 396.206C179.063 395.543 183.279 394.882 183.279 394.882V392.581L171.28 392.255L169.987 394.23L165.119 394.556V399.822L162.853 400.481C161.229 401.464 163.173 405.087 163.173 405.087C165.443 407.388 162.853 411.004 162.853 411.004C160.903 412.979 164.47 416.603 164.47 416.603C167.065 417.256 162.851 419.232 162.851 419.232C163.495 422.52 165.445 423.508 165.445 423.508C163.495 426.796 166.746 428.439 166.746 428.439L167.065 434.04L169.335 435.356V438.968L170.63 441.273H175.818L175.494 433.049C170.954 427.783 179.381 426.467 179.71 428.437C180.038 430.412 183.603 431.401 183.603 431.401C184.252 436.339 189.766 439.295 191.38 434.365C193.003 429.423 194.3 432.39 195.273 434.689C196.246 436.996 202.397 442.589 202.397 442.589H207.265L207.916 447.197C213.425 446.866 215.042 447.533 217.312 455.092C219.586 462.655 225.743 464.63 225.743 464.63L230.283 464.303C230.283 460.359 234.823 464.966 234.823 466.943C234.823 468.909 243.573 476.478 243.573 476.478L252.324 478.447L260.437 485.037L266.591 484.378H269.189C270.806 478.779 278.589 484.702 279.232 486.679C279.888 488.653 285.073 491.944 285.715 490.295C286.368 488.653 289.933 489.641 290.583 494.571C291.23 499.513 293.496 498.524 293.496 498.524L311.978 498.195L318.46 492.596L334.998 492.272C343.423 491.943 338.235 480.425 336.621 480.425C333.701 478.124 337.59 468.583 337.59 468.583L313.924 446.54C308.413 446.54 313.275 438.64 313.275 438.64C317.487 436.005 312.3 431.736 312.3 431.736C312.951 427.781 310.03 423.175 310.03 423.175C304.199 419.228 305.817 411.657 305.817 411.657V406.392C300.958 401.789 307.764 401.126 307.764 401.126C310.03 397.187 306.139 394.223 306.139 394.223L305.817 389.944L300.63 389.283L299.986 373.818L288.314 357.044C286.041 356.381 287.663 352.436 287.663 352.436C290.581 350.79 287.01 346.847 287.01 346.847L286.688 339.606L293.494 338.943L295.117 336.316H298.358L298.036 327.76C299.655 323.483 303.544 325.785 303.544 325.785L308.082 326.116L310.679 321.178L311.323 317.229L307.76 316.903C303.869 314.598 305.814 306.047 305.814 306.047C311.974 296.83 319.102 302.096 319.102 302.096L323.646 301.77C330.45 306.372 324.29 314.928 324.29 314.928C322.993 316.903 323.646 323.154 323.646 323.154L325.265 333.679L321.048 337.302C317.485 339.278 317.485 343.882 321.376 344.869C323.968 345.195 322.995 351.449 319.102 347.17C313.271 347.17 322.351 352.436 319.755 351.114C325.592 354.078 324.29 348.485 324.29 348.485L332.077 342.232C334.996 339.931 340.184 347.17 340.184 348.159C340.184 349.144 353.148 348.483 353.148 348.483C356.713 350.786 358.008 356.713 358.008 356.713C361.579 352.1 369.033 356.377 363.523 359.014C368.705 362.304 368.705 365.262 368.705 365.262C372.925 363.948 372.925 367.238 372.925 368.227C372.925 369.213 374.22 363.293 374.22 363.293C369.358 359.671 380.703 358.355 377.465 364.937L375.515 367.901L378.76 370.53L379.08 378.1C386.216 377.437 384.27 368.554 384.27 368.554L387.511 367.899C387.511 364.935 389.777 366.581 389.777 366.581C387.511 355.392 394.968 353.423 394.968 353.423C399.181 352.436 399.504 343.547 399.504 343.547C396.591 342.232 398.206 337.628 401.451 341.579C404.688 345.521 399.504 333.677 399.504 333.677L396.911 331.376L393.348 331.048L393.02 327.429H387.189L386.214 332.037L383.948 332.694L383.294 331.376L382.325 334.995H376.49L376.169 331.048L379.733 330.061L381.03 328.088L382 322.822H386.218L391.727 321.178C392.047 315.585 394.968 316.903 394.968 316.903L396.913 318.546L399.83 320.849L400.156 322.818L398.208 323.805L397.888 326.442L398.861 330.059H401.451C402.424 324.794 409.236 324.794 411.178 328.086L413.126 323.479C408.588 321.178 413.041 317.555 414.336 319.203C415.632 320.849 418.636 314.926 418.636 314.926C418.636 314.926 420.904 317.886 418.636 313.937C416.366 309.988 420.254 308.016 420.254 308.016C419.609 304.069 424.471 304.726 424.471 304.726L424.796 299.465L420.252 299.131C419.287 303.738 415.396 299.792 417.339 298.806C419.289 297.817 421.226 295.841 421.226 295.841V292.552L423.174 291.894L423.496 288.604H428.361L432.574 286.631L433.549 284.985L438.085 284.657L444.567 278.732L443.924 276.104C440.033 276.104 443.924 273.139 443.924 273.139L444.564 268.217H444.565Z" fill="white" fill-opacity="0.3"/>
<path d="M313.923 333.353L308.086 332.696L308.414 334.997H310.032C312.622 339.606 310.356 350.79 310.356 350.79C310.356 350.79 306.469 351.116 305.818 349.146C305.174 347.172 303.548 353.425 304.843 354.411C306.14 355.394 310.682 354.411 311.005 358.033C311.325 361.649 313.923 355.728 313.923 355.728V333.353Z" fill="white" fill-opacity="0.3"/>
<path d="M315.21 370.2L315.867 367.238L313.591 366.263L313.911 361.329L315.867 360.989L316.189 358.678L311.313 361.982L308.076 360.012V367.905L313.27 374.804L315.21 370.2ZM316.509 378.759L314.247 379.085L313.911 381.722L316.509 382.048V378.759ZM313.591 395.537L310.842 395.863V398.174L313.591 397.848V395.537ZM317.414 387.724C318.174 387.724 318.785 387.102 318.785 386.334C318.787 386.152 318.753 385.971 318.686 385.802C318.618 385.634 318.517 385.48 318.39 385.35C318.262 385.22 318.111 385.116 317.943 385.045C317.776 384.974 317.596 384.937 317.414 384.936C317.232 384.937 317.051 384.974 316.884 385.045C316.716 385.116 316.564 385.22 316.436 385.35C316.308 385.479 316.207 385.633 316.139 385.802C316.071 385.971 316.037 386.152 316.039 386.334C316.039 387.102 316.655 387.724 317.414 387.724Z" fill="white" fill-opacity="0.3"/>
<path d="M319.672 394.638C320.431 394.638 321.047 394.013 321.047 393.242C321.047 392.471 320.431 391.846 319.672 391.846C318.913 391.846 318.297 392.471 318.297 393.242C318.297 394.013 318.913 394.638 319.672 394.638Z" fill="white" fill-opacity="0.3"/>
<path d="M319.748 357.051C320.508 357.051 321.123 356.426 321.123 355.655C321.123 354.884 320.508 354.26 319.748 354.26C318.989 354.26 318.373 354.884 318.373 355.655C318.373 356.426 318.989 357.051 319.748 357.051Z" fill="white" fill-opacity="0.3"/>
<path d="M544.084 148.124C543.762 146.806 543.109 142.198 545.057 142.527C547.001 142.859 545.706 142.527 547.975 143.516C550.245 144.505 550.568 141.872 550.568 141.872H554.137L558.671 145.488L558.022 148.452L554.781 148.778C553.162 146.149 549.919 147.136 550.568 149.441C551.216 151.742 548.95 156.019 547.655 156.345C546.358 156.676 542.136 156.676 542.467 154.704C542.789 152.729 544.084 148.124 544.084 148.124ZM541.49 139.232V136.601C541.49 136.601 541.159 133.97 539.544 133.97C537.927 133.97 535.008 131.998 535.651 130.68C536.305 129.362 530.142 128.047 530.142 128.047C530.142 128.047 524.635 122.782 526.579 123.445C528.525 124.1 527.554 121.138 527.554 121.138C527.554 121.138 523.66 121.795 522.686 121.469C521.711 121.138 522.035 118.177 522.035 118.177C522.035 118.177 518.15 117.191 518.15 118.177C518.15 119.166 519.447 119.166 520.089 121.136C520.742 123.109 520.418 126.401 523.34 127.059C526.257 127.718 526.901 128.373 527.23 129.691C527.554 131.01 531.117 131.335 531.117 131.335L533.713 132.652L541.49 139.232ZM505.521 103.044L502.923 102.393V105.357L506.482 105.681L505.521 103.044ZM505.509 91.8616C502.12 89.2873 510.043 93.8371 510.043 93.8371C512.635 93.8371 514.256 95.8107 514.256 96.8014C514.256 97.7862 517.825 97.4586 517.825 97.4586L518.154 95.1516L515.555 91.8616L513.288 90.2215C513.288 90.2215 509.724 89.8899 509.724 88.9031C509.724 87.9183 506.804 92.8503 505.509 91.8616ZM565.146 93.8313C564.198 96.7097 563.851 100.743 562.228 100.743C560.61 100.743 561.253 105.023 561.253 105.023C561.253 105.023 565.475 105.023 566.772 105.349C568.063 105.675 568.063 108.965 568.063 108.965C572.931 108.639 574.877 115.219 574.226 116.863C573.575 118.507 576.17 118.507 576.17 118.507C576.17 118.507 576.17 123.773 575.519 125.087C574.875 126.405 579.735 127.392 581.03 129.366C582.327 131.341 580.379 137.919 579.412 138.249C578.436 138.58 581.999 139.563 581.678 141.209C581.35 142.857 582.653 141.209 582.975 143.842C583.296 146.475 583.95 152.066 583.95 152.066L588.484 152.397C589.135 148.123 597.494 147.957 598.859 148.448C604.37 150.422 608.59 158.977 608.59 160.949C608.59 162.922 605.019 163.256 605.019 163.256L605.671 172.792C611.18 174.44 615.718 182.339 615.073 183.655C614.423 184.969 618.957 184.644 618.957 184.644C619.611 178.715 625.12 180.693 625.44 182.668C625.771 184.644 626.739 188.92 626.739 188.92L628.361 191.877L630.629 194.18L634.194 193.852L635.169 195.828L639.382 196.489C639.382 196.489 642.953 200.432 643.274 201.423C643.602 202.406 648.462 202.08 649.757 202.406C651.052 202.738 653 203.724 653.322 205.37C653.649 207.016 655.596 209.647 655.596 209.647C655.596 209.647 659.482 210.636 659.808 211.948C660.132 213.263 661.756 216.225 661.756 216.225L664.99 218.858L665.317 221.822L668.882 222.152L669.857 226.095L675.688 225.769L678.935 223.466C683.148 221.165 686.067 218.201 686.393 216.884C686.713 215.568 687.362 210.636 690.605 211.623C693.845 212.609 691.581 204.382 691.581 204.382C691.581 204.382 687.042 201.092 687.362 199.444C687.688 197.802 682.828 194.514 683.15 193.195C683.472 191.877 678.935 189.248 679.257 187.932C679.579 186.613 676.989 182.994 676.989 182.994L672.123 178.391L671.474 175.427L667.587 175.101L659.808 165.559L660.13 162.924L657.862 162.597V158.979L655.596 157.661L652.027 157.331L644.897 149.439L644.248 145.817H640.683L641.328 138.906C643.6 135.944 642.301 130.352 642.301 130.352C642.301 130.352 637.757 132.654 635.495 131.667C633.221 130.684 636.464 128.377 636.464 128.377V125.746L634.522 123.772C634.522 123.772 629.007 124.434 628.685 123.447C628.361 122.458 627.39 118.181 627.39 118.181L627.064 112.584L624.798 111.603L624.469 109.626L620.908 109.953V106.006L618.959 105.349L617.017 104.362L616.693 100.411L609.559 100.086L607.291 96.7955L604.7 92.8464L596.595 92.1892L594.648 90.2195L591.407 89.5565L589.139 88.5697L588.166 90.2176L582.003 90.5433L581.683 92.5188C578.442 94.1628 565.477 92.8445 565.146 93.8313ZM599.196 85.2894C598.683 82.6918 605.684 80.3555 607.303 82.3251C608.928 84.3007 613.464 84.6342 614.113 94.5041C614.341 98.0378 608.276 90.8865 608.276 90.8865L603.411 89.2405C600.819 88.5794 599.518 86.9393 599.198 85.2894H599.196ZM504.111 89.3088L502.34 88.5092L503.641 85.5449L505.412 86.3465L504.111 89.3088ZM487.353 56.9922L483.131 52.7135V49.0959L481.834 47.7757L480.539 43.1732L476.327 41.8568L472.11 43.4989L467.572 46.4612L462.712 47.1243L460.115 50.0808L470.49 51.0637L472.432 54.3595L479.895 55.0167L484.751 59.9507C488.975 61.269 489.945 59.2935 487.353 56.9922ZM486.709 40.8642C485.996 37.9721 481.844 44.4818 486.066 45.7943C490.278 47.1184 494.487 45.7943 494.487 45.7943L495.462 43.8226L511.668 44.1541C512.971 42.8358 513.614 40.8622 513.614 40.8622C513.614 40.8622 517.507 39.5439 519.123 40.2011C520.746 40.8642 519.453 35.5987 517.827 36.2559C516.208 36.9131 512.969 36.5835 512.969 36.5835H507.13C506.808 34.2823 501.62 35.2671 501.299 36.5835C500.967 37.8999 499.031 38.2275 499.031 38.2275L491.573 38.8886C490.924 40.8642 487.037 42.1786 486.709 40.8642ZM454.609 96.386C459.594 97.9676 461.415 96.7955 461.745 95.4811C462.067 94.1647 462.389 93.8332 464.335 93.5075C466.279 93.176 464.009 89.2308 462.067 89.5584C460.119 89.888 458.174 88.9012 457.854 87.2572C457.523 85.6132 454.282 81.3345 453.96 84.6244C453.636 87.9163 451.692 87.9163 452.014 90.2195C452.341 92.5168 453.314 95.9706 454.609 96.386ZM417.341 100.091C417.107 98.9271 423.824 98.7769 424.799 99.7598C425.774 100.749 425.12 102.393 428.04 102.393C430.953 102.393 429.659 104.368 429.335 105.357C429.013 106.342 425.774 106.014 425.442 105.029C425.121 104.04 420.255 103.707 420.255 103.707C420.255 103.707 417.663 101.731 417.341 100.091ZM524.894 34.2921L525.565 33.7382L528.82 31.1054L527.597 29.5648L525.031 31.6417L523.381 29.9646L522.006 31.3589L524.268 33.6621L524.894 34.2921ZM510.24 25.5747L513.817 23.2696L512.778 21.6061L509.722 23.5758L507.643 22.2613L506.621 23.9346L509.216 25.5767L509.722 25.9082L510.24 25.5747ZM500.158 96.3314L501.792 95.2764L499.53 91.6627L499.271 91.2609L498.797 91.2141L495.559 90.8728L495.36 92.8425L498.139 93.1214L500.158 96.3314ZM392.047 182.994L392.379 186.615H397.235C399.183 186.615 395.616 184.312 395.616 184.312C395.616 184.312 391.727 184.644 392.047 182.994ZM398.229 183.101L399.472 181.58L401.416 183.218L400.174 184.739L398.229 183.101ZM339.162 121.545L340.541 120.149L342.485 122.125L341.106 123.521L339.162 121.545ZM431.968 548.241L433.588 546.598L434.536 545.637L433.329 545.017L430.091 543.373L429.22 545.14L431.25 546.164L430.579 546.846L431.968 548.241ZM407.37 524.657L408.501 523.058L407.249 522.145L408.226 521.322L406.988 519.803L405.034 521.447L404.07 522.268L405.094 523.013L407.37 524.657ZM649.297 458.906C648.867 457.229 646.976 456.543 646.763 456.473L646.145 458.349V458.337C646.299 458.395 646.523 458.512 646.75 458.661L647.145 460.367C647.013 460.565 646.87 460.755 646.716 460.936L648.144 462.272C649.183 461.114 649.568 459.991 649.297 458.906ZM649.123 452.459L649.367 449.499L652.53 449.994L652.286 452.693L649.123 452.459ZM727.421 427.04C728.806 426.163 730.58 424.569 730.338 428.277C730.093 431.976 728.636 430.746 727.421 431.976C726.206 433.213 725.477 428.277 727.421 427.04ZM743.92 413.077C743.892 413.013 743.875 412.784 743.861 412.619C743.818 412.075 743.748 411.335 743.364 410.559L741.626 411.441C741.841 411.881 741.884 412.348 741.921 412.794C741.969 413.369 742.034 414.029 742.586 414.446C742.935 414.711 743.374 414.787 743.898 414.686L743.528 412.775C743.676 412.8 743.873 412.936 743.92 413.077ZM739.59 414.696C739.939 416.066 740.356 417.419 740.838 418.748L742.662 418.054C742.648 418.036 741.94 416.107 741.474 414.212L739.59 414.696ZM732.511 422.457L730.574 422.262C730.422 423.817 730.793 425.734 732.324 426.046L732.706 424.111C732.72 424.111 732.737 424.123 732.741 424.123C732.585 423.982 732.441 423.187 732.511 422.457ZM723.989 383.2C723.946 382.897 723.825 382.611 723.639 382.368C723.453 382.125 723.207 381.935 722.926 381.815C721.487 381.184 719.061 382.231 717.871 383.038L718.947 384.68C720.178 383.848 721.795 383.446 722.155 383.629C722.122 383.617 722.077 383.559 722.066 383.522L723.989 383.2ZM634.202 278.085C632.907 279.403 629.99 280.06 629.99 280.06L629.015 283.68L627.396 284.995C627.396 284.995 627.718 285.981 627.396 288.284C627.072 290.586 624.153 291.904 624.153 291.904L622.858 293.55C622.858 293.55 615.043 293.973 614.105 293.55C611.186 292.234 613.134 288.284 615.08 288.614C617.021 288.946 614.751 283.019 614.751 283.019L617.349 282.691C617.349 282.691 617.668 276.767 618.643 276.767C619.619 276.767 618.322 274.795 617.019 273.806C615.724 272.823 614.105 269.533 612.803 269.861C611.508 270.187 606.32 269.861 606.32 269.861L605.347 271.837L601.778 272.492C601.778 272.492 602.086 275.037 601.464 275.784C599.51 278.085 592.06 283.019 595.298 274.797L596.267 272.825V269.861L590.438 269.535C590.438 269.535 587.52 268.547 587.52 267.23C587.52 265.914 587.195 264.272 587.195 264.272L580.385 256.705L572.284 255.718L571.632 254.07L566.776 253.413C560.935 250.455 555.746 253.084 556.721 258.02C557.694 262.959 559.311 264.931 556.076 264.931C552.829 264.931 552.183 262.298 552.183 262.298C552.183 262.298 549.593 261.309 549.593 262.626C549.593 263.944 548.618 266.575 549.593 267.891C550.561 269.204 548.29 271.179 547.317 270.193C546.352 269.204 543.756 266.249 544.406 265.261C545.051 264.274 539.862 258.02 545.051 257.035C550.241 256.046 544.727 253.084 546.676 252.43L549.266 251.112H551.857L553.48 249.794L549.268 249.14L546.676 248.809L541.81 248.481C536.95 251.771 535.979 255.72 535.979 255.72C533.381 260.654 527.227 253.745 529.497 251.114C531.763 248.481 522.363 250.782 520.74 252.099C519.116 253.415 514.254 252.758 514.254 252.758C513.285 255.722 508.747 252.432 510.041 250.457C511.338 248.481 511.338 247.165 511.338 247.165L509.72 246.835L507.775 250.455C503.237 250.455 501.936 253.084 502.908 254.731C503.881 256.374 501.613 254.402 500.961 256.705C500.318 259.006 501.291 259.006 503.237 259.995C505.184 260.984 502.262 260.984 503.559 262.626C504.854 264.274 508.746 262.626 506.478 264.931C504.21 267.232 499.666 266.249 499.666 266.249C499.345 269.204 493.184 268.55 492.54 267.564C491.887 266.577 487.029 260.652 487.029 260.652L480.861 260.325C480.217 255.722 483.782 258.023 485.079 254.402C486.382 250.782 487.029 244.864 487.029 244.864C487.029 244.864 481.836 244.534 481.514 246.178C481.192 247.824 477.949 248.811 477.949 248.811C477.949 248.811 475.353 249.796 476.327 251.112C477.302 252.432 474.38 253.084 474.38 253.084C474.38 253.084 474.887 255.209 474.059 256.048C471.469 258.681 464.978 256.374 464.011 255.389L460.119 253.743L456.226 251.112L451.69 253.082L450.395 254.402H445.529L445.207 258.345L453.96 259.33L454.609 267.474L451.04 266.245H448.77L447.801 264.27L445.853 263.938V271.175L447.801 272.823L449.424 274.463L452.667 274.795L453.316 278.74L461.415 279.074L462.391 280.716L467.256 281.047L476.656 290.584L476.007 293.548L474.382 294.535C475.036 296.838 470.174 295.524 470.174 295.524V297.493L472.436 297.825L474.712 299.137L477.949 293.546C481.516 291.245 483.133 294.535 483.462 296.508C483.784 298.482 481.838 298.152 481.838 298.152V302.763L483.784 303.416C487.031 307.365 482.489 309.67 482.489 309.67L481.514 312.958C480.539 315.921 476.976 315.259 476.976 315.259L475.683 317.235L471.787 318.224L479.484 319.209C480.217 316.576 482.156 315.919 483.131 317.235C484.106 318.553 484.106 320.856 484.106 320.856L486.056 321.184L485.726 324.802L487.675 325.463V335.99L489.943 338.623C493.833 336.981 493.833 339.611 491.885 340.924C489.943 342.236 491.236 348.163 491.236 348.163L489.617 349.805V352.44L487.673 353.756V357.374C484.43 355.73 480.537 356.383 479.562 357.374C476.65 355.398 470.49 356.057 470.49 357.705C472.432 360.338 468.224 360.995 468.224 360.995L465.95 363.628C467.574 366.918 464.333 367.244 464.333 367.244V373.498L460.44 377.117L460.768 385.671C460.768 387.974 465.628 388.302 466.599 386.987C467.572 385.671 471.465 389.62 471.465 389.62H474.376L475.03 383.695L473.081 382.709V373.166L476.325 369.545C480.217 368.23 478.92 378.106 478.92 379.091C479.244 382.709 480.859 382.381 482.485 381.72C485.727 380.405 483.129 385.345 480.539 385.012C477.947 384.686 479.564 388.302 479.564 388.302L481.19 388.963L478.269 391.264L475.681 394.228L472.432 393.238L468.547 392.914L467.25 390.605L464.976 390.277L464.653 394.88L463.034 396.855L459.144 400.808C464.333 400.808 458.492 404.42 457.197 404.42C460.115 405.409 456.875 408.373 449.42 406.072V408.371L446.822 408.703L449.098 411.33L451.686 411.661L450.713 417.252C450.713 421.529 440.018 418.565 439.043 417.582L438.719 423.505L436.773 423.828L437.097 427.781L436.773 433.376L440.338 432.717V435.022L449.094 435.352L461.739 421.857L469.193 420.217C469.838 416.921 473.078 420.876 473.078 420.876C476.323 420.538 476.972 422.845 476.972 422.845L481.188 423.505C484.749 424.495 482.596 424.84 482.807 426.141C483.127 428.111 484.749 427.454 484.749 427.454L485.403 423.177L487.349 423.505L485.403 421.201L481.832 419.553L477.945 417.911C475.348 414.294 478.593 414.951 481.188 415.283H485.401C485.401 415.283 490.268 421.859 490.268 423.505C490.268 425.154 492.537 425.482 492.537 425.482L495.448 425.151L496.423 427.452H499.341L500.316 429.421H506.151L506.474 426.463L500.957 425.482L500.638 422.186L496.751 421.199C495.448 415.61 497.718 413.964 499.341 416.599L501.285 416.921L500.636 411.987L502.904 411.328L502.256 404.416L500.314 403.763V401.458L508.413 401.793C507.769 397.509 508.741 395.537 508.741 395.537H511.009L511.332 397.187L521.251 398.123L528.264 390.078C527.911 389.464 528.968 389.088 528.198 388.3C527.223 387.313 525.924 388.3 524.297 387.313C522.679 386.332 524.297 380.733 523.975 379.419C523.652 378.104 529.493 376.123 528.519 379.089C527.544 382.053 528.519 383.368 528.519 383.368C532.732 379.419 536.299 383.693 535.977 384.682C535.645 385.669 538.241 386.658 539.86 385.669C541.484 384.682 543.429 388.633 542.779 390.603C542.128 392.575 536.299 392.249 535.977 390.273C535.645 388.298 534.67 388.959 534.031 389.948C533.377 390.935 530.466 391.59 528.843 390.601C528.512 390.402 528.356 390.236 528.264 390.076L521.251 398.121L521.706 398.168C525.592 400.475 523.652 403.433 522.359 404.092C521.056 404.75 518.788 404.75 518.788 404.75L518.144 406.068L509.714 406.723L509.062 410.017C504.848 409.352 503.231 413.962 504.203 416.262C505.178 418.563 504.203 420.538 504.203 420.538L507.769 422.186L512.304 420.876C512.957 417.58 515.869 416.921 518.466 414.951C521.056 412.975 525.274 418.563 523.974 421.199C522.679 423.828 522.679 424.817 522.679 424.817L522.998 427.781L519.761 429.094L517.167 430.412L516.838 432.058H508.089L506.471 433.7L502.254 434.038L500.952 436.007L498.04 436.339C498.04 436.339 493.174 438.642 495.122 441.273C497.067 443.907 487.02 443.578 484.744 439.956C484.094 443.242 480.531 440.284 480.531 440.284L476.966 439.295L476.644 434.365C475.995 431.071 469.834 431.071 470.162 433.378C470.484 435.682 458.486 434.365 458.486 434.365L454.598 436.255L451.029 438.314L450.707 439.956L444.868 440.614L442.278 441.932L441.307 439.956H438.713L436.12 443.58C429.313 443.911 422.829 447.857 423.477 449.503C424.126 451.145 420.887 452.798 420.887 452.798L417.965 453.773L416.025 456.738L412.134 458.056L411.481 464.967L409.54 466.28V469.244L407.267 469.898V471.546L404.027 471.875L405.968 476.811L408.569 478.129C413.107 478.783 411.159 484.382 411.159 484.382L413.749 484.705L415.052 488.323L417.642 493.589C418.617 497.542 421.534 496.553 422.829 496.223C424.126 495.899 425.419 500.17 425.419 500.17L438.386 500.502C438.386 500.502 437.742 501.818 440.01 502.475C442.276 503.129 457.191 503.794 457.843 502.807C457.189 499.843 465.942 499.184 469.513 501.816C473.074 504.445 477.937 502.807 477.937 502.807L482.801 508.722L486.048 515.963L491.558 517.605L495.444 518.596L496.745 524.189L499.659 524.518L500.634 528.14C504.203 530.771 499.659 536.366 499.659 536.366V543.601L502.252 544.919L501.927 547.554L506.147 551.825L511.007 552.16L523.328 565.318L533.05 568.277L534.668 573.542L537.268 573.213L539.21 571.571L546.99 571.241L550.882 567.618L555.095 566.964L591.08 536.366L587.834 534.388V527.153C593.669 522.878 593.993 515.306 588.484 514.649C584.303 514.149 586.218 509.713 590.108 509.055L592.374 508.072V505.108L599.83 498.203V492.937L583.626 479.442C576.49 476.815 583.626 461.018 588.482 461.348C593.35 461.674 588.162 437.002 588.162 437.002L585.564 435.689L586.218 427.789H582.653L576.816 435.36L575.197 440.619C574.548 447.537 554.447 446.213 553.472 445.226C552.497 444.237 545.693 441.279 545.693 441.279C545.693 441.279 540.505 437.002 539.534 438.32C538.559 439.638 534.025 436.672 534.025 437.661C534.025 438.65 529.812 435.362 529.812 435.362L523.33 433.057L528.196 432.066L527.221 428.121L535.642 432.397C536.617 433.708 540.829 433.386 540.829 433.386L542.126 435.032C542.126 435.032 544.724 434.699 546.35 436.676C547.969 438.652 556.394 437.006 556.394 437.006L558.661 438.975L562.226 440.294L572.28 440.625L572.601 434.377L574.548 432.401L574.224 428.448L576.492 426.479V423.191L578.438 422.531L578.76 415.296L580.379 414.967V399.172L575.517 394.564C575.197 396.212 570.01 396.212 570.01 396.212C570.01 396.212 568.713 398.513 567.74 398.513C566.77 398.513 569.038 401.469 568.387 403.447C567.74 405.417 565.144 405.417 565.144 405.417L560.278 406.737L558.983 408.385H553.796L553.152 404.108L558.983 402.46L562.223 400.818L563.847 397.522C564.169 394.238 568.06 394.564 568.06 394.564C568.06 394.564 575.517 388.311 575.841 385.355C576.17 382.393 578.76 374.167 583.296 374.167H591.727C594.966 372.846 593.995 368.572 593.995 368.572L598.211 367.918L598.861 370.22C598.861 370.22 604.698 370.877 605.343 369.89C605.995 368.907 607.289 366.6 608.912 367.589C610.533 368.574 615.718 365.284 615.718 365.284C616.042 362.98 624.147 363.967 624.147 363.967L625.122 361.009C625.122 361.009 619.613 353.442 618.64 353.442C617.664 353.442 612.479 348.83 611.828 350.478C606.648 349.163 606.968 341.922 606.968 341.922L605.021 337.32C605.021 334.683 600.165 329.09 599.184 329.753C594.319 326.134 597.889 321.855 599.184 321.525C600.481 321.2 603.728 316.591 603.728 316.591L605.347 311.983L610.856 310.345L611.506 306.064L608.594 305.735C608.594 305.735 611.831 299.812 613.454 299.812C615.078 299.812 625.775 299.812 626.741 299.151C627.716 298.498 629.658 293.232 629.658 292.245C629.658 291.257 632.258 290.927 633.225 290.595C634.198 290.27 636.466 287.637 637.116 286.321C637.765 284.995 635.501 276.769 634.2 278.085H634.202Z" fill="white" fill-opacity="0.3"/>
</svg>
