<svg width="301" height="82" viewBox="0 0 301 82" fill="none" xmlns="http://www.w3.org/2000/svg">
<g clip-path="url(#clip0_90_1041)">
<path d="M69.4327 64.7972C69.8142 68.0466 69.6234 71.296 68.6697 74.3543C68.479 74.9277 68.2882 75.6923 67.9067 76.4568C64.8548 74.7366 64.0918 70.9137 63.901 67.4732C63.901 64.4149 63.901 61.1655 64.4733 58.1072C64.8548 56.9603 65.427 55.8135 65.8085 54.8578C65.9992 54.2844 66.3807 53.7109 66.5715 53.1375C67.9067 56.9603 69.0512 60.7832 69.4327 64.7972ZM66.3807 77.986C65.0455 78.7506 63.901 77.4126 63.3288 76.4568C61.4213 73.2074 61.4213 69.1935 61.9935 65.7529C62.1843 64.606 62.5658 63.4592 62.7565 62.3123C62.5658 64.606 62.5658 66.7086 62.7565 69.0023C62.9473 72.2517 64.2825 75.8834 67.1437 77.4126C66.953 77.6037 66.7622 77.7948 66.3807 77.986ZM43.1095 39.5664C43.3003 39.1841 43.491 38.8018 43.6818 38.4196C43.8725 37.8461 44.254 37.2727 44.4447 36.6993C44.0632 37.655 43.6818 38.6107 43.1095 39.5664ZM61.4213 23.3193C61.4213 23.3193 61.2305 23.5105 61.2305 23.7016C61.2305 23.8927 61.0398 24.0839 61.0398 24.275H60.849C61.0398 23.8927 61.0398 23.7016 61.4213 23.3193C61.2305 23.5105 61.2305 23.5105 61.4213 23.3193ZM4.38772 29.2447C5.15071 31.3473 5.9137 33.4499 6.86744 35.5524C7.24893 36.5081 7.82118 37.4638 8.39342 38.4196C8.20267 38.2284 8.01192 38.0373 7.82118 37.8461C6.10445 35.3613 4.95996 32.303 4.38772 29.2447ZM17.1678 3.63168C19.266 3.63168 21.1735 5.35196 20.9828 7.45452C20.029 6.11652 18.503 5.35195 16.7863 4.96967C15.2603 4.77853 13.7344 4.96967 12.3991 5.5431C13.9251 4.39624 15.4511 3.82282 17.1678 3.63168ZM76.6811 29.0536C73.0569 32.8764 70.0049 37.0816 67.3345 41.4778C66.7622 39.5664 66.3807 37.8461 65.9992 35.9347C65.427 33.2587 64.8548 30.3916 64.4733 27.7156C64.4733 26.7599 64.664 25.8042 64.8548 24.8485C65.0455 23.7016 63.7103 22.7459 62.5658 22.7459L62.375 22.5548C61.8028 22.1725 61.0398 22.1725 60.6583 22.7459C60.0861 23.5105 59.8953 24.4662 59.7046 25.2307C59.5138 26.1865 59.5138 27.1422 59.5138 28.0979C59.1323 30.0093 58.5601 31.7296 57.9878 33.641C57.4156 35.1701 56.8433 36.5081 56.0804 38.0373C55.5081 39.3753 54.9359 40.7133 53.7914 41.8601C53.0284 42.6247 52.2654 42.8158 51.5024 42.6247C50.7394 41.8601 50.7394 40.331 50.5487 39.5664C49.7857 36.1259 49.0227 32.6853 48.069 29.4359C47.4967 27.3333 44.254 27.3333 44.4447 29.627C44.4447 30.3916 44.6355 31.1562 44.6355 31.9207C44.254 33.641 43.8725 35.3613 43.1095 37.0816C42.5373 38.4196 41.965 40.331 40.8205 41.4778C39.4853 42.0513 37.9593 42.2424 36.8148 41.4778C35.8611 40.9044 35.4796 39.1841 34.9074 38.4196C34.5259 38.0373 34.1444 37.655 33.7629 37.2727C33.9536 37.0816 34.1444 36.8904 34.3351 36.5081C36.6241 33.4499 38.7223 30.0093 40.0575 26.3776C40.2483 25.9953 40.2483 25.613 40.0575 25.2307C40.2483 24.275 40.2483 23.5105 39.1038 22.937C38.1501 22.5548 37.0056 22.937 36.0518 23.1282C34.7166 23.3193 33.3814 23.1282 32.0461 22.7459C31.2831 22.5548 30.7109 22.1725 29.9479 21.9813C29.5664 21.7902 29.1849 21.599 28.8034 21.599C28.6127 21.599 28.2312 21.4079 28.0404 21.4079C27.0867 21.2168 26.133 21.0256 25.1792 21.2168C24.7977 21.4079 24.4162 21.599 24.0347 21.7902C23.844 21.7902 23.6532 21.7902 23.6532 21.9813C23.2717 22.1725 23.081 22.7459 22.8902 23.1282C22.5088 23.7016 22.318 24.4662 22.318 25.2307C22.1273 25.9953 21.7458 26.5687 21.555 27.3333C20.792 29.4359 19.8383 31.3473 18.8845 33.4499C18.3123 34.5967 17.7401 35.9347 16.9771 37.2727C16.9771 37.2727 16.9771 37.2727 16.7863 37.4638C15.8326 38.6107 14.6881 39.7576 13.1621 40.331C12.3991 39.1841 11.8269 37.8461 11.2546 36.6993C7.63043 29.4359 4.57846 20.261 7.63043 12.6154C8.96566 10.1305 10.6824 7.64566 13.5436 6.68995C16.2141 5.73424 19.266 6.68995 20.6013 9.1748C20.792 9.36594 21.1735 9.55708 21.3643 9.36594C22.1273 9.93937 23.4625 10.1305 23.6532 8.98366C24.607 6.11652 23.081 3.24939 20.6013 1.72025C17.7401 -0.191168 14.4973 -2.61962e-05 11.4454 1.52911C8.77491 2.67596 6.48594 5.35195 4.95996 8.41023C4.19697 9.74823 3.43398 11.0862 2.67099 12.4242C0.763508 16.6293 -0.19023 21.4079 0.000517523 26.1865C0.191265 30.965 1.5265 36.1259 4.38772 40.1398C4.95996 40.9044 5.72295 41.669 6.48594 42.4335C6.48594 42.4335 6.48594 42.6247 6.67669 42.6247C7.05818 43.1981 7.82118 43.7715 8.39342 44.1538C9.9194 45.1095 11.6361 45.4918 13.3529 45.4918C16.9771 45.4918 20.2198 43.1981 22.5088 40.5221C23.6532 39.1841 24.607 37.4638 25.5607 35.9347C25.7515 35.5524 25.9422 35.3613 25.9422 34.979C26.5145 34.2144 26.896 33.2587 27.2774 32.4941C27.8497 31.1562 28.4219 29.627 28.6127 28.0979C28.6127 27.9067 28.6127 27.5244 28.8034 27.3333C29.3757 27.9067 29.9479 28.289 30.7109 28.6713C31.6646 29.0536 32.6184 29.2447 33.5721 29.0536C32.6184 30.7739 31.4739 32.4941 30.1387 34.2144C28.9942 35.7436 27.8497 37.0816 26.896 38.8018C26.7052 38.993 26.7052 39.1841 26.5145 39.5664C25.5607 41.0955 24.4162 42.6247 24.607 44.345C24.607 45.1095 25.1792 45.683 25.9422 45.8741C26.133 46.0652 26.3237 46.0652 26.3237 46.2564C27.0867 46.6387 28.2312 46.4475 28.6127 45.8741C28.6127 45.683 28.8034 45.683 28.8034 45.4918C29.1849 45.3007 29.3757 45.1095 29.5664 44.7272C30.3294 43.1981 31.0924 41.8601 31.8554 40.331C32.0461 40.5221 32.2369 40.9044 32.4276 41.2867C33.7629 44.1538 36.2426 45.683 39.4853 45.4918C42.5373 45.1095 45.2077 43.3893 46.543 40.7133C46.7337 41.0955 46.7337 41.669 46.9245 42.0513C47.306 43.7715 48.2597 45.4918 49.9764 46.2564C51.5024 47.021 53.2191 47.021 54.7451 46.2564C58.3693 44.9184 59.3231 40.9044 60.4676 37.655C60.6583 37.0816 60.849 36.5081 61.0398 35.7436C61.8028 39.5664 62.9473 43.3893 64.2825 47.2121C63.5195 48.7412 62.7565 50.0792 62.1843 51.6084C58.7508 59.2541 55.3174 68.4289 58.7508 76.648C60.2768 80.2797 64.2825 84.1025 68.479 81.6177C71.7217 79.7063 72.4847 75.1189 72.8662 71.6783C73.6292 64.2238 71.1494 56.7692 68.8605 49.6969C68.6697 49.5058 68.6697 49.1235 68.479 48.9324C71.7217 43.007 75.5366 37.2727 79.7331 31.7296C81.4498 29.627 78.3978 27.1422 76.6811 29.0536Z" fill="black"/>
<path d="M148.211 9.9394V10.1305C148.211 10.3217 148.402 10.3217 148.402 10.5128C148.783 10.704 148.783 10.8951 148.974 11.0863C149.165 11.2774 149.546 11.6597 149.737 11.6597C149.928 11.6597 150.118 11.8508 150.309 11.8508C150.691 11.8508 150.881 11.8508 151.263 11.8508C151.454 11.8508 151.644 11.6597 151.835 11.4685C152.026 11.2774 152.217 11.0862 152.217 10.8951C152.217 10.704 152.407 10.5128 152.217 10.1305C152.217 9.9394 152.217 9.74826 152.026 9.36597C151.835 8.98369 151.644 8.79254 151.454 8.6014C151.263 8.41026 151.263 8.41026 151.072 8.21912C150.881 8.02798 150.691 8.02798 150.5 7.83683C150.309 7.83683 150.118 7.83683 150.118 7.64569C149.928 7.64569 149.737 7.64569 149.737 7.64569H149.546C149.355 7.64569 149.355 7.64569 149.165 7.64569C148.974 7.64569 148.783 7.83683 148.783 8.02797C148.592 8.02797 148.592 8.21912 148.592 8.21912C148.402 8.41026 148.402 8.6014 148.402 8.79254C148.402 8.79254 148.402 8.79254 148.402 8.98369V9.17483C148.211 9.55711 148.211 9.74825 148.211 9.9394Z" fill="black"/>
<path d="M197.993 25.0396C196.849 25.6131 195.704 26.3776 195.132 27.5245C194.941 27.9068 194.75 28.2891 194.56 28.8625C193.987 28.0979 194.75 26.5688 195.132 25.9953C196.086 24.8485 197.612 24.6573 199.138 24.6573C198.756 24.6573 198.375 24.8485 197.993 25.0396ZM183.496 42.0513C183.115 42.0513 181.97 41.8601 181.97 41.2867C181.97 40.9044 181.97 40.7133 181.78 40.5222C181.97 40.7133 182.161 40.9044 182.352 41.0956C182.924 41.4779 183.306 41.8601 184.069 42.0513C183.878 42.0513 183.687 42.0513 183.496 42.0513ZM176.248 28.0979C175.294 29.4359 174.34 30.7739 173.387 31.9208C173.387 31.9208 173.387 31.7296 173.577 31.7296C174.722 29.8182 175.676 27.9068 176.82 25.9953C177.392 25.0396 177.965 23.8928 178.537 22.9371C178.728 22.5548 178.918 22.3636 179.109 21.9814C178.918 24.2751 177.583 26.3776 176.248 28.0979ZM160.416 36.5082C159.462 34.979 158.89 33.4499 158.699 31.7296C158.89 31.7296 159.081 31.5385 159.271 31.5385C159.653 33.641 160.607 35.7436 162.133 37.4639C163.086 38.4196 164.04 39.3753 165.185 40.1399C165.185 40.1399 165.185 40.1399 164.994 40.1399C163.277 39.7576 161.56 38.0373 160.416 36.5082ZM149.352 43.1981C148.017 44.345 146.11 43.5804 145.156 42.6247C142.867 40.5221 142.676 37.2727 142.486 34.4056C142.486 33.8322 142.486 33.2587 142.486 32.6853C142.867 35.1702 143.63 37.655 144.775 39.9487C145.538 41.2867 146.491 42.4336 148.017 42.8159C148.589 43.007 149.162 42.8159 149.543 42.6247C149.543 42.8159 149.352 43.007 149.352 43.1981ZM160.034 24.0839C160.607 22.9371 161.56 21.5991 162.896 20.8345C162.323 21.4079 161.942 22.1725 161.56 22.9371C160.797 24.2751 160.416 25.8042 160.607 27.3333C160.034 27.5245 159.653 27.7156 159.081 27.9068C159.081 26.3776 159.462 25.2308 160.034 24.0839ZM168.046 22.5548C168.046 24.8485 164.231 25.8042 162.514 26.3776C162.133 26.5688 161.751 26.5688 161.37 26.7599C161.56 25.6131 161.942 24.2751 162.514 23.3194C162.896 22.7459 163.277 21.9814 163.849 21.4079C164.04 21.2168 164.422 20.8345 164.612 20.6434C164.803 20.4522 164.994 20.2611 165.185 20.0699C166.329 20.2611 167.855 21.2168 168.046 22.5548ZM106.243 36.6993C106.243 36.8904 106.243 36.8904 106.434 37.0816C106.434 37.4639 106.816 38.0373 107.197 38.2284C107.197 38.4196 107.197 38.4196 107.197 38.6107C106.625 38.4196 106.243 37.655 106.243 36.6993ZM109.295 30.5828C108.914 31.9208 108.342 33.2587 107.96 34.4056C107.769 34.979 107.579 35.7436 107.388 36.317C107.006 34.2145 108.151 32.1119 109.105 30.2005C109.486 29.627 109.677 28.8625 110.058 28.2891C109.868 29.0536 109.486 29.8182 109.295 30.5828ZM219.548 36.317C219.357 35.1702 217.449 34.2145 216.686 35.3613C215.542 37.0816 215.351 39.1842 214.016 40.9044C212.49 42.6247 210.582 41.669 209.057 40.331C207.531 39.1842 206.195 37.8462 204.479 37.0816C208.294 32.4942 211.536 27.5245 213.825 22.1725C214.779 20.2611 211.536 18.3497 210.201 20.0699C208.866 21.7902 206.195 21.7902 204.097 21.5991C201.045 21.2168 197.993 20.6434 194.941 21.5991C192.652 22.3636 191.126 24.2751 190.745 26.5688C190.745 26.9511 190.745 27.5245 190.745 27.9068V28.0979C190.745 28.289 190.745 28.289 190.745 28.4802C190.554 28.289 190.554 28.0979 190.363 27.9068C188.074 24.6573 184.832 22.1725 181.78 19.6877C180.826 18.9231 179.109 19.3054 178.918 20.4522C178.346 21.0256 177.965 21.9814 177.583 22.5548C177.202 23.3194 176.629 24.0839 176.248 25.0396C175.103 26.9511 173.959 29.0536 172.814 30.965C171.288 33.8322 169.762 36.5082 168.046 39.1842C167.664 39.3753 167.473 39.5664 167.092 39.7576C166.711 39.5664 166.329 39.3753 165.948 39.1842C164.803 38.6107 163.849 37.655 163.086 36.6993C161.751 35.1702 160.797 33.0676 160.416 31.1562C161.942 30.5828 163.468 30.0093 165.185 29.627C168.046 28.6713 171.288 27.3333 171.861 24.0839C172.433 21.2168 169.953 18.3497 167.283 17.2028C164.231 15.8648 160.988 16.8205 158.699 19.1142C156.029 21.7902 154.693 25.6131 154.693 29.4359C153.74 29.8182 152.786 30.2005 152.023 30.5828C151.451 30.7739 151.069 31.3473 151.069 31.7296C150.688 31.9208 150.497 32.303 150.306 32.8765C150.115 34.7879 149.543 36.6993 148.399 38.2284C148.399 38.2284 148.208 38.4196 148.017 38.6107C147.636 37.8462 147.254 37.0816 147.063 36.317C145.728 32.4942 145.538 28.2891 146.491 24.4662C146.873 22.7459 144.393 21.7902 143.249 22.5548C139.052 24.8485 133.52 24.2751 129.705 21.2168C128.561 20.4522 126.653 20.6434 126.463 22.3636C126.463 25.4219 128.179 27.5245 130.087 29.8182C131.231 31.1562 133.33 33.2587 132.376 34.979C131.422 36.6993 128.37 36.8904 126.653 35.9347C124.174 34.4056 123.029 30.7739 122.266 28.0979C121.694 25.9953 118.261 25.8042 118.451 28.2891C118.642 30.965 118.451 33.641 117.688 36.1259C117.307 37.4639 116.925 38.6107 116.353 39.9487C116.353 40.1399 116.162 40.331 116.162 40.331C115.018 34.7879 114.636 29.2448 115.209 23.7016C115.399 22.7459 114.255 21.7902 113.301 21.7902C113.301 21.4079 112.92 21.0256 112.347 21.2168C112.157 21.2168 112.157 21.2168 111.966 21.4079C111.775 21.5991 111.775 21.7902 111.584 21.9814C111.584 22.1725 111.394 22.1725 111.394 22.3636C110.631 23.7016 110.058 25.0396 109.295 26.3776C108.914 26.9511 108.342 27.5245 107.96 28.0979C106.243 30.3916 105.099 32.8765 104.717 35.7436C104.527 36.8904 104.336 38.2284 105.099 39.1842C105.671 39.9487 106.625 40.331 107.388 40.331C108.151 40.1399 108.532 39.7576 108.723 39.1842C108.914 38.993 109.105 38.8019 109.295 38.6107C109.677 38.0373 109.868 37.2727 110.249 36.6993C110.631 35.9347 111.012 34.979 111.203 34.2145C111.203 34.4056 111.203 34.5967 111.203 34.7879C111.394 36.5082 111.584 38.4196 111.966 40.1399C112.347 41.8601 112.538 43.7716 114.064 44.7273C117.688 47.021 119.787 41.8601 120.55 39.1842C120.931 38.2284 121.122 37.2727 121.313 36.317C121.503 36.6993 121.694 36.8904 122.076 37.2727C123.983 39.5664 126.653 40.9044 129.705 40.7133C132.185 40.5221 135.046 39.1842 135.809 36.6993C136.572 34.2145 135.428 31.7296 133.902 29.627C133.33 28.8625 132.567 28.0979 131.994 27.3333C134.856 28.2891 137.908 28.4802 140.769 27.9068C140.769 30.965 140.578 34.2145 140.769 37.2727C140.96 40.1399 141.913 43.3893 144.775 45.1096C145.919 45.8741 147.445 46.2564 148.78 45.4918C150.115 44.9184 150.878 43.3893 151.451 42.0513C152.786 39.5664 154.121 36.5082 154.503 33.641C154.693 34.5967 154.884 35.5525 155.266 36.5082C156.41 39.3753 158.318 41.669 160.988 43.1981C164.04 44.9184 167.855 45.1096 170.525 42.4336C172.051 41.0956 173.005 39.1842 174.34 37.655C175.676 35.9347 177.011 34.2145 178.155 32.4942C179.872 30.2005 181.398 27.9068 181.97 25.2308C185.404 28.0979 188.646 31.5385 188.646 35.9347C188.646 38.2284 187.693 40.5222 185.595 42.0513C185.595 42.0513 185.404 42.0513 185.404 42.2424C185.213 42.2424 185.213 42.2424 185.022 42.2424C184.45 42.2424 183.878 42.0513 183.496 41.8601C182.352 41.2867 181.589 40.331 180.635 39.9487C179.681 39.5664 178.537 39.3753 177.774 40.1399C177.392 40.5222 177.202 41.0956 177.392 41.669C177.011 43.7716 178.537 45.4918 180.254 46.2564C181.78 47.021 183.687 47.2121 185.404 46.6387C188.646 45.8741 191.508 43.007 192.271 39.7576C193.034 36.8904 192.461 33.8322 191.317 31.1562C191.698 31.7296 192.461 32.303 193.224 32.6853C194.75 33.2587 195.704 31.7296 194.75 30.5828V30.3916C194.941 29.8182 195.132 29.2448 195.513 28.8625C196.276 27.9068 197.23 27.1422 198.375 26.7599C199.71 26.3776 201.427 26.5688 202.762 26.5688C203.525 26.5688 204.479 26.5688 205.242 26.5688C205.814 26.5688 206.386 26.5688 206.958 26.5688C204.479 30.7739 201.617 34.7879 198.375 38.4196C197.421 38.993 196.467 39.7576 196.276 41.0956C195.704 43.007 198.184 44.9184 199.901 43.1981C200.473 42.6247 200.854 42.0513 201.427 41.669C202.38 41.4779 203.525 42.0513 204.288 42.6247C206.577 44.345 208.484 46.4476 211.345 47.021C213.825 47.4033 216.305 46.2564 217.64 44.345C219.166 41.0956 220.12 38.4196 219.548 36.317Z" fill="black"/>
<path d="M282.879 43.3893C281.353 42.6247 280.018 41.2867 279.064 39.9487C276.966 36.6993 276.775 32.6853 278.111 29.4359C278.301 29.4359 278.301 29.4359 278.492 29.4359C276.394 34.0233 279.255 40.1398 283.642 42.8158C284.978 43.5804 286.313 43.9627 287.648 43.7715C285.931 44.1538 284.215 44.1538 282.879 43.3893ZM283.642 23.7016C285.55 22.937 287.457 22.5548 289.365 22.3636C290.319 22.1725 291.463 22.1725 292.417 22.1725C292.798 22.1725 293.371 22.1725 293.561 22.3636C293.943 22.7459 293.371 23.7016 293.18 24.0839C292.608 24.8485 291.654 25.2307 290.891 25.4219C288.793 25.9953 286.313 25.8042 284.024 25.8042C282.879 25.8042 281.544 25.8042 280.4 25.8042C281.544 24.8485 282.498 24.0839 283.642 23.7016ZM261.325 41.4778C259.608 41.2867 258.273 39.5664 257.128 38.4196C257.319 38.6107 257.51 38.6107 257.891 38.8018C259.227 39.5664 260.562 40.1398 261.897 40.5221C262.469 40.7133 263.042 40.9044 263.614 40.9044C263.995 40.9044 264.377 40.9044 264.758 40.7133C263.805 41.2867 262.469 41.669 261.325 41.4778ZM248.736 28.289C247.591 27.9067 247.782 26.1865 247.973 25.2307C248.545 26.1865 249.117 26.951 249.88 27.3333C249.88 27.5245 249.88 27.7156 250.071 27.7156C249.689 28.289 249.308 28.6713 248.736 28.289ZM298.139 34.5967C297.948 34.2144 297.567 34.0233 297.185 34.2144C293.752 37.2727 289.937 44.9184 284.215 41.8601C280.018 39.7576 277.348 33.8321 279.064 29.4359C279.446 29.4359 279.827 29.4359 280.209 29.4359C281.735 29.4359 283.07 29.4359 284.596 29.4359C287.267 29.4359 289.937 29.4359 292.417 28.8625C294.706 28.289 296.804 26.951 297.567 24.6573C298.33 22.3636 297.376 19.8788 295.087 18.7319C292.989 17.5851 290.509 17.9673 288.22 18.3496C285.931 18.7319 283.642 19.1142 281.353 20.0699C278.492 21.2168 276.012 23.3193 274.486 25.8042C273.151 26.3776 272.198 27.3333 271.435 28.8625C269.909 31.9207 269.146 35.5524 267.047 38.4196C266.284 38.6107 265.521 38.993 264.758 39.1841C263.995 39.5664 263.232 39.7576 262.469 39.5664C261.706 39.3753 260.943 38.993 260.18 38.8018C258.845 38.2284 257.51 37.4638 256.175 37.0816C255.984 37.0816 255.984 37.0816 255.793 37.0816C258.845 33.0676 261.897 29.0536 264.949 25.0396C266.284 23.3193 263.614 20.6433 261.897 21.9813C258.464 24.4662 253.123 23.7016 250.834 20.0699C249.88 18.5408 247.591 19.1142 247.21 20.8345C247.019 21.599 247.019 22.3636 247.019 23.1282C247.019 23.3193 246.828 23.5105 246.828 23.7016C246.637 24.8485 246.256 26.3776 246.637 27.7156C247.019 28.6713 247.973 29.8182 249.117 29.627C249.689 29.627 250.262 29.2447 250.643 28.6713C251.406 28.6713 251.597 27.9067 251.215 27.3333C251.406 26.7599 251.597 26.3776 251.788 25.8042C253.504 26.7599 255.602 27.3333 257.51 27.3333C255.221 30.3916 252.932 33.4499 250.643 36.5081C250.262 36.6993 249.689 36.6993 249.308 37.0816C247.21 38.2284 246.828 40.5221 246.447 42.6247C246.256 44.5361 249.117 45.8741 250.262 44.345C251.215 43.007 252.169 41.8601 253.123 40.5221C254.077 40.9044 254.649 41.669 255.221 42.2424C256.175 43.1981 257.128 44.1538 258.273 44.7272C262.279 46.8298 267.238 44.7272 269.909 41.669C271.053 40.331 272.007 38.6107 272.77 36.8904C273.151 38.2284 273.533 39.7576 274.296 41.0955C276.775 45.8741 281.735 49.3147 287.457 48.3589C293.561 47.2121 297.185 42.6247 300.237 37.8461C301.763 35.7436 299.665 33.8321 298.139 34.5967Z" fill="black"/>
<path d="M223.751 41.2867C223.942 43.007 223.751 44.9184 223.179 46.4475C222.988 46.8298 222.797 47.4032 222.606 47.7855C222.416 47.9767 222.416 48.1678 222.225 48.359C222.225 48.359 222.225 48.5501 222.034 48.5501C221.462 49.3147 220.89 50.2704 220.317 50.8438C219.936 51.2261 219.554 51.6084 219.364 52.1818C218.982 53.1375 219.554 54.0932 220.317 54.4755C221.843 55.2401 222.988 54.0932 223.942 52.9464C225.277 51.4172 226.231 49.5058 226.994 47.5944C227.757 45.3007 227.947 43.007 227.566 40.5221C227.184 38.8019 223.56 38.8019 223.751 41.2867Z" fill="black"/>
<path d="M259.229 5.16084C259.801 5.54312 259.992 6.30769 259.992 6.88112C259.801 6.68998 259.61 6.30769 259.419 6.11655C259.419 6.11655 259.419 6.11655 259.229 6.11655C259.229 5.92541 259.229 5.73427 259.038 5.54312C259.038 5.35198 258.847 5.16084 258.656 4.9697C258.847 4.9697 259.038 5.16084 259.229 5.16084ZM255.414 8.98368V9.17483C255.223 8.98369 255.223 8.79254 255.223 8.6014C255.223 8.79254 255.414 8.79254 255.414 8.98368ZM258.084 11.8508C259.419 11.8508 260.564 10.8951 261.136 9.74825C261.899 8.41026 261.899 6.68998 261.136 5.35198C260.755 4.58741 260.373 3.82285 259.61 3.44056C259.229 3.24942 258.656 3.05828 258.466 3.44056C258.275 3.44056 258.275 3.6317 258.275 3.82285C257.512 3.82285 256.749 3.82285 256.177 4.20513C253.697 5.35198 252.743 8.41026 254.651 10.5128C255.604 11.2774 256.94 11.8508 258.084 11.8508Z" fill="black"/>
</g>
<defs>
<clipPath id="clip0_90_1041">
<rect width="301" height="82" fill="white"/>
</clipPath>
</defs>
</svg>
