<svg width="561" height="164" viewBox="0 0 561 164" fill="none" xmlns="http://www.w3.org/2000/svg">
<path d="M133.843 77.1428C132.893 78.3333 131.944 79.5238 130.52 80.2381C130.046 80.4761 129.571 80.7142 129.096 80.9523C130.995 79.7619 132.656 78.3333 134.08 76.6666C134.317 76.9047 134.08 76.9047 133.843 77.1428ZM123.638 78.0952C122.452 79.0476 121.503 78.3333 121.028 77.1428C121.265 77.3809 121.503 77.3809 121.977 77.3809C122.689 77.3809 123.401 77.1428 123.876 76.6666C124.35 76.1904 124.825 75.7142 125.3 75.2381C125.3 75.4761 125.3 75.7142 125.3 75.9523C125.3 75.9523 125.062 75.9523 125.062 76.1904C124.35 76.6666 124.113 77.619 123.638 78.0952ZM130.52 67.619C131.232 65.7142 132.181 63.8095 133.605 62.3809C134.317 61.6666 136.69 60.238 137.402 61.6666C137.402 61.6666 137.402 61.6666 137.402 61.9047C136.69 64.7619 135.504 67.619 134.08 70C132.656 72.3809 130.995 74.5238 129.096 76.1904C129.096 73.3333 129.334 70.238 130.52 67.619ZM98.7208 65.4761C99.1954 64.2857 99.6701 63.0952 100.145 61.9047C100.619 60.9523 101.094 59.7619 101.806 58.8095C102.28 58.3333 102.755 58.0952 103.23 58.3333C101.331 60.238 99.9074 62.8571 98.7208 65.4761ZM85.1942 73.0952C84.4822 74.7619 83.7703 76.6666 82.5838 78.0952C82.3465 78.5714 81.8718 79.0476 81.3972 79.2857C81.1599 78.8095 80.6853 78.3333 80.448 77.619C79.9734 76.6666 79.9734 75.7142 79.9734 74.7619C79.9734 72.8571 80.2107 71.1904 80.6853 69.2857C80.9226 68.8095 81.1599 68.0952 81.3972 67.619C82.8211 65.7142 84.9569 63.5714 87.33 63.3333C87.0926 66.9047 86.3807 70 85.1942 73.0952ZM78.7868 73.5714C78.7868 74.0476 78.7868 74.7619 78.7868 75.2381C78.7868 76.9047 79.4987 78.8095 80.6853 80C80.448 80.238 80.448 80.238 80.2107 80.4761C79.9734 80.7142 79.736 80.7142 79.736 80.9523C79.4987 80.7142 79.2614 80.238 79.0241 80C78.5495 79.2857 78.3122 78.5714 78.3122 77.8571C78.3122 76.9047 78.5495 75.9523 78.5495 75.2381C78.5495 74.7619 78.7868 74.2857 78.7868 73.5714ZM63.1244 76.4285C63.3617 75.7142 63.3617 75 63.599 74.5238C64.0736 72.619 64.3109 70.7142 64.5482 68.8095C64.7855 67.8571 64.7855 67.1428 65.2602 66.1904C65.2602 65.9523 65.4975 65.7142 65.7348 65.4761C65.7348 68.8095 64.7855 72.1428 63.8363 75.2381C63.3617 75.7142 63.3617 75.9523 63.1244 76.4285ZM53.3947 66.9047C53.632 66.4285 53.8693 66.1904 54.3439 65.7142C54.5812 66.1904 54.5812 66.4285 54.8185 66.9047C54.3439 66.9047 53.8693 66.9047 53.3947 66.9047ZM44.3769 68.0952C42.2411 69.2857 41.7665 72.3809 41.0546 74.5238C40.8173 75.238 40.58 76.1904 40.3426 76.9047C40.8173 73.3333 42.0038 70 44.1396 67.1428C44.3769 67.3809 44.3769 67.8571 44.3769 68.0952ZM34.1726 68.5714C34.1726 68.3333 34.4099 68.0952 34.4099 68.0952C34.4099 68.3333 34.1726 68.5714 34.1726 68.5714ZM3.08503 86.9047C4.27157 85.9523 5.22081 85 6.17005 84.0476C7.11929 83.3333 8.06853 82.1428 8.78046 81.1904C9.7297 80 10.6789 78.5714 11.3909 77.1428L11.6282 77.3809C8.78046 82.1428 5.45812 87.1428 3.08503 86.9047ZM13.052 75C13.052 74.7619 13.052 74.7619 13.052 75C13.5267 74.0476 14.0013 73.0952 14.4759 72.3809C14.0013 73.0952 13.5267 73.8095 13.052 75ZM3.08503 83.5714C2.84772 83.5714 2.61041 83.8095 2.3731 83.8095C2.61041 80.2381 3.32234 75.9523 6.88198 75.9523C7.59391 75.9523 8.30584 75.9523 9.01777 76.1904C7.3566 78.8095 5.45812 81.1904 3.08503 83.5714ZM25.6294 83.3333C26.1041 83.0952 26.5787 82.619 27.0533 82.3809C26.816 82.8571 26.5787 83.3333 26.1041 83.8095C25.6294 84.0476 25.1548 84.0476 24.4429 84.0476C24.2056 84.0476 24.2056 84.0476 23.9683 84.0476C24.4429 83.8095 25.1548 83.5714 25.6294 83.3333ZM146.657 76.1904C146.183 77.1428 144.996 77.8571 144.047 77.3809C142.623 76.4285 142.386 74.2857 142.386 72.8571C141.911 68.0952 141.674 63.5714 140.962 58.8095C140.725 57.619 139.063 57.1428 138.352 57.8571C136.928 57.1428 135.029 56.9047 133.605 57.3809C130.995 58.3333 129.096 60.7142 127.673 63.0952C126.249 65.9523 125.537 69.0476 125.3 72.1428C125.062 72.619 124.588 73.3333 124.35 73.8095C123.876 74.2857 123.638 74.7619 123.164 75.2381C122.689 75.7142 122.452 75.9523 121.74 75.7142C121.265 75.4761 120.791 75.238 120.316 74.7619C120.079 74.5238 120.079 74.5238 120.079 74.2857C118.655 70 118.18 65.238 118.892 60.7142C119.129 59.5238 117.943 58.8095 116.994 58.8095C112.722 58.8095 109.874 62.1428 108.451 66.1904C108.213 66.6666 108.213 67.1428 107.976 67.8571C107.501 64.7619 106.789 61.9047 106.077 58.8095C105.84 58.0952 105.365 57.619 104.654 57.3809C101.331 54.2857 98.4835 62.619 98.0089 64.7619C97.297 66.9047 96.8223 69.0476 96.585 71.1904C96.1104 72.619 95.6358 74.0476 95.1612 75.2381C94.6866 76.4285 94.2119 78.8095 93.2627 80.2381C93.0254 79.7619 93.0254 79.2857 92.7881 78.8095C92.5508 78.0952 92.5508 77.1428 92.3135 76.4285C92.0762 75.238 92.0761 74.0476 92.0761 72.8571C92.0761 72.1428 92.0761 71.6666 92.0761 70.9523C92.0761 68.5714 92.0761 66.1904 92.0761 63.8095C92.0761 62.619 92.0761 61.6666 92.0761 60.4761C92.0761 59.7619 91.6015 59.0476 90.8896 58.5714C89.9404 58.0952 89.2284 58.5714 88.7538 59.2857C88.2792 59.2857 87.8046 59.5238 87.5673 60C82.1091 59.2857 77.8376 63.8095 75.7018 69.5238C74.7525 71.1904 74.5152 73.3333 74.2779 75.2381C74.0406 77.1428 73.8033 79.0476 73.8033 80.9523C73.0914 81.6666 72.3794 82.1428 71.6675 80.7142C70.7183 79.2857 70.481 76.9047 70.2437 75.2381C69.2944 71.4285 68.5825 67.3809 67.8706 63.3333C67.6333 62.3809 66.4467 61.9047 65.7348 62.619C65.4975 62.3809 65.2602 62.3809 64.7855 62.3809C63.3617 62.8571 62.8871 65.238 62.6498 66.4285C62.1751 68.0952 62.1751 69.7619 61.9378 71.6666C61.7005 73.5714 61.2259 75.4761 60.7513 77.3809C60.514 78.3333 60.2767 79.2857 60.0393 80.2381V80.4761C59.802 80 59.5647 79.2857 59.5647 79.0476C59.0901 77.8571 58.8528 76.4285 58.8528 75.2381C58.8528 74.5238 58.6155 73.5714 58.6155 72.8571C58.3782 70.238 58.1409 67.619 56.9543 65.4761C56.717 64.2857 56.2424 62.8571 55.0558 62.1428C53.8693 61.4285 52.6827 61.6666 51.9708 62.619C51.0216 63.5714 50.547 64.7619 49.835 65.9523C49.1231 67.3809 48.6485 68.8095 48.4112 70.4761C48.1739 70.9523 48.1739 71.6666 48.1739 72.1428C47.6992 70 46.9873 67.8571 46.2754 65.7142V65.4761C46.0381 65 46.0381 64.5238 45.8008 64.0476C45.5635 63.5714 45.0888 63.3333 44.6142 63.5714H44.3769C43.1904 63.5714 42.4784 64.2857 42.0038 65.238C40.58 67.1428 40.3426 69.7619 39.6307 71.9047C39.3934 72.619 39.1561 73.3333 38.9188 74.0476C38.9188 73.5714 38.6815 73.0952 38.6815 72.8571C38.6815 72.619 38.6815 72.1428 38.4442 71.9047C38.2069 69.5238 37.2576 65.7142 34.6472 65C31.7995 64.2857 31.0876 69.0476 30.6129 70.9523C30.3756 72.1428 30.1383 73.3333 29.6637 74.5238C29.4264 75 29.1891 75.7142 28.9518 76.1904C28.7145 76.6666 28.2399 77.3809 28.0025 77.8571C27.0533 79.0476 26.1041 80.238 24.9175 81.1904C23.731 81.9047 22.3071 82.619 21.1206 82.1428C20.4086 81.6666 19.6967 80.9523 19.2221 80.2381C17.5609 78.3333 15.6624 76.4285 13.764 74.7619C13.764 74.5238 14.0013 74.5238 14.0013 74.2857C16.3744 69.7619 18.5102 65.238 20.4086 60.7142C21.1206 59.0476 22.0698 57.619 22.7817 55.9523C24.2056 53.0952 25.8668 49.9999 27.2906 47.1428C27.7652 46.4285 26.816 45.7142 26.1041 45.7142C25.8668 45.7142 25.3921 45.7142 25.1548 45.7142C25.1548 45.7142 24.9175 45.7142 24.9175 45.9523C23.019 47.1428 21.1206 47.619 18.9848 48.3333C17.3236 48.5714 15.8997 48.8095 14.4759 49.5238C12.5774 50.7142 11.3909 53.5714 13.052 55.4761C13.2893 55.7142 13.764 55.7142 13.764 55.238H14.0013C14.4759 55 14.7132 54.5238 14.9505 54.0476C15.1878 52.8571 15.1878 51.6666 15.8997 50.9523C16.849 50.7142 18.2728 50.4761 18.9848 50.238C19.4594 50.238 19.934 49.9999 20.4086 49.9999C21.5952 49.9999 22.7817 49.7618 23.731 49.5238C23.2563 50.4761 23.019 51.1904 22.5444 52.1428C19.4594 57.619 16.3744 63.3333 13.2893 68.8095C12.3401 70.4761 11.3909 72.1428 10.4416 73.8095C7.83122 72.8571 4.50888 72.8571 2.61041 75.4761C2.13579 75.9523 1.89848 76.6666 1.66117 77.1428C0.949239 78.0952 0.474619 79.0476 0.23731 80.2381C0 80.9523 0 81.9047 0.23731 82.8571C0 84.2857 0 85.4762 0 86.6666C0 87.619 1.18655 88.5714 1.89848 87.8571C3.32234 88.8095 5.93274 86.9047 6.88198 85.9523C9.01777 83.8095 10.6789 80.9523 12.3401 78.0952C13.764 79.2857 14.9505 80.9523 16.1371 82.1428C16.3744 82.3809 16.6117 82.619 16.6117 82.619C17.3236 83.5714 18.0355 84.5238 18.9848 85.4762C20.1713 86.6666 21.5952 87.1428 23.019 87.3809C23.4937 87.619 24.2056 87.619 24.6802 87.619C27.2906 87.619 29.6637 86.4285 30.6129 84.0476C31.5622 83.0952 32.0368 81.6666 32.2741 80.2381C32.7487 77.8571 32.986 75.2381 32.986 72.8571C33.4607 71.9047 33.698 70.9523 34.1726 70.238C34.4099 69.7619 34.6472 69.5238 34.8845 69.2857C35.8338 71.1904 35.5965 74.5238 35.8338 76.1904C36.0711 79.2857 36.3084 82.619 36.783 85.7142C37.0203 87.1428 39.3934 87.619 39.6307 85.9523C39.6307 84.7619 39.6307 83.3333 39.6307 82.1428C39.868 81.4285 40.1053 80.7142 40.3426 80C40.8173 78.5714 41.2919 77.1428 41.5292 75.7142C42.0038 74.5238 42.2411 73.0952 42.7157 71.9047C42.953 71.4285 43.1904 70.9523 43.4277 70.4761C43.665 70.238 43.9023 69.7619 44.3769 69.5238C44.6142 70.7142 45.0888 72.1428 45.3261 73.3333C45.3261 73.8095 45.5635 74.5238 45.5635 75C46.0381 77.8571 46.2754 80.7142 46.75 83.5714C46.9873 85.238 49.835 85.2381 49.5977 83.3333C49.5977 82.3809 49.3604 81.4285 49.3604 80.2381C49.3604 80 49.3604 79.7619 49.3604 79.2857C50.0723 76.9047 50.7843 74.2857 51.4962 71.9047C51.7335 71.1904 51.9708 70.4761 52.2081 70C52.4454 69.5238 52.9201 68.5714 53.632 68.0952C54.3439 67.8571 54.8185 68.5714 55.0558 69.7619C55.2932 71.9047 55.2932 74.0476 55.5305 76.1904C55.7678 79.0476 56.717 84.0476 60.0393 85C63.8363 86.1904 65.0229 80.7142 65.9721 78.0952C66.2094 76.9047 66.684 75.9523 66.684 74.7619C67.1586 77.3809 67.6333 80.238 68.8198 82.8571C69.769 84.7619 71.6675 86.1904 73.8033 85.7142C74.5152 85.4761 75.2272 85 75.9391 84.5238C78.7868 87.619 84.4822 82.619 86.3807 80C87.33 78.5714 88.0419 76.9047 88.7538 75.4761C88.7538 75.9523 88.7538 76.6666 88.9911 77.1428C89.2284 79.5238 90.6523 87.1428 94.6866 84.5238C96.3477 83.5714 97.0597 81.1904 97.5343 79.7619C98.4835 77.619 98.9581 75.4761 99.6701 73.3333C100.857 69.7619 101.806 66.1904 103.704 63.0952C105.128 69.5238 105.365 75.9523 105.128 82.3809C105.128 84.5238 108.213 85.2381 108.688 83.0952C109.4 79.0476 110.112 75 110.824 71.1904C111.298 68.3333 112.485 65 114.858 63.5714C114.383 69.0476 114.858 75.4761 117.943 79.7619C119.367 81.6666 121.503 83.0952 124.113 82.619C124.825 82.619 125.3 82.1428 125.774 81.9047C126.249 82.3809 126.961 82.3809 127.673 82.3809C128.385 82.8571 129.096 82.8571 129.808 82.8571C131.47 82.3809 132.893 80.9523 134.08 79.7619C135.267 78.3333 136.453 76.9047 137.165 75.2381C137.64 74.5238 137.877 73.5714 138.114 72.8571C138.114 74.5238 138.352 76.4285 139.063 78.0952C140.013 80.7142 142.623 82.8571 145.471 82.619C148.319 82.3809 150.217 80 149.268 77.1428C149.03 75.2381 147.132 75 146.657 76.1904Z" fill="black"/>
<path d="M64.7842 47.619C64.7842 47.619 65.0215 47.619 64.7842 47.619C65.0215 47.8571 65.0215 47.8571 65.0215 47.8571C65.2588 48.0952 65.4961 48.3333 65.7334 48.3333C65.9707 48.3333 65.9707 48.5714 66.208 48.5714C66.4453 48.5714 66.6827 48.8095 66.92 48.5714C66.92 48.5714 66.92 48.5714 67.1573 48.5714C67.3946 48.5714 67.6319 48.5714 67.6319 48.5714C67.8692 48.5714 67.8692 48.3333 68.1065 48.3333C68.3438 48.0952 68.5811 48.0952 68.5811 47.8571L68.8184 47.619C69.0558 47.3809 69.0558 47.1428 69.0558 46.9047C69.0558 46.6666 69.2931 46.4285 69.2931 46.1904C69.2931 45.7143 69.2931 45.2381 69.0558 44.7619C69.0558 44.5238 68.8184 44.5238 68.8184 44.2857C68.5811 44.0476 68.3438 43.8095 68.1065 43.8095C67.8692 43.8095 67.8692 43.5714 67.6319 43.5714C67.3946 43.5714 67.1573 43.3333 66.92 43.5714C66.6827 43.5714 66.6827 43.5714 66.4454 43.5714C66.208 43.5714 66.208 43.5714 65.9707 43.8095C65.9707 43.8095 65.9707 43.8095 65.7334 43.8095C65.7334 43.8095 65.4961 43.8095 65.4961 44.0476C65.2588 44.2857 65.2588 44.2857 65.0215 44.5238C64.7842 45 64.5469 45.4762 64.5469 45.9523C64.5469 46.1904 64.5469 46.4285 64.5469 46.6666C64.5469 47.1428 64.5469 47.3809 64.7842 47.619Z" fill="black"/>
<path d="M248.939 69.7619C248.227 70.9524 247.278 72.3809 245.854 72.8571C245.616 72.8571 245.379 73.0952 245.142 73.0952C245.616 72.619 245.854 71.9047 246.328 71.4285C247.515 70 248.464 68.3333 249.413 66.9047C249.888 66.1905 250.363 65.4762 250.6 64.5238C250.6 64.7619 250.363 65 250.363 65.4762C250.125 67.1428 249.651 68.5714 248.939 69.7619ZM232.09 62.3809C231.378 63.8095 230.903 65.2381 230.429 66.6666C229.954 68.0952 229.717 69.5238 229.479 70.9524C229.242 71.6666 229.242 72.3809 229.005 73.3333C229.005 73.5714 228.767 74.0476 228.53 74.2857C228.53 74.2857 228.293 74.5238 228.293 74.7619C228.293 70.4762 229.242 65.9524 231.141 62.1428C231.615 60.9524 232.327 60 233.039 59.0476C233.751 58.0952 233.276 58.8095 233.514 59.7619C233.514 60 233.514 60.4762 233.751 60.7143C232.802 61.1905 232.327 61.9047 232.09 62.3809ZM219.275 68.0952C219.038 69.0476 218.8 70 218.326 71.1904C218.8 67.3809 219.987 63.8095 221.411 60.4762C221.411 60.2381 222.123 59.2857 222.123 59.0476C222.123 59.2857 222.36 60.2381 222.36 60.4762C220.936 62.619 219.987 65.4762 219.275 68.0952ZM190.561 70.2381C190.561 69.5238 190.561 68.8095 190.798 68.0952C190.798 69.0476 190.798 70 190.798 70.9524C190.798 71.4285 190.798 71.9047 190.798 72.3809C190.561 71.6666 190.561 70.9524 190.561 70.2381ZM196.493 75C196.019 75.4762 195.781 75.4762 195.307 75.2381C194.832 75 194.595 74.5238 194.358 74.0476C193.408 72.3809 193.408 70.2381 193.646 68.0952C193.646 68.8095 193.646 69.5238 193.883 70.2381C194.358 71.9047 195.307 73.5714 196.731 74.5238C196.731 74.7619 196.731 75 196.493 75ZM198.866 71.6666C198.392 72.3809 198.155 73.0952 197.68 73.8095C196.019 73.0952 195.307 71.4285 195.069 69.7619C194.832 68.3333 195.069 66.9047 195.544 65.4762C195.781 64.7619 195.781 64.0476 196.019 63.3333C196.968 61.9047 198.155 60.2381 199.578 59.2857C199.816 59.2857 200.29 59.5238 200.528 59.7619C201.24 60.4762 201.24 61.4285 201.477 62.1428C201.24 64.0476 201.002 65.9524 200.528 68.0952C200.053 69.0476 199.578 70.4762 198.866 71.6666ZM244.43 60.7143C245.616 58.3333 248.464 55.2381 251.312 55.7143C250.363 58.8095 249.413 61.6666 247.752 64.5238C246.803 66.1905 245.854 67.619 244.667 69.2857C244.193 70 243.718 70.7143 243.006 71.4285L242.769 71.6666C242.769 71.4285 242.769 71.1904 242.531 71.1904C242.294 67.619 242.769 63.8095 244.43 60.7143ZM261.753 67.619C261.042 68.5714 260.567 69.0476 259.618 69.0476C258.668 69.0476 257.957 67.8571 257.482 66.9047C255.821 63.3333 255.109 59.2857 254.872 55.4762C254.872 54.2857 253.21 53.5714 252.261 54.0476C249.413 52.8571 246.091 54.0476 244.193 56.4285C242.057 59.0476 240.87 62.3809 240.396 65.7143C240.158 65.9524 239.921 66.1904 239.921 66.6666C239.921 66.9047 239.684 67.3809 239.684 67.619C239.446 67.8571 239.446 68.0952 239.209 68.5714V68.8095C239.209 69.0476 238.972 69.0476 238.972 69.2857L238.734 69.5238C238.734 69.5238 238.734 69.5238 238.497 69.2857C238.497 69.2857 238.497 69.2857 238.26 69.0476C238.023 68.8095 237.785 68.5714 237.785 68.3333C237.548 68.0952 237.548 67.8571 237.548 67.619C237.548 66.9047 237.548 66.4285 237.548 65.7143C237.548 64.0476 237.785 62.1428 237.311 60.2381C236.836 58.0952 235.175 54.2857 232.327 55.2381C229.717 56.1905 228.293 60.7143 227.344 63.0952C227.344 63.3333 227.106 63.5714 227.106 64.0476C226.869 63.3333 226.869 62.3809 226.632 61.6666C226.157 59.2857 225.445 54.7619 221.885 55.9524C219.038 56.9047 217.851 62.1428 217.139 64.7619C217.139 65 217.139 65 216.902 65.2381C216.902 65 216.902 64.7619 216.902 64.2857C216.665 61.1905 216.19 58.8095 213.817 56.9047C213.342 56.4285 212.156 56.4285 211.918 57.3809C211.207 60.4762 210.257 63.3333 209.545 66.4285C209.308 67.8571 208.833 69.0476 208.596 70.4762C208.359 71.4285 208.122 73.3333 207.41 74.2857C207.172 74.5238 206.935 74.7619 206.698 74.7619C206.223 74.2857 205.986 73.5714 205.986 72.8571C205.748 71.9047 205.511 70.9524 205.274 69.7619C204.799 67.8571 204.562 65.7143 204.562 63.5714C204.325 61.4285 204.087 59.2857 204.087 57.1428C204.087 56.6666 203.375 56.4285 203.138 56.9047C201.951 56.1905 200.765 56.4285 199.578 56.9047C197.917 56.6666 196.019 57.619 194.832 58.5714C194.595 58.8095 194.12 59.0476 193.883 59.2857C191.984 61.4285 190.323 64.2857 189.849 67.1428C189.374 70 189.137 73.5714 191.51 75.4762L191.747 75.7143C191.984 76.1904 192.222 76.6666 192.459 77.1428C194.832 81.1905 198.866 79.2857 200.528 75.9524C201.24 74.2857 201.951 72.3809 202.426 70.4762V70.7143C202.663 73.0952 203.375 76.4285 205.986 77.1428C206.935 77.3809 207.647 77.1428 208.122 76.9047C208.359 76.9047 208.833 76.9047 209.071 76.6666H209.308C210.495 76.1905 210.969 74.2857 211.207 73.3333C211.681 71.9047 211.918 70.2381 211.918 68.8095C212.156 67.3809 212.156 65.9524 212.393 64.5238C212.63 63.5714 212.868 62.8571 213.105 61.9047C213.342 61.4285 213.342 61.1905 213.58 60.7143C213.817 62.8571 213.342 65.2381 213.342 66.6666C213.342 70 213.817 73.3333 214.529 76.6666C215.003 78.5714 218.326 79.2857 218.326 76.9047C218.326 76.6666 218.326 76.4285 218.326 76.1904C219.512 73.8095 220.224 71.1904 220.936 68.8095C221.411 67.3809 221.885 65.9524 222.36 64.2857C222.597 63.5714 222.835 63.0952 223.072 62.3809C223.309 63.3333 223.309 64.0476 223.547 65C224.021 68.0952 224.259 71.4285 224.733 74.5238C224.97 76.1904 227.581 76.6666 228.293 75.4762C228.767 75.4762 229.242 75.4762 229.479 75C230.666 73.8095 230.903 71.6666 231.378 70C231.852 68.0952 232.327 66.1905 233.039 64.5238C233.276 64.0476 233.514 63.5714 233.751 63.0952C233.751 63.8095 233.751 64.7619 233.751 65.4762C233.751 68.5714 233.988 72.3809 237.073 74.0476C238.734 75 240.633 74.5238 241.819 73.3333C242.057 73.8095 242.531 74.0476 243.243 74.0476C243.718 74.0476 243.955 74.0476 244.193 73.8095C244.43 73.8095 244.667 74.0476 244.904 74.0476C246.803 74.2857 248.464 73.0952 249.413 71.6666C250.6 70.2381 251.312 68.5714 252.024 66.6666C252.261 65.9524 252.498 65.2381 252.736 64.5238C253.21 66.4285 253.922 68.3333 255.109 70C256.533 71.9047 258.906 73.0952 261.279 72.8571C263.415 72.619 266.262 70.7143 265.55 68.0952C264.601 67.1428 262.94 66.1904 261.753 67.619Z" fill="black"/>
<path d="M330.574 84.5238C330.574 85 330.811 85.238 331.048 85.7142C330.574 85.4761 330.574 85 330.574 84.5238ZM326.54 64.5238C326.302 62.8571 326.065 60.9523 326.302 59.0476C326.54 59.2857 326.777 59.2857 326.777 59.5238C326.54 61.4285 327.014 63.3333 327.251 65.238C327.489 66.6666 327.963 68.3333 329.15 69.0476C329.15 69.0476 329.15 69.0476 328.913 69.0476C327.489 68.3333 326.777 65.9523 326.54 64.5238ZM333.896 49.5238C335.32 51.1904 333.659 53.5714 332.472 54.5238C330.574 55.9523 328.913 55.7142 327.251 54.7619C327.726 53.5714 328.201 52.619 328.913 51.4285C329.625 50.238 332.235 47.8571 333.896 49.5238ZM336.744 55.9523C335.795 57.8571 333.659 59.0476 331.76 59.2857C331.523 59.2857 331.523 59.2857 331.286 59.2857C331.76 59.2857 331.998 59.0476 332.472 59.0476C335.557 58.0952 337.693 54.7619 337.456 51.6666C337.693 53.0952 337.456 54.5238 336.744 55.9523ZM335.557 65.4761C335.557 65.9523 335.32 66.6666 335.32 67.1428C335.083 66.9047 334.845 66.6666 334.371 66.6666C334.608 66.1904 334.845 65.7142 335.557 65.4761ZM316.098 68.0952C315.861 66.9047 315.623 65 315.623 64.7619C315.386 63.0952 315.386 61.4285 315.386 59.5238C315.386 58.3333 315.386 57.1428 315.386 55.9523C315.386 56.1904 315.386 56.4285 315.386 56.9047C315.623 58.8095 315.861 60.9523 316.098 62.8571C316.335 64.0476 316.573 65.4761 317.047 66.9047C316.81 67.1428 316.81 67.619 316.573 67.8571C316.335 67.8571 316.335 68.0952 316.098 68.0952ZM306.368 60.7142C306.606 60.4761 306.843 60.238 307.08 60C306.843 60.4761 306.843 60.7142 306.606 61.1904C306.606 60.9523 306.368 60.9523 306.368 60.7142ZM302.097 69.0476C302.571 68.3333 302.809 67.619 303.283 66.9047C303.758 65.9523 303.758 64.9999 303.995 64.0476V64.2857C304.232 65.9523 303.521 67.8571 302.097 69.0476ZM291.418 61.9047C292.13 60.238 293.079 58.8095 294.028 57.1428C294.74 55.9523 295.452 54.7619 296.401 53.8095C295.689 55.4761 294.977 56.9047 294.265 58.5714C293.079 61.1904 292.13 64.0476 291.18 66.6666C290.231 65.238 290.706 63.5714 291.418 61.9047ZM334.845 82.1428C334.371 82.8571 333.659 84.5238 332.472 85.238C331.76 83.8095 331.523 82.1428 332.235 80.4761C332.71 78.8095 333.659 77.1428 334.371 75.4761C335.795 71.9047 336.744 68.3333 337.219 64.5238C337.219 64.0476 336.744 63.5714 336.269 63.5714C335.083 63.8095 333.896 64.2857 333.184 64.9999C332.472 65.9523 331.998 67.8571 330.811 68.0952C328.675 68.3333 328.675 65.238 328.438 63.8095C328.201 62.619 328.201 61.1904 327.963 60C330.574 60.9523 333.659 60.7142 336.032 59.0476C339.354 56.6666 340.304 51.6666 337.693 48.3333C336.981 47.3809 336.032 46.6666 334.845 46.1904C334.133 45.9523 333.184 45.9523 332.472 45.7142C332.235 45.7142 331.76 45.7142 331.523 45.7142C331.048 45.7142 330.811 45.7142 330.574 45.7142C330.337 45.7142 330.099 45.7142 330.099 45.9523C329.862 45.9523 329.625 46.1904 329.387 46.1904C327.014 47.1428 325.59 49.5238 324.404 51.9047C324.166 51.4285 323.692 51.1904 323.455 50.7142C322.743 49.7618 321.319 49.9999 321.081 51.1904C320.607 54.7619 319.658 58.3333 318.708 61.6666C318.471 62.619 318.234 63.5714 317.759 64.5238C317.522 63.5714 317.284 62.619 317.047 61.6666C316.573 59.5238 316.335 57.3809 316.098 55.238C315.861 53.0952 316.335 48.8095 314.437 47.3809C314.437 47.1428 313.962 46.6666 313.725 46.9047C313.725 46.9047 313.488 46.9047 313.488 47.1428C312.301 47.619 311.589 48.8095 310.877 49.7619C310.165 50.9523 309.453 52.1428 308.979 53.3333C308.029 55.4761 307.08 57.619 305.656 59.2857C305.419 58.8095 305.182 58.5714 305.182 58.0952C303.758 55.238 302.334 52.3809 300.91 49.5238C300.91 49.2857 300.673 49.2857 300.673 49.0476C300.673 48.8095 300.673 48.5714 300.673 48.3333C300.673 47.619 299.724 47.1428 299.249 47.619C296.401 50.4761 294.028 53.8095 291.892 57.3809C290.468 59.9999 287.858 64.2857 290.231 67.1428C290.231 67.3809 290.468 67.8571 290.706 68.0952C290.943 69.0476 292.13 69.5238 292.842 68.3333C292.842 68.3333 292.842 68.3333 292.842 68.0952C293.316 67.8571 293.554 67.3809 293.791 66.9047C294.265 66.1904 294.503 65.238 294.74 64.5238C295.689 62.8571 296.401 61.1904 297.113 59.5238C298.062 57.619 299.012 55.7142 299.724 53.5714C300.198 54.7619 300.673 55.9523 301.147 56.9047C301.385 57.619 301.622 58.0952 301.622 58.8095C302.097 60.7142 302.571 62.8571 301.859 64.7619C301.622 65.7142 301.147 66.6666 300.435 67.3809C299.961 68.0952 299.249 68.5714 299.012 69.5238C298.3 69.5238 297.588 69.5238 296.876 69.2857C294.74 68.8095 294.265 71.9047 296.164 72.619C301.147 74.5238 306.843 71.1904 307.555 65.7142C307.555 65.238 307.555 64.5238 307.555 64.0476C309.216 61.1904 310.64 57.8571 312.064 54.7619C311.826 57.1428 311.826 59.5238 312.064 61.6666C312.064 63.8095 312.301 65.9523 312.776 68.0952C313.013 69.7619 313.725 71.1904 315.386 71.6666C318.708 72.619 320.607 67.1428 321.081 64.7619C322.031 61.1904 322.268 57.619 322.98 54.0476C322.98 54.2857 323.217 54.2857 323.217 54.5238C322.031 59.0476 322.031 64.2857 324.404 68.3333C325.59 70.4761 327.726 71.9047 330.099 72.1428C329.387 74.0476 328.675 75.9523 327.963 77.619C327.014 80 326.065 82.619 326.777 85.238C327.489 87.8571 329.862 89.5238 332.472 89.2857C335.557 89.0476 337.219 86.1904 338.405 83.5714C339.354 82.3809 336.032 80.238 334.845 82.1428Z" fill="black"/>
<path d="M314.434 36.6666C314.434 36.9047 314.671 37.1428 314.908 37.3809L315.146 37.619C315.383 37.8571 315.62 38.0952 315.857 38.3333C316.095 38.3333 316.095 38.5714 316.332 38.5714C316.569 38.5714 316.807 38.8095 317.044 38.8095C317.281 38.8095 317.281 38.8095 317.519 38.8095C317.756 38.8095 317.993 38.8095 317.993 38.5714C318.231 38.3333 318.468 38.3333 318.468 38.0952C318.705 37.8571 318.705 37.619 318.942 37.619C319.18 37.3809 319.18 36.9047 319.18 36.6666C319.18 36.4286 319.18 36.1905 319.18 35.9524C319.18 35.4762 318.943 35.2381 318.705 34.7619C318.468 34.5238 318.468 34.2857 318.231 34.2857C317.993 34.0476 317.756 34.0476 317.281 33.8095C317.044 33.8095 316.807 33.8095 316.569 33.8095C316.332 33.8095 316.332 33.5714 316.095 33.5714C315.62 33.5714 315.383 33.5714 314.908 33.8095L314.671 34.0476C314.434 34.2857 314.434 34.5238 314.434 34.7619V35C314.434 35.2381 314.434 35.4762 314.434 35.7143C314.196 35.9524 314.434 36.1905 314.434 36.6666Z" fill="black"/>
<path d="M184.629 65C185.341 66.4285 186.053 67.8571 186.528 69.5238C185.816 67.8571 185.104 66.4285 184.629 65ZM182.019 61.9047C182.493 64.0476 183.443 65.9523 184.392 68.0952C185.104 70 186.053 72.8571 184.392 74.5238C183.68 75.2381 182.493 75.7143 181.544 75.2381C181.069 75 180.832 74.7619 180.595 74.5238C180.358 74.2857 180.358 73.8095 180.358 73.5714C180.358 72.619 178.934 71.9047 178.459 72.8571C177.035 75.4762 179.646 78.0952 182.256 78.5714C184.866 79.0476 187.24 77.1428 188.189 74.7619C189.375 71.6666 188.189 68.5714 187.002 65.7143C185.341 62.3809 183.68 58.8095 182.256 55.2381C182.019 54.7619 181.307 54.2857 180.832 54.5238C180.595 54.5238 180.358 54.5238 180.12 54.7619C179.646 55.9524 179.171 56.9047 178.459 58.0952C176.323 61.9047 174.425 65.9523 172.764 70C172.289 70.9523 173.95 72.1428 174.662 71.1904C177.035 66.9047 179.408 62.619 181.544 58.0952C181.544 59.5238 181.781 60.7143 182.019 61.9047Z" fill="black"/>
<path d="M407.699 53.8095C407.225 52.3809 406.988 50.4762 406.988 48.8095C407.462 48.8095 407.699 48.8095 408.174 48.8095C408.649 52.3809 409.123 56.4286 412.683 58.3333H412.92C410.31 58.3333 408.411 56.4286 407.699 53.8095ZM408.174 42.8571C408.886 41.4285 410.31 39.5238 411.971 40C415.056 40.7143 412.208 44.2857 410.784 45C409.835 45.4762 408.649 45.4762 407.462 45.7143C407.462 44.5238 407.699 43.5714 408.174 42.8571ZM363.56 55.4762C363.56 55.2381 363.56 55 363.56 54.7619C363.56 53.8095 363.323 52.8571 363.323 52.1428C363.323 51.6666 363.323 51.1905 363.323 50.7143C363.323 50 363.56 49.2857 363.797 48.5714C364.272 47.619 364.746 46.6666 365.458 45.7143C365.933 45.2381 366.408 44.5238 367.119 44.0476C367.357 43.8095 367.594 43.5714 367.831 43.5714C365.696 47.1428 364.034 51.1905 363.56 55.4762ZM420.751 51.4286C419.565 53.3333 418.378 55.4762 416.717 56.6666C415.531 57.3809 414.344 57.619 413.158 56.9047C411.734 56.1905 411.022 54.5238 410.547 53.0952C410.073 51.6666 409.598 50 409.361 48.5714C410.547 48.3333 411.734 48.0952 412.92 47.619C415.768 46.1905 417.666 42.8571 416.243 39.7619C415.056 36.9047 411.496 36.1905 408.886 37.3809C405.564 38.8095 404.377 42.8571 404.14 46.4286C404.14 46.4286 404.14 46.4286 404.14 46.6666L403.902 46.9047C402.953 47.619 402.953 48.5714 402.716 49.7619C402.479 51.6666 402.479 53.3333 402.004 55.2381C401.767 55.9524 401.055 59.5238 400.106 59.7619C399.631 60 397.495 56.4286 397.495 55.9524C395.834 52.619 395.359 49.0476 395.597 45.4762C395.834 43.5714 392.749 42.8571 392.274 44.7619C391.8 47.619 391.088 50.4762 390.613 53.3333C390.376 54.7619 389.427 61.6666 386.579 60.2381C385.63 59.7619 385.63 57.619 385.63 56.6666C385.392 55.2381 385.155 53.5714 384.918 52.1428C384.443 50 384.206 47.3809 383.019 45.4762C382.307 44.2857 380.883 43.3333 379.222 43.8095C377.324 44.5238 376.612 47.1428 376.137 48.8095C375.663 50.2381 375.425 51.6666 375.188 53.3333C374.713 51.1905 374.239 49.2857 373.527 47.1428C372.815 44.5238 371.154 41.6666 368.306 41.4285C365.458 41.1905 364.034 43.8095 363.323 45.9524C363.085 46.6666 362.848 47.619 362.611 48.5714C362.611 48.5714 362.611 48.5714 362.611 48.8095C362.373 49.5238 362.373 50.2381 362.373 50.7143C362.136 52.3809 362.136 54.0476 362.373 55.7143C362.611 56.9047 362.848 59.2857 364.034 59.7619C364.272 60 364.746 60 364.984 59.7619C365.696 59.7619 366.17 59.5238 366.408 58.8095C366.645 54.7619 367.831 50.7143 369.73 47.3809C371.391 53.0952 372.815 59.0476 373.764 64.7619C373.764 65 373.764 65 373.764 65.2381C373.764 65.4762 373.764 65.7143 374.001 65.7143C374.476 67.1428 376.849 67.3809 377.086 65.7143C377.086 59.7619 377.324 54.0476 379.697 48.5714C379.934 48.3333 380.172 46.9047 380.646 47.1428C380.883 47.1428 380.883 48.5714 381.121 48.8095C381.358 50.2381 381.595 51.9047 381.833 53.3333C382.07 55.7143 382.07 58.3333 383.019 60.7143C384.68 64.5238 389.427 65 392.037 61.6666C393.461 60 393.698 57.619 394.173 55.4762C394.41 55.9524 394.41 56.1905 394.647 56.6666C395.834 59.0476 398.207 64.0476 401.529 63.0952C403.665 62.3809 404.852 59.2857 405.564 56.6666C405.801 57.619 406.276 58.3333 406.988 59.0476C412.446 66.1905 423.125 60.7143 424.311 52.8571C423.599 51.4286 421.463 50 420.751 51.4286Z" fill="black"/>
<path d="M391.798 31.4286C392.035 31.4286 392.035 31.4286 391.798 31.4286C391.798 31.4286 391.561 31.4286 391.561 31.6667C391.798 31.4286 391.798 31.4286 391.798 31.4286ZM390.137 33.0953C390.137 33.3334 390.137 33.3334 390.137 33.0953C390.374 33.5715 390.374 33.8096 390.611 34.0477C390.849 34.2858 390.849 34.2858 391.086 34.5239C391.323 34.5239 391.323 34.762 391.561 34.762C391.798 34.762 392.035 35.0001 392.035 35.0001C392.035 35.0001 392.035 35.0001 392.273 35.0001C392.51 35.0001 392.747 35.0001 392.984 35.0001C393.222 35.0001 393.696 35.0001 393.934 34.762C394.171 34.5239 394.171 34.5239 394.408 34.2858C394.408 34.0477 394.646 34.0477 394.646 33.8096C394.646 33.5715 394.883 33.3334 394.646 33.0953C394.646 32.8572 394.646 32.6191 394.408 32.381C394.408 32.1429 394.171 32.1429 394.171 31.9048C393.934 31.6667 393.696 31.4286 393.459 31.4286C393.459 31.1905 393.459 31.1905 393.222 30.9524C393.222 30.7143 392.984 30.4762 392.747 30.2382C392.747 30.0001 392.51 30.0001 392.273 30.0001C392.035 29.762 391.798 29.762 391.561 29.762C391.323 29.762 391.323 29.762 391.086 29.762C390.849 29.762 390.374 30.0001 390.137 30.0001C389.899 30.2382 389.899 30.2382 389.662 30.4762C389.662 30.7143 389.425 30.7143 389.425 30.9524C389.425 31.1905 389.425 31.4286 389.188 31.4286C389.188 31.6667 389.188 31.9048 389.188 32.1429C389.899 32.8572 390.137 33.0953 390.137 33.0953Z" fill="black"/>
<path d="M529.673 35.2381C529.91 35.2381 529.91 35.2381 529.673 35.2381V35.2381ZM522.791 34.5238C522.791 34.2857 522.791 34.2857 522.553 34.0476C523.502 34.5238 524.689 34.7619 525.638 35C524.926 35 524.452 35 523.74 34.7619C523.502 34.7619 523.028 34.7619 522.791 34.5238ZM515.671 44.7619C514.722 44.2857 514.485 42.619 514.247 41.1905C514.959 41.9048 515.909 42.3809 517.095 42.8571C517.57 43.0952 518.282 43.0952 518.756 43.0952C518.044 44.2857 517.095 45.4762 515.671 44.7619ZM497.161 46.1905C496.212 45.2381 495.737 43.0952 495.5 41.6667C495.263 40 495.263 38.3333 495.5 36.6667C497.161 36.9048 498.585 36.6667 499.772 35.4762C500.483 34.7619 500.958 33.8095 501.433 32.8571C501.907 33.3333 502.382 34.0476 502.619 35C503.331 38.0952 501.67 41.6667 500.483 44.2857C499.771 46.1905 498.585 47.619 497.161 46.1905ZM490.991 36.6667C490.279 37.1429 489.33 37.619 488.381 37.3809C486.482 37.1429 484.109 34.7619 482.448 37.1429C481.973 37.8571 481.736 38.5714 481.499 39.2857C481.736 36.6667 482.448 32.8571 484.346 33.8095C485.296 34.2857 486.008 35.2381 486.957 35.7143C487.906 35.9524 488.618 35.9524 489.567 35.9524C490.516 35.9524 491.228 35.4762 491.94 35.2381C491.94 35.4762 491.703 35.4762 491.703 35.7143C491.703 36.1905 491.228 36.4286 490.991 36.6667ZM499.772 32.1429C499.534 32.3809 499.297 32.619 499.297 32.8571C498.822 33.5714 498.348 34.2857 497.398 34.7619C496.924 35 496.449 35 495.975 35.2381C496.212 34.5238 496.212 33.8095 496.449 33.3333C496.686 33.3333 496.924 33.0952 497.161 33.0952C497.873 32.1429 498.822 31.9048 499.772 32.1429ZM505.942 33.3333C505.942 33.3333 505.942 33.0952 505.942 33.3333C505.942 33.0952 505.942 33.0952 505.942 32.8571C505.942 33.0952 505.942 33.0952 505.942 33.3333ZM458.954 45.9524C460.853 42.1429 462.751 38.0952 464.412 34.2857C463.938 35.7143 463.463 36.9048 462.989 38.0952C462.277 39.7619 461.802 41.1905 461.09 42.8571C460.615 43.8095 460.141 45 460.141 45.9524C459.903 45.9524 459.429 45.9524 458.954 45.9524ZM537.029 42.8571C536.554 43.5714 536.08 44.2857 535.843 45.2381C535.843 45.4762 535.605 45.7143 535.368 45.9524C535.131 45.4762 534.893 45 534.656 45C534.419 44.2857 534.181 43.5714 534.181 42.8571C533.469 38.8095 533.469 35 533.944 30.9524C534.181 29.0476 530.859 27.619 530.384 29.7619C529.435 34.0476 521.841 30.2381 519.468 28.8095C517.807 27.8571 516.62 30 517.57 31.4286C519.468 34.2857 520.417 38.0952 519.468 41.4286C518.756 42.1429 517.332 41.9048 516.62 41.4286C515.434 40.9524 514.722 40.2381 514.01 39.2857C513.061 30.9524 514.247 22.3809 513.535 13.8095C513.298 12.3809 510.688 11.9048 510.688 13.5714C510.688 14.0476 510.45 14.7619 510.45 15.2381C510.213 15.9524 509.976 16.6667 509.976 17.3809C509.738 18.0952 509.501 19.0476 509.264 19.7619C508.789 21.4286 508.315 23.0952 507.84 24.7619C507.128 26.9048 506.416 29.2857 505.23 31.4286C503.094 27.8571 497.873 26.1905 494.788 29.2857C494.551 29.2857 494.076 29.2857 493.839 29.5238C492.652 30.4762 491.228 31.6667 489.804 32.1429C487.906 32.619 487.194 31.6667 485.533 30.9524C483.634 30 481.736 30 480.549 31.9048C479.6 33.0952 479.363 34.7619 478.888 36.4286C478.651 34.5238 478.414 32.619 478.414 30.7143C478.176 29.2857 476.278 28.8095 475.566 29.7619C473.193 32.619 472.481 35.9524 471.769 39.5238C471.294 41.6667 470.108 50.4762 466.548 49.7619C464.887 49.5238 463.7 47.1429 462.039 46.4286C462.277 45.2381 462.751 44.0476 463.226 42.8571C463.938 41.4286 464.412 39.7619 465.124 38.3333C465.599 36.9048 466.311 35.2381 466.785 33.5714C467.26 32.3809 467.972 30.9524 466.785 29.7619C465.836 28.8095 463.938 28.8095 462.751 28.5714C461.327 28.3333 459.666 28.3333 458.242 28.3333C456.107 28.5714 453.496 29.2857 453.021 31.6667C452.547 33.0952 453.022 34.7619 453.259 36.1905C453.496 37.3809 453.971 38.3333 454.683 39.0476C454.683 39.2857 454.683 39.5238 454.92 39.5238C455.157 40.4762 457.056 40.2381 456.818 39.0476C456.344 37.1429 455.632 33.3333 457.768 32.3809C458.717 32.1429 460.141 32.3809 461.09 32.1429C461.327 32.1429 461.802 32.1429 462.039 32.1429C460.141 37.1429 457.768 41.9048 455.395 46.6667C453.733 47.8571 452.547 50 452.547 52.1429C452.547 53.0952 454.208 54.5238 454.92 53.3333C455.869 51.6667 456.818 50 457.53 48.3333C458.005 48.0952 458.717 47.8571 459.429 48.0952C461.565 48.3333 462.514 50.2381 464.175 51.4286C466.548 53.3333 469.396 52.381 471.294 50.2381C474.617 46.1905 474.379 40.7143 475.803 35.9524C476.278 40.7143 476.752 45.7143 477.227 50.4762C477.464 52.1429 480.312 52.619 480.549 50.7143C480.549 50.4762 480.549 50.2381 480.549 50C481.261 48.5714 481.499 47.1429 481.736 45.4762C481.973 44.0476 481.973 42.8571 482.211 41.4286C482.448 40.7143 482.448 39.7619 482.685 39.0476C482.922 38.3333 482.923 37.619 483.397 37.1429C484.346 36.1905 486.008 37.619 486.957 37.8571C487.906 38.0952 488.855 38.0952 489.804 37.8571C490.279 37.619 490.991 37.3809 491.466 37.1429C491.228 40.2381 491.703 43.0952 493.127 45.9524C495.737 50.7143 500.483 50.7143 503.094 46.1905C503.568 45.2381 504.043 44.2857 504.518 43.0952C504.755 43.0952 504.992 43.0952 504.992 42.8571C505.704 41.6667 505.704 39.7619 505.942 38.3333C506.179 37.3809 506.416 36.4286 506.416 35.7143C506.416 35.7143 506.416 35.7143 506.416 35.4762C507.365 31.6667 508.315 28.0952 509.501 24.5238C509.501 24.2857 509.501 24.0476 509.739 24.0476C509.739 26.4286 509.739 28.5714 509.739 30.9524C509.739 33.5714 509.738 36.1905 509.976 39.0476C510.213 41.4286 510.925 44.2857 512.349 45.9524C513.773 47.619 516.146 48.0952 518.044 47.3809C520.18 46.6667 521.604 44.7619 522.079 42.619C522.791 40.2381 522.791 37.8571 522.316 35.7143C524.452 36.1905 527.062 36.1905 528.961 36.1905C528.961 36.9048 528.961 37.619 528.961 38.3333C529.198 40.9524 529.198 43.5714 530.384 45.9524C531.334 47.8571 533.232 50.4762 535.605 50.2381C537.978 50 538.928 46.1905 539.639 44.2857C541.063 43.0952 538.216 40.9524 537.029 42.8571Z" fill="black"/>
<path d="M533.236 15.7143C533.474 15.7143 533.474 15.7143 533.711 15.7143C533.711 15.7143 533.474 15.7143 533.236 15.7143ZM536.559 18.3333V18.0952C536.559 18.0952 536.559 18.0952 536.559 18.3333ZM532.05 16.9048C532.05 16.9048 531.813 17.3809 531.813 17.619C531.813 17.8571 531.813 18.0952 531.813 18.0952C531.813 18.3333 531.812 18.5714 532.05 18.8095C532.287 19.2857 532.524 19.5238 532.762 19.7619C533.474 20.2381 534.186 20.4762 535.135 20.2381C535.372 20.2381 535.609 20 535.609 20C535.847 19.7619 535.847 19.7619 536.084 19.5238C536.321 19.2857 536.321 18.8095 536.559 18.5714C536.559 18.3333 536.559 18.0952 536.559 18.0952V17.8571V17.619C536.559 17.3809 536.559 17.1428 536.321 16.9048C536.321 16.6667 536.084 16.6667 536.084 16.4286C535.847 16.1905 535.847 16.1905 535.609 15.9524C535.372 15.7143 535.135 15.7143 534.897 15.4762C534.66 15.4762 534.423 15.2381 534.186 15.4762H533.948H533.711C533.474 15.4762 533.474 15.7143 533.236 15.7143L532.999 15.9524L532.762 16.1905C532.05 16.9048 532.05 16.9048 532.05 16.9048Z" fill="black"/>
<path d="M556.962 51.4286C556.962 51.6667 556.962 51.6666 556.962 51.9047C556.962 51.9047 556.962 51.9047 556.962 52.1428V52.3809V52.619C556.962 52.619 556.962 52.619 556.962 52.8571C557.199 52.619 557.199 52.619 557.199 52.3809C557.199 52.1428 557.437 52.1428 557.437 51.9047C557.437 51.6666 557.437 51.4286 557.437 51.1905C557.437 51.1905 557.437 51.1905 557.437 50.9524V50.7143V50.9524C557.437 50.9524 557.437 50.9524 557.437 51.1905V51.4286C556.962 51.1905 556.962 51.1905 556.962 51.4286C556.962 51.1905 556.962 51.4286 556.962 51.4286ZM555.064 48.5714C554.826 48.5714 554.589 48.8095 554.352 48.8095C554.352 48.8095 554.352 48.8095 554.114 48.8095C553.877 48.8095 553.64 48.8095 553.64 48.8095C553.402 48.8095 553.402 49.0476 553.165 49.0476C552.928 49.2857 552.69 49.5238 552.69 49.7619C552.69 50 552.453 50 552.453 50.2381C552.453 50.4762 552.453 50.7143 552.453 50.7143C552.453 50.9524 552.453 51.1905 552.453 51.1905C552.453 51.4286 552.453 51.6667 552.69 51.6667C552.928 51.9047 552.928 52.1428 553.402 52.3809C553.64 52.3809 553.64 52.619 553.877 52.619C554.114 52.619 554.352 52.8571 554.352 52.8571H554.589L554.826 53.0952C555.301 53.5714 555.775 53.8095 556.25 53.8095C557.437 53.8095 557.911 52.619 557.911 51.6667C557.911 50.7143 557.674 49.7619 557.199 49.0476C556.962 48.8095 556.013 48.5714 555.064 48.5714Z" fill="black"/>
<path d="M555.776 36.9048C555.776 36.6667 555.776 36.4286 555.776 36.4286C555.776 36.4286 555.776 36.1905 556.014 36.1905C555.776 36.4286 555.776 36.6667 555.776 36.9048ZM556.488 28.3334C556.251 29.2857 556.014 30.2381 555.776 30.9524C555.776 27.8572 555.776 24.7619 556.014 21.6667C556.251 18.3334 556.488 15 556.488 11.9048C556.726 9.28574 557.2 6.1905 556.963 3.33336C557.2 3.09527 557.438 2.61908 557.675 2.38098C559.336 4.52384 558.861 7.85717 558.387 10.4762C557.912 13.8096 557.675 17.1429 557.2 20.4762C556.963 22.8572 556.726 25.2381 556.488 27.6191C556.726 27.8572 556.488 28.0953 556.488 28.3334ZM555.539 1.1905C555.065 1.1905 554.59 1.4286 554.353 1.90479C553.641 3.33336 553.403 5.23812 553.166 6.66669C552.929 8.09527 552.691 9.76193 552.691 11.1905C552.217 14.5238 551.98 18.0953 551.98 21.4286C551.742 24.7619 551.742 28.0953 551.742 31.1905C551.742 32.8572 551.742 34.5238 551.742 36.1905C551.742 37.8572 552.217 39.5238 552.691 41.1905C552.929 42.381 554.827 42.8572 555.064 41.4286C555.064 41.1905 555.064 41.1905 555.064 40.9524C556.963 39.0476 556.963 35.9524 557.438 33.3334C557.675 31.9048 557.675 30.4762 557.912 28.8096C558.15 27.8572 558.387 26.9048 558.387 26.1905C559.336 21.4286 560.048 16.6667 560.523 11.6667C560.997 8.33336 561.235 3.57146 558.861 0.952409C557.912 -0.476163 556.488 2.76193e-05 555.539 1.1905Z" fill="black"/>
<g clip-path="url(#clip0_0_1)">
<path d="M301.154 148.822C300.925 152.041 301.84 157.791 298.41 159.861C297.952 160.09 297.495 160.32 297.266 160.32C298.867 158.481 299.553 155.721 300.01 153.421C300.696 149.742 300.925 145.832 301.154 142.153L301.382 141.923C301.382 144.222 301.382 146.522 301.154 148.822ZM294.523 152.041C295.437 149.052 297.495 146.522 299.553 144.222C299.553 144.682 299.324 145.372 299.324 145.832C299.096 147.902 298.867 149.972 298.41 152.041C298.181 153.651 297.724 155.261 297.038 156.871C296.581 157.791 296.123 158.481 295.437 159.171C294.065 157.561 294.065 153.651 294.523 152.041ZM291.779 129.044C291.779 128.814 291.779 128.814 292.007 128.584C292.007 128.814 292.236 128.814 292.236 129.044C292.007 129.044 291.779 129.044 291.779 129.044ZM234.384 130.654C233.47 129.964 233.241 128.814 233.47 127.894C233.927 126.054 235.07 123.985 235.756 123.065C237.128 120.995 239.415 118.695 242.159 118.695C242.159 120.305 242.159 121.915 241.93 123.525C241.473 124.444 241.016 125.594 240.33 126.514C239.872 127.204 238.272 129.734 236.671 131.344C235.985 131.114 235.07 131.114 234.384 130.654ZM221.579 98.9174C221.579 102.367 221.579 105.817 221.351 109.266C221.351 110.416 221.122 111.336 220.893 112.486C220.893 110.876 220.893 109.036 220.893 107.426C220.893 105.817 220.893 103.977 221.122 102.367C221.122 101.447 221.351 100.527 221.351 99.6073C221.351 99.1473 221.351 98.6874 221.351 98.2274C221.579 97.5375 221.579 98.9174 221.579 98.9174ZM199.399 135.943C199.17 135.713 198.942 135.713 198.942 135.483C198.484 135.023 198.256 134.563 198.256 133.873C198.027 132.494 198.484 130.654 198.713 129.274C199.399 126.974 200.771 124.215 203.286 123.755C203.286 123.755 203.286 123.985 203.286 123.755C203.286 123.755 203.286 123.755 203.286 123.525C203.515 123.525 203.515 123.525 203.744 123.525C204.201 123.525 204.43 123.065 204.201 122.605C204.658 122.605 205.116 122.835 205.573 123.065C205.116 124.444 204.658 125.824 204.658 127.434C203.972 128.814 203.286 129.964 202.6 131.114C202.143 132.264 200.771 134.333 199.399 135.943ZM195.969 136.863C195.283 135.943 195.512 134.333 195.969 132.724C195.969 133.413 195.969 133.873 196.198 134.563C196.426 135.253 196.884 136.173 197.341 136.633C197.57 136.863 197.57 136.863 197.798 137.093C197.341 137.553 196.655 137.553 195.969 136.863ZM156.41 138.473C156.182 138.473 156.182 138.473 156.41 138.473C157.096 137.323 157.782 135.943 158.24 134.793C159.612 131.114 159.383 127.204 158.24 123.525C157.096 119.845 155.496 115.705 153.209 112.486C153.209 112.486 153.438 112.486 153.438 112.716C157.782 115.016 158.926 120.765 159.612 125.134C159.84 129.274 160.069 135.943 156.41 138.473ZM145.206 135.943C144.977 135.713 144.749 135.483 144.52 135.253C144.749 132.724 144.749 130.424 144.977 128.124C145.435 122.145 145.663 116.165 145.663 110.186C147.264 110.416 148.865 110.646 150.237 111.106C153.666 114.326 155.496 119.615 156.868 123.755C157.782 126.974 158.011 130.424 156.868 133.643C155.953 135.943 154.352 137.783 152.752 139.393C150.008 139.393 147.035 137.783 145.206 135.943ZM139.489 140.083C139.032 140.773 138.346 141.923 137.66 141.463C136.745 141.003 136.288 139.393 136.059 138.473C135.831 137.323 135.602 136.173 135.602 134.793C135.602 134.103 135.602 131.574 136.288 131.114C135.831 131.574 136.288 131.574 136.745 132.034C136.974 132.494 137.431 132.954 137.889 133.413C138.575 134.333 139.489 135.253 140.175 136.173C140.404 136.403 140.404 136.403 140.633 136.633C140.404 137.783 139.947 138.933 139.489 140.083ZM312.816 121.915C310.3 124.215 307.785 126.744 305.727 129.274C305.727 123.525 305.956 117.545 305.956 111.796C305.956 110.186 303.212 109.496 302.983 111.106C302.297 114.096 301.382 116.855 300.468 119.615C299.782 121.225 299.324 122.835 298.638 124.444C298.181 125.594 297.495 126.974 296.809 127.894C296.58 127.894 296.352 127.894 296.123 127.664C295.437 127.664 294.98 127.434 294.294 127.204C294.065 126.514 293.837 126.054 293.837 125.594C293.379 124.215 293.151 122.605 293.151 120.995C292.922 118.005 292.922 114.786 292.922 111.796C292.922 111.106 292.007 110.646 291.55 110.646C291.321 110.416 290.864 110.416 290.635 110.876C290.178 112.256 290.178 113.866 290.178 115.475C289.949 118.005 289.949 120.305 290.407 122.835C290.407 123.065 290.407 123.525 290.407 123.755C290.407 124.674 290.635 125.594 291.093 126.514C290.864 126.514 290.864 126.514 290.635 126.744C290.178 126.974 289.949 127.434 289.721 127.894C289.492 128.354 289.263 128.354 289.035 128.814C288.577 129.044 288.577 129.274 287.891 129.504C287.663 129.734 287.205 129.734 286.748 129.734H286.519C285.147 128.354 285.147 125.594 285.376 123.985C285.605 119.845 285.833 115.935 283.775 112.256C283.318 111.566 281.717 110.876 281.031 111.566C277.602 115.705 274.629 120.305 272.8 125.364C273.028 121.455 273.714 117.545 271.428 114.096C270.742 112.946 269.141 112.716 268.455 113.866C265.711 117.545 263.424 121.455 261.595 125.594C261.595 125.364 261.595 125.134 261.595 124.904C261.138 122.375 261.138 119.845 260.909 117.315C260.68 114.326 257.251 114.556 256.107 116.855C255.193 118.695 254.507 120.995 253.592 123.065C253.135 124.215 252.449 125.594 251.991 126.974C251.534 128.354 251.077 129.964 250.391 131.114C250.162 131.574 249.705 131.804 249.476 132.034C249.247 132.034 249.019 132.034 249.019 132.264H248.79C248.333 130.884 247.418 129.734 246.961 128.354C246.732 127.894 246.503 127.204 246.503 126.744C246.275 125.134 246.275 123.525 246.046 121.915C246.275 119.615 246.503 117.085 245.131 115.016C244.674 114.326 242.845 113.866 242.845 115.016C242.845 115.475 242.845 115.935 242.616 116.395C241.244 116.165 240.101 116.395 238.958 116.855H238.729C236.9 117.085 235.299 117.545 233.698 118.695C232.098 119.845 231.412 121.915 230.726 123.755C230.268 125.134 230.04 126.744 230.268 128.124C229.582 129.274 228.896 130.654 228.21 131.804C227.296 133.184 225.466 134.793 223.866 133.413C222.723 132.264 222.265 130.194 222.037 128.584C221.808 127.434 221.808 126.284 221.579 125.134C222.494 121.225 222.951 117.085 223.409 113.176C223.637 110.646 223.866 108.346 223.866 105.817C223.866 103.517 224.323 100.757 223.866 98.4574C223.637 97.7675 223.409 97.3075 223.18 96.8476C224.095 96.6176 225.009 96.1577 225.924 95.9277C228.439 95.0078 230.726 93.8579 233.241 93.168C234.384 92.938 235.756 92.4781 236.9 92.4781C238.043 92.2481 239.186 92.4781 240.33 92.0181C241.702 91.3282 241.244 89.9484 240.33 89.0285C238.272 87.4187 234.613 88.1086 232.555 88.7985C230.04 89.4884 227.524 90.4083 225.009 91.5582C222.494 92.7081 219.75 93.628 217.235 94.7778C216.091 95.2378 214.719 95.6977 213.576 96.3876C212.204 97.0776 210.832 97.5375 209.689 98.4574C208.774 99.3773 209.46 100.757 210.832 100.757C213.347 100.757 215.863 99.3773 218.378 98.6874C218.835 98.4574 219.293 98.2274 219.979 98.2274C219.979 98.4574 219.75 98.9174 219.75 99.1473C218.835 103.977 218.835 109.266 218.835 114.096C218.835 118.235 218.607 122.835 219.064 126.974C218.607 128.124 218.378 129.274 217.921 130.194C217.235 131.804 216.091 133.413 214.719 134.563C213.347 135.713 210.603 136.633 209.689 134.793C207.859 131.344 208.774 126.974 209.231 123.295C209.46 122.605 208.774 122.145 208.317 121.915C205.344 118.465 200.542 120.765 198.027 123.755C195.74 126.514 192.539 131.804 193.225 135.943C192.768 136.633 191.853 138.243 190.938 137.783C190.024 137.323 190.024 135.483 189.795 134.563C189.338 131.344 189.109 128.124 189.338 124.904C189.338 123.295 187.051 122.835 186.365 124.215C185.222 127.434 184.307 130.884 182.935 134.103C182.021 136.403 179.963 140.083 176.99 139.393C175.618 139.163 174.475 138.243 173.103 137.783C172.417 137.553 171.502 137.553 170.588 137.553C172.874 132.954 175.618 128.354 178.819 124.215C179.505 123.295 178.133 122.375 177.219 122.605C176.761 122.835 176.304 122.835 175.847 123.065C174.475 122.835 173.103 122.835 171.731 122.605C170.359 122.375 169.216 122.145 167.844 122.145C167.158 121.915 166.243 121.685 165.557 121.685C164.871 121.685 164.414 121.915 163.956 122.375C163.499 120.765 163.042 119.155 162.584 117.545C161.898 115.475 160.755 113.176 159.154 111.566C157.554 109.956 155.496 108.806 153.438 108.116C148.636 106.047 142.919 105.357 137.889 106.966C132.172 107.886 127.599 111.796 125.998 116.855C125.77 117.775 126.913 118.925 127.828 118.465C131.944 116.165 134.688 112.026 139.489 110.876C140.633 110.646 141.547 110.416 142.691 110.416C142.462 115.475 142.005 120.305 141.547 125.364C141.319 127.434 141.09 129.504 140.861 131.574C140.633 131.114 140.175 130.884 139.947 130.424C138.575 128.814 136.745 126.974 134.459 127.434C131.944 127.894 131.486 130.654 131.258 132.724C131.029 135.023 131.258 137.553 131.944 139.853C132.63 141.923 133.773 143.992 135.831 144.912C137.889 145.832 139.718 145.142 141.09 143.532C142.005 142.382 142.691 141.233 143.148 139.853C143.605 140.313 144.291 140.773 144.749 141.003C148.179 143.532 152.752 144.452 156.868 143.072C161.212 141.463 163.042 136.633 163.499 132.264C163.728 129.964 163.728 127.894 163.499 125.594C163.728 125.364 163.728 125.134 163.956 124.904C164.185 124.674 164.642 124.444 165.1 124.215C166.243 123.985 167.386 124.215 168.301 124.215H168.53C168.758 124.215 168.987 124.444 168.987 124.444C170.588 124.904 171.959 124.904 173.56 124.904C173.331 125.134 173.331 125.364 173.103 125.594C172.874 125.824 172.645 126.284 172.417 126.514C169.216 130.654 166.472 135.023 163.956 139.853C163.27 140.773 162.813 141.693 162.584 142.842C162.127 144.912 165.328 146.062 166.243 143.992C166.472 143.532 166.7 143.072 166.929 142.612C167.844 141.003 169.902 140.543 171.731 141.233C174.475 142.382 177.219 143.532 180.191 142.153C182.935 140.773 184.307 138.013 185.222 135.253C185.222 135.023 185.451 134.793 185.451 134.563C185.679 135.713 185.908 137.093 186.365 138.013C188.195 141.233 191.624 140.773 193.454 138.703C194.368 139.623 195.512 140.083 196.655 140.083C198.942 140.083 200.542 138.243 201.686 136.633C202.829 135.253 203.744 133.873 204.43 132.264C204.658 133.184 204.887 133.873 205.116 134.563C206.488 138.243 209.917 139.163 213.347 137.553C216.091 136.403 217.692 134.103 218.835 131.574C219.979 134.793 222.265 137.553 226.152 136.403C228.21 135.713 229.582 134.103 230.497 132.264C230.497 132.034 230.726 131.804 230.726 131.574C230.726 131.804 230.954 132.264 231.183 132.494C233.241 135.943 236.671 134.563 238.729 132.034C238.958 132.034 239.186 131.804 239.415 131.804C240.787 130.884 241.93 129.504 242.616 128.124C242.845 129.504 243.302 130.654 243.759 131.804C245.36 135.023 249.933 136.403 251.763 132.494C252.906 130.194 253.592 127.434 254.278 124.904C254.735 123.755 256.107 116.855 257.479 117.085C258.165 117.085 257.708 118.235 257.708 118.925C257.708 119.615 257.708 120.075 257.479 120.765C257.251 122.145 257.251 123.755 257.251 125.134C257.251 127.894 257.708 130.884 258.165 133.643C258.394 135.483 261.595 135.943 262.281 133.873C263.882 128.354 266.168 123.065 269.141 118.005C270.284 122.835 267.998 128.354 269.827 133.184C270.284 134.563 273.028 135.483 273.257 133.413C274.629 126.974 277.373 120.995 281.26 115.705C282.175 118.465 281.946 120.995 281.717 124.215C281.489 126.744 281.717 129.274 283.089 131.574C285.605 135.023 292.236 135.483 292.693 130.194C293.379 131.114 294.294 131.804 295.437 131.804C298.638 132.034 300.468 128.124 301.84 125.364C301.611 128.124 301.611 130.884 301.382 133.643C299.782 135.713 298.41 137.553 296.809 139.393C292.693 144.222 288.12 149.972 289.949 156.871C291.55 162.62 298.41 166.07 302.526 160.78C304.584 158.251 304.584 154.801 304.812 151.811C305.041 147.672 305.041 143.302 305.27 139.163C305.27 138.243 305.27 137.323 305.27 136.403C308.928 132.264 312.587 128.124 315.102 123.295C316.245 122.605 314.188 120.995 312.816 121.915Z" fill="black"/>
<path d="M453.673 115.475C451.615 114.326 450.472 112.716 449.786 110.416C449.329 109.266 449.329 107.886 449.329 106.736C449.329 106.276 449.329 105.817 449.329 105.357C449.329 109.036 450.472 112.486 453.902 114.556C455.274 115.245 456.875 115.705 458.247 115.705C456.646 116.395 455.045 116.165 453.673 115.475ZM449.329 104.437C449.329 104.667 449.329 105.127 449.329 105.357C449.1 105.127 449.1 104.897 449.329 104.437ZM405.883 113.406C405.654 112.716 405.426 112.026 405.197 111.336C405.654 112.256 406.112 113.176 406.798 113.866C408.398 115.475 410.685 116.395 413.2 116.395C412.743 116.625 412.057 116.855 411.371 117.085C409.084 117.315 406.798 115.475 405.883 113.406ZM412.285 100.527C413.429 99.8372 414.572 99.1473 415.029 100.757C415.258 101.677 415.029 102.597 414.572 103.287C413.2 105.587 409.999 105.127 407.484 104.667C408.856 102.827 410.685 101.447 412.285 100.527ZM386.218 115.475C386.218 115.705 386.218 115.705 386.218 115.475V115.475ZM361.751 117.315C360.836 114.786 362.666 111.796 364.038 109.956C364.266 109.726 367.468 105.587 368.382 106.047C367.925 108.346 367.239 110.646 366.324 112.716C366.096 113.636 363.123 120.995 361.751 117.315ZM460.305 109.726C459.39 111.336 456.646 111.566 455.274 110.416C452.53 108.346 453.673 103.057 454.131 100.297C454.359 98.6873 452.53 96.8475 450.929 97.7674C446.813 100.067 443.612 103.287 441.554 107.426C440.868 104.897 440.182 102.137 439.496 99.6072C439.039 97.9974 436.981 97.5375 435.838 98.9173C433.322 101.907 431.264 105.357 429.892 108.806C429.664 106.047 429.206 103.287 429.206 100.297C429.206 98.9173 427.377 98.2274 426.234 98.9173C421.889 101.907 420.746 107.196 418.002 111.566C417.773 111.566 417.316 111.796 417.087 112.026C416.401 112.716 415.487 113.636 414.343 113.866C413.2 114.096 412.057 114.096 410.913 113.636C409.77 113.176 408.398 112.256 407.712 111.106C407.255 110.186 407.026 109.036 407.255 108.116C412.057 109.036 418.459 108.806 418.917 102.597C419.145 100.527 418.231 98.2274 416.401 97.0775C413.657 95.6977 410.685 97.0775 408.398 98.6873C404.74 101.217 401.767 105.357 401.538 109.726C400.395 111.566 399.252 113.406 398.108 115.245C397.194 116.625 396.508 118.235 395.364 119.385C393.306 121.225 391.706 119.385 389.877 118.005C389.419 117.545 388.962 117.315 388.505 116.855C388.733 115.935 388.962 115.245 389.191 114.326C389.648 113.176 389.877 112.026 390.334 111.106C390.563 110.186 391.02 109.496 391.249 108.576C392.163 107.196 393.078 105.817 393.992 104.437C394.907 103.057 392.849 101.217 391.477 101.907C391.477 101.907 391.249 101.907 391.02 102.137C390.791 102.137 390.563 102.137 390.334 102.367C388.962 102.827 387.59 103.057 386.218 103.057C384.846 103.057 383.474 103.057 382.102 102.827C381.187 102.827 380.501 102.827 379.587 103.057H379.358C378.443 102.597 377.3 103.287 377.3 104.437C377.3 108.806 375.471 112.716 372.727 115.705C372.041 112.486 371.584 109.266 372.041 105.817C372.041 104.667 370.669 103.747 369.526 103.977C368.84 103.287 367.696 102.827 366.782 102.827C365.638 102.827 364.266 103.057 363.352 103.517C362.437 103.977 361.522 104.667 360.836 105.357C360.608 105.357 360.608 105.587 360.379 105.587C359.922 106.047 359.236 106.736 358.778 106.966C358.092 107.426 357.178 107.426 356.263 107.426C353.748 107.426 351.461 107.656 349.632 109.726C348.717 110.876 348.26 112.026 348.031 113.406C347.803 112.716 347.803 112.026 347.574 111.336C347.345 110.186 346.888 108.806 346.431 107.656C345.973 106.506 345.287 105.817 344.144 105.357C341.857 104.667 340.028 106.276 339.342 108.346C338.428 110.646 338.199 113.176 339.114 115.475C339.114 115.705 339.342 115.935 339.571 115.935C339.8 116.165 339.8 116.395 340.028 116.395C340.485 116.625 341.171 116.625 341.4 116.165C341.857 115.245 342.086 114.326 342.543 113.406C342.772 112.946 342.772 112.486 343.001 112.026C343.229 111.566 343.229 110.876 343.229 110.186C343.229 109.956 343.001 109.726 342.772 109.726C342.772 109.496 343.001 109.496 343.001 109.266C343.001 109.496 343.229 109.496 343.229 109.726C343.458 110.416 343.687 111.106 343.915 111.566C344.373 112.946 344.83 114.326 345.059 115.705C345.516 118.465 345.745 121.455 345.516 124.214C345.287 126.054 348.717 126.974 348.946 124.904C349.632 122.145 350.089 119.385 350.775 116.855C351.233 115.016 351.461 112.256 353.062 111.106C353.977 110.416 355.12 110.646 356.263 110.646C356.949 110.646 357.635 110.646 358.321 110.646C357.635 113.866 357.407 118.235 359.464 120.305C361.065 122.605 364.038 123.295 366.553 120.765C367.239 120.305 367.696 119.615 367.925 118.695C368.611 117.775 369.068 117.085 369.297 115.935V115.705C369.526 116.625 369.754 117.775 370.212 118.695C370.669 119.845 372.27 120.535 373.413 119.845C377.757 116.395 380.273 111.566 380.73 106.047C383.245 106.736 385.532 106.736 388.047 106.276C386.218 109.496 384.16 112.486 382.102 115.475C380.273 116.395 379.129 118.005 379.587 120.305C379.815 121.455 381.873 122.145 382.559 120.995C383.017 120.305 383.474 119.385 383.931 118.695C384.846 118.695 385.761 119.155 385.989 119.385C387.133 120.075 388.047 121.225 389.191 121.915C391.249 123.295 394.221 124.214 396.508 122.605C398.794 120.995 400.395 117.775 401.996 115.475C402.224 115.245 402.224 115.015 402.224 114.786C404.74 119.615 410.456 121.915 415.258 118.925C420.746 115.475 421.661 108.346 425.548 103.747C425.777 108.576 426.463 113.406 427.377 118.235C427.606 119.845 430.807 120.535 431.036 118.465C431.722 113.406 433.322 108.346 436.295 104.207C437.21 108.116 438.124 112.026 439.039 115.935C439.725 118.235 443.155 118.235 443.384 115.705C443.841 112.256 445.213 108.806 447.271 106.047C447.042 107.196 447.042 108.346 447.271 109.266C447.499 111.566 448.414 113.636 450.015 115.245C452.759 118.235 458.018 119.385 460.991 116.165C462.134 115.015 462.82 113.636 463.277 112.026C463.506 111.566 463.506 111.106 463.734 110.646C464.192 109.266 461.219 108.116 460.305 109.726Z" fill="black"/>
<path d="M477.911 113.636C477.683 113.406 477.454 112.946 477.225 112.946C476.997 112.716 476.539 112.486 476.311 112.486C476.082 112.486 475.853 112.486 475.625 112.256C475.396 112.256 474.939 112.256 474.71 112.486C474.481 112.486 474.024 112.716 473.795 112.946C473.567 113.176 473.567 113.176 473.338 113.406C473.109 113.636 473.109 113.866 473.109 114.096V114.326C473.109 114.556 473.109 114.786 473.109 115.016C473.109 115.246 473.109 115.475 473.109 115.705C473.109 115.935 473.338 116.165 473.338 116.395C473.567 116.625 473.795 116.855 474.024 117.085C474.253 117.315 474.481 117.315 474.71 117.545C474.939 117.775 475.167 117.775 475.396 117.775C475.625 117.775 475.853 117.775 476.082 117.775C476.311 117.775 476.768 117.775 476.997 117.545C476.997 117.545 476.997 117.545 477.225 117.545C477.454 117.545 477.454 117.315 477.683 117.315C477.911 117.085 478.14 116.855 478.369 116.625C478.369 116.395 478.597 116.165 478.597 115.935C478.597 115.705 478.597 115.246 478.597 115.016C478.14 114.326 478.14 114.096 477.911 113.636Z" fill="black"/>
<path d="M187.051 111.796C187.051 111.566 187.051 111.566 187.051 111.796C187.051 111.566 187.051 111.566 187.051 111.796ZM186.594 112.716C186.365 112.716 186.365 112.716 186.365 112.946H186.137H185.908C185.908 112.946 185.908 112.946 185.679 112.946C185.679 112.946 185.679 112.946 185.451 112.946C185.451 112.946 185.451 112.946 185.222 112.946C185.451 112.946 185.679 112.946 185.908 112.946C186.137 112.946 186.594 112.716 186.594 112.486C186.594 112.486 186.594 112.486 186.594 112.256C186.594 112.256 186.594 112.256 186.823 112.256V112.486C187.051 112.256 186.823 112.256 186.594 112.716C186.823 112.486 186.594 112.486 186.594 112.716C186.594 112.486 186.594 112.486 186.594 112.716ZM184.536 114.326C185.222 114.786 185.908 114.786 186.594 114.786C187.737 114.786 189.109 113.636 189.338 112.486C189.567 111.796 189.338 111.106 189.109 110.416C188.652 109.956 188.195 109.496 187.509 109.266C186.823 109.036 186.137 109.036 185.451 109.496C185.222 109.726 184.993 109.956 184.765 110.186C184.765 110.186 184.765 110.186 184.536 110.186C184.079 110.186 183.85 110.646 183.621 110.876C183.164 111.336 183.164 112.026 183.164 112.716C183.393 113.406 183.85 113.866 184.536 114.326Z" fill="black"/>
<path d="M483.857 75.69C483.171 75 482.256 74.7701 481.341 75.23C480.884 75.23 480.198 75.23 479.969 75.46C479.055 76.1499 478.826 77.5298 478.597 78.6796C478.14 79.8295 478.14 81.2093 477.683 82.3592C476.997 84.8889 475.853 87.1887 474.939 89.7184C474.024 92.4781 473.567 95.2378 473.338 97.9975C473.338 99.3773 473.11 100.757 473.11 102.367C473.11 103.747 472.652 105.357 473.11 106.736C473.338 107.656 474.71 108.116 475.396 107.196C476.082 106.047 476.082 104.437 476.311 103.057C476.311 102.597 476.539 102.137 476.539 101.677C477.454 100.297 478.369 98.9174 479.055 97.5375C480.655 94.7778 482.256 91.7882 483.171 88.5685C484.085 85.5789 484.543 82.5892 484.543 79.3695C484.771 78.2197 484.771 76.8398 483.857 75.69Z" fill="black"/>
</g>
<defs>
<clipPath id="clip0_0_1">
<rect width="359" height="89" fill="white" transform="translate(126 75)"/>
</clipPath>
</defs>
</svg>
