<svg width="799" height="603" viewBox="0 0 799 603" fill="none" xmlns="http://www.w3.org/2000/svg">
<path d="M798.142 331.433C798.349 329.645 798.245 327.857 798.452 326.068C799.073 320.428 796.693 315.475 796.589 309.972C797.003 308.872 797.21 307.771 797.003 306.533C797.314 304.882 797.521 303.231 797.831 301.718C798.142 299.517 797.728 297.453 796.589 295.665V295.527C796.279 294.977 796.072 294.289 796.072 293.601C796.072 293.051 796.072 292.501 796.072 291.95C796.175 290.024 796.486 288.098 795.45 286.448C795.14 286.448 794.726 286.31 794.415 286.448C794.001 285.622 793.691 284.797 793.277 283.971C793.484 283.834 793.691 283.696 793.898 283.559C795.036 281.908 794.933 279.844 794.933 277.781C795.347 274.066 792.345 271.727 792.759 268.013C792.552 264.298 793.173 260.446 791.828 257.007C789.758 251.367 789.654 245.726 790.793 239.811C786.963 232.107 786.859 195.1 785.41 194.412C784.789 193.862 784.272 193.999 783.858 194.55C782.616 194.137 781.891 192.899 781.167 191.661C781.374 191.523 781.581 191.248 781.788 190.973C782.719 188.221 781.995 186.158 780.649 184.094C776.509 173.364 772.99 144.749 777.13 133.055C777.44 132.918 777.647 132.642 777.958 132.367C778.475 130.854 778.475 129.478 777.337 128.378C776.095 119.298 775.474 109.255 765.227 111.456C764.812 111.456 764.502 111.319 764.088 111.319C763.777 108.43 761.5 108.98 760.362 107.467C758.188 106.779 756.014 105.953 753.841 105.266C753.427 104.853 753.013 104.44 752.599 104.027C752.599 101.138 752.185 98.387 750.218 96.461C750.218 96.0483 750.115 95.6356 750.011 95.2229C746.492 93.2969 743.49 97.2864 740.074 96.5986C736.659 94.9477 731.897 95.0853 733.139 87.3813C730.241 87.2437 732.001 78.7143 728.171 81.6033C723.617 84.7674 718.855 84.7674 714.198 86.2807C711.713 85.868 708.919 82.5663 706.745 86.831C705.607 85.5929 704.157 86.0056 702.812 85.7304C701.052 83.1166 699.189 82.016 696.912 84.3547C694.531 81.8784 691.219 83.8044 688.735 81.7409C687.079 82.1536 685.112 84.2171 684.284 80.2276C681.49 80.2276 678.902 80.9154 676.418 82.5663C674.555 84.7674 672.691 84.905 670.725 82.8414C666.999 83.8044 665.342 77.0634 661.72 77.7513C661.823 77.4761 661.927 77.0634 662.03 76.7883C662.237 75.1374 662.03 73.6241 661.099 72.386C659.65 71.423 658.925 72.386 658.511 74.1744C657.269 75.6877 656.027 75.5501 654.681 74.312C653.75 70.46 651.783 71.1478 649.816 71.8357C649.713 71.423 649.609 71.1478 649.402 70.7351C649.299 69.9097 649.092 69.0843 648.988 68.1213C643.295 70.8727 638.534 66.0577 633.359 64.682C633.255 64.8195 633.255 65.0947 633.152 65.2322L633.462 64.682C633.359 64.2692 633.152 63.8565 633.048 63.4438C627.148 62.756 621.145 62.2057 615.245 61.5178C613.693 60.1421 612.14 60.6924 610.691 61.793C608.828 61.793 607.068 61.3802 606.137 58.6288C605.205 57.3907 604.273 56.5652 603.135 55.6022C598.788 52.1629 593.302 51.0624 590.197 45.1468C586.574 44.4589 581.812 48.4485 580.053 40.6069C577.465 38.5433 574.774 42.5329 572.186 40.3318C567.115 41.9826 562.457 41.2948 558.523 36.2046C555.108 37.8555 551.174 36.7549 548.069 40.1942C545.482 39.7815 544.033 46.5225 541.341 43.0832C536.994 37.7179 532.336 40.8821 527.678 40.8821C523.642 40.7445 519.398 45.1468 515.465 40.6069C515.465 39.6439 515.465 38.6809 515.465 37.8555C515.154 37.8555 514.74 37.8555 514.43 37.9931C508.737 39.0936 503.147 41.9826 497.351 39.0936C496.212 39.5063 495.074 40.0566 494.039 40.4693C493.314 34.6913 488.139 38.6809 486.897 35.104C485.344 30.5642 483.688 31.252 481.411 33.7283C480.169 35.104 478.927 34.5538 477.892 33.3156C474.89 34.4162 471.681 35.9295 468.887 32.9029C465.885 29.6012 462.469 29.326 458.95 29.7388C455.534 28.7757 452.119 27.8127 448.703 26.8497C447.978 25.7492 447.15 24.6486 446.426 23.6856C443.527 19.1457 439.491 22.7226 436.178 20.9342C435.764 20.7966 435.454 20.659 435.04 20.5214C434.005 20.1087 432.97 19.5584 431.831 19.1457C429.347 14.6059 425 13.918 418.272 17.0822C418.168 17.3573 418.168 17.6324 418.065 17.9076H417.961C417.547 17.3573 417.237 16.9446 416.823 16.3943C414.442 15.844 412.268 16.9446 410.095 18.0452C405.023 20.1087 400.055 22.3099 394.465 21.0717C390.325 20.1087 386.185 22.0347 382.562 24.9237C374.903 28.0879 366.829 27.9503 358.962 28.5006C357.513 28.363 355.961 28.0879 354.512 27.9503C354.098 27.5376 353.787 27.1249 353.373 26.7122C347.37 25.7492 341.366 26.0243 335.363 26.437C330.912 24.0983 326.358 24.2359 321.804 24.7862C321.079 21.622 319.423 20.659 317.042 21.2093C316.732 21.2093 316.318 21.0717 316.007 20.9342C315.904 20.9342 315.904 20.7966 315.8 20.7966C314.248 17.77 311.867 17.9076 309.59 18.3203C307.934 17.9076 306.277 17.3573 304.518 17.6324C297.893 21.2093 290.959 18.5954 284.127 19.2833C284.024 19.696 283.92 20.1087 283.817 20.659C283.506 20.659 283.092 20.7966 282.781 20.9342C281.85 20.9342 280.918 20.7966 279.987 20.7966C279.366 20.1087 278.538 19.696 277.917 19.1457C272.017 17.3573 266.117 20.2463 260.217 19.4209C254.628 24.6486 248.107 22.3099 242 23.8232C241.586 23.8232 241.275 23.9607 240.861 23.9607C234.961 26.437 228.854 25.7492 222.748 26.437C219.021 26.8497 214.985 27.9503 211.258 25.474C206.911 24.2359 203.288 26.7122 199.562 29.1885C192.731 33.8659 185.485 30.289 178.447 30.9769C178.343 30.5642 178.24 30.289 178.24 29.8763C177.929 29.8763 177.722 29.7388 177.412 29.6012C175.031 28.5006 172.754 30.1515 170.477 29.8763C170.166 29.7388 169.856 29.6012 169.545 29.6012C165.715 27.4 161.782 28.6382 157.849 28.363C157.435 27.8127 157.124 27.2625 156.71 26.8497C153.605 22.7226 148.533 27.4 145.532 22.7226L145.635 22.585C145.014 17.3573 141.288 21.622 139.839 19.2833C139.425 19.2833 139.114 19.1457 138.7 19.1457C138.183 21.622 137.044 23.4105 134.974 23.548C132.386 19.8336 129.281 19.696 125.762 20.9342C124.002 21.4844 122.242 22.9977 120.586 20.659C117.688 17.3573 115.929 20.1087 114.065 22.7226C111.995 23.9607 109.925 24.7862 107.648 24.3735C104.853 23.8232 101.955 24.6486 99.678 26.7122C97.4009 28.9133 95.3307 29.0509 92.9501 27.8127C90.2589 26.437 88.1888 26.9873 87.6712 31.3896C86.3256 34.5538 83.531 36.3422 82.8064 40.0566C82.4959 40.6069 82.0819 41.2948 81.7713 41.8451C81.5643 42.9456 81.1503 43.7711 80.5293 44.5965C79.8047 45.2844 79.0802 45.9722 78.4591 46.7976C75.4574 46.5225 74.4224 48.9988 74.1118 52.5757C74.0083 53.5387 73.9048 54.3641 73.9048 55.3271C74.0083 56.9779 74.1118 58.6288 74.1118 60.2797C73.8013 63.4438 72.3522 65.7825 71.0066 68.1213C67.5909 73.6241 64.0717 78.9894 61.691 85.5929C58.8963 84.905 59.4139 88.8946 58.2753 90.5454C57.3437 100.726 52.0649 106.916 46.579 112.97C44.1984 115.721 42.2318 119.023 40.0581 122.049C37.3669 130.716 33.3302 138.145 28.2583 144.611C26.9128 146.4 25.3601 147.913 25.6707 150.802C26.1882 155.754 24.1181 159.331 22.0479 162.908C21.5304 169.787 21.1164 176.803 20.5988 183.681C19.0462 185.47 17.3901 187.258 16.9761 190.147C15.6305 200.74 14.1814 211.196 12.9393 221.789C12.6288 224.678 12.1113 228.255 12.9393 230.731C15.941 239.398 34.7793 314.099 26.0847 330.058C25.8777 330.333 25.7742 330.746 25.6707 331.021C24.6356 334.185 26.1882 337.487 25.9812 340.788C33.5372 344.09 34.5722 381.647 35.1933 387.838C36.7459 402.971 37.5739 418.104 38.5055 433.374C39.023 441.353 39.5406 449.47 39.1265 457.449C38.9195 462.127 39.3336 465.841 41.8177 469.005C41.9212 470.931 42.0247 472.72 42.1282 474.646C43.4738 477.535 43.2668 480.974 43.5773 484.138C43.9914 487.852 46.2685 488.678 49.1667 491.154C52.3754 493.906 51.2368 501.335 51.8579 506.012C52.4789 510.689 54.135 514.404 56.6192 517.568C57.0332 520.182 57.5508 522.796 58.8963 524.997C58.9998 525.822 60.863 523.071 60.863 524.034C61.484 525.272 63.0366 524.722 63.6577 525.96H64.7962C65.2103 526.785 65.6243 527.748 66.0383 528.574L67.2804 532.013C67.3839 534.214 67.2804 532.013 68.3155 533.526C72.8698 540.405 77.01 542.881 80.8398 550.448C81.2538 550.998 78.9767 560.903 79.2872 561.591C79.5977 562.554 79.9082 563.379 79.8047 564.48C79.7012 566.268 79.8047 567.919 80.1152 569.295C80.1152 577.274 83.3239 581.401 89.4308 584.428C89.9484 584.703 90.4659 584.841 90.8799 585.116C91.3975 585.666 91.8115 586.079 92.2255 586.629C93.3641 587.867 95.0202 587.729 96.3658 586.491C99.264 586.904 102.266 586.767 105.164 586.904C107.648 588.417 110.339 588.555 113.03 588.142C113.341 587.867 113.651 587.73 113.962 587.592C115.411 587.867 116.86 588.555 118.102 590.068C118.62 590.343 119.137 590.481 119.655 590.481C121.828 590.343 124.002 590.343 126.176 590.343C130.42 591.169 134.767 591.306 139.114 589.656C139.942 589.38 140.667 588.693 141.391 587.867C142.426 587.454 143.565 586.904 144.6 586.216C144.91 586.079 145.221 585.804 145.532 585.666C150.707 584.978 155.882 584.703 160.954 584.29C164.163 584.703 167.164 584.29 170.27 583.19C172.443 582.777 174.513 582.364 176.687 581.814C185.589 579.475 194.801 583.465 203.909 580.713C205.358 580.301 207.325 580.576 208.671 582.227C212.397 586.216 219.435 586.216 223.369 582.915C223.783 582.915 224.093 583.052 224.507 583.052C225.025 583.052 225.542 582.915 226.06 582.639C226.267 582.364 226.577 582.089 226.784 581.814C227.198 582.089 227.509 582.227 227.923 582.502C227.819 583.052 227.819 583.74 227.716 584.29C227.819 584.703 227.819 585.253 227.819 585.666C228.026 585.941 228.13 586.216 228.337 586.491C228.854 586.904 229.268 587.179 229.89 587.179C231.546 586.904 233.202 586.629 234.547 584.978C235.479 583.74 235.893 582.227 235.582 580.713C235.582 580.713 235.582 580.576 235.686 580.576C236.928 582.089 238.274 583.465 240.033 582.364C243.863 580.026 248.003 583.74 251.729 581.952C252.143 582.227 252.454 582.502 252.868 582.777C252.868 582.777 252.868 582.777 252.868 582.915C254.938 586.216 257.422 585.116 259.389 583.19C261.252 581.264 263.322 580.576 265.392 579.338C267.255 577.412 269.015 577.412 270.671 579.75C271.085 580.026 271.603 580.301 272.12 580.301C272.638 580.163 273.052 579.888 273.362 579.338C273.88 579.2 274.397 578.925 274.915 578.787C275.433 579.2 275.95 579.613 276.468 580.026C280.815 581.539 285.473 580.989 289.509 584.428C290.751 585.528 291.89 584.703 293.029 583.465C299.032 577.824 299.032 577.824 304.725 584.428C304.932 584.565 305.035 584.565 305.242 584.703C305.242 585.666 305.553 586.491 306.07 587.317C309.59 589.38 313.109 590.894 316.939 591.031C319.837 591.857 322.735 591.994 325.633 591.994C326.668 592.269 327.6 592.957 328.635 592.957C332.154 593.645 334.845 598.873 338.986 596.809C339.089 596.947 339.193 596.947 339.296 597.084C339.607 597.222 339.917 597.497 340.124 597.635C341.987 600.249 344.782 601.212 346.956 603C353.27 602.45 358.548 598.735 363.724 594.195C364.862 593.095 366.415 592.682 367.554 591.444C371.487 587.317 376.352 585.666 380.906 583.465C382.562 582.777 384.529 583.052 385.046 580.438C386.392 582.089 388.151 581.676 389.807 581.676C392.292 580.989 394.776 580.438 397.363 580.438C401.193 578.787 405.126 578.237 408.956 579.2C412.889 580.163 416.719 580.163 420.549 579.062C431.107 577.687 441.561 575.073 452.222 577.274C454.706 577.824 456.983 576.311 459.054 574.523C459.571 573.56 460.089 572.734 460.503 571.634C464.229 571.083 468.059 572.597 471.785 571.909C471.992 572.046 472.302 572.184 472.509 572.322C474.994 574.247 477.064 576.999 479.962 577.687C481.618 578.375 483.274 579.062 484.93 578.925C490.106 578.65 495.591 580.851 500.146 575.761C500.56 575.073 500.87 574.385 500.974 573.56C500.974 573.009 500.87 572.597 500.767 572.046C500.974 572.184 501.077 572.322 501.284 572.459C502.319 572.734 503.251 572.597 503.975 571.909C504.079 572.184 504.286 572.459 504.493 572.734C506.046 574.66 508.012 574.385 509.979 574.385C510.807 573.697 511.531 573.284 512.256 573.009C513.602 573.697 514.947 574.385 516.293 575.073C517.121 576.174 517.949 577.549 518.777 578.65C519.501 579.338 520.226 580.026 520.951 580.438C523.849 582.364 526.85 583.74 530.163 583.465C531.612 583.327 533.164 583.465 533.889 581.814C533.992 581.814 534.096 581.814 534.096 581.952C534.924 582.089 535.752 582.089 536.684 581.814C537.512 581.401 538.133 580.851 538.754 579.888C539.064 579.338 539.271 578.787 539.478 578.1C546.931 577.274 554.28 577.412 561.422 581.264C561.629 581.264 561.939 581.264 562.146 581.264C563.078 581.264 564.113 580.576 564.837 581.539C568.667 586.216 571.669 585.253 574.153 579.475C574.671 578.375 575.602 577.962 576.43 577.412C577.879 575.898 579.846 575.348 580.984 573.147C581.191 572.597 581.191 572.184 581.191 571.634C581.295 571.496 581.295 571.496 581.398 571.359C583.779 573.147 585.435 571.496 586.988 568.882C587.402 567.782 587.919 566.819 588.437 565.718C588.747 565.993 589.058 566.268 589.265 566.681C589.265 567.369 589.265 568.194 589.265 569.02C589.369 569.708 589.576 570.396 589.886 570.946C588.747 572.597 587.609 574.11 587.712 576.724C588.023 577.274 588.333 577.962 588.644 578.512C589.265 579.2 589.886 579.2 590.611 578.65C591.439 578.787 592.37 578.925 593.198 579.062C594.233 580.438 595.475 581.539 597.235 581.952C600.858 581.676 611.726 571.221 612.658 566.956C612.968 565.443 612.865 564.067 612.243 562.967C612.968 562.279 613.382 561.316 613.9 560.353C614.831 557.876 616.073 556.088 617.729 555.263C617.833 555.263 617.936 555.125 618.04 555.125C618.35 554.987 618.557 554.85 618.868 554.85C619.592 554.712 620.524 554.575 621.456 554.712C621.973 554.712 622.491 554.712 623.008 554.712C625.906 557.601 628.184 556.501 629.943 552.649C630.047 552.649 630.15 552.511 630.254 552.374C632.531 554.575 634.808 553.337 637.085 551.548C637.81 550.723 638.741 550.172 639.569 549.622C639.983 549.347 640.501 549.072 640.915 548.659C641.639 548.246 642.364 547.971 643.089 547.559C643.399 547.971 643.813 548.384 644.227 548.659C650.334 548.109 656.13 544.394 662.444 545.22C663.686 545.357 664.928 543.294 665.756 541.643C665.756 541.505 665.86 541.368 665.86 541.23C670.725 537.791 675.797 537.241 680.972 539.717C682.318 539.579 683.456 539.304 683.87 537.653C683.974 537.653 683.974 537.653 684.077 537.653C684.181 537.791 684.181 537.791 684.181 537.929C688.631 540.818 693.393 541.093 698.154 541.643C700.742 541.643 703.329 541.781 705.917 541.505C709.022 540.405 710.368 535.865 713.266 534.352C713.887 533.664 714.301 532.701 714.715 531.738C715.75 528.986 718.027 526.923 718.234 523.621C720.719 525.272 723.617 524.722 726.101 526.373C728.378 526.923 729.827 524.447 731.69 523.621C733.967 522.383 736.452 522.383 738.832 522.245C742.352 522.108 745.767 524.034 749.39 522.245C756.946 518.531 764.812 518.669 772.679 519.632C775.163 519.907 777.026 519.494 778.579 516.743C780.028 513.441 778.268 511.652 777.026 509.589C780.338 511.515 781.167 510.414 784.168 504.499C784.479 503.673 784.582 502.848 784.582 502.022C785.1 497.07 782.098 491.429 785.928 487.027C787.791 480.148 788.826 472.72 792.759 466.942C794.415 464.465 793.484 460.613 791.414 458.137C790.068 456.486 788.516 454.973 787.066 453.597C791.31 452.084 793.691 447.544 794.312 439.702C794.208 439.015 793.898 438.327 793.587 437.776C793.794 437.364 794.001 436.951 794.208 436.538C794.312 435.438 794.312 434.337 794.105 433.237C791 426.771 791.724 419.892 792.552 412.876C793.794 403.383 796.382 394.029 794.933 384.123C794.519 382.885 794.312 381.785 794.105 380.547C795.243 377.933 796.072 375.181 794.519 371.329C794.105 370.366 795.865 367.065 795.657 363.763C795.865 362.937 796.071 362.25 796.175 361.424C796.175 360.324 795.865 359.361 795.243 358.673C795.865 358.26 796.382 357.71 796.693 356.884C797.417 355.509 798.142 354.27 798.038 352.482C797.521 349.868 797.003 347.254 798.659 345.053C800.108 339.688 796.382 335.973 798.142 331.433ZM776.405 133.468C776.302 133.605 776.198 133.605 776.095 133.743C776.095 133.605 776.095 133.468 776.095 133.468C776.198 133.33 776.302 133.468 776.405 133.468ZM763.467 111.869C763.467 111.869 763.57 111.869 763.467 111.869C763.57 111.869 763.467 111.869 763.467 111.869Z" fill="#151515"/>
<path d="M797.106 317.401C797.313 315.613 797.209 313.824 797.416 312.036C798.037 306.396 795.657 301.443 795.45 295.94C795.864 294.84 796.071 293.739 795.864 292.501C796.174 290.85 796.381 289.199 796.692 287.686C797.002 285.485 796.588 283.421 795.45 281.633V281.495C795.139 280.945 794.932 280.257 794.932 279.569C794.932 279.019 794.932 278.468 794.932 277.918C795.036 275.992 795.346 274.066 794.311 272.415C794.001 272.415 793.586 272.278 793.276 272.415C792.862 271.59 792.551 270.764 792.137 269.939C792.344 269.801 792.551 269.664 792.758 269.526C793.897 267.875 793.794 265.812 793.794 263.748C794.208 260.034 791.206 257.695 791.62 253.843C791.413 250.129 792.034 246.277 790.688 242.837C788.515 237.197 788.515 231.557 789.55 225.641C787.583 216.974 788.101 208.444 789.757 199.915C792.448 198.677 793.069 195.925 792.034 192.761C790.895 189.184 790.171 185.332 788.411 182.031C786.962 181.343 785.513 180.655 784.064 179.967C783.443 179.417 782.925 179.554 782.511 180.105C781.269 179.692 780.545 178.454 779.82 177.216C780.027 176.941 780.234 176.803 780.441 176.528C781.373 173.776 780.648 171.713 779.303 169.649C775.162 158.919 775.99 148.051 779.406 137.32C777.853 131.129 778.682 124.113 775.783 118.335C776.094 118.197 776.404 117.922 776.611 117.647C777.129 116.134 777.129 114.621 775.99 113.658C774.645 104.44 774.127 94.3975 763.777 96.7363C763.363 96.7363 763.052 96.5987 762.638 96.5987C762.224 93.7097 759.947 94.26 758.808 92.7467C756.635 92.0588 754.461 91.2334 752.287 90.5455C751.873 90.1328 751.459 89.7201 751.045 89.3074C751.045 86.4184 750.631 83.6669 748.665 81.7409C748.665 81.3282 748.561 80.9155 748.458 80.5028C744.938 78.5768 741.833 82.5664 738.417 81.8785C735.002 80.2276 730.24 80.3652 731.482 72.5236C728.584 72.3861 730.344 63.8566 726.514 66.608C721.96 69.9098 717.095 69.7722 712.437 71.2855C709.85 70.8728 707.158 67.571 704.881 71.8358C703.743 70.5976 702.294 71.0103 700.948 70.7352C699.188 68.1213 697.325 66.8832 694.945 69.3595C692.46 66.8832 689.252 68.8092 686.767 66.7456C685.111 67.1583 683.145 69.2219 682.317 65.2323C679.522 65.2323 676.934 65.9202 674.45 67.571C672.587 69.7722 670.724 69.9098 668.757 67.8462C665.031 68.8092 663.375 62.0682 659.649 62.756C659.752 62.4809 659.856 62.0682 659.959 61.793C660.166 60.1422 659.959 58.6289 659.028 57.3907C657.579 56.4277 656.854 57.3907 656.44 59.1792C655.198 60.83 653.956 60.5549 652.61 59.3167C651.679 55.4647 649.712 56.1526 647.642 56.8405C647.538 56.4277 647.435 56.1526 647.228 55.7399C647.124 54.9144 646.917 54.089 646.814 53.126C641.121 55.8774 636.36 51.0624 631.081 49.6867C630.977 49.8243 630.977 50.0994 630.874 50.237L631.184 49.6867C631.081 49.274 630.874 48.8613 630.77 48.4486C624.767 47.7607 618.867 47.2104 612.864 46.5226C611.311 45.1469 609.758 45.6971 608.309 46.7977C606.446 46.7977 604.583 46.385 603.755 43.6336C602.824 42.3954 601.788 41.57 600.753 40.607C596.406 37.1677 590.92 36.0671 587.712 30.014C584.089 29.3261 579.327 33.3157 577.568 25.4741C574.98 23.4105 572.186 27.4001 569.598 25.199C564.526 26.8498 559.765 26.162 555.831 21.0718C552.416 22.7227 548.379 21.6221 545.377 25.0614C542.79 24.6487 541.341 31.3897 538.546 27.9504C534.095 22.5851 529.437 25.8868 524.779 25.7492C520.639 25.6117 516.499 30.014 512.462 25.4741C512.462 24.5111 512.462 23.5481 512.462 22.7227C512.152 22.7227 511.738 22.7227 511.427 22.8602C505.734 23.9608 500.145 26.8498 494.245 23.9608C493.106 24.3735 491.968 24.9238 490.933 25.3365C490.208 19.5585 485.033 23.5481 483.791 19.9712C482.238 15.4314 480.582 16.1192 478.201 18.5955C476.959 19.9712 475.717 19.4209 474.579 18.1828C471.473 19.2834 468.368 20.7967 465.47 17.7701C462.468 14.4684 459.053 14.1932 455.43 14.6059C452.014 13.6429 448.598 12.6799 445.183 11.7169C444.458 10.6164 443.63 9.51579 442.906 8.55278C440.007 3.87535 435.867 7.58978 432.555 5.80135C432.141 5.66378 431.83 5.52621 431.416 5.38863C430.381 4.97592 429.346 4.42563 428.208 4.01292C425.723 -0.526949 421.376 -1.21481 414.545 1.94934C414.441 2.22449 414.441 2.49963 414.338 2.77477H414.234C413.82 2.22449 413.51 1.81177 413.096 1.26148C410.715 0.711196 408.541 1.81177 406.368 2.91234C401.296 4.97592 396.327 7.17707 390.635 6.07649C386.494 5.11349 382.354 7.0395 378.628 10.0661C370.865 13.2302 362.895 13.0926 354.925 13.6429C353.476 13.5054 351.923 13.2302 350.474 13.0926C350.06 12.6799 349.749 12.2672 349.335 11.8545C343.332 10.8915 337.329 11.1666 331.325 11.5794C326.874 9.24064 322.32 9.37821 317.662 10.0661C316.938 6.90192 315.282 5.93892 312.901 6.35164C312.59 6.35164 312.176 6.21407 311.866 6.07649C311.762 6.07649 311.762 5.93892 311.659 5.80135C310.106 2.77477 307.726 2.91234 305.449 3.32506C303.792 2.91234 302.033 2.36206 300.377 2.6372C293.649 6.21406 286.714 3.6002 279.882 4.42563C279.779 4.83835 279.675 5.25106 279.572 5.80135C279.261 5.80135 278.847 5.93892 278.537 6.07649C277.605 6.07649 276.674 5.93892 275.742 5.93892C275.121 5.25106 274.293 4.83835 273.672 4.28806C267.772 2.49963 261.872 5.38863 255.869 4.5632C250.279 9.9285 243.655 7.45221 237.548 8.9655C237.134 8.9655 236.824 9.10307 236.409 9.10307C230.51 11.5794 224.299 10.8915 218.296 11.5794C214.57 12.1296 210.429 13.0926 206.703 10.6164C202.356 9.37821 198.63 11.8545 194.903 14.3308C188.072 19.0082 180.826 15.4314 173.684 16.1192C173.581 15.7065 173.477 15.4314 173.477 15.0187C173.167 15.0187 172.96 15.0187 172.649 14.7435C170.269 13.6429 167.992 15.2938 165.611 15.0187C165.3 14.8811 164.99 14.7435 164.679 14.7435C160.85 12.5424 156.916 13.7805 152.983 13.5054C152.569 12.9551 152.258 12.4048 151.844 11.9921C148.739 7.86492 143.667 12.5424 140.562 7.86493L140.666 7.72735C140.045 2.49963 136.318 6.76435 134.766 4.42563C134.352 4.42563 134.041 4.28806 133.627 4.28806C133.11 6.76435 131.971 8.55278 129.901 8.69036C127.313 4.97592 124.105 4.83835 120.689 6.07649C118.929 6.62678 117.17 8.14007 115.514 5.80135C112.615 2.49963 110.752 5.25106 108.993 7.86493C106.923 9.10307 104.852 9.9285 102.575 9.51579C100.298 8.82793 97.3999 9.65336 95.1227 11.7169C92.8456 13.9181 90.7754 14.0557 88.3948 12.8175C85.7036 11.4418 83.6335 11.9921 83.1159 16.5319C81.7704 19.6961 78.9757 21.4845 78.2511 25.199C77.8371 25.7492 77.5266 26.4371 77.1125 26.9874C76.9055 28.088 76.388 28.9134 75.8705 29.7388C75.1459 30.4267 74.4214 31.1145 73.8003 31.94C70.7986 31.6648 69.6601 34.1411 69.453 37.718C69.3495 38.681 69.246 39.5064 69.246 40.4694C69.3495 42.1203 69.453 43.7711 69.453 45.422C69.1425 48.5861 67.6934 50.9249 66.2443 53.2636C62.8286 58.7665 59.2059 64.2693 56.8252 70.7352C54.0305 70.0473 54.5481 74.0369 53.4095 75.6878C52.4779 85.8681 47.1991 92.0588 41.7132 98.2495C39.3326 101.001 37.3659 104.303 35.1923 107.329C32.5011 115.996 28.4644 123.425 23.3925 130.029C22.0469 131.817 20.4943 133.33 20.8049 136.357C21.3224 141.309 19.2523 144.886 17.1821 148.463C16.6646 155.342 16.2506 162.358 15.733 169.237C14.1804 171.025 12.5243 172.813 12.1103 175.84C10.7647 186.433 9.31561 197.026 8.07353 207.619C7.76301 210.508 7.24547 214.085 8.17704 216.561C11.1787 225.228 8.07353 231.006 3.51923 236.234C1.75962 236.922 0.724547 238.573 0 240.774C0 241.737 0 242.562 0 243.525C0.724547 244.763 0.31052 247.377 2.27715 247.102C3.0017 248.478 3.72624 249.854 4.5543 251.092C5.27885 251.229 6.00339 251.504 6.62443 251.642C9.72964 258.658 12.7313 265.674 15.8365 272.69C15.733 273.241 15.8365 273.653 16.0436 274.066C16.2506 275.029 16.3541 276.13 16.7681 276.818C24.3241 288.786 25.2557 301.993 21.5294 316.301C21.3224 316.576 21.2189 316.989 21.1154 317.264C20.0803 320.565 21.6329 323.73 21.4259 327.031C20.2873 329.92 19.9768 332.672 21.2189 335.561C21.3224 335.836 21.3224 335.973 21.5294 336.249C21.4259 339.825 22.0469 343.127 23.8066 345.879C24.5311 349.18 25.3592 352.62 26.0837 355.921C29.0854 361.424 30.1205 368.028 30.7415 374.356C32.2941 389.489 33.1222 404.759 34.0537 420.03C34.5713 428.009 35.0888 436.126 34.6748 444.105C34.4678 448.782 34.8818 452.497 37.366 455.798C37.4695 457.724 37.573 459.513 37.6765 461.439C39.0221 464.328 38.815 467.767 39.1256 470.931C39.5396 474.646 39.2291 478.498 42.1273 480.974C45.336 483.725 46.8886 488.128 47.5096 492.943C48.1307 497.62 49.7868 501.335 52.2709 504.636C52.685 507.25 53.2025 509.864 54.5481 512.065C54.6516 512.891 54.7551 513.854 54.8586 514.679C55.4796 515.917 56.2042 517.155 56.8252 518.393C57.2393 519.219 57.6533 520.182 58.0673 521.007C58.1708 523.209 59.3094 524.447 60.2409 525.96C64.7952 532.839 69.9706 539.167 73.9038 546.871C74.3179 547.421 74.7319 547.971 75.0424 548.659C75.3529 549.622 75.6635 550.448 75.56 551.548C75.4564 553.337 75.56 554.988 75.8705 556.501C75.8705 564.48 79.0792 568.607 85.2896 571.771C85.8071 572.047 86.3247 572.184 86.8422 572.459C87.3597 573.01 87.7738 573.422 88.2913 573.973C89.4299 575.348 91.086 575.073 92.5351 573.835C95.4333 574.248 98.4349 574.11 101.437 574.248C104.024 575.761 106.612 575.898 109.407 575.486C109.717 575.211 110.028 575.073 110.338 574.935C111.787 575.211 113.236 575.898 114.479 577.412C114.996 577.687 115.514 577.825 116.031 577.825C118.205 577.687 120.378 577.687 122.552 577.687C126.796 578.512 131.143 578.65 135.49 576.999C136.318 576.724 137.043 576.036 137.768 575.211C138.803 574.798 139.941 574.248 140.976 573.56C141.287 573.422 141.597 573.147 141.908 573.01C147.083 572.322 152.258 572.047 157.434 571.496C160.643 571.909 163.748 571.496 166.749 570.396C168.923 569.983 171.097 569.57 173.167 569.02C182.172 566.681 191.384 570.671 200.493 567.782C201.942 567.369 203.908 567.644 205.357 569.295C209.084 573.285 216.122 573.422 220.055 569.983C220.469 569.983 220.78 570.12 221.194 570.12C221.712 570.12 222.229 569.983 222.747 569.708C222.954 569.433 223.264 569.157 223.471 568.882C223.885 569.157 224.196 569.295 224.61 569.57C224.506 570.12 224.506 570.808 224.403 571.359C224.506 571.771 224.506 572.322 224.506 572.734C224.713 573.009 224.817 573.285 225.024 573.56C225.541 573.972 225.955 574.248 226.576 574.248C228.232 573.972 229.889 573.697 231.234 572.046C232.166 570.808 232.58 569.295 232.269 567.644C232.269 567.644 232.269 567.507 232.373 567.507C233.615 569.02 234.96 570.396 236.72 569.295C240.55 566.956 244.69 570.671 248.52 568.882C248.934 569.157 249.244 569.433 249.658 569.708C249.658 569.708 249.658 569.708 249.658 569.845C251.728 573.147 254.213 572.047 256.179 570.12C258.042 568.194 260.113 567.507 262.183 566.268C264.046 564.342 265.805 564.342 267.462 566.681C267.876 566.956 268.393 567.231 268.911 567.231C269.428 567.094 269.842 566.819 270.153 566.268C270.67 566.131 271.188 565.856 271.809 565.718C272.326 566.131 272.844 566.544 273.361 566.956C277.709 568.47 282.47 567.919 286.403 571.359C287.645 572.459 288.784 571.634 289.922 570.396C295.926 564.755 296.029 564.755 301.722 571.359C301.929 571.496 302.033 571.496 302.24 571.634C302.24 572.597 302.55 573.422 303.068 574.248C306.587 576.311 310.21 577.825 314.04 577.962C316.938 578.788 319.836 578.925 322.838 578.925C323.873 579.2 324.804 579.888 325.839 579.888C329.462 580.576 332.153 585.941 336.19 583.74C336.294 583.878 336.397 583.878 336.501 584.015C336.811 584.153 337.122 584.428 337.329 584.565C339.192 587.179 341.986 588.142 344.264 589.931C350.577 589.38 355.96 585.666 361.032 581.126C362.17 580.026 363.723 579.613 364.861 578.375C368.795 574.248 373.659 572.597 378.317 570.396C379.973 569.708 381.94 569.983 382.561 567.369C383.907 569.02 385.666 568.607 387.322 568.607C389.807 567.919 392.291 567.369 394.878 567.369C398.708 565.718 402.641 565.168 406.575 566.131C410.508 567.094 414.338 567.094 418.271 565.993C428.829 564.618 439.386 561.866 450.047 564.067C452.532 564.618 454.809 563.104 456.879 561.316C457.396 560.353 457.914 559.527 458.328 558.427C462.054 557.877 465.884 559.39 469.61 558.702C469.817 558.84 470.128 558.977 470.335 559.115C472.819 561.041 474.889 563.792 477.891 564.48C479.547 565.168 481.203 565.856 482.963 565.718C488.138 565.443 493.624 567.644 498.282 562.416C498.696 561.729 499.006 561.041 499.11 560.215C499.11 559.665 499.006 559.252 498.903 558.702C499.11 558.84 499.213 558.977 499.42 559.115C500.455 559.39 501.387 559.252 502.111 558.564C502.215 558.84 502.422 559.115 502.629 559.39C504.182 561.316 506.148 561.041 508.115 561.041C508.943 560.353 509.667 559.94 510.392 559.665C511.738 560.353 513.083 561.041 514.429 561.729C515.257 562.829 516.085 564.205 517.016 565.305C517.741 565.993 518.465 566.681 519.19 567.094C522.088 569.02 525.09 570.396 528.506 570.12C529.955 569.983 531.611 570.12 532.232 568.47C532.335 568.47 532.439 568.47 532.439 568.607C533.267 568.745 534.095 568.745 535.027 568.47C535.855 568.057 536.476 567.507 537.097 566.544C537.407 565.993 537.614 565.305 537.821 564.755C545.274 563.93 552.726 564.067 559.868 567.919C560.179 567.919 560.386 567.919 560.696 567.919C561.628 567.919 562.663 567.232 563.387 568.194C567.217 572.872 570.219 571.909 572.703 566.131C573.221 565.03 574.152 564.618 574.98 564.067C576.429 562.554 578.396 562.004 579.534 559.803C579.742 559.252 579.742 558.84 579.742 558.289C579.845 558.152 579.845 558.152 579.949 558.014C582.329 559.803 583.985 558.152 585.538 555.538C585.952 554.437 586.469 553.337 586.987 552.374C587.297 552.649 587.608 552.924 587.919 553.337C587.919 554.025 587.919 554.85 587.919 555.675C588.022 556.363 588.229 557.051 588.54 557.601C587.401 559.252 586.262 560.766 586.366 563.379C586.676 563.93 586.987 564.618 587.297 565.168C587.919 565.856 588.54 565.856 589.264 565.305C590.092 565.443 591.024 565.581 591.852 565.718C592.887 567.094 594.129 568.194 595.992 568.607C599.718 568.332 610.483 557.739 611.518 553.474C611.829 551.961 611.725 550.585 611.104 549.485C611.829 548.797 612.243 547.834 612.76 546.871C613.692 544.257 614.934 542.606 616.59 541.781C616.693 541.781 616.797 541.643 616.9 541.643C617.211 541.506 617.418 541.368 617.729 541.368C618.453 541.23 619.385 541.093 620.316 541.23C620.834 541.23 621.351 541.23 621.869 541.23C624.767 544.119 627.044 543.019 628.907 539.167C629.011 539.167 629.114 539.029 629.218 538.892C631.495 541.093 633.772 539.855 636.153 538.066C636.877 537.241 637.809 536.691 638.637 536.003C639.051 535.728 639.568 535.452 639.982 535.04C640.707 534.627 641.432 534.352 642.156 533.939C642.467 534.352 642.881 534.765 643.295 535.04C649.505 534.489 655.301 530.775 661.615 531.6C662.857 531.738 664.1 529.674 664.928 527.886C664.928 527.748 665.031 527.611 665.031 527.473C669.896 524.034 674.968 523.346 680.247 525.96C681.592 525.822 682.731 525.547 683.145 523.896C683.248 523.896 683.248 523.896 683.352 523.896C683.455 524.034 683.455 524.034 683.455 524.172C687.906 527.061 692.667 527.336 697.532 527.886C700.12 527.886 702.708 528.024 705.295 527.748C708.4 526.648 709.746 522.108 712.644 520.595C713.265 519.907 713.679 518.944 714.093 517.981C715.128 515.229 717.406 513.028 717.613 509.727C720.097 511.515 722.995 510.827 725.479 512.478C727.756 513.028 729.205 510.552 731.068 509.727C733.346 508.488 735.83 508.488 738.314 508.351C741.833 508.213 745.249 510.139 748.872 508.351C756.428 504.636 764.398 504.774 772.264 505.737C774.748 506.012 776.715 505.599 778.164 502.848C779.613 499.546 777.854 497.62 776.611 495.557C779.924 497.483 780.752 496.382 783.753 490.466C784.064 489.641 784.167 488.816 784.167 487.99C784.685 483.038 781.683 477.397 785.513 472.995C787.376 465.979 788.411 458.687 792.344 452.772C794 450.296 793.069 446.444 790.999 443.967C789.653 442.316 788.101 440.803 786.652 439.427C790.895 437.914 793.276 433.374 793.897 425.395C793.69 424.707 793.483 424.019 793.172 423.469C793.38 423.056 793.586 422.644 793.794 422.231C793.897 421.13 793.897 420.03 793.69 418.792C790.585 412.326 791.206 405.447 792.137 398.431C793.38 388.939 795.967 379.446 794.518 369.541C794.104 368.303 793.897 367.202 793.69 365.964C794.829 363.35 795.657 360.599 794.104 356.747C793.69 355.784 795.45 352.344 795.243 349.18C795.45 348.355 795.657 347.667 795.76 346.842C795.76 345.741 795.45 344.778 794.725 344.09C795.346 343.677 795.864 342.99 796.174 342.164C796.899 340.788 797.623 339.55 797.52 337.762C797.002 335.148 796.485 332.534 798.141 330.195C799.072 325.793 795.346 321.941 797.106 317.401ZM775.162 118.61C775.059 118.748 774.955 118.748 774.852 118.885C774.852 118.748 774.852 118.61 774.852 118.61C774.955 118.61 775.059 118.61 775.162 118.61Z" fill="white"/>
</svg>
