<svg width="785" height="524" viewBox="0 0 785 524" fill="none" xmlns="http://www.w3.org/2000/svg">
<path d="M311.297 14.2515C310.997 15.3553 311.397 16.2138 311.997 17.0723C311.797 16.0911 311.597 15.11 311.297 14.2515Z" fill="white"/>
<path d="M516.103 3.09095C516.303 3.09095 516.603 2.72298 516.603 2.60034C516.603 2.35505 516.403 2.10979 516.303 1.8645C516.103 1.98715 515.803 1.98713 515.703 2.23242C515.403 2.723 515.603 3.09095 516.103 3.09095Z" fill="white"/>
<path d="M753.397 435.536C752.397 438.97 751.297 442.526 751.297 446.206C754.297 447.064 752.497 443.14 753.897 442.281C753.897 440.073 755.897 437.498 753.397 435.536Z" fill="white"/>
<path d="M757.5 419.715C757.5 421.064 758.3 421.677 759 422.413C760.5 422.413 760.8 421.309 760.5 419.837C759.5 419.347 758.5 419.469 757.5 419.715Z" fill="white"/>
<path d="M783.9 226.427C783.5 224.71 783.1 223.115 783.3 221.276C783.1 220.049 783.1 218.823 783.3 217.474C783.4 217.106 783.5 216.738 783.6 216.493C783.7 216.493 783.7 216.493 783.8 216.493C783.9 216.493 783.9 216.492 784 216.615C784.2 215.266 784 214.162 783 213.549C783.3 212.323 783 211.464 782.1 210.973C781.9 210.851 781.7 210.851 781.5 210.728C781.4 210.973 781.4 211.219 781.3 211.341C781 210.851 780.6 210.36 780.1 210.238C779.6 209.87 779.3 209.379 779.2 208.766C779 208.521 778.7 208.275 778.5 208.03C778.4 208.03 778.4 208.03 778.3 208.03C778.4 208.03 778.4 208.03 778.5 208.03C778.3 207.417 778 206.804 777.8 206.19C777.9 205.577 777.8 205.209 777.6 204.841C778 204.228 777.9 203.492 777.4 202.511C777 202.388 776.7 202.511 776.3 202.511C776.2 202.388 776.1 202.388 776.1 202.266C776.1 202.143 776.1 202.02 776.1 201.898C775.8 201.162 775.6 200.303 775.8 199.445C776.2 199.077 776.4 198.586 776.4 197.973H776.5C776.6 197.85 776.7 197.728 776.6 197.483C776.8 196.747 776.5 195.888 776.7 195.152C777.2 193.435 777.4 191.841 776.9 190.369C776.9 190.124 776.9 189.879 776.9 189.633C776.7 186.322 777.1 182.888 774.9 180.312C774.9 179.699 774.9 179.086 774.9 178.473L774.6 178.35C775.7 176.633 775.7 174.793 775 172.954C775.3 171.114 775.6 169.274 775.9 167.435C775.6 164.982 775.4 162.529 775.2 160.076C775.8 159.217 776.3 158.236 776.9 157.378C775.9 155.17 773.8 155.048 772.4 153.698C771.7 153.331 771 152.963 770.3 152.472C768.9 149.283 767.9 146.094 771 143.396C771.6 142.66 772.2 141.925 772.8 141.311H772.9C773.3 141.311 773.7 141.189 774.1 140.821C775.2 137.387 772.6 136.773 771.2 135.302C770 134.321 770.7 133.462 771.4 132.604C771.4 131.009 770.3 130.151 769.9 128.802C770.8 127.085 774.1 125.981 770.6 123.405C770.4 123.037 770.2 122.792 769.9 122.424C770.1 118.622 767.5 118.132 765.6 116.66V116.292V115.924C766.3 114.207 772.2 112.245 765.5 110.65C764.4 110.405 764.3 108.811 764.1 107.584C763.9 106.971 763.7 106.358 763.4 105.744C763.8 105.131 764 104.273 763.4 103.905H763.3C762.9 100.716 761.8 98.0178 759.9 95.6876C758.2 95.3196 756.7 96.1782 755.3 97.1593C754.8 96.5461 754.4 95.9328 753.9 95.4423C754 93.4799 754.7 91.395 752.9 90.1686C751 88.6968 750.4 86.2439 750.4 84.0363C750.3 79.9891 748.8 81.706 747.5 82.6872C746.7 83.5457 745.9 84.2816 745.1 85.1401C744.9 85.1401 744.7 85.2628 744.5 85.2628C743.7 86.1213 742.9 86.9798 742.1 87.961C739.7 89.4327 736.8 90.0459 735.4 93.2347C734.6 94.0932 733.8 94.9517 732.9 95.8102C730.8 92.6214 725.8 93.7252 725.3 88.0836C725.3 87.7157 724 87.4704 723.3 87.2251C721.8 86.8571 720.4 86.6118 718.9 86.3665C718.7 86.3665 718.4 86.3666 718.2 86.2439C717 85.508 716.4 82.8099 714.4 84.1589C714.2 84.2816 714 84.4043 713.9 84.6496C713.8 84.5269 713.8 84.5269 713.7 84.4043C713.6 82.8099 717.6 82.3193 714.6 79.8664C713.9 80.1117 713.1 80.4796 712.4 80.7249C712.1 80.7249 711.9 80.6023 711.6 80.6023C708 81.8287 704.9 78.8852 701.1 79.4985C701.7 78.3947 702 78.0268 702.2 77.5362C702.8 76.4324 704.2 75.3285 703 74.1021C701.7 72.753 700.4 73.9795 699.6 75.4512C698.8 76.8003 698.2 78.272 697.4 79.6211C695.1 80.9702 695.8 79.0079 695.8 77.6588C695.6 74.9606 693.3 73.7342 692.5 71.2813C691.5 67.9699 689.3 66.4981 686.3 67.6019C685.4 67.9699 684.4 67.8472 683.4 67.8472C684.3 66.2529 685.8 65.0264 684.8 62.5735C681.9 62.8188 679.4 61.1018 676.7 60.4886C676 58.6489 679.3 56.564 677.2 55.4602C674.6 54.1111 674 51.0449 672.2 49.2052C671.3 48.8373 671 47.8562 670.8 46.875C670.5 44.2995 669.2 44.79 667.9 45.5259C664.8 46.0165 662 45.7712 658.9 43.6862C656.5 42.0919 655.7 40.4975 655.9 37.4314C655.6 36.9408 655.1 36.4502 654.7 35.9596C652.6 33.5067 649.3 34.3652 647.1 32.035C646.8 32.035 646.6 32.035 646.3 32.035C644.5 31.9123 641.4 32.4029 641.6 30.4406C642.1 24.6763 638.7 25.7801 636.4 25.2895C634.3 24.799 632.1 24.0631 631.6 21.8555C630.8 17.8082 629.7 19.8932 628.5 21.2423C627.7 21.6102 627 21.9781 626.2 22.2234C624.2 21.8555 622.6 19.1573 620.3 20.3838C615 22.4687 610.2 18.0535 605 18.4215C603.8 18.5441 603.5 17.0724 604.1 15.7233C605.3 13.0251 603.9 13.0251 602.3 12.9025C597.7 12.9025 593.2 12.9025 589 15.7233C587.1 14.1289 584 14.7421 583.1 11.1854C583.4 10.0816 584.2 9.22308 583.6 7.87399C583 7.38341 582.5 6.77025 581.7 7.01554C581.1 7.26083 580.8 7.62872 580.6 8.1193C578.7 7.38343 576.7 6.64755 574.8 6.03432C574.6 6.15697 574.5 6.27967 574.3 6.40232C573 5.5438 571.4 5.78905 570.3 4.43996C570.3 3.58145 570.3 2.72296 570.2 1.86445C568.3 0.024782 566.3 -0.465841 564.1 0.515316C563.9 0.515316 563.8 0.637975 563.6 0.76062C563.1 0.76062 562.6 0.76062 562.1 0.76062C560.6 0.147397 559.1 -0.465841 557.6 0.515316C557.4 0.515316 557.1 0.63796 556.9 0.515316V0.638005C555.8 0.883294 554.8 1.25124 553.7 1.49653C552.4 2.47769 551.6 3.94942 551.3 5.78909C550.6 3.21356 549.1 2.10976 547 2.10976C544.1 2.10976 541.3 2.35504 539.6 5.78909C536.1 9.46843 532.1 11.3081 527.4 9.95897C526.9 8.97781 526.4 8.11931 526 7.13815C524.8 5.91171 523.5 5.78909 522.3 7.01554C522 7.26083 521.7 7.50609 521.4 7.75138C516.2 6.40229 511.2 6.77022 506.5 10.2043C505.2 10.8175 504 11.4307 502.7 12.0439C500.5 12.6572 497.7 12.5345 497.3 16.4591C496.3 17.0723 495.3 17.6856 494.3 18.2988C494 18.6667 493.8 18.9121 493.5 19.28C492.3 20.5064 491.5 21.8555 491.2 23.8178C491.1 24.0631 491.1 24.3084 491 24.5537C488.3 21.8555 486.9 24.9216 485.1 26.516C484.6 27.3745 484 28.3557 483.5 29.2142C475.8 28.1104 467.9 30.318 460.4 26.6387C460.1 26.6387 459.8 26.6386 459.5 26.7613C457.6 27.8651 455.7 28.4783 453.6 28.3557C450.6 28.6009 447.6 28.9689 444.6 29.2142C444.2 28.9689 443.9 28.7236 443.5 28.4783C443.5 28.3557 443.4 28.233 443.4 28.1104C443 27.7424 442.7 27.7424 442.3 28.1104C441.8 28.233 441.3 28.233 440.8 28.3557C437.8 28.9689 434 25.9027 432 31.1765C431.9 31.4218 431 31.6671 430.7 31.4218C430 30.9312 430.5 30.0727 430.7 29.4595C431.7 25.7801 430.1 27.1292 428.8 27.9877C425.6 27.1292 422.3 27.4971 419 27.7424C418 27.1292 417 27.6198 416.1 28.1104C415.7 27.4971 415.3 26.884 415 26.0255C414.1 25.1669 414.3 23.6951 413.7 22.5913C413.7 22.3461 413.8 22.1008 413.8 21.8555C413.7 21.6102 413.5 21.365 413.4 21.1197C411.1 21.9782 411.3 18.7894 410 18.0536C410 17.8083 410 17.5629 410.1 17.3176C409.7 17.195 409.4 17.195 409 17.0723C408.1 16.3365 408 14.4968 406.7 14.2515C406.3 14.2515 406 14.1289 405.6 14.1289C405 14.4968 404.4 14.8648 403.9 15.3554C403.8 15.3554 403.7 15.3554 403.6 15.3554C403.2 15.478 403 15.9686 402.8 16.3365C401.3 17.195 399.8 18.0535 398.3 19.0347C397.6 19.28 396.9 19.6479 397 20.7517C396.1 20.997 395.2 21.2423 394.3 21.4876C392.4 21.9782 390.3 23.082 389.3 19.6479C389.2 19.1573 388.3 19.0347 387.8 18.6668C387.7 18.9121 387.7 19.0347 387.7 19.28C386.5 20.997 385.2 22.5914 383.1 22.4687C381.3 23.2046 379.4 23.6952 377.5 23.9405C377.1 23.9405 376.8 23.9405 376.4 23.9405C376.4 24.0631 376.4 24.0631 376.4 24.1858C375.6 24.3084 374.9 24.4311 374.1 24.5537C372.8 24.799 371.5 25.0443 370.1 25.1669C368.7 24.3084 367.2 24.9216 365.7 25.1669C365.5 25.1669 365.4 25.1669 365.2 25.1669L365.1 25.2895C364.1 25.4122 363 25.4122 362 24.5537C361.8 24.5537 361.6 24.431 361.3 24.431C361 24.431 360.7 24.4311 360.4 24.5537C360.2 25.0443 360.2 25.5349 360.2 26.0255C358.6 25.0443 357.1 25.1669 355.7 25.7801C355.2 25.5349 354.7 25.1669 354.3 24.431C353.9 24.1857 353.5 23.8179 353 23.5726C350.6 24.6764 347.9 23.2046 345.5 25.0442C344.5 25.0442 343.5 25.1669 342.4 25.1669C341.9 25.1669 341.4 25.0442 340.9 25.0442C339.9 24.431 339 23.8178 338 23.082C336.6 20.5064 334.9 19.5252 332.3 20.1385C328.2 21.2423 324.2 21.7328 320.6 17.9309C319.8 17.0724 318.2 17.3177 317 16.9497C313.9 17.195 315.2 20.2611 314.8 22.2234C314.5 22.3461 314.3 22.3461 314 22.4687C313.7 21.7329 313.4 21.1196 313.1 20.3838C312.6 20.3838 312.1 20.2611 311.7 20.2611C311.7 19.6479 311.7 19.0347 311.7 18.5441C310.7 18.7894 309.8 19.0347 308.8 19.28C307.9 19.5253 306.6 19.1573 306.1 20.3838C305.4 22.2234 307.8 21.7329 307.8 23.6952C306.6 23.8178 305.4 23.8178 304.2 23.9405C304.8 26.0254 304.5 27.8651 303.3 29.3368C302.9 29.8274 302.5 30.318 302.1 30.8085C301.6 30.5633 301.1 30.318 300.7 29.95C299.9 29.3368 299.1 28.8463 298.3 29.4595C296.6 30.5633 294.9 30.0727 293.2 29.8274C292.4 28.601 291.5 29.0915 290.5 29.5821C290.4 29.5821 290.3 29.7048 290.3 29.8274C289.7 29.3368 289.1 28.9689 288.5 28.4783C288.3 28.4783 288.2 28.3557 288.1 28.3557C288.1 28.4783 288.1 28.6009 288.1 28.7236C286.2 26.3933 285 28.7236 283.5 29.7048C282.4 29.7048 281.3 29.8274 280.2 29.8274C278.6 28.4783 276.6 27.6198 275.6 25.2895C275 24.6763 274.3 24.431 273.6 24.3084C273.4 24.1858 273.3 24.0631 273.1 23.9405C273.3 23.6952 273.4 23.3273 273.4 22.9593C273.5 21.365 272.4 21.3649 271.7 20.7517C271.5 20.3837 271.2 19.8932 271 19.5252C269.8 20.2611 269.6 22.9593 267.8 22.2234C265.6 21.3649 263.1 21.3649 261.4 19.0347C257.7 17.0724 253.7 17.3177 250 15.9686C249.5 15.8459 249.1 15.9685 248.8 16.4591C245 13.8836 240.9 12.2892 236.8 10.9401C234 10.9401 231.1 10.9401 228.4 9.71366C224.6 8.85515 221.2 10.8175 217.6 11.7986C217 11.9213 216.3 12.1666 215.7 12.2892C213.5 13.0251 211.3 11.9213 209.1 11.9213C207.1 12.2893 206.3 15.11 204.5 15.8459C202.9 14.3742 201.5 13.8836 200 16.0912C199.1 17.4403 197.6 17.195 196.3 17.4403C195.3 17.563 194.4 17.6856 193.8 18.7894C193 19.0347 192.3 19.4026 191.5 19.6479C190.8 20.7517 189.9 20.7517 188.9 20.6291C187.8 20.5064 187.1 21.1197 186.7 22.3461C185.6 22.3461 184.5 22.2234 183.3 22.2234C182.3 21.4876 181.3 21.2423 180.2 21.7329C180 21.6102 179.9 21.3649 179.7 21.2423C179.6 20.997 179.4 20.7517 179.3 20.3838C178.5 19.5252 177.4 19.6479 176.4 19.28C173.1 18.1762 169.7 17.8083 166.3 17.8083C165.3 17.563 164.4 16.9498 163.5 18.0536C162.8 19.0347 162.4 20.2611 161.1 20.3838C159.7 20.5064 158.4 20.7517 157.2 19.5252C156.4 18.7894 155.5 18.6667 154.5 19.4026C154.1 19.5253 153.7 19.6479 153.3 19.8932C152.9 19.7706 152.6 19.6479 152.2 19.6479C151.5 19.7706 150.8 19.8932 150 20.0158C143.9 18.6667 137.7 19.6479 131.6 18.6668C130.9 18.7894 130.2 18.9121 129.5 19.0347C129 18.9121 128.4 18.7894 127.9 18.6668C127.5 19.5253 127 20.2612 126.6 21.1197C125.7 20.7517 125 21.2423 124.3 21.9781C122.6 21.8555 120.9 21.6102 119.3 21.4876C119.2 21.6102 119.2 21.6102 119.1 21.7329C119 21.6102 119 21.6102 118.9 21.6102C118.1 21.4876 117.3 21.1197 116.5 21.4876C116.3 21.6102 116.1 21.7329 115.9 21.8555C115.1 21.8555 114.3 21.8555 113.5 21.8555C113.6 21.8555 113.6 21.8555 113.7 21.9781C113.6 21.9781 113.6 21.9782 113.5 21.8555C112.2 21.7329 110.9 21.7328 109.7 21.6102C109.2 21.6102 108.7 21.6102 108.3 21.6102C107.5 21.6102 106.7 21.8555 106 22.4687C103.7 23.9405 101.4 25.1669 98.8 25.5348C97.1 26.3934 95.3 26.7613 93.4 26.7613C92.9 26.6386 92.4 26.6386 91.8 26.516C91.8 26.3933 91.8 26.2707 91.8 26.1481C91.8 26.0254 91.8 25.9027 91.9 25.6575C90 25.6575 88.4 26.2707 87.8 28.8463C86 28.4783 84.9 29.5821 84.4 31.6671C84.4 32.1577 84.3 32.5256 84.3 33.0161C84.6 33.0161 85 33.1388 85.3 33.1388C84.7 33.9973 84.1 34.8558 84 36.0822C83.7 37.1861 83.1 38.0446 82.2 38.5351C81.9 39.1484 81.7 39.7616 81.4 40.2522C81.4 40.3748 81.4 40.4975 81.4 40.6201C81.4 40.4975 81.4 40.3748 81.4 40.2522C80.6 40.9881 79.8 41.7239 79 42.4598C76.9 42.2145 76.4 45.158 74.7 45.6486C74.4 46.1392 74.1 46.7524 73.8 47.243C73.6 47.243 73.4 47.3656 73.3 47.4883C72.3 48.4694 71.2 48.9599 69.9 48.9599C69.2 48.2241 68.4 47.9788 67.5 48.1015C67.5 47.9788 67.5 47.9788 67.5 47.8562C67.3 47.6109 67 47.6109 66.8 47.8562C65.6 47.6109 64.5 48.7147 63.5 48.4694C60.2 47.6109 57.2 48.1014 54.9 51.4128C51.9 52.394 50.6 55.0922 50 58.5263C49.6 58.8942 49.3 59.3848 48.9 59.7527C48.3 61.1018 47.4 62.2056 47.2 63.8C47 64.0453 47 64.4132 47.2 64.6585C44.6 65.6397 44.6 67.9699 45.2 70.5454C43.4 72.3851 43.1 75.0833 42.3 77.5362C41.8 78.1494 41.4 78.6399 40.9 79.2532C40.7 79.6211 40.5 79.989 40.3 80.4796C40.4 81.4608 40.4 82.3193 40.9 83.1778C40.6 83.5457 40.2 83.9137 39.9 84.2816C39.4 84.2816 39 84.1589 38.5 84.1589C38.3 83.3004 37.9 82.9325 37.1 83.3004C36.2 83.6684 35.4 84.4043 34.6 84.8949C34.1 85.876 32.7 86.3666 33.3 88.0836C33.2 88.6968 33.1 89.31 33 89.9233C31.8 91.1497 30.7 92.7441 29 93.3573C28.9 94.0932 28.7 94.9517 28.6 95.6876C27 97.5272 25 98.999 23.9 101.452C23.7 101.575 23.5 101.82 23.3 101.942C23.3 102.556 23.2 103.292 23.2 103.905C23.1 104.518 23.1 105.131 23 105.744C23 105.744 23 105.867 22.9 105.867C21.5 105.744 20.6 106.48 20.7 108.443C20.5 108.933 20.3 109.546 19.9 109.914C19.7 110.037 19.5 110.282 19.3 110.405C19.1 111.999 18.9 113.594 18.8 115.311C18.4 115.801 18 116.415 17.8 117.15C17.6 117.15 17.3 117.15 17.1 117.273C16.5 118.009 16.4 118.99 16.2 119.971C16 121.566 16.6 123.16 15.7 124.632C15.7 125.122 15.7 125.613 15.7 126.226C15.9 126.349 16.2 126.471 16.4 126.594C17.4 126.594 18 127.453 18.8 127.943C19 128.434 19.3 128.679 19.6 129.17C20.2 130.151 21.1 130.887 22 131.5C22.3 131.868 22.7 132.236 23.1 132.481C23.6 132.849 24 133.585 24.7 133.585C24.7 133.83 24.7 134.075 24.9 134.321C25.1 134.443 25.2 134.566 25.4 134.689C25.5 135.547 25.7 136.16 26.1 136.896C26.1 137.141 26.1 137.264 26.1 137.509C26.5 138.491 26.6 139.349 26.3 140.33V140.453C26.1 140.453 25.9 140.453 25.7 140.453C25.1 140.575 24.6 140.821 24.1 141.311C23.9 141.311 23.6 141.434 23.4 141.434C22.4 142.538 22.9 144.5 22 145.604C20.9 147.076 21.2 148.425 22 149.774C22 151.736 23.1 152.717 24.3 153.453C24.5 153.821 24.7 153.821 25 153.821C25.1 153.821 25.1 153.698 25.2 153.698C25.7 154.312 25.3 155.538 26.1 156.029C26.3 156.151 26.5 156.397 26.8 156.519C27 157.378 27 158.236 27.6 158.85C27.7 158.972 27.8 159.217 28 159.34C28.9 160.812 28.5 161.793 27.4 162.529C27.4 162.529 27.3 162.529 27.3 162.651C27.1 162.651 26.8 162.652 26.6 162.774C26.4 163.51 26.3 164.246 26.2 165.104C25.8 165.595 25.4 166.086 25 166.576C24.6 167.067 24.2 167.557 23.9 167.925C24.2 168.416 24.4 168.906 23.9 169.274C23 169.888 22.7 170.991 22.2 171.973C22 172.218 21.7 172.586 21.5 172.831C21.6 172.954 21.7 172.954 21.8 172.954C22.3 172.954 22.8 173.322 23 173.935C23.5 174.548 24.2 175.039 24.9 175.529C26.1 177.001 26.2 178.595 25.7 180.435C25.4 181.539 25.4 182.275 26.3 183.011C28.6 185.096 28.5 186.567 26.4 189.143C26.2 189.388 26.2 189.633 26.3 190.001C26.4 190.124 26.6 190.247 26.7 190.369C26.8 190.369 26.8 190.369 26.9 190.247C27.3 190.86 27.7 191.473 28.1 192.086C28.6 193.067 29.5 194.049 29 195.152C28.4 196.379 29 196.379 29.5 196.747C30.1 197.115 30.5 197.605 31.1 198.096C31.2 198.464 31.3 198.709 31.5 199.077C32.5 199.813 32.2 200.794 31.9 201.898C31.4 202.879 31.5 203.737 31.7 204.719C31.6 204.719 31.6 204.841 31.5 204.841C31.4 205.087 31.3 205.209 31.3 205.454C31.3 205.332 31.2 205.209 31.2 205.087C29.8 204.964 29.7 206.068 29.9 207.417C30.4 208.398 29.9 209.011 29.4 209.624C28.8 210.238 28.2 210.606 27.5 211.096C25.2 211.341 23.3 212.936 21.3 214.285C21 214.408 20.8 214.653 20.5 214.775C20.1 215.266 19.4 215.634 19.4 216.493C19.6 218.21 18.6 218.7 17.7 219.313C17.3 219.681 16.7 219.313 16.3 219.681C15.7 219.681 15.1 220.049 14.6 220.54C14.5 220.662 14.4 220.908 14.4 221.03C14.2 221.766 14.3 222.379 15 222.87C15 223.115 15 223.238 15 223.483C14.3 224.587 13.3 225.446 13.8 227.04C13.9 227.163 14.1 227.285 14.2 227.531C12.8 228.512 11.5 229.738 10.9 231.578C10.2 231.578 9.7 231.823 9.8 232.927C9.9 233.54 10.1 234.276 9.9 234.889C10.2 235.134 10.5 235.257 10.9 235.502C10.9 235.625 11 235.748 11 235.87C12.6 236.851 12.9 238.201 12.1 240.163C12.6 241.267 13.3 242.37 13.6 243.597C14 245.191 15.3 247.031 12.9 248.135C12.3 248.38 12.3 249.239 12.3 249.974C13.4 251.691 14.8 253.163 14.4 255.739C14.9 256.229 15.4 256.72 15.9 257.211C16.2 257.456 16.4 257.701 16.5 258.069C16.4 258.314 16.3 258.437 16.3 258.682C16.2 259.541 16.5 260.399 16.7 261.258C16.7 261.503 16.7 261.748 16.7 261.871C16.4 262.239 16.1 262.607 15.8 262.975C15.8 263.465 15.8 263.833 15.7 264.324C15.3 265.796 17 265.918 16.8 267.267C17.9 268.739 18.5 270.579 20 271.56C20 271.928 20.1 272.173 20.1 272.541C20.3 272.664 20.4 272.786 20.6 272.909C20.8 272.909 21 273.032 21.2 273.032C20.4 275.485 21.3 277.937 21.6 280.268C21.7 281.126 22.1 281.617 22.7 281.985C22.7 282.107 22.7 282.23 22.7 282.353H22.9H23.1C23.2 283.702 22.8 284.806 22 285.664C21 286.768 20.5 287.994 21.6 289.343C21.9 289.711 21.9 290.202 21.7 290.57C21.6 290.692 21.5 290.692 21.5 290.815C21.2 290.692 20.9 290.815 20.7 291.06C19.9 291.919 18.7 291.919 18 292.9C18 293.023 18 293.145 18 293.268C18.3 293.391 18.7 293.391 19 293.513C19.5 293.636 20.1 293.881 20.6 294.004C21.2 296.457 20.9 298.787 20.1 300.995C18.9 301.73 19 302.712 19.8 303.815C21.7 305.533 21.8 306.391 20.4 310.438C20 311.051 19.6 311.665 19.2 312.155C18.8 312.155 18.4 312.155 18.1 312.155C17.4 312.769 17.3 313.75 17 314.486C16.6 315.344 16.2 316.325 15.8 317.184C15.8 317.797 15.8 318.41 15.8 319.023C14.8 319.514 13.8 319.882 12.7 319.637V319.514C12.6 319.391 12.5 319.391 12.4 319.269C11.5 319.514 11.1 320.372 10.5 321.108C9.8 321.967 9.3 323.071 8.1 322.948C6.6 323.071 7.2 324.91 6.6 325.769C6.1 328.222 7.8 331.656 4 333.005C5.6 333.495 6.3 334.231 6.8 335.212C7.1 335.703 7.7 336.194 7.1 336.93C6.7 338.156 7.1 339.628 6.3 340.731C6 341.099 6.1 341.467 6.2 341.835C6.4 342.449 6.2 343.062 6.3 343.552C6.3 343.675 6.4 343.92 6.4 344.043C6 344.779 5.4 344.901 4.7 344.779C3.1 345.147 3.2 346.864 3 348.213C2.8 349.317 3.9 348.949 4.3 349.439C4.3 349.685 4.4 349.807 4.5 349.93C4.2 350.42 4 351.156 3.5 351.279C2.5 349.807 1.2 350.911 0.1 350.666L0 350.788C0 350.911 0.1 351.034 0.1 351.156C1.6 351.524 1.8 352.873 1.8 354.345C1.8 354.345 1.8 354.468 1.9 354.59C1.8 354.836 1.8 355.204 1.6 355.449C0.4 356.798 1.5 358.147 1.6 359.496C3.2 361.09 3.3 361.826 2 363.543C1.5 364.157 1.2 364.892 1.3 365.751C1.4 365.996 1.6 366.119 1.7 366.364C2.5 367.713 3.2 369.185 4 370.534C6.1 372.496 7.2 376.176 6.2 378.629C5.8 380.836 3.7 382.431 5 385.129C5.2 385.374 5.4 385.497 5.6 385.742C5.9 385.987 6.1 386.355 6.4 386.601C6.7 386.969 7.1 387.336 7.4 387.582C7.5 388.44 7.7 389.176 8 389.789L10 390.525C10.4 392.978 10.9 395.431 11.1 397.884C11.3 398.497 11.5 399.11 11.7 399.601C11.7 400.091 11.7 400.582 11.8 401.073C12.3 401.318 12.9 401.563 13.4 401.808C13.4 402.667 13.7 403.28 14.3 403.648C14.5 405.12 14.6 406.592 14.8 408.063C14.9 408.063 14.9 408.186 15 408.186C15 408.309 14.9 408.309 14.9 408.431C15 409.167 14.9 409.903 15.2 410.516C15.3 410.639 15.4 410.884 15.6 411.007C15.7 411.743 15.9 412.356 16 413.092V412.969V413.092C16.2 414.196 16.3 415.299 16.5 416.526C16.6 416.894 16.6 417.384 16.7 417.752C16.8 418.488 17.1 419.101 17.5 419.592C18.7 421.309 19.8 423.149 20.4 425.356C21.2 426.705 21.7 428.3 22 429.894C22 430.385 22.1 430.875 22.1 431.243C22 431.243 22 431.243 21.9 431.366C21.8 431.366 21.7 431.366 21.6 431.366C21.9 433.083 22.6 434.309 24.1 434.432C24.2 436.149 25 436.885 26.3 436.885C26.6 436.885 26.8 436.762 27.1 436.762C27.1 436.517 27.1 436.149 27 435.904C27.6 436.272 28.2 436.64 28.9 436.517C29.6 436.64 30.2 437.007 30.6 437.621C31 437.743 31.4 437.866 31.7 437.989C31.8 437.989 31.8 437.989 31.9 437.989C31.8 437.989 31.8 437.989 31.7 437.989C32.3 438.602 32.8 439.215 33.4 439.706C33.6 441.545 35.4 441.545 35.9 442.894C36.3 443.017 36.6 443.262 37 443.385C37 443.508 37.1 443.753 37.2 443.753C37.9 444.489 38.4 445.347 38.6 446.451C38.3 447.187 38.3 447.923 38.5 448.659C38.5 448.659 38.4 448.659 38.4 448.781C38.3 449.027 38.3 449.272 38.5 449.395C38.5 450.498 39.3 451.234 39.4 452.215C39.5 455.282 40.2 457.734 42.5 459.206C43.5 461.659 45.3 462.395 47.4 462.395C47.7 462.64 48 462.885 48.3 463.131C49.2 463.499 50 463.989 50.9 463.867C51.1 463.989 51.3 463.989 51.4 463.744C52.4 465.829 53.7 465.461 55.1 464.48C56.4 465.829 58 465.584 59.6 465.829C60 466.197 60.4 466.442 60.8 466.81C61.1 466.933 61.3 467.055 61.6 467.178C62.1 466.933 62.7 466.687 63 466.197C63.3 466.442 63.6 466.688 63.8 466.933C63.8 467.301 63.9 467.791 63.9 468.159C63.4 468.527 63.3 468.895 63.6 469.508C64 470.244 64.5 470.735 65 471.471C65.7 471.716 66.2 472.942 67.1 472.084C67.5 472.084 67.8 472.084 68.2 472.084C69.1 472.942 70.2 473.678 70.8 475.027C71.3 475.027 71.8 475.027 72.2 475.027C73.5 476.131 74.7 477.603 76.3 478.216C76.4 478.339 76.6 478.461 76.7 478.707C77.1 478.584 77.5 478.584 77.9 478.461C78.3 478.461 78.6 478.339 79 478.339H79.1C79.3 479.565 79.8 480.178 80.9 479.81C81.3 479.933 81.6 479.933 81.9 480.301C82 480.424 82.2 480.546 82.3 480.669C82.9 480.546 83.6 480.546 84.2 480.424C84.9 481.037 85.5 481.65 85.6 482.754C85.7 483.612 86.5 484.103 87.3 483.98C87.5 483.98 87.8 483.735 88 483.612C92.5 482.631 96.1 479.197 100 476.622C104.2 476.867 107 471.348 111.3 472.452C111.6 472.207 111.9 471.961 112.2 471.839C112.3 471.593 112.4 471.348 112.6 471.103C113.6 469.999 114.8 468.895 115.9 467.791C116.8 468.037 117.7 468.037 118.6 467.669C119.9 467.178 120.9 467.669 121.8 468.404V468.527C121.9 469.876 122.8 470.489 123.4 471.471C124.3 472.329 125.2 472.82 126.3 473.065C126.6 473.065 127 473.065 127.3 473.188C127.8 473.188 128.2 473.433 128.6 473.801C128.8 474.046 129 474.414 129.2 474.659C129.8 475.641 130.2 476.744 130.8 477.725C131.9 479.688 134.9 477.725 135.4 481.16C135.9 484.716 137.6 487.66 138.4 490.971C138.3 496.245 143.2 493.669 144.5 496.858C144.8 497.594 145.7 497.839 146.4 497.471C146.6 497.349 146.8 497.103 147 496.858C151.1 494.283 153.7 489.745 156.9 486.065C158.7 485.452 160 483.98 161.2 482.386C161.7 484.103 162.2 485.943 163.3 487.292C164 488.15 164.8 489.867 165.6 488.764C167.8 485.943 170.6 488.028 172.9 486.679C174.9 487.414 177.1 487.66 178.1 490.358C178.8 492.198 180.2 492.198 181.4 492.688L181.5 492.811C181.9 492.811 182 492.565 182 492.443C183 493.056 184.1 493.179 184.9 494.283C185.9 495.877 187.1 495.386 188.2 494.405C189.8 494.405 191.4 494.283 192.9 494.283C193.6 495.877 194.5 497.349 195.8 498.33C198 502.5 201.4 504.094 205.1 504.953C206.6 504.953 208 504.953 209.4 503.971C212.6 501.886 215.1 503.113 216.2 507.283C217 510.349 219.4 513.538 221 513.538C224.8 513.538 227.5 516.359 230.9 516.849C233.6 515.745 236.3 514.642 238.5 512.311C240 511.575 241.4 510.717 242.9 509.981C244.5 508.387 247.2 508.387 247.7 505.198C247.8 505.32 248 505.321 248.1 505.443C248.4 505.198 248.7 504.953 249 504.585C249.3 504.462 249.7 504.217 250 504.094C251.7 502.377 253.8 504.094 255.6 503.236C256.4 502.99 257 502.5 257.1 501.396C257.4 500.169 257.3 498.943 256.9 497.839C257.6 497.226 258.4 496.735 259.1 496.122C261.9 495.141 265.1 495.509 267.6 492.933C268.3 493.547 268.9 492.811 269.6 492.32C269.9 492.075 270.2 491.952 270.5 491.707C271.3 490.113 273.4 490.358 273.7 488.15C275.5 484.962 277.4 484.471 279.7 487.414C280.4 488.396 281.6 488.886 282.5 489.499C283.4 488.641 284.3 487.782 285.2 486.801C286.9 485.697 288.3 486.801 289.6 487.905C292.7 490.358 296.1 490.113 299.5 490.113C299.8 489.745 300.1 489.499 300.3 489.009C301 488.886 301.6 488.886 302.2 489.377C305.6 491.952 309.7 491.339 313.3 493.056C315 493.179 316.8 493.179 318.4 492.198C320.8 492.688 322 495.632 324.3 496.367C324.4 496.613 324.7 496.49 325 496.49C325.7 496.49 326.5 496.613 327.2 496.613C330.5 496.49 333 498.698 335.5 500.783C335.5 501.028 335.6 501.273 335.7 501.519C335.9 501.641 336 501.764 336.2 501.887C337.9 501.396 339.3 499.679 341.2 499.679C341.3 499.434 341.4 499.188 341.5 498.943C343 498.33 344.6 497.594 346.1 496.981C347.8 495.264 349.6 495.632 351.5 496C351.4 496.245 351.3 496.49 351.2 496.858C351.1 497.226 351.2 497.717 351.5 497.839C352.4 498.33 352.6 497.226 353.2 496.858C353.3 497.349 353.5 497.717 353.6 498.207C354 498.207 354.3 498.207 354.7 498.207C355 498.207 355.2 498.33 355.5 498.33C355.6 498.33 355.6 498.207 355.7 498.207C355.9 497.839 356.2 497.594 356.5 497.349L356.6 497.226C357 497.349 357.4 497.471 357.9 497.349C359.2 497.226 359.9 497.839 360.2 499.311C360.6 499.679 360.8 499.679 361 499.434C361.3 500.047 361.6 500.537 362 500.783C361.8 500.783 361.6 500.905 361.4 500.905C360.4 502.622 360.5 502.868 362.1 503.603C363.1 504.217 363.1 505.198 362.7 506.302C362.5 506.915 362.2 507.773 363.2 507.773C365.7 507.896 368.2 508.141 370.5 506.67C371.5 507.283 371 509.245 372.3 509.49C372.5 509.981 372.6 510.349 372.7 510.84C372.7 510.962 372.6 511.207 372.6 511.33C373 511.943 373.2 512.924 374.1 512.311C374.5 512.066 375 511.698 375.1 511.085C375.5 509.736 376.2 509.736 377.2 510.104C378.3 510.104 379.6 509.122 380.6 510.594C381.5 511.453 382.4 512.189 383.3 513.047C383.8 513.047 384.3 513.047 384.9 513.17C385 513.047 385.2 512.802 385.3 512.679C385.4 512.311 385.6 512.066 385.7 511.698C386.1 511.575 386.4 511.33 386.8 511.207C388.1 511.33 389.3 510.962 390.5 510.472C391.2 510.226 391.9 509.981 392.5 510.717C393.2 511.821 394 511.821 395 511.453C396 511.085 397.1 511.085 398.2 510.962C399.5 510.349 400.1 508.877 400.6 507.406C401.4 506.792 402.2 506.179 402.9 505.566C404 504.953 405.2 504.585 406 503.236C406.5 502.377 407 501.641 407.9 502.377C408.6 502.868 408.9 502.132 409.3 501.764C410.2 500.66 410.2 499.066 410.8 497.839C410.9 497.717 411 497.471 411.2 497.349C411.3 497.103 411.3 496.981 411.3 496.735L411.4 496.613C411.5 496.49 411.5 496.367 411.6 496.245C412.2 496.613 412.7 497.103 413.2 497.594C414.7 497.717 415.1 498.575 414.6 500.292C414.5 500.537 414.6 500.905 414.7 501.151C415.1 501.886 415.7 501.886 416.2 501.519C418 499.801 418.4 501.396 418.9 502.99C420.2 501.273 419.1 498.943 419.9 497.103C421.4 496.367 422 498.82 423.3 498.575C424.1 498.82 424.9 498.943 425.7 499.188C427 499.679 428.3 500.292 428.2 502.377C428.2 502.5 428.2 502.622 428.2 502.868C428 503.358 428 503.849 428.2 504.339C428.8 506.302 430.8 506.424 431.6 508.141C432.8 508.877 434.3 509.245 435.3 510.472L435.2 510.594C435.2 510.962 435.3 511.33 435.4 511.575C435.8 513.415 436.7 513.783 438.1 513.415C438.6 513.292 438.9 512.924 439.1 512.434C441 510.349 443 508.509 445.7 508.632C446.5 508.632 447 508.264 447.4 507.528C447.5 507.528 447.6 507.528 447.7 507.528C447.8 507.16 447.9 506.915 448.1 506.547C448.4 506.424 448.5 506.056 448.5 505.811C449.4 505.811 449.8 504.83 450.5 504.339C450.9 503.849 451.3 503.481 451.7 502.99C451.9 502.745 452.1 502.377 452.3 502.132C452.4 502.009 452.5 501.886 452.6 501.764C452.8 501.519 452.9 501.273 453.1 501.028C453.3 500.783 453.5 500.537 453.7 500.169C454.7 500.047 455.6 499.802 456.3 498.943C456.4 498.943 456.5 498.943 456.6 499.066C456.8 499.066 457 499.066 457.1 499.066C457.2 499.066 457.3 498.943 457.3 498.943C457.6 499.188 457.9 498.943 458.2 498.698C458.3 498.575 458.4 498.575 458.5 498.452C458.9 498.33 459.3 498.207 459.7 498.084C460.4 498.084 461.1 498.452 461.5 498.943C463.3 500.905 465.2 500.905 467.3 500.169C467.3 500.169 467.3 500.169 467.4 500.169C467.5 500.169 467.6 500.292 467.6 500.292C467.6 500.415 467.6 500.415 467.6 500.537C467.7 502.132 468.8 502.745 469.5 503.726C469.8 505.075 470.2 506.056 471.5 505.198C471.9 504.83 472.3 504.462 472.5 503.849C472.5 503.849 472.5 503.849 472.6 503.849C473.1 504.707 473.4 506.302 474.5 504.217C475.2 502.745 476.1 502.622 477.3 502.868C478.6 503.113 479 504.094 479.1 505.566C479.2 506.424 479.5 507.283 479.8 508.264C479.8 508.632 479.8 508.877 479.8 509.245C480.3 510.104 480.5 511.698 481.8 510.349C482.6 509.736 483.5 509.368 484.4 509.245C484.4 509.123 484.4 509 484.5 509C485.3 508.141 486.4 508.509 487.3 508.141C487.4 508.019 487.5 507.773 487.7 507.651C487.8 507.528 488 507.405 488.1 507.283C488.1 507.16 488.1 506.915 488.1 506.792C488.6 506.302 489 505.811 489.5 505.198C489.6 504.953 489.6 504.707 489.6 504.462C490.1 503.849 490.6 503.236 491.2 502.745C493.5 502.5 495.4 504.585 497.7 504.217C497.9 503.971 498 503.603 498.2 503.358C498.7 503.481 499.1 503.358 499.3 502.745C499.7 501.151 500.9 500.905 502 500.537C502.1 500.415 502.3 500.169 502.4 500.047C504.2 497.594 504.1 498.084 506.3 499.311C508 500.292 509.9 500.66 511.6 501.887C511.9 502.132 512.5 502.132 512.9 501.641C513.4 501.028 513.9 500.292 514.4 499.556C514.5 499.556 514.6 499.434 514.7 499.434C515.2 498.82 515.7 498.33 516.2 497.717C516.3 497.717 516.5 497.717 516.6 497.717C517 497.839 517.3 497.962 517.7 497.839C518.3 497.594 518.8 497.471 519 498.33C519.7 499.188 519.8 501.396 521.5 499.924L521.6 500.047C521.5 499.802 521.5 499.679 521.4 499.434C521.5 499.066 521.7 498.943 522 498.943C521.8 499.066 521.6 499.311 521.4 499.434C522.4 499.311 523.4 499.188 524.4 498.943C526.1 498.575 527.6 498.575 528.8 500.783C529.6 502.377 530.2 504.339 531.9 505.075C531.9 505.321 531.9 505.688 532 505.934C532.6 506.67 533.4 506.792 534.2 507.038C535.5 507.283 536.8 506.547 538 507.651C538.4 507.651 538.8 507.651 539.3 507.651C539.4 507.405 539.5 507.038 539.6 506.792C539.6 505.566 540.3 504.83 540.7 503.849C541.1 503.604 541.3 503.236 541.7 502.868C542.5 502.132 543.1 501.028 543.6 499.924C543.9 499.556 544.2 499.066 544.4 498.575C544.7 497.962 545.3 497.471 545.3 496.613C545.5 496.613 545.7 496.613 545.9 496.367C546 496.122 546.1 496 546.2 495.754C546.9 495.632 547.4 495.386 548 494.896C548.2 494.896 548.3 494.896 548.5 494.896C549.3 494.405 550 494.283 550.8 494.65H550.9C550.9 494.896 550.9 495.141 550.9 495.386C551 496.122 551.2 496.735 551.6 497.349C551.6 497.594 551.7 497.962 551.7 498.207C552.6 499.434 554.2 498.82 555.1 499.924C556.3 501.273 557.4 500.905 558.5 499.924C560.1 499.924 560.9 498.575 561.5 497.103C561.8 496.858 561.8 496.613 561.8 496.245C561.8 496.122 561.7 496.122 561.7 496C562.2 495.386 563.2 495.877 563.6 494.896C563.7 494.65 563.9 494.405 564 494.037C564.7 493.792 565.4 493.792 565.9 493.056C566 492.933 566.2 492.811 566.3 492.565C567.5 491.462 568.3 491.952 568.9 493.301C568.9 493.301 568.9 493.424 569 493.424C569 493.669 569 494.037 569.1 494.283C569.7 494.528 570.3 494.65 571 494.896C571.4 495.386 571.8 495.877 572.2 496.367C572.6 496.858 573 497.349 573.3 497.717C573.7 497.349 574.1 497.103 574.4 497.717C574.9 498.82 575.8 499.188 576.6 499.802C576.8 500.047 577.1 500.415 577.3 500.66C577.4 500.537 577.4 500.415 577.4 500.292C577.4 499.679 577.7 499.066 578.2 498.82C578.7 498.207 579.1 497.349 579.5 496.49C580.7 495.018 582 494.896 583.5 495.509C584.4 495.877 585 495.877 585.6 494.773C587.3 491.952 588.5 492.075 590.6 494.65C590.8 494.896 591 494.896 591.3 494.773C591.4 494.65 591.5 494.405 591.6 494.283C591.6 494.16 591.6 494.16 591.5 494.037C592 493.547 592.5 493.056 593 492.565C593.8 491.952 594.6 490.848 595.5 491.462C596.5 492.198 596.5 491.462 596.8 490.848C597.1 490.113 597.5 489.622 597.9 488.886C598.2 488.763 598.4 488.641 598.7 488.396C599.3 487.169 600.1 487.537 601 487.905C601.8 488.518 602.5 488.396 603.3 488.15C603.3 488.273 603.4 488.273 603.4 488.396C603.6 488.518 603.7 488.641 603.9 488.641C603.8 488.641 603.7 488.764 603.6 488.764C603.5 490.481 604.4 490.603 605.5 490.358C606.2 489.745 606.8 490.235 607.2 490.848C607.3 491.584 607.3 492.443 607.5 493.179C607.7 493.547 607.9 493.792 608.1 494.16C608.7 495.018 608.9 496 608.5 497.103C608.2 498.207 608.5 499.188 609.1 500.047C609.4 500.537 609.7 501.151 610 501.641C610.9 502.254 611.8 502.745 612.7 503.358C612 503.971 612.1 504.83 612.3 505.934C612.6 507.528 612.8 509.245 611.7 510.594C611.3 511.821 611.5 512.679 612.7 513.047C613.2 513.292 613.6 513.538 614.1 513.783C616.5 514.274 619.1 514.274 620.1 517.953C620.5 521.142 623.5 519.67 624.6 521.755C625.3 522.491 625.7 523.595 626.9 522.981C627.8 520.406 629.1 521.755 630.4 522.368C630.5 522.245 630.7 522.123 630.8 522C631.5 521.387 632.2 520.651 632.9 520.038C636.4 519.67 639.8 516.359 643.3 520.038C643.9 520.651 645 520.038 645.7 519.425C649.5 517.217 650.6 511.453 654.6 509.49C654.8 509.49 655 509.49 655.2 509.368C655.5 507.773 655.8 506.179 656.1 504.707C656.8 504.094 657.4 503.358 657.8 502.377C658.1 502.377 658.3 502.254 658.6 502.254C658.7 502.009 658.8 501.887 658.9 501.641C658.9 501.396 659 501.151 659 500.905C660.8 501.764 662.5 501.028 664.2 500.66V498.207C664.6 497.962 665.1 497.471 665.5 497.226C667.4 497.349 669.3 497.471 671.1 496.367C671.2 496.122 671.3 495.877 671.4 495.632C671.4 495.264 671.5 495.018 671.5 494.65C672.6 495.632 673.9 495.264 675.2 494.896C675.5 494.773 675.9 494.528 676.2 494.405C677.9 494.405 678.3 492.811 678.7 491.339C680.1 486.311 683.5 482.999 685.9 478.707C688 478.216 690.3 476.131 692 477.971C694.1 480.178 695.8 480.056 698.1 479.197C699 478.829 700.2 478.093 701.2 479.32C701.4 479.688 701.6 480.178 701.8 480.546C701.9 480.301 702 480.056 702.1 479.81C702.2 479.81 702.3 479.933 702.3 479.933C702.2 479.933 702.1 479.933 702.1 480.056C702 480.178 701.9 480.424 701.8 480.546C701.7 481.037 701.5 481.65 701.4 482.141C701.7 482.754 701.9 483.367 702.2 484.103C702.3 483.858 702.4 483.612 702.5 483.49C705.6 482.018 707.8 485.82 710.7 485.575C710.8 485.329 710.8 485.207 710.9 484.961C712.8 484.348 714.6 483.98 716.1 486.065C716.8 484.962 717.7 486.801 718.4 485.82C718.5 485.452 718.5 485.084 718.6 484.839C719.8 483.122 721.6 483.367 723.1 482.754C724.4 482.754 725.6 482.754 726.9 482.754C725.8 480.546 726.9 478.829 727.7 476.99C730.2 475.518 733.3 475.027 733.9 470.735C735.1 469.631 736.3 468.405 737.5 467.301C738.4 468.65 739.7 469.876 739.4 472.084C740.2 471.103 740.9 469.999 741.7 469.018C741.8 468.65 741.8 468.404 741.9 468.037C742.6 466.933 742.4 465.706 742.2 464.357C742.8 464.848 743.4 465.216 744 465.706C744.2 464.357 743.8 463.253 743.5 462.027C743.8 461.782 744 461.414 744.1 461.046L746.5 461.904C746.2 460.801 746.4 459.329 745.1 458.838C745.2 458.102 745.1 457.489 744.7 456.999C744.7 456.876 744.7 456.631 744.7 456.508C744.7 456.508 744.7 456.508 744.7 456.385C745.1 456.14 745.6 455.772 745.6 455.404C745.7 453.81 746.6 453.319 747.5 452.706C747.7 452.338 747.6 452.093 747.4 451.847C747.4 451.602 747.5 451.357 747.5 451.234C747.2 450.008 747.8 449.272 748.5 448.536C749.6 447.31 749.9 445.838 749.3 443.998C749.1 443.876 748.9 443.876 748.8 443.753C748.7 443.753 748.7 443.63 748.6 443.63C748.7 443.385 748.7 443.14 748.8 443.017C748.8 442.894 748.8 442.772 748.8 442.649C748.9 441.791 749.2 440.932 748.3 440.442C748.3 440.196 748.3 439.951 748.3 439.706C748.2 439.583 748.2 439.338 748.1 439.215C748.1 439.092 748.2 438.97 748.2 438.847C748.5 437.989 748.7 437.007 749 436.149C749.1 436.026 749.3 436.026 749.4 435.904C750.2 434.8 750.9 433.451 752.2 433.206C752.7 432.715 753.3 432.96 753.9 432.715C754 432.715 754.1 432.838 754.2 432.838C754.3 432.715 754.4 432.715 754.6 432.592C754.4 431.121 755.7 431.366 756.2 430.753C756.3 430.753 756.4 430.753 756.5 430.63C756.6 430.63 756.6 430.63 756.7 430.63V430.507C757.2 430.262 757.4 429.894 757.6 429.526C757.9 429.404 758.3 429.281 758.4 428.79C758.5 428.545 758.5 428.3 758.6 428.054C758.5 427.564 758.4 427.196 758.2 426.705C758.2 426.705 758.2 426.583 758.3 426.46C758.3 426.215 758.1 425.97 757.9 425.847C757.7 424.743 757.4 423.639 757.2 422.535C757.2 422.045 757.1 421.554 756.5 421.554C756.5 420.941 756.5 420.328 756.4 419.592C756.4 418.243 756.1 416.771 757.7 416.403C757.9 416.403 758.1 415.79 758.3 415.422C758.2 415.422 758.1 415.299 758 415.299C757.3 414.318 756.8 413.214 757.1 411.865C756.8 409.78 757 407.695 757.1 405.611C757.2 403.648 757.2 401.563 757.7 399.601C757.6 399.478 757.4 399.233 757.3 399.11C757.3 398.988 757.3 398.865 757.3 398.865C757.3 398.742 757.3 398.742 757.3 398.62C757.8 397.639 758.4 396.657 759.2 395.676C759.3 395.554 759.4 395.431 759.5 395.308C760.1 394.572 760.6 393.837 761.2 393.223C760.6 394.204 760.5 395.431 760.1 396.535C759.8 398.129 759.6 399.601 759.5 401.195C759.5 401.441 759.5 401.686 759.4 401.931C759.3 402.79 759.3 403.648 759.2 404.384C759.2 404.875 759.2 405.365 759.2 405.856C759.2 407.695 759 409.412 758.6 411.13C758.3 412.601 758.4 413.828 759.7 414.441C760.8 412.233 761.9 410.026 763 407.818C763.1 407.328 763.3 406.714 763.4 406.101C764 402.912 765.1 399.724 763.6 396.412C763.7 395.799 763.9 395.186 764 394.695L763.7 394.45C765.1 393.223 765.6 391.506 765.3 389.421C766 387.827 766.7 386.11 767.4 384.516C767.7 382.063 768 379.61 768.4 377.28C769.1 376.544 769.9 375.93 770.6 375.195C770.2 372.742 768.2 371.883 767.1 370.044C766.5 369.43 766 368.817 765.4 368.204C764.8 364.647 764.6 361.213 768.2 359.741C769 359.251 769.7 358.76 770.5 358.27H770.6C771 358.392 771.4 358.392 771.8 358.27C773.6 355.326 771.3 353.854 770.3 351.892C769.4 350.42 770.3 349.93 771.1 349.317C771.5 347.845 770.6 346.496 770.5 345.147C771.7 343.798 775.2 343.92 772.5 340.241C772.4 339.873 772.2 339.505 772.1 339.014C773.2 335.458 770.8 333.986 769.3 332.024L769.4 331.778C769.5 331.533 769.7 331.165 769.9 330.92C771.4 329.816 775.5 329.693 771.8 326.873C772.2 325.524 772.5 324.174 773.1 322.825C773.2 322.58 773.2 322.212 773 321.967C774.5 319.637 775.6 317.061 776.7 314.486C777 312.523 777.2 310.684 778.1 308.966C778.9 306.514 778.3 303.938 778.2 301.485C778.2 300.995 778.2 300.627 778.2 300.136C778.1 298.542 778.8 297.193 779 295.721C779 294.249 777.9 293.513 777.7 292.164C778.5 291.306 778.9 290.325 778 289.098C777.5 288.362 777.7 287.381 777.8 286.523C777.8 285.909 777.9 285.173 777.4 284.683C777.4 284.192 777.3 283.579 777.3 283.089C776.9 282.475 777 281.862 777.1 281.249C777.2 280.513 777.1 280.022 776.6 279.532C776.7 278.796 776.9 278.06 777 277.324C777.4 276.711 777.6 276.098 777.5 275.239C777.6 275.117 777.7 274.994 777.8 274.994C777.9 274.871 778.1 274.871 778.2 274.749C778.7 274.258 778.7 273.522 779 272.909C779.8 270.824 780.3 268.616 780.7 266.286C780.9 265.673 781.3 265.06 780.8 264.324C780.4 263.833 779.9 263.343 780 262.484C780.1 261.503 780.1 260.645 780.8 259.909C781.2 259.418 781.4 258.805 781.1 258.192C781.1 257.946 781 257.578 781 257.333C781.1 257.088 781.2 256.843 781.2 256.597C781.2 256.107 781.2 255.616 781.3 255.126C782.5 251.201 782.7 246.908 783.7 242.861C783.7 242.371 783.7 241.88 783.7 241.389C783.8 241.021 783.9 240.653 784 240.286C783.7 239.918 783.4 239.55 783 239.182C783.2 238.569 783.1 238.078 782.8 237.587C782.6 237.342 782.5 237.097 782.5 236.974C782.5 237.219 782.6 237.342 782.8 237.587C783 236.484 783.3 235.38 783.5 234.276L783.4 234.153L783.5 234.031C783.6 233.54 783.9 233.05 783.8 232.436C783.8 232.314 783.7 232.068 783.7 231.946C783.8 231.455 783.9 230.842 783.9 230.351C783.9 230.351 783.9 230.474 783.8 230.474C783.8 230.474 783.8 230.351 783.9 230.351C784.1 229.493 784.2 228.634 784.4 227.776C784.5 227.408 784.5 227.163 784.6 226.795C784.2 227.53 784.1 226.917 783.9 226.427ZM771.5 177.982C771.2 179.086 771.4 180.435 771.3 181.539C771.3 181.907 771.4 182.275 771.4 182.643C771.3 182.52 771.2 182.397 771 182.52C770.9 181.661 770.7 181.171 770.3 180.926C770.4 180.803 770.4 180.68 770.5 180.558C770.8 179.822 771.1 178.963 771.5 177.982ZM363.3 501.519C363.3 501.396 363.3 501.396 363.3 501.519C363.3 501.396 363.3 501.519 363.3 501.519Z" fill="white"/>
<path d="M22.7984 104.641C22.7984 104.395 22.6984 104.15 22.3984 103.905C22.4984 104.15 22.6984 104.395 22.7984 104.641Z" fill="white"/>
</svg>
