<svg width="412" height="311" viewBox="0 0 412 311" fill="none" xmlns="http://www.w3.org/2000/svg">
<path d="M24.1356 285.728C20.9036 290.047 13.5776 290.047 7.97544 285.728C2.37326 281.409 0.434045 274.498 3.66607 270.178C6.8981 265.859 14.224 265.859 19.8262 270.178C25.4284 274.282 27.3676 281.409 24.1356 285.728ZM24.782 288.968C21.55 293.287 14.224 293.287 8.62185 288.968C3.01967 284.648 1.08045 277.737 4.31248 273.418C7.54451 269.098 14.8704 269.098 20.4726 273.418C26.0748 277.737 28.014 284.648 24.782 288.968ZM56.0249 236.703C53.6548 201.932 102.135 207.331 88.7761 243.83C125.19 267.587 68.7376 299.118 61.8426 267.155C32.3234 279.033 19.6107 232.815 56.0249 236.703ZM61.1962 237.567C63.1354 202.796 110.754 214.242 92.87 248.797C126.052 276.873 65.721 300.846 63.1354 268.45C32.1079 276.441 25.4284 229.144 61.1962 237.567ZM127.776 96.7545C70.2458 93.5149 22.1964 179.903 130.146 209.707C202.974 229.792 143.936 154.85 129.715 220.721C118.726 271.474 185.737 311.86 225.599 276.009C230.123 312.94 280.112 324.819 289.808 272.77C362.206 322.659 445.592 239.079 383.537 170.184C425.122 134.549 388.277 71.27 333.764 95.2427C349.278 23.5407 258.781 -25.7004 212.024 44.4898C186.168 -26.7802 76.4944 22.6768 127.776 96.7545ZM125.406 90.9233C66.5829 87.6837 17.2406 176.015 127.776 206.683C202.113 227.2 141.781 150.531 127.345 218.129C116.141 269.962 184.66 311.428 225.599 274.714C230.339 312.508 281.405 324.819 291.317 271.474C365.438 322.659 450.763 237.135 387.2 166.513C429.647 130.014 391.94 65.2229 336.349 89.8434C352.294 16.6297 259.643 -33.9072 211.809 37.7947C185.091 -35.419 72.8315 15.1179 125.406 90.9233Z" stroke="white" stroke-width="2" stroke-miterlimit="10"/>
<g clip-path="url(#clip0_0_1)">
<path d="M181.619 106.059C182.008 106.253 182.203 106.643 182.203 106.837C182.397 107.032 182.397 107.226 182.397 107.421C182.397 107.615 182.203 107.81 182.008 108.199C181.814 108.394 181.425 108.588 181.23 108.588C180.841 108.588 180.646 108.588 180.257 108.394C179.868 108.199 179.868 108.199 179.868 108.005C179.479 107.615 179.09 107.226 178.701 106.837C178.312 106.448 177.728 106.448 176.755 106.448C175.977 106.448 175.199 106.643 174.226 107.032C173.253 107.421 172.475 107.81 172.086 108.394C171.697 108.783 171.502 109.561 171.308 110.534C170.918 111.312 170.918 112.285 170.918 113.063C170.918 114.036 171.113 115.009 171.697 115.982C172.086 116.955 172.864 117.538 173.837 118.122C174.615 118.511 175.782 118.9 176.95 118.706C177.533 118.706 178.312 118.511 179.09 118.317C179.674 118.122 180.257 117.538 180.841 116.955C181.036 116.566 181.619 116.371 182.008 116.371C182.203 116.371 182.592 116.566 182.787 116.76C182.981 116.955 183.176 117.344 183.176 117.538C183.176 117.733 183.176 118.122 182.981 118.317C182.981 118.511 182.787 118.706 182.592 119.095C182.008 119.873 181.23 120.457 180.063 120.846C179.09 121.235 177.923 121.43 176.366 121.43C175.199 121.43 173.837 121.235 172.475 120.652C171.308 120.068 170.335 119.29 169.751 118.511C169.362 117.928 168.973 117.149 168.584 116.176C168.195 115.204 168 114.425 168 113.842C168 112.285 168.195 110.728 168.584 109.172C168.973 107.81 169.751 106.643 170.724 105.67C171.308 105.086 172.28 104.697 173.448 104.308C174.615 103.919 175.782 103.724 176.755 103.724C177.923 103.724 178.895 103.919 179.674 104.113C180.257 104.697 181.036 105.281 181.619 106.059ZM196.017 112.09C196.211 112.285 196.211 112.674 196.406 113.258C196.6 113.647 196.6 114.231 196.6 114.62C196.6 115.398 196.406 116.371 196.211 117.733C195.044 120.068 193.293 121.235 190.764 121.235C189.791 121.235 189.013 121.041 188.04 120.457C187.067 119.873 186.483 119.29 186.094 118.511C185.51 116.566 185.121 115.593 185.121 115.204C185.121 114.425 185.316 113.647 185.51 112.869C185.9 112.09 186.289 111.312 186.678 110.728C187.067 110.339 187.456 109.95 188.234 109.561C189.013 109.172 189.791 108.977 190.374 108.977C191.736 108.977 192.709 109.172 193.682 109.561C194.655 110.145 195.433 110.923 196.017 112.09ZM193.877 116.566C193.877 116.371 194.071 115.787 193.877 114.814C193.877 114.231 193.682 113.842 193.487 113.258C193.293 112.674 193.098 112.09 192.709 111.896C192.709 111.896 192.515 111.896 192.32 111.701C192.126 111.701 191.931 111.507 191.736 111.507C191.542 111.507 191.153 111.312 190.764 111.507C189.791 111.507 189.013 111.896 188.623 112.869C188.234 113.647 188.04 114.62 188.04 115.593C188.04 115.787 188.04 116.176 188.234 116.566C188.429 117.149 188.429 117.344 188.429 117.538C188.429 117.733 188.623 117.928 188.818 118.122C189.013 118.122 189.402 118.317 189.791 118.511C190.18 118.706 190.569 118.706 190.764 118.706C191.542 118.706 192.32 118.511 192.709 118.122C193.098 117.733 193.487 117.149 193.877 116.566ZM206.912 108.588C207.301 108.588 207.69 108.783 207.885 108.977C208.079 109.172 208.274 109.561 208.274 109.756C208.274 109.95 208.274 110.145 208.274 110.534C208.274 111.118 208.274 111.701 208.274 112.285C208.274 113.063 208.274 113.842 208.469 114.62C208.469 115.398 208.469 115.982 208.663 116.371C208.858 118.706 208.858 120.457 208.858 121.819C208.858 123.181 208.663 124.154 207.885 124.932C207.301 125.71 206.328 126.1 205.161 126.1C204.772 126.1 204.383 125.905 203.994 125.71C203.605 125.516 203.41 125.127 203.41 124.738C203.41 124.543 203.41 124.154 203.605 124.154C203.799 123.959 203.994 123.959 204.188 123.959C204.383 123.959 204.577 123.959 204.772 123.959C204.967 123.959 205.161 123.959 205.161 123.959C205.55 123.959 205.745 123.959 205.939 123.765C206.134 123.765 206.328 123.376 206.328 122.986C206.523 122.597 206.523 122.014 206.523 121.235C206.328 117.149 206.328 114.036 205.939 111.896C205.745 110.728 205.745 109.95 205.745 109.367C205.745 109.172 205.939 108.783 206.134 108.588C205.939 108.783 206.328 108.588 206.912 108.588ZM205.745 102.946C206.328 102.946 206.912 103.14 207.301 103.335C207.69 103.529 207.885 103.919 208.079 104.502C208.079 104.891 207.885 105.281 207.496 105.475C207.107 105.67 206.718 105.864 206.134 105.864C205.55 105.864 205.161 105.67 204.967 105.475C204.967 105.475 204.772 105.281 204.772 104.891C204.772 104.308 204.772 103.919 204.967 103.529C205.161 103.14 205.356 102.946 205.745 102.946ZM210.998 114.231C210.998 113.063 211.192 112.285 211.582 111.507C211.971 110.728 212.749 109.95 213.527 109.367C213.916 108.977 214.305 108.783 214.889 108.783C215.473 108.588 216.056 108.588 216.446 108.588C217.029 108.588 217.613 108.588 218.197 108.977C218.78 109.172 219.364 109.367 219.753 109.756C220.531 110.145 220.92 110.728 221.115 111.507C221.31 112.09 221.504 112.869 221.504 113.842C221.504 114.231 221.31 114.62 220.921 115.009C220.531 115.398 220.142 115.593 219.559 115.593H218.586C218.002 115.593 217.224 115.593 216.251 115.787H215.667C215.278 115.787 214.889 115.787 214.695 115.787C214.5 115.787 213.916 115.787 213.527 115.787C213.527 116.566 213.916 117.344 214.5 117.733C215.084 118.122 215.667 118.511 216.251 118.317C217.418 118.317 218.197 118.122 218.586 117.538C218.975 117.344 219.169 117.149 219.364 116.955C219.753 116.566 219.948 116.566 220.337 116.566C220.531 116.566 220.92 116.566 221.115 116.955C221.31 117.149 221.504 117.538 221.504 117.733C221.504 118.122 221.31 118.317 220.921 118.706C220.531 119.095 220.142 119.29 219.364 119.679C218.975 119.873 218.586 120.068 218.002 120.068C217.418 120.262 216.835 120.262 216.446 120.262C215.862 120.262 215.084 120.068 214.305 119.679C213.527 119.29 212.944 118.9 212.554 118.511C212.165 118.122 211.776 117.344 211.582 116.566C211.192 115.982 210.998 115.009 210.998 114.231ZM216.446 113.258C217.808 113.258 218.586 113.063 219.364 113.063C219.364 112.48 219.169 112.09 218.78 111.701C218.391 111.312 218.002 111.118 217.613 110.923C217.418 110.923 217.224 110.728 217.224 110.728C217.029 110.728 217.029 110.728 216.835 110.728C216.056 110.728 215.278 110.923 214.695 111.507C214.111 111.896 213.722 112.48 213.722 113.258C214.5 113.258 215.473 113.258 216.446 113.258ZM231.621 113.647C231.816 113.647 232.01 113.842 232.4 114.036C232.789 114.231 233.178 114.62 233.372 114.814C233.567 115.204 233.567 115.593 233.567 116.176C233.567 116.76 233.372 117.344 232.983 117.928C232.594 118.511 232.205 118.9 231.621 119.095C231.232 119.29 230.649 119.484 230.065 119.679C229.481 119.873 228.897 119.873 228.508 119.873C228.119 119.873 227.73 119.873 227.146 119.679C226.563 119.484 226.174 119.484 225.979 119.484C225.395 119.29 225.006 118.9 224.423 118.511C224.033 118.122 223.839 117.538 223.839 117.149C223.839 116.76 224.033 116.566 224.228 116.371C224.423 116.176 224.812 115.982 225.201 115.982C225.395 115.982 225.59 115.982 225.785 116.176C225.979 116.371 226.174 116.371 226.174 116.566C226.368 116.955 226.757 117.344 227.146 117.538C227.536 117.733 228.119 117.928 228.508 117.928C229.092 117.928 229.676 117.733 230.259 117.538C230.843 117.344 231.038 116.955 231.038 116.566C231.038 116.371 231.038 116.176 230.843 116.176C230.843 115.982 230.649 115.982 230.454 115.787C230.259 115.593 229.87 115.398 229.287 115.398C228.703 115.204 228.508 115.204 228.314 115.204C227.73 115.009 227.146 114.814 226.368 114.62C225.59 114.231 225.006 113.842 224.617 113.452C224.228 113.063 224.033 112.48 224.033 111.701C224.033 111.118 224.228 110.728 224.617 110.145C225.006 109.561 225.395 109.172 225.785 108.977C226.174 108.783 226.563 108.783 227.341 108.588C228.119 108.394 228.703 108.394 228.897 108.394C229.287 108.394 229.676 108.394 230.259 108.394C230.843 108.394 231.038 108.588 231.427 108.783C231.816 108.783 232.205 109.172 232.594 109.561C232.983 109.95 232.983 110.145 233.178 110.534C233.178 110.728 233.178 110.923 232.983 111.118C232.983 111.312 232.789 111.507 232.594 111.507C232.4 111.701 232.01 111.701 231.621 111.701C231.427 111.701 231.232 111.701 231.232 111.507C231.038 111.507 231.038 111.312 230.843 111.118C230.649 110.923 230.454 110.728 230.259 110.728C230.065 110.728 229.676 110.534 229.287 110.534C228.897 110.534 228.508 110.339 228.508 110.339C228.119 110.339 227.73 110.534 227.146 110.728C226.757 110.923 226.563 111.312 226.563 111.507C226.563 111.701 226.563 111.701 226.757 111.896C226.952 111.896 226.952 112.09 227.146 112.09C227.341 112.09 227.341 112.285 227.536 112.285C227.925 112.674 228.314 112.674 228.703 112.869C229.092 113.063 229.481 113.063 229.481 113.063C230.649 113.258 231.232 113.452 231.621 113.647ZM229.87 101C230.259 101 230.649 101 230.843 101.195C231.038 101.389 231.232 101.584 231.232 101.778C231.232 102.362 231.038 102.751 230.649 103.14C230.259 103.529 229.676 103.919 229.287 104.308C229.092 104.502 228.703 104.697 228.314 104.697C227.925 104.891 227.536 104.891 227.341 104.891C226.952 104.891 226.757 104.697 226.757 104.308C226.757 104.113 226.757 104.113 226.952 103.919C226.952 103.919 227.146 103.724 227.341 103.529C227.341 103.529 227.536 103.335 227.73 103.14C227.925 102.946 228.119 102.751 228.119 102.557C228.314 102.362 228.314 102.167 228.508 101.778C228.703 101.389 228.897 101 229.287 100.805C229.092 101.195 229.481 101 229.87 101ZM239.015 115.398C239.015 116.176 239.209 116.566 239.404 116.955C239.598 117.344 239.987 117.538 240.182 117.538C240.377 117.538 240.571 117.538 240.766 117.538C240.96 117.538 241.155 117.538 241.349 117.538C241.544 117.538 241.738 117.538 241.738 117.733C241.933 117.928 241.933 118.122 241.933 118.317C241.933 118.706 241.738 119.095 241.349 119.29C240.96 119.484 240.377 119.679 239.793 119.679C239.209 119.679 238.82 119.484 238.236 119.29C237.653 119.095 237.264 118.511 236.874 117.928C236.485 117.344 236.291 116.566 236.291 115.593C236.291 113.452 236.291 111.701 236.291 110.339C236.291 108.588 236.291 106.448 236.291 103.919C236.291 103.14 236.291 102.557 236.291 102.167C236.485 101.973 236.485 101.778 236.874 101.584C237.069 101.389 237.458 101.389 237.653 101.389C237.847 101.389 238.236 101.389 238.431 101.584C238.626 101.584 238.82 101.778 238.82 101.973C238.82 102.167 239.015 102.362 239.015 102.557C239.015 102.751 239.015 103.14 239.015 103.529C239.015 104.308 239.015 105.086 239.015 105.67C239.015 106.448 239.015 107.032 239.015 107.421C238.82 110.534 238.82 113.258 239.015 115.398ZM244.268 101.973C244.851 101.973 245.435 102.167 246.019 102.362C246.408 102.557 246.797 103.14 246.797 103.529C246.797 103.919 246.603 104.308 246.213 104.502C245.824 104.891 245.241 105.086 244.851 105.086C244.268 105.086 243.879 104.891 243.684 104.697C243.49 104.502 243.295 104.113 243.295 103.919C243.295 103.335 243.295 102.946 243.49 102.557C243.684 102.167 243.879 101.973 244.268 101.973ZM244.073 113.258V112.48C244.073 111.507 244.073 110.728 243.879 109.95C243.684 109.172 243.684 108.783 243.684 108.588C243.684 108.394 243.879 108.199 244.073 108.005C244.268 107.81 244.462 107.81 244.657 107.81C245.046 107.81 245.435 107.81 245.63 108.005C246.019 108.199 246.213 108.199 246.213 108.394C246.408 108.977 246.408 109.561 246.408 109.95C246.408 110.728 246.408 112.09 246.603 113.842V114.814V115.787C246.603 115.982 246.603 116.371 246.603 116.76C246.603 117.149 246.603 117.538 246.603 118.122C246.603 118.511 246.408 118.706 246.213 119.095C245.824 119.29 245.63 119.484 245.241 119.484C244.657 119.484 244.268 119.484 244.073 119.095C243.879 118.9 243.684 118.511 243.684 117.928L244.073 113.258Z" fill="white"/>
<path d="M176.564 142.443C176.758 142.443 176.953 142.638 177.342 142.833C177.731 143.027 178.12 143.416 178.315 143.805C178.509 144.195 178.509 144.584 178.509 145.167C178.509 145.751 178.315 146.335 177.926 146.919C177.536 147.502 177.147 147.891 176.564 148.086C176.175 148.281 175.591 148.475 175.007 148.67C174.424 148.864 173.84 148.864 173.451 148.864C173.062 148.864 172.672 148.864 172.089 148.67C171.505 148.475 171.116 148.475 170.921 148.475C170.338 148.086 169.949 147.697 169.365 147.308C168.976 146.919 168.781 146.335 168.781 145.946C168.781 145.557 168.976 145.362 169.17 145.167C169.365 144.973 169.754 144.778 170.143 144.778C170.338 144.778 170.532 144.778 170.727 144.973C170.921 145.167 171.116 145.167 171.116 145.362C171.311 145.751 171.7 146.14 172.089 146.335C172.478 146.529 173.062 146.724 173.451 146.724C174.034 146.724 174.618 146.529 175.202 146.335C175.785 146.14 175.98 145.751 175.98 145.362C175.98 145.167 175.98 144.973 175.785 144.973C175.785 144.778 175.591 144.778 175.396 144.584C175.202 144.389 174.813 144.195 174.229 144.195C173.645 144 173.451 144 173.256 144C172.672 143.805 171.894 143.611 171.116 143.222C170.338 142.833 169.754 142.443 169.365 142.054C168.976 141.665 168.781 141.081 168.781 140.303C168.781 139.719 168.976 139.33 169.365 138.747C169.754 138.163 170.143 137.774 170.532 137.579C170.921 137.385 171.311 137.385 172.089 137.19C172.867 136.996 173.451 136.996 173.645 136.996C174.034 136.996 174.424 136.996 175.007 136.996C175.591 136.996 175.785 137.19 176.175 137.385C176.758 137.579 177.147 137.968 177.342 138.357C177.731 138.747 177.731 138.941 177.926 139.33C177.926 139.525 177.926 139.719 177.731 139.914C177.731 140.109 177.536 140.303 177.342 140.303C177.147 140.498 176.758 140.498 176.369 140.498C176.175 140.498 175.98 140.498 175.98 140.303C175.98 140.303 175.785 140.109 175.785 139.914C175.591 139.525 175.396 139.525 175.202 139.33C175.007 139.33 174.618 139.136 174.229 139.136C173.84 139.136 173.451 138.941 173.451 138.941C173.062 138.941 172.672 139.136 172.089 139.33C171.7 139.525 171.505 139.914 171.505 140.109C171.505 140.303 171.505 140.303 171.7 140.498C171.894 140.498 171.894 140.692 172.089 140.692C172.283 140.692 172.283 140.887 172.478 140.887C172.867 141.081 173.256 141.276 173.84 141.276C174.229 141.471 174.618 141.471 174.618 141.471C175.396 142.054 176.175 142.249 176.564 142.443ZM180.26 139.136C180.066 138.941 179.871 138.747 179.871 138.552C179.871 138.357 179.677 138.163 179.677 137.968C179.677 137.774 179.871 137.385 180.066 137.19C180.26 136.996 180.649 136.801 181.039 136.801C181.428 136.801 181.817 136.996 182.206 137.19C182.595 137.385 182.984 137.774 183.179 138.163C183.568 137.579 183.957 137.19 184.735 136.996C185.319 136.801 186.097 136.606 186.875 136.606C187.654 136.606 188.432 136.801 189.21 137.385C189.988 137.968 190.572 138.552 190.961 139.33C191.35 140.109 191.545 140.887 191.739 141.665C191.739 142.443 191.739 143.222 191.545 143.805C191.35 144.389 191.156 144.973 190.767 145.751C190.377 146.335 189.599 146.919 188.821 147.502C188.043 147.891 187.07 148.086 186.097 148.281C185.903 148.281 185.513 148.281 185.124 148.086C184.735 147.891 184.346 147.697 184.152 147.697C184.152 148.864 183.957 150.032 183.957 151.005C183.957 151.588 183.957 151.977 184.152 152.561C184.152 153.145 184.152 153.534 184.152 153.729C184.152 154.118 183.957 154.507 183.762 154.701C183.568 154.896 183.179 155.091 182.79 155.091C182.206 155.091 181.622 154.896 181.428 154.507C181.233 154.118 181.039 153.729 181.039 152.95C181.039 151.394 181.039 150.032 181.233 148.67C181.233 146.724 181.233 144.389 181.233 141.665C181.233 141.471 181.039 141.081 181.039 140.692C180.649 139.719 180.455 139.33 180.26 139.136ZM183.762 144.584C183.957 144.973 184.152 145.167 184.541 145.362C184.93 145.557 185.319 145.751 185.708 145.751C186.681 145.751 187.459 145.362 188.043 144.778C188.432 144.389 188.626 144 188.821 143.611C189.016 143.222 189.016 142.638 189.016 141.86C189.016 141.276 188.821 140.692 188.626 140.303C188.432 139.914 188.043 139.525 187.654 139.33C187.265 139.136 186.875 138.941 186.681 139.136C185.903 139.136 185.319 139.33 184.93 139.914C184.541 140.303 184.152 140.887 184.152 141.665C183.762 142.054 183.762 143.027 183.762 144.584ZM197.771 146.919C197.771 147.308 197.576 147.502 197.382 147.697C197.187 147.891 196.798 148.086 196.603 148.086C196.02 148.086 195.631 148.086 195.436 147.891C195.242 147.697 195.047 147.308 195.047 146.724C195.047 145.946 195.047 145.167 195.047 144.195C195.047 143.222 195.047 142.249 195.047 141.86C195.047 141.665 195.047 141.276 195.047 140.692C195.047 140.303 195.047 139.914 195.047 139.719C195.047 139.33 194.852 139.136 194.658 138.941C194.463 138.747 194.074 138.552 193.685 138.552C193.49 138.552 193.296 138.357 193.296 138.163C193.101 137.968 193.101 137.774 193.101 137.774C193.101 137.385 193.296 136.996 193.49 136.801C193.88 136.606 194.269 136.412 194.658 136.412C195.242 136.412 195.631 136.606 196.02 136.996C196.409 137.385 196.798 137.774 196.993 138.357C197.382 137.774 197.965 137.19 198.549 136.801C199.133 136.412 199.716 136.217 200.3 136.217C201.078 136.217 201.662 136.217 202.246 136.606C202.829 136.801 203.024 137.19 203.024 137.774C203.024 138.163 202.829 138.552 202.635 138.941C202.44 139.33 202.051 139.525 201.662 139.525C201.467 139.525 201.078 139.525 200.884 139.136C200.689 139.136 200.689 138.941 200.495 138.941C200.3 138.941 200.106 138.941 200.106 138.941C199.911 138.941 199.522 138.941 199.327 139.136C199.133 139.33 198.938 139.33 198.744 139.525C198.549 139.914 198.354 140.498 198.16 140.692C197.965 141.081 197.965 141.471 197.965 141.86C197.965 142.249 197.965 142.443 197.965 142.638V144.195V145.167C197.771 145.751 197.771 146.335 197.771 146.919ZM216.838 146.14C216.838 146.529 216.643 146.919 216.254 147.113C215.865 147.308 215.476 147.502 215.087 147.502C214.308 147.502 213.919 147.502 213.336 147.308C212.752 147.113 212.557 146.919 212.168 146.335C211.779 146.724 211.001 147.113 210.223 147.308C209.444 147.502 208.666 147.697 207.888 147.697C206.721 147.697 205.748 147.502 205.164 146.919C204.386 146.335 203.997 145.362 203.997 144.195C203.997 143.611 204.191 143.222 204.386 142.833C204.58 142.443 204.97 142.054 205.553 141.665C206.137 141.276 206.721 141.081 207.304 140.887C207.888 140.692 208.666 140.498 209.444 140.498C209.834 140.498 210.223 140.498 210.806 140.692C211.39 140.887 211.779 140.887 211.974 141.081V140.692C211.974 139.719 211.779 139.136 211.195 138.747C210.806 138.357 210.028 138.163 208.861 138.163C208.472 138.163 208.277 138.163 207.888 138.357C207.499 138.552 207.304 138.747 206.915 138.941C206.331 139.136 205.942 139.33 205.553 139.33C205.359 139.33 205.164 139.136 205.164 138.941C204.97 138.941 204.97 138.747 204.97 138.552C204.97 137.968 205.164 137.579 205.748 137.19C206.331 136.801 206.915 136.412 207.499 136.217C208.277 136.023 208.861 135.828 209.25 135.828C209.834 135.828 210.417 135.828 211.195 136.023C211.974 136.217 212.557 136.412 212.947 136.801C213.53 137.19 213.919 137.774 214.308 138.357C214.698 138.941 214.698 139.719 214.892 140.498C214.892 140.692 214.892 141.081 214.892 141.471C214.892 142.054 214.892 142.443 214.892 142.833C214.892 143.027 214.892 143.222 214.892 143.611C214.892 144 214.892 144.389 214.892 144.584C214.892 144.778 214.892 144.973 215.087 145.167C215.281 145.362 215.476 145.362 215.67 145.362H216.449C216.643 145.362 216.838 145.362 216.838 145.557C216.838 145.751 216.838 145.946 216.838 146.14ZM208.083 145.751C208.861 145.751 209.444 145.557 210.028 145.362C210.612 145.167 211.195 144.778 211.974 144.389C211.974 144 212.168 143.611 212.168 143.222C211.195 142.833 210.417 142.638 209.639 142.638C208.861 142.638 208.277 142.833 207.693 143.027C207.11 143.222 206.915 143.805 206.915 144.584C206.915 144.973 207.11 145.167 207.304 145.362C207.499 145.557 207.888 145.751 208.083 145.751ZM230.846 140.692C231.041 140.303 231.041 139.719 231.235 139.136C231.43 138.357 231.43 137.774 231.624 137.19C231.819 136.801 231.819 136.412 232.013 136.023C232.208 135.634 232.403 135.439 232.597 135.439C232.792 135.244 232.986 135.244 233.181 135.244C234.154 135.244 234.543 135.634 234.543 136.217C234.543 136.606 234.348 137.19 234.154 138.357C233.181 141.276 232.597 143.611 232.208 145.167C232.013 145.751 231.819 146.335 231.43 146.724C231.041 147.113 230.652 147.308 230.068 147.308C229.679 147.308 229.484 147.113 229.095 146.919C228.706 146.724 228.511 146.335 228.317 145.751L227.928 144.973C227.344 143.611 226.955 142.638 226.76 142.054C226.566 141.276 226.371 140.692 226.177 140.109L225.982 141.081C225.593 142.638 225.204 144.195 224.815 145.557C224.62 146.335 224.231 146.724 224.036 147.113C223.647 147.502 223.258 147.502 222.675 147.502C222.285 147.502 222.091 147.502 221.896 147.308C221.702 147.113 221.313 146.919 221.118 146.529C220.729 146.14 220.534 145.362 220.145 144.584C219.951 143.805 219.367 142.638 218.978 140.887C218.783 140.109 218.394 139.33 218.2 138.552C218.005 137.774 217.811 137.19 217.811 136.801C217.811 136.412 217.811 136.023 218.005 135.828C218.2 135.634 218.394 135.439 218.783 135.439C219.367 135.439 219.562 135.439 219.756 135.634C219.951 135.828 220.145 136.023 220.34 136.412C220.534 136.996 220.729 137.968 220.924 139.136L221.507 141.665C221.507 141.86 221.702 142.249 221.896 142.833L222.091 143.611C222.48 142.833 222.869 141.86 223.064 141.081C223.258 140.303 223.647 139.33 223.842 138.163C223.842 138.163 224.036 137.385 224.426 136.217C224.62 135.828 224.815 135.634 225.009 135.439C225.204 135.244 225.398 135.05 225.593 135.05C225.982 135.05 226.177 135.05 226.566 135.439C226.76 135.634 226.955 136.023 227.149 136.217C227.344 136.996 227.539 137.579 227.733 138.163C227.733 138.357 227.928 138.941 228.317 139.914C228.511 140.887 228.901 141.471 229.095 142.249C229.29 142.833 229.484 143.222 229.679 143.611L230.846 140.692ZM245.049 138.552C244.854 138.552 244.465 138.552 244.271 138.357C244.076 138.163 243.882 137.968 243.687 137.774C243.493 137.579 243.298 137.385 243.103 137.385C242.909 137.385 242.52 137.385 242.325 137.385C241.742 137.385 241.352 137.579 240.769 137.968C240.185 138.357 239.796 138.747 239.601 139.33C239.212 139.914 239.212 140.498 239.212 141.276C239.212 142.054 239.407 142.638 239.796 143.222C240.185 143.805 240.574 144.195 241.352 144.584C241.547 144.778 241.936 144.778 242.131 144.778C242.52 144.778 242.714 144.778 242.909 144.778C243.493 144.778 244.271 144.584 245.049 144C245.049 144 245.244 143.805 245.438 143.805C245.633 143.611 245.827 143.611 245.827 143.611C246.022 143.611 246.216 143.611 246.606 143.805C246.8 144 246.995 144.195 246.995 144.584C246.995 145.167 246.8 145.557 246.411 145.946C246.022 146.335 245.438 146.724 244.66 146.919C243.882 147.113 243.298 147.308 242.714 147.308C241.547 147.308 240.574 147.113 239.796 146.724C238.823 146.335 238.045 145.557 237.461 144.778C236.877 144 236.683 143.027 236.488 141.86C236.488 140.692 236.683 139.525 237.267 138.552C237.85 137.579 238.434 136.801 239.407 136.217C240.38 135.634 241.352 135.244 242.325 135.244C243.298 135.244 244.271 135.439 245.244 135.828C246.022 136.217 246.606 136.801 246.606 137.579C246.216 137.968 245.827 138.552 245.049 138.552ZM259.252 146.529C258.668 146.529 258.085 146.529 257.89 146.335C257.501 146.14 257.112 145.751 256.723 145.362C256.334 145.751 255.555 146.14 254.583 146.335C253.61 146.529 252.831 146.724 252.248 146.724C251.08 146.724 250.302 146.529 249.524 145.946C248.746 145.362 248.551 144.389 248.357 143.222C248.357 142.638 248.551 142.249 248.746 141.86C248.94 141.471 249.329 141.081 249.913 140.692C250.497 140.303 251.08 140.109 251.664 139.914C252.442 139.719 253.026 139.525 253.61 139.525C254.583 139.525 255.555 139.525 256.139 139.719C256.139 138.747 255.944 138.163 255.361 137.774C254.777 137.385 254.193 137.19 253.026 137.19C252.442 137.19 251.859 137.579 251.275 138.163C251.08 138.357 250.691 138.552 250.108 138.552C249.913 138.552 249.524 138.357 249.524 138.163C249.524 137.968 249.329 137.579 249.329 137.385C249.329 136.801 249.524 136.412 249.913 136.023C250.302 135.634 250.886 135.244 251.47 135.05C252.053 134.855 252.637 134.661 253.221 134.661C253.804 134.661 254.388 134.661 255.166 134.855C255.944 135.05 256.528 135.244 256.917 135.634C257.501 136.023 257.89 136.606 258.279 137.19C258.668 137.774 258.668 138.552 258.863 139.33C258.863 139.525 258.863 139.914 258.863 140.303C258.863 140.887 258.863 141.276 258.863 141.665C258.863 141.86 258.863 142.054 258.863 142.249C258.863 142.638 258.863 142.833 258.863 143.027C258.863 143.222 258.863 143.416 259.057 143.611C259.252 143.805 259.447 144 259.641 144.195C259.836 144.389 260.03 144.389 260.03 144.584C260.03 144.778 260.225 144.973 260.225 145.167C260.225 145.362 260.03 145.557 259.836 145.751C259.641 146.335 259.447 146.529 259.252 146.529ZM253.61 141.471C252.831 141.471 252.248 141.665 251.664 141.86C251.08 142.054 250.886 142.638 250.886 143.416C250.886 143.805 251.08 144 251.275 144.195C251.47 144.389 251.859 144.584 252.053 144.584C252.831 144.584 253.415 144.389 253.999 144.195C254.583 144 255.166 143.611 255.944 143.222C255.944 142.833 256.139 142.443 256.139 142.054C256.139 141.86 256.139 141.665 256.139 141.665C255.166 141.471 254.388 141.471 253.61 141.471ZM278.319 137.19C278.513 137.385 278.513 137.774 278.708 138.357C278.903 138.747 278.903 139.33 278.903 139.719C278.903 140.303 278.903 140.887 278.708 141.665C278.513 142.443 278.513 143.027 278.319 143.222C277.346 145.362 275.595 146.335 272.677 146.335C271.704 146.335 270.926 146.14 269.953 145.557C269.175 144.973 268.396 144.389 268.007 143.611L267.813 143.027C267.813 143.027 267.618 142.638 267.424 142.249C267.229 141.86 267.229 141.471 267.229 141.081C267.229 140.303 267.424 139.525 267.618 138.552C268.007 137.579 268.396 136.801 268.785 136.217C269.175 135.828 269.758 135.439 270.536 135.05C271.315 134.661 272.093 134.466 272.871 134.466C274.039 134.466 275.206 134.661 275.984 135.05C276.957 135.244 277.735 136.023 278.319 137.19ZM275.984 141.471C275.984 141.276 276.179 141.081 276.179 140.692C276.179 140.303 276.179 139.914 276.179 139.525C276.179 138.941 275.984 138.552 275.79 137.968C275.595 137.385 275.206 136.996 275.011 136.606C275.011 136.606 275.011 136.606 274.817 136.412C274.622 136.412 274.622 136.217 274.233 136.217C274.039 136.217 273.649 136.023 273.26 136.023C272.482 136.023 271.898 136.217 271.509 136.606C271.12 136.996 270.731 137.579 270.536 138.163C270.342 138.747 270.147 139.33 270.147 139.914C270.147 140.109 270.147 140.498 270.342 140.887C270.536 141.471 270.536 141.665 270.536 141.86C270.731 142.054 270.926 142.443 271.315 142.638C271.704 143.027 272.288 143.027 272.677 143.027C273.455 143.027 274.039 142.833 274.622 142.443C275.206 142.833 275.595 142.249 275.984 141.471ZM281.626 136.412C281.626 134.855 281.432 133.493 281.432 132.52C281.432 131.937 281.237 131.548 281.237 131.353C281.043 129.991 281.043 129.018 281.043 128.629C281.043 127.851 281.432 127.462 282.21 127.267C282.794 127.267 283.183 127.462 283.377 127.656C283.572 127.851 283.767 128.434 283.767 129.018C283.961 130.186 284.156 131.742 284.156 133.493C284.156 134.272 284.156 135.05 284.156 135.828C284.545 135.244 284.934 134.855 285.712 134.466C286.49 134.077 287.074 133.882 287.658 133.882C288.436 133.882 289.214 134.077 289.798 134.272C290.382 134.661 290.965 135.05 291.549 135.634C291.938 136.023 292.133 136.606 292.327 137.19C292.522 137.774 292.716 138.357 292.716 138.747C292.716 139.525 292.716 140.303 292.327 141.276C292.133 142.054 291.744 142.833 291.354 143.222C290.771 143.805 290.382 144.389 289.603 144.584C289.02 144.973 288.242 145.167 287.269 145.167C285.907 145.167 284.739 144.584 283.961 143.611C283.961 144 283.767 144.584 283.377 144.973C282.988 145.362 282.794 145.751 282.405 145.751C282.016 145.751 281.821 145.751 281.626 145.557C281.432 145.362 281.237 145.167 281.237 144.778C281.237 144.584 281.237 144.389 281.237 143.805C281.432 142.638 281.432 141.665 281.432 140.692L281.626 136.412ZM287.074 143.222C287.463 143.222 287.852 143.222 288.242 143.027C288.631 142.833 289.02 142.638 289.409 142.443C289.798 142.249 289.993 141.86 289.993 141.471C290.187 140.887 290.187 140.303 290.187 139.719C290.187 138.747 289.798 137.968 289.409 137.19C289.214 136.996 289.02 136.801 288.631 136.606C288.242 136.412 288.047 136.412 287.658 136.412C286.88 136.412 286.296 136.606 285.712 137.19C285.129 137.579 284.934 138.163 284.739 139.136C284.739 139.33 284.739 139.525 284.739 139.719V141.86C284.934 142.249 285.323 142.638 285.907 143.027C286.101 143.027 286.685 143.222 287.074 143.222ZM299.331 144.195C299.331 144.584 299.137 144.778 298.942 144.973C298.748 145.167 298.359 145.362 298.164 145.362C297.58 145.362 297.191 145.362 296.997 145.167C296.802 144.973 296.608 144.584 296.608 144C296.608 143.416 296.608 142.443 296.413 141.276C296.413 140.303 296.218 139.525 296.218 138.941C296.218 138.747 296.218 138.357 296.218 137.774C296.218 137.385 296.218 136.996 296.218 136.801C296.218 136.412 296.024 136.217 295.829 136.023C295.635 135.828 295.246 135.634 295.051 135.634C294.857 135.634 294.662 135.634 294.662 135.439C294.467 135.439 294.467 135.244 294.467 135.05C294.467 134.661 294.662 134.272 294.857 134.077C295.246 133.882 295.635 133.688 296.024 133.688C296.997 133.688 297.775 134.272 298.164 135.439C298.553 134.855 299.137 134.466 299.721 134.077C300.304 133.688 300.888 133.493 301.472 133.493C302.055 133.493 302.834 133.688 303.417 134.077C304.001 134.466 304.195 134.855 304.195 135.439C304.195 135.828 304.001 136.217 303.806 136.606C303.612 136.996 303.223 137.19 302.834 137.19C302.639 137.19 302.444 137.19 302.444 136.996C302.25 136.996 302.25 136.801 302.055 136.606C301.861 136.412 301.666 136.217 301.666 136.217C301.472 136.217 301.472 136.023 301.277 136.023C301.083 136.023 300.693 136.023 300.499 136.217C300.304 136.412 300.11 136.412 299.915 136.606C299.721 136.996 299.526 137.579 299.331 137.774C299.137 138.163 299.137 138.552 299.137 138.941C299.137 139.33 299.137 139.525 299.137 139.719V141.276C299.137 141.471 299.137 141.86 299.137 142.054C299.137 142.249 299.137 142.638 299.137 142.638C299.331 143.222 299.331 143.805 299.331 144.195ZM318.204 143.416C318.204 143.805 318.009 144.195 317.62 144.389C317.231 144.584 316.842 144.778 316.453 144.778C315.675 144.778 315.285 144.778 314.702 144.584C314.313 144.389 313.924 144.195 313.534 143.611C313.145 144 312.367 144.389 311.589 144.584C310.811 144.778 310.032 144.973 309.254 144.973C308.087 144.973 307.114 144.778 306.53 144.195C305.752 143.611 305.363 142.638 305.363 141.471C305.363 140.887 305.557 140.498 305.752 140.109C305.947 139.719 306.336 139.33 306.919 138.941C307.503 138.552 308.087 138.357 308.67 138.163C309.449 137.968 310.032 137.968 310.811 137.968C311.2 137.968 311.589 137.968 312.172 138.163C312.756 138.357 313.145 138.357 313.34 138.552V138.163C313.34 137.19 313.145 136.606 312.562 136.217C312.172 135.828 311.394 135.634 310.227 135.634C309.838 135.634 309.643 135.634 309.254 135.828C308.865 136.023 308.67 136.217 308.281 136.412C307.698 136.606 307.308 136.801 306.919 136.801C306.725 136.801 306.53 136.606 306.53 136.412C306.336 136.217 306.336 136.023 306.336 135.828C306.336 135.244 306.53 134.855 307.114 134.466C307.698 134.077 308.281 133.688 308.865 133.493C309.643 133.299 310.227 133.104 310.616 133.104C311.005 133.104 311.783 133.104 312.562 133.299C313.34 133.493 313.924 133.688 314.313 134.077C314.896 134.466 315.285 135.05 315.675 135.634C316.064 136.217 316.064 136.996 316.258 137.774C316.258 137.968 316.258 138.357 316.258 138.747C316.258 139.33 316.258 139.719 316.258 140.109C316.258 140.303 316.258 140.498 316.258 140.887C316.258 141.276 316.258 141.665 316.258 141.86C316.258 142.054 316.258 142.249 316.453 142.443C316.647 142.638 316.842 142.638 317.036 142.638H317.815C318.009 142.638 318.204 142.638 318.204 142.833C318.204 143.027 318.204 143.222 318.204 143.416ZM309.449 143.027C310.227 143.027 310.811 142.833 311.394 142.638C311.978 142.443 312.562 142.054 313.34 141.665C313.34 141.276 313.534 140.887 313.534 140.498C312.562 140.109 311.783 139.914 311.005 139.914C310.227 139.914 309.643 140.109 309.059 140.303C308.281 140.692 308.087 141.081 308.087 141.86C308.087 142.249 308.281 142.443 308.476 142.638C308.865 143.027 309.059 143.027 309.449 143.027ZM328.905 135.244C328.516 135.828 328.126 136.606 327.348 137.385C326.765 138.163 325.986 138.941 324.819 139.914C323.846 140.887 323.262 141.471 323.262 141.471L322.29 142.249C322.679 142.249 323.262 142.249 324.43 142.249C324.819 142.249 325.403 142.054 326.181 142.054C327.154 141.86 327.543 141.86 327.932 141.86C328.126 141.86 328.516 141.86 328.905 142.054C329.294 142.054 329.683 142.249 329.877 142.443C330.072 142.443 330.267 142.638 330.267 142.833C330.461 143.027 330.461 143.222 330.461 143.416C330.461 143.611 330.461 144 330.267 144.195C330.072 144.584 329.877 144.584 329.683 144.584C329.488 144.584 329.294 144.584 328.905 144.584C328.321 144.584 328.126 144.389 327.932 144.389C327.348 144.389 326.375 144.389 325.403 144.584C324.041 144.778 322.873 144.778 322.29 144.778C321.511 144.778 320.733 144.778 320.149 144.584C319.566 144.389 319.371 144 319.371 143.416C319.371 143.027 319.566 142.443 319.955 141.86C320.344 141.276 320.928 140.692 321.511 139.914L321.9 139.525C322.095 139.136 322.679 138.747 323.262 138.163C323.846 137.579 324.43 136.996 324.819 136.606C325.208 136.217 325.403 135.828 325.597 135.439L321.317 135.634C320.539 135.634 320.149 135.634 319.76 135.439C319.371 135.244 319.177 135.05 319.177 134.466C319.177 134.272 319.177 133.882 319.371 133.688C319.566 133.493 319.76 133.299 320.149 133.299C320.733 133.104 322.095 133.104 324.235 133.104C326.375 133.104 327.737 133.104 328.321 133.299C328.516 133.299 328.71 133.493 328.905 133.688C329.099 133.882 329.099 134.077 329.099 134.272C329.294 134.466 329.099 134.855 328.905 135.244ZM325.986 127.851C325.986 128.24 325.792 128.629 325.403 129.018C325.013 129.213 324.624 129.407 324.235 129.407C323.846 129.407 323.457 129.407 323.262 129.018C323.068 128.824 322.873 128.434 322.873 128.24C322.873 127.656 323.068 127.267 323.262 127.072C323.652 126.878 324.041 126.683 324.43 126.683C325.403 126.489 325.792 126.878 325.986 127.851ZM342.524 144.389C341.94 144.389 341.357 144.389 341.162 144.195C340.773 144 340.384 143.611 339.995 143.222C339.606 143.611 338.827 144 337.854 144.195C336.882 144.389 336.103 144.584 335.52 144.584C334.352 144.584 333.574 144.389 332.796 143.805C332.018 143.222 331.823 142.249 331.629 141.081C331.629 140.498 331.823 140.109 332.018 139.719C332.212 139.33 332.601 138.941 333.185 138.552C333.769 138.163 334.352 137.968 334.936 137.774C335.714 137.579 336.298 137.385 336.882 137.385C337.854 137.385 338.827 137.385 339.411 137.579C339.411 136.606 339.216 136.023 338.633 135.634C338.049 135.244 337.465 135.05 336.298 135.05C335.714 135.05 335.131 135.439 334.547 136.023C334.352 136.217 333.963 136.412 333.38 136.412C333.185 136.412 332.796 136.217 332.796 136.023C332.796 135.828 332.601 135.439 332.601 135.244C332.601 134.661 332.796 134.272 333.185 133.882C333.574 133.493 334.158 133.104 334.742 132.91C335.325 132.715 335.909 132.52 336.493 132.52C337.076 132.52 337.66 132.52 338.438 132.715C339.216 132.91 339.8 133.104 340.189 133.493C340.773 133.882 341.162 134.466 341.551 135.05C341.94 135.634 341.94 136.412 342.135 137.19C342.135 137.385 342.135 137.774 342.135 138.163C342.135 138.747 342.135 139.136 342.135 139.525C342.135 139.719 342.135 139.914 342.135 140.109C342.135 140.498 342.135 140.692 342.135 140.887C342.135 141.081 342.135 141.276 342.329 141.471C342.524 141.665 342.719 141.86 342.913 142.054C343.108 142.249 343.302 142.249 343.302 142.443C343.302 142.638 343.497 142.833 343.497 143.027C343.497 143.222 343.302 143.416 343.108 143.611C342.913 144.195 342.718 144.195 342.524 144.389ZM336.882 139.33C336.103 139.33 335.52 139.525 334.936 139.719C334.352 139.914 334.158 140.498 334.158 141.276C334.158 141.665 334.352 141.86 334.547 142.054C334.742 142.249 335.131 142.443 335.325 142.443C336.103 142.443 336.687 142.249 337.271 142.054C337.854 141.86 338.438 141.471 339.216 141.081C339.216 140.692 339.411 140.303 339.411 139.914C339.411 139.719 339.411 139.525 339.411 139.525C338.438 139.33 337.66 139.136 336.882 139.33Z" fill="white"/>
<path d="M221.31 165.792C221.505 165.986 221.505 166.376 221.699 166.959C221.894 167.348 221.894 167.932 221.894 168.321C221.894 169.1 221.699 170.072 221.505 171.434C220.337 173.769 218.586 174.937 216.057 174.937C215.084 174.937 214.306 174.742 213.333 174.158C212.36 173.575 211.777 172.991 211.388 172.213C210.804 170.656 210.609 169.683 210.609 169.294C210.609 168.516 210.804 167.738 210.998 166.959C211.388 166.181 211.777 165.403 212.166 164.819C212.555 164.43 212.944 164.041 213.722 163.652C214.501 163.262 215.279 163.068 215.863 163.068C217.224 163.068 218.197 163.262 219.17 163.652C219.948 164.041 220.532 164.819 221.31 165.792ZM218.975 170.267C218.975 170.072 219.17 169.489 218.975 168.516C218.975 167.932 218.781 167.543 218.586 166.959C218.392 166.376 218.003 165.986 217.808 165.597C217.808 165.597 217.614 165.597 217.419 165.403C217.224 165.403 217.03 165.208 216.835 165.208C216.641 165.208 216.252 165.014 215.863 165.208C214.89 165.208 214.111 165.597 213.722 166.57C213.333 167.348 213.139 168.321 213.139 169.294C213.139 169.489 213.139 169.878 213.333 170.267C213.528 170.851 213.528 171.045 213.528 171.24C213.528 171.434 213.722 171.629 213.917 171.824C214.111 172.018 214.501 172.213 214.695 172.407C215.084 172.602 215.473 172.602 215.668 172.602C216.446 172.602 217.224 172.407 217.614 172.018C218.392 171.434 218.781 171.045 218.975 170.267ZM232.011 160.149C231.816 160.149 231.427 160.149 231.233 159.955C231.038 159.76 230.844 159.566 230.649 159.371C230.455 158.982 230.26 158.593 230.065 158.398C229.871 158.204 229.676 158.009 229.287 158.009C229.093 158.009 228.898 158.204 228.704 158.398C228.509 158.593 228.509 159.176 228.314 159.76C228.314 160.928 228.12 161.9 228.12 162.484C228.314 162.484 228.704 162.484 229.287 162.484C229.482 162.484 229.871 162.484 230.26 162.484H231.038C231.427 162.484 231.622 162.484 231.816 162.679C232.011 162.873 232.011 163.068 232.011 163.262C232.011 163.652 231.816 164.041 231.622 164.235C231.427 164.43 231.038 164.624 230.649 164.624C229.287 164.624 228.509 164.819 227.925 164.819C227.925 165.986 228.12 167.543 228.12 169.489C228.12 169.878 228.12 170.267 228.12 170.851L228.314 172.991C228.314 173.575 228.314 173.964 228.12 174.158C227.925 174.353 227.731 174.547 227.342 174.547C226.563 174.547 225.98 174.158 225.785 173.185C225.591 172.407 225.396 171.434 225.396 170.267C225.396 169.1 225.201 167.932 225.201 166.959C225.201 166.376 225.201 165.792 225.201 165.208C225.201 165.208 225.007 165.208 224.812 165.208C224.618 165.208 224.618 165.208 224.423 165.208C223.84 165.208 223.45 165.208 223.256 165.208C223.061 165.208 222.867 165.014 222.672 164.819C222.478 164.624 222.478 164.235 222.478 164.041C222.478 163.846 222.478 163.652 222.672 163.457C222.867 163.262 222.867 163.262 223.061 163.068C223.256 162.873 223.645 162.873 224.229 162.873H225.007C225.007 160.344 225.201 158.593 225.785 157.62C226.369 156.647 227.147 156.258 228.509 156.063C229.093 156.063 229.676 156.063 230.26 156.452C230.844 156.647 231.233 157.036 231.622 157.425C232.011 157.814 232.206 158.398 232.206 158.787C232.206 159.371 232.206 159.76 232.011 159.955C232.4 159.955 232.206 160.149 232.011 160.149ZM235.708 156.647C236.291 156.647 236.875 156.842 237.459 157.036C237.848 157.231 238.237 157.814 238.237 158.204C238.237 158.593 238.042 158.982 237.653 159.176C237.264 159.371 236.875 159.566 236.291 159.566C235.708 159.566 235.319 159.371 235.124 159.176C234.929 158.982 234.735 158.593 234.735 158.398C234.735 157.814 234.735 157.425 234.929 157.036C234.929 156.842 235.124 156.647 235.708 156.647ZM238.042 168.71V169.489C238.042 170.072 238.042 170.656 238.237 171.24C238.237 171.823 238.432 172.407 238.432 172.796C238.432 172.991 238.432 173.185 238.432 173.38C238.432 173.575 238.237 173.769 238.042 173.964C237.848 174.158 237.653 174.353 237.459 174.353C237.07 174.353 236.681 174.353 236.486 174.158C236.097 173.964 235.902 173.964 235.902 173.575C235.708 172.991 235.708 172.407 235.708 172.018C235.708 170.462 235.513 168.905 235.513 166.959V165.986C235.513 165.792 235.513 165.403 235.513 165.014C235.513 164.624 235.513 164.235 235.513 163.652C235.513 163.262 235.708 163.068 235.902 162.873C236.291 162.679 236.486 162.484 236.875 162.484C237.459 162.484 237.848 162.484 238.042 162.873C238.237 163.068 238.432 163.457 238.432 164.041L238.042 168.71ZM251.662 173.964C251.078 173.964 250.494 173.964 250.3 173.769C249.911 173.575 249.522 173.185 249.132 172.796C248.743 173.185 247.965 173.575 246.992 173.769C246.019 173.964 245.241 174.158 244.657 174.158C243.49 174.158 242.712 173.964 241.934 173.38C241.155 172.796 240.961 171.823 240.766 170.656C240.766 170.072 240.961 169.683 241.155 169.294C241.35 168.905 241.739 168.516 242.323 168.127C242.906 167.738 243.49 167.543 244.074 167.348C244.852 167.154 245.436 166.959 246.019 166.959C246.992 166.959 247.965 166.959 248.549 167.154C248.549 166.181 248.354 165.597 247.77 165.208C247.187 164.819 246.603 164.624 245.436 164.624C244.852 164.624 244.268 165.014 243.685 165.597C243.49 165.792 243.101 165.986 242.517 165.986C242.323 165.986 241.934 165.792 241.934 165.597C241.934 165.403 241.934 165.014 241.934 164.819C241.934 164.235 242.128 163.846 242.517 163.457C242.906 163.068 243.49 162.679 244.074 162.484C244.657 162.29 245.241 162.095 245.825 162.095C246.409 162.095 246.992 162.095 247.77 162.29C248.549 162.484 249.132 162.679 249.522 163.068C250.105 163.457 250.494 164.041 250.883 164.624C251.273 165.208 251.273 165.986 251.467 166.765C251.467 166.959 251.467 167.348 251.467 167.738C251.467 168.321 251.467 168.71 251.467 169.1C251.467 169.294 251.467 169.489 251.467 169.683C251.467 170.072 251.467 170.267 251.467 170.462C251.467 170.656 251.467 170.851 251.662 171.045C251.856 171.24 252.051 171.434 252.245 171.629C252.44 171.823 252.634 171.823 252.634 172.018C252.634 172.213 252.829 172.407 252.829 172.602C252.829 172.796 252.634 172.991 252.44 173.185C252.245 173.769 251.856 173.964 251.662 173.964ZM246.214 168.905C245.436 168.905 244.852 169.1 244.268 169.294C243.685 169.489 243.49 170.072 243.49 170.851C243.49 171.24 243.685 171.434 243.879 171.629C244.074 171.823 244.463 172.018 244.657 172.018C245.436 172.018 246.019 171.823 246.603 171.629C247.187 171.434 247.77 171.045 248.549 170.656C248.549 170.267 248.743 169.878 248.743 169.489C248.743 169.294 248.743 169.1 248.743 169.1C247.77 168.905 246.798 168.905 246.214 168.905ZM258.471 172.602C258.471 172.991 258.277 173.185 258.082 173.38C257.888 173.575 257.499 173.769 257.304 173.769C256.72 173.769 256.331 173.769 256.137 173.575C255.942 173.38 255.747 172.991 255.747 172.407C255.747 171.823 255.747 170.851 255.553 169.683C255.553 168.71 255.358 167.932 255.358 167.348C255.358 167.154 255.358 166.765 255.358 166.181C255.358 165.792 255.358 165.403 255.358 165.208C255.358 164.819 255.164 164.624 254.969 164.43C254.775 164.235 254.386 164.041 254.191 164.041C253.996 164.041 253.802 164.041 253.802 163.846C253.607 163.652 253.607 163.652 253.607 163.457C253.607 163.068 253.802 162.679 253.996 162.484C254.386 162.29 254.775 162.095 255.164 162.095C256.137 162.095 256.915 162.679 257.304 163.846C257.693 163.262 258.277 162.873 258.86 162.484C259.444 162.095 260.028 161.9 260.611 161.9C261.195 161.9 261.973 162.095 262.557 162.484C263.141 162.873 263.335 163.262 263.335 163.846C263.335 164.235 263.141 164.624 262.946 165.014C262.752 165.403 262.363 165.597 261.973 165.597C261.779 165.597 261.584 165.597 261.584 165.403C261.39 165.403 261.39 165.208 261.195 165.014C261.001 164.819 260.806 164.624 260.806 164.624C260.611 164.624 260.611 164.43 260.417 164.43C260.222 164.43 259.833 164.43 259.639 164.624C259.444 164.819 259.25 164.819 259.055 165.014C258.86 165.403 258.666 165.986 258.471 166.181C258.277 166.57 258.277 166.959 258.277 167.348C258.277 167.738 258.277 167.932 258.277 168.127V169.683C258.277 169.878 258.277 170.267 258.277 170.462C258.277 170.656 258.277 171.045 258.277 171.045C258.471 171.629 258.471 172.018 258.471 172.602ZM264.697 167.738C264.697 166.959 264.697 166.376 265.086 165.597C265.281 164.819 265.67 164.235 266.059 163.652C266.448 163.068 267.032 162.484 268.005 162.095C268.978 161.706 269.756 161.511 270.34 161.511C271.118 161.511 271.896 161.511 272.48 161.706C273.258 161.9 273.842 162.095 274.036 162.679C274.814 163.652 275.009 164.43 275.204 165.403C275.204 165.986 275.204 166.376 275.009 166.57C274.814 166.959 274.62 167.348 274.231 167.738C273.842 168.127 273.452 168.321 272.869 168.516C272.285 168.71 271.507 168.71 270.923 168.71C270.534 168.71 269.95 168.71 269.367 168.71C268.783 168.71 268.199 168.516 267.616 168.516C267.616 168.905 267.81 169.294 268.005 169.489C268.199 169.878 268.394 170.072 268.588 170.267C268.978 170.656 269.367 170.851 269.756 170.851C270.145 170.851 270.729 171.045 271.312 170.851C271.896 170.851 272.48 170.656 273.063 170.462C273.452 170.267 273.842 170.267 274.231 170.267C274.62 170.267 274.814 170.267 275.009 170.656C275.204 170.851 275.204 171.045 275.398 171.434C275.398 171.629 275.398 171.629 275.204 171.824C275.204 172.018 275.009 172.213 275.009 172.213C274.231 172.991 273.647 173.769 273.063 174.547C272.674 175.326 272.285 175.909 272.285 176.493C272.285 176.688 272.48 176.882 272.48 177.077C272.674 177.271 272.869 177.271 273.258 177.271C273.452 177.271 273.647 177.271 273.842 177.077C274.036 177.077 274.231 176.882 274.231 176.882C274.425 176.882 274.62 176.882 274.62 177.077C274.62 177.271 274.814 177.466 274.814 177.661C274.814 178.05 274.62 178.244 274.231 178.633C273.842 178.828 273.452 179.023 272.869 179.023C272.091 179.023 271.507 178.828 271.118 178.439C270.729 178.05 270.34 177.661 270.34 176.882C270.34 175.326 270.923 174.158 272.091 173.185C271.701 173.185 271.312 173.38 270.923 173.38C270.145 173.38 269.172 173.185 268.394 172.991C267.616 172.796 266.837 172.213 266.448 171.824C266.059 171.24 265.67 170.656 265.281 170.072C264.892 169.294 264.697 168.516 264.697 167.738ZM270.534 163.846C270.145 163.846 269.756 164.041 269.367 164.041C268.978 164.235 268.588 164.43 268.394 164.624C268.005 165.014 267.81 165.208 267.81 165.403C267.616 165.597 267.616 165.986 267.616 166.181C268.005 166.376 268.978 166.376 270.534 166.376C271.312 166.376 271.896 166.181 272.285 165.986C272.674 165.792 272.869 165.403 272.869 165.014C272.869 164.624 272.674 164.235 272.091 164.041C271.507 164.041 271.118 163.846 270.534 163.846ZM278.511 173.185C278.316 173.185 278.122 173.185 278.122 172.991C277.927 172.796 277.733 172.796 277.538 172.407C277.344 172.213 277.344 171.823 277.344 171.434C277.344 171.24 277.344 170.851 277.538 170.656C277.733 170.462 277.733 170.267 277.927 170.267C278.316 170.072 278.706 169.878 279.484 169.878C279.873 169.878 280.262 170.072 280.651 170.267C280.846 170.656 281.04 171.045 281.04 171.434C281.04 172.018 280.846 172.602 280.651 173.38C280.262 174.158 280.068 174.742 279.678 175.131C279.484 175.326 279.095 175.715 278.9 175.909C278.511 176.104 278.316 176.299 278.122 176.299C277.733 176.299 277.344 176.299 277.344 176.104C277.149 175.909 277.149 175.715 277.149 175.326C277.149 175.131 277.344 174.937 277.733 174.547C278.122 174.353 278.316 174.158 278.316 173.964C278.316 173.964 278.511 173.575 278.511 173.185ZM300.691 170.072C301.08 170.267 301.275 170.462 301.275 170.656C301.469 170.851 301.469 171.045 301.469 171.434C301.469 171.629 301.275 172.018 301.08 172.213C300.886 172.407 300.496 172.602 300.302 172.602C300.107 172.602 299.913 172.602 299.524 172.407C299.329 172.213 298.94 172.213 298.94 172.018C298.745 171.823 298.356 171.434 297.773 170.851C297.189 170.267 296.8 169.683 296.411 169.294L295.438 168.127L294.465 167.154L292.714 168.71L292.909 171.629C292.909 172.213 292.714 172.407 292.519 172.602C292.325 172.796 292.13 172.991 291.741 172.991C291.352 172.991 291.157 172.991 290.768 172.796C290.574 172.602 290.379 172.602 290.185 172.407C289.99 171.629 289.796 170.656 289.796 169.489C289.796 167.348 289.796 165.597 289.796 164.235C289.796 162.679 289.796 160.928 289.796 159.566C289.796 159.176 289.796 158.398 289.601 157.62C289.601 157.425 289.601 157.231 289.406 156.842C289.406 156.452 289.406 156.063 289.406 155.869C289.406 155.48 289.601 155.09 289.796 154.896C289.99 154.701 290.379 154.507 290.963 154.507C291.352 154.507 291.547 154.507 291.936 154.896C292.13 155.09 292.325 155.48 292.325 155.869C292.325 156.452 292.325 157.231 292.519 158.204C292.519 159.176 292.714 159.955 292.714 160.344C292.714 160.928 292.714 161.706 292.714 162.679C292.714 163.262 292.714 163.652 292.714 163.846C292.714 164.624 292.714 165.403 292.714 165.792C293.298 165.014 294.27 164.235 295.243 163.457C296.411 162.484 297.189 161.9 297.773 161.511C298.356 161.122 298.94 160.928 298.94 160.928C299.329 160.928 299.718 160.928 299.913 161.122C300.107 161.317 300.302 161.511 300.302 161.9C300.302 162.29 300.302 162.484 300.107 162.679C300.107 162.873 299.913 163.068 299.718 163.262L296.411 165.403C297.189 166.376 297.967 167.348 298.94 168.321C299.718 169.294 300.302 169.878 300.691 170.072ZM303.22 163.068C303.026 163.068 302.831 162.873 302.637 162.679C302.442 162.484 302.442 162.29 302.442 162.095C302.442 161.9 302.442 161.9 302.442 161.706C302.442 161.511 302.637 161.511 302.637 161.317C302.831 161.122 303.22 160.928 303.609 160.733C303.998 160.538 304.388 160.344 304.582 160.149C304.777 159.955 304.777 159.371 304.777 158.787C304.777 158.593 304.777 158.204 304.777 158.009C304.777 157.814 304.777 157.62 304.777 157.62C304.777 157.231 304.971 156.842 305.166 156.647C305.36 156.452 305.75 156.258 306.139 156.258C306.528 156.258 306.917 156.452 307.111 156.647C307.306 156.842 307.306 157.231 307.501 158.009C307.501 158.593 307.501 159.176 307.501 159.566C307.501 159.955 307.306 160.344 307.111 160.733C307.306 160.733 307.695 160.733 308.279 160.733C309.057 160.733 309.641 160.733 310.03 160.538C310.419 160.538 310.614 160.538 310.808 160.733C311.003 160.928 311.197 161.122 311.197 161.317C311.197 161.706 311.197 161.9 311.003 162.095C310.808 162.29 310.614 162.484 310.224 162.484C309.446 162.679 308.473 162.873 307.111 162.873C307.111 163.652 307.111 164.43 307.111 165.208C307.111 166.57 307.306 167.738 307.501 168.321C307.695 168.905 307.89 169.294 308.084 169.489C308.279 169.683 308.668 169.878 309.252 169.878C309.446 169.878 309.835 169.878 309.835 169.683C310.03 169.683 310.03 169.489 310.03 169.489C310.224 169.294 310.419 169.294 310.614 169.294C310.808 169.294 311.003 169.294 311.197 169.489C311.392 169.683 311.392 169.878 311.392 170.072C311.392 170.656 311.197 171.045 310.614 171.434C310.03 171.823 309.446 172.018 308.473 172.018C307.501 172.018 306.722 171.823 305.944 171.24C305.36 170.656 304.777 169.878 304.777 168.905C304.582 168.127 304.388 166.765 304.388 165.403C304.388 164.819 304.388 163.846 304.388 162.679L303.22 163.068ZM323.844 163.262C324.038 163.457 324.038 163.846 324.233 164.43C324.427 164.819 324.427 165.403 324.427 165.792C324.427 166.57 324.233 167.543 324.038 168.905C322.871 171.24 321.12 172.407 318.591 172.407C317.618 172.407 316.84 172.213 315.867 171.629C314.894 171.045 314.31 170.462 313.921 169.683C313.337 168.127 313.143 167.154 313.143 166.765C313.143 165.986 313.337 165.208 313.532 164.43C313.921 163.652 314.31 162.873 314.699 162.29C315.088 161.9 315.478 161.511 316.256 161.122C317.034 160.733 317.812 160.538 318.396 160.538C319.758 160.538 320.731 160.733 321.704 161.122C322.482 161.317 323.26 162.095 323.844 163.262ZM321.704 167.543C321.704 167.348 321.898 166.765 321.704 165.792C321.704 165.208 321.509 164.819 321.314 164.235C321.12 163.652 320.731 163.262 320.536 162.873C320.536 162.873 320.342 162.873 320.147 162.679C319.952 162.679 319.758 162.484 319.563 162.484C319.369 162.484 318.98 162.29 318.591 162.484C317.618 162.484 316.84 162.873 316.45 163.846C316.061 164.624 315.867 165.597 315.867 166.57C315.867 166.765 315.867 167.154 316.061 167.543C316.256 168.127 316.256 168.321 316.256 168.516C316.256 168.71 316.45 168.905 316.645 169.1C316.84 169.294 317.229 169.489 317.423 169.683C317.812 169.878 318.201 169.878 318.396 169.878C319.174 169.878 319.952 169.683 320.342 169.294C321.12 168.905 321.314 168.321 321.704 167.543ZM319.758 153.145C320.147 153.145 320.536 153.145 320.731 153.339C320.925 153.534 321.12 153.728 321.12 153.923C321.12 154.507 320.925 154.896 320.536 155.285C320.147 155.674 319.563 156.063 319.174 156.452C318.98 156.647 318.591 156.842 318.201 156.842C317.812 157.036 317.423 157.036 317.229 157.036C316.84 157.036 316.645 156.842 316.645 156.452C316.645 156.258 316.645 156.258 316.84 156.063C316.84 156.063 317.034 155.869 317.229 155.674C317.229 155.674 317.423 155.48 317.618 155.285C317.812 155.09 318.007 154.896 318.007 154.701C318.201 154.507 318.201 154.312 318.396 153.923C318.591 153.534 318.785 153.145 319.174 152.95C318.98 153.339 319.369 153.145 319.758 153.145ZM331.042 170.656C331.042 171.045 330.848 171.24 330.653 171.434C330.459 171.629 330.07 171.824 329.875 171.824C329.291 171.824 328.902 171.823 328.708 171.629C328.513 171.434 328.319 171.045 328.319 170.462C328.319 169.878 328.319 168.905 328.124 167.738C328.124 166.765 327.929 165.986 327.929 165.403C327.929 165.208 327.929 164.819 327.929 164.235C327.929 163.846 327.929 163.457 327.929 163.262C327.929 162.873 327.735 162.679 327.54 162.484C327.346 162.29 326.957 162.095 326.762 162.095C326.568 162.095 326.373 162.095 326.373 161.9C326.178 161.706 326.178 161.511 326.178 161.511C326.178 161.122 326.373 160.733 326.568 160.538C326.957 160.344 327.346 160.149 327.735 160.149C328.708 160.149 329.486 160.733 329.875 161.9C330.264 161.317 330.848 160.928 331.432 160.538C332.015 160.149 332.599 159.955 333.183 159.955C333.766 159.955 334.545 160.149 335.128 160.538C335.712 160.928 335.906 161.317 335.906 161.9C335.906 162.29 335.712 162.679 335.517 163.068C335.323 163.457 334.934 163.652 334.545 163.652C334.35 163.652 334.155 163.652 334.155 163.457C333.961 163.457 333.961 163.262 333.766 163.068C333.572 162.873 333.377 162.679 333.377 162.679C333.183 162.679 333.183 162.484 332.988 162.484C332.793 162.484 332.404 162.484 332.21 162.679C332.015 162.873 331.821 162.873 331.626 163.068C331.432 163.457 331.237 164.041 331.042 164.235C330.848 164.624 330.848 165.014 330.848 165.403C330.848 165.792 330.848 165.986 330.848 166.181V167.738C330.848 167.932 330.848 168.321 330.848 168.516C330.848 168.71 330.848 169.1 330.848 169.1C331.042 169.683 331.042 170.267 331.042 170.656ZM337.268 165.792C337.268 165.014 337.268 164.43 337.657 163.652C337.852 162.873 338.241 162.29 338.63 161.706C339.019 161.122 339.603 160.538 340.576 160.149C341.549 159.76 342.327 159.566 342.911 159.566C343.689 159.566 344.467 159.566 345.051 159.76C345.829 159.955 346.413 160.149 346.607 160.733C347.386 161.706 347.58 162.484 347.775 163.457C347.775 164.041 347.775 164.43 347.58 164.624C347.386 165.014 347.191 165.403 346.802 165.792C346.413 166.181 346.024 166.376 345.44 166.57C344.856 166.765 344.078 166.765 343.494 166.765C343.105 166.765 342.522 166.765 341.938 166.765C341.354 166.765 340.77 166.57 340.187 166.57C340.187 166.959 340.381 167.348 340.576 167.543C340.77 167.932 340.965 168.127 341.16 168.321C341.549 168.71 341.938 168.905 342.327 168.905C342.716 168.905 343.3 169.1 343.883 168.905C344.467 168.905 345.051 168.71 345.634 168.516C346.024 168.321 346.413 168.321 346.802 168.321C347.191 168.321 347.386 168.321 347.58 168.71C347.775 168.905 347.775 169.1 347.969 169.489C347.969 169.878 347.775 170.267 347.191 170.656C346.607 171.045 346.024 171.24 345.44 171.434C344.856 171.629 344.273 171.629 343.883 171.629C343.105 171.629 342.132 171.434 341.354 171.24C340.576 171.045 339.798 170.462 339.409 170.072C339.019 169.489 338.63 168.905 338.241 168.321C337.463 167.348 337.268 166.57 337.268 165.792ZM343.105 161.9C342.716 161.9 342.327 162.095 341.938 162.095C341.549 162.29 341.16 162.484 340.965 162.679C340.576 163.068 340.381 163.262 340.381 163.457C340.187 163.652 340.187 164.041 340.187 164.235C340.576 164.43 341.549 164.43 343.105 164.43C343.883 164.43 344.467 164.235 344.856 164.041C345.245 163.846 345.44 163.457 345.44 163.068C345.44 162.679 345.245 162.29 344.662 162.095C344.078 162.095 343.494 161.9 343.105 161.9ZM352.055 159.371C352.444 159.371 352.833 159.566 353.028 159.76C353.222 159.955 353.417 160.344 353.417 160.538C353.417 160.733 353.417 160.928 353.417 161.317C353.417 161.9 353.417 162.484 353.417 163.068C353.417 163.846 353.417 164.624 353.611 165.403C353.611 166.181 353.611 166.765 353.806 167.154C354.001 169.489 354.001 171.24 354.001 172.602C354.001 173.964 353.806 174.937 353.028 175.715C352.444 176.493 351.471 176.882 350.304 176.882C349.915 176.882 349.526 176.688 349.137 176.493C348.747 176.299 348.553 175.909 348.553 175.52C348.553 175.326 348.553 174.937 348.747 174.937C348.942 174.742 349.137 174.742 349.331 174.742C349.526 174.742 349.72 174.742 349.915 174.742C350.109 174.742 350.304 174.742 350.304 174.742C350.693 174.742 350.888 174.742 351.082 174.547C351.277 174.547 351.471 174.158 351.471 173.769C351.666 173.38 351.666 172.796 351.666 172.018C351.471 167.932 351.471 164.819 351.082 162.679C350.888 161.511 350.888 160.733 350.888 160.149C350.888 159.955 351.082 159.566 351.277 159.371C351.082 159.566 351.471 159.371 352.055 159.371ZM351.082 153.728C351.666 153.728 352.25 153.923 352.639 154.118C353.028 154.312 353.222 154.701 353.417 155.285C353.417 155.674 353.222 156.063 352.833 156.258C352.444 156.452 352.055 156.647 351.471 156.647C350.888 156.647 350.499 156.452 350.304 156.258C350.109 156.063 349.915 155.674 349.915 155.48C349.915 154.896 349.915 154.507 350.109 154.118C350.304 153.923 350.693 153.728 351.082 153.728Z" fill="white"/>
<path d="M197.376 193.421C197.376 194.199 196.987 194.588 196.208 194.588C196.014 194.588 195.625 194.588 195.43 194.394C195.236 194.199 195.041 194.005 194.846 193.81C194.263 193.226 193.874 193.032 193.485 193.032C192.901 193.032 192.512 193.226 191.928 193.615C191.344 194.005 190.955 194.394 190.761 194.977C190.372 195.561 190.372 196.145 190.372 196.923C190.372 197.701 190.566 198.285 190.955 198.869C191.344 199.452 191.733 199.842 192.317 200.231C192.512 200.425 192.901 200.425 193.095 200.425C193.485 200.425 193.679 200.425 193.874 200.425C194.457 200.425 195.041 200.231 195.819 199.842C196.014 199.647 196.403 199.647 196.597 199.452C196.792 199.452 196.987 199.258 197.181 199.258C197.376 199.258 197.57 199.258 197.959 199.452C198.154 199.647 198.349 199.842 198.349 200.036C198.349 200.62 198.154 201.009 197.57 201.398C196.987 201.787 196.403 202.176 195.819 202.371C195.041 202.566 194.457 202.76 193.679 202.76C192.512 202.76 191.539 202.566 190.761 202.176C189.788 201.787 189.01 201.009 188.426 200.231C187.842 199.452 187.648 198.48 187.453 197.312C187.453 196.145 187.648 195.172 188.231 194.199C188.815 193.226 189.399 192.448 190.372 191.864C191.15 191.281 192.123 191.086 193.29 190.891C193.874 190.891 194.457 190.891 195.236 191.086C195.819 191.281 196.403 191.67 196.792 192.059C197.181 192.253 197.376 192.837 197.376 193.421ZM200.1 196.729C200.1 195.95 200.1 195.367 200.489 194.588C200.683 193.81 201.072 193.226 201.461 192.643C201.851 192.059 202.434 191.475 203.407 191.086C204.38 190.697 205.158 190.502 205.742 190.502C206.52 190.502 207.298 190.502 207.882 190.697C208.66 190.891 209.244 191.086 209.438 191.67C210.217 192.643 210.411 193.421 210.606 194.394C210.606 194.977 210.606 195.367 210.411 195.561C210.217 195.95 210.022 196.339 209.633 196.729C209.244 197.118 208.855 197.312 208.271 197.507C207.687 197.701 206.909 197.701 206.326 197.701C205.936 197.701 205.353 197.701 204.769 197.701C204.185 197.701 203.602 197.507 203.018 197.507C203.018 197.896 203.213 198.285 203.407 198.48C203.602 198.869 203.796 199.063 203.991 199.258C204.38 199.647 204.769 199.842 205.158 199.842C205.547 199.842 206.131 200.036 206.715 199.842C207.298 199.842 207.882 199.647 208.466 199.452C208.855 199.258 209.244 199.258 209.633 199.258C210.022 199.258 210.217 199.258 210.411 199.647C210.606 199.842 210.606 200.036 210.8 200.425C210.8 200.814 210.606 201.204 210.022 201.593C209.438 201.982 208.855 202.176 208.271 202.371C207.687 202.566 207.104 202.566 206.715 202.566C205.936 202.566 204.964 202.371 204.185 202.176C203.407 201.982 202.629 201.398 202.24 201.009C201.851 200.425 201.461 199.842 201.072 199.258C200.294 198.285 200.1 197.507 200.1 196.729ZM205.936 192.837C205.547 192.837 205.158 193.032 204.769 193.032C204.38 193.226 203.991 193.421 203.796 193.615C203.407 194.005 203.213 194.199 203.213 194.394C203.018 194.783 203.018 195.172 203.018 195.367C203.407 195.561 204.38 195.561 205.936 195.561C206.715 195.561 207.298 195.367 207.687 195.172C208.077 194.977 208.271 194.588 208.271 194.199C208.271 193.81 208.077 193.421 207.493 193.226C206.909 192.837 206.52 192.837 205.936 192.837ZM221.501 193.615C221.307 193.615 220.918 193.615 220.723 193.421C220.528 193.226 220.334 193.032 220.139 192.837C219.945 192.643 219.75 192.448 219.556 192.448C219.361 192.448 218.972 192.448 218.777 192.448C218.194 192.448 217.805 192.643 217.221 193.032C216.637 193.421 216.248 193.81 216.054 194.394C215.664 194.977 215.664 195.561 215.664 196.339C215.664 197.118 215.859 197.701 216.248 198.285C216.637 198.869 217.026 199.258 217.805 199.647C217.999 199.842 218.388 199.842 218.583 199.842C218.972 199.842 219.167 199.842 219.361 199.842C219.945 199.842 220.723 199.647 221.501 199.063C221.501 199.063 221.696 198.869 221.89 198.869C222.085 198.674 222.279 198.674 222.279 198.674C222.474 198.674 222.669 198.674 223.058 198.869C223.252 199.063 223.447 199.258 223.447 199.647C223.447 200.231 223.252 200.62 222.863 201.009C222.474 201.398 221.89 201.787 221.112 201.982C220.334 202.176 219.75 202.371 219.167 202.371C217.999 202.371 217.026 202.176 216.248 201.787C215.275 201.398 214.497 200.62 213.913 199.842C213.33 199.063 213.135 198.09 212.941 196.923C212.941 195.756 213.135 194.588 213.719 193.615C214.302 192.643 214.886 191.864 215.859 191.281C216.832 190.697 217.805 190.308 218.777 190.308C219.75 190.308 220.723 190.502 221.696 190.891C222.474 191.281 223.058 191.864 223.058 192.643C222.669 193.226 222.279 193.615 221.501 193.615ZM228.116 184.471C228.116 184.86 228.116 185.443 228.116 186.027C228.116 186.611 228.116 187.195 228.116 187.389C228.116 188.362 228.116 189.335 228.116 190.113C228.116 191.281 228.116 192.253 228.311 193.032C228.7 192.059 229.284 191.281 230.062 190.697C230.84 190.113 231.618 189.919 232.591 189.919C233.175 189.919 233.953 190.113 234.537 190.697C235.12 191.281 235.51 192.059 235.704 192.837C235.704 192.837 235.704 193.032 235.704 193.226C235.704 193.421 235.704 193.81 235.704 194.199C235.704 194.588 235.704 194.977 235.704 195.367C235.704 196.339 235.704 197.118 235.899 197.701C235.899 198.285 236.093 198.674 236.482 199.063C236.677 199.452 237.066 199.647 237.65 199.842C237.844 199.842 238.039 200.036 238.039 200.036C238.039 200.231 238.233 200.425 238.233 200.62C238.233 201.009 238.039 201.204 237.844 201.398C237.455 201.593 237.261 201.593 236.872 201.593C236.288 201.593 235.704 201.398 235.12 201.204C234.537 200.814 234.148 200.425 233.953 199.842C233.759 199.452 233.564 199.063 233.564 198.48C233.564 197.896 233.369 197.312 233.369 196.534V194.199C233.369 192.837 232.98 192.253 232.008 192.253C231.424 192.253 230.84 192.837 230.256 193.81C229.673 194.783 229.284 195.95 228.895 197.312C228.505 198.674 228.505 199.647 228.505 200.62C228.505 201.009 228.311 201.398 228.116 201.593C227.922 201.787 227.533 201.982 227.338 201.982C226.949 201.982 226.56 201.787 226.171 201.593C225.782 201.398 225.587 201.009 225.587 200.814C225.587 199.452 225.587 197.118 225.587 194.005C225.587 193.421 225.392 191.281 225.198 187.584L225.003 185.054C225.003 184.665 225.198 184.276 225.587 184.081C225.976 183.692 226.365 183.692 226.754 183.692C227.144 183.692 227.533 183.692 227.727 183.887C228.116 183.692 228.116 184.081 228.116 184.471ZM249.907 201.204C249.323 201.204 248.74 201.204 248.545 201.009C248.156 200.814 247.767 200.425 247.378 200.036C246.989 200.425 246.21 200.814 245.238 201.009C244.265 201.204 243.487 201.398 242.903 201.398C241.736 201.398 240.957 201.204 240.179 200.62C239.401 200.036 239.206 199.063 239.012 197.896C239.012 197.312 239.206 196.923 239.401 196.534C239.595 196.145 239.985 195.756 240.568 195.367C241.152 194.977 241.736 194.783 242.319 194.588C243.097 194.394 243.681 194.199 244.265 194.199C245.238 194.199 246.21 194.199 246.794 194.394C246.794 193.421 246.6 192.837 246.016 192.448C245.432 192.059 244.849 191.864 243.681 191.864C243.097 191.864 242.514 192.253 241.93 192.837C241.736 193.032 241.346 193.226 240.763 193.226C240.568 193.226 240.179 193.032 240.179 192.837C240.179 192.643 239.985 192.253 239.985 192.059C239.985 191.475 240.179 191.086 240.568 190.697C240.957 190.308 241.541 189.919 242.125 189.724C242.708 189.529 243.292 189.335 243.876 189.335C244.459 189.335 245.043 189.335 245.821 189.529C246.6 189.724 247.183 189.919 247.572 190.308C248.156 190.697 248.545 191.281 248.934 191.864C249.323 192.448 249.323 193.226 249.518 194.005C249.518 194.199 249.518 194.588 249.518 194.977C249.518 195.561 249.518 195.95 249.518 196.339C249.518 196.534 249.518 196.729 249.518 196.923C249.518 197.312 249.518 197.507 249.518 197.701C249.518 197.896 249.518 198.09 249.713 198.285C249.907 198.48 250.102 198.674 250.296 198.869C250.491 199.063 250.685 199.063 250.685 199.258C250.685 199.452 250.88 199.647 250.88 199.842C250.88 200.036 250.685 200.231 250.491 200.425C250.296 201.009 250.102 201.204 249.907 201.204ZM244.265 196.145C243.487 196.145 242.903 196.339 242.319 196.534C241.736 196.729 241.541 197.312 241.541 198.091C241.541 198.48 241.736 198.674 241.93 198.869C242.125 199.063 242.514 199.258 242.708 199.258C243.487 199.258 244.07 199.063 244.654 198.869C245.238 198.674 245.821 198.285 246.6 197.896C246.6 197.507 246.794 197.118 246.794 196.729C246.794 196.534 246.794 196.339 246.794 196.339C245.821 196.145 245.043 196.145 244.265 196.145ZM270.92 198.48C270.92 198.48 271.114 198.48 271.309 198.674C271.503 198.674 271.698 198.869 271.698 198.869L271.892 199.063C271.892 199.452 271.698 199.842 271.503 200.231C271.114 200.425 270.725 200.62 270.336 200.62C269.558 200.62 268.974 200.425 268.585 200.036C268.196 199.647 267.807 199.063 267.612 198.285C267.612 197.896 267.418 197.507 267.418 196.923C267.418 196.534 267.418 196.145 267.418 195.367C267.418 194.588 267.418 194.005 267.418 193.615C267.418 193.032 267.223 192.448 266.834 191.864C266.445 191.475 266.056 191.086 265.277 191.086C264.888 191.086 264.499 191.281 264.11 191.475C263.721 191.67 263.332 192.059 263.332 192.253C263.137 192.837 262.943 193.421 262.748 194.005C262.554 195.172 262.554 196.145 262.554 197.507C262.554 198.09 262.554 198.48 262.554 198.869C262.554 198.869 262.554 199.063 262.554 199.258C262.554 199.452 262.554 199.647 262.554 199.842C262.554 200.036 262.359 200.231 262.359 200.231C262.359 200.231 262.164 200.425 261.97 200.425C261.775 200.425 261.581 200.62 261.386 200.62C261.192 200.62 260.802 200.62 260.413 200.231C260.024 200.036 259.83 199.842 259.83 199.452V199.063C259.83 198.869 259.83 198.674 259.83 198.48C260.024 197.118 260.024 196.145 260.024 195.172C260.024 194.783 260.024 194.394 260.024 194.199V192.837C260.024 192.448 259.83 192.059 259.635 191.67C259.441 191.281 259.051 191.086 258.857 191.086C258.857 191.086 258.662 191.086 258.468 191.281C258.273 191.281 258.079 191.475 258.079 191.475C257.884 191.475 257.69 191.475 257.495 191.281C257.3 191.086 257.106 190.891 257.106 190.697C257.106 190.308 257.3 189.919 257.495 189.724C257.69 189.529 258.079 189.335 258.273 189.14C258.468 188.946 258.857 188.946 259.246 188.946C259.441 188.946 259.83 188.946 260.024 188.946C260.219 188.946 260.413 189.14 260.802 189.335C260.997 189.335 261.192 189.529 261.386 189.919C261.581 190.308 261.775 190.697 261.97 191.281C262.359 190.308 262.943 189.724 263.721 189.335C264.499 188.946 265.277 188.751 266.445 188.751C266.834 188.751 267.223 188.946 267.807 189.14C268.39 189.335 268.779 189.724 268.974 190.113C269.363 190.502 269.558 191.086 269.752 191.67C269.947 192.253 270.141 192.837 270.141 193.226C270.141 193.421 270.141 194.005 270.141 194.588C270.141 195.172 270.141 195.561 270.141 196.145C270.141 197.312 270.336 198.09 270.92 198.48ZM274.422 182.914C275.005 182.914 275.589 183.109 276.173 183.303C276.562 183.498 276.951 184.081 276.951 184.471C276.951 184.86 276.756 185.249 276.367 185.443C275.978 185.638 275.589 185.833 275.005 185.833C274.422 185.833 274.033 185.638 273.838 185.443C273.644 185.249 273.449 184.86 273.449 184.665C273.449 184.081 273.449 183.692 273.644 183.303C273.838 183.109 274.033 182.914 274.422 182.914ZM274.227 194.199V193.421C274.227 192.448 274.227 191.67 274.033 190.891C273.838 190.113 273.838 189.724 273.838 189.529C273.838 189.335 274.033 189.14 274.227 188.946C274.422 188.751 274.616 188.751 274.811 188.751C275.2 188.751 275.589 188.751 275.784 188.946C275.978 189.14 276.367 189.14 276.367 189.335C276.562 189.919 276.562 190.502 276.562 190.891C276.562 191.67 276.562 193.032 276.756 194.783V195.756V196.729C276.756 196.923 276.756 197.312 276.756 197.701C276.756 198.09 276.756 198.48 276.756 199.063C276.756 199.452 276.562 199.647 276.367 200.036C275.978 200.231 275.784 200.425 275.395 200.425C274.811 200.425 274.422 200.425 274.227 200.036C274.033 199.842 273.838 199.452 273.838 198.869L274.227 194.199ZM279.869 194.588C279.869 193.81 279.869 193.226 280.259 192.448C280.453 191.67 280.842 191.086 281.231 190.502C281.62 189.919 282.204 189.335 283.177 188.946C284.15 188.557 284.928 188.362 285.512 188.362C286.29 188.362 287.068 188.362 287.652 188.557C288.43 188.751 289.014 188.946 289.208 189.529C289.987 190.502 290.181 191.281 290.376 192.253C290.376 192.837 290.376 193.226 290.181 193.421C289.987 193.81 289.792 194.199 289.403 194.588C289.014 194.977 288.625 195.172 288.041 195.367C287.457 195.561 286.679 195.561 286.095 195.561C285.706 195.561 285.123 195.561 284.539 195.561C283.955 195.561 283.372 195.367 282.788 195.367C282.788 195.756 282.982 196.145 283.177 196.339C283.372 196.729 283.566 196.923 283.761 197.118C284.15 197.507 284.539 197.701 284.928 197.701C285.317 197.701 285.901 197.896 286.485 197.701C287.068 197.701 287.652 197.507 288.236 197.312C288.625 197.118 289.014 197.118 289.403 197.118C289.792 197.118 289.987 197.118 290.181 197.507C290.376 197.701 290.376 197.896 290.57 198.285C290.57 198.674 290.376 199.063 289.792 199.452C289.208 199.842 288.625 200.036 288.041 200.231C286.874 200.231 286.29 200.231 285.901 200.231C285.123 200.231 284.15 200.036 283.372 199.842C282.593 199.647 281.815 199.063 281.426 198.674C281.037 198.09 280.648 197.507 280.259 196.923C280.064 196.145 279.869 195.367 279.869 194.588ZM285.706 190.697C285.317 190.697 284.928 190.891 284.539 190.891C284.15 191.086 283.761 191.281 283.566 191.475C283.177 191.864 282.982 192.059 282.982 192.253C282.788 192.643 282.788 193.032 282.788 193.421C283.177 193.615 284.15 193.615 285.706 193.615C286.485 193.615 287.068 193.421 287.457 193.226C287.846 193.032 288.041 192.643 288.041 192.253C288.041 191.864 287.846 191.475 287.263 191.281C286.679 190.891 286.29 190.697 285.706 190.697ZM300.687 187.973C301.077 187.973 301.466 188.167 301.66 188.362C301.855 188.557 302.049 188.946 302.049 189.14C302.049 189.335 302.049 189.529 302.049 189.919C302.049 190.502 302.049 191.086 302.049 191.67C302.049 192.448 302.049 193.226 302.244 194.005C302.244 194.783 302.244 195.367 302.438 195.756C302.633 198.09 302.633 199.842 302.633 201.204C302.633 202.566 302.438 203.538 301.66 204.317C301.077 205.095 300.104 205.484 298.936 205.484C298.547 205.484 298.158 205.29 297.769 205.095C297.38 204.9 297.185 204.511 297.185 204.122C297.185 203.928 297.185 203.538 297.38 203.538C297.574 203.344 297.769 203.344 297.964 203.344C298.158 203.344 298.353 203.344 298.547 203.344C298.742 203.344 298.936 203.344 298.936 203.344C299.326 203.344 299.52 203.344 299.715 203.149C299.909 203.149 300.104 202.76 300.104 202.371C300.298 201.982 300.298 201.398 300.298 200.62C300.104 196.534 300.104 193.421 299.715 191.281C299.52 190.113 299.52 189.335 299.52 188.751C299.52 188.557 299.715 188.167 299.909 187.973C299.715 188.167 300.104 187.973 300.687 187.973ZM299.52 182.33C300.104 182.33 300.687 182.525 301.077 182.719C301.466 182.914 301.66 183.303 301.855 183.887C301.855 184.276 301.66 184.665 301.271 184.86C300.882 185.054 300.493 185.249 299.909 185.249C299.326 185.249 298.936 185.054 298.742 184.86C298.547 184.665 298.353 184.276 298.353 184.081C298.353 183.498 298.353 183.109 298.547 182.719C298.936 182.525 299.131 182.33 299.52 182.33ZM304.773 193.421C304.773 192.253 304.968 191.475 305.357 190.697C305.746 189.919 306.524 189.14 307.302 188.557C307.497 188.362 307.886 188.167 308.664 187.973C309.443 187.778 309.832 187.778 310.221 187.778C310.805 187.778 311.388 187.778 311.972 188.167C312.556 188.362 313.139 188.557 313.528 188.946C314.307 189.335 314.696 189.919 314.89 190.697C315.085 191.281 315.279 192.059 315.279 193.032C315.279 193.421 315.085 193.81 314.696 194.199C314.501 194.199 313.918 194.394 313.528 194.394H312.556C311.972 194.394 311.194 194.394 310.221 194.588H309.637C309.248 194.588 308.859 194.588 308.664 194.588C308.47 194.588 307.886 194.588 307.497 194.588C307.497 195.367 307.886 196.145 308.47 196.534C309.054 196.923 309.637 197.312 310.221 197.118C311.388 197.118 312.167 196.923 312.556 196.339C312.945 196.145 313.139 195.95 313.334 195.756C313.528 195.756 313.723 195.561 313.918 195.561C314.112 195.561 314.501 195.756 314.696 195.95C314.89 196.145 315.085 196.534 315.085 196.729C315.085 197.118 314.89 197.312 314.501 197.701C314.112 198.09 313.723 198.285 312.945 198.674C312.556 198.869 312.167 199.063 311.583 199.063C310.999 199.063 310.415 199.258 310.026 199.258C309.443 199.258 308.664 199.063 307.886 198.674C307.108 198.285 306.524 197.896 306.135 197.507C305.746 197.118 305.357 196.339 305.162 195.561C304.968 195.172 304.968 194.394 304.773 193.421ZM310.221 192.643C311.583 192.643 312.361 192.448 313.139 192.448C313.139 191.864 312.945 191.475 312.556 191.086C312.167 190.697 311.777 190.502 311.388 190.308C311.194 190.308 310.999 190.113 310.999 190.113C310.805 190.113 310.805 190.113 310.61 190.113C309.832 190.113 309.054 190.308 308.47 190.891C307.886 191.281 307.497 191.864 307.497 192.643C308.275 192.643 309.248 192.643 310.221 192.643ZM325.591 192.837C326.369 193.226 326.759 193.615 327.148 194.005C327.537 194.394 327.537 194.977 327.537 195.561C327.537 196.145 327.342 196.729 326.953 197.312C326.564 197.896 326.175 198.285 325.591 198.48C325.202 198.674 324.618 198.869 324.035 199.063C323.451 199.258 322.867 199.258 322.478 199.258C321.895 199.258 321.116 199.258 320.338 198.869C319.56 198.674 318.976 198.285 318.392 197.896C317.809 197.507 317.614 196.923 317.614 196.339C317.614 195.95 317.809 195.756 318.003 195.561C318.198 195.367 318.587 195.172 318.976 195.172C319.365 195.172 319.56 195.367 319.949 195.756C320.338 196.145 320.727 196.339 321.116 196.534C321.505 196.729 322.089 196.729 322.478 196.729C324.229 196.729 325.008 196.339 325.008 195.561C325.008 195.367 325.008 195.172 324.813 195.172C324.618 194.977 324.618 194.977 324.424 194.783C324.229 194.588 324.035 194.588 323.646 194.394C323.256 194.394 323.062 194.199 322.673 194.199C322.284 194.199 322.089 194.005 322.089 194.005C321.895 194.005 321.7 194.005 321.116 193.81C320.727 193.81 320.144 193.615 319.754 193.421C318.976 193.032 318.392 192.643 318.003 192.253C317.614 191.864 317.42 191.281 317.225 190.502C317.225 190.113 317.225 189.724 317.42 189.14C317.614 188.751 317.809 188.362 318.198 188.167C318.782 187.778 319.365 187.584 319.949 187.389C320.533 187.195 321.116 187 321.7 187C322.089 187 322.673 187 323.256 187C323.84 187 324.229 187.195 324.424 187.389C324.813 187.584 325.202 187.973 325.397 188.167C325.591 188.362 325.786 188.751 325.786 189.14C325.786 189.335 325.786 189.529 325.591 189.724C325.591 189.919 325.397 190.113 325.202 190.113C325.008 190.308 324.618 190.308 324.424 190.308C324.229 190.308 324.035 190.308 324.035 190.308C323.84 190.308 323.84 190.113 323.84 190.113L323.646 189.919C323.451 189.724 323.062 189.529 322.867 189.335C322.478 189.14 322.089 189.14 321.505 189.14C321.116 189.14 320.727 189.14 320.533 189.335C320.144 189.529 319.949 189.529 319.754 189.724C319.56 189.919 319.56 189.919 319.365 190.113C319.365 190.113 319.365 190.308 319.365 190.502C319.365 191.086 319.949 191.281 320.922 191.67C321.895 191.864 322.478 192.059 322.478 192.059C322.673 192.059 322.867 192.253 323.451 192.253C325.008 192.643 325.397 192.837 325.591 192.837ZM329.677 189.529C329.482 189.529 329.288 189.335 329.093 189.14C328.899 188.946 328.899 188.751 328.899 188.557C328.899 188.362 328.899 188.362 328.899 188.167C328.899 187.973 329.093 187.973 329.093 187.778C329.288 187.584 329.872 187.389 331.039 187.389C331.233 186.611 331.233 186.027 331.233 185.249C331.233 185.054 331.233 184.665 331.233 184.471C331.233 184.276 331.233 184.081 331.233 184.081C331.233 183.692 331.428 183.303 331.623 183.109C332.012 182.914 332.206 182.719 332.595 182.719C332.984 182.719 333.374 182.914 333.568 183.109C333.763 183.303 333.763 183.692 333.957 184.471C333.957 185.443 333.957 186.416 333.763 187.195C333.957 187.195 334.541 187.195 334.93 187.195C335.708 187.195 336.097 187.195 336.487 187.195C336.876 187.195 337.07 187.195 337.265 187.389C337.459 187.584 337.654 187.778 337.654 187.973C337.654 188.751 337.459 189.14 336.681 189.335C336.097 189.529 334.93 189.724 333.568 189.724C333.568 190.502 333.568 191.281 333.568 192.059C333.568 193.421 333.763 194.394 333.957 195.172C334.152 195.756 334.346 196.145 334.541 196.339C334.736 196.534 335.125 196.729 335.708 196.729C336.097 196.729 336.292 196.534 336.681 196.534C336.876 196.339 337.07 196.339 337.265 196.339C337.459 196.339 337.654 196.339 337.849 196.534C338.043 196.729 338.043 196.923 338.043 197.118C338.043 197.701 337.849 198.09 337.265 198.48C336.681 198.869 336.097 199.063 335.125 199.063C334.541 199.063 334.152 198.869 333.568 198.674C332.984 198.48 332.595 198.09 332.206 197.701C332.206 197.701 332.012 197.507 331.817 197.118C331.623 196.729 331.428 196.339 331.428 195.95C331.233 195.172 331.039 193.81 331.039 192.448C331.039 191.864 331.039 190.891 331.039 189.724L329.677 189.529Z" fill="white"/>
<path d="M198.157 220.661C198.157 221.439 197.768 221.828 196.99 221.828C196.795 221.828 196.406 221.828 196.211 221.633C196.017 221.439 195.822 221.244 195.628 221.05C195.044 220.466 194.655 220.271 194.266 220.271C193.682 220.271 193.293 220.466 192.709 220.855C192.126 221.244 191.736 221.633 191.542 222.217C191.153 222.801 191.153 223.385 191.153 224.163C191.153 224.941 191.347 225.525 191.736 226.109C192.126 226.692 192.515 227.081 193.098 227.471C193.293 227.665 193.682 227.665 193.877 227.665C194.266 227.665 194.46 227.665 194.655 227.665C195.239 227.665 195.822 227.471 196.6 227.081C196.795 226.887 197.184 226.887 197.379 226.692C197.573 226.692 197.768 226.498 197.962 226.498C198.157 226.498 198.352 226.498 198.741 226.692C198.935 226.887 199.13 227.081 199.13 227.276C199.13 227.86 198.935 228.249 198.352 228.638C197.768 229.027 197.184 229.416 196.6 229.611C195.822 229.805 195.239 230 194.46 230C193.293 230 192.32 229.805 191.542 229.416C190.569 229.027 189.791 228.249 189.207 227.471C188.623 226.692 188.429 225.719 188.234 224.552C188.234 223.385 188.429 222.412 189.013 221.439C189.596 220.466 190.18 219.688 191.153 219.104C191.931 218.52 192.904 218.326 194.071 218.131C194.655 218.131 195.239 218.131 196.017 218.326C196.6 218.52 197.184 218.909 197.573 219.299C197.962 219.493 198.157 220.077 198.157 220.661ZM212.36 229.416C210.998 229.416 210.025 229.027 209.636 227.86C209.441 227.276 209.247 226.692 209.052 225.719C209.052 224.941 208.858 223.968 208.858 222.801V222.023C208.858 220.661 208.274 220.077 207.496 220.077C206.912 220.077 206.523 220.271 205.939 220.855C205.356 221.439 204.967 222.023 204.772 222.995C204.383 223.774 204.383 224.747 204.383 225.719C204.383 226.303 204.383 226.887 204.577 227.276C204.577 227.86 204.577 228.443 204.577 228.638C204.577 229.222 204.188 229.611 203.41 229.611C203.021 229.611 202.632 229.611 202.243 229.416C201.854 229.222 201.659 229.027 201.659 228.638C201.659 227.665 201.659 226.498 201.659 225.136L201.465 221.633C201.465 221.05 201.27 218.909 201.075 215.213V212.683C201.075 212.294 201.27 211.905 201.659 211.71C202.048 211.321 202.437 211.321 202.826 211.321C203.216 211.321 203.605 211.321 203.799 211.516C203.994 211.71 203.994 211.905 204.188 212.294C204.188 212.683 204.188 213.267 204.188 213.851C204.188 214.434 204.188 215.018 204.188 215.213C204.188 216.186 204.188 217.158 204.188 217.937C204.188 218.909 204.188 219.493 204.188 220.077C204.772 219.299 205.356 218.715 205.939 218.326C206.718 217.937 207.496 217.742 208.469 217.742C209.247 217.742 209.831 217.937 210.414 218.52C210.998 219.104 211.387 219.882 211.582 220.661C211.582 221.05 211.582 221.633 211.776 222.412V224.357C211.776 224.747 211.776 225.136 211.776 225.719C211.776 226.109 211.971 226.303 212.165 226.692C212.36 227.081 212.554 227.276 212.944 227.471C213.138 227.665 213.333 227.665 213.333 227.86C213.333 228.054 213.527 228.249 213.527 228.443C213.527 228.638 213.527 228.833 213.333 229.027C213.138 229.222 212.554 229.416 212.36 229.416ZM218.586 228.054C218.586 228.443 218.391 228.638 218.197 228.833C218.002 229.027 217.613 229.222 217.418 229.222C216.835 229.222 216.446 229.222 216.251 229.027C216.057 228.833 215.862 228.443 215.862 227.86C215.862 227.081 215.862 226.303 215.862 225.33C215.862 224.357 215.862 223.385 215.862 222.995C215.862 222.801 215.862 222.412 215.862 221.828C215.862 221.439 215.862 221.05 215.862 220.855C215.862 220.466 215.667 220.271 215.473 220.077C215.278 219.882 214.889 219.688 214.5 219.688C214.306 219.688 214.111 219.493 214.111 219.299C213.916 219.104 213.916 218.909 213.916 218.909C213.916 218.52 214.111 218.131 214.306 217.937C214.695 217.742 215.084 217.548 215.473 217.548C216.057 217.548 216.446 217.742 216.835 218.131C217.224 218.52 217.613 218.91 217.808 219.493C218.197 218.91 218.78 218.326 219.364 217.937C219.948 217.548 220.531 217.353 221.115 217.353C221.893 217.353 222.477 217.353 223.061 217.742C223.644 217.937 223.839 218.326 223.839 218.909C223.839 219.299 223.644 219.688 223.45 220.077C223.255 220.466 222.866 220.661 222.477 220.661C222.282 220.661 221.893 220.661 221.699 220.271C221.504 220.271 221.504 220.077 221.31 220.077C221.115 220.077 220.921 220.077 220.921 220.077C220.726 220.077 220.337 220.077 220.142 220.271C219.948 220.466 219.753 220.466 219.559 220.661C219.364 221.05 219.17 221.633 218.975 221.828C218.586 222.217 218.586 222.606 218.586 222.995C218.586 223.385 218.586 223.579 218.586 223.774V225.33V226.303C218.586 227.081 218.586 227.665 218.586 228.054ZM235.902 219.882C236.096 220.077 236.096 220.466 236.291 221.05C236.485 221.439 236.485 222.023 236.485 222.412C236.485 223.19 236.291 224.163 236.096 225.525C234.929 227.86 233.178 229.027 230.649 229.027C229.676 229.027 228.898 228.833 227.925 228.249C226.952 227.665 226.368 227.081 225.979 226.303C225.395 224.747 225.201 223.774 225.201 223.385C225.201 222.606 225.395 221.828 225.59 221.05C225.979 220.271 226.368 219.493 226.757 218.909C227.147 218.52 227.536 218.131 228.314 217.742C229.092 217.353 229.87 217.158 230.454 217.158C231.816 217.158 232.789 217.353 233.762 217.742C234.54 218.131 235.318 218.909 235.902 219.882ZM233.762 224.357C233.762 224.163 233.956 223.579 233.762 222.606C233.762 222.023 233.567 221.633 233.372 221.05C233.178 220.466 232.789 220.077 232.594 219.688C232.594 219.688 232.4 219.688 232.205 219.493C232.011 219.493 231.816 219.299 231.621 219.299C231.427 219.299 231.038 219.104 230.649 219.299C229.676 219.299 228.898 219.688 228.508 220.661C228.119 221.439 227.925 222.412 227.925 223.385C227.925 223.579 227.925 223.968 228.119 224.357C228.314 224.941 228.314 225.136 228.314 225.33C228.314 225.525 228.508 225.719 228.703 225.914C228.898 226.109 229.287 226.303 229.481 226.498C229.87 226.692 230.259 226.692 230.454 226.692C231.232 226.692 232.011 226.498 232.4 226.109C232.983 225.525 233.372 225.136 233.762 224.357ZM251.467 226.303C251.467 226.303 251.661 226.303 251.856 226.498C252.05 226.498 252.245 226.692 252.245 226.692L252.439 226.887C252.439 227.276 252.245 227.665 252.05 228.054C251.661 228.249 251.272 228.443 250.883 228.443C250.105 228.443 249.521 228.249 249.132 227.86C248.743 227.471 248.354 226.887 248.159 226.109C248.159 225.719 247.965 225.33 247.965 224.747C247.965 224.357 247.965 223.968 247.965 223.19C247.965 222.412 247.965 221.828 247.965 221.439C247.965 220.855 247.77 220.271 247.381 219.688C246.992 219.299 246.603 218.909 245.824 218.909C245.435 218.909 245.046 219.104 244.657 219.299C244.268 219.493 243.879 219.882 243.879 220.077C243.684 220.661 243.49 221.244 243.295 221.828C243.1 222.995 243.1 223.968 243.1 225.33C243.1 225.914 243.1 226.303 243.1 226.692C243.1 226.692 243.1 226.887 243.1 227.081C243.1 227.276 243.1 227.471 243.1 227.665C243.1 227.86 242.906 228.054 242.906 228.054C242.906 228.054 242.711 228.249 242.517 228.249C242.322 228.249 242.128 228.443 241.933 228.443C241.739 228.443 241.349 228.443 240.96 228.054C240.571 227.86 240.377 227.665 240.377 227.276V226.887C240.377 226.692 240.377 226.498 240.377 226.303C240.571 224.941 240.571 223.968 240.571 222.995C240.571 222.606 240.571 222.217 240.571 222.023V220.661C240.571 220.271 240.377 219.882 240.182 219.493C239.988 219.104 239.598 218.909 239.404 218.909C239.404 218.909 239.209 218.909 239.015 219.104C238.82 219.104 238.626 219.299 238.626 219.299C238.431 219.299 238.236 219.299 238.042 219.104C237.847 218.909 237.653 218.715 237.653 218.52C237.653 218.131 237.847 217.742 238.042 217.548C238.236 217.353 238.626 217.158 238.82 216.964C239.015 216.769 239.404 216.769 239.793 216.769C239.988 216.769 240.377 216.769 240.571 216.769C240.766 216.769 240.96 216.964 241.349 217.158C241.544 217.158 241.739 217.353 241.933 217.742C242.128 218.131 242.322 218.52 242.517 219.104C242.906 218.131 243.49 217.548 244.268 217.158C245.046 216.769 245.824 216.575 246.992 216.575C247.381 216.575 247.77 216.769 248.354 216.964C248.937 217.158 249.326 217.548 249.521 217.937C249.91 218.326 250.105 218.91 250.299 219.493C250.494 220.077 250.688 220.661 250.688 221.05C250.688 221.244 250.688 221.828 250.688 222.412C250.688 222.995 250.688 223.385 250.688 223.968C250.688 225.136 250.883 225.914 251.467 226.303ZM255.163 210.738C255.747 210.738 256.331 210.932 256.914 211.127C257.303 211.321 257.693 211.905 257.693 212.294C257.693 212.683 257.498 213.072 257.109 213.267C256.525 213.656 256.136 213.851 255.552 213.851C254.969 213.851 254.58 213.656 254.385 213.462C254.19 213.267 253.996 212.878 253.996 212.683C253.996 212.1 253.996 211.71 254.19 211.321C254.385 210.932 254.58 210.738 255.163 210.738ZM257.498 222.801V223.579C257.498 224.357 257.498 224.941 257.693 225.525C257.693 226.109 257.887 226.692 257.887 227.471C257.887 227.665 257.693 227.86 257.498 228.054C257.303 228.249 257.109 228.249 256.72 228.249C256.331 228.249 255.941 228.249 255.747 228.054C255.358 227.86 255.163 227.86 255.163 227.471C254.969 226.887 254.969 226.303 254.969 225.914C254.969 224.357 254.774 222.801 254.774 220.855C254.58 219.299 254.58 218.131 254.58 217.353C254.58 216.964 254.774 216.769 254.969 216.575C255.358 216.38 255.552 216.186 255.941 216.186C256.525 216.186 256.914 216.186 257.109 216.575C257.303 216.769 257.498 217.158 257.498 217.742V222.801ZM271.312 219.104C271.506 219.299 271.506 219.688 271.701 220.271C271.895 220.661 271.895 221.244 271.895 221.633C271.895 222.217 271.895 222.801 271.701 223.579C271.506 224.357 271.506 224.941 271.312 225.136C270.339 227.276 268.588 228.249 265.67 228.249C264.697 228.249 263.918 228.054 262.946 227.471C262.167 226.887 261.389 226.303 261 225.525L260.806 224.941C260.806 224.941 260.611 224.552 260.416 224.163C260.222 223.774 260.222 223.385 260.222 222.995C260.222 222.217 260.416 221.439 260.611 220.466C261 219.493 261.389 218.715 261.778 218.131C262.167 217.742 262.751 217.353 263.529 216.964C264.308 216.575 265.086 216.38 265.864 216.38C267.031 216.38 268.199 216.575 268.977 216.964C269.95 217.158 270.728 217.937 271.312 219.104ZM268.977 223.579C268.977 223.385 269.172 223.19 269.172 222.801C269.172 222.412 269.172 222.023 269.172 221.633C269.172 221.05 268.977 220.661 268.783 220.077C268.588 219.493 268.199 219.104 268.004 218.715C268.004 218.715 268.004 218.715 267.81 218.52C267.615 218.52 267.615 218.326 267.226 218.326C267.031 218.326 266.642 218.131 266.253 218.131C265.475 218.131 264.891 218.326 264.502 218.715C264.113 219.104 263.724 219.688 263.529 220.271C263.335 220.855 263.14 221.439 263.14 222.023C263.14 222.217 263.14 222.606 263.335 222.995C263.529 223.579 263.529 223.774 263.529 223.968C263.724 224.163 263.918 224.552 264.308 224.747C264.697 225.136 265.28 225.136 265.67 225.136C266.448 225.136 267.031 224.941 267.615 224.552C268.393 224.747 268.783 224.163 268.977 223.579ZM274.036 218.131C273.841 217.937 273.841 217.937 273.647 217.742C273.647 217.548 273.452 217.353 273.452 217.158C273.452 216.769 273.647 216.575 273.841 216.38C274.036 216.186 274.425 215.991 274.619 215.991C275.203 215.991 275.787 216.186 276.37 216.38C276.759 216.769 277.149 217.158 277.343 217.742C277.732 216.964 278.121 216.38 278.9 216.186C279.483 215.796 280.456 215.796 281.429 215.602C281.818 215.602 282.402 215.796 282.791 215.991C283.18 216.186 283.764 216.575 284.153 216.964C284.542 217.353 284.736 217.937 284.931 218.52C285.126 219.104 285.32 219.688 285.32 220.077C285.32 220.271 285.32 220.855 285.32 221.439C285.32 222.023 285.32 222.606 285.32 222.995C285.32 224.357 285.709 225.136 286.098 225.33C286.098 225.33 286.293 225.33 286.488 225.525C286.682 225.525 286.682 225.525 286.877 225.525C287.071 225.525 287.071 225.719 287.071 225.719C287.071 226.109 286.877 226.498 286.682 226.887C286.293 227.081 285.904 227.276 285.515 227.276C284.736 227.276 284.153 227.081 283.764 226.692C283.375 226.303 282.985 225.719 282.791 224.941C282.596 224.747 282.596 224.163 282.596 223.579C282.596 223.19 282.596 222.801 282.596 222.023C282.596 221.439 282.596 220.855 282.596 220.271C282.596 219.688 282.402 219.104 282.013 218.52C281.623 218.131 281.04 217.742 280.456 217.742C280.067 217.742 279.678 217.937 279.289 218.131C278.9 218.326 278.511 218.715 278.511 218.909C278.316 219.493 278.121 220.077 277.927 220.661C277.732 221.828 277.732 222.801 277.732 223.968C277.732 224.163 277.732 224.747 277.732 225.525C277.732 225.525 277.732 225.719 277.732 225.914C277.732 226.109 277.732 226.303 277.732 226.498C277.732 226.692 277.538 226.887 277.538 227.081C277.538 227.081 277.343 227.276 277.149 227.276C276.954 227.276 276.759 227.471 276.565 227.471C276.37 227.471 275.981 227.471 275.592 227.081C275.203 226.887 275.008 226.692 274.814 226.303V225.914C274.814 225.719 274.814 225.525 274.814 225.33C275.008 223.968 275.008 222.995 275.008 222.023C275.008 221.633 275.008 221.244 275.008 221.05V219.882C275.008 219.493 274.814 219.104 274.619 218.715C274.619 218.715 274.23 218.326 274.036 218.131ZM301.08 225.719C301.08 226.109 300.885 226.498 300.496 226.692C300.107 226.887 299.718 227.081 299.329 227.081C298.55 227.081 298.161 227.081 297.577 226.887C297.188 226.692 296.799 226.498 296.41 225.914C296.021 226.303 295.243 226.692 294.465 226.887C293.686 227.081 292.908 227.276 292.13 227.276C290.962 227.276 289.99 227.081 289.406 226.498C288.628 225.914 288.239 224.941 288.239 223.774C288.239 223.19 288.433 222.801 288.628 222.412C288.822 222.023 289.211 221.633 289.795 221.244C290.379 220.855 290.962 220.661 291.546 220.466C292.13 220.271 292.908 220.077 293.686 220.077C294.075 220.077 294.465 220.077 295.048 220.271C295.632 220.466 296.021 220.466 296.216 220.661V220.271C296.216 219.299 296.021 218.715 295.437 218.326C295.048 217.937 294.27 217.742 293.103 217.742C292.713 217.742 292.519 217.742 292.13 217.937C291.741 218.131 291.546 218.326 291.157 218.52C290.573 218.715 290.184 218.909 289.795 218.909C289.6 218.909 289.406 218.715 289.406 218.52C289.211 218.326 289.211 218.131 289.211 217.937C289.211 217.353 289.406 216.964 289.99 216.575C290.573 216.186 291.157 215.796 291.741 215.602C292.519 215.407 293.103 215.213 293.492 215.213C293.881 215.213 294.659 215.213 295.437 215.407C296.216 215.602 296.799 215.796 297.188 216.186C297.772 216.575 298.161 217.158 298.55 217.742C298.939 218.326 298.939 219.104 299.134 219.882C299.134 220.077 299.134 220.466 299.134 220.855C299.134 221.439 299.134 221.828 299.134 222.217C299.134 222.412 299.134 222.606 299.134 222.995C299.134 223.385 299.134 223.774 299.134 223.968C299.134 224.163 299.134 224.357 299.329 224.552C299.523 224.747 299.718 224.747 299.912 224.747H300.69C300.885 224.747 301.08 224.747 301.08 224.941C300.885 225.33 301.08 225.525 301.08 225.719ZM292.324 225.136C293.103 225.136 293.686 224.941 294.27 224.747C294.854 224.552 295.437 224.163 296.216 223.774C296.216 223.385 296.41 222.995 296.41 222.606C295.437 222.217 294.659 222.023 293.881 222.023C293.103 222.023 292.519 222.217 291.935 222.412C291.352 222.606 291.157 223.19 291.157 223.968C291.157 224.357 291.352 224.552 291.546 224.747C291.546 225.136 291.935 225.33 292.324 225.136ZM311.002 211.127C311.586 211.905 311.975 212.683 311.975 213.462C311.975 214.045 311.78 214.629 311.586 215.213C311.391 215.796 311.002 216.186 310.418 216.964C309.835 217.548 309.64 217.937 309.251 218.52C309.057 218.91 308.862 219.493 308.862 219.882C308.862 220.271 308.667 220.855 308.667 221.633C308.667 222.023 308.473 222.412 308.278 222.606C308.084 222.801 307.695 222.995 307.306 222.995C306.527 222.995 306.138 222.606 306.138 221.633C306.138 221.05 306.138 220.466 306.333 219.688C306.527 218.909 306.722 218.131 307.306 217.353C307.5 216.964 307.695 216.769 307.889 216.38C308.084 215.991 308.278 215.796 308.473 215.796C308.667 215.407 309.057 215.213 309.251 214.824C309.446 214.434 309.446 214.24 309.446 213.851C309.446 213.656 309.446 213.267 309.251 213.267C309.251 213.072 309.057 212.878 308.862 212.683C308.667 212.489 308.278 212.294 307.889 212.1C307.5 211.905 307.111 211.905 306.916 211.905C306.333 211.905 305.944 212.1 305.554 212.294C305.165 212.489 304.776 212.683 304.582 213.072C304.387 213.462 304.193 213.656 304.193 214.045C304.193 214.629 304.387 215.018 304.582 215.213C304.776 215.407 304.971 215.602 304.971 215.796C304.971 215.991 304.971 215.991 304.971 216.186C304.776 216.769 304.387 216.964 303.803 216.964C303.22 216.964 302.636 216.769 302.247 216.186C301.858 215.602 301.663 215.018 301.663 214.24C301.663 213.462 301.858 212.683 302.247 212.1C302.636 211.321 303.414 210.738 304.193 210.348C305.165 209.959 306.138 209.57 307.5 209.57C308.278 209.57 308.862 209.765 309.64 209.959C310.029 210.154 310.418 210.543 311.002 211.127ZM307.306 223.968C307.889 223.968 308.278 224.163 308.667 224.552C308.862 224.747 309.057 225.136 309.057 225.719C309.057 226.109 308.862 226.498 308.473 226.692C308.084 226.887 307.695 227.081 307.306 227.081C306.916 227.081 306.722 227.081 306.333 226.887C305.944 226.692 305.749 226.109 305.749 225.525C305.749 225.136 305.944 224.747 306.138 224.552C306.527 224.163 306.916 223.968 307.306 223.968Z" fill="white"/>
</g>
<defs>
<clipPath id="clip0_0_1">
<rect width="186" height="129" fill="white" transform="translate(168 101)"/>
</clipPath>
</defs>
</svg>
