<svg width="151" height="61" viewBox="0 0 151 61" fill="none" xmlns="http://www.w3.org/2000/svg">
<path d="M12.8534 53.6703C11.4521 56.065 8.08905 58.178 5.56676 56.065C3.32472 54.2337 2.90434 50.5712 2.62409 47.7539C2.34383 44.3731 2.62408 40.8514 3.7451 37.7523C4.30561 36.0619 5.14638 34.3715 6.2674 32.822C8.50943 30.709 11.312 29.582 14.1145 31.695C17.0572 33.9489 16.9171 37.7523 16.3566 41.1331C16.2164 41.8375 16.0763 42.5418 15.9362 43.1053C15.9362 43.2461 15.7961 43.387 15.7961 43.5279C15.7961 43.6687 15.7961 43.8096 15.7961 43.9505C15.7961 44.0913 15.6559 44.3731 15.6559 44.5139C14.9553 47.613 14.3948 50.9938 12.8534 53.6703ZM53.4903 48.0356C52.2292 50.0077 50.8279 51.9799 49.2865 53.8111C49.2865 52.6842 49.2865 51.4164 49.2865 50.2895C49.5668 44.9365 49.9871 39.4427 50.4075 34.0898C50.5477 32.5402 50.6878 30.8498 50.6878 29.3003C50.8279 27.7508 48.3056 27.1873 48.1655 28.8777C47.8852 32.6811 47.605 36.6254 46.9043 40.4288C46.484 42.4009 46.0636 44.2322 45.5031 46.0635C44.6623 48.8808 43.6814 52.2616 40.5986 53.2477C39.4776 53.5294 38.6368 53.3885 37.6559 53.1068C37.0954 52.5433 36.675 51.9799 35.9744 51.4164C35.2738 50.7121 34.433 49.8669 33.312 49.5851C32.6113 49.4443 31.9107 49.4443 31.3502 49.726C34.2929 43.2461 37.6559 37.1889 41.7196 31.4133C42.5604 30.2864 41.1591 29.1594 40.1782 29.3003C35.6941 30.2864 31.2101 30.0046 26.8661 28.7368C26.4457 28.596 26.0254 28.8777 25.8852 29.3003C24.0636 33.6672 22.9426 37.8932 22.1018 42.4009C21.9617 42.9644 21.9617 43.387 21.8215 43.9505C21.8215 39.0201 21.9617 34.0898 21.9617 29.1594C22.1018 24.0882 22.2419 19.017 22.5222 14.0867C22.9426 9.86068 23.3629 5.63467 23.9234 1.40867C24.0636 -1.75089e-06 21.8215 -0.563469 21.5413 0.986066C20.9808 5.07121 20.5604 9.15635 20.2801 13.3824C19.7196 18.5944 19.1591 23.8065 18.4585 29.0186C13.6941 25.2152 6.8279 28.0325 3.7451 32.9628C-0.0383416 38.8793 -0.458718 47.3313 1.92345 53.8111C2.90434 56.6285 5.00624 59.1641 8.08905 59.305C11.312 59.4458 13.9744 57.1919 15.5158 54.3746C17.1973 50.9938 17.898 47.0495 18.5986 43.387C19.019 41.274 19.4394 39.3019 19.7196 37.1889C19.5795 43.8096 19.5795 50.4303 19.4394 57.1919C19.4394 58.6006 21.5413 59.1641 21.8215 57.6146C22.6623 52.9659 23.2228 48.3173 24.0636 43.5279C24.7642 39.3019 25.4648 34.6532 27.5668 30.9907C31.0699 32.2585 34.5731 32.6811 38.2164 32.2585C33.8725 39.0201 30.0891 46.0635 27.1464 53.6703C26.726 54.3746 26.4457 55.2198 26.3056 56.065C26.1655 57.3328 28.2674 58.178 28.6878 56.9102C28.968 56.2059 29.1082 55.6424 29.3884 54.9381C29.9489 54.0929 30.9298 53.5294 32.0508 53.6703C33.7324 53.8111 34.8534 55.6424 36.1145 56.6285C39.3375 59.1641 42.8406 57.6146 44.9426 54.5155C45.6432 53.3885 46.3438 52.2616 46.7642 51.1347C46.6241 53.3885 46.484 55.6424 46.2037 57.8963C46.0636 59.305 47.7451 59.8684 48.5859 59.0232L48.726 58.8824C49.1464 58.8824 49.4266 58.6006 49.5668 58.178C49.5668 58.0372 49.5668 58.0372 49.5668 57.8963C51.8088 55.5015 53.9107 52.8251 55.7324 50.0077C56.7133 48.3173 54.3311 46.4861 53.4903 48.0356Z" fill="black"/>
<path d="M51.9486 16.7632C52.9295 16.1997 53.3499 14.9319 52.7894 13.9458C52.2289 12.678 50.5473 12.1146 49.4263 12.8189C49.4263 12.8189 49.4263 12.8189 49.2862 12.8189C49.1461 12.8189 48.8658 12.9598 48.7257 13.1006C48.025 13.9458 48.025 15.2136 48.7257 16.0588C49.5664 17.1858 50.9677 17.4675 51.9486 16.7632Z" fill="black"/>
<path d="M107.859 53.2477L108 53.3885C108 53.3885 108 53.3885 107.859 53.5294C108 53.3885 107.859 53.3885 107.859 53.2477ZM65.1206 47.1904C65.2607 47.613 65.4008 48.0356 65.541 48.4582C66.2416 50.2895 67.5028 52.1207 68.904 53.6703C67.0824 52.1207 65.6811 49.726 65.1206 47.1904ZM75.7703 30.5681C77.0314 32.2585 77.5919 34.3715 77.8722 36.4845C77.0314 36.4845 76.1906 36.6254 75.3499 36.6254C73.5282 36.9071 71.8467 36.7663 70.025 36.9071C69.8849 36.9071 69.8849 36.9071 69.7448 37.048C68.6238 37.048 67.6429 37.048 66.5219 37.048C66.2416 37.048 65.9613 37.048 65.541 37.048C65.8212 35.0759 66.3817 33.2446 66.9422 31.2724C67.3626 30.4272 67.9231 29.7229 68.6238 29.1594C71.0059 27.1873 74.0887 28.3142 75.7703 30.5681ZM93.7066 50.0077C93.4263 50.9938 93.1461 52.1207 92.7257 53.1068C93.0059 52.1207 93.4263 51.1347 93.7066 50.0077ZM114.726 45.3591C113.605 47.0495 112.484 48.7399 111.223 50.2895C110.802 50.8529 110.242 51.2755 109.681 51.4164C108.98 50.4303 108.56 48.3173 108.42 47.7539C108.28 46.9087 108.28 46.0635 108.14 45.2183C108 43.387 107.859 41.6966 107.579 39.8653C107.159 37.3297 106.178 34.5124 104.216 32.6811C102.535 31.1316 100.993 31.1316 99.8722 31.9768C98.4709 32.5402 97.7703 34.2307 97.0696 35.3576C95.9486 37.1889 94.9677 39.161 94.127 41.1331C93.8467 41.6966 93.5664 42.4009 93.2862 43.1053C93.4263 41.274 93.4263 39.5836 93.4263 37.7523C93.4263 34.935 93.4263 31.1316 92.1652 28.596C91.4645 27.1873 90.6238 26.7647 89.9231 26.7647C89.783 26.7647 89.6429 26.7647 89.5028 26.7647C89.0824 26.6238 88.5219 26.6238 88.3817 27.1873C87.2607 30.9907 86.1397 34.6532 85.1588 38.4567C84.1779 41.9783 83.3371 45.7817 81.7957 49.1625C79.5537 53.952 74.6493 55.9241 70.3053 52.4025C69.6047 51.839 69.1843 51.2755 68.6238 50.5712C67.3626 48.8808 66.5219 46.7678 65.9613 44.5139C65.6811 43.1053 65.541 41.6966 65.541 40.4288C70.1652 40.7105 74.9295 40.9923 79.5537 41.4149C80.3945 41.4149 81.0951 40.9923 80.955 40.0062C80.6747 36.6254 80.2543 32.9628 78.4327 30.0046C76.8913 27.6099 74.2289 25.6378 71.4263 25.6378C65.9613 25.4969 63.7193 31.8359 62.8785 37.048C59.6556 37.048 56.4327 37.048 53.49 37.6115C53.3499 37.6115 53.2097 37.7523 53.2097 37.7523C52.369 38.0341 52.6492 39.5836 53.6301 39.7245C56.5728 40.0062 59.6556 40.1471 62.5983 40.2879C62.5983 40.4288 62.5983 40.5697 62.5983 40.5697C62.1779 47.0495 64.4199 54.3746 70.4454 57.3328C73.1078 58.6006 76.3308 58.8824 79.1333 57.7554C81.9359 56.4876 83.7575 53.952 85.0187 51.1347C87.6811 44.7957 87.541 37.7523 89.9231 31.2724C90.2034 33.3855 90.3435 35.6393 90.2034 37.7523C90.0633 38.5975 89.9231 39.5836 89.783 40.2879C89.3626 43.8096 89.0824 47.3313 88.662 50.8529C88.5219 51.6981 88.3817 52.6842 88.3817 53.5294C88.2416 54.7972 88.1015 56.2059 89.0824 57.1919C91.4645 59.8684 93.5664 55.9241 94.5473 53.952C96.6492 49.4443 97.2098 44.3731 99.3117 39.8653C99.7321 39.0201 100.993 36.0619 102.535 35.9211C103.235 37.4706 103.515 39.4427 103.796 41.1331C104.216 43.2461 104.216 45.5 104.356 47.613C104.496 49.5851 104.496 51.4164 105.197 53.2477C105.758 54.7972 106.879 57.1919 108.84 56.7693C109.821 56.4876 110.522 55.6424 111.223 54.9381C112.063 54.2337 112.764 53.3885 113.465 52.5433C115.006 50.7121 116.267 48.8808 117.248 46.6269C117.668 45.5 115.426 44.0913 114.726 45.3591Z" fill="black"/>
<path d="M96.5096 28.3142C97.4905 27.7508 98.3313 26.7647 99.1721 26.0604C100.013 25.356 100.994 24.5108 101.975 23.9474C102.955 23.3839 103.936 22.8204 104.917 22.257C106.038 21.6935 107.159 21.4118 108.14 20.8483C109.261 20.144 108.14 18.5944 107.159 18.5944C104.777 18.7353 102.115 20.2848 100.153 21.6935C98.1912 22.9613 95.809 24.9334 94.9682 27.1873C94.5478 28.0325 95.6689 28.8777 96.5096 28.3142Z" fill="black"/>
<path d="M147.236 52.9659C147.096 54.3746 146.815 55.7833 146.675 57.192C141.631 57.0511 136.586 55.2198 131.541 55.6424C130.56 50.2895 132.522 44.7957 136.726 41.5557C137.006 41.4149 137.427 41.274 137.707 41.1331C139.809 40.4288 142.191 40.4288 144.013 39.0201C147.516 36.3437 148.357 30.9907 148.217 26.9056C148.076 24.5108 147.656 22.257 146.815 20.0031C146.115 18.031 144.994 15.7771 143.172 14.6502C141.35 13.3824 138.968 13.5232 137.006 14.6502C135.745 15.3545 134.904 16.4814 134.344 17.7492C133.503 19.017 132.943 20.2848 133.223 21.9752C133.363 22.3978 133.643 22.6796 133.924 22.6796C137.707 23.8065 139.248 12.1146 143.172 19.4396C144.573 22.1161 144.293 25.7786 144.153 28.596C143.873 32.822 143.032 35.7802 139.108 37.7523C138.688 37.8932 138.267 38.1749 137.847 38.4567C134.344 39.3019 131.401 41.4149 129.58 44.6548C127.197 48.7399 126.637 53.5294 126.076 58.178C125.936 59.1641 127.057 60.1502 128.038 59.7276C134.484 56.6285 141.631 60.291 148.217 60.1502C148.917 60.1502 149.338 59.5867 149.338 59.0232C149.618 57.192 149.898 55.3607 150.038 53.5294C150.318 51.839 147.516 51.1347 147.236 52.9659Z" fill="black"/>
</svg>
