<svg width="151" height="59" viewBox="0 0 151 59" fill="none" xmlns="http://www.w3.org/2000/svg">
<g clip-path="url(#clip0_0_1466)">
<path d="M12.4015 53.3563C11.0081 55.695 7.7058 57.8657 5.21166 55.695C3.05193 53.8044 2.50853 50.1913 2.24379 47.4605C1.90933 44.0868 2.28435 40.6801 3.34455 37.4614C3.92281 35.7104 4.79462 34.0717 5.9223 32.616C8.13776 30.5993 10.8966 29.381 13.7531 31.5236C16.6095 33.6663 16.5398 37.4894 15.9267 40.8785C15.7874 41.6347 15.6341 42.2789 15.5087 42.8111C15.5087 42.9511 15.5087 43.1052 15.3972 43.2452C15.3696 43.3697 15.3696 43.4988 15.3972 43.6233C15.3972 43.8334 15.3136 44.0434 15.2579 44.2535C14.603 47.2784 14.0457 50.6955 12.4015 53.3563ZM52.8093 47.6846C51.53 49.6708 50.1341 51.5787 48.6292 53.3983C48.6292 52.2219 48.6292 51.0596 48.6292 49.8832C48.9636 44.5056 49.298 39.1139 49.6743 33.7223C49.7997 32.1398 49.8972 30.5573 49.9947 29.0169C50.0923 27.4764 47.626 26.8742 47.5006 28.5407C47.2219 32.3639 46.9293 36.2151 46.2884 39.9822C45.8703 41.8494 45.4059 43.74 44.895 45.6539C44.0729 48.4548 43.0975 51.8578 40.0739 52.8101C39.1205 53.1083 38.0924 53.0537 37.1757 52.6561C36.6044 52.1379 36.1306 51.5077 35.5454 50.9195C34.8532 50.0909 33.9538 49.4625 32.9398 49.099C32.3145 48.9224 31.6488 48.9568 31.0448 49.197C33.9046 42.8133 37.3618 36.7174 41.3698 30.9915C42.15 29.8851 40.8821 28.6948 39.7952 28.9468C35.39 29.8924 30.8189 29.7094 26.5024 28.4147C26.2979 28.3706 26.0844 28.4015 25.9005 28.5016C25.7166 28.6017 25.5742 28.7646 25.4992 28.9608C23.7741 33.1709 22.508 37.5565 21.7232 42.0408C21.6256 42.573 21.5142 43.0912 21.4166 43.6093C21.4724 38.7078 21.5327 33.8063 21.5978 28.9048C21.6814 23.8913 21.8207 18.8778 22.1551 13.8782C22.601 9.67696 23.0654 5.47568 23.5485 1.2744C23.7017 -0.126026 21.4723 -0.672195 21.2355 0.840266C20.6224 4.92951 20.2044 9.03277 19.9257 13.15C19.3823 18.3176 18.7971 23.4852 18.0865 28.6247C13.3211 24.7876 6.47965 27.6444 3.40029 32.4899C-0.431487 38.4837 -0.877372 46.8863 1.43563 53.3283C2.43886 56.1291 4.50105 58.6359 7.55254 58.7899C10.604 58.944 13.4326 56.6893 14.8817 53.9165C16.5955 50.6114 17.2226 46.6342 17.975 43.0071C18.4069 40.9485 18.7971 38.8059 19.1315 36.8032C19.0479 43.4133 18.9689 50.0279 18.8946 56.6473C18.8946 58.0477 20.9289 58.6219 21.1937 57.0954C21.9879 52.446 22.587 47.7826 23.4091 43.0912C24.078 38.8899 24.8025 34.3245 26.8508 30.5853C30.2394 31.83 33.8662 32.2803 37.4543 31.9017C33.0633 38.5717 29.3831 45.6877 26.4746 53.1322C26.0015 53.845 25.7053 54.6614 25.6107 55.5129C25.4713 56.8013 27.5196 57.6556 28.0212 56.2832C28.2581 55.653 28.5089 55.0088 28.7597 54.3786C29.0566 53.9676 29.4496 53.6364 29.904 53.4141C30.3585 53.1919 30.8603 53.0854 31.3653 53.1042C33.0234 53.2303 34.1521 55.1068 35.3922 56.0731C38.5551 58.6219 42.0246 57.1094 44.1147 53.9725C44.8222 52.8996 45.4509 51.7763 45.9957 50.6115L45.4941 57.3335C45.4571 57.6284 45.5145 57.9276 45.6579 58.1875C45.8013 58.4475 46.0233 58.6549 46.2917 58.7797C46.5602 58.9045 46.8612 58.9401 47.1512 58.8816C47.4411 58.823 47.705 58.6732 47.9047 58.4538L48.0858 58.2578C48.2809 58.2632 48.4711 58.1962 48.6201 58.0696C48.7692 57.943 48.8667 57.7658 48.894 57.5716V57.3615C51.181 54.9183 53.2467 52.275 55.0666 49.4631C55.9862 48.0627 53.6732 46.2001 52.7954 47.6285" fill="black"/>
<path d="M51.3739 16.6791C51.8354 16.4009 52.176 15.9586 52.3283 15.4398C52.4806 14.921 52.4333 14.3636 52.1959 13.8782C52.0602 13.5727 51.8627 13.299 51.6159 13.0745C51.3691 12.85 51.0785 12.6796 50.7626 12.5742C50.4467 12.4688 50.1124 12.4307 49.781 12.4623C49.4496 12.494 49.1284 12.5946 48.8379 12.7579H48.7543C48.5592 12.8134 48.3847 12.9254 48.2527 13.08C47.9328 13.5055 47.7598 14.0242 47.7598 14.5574C47.7598 15.0907 47.9328 15.6094 48.2527 16.0349C48.6005 16.5168 49.1153 16.8502 49.6956 16.9695C50.276 17.0887 50.8797 16.9851 51.3878 16.6791" fill="black"/>
<path d="M106.955 52.9642L107.15 53.1042L107.081 53.1882L106.955 52.9642ZM64.3739 46.9843C64.5132 47.4045 64.6804 47.8246 64.8476 48.2447C65.648 50.1487 66.7594 51.9048 68.136 53.4403C66.2946 51.6933 64.9891 49.4531 64.3739 46.9843ZM75.0332 30.4173C76.2395 32.1419 76.9702 34.1568 77.1511 36.2571C76.3158 36.235 75.4804 36.296 74.657 36.4391C72.8735 36.6632 71.1735 36.6072 69.39 36.6772C69.3458 36.6754 69.3018 36.6832 69.2609 36.7001C69.22 36.7171 69.1833 36.7427 69.1531 36.7752H65.9623H65.0288C65.3542 34.8299 65.8199 32.9109 66.4221 31.0335C66.8318 30.2378 67.3791 29.5217 68.0385 28.9188C70.3515 26.9302 73.4169 28.1206 75.1168 30.3193L75.0332 30.4173ZM92.8963 49.7852C92.6176 50.7655 92.2832 51.8718 91.9209 52.8241C92.2274 51.8018 92.5479 50.7795 92.8963 49.7852ZM113.713 45.0518C112.676 46.7567 111.527 48.3895 110.272 49.9392C109.867 50.4206 109.363 50.8077 108.795 51.0736C108.196 49.9554 107.791 48.7431 107.596 47.4885C107.499 46.6622 107.429 45.836 107.359 45.0097C107.269 43.2463 107.087 41.4887 106.816 39.7441C106.51 37.065 105.346 34.5583 103.5 32.602C101.772 31.0615 100.337 31.0755 99.1386 31.8737C97.7452 32.4479 97.0485 34.0724 96.3518 35.3048C95.2743 37.172 94.285 39.0859 93.3839 41.0465C93.0913 41.6767 92.8266 42.3069 92.5479 42.9371C92.6733 41.1726 92.7291 39.394 92.7012 37.6295C92.7012 34.8286 92.7012 31.0475 91.4332 28.5127C90.6947 27.1123 89.8726 26.6221 89.1342 26.7482C88.9799 26.6997 88.8146 26.6997 88.6604 26.7482C88.5562 26.6921 88.4415 26.6584 88.3237 26.6493C88.2058 26.6402 88.0874 26.656 87.9759 26.6955C87.8645 26.7351 87.7625 26.7975 87.6764 26.8789C87.5903 26.9603 87.5221 27.0589 87.476 27.1683C86.4031 30.9074 85.3163 34.6326 84.2295 38.3717C83.408 41.9939 82.2847 45.5401 80.8714 48.9729C78.5863 53.6924 73.7095 55.751 69.4179 52.2079C68.7992 51.6913 68.2428 51.1038 67.7598 50.4574C66.5232 48.644 65.6435 46.6094 65.1681 44.4636C64.8571 43.1136 64.7028 41.732 64.7083 40.3463C69.3761 40.6404 74.0439 40.9345 78.642 41.2706C78.8321 41.3021 79.0269 41.2876 79.2102 41.2284C79.3936 41.1692 79.5603 41.0669 79.6965 40.93C79.8327 40.7931 79.9345 40.6256 79.9934 40.4413C80.0524 40.257 80.0668 40.0612 80.0354 39.8702C80.0194 36.4131 79.1581 33.013 77.5273 29.9691C76.7969 28.7364 75.7831 27.6977 74.5709 26.9399C73.3588 26.1821 71.9835 25.7274 70.5605 25.6138C65.1542 25.4878 62.9248 31.7197 62.047 36.9013C58.9015 36.8052 55.7538 36.9927 52.6417 37.4614C52.5059 37.4826 52.3822 37.5522 52.2933 37.6575C51.4852 37.9376 51.7499 39.4921 52.6835 39.5621C55.6653 39.7861 58.6471 39.9822 61.6289 40.1783C61.6358 40.2808 61.6358 40.3838 61.6289 40.4864C61.1552 46.9283 63.4264 54.2385 69.5015 57.1234C70.8341 57.7873 72.2908 58.1615 73.7769 58.2218C75.2629 58.2822 76.745 58.0272 78.1265 57.4735C80.8261 56.1013 82.9111 53.7557 83.9647 50.9055C86.6539 44.6456 86.4728 37.5455 88.8276 31.1875C89.137 33.3246 89.2304 35.4876 89.1063 37.6435C88.9809 38.5538 88.8415 39.394 88.7579 40.1222C88.3771 43.6233 88.0055 47.1244 87.6432 50.6254C87.5039 51.5217 87.3785 52.432 87.3228 53.3283C87.1615 53.9411 87.1354 54.5819 87.2461 55.206C87.3568 55.83 87.6017 56.4223 87.9637 56.9414C90.4021 59.5742 92.4643 55.695 93.37 53.6924C95.4183 49.183 96.0174 44.1415 98.1493 39.6881C98.5673 38.7918 99.8353 35.921 101.382 35.7389C102.029 37.4143 102.464 39.1644 102.678 40.9485C102.991 43.0959 103.159 45.2622 103.179 47.4325C103.183 49.3288 103.456 51.2148 103.988 53.0342C104.517 54.5887 105.66 56.9554 107.624 56.4792C108.559 56.0835 109.389 55.4746 110.049 54.7007C110.834 53.9724 111.578 53.201 112.278 52.39C113.808 50.6373 115.075 48.6701 116.04 46.5502C116.625 45.2758 114.48 43.8614 113.713 45.1498" fill="black"/>
<path d="M95.5858 28.2046C96.5203 27.5024 97.3964 26.725 98.2053 25.8799C99.0855 25.108 100.016 24.3968 100.992 23.7512C101.928 23.1291 102.911 22.5813 103.932 22.1127C105.05 21.7233 106.14 21.2554 107.193 20.7123C108.266 20.0261 107.193 18.4996 106.217 18.5416C103.807 18.6397 101.257 20.2361 99.2504 21.5806C97.2439 22.925 94.8612 24.7875 94.0252 27.0282C93.9666 27.2277 93.9682 27.4403 94.0299 27.6389C94.0917 27.8375 94.2107 28.0131 94.3719 28.1437C94.5331 28.2742 94.7292 28.3536 94.9354 28.372C95.1416 28.3903 95.3486 28.3466 95.5301 28.2466" fill="black"/>
<path d="M149.426 56.1151C147.419 56.1151 145.413 56.1151 143.42 56.1151C144.201 49.267 144.521 42.3349 145.037 35.4728C145.58 28.4007 146.221 21.3145 146.611 14.2143C146.611 13.29 145.343 12.4638 144.716 13.3321C140.565 18.9943 136.883 24.9896 133.709 31.2575C130.788 37.0326 128.188 42.9654 125.92 49.029C125.874 49.0563 125.834 49.0928 125.803 49.1362C125.772 49.1795 125.75 49.2288 125.738 49.281C125.655 49.6031 125.599 49.8132 125.571 49.9812C125.543 50.1493 125.32 50.6394 125.209 50.9755C125.154 51.1588 125.156 51.3546 125.214 51.5368C125.273 51.7189 125.386 51.8786 125.538 51.9944C125.689 52.1103 125.873 52.1767 126.063 52.1849C126.253 52.193 126.441 52.1424 126.602 52.0399H126.686C131.27 49.9672 133.123 43.4693 135.199 39.212C137.67 34.1611 140.132 29.1055 142.584 24.0453C141.776 34.6046 140.959 45.1544 140.132 55.695C140.119 55.8945 140.162 56.0937 140.257 56.2692C139.198 56.2692 138.14 56.4092 137.067 56.5212C135.727 56.5545 134.399 56.7809 133.123 57.1934C132.959 57.2851 132.827 57.426 132.745 57.5966C132.664 57.7672 132.638 57.959 132.67 58.1453C132.702 58.3316 132.791 58.5033 132.925 58.6364C133.059 58.7695 133.23 58.8574 133.416 58.888C134.68 59.028 135.956 59.028 137.22 58.888C138.613 58.888 140.09 58.7759 141.525 58.7619C144.312 58.7619 147.099 58.7619 149.886 58.902C151.697 58.986 151.07 56.1011 149.398 56.1011" fill="black"/>
</g>
<defs>
<clipPath id="clip0_0_1466">
<rect width="151" height="59" fill="white"/>
</clipPath>
</defs>
</svg>
