<svg width="636" height="5" viewBox="0 0 636 5" fill="none" xmlns="http://www.w3.org/2000/svg">
<g clip-path="url(#clip0_0_1473)">
<path d="M106.958 0.709882C107.749 0.709882 108.005 0.709881 108.104 0.817906H106.761C106.84 0.730951 106.941 0.657448 107.057 0.601857L106.958 0.709882ZM117.388 3.68828C116.795 3.68828 116.064 3.68828 115.274 3.68828C115.096 3.53396 115.274 3.37964 115.788 3.37964C115.511 3.48766 116.657 3.58026 117.388 3.70371V3.68828ZM112.509 3.70371H111.304H112.509ZM54.398 5.01544C56.8867 5.01544 55.5634 4.45988 56.0967 4.13581C59.0595 3.96606 57.4793 4.55247 58.4867 4.84569C60.3434 4.69136 61.7655 4.16667 63.1482 4.1821C63.1482 4.29013 63.5235 4.321 63.1482 4.42902C65.1234 3.98149 68.9553 4.42902 71.2466 3.8426C71.3599 3.86649 71.4625 3.91459 71.5429 3.98149C71.3951 3.88954 71.2834 3.76698 71.2206 3.62782C71.1577 3.48865 71.1462 3.33849 71.1873 3.19445C72.3132 3.19445 73.1625 2.83951 73.6761 3.19445C73.2977 3.17834 72.925 3.27174 72.6292 3.45679L73.7946 3.28704C74.8415 3.82716 72.1947 3.47223 72.1947 3.87347C74.4001 3.57638 76.633 3.42153 78.8709 3.4105C79.2462 3.93519 74.7822 3.58026 77.113 4.04322L74.3872 3.7963C76.3624 4.6142 72.728 3.7963 74.6439 4.6142C78.1993 4.76852 78.5944 4.35186 82.1498 4.50618C82.9596 4.21297 81.893 4.07408 82.7028 3.78087C87.7396 3.25618 86.6533 5.0926 90.3667 4.39815C90.9088 4.04815 91.5507 3.80516 92.2382 3.68967C92.9258 3.57418 93.6388 3.58958 94.3171 3.73457L93.4283 4.33642C96.8651 4.33642 95.4035 3.47223 98.9984 3.87347C98.3465 4.10495 96.2923 4.07408 96.8059 4.15125C99.1366 4.61421 98.4651 3.81174 100.243 3.81174L100.618 4.33642C104.292 4.24383 108.321 3.87346 112.469 3.78087C112.232 3.93519 111.541 4.08952 112.469 4.25927C117.741 4.0983 123.021 4.22205 128.271 4.62964L130.148 4.1821C130.582 4.1821 130.957 4.38273 130.483 4.47532C132.459 4.64507 130.582 4.1821 131.51 4.01235C132.439 3.8426 132.952 4.25926 132.261 4.39815C136.643 3.85155 141.096 3.73749 145.515 4.05864L144.823 4.19754C147.608 4.38272 147.964 3.27161 150.552 3.68828H150.058C156.102 3.88889 162.778 3.47223 167.4 4.15125C168.269 3.5031 173.326 4.44445 173.78 3.53396C176.185 4.00165 178.637 4.31137 181.108 4.45988C182.392 4.45988 183.083 3.88889 184.644 3.7963V4.25927L186.836 3.7963L188.002 4.36729L189.503 4.24383C188.91 4.24383 188.239 4.02778 188.318 3.88889C190.279 3.70897 192.267 3.91042 194.105 4.47532L199.675 4.07408C199.557 4.25927 198.628 4.32099 197.897 4.44445C200.86 3.96605 198.431 4.95371 201.157 4.44445C200.781 4.33642 201.354 4.15124 201.413 4.05864C203.64 4.33705 205.903 4.39409 208.149 4.2284L207.695 4.55247C211.823 4.64506 216.405 4.39816 221.047 4.41359C219.368 4.25927 219.763 3.68828 221.047 3.62655L221.58 4.13581C222.469 3.82717 220.158 3.95062 221.956 3.56482C223.694 3.56482 223.121 4.13581 222.133 4.30556L224.247 4.12037C224.365 4.2747 223.872 4.35185 223.733 4.55247C224.602 4.2284 227.368 5.0463 228.612 4.55247L228.731 4.70679C233.372 4.70679 235.466 4.53704 239.239 4.50618C239.239 4.07408 240.799 4.16667 241.905 3.82716C244.69 3.96605 247.831 4.30557 251.11 4.25927C253.46 4.04322 251.781 3.8889 252.848 3.64198C253.026 4.02779 256.364 3.99692 254.626 4.27469C258.576 4.27469 259.741 4.2747 264.818 3.87347C264.265 3.71915 263.652 3.64198 263.968 3.51852C264.897 3.44136 266.062 3.67285 265.944 3.87347H265.707C271.395 3.28705 278.842 5.03086 283.385 4.21296H283.128L287.829 3.78087C289.982 3.78087 286.525 4.08951 288.125 4.33642C293.202 3.67284 296.145 4.42902 300.312 3.98149C303.552 5.15433 311.788 3.98149 316.114 4.64507L315.857 4.36729C316.983 4.10495 317.22 4.53704 318.05 4.59877C317.931 4.38272 316.825 4.35186 317.517 4.19754C327.077 3.87347 337.269 4.59877 347.026 4.84569C350.621 4.84569 349.002 3.42594 353.584 4.08952L352.3 4.59877C359.529 3.98148 367.075 4.59877 374.146 4.08952C373.731 4.21297 373.711 4.36729 373.02 4.36729C374.87 4.66244 376.788 4.56112 378.571 4.07408C379.677 4.07408 378.827 4.35186 379.519 4.50618C381.02 4.72223 383.272 4.02778 384.081 4.39815C384.2 4.39815 383.647 4.52161 383.37 4.55247C384.358 4.36729 387.933 4.55247 386.985 4.16667C389.651 4.36729 392.081 3.98148 394.194 4.16667C395.577 3.68827 398.737 4.39815 399.172 3.71914C398.994 4.42901 403.834 4.29013 405.512 3.96606C404.94 4.16667 406.974 4.18211 406.303 4.47532C408.278 4.47532 409.976 4.33643 409.641 3.96606C413.176 4.79939 416.751 3.30248 418.727 4.36729C424.435 3.99692 429.689 3.73457 434.805 3.58025C434.627 4.2747 429.156 3.58025 429.373 4.38272C433.507 3.91204 437.679 3.66968 441.856 3.65742C443.101 3.75001 441.145 3.96606 440.711 4.07408C445.57 3.7963 450.093 4.07408 454.419 3.76544C454.137 3.87818 453.827 3.94137 453.51 3.95062C454.36 3.95062 455.485 4.05865 455.485 3.73457L454.656 3.82716C453.293 3.3642 458.034 2.87037 458.191 2.62346C456.75 3.53395 462.458 2.85494 460.167 3.99691C460.72 3.99691 461.411 3.7963 461.293 3.58025C462.122 3.58025 462.379 3.76543 461.549 3.99691C464.591 3.82716 463.525 3.48766 466.27 3.50309C466.27 3.65741 465.697 3.71914 465.421 3.88889C467.08 3.48369 468.823 3.32663 470.556 3.42593C470.418 3.51853 470.695 3.64198 469.984 3.64198C473.934 3.64198 476.818 2.83951 481.223 3.13272C479.919 3.7963 482.704 3.34877 482.941 3.91976L485.311 3.75001L484.363 3.47223C486.253 3.32072 488.152 3.2486 490.052 3.25618L488.511 3.48766L492.462 3.37964L490.269 3.16358C492.363 2.87037 490.052 2.43828 492.797 2.5926C493.86 2.64663 494.916 2.76009 495.958 2.93211C497.132 2.6714 498.358 2.5876 499.572 2.68519C499.967 2.87037 499.256 3.33334 499.572 3.45679C500.58 2.96297 504.431 3.31791 505.695 2.80865C505.281 2.9321 505.261 3.22531 505.399 3.28704L506.248 2.90124C507.197 3.02469 507.335 3.08643 507.197 3.31791C510.08 3.31791 506.268 2.5926 509.705 2.91667C509.472 2.97478 509.235 3.02117 508.994 3.05556C512.431 3.22531 515.651 2.80864 518.87 3.05556C519.798 3.62654 516.105 3.19445 517.171 3.68828C521.734 3.58025 526.613 2.9784 530.998 3.11729H530.168C530.781 2.29938 533.467 3.51852 535.699 3.11729C535.146 3.11729 534.968 3.58026 535.126 3.48766C538.716 3.49422 542.304 3.33964 545.871 3.0247L545.299 3.24075C547.096 3.42593 550 3.34877 551.915 3.44136C552.488 3.22531 553.594 3.27161 552.923 2.96297C558.849 4.15124 564.221 2.31482 569.495 3.31791C568.863 3.31791 567.994 3.50309 568.488 3.50309L572.971 3.30247C572.616 2.94754 572.379 3.08643 571.45 2.80865C572.396 2.55091 573.392 2.42554 574.393 2.43828C572.418 2.66976 574.393 3.00927 575.263 3.20989C575.124 3.10186 575.421 2.9784 575.263 2.87038C577.613 3.50309 575.658 2.14507 578.857 2.57716L578.699 2.76235C579.88 2.59205 581.075 2.49402 582.275 2.46914C582.808 2.88581 581.01 2.66975 580.931 3.00926C582.729 3.00926 584.507 2.22223 586.146 2.63889C585.376 2.74692 584.27 2.76235 583.499 2.87038C584.559 3.18189 585.686 3.32867 586.818 3.30247H586.679L589.741 3.51852L588.971 3.37964C591.242 2.31483 593.573 3.19445 596.634 2.48458C593.672 3.14816 596.141 2.87037 595.923 3.33333C596.694 3.47222 597.898 3.61112 597.543 3.75001C598.985 3.3642 599.953 4.04322 601.987 3.48766C602.086 3.64199 603.528 3.48766 603.212 3.87347C605.187 3.76544 602.758 3.62655 602.916 3.42593C605.819 2.91668 609.73 4.05865 613.878 3.42593C617.473 3.13272 618.145 2.62346 621.463 2.37655C622.589 2.62346 620.554 2.91667 620.554 2.91667C622.17 3.1173 623.817 3.1173 625.433 2.91667C625.078 3.04013 625.433 3.16358 625.966 3.33333C627.329 3.33333 626.875 2.77778 628.692 3.00926C628.273 3.26308 627.807 3.46598 627.31 3.61111C628.929 3.47222 630.529 3.19444 632.208 3.05556C632.643 3.3179 631.181 3.44136 630.608 3.62655C632.459 3.63222 634.299 3.40823 636.06 2.96297L634.855 2.82408C635.526 2.82408 635.191 3.17902 634.697 3.25618C633.077 3.58025 632.366 3.10186 632.287 2.96297L633.472 2.85494C632.248 1.97531 628.692 3.00926 626.282 2.94753L627.29 2.31482L624.821 2.83951C624.307 2.66975 623.952 2.31483 625.137 2.22223C623.418 1.89816 623.616 2.45371 622.134 2.09877C621.976 2.09877 622.036 2.00618 622.134 1.97531L620.456 2.17593C620.791 2.03704 620.179 1.71297 621.206 1.82099C618.184 1.45062 616.347 2.29939 615.28 1.82099H615.517C611.35 2.03704 615.122 2.28395 611.982 2.83951L609.868 1.6821L609.454 2.14507C609.019 2.14507 608.17 2.14507 608.328 1.91358C606.728 2.23766 608.604 2.1142 607.676 2.42285C605.701 1.99075 601.948 2.62346 601.474 1.86729C600.743 2.22223 603.449 2.14506 601.256 2.39197C600.624 1.58951 598.689 2.53087 596.792 2.1605C597.365 1.74384 599.163 1.95988 597.266 1.58951C596.121 2.29939 593.573 1.43519 591.973 1.58951C591.973 2.14507 588.496 1.82099 585.81 2.00617C585.988 1.82099 580.754 1.69754 578.265 1.49692V1.40432C577.791 1.97531 575.203 1.86729 573.327 1.97531C573.327 1.63581 573.742 1.51235 574.769 1.35803H572.991C572.335 1.59276 571.619 1.70881 570.897 1.69754L571.332 1.28087C568.762 1.50921 566.173 1.58144 563.589 1.49692C563.411 1.88272 565.979 2.5926 562.799 2.85494C562.68 2.63889 562.562 2.28395 563.392 2.19136C562.894 2.28512 562.381 2.31637 561.871 2.28395L563.135 1.91358C561.772 1.75926 562.424 2.22223 561.318 2.19136C561.318 1.88272 560.508 1.95989 560.666 1.72841C560.824 1.49692 561.634 1.85186 562.048 1.72841C560.943 1.7204 559.847 1.56379 558.809 1.26544C558.928 1.43519 558.809 1.68211 557.9 1.71297C555.55 1.71297 557.091 1.34259 555.728 1.18827C555.155 1.40432 553.654 1.18827 553.634 1.63581C553.433 1.63981 553.233 1.61177 553.046 1.5534C552.859 1.49503 552.69 1.40755 552.548 1.2963C551.323 1.49691 546.879 1.2963 548.242 1.85185H548.558H548.301C544.35 2.29938 540.025 1.58951 536.074 1.85185V1.69754C533.755 1.74352 531.441 1.88776 529.141 2.12963C528.45 2.12963 527.502 1.85186 527.798 1.66668C526.267 1.85767 524.707 1.85767 523.176 1.66668C524.993 1.40433 522.564 1.43519 525.033 1.48149C523.26 1.2042 521.433 1.2042 519.66 1.48149C520.51 1.09568 517.883 0.987663 516.776 1.11112L518.416 1.3889C517.265 1.44327 516.11 1.44327 514.959 1.3889L515.552 0.879636C510.772 0.262352 506.92 1.94445 503.266 0.879636C502.002 1.25001 505.873 1.14199 504.728 1.55865C502.975 1.37411 501.24 1.10089 499.533 0.740741C496.511 0.462963 496.728 1.49692 493.607 1.31173C494.002 1.48149 494.377 1.97531 492.027 2.14507C489.676 2.31482 489.301 1.37346 490.704 1.23457C491.237 1.23457 491.494 1.23458 491.474 1.3426C492.185 1.3426 493.113 1.18828 492.244 0.98766L491.948 1.17285C490.862 0.987664 487.82 1.00309 488.531 0.709882C486.872 0.879635 487.82 1.00309 489.064 1.11112C486.22 0.833342 484.64 1.11112 481.716 0.92593C482.19 1.01852 482.605 1.23457 482.151 1.23457C477.884 1.00309 480.274 1.57408 477.371 1.66668C475.731 1.3889 477.963 0.987654 475.04 1.23457C473.262 1.03395 474.665 0.740743 475.376 0.586422C473.209 0.726018 471.029 0.627327 468.897 0.29322L470.3 0.154325C469.563 0.19049 468.824 0.19049 468.087 0.154325L468.877 0.524692C468.048 0.524692 467.357 0.524693 467.376 0.308644C466.527 0.540125 468.028 0.910493 466.349 1.23457C465.243 1.04938 463.011 1.4352 462.636 0.956801C466.073 1.12655 462.26 0.462969 465.164 0.385809C464.475 0.448202 463.779 0.448202 463.09 0.385809C462.971 0.385809 463.209 0.277778 463.426 0.246914C460.147 -0.185185 461.925 0.802479 458.508 0.787047C458.942 0.509269 457.717 0.277783 457.164 0.324079C458.527 0.324079 457.816 0.787046 456.552 1.0031C455.372 0.927926 454.184 0.969397 453.016 1.12654L454.34 1.23457C453.354 1.48965 452.316 1.59954 451.278 1.55865C451.14 1.3426 452.661 1.40433 452.108 1.31173C450.409 1.79013 448.276 0.817904 445.925 1.14198C444.819 0.956793 445.807 0.61729 444.859 0.493833C442.192 0.848772 441.975 0.123463 439.19 0.493833C440 0.864204 440.138 0.771605 438.183 1.12654L442.765 0.8642L439.822 1.40432C441.205 1.40432 442.726 1.17284 443.555 1.23457C442.153 1.54321 442.311 1.45062 442.963 1.75926C441.086 1.20371 439.229 2.06791 437.037 1.75926V0.848765C433.758 0.44753 431.21 1.31173 426.944 1.09568L428.306 1.25C427.734 1.60494 425.679 1.25001 424.356 1.45063C424.494 1.14199 423.625 1.03396 423.033 0.833341C423.033 1.06482 419.912 0.83334 419.517 1.43519L417.542 1.03395C414.105 0.864201 413.591 1.89815 410.293 1.79012C411.3 1.46605 409.799 1.25001 412.011 1.0031C410.905 1.0031 409.917 1.00309 409.897 1.15741C409.246 0.972229 406.836 1.57408 405.809 1.28087C405.272 1.58788 404.616 1.74053 403.952 1.71297C403.814 1.71297 403.952 1.55865 403.952 1.55865C403.952 1.55865 401.977 1.75927 403.103 2.09877C399.686 1.15741 393.582 2.09877 390.619 1.35803C388.21 1.45062 385.306 1.55864 383.114 1.57408C383.252 1.48148 383.114 1.41976 383.528 1.45063C380.506 1.17285 381.672 2.33025 378.235 2.00617C376.477 1.52778 380.052 1.74384 378.966 1.55865C378.492 0.555565 374.818 1.69754 372.507 1.11112H373.06C371.302 0.771613 368.754 1.49692 365.87 1.41976C365.87 1.41976 366.008 1.32717 365.87 1.26544C363.083 1.77242 360.237 2.0517 357.376 2.09877C358.246 1.69754 358.641 1.88272 358.127 1.48149C356.863 1.48149 358.483 2.12963 355.994 2.23766C355.184 2.02161 353.387 1.83642 353.149 1.41976H355.5C354.295 0.864201 352.458 1.41976 351.234 1.41976L351.392 1.17285C347.797 1.26544 347.737 1.86729 343.886 1.82099L344.281 2.00617C342.167 2.60802 342.503 1.66668 340.33 2.11421L339.679 1.49692C338.296 1.65124 334.8 2.09877 332.311 2.2068C334.327 1.77533 336.38 1.45561 338.454 1.25C336.638 1.191 334.82 1.31025 333.042 1.60495C333.635 1.48743 334.249 1.44573 334.859 1.48149C332.703 2.01691 330.444 2.25707 328.183 2.19136C328.657 1.00309 320.993 1.89815 318.998 0.972225C314.139 1.40432 309.339 0.78704 303.67 0.8642C305.646 1.77469 302.011 0.864204 302.367 1.82099C301.713 1.90943 301.045 1.90943 300.391 1.82099L296.441 1.26544C295.493 0.98766 297.705 1.04938 297.587 0.848765C294.683 0.848765 296.362 0.447533 294.446 0.200619C294.841 0.524694 293.439 0.67902 291.799 0.555563L294.11 0.98766C290.16 1.48149 290.614 0.185187 286.545 0.694446L287.829 0.385809C285.755 0.570994 280.126 0.385806 278.072 1.14198C277.696 1.03395 277.222 0.77161 278.072 0.709882C273.074 0.601857 266.951 1.51235 263.08 1.04939L263.455 0.817906C262.527 0.817906 261.835 1.25 260.67 1.01852C260.67 0.925926 261.045 0.787044 260.67 0.771611C259.453 0.992804 258.205 1.08622 256.956 1.04939L258.003 0.787047C253.144 0.478405 250.537 1.41975 246.448 1.57408C246.448 0.895063 242.616 0.679023 240.7 0.570998V0.462962C235.012 0.462962 231.061 1.03395 225.788 1.2963C222.528 0.555556 214.746 0.987665 209.512 0.570998C210.302 0.694455 209.373 1.11112 208.445 1.17285C207.201 1.03396 205.048 1.65123 205.226 1.01852H205.68C204.751 0.401235 202.223 0.570995 200.248 0.555563L199.912 1.37346C194.757 0.185191 186.382 1.80556 183.557 0.740741C182.313 0.941358 180.772 0.941361 179.607 1.14198V0.709882C176.15 0.601857 174.432 0.540129 170.165 0.709882L171.035 0.401244C168.625 0.401244 167.993 1.65124 165.78 1.6821L165.109 1.03395C160.902 1.03395 156.655 0.462967 152.507 1.03395C152.507 0.941362 152.704 0.740749 153.376 0.725317C151.401 0.725317 145.732 0.277788 146.443 1.17285C146.443 0.58643 142.117 1.17285 139.846 1.37346L140.201 0.941365C138.743 1.48024 137.153 1.7696 135.54 1.79012C134.908 1.79012 134.987 1.45063 135.836 1.55865C133.723 1.3426 134.197 1.97531 131.629 1.74383L132.577 1.46605C131.486 1.35887 130.378 1.50936 129.397 1.89815C127.886 2.07271 126.342 1.90118 124.953 1.40432C124.127 1.80258 123.146 1.95593 122.187 1.83643C122.01 1.69754 122.484 1.60495 122.721 1.55865C119.086 1.26544 117.309 2.06791 114.82 1.55865C114.784 1.49016 114.724 1.43083 114.647 1.38725C114.571 1.34367 114.48 1.31753 114.385 1.31173C117.269 1.31173 119.6 1.31173 119.383 1.31173C119.383 0.910498 117.052 0.848776 118.909 0.29322C116.515 0.806985 114.043 1.06142 111.561 1.04939C111.453 1.02368 111.352 0.981739 111.264 0.92593H111.501C111.024 0.86261 110.537 0.86261 110.06 0.92593C109.405 0.851578 108.745 0.810337 108.084 0.80247C107.808 0.478396 105.418 0.632725 104.252 0.617293C104.252 1.04939 102.83 0.97223 104.252 1.32717C104.055 1.32717 104.47 1.32717 105.24 1.32717C105.404 1.33749 105.57 1.33749 105.734 1.32717H108.618C107.606 1.61905 106.507 1.6727 105.457 1.48149C104.865 1.75926 104.213 2.05247 103.838 2.19136C102.257 1.57408 99.1761 1.25001 98.7614 0.879636C95.206 1.12655 90.4062 1.03395 88.1742 1.85185C87.1668 1.95988 87.0088 1.62038 86.6335 1.49692C87.1642 1.45781 87.6917 1.39599 88.2137 1.31173C86.2385 1.51235 82.288 1.31173 81.7547 1.95988C79.2265 1.69753 83.1966 1.43519 79.7795 1.52778L80.2536 1.35803C73.3798 0.447533 69.0738 2.80865 61.4495 1.63581C61.9828 1.63581 62.2396 1.74384 62.3581 1.83643C53.6672 1.32717 44.4429 2.31481 35.8705 1.51235C34.447 1.38835 33.0065 1.54761 31.683 1.97531L31.1694 1.51235L28.6214 2.05248C25.0068 2.43828 22.3797 0.9105 17.817 1.65124L18.3898 1.95988C16.7504 1.95988 13.2147 2.14506 13.4715 1.79012C13.309 1.88951 13.1182 1.95683 12.9154 1.98638C12.7125 2.01593 12.5035 2.00684 12.3061 1.95988V1.71297L8.35568 2.12963C5.23484 1.94445 8.84949 1.15742 4.28674 1.11112C2.60781 1.20371 -0.532792 1.821 0.0992775 1.99075C0.731347 2.1605 1.85722 2.12964 1.91648 2.37655L0.356058 2.51543C0.0795274 3.22531 -1.1056 3.96606 2.68681 4.45988L5.3336 4.02779L6.18295 4.36729H3.9707C4.95299 4.58575 6.00253 4.52562 6.93353 4.19754C7.23209 4.42446 7.62408 4.56119 8.03965 4.58334L10.6272 3.90433C10.9432 4.1821 9.46181 4.45988 11.2197 4.6142C12.4246 4.29013 10.0544 3.98148 12.0691 3.78087C13.3332 4.10494 12.9579 4.36729 14.4591 4.08952C14.6566 4.2747 14.3406 4.39816 13.748 4.47532C15.0714 4.24384 17.2639 4.38272 17.9355 3.99691C19.2589 4.39815 22.4192 3.88889 22.281 4.56791C23.4293 4.26037 24.6249 4.07354 25.8364 4.01235C23.6044 4.83025 30.3794 4.01235 29.7868 4.93827C31.446 4.19753 35.7124 4.59877 38.6555 4.19754C38.4285 4.30104 38.1672 4.34938 37.9049 4.33642C38.9789 4.39976 40.0433 4.53923 41.085 4.7531C41.2825 4.15124 43.8503 4.01235 45.2132 3.64198C47.1884 4.2284 44.0083 4.35186 44.6207 4.90741C44.6207 4.42902 48.1168 4.42902 47.4452 4.01235C48.9661 4.38272 48.7686 4.19754 49.5587 4.69137C49.8155 3.93519 50.9809 4.5679 52.2648 4.10494C54.477 4.47531 52.8376 4.79939 55.2671 4.58334C56.4325 4.81482 54.2597 5.07717 54.2597 5.07717" fill="black"/>
</g>
<defs>
<clipPath id="clip0_0_1473">
<rect width="636" height="5" fill="white"/>
</clipPath>
</defs>
</svg>
