<svg width="3" height="589" viewBox="0 0 3 589" fill="none" xmlns="http://www.w3.org/2000/svg">
<path d="M2.59271 99.0721C2.59271 99.7855 2.5927 100.023 2.52788 100.115C2.52788 99.7855 2.52788 99.3831 2.52788 98.8709V98.7795C2.58672 98.845 2.63246 98.9482 2.65753 99.0721H2.59271ZM0.861229 108.639C0.861229 108.09 0.861229 107.395 0.861229 106.664C0.944563 106.517 1.03716 106.664 1.03716 107.139C0.972343 106.901 0.926035 107.962 0.851961 108.639H0.861229ZM0.851961 104.103C0.851961 103.645 0.851961 103.243 0.851961 103.005C0.851961 103.225 0.851961 103.554 0.851961 104.103ZM0.0649324 50.3044C0.0649324 52.6092 0.407527 51.3836 0.601971 51.8592C0.694564 54.6214 0.351965 53.1397 0.176039 54.0726C0.259372 55.7921 0.574185 57.1092 0.564926 58.3896C0.509371 58.3896 0.490849 58.7372 0.416775 58.3896C0.685293 60.2189 0.416779 63.7859 0.768631 65.8895C0.757036 65.9967 0.727722 66.0933 0.685301 66.1639C0.743536 66.0348 0.817382 65.9368 0.899955 65.8792C0.982529 65.8216 1.07114 65.8063 1.15752 65.8347C1.15752 66.8773 1.37048 67.6639 1.15752 68.1578C1.17238 67.8006 1.11589 67.446 1.00011 67.17L1.10196 68.2493C0.777891 69.2188 0.990849 66.7676 0.750108 66.7676C0.932541 68.8089 1.02548 70.8775 1.02789 72.9504C0.713074 73.298 0.926034 69.1822 0.648256 71.3407L0.768631 68.8346C0.268631 70.6639 0.768637 67.3164 0.268637 69.0724C0.176045 72.3651 0.435306 72.7309 0.342713 76.0419C0.50938 76.7736 0.601964 75.7858 0.768631 76.5358C1.08345 81.2004 -0.0184004 80.1943 0.398266 83.6333C0.607585 84.1361 0.752941 84.7305 0.822206 85.367C0.891472 86.0034 0.882628 86.6635 0.796408 87.2918L0.444551 86.4686C0.444551 89.6515 0.953818 88.2979 0.713078 91.6271C0.574189 91.0234 0.592709 89.121 0.555672 89.5966C0.268635 91.7551 0.759377 91.1332 0.759377 92.7978L0.444551 93.1454C0.444551 96.5295 0.71307 100.279 0.777885 104.029C0.685293 103.828 0.583443 103.17 0.49085 104.029C0.584946 108.912 0.5076 113.802 0.259369 118.663L0.537149 120.401C0.537149 120.822 0.407518 121.169 0.361221 120.73C0.25011 122.56 0.527891 120.822 0.639002 121.663C0.750113 122.505 0.4816 123.017 0.398266 122.377C0.731019 126.428 0.79948 130.547 0.601971 134.633L0.527895 133.993C0.416784 136.572 1.08344 136.901 0.824184 139.297L0.777885 138.84C0.657515 144.438 0.907526 150.639 0.500119 154.901C0.889008 155.724 0.324187 160.389 0.870483 160.809C0.590776 163.037 0.408015 165.307 0.32419 167.596C0.32419 168.803 0.657517 169.425 0.722332 170.87H0.435297L0.7316 172.882L0.388998 173.962L0.463074 175.352C0.463074 174.803 0.592699 174.181 0.676033 174.273C0.779477 176.088 0.662026 177.925 0.333445 179.632L0.574194 184.791C0.453824 184.663 0.416787 183.803 0.342713 183.126C0.639009 185.87 0.0464167 183.62 0.342713 186.144C0.407528 185.797 0.509371 186.327 0.564926 186.382C0.397883 188.445 0.36366 190.541 0.463074 192.62L0.268637 192.218C0.222341 196.041 0.361221 200.266 0.361221 204.565C0.453814 203.028 0.787147 203.376 0.824184 204.565L0.518627 205.059C0.713071 205.882 0.639007 203.76 0.861229 205.425C0.861229 207.016 0.518635 206.504 0.426043 205.571L0.527895 207.528C0.435303 207.638 0.389002 207.181 0.277891 207.071C0.463077 207.858 -0.0276642 210.419 0.277891 211.589L0.194561 211.699C0.194561 215.979 0.28715 217.919 0.305668 221.412C0.564927 221.412 0.509369 222.857 0.722332 223.9C0.638999 226.461 0.435301 229.388 0.45382 232.406C0.583449 234.583 0.676045 233.046 0.833453 234.016C0.592712 234.181 0.611218 237.272 0.444551 235.662C0.444551 239.321 0.44456 240.418 0.685301 245.101C0.777894 244.589 0.824181 244.022 0.907514 244.315C0.907514 245.174 0.805666 246.254 0.694555 246.144V245.906C1.04641 251.193 0.000118662 258.071 0.500119 262.278V262.04L0.759377 266.394C0.759377 268.406 0.583445 265.186 0.435297 266.668C0.824186 271.369 0.379743 274.095 0.639002 277.954C-0.0647018 280.954 0.685305 288.582 0.240861 292.588L0.40752 292.351C0.564928 293.393 0.314928 293.613 0.277891 294.381C0.398262 294.271 0.42604 293.247 0.509373 293.905C0.713077 302.741 0.268634 312.198 0.120486 321.234C0.120486 324.545 0.972337 323.064 0.583449 327.289L0.277891 326.1C0.639002 332.795 0.277898 339.783 0.574194 346.35C0.50012 345.948 0.407515 345.948 0.416775 345.307C0.239009 347.019 0.296565 348.794 0.583449 350.448C0.583449 351.472 0.416783 350.685 0.32419 351.307C0.194561 352.698 0.61122 354.801 0.388998 355.533C0.388998 355.661 0.314932 355.149 0.296414 354.893C0.407525 355.789 0.296414 359.1 0.527895 358.24C0.407525 360.691 0.648266 362.941 0.527895 364.899C0.814932 366.179 0.389 369.106 0.796408 369.508C0.379741 369.344 0.46308 373.825 0.657524 375.38C0.527895 374.868 0.527893 376.734 0.351967 376.13C0.351967 377.96 0.435293 379.533 0.648256 379.222C0.148256 382.478 1.05567 385.789 0.40752 387.636C0.629743 392.905 0.787154 397.77 0.889006 402.526C0.46308 402.343 0.842706 397.276 0.40752 397.478C0.682222 401.308 0.824533 405.17 0.833453 409.038C0.777897 410.191 0.657523 408.38 0.583449 407.996C0.750115 412.477 0.583446 416.685 0.768631 420.673C0.768631 420.673 0.685302 420.233 0.657524 419.831C0.657524 420.618 0.592709 421.66 0.787153 421.66L0.7316 420.892C1.00938 419.63 1.31493 424.02 1.45382 424.166C0.907525 422.831 1.31493 428.118 0.629748 425.996C0.629748 426.508 0.759376 427.166 0.889006 427.038C0.889006 427.807 0.777896 428.063 0.629748 427.276C0.7316 430.093 0.935296 429.105 0.926037 431.648C0.833444 431.648 0.805666 431.136 0.694555 430.861C0.941472 432.397 1.0358 434.012 0.972336 435.617C0.91678 435.489 0.851961 435.745 0.851961 435.105C0.851961 438.764 1.32418 441.416 1.15752 445.495C0.750111 444.288 1.01863 446.886 0.676033 447.105L0.777885 449.282L0.944559 448.404C1.04269 450.153 1.08906 451.912 1.08344 453.672L0.935305 452.245L1.00011 455.904L1.12974 453.873C1.31493 455.812 1.57418 453.672 1.47233 456.215C1.43991 457.199 1.37185 458.177 1.26864 459.142C1.42145 460.224 1.46858 461.354 1.40752 462.471C1.29641 462.855 1.02789 462.178 0.953813 462.471C1.24085 463.422 1.02789 466.971 1.3427 468.16C1.26863 467.757 1.08345 467.739 1.04641 467.867L1.27789 468.654C1.20382 469.55 1.16678 469.678 1.02789 469.532C1.02789 472.202 1.46308 468.672 1.27789 471.855C1.27789 471.599 1.22233 471.727 1.18529 471.196C1.08344 474.398 1.33344 477.361 1.18529 480.343C0.833443 481.202 1.09271 477.782 0.805676 478.769C0.870491 482.995 1.22233 487.513 1.139 491.574V490.824C1.62974 491.391 0.898255 493.861 1.139 495.928C1.139 495.416 0.861227 495.269 0.916782 495.397C0.912622 498.722 1.00537 502.045 1.19456 505.348L1.06493 504.836C0.953823 506.483 1.00011 509.172 0.944559 510.946C1.07419 511.476 1.05567 512.501 1.23159 511.879C0.518631 517.367 1.62049 522.36 1.01863 527.226C1.01863 526.641 0.916773 525.836 0.907514 526.293L1.02789 530.446C1.24085 530.116 1.15753 529.915 1.32419 529.037C1.48176 529.911 1.55707 530.835 1.54641 531.763C1.40752 529.934 1.20381 531.763 1.08344 532.586C1.14826 532.44 1.22233 532.732 1.28715 532.586C0.907518 534.745 1.72233 532.952 1.46308 535.897L1.35197 535.751C1.45415 536.844 1.51297 537.951 1.5279 539.062C1.2779 539.574 1.40752 537.891 1.20382 537.818C1.20382 539.5 1.67604 541.129 1.42604 542.647C1.36123 541.933 1.36122 540.909 1.28715 540.196C1.10024 541.177 1.01217 542.221 1.02789 543.269V543.141L0.89826 545.994L0.972336 545.263C1.62048 547.366 1.09271 549.543 1.50937 552.36C1.11123 549.616 1.27789 551.921 1.00011 551.702C0.926038 552.433 0.833451 553.531 0.759377 553.202C0.981599 554.537 0.58344 555.433 0.907514 557.336C0.814922 557.336 0.907514 558.763 0.676033 558.452C0.740848 560.281 0.833448 558.049 0.944559 558.195C1.25011 560.866 0.574192 564.488 0.990858 568.348C1.16678 571.659 1.47233 572.281 1.62048 575.354C1.48159 576.396 1.29642 574.512 1.29642 574.512C1.1808 576.01 1.1808 577.533 1.29642 579.031C1.22234 578.72 1.15752 579.031 1.05567 579.525C1.05567 580.787 1.37975 580.366 1.25012 582.049C1.09614 581.669 0.9742 581.243 0.889006 580.787C0.972339 582.268 1.13901 583.75 1.22234 585.305C1.06493 585.707 0.981589 584.372 0.879738 583.823C0.869479 585.537 1.00085 587.242 1.26864 588.872L1.36122 587.756C1.36122 588.396 1.14826 588.085 1.10196 587.61C0.90752 586.128 1.1853 585.451 1.27789 585.378L1.33345 586.476C1.86122 585.341 1.25012 582.049 1.27789 579.835L1.66678 580.75L1.3427 578.482C1.44455 577.988 1.65752 577.659 1.71308 578.756C1.90752 577.165 1.58345 577.348 1.79641 575.976C1.79641 575.829 1.84271 575.976 1.86123 575.976L1.74086 574.421C1.82419 574.732 2.01864 574.165 1.96308 575.116C2.18531 572.336 1.67605 570.616 1.96308 569.628V569.866C1.83345 565.988 1.67603 569.482 1.3427 566.573L2.04641 564.616L1.75938 564.25C1.75938 563.848 1.75937 563.061 1.90752 563.208C1.71307 561.708 1.77788 563.445 1.60196 562.586C1.85196 560.665 1.48159 557.281 1.92604 556.86C1.71308 556.165 1.75938 558.689 1.61123 556.641C2.10197 556.055 1.52789 554.263 1.75011 552.507C2.00011 553.055 1.87049 554.72 2.09271 552.946C1.66679 551.903 2.1853 549.525 2.09271 548.043C1.75938 548.043 1.95382 544.824 1.84271 542.336C1.95382 542.5 2.0279 537.653 2.14827 535.348H2.20382C1.87049 534.891 1.9353 532.513 1.86123 530.775C2.06493 530.775 2.14826 531.159 2.2316 532.092V530.464C2.0912 529.849 2.02162 529.181 2.02789 528.507L2.28715 528.909C2.14066 526.531 2.09729 524.132 2.15752 521.739C1.91678 521.574 1.49085 523.97 1.33345 521.007C1.46308 520.897 1.68531 520.787 1.7316 521.556C1.68949 521.09 1.68949 520.613 1.7316 520.147L1.94456 521.336C2.03715 520.056 1.76864 520.659 1.78716 519.653C1.96308 519.653 1.91678 518.885 2.05567 519.031C2.19456 519.178 1.98159 519.928 2.05567 520.312C2.06517 519.289 2.15899 518.275 2.33345 517.312C2.2316 517.422 2.0927 517.312 2.06492 516.47C2.06492 514.312 2.28715 515.739 2.37975 514.458C2.25012 513.946 2.37974 512.629 2.11122 512.519C2.10987 512.333 2.12718 512.148 2.16214 511.976C2.1971 511.803 2.24903 511.646 2.31493 511.513C2.19456 510.397 2.31493 506.263 1.99086 507.525V507.818C1.99086 507.818 1.99086 507.708 1.99086 507.635C1.72234 503.977 2.14826 499.97 2.03714 496.312H2.12049C2.09714 494.164 2.01058 492.02 1.86123 489.891C1.86123 489.251 2.03715 488.373 2.139 488.647C2.02913 487.235 2.02913 485.798 2.139 484.385C2.2964 486.05 2.27789 483.8 2.25937 486.105C2.42103 484.455 2.42103 482.76 2.25937 481.111C2.49085 481.897 2.55567 479.483 2.4816 478.44L2.31493 479.958C2.31493 478.806 2.31493 477.782 2.31493 476.757L2.62048 477.324C3.00011 472.879 1.98159 469.312 2.62048 465.928C2.40752 464.757 2.47233 468.343 2.21307 467.3C2.32748 465.678 2.49135 464.072 2.70381 462.489C2.87048 459.69 2.25011 459.873 2.37048 457.001C2.25937 457.367 1.96308 457.733 1.86123 455.538C1.86123 453.489 2.32419 453.032 2.40752 454.312C2.40752 454.806 2.40753 455.044 2.35197 455.026C2.35197 455.684 2.4353 456.544 2.55568 455.739L2.44455 455.483C2.55567 454.459 2.54641 451.642 2.72234 452.3C2.62048 450.764 2.54641 451.642 2.49085 452.794C2.64826 450.178 2.49085 448.697 2.60196 446.008C2.53715 446.428 2.40752 446.831 2.40752 446.392C2.54641 442.441 2.20382 444.654 2.15752 441.965C2.32419 440.447 2.55567 442.514 2.41678 439.825C2.52789 438.178 2.70382 439.477 2.79641 440.117C2.71265 438.111 2.77188 436.091 2.97234 434.117L3.06492 435.416C3.02041 434.737 3.00184 434.052 3.00937 433.367L2.78716 434.099C2.83345 433.349 2.83345 432.691 2.92604 432.709C2.77789 431.922 2.55567 433.313 2.36122 431.758C2.47234 430.752 2.24085 428.666 2.52788 428.319C2.43529 431.502 2.82419 427.971 2.87049 430.66C2.8337 430.022 2.8337 429.378 2.87049 428.74C2.87049 428.63 2.92604 428.849 2.94456 429.069C3.20382 426.014 2.61122 427.66 2.62048 424.496C2.78715 424.898 2.9353 423.764 2.89826 423.252C2.89826 424.532 2.62048 423.855 2.50011 422.685C2.54849 421.597 2.52045 420.501 2.41678 419.429L2.36122 420.636C2.19785 419.728 2.13163 418.762 2.16677 417.801C2.28714 417.673 2.25012 419.081 2.30567 418.569C2.01863 417.014 2.61123 415.038 2.40752 412.843C2.52789 411.819 2.72234 412.752 2.79641 411.855C2.58345 409.404 3.01864 409.203 2.84271 406.624C2.62049 407.356 2.67604 407.484 2.46308 405.673L2.62048 409.917L2.2964 407.191C2.2964 408.471 2.43529 409.898 2.39826 410.667C2.22233 409.368 2.2779 409.496 2.09271 410.118C2.42605 408.288 1.89827 406.642 2.09271 404.63H2.63901C2.87975 401.575 2.36122 399.142 2.50011 395.264L2.39826 396.545C2.18529 396.014 2.39826 394.094 2.28715 392.886C2.46307 393.014 2.53715 392.209 2.64826 391.661C2.50937 391.661 2.64825 388.77 2.2964 388.423L2.53715 386.594C2.62975 383.411 2.00938 382.935 2.07419 379.899C2.27789 380.813 2.40752 379.423 2.54641 381.472C2.54641 380.447 2.54642 379.533 2.45382 379.514C2.56493 378.911 2.21308 376.679 2.37975 375.728C2.19952 375.228 2.11129 374.621 2.12974 374.008C2.12974 373.88 2.21307 374.008 2.21307 374.008C2.21307 374.008 2.09271 372.179 1.88901 373.203C2.46308 370.057 1.889 364.386 2.3427 361.643C2.27789 359.411 2.22234 356.722 2.20382 354.691C2.25937 354.82 2.29641 354.691 2.27789 355.076C2.44456 352.277 1.75012 353.356 1.94456 350.173C2.24086 348.545 2.10196 351.874 2.21307 350.85C2.81492 350.411 2.12975 347.009 2.4816 344.868V345.399C2.6853 343.753 2.25011 341.393 2.2964 338.722C2.2964 338.722 2.35196 338.85 2.389 338.722C2.09338 336.139 1.92898 333.504 1.89826 330.856C2.12974 331.643 2.01863 332.027 2.25937 331.533C2.25937 330.381 1.87048 331.862 1.80566 329.558C1.93529 328.808 2.04641 327.161 2.30567 326.942V329.1C2.639 328.003 2.30567 326.302 2.30567 325.149L2.45382 325.295C2.45382 321.966 2.0464 321.93 2.06492 318.344L1.96308 318.71C1.60197 316.753 2.15753 317.082 1.88901 315.052L2.25937 314.466C2.16678 313.168 1.90751 309.948 1.83344 307.625C2.09937 309.489 2.29132 311.391 2.40752 313.314C2.44015 311.633 2.37177 309.951 2.20382 308.302C2.26672 308.853 2.28855 309.42 2.26863 309.985C1.95198 307.986 1.808 305.895 1.84271 303.802C2.55567 304.259 2.02789 297.162 2.57418 295.314C2.31492 290.796 2.6853 286.369 2.64826 281.119C2.0927 282.948 2.64825 279.582 2.06492 279.893C2.01312 279.288 2.01312 278.67 2.06492 278.064L2.39826 274.406C2.56492 273.528 2.5279 275.576 2.65753 275.467C2.65753 272.778 2.89827 274.333 3.04641 272.558C2.84271 272.924 2.75011 271.644 2.83344 270.107L2.57418 272.265C2.26863 268.607 3.04641 269.028 2.75011 265.241L2.92604 266.448C2.82419 264.509 2.92603 259.296 2.47233 257.302C2.53715 256.973 2.69455 256.516 2.73159 257.302C2.80566 252.674 2.25011 247.004 2.52788 243.4L2.66678 243.747C2.66678 242.888 2.40752 242.247 2.54641 241.168C2.60196 241.168 2.6853 241.516 2.69456 241.168C2.56057 240.042 2.50758 238.884 2.53715 237.729L2.6853 238.717C2.87049 234.199 2.30567 231.784 2.21307 227.998C2.62048 227.998 2.75937 224.449 2.82419 222.674H2.87974C2.92604 217.425 2.53715 213.748 2.37975 208.882C2.82419 205.864 2.56493 198.638 2.81493 193.791C2.74086 194.522 2.50012 193.663 2.45382 192.803C2.40753 191.943 2.17604 189.657 2.54641 189.84V190.242C2.91678 189.382 2.81493 187.041 2.82419 185.212L2.3427 184.919C3.04641 180.126 2.07419 172.37 2.71308 169.773C2.59271 168.62 2.5927 167.193 2.47233 166.114H2.73159C2.7964 162.931 2.83344 161.322 2.73159 157.37L2.92604 158.175C2.92604 155.944 2.16678 155.358 2.14827 153.309L2.53715 152.687C2.53715 148.809 2.87975 144.858 2.53715 141.017C2.59271 141.017 2.70382 141.2 2.72234 141.822C2.72234 139.992 2.98159 134.742 2.44455 135.401C2.79641 135.401 2.44456 131.395 2.32419 129.291L2.58345 129.621C2.26532 128.273 2.09193 126.809 2.07419 125.322C2.07419 124.737 2.27789 124.81 2.21307 125.578C2.35196 123.621 1.97233 124.06 2.11122 121.682L2.26863 122.578C2.33718 121.561 2.24672 120.527 2.00937 119.615C1.90086 118.213 2.00728 116.78 2.31493 115.499C2.06876 114.74 1.97314 113.828 2.04641 112.938C2.12975 112.773 2.1853 113.212 2.21307 113.432C2.389 110.066 1.91677 108.42 2.16677 106.115C2.20728 106.082 2.24297 106.03 2.27049 105.963C2.29801 105.895 2.31649 105.816 2.32419 105.731C2.32419 108.401 2.32419 110.542 2.32419 110.34C2.55568 110.34 2.60197 108.182 2.92604 109.901C2.62176 107.689 2.46916 105.407 2.47233 103.115C2.49092 103.008 2.51917 102.909 2.55568 102.822V103.042C2.5892 102.605 2.5892 102.161 2.55568 101.725C2.60486 101.12 2.62962 100.508 2.62974 99.8953C2.82418 99.6575 2.74085 97.4258 2.75011 96.3466C2.49085 96.3466 2.52789 95.0295 2.31493 96.3466C2.31493 96.1819 2.31493 96.5478 2.31493 97.2612C2.31493 97.4258 2.31493 97.627 2.31493 97.7185C2.31493 97.81 2.31493 97.7185 2.31493 97.7185C2.31493 98.4319 2.31493 99.3465 2.31493 100.407C2.13228 99.4745 2.09678 98.4542 2.21307 97.4807C2.04641 96.9136 1.87048 96.31 1.79641 95.9624C2.15752 94.499 2.35196 91.6637 2.57418 91.2612C2.43529 87.9686 2.4816 83.5235 1.99086 81.4565C1.92605 80.5236 2.12974 80.3772 2.21307 80.0297C2.22672 80.5293 2.26392 81.0253 2.32419 81.5113C2.19456 79.6821 2.26863 76.0236 1.92604 75.5297C2.08345 73.17 2.24085 76.8467 2.1853 73.7004L2.2964 74.1395C2.8427 67.7737 1.41679 63.7859 2.12049 56.725C2.12049 57.2189 2.05567 57.475 2.00011 57.5665C2.31493 49.5178 1.71308 40.9935 2.20382 33.0545C2.2729 31.7348 2.17425 30.4019 1.91678 29.1765L2.19456 28.6826L1.87049 26.3229C1.639 22.9937 2.55567 20.5425 2.11122 16.3169L1.92604 16.8657C1.92604 15.3474 1.81493 12.0547 2.02789 12.3108C1.97039 12.1546 1.93208 11.9742 1.91601 11.7837C1.89994 11.5932 1.90654 11.3979 1.93529 11.2133H2.08344L1.82419 7.55477C1.9353 4.66456 2.40752 7.9938 2.4353 3.78652C2.37974 2.21337 2.00938 -0.676838 1.91678 -0.091478C1.82419 0.493882 1.82418 1.51827 1.67603 1.57315L1.60196 0.128023C1.16677 -0.128072 0.731598 -1.22561 0.426043 2.28655L0.685301 4.73774L0.481596 5.54261V3.47555C0.350523 4.38525 0.386603 5.35724 0.583449 6.21943C0.453886 6.50456 0.372917 6.86287 0.351967 7.2438L0.768631 9.65843C0.592705 9.95111 0.426037 8.57916 0.333445 10.1889C0.527889 11.323 0.713077 9.10965 0.842707 10.9755C0.648262 12.1462 0.481589 11.8169 0.648256 13.1889C0.537145 13.3718 0.47233 13.0791 0.416775 12.5486C0.449505 13.8565 0.545635 15.1551 0.703824 16.4266C0.463083 17.6339 0.768629 20.5608 0.361221 20.4327C0.554681 21.4914 0.667032 22.6011 0.694555 23.7254C0.213074 21.6766 0.694559 27.9509 0.148262 27.3839C0.583447 28.9021 0.342708 32.8716 0.583449 35.5789C0.524547 35.3728 0.495705 35.1385 0.500119 34.902C0.463066 35.8909 0.379365 36.8708 0.250115 37.8289C0.611226 38.0301 0.69456 40.3898 0.916782 41.6703C0.57419 43.4995 0.49085 40.5362 0.157516 41.1215C0.453813 41.03 0.453814 44.3593 0.694555 43.719C0.481592 45.1459 0.592701 44.9447 0.287146 45.6764C0.740849 45.9324 0.370478 47.0117 0.648256 48.1824C0.426034 50.2495 0.222332 48.7129 0.361221 50.9812C0.222332 52.0604 0.0556641 50.0483 0.0556641 50.0483" fill="black"/>
</svg>
